<?xml version="1.0" encoding="UTF-8" standalone="no"?>
<!DOCTYPE svg PUBLIC "-//W3C//DTD SVG 1.1//EN"
 "http://www.w3.org/Graphics/SVG/1.1/DTD/svg11.dtd">
<!-- Generated by graphviz version 2.26.0 (20091210.2329)
 -->
<!-- Title: array2dinterpol.h Pages: 1 -->
<svg width="226pt" height="146pt"
 viewBox="0.00 0.00 226.00 146.00" xmlns="http://www.w3.org/2000/svg" xmlns:xlink="http://www.w3.org/1999/xlink">
<g id="graph1" class="graph" transform="scale(1 1) rotate(0) translate(4 142)">
<title>array2dinterpol.h</title>
<polygon fill="white" stroke="white" points="-4,5 -4,-142 223,-142 223,5 -4,5"/>
<!-- Node1 -->
<g id="node1" class="node"><title>Node1</title>
<polygon fill="#bfbfbf" stroke="black" points="67.5,-116.5 67.5,-137.5 156.5,-137.5 156.5,-116.5 67.5,-116.5"/>
<text text-anchor="middle" x="112" y="-124.5" font-family="Helvetica,sans-Serif" font-size="10.00">array2dinterpol.h</text>
</g>
<!-- Node2 -->
<g id="node3" class="node"><title>Node2</title>
<a xlink:href="array2dinterpolimpl_8h.html" target="_top" xlink:title="array2dinterpolimpl.h">
<polygon fill="white" stroke="black" points="-0.5,-58.5 -0.5,-79.5 106.5,-79.5 106.5,-58.5 -0.5,-58.5"/>
<text text-anchor="middle" x="53" y="-66.5" font-family="Helvetica,sans-Serif" font-size="10.00">array2dinterpolimpl.h</text>
</a>
</g>
<!-- Node1&#45;&gt;Node2 -->
<g id="edge2" class="edge"><title>Node1&#45;&gt;Node2</title>
<path fill="none" stroke="midnightblue" d="M93.8097,-109.118C83.9625,-99.4377 72.1341,-87.8098 63.7529,-79.5707"/>
<polygon fill="midnightblue" stroke="midnightblue" points="91.5936,-111.847 101.178,-116.362 96.5009,-106.856 91.5936,-111.847"/>
</g>
<!-- Node4 -->
<g id="node7" class="node"><title>Node4</title>
<a xlink:href="contcurvinterpol_8h.html" target="_top" xlink:title="contcurvinterpol.h">
<polygon fill="white" stroke="black" points="124,-58.5 124,-79.5 218,-79.5 218,-58.5 124,-58.5"/>
<text text-anchor="middle" x="171" y="-66.5" font-family="Helvetica,sans-Serif" font-size="10.00">contcurvinterpol.h</text>
</a>
</g>
<!-- Node1&#45;&gt;Node4 -->
<g id="edge6" class="edge"><title>Node1&#45;&gt;Node4</title>
<path fill="none" stroke="midnightblue" d="M130.19,-109.118C140.037,-99.4377 151.866,-87.8098 160.247,-79.5707"/>
<polygon fill="midnightblue" stroke="midnightblue" points="127.499,-106.856 122.822,-116.362 132.406,-111.847 127.499,-106.856"/>
</g>
<!-- Node3 -->
<g id="node5" class="node"><title>Node3</title>
<a xlink:href="horizongridder_8h.html" target="_top" xlink:title="horizongridder.h">
<polygon fill="white" stroke="black" points="69,-0.5 69,-21.5 155,-21.5 155,-0.5 69,-0.5"/>
<text text-anchor="middle" x="112" y="-8.5" font-family="Helvetica,sans-Serif" font-size="10.00">horizongridder.h</text>
</a>
</g>
<!-- Node2&#45;&gt;Node3 -->
<g id="edge4" class="edge"><title>Node2&#45;&gt;Node3</title>
<path fill="none" stroke="midnightblue" d="M71.1903,-51.118C81.0375,-41.4377 92.8659,-29.8098 101.247,-21.5707"/>
<polygon fill="midnightblue" stroke="midnightblue" points="68.4991,-48.8556 63.8215,-58.3619 73.4064,-53.8474 68.4991,-48.8556"/>
</g>
<!-- Node4&#45;&gt;Node3 -->
<g id="edge8" class="edge"><title>Node4&#45;&gt;Node3</title>
<path fill="none" stroke="midnightblue" d="M152.81,-51.118C142.963,-41.4377 131.134,-29.8098 122.753,-21.5707"/>
<polygon fill="midnightblue" stroke="midnightblue" points="150.594,-53.8474 160.178,-58.3619 155.501,-48.8556 150.594,-53.8474"/>
</g>
</g>
</svg>
