<?xml version="1.0" encoding="UTF-8" standalone="no"?>
<!DOCTYPE svg PUBLIC "-//W3C//DTD SVG 1.1//EN"
 "http://www.w3.org/Graphics/SVG/1.1/DTD/svg11.dtd">
<!-- Generated by graphviz version 2.26.0 (20091210.2329)
 -->
<!-- Title: arraynd.h Pages: 1 -->
<svg width="3449pt" height="204pt"
 viewBox="0.00 0.00 3449.00 204.00" xmlns="http://www.w3.org/2000/svg" xmlns:xlink="http://www.w3.org/1999/xlink">
<g id="graph1" class="graph" transform="scale(1 1) rotate(0) translate(4 200)">
<title>arraynd.h</title>
<polygon fill="white" stroke="white" points="-4,5 -4,-200 3446,-200 3446,5 -4,5"/>
<!-- Node1 -->
<g id="node1" class="node"><title>Node1</title>
<polygon fill="#bfbfbf" stroke="black" points="2198.5,-174.5 2198.5,-195.5 2255.5,-195.5 2255.5,-174.5 2198.5,-174.5"/>
<text text-anchor="middle" x="2227" y="-182.5" font-family="Helvetica,sans-Serif" font-size="10.00">arraynd.h</text>
</g>
<!-- Node2 -->
<g id="node3" class="node"><title>Node2</title>
<a xlink:href="arrayndimpl_8h.html" target="_top" xlink:title="arrayndimpl.h">
<polygon fill="white" stroke="red" points="1432.5,-116.5 1432.5,-137.5 1507.5,-137.5 1507.5,-116.5 1432.5,-116.5"/>
<text text-anchor="middle" x="1470" y="-124.5" font-family="Helvetica,sans-Serif" font-size="10.00">arrayndimpl.h</text>
</a>
</g>
<!-- Node1&#45;&gt;Node2 -->
<g id="edge2" class="edge"><title>Node1&#45;&gt;Node2</title>
<path fill="none" stroke="midnightblue" d="M2188.17,-183.299C2059.45,-177.524 1647.46,-157.917 1516,-138 1513.24,-137.582 1510.4,-137.081 1507.55,-136.526"/>
<polygon fill="midnightblue" stroke="midnightblue" points="2188.2,-186.804 2198.34,-183.753 2188.51,-179.81 2188.2,-186.804"/>
</g>
<!-- Node7 -->
<g id="node13" class="node"><title>Node7</title>
<a xlink:href="array3dfloodfill_8h.html" target="_top" xlink:title="array3dfloodfill.h">
<polygon fill="white" stroke="black" points="0,-58.5 0,-79.5 88,-79.5 88,-58.5 0,-58.5"/>
<text text-anchor="middle" x="44" y="-66.5" font-family="Helvetica,sans-Serif" font-size="10.00">array3dfloodfill.h</text>
</a>
</g>
<!-- Node1&#45;&gt;Node7 -->
<g id="edge72" class="edge"><title>Node1&#45;&gt;Node7</title>
<path fill="none" stroke="midnightblue" d="M2188.14,-184.594C1963.78,-182.154 831.931,-168.497 485,-138 311.309,-122.732 268.651,-110.617 97,-80 94.132,-79.4884 91.1815,-78.9395 88.2104,-78.3697"/>
<polygon fill="midnightblue" stroke="midnightblue" points="2188.39,-188.097 2198.43,-184.705 2188.47,-181.097 2188.39,-188.097"/>
</g>
<!-- Node11 -->
<g id="node21" class="node"><title>Node11</title>
<a xlink:href="isocontourtracer_8h.html" target="_top" xlink:title="isocontourtracer.h">
<polygon fill="white" stroke="black" points="105.5,-58.5 105.5,-79.5 200.5,-79.5 200.5,-58.5 105.5,-58.5"/>
<text text-anchor="middle" x="153" y="-66.5" font-family="Helvetica,sans-Serif" font-size="10.00">isocontourtracer.h</text>
</a>
</g>
<!-- Node1&#45;&gt;Node11 -->
<g id="edge88" class="edge"><title>Node1&#45;&gt;Node11</title>
<path fill="none" stroke="midnightblue" d="M2188.03,-184.759C2018.9,-183.497 1331.77,-176.166 769,-138 519.353,-121.07 456.463,-117.041 209,-80 206.256,-79.5893 203.443,-79.1369 200.608,-78.6567"/>
<polygon fill="midnightblue" stroke="midnightblue" points="2188.16,-188.26 2198.19,-184.832 2188.21,-181.26 2188.16,-188.26"/>
</g>
<!-- Node20 -->
<g id="node41" class="node"><title>Node20</title>
<a xlink:href="wavelettrans_8h.html" target="_top" xlink:title="wavelettrans.h">
<polygon fill="white" stroke="red" points="2704,-58.5 2704,-79.5 2784,-79.5 2784,-58.5 2704,-58.5"/>
<text text-anchor="middle" x="2744" y="-66.5" font-family="Helvetica,sans-Serif" font-size="10.00">wavelettrans.h</text>
</a>
</g>
<!-- Node1&#45;&gt;Node20 -->
<g id="edge90" class="edge"><title>Node1&#45;&gt;Node20</title>
<path fill="none" stroke="midnightblue" d="M2188.19,-184.202C2077.81,-181.535 1768.11,-171.137 1738,-138 1731.43,-130.763 1731.22,-123.043 1738,-116 1774.91,-77.6783 2642.24,-86.8556 2695,-80 2697.94,-79.618 2700.96,-79.1435 2704,-78.6077"/>
<polygon fill="midnightblue" stroke="midnightblue" points="2188.15,-187.702 2198.23,-184.437 2188.32,-180.704 2188.15,-187.702"/>
</g>
<!-- Node32 -->
<g id="node66" class="node"><title>Node32</title>
<a xlink:href="arrayndslice_8h.html" target="_top" xlink:title="arrayndslice.h">
<polygon fill="white" stroke="black" points="777.5,-116.5 777.5,-137.5 854.5,-137.5 854.5,-116.5 777.5,-116.5"/>
<text text-anchor="middle" x="816" y="-124.5" font-family="Helvetica,sans-Serif" font-size="10.00">arrayndslice.h</text>
</a>
</g>
<!-- Node1&#45;&gt;Node32 -->
<g id="edge68" class="edge"><title>Node1&#45;&gt;Node32</title>
<path fill="none" stroke="midnightblue" d="M2188.38,-183.412C1986.72,-175.123 1056.2,-136.873 854.595,-128.586"/>
<polygon fill="midnightblue" stroke="midnightblue" points="2188.36,-186.915 2198.5,-183.828 2188.65,-179.92 2188.36,-186.915"/>
</g>
<!-- Node33 -->
<g id="node70" class="node"><title>Node33</title>
<a xlink:href="arraynddumper_8h.html" target="_top" xlink:title="arraynddumper.h">
<polygon fill="white" stroke="black" points="1746.5,-116.5 1746.5,-137.5 1835.5,-137.5 1835.5,-116.5 1746.5,-116.5"/>
<text text-anchor="middle" x="1791" y="-124.5" font-family="Helvetica,sans-Serif" font-size="10.00">arraynddumper.h</text>
</a>
</g>
<!-- Node1&#45;&gt;Node33 -->
<g id="edge74" class="edge"><title>Node1&#45;&gt;Node33</title>
<path fill="none" stroke="midnightblue" d="M2188.01,-181.29C2118.6,-174.445 1969.12,-158.624 1844,-138 1841.31,-137.557 1838.55,-137.073 1835.77,-136.563"/>
<polygon fill="midnightblue" stroke="midnightblue" points="2187.76,-184.782 2198.06,-182.272 2188.44,-177.815 2187.76,-184.782"/>
</g>
<!-- Node34 -->
<g id="node72" class="node"><title>Node34</title>
<a xlink:href="arrayndsmoother_8h.html" target="_top" xlink:title="arrayndsmoother.h">
<polygon fill="white" stroke="black" points="1853,-116.5 1853,-137.5 1951,-137.5 1951,-116.5 1853,-116.5"/>
<text text-anchor="middle" x="1902" y="-124.5" font-family="Helvetica,sans-Serif" font-size="10.00">arrayndsmoother.h</text>
</a>
</g>
<!-- Node1&#45;&gt;Node34 -->
<g id="edge76" class="edge"><title>Node1&#45;&gt;Node34</title>
<path fill="none" stroke="midnightblue" d="M2188.01,-178.303C2135.98,-169.328 2041,-152.809 1960,-138 1957.08,-137.465 1954.07,-136.911 1951.04,-136.348"/>
<polygon fill="midnightblue" stroke="midnightblue" points="2187.69,-181.798 2198.14,-180.047 2188.87,-174.9 2187.69,-181.798"/>
</g>
<!-- Node35 -->
<g id="node74" class="node"><title>Node35</title>
<a xlink:href="arrayndstacker_8h.html" target="_top" xlink:title="arrayndstacker.h">
<polygon fill="white" stroke="black" points="1968.5,-116.5 1968.5,-137.5 2057.5,-137.5 2057.5,-116.5 1968.5,-116.5"/>
<text text-anchor="middle" x="2013" y="-124.5" font-family="Helvetica,sans-Serif" font-size="10.00">arrayndstacker.h</text>
</a>
</g>
<!-- Node1&#45;&gt;Node35 -->
<g id="edge78" class="edge"><title>Node1&#45;&gt;Node35</title>
<path fill="none" stroke="midnightblue" d="M2188.3,-174.511C2149.66,-164.038 2090.6,-148.033 2051.9,-137.542"/>
<polygon fill="midnightblue" stroke="midnightblue" points="2187.57,-177.94 2198.14,-177.178 2189.4,-171.184 2187.57,-177.94"/>
</g>
<!-- Node36 -->
<g id="node76" class="node"><title>Node36</title>
<a xlink:href="convolve2d_8h.html" target="_top" xlink:title="convolve2d.h">
<polygon fill="white" stroke="black" points="1525,-116.5 1525,-137.5 1599,-137.5 1599,-116.5 1525,-116.5"/>
<text text-anchor="middle" x="1562" y="-124.5" font-family="Helvetica,sans-Serif" font-size="10.00">convolve2d.h</text>
</a>
</g>
<!-- Node1&#45;&gt;Node36 -->
<g id="edge80" class="edge"><title>Node1&#45;&gt;Node36</title>
<path fill="none" stroke="midnightblue" d="M2188.43,-184.198C2090.73,-181.708 1825.8,-172.088 1608,-138 1605.08,-137.543 1602.07,-136.997 1599.06,-136.396"/>
<polygon fill="midnightblue" stroke="midnightblue" points="2188.35,-187.697 2198.43,-184.443 2188.52,-180.7 2188.35,-187.697"/>
</g>
<!-- Node37 -->
<g id="node79" class="node"><title>Node37</title>
<a xlink:href="convolve3d_8h.html" target="_top" xlink:title="convolve3d.h">
<polygon fill="white" stroke="black" points="1617,-116.5 1617,-137.5 1691,-137.5 1691,-116.5 1617,-116.5"/>
<text text-anchor="middle" x="1654" y="-124.5" font-family="Helvetica,sans-Serif" font-size="10.00">convolve3d.h</text>
</a>
</g>
<!-- Node1&#45;&gt;Node37 -->
<g id="edge84" class="edge"><title>Node1&#45;&gt;Node37</title>
<path fill="none" stroke="midnightblue" d="M2188.08,-183.131C2101.08,-178.597 1884.4,-165.318 1705,-138 1700.52,-137.318 1695.85,-136.483 1691.23,-135.581"/>
<polygon fill="midnightblue" stroke="midnightblue" points="2188.11,-186.637 2198.28,-183.653 2188.47,-179.646 2188.11,-186.637"/>
</g>
<!-- Node38 -->
<g id="node84" class="node"><title>Node38</title>
<a xlink:href="array2dbitmap_8h.html" target="_top" xlink:title="array2dbitmap.h">
<polygon fill="white" stroke="red" points="2075,-116.5 2075,-137.5 2161,-137.5 2161,-116.5 2075,-116.5"/>
<text text-anchor="middle" x="2118" y="-124.5" font-family="Helvetica,sans-Serif" font-size="10.00">array2dbitmap.h</text>
</a>
</g>
<!-- Node1&#45;&gt;Node38 -->
<g id="edge92" class="edge"><title>Node1&#45;&gt;Node38</title>
<path fill="none" stroke="midnightblue" d="M2198.42,-169.794C2179.41,-159.675 2154.9,-146.634 2137.96,-137.621"/>
<polygon fill="midnightblue" stroke="midnightblue" points="2196.79,-172.889 2207.26,-174.497 2200.08,-166.709 2196.79,-172.889"/>
</g>
<!-- Node39 -->
<g id="node86" class="node"><title>Node39</title>
<a xlink:href="array2dresample_8h.html" target="_top" xlink:title="array2dresample.h">
<polygon fill="white" stroke="black" points="2178.5,-116.5 2178.5,-137.5 2275.5,-137.5 2275.5,-116.5 2178.5,-116.5"/>
<text text-anchor="middle" x="2227" y="-124.5" font-family="Helvetica,sans-Serif" font-size="10.00">array2dresample.h</text>
</a>
</g>
<!-- Node1&#45;&gt;Node39 -->
<g id="edge94" class="edge"><title>Node1&#45;&gt;Node39</title>
<path fill="none" stroke="midnightblue" d="M2227,-164.191C2227,-155.168 2227,-144.994 2227,-137.571"/>
<polygon fill="midnightblue" stroke="midnightblue" points="2223.5,-164.362 2227,-174.362 2230.5,-164.362 2223.5,-164.362"/>
</g>
<!-- Node40 -->
<g id="node88" class="node"><title>Node40</title>
<a xlink:href="arrayndsubsel_8h.html" target="_top" xlink:title="arrayndsubsel.h">
<polygon fill="white" stroke="black" points="2293,-116.5 2293,-137.5 2379,-137.5 2379,-116.5 2293,-116.5"/>
<text text-anchor="middle" x="2336" y="-124.5" font-family="Helvetica,sans-Serif" font-size="10.00">arrayndsubsel.h</text>
</a>
</g>
<!-- Node1&#45;&gt;Node40 -->
<g id="edge96" class="edge"><title>Node1&#45;&gt;Node40</title>
<path fill="none" stroke="midnightblue" d="M2255.58,-169.794C2274.59,-159.675 2299.1,-146.634 2316.04,-137.621"/>
<polygon fill="midnightblue" stroke="midnightblue" points="2253.92,-166.709 2246.74,-174.497 2257.21,-172.889 2253.92,-166.709"/>
</g>
<!-- Node41 -->
<g id="node90" class="node"><title>Node41</title>
<a xlink:href="bidvsetarrayadapter_8h.html" target="_top" xlink:title="bidvsetarrayadapter.h">
<polygon fill="white" stroke="black" points="2397,-116.5 2397,-137.5 2507,-137.5 2507,-116.5 2397,-116.5"/>
<text text-anchor="middle" x="2452" y="-124.5" font-family="Helvetica,sans-Serif" font-size="10.00">bidvsetarrayadapter.h</text>
</a>
</g>
<!-- Node1&#45;&gt;Node41 -->
<g id="edge98" class="edge"><title>Node1&#45;&gt;Node41</title>
<path fill="none" stroke="midnightblue" d="M2265.74,-175.015C2306.25,-164.57 2369.6,-148.242 2410.96,-137.58"/>
<polygon fill="midnightblue" stroke="midnightblue" points="2264.76,-171.651 2255.95,-177.536 2266.51,-178.429 2264.76,-171.651"/>
</g>
<!-- Node42 -->
<g id="node92" class="node"><title>Node42</title>
<a xlink:href="arraytesselator_8h.html" target="_top" xlink:title="arraytesselator.h">
<polygon fill="white" stroke="black" points="2524.5,-116.5 2524.5,-137.5 2613.5,-137.5 2613.5,-116.5 2524.5,-116.5"/>
<text text-anchor="middle" x="2569" y="-124.5" font-family="Helvetica,sans-Serif" font-size="10.00">arraytesselator.h</text>
</a>
</g>
<!-- Node1&#45;&gt;Node42 -->
<g id="edge100" class="edge"><title>Node1&#45;&gt;Node42</title>
<path fill="none" stroke="midnightblue" d="M2265.89,-179.223C2321.48,-170.844 2426.78,-154.506 2516,-138 2518.77,-137.487 2521.62,-136.943 2524.49,-136.383"/>
<polygon fill="midnightblue" stroke="midnightblue" points="2265.15,-175.795 2255.79,-180.742 2266.19,-182.718 2265.15,-175.795"/>
</g>
<!-- Node43 -->
<g id="node94" class="node"><title>Node43</title>
<a xlink:href="embody_8h.html" target="_top" xlink:title="embody.h">
<polygon fill="white" stroke="red" points="2630.5,-116.5 2630.5,-137.5 2689.5,-137.5 2689.5,-116.5 2630.5,-116.5"/>
<text text-anchor="middle" x="2660" y="-124.5" font-family="Helvetica,sans-Serif" font-size="10.00">embody.h</text>
</a>
</g>
<!-- Node1&#45;&gt;Node43 -->
<g id="edge102" class="edge"><title>Node1&#45;&gt;Node43</title>
<path fill="none" stroke="midnightblue" d="M2265.79,-182.496C2336.95,-177.437 2492.92,-164.179 2622,-138 2624.69,-137.454 2627.47,-136.81 2630.24,-136.112"/>
<polygon fill="midnightblue" stroke="midnightblue" points="2265.24,-179.026 2255.51,-183.211 2265.73,-186.009 2265.24,-179.026"/>
</g>
<!-- Node44 -->
<g id="node96" class="node"><title>Node44</title>
<a xlink:href="seisbufadapters_8h.html" target="_top" xlink:title="seisbufadapters.h">
<polygon fill="white" stroke="black" points="2707,-116.5 2707,-137.5 2801,-137.5 2801,-116.5 2707,-116.5"/>
<text text-anchor="middle" x="2754" y="-124.5" font-family="Helvetica,sans-Serif" font-size="10.00">seisbufadapters.h</text>
</a>
</g>
<!-- Node1&#45;&gt;Node44 -->
<g id="edge104" class="edge"><title>Node1&#45;&gt;Node44</title>
<path fill="none" stroke="midnightblue" d="M2265.7,-182.383C2346.38,-176.653 2538.31,-161.597 2698,-138 2700.84,-137.58 2703.76,-137.114 2706.7,-136.618"/>
<polygon fill="midnightblue" stroke="midnightblue" points="2265.25,-178.906 2255.52,-183.098 2265.74,-185.889 2265.25,-178.906"/>
</g>
<!-- Node45 -->
<g id="node98" class="node"><title>Node45</title>
<a xlink:href="seiscubeprov_8h.html" target="_top" xlink:title="seiscubeprov.h">
<polygon fill="white" stroke="black" points="2818.5,-116.5 2818.5,-137.5 2901.5,-137.5 2901.5,-116.5 2818.5,-116.5"/>
<text text-anchor="middle" x="2860" y="-124.5" font-family="Helvetica,sans-Serif" font-size="10.00">seiscubeprov.h</text>
</a>
</g>
<!-- Node1&#45;&gt;Node45 -->
<g id="edge106" class="edge"><title>Node1&#45;&gt;Node45</title>
<path fill="none" stroke="midnightblue" d="M2265.84,-183.696C2359.76,-180.146 2606.45,-168.451 2810,-138 2812.73,-137.592 2815.52,-137.122 2818.34,-136.61"/>
<polygon fill="midnightblue" stroke="midnightblue" points="2265.53,-180.205 2255.67,-184.071 2265.79,-187.2 2265.53,-180.205"/>
</g>
<!-- Node46 -->
<g id="node100" class="node"><title>Node46</title>
<a xlink:href="attribdataholderarray_8h.html" target="_top" xlink:title="attribdataholderarray.h">
<polygon fill="white" stroke="black" points="2918.5,-116.5 2918.5,-137.5 3031.5,-137.5 3031.5,-116.5 2918.5,-116.5"/>
<text text-anchor="middle" x="2975" y="-124.5" font-family="Helvetica,sans-Serif" font-size="10.00">attribdataholderarray.h</text>
</a>
</g>
<!-- Node1&#45;&gt;Node46 -->
<g id="edge108" class="edge"><title>Node1&#45;&gt;Node46</title>
<path fill="none" stroke="midnightblue" d="M2265.8,-183.676C2370.21,-179.821 2665.81,-166.992 2910,-138 2912.73,-137.676 2915.52,-137.316 2918.33,-136.93"/>
<polygon fill="midnightblue" stroke="midnightblue" points="2265.59,-180.181 2255.72,-184.041 2265.84,-187.176 2265.59,-180.181"/>
</g>
<!-- Node47 -->
<g id="node102" class="node"><title>Node47</title>
<a xlink:href="textureattrib_8h.html" target="_top" xlink:title="textureattrib.h">
<polygon fill="white" stroke="black" points="3048.5,-116.5 3048.5,-137.5 3125.5,-137.5 3125.5,-116.5 3048.5,-116.5"/>
<text text-anchor="middle" x="3087" y="-124.5" font-family="Helvetica,sans-Serif" font-size="10.00">textureattrib.h</text>
</a>
</g>
<!-- Node1&#45;&gt;Node47 -->
<g id="edge110" class="edge"><title>Node1&#45;&gt;Node47</title>
<path fill="none" stroke="midnightblue" d="M2266.15,-183.632C2407.02,-178.569 2887.78,-160.046 3040,-138 3042.74,-137.604 3045.55,-137.127 3048.37,-136.596"/>
<polygon fill="midnightblue" stroke="midnightblue" points="2265.71,-180.145 2255.84,-184 2265.96,-187.14 2265.71,-180.145"/>
</g>
<!-- Node48 -->
<g id="node104" class="node"><title>Node48</title>
<a xlink:href="dpsdensitycalc_8h.html" target="_top" xlink:title="dpsdensitycalc.h">
<polygon fill="white" stroke="black" points="3143,-116.5 3143,-137.5 3233,-137.5 3233,-116.5 3143,-116.5"/>
<text text-anchor="middle" x="3188" y="-124.5" font-family="Helvetica,sans-Serif" font-size="10.00">dpsdensitycalc.h</text>
</a>
</g>
<!-- Node1&#45;&gt;Node48 -->
<g id="edge112" class="edge"><title>Node1&#45;&gt;Node48</title>
<path fill="none" stroke="midnightblue" d="M2266.12,-183.751C2417.12,-178.811 2962.15,-159.832 3134,-138 3136.85,-137.638 3139.77,-137.21 3142.71,-136.736"/>
<polygon fill="midnightblue" stroke="midnightblue" points="2265.82,-180.259 2255.94,-184.083 2266.05,-187.256 2265.82,-180.259"/>
</g>
<!-- Node49 -->
<g id="node106" class="node"><title>Node49</title>
<a xlink:href="densitycalc_8h.html" target="_top" xlink:title="densitycalc.h">
<polygon fill="white" stroke="black" points="3251,-116.5 3251,-137.5 3325,-137.5 3325,-116.5 3251,-116.5"/>
<text text-anchor="middle" x="3288" y="-124.5" font-family="Helvetica,sans-Serif" font-size="10.00">densitycalc.h</text>
</a>
</g>
<!-- Node1&#45;&gt;Node49 -->
<g id="edge114" class="edge"><title>Node1&#45;&gt;Node49</title>
<path fill="none" stroke="midnightblue" d="M2266.45,-184.168C2429.12,-180.581 3048.42,-165.378 3242,-138 3244.93,-137.586 3247.94,-137.071 3250.96,-136.491"/>
<polygon fill="midnightblue" stroke="midnightblue" points="2265.89,-180.679 2255.97,-184.396 2266.04,-187.677 2265.89,-180.679"/>
</g>
<!-- Node50 -->
<g id="node108" class="node"><title>Node50</title>
<a xlink:href="uigainanalysisdlg_8h.html" target="_top" xlink:title="uigainanalysisdlg.h">
<polygon fill="white" stroke="black" points="3342.5,-116.5 3342.5,-137.5 3441.5,-137.5 3441.5,-116.5 3342.5,-116.5"/>
<text text-anchor="middle" x="3392" y="-124.5" font-family="Helvetica,sans-Serif" font-size="10.00">uigainanalysisdlg.h</text>
</a>
</g>
<!-- Node1&#45;&gt;Node50 -->
<g id="edge116" class="edge"><title>Node1&#45;&gt;Node50</title>
<path fill="none" stroke="midnightblue" d="M2265.77,-184.109C2436.27,-180.076 3120.5,-162.647 3334,-138 3336.75,-137.683 3339.56,-137.31 3342.4,-136.897"/>
<polygon fill="midnightblue" stroke="midnightblue" points="2265.43,-180.616 2255.51,-184.35 2265.59,-187.614 2265.43,-180.616"/>
</g>
<!-- Node3 -->
<g id="node5" class="node"><title>Node3</title>
<a xlink:href="arrayndalgo_8h.html" target="_top" xlink:title="arrayndalgo.h">
<polygon fill="white" stroke="red" points="217.5,-58.5 217.5,-79.5 292.5,-79.5 292.5,-58.5 217.5,-58.5"/>
<text text-anchor="middle" x="255" y="-66.5" font-family="Helvetica,sans-Serif" font-size="10.00">arrayndalgo.h</text>
</a>
</g>
<!-- Node2&#45;&gt;Node3 -->
<g id="edge4" class="edge"><title>Node2&#45;&gt;Node3</title>
<path fill="none" stroke="midnightblue" d="M1422.03,-126.165C1231.41,-122.675 527.28,-108.118 306,-80 301.687,-79.4519 297.198,-78.7227 292.752,-77.8994"/>
<polygon fill="midnightblue" stroke="midnightblue" points="1422.22,-129.669 1432.28,-126.351 1422.34,-122.67 1422.22,-129.669"/>
</g>
<!-- Node4 -->
<g id="node7" class="node"><title>Node4</title>
<a xlink:href="polynd_8h.html" target="_top" xlink:title="polynd.h">
<polygon fill="white" stroke="black" points="1527.5,-0.5 1527.5,-21.5 1580.5,-21.5 1580.5,-0.5 1527.5,-0.5"/>
<text text-anchor="middle" x="1554" y="-8.5" font-family="Helvetica,sans-Serif" font-size="10.00">polynd.h</text>
</a>
</g>
<!-- Node2&#45;&gt;Node4 -->
<g id="edge30" class="edge"><title>Node2&#45;&gt;Node4</title>
<path fill="none" stroke="midnightblue" d="M1517.56,-116.501C1631.46,-109.433 2433.61,-116.748 2469,-80 2475.78,-72.9568 2475.73,-65.0891 2469,-58 2437.61,-24.9525 1728.67,-13.4027 1580.86,-11.3498"/>
<polygon fill="midnightblue" stroke="midnightblue" points="1517.19,-113.02 1507.54,-117.386 1517.81,-119.993 1517.19,-113.02"/>
</g>
<!-- Node5 -->
<g id="node9" class="node"><title>Node5</title>
<a xlink:href="freqfilterattrib_8h.html" target="_top" xlink:title="freqfilterattrib.h">
<polygon fill="white" stroke="black" points="246,-0.5 246,-21.5 328,-21.5 328,-0.5 246,-0.5"/>
<text text-anchor="middle" x="287" y="-8.5" font-family="Helvetica,sans-Serif" font-size="10.00">freqfilterattrib.h</text>
</a>
</g>
<!-- Node2&#45;&gt;Node5 -->
<g id="edge64" class="edge"><title>Node2&#45;&gt;Node5</title>
<path fill="none" stroke="midnightblue" d="M1422.23,-126.152C1213.24,-122.298 387.612,-105.509 339,-80 314.693,-67.2449 298.566,-37.4665 291.344,-21.5207"/>
<polygon fill="midnightblue" stroke="midnightblue" points="1422.22,-129.652 1432.28,-126.336 1422.35,-122.654 1422.22,-129.652"/>
</g>
<!-- Node6 -->
<g id="node11" class="node"><title>Node6</title>
<a xlink:href="array2dmatrix_8h.html" target="_top" xlink:title="array2dmatrix.h">
<polygon fill="white" stroke="black" points="1598,-58.5 1598,-79.5 1682,-79.5 1682,-58.5 1598,-58.5"/>
<text text-anchor="middle" x="1640" y="-66.5" font-family="Helvetica,sans-Serif" font-size="10.00">array2dmatrix.h</text>
</a>
</g>
<!-- Node2&#45;&gt;Node6 -->
<g id="edge10" class="edge"><title>Node2&#45;&gt;Node6</title>
<path fill="none" stroke="midnightblue" d="M1510.61,-113.144C1540.86,-102.823 1581.54,-88.9439 1609.16,-79.5231"/>
<polygon fill="midnightblue" stroke="midnightblue" points="1509.12,-109.955 1500.79,-116.497 1511.38,-116.58 1509.12,-109.955"/>
</g>
<!-- Node2&#45;&gt;Node7 -->
<g id="edge12" class="edge"><title>Node2&#45;&gt;Node7</title>
<path fill="none" stroke="midnightblue" d="M1422,-125.843C1194.52,-120.295 230.528,-96.0235 97,-80 94.1075,-79.6529 91.1384,-79.2286 88.1536,-78.7508"/>
<polygon fill="midnightblue" stroke="midnightblue" points="1422.18,-129.349 1432.27,-126.093 1422.35,-122.351 1422.18,-129.349"/>
</g>
<!-- Node8 -->
<g id="node15" class="node"><title>Node8</title>
<a xlink:href="fourierinterpol_8h.html" target="_top" xlink:title="fourierinterpol.h">
<polygon fill="white" stroke="black" points="1699.5,-58.5 1699.5,-79.5 1782.5,-79.5 1782.5,-58.5 1699.5,-58.5"/>
<text text-anchor="middle" x="1741" y="-66.5" font-family="Helvetica,sans-Serif" font-size="10.00">fourierinterpol.h</text>
</a>
</g>
<!-- Node2&#45;&gt;Node8 -->
<g id="edge14" class="edge"><title>Node2&#45;&gt;Node8</title>
<path fill="none" stroke="midnightblue" d="M1517.4,-115.731C1595.15,-98.5677 1616.37,-95.8853 1691,-80 1693.69,-79.4264 1696.47,-78.8304 1699.27,-78.2259"/>
<polygon fill="midnightblue" stroke="midnightblue" points="1516.64,-112.315 1507.63,-117.898 1518.15,-119.149 1516.64,-112.315"/>
</g>
<!-- Node9 -->
<g id="node17" class="node"><title>Node9</title>
<a xlink:href="gaussianprobdenfunc_8h.html" target="_top" xlink:title="gaussianprobdenfunc.h">
<polygon fill="white" stroke="black" points="1799.5,-58.5 1799.5,-79.5 1916.5,-79.5 1916.5,-58.5 1799.5,-58.5"/>
<text text-anchor="middle" x="1858" y="-66.5" font-family="Helvetica,sans-Serif" font-size="10.00">gaussianprobdenfunc.h</text>
</a>
</g>
<!-- Node2&#45;&gt;Node9 -->
<g id="edge16" class="edge"><title>Node2&#45;&gt;Node9</title>
<path fill="none" stroke="midnightblue" d="M1517.64,-115.83C1638.96,-93.8493 1672.27,-97.5132 1791,-80 1793.68,-79.6044 1796.42,-79.191 1799.19,-78.7664"/>
<polygon fill="midnightblue" stroke="midnightblue" points="1516.79,-112.427 1507.59,-117.673 1518.05,-119.313 1516.79,-112.427"/>
</g>
<!-- Node10 -->
<g id="node19" class="node"><title>Node10</title>
<a xlink:href="houghtransform_8h.html" target="_top" xlink:title="houghtransform.h">
<polygon fill="white" stroke="black" points="1934,-58.5 1934,-79.5 2026,-79.5 2026,-58.5 1934,-58.5"/>
<text text-anchor="middle" x="1980" y="-66.5" font-family="Helvetica,sans-Serif" font-size="10.00">houghtransform.h</text>
</a>
</g>
<!-- Node2&#45;&gt;Node10 -->
<g id="edge18" class="edge"><title>Node2&#45;&gt;Node10</title>
<path fill="none" stroke="midnightblue" d="M1517.65,-115.919C1697.9,-87.3811 1747.63,-105.464 1925,-80 1927.89,-79.5848 1930.86,-79.1159 1933.85,-78.6116"/>
<polygon fill="midnightblue" stroke="midnightblue" points="1516.88,-112.497 1507.56,-117.542 1517.99,-119.408 1516.88,-112.497"/>
</g>
<!-- Node2&#45;&gt;Node11 -->
<g id="edge20" class="edge"><title>Node2&#45;&gt;Node11</title>
<path fill="none" stroke="midnightblue" d="M1422.04,-126.219C1221.64,-122.799 450.58,-108.053 209,-80 206.244,-79.68 203.421,-79.2984 200.579,-78.8725"/>
<polygon fill="midnightblue" stroke="midnightblue" points="1422.18,-129.722 1432.24,-126.391 1422.3,-122.723 1422.18,-129.722"/>
</g>
<!-- Node12 -->
<g id="node23" class="node"><title>Node12</title>
<a xlink:href="linsolv_8h.html" target="_top" xlink:title="linsolv.h">
<polygon fill="white" stroke="black" points="1527.5,-58.5 1527.5,-79.5 1580.5,-79.5 1580.5,-58.5 1527.5,-58.5"/>
<text text-anchor="middle" x="1554" y="-66.5" font-family="Helvetica,sans-Serif" font-size="10.00">linsolv.h</text>
</a>
</g>
<!-- Node2&#45;&gt;Node12 -->
<g id="edge22" class="edge"><title>Node2&#45;&gt;Node12</title>
<path fill="none" stroke="midnightblue" d="M1493.84,-110.541C1508.24,-100.597 1526.17,-88.2177 1538.69,-79.5707"/>
<polygon fill="midnightblue" stroke="midnightblue" points="1491.65,-107.8 1485.41,-116.362 1495.62,-113.56 1491.65,-107.8"/>
</g>
<!-- Node13 -->
<g id="node26" class="node"><title>Node13</title>
<a xlink:href="pca_8h.html" target="_top" xlink:title="pca.h">
<polygon fill="white" stroke="black" points="2043.5,-58.5 2043.5,-79.5 2084.5,-79.5 2084.5,-58.5 2043.5,-58.5"/>
<text text-anchor="middle" x="2064" y="-66.5" font-family="Helvetica,sans-Serif" font-size="10.00">pca.h</text>
</a>
</g>
<!-- Node2&#45;&gt;Node13 -->
<g id="edge26" class="edge"><title>Node2&#45;&gt;Node13</title>
<path fill="none" stroke="midnightblue" d="M1517.52,-115.985C1746.42,-82.3474 1812.35,-128.832 2035,-80 2037.74,-79.4002 2040.56,-78.5901 2043.31,-77.6801"/>
<polygon fill="midnightblue" stroke="midnightblue" points="1516.92,-112.535 1507.56,-117.484 1517.96,-119.457 1516.92,-112.535"/>
</g>
<!-- Node14 -->
<g id="node28" class="node"><title>Node14</title>
<a xlink:href="phase_8h.html" target="_top" xlink:title="phase.h">
<polygon fill="white" stroke="black" points="2101.5,-58.5 2101.5,-79.5 2152.5,-79.5 2152.5,-58.5 2101.5,-58.5"/>
<text text-anchor="middle" x="2127" y="-66.5" font-family="Helvetica,sans-Serif" font-size="10.00">phase.h</text>
</a>
</g>
<!-- Node2&#45;&gt;Node14 -->
<g id="edge28" class="edge"><title>Node2&#45;&gt;Node14</title>
<path fill="none" stroke="midnightblue" d="M1517.46,-116.002C1771.93,-79.2321 1843.77,-127.313 2093,-80 2095.68,-79.4909 2098.45,-78.8318 2101.19,-78.0894"/>
<polygon fill="midnightblue" stroke="midnightblue" points="1516.93,-112.541 1507.55,-117.463 1517.96,-119.466 1516.93,-112.541"/>
</g>
<!-- Node15 -->
<g id="node31" class="node"><title>Node15</title>
<a xlink:href="qrsolv_8h.html" target="_top" xlink:title="qrsolv.h">
<polygon fill="white" stroke="black" points="2169.5,-58.5 2169.5,-79.5 2220.5,-79.5 2220.5,-58.5 2169.5,-58.5"/>
<text text-anchor="middle" x="2195" y="-66.5" font-family="Helvetica,sans-Serif" font-size="10.00">qrsolv.h</text>
</a>
</g>
<!-- Node2&#45;&gt;Node15 -->
<g id="edge32" class="edge"><title>Node2&#45;&gt;Node15</title>
<path fill="none" stroke="midnightblue" d="M1517.75,-115.972C1801.96,-75.7947 1882.06,-132.007 2161,-80 2163.68,-79.4997 2166.45,-78.8464 2169.19,-78.1075"/>
<polygon fill="midnightblue" stroke="midnightblue" points="1516.95,-112.551 1507.55,-117.442 1517.95,-119.479 1516.95,-112.551"/>
</g>
<!-- Node16 -->
<g id="node33" class="node"><title>Node16</title>
<a xlink:href="sampledprobdenfunc_8h.html" target="_top" xlink:title="sampledprobdenfunc.h">
<polygon fill="white" stroke="black" points="2237.5,-58.5 2237.5,-79.5 2352.5,-79.5 2352.5,-58.5 2237.5,-58.5"/>
<text text-anchor="middle" x="2295" y="-66.5" font-family="Helvetica,sans-Serif" font-size="10.00">sampledprobdenfunc.h</text>
</a>
</g>
<!-- Node2&#45;&gt;Node16 -->
<g id="edge34" class="edge"><title>Node2&#45;&gt;Node16</title>
<path fill="none" stroke="midnightblue" d="M1517.86,-115.957C1831.89,-71.8316 1916.94,-113.771 2229,-80 2231.77,-79.7 2234.6,-79.3597 2237.46,-78.989"/>
<polygon fill="midnightblue" stroke="midnightblue" points="1516.95,-112.551 1507.55,-117.426 1517.94,-119.481 1516.95,-112.551"/>
</g>
<!-- Node17 -->
<g id="node35" class="node"><title>Node17</title>
<a xlink:href="sincinterpolator_8h.html" target="_top" xlink:title="sincinterpolator.h">
<polygon fill="white" stroke="black" points="2369.5,-58.5 2369.5,-79.5 2460.5,-79.5 2460.5,-58.5 2369.5,-58.5"/>
<text text-anchor="middle" x="2415" y="-66.5" font-family="Helvetica,sans-Serif" font-size="10.00">sincinterpolator.h</text>
</a>
</g>
<!-- Node2&#45;&gt;Node17 -->
<g id="edge36" class="edge"><title>Node2&#45;&gt;Node17</title>
<path fill="none" stroke="midnightblue" d="M1517.52,-116.021C1890.06,-65.1234 1991.17,-125.257 2361,-80 2363.75,-79.663 2366.58,-79.2612 2369.42,-78.8135"/>
<polygon fill="midnightblue" stroke="midnightblue" points="1516.97,-112.563 1507.54,-117.401 1517.93,-119.497 1516.97,-112.563"/>
</g>
<!-- Node18 -->
<g id="node37" class="node"><title>Node18</title>
<a xlink:href="smoother2d_8h.html" target="_top" xlink:title="smoother2d.h">
<polygon fill="white" stroke="black" points="2516,-58.5 2516,-79.5 2592,-79.5 2592,-58.5 2516,-58.5"/>
<text text-anchor="middle" x="2554" y="-66.5" font-family="Helvetica,sans-Serif" font-size="10.00">smoother2d.h</text>
</a>
</g>
<!-- Node2&#45;&gt;Node18 -->
<g id="edge38" class="edge"><title>Node2&#45;&gt;Node18</title>
<path fill="none" stroke="midnightblue" d="M1517.54,-116.028C1952.27,-57.8716 2070.06,-133.17 2502,-80 2506.49,-79.4476 2511.16,-78.7036 2515.79,-77.8617"/>
<polygon fill="midnightblue" stroke="midnightblue" points="1516.98,-112.572 1507.54,-117.382 1517.92,-119.509 1516.98,-112.572"/>
</g>
<!-- Node19 -->
<g id="node39" class="node"><title>Node19</title>
<a xlink:href="smoother3d_8h.html" target="_top" xlink:title="smoother3d.h">
<polygon fill="white" stroke="black" points="2610,-58.5 2610,-79.5 2686,-79.5 2686,-58.5 2610,-58.5"/>
<text text-anchor="middle" x="2648" y="-66.5" font-family="Helvetica,sans-Serif" font-size="10.00">smoother3d.h</text>
</a>
</g>
<!-- Node2&#45;&gt;Node19 -->
<g id="edge40" class="edge"><title>Node2&#45;&gt;Node19</title>
<path fill="none" stroke="midnightblue" d="M1517.47,-116.044C1995.94,-52.8129 2125.95,-142.849 2601,-80 2603.91,-79.6153 2606.9,-79.1302 2609.9,-78.5793"/>
<polygon fill="midnightblue" stroke="midnightblue" points="1516.99,-112.577 1507.54,-117.372 1517.91,-119.516 1516.99,-112.577"/>
</g>
<!-- Node2&#45;&gt;Node20 -->
<g id="edge42" class="edge"><title>Node2&#45;&gt;Node20</title>
<path fill="none" stroke="midnightblue" d="M1517.55,-116.038C2037.42,-47.9271 2178.19,-145.295 2695,-80 2697.94,-79.6284 2700.97,-79.1615 2704,-78.6312"/>
<polygon fill="midnightblue" stroke="midnightblue" points="1516.99,-112.581 1507.54,-117.363 1517.91,-119.52 1516.99,-112.581"/>
</g>
<!-- Node21 -->
<g id="node43" class="node"><title>Node21</title>
<a xlink:href="array2dfilter_8h.html" target="_top" xlink:title="array2dfilter.h">
<polygon fill="white" stroke="red" points="348,-58.5 348,-79.5 424,-79.5 424,-58.5 348,-58.5"/>
<text text-anchor="middle" x="386" y="-66.5" font-family="Helvetica,sans-Serif" font-size="10.00">array2dfilter.h</text>
</a>
</g>
<!-- Node2&#45;&gt;Node21 -->
<g id="edge44" class="edge"><title>Node2&#45;&gt;Node21</title>
<path fill="none" stroke="midnightblue" d="M1422.37,-126.01C1245.7,-122.154 628.049,-107.009 433,-80 430.095,-79.5977 427.105,-79.0998 424.109,-78.5399"/>
<polygon fill="midnightblue" stroke="midnightblue" points="1422.32,-129.509 1432.4,-126.227 1422.48,-122.511 1422.32,-129.509"/>
</g>
<!-- Node22 -->
<g id="node45" class="node"><title>Node22</title>
<a xlink:href="seis2dto3d_8h.html" target="_top" xlink:title="seis2dto3d.h">
<polygon fill="white" stroke="black" points="442,-58.5 442,-79.5 514,-79.5 514,-58.5 442,-58.5"/>
<text text-anchor="middle" x="478" y="-66.5" font-family="Helvetica,sans-Serif" font-size="10.00">seis2dto3d.h</text>
</a>
</g>
<!-- Node2&#45;&gt;Node22 -->
<g id="edge46" class="edge"><title>Node2&#45;&gt;Node22</title>
<path fill="none" stroke="midnightblue" d="M1421.91,-125.823C1254.7,-121.542 699.328,-105.688 523,-80 520.135,-79.5826 517.186,-79.0651 514.233,-78.4838"/>
<polygon fill="midnightblue" stroke="midnightblue" points="1422.26,-129.333 1432.35,-126.088 1422.44,-122.335 1422.26,-129.333"/>
</g>
<!-- Node23 -->
<g id="node47" class="node"><title>Node23</title>
<a xlink:href="seis2dto3dinterpol_8h.html" target="_top" xlink:title="seis2dto3dinterpol.h">
<polygon fill="white" stroke="black" points="532,-58.5 532,-79.5 636,-79.5 636,-58.5 532,-58.5"/>
<text text-anchor="middle" x="584" y="-66.5" font-family="Helvetica,sans-Serif" font-size="10.00">seis2dto3dinterpol.h</text>
</a>
</g>
<!-- Node2&#45;&gt;Node23 -->
<g id="edge48" class="edge"><title>Node2&#45;&gt;Node23</title>
<path fill="none" stroke="midnightblue" d="M1422.29,-126.307C1295.39,-124.025 939.123,-114.767 645,-80 642.115,-79.6589 639.159,-79.2674 636.181,-78.84"/>
<polygon fill="midnightblue" stroke="midnightblue" points="1422.39,-129.809 1432.45,-126.483 1422.51,-122.81 1422.39,-129.809"/>
</g>
<!-- Node24 -->
<g id="node49" class="node"><title>Node24</title>
<a xlink:href="seiscbvsimpfromothersurv_8h.html" target="_top" xlink:title="seiscbvsimpfromothersurv.h">
<polygon fill="white" stroke="red" points="654,-58.5 654,-79.5 794,-79.5 794,-58.5 654,-58.5"/>
<text text-anchor="middle" x="724" y="-66.5" font-family="Helvetica,sans-Serif" font-size="10.00">seiscbvsimpfromothersurv.h</text>
</a>
</g>
<!-- Node2&#45;&gt;Node24 -->
<g id="edge50" class="edge"><title>Node2&#45;&gt;Node24</title>
<path fill="none" stroke="midnightblue" d="M1422.24,-124.752C1312.6,-119.347 1034.52,-104.247 803,-80 800.108,-79.6971 797.159,-79.3699 794.181,-79.0244"/>
<polygon fill="midnightblue" stroke="midnightblue" points="1422.15,-128.252 1432.31,-125.244 1422.5,-121.26 1422.15,-128.252"/>
</g>
<!-- Node25 -->
<g id="node51" class="node"><title>Node25</title>
<a xlink:href="attribdataholder_8h.html" target="_top" xlink:title="attribdataholder.h">
<polygon fill="white" stroke="red" points="812,-58.5 812,-79.5 904,-79.5 904,-58.5 812,-58.5"/>
<text text-anchor="middle" x="858" y="-66.5" font-family="Helvetica,sans-Serif" font-size="10.00">attribdataholder.h</text>
</a>
</g>
<!-- Node2&#45;&gt;Node25 -->
<g id="edge52" class="edge"><title>Node2&#45;&gt;Node25</title>
<path fill="none" stroke="midnightblue" d="M1422.32,-124.8C1325.79,-119.944 1100.5,-106.574 913,-80 910.108,-79.5901 907.138,-79.1252 904.148,-78.6238"/>
<polygon fill="midnightblue" stroke="midnightblue" points="1422.19,-128.297 1432.35,-125.297 1422.53,-121.306 1422.19,-128.297"/>
</g>
<!-- Node26 -->
<g id="node53" class="node"><title>Node26</title>
<a xlink:href="attribslice_8h.html" target="_top" xlink:title="attribslice.h">
<polygon fill="white" stroke="black" points="921.5,-58.5 921.5,-79.5 988.5,-79.5 988.5,-58.5 921.5,-58.5"/>
<text text-anchor="middle" x="955" y="-66.5" font-family="Helvetica,sans-Serif" font-size="10.00">attribslice.h</text>
</a>
</g>
<!-- Node2&#45;&gt;Node26 -->
<g id="edge54" class="edge"><title>Node2&#45;&gt;Node26</title>
<path fill="none" stroke="midnightblue" d="M1422.11,-124.733C1336.33,-120.119 1151,-107.64 997,-80 994.329,-79.5206 991.579,-78.9585 988.824,-78.3465"/>
<polygon fill="midnightblue" stroke="midnightblue" points="1422.15,-128.239 1432.32,-125.269 1422.52,-121.249 1422.15,-128.239"/>
</g>
<!-- Node27 -->
<g id="node55" class="node"><title>Node27</title>
<a xlink:href="volprocbodyfiller_8h.html" target="_top" xlink:title="volprocbodyfiller.h">
<polygon fill="white" stroke="red" points="1005.5,-58.5 1005.5,-79.5 1100.5,-79.5 1100.5,-58.5 1005.5,-58.5"/>
<text text-anchor="middle" x="1053" y="-66.5" font-family="Helvetica,sans-Serif" font-size="10.00">volprocbodyfiller.h</text>
</a>
</g>
<!-- Node2&#45;&gt;Node27 -->
<g id="edge56" class="edge"><title>Node2&#45;&gt;Node27</title>
<path fill="none" stroke="midnightblue" d="M1422.32,-121.784C1353.1,-113.988 1220.84,-98.2454 1109,-80 1106.26,-79.5533 1103.45,-79.0728 1100.62,-78.5711"/>
<polygon fill="midnightblue" stroke="midnightblue" points="1422.14,-125.286 1432.47,-122.921 1422.92,-118.33 1422.14,-125.286"/>
</g>
<!-- Node28 -->
<g id="node57" class="node"><title>Node28</title>
<a xlink:href="prestackgather_8h.html" target="_top" xlink:title="prestackgather.h">
<polygon fill="white" stroke="black" points="1117.5,-58.5 1117.5,-79.5 1206.5,-79.5 1206.5,-58.5 1117.5,-58.5"/>
<text text-anchor="middle" x="1162" y="-66.5" font-family="Helvetica,sans-Serif" font-size="10.00">prestackgather.h</text>
</a>
</g>
<!-- Node2&#45;&gt;Node28 -->
<g id="edge58" class="edge"><title>Node2&#45;&gt;Node28</title>
<path fill="none" stroke="midnightblue" d="M1422.24,-118.526C1370.96,-109.351 1287.12,-94.1286 1215,-80 1212.23,-79.458 1209.39,-78.892 1206.52,-78.315"/>
<polygon fill="midnightblue" stroke="midnightblue" points="1421.9,-122.021 1432.36,-120.334 1423.13,-115.13 1421.9,-122.021"/>
</g>
<!-- Node29 -->
<g id="node59" class="node"><title>Node29</title>
<a xlink:href="coherencyattrib_8h.html" target="_top" xlink:title="coherencyattrib.h">
<polygon fill="white" stroke="black" points="1224,-58.5 1224,-79.5 1316,-79.5 1316,-58.5 1224,-58.5"/>
<text text-anchor="middle" x="1270" y="-66.5" font-family="Helvetica,sans-Serif" font-size="10.00">coherencyattrib.h</text>
</a>
</g>
<!-- Node2&#45;&gt;Node29 -->
<g id="edge60" class="edge"><title>Node2&#45;&gt;Node29</title>
<path fill="none" stroke="midnightblue" d="M1424.07,-113.68C1388.3,-103.307 1339.34,-89.1078 1306.29,-79.5231"/>
<polygon fill="midnightblue" stroke="midnightblue" points="1423.2,-117.073 1433.78,-116.497 1425.15,-110.35 1423.2,-117.073"/>
</g>
<!-- Node30 -->
<g id="node61" class="node"><title>Node30</title>
<a xlink:href="dipfilterattrib_8h.html" target="_top" xlink:title="dipfilterattrib.h">
<polygon fill="white" stroke="black" points="1334,-58.5 1334,-79.5 1412,-79.5 1412,-58.5 1334,-58.5"/>
<text text-anchor="middle" x="1373" y="-66.5" font-family="Helvetica,sans-Serif" font-size="10.00">dipfilterattrib.h</text>
</a>
</g>
<!-- Node2&#45;&gt;Node30 -->
<g id="edge62" class="edge"><title>Node2&#45;&gt;Node30</title>
<path fill="none" stroke="midnightblue" d="M1443.41,-111.101C1426.63,-101.066 1405.41,-88.3808 1390.68,-79.5707"/>
<polygon fill="midnightblue" stroke="midnightblue" points="1441.83,-114.234 1452.21,-116.362 1445.42,-108.226 1441.83,-114.234"/>
</g>
<!-- Node31 -->
<g id="node64" class="node"><title>Node31</title>
<a xlink:href="positionattrib_8h.html" target="_top" xlink:title="positionattrib.h">
<polygon fill="white" stroke="black" points="1430,-58.5 1430,-79.5 1510,-79.5 1510,-58.5 1430,-58.5"/>
<text text-anchor="middle" x="1470" y="-66.5" font-family="Helvetica,sans-Serif" font-size="10.00">positionattrib.h</text>
</a>
</g>
<!-- Node2&#45;&gt;Node31 -->
<g id="edge66" class="edge"><title>Node2&#45;&gt;Node31</title>
<path fill="none" stroke="midnightblue" d="M1470,-106.191C1470,-97.1684 1470,-86.9941 1470,-79.5707"/>
<polygon fill="midnightblue" stroke="midnightblue" points="1466.5,-106.362 1470,-116.362 1473.5,-106.362 1466.5,-106.362"/>
</g>
<!-- Node3&#45;&gt;Node4 -->
<g id="edge6" class="edge"><title>Node3&#45;&gt;Node4</title>
<path fill="none" stroke="midnightblue" d="M302.7,-61.9833C314.538,-60.4545 327.212,-58.9978 339,-58 814.376,-17.7647 1397.34,-11.94 1527.44,-11.1274"/>
<polygon fill="midnightblue" stroke="midnightblue" points="302.004,-58.545 292.554,-63.3356 302.929,-65.4836 302.004,-58.545"/>
</g>
<!-- Node3&#45;&gt;Node5 -->
<g id="edge8" class="edge"><title>Node3&#45;&gt;Node5</title>
<path fill="none" stroke="midnightblue" d="M265.829,-49.3733C270.962,-40.0682 276.892,-29.3204 281.168,-21.5707"/>
<polygon fill="midnightblue" stroke="midnightblue" points="262.636,-47.9153 260.869,-58.3619 268.765,-51.2969 262.636,-47.9153"/>
</g>
<!-- Node12&#45;&gt;Node4 -->
<g id="edge24" class="edge"><title>Node12&#45;&gt;Node4</title>
<path fill="none" stroke="midnightblue" d="M1554,-48.1906C1554,-39.1684 1554,-28.9941 1554,-21.5707"/>
<polygon fill="midnightblue" stroke="midnightblue" points="1550.5,-48.3619 1554,-58.3619 1557.5,-48.3619 1550.5,-48.3619"/>
</g>
<!-- Node32&#45;&gt;Node3 -->
<g id="edge70" class="edge"><title>Node32&#45;&gt;Node3</title>
<path fill="none" stroke="midnightblue" d="M767.406,-124.477C676.437,-119.322 474.41,-105.826 306,-80 301.613,-79.3272 297.037,-78.509 292.505,-77.6257"/>
<polygon fill="midnightblue" stroke="midnightblue" points="767.241,-127.973 777.421,-125.036 767.631,-120.984 767.241,-127.973"/>
</g>
<!-- Node36&#45;&gt;Node18 -->
<g id="edge82" class="edge"><title>Node36&#45;&gt;Node18</title>
<path fill="none" stroke="midnightblue" d="M1609.01,-116.12C2003.67,-62.6185 2110.69,-128.914 2502,-80 2506.49,-79.4392 2511.16,-78.69 2515.79,-77.8452"/>
<polygon fill="midnightblue" stroke="midnightblue" points="1608.47,-112.661 1599.04,-117.489 1609.42,-119.596 1608.47,-112.661"/>
</g>
<!-- Node37&#45;&gt;Node19 -->
<g id="edge86" class="edge"><title>Node37&#45;&gt;Node19</title>
<path fill="none" stroke="midnightblue" d="M1701.17,-116.526C1702.46,-116.336 1703.74,-116.16 1705,-116 2100.37,-65.7998 2206.08,-133.652 2601,-80 2603.91,-79.6051 2606.9,-79.1126 2609.89,-78.5566"/>
<polygon fill="midnightblue" stroke="midnightblue" points="1700.48,-113.093 1691.2,-118.203 1701.64,-119.996 1700.48,-113.093"/>
</g>
</g>
</svg>
