<?xml version="1.0" encoding="UTF-8" standalone="no"?>
<!DOCTYPE svg PUBLIC "-//W3C//DTD SVG 1.1//EN"
 "http://www.w3.org/Graphics/SVG/1.1/DTD/svg11.dtd">
<!-- Generated by graphviz version 2.26.0 (20091210.2329)
 -->
<!-- Title: atomic.h Pages: 1 -->
<svg width="3631pt" height="262pt"
 viewBox="0.00 0.00 3630.71 262.00" xmlns="http://www.w3.org/2000/svg" xmlns:xlink="http://www.w3.org/1999/xlink">
<g id="graph1" class="graph" transform="scale(1 1) rotate(0) translate(4 258)">
<title>atomic.h</title>
<polygon fill="white" stroke="white" points="-4,5 -4,-258 3627.71,-258 3627.71,5 -4,5"/>
<!-- Node1 -->
<g id="node1" class="node"><title>Node1</title>
<polygon fill="#bfbfbf" stroke="black" points="2930.71,-232.5 2930.71,-253.5 2984.71,-253.5 2984.71,-232.5 2930.71,-232.5"/>
<text text-anchor="middle" x="2957.71" y="-240.5" font-family="Helvetica,sans-Serif" font-size="10.00">atomic.h</text>
</g>
<!-- Node2 -->
<g id="node3" class="node"><title>Node2</title>
<a xlink:href="refcount_8h.html" target="_top" xlink:title="refcount.h">
<polygon fill="white" stroke="black" points="1466.71,-174.5 1466.71,-195.5 1526.71,-195.5 1526.71,-174.5 1466.71,-174.5"/>
<text text-anchor="middle" x="1496.71" y="-182.5" font-family="Helvetica,sans-Serif" font-size="10.00">refcount.h</text>
</a>
</g>
<!-- Node1&#45;&gt;Node2 -->
<g id="edge2" class="edge"><title>Node1&#45;&gt;Node2</title>
<path fill="none" stroke="midnightblue" d="M2920.43,-241.52C2713.98,-233.324 1713.48,-193.606 1526.75,-186.193"/>
<polygon fill="midnightblue" stroke="midnightblue" points="2920.34,-245.019 2930.47,-241.919 2920.62,-238.025 2920.34,-245.019"/>
</g>
<!-- Node38 -->
<g id="node92" class="node"><title>Node38</title>
<a xlink:href="paralleltask_8h.html" target="_top" xlink:title="paralleltask.h">
<polygon fill="white" stroke="red" points="3064.71,-174.5 3064.71,-195.5 3138.71,-195.5 3138.71,-174.5 3064.71,-174.5"/>
<text text-anchor="middle" x="3101.71" y="-182.5" font-family="Helvetica,sans-Serif" font-size="10.00">paralleltask.h</text>
</a>
</g>
<!-- Node1&#45;&gt;Node38 -->
<g id="edge108" class="edge"><title>Node1&#45;&gt;Node38</title>
<path fill="none" stroke="midnightblue" d="M2993.09,-228.751C3018.51,-218.509 3052.25,-204.921 3075.34,-195.621"/>
<polygon fill="midnightblue" stroke="midnightblue" points="2991.75,-225.514 2983.79,-232.497 2994.37,-232.007 2991.75,-225.514"/>
</g>
<!-- Node49 -->
<g id="node116" class="node"><title>Node49</title>
<a xlink:href="ptrman_8h.html" target="_top" xlink:title="ptrman.h">
<polygon fill="white" stroke="red" points="2786.21,-174.5 2786.21,-195.5 2841.21,-195.5 2841.21,-174.5 2786.21,-174.5"/>
<text text-anchor="middle" x="2813.71" y="-182.5" font-family="Helvetica,sans-Serif" font-size="10.00">ptrman.h</text>
</a>
</g>
<!-- Node1&#45;&gt;Node49 -->
<g id="edge134" class="edge"><title>Node1&#45;&gt;Node49</title>
<path fill="none" stroke="midnightblue" d="M2922.33,-228.751C2896.9,-218.509 2863.17,-204.921 2840.08,-195.621"/>
<polygon fill="midnightblue" stroke="midnightblue" points="2921.05,-232.007 2931.63,-232.497 2923.66,-225.514 2921.05,-232.007"/>
</g>
<!-- Node50 -->
<g id="node120" class="node"><title>Node50</title>
<a xlink:href="survinfo_8h.html" target="_top" xlink:title="survinfo.h">
<polygon fill="white" stroke="red" points="3156.21,-174.5 3156.21,-195.5 3215.21,-195.5 3215.21,-174.5 3156.21,-174.5"/>
<text text-anchor="middle" x="3185.71" y="-182.5" font-family="Helvetica,sans-Serif" font-size="10.00">survinfo.h</text>
</a>
</g>
<!-- Node1&#45;&gt;Node50 -->
<g id="edge140" class="edge"><title>Node1&#45;&gt;Node50</title>
<path fill="none" stroke="midnightblue" d="M2995.04,-234.222C3033.44,-225.089 3094.91,-210.166 3147.71,-196 3150.36,-195.288 3153.11,-194.53 3155.87,-193.758"/>
<polygon fill="midnightblue" stroke="midnightblue" points="2993.78,-230.926 2984.85,-236.64 2995.39,-237.737 2993.78,-230.926"/>
</g>
<!-- Node3 -->
<g id="node5" class="node"><title>Node3</title>
<a xlink:href="callback_8h.html" target="_top" xlink:title="callback.h">
<polygon fill="white" stroke="red" points="2186.21,-116.5 2186.21,-137.5 2247.21,-137.5 2247.21,-116.5 2186.21,-116.5"/>
<text text-anchor="middle" x="2216.71" y="-124.5" font-family="Helvetica,sans-Serif" font-size="10.00">callback.h</text>
</a>
</g>
<!-- Node2&#45;&gt;Node3 -->
<g id="edge4" class="edge"><title>Node2&#45;&gt;Node3</title>
<path fill="none" stroke="midnightblue" d="M1537.02,-183.129C1663.12,-177.128 2048.95,-157.615 2172.71,-138 2177.06,-137.31 2181.62,-136.395 2186.08,-135.387"/>
<polygon fill="midnightblue" stroke="midnightblue" points="1536.84,-179.633 1527.02,-183.602 1537.17,-186.625 1536.84,-179.633"/>
</g>
<!-- Node4 -->
<g id="node7" class="node"><title>Node4</title>
<a xlink:href="coordsystem_8h.html" target="_top" xlink:title="coordsystem.h">
<polygon fill="white" stroke="red" points="1593.21,-58.5 1593.21,-79.5 1674.21,-79.5 1674.21,-58.5 1593.21,-58.5"/>
<text text-anchor="middle" x="1633.71" y="-66.5" font-family="Helvetica,sans-Serif" font-size="10.00">coordsystem.h</text>
</a>
</g>
<!-- Node2&#45;&gt;Node4 -->
<g id="edge34" class="edge"><title>Node2&#45;&gt;Node4</title>
<path fill="none" stroke="midnightblue" d="M1536.47,-172.669C1556.06,-165.074 1579,-153.732 1595.71,-138 1613.43,-121.313 1624.88,-94.4724 1630.21,-79.6658"/>
<polygon fill="midnightblue" stroke="midnightblue" points="1535.04,-169.463 1526.87,-176.201 1537.46,-176.032 1535.04,-169.463"/>
</g>
<!-- Node5 -->
<g id="node9" class="node"><title>Node5</title>
<a xlink:href="transl_8h.html" target="_top" xlink:title="transl.h">
<polygon fill="white" stroke="red" points="1711.21,-58.5 1711.21,-79.5 1760.21,-79.5 1760.21,-58.5 1711.21,-58.5"/>
<text text-anchor="middle" x="1735.71" y="-66.5" font-family="Helvetica,sans-Serif" font-size="10.00">transl.h</text>
</a>
</g>
<!-- Node2&#45;&gt;Node5 -->
<g id="edge46" class="edge"><title>Node2&#45;&gt;Node5</title>
<path fill="none" stroke="midnightblue" d="M1536.57,-171.324C1560.5,-162.673 1591.31,-150.746 1617.71,-138 1655.32,-119.84 1696.99,-94.0366 1719.36,-79.683"/>
<polygon fill="midnightblue" stroke="midnightblue" points="1535.35,-168.046 1527.11,-174.706 1537.7,-174.637 1535.35,-168.046"/>
</g>
<!-- Node6 -->
<g id="node11" class="node"><title>Node6</title>
<a xlink:href="menuhandler_8h.html" target="_top" xlink:title="menuhandler.h">
<polygon fill="white" stroke="red" points="1786.71,-58.5 1786.71,-79.5 1866.71,-79.5 1866.71,-58.5 1786.71,-58.5"/>
<text text-anchor="middle" x="1826.71" y="-66.5" font-family="Helvetica,sans-Serif" font-size="10.00">menuhandler.h</text>
</a>
</g>
<!-- Node2&#45;&gt;Node6 -->
<g id="edge48" class="edge"><title>Node2&#45;&gt;Node6</title>
<path fill="none" stroke="midnightblue" d="M1536.94,-183.363C1669.09,-177.795 2082.49,-158.774 2101.71,-138 2108.35,-130.823 2108.06,-123.438 2101.71,-116 2068.7,-77.3146 1925.65,-89.5744 1875.71,-80 1872.8,-79.4419 1869.79,-78.838 1866.78,-78.2104"/>
<polygon fill="midnightblue" stroke="midnightblue" points="1536.68,-179.871 1526.84,-183.786 1536.98,-186.865 1536.68,-179.871"/>
</g>
<!-- Node7 -->
<g id="node13" class="node"><title>Node7</title>
<a xlink:href="pickretriever_8h.html" target="_top" xlink:title="pickretriever.h">
<polygon fill="white" stroke="red" points="1963.71,-0.5 1963.71,-21.5 2041.71,-21.5 2041.71,-0.5 1963.71,-0.5"/>
<text text-anchor="middle" x="2002.71" y="-8.5" font-family="Helvetica,sans-Serif" font-size="10.00">pickretriever.h</text>
</a>
</g>
<!-- Node2&#45;&gt;Node7 -->
<g id="edge50" class="edge"><title>Node2&#45;&gt;Node7</title>
<path fill="none" stroke="midnightblue" d="M1537.25,-184.226C1698.87,-180.964 2297.48,-167.131 2484.71,-138 2583.35,-122.652 2640.91,-159.181 2701.71,-80 2707.66,-72.2446 2708.39,-65.1421 2701.71,-58 2679.02,-33.735 2185.85,-16.6521 2041.85,-12.1681"/>
<polygon fill="midnightblue" stroke="midnightblue" points="1536.74,-180.736 1526.81,-184.435 1536.88,-187.734 1536.74,-180.736"/>
</g>
<!-- Node8 -->
<g id="node15" class="node"><title>Node8</title>
<a xlink:href="indexedshape_8h.html" target="_top" xlink:title="indexedshape.h">
<polygon fill="white" stroke="red" points="2608.21,-58.5 2608.21,-79.5 2693.21,-79.5 2693.21,-58.5 2608.21,-58.5"/>
<text text-anchor="middle" x="2650.71" y="-66.5" font-family="Helvetica,sans-Serif" font-size="10.00">indexedshape.h</text>
</a>
</g>
<!-- Node2&#45;&gt;Node8 -->
<g id="edge52" class="edge"><title>Node2&#45;&gt;Node8</title>
<path fill="none" stroke="midnightblue" d="M1536.99,-184.303C1692.36,-181.407 2252.65,-168.998 2427.71,-138 2500.54,-125.104 2582.86,-95.5283 2624.13,-79.6083"/>
<polygon fill="midnightblue" stroke="midnightblue" points="1536.87,-180.804 1526.93,-184.487 1537,-187.803 1536.87,-180.804"/>
</g>
<!-- Node9 -->
<g id="node17" class="node"><title>Node9</title>
<a xlink:href="marchingcubes_8h.html" target="_top" xlink:title="marchingcubes.h">
<polygon fill="white" stroke="black" points="1884.21,-58.5 1884.21,-79.5 1975.21,-79.5 1975.21,-58.5 1884.21,-58.5"/>
<text text-anchor="middle" x="1929.71" y="-66.5" font-family="Helvetica,sans-Serif" font-size="10.00">marchingcubes.h</text>
</a>
</g>
<!-- Node2&#45;&gt;Node9 -->
<g id="edge56" class="edge"><title>Node2&#45;&gt;Node9</title>
<path fill="none" stroke="midnightblue" d="M1537.09,-183.441C1671.72,-178.048 2097.91,-159.349 2117.71,-138 2124.36,-130.83 2123.73,-123.707 2117.71,-116 2108.88,-104.697 2028.42,-87.6017 1975.66,-77.4435"/>
<polygon fill="midnightblue" stroke="midnightblue" points="1536.66,-179.955 1526.81,-183.849 1536.94,-186.949 1536.66,-179.955"/>
</g>
<!-- Node10 -->
<g id="node19" class="node"><title>Node10</title>
<a xlink:href="emobject_8h.html" target="_top" xlink:title="emobject.h">
<polygon fill="white" stroke="red" points="2030.21,-58.5 2030.21,-79.5 2095.21,-79.5 2095.21,-58.5 2030.21,-58.5"/>
<text text-anchor="middle" x="2062.71" y="-66.5" font-family="Helvetica,sans-Serif" font-size="10.00">emobject.h</text>
</a>
</g>
<!-- Node2&#45;&gt;Node10 -->
<g id="edge62" class="edge"><title>Node2&#45;&gt;Node10</title>
<path fill="none" stroke="midnightblue" d="M1537.12,-184.015C1690.72,-180.077 2230.9,-164.392 2255.71,-138 2331.09,-57.8081 2426.74,-161.568 2103.71,-80 2100.99,-79.3144 2098.18,-78.5899 2095.36,-77.8533"/>
<polygon fill="midnightblue" stroke="midnightblue" points="1536.65,-180.526 1526.74,-184.278 1536.83,-187.523 1536.65,-180.526"/>
</g>
<!-- Node11 -->
<g id="node21" class="node"><title>Node11</title>
<a xlink:href="welldata_8h.html" target="_top" xlink:title="welldata.h">
<polygon fill="white" stroke="red" points="2112.21,-58.5 2112.21,-79.5 2173.21,-79.5 2173.21,-58.5 2112.21,-58.5"/>
<text text-anchor="middle" x="2142.71" y="-66.5" font-family="Helvetica,sans-Serif" font-size="10.00">welldata.h</text>
</a>
</g>
<!-- Node2&#45;&gt;Node11 -->
<g id="edge64" class="edge"><title>Node2&#45;&gt;Node11</title>
<path fill="none" stroke="midnightblue" d="M1537.03,-184.106C1694,-180.433 2256.91,-165.388 2282.71,-138 2289.41,-130.883 2288.42,-123.938 2282.71,-116 2279.4,-111.395 2213.74,-90.6896 2173.53,-78.3493"/>
<polygon fill="midnightblue" stroke="midnightblue" points="1536.78,-180.611 1526.86,-184.341 1536.94,-187.609 1536.78,-180.611"/>
</g>
<!-- Node12 -->
<g id="node23" class="node"><title>Node12</title>
<a xlink:href="seisrandomprovider_8h.html" target="_top" xlink:title="seisrandomprovider.h">
<polygon fill="white" stroke="black" points="2190.71,-58.5 2190.71,-79.5 2300.71,-79.5 2300.71,-58.5 2190.71,-58.5"/>
<text text-anchor="middle" x="2245.71" y="-66.5" font-family="Helvetica,sans-Serif" font-size="10.00">seisrandomprovider.h</text>
</a>
</g>
<!-- Node2&#45;&gt;Node12 -->
<g id="edge66" class="edge"><title>Node2&#45;&gt;Node12</title>
<path fill="none" stroke="midnightblue" d="M1537.32,-184.15C1696.74,-180.616 2272.34,-165.959 2298.71,-138 2316.84,-118.769 2285.42,-93.5869 2263.72,-79.5763"/>
<polygon fill="midnightblue" stroke="midnightblue" points="1536.92,-180.657 1527,-184.375 1537.07,-187.656 1536.92,-180.657"/>
</g>
<!-- Node13 -->
<g id="node25" class="node"><title>Node13</title>
<a xlink:href="velocitypicks_8h.html" target="_top" xlink:title="velocitypicks.h">
<polygon fill="white" stroke="red" points="2318.71,-58.5 2318.71,-79.5 2400.71,-79.5 2400.71,-58.5 2318.71,-58.5"/>
<text text-anchor="middle" x="2359.71" y="-66.5" font-family="Helvetica,sans-Serif" font-size="10.00">velocitypicks.h</text>
</a>
</g>
<!-- Node2&#45;&gt;Node13 -->
<g id="edge78" class="edge"><title>Node2&#45;&gt;Node13</title>
<path fill="none" stroke="midnightblue" d="M1536.78,-184.799C1691.83,-183.739 2247.03,-177.213 2314.71,-138 2337.23,-124.951 2350.47,-95.5811 2356.25,-79.6921"/>
<polygon fill="midnightblue" stroke="midnightblue" points="1536.72,-181.299 1526.74,-184.864 1536.76,-188.299 1536.72,-181.299"/>
</g>
<!-- Node14 -->
<g id="node27" class="node"><title>Node14</title>
<a xlink:href="prestackevents_8h.html" target="_top" xlink:title="prestackevents.h">
<polygon fill="white" stroke="red" points="2418.71,-58.5 2418.71,-79.5 2510.71,-79.5 2510.71,-58.5 2418.71,-58.5"/>
<text text-anchor="middle" x="2464.71" y="-66.5" font-family="Helvetica,sans-Serif" font-size="10.00">prestackevents.h</text>
</a>
</g>
<!-- Node2&#45;&gt;Node14 -->
<g id="edge84" class="edge"><title>Node2&#45;&gt;Node14</title>
<path fill="none" stroke="midnightblue" d="M1537.03,-183.808C1694.36,-179.01 2262.16,-160.302 2339.71,-138 2383.3,-125.462 2428.45,-95.5905 2450.65,-79.5737"/>
<polygon fill="midnightblue" stroke="midnightblue" points="1536.73,-180.315 1526.84,-184.116 1536.94,-187.312 1536.73,-180.315"/>
</g>
<!-- Node15 -->
<g id="node29" class="node"><title>Node15</title>
<a xlink:href="emeditor_8h.html" target="_top" xlink:title="emeditor.h">
<polygon fill="white" stroke="red" points="2528.71,-58.5 2528.71,-79.5 2590.71,-79.5 2590.71,-58.5 2528.71,-58.5"/>
<text text-anchor="middle" x="2559.71" y="-66.5" font-family="Helvetica,sans-Serif" font-size="10.00">emeditor.h</text>
</a>
</g>
<!-- Node2&#45;&gt;Node15 -->
<g id="edge86" class="edge"><title>Node2&#45;&gt;Node15</title>
<path fill="none" stroke="midnightblue" d="M1536.87,-184.512C1686.96,-182.431 2214.63,-172.753 2378.71,-138 2438.91,-125.248 2505.54,-95.4682 2538.64,-79.5214"/>
<polygon fill="midnightblue" stroke="midnightblue" points="1536.68,-181.014 1526.73,-184.649 1536.78,-188.013 1536.68,-181.014"/>
</g>
<!-- Node16 -->
<g id="node31" class="node"><title>Node16</title>
<a xlink:href="view2ddata_8h.html" target="_top" xlink:title="view2ddata.h">
<polygon fill="white" stroke="red" points="536.708,-58.5 536.708,-79.5 610.708,-79.5 610.708,-58.5 536.708,-58.5"/>
<text text-anchor="middle" x="573.708" y="-66.5" font-family="Helvetica,sans-Serif" font-size="10.00">view2ddata.h</text>
</a>
</g>
<!-- Node2&#45;&gt;Node16 -->
<g id="edge92" class="edge"><title>Node2&#45;&gt;Node16</title>
<path fill="none" stroke="midnightblue" d="M1456.27,-184.219C1246.04,-180.069 286.835,-159.949 265.708,-138 258.927,-130.955 259.337,-123.417 265.708,-116 283.177,-95.6636 458.302,-78.6381 536.425,-71.9915"/>
<polygon fill="midnightblue" stroke="midnightblue" points="1456.48,-187.724 1466.54,-184.421 1456.62,-180.726 1456.48,-187.724"/>
</g>
<!-- Node17 -->
<g id="node33" class="node"><title>Node17</title>
<a xlink:href="visdata_8h.html" target="_top" xlink:title="visdata.h">
<polygon fill="white" stroke="red" points="1222.71,-58.5 1222.71,-79.5 1278.71,-79.5 1278.71,-58.5 1222.71,-58.5"/>
<text text-anchor="middle" x="1250.71" y="-66.5" font-family="Helvetica,sans-Serif" font-size="10.00">visdata.h</text>
</a>
</g>
<!-- Node2&#45;&gt;Node17 -->
<g id="edge98" class="edge"><title>Node2&#45;&gt;Node17</title>
<path fill="none" stroke="midnightblue" d="M1456.26,-184.206C1247.05,-180.009 296.649,-159.763 275.708,-138 268.929,-130.954 268.963,-123.078 275.708,-116 309.247,-80.8055 1066.24,-70.9405 1222.61,-69.2752"/>
<polygon fill="midnightblue" stroke="midnightblue" points="1456.42,-187.71 1466.49,-184.411 1456.56,-180.712 1456.42,-187.71"/>
</g>
<!-- Node18 -->
<g id="node36" class="node"><title>Node18</title>
<a xlink:href="survgeom_8h.html" target="_top" xlink:title="survgeom.h">
<polygon fill="white" stroke="red" points="14.7082,-116.5 14.7082,-137.5 82.7082,-137.5 82.7082,-116.5 14.7082,-116.5"/>
<text text-anchor="middle" x="48.7082" y="-124.5" font-family="Helvetica,sans-Serif" font-size="10.00">survgeom.h</text>
</a>
</g>
<!-- Node2&#45;&gt;Node18 -->
<g id="edge36" class="edge"><title>Node2&#45;&gt;Node18</title>
<path fill="none" stroke="midnightblue" d="M1456.45,-184.832C1256.14,-183.815 365.561,-177.134 91.7082,-138 88.8095,-137.586 85.8239,-137.052 82.841,-136.444"/>
<polygon fill="midnightblue" stroke="midnightblue" points="1456.52,-188.332 1466.53,-184.881 1456.55,-181.332 1456.52,-188.332"/>
</g>
<!-- Node19 -->
<g id="node38" class="node"><title>Node19</title>
<a xlink:href="zaxistransform_8h.html" target="_top" xlink:title="zaxistransform.h">
<polygon fill="white" stroke="red" points="4.20816,-58.5 4.20816,-79.5 93.2082,-79.5 93.2082,-58.5 4.20816,-58.5"/>
<text text-anchor="middle" x="48.7082" y="-66.5" font-family="Helvetica,sans-Serif" font-size="10.00">zaxistransform.h</text>
</a>
</g>
<!-- Node2&#45;&gt;Node19 -->
<g id="edge44" class="edge"><title>Node2&#45;&gt;Node19</title>
<path fill="none" stroke="midnightblue" d="M1456.3,-184.495C1220.48,-181.453 31.6803,-164.804 5.70816,-138 -11.6772,-120.058 15.5339,-93.9414 33.984,-79.5313"/>
<polygon fill="midnightblue" stroke="midnightblue" points="1456.44,-187.997 1466.49,-184.625 1456.53,-180.997 1456.44,-187.997"/>
</g>
<!-- Node20 -->
<g id="node41" class="node"><title>Node20</title>
<a xlink:href="positionlist_8h.html" target="_top" xlink:title="positionlist.h">
<polygon fill="white" stroke="red" points="284.208,-116.5 284.208,-137.5 355.208,-137.5 355.208,-116.5 284.208,-116.5"/>
<text text-anchor="middle" x="319.708" y="-124.5" font-family="Helvetica,sans-Serif" font-size="10.00">positionlist.h</text>
</a>
</g>
<!-- Node2&#45;&gt;Node20 -->
<g id="edge42" class="edge"><title>Node2&#45;&gt;Node20</title>
<path fill="none" stroke="midnightblue" d="M1456.36,-184.427C1280.64,-181.762 581.157,-169.357 363.708,-138 361.058,-137.618 358.336,-137.143 355.608,-136.607"/>
<polygon fill="midnightblue" stroke="midnightblue" points="1456.42,-187.928 1466.47,-184.578 1456.52,-180.929 1456.42,-187.928"/>
</g>
<!-- Node21 -->
<g id="node48" class="node"><title>Node21</title>
<a xlink:href="faultstickset_8h.html" target="_top" xlink:title="faultstickset.h">
<polygon fill="white" stroke="red" points="372.708,-116.5 372.708,-137.5 450.708,-137.5 450.708,-116.5 372.708,-116.5"/>
<text text-anchor="middle" x="411.708" y="-124.5" font-family="Helvetica,sans-Serif" font-size="10.00">faultstickset.h</text>
</a>
</g>
<!-- Node2&#45;&gt;Node21 -->
<g id="edge54" class="edge"><title>Node2&#45;&gt;Node21</title>
<path fill="none" stroke="midnightblue" d="M1456.36,-184.143C1290.11,-180.46 657.597,-164.936 459.708,-138 456.828,-137.608 453.866,-137.126 450.895,-136.585"/>
<polygon fill="midnightblue" stroke="midnightblue" points="1456.55,-187.648 1466.63,-184.368 1456.71,-180.649 1456.55,-187.648"/>
</g>
<!-- Node22 -->
<g id="node51" class="node"><title>Node22</title>
<a xlink:href="polygonsurface_8h.html" target="_top" xlink:title="polygonsurface.h">
<polygon fill="white" stroke="red" points="468.208,-116.5 468.208,-137.5 559.208,-137.5 559.208,-116.5 468.208,-116.5"/>
<text text-anchor="middle" x="513.708" y="-124.5" font-family="Helvetica,sans-Serif" font-size="10.00">polygonsurface.h</text>
</a>
</g>
<!-- Node2&#45;&gt;Node22 -->
<g id="edge58" class="edge"><title>Node2&#45;&gt;Node22</title>
<path fill="none" stroke="midnightblue" d="M1456.59,-183.775C1301.85,-178.926 743.707,-160.25 567.708,-138 564.955,-137.652 562.134,-137.242 559.293,-136.788"/>
<polygon fill="midnightblue" stroke="midnightblue" points="1456.5,-187.274 1466.61,-184.087 1456.72,-180.277 1456.5,-187.274"/>
</g>
<!-- Node23 -->
<g id="node53" class="node"><title>Node23</title>
<a xlink:href="randomlinegeom_8h.html" target="_top" xlink:title="randomlinegeom.h">
<polygon fill="white" stroke="red" points="576.708,-116.5 576.708,-137.5 672.708,-137.5 672.708,-116.5 576.708,-116.5"/>
<text text-anchor="middle" x="624.708" y="-124.5" font-family="Helvetica,sans-Serif" font-size="10.00">randomlinegeom.h</text>
</a>
</g>
<!-- Node2&#45;&gt;Node23 -->
<g id="edge60" class="edge"><title>Node2&#45;&gt;Node23</title>
<path fill="none" stroke="midnightblue" d="M1456.51,-184.572C1337.64,-182.899 977.61,-174.918 681.708,-138 678.808,-137.638 675.833,-137.217 672.838,-136.755"/>
<polygon fill="midnightblue" stroke="midnightblue" points="1456.56,-188.072 1466.61,-184.706 1456.65,-181.073 1456.56,-188.072"/>
</g>
<!-- Node24 -->
<g id="node58" class="node"><title>Node24</title>
<a xlink:href="attribdataholder_8h.html" target="_top" xlink:title="attribdataholder.h">
<polygon fill="white" stroke="red" points="690.708,-116.5 690.708,-137.5 782.708,-137.5 782.708,-116.5 690.708,-116.5"/>
<text text-anchor="middle" x="736.708" y="-124.5" font-family="Helvetica,sans-Serif" font-size="10.00">attribdataholder.h</text>
</a>
</g>
<!-- Node2&#45;&gt;Node24 -->
<g id="edge68" class="edge"><title>Node2&#45;&gt;Node24</title>
<path fill="none" stroke="midnightblue" d="M1456.56,-184.161C1348.6,-181.508 1043.25,-171.394 791.708,-138 788.812,-137.616 785.84,-137.17 782.848,-136.683"/>
<polygon fill="midnightblue" stroke="midnightblue" points="1456.6,-187.663 1466.68,-184.402 1456.76,-180.665 1456.6,-187.663"/>
</g>
<!-- Node25 -->
<g id="node60" class="node"><title>Node25</title>
<a xlink:href="attribdesc_8h.html" target="_top" xlink:title="attribdesc.h">
<polygon fill="white" stroke="black" points="800.708,-116.5 800.708,-137.5 868.708,-137.5 868.708,-116.5 800.708,-116.5"/>
<text text-anchor="middle" x="834.708" y="-124.5" font-family="Helvetica,sans-Serif" font-size="10.00">attribdesc.h</text>
</a>
</g>
<!-- Node2&#45;&gt;Node25 -->
<g id="edge70" class="edge"><title>Node2&#45;&gt;Node25</title>
<path fill="none" stroke="midnightblue" d="M1456.36,-184.37C1357.2,-182.294 1093.95,-173.588 877.708,-138 874.819,-137.524 871.84,-136.948 868.862,-136.31"/>
<polygon fill="midnightblue" stroke="midnightblue" points="1456.47,-187.872 1466.53,-184.571 1456.6,-180.874 1456.47,-187.872"/>
</g>
<!-- Node26 -->
<g id="node62" class="node"><title>Node26</title>
<a xlink:href="attriboutput_8h.html" target="_top" xlink:title="attriboutput.h">
<polygon fill="white" stroke="black" points="886.708,-116.5 886.708,-137.5 960.708,-137.5 960.708,-116.5 886.708,-116.5"/>
<text text-anchor="middle" x="923.708" y="-124.5" font-family="Helvetica,sans-Serif" font-size="10.00">attriboutput.h</text>
</a>
</g>
<!-- Node2&#45;&gt;Node26 -->
<g id="edge72" class="edge"><title>Node2&#45;&gt;Node26</title>
<path fill="none" stroke="midnightblue" d="M1456.36,-183.409C1367.78,-179.477 1149.82,-167.405 969.708,-138 966.791,-137.524 963.784,-136.964 960.771,-136.353"/>
<polygon fill="midnightblue" stroke="midnightblue" points="1456.37,-186.912 1466.51,-183.848 1456.67,-179.919 1456.37,-186.912"/>
</g>
<!-- Node27 -->
<g id="node64" class="node"><title>Node27</title>
<a xlink:href="attribslice_8h.html" target="_top" xlink:title="attribslice.h">
<polygon fill="white" stroke="black" points="978.208,-116.5 978.208,-137.5 1045.21,-137.5 1045.21,-116.5 978.208,-116.5"/>
<text text-anchor="middle" x="1011.71" y="-124.5" font-family="Helvetica,sans-Serif" font-size="10.00">attribslice.h</text>
</a>
</g>
<!-- Node2&#45;&gt;Node27 -->
<g id="edge74" class="edge"><title>Node2&#45;&gt;Node27</title>
<path fill="none" stroke="midnightblue" d="M1456.3,-182.754C1378.07,-177.956 1200.67,-164.882 1053.71,-138 1051.04,-137.512 1048.29,-136.943 1045.54,-136.327"/>
<polygon fill="midnightblue" stroke="midnightblue" points="1456.48,-186.271 1466.67,-183.377 1456.9,-179.283 1456.48,-186.271"/>
</g>
<!-- Node28 -->
<g id="node66" class="node"><title>Node28</title>
<a xlink:href="velocityfunction_8h.html" target="_top" xlink:title="velocityfunction.h">
<polygon fill="white" stroke="red" points="1062.21,-116.5 1062.21,-137.5 1155.21,-137.5 1155.21,-116.5 1062.21,-116.5"/>
<text text-anchor="middle" x="1108.71" y="-124.5" font-family="Helvetica,sans-Serif" font-size="10.00">velocityfunction.h</text>
</a>
</g>
<!-- Node2&#45;&gt;Node28 -->
<g id="edge76" class="edge"><title>Node2&#45;&gt;Node28</title>
<path fill="none" stroke="midnightblue" d="M1456.04,-180.022C1393.18,-172.156 1268.72,-155.896 1163.71,-138 1161.02,-137.542 1158.26,-137.052 1155.48,-136.544"/>
<polygon fill="midnightblue" stroke="midnightblue" points="1455.96,-183.539 1466.31,-181.301 1456.82,-176.592 1455.96,-183.539"/>
</g>
<!-- Node29 -->
<g id="node69" class="node"><title>Node29</title>
<a xlink:href="volprocchain_8h.html" target="_top" xlink:title="volprocchain.h">
<polygon fill="white" stroke="red" points="1172.71,-116.5 1172.71,-137.5 1252.71,-137.5 1252.71,-116.5 1172.71,-116.5"/>
<text text-anchor="middle" x="1212.71" y="-124.5" font-family="Helvetica,sans-Serif" font-size="10.00">volprocchain.h</text>
</a>
</g>
<!-- Node2&#45;&gt;Node29 -->
<g id="edge80" class="edge"><title>Node2&#45;&gt;Node29</title>
<path fill="none" stroke="midnightblue" d="M1456.57,-177.27C1409.74,-168.181 1330.01,-152.494 1261.71,-138 1258.81,-137.385 1255.81,-136.739 1252.8,-136.081"/>
<polygon fill="midnightblue" stroke="midnightblue" points="1456.13,-180.749 1466.61,-179.215 1457.46,-173.877 1456.13,-180.749"/>
</g>
<!-- Node30 -->
<g id="node71" class="node"><title>Node30</title>
<a xlink:href="prestackanglecomputer_8h.html" target="_top" xlink:title="prestackanglecomputer.h">
<polygon fill="white" stroke="black" points="1270.71,-116.5 1270.71,-137.5 1396.71,-137.5 1396.71,-116.5 1270.71,-116.5"/>
<text text-anchor="middle" x="1333.71" y="-124.5" font-family="Helvetica,sans-Serif" font-size="10.00">prestackanglecomputer.h</text>
</a>
</g>
<!-- Node2&#45;&gt;Node30 -->
<g id="edge82" class="edge"><title>Node2&#45;&gt;Node30</title>
<path fill="none" stroke="midnightblue" d="M1457.39,-171.009C1428.42,-160.702 1389.64,-146.903 1363.28,-137.523"/>
<polygon fill="midnightblue" stroke="midnightblue" points="1456.6,-174.442 1467.19,-174.497 1458.94,-167.847 1456.6,-174.442"/>
</g>
<!-- Node31 -->
<g id="node75" class="node"><title>Node31</title>
<a xlink:href="emtracker_8h.html" target="_top" xlink:title="emtracker.h">
<polygon fill="white" stroke="red" points="1414.71,-116.5 1414.71,-137.5 1482.71,-137.5 1482.71,-116.5 1414.71,-116.5"/>
<text text-anchor="middle" x="1448.71" y="-124.5" font-family="Helvetica,sans-Serif" font-size="10.00">emtracker.h</text>
</a>
</g>
<!-- Node2&#45;&gt;Node31 -->
<g id="edge88" class="edge"><title>Node2&#45;&gt;Node31</title>
<path fill="none" stroke="midnightblue" d="M1481.43,-166.541C1473.52,-156.979 1464.14,-145.647 1457.46,-137.571"/>
<polygon fill="midnightblue" stroke="midnightblue" points="1478.83,-168.889 1487.9,-174.362 1484.22,-164.426 1478.83,-168.889"/>
</g>
<!-- Node32 -->
<g id="node77" class="node"><title>Node32</title>
<a xlink:href="horizontracker_8h.html" target="_top" xlink:title="horizontracker.h">
<polygon fill="white" stroke="black" points="1500.71,-116.5 1500.71,-137.5 1586.71,-137.5 1586.71,-116.5 1500.71,-116.5"/>
<text text-anchor="middle" x="1543.71" y="-124.5" font-family="Helvetica,sans-Serif" font-size="10.00">horizontracker.h</text>
</a>
</g>
<!-- Node2&#45;&gt;Node32 -->
<g id="edge90" class="edge"><title>Node2&#45;&gt;Node32</title>
<path fill="none" stroke="midnightblue" d="M1511.67,-166.541C1519.42,-156.979 1528.6,-145.647 1535.14,-137.571"/>
<polygon fill="midnightblue" stroke="midnightblue" points="1508.91,-164.389 1505.33,-174.362 1514.34,-168.796 1508.91,-164.389"/>
</g>
<!-- Node33 -->
<g id="node80" class="node"><title>Node33</title>
<a xlink:href="visosg_8h.html" target="_top" xlink:title="visosg.h">
<polygon fill="white" stroke="red" points="100.208,-116.5 100.208,-137.5 153.208,-137.5 153.208,-116.5 100.208,-116.5"/>
<text text-anchor="middle" x="126.708" y="-124.5" font-family="Helvetica,sans-Serif" font-size="10.00">visosg.h</text>
</a>
</g>
<!-- Node2&#45;&gt;Node33 -->
<g id="edge94" class="edge"><title>Node2&#45;&gt;Node33</title>
<path fill="none" stroke="midnightblue" d="M1456.43,-184.84C1262.59,-183.877 424.61,-177.465 166.708,-138 162.437,-137.346 157.97,-136.395 153.634,-135.321"/>
<polygon fill="midnightblue" stroke="midnightblue" points="1456.45,-188.34 1466.47,-184.888 1456.48,-181.34 1456.45,-188.34"/>
</g>
<!-- Node34 -->
<g id="node82" class="node"><title>Node34</title>
<a xlink:href="ui3dviewerbody_8h.html" target="_top" xlink:title="ui3dviewerbody.h">
<polygon fill="white" stroke="red" points="122.708,-58.5 122.708,-79.5 214.708,-79.5 214.708,-58.5 122.708,-58.5"/>
<text text-anchor="middle" x="168.708" y="-66.5" font-family="Helvetica,sans-Serif" font-size="10.00">ui3dviewerbody.h</text>
</a>
</g>
<!-- Node2&#45;&gt;Node34 -->
<g id="edge106" class="edge"><title>Node2&#45;&gt;Node34</title>
<path fill="none" stroke="midnightblue" d="M1456.28,-184.169C1249.15,-179.821 314.239,-159.093 256.708,-138 223.352,-125.77 192.716,-95.766 177.957,-79.6488"/>
<polygon fill="midnightblue" stroke="midnightblue" points="1456.35,-187.671 1466.42,-184.381 1456.49,-180.672 1456.35,-187.671"/>
</g>
<!-- Node35 -->
<g id="node85" class="node"><title>Node35</title>
<a xlink:href="vishordatahandler_8h.html" target="_top" xlink:title="vishordatahandler.h">
<polygon fill="white" stroke="black" points="1680.21,-116.5 1680.21,-137.5 1781.21,-137.5 1781.21,-116.5 1680.21,-116.5"/>
<text text-anchor="middle" x="1730.71" y="-124.5" font-family="Helvetica,sans-Serif" font-size="10.00">vishordatahandler.h</text>
</a>
</g>
<!-- Node2&#45;&gt;Node35 -->
<g id="edge100" class="edge"><title>Node2&#45;&gt;Node35</title>
<path fill="none" stroke="midnightblue" d="M1536.73,-175.081C1578.85,-164.639 1644.92,-148.264 1688.02,-137.58"/>
<polygon fill="midnightblue" stroke="midnightblue" points="1535.68,-171.733 1526.82,-177.536 1537.37,-178.528 1535.68,-171.733"/>
</g>
<!-- Node36 -->
<g id="node87" class="node"><title>Node36</title>
<a xlink:href="vishorizontexturehandler_8h.html" target="_top" xlink:title="vishorizontexturehandler.h">
<polygon fill="white" stroke="black" points="1798.21,-116.5 1798.21,-137.5 1929.21,-137.5 1929.21,-116.5 1798.21,-116.5"/>
<text text-anchor="middle" x="1863.71" y="-124.5" font-family="Helvetica,sans-Serif" font-size="10.00">vishorizontexturehandler.h</text>
</a>
</g>
<!-- Node2&#45;&gt;Node36 -->
<g id="edge102" class="edge"><title>Node2&#45;&gt;Node36</title>
<path fill="none" stroke="midnightblue" d="M1536.66,-178.686C1599.51,-168.753 1722.11,-149.378 1798.05,-137.377"/>
<polygon fill="midnightblue" stroke="midnightblue" points="1536.07,-175.235 1526.74,-180.254 1537.17,-182.15 1536.07,-175.235"/>
</g>
<!-- Node37 -->
<g id="node89" class="node"><title>Node37</title>
<a xlink:href="vishortilescreatorandupdator_8h.html" target="_top" xlink:title="vishortilescreatorandupdator.h">
<polygon fill="white" stroke="black" points="1946.21,-116.5 1946.21,-137.5 2093.21,-137.5 2093.21,-116.5 1946.21,-116.5"/>
<text text-anchor="middle" x="2019.71" y="-124.5" font-family="Helvetica,sans-Serif" font-size="10.00">vishortilescreatorandupdator.h</text>
</a>
</g>
<!-- Node2&#45;&gt;Node37 -->
<g id="edge104" class="edge"><title>Node2&#45;&gt;Node37</title>
<path fill="none" stroke="midnightblue" d="M1537.26,-181.05C1615.01,-173.395 1790.41,-155.726 1937.71,-138 1940.42,-137.674 1943.18,-137.336 1945.96,-136.989"/>
<polygon fill="midnightblue" stroke="midnightblue" points="1536.56,-177.602 1526.95,-182.063 1537.24,-184.569 1536.56,-177.602"/>
</g>
<!-- Node3&#45;&gt;Node4 -->
<g id="edge6" class="edge"><title>Node3&#45;&gt;Node4</title>
<path fill="none" stroke="midnightblue" d="M2175.97,-123.05C2153.98,-120.931 2126.36,-118.291 2101.71,-116 1924.42,-99.523 1879.39,-102.028 1702.71,-80 1693.56,-78.8594 1683.76,-77.4266 1674.51,-75.9755"/>
<polygon fill="midnightblue" stroke="midnightblue" points="2175.67,-126.537 2185.96,-124.014 2176.34,-119.569 2175.67,-126.537"/>
</g>
<!-- Node3&#45;&gt;Node5 -->
<g id="edge8" class="edge"><title>Node3&#45;&gt;Node5</title>
<path fill="none" stroke="midnightblue" d="M2175.97,-122.99C2074.6,-112.961 1816.35,-87.087 1777.71,-80 1772.07,-78.9665 1766.08,-77.5772 1760.44,-76.1344"/>
<polygon fill="midnightblue" stroke="midnightblue" points="2175.84,-126.494 2186.13,-123.994 2176.52,-119.527 2175.84,-126.494"/>
</g>
<!-- Node3&#45;&gt;Node6 -->
<g id="edge10" class="edge"><title>Node3&#45;&gt;Node6</title>
<path fill="none" stroke="midnightblue" d="M2175.9,-121.468C2088.58,-109.62 1890.35,-82.6473 1875.71,-80 1872.79,-79.4725 1869.78,-78.8911 1866.76,-78.2794"/>
<polygon fill="midnightblue" stroke="midnightblue" points="2175.6,-124.96 2185.98,-122.836 2176.54,-118.023 2175.6,-124.96"/>
</g>
<!-- Node3&#45;&gt;Node7 -->
<g id="edge12" class="edge"><title>Node3&#45;&gt;Node7</title>
<path fill="none" stroke="midnightblue" d="M2175.96,-116.796C2174.86,-116.527 2173.78,-116.262 2172.71,-116 2105.69,-99.6332 2071.33,-127.932 2021.71,-80 2005.62,-64.462 2002.76,-36.6617 2002.48,-21.5248"/>
<polygon fill="midnightblue" stroke="midnightblue" points="2175.4,-120.263 2185.95,-119.264 2177.08,-113.467 2175.4,-120.263"/>
</g>
<!-- Node3&#45;&gt;Node8 -->
<g id="edge14" class="edge"><title>Node3&#45;&gt;Node8</title>
<path fill="none" stroke="midnightblue" d="M2257.83,-123.185C2328.16,-116.385 2475.93,-100.899 2599.71,-80 2602.48,-79.5325 2605.32,-79.0169 2608.19,-78.4718"/>
<polygon fill="midnightblue" stroke="midnightblue" points="2257.25,-119.724 2247.63,-124.163 2257.91,-126.692 2257.25,-119.724"/>
</g>
<!-- Node3&#45;&gt;Node9 -->
<g id="edge16" class="edge"><title>Node3&#45;&gt;Node9</title>
<path fill="none" stroke="midnightblue" d="M2175.97,-116.734C2174.87,-116.484 2173.78,-116.238 2172.71,-116 2135.79,-107.821 2034.78,-88.6734 1975.25,-77.5048"/>
<polygon fill="midnightblue" stroke="midnightblue" points="2175.45,-120.207 2185.99,-119.095 2177.06,-113.393 2175.45,-120.207"/>
</g>
<!-- Node3&#45;&gt;Node10 -->
<g id="edge18" class="edge"><title>Node3&#45;&gt;Node10</title>
<path fill="none" stroke="midnightblue" d="M2179.2,-112.874C2151.87,-102.582 2115.45,-88.862 2090.65,-79.5231"/>
<polygon fill="midnightblue" stroke="midnightblue" points="2178.23,-116.247 2188.82,-116.497 2180.7,-109.697 2178.23,-116.247"/>
</g>
<!-- Node3&#45;&gt;Node11 -->
<g id="edge20" class="edge"><title>Node3&#45;&gt;Node11</title>
<path fill="none" stroke="midnightblue" d="M2194.99,-109.975C2182.43,-100.132 2167.02,-88.0545 2156.19,-79.5707"/>
<polygon fill="midnightblue" stroke="midnightblue" points="2193.11,-112.948 2203.14,-116.362 2197.42,-107.438 2193.11,-112.948"/>
</g>
<!-- Node3&#45;&gt;Node12 -->
<g id="edge22" class="edge"><title>Node3&#45;&gt;Node12</title>
<path fill="none" stroke="midnightblue" d="M2226.52,-107.373C2231.17,-98.0682 2236.55,-87.3204 2240.42,-79.5707"/>
<polygon fill="midnightblue" stroke="midnightblue" points="2223.37,-105.852 2222.03,-116.362 2229.63,-108.983 2223.37,-105.852"/>
</g>
<!-- Node3&#45;&gt;Node13 -->
<g id="edge24" class="edge"><title>Node3&#45;&gt;Node13</title>
<path fill="none" stroke="midnightblue" d="M2252.17,-112.615C2277.39,-102.389 2310.69,-88.8796 2333.52,-79.6212"/>
<polygon fill="midnightblue" stroke="midnightblue" points="2250.56,-109.495 2242.6,-116.497 2253.19,-115.981 2250.56,-109.495"/>
</g>
<!-- Node3&#45;&gt;Node14 -->
<g id="edge26" class="edge"><title>Node3&#45;&gt;Node14</title>
<path fill="none" stroke="midnightblue" d="M2257.26,-117.516C2301.78,-107.104 2373.09,-90.4275 2419.41,-79.5934"/>
<polygon fill="midnightblue" stroke="midnightblue" points="2256.31,-114.145 2247.37,-119.83 2257.9,-120.961 2256.31,-114.145"/>
</g>
<!-- Node3&#45;&gt;Node15 -->
<g id="edge28" class="edge"><title>Node3&#45;&gt;Node15</title>
<path fill="none" stroke="midnightblue" d="M2257.4,-122.193C2315.81,-114.952 2426.66,-99.9427 2519.71,-80 2522.53,-79.3963 2525.44,-78.7127 2528.35,-77.9889"/>
<polygon fill="midnightblue" stroke="midnightblue" points="2256.96,-118.721 2247.46,-123.413 2257.81,-125.669 2256.96,-118.721"/>
</g>
<!-- Node3&#45;&gt;Node16 -->
<g id="edge30" class="edge"><title>Node3&#45;&gt;Node16</title>
<path fill="none" stroke="midnightblue" d="M2176.02,-122.462C2154.04,-120.174 2126.42,-117.56 2101.71,-116 1798.43,-96.8509 815.05,-74.352 610.993,-69.8191"/>
<polygon fill="midnightblue" stroke="midnightblue" points="2175.69,-125.946 2186,-123.519 2176.42,-118.985 2175.69,-125.946"/>
</g>
<!-- Node3&#45;&gt;Node17 -->
<g id="edge32" class="edge"><title>Node3&#45;&gt;Node17</title>
<path fill="none" stroke="midnightblue" d="M2176,-122.704C2154.02,-120.486 2126.4,-117.862 2101.71,-116 1778.94,-91.6604 1386.42,-74.5994 1279.02,-70.1497"/>
<polygon fill="midnightblue" stroke="midnightblue" points="2175.68,-126.19 2185.99,-123.723 2176.39,-119.226 2175.68,-126.19"/>
</g>
<!-- Node18&#45;&gt;Node19 -->
<g id="edge38" class="edge"><title>Node18&#45;&gt;Node19</title>
<path fill="none" stroke="midnightblue" d="M48.7082,-106.191C48.7082,-97.1684 48.7082,-86.9941 48.7082,-79.5707"/>
<polygon fill="midnightblue" stroke="midnightblue" points="45.2083,-106.362 48.7082,-116.362 52.2083,-106.362 45.2083,-106.362"/>
</g>
<!-- Node19&#45;&gt;Node7 -->
<g id="edge40" class="edge"><title>Node19&#45;&gt;Node7</title>
<path fill="none" stroke="midnightblue" d="M103.282,-59.1851C106.803,-58.7312 110.301,-58.329 113.708,-58 491.059,-21.5639 1726.78,-12.6092 1963.36,-11.213"/>
<polygon fill="midnightblue" stroke="midnightblue" points="102.767,-55.7229 93.3527,-60.583 103.743,-62.6546 102.767,-55.7229"/>
</g>
<!-- Node33&#45;&gt;Node34 -->
<g id="edge96" class="edge"><title>Node33&#45;&gt;Node34</title>
<path fill="none" stroke="midnightblue" d="M140.285,-108.25C147.165,-98.75 155.264,-87.5651 161.054,-79.5707"/>
<polygon fill="midnightblue" stroke="midnightblue" points="137.442,-106.21 134.412,-116.362 143.112,-110.315 137.442,-106.21"/>
</g>
<!-- Node39 -->
<g id="node94" class="node"><title>Node39</title>
<a xlink:href="odmemory_8h.html" target="_top" xlink:title="odmemory.h">
<polygon fill="white" stroke="red" points="3512.21,-116.5 3512.21,-137.5 3583.21,-137.5 3583.21,-116.5 3512.21,-116.5"/>
<text text-anchor="middle" x="3547.71" y="-124.5" font-family="Helvetica,sans-Serif" font-size="10.00">odmemory.h</text>
</a>
</g>
<!-- Node38&#45;&gt;Node39 -->
<g id="edge110" class="edge"><title>Node38&#45;&gt;Node39</title>
<path fill="none" stroke="midnightblue" d="M3148.82,-174.005C3306.3,-148.163 3350.26,-164.795 3503.71,-138 3506.35,-137.539 3509.06,-137.007 3511.78,-136.43"/>
<polygon fill="midnightblue" stroke="midnightblue" points="3148.06,-170.583 3138.78,-175.685 3149.22,-177.487 3148.06,-170.583"/>
</g>
<!-- Node40 -->
<g id="node96" class="node"><title>Node40</title>
<a xlink:href="array2dinterpol_8h.html" target="_top" xlink:title="array2dinterpol.h">
<polygon fill="white" stroke="red" points="3534.21,-58.5 3534.21,-79.5 3623.21,-79.5 3623.21,-58.5 3534.21,-58.5"/>
<text text-anchor="middle" x="3578.71" y="-66.5" font-family="Helvetica,sans-Serif" font-size="10.00">array2dinterpol.h</text>
</a>
</g>
<!-- Node38&#45;&gt;Node40 -->
<g id="edge120" class="edge"><title>Node38&#45;&gt;Node40</title>
<path fill="none" stroke="midnightblue" d="M3148.84,-174.408C3229.76,-166.889 3559.73,-172.68 3591.71,-138 3606.5,-121.96 3594.25,-94.6161 3585.54,-79.6185"/>
<polygon fill="midnightblue" stroke="midnightblue" points="3148.28,-170.95 3138.77,-175.621 3149.11,-177.9 3148.28,-170.95"/>
</g>
<!-- Node41 -->
<g id="node98" class="node"><title>Node41</title>
<a xlink:href="sorting_8h.html" target="_top" xlink:title="sorting.h">
<polygon fill="white" stroke="red" points="2786.71,-116.5 2786.71,-137.5 2840.71,-137.5 2840.71,-116.5 2786.71,-116.5"/>
<text text-anchor="middle" x="2813.71" y="-124.5" font-family="Helvetica,sans-Serif" font-size="10.00">sorting.h</text>
</a>
</g>
<!-- Node38&#45;&gt;Node41 -->
<g id="edge114" class="edge"><title>Node38&#45;&gt;Node41</title>
<path fill="none" stroke="midnightblue" d="M3054.55,-177.098C3004.68,-168.492 2923.83,-153.826 2854.71,-138 2850.25,-136.98 2845.55,-135.809 2840.98,-134.62"/>
<polygon fill="midnightblue" stroke="midnightblue" points="3054.26,-180.598 3064.71,-178.84 3055.44,-173.699 3054.26,-180.598"/>
</g>
<!-- Node42 -->
<g id="node100" class="node"><title>Node42</title>
<a xlink:href="agc_8h.html" target="_top" xlink:title="agc.h">
<polygon fill="white" stroke="black" points="2821.21,-58.5 2821.21,-79.5 2862.21,-79.5 2862.21,-58.5 2821.21,-58.5"/>
<text text-anchor="middle" x="2841.71" y="-66.5" font-family="Helvetica,sans-Serif" font-size="10.00">agc.h</text>
</a>
</g>
<!-- Node38&#45;&gt;Node42 -->
<g id="edge118" class="edge"><title>Node38&#45;&gt;Node42</title>
<path fill="none" stroke="midnightblue" d="M3054.56,-178.833C3000.05,-170.99 2914.41,-156.247 2887.71,-138 2866.19,-123.297 2852.11,-94.8923 2845.7,-79.5109"/>
<polygon fill="midnightblue" stroke="midnightblue" points="3054.29,-182.331 3064.69,-180.263 3055.27,-175.399 3054.29,-182.331"/>
</g>
<!-- Node43 -->
<g id="node104" class="node"><title>Node43</title>
<a xlink:href="bendpointfinder_8h.html" target="_top" xlink:title="bendpointfinder.h">
<polygon fill="white" stroke="red" points="2896.21,-116.5 2896.21,-137.5 2987.21,-137.5 2987.21,-116.5 2896.21,-116.5"/>
<text text-anchor="middle" x="2941.71" y="-124.5" font-family="Helvetica,sans-Serif" font-size="10.00">bendpointfinder.h</text>
</a>
</g>
<!-- Node38&#45;&gt;Node43 -->
<g id="edge122" class="edge"><title>Node38&#45;&gt;Node43</title>
<path fill="none" stroke="midnightblue" d="M3063.11,-171.009C3034.68,-160.702 2996.61,-146.903 2970.74,-137.523"/>
<polygon fill="midnightblue" stroke="midnightblue" points="3062.14,-174.379 3072.73,-174.497 3064.52,-167.798 3062.14,-174.379"/>
</g>
<!-- Node44 -->
<g id="node106" class="node"><title>Node44</title>
<a xlink:href="array3dfloodfill_8h.html" target="_top" xlink:title="array3dfloodfill.h">
<polygon fill="white" stroke="black" points="3004.71,-116.5 3004.71,-137.5 3092.71,-137.5 3092.71,-116.5 3004.71,-116.5"/>
<text text-anchor="middle" x="3048.71" y="-124.5" font-family="Helvetica,sans-Serif" font-size="10.00">array3dfloodfill.h</text>
</a>
</g>
<!-- Node38&#45;&gt;Node44 -->
<g id="edge124" class="edge"><title>Node38&#45;&gt;Node44</title>
<path fill="none" stroke="midnightblue" d="M3085.1,-166.83C3076.31,-157.208 3065.82,-145.728 3058.37,-137.571"/>
<polygon fill="midnightblue" stroke="midnightblue" points="3082.66,-169.341 3091.99,-174.362 3087.83,-164.619 3082.66,-169.341"/>
</g>
<!-- Node45 -->
<g id="node108" class="node"><title>Node45</title>
<a xlink:href="arrayndstacker_8h.html" target="_top" xlink:title="arrayndstacker.h">
<polygon fill="white" stroke="black" points="3110.21,-116.5 3110.21,-137.5 3199.21,-137.5 3199.21,-116.5 3110.21,-116.5"/>
<text text-anchor="middle" x="3154.71" y="-124.5" font-family="Helvetica,sans-Serif" font-size="10.00">arrayndstacker.h</text>
</a>
</g>
<!-- Node38&#45;&gt;Node45 -->
<g id="edge126" class="edge"><title>Node38&#45;&gt;Node45</title>
<path fill="none" stroke="midnightblue" d="M3118.31,-166.83C3127.1,-157.208 3137.59,-145.728 3145.05,-137.571"/>
<polygon fill="midnightblue" stroke="midnightblue" points="3115.59,-164.619 3111.43,-174.362 3120.76,-169.341 3115.59,-164.619"/>
</g>
<!-- Node46 -->
<g id="node110" class="node"><title>Node46</title>
<a xlink:href="bodyvolumecalc_8h.html" target="_top" xlink:title="bodyvolumecalc.h">
<polygon fill="white" stroke="black" points="3216.21,-116.5 3216.21,-137.5 3311.21,-137.5 3311.21,-116.5 3216.21,-116.5"/>
<text text-anchor="middle" x="3263.71" y="-124.5" font-family="Helvetica,sans-Serif" font-size="10.00">bodyvolumecalc.h</text>
</a>
</g>
<!-- Node38&#45;&gt;Node46 -->
<g id="edge128" class="edge"><title>Node38&#45;&gt;Node46</title>
<path fill="none" stroke="midnightblue" d="M3140.79,-171.009C3169.57,-160.702 3208.12,-146.903 3234.32,-137.523"/>
<polygon fill="midnightblue" stroke="midnightblue" points="3139.28,-167.831 3131.05,-174.497 3141.64,-174.421 3139.28,-167.831"/>
</g>
<!-- Node47 -->
<g id="node112" class="node"><title>Node47</title>
<a xlink:href="convolve2d_8h.html" target="_top" xlink:title="convolve2d.h">
<polygon fill="white" stroke="red" points="3328.71,-116.5 3328.71,-137.5 3402.71,-137.5 3402.71,-116.5 3328.71,-116.5"/>
<text text-anchor="middle" x="3365.71" y="-124.5" font-family="Helvetica,sans-Serif" font-size="10.00">convolve2d.h</text>
</a>
</g>
<!-- Node38&#45;&gt;Node47 -->
<g id="edge130" class="edge"><title>Node38&#45;&gt;Node47</title>
<path fill="none" stroke="midnightblue" d="M3148.99,-173.758C3225.62,-156.74 3246.62,-154.383 3319.71,-138 3322.59,-137.353 3325.58,-136.671 3328.57,-135.976"/>
<polygon fill="midnightblue" stroke="midnightblue" points="3147.84,-170.428 3138.84,-176.024 3149.37,-177.26 3147.84,-170.428"/>
</g>
<!-- Node48 -->
<g id="node114" class="node"><title>Node48</title>
<a xlink:href="convolve3d_8h.html" target="_top" xlink:title="convolve3d.h">
<polygon fill="white" stroke="red" points="3420.71,-116.5 3420.71,-137.5 3494.71,-137.5 3494.71,-116.5 3420.71,-116.5"/>
<text text-anchor="middle" x="3457.71" y="-124.5" font-family="Helvetica,sans-Serif" font-size="10.00">convolve3d.h</text>
</a>
</g>
<!-- Node38&#45;&gt;Node48 -->
<g id="edge132" class="edge"><title>Node38&#45;&gt;Node48</title>
<path fill="none" stroke="midnightblue" d="M3148.87,-173.93C3265.87,-152.596 3298.5,-159.201 3411.71,-138 3414.61,-137.456 3417.61,-136.847 3420.62,-136.203"/>
<polygon fill="midnightblue" stroke="midnightblue" points="3147.99,-170.533 3138.8,-175.797 3149.27,-177.416 3147.99,-170.533"/>
</g>
<!-- Node39&#45;&gt;Node40 -->
<g id="edge112" class="edge"><title>Node39&#45;&gt;Node40</title>
<path fill="none" stroke="midnightblue" d="M3558.2,-107.373C3563.17,-98.0682 3568.92,-87.3204 3573.06,-79.5707"/>
<polygon fill="midnightblue" stroke="midnightblue" points="3555.02,-105.893 3553.39,-116.362 3561.19,-109.192 3555.02,-105.893"/>
</g>
<!-- Node41&#45;&gt;Node42 -->
<g id="edge116" class="edge"><title>Node41&#45;&gt;Node42</title>
<path fill="none" stroke="midnightblue" d="M2823.33,-107.079C2827.78,-97.8422 2832.9,-87.2388 2836.61,-79.5707"/>
<polygon fill="midnightblue" stroke="midnightblue" points="2820.04,-105.835 2818.84,-116.362 2826.34,-108.878 2820.04,-105.835"/>
</g>
<!-- Node49&#45;&gt;Node8 -->
<g id="edge138" class="edge"><title>Node49&#45;&gt;Node8</title>
<path fill="none" stroke="midnightblue" d="M2790.26,-168.316C2756.25,-144.112 2694.19,-99.9446 2665.71,-79.6792"/>
<polygon fill="midnightblue" stroke="midnightblue" points="2788.49,-171.348 2798.67,-174.295 2792.55,-165.645 2788.49,-171.348"/>
</g>
<!-- Node49&#45;&gt;Node41 -->
<g id="edge136" class="edge"><title>Node49&#45;&gt;Node41</title>
<path fill="none" stroke="midnightblue" d="M2813.71,-164.191C2813.71,-155.168 2813.71,-144.994 2813.71,-137.571"/>
<polygon fill="midnightblue" stroke="midnightblue" points="2810.21,-164.362 2813.71,-174.362 2817.21,-164.362 2810.21,-164.362"/>
</g>
</g>
</svg>
