<?xml version="1.0" encoding="UTF-8" standalone="no"?>
<!DOCTYPE svg PUBLIC "-//W3C//DTD SVG 1.1//EN"
 "http://www.w3.org/Graphics/SVG/1.1/DTD/svg11.dtd">
<!-- Generated by graphviz version 2.26.0 (20091210.2329)
 -->
<!-- Title: attribsel.h Pages: 1 -->
<svg width="2192pt" height="204pt"
 viewBox="0.00 0.00 2192.00 204.00" xmlns="http://www.w3.org/2000/svg" xmlns:xlink="http://www.w3.org/1999/xlink">
<g id="graph1" class="graph" transform="scale(1 1) rotate(0) translate(4 200)">
<title>attribsel.h</title>
<polygon fill="white" stroke="white" points="-4,5 -4,-200 2189,-200 2189,5 -4,5"/>
<!-- Node1 -->
<g id="node1" class="node"><title>Node1</title>
<polygon fill="#bfbfbf" stroke="black" points="569.5,-174.5 569.5,-195.5 628.5,-195.5 628.5,-174.5 569.5,-174.5"/>
<text text-anchor="middle" x="599" y="-182.5" font-family="Helvetica,sans-Serif" font-size="10.00">attribsel.h</text>
</g>
<!-- Node2 -->
<g id="node3" class="node"><title>Node2</title>
<a xlink:href="attribengman_8h.html" target="_top" xlink:title="attribengman.h">
<polygon fill="white" stroke="black" points="98.5,-116.5 98.5,-137.5 179.5,-137.5 179.5,-116.5 98.5,-116.5"/>
<text text-anchor="middle" x="139" y="-124.5" font-family="Helvetica,sans-Serif" font-size="10.00">attribengman.h</text>
</a>
</g>
<!-- Node1&#45;&gt;Node2 -->
<g id="edge2" class="edge"><title>Node1&#45;&gt;Node2</title>
<path fill="none" stroke="midnightblue" d="M559.225,-181.537C486.338,-174.937 326.574,-159.296 193,-138 188.654,-137.307 184.126,-136.508 179.622,-135.663"/>
<polygon fill="midnightblue" stroke="midnightblue" points="559.062,-185.036 569.335,-182.444 559.688,-178.064 559.062,-185.036"/>
</g>
<!-- Node3 -->
<g id="node5" class="node"><title>Node3</title>
<a xlink:href="emseedpicker_8h.html" target="_top" xlink:title="emseedpicker.h">
<polygon fill="white" stroke="black" points="273,-116.5 273,-137.5 359,-137.5 359,-116.5 273,-116.5"/>
<text text-anchor="middle" x="316" y="-124.5" font-family="Helvetica,sans-Serif" font-size="10.00">emseedpicker.h</text>
</a>
</g>
<!-- Node1&#45;&gt;Node3 -->
<g id="edge4" class="edge"><title>Node1&#45;&gt;Node3</title>
<path fill="none" stroke="midnightblue" d="M559.586,-177.077C513.588,-167.809 435.245,-151.953 368,-138 365.109,-137.4 362.128,-136.778 359.125,-136.149"/>
<polygon fill="midnightblue" stroke="midnightblue" points="558.954,-180.52 569.449,-179.064 560.336,-173.658 558.954,-180.52"/>
</g>
<!-- Node4 -->
<g id="node7" class="node"><title>Node4</title>
<a xlink:href="horizon2dseedpicker_8h.html" target="_top" xlink:title="horizon2dseedpicker.h">
<polygon fill="white" stroke="black" points="0,-58.5 0,-79.5 114,-79.5 114,-58.5 0,-58.5"/>
<text text-anchor="middle" x="57" y="-66.5" font-family="Helvetica,sans-Serif" font-size="10.00">horizon2dseedpicker.h</text>
</a>
</g>
<!-- Node1&#45;&gt;Node4 -->
<g id="edge22" class="edge"><title>Node1&#45;&gt;Node4</title>
<path fill="none" stroke="midnightblue" d="M559.349,-181.87C476.776,-175.045 288.985,-157.833 228,-138 208.705,-131.725 206.496,-124.341 188,-116 155.842,-101.498 117.755,-88.2499 90.9623,-79.5428"/>
<polygon fill="midnightblue" stroke="midnightblue" points="559.096,-185.361 569.348,-182.688 559.667,-178.385 559.096,-185.361"/>
</g>
<!-- Node5 -->
<g id="node9" class="node"><title>Node5</title>
<a xlink:href="horizon3dseedpicker_8h.html" target="_top" xlink:title="horizon3dseedpicker.h">
<polygon fill="white" stroke="black" points="132,-58.5 132,-79.5 246,-79.5 246,-58.5 132,-58.5"/>
<text text-anchor="middle" x="189" y="-66.5" font-family="Helvetica,sans-Serif" font-size="10.00">horizon3dseedpicker.h</text>
</a>
</g>
<!-- Node1&#45;&gt;Node5 -->
<g id="edge24" class="edge"><title>Node1&#45;&gt;Node5</title>
<path fill="none" stroke="midnightblue" d="M559.06,-182.38C481.944,-176.837 315.598,-162.391 264,-138 234.887,-124.238 209.262,-95.1693 196.88,-79.5135"/>
<polygon fill="midnightblue" stroke="midnightblue" points="559.107,-185.892 569.328,-183.103 559.598,-178.909 559.107,-185.892"/>
</g>
<!-- Node11 -->
<g id="node24" class="node"><title>Node11</title>
<a xlink:href="mpeengine_8h.html" target="_top" xlink:title="mpeengine.h">
<polygon fill="white" stroke="black" points="377,-116.5 377,-137.5 449,-137.5 449,-116.5 377,-116.5"/>
<text text-anchor="middle" x="413" y="-124.5" font-family="Helvetica,sans-Serif" font-size="10.00">mpeengine.h</text>
</a>
</g>
<!-- Node1&#45;&gt;Node11 -->
<g id="edge26" class="edge"><title>Node1&#45;&gt;Node11</title>
<path fill="none" stroke="midnightblue" d="M559.22,-172.596C525.8,-162.174 478.559,-147.443 446.907,-137.573"/>
<polygon fill="midnightblue" stroke="midnightblue" points="558.527,-176.046 569.116,-175.681 560.611,-169.363 558.527,-176.046"/>
</g>
<!-- Node12 -->
<g id="node27" class="node"><title>Node12</title>
<a xlink:href="uiattr2dsel_8h.html" target="_top" xlink:title="uiattr2dsel.h">
<polygon fill="white" stroke="black" points="467,-116.5 467,-137.5 537,-137.5 537,-116.5 467,-116.5"/>
<text text-anchor="middle" x="502" y="-124.5" font-family="Helvetica,sans-Serif" font-size="10.00">uiattr2dsel.h</text>
</a>
</g>
<!-- Node1&#45;&gt;Node12 -->
<g id="edge30" class="edge"><title>Node1&#45;&gt;Node12</title>
<path fill="none" stroke="midnightblue" d="M572.41,-169.101C555.627,-159.066 534.413,-146.381 519.679,-137.571"/>
<polygon fill="midnightblue" stroke="midnightblue" points="570.83,-172.234 581.209,-174.362 574.422,-166.226 570.83,-172.234"/>
</g>
<!-- Node13 -->
<g id="node29" class="node"><title>Node13</title>
<a xlink:href="uiattribpartserv_8h.html" target="_top" xlink:title="uiattribpartserv.h">
<polygon fill="white" stroke="black" points="554.5,-116.5 554.5,-137.5 643.5,-137.5 643.5,-116.5 554.5,-116.5"/>
<text text-anchor="middle" x="599" y="-124.5" font-family="Helvetica,sans-Serif" font-size="10.00">uiattribpartserv.h</text>
</a>
</g>
<!-- Node1&#45;&gt;Node13 -->
<g id="edge32" class="edge"><title>Node1&#45;&gt;Node13</title>
<path fill="none" stroke="midnightblue" d="M599,-164.191C599,-155.168 599,-144.994 599,-137.571"/>
<polygon fill="midnightblue" stroke="midnightblue" points="595.5,-164.362 599,-174.362 602.5,-164.362 595.5,-164.362"/>
</g>
<!-- Node14 -->
<g id="node31" class="node"><title>Node14</title>
<a xlink:href="uimultoutsel_8h.html" target="_top" xlink:title="uimultoutsel.h">
<polygon fill="white" stroke="black" points="660.5,-116.5 660.5,-137.5 737.5,-137.5 737.5,-116.5 660.5,-116.5"/>
<text text-anchor="middle" x="699" y="-124.5" font-family="Helvetica,sans-Serif" font-size="10.00">uimultoutsel.h</text>
</a>
</g>
<!-- Node1&#45;&gt;Node14 -->
<g id="edge34" class="edge"><title>Node1&#45;&gt;Node14</title>
<path fill="none" stroke="midnightblue" d="M626.412,-169.101C643.714,-159.066 665.585,-146.381 680.775,-137.571"/>
<polygon fill="midnightblue" stroke="midnightblue" points="624.236,-166.317 617.342,-174.362 627.748,-172.372 624.236,-166.317"/>
</g>
<!-- Node15 -->
<g id="node33" class="node"><title>Node15</title>
<a xlink:href="uimpepartserv_8h.html" target="_top" xlink:title="uimpepartserv.h">
<polygon fill="white" stroke="black" points="755,-116.5 755,-137.5 841,-137.5 841,-116.5 755,-116.5"/>
<text text-anchor="middle" x="798" y="-124.5" font-family="Helvetica,sans-Serif" font-size="10.00">uimpepartserv.h</text>
</a>
</g>
<!-- Node1&#45;&gt;Node15 -->
<g id="edge36" class="edge"><title>Node1&#45;&gt;Node15</title>
<path fill="none" stroke="midnightblue" d="M638.461,-173.499C674.415,-163.02 727.074,-147.672 761.927,-137.514"/>
<polygon fill="midnightblue" stroke="midnightblue" points="637.413,-170.158 628.792,-176.317 639.372,-176.879 637.413,-170.158"/>
</g>
<!-- Node16 -->
<g id="node35" class="node"><title>Node16</title>
<a xlink:href="vissurvobj_8h.html" target="_top" xlink:title="vissurvobj.h">
<polygon fill="white" stroke="black" points="1160.5,-116.5 1160.5,-137.5 1229.5,-137.5 1229.5,-116.5 1160.5,-116.5"/>
<text text-anchor="middle" x="1195" y="-124.5" font-family="Helvetica,sans-Serif" font-size="10.00">vissurvobj.h</text>
</a>
</g>
<!-- Node1&#45;&gt;Node16 -->
<g id="edge38" class="edge"><title>Node1&#45;&gt;Node16</title>
<path fill="none" stroke="midnightblue" d="M638.559,-181.15C748.444,-170.457 1056.13,-140.514 1160.14,-130.392"/>
<polygon fill="midnightblue" stroke="midnightblue" points="638.17,-177.672 628.556,-182.124 638.848,-184.639 638.17,-177.672"/>
</g>
<!-- Node32 -->
<g id="node67" class="node"><title>Node32</title>
<a xlink:href="vismarchingcubessurfacedisplay_8h.html" target="_top" xlink:title="vismarchingcubessurfacedisplay.h">
<polygon fill="white" stroke="black" points="467.5,-58.5 467.5,-79.5 634.5,-79.5 634.5,-58.5 467.5,-58.5"/>
<text text-anchor="middle" x="551" y="-66.5" font-family="Helvetica,sans-Serif" font-size="10.00">vismarchingcubessurfacedisplay.h</text>
</a>
</g>
<!-- Node1&#45;&gt;Node32 -->
<g id="edge88" class="edge"><title>Node1&#45;&gt;Node32</title>
<path fill="none" stroke="midnightblue" d="M638.988,-183.503C702.918,-180.175 823.645,-169.747 850,-138 856.245,-130.477 856.354,-123.431 850,-116 842.957,-107.763 720.782,-90.6192 634.813,-79.4719"/>
<polygon fill="midnightblue" stroke="midnightblue" points="638.684,-180.013 628.865,-183.995 639.024,-187.005 638.684,-180.013"/>
</g>
<!-- Node41 -->
<g id="node86" class="node"><title>Node41</title>
<a xlink:href="vismpeseedcatcher_8h.html" target="_top" xlink:title="vismpeseedcatcher.h">
<polygon fill="white" stroke="black" points="1247,-116.5 1247,-137.5 1357,-137.5 1357,-116.5 1247,-116.5"/>
<text text-anchor="middle" x="1302" y="-124.5" font-family="Helvetica,sans-Serif" font-size="10.00">vismpeseedcatcher.h</text>
</a>
</g>
<!-- Node1&#45;&gt;Node41 -->
<g id="edge90" class="edge"><title>Node1&#45;&gt;Node41</title>
<path fill="none" stroke="midnightblue" d="M638.744,-183.416C739.357,-179.115 1012.19,-165.644 1238,-138 1240.91,-137.644 1243.89,-137.247 1246.89,-136.82"/>
<polygon fill="midnightblue" stroke="midnightblue" points="638.563,-179.92 628.719,-183.838 638.858,-186.914 638.563,-179.92"/>
</g>
<!-- Node42 -->
<g id="node88" class="node"><title>Node42</title>
<a xlink:href="uiodviewer2dposgrp_8h.html" target="_top" xlink:title="uiodviewer2dposgrp.h">
<polygon fill="white" stroke="black" points="1726.5,-116.5 1726.5,-137.5 1837.5,-137.5 1837.5,-116.5 1726.5,-116.5"/>
<text text-anchor="middle" x="1782" y="-124.5" font-family="Helvetica,sans-Serif" font-size="10.00">uiodviewer2dposgrp.h</text>
</a>
</g>
<!-- Node1&#45;&gt;Node42 -->
<g id="edge92" class="edge"><title>Node1&#45;&gt;Node42</title>
<path fill="none" stroke="midnightblue" d="M638.621,-183.057C814.157,-174.451 1522.08,-139.743 1726.49,-129.722"/>
<polygon fill="midnightblue" stroke="midnightblue" points="638.355,-179.566 628.538,-183.552 638.697,-186.558 638.355,-179.566"/>
</g>
<!-- Node3&#45;&gt;Node4 -->
<g id="edge6" class="edge"><title>Node3&#45;&gt;Node4</title>
<path fill="none" stroke="midnightblue" d="M263.015,-115.135C216.327,-104.679 148.951,-89.5914 104.112,-79.5501"/>
<polygon fill="midnightblue" stroke="midnightblue" points="262.417,-118.587 272.941,-117.357 263.947,-111.757 262.417,-118.587"/>
</g>
<!-- Node3&#45;&gt;Node5 -->
<g id="edge8" class="edge"><title>Node3&#45;&gt;Node5</title>
<path fill="none" stroke="midnightblue" d="M283.607,-112.206C261.327,-102.031 232.26,-88.7567 212.257,-79.6212"/>
<polygon fill="midnightblue" stroke="midnightblue" points="282.451,-115.526 293.001,-116.497 285.359,-109.159 282.451,-115.526"/>
</g>
<!-- Node6 -->
<g id="node11" class="node"><title>Node6</title>
<a xlink:href="uihorizontracksetup_8h.html" target="_top" xlink:title="uihorizontracksetup.h">
<polygon fill="white" stroke="black" points="242,-0.5 242,-21.5 352,-21.5 352,-0.5 242,-0.5"/>
<text text-anchor="middle" x="297" y="-8.5" font-family="Helvetica,sans-Serif" font-size="10.00">uihorizontracksetup.h</text>
</a>
</g>
<!-- Node3&#45;&gt;Node6 -->
<g id="edge10" class="edge"><title>Node3&#45;&gt;Node6</title>
<path fill="none" stroke="midnightblue" d="M335.857,-109.059C348.569,-95.2951 361.259,-75.7132 353,-58 345.598,-42.1249 329.904,-29.7075 317.008,-21.633"/>
<polygon fill="midnightblue" stroke="midnightblue" points="333.095,-106.873 328.528,-116.433 338.06,-111.808 333.095,-106.873"/>
</g>
<!-- Node7 -->
<g id="node13" class="node"><title>Node7</title>
<a xlink:href="uimpe_8h.html" target="_top" xlink:title="uimpe.h">
<polygon fill="white" stroke="black" points="399.5,-58.5 399.5,-79.5 450.5,-79.5 450.5,-58.5 399.5,-58.5"/>
<text text-anchor="middle" x="425" y="-66.5" font-family="Helvetica,sans-Serif" font-size="10.00">uimpe.h</text>
</a>
</g>
<!-- Node3&#45;&gt;Node7 -->
<g id="edge12" class="edge"><title>Node3&#45;&gt;Node7</title>
<path fill="none" stroke="midnightblue" d="M344.577,-111.794C363.594,-101.675 388.102,-88.6338 405.039,-79.6212"/>
<polygon fill="midnightblue" stroke="midnightblue" points="342.923,-108.709 335.739,-116.497 346.211,-114.889 342.923,-108.709"/>
</g>
<!-- Node10 -->
<g id="node20" class="node"><title>Node10</title>
<a xlink:href="vismpeeditor_8h.html" target="_top" xlink:title="vismpeeditor.h">
<polygon fill="white" stroke="black" points="264,-58.5 264,-79.5 344,-79.5 344,-58.5 264,-58.5"/>
<text text-anchor="middle" x="304" y="-66.5" font-family="Helvetica,sans-Serif" font-size="10.00">vismpeeditor.h</text>
</a>
</g>
<!-- Node3&#45;&gt;Node10 -->
<g id="edge20" class="edge"><title>Node3&#45;&gt;Node10</title>
<path fill="none" stroke="midnightblue" d="M311.756,-106.488C309.874,-97.3924 307.74,-87.0756 306.187,-79.5707"/>
<polygon fill="midnightblue" stroke="midnightblue" points="308.345,-107.278 313.799,-116.362 315.2,-105.86 308.345,-107.278"/>
</g>
<!-- Node7&#45;&gt;Node6 -->
<g id="edge14" class="edge"><title>Node7&#45;&gt;Node6</title>
<path fill="none" stroke="midnightblue" d="M392.654,-54.3431C370.159,-44.1502 340.691,-30.7977 320.44,-21.6212"/>
<polygon fill="midnightblue" stroke="midnightblue" points="391.267,-57.5573 401.82,-58.4966 394.156,-51.1813 391.267,-57.5573"/>
</g>
<!-- Node8 -->
<g id="node16" class="node"><title>Node8</title>
<a xlink:href="uimpecorrelationgrp_8h.html" target="_top" xlink:title="uimpecorrelationgrp.h">
<polygon fill="white" stroke="black" points="370,-0.5 370,-21.5 480,-21.5 480,-0.5 370,-0.5"/>
<text text-anchor="middle" x="425" y="-8.5" font-family="Helvetica,sans-Serif" font-size="10.00">uimpecorrelationgrp.h</text>
</a>
</g>
<!-- Node7&#45;&gt;Node8 -->
<g id="edge16" class="edge"><title>Node7&#45;&gt;Node8</title>
<path fill="none" stroke="midnightblue" d="M425,-48.1906C425,-39.1684 425,-28.9941 425,-21.5707"/>
<polygon fill="midnightblue" stroke="midnightblue" points="421.5,-48.3619 425,-58.3619 428.5,-48.3619 421.5,-48.3619"/>
</g>
<!-- Node9 -->
<g id="node18" class="node"><title>Node9</title>
<a xlink:href="uimpeeventgrp_8h.html" target="_top" xlink:title="uimpeeventgrp.h">
<polygon fill="white" stroke="black" points="497.5,-0.5 497.5,-21.5 586.5,-21.5 586.5,-0.5 497.5,-0.5"/>
<text text-anchor="middle" x="542" y="-8.5" font-family="Helvetica,sans-Serif" font-size="10.00">uimpeeventgrp.h</text>
</a>
</g>
<!-- Node7&#45;&gt;Node9 -->
<g id="edge18" class="edge"><title>Node7&#45;&gt;Node9</title>
<path fill="none" stroke="midnightblue" d="M455.396,-53.9319C475.848,-43.7932 502.311,-30.6748 520.574,-21.6212"/>
<polygon fill="midnightblue" stroke="midnightblue" points="453.593,-50.9193 446.188,-58.4966 456.702,-57.1909 453.593,-50.9193"/>
</g>
<!-- Node11&#45;&gt;Node7 -->
<g id="edge28" class="edge"><title>Node11&#45;&gt;Node7</title>
<path fill="none" stroke="midnightblue" d="M417.244,-106.488C419.126,-97.3924 421.26,-87.0756 422.813,-79.5707"/>
<polygon fill="midnightblue" stroke="midnightblue" points="413.8,-105.86 415.201,-116.362 420.655,-107.278 413.8,-105.86"/>
</g>
<!-- Node17 -->
<g id="node37" class="node"><title>Node17</title>
<a xlink:href="vislocationdisplay_8h.html" target="_top" xlink:title="vislocationdisplay.h">
<polygon fill="white" stroke="black" points="1028,-58.5 1028,-79.5 1130,-79.5 1130,-58.5 1028,-58.5"/>
<text text-anchor="middle" x="1079" y="-66.5" font-family="Helvetica,sans-Serif" font-size="10.00">vislocationdisplay.h</text>
</a>
</g>
<!-- Node16&#45;&gt;Node17 -->
<g id="edge40" class="edge"><title>Node16&#45;&gt;Node17</title>
<path fill="none" stroke="midnightblue" d="M1164.86,-111.932C1144.59,-101.793 1118.35,-88.6748 1100.24,-79.6212"/>
<polygon fill="midnightblue" stroke="midnightblue" points="1163.48,-115.155 1173.99,-116.497 1166.61,-108.894 1163.48,-115.155"/>
</g>
<!-- Node22 -->
<g id="node47" class="node"><title>Node22</title>
<a xlink:href="visemobjdisplay_8h.html" target="_top" xlink:title="visemobjdisplay.h">
<polygon fill="white" stroke="black" points="1147.5,-58.5 1147.5,-79.5 1242.5,-79.5 1242.5,-58.5 1147.5,-58.5"/>
<text text-anchor="middle" x="1195" y="-66.5" font-family="Helvetica,sans-Serif" font-size="10.00">visemobjdisplay.h</text>
</a>
</g>
<!-- Node16&#45;&gt;Node22 -->
<g id="edge50" class="edge"><title>Node16&#45;&gt;Node22</title>
<path fill="none" stroke="midnightblue" d="M1195,-106.191C1195,-97.1684 1195,-86.9941 1195,-79.5707"/>
<polygon fill="midnightblue" stroke="midnightblue" points="1191.5,-106.362 1195,-116.362 1198.5,-106.362 1191.5,-106.362"/>
</g>
<!-- Node25 -->
<g id="node53" class="node"><title>Node25</title>
<a xlink:href="vismultiattribsurvobj_8h.html" target="_top" xlink:title="vismultiattribsurvobj.h">
<polygon fill="white" stroke="black" points="1260,-58.5 1260,-79.5 1372,-79.5 1372,-58.5 1260,-58.5"/>
<text text-anchor="middle" x="1316" y="-66.5" font-family="Helvetica,sans-Serif" font-size="10.00">vismultiattribsurvobj.h</text>
</a>
</g>
<!-- Node16&#45;&gt;Node25 -->
<g id="edge56" class="edge"><title>Node16&#45;&gt;Node25</title>
<path fill="none" stroke="midnightblue" d="M1226.15,-112.069C1247.34,-101.912 1274.87,-88.7157 1293.84,-79.6212"/>
<polygon fill="midnightblue" stroke="midnightblue" points="1224.42,-109.018 1216.91,-116.497 1227.44,-115.33 1224.42,-109.018"/>
</g>
<!-- Node31 -->
<g id="node65" class="node"><title>Node31</title>
<a xlink:href="visfaultsticksetdisplay_8h.html" target="_top" xlink:title="visfaultsticksetdisplay.h">
<polygon fill="white" stroke="black" points="1390,-58.5 1390,-79.5 1512,-79.5 1512,-58.5 1390,-58.5"/>
<text text-anchor="middle" x="1451" y="-66.5" font-family="Helvetica,sans-Serif" font-size="10.00">visfaultsticksetdisplay.h</text>
</a>
</g>
<!-- Node16&#45;&gt;Node31 -->
<g id="edge68" class="edge"><title>Node16&#45;&gt;Node31</title>
<path fill="none" stroke="midnightblue" d="M1239.45,-115.701C1300.08,-101.345 1359.93,-88.3115 1400.97,-79.548"/>
<polygon fill="midnightblue" stroke="midnightblue" points="1238.63,-112.297 1229.71,-118.015 1240.25,-119.107 1238.63,-112.297"/>
</g>
<!-- Node16&#45;&gt;Node32 -->
<g id="edge70" class="edge"><title>Node16&#45;&gt;Node32</title>
<path fill="none" stroke="midnightblue" d="M1150.4,-123.721C1056.47,-116.7 831.366,-99.2746 643,-80 640.28,-79.7216 637.515,-79.4317 634.723,-79.133"/>
<polygon fill="midnightblue" stroke="midnightblue" points="1150.17,-127.213 1160.41,-124.466 1150.69,-120.233 1150.17,-127.213"/>
</g>
<!-- Node33 -->
<g id="node69" class="node"><title>Node33</title>
<a xlink:href="vismpe_8h.html" target="_top" xlink:title="vismpe.h">
<polygon fill="white" stroke="black" points="1530,-58.5 1530,-79.5 1586,-79.5 1586,-58.5 1530,-58.5"/>
<text text-anchor="middle" x="1558" y="-66.5" font-family="Helvetica,sans-Serif" font-size="10.00">vismpe.h</text>
</a>
</g>
<!-- Node16&#45;&gt;Node33 -->
<g id="edge72" class="edge"><title>Node16&#45;&gt;Node33</title>
<path fill="none" stroke="midnightblue" d="M1239.59,-115.876C1364.35,-92.9234 1400.09,-105.488 1521,-80 1523.89,-79.3918 1526.87,-78.6677 1529.84,-77.8856"/>
<polygon fill="midnightblue" stroke="midnightblue" points="1238.83,-112.456 1229.65,-117.743 1240.13,-119.335 1238.83,-112.456"/>
</g>
<!-- Node34 -->
<g id="node71" class="node"><title>Node34</title>
<a xlink:href="vispointsetdisplay_8h.html" target="_top" xlink:title="vispointsetdisplay.h">
<polygon fill="white" stroke="black" points="1603.5,-58.5 1603.5,-79.5 1706.5,-79.5 1706.5,-58.5 1603.5,-58.5"/>
<text text-anchor="middle" x="1655" y="-66.5" font-family="Helvetica,sans-Serif" font-size="10.00">vispointsetdisplay.h</text>
</a>
</g>
<!-- Node16&#45;&gt;Node34 -->
<g id="edge74" class="edge"><title>Node16&#45;&gt;Node34</title>
<path fill="none" stroke="midnightblue" d="M1239.66,-115.904C1396.8,-88.7291 1440.35,-101.938 1595,-80 1597.73,-79.6133 1600.52,-79.1917 1603.33,-78.7462"/>
<polygon fill="midnightblue" stroke="midnightblue" points="1238.88,-112.487 1229.64,-117.664 1240.09,-119.381 1238.88,-112.487"/>
</g>
<!-- Node35 -->
<g id="node73" class="node"><title>Node35</title>
<a xlink:href="vispolylinedisplay_8h.html" target="_top" xlink:title="vispolylinedisplay.h">
<polygon fill="white" stroke="black" points="1723.5,-58.5 1723.5,-79.5 1824.5,-79.5 1824.5,-58.5 1723.5,-58.5"/>
<text text-anchor="middle" x="1774" y="-66.5" font-family="Helvetica,sans-Serif" font-size="10.00">vispolylinedisplay.h</text>
</a>
</g>
<!-- Node16&#45;&gt;Node35 -->
<g id="edge76" class="edge"><title>Node16&#45;&gt;Node35</title>
<path fill="none" stroke="midnightblue" d="M1239.73,-115.943C1449.59,-82.3224 1507.48,-107.094 1715,-80 1717.69,-79.6493 1720.44,-79.2563 1723.21,-78.8334"/>
<polygon fill="midnightblue" stroke="midnightblue" points="1238.93,-112.527 1229.62,-117.588 1240.06,-119.436 1238.93,-112.527"/>
</g>
<!-- Node36 -->
<g id="node75" class="node"><title>Node36</title>
<a xlink:href="visprestackdisplay_8h.html" target="_top" xlink:title="visprestackdisplay.h">
<polygon fill="white" stroke="black" points="1842,-58.5 1842,-79.5 1948,-79.5 1948,-58.5 1842,-58.5"/>
<text text-anchor="middle" x="1895" y="-66.5" font-family="Helvetica,sans-Serif" font-size="10.00">visprestackdisplay.h</text>
</a>
</g>
<!-- Node16&#45;&gt;Node36 -->
<g id="edge78" class="edge"><title>Node16&#45;&gt;Node36</title>
<path fill="none" stroke="midnightblue" d="M1239.81,-115.96C1501.55,-75.8945 1573.25,-110.796 1833,-80 1835.93,-79.6525 1838.93,-79.2559 1841.96,-78.8245"/>
<polygon fill="midnightblue" stroke="midnightblue" points="1238.96,-112.549 1229.62,-117.543 1240.03,-119.467 1238.96,-112.549"/>
</g>
<!-- Node37 -->
<g id="node77" class="node"><title>Node37</title>
<a xlink:href="vispseventdisplay_8h.html" target="_top" xlink:title="vispseventdisplay.h">
<polygon fill="white" stroke="black" points="1965.5,-58.5 1965.5,-79.5 2068.5,-79.5 2068.5,-58.5 1965.5,-58.5"/>
<text text-anchor="middle" x="2017" y="-66.5" font-family="Helvetica,sans-Serif" font-size="10.00">vispseventdisplay.h</text>
</a>
</g>
<!-- Node16&#45;&gt;Node37 -->
<g id="edge80" class="edge"><title>Node16&#45;&gt;Node37</title>
<path fill="none" stroke="midnightblue" d="M1239.53,-116.022C1556.12,-69.104 1642.44,-116.549 1957,-80 1959.74,-79.6822 1962.53,-79.3155 1965.35,-78.9131"/>
<polygon fill="midnightblue" stroke="midnightblue" points="1238.98,-112.565 1229.61,-117.511 1240.02,-119.487 1238.98,-112.565"/>
</g>
<!-- Node38 -->
<g id="node79" class="node"><title>Node38</title>
<a xlink:href="visrandomposbodydisplay_8h.html" target="_top" xlink:title="visrandomposbodydisplay.h">
<polygon fill="white" stroke="black" points="651.5,-58.5 651.5,-79.5 788.5,-79.5 788.5,-58.5 651.5,-58.5"/>
<text text-anchor="middle" x="720" y="-66.5" font-family="Helvetica,sans-Serif" font-size="10.00">visrandomposbodydisplay.h</text>
</a>
</g>
<!-- Node16&#45;&gt;Node38 -->
<g id="edge82" class="edge"><title>Node16&#45;&gt;Node38</title>
<path fill="none" stroke="midnightblue" d="M1150.05,-122.053C1076.27,-113.852 924.901,-96.6852 797,-80 794.322,-79.6506 791.592,-79.2887 788.836,-78.9183"/>
<polygon fill="midnightblue" stroke="midnightblue" points="1150.04,-125.573 1160.36,-123.197 1150.81,-118.615 1150.04,-125.573"/>
</g>
<!-- Node39 -->
<g id="node81" class="node"><title>Node39</title>
<a xlink:href="visvolumedisplay_8h.html" target="_top" xlink:title="visvolumedisplay.h">
<polygon fill="white" stroke="black" points="806,-58.5 806,-79.5 906,-79.5 906,-58.5 806,-58.5"/>
<text text-anchor="middle" x="856" y="-66.5" font-family="Helvetica,sans-Serif" font-size="10.00">visvolumedisplay.h</text>
</a>
</g>
<!-- Node16&#45;&gt;Node39 -->
<g id="edge84" class="edge"><title>Node16&#45;&gt;Node39</title>
<path fill="none" stroke="midnightblue" d="M1150.32,-119.755C1095.02,-110.73 997.986,-94.6997 915,-80 912.127,-79.4911 909.177,-78.962 906.201,-78.4231"/>
<polygon fill="midnightblue" stroke="midnightblue" points="1150.05,-123.257 1160.48,-121.411 1151.17,-116.348 1150.05,-123.257"/>
</g>
<!-- Node40 -->
<g id="node83" class="node"><title>Node40</title>
<a xlink:href="viswelldisplay_8h.html" target="_top" xlink:title="viswelldisplay.h">
<polygon fill="white" stroke="black" points="924,-58.5 924,-79.5 1010,-79.5 1010,-58.5 924,-58.5"/>
<text text-anchor="middle" x="967" y="-66.5" font-family="Helvetica,sans-Serif" font-size="10.00">viswelldisplay.h</text>
</a>
</g>
<!-- Node16&#45;&gt;Node40 -->
<g id="edge86" class="edge"><title>Node16&#45;&gt;Node40</title>
<path fill="none" stroke="midnightblue" d="M1150.62,-115.71C1109.48,-105.245 1048.74,-89.794 1008.54,-79.567"/>
<polygon fill="midnightblue" stroke="midnightblue" points="1149.82,-119.118 1160.37,-118.191 1151.54,-112.334 1149.82,-119.118"/>
</g>
<!-- Node18 -->
<g id="node39" class="node"><title>Node18</title>
<a xlink:href="visarrowdisplay_8h.html" target="_top" xlink:title="visarrowdisplay.h">
<polygon fill="white" stroke="black" points="956,-0.5 956,-21.5 1048,-21.5 1048,-0.5 956,-0.5"/>
<text text-anchor="middle" x="1002" y="-8.5" font-family="Helvetica,sans-Serif" font-size="10.00">visarrowdisplay.h</text>
</a>
</g>
<!-- Node17&#45;&gt;Node18 -->
<g id="edge42" class="edge"><title>Node17&#45;&gt;Node18</title>
<path fill="none" stroke="midnightblue" d="M1056.77,-52.2587C1043.64,-42.3641 1027.4,-30.1361 1016.03,-21.5707"/>
<polygon fill="midnightblue" stroke="midnightblue" points="1054.78,-55.1409 1064.88,-58.3619 1059,-49.5496 1054.78,-55.1409"/>
</g>
<!-- Node19 -->
<g id="node41" class="node"><title>Node19</title>
<a xlink:href="visimagedisplay_8h.html" target="_top" xlink:title="visimagedisplay.h">
<polygon fill="white" stroke="black" points="603.5,-0.5 603.5,-21.5 698.5,-21.5 698.5,-0.5 603.5,-0.5"/>
<text text-anchor="middle" x="651" y="-8.5" font-family="Helvetica,sans-Serif" font-size="10.00">visimagedisplay.h</text>
</a>
</g>
<!-- Node17&#45;&gt;Node19 -->
<g id="edge44" class="edge"><title>Node17&#45;&gt;Node19</title>
<path fill="none" stroke="midnightblue" d="M1017.82,-57.9056C879.197,-37.6722 841.693,-42.9659 707,-22 704.259,-21.5733 701.447,-21.1084 698.614,-20.6186"/>
<polygon fill="midnightblue" stroke="midnightblue" points="1017.57,-61.4071 1027.98,-59.4072 1018.59,-54.4824 1017.57,-61.4071"/>
</g>
<!-- Node20 -->
<g id="node43" class="node"><title>Node20</title>
<a xlink:href="vispicksetdisplay_8h.html" target="_top" xlink:title="vispicksetdisplay.h">
<polygon fill="white" stroke="black" points="716,-0.5 716,-21.5 816,-21.5 816,-0.5 716,-0.5"/>
<text text-anchor="middle" x="766" y="-8.5" font-family="Helvetica,sans-Serif" font-size="10.00">vispicksetdisplay.h</text>
</a>
</g>
<!-- Node17&#45;&gt;Node20 -->
<g id="edge46" class="edge"><title>Node17&#45;&gt;Node20</title>
<path fill="none" stroke="midnightblue" d="M1017.95,-57.7281C966.5,-48.2215 890.931,-34.246 825,-22 822.132,-21.4672 819.185,-20.9194 816.211,-20.3662"/>
<polygon fill="midnightblue" stroke="midnightblue" points="1017.44,-61.1929 1027.91,-59.5679 1018.72,-54.3094 1017.44,-61.1929"/>
</g>
<!-- Node21 -->
<g id="node45" class="node"><title>Node21</title>
<a xlink:href="visscalebardisplay_8h.html" target="_top" xlink:title="visscalebardisplay.h">
<polygon fill="white" stroke="black" points="833.5,-0.5 833.5,-21.5 938.5,-21.5 938.5,-0.5 833.5,-0.5"/>
<text text-anchor="middle" x="886" y="-8.5" font-family="Helvetica,sans-Serif" font-size="10.00">visscalebardisplay.h</text>
</a>
</g>
<!-- Node17&#45;&gt;Node21 -->
<g id="edge48" class="edge"><title>Node17&#45;&gt;Node21</title>
<path fill="none" stroke="midnightblue" d="M1034.23,-55.5464C999.756,-45.1857 952.774,-31.0668 921.016,-21.5231"/>
<polygon fill="midnightblue" stroke="midnightblue" points="1033.46,-58.9705 1044.05,-58.4966 1035.48,-52.2666 1033.46,-58.9705"/>
</g>
<!-- Node23 -->
<g id="node49" class="node"><title>Node23</title>
<a xlink:href="vishorizon2ddisplay_8h.html" target="_top" xlink:title="vishorizon2ddisplay.h">
<polygon fill="white" stroke="black" points="1184,-0.5 1184,-21.5 1294,-21.5 1294,-0.5 1184,-0.5"/>
<text text-anchor="middle" x="1239" y="-8.5" font-family="Helvetica,sans-Serif" font-size="10.00">vishorizon2ddisplay.h</text>
</a>
</g>
<!-- Node22&#45;&gt;Node23 -->
<g id="edge52" class="edge"><title>Node22&#45;&gt;Node23</title>
<path fill="none" stroke="midnightblue" d="M1209.22,-50.2504C1216.43,-40.75 1224.92,-29.5651 1230.98,-21.5707"/>
<polygon fill="midnightblue" stroke="midnightblue" points="1206.33,-48.2796 1203.07,-58.3619 1211.9,-52.5103 1206.33,-48.2796"/>
</g>
<!-- Node24 -->
<g id="node51" class="node"><title>Node24</title>
<a xlink:href="vishorizondisplay_8h.html" target="_top" xlink:title="vishorizondisplay.h">
<polygon fill="white" stroke="black" points="1066,-0.5 1066,-21.5 1166,-21.5 1166,-0.5 1066,-0.5"/>
<text text-anchor="middle" x="1116" y="-8.5" font-family="Helvetica,sans-Serif" font-size="10.00">vishorizondisplay.h</text>
</a>
</g>
<!-- Node22&#45;&gt;Node24 -->
<g id="edge54" class="edge"><title>Node22&#45;&gt;Node24</title>
<path fill="none" stroke="midnightblue" d="M1172.2,-52.2587C1158.72,-42.3641 1142.06,-30.1361 1130.4,-21.5707"/>
<polygon fill="midnightblue" stroke="midnightblue" points="1170.38,-55.2651 1180.51,-58.3619 1174.52,-49.6225 1170.38,-55.2651"/>
</g>
<!-- Node26 -->
<g id="node55" class="node"><title>Node26</title>
<a xlink:href="visfaultdisplay_8h.html" target="_top" xlink:title="visfaultdisplay.h">
<polygon fill="white" stroke="black" points="1833.5,-0.5 1833.5,-21.5 1920.5,-21.5 1920.5,-0.5 1833.5,-0.5"/>
<text text-anchor="middle" x="1877" y="-8.5" font-family="Helvetica,sans-Serif" font-size="10.00">visfaultdisplay.h</text>
</a>
</g>
<!-- Node25&#45;&gt;Node26 -->
<g id="edge58" class="edge"><title>Node25&#45;&gt;Node26</title>
<path fill="none" stroke="midnightblue" d="M1382.42,-57.9155C1579.21,-34.0143 1632.34,-50.0711 1825,-22 1827.74,-21.6009 1830.55,-21.1442 1833.38,-20.649"/>
<polygon fill="midnightblue" stroke="midnightblue" points="1381.82,-54.4622 1372.33,-59.1606 1382.68,-61.4096 1381.82,-54.4622"/>
</g>
<!-- Node27 -->
<g id="node57" class="node"><title>Node27</title>
<a xlink:href="visplanedatadisplay_8h.html" target="_top" xlink:title="visplanedatadisplay.h">
<polygon fill="white" stroke="black" points="1312,-0.5 1312,-21.5 1422,-21.5 1422,-0.5 1312,-0.5"/>
<text text-anchor="middle" x="1367" y="-8.5" font-family="Helvetica,sans-Serif" font-size="10.00">visplanedatadisplay.h</text>
</a>
</g>
<!-- Node25&#45;&gt;Node27 -->
<g id="edge60" class="edge"><title>Node25&#45;&gt;Node27</title>
<path fill="none" stroke="midnightblue" d="M1331.98,-50.8299C1340.44,-41.2078 1350.53,-29.7282 1357.71,-21.5707"/>
<polygon fill="midnightblue" stroke="midnightblue" points="1329.33,-48.541 1325.35,-58.3619 1334.59,-53.1634 1329.33,-48.541"/>
</g>
<!-- Node28 -->
<g id="node59" class="node"><title>Node28</title>
<a xlink:href="vispolygonbodydisplay_8h.html" target="_top" xlink:title="vispolygonbodydisplay.h">
<polygon fill="white" stroke="black" points="1439.5,-0.5 1439.5,-21.5 1562.5,-21.5 1562.5,-0.5 1439.5,-0.5"/>
<text text-anchor="middle" x="1501" y="-8.5" font-family="Helvetica,sans-Serif" font-size="10.00">vispolygonbodydisplay.h</text>
</a>
</g>
<!-- Node25&#45;&gt;Node28 -->
<g id="edge62" class="edge"><title>Node25&#45;&gt;Node28</title>
<path fill="none" stroke="midnightblue" d="M1359.34,-55.4127C1392.35,-45.0646 1437.12,-31.0258 1467.44,-21.5231"/>
<polygon fill="midnightblue" stroke="midnightblue" points="1358,-52.1653 1349.5,-58.4966 1360.09,-58.8447 1358,-52.1653"/>
</g>
<!-- Node29 -->
<g id="node61" class="node"><title>Node29</title>
<a xlink:href="visrandomtrackdisplay_8h.html" target="_top" xlink:title="visrandomtrackdisplay.h">
<polygon fill="white" stroke="black" points="1580,-0.5 1580,-21.5 1702,-21.5 1702,-0.5 1580,-0.5"/>
<text text-anchor="middle" x="1641" y="-8.5" font-family="Helvetica,sans-Serif" font-size="10.00">visrandomtrackdisplay.h</text>
</a>
</g>
<!-- Node25&#45;&gt;Node29 -->
<g id="edge64" class="edge"><title>Node25&#45;&gt;Node29</title>
<path fill="none" stroke="midnightblue" d="M1382.15,-57.1944C1440.85,-46.7199 1525.79,-31.5611 1582.16,-21.5009"/>
<polygon fill="midnightblue" stroke="midnightblue" points="1381.47,-53.7609 1372.24,-58.9634 1382.7,-60.652 1381.47,-53.7609"/>
</g>
<!-- Node30 -->
<g id="node63" class="node"><title>Node30</title>
<a xlink:href="visseis2ddisplay_8h.html" target="_top" xlink:title="visseis2ddisplay.h">
<polygon fill="white" stroke="black" points="1719.5,-0.5 1719.5,-21.5 1816.5,-21.5 1816.5,-0.5 1719.5,-0.5"/>
<text text-anchor="middle" x="1768" y="-8.5" font-family="Helvetica,sans-Serif" font-size="10.00">visseis2ddisplay.h</text>
</a>
</g>
<!-- Node25&#45;&gt;Node30 -->
<g id="edge66" class="edge"><title>Node25&#45;&gt;Node30</title>
<path fill="none" stroke="midnightblue" d="M1382.59,-57.8446C1528.89,-37.9517 1568.39,-43.5025 1711,-22 1713.69,-21.5943 1716.45,-21.1518 1719.23,-20.6848"/>
<polygon fill="midnightblue" stroke="midnightblue" points="1381.77,-54.4253 1372.34,-59.2567 1382.72,-61.3599 1381.77,-54.4253"/>
</g>
<!-- Node43 -->
<g id="node90" class="node"><title>Node43</title>
<a xlink:href="uiodviewer2dmgr_8h.html" target="_top" xlink:title="uiodviewer2dmgr.h">
<polygon fill="white" stroke="black" points="2086,-58.5 2086,-79.5 2184,-79.5 2184,-58.5 2086,-58.5"/>
<text text-anchor="middle" x="2135" y="-66.5" font-family="Helvetica,sans-Serif" font-size="10.00">uiodviewer2dmgr.h</text>
</a>
</g>
<!-- Node42&#45;&gt;Node43 -->
<g id="edge94" class="edge"><title>Node42&#45;&gt;Node43</title>
<path fill="none" stroke="midnightblue" d="M1847.61,-117.114C1907.45,-107.962 1998.28,-93.733 2077,-80 2079.93,-79.4892 2082.94,-78.953 2085.97,-78.4037"/>
<polygon fill="midnightblue" stroke="midnightblue" points="1846.9,-113.681 1837.54,-118.65 1847.95,-120.601 1846.9,-113.681"/>
</g>
</g>
</svg>
