<?xml version="1.0" encoding="UTF-8" standalone="no"?>
<!DOCTYPE svg PUBLIC "-//W3C//DTD SVG 1.1//EN"
 "http://www.w3.org/Graphics/SVG/1.1/DTD/svg11.dtd">
<!-- Generated by graphviz version 2.26.0 (20091210.2329)
 -->
<!-- Title: attribdescid.h Pages: 1 -->
<svg width="356pt" height="262pt"
 viewBox="0.00 0.00 356.00 262.00" xmlns="http://www.w3.org/2000/svg" xmlns:xlink="http://www.w3.org/1999/xlink">
<g id="graph1" class="graph" transform="scale(1 1) rotate(0) translate(4 258)">
<title>attribdescid.h</title>
<polygon fill="white" stroke="white" points="-4,5 -4,-258 353,-258 353,5 -4,5"/>
<!-- Node1 -->
<g id="node1" class="node"><title>Node1</title>
<polygon fill="#bfbfbf" stroke="black" points="145.5,-232.5 145.5,-253.5 220.5,-253.5 220.5,-232.5 145.5,-232.5"/>
<text text-anchor="middle" x="183" y="-240.5" font-family="Helvetica,sans-Serif" font-size="10.00">attribdescid.h</text>
</g>
<!-- Node2 -->
<g id="node3" class="node"><title>Node2</title>
<polygon fill="white" stroke="#bfbfbf" points="79.5,-174.5 79.5,-195.5 186.5,-195.5 186.5,-174.5 79.5,-174.5"/>
<text text-anchor="middle" x="133" y="-182.5" font-family="Helvetica,sans-Serif" font-size="10.00">attributeenginemod.h</text>
</g>
<!-- Node1&#45;&gt;Node2 -->
<g id="edge2" class="edge"><title>Node1&#45;&gt;Node2</title>
<path fill="none" stroke="midnightblue" d="M173.829,-232.362C166.852,-224.268 157.079,-212.932 148.844,-203.38"/>
<polygon fill="midnightblue" stroke="midnightblue" points="151.293,-200.859 142.113,-195.571 145.991,-205.43 151.293,-200.859"/>
</g>
<!-- Node3 -->
<g id="node5" class="node"><title>Node3</title>
<a xlink:href="gendefs_8h.html" target="_top" xlink:title="gendefs.h">
<polygon fill="white" stroke="black" points="203.5,-174.5 203.5,-195.5 262.5,-195.5 262.5,-174.5 203.5,-174.5"/>
<text text-anchor="middle" x="233" y="-182.5" font-family="Helvetica,sans-Serif" font-size="10.00">gendefs.h</text>
</a>
</g>
<!-- Node1&#45;&gt;Node3 -->
<g id="edge4" class="edge"><title>Node1&#45;&gt;Node3</title>
<path fill="none" stroke="midnightblue" d="M192.171,-232.362C199.148,-224.268 208.921,-212.932 217.156,-203.38"/>
<polygon fill="midnightblue" stroke="midnightblue" points="220.009,-205.43 223.887,-195.571 214.707,-200.859 220.009,-205.43"/>
</g>
<!-- Node4 -->
<g id="node7" class="node"><title>Node4</title>
<a xlink:href="undefval_8h.html" target="_top" xlink:title="undefval.h">
<polygon fill="white" stroke="black" points="110,-116.5 110,-137.5 172,-137.5 172,-116.5 110,-116.5"/>
<text text-anchor="middle" x="141" y="-124.5" font-family="Helvetica,sans-Serif" font-size="10.00">undefval.h</text>
</a>
</g>
<!-- Node3&#45;&gt;Node4 -->
<g id="edge6" class="edge"><title>Node3&#45;&gt;Node4</title>
<path fill="none" stroke="midnightblue" d="M216.126,-174.362C202.249,-165.614 182.366,-153.079 166.54,-143.101"/>
<polygon fill="midnightblue" stroke="midnightblue" points="168.093,-139.943 157.767,-137.571 164.36,-145.864 168.093,-139.943"/>
</g>
<!-- Node12 -->
<g id="node25" class="node"><title>Node12</title>
<a xlink:href="commontypes_8h.html" target="_top" xlink:title="commontypes.h">
<polygon fill="white" stroke="black" points="190,-116.5 190,-137.5 276,-137.5 276,-116.5 190,-116.5"/>
<text text-anchor="middle" x="233" y="-124.5" font-family="Helvetica,sans-Serif" font-size="10.00">commontypes.h</text>
</a>
</g>
<!-- Node3&#45;&gt;Node12 -->
<g id="edge26" class="edge"><title>Node3&#45;&gt;Node12</title>
<path fill="none" stroke="midnightblue" d="M233,-174.362C233,-166.922 233,-156.743 233,-147.728"/>
<polygon fill="midnightblue" stroke="midnightblue" points="236.5,-147.571 233,-137.571 229.5,-147.571 236.5,-147.571"/>
</g>
<!-- Node13 -->
<g id="node28" class="node"><title>Node13</title>
<a xlink:href="errmsg_8h.html" target="_top" xlink:title="errmsg.h">
<polygon fill="white" stroke="black" points="293.5,-116.5 293.5,-137.5 348.5,-137.5 348.5,-116.5 293.5,-116.5"/>
<text text-anchor="middle" x="321" y="-124.5" font-family="Helvetica,sans-Serif" font-size="10.00">errmsg.h</text>
</a>
</g>
<!-- Node3&#45;&gt;Node13 -->
<g id="edge30" class="edge"><title>Node3&#45;&gt;Node13</title>
<path fill="none" stroke="midnightblue" d="M249.141,-174.362C262.414,-165.614 281.432,-153.079 296.57,-143.101"/>
<polygon fill="midnightblue" stroke="midnightblue" points="298.538,-145.996 304.962,-137.571 294.686,-140.151 298.538,-145.996"/>
</g>
<!-- Node5 -->
<g id="node9" class="node"><title>Node5</title>
<polygon fill="white" stroke="#bfbfbf" points="137.5,-0.5 137.5,-21.5 204.5,-21.5 204.5,-0.5 137.5,-0.5"/>
<text text-anchor="middle" x="171" y="-8.5" font-family="Helvetica,sans-Serif" font-size="10.00">basicmod.h</text>
</g>
<!-- Node4&#45;&gt;Node5 -->
<g id="edge8" class="edge"><title>Node4&#45;&gt;Node5</title>
<path fill="none" stroke="midnightblue" d="M143.769,-116.295C148.747,-97.0451 159.287,-56.2889 165.696,-31.5091"/>
<polygon fill="midnightblue" stroke="midnightblue" points="169.123,-32.237 168.238,-21.6792 162.346,-30.4843 169.123,-32.237"/>
</g>
<!-- Node6 -->
<g id="node11" class="node"><title>Node6</title>
<a xlink:href="commondefs_8h.html" target="_top" xlink:title="commondefs.h">
<polygon fill="white" stroke="black" points="192.5,-58.5 192.5,-79.5 273.5,-79.5 273.5,-58.5 192.5,-58.5"/>
<text text-anchor="middle" x="233" y="-66.5" font-family="Helvetica,sans-Serif" font-size="10.00">commondefs.h</text>
</a>
</g>
<!-- Node4&#45;&gt;Node6 -->
<g id="edge10" class="edge"><title>Node4&#45;&gt;Node6</title>
<path fill="none" stroke="midnightblue" d="M157.874,-116.362C171.751,-107.614 191.634,-95.0786 207.46,-85.1015"/>
<polygon fill="midnightblue" stroke="midnightblue" points="209.64,-87.8645 216.233,-79.5707 205.907,-81.943 209.64,-87.8645"/>
</g>
<!-- Node10 -->
<g id="node20" class="node"><title>Node10</title>
<a xlink:href="plftypes_8h.html" target="_top" xlink:title="plftypes.h">
<polygon fill="white" stroke="black" points="63.5,-58.5 63.5,-79.5 122.5,-79.5 122.5,-58.5 63.5,-58.5"/>
<text text-anchor="middle" x="93" y="-66.5" font-family="Helvetica,sans-Serif" font-size="10.00">plftypes.h</text>
</a>
</g>
<!-- Node4&#45;&gt;Node10 -->
<g id="edge20" class="edge"><title>Node4&#45;&gt;Node10</title>
<path fill="none" stroke="midnightblue" d="M132.196,-116.362C125.498,-108.268 116.116,-96.9318 108.211,-87.3796"/>
<polygon fill="midnightblue" stroke="midnightblue" points="110.82,-85.0431 101.748,-79.5707 105.427,-89.5061 110.82,-85.0431"/>
</g>
<!-- Node6&#45;&gt;Node5 -->
<g id="edge12" class="edge"><title>Node6&#45;&gt;Node5</title>
<path fill="none" stroke="midnightblue" d="M221.628,-58.3619C212.714,-50.0226 200.121,-38.2418 189.724,-28.5162"/>
<polygon fill="midnightblue" stroke="midnightblue" points="191.993,-25.8463 182.3,-21.5707 187.211,-30.9582 191.993,-25.8463"/>
</g>
<!-- Node7 -->
<g id="node14" class="node"><title>Node7</title>
<a xlink:href="plfdefs_8h.html" target="_top" xlink:title="plfdefs.h">
<polygon fill="white" stroke="black" points="66,-0.5 66,-21.5 120,-21.5 120,-0.5 66,-0.5"/>
<text text-anchor="middle" x="93" y="-8.5" font-family="Helvetica,sans-Serif" font-size="10.00">plfdefs.h</text>
</a>
</g>
<!-- Node6&#45;&gt;Node7 -->
<g id="edge14" class="edge"><title>Node6&#45;&gt;Node7</title>
<path fill="none" stroke="midnightblue" d="M207.647,-58.4966C185.387,-49.2746 152.788,-35.7695 128.037,-25.5153"/>
<polygon fill="midnightblue" stroke="midnightblue" points="129.216,-22.2152 118.637,-21.6212 126.536,-28.6822 129.216,-22.2152"/>
</g>
<!-- Node8 -->
<g id="node16" class="node"><title>Node8</title>
<polygon fill="white" stroke="#bfbfbf" points="273.5,-0.5 273.5,-21.5 332.5,-21.5 332.5,-0.5 273.5,-0.5"/>
<text text-anchor="middle" x="303" y="-8.5" font-family="Helvetica,sans-Serif" font-size="10.00">stdexcept</text>
</g>
<!-- Node6&#45;&gt;Node8 -->
<g id="edge16" class="edge"><title>Node6&#45;&gt;Node8</title>
<path fill="none" stroke="midnightblue" d="M245.839,-58.3619C256.002,-49.9408 270.401,-38.0105 282.204,-28.2308"/>
<polygon fill="midnightblue" stroke="midnightblue" points="284.775,-30.6459 290.242,-21.5707 280.309,-25.2558 284.775,-30.6459"/>
</g>
<!-- Node9 -->
<g id="node18" class="node"><title>Node9</title>
<polygon fill="white" stroke="#bfbfbf" points="221.5,-0.5 221.5,-21.5 256.5,-21.5 256.5,-0.5 221.5,-0.5"/>
<text text-anchor="middle" x="239" y="-8.5" font-family="Helvetica,sans-Serif" font-size="10.00">new</text>
</g>
<!-- Node6&#45;&gt;Node9 -->
<g id="edge18" class="edge"><title>Node6&#45;&gt;Node9</title>
<path fill="none" stroke="midnightblue" d="M234.1,-58.3619C234.87,-50.9219 235.923,-40.7427 236.856,-31.7276"/>
<polygon fill="midnightblue" stroke="midnightblue" points="240.359,-31.8777 237.906,-21.5707 233.396,-31.1574 240.359,-31.8777"/>
</g>
<!-- Node10&#45;&gt;Node7 -->
<g id="edge22" class="edge"><title>Node10&#45;&gt;Node7</title>
<path fill="none" stroke="midnightblue" d="M93,-58.3619C93,-50.9219 93,-40.7427 93,-31.7276"/>
<polygon fill="midnightblue" stroke="midnightblue" points="96.5001,-31.5706 93,-21.5707 89.5001,-31.5707 96.5001,-31.5706"/>
</g>
<!-- Node11 -->
<g id="node23" class="node"><title>Node11</title>
<polygon fill="white" stroke="#bfbfbf" points="-0.5,-0.5 -0.5,-21.5 48.5,-21.5 48.5,-0.5 -0.5,-0.5"/>
<text text-anchor="middle" x="24" y="-8.5" font-family="Helvetica,sans-Serif" font-size="10.00">stdint.h</text>
</g>
<!-- Node10&#45;&gt;Node11 -->
<g id="edge24" class="edge"><title>Node10&#45;&gt;Node11</title>
<path fill="none" stroke="midnightblue" d="M80.3443,-58.3619C70.3261,-49.9408 56.1332,-38.0105 44.4987,-28.2308"/>
<polygon fill="midnightblue" stroke="midnightblue" points="46.4824,-25.326 36.5754,-21.5707 41.9782,-30.6844 46.4824,-25.326"/>
</g>
<!-- Node12&#45;&gt;Node6 -->
<g id="edge28" class="edge"><title>Node12&#45;&gt;Node6</title>
<path fill="none" stroke="midnightblue" d="M233,-116.362C233,-108.922 233,-98.7427 233,-89.7276"/>
<polygon fill="midnightblue" stroke="midnightblue" points="236.5,-89.5706 233,-79.5707 229.5,-89.5707 236.5,-89.5706"/>
</g>
<!-- Node13&#45;&gt;Node6 -->
<g id="edge32" class="edge"><title>Node13&#45;&gt;Node6</title>
<path fill="none" stroke="midnightblue" d="M304.859,-116.362C291.586,-107.614 272.568,-95.0786 257.43,-85.1015"/>
<polygon fill="midnightblue" stroke="midnightblue" points="259.314,-82.1515 249.038,-79.5707 255.462,-87.9962 259.314,-82.1515"/>
</g>
<!-- Node14 -->
<g id="node31" class="node"><title>Node14</title>
<polygon fill="white" stroke="#bfbfbf" points="295.5,-58.5 295.5,-79.5 346.5,-79.5 346.5,-58.5 295.5,-58.5"/>
<text text-anchor="middle" x="321" y="-66.5" font-family="Helvetica,sans-Serif" font-size="10.00">typeinfo</text>
</g>
<!-- Node13&#45;&gt;Node14 -->
<g id="edge34" class="edge"><title>Node13&#45;&gt;Node14</title>
<path fill="none" stroke="midnightblue" d="M321,-116.362C321,-108.922 321,-98.7427 321,-89.7276"/>
<polygon fill="midnightblue" stroke="midnightblue" points="324.5,-89.5706 321,-79.5707 317.5,-89.5707 324.5,-89.5706"/>
</g>
</g>
</svg>
