<?xml version="1.0" encoding="UTF-8" standalone="no"?>
<!DOCTYPE svg PUBLIC "-//W3C//DTD SVG 1.1//EN"
 "http://www.w3.org/Graphics/SVG/1.1/DTD/svg11.dtd">
<!-- Generated by graphviz version 2.26.0 (20091210.2329)
 -->
<!-- Title: attribprovider.h Pages: 1 -->
<svg width="3024pt" height="88pt"
 viewBox="0.00 0.00 3024.00 88.00" xmlns="http://www.w3.org/2000/svg" xmlns:xlink="http://www.w3.org/1999/xlink">
<g id="graph1" class="graph" transform="scale(1 1) rotate(0) translate(4 84)">
<title>attribprovider.h</title>
<polygon fill="white" stroke="white" points="-4,5 -4,-84 3021,-84 3021,5 -4,5"/>
<!-- Node1 -->
<g id="node1" class="node"><title>Node1</title>
<polygon fill="#bfbfbf" stroke="black" points="1484.5,-58.5 1484.5,-79.5 1565.5,-79.5 1565.5,-58.5 1484.5,-58.5"/>
<text text-anchor="middle" x="1525" y="-66.5" font-family="Helvetica,sans-Serif" font-size="10.00">attribprovider.h</text>
</g>
<!-- Node2 -->
<g id="node3" class="node"><title>Node2</title>
<a xlink:href="attribstorprovider_8h.html" target="_top" xlink:title="attribstorprovider.h">
<polygon fill="white" stroke="black" points="0,-0.5 0,-21.5 98,-21.5 98,-0.5 0,-0.5"/>
<text text-anchor="middle" x="49" y="-8.5" font-family="Helvetica,sans-Serif" font-size="10.00">attribstorprovider.h</text>
</a>
</g>
<!-- Node1&#45;&gt;Node2 -->
<g id="edge2" class="edge"><title>Node1&#45;&gt;Node2</title>
<path fill="none" stroke="midnightblue" d="M1473.92,-68.3641C1253.15,-65.4534 379.941,-52.2229 107,-22 104.148,-21.6842 101.226,-21.3058 98.2829,-20.8824"/>
<polygon fill="midnightblue" stroke="midnightblue" points="1474.19,-71.8679 1484.23,-68.4989 1474.28,-64.8685 1474.19,-71.8679"/>
</g>
<!-- Node3 -->
<g id="node5" class="node"><title>Node3</title>
<a xlink:href="volprocattrib_8h.html" target="_top" xlink:title="volprocattrib.h">
<polygon fill="white" stroke="black" points="116,-0.5 116,-21.5 194,-21.5 194,-0.5 116,-0.5"/>
<text text-anchor="middle" x="155" y="-8.5" font-family="Helvetica,sans-Serif" font-size="10.00">volprocattrib.h</text>
</a>
</g>
<!-- Node1&#45;&gt;Node3 -->
<g id="edge4" class="edge"><title>Node1&#45;&gt;Node3</title>
<path fill="none" stroke="midnightblue" d="M1474.27,-68.4835C1263.42,-66.138 455.619,-55.1314 203,-22 200.118,-21.622 197.155,-21.1504 194.183,-20.6167"/>
<polygon fill="midnightblue" stroke="midnightblue" points="1474.39,-71.9849 1484.43,-68.5949 1474.47,-64.9854 1474.39,-71.9849"/>
</g>
<!-- Node4 -->
<g id="node7" class="node"><title>Node4</title>
<a xlink:href="coherencyattrib_8h.html" target="_top" xlink:title="coherencyattrib.h">
<polygon fill="white" stroke="black" points="212,-0.5 212,-21.5 304,-21.5 304,-0.5 212,-0.5"/>
<text text-anchor="middle" x="258" y="-8.5" font-family="Helvetica,sans-Serif" font-size="10.00">coherencyattrib.h</text>
</a>
</g>
<!-- Node1&#45;&gt;Node4 -->
<g id="edge6" class="edge"><title>Node1&#45;&gt;Node4</title>
<path fill="none" stroke="midnightblue" d="M1473.99,-68.1013C1274.02,-64.4106 543.213,-49.31 313,-22 310.099,-21.6559 307.123,-21.2413 304.128,-20.7776"/>
<polygon fill="midnightblue" stroke="midnightblue" points="1474.15,-71.6046 1484.21,-68.2884 1474.27,-64.6058 1474.15,-71.6046"/>
</g>
<!-- Node5 -->
<g id="node9" class="node"><title>Node5</title>
<a xlink:href="convolveattrib_8h.html" target="_top" xlink:title="convolveattrib.h">
<polygon fill="white" stroke="black" points="322,-0.5 322,-21.5 408,-21.5 408,-0.5 322,-0.5"/>
<text text-anchor="middle" x="365" y="-8.5" font-family="Helvetica,sans-Serif" font-size="10.00">convolveattrib.h</text>
</a>
</g>
<!-- Node1&#45;&gt;Node5 -->
<g id="edge8" class="edge"><title>Node1&#45;&gt;Node5</title>
<path fill="none" stroke="midnightblue" d="M1474.06,-67.9635C1285.27,-63.9474 625.686,-48.3134 417,-22 414.07,-21.6306 411.061,-21.1817 408.037,-20.6789"/>
<polygon fill="midnightblue" stroke="midnightblue" points="1474.18,-71.4669 1484.26,-68.1789 1474.33,-64.4684 1474.18,-71.4669"/>
</g>
<!-- Node6 -->
<g id="node11" class="node"><title>Node6</title>
<a xlink:href="deltaresampleattrib_8h.html" target="_top" xlink:title="deltaresampleattrib.h">
<polygon fill="white" stroke="black" points="425.5,-0.5 425.5,-21.5 532.5,-21.5 532.5,-0.5 425.5,-0.5"/>
<text text-anchor="middle" x="479" y="-8.5" font-family="Helvetica,sans-Serif" font-size="10.00">deltaresampleattrib.h</text>
</a>
</g>
<!-- Node1&#45;&gt;Node6 -->
<g id="edge10" class="edge"><title>Node1&#45;&gt;Node6</title>
<path fill="none" stroke="midnightblue" d="M1474.09,-67.4302C1299.34,-61.9071 724.633,-42.5901 541,-22 538.284,-21.6955 535.507,-21.3455 532.707,-20.9619"/>
<polygon fill="midnightblue" stroke="midnightblue" points="1474.19,-70.9349 1484.29,-67.7514 1474.41,-63.9384 1474.19,-70.9349"/>
</g>
<!-- Node7 -->
<g id="node13" class="node"><title>Node7</title>
<a xlink:href="dipfilterattrib_8h.html" target="_top" xlink:title="dipfilterattrib.h">
<polygon fill="white" stroke="black" points="550,-0.5 550,-21.5 628,-21.5 628,-0.5 550,-0.5"/>
<text text-anchor="middle" x="589" y="-8.5" font-family="Helvetica,sans-Serif" font-size="10.00">dipfilterattrib.h</text>
</a>
</g>
<!-- Node1&#45;&gt;Node7 -->
<g id="edge12" class="edge"><title>Node1&#45;&gt;Node7</title>
<path fill="none" stroke="midnightblue" d="M1474.18,-67.4639C1310.86,-62.3456 800.539,-44.8924 637,-22 634.121,-21.597 631.161,-21.1071 628.19,-20.5603"/>
<polygon fill="midnightblue" stroke="midnightblue" points="1474.33,-70.97 1484.43,-67.7831 1474.54,-63.9734 1474.33,-70.97"/>
</g>
<!-- Node8 -->
<g id="node15" class="node"><title>Node8</title>
<a xlink:href="energyattrib_8h.html" target="_top" xlink:title="energyattrib.h">
<polygon fill="white" stroke="black" points="646,-0.5 646,-21.5 722,-21.5 722,-0.5 646,-0.5"/>
<text text-anchor="middle" x="684" y="-8.5" font-family="Helvetica,sans-Serif" font-size="10.00">energyattrib.h</text>
</a>
</g>
<!-- Node1&#45;&gt;Node8 -->
<g id="edge14" class="edge"><title>Node1&#45;&gt;Node8</title>
<path fill="none" stroke="midnightblue" d="M1473.78,-67.1135C1321.84,-61.3362 875.289,-42.9982 731,-22 728.097,-21.5776 725.11,-21.0651 722.115,-20.495"/>
<polygon fill="midnightblue" stroke="midnightblue" points="1474.08,-70.6272 1484.2,-67.5077 1474.34,-63.6322 1474.08,-70.6272"/>
</g>
<!-- Node9 -->
<g id="node17" class="node"><title>Node9</title>
<a xlink:href="evaluateattrib_8h.html" target="_top" xlink:title="evaluateattrib.h">
<polygon fill="white" stroke="black" points="739.5,-0.5 739.5,-21.5 822.5,-21.5 822.5,-0.5 739.5,-0.5"/>
<text text-anchor="middle" x="781" y="-8.5" font-family="Helvetica,sans-Serif" font-size="10.00">evaluateattrib.h</text>
</a>
</g>
<!-- Node1&#45;&gt;Node9 -->
<g id="edge16" class="edge"><title>Node1&#45;&gt;Node9</title>
<path fill="none" stroke="midnightblue" d="M1474.24,-68.1469C1359.2,-65.6503 1070.1,-56.2027 831,-22 828.272,-21.6098 825.472,-21.1528 822.657,-20.651"/>
<polygon fill="midnightblue" stroke="midnightblue" points="1474.42,-71.6515 1484.49,-68.361 1474.57,-64.653 1474.42,-71.6515"/>
</g>
<!-- Node10 -->
<g id="node19" class="node"><title>Node10</title>
<a xlink:href="eventattrib_8h.html" target="_top" xlink:title="eventattrib.h">
<polygon fill="white" stroke="black" points="839.5,-0.5 839.5,-21.5 910.5,-21.5 910.5,-0.5 839.5,-0.5"/>
<text text-anchor="middle" x="875" y="-8.5" font-family="Helvetica,sans-Serif" font-size="10.00">eventattrib.h</text>
</a>
</g>
<!-- Node1&#45;&gt;Node10 -->
<g id="edge18" class="edge"><title>Node1&#45;&gt;Node10</title>
<path fill="none" stroke="midnightblue" d="M1474.02,-67.9254C1369.36,-65.0878 1122.91,-55.1566 919,-22 916.358,-21.5703 913.641,-21.0608 910.916,-20.5001"/>
<polygon fill="midnightblue" stroke="midnightblue" points="1474.21,-71.4314 1484.3,-68.1934 1474.39,-64.4338 1474.21,-71.4314"/>
</g>
<!-- Node11 -->
<g id="node21" class="node"><title>Node11</title>
<a xlink:href="fingerprintattrib_8h.html" target="_top" xlink:title="fingerprintattrib.h">
<polygon fill="white" stroke="black" points="927.5,-0.5 927.5,-21.5 1016.5,-21.5 1016.5,-0.5 927.5,-0.5"/>
<text text-anchor="middle" x="972" y="-8.5" font-family="Helvetica,sans-Serif" font-size="10.00">fingerprintattrib.h</text>
</a>
</g>
<!-- Node1&#45;&gt;Node11 -->
<g id="edge20" class="edge"><title>Node1&#45;&gt;Node11</title>
<path fill="none" stroke="midnightblue" d="M1474.31,-66.0999C1383.75,-60.5041 1188.34,-46.5503 1025,-22 1022.31,-21.5949 1019.54,-21.1405 1016.76,-20.653"/>
<polygon fill="midnightblue" stroke="midnightblue" points="1474.11,-69.5942 1484.31,-66.7098 1474.54,-62.6072 1474.11,-69.5942"/>
</g>
<!-- Node12 -->
<g id="node23" class="node"><title>Node12</title>
<a xlink:href="freqfilterattrib_8h.html" target="_top" xlink:title="freqfilterattrib.h">
<polygon fill="white" stroke="black" points="1034,-0.5 1034,-21.5 1116,-21.5 1116,-0.5 1034,-0.5"/>
<text text-anchor="middle" x="1075" y="-8.5" font-family="Helvetica,sans-Serif" font-size="10.00">freqfilterattrib.h</text>
</a>
</g>
<!-- Node1&#45;&gt;Node12 -->
<g id="edge22" class="edge"><title>Node1&#45;&gt;Node12</title>
<path fill="none" stroke="midnightblue" d="M1473.94,-64.642C1397.67,-57.7626 1249.63,-42.9778 1125,-22 1122.11,-21.5132 1119.13,-20.969 1116.14,-20.3905"/>
<polygon fill="midnightblue" stroke="midnightblue" points="1473.94,-68.1562 1484.21,-65.5601 1474.56,-61.1839 1473.94,-68.1562"/>
</g>
<!-- Node13 -->
<g id="node25" class="node"><title>Node13</title>
<a xlink:href="frequencyattrib_8h.html" target="_top" xlink:title="frequencyattrib.h">
<polygon fill="white" stroke="black" points="1133.5,-0.5 1133.5,-21.5 1222.5,-21.5 1222.5,-0.5 1133.5,-0.5"/>
<text text-anchor="middle" x="1178" y="-8.5" font-family="Helvetica,sans-Serif" font-size="10.00">frequencyattrib.h</text>
</a>
</g>
<!-- Node1&#45;&gt;Node13 -->
<g id="edge24" class="edge"><title>Node1&#45;&gt;Node13</title>
<path fill="none" stroke="midnightblue" d="M1474.36,-61.63C1415.68,-52.9214 1316.13,-37.6302 1231,-22 1228.23,-21.4909 1225.38,-20.95 1222.5,-20.3919"/>
<polygon fill="midnightblue" stroke="midnightblue" points="1474.07,-65.1253 1484.48,-63.1261 1475.1,-58.2007 1474.07,-65.1253"/>
</g>
<!-- Node14 -->
<g id="node27" class="node"><title>Node14</title>
<a xlink:href="gapdeconattrib_8h.html" target="_top" xlink:title="gapdeconattrib.h">
<polygon fill="white" stroke="black" points="1239.5,-0.5 1239.5,-21.5 1328.5,-21.5 1328.5,-0.5 1239.5,-0.5"/>
<text text-anchor="middle" x="1284" y="-8.5" font-family="Helvetica,sans-Serif" font-size="10.00">gapdeconattrib.h</text>
</a>
</g>
<!-- Node1&#45;&gt;Node14 -->
<g id="edge26" class="edge"><title>Node1&#45;&gt;Node14</title>
<path fill="none" stroke="midnightblue" d="M1474.59,-56.8683C1431.12,-46.4072 1369,-31.457 1327.63,-21.5007"/>
<polygon fill="midnightblue" stroke="midnightblue" points="1473.85,-60.2896 1484.39,-59.2267 1475.49,-53.4839 1473.85,-60.2896"/>
</g>
<!-- Node15 -->
<g id="node29" class="node"><title>Node15</title>
<a xlink:href="hilbertattrib_8h.html" target="_top" xlink:title="hilbertattrib.h">
<polygon fill="white" stroke="black" points="1345.5,-0.5 1345.5,-21.5 1418.5,-21.5 1418.5,-0.5 1345.5,-0.5"/>
<text text-anchor="middle" x="1382" y="-8.5" font-family="Helvetica,sans-Serif" font-size="10.00">hilbertattrib.h</text>
</a>
</g>
<!-- Node1&#45;&gt;Node15 -->
<g id="edge28" class="edge"><title>Node1&#45;&gt;Node15</title>
<path fill="none" stroke="midnightblue" d="M1489.53,-54.6153C1464.32,-44.3889 1431.01,-30.8796 1408.19,-21.6212"/>
<polygon fill="midnightblue" stroke="midnightblue" points="1488.52,-57.9814 1499.1,-58.4966 1491.15,-51.4946 1488.52,-57.9814"/>
</g>
<!-- Node16 -->
<g id="node31" class="node"><title>Node16</title>
<a xlink:href="instantattrib_8h.html" target="_top" xlink:title="instantattrib.h">
<polygon fill="white" stroke="black" points="1436,-0.5 1436,-21.5 1512,-21.5 1512,-0.5 1436,-0.5"/>
<text text-anchor="middle" x="1474" y="-8.5" font-family="Helvetica,sans-Serif" font-size="10.00">instantattrib.h</text>
</a>
</g>
<!-- Node1&#45;&gt;Node16 -->
<g id="edge30" class="edge"><title>Node1&#45;&gt;Node16</title>
<path fill="none" stroke="midnightblue" d="M1509.02,-50.8299C1500.56,-41.2078 1490.47,-29.7282 1483.29,-21.5707"/>
<polygon fill="midnightblue" stroke="midnightblue" points="1506.41,-53.1634 1515.65,-58.3619 1511.67,-48.541 1506.41,-53.1634"/>
</g>
<!-- Node17 -->
<g id="node33" class="node"><title>Node17</title>
<a xlink:href="matchdeltaattrib_8h.html" target="_top" xlink:title="matchdeltaattrib.h">
<polygon fill="white" stroke="black" points="1529.5,-0.5 1529.5,-21.5 1624.5,-21.5 1624.5,-0.5 1529.5,-0.5"/>
<text text-anchor="middle" x="1577" y="-8.5" font-family="Helvetica,sans-Serif" font-size="10.00">matchdeltaattrib.h</text>
</a>
</g>
<!-- Node1&#45;&gt;Node17 -->
<g id="edge32" class="edge"><title>Node1&#45;&gt;Node17</title>
<path fill="none" stroke="midnightblue" d="M1541.29,-50.8299C1549.92,-41.2078 1560.21,-29.7282 1567.52,-21.5707"/>
<polygon fill="midnightblue" stroke="midnightblue" points="1538.61,-48.5798 1534.54,-58.3619 1543.82,-53.2526 1538.61,-48.5798"/>
</g>
<!-- Node18 -->
<g id="node35" class="node"><title>Node18</title>
<a xlink:href="mathattrib_8h.html" target="_top" xlink:title="mathattrib.h">
<polygon fill="white" stroke="black" points="1642,-0.5 1642,-21.5 1710,-21.5 1710,-0.5 1642,-0.5"/>
<text text-anchor="middle" x="1676" y="-8.5" font-family="Helvetica,sans-Serif" font-size="10.00">mathattrib.h</text>
</a>
</g>
<!-- Node1&#45;&gt;Node18 -->
<g id="edge34" class="edge"><title>Node1&#45;&gt;Node18</title>
<path fill="none" stroke="midnightblue" d="M1561.78,-54.8742C1588.57,-44.5819 1624.29,-30.862 1648.6,-21.5231"/>
<polygon fill="midnightblue" stroke="midnightblue" points="1560.43,-51.6437 1552.34,-58.4966 1562.94,-58.1782 1560.43,-51.6437"/>
</g>
<!-- Node19 -->
<g id="node37" class="node"><title>Node19</title>
<a xlink:href="positionattrib_8h.html" target="_top" xlink:title="positionattrib.h">
<polygon fill="white" stroke="black" points="1728,-0.5 1728,-21.5 1808,-21.5 1808,-0.5 1728,-0.5"/>
<text text-anchor="middle" x="1768" y="-8.5" font-family="Helvetica,sans-Serif" font-size="10.00">positionattrib.h</text>
</a>
</g>
<!-- Node1&#45;&gt;Node19 -->
<g id="edge36" class="edge"><title>Node1&#45;&gt;Node19</title>
<path fill="none" stroke="midnightblue" d="M1575.55,-56.9356C1620.66,-46.167 1685.87,-30.6022 1727.6,-20.6429"/>
<polygon fill="midnightblue" stroke="midnightblue" points="1574.59,-53.566 1565.67,-59.2921 1576.21,-60.3748 1574.59,-53.566"/>
</g>
<!-- Node20 -->
<g id="node39" class="node"><title>Node20</title>
<a xlink:href="prestackattrib_8h.html" target="_top" xlink:title="prestackattrib.h">
<polygon fill="white" stroke="black" points="1826,-0.5 1826,-21.5 1910,-21.5 1910,-0.5 1826,-0.5"/>
<text text-anchor="middle" x="1868" y="-8.5" font-family="Helvetica,sans-Serif" font-size="10.00">prestackattrib.h</text>
</a>
</g>
<!-- Node1&#45;&gt;Node20 -->
<g id="edge38" class="edge"><title>Node1&#45;&gt;Node20</title>
<path fill="none" stroke="midnightblue" d="M1575.81,-61.6542C1634.17,-53.023 1732.74,-37.8561 1817,-22 1819.85,-21.464 1822.78,-20.89 1825.73,-20.2961"/>
<polygon fill="midnightblue" stroke="midnightblue" points="1575.13,-58.2169 1565.74,-63.1369 1576.15,-65.1422 1575.13,-58.2169"/>
</g>
<!-- Node21 -->
<g id="node41" class="node"><title>Node21</title>
<a xlink:href="referenceattrib_8h.html" target="_top" xlink:title="referenceattrib.h">
<polygon fill="white" stroke="black" points="1927.5,-0.5 1927.5,-21.5 2014.5,-21.5 2014.5,-0.5 1927.5,-0.5"/>
<text text-anchor="middle" x="1971" y="-8.5" font-family="Helvetica,sans-Serif" font-size="10.00">referenceattrib.h</text>
</a>
</g>
<!-- Node1&#45;&gt;Node21 -->
<g id="edge40" class="edge"><title>Node1&#45;&gt;Node21</title>
<path fill="none" stroke="midnightblue" d="M1575.87,-64.4044C1651.13,-57.2723 1796.47,-42.2257 1919,-22 1921.73,-21.5491 1924.54,-21.0529 1927.36,-20.5281"/>
<polygon fill="midnightblue" stroke="midnightblue" points="1575.35,-60.9375 1565.72,-65.358 1576.01,-67.9068 1575.35,-60.9375"/>
</g>
<!-- Node22 -->
<g id="node43" class="node"><title>Node22</title>
<a xlink:href="reliefattrib_8h.html" target="_top" xlink:title="reliefattrib.h">
<polygon fill="white" stroke="black" points="2032,-0.5 2032,-21.5 2100,-21.5 2100,-0.5 2032,-0.5"/>
<text text-anchor="middle" x="2066" y="-8.5" font-family="Helvetica,sans-Serif" font-size="10.00">reliefattrib.h</text>
</a>
</g>
<!-- Node1&#45;&gt;Node22 -->
<g id="edge42" class="edge"><title>Node1&#45;&gt;Node22</title>
<path fill="none" stroke="midnightblue" d="M1575.88,-66.8268C1666.39,-62.3781 1861.08,-50.1738 2023,-22 2025.88,-21.4981 2028.86,-20.9028 2031.84,-20.2529"/>
<polygon fill="midnightblue" stroke="midnightblue" points="1575.45,-63.3434 1565.63,-67.3193 1575.79,-70.3354 1575.45,-63.3434"/>
</g>
<!-- Node23 -->
<g id="node45" class="node"><title>Node23</title>
<a xlink:href="samplevalueattrib_8h.html" target="_top" xlink:title="samplevalueattrib.h">
<polygon fill="white" stroke="black" points="2117.5,-0.5 2117.5,-21.5 2218.5,-21.5 2218.5,-0.5 2117.5,-0.5"/>
<text text-anchor="middle" x="2168" y="-8.5" font-family="Helvetica,sans-Serif" font-size="10.00">samplevalueattrib.h</text>
</a>
</g>
<!-- Node1&#45;&gt;Node23 -->
<g id="edge44" class="edge"><title>Node1&#45;&gt;Node23</title>
<path fill="none" stroke="midnightblue" d="M1575.79,-66.6935C1677.39,-61.6868 1912.78,-48.116 2109,-22 2111.69,-21.6426 2114.43,-21.2443 2117.21,-20.8172"/>
<polygon fill="midnightblue" stroke="midnightblue" points="1575.33,-63.2116 1565.51,-67.1931 1575.67,-70.2034 1575.33,-63.2116"/>
</g>
<!-- Node24 -->
<g id="node47" class="node"><title>Node24</title>
<a xlink:href="scalingattrib_8h.html" target="_top" xlink:title="scalingattrib.h">
<polygon fill="white" stroke="black" points="2235.5,-0.5 2235.5,-21.5 2312.5,-21.5 2312.5,-0.5 2235.5,-0.5"/>
<text text-anchor="middle" x="2274" y="-8.5" font-family="Helvetica,sans-Serif" font-size="10.00">scalingattrib.h</text>
</a>
</g>
<!-- Node1&#45;&gt;Node24 -->
<g id="edge46" class="edge"><title>Node1&#45;&gt;Node24</title>
<path fill="none" stroke="midnightblue" d="M1575.61,-68.4344C1691.51,-66.5245 1984.84,-58.1966 2227,-22 2229.74,-21.5912 2232.55,-21.105 2235.37,-20.5681"/>
<polygon fill="midnightblue" stroke="midnightblue" points="1575.55,-64.9347 1565.61,-68.5903 1575.66,-71.9339 1575.55,-64.9347"/>
</g>
<!-- Node25 -->
<g id="node49" class="node"><title>Node25</title>
<a xlink:href="semblanceattrib_8h.html" target="_top" xlink:title="semblanceattrib.h">
<polygon fill="white" stroke="black" points="2330,-0.5 2330,-21.5 2424,-21.5 2424,-0.5 2330,-0.5"/>
<text text-anchor="middle" x="2377" y="-8.5" font-family="Helvetica,sans-Serif" font-size="10.00">semblanceattrib.h</text>
</a>
</g>
<!-- Node1&#45;&gt;Node25 -->
<g id="edge48" class="edge"><title>Node1&#45;&gt;Node25</title>
<path fill="none" stroke="midnightblue" d="M1575.93,-68.3723C1702.48,-66.2967 2041.16,-57.5805 2321,-22 2323.85,-21.6376 2326.77,-21.2161 2329.72,-20.7536"/>
<polygon fill="midnightblue" stroke="midnightblue" points="1575.71,-64.8752 1565.77,-68.532 1575.82,-71.8743 1575.71,-64.8752"/>
</g>
<!-- Node26 -->
<g id="node51" class="node"><title>Node26</title>
<a xlink:href="shiftattrib_8h.html" target="_top" xlink:title="shiftattrib.h">
<polygon fill="white" stroke="black" points="2441.5,-0.5 2441.5,-21.5 2506.5,-21.5 2506.5,-0.5 2441.5,-0.5"/>
<text text-anchor="middle" x="2474" y="-8.5" font-family="Helvetica,sans-Serif" font-size="10.00">shiftattrib.h</text>
</a>
</g>
<!-- Node1&#45;&gt;Node26 -->
<g id="edge50" class="edge"><title>Node1&#45;&gt;Node26</title>
<path fill="none" stroke="midnightblue" d="M1576.14,-67.7687C1742.32,-63.5456 2265.95,-48.4311 2433,-22 2435.77,-21.5623 2438.61,-21.0123 2441.46,-20.3927"/>
<polygon fill="midnightblue" stroke="midnightblue" points="1575.63,-64.2804 1565.72,-68.0312 1575.81,-71.2782 1575.63,-64.2804"/>
</g>
<!-- Node27 -->
<g id="node53" class="node"><title>Node27</title>
<a xlink:href="similarityattrib_8h.html" target="_top" xlink:title="similarityattrib.h">
<polygon fill="white" stroke="black" points="2524,-0.5 2524,-21.5 2610,-21.5 2610,-0.5 2524,-0.5"/>
<text text-anchor="middle" x="2567" y="-8.5" font-family="Helvetica,sans-Serif" font-size="10.00">similarityattrib.h</text>
</a>
</g>
<!-- Node1&#45;&gt;Node27 -->
<g id="edge52" class="edge"><title>Node1&#45;&gt;Node27</title>
<path fill="none" stroke="midnightblue" d="M1575.95,-67.6668C1751.49,-62.9034 2330.51,-45.7359 2515,-22 2517.93,-21.6232 2520.94,-21.1687 2523.96,-20.6619"/>
<polygon fill="midnightblue" stroke="midnightblue" points="1575.6,-64.1747 1565.7,-67.9431 1575.79,-71.1722 1575.6,-64.1747"/>
</g>
<!-- Node28 -->
<g id="node55" class="node"><title>Node28</title>
<a xlink:href="specdecompattrib_8h.html" target="_top" xlink:title="specdecompattrib.h">
<polygon fill="white" stroke="black" points="2628,-0.5 2628,-21.5 2730,-21.5 2730,-0.5 2628,-0.5"/>
<text text-anchor="middle" x="2679" y="-8.5" font-family="Helvetica,sans-Serif" font-size="10.00">specdecompattrib.h</text>
</a>
</g>
<!-- Node1&#45;&gt;Node28 -->
<g id="edge54" class="edge"><title>Node1&#45;&gt;Node28</title>
<path fill="none" stroke="midnightblue" d="M1575.59,-67.7576C1762.33,-63.0264 2412.73,-45.2254 2619,-22 2621.84,-21.6801 2624.75,-21.3052 2627.68,-20.8907"/>
<polygon fill="midnightblue" stroke="midnightblue" points="1575.41,-64.2609 1565.5,-68.0118 1575.59,-71.2587 1575.41,-64.2609"/>
</g>
<!-- Node29 -->
<g id="node57" class="node"><title>Node29</title>
<a xlink:href="textureattrib_8h.html" target="_top" xlink:title="textureattrib.h">
<polygon fill="white" stroke="black" points="2747.5,-0.5 2747.5,-21.5 2824.5,-21.5 2824.5,-0.5 2747.5,-0.5"/>
<text text-anchor="middle" x="2786" y="-8.5" font-family="Helvetica,sans-Serif" font-size="10.00">textureattrib.h</text>
</a>
</g>
<!-- Node1&#45;&gt;Node29 -->
<g id="edge56" class="edge"><title>Node1&#45;&gt;Node29</title>
<path fill="none" stroke="midnightblue" d="M1575.79,-68.3281C1775.71,-65.4826 2508.75,-53.1094 2739,-22 2741.74,-21.6297 2744.56,-21.1721 2747.38,-20.6558"/>
<polygon fill="midnightblue" stroke="midnightblue" points="1575.52,-64.8314 1565.57,-68.4717 1575.62,-71.8307 1575.52,-64.8314"/>
</g>
<!-- Node30 -->
<g id="node59" class="node"><title>Node30</title>
<a xlink:href="volstatsattrib_8h.html" target="_top" xlink:title="volstatsattrib.h">
<polygon fill="white" stroke="black" points="2841.5,-0.5 2841.5,-21.5 2922.5,-21.5 2922.5,-0.5 2841.5,-0.5"/>
<text text-anchor="middle" x="2882" y="-8.5" font-family="Helvetica,sans-Serif" font-size="10.00">volstatsattrib.h</text>
</a>
</g>
<!-- Node1&#45;&gt;Node30 -->
<g id="edge58" class="edge"><title>Node1&#45;&gt;Node30</title>
<path fill="none" stroke="midnightblue" d="M1575.89,-68.4292C1785.56,-65.8832 2583.26,-54.2367 2833,-22 2835.77,-21.6428 2838.61,-21.2031 2841.46,-20.707"/>
<polygon fill="midnightblue" stroke="midnightblue" points="1575.73,-64.9307 1565.78,-68.5505 1575.82,-71.9302 1575.73,-64.9307"/>
</g>
<!-- Node31 -->
<g id="node61" class="node"><title>Node31</title>
<a xlink:href="welllogattrib_8h.html" target="_top" xlink:title="welllogattrib.h">
<polygon fill="white" stroke="black" points="2939.5,-0.5 2939.5,-21.5 3016.5,-21.5 3016.5,-0.5 2939.5,-0.5"/>
<text text-anchor="middle" x="2978" y="-8.5" font-family="Helvetica,sans-Serif" font-size="10.00">welllogattrib.h</text>
</a>
</g>
<!-- Node1&#45;&gt;Node31 -->
<g id="edge60" class="edge"><title>Node1&#45;&gt;Node31</title>
<path fill="none" stroke="midnightblue" d="M1576.05,-68.637C1795.68,-66.8684 2661.22,-57.7262 2931,-22 2933.74,-21.6369 2936.56,-21.1847 2939.38,-20.6723"/>
<polygon fill="midnightblue" stroke="midnightblue" points="1575.76,-65.1391 1565.78,-68.718 1575.81,-72.1389 1575.76,-65.1391"/>
</g>
</g>
</svg>
