<?xml version="1.0" encoding="UTF-8" standalone="no"?>
<!DOCTYPE svg PUBLIC "-//W3C//DTD SVG 1.1//EN"
 "http://www.w3.org/Graphics/SVG/1.1/DTD/svg11.dtd">
<!-- Generated by graphviz version 2.26.0 (20091210.2329)
 -->
<!-- Title: attribparambase.h Pages: 1 -->
<svg width="202pt" height="146pt"
 viewBox="0.00 0.00 202.00 146.00" xmlns="http://www.w3.org/2000/svg" xmlns:xlink="http://www.w3.org/1999/xlink">
<g id="graph1" class="graph" transform="scale(1 1) rotate(0) translate(4 142)">
<title>attribparambase.h</title>
<polygon fill="white" stroke="white" points="-4,5 -4,-142 199,-142 199,5 -4,5"/>
<!-- Node1 -->
<g id="node1" class="node"><title>Node1</title>
<polygon fill="#bfbfbf" stroke="black" points="54.5,-116.5 54.5,-137.5 149.5,-137.5 149.5,-116.5 54.5,-116.5"/>
<text text-anchor="middle" x="102" y="-124.5" font-family="Helvetica,sans-Serif" font-size="10.00">attribparambase.h</text>
</g>
<!-- Node2 -->
<g id="node3" class="node"><title>Node2</title>
<a xlink:href="attribparam_8h.html" target="_top" xlink:title="attribparam.h">
<polygon fill="white" stroke="black" points="65,-58.5 65,-79.5 139,-79.5 139,-58.5 65,-58.5"/>
<text text-anchor="middle" x="102" y="-66.5" font-family="Helvetica,sans-Serif" font-size="10.00">attribparam.h</text>
</a>
</g>
<!-- Node1&#45;&gt;Node2 -->
<g id="edge2" class="edge"><title>Node1&#45;&gt;Node2</title>
<path fill="none" stroke="midnightblue" d="M102,-106.191C102,-97.1684 102,-86.9941 102,-79.5707"/>
<polygon fill="midnightblue" stroke="midnightblue" points="98.5001,-106.362 102,-116.362 105.5,-106.362 98.5001,-106.362"/>
</g>
<!-- Node3 -->
<g id="node5" class="node"><title>Node3</title>
<a xlink:href="attribparamgroup_8h.html" target="_top" xlink:title="attribparamgroup.h">
<polygon fill="white" stroke="black" points="0,-0.5 0,-21.5 98,-21.5 98,-0.5 0,-0.5"/>
<text text-anchor="middle" x="49" y="-8.5" font-family="Helvetica,sans-Serif" font-size="10.00">attribparamgroup.h</text>
</a>
</g>
<!-- Node2&#45;&gt;Node3 -->
<g id="edge4" class="edge"><title>Node2&#45;&gt;Node3</title>
<path fill="none" stroke="midnightblue" d="M85.3963,-50.8299C76.6037,-41.2078 66.1137,-29.7282 58.6594,-21.5707"/>
<polygon fill="midnightblue" stroke="midnightblue" points="82.9495,-53.3408 92.279,-58.3619 88.117,-48.6188 82.9495,-53.3408"/>
</g>
<!-- Node4 -->
<g id="node7" class="node"><title>Node4</title>
<a xlink:href="volprocattrib_8h.html" target="_top" xlink:title="volprocattrib.h">
<polygon fill="white" stroke="black" points="116,-0.5 116,-21.5 194,-21.5 194,-0.5 116,-0.5"/>
<text text-anchor="middle" x="155" y="-8.5" font-family="Helvetica,sans-Serif" font-size="10.00">volprocattrib.h</text>
</a>
</g>
<!-- Node2&#45;&gt;Node4 -->
<g id="edge6" class="edge"><title>Node2&#45;&gt;Node4</title>
<path fill="none" stroke="midnightblue" d="M118.604,-50.8299C127.396,-41.2078 137.886,-29.7282 145.341,-21.5707"/>
<polygon fill="midnightblue" stroke="midnightblue" points="115.883,-48.6188 111.721,-58.3619 121.051,-53.3408 115.883,-48.6188"/>
</g>
</g>
</svg>
