<?xml version="1.0" encoding="UTF-8" standalone="no"?>
<!DOCTYPE svg PUBLIC "-//W3C//DTD SVG 1.1//EN"
 "http://www.w3.org/Graphics/SVG/1.1/DTD/svg11.dtd">
<!-- Generated by graphviz version 2.26.0 (20091210.2329)
 -->
<!-- Title: bodyvolumecalc.h Pages: 1 -->
<svg width="1060pt" height="900pt"
 viewBox="0.00 0.00 1060.00 900.00" xmlns="http://www.w3.org/2000/svg" xmlns:xlink="http://www.w3.org/1999/xlink">
<g id="graph1" class="graph" transform="scale(1 1) rotate(0) translate(4 896)">
<title>bodyvolumecalc.h</title>
<polygon fill="white" stroke="white" points="-4,5 -4,-896 1057,-896 1057,5 -4,5"/>
<!-- Node1 -->
<g id="node1" class="node"><title>Node1</title>
<polygon fill="#bfbfbf" stroke="black" points="26.5,-870.5 26.5,-891.5 121.5,-891.5 121.5,-870.5 26.5,-870.5"/>
<text text-anchor="middle" x="74" y="-878.5" font-family="Helvetica,sans-Serif" font-size="10.00">bodyvolumecalc.h</text>
</g>
<!-- Node2 -->
<g id="node3" class="node"><title>Node2</title>
<polygon fill="white" stroke="#bfbfbf" points="0,-812.5 0,-833.5 62,-833.5 62,-812.5 0,-812.5"/>
<text text-anchor="middle" x="31" y="-820.5" font-family="Helvetica,sans-Serif" font-size="10.00">algomod.h</text>
</g>
<!-- Node1&#45;&gt;Node2 -->
<g id="edge2" class="edge"><title>Node1&#45;&gt;Node2</title>
<path fill="none" stroke="midnightblue" d="M66.1131,-870.362C60.173,-862.35 51.8776,-851.161 44.8412,-841.67"/>
<polygon fill="midnightblue" stroke="midnightblue" points="47.6041,-839.519 38.8369,-833.571 41.9809,-843.688 47.6041,-839.519"/>
</g>
<!-- Node3 -->
<g id="node5" class="node"><title>Node3</title>
<a xlink:href="paralleltask_8h.html" target="_top" xlink:title="paralleltask.h">
<polygon fill="white" stroke="black" points="80,-812.5 80,-833.5 154,-833.5 154,-812.5 80,-812.5"/>
<text text-anchor="middle" x="117" y="-820.5" font-family="Helvetica,sans-Serif" font-size="10.00">paralleltask.h</text>
</a>
</g>
<!-- Node1&#45;&gt;Node3 -->
<g id="edge4" class="edge"><title>Node1&#45;&gt;Node3</title>
<path fill="none" stroke="midnightblue" d="M81.8869,-870.362C87.827,-862.35 96.1224,-851.161 103.159,-841.67"/>
<polygon fill="midnightblue" stroke="midnightblue" points="106.019,-843.688 109.163,-833.571 100.396,-839.519 106.019,-843.688"/>
</g>
<!-- Node4 -->
<g id="node7" class="node"><title>Node4</title>
<polygon fill="white" stroke="#bfbfbf" points="376.5,-0.5 376.5,-21.5 443.5,-21.5 443.5,-0.5 376.5,-0.5"/>
<text text-anchor="middle" x="410" y="-8.5" font-family="Helvetica,sans-Serif" font-size="10.00">basicmod.h</text>
</g>
<!-- Node3&#45;&gt;Node4 -->
<g id="edge6" class="edge"><title>Node3&#45;&gt;Node4</title>
<path fill="none" stroke="midnightblue" d="M110.895,-812.191C100.153,-792.127 79,-747.477 79,-707 79,-707 79,-707 79,-127 79,-81.7059 113.468,-78.2163 154,-58 190.581,-39.7547 303.325,-23.8229 366.304,-16.0479"/>
<polygon fill="midnightblue" stroke="midnightblue" points="366.834,-19.5092 376.338,-14.8262 365.988,-12.5606 366.834,-19.5092"/>
</g>
<!-- Node5 -->
<g id="node9" class="node"><title>Node5</title>
<a xlink:href="task_8h.html" target="_top" xlink:title="task.h">
<polygon fill="white" stroke="black" points="485,-754.5 485,-775.5 529,-775.5 529,-754.5 485,-754.5"/>
<text text-anchor="middle" x="507" y="-762.5" font-family="Helvetica,sans-Serif" font-size="10.00">task.h</text>
</a>
</g>
<!-- Node3&#45;&gt;Node5 -->
<g id="edge8" class="edge"><title>Node3&#45;&gt;Node5</title>
<path fill="none" stroke="midnightblue" d="M154.042,-817.491C230,-806.195 402.306,-780.57 474.364,-769.854"/>
<polygon fill="midnightblue" stroke="midnightblue" points="475.266,-773.258 484.642,-768.325 474.236,-766.334 475.266,-773.258"/>
</g>
<!-- Node9 -->
<g id="node20" class="node"><title>Node9</title>
<a xlink:href="atomic_8h.html" target="_top" xlink:title="atomic.h">
<polygon fill="white" stroke="black" points="313,-116.5 313,-137.5 367,-137.5 367,-116.5 313,-116.5"/>
<text text-anchor="middle" x="340" y="-124.5" font-family="Helvetica,sans-Serif" font-size="10.00">atomic.h</text>
</a>
</g>
<!-- Node3&#45;&gt;Node9 -->
<g id="edge150" class="edge"><title>Node3&#45;&gt;Node9</title>
<path fill="none" stroke="midnightblue" d="M117,-812.444C117,-792.062 117,-745.868 117,-707 117,-707 117,-707 117,-649 117,-560.891 212,-563.109 212,-475 212,-475 212,-475 212,-301 212,-231.563 278.959,-171.547 316.018,-143.648"/>
<polygon fill="midnightblue" stroke="midnightblue" points="318.312,-146.306 324.305,-137.569 314.171,-140.662 318.312,-146.306"/>
</g>
<!-- Node5&#45;&gt;Node4 -->
<g id="edge10" class="edge"><title>Node5&#45;&gt;Node4</title>
<path fill="none" stroke="midnightblue" d="M484.967,-763.43C448.276,-759.989 373.327,-749.392 319,-718 201.938,-650.358 136,-610.2 136,-475 136,-475 136,-475 136,-127 136,-86.9383 159.701,-78.701 194,-58 222.552,-40.7672 311.892,-25.2705 366.322,-17.0954"/>
<polygon fill="midnightblue" stroke="midnightblue" points="367.005,-20.5325 376.385,-15.6074 365.981,-13.6078 367.005,-20.5325"/>
</g>
<!-- Node6 -->
<g id="node12" class="node"><title>Node6</title>
<a xlink:href="namedobj_8h.html" target="_top" xlink:title="namedobj.h">
<polygon fill="white" stroke="black" points="327.5,-696.5 327.5,-717.5 394.5,-717.5 394.5,-696.5 327.5,-696.5"/>
<text text-anchor="middle" x="361" y="-704.5" font-family="Helvetica,sans-Serif" font-size="10.00">namedobj.h</text>
</a>
</g>
<!-- Node5&#45;&gt;Node6 -->
<g id="edge12" class="edge"><title>Node5&#45;&gt;Node6</title>
<path fill="none" stroke="midnightblue" d="M484.826,-756.191C461.594,-746.962 424.727,-732.316 397.254,-721.402"/>
<polygon fill="midnightblue" stroke="midnightblue" points="398.185,-718.006 387.6,-717.567 395.601,-724.512 398.185,-718.006"/>
</g>
<!-- Node17 -->
<g id="node39" class="node"><title>Node17</title>
<a xlink:href="objectset_8h.html" target="_top" xlink:title="objectset.h">
<polygon fill="white" stroke="black" points="555.5,-522.5 555.5,-543.5 620.5,-543.5 620.5,-522.5 555.5,-522.5"/>
<text text-anchor="middle" x="588" y="-530.5" font-family="Helvetica,sans-Serif" font-size="10.00">objectset.h</text>
</a>
</g>
<!-- Node5&#45;&gt;Node17 -->
<g id="edge130" class="edge"><title>Node5&#45;&gt;Node17</title>
<path fill="none" stroke="midnightblue" d="M510.691,-754.429C523.236,-718.497 564.372,-600.674 580.967,-553.145"/>
<polygon fill="midnightblue" stroke="midnightblue" points="584.296,-554.228 584.287,-543.634 577.687,-551.921 584.296,-554.228"/>
</g>
<!-- Node36 -->
<g id="node96" class="node"><title>Node36</title>
<a xlink:href="threadlock_8h.html" target="_top" xlink:title="threadlock.h">
<polygon fill="white" stroke="black" points="867,-290.5 867,-311.5 937,-311.5 937,-290.5 867,-290.5"/>
<text text-anchor="middle" x="902" y="-298.5" font-family="Helvetica,sans-Serif" font-size="10.00">threadlock.h</text>
</a>
</g>
<!-- Node5&#45;&gt;Node36 -->
<g id="edge132" class="edge"><title>Node5&#45;&gt;Node36</title>
<path fill="none" stroke="midnightblue" d="M529.086,-764.374C622.204,-761.147 978,-742.688 978,-649 978,-649 978,-649 978,-417 978,-376.51 945.203,-339.158 922.698,-318.295"/>
<polygon fill="midnightblue" stroke="midnightblue" points="925.026,-315.681 915.238,-311.625 920.36,-320.899 925.026,-315.681"/>
</g>
<!-- Node37 -->
<g id="node104" class="node"><title>Node37</title>
<a xlink:href="uistring_8h.html" target="_top" xlink:title="uistring.h">
<polygon fill="white" stroke="black" points="760,-580.5 760,-601.5 816,-601.5 816,-580.5 760,-580.5"/>
<text text-anchor="middle" x="788" y="-588.5" font-family="Helvetica,sans-Serif" font-size="10.00">uistring.h</text>
</a>
</g>
<!-- Node5&#45;&gt;Node37 -->
<g id="edge134" class="edge"><title>Node5&#45;&gt;Node37</title>
<path fill="none" stroke="midnightblue" d="M527.663,-754.464C545.465,-745.239 571.732,-731.271 594,-718 656.8,-680.571 728.131,-632.333 764.285,-607.458"/>
<polygon fill="midnightblue" stroke="midnightblue" points="766.448,-610.218 772.691,-601.658 762.473,-604.456 766.448,-610.218"/>
</g>
<!-- Node6&#45;&gt;Node4 -->
<g id="edge14" class="edge"><title>Node6&#45;&gt;Node4</title>
<path fill="none" stroke="midnightblue" d="M342.729,-696.315C295.675,-667.268 174,-581.828 174,-475 174,-475 174,-475 174,-127 174,-86.9383 198.164,-79.4488 232,-58 273.084,-31.9567 328.23,-20.2676 366.197,-15.0701"/>
<polygon fill="midnightblue" stroke="midnightblue" points="366.946,-18.5032 376.424,-13.7698 366.063,-11.5591 366.946,-18.5032"/>
</g>
<!-- Node7 -->
<g id="node15" class="node"><title>Node7</title>
<a xlink:href="callback_8h.html" target="_top" xlink:title="callback.h">
<polygon fill="white" stroke="black" points="433.5,-638.5 433.5,-659.5 494.5,-659.5 494.5,-638.5 433.5,-638.5"/>
<text text-anchor="middle" x="464" y="-646.5" font-family="Helvetica,sans-Serif" font-size="10.00">callback.h</text>
</a>
</g>
<!-- Node6&#45;&gt;Node7 -->
<g id="edge16" class="edge"><title>Node6&#45;&gt;Node7</title>
<path fill="none" stroke="midnightblue" d="M379.892,-696.362C395.718,-687.45 418.523,-674.609 436.395,-664.545"/>
<polygon fill="midnightblue" stroke="midnightblue" points="438.232,-667.527 445.228,-659.571 434.797,-661.428 438.232,-667.527"/>
</g>
<!-- Node26 -->
<g id="node64" class="node"><title>Node26</title>
<a xlink:href="bufstring_8h.html" target="_top" xlink:title="bufstring.h">
<polygon fill="white" stroke="black" points="354,-348.5 354,-369.5 416,-369.5 416,-348.5 354,-348.5"/>
<text text-anchor="middle" x="385" y="-356.5" font-family="Helvetica,sans-Serif" font-size="10.00">bufstring.h</text>
</a>
</g>
<!-- Node6&#45;&gt;Node26 -->
<g id="edge128" class="edge"><title>Node6&#45;&gt;Node26</title>
<path fill="none" stroke="midnightblue" d="M348.284,-696.263C327.369,-677.325 288,-635.734 288,-591 288,-591 288,-591 288,-475 288,-430.987 329.604,-394.87 358.318,-375.184"/>
<polygon fill="midnightblue" stroke="midnightblue" points="360.34,-378.043 366.755,-369.612 356.482,-372.202 360.34,-378.043"/>
</g>
<!-- Node7&#45;&gt;Node4 -->
<g id="edge18" class="edge"><title>Node7&#45;&gt;Node4</title>
<path fill="none" stroke="midnightblue" d="M433.339,-639.975C374.166,-620.456 250,-568.374 250,-475 250,-475 250,-475 250,-301 250,-192.992 182.03,-139.419 253,-58 267.908,-40.897 325.175,-26.8626 366.236,-18.7113"/>
<polygon fill="midnightblue" stroke="midnightblue" points="367.137,-22.1021 376.291,-16.7674 365.808,-15.2293 367.137,-22.1021"/>
</g>
<!-- Node8 -->
<g id="node18" class="node"><title>Node8</title>
<a xlink:href="refcount_8h.html" target="_top" xlink:title="refcount.h">
<polygon fill="white" stroke="black" points="492,-580.5 492,-601.5 552,-601.5 552,-580.5 492,-580.5"/>
<text text-anchor="middle" x="522" y="-588.5" font-family="Helvetica,sans-Serif" font-size="10.00">refcount.h</text>
</a>
</g>
<!-- Node7&#45;&gt;Node8 -->
<g id="edge20" class="edge"><title>Node7&#45;&gt;Node8</title>
<path fill="none" stroke="midnightblue" d="M474.638,-638.362C482.896,-630.104 494.528,-618.472 504.197,-608.803"/>
<polygon fill="midnightblue" stroke="midnightblue" points="506.833,-611.117 511.429,-601.571 501.883,-606.167 506.833,-611.117"/>
</g>
<!-- Node34 -->
<g id="node89" class="node"><title>Node34</title>
<a xlink:href="sets_8h.html" target="_top" xlink:title="sets.h">
<polygon fill="white" stroke="black" points="608,-580.5 608,-601.5 652,-601.5 652,-580.5 608,-580.5"/>
<text text-anchor="middle" x="630" y="-588.5" font-family="Helvetica,sans-Serif" font-size="10.00">sets.h</text>
</a>
</g>
<!-- Node7&#45;&gt;Node34 -->
<g id="edge110" class="edge"><title>Node7&#45;&gt;Node34</title>
<path fill="none" stroke="midnightblue" d="M494.061,-638.497C523.525,-628.202 568.264,-612.571 598.284,-602.082"/>
<polygon fill="midnightblue" stroke="midnightblue" points="599.571,-605.339 607.857,-598.737 597.262,-598.731 599.571,-605.339"/>
</g>
<!-- Node7&#45;&gt;Node36 -->
<g id="edge120" class="edge"><title>Node7&#45;&gt;Node36</title>
<path fill="none" stroke="midnightblue" d="M464,-638.444C464,-618.062 464,-571.868 464,-533 464,-533 464,-533 464,-475 464,-443.192 458.954,-426.822 483,-406 531.426,-364.068 707.84,-389.046 769,-370 809.037,-357.532 851.389,-333.406 877.265,-317.248"/>
<polygon fill="midnightblue" stroke="midnightblue" points="879.451,-320.006 886.018,-311.692 875.699,-314.096 879.451,-320.006"/>
</g>
<!-- Node8&#45;&gt;Node9 -->
<g id="edge22" class="edge"><title>Node8&#45;&gt;Node9</title>
<path fill="none" stroke="midnightblue" d="M491.805,-587.179C436.825,-578.351 326,-551.116 326,-475 326,-475 326,-475 326,-243 326,-209.355 331.877,-170.615 336.015,-147.504"/>
<polygon fill="midnightblue" stroke="midnightblue" points="339.487,-147.976 337.874,-137.505 332.605,-146.697 339.487,-147.976"/>
</g>
<!-- Node8&#45;&gt;Node17 -->
<g id="edge44" class="edge"><title>Node8&#45;&gt;Node17</title>
<path fill="none" stroke="midnightblue" d="M534.105,-580.362C543.688,-571.941 557.264,-560.011 568.393,-550.231"/>
<polygon fill="midnightblue" stroke="midnightblue" points="570.77,-552.801 575.971,-543.571 566.149,-547.543 570.77,-552.801"/>
</g>
<!-- Node9&#45;&gt;Node4 -->
<g id="edge24" class="edge"><title>Node9&#45;&gt;Node4</title>
<path fill="none" stroke="midnightblue" d="M346.46,-116.295C358.233,-96.7861 383.335,-55.1884 398.222,-30.5177"/>
<polygon fill="midnightblue" stroke="midnightblue" points="401.386,-32.0494 403.556,-21.6792 395.392,-28.4328 401.386,-32.0494"/>
</g>
<!-- Node10 -->
<g id="node23" class="node"><title>Node10</title>
<a xlink:href="commondefs_8h.html" target="_top" xlink:title="commondefs.h">
<polygon fill="white" stroke="black" points="805.5,-58.5 805.5,-79.5 886.5,-79.5 886.5,-58.5 805.5,-58.5"/>
<text text-anchor="middle" x="846" y="-66.5" font-family="Helvetica,sans-Serif" font-size="10.00">commondefs.h</text>
</a>
</g>
<!-- Node9&#45;&gt;Node10 -->
<g id="edge26" class="edge"><title>Node9&#45;&gt;Node10</title>
<path fill="none" stroke="midnightblue" d="M367.19,-125.331C436.829,-120.819 627.396,-106.969 795.417,-80.1162"/>
<polygon fill="midnightblue" stroke="midnightblue" points="796.118,-83.5484 805.43,-78.4959 794.999,-76.6383 796.118,-83.5484"/>
</g>
<!-- Node14 -->
<g id="node32" class="node"><title>Node14</title>
<a xlink:href="plftypes_8h.html" target="_top" xlink:title="plftypes.h">
<polygon fill="white" stroke="black" points="729.5,-58.5 729.5,-79.5 788.5,-79.5 788.5,-58.5 729.5,-58.5"/>
<text text-anchor="middle" x="759" y="-66.5" font-family="Helvetica,sans-Serif" font-size="10.00">plftypes.h</text>
</a>
</g>
<!-- Node9&#45;&gt;Node14 -->
<g id="edge36" class="edge"><title>Node9&#45;&gt;Node14</title>
<path fill="none" stroke="midnightblue" d="M367.169,-123.239C439.152,-113.275 635.035,-86.1598 719.437,-74.4764"/>
<polygon fill="midnightblue" stroke="midnightblue" points="719.974,-77.9356 729.399,-73.0974 719.014,-71.0018 719.974,-77.9356"/>
</g>
<!-- Node16 -->
<g id="node37" class="node"><title>Node16</title>
<polygon fill="white" stroke="#bfbfbf" points="277.5,-58.5 277.5,-79.5 344.5,-79.5 344.5,-58.5 277.5,-58.5"/>
<text text-anchor="middle" x="311" y="-66.5" font-family="Helvetica,sans-Serif" font-size="10.00">odversion.h</text>
</g>
<!-- Node9&#45;&gt;Node16 -->
<g id="edge42" class="edge"><title>Node9&#45;&gt;Node16</title>
<path fill="none" stroke="midnightblue" d="M334.681,-116.362C330.797,-108.595 325.421,-97.8426 320.773,-88.5458"/>
<polygon fill="midnightblue" stroke="midnightblue" points="323.888,-86.9497 316.285,-79.5707 317.627,-90.0802 323.888,-86.9497"/>
</g>
<!-- Node10&#45;&gt;Node4 -->
<g id="edge28" class="edge"><title>Node10&#45;&gt;Node4</title>
<path fill="none" stroke="midnightblue" d="M805.42,-59.5621C802.577,-59.002 799.749,-58.4743 797,-58 673.198,-36.6413 525.466,-21.5462 453.595,-14.8607"/>
<polygon fill="midnightblue" stroke="midnightblue" points="453.832,-11.3679 443.553,-13.9356 453.19,-18.3383 453.832,-11.3679"/>
</g>
<!-- Node11 -->
<g id="node26" class="node"><title>Node11</title>
<a xlink:href="plfdefs_8h.html" target="_top" xlink:title="plfdefs.h">
<polygon fill="white" stroke="black" points="779,-0.5 779,-21.5 833,-21.5 833,-0.5 779,-0.5"/>
<text text-anchor="middle" x="806" y="-8.5" font-family="Helvetica,sans-Serif" font-size="10.00">plfdefs.h</text>
</a>
</g>
<!-- Node10&#45;&gt;Node11 -->
<g id="edge30" class="edge"><title>Node10&#45;&gt;Node11</title>
<path fill="none" stroke="midnightblue" d="M838.663,-58.3619C833.194,-50.4313 825.578,-39.3885 819.076,-29.9606"/>
<polygon fill="midnightblue" stroke="midnightblue" points="821.849,-27.8157 813.29,-21.5707 816.086,-31.7899 821.849,-27.8157"/>
</g>
<!-- Node12 -->
<g id="node28" class="node"><title>Node12</title>
<polygon fill="white" stroke="#bfbfbf" points="973.5,-0.5 973.5,-21.5 1032.5,-21.5 1032.5,-0.5 973.5,-0.5"/>
<text text-anchor="middle" x="1003" y="-8.5" font-family="Helvetica,sans-Serif" font-size="10.00">stdexcept</text>
</g>
<!-- Node10&#45;&gt;Node12 -->
<g id="edge32" class="edge"><title>Node10&#45;&gt;Node12</title>
<path fill="none" stroke="midnightblue" d="M874.432,-58.4966C899.805,-49.1229 937.157,-35.3242 965.07,-25.0122"/>
<polygon fill="midnightblue" stroke="midnightblue" points="966.348,-28.2716 974.515,-21.5231 963.922,-21.7054 966.348,-28.2716"/>
</g>
<!-- Node13 -->
<g id="node30" class="node"><title>Node13</title>
<polygon fill="white" stroke="#bfbfbf" points="850.5,-0.5 850.5,-21.5 885.5,-21.5 885.5,-0.5 850.5,-0.5"/>
<text text-anchor="middle" x="868" y="-8.5" font-family="Helvetica,sans-Serif" font-size="10.00">new</text>
</g>
<!-- Node10&#45;&gt;Node13 -->
<g id="edge34" class="edge"><title>Node10&#45;&gt;Node13</title>
<path fill="none" stroke="midnightblue" d="M850.035,-58.3619C852.919,-50.7584 856.888,-40.294 860.363,-31.1349"/>
<polygon fill="midnightblue" stroke="midnightblue" points="863.716,-32.1619 863.99,-21.5707 857.171,-29.6793 863.716,-32.1619"/>
</g>
<!-- Node14&#45;&gt;Node11 -->
<g id="edge38" class="edge"><title>Node14&#45;&gt;Node11</title>
<path fill="none" stroke="midnightblue" d="M767.621,-58.3619C774.18,-50.2678 783.366,-38.9318 791.106,-29.3796"/>
<polygon fill="midnightblue" stroke="midnightblue" points="793.858,-31.5436 797.434,-21.5707 788.419,-27.1364 793.858,-31.5436"/>
</g>
<!-- Node15 -->
<g id="node35" class="node"><title>Node15</title>
<polygon fill="white" stroke="#bfbfbf" points="712.5,-0.5 712.5,-21.5 761.5,-21.5 761.5,-0.5 712.5,-0.5"/>
<text text-anchor="middle" x="737" y="-8.5" font-family="Helvetica,sans-Serif" font-size="10.00">stdint.h</text>
</g>
<!-- Node14&#45;&gt;Node15 -->
<g id="edge40" class="edge"><title>Node14&#45;&gt;Node15</title>
<path fill="none" stroke="midnightblue" d="M754.965,-58.3619C752.081,-50.7584 748.112,-40.294 744.637,-31.1349"/>
<polygon fill="midnightblue" stroke="midnightblue" points="747.829,-29.6793 741.01,-21.5707 741.284,-32.1619 747.829,-29.6793"/>
</g>
<!-- Node18 -->
<g id="node41" class="node"><title>Node18</title>
<a xlink:href="odset_8h.html" target="_top" xlink:title="odset.h">
<polygon fill="white" stroke="black" points="646.5,-464.5 646.5,-485.5 695.5,-485.5 695.5,-464.5 646.5,-464.5"/>
<text text-anchor="middle" x="671" y="-472.5" font-family="Helvetica,sans-Serif" font-size="10.00">odset.h</text>
</a>
</g>
<!-- Node17&#45;&gt;Node18 -->
<g id="edge46" class="edge"><title>Node17&#45;&gt;Node18</title>
<path fill="none" stroke="midnightblue" d="M603.223,-522.362C615.625,-513.696 633.346,-501.313 647.557,-491.382"/>
<polygon fill="midnightblue" stroke="midnightblue" points="649.681,-494.168 655.873,-485.571 645.671,-488.43 649.681,-494.168"/>
</g>
<!-- Node24 -->
<g id="node58" class="node"><title>Node24</title>
<a xlink:href="vectoraccess_8h.html" target="_top" xlink:title="vectoraccess.h">
<polygon fill="white" stroke="black" points="546.5,-464.5 546.5,-485.5 629.5,-485.5 629.5,-464.5 546.5,-464.5"/>
<text text-anchor="middle" x="588" y="-472.5" font-family="Helvetica,sans-Serif" font-size="10.00">vectoraccess.h</text>
</a>
</g>
<!-- Node17&#45;&gt;Node24 -->
<g id="edge68" class="edge"><title>Node17&#45;&gt;Node24</title>
<path fill="none" stroke="midnightblue" d="M588,-522.362C588,-514.922 588,-504.743 588,-495.728"/>
<polygon fill="midnightblue" stroke="midnightblue" points="591.5,-495.571 588,-485.571 584.5,-495.571 591.5,-495.571"/>
</g>
<!-- Node19 -->
<g id="node43" class="node"><title>Node19</title>
<a xlink:href="gendefs_8h.html" target="_top" xlink:title="gendefs.h">
<polygon fill="white" stroke="black" points="673.5,-174.5 673.5,-195.5 732.5,-195.5 732.5,-174.5 673.5,-174.5"/>
<text text-anchor="middle" x="703" y="-182.5" font-family="Helvetica,sans-Serif" font-size="10.00">gendefs.h</text>
</a>
</g>
<!-- Node18&#45;&gt;Node19 -->
<g id="edge48" class="edge"><title>Node18&#45;&gt;Node19</title>
<path fill="none" stroke="midnightblue" d="M671.759,-464.45C673.158,-444.08 676,-397.904 676,-359 676,-359 676,-359 676,-301 676,-266.728 687.319,-228.207 695.299,-205.307"/>
<polygon fill="midnightblue" stroke="midnightblue" points="698.671,-206.275 698.781,-195.681 692.088,-203.894 698.671,-206.275"/>
</g>
<!-- Node20 -->
<g id="node45" class="node"><title>Node20</title>
<a xlink:href="undefval_8h.html" target="_top" xlink:title="undefval.h">
<polygon fill="white" stroke="black" points="672,-116.5 672,-137.5 734,-137.5 734,-116.5 672,-116.5"/>
<text text-anchor="middle" x="703" y="-124.5" font-family="Helvetica,sans-Serif" font-size="10.00">undefval.h</text>
</a>
</g>
<!-- Node19&#45;&gt;Node20 -->
<g id="edge50" class="edge"><title>Node19&#45;&gt;Node20</title>
<path fill="none" stroke="midnightblue" d="M703,-174.362C703,-166.922 703,-156.743 703,-147.728"/>
<polygon fill="midnightblue" stroke="midnightblue" points="706.5,-147.571 703,-137.571 699.5,-147.571 706.5,-147.571"/>
</g>
<!-- Node21 -->
<g id="node50" class="node"><title>Node21</title>
<a xlink:href="commontypes_8h.html" target="_top" xlink:title="commontypes.h">
<polygon fill="white" stroke="black" points="752,-116.5 752,-137.5 838,-137.5 838,-116.5 752,-116.5"/>
<text text-anchor="middle" x="795" y="-124.5" font-family="Helvetica,sans-Serif" font-size="10.00">commontypes.h</text>
</a>
</g>
<!-- Node19&#45;&gt;Node21 -->
<g id="edge58" class="edge"><title>Node19&#45;&gt;Node21</title>
<path fill="none" stroke="midnightblue" d="M719.874,-174.362C733.751,-165.614 753.634,-153.079 769.46,-143.101"/>
<polygon fill="midnightblue" stroke="midnightblue" points="771.64,-145.864 778.233,-137.571 767.907,-139.943 771.64,-145.864"/>
</g>
<!-- Node22 -->
<g id="node53" class="node"><title>Node22</title>
<a xlink:href="errmsg_8h.html" target="_top" xlink:title="errmsg.h">
<polygon fill="white" stroke="black" points="931.5,-116.5 931.5,-137.5 986.5,-137.5 986.5,-116.5 931.5,-116.5"/>
<text text-anchor="middle" x="959" y="-124.5" font-family="Helvetica,sans-Serif" font-size="10.00">errmsg.h</text>
</a>
</g>
<!-- Node19&#45;&gt;Node22 -->
<g id="edge62" class="edge"><title>Node19&#45;&gt;Node22</title>
<path fill="none" stroke="midnightblue" d="M732.617,-178.29C779.284,-167.717 869.886,-147.19 921.19,-135.566"/>
<polygon fill="midnightblue" stroke="midnightblue" points="922.227,-138.92 931.206,-133.297 920.68,-132.093 922.227,-138.92"/>
</g>
<!-- Node20&#45;&gt;Node4 -->
<g id="edge52" class="edge"><title>Node20&#45;&gt;Node4</title>
<path fill="none" stroke="midnightblue" d="M702.342,-116.266C700.789,-100.868 695.565,-72.7465 678,-58 644.775,-30.1059 521.268,-18.0442 454.132,-13.4553"/>
<polygon fill="midnightblue" stroke="midnightblue" points="454.071,-9.94387 443.863,-12.7817 453.613,-16.9289 454.071,-9.94387"/>
</g>
<!-- Node20&#45;&gt;Node10 -->
<g id="edge54" class="edge"><title>Node20&#45;&gt;Node10</title>
<path fill="none" stroke="midnightblue" d="M728.896,-116.497C751.633,-107.275 784.93,-93.7695 810.212,-83.5153"/>
<polygon fill="midnightblue" stroke="midnightblue" points="811.862,-86.6232 819.813,-79.6212 809.231,-80.1365 811.862,-86.6232"/>
</g>
<!-- Node20&#45;&gt;Node14 -->
<g id="edge56" class="edge"><title>Node20&#45;&gt;Node14</title>
<path fill="none" stroke="midnightblue" d="M713.271,-116.362C721.244,-108.104 732.475,-96.4725 741.811,-86.8029"/>
<polygon fill="midnightblue" stroke="midnightblue" points="744.366,-89.1958 748.794,-79.5707 739.33,-84.3336 744.366,-89.1958"/>
</g>
<!-- Node21&#45;&gt;Node10 -->
<g id="edge60" class="edge"><title>Node21&#45;&gt;Node10</title>
<path fill="none" stroke="midnightblue" d="M804.354,-116.362C811.543,-108.186 821.641,-96.7025 830.093,-87.0907"/>
<polygon fill="midnightblue" stroke="midnightblue" points="832.73,-89.3916 836.705,-79.5707 827.473,-84.7692 832.73,-89.3916"/>
</g>
<!-- Node22&#45;&gt;Node10 -->
<g id="edge64" class="edge"><title>Node22&#45;&gt;Node10</title>
<path fill="none" stroke="midnightblue" d="M938.537,-116.497C920.967,-107.479 895.418,-94.3649 875.615,-84.2006"/>
<polygon fill="midnightblue" stroke="midnightblue" points="877.188,-81.0738 866.693,-79.6212 873.991,-87.3014 877.188,-81.0738"/>
</g>
<!-- Node23 -->
<g id="node56" class="node"><title>Node23</title>
<polygon fill="white" stroke="#bfbfbf" points="933.5,-58.5 933.5,-79.5 984.5,-79.5 984.5,-58.5 933.5,-58.5"/>
<text text-anchor="middle" x="959" y="-66.5" font-family="Helvetica,sans-Serif" font-size="10.00">typeinfo</text>
</g>
<!-- Node22&#45;&gt;Node23 -->
<g id="edge66" class="edge"><title>Node22&#45;&gt;Node23</title>
<path fill="none" stroke="midnightblue" d="M959,-116.362C959,-108.922 959,-98.7427 959,-89.7276"/>
<polygon fill="midnightblue" stroke="midnightblue" points="962.5,-89.5706 959,-79.5707 955.5,-89.5707 962.5,-89.5706"/>
</g>
<!-- Node24&#45;&gt;Node12 -->
<g id="edge108" class="edge"><title>Node24&#45;&gt;Node12</title>
<path fill="none" stroke="midnightblue" d="M622.164,-464.49C688.722,-442.974 838.633,-389.329 946,-312 1005.66,-269.032 1052,-258.522 1052,-185 1052,-185 1052,-185 1052,-127 1052,-90.4633 1031.12,-52.1932 1016.62,-30.0246"/>
<polygon fill="midnightblue" stroke="midnightblue" points="1019.38,-27.8702 1010.87,-21.5615 1013.59,-31.8013 1019.38,-27.8702"/>
</g>
<!-- Node24&#45;&gt;Node19 -->
<g id="edge102" class="edge"><title>Node24&#45;&gt;Node19</title>
<path fill="none" stroke="midnightblue" d="M596.428,-464.367C603.341,-455.194 612.943,-441.352 619,-428 632.141,-399.033 638,-390.808 638,-359 638,-359 638,-359 638,-301 638,-262.312 665.857,-224.564 685.097,-203.107"/>
<polygon fill="midnightblue" stroke="midnightblue" points="687.727,-205.419 691.974,-195.712 682.601,-200.652 687.727,-205.419"/>
</g>
<!-- Node25 -->
<g id="node60" class="node"><title>Node25</title>
<a xlink:href="debug_8h.html" target="_top" xlink:title="debug.h">
<polygon fill="white" stroke="black" points="385.5,-406.5 385.5,-427.5 436.5,-427.5 436.5,-406.5 385.5,-406.5"/>
<text text-anchor="middle" x="411" y="-414.5" font-family="Helvetica,sans-Serif" font-size="10.00">debug.h</text>
</a>
</g>
<!-- Node24&#45;&gt;Node25 -->
<g id="edge70" class="edge"><title>Node24&#45;&gt;Node25</title>
<path fill="none" stroke="midnightblue" d="M555.947,-464.497C525.023,-454.364 478.32,-439.06 446.336,-428.579"/>
<polygon fill="midnightblue" stroke="midnightblue" points="447.1,-425.146 436.507,-425.358 444.92,-431.798 447.1,-425.146"/>
</g>
<!-- Node32 -->
<g id="node84" class="node"><title>Node32</title>
<polygon fill="white" stroke="#bfbfbf" points="492,-406.5 492,-427.5 548,-427.5 548,-406.5 492,-406.5"/>
<text text-anchor="middle" x="520" y="-414.5" font-family="Helvetica,sans-Serif" font-size="10.00">algorithm</text>
</g>
<!-- Node24&#45;&gt;Node32 -->
<g id="edge104" class="edge"><title>Node24&#45;&gt;Node32</title>
<path fill="none" stroke="midnightblue" d="M575.528,-464.362C565.655,-455.941 551.667,-444.011 540.202,-434.231"/>
<polygon fill="midnightblue" stroke="midnightblue" points="542.273,-431.397 532.393,-427.571 537.73,-436.723 542.273,-431.397"/>
</g>
<!-- Node33 -->
<g id="node86" class="node"><title>Node33</title>
<polygon fill="white" stroke="#bfbfbf" points="566,-406.5 566,-427.5 610,-427.5 610,-406.5 566,-406.5"/>
<text text-anchor="middle" x="588" y="-414.5" font-family="Helvetica,sans-Serif" font-size="10.00">vector</text>
</g>
<!-- Node24&#45;&gt;Node33 -->
<g id="edge106" class="edge"><title>Node24&#45;&gt;Node33</title>
<path fill="none" stroke="midnightblue" d="M588,-464.362C588,-456.922 588,-446.743 588,-437.728"/>
<polygon fill="midnightblue" stroke="midnightblue" points="591.5,-437.571 588,-427.571 584.5,-437.571 591.5,-437.571"/>
</g>
<!-- Node25&#45;&gt;Node4 -->
<g id="edge72" class="edge"><title>Node25&#45;&gt;Node4</title>
<path fill="none" stroke="midnightblue" d="M415.13,-406.372C418.548,-396.974 423.133,-382.806 425,-370 426.41,-360.324 425.448,-357.767 425,-348 421.663,-275.326 410,-257.751 410,-185 410,-185 410,-185 410,-127 410,-93.5978 410,-54.7853 410,-31.5939"/>
<polygon fill="midnightblue" stroke="midnightblue" points="413.5,-31.5561 410,-21.5561 406.5,-31.5561 413.5,-31.5561"/>
</g>
<!-- Node25&#45;&gt;Node19 -->
<g id="edge74" class="edge"><title>Node25&#45;&gt;Node19</title>
<path fill="none" stroke="midnightblue" d="M436.334,-406.486C472.278,-390.53 538.432,-357.207 581,-312 608.673,-282.612 596.084,-261.157 624,-232 636.613,-218.826 653.708,-208.048 668.77,-200.152"/>
<polygon fill="midnightblue" stroke="midnightblue" points="670.456,-203.222 677.827,-195.612 667.319,-196.964 670.456,-203.222"/>
</g>
<!-- Node25&#45;&gt;Node26 -->
<g id="edge76" class="edge"><title>Node25&#45;&gt;Node26</title>
<path fill="none" stroke="midnightblue" d="M406.231,-406.362C402.786,-398.677 398.031,-388.069 393.894,-378.84"/>
<polygon fill="midnightblue" stroke="midnightblue" points="397.023,-377.264 389.739,-369.571 390.635,-380.127 397.023,-377.264"/>
</g>
<!-- Node26&#45;&gt;Node4 -->
<g id="edge78" class="edge"><title>Node26&#45;&gt;Node4</title>
<path fill="none" stroke="midnightblue" d="M374.215,-348.47C333.784,-307.724 197.123,-157.724 269,-58 280.619,-41.8798 329.295,-28.1441 366.232,-19.7587"/>
<polygon fill="midnightblue" stroke="midnightblue" points="367.287,-23.1102 376.298,-17.538 365.779,-16.2745 367.287,-23.1102"/>
</g>
<!-- Node27 -->
<g id="node67" class="node"><title>Node27</title>
<a xlink:href="fixedstring_8h.html" target="_top" xlink:title="fixedstring.h">
<polygon fill="white" stroke="black" points="502,-290.5 502,-311.5 572,-311.5 572,-290.5 502,-290.5"/>
<text text-anchor="middle" x="537" y="-298.5" font-family="Helvetica,sans-Serif" font-size="10.00">fixedstring.h</text>
</a>
</g>
<!-- Node26&#45;&gt;Node27 -->
<g id="edge80" class="edge"><title>Node26&#45;&gt;Node27</title>
<path fill="none" stroke="midnightblue" d="M412.526,-348.497C436.984,-339.164 472.938,-325.445 499.924,-315.147"/>
<polygon fill="midnightblue" stroke="midnightblue" points="501.327,-318.358 509.422,-311.523 498.832,-311.818 501.327,-318.358"/>
</g>
<!-- Node29 -->
<g id="node74" class="node"><title>Node29</title>
<a xlink:href="string2_8h.html" target="_top" xlink:title="string2.h">
<polygon fill="white" stroke="black" points="562,-116.5 562,-137.5 616,-137.5 616,-116.5 562,-116.5"/>
<text text-anchor="middle" x="589" y="-124.5" font-family="Helvetica,sans-Serif" font-size="10.00">string2.h</text>
</a>
</g>
<!-- Node26&#45;&gt;Node29 -->
<g id="edge90" class="edge"><title>Node26&#45;&gt;Node29</title>
<path fill="none" stroke="midnightblue" d="M394.296,-348.429C426.289,-312.044 532.117,-191.691 572.837,-145.382"/>
<polygon fill="midnightblue" stroke="midnightblue" points="575.675,-147.454 579.65,-137.634 570.418,-142.832 575.675,-147.454"/>
</g>
<!-- Node27&#45;&gt;Node4 -->
<g id="edge82" class="edge"><title>Node27&#45;&gt;Node4</title>
<path fill="none" stroke="midnightblue" d="M520.676,-290.314C494.982,-272.055 448,-232.213 448,-185 448,-185 448,-185 448,-127 448,-91.7411 431.949,-53.3154 420.711,-30.7323"/>
<polygon fill="midnightblue" stroke="midnightblue" points="423.802,-29.0901 416.105,-21.809 417.582,-32.3005 423.802,-29.0901"/>
</g>
<!-- Node28 -->
<g id="node70" class="node"><title>Node28</title>
<a xlink:href="odstring_8h.html" target="_top" xlink:title="odstring.h">
<polygon fill="white" stroke="black" points="513.5,-232.5 513.5,-253.5 572.5,-253.5 572.5,-232.5 513.5,-232.5"/>
<text text-anchor="middle" x="543" y="-240.5" font-family="Helvetica,sans-Serif" font-size="10.00">odstring.h</text>
</a>
</g>
<!-- Node27&#45;&gt;Node28 -->
<g id="edge84" class="edge"><title>Node27&#45;&gt;Node28</title>
<path fill="none" stroke="midnightblue" d="M538.1,-290.362C538.87,-282.922 539.923,-272.743 540.856,-263.728"/>
<polygon fill="midnightblue" stroke="midnightblue" points="544.359,-263.878 541.906,-253.571 537.396,-263.157 544.359,-263.878"/>
</g>
<!-- Node28&#45;&gt;Node4 -->
<g id="edge86" class="edge"><title>Node28&#45;&gt;Node4</title>
<path fill="none" stroke="midnightblue" d="M557.239,-232.364C595.331,-202.662 693.481,-117.138 645,-58 621.311,-29.1043 515.186,-17.6197 453.959,-13.3386"/>
<polygon fill="midnightblue" stroke="midnightblue" points="454.018,-9.83489 443.809,-12.6659 453.555,-16.8196 454.018,-9.83489"/>
</g>
<!-- Node28&#45;&gt;Node19 -->
<g id="edge88" class="edge"><title>Node28&#45;&gt;Node19</title>
<path fill="none" stroke="midnightblue" d="M571.975,-232.497C597.833,-223.123 635.899,-209.324 664.346,-199.012"/>
<polygon fill="midnightblue" stroke="midnightblue" points="665.762,-202.222 673.971,-195.523 663.377,-195.641 665.762,-202.222"/>
</g>
<!-- Node29&#45;&gt;Node4 -->
<g id="edge92" class="edge"><title>Node29&#45;&gt;Node4</title>
<path fill="none" stroke="midnightblue" d="M568.582,-116.447C551.325,-107.323 526.115,-93.5086 505,-80 478.942,-63.3288 450.394,-42.1753 431.465,-27.7124"/>
<polygon fill="midnightblue" stroke="midnightblue" points="433.549,-24.8999 423.489,-21.5782 429.282,-30.4488 433.549,-24.8999"/>
</g>
<!-- Node29&#45;&gt;Node10 -->
<g id="edge96" class="edge"><title>Node29&#45;&gt;Node10</title>
<path fill="none" stroke="midnightblue" d="M616.018,-120.903C658.514,-111.312 741.665,-92.5464 795.478,-80.4019"/>
<polygon fill="midnightblue" stroke="midnightblue" points="796.514,-83.7562 805.498,-78.1405 794.973,-76.9279 796.514,-83.7562"/>
</g>
<!-- Node29&#45;&gt;Node14 -->
<g id="edge94" class="edge"><title>Node29&#45;&gt;Node14</title>
<path fill="none" stroke="midnightblue" d="M616.313,-117.681C644.262,-108.146 687.964,-93.2357 719.643,-82.4278"/>
<polygon fill="midnightblue" stroke="midnightblue" points="721.136,-85.6165 729.47,-79.0749 718.876,-78.9914 721.136,-85.6165"/>
</g>
<!-- Node30 -->
<g id="node79" class="node"><title>Node30</title>
<polygon fill="white" stroke="#bfbfbf" points="587.5,-58.5 587.5,-79.5 636.5,-79.5 636.5,-58.5 587.5,-58.5"/>
<text text-anchor="middle" x="612" y="-66.5" font-family="Helvetica,sans-Serif" font-size="10.00">ctype.h</text>
</g>
<!-- Node29&#45;&gt;Node30 -->
<g id="edge98" class="edge"><title>Node29&#45;&gt;Node30</title>
<path fill="none" stroke="midnightblue" d="M593.219,-116.362C596.234,-108.758 600.383,-98.294 604.015,-89.1349"/>
<polygon fill="midnightblue" stroke="midnightblue" points="607.375,-90.1567 607.808,-79.5707 600.868,-87.5762 607.375,-90.1567"/>
</g>
<!-- Node31 -->
<g id="node81" class="node"><title>Node31</title>
<polygon fill="white" stroke="#bfbfbf" points="514,-58.5 514,-79.5 570,-79.5 570,-58.5 514,-58.5"/>
<text text-anchor="middle" x="542" y="-66.5" font-family="Helvetica,sans-Serif" font-size="10.00">wctype.h</text>
</g>
<!-- Node29&#45;&gt;Node31 -->
<g id="edge100" class="edge"><title>Node29&#45;&gt;Node31</title>
<path fill="none" stroke="midnightblue" d="M580.379,-116.362C573.82,-108.268 564.634,-96.9318 556.894,-87.3796"/>
<polygon fill="midnightblue" stroke="midnightblue" points="559.581,-85.1364 550.566,-79.5707 554.142,-89.5436 559.581,-85.1364"/>
</g>
<!-- Node34&#45;&gt;Node17 -->
<g id="edge118" class="edge"><title>Node34&#45;&gt;Node17</title>
<path fill="none" stroke="midnightblue" d="M622.297,-580.362C616.554,-572.431 608.557,-561.389 601.73,-551.961"/>
<polygon fill="midnightblue" stroke="midnightblue" points="604.355,-549.617 595.655,-543.571 598.685,-553.723 604.355,-549.617"/>
</g>
<!-- Node35 -->
<g id="node91" class="node"><title>Node35</title>
<a xlink:href="typeset_8h.html" target="_top" xlink:title="typeset.h">
<polygon fill="white" stroke="black" points="640.5,-522.5 640.5,-543.5 697.5,-543.5 697.5,-522.5 640.5,-522.5"/>
<text text-anchor="middle" x="669" y="-530.5" font-family="Helvetica,sans-Serif" font-size="10.00">typeset.h</text>
</a>
</g>
<!-- Node34&#45;&gt;Node35 -->
<g id="edge112" class="edge"><title>Node34&#45;&gt;Node35</title>
<path fill="none" stroke="midnightblue" d="M637.153,-580.362C642.486,-572.431 649.911,-561.389 656.251,-551.961"/>
<polygon fill="midnightblue" stroke="midnightblue" points="659.217,-553.822 661.892,-543.571 653.408,-549.916 659.217,-553.822"/>
</g>
<!-- Node35&#45;&gt;Node18 -->
<g id="edge114" class="edge"><title>Node35&#45;&gt;Node18</title>
<path fill="none" stroke="midnightblue" d="M669.367,-522.362C669.623,-514.922 669.974,-504.743 670.285,-495.728"/>
<polygon fill="midnightblue" stroke="midnightblue" points="673.789,-495.685 670.635,-485.571 666.793,-495.444 673.789,-495.685"/>
</g>
<!-- Node35&#45;&gt;Node24 -->
<g id="edge116" class="edge"><title>Node35&#45;&gt;Node24</title>
<path fill="none" stroke="midnightblue" d="M654.143,-522.362C642.154,-513.777 625.073,-501.546 611.272,-491.664"/>
<polygon fill="midnightblue" stroke="midnightblue" points="612.931,-488.547 602.762,-485.571 608.855,-494.238 612.931,-488.547"/>
</g>
<!-- Node36&#45;&gt;Node4 -->
<g id="edge122" class="edge"><title>Node36&#45;&gt;Node4</title>
<path fill="none" stroke="midnightblue" d="M924.396,-290.439C957.08,-273.289 1014,-236.089 1014,-185 1014,-185 1014,-185 1014,-127 1014,-94.9445 1017.97,-78.1039 993,-58 972.04,-41.1231 585.948,-19.9649 453.874,-13.1916"/>
<polygon fill="midnightblue" stroke="midnightblue" points="453.88,-9.68743 443.715,-12.6733 453.523,-16.6783 453.88,-9.68743"/>
</g>
<!-- Node36&#45;&gt;Node10 -->
<g id="edge124" class="edge"><title>Node36&#45;&gt;Node10</title>
<path fill="none" stroke="midnightblue" d="M902.567,-290.116C903.708,-260.832 904.355,-178.366 880,-116 875.976,-105.696 869.145,-95.5809 862.658,-87.3903"/>
<polygon fill="midnightblue" stroke="midnightblue" points="865.257,-85.0429 856.153,-79.6239 859.891,-89.5376 865.257,-85.0429"/>
</g>
<!-- Node36&#45;&gt;Node14 -->
<g id="edge126" class="edge"><title>Node36&#45;&gt;Node14</title>
<path fill="none" stroke="midnightblue" d="M899.972,-290.431C893.09,-255.425 869.778,-143.904 847,-116 834.339,-100.49 815.17,-89.4044 797.951,-81.9095"/>
<polygon fill="midnightblue" stroke="midnightblue" points="799.221,-78.6474 788.64,-78.1098 796.576,-85.1286 799.221,-78.6474"/>
</g>
<!-- Node37&#45;&gt;Node19 -->
<g id="edge136" class="edge"><title>Node37&#45;&gt;Node19</title>
<path fill="none" stroke="midnightblue" d="M816.058,-580.353C831.738,-572.784 849.905,-560.929 859,-544 879.115,-506.562 973.642,-660.725 840,-348 813.463,-285.904 755.039,-229.43 723.748,-202.174"/>
<polygon fill="midnightblue" stroke="midnightblue" points="725.924,-199.429 716.052,-195.583 721.371,-204.746 725.924,-199.429"/>
</g>
<!-- Node37&#45;&gt;Node29 -->
<g id="edge146" class="edge"><title>Node37&#45;&gt;Node29</title>
<path fill="none" stroke="midnightblue" d="M794.105,-580.191C804.847,-560.127 826,-515.477 826,-475 826,-475 826,-475 826,-417 826,-302.583 823.372,-253.41 741,-174 724.49,-158.084 665.451,-143.042 625.998,-134.436"/>
<polygon fill="midnightblue" stroke="midnightblue" points="626.692,-131.005 616.181,-132.338 625.229,-137.85 626.692,-131.005"/>
</g>
<!-- Node37&#45;&gt;Node35 -->
<g id="edge148" class="edge"><title>Node37&#45;&gt;Node35</title>
<path fill="none" stroke="midnightblue" d="M766.45,-580.497C747.864,-571.438 720.798,-558.246 699.905,-548.063"/>
<polygon fill="midnightblue" stroke="midnightblue" points="701.314,-544.856 690.792,-543.621 698.247,-551.149 701.314,-544.856"/>
</g>
<!-- Node37&#45;&gt;Node36 -->
<g id="edge144" class="edge"><title>Node37&#45;&gt;Node36</title>
<path fill="none" stroke="midnightblue" d="M803.953,-580.499C815.626,-572 830.948,-559.004 840,-544 884.483,-470.266 897.239,-365.419 900.741,-321.545"/>
<polygon fill="midnightblue" stroke="midnightblue" points="904.234,-321.76 901.459,-311.535 897.252,-321.258 904.234,-321.76"/>
</g>
<!-- Node38 -->
<g id="node107" class="node"><title>Node38</title>
<a xlink:href="keystrs_8h.html" target="_top" xlink:title="keystrs.h">
<polygon fill="white" stroke="black" points="703.5,-348.5 703.5,-369.5 760.5,-369.5 760.5,-348.5 703.5,-348.5"/>
<text text-anchor="middle" x="732" y="-356.5" font-family="Helvetica,sans-Serif" font-size="10.00">keystrs.h</text>
</a>
</g>
<!-- Node37&#45;&gt;Node38 -->
<g id="edge138" class="edge"><title>Node37&#45;&gt;Node38</title>
<path fill="none" stroke="midnightblue" d="M785.448,-580.429C776.793,-544.573 748.455,-427.169 736.935,-379.446"/>
<polygon fill="midnightblue" stroke="midnightblue" points="740.315,-378.533 734.567,-369.634 733.511,-380.176 740.315,-378.533"/>
</g>
<!-- Node38&#45;&gt;Node19 -->
<g id="edge140" class="edge"><title>Node38&#45;&gt;Node19</title>
<path fill="none" stroke="midnightblue" d="M730.23,-348.377C725.549,-320.293 712.779,-243.673 706.534,-206.203"/>
<polygon fill="midnightblue" stroke="midnightblue" points="709.918,-205.216 704.821,-195.928 703.013,-206.367 709.918,-205.216"/>
</g>
<!-- Node38&#45;&gt;Node27 -->
<g id="edge142" class="edge"><title>Node38&#45;&gt;Node27</title>
<path fill="none" stroke="midnightblue" d="M703.227,-350.442C671.231,-340.925 619.144,-325.433 581.801,-314.326"/>
<polygon fill="midnightblue" stroke="midnightblue" points="582.751,-310.957 572.168,-311.46 580.756,-317.666 582.751,-310.957"/>
</g>
</g>
</svg>
