<?xml version="1.0" encoding="UTF-8" standalone="no"?>
<!DOCTYPE svg PUBLIC "-//W3C//DTD SVG 1.1//EN"
 "http://www.w3.org/Graphics/SVG/1.1/DTD/svg11.dtd">
<!-- Generated by graphviz version 2.26.0 (20091210.2329)
 -->
<!-- Title: OD::String Pages: 1 -->
<svg width="160pt" height="146pt"
 viewBox="0.00 0.00 160.00 146.00" xmlns="http://www.w3.org/2000/svg" xmlns:xlink="http://www.w3.org/1999/xlink">
<g id="graph1" class="graph" transform="scale(1 1) rotate(0) translate(4 142)">
<title>OD::String</title>
<polygon fill="white" stroke="white" points="-4,5 -4,-142 157,-142 157,5 -4,5"/>
<!-- Node1 -->
<g id="node1" class="node"><title>Node1</title>
<polygon fill="#bfbfbf" stroke="black" points="44.5,-116.5 44.5,-137.5 107.5,-137.5 107.5,-116.5 44.5,-116.5"/>
<text text-anchor="middle" x="76" y="-124.5" font-family="Helvetica,sans-Serif" font-size="10.00">OD::String</text>
</g>
<!-- Node2 -->
<g id="node3" class="node"><title>Node2</title>
<a xlink:href="classBufferString.html" target="_top" xlink:title="OD::String with its own variable length buffer. The buffer has a guaranteed minimum size...">
<polygon fill="white" stroke="black" points="0,-58.5 0,-79.5 68,-79.5 68,-58.5 0,-58.5"/>
<text text-anchor="middle" x="34" y="-66.5" font-family="Helvetica,sans-Serif" font-size="10.00">BufferString</text>
</a>
</g>
<!-- Node1&#45;&gt;Node2 -->
<g id="edge2" class="edge"><title>Node1&#45;&gt;Node2</title>
<path fill="none" stroke="midnightblue" d="M62.4227,-108.25C55.5431,-98.75 47.4437,-87.5651 41.6546,-79.5707"/>
<polygon fill="midnightblue" stroke="midnightblue" points="59.5966,-110.315 68.2966,-116.362 65.2662,-106.21 59.5966,-110.315"/>
</g>
<!-- Node4 -->
<g id="node7" class="node"><title>Node4</title>
<a xlink:href="classFixedString.html" target="_top" xlink:title="OD::String that holds an existing text string. ">
<polygon fill="white" stroke="black" points="86,-58.5 86,-79.5 152,-79.5 152,-58.5 86,-58.5"/>
<text text-anchor="middle" x="119" y="-66.5" font-family="Helvetica,sans-Serif" font-size="10.00">FixedString</text>
</a>
</g>
<!-- Node1&#45;&gt;Node4 -->
<g id="edge6" class="edge"><title>Node1&#45;&gt;Node4</title>
<path fill="none" stroke="midnightblue" d="M89.9006,-108.25C96.944,-98.75 105.236,-87.5651 111.163,-79.5707"/>
<polygon fill="midnightblue" stroke="midnightblue" points="87.0309,-106.244 83.8869,-116.362 92.6541,-110.413 87.0309,-106.244"/>
</g>
<!-- Node3 -->
<g id="node5" class="node"><title>Node3</title>
<a xlink:href="classLineKey.html" target="_top" xlink:title="Key for a line in a line set. ">
<polygon fill="white" stroke="black" points="8,-0.5 8,-21.5 60,-21.5 60,-0.5 8,-0.5"/>
<text text-anchor="middle" x="34" y="-8.5" font-family="Helvetica,sans-Serif" font-size="10.00">LineKey</text>
</a>
</g>
<!-- Node2&#45;&gt;Node3 -->
<g id="edge4" class="edge"><title>Node2&#45;&gt;Node3</title>
<path fill="none" stroke="midnightblue" d="M34,-48.1906C34,-39.1684 34,-28.9941 34,-21.5707"/>
<polygon fill="midnightblue" stroke="midnightblue" points="30.5001,-48.3619 34,-58.3619 37.5001,-48.3619 30.5001,-48.3619"/>
</g>
</g>
</svg>
