<?xml version="1.0" encoding="UTF-8" standalone="no"?>
<!DOCTYPE svg PUBLIC "-//W3C//DTD SVG 1.1//EN"
 "http://www.w3.org/Graphics/SVG/1.1/DTD/svg11.dtd">
<!-- Generated by graphviz version 2.26.0 (20091210.2329)
 -->
<!-- Title: HelpProvider Pages: 1 -->
<svg width="402pt" height="88pt"
 viewBox="0.00 0.00 402.00 88.00" xmlns="http://www.w3.org/2000/svg" xmlns:xlink="http://www.w3.org/1999/xlink">
<g id="graph1" class="graph" transform="scale(1 1) rotate(0) translate(4 84)">
<title>HelpProvider</title>
<polygon fill="white" stroke="white" points="-4,5 -4,-84 399,-84 399,5 -4,5"/>
<!-- Node1 -->
<g id="node1" class="node"><title>Node1</title>
<polygon fill="#bfbfbf" stroke="black" points="158.5,-58.5 158.5,-79.5 231.5,-79.5 231.5,-58.5 158.5,-58.5"/>
<text text-anchor="middle" x="195" y="-66.5" font-family="Helvetica,sans-Serif" font-size="10.00">HelpProvider</text>
</g>
<!-- Node2 -->
<g id="node3" class="node"><title>Node2</title>
<a xlink:href="classDevDocHelp.html" target="_top" xlink:title="DevDocHelp">
<polygon fill="white" stroke="black" points="-0.5,-0.5 -0.5,-21.5 72.5,-21.5 72.5,-0.5 -0.5,-0.5"/>
<text text-anchor="middle" x="36" y="-8.5" font-family="Helvetica,sans-Serif" font-size="10.00">DevDocHelp</text>
</a>
</g>
<!-- Node1&#45;&gt;Node2 -->
<g id="edge2" class="edge"><title>Node1&#45;&gt;Node2</title>
<path fill="none" stroke="midnightblue" d="M156.647,-55.0095C128.391,-44.7023 90.5616,-30.903 64.8477,-21.5231"/>
<polygon fill="midnightblue" stroke="midnightblue" points="155.612,-58.3577 166.206,-58.4966 158.011,-51.7816 155.612,-58.3577"/>
</g>
<!-- Node3 -->
<g id="node5" class="node"><title>Node3</title>
<a xlink:href="classFlareHelpProvider.html" target="_top" xlink:title="FlareHelpProvider">
<polygon fill="white" stroke="black" points="89.5,-0.5 89.5,-21.5 184.5,-21.5 184.5,-0.5 89.5,-0.5"/>
<text text-anchor="middle" x="137" y="-8.5" font-family="Helvetica,sans-Serif" font-size="10.00">FlareHelpProvider</text>
</a>
</g>
<!-- Node1&#45;&gt;Node3 -->
<g id="edge4" class="edge"><title>Node1&#45;&gt;Node3</title>
<path fill="none" stroke="midnightblue" d="M177.118,-51.118C167.438,-41.4377 155.81,-29.8098 147.571,-21.5707"/>
<polygon fill="midnightblue" stroke="midnightblue" points="174.816,-53.7657 184.362,-58.3619 179.766,-48.8159 174.816,-53.7657"/>
</g>
<!-- Node4 -->
<g id="node7" class="node"><title>Node4</title>
<a xlink:href="classSimpleHelpProvider.html" target="_top" xlink:title="A simple HelpProvider that can be extended to create a HelpProvider for third party plug&#45;ins...">
<polygon fill="white" stroke="black" points="201.5,-0.5 201.5,-21.5 304.5,-21.5 304.5,-0.5 201.5,-0.5"/>
<text text-anchor="middle" x="253" y="-8.5" font-family="Helvetica,sans-Serif" font-size="10.00">SimpleHelpProvider</text>
</a>
</g>
<!-- Node1&#45;&gt;Node4 -->
<g id="edge6" class="edge"><title>Node1&#45;&gt;Node4</title>
<path fill="none" stroke="midnightblue" d="M212.882,-51.118C222.562,-41.4377 234.19,-29.8098 242.429,-21.5707"/>
<polygon fill="midnightblue" stroke="midnightblue" points="210.234,-48.8159 205.638,-58.3619 215.184,-53.7657 210.234,-48.8159"/>
</g>
<!-- Node5 -->
<g id="node9" class="node"><title>Node5</title>
<a xlink:href="classWebsiteHelp.html" target="_top" xlink:title="WebsiteHelp">
<polygon fill="white" stroke="black" points="321.5,-0.5 321.5,-21.5 394.5,-21.5 394.5,-0.5 321.5,-0.5"/>
<text text-anchor="middle" x="358" y="-8.5" font-family="Helvetica,sans-Serif" font-size="10.00">WebsiteHelp</text>
</a>
</g>
<!-- Node1&#45;&gt;Node5 -->
<g id="edge8" class="edge"><title>Node1&#45;&gt;Node5</title>
<path fill="none" stroke="midnightblue" d="M234.318,-55.0095C263.285,-44.7023 302.066,-30.903 328.427,-21.5231"/>
<polygon fill="midnightblue" stroke="midnightblue" points="232.766,-51.8467 224.518,-58.4966 235.113,-58.4417 232.766,-51.8467"/>
</g>
</g>
</svg>
