<?xml version="1.0" encoding="UTF-8" standalone="no"?>
<!DOCTYPE svg PUBLIC "-//W3C//DTD SVG 1.1//EN"
 "http://www.w3.org/Graphics/SVG/1.1/DTD/svg11.dtd">
<!-- Generated by graphviz version 2.26.0 (20091210.2329)
 -->
<!-- Title: PreStack::AngleMuteBase Pages: 1 -->
<svg width="288pt" height="88pt"
 viewBox="0.00 0.00 288.00 88.00" xmlns="http://www.w3.org/2000/svg" xmlns:xlink="http://www.w3.org/1999/xlink">
<g id="graph1" class="graph" transform="scale(1 1) rotate(0) translate(4 84)">
<title>PreStack::AngleMuteBase</title>
<polygon fill="white" stroke="white" points="-4,5 -4,-84 285,-84 285,5 -4,5"/>
<!-- Node1 -->
<g id="node1" class="node"><title>Node1</title>
<polygon fill="#bfbfbf" stroke="black" points="63,-58.5 63,-79.5 195,-79.5 195,-58.5 63,-58.5"/>
<text text-anchor="middle" x="129" y="-66.5" font-family="Helvetica,sans-Serif" font-size="10.00">PreStack::AngleMuteBase</text>
</g>
<!-- Node2 -->
<g id="node3" class="node"><title>Node2</title>
<a xlink:href="classPreStack_1_1AngleMute.html" target="_top" xlink:title="Angle mute. ">
<polygon fill="white" stroke="black" points="0,-0.5 0,-21.5 110,-21.5 110,-0.5 0,-0.5"/>
<text text-anchor="middle" x="55" y="-8.5" font-family="Helvetica,sans-Serif" font-size="10.00">PreStack::AngleMute</text>
</a>
</g>
<!-- Node1&#45;&gt;Node2 -->
<g id="edge2" class="edge"><title>Node1&#45;&gt;Node2</title>
<path fill="none" stroke="midnightblue" d="M107.279,-51.9753C94.7195,-42.1315 79.311,-30.0545 68.4867,-21.5707"/>
<polygon fill="midnightblue" stroke="midnightblue" points="105.398,-54.9478 115.427,-58.3619 109.716,-49.4383 105.398,-54.9478"/>
</g>
<!-- Node3 -->
<g id="node5" class="node"><title>Node3</title>
<a xlink:href="classPreStack_1_1AngleMuteComputer.html" target="_top" xlink:title="Computes angle mute. ">
<polygon fill="white" stroke="black" points="128,-0.5 128,-21.5 280,-21.5 280,-0.5 128,-0.5"/>
<text text-anchor="middle" x="204" y="-8.5" font-family="Helvetica,sans-Serif" font-size="10.00">PreStack::AngleMuteComputer</text>
</a>
</g>
<!-- Node1&#45;&gt;Node3 -->
<g id="edge4" class="edge"><title>Node1&#45;&gt;Node3</title>
<path fill="none" stroke="midnightblue" d="M151.015,-51.9753C163.744,-42.1315 179.361,-30.0545 190.331,-21.5707"/>
<polygon fill="midnightblue" stroke="midnightblue" points="148.526,-49.4757 142.756,-58.3619 152.808,-55.0131 148.526,-49.4757"/>
</g>
</g>
</svg>
