<?xml version="1.0" encoding="UTF-8" standalone="no"?>
<!DOCTYPE svg PUBLIC "-//W3C//DTD SVG 1.1//EN"
 "http://www.w3.org/Graphics/SVG/1.1/DTD/svg11.dtd">
<!-- Generated by graphviz version 2.26.0 (20091210.2329)
 -->
<!-- Title: BendPointFinder2DGeomSet Pages: 1 -->
<svg width="150pt" height="320pt"
 viewBox="0.00 0.00 150.00 320.00" xmlns="http://www.w3.org/2000/svg" xmlns:xlink="http://www.w3.org/1999/xlink">
<g id="graph1" class="graph" transform="scale(1 1) rotate(0) translate(4 316)">
<title>BendPointFinder2DGeomSet</title>
<polygon fill="white" stroke="white" points="-4,5 -4,-316 147,-316 147,5 -4,5"/>
<!-- Node1 -->
<g id="node1" class="node"><title>Node1</title>
<polygon fill="#bfbfbf" stroke="black" points="-0.5,-0.5 -0.5,-21.5 142.5,-21.5 142.5,-0.5 -0.5,-0.5"/>
<text text-anchor="middle" x="71" y="-8.5" font-family="Helvetica,sans-Serif" font-size="10.00">BendPointFinder2DGeomSet</text>
</g>
<!-- Node2 -->
<g id="node2" class="node"><title>Node2</title>
<a xlink:href="classExecutor.html" target="_top" xlink:title="Specification to enable chunkwise execution of a process. ">
<polygon fill="white" stroke="black" points="43,-58.5 43,-79.5 99,-79.5 99,-58.5 43,-58.5"/>
<text text-anchor="middle" x="71" y="-66.5" font-family="Helvetica,sans-Serif" font-size="10.00">Executor</text>
</a>
</g>
<!-- Node2&#45;&gt;Node1 -->
<g id="edge2" class="edge"><title>Node2&#45;&gt;Node1</title>
<path fill="none" stroke="midnightblue" d="M71,-48.1906C71,-39.1684 71,-28.9941 71,-21.5707"/>
<polygon fill="midnightblue" stroke="midnightblue" points="67.5001,-48.3619 71,-58.3619 74.5001,-48.3619 67.5001,-48.3619"/>
</g>
<!-- Node3 -->
<g id="node4" class="node"><title>Node3</title>
<a xlink:href="classSequentialTask.html" target="_top" xlink:title="The generalization of something (e.g. a computation) where the steps must be done in sequence...">
<polygon fill="white" stroke="black" points="29,-116.5 29,-137.5 113,-137.5 113,-116.5 29,-116.5"/>
<text text-anchor="middle" x="71" y="-124.5" font-family="Helvetica,sans-Serif" font-size="10.00">SequentialTask</text>
</a>
</g>
<!-- Node3&#45;&gt;Node2 -->
<g id="edge4" class="edge"><title>Node3&#45;&gt;Node2</title>
<path fill="none" stroke="midnightblue" d="M71,-106.191C71,-97.1684 71,-86.9941 71,-79.5707"/>
<polygon fill="midnightblue" stroke="midnightblue" points="67.5001,-106.362 71,-116.362 74.5001,-106.362 67.5001,-106.362"/>
</g>
<!-- Node4 -->
<g id="node6" class="node"><title>Node4</title>
<a xlink:href="classTask.html" target="_top" xlink:title="Generalization of something (e.g. a computation) that needs to be done in multiple steps...">
<polygon fill="white" stroke="black" points="52,-174.5 52,-195.5 90,-195.5 90,-174.5 52,-174.5"/>
<text text-anchor="middle" x="71" y="-182.5" font-family="Helvetica,sans-Serif" font-size="10.00">Task</text>
</a>
</g>
<!-- Node4&#45;&gt;Node3 -->
<g id="edge6" class="edge"><title>Node4&#45;&gt;Node3</title>
<path fill="none" stroke="midnightblue" d="M71,-164.191C71,-155.168 71,-144.994 71,-137.571"/>
<polygon fill="midnightblue" stroke="midnightblue" points="67.5001,-164.362 71,-174.362 74.5001,-164.362 67.5001,-164.362"/>
</g>
<!-- Node5 -->
<g id="node8" class="node"><title>Node5</title>
<a xlink:href="classNamedObject.html" target="_top" xlink:title="Object with a name. ">
<polygon fill="white" stroke="black" points="32.5,-232.5 32.5,-253.5 109.5,-253.5 109.5,-232.5 32.5,-232.5"/>
<text text-anchor="middle" x="71" y="-240.5" font-family="Helvetica,sans-Serif" font-size="10.00">NamedObject</text>
</a>
</g>
<!-- Node5&#45;&gt;Node4 -->
<g id="edge8" class="edge"><title>Node5&#45;&gt;Node4</title>
<path fill="none" stroke="midnightblue" d="M71,-222.191C71,-213.168 71,-202.994 71,-195.571"/>
<polygon fill="midnightblue" stroke="midnightblue" points="67.5001,-222.362 71,-232.362 74.5001,-222.362 67.5001,-222.362"/>
</g>
<!-- Node6 -->
<g id="node10" class="node"><title>Node6</title>
<a xlink:href="classCallBacker.html" target="_top" xlink:title="To be able to send and/or receive CallBacks, inherit from this class. ">
<polygon fill="white" stroke="black" points="38.5,-290.5 38.5,-311.5 103.5,-311.5 103.5,-290.5 38.5,-290.5"/>
<text text-anchor="middle" x="71" y="-298.5" font-family="Helvetica,sans-Serif" font-size="10.00">CallBacker</text>
</a>
</g>
<!-- Node6&#45;&gt;Node5 -->
<g id="edge10" class="edge"><title>Node6&#45;&gt;Node5</title>
<path fill="none" stroke="midnightblue" d="M71,-280.191C71,-271.168 71,-260.994 71,-253.571"/>
<polygon fill="midnightblue" stroke="midnightblue" points="67.5001,-280.362 71,-290.362 74.5001,-280.362 67.5001,-280.362"/>
</g>
</g>
</svg>
