<?xml version="1.0" encoding="UTF-8" standalone="no"?>
<!DOCTYPE svg PUBLIC "-//W3C//DTD SVG 1.1//EN"
 "http://www.w3.org/Graphics/SVG/1.1/DTD/svg11.dtd">
<!-- Generated by graphviz version 2.26.0 (20091210.2329)
 -->
<!-- Title: uiSurvInfoProvider Pages: 1 -->
<svg width="466pt" height="88pt"
 viewBox="0.00 0.00 466.00 88.00" xmlns="http://www.w3.org/2000/svg" xmlns:xlink="http://www.w3.org/1999/xlink">
<g id="graph1" class="graph" transform="scale(1 1) rotate(0) translate(4 84)">
<title>uiSurvInfoProvider</title>
<polygon fill="white" stroke="white" points="-4,5 -4,-84 463,-84 463,5 -4,5"/>
<!-- Node1 -->
<g id="node1" class="node"><title>Node1</title>
<polygon fill="#bfbfbf" stroke="black" points="187.5,-58.5 187.5,-79.5 284.5,-79.5 284.5,-58.5 187.5,-58.5"/>
<text text-anchor="middle" x="236" y="-66.5" font-family="Helvetica,sans-Serif" font-size="10.00">uiSurvInfoProvider</text>
</g>
<!-- Node2 -->
<g id="node3" class="node"><title>Node2</title>
<a xlink:href="classui2DSurvInfoProvider.html" target="_top" xlink:title="ui2DSurvInfoProvider">
<polygon fill="white" stroke="black" points="0,-0.5 0,-21.5 110,-21.5 110,-0.5 0,-0.5"/>
<text text-anchor="middle" x="55" y="-8.5" font-family="Helvetica,sans-Serif" font-size="10.00">ui2DSurvInfoProvider</text>
</a>
</g>
<!-- Node1&#45;&gt;Node2 -->
<g id="edge2" class="edge"><title>Node1&#45;&gt;Node2</title>
<path fill="none" stroke="midnightblue" d="M193.598,-55.4127C161.305,-45.0646 117.494,-31.0258 87.8392,-21.5231"/>
<polygon fill="midnightblue" stroke="midnightblue" points="192.631,-58.7781 203.222,-58.4966 194.767,-52.1119 192.631,-58.7781"/>
</g>
<!-- Node3 -->
<g id="node5" class="node"><title>Node3</title>
<a xlink:href="classuiCopySurveySIP.html" target="_top" xlink:title="uiCopySurveySIP">
<polygon fill="white" stroke="black" points="127.5,-0.5 127.5,-21.5 222.5,-21.5 222.5,-0.5 127.5,-0.5"/>
<text text-anchor="middle" x="175" y="-8.5" font-family="Helvetica,sans-Serif" font-size="10.00">uiCopySurveySIP</text>
</a>
</g>
<!-- Node1&#45;&gt;Node3 -->
<g id="edge4" class="edge"><title>Node1&#45;&gt;Node3</title>
<path fill="none" stroke="midnightblue" d="M217.495,-51.405C207.255,-41.6683 194.869,-29.8914 186.117,-21.5707"/>
<polygon fill="midnightblue" stroke="midnightblue" points="215.153,-54.0077 224.812,-58.3619 219.976,-48.9348 215.153,-54.0077"/>
</g>
<!-- Node4 -->
<g id="node7" class="node"><title>Node4</title>
<a xlink:href="classuiNavSurvInfoProvider.html" target="_top" xlink:title="uiNavSurvInfoProvider">
<polygon fill="white" stroke="black" points="239.5,-0.5 239.5,-21.5 354.5,-21.5 354.5,-0.5 239.5,-0.5"/>
<text text-anchor="middle" x="297" y="-8.5" font-family="Helvetica,sans-Serif" font-size="10.00">uiNavSurvInfoProvider</text>
</a>
</g>
<!-- Node1&#45;&gt;Node4 -->
<g id="edge6" class="edge"><title>Node1&#45;&gt;Node4</title>
<path fill="none" stroke="midnightblue" d="M254.505,-51.405C264.745,-41.6683 277.131,-29.8914 285.883,-21.5707"/>
<polygon fill="midnightblue" stroke="midnightblue" points="252.024,-48.9348 247.188,-58.3619 256.847,-54.0077 252.024,-48.9348"/>
</g>
<!-- Node5 -->
<g id="node9" class="node"><title>Node5</title>
<a xlink:href="classuiSurveyFileSIP.html" target="_top" xlink:title="uiSurveyFileSIP">
<polygon fill="white" stroke="black" points="371.5,-0.5 371.5,-21.5 458.5,-21.5 458.5,-0.5 371.5,-0.5"/>
<text text-anchor="middle" x="415" y="-8.5" font-family="Helvetica,sans-Serif" font-size="10.00">uiSurveyFileSIP</text>
</a>
</g>
<!-- Node1&#45;&gt;Node5 -->
<g id="edge8" class="edge"><title>Node1&#45;&gt;Node5</title>
<path fill="none" stroke="midnightblue" d="M277.933,-55.4127C309.87,-45.0646 353.196,-31.0258 382.524,-21.5231"/>
<polygon fill="midnightblue" stroke="midnightblue" points="276.85,-52.0845 268.416,-58.4966 279.008,-58.7437 276.85,-52.0845"/>
</g>
</g>
</svg>
