<?xml version="1.0" encoding="UTF-8" standalone="no"?>
<!DOCTYPE svg PUBLIC "-//W3C//DTD SVG 1.1//EN"
 "http://www.w3.org/Graphics/SVG/1.1/DTD/svg11.dtd">
<!-- Generated by graphviz version 2.26.0 (20091210.2329)
 -->
<!-- Title: EMSurfaceTranslator Pages: 1 -->
<svg width="664pt" height="150pt"
 viewBox="0.00 0.00 664.00 150.00" xmlns="http://www.w3.org/2000/svg" xmlns:xlink="http://www.w3.org/1999/xlink">
<g id="graph1" class="graph" transform="scale(1 1) rotate(0) translate(4 146)">
<title>EMSurfaceTranslator</title>
<polygon fill="white" stroke="white" points="-4,5 -4,-146 661,-146 661,5 -4,5"/>
<!-- Node1 -->
<g id="node1" class="node"><title>Node1</title>
<polygon fill="#bfbfbf" stroke="black" points="198.5,-40.5 198.5,-61.5 307.5,-61.5 307.5,-40.5 198.5,-40.5"/>
<text text-anchor="middle" x="253" y="-48.5" font-family="Helvetica,sans-Serif" font-size="10.00">EMSurfaceTranslator</text>
</g>
<!-- Node4 -->
<g id="node7" class="node"><title>Node4</title>
<a xlink:href="classdgbEMSurfaceTranslator.html" target="_top" xlink:title="dgb EMSurfaceTranslator ">
<polygon fill="white" stroke="black" points="344.5,-60.5 344.5,-81.5 469.5,-81.5 469.5,-60.5 344.5,-60.5"/>
<text text-anchor="middle" x="407" y="-68.5" font-family="Helvetica,sans-Serif" font-size="10.00">dgbEMSurfaceTranslator</text>
</a>
</g>
<!-- Node1&#45;&gt;Node4 -->
<g id="edge6" class="edge"><title>Node1&#45;&gt;Node4</title>
<path fill="none" stroke="midnightblue" d="M317.876,-59.4255C326.629,-60.5621 335.595,-61.7267 344.309,-62.8582"/>
<polygon fill="midnightblue" stroke="midnightblue" points="318.096,-55.9247 307.728,-58.1076 317.194,-62.8664 318.096,-55.9247"/>
</g>
<!-- Node9 -->
<g id="node17" class="node"><title>Node9</title>
<a xlink:href="classlmkEMFault3DTranslator.html" target="_top" xlink:title="Landmark EM::Fault3D EMSurfaceTranslator. ">
<polygon fill="white" stroke="black" points="344.5,-20.5 344.5,-41.5 469.5,-41.5 469.5,-20.5 344.5,-20.5"/>
<text text-anchor="middle" x="407" y="-28.5" font-family="Helvetica,sans-Serif" font-size="10.00">lmkEMFault3DTranslator</text>
</a>
</g>
<!-- Node1&#45;&gt;Node9 -->
<g id="edge16" class="edge"><title>Node1&#45;&gt;Node9</title>
<path fill="none" stroke="midnightblue" d="M317.876,-42.5745C326.629,-41.4379 335.595,-40.2733 344.309,-39.1418"/>
<polygon fill="midnightblue" stroke="midnightblue" points="317.194,-39.1336 307.728,-43.8924 318.096,-46.0753 317.194,-39.1336"/>
</g>
<!-- Node2 -->
<g id="node2" class="node"><title>Node2</title>
<a xlink:href="classTranslator.html" target="_top" xlink:title="I/O Interpreter class for a certain object type. ">
<polygon fill="white" stroke="black" points="102,-40.5 102,-61.5 162,-61.5 162,-40.5 102,-40.5"/>
<text text-anchor="middle" x="132" y="-48.5" font-family="Helvetica,sans-Serif" font-size="10.00">Translator</text>
</a>
</g>
<!-- Node2&#45;&gt;Node1 -->
<g id="edge2" class="edge"><title>Node2&#45;&gt;Node1</title>
<path fill="none" stroke="midnightblue" d="M172.361,-51C180.649,-51 189.507,-51 198.206,-51"/>
<polygon fill="midnightblue" stroke="midnightblue" points="172.221,-47.5001 162.221,-51 172.221,-54.5001 172.221,-47.5001"/>
</g>
<!-- Node3 -->
<g id="node4" class="node"><title>Node3</title>
<a xlink:href="classCallBacker.html" target="_top" xlink:title="To be able to send and/or receive CallBacks, inherit from this class. ">
<polygon fill="white" stroke="black" points="0.5,-40.5 0.5,-61.5 65.5,-61.5 65.5,-40.5 0.5,-40.5"/>
<text text-anchor="middle" x="33" y="-48.5" font-family="Helvetica,sans-Serif" font-size="10.00">CallBacker</text>
</a>
</g>
<!-- Node3&#45;&gt;Node2 -->
<g id="edge4" class="edge"><title>Node3&#45;&gt;Node2</title>
<path fill="none" stroke="midnightblue" d="M75.745,-51C84.4785,-51 93.498,-51 101.688,-51"/>
<polygon fill="midnightblue" stroke="midnightblue" points="75.6907,-47.5001 65.6907,-51 75.6906,-54.5001 75.6907,-47.5001"/>
</g>
<!-- Node5 -->
<g id="node9" class="node"><title>Node5</title>
<a xlink:href="classdgbEMFault3DTranslator.html" target="_top" xlink:title="dgbEMSurfaceTranslator for EM::Fault3D. ">
<polygon fill="white" stroke="black" points="518.5,-120.5 518.5,-141.5 643.5,-141.5 643.5,-120.5 518.5,-120.5"/>
<text text-anchor="middle" x="581" y="-128.5" font-family="Helvetica,sans-Serif" font-size="10.00">dgbEMFault3DTranslator</text>
</a>
</g>
<!-- Node4&#45;&gt;Node5 -->
<g id="edge8" class="edge"><title>Node4&#45;&gt;Node5</title>
<path fill="none" stroke="midnightblue" d="M440.122,-85.5763C459.176,-93.6587 483.69,-103.55 506,-111 516.226,-114.415 527.384,-117.648 537.895,-120.481"/>
<polygon fill="midnightblue" stroke="midnightblue" points="441.267,-82.2592 430.697,-81.5372 438.51,-88.6933 441.267,-82.2592"/>
</g>
<!-- Node6 -->
<g id="node11" class="node"><title>Node6</title>
<a xlink:href="classdgbEMFaultStickSetTranslator.html" target="_top" xlink:title="dgbEMSurfaceTranslator for EM::FaultStickSet. ">
<polygon fill="white" stroke="black" points="506,-80.5 506,-101.5 656,-101.5 656,-80.5 506,-80.5"/>
<text text-anchor="middle" x="581" y="-88.5" font-family="Helvetica,sans-Serif" font-size="10.00">dgbEMFaultStickSetTranslator</text>
</a>
</g>
<!-- Node4&#45;&gt;Node6 -->
<g id="edge10" class="edge"><title>Node4&#45;&gt;Node6</title>
<path fill="none" stroke="midnightblue" d="M479.803,-79.3682C488.401,-80.3565 497.189,-81.3666 505.819,-82.3586"/>
<polygon fill="midnightblue" stroke="midnightblue" points="480.152,-75.8853 469.818,-78.2205 479.353,-82.8396 480.152,-75.8853"/>
</g>
<!-- Node7 -->
<g id="node13" class="node"><title>Node7</title>
<a xlink:href="classdgbEMHorizon2DTranslator.html" target="_top" xlink:title="dgbEMSurfaceTranslator for EM::Horizon2D. ">
<polygon fill="white" stroke="black" points="512.5,-40.5 512.5,-61.5 649.5,-61.5 649.5,-40.5 512.5,-40.5"/>
<text text-anchor="middle" x="581" y="-48.5" font-family="Helvetica,sans-Serif" font-size="10.00">dgbEMHorizon2DTranslator</text>
</a>
</g>
<!-- Node4&#45;&gt;Node7 -->
<g id="edge12" class="edge"><title>Node4&#45;&gt;Node7</title>
<path fill="none" stroke="midnightblue" d="M479.995,-62.6098C490.726,-61.3764 501.748,-60.1094 512.387,-58.8866"/>
<polygon fill="midnightblue" stroke="midnightblue" points="479.353,-59.1604 469.818,-63.7795 480.152,-66.1147 479.353,-59.1604"/>
</g>
<!-- Node8 -->
<g id="node15" class="node"><title>Node8</title>
<a xlink:href="classdgbEMHorizon3DTranslator.html" target="_top" xlink:title="dgbEMSurfaceTranslator for EM::Horizon3D. ">
<polygon fill="white" stroke="black" points="512.5,-0.5 512.5,-21.5 649.5,-21.5 649.5,-0.5 512.5,-0.5"/>
<text text-anchor="middle" x="581" y="-8.5" font-family="Helvetica,sans-Serif" font-size="10.00">dgbEMHorizon3DTranslator</text>
</a>
</g>
<!-- Node4&#45;&gt;Node8 -->
<g id="edge14" class="edge"><title>Node4&#45;&gt;Node8</title>
<path fill="none" stroke="midnightblue" d="M454.127,-57.1815C459.538,-55.2592 464.929,-53.1874 470,-51 486.806,-43.7503 489.029,-37.8545 506,-31 514.997,-27.3664 524.865,-24.1947 534.404,-21.5125"/>
<polygon fill="midnightblue" stroke="midnightblue" points="452.774,-53.9445 444.43,-60.473 455.024,-60.5731 452.774,-53.9445"/>
</g>
</g>
</svg>
