<?xml version="1.0" encoding="UTF-8" standalone="no"?>
<!DOCTYPE svg PUBLIC "-//W3C//DTD SVG 1.1//EN"
 "http://www.w3.org/Graphics/SVG/1.1/DTD/svg11.dtd">
<!-- Generated by graphviz version 2.26.0 (20091210.2329)
 -->
<!-- Title: Well::DahObj Pages: 1 -->
<svg width="400pt" height="218pt"
 viewBox="0.00 0.00 400.00 218.00" xmlns="http://www.w3.org/2000/svg" xmlns:xlink="http://www.w3.org/1999/xlink">
<g id="graph1" class="graph" transform="scale(1 1) rotate(0) translate(4 214)">
<title>Well::DahObj</title>
<polygon fill="white" stroke="white" points="-4,5 -4,-214 397,-214 397,5 -4,5"/>
<!-- Node1 -->
<g id="node1" class="node"><title>Node1</title>
<polygon fill="#bfbfbf" stroke="black" points="135.5,-72.5 135.5,-93.5 210.5,-93.5 210.5,-72.5 135.5,-72.5"/>
<text text-anchor="middle" x="173" y="-80.5" font-family="Helvetica,sans-Serif" font-size="10.00">Well::DahObj</text>
</g>
<!-- Node4 -->
<g id="node7" class="node"><title>Node4</title>
<a xlink:href="classWell_1_1D2TModel.html" target="_top" xlink:title="Depth to time model. ">
<polygon fill="white" stroke="black" points="-0.5,-7.5 -0.5,-28.5 86.5,-28.5 86.5,-7.5 -0.5,-7.5"/>
<text text-anchor="middle" x="43" y="-15.5" font-family="Helvetica,sans-Serif" font-size="10.00">Well::D2TModel</text>
</a>
</g>
<!-- Node1&#45;&gt;Node4 -->
<g id="edge6" class="edge"><title>Node1&#45;&gt;Node4</title>
<path fill="none" stroke="midnightblue" d="M142.75,-67.8751C118.644,-55.8219 85.5051,-39.2525 64.167,-28.5835"/>
<polygon fill="midnightblue" stroke="midnightblue" points="141.314,-71.0703 151.824,-72.412 144.445,-64.8093 141.314,-71.0703"/>
</g>
<!-- Node5 -->
<g id="node9" class="node"><title>Node5</title>
<a xlink:href="classWell_1_1Log.html" target="_top" xlink:title="Well log. ">
<polygon fill="white" stroke="black" points="104,-7.5 104,-28.5 162,-28.5 162,-7.5 104,-7.5"/>
<text text-anchor="middle" x="133" y="-15.5" font-family="Helvetica,sans-Serif" font-size="10.00">Well::Log</text>
</a>
</g>
<!-- Node1&#45;&gt;Node5 -->
<g id="edge8" class="edge"><title>Node1&#45;&gt;Node5</title>
<path fill="none" stroke="midnightblue" d="M161.15,-63.7437C154.061,-52.2248 145.325,-38.0283 139.482,-28.5337"/>
<polygon fill="midnightblue" stroke="midnightblue" points="158.173,-65.5843 166.395,-72.2666 164.135,-61.9156 158.173,-65.5843"/>
</g>
<!-- Node6 -->
<g id="node11" class="node"><title>Node6</title>
<a xlink:href="classWell_1_1Track.html" target="_top" xlink:title="Well track. ">
<polygon fill="white" stroke="black" points="179.5,-7.5 179.5,-28.5 246.5,-28.5 246.5,-7.5 179.5,-7.5"/>
<text text-anchor="middle" x="213" y="-15.5" font-family="Helvetica,sans-Serif" font-size="10.00">Well::Track</text>
</a>
</g>
<!-- Node1&#45;&gt;Node6 -->
<g id="edge10" class="edge"><title>Node1&#45;&gt;Node6</title>
<path fill="none" stroke="midnightblue" d="M184.85,-63.7437C191.939,-52.2248 200.675,-38.0283 206.518,-28.5337"/>
<polygon fill="midnightblue" stroke="midnightblue" points="181.865,-61.9156 179.605,-72.2666 187.827,-65.5843 181.865,-61.9156"/>
</g>
<!-- Node7 -->
<g id="node13" class="node"><title>Node7</title>
<a xlink:href="classWellTie_1_1uiCheckShotEdit_1_1DriftCurve.html" target="_top" xlink:title="WellTie::uiCheckShotEdit\l::DriftCurve">
<polygon fill="white" stroke="black" points="263.5,-1 263.5,-35 392.5,-35 392.5,-1 263.5,-1"/>
<text text-anchor="start" x="271.5" y="-22" font-family="Helvetica,sans-Serif" font-size="10.00">WellTie::uiCheckShotEdit</text>
<text text-anchor="middle" x="328" y="-9" font-family="Helvetica,sans-Serif" font-size="10.00">::DriftCurve</text>
</a>
</g>
<!-- Node1&#45;&gt;Node7 -->
<g id="edge12" class="edge"><title>Node1&#45;&gt;Node7</title>
<path fill="none" stroke="midnightblue" d="M207.523,-68.5225C231.124,-58.6253 262.501,-45.4672 287.318,-35.0604"/>
<polygon fill="midnightblue" stroke="midnightblue" points="206.117,-65.317 198.248,-72.412 208.824,-71.7723 206.117,-65.317"/>
</g>
<!-- Node2 -->
<g id="node2" class="node"><title>Node2</title>
<a xlink:href="classNamedObject.html" target="_top" xlink:title="Object with a name. ">
<polygon fill="white" stroke="black" points="134.5,-130.5 134.5,-151.5 211.5,-151.5 211.5,-130.5 134.5,-130.5"/>
<text text-anchor="middle" x="173" y="-138.5" font-family="Helvetica,sans-Serif" font-size="10.00">NamedObject</text>
</a>
</g>
<!-- Node2&#45;&gt;Node1 -->
<g id="edge2" class="edge"><title>Node2&#45;&gt;Node1</title>
<path fill="none" stroke="midnightblue" d="M173,-120.191C173,-111.168 173,-100.994 173,-93.5707"/>
<polygon fill="midnightblue" stroke="midnightblue" points="169.5,-120.362 173,-130.362 176.5,-120.362 169.5,-120.362"/>
</g>
<!-- Node3 -->
<g id="node4" class="node"><title>Node3</title>
<a xlink:href="classCallBacker.html" target="_top" xlink:title="To be able to send and/or receive CallBacks, inherit from this class. ">
<polygon fill="white" stroke="black" points="140.5,-188.5 140.5,-209.5 205.5,-209.5 205.5,-188.5 140.5,-188.5"/>
<text text-anchor="middle" x="173" y="-196.5" font-family="Helvetica,sans-Serif" font-size="10.00">CallBacker</text>
</a>
</g>
<!-- Node3&#45;&gt;Node2 -->
<g id="edge4" class="edge"><title>Node3&#45;&gt;Node2</title>
<path fill="none" stroke="midnightblue" d="M173,-178.191C173,-169.168 173,-158.994 173,-151.571"/>
<polygon fill="midnightblue" stroke="midnightblue" points="169.5,-178.362 173,-188.362 176.5,-178.362 169.5,-178.362"/>
</g>
</g>
</svg>
