<?xml version="1.0" encoding="UTF-8" standalone="no"?>
<!DOCTYPE svg PUBLIC "-//W3C//DTD SVG 1.1//EN"
 "http://www.w3.org/Graphics/SVG/1.1/DTD/svg11.dtd">
<!-- Generated by graphviz version 2.26.0 (20091210.2329)
 -->
<!-- Title: uiIOSelect Pages: 1 -->
<svg width="422pt" height="436pt"
 viewBox="0.00 0.00 422.00 436.00" xmlns="http://www.w3.org/2000/svg" xmlns:xlink="http://www.w3.org/1999/xlink">
<g id="graph1" class="graph" transform="scale(1 1) rotate(0) translate(4 432)">
<title>uiIOSelect</title>
<polygon fill="white" stroke="white" points="-4,5 -4,-432 419,-432 419,5 -4,5"/>
<!-- Node1 -->
<g id="node1" class="node"><title>Node1</title>
<polygon fill="#bfbfbf" stroke="black" points="141,-232.5 141,-253.5 203,-253.5 203,-232.5 141,-232.5"/>
<text text-anchor="middle" x="172" y="-240.5" font-family="Helvetica,sans-Serif" font-size="10.00">uiIOSelect</text>
</g>
<!-- Node5 -->
<g id="node9" class="node"><title>Node5</title>
<a xlink:href="classuiAttrSel.html" target="_top" xlink:title="User interface element for storing attribute desc selection. ">
<polygon fill="white" stroke="black" points="14,-174.5 14,-195.5 68,-195.5 68,-174.5 14,-174.5"/>
<text text-anchor="middle" x="41" y="-182.5" font-family="Helvetica,sans-Serif" font-size="10.00">uiAttrSel</text>
</a>
</g>
<!-- Node1&#45;&gt;Node5 -->
<g id="edge8" class="edge"><title>Node1&#45;&gt;Node5</title>
<path fill="none" stroke="midnightblue" d="M138.896,-228.343C115.874,-218.15 85.7154,-204.798 64.9893,-195.621"/>
<polygon fill="midnightblue" stroke="midnightblue" points="137.716,-231.649 148.277,-232.497 140.55,-225.248 137.716,-231.649"/>
</g>
<!-- Node7 -->
<g id="node13" class="node"><title>Node7</title>
<a xlink:href="classuiIOFileSelect.html" target="_top" xlink:title="uiIOFileSelect">
<polygon fill="white" stroke="black" points="89,-174.5 89,-195.5 167,-195.5 167,-174.5 89,-174.5"/>
<text text-anchor="middle" x="128" y="-182.5" font-family="Helvetica,sans-Serif" font-size="10.00">uiIOFileSelect</text>
</a>
</g>
<!-- Node1&#45;&gt;Node7 -->
<g id="edge12" class="edge"><title>Node1&#45;&gt;Node7</title>
<path fill="none" stroke="midnightblue" d="M157.776,-224.25C150.569,-214.75 142.084,-203.565 136.019,-195.571"/>
<polygon fill="midnightblue" stroke="midnightblue" points="155.097,-226.51 163.93,-232.362 160.674,-222.28 155.097,-226.51"/>
</g>
<!-- Node8 -->
<g id="node15" class="node"><title>Node8</title>
<a xlink:href="classuiIOObjSel.html" target="_top" xlink:title="User Interface (UI) element for selection of IOObjs. ">
<polygon fill="white" stroke="black" points="185,-174.5 185,-195.5 249,-195.5 249,-174.5 185,-174.5"/>
<text text-anchor="middle" x="217" y="-182.5" font-family="Helvetica,sans-Serif" font-size="10.00">uiIOObjSel</text>
</a>
</g>
<!-- Node1&#45;&gt;Node8 -->
<g id="edge14" class="edge"><title>Node1&#45;&gt;Node8</title>
<path fill="none" stroke="midnightblue" d="M186.547,-224.25C193.918,-214.75 202.596,-203.565 208.799,-195.571"/>
<polygon fill="midnightblue" stroke="midnightblue" points="183.618,-222.316 180.254,-232.362 189.149,-226.607 183.618,-222.316"/>
</g>
<!-- Node16 -->
<g id="node31" class="node"><title>Node16</title>
<a xlink:href="classuiSurveySelect.html" target="_top" xlink:title="uiSurveySelect">
<polygon fill="white" stroke="black" points="266.5,-174.5 266.5,-195.5 349.5,-195.5 349.5,-174.5 266.5,-174.5"/>
<text text-anchor="middle" x="308" y="-182.5" font-family="Helvetica,sans-Serif" font-size="10.00">uiSurveySelect</text>
</a>
</g>
<!-- Node1&#45;&gt;Node16 -->
<g id="edge30" class="edge"><title>Node1&#45;&gt;Node16</title>
<path fill="none" stroke="midnightblue" d="M206.048,-228.479C229.989,-218.269 261.482,-204.839 283.095,-195.621"/>
<polygon fill="midnightblue" stroke="midnightblue" points="204.454,-225.354 196.629,-232.497 207.2,-231.793 204.454,-225.354"/>
</g>
<!-- Node2 -->
<g id="node2" class="node"><title>Node2</title>
<a xlink:href="classuiGroup.html" target="_top" xlink:title="uiGroup">
<polygon fill="white" stroke="black" points="147,-290.5 147,-311.5 197,-311.5 197,-290.5 147,-290.5"/>
<text text-anchor="middle" x="172" y="-298.5" font-family="Helvetica,sans-Serif" font-size="10.00">uiGroup</text>
</a>
</g>
<!-- Node2&#45;&gt;Node1 -->
<g id="edge2" class="edge"><title>Node2&#45;&gt;Node1</title>
<path fill="none" stroke="midnightblue" d="M172,-280.191C172,-271.168 172,-260.994 172,-253.571"/>
<polygon fill="midnightblue" stroke="midnightblue" points="168.5,-280.362 172,-290.362 175.5,-280.362 168.5,-280.362"/>
</g>
<!-- Node3 -->
<g id="node4" class="node"><title>Node3</title>
<a xlink:href="classuiParent.html" target="_top" xlink:title="uiParent">
<polygon fill="white" stroke="black" points="145.5,-348.5 145.5,-369.5 198.5,-369.5 198.5,-348.5 145.5,-348.5"/>
<text text-anchor="middle" x="172" y="-356.5" font-family="Helvetica,sans-Serif" font-size="10.00">uiParent</text>
</a>
</g>
<!-- Node3&#45;&gt;Node2 -->
<g id="edge4" class="edge"><title>Node3&#45;&gt;Node2</title>
<path fill="none" stroke="midnightblue" d="M172,-338.191C172,-329.168 172,-318.994 172,-311.571"/>
<polygon fill="midnightblue" stroke="midnightblue" points="168.5,-338.362 172,-348.362 175.5,-338.362 168.5,-338.362"/>
</g>
<!-- Node4 -->
<g id="node6" class="node"><title>Node4</title>
<polygon fill="white" stroke="#bfbfbf" points="134.5,-406.5 134.5,-427.5 209.5,-427.5 209.5,-406.5 134.5,-406.5"/>
<text text-anchor="middle" x="172" y="-414.5" font-family="Helvetica,sans-Serif" font-size="10.00">uiBaseObject</text>
</g>
<!-- Node4&#45;&gt;Node3 -->
<g id="edge6" class="edge"><title>Node4&#45;&gt;Node3</title>
<path fill="none" stroke="midnightblue" d="M172,-396.191C172,-387.168 172,-376.994 172,-369.571"/>
<polygon fill="midnightblue" stroke="midnightblue" points="168.5,-396.362 172,-406.362 175.5,-396.362 168.5,-396.362"/>
</g>
<!-- Node6 -->
<g id="node11" class="node"><title>Node6</title>
<a xlink:href="classuiImagAttrSel.html" target="_top" xlink:title="User interface element for getting attribute with both real and imaginary part. ">
<polygon fill="white" stroke="black" points="0,-116.5 0,-137.5 76,-137.5 76,-116.5 0,-116.5"/>
<text text-anchor="middle" x="38" y="-124.5" font-family="Helvetica,sans-Serif" font-size="10.00">uiImagAttrSel</text>
</a>
</g>
<!-- Node5&#45;&gt;Node6 -->
<g id="edge10" class="edge"><title>Node5&#45;&gt;Node6</title>
<path fill="none" stroke="midnightblue" d="M39.9237,-164.191C39.457,-155.168 38.9307,-144.994 38.5468,-137.571"/>
<polygon fill="midnightblue" stroke="midnightblue" points="36.4378,-164.556 40.4498,-174.362 43.4284,-164.194 36.4378,-164.556"/>
</g>
<!-- Node9 -->
<g id="node17" class="node"><title>Node9</title>
<a xlink:href="classuiGeom2DSel.html" target="_top" xlink:title="uiGeom2DSel">
<polygon fill="white" stroke="black" points="93.5,-116.5 93.5,-137.5 170.5,-137.5 170.5,-116.5 93.5,-116.5"/>
<text text-anchor="middle" x="132" y="-124.5" font-family="Helvetica,sans-Serif" font-size="10.00">uiGeom2DSel</text>
</a>
</g>
<!-- Node8&#45;&gt;Node9 -->
<g id="edge16" class="edge"><title>Node8&#45;&gt;Node9</title>
<path fill="none" stroke="midnightblue" d="M192.879,-168.541C178.306,-158.597 160.164,-146.218 147.491,-137.571"/>
<polygon fill="midnightblue" stroke="midnightblue" points="191.177,-171.617 201.41,-174.362 195.122,-165.834 191.177,-171.617"/>
</g>
<!-- Node10 -->
<g id="node19" class="node"><title>Node10</title>
<a xlink:href="classuiSeisSel.html" target="_top" xlink:title="uiSeisSel">
<polygon fill="white" stroke="black" points="188,-116.5 188,-137.5 246,-137.5 246,-116.5 188,-116.5"/>
<text text-anchor="middle" x="217" y="-124.5" font-family="Helvetica,sans-Serif" font-size="10.00">uiSeisSel</text>
</a>
</g>
<!-- Node8&#45;&gt;Node10 -->
<g id="edge18" class="edge"><title>Node8&#45;&gt;Node10</title>
<path fill="none" stroke="midnightblue" d="M217,-164.191C217,-155.168 217,-144.994 217,-137.571"/>
<polygon fill="midnightblue" stroke="midnightblue" points="213.5,-164.362 217,-174.362 220.5,-164.362 213.5,-164.362"/>
</g>
<!-- Node14 -->
<g id="node27" class="node"><title>Node14</title>
<a xlink:href="classuiWaveletSel.html" target="_top" xlink:title="uiWaveletSel">
<polygon fill="white" stroke="black" points="264,-116.5 264,-137.5 338,-137.5 338,-116.5 264,-116.5"/>
<text text-anchor="middle" x="301" y="-124.5" font-family="Helvetica,sans-Serif" font-size="10.00">uiWaveletSel</text>
</a>
</g>
<!-- Node8&#45;&gt;Node14 -->
<g id="edge26" class="edge"><title>Node8&#45;&gt;Node14</title>
<path fill="none" stroke="midnightblue" d="M240.838,-168.541C255.238,-158.597 273.167,-146.218 285.691,-137.571"/>
<polygon fill="midnightblue" stroke="midnightblue" points="238.647,-165.8 232.407,-174.362 242.625,-171.56 238.647,-165.8"/>
</g>
<!-- Node15 -->
<g id="node29" class="node"><title>Node15</title>
<a xlink:href="classuiWellSel.html" target="_top" xlink:title="uiWellSel">
<polygon fill="white" stroke="black" points="356,-116.5 356,-137.5 414,-137.5 414,-116.5 356,-116.5"/>
<text text-anchor="middle" x="385" y="-124.5" font-family="Helvetica,sans-Serif" font-size="10.00">uiWellSel</text>
</a>
</g>
<!-- Node8&#45;&gt;Node15 -->
<g id="edge28" class="edge"><title>Node8&#45;&gt;Node15</title>
<path fill="none" stroke="midnightblue" d="M256.896,-171.226C287.334,-160.718 328.557,-146.486 355.927,-137.037"/>
<polygon fill="midnightblue" stroke="midnightblue" points="255.734,-167.925 247.424,-174.497 258.018,-174.542 255.734,-167.925"/>
</g>
<!-- Node11 -->
<g id="node21" class="node"><title>Node11</title>
<a xlink:href="classuiSteerCubeSel.html" target="_top" xlink:title="uiSteerCubeSel">
<polygon fill="white" stroke="black" points="131.5,-58.5 131.5,-79.5 216.5,-79.5 216.5,-58.5 131.5,-58.5"/>
<text text-anchor="middle" x="174" y="-66.5" font-family="Helvetica,sans-Serif" font-size="10.00">uiSteerCubeSel</text>
</a>
</g>
<!-- Node10&#45;&gt;Node11 -->
<g id="edge20" class="edge"><title>Node10&#45;&gt;Node11</title>
<path fill="none" stroke="midnightblue" d="M203.099,-108.25C196.056,-98.75 187.764,-87.5651 181.837,-79.5707"/>
<polygon fill="midnightblue" stroke="midnightblue" points="200.346,-110.413 209.113,-116.362 205.969,-106.244 200.346,-110.413"/>
</g>
<!-- Node13 -->
<g id="node25" class="node"><title>Node13</title>
<a xlink:href="classuiVelSel.html" target="_top" xlink:title="Field that selects a velocity volume, and edit it&#39;s properties/velocity tag. ">
<polygon fill="white" stroke="black" points="233.5,-58.5 233.5,-79.5 286.5,-79.5 286.5,-58.5 233.5,-58.5"/>
<text text-anchor="middle" x="260" y="-66.5" font-family="Helvetica,sans-Serif" font-size="10.00">uiVelSel</text>
</a>
</g>
<!-- Node10&#45;&gt;Node13 -->
<g id="edge24" class="edge"><title>Node10&#45;&gt;Node13</title>
<path fill="none" stroke="midnightblue" d="M230.901,-108.25C237.944,-98.75 246.236,-87.5651 252.163,-79.5707"/>
<polygon fill="midnightblue" stroke="midnightblue" points="228.031,-106.244 224.887,-116.362 233.654,-110.413 228.031,-106.244"/>
</g>
<!-- Node12 -->
<g id="node23" class="node"><title>Node12</title>
<a xlink:href="classuiSteerAttrSel.html" target="_top" xlink:title="uiSteerAttrSel">
<polygon fill="white" stroke="black" points="135.5,-0.5 135.5,-21.5 212.5,-21.5 212.5,-0.5 135.5,-0.5"/>
<text text-anchor="middle" x="174" y="-8.5" font-family="Helvetica,sans-Serif" font-size="10.00">uiSteerAttrSel</text>
</a>
</g>
<!-- Node11&#45;&gt;Node12 -->
<g id="edge22" class="edge"><title>Node11&#45;&gt;Node12</title>
<path fill="none" stroke="midnightblue" d="M174,-48.1906C174,-39.1684 174,-28.9941 174,-21.5707"/>
<polygon fill="midnightblue" stroke="midnightblue" points="170.5,-48.3619 174,-58.3619 177.5,-48.3619 170.5,-48.3619"/>
</g>
</g>
</svg>
