<?xml version="1.0" encoding="UTF-8" standalone="no"?>
<!DOCTYPE svg PUBLIC "-//W3C//DTD SVG 1.1//EN"
 "http://www.w3.org/Graphics/SVG/1.1/DTD/svg11.dtd">
<!-- Generated by graphviz version 2.26.0 (20091210.2329)
 -->
<!-- Title: CmdDrive::Classifier Pages: 1 -->
<svg width="344pt" height="822pt"
 viewBox="0.00 0.00 344.00 822.00" xmlns="http://www.w3.org/2000/svg" xmlns:xlink="http://www.w3.org/1999/xlink">
<g id="graph1" class="graph" transform="scale(1 1) rotate(0) translate(4 818)">
<title>CmdDrive::Classifier</title>
<polygon fill="white" stroke="white" points="-4,5 -4,-818 341,-818 341,5 -4,5"/>
<!-- Node1 -->
<g id="node1" class="node"><title>Node1</title>
<polygon fill="#bfbfbf" stroke="black" points="0,-396.5 0,-417.5 108,-417.5 108,-396.5 0,-396.5"/>
<text text-anchor="middle" x="54" y="-404.5" font-family="Helvetica,sans-Serif" font-size="10.00">CmdDrive::Classifier</text>
</g>
<!-- Node2 -->
<g id="node3" class="node"><title>Node2</title>
<a xlink:href="classCmdDrive_1_1ButtonCmdComposer_1_1uiButtonClassifier.html" target="_top" xlink:title="CmdDrive::ButtonCmdComposer\l::uiButtonClassifier">
<polygon fill="white" stroke="black" points="159.5,-780 159.5,-814 320.5,-814 320.5,-780 159.5,-780"/>
<text text-anchor="start" x="167.5" y="-801" font-family="Helvetica,sans-Serif" font-size="10.00">CmdDrive::ButtonCmdComposer</text>
<text text-anchor="middle" x="240" y="-788" font-family="Helvetica,sans-Serif" font-size="10.00">::uiButtonClassifier</text>
</a>
</g>
<!-- Node1&#45;&gt;Node2 -->
<g id="edge2" class="edge"><title>Node1&#45;&gt;Node2</title>
<path fill="none" stroke="midnightblue" d="M56.3619,-427.68C64.7043,-497.19 94.9521,-720.856 144,-771 148.467,-775.567 153.649,-779.357 159.245,-782.5"/>
<polygon fill="midnightblue" stroke="midnightblue" points="59.816,-427.085 55.1728,-417.561 52.8639,-427.902 59.816,-427.085"/>
</g>
<!-- Node3 -->
<g id="node5" class="node"><title>Node3</title>
<a xlink:href="classCmdDrive_1_1CanvasMenuCmdComposer_1_1uiGraphicsViewBaseClassifier.html" target="_top" xlink:title="CmdDrive::CanvasMenuCmdComposer\l::uiGraphicsViewBaseClassifier">
<polygon fill="white" stroke="black" points="144.5,-728 144.5,-762 335.5,-762 335.5,-728 144.5,-728"/>
<text text-anchor="start" x="152.5" y="-749" font-family="Helvetica,sans-Serif" font-size="10.00">CmdDrive::CanvasMenuCmdComposer</text>
<text text-anchor="middle" x="240" y="-736" font-family="Helvetica,sans-Serif" font-size="10.00">::uiGraphicsViewBaseClassifier</text>
</a>
</g>
<!-- Node1&#45;&gt;Node3 -->
<g id="edge4" class="edge"><title>Node1&#45;&gt;Node3</title>
<path fill="none" stroke="midnightblue" d="M57.2495,-427.541C67.5539,-490.177 101.349,-677.041 144,-719 147.447,-722.391 151.288,-725.351 155.396,-727.934"/>
<polygon fill="midnightblue" stroke="midnightblue" points="60.7032,-426.973 55.6507,-417.661 53.7931,-428.091 60.7032,-426.973"/>
</g>
<!-- Node4 -->
<g id="node7" class="node"><title>Node4</title>
<a xlink:href="classCmdDrive_1_1CloseCmdComposer_1_1uiMainWinClassifier.html" target="_top" xlink:title="CmdDrive::CloseCmdComposer\l::uiMainWinClassifier">
<polygon fill="white" stroke="black" points="161,-676 161,-710 319,-710 319,-676 161,-676"/>
<text text-anchor="start" x="169" y="-697" font-family="Helvetica,sans-Serif" font-size="10.00">CmdDrive::CloseCmdComposer</text>
<text text-anchor="middle" x="240" y="-684" font-family="Helvetica,sans-Serif" font-size="10.00">::uiMainWinClassifier</text>
</a>
</g>
<!-- Node1&#45;&gt;Node4 -->
<g id="edge6" class="edge"><title>Node1&#45;&gt;Node4</title>
<path fill="none" stroke="midnightblue" d="M54.8748,-427.519C58.1017,-476.471 73.2195,-600.926 144,-667 148.923,-671.595 154.573,-675.394 160.616,-678.532"/>
<polygon fill="midnightblue" stroke="midnightblue" points="58.3685,-427.307 54.3165,-417.518 51.3794,-427.697 58.3685,-427.307"/>
</g>
<!-- Node5 -->
<g id="node9" class="node"><title>Node5</title>
<a xlink:href="classCmdDrive_1_1ComboCmdComposer_1_1uiComboBoxClassifier.html" target="_top" xlink:title="CmdDrive::ComboCmdComposer\l::uiComboBoxClassifier">
<polygon fill="white" stroke="black" points="158,-624 158,-658 322,-658 322,-624 158,-624"/>
<text text-anchor="start" x="166" y="-645" font-family="Helvetica,sans-Serif" font-size="10.00">CmdDrive::ComboCmdComposer</text>
<text text-anchor="middle" x="240" y="-632" font-family="Helvetica,sans-Serif" font-size="10.00">::uiComboBoxClassifier</text>
</a>
</g>
<!-- Node1&#45;&gt;Node5 -->
<g id="edge8" class="edge"><title>Node1&#45;&gt;Node5</title>
<path fill="none" stroke="midnightblue" d="M56.902,-427.587C63.9047,-469.389 85.6817,-564.522 144,-615 148.178,-618.616 152.811,-621.735 157.721,-624.423"/>
<polygon fill="midnightblue" stroke="midnightblue" points="60.3296,-426.851 55.3316,-417.509 53.4131,-427.929 60.3296,-426.851"/>
</g>
<!-- Node6 -->
<g id="node11" class="node"><title>Node6</title>
<a xlink:href="classCmdDrive_1_1InputCmdComposer_1_1uiLineEditClassifier.html" target="_top" xlink:title="CmdDrive::InputCmdComposer\l::uiLineEditClassifier">
<polygon fill="white" stroke="black" points="162.5,-572 162.5,-606 317.5,-606 317.5,-572 162.5,-572"/>
<text text-anchor="start" x="170.5" y="-593" font-family="Helvetica,sans-Serif" font-size="10.00">CmdDrive::InputCmdComposer</text>
<text text-anchor="middle" x="240" y="-580" font-family="Helvetica,sans-Serif" font-size="10.00">::uiLineEditClassifier</text>
</a>
</g>
<!-- Node1&#45;&gt;Node6 -->
<g id="edge10" class="edge"><title>Node1&#45;&gt;Node6</title>
<path fill="none" stroke="midnightblue" d="M60.0302,-427.232C71.0619,-460.689 97.7195,-527.377 144,-563 149.61,-567.318 155.886,-570.92 162.469,-573.924"/>
<polygon fill="midnightblue" stroke="midnightblue" points="63.3429,-426.1 56.9924,-417.619 56.6682,-428.209 63.3429,-426.1"/>
</g>
<!-- Node7 -->
<g id="node13" class="node"><title>Node7</title>
<a xlink:href="classCmdDrive_1_1ListCmdComposer_1_1uiListBoxObjClassifier.html" target="_top" xlink:title="CmdDrive::ListCmdComposer\l::uiListBoxObjClassifier">
<polygon fill="white" stroke="black" points="165.5,-520 165.5,-554 314.5,-554 314.5,-520 165.5,-520"/>
<text text-anchor="start" x="173.5" y="-541" font-family="Helvetica,sans-Serif" font-size="10.00">CmdDrive::ListCmdComposer</text>
<text text-anchor="middle" x="240" y="-528" font-family="Helvetica,sans-Serif" font-size="10.00">::uiListBoxObjClassifier</text>
</a>
</g>
<!-- Node1&#45;&gt;Node7 -->
<g id="edge12" class="edge"><title>Node1&#45;&gt;Node7</title>
<path fill="none" stroke="midnightblue" d="M65.6402,-426.439C80.7557,-449.995 109.349,-489.229 144,-511 150.579,-515.134 157.812,-518.618 165.265,-521.552"/>
<polygon fill="midnightblue" stroke="midnightblue" points="68.4406,-424.315 60.1793,-417.681 62.5008,-428.019 68.4406,-424.315"/>
</g>
<!-- Node8 -->
<g id="node15" class="node"><title>Node8</title>
<a xlink:href="classCmdDrive_1_1MdiAreaCmdComposer_1_1uiMdiAreaClassifier.html" target="_top" xlink:title="CmdDrive::MdiAreaCmdComposer\l::uiMdiAreaClassifier">
<polygon fill="white" stroke="black" points="155.5,-468 155.5,-502 324.5,-502 324.5,-468 155.5,-468"/>
<text text-anchor="start" x="163.5" y="-489" font-family="Helvetica,sans-Serif" font-size="10.00">CmdDrive::MdiAreaCmdComposer</text>
<text text-anchor="middle" x="240" y="-476" font-family="Helvetica,sans-Serif" font-size="10.00">::uiMdiAreaClassifier</text>
</a>
</g>
<!-- Node1&#45;&gt;Node8 -->
<g id="edge14" class="edge"><title>Node1&#45;&gt;Node8</title>
<path fill="none" stroke="midnightblue" d="M78.1308,-423.255C95.7648,-434.548 120.589,-449.262 144,-459 151.892,-462.283 160.321,-465.268 168.784,-467.948"/>
<polygon fill="midnightblue" stroke="midnightblue" points="79.9,-420.23 69.6104,-417.706 76.0796,-426.096 79.9,-420.23"/>
</g>
<!-- Node9 -->
<g id="node17" class="node"><title>Node9</title>
<a xlink:href="classCmdDrive_1_1MenuCmdComposer_1_1uiActionClassifier.html" target="_top" xlink:title="CmdDrive::MenuCmdComposer\l::uiActionClassifier">
<polygon fill="white" stroke="black" points="161.5,-416 161.5,-450 318.5,-450 318.5,-416 161.5,-416"/>
<text text-anchor="start" x="169.5" y="-437" font-family="Helvetica,sans-Serif" font-size="10.00">CmdDrive::MenuCmdComposer</text>
<text text-anchor="middle" x="240" y="-424" font-family="Helvetica,sans-Serif" font-size="10.00">::uiActionClassifier</text>
</a>
</g>
<!-- Node1&#45;&gt;Node9 -->
<g id="edge16" class="edge"><title>Node1&#45;&gt;Node9</title>
<path fill="none" stroke="midnightblue" d="M118.002,-415.946C131.932,-417.894 146.828,-419.976 161.255,-421.993"/>
<polygon fill="midnightblue" stroke="midnightblue" points="118.437,-412.473 108.049,-414.555 117.468,-419.406 118.437,-412.473"/>
</g>
<!-- Node10 -->
<g id="node19" class="node"><title>Node10</title>
<a xlink:href="classCmdDrive_1_1QColorDlgCmdComposer_1_1uiMainWinClassifier.html" target="_top" xlink:title="CmdDrive::QColorDlgCmdComposer\l::uiMainWinClassifier">
<polygon fill="white" stroke="black" points="150.5,-364 150.5,-398 329.5,-398 329.5,-364 150.5,-364"/>
<text text-anchor="start" x="158.5" y="-385" font-family="Helvetica,sans-Serif" font-size="10.00">CmdDrive::QColorDlgCmdComposer</text>
<text text-anchor="middle" x="240" y="-372" font-family="Helvetica,sans-Serif" font-size="10.00">::uiMainWinClassifier</text>
</a>
</g>
<!-- Node1&#45;&gt;Node10 -->
<g id="edge18" class="edge"><title>Node1&#45;&gt;Node10</title>
<path fill="none" stroke="midnightblue" d="M118.245,-398.019C128.641,-396.566 139.568,-395.039 150.433,-393.52"/>
<polygon fill="midnightblue" stroke="midnightblue" points="117.468,-394.594 108.049,-399.445 118.437,-401.527 117.468,-394.594"/>
</g>
<!-- Node11 -->
<g id="node21" class="node"><title>Node11</title>
<a xlink:href="classCmdDrive_1_1QFileDlgCmdComposer_1_1uiMainWinClassifier.html" target="_top" xlink:title="CmdDrive::QFileDlgCmdComposer\l::uiMainWinClassifier">
<polygon fill="white" stroke="black" points="154.5,-312 154.5,-346 325.5,-346 325.5,-312 154.5,-312"/>
<text text-anchor="start" x="162.5" y="-333" font-family="Helvetica,sans-Serif" font-size="10.00">CmdDrive::QFileDlgCmdComposer</text>
<text text-anchor="middle" x="240" y="-320" font-family="Helvetica,sans-Serif" font-size="10.00">::uiMainWinClassifier</text>
</a>
</g>
<!-- Node1&#45;&gt;Node11 -->
<g id="edge20" class="edge"><title>Node1&#45;&gt;Node11</title>
<path fill="none" stroke="midnightblue" d="M78.1308,-390.745C95.7648,-379.452 120.589,-364.738 144,-355 151.892,-351.717 160.321,-348.732 168.784,-346.052"/>
<polygon fill="midnightblue" stroke="midnightblue" points="76.0796,-387.904 69.6104,-396.294 79.9,-393.77 76.0796,-387.904"/>
</g>
<!-- Node12 -->
<g id="node23" class="node"><title>Node12</title>
<a xlink:href="classCmdDrive_1_1QMsgBoxButCmdComposer_1_1uiMainWinClassifier.html" target="_top" xlink:title="CmdDrive::QMsgBoxButCmdComposer\l::uiMainWinClassifier">
<polygon fill="white" stroke="black" points="144.5,-260 144.5,-294 335.5,-294 335.5,-260 144.5,-260"/>
<text text-anchor="start" x="152.5" y="-281" font-family="Helvetica,sans-Serif" font-size="10.00">CmdDrive::QMsgBoxButCmdComposer</text>
<text text-anchor="middle" x="240" y="-268" font-family="Helvetica,sans-Serif" font-size="10.00">::uiMainWinClassifier</text>
</a>
</g>
<!-- Node1&#45;&gt;Node12 -->
<g id="edge22" class="edge"><title>Node1&#45;&gt;Node12</title>
<path fill="none" stroke="midnightblue" d="M65.6402,-387.561C80.7557,-364.005 109.349,-324.771 144,-303 149.41,-299.601 155.261,-296.642 161.313,-294.065"/>
<polygon fill="midnightblue" stroke="midnightblue" points="62.5008,-385.981 60.1793,-396.319 68.4406,-389.685 62.5008,-385.981"/>
</g>
<!-- Node13 -->
<g id="node25" class="node"><title>Node13</title>
<a xlink:href="classCmdDrive_1_1SliderCmdComposer_1_1uiSliderObjClassifier.html" target="_top" xlink:title="CmdDrive::SliderCmdComposer\l::uiSliderObjClassifier">
<polygon fill="white" stroke="black" points="161,-208 161,-242 319,-242 319,-208 161,-208"/>
<text text-anchor="start" x="169" y="-229" font-family="Helvetica,sans-Serif" font-size="10.00">CmdDrive::SliderCmdComposer</text>
<text text-anchor="middle" x="240" y="-216" font-family="Helvetica,sans-Serif" font-size="10.00">::uiSliderObjClassifier</text>
</a>
</g>
<!-- Node1&#45;&gt;Node13 -->
<g id="edge24" class="edge"><title>Node1&#45;&gt;Node13</title>
<path fill="none" stroke="midnightblue" d="M60.0302,-386.768C71.0619,-353.311 97.7195,-286.623 144,-251 149.063,-247.103 154.667,-243.79 160.552,-240.972"/>
<polygon fill="midnightblue" stroke="midnightblue" points="56.6682,-385.791 56.9924,-396.381 63.3429,-387.9 56.6682,-385.791"/>
</g>
<!-- Node14 -->
<g id="node27" class="node"><title>Node14</title>
<a xlink:href="classCmdDrive_1_1SpinCmdComposer_1_1uiSpinBoxClassifier.html" target="_top" xlink:title="CmdDrive::SpinCmdComposer\l::uiSpinBoxClassifier">
<polygon fill="white" stroke="black" points="164,-156 164,-190 316,-190 316,-156 164,-156"/>
<text text-anchor="start" x="172" y="-177" font-family="Helvetica,sans-Serif" font-size="10.00">CmdDrive::SpinCmdComposer</text>
<text text-anchor="middle" x="240" y="-164" font-family="Helvetica,sans-Serif" font-size="10.00">::uiSpinBoxClassifier</text>
</a>
</g>
<!-- Node1&#45;&gt;Node14 -->
<g id="edge26" class="edge"><title>Node1&#45;&gt;Node14</title>
<path fill="none" stroke="midnightblue" d="M56.902,-386.413C63.9047,-344.611 85.6817,-249.478 144,-199 149.875,-193.915 156.651,-189.814 163.83,-186.509"/>
<polygon fill="midnightblue" stroke="midnightblue" points="53.4131,-386.071 55.3316,-396.491 60.3296,-387.149 53.4131,-386.071"/>
</g>
<!-- Node15 -->
<g id="node29" class="node"><title>Node15</title>
<a xlink:href="classCmdDrive_1_1TabCmdComposer_1_1uiTabBarClassifier.html" target="_top" xlink:title="CmdDrive::TabCmdComposer\l::uiTabBarClassifier">
<polygon fill="white" stroke="black" points="165.5,-104 165.5,-138 314.5,-138 314.5,-104 165.5,-104"/>
<text text-anchor="start" x="173.5" y="-125" font-family="Helvetica,sans-Serif" font-size="10.00">CmdDrive::TabCmdComposer</text>
<text text-anchor="middle" x="240" y="-112" font-family="Helvetica,sans-Serif" font-size="10.00">::uiTabBarClassifier</text>
</a>
</g>
<!-- Node1&#45;&gt;Node15 -->
<g id="edge28" class="edge"><title>Node1&#45;&gt;Node15</title>
<path fill="none" stroke="midnightblue" d="M54.8748,-386.481C58.1017,-337.529 73.2195,-213.074 144,-147 150.185,-141.226 157.519,-136.71 165.336,-133.182"/>
<polygon fill="midnightblue" stroke="midnightblue" points="51.3794,-386.303 54.3165,-396.482 58.3685,-386.693 51.3794,-386.303"/>
</g>
<!-- Node16 -->
<g id="node31" class="node"><title>Node16</title>
<a xlink:href="classCmdDrive_1_1TableCmdComposer_1_1uiTableClassifier.html" target="_top" xlink:title="CmdDrive::TableCmdComposer\l::uiTableClassifier">
<polygon fill="white" stroke="black" points="161.5,-52 161.5,-86 318.5,-86 318.5,-52 161.5,-52"/>
<text text-anchor="start" x="169.5" y="-73" font-family="Helvetica,sans-Serif" font-size="10.00">CmdDrive::TableCmdComposer</text>
<text text-anchor="middle" x="240" y="-60" font-family="Helvetica,sans-Serif" font-size="10.00">::uiTableClassifier</text>
</a>
</g>
<!-- Node1&#45;&gt;Node16 -->
<g id="edge30" class="edge"><title>Node1&#45;&gt;Node16</title>
<path fill="none" stroke="midnightblue" d="M57.2495,-386.459C67.5539,-323.823 101.349,-136.959 144,-95 149.047,-90.0351 154.939,-85.9936 161.277,-82.7072"/>
<polygon fill="midnightblue" stroke="midnightblue" points="53.7931,-385.909 55.6507,-396.339 60.7032,-387.027 53.7931,-385.909"/>
</g>
<!-- Node17 -->
<g id="node33" class="node"><title>Node17</title>
<a xlink:href="classCmdDrive_1_1TreeCmdComposer_1_1uiTreeViewClassifier.html" target="_top" xlink:title="CmdDrive::TreeCmdComposer\l::uiTreeViewClassifier">
<polygon fill="white" stroke="black" points="164,-0 164,-34 316,-34 316,-0 164,-0"/>
<text text-anchor="start" x="172" y="-21" font-family="Helvetica,sans-Serif" font-size="10.00">CmdDrive::TreeCmdComposer</text>
<text text-anchor="middle" x="240" y="-8" font-family="Helvetica,sans-Serif" font-size="10.00">::uiTreeViewClassifier</text>
</a>
</g>
<!-- Node1&#45;&gt;Node17 -->
<g id="edge32" class="edge"><title>Node1&#45;&gt;Node17</title>
<path fill="none" stroke="midnightblue" d="M56.3619,-386.32C64.7043,-316.81 94.9521,-93.1439 144,-43 149.675,-37.1984 156.502,-32.6507 163.866,-29.092"/>
<polygon fill="midnightblue" stroke="midnightblue" points="52.8639,-386.098 55.1728,-396.439 59.816,-386.915 52.8639,-386.098"/>
</g>
</g>
</svg>
