<?xml version="1.0" encoding="UTF-8" standalone="no"?>
<!DOCTYPE svg PUBLIC "-//W3C//DTD SVG 1.1//EN"
 "http://www.w3.org/Graphics/SVG/1.1/DTD/svg11.dtd">
<!-- Generated by graphviz version 2.26.0 (20091210.2329)
 -->
<!-- Title: uiPosProvGroup Pages: 1 -->
<svg width="660pt" height="270pt"
 viewBox="0.00 0.00 660.00 270.00" xmlns="http://www.w3.org/2000/svg" xmlns:xlink="http://www.w3.org/1999/xlink">
<g id="graph1" class="graph" transform="scale(1 1) rotate(0) translate(4 266)">
<title>uiPosProvGroup</title>
<polygon fill="white" stroke="white" points="-4,5 -4,-266 657,-266 657,5 -4,5"/>
<!-- Node1 -->
<g id="node1" class="node"><title>Node1</title>
<polygon fill="#bfbfbf" stroke="black" points="406,-120.5 406,-141.5 494,-141.5 494,-120.5 406,-120.5"/>
<text text-anchor="middle" x="450" y="-128.5" font-family="Helvetica,sans-Serif" font-size="10.00">uiPosProvGroup</text>
</g>
<!-- Node6 -->
<g id="node11" class="node"><title>Node6</title>
<a xlink:href="classuiBodyPosProvGroup.html" target="_top" xlink:title="UI for BodyPosProvider. ">
<polygon fill="white" stroke="black" points="536,-240.5 536,-261.5 646,-261.5 646,-240.5 536,-240.5"/>
<text text-anchor="middle" x="591" y="-248.5" font-family="Helvetica,sans-Serif" font-size="10.00">uiBodyPosProvGroup</text>
</a>
</g>
<!-- Node1&#45;&gt;Node6 -->
<g id="edge10" class="edge"><title>Node1&#45;&gt;Node6</title>
<path fill="none" stroke="midnightblue" d="M460.771,-150.428C474.188,-172.918 499.149,-209.601 530,-231 535.495,-234.811 541.764,-237.935 548.144,-240.483"/>
<polygon fill="midnightblue" stroke="midnightblue" points="463.783,-148.646 455.744,-141.744 457.725,-152.153 463.783,-148.646"/>
</g>
<!-- Node7 -->
<g id="node13" class="node"><title>Node7</title>
<a xlink:href="classuiPolyPosProvGroup.html" target="_top" xlink:title="UI for PolyPosProvider. ">
<polygon fill="white" stroke="black" points="537.5,-200.5 537.5,-221.5 644.5,-221.5 644.5,-200.5 537.5,-200.5"/>
<text text-anchor="middle" x="591" y="-208.5" font-family="Helvetica,sans-Serif" font-size="10.00">uiPolyPosProvGroup</text>
</a>
</g>
<!-- Node1&#45;&gt;Node7 -->
<g id="edge12" class="edge"><title>Node1&#45;&gt;Node7</title>
<path fill="none" stroke="midnightblue" d="M469.445,-148.466C484.934,-161.637 507.654,-179.362 530,-191 537.018,-194.655 544.835,-197.821 552.469,-200.488"/>
<polygon fill="midnightblue" stroke="midnightblue" points="471.479,-145.597 461.633,-141.685 466.891,-150.883 471.479,-145.597"/>
</g>
<!-- Node8 -->
<g id="node15" class="node"><title>Node8</title>
<a xlink:href="classuiRangePosProvGroup.html" target="_top" xlink:title="UI for RangePosProvider. ">
<polygon fill="white" stroke="black" points="533,-160.5 533,-181.5 649,-181.5 649,-160.5 533,-160.5"/>
<text text-anchor="middle" x="591" y="-168.5" font-family="Helvetica,sans-Serif" font-size="10.00">uiRangePosProvGroup</text>
</a>
</g>
<!-- Node1&#45;&gt;Node8 -->
<g id="edge14" class="edge"><title>Node1&#45;&gt;Node8</title>
<path fill="none" stroke="midnightblue" d="M496.753,-144.263C515.265,-149.515 536.25,-155.468 553.712,-160.422"/>
<polygon fill="midnightblue" stroke="midnightblue" points="497.622,-140.872 487.046,-141.51 495.711,-147.606 497.622,-140.872"/>
</g>
<!-- Node9 -->
<g id="node17" class="node"><title>Node9</title>
<a xlink:href="classuiSeisPosProvGroup.html" target="_top" xlink:title="UI for SeisPosProvider. ">
<polygon fill="white" stroke="black" points="537.5,-120.5 537.5,-141.5 644.5,-141.5 644.5,-120.5 537.5,-120.5"/>
<text text-anchor="middle" x="591" y="-128.5" font-family="Helvetica,sans-Serif" font-size="10.00">uiSeisPosProvGroup</text>
</a>
</g>
<!-- Node1&#45;&gt;Node9 -->
<g id="edge16" class="edge"><title>Node1&#45;&gt;Node9</title>
<path fill="none" stroke="midnightblue" d="M504.378,-131C515.173,-131 526.5,-131 537.274,-131"/>
<polygon fill="midnightblue" stroke="midnightblue" points="504.226,-127.5 494.226,-131 504.226,-134.5 504.226,-127.5"/>
</g>
<!-- Node10 -->
<g id="node19" class="node"><title>Node10</title>
<a xlink:href="classuiSurfacePosProvGroup.html" target="_top" xlink:title="UI for SurfacePosProvider. ">
<polygon fill="white" stroke="black" points="530,-80.5 530,-101.5 652,-101.5 652,-80.5 530,-80.5"/>
<text text-anchor="middle" x="591" y="-88.5" font-family="Helvetica,sans-Serif" font-size="10.00">uiSurfacePosProvGroup</text>
</a>
</g>
<!-- Node1&#45;&gt;Node10 -->
<g id="edge18" class="edge"><title>Node1&#45;&gt;Node10</title>
<path fill="none" stroke="midnightblue" d="M496.753,-117.737C515.265,-112.485 536.25,-106.532 553.712,-101.578"/>
<polygon fill="midnightblue" stroke="midnightblue" points="495.711,-114.394 487.046,-120.49 497.622,-121.128 495.711,-114.394"/>
</g>
<!-- Node11 -->
<g id="node21" class="node"><title>Node11</title>
<a xlink:href="classuiTablePosProvGroup.html" target="_top" xlink:title="UI for TablePosProvider. ">
<polygon fill="white" stroke="black" points="535,-40.5 535,-61.5 647,-61.5 647,-40.5 535,-40.5"/>
<text text-anchor="middle" x="591" y="-48.5" font-family="Helvetica,sans-Serif" font-size="10.00">uiTablePosProvGroup</text>
</a>
</g>
<!-- Node1&#45;&gt;Node11 -->
<g id="edge20" class="edge"><title>Node1&#45;&gt;Node11</title>
<path fill="none" stroke="midnightblue" d="M469.445,-113.534C484.934,-100.363 507.654,-82.6383 530,-71 537.018,-67.3448 544.835,-64.1787 552.469,-61.5116"/>
<polygon fill="midnightblue" stroke="midnightblue" points="466.891,-111.117 461.633,-120.315 471.479,-116.403 466.891,-111.117"/>
</g>
<!-- Node12 -->
<g id="node23" class="node"><title>Node12</title>
<a xlink:href="classuiWellPosProvGroup.html" target="_top" xlink:title="UI for WellPosProvider. ">
<polygon fill="white" stroke="black" points="537.5,-0.5 537.5,-21.5 644.5,-21.5 644.5,-0.5 537.5,-0.5"/>
<text text-anchor="middle" x="591" y="-8.5" font-family="Helvetica,sans-Serif" font-size="10.00">uiWellPosProvGroup</text>
</a>
</g>
<!-- Node1&#45;&gt;Node12 -->
<g id="edge22" class="edge"><title>Node1&#45;&gt;Node12</title>
<path fill="none" stroke="midnightblue" d="M460.771,-111.572C474.188,-89.0819 499.149,-52.3992 530,-31 535.495,-27.1888 541.764,-24.0654 548.144,-21.5169"/>
<polygon fill="midnightblue" stroke="midnightblue" points="457.725,-109.847 455.744,-120.256 463.783,-113.354 457.725,-109.847"/>
</g>
<!-- Node2 -->
<g id="node2" class="node"><title>Node2</title>
<a xlink:href="classuiPosFiltGroup.html" target="_top" xlink:title="group for providing positions, usually for 2D or 3D seismics ">
<polygon fill="white" stroke="black" points="288.5,-120.5 288.5,-141.5 369.5,-141.5 369.5,-120.5 288.5,-120.5"/>
<text text-anchor="middle" x="329" y="-128.5" font-family="Helvetica,sans-Serif" font-size="10.00">uiPosFiltGroup</text>
</a>
</g>
<!-- Node2&#45;&gt;Node1 -->
<g id="edge2" class="edge"><title>Node2&#45;&gt;Node1</title>
<path fill="none" stroke="midnightblue" d="M379.694,-131C388.417,-131 397.419,-131 405.949,-131"/>
<polygon fill="midnightblue" stroke="midnightblue" points="379.628,-127.5 369.628,-131 379.628,-134.5 379.628,-127.5"/>
</g>
<!-- Node3 -->
<g id="node4" class="node"><title>Node3</title>
<a xlink:href="classuiGroup.html" target="_top" xlink:title="uiGroup">
<polygon fill="white" stroke="black" points="202,-120.5 202,-141.5 252,-141.5 252,-120.5 202,-120.5"/>
<text text-anchor="middle" x="227" y="-128.5" font-family="Helvetica,sans-Serif" font-size="10.00">uiGroup</text>
</a>
</g>
<!-- Node3&#45;&gt;Node2 -->
<g id="edge4" class="edge"><title>Node3&#45;&gt;Node2</title>
<path fill="none" stroke="midnightblue" d="M262.364,-131C270.698,-131 279.649,-131 288.201,-131"/>
<polygon fill="midnightblue" stroke="midnightblue" points="262.214,-127.5 252.213,-131 262.213,-134.5 262.214,-127.5"/>
</g>
<!-- Node4 -->
<g id="node6" class="node"><title>Node4</title>
<a xlink:href="classuiParent.html" target="_top" xlink:title="uiParent">
<polygon fill="white" stroke="black" points="112.5,-120.5 112.5,-141.5 165.5,-141.5 165.5,-120.5 112.5,-120.5"/>
<text text-anchor="middle" x="139" y="-128.5" font-family="Helvetica,sans-Serif" font-size="10.00">uiParent</text>
</a>
</g>
<!-- Node4&#45;&gt;Node3 -->
<g id="edge6" class="edge"><title>Node4&#45;&gt;Node3</title>
<path fill="none" stroke="midnightblue" d="M176.152,-131C184.795,-131 193.799,-131 201.786,-131"/>
<polygon fill="midnightblue" stroke="midnightblue" points="175.881,-127.5 165.881,-131 175.881,-134.5 175.881,-127.5"/>
</g>
<!-- Node5 -->
<g id="node8" class="node"><title>Node5</title>
<polygon fill="white" stroke="#bfbfbf" points="0.5,-120.5 0.5,-141.5 75.5,-141.5 75.5,-120.5 0.5,-120.5"/>
<text text-anchor="middle" x="38" y="-128.5" font-family="Helvetica,sans-Serif" font-size="10.00">uiBaseObject</text>
</g>
<!-- Node5&#45;&gt;Node4 -->
<g id="edge8" class="edge"><title>Node5&#45;&gt;Node4</title>
<path fill="none" stroke="midnightblue" d="M85.8165,-131C94.9589,-131 104.219,-131 112.393,-131"/>
<polygon fill="midnightblue" stroke="midnightblue" points="85.6087,-127.5 75.6087,-131 85.6086,-134.5 85.6087,-127.5"/>
</g>
</g>
</svg>
