<?xml version="1.0" encoding="UTF-8" standalone="no"?>
<!DOCTYPE svg PUBLIC "-//W3C//DTD SVG 1.1//EN"
 "http://www.w3.org/Graphics/SVG/1.1/DTD/svg11.dtd">
<!-- Generated by graphviz version 2.26.0 (20091210.2329)
 -->
<!-- Title: uiODAnnotTreeItem Pages: 1 -->
<svg width="330pt" height="262pt"
 viewBox="0.00 0.00 330.00 262.00" xmlns="http://www.w3.org/2000/svg" xmlns:xlink="http://www.w3.org/1999/xlink">
<g id="graph1" class="graph" transform="scale(1 1) rotate(0) translate(4 258)">
<title>uiODAnnotTreeItem</title>
<polygon fill="white" stroke="white" points="-4,5 -4,-258 327,-258 327,5 -4,5"/>
<!-- Node1 -->
<g id="node1" class="node"><title>Node1</title>
<polygon fill="#bfbfbf" stroke="black" points="102,-58.5 102,-79.5 206,-79.5 206,-58.5 102,-58.5"/>
<text text-anchor="middle" x="154" y="-66.5" font-family="Helvetica,sans-Serif" font-size="10.00">uiODAnnotTreeItem</text>
</g>
<!-- Node5 -->
<g id="node9" class="node"><title>Node5</title>
<a xlink:href="classArrowParentItem.html" target="_top" xlink:title="ArrowParentItem">
<polygon fill="white" stroke="black" points="0,-0.5 0,-21.5 90,-21.5 90,-0.5 0,-0.5"/>
<text text-anchor="middle" x="45" y="-8.5" font-family="Helvetica,sans-Serif" font-size="10.00">ArrowParentItem</text>
</a>
</g>
<!-- Node1&#45;&gt;Node5 -->
<g id="edge8" class="edge"><title>Node1&#45;&gt;Node5</title>
<path fill="none" stroke="midnightblue" d="M125.423,-53.794C106.406,-43.6746 81.898,-30.6338 64.9606,-21.6212"/>
<polygon fill="midnightblue" stroke="midnightblue" points="123.789,-56.8889 134.261,-58.4966 127.077,-50.7093 123.789,-56.8889"/>
</g>
<!-- Node6 -->
<g id="node11" class="node"><title>Node6</title>
<a xlink:href="classImageParentItem.html" target="_top" xlink:title="ImageParentItem">
<polygon fill="white" stroke="black" points="108,-0.5 108,-21.5 200,-21.5 200,-0.5 108,-0.5"/>
<text text-anchor="middle" x="154" y="-8.5" font-family="Helvetica,sans-Serif" font-size="10.00">ImageParentItem</text>
</a>
</g>
<!-- Node1&#45;&gt;Node6 -->
<g id="edge10" class="edge"><title>Node1&#45;&gt;Node6</title>
<path fill="none" stroke="midnightblue" d="M154,-48.1906C154,-39.1684 154,-28.9941 154,-21.5707"/>
<polygon fill="midnightblue" stroke="midnightblue" points="150.5,-48.3619 154,-58.3619 157.5,-48.3619 150.5,-48.3619"/>
</g>
<!-- Node7 -->
<g id="node13" class="node"><title>Node7</title>
<a xlink:href="classScaleBarParentItem.html" target="_top" xlink:title="ScaleBarParentItem">
<polygon fill="white" stroke="black" points="218,-0.5 218,-21.5 322,-21.5 322,-0.5 218,-0.5"/>
<text text-anchor="middle" x="270" y="-8.5" font-family="Helvetica,sans-Serif" font-size="10.00">ScaleBarParentItem</text>
</a>
</g>
<!-- Node1&#45;&gt;Node7 -->
<g id="edge12" class="edge"><title>Node1&#45;&gt;Node7</title>
<path fill="none" stroke="midnightblue" d="M184.136,-53.9319C204.414,-43.7932 230.65,-30.6748 248.758,-21.6212"/>
<polygon fill="midnightblue" stroke="midnightblue" points="182.386,-50.8939 175.007,-58.4966 185.516,-57.1549 182.386,-50.8939"/>
</g>
<!-- Node2 -->
<g id="node2" class="node"><title>Node2</title>
<a xlink:href="classuiODTreeItem.html" target="_top" xlink:title="uiODTreeItem">
<polygon fill="white" stroke="black" points="115,-116.5 115,-137.5 193,-137.5 193,-116.5 115,-116.5"/>
<text text-anchor="middle" x="154" y="-124.5" font-family="Helvetica,sans-Serif" font-size="10.00">uiODTreeItem</text>
</a>
</g>
<!-- Node2&#45;&gt;Node1 -->
<g id="edge2" class="edge"><title>Node2&#45;&gt;Node1</title>
<path fill="none" stroke="midnightblue" d="M154,-106.191C154,-97.1684 154,-86.9941 154,-79.5707"/>
<polygon fill="midnightblue" stroke="midnightblue" points="150.5,-106.362 154,-116.362 157.5,-106.362 150.5,-106.362"/>
</g>
<!-- Node3 -->
<g id="node4" class="node"><title>Node3</title>
<a xlink:href="classuiTreeItem.html" target="_top" xlink:title="uiTreeItem">
<polygon fill="white" stroke="black" points="122.5,-174.5 122.5,-195.5 185.5,-195.5 185.5,-174.5 122.5,-174.5"/>
<text text-anchor="middle" x="154" y="-182.5" font-family="Helvetica,sans-Serif" font-size="10.00">uiTreeItem</text>
</a>
</g>
<!-- Node3&#45;&gt;Node2 -->
<g id="edge4" class="edge"><title>Node3&#45;&gt;Node2</title>
<path fill="none" stroke="midnightblue" d="M154,-164.191C154,-155.168 154,-144.994 154,-137.571"/>
<polygon fill="midnightblue" stroke="midnightblue" points="150.5,-164.362 154,-174.362 157.5,-164.362 150.5,-164.362"/>
</g>
<!-- Node4 -->
<g id="node6" class="node"><title>Node4</title>
<a xlink:href="classCallBacker.html" target="_top" xlink:title="To be able to send and/or receive CallBacks, inherit from this class. ">
<polygon fill="white" stroke="black" points="121.5,-232.5 121.5,-253.5 186.5,-253.5 186.5,-232.5 121.5,-232.5"/>
<text text-anchor="middle" x="154" y="-240.5" font-family="Helvetica,sans-Serif" font-size="10.00">CallBacker</text>
</a>
</g>
<!-- Node4&#45;&gt;Node3 -->
<g id="edge6" class="edge"><title>Node4&#45;&gt;Node3</title>
<path fill="none" stroke="midnightblue" d="M154,-222.191C154,-213.168 154,-202.994 154,-195.571"/>
<polygon fill="midnightblue" stroke="midnightblue" points="150.5,-222.362 154,-232.362 157.5,-222.362 150.5,-222.362"/>
</g>
</g>
</svg>
