<?xml version="1.0" encoding="UTF-8" standalone="no"?>
<!DOCTYPE svg PUBLIC "-//W3C//DTD SVG 1.1//EN"
 "http://www.w3.org/Graphics/SVG/1.1/DTD/svg11.dtd">
<!-- Generated by graphviz version 2.26.0 (20091210.2329)
 -->
<!-- Title: CNotifier&lt; T, C &gt; Pages: 1 -->
<svg width="606pt" height="2207pt"
 viewBox="0.00 0.00 606.00 2207.00" xmlns="http://www.w3.org/2000/svg" xmlns:xlink="http://www.w3.org/1999/xlink">
<g id="graph1" class="graph" transform="scale(1 1) rotate(0) translate(4 2203)">
<title>CNotifier&lt; T, C &gt;</title>
<polygon fill="white" stroke="white" points="-4,5 -4,-2203 603,-2203 603,5 -4,5"/>
<!-- Node1 -->
<g id="node1" class="node"><title>Node1</title>
<polygon fill="#bfbfbf" stroke="black" points="120.5,-1088.5 120.5,-1109.5 213.5,-1109.5 213.5,-1088.5 120.5,-1088.5"/>
<text text-anchor="middle" x="167" y="-1096.5" font-family="Helvetica,sans-Serif" font-size="10.00">CNotifier&lt; T, C &gt;</text>
</g>
<!-- Node3 -->
<g id="node5" class="node"><title>Node3</title>
<a xlink:href="classCNotifier.html" target="_top" xlink:title="CNotifier\&lt; uiBaseMap,\l int \&gt;">
<polygon fill="white" stroke="black" points="445,-2152 445,-2186 561,-2186 561,-2152 445,-2152"/>
<text text-anchor="start" x="453" y="-2173" font-family="Helvetica,sans-Serif" font-size="10.00">CNotifier&lt; uiBaseMap,</text>
<text text-anchor="middle" x="503" y="-2160" font-family="Helvetica,sans-Serif" font-size="10.00"> int &gt;</text>
</a>
</g>
<!-- Node1&#45;&gt;Node3 -->
<g id="edge4" class="edge"><title>Node1&#45;&gt;Node3</title>
<path fill="none" stroke="orange" stroke-dasharray="5,2" d="M167.545,-1119.54C171.419,-1262.01 195.671,-2098.62 232,-2137 285.734,-2193.77 382.78,-2190.66 444.985,-2181.27"/>
<polygon fill="orange" stroke="orange" points="171.044,-1119.42 167.276,-1109.52 164.046,-1119.61 171.044,-1119.42"/>
<text text-anchor="middle" x="311" y="-2190" font-family="Helvetica,sans-Serif" font-size="10.00"> &lt; uiBaseMap, int &gt;</text>
</g>
<!-- Node4 -->
<g id="node7" class="node"><title>Node4</title>
<a xlink:href="classCNotifier.html" target="_top" xlink:title="CNotifier\&lt; uiTable,\l int \&gt;">
<polygon fill="white" stroke="black" points="453.5,-2100 453.5,-2134 552.5,-2134 552.5,-2100 453.5,-2100"/>
<text text-anchor="start" x="461.5" y="-2121" font-family="Helvetica,sans-Serif" font-size="10.00">CNotifier&lt; uiTable,</text>
<text text-anchor="middle" x="503" y="-2108" font-family="Helvetica,sans-Serif" font-size="10.00"> int &gt;</text>
</a>
</g>
<!-- Node1&#45;&gt;Node4 -->
<g id="edge6" class="edge"><title>Node1&#45;&gt;Node4</title>
<path fill="none" stroke="orange" stroke-dasharray="5,2" d="M167.606,-1119.94C171.753,-1259.96 196.831,-2055.88 232,-2092 261.666,-2122.47 383.592,-2122.45 453.372,-2119.75"/>
<polygon fill="orange" stroke="orange" points="171.098,-1119.61 167.306,-1109.72 164.101,-1119.82 171.098,-1119.61"/>
<text text-anchor="middle" x="311" y="-2124" font-family="Helvetica,sans-Serif" font-size="10.00"> &lt; uiTable, int &gt;</text>
</g>
<!-- Node5 -->
<g id="node9" class="node"><title>Node5</title>
<a xlink:href="classCNotifier.html" target="_top" xlink:title="CNotifier\&lt; uiDataPointSet\lCrossPlotter, bool \&gt;">
<polygon fill="white" stroke="black" points="437.5,-2048 437.5,-2082 568.5,-2082 568.5,-2048 437.5,-2048"/>
<text text-anchor="start" x="445.5" y="-2069" font-family="Helvetica,sans-Serif" font-size="10.00">CNotifier&lt; uiDataPointSet</text>
<text text-anchor="middle" x="503" y="-2056" font-family="Helvetica,sans-Serif" font-size="10.00">CrossPlotter, bool &gt;</text>
</a>
</g>
<!-- Node1&#45;&gt;Node5 -->
<g id="edge8" class="edge"><title>Node1&#45;&gt;Node5</title>
<path fill="none" stroke="orange" stroke-dasharray="5,2" d="M167.668,-1119.74C172.122,-1255.15 198.382,-2008.97 232,-2043 246.14,-2057.31 361.654,-2062.32 437.237,-2064.07"/>
<polygon fill="orange" stroke="orange" points="171.158,-1119.39 167.334,-1109.5 164.162,-1119.61 171.158,-1119.39"/>
<text text-anchor="start" x="243" y="-2079" font-family="Helvetica,sans-Serif" font-size="10.00"> &lt; uiDataPointSetCrossPlotter,</text>
<text text-anchor="middle" x="311" y="-2066" font-family="Helvetica,sans-Serif" font-size="10.00"> bool &gt;</text>
</g>
<!-- Node6 -->
<g id="node11" class="node"><title>Node6</title>
<a xlink:href="classCNotifier.html" target="_top" xlink:title="CNotifier\&lt; uiCrossAttrEvaluate\lDlg, int \&gt;">
<polygon fill="white" stroke="black" points="427,-1996 427,-2030 579,-2030 579,-1996 427,-1996"/>
<text text-anchor="start" x="435" y="-2017" font-family="Helvetica,sans-Serif" font-size="10.00">CNotifier&lt; uiCrossAttrEvaluate</text>
<text text-anchor="middle" x="503" y="-2004" font-family="Helvetica,sans-Serif" font-size="10.00">Dlg, int &gt;</text>
</a>
</g>
<!-- Node1&#45;&gt;Node6 -->
<g id="edge10" class="edge"><title>Node1&#45;&gt;Node6</title>
<path fill="none" stroke="orange" stroke-dasharray="5,2" d="M167.778,-1120.13C172.723,-1251.88 200.57,-1955.97 232,-1988 258.266,-2014.77 356.168,-2017.95 426.76,-2016.51"/>
<polygon fill="orange" stroke="orange" points="171.263,-1119.67 167.393,-1109.8 164.268,-1119.93 171.263,-1119.67"/>
<text text-anchor="start" x="252" y="-2033" font-family="Helvetica,sans-Serif" font-size="10.00"> &lt; uiCrossAttrEvaluateDlg,</text>
<text text-anchor="middle" x="311" y="-2020" font-family="Helvetica,sans-Serif" font-size="10.00"> int &gt;</text>
</g>
<!-- Node7 -->
<g id="node13" class="node"><title>Node7</title>
<a xlink:href="classCNotifier.html" target="_top" xlink:title="CNotifier\&lt; Attrib::\lDescSet, Attrib::DescID \&gt;">
<polygon fill="white" stroke="black" points="436.5,-1944 436.5,-1978 569.5,-1978 569.5,-1944 436.5,-1944"/>
<text text-anchor="start" x="444.5" y="-1965" font-family="Helvetica,sans-Serif" font-size="10.00">CNotifier&lt; Attrib::</text>
<text text-anchor="middle" x="503" y="-1952" font-family="Helvetica,sans-Serif" font-size="10.00">DescSet, Attrib::DescID &gt;</text>
</a>
</g>
<!-- Node1&#45;&gt;Node7 -->
<g id="edge12" class="edge"><title>Node1&#45;&gt;Node7</title>
<path fill="none" stroke="orange" stroke-dasharray="5,2" d="M167.85,-1119.75C173.123,-1246.22 202.124,-1909.01 232,-1939 246.138,-1953.19 360.681,-1958.24 436.258,-1960.02"/>
<polygon fill="orange" stroke="orange" points="171.336,-1119.35 167.426,-1109.51 164.342,-1119.64 171.336,-1119.35"/>
<text text-anchor="start" x="269.5" y="-1975" font-family="Helvetica,sans-Serif" font-size="10.00"> &lt; Attrib::DescSet,</text>
<text text-anchor="middle" x="311" y="-1962" font-family="Helvetica,sans-Serif" font-size="10.00"> Attrib::DescID &gt;</text>
</g>
<!-- Node8 -->
<g id="node15" class="node"><title>Node8</title>
<a xlink:href="classCNotifier.html" target="_top" xlink:title="CNotifier\&lt; UserActionHandler,\l int \&gt;">
<polygon fill="white" stroke="black" points="428,-1892 428,-1926 578,-1926 578,-1892 428,-1892"/>
<text text-anchor="start" x="436" y="-1913" font-family="Helvetica,sans-Serif" font-size="10.00">CNotifier&lt; UserActionHandler,</text>
<text text-anchor="middle" x="503" y="-1900" font-family="Helvetica,sans-Serif" font-size="10.00"> int &gt;</text>
</a>
</g>
<!-- Node1&#45;&gt;Node8 -->
<g id="edge14" class="edge"><title>Node1&#45;&gt;Node8</title>
<path fill="none" stroke="orange" stroke-dasharray="5,2" d="M167.161,-1119.78C168.285,-1238.56 176.639,-1828.12 232,-1884 258.519,-1910.77 357.192,-1913.89 427.813,-1912.43"/>
<polygon fill="orange" stroke="orange" points="170.659,-1119.49 167.072,-1109.52 163.659,-1119.55 170.659,-1119.49"/>
<text text-anchor="start" x="262" y="-1929" font-family="Helvetica,sans-Serif" font-size="10.00"> &lt; UserActionHandler,</text>
<text text-anchor="middle" x="311" y="-1916" font-family="Helvetica,sans-Serif" font-size="10.00"> int &gt;</text>
</g>
<!-- Node9 -->
<g id="node17" class="node"><title>Node9</title>
<a xlink:href="classCNotifier.html" target="_top" xlink:title="CNotifier\&lt; visBase\l::RandomTrackDragger,\l int \&gt;">
<polygon fill="white" stroke="black" points="442,-1826.5 442,-1873.5 564,-1873.5 564,-1826.5 442,-1826.5"/>
<text text-anchor="start" x="450" y="-1860.5" font-family="Helvetica,sans-Serif" font-size="10.00">CNotifier&lt; visBase</text>
<text text-anchor="start" x="450" y="-1847.5" font-family="Helvetica,sans-Serif" font-size="10.00">::RandomTrackDragger,</text>
<text text-anchor="middle" x="503" y="-1834.5" font-family="Helvetica,sans-Serif" font-size="10.00"> int &gt;</text>
</a>
</g>
<!-- Node1&#45;&gt;Node9 -->
<g id="edge16" class="edge"><title>Node1&#45;&gt;Node9</title>
<path fill="none" stroke="orange" stroke-dasharray="5,2" d="M167.29,-1119.71C169.082,-1233.24 180.329,-1776.74 232,-1828 260.525,-1856.3 370.967,-1856.69 441.753,-1853.77"/>
<polygon fill="orange" stroke="orange" points="170.788,-1119.52 167.138,-1109.57 163.789,-1119.63 170.788,-1119.52"/>
<text text-anchor="start" x="234.5" y="-1871" font-family="Helvetica,sans-Serif" font-size="10.00"> &lt; visBase::RandomTrackDragger,</text>
<text text-anchor="middle" x="311" y="-1858" font-family="Helvetica,sans-Serif" font-size="10.00"> int &gt;</text>
</g>
<!-- Node10 -->
<g id="node19" class="node"><title>Node10</title>
<a xlink:href="classCNotifier.html" target="_top" xlink:title="CNotifier\&lt; uiEvaluateDlg,\l int \&gt;">
<polygon fill="white" stroke="black" points="439,-1774 439,-1808 567,-1808 567,-1774 439,-1774"/>
<text text-anchor="start" x="447" y="-1795" font-family="Helvetica,sans-Serif" font-size="10.00">CNotifier&lt; uiEvaluateDlg,</text>
<text text-anchor="middle" x="503" y="-1782" font-family="Helvetica,sans-Serif" font-size="10.00"> int &gt;</text>
</a>
</g>
<!-- Node1&#45;&gt;Node10 -->
<g id="edge18" class="edge"><title>Node1&#45;&gt;Node10</title>
<path fill="none" stroke="orange" stroke-dasharray="5,2" d="M167.486,-1119.93C170.195,-1227.98 185.047,-1719.29 232,-1766 285.342,-1819.07 377.188,-1815.79 438.992,-1805.73"/>
<polygon fill="orange" stroke="orange" points="170.979,-1119.6 167.237,-1109.69 163.981,-1119.77 170.979,-1119.6"/>
<text text-anchor="middle" x="311" y="-1815" font-family="Helvetica,sans-Serif" font-size="10.00"> &lt; uiEvaluateDlg, int &gt;</text>
</g>
<!-- Node11 -->
<g id="node21" class="node"><title>Node11</title>
<a xlink:href="classCNotifier.html" target="_top" xlink:title="CNotifier\&lt; Network\l::RequestConnection,\l od_int32 \&gt;">
<polygon fill="white" stroke="black" points="447,-1708.5 447,-1755.5 559,-1755.5 559,-1708.5 447,-1708.5"/>
<text text-anchor="start" x="455" y="-1742.5" font-family="Helvetica,sans-Serif" font-size="10.00">CNotifier&lt; Network</text>
<text text-anchor="start" x="455" y="-1729.5" font-family="Helvetica,sans-Serif" font-size="10.00">::RequestConnection,</text>
<text text-anchor="middle" x="503" y="-1716.5" font-family="Helvetica,sans-Serif" font-size="10.00"> od_int32 &gt;</text>
</a>
</g>
<!-- Node1&#45;&gt;Node11 -->
<g id="edge20" class="edge"><title>Node1&#45;&gt;Node11</title>
<path fill="none" stroke="orange" stroke-dasharray="5,2" d="M167.684,-1120.05C171.219,-1222.63 188.943,-1666.86 232,-1709 261.4,-1737.78 376.332,-1738.03 446.738,-1735.26"/>
<polygon fill="orange" stroke="orange" points="171.172,-1119.63 167.338,-1109.76 164.176,-1119.87 171.172,-1119.63"/>
<text text-anchor="start" x="238.5" y="-1753" font-family="Helvetica,sans-Serif" font-size="10.00"> &lt; Network::RequestConnection,</text>
<text text-anchor="middle" x="311" y="-1740" font-family="Helvetica,sans-Serif" font-size="10.00"> od_int32 &gt;</text>
</g>
<!-- Node12 -->
<g id="node23" class="node"><title>Node12</title>
<a xlink:href="classCNotifier.html" target="_top" xlink:title="CNotifier\&lt; uiToolBar,\l int \&gt;">
<polygon fill="white" stroke="black" points="448.5,-1656 448.5,-1690 557.5,-1690 557.5,-1656 448.5,-1656"/>
<text text-anchor="start" x="456.5" y="-1677" font-family="Helvetica,sans-Serif" font-size="10.00">CNotifier&lt; uiToolBar,</text>
<text text-anchor="middle" x="503" y="-1664" font-family="Helvetica,sans-Serif" font-size="10.00"> int &gt;</text>
</a>
</g>
<!-- Node1&#45;&gt;Node12 -->
<g id="edge22" class="edge"><title>Node1&#45;&gt;Node12</title>
<path fill="none" stroke="orange" stroke-dasharray="5,2" d="M167.942,-1119.68C172.484,-1215.05 193.493,-1609.35 232,-1647 288.52,-1702.27 386.859,-1696.42 448.25,-1685.72"/>
<polygon fill="orange" stroke="orange" points="171.433,-1119.4 167.47,-1109.58 164.441,-1119.73 171.433,-1119.4"/>
<text text-anchor="middle" x="311" y="-1696" font-family="Helvetica,sans-Serif" font-size="10.00"> &lt; uiToolBar, int &gt;</text>
</g>
<!-- Node13 -->
<g id="node25" class="node"><title>Node13</title>
<a xlink:href="classCNotifier.html" target="_top" xlink:title="CNotifier\&lt; EM::EMObject,\l const EM::EMObjectCallbackData &amp; \&gt;">
<polygon fill="white" stroke="black" points="408.5,-1604 408.5,-1638 597.5,-1638 597.5,-1604 408.5,-1604"/>
<text text-anchor="start" x="416.5" y="-1625" font-family="Helvetica,sans-Serif" font-size="10.00">CNotifier&lt; EM::EMObject,</text>
<text text-anchor="middle" x="503" y="-1612" font-family="Helvetica,sans-Serif" font-size="10.00"> const EM::EMObjectCallbackData &amp; &gt;</text>
</a>
</g>
<!-- Node1&#45;&gt;Node13 -->
<g id="edge24" class="edge"><title>Node1&#45;&gt;Node13</title>
<path fill="none" stroke="orange" stroke-dasharray="5,2" d="M168.175,-1119.52C173.51,-1209.27 196.726,-1564.27 232,-1598 244.777,-1610.22 335.336,-1616.01 408.307,-1618.72"/>
<polygon fill="orange" stroke="orange" points="171.667,-1119.29 167.589,-1109.51 164.679,-1119.7 171.667,-1119.29"/>
<text text-anchor="start" x="238" y="-1634" font-family="Helvetica,sans-Serif" font-size="10.00"> &lt; EM::EMObject, const</text>
<text text-anchor="middle" x="311" y="-1621" font-family="Helvetica,sans-Serif" font-size="10.00"> EM::EMObjectCallbackData &amp; &gt;</text>
</g>
<!-- Node14 -->
<g id="node27" class="node"><title>Node14</title>
<a xlink:href="classCNotifier.html" target="_top" xlink:title="CNotifier\&lt; BaseMapObject,\l const MouseEvent &amp; \&gt;">
<polygon fill="white" stroke="black" points="434.5,-1552 434.5,-1586 571.5,-1586 571.5,-1552 434.5,-1552"/>
<text text-anchor="start" x="442.5" y="-1573" font-family="Helvetica,sans-Serif" font-size="10.00">CNotifier&lt; BaseMapObject,</text>
<text text-anchor="middle" x="503" y="-1560" font-family="Helvetica,sans-Serif" font-size="10.00"> const MouseEvent &amp; &gt;</text>
</a>
</g>
<!-- Node1&#45;&gt;Node14 -->
<g id="edge26" class="edge"><title>Node1&#45;&gt;Node14</title>
<path fill="none" stroke="orange" stroke-dasharray="5,2" d="M168.617,-1119.83C175.261,-1202.91 201.544,-1507.44 232,-1537 259.918,-1564.1 363.57,-1569.6 434.28,-1570.06"/>
<polygon fill="orange" stroke="orange" points="172.104,-1119.52 167.827,-1109.83 165.126,-1120.08 172.104,-1119.52"/>
<text text-anchor="start" x="255" y="-1585" font-family="Helvetica,sans-Serif" font-size="10.00"> &lt; BaseMapObject, const</text>
<text text-anchor="middle" x="311" y="-1572" font-family="Helvetica,sans-Serif" font-size="10.00"> MouseEvent &amp; &gt;</text>
</g>
<!-- Node15 -->
<g id="node29" class="node"><title>Node15</title>
<a xlink:href="classCNotifier.html" target="_top" xlink:title="CNotifier\&lt; uiObject,\l uiRect &amp; \&gt;">
<polygon fill="white" stroke="black" points="451,-1500 451,-1534 555,-1534 555,-1500 451,-1500"/>
<text text-anchor="start" x="459" y="-1521" font-family="Helvetica,sans-Serif" font-size="10.00">CNotifier&lt; uiObject,</text>
<text text-anchor="middle" x="503" y="-1508" font-family="Helvetica,sans-Serif" font-size="10.00"> uiRect &amp; &gt;</text>
</a>
</g>
<!-- Node1&#45;&gt;Node15 -->
<g id="edge28" class="edge"><title>Node1&#45;&gt;Node15</title>
<path fill="none" stroke="orange" stroke-dasharray="5,2" d="M168.908,-1119.52C176.3,-1196.92 204.032,-1468.14 232,-1494 262.771,-1522.45 381.154,-1522.5 450.862,-1519.86"/>
<polygon fill="orange" stroke="orange" points="172.392,-1119.18 167.967,-1109.56 165.423,-1119.84 172.392,-1119.18"/>
<text text-anchor="middle" x="311" y="-1524" font-family="Helvetica,sans-Serif" font-size="10.00"> &lt; uiObject, uiRect &amp; &gt;</text>
</g>
<!-- Node16 -->
<g id="node31" class="node"><title>Node16</title>
<a xlink:href="classCNotifier.html" target="_top" xlink:title="CNotifier\&lt; Well::Well\l::Data, int \&gt;">
<polygon fill="white" stroke="black" points="448,-1448 448,-1482 558,-1482 558,-1448 448,-1448"/>
<text text-anchor="start" x="456" y="-1469" font-family="Helvetica,sans-Serif" font-size="10.00">CNotifier&lt; Well::Well</text>
<text text-anchor="middle" x="503" y="-1456" font-family="Helvetica,sans-Serif" font-size="10.00">::Data, int &gt;</text>
</a>
</g>
<!-- Node1&#45;&gt;Node16 -->
<g id="edge30" class="edge"><title>Node1&#45;&gt;Node16</title>
<path fill="none" stroke="orange" stroke-dasharray="5,2" d="M167.951,-1119.88C171.424,-1186.18 185.745,-1390.08 232,-1433 262.386,-1461.2 377.867,-1465.8 447.903,-1465.89"/>
<polygon fill="orange" stroke="orange" points="171.443,-1119.63 167.453,-1109.81 164.451,-1119.98 171.443,-1119.63"/>
<text text-anchor="start" x="267" y="-1481" font-family="Helvetica,sans-Serif" font-size="10.00"> &lt; Well::Well::Data,</text>
<text text-anchor="middle" x="311" y="-1468" font-family="Helvetica,sans-Serif" font-size="10.00"> int &gt;</text>
</g>
<!-- Node17 -->
<g id="node33" class="node"><title>Node17</title>
<a xlink:href="classCNotifier.html" target="_top" xlink:title="CNotifier\&lt; ui3DViewer,\l bool \&gt;">
<polygon fill="white" stroke="black" points="444,-1396 444,-1430 562,-1430 562,-1396 444,-1396"/>
<text text-anchor="start" x="452" y="-1417" font-family="Helvetica,sans-Serif" font-size="10.00">CNotifier&lt; ui3DViewer,</text>
<text text-anchor="middle" x="503" y="-1404" font-family="Helvetica,sans-Serif" font-size="10.00"> bool &gt;</text>
</a>
</g>
<!-- Node1&#45;&gt;Node17 -->
<g id="edge32" class="edge"><title>Node1&#45;&gt;Node17</title>
<path fill="none" stroke="orange" stroke-dasharray="5,2" d="M168.528,-1120.05C173.408,-1180.92 190.787,-1355.12 232,-1391 262.527,-1417.58 373.776,-1418.42 443.892,-1416.08"/>
<polygon fill="orange" stroke="orange" points="171.993,-1119.46 167.737,-1109.76 165.013,-1120 171.993,-1119.46"/>
<text text-anchor="middle" x="311" y="-1420" font-family="Helvetica,sans-Serif" font-size="10.00"> &lt; ui3DViewer, bool &gt;</text>
</g>
<!-- Node18 -->
<g id="node35" class="node"><title>Node18</title>
<a xlink:href="classCNotifier.html" target="_top" xlink:title="CNotifier\&lt; FlatView\l::AuxDataEditor, bool \&gt;">
<polygon fill="white" stroke="black" points="443.5,-1344 443.5,-1378 562.5,-1378 562.5,-1344 443.5,-1344"/>
<text text-anchor="start" x="451.5" y="-1365" font-family="Helvetica,sans-Serif" font-size="10.00">CNotifier&lt; FlatView</text>
<text text-anchor="middle" x="503" y="-1352" font-family="Helvetica,sans-Serif" font-size="10.00">::AuxDataEditor, bool &gt;</text>
</a>
</g>
<!-- Node1&#45;&gt;Node18 -->
<g id="edge34" class="edge"><title>Node1&#45;&gt;Node18</title>
<path fill="none" stroke="orange" stroke-dasharray="5,2" d="M169.569,-1119.72C176.579,-1172.63 197.83,-1310.59 232,-1339 263.033,-1364.8 373.523,-1365.95 443.474,-1363.87"/>
<polygon fill="orange" stroke="orange" points="173.004,-1118.99 168.256,-1109.52 166.061,-1119.89 173.004,-1118.99"/>
<text text-anchor="start" x="249" y="-1381" font-family="Helvetica,sans-Serif" font-size="10.00"> &lt; FlatView::AuxDataEditor,</text>
<text text-anchor="middle" x="311" y="-1368" font-family="Helvetica,sans-Serif" font-size="10.00"> bool &gt;</text>
</g>
<!-- Node19 -->
<g id="node37" class="node"><title>Node19</title>
<a xlink:href="classCNotifier.html" target="_top" xlink:title="CNotifier\&lt; visBase\l::EventCatcher, const\l visBase::EventInfo &amp; \&gt;">
<polygon fill="white" stroke="black" points="442,-1278.5 442,-1325.5 564,-1325.5 564,-1278.5 442,-1278.5"/>
<text text-anchor="start" x="450" y="-1312.5" font-family="Helvetica,sans-Serif" font-size="10.00">CNotifier&lt; visBase</text>
<text text-anchor="start" x="450" y="-1299.5" font-family="Helvetica,sans-Serif" font-size="10.00">::EventCatcher, const</text>
<text text-anchor="middle" x="503" y="-1286.5" font-family="Helvetica,sans-Serif" font-size="10.00"> visBase::EventInfo &amp; &gt;</text>
</a>
</g>
<!-- Node1&#45;&gt;Node19 -->
<g id="edge36" class="edge"><title>Node1&#45;&gt;Node19</title>
<path fill="none" stroke="orange" stroke-dasharray="5,2" d="M168.549,-1120.1C172.425,-1156.28 185.859,-1229.76 232,-1266 291.532,-1312.76 382.08,-1315.23 441.886,-1310.44"/>
<polygon fill="orange" stroke="orange" points="171.999,-1119.4 167.598,-1109.76 165.029,-1120.04 171.999,-1119.4"/>
<text text-anchor="start" x="244.5" y="-1329" font-family="Helvetica,sans-Serif" font-size="10.00"> &lt; visBase::EventCatcher,</text>
<text text-anchor="middle" x="311" y="-1316" font-family="Helvetica,sans-Serif" font-size="10.00"> const visBase::EventInfo &amp; &gt;</text>
</g>
<!-- Node20 -->
<g id="node39" class="node"><title>Node20</title>
<a xlink:href="classCNotifier.html" target="_top" xlink:title="CNotifier\&lt; Geometry\l::Element, const TypeSet\l\&lt; GeomPosID \&gt; * \&gt;">
<polygon fill="white" stroke="black" points="439,-1212.5 439,-1259.5 567,-1259.5 567,-1212.5 439,-1212.5"/>
<text text-anchor="start" x="447" y="-1246.5" font-family="Helvetica,sans-Serif" font-size="10.00">CNotifier&lt; Geometry</text>
<text text-anchor="start" x="447" y="-1233.5" font-family="Helvetica,sans-Serif" font-size="10.00">::Element, const TypeSet</text>
<text text-anchor="middle" x="503" y="-1220.5" font-family="Helvetica,sans-Serif" font-size="10.00">&lt; GeomPosID &gt; * &gt;</text>
</a>
</g>
<!-- Node1&#45;&gt;Node20 -->
<g id="edge38" class="edge"><title>Node1&#45;&gt;Node20</title>
<path fill="none" stroke="orange" stroke-dasharray="5,2" d="M175.231,-1119.05C185.258,-1140.77 204.352,-1174.63 232,-1192 294.561,-1231.3 380.711,-1239.14 438.951,-1239.21"/>
<polygon fill="orange" stroke="orange" points="178.376,-1117.51 171.151,-1109.76 171.967,-1120.32 178.376,-1117.51"/>
<text text-anchor="start" x="233.5" y="-1253" font-family="Helvetica,sans-Serif" font-size="10.00"> &lt; Geometry::Element,</text>
<text text-anchor="middle" x="311" y="-1240" font-family="Helvetica,sans-Serif" font-size="10.00"> const TypeSet&lt; GeomPosID &gt; * &gt;</text>
</g>
<!-- Node21 -->
<g id="node41" class="node"><title>Node21</title>
<a xlink:href="classCNotifier.html" target="_top" xlink:title="CNotifier\&lt; uiSynthGenDlg,\l BufferString \&gt;">
<polygon fill="white" stroke="black" points="436,-1160 436,-1194 570,-1194 570,-1160 436,-1160"/>
<text text-anchor="start" x="444" y="-1181" font-family="Helvetica,sans-Serif" font-size="10.00">CNotifier&lt; uiSynthGenDlg,</text>
<text text-anchor="middle" x="503" y="-1168" font-family="Helvetica,sans-Serif" font-size="10.00"> BufferString &gt;</text>
</a>
</g>
<!-- Node1&#45;&gt;Node21 -->
<g id="edge40" class="edge"><title>Node1&#45;&gt;Node21</title>
<path fill="none" stroke="orange" stroke-dasharray="5,2" d="M186.091,-1116.4C198.311,-1126.5 215.013,-1138.48 232,-1145 298.228,-1170.44 379.705,-1177.06 435.929,-1178.18"/>
<polygon fill="orange" stroke="orange" points="188.267,-1113.66 178.399,-1109.8 183.709,-1118.97 188.267,-1113.66"/>
<text text-anchor="middle" x="311" y="-1179" font-family="Helvetica,sans-Serif" font-size="10.00"> &lt; uiSynthGenDlg, BufferString &gt;</text>
</g>
<!-- Node22 -->
<g id="node43" class="node"><title>Node22</title>
<a xlink:href="classCNotifier.html" target="_top" xlink:title="CNotifier\&lt; Vw2DDataManager,\l int \&gt;">
<polygon fill="white" stroke="black" points="426.5,-1108 426.5,-1142 579.5,-1142 579.5,-1108 426.5,-1108"/>
<text text-anchor="start" x="434.5" y="-1129" font-family="Helvetica,sans-Serif" font-size="10.00">CNotifier&lt; Vw2DDataManager,</text>
<text text-anchor="middle" x="503" y="-1116" font-family="Helvetica,sans-Serif" font-size="10.00"> int &gt;</text>
</a>
</g>
<!-- Node1&#45;&gt;Node22 -->
<g id="edge42" class="edge"><title>Node1&#45;&gt;Node22</title>
<path fill="none" stroke="orange" stroke-dasharray="5,2" d="M223.756,-1103.39C279.422,-1107.7 364.683,-1114.3 426.349,-1119.07"/>
<polygon fill="orange" stroke="orange" points="223.96,-1099.9 213.719,-1102.62 223.419,-1106.88 223.96,-1099.9"/>
<text text-anchor="start" x="260.5" y="-1132" font-family="Helvetica,sans-Serif" font-size="10.00"> &lt; Vw2DDataManager,</text>
<text text-anchor="middle" x="311" y="-1119" font-family="Helvetica,sans-Serif" font-size="10.00"> int &gt;</text>
</g>
<!-- Node23 -->
<g id="node45" class="node"><title>Node23</title>
<a xlink:href="classCNotifier.html" target="_top" xlink:title="CNotifier\&lt; Vel::Picks,\l const BinID &amp; \&gt;">
<polygon fill="white" stroke="black" points="446.5,-1056 446.5,-1090 559.5,-1090 559.5,-1056 446.5,-1056"/>
<text text-anchor="start" x="454.5" y="-1077" font-family="Helvetica,sans-Serif" font-size="10.00">CNotifier&lt; Vel::Picks,</text>
<text text-anchor="middle" x="503" y="-1064" font-family="Helvetica,sans-Serif" font-size="10.00"> const BinID &amp; &gt;</text>
</a>
</g>
<!-- Node1&#45;&gt;Node23 -->
<g id="edge44" class="edge"><title>Node1&#45;&gt;Node23</title>
<path fill="none" stroke="orange" stroke-dasharray="5,2" d="M197.911,-1084.48C208.482,-1080.23 220.536,-1076.15 232,-1074 305.063,-1060.29 391.168,-1063.13 446.386,-1067.3"/>
<polygon fill="orange" stroke="orange" points="196.528,-1081.26 188.678,-1088.38 199.252,-1087.71 196.528,-1081.26"/>
<text text-anchor="start" x="267" y="-1091" font-family="Helvetica,sans-Serif" font-size="10.00"> &lt; Vel::Picks, const</text>
<text text-anchor="middle" x="311" y="-1078" font-family="Helvetica,sans-Serif" font-size="10.00"> BinID &amp; &gt;</text>
</g>
<!-- Node24 -->
<g id="node47" class="node"><title>Node24</title>
<a xlink:href="classCNotifier.html" target="_top" xlink:title="CNotifier\&lt; MenuHandler,\l int \&gt;">
<polygon fill="white" stroke="black" points="440.5,-1004 440.5,-1038 565.5,-1038 565.5,-1004 440.5,-1004"/>
<text text-anchor="start" x="448.5" y="-1025" font-family="Helvetica,sans-Serif" font-size="10.00">CNotifier&lt; MenuHandler,</text>
<text text-anchor="middle" x="503" y="-1012" font-family="Helvetica,sans-Serif" font-size="10.00"> int &gt;</text>
</a>
</g>
<!-- Node1&#45;&gt;Node24 -->
<g id="edge46" class="edge"><title>Node1&#45;&gt;Node24</title>
<path fill="none" stroke="orange" stroke-dasharray="5,2" d="M183.537,-1081.19C195.707,-1069.33 213.324,-1054.57 232,-1047 299.454,-1019.65 383.821,-1015.8 440.343,-1017.07"/>
<polygon fill="orange" stroke="orange" points="180.895,-1078.88 176.37,-1088.46 185.881,-1083.8 180.895,-1078.88"/>
<text text-anchor="middle" x="311" y="-1051" font-family="Helvetica,sans-Serif" font-size="10.00"> &lt; MenuHandler, int &gt;</text>
</g>
<!-- Node25 -->
<g id="node49" class="node"><title>Node25</title>
<a xlink:href="classCNotifier.html" target="_top" xlink:title="CNotifier\&lt; uiTextEditBase,\l bool \&gt;">
<polygon fill="white" stroke="black" points="436,-952 436,-986 570,-986 570,-952 436,-952"/>
<text text-anchor="start" x="444" y="-973" font-family="Helvetica,sans-Serif" font-size="10.00">CNotifier&lt; uiTextEditBase,</text>
<text text-anchor="middle" x="503" y="-960" font-family="Helvetica,sans-Serif" font-size="10.00"> bool &gt;</text>
</a>
</g>
<!-- Node1&#45;&gt;Node25 -->
<g id="edge48" class="edge"><title>Node1&#45;&gt;Node25</title>
<path fill="none" stroke="orange" stroke-dasharray="5,2" d="M174.365,-1078.69C183.868,-1055.66 202.743,-1018.99 232,-1001 293.441,-963.216 377.654,-959.056 435.82,-961.89"/>
<polygon fill="orange" stroke="orange" points="171.031,-1077.6 170.654,-1088.19 177.551,-1080.15 171.031,-1077.6"/>
<text text-anchor="middle" x="311" y="-1005" font-family="Helvetica,sans-Serif" font-size="10.00"> &lt; uiTextEditBase, bool &gt;</text>
</g>
<!-- Node26 -->
<g id="node51" class="node"><title>Node26</title>
<a xlink:href="classCNotifier.html" target="_top" xlink:title="CNotifier\&lt; visBase\l::SelectionManager, int \&gt;">
<polygon fill="white" stroke="black" points="440,-900 440,-934 566,-934 566,-900 440,-900"/>
<text text-anchor="start" x="448" y="-921" font-family="Helvetica,sans-Serif" font-size="10.00">CNotifier&lt; visBase</text>
<text text-anchor="middle" x="503" y="-908" font-family="Helvetica,sans-Serif" font-size="10.00">::SelectionManager, int &gt;</text>
</a>
</g>
<!-- Node1&#45;&gt;Node26 -->
<g id="edge50" class="edge"><title>Node1&#45;&gt;Node26</title>
<path fill="none" stroke="orange" stroke-dasharray="5,2" d="M168.218,-1078.05C171.589,-1041.48 184.275,-966.611 232,-932 291.983,-888.499 380.528,-892.78 439.913,-902.555"/>
<polygon fill="orange" stroke="orange" points="164.694,-1078.24 167.419,-1088.48 171.673,-1078.77 164.694,-1078.24"/>
<text text-anchor="start" x="243.5" y="-949" font-family="Helvetica,sans-Serif" font-size="10.00"> &lt; visBase::SelectionManager,</text>
<text text-anchor="middle" x="311" y="-936" font-family="Helvetica,sans-Serif" font-size="10.00"> int &gt;</text>
</g>
<!-- Node27 -->
<g id="node53" class="node"><title>Node27</title>
<a xlink:href="classCNotifier.html" target="_top" xlink:title="CNotifier\&lt; visBase\l::ThumbWheel, float \&gt;">
<polygon fill="white" stroke="black" points="446,-848 446,-882 560,-882 560,-848 446,-848"/>
<text text-anchor="start" x="454" y="-869" font-family="Helvetica,sans-Serif" font-size="10.00">CNotifier&lt; visBase</text>
<text text-anchor="middle" x="503" y="-856" font-family="Helvetica,sans-Serif" font-size="10.00">::ThumbWheel, float &gt;</text>
</a>
</g>
<!-- Node1&#45;&gt;Node27 -->
<g id="edge52" class="edge"><title>Node1&#45;&gt;Node27</title>
<path fill="none" stroke="orange" stroke-dasharray="5,2" d="M169.611,-1078.47C176.657,-1026.7 197.862,-893.087 232,-867 264.291,-842.325 376.404,-850.041 445.907,-857.669"/>
<polygon fill="orange" stroke="orange" points="166.13,-1078.1 168.289,-1088.47 173.07,-1079.01 166.13,-1078.1"/>
<text text-anchor="start" x="253.5" y="-884" font-family="Helvetica,sans-Serif" font-size="10.00"> &lt; visBase::ThumbWheel,</text>
<text text-anchor="middle" x="311" y="-871" font-family="Helvetica,sans-Serif" font-size="10.00"> float &gt;</text>
</g>
<!-- Node28 -->
<g id="node55" class="node"><title>Node28</title>
<a xlink:href="classCNotifier.html" target="_top" xlink:title="CNotifier\&lt; uiODHorizonParent\lTreeItem, int \&gt;">
<polygon fill="white" stroke="black" points="428.5,-796 428.5,-830 577.5,-830 577.5,-796 428.5,-796"/>
<text text-anchor="start" x="436.5" y="-817" font-family="Helvetica,sans-Serif" font-size="10.00">CNotifier&lt; uiODHorizonParent</text>
<text text-anchor="middle" x="503" y="-804" font-family="Helvetica,sans-Serif" font-size="10.00">TreeItem, int &gt;</text>
</a>
</g>
<!-- Node1&#45;&gt;Node28 -->
<g id="edge54" class="edge"><title>Node1&#45;&gt;Node28</title>
<path fill="none" stroke="orange" stroke-dasharray="5,2" d="M168.674,-1078.09C173.86,-1019.17 191.796,-853.866 232,-821 291.127,-772.665 384.164,-782.385 444.376,-795.986"/>
<polygon fill="orange" stroke="orange" points="165.158,-1078.13 167.803,-1088.39 172.133,-1078.72 165.158,-1078.13"/>
<text text-anchor="start" x="241.5" y="-838" font-family="Helvetica,sans-Serif" font-size="10.00"> &lt; uiODHorizonParentTreeItem,</text>
<text text-anchor="middle" x="311" y="-825" font-family="Helvetica,sans-Serif" font-size="10.00"> int &gt;</text>
</g>
<!-- Node29 -->
<g id="node57" class="node"><title>Node29</title>
<a xlink:href="classCNotifier.html" target="_top" xlink:title="CNotifier\&lt; uiDataPointSet\lCrossPlotter, Interval\l\&lt; float \&gt; \&gt;">
<polygon fill="white" stroke="black" points="437.5,-730.5 437.5,-777.5 568.5,-777.5 568.5,-730.5 437.5,-730.5"/>
<text text-anchor="start" x="445.5" y="-764.5" font-family="Helvetica,sans-Serif" font-size="10.00">CNotifier&lt; uiDataPointSet</text>
<text text-anchor="start" x="445.5" y="-751.5" font-family="Helvetica,sans-Serif" font-size="10.00">CrossPlotter, Interval</text>
<text text-anchor="middle" x="503" y="-738.5" font-family="Helvetica,sans-Serif" font-size="10.00">&lt; float &gt; &gt;</text>
</a>
</g>
<!-- Node1&#45;&gt;Node29 -->
<g id="edge56" class="edge"><title>Node1&#45;&gt;Node29</title>
<path fill="none" stroke="orange" stroke-dasharray="5,2" d="M167.617,-1078.18C170.109,-1010.2 181.867,-796.704 232,-755 262.021,-730.027 367.056,-737.02 437.199,-745.024"/>
<polygon fill="orange" stroke="orange" points="164.109,-1078.34 167.272,-1088.46 171.105,-1078.58 164.109,-1078.34"/>
<text text-anchor="start" x="243" y="-772" font-family="Helvetica,sans-Serif" font-size="10.00"> &lt; uiDataPointSetCrossPlotter,</text>
<text text-anchor="middle" x="311" y="-759" font-family="Helvetica,sans-Serif" font-size="10.00"> Interval&lt; float &gt; &gt;</text>
</g>
<!-- Node30 -->
<g id="node59" class="node"><title>Node30</title>
<a xlink:href="classCNotifier.html" target="_top" xlink:title="CNotifier\&lt; BaseMapObject,\l const uiString &amp; \&gt;">
<polygon fill="white" stroke="black" points="434.5,-678 434.5,-712 571.5,-712 571.5,-678 434.5,-678"/>
<text text-anchor="start" x="442.5" y="-699" font-family="Helvetica,sans-Serif" font-size="10.00">CNotifier&lt; BaseMapObject,</text>
<text text-anchor="middle" x="503" y="-686" font-family="Helvetica,sans-Serif" font-size="10.00"> const uiString &amp; &gt;</text>
</a>
</g>
<!-- Node1&#45;&gt;Node30 -->
<g id="edge58" class="edge"><title>Node1&#45;&gt;Node30</title>
<path fill="none" stroke="orange" stroke-dasharray="5,2" d="M168.943,-1078.15C176.359,-1000.75 203.883,-733.011 232,-708 288.31,-657.911 380.092,-665.355 441.01,-677.982"/>
<polygon fill="orange" stroke="orange" points="165.456,-1077.86 167.997,-1088.14 172.424,-1078.52 165.456,-1077.86"/>
<text text-anchor="start" x="255" y="-725" font-family="Helvetica,sans-Serif" font-size="10.00"> &lt; BaseMapObject, const</text>
<text text-anchor="middle" x="311" y="-712" font-family="Helvetica,sans-Serif" font-size="10.00"> uiString &amp; &gt;</text>
</g>
<!-- Node31 -->
<g id="node61" class="node"><title>Node31</title>
<a xlink:href="classCNotifier.html" target="_top" xlink:title="CNotifier\&lt; uiDataPointSet,\l int \&gt;">
<polygon fill="white" stroke="black" points="436,-626 436,-660 570,-660 570,-626 436,-626"/>
<text text-anchor="start" x="444" y="-647" font-family="Helvetica,sans-Serif" font-size="10.00">CNotifier&lt; uiDataPointSet,</text>
<text text-anchor="middle" x="503" y="-634" font-family="Helvetica,sans-Serif" font-size="10.00"> int &gt;</text>
</a>
</g>
<!-- Node1&#45;&gt;Node31 -->
<g id="edge60" class="edge"><title>Node1&#45;&gt;Node31</title>
<path fill="none" stroke="orange" stroke-dasharray="5,2" d="M168.474,-1078.21C174.655,-993.951 199.66,-680.93 232,-652 289.89,-600.214 385.735,-611.445 446.56,-625.972"/>
<polygon fill="orange" stroke="orange" points="164.973,-1078.11 167.743,-1088.33 171.955,-1078.61 164.973,-1078.11"/>
<text text-anchor="middle" x="311" y="-656" font-family="Helvetica,sans-Serif" font-size="10.00"> &lt; uiDataPointSet, int &gt;</text>
</g>
<!-- Node32 -->
<g id="node63" class="node"><title>Node32</title>
<a xlink:href="classCNotifier.html" target="_top" xlink:title="CNotifier\&lt; uiListBox,\l int \&gt;">
<polygon fill="white" stroke="black" points="449,-574 449,-608 557,-608 557,-574 449,-574"/>
<text text-anchor="start" x="457" y="-595" font-family="Helvetica,sans-Serif" font-size="10.00">CNotifier&lt; uiListBox,</text>
<text text-anchor="middle" x="503" y="-582" font-family="Helvetica,sans-Serif" font-size="10.00"> int &gt;</text>
</a>
</g>
<!-- Node1&#45;&gt;Node32 -->
<g id="edge62" class="edge"><title>Node1&#45;&gt;Node32</title>
<path fill="none" stroke="orange" stroke-dasharray="5,2" d="M168.115,-1078.3C173.194,-987.782 195.487,-629.813 232,-597 262.758,-569.358 379.01,-576.842 448.872,-584.25"/>
<polygon fill="orange" stroke="orange" points="164.614,-1078.22 167.558,-1088.4 171.603,-1078.61 164.614,-1078.22"/>
<text text-anchor="middle" x="311" y="-601" font-family="Helvetica,sans-Serif" font-size="10.00"> &lt; uiListBox, int &gt;</text>
</g>
<!-- Node33 -->
<g id="node65" class="node"><title>Node33</title>
<a xlink:href="classCNotifier.html" target="_top" xlink:title="CNotifier\&lt; uiStratLayerModel\lDisp, IOPar \&gt;">
<polygon fill="white" stroke="black" points="431.5,-522 431.5,-556 574.5,-556 574.5,-522 431.5,-522"/>
<text text-anchor="start" x="439.5" y="-543" font-family="Helvetica,sans-Serif" font-size="10.00">CNotifier&lt; uiStratLayerModel</text>
<text text-anchor="middle" x="503" y="-530" font-family="Helvetica,sans-Serif" font-size="10.00">Disp, IOPar &gt;</text>
</a>
</g>
<!-- Node1&#45;&gt;Node33 -->
<g id="edge64" class="edge"><title>Node1&#45;&gt;Node33</title>
<path fill="none" stroke="orange" stroke-dasharray="5,2" d="M167.882,-1078.15C172.153,-982.017 192.134,-584.642 232,-548 260.03,-522.237 360.827,-525.437 431.247,-531.285"/>
<polygon fill="orange" stroke="orange" points="164.377,-1078.19 167.438,-1088.34 171.37,-1078.5 164.377,-1078.19"/>
<text text-anchor="start" x="253.5" y="-565" font-family="Helvetica,sans-Serif" font-size="10.00"> &lt; uiStratLayerModelDisp,</text>
<text text-anchor="middle" x="311" y="-552" font-family="Helvetica,sans-Serif" font-size="10.00"> IOPar &gt;</text>
</g>
<!-- Node34 -->
<g id="node67" class="node"><title>Node34</title>
<a xlink:href="classCNotifier.html" target="_top" xlink:title="CNotifier\&lt; uiODViewer2DMgr,\l int \&gt;">
<polygon fill="white" stroke="black" points="428.5,-470 428.5,-504 577.5,-504 577.5,-470 428.5,-470"/>
<text text-anchor="start" x="436.5" y="-491" font-family="Helvetica,sans-Serif" font-size="10.00">CNotifier&lt; uiODViewer2DMgr,</text>
<text text-anchor="middle" x="503" y="-478" font-family="Helvetica,sans-Serif" font-size="10.00"> int &gt;</text>
</a>
</g>
<!-- Node1&#45;&gt;Node34 -->
<g id="edge66" class="edge"><title>Node1&#45;&gt;Node34</title>
<path fill="none" stroke="orange" stroke-dasharray="5,2" d="M167.671,-1078.22C171.147,-976.967 188.634,-538.547 232,-498 288.58,-445.098 384.343,-455.642 445.571,-469.937"/>
<polygon fill="orange" stroke="orange" points="164.168,-1078.27 167.331,-1088.38 171.164,-1078.5 164.168,-1078.27"/>
<text text-anchor="start" x="262.5" y="-515" font-family="Helvetica,sans-Serif" font-size="10.00"> &lt; uiODViewer2DMgr,</text>
<text text-anchor="middle" x="311" y="-502" font-family="Helvetica,sans-Serif" font-size="10.00"> int &gt;</text>
</g>
<!-- Node35 -->
<g id="node69" class="node"><title>Node35</title>
<a xlink:href="classCNotifier.html" target="_top" xlink:title="CNotifier\&lt; Geometry\l::RandomLineManager,\l int \&gt;">
<polygon fill="white" stroke="black" points="444,-404.5 444,-451.5 562,-451.5 562,-404.5 444,-404.5"/>
<text text-anchor="start" x="452" y="-438.5" font-family="Helvetica,sans-Serif" font-size="10.00">CNotifier&lt; Geometry</text>
<text text-anchor="start" x="452" y="-425.5" font-family="Helvetica,sans-Serif" font-size="10.00">::RandomLineManager,</text>
<text text-anchor="middle" x="503" y="-412.5" font-family="Helvetica,sans-Serif" font-size="10.00"> int &gt;</text>
</a>
</g>
<!-- Node1&#45;&gt;Node35 -->
<g id="edge68" class="edge"><title>Node1&#45;&gt;Node35</title>
<path fill="none" stroke="orange" stroke-dasharray="5,2" d="M167.397,-1078.24C169.676,-970.024 182.77,-473.851 232,-429 261.867,-401.79 373.637,-410.64 443.969,-419.412"/>
<polygon fill="orange" stroke="orange" points="163.893,-1078.41 167.19,-1088.48 170.892,-1078.55 163.893,-1078.41"/>
<text text-anchor="start" x="232.5" y="-446" font-family="Helvetica,sans-Serif" font-size="10.00"> &lt; Geometry::RandomLineManager,</text>
<text text-anchor="middle" x="311" y="-433" font-family="Helvetica,sans-Serif" font-size="10.00"> int &gt;</text>
</g>
<!-- Node36 -->
<g id="node71" class="node"><title>Node36</title>
<a xlink:href="classCNotifier.html" target="_top" xlink:title="CNotifier\&lt; uiVisDataPoint\lSetDisplayMgr, int \&gt;">
<polygon fill="white" stroke="black" points="438,-352 438,-386 568,-386 568,-352 438,-352"/>
<text text-anchor="start" x="446" y="-373" font-family="Helvetica,sans-Serif" font-size="10.00">CNotifier&lt; uiVisDataPoint</text>
<text text-anchor="middle" x="503" y="-360" font-family="Helvetica,sans-Serif" font-size="10.00">SetDisplayMgr, int &gt;</text>
</a>
</g>
<!-- Node1&#45;&gt;Node36 -->
<g id="edge70" class="edge"><title>Node1&#45;&gt;Node36</title>
<path fill="none" stroke="orange" stroke-dasharray="5,2" d="M167.29,-1078.21C169.068,-965.454 180.204,-430.465 232,-381 260.439,-353.841 367.099,-357.009 437.823,-362.495"/>
<polygon fill="orange" stroke="orange" points="163.789,-1078.25 167.139,-1088.3 170.788,-1078.35 163.789,-1078.25"/>
<text text-anchor="start" x="248" y="-398" font-family="Helvetica,sans-Serif" font-size="10.00"> &lt; uiVisDataPointSetDisplay</text>
<text text-anchor="middle" x="311" y="-385" font-family="Helvetica,sans-Serif" font-size="10.00">Mgr, int &gt;</text>
</g>
<!-- Node37 -->
<g id="node73" class="node"><title>Node37</title>
<a xlink:href="classCNotifier.html" target="_top" xlink:title="CNotifier\&lt; uiVisPartServer,\l int \&gt;">
<polygon fill="white" stroke="black" points="435,-300 435,-334 571,-334 571,-300 435,-300"/>
<text text-anchor="start" x="443" y="-321" font-family="Helvetica,sans-Serif" font-size="10.00">CNotifier&lt; uiVisPartServer,</text>
<text text-anchor="middle" x="503" y="-308" font-family="Helvetica,sans-Serif" font-size="10.00"> int &gt;</text>
</a>
</g>
<!-- Node1&#45;&gt;Node37 -->
<g id="edge72" class="edge"><title>Node1&#45;&gt;Node37</title>
<path fill="none" stroke="orange" stroke-dasharray="5,2" d="M167.156,-1078.2C168.245,-960.618 176.412,-382.41 232,-329 259.974,-302.122 364.181,-304.869 434.914,-310.242"/>
<polygon fill="orange" stroke="orange" points="163.655,-1078.35 167.069,-1088.38 170.655,-1078.41 163.655,-1078.35"/>
<text text-anchor="start" x="269" y="-346" font-family="Helvetica,sans-Serif" font-size="10.00"> &lt; uiVisPartServer,</text>
<text text-anchor="middle" x="311" y="-333" font-family="Helvetica,sans-Serif" font-size="10.00"> int &gt;</text>
</g>
<!-- Node38 -->
<g id="node75" class="node"><title>Node38</title>
<a xlink:href="classCNotifier.html" target="_top" xlink:title="CNotifier\&lt; uiTreeFactory\lSet, int \&gt;">
<polygon fill="white" stroke="black" points="440.5,-248 440.5,-282 565.5,-282 565.5,-248 440.5,-248"/>
<text text-anchor="start" x="448.5" y="-269" font-family="Helvetica,sans-Serif" font-size="10.00">CNotifier&lt; uiTreeFactory</text>
<text text-anchor="middle" x="503" y="-256" font-family="Helvetica,sans-Serif" font-size="10.00">Set, int &gt;</text>
</a>
</g>
<!-- Node1&#45;&gt;Node38 -->
<g id="edge74" class="edge"><title>Node1&#45;&gt;Node38</title>
<path fill="none" stroke="orange" stroke-dasharray="5,2" d="M167.869,-1078.29C173.198,-953.467 202.233,-305.753 232,-277 287.806,-223.096 384.022,-233.602 445.522,-247.941"/>
<polygon fill="orange" stroke="orange" points="164.366,-1078.28 167.439,-1088.42 171.36,-1078.57 164.366,-1078.28"/>
<text text-anchor="start" x="265.5" y="-294" font-family="Helvetica,sans-Serif" font-size="10.00"> &lt; uiTreeFactorySet,</text>
<text text-anchor="middle" x="311" y="-281" font-family="Helvetica,sans-Serif" font-size="10.00"> int &gt;</text>
</g>
<!-- Node39 -->
<g id="node77" class="node"><title>Node39</title>
<a xlink:href="classCNotifier.html" target="_top" xlink:title="CNotifier\&lt; uiODSceneMgr,\l int \&gt;">
<polygon fill="white" stroke="black" points="436,-196 436,-230 570,-230 570,-196 436,-196"/>
<text text-anchor="start" x="444" y="-217" font-family="Helvetica,sans-Serif" font-size="10.00">CNotifier&lt; uiODSceneMgr,</text>
<text text-anchor="middle" x="503" y="-204" font-family="Helvetica,sans-Serif" font-size="10.00"> int &gt;</text>
</a>
</g>
<!-- Node1&#45;&gt;Node39 -->
<g id="edge76" class="edge"><title>Node1&#45;&gt;Node39</title>
<path fill="none" stroke="orange" stroke-dasharray="5,2" d="M167.76,-1078.08C172.594,-947.642 199.878,-250.616 232,-220 260.192,-193.13 365.195,-198.076 435.912,-204.932"/>
<polygon fill="orange" stroke="orange" points="164.254,-1078.18 167.384,-1088.3 171.249,-1078.44 164.254,-1078.18"/>
<text text-anchor="middle" x="311" y="-224" font-family="Helvetica,sans-Serif" font-size="10.00"> &lt; uiODSceneMgr, int &gt;</text>
</g>
<!-- Node40 -->
<g id="node79" class="node"><title>Node40</title>
<a xlink:href="classCNotifier.html" target="_top" xlink:title="CNotifier\&lt; MouseCursorExchange,\l const MouseCursorExchange\l::Info &amp; \&gt;">
<polygon fill="white" stroke="black" points="418,-130.5 418,-177.5 588,-177.5 588,-130.5 418,-130.5"/>
<text text-anchor="start" x="426" y="-164.5" font-family="Helvetica,sans-Serif" font-size="10.00">CNotifier&lt; MouseCursorExchange,</text>
<text text-anchor="start" x="426" y="-151.5" font-family="Helvetica,sans-Serif" font-size="10.00"> const MouseCursorExchange</text>
<text text-anchor="middle" x="503" y="-138.5" font-family="Helvetica,sans-Serif" font-size="10.00">::Info &amp; &gt;</text>
</a>
</g>
<!-- Node1&#45;&gt;Node40 -->
<g id="edge78" class="edge"><title>Node1&#45;&gt;Node40</title>
<path fill="none" stroke="orange" stroke-dasharray="5,2" d="M167.655,-1077.85C171.977,-941.399 197.32,-189.731 232,-157 257.963,-132.496 348.37,-135.989 417.696,-142.897"/>
<polygon fill="orange" stroke="orange" points="164.146,-1078.08 167.33,-1088.18 171.142,-1078.3 164.146,-1078.08"/>
<text text-anchor="start" x="244.5" y="-187" font-family="Helvetica,sans-Serif" font-size="10.00"> &lt; MouseCursorExchange,</text>
<text text-anchor="start" x="244.5" y="-174" font-family="Helvetica,sans-Serif" font-size="10.00"> const MouseCursorExchange</text>
<text text-anchor="middle" x="311" y="-161" font-family="Helvetica,sans-Serif" font-size="10.00">::Info &amp; &gt;</text>
</g>
<!-- Node41 -->
<g id="node81" class="node"><title>Node41</title>
<a xlink:href="classCNotifier.html" target="_top" xlink:title="CNotifier\&lt; uiGraphicsView\lBase, uiSize \&gt;">
<polygon fill="white" stroke="black" points="436.5,-78 436.5,-112 569.5,-112 569.5,-78 436.5,-78"/>
<text text-anchor="start" x="444.5" y="-99" font-family="Helvetica,sans-Serif" font-size="10.00">CNotifier&lt; uiGraphicsView</text>
<text text-anchor="middle" x="503" y="-86" font-family="Helvetica,sans-Serif" font-size="10.00">Base, uiSize &gt;</text>
</a>
</g>
<!-- Node1&#45;&gt;Node41 -->
<g id="edge80" class="edge"><title>Node1&#45;&gt;Node41</title>
<path fill="none" stroke="orange" stroke-dasharray="5,2" d="M167.589,-1078.09C171.627,-938.23 196.114,-143.262 232,-108 259.886,-80.5993 365.555,-83.2678 436.407,-88.5306"/>
<polygon fill="orange" stroke="orange" points="164.085,-1078.2 167.298,-1088.3 171.082,-1078.4 164.085,-1078.2"/>
<text text-anchor="start" x="258" y="-125" font-family="Helvetica,sans-Serif" font-size="10.00"> &lt; uiGraphicsViewBase,</text>
<text text-anchor="middle" x="311" y="-112" font-family="Helvetica,sans-Serif" font-size="10.00"> uiSize &gt;</text>
</g>
<!-- Node42 -->
<g id="node83" class="node"><title>Node42</title>
<a xlink:href="classCNotifier.html" target="_top" xlink:title="CNotifier\&lt; Geometry\l::RandomLine, const\l Geometry::RandomLine\l::ChangeData &amp; \&gt;">
<polygon fill="white" stroke="black" points="441.5,-0 441.5,-60 564.5,-60 564.5,-0 441.5,-0"/>
<text text-anchor="start" x="449.5" y="-47" font-family="Helvetica,sans-Serif" font-size="10.00">CNotifier&lt; Geometry</text>
<text text-anchor="start" x="449.5" y="-34" font-family="Helvetica,sans-Serif" font-size="10.00">::RandomLine, const</text>
<text text-anchor="start" x="449.5" y="-21" font-family="Helvetica,sans-Serif" font-size="10.00"> Geometry::RandomLine</text>
<text text-anchor="middle" x="503" y="-8" font-family="Helvetica,sans-Serif" font-size="10.00">::ChangeData &amp; &gt;</text>
</a>
</g>
<!-- Node1&#45;&gt;Node42 -->
<g id="edge82" class="edge"><title>Node1&#45;&gt;Node42</title>
<path fill="none" stroke="orange" stroke-dasharray="5,2" d="M167.503,-1078.08C171.087,-932.939 193.727,-80.7579 232,-43 286.069,10.3421 379.544,1.64344 441.33,-12.1028"/>
<polygon fill="orange" stroke="orange" points="163.999,-1078.2 167.254,-1088.28 170.997,-1078.37 163.999,-1078.2"/>
<text text-anchor="start" x="244" y="-73" font-family="Helvetica,sans-Serif" font-size="10.00"> &lt; Geometry::RandomLine,</text>
<text text-anchor="start" x="244" y="-60" font-family="Helvetica,sans-Serif" font-size="10.00"> const Geometry::RandomLine</text>
<text text-anchor="middle" x="311" y="-47" font-family="Helvetica,sans-Serif" font-size="10.00">::ChangeData &amp; &gt;</text>
</g>
<!-- Node2 -->
<g id="node2" class="node"><title>Node2</title>
<a xlink:href="classNotifierAccess.html" target="_top" xlink:title="Interface class for Notifier. See comments there. ">
<polygon fill="white" stroke="black" points="0.5,-1088.5 0.5,-1109.5 81.5,-1109.5 81.5,-1088.5 0.5,-1088.5"/>
<text text-anchor="middle" x="41" y="-1096.5" font-family="Helvetica,sans-Serif" font-size="10.00">NotifierAccess</text>
</a>
</g>
<!-- Node2&#45;&gt;Node1 -->
<g id="edge2" class="edge"><title>Node2&#45;&gt;Node1</title>
<path fill="none" stroke="midnightblue" d="M91.6595,-1099C101.146,-1099 111.021,-1099 120.379,-1099"/>
<polygon fill="midnightblue" stroke="midnightblue" points="91.5608,-1095.5 81.5608,-1099 91.5607,-1102.5 91.5608,-1095.5"/>
</g>
</g>
</svg>
