<?xml version="1.0" encoding="UTF-8" standalone="no"?>
<!DOCTYPE svg PUBLIC "-//W3C//DTD SVG 1.1//EN"
 "http://www.w3.org/Graphics/SVG/1.1/DTD/svg11.dtd">
<!-- Generated by graphviz version 2.26.0 (20091210.2329)
 -->
<!-- Title: Smoother3D&lt; T &gt; Pages: 1 -->
<svg width="116pt" height="282pt"
 viewBox="0.00 0.00 116.00 282.00" xmlns="http://www.w3.org/2000/svg" xmlns:xlink="http://www.w3.org/1999/xlink">
<g id="graph1" class="graph" transform="scale(1 1) rotate(0) translate(4 278)">
<title>Smoother3D&lt; T &gt;</title>
<polygon fill="white" stroke="white" points="-4,5 -4,-278 113,-278 113,5 -4,5"/>
<!-- Node1 -->
<g id="node1" class="node"><title>Node1</title>
<polygon fill="#bfbfbf" stroke="black" points="6.5,-72.5 6.5,-93.5 101.5,-93.5 101.5,-72.5 6.5,-72.5"/>
<text text-anchor="middle" x="54" y="-80.5" font-family="Helvetica,sans-Serif" font-size="10.00">Smoother3D&lt; T &gt;</text>
</g>
<!-- Node5 -->
<g id="node9" class="node"><title>Node5</title>
<a xlink:href="classSmoother3D.html" target="_top" xlink:title="Smoother3D\&lt; float \&gt;">
<polygon fill="white" stroke="black" points="0,-0.5 0,-21.5 108,-21.5 108,-0.5 0,-0.5"/>
<text text-anchor="middle" x="54" y="-8.5" font-family="Helvetica,sans-Serif" font-size="10.00">Smoother3D&lt; float &gt;</text>
</a>
</g>
<!-- Node1&#45;&gt;Node5 -->
<g id="edge8" class="edge"><title>Node1&#45;&gt;Node5</title>
<path fill="none" stroke="orange" stroke-dasharray="5,2" d="M54,-62.2348C54,-48.969 54,-32.3188 54,-21.6674"/>
<polygon fill="orange" stroke="orange" points="50.5001,-62.3761 54,-72.3762 57.5001,-62.3762 50.5001,-62.3761"/>
<text text-anchor="middle" x="74" y="-44.5" font-family="Helvetica,sans-Serif" font-size="10.00"> &lt; float &gt;</text>
</g>
<!-- Node2 -->
<g id="node2" class="node"><title>Node2</title>
<a xlink:href="classTask.html" target="_top" xlink:title="Generalization of something (e.g. a computation) that needs to be done in multiple steps...">
<polygon fill="white" stroke="black" points="35,-132.5 35,-153.5 73,-153.5 73,-132.5 35,-132.5"/>
<text text-anchor="middle" x="54" y="-140.5" font-family="Helvetica,sans-Serif" font-size="10.00">Task</text>
</a>
</g>
<!-- Node2&#45;&gt;Node1 -->
<g id="edge2" class="edge"><title>Node2&#45;&gt;Node1</title>
<path fill="none" stroke="midnightblue" d="M54,-122.231C54,-112.592 54,-101.544 54,-93.6339"/>
<polygon fill="midnightblue" stroke="midnightblue" points="50.5001,-122.273 54,-132.273 57.5001,-122.273 50.5001,-122.273"/>
</g>
<!-- Node3 -->
<g id="node4" class="node"><title>Node3</title>
<a xlink:href="classNamedObject.html" target="_top" xlink:title="Object with a name. ">
<polygon fill="white" stroke="black" points="15.5,-192.5 15.5,-213.5 92.5,-213.5 92.5,-192.5 15.5,-192.5"/>
<text text-anchor="middle" x="54" y="-200.5" font-family="Helvetica,sans-Serif" font-size="10.00">NamedObject</text>
</a>
</g>
<!-- Node3&#45;&gt;Node2 -->
<g id="edge4" class="edge"><title>Node3&#45;&gt;Node2</title>
<path fill="none" stroke="midnightblue" d="M54,-182.231C54,-172.592 54,-161.544 54,-153.634"/>
<polygon fill="midnightblue" stroke="midnightblue" points="50.5001,-182.273 54,-192.273 57.5001,-182.273 50.5001,-182.273"/>
</g>
<!-- Node4 -->
<g id="node6" class="node"><title>Node4</title>
<a xlink:href="classCallBacker.html" target="_top" xlink:title="To be able to send and/or receive CallBacks, inherit from this class. ">
<polygon fill="white" stroke="black" points="21.5,-252.5 21.5,-273.5 86.5,-273.5 86.5,-252.5 21.5,-252.5"/>
<text text-anchor="middle" x="54" y="-260.5" font-family="Helvetica,sans-Serif" font-size="10.00">CallBacker</text>
</a>
</g>
<!-- Node4&#45;&gt;Node3 -->
<g id="edge6" class="edge"><title>Node4&#45;&gt;Node3</title>
<path fill="none" stroke="midnightblue" d="M54,-242.231C54,-232.592 54,-221.544 54,-213.634"/>
<polygon fill="midnightblue" stroke="midnightblue" points="50.5001,-242.273 54,-252.273 57.5001,-242.273 50.5001,-242.273"/>
</g>
</g>
</svg>
