<?xml version="1.0" encoding="UTF-8" standalone="no"?>
<!DOCTYPE svg PUBLIC "-//W3C//DTD SVG 1.1//EN"
 "http://www.w3.org/Graphics/SVG/1.1/DTD/svg11.dtd">
<!-- Generated by graphviz version 2.26.0 (20091210.2329)
 -->
<!-- Title: LineKey Pages: 1 -->
<svg width="76pt" height="146pt"
 viewBox="0.00 0.00 76.00 146.00" xmlns="http://www.w3.org/2000/svg" xmlns:xlink="http://www.w3.org/1999/xlink">
<g id="graph1" class="graph" transform="scale(1 1) rotate(0) translate(4 142)">
<title>LineKey</title>
<polygon fill="white" stroke="white" points="-4,5 -4,-142 73,-142 73,5 -4,5"/>
<!-- Node1 -->
<g id="node1" class="node"><title>Node1</title>
<polygon fill="#bfbfbf" stroke="black" points="8,-0.5 8,-21.5 60,-21.5 60,-0.5 8,-0.5"/>
<text text-anchor="middle" x="34" y="-8.5" font-family="Helvetica,sans-Serif" font-size="10.00">LineKey</text>
</g>
<!-- Node2 -->
<g id="node2" class="node"><title>Node2</title>
<a xlink:href="classBufferString.html" target="_top" xlink:title="OD::String with its own variable length buffer. The buffer has a guaranteed minimum size...">
<polygon fill="white" stroke="black" points="0,-58.5 0,-79.5 68,-79.5 68,-58.5 0,-58.5"/>
<text text-anchor="middle" x="34" y="-66.5" font-family="Helvetica,sans-Serif" font-size="10.00">BufferString</text>
</a>
</g>
<!-- Node2&#45;&gt;Node1 -->
<g id="edge2" class="edge"><title>Node2&#45;&gt;Node1</title>
<path fill="none" stroke="midnightblue" d="M34,-48.1906C34,-39.1684 34,-28.9941 34,-21.5707"/>
<polygon fill="midnightblue" stroke="midnightblue" points="30.5001,-48.3619 34,-58.3619 37.5001,-48.3619 30.5001,-48.3619"/>
</g>
<!-- Node3 -->
<g id="node4" class="node"><title>Node3</title>
<a xlink:href="classOD_1_1String.html" target="_top" xlink:title="encapsulates the read&#45;access&#45;only part of strings in OD. ">
<polygon fill="white" stroke="black" points="2.5,-116.5 2.5,-137.5 65.5,-137.5 65.5,-116.5 2.5,-116.5"/>
<text text-anchor="middle" x="34" y="-124.5" font-family="Helvetica,sans-Serif" font-size="10.00">OD::String</text>
</a>
</g>
<!-- Node3&#45;&gt;Node2 -->
<g id="edge4" class="edge"><title>Node3&#45;&gt;Node2</title>
<path fill="none" stroke="midnightblue" d="M34,-106.191C34,-97.1684 34,-86.9941 34,-79.5707"/>
<polygon fill="midnightblue" stroke="midnightblue" points="30.5001,-106.362 34,-116.362 37.5001,-106.362 30.5001,-106.362"/>
</g>
</g>
</svg>
