<?xml version="1.0" encoding="UTF-8" standalone="no"?>
<!DOCTYPE svg PUBLIC "-//W3C//DTD SVG 1.1//EN"
 "http://www.w3.org/Graphics/SVG/1.1/DTD/svg11.dtd">
<!-- Generated by graphviz version 2.26.0 (20091210.2329)
 -->
<!-- Title: SeisZAxisStretcher Pages: 1 -->
<svg width="108pt" height="262pt"
 viewBox="0.00 0.00 108.00 262.00" xmlns="http://www.w3.org/2000/svg" xmlns:xlink="http://www.w3.org/1999/xlink">
<g id="graph1" class="graph" transform="scale(1 1) rotate(0) translate(4 258)">
<title>SeisZAxisStretcher</title>
<polygon fill="white" stroke="white" points="-4,5 -4,-258 105,-258 105,5 -4,5"/>
<!-- Node1 -->
<g id="node1" class="node"><title>Node1</title>
<polygon fill="#bfbfbf" stroke="black" points="-0.5,-0.5 -0.5,-21.5 100.5,-21.5 100.5,-0.5 -0.5,-0.5"/>
<text text-anchor="middle" x="50" y="-8.5" font-family="Helvetica,sans-Serif" font-size="10.00">SeisZAxisStretcher</text>
</g>
<!-- Node2 -->
<g id="node2" class="node"><title>Node2</title>
<a xlink:href="classParallelTask.html" target="_top" xlink:title="Generalization of a task that can be run in parallel. ">
<polygon fill="white" stroke="black" points="14.5,-58.5 14.5,-79.5 85.5,-79.5 85.5,-58.5 14.5,-58.5"/>
<text text-anchor="middle" x="50" y="-66.5" font-family="Helvetica,sans-Serif" font-size="10.00">ParallelTask</text>
</a>
</g>
<!-- Node2&#45;&gt;Node1 -->
<g id="edge2" class="edge"><title>Node2&#45;&gt;Node1</title>
<path fill="none" stroke="midnightblue" d="M50,-48.1906C50,-39.1684 50,-28.9941 50,-21.5707"/>
<polygon fill="midnightblue" stroke="midnightblue" points="46.5001,-48.3619 50,-58.3619 53.5001,-48.3619 46.5001,-48.3619"/>
</g>
<!-- Node3 -->
<g id="node4" class="node"><title>Node3</title>
<a xlink:href="classTask.html" target="_top" xlink:title="Generalization of something (e.g. a computation) that needs to be done in multiple steps...">
<polygon fill="white" stroke="black" points="31,-116.5 31,-137.5 69,-137.5 69,-116.5 31,-116.5"/>
<text text-anchor="middle" x="50" y="-124.5" font-family="Helvetica,sans-Serif" font-size="10.00">Task</text>
</a>
</g>
<!-- Node3&#45;&gt;Node2 -->
<g id="edge4" class="edge"><title>Node3&#45;&gt;Node2</title>
<path fill="none" stroke="midnightblue" d="M50,-106.191C50,-97.1684 50,-86.9941 50,-79.5707"/>
<polygon fill="midnightblue" stroke="midnightblue" points="46.5001,-106.362 50,-116.362 53.5001,-106.362 46.5001,-106.362"/>
</g>
<!-- Node4 -->
<g id="node6" class="node"><title>Node4</title>
<a xlink:href="classNamedObject.html" target="_top" xlink:title="Object with a name. ">
<polygon fill="white" stroke="black" points="11.5,-174.5 11.5,-195.5 88.5,-195.5 88.5,-174.5 11.5,-174.5"/>
<text text-anchor="middle" x="50" y="-182.5" font-family="Helvetica,sans-Serif" font-size="10.00">NamedObject</text>
</a>
</g>
<!-- Node4&#45;&gt;Node3 -->
<g id="edge6" class="edge"><title>Node4&#45;&gt;Node3</title>
<path fill="none" stroke="midnightblue" d="M50,-164.191C50,-155.168 50,-144.994 50,-137.571"/>
<polygon fill="midnightblue" stroke="midnightblue" points="46.5001,-164.362 50,-174.362 53.5001,-164.362 46.5001,-164.362"/>
</g>
<!-- Node5 -->
<g id="node8" class="node"><title>Node5</title>
<a xlink:href="classCallBacker.html" target="_top" xlink:title="To be able to send and/or receive CallBacks, inherit from this class. ">
<polygon fill="white" stroke="black" points="17.5,-232.5 17.5,-253.5 82.5,-253.5 82.5,-232.5 17.5,-232.5"/>
<text text-anchor="middle" x="50" y="-240.5" font-family="Helvetica,sans-Serif" font-size="10.00">CallBacker</text>
</a>
</g>
<!-- Node5&#45;&gt;Node4 -->
<g id="edge8" class="edge"><title>Node5&#45;&gt;Node4</title>
<path fill="none" stroke="midnightblue" d="M50,-222.191C50,-213.168 50,-202.994 50,-195.571"/>
<polygon fill="midnightblue" stroke="midnightblue" points="46.5001,-222.362 50,-232.362 53.5001,-222.362 46.5001,-222.362"/>
</g>
</g>
</svg>
