<?xml version="1.0" encoding="UTF-8" standalone="no"?>
<!DOCTYPE svg PUBLIC "-//W3C//DTD SVG 1.1//EN"
 "http://www.w3.org/Graphics/SVG/1.1/DTD/svg11.dtd">
<!-- Generated by graphviz version 2.26.0 (20091210.2329)
 -->
<!-- Title: uiWellZRangeSelector Pages: 1 -->
<svg width="122pt" height="320pt"
 viewBox="0.00 0.00 122.00 320.00" xmlns="http://www.w3.org/2000/svg" xmlns:xlink="http://www.w3.org/1999/xlink">
<g id="graph1" class="graph" transform="scale(1 1) rotate(0) translate(4 316)">
<title>uiWellZRangeSelector</title>
<polygon fill="white" stroke="white" points="-4,5 -4,-316 119,-316 119,5 -4,5"/>
<!-- Node1 -->
<g id="node1" class="node"><title>Node1</title>
<polygon fill="#bfbfbf" stroke="black" points="0,-116.5 0,-137.5 114,-137.5 114,-116.5 0,-116.5"/>
<text text-anchor="middle" x="57" y="-124.5" font-family="Helvetica,sans-Serif" font-size="10.00">uiWellZRangeSelector</text>
</g>
<!-- Node5 -->
<g id="node9" class="node"><title>Node5</title>
<a xlink:href="classuiWellExtractParams.html" target="_top" xlink:title="uiWellExtractParams">
<polygon fill="white" stroke="black" points="2.5,-58.5 2.5,-79.5 111.5,-79.5 111.5,-58.5 2.5,-58.5"/>
<text text-anchor="middle" x="57" y="-66.5" font-family="Helvetica,sans-Serif" font-size="10.00">uiWellExtractParams</text>
</a>
</g>
<!-- Node1&#45;&gt;Node5 -->
<g id="edge8" class="edge"><title>Node1&#45;&gt;Node5</title>
<path fill="none" stroke="midnightblue" d="M57,-106.191C57,-97.1684 57,-86.9941 57,-79.5707"/>
<polygon fill="midnightblue" stroke="midnightblue" points="53.5001,-106.362 57,-116.362 60.5001,-106.362 53.5001,-106.362"/>
</g>
<!-- Node2 -->
<g id="node2" class="node"><title>Node2</title>
<a xlink:href="classuiGroup.html" target="_top" xlink:title="uiGroup">
<polygon fill="white" stroke="black" points="32,-174.5 32,-195.5 82,-195.5 82,-174.5 32,-174.5"/>
<text text-anchor="middle" x="57" y="-182.5" font-family="Helvetica,sans-Serif" font-size="10.00">uiGroup</text>
</a>
</g>
<!-- Node2&#45;&gt;Node1 -->
<g id="edge2" class="edge"><title>Node2&#45;&gt;Node1</title>
<path fill="none" stroke="midnightblue" d="M57,-164.191C57,-155.168 57,-144.994 57,-137.571"/>
<polygon fill="midnightblue" stroke="midnightblue" points="53.5001,-164.362 57,-174.362 60.5001,-164.362 53.5001,-164.362"/>
</g>
<!-- Node3 -->
<g id="node4" class="node"><title>Node3</title>
<a xlink:href="classuiParent.html" target="_top" xlink:title="uiParent">
<polygon fill="white" stroke="black" points="30.5,-232.5 30.5,-253.5 83.5,-253.5 83.5,-232.5 30.5,-232.5"/>
<text text-anchor="middle" x="57" y="-240.5" font-family="Helvetica,sans-Serif" font-size="10.00">uiParent</text>
</a>
</g>
<!-- Node3&#45;&gt;Node2 -->
<g id="edge4" class="edge"><title>Node3&#45;&gt;Node2</title>
<path fill="none" stroke="midnightblue" d="M57,-222.191C57,-213.168 57,-202.994 57,-195.571"/>
<polygon fill="midnightblue" stroke="midnightblue" points="53.5001,-222.362 57,-232.362 60.5001,-222.362 53.5001,-222.362"/>
</g>
<!-- Node4 -->
<g id="node6" class="node"><title>Node4</title>
<polygon fill="white" stroke="#bfbfbf" points="19.5,-290.5 19.5,-311.5 94.5,-311.5 94.5,-290.5 19.5,-290.5"/>
<text text-anchor="middle" x="57" y="-298.5" font-family="Helvetica,sans-Serif" font-size="10.00">uiBaseObject</text>
</g>
<!-- Node4&#45;&gt;Node3 -->
<g id="edge6" class="edge"><title>Node4&#45;&gt;Node3</title>
<path fill="none" stroke="midnightblue" d="M57,-280.191C57,-271.168 57,-260.994 57,-253.571"/>
<polygon fill="midnightblue" stroke="midnightblue" points="53.5001,-280.362 57,-290.362 60.5001,-280.362 53.5001,-280.362"/>
</g>
<!-- Node6 -->
<g id="node11" class="node"><title>Node6</title>
<a xlink:href="classuiMultiWellLogSel.html" target="_top" xlink:title="uiMultiWellLogSel">
<polygon fill="white" stroke="black" points="9.5,-0.5 9.5,-21.5 104.5,-21.5 104.5,-0.5 9.5,-0.5"/>
<text text-anchor="middle" x="57" y="-8.5" font-family="Helvetica,sans-Serif" font-size="10.00">uiMultiWellLogSel</text>
</a>
</g>
<!-- Node5&#45;&gt;Node6 -->
<g id="edge10" class="edge"><title>Node5&#45;&gt;Node6</title>
<path fill="none" stroke="midnightblue" d="M57,-48.1906C57,-39.1684 57,-28.9941 57,-21.5707"/>
<polygon fill="midnightblue" stroke="midnightblue" points="53.5001,-48.3619 57,-58.3619 60.5001,-48.3619 53.5001,-48.3619"/>
</g>
</g>
</svg>
