<?xml version="1.0" encoding="UTF-8" standalone="no"?>
<!DOCTYPE svg PUBLIC "-//W3C//DTD SVG 1.1//EN"
 "http://www.w3.org/Graphics/SVG/1.1/DTD/svg11.dtd">
<!-- Generated by graphviz version 2.26.0 (20091210.2329)
 -->
<!-- Title: polygonEMBodyTranslator Pages: 1 -->
<svg width="138pt" height="262pt"
 viewBox="0.00 0.00 138.00 262.00" xmlns="http://www.w3.org/2000/svg" xmlns:xlink="http://www.w3.org/1999/xlink">
<g id="graph1" class="graph" transform="scale(1 1) rotate(0) translate(4 258)">
<title>polygonEMBodyTranslator</title>
<polygon fill="white" stroke="white" points="-4,5 -4,-258 135,-258 135,5 -4,5"/>
<!-- Node1 -->
<g id="node1" class="node"><title>Node1</title>
<polygon fill="#bfbfbf" stroke="black" points="-0.5,-0.5 -0.5,-21.5 130.5,-21.5 130.5,-0.5 -0.5,-0.5"/>
<text text-anchor="middle" x="65" y="-8.5" font-family="Helvetica,sans-Serif" font-size="10.00">polygonEMBodyTranslator</text>
</g>
<!-- Node2 -->
<g id="node2" class="node"><title>Node2</title>
<a xlink:href="classodEMBodyTranslator.html" target="_top" xlink:title="OpendTect format EM::Body Translator. ">
<polygon fill="white" stroke="black" points="11,-58.5 11,-79.5 119,-79.5 119,-58.5 11,-58.5"/>
<text text-anchor="middle" x="65" y="-66.5" font-family="Helvetica,sans-Serif" font-size="10.00">odEMBodyTranslator</text>
</a>
</g>
<!-- Node2&#45;&gt;Node1 -->
<g id="edge2" class="edge"><title>Node2&#45;&gt;Node1</title>
<path fill="none" stroke="midnightblue" d="M65,-48.1906C65,-39.1684 65,-28.9941 65,-21.5707"/>
<polygon fill="midnightblue" stroke="midnightblue" points="61.5001,-48.3619 65,-58.3619 68.5001,-48.3619 61.5001,-48.3619"/>
</g>
<!-- Node3 -->
<g id="node4" class="node"><title>Node3</title>
<a xlink:href="classEMBodyTranslator.html" target="_top" xlink:title="Base class for all EM::Body Translators. ">
<polygon fill="white" stroke="black" points="16,-116.5 16,-137.5 114,-137.5 114,-116.5 16,-116.5"/>
<text text-anchor="middle" x="65" y="-124.5" font-family="Helvetica,sans-Serif" font-size="10.00">EMBodyTranslator</text>
</a>
</g>
<!-- Node3&#45;&gt;Node2 -->
<g id="edge4" class="edge"><title>Node3&#45;&gt;Node2</title>
<path fill="none" stroke="midnightblue" d="M65,-106.191C65,-97.1684 65,-86.9941 65,-79.5707"/>
<polygon fill="midnightblue" stroke="midnightblue" points="61.5001,-106.362 65,-116.362 68.5001,-106.362 61.5001,-106.362"/>
</g>
<!-- Node4 -->
<g id="node6" class="node"><title>Node4</title>
<a xlink:href="classTranslator.html" target="_top" xlink:title="I/O Interpreter class for a certain object type. ">
<polygon fill="white" stroke="black" points="35,-174.5 35,-195.5 95,-195.5 95,-174.5 35,-174.5"/>
<text text-anchor="middle" x="65" y="-182.5" font-family="Helvetica,sans-Serif" font-size="10.00">Translator</text>
</a>
</g>
<!-- Node4&#45;&gt;Node3 -->
<g id="edge6" class="edge"><title>Node4&#45;&gt;Node3</title>
<path fill="none" stroke="midnightblue" d="M65,-164.191C65,-155.168 65,-144.994 65,-137.571"/>
<polygon fill="midnightblue" stroke="midnightblue" points="61.5001,-164.362 65,-174.362 68.5001,-164.362 61.5001,-164.362"/>
</g>
<!-- Node5 -->
<g id="node8" class="node"><title>Node5</title>
<a xlink:href="classCallBacker.html" target="_top" xlink:title="To be able to send and/or receive CallBacks, inherit from this class. ">
<polygon fill="white" stroke="black" points="32.5,-232.5 32.5,-253.5 97.5,-253.5 97.5,-232.5 32.5,-232.5"/>
<text text-anchor="middle" x="65" y="-240.5" font-family="Helvetica,sans-Serif" font-size="10.00">CallBacker</text>
</a>
</g>
<!-- Node5&#45;&gt;Node4 -->
<g id="edge8" class="edge"><title>Node5&#45;&gt;Node4</title>
<path fill="none" stroke="midnightblue" d="M65,-222.191C65,-213.168 65,-202.994 65,-195.571"/>
<polygon fill="midnightblue" stroke="midnightblue" points="61.5001,-222.362 65,-232.362 68.5001,-222.362 61.5001,-222.362"/>
</g>
</g>
</svg>
