<?xml version="1.0" encoding="UTF-8" standalone="no"?>
<!DOCTYPE svg PUBLIC "-//W3C//DTD SVG 1.1//EN"
 "http://www.w3.org/Graphics/SVG/1.1/DTD/svg11.dtd">
<!-- Generated by graphviz version 2.26.0 (20091210.2329)
 -->
<!-- Title: uiTreeItemFactory Pages: 1 -->
<svg width="488pt" height="998pt"
 viewBox="0.00 0.00 488.00 998.00" xmlns="http://www.w3.org/2000/svg" xmlns:xlink="http://www.w3.org/1999/xlink">
<g id="graph1" class="graph" transform="scale(1 1) rotate(0) translate(4 994)">
<title>uiTreeItemFactory</title>
<polygon fill="white" stroke="white" points="-4,5 -4,-994 485,-994 485,5 -4,5"/>
<!-- Node1 -->
<g id="node1" class="node"><title>Node1</title>
<polygon fill="#bfbfbf" stroke="black" points="0,-410.5 0,-431.5 96,-431.5 96,-410.5 0,-410.5"/>
<text text-anchor="middle" x="48" y="-418.5" font-family="Helvetica,sans-Serif" font-size="10.00">uiTreeItemFactory</text>
</g>
<!-- Node2 -->
<g id="node3" class="node"><title>Node2</title>
<a xlink:href="classuiODTreeItemFactory.html" target="_top" xlink:title="uiODTreeItemFactory">
<polygon fill="white" stroke="black" points="145.5,-636.5 145.5,-657.5 256.5,-657.5 256.5,-636.5 145.5,-636.5"/>
<text text-anchor="middle" x="201" y="-644.5" font-family="Helvetica,sans-Serif" font-size="10.00">uiODTreeItemFactory</text>
</a>
</g>
<!-- Node1&#45;&gt;Node2 -->
<g id="edge2" class="edge"><title>Node1&#45;&gt;Node2</title>
<path fill="none" stroke="midnightblue" d="M60.8782,-440.023C91.8704,-485.802 169.821,-600.945 193.841,-636.426"/>
<polygon fill="midnightblue" stroke="midnightblue" points="63.6787,-437.916 55.1743,-431.597 57.8821,-441.84 63.6787,-437.916"/>
</g>
<!-- Node19 -->
<g id="node37" class="node"><title>Node19</title>
<a xlink:href="classuiODVw2DTreeItemFactory.html" target="_top" xlink:title="uiODVw2DTreeItemFactory">
<polygon fill="white" stroke="black" points="132,-184.5 132,-205.5 270,-205.5 270,-184.5 132,-184.5"/>
<text text-anchor="middle" x="201" y="-192.5" font-family="Helvetica,sans-Serif" font-size="10.00">uiODVw2DTreeItemFactory</text>
</a>
</g>
<!-- Node1&#45;&gt;Node19 -->
<g id="edge36" class="edge"><title>Node1&#45;&gt;Node19</title>
<path fill="none" stroke="midnightblue" d="M60.8782,-401.977C91.8704,-356.198 169.821,-241.055 193.841,-205.574"/>
<polygon fill="midnightblue" stroke="midnightblue" points="57.8821,-400.16 55.1743,-410.403 63.6787,-404.084 57.8821,-400.16"/>
</g>
<!-- Node3 -->
<g id="node5" class="node"><title>Node3</title>
<a xlink:href="classLine2DTreeItemFactory.html" target="_top" xlink:title="Line2DTreeItemFactory">
<polygon fill="white" stroke="black" points="333.5,-968.5 333.5,-989.5 452.5,-989.5 452.5,-968.5 333.5,-968.5"/>
<text text-anchor="middle" x="393" y="-976.5" font-family="Helvetica,sans-Serif" font-size="10.00">Line2DTreeItemFactory</text>
</a>
</g>
<!-- Node2&#45;&gt;Node3 -->
<g id="edge4" class="edge"><title>Node2&#45;&gt;Node3</title>
<path fill="none" stroke="midnightblue" d="M205.212,-667.649C218.456,-730.6 261.048,-918.278 306,-959 313.696,-965.971 323.322,-970.664 333.342,-973.792"/>
<polygon fill="midnightblue" stroke="midnightblue" points="208.61,-666.798 203.15,-657.718 201.756,-668.221 208.61,-666.798"/>
</g>
<!-- Node4 -->
<g id="node7" class="node"><title>Node4</title>
<a xlink:href="classuiODAnnotTreeItemFactory.html" target="_top" xlink:title="uiODAnnotTreeItemFactory">
<polygon fill="white" stroke="black" points="324.5,-928.5 324.5,-949.5 461.5,-949.5 461.5,-928.5 324.5,-928.5"/>
<text text-anchor="middle" x="393" y="-936.5" font-family="Helvetica,sans-Serif" font-size="10.00">uiODAnnotTreeItemFactory</text>
</a>
</g>
<!-- Node2&#45;&gt;Node4 -->
<g id="edge6" class="edge"><title>Node2&#45;&gt;Node4</title>
<path fill="none" stroke="midnightblue" d="M202.574,-667.687C207.612,-718.714 227.946,-851.342 306,-919 311.387,-923.67 317.647,-927.307 324.293,-930.132"/>
<polygon fill="midnightblue" stroke="midnightblue" points="206.046,-667.224 201.675,-657.573 199.074,-667.844 206.046,-667.224"/>
</g>
<!-- Node5 -->
<g id="node9" class="node"><title>Node5</title>
<a xlink:href="classuiODBodyDisplayTreeItemFactory.html" target="_top" xlink:title="uiODBodyDisplayTreeItemFactory">
<polygon fill="white" stroke="black" points="309.5,-888.5 309.5,-909.5 476.5,-909.5 476.5,-888.5 309.5,-888.5"/>
<text text-anchor="middle" x="393" y="-896.5" font-family="Helvetica,sans-Serif" font-size="10.00">uiODBodyDisplayTreeItemFactory</text>
</a>
</g>
<!-- Node2&#45;&gt;Node5 -->
<g id="edge8" class="edge"><title>Node2&#45;&gt;Node5</title>
<path fill="none" stroke="midnightblue" d="M204.106,-667.719C212.093,-713.396 237.729,-823.125 306,-879 310.558,-882.73 315.679,-885.793 321.096,-888.306"/>
<polygon fill="midnightblue" stroke="midnightblue" points="207.551,-667.093 202.477,-657.792 200.643,-668.227 207.551,-667.093"/>
</g>
<!-- Node6 -->
<g id="node11" class="node"><title>Node6</title>
<a xlink:href="classuiODCrosslineTreeItemFactory.html" target="_top" xlink:title="uiODCrosslineTreeItemFactory">
<polygon fill="white" stroke="black" points="317,-848.5 317,-869.5 469,-869.5 469,-848.5 317,-848.5"/>
<text text-anchor="middle" x="393" y="-856.5" font-family="Helvetica,sans-Serif" font-size="10.00">uiODCrosslineTreeItemFactory</text>
</a>
</g>
<!-- Node2&#45;&gt;Node6 -->
<g id="edge10" class="edge"><title>Node2&#45;&gt;Node6</title>
<path fill="none" stroke="midnightblue" d="M206.191,-667.635C217.308,-707.382 247.309,-794.553 306,-839 311.066,-842.836 316.74,-845.957 322.699,-848.492"/>
<polygon fill="midnightblue" stroke="midnightblue" points="209.514,-666.512 203.549,-657.757 202.752,-668.321 209.514,-666.512"/>
</g>
<!-- Node7 -->
<g id="node13" class="node"><title>Node7</title>
<a xlink:href="classuiODFaultStickSetTreeItemFactory.html" target="_top" xlink:title="uiODFaultStickSetTreeItem\lFactory">
<polygon fill="white" stroke="black" points="324.5,-796 324.5,-830 461.5,-830 461.5,-796 324.5,-796"/>
<text text-anchor="start" x="332.5" y="-817" font-family="Helvetica,sans-Serif" font-size="10.00">uiODFaultStickSetTreeItem</text>
<text text-anchor="middle" x="393" y="-804" font-family="Helvetica,sans-Serif" font-size="10.00">Factory</text>
</a>
</g>
<!-- Node2&#45;&gt;Node7 -->
<g id="edge12" class="edge"><title>Node2&#45;&gt;Node7</title>
<path fill="none" stroke="midnightblue" d="M210.547,-666.762C226.229,-697.147 260.322,-755.153 306,-787 311.561,-790.877 317.708,-794.185 324.087,-797.006"/>
<polygon fill="midnightblue" stroke="midnightblue" points="213.559,-664.961 205.944,-657.595 207.303,-668.102 213.559,-664.961"/>
</g>
<!-- Node8 -->
<g id="node15" class="node"><title>Node8</title>
<a xlink:href="classuiODFaultTreeItemFactory.html" target="_top" xlink:title="uiODFaultTreeItemFactory">
<polygon fill="white" stroke="black" points="326.5,-756.5 326.5,-777.5 459.5,-777.5 459.5,-756.5 326.5,-756.5"/>
<text text-anchor="middle" x="393" y="-764.5" font-family="Helvetica,sans-Serif" font-size="10.00">uiODFaultTreeItemFactory</text>
</a>
</g>
<!-- Node2&#45;&gt;Node8 -->
<g id="edge14" class="edge"><title>Node2&#45;&gt;Node8</title>
<path fill="none" stroke="midnightblue" d="M215.172,-665.6C233.568,-688.388 267.862,-726.487 306,-747 313.097,-750.818 320.901,-753.909 328.831,-756.413"/>
<polygon fill="midnightblue" stroke="midnightblue" points="217.867,-663.366 208.925,-657.685 212.373,-667.703 217.867,-663.366"/>
</g>
<!-- Node9 -->
<g id="node17" class="node"><title>Node9</title>
<a xlink:href="classuiODHorizon2DTreeItemFactory.html" target="_top" xlink:title="uiODHorizon2DTreeItemFactory">
<polygon fill="white" stroke="black" points="314,-716.5 314,-737.5 472,-737.5 472,-716.5 314,-716.5"/>
<text text-anchor="middle" x="393" y="-724.5" font-family="Helvetica,sans-Serif" font-size="10.00">uiODHorizon2DTreeItemFactory</text>
</a>
</g>
<!-- Node2&#45;&gt;Node9 -->
<g id="edge16" class="edge"><title>Node2&#45;&gt;Node9</title>
<path fill="none" stroke="midnightblue" d="M224.723,-663.258C245.371,-676.734 276.53,-695.483 306,-707 315.527,-710.723 325.924,-713.856 336.11,-716.455"/>
<polygon fill="midnightblue" stroke="midnightblue" points="226.555,-660.273 216.287,-657.662 222.685,-666.106 226.555,-660.273"/>
</g>
<!-- Node10 -->
<g id="node19" class="node"><title>Node10</title>
<a xlink:href="classuiODHorizonTreeItemFactory.html" target="_top" xlink:title="uiODHorizonTreeItemFactory">
<polygon fill="white" stroke="black" points="320.5,-676.5 320.5,-697.5 465.5,-697.5 465.5,-676.5 320.5,-676.5"/>
<text text-anchor="middle" x="393" y="-684.5" font-family="Helvetica,sans-Serif" font-size="10.00">uiODHorizonTreeItemFactory</text>
</a>
</g>
<!-- Node2&#45;&gt;Node10 -->
<g id="edge18" class="edge"><title>Node2&#45;&gt;Node10</title>
<path fill="none" stroke="midnightblue" d="M261.24,-659.55C287.374,-664.995 317.633,-671.299 342.558,-676.491"/>
<polygon fill="midnightblue" stroke="midnightblue" points="261.949,-656.123 251.446,-657.51 260.522,-662.976 261.949,-656.123"/>
</g>
<!-- Node11 -->
<g id="node21" class="node"><title>Node11</title>
<a xlink:href="classuiODInlineTreeItemFactory.html" target="_top" xlink:title="uiODInlineTreeItemFactory">
<polygon fill="white" stroke="black" points="326,-636.5 326,-657.5 460,-657.5 460,-636.5 326,-636.5"/>
<text text-anchor="middle" x="393" y="-644.5" font-family="Helvetica,sans-Serif" font-size="10.00">uiODInlineTreeItemFactory</text>
</a>
</g>
<!-- Node2&#45;&gt;Node11 -->
<g id="edge20" class="edge"><title>Node2&#45;&gt;Node11</title>
<path fill="none" stroke="midnightblue" d="M266.617,-647C285.676,-647 306.516,-647 325.677,-647"/>
<polygon fill="midnightblue" stroke="midnightblue" points="266.534,-643.5 256.534,-647 266.534,-650.5 266.534,-643.5"/>
</g>
<!-- Node12 -->
<g id="node23" class="node"><title>Node12</title>
<a xlink:href="classuiODPickSetTreeItemFactory.html" target="_top" xlink:title="uiODPickSetTreeItemFactory">
<polygon fill="white" stroke="black" points="320,-596.5 320,-617.5 466,-617.5 466,-596.5 320,-596.5"/>
<text text-anchor="middle" x="393" y="-604.5" font-family="Helvetica,sans-Serif" font-size="10.00">uiODPickSetTreeItemFactory</text>
</a>
</g>
<!-- Node2&#45;&gt;Node12 -->
<g id="edge22" class="edge"><title>Node2&#45;&gt;Node12</title>
<path fill="none" stroke="midnightblue" d="M261.24,-634.45C287.374,-629.005 317.633,-622.701 342.558,-617.509"/>
<polygon fill="midnightblue" stroke="midnightblue" points="260.522,-631.024 251.446,-636.49 261.949,-637.877 260.522,-631.024"/>
</g>
<!-- Node13 -->
<g id="node25" class="node"><title>Node13</title>
<a xlink:href="classuiODPolygonTreeItemFactory.html" target="_top" xlink:title="uiODPolygonTreeItemFactory">
<polygon fill="white" stroke="black" points="320,-556.5 320,-577.5 466,-577.5 466,-556.5 320,-556.5"/>
<text text-anchor="middle" x="393" y="-564.5" font-family="Helvetica,sans-Serif" font-size="10.00">uiODPolygonTreeItemFactory</text>
</a>
</g>
<!-- Node2&#45;&gt;Node13 -->
<g id="edge24" class="edge"><title>Node2&#45;&gt;Node13</title>
<path fill="none" stroke="midnightblue" d="M224.723,-630.742C245.371,-617.266 276.53,-598.517 306,-587 315.527,-583.277 325.924,-580.144 336.11,-577.545"/>
<polygon fill="midnightblue" stroke="midnightblue" points="222.685,-627.894 216.287,-636.338 226.555,-633.727 222.685,-627.894"/>
</g>
<!-- Node14 -->
<g id="node27" class="node"><title>Node14</title>
<a xlink:href="classuiODPSEventsTreeItemFactory.html" target="_top" xlink:title="uiODPSEventsTreeItemFactory">
<polygon fill="white" stroke="black" points="315.5,-516.5 315.5,-537.5 470.5,-537.5 470.5,-516.5 315.5,-516.5"/>
<text text-anchor="middle" x="393" y="-524.5" font-family="Helvetica,sans-Serif" font-size="10.00">uiODPSEventsTreeItemFactory</text>
</a>
</g>
<!-- Node2&#45;&gt;Node14 -->
<g id="edge26" class="edge"><title>Node2&#45;&gt;Node14</title>
<path fill="none" stroke="midnightblue" d="M215.172,-628.4C233.568,-605.612 267.862,-567.513 306,-547 313.097,-543.182 320.901,-540.091 328.831,-537.587"/>
<polygon fill="midnightblue" stroke="midnightblue" points="212.373,-626.297 208.925,-636.315 217.867,-630.634 212.373,-626.297"/>
</g>
<!-- Node15 -->
<g id="node29" class="node"><title>Node15</title>
<a xlink:href="classuiODRandomLineTreeItemFactory.html" target="_top" xlink:title="uiODRandomLineTreeItemFactory">
<polygon fill="white" stroke="black" points="310,-476.5 310,-497.5 476,-497.5 476,-476.5 310,-476.5"/>
<text text-anchor="middle" x="393" y="-484.5" font-family="Helvetica,sans-Serif" font-size="10.00">uiODRandomLineTreeItemFactory</text>
</a>
</g>
<!-- Node2&#45;&gt;Node15 -->
<g id="edge28" class="edge"><title>Node2&#45;&gt;Node15</title>
<path fill="none" stroke="midnightblue" d="M210.304,-626.877C225.66,-596.008 259.319,-537.359 306,-507 311.846,-503.198 318.326,-500.114 325.035,-497.614"/>
<polygon fill="midnightblue" stroke="midnightblue" points="206.999,-625.673 205.806,-636.2 213.304,-628.715 206.999,-625.673"/>
</g>
<!-- Node16 -->
<g id="node31" class="node"><title>Node16</title>
<a xlink:href="classuiODVolrenTreeItemFactory.html" target="_top" xlink:title="uiODVolrenTreeItemFactory">
<polygon fill="white" stroke="black" points="323.5,-436.5 323.5,-457.5 462.5,-457.5 462.5,-436.5 323.5,-436.5"/>
<text text-anchor="middle" x="393" y="-444.5" font-family="Helvetica,sans-Serif" font-size="10.00">uiODVolrenTreeItemFactory</text>
</a>
</g>
<!-- Node2&#45;&gt;Node16 -->
<g id="edge30" class="edge"><title>Node2&#45;&gt;Node16</title>
<path fill="none" stroke="midnightblue" d="M206.908,-626.619C218.949,-588.869 250.038,-508.176 306,-467 311.243,-463.142 317.107,-460.012 323.248,-457.475"/>
<polygon fill="midnightblue" stroke="midnightblue" points="203.475,-625.877 203.893,-636.463 210.168,-627.927 203.475,-625.877"/>
</g>
<!-- Node17 -->
<g id="node33" class="node"><title>Node17</title>
<a xlink:href="classuiODWellTreeItemFactory.html" target="_top" xlink:title="uiODWellTreeItemFactory">
<polygon fill="white" stroke="black" points="327.5,-396.5 327.5,-417.5 458.5,-417.5 458.5,-396.5 327.5,-396.5"/>
<text text-anchor="middle" x="393" y="-404.5" font-family="Helvetica,sans-Serif" font-size="10.00">uiODWellTreeItemFactory</text>
</a>
</g>
<!-- Node2&#45;&gt;Node17 -->
<g id="edge32" class="edge"><title>Node2&#45;&gt;Node17</title>
<path fill="none" stroke="midnightblue" d="M204.688,-626.165C213.621,-582.129 240.689,-479.355 306,-427 312.288,-421.959 319.611,-418.141 327.289,-415.257"/>
<polygon fill="midnightblue" stroke="midnightblue" points="201.198,-625.778 202.754,-636.258 208.073,-627.095 201.198,-625.778"/>
</g>
<!-- Node18 -->
<g id="node35" class="node"><title>Node18</title>
<a xlink:href="classuiODZsliceTreeItemFactory.html" target="_top" xlink:title="uiODZsliceTreeItemFactory">
<polygon fill="white" stroke="black" points="324.5,-356.5 324.5,-377.5 461.5,-377.5 461.5,-356.5 324.5,-356.5"/>
<text text-anchor="middle" x="393" y="-364.5" font-family="Helvetica,sans-Serif" font-size="10.00">uiODZsliceTreeItemFactory</text>
</a>
</g>
<!-- Node2&#45;&gt;Node18 -->
<g id="edge34" class="edge"><title>Node2&#45;&gt;Node18</title>
<path fill="none" stroke="midnightblue" d="M202.998,-626.219C208.914,-576.691 230.938,-451.059 306,-387 311.423,-382.372 317.706,-378.762 324.365,-375.952"/>
<polygon fill="midnightblue" stroke="midnightblue" points="199.498,-626.021 201.891,-636.342 206.457,-626.782 199.498,-626.021"/>
</g>
<!-- Node20 -->
<g id="node39" class="node"><title>Node20</title>
<a xlink:href="classuiODVw2DFaultSS2DTreeItemFactory.html" target="_top" xlink:title="uiODVw2DFaultSS2DTreeItem\lFactory">
<polygon fill="white" stroke="black" points="316.5,-304 316.5,-338 469.5,-338 469.5,-304 316.5,-304"/>
<text text-anchor="start" x="324.5" y="-325" font-family="Helvetica,sans-Serif" font-size="10.00">uiODVw2DFaultSS2DTreeItem</text>
<text text-anchor="middle" x="393" y="-312" font-family="Helvetica,sans-Serif" font-size="10.00">Factory</text>
</a>
</g>
<!-- Node19&#45;&gt;Node20 -->
<g id="edge38" class="edge"><title>Node19&#45;&gt;Node20</title>
<path fill="none" stroke="midnightblue" d="M215.681,-213.554C234.37,-235.977 268.736,-273.381 306,-295 311.727,-298.323 317.916,-301.255 324.263,-303.835"/>
<polygon fill="midnightblue" stroke="midnightblue" points="218.349,-211.288 209.312,-205.758 212.928,-215.717 218.349,-211.288"/>
</g>
<!-- Node21 -->
<g id="node41" class="node"><title>Node21</title>
<a xlink:href="classuiODVw2DFaultSSTreeItemFactory.html" target="_top" xlink:title="uiODVw2DFaultSSTreeItemFactory">
<polygon fill="white" stroke="black" points="306.5,-264.5 306.5,-285.5 479.5,-285.5 479.5,-264.5 306.5,-264.5"/>
<text text-anchor="middle" x="393" y="-272.5" font-family="Helvetica,sans-Serif" font-size="10.00">uiODVw2DFaultSSTreeItemFactory</text>
</a>
</g>
<!-- Node19&#45;&gt;Node21 -->
<g id="edge40" class="edge"><title>Node19&#45;&gt;Node21</title>
<path fill="none" stroke="midnightblue" d="M224.723,-211.258C245.371,-224.734 276.53,-243.483 306,-255 315.527,-258.723 325.924,-261.856 336.11,-264.455"/>
<polygon fill="midnightblue" stroke="midnightblue" points="226.555,-208.273 216.287,-205.662 222.685,-214.106 226.555,-208.273"/>
</g>
<!-- Node22 -->
<g id="node43" class="node"><title>Node22</title>
<a xlink:href="classuiODVw2DFaultTreeItemFactory.html" target="_top" xlink:title="uiODVw2DFaultTreeItemFactory">
<polygon fill="white" stroke="black" points="313,-224.5 313,-245.5 473,-245.5 473,-224.5 313,-224.5"/>
<text text-anchor="middle" x="393" y="-232.5" font-family="Helvetica,sans-Serif" font-size="10.00">uiODVw2DFaultTreeItemFactory</text>
</a>
</g>
<!-- Node19&#45;&gt;Node22 -->
<g id="edge42" class="edge"><title>Node19&#45;&gt;Node22</title>
<path fill="none" stroke="midnightblue" d="M261.24,-207.55C287.374,-212.995 317.633,-219.299 342.558,-224.491"/>
<polygon fill="midnightblue" stroke="midnightblue" points="261.949,-204.123 251.446,-205.51 260.522,-210.976 261.949,-204.123"/>
</g>
<!-- Node23 -->
<g id="node45" class="node"><title>Node23</title>
<a xlink:href="classuiODVw2DHor2DTreeItemFactory.html" target="_top" xlink:title="uiODVw2DHor2DTreeItemFactory">
<polygon fill="white" stroke="black" points="309.5,-184.5 309.5,-205.5 476.5,-205.5 476.5,-184.5 309.5,-184.5"/>
<text text-anchor="middle" x="393" y="-192.5" font-family="Helvetica,sans-Serif" font-size="10.00">uiODVw2DHor2DTreeItemFactory</text>
</a>
</g>
<!-- Node19&#45;&gt;Node23 -->
<g id="edge44" class="edge"><title>Node19&#45;&gt;Node23</title>
<path fill="none" stroke="midnightblue" d="M280.061,-195C289.773,-195 299.722,-195 309.497,-195"/>
<polygon fill="midnightblue" stroke="midnightblue" points="280.045,-191.5 270.045,-195 280.045,-198.5 280.045,-191.5"/>
</g>
<!-- Node24 -->
<g id="node47" class="node"><title>Node24</title>
<a xlink:href="classuiODVw2DHor3DTreeItemFactory.html" target="_top" xlink:title="uiODVw2DHor3DTreeItemFactory">
<polygon fill="white" stroke="black" points="309.5,-144.5 309.5,-165.5 476.5,-165.5 476.5,-144.5 309.5,-144.5"/>
<text text-anchor="middle" x="393" y="-152.5" font-family="Helvetica,sans-Serif" font-size="10.00">uiODVw2DHor3DTreeItemFactory</text>
</a>
</g>
<!-- Node19&#45;&gt;Node24 -->
<g id="edge46" class="edge"><title>Node19&#45;&gt;Node24</title>
<path fill="none" stroke="midnightblue" d="M261.24,-182.45C287.374,-177.005 317.633,-170.701 342.558,-165.509"/>
<polygon fill="midnightblue" stroke="midnightblue" points="260.522,-179.024 251.446,-184.49 261.949,-185.877 260.522,-179.024"/>
</g>
<!-- Node25 -->
<g id="node49" class="node"><title>Node25</title>
<a xlink:href="classuiODVw2DPickSetTreeItemFactory.html" target="_top" xlink:title="uiODVw2DPickSetTreeItemFactory">
<polygon fill="white" stroke="black" points="306.5,-104.5 306.5,-125.5 479.5,-125.5 479.5,-104.5 306.5,-104.5"/>
<text text-anchor="middle" x="393" y="-112.5" font-family="Helvetica,sans-Serif" font-size="10.00">uiODVw2DPickSetTreeItemFactory</text>
</a>
</g>
<!-- Node19&#45;&gt;Node25 -->
<g id="edge48" class="edge"><title>Node19&#45;&gt;Node25</title>
<path fill="none" stroke="midnightblue" d="M224.723,-178.742C245.371,-165.266 276.53,-146.517 306,-135 315.527,-131.277 325.924,-128.144 336.11,-125.545"/>
<polygon fill="midnightblue" stroke="midnightblue" points="222.685,-175.894 216.287,-184.338 226.555,-181.727 222.685,-175.894"/>
</g>
<!-- Node26 -->
<g id="node51" class="node"><title>Node26</title>
<a xlink:href="classuiODVW2DVariableDensityTreeItemFactory.html" target="_top" xlink:title="uiODVW2DVariableDensityTree\lItemFactory">
<polygon fill="white" stroke="black" points="314.5,-52 314.5,-86 471.5,-86 471.5,-52 314.5,-52"/>
<text text-anchor="start" x="322.5" y="-73" font-family="Helvetica,sans-Serif" font-size="10.00">uiODVW2DVariableDensityTree</text>
<text text-anchor="middle" x="393" y="-60" font-family="Helvetica,sans-Serif" font-size="10.00">ItemFactory</text>
</a>
</g>
<!-- Node19&#45;&gt;Node26 -->
<g id="edge50" class="edge"><title>Node19&#45;&gt;Node26</title>
<path fill="none" stroke="midnightblue" d="M215.681,-176.446C234.37,-154.023 268.736,-116.619 306,-95 311.727,-91.6774 317.916,-88.7452 324.263,-86.1648"/>
<polygon fill="midnightblue" stroke="midnightblue" points="212.928,-174.283 209.312,-184.242 218.349,-178.712 212.928,-174.283"/>
</g>
<!-- Node27 -->
<g id="node53" class="node"><title>Node27</title>
<a xlink:href="classuiODVW2DWiggleVarAreaTreeItemFactory.html" target="_top" xlink:title="uiODVW2DWiggleVarAreaTree\lItemFactory">
<polygon fill="white" stroke="black" points="316.5,-0 316.5,-34 469.5,-34 469.5,-0 316.5,-0"/>
<text text-anchor="start" x="324.5" y="-21" font-family="Helvetica,sans-Serif" font-size="10.00">uiODVW2DWiggleVarAreaTree</text>
<text text-anchor="middle" x="393" y="-8" font-family="Helvetica,sans-Serif" font-size="10.00">ItemFactory</text>
</a>
</g>
<!-- Node19&#45;&gt;Node27 -->
<g id="edge52" class="edge"><title>Node19&#45;&gt;Node27</title>
<path fill="none" stroke="midnightblue" d="M209.461,-174.925C224.22,-142.335 257.769,-78.0437 306,-43 310.719,-39.5715 315.891,-36.5909 321.287,-34.0004"/>
<polygon fill="midnightblue" stroke="midnightblue" points="206.154,-173.751 205.335,-184.314 212.562,-176.568 206.154,-173.751"/>
</g>
</g>
</svg>
