<?xml version="1.0" encoding="UTF-8" standalone="no"?>
<!DOCTYPE svg PUBLIC "-//W3C//DTD SVG 1.1//EN"
 "http://www.w3.org/Graphics/SVG/1.1/DTD/svg11.dtd">
<!-- Generated by graphviz version 2.26.0 (20091210.2329)
 -->
<!-- Title: Seis::SeqOut Pages: 1 -->
<svg width="98pt" height="146pt"
 viewBox="0.00 0.00 98.00 146.00" xmlns="http://www.w3.org/2000/svg" xmlns:xlink="http://www.w3.org/1999/xlink">
<g id="graph1" class="graph" transform="scale(1 1) rotate(0) translate(4 142)">
<title>Seis::SeqOut</title>
<polygon fill="white" stroke="white" points="-4,5 -4,-142 95,-142 95,5 -4,5"/>
<!-- Node1 -->
<g id="node1" class="node"><title>Node1</title>
<polygon fill="#bfbfbf" stroke="black" points="7.5,-58.5 7.5,-79.5 82.5,-79.5 82.5,-58.5 7.5,-58.5"/>
<text text-anchor="middle" x="45" y="-66.5" font-family="Helvetica,sans-Serif" font-size="10.00">Seis::SeqOut</text>
</g>
<!-- Node3 -->
<g id="node5" class="node"><title>Node3</title>
<a xlink:href="classSeis_1_1ODSeqOut.html" target="_top" xlink:title="Seismic Sequential output via SeistrcWriter. ">
<polygon fill="white" stroke="black" points="0,-0.5 0,-21.5 90,-21.5 90,-0.5 0,-0.5"/>
<text text-anchor="middle" x="45" y="-8.5" font-family="Helvetica,sans-Serif" font-size="10.00">Seis::ODSeqOut</text>
</a>
</g>
<!-- Node1&#45;&gt;Node3 -->
<g id="edge4" class="edge"><title>Node1&#45;&gt;Node3</title>
<path fill="none" stroke="midnightblue" d="M45,-48.1906C45,-39.1684 45,-28.9941 45,-21.5707"/>
<polygon fill="midnightblue" stroke="midnightblue" points="41.5001,-48.3619 45,-58.3619 48.5001,-48.3619 41.5001,-48.3619"/>
</g>
<!-- Node2 -->
<g id="node2" class="node"><title>Node2</title>
<a xlink:href="classSeis_1_1SeqIO.html" target="_top" xlink:title="Base class for Seismic Sequential IO classes. ">
<polygon fill="white" stroke="black" points="10,-116.5 10,-137.5 80,-137.5 80,-116.5 10,-116.5"/>
<text text-anchor="middle" x="45" y="-124.5" font-family="Helvetica,sans-Serif" font-size="10.00">Seis::SeqIO</text>
</a>
</g>
<!-- Node2&#45;&gt;Node1 -->
<g id="edge2" class="edge"><title>Node2&#45;&gt;Node1</title>
<path fill="none" stroke="midnightblue" d="M45,-106.191C45,-97.1684 45,-86.9941 45,-79.5707"/>
<polygon fill="midnightblue" stroke="midnightblue" points="41.5001,-106.362 45,-116.362 48.5001,-106.362 41.5001,-106.362"/>
</g>
</g>
</svg>
