<?xml version="1.0" encoding="UTF-8" standalone="no"?>
<!DOCTYPE svg PUBLIC "-//W3C//DTD SVG 1.1//EN"
 "http://www.w3.org/Graphics/SVG/1.1/DTD/svg11.dtd">
<!-- Generated by graphviz version 2.26.0 (20091210.2329)
 -->
<!-- Title: uiODDataTreeItem Pages: 1 -->
<svg width="664pt" height="202pt"
 viewBox="0.00 0.00 664.00 202.00" xmlns="http://www.w3.org/2000/svg" xmlns:xlink="http://www.w3.org/1999/xlink">
<g id="graph1" class="graph" transform="scale(1 1) rotate(0) translate(4 198)">
<title>uiODDataTreeItem</title>
<polygon fill="white" stroke="white" points="-4,5 -4,-198 661,-198 661,5 -4,5"/>
<!-- Node1 -->
<g id="node1" class="node"><title>Node1</title>
<polygon fill="#bfbfbf" stroke="black" points="202.5,-66.5 202.5,-87.5 301.5,-87.5 301.5,-66.5 202.5,-66.5"/>
<text text-anchor="middle" x="252" y="-74.5" font-family="Helvetica,sans-Serif" font-size="10.00">uiODDataTreeItem</text>
</g>
<!-- Node4 -->
<g id="node7" class="node"><title>Node4</title>
<a xlink:href="classuiODAttribTreeItem.html" target="_top" xlink:title="uiODAttribTreeItem">
<polygon fill="white" stroke="black" points="350.5,-86.5 350.5,-107.5 451.5,-107.5 451.5,-86.5 350.5,-86.5"/>
<text text-anchor="middle" x="401" y="-94.5" font-family="Helvetica,sans-Serif" font-size="10.00">uiODAttribTreeItem</text>
</a>
</g>
<!-- Node1&#45;&gt;Node4 -->
<g id="edge6" class="edge"><title>Node1&#45;&gt;Node4</title>
<path fill="none" stroke="midnightblue" d="M311.716,-85.0156C324.512,-86.7332 337.914,-88.5321 350.33,-90.1986"/>
<polygon fill="midnightblue" stroke="midnightblue" points="311.992,-81.5213 301.615,-83.6597 311.06,-88.459 311.992,-81.5213"/>
</g>
<!-- Node10 -->
<g id="node19" class="node"><title>Node10</title>
<a xlink:href="classVolProc_1_1uiDataTreeItem.html" target="_top" xlink:title="VolProc::uiDataTreeItem">
<polygon fill="white" stroke="black" points="338.5,-46.5 338.5,-67.5 463.5,-67.5 463.5,-46.5 338.5,-46.5"/>
<text text-anchor="middle" x="401" y="-54.5" font-family="Helvetica,sans-Serif" font-size="10.00">VolProc::uiDataTreeItem</text>
</a>
</g>
<!-- Node1&#45;&gt;Node10 -->
<g id="edge18" class="edge"><title>Node1&#45;&gt;Node10</title>
<path fill="none" stroke="midnightblue" d="M311.735,-68.9819C320.493,-67.8063 329.534,-66.5927 338.349,-65.4096"/>
<polygon fill="midnightblue" stroke="midnightblue" points="311.06,-65.541 301.615,-70.3403 311.992,-72.4787 311.06,-65.541"/>
</g>
<!-- Node2 -->
<g id="node2" class="node"><title>Node2</title>
<a xlink:href="classuiTreeItem.html" target="_top" xlink:title="uiTreeItem">
<polygon fill="white" stroke="black" points="102.5,-66.5 102.5,-87.5 165.5,-87.5 165.5,-66.5 102.5,-66.5"/>
<text text-anchor="middle" x="134" y="-74.5" font-family="Helvetica,sans-Serif" font-size="10.00">uiTreeItem</text>
</a>
</g>
<!-- Node2&#45;&gt;Node1 -->
<g id="edge2" class="edge"><title>Node2&#45;&gt;Node1</title>
<path fill="none" stroke="midnightblue" d="M175.827,-77C184.458,-77 193.626,-77 202.5,-77"/>
<polygon fill="midnightblue" stroke="midnightblue" points="175.622,-73.5001 165.622,-77 175.622,-80.5001 175.622,-73.5001"/>
</g>
<!-- Node3 -->
<g id="node4" class="node"><title>Node3</title>
<a xlink:href="classCallBacker.html" target="_top" xlink:title="To be able to send and/or receive CallBacks, inherit from this class. ">
<polygon fill="white" stroke="black" points="0.5,-66.5 0.5,-87.5 65.5,-87.5 65.5,-66.5 0.5,-66.5"/>
<text text-anchor="middle" x="33" y="-74.5" font-family="Helvetica,sans-Serif" font-size="10.00">CallBacker</text>
</a>
</g>
<!-- Node3&#45;&gt;Node2 -->
<g id="edge4" class="edge"><title>Node3&#45;&gt;Node2</title>
<path fill="none" stroke="midnightblue" d="M75.7263,-77C84.6133,-77 93.8294,-77 102.238,-77"/>
<polygon fill="midnightblue" stroke="midnightblue" points="75.513,-73.5001 65.513,-77 75.513,-80.5001 75.513,-73.5001"/>
</g>
<!-- Node5 -->
<g id="node9" class="node"><title>Node5</title>
<a xlink:href="classuiOD2DLineSetAttribItem.html" target="_top" xlink:title="uiOD2DLineSetAttribItem">
<polygon fill="white" stroke="black" points="514,-172.5 514,-193.5 642,-193.5 642,-172.5 514,-172.5"/>
<text text-anchor="middle" x="578" y="-180.5" font-family="Helvetica,sans-Serif" font-size="10.00">uiOD2DLineSetAttribItem</text>
</a>
</g>
<!-- Node4&#45;&gt;Node5 -->
<g id="edge8" class="edge"><title>Node4&#45;&gt;Node5</title>
<path fill="none" stroke="midnightblue" d="M421.979,-114.06C441.22,-128.931 471.043,-150.086 500,-163 508.299,-166.701 517.412,-169.812 526.391,-172.394"/>
<polygon fill="midnightblue" stroke="midnightblue" points="423.948,-111.156 413.925,-107.722 419.619,-116.657 423.948,-111.156"/>
</g>
<!-- Node6 -->
<g id="node11" class="node"><title>Node6</title>
<a xlink:href="classuiODBodyDisplayDataTreeItem.html" target="_top" xlink:title="uiODBodyDisplayDataTreeItem">
<polygon fill="white" stroke="black" points="500.5,-132.5 500.5,-153.5 655.5,-153.5 655.5,-132.5 500.5,-132.5"/>
<text text-anchor="middle" x="578" y="-140.5" font-family="Helvetica,sans-Serif" font-size="10.00">uiODBodyDisplayDataTreeItem</text>
</a>
</g>
<!-- Node4&#45;&gt;Node6 -->
<g id="edge10" class="edge"><title>Node4&#45;&gt;Node6</title>
<path fill="none" stroke="midnightblue" d="M450.996,-110.191C466.678,-114.312 484.056,-118.862 500,-123 511.908,-126.09 524.846,-129.419 536.699,-132.458"/>
<polygon fill="midnightblue" stroke="midnightblue" points="451.528,-106.712 440.967,-107.553 449.748,-113.482 451.528,-106.712"/>
</g>
<!-- Node7 -->
<g id="node13" class="node"><title>Node7</title>
<a xlink:href="classuiODEarthModelSurfaceDataTreeItem.html" target="_top" xlink:title="uiODEarthModelSurfaceData\lTreeItem">
<polygon fill="white" stroke="black" points="506.5,-80 506.5,-114 649.5,-114 649.5,-80 506.5,-80"/>
<text text-anchor="start" x="514.5" y="-101" font-family="Helvetica,sans-Serif" font-size="10.00">uiODEarthModelSurfaceData</text>
<text text-anchor="middle" x="578" y="-88" font-family="Helvetica,sans-Serif" font-size="10.00">TreeItem</text>
</a>
</g>
<!-- Node4&#45;&gt;Node7 -->
<g id="edge12" class="edge"><title>Node4&#45;&gt;Node7</title>
<path fill="none" stroke="midnightblue" d="M461.956,-97C476.307,-97 491.731,-97 506.499,-97"/>
<polygon fill="midnightblue" stroke="midnightblue" points="461.721,-93.5001 451.721,-97 461.721,-100.5 461.721,-93.5001"/>
</g>
<!-- Node8 -->
<g id="node15" class="node"><title>Node8</title>
<a xlink:href="classuiODFaultSurfaceDataTreeItem.html" target="_top" xlink:title="uiODFaultSurfaceDataTreeItem">
<polygon fill="white" stroke="black" points="500.5,-40.5 500.5,-61.5 655.5,-61.5 655.5,-40.5 500.5,-40.5"/>
<text text-anchor="middle" x="578" y="-48.5" font-family="Helvetica,sans-Serif" font-size="10.00">uiODFaultSurfaceDataTreeItem</text>
</a>
</g>
<!-- Node4&#45;&gt;Node8 -->
<g id="edge14" class="edge"><title>Node4&#45;&gt;Node8</title>
<path fill="none" stroke="midnightblue" d="M450.996,-83.8092C466.678,-79.6879 484.056,-75.1378 500,-71 511.908,-67.9098 524.846,-64.5808 536.699,-61.5423"/>
<polygon fill="midnightblue" stroke="midnightblue" points="449.748,-80.5184 440.967,-86.447 451.528,-87.2881 449.748,-80.5184"/>
</g>
<!-- Node9 -->
<g id="node17" class="node"><title>Node9</title>
<a xlink:href="classuiODVolrenAttribTreeItem.html" target="_top" xlink:title="uiODVolrenAttribTreeItem">
<polygon fill="white" stroke="black" points="513.5,-0.5 513.5,-21.5 642.5,-21.5 642.5,-0.5 513.5,-0.5"/>
<text text-anchor="middle" x="578" y="-8.5" font-family="Helvetica,sans-Serif" font-size="10.00">uiODVolrenAttribTreeItem</text>
</a>
</g>
<!-- Node4&#45;&gt;Node9 -->
<g id="edge16" class="edge"><title>Node4&#45;&gt;Node9</title>
<path fill="none" stroke="midnightblue" d="M455.311,-82.1899C458.344,-80.6234 461.267,-78.8984 464,-77 485.322,-62.1901 478.269,-45.2029 500,-31 505.851,-27.176 512.392,-24.0827 519.13,-21.5807"/>
<polygon fill="midnightblue" stroke="midnightblue" points="453.618,-79.114 445.954,-86.4286 456.507,-85.4903 453.618,-79.114"/>
</g>
</g>
</svg>
