<?xml version="1.0" encoding="UTF-8" standalone="no"?>
<!DOCTYPE svg PUBLIC "-//W3C//DTD SVG 1.1//EN"
 "http://www.w3.org/Graphics/SVG/1.1/DTD/svg11.dtd">
<!-- Generated by graphviz version 2.26.0 (20091210.2329)
 -->
<!-- Title: Interpolate::Applier2D&lt; T &gt; Pages: 1 -->
<svg width="330pt" height="174pt"
 viewBox="0.00 0.00 330.00 174.00" xmlns="http://www.w3.org/2000/svg" xmlns:xlink="http://www.w3.org/1999/xlink">
<g id="graph1" class="graph" transform="scale(1 1) rotate(0) translate(4 170)">
<title>Interpolate::Applier2D&lt; T &gt;</title>
<polygon fill="white" stroke="white" points="-4,5 -4,-170 327,-170 327,5 -4,5"/>
<!-- Node1 -->
<g id="node1" class="node"><title>Node1</title>
<polygon fill="#bfbfbf" stroke="black" points="0.5,-75.5 0.5,-96.5 135.5,-96.5 135.5,-75.5 0.5,-75.5"/>
<text text-anchor="middle" x="68" y="-83.5" font-family="Helvetica,sans-Serif" font-size="10.00">Interpolate::Applier2D&lt; T &gt;</text>
</g>
<!-- Node2 -->
<g id="node3" class="node"><title>Node2</title>
<a xlink:href="classInterpolate_1_1LinearReg2D.html" target="_top" xlink:title="Linear 2D interpolation. ">
<polygon fill="white" stroke="black" points="172.5,-144.5 172.5,-165.5 321.5,-165.5 321.5,-144.5 172.5,-144.5"/>
<text text-anchor="middle" x="247" y="-152.5" font-family="Helvetica,sans-Serif" font-size="10.00">Interpolate::LinearReg2D&lt; T &gt;</text>
</a>
</g>
<!-- Node1&#45;&gt;Node2 -->
<g id="edge2" class="edge"><title>Node1&#45;&gt;Node2</title>
<path fill="none" stroke="midnightblue" d="M96.9904,-101.384C117.526,-111.85 145.945,-125.476 172,-135 181.619,-138.516 192.137,-141.707 202.172,-144.457"/>
<polygon fill="midnightblue" stroke="midnightblue" points="98.3592,-98.1514 87.8674,-96.6774 95.15,-104.373 98.3592,-98.1514"/>
</g>
<!-- Node3 -->
<g id="node5" class="node"><title>Node3</title>
<a xlink:href="classInterpolate_1_1LinearReg2DWithUdf.html" target="_top" xlink:title="Linear 2D interpolation with standard undef handling. ">
<polygon fill="white" stroke="black" points="174,-92 174,-126 320,-126 320,-92 174,-92"/>
<text text-anchor="start" x="182" y="-113" font-family="Helvetica,sans-Serif" font-size="10.00">Interpolate::LinearReg2DWith</text>
<text text-anchor="middle" x="247" y="-100" font-family="Helvetica,sans-Serif" font-size="10.00">Udf&lt; T &gt;</text>
</a>
</g>
<!-- Node1&#45;&gt;Node3 -->
<g id="edge4" class="edge"><title>Node1&#45;&gt;Node3</title>
<path fill="none" stroke="midnightblue" d="M145.721,-95.9864C155.062,-97.1867 164.578,-98.4094 173.851,-99.601"/>
<polygon fill="midnightblue" stroke="midnightblue" points="146.037,-92.4984 135.672,-94.6953 145.145,-99.4413 146.037,-92.4984"/>
</g>
<!-- Node4 -->
<g id="node7" class="node"><title>Node4</title>
<a xlink:href="classInterpolate_1_1PolyReg2D.html" target="_top" xlink:title="Interpolate 2D regularly sampled, using a 2nd order surface. ">
<polygon fill="white" stroke="black" points="175.5,-52.5 175.5,-73.5 318.5,-73.5 318.5,-52.5 175.5,-52.5"/>
<text text-anchor="middle" x="247" y="-60.5" font-family="Helvetica,sans-Serif" font-size="10.00">Interpolate::PolyReg2D&lt; T &gt;</text>
</a>
</g>
<!-- Node1&#45;&gt;Node4 -->
<g id="edge6" class="edge"><title>Node1&#45;&gt;Node4</title>
<path fill="none" stroke="midnightblue" d="M145.813,-76.0017C155.63,-74.7403 165.637,-73.4545 175.352,-72.2062"/>
<polygon fill="midnightblue" stroke="midnightblue" points="145.145,-72.5587 135.672,-77.3047 146.037,-79.5016 145.145,-72.5587"/>
</g>
<!-- Node5 -->
<g id="node9" class="node"><title>Node5</title>
<a xlink:href="classInterpolate_1_1PolyReg2DWithUdf.html" target="_top" xlink:title="PolyReg2D which smoothly handles undefined values. ">
<polygon fill="white" stroke="black" points="177.5,-0 177.5,-34 316.5,-34 316.5,-0 177.5,-0"/>
<text text-anchor="start" x="185.5" y="-21" font-family="Helvetica,sans-Serif" font-size="10.00">Interpolate::PolyReg2DWith</text>
<text text-anchor="middle" x="247" y="-8" font-family="Helvetica,sans-Serif" font-size="10.00">Udf&lt; T &gt;</text>
</a>
</g>
<!-- Node1&#45;&gt;Node5 -->
<g id="edge8" class="edge"><title>Node1&#45;&gt;Node5</title>
<path fill="none" stroke="midnightblue" d="M102.038,-71.3388C122.252,-62.7796 148.454,-51.9401 172,-43 179.859,-40.016 188.231,-36.9778 196.425,-34.0807"/>
<polygon fill="midnightblue" stroke="midnightblue" points="100.466,-68.204 92.6335,-75.3391 103.206,-74.6455 100.466,-68.204"/>
</g>
</g>
</svg>
