<?xml version="1.0" encoding="UTF-8" standalone="no"?>
<!DOCTYPE svg PUBLIC "-//W3C//DTD SVG 1.1//EN"
 "http://www.w3.org/Graphics/SVG/1.1/DTD/svg11.dtd">
<!-- Generated by graphviz version 2.26.0 (20091210.2329)
 -->
<!-- Title: Geom::Size2D&lt; T &gt; Pages: 1 -->
<svg width="254pt" height="162pt"
 viewBox="0.00 0.00 254.00 162.00" xmlns="http://www.w3.org/2000/svg" xmlns:xlink="http://www.w3.org/1999/xlink">
<g id="graph1" class="graph" transform="scale(1 1) rotate(0) translate(4 158)">
<title>Geom::Size2D&lt; T &gt;</title>
<polygon fill="white" stroke="white" points="-4,5 -4,-158 251,-158 251,5 -4,5"/>
<!-- Node1 -->
<g id="node1" class="node"><title>Node1</title>
<polygon fill="#bfbfbf" stroke="black" points="54.5,-132.5 54.5,-153.5 159.5,-153.5 159.5,-132.5 54.5,-132.5"/>
<text text-anchor="middle" x="107" y="-140.5" font-family="Helvetica,sans-Serif" font-size="10.00">Geom::Size2D&lt; T &gt;</text>
</g>
<!-- Node2 -->
<g id="node3" class="node"><title>Node2</title>
<a xlink:href="classGeom_1_1Size2D.html" target="_top" xlink:title="Geom::Size2D\&lt; float \&gt;">
<polygon fill="white" stroke="black" points="0,-60.5 0,-81.5 118,-81.5 118,-60.5 0,-60.5"/>
<text text-anchor="middle" x="59" y="-68.5" font-family="Helvetica,sans-Serif" font-size="10.00">Geom::Size2D&lt; float &gt;</text>
</a>
</g>
<!-- Node1&#45;&gt;Node2 -->
<g id="edge2" class="edge"><title>Node1&#45;&gt;Node2</title>
<path fill="none" stroke="orange" stroke-dasharray="5,2" d="M94.2066,-123.81C85.2071,-110.311 73.4966,-92.7449 66.1116,-81.6674"/>
<polygon fill="orange" stroke="orange" points="91.4582,-125.997 99.9174,-132.376 97.2826,-122.114 91.4582,-125.997"/>
<text text-anchor="middle" x="107" y="-104.5" font-family="Helvetica,sans-Serif" font-size="10.00"> &lt; float &gt;</text>
</g>
<!-- Node3 -->
<g id="node5" class="node"><title>Node3</title>
<a xlink:href="classGeom_1_1Size2D.html" target="_top" xlink:title="Geom::Size2D\&lt; int \&gt;">
<polygon fill="white" stroke="black" points="136,-60.5 136,-81.5 246,-81.5 246,-60.5 136,-60.5"/>
<text text-anchor="middle" x="191" y="-68.5" font-family="Helvetica,sans-Serif" font-size="10.00">Geom::Size2D&lt; int &gt;</text>
</a>
</g>
<!-- Node1&#45;&gt;Node3 -->
<g id="edge4" class="edge"><title>Node1&#45;&gt;Node3</title>
<path fill="none" stroke="orange" stroke-dasharray="5,2" d="M127.151,-125.728C143.15,-112.015 165.01,-93.2774 178.555,-81.6674"/>
<polygon fill="orange" stroke="orange" points="124.709,-123.211 119.394,-132.376 129.265,-128.526 124.709,-123.211"/>
<text text-anchor="middle" x="172" y="-104.5" font-family="Helvetica,sans-Serif" font-size="10.00"> &lt; int &gt;</text>
</g>
<!-- Node4 -->
<g id="node7" class="node"><title>Node4</title>
<a xlink:href="classuiSize.html" target="_top" xlink:title="uiSize">
<polygon fill="white" stroke="black" points="169,-0.5 169,-21.5 213,-21.5 213,-0.5 169,-0.5"/>
<text text-anchor="middle" x="191" y="-8.5" font-family="Helvetica,sans-Serif" font-size="10.00">uiSize</text>
</a>
</g>
<!-- Node3&#45;&gt;Node4 -->
<g id="edge6" class="edge"><title>Node3&#45;&gt;Node4</title>
<path fill="none" stroke="midnightblue" d="M191,-50.2312C191,-40.5922 191,-29.5444 191,-21.6339"/>
<polygon fill="midnightblue" stroke="midnightblue" points="187.5,-50.2732 191,-60.2732 194.5,-50.2732 187.5,-50.2732"/>
</g>
</g>
</svg>
