<?xml version="1.0" encoding="UTF-8" standalone="no"?>
<!DOCTYPE svg PUBLIC "-//W3C//DTD SVG 1.1//EN"
 "http://www.w3.org/Graphics/SVG/1.1/DTD/svg11.dtd">
<!-- Generated by graphviz version 2.26.0 (20091210.2329)
 -->
<!-- Title: uiTriangulationArray2DInterpol Pages: 1 -->
<svg width="156pt" height="320pt"
 viewBox="0.00 0.00 156.00 320.00" xmlns="http://www.w3.org/2000/svg" xmlns:xlink="http://www.w3.org/1999/xlink">
<g id="graph1" class="graph" transform="scale(1 1) rotate(0) translate(4 316)">
<title>uiTriangulationArray2DInterpol</title>
<polygon fill="white" stroke="white" points="-4,5 -4,-316 153,-316 153,5 -4,5"/>
<!-- Node1 -->
<g id="node1" class="node"><title>Node1</title>
<polygon fill="#bfbfbf" stroke="black" points="0,-0.5 0,-21.5 148,-21.5 148,-0.5 0,-0.5"/>
<text text-anchor="middle" x="74" y="-8.5" font-family="Helvetica,sans-Serif" font-size="10.00">uiTriangulationArray2DInterpol</text>
</g>
<!-- Node2 -->
<g id="node2" class="node"><title>Node2</title>
<a xlink:href="classuiArray2DInterpol.html" target="_top" xlink:title="uiArray2DInterpol">
<polygon fill="white" stroke="black" points="28,-58.5 28,-79.5 120,-79.5 120,-58.5 28,-58.5"/>
<text text-anchor="middle" x="74" y="-66.5" font-family="Helvetica,sans-Serif" font-size="10.00">uiArray2DInterpol</text>
</a>
</g>
<!-- Node2&#45;&gt;Node1 -->
<g id="edge2" class="edge"><title>Node2&#45;&gt;Node1</title>
<path fill="none" stroke="midnightblue" d="M74,-48.1906C74,-39.1684 74,-28.9941 74,-21.5707"/>
<polygon fill="midnightblue" stroke="midnightblue" points="70.5001,-48.3619 74,-58.3619 77.5001,-48.3619 70.5001,-48.3619"/>
</g>
<!-- Node3 -->
<g id="node4" class="node"><title>Node3</title>
<a xlink:href="classuiDlgGroup.html" target="_top" xlink:title="uiDlgGroup">
<polygon fill="white" stroke="black" points="41.5,-116.5 41.5,-137.5 106.5,-137.5 106.5,-116.5 41.5,-116.5"/>
<text text-anchor="middle" x="74" y="-124.5" font-family="Helvetica,sans-Serif" font-size="10.00">uiDlgGroup</text>
</a>
</g>
<!-- Node3&#45;&gt;Node2 -->
<g id="edge4" class="edge"><title>Node3&#45;&gt;Node2</title>
<path fill="none" stroke="midnightblue" d="M74,-106.191C74,-97.1684 74,-86.9941 74,-79.5707"/>
<polygon fill="midnightblue" stroke="midnightblue" points="70.5001,-106.362 74,-116.362 77.5001,-106.362 70.5001,-106.362"/>
</g>
<!-- Node4 -->
<g id="node6" class="node"><title>Node4</title>
<a xlink:href="classuiGroup.html" target="_top" xlink:title="uiGroup">
<polygon fill="white" stroke="black" points="49,-174.5 49,-195.5 99,-195.5 99,-174.5 49,-174.5"/>
<text text-anchor="middle" x="74" y="-182.5" font-family="Helvetica,sans-Serif" font-size="10.00">uiGroup</text>
</a>
</g>
<!-- Node4&#45;&gt;Node3 -->
<g id="edge6" class="edge"><title>Node4&#45;&gt;Node3</title>
<path fill="none" stroke="midnightblue" d="M74,-164.191C74,-155.168 74,-144.994 74,-137.571"/>
<polygon fill="midnightblue" stroke="midnightblue" points="70.5001,-164.362 74,-174.362 77.5001,-164.362 70.5001,-164.362"/>
</g>
<!-- Node5 -->
<g id="node8" class="node"><title>Node5</title>
<a xlink:href="classuiParent.html" target="_top" xlink:title="uiParent">
<polygon fill="white" stroke="black" points="47.5,-232.5 47.5,-253.5 100.5,-253.5 100.5,-232.5 47.5,-232.5"/>
<text text-anchor="middle" x="74" y="-240.5" font-family="Helvetica,sans-Serif" font-size="10.00">uiParent</text>
</a>
</g>
<!-- Node5&#45;&gt;Node4 -->
<g id="edge8" class="edge"><title>Node5&#45;&gt;Node4</title>
<path fill="none" stroke="midnightblue" d="M74,-222.191C74,-213.168 74,-202.994 74,-195.571"/>
<polygon fill="midnightblue" stroke="midnightblue" points="70.5001,-222.362 74,-232.362 77.5001,-222.362 70.5001,-222.362"/>
</g>
<!-- Node6 -->
<g id="node10" class="node"><title>Node6</title>
<polygon fill="white" stroke="#bfbfbf" points="36.5,-290.5 36.5,-311.5 111.5,-311.5 111.5,-290.5 36.5,-290.5"/>
<text text-anchor="middle" x="74" y="-298.5" font-family="Helvetica,sans-Serif" font-size="10.00">uiBaseObject</text>
</g>
<!-- Node6&#45;&gt;Node5 -->
<g id="edge10" class="edge"><title>Node6&#45;&gt;Node5</title>
<path fill="none" stroke="midnightblue" d="M74,-280.191C74,-271.168 74,-260.994 74,-253.571"/>
<polygon fill="midnightblue" stroke="midnightblue" points="70.5001,-280.362 74,-290.362 77.5001,-280.362 70.5001,-280.362"/>
</g>
</g>
</svg>
