<?xml version="1.0" encoding="UTF-8" standalone="no"?>
<!DOCTYPE svg PUBLIC "-//W3C//DTD SVG 1.1//EN"
 "http://www.w3.org/Graphics/SVG/1.1/DTD/svg11.dtd">
<!-- Generated by graphviz version 2.26.0 (20091210.2329)
 -->
<!-- Title: PreStack::AngleComputer Pages: 1 -->
<svg width="318pt" height="102pt"
 viewBox="0.00 0.00 318.00 102.00" xmlns="http://www.w3.org/2000/svg" xmlns:xlink="http://www.w3.org/1999/xlink">
<g id="graph1" class="graph" transform="scale(1 1) rotate(0) translate(4 98)">
<title>PreStack::AngleComputer</title>
<polygon fill="white" stroke="white" points="-4,5 -4,-98 315,-98 315,5 -4,5"/>
<!-- Node1 -->
<g id="node1" class="node"><title>Node1</title>
<polygon fill="#bfbfbf" stroke="black" points="87.5,-72.5 87.5,-93.5 218.5,-93.5 218.5,-72.5 87.5,-72.5"/>
<text text-anchor="middle" x="153" y="-80.5" font-family="Helvetica,sans-Serif" font-size="10.00">PreStack::AngleComputer</text>
</g>
<!-- Node2 -->
<g id="node3" class="node"><title>Node2</title>
<a xlink:href="classPreStack_1_1ModelBasedAngleComputer.html" target="_top" xlink:title="Computes angles for PreStack::Gather from ElasticModel. ">
<polygon fill="white" stroke="black" points="0,-1 0,-35 142,-35 142,-1 0,-1"/>
<text text-anchor="start" x="8" y="-22" font-family="Helvetica,sans-Serif" font-size="10.00">PreStack::ModelBasedAngle</text>
<text text-anchor="middle" x="71" y="-9" font-family="Helvetica,sans-Serif" font-size="10.00">Computer</text>
</a>
</g>
<!-- Node1&#45;&gt;Node2 -->
<g id="edge2" class="edge"><title>Node1&#45;&gt;Node2</title>
<path fill="none" stroke="midnightblue" d="M131.329,-65.8219C119.36,-56.334 104.54,-44.5869 92.5847,-35.1099"/>
<polygon fill="midnightblue" stroke="midnightblue" points="129.449,-68.7974 139.459,-72.2666 133.797,-63.3118 129.449,-68.7974"/>
</g>
<!-- Node3 -->
<g id="node5" class="node"><title>Node3</title>
<a xlink:href="classPreStack_1_1VelocityBasedAngleComputer.html" target="_top" xlink:title="Computes angles for PreStack::Gather from velocity model. ">
<polygon fill="white" stroke="black" points="159.5,-1 159.5,-35 310.5,-35 310.5,-1 159.5,-1"/>
<text text-anchor="start" x="167.5" y="-22" font-family="Helvetica,sans-Serif" font-size="10.00">PreStack::VelocityBasedAngle</text>
<text text-anchor="middle" x="235" y="-9" font-family="Helvetica,sans-Serif" font-size="10.00">Computer</text>
</a>
</g>
<!-- Node1&#45;&gt;Node3 -->
<g id="edge4" class="edge"><title>Node1&#45;&gt;Node3</title>
<path fill="none" stroke="midnightblue" d="M174.671,-65.8219C186.64,-56.334 201.46,-44.5869 213.415,-35.1099"/>
<polygon fill="midnightblue" stroke="midnightblue" points="172.203,-63.3118 166.541,-72.2666 176.551,-68.7974 172.203,-63.3118"/>
</g>
</g>
</svg>
