<?xml version="1.0" encoding="UTF-8" standalone="no"?>
<!DOCTYPE svg PUBLIC "-//W3C//DTD SVG 1.1//EN"
 "http://www.w3.org/Graphics/SVG/1.1/DTD/svg11.dtd">
<!-- Generated by graphviz version 2.26.0 (20091210.2329)
 -->
<!-- Title: uiTreeItem Pages: 1 -->
<svg width="752pt" height="1550pt"
 viewBox="0.00 0.00 752.00 1550.00" xmlns="http://www.w3.org/2000/svg" xmlns:xlink="http://www.w3.org/1999/xlink">
<g id="graph1" class="graph" transform="scale(1 1) rotate(0) translate(4 1546)">
<title>uiTreeItem</title>
<polygon fill="white" stroke="white" points="-4,5 -4,-1546 749,-1546 749,5 -4,5"/>
<!-- Node1 -->
<g id="node1" class="node"><title>Node1</title>
<polygon fill="#bfbfbf" stroke="black" points="102.5,-980.5 102.5,-1001.5 165.5,-1001.5 165.5,-980.5 102.5,-980.5"/>
<text text-anchor="middle" x="134" y="-988.5" font-family="Helvetica,sans-Serif" font-size="10.00">uiTreeItem</text>
</g>
<!-- Node3 -->
<g id="node5" class="node"><title>Node3</title>
<a xlink:href="classuiODAnnotParentTreeItem.html" target="_top" xlink:title="uiODAnnotParentTreeItem">
<polygon fill="white" stroke="black" points="202,-1240.5 202,-1261.5 334,-1261.5 334,-1240.5 202,-1240.5"/>
<text text-anchor="middle" x="268" y="-1248.5" font-family="Helvetica,sans-Serif" font-size="10.00">uiODAnnotParentTreeItem</text>
</a>
</g>
<!-- Node1&#45;&gt;Node3 -->
<g id="edge4" class="edge"><title>Node1&#45;&gt;Node3</title>
<path fill="none" stroke="midnightblue" d="M137.264,-1011.68C145.899,-1063.92 170.833,-1199.26 202,-1231 205.775,-1234.84 210.262,-1237.95 215.095,-1240.47"/>
<polygon fill="midnightblue" stroke="midnightblue" points="140.685,-1010.91 135.63,-1001.6 133.775,-1012.03 140.685,-1010.91"/>
</g>
<!-- Node4 -->
<g id="node7" class="node"><title>Node4</title>
<a xlink:href="classuiODDataTreeItem.html" target="_top" xlink:title="uiODDataTreeItem">
<polygon fill="white" stroke="black" points="218.5,-1200.5 218.5,-1221.5 317.5,-1221.5 317.5,-1200.5 218.5,-1200.5"/>
<text text-anchor="middle" x="268" y="-1208.5" font-family="Helvetica,sans-Serif" font-size="10.00">uiODDataTreeItem</text>
</a>
</g>
<!-- Node1&#45;&gt;Node4 -->
<g id="edge6" class="edge"><title>Node1&#45;&gt;Node4</title>
<path fill="none" stroke="midnightblue" d="M145.828,-1010.42C173.275,-1055.48 240.558,-1165.95 261.602,-1200.5"/>
<polygon fill="midnightblue" stroke="midnightblue" points="148.654,-1008.33 140.463,-1001.61 142.676,-1011.97 148.654,-1008.33"/>
</g>
<!-- Node12 -->
<g id="node23" class="node"><title>Node12</title>
<a xlink:href="classuiODTreeItem.html" target="_top" xlink:title="uiODTreeItem">
<polygon fill="white" stroke="black" points="229,-980.5 229,-1001.5 307,-1001.5 307,-980.5 229,-980.5"/>
<text text-anchor="middle" x="268" y="-988.5" font-family="Helvetica,sans-Serif" font-size="10.00">uiODTreeItem</text>
</a>
</g>
<!-- Node1&#45;&gt;Node12 -->
<g id="edge22" class="edge"><title>Node1&#45;&gt;Node12</title>
<path fill="none" stroke="midnightblue" d="M175.909,-991C192.807,-991 212.194,-991 228.808,-991"/>
<polygon fill="midnightblue" stroke="midnightblue" points="175.756,-987.5 165.756,-991 175.756,-994.5 175.756,-987.5"/>
</g>
<!-- Node32 -->
<g id="node63" class="node"><title>Node32</title>
<a xlink:href="classuiODVw2DTreeItem.html" target="_top" xlink:title="uiODVw2DTreeItem">
<polygon fill="white" stroke="black" points="215.5,-360.5 215.5,-381.5 320.5,-381.5 320.5,-360.5 215.5,-360.5"/>
<text text-anchor="middle" x="268" y="-368.5" font-family="Helvetica,sans-Serif" font-size="10.00">uiODVw2DTreeItem</text>
</a>
</g>
<!-- Node1&#45;&gt;Node32 -->
<g id="edge62" class="edge"><title>Node1&#45;&gt;Node32</title>
<path fill="none" stroke="midnightblue" d="M138.392,-970.681C159.496,-873.036 250.113,-453.761 265.71,-381.596"/>
<polygon fill="midnightblue" stroke="midnightblue" points="134.961,-969.985 136.27,-980.499 141.803,-971.464 134.961,-969.985"/>
</g>
<!-- Node47 -->
<g id="node93" class="node"><title>Node47</title>
<a xlink:href="classuiTreeTopItem.html" target="_top" xlink:title="uiTreeTopItem">
<polygon fill="white" stroke="black" points="228,-40.5 228,-61.5 308,-61.5 308,-40.5 228,-40.5"/>
<text text-anchor="middle" x="268" y="-48.5" font-family="Helvetica,sans-Serif" font-size="10.00">uiTreeTopItem</text>
</a>
</g>
<!-- Node1&#45;&gt;Node47 -->
<g id="edge92" class="edge"><title>Node1&#45;&gt;Node47</title>
<path fill="none" stroke="midnightblue" d="M135.373,-970.134C140.839,-889.779 162.685,-592.772 202,-351 220.617,-236.514 255.241,-100.014 265.234,-61.5466"/>
<polygon fill="midnightblue" stroke="midnightblue" points="131.863,-970.174 134.685,-980.386 138.847,-970.643 131.863,-970.174"/>
</g>
<!-- Node2 -->
<g id="node2" class="node"><title>Node2</title>
<a xlink:href="classCallBacker.html" target="_top" xlink:title="To be able to send and/or receive CallBacks, inherit from this class. ">
<polygon fill="white" stroke="black" points="0.5,-980.5 0.5,-1001.5 65.5,-1001.5 65.5,-980.5 0.5,-980.5"/>
<text text-anchor="middle" x="33" y="-988.5" font-family="Helvetica,sans-Serif" font-size="10.00">CallBacker</text>
</a>
</g>
<!-- Node2&#45;&gt;Node1 -->
<g id="edge2" class="edge"><title>Node2&#45;&gt;Node1</title>
<path fill="none" stroke="midnightblue" d="M75.7263,-991C84.6133,-991 93.8294,-991 102.238,-991"/>
<polygon fill="midnightblue" stroke="midnightblue" points="75.513,-987.5 65.513,-991 75.513,-994.5 75.513,-987.5"/>
</g>
<!-- Node5 -->
<g id="node9" class="node"><title>Node5</title>
<a xlink:href="classuiODAttribTreeItem.html" target="_top" xlink:title="uiODAttribTreeItem">
<polygon fill="white" stroke="black" points="410.5,-1423.5 410.5,-1444.5 511.5,-1444.5 511.5,-1423.5 410.5,-1423.5"/>
<text text-anchor="middle" x="461" y="-1431.5" font-family="Helvetica,sans-Serif" font-size="10.00">uiODAttribTreeItem</text>
</a>
</g>
<!-- Node4&#45;&gt;Node5 -->
<g id="edge8" class="edge"><title>Node4&#45;&gt;Node5</title>
<path fill="none" stroke="midnightblue" d="M326.372,-1224.49C329.145,-1226.39 331.717,-1228.54 334,-1231 383.627,-1284.38 324.433,-1334.11 370,-1391 382.453,-1406.55 401.861,-1416.77 419.56,-1423.34"/>
<polygon fill="midnightblue" stroke="midnightblue" points="327.984,-1221.38 317.548,-1219.56 324.567,-1227.49 327.984,-1221.38"/>
</g>
<!-- Node11 -->
<g id="node21" class="node"><title>Node11</title>
<a xlink:href="classVolProc_1_1uiDataTreeItem.html" target="_top" xlink:title="VolProc::uiDataTreeItem">
<polygon fill="white" stroke="black" points="398.5,-1360.5 398.5,-1381.5 523.5,-1381.5 523.5,-1360.5 398.5,-1360.5"/>
<text text-anchor="middle" x="461" y="-1368.5" font-family="Helvetica,sans-Serif" font-size="10.00">VolProc::uiDataTreeItem</text>
</a>
</g>
<!-- Node4&#45;&gt;Node11 -->
<g id="edge20" class="edge"><title>Node4&#45;&gt;Node11</title>
<path fill="none" stroke="midnightblue" d="M326.581,-1224.96C329.249,-1226.74 331.748,-1228.74 334,-1231 373.318,-1270.43 329.176,-1313.13 370,-1351 377.946,-1358.37 387.966,-1363.25 398.43,-1366.44"/>
<polygon fill="midnightblue" stroke="midnightblue" points="328.02,-1221.75 317.57,-1220 324.648,-1227.89 328.02,-1221.75"/>
</g>
<!-- Node6 -->
<g id="node11" class="node"><title>Node6</title>
<a xlink:href="classuiOD2DLineSetAttribItem.html" target="_top" xlink:title="uiOD2DLineSetAttribItem">
<polygon fill="white" stroke="black" points="602,-1520.5 602,-1541.5 730,-1541.5 730,-1520.5 602,-1520.5"/>
<text text-anchor="middle" x="666" y="-1528.5" font-family="Helvetica,sans-Serif" font-size="10.00">uiOD2DLineSetAttribItem</text>
</a>
</g>
<!-- Node5&#45;&gt;Node6 -->
<g id="edge10" class="edge"><title>Node5&#45;&gt;Node6</title>
<path fill="none" stroke="midnightblue" d="M483.772,-1450.66C508.371,-1467.95 549.26,-1494.71 588,-1511 596.763,-1514.68 606.374,-1517.82 615.765,-1520.45"/>
<polygon fill="midnightblue" stroke="midnightblue" points="485.656,-1447.7 475.48,-1444.75 481.594,-1453.4 485.656,-1447.7"/>
</g>
<!-- Node7 -->
<g id="node13" class="node"><title>Node7</title>
<a xlink:href="classuiODBodyDisplayDataTreeItem.html" target="_top" xlink:title="uiODBodyDisplayDataTreeItem">
<polygon fill="white" stroke="black" points="588.5,-1480.5 588.5,-1501.5 743.5,-1501.5 743.5,-1480.5 588.5,-1480.5"/>
<text text-anchor="middle" x="666" y="-1488.5" font-family="Helvetica,sans-Serif" font-size="10.00">uiODBodyDisplayDataTreeItem</text>
</a>
</g>
<!-- Node5&#45;&gt;Node7 -->
<g id="edge12" class="edge"><title>Node5&#45;&gt;Node7</title>
<path fill="none" stroke="midnightblue" d="M505.612,-1447.38C529.916,-1454.57 560.55,-1463.48 588,-1471 599.596,-1474.17 612.203,-1477.47 623.834,-1480.45"/>
<polygon fill="midnightblue" stroke="midnightblue" points="506.535,-1444 495.952,-1444.51 504.543,-1450.72 506.535,-1444"/>
</g>
<!-- Node8 -->
<g id="node15" class="node"><title>Node8</title>
<a xlink:href="classuiODEarthModelSurfaceDataTreeItem.html" target="_top" xlink:title="uiODEarthModelSurfaceData\lTreeItem">
<polygon fill="white" stroke="black" points="594.5,-1428 594.5,-1462 737.5,-1462 737.5,-1428 594.5,-1428"/>
<text text-anchor="start" x="602.5" y="-1449" font-family="Helvetica,sans-Serif" font-size="10.00">uiODEarthModelSurfaceData</text>
<text text-anchor="middle" x="666" y="-1436" font-family="Helvetica,sans-Serif" font-size="10.00">TreeItem</text>
</a>
</g>
<!-- Node5&#45;&gt;Node8 -->
<g id="edge14" class="edge"><title>Node5&#45;&gt;Node8</title>
<path fill="none" stroke="midnightblue" d="M521.867,-1437.27C544.601,-1438.49 570.627,-1439.88 594.251,-1441.15"/>
<polygon fill="midnightblue" stroke="midnightblue" points="521.847,-1433.76 511.674,-1436.72 521.472,-1440.75 521.847,-1433.76"/>
</g>
<!-- Node9 -->
<g id="node17" class="node"><title>Node9</title>
<a xlink:href="classuiODFaultSurfaceDataTreeItem.html" target="_top" xlink:title="uiODFaultSurfaceDataTreeItem">
<polygon fill="white" stroke="black" points="588.5,-1388.5 588.5,-1409.5 743.5,-1409.5 743.5,-1388.5 588.5,-1388.5"/>
<text text-anchor="middle" x="666" y="-1396.5" font-family="Helvetica,sans-Serif" font-size="10.00">uiODFaultSurfaceDataTreeItem</text>
</a>
</g>
<!-- Node5&#45;&gt;Node9 -->
<g id="edge16" class="edge"><title>Node5&#45;&gt;Node9</title>
<path fill="none" stroke="midnightblue" d="M521.78,-1423.62C547.779,-1419.18 578.097,-1414.01 604.207,-1409.55"/>
<polygon fill="midnightblue" stroke="midnightblue" points="520.942,-1420.22 511.674,-1425.35 522.121,-1427.12 520.942,-1420.22"/>
</g>
<!-- Node10 -->
<g id="node19" class="node"><title>Node10</title>
<a xlink:href="classuiODVolrenAttribTreeItem.html" target="_top" xlink:title="uiODVolrenAttribTreeItem">
<polygon fill="white" stroke="black" points="601.5,-1348.5 601.5,-1369.5 730.5,-1369.5 730.5,-1348.5 601.5,-1348.5"/>
<text text-anchor="middle" x="666" y="-1356.5" font-family="Helvetica,sans-Serif" font-size="10.00">uiODVolrenAttribTreeItem</text>
</a>
</g>
<!-- Node5&#45;&gt;Node10 -->
<g id="edge18" class="edge"><title>Node5&#45;&gt;Node10</title>
<path fill="none" stroke="midnightblue" d="M491.733,-1419.06C517.125,-1407.12 554.338,-1390.52 588,-1379 598.184,-1375.51 609.298,-1372.31 619.862,-1369.55"/>
<polygon fill="midnightblue" stroke="midnightblue" points="490.145,-1415.94 482.612,-1423.39 493.146,-1422.27 490.145,-1415.94"/>
</g>
<!-- Node13 -->
<g id="node25" class="node"><title>Node13</title>
<a xlink:href="classuiODAnnotTreeItem.html" target="_top" xlink:title="uiODAnnotTreeItem">
<polygon fill="white" stroke="red" points="409,-1320.5 409,-1341.5 513,-1341.5 513,-1320.5 409,-1320.5"/>
<text text-anchor="middle" x="461" y="-1328.5" font-family="Helvetica,sans-Serif" font-size="10.00">uiODAnnotTreeItem</text>
</a>
</g>
<!-- Node12&#45;&gt;Node13 -->
<g id="edge24" class="edge"><title>Node12&#45;&gt;Node13</title>
<path fill="none" stroke="midnightblue" d="M275.028,-1011.67C287.298,-1047.9 313.296,-1125.26 334,-1191 350.726,-1244.11 329.176,-1273.13 370,-1311 380.555,-1320.79 394.769,-1326.19 408.823,-1329.07"/>
<polygon fill="midnightblue" stroke="midnightblue" points="278.209,-1010.15 271.681,-1001.81 271.58,-1012.4 278.209,-1010.15"/>
</g>
<!-- Node15 -->
<g id="node29" class="node"><title>Node15</title>
<a xlink:href="classuiODBodyDisplayParentTreeItem.html" target="_top" xlink:title="uiODBodyDisplayParentTreeItem">
<polygon fill="white" stroke="black" points="380,-1280.5 380,-1301.5 542,-1301.5 542,-1280.5 380,-1280.5"/>
<text text-anchor="middle" x="461" y="-1288.5" font-family="Helvetica,sans-Serif" font-size="10.00">uiODBodyDisplayParentTreeItem</text>
</a>
</g>
<!-- Node12&#45;&gt;Node15 -->
<g id="edge28" class="edge"><title>Node12&#45;&gt;Node15</title>
<path fill="none" stroke="midnightblue" d="M274.739,-1011.13C295.805,-1073.82 359.626,-1261.92 370,-1271 374.26,-1274.73 379.057,-1277.81 384.163,-1280.36"/>
<polygon fill="midnightblue" stroke="midnightblue" points="278.03,-1009.93 271.531,-1001.57 271.394,-1012.16 278.03,-1009.93"/>
</g>
<!-- Node16 -->
<g id="node31" class="node"><title>Node16</title>
<a xlink:href="classuiODCrosslineParentTreeItem.html" target="_top" xlink:title="uiODCrosslineParentTreeItem">
<polygon fill="white" stroke="black" points="387,-1240.5 387,-1261.5 535,-1261.5 535,-1240.5 387,-1240.5"/>
<text text-anchor="middle" x="461" y="-1248.5" font-family="Helvetica,sans-Serif" font-size="10.00">uiODCrosslineParentTreeItem</text>
</a>
</g>
<!-- Node12&#45;&gt;Node16 -->
<g id="edge30" class="edge"><title>Node12&#45;&gt;Node16</title>
<path fill="none" stroke="midnightblue" d="M274.079,-1011.59C289.996,-1064.15 334.139,-1201.24 370,-1231 374.979,-1235.13 380.624,-1238.46 386.605,-1241.14"/>
<polygon fill="midnightblue" stroke="midnightblue" points="277.347,-1010.3 271.124,-1001.73 270.641,-1012.31 277.347,-1010.3"/>
</g>
<!-- Node17 -->
<g id="node33" class="node"><title>Node17</title>
<a xlink:href="classuiODDisplayTreeItem.html" target="_top" xlink:title="uiODDisplayTreeItem">
<polygon fill="white" stroke="red" points="405.5,-1200.5 405.5,-1221.5 516.5,-1221.5 516.5,-1200.5 405.5,-1200.5"/>
<text text-anchor="middle" x="461" y="-1208.5" font-family="Helvetica,sans-Serif" font-size="10.00">uiODDisplayTreeItem</text>
</a>
</g>
<!-- Node12&#45;&gt;Node17 -->
<g id="edge32" class="edge"><title>Node12&#45;&gt;Node17</title>
<path fill="none" stroke="midnightblue" d="M272.352,-1011.67C282.122,-1052.71 309.818,-1144.51 370,-1191 380.113,-1198.81 392.65,-1203.71 405.152,-1206.74"/>
<polygon fill="midnightblue" stroke="midnightblue" points="275.725,-1010.72 270.106,-1001.74 268.898,-1012.26 275.725,-1010.72"/>
</g>
<!-- Node18 -->
<g id="node35" class="node"><title>Node18</title>
<a xlink:href="classuiODFaultParentTreeItem.html" target="_top" xlink:title="uiODFaultParentTreeItem">
<polygon fill="white" stroke="black" points="397,-1160.5 397,-1181.5 525,-1181.5 525,-1160.5 397,-1160.5"/>
<text text-anchor="middle" x="461" y="-1168.5" font-family="Helvetica,sans-Serif" font-size="10.00">uiODFaultParentTreeItem</text>
</a>
</g>
<!-- Node12&#45;&gt;Node18 -->
<g id="edge34" class="edge"><title>Node12&#45;&gt;Node18</title>
<path fill="none" stroke="midnightblue" d="M274.917,-1011.09C287.854,-1045.5 319.096,-1115.44 370,-1151 377.956,-1156.56 387.182,-1160.61 396.644,-1163.56"/>
<polygon fill="midnightblue" stroke="midnightblue" points="278.187,-1009.84 271.489,-1001.63 271.605,-1012.22 278.187,-1009.84"/>
</g>
<!-- Node19 -->
<g id="node37" class="node"><title>Node19</title>
<a xlink:href="classuiODFaultStickSetParentTreeItem.html" target="_top" xlink:title="uiODFaultStickSetParentTreeItem">
<polygon fill="white" stroke="black" points="378,-1120.5 378,-1141.5 544,-1141.5 544,-1120.5 378,-1120.5"/>
<text text-anchor="middle" x="461" y="-1128.5" font-family="Helvetica,sans-Serif" font-size="10.00">uiODFaultStickSetParentTreeItem</text>
</a>
</g>
<!-- Node12&#45;&gt;Node19 -->
<g id="edge36" class="edge"><title>Node12&#45;&gt;Node19</title>
<path fill="none" stroke="midnightblue" d="M278.986,-1010.59C295.223,-1037.64 328.259,-1085.9 370,-1111 376.377,-1114.83 383.4,-1117.94 390.632,-1120.45"/>
<polygon fill="midnightblue" stroke="midnightblue" points="281.843,-1008.54 273.779,-1001.67 275.797,-1012.07 281.843,-1008.54"/>
</g>
<!-- Node20 -->
<g id="node39" class="node"><title>Node20</title>
<a xlink:href="classuiODHorizon2DParentTreeItem.html" target="_top" xlink:title="uiODHorizon2DParentTreeItem">
<polygon fill="white" stroke="black" points="384.5,-1080.5 384.5,-1101.5 537.5,-1101.5 537.5,-1080.5 384.5,-1080.5"/>
<text text-anchor="middle" x="461" y="-1088.5" font-family="Helvetica,sans-Serif" font-size="10.00">uiODHorizon2DParentTreeItem</text>
</a>
</g>
<!-- Node12&#45;&gt;Node20 -->
<g id="edge38" class="edge"><title>Node12&#45;&gt;Node20</title>
<path fill="none" stroke="midnightblue" d="M285.555,-1008.89C304.641,-1027.28 336.873,-1055.38 370,-1071 378.046,-1074.8 386.836,-1077.88 395.678,-1080.39"/>
<polygon fill="midnightblue" stroke="midnightblue" points="287.798,-1006.19 278.216,-1001.67 282.888,-1011.18 287.798,-1006.19"/>
</g>
<!-- Node21 -->
<g id="node41" class="node"><title>Node21</title>
<a xlink:href="classuiODHorizonParentTreeItem.html" target="_top" xlink:title="uiODHorizonParentTreeItem">
<polygon fill="white" stroke="black" points="391,-1040.5 391,-1061.5 531,-1061.5 531,-1040.5 391,-1040.5"/>
<text text-anchor="middle" x="461" y="-1048.5" font-family="Helvetica,sans-Serif" font-size="10.00">uiODHorizonParentTreeItem</text>
</a>
</g>
<!-- Node12&#45;&gt;Node21 -->
<g id="edge40" class="edge"><title>Node12&#45;&gt;Node21</title>
<path fill="none" stroke="midnightblue" d="M301.381,-1005.63C321.077,-1013.87 346.646,-1023.9 370,-1031 381.608,-1034.53 394.224,-1037.7 406.263,-1040.43"/>
<polygon fill="midnightblue" stroke="midnightblue" points="302.513,-1002.31 291.94,-1001.63 299.781,-1008.75 302.513,-1002.31"/>
</g>
<!-- Node22 -->
<g id="node43" class="node"><title>Node22</title>
<a xlink:href="classuiODInlineParentTreeItem.html" target="_top" xlink:title="uiODInlineParentTreeItem">
<polygon fill="white" stroke="black" points="396,-1000.5 396,-1021.5 526,-1021.5 526,-1000.5 396,-1000.5"/>
<text text-anchor="middle" x="461" y="-1008.5" font-family="Helvetica,sans-Serif" font-size="10.00">uiODInlineParentTreeItem</text>
</a>
</g>
<!-- Node12&#45;&gt;Node22 -->
<g id="edge42" class="edge"><title>Node12&#45;&gt;Node22</title>
<path fill="none" stroke="midnightblue" d="M317.286,-996.107C341.147,-998.58 370.119,-1001.58 395.781,-1004.24"/>
<polygon fill="midnightblue" stroke="midnightblue" points="317.364,-992.597 307.056,-995.047 316.642,-999.559 317.364,-992.597"/>
</g>
<!-- Node23 -->
<g id="node45" class="node"><title>Node23</title>
<a xlink:href="classuiODLine2DParentTreeItem.html" target="_top" xlink:title="uiODLine2DParentTreeItem">
<polygon fill="white" stroke="black" points="392.5,-960.5 392.5,-981.5 529.5,-981.5 529.5,-960.5 392.5,-960.5"/>
<text text-anchor="middle" x="461" y="-968.5" font-family="Helvetica,sans-Serif" font-size="10.00">uiODLine2DParentTreeItem</text>
</a>
</g>
<!-- Node12&#45;&gt;Node23 -->
<g id="edge44" class="edge"><title>Node12&#45;&gt;Node23</title>
<path fill="none" stroke="midnightblue" d="M317.182,-985.903C339.996,-983.539 367.5,-980.689 392.319,-978.117"/>
<polygon fill="midnightblue" stroke="midnightblue" points="316.642,-982.441 307.056,-986.953 317.364,-989.403 316.642,-982.441"/>
</g>
<!-- Node24 -->
<g id="node47" class="node"><title>Node24</title>
<a xlink:href="classuiODPickSetParentTreeItem.html" target="_top" xlink:title="uiODPickSetParentTreeItem">
<polygon fill="white" stroke="black" points="390.5,-920.5 390.5,-941.5 531.5,-941.5 531.5,-920.5 390.5,-920.5"/>
<text text-anchor="middle" x="461" y="-928.5" font-family="Helvetica,sans-Serif" font-size="10.00">uiODPickSetParentTreeItem</text>
</a>
</g>
<!-- Node12&#45;&gt;Node24 -->
<g id="edge46" class="edge"><title>Node12&#45;&gt;Node24</title>
<path fill="none" stroke="midnightblue" d="M301.381,-976.371C321.077,-968.13 346.646,-958.097 370,-951 381.608,-947.472 394.224,-944.295 406.263,-941.566"/>
<polygon fill="midnightblue" stroke="midnightblue" points="299.781,-973.248 291.94,-980.373 302.513,-979.693 299.781,-973.248"/>
</g>
<!-- Node25 -->
<g id="node49" class="node"><title>Node25</title>
<a xlink:href="classuiODPolygonParentTreeItem.html" target="_top" xlink:title="uiODPolygonParentTreeItem">
<polygon fill="white" stroke="black" points="390,-880.5 390,-901.5 532,-901.5 532,-880.5 390,-880.5"/>
<text text-anchor="middle" x="461" y="-888.5" font-family="Helvetica,sans-Serif" font-size="10.00">uiODPolygonParentTreeItem</text>
</a>
</g>
<!-- Node12&#45;&gt;Node25 -->
<g id="edge48" class="edge"><title>Node12&#45;&gt;Node25</title>
<path fill="none" stroke="midnightblue" d="M285.555,-973.108C304.641,-954.716 336.873,-926.625 370,-911 378.046,-907.205 386.836,-904.117 395.678,-901.608"/>
<polygon fill="midnightblue" stroke="midnightblue" points="282.888,-970.823 278.216,-980.332 287.798,-975.812 282.888,-970.823"/>
</g>
<!-- Node26 -->
<g id="node51" class="node"><title>Node26</title>
<a xlink:href="classuiODPSEventsParentTreeItem.html" target="_top" xlink:title="uiODPSEventsParentTreeItem">
<polygon fill="white" stroke="black" points="385.5,-840.5 385.5,-861.5 536.5,-861.5 536.5,-840.5 385.5,-840.5"/>
<text text-anchor="middle" x="461" y="-848.5" font-family="Helvetica,sans-Serif" font-size="10.00">uiODPSEventsParentTreeItem</text>
</a>
</g>
<!-- Node12&#45;&gt;Node26 -->
<g id="edge50" class="edge"><title>Node12&#45;&gt;Node26</title>
<path fill="none" stroke="midnightblue" d="M278.986,-971.409C295.223,-944.365 328.259,-896.096 370,-871 376.377,-867.166 383.4,-864.064 390.632,-861.555"/>
<polygon fill="midnightblue" stroke="midnightblue" points="275.797,-969.93 273.779,-980.331 281.843,-973.458 275.797,-969.93"/>
</g>
<!-- Node27 -->
<g id="node53" class="node"><title>Node27</title>
<a xlink:href="classuiODRandomLineParentTreeItem.html" target="_top" xlink:title="uiODRandomLineParentTreeItem">
<polygon fill="white" stroke="black" points="380.5,-800.5 380.5,-821.5 541.5,-821.5 541.5,-800.5 380.5,-800.5"/>
<text text-anchor="middle" x="461" y="-808.5" font-family="Helvetica,sans-Serif" font-size="10.00">uiODRandomLineParentTreeItem</text>
</a>
</g>
<!-- Node12&#45;&gt;Node27 -->
<g id="edge52" class="edge"><title>Node12&#45;&gt;Node27</title>
<path fill="none" stroke="midnightblue" d="M274.917,-970.912C287.854,-936.502 319.096,-866.563 370,-831 375.437,-827.202 381.466,-824.107 387.759,-821.588"/>
<polygon fill="midnightblue" stroke="midnightblue" points="271.605,-969.779 271.489,-980.373 278.187,-972.164 271.605,-969.779"/>
</g>
<!-- Node28 -->
<g id="node55" class="node"><title>Node28</title>
<a xlink:href="classuiODSceneTreeItem.html" target="_top" xlink:title="uiODSceneTreeItem">
<polygon fill="white" stroke="black" points="408,-760.5 408,-781.5 514,-781.5 514,-760.5 408,-760.5"/>
<text text-anchor="middle" x="461" y="-768.5" font-family="Helvetica,sans-Serif" font-size="10.00">uiODSceneTreeItem</text>
</a>
</g>
<!-- Node12&#45;&gt;Node28 -->
<g id="edge54" class="edge"><title>Node12&#45;&gt;Node28</title>
<path fill="none" stroke="midnightblue" d="M272.352,-970.33C282.122,-929.292 309.818,-837.492 370,-791 380.881,-782.594 394.568,-777.566 407.999,-774.598"/>
<polygon fill="midnightblue" stroke="midnightblue" points="268.898,-969.738 270.106,-980.263 275.725,-971.282 268.898,-969.738"/>
</g>
<!-- Node29 -->
<g id="node57" class="node"><title>Node29</title>
<a xlink:href="classuiODVolrenParentTreeItem.html" target="_top" xlink:title="uiODVolrenParentTreeItem">
<polygon fill="white" stroke="black" points="394,-720.5 394,-741.5 528,-741.5 528,-720.5 394,-720.5"/>
<text text-anchor="middle" x="461" y="-728.5" font-family="Helvetica,sans-Serif" font-size="10.00">uiODVolrenParentTreeItem</text>
</a>
</g>
<!-- Node12&#45;&gt;Node29 -->
<g id="edge56" class="edge"><title>Node12&#45;&gt;Node29</title>
<path fill="none" stroke="midnightblue" d="M270.457,-970.203C277.15,-923.317 300.154,-808.956 370,-751 376.971,-745.216 385.247,-741.005 393.923,-737.956"/>
<polygon fill="midnightblue" stroke="midnightblue" points="266.955,-969.983 269.116,-980.355 273.895,-970.899 266.955,-969.983"/>
</g>
<!-- Node30 -->
<g id="node59" class="node"><title>Node30</title>
<a xlink:href="classuiODWellParentTreeItem.html" target="_top" xlink:title="uiODWellParentTreeItem">
<polygon fill="white" stroke="black" points="398,-680.5 398,-701.5 524,-701.5 524,-680.5 398,-680.5"/>
<text text-anchor="middle" x="461" y="-688.5" font-family="Helvetica,sans-Serif" font-size="10.00">uiODWellParentTreeItem</text>
</a>
</g>
<!-- Node12&#45;&gt;Node30 -->
<g id="edge58" class="edge"><title>Node12&#45;&gt;Node30</title>
<path fill="none" stroke="midnightblue" d="M269.031,-970.376C272.799,-918.327 290.202,-780.832 370,-711 377.912,-704.076 387.673,-699.378 397.834,-696.224"/>
<polygon fill="midnightblue" stroke="midnightblue" points="265.536,-970.193 268.403,-980.393 272.522,-970.632 265.536,-970.193"/>
</g>
<!-- Node31 -->
<g id="node61" class="node"><title>Node31</title>
<a xlink:href="classuiODZsliceParentTreeItem.html" target="_top" xlink:title="uiODZsliceParentTreeItem">
<polygon fill="white" stroke="black" points="394.5,-640.5 394.5,-661.5 527.5,-661.5 527.5,-640.5 394.5,-640.5"/>
<text text-anchor="middle" x="461" y="-648.5" font-family="Helvetica,sans-Serif" font-size="10.00">uiODZsliceParentTreeItem</text>
</a>
</g>
<!-- Node12&#45;&gt;Node31 -->
<g id="edge60" class="edge"><title>Node12&#45;&gt;Node31</title>
<path fill="none" stroke="midnightblue" d="M271.829,-970.243C284.075,-906.089 324.17,-712.787 370,-671 376.933,-664.679 385.395,-660.195 394.338,-657.041"/>
<polygon fill="midnightblue" stroke="midnightblue" points="268.339,-969.867 269.93,-980.342 275.218,-971.161 268.339,-969.867"/>
</g>
<!-- Node14 -->
<g id="node27" class="node"><title>Node14</title>
<a xlink:href="classArrowParentItem.html" target="_top" xlink:title="ArrowParentItem">
<polygon fill="white" stroke="black" points="621,-1308.5 621,-1329.5 711,-1329.5 711,-1308.5 621,-1308.5"/>
<text text-anchor="middle" x="666" y="-1316.5" font-family="Helvetica,sans-Serif" font-size="10.00">ArrowParentItem</text>
</a>
</g>
<!-- Node13&#45;&gt;Node14 -->
<g id="edge26" class="edge"><title>Node13&#45;&gt;Node14</title>
<path fill="none" stroke="midnightblue" d="M523.649,-1327.33C555.011,-1325.5 592.267,-1323.32 620.798,-1321.65"/>
<polygon fill="midnightblue" stroke="midnightblue" points="523.039,-1323.86 513.261,-1327.94 523.448,-1330.85 523.039,-1323.86"/>
</g>
<!-- Node33 -->
<g id="node65" class="node"><title>Node33</title>
<a xlink:href="classuiODVw2DFaultParentTreeItem.html" target="_top" xlink:title="uiODVw2DFaultParentTreeItem">
<polygon fill="white" stroke="black" points="383.5,-600.5 383.5,-621.5 538.5,-621.5 538.5,-600.5 383.5,-600.5"/>
<text text-anchor="middle" x="461" y="-608.5" font-family="Helvetica,sans-Serif" font-size="10.00">uiODVw2DFaultParentTreeItem</text>
</a>
</g>
<!-- Node32&#45;&gt;Node33 -->
<g id="edge64" class="edge"><title>Node32&#45;&gt;Node33</title>
<path fill="none" stroke="midnightblue" d="M271.295,-391.563C279.468,-435.494 304.92,-538.748 370,-591 374.667,-594.747 379.886,-597.829 385.399,-600.359"/>
<polygon fill="midnightblue" stroke="midnightblue" points="274.708,-390.76 269.539,-381.512 267.812,-391.965 274.708,-390.76"/>
</g>
<!-- Node34 -->
<g id="node67" class="node"><title>Node34</title>
<a xlink:href="classuiODVw2DFaultSS2DParentTreeItem.html" target="_top" xlink:title="uiODVw2DFaultSS2DParentTreeItem">
<polygon fill="white" stroke="black" points="370,-560.5 370,-581.5 552,-581.5 552,-560.5 370,-560.5"/>
<text text-anchor="middle" x="461" y="-568.5" font-family="Helvetica,sans-Serif" font-size="10.00">uiODVw2DFaultSS2DParentTreeItem</text>
</a>
</g>
<!-- Node32&#45;&gt;Node34 -->
<g id="edge66" class="edge"><title>Node32&#45;&gt;Node34</title>
<path fill="none" stroke="midnightblue" d="M273.526,-391.421C284.868,-429.238 314.499,-510.039 370,-551 375.076,-554.746 380.717,-557.815 386.634,-560.326"/>
<polygon fill="midnightblue" stroke="midnightblue" points="276.818,-390.204 270.694,-381.558 270.09,-392.136 276.818,-390.204"/>
</g>
<!-- Node35 -->
<g id="node69" class="node"><title>Node35</title>
<a xlink:href="classuiODVw2DFaultSS2DTreeItem.html" target="_top" xlink:title="uiODVw2DFaultSS2DTreeItem">
<polygon fill="white" stroke="black" points="384.5,-520.5 384.5,-541.5 537.5,-541.5 537.5,-520.5 384.5,-520.5"/>
<text text-anchor="middle" x="461" y="-528.5" font-family="Helvetica,sans-Serif" font-size="10.00">uiODVw2DFaultSS2DTreeItem</text>
</a>
</g>
<!-- Node32&#45;&gt;Node35 -->
<g id="edge68" class="edge"><title>Node32&#45;&gt;Node35</title>
<path fill="none" stroke="midnightblue" d="M276.846,-391.174C291.504,-422.112 323.859,-480.852 370,-511 375.823,-514.805 382.257,-517.895 388.933,-520.405"/>
<polygon fill="midnightblue" stroke="midnightblue" points="279.91,-389.459 272.559,-381.829 273.547,-392.378 279.91,-389.459"/>
</g>
<!-- Node36 -->
<g id="node71" class="node"><title>Node36</title>
<a xlink:href="classuiODVw2DFaultSSParentTreeItem.html" target="_top" xlink:title="uiODVw2DFaultSSParentTreeItem">
<polygon fill="white" stroke="black" points="376.5,-480.5 376.5,-501.5 545.5,-501.5 545.5,-480.5 376.5,-480.5"/>
<text text-anchor="middle" x="461" y="-488.5" font-family="Helvetica,sans-Serif" font-size="10.00">uiODVw2DFaultSSParentTreeItem</text>
</a>
</g>
<!-- Node32&#45;&gt;Node36 -->
<g id="edge70" class="edge"><title>Node32&#45;&gt;Node36</title>
<path fill="none" stroke="midnightblue" d="M281.849,-389.972C299.619,-412.864 332.644,-450.79 370,-471 377.114,-474.849 384.92,-477.957 392.877,-480.467"/>
<polygon fill="midnightblue" stroke="midnightblue" points="284.432,-387.586 275.605,-381.727 278.852,-391.812 284.432,-387.586"/>
</g>
<!-- Node37 -->
<g id="node73" class="node"><title>Node37</title>
<a xlink:href="classuiODVw2DFaultSSTreeItem.html" target="_top" xlink:title="uiODVw2DFaultSSTreeItem">
<polygon fill="white" stroke="black" points="391,-440.5 391,-461.5 531,-461.5 531,-440.5 391,-440.5"/>
<text text-anchor="middle" x="461" y="-448.5" font-family="Helvetica,sans-Serif" font-size="10.00">uiODVw2DFaultSSTreeItem</text>
</a>
</g>
<!-- Node32&#45;&gt;Node37 -->
<g id="edge72" class="edge"><title>Node32&#45;&gt;Node37</title>
<path fill="none" stroke="midnightblue" d="M290.871,-387.31C310.868,-400.854 341.143,-419.673 370,-431 379.486,-434.723 389.814,-437.825 399.996,-440.386"/>
<polygon fill="midnightblue" stroke="midnightblue" points="292.669,-384.298 282.449,-381.504 288.696,-390.061 292.669,-384.298"/>
</g>
<!-- Node38 -->
<g id="node75" class="node"><title>Node38</title>
<a xlink:href="classuiODVw2DFaultTreeItem.html" target="_top" xlink:title="uiODVw2DFaultTreeItem">
<polygon fill="white" stroke="black" points="397.5,-400.5 397.5,-421.5 524.5,-421.5 524.5,-400.5 397.5,-400.5"/>
<text text-anchor="middle" x="461" y="-408.5" font-family="Helvetica,sans-Serif" font-size="10.00">uiODVw2DFaultTreeItem</text>
</a>
</g>
<!-- Node32&#45;&gt;Node38 -->
<g id="edge74" class="edge"><title>Node32&#45;&gt;Node38</title>
<path fill="none" stroke="midnightblue" d="M328.554,-383.55C354.824,-388.995 385.241,-395.299 410.295,-400.491"/>
<polygon fill="midnightblue" stroke="midnightblue" points="329.211,-380.112 318.708,-381.51 327.79,-386.966 329.211,-380.112"/>
</g>
<!-- Node39 -->
<g id="node77" class="node"><title>Node39</title>
<a xlink:href="classuiODVw2DHor2DParentTreeItem.html" target="_top" xlink:title="uiODVw2DHor2DParentTreeItem">
<polygon fill="white" stroke="black" points="380,-360.5 380,-381.5 542,-381.5 542,-360.5 380,-360.5"/>
<text text-anchor="middle" x="461" y="-368.5" font-family="Helvetica,sans-Serif" font-size="10.00">uiODVw2DHor2DParentTreeItem</text>
</a>
</g>
<!-- Node32&#45;&gt;Node39 -->
<g id="edge76" class="edge"><title>Node32&#45;&gt;Node39</title>
<path fill="none" stroke="midnightblue" d="M330.779,-371C346.386,-371 363.338,-371 379.693,-371"/>
<polygon fill="midnightblue" stroke="midnightblue" points="330.738,-367.5 320.738,-371 330.738,-374.5 330.738,-367.5"/>
</g>
<!-- Node40 -->
<g id="node79" class="node"><title>Node40</title>
<a xlink:href="classuiODVw2DHor2DTreeItem.html" target="_top" xlink:title="uiODVw2DHor2DTreeItem">
<polygon fill="white" stroke="black" points="394,-320.5 394,-341.5 528,-341.5 528,-320.5 394,-320.5"/>
<text text-anchor="middle" x="461" y="-328.5" font-family="Helvetica,sans-Serif" font-size="10.00">uiODVw2DHor2DTreeItem</text>
</a>
</g>
<!-- Node32&#45;&gt;Node40 -->
<g id="edge78" class="edge"><title>Node32&#45;&gt;Node40</title>
<path fill="none" stroke="midnightblue" d="M328.554,-358.45C354.824,-353.005 385.241,-346.701 410.295,-341.509"/>
<polygon fill="midnightblue" stroke="midnightblue" points="327.79,-355.034 318.708,-360.49 329.211,-361.888 327.79,-355.034"/>
</g>
<!-- Node41 -->
<g id="node81" class="node"><title>Node41</title>
<a xlink:href="classuiODVw2DHor3DParentTreeItem.html" target="_top" xlink:title="uiODVw2DHor3DParentTreeItem">
<polygon fill="white" stroke="black" points="380,-280.5 380,-301.5 542,-301.5 542,-280.5 380,-280.5"/>
<text text-anchor="middle" x="461" y="-288.5" font-family="Helvetica,sans-Serif" font-size="10.00">uiODVw2DHor3DParentTreeItem</text>
</a>
</g>
<!-- Node32&#45;&gt;Node41 -->
<g id="edge80" class="edge"><title>Node32&#45;&gt;Node41</title>
<path fill="none" stroke="midnightblue" d="M290.871,-354.69C310.868,-341.146 341.143,-322.327 370,-311 379.486,-307.277 389.814,-304.175 399.996,-301.614"/>
<polygon fill="midnightblue" stroke="midnightblue" points="288.696,-351.939 282.449,-360.496 292.669,-357.702 288.696,-351.939"/>
</g>
<!-- Node42 -->
<g id="node83" class="node"><title>Node42</title>
<a xlink:href="classuiODVw2DHor3DTreeItem.html" target="_top" xlink:title="uiODVw2DHor3DTreeItem">
<polygon fill="white" stroke="black" points="394,-240.5 394,-261.5 528,-261.5 528,-240.5 394,-240.5"/>
<text text-anchor="middle" x="461" y="-248.5" font-family="Helvetica,sans-Serif" font-size="10.00">uiODVw2DHor3DTreeItem</text>
</a>
</g>
<!-- Node32&#45;&gt;Node42 -->
<g id="edge82" class="edge"><title>Node32&#45;&gt;Node42</title>
<path fill="none" stroke="midnightblue" d="M281.849,-352.028C299.619,-329.136 332.644,-291.21 370,-271 377.398,-266.998 385.545,-263.796 393.832,-261.235"/>
<polygon fill="midnightblue" stroke="midnightblue" points="278.852,-350.188 275.605,-360.273 284.432,-354.414 278.852,-350.188"/>
</g>
<!-- Node43 -->
<g id="node85" class="node"><title>Node43</title>
<a xlink:href="classuiODVw2DPickSetParentTreeItem.html" target="_top" xlink:title="uiODVw2DPickSetParentTreeItem">
<polygon fill="white" stroke="black" points="377,-200.5 377,-221.5 545,-221.5 545,-200.5 377,-200.5"/>
<text text-anchor="middle" x="461" y="-208.5" font-family="Helvetica,sans-Serif" font-size="10.00">uiODVw2DPickSetParentTreeItem</text>
</a>
</g>
<!-- Node32&#45;&gt;Node43 -->
<g id="edge84" class="edge"><title>Node32&#45;&gt;Node43</title>
<path fill="none" stroke="midnightblue" d="M276.846,-350.826C291.504,-319.888 323.859,-261.148 370,-231 375.823,-227.195 382.257,-224.105 388.933,-221.595"/>
<polygon fill="midnightblue" stroke="midnightblue" points="273.547,-349.622 272.559,-360.171 279.91,-352.541 273.547,-349.622"/>
</g>
<!-- Node44 -->
<g id="node87" class="node"><title>Node44</title>
<a xlink:href="classuiODVw2DPickSetTreeItem.html" target="_top" xlink:title="uiODVw2DPickSetTreeItem">
<polygon fill="white" stroke="black" points="391,-160.5 391,-181.5 531,-181.5 531,-160.5 391,-160.5"/>
<text text-anchor="middle" x="461" y="-168.5" font-family="Helvetica,sans-Serif" font-size="10.00">uiODVw2DPickSetTreeItem</text>
</a>
</g>
<!-- Node32&#45;&gt;Node44 -->
<g id="edge86" class="edge"><title>Node32&#45;&gt;Node44</title>
<path fill="none" stroke="midnightblue" d="M273.526,-350.579C284.868,-312.762 314.499,-231.961 370,-191 376.247,-186.389 383.351,-182.805 390.77,-180.023"/>
<polygon fill="midnightblue" stroke="midnightblue" points="270.09,-349.864 270.694,-360.442 276.818,-351.796 270.09,-349.864"/>
</g>
<!-- Node45 -->
<g id="node89" class="node"><title>Node45</title>
<a xlink:href="classuiODVW2DVariableDensityTreeItem.html" target="_top" xlink:title="uiODVW2DVariableDensityTreeItem">
<polygon fill="white" stroke="black" points="373,-120.5 373,-141.5 549,-141.5 549,-120.5 373,-120.5"/>
<text text-anchor="middle" x="461" y="-128.5" font-family="Helvetica,sans-Serif" font-size="10.00">uiODVW2DVariableDensityTreeItem</text>
</a>
</g>
<!-- Node32&#45;&gt;Node45 -->
<g id="edge88" class="edge"><title>Node32&#45;&gt;Node45</title>
<path fill="none" stroke="midnightblue" d="M271.295,-350.437C279.468,-306.506 304.92,-203.252 370,-151 374.667,-147.253 379.886,-144.171 385.399,-141.641"/>
<polygon fill="midnightblue" stroke="midnightblue" points="267.812,-350.035 269.539,-360.488 274.708,-351.24 267.812,-350.035"/>
</g>
<!-- Node46 -->
<g id="node91" class="node"><title>Node46</title>
<a xlink:href="classuiODVW2DWiggleVarAreaTreeItem.html" target="_top" xlink:title="uiODVW2DWiggleVarAreaTreeItem">
<polygon fill="white" stroke="black" points="374.5,-80.5 374.5,-101.5 547.5,-101.5 547.5,-80.5 374.5,-80.5"/>
<text text-anchor="middle" x="461" y="-88.5" font-family="Helvetica,sans-Serif" font-size="10.00">uiODVW2DWiggleVarAreaTreeItem</text>
</a>
</g>
<!-- Node32&#45;&gt;Node46 -->
<g id="edge90" class="edge"><title>Node32&#45;&gt;Node46</title>
<path fill="none" stroke="midnightblue" d="M269.702,-350.187C274.923,-300.59 295.245,-174.818 370,-111 374.429,-107.219 379.412,-104.106 384.705,-101.548"/>
<polygon fill="midnightblue" stroke="midnightblue" points="266.2,-350.039 268.738,-360.326 273.169,-350.702 266.2,-350.039"/>
</g>
<!-- Node48 -->
<g id="node95" class="node"><title>Node48</title>
<a xlink:href="classuiODTreeTop.html" target="_top" xlink:title="uiODTreeTop">
<polygon fill="white" stroke="black" points="423.5,-40.5 423.5,-61.5 498.5,-61.5 498.5,-40.5 423.5,-40.5"/>
<text text-anchor="middle" x="461" y="-48.5" font-family="Helvetica,sans-Serif" font-size="10.00">uiODTreeTop</text>
</a>
</g>
<!-- Node47&#45;&gt;Node48 -->
<g id="edge94" class="edge"><title>Node47&#45;&gt;Node48</title>
<path fill="none" stroke="midnightblue" d="M318.744,-51C351.493,-51 393.391,-51 423.216,-51"/>
<polygon fill="midnightblue" stroke="midnightblue" points="318.459,-47.5001 308.459,-51 318.459,-54.5001 318.459,-47.5001"/>
</g>
<!-- Node49 -->
<g id="node97" class="node"><title>Node49</title>
<a xlink:href="classuiODVw2DTreeTop.html" target="_top" xlink:title="uiODVw2DTreeTop">
<polygon fill="white" stroke="black" points="410,-0.5 410,-21.5 512,-21.5 512,-0.5 410,-0.5"/>
<text text-anchor="middle" x="461" y="-8.5" font-family="Helvetica,sans-Serif" font-size="10.00">uiODVw2DTreeTop</text>
</a>
</g>
<!-- Node47&#45;&gt;Node49 -->
<g id="edge96" class="edge"><title>Node47&#45;&gt;Node49</title>
<path fill="none" stroke="midnightblue" d="M318.541,-40.5252C346.818,-34.6647 381.964,-27.3804 410.272,-21.5136"/>
<polygon fill="midnightblue" stroke="midnightblue" points="317.541,-37.158 308.459,-42.6147 318.961,-44.0124 317.541,-37.158"/>
</g>
</g>
</svg>
