<?xml version="1.0" encoding="UTF-8" standalone="no"?>
<!DOCTYPE svg PUBLIC "-//W3C//DTD SVG 1.1//EN"
 "http://www.w3.org/Graphics/SVG/1.1/DTD/svg11.dtd">
<!-- Generated by graphviz version 2.26.0 (20091210.2329)
 -->
<!-- Title: UserInputObj Pages: 1 -->
<svg width="738pt" height="189pt"
 viewBox="0.00 0.00 738.00 189.00" xmlns="http://www.w3.org/2000/svg" xmlns:xlink="http://www.w3.org/1999/xlink">
<g id="graph1" class="graph" transform="scale(1 1) rotate(0) translate(4 185)">
<title>UserInputObj</title>
<polygon fill="white" stroke="white" points="-4,5 -4,-185 735,-185 735,5 -4,5"/>
<!-- Node1 -->
<g id="node1" class="node"><title>Node1</title>
<polygon fill="#bfbfbf" stroke="black" points="0,-44.5 0,-65.5 74,-65.5 74,-44.5 0,-44.5"/>
<text text-anchor="middle" x="37" y="-52.5" font-family="Helvetica,sans-Serif" font-size="10.00">UserInputObj</text>
</g>
<!-- Node2 -->
<g id="node3" class="node"><title>Node2</title>
<a xlink:href="classUserInputObjImpl.html" target="_top" xlink:title="UserInputObjImpl\&lt; T \&gt;">
<polygon fill="white" stroke="black" points="112.5,-79.5 112.5,-100.5 229.5,-100.5 229.5,-79.5 112.5,-79.5"/>
<text text-anchor="middle" x="171" y="-87.5" font-family="Helvetica,sans-Serif" font-size="10.00">UserInputObjImpl&lt; T &gt;</text>
</a>
</g>
<!-- Node1&#45;&gt;Node2 -->
<g id="edge2" class="edge"><title>Node1&#45;&gt;Node2</title>
<path fill="none" stroke="midnightblue" d="M84.0517,-67.2896C99.2369,-71.2559 115.926,-75.6151 130.588,-79.4447"/>
<polygon fill="midnightblue" stroke="midnightblue" points="84.8864,-63.8903 74.3265,-64.7495 83.1173,-70.6631 84.8864,-63.8903"/>
</g>
<!-- Node3 -->
<g id="node5" class="node"><title>Node3</title>
<a xlink:href="classUserInputObjImpl.html" target="_top" xlink:title="UserInputObjImpl\&lt; int \&gt;">
<polygon fill="white" stroke="black" points="344,-140.5 344,-161.5 466,-161.5 466,-140.5 344,-140.5"/>
<text text-anchor="middle" x="405" y="-148.5" font-family="Helvetica,sans-Serif" font-size="10.00">UserInputObjImpl&lt; int &gt;</text>
</a>
</g>
<!-- Node1&#45;&gt;Node3 -->
<g id="edge24" class="edge"><title>Node1&#45;&gt;Node3</title>
<path fill="none" stroke="midnightblue" d="M55.9912,-72.1822C70.4066,-84.3763 91.2284,-100.25 112,-110 186.51,-144.975 282.548,-152.228 343.966,-152.762"/>
<polygon fill="midnightblue" stroke="midnightblue" points="58.1394,-69.4123 48.2927,-65.5018 53.5516,-74.6993 58.1394,-69.4123"/>
</g>
<!-- Node7 -->
<g id="node13" class="node"><title>Node7</title>
<a xlink:href="classUserInputObjImpl.html" target="_top" xlink:title="UserInputObjImpl\&lt; const\l char * \&gt;">
<polygon fill="white" stroke="black" points="342,-56 342,-90 468,-90 468,-56 342,-56"/>
<text text-anchor="start" x="350" y="-77" font-family="Helvetica,sans-Serif" font-size="10.00">UserInputObjImpl&lt; const</text>
<text text-anchor="middle" x="405" y="-64" font-family="Helvetica,sans-Serif" font-size="10.00"> char * &gt;</text>
</a>
</g>
<!-- Node1&#45;&gt;Node7 -->
<g id="edge22" class="edge"><title>Node1&#45;&gt;Node7</title>
<path fill="none" stroke="midnightblue" d="M84.2886,-48.1052C141.109,-41.0608 239.149,-32.8631 322,-46 335.02,-48.0645 348.777,-51.8442 361.266,-55.9347"/>
<polygon fill="midnightblue" stroke="midnightblue" points="83.6456,-44.6589 74.1716,-49.4017 84.5354,-51.6021 83.6456,-44.6589"/>
</g>
<!-- Node9 -->
<g id="node17" class="node"><title>Node9</title>
<a xlink:href="classUserInputObjImpl.html" target="_top" xlink:title="UserInputObjImpl\&lt; bool \&gt;">
<polygon fill="white" stroke="black" points="340.5,-0.5 340.5,-21.5 469.5,-21.5 469.5,-0.5 340.5,-0.5"/>
<text text-anchor="middle" x="405" y="-8.5" font-family="Helvetica,sans-Serif" font-size="10.00">UserInputObjImpl&lt; bool &gt;</text>
</a>
</g>
<!-- Node1&#45;&gt;Node9 -->
<g id="edge20" class="edge"><title>Node1&#45;&gt;Node9</title>
<path fill="none" stroke="midnightblue" d="M83.6535,-41.9317C92.9843,-39.6723 102.759,-37.5541 112,-36 189.91,-22.8975 280.694,-16.5004 340.317,-13.4898"/>
<polygon fill="midnightblue" stroke="midnightblue" points="82.5955,-38.5886 73.7491,-44.4187 84.3004,-45.3778 82.5955,-38.5886"/>
</g>
<!-- Node2&#45;&gt;Node3 -->
<g id="edge4" class="edge"><title>Node2&#45;&gt;Node3</title>
<path fill="none" stroke="orange" stroke-dasharray="5,2" d="M221.43,-103.146C264.26,-114.311 324.928,-130.126 364.612,-140.471"/>
<polygon fill="orange" stroke="orange" points="222.052,-99.6915 211.493,-100.556 220.286,-106.465 222.052,-99.6915"/>
<text text-anchor="middle" x="285" y="-131" font-family="Helvetica,sans-Serif" font-size="10.00"> &lt; int &gt;</text>
</g>
<!-- Node2&#45;&gt;Node7 -->
<g id="edge12" class="edge"><title>Node2&#45;&gt;Node7</title>
<path fill="none" stroke="orange" stroke-dasharray="5,2" d="M239.979,-84.9887C272.181,-82.6493 310.255,-79.8832 341.712,-77.5978"/>
<polygon fill="orange" stroke="orange" points="239.466,-81.5166 229.746,-85.7321 239.973,-88.4982 239.466,-81.5166"/>
<text text-anchor="middle" x="285" y="-89" font-family="Helvetica,sans-Serif" font-size="10.00"> &lt; const char * &gt;</text>
</g>
<!-- Node2&#45;&gt;Node9 -->
<g id="edge16" class="edge"><title>Node2&#45;&gt;Node9</title>
<path fill="none" stroke="orange" stroke-dasharray="5,2" d="M210.361,-76.0499C222.423,-71.8148 235.744,-67.1781 248,-63 290.94,-48.3617 340.681,-31.9847 372.47,-21.5912"/>
<polygon fill="orange" stroke="orange" points="208.846,-72.8725 200.576,-79.494 211.171,-79.4754 208.846,-72.8725"/>
<text text-anchor="middle" x="285" y="-67" font-family="Helvetica,sans-Serif" font-size="10.00"> &lt; bool &gt;</text>
</g>
<!-- Node4 -->
<g id="node7" class="node"><title>Node4</title>
<a xlink:href="classuiComboBox.html" target="_top" xlink:title="Combo box. ">
<polygon fill="white" stroke="black" points="520.5,-159.5 520.5,-180.5 593.5,-180.5 593.5,-159.5 520.5,-159.5"/>
<text text-anchor="middle" x="557" y="-167.5" font-family="Helvetica,sans-Serif" font-size="10.00">uiComboBox</text>
</a>
</g>
<!-- Node3&#45;&gt;Node4 -->
<g id="edge6" class="edge"><title>Node3&#45;&gt;Node4</title>
<path fill="none" stroke="midnightblue" d="M476.334,-159.917C491.567,-161.821 507.05,-163.756 520.325,-165.416"/>
<polygon fill="midnightblue" stroke="midnightblue" points="476.743,-156.441 466.386,-158.673 475.875,-163.387 476.743,-156.441"/>
</g>
<!-- Node6 -->
<g id="node11" class="node"><title>Node6</title>
<a xlink:href="classuiGenInputIntFld.html" target="_top" xlink:title="uiGenInputIntFld">
<polygon fill="white" stroke="black" points="512.5,-119.5 512.5,-140.5 601.5,-140.5 601.5,-119.5 512.5,-119.5"/>
<text text-anchor="middle" x="557" y="-127.5" font-family="Helvetica,sans-Serif" font-size="10.00">uiGenInputIntFld</text>
</a>
</g>
<!-- Node3&#45;&gt;Node6 -->
<g id="edge10" class="edge"><title>Node3&#45;&gt;Node6</title>
<path fill="none" stroke="midnightblue" d="M476.534,-141.117C488.691,-139.437 501,-137.737 512.212,-136.188"/>
<polygon fill="midnightblue" stroke="midnightblue" points="475.813,-137.683 466.386,-142.519 476.771,-144.617 475.813,-137.683"/>
</g>
<!-- Node5 -->
<g id="node9" class="node"><title>Node5</title>
<a xlink:href="classuiColorTableSel.html" target="_top" xlink:title="uiColorTableSel">
<polygon fill="white" stroke="black" points="644,-159.5 644,-180.5 730,-180.5 730,-159.5 644,-159.5"/>
<text text-anchor="middle" x="687" y="-167.5" font-family="Helvetica,sans-Serif" font-size="10.00">uiColorTableSel</text>
</a>
</g>
<!-- Node4&#45;&gt;Node5 -->
<g id="edge8" class="edge"><title>Node4&#45;&gt;Node5</title>
<path fill="none" stroke="midnightblue" d="M603.762,-170C616.828,-170 630.964,-170 643.813,-170"/>
<polygon fill="midnightblue" stroke="midnightblue" points="603.558,-166.5 593.558,-170 603.558,-173.5 603.558,-166.5"/>
</g>
<!-- Node8 -->
<g id="node15" class="node"><title>Node8</title>
<a xlink:href="classuiLineEdit.html" target="_top" xlink:title="uiLineEdit">
<polygon fill="white" stroke="black" points="527.5,-62.5 527.5,-83.5 586.5,-83.5 586.5,-62.5 527.5,-62.5"/>
<text text-anchor="middle" x="557" y="-70.5" font-family="Helvetica,sans-Serif" font-size="10.00">uiLineEdit</text>
</a>
</g>
<!-- Node7&#45;&gt;Node8 -->
<g id="edge14" class="edge"><title>Node7&#45;&gt;Node8</title>
<path fill="none" stroke="midnightblue" d="M478.335,-73C495.731,-73 513.314,-73 527.431,-73"/>
<polygon fill="midnightblue" stroke="midnightblue" points="478.141,-69.5001 468.141,-73 478.141,-76.5001 478.141,-69.5001"/>
</g>
<!-- Node10 -->
<g id="node19" class="node"><title>Node10</title>
<a xlink:href="classuiGenInputBoolFld.html" target="_top" xlink:title="uiGenInputBoolFld">
<polygon fill="white" stroke="black" points="508.5,-0.5 508.5,-21.5 605.5,-21.5 605.5,-0.5 508.5,-0.5"/>
<text text-anchor="middle" x="557" y="-8.5" font-family="Helvetica,sans-Serif" font-size="10.00">uiGenInputBoolFld</text>
</a>
</g>
<!-- Node9&#45;&gt;Node10 -->
<g id="edge18" class="edge"><title>Node9&#45;&gt;Node10</title>
<path fill="none" stroke="midnightblue" d="M479.949,-11C489.622,-11 499.318,-11 508.41,-11"/>
<polygon fill="midnightblue" stroke="midnightblue" points="479.903,-7.5001 469.903,-11 479.903,-14.5001 479.903,-7.5001"/>
</g>
</g>
</svg>
