<?xml version="1.0" encoding="UTF-8" standalone="no"?>
<!DOCTYPE svg PUBLIC "-//W3C//DTD SVG 1.1//EN"
 "http://www.w3.org/Graphics/SVG/1.1/DTD/svg11.dtd">
<!-- Generated by graphviz version 2.26.0 (20091210.2329)
 -->
<!-- Title: EM::PolygonBody Pages: 1 -->
<svg width="161pt" height="204pt"
 viewBox="0.00 0.00 161.00 204.00" xmlns="http://www.w3.org/2000/svg" xmlns:xlink="http://www.w3.org/1999/xlink">
<g id="graph1" class="graph" transform="scale(1 1) rotate(0) translate(4 200)">
<title>EM::PolygonBody</title>
<polygon fill="white" stroke="white" points="-4,5 -4,-200 158,-200 158,5 -4,5"/>
<!-- Node1 -->
<g id="node1" class="node"><title>Node1</title>
<polygon fill="#bfbfbf" stroke="black" points="33.5,-0.5 33.5,-21.5 128.5,-21.5 128.5,-0.5 33.5,-0.5"/>
<text text-anchor="middle" x="81" y="-8.5" font-family="Helvetica,sans-Serif" font-size="10.00">EM::PolygonBody</text>
</g>
<!-- Node2 -->
<g id="node2" class="node"><title>Node2</title>
<a xlink:href="classEM_1_1Surface.html" target="_top" xlink:title="Base class for surfaces like horizons and faults. A surface is made up of one or more segments or pat...">
<polygon fill="white" stroke="black" points="4.5,-58.5 4.5,-79.5 75.5,-79.5 75.5,-58.5 4.5,-58.5"/>
<text text-anchor="middle" x="40" y="-66.5" font-family="Helvetica,sans-Serif" font-size="10.00">EM::Surface</text>
</a>
</g>
<!-- Node2&#45;&gt;Node1 -->
<g id="edge2" class="edge"><title>Node2&#45;&gt;Node1</title>
<path fill="none" stroke="midnightblue" d="M53.46,-49.9591C60.131,-40.522 67.9341,-29.4835 73.5276,-21.5707"/>
<polygon fill="midnightblue" stroke="midnightblue" points="50.4344,-48.1758 47.52,-58.3619 56.1505,-52.2165 50.4344,-48.1758"/>
</g>
<!-- Node3 -->
<g id="node4" class="node"><title>Node3</title>
<a xlink:href="classEM_1_1EMObject.html" target="_top" xlink:title="Base class for all EarthModel objects. ">
<polygon fill="white" stroke="black" points="-0.5,-116.5 -0.5,-137.5 80.5,-137.5 80.5,-116.5 -0.5,-116.5"/>
<text text-anchor="middle" x="40" y="-124.5" font-family="Helvetica,sans-Serif" font-size="10.00">EM::EMObject</text>
</a>
</g>
<!-- Node3&#45;&gt;Node2 -->
<g id="edge4" class="edge"><title>Node3&#45;&gt;Node2</title>
<path fill="none" stroke="midnightblue" d="M40,-106.191C40,-97.1684 40,-86.9941 40,-79.5707"/>
<polygon fill="midnightblue" stroke="midnightblue" points="36.5001,-106.362 40,-116.362 43.5001,-106.362 36.5001,-106.362"/>
</g>
<!-- Node4 -->
<g id="node6" class="node"><title>Node4</title>
<a xlink:href="classCallBacker.html" target="_top" xlink:title="To be able to send and/or receive CallBacks, inherit from this class. ">
<polygon fill="white" stroke="black" points="7.5,-174.5 7.5,-195.5 72.5,-195.5 72.5,-174.5 7.5,-174.5"/>
<text text-anchor="middle" x="40" y="-182.5" font-family="Helvetica,sans-Serif" font-size="10.00">CallBacker</text>
</a>
</g>
<!-- Node4&#45;&gt;Node3 -->
<g id="edge6" class="edge"><title>Node4&#45;&gt;Node3</title>
<path fill="none" stroke="midnightblue" d="M40,-164.191C40,-155.168 40,-144.994 40,-137.571"/>
<polygon fill="midnightblue" stroke="midnightblue" points="36.5001,-164.362 40,-174.362 43.5001,-164.362 36.5001,-164.362"/>
</g>
<!-- Node5 -->
<g id="node8" class="node"><title>Node5</title>
<a xlink:href="classEM_1_1Body.html" target="_top" xlink:title="A body that can deliver an implicit body. ">
<polygon fill="white" stroke="black" points="93,-58.5 93,-79.5 153,-79.5 153,-58.5 93,-58.5"/>
<text text-anchor="middle" x="123" y="-66.5" font-family="Helvetica,sans-Serif" font-size="10.00">EM::Body</text>
</a>
</g>
<!-- Node5&#45;&gt;Node1 -->
<g id="edge8" class="edge"><title>Node5&#45;&gt;Node1</title>
<path fill="none" stroke="midnightblue" d="M109.423,-50.2504C102.543,-40.75 94.4437,-29.5651 88.6546,-21.5707"/>
<polygon fill="midnightblue" stroke="midnightblue" points="106.597,-52.3153 115.297,-58.3619 112.266,-48.2097 106.597,-52.3153"/>
</g>
</g>
</svg>
