<?xml version="1.0" encoding="UTF-8" standalone="no"?>
<!DOCTYPE svg PUBLIC "-//W3C//DTD SVG 1.1//EN"
 "http://www.w3.org/Graphics/SVG/1.1/DTD/svg11.dtd">
<!-- Generated by graphviz version 2.26.0 (20091210.2329)
 -->
<!-- Title: SincInterpolator1D&lt; RT, PT &gt; Pages: 1 -->
<svg width="236pt" height="174pt"
 viewBox="0.00 0.00 236.00 174.00" xmlns="http://www.w3.org/2000/svg" xmlns:xlink="http://www.w3.org/1999/xlink">
<g id="graph1" class="graph" transform="scale(1 1) rotate(0) translate(4 170)">
<title>SincInterpolator1D&lt; RT, PT &gt;</title>
<polygon fill="white" stroke="white" points="-4,5 -4,-170 233,-170 233,5 -4,5"/>
<!-- Node1 -->
<g id="node1" class="node"><title>Node1</title>
<polygon fill="#bfbfbf" stroke="black" points="54,-1 54,-35 152,-35 152,-1 54,-1"/>
<text text-anchor="start" x="62" y="-22" font-family="Helvetica,sans-Serif" font-size="10.00">SincInterpolator1D</text>
<text text-anchor="middle" x="103" y="-9" font-family="Helvetica,sans-Serif" font-size="10.00">&lt; RT, PT &gt;</text>
</g>
<!-- Node2 -->
<g id="node2" class="node"><title>Node2</title>
<a xlink:href="classSincInterpolator.html" target="_top" xlink:title="A sinc interpolator for bandlimited uniformly&#45;sampled functions y(x). Interpolators can be designed f...">
<polygon fill="white" stroke="black" points="-0.5,-72.5 -0.5,-93.5 84.5,-93.5 84.5,-72.5 -0.5,-72.5"/>
<text text-anchor="middle" x="42" y="-80.5" font-family="Helvetica,sans-Serif" font-size="10.00">SincInterpolator</text>
</a>
</g>
<!-- Node2&#45;&gt;Node1 -->
<g id="edge2" class="edge"><title>Node2&#45;&gt;Node1</title>
<path fill="none" stroke="midnightblue" d="M59.1676,-64.7066C67.878,-55.4251 78.3946,-44.2189 86.9431,-35.1099"/>
<polygon fill="midnightblue" stroke="midnightblue" points="56.3639,-62.5796 52.0729,-72.2666 61.4682,-67.3698 56.3639,-62.5796"/>
</g>
<!-- Node3 -->
<g id="node4" class="node"><title>Node3</title>
<a xlink:href="classMathFunction.html" target="_top" xlink:title="Mathematical function. ">
<polygon fill="white" stroke="black" points="102,-72.5 102,-93.5 228,-93.5 228,-72.5 102,-72.5"/>
<text text-anchor="middle" x="165" y="-80.5" font-family="Helvetica,sans-Serif" font-size="10.00">MathFunction&lt; RT, PT &gt;</text>
</a>
</g>
<!-- Node3&#45;&gt;Node1 -->
<g id="edge4" class="edge"><title>Node3&#45;&gt;Node1</title>
<path fill="none" stroke="midnightblue" d="M147.819,-64.9873C138.914,-55.6517 128.097,-44.3109 119.32,-35.1099"/>
<polygon fill="midnightblue" stroke="midnightblue" points="145.327,-67.4462 154.762,-72.2666 150.392,-62.6147 145.327,-67.4462"/>
</g>
<!-- Node4 -->
<g id="node6" class="node"><title>Node4</title>
<a xlink:href="classMathFunctionND.html" target="_top" xlink:title="Multidimensional Mathematical function. ">
<polygon fill="white" stroke="black" points="107,-131 107,-165 223,-165 223,-131 107,-131"/>
<text text-anchor="start" x="115" y="-152" font-family="Helvetica,sans-Serif" font-size="10.00">MathFunctionND&lt; RT,</text>
<text text-anchor="middle" x="165" y="-139" font-family="Helvetica,sans-Serif" font-size="10.00"> PT &gt;</text>
</a>
</g>
<!-- Node4&#45;&gt;Node3 -->
<g id="edge6" class="edge"><title>Node4&#45;&gt;Node3</title>
<path fill="none" stroke="midnightblue" d="M165,-120.688C165,-111.242 165,-101.195 165,-93.8521"/>
<polygon fill="midnightblue" stroke="midnightblue" points="161.5,-120.922 165,-130.922 168.5,-120.922 161.5,-120.922"/>
</g>
</g>
</svg>
