<?xml version="1.0" encoding="UTF-8" standalone="no"?>
<!DOCTYPE svg PUBLIC "-//W3C//DTD SVG 1.1//EN"
 "http://www.w3.org/Graphics/SVG/1.1/DTD/svg11.dtd">
<!-- Generated by graphviz version 2.26.0 (20091210.2329)
 -->
<!-- Title: uiODAttribTreeItem Pages: 1 -->
<svg width="640pt" height="202pt"
 viewBox="0.00 0.00 640.00 202.00" xmlns="http://www.w3.org/2000/svg" xmlns:xlink="http://www.w3.org/1999/xlink">
<g id="graph1" class="graph" transform="scale(1 1) rotate(0) translate(4 198)">
<title>uiODAttribTreeItem</title>
<polygon fill="white" stroke="white" points="-4,5 -4,-198 637,-198 637,5 -4,5"/>
<!-- Node1 -->
<g id="node1" class="node"><title>Node1</title>
<polygon fill="#bfbfbf" stroke="black" points="338.5,-86.5 338.5,-107.5 439.5,-107.5 439.5,-86.5 338.5,-86.5"/>
<text text-anchor="middle" x="389" y="-94.5" font-family="Helvetica,sans-Serif" font-size="10.00">uiODAttribTreeItem</text>
</g>
<!-- Node5 -->
<g id="node9" class="node"><title>Node5</title>
<a xlink:href="classuiOD2DLineSetAttribItem.html" target="_top" xlink:title="uiOD2DLineSetAttribItem">
<polygon fill="white" stroke="black" points="490,-172.5 490,-193.5 618,-193.5 618,-172.5 490,-172.5"/>
<text text-anchor="middle" x="554" y="-180.5" font-family="Helvetica,sans-Serif" font-size="10.00">uiOD2DLineSetAttribItem</text>
</a>
</g>
<!-- Node1&#45;&gt;Node5 -->
<g id="edge8" class="edge"><title>Node1&#45;&gt;Node5</title>
<path fill="none" stroke="midnightblue" d="M407.244,-114.337C423.917,-129.281 449.886,-150.386 476,-163 483.805,-166.77 492.404,-169.887 500.955,-172.446"/>
<polygon fill="midnightblue" stroke="midnightblue" points="409.583,-111.734 399.845,-107.56 404.855,-116.895 409.583,-111.734"/>
</g>
<!-- Node6 -->
<g id="node11" class="node"><title>Node6</title>
<a xlink:href="classuiODBodyDisplayDataTreeItem.html" target="_top" xlink:title="uiODBodyDisplayDataTreeItem">
<polygon fill="white" stroke="black" points="476.5,-132.5 476.5,-153.5 631.5,-153.5 631.5,-132.5 476.5,-132.5"/>
<text text-anchor="middle" x="554" y="-140.5" font-family="Helvetica,sans-Serif" font-size="10.00">uiODBodyDisplayDataTreeItem</text>
</a>
</g>
<!-- Node1&#45;&gt;Node6 -->
<g id="edge10" class="edge"><title>Node1&#45;&gt;Node6</title>
<path fill="none" stroke="midnightblue" d="M432.921,-110.493C446.681,-114.621 461.943,-119.099 476,-123 487.45,-126.178 499.896,-129.45 511.413,-132.404"/>
<polygon fill="midnightblue" stroke="midnightblue" points="433.791,-107.099 423.206,-107.562 431.769,-113.801 433.791,-107.099"/>
</g>
<!-- Node7 -->
<g id="node13" class="node"><title>Node7</title>
<a xlink:href="classuiODEarthModelSurfaceDataTreeItem.html" target="_top" xlink:title="uiODEarthModelSurfaceData\lTreeItem">
<polygon fill="white" stroke="black" points="482.5,-80 482.5,-114 625.5,-114 625.5,-80 482.5,-80"/>
<text text-anchor="start" x="490.5" y="-101" font-family="Helvetica,sans-Serif" font-size="10.00">uiODEarthModelSurfaceData</text>
<text text-anchor="middle" x="554" y="-88" font-family="Helvetica,sans-Serif" font-size="10.00">TreeItem</text>
</a>
</g>
<!-- Node1&#45;&gt;Node7 -->
<g id="edge12" class="edge"><title>Node1&#45;&gt;Node7</title>
<path fill="none" stroke="midnightblue" d="M450.156,-97C460.654,-97 471.646,-97 482.388,-97"/>
<polygon fill="midnightblue" stroke="midnightblue" points="449.852,-93.5001 439.852,-97 449.852,-100.5 449.852,-93.5001"/>
</g>
<!-- Node8 -->
<g id="node15" class="node"><title>Node8</title>
<a xlink:href="classuiODFaultSurfaceDataTreeItem.html" target="_top" xlink:title="uiODFaultSurfaceDataTreeItem">
<polygon fill="white" stroke="black" points="476.5,-40.5 476.5,-61.5 631.5,-61.5 631.5,-40.5 476.5,-40.5"/>
<text text-anchor="middle" x="554" y="-48.5" font-family="Helvetica,sans-Serif" font-size="10.00">uiODFaultSurfaceDataTreeItem</text>
</a>
</g>
<!-- Node1&#45;&gt;Node8 -->
<g id="edge14" class="edge"><title>Node1&#45;&gt;Node8</title>
<path fill="none" stroke="midnightblue" d="M432.921,-83.5073C446.681,-79.3791 461.943,-74.901 476,-71 487.45,-67.8224 499.896,-64.5501 511.413,-61.5962"/>
<polygon fill="midnightblue" stroke="midnightblue" points="431.769,-80.199 423.206,-86.4382 433.791,-86.9006 431.769,-80.199"/>
</g>
<!-- Node9 -->
<g id="node17" class="node"><title>Node9</title>
<a xlink:href="classuiODVolrenAttribTreeItem.html" target="_top" xlink:title="uiODVolrenAttribTreeItem">
<polygon fill="white" stroke="black" points="489.5,-0.5 489.5,-21.5 618.5,-21.5 618.5,-0.5 489.5,-0.5"/>
<text text-anchor="middle" x="554" y="-8.5" font-family="Helvetica,sans-Serif" font-size="10.00">uiODVolrenAttribTreeItem</text>
</a>
</g>
<!-- Node1&#45;&gt;Node9 -->
<g id="edge16" class="edge"><title>Node1&#45;&gt;Node9</title>
<path fill="none" stroke="midnightblue" d="M407.244,-79.6632C423.917,-64.7188 449.886,-43.6143 476,-31 483.805,-27.23 492.404,-24.113 500.955,-21.5538"/>
<polygon fill="midnightblue" stroke="midnightblue" points="404.855,-77.1048 399.845,-86.4405 409.583,-82.2665 404.855,-77.1048"/>
</g>
<!-- Node2 -->
<g id="node2" class="node"><title>Node2</title>
<a xlink:href="classuiODDataTreeItem.html" target="_top" xlink:title="uiODDataTreeItem">
<polygon fill="white" stroke="black" points="202.5,-86.5 202.5,-107.5 301.5,-107.5 301.5,-86.5 202.5,-86.5"/>
<text text-anchor="middle" x="252" y="-94.5" font-family="Helvetica,sans-Serif" font-size="10.00">uiODDataTreeItem</text>
</a>
</g>
<!-- Node2&#45;&gt;Node1 -->
<g id="edge2" class="edge"><title>Node2&#45;&gt;Node1</title>
<path fill="none" stroke="midnightblue" d="M311.944,-97C320.646,-97 329.536,-97 338.04,-97"/>
<polygon fill="midnightblue" stroke="midnightblue" points="311.848,-93.5001 301.848,-97 311.848,-100.5 311.848,-93.5001"/>
</g>
<!-- Node3 -->
<g id="node4" class="node"><title>Node3</title>
<a xlink:href="classuiTreeItem.html" target="_top" xlink:title="uiTreeItem">
<polygon fill="white" stroke="black" points="102.5,-86.5 102.5,-107.5 165.5,-107.5 165.5,-86.5 102.5,-86.5"/>
<text text-anchor="middle" x="134" y="-94.5" font-family="Helvetica,sans-Serif" font-size="10.00">uiTreeItem</text>
</a>
</g>
<!-- Node3&#45;&gt;Node2 -->
<g id="edge4" class="edge"><title>Node3&#45;&gt;Node2</title>
<path fill="none" stroke="midnightblue" d="M175.827,-97C184.458,-97 193.626,-97 202.5,-97"/>
<polygon fill="midnightblue" stroke="midnightblue" points="175.622,-93.5001 165.622,-97 175.622,-100.5 175.622,-93.5001"/>
</g>
<!-- Node4 -->
<g id="node6" class="node"><title>Node4</title>
<a xlink:href="classCallBacker.html" target="_top" xlink:title="To be able to send and/or receive CallBacks, inherit from this class. ">
<polygon fill="white" stroke="black" points="0.5,-86.5 0.5,-107.5 65.5,-107.5 65.5,-86.5 0.5,-86.5"/>
<text text-anchor="middle" x="33" y="-94.5" font-family="Helvetica,sans-Serif" font-size="10.00">CallBacker</text>
</a>
</g>
<!-- Node4&#45;&gt;Node3 -->
<g id="edge6" class="edge"><title>Node4&#45;&gt;Node3</title>
<path fill="none" stroke="midnightblue" d="M75.7263,-97C84.6133,-97 93.8294,-97 102.238,-97"/>
<polygon fill="midnightblue" stroke="midnightblue" points="75.513,-93.5001 65.513,-97 75.513,-100.5 75.513,-93.5001"/>
</g>
</g>
</svg>
