<?xml version="1.0" encoding="UTF-8" standalone="no"?>
<!DOCTYPE svg PUBLIC "-//W3C//DTD SVG 1.1//EN"
 "http://www.w3.org/Graphics/SVG/1.1/DTD/svg11.dtd">
<!-- Generated by graphviz version 2.26.0 (20091210.2329)
 -->
<!-- Title: uiODVw2DTreeItem Pages: 1 -->
<svg width="534pt" height="550pt"
 viewBox="0.00 0.00 534.00 550.00" xmlns="http://www.w3.org/2000/svg" xmlns:xlink="http://www.w3.org/1999/xlink">
<g id="graph1" class="graph" transform="scale(1 1) rotate(0) translate(4 546)">
<title>uiODVw2DTreeItem</title>
<polygon fill="white" stroke="white" points="-4,5 -4,-546 531,-546 531,5 -4,5"/>
<!-- Node1 -->
<g id="node1" class="node"><title>Node1</title>
<polygon fill="#bfbfbf" stroke="black" points="202.5,-260.5 202.5,-281.5 307.5,-281.5 307.5,-260.5 202.5,-260.5"/>
<text text-anchor="middle" x="255" y="-268.5" font-family="Helvetica,sans-Serif" font-size="10.00">uiODVw2DTreeItem</text>
</g>
<!-- Node4 -->
<g id="node7" class="node"><title>Node4</title>
<a xlink:href="classuiODVw2DFaultParentTreeItem.html" target="_top" xlink:title="uiODVw2DFaultParentTreeItem">
<polygon fill="white" stroke="black" points="357.5,-520.5 357.5,-541.5 512.5,-541.5 512.5,-520.5 357.5,-520.5"/>
<text text-anchor="middle" x="435" y="-528.5" font-family="Helvetica,sans-Serif" font-size="10.00">uiODVw2DFaultParentTreeItem</text>
</a>
</g>
<!-- Node1&#45;&gt;Node4 -->
<g id="edge6" class="edge"><title>Node1&#45;&gt;Node4</title>
<path fill="none" stroke="midnightblue" d="M256.259,-291.724C260.265,-338.457 276.789,-452.524 344,-511 348.271,-514.716 353.075,-517.79 358.187,-520.328"/>
<polygon fill="midnightblue" stroke="midnightblue" points="259.738,-291.317 255.502,-281.606 252.758,-291.839 259.738,-291.317"/>
</g>
<!-- Node5 -->
<g id="node9" class="node"><title>Node5</title>
<a xlink:href="classuiODVw2DFaultSS2DParentTreeItem.html" target="_top" xlink:title="uiODVw2DFaultSS2DParentTreeItem">
<polygon fill="white" stroke="black" points="344,-480.5 344,-501.5 526,-501.5 526,-480.5 344,-480.5"/>
<text text-anchor="middle" x="435" y="-488.5" font-family="Helvetica,sans-Serif" font-size="10.00">uiODVw2DFaultSS2DParentTreeItem</text>
</a>
</g>
<!-- Node1&#45;&gt;Node5 -->
<g id="edge8" class="edge"><title>Node1&#45;&gt;Node5</title>
<path fill="none" stroke="midnightblue" d="M257.958,-291.606C264.968,-332.529 286.539,-424.131 344,-471 348.638,-474.783 353.836,-477.89 359.336,-480.438"/>
<polygon fill="midnightblue" stroke="midnightblue" points="261.409,-291.027 256.38,-281.702 254.497,-292.128 261.409,-291.027"/>
</g>
<!-- Node6 -->
<g id="node11" class="node"><title>Node6</title>
<a xlink:href="classuiODVw2DFaultSS2DTreeItem.html" target="_top" xlink:title="uiODVw2DFaultSS2DTreeItem">
<polygon fill="white" stroke="black" points="358.5,-440.5 358.5,-461.5 511.5,-461.5 511.5,-440.5 358.5,-440.5"/>
<text text-anchor="middle" x="435" y="-448.5" font-family="Helvetica,sans-Serif" font-size="10.00">uiODVw2DFaultSS2DTreeItem</text>
</a>
</g>
<!-- Node1&#45;&gt;Node6 -->
<g id="edge10" class="edge"><title>Node1&#45;&gt;Node6</title>
<path fill="none" stroke="midnightblue" d="M260.406,-291.491C270.618,-325.99 296.14,-395.384 344,-431 349.061,-434.766 354.692,-437.849 360.602,-440.369"/>
<polygon fill="midnightblue" stroke="midnightblue" points="263.701,-290.278 257.619,-281.603 256.963,-292.177 263.701,-290.278"/>
</g>
<!-- Node7 -->
<g id="node13" class="node"><title>Node7</title>
<a xlink:href="classuiODVw2DFaultSSParentTreeItem.html" target="_top" xlink:title="uiODVw2DFaultSSParentTreeItem">
<polygon fill="white" stroke="black" points="350.5,-400.5 350.5,-421.5 519.5,-421.5 519.5,-400.5 350.5,-400.5"/>
<text text-anchor="middle" x="435" y="-408.5" font-family="Helvetica,sans-Serif" font-size="10.00">uiODVw2DFaultSSParentTreeItem</text>
</a>
</g>
<!-- Node1&#45;&gt;Node7 -->
<g id="edge12" class="edge"><title>Node1&#45;&gt;Node7</title>
<path fill="none" stroke="midnightblue" d="M264.107,-290.945C277.56,-318.051 305.385,-366.004 344,-391 349.839,-394.78 356.284,-397.854 362.966,-400.353"/>
<polygon fill="midnightblue" stroke="midnightblue" points="267.139,-289.173 259.662,-281.668 260.826,-292.198 267.139,-289.173"/>
</g>
<!-- Node8 -->
<g id="node15" class="node"><title>Node8</title>
<a xlink:href="classuiODVw2DFaultSSTreeItem.html" target="_top" xlink:title="uiODVw2DFaultSSTreeItem">
<polygon fill="white" stroke="black" points="365,-360.5 365,-381.5 505,-381.5 505,-360.5 365,-360.5"/>
<text text-anchor="middle" x="435" y="-368.5" font-family="Helvetica,sans-Serif" font-size="10.00">uiODVw2DFaultSSTreeItem</text>
</a>
</g>
<!-- Node1&#45;&gt;Node8 -->
<g id="edge14" class="edge"><title>Node1&#45;&gt;Node8</title>
<path fill="none" stroke="midnightblue" d="M270.288,-289.461C286.611,-307.918 314.188,-335.696 344,-351 351.483,-354.841 359.681,-357.947 367.994,-360.458"/>
<polygon fill="midnightblue" stroke="midnightblue" points="272.792,-287.005 263.613,-281.715 267.49,-291.575 272.792,-287.005"/>
</g>
<!-- Node9 -->
<g id="node17" class="node"><title>Node9</title>
<a xlink:href="classuiODVw2DFaultTreeItem.html" target="_top" xlink:title="uiODVw2DFaultTreeItem">
<polygon fill="white" stroke="black" points="371.5,-320.5 371.5,-341.5 498.5,-341.5 498.5,-320.5 371.5,-320.5"/>
<text text-anchor="middle" x="435" y="-328.5" font-family="Helvetica,sans-Serif" font-size="10.00">uiODVw2DFaultTreeItem</text>
</a>
</g>
<!-- Node1&#45;&gt;Node9 -->
<g id="edge16" class="edge"><title>Node1&#45;&gt;Node9</title>
<path fill="none" stroke="midnightblue" d="M284.774,-286.24C301.779,-294.469 323.698,-304.287 344,-311 354.904,-314.606 366.759,-317.75 378.2,-320.411"/>
<polygon fill="midnightblue" stroke="midnightblue" points="285.896,-282.891 275.378,-281.614 282.804,-289.171 285.896,-282.891"/>
</g>
<!-- Node10 -->
<g id="node19" class="node"><title>Node10</title>
<a xlink:href="classuiODVw2DHor2DParentTreeItem.html" target="_top" xlink:title="uiODVw2DHor2DParentTreeItem">
<polygon fill="white" stroke="black" points="354,-280.5 354,-301.5 516,-301.5 516,-280.5 354,-280.5"/>
<text text-anchor="middle" x="435" y="-288.5" font-family="Helvetica,sans-Serif" font-size="10.00">uiODVw2DHor2DParentTreeItem</text>
</a>
</g>
<!-- Node1&#45;&gt;Node10 -->
<g id="edge18" class="edge"><title>Node1&#45;&gt;Node10</title>
<path fill="none" stroke="midnightblue" d="M317.643,-277.96C329.357,-279.262 341.754,-280.639 353.931,-281.992"/>
<polygon fill="midnightblue" stroke="midnightblue" points="317.873,-274.464 307.547,-276.839 317.1,-281.422 317.873,-274.464"/>
</g>
<!-- Node11 -->
<g id="node21" class="node"><title>Node11</title>
<a xlink:href="classuiODVw2DHor2DTreeItem.html" target="_top" xlink:title="uiODVw2DHor2DTreeItem">
<polygon fill="white" stroke="black" points="368,-240.5 368,-261.5 502,-261.5 502,-240.5 368,-240.5"/>
<text text-anchor="middle" x="435" y="-248.5" font-family="Helvetica,sans-Serif" font-size="10.00">uiODVw2DHor2DTreeItem</text>
</a>
</g>
<!-- Node1&#45;&gt;Node11 -->
<g id="edge20" class="edge"><title>Node1&#45;&gt;Node11</title>
<path fill="none" stroke="midnightblue" d="M317.501,-264.055C333.798,-262.245 351.426,-260.286 367.949,-258.45"/>
<polygon fill="midnightblue" stroke="midnightblue" points="317.1,-260.578 307.547,-265.161 317.873,-267.536 317.1,-260.578"/>
</g>
<!-- Node12 -->
<g id="node23" class="node"><title>Node12</title>
<a xlink:href="classuiODVw2DHor3DParentTreeItem.html" target="_top" xlink:title="uiODVw2DHor3DParentTreeItem">
<polygon fill="white" stroke="black" points="354,-200.5 354,-221.5 516,-221.5 516,-200.5 354,-200.5"/>
<text text-anchor="middle" x="435" y="-208.5" font-family="Helvetica,sans-Serif" font-size="10.00">uiODVw2DHor3DParentTreeItem</text>
</a>
</g>
<!-- Node1&#45;&gt;Node12 -->
<g id="edge22" class="edge"><title>Node1&#45;&gt;Node12</title>
<path fill="none" stroke="midnightblue" d="M284.774,-255.76C301.779,-247.531 323.698,-237.713 344,-231 354.904,-227.394 366.759,-224.25 378.2,-221.589"/>
<polygon fill="midnightblue" stroke="midnightblue" points="282.804,-252.829 275.378,-260.386 285.896,-259.109 282.804,-252.829"/>
</g>
<!-- Node13 -->
<g id="node25" class="node"><title>Node13</title>
<a xlink:href="classuiODVw2DHor3DTreeItem.html" target="_top" xlink:title="uiODVw2DHor3DTreeItem">
<polygon fill="white" stroke="black" points="368,-160.5 368,-181.5 502,-181.5 502,-160.5 368,-160.5"/>
<text text-anchor="middle" x="435" y="-168.5" font-family="Helvetica,sans-Serif" font-size="10.00">uiODVw2DHor3DTreeItem</text>
</a>
</g>
<!-- Node1&#45;&gt;Node13 -->
<g id="edge24" class="edge"><title>Node1&#45;&gt;Node13</title>
<path fill="none" stroke="midnightblue" d="M270.288,-252.539C286.611,-234.082 314.188,-206.304 344,-191 351.483,-187.159 359.681,-184.053 367.994,-181.542"/>
<polygon fill="midnightblue" stroke="midnightblue" points="267.49,-250.425 263.613,-260.285 272.792,-254.995 267.49,-250.425"/>
</g>
<!-- Node14 -->
<g id="node27" class="node"><title>Node14</title>
<a xlink:href="classuiODVw2DPickSetParentTreeItem.html" target="_top" xlink:title="uiODVw2DPickSetParentTreeItem">
<polygon fill="white" stroke="black" points="351,-120.5 351,-141.5 519,-141.5 519,-120.5 351,-120.5"/>
<text text-anchor="middle" x="435" y="-128.5" font-family="Helvetica,sans-Serif" font-size="10.00">uiODVw2DPickSetParentTreeItem</text>
</a>
</g>
<!-- Node1&#45;&gt;Node14 -->
<g id="edge26" class="edge"><title>Node1&#45;&gt;Node14</title>
<path fill="none" stroke="midnightblue" d="M264.107,-251.055C277.56,-223.949 305.385,-175.996 344,-151 349.839,-147.22 356.284,-144.146 362.966,-141.647"/>
<polygon fill="midnightblue" stroke="midnightblue" points="260.826,-249.802 259.662,-260.332 267.139,-252.827 260.826,-249.802"/>
</g>
<!-- Node15 -->
<g id="node29" class="node"><title>Node15</title>
<a xlink:href="classuiODVw2DPickSetTreeItem.html" target="_top" xlink:title="uiODVw2DPickSetTreeItem">
<polygon fill="white" stroke="black" points="365,-80.5 365,-101.5 505,-101.5 505,-80.5 365,-80.5"/>
<text text-anchor="middle" x="435" y="-88.5" font-family="Helvetica,sans-Serif" font-size="10.00">uiODVw2DPickSetTreeItem</text>
</a>
</g>
<!-- Node1&#45;&gt;Node15 -->
<g id="edge28" class="edge"><title>Node1&#45;&gt;Node15</title>
<path fill="none" stroke="midnightblue" d="M260.406,-250.509C270.618,-216.01 296.14,-146.616 344,-111 350.229,-106.365 357.321,-102.765 364.734,-99.9743"/>
<polygon fill="midnightblue" stroke="midnightblue" points="256.963,-249.823 257.619,-260.397 263.701,-251.722 256.963,-249.823"/>
</g>
<!-- Node16 -->
<g id="node31" class="node"><title>Node16</title>
<a xlink:href="classuiODVW2DVariableDensityTreeItem.html" target="_top" xlink:title="uiODVW2DVariableDensityTreeItem">
<polygon fill="white" stroke="black" points="347,-40.5 347,-61.5 523,-61.5 523,-40.5 347,-40.5"/>
<text text-anchor="middle" x="435" y="-48.5" font-family="Helvetica,sans-Serif" font-size="10.00">uiODVW2DVariableDensityTreeItem</text>
</a>
</g>
<!-- Node1&#45;&gt;Node16 -->
<g id="edge30" class="edge"><title>Node1&#45;&gt;Node16</title>
<path fill="none" stroke="midnightblue" d="M257.958,-250.394C264.968,-209.471 286.539,-117.869 344,-71 348.638,-67.217 353.836,-64.1098 359.336,-61.562"/>
<polygon fill="midnightblue" stroke="midnightblue" points="254.497,-249.872 256.38,-260.298 261.409,-250.973 254.497,-249.872"/>
</g>
<!-- Node17 -->
<g id="node33" class="node"><title>Node17</title>
<a xlink:href="classuiODVW2DWiggleVarAreaTreeItem.html" target="_top" xlink:title="uiODVW2DWiggleVarAreaTreeItem">
<polygon fill="white" stroke="black" points="348.5,-0.5 348.5,-21.5 521.5,-21.5 521.5,-0.5 348.5,-0.5"/>
<text text-anchor="middle" x="435" y="-8.5" font-family="Helvetica,sans-Serif" font-size="10.00">uiODVW2DWiggleVarAreaTreeItem</text>
</a>
</g>
<!-- Node1&#45;&gt;Node17 -->
<g id="edge32" class="edge"><title>Node1&#45;&gt;Node17</title>
<path fill="none" stroke="midnightblue" d="M256.259,-250.276C260.265,-203.543 276.789,-89.4756 344,-31 348.271,-27.2839 353.075,-24.2101 358.187,-21.6724"/>
<polygon fill="midnightblue" stroke="midnightblue" points="252.758,-250.161 255.502,-260.394 259.738,-250.683 252.758,-250.161"/>
</g>
<!-- Node2 -->
<g id="node2" class="node"><title>Node2</title>
<a xlink:href="classuiTreeItem.html" target="_top" xlink:title="uiTreeItem">
<polygon fill="white" stroke="black" points="102.5,-260.5 102.5,-281.5 165.5,-281.5 165.5,-260.5 102.5,-260.5"/>
<text text-anchor="middle" x="134" y="-268.5" font-family="Helvetica,sans-Serif" font-size="10.00">uiTreeItem</text>
</a>
</g>
<!-- Node2&#45;&gt;Node1 -->
<g id="edge2" class="edge"><title>Node2&#45;&gt;Node1</title>
<path fill="none" stroke="midnightblue" d="M175.883,-271C184.422,-271 193.509,-271 202.368,-271"/>
<polygon fill="midnightblue" stroke="midnightblue" points="175.791,-267.5 165.791,-271 175.791,-274.5 175.791,-267.5"/>
</g>
<!-- Node3 -->
<g id="node4" class="node"><title>Node3</title>
<a xlink:href="classCallBacker.html" target="_top" xlink:title="To be able to send and/or receive CallBacks, inherit from this class. ">
<polygon fill="white" stroke="black" points="0.5,-260.5 0.5,-281.5 65.5,-281.5 65.5,-260.5 0.5,-260.5"/>
<text text-anchor="middle" x="33" y="-268.5" font-family="Helvetica,sans-Serif" font-size="10.00">CallBacker</text>
</a>
</g>
<!-- Node3&#45;&gt;Node2 -->
<g id="edge4" class="edge"><title>Node3&#45;&gt;Node2</title>
<path fill="none" stroke="midnightblue" d="M75.7263,-271C84.6133,-271 93.8294,-271 102.238,-271"/>
<polygon fill="midnightblue" stroke="midnightblue" points="75.513,-267.5 65.513,-271 75.513,-274.5 75.513,-267.5"/>
</g>
</g>
</svg>
