<?xml version="1.0" encoding="UTF-8" standalone="no"?>
<!DOCTYPE svg PUBLIC "-//W3C//DTD SVG 1.1//EN"
 "http://www.w3.org/Graphics/SVG/1.1/DTD/svg11.dtd">
<!-- Generated by graphviz version 2.26.0 (20091210.2329)
 -->
<!-- Title: visBase::TextureChannel2RGBA Pages: 1 -->
<svg width="644pt" height="122pt"
 viewBox="0.00 0.00 644.00 122.00" xmlns="http://www.w3.org/2000/svg" xmlns:xlink="http://www.w3.org/1999/xlink">
<g id="graph1" class="graph" transform="scale(1 1) rotate(0) translate(4 118)">
<title>visBase::TextureChannel2RGBA</title>
<polygon fill="white" stroke="white" points="-4,5 -4,-118 641,-118 641,5 -4,5"/>
<!-- Node1 -->
<g id="node1" class="node"><title>Node1</title>
<polygon fill="#bfbfbf" stroke="black" points="246.5,-52.5 246.5,-73.5 407.5,-73.5 407.5,-52.5 246.5,-52.5"/>
<text text-anchor="middle" x="327" y="-60.5" font-family="Helvetica,sans-Serif" font-size="10.00">visBase::TextureChannel2RGBA</text>
</g>
<!-- Node4 -->
<g id="node7" class="node"><title>Node4</title>
<a xlink:href="classvisBase_1_1ColTabTextureChannel2RGBA.html" target="_top" xlink:title="visBase::ColTabTextureChannel2RGBA">
<polygon fill="white" stroke="black" points="444,-92.5 444,-113.5 636,-113.5 636,-92.5 444,-92.5"/>
<text text-anchor="middle" x="540" y="-100.5" font-family="Helvetica,sans-Serif" font-size="10.00">visBase::ColTabTextureChannel2RGBA</text>
</a>
</g>
<!-- Node1&#45;&gt;Node4 -->
<g id="edge6" class="edge"><title>Node1&#45;&gt;Node4</title>
<path fill="none" stroke="midnightblue" d="M393.064,-75.4063C422.229,-80.8834 456.146,-87.2528 484.041,-92.4913"/>
<polygon fill="midnightblue" stroke="midnightblue" points="393.437,-71.9154 382.963,-73.5095 392.145,-78.7951 393.437,-71.9154"/>
</g>
<!-- Node5 -->
<g id="node9" class="node"><title>Node5</title>
<a xlink:href="classvisBase_1_1RGBATextureChannel2RGBA.html" target="_top" xlink:title="visBase::RGBATextureChannel2RGBA">
<polygon fill="white" stroke="black" points="445.5,-52.5 445.5,-73.5 634.5,-73.5 634.5,-52.5 445.5,-52.5"/>
<text text-anchor="middle" x="540" y="-60.5" font-family="Helvetica,sans-Serif" font-size="10.00">visBase::RGBATextureChannel2RGBA</text>
</a>
</g>
<!-- Node1&#45;&gt;Node5 -->
<g id="edge8" class="edge"><title>Node1&#45;&gt;Node5</title>
<path fill="none" stroke="midnightblue" d="M417.77,-63C426.916,-63 436.22,-63 445.405,-63"/>
<polygon fill="midnightblue" stroke="midnightblue" points="417.526,-59.5001 407.526,-63 417.526,-66.5001 417.526,-59.5001"/>
</g>
<!-- Node6 -->
<g id="node11" class="node"><title>Node6</title>
<a xlink:href="classvisBase_1_1TextureChannel2VolData.html" target="_top" xlink:title="visBase::TextureChannel2\lVolData">
<polygon fill="white" stroke="black" points="474,-0 474,-34 606,-34 606,-0 474,-0"/>
<text text-anchor="start" x="482" y="-21" font-family="Helvetica,sans-Serif" font-size="10.00">visBase::TextureChannel2</text>
<text text-anchor="middle" x="540" y="-8" font-family="Helvetica,sans-Serif" font-size="10.00">VolData</text>
</a>
</g>
<!-- Node1&#45;&gt;Node6 -->
<g id="edge10" class="edge"><title>Node1&#45;&gt;Node6</title>
<path fill="none" stroke="midnightblue" d="M385.652,-50.3333C412.91,-44.4466 445.447,-37.4198 473.605,-31.3389"/>
<polygon fill="midnightblue" stroke="midnightblue" points="384.902,-46.9145 375.867,-52.4467 386.38,-53.7568 384.902,-46.9145"/>
</g>
<!-- Node2 -->
<g id="node2" class="node"><title>Node2</title>
<a xlink:href="classvisBase_1_1DataObject.html" target="_top" xlink:title="DataObject is the base class off all objects that are used in Visualization and ought to be shared in...">
<polygon fill="white" stroke="black" points="102.5,-52.5 102.5,-73.5 209.5,-73.5 209.5,-52.5 102.5,-52.5"/>
<text text-anchor="middle" x="156" y="-60.5" font-family="Helvetica,sans-Serif" font-size="10.00">visBase::DataObject</text>
</a>
</g>
<!-- Node2&#45;&gt;Node1 -->
<g id="edge2" class="edge"><title>Node2&#45;&gt;Node1</title>
<path fill="none" stroke="midnightblue" d="M219.666,-63C228.356,-63 237.369,-63 246.311,-63"/>
<polygon fill="midnightblue" stroke="midnightblue" points="219.636,-59.5001 209.636,-63 219.636,-66.5001 219.636,-59.5001"/>
</g>
<!-- Node3 -->
<g id="node4" class="node"><title>Node3</title>
<a xlink:href="classCallBacker.html" target="_top" xlink:title="To be able to send and/or receive CallBacks, inherit from this class. ">
<polygon fill="white" stroke="black" points="0.5,-52.5 0.5,-73.5 65.5,-73.5 65.5,-52.5 0.5,-52.5"/>
<text text-anchor="middle" x="33" y="-60.5" font-family="Helvetica,sans-Serif" font-size="10.00">CallBacker</text>
</a>
</g>
<!-- Node3&#45;&gt;Node2 -->
<g id="edge4" class="edge"><title>Node3&#45;&gt;Node2</title>
<path fill="none" stroke="midnightblue" d="M75.757,-63C84.311,-63 93.4,-63 102.27,-63"/>
<polygon fill="midnightblue" stroke="midnightblue" points="75.6389,-59.5001 65.6388,-63 75.6388,-66.5001 75.6389,-59.5001"/>
</g>
</g>
</svg>
