<?xml version="1.0" encoding="UTF-8" standalone="no"?>
<!DOCTYPE svg PUBLIC "-//W3C//DTD SVG 1.1//EN"
 "http://www.w3.org/Graphics/SVG/1.1/DTD/svg11.dtd">
<!-- Generated by graphviz version 2.26.0 (20091210.2329)
 -->
<!-- Title: uiMenu Pages: 1 -->
<svg width="194pt" height="88pt"
 viewBox="0.00 0.00 194.00 88.00" xmlns="http://www.w3.org/2000/svg" xmlns:xlink="http://www.w3.org/1999/xlink">
<g id="graph1" class="graph" transform="scale(1 1) rotate(0) translate(4 84)">
<title>uiMenu</title>
<polygon fill="white" stroke="white" points="-4,5 -4,-84 191,-84 191,5 -4,5"/>
<!-- Node1 -->
<g id="node1" class="node"><title>Node1</title>
<polygon fill="#bfbfbf" stroke="black" points="74,-0.5 74,-21.5 122,-21.5 122,-0.5 74,-0.5"/>
<text text-anchor="middle" x="98" y="-8.5" font-family="Helvetica,sans-Serif" font-size="10.00">uiMenu</text>
</g>
<!-- Node2 -->
<g id="node2" class="node"><title>Node2</title>
<a xlink:href="classuiActionContainer.html" target="_top" xlink:title="uiActionContainer">
<polygon fill="white" stroke="black" points="0,-58.5 0,-79.5 94,-79.5 94,-58.5 0,-58.5"/>
<text text-anchor="middle" x="47" y="-66.5" font-family="Helvetica,sans-Serif" font-size="10.00">uiActionContainer</text>
</a>
</g>
<!-- Node2&#45;&gt;Node1 -->
<g id="edge2" class="edge"><title>Node2&#45;&gt;Node1</title>
<path fill="none" stroke="midnightblue" d="M62.9771,-50.8299C71.4379,-41.2078 81.5321,-29.7282 88.7051,-21.5707"/>
<polygon fill="midnightblue" stroke="midnightblue" points="60.3292,-48.541 56.3542,-58.3619 65.586,-53.1634 60.3292,-48.541"/>
</g>
<!-- Node3 -->
<g id="node4" class="node"><title>Node3</title>
<polygon fill="white" stroke="#bfbfbf" points="111.5,-58.5 111.5,-79.5 186.5,-79.5 186.5,-58.5 111.5,-58.5"/>
<text text-anchor="middle" x="149" y="-66.5" font-family="Helvetica,sans-Serif" font-size="10.00">uiBaseObject</text>
</g>
<!-- Node3&#45;&gt;Node1 -->
<g id="edge4" class="edge"><title>Node3&#45;&gt;Node1</title>
<path fill="none" stroke="midnightblue" d="M133.023,-50.8299C124.562,-41.2078 114.468,-29.7282 107.295,-21.5707"/>
<polygon fill="midnightblue" stroke="midnightblue" points="130.414,-53.1634 139.646,-58.3619 135.671,-48.541 130.414,-53.1634"/>
</g>
</g>
</svg>
