<?xml version="1.0" encoding="UTF-8" standalone="no"?>
<!DOCTYPE svg PUBLIC "-//W3C//DTD SVG 1.1//EN"
 "http://www.w3.org/Graphics/SVG/1.1/DTD/svg11.dtd">
<!-- Generated by graphviz version 2.26.0 (20091210.2329)
 -->
<!-- Title: uiSliceSel Pages: 1 -->
<svg width="146pt" height="276pt"
 viewBox="0.00 0.00 146.00 276.00" xmlns="http://www.w3.org/2000/svg" xmlns:xlink="http://www.w3.org/1999/xlink">
<g id="graph1" class="graph" transform="scale(1 1) rotate(0) translate(4 272)">
<title>uiSliceSel</title>
<polygon fill="white" stroke="white" points="-4,5 -4,-272 143,-272 143,5 -4,5"/>
<!-- Node1 -->
<g id="node1" class="node"><title>Node1</title>
<polygon fill="#bfbfbf" stroke="black" points="39,-72.5 39,-93.5 99,-93.5 99,-72.5 39,-72.5"/>
<text text-anchor="middle" x="69" y="-80.5" font-family="Helvetica,sans-Serif" font-size="10.00">uiSliceSel</text>
</g>
<!-- Node5 -->
<g id="node9" class="node"><title>Node5</title>
<a xlink:href="classPreStackView_1_1uiGatherPosSliceSel.html" target="_top" xlink:title="PreStackView::uiGatherPos\lSliceSel">
<polygon fill="white" stroke="black" points="-0.5,-1 -0.5,-35 138.5,-35 138.5,-1 -0.5,-1"/>
<text text-anchor="start" x="7.5" y="-22" font-family="Helvetica,sans-Serif" font-size="10.00">PreStackView::uiGatherPos</text>
<text text-anchor="middle" x="69" y="-9" font-family="Helvetica,sans-Serif" font-size="10.00">SliceSel</text>
</a>
</g>
<!-- Node1&#45;&gt;Node5 -->
<g id="edge8" class="edge"><title>Node1&#45;&gt;Node5</title>
<path fill="none" stroke="midnightblue" d="M69,-62.1306C69,-53.4049 69,-43.3908 69,-35.1099"/>
<polygon fill="midnightblue" stroke="midnightblue" points="65.5001,-62.2665 69,-72.2666 72.5001,-62.2666 65.5001,-62.2665"/>
</g>
<!-- Node2 -->
<g id="node2" class="node"><title>Node2</title>
<a xlink:href="classuiGroup.html" target="_top" xlink:title="uiGroup">
<polygon fill="white" stroke="black" points="44,-130.5 44,-151.5 94,-151.5 94,-130.5 44,-130.5"/>
<text text-anchor="middle" x="69" y="-138.5" font-family="Helvetica,sans-Serif" font-size="10.00">uiGroup</text>
</a>
</g>
<!-- Node2&#45;&gt;Node1 -->
<g id="edge2" class="edge"><title>Node2&#45;&gt;Node1</title>
<path fill="none" stroke="midnightblue" d="M69,-120.191C69,-111.168 69,-100.994 69,-93.5707"/>
<polygon fill="midnightblue" stroke="midnightblue" points="65.5001,-120.362 69,-130.362 72.5001,-120.362 65.5001,-120.362"/>
</g>
<!-- Node3 -->
<g id="node4" class="node"><title>Node3</title>
<a xlink:href="classuiParent.html" target="_top" xlink:title="uiParent">
<polygon fill="white" stroke="black" points="42.5,-188.5 42.5,-209.5 95.5,-209.5 95.5,-188.5 42.5,-188.5"/>
<text text-anchor="middle" x="69" y="-196.5" font-family="Helvetica,sans-Serif" font-size="10.00">uiParent</text>
</a>
</g>
<!-- Node3&#45;&gt;Node2 -->
<g id="edge4" class="edge"><title>Node3&#45;&gt;Node2</title>
<path fill="none" stroke="midnightblue" d="M69,-178.191C69,-169.168 69,-158.994 69,-151.571"/>
<polygon fill="midnightblue" stroke="midnightblue" points="65.5001,-178.362 69,-188.362 72.5001,-178.362 65.5001,-178.362"/>
</g>
<!-- Node4 -->
<g id="node6" class="node"><title>Node4</title>
<polygon fill="white" stroke="#bfbfbf" points="31.5,-246.5 31.5,-267.5 106.5,-267.5 106.5,-246.5 31.5,-246.5"/>
<text text-anchor="middle" x="69" y="-254.5" font-family="Helvetica,sans-Serif" font-size="10.00">uiBaseObject</text>
</g>
<!-- Node4&#45;&gt;Node3 -->
<g id="edge6" class="edge"><title>Node4&#45;&gt;Node3</title>
<path fill="none" stroke="midnightblue" d="M69,-236.191C69,-227.168 69,-216.994 69,-209.571"/>
<polygon fill="midnightblue" stroke="midnightblue" points="65.5001,-236.362 69,-246.362 72.5001,-236.362 65.5001,-236.362"/>
</g>
</g>
</svg>
