<?xml version="1.0" encoding="UTF-8" standalone="no"?>
<!DOCTYPE svg PUBLIC "-//W3C//DTD SVG 1.1//EN"
 "http://www.w3.org/Graphics/SVG/1.1/DTD/svg11.dtd">
<!-- Generated by graphviz version 2.26.0 (20091210.2329)
 -->
<!-- Title: ArrayNDImpl&lt; T &gt; Pages: 1 -->
<svg width="208pt" height="162pt"
 viewBox="0.00 0.00 208.00 162.00" xmlns="http://www.w3.org/2000/svg" xmlns:xlink="http://www.w3.org/1999/xlink">
<g id="graph1" class="graph" transform="scale(1 1) rotate(0) translate(4 158)">
<title>ArrayNDImpl&lt; T &gt;</title>
<polygon fill="white" stroke="white" points="-4,5 -4,-158 205,-158 205,5 -4,5"/>
<!-- Node1 -->
<g id="node1" class="node"><title>Node1</title>
<polygon fill="#bfbfbf" stroke="black" points="44,-72.5 44,-93.5 142,-93.5 142,-72.5 44,-72.5"/>
<text text-anchor="middle" x="93" y="-80.5" font-family="Helvetica,sans-Serif" font-size="10.00">ArrayNDImpl&lt; T &gt;</text>
</g>
<!-- Node4 -->
<g id="node7" class="node"><title>Node4</title>
<a xlink:href="classArrayNDImpl.html" target="_top" xlink:title="ArrayNDImpl\&lt; float \&gt;">
<polygon fill="white" stroke="black" points="38,-0.5 38,-21.5 148,-21.5 148,-0.5 38,-0.5"/>
<text text-anchor="middle" x="93" y="-8.5" font-family="Helvetica,sans-Serif" font-size="10.00">ArrayNDImpl&lt; float &gt;</text>
</a>
</g>
<!-- Node1&#45;&gt;Node4 -->
<g id="edge6" class="edge"><title>Node1&#45;&gt;Node4</title>
<path fill="none" stroke="orange" stroke-dasharray="5,2" d="M93,-62.2348C93,-48.969 93,-32.3188 93,-21.6674"/>
<polygon fill="orange" stroke="orange" points="89.5001,-62.3761 93,-72.3762 96.5001,-62.3762 89.5001,-62.3761"/>
<text text-anchor="middle" x="113" y="-44.5" font-family="Helvetica,sans-Serif" font-size="10.00"> &lt; float &gt;</text>
</g>
<!-- Node2 -->
<g id="node2" class="node"><title>Node2</title>
<a xlink:href="classArrayND.html" target="_top" xlink:title="An ArrayND is an array with a given number of dimensions and a size. ">
<polygon fill="white" stroke="black" points="-0.5,-132.5 -0.5,-153.5 78.5,-153.5 78.5,-132.5 -0.5,-132.5"/>
<text text-anchor="middle" x="39" y="-140.5" font-family="Helvetica,sans-Serif" font-size="10.00">ArrayND&lt; T &gt;</text>
</a>
</g>
<!-- Node2&#45;&gt;Node1 -->
<g id="edge2" class="edge"><title>Node2&#45;&gt;Node1</title>
<path fill="none" stroke="midnightblue" d="M55.4839,-124.685C64.6355,-114.516 75.6976,-102.225 83.4295,-93.6339"/>
<polygon fill="midnightblue" stroke="midnightblue" points="52.7423,-122.499 48.6541,-132.273 57.9453,-127.182 52.7423,-122.499"/>
</g>
<!-- Node3 -->
<g id="node4" class="node"><title>Node3</title>
<a xlink:href="classArrayImplBase.html" target="_top" xlink:title="ArrayImplBase\&lt; T \&gt;">
<polygon fill="white" stroke="black" points="95.5,-132.5 95.5,-153.5 200.5,-153.5 200.5,-132.5 95.5,-132.5"/>
<text text-anchor="middle" x="148" y="-140.5" font-family="Helvetica,sans-Serif" font-size="10.00">ArrayImplBase&lt; T &gt;</text>
</a>
</g>
<!-- Node3&#45;&gt;Node1 -->
<g id="edge4" class="edge"><title>Node3&#45;&gt;Node1</title>
<path fill="none" stroke="midnightblue" d="M131.211,-124.685C121.89,-114.516 110.623,-102.225 102.748,-93.6339"/>
<polygon fill="midnightblue" stroke="midnightblue" points="128.83,-127.267 138.167,-132.273 133.99,-122.537 128.83,-127.267"/>
</g>
</g>
</svg>
