<?xml version="1.0" encoding="UTF-8" standalone="no"?>
<!DOCTYPE svg PUBLIC "-//W3C//DTD SVG 1.1//EN"
 "http://www.w3.org/Graphics/SVG/1.1/DTD/svg11.dtd">
<!-- Generated by graphviz version 2.26.0 (20091210.2329)
 -->
<!-- Title: visSurvey::ArrowDisplay Pages: 1 -->
<svg width="282pt" height="320pt"
 viewBox="0.00 0.00 282.00 320.00" xmlns="http://www.w3.org/2000/svg" xmlns:xlink="http://www.w3.org/1999/xlink">
<g id="graph1" class="graph" transform="scale(1 1) rotate(0) translate(4 316)">
<title>visSurvey::ArrowDisplay</title>
<polygon fill="white" stroke="white" points="-4,5 -4,-316 279,-316 279,5 -4,5"/>
<!-- Node1 -->
<g id="node1" class="node"><title>Node1</title>
<polygon fill="#bfbfbf" stroke="black" points="76.5,-0.5 76.5,-21.5 201.5,-21.5 201.5,-0.5 76.5,-0.5"/>
<text text-anchor="middle" x="139" y="-8.5" font-family="Helvetica,sans-Serif" font-size="10.00">visSurvey::ArrowDisplay</text>
</g>
<!-- Node2 -->
<g id="node2" class="node"><title>Node2</title>
<a xlink:href="classvisSurvey_1_1LocationDisplay.html" target="_top" xlink:title="Used for displaying picksets of varying types. The class is not intended for standalone usage...">
<polygon fill="white" stroke="black" points="71,-58.5 71,-79.5 207,-79.5 207,-58.5 71,-58.5"/>
<text text-anchor="middle" x="139" y="-66.5" font-family="Helvetica,sans-Serif" font-size="10.00">visSurvey::LocationDisplay</text>
</a>
</g>
<!-- Node2&#45;&gt;Node1 -->
<g id="edge2" class="edge"><title>Node2&#45;&gt;Node1</title>
<path fill="none" stroke="midnightblue" d="M139,-48.1906C139,-39.1684 139,-28.9941 139,-21.5707"/>
<polygon fill="midnightblue" stroke="midnightblue" points="135.5,-48.3619 139,-58.3619 142.5,-48.3619 135.5,-48.3619"/>
</g>
<!-- Node3 -->
<g id="node4" class="node"><title>Node3</title>
<a xlink:href="classvisBase_1_1VisualObjectImpl.html" target="_top" xlink:title="visBase::VisualObjectImpl">
<polygon fill="white" stroke="black" points="0,-116.5 0,-137.5 132,-137.5 132,-116.5 0,-116.5"/>
<text text-anchor="middle" x="66" y="-124.5" font-family="Helvetica,sans-Serif" font-size="10.00">visBase::VisualObjectImpl</text>
</a>
</g>
<!-- Node3&#45;&gt;Node2 -->
<g id="edge4" class="edge"><title>Node3&#45;&gt;Node2</title>
<path fill="none" stroke="midnightblue" d="M87.4276,-109.975C99.8172,-100.132 115.018,-88.0545 125.696,-79.5707"/>
<polygon fill="midnightblue" stroke="midnightblue" points="85.0416,-107.401 79.3893,-116.362 89.3962,-112.881 85.0416,-107.401"/>
</g>
<!-- Node4 -->
<g id="node6" class="node"><title>Node4</title>
<a xlink:href="classvisBase_1_1VisualObject.html" target="_top" xlink:title="visBase::VisualObject">
<polygon fill="white" stroke="black" points="9.5,-174.5 9.5,-195.5 122.5,-195.5 122.5,-174.5 9.5,-174.5"/>
<text text-anchor="middle" x="66" y="-182.5" font-family="Helvetica,sans-Serif" font-size="10.00">visBase::VisualObject</text>
</a>
</g>
<!-- Node4&#45;&gt;Node3 -->
<g id="edge6" class="edge"><title>Node4&#45;&gt;Node3</title>
<path fill="none" stroke="midnightblue" d="M66,-164.191C66,-155.168 66,-144.994 66,-137.571"/>
<polygon fill="midnightblue" stroke="midnightblue" points="62.5001,-164.362 66,-174.362 69.5001,-164.362 62.5001,-164.362"/>
</g>
<!-- Node5 -->
<g id="node8" class="node"><title>Node5</title>
<a xlink:href="classvisBase_1_1DataObject.html" target="_top" xlink:title="DataObject is the base class off all objects that are used in Visualization and ought to be shared in...">
<polygon fill="white" stroke="black" points="12.5,-232.5 12.5,-253.5 119.5,-253.5 119.5,-232.5 12.5,-232.5"/>
<text text-anchor="middle" x="66" y="-240.5" font-family="Helvetica,sans-Serif" font-size="10.00">visBase::DataObject</text>
</a>
</g>
<!-- Node5&#45;&gt;Node4 -->
<g id="edge8" class="edge"><title>Node5&#45;&gt;Node4</title>
<path fill="none" stroke="midnightblue" d="M66,-222.191C66,-213.168 66,-202.994 66,-195.571"/>
<polygon fill="midnightblue" stroke="midnightblue" points="62.5001,-222.362 66,-232.362 69.5001,-222.362 62.5001,-222.362"/>
</g>
<!-- Node6 -->
<g id="node10" class="node"><title>Node6</title>
<a xlink:href="classCallBacker.html" target="_top" xlink:title="To be able to send and/or receive CallBacks, inherit from this class. ">
<polygon fill="white" stroke="black" points="33.5,-290.5 33.5,-311.5 98.5,-311.5 98.5,-290.5 33.5,-290.5"/>
<text text-anchor="middle" x="66" y="-298.5" font-family="Helvetica,sans-Serif" font-size="10.00">CallBacker</text>
</a>
</g>
<!-- Node6&#45;&gt;Node5 -->
<g id="edge10" class="edge"><title>Node6&#45;&gt;Node5</title>
<path fill="none" stroke="midnightblue" d="M66,-280.191C66,-271.168 66,-260.994 66,-253.571"/>
<polygon fill="midnightblue" stroke="midnightblue" points="62.5001,-280.362 66,-290.362 69.5001,-280.362 62.5001,-280.362"/>
</g>
<!-- Node7 -->
<g id="node12" class="node"><title>Node7</title>
<a xlink:href="classvisSurvey_1_1SurveyObject.html" target="_top" xlink:title="Base class for all &#39;Display&#39; objects. ">
<polygon fill="white" stroke="black" points="149.5,-116.5 149.5,-137.5 274.5,-137.5 274.5,-116.5 149.5,-116.5"/>
<text text-anchor="middle" x="212" y="-124.5" font-family="Helvetica,sans-Serif" font-size="10.00">visSurvey::SurveyObject</text>
</a>
</g>
<!-- Node7&#45;&gt;Node2 -->
<g id="edge12" class="edge"><title>Node7&#45;&gt;Node2</title>
<path fill="none" stroke="midnightblue" d="M190.572,-109.975C178.183,-100.132 162.982,-88.0545 152.304,-79.5707"/>
<polygon fill="midnightblue" stroke="midnightblue" points="188.604,-112.881 198.611,-116.362 192.958,-107.401 188.604,-112.881"/>
</g>
</g>
</svg>
