<?xml version="1.0" encoding="UTF-8" standalone="no"?>
<!DOCTYPE svg PUBLIC "-//W3C//DTD SVG 1.1//EN"
 "http://www.w3.org/Graphics/SVG/1.1/DTD/svg11.dtd">
<!-- Generated by graphviz version 2.26.0 (20091210.2329)
 -->
<!-- Title: uiInvDistHor3DInterpol Pages: 1 -->
<svg width="124pt" height="262pt"
 viewBox="0.00 0.00 124.00 262.00" xmlns="http://www.w3.org/2000/svg" xmlns:xlink="http://www.w3.org/1999/xlink">
<g id="graph1" class="graph" transform="scale(1 1) rotate(0) translate(4 258)">
<title>uiInvDistHor3DInterpol</title>
<polygon fill="white" stroke="white" points="-4,5 -4,-258 121,-258 121,5 -4,5"/>
<!-- Node1 -->
<g id="node1" class="node"><title>Node1</title>
<polygon fill="#bfbfbf" stroke="black" points="0,-0.5 0,-21.5 116,-21.5 116,-0.5 0,-0.5"/>
<text text-anchor="middle" x="58" y="-8.5" font-family="Helvetica,sans-Serif" font-size="10.00">uiInvDistHor3DInterpol</text>
</g>
<!-- Node2 -->
<g id="node2" class="node"><title>Node2</title>
<a xlink:href="classuiHor3DInterpol.html" target="_top" xlink:title="uiHor3DInterpol">
<polygon fill="white" stroke="black" points="15.5,-58.5 15.5,-79.5 100.5,-79.5 100.5,-58.5 15.5,-58.5"/>
<text text-anchor="middle" x="58" y="-66.5" font-family="Helvetica,sans-Serif" font-size="10.00">uiHor3DInterpol</text>
</a>
</g>
<!-- Node2&#45;&gt;Node1 -->
<g id="edge2" class="edge"><title>Node2&#45;&gt;Node1</title>
<path fill="none" stroke="midnightblue" d="M58,-48.1906C58,-39.1684 58,-28.9941 58,-21.5707"/>
<polygon fill="midnightblue" stroke="midnightblue" points="54.5001,-48.3619 58,-58.3619 61.5001,-48.3619 54.5001,-48.3619"/>
</g>
<!-- Node3 -->
<g id="node4" class="node"><title>Node3</title>
<a xlink:href="classuiGroup.html" target="_top" xlink:title="uiGroup">
<polygon fill="white" stroke="black" points="33,-116.5 33,-137.5 83,-137.5 83,-116.5 33,-116.5"/>
<text text-anchor="middle" x="58" y="-124.5" font-family="Helvetica,sans-Serif" font-size="10.00">uiGroup</text>
</a>
</g>
<!-- Node3&#45;&gt;Node2 -->
<g id="edge4" class="edge"><title>Node3&#45;&gt;Node2</title>
<path fill="none" stroke="midnightblue" d="M58,-106.191C58,-97.1684 58,-86.9941 58,-79.5707"/>
<polygon fill="midnightblue" stroke="midnightblue" points="54.5001,-106.362 58,-116.362 61.5001,-106.362 54.5001,-106.362"/>
</g>
<!-- Node4 -->
<g id="node6" class="node"><title>Node4</title>
<a xlink:href="classuiParent.html" target="_top" xlink:title="uiParent">
<polygon fill="white" stroke="black" points="31.5,-174.5 31.5,-195.5 84.5,-195.5 84.5,-174.5 31.5,-174.5"/>
<text text-anchor="middle" x="58" y="-182.5" font-family="Helvetica,sans-Serif" font-size="10.00">uiParent</text>
</a>
</g>
<!-- Node4&#45;&gt;Node3 -->
<g id="edge6" class="edge"><title>Node4&#45;&gt;Node3</title>
<path fill="none" stroke="midnightblue" d="M58,-164.191C58,-155.168 58,-144.994 58,-137.571"/>
<polygon fill="midnightblue" stroke="midnightblue" points="54.5001,-164.362 58,-174.362 61.5001,-164.362 54.5001,-164.362"/>
</g>
<!-- Node5 -->
<g id="node8" class="node"><title>Node5</title>
<polygon fill="white" stroke="#bfbfbf" points="20.5,-232.5 20.5,-253.5 95.5,-253.5 95.5,-232.5 20.5,-232.5"/>
<text text-anchor="middle" x="58" y="-240.5" font-family="Helvetica,sans-Serif" font-size="10.00">uiBaseObject</text>
</g>
<!-- Node5&#45;&gt;Node4 -->
<g id="edge8" class="edge"><title>Node5&#45;&gt;Node4</title>
<path fill="none" stroke="midnightblue" d="M58,-222.191C58,-213.168 58,-202.994 58,-195.571"/>
<polygon fill="midnightblue" stroke="midnightblue" points="54.5001,-222.362 58,-232.362 61.5001,-222.362 54.5001,-222.362"/>
</g>
</g>
</svg>
