<?xml version="1.0" encoding="UTF-8" standalone="no"?>
<!DOCTYPE svg PUBLIC "-//W3C//DTD SVG 1.1//EN"
 "http://www.w3.org/Graphics/SVG/1.1/DTD/svg11.dtd">
<!-- Generated by graphviz version 2.26.0 (20091210.2329)
 -->
<!-- Title: dgbEMSurfaceTranslator Pages: 1 -->
<svg width="664pt" height="150pt"
 viewBox="0.00 0.00 664.00 150.00" xmlns="http://www.w3.org/2000/svg" xmlns:xlink="http://www.w3.org/1999/xlink">
<g id="graph1" class="graph" transform="scale(1 1) rotate(0) translate(4 146)">
<title>dgbEMSurfaceTranslator</title>
<polygon fill="white" stroke="white" points="-4,5 -4,-146 661,-146 661,5 -4,5"/>
<!-- Node1 -->
<g id="node1" class="node"><title>Node1</title>
<polygon fill="#bfbfbf" stroke="black" points="344.5,-60.5 344.5,-81.5 469.5,-81.5 469.5,-60.5 344.5,-60.5"/>
<text text-anchor="middle" x="407" y="-68.5" font-family="Helvetica,sans-Serif" font-size="10.00">dgbEMSurfaceTranslator</text>
</g>
<!-- Node5 -->
<g id="node9" class="node"><title>Node5</title>
<a xlink:href="classdgbEMFault3DTranslator.html" target="_top" xlink:title="dgbEMSurfaceTranslator for EM::Fault3D. ">
<polygon fill="white" stroke="black" points="518.5,-120.5 518.5,-141.5 643.5,-141.5 643.5,-120.5 518.5,-120.5"/>
<text text-anchor="middle" x="581" y="-128.5" font-family="Helvetica,sans-Serif" font-size="10.00">dgbEMFault3DTranslator</text>
</a>
</g>
<!-- Node1&#45;&gt;Node5 -->
<g id="edge8" class="edge"><title>Node1&#45;&gt;Node5</title>
<path fill="none" stroke="midnightblue" d="M440.122,-85.5763C459.176,-93.6587 483.69,-103.55 506,-111 516.226,-114.415 527.384,-117.648 537.895,-120.481"/>
<polygon fill="midnightblue" stroke="midnightblue" points="441.267,-82.2592 430.697,-81.5372 438.51,-88.6933 441.267,-82.2592"/>
</g>
<!-- Node6 -->
<g id="node11" class="node"><title>Node6</title>
<a xlink:href="classdgbEMFaultStickSetTranslator.html" target="_top" xlink:title="dgbEMSurfaceTranslator for EM::FaultStickSet. ">
<polygon fill="white" stroke="black" points="506,-80.5 506,-101.5 656,-101.5 656,-80.5 506,-80.5"/>
<text text-anchor="middle" x="581" y="-88.5" font-family="Helvetica,sans-Serif" font-size="10.00">dgbEMFaultStickSetTranslator</text>
</a>
</g>
<!-- Node1&#45;&gt;Node6 -->
<g id="edge10" class="edge"><title>Node1&#45;&gt;Node6</title>
<path fill="none" stroke="midnightblue" d="M479.803,-79.3682C488.401,-80.3565 497.189,-81.3666 505.819,-82.3586"/>
<polygon fill="midnightblue" stroke="midnightblue" points="480.152,-75.8853 469.818,-78.2205 479.353,-82.8396 480.152,-75.8853"/>
</g>
<!-- Node7 -->
<g id="node13" class="node"><title>Node7</title>
<a xlink:href="classdgbEMHorizon2DTranslator.html" target="_top" xlink:title="dgbEMSurfaceTranslator for EM::Horizon2D. ">
<polygon fill="white" stroke="black" points="512.5,-40.5 512.5,-61.5 649.5,-61.5 649.5,-40.5 512.5,-40.5"/>
<text text-anchor="middle" x="581" y="-48.5" font-family="Helvetica,sans-Serif" font-size="10.00">dgbEMHorizon2DTranslator</text>
</a>
</g>
<!-- Node1&#45;&gt;Node7 -->
<g id="edge12" class="edge"><title>Node1&#45;&gt;Node7</title>
<path fill="none" stroke="midnightblue" d="M479.995,-62.6098C490.726,-61.3764 501.748,-60.1094 512.387,-58.8866"/>
<polygon fill="midnightblue" stroke="midnightblue" points="479.353,-59.1604 469.818,-63.7795 480.152,-66.1147 479.353,-59.1604"/>
</g>
<!-- Node8 -->
<g id="node15" class="node"><title>Node8</title>
<a xlink:href="classdgbEMHorizon3DTranslator.html" target="_top" xlink:title="dgbEMSurfaceTranslator for EM::Horizon3D. ">
<polygon fill="white" stroke="black" points="512.5,-0.5 512.5,-21.5 649.5,-21.5 649.5,-0.5 512.5,-0.5"/>
<text text-anchor="middle" x="581" y="-8.5" font-family="Helvetica,sans-Serif" font-size="10.00">dgbEMHorizon3DTranslator</text>
</a>
</g>
<!-- Node1&#45;&gt;Node8 -->
<g id="edge14" class="edge"><title>Node1&#45;&gt;Node8</title>
<path fill="none" stroke="midnightblue" d="M440.122,-56.4237C459.176,-48.3413 483.69,-38.45 506,-31 516.226,-27.5853 527.384,-24.3517 537.895,-21.5194"/>
<polygon fill="midnightblue" stroke="midnightblue" points="438.51,-53.3067 430.697,-60.4628 441.267,-59.7408 438.51,-53.3067"/>
</g>
<!-- Node2 -->
<g id="node2" class="node"><title>Node2</title>
<a xlink:href="classEMSurfaceTranslator.html" target="_top" xlink:title="Translator for EM::Surface. ">
<polygon fill="white" stroke="black" points="198.5,-60.5 198.5,-81.5 307.5,-81.5 307.5,-60.5 198.5,-60.5"/>
<text text-anchor="middle" x="253" y="-68.5" font-family="Helvetica,sans-Serif" font-size="10.00">EMSurfaceTranslator</text>
</a>
</g>
<!-- Node2&#45;&gt;Node1 -->
<g id="edge2" class="edge"><title>Node2&#45;&gt;Node1</title>
<path fill="none" stroke="midnightblue" d="M317.876,-71C326.629,-71 335.595,-71 344.309,-71"/>
<polygon fill="midnightblue" stroke="midnightblue" points="317.728,-67.5001 307.728,-71 317.728,-74.5001 317.728,-67.5001"/>
</g>
<!-- Node3 -->
<g id="node4" class="node"><title>Node3</title>
<a xlink:href="classTranslator.html" target="_top" xlink:title="I/O Interpreter class for a certain object type. ">
<polygon fill="white" stroke="black" points="102,-60.5 102,-81.5 162,-81.5 162,-60.5 102,-60.5"/>
<text text-anchor="middle" x="132" y="-68.5" font-family="Helvetica,sans-Serif" font-size="10.00">Translator</text>
</a>
</g>
<!-- Node3&#45;&gt;Node2 -->
<g id="edge4" class="edge"><title>Node3&#45;&gt;Node2</title>
<path fill="none" stroke="midnightblue" d="M172.361,-71C180.649,-71 189.507,-71 198.206,-71"/>
<polygon fill="midnightblue" stroke="midnightblue" points="172.221,-67.5001 162.221,-71 172.221,-74.5001 172.221,-67.5001"/>
</g>
<!-- Node4 -->
<g id="node6" class="node"><title>Node4</title>
<a xlink:href="classCallBacker.html" target="_top" xlink:title="To be able to send and/or receive CallBacks, inherit from this class. ">
<polygon fill="white" stroke="black" points="0.5,-60.5 0.5,-81.5 65.5,-81.5 65.5,-60.5 0.5,-60.5"/>
<text text-anchor="middle" x="33" y="-68.5" font-family="Helvetica,sans-Serif" font-size="10.00">CallBacker</text>
</a>
</g>
<!-- Node4&#45;&gt;Node3 -->
<g id="edge6" class="edge"><title>Node4&#45;&gt;Node3</title>
<path fill="none" stroke="midnightblue" d="M75.745,-71C84.4785,-71 93.498,-71 101.688,-71"/>
<polygon fill="midnightblue" stroke="midnightblue" points="75.6907,-67.5001 65.6907,-71 75.6906,-74.5001 75.6907,-67.5001"/>
</g>
</g>
</svg>
