<?xml version="1.0" encoding="UTF-8" standalone="no"?>
<!DOCTYPE svg PUBLIC "-//W3C//DTD SVG 1.1//EN"
 "http://www.w3.org/Graphics/SVG/1.1/DTD/svg11.dtd">
<!-- Generated by graphviz version 2.26.0 (20091210.2329)
 -->
<!-- Title: Geometry::ElementEditorImpl Pages: 1 -->
<svg width="330pt" height="204pt"
 viewBox="0.00 0.00 330.00 204.00" xmlns="http://www.w3.org/2000/svg" xmlns:xlink="http://www.w3.org/1999/xlink">
<g id="graph1" class="graph" transform="scale(1 1) rotate(0) translate(4 200)">
<title>Geometry::ElementEditorImpl</title>
<polygon fill="white" stroke="white" points="-4,5 -4,-200 327,-200 327,5 -4,5"/>
<!-- Node1 -->
<g id="node1" class="node"><title>Node1</title>
<polygon fill="#bfbfbf" stroke="black" points="88,-58.5 88,-79.5 234,-79.5 234,-58.5 88,-58.5"/>
<text text-anchor="middle" x="161" y="-66.5" font-family="Helvetica,sans-Serif" font-size="10.00">Geometry::ElementEditorImpl</text>
</g>
<!-- Node4 -->
<g id="node7" class="node"><title>Node4</title>
<a xlink:href="classGeometry_1_1BinIDElementEditor.html" target="_top" xlink:title="Geometry::BinIDElementEditor">
<polygon fill="white" stroke="black" points="0,-0.5 0,-21.5 152,-21.5 152,-0.5 0,-0.5"/>
<text text-anchor="middle" x="76" y="-8.5" font-family="Helvetica,sans-Serif" font-size="10.00">Geometry::BinIDElementEditor</text>
</a>
</g>
<!-- Node1&#45;&gt;Node4 -->
<g id="edge6" class="edge"><title>Node1&#45;&gt;Node4</title>
<path fill="none" stroke="midnightblue" d="M136.879,-52.5407C122.306,-42.5973 104.164,-30.2177 91.4915,-21.5707"/>
<polygon fill="midnightblue" stroke="midnightblue" points="135.177,-55.6166 145.41,-58.3619 139.122,-49.8344 135.177,-55.6166"/>
</g>
<!-- Node5 -->
<g id="node9" class="node"><title>Node5</title>
<a xlink:href="classGeometry_1_1PlaneElementEditor.html" target="_top" xlink:title="Geometry::PlaneElementEditor">
<polygon fill="white" stroke="black" points="170,-0.5 170,-21.5 322,-21.5 322,-0.5 170,-0.5"/>
<text text-anchor="middle" x="246" y="-8.5" font-family="Helvetica,sans-Serif" font-size="10.00">Geometry::PlaneElementEditor</text>
</a>
</g>
<!-- Node1&#45;&gt;Node5 -->
<g id="edge8" class="edge"><title>Node1&#45;&gt;Node5</title>
<path fill="none" stroke="midnightblue" d="M185.121,-52.5407C199.694,-42.5973 217.836,-30.2177 230.509,-21.5707"/>
<polygon fill="midnightblue" stroke="midnightblue" points="182.878,-49.8344 176.59,-58.3619 186.823,-55.6166 182.878,-49.8344"/>
</g>
<!-- Node2 -->
<g id="node2" class="node"><title>Node2</title>
<a xlink:href="classGeometry_1_1ElementEditor.html" target="_top" xlink:title="Geometry::ElementEditor">
<polygon fill="white" stroke="black" points="97.5,-116.5 97.5,-137.5 224.5,-137.5 224.5,-116.5 97.5,-116.5"/>
<text text-anchor="middle" x="161" y="-124.5" font-family="Helvetica,sans-Serif" font-size="10.00">Geometry::ElementEditor</text>
</a>
</g>
<!-- Node2&#45;&gt;Node1 -->
<g id="edge2" class="edge"><title>Node2&#45;&gt;Node1</title>
<path fill="none" stroke="midnightblue" d="M161,-106.191C161,-97.1684 161,-86.9941 161,-79.5707"/>
<polygon fill="midnightblue" stroke="midnightblue" points="157.5,-106.362 161,-116.362 164.5,-106.362 157.5,-106.362"/>
</g>
<!-- Node3 -->
<g id="node4" class="node"><title>Node3</title>
<a xlink:href="classCallBacker.html" target="_top" xlink:title="To be able to send and/or receive CallBacks, inherit from this class. ">
<polygon fill="white" stroke="black" points="128.5,-174.5 128.5,-195.5 193.5,-195.5 193.5,-174.5 128.5,-174.5"/>
<text text-anchor="middle" x="161" y="-182.5" font-family="Helvetica,sans-Serif" font-size="10.00">CallBacker</text>
</a>
</g>
<!-- Node3&#45;&gt;Node2 -->
<g id="edge4" class="edge"><title>Node3&#45;&gt;Node2</title>
<path fill="none" stroke="midnightblue" d="M161,-164.191C161,-155.168 161,-144.994 161,-137.571"/>
<polygon fill="midnightblue" stroke="midnightblue" points="157.5,-164.362 161,-174.362 164.5,-164.362 157.5,-164.362"/>
</g>
</g>
</svg>
