<?xml version="1.0" encoding="UTF-8" standalone="no"?>
<!DOCTYPE svg PUBLIC "-//W3C//DTD SVG 1.1//EN"
 "http://www.w3.org/Graphics/SVG/1.1/DTD/svg11.dtd">
<!-- Generated by graphviz version 2.26.0 (20091210.2329)
 -->
<!-- Title: uiMainWin Pages: 1 -->
<svg width="656pt" height="1334pt"
 viewBox="0.00 0.00 656.00 1334.00" xmlns="http://www.w3.org/2000/svg" xmlns:xlink="http://www.w3.org/1999/xlink">
<g id="graph1" class="graph" transform="scale(1 1) rotate(0) translate(4 1330)">
<title>uiMainWin</title>
<polygon fill="white" stroke="white" points="-4,5 -4,-1330 653,-1330 653,5 -4,5"/>
<!-- Node1 -->
<g id="node1" class="node"><title>Node1</title>
<polygon fill="#bfbfbf" stroke="black" points="202,-492.5 202,-513.5 264,-513.5 264,-492.5 202,-492.5"/>
<text text-anchor="middle" x="233" y="-500.5" font-family="Helvetica,sans-Serif" font-size="10.00">uiMainWin</text>
</g>
<!-- Node4 -->
<g id="node7" class="node"><title>Node4</title>
<a xlink:href="classuiAmplSpectrum.html" target="_top" xlink:title="uiAmplSpectrum">
<polygon fill="white" stroke="black" points="327.5,-1018.5 327.5,-1039.5 416.5,-1039.5 416.5,-1018.5 327.5,-1018.5"/>
<text text-anchor="middle" x="372" y="-1026.5" font-family="Helvetica,sans-Serif" font-size="10.00">uiAmplSpectrum</text>
</a>
</g>
<!-- Node1&#45;&gt;Node4 -->
<g id="edge6" class="edge"><title>Node1&#45;&gt;Node4</title>
<path fill="none" stroke="midnightblue" d="M238.359,-523.279C261.46,-610.697 352.135,-953.828 369.217,-1018.47"/>
<polygon fill="midnightblue" stroke="midnightblue" points="241.715,-522.281 235.777,-513.507 234.948,-524.069 241.715,-522.281"/>
</g>
<!-- Node6 -->
<g id="node11" class="node"><title>Node6</title>
<a xlink:href="classuiDataPointSetCrossPlotWin.html" target="_top" xlink:title="Data Point Set Cross Plotter Main window. ">
<polygon fill="white" stroke="black" points="300.5,-692.5 300.5,-713.5 443.5,-713.5 443.5,-692.5 300.5,-692.5"/>
<text text-anchor="middle" x="372" y="-700.5" font-family="Helvetica,sans-Serif" font-size="10.00">uiDataPointSetCrossPlotWin</text>
</a>
</g>
<!-- Node1&#45;&gt;Node6 -->
<g id="edge10" class="edge"><title>Node1&#45;&gt;Node6</title>
<path fill="none" stroke="midnightblue" d="M234.737,-523.995C238.982,-561.498 253.253,-640.084 300,-683 304.109,-686.773 308.87,-689.842 313.946,-692.338"/>
<polygon fill="midnightblue" stroke="midnightblue" points="238.191,-523.363 233.716,-513.76 231.226,-524.058 238.191,-523.363"/>
</g>
<!-- Node7 -->
<g id="node13" class="node"><title>Node7</title>
<a xlink:href="classuiDialog.html" target="_top" xlink:title="uiDialog">
<polygon fill="white" stroke="red" points="346,-652.5 346,-673.5 398,-673.5 398,-652.5 346,-652.5"/>
<text text-anchor="middle" x="372" y="-660.5" font-family="Helvetica,sans-Serif" font-size="10.00">uiDialog</text>
</a>
</g>
<!-- Node1&#45;&gt;Node7 -->
<g id="edge12" class="edge"><title>Node1&#45;&gt;Node7</title>
<path fill="none" stroke="midnightblue" d="M237.175,-523.591C244.471,-554.222 262.483,-611.548 300,-643 312.825,-653.752 331.007,-658.746 345.891,-661.056"/>
<polygon fill="midnightblue" stroke="midnightblue" points="240.543,-522.613 234.956,-513.611 233.71,-524.133 240.543,-522.613"/>
</g>
<!-- Node40 -->
<g id="node79" class="node"><title>Node40</title>
<a xlink:href="classuiFlatViewMainWin.html" target="_top" xlink:title="(Non&#45;modal) main window containing one or more uiFlatViewer(s). ">
<polygon fill="white" stroke="red" points="321.5,-612.5 321.5,-633.5 422.5,-633.5 422.5,-612.5 321.5,-612.5"/>
<text text-anchor="middle" x="372" y="-620.5" font-family="Helvetica,sans-Serif" font-size="10.00">uiFlatViewMainWin</text>
</a>
</g>
<!-- Node1&#45;&gt;Node40 -->
<g id="edge78" class="edge"><title>Node1&#45;&gt;Node40</title>
<path fill="none" stroke="midnightblue" d="M241.177,-522.941C251.526,-545.695 271.504,-582.409 300,-603 306.414,-607.635 313.86,-611.197 321.481,-613.933"/>
<polygon fill="midnightblue" stroke="midnightblue" points="244.302,-521.351 237.104,-513.577 237.883,-524.143 244.302,-521.351"/>
</g>
<!-- Node41 -->
<g id="node81" class="node"><title>Node41</title>
<a xlink:href="classuiObjectItemViewWin.html" target="_top" xlink:title="A uiMainWin that holds embedded uiObjects and controls. ">
<polygon fill="white" stroke="red" points="316.5,-572.5 316.5,-593.5 427.5,-593.5 427.5,-572.5 316.5,-572.5"/>
<text text-anchor="middle" x="372" y="-580.5" font-family="Helvetica,sans-Serif" font-size="10.00">uiObjectItemViewWin</text>
</a>
</g>
<!-- Node1&#45;&gt;Node41 -->
<g id="edge80" class="edge"><title>Node1&#45;&gt;Node41</title>
<path fill="none" stroke="midnightblue" d="M248.9,-521.181C261.517,-534.549 280.262,-552.201 300,-563 306.942,-566.798 314.664,-569.922 322.4,-572.477"/>
<polygon fill="midnightblue" stroke="midnightblue" points="251.215,-518.526 241.882,-513.51 246.05,-523.251 251.215,-518.526"/>
</g>
<!-- Node42 -->
<g id="node83" class="node"><title>Node42</title>
<a xlink:href="classuiODMain.html" target="_top" xlink:title="OpendTect application top level object. ">
<polygon fill="white" stroke="black" points="342,-532.5 342,-553.5 402,-553.5 402,-532.5 342,-532.5"/>
<text text-anchor="middle" x="372" y="-540.5" font-family="Helvetica,sans-Serif" font-size="10.00">uiODMain</text>
</a>
</g>
<!-- Node1&#45;&gt;Node42 -->
<g id="edge82" class="edge"><title>Node1&#45;&gt;Node42</title>
<path fill="none" stroke="midnightblue" d="M274.11,-515.407C282.658,-517.949 291.616,-520.584 300,-523 313.713,-526.951 328.935,-531.199 341.837,-534.76"/>
<polygon fill="midnightblue" stroke="midnightblue" points="274.906,-511.992 264.322,-512.485 272.903,-518.699 274.906,-511.992"/>
</g>
<!-- Node43 -->
<g id="node85" class="node"><title>Node43</title>
<a xlink:href="classuiOfferInfoWin.html" target="_top" xlink:title="Non&#45;modal window able to display local, handy info for the user. ">
<polygon fill="white" stroke="black" points="332,-492.5 332,-513.5 412,-513.5 412,-492.5 332,-492.5"/>
<text text-anchor="middle" x="372" y="-500.5" font-family="Helvetica,sans-Serif" font-size="10.00">uiOfferInfoWin</text>
</a>
</g>
<!-- Node1&#45;&gt;Node43 -->
<g id="edge84" class="edge"><title>Node1&#45;&gt;Node43</title>
<path fill="none" stroke="midnightblue" d="M274.239,-503C292.469,-503 313.827,-503 331.922,-503"/>
<polygon fill="midnightblue" stroke="midnightblue" points="274.194,-499.5 264.194,-503 274.194,-506.5 274.194,-499.5"/>
</g>
<!-- Node44 -->
<g id="node87" class="node"><title>Node44</title>
<a xlink:href="classuiStatsDisplayWin.html" target="_top" xlink:title="Stats display main window. See uistatsdisplay.h for details. ">
<polygon fill="white" stroke="black" points="323,-452.5 323,-473.5 421,-473.5 421,-452.5 323,-452.5"/>
<text text-anchor="middle" x="372" y="-460.5" font-family="Helvetica,sans-Serif" font-size="10.00">uiStatsDisplayWin</text>
</a>
</g>
<!-- Node1&#45;&gt;Node44 -->
<g id="edge86" class="edge"><title>Node1&#45;&gt;Node44</title>
<path fill="none" stroke="midnightblue" d="M274.11,-490.593C282.658,-488.051 291.616,-485.416 300,-483 310.846,-479.875 322.635,-476.564 333.474,-473.555"/>
<polygon fill="midnightblue" stroke="midnightblue" points="272.903,-487.301 264.322,-493.515 274.906,-494.008 272.903,-487.301"/>
</g>
<!-- Node45 -->
<g id="node89" class="node"><title>Node45</title>
<a xlink:href="classuiStratLayerModel.html" target="_top" xlink:title="uiStratLayerModel">
<polygon fill="white" stroke="black" points="324.5,-412.5 324.5,-433.5 419.5,-433.5 419.5,-412.5 324.5,-412.5"/>
<text text-anchor="middle" x="372" y="-420.5" font-family="Helvetica,sans-Serif" font-size="10.00">uiStratLayerModel</text>
</a>
</g>
<!-- Node1&#45;&gt;Node45 -->
<g id="edge88" class="edge"><title>Node1&#45;&gt;Node45</title>
<path fill="none" stroke="midnightblue" d="M248.9,-484.819C261.517,-471.451 280.262,-453.799 300,-443 307.512,-438.89 315.936,-435.57 324.302,-432.906"/>
<polygon fill="midnightblue" stroke="midnightblue" points="246.05,-482.749 241.882,-492.49 251.215,-487.474 246.05,-482.749"/>
</g>
<!-- Node46 -->
<g id="node91" class="node"><title>Node46</title>
<a xlink:href="classuiStratTreeWin.html" target="_top" xlink:title="Main window for Stratigraphy display: holds the reference tree and the units description view...">
<polygon fill="white" stroke="black" points="331,-372.5 331,-393.5 413,-393.5 413,-372.5 331,-372.5"/>
<text text-anchor="middle" x="372" y="-380.5" font-family="Helvetica,sans-Serif" font-size="10.00">uiStratTreeWin</text>
</a>
</g>
<!-- Node1&#45;&gt;Node46 -->
<g id="edge90" class="edge"><title>Node1&#45;&gt;Node46</title>
<path fill="none" stroke="midnightblue" d="M241.177,-483.059C251.526,-460.305 271.504,-423.591 300,-403 309.043,-396.466 320.136,-392.064 330.881,-389.101"/>
<polygon fill="midnightblue" stroke="midnightblue" points="237.883,-481.857 237.104,-492.423 244.302,-484.649 237.883,-481.857"/>
</g>
<!-- Node47 -->
<g id="node93" class="node"><title>Node47</title>
<a xlink:href="classuiVirtualKeyboard.html" target="_top" xlink:title="uiVirtualKeyboard">
<polygon fill="white" stroke="black" points="325.5,-332.5 325.5,-353.5 418.5,-353.5 418.5,-332.5 325.5,-332.5"/>
<text text-anchor="middle" x="372" y="-340.5" font-family="Helvetica,sans-Serif" font-size="10.00">uiVirtualKeyboard</text>
</a>
</g>
<!-- Node1&#45;&gt;Node47 -->
<g id="edge92" class="edge"><title>Node1&#45;&gt;Node47</title>
<path fill="none" stroke="midnightblue" d="M237.175,-482.409C244.471,-451.778 262.483,-394.452 300,-363 307.258,-356.916 316.231,-352.675 325.351,-349.721"/>
<polygon fill="midnightblue" stroke="midnightblue" points="233.71,-481.867 234.956,-492.389 240.543,-483.387 233.71,-481.867"/>
</g>
<!-- Node48 -->
<g id="node95" class="node"><title>Node48</title>
<a xlink:href="classuiWellDisplayWin.html" target="_top" xlink:title="Main window to display wells. ">
<polygon fill="white" stroke="black" points="325,-292.5 325,-313.5 419,-313.5 419,-292.5 325,-292.5"/>
<text text-anchor="middle" x="372" y="-300.5" font-family="Helvetica,sans-Serif" font-size="10.00">uiWellDisplayWin</text>
</a>
</g>
<!-- Node1&#45;&gt;Node48 -->
<g id="edge94" class="edge"><title>Node1&#45;&gt;Node48</title>
<path fill="none" stroke="midnightblue" d="M234.737,-482.005C238.982,-444.502 253.253,-365.916 300,-323 306.976,-316.595 315.829,-312.217 324.92,-309.23"/>
<polygon fill="midnightblue" stroke="midnightblue" points="231.226,-481.942 233.716,-492.24 238.191,-482.637 231.226,-481.942"/>
</g>
<!-- Node49 -->
<g id="node97" class="node"><title>Node49</title>
<a xlink:href="classuiWellLogToolWin.html" target="_top" xlink:title="uiWellLogToolWin">
<polygon fill="white" stroke="black" points="324.5,-252.5 324.5,-273.5 419.5,-273.5 419.5,-252.5 324.5,-252.5"/>
<text text-anchor="middle" x="372" y="-260.5" font-family="Helvetica,sans-Serif" font-size="10.00">uiWellLogToolWin</text>
</a>
</g>
<!-- Node1&#45;&gt;Node49 -->
<g id="edge96" class="edge"><title>Node1&#45;&gt;Node49</title>
<path fill="none" stroke="midnightblue" d="M236.673,-482.381C245.817,-433.262 270.968,-311.324 300,-283 306.686,-276.477 315.306,-272.041 324.244,-269.035"/>
<polygon fill="midnightblue" stroke="midnightblue" points="233.187,-481.989 234.833,-492.455 240.073,-483.246 233.187,-481.989"/>
</g>
<!-- Node2 -->
<g id="node2" class="node"><title>Node2</title>
<a xlink:href="classuiParent.html" target="_top" xlink:title="uiParent">
<polygon fill="white" stroke="black" points="112.5,-492.5 112.5,-513.5 165.5,-513.5 165.5,-492.5 112.5,-492.5"/>
<text text-anchor="middle" x="139" y="-500.5" font-family="Helvetica,sans-Serif" font-size="10.00">uiParent</text>
</a>
</g>
<!-- Node2&#45;&gt;Node1 -->
<g id="edge2" class="edge"><title>Node2&#45;&gt;Node1</title>
<path fill="none" stroke="midnightblue" d="M175.878,-503C184.496,-503 193.591,-503 201.928,-503"/>
<polygon fill="midnightblue" stroke="midnightblue" points="175.685,-499.5 165.685,-503 175.685,-506.5 175.685,-499.5"/>
</g>
<!-- Node3 -->
<g id="node4" class="node"><title>Node3</title>
<polygon fill="white" stroke="#bfbfbf" points="0.5,-492.5 0.5,-513.5 75.5,-513.5 75.5,-492.5 0.5,-492.5"/>
<text text-anchor="middle" x="38" y="-500.5" font-family="Helvetica,sans-Serif" font-size="10.00">uiBaseObject</text>
</g>
<!-- Node3&#45;&gt;Node2 -->
<g id="edge4" class="edge"><title>Node3&#45;&gt;Node2</title>
<path fill="none" stroke="midnightblue" d="M85.8165,-503C94.9589,-503 104.219,-503 112.393,-503"/>
<polygon fill="midnightblue" stroke="midnightblue" points="85.6087,-499.5 75.6087,-503 85.6086,-506.5 85.6087,-499.5"/>
</g>
<!-- Node5 -->
<g id="node9" class="node"><title>Node5</title>
<a xlink:href="classuiSeisAmplSpectrum.html" target="_top" xlink:title="uiSeisAmplSpectrum">
<polygon fill="white" stroke="black" points="510,-1304.5 510,-1325.5 618,-1325.5 618,-1304.5 510,-1304.5"/>
<text text-anchor="middle" x="564" y="-1312.5" font-family="Helvetica,sans-Serif" font-size="10.00">uiSeisAmplSpectrum</text>
</a>
</g>
<!-- Node4&#45;&gt;Node5 -->
<g id="edge8" class="edge"><title>Node4&#45;&gt;Node5</title>
<path fill="none" stroke="midnightblue" d="M374.045,-1049.56C380.168,-1099.69 403.005,-1228.9 480,-1295 488.417,-1302.23 498.987,-1306.95 509.761,-1310"/>
<polygon fill="midnightblue" stroke="midnightblue" points="377.521,-1049.15 372.926,-1039.61 370.565,-1049.94 377.521,-1049.15"/>
</g>
<!-- Node8 -->
<g id="node15" class="node"><title>Node8</title>
<a xlink:href="classCmdDrive_1_1uiCmdDriverDlg.html" target="_top" xlink:title="CmdDrive::uiCmdDriverDlg">
<polygon fill="white" stroke="black" points="495.5,-1264.5 495.5,-1285.5 632.5,-1285.5 632.5,-1264.5 495.5,-1264.5"/>
<text text-anchor="middle" x="564" y="-1272.5" font-family="Helvetica,sans-Serif" font-size="10.00">CmdDrive::uiCmdDriverDlg</text>
</a>
</g>
<!-- Node7&#45;&gt;Node8 -->
<g id="edge14" class="edge"><title>Node7&#45;&gt;Node8</title>
<path fill="none" stroke="midnightblue" d="M407.976,-664.497C421.301,-666.977 435.275,-672.24 444,-683 524.219,-781.925 397.955,-1157.58 480,-1255 484.249,-1260.05 489.519,-1263.95 495.333,-1266.95"/>
<polygon fill="midnightblue" stroke="midnightblue" points="408.4,-661.022 398.01,-663.098 407.427,-667.954 408.4,-661.022"/>
</g>
<!-- Node9 -->
<g id="node17" class="node"><title>Node9</title>
<a xlink:href="classCmdDrive_1_1uiCmdInteractDlg.html" target="_top" xlink:title="CmdDrive::uiCmdInteractDlg">
<polygon fill="white" stroke="black" points="492.5,-1224.5 492.5,-1245.5 635.5,-1245.5 635.5,-1224.5 492.5,-1224.5"/>
<text text-anchor="middle" x="564" y="-1232.5" font-family="Helvetica,sans-Serif" font-size="10.00">CmdDrive::uiCmdInteractDlg</text>
</a>
</g>
<!-- Node7&#45;&gt;Node9 -->
<g id="edge16" class="edge"><title>Node7&#45;&gt;Node9</title>
<path fill="none" stroke="midnightblue" d="M408.249,-664.574C421.48,-667.079 435.315,-672.341 444,-683 518.848,-774.86 403.456,-1124.55 480,-1215 483.486,-1219.12 487.653,-1222.48 492.24,-1225.2"/>
<polygon fill="midnightblue" stroke="midnightblue" points="408.74,-661.108 398.343,-663.151 407.744,-668.037 408.74,-661.108"/>
</g>
<!-- Node10 -->
<g id="node19" class="node"><title>Node10</title>
<a xlink:href="classCoords_1_1uiCoordSystemDlg.html" target="_top" xlink:title="Coords::uiCoordSystemDlg">
<polygon fill="white" stroke="black" points="495.5,-1184.5 495.5,-1205.5 632.5,-1205.5 632.5,-1184.5 495.5,-1184.5"/>
<text text-anchor="middle" x="564" y="-1192.5" font-family="Helvetica,sans-Serif" font-size="10.00">Coords::uiCoordSystemDlg</text>
</a>
</g>
<!-- Node7&#45;&gt;Node10 -->
<g id="edge18" class="edge"><title>Node7&#45;&gt;Node10</title>
<path fill="none" stroke="midnightblue" d="M408.219,-664.598C421.446,-667.107 435.286,-672.365 444,-683 513.48,-767.796 408.955,-1091.51 480,-1175 484.275,-1180.02 489.561,-1183.91 495.386,-1186.9"/>
<polygon fill="midnightblue" stroke="midnightblue" points="408.715,-661.134 398.318,-663.171 407.717,-668.062 408.715,-661.134"/>
</g>
<!-- Node11 -->
<g id="node21" class="node"><title>Node11</title>
<a xlink:href="classPreStack_1_1uiAGC.html" target="_top" xlink:title="PreStack::uiAGC">
<polygon fill="white" stroke="black" points="518,-1144.5 518,-1165.5 610,-1165.5 610,-1144.5 518,-1144.5"/>
<text text-anchor="middle" x="564" y="-1152.5" font-family="Helvetica,sans-Serif" font-size="10.00">PreStack::uiAGC</text>
</a>
</g>
<!-- Node7&#45;&gt;Node11 -->
<g id="edge20" class="edge"><title>Node7&#45;&gt;Node11</title>
<path fill="none" stroke="midnightblue" d="M408.573,-664.702C421.677,-667.244 435.337,-672.497 444,-683 508.113,-760.734 414.452,-1058.47 480,-1135 489.459,-1146.04 503.81,-1151.59 517.988,-1154.22"/>
<polygon fill="midnightblue" stroke="midnightblue" points="408.69,-661.182 398.288,-663.196 407.676,-668.108 408.69,-661.182"/>
</g>
<!-- Node12 -->
<g id="node23" class="node"><title>Node12</title>
<a xlink:href="classPreStack_1_1uiAngleCompAdvParsDlg.html" target="_top" xlink:title="PreStack::uiAngleCompAdv\lParsDlg">
<polygon fill="white" stroke="black" points="494.5,-1092 494.5,-1126 633.5,-1126 633.5,-1092 494.5,-1092"/>
<text text-anchor="start" x="502.5" y="-1113" font-family="Helvetica,sans-Serif" font-size="10.00">PreStack::uiAngleCompAdv</text>
<text text-anchor="middle" x="564" y="-1100" font-family="Helvetica,sans-Serif" font-size="10.00">ParsDlg</text>
</a>
</g>
<!-- Node7&#45;&gt;Node12 -->
<g id="edge22" class="edge"><title>Node7&#45;&gt;Node12</title>
<path fill="none" stroke="midnightblue" d="M408.516,-664.748C421.613,-667.297 435.283,-672.541 444,-683 501.14,-751.559 423.868,-1013.61 480,-1083 484.033,-1087.98 489.003,-1092.03 494.495,-1095.32"/>
<polygon fill="midnightblue" stroke="midnightblue" points="408.644,-661.23 398.241,-663.235 407.624,-668.155 408.644,-661.23"/>
</g>
<!-- Node13 -->
<g id="node25" class="node"><title>Node13</title>
<a xlink:href="classPreStack_1_1uiAngleMute.html" target="_top" xlink:title="PreStack::uiAngleMute">
<polygon fill="white" stroke="black" points="505.5,-1052.5 505.5,-1073.5 622.5,-1073.5 622.5,-1052.5 505.5,-1052.5"/>
<text text-anchor="middle" x="564" y="-1060.5" font-family="Helvetica,sans-Serif" font-size="10.00">PreStack::uiAngleMute</text>
</a>
</g>
<!-- Node7&#45;&gt;Node13 -->
<g id="edge24" class="edge"><title>Node7&#45;&gt;Node13</title>
<path fill="none" stroke="midnightblue" d="M408.462,-664.794C421.552,-667.348 435.232,-672.585 444,-683 547.559,-806.01 374.171,-921.938 480,-1043 486.709,-1050.67 495.781,-1055.68 505.486,-1058.9"/>
<polygon fill="midnightblue" stroke="midnightblue" points="408.601,-661.276 398.196,-663.273 407.575,-668.2 408.601,-661.276"/>
</g>
<!-- Node14 -->
<g id="node27" class="node"><title>Node14</title>
<a xlink:href="classPreStack_1_1uiAngleMuteComputer.html" target="_top" xlink:title="PreStack::uiAngleMuteComputer">
<polygon fill="white" stroke="black" points="484,-1012.5 484,-1033.5 644,-1033.5 644,-1012.5 484,-1012.5"/>
<text text-anchor="middle" x="564" y="-1020.5" font-family="Helvetica,sans-Serif" font-size="10.00">PreStack::uiAngleMuteComputer</text>
</a>
</g>
<!-- Node7&#45;&gt;Node14 -->
<g id="edge26" class="edge"><title>Node7&#45;&gt;Node14</title>
<path fill="none" stroke="midnightblue" d="M408.395,-664.85C421.477,-667.412 435.167,-672.639 444,-683 536.849,-791.914 385.142,-895.832 480,-1003 483.279,-1006.7 487.108,-1009.79 491.292,-1012.34"/>
<polygon fill="midnightblue" stroke="midnightblue" points="408.546,-661.334 398.139,-663.321 407.514,-668.258 408.546,-661.334"/>
</g>
<!-- Node15 -->
<g id="node29" class="node"><title>Node15</title>
<a xlink:href="classPreStack_1_1uiEventExport.html" target="_top" xlink:title="PreStack::uiEventExport">
<polygon fill="white" stroke="black" points="501.5,-972.5 501.5,-993.5 626.5,-993.5 626.5,-972.5 501.5,-972.5"/>
<text text-anchor="middle" x="564" y="-980.5" font-family="Helvetica,sans-Serif" font-size="10.00">PreStack::uiEventExport</text>
</a>
</g>
<!-- Node7&#45;&gt;Node15 -->
<g id="edge28" class="edge"><title>Node7&#45;&gt;Node15</title>
<path fill="none" stroke="midnightblue" d="M408.31,-664.924C421.38,-667.495 435.086,-672.709 444,-683 526.151,-777.834 396.099,-869.71 480,-963 485.814,-969.465 493.306,-974.027 501.416,-977.217"/>
<polygon fill="midnightblue" stroke="midnightblue" points="408.477,-661.41 398.068,-663.382 407.435,-668.332 408.477,-661.41"/>
</g>
<!-- Node16 -->
<g id="node31" class="node"><title>Node16</title>
<a xlink:href="classPreStack_1_1uiEventImport.html" target="_top" xlink:title="PreStack::uiEventImport">
<polygon fill="white" stroke="black" points="502,-932.5 502,-953.5 626,-953.5 626,-932.5 502,-932.5"/>
<text text-anchor="middle" x="564" y="-940.5" font-family="Helvetica,sans-Serif" font-size="10.00">PreStack::uiEventImport</text>
</a>
</g>
<!-- Node7&#45;&gt;Node16 -->
<g id="edge30" class="edge"><title>Node7&#45;&gt;Node16</title>
<path fill="none" stroke="midnightblue" d="M408.492,-665.081C421.459,-667.684 435.046,-672.88 444,-683 515.475,-763.778 407.035,-843.565 480,-923 485.983,-929.514 493.67,-934.087 501.958,-937.269"/>
<polygon fill="midnightblue" stroke="midnightblue" points="408.744,-661.578 398.326,-663.504 407.671,-668.496 408.744,-661.578"/>
</g>
<!-- Node17 -->
<g id="node33" class="node"><title>Node17</title>
<a xlink:href="classPreStack_1_1uiExportMute.html" target="_top" xlink:title="PreStack::uiExportMute">
<polygon fill="white" stroke="black" points="503.5,-892.5 503.5,-913.5 624.5,-913.5 624.5,-892.5 503.5,-892.5"/>
<text text-anchor="middle" x="564" y="-900.5" font-family="Helvetica,sans-Serif" font-size="10.00">PreStack::uiExportMute</text>
</a>
</g>
<!-- Node7&#45;&gt;Node17 -->
<g id="edge32" class="edge"><title>Node7&#45;&gt;Node17</title>
<path fill="none" stroke="midnightblue" d="M408.337,-665.22C421.285,-667.841 434.899,-673.012 444,-683 504.831,-749.759 417.937,-817.384 480,-883 486.387,-889.752 494.607,-894.407 503.398,-897.584"/>
<polygon fill="midnightblue" stroke="midnightblue" points="408.618,-661.721 398.195,-663.622 407.528,-668.636 408.618,-661.721"/>
</g>
<!-- Node18 -->
<g id="node35" class="node"><title>Node18</title>
<a xlink:href="classPreStack_1_1uiImportMute.html" target="_top" xlink:title="PreStack::uiImportMute">
<polygon fill="white" stroke="black" points="504,-852.5 504,-873.5 624,-873.5 624,-852.5 504,-852.5"/>
<text text-anchor="middle" x="564" y="-860.5" font-family="Helvetica,sans-Serif" font-size="10.00">PreStack::uiImportMute</text>
</a>
</g>
<!-- Node7&#45;&gt;Node18 -->
<g id="edge34" class="edge"><title>Node7&#45;&gt;Node18</title>
<path fill="none" stroke="midnightblue" d="M408.112,-665.43C421.032,-668.077 434.685,-673.211 444,-683 494.245,-735.803 428.781,-791.14 480,-843 486.531,-849.613 494.826,-854.196 503.647,-857.344"/>
<polygon fill="midnightblue" stroke="midnightblue" points="408.434,-661.937 398.004,-663.8 407.319,-668.848 408.434,-661.937"/>
</g>
<!-- Node19 -->
<g id="node37" class="node"><title>Node19</title>
<a xlink:href="classPreStack_1_1uiLateralStack.html" target="_top" xlink:title="PreStack::uiLateralStack">
<polygon fill="white" stroke="black" points="501.5,-812.5 501.5,-833.5 626.5,-833.5 626.5,-812.5 501.5,-812.5"/>
<text text-anchor="middle" x="564" y="-820.5" font-family="Helvetica,sans-Serif" font-size="10.00">PreStack::uiLateralStack</text>
</a>
</g>
<!-- Node7&#45;&gt;Node19 -->
<g id="edge36" class="edge"><title>Node7&#45;&gt;Node19</title>
<path fill="none" stroke="midnightblue" d="M408.048,-665.843C420.839,-668.549 434.421,-673.615 444,-683 483.775,-721.967 439.508,-764.78 480,-803 486.105,-808.762 493.558,-812.961 501.479,-816.004"/>
<polygon fill="midnightblue" stroke="midnightblue" points="408.497,-662.369 398.051,-664.142 407.323,-669.27 408.497,-662.369"/>
</g>
<!-- Node20 -->
<g id="node39" class="node"><title>Node20</title>
<a xlink:href="classPreStack_1_1uiMute.html" target="_top" xlink:title="PreStack::uiMute">
<polygon fill="white" stroke="black" points="518,-772.5 518,-793.5 610,-793.5 610,-772.5 518,-772.5"/>
<text text-anchor="middle" x="564" y="-780.5" font-family="Helvetica,sans-Serif" font-size="10.00">PreStack::uiMute</text>
</a>
</g>
<!-- Node7&#45;&gt;Node20 -->
<g id="edge38" class="edge"><title>Node7&#45;&gt;Node20</title>
<path fill="none" stroke="midnightblue" d="M408.369,-666.748C420.812,-669.572 434.08,-674.483 444,-683 473.582,-708.398 449.95,-738.156 480,-763 490.629,-771.788 504.468,-776.843 517.835,-779.712"/>
<polygon fill="midnightblue" stroke="midnightblue" points="408.678,-663.245 398.203,-664.834 407.383,-670.124 408.678,-663.245"/>
</g>
<!-- Node21 -->
<g id="node41" class="node"><title>Node21</title>
<a xlink:href="classPreStack_1_1uiSemblanceAlgorithm.html" target="_top" xlink:title="PreStack::uiSemblanceAlgorithm">
<polygon fill="white" stroke="black" points="483.5,-732.5 483.5,-753.5 644.5,-753.5 644.5,-732.5 483.5,-732.5"/>
<text text-anchor="middle" x="564" y="-740.5" font-family="Helvetica,sans-Serif" font-size="10.00">PreStack::uiSemblanceAlgorithm</text>
</a>
</g>
<!-- Node7&#45;&gt;Node21 -->
<g id="edge40" class="edge"><title>Node7&#45;&gt;Node21</title>
<path fill="none" stroke="midnightblue" d="M407.911,-668.762C419.989,-671.766 433.143,-676.276 444,-683 464.334,-695.592 459.435,-710.788 480,-723 486.445,-726.827 493.577,-729.922 500.881,-732.425"/>
<polygon fill="midnightblue" stroke="midnightblue" points="408.614,-665.333 398.092,-666.576 407.093,-672.165 408.614,-665.333"/>
</g>
<!-- Node22 -->
<g id="node43" class="node"><title>Node22</title>
<a xlink:href="classPreStack_1_1uiTrimStatics.html" target="_top" xlink:title="PreStack::uiTrimStatics">
<polygon fill="white" stroke="black" points="503.5,-692.5 503.5,-713.5 624.5,-713.5 624.5,-692.5 503.5,-692.5"/>
<text text-anchor="middle" x="564" y="-700.5" font-family="Helvetica,sans-Serif" font-size="10.00">PreStack::uiTrimStatics</text>
</a>
</g>
<!-- Node7&#45;&gt;Node22 -->
<g id="edge42" class="edge"><title>Node7&#45;&gt;Node22</title>
<path fill="none" stroke="midnightblue" d="M408.256,-670.553C438.022,-676.754 480.506,-685.605 513.586,-692.497"/>
<polygon fill="midnightblue" stroke="midnightblue" points="408.798,-667.091 398.294,-668.478 407.37,-673.944 408.798,-667.091"/>
</g>
<!-- Node23 -->
<g id="node45" class="node"><title>Node23</title>
<a xlink:href="classPreStackView_1_1uiViewer2DPosDlg.html" target="_top" xlink:title="PreStackView::uiViewer2DPosDlg">
<polygon fill="white" stroke="black" points="480.5,-652.5 480.5,-673.5 647.5,-673.5 647.5,-652.5 480.5,-652.5"/>
<text text-anchor="middle" x="564" y="-660.5" font-family="Helvetica,sans-Serif" font-size="10.00">PreStackView::uiViewer2DPosDlg</text>
</a>
</g>
<!-- Node7&#45;&gt;Node23 -->
<g id="edge44" class="edge"><title>Node7&#45;&gt;Node23</title>
<path fill="none" stroke="midnightblue" d="M408.378,-663C428.768,-663 455.098,-663 480.282,-663"/>
<polygon fill="midnightblue" stroke="midnightblue" points="408.294,-659.5 398.294,-663 408.294,-666.5 408.294,-659.5"/>
</g>
<!-- Node24 -->
<g id="node47" class="node"><title>Node24</title>
<a xlink:href="classPreStackView_1_1uiViewer2DSelDataDlg.html" target="_top" xlink:title="PreStackView::uiViewer2DSel\lDataDlg">
<polygon fill="white" stroke="black" points="489.5,-600 489.5,-634 638.5,-634 638.5,-600 489.5,-600"/>
<text text-anchor="start" x="497.5" y="-621" font-family="Helvetica,sans-Serif" font-size="10.00">PreStackView::uiViewer2DSel</text>
<text text-anchor="middle" x="564" y="-608" font-family="Helvetica,sans-Serif" font-size="10.00">DataDlg</text>
</a>
</g>
<!-- Node7&#45;&gt;Node24 -->
<g id="edge46" class="edge"><title>Node7&#45;&gt;Node24</title>
<path fill="none" stroke="midnightblue" d="M408.317,-654.299C432.184,-648.581 464.208,-640.908 493.006,-634.009"/>
<polygon fill="midnightblue" stroke="midnightblue" points="407.204,-650.967 398.294,-656.7 408.834,-657.774 407.204,-650.967"/>
</g>
<!-- Node25 -->
<g id="node49" class="node"><title>Node25</title>
<a xlink:href="classuiAddEditMrkrDlg.html" target="_top" xlink:title="uiAddEditMrkrDlg">
<polygon fill="white" stroke="black" points="517.5,-560.5 517.5,-581.5 610.5,-581.5 610.5,-560.5 517.5,-560.5"/>
<text text-anchor="middle" x="564" y="-568.5" font-family="Helvetica,sans-Serif" font-size="10.00">uiAddEditMrkrDlg</text>
</a>
</g>
<!-- Node7&#45;&gt;Node25 -->
<g id="edge48" class="edge"><title>Node7&#45;&gt;Node25</title>
<path fill="none" stroke="midnightblue" d="M408.134,-658.077C420.335,-655.141 433.51,-650.459 444,-643 466.908,-626.711 456.793,-606.86 480,-591 491.015,-583.472 504.524,-578.761 517.462,-575.818"/>
<polygon fill="midnightblue" stroke="midnightblue" points="407.265,-654.683 398.193,-660.156 408.698,-661.535 407.265,-654.683"/>
</g>
<!-- Node26 -->
<g id="node51" class="node"><title>Node26</title>
<a xlink:href="classuiArr2DFilterParsDlg.html" target="_top" xlink:title="uiArr2DFilterParsDlg">
<polygon fill="white" stroke="black" points="510.5,-520.5 510.5,-541.5 617.5,-541.5 617.5,-520.5 510.5,-520.5"/>
<text text-anchor="middle" x="564" y="-528.5" font-family="Helvetica,sans-Serif" font-size="10.00">uiArr2DFilterParsDlg</text>
</a>
</g>
<!-- Node7&#45;&gt;Node26 -->
<g id="edge50" class="edge"><title>Node7&#45;&gt;Node26</title>
<path fill="none" stroke="midnightblue" d="M407.941,-659.669C420.6,-656.9 434.122,-651.918 444,-643 476.591,-613.576 446.868,-579.812 480,-551 488.484,-543.622 499.207,-538.851 510.128,-535.792"/>
<polygon fill="midnightblue" stroke="midnightblue" points="407.28,-656.232 398.059,-661.448 408.521,-663.121 407.28,-656.232"/>
</g>
<!-- Node27 -->
<g id="node53" class="node"><title>Node27</title>
<a xlink:href="classuiArrowDialog.html" target="_top" xlink:title="uiArrowDialog">
<polygon fill="white" stroke="black" points="525.5,-480.5 525.5,-501.5 602.5,-501.5 602.5,-480.5 525.5,-480.5"/>
<text text-anchor="middle" x="564" y="-488.5" font-family="Helvetica,sans-Serif" font-size="10.00">uiArrowDialog</text>
</a>
</g>
<!-- Node7&#45;&gt;Node27 -->
<g id="edge52" class="edge"><title>Node7&#45;&gt;Node27</title>
<path fill="none" stroke="midnightblue" d="M408.175,-660.285C420.981,-657.594 434.54,-652.505 444,-643 486.898,-599.9 436.308,-553.294 480,-511 491.956,-499.427 509.336,-494.129 525.189,-491.842"/>
<polygon fill="midnightblue" stroke="midnightblue" points="407.442,-656.859 398.159,-661.967 408.601,-663.763 407.442,-656.859"/>
</g>
<!-- Node28 -->
<g id="node55" class="node"><title>Node28</title>
<a xlink:href="classuiAttr2DSelDlg.html" target="_top" xlink:title="Selection dialog for 2D attributes. ">
<polygon fill="white" stroke="black" points="523,-440.5 523,-461.5 605,-461.5 605,-440.5 523,-440.5"/>
<text text-anchor="middle" x="564" y="-448.5" font-family="Helvetica,sans-Serif" font-size="10.00">uiAttr2DSelDlg</text>
</a>
</g>
<!-- Node7&#45;&gt;Node28 -->
<g id="edge54" class="edge"><title>Node7&#45;&gt;Node28</title>
<path fill="none" stroke="midnightblue" d="M408.189,-660.643C421.119,-658.006 434.759,-652.858 444,-643 497.413,-586.019 425.537,-526.978 480,-471 491.081,-459.611 507.387,-454.224 522.692,-451.822"/>
<polygon fill="midnightblue" stroke="midnightblue" points="407.391,-657.226 398.07,-662.263 408.497,-664.138 407.391,-657.226"/>
</g>
<!-- Node29 -->
<g id="node57" class="node"><title>Node29</title>
<a xlink:href="classuiAttribCrossPlot.html" target="_top" xlink:title="uiAttribCrossPlot">
<polygon fill="white" stroke="black" points="518.5,-400.5 518.5,-421.5 609.5,-421.5 609.5,-400.5 518.5,-400.5"/>
<text text-anchor="middle" x="564" y="-408.5" font-family="Helvetica,sans-Serif" font-size="10.00">uiAttribCrossPlot</text>
</a>
</g>
<!-- Node7&#45;&gt;Node29 -->
<g id="edge56" class="edge"><title>Node7&#45;&gt;Node29</title>
<path fill="none" stroke="midnightblue" d="M408.389,-660.827C421.344,-658.212 434.948,-653.033 444,-643 508.02,-572.04 414.671,-500.757 480,-431 489.837,-420.496 504.109,-415.057 518.106,-412.362"/>
<polygon fill="midnightblue" stroke="midnightblue" points="407.576,-657.412 398.239,-662.418 408.66,-664.327 407.576,-657.412"/>
</g>
<!-- Node30 -->
<g id="node59" class="node"><title>Node30</title>
<a xlink:href="classuiAttribDescSetEd.html" target="_top" xlink:title="Editor for Attribute sets. ">
<polygon fill="white" stroke="black" points="515,-360.5 515,-381.5 613,-381.5 613,-360.5 515,-360.5"/>
<text text-anchor="middle" x="564" y="-368.5" font-family="Helvetica,sans-Serif" font-size="10.00">uiAttribDescSetEd</text>
</a>
</g>
<!-- Node7&#45;&gt;Node30 -->
<g id="edge58" class="edge"><title>Node7&#45;&gt;Node30</title>
<path fill="none" stroke="midnightblue" d="M408.235,-661.011C421.295,-658.431 435.014,-653.228 444,-643 518.675,-558.008 403.757,-474.588 480,-391 488.991,-381.143 501.883,-375.722 514.877,-372.844"/>
<polygon fill="midnightblue" stroke="midnightblue" points="407.366,-657.602 398.004,-662.563 408.416,-664.523 407.366,-657.602"/>
</g>
<!-- Node31 -->
<g id="node61" class="node"><title>Node31</title>
<a xlink:href="classuiAttribTransDlg.html" target="_top" xlink:title="uiAttribTransDlg">
<polygon fill="white" stroke="black" points="520.5,-320.5 520.5,-341.5 607.5,-341.5 607.5,-320.5 520.5,-320.5"/>
<text text-anchor="middle" x="564" y="-328.5" font-family="Helvetica,sans-Serif" font-size="10.00">uiAttribTransDlg</text>
</a>
</g>
<!-- Node7&#45;&gt;Node31 -->
<g id="edge60" class="edge"><title>Node7&#45;&gt;Node31</title>
<path fill="none" stroke="midnightblue" d="M408.338,-661.1C421.412,-658.533 435.112,-653.314 444,-643 529.359,-543.944 392.813,-448.451 480,-351 490.195,-339.604 505.602,-334.114 520.448,-331.633"/>
<polygon fill="midnightblue" stroke="midnightblue" points="407.461,-657.693 398.091,-662.638 408.5,-664.615 407.461,-657.693"/>
</g>
<!-- Node32 -->
<g id="node63" class="node"><title>Node32</title>
<a xlink:href="classuiAttrInpDlg.html" target="_top" xlink:title="uiAttrInpDlg">
<polygon fill="white" stroke="black" points="530,-280.5 530,-301.5 598,-301.5 598,-280.5 530,-280.5"/>
<text text-anchor="middle" x="564" y="-288.5" font-family="Helvetica,sans-Serif" font-size="10.00">uiAttrInpDlg</text>
</a>
</g>
<!-- Node7&#45;&gt;Node32 -->
<g id="edge62" class="edge"><title>Node7&#45;&gt;Node32</title>
<path fill="none" stroke="midnightblue" d="M408.417,-661.168C421.501,-658.609 435.188,-653.379 444,-643 540.061,-529.858 381.852,-422.335 480,-311 492.293,-297.056 512.385,-291.928 529.837,-290.347"/>
<polygon fill="midnightblue" stroke="midnightblue" points="407.534,-657.761 398.158,-662.695 408.564,-664.685 407.534,-657.761"/>
</g>
<!-- Node33 -->
<g id="node65" class="node"><title>Node33</title>
<a xlink:href="classuiAttrSelDlg.html" target="_top" xlink:title="User Interface (UI) element for selection of Attributes from an attribute set. ">
<polygon fill="white" stroke="black" points="529.5,-240.5 529.5,-261.5 598.5,-261.5 598.5,-240.5 529.5,-240.5"/>
<text text-anchor="middle" x="564" y="-248.5" font-family="Helvetica,sans-Serif" font-size="10.00">uiAttrSelDlg</text>
</a>
</g>
<!-- Node7&#45;&gt;Node33 -->
<g id="edge64" class="edge"><title>Node7&#45;&gt;Node33</title>
<path fill="none" stroke="midnightblue" d="M408.48,-661.221C421.572,-658.669 435.248,-653.429 444,-643 497.387,-579.379 425.439,-333.617 480,-271 492.113,-257.098 511.978,-251.938 529.349,-250.329"/>
<polygon fill="midnightblue" stroke="midnightblue" points="407.591,-657.814 398.21,-662.739 408.615,-664.739 407.591,-657.814"/>
</g>
<!-- Node34 -->
<g id="node67" class="node"><title>Node34</title>
<a xlink:href="classuiAutoAttrSelDlg.html" target="_top" xlink:title="Class for selecting Auto&#45;load Attribute Set. ">
<polygon fill="white" stroke="black" points="519.5,-200.5 519.5,-221.5 608.5,-221.5 608.5,-200.5 519.5,-200.5"/>
<text text-anchor="middle" x="564" y="-208.5" font-family="Helvetica,sans-Serif" font-size="10.00">uiAutoAttrSelDlg</text>
</a>
</g>
<!-- Node7&#45;&gt;Node34 -->
<g id="edge66" class="edge"><title>Node7&#45;&gt;Node34</title>
<path fill="none" stroke="midnightblue" d="M408.531,-661.263C421.63,-658.717 435.297,-653.47 444,-643 502.749,-572.324 419.947,-300.571 480,-231 489.796,-219.652 504.756,-214.118 519.351,-211.587"/>
<polygon fill="midnightblue" stroke="midnightblue" points="407.637,-657.857 398.253,-662.775 408.656,-664.783 407.637,-657.857"/>
</g>
<!-- Node35 -->
<g id="node69" class="node"><title>Node35</title>
<a xlink:href="classuiAutoAttrSetOpen.html" target="_top" xlink:title="uiAutoAttrSetOpen">
<polygon fill="white" stroke="black" points="515,-160.5 515,-181.5 613,-181.5 613,-160.5 515,-160.5"/>
<text text-anchor="middle" x="564" y="-168.5" font-family="Helvetica,sans-Serif" font-size="10.00">uiAutoAttrSetOpen</text>
</a>
</g>
<!-- Node7&#45;&gt;Node35 -->
<g id="edge68" class="edge"><title>Node7&#45;&gt;Node35</title>
<path fill="none" stroke="midnightblue" d="M408.573,-661.298C421.677,-658.756 435.337,-653.503 444,-643 508.113,-565.266 414.452,-267.528 480,-191 488.777,-180.753 501.764,-175.239 514.917,-172.397"/>
<polygon fill="midnightblue" stroke="midnightblue" points="407.676,-657.892 398.288,-662.804 408.69,-664.818 407.676,-657.892"/>
</g>
<!-- Node36 -->
<g id="node71" class="node"><title>Node36</title>
<a xlink:href="classuiBatchHostsDlg.html" target="_top" xlink:title="uiBatchHostsDlg">
<polygon fill="white" stroke="black" points="518.5,-120.5 518.5,-141.5 609.5,-141.5 609.5,-120.5 518.5,-120.5"/>
<text text-anchor="middle" x="564" y="-128.5" font-family="Helvetica,sans-Serif" font-size="10.00">uiBatchHostsDlg</text>
</a>
</g>
<!-- Node7&#45;&gt;Node36 -->
<g id="edge70" class="edge"><title>Node7&#45;&gt;Node36</title>
<path fill="none" stroke="midnightblue" d="M408.219,-661.402C421.446,-658.893 435.286,-653.635 444,-643 513.48,-558.204 408.955,-234.489 480,-151 489.521,-139.811 504.062,-134.258 518.385,-131.665"/>
<polygon fill="midnightblue" stroke="midnightblue" points="407.717,-657.938 398.318,-662.829 408.715,-664.866 407.717,-657.938"/>
</g>
<!-- Node37 -->
<g id="node73" class="node"><title>Node37</title>
<a xlink:href="classuiBatchProcDlg.html" target="_top" xlink:title="uiBatchProcDlg">
<polygon fill="white" stroke="red" points="521.5,-80.5 521.5,-101.5 606.5,-101.5 606.5,-80.5 521.5,-80.5"/>
<text text-anchor="middle" x="564" y="-88.5" font-family="Helvetica,sans-Serif" font-size="10.00">uiBatchProcDlg</text>
</a>
</g>
<!-- Node7&#45;&gt;Node37 -->
<g id="edge72" class="edge"><title>Node7&#45;&gt;Node37</title>
<path fill="none" stroke="midnightblue" d="M408.249,-661.426C421.48,-658.921 435.315,-653.659 444,-643 518.848,-551.14 403.456,-201.452 480,-111 490.168,-98.9844 506.126,-93.4608 521.414,-91.1251"/>
<polygon fill="midnightblue" stroke="midnightblue" points="407.744,-657.963 398.343,-662.849 408.74,-664.892 407.744,-657.963"/>
</g>
<!-- Node38 -->
<g id="node75" class="node"><title>Node38</title>
<a xlink:href="classuiBatchProgLaunch.html" target="_top" xlink:title="uiBatchProgLaunch">
<polygon fill="white" stroke="black" points="513.5,-40.5 513.5,-61.5 614.5,-61.5 614.5,-40.5 513.5,-40.5"/>
<text text-anchor="middle" x="564" y="-48.5" font-family="Helvetica,sans-Serif" font-size="10.00">uiBatchProgLaunch</text>
</a>
</g>
<!-- Node7&#45;&gt;Node38 -->
<g id="edge74" class="edge"><title>Node7&#45;&gt;Node38</title>
<path fill="none" stroke="midnightblue" d="M407.976,-661.503C421.301,-659.023 435.275,-653.76 444,-643 524.219,-544.075 397.955,-168.416 480,-71 488.402,-61.0244 500.794,-55.5192 513.495,-52.5981"/>
<polygon fill="midnightblue" stroke="midnightblue" points="407.427,-658.046 398.01,-662.902 408.4,-664.978 407.427,-658.046"/>
</g>
<!-- Node39 -->
<g id="node77" class="node"><title>Node39</title>
<a xlink:href="classuiBatchTime2DepthSetup.html" target="_top" xlink:title="uiBatchTime2DepthSetup">
<polygon fill="white" stroke="black" points="500,-0.5 500,-21.5 628,-21.5 628,-0.5 500,-0.5"/>
<text text-anchor="middle" x="564" y="-8.5" font-family="Helvetica,sans-Serif" font-size="10.00">uiBatchTime2DepthSetup</text>
</a>
</g>
<!-- Node7&#45;&gt;Node39 -->
<g id="edge76" class="edge"><title>Node7&#45;&gt;Node39</title>
<path fill="none" stroke="midnightblue" d="M407.999,-661.522C421.327,-659.044 435.297,-653.778 444,-643 529.59,-537.008 392.453,-135.382 480,-31 485.298,-24.6827 492.197,-20.1567 499.765,-16.944"/>
<polygon fill="midnightblue" stroke="midnightblue" points="407.447,-658.065 398.029,-662.918 408.418,-664.997 407.447,-658.065"/>
</g>
</g>
</svg>
