<?xml version="1.0" encoding="UTF-8" standalone="no"?>
<!DOCTYPE svg PUBLIC "-//W3C//DTD SVG 1.1//EN"
 "http://www.w3.org/Graphics/SVG/1.1/DTD/svg11.dtd">
<!-- Generated by graphviz version 2.26.0 (20091210.2329)
 -->
<!-- Title: Batch::ClusterProgDef Pages: 1 -->
<svg width="302pt" height="88pt"
 viewBox="0.00 0.00 302.00 88.00" xmlns="http://www.w3.org/2000/svg" xmlns:xlink="http://www.w3.org/1999/xlink">
<g id="graph1" class="graph" transform="scale(1 1) rotate(0) translate(4 84)">
<title>Batch::ClusterProgDef</title>
<polygon fill="white" stroke="white" points="-4,5 -4,-84 299,-84 299,5 -4,5"/>
<!-- Node1 -->
<g id="node1" class="node"><title>Node1</title>
<polygon fill="#bfbfbf" stroke="black" points="93,-58.5 93,-79.5 209,-79.5 209,-58.5 93,-58.5"/>
<text text-anchor="middle" x="151" y="-66.5" font-family="Helvetica,sans-Serif" font-size="10.00">Batch::ClusterProgDef</text>
</g>
<!-- Node2 -->
<g id="node3" class="node"><title>Node2</title>
<a xlink:href="classBatch_1_1SimpleClusterProgDef.html" target="_top" xlink:title="Batch::SimpleClusterProgDef">
<polygon fill="white" stroke="black" points="0,-0.5 0,-21.5 146,-21.5 146,-0.5 0,-0.5"/>
<text text-anchor="middle" x="73" y="-8.5" font-family="Helvetica,sans-Serif" font-size="10.00">Batch::SimpleClusterProgDef</text>
</a>
</g>
<!-- Node1&#45;&gt;Node2 -->
<g id="edge2" class="edge"><title>Node1&#45;&gt;Node2</title>
<path fill="none" stroke="midnightblue" d="M128.486,-52.2587C115.179,-42.3641 98.7348,-30.1361 87.2157,-21.5707"/>
<polygon fill="midnightblue" stroke="midnightblue" points="126.58,-55.2035 136.694,-58.3619 130.757,-49.5862 126.58,-55.2035"/>
</g>
<!-- Node3 -->
<g id="node5" class="node"><title>Node3</title>
<a xlink:href="classBatch_1_1VolClusterProgDef.html" target="_top" xlink:title="Batch::VolClusterProgDef">
<polygon fill="white" stroke="black" points="164,-0.5 164,-21.5 294,-21.5 294,-0.5 164,-0.5"/>
<text text-anchor="middle" x="229" y="-8.5" font-family="Helvetica,sans-Serif" font-size="10.00">Batch::VolClusterProgDef</text>
</a>
</g>
<!-- Node1&#45;&gt;Node3 -->
<g id="edge4" class="edge"><title>Node1&#45;&gt;Node3</title>
<path fill="none" stroke="midnightblue" d="M173.514,-52.2587C186.821,-42.3641 203.265,-30.1361 214.784,-21.5707"/>
<polygon fill="midnightblue" stroke="midnightblue" points="171.243,-49.5862 165.306,-58.3619 175.42,-55.2035 171.243,-49.5862"/>
</g>
</g>
</svg>
