<?xml version="1.0" encoding="UTF-8" standalone="no"?>
<!DOCTYPE svg PUBLIC "-//W3C//DTD SVG 1.1//EN"
 "http://www.w3.org/Graphics/SVG/1.1/DTD/svg11.dtd">
<!-- Generated by graphviz version 2.26.0 (20091210.2329)
 -->
<!-- Title: uiODTreeItemFactory Pages: 1 -->
<svg width="456pt" height="642pt"
 viewBox="0.00 0.00 456.00 642.00" xmlns="http://www.w3.org/2000/svg" xmlns:xlink="http://www.w3.org/1999/xlink">
<g id="graph1" class="graph" transform="scale(1 1) rotate(0) translate(4 638)">
<title>uiODTreeItemFactory</title>
<polygon fill="white" stroke="white" points="-4,5 -4,-638 453,-638 453,5 -4,5"/>
<!-- Node1 -->
<g id="node1" class="node"><title>Node1</title>
<polygon fill="#bfbfbf" stroke="black" points="132.5,-300.5 132.5,-321.5 243.5,-321.5 243.5,-300.5 132.5,-300.5"/>
<text text-anchor="middle" x="188" y="-308.5" font-family="Helvetica,sans-Serif" font-size="10.00">uiODTreeItemFactory</text>
</g>
<!-- Node3 -->
<g id="node5" class="node"><title>Node3</title>
<a xlink:href="classLine2DTreeItemFactory.html" target="_top" xlink:title="Line2DTreeItemFactory">
<polygon fill="white" stroke="black" points="304.5,-612.5 304.5,-633.5 423.5,-633.5 423.5,-612.5 304.5,-612.5"/>
<text text-anchor="middle" x="364" y="-620.5" font-family="Helvetica,sans-Serif" font-size="10.00">Line2DTreeItemFactory</text>
</a>
</g>
<!-- Node1&#45;&gt;Node3 -->
<g id="edge4" class="edge"><title>Node1&#45;&gt;Node3</title>
<path fill="none" stroke="midnightblue" d="M191.816,-331.835C203.264,-392.126 239.067,-564.893 280,-603 286.803,-609.333 295.237,-613.772 304.115,-616.862"/>
<polygon fill="midnightblue" stroke="midnightblue" points="195.189,-330.832 189.911,-321.646 188.308,-332.118 195.189,-330.832"/>
</g>
<!-- Node4 -->
<g id="node7" class="node"><title>Node4</title>
<a xlink:href="classuiODAnnotTreeItemFactory.html" target="_top" xlink:title="uiODAnnotTreeItemFactory">
<polygon fill="white" stroke="black" points="295.5,-572.5 295.5,-593.5 432.5,-593.5 432.5,-572.5 295.5,-572.5"/>
<text text-anchor="middle" x="364" y="-580.5" font-family="Helvetica,sans-Serif" font-size="10.00">uiODAnnotTreeItemFactory</text>
</a>
</g>
<!-- Node1&#45;&gt;Node4 -->
<g id="edge6" class="edge"><title>Node1&#45;&gt;Node4</title>
<path fill="none" stroke="midnightblue" d="M189.183,-331.687C193.1,-379.928 209.784,-500.51 280,-563 284.591,-567.086 289.867,-570.376 295.489,-573.021"/>
<polygon fill="midnightblue" stroke="midnightblue" points="192.663,-331.275 188.466,-321.547 185.68,-331.769 192.663,-331.275"/>
</g>
<!-- Node5 -->
<g id="node9" class="node"><title>Node5</title>
<a xlink:href="classuiODBodyDisplayTreeItemFactory.html" target="_top" xlink:title="uiODBodyDisplayTreeItemFactory">
<polygon fill="white" stroke="black" points="280.5,-532.5 280.5,-553.5 447.5,-553.5 447.5,-532.5 280.5,-532.5"/>
<text text-anchor="middle" x="364" y="-540.5" font-family="Helvetica,sans-Serif" font-size="10.00">uiODBodyDisplayTreeItemFactory</text>
</a>
</g>
<!-- Node1&#45;&gt;Node5 -->
<g id="edge8" class="edge"><title>Node1&#45;&gt;Node5</title>
<path fill="none" stroke="midnightblue" d="M190.813,-331.862C197.72,-374.609 219.593,-472.372 280,-523 284.481,-526.755 289.546,-529.831 294.913,-532.346"/>
<polygon fill="midnightblue" stroke="midnightblue" points="194.247,-331.163 189.303,-321.793 187.325,-332.202 194.247,-331.163"/>
</g>
<!-- Node6 -->
<g id="node11" class="node"><title>Node6</title>
<a xlink:href="classuiODCrosslineTreeItemFactory.html" target="_top" xlink:title="uiODCrosslineTreeItemFactory">
<polygon fill="white" stroke="black" points="288,-492.5 288,-513.5 440,-513.5 440,-492.5 288,-492.5"/>
<text text-anchor="middle" x="364" y="-500.5" font-family="Helvetica,sans-Serif" font-size="10.00">uiODCrosslineTreeItemFactory</text>
</a>
</g>
<!-- Node1&#45;&gt;Node6 -->
<g id="edge10" class="edge"><title>Node1&#45;&gt;Node6</title>
<path fill="none" stroke="midnightblue" d="M193.125,-331.912C203.209,-368.474 229.199,-443.842 280,-483 284.987,-486.844 290.598,-489.965 296.495,-492.496"/>
<polygon fill="midnightblue" stroke="midnightblue" points="196.42,-330.679 190.496,-321.895 189.649,-332.455 196.42,-330.679"/>
</g>
<!-- Node7 -->
<g id="node13" class="node"><title>Node7</title>
<a xlink:href="classuiODFaultStickSetTreeItemFactory.html" target="_top" xlink:title="uiODFaultStickSetTreeItem\lFactory">
<polygon fill="white" stroke="black" points="295.5,-440 295.5,-474 432.5,-474 432.5,-440 295.5,-440"/>
<text text-anchor="start" x="303.5" y="-461" font-family="Helvetica,sans-Serif" font-size="10.00">uiODFaultStickSetTreeItem</text>
<text text-anchor="middle" x="364" y="-448" font-family="Helvetica,sans-Serif" font-size="10.00">Factory</text>
</a>
</g>
<!-- Node1&#45;&gt;Node7 -->
<g id="edge12" class="edge"><title>Node1&#45;&gt;Node7</title>
<path fill="none" stroke="midnightblue" d="M198.118,-330.888C212.669,-357.532 241.991,-404.522 280,-431 284.885,-434.403 290.232,-437.373 295.785,-439.962"/>
<polygon fill="midnightblue" stroke="midnightblue" points="201.053,-328.952 193.277,-321.757 194.869,-332.232 201.053,-328.952"/>
</g>
<!-- Node8 -->
<g id="node15" class="node"><title>Node8</title>
<a xlink:href="classuiODFaultTreeItemFactory.html" target="_top" xlink:title="uiODFaultTreeItemFactory">
<polygon fill="white" stroke="black" points="297.5,-400.5 297.5,-421.5 430.5,-421.5 430.5,-400.5 297.5,-400.5"/>
<text text-anchor="middle" x="364" y="-408.5" font-family="Helvetica,sans-Serif" font-size="10.00">uiODFaultTreeItemFactory</text>
</a>
</g>
<!-- Node1&#45;&gt;Node8 -->
<g id="edge14" class="edge"><title>Node1&#45;&gt;Node8</title>
<path fill="none" stroke="midnightblue" d="M203.989,-329.337C221.011,-347.695 249.635,-375.394 280,-391 287.467,-394.837 295.686,-397.953 303.972,-400.479"/>
<polygon fill="midnightblue" stroke="midnightblue" points="206.325,-326.702 197.02,-321.637 201.135,-331.4 206.325,-326.702"/>
</g>
<!-- Node9 -->
<g id="node17" class="node"><title>Node9</title>
<a xlink:href="classuiODHorizon2DTreeItemFactory.html" target="_top" xlink:title="uiODHorizon2DTreeItemFactory">
<polygon fill="white" stroke="black" points="285,-360.5 285,-381.5 443,-381.5 443,-360.5 285,-360.5"/>
<text text-anchor="middle" x="364" y="-368.5" font-family="Helvetica,sans-Serif" font-size="10.00">uiODHorizon2DTreeItemFactory</text>
</a>
</g>
<!-- Node1&#45;&gt;Node9 -->
<g id="edge16" class="edge"><title>Node1&#45;&gt;Node9</title>
<path fill="none" stroke="midnightblue" d="M218.738,-325.988C236.368,-334.171 259.09,-344.026 280,-351 290.666,-354.557 302.292,-357.747 313.4,-360.479"/>
<polygon fill="midnightblue" stroke="midnightblue" points="220.049,-322.737 209.511,-321.643 217.067,-329.07 220.049,-322.737"/>
</g>
<!-- Node10 -->
<g id="node19" class="node"><title>Node10</title>
<a xlink:href="classuiODHorizonTreeItemFactory.html" target="_top" xlink:title="uiODHorizonTreeItemFactory">
<polygon fill="white" stroke="black" points="291.5,-320.5 291.5,-341.5 436.5,-341.5 436.5,-320.5 291.5,-320.5"/>
<text text-anchor="middle" x="364" y="-328.5" font-family="Helvetica,sans-Serif" font-size="10.00">uiODHorizonTreeItemFactory</text>
</a>
</g>
<!-- Node1&#45;&gt;Node10 -->
<g id="edge18" class="edge"><title>Node1&#45;&gt;Node10</title>
<path fill="none" stroke="midnightblue" d="M253.79,-318.476C266.015,-319.865 278.852,-321.324 291.271,-322.735"/>
<polygon fill="midnightblue" stroke="midnightblue" points="254.019,-314.98 243.688,-317.328 253.228,-321.935 254.019,-314.98"/>
</g>
<!-- Node11 -->
<g id="node21" class="node"><title>Node11</title>
<a xlink:href="classuiODInlineTreeItemFactory.html" target="_top" xlink:title="uiODInlineTreeItemFactory">
<polygon fill="white" stroke="black" points="297,-280.5 297,-301.5 431,-301.5 431,-280.5 297,-280.5"/>
<text text-anchor="middle" x="364" y="-288.5" font-family="Helvetica,sans-Serif" font-size="10.00">uiODInlineTreeItemFactory</text>
</a>
</g>
<!-- Node1&#45;&gt;Node11 -->
<g id="edge20" class="edge"><title>Node1&#45;&gt;Node11</title>
<path fill="none" stroke="midnightblue" d="M253.79,-303.524C267.893,-301.921 282.81,-300.226 296.96,-298.618"/>
<polygon fill="midnightblue" stroke="midnightblue" points="253.228,-300.065 243.688,-304.672 254.019,-307.02 253.228,-300.065"/>
</g>
<!-- Node12 -->
<g id="node23" class="node"><title>Node12</title>
<a xlink:href="classuiODPickSetTreeItemFactory.html" target="_top" xlink:title="uiODPickSetTreeItemFactory">
<polygon fill="white" stroke="black" points="291,-240.5 291,-261.5 437,-261.5 437,-240.5 291,-240.5"/>
<text text-anchor="middle" x="364" y="-248.5" font-family="Helvetica,sans-Serif" font-size="10.00">uiODPickSetTreeItemFactory</text>
</a>
</g>
<!-- Node1&#45;&gt;Node12 -->
<g id="edge22" class="edge"><title>Node1&#45;&gt;Node12</title>
<path fill="none" stroke="midnightblue" d="M218.738,-296.012C236.368,-287.829 259.09,-277.974 280,-271 290.666,-267.443 302.292,-264.253 313.4,-261.521"/>
<polygon fill="midnightblue" stroke="midnightblue" points="217.067,-292.93 209.511,-300.357 220.049,-299.263 217.067,-292.93"/>
</g>
<!-- Node13 -->
<g id="node25" class="node"><title>Node13</title>
<a xlink:href="classuiODPolygonTreeItemFactory.html" target="_top" xlink:title="uiODPolygonTreeItemFactory">
<polygon fill="white" stroke="black" points="291,-200.5 291,-221.5 437,-221.5 437,-200.5 291,-200.5"/>
<text text-anchor="middle" x="364" y="-208.5" font-family="Helvetica,sans-Serif" font-size="10.00">uiODPolygonTreeItemFactory</text>
</a>
</g>
<!-- Node1&#45;&gt;Node13 -->
<g id="edge24" class="edge"><title>Node1&#45;&gt;Node13</title>
<path fill="none" stroke="midnightblue" d="M203.989,-292.663C221.011,-274.305 249.635,-246.606 280,-231 287.467,-227.163 295.686,-224.047 303.972,-221.521"/>
<polygon fill="midnightblue" stroke="midnightblue" points="201.135,-290.6 197.02,-300.363 206.325,-295.298 201.135,-290.6"/>
</g>
<!-- Node14 -->
<g id="node27" class="node"><title>Node14</title>
<a xlink:href="classuiODPSEventsTreeItemFactory.html" target="_top" xlink:title="uiODPSEventsTreeItemFactory">
<polygon fill="white" stroke="black" points="286.5,-160.5 286.5,-181.5 441.5,-181.5 441.5,-160.5 286.5,-160.5"/>
<text text-anchor="middle" x="364" y="-168.5" font-family="Helvetica,sans-Serif" font-size="10.00">uiODPSEventsTreeItemFactory</text>
</a>
</g>
<!-- Node1&#45;&gt;Node14 -->
<g id="edge26" class="edge"><title>Node1&#45;&gt;Node14</title>
<path fill="none" stroke="midnightblue" d="M197.655,-291.149C211.845,-264.152 240.937,-216.327 280,-191 285.912,-187.167 292.484,-184.067 299.276,-181.561"/>
<polygon fill="midnightblue" stroke="midnightblue" points="194.371,-289.886 192.957,-300.386 200.61,-293.06 194.371,-289.886"/>
</g>
<!-- Node15 -->
<g id="node29" class="node"><title>Node15</title>
<a xlink:href="classuiODRandomLineTreeItemFactory.html" target="_top" xlink:title="uiODRandomLineTreeItemFactory">
<polygon fill="white" stroke="black" points="281,-120.5 281,-141.5 447,-141.5 447,-120.5 281,-120.5"/>
<text text-anchor="middle" x="364" y="-128.5" font-family="Helvetica,sans-Serif" font-size="10.00">uiODRandomLineTreeItemFactory</text>
</a>
</g>
<!-- Node1&#45;&gt;Node15 -->
<g id="edge28" class="edge"><title>Node1&#45;&gt;Node15</title>
<path fill="none" stroke="midnightblue" d="M193.863,-290.587C204.83,-256.205 231.811,-186.98 280,-151 285.045,-147.233 290.696,-144.164 296.617,-141.665"/>
<polygon fill="midnightblue" stroke="midnightblue" points="190.427,-289.854 190.858,-300.44 197.123,-291.896 190.427,-289.854"/>
</g>
<!-- Node16 -->
<g id="node31" class="node"><title>Node16</title>
<a xlink:href="classuiODVolrenTreeItemFactory.html" target="_top" xlink:title="uiODVolrenTreeItemFactory">
<polygon fill="white" stroke="black" points="294.5,-80.5 294.5,-101.5 433.5,-101.5 433.5,-80.5 294.5,-80.5"/>
<text text-anchor="middle" x="364" y="-88.5" font-family="Helvetica,sans-Serif" font-size="10.00">uiODVolrenTreeItemFactory</text>
</a>
</g>
<!-- Node1&#45;&gt;Node16 -->
<g id="edge30" class="edge"><title>Node1&#45;&gt;Node16</title>
<path fill="none" stroke="midnightblue" d="M191.351,-290.463C199.127,-249.665 222.331,-158.277 280,-111 284.637,-107.198 289.876,-104.096 295.415,-101.568"/>
<polygon fill="midnightblue" stroke="midnightblue" points="187.9,-289.876 189.586,-300.336 194.791,-291.108 187.9,-289.876"/>
</g>
<!-- Node17 -->
<g id="node33" class="node"><title>Node17</title>
<a xlink:href="classuiODWellTreeItemFactory.html" target="_top" xlink:title="uiODWellTreeItemFactory">
<polygon fill="white" stroke="black" points="298.5,-40.5 298.5,-61.5 429.5,-61.5 429.5,-40.5 298.5,-40.5"/>
<text text-anchor="middle" x="364" y="-48.5" font-family="Helvetica,sans-Serif" font-size="10.00">uiODWellTreeItemFactory</text>
</a>
</g>
<!-- Node1&#45;&gt;Node17 -->
<g id="edge32" class="edge"><title>Node1&#45;&gt;Node17</title>
<path fill="none" stroke="midnightblue" d="M189.609,-290.341C194.387,-243.742 212.702,-129.935 280,-71 285.413,-66.2594 291.75,-62.5934 298.473,-59.7657"/>
<polygon fill="midnightblue" stroke="midnightblue" points="186.112,-290.151 188.683,-300.429 193.082,-290.79 186.112,-290.151"/>
</g>
<!-- Node18 -->
<g id="node35" class="node"><title>Node18</title>
<a xlink:href="classuiODZsliceTreeItemFactory.html" target="_top" xlink:title="uiODZsliceTreeItemFactory">
<polygon fill="white" stroke="black" points="295.5,-0.5 295.5,-21.5 432.5,-21.5 432.5,-0.5 295.5,-0.5"/>
<text text-anchor="middle" x="364" y="-8.5" font-family="Helvetica,sans-Serif" font-size="10.00">uiODZsliceTreeItemFactory</text>
</a>
</g>
<!-- Node1&#45;&gt;Node18 -->
<g id="edge34" class="edge"><title>Node1&#45;&gt;Node18</title>
<path fill="none" stroke="midnightblue" d="M192.019,-290.623C203.891,-232.434 240.459,-67.3616 280,-31 284.524,-26.8396 289.754,-23.4988 295.347,-20.8218"/>
<polygon fill="midnightblue" stroke="midnightblue" points="188.577,-289.985 190.037,-300.479 195.44,-291.365 188.577,-289.985"/>
</g>
<!-- Node2 -->
<g id="node2" class="node"><title>Node2</title>
<a xlink:href="classuiTreeItemFactory.html" target="_top" xlink:title="uiTreeItemFactory">
<polygon fill="white" stroke="black" points="0,-300.5 0,-321.5 96,-321.5 96,-300.5 0,-300.5"/>
<text text-anchor="middle" x="48" y="-308.5" font-family="Helvetica,sans-Serif" font-size="10.00">uiTreeItemFactory</text>
</a>
</g>
<!-- Node2&#45;&gt;Node1 -->
<g id="edge2" class="edge"><title>Node2&#45;&gt;Node1</title>
<path fill="none" stroke="midnightblue" d="M106.38,-311C114.866,-311 123.587,-311 132.024,-311"/>
<polygon fill="midnightblue" stroke="midnightblue" points="106.18,-307.5 96.1801,-311 106.18,-314.5 106.18,-307.5"/>
</g>
</g>
</svg>
