<?xml version="1.0" encoding="UTF-8" standalone="no"?>
<!DOCTYPE svg PUBLIC "-//W3C//DTD SVG 1.1//EN"
 "http://www.w3.org/Graphics/SVG/1.1/DTD/svg11.dtd">
<!-- Generated by graphviz version 2.26.0 (20091210.2329)
 -->
<!-- Title: Line2DInterSectionSet Pages: 1 -->
<svg width="224pt" height="222pt"
 viewBox="0.00 0.00 224.00 222.00" xmlns="http://www.w3.org/2000/svg" xmlns:xlink="http://www.w3.org/1999/xlink">
<g id="graph1" class="graph" transform="scale(1 1) rotate(0) translate(4 218)">
<title>Line2DInterSectionSet</title>
<polygon fill="white" stroke="white" points="-4,5 -4,-218 221,-218 221,5 -4,5"/>
<!-- Node1 -->
<g id="node1" class="node"><title>Node1</title>
<polygon fill="#bfbfbf" stroke="black" points="22.5,-0.5 22.5,-21.5 137.5,-21.5 137.5,-0.5 22.5,-0.5"/>
<text text-anchor="middle" x="80" y="-8.5" font-family="Helvetica,sans-Serif" font-size="10.00">Line2DInterSectionSet</text>
</g>
<!-- Node2 -->
<g id="node2" class="node"><title>Node2</title>
<a xlink:href="classObjectSet.html" target="_top" xlink:title="ObjectSet\&lt; Line2DInterSection \&gt;">
<polygon fill="white" stroke="black" points="-0.5,-60.5 -0.5,-81.5 160.5,-81.5 160.5,-60.5 -0.5,-60.5"/>
<text text-anchor="middle" x="80" y="-68.5" font-family="Helvetica,sans-Serif" font-size="10.00">ObjectSet&lt; Line2DInterSection &gt;</text>
</a>
</g>
<!-- Node2&#45;&gt;Node1 -->
<g id="edge2" class="edge"><title>Node2&#45;&gt;Node1</title>
<path fill="none" stroke="midnightblue" d="M80,-50.2312C80,-40.5922 80,-29.5444 80,-21.6339"/>
<polygon fill="midnightblue" stroke="midnightblue" points="76.5001,-50.2732 80,-60.2732 83.5001,-50.2732 76.5001,-50.2732"/>
</g>
<!-- Node3 -->
<g id="node4" class="node"><title>Node3</title>
<a xlink:href="classOD_1_1Set.html" target="_top" xlink:title="Base class for all sets used in OpendTect. ">
<polygon fill="white" stroke="black" points="60.5,-192.5 60.5,-213.5 113.5,-213.5 113.5,-192.5 60.5,-192.5"/>
<text text-anchor="middle" x="87" y="-200.5" font-family="Helvetica,sans-Serif" font-size="10.00">OD::Set</text>
</a>
</g>
<!-- Node3&#45;&gt;Node2 -->
<g id="edge4" class="edge"><title>Node3&#45;&gt;Node2</title>
<path fill="none" stroke="midnightblue" d="M85.1128,-182.437C84.3631,-173.679 83.5501,-163.346 83,-154 81.475,-128.09 80.6114,-97.5822 80.233,-81.7516"/>
<polygon fill="midnightblue" stroke="midnightblue" points="81.635,-182.843 86.0039,-192.495 88.6077,-182.226 81.635,-182.843"/>
</g>
<!-- Node4 -->
<g id="node6" class="node"><title>Node4</title>
<a xlink:href="classObjectSet.html" target="_top" xlink:title="Set of pointers to objects. ">
<polygon fill="white" stroke="black" points="92,-132.5 92,-153.5 176,-153.5 176,-132.5 92,-132.5"/>
<text text-anchor="middle" x="134" y="-140.5" font-family="Helvetica,sans-Serif" font-size="10.00">ObjectSet&lt; T &gt;</text>
</a>
</g>
<!-- Node3&#45;&gt;Node4 -->
<g id="edge8" class="edge"><title>Node3&#45;&gt;Node4</title>
<path fill="none" stroke="midnightblue" d="M101.584,-184.382C109.503,-174.273 119.007,-162.14 125.67,-153.634"/>
<polygon fill="midnightblue" stroke="midnightblue" points="98.814,-182.243 95.4027,-192.273 104.325,-186.559 98.814,-182.243"/>
</g>
<!-- Node4&#45;&gt;Node2 -->
<g id="edge6" class="edge"><title>Node4&#45;&gt;Node2</title>
<path fill="none" stroke="orange" stroke-dasharray="5,2" d="M119.899,-124.198C109.737,-110.649 96.3885,-92.8514 88.0006,-81.6674"/>
<polygon fill="orange" stroke="orange" points="117.232,-126.476 126.032,-132.376 122.832,-122.276 117.232,-126.476"/>
<text text-anchor="middle" x="163.5" y="-104.5" font-family="Helvetica,sans-Serif" font-size="10.00"> &lt; Line2DInterSection &gt;</text>
</g>
</g>
</svg>
