<?xml version="1.0" encoding="UTF-8" standalone="no"?>
<!DOCTYPE svg PUBLIC "-//W3C//DTD SVG 1.1//EN"
 "http://www.w3.org/Graphics/SVG/1.1/DTD/svg11.dtd">
<!-- Generated by graphviz version 2.26.0 (20091210.2329)
 -->
<!-- Title: Pos::FilterSet Pages: 1 -->
<svg width="202pt" height="146pt"
 viewBox="0.00 0.00 202.00 146.00" xmlns="http://www.w3.org/2000/svg" xmlns:xlink="http://www.w3.org/1999/xlink">
<g id="graph1" class="graph" transform="scale(1 1) rotate(0) translate(4 142)">
<title>Pos::FilterSet</title>
<polygon fill="white" stroke="white" points="-4,5 -4,-142 199,-142 199,5 -4,5"/>
<!-- Node1 -->
<g id="node1" class="node"><title>Node1</title>
<polygon fill="#bfbfbf" stroke="black" points="58.5,-58.5 58.5,-79.5 135.5,-79.5 135.5,-58.5 58.5,-58.5"/>
<text text-anchor="middle" x="97" y="-66.5" font-family="Helvetica,sans-Serif" font-size="10.00">Pos::FilterSet</text>
</g>
<!-- Node3 -->
<g id="node5" class="node"><title>Node3</title>
<a xlink:href="classPos_1_1FilterSet2D.html" target="_top" xlink:title="2D FilterSet ">
<polygon fill="white" stroke="black" points="-0.5,-0.5 -0.5,-21.5 88.5,-21.5 88.5,-0.5 -0.5,-0.5"/>
<text text-anchor="middle" x="44" y="-8.5" font-family="Helvetica,sans-Serif" font-size="10.00">Pos::FilterSet2D</text>
</a>
</g>
<!-- Node1&#45;&gt;Node3 -->
<g id="edge4" class="edge"><title>Node1&#45;&gt;Node3</title>
<path fill="none" stroke="midnightblue" d="M80.3963,-50.8299C71.6037,-41.2078 61.1137,-29.7282 53.6594,-21.5707"/>
<polygon fill="midnightblue" stroke="midnightblue" points="77.9495,-53.3408 87.279,-58.3619 83.117,-48.6188 77.9495,-53.3408"/>
</g>
<!-- Node4 -->
<g id="node7" class="node"><title>Node4</title>
<a xlink:href="classPos_1_1FilterSet3D.html" target="_top" xlink:title="3D FilterSet ">
<polygon fill="white" stroke="black" points="105.5,-0.5 105.5,-21.5 194.5,-21.5 194.5,-0.5 105.5,-0.5"/>
<text text-anchor="middle" x="150" y="-8.5" font-family="Helvetica,sans-Serif" font-size="10.00">Pos::FilterSet3D</text>
</a>
</g>
<!-- Node1&#45;&gt;Node4 -->
<g id="edge6" class="edge"><title>Node1&#45;&gt;Node4</title>
<path fill="none" stroke="midnightblue" d="M113.604,-50.8299C122.396,-41.2078 132.886,-29.7282 140.341,-21.5707"/>
<polygon fill="midnightblue" stroke="midnightblue" points="110.883,-48.6188 106.721,-58.3619 116.051,-53.3408 110.883,-48.6188"/>
</g>
<!-- Node2 -->
<g id="node2" class="node"><title>Node2</title>
<a xlink:href="classPos_1_1Filter.html" target="_top" xlink:title="Decides whether a given position should be included. ">
<polygon fill="white" stroke="black" points="66,-116.5 66,-137.5 128,-137.5 128,-116.5 66,-116.5"/>
<text text-anchor="middle" x="97" y="-124.5" font-family="Helvetica,sans-Serif" font-size="10.00">Pos::Filter</text>
</a>
</g>
<!-- Node2&#45;&gt;Node1 -->
<g id="edge2" class="edge"><title>Node2&#45;&gt;Node1</title>
<path fill="none" stroke="midnightblue" d="M97,-106.191C97,-97.1684 97,-86.9941 97,-79.5707"/>
<polygon fill="midnightblue" stroke="midnightblue" points="93.5001,-106.362 97,-116.362 100.5,-106.362 93.5001,-106.362"/>
</g>
</g>
</svg>
