<?xml version="1.0" encoding="UTF-8" standalone="no"?>
<!DOCTYPE svg PUBLIC "-//W3C//DTD SVG 1.1//EN"
 "http://www.w3.org/Graphics/SVG/1.1/DTD/svg11.dtd">
<!-- Generated by graphviz version 2.26.0 (20091210.2329)
 -->
<!-- Title: visSurvey::RandomPosBodyDisplay Pages: 1 -->
<svg width="282pt" height="276pt"
 viewBox="0.00 0.00 282.00 276.00" xmlns="http://www.w3.org/2000/svg" xmlns:xlink="http://www.w3.org/1999/xlink">
<g id="graph1" class="graph" transform="scale(1 1) rotate(0) translate(4 272)">
<title>visSurvey::RandomPosBodyDisplay</title>
<polygon fill="white" stroke="white" points="-4,5 -4,-272 279,-272 279,5 -4,5"/>
<!-- Node1 -->
<g id="node1" class="node"><title>Node1</title>
<polygon fill="#bfbfbf" stroke="black" points="67.5,-1 67.5,-35 210.5,-35 210.5,-1 67.5,-1"/>
<text text-anchor="start" x="75.5" y="-22" font-family="Helvetica,sans-Serif" font-size="10.00">visSurvey::RandomPosBody</text>
<text text-anchor="middle" x="139" y="-9" font-family="Helvetica,sans-Serif" font-size="10.00">Display</text>
</g>
<!-- Node2 -->
<g id="node2" class="node"><title>Node2</title>
<a xlink:href="classvisBase_1_1VisualObjectImpl.html" target="_top" xlink:title="visBase::VisualObjectImpl">
<polygon fill="white" stroke="black" points="0,-72.5 0,-93.5 132,-93.5 132,-72.5 0,-72.5"/>
<text text-anchor="middle" x="66" y="-80.5" font-family="Helvetica,sans-Serif" font-size="10.00">visBase::VisualObjectImpl</text>
</a>
</g>
<!-- Node2&#45;&gt;Node1 -->
<g id="edge2" class="edge"><title>Node2&#45;&gt;Node1</title>
<path fill="none" stroke="midnightblue" d="M85.6033,-65.545C96.2039,-56.1062 109.244,-44.4949 119.784,-35.1099"/>
<polygon fill="midnightblue" stroke="midnightblue" points="83.1954,-63.0026 78.0545,-72.2666 87.8504,-68.2305 83.1954,-63.0026"/>
</g>
<!-- Node3 -->
<g id="node4" class="node"><title>Node3</title>
<a xlink:href="classvisBase_1_1VisualObject.html" target="_top" xlink:title="visBase::VisualObject">
<polygon fill="white" stroke="black" points="9.5,-130.5 9.5,-151.5 122.5,-151.5 122.5,-130.5 9.5,-130.5"/>
<text text-anchor="middle" x="66" y="-138.5" font-family="Helvetica,sans-Serif" font-size="10.00">visBase::VisualObject</text>
</a>
</g>
<!-- Node3&#45;&gt;Node2 -->
<g id="edge4" class="edge"><title>Node3&#45;&gt;Node2</title>
<path fill="none" stroke="midnightblue" d="M66,-120.191C66,-111.168 66,-100.994 66,-93.5707"/>
<polygon fill="midnightblue" stroke="midnightblue" points="62.5001,-120.362 66,-130.362 69.5001,-120.362 62.5001,-120.362"/>
</g>
<!-- Node4 -->
<g id="node6" class="node"><title>Node4</title>
<a xlink:href="classvisBase_1_1DataObject.html" target="_top" xlink:title="DataObject is the base class off all objects that are used in Visualization and ought to be shared in...">
<polygon fill="white" stroke="black" points="12.5,-188.5 12.5,-209.5 119.5,-209.5 119.5,-188.5 12.5,-188.5"/>
<text text-anchor="middle" x="66" y="-196.5" font-family="Helvetica,sans-Serif" font-size="10.00">visBase::DataObject</text>
</a>
</g>
<!-- Node4&#45;&gt;Node3 -->
<g id="edge6" class="edge"><title>Node4&#45;&gt;Node3</title>
<path fill="none" stroke="midnightblue" d="M66,-178.191C66,-169.168 66,-158.994 66,-151.571"/>
<polygon fill="midnightblue" stroke="midnightblue" points="62.5001,-178.362 66,-188.362 69.5001,-178.362 62.5001,-178.362"/>
</g>
<!-- Node5 -->
<g id="node8" class="node"><title>Node5</title>
<a xlink:href="classCallBacker.html" target="_top" xlink:title="To be able to send and/or receive CallBacks, inherit from this class. ">
<polygon fill="white" stroke="black" points="33.5,-246.5 33.5,-267.5 98.5,-267.5 98.5,-246.5 33.5,-246.5"/>
<text text-anchor="middle" x="66" y="-254.5" font-family="Helvetica,sans-Serif" font-size="10.00">CallBacker</text>
</a>
</g>
<!-- Node5&#45;&gt;Node4 -->
<g id="edge8" class="edge"><title>Node5&#45;&gt;Node4</title>
<path fill="none" stroke="midnightblue" d="M66,-236.191C66,-227.168 66,-216.994 66,-209.571"/>
<polygon fill="midnightblue" stroke="midnightblue" points="62.5001,-236.362 66,-246.362 69.5001,-236.362 62.5001,-236.362"/>
</g>
<!-- Node6 -->
<g id="node10" class="node"><title>Node6</title>
<a xlink:href="classvisSurvey_1_1SurveyObject.html" target="_top" xlink:title="Base class for all &#39;Display&#39; objects. ">
<polygon fill="white" stroke="black" points="149.5,-72.5 149.5,-93.5 274.5,-93.5 274.5,-72.5 149.5,-72.5"/>
<text text-anchor="middle" x="212" y="-80.5" font-family="Helvetica,sans-Serif" font-size="10.00">visSurvey::SurveyObject</text>
</a>
</g>
<!-- Node6&#45;&gt;Node1 -->
<g id="edge10" class="edge"><title>Node6&#45;&gt;Node1</title>
<path fill="none" stroke="midnightblue" d="M192.397,-65.545C181.796,-56.1062 168.756,-44.4949 158.216,-35.1099"/>
<polygon fill="midnightblue" stroke="midnightblue" points="190.15,-68.2305 199.946,-72.2666 194.805,-63.0026 190.15,-68.2305"/>
</g>
</g>
</svg>
