<?xml version="1.0" encoding="UTF-8" standalone="no"?>
<!DOCTYPE svg PUBLIC "-//W3C//DTD SVG 1.1//EN"
 "http://www.w3.org/Graphics/SVG/1.1/DTD/svg11.dtd">
<!-- Generated by graphviz version 2.26.0 (20091210.2329)
 -->
<!-- Title: uiBatchProcDlg Pages: 1 -->
<svg width="326pt" height="378pt"
 viewBox="0.00 0.00 326.00 378.00" xmlns="http://www.w3.org/2000/svg" xmlns:xlink="http://www.w3.org/1999/xlink">
<g id="graph1" class="graph" transform="scale(1 1) rotate(0) translate(4 374)">
<title>uiBatchProcDlg</title>
<polygon fill="white" stroke="white" points="-4,5 -4,-374 323,-374 323,5 -4,5"/>
<!-- Node1 -->
<g id="node1" class="node"><title>Node1</title>
<polygon fill="#bfbfbf" stroke="black" points="152.5,-116.5 152.5,-137.5 237.5,-137.5 237.5,-116.5 152.5,-116.5"/>
<text text-anchor="middle" x="195" y="-124.5" font-family="Helvetica,sans-Serif" font-size="10.00">uiBatchProcDlg</text>
</g>
<!-- Node6 -->
<g id="node11" class="node"><title>Node6</title>
<a xlink:href="classPreStack_1_1uiBatchProcSetup.html" target="_top" xlink:title="PreStack::uiBatchProcSetup">
<polygon fill="white" stroke="black" points="0,-58.5 0,-79.5 142,-79.5 142,-58.5 0,-58.5"/>
<text text-anchor="middle" x="71" y="-66.5" font-family="Helvetica,sans-Serif" font-size="10.00">PreStack::uiBatchProcSetup</text>
</a>
</g>
<!-- Node1&#45;&gt;Node6 -->
<g id="edge10" class="edge"><title>Node1&#45;&gt;Node6</title>
<path fill="none" stroke="midnightblue" d="M163.372,-112.206C141.618,-102.031 113.238,-88.7567 93.7074,-79.6212"/>
<polygon fill="midnightblue" stroke="midnightblue" points="162.004,-115.43 172.545,-116.497 164.969,-109.089 162.004,-115.43"/>
</g>
<!-- Node7 -->
<g id="node13" class="node"><title>Node7</title>
<a xlink:href="classuiAttrEMOut.html" target="_top" xlink:title="Brief Base class Earth Model Output Batch dialog. Used for calculating attributes in relation with su...">
<polygon fill="white" stroke="black" points="159.5,-58.5 159.5,-79.5 230.5,-79.5 230.5,-58.5 159.5,-58.5"/>
<text text-anchor="middle" x="195" y="-66.5" font-family="Helvetica,sans-Serif" font-size="10.00">uiAttrEMOut</text>
</a>
</g>
<!-- Node1&#45;&gt;Node7 -->
<g id="edge12" class="edge"><title>Node1&#45;&gt;Node7</title>
<path fill="none" stroke="midnightblue" d="M195,-106.191C195,-97.1684 195,-86.9941 195,-79.5707"/>
<polygon fill="midnightblue" stroke="midnightblue" points="191.5,-106.362 195,-116.362 198.5,-106.362 191.5,-106.362"/>
</g>
<!-- Node10 -->
<g id="node19" class="node"><title>Node10</title>
<a xlink:href="classuiAttrVolOut.html" target="_top" xlink:title="Dialog for creating volume output. ">
<polygon fill="white" stroke="black" points="248,-58.5 248,-79.5 318,-79.5 318,-58.5 248,-58.5"/>
<text text-anchor="middle" x="283" y="-66.5" font-family="Helvetica,sans-Serif" font-size="10.00">uiAttrVolOut</text>
</a>
</g>
<!-- Node1&#45;&gt;Node10 -->
<g id="edge18" class="edge"><title>Node1&#45;&gt;Node10</title>
<path fill="none" stroke="midnightblue" d="M219.547,-110.821C234.704,-100.831 253.718,-88.2993 266.962,-79.5707"/>
<polygon fill="midnightblue" stroke="midnightblue" points="217.564,-107.936 211.141,-116.362 221.416,-113.781 217.564,-107.936"/>
</g>
<!-- Node2 -->
<g id="node2" class="node"><title>Node2</title>
<a xlink:href="classuiDialog.html" target="_top" xlink:title="uiDialog">
<polygon fill="white" stroke="black" points="169,-174.5 169,-195.5 221,-195.5 221,-174.5 169,-174.5"/>
<text text-anchor="middle" x="195" y="-182.5" font-family="Helvetica,sans-Serif" font-size="10.00">uiDialog</text>
</a>
</g>
<!-- Node2&#45;&gt;Node1 -->
<g id="edge2" class="edge"><title>Node2&#45;&gt;Node1</title>
<path fill="none" stroke="midnightblue" d="M195,-164.191C195,-155.168 195,-144.994 195,-137.571"/>
<polygon fill="midnightblue" stroke="midnightblue" points="191.5,-164.362 195,-174.362 198.5,-164.362 191.5,-164.362"/>
</g>
<!-- Node3 -->
<g id="node4" class="node"><title>Node3</title>
<a xlink:href="classuiMainWin.html" target="_top" xlink:title="User interface main window. ">
<polygon fill="white" stroke="black" points="164,-232.5 164,-253.5 226,-253.5 226,-232.5 164,-232.5"/>
<text text-anchor="middle" x="195" y="-240.5" font-family="Helvetica,sans-Serif" font-size="10.00">uiMainWin</text>
</a>
</g>
<!-- Node3&#45;&gt;Node2 -->
<g id="edge4" class="edge"><title>Node3&#45;&gt;Node2</title>
<path fill="none" stroke="midnightblue" d="M195,-222.191C195,-213.168 195,-202.994 195,-195.571"/>
<polygon fill="midnightblue" stroke="midnightblue" points="191.5,-222.362 195,-232.362 198.5,-222.362 191.5,-222.362"/>
</g>
<!-- Node4 -->
<g id="node6" class="node"><title>Node4</title>
<a xlink:href="classuiParent.html" target="_top" xlink:title="uiParent">
<polygon fill="white" stroke="black" points="168.5,-290.5 168.5,-311.5 221.5,-311.5 221.5,-290.5 168.5,-290.5"/>
<text text-anchor="middle" x="195" y="-298.5" font-family="Helvetica,sans-Serif" font-size="10.00">uiParent</text>
</a>
</g>
<!-- Node4&#45;&gt;Node3 -->
<g id="edge6" class="edge"><title>Node4&#45;&gt;Node3</title>
<path fill="none" stroke="midnightblue" d="M195,-280.191C195,-271.168 195,-260.994 195,-253.571"/>
<polygon fill="midnightblue" stroke="midnightblue" points="191.5,-280.362 195,-290.362 198.5,-280.362 191.5,-280.362"/>
</g>
<!-- Node5 -->
<g id="node8" class="node"><title>Node5</title>
<polygon fill="white" stroke="#bfbfbf" points="157.5,-348.5 157.5,-369.5 232.5,-369.5 232.5,-348.5 157.5,-348.5"/>
<text text-anchor="middle" x="195" y="-356.5" font-family="Helvetica,sans-Serif" font-size="10.00">uiBaseObject</text>
</g>
<!-- Node5&#45;&gt;Node4 -->
<g id="edge8" class="edge"><title>Node5&#45;&gt;Node4</title>
<path fill="none" stroke="midnightblue" d="M195,-338.191C195,-329.168 195,-318.994 195,-311.571"/>
<polygon fill="midnightblue" stroke="midnightblue" points="191.5,-338.362 195,-348.362 198.5,-338.362 191.5,-338.362"/>
</g>
<!-- Node8 -->
<g id="node15" class="node"><title>Node8</title>
<a xlink:href="classuiAttrSurfaceOut.html" target="_top" xlink:title="Surface Output Batch dialog. Used for calculating attributes on surfaces. ">
<polygon fill="white" stroke="black" points="98.5,-0.5 98.5,-21.5 187.5,-21.5 187.5,-0.5 98.5,-0.5"/>
<text text-anchor="middle" x="143" y="-8.5" font-family="Helvetica,sans-Serif" font-size="10.00">uiAttrSurfaceOut</text>
</a>
</g>
<!-- Node7&#45;&gt;Node8 -->
<g id="edge14" class="edge"><title>Node7&#45;&gt;Node8</title>
<path fill="none" stroke="midnightblue" d="M178.71,-50.8299C170.083,-41.2078 159.791,-29.7282 152.477,-21.5707"/>
<polygon fill="midnightblue" stroke="midnightblue" points="176.181,-53.2526 185.462,-58.3619 181.393,-48.5798 176.181,-53.2526"/>
</g>
<!-- Node9 -->
<g id="node17" class="node"><title>Node9</title>
<a xlink:href="classuiAttrTrcSelOut.html" target="_top" xlink:title="Trace Selection Output Batch dialog. Used for calculating attributes between surfaces or withing a us...">
<polygon fill="white" stroke="black" points="205,-0.5 205,-21.5 289,-21.5 289,-0.5 205,-0.5"/>
<text text-anchor="middle" x="247" y="-8.5" font-family="Helvetica,sans-Serif" font-size="10.00">uiAttrTrcSelOut</text>
</a>
</g>
<!-- Node7&#45;&gt;Node9 -->
<g id="edge16" class="edge"><title>Node7&#45;&gt;Node9</title>
<path fill="none" stroke="midnightblue" d="M211.29,-50.8299C219.917,-41.2078 230.209,-29.7282 237.523,-21.5707"/>
<polygon fill="midnightblue" stroke="midnightblue" points="208.607,-48.5798 204.538,-58.3619 213.819,-53.2526 208.607,-48.5798"/>
</g>
</g>
</svg>
