<?xml version="1.0" encoding="UTF-8" standalone="no"?>
<!DOCTYPE svg PUBLIC "-//W3C//DTD SVG 1.1//EN"
 "http://www.w3.org/Graphics/SVG/1.1/DTD/svg11.dtd">
<!-- Generated by graphviz version 2.26.0 (20091210.2329)
 -->
<!-- Title: visBase::HorizonTileResolutionTesselator Pages: 1 -->
<svg width="162pt" height="276pt"
 viewBox="0.00 0.00 162.00 276.00" xmlns="http://www.w3.org/2000/svg" xmlns:xlink="http://www.w3.org/1999/xlink">
<g id="graph1" class="graph" transform="scale(1 1) rotate(0) translate(4 272)">
<title>visBase::HorizonTileResolutionTesselator</title>
<polygon fill="white" stroke="white" points="-4,5 -4,-272 159,-272 159,5 -4,5"/>
<!-- Node1 -->
<g id="node1" class="node"><title>Node1</title>
<polygon fill="#bfbfbf" stroke="black" points="0,-1 0,-35 154,-35 154,-1 0,-1"/>
<text text-anchor="start" x="8" y="-22" font-family="Helvetica,sans-Serif" font-size="10.00">visBase::HorizonTileResolution</text>
<text text-anchor="middle" x="77" y="-9" font-family="Helvetica,sans-Serif" font-size="10.00">Tesselator</text>
</g>
<!-- Node2 -->
<g id="node2" class="node"><title>Node2</title>
<a xlink:href="classParallelTask.html" target="_top" xlink:title="Generalization of a task that can be run in parallel. ">
<polygon fill="white" stroke="black" points="41.5,-72.5 41.5,-93.5 112.5,-93.5 112.5,-72.5 41.5,-72.5"/>
<text text-anchor="middle" x="77" y="-80.5" font-family="Helvetica,sans-Serif" font-size="10.00">ParallelTask</text>
</a>
</g>
<!-- Node2&#45;&gt;Node1 -->
<g id="edge2" class="edge"><title>Node2&#45;&gt;Node1</title>
<path fill="none" stroke="midnightblue" d="M77,-62.1306C77,-53.4049 77,-43.3908 77,-35.1099"/>
<polygon fill="midnightblue" stroke="midnightblue" points="73.5001,-62.2665 77,-72.2666 80.5001,-62.2666 73.5001,-62.2665"/>
</g>
<!-- Node3 -->
<g id="node4" class="node"><title>Node3</title>
<a xlink:href="classTask.html" target="_top" xlink:title="Generalization of something (e.g. a computation) that needs to be done in multiple steps...">
<polygon fill="white" stroke="black" points="58,-130.5 58,-151.5 96,-151.5 96,-130.5 58,-130.5"/>
<text text-anchor="middle" x="77" y="-138.5" font-family="Helvetica,sans-Serif" font-size="10.00">Task</text>
</a>
</g>
<!-- Node3&#45;&gt;Node2 -->
<g id="edge4" class="edge"><title>Node3&#45;&gt;Node2</title>
<path fill="none" stroke="midnightblue" d="M77,-120.191C77,-111.168 77,-100.994 77,-93.5707"/>
<polygon fill="midnightblue" stroke="midnightblue" points="73.5001,-120.362 77,-130.362 80.5001,-120.362 73.5001,-120.362"/>
</g>
<!-- Node4 -->
<g id="node6" class="node"><title>Node4</title>
<a xlink:href="classNamedObject.html" target="_top" xlink:title="Object with a name. ">
<polygon fill="white" stroke="black" points="38.5,-188.5 38.5,-209.5 115.5,-209.5 115.5,-188.5 38.5,-188.5"/>
<text text-anchor="middle" x="77" y="-196.5" font-family="Helvetica,sans-Serif" font-size="10.00">NamedObject</text>
</a>
</g>
<!-- Node4&#45;&gt;Node3 -->
<g id="edge6" class="edge"><title>Node4&#45;&gt;Node3</title>
<path fill="none" stroke="midnightblue" d="M77,-178.191C77,-169.168 77,-158.994 77,-151.571"/>
<polygon fill="midnightblue" stroke="midnightblue" points="73.5001,-178.362 77,-188.362 80.5001,-178.362 73.5001,-178.362"/>
</g>
<!-- Node5 -->
<g id="node8" class="node"><title>Node5</title>
<a xlink:href="classCallBacker.html" target="_top" xlink:title="To be able to send and/or receive CallBacks, inherit from this class. ">
<polygon fill="white" stroke="black" points="44.5,-246.5 44.5,-267.5 109.5,-267.5 109.5,-246.5 44.5,-246.5"/>
<text text-anchor="middle" x="77" y="-254.5" font-family="Helvetica,sans-Serif" font-size="10.00">CallBacker</text>
</a>
</g>
<!-- Node5&#45;&gt;Node4 -->
<g id="edge8" class="edge"><title>Node5&#45;&gt;Node4</title>
<path fill="none" stroke="midnightblue" d="M77,-236.191C77,-227.168 77,-216.994 77,-209.571"/>
<polygon fill="midnightblue" stroke="midnightblue" points="73.5001,-236.362 77,-246.362 80.5001,-236.362 73.5001,-236.362"/>
</g>
</g>
</svg>
