<?xml version="1.0" encoding="UTF-8" standalone="no"?>
<!DOCTYPE svg PUBLIC "-//W3C//DTD SVG 1.1//EN"
 "http://www.w3.org/Graphics/SVG/1.1/DTD/svg11.dtd">
<!-- Generated by graphviz version 2.26.0 (20091210.2329)
 -->
<!-- Title: EM::EMUndoEvent Pages: 1 -->
<svg width="406pt" height="190pt"
 viewBox="0.00 0.00 406.00 190.00" xmlns="http://www.w3.org/2000/svg" xmlns:xlink="http://www.w3.org/1999/xlink">
<g id="graph1" class="graph" transform="scale(1 1) rotate(0) translate(4 186)">
<title>EM::EMUndoEvent</title>
<polygon fill="white" stroke="white" points="-4,5 -4,-186 403,-186 403,5 -4,5"/>
<!-- Node1 -->
<g id="node1" class="node"><title>Node1</title>
<polygon fill="#bfbfbf" stroke="black" points="102.5,-80.5 102.5,-101.5 203.5,-101.5 203.5,-80.5 102.5,-80.5"/>
<text text-anchor="middle" x="153" y="-88.5" font-family="Helvetica,sans-Serif" font-size="10.00">EM::EMUndoEvent</text>
</g>
<!-- Node3 -->
<g id="node5" class="node"><title>Node3</title>
<a xlink:href="classEM_1_1PosIDChangeEvent.html" target="_top" xlink:title="Saves information from a EMObject::changePosID call. ">
<polygon fill="white" stroke="black" points="256.5,-160.5 256.5,-181.5 381.5,-181.5 381.5,-160.5 256.5,-160.5"/>
<text text-anchor="middle" x="319" y="-168.5" font-family="Helvetica,sans-Serif" font-size="10.00">EM::PosIDChangeEvent</text>
</a>
</g>
<!-- Node1&#45;&gt;Node3 -->
<g id="edge4" class="edge"><title>Node1&#45;&gt;Node3</title>
<path fill="none" stroke="midnightblue" d="M173.417,-108.222C190.288,-121.649 215.384,-139.834 240,-151 248.246,-154.74 257.307,-157.861 266.259,-160.437"/>
<polygon fill="midnightblue" stroke="midnightblue" points="175.357,-105.289 165.39,-101.696 170.941,-110.72 175.357,-105.289"/>
</g>
<!-- Node4 -->
<g id="node7" class="node"><title>Node4</title>
<a xlink:href="classEM_1_1SetAllHor3DPosUndoEvent.html" target="_top" xlink:title="UndoEvent for setting all positions on a EM::Horizon3D section. ">
<polygon fill="white" stroke="black" points="240,-120.5 240,-141.5 398,-141.5 398,-120.5 240,-120.5"/>
<text text-anchor="middle" x="319" y="-128.5" font-family="Helvetica,sans-Serif" font-size="10.00">EM::SetAllHor3DPosUndoEvent</text>
</a>
</g>
<!-- Node1&#45;&gt;Node4 -->
<g id="edge6" class="edge"><title>Node1&#45;&gt;Node4</title>
<path fill="none" stroke="midnightblue" d="M206.581,-103.911C228.828,-109.272 254.314,-115.413 275.389,-120.491"/>
<polygon fill="midnightblue" stroke="midnightblue" points="207.156,-100.45 196.615,-101.51 205.516,-107.255 207.156,-100.45"/>
</g>
<!-- Node5 -->
<g id="node9" class="node"><title>Node5</title>
<a xlink:href="classEM_1_1SetPosAttribUndoEvent.html" target="_top" xlink:title="UndoEvent for setting position attribute. ">
<polygon fill="white" stroke="black" points="248,-80.5 248,-101.5 390,-101.5 390,-80.5 248,-80.5"/>
<text text-anchor="middle" x="319" y="-88.5" font-family="Helvetica,sans-Serif" font-size="10.00">EM::SetPosAttribUndoEvent</text>
</a>
</g>
<!-- Node1&#45;&gt;Node5 -->
<g id="edge8" class="edge"><title>Node1&#45;&gt;Node5</title>
<path fill="none" stroke="midnightblue" d="M214.047,-91C225.036,-91 236.579,-91 247.826,-91"/>
<polygon fill="midnightblue" stroke="midnightblue" points="213.707,-87.5001 203.707,-91 213.707,-94.5001 213.707,-87.5001"/>
</g>
<!-- Node6 -->
<g id="node11" class="node"><title>Node6</title>
<a xlink:href="classEM_1_1SetPosUndoEvent.html" target="_top" xlink:title="EM::SetPosUndoEvent">
<polygon fill="white" stroke="black" points="259.5,-40.5 259.5,-61.5 378.5,-61.5 378.5,-40.5 259.5,-40.5"/>
<text text-anchor="middle" x="319" y="-48.5" font-family="Helvetica,sans-Serif" font-size="10.00">EM::SetPosUndoEvent</text>
</a>
</g>
<!-- Node1&#45;&gt;Node6 -->
<g id="edge10" class="edge"><title>Node1&#45;&gt;Node6</title>
<path fill="none" stroke="midnightblue" d="M206.581,-78.089C228.828,-72.7282 254.314,-66.587 275.389,-61.5087"/>
<polygon fill="midnightblue" stroke="midnightblue" points="205.516,-74.7452 196.615,-80.4905 207.156,-81.5504 205.516,-74.7452"/>
</g>
<!-- Node7 -->
<g id="node13" class="node"><title>Node7</title>
<a xlink:href="classEM_1_1SetPrefColorEvent.html" target="_top" xlink:title="UndoEvent to set preferred Color. ">
<polygon fill="white" stroke="black" points="259.5,-0.5 259.5,-21.5 378.5,-21.5 378.5,-0.5 259.5,-0.5"/>
<text text-anchor="middle" x="319" y="-8.5" font-family="Helvetica,sans-Serif" font-size="10.00">EM::SetPrefColorEvent</text>
</a>
</g>
<!-- Node1&#45;&gt;Node7 -->
<g id="edge12" class="edge"><title>Node1&#45;&gt;Node7</title>
<path fill="none" stroke="midnightblue" d="M173.417,-73.7779C190.288,-60.3506 215.384,-42.166 240,-31 248.246,-27.2595 257.307,-24.1393 266.259,-21.563"/>
<polygon fill="midnightblue" stroke="midnightblue" points="170.941,-71.2796 165.39,-80.3036 175.357,-76.7112 170.941,-71.2796"/>
</g>
<!-- Node2 -->
<g id="node2" class="node"><title>Node2</title>
<a xlink:href="classUndoEvent.html" target="_top" xlink:title="Holds the information on how to undo/redo something. ">
<polygon fill="white" stroke="black" points="0.5,-80.5 0.5,-101.5 65.5,-101.5 65.5,-80.5 0.5,-80.5"/>
<text text-anchor="middle" x="33" y="-88.5" font-family="Helvetica,sans-Serif" font-size="10.00">UndoEvent</text>
</a>
</g>
<!-- Node2&#45;&gt;Node1 -->
<g id="edge2" class="edge"><title>Node2&#45;&gt;Node1</title>
<path fill="none" stroke="midnightblue" d="M75.8927,-91C84.4219,-91 93.4543,-91 102.218,-91"/>
<polygon fill="midnightblue" stroke="midnightblue" points="75.7906,-87.5001 65.7905,-91 75.7905,-94.5001 75.7906,-87.5001"/>
</g>
</g>
</svg>
