<?xml version="1.0" encoding="UTF-8" standalone="no"?>
<!DOCTYPE svg PUBLIC "-//W3C//DTD SVG 1.1//EN"
 "http://www.w3.org/Graphics/SVG/1.1/DTD/svg11.dtd">
<!-- Generated by graphviz version 2.26.0 (20091210.2329)
 -->
<!-- Title: BendPointBasedMathFunction&lt; xT, yT &gt; Pages: 1 -->
<svg width="266pt" height="276pt"
 viewBox="0.00 0.00 266.00 276.00" xmlns="http://www.w3.org/2000/svg" xmlns:xlink="http://www.w3.org/1999/xlink">
<g id="graph1" class="graph" transform="scale(1 1) rotate(0) translate(4 272)">
<title>BendPointBasedMathFunction&lt; xT, yT &gt;</title>
<polygon fill="white" stroke="white" points="-4,5 -4,-272 263,-272 263,5 -4,5"/>
<!-- Node1 -->
<g id="node1" class="node"><title>Node1</title>
<polygon fill="#bfbfbf" stroke="black" points="24.5,-1 24.5,-35 173.5,-35 173.5,-1 24.5,-1"/>
<text text-anchor="start" x="32.5" y="-22" font-family="Helvetica,sans-Serif" font-size="10.00">BendPointBasedMathFunction</text>
<text text-anchor="middle" x="99" y="-9" font-family="Helvetica,sans-Serif" font-size="10.00">&lt; xT, yT &gt;</text>
</g>
<!-- Node2 -->
<g id="node2" class="node"><title>Node2</title>
<a xlink:href="classMathFunction.html" target="_top" xlink:title="MathFunction\&lt; yT, xT \&gt;">
<polygon fill="white" stroke="black" points="38,-74.5 38,-95.5 160,-95.5 160,-74.5 38,-74.5"/>
<text text-anchor="middle" x="99" y="-82.5" font-family="Helvetica,sans-Serif" font-size="10.00">MathFunction&lt; yT, xT &gt;</text>
</a>
</g>
<!-- Node2&#45;&gt;Node1 -->
<g id="edge2" class="edge"><title>Node2&#45;&gt;Node1</title>
<path fill="none" stroke="midnightblue" d="M99,-64.1655C99,-54.7973 99,-43.8796 99,-35.0139"/>
<polygon fill="midnightblue" stroke="midnightblue" points="95.5001,-64.2353 99,-74.2353 102.5,-64.2353 95.5001,-64.2353"/>
</g>
<!-- Node3 -->
<g id="node4" class="node"><title>Node3</title>
<a xlink:href="classMathFunctionND.html" target="_top" xlink:title="MathFunctionND\&lt; yT,\l xT \&gt;">
<polygon fill="white" stroke="black" points="0,-147 0,-181 114,-181 114,-147 0,-147"/>
<text text-anchor="start" x="8" y="-168" font-family="Helvetica,sans-Serif" font-size="10.00">MathFunctionND&lt; yT,</text>
<text text-anchor="middle" x="57" y="-155" font-family="Helvetica,sans-Serif" font-size="10.00"> xT &gt;</text>
</a>
</g>
<!-- Node3&#45;&gt;Node2 -->
<g id="edge4" class="edge"><title>Node3&#45;&gt;Node2</title>
<path fill="none" stroke="midnightblue" d="M70.8945,-137.865C78.5606,-123.445 87.659,-106.332 93.382,-95.5672"/>
<polygon fill="midnightblue" stroke="midnightblue" points="67.7173,-136.385 66.1134,-146.858 73.8981,-139.671 67.7173,-136.385"/>
</g>
<!-- Node4 -->
<g id="node6" class="node"><title>Node4</title>
<a xlink:href="classMathFunctionND.html" target="_top" xlink:title="Multidimensional Mathematical function. ">
<polygon fill="white" stroke="black" points="76,-233 76,-267 192,-267 192,-233 76,-233"/>
<text text-anchor="start" x="84" y="-254" font-family="Helvetica,sans-Serif" font-size="10.00">MathFunctionND&lt; RT,</text>
<text text-anchor="middle" x="134" y="-241" font-family="Helvetica,sans-Serif" font-size="10.00"> PT &gt;</text>
</a>
</g>
<!-- Node4&#45;&gt;Node3 -->
<g id="edge6" class="edge"><title>Node4&#45;&gt;Node3</title>
<path fill="none" stroke="orange" stroke-dasharray="5,2" d="M111.73,-225.127C99.0812,-211 83.5712,-193.677 72.2961,-181.084"/>
<polygon fill="orange" stroke="orange" points="109.14,-227.481 118.418,-232.597 114.355,-222.812 109.14,-227.481"/>
<text text-anchor="middle" x="125" y="-204.5" font-family="Helvetica,sans-Serif" font-size="10.00"> &lt; yT, xT &gt;</text>
</g>
<!-- Node5 -->
<g id="node8" class="node"><title>Node5</title>
<a xlink:href="classMathFunction.html" target="_top" xlink:title="Mathematical function. ">
<polygon fill="white" stroke="black" points="132,-153.5 132,-174.5 258,-174.5 258,-153.5 132,-153.5"/>
<text text-anchor="middle" x="195" y="-161.5" font-family="Helvetica,sans-Serif" font-size="10.00">MathFunction&lt; RT, PT &gt;</text>
</a>
</g>
<!-- Node4&#45;&gt;Node5 -->
<g id="edge10" class="edge"><title>Node4&#45;&gt;Node5</title>
<path fill="none" stroke="midnightblue" d="M152.161,-224.396C163.883,-207.87 178.53,-187.22 187.305,-174.848"/>
<polygon fill="midnightblue" stroke="midnightblue" points="149.275,-222.415 146.344,-232.597 154.985,-226.465 149.275,-222.415"/>
</g>
<!-- Node5&#45;&gt;Node2 -->
<g id="edge8" class="edge"><title>Node5&#45;&gt;Node2</title>
<path fill="none" stroke="orange" stroke-dasharray="5,2" d="M174.285,-146.953C155.392,-131.406 128.057,-108.911 112.048,-95.7378"/>
<polygon fill="orange" stroke="orange" points="172.107,-149.694 182.053,-153.346 176.555,-144.289 172.107,-149.694"/>
<text text-anchor="middle" x="174" y="-118.5" font-family="Helvetica,sans-Serif" font-size="10.00"> &lt; yT, xT &gt;</text>
</g>
</g>
</svg>
