<?xml version="1.0" encoding="UTF-8" standalone="no"?>
<!DOCTYPE svg PUBLIC "-//W3C//DTD SVG 1.1//EN"
 "http://www.w3.org/Graphics/SVG/1.1/DTD/svg11.dtd">
<!-- Generated by graphviz version 2.26.0 (20091210.2329)
 -->
<!-- Title: uiArray2DInterpol Pages: 1 -->
<svg width="690pt" height="110pt"
 viewBox="0.00 0.00 690.00 110.00" xmlns="http://www.w3.org/2000/svg" xmlns:xlink="http://www.w3.org/1999/xlink">
<g id="graph1" class="graph" transform="scale(1 1) rotate(0) translate(4 106)">
<title>uiArray2DInterpol</title>
<polygon fill="white" stroke="white" points="-4,5 -4,-106 687,-106 687,5 -4,5"/>
<!-- Node1 -->
<g id="node1" class="node"><title>Node1</title>
<polygon fill="#bfbfbf" stroke="black" points="390,-40.5 390,-61.5 482,-61.5 482,-40.5 390,-40.5"/>
<text text-anchor="middle" x="436" y="-48.5" font-family="Helvetica,sans-Serif" font-size="10.00">uiArray2DInterpol</text>
</g>
<!-- Node6 -->
<g id="node11" class="node"><title>Node6</title>
<a xlink:href="classuiExtensionArray2DInterpol.html" target="_top" xlink:title="uiExtensionArray2DInterpol">
<polygon fill="white" stroke="black" points="532,-80.5 532,-101.5 668,-101.5 668,-80.5 532,-80.5"/>
<text text-anchor="middle" x="600" y="-88.5" font-family="Helvetica,sans-Serif" font-size="10.00">uiExtensionArray2DInterpol</text>
</a>
</g>
<!-- Node1&#45;&gt;Node6 -->
<g id="edge10" class="edge"><title>Node1&#45;&gt;Node6</title>
<path fill="none" stroke="midnightblue" d="M488.935,-63.911C510.914,-69.2718 536.093,-75.413 556.914,-80.4913"/>
<polygon fill="midnightblue" stroke="midnightblue" points="489.634,-60.4788 479.089,-61.5095 487.975,-67.2795 489.634,-60.4788"/>
</g>
<!-- Node7 -->
<g id="node13" class="node"><title>Node7</title>
<a xlink:href="classuiInverseDistanceArray2DInterpol.html" target="_top" xlink:title="uiInverseDistanceArray2DInterpol">
<polygon fill="white" stroke="black" points="518,-40.5 518,-61.5 682,-61.5 682,-40.5 518,-40.5"/>
<text text-anchor="middle" x="600" y="-48.5" font-family="Helvetica,sans-Serif" font-size="10.00">uiInverseDistanceArray2DInterpol</text>
</a>
</g>
<!-- Node1&#45;&gt;Node7 -->
<g id="edge12" class="edge"><title>Node1&#45;&gt;Node7</title>
<path fill="none" stroke="midnightblue" d="M492.34,-51C500.595,-51 509.236,-51 517.878,-51"/>
<polygon fill="midnightblue" stroke="midnightblue" points="492.12,-47.5001 482.12,-51 492.12,-54.5001 492.12,-47.5001"/>
</g>
<!-- Node8 -->
<g id="node15" class="node"><title>Node8</title>
<a xlink:href="classuiTriangulationArray2DInterpol.html" target="_top" xlink:title="uiTriangulationArray2DInterpol">
<polygon fill="white" stroke="black" points="526,-0.5 526,-21.5 674,-21.5 674,-0.5 526,-0.5"/>
<text text-anchor="middle" x="600" y="-8.5" font-family="Helvetica,sans-Serif" font-size="10.00">uiTriangulationArray2DInterpol</text>
</a>
</g>
<!-- Node1&#45;&gt;Node8 -->
<g id="edge14" class="edge"><title>Node1&#45;&gt;Node8</title>
<path fill="none" stroke="midnightblue" d="M488.935,-38.089C510.914,-32.7282 536.093,-26.587 556.914,-21.5087"/>
<polygon fill="midnightblue" stroke="midnightblue" points="487.975,-34.7205 479.089,-40.4905 489.634,-41.5212 487.975,-34.7205"/>
</g>
<!-- Node2 -->
<g id="node2" class="node"><title>Node2</title>
<a xlink:href="classuiDlgGroup.html" target="_top" xlink:title="uiDlgGroup">
<polygon fill="white" stroke="black" points="288.5,-40.5 288.5,-61.5 353.5,-61.5 353.5,-40.5 288.5,-40.5"/>
<text text-anchor="middle" x="321" y="-48.5" font-family="Helvetica,sans-Serif" font-size="10.00">uiDlgGroup</text>
</a>
</g>
<!-- Node2&#45;&gt;Node1 -->
<g id="edge2" class="edge"><title>Node2&#45;&gt;Node1</title>
<path fill="none" stroke="midnightblue" d="M363.777,-51C372.317,-51 381.321,-51 389.965,-51"/>
<polygon fill="midnightblue" stroke="midnightblue" points="363.647,-47.5001 353.647,-51 363.647,-54.5001 363.647,-47.5001"/>
</g>
<!-- Node3 -->
<g id="node4" class="node"><title>Node3</title>
<a xlink:href="classuiGroup.html" target="_top" xlink:title="uiGroup">
<polygon fill="white" stroke="black" points="202,-40.5 202,-61.5 252,-61.5 252,-40.5 202,-40.5"/>
<text text-anchor="middle" x="227" y="-48.5" font-family="Helvetica,sans-Serif" font-size="10.00">uiGroup</text>
</a>
</g>
<!-- Node3&#45;&gt;Node2 -->
<g id="edge4" class="edge"><title>Node3&#45;&gt;Node2</title>
<path fill="none" stroke="midnightblue" d="M262.25,-51C270.791,-51 279.884,-51 288.301,-51"/>
<polygon fill="midnightblue" stroke="midnightblue" points="262.19,-47.5001 252.19,-51 262.19,-54.5001 262.19,-47.5001"/>
</g>
<!-- Node4 -->
<g id="node6" class="node"><title>Node4</title>
<a xlink:href="classuiParent.html" target="_top" xlink:title="uiParent">
<polygon fill="white" stroke="black" points="112.5,-40.5 112.5,-61.5 165.5,-61.5 165.5,-40.5 112.5,-40.5"/>
<text text-anchor="middle" x="139" y="-48.5" font-family="Helvetica,sans-Serif" font-size="10.00">uiParent</text>
</a>
</g>
<!-- Node4&#45;&gt;Node3 -->
<g id="edge6" class="edge"><title>Node4&#45;&gt;Node3</title>
<path fill="none" stroke="midnightblue" d="M176.152,-51C184.795,-51 193.799,-51 201.786,-51"/>
<polygon fill="midnightblue" stroke="midnightblue" points="175.881,-47.5001 165.881,-51 175.881,-54.5001 175.881,-47.5001"/>
</g>
<!-- Node5 -->
<g id="node8" class="node"><title>Node5</title>
<polygon fill="white" stroke="#bfbfbf" points="0.5,-40.5 0.5,-61.5 75.5,-61.5 75.5,-40.5 0.5,-40.5"/>
<text text-anchor="middle" x="38" y="-48.5" font-family="Helvetica,sans-Serif" font-size="10.00">uiBaseObject</text>
</g>
<!-- Node5&#45;&gt;Node4 -->
<g id="edge8" class="edge"><title>Node5&#45;&gt;Node4</title>
<path fill="none" stroke="midnightblue" d="M85.8165,-51C94.9589,-51 104.219,-51 112.393,-51"/>
<polygon fill="midnightblue" stroke="midnightblue" points="85.6087,-47.5001 75.6087,-51 85.6086,-54.5001 85.6087,-47.5001"/>
</g>
</g>
</svg>
