<?xml version="1.0" encoding="UTF-8" standalone="no"?>
<!DOCTYPE svg PUBLIC "-//W3C//DTD SVG 1.1//EN"
 "http://www.w3.org/Graphics/SVG/1.1/DTD/svg11.dtd">
<!-- Generated by graphviz version 2.26.0 (20091210.2329)
 -->
<!-- Title: uiPropertiesDlg Pages: 1 -->
<svg width="90pt" height="320pt"
 viewBox="0.00 0.00 90.00 320.00" xmlns="http://www.w3.org/2000/svg" xmlns:xlink="http://www.w3.org/1999/xlink">
<g id="graph1" class="graph" transform="scale(1 1) rotate(0) translate(4 316)">
<title>uiPropertiesDlg</title>
<polygon fill="white" stroke="white" points="-4,5 -4,-316 87,-316 87,5 -4,5"/>
<!-- Node1 -->
<g id="node1" class="node"><title>Node1</title>
<polygon fill="#bfbfbf" stroke="black" points="-0.5,-0.5 -0.5,-21.5 82.5,-21.5 82.5,-0.5 -0.5,-0.5"/>
<text text-anchor="middle" x="41" y="-8.5" font-family="Helvetica,sans-Serif" font-size="10.00">uiPropertiesDlg</text>
</g>
<!-- Node2 -->
<g id="node2" class="node"><title>Node2</title>
<a xlink:href="classuiTabStackDlg.html" target="_top" xlink:title="uiTabStackDlg">
<polygon fill="white" stroke="black" points="0.5,-58.5 0.5,-79.5 81.5,-79.5 81.5,-58.5 0.5,-58.5"/>
<text text-anchor="middle" x="41" y="-66.5" font-family="Helvetica,sans-Serif" font-size="10.00">uiTabStackDlg</text>
</a>
</g>
<!-- Node2&#45;&gt;Node1 -->
<g id="edge2" class="edge"><title>Node2&#45;&gt;Node1</title>
<path fill="none" stroke="midnightblue" d="M41,-48.1906C41,-39.1684 41,-28.9941 41,-21.5707"/>
<polygon fill="midnightblue" stroke="midnightblue" points="37.5001,-48.3619 41,-58.3619 44.5001,-48.3619 37.5001,-48.3619"/>
</g>
<!-- Node3 -->
<g id="node4" class="node"><title>Node3</title>
<a xlink:href="classuiDialog.html" target="_top" xlink:title="uiDialog">
<polygon fill="white" stroke="black" points="15,-116.5 15,-137.5 67,-137.5 67,-116.5 15,-116.5"/>
<text text-anchor="middle" x="41" y="-124.5" font-family="Helvetica,sans-Serif" font-size="10.00">uiDialog</text>
</a>
</g>
<!-- Node3&#45;&gt;Node2 -->
<g id="edge4" class="edge"><title>Node3&#45;&gt;Node2</title>
<path fill="none" stroke="midnightblue" d="M41,-106.191C41,-97.1684 41,-86.9941 41,-79.5707"/>
<polygon fill="midnightblue" stroke="midnightblue" points="37.5001,-106.362 41,-116.362 44.5001,-106.362 37.5001,-106.362"/>
</g>
<!-- Node4 -->
<g id="node6" class="node"><title>Node4</title>
<a xlink:href="classuiMainWin.html" target="_top" xlink:title="User interface main window. ">
<polygon fill="white" stroke="black" points="10,-174.5 10,-195.5 72,-195.5 72,-174.5 10,-174.5"/>
<text text-anchor="middle" x="41" y="-182.5" font-family="Helvetica,sans-Serif" font-size="10.00">uiMainWin</text>
</a>
</g>
<!-- Node4&#45;&gt;Node3 -->
<g id="edge6" class="edge"><title>Node4&#45;&gt;Node3</title>
<path fill="none" stroke="midnightblue" d="M41,-164.191C41,-155.168 41,-144.994 41,-137.571"/>
<polygon fill="midnightblue" stroke="midnightblue" points="37.5001,-164.362 41,-174.362 44.5001,-164.362 37.5001,-164.362"/>
</g>
<!-- Node5 -->
<g id="node8" class="node"><title>Node5</title>
<a xlink:href="classuiParent.html" target="_top" xlink:title="uiParent">
<polygon fill="white" stroke="black" points="14.5,-232.5 14.5,-253.5 67.5,-253.5 67.5,-232.5 14.5,-232.5"/>
<text text-anchor="middle" x="41" y="-240.5" font-family="Helvetica,sans-Serif" font-size="10.00">uiParent</text>
</a>
</g>
<!-- Node5&#45;&gt;Node4 -->
<g id="edge8" class="edge"><title>Node5&#45;&gt;Node4</title>
<path fill="none" stroke="midnightblue" d="M41,-222.191C41,-213.168 41,-202.994 41,-195.571"/>
<polygon fill="midnightblue" stroke="midnightblue" points="37.5001,-222.362 41,-232.362 44.5001,-222.362 37.5001,-222.362"/>
</g>
<!-- Node6 -->
<g id="node10" class="node"><title>Node6</title>
<polygon fill="white" stroke="#bfbfbf" points="3.5,-290.5 3.5,-311.5 78.5,-311.5 78.5,-290.5 3.5,-290.5"/>
<text text-anchor="middle" x="41" y="-298.5" font-family="Helvetica,sans-Serif" font-size="10.00">uiBaseObject</text>
</g>
<!-- Node6&#45;&gt;Node5 -->
<g id="edge10" class="edge"><title>Node6&#45;&gt;Node5</title>
<path fill="none" stroke="midnightblue" d="M41,-280.191C41,-271.168 41,-260.994 41,-253.571"/>
<polygon fill="midnightblue" stroke="midnightblue" points="37.5001,-280.362 41,-290.362 44.5001,-280.362 37.5001,-280.362"/>
</g>
</g>
</svg>
