<?xml version="1.0" encoding="UTF-8" standalone="no"?>
<!DOCTYPE svg PUBLIC "-//W3C//DTD SVG 1.1//EN"
 "http://www.w3.org/Graphics/SVG/1.1/DTD/svg11.dtd">
<!-- Generated by graphviz version 2.26.0 (20091210.2329)
 -->
<!-- Title: Coords::uiCoordSystemSelGrp Pages: 1 -->
<svg width="160pt" height="262pt"
 viewBox="0.00 0.00 160.00 262.00" xmlns="http://www.w3.org/2000/svg" xmlns:xlink="http://www.w3.org/1999/xlink">
<g id="graph1" class="graph" transform="scale(1 1) rotate(0) translate(4 258)">
<title>Coords::uiCoordSystemSelGrp</title>
<polygon fill="white" stroke="white" points="-4,5 -4,-258 157,-258 157,5 -4,5"/>
<!-- Node1 -->
<g id="node1" class="node"><title>Node1</title>
<polygon fill="#bfbfbf" stroke="black" points="0,-0.5 0,-21.5 152,-21.5 152,-0.5 0,-0.5"/>
<text text-anchor="middle" x="76" y="-8.5" font-family="Helvetica,sans-Serif" font-size="10.00">Coords::uiCoordSystemSelGrp</text>
</g>
<!-- Node2 -->
<g id="node2" class="node"><title>Node2</title>
<a xlink:href="classuiDlgGroup.html" target="_top" xlink:title="uiDlgGroup">
<polygon fill="white" stroke="black" points="43.5,-58.5 43.5,-79.5 108.5,-79.5 108.5,-58.5 43.5,-58.5"/>
<text text-anchor="middle" x="76" y="-66.5" font-family="Helvetica,sans-Serif" font-size="10.00">uiDlgGroup</text>
</a>
</g>
<!-- Node2&#45;&gt;Node1 -->
<g id="edge2" class="edge"><title>Node2&#45;&gt;Node1</title>
<path fill="none" stroke="midnightblue" d="M76,-48.1906C76,-39.1684 76,-28.9941 76,-21.5707"/>
<polygon fill="midnightblue" stroke="midnightblue" points="72.5001,-48.3619 76,-58.3619 79.5001,-48.3619 72.5001,-48.3619"/>
</g>
<!-- Node3 -->
<g id="node4" class="node"><title>Node3</title>
<a xlink:href="classuiGroup.html" target="_top" xlink:title="uiGroup">
<polygon fill="white" stroke="black" points="51,-116.5 51,-137.5 101,-137.5 101,-116.5 51,-116.5"/>
<text text-anchor="middle" x="76" y="-124.5" font-family="Helvetica,sans-Serif" font-size="10.00">uiGroup</text>
</a>
</g>
<!-- Node3&#45;&gt;Node2 -->
<g id="edge4" class="edge"><title>Node3&#45;&gt;Node2</title>
<path fill="none" stroke="midnightblue" d="M76,-106.191C76,-97.1684 76,-86.9941 76,-79.5707"/>
<polygon fill="midnightblue" stroke="midnightblue" points="72.5001,-106.362 76,-116.362 79.5001,-106.362 72.5001,-106.362"/>
</g>
<!-- Node4 -->
<g id="node6" class="node"><title>Node4</title>
<a xlink:href="classuiParent.html" target="_top" xlink:title="uiParent">
<polygon fill="white" stroke="black" points="49.5,-174.5 49.5,-195.5 102.5,-195.5 102.5,-174.5 49.5,-174.5"/>
<text text-anchor="middle" x="76" y="-182.5" font-family="Helvetica,sans-Serif" font-size="10.00">uiParent</text>
</a>
</g>
<!-- Node4&#45;&gt;Node3 -->
<g id="edge6" class="edge"><title>Node4&#45;&gt;Node3</title>
<path fill="none" stroke="midnightblue" d="M76,-164.191C76,-155.168 76,-144.994 76,-137.571"/>
<polygon fill="midnightblue" stroke="midnightblue" points="72.5001,-164.362 76,-174.362 79.5001,-164.362 72.5001,-164.362"/>
</g>
<!-- Node5 -->
<g id="node8" class="node"><title>Node5</title>
<polygon fill="white" stroke="#bfbfbf" points="38.5,-232.5 38.5,-253.5 113.5,-253.5 113.5,-232.5 38.5,-232.5"/>
<text text-anchor="middle" x="76" y="-240.5" font-family="Helvetica,sans-Serif" font-size="10.00">uiBaseObject</text>
</g>
<!-- Node5&#45;&gt;Node4 -->
<g id="edge8" class="edge"><title>Node5&#45;&gt;Node4</title>
<path fill="none" stroke="midnightblue" d="M76,-222.191C76,-213.168 76,-202.994 76,-195.571"/>
<polygon fill="midnightblue" stroke="midnightblue" points="72.5001,-222.362 76,-232.362 79.5001,-222.362 72.5001,-222.362"/>
</g>
</g>
</svg>
