<?xml version="1.0" encoding="UTF-8" standalone="no"?>
<!DOCTYPE svg PUBLIC "-//W3C//DTD SVG 1.1//EN"
 "http://www.w3.org/Graphics/SVG/1.1/DTD/svg11.dtd">
<!-- Generated by graphviz version 2.26.0 (20091210.2329)
 -->
<!-- Title: ODPolygon&lt; T &gt; Pages: 1 -->
<svg width="354pt" height="102pt"
 viewBox="0.00 0.00 354.00 102.00" xmlns="http://www.w3.org/2000/svg" xmlns:xlink="http://www.w3.org/1999/xlink">
<g id="graph1" class="graph" transform="scale(1 1) rotate(0) translate(4 98)">
<title>ODPolygon&lt; T &gt;</title>
<polygon fill="white" stroke="white" points="-4,5 -4,-98 351,-98 351,5 -4,5"/>
<!-- Node1 -->
<g id="node1" class="node"><title>Node1</title>
<polygon fill="#bfbfbf" stroke="black" points="136.5,-72.5 136.5,-93.5 227.5,-93.5 227.5,-72.5 136.5,-72.5"/>
<text text-anchor="middle" x="182" y="-80.5" font-family="Helvetica,sans-Serif" font-size="10.00">ODPolygon&lt; T &gt;</text>
</g>
<!-- Node2 -->
<g id="node3" class="node"><title>Node2</title>
<a xlink:href="classODPolygon.html" target="_top" xlink:title="ODPolygon\&lt; double \&gt;">
<polygon fill="white" stroke="black" points="-0.5,-0.5 -0.5,-21.5 112.5,-21.5 112.5,-0.5 -0.5,-0.5"/>
<text text-anchor="middle" x="56" y="-8.5" font-family="Helvetica,sans-Serif" font-size="10.00">ODPolygon&lt; double &gt;</text>
</a>
</g>
<!-- Node1&#45;&gt;Node2 -->
<g id="edge2" class="edge"><title>Node1&#45;&gt;Node2</title>
<path fill="none" stroke="orange" stroke-dasharray="5,2" d="M153.054,-67.7677C144.909,-63.397 136.072,-58.5746 128,-54 109.127,-43.3037 87.8323,-30.4918 73.3287,-21.6506"/>
<polygon fill="orange" stroke="orange" points="151.408,-70.8562 161.878,-72.4733 154.701,-64.6795 151.408,-70.8562"/>
<text text-anchor="middle" x="153" y="-44.5" font-family="Helvetica,sans-Serif" font-size="10.00"> &lt; double &gt;</text>
</g>
<!-- Node3 -->
<g id="node5" class="node"><title>Node3</title>
<a xlink:href="classODPolygon.html" target="_top" xlink:title="ODPolygon\&lt; float \&gt;">
<polygon fill="white" stroke="black" points="130,-0.5 130,-21.5 234,-21.5 234,-0.5 130,-0.5"/>
<text text-anchor="middle" x="182" y="-8.5" font-family="Helvetica,sans-Serif" font-size="10.00">ODPolygon&lt; float &gt;</text>
</a>
</g>
<!-- Node1&#45;&gt;Node3 -->
<g id="edge4" class="edge"><title>Node1&#45;&gt;Node3</title>
<path fill="none" stroke="orange" stroke-dasharray="5,2" d="M182,-62.2348C182,-48.969 182,-32.3188 182,-21.6674"/>
<polygon fill="orange" stroke="orange" points="178.5,-62.3761 182,-72.3762 185.5,-62.3762 178.5,-62.3761"/>
<text text-anchor="middle" x="202" y="-44.5" font-family="Helvetica,sans-Serif" font-size="10.00"> &lt; float &gt;</text>
</g>
<!-- Node4 -->
<g id="node7" class="node"><title>Node4</title>
<a xlink:href="classODPolygon.html" target="_top" xlink:title="ODPolygon\&lt; int \&gt;">
<polygon fill="white" stroke="black" points="251.5,-0.5 251.5,-21.5 346.5,-21.5 346.5,-0.5 251.5,-0.5"/>
<text text-anchor="middle" x="299" y="-8.5" font-family="Helvetica,sans-Serif" font-size="10.00">ODPolygon&lt; int &gt;</text>
</a>
</g>
<!-- Node1&#45;&gt;Node4 -->
<g id="edge6" class="edge"><title>Node1&#45;&gt;Node4</title>
<path fill="none" stroke="orange" stroke-dasharray="5,2" d="M207.947,-67.0325C230.384,-53.2252 262.193,-33.6502 281.665,-21.6674"/>
<polygon fill="orange" stroke="orange" points="205.946,-64.1543 199.264,-72.3762 209.615,-70.1159 205.946,-64.1543"/>
<text text-anchor="middle" x="266" y="-44.5" font-family="Helvetica,sans-Serif" font-size="10.00"> &lt; int &gt;</text>
</g>
</g>
</svg>
