<?xml version="1.0" encoding="UTF-8" standalone="no"?>
<!DOCTYPE svg PUBLIC "-//W3C//DTD SVG 1.1//EN"
 "http://www.w3.org/Graphics/SVG/1.1/DTD/svg11.dtd">
<!-- Generated by graphviz version 2.26.0 (20091210.2329)
 -->
<!-- Title: ui2DGridLines Pages: 1 -->
<svg width="292pt" height="262pt"
 viewBox="0.00 0.00 292.00 262.00" xmlns="http://www.w3.org/2000/svg" xmlns:xlink="http://www.w3.org/1999/xlink">
<g id="graph1" class="graph" transform="scale(1 1) rotate(0) translate(4 258)">
<title>ui2DGridLines</title>
<polygon fill="white" stroke="white" points="-4,5 -4,-258 289,-258 289,5 -4,5"/>
<!-- Node1 -->
<g id="node1" class="node"><title>Node1</title>
<polygon fill="#bfbfbf" stroke="black" points="98,-58.5 98,-79.5 176,-79.5 176,-58.5 98,-58.5"/>
<text text-anchor="middle" x="137" y="-66.5" font-family="Helvetica,sans-Serif" font-size="10.00">ui2DGridLines</text>
</g>
<!-- Node5 -->
<g id="node9" class="node"><title>Node5</title>
<a xlink:href="classui2DGridLinesFromInlCrl.html" target="_top" xlink:title="ui2DGridLinesFromInlCrl">
<polygon fill="white" stroke="black" points="0,-0.5 0,-21.5 124,-21.5 124,-0.5 0,-0.5"/>
<text text-anchor="middle" x="62" y="-8.5" font-family="Helvetica,sans-Serif" font-size="10.00">ui2DGridLinesFromInlCrl</text>
</a>
</g>
<!-- Node1&#45;&gt;Node5 -->
<g id="edge8" class="edge"><title>Node1&#45;&gt;Node5</title>
<path fill="none" stroke="midnightblue" d="M114.985,-51.9753C102.256,-42.1315 86.6395,-30.0545 75.6689,-21.5707"/>
<polygon fill="midnightblue" stroke="midnightblue" points="113.192,-55.0131 123.244,-58.3619 117.474,-49.4757 113.192,-55.0131"/>
</g>
<!-- Node6 -->
<g id="node11" class="node"><title>Node6</title>
<a xlink:href="classui2DGridLinesFromRandLine.html" target="_top" xlink:title="ui2DGridLinesFromRandLine">
<polygon fill="white" stroke="black" points="142,-0.5 142,-21.5 284,-21.5 284,-0.5 142,-0.5"/>
<text text-anchor="middle" x="213" y="-8.5" font-family="Helvetica,sans-Serif" font-size="10.00">ui2DGridLinesFromRandLine</text>
</a>
</g>
<!-- Node1&#45;&gt;Node6 -->
<g id="edge10" class="edge"><title>Node1&#45;&gt;Node6</title>
<path fill="none" stroke="midnightblue" d="M158.937,-52.2587C171.902,-42.3641 187.925,-30.1361 199.149,-21.5707"/>
<polygon fill="midnightblue" stroke="midnightblue" points="156.766,-49.5128 150.94,-58.3619 161.012,-55.0775 156.766,-49.5128"/>
</g>
<!-- Node2 -->
<g id="node2" class="node"><title>Node2</title>
<a xlink:href="classuiGroup.html" target="_top" xlink:title="uiGroup">
<polygon fill="white" stroke="black" points="112,-116.5 112,-137.5 162,-137.5 162,-116.5 112,-116.5"/>
<text text-anchor="middle" x="137" y="-124.5" font-family="Helvetica,sans-Serif" font-size="10.00">uiGroup</text>
</a>
</g>
<!-- Node2&#45;&gt;Node1 -->
<g id="edge2" class="edge"><title>Node2&#45;&gt;Node1</title>
<path fill="none" stroke="midnightblue" d="M137,-106.191C137,-97.1684 137,-86.9941 137,-79.5707"/>
<polygon fill="midnightblue" stroke="midnightblue" points="133.5,-106.362 137,-116.362 140.5,-106.362 133.5,-106.362"/>
</g>
<!-- Node3 -->
<g id="node4" class="node"><title>Node3</title>
<a xlink:href="classuiParent.html" target="_top" xlink:title="uiParent">
<polygon fill="white" stroke="black" points="110.5,-174.5 110.5,-195.5 163.5,-195.5 163.5,-174.5 110.5,-174.5"/>
<text text-anchor="middle" x="137" y="-182.5" font-family="Helvetica,sans-Serif" font-size="10.00">uiParent</text>
</a>
</g>
<!-- Node3&#45;&gt;Node2 -->
<g id="edge4" class="edge"><title>Node3&#45;&gt;Node2</title>
<path fill="none" stroke="midnightblue" d="M137,-164.191C137,-155.168 137,-144.994 137,-137.571"/>
<polygon fill="midnightblue" stroke="midnightblue" points="133.5,-164.362 137,-174.362 140.5,-164.362 133.5,-164.362"/>
</g>
<!-- Node4 -->
<g id="node6" class="node"><title>Node4</title>
<polygon fill="white" stroke="#bfbfbf" points="99.5,-232.5 99.5,-253.5 174.5,-253.5 174.5,-232.5 99.5,-232.5"/>
<text text-anchor="middle" x="137" y="-240.5" font-family="Helvetica,sans-Serif" font-size="10.00">uiBaseObject</text>
</g>
<!-- Node4&#45;&gt;Node3 -->
<g id="edge6" class="edge"><title>Node4&#45;&gt;Node3</title>
<path fill="none" stroke="midnightblue" d="M137,-222.191C137,-213.168 137,-202.994 137,-195.571"/>
<polygon fill="midnightblue" stroke="midnightblue" points="133.5,-222.362 137,-232.362 140.5,-222.362 133.5,-222.362"/>
</g>
</g>
</svg>
