<?xml version="1.0" encoding="UTF-8" standalone="no"?>
<!DOCTYPE svg PUBLIC "-//W3C//DTD SVG 1.1//EN"
 "http://www.w3.org/Graphics/SVG/1.1/DTD/svg11.dtd">
<!-- Generated by graphviz version 2.26.0 (20091210.2329)
 -->
<!-- Title: Attrib::Slice Pages: 1 -->
<svg width="346pt" height="306pt"
 viewBox="0.00 0.00 346.00 306.00" xmlns="http://www.w3.org/2000/svg" xmlns:xlink="http://www.w3.org/1999/xlink">
<g id="graph1" class="graph" transform="scale(1 1) rotate(0) translate(4 302)">
<title>Attrib::Slice</title>
<polygon fill="white" stroke="white" points="-4,5 -4,-302 343,-302 343,5 -4,5"/>
<!-- Node1 -->
<g id="node1" class="node"><title>Node1</title>
<polygon fill="#bfbfbf" stroke="black" points="121,-0.5 121,-21.5 189,-21.5 189,-0.5 121,-0.5"/>
<text text-anchor="middle" x="155" y="-8.5" font-family="Helvetica,sans-Serif" font-size="10.00">Attrib::Slice</text>
</g>
<!-- Node2 -->
<g id="node2" class="node"><title>Node2</title>
<a xlink:href="classArray2DImpl.html" target="_top" xlink:title="Array2DImpl\&lt; float \&gt;">
<polygon fill="white" stroke="black" points="101,-60.5 101,-81.5 209,-81.5 209,-60.5 101,-60.5"/>
<text text-anchor="middle" x="155" y="-68.5" font-family="Helvetica,sans-Serif" font-size="10.00">Array2DImpl&lt; float &gt;</text>
</a>
</g>
<!-- Node2&#45;&gt;Node1 -->
<g id="edge2" class="edge"><title>Node2&#45;&gt;Node1</title>
<path fill="none" stroke="midnightblue" d="M155,-50.2312C155,-40.5922 155,-29.5444 155,-21.6339"/>
<polygon fill="midnightblue" stroke="midnightblue" points="151.5,-50.2732 155,-60.2732 158.5,-50.2732 151.5,-50.2732"/>
</g>
<!-- Node3 -->
<g id="node4" class="node"><title>Node3</title>
<a xlink:href="classArray2D.html" target="_top" xlink:title="Array2D\&lt; float \&gt;">
<polygon fill="white" stroke="black" points="1.5,-132.5 1.5,-153.5 90.5,-153.5 90.5,-132.5 1.5,-132.5"/>
<text text-anchor="middle" x="46" y="-140.5" font-family="Helvetica,sans-Serif" font-size="10.00">Array2D&lt; float &gt;</text>
</a>
</g>
<!-- Node3&#45;&gt;Node2 -->
<g id="edge4" class="edge"><title>Node3&#45;&gt;Node2</title>
<path fill="none" stroke="midnightblue" d="M70.4522,-126.848C91.3389,-113.051 120.791,-93.597 138.851,-81.6674"/>
<polygon fill="midnightblue" stroke="midnightblue" points="68.4982,-123.944 62.0833,-132.376 72.3564,-129.785 68.4982,-123.944"/>
</g>
<!-- Node4 -->
<g id="node6" class="node"><title>Node4</title>
<a xlink:href="classArrayND.html" target="_top" xlink:title="ArrayND\&lt; float \&gt;">
<polygon fill="white" stroke="black" points="0,-204.5 0,-225.5 92,-225.5 92,-204.5 0,-204.5"/>
<text text-anchor="middle" x="46" y="-212.5" font-family="Helvetica,sans-Serif" font-size="10.00">ArrayND&lt; float &gt;</text>
</a>
</g>
<!-- Node4&#45;&gt;Node3 -->
<g id="edge6" class="edge"><title>Node4&#45;&gt;Node3</title>
<path fill="none" stroke="midnightblue" d="M46,-194.235C46,-180.969 46,-164.319 46,-153.667"/>
<polygon fill="midnightblue" stroke="midnightblue" points="42.5001,-194.376 46,-204.376 49.5001,-194.376 42.5001,-194.376"/>
</g>
<!-- Node5 -->
<g id="node8" class="node"><title>Node5</title>
<a xlink:href="classArrayND.html" target="_top" xlink:title="An ArrayND is an array with a given number of dimensions and a size. ">
<polygon fill="white" stroke="black" points="62.5,-276.5 62.5,-297.5 141.5,-297.5 141.5,-276.5 62.5,-276.5"/>
<text text-anchor="middle" x="102" y="-284.5" font-family="Helvetica,sans-Serif" font-size="10.00">ArrayND&lt; T &gt;</text>
</a>
</g>
<!-- Node5&#45;&gt;Node4 -->
<g id="edge8" class="edge"><title>Node5&#45;&gt;Node4</title>
<path fill="none" stroke="orange" stroke-dasharray="5,2" d="M85.8185,-268.715C82.8312,-265.203 79.7794,-261.522 77,-258 68.5627,-247.307 59.52,-234.606 53.3918,-225.793"/>
<polygon fill="orange" stroke="orange" points="83.3207,-271.177 92.5133,-276.444 88.612,-266.594 83.3207,-271.177"/>
<text text-anchor="middle" x="97" y="-248.5" font-family="Helvetica,sans-Serif" font-size="10.00"> &lt; float &gt;</text>
</g>
<!-- Node6 -->
<g id="node10" class="node"><title>Node6</title>
<a xlink:href="classArray2D.html" target="_top" xlink:title="Array2D ( Subclass of ArrayND ) is a two dimensional array. ">
<polygon fill="white" stroke="black" points="109.5,-204.5 109.5,-225.5 186.5,-225.5 186.5,-204.5 109.5,-204.5"/>
<text text-anchor="middle" x="148" y="-212.5" font-family="Helvetica,sans-Serif" font-size="10.00">Array2D&lt; T &gt;</text>
</a>
</g>
<!-- Node5&#45;&gt;Node6 -->
<g id="edge12" class="edge"><title>Node5&#45;&gt;Node6</title>
<path fill="none" stroke="midnightblue" d="M114.26,-267.81C122.885,-254.311 134.107,-236.745 141.185,-225.667"/>
<polygon fill="midnightblue" stroke="midnightblue" points="111.222,-266.065 108.787,-276.376 117.121,-269.834 111.222,-266.065"/>
</g>
<!-- Node6&#45;&gt;Node3 -->
<g id="edge10" class="edge"><title>Node6&#45;&gt;Node3</title>
<path fill="none" stroke="orange" stroke-dasharray="5,2" d="M124.593,-198.477C105.082,-184.705 77.8615,-165.49 61.1122,-153.667"/>
<polygon fill="orange" stroke="orange" points="122.761,-201.469 132.95,-204.376 126.798,-195.75 122.761,-201.469"/>
<text text-anchor="middle" x="127" y="-176.5" font-family="Helvetica,sans-Serif" font-size="10.00"> &lt; float &gt;</text>
</g>
<!-- Node9 -->
<g id="node17" class="node"><title>Node9</title>
<a xlink:href="classArray2DImpl.html" target="_top" xlink:title="Implementation of Array2D. ">
<polygon fill="white" stroke="black" points="107.5,-132.5 107.5,-153.5 202.5,-153.5 202.5,-132.5 107.5,-132.5"/>
<text text-anchor="middle" x="155" y="-140.5" font-family="Helvetica,sans-Serif" font-size="10.00">Array2DImpl&lt; T &gt;</text>
</a>
</g>
<!-- Node6&#45;&gt;Node9 -->
<g id="edge20" class="edge"><title>Node6&#45;&gt;Node9</title>
<path fill="none" stroke="midnightblue" d="M150.019,-194.235C151.309,-180.969 152.927,-164.319 153.963,-153.667"/>
<polygon fill="midnightblue" stroke="midnightblue" points="146.517,-194.084 149.033,-204.376 153.484,-194.762 146.517,-194.084"/>
</g>
<!-- Node7 -->
<g id="node13" class="node"><title>Node7</title>
<a xlink:href="classArrayImplBase.html" target="_top" xlink:title="ArrayImplBase\&lt; float \&gt;">
<polygon fill="white" stroke="black" points="220,-132.5 220,-153.5 338,-153.5 338,-132.5 220,-132.5"/>
<text text-anchor="middle" x="279" y="-140.5" font-family="Helvetica,sans-Serif" font-size="10.00">ArrayImplBase&lt; float &gt;</text>
</a>
</g>
<!-- Node7&#45;&gt;Node2 -->
<g id="edge14" class="edge"><title>Node7&#45;&gt;Node2</title>
<path fill="none" stroke="midnightblue" d="M251.817,-127.216C228.021,-113.399 194.1,-93.7035 173.372,-81.6674"/>
<polygon fill="midnightblue" stroke="midnightblue" points="250.298,-130.382 260.703,-132.376 253.813,-124.328 250.298,-130.382"/>
</g>
<!-- Node8 -->
<g id="node15" class="node"><title>Node8</title>
<a xlink:href="classArrayImplBase.html" target="_top" xlink:title="ArrayImplBase\&lt; T \&gt;">
<polygon fill="white" stroke="black" points="209.5,-204.5 209.5,-225.5 314.5,-225.5 314.5,-204.5 209.5,-204.5"/>
<text text-anchor="middle" x="262" y="-212.5" font-family="Helvetica,sans-Serif" font-size="10.00">ArrayImplBase&lt; T &gt;</text>
</a>
</g>
<!-- Node8&#45;&gt;Node7 -->
<g id="edge16" class="edge"><title>Node8&#45;&gt;Node7</title>
<path fill="none" stroke="orange" stroke-dasharray="5,2" d="M266.809,-194.632C269.956,-181.303 273.941,-164.425 276.481,-153.667"/>
<polygon fill="orange" stroke="orange" points="263.4,-193.839 264.508,-204.376 270.213,-195.448 263.4,-193.839"/>
<text text-anchor="middle" x="292" y="-176.5" font-family="Helvetica,sans-Serif" font-size="10.00"> &lt; float &gt;</text>
</g>
<!-- Node8&#45;&gt;Node9 -->
<g id="edge22" class="edge"><title>Node8&#45;&gt;Node9</title>
<path fill="none" stroke="midnightblue" d="M237.721,-198.663C217.235,-184.878 188.502,-165.544 170.853,-153.667"/>
<polygon fill="midnightblue" stroke="midnightblue" points="235.961,-201.697 246.212,-204.376 239.869,-195.89 235.961,-201.697"/>
</g>
<!-- Node9&#45;&gt;Node2 -->
<g id="edge18" class="edge"><title>Node9&#45;&gt;Node2</title>
<path fill="none" stroke="orange" stroke-dasharray="5,2" d="M155,-122.235C155,-108.969 155,-92.3188 155,-81.6674"/>
<polygon fill="orange" stroke="orange" points="151.5,-122.376 155,-132.376 158.5,-122.376 151.5,-122.376"/>
<text text-anchor="middle" x="175" y="-104.5" font-family="Helvetica,sans-Serif" font-size="10.00"> &lt; float &gt;</text>
</g>
</g>
</svg>
