<?xml version="1.0" encoding="UTF-8" standalone="no"?>
<!DOCTYPE svg PUBLIC "-//W3C//DTD SVG 1.1//EN"
 "http://www.w3.org/Graphics/SVG/1.1/DTD/svg11.dtd">
<!-- Generated by graphviz version 2.26.0 (20091210.2329)
 -->
<!-- Title: Seis::Bounds Pages: 1 -->
<svg width="202pt" height="88pt"
 viewBox="0.00 0.00 202.00 88.00" xmlns="http://www.w3.org/2000/svg" xmlns:xlink="http://www.w3.org/1999/xlink">
<g id="graph1" class="graph" transform="scale(1 1) rotate(0) translate(4 84)">
<title>Seis::Bounds</title>
<polygon fill="white" stroke="white" points="-4,5 -4,-84 199,-84 199,5 -4,5"/>
<!-- Node1 -->
<g id="node1" class="node"><title>Node1</title>
<polygon fill="#bfbfbf" stroke="black" points="59.5,-58.5 59.5,-79.5 134.5,-79.5 134.5,-58.5 59.5,-58.5"/>
<text text-anchor="middle" x="97" y="-66.5" font-family="Helvetica,sans-Serif" font-size="10.00">Seis::Bounds</text>
</g>
<!-- Node2 -->
<g id="node3" class="node"><title>Node2</title>
<a xlink:href="classSeis_1_1Bounds2D.html" target="_top" xlink:title="Seis::Bounds2D">
<polygon fill="white" stroke="black" points="0,-0.5 0,-21.5 88,-21.5 88,-0.5 0,-0.5"/>
<text text-anchor="middle" x="44" y="-8.5" font-family="Helvetica,sans-Serif" font-size="10.00">Seis::Bounds2D</text>
</a>
</g>
<!-- Node1&#45;&gt;Node2 -->
<g id="edge2" class="edge"><title>Node1&#45;&gt;Node2</title>
<path fill="none" stroke="midnightblue" d="M80.3963,-50.8299C71.6037,-41.2078 61.1137,-29.7282 53.6594,-21.5707"/>
<polygon fill="midnightblue" stroke="midnightblue" points="77.9495,-53.3408 87.279,-58.3619 83.117,-48.6188 77.9495,-53.3408"/>
</g>
<!-- Node3 -->
<g id="node5" class="node"><title>Node3</title>
<a xlink:href="classSeis_1_1Bounds3D.html" target="_top" xlink:title="Seis::Bounds3D">
<polygon fill="white" stroke="black" points="106,-0.5 106,-21.5 194,-21.5 194,-0.5 106,-0.5"/>
<text text-anchor="middle" x="150" y="-8.5" font-family="Helvetica,sans-Serif" font-size="10.00">Seis::Bounds3D</text>
</a>
</g>
<!-- Node1&#45;&gt;Node3 -->
<g id="edge4" class="edge"><title>Node1&#45;&gt;Node3</title>
<path fill="none" stroke="midnightblue" d="M113.604,-50.8299C122.396,-41.2078 132.886,-29.7282 140.341,-21.5707"/>
<polygon fill="midnightblue" stroke="midnightblue" points="110.883,-48.6188 106.721,-58.3619 116.051,-53.3408 110.883,-48.6188"/>
</g>
</g>
</svg>
