<?xml version="1.0" encoding="UTF-8" standalone="no"?>
<!DOCTYPE svg PUBLIC "-//W3C//DTD SVG 1.1//EN"
 "http://www.w3.org/Graphics/SVG/1.1/DTD/svg11.dtd">
<!-- Generated by graphviz version 2.26.0 (20091210.2329)
 -->
<!-- Title: uiSize Pages: 1 -->
<svg width="118pt" height="162pt"
 viewBox="0.00 0.00 118.00 162.00" xmlns="http://www.w3.org/2000/svg" xmlns:xlink="http://www.w3.org/1999/xlink">
<g id="graph1" class="graph" transform="scale(1 1) rotate(0) translate(4 158)">
<title>uiSize</title>
<polygon fill="white" stroke="white" points="-4,5 -4,-158 115,-158 115,5 -4,5"/>
<!-- Node1 -->
<g id="node1" class="node"><title>Node1</title>
<polygon fill="#bfbfbf" stroke="black" points="33,-0.5 33,-21.5 77,-21.5 77,-0.5 33,-0.5"/>
<text text-anchor="middle" x="55" y="-8.5" font-family="Helvetica,sans-Serif" font-size="10.00">uiSize</text>
</g>
<!-- Node2 -->
<g id="node2" class="node"><title>Node2</title>
<a xlink:href="classGeom_1_1Size2D.html" target="_top" xlink:title="Geom::Size2D\&lt; int \&gt;">
<polygon fill="white" stroke="black" points="0,-60.5 0,-81.5 110,-81.5 110,-60.5 0,-60.5"/>
<text text-anchor="middle" x="55" y="-68.5" font-family="Helvetica,sans-Serif" font-size="10.00">Geom::Size2D&lt; int &gt;</text>
</a>
</g>
<!-- Node2&#45;&gt;Node1 -->
<g id="edge2" class="edge"><title>Node2&#45;&gt;Node1</title>
<path fill="none" stroke="midnightblue" d="M55,-50.2312C55,-40.5922 55,-29.5444 55,-21.6339"/>
<polygon fill="midnightblue" stroke="midnightblue" points="51.5001,-50.2732 55,-60.2732 58.5001,-50.2732 51.5001,-50.2732"/>
</g>
<!-- Node3 -->
<g id="node4" class="node"><title>Node3</title>
<a xlink:href="classGeom_1_1Size2D.html" target="_top" xlink:title="Basic 2D sizes (width/height) class. ">
<polygon fill="white" stroke="black" points="2.5,-132.5 2.5,-153.5 107.5,-153.5 107.5,-132.5 2.5,-132.5"/>
<text text-anchor="middle" x="55" y="-140.5" font-family="Helvetica,sans-Serif" font-size="10.00">Geom::Size2D&lt; T &gt;</text>
</a>
</g>
<!-- Node3&#45;&gt;Node2 -->
<g id="edge4" class="edge"><title>Node3&#45;&gt;Node2</title>
<path fill="none" stroke="orange" stroke-dasharray="5,2" d="M55,-122.235C55,-108.969 55,-92.3188 55,-81.6674"/>
<polygon fill="orange" stroke="orange" points="51.5001,-122.376 55,-132.376 58.5001,-122.376 51.5001,-122.376"/>
<text text-anchor="middle" x="71" y="-104.5" font-family="Helvetica,sans-Serif" font-size="10.00"> &lt; int &gt;</text>
</g>
</g>
</svg>
