<?xml version="1.0" encoding="UTF-8" standalone="no"?>
<!DOCTYPE svg PUBLIC "-//W3C//DTD SVG 1.1//EN"
 "http://www.w3.org/Graphics/SVG/1.1/DTD/svg11.dtd">
<!-- Generated by graphviz version 2.26.0 (20091210.2329)
 -->
<!-- Title: Vel::uiLinearVelTransform Pages: 1 -->
<svg width="158pt" height="378pt"
 viewBox="0.00 0.00 158.00 378.00" xmlns="http://www.w3.org/2000/svg" xmlns:xlink="http://www.w3.org/1999/xlink">
<g id="graph1" class="graph" transform="scale(1 1) rotate(0) translate(4 374)">
<title>Vel::uiLinearVelTransform</title>
<polygon fill="white" stroke="white" points="-4,5 -4,-374 155,-374 155,5 -4,5"/>
<!-- Node1 -->
<g id="node1" class="node"><title>Node1</title>
<polygon fill="#bfbfbf" stroke="black" points="10.5,-0.5 10.5,-21.5 139.5,-21.5 139.5,-0.5 10.5,-0.5"/>
<text text-anchor="middle" x="75" y="-8.5" font-family="Helvetica,sans-Serif" font-size="10.00">Vel::uiLinearVelTransform</text>
</g>
<!-- Node2 -->
<g id="node2" class="node"><title>Node2</title>
<a xlink:href="classuiTime2DepthZTransformBase.html" target="_top" xlink:title="uiTime2DepthZTransformBase">
<polygon fill="white" stroke="black" points="0,-58.5 0,-79.5 150,-79.5 150,-58.5 0,-58.5"/>
<text text-anchor="middle" x="75" y="-66.5" font-family="Helvetica,sans-Serif" font-size="10.00">uiTime2DepthZTransformBase</text>
</a>
</g>
<!-- Node2&#45;&gt;Node1 -->
<g id="edge2" class="edge"><title>Node2&#45;&gt;Node1</title>
<path fill="none" stroke="midnightblue" d="M75,-48.1906C75,-39.1684 75,-28.9941 75,-21.5707"/>
<polygon fill="midnightblue" stroke="midnightblue" points="71.5001,-48.3619 75,-58.3619 78.5001,-48.3619 71.5001,-48.3619"/>
</g>
<!-- Node3 -->
<g id="node4" class="node"><title>Node3</title>
<a xlink:href="classuiZAxisTransform.html" target="_top" xlink:title="uiZAxisTransform">
<polygon fill="white" stroke="black" points="28,-116.5 28,-137.5 122,-137.5 122,-116.5 28,-116.5"/>
<text text-anchor="middle" x="75" y="-124.5" font-family="Helvetica,sans-Serif" font-size="10.00">uiZAxisTransform</text>
</a>
</g>
<!-- Node3&#45;&gt;Node2 -->
<g id="edge4" class="edge"><title>Node3&#45;&gt;Node2</title>
<path fill="none" stroke="midnightblue" d="M75,-106.191C75,-97.1684 75,-86.9941 75,-79.5707"/>
<polygon fill="midnightblue" stroke="midnightblue" points="71.5001,-106.362 75,-116.362 78.5001,-106.362 71.5001,-106.362"/>
</g>
<!-- Node4 -->
<g id="node6" class="node"><title>Node4</title>
<a xlink:href="classuiDlgGroup.html" target="_top" xlink:title="uiDlgGroup">
<polygon fill="white" stroke="black" points="42.5,-174.5 42.5,-195.5 107.5,-195.5 107.5,-174.5 42.5,-174.5"/>
<text text-anchor="middle" x="75" y="-182.5" font-family="Helvetica,sans-Serif" font-size="10.00">uiDlgGroup</text>
</a>
</g>
<!-- Node4&#45;&gt;Node3 -->
<g id="edge6" class="edge"><title>Node4&#45;&gt;Node3</title>
<path fill="none" stroke="midnightblue" d="M75,-164.191C75,-155.168 75,-144.994 75,-137.571"/>
<polygon fill="midnightblue" stroke="midnightblue" points="71.5001,-164.362 75,-174.362 78.5001,-164.362 71.5001,-164.362"/>
</g>
<!-- Node5 -->
<g id="node8" class="node"><title>Node5</title>
<a xlink:href="classuiGroup.html" target="_top" xlink:title="uiGroup">
<polygon fill="white" stroke="black" points="50,-232.5 50,-253.5 100,-253.5 100,-232.5 50,-232.5"/>
<text text-anchor="middle" x="75" y="-240.5" font-family="Helvetica,sans-Serif" font-size="10.00">uiGroup</text>
</a>
</g>
<!-- Node5&#45;&gt;Node4 -->
<g id="edge8" class="edge"><title>Node5&#45;&gt;Node4</title>
<path fill="none" stroke="midnightblue" d="M75,-222.191C75,-213.168 75,-202.994 75,-195.571"/>
<polygon fill="midnightblue" stroke="midnightblue" points="71.5001,-222.362 75,-232.362 78.5001,-222.362 71.5001,-222.362"/>
</g>
<!-- Node6 -->
<g id="node10" class="node"><title>Node6</title>
<a xlink:href="classuiParent.html" target="_top" xlink:title="uiParent">
<polygon fill="white" stroke="black" points="48.5,-290.5 48.5,-311.5 101.5,-311.5 101.5,-290.5 48.5,-290.5"/>
<text text-anchor="middle" x="75" y="-298.5" font-family="Helvetica,sans-Serif" font-size="10.00">uiParent</text>
</a>
</g>
<!-- Node6&#45;&gt;Node5 -->
<g id="edge10" class="edge"><title>Node6&#45;&gt;Node5</title>
<path fill="none" stroke="midnightblue" d="M75,-280.191C75,-271.168 75,-260.994 75,-253.571"/>
<polygon fill="midnightblue" stroke="midnightblue" points="71.5001,-280.362 75,-290.362 78.5001,-280.362 71.5001,-280.362"/>
</g>
<!-- Node7 -->
<g id="node12" class="node"><title>Node7</title>
<polygon fill="white" stroke="#bfbfbf" points="37.5,-348.5 37.5,-369.5 112.5,-369.5 112.5,-348.5 37.5,-348.5"/>
<text text-anchor="middle" x="75" y="-356.5" font-family="Helvetica,sans-Serif" font-size="10.00">uiBaseObject</text>
</g>
<!-- Node7&#45;&gt;Node6 -->
<g id="edge12" class="edge"><title>Node7&#45;&gt;Node6</title>
<path fill="none" stroke="midnightblue" d="M75,-338.191C75,-329.168 75,-318.994 75,-311.571"/>
<polygon fill="midnightblue" stroke="midnightblue" points="71.5001,-338.362 75,-348.362 78.5001,-338.362 71.5001,-338.362"/>
</g>
</g>
</svg>
