<?xml version="1.0" encoding="UTF-8" standalone="no"?>
<!DOCTYPE svg PUBLIC "-//W3C//DTD SVG 1.1//EN"
 "http://www.w3.org/Graphics/SVG/1.1/DTD/svg11.dtd">
<!-- Generated by graphviz version 2.26.0 (20091210.2329)
 -->
<!-- Title: uiImportFault Pages: 1 -->
<svg width="236pt" height="320pt"
 viewBox="0.00 0.00 236.00 320.00" xmlns="http://www.w3.org/2000/svg" xmlns:xlink="http://www.w3.org/1999/xlink">
<g id="graph1" class="graph" transform="scale(1 1) rotate(0) translate(4 316)">
<title>uiImportFault</title>
<polygon fill="white" stroke="white" points="-4,5 -4,-316 233,-316 233,5 -4,5"/>
<!-- Node1 -->
<g id="node1" class="node"><title>Node1</title>
<polygon fill="#bfbfbf" stroke="black" points="67,-58.5 67,-79.5 141,-79.5 141,-58.5 67,-58.5"/>
<text text-anchor="middle" x="104" y="-66.5" font-family="Helvetica,sans-Serif" font-size="10.00">uiImportFault</text>
</g>
<!-- Node6 -->
<g id="node11" class="node"><title>Node6</title>
<a xlink:href="classuiImportFault3D.html" target="_top" xlink:title="uiImportFault3D">
<polygon fill="white" stroke="black" points="0,-0.5 0,-21.5 86,-21.5 86,-0.5 0,-0.5"/>
<text text-anchor="middle" x="43" y="-8.5" font-family="Helvetica,sans-Serif" font-size="10.00">uiImportFault3D</text>
</a>
</g>
<!-- Node1&#45;&gt;Node6 -->
<g id="edge10" class="edge"><title>Node1&#45;&gt;Node6</title>
<path fill="none" stroke="midnightblue" d="M85.4949,-51.405C75.2546,-41.6683 62.8685,-29.8914 54.1174,-21.5707"/>
<polygon fill="midnightblue" stroke="midnightblue" points="83.1529,-54.0077 92.8117,-58.3619 87.9763,-48.9348 83.1529,-54.0077"/>
</g>
<!-- Node7 -->
<g id="node13" class="node"><title>Node7</title>
<a xlink:href="classuiImportFaultStickSet2D.html" target="_top" xlink:title="uiImportFaultStickSet2D">
<polygon fill="white" stroke="black" points="104,-0.5 104,-21.5 228,-21.5 228,-0.5 104,-0.5"/>
<text text-anchor="middle" x="166" y="-8.5" font-family="Helvetica,sans-Serif" font-size="10.00">uiImportFaultStickSet2D</text>
</a>
</g>
<!-- Node1&#45;&gt;Node7 -->
<g id="edge12" class="edge"><title>Node1&#45;&gt;Node7</title>
<path fill="none" stroke="midnightblue" d="M122.808,-51.405C133.217,-41.6683 145.806,-29.8914 154.7,-21.5707"/>
<polygon fill="midnightblue" stroke="midnightblue" points="120.283,-48.9743 115.372,-58.3619 125.066,-54.0863 120.283,-48.9743"/>
</g>
<!-- Node2 -->
<g id="node2" class="node"><title>Node2</title>
<a xlink:href="classuiDialog.html" target="_top" xlink:title="uiDialog">
<polygon fill="white" stroke="black" points="78,-116.5 78,-137.5 130,-137.5 130,-116.5 78,-116.5"/>
<text text-anchor="middle" x="104" y="-124.5" font-family="Helvetica,sans-Serif" font-size="10.00">uiDialog</text>
</a>
</g>
<!-- Node2&#45;&gt;Node1 -->
<g id="edge2" class="edge"><title>Node2&#45;&gt;Node1</title>
<path fill="none" stroke="midnightblue" d="M104,-106.191C104,-97.1684 104,-86.9941 104,-79.5707"/>
<polygon fill="midnightblue" stroke="midnightblue" points="100.5,-106.362 104,-116.362 107.5,-106.362 100.5,-106.362"/>
</g>
<!-- Node3 -->
<g id="node4" class="node"><title>Node3</title>
<a xlink:href="classuiMainWin.html" target="_top" xlink:title="User interface main window. ">
<polygon fill="white" stroke="black" points="73,-174.5 73,-195.5 135,-195.5 135,-174.5 73,-174.5"/>
<text text-anchor="middle" x="104" y="-182.5" font-family="Helvetica,sans-Serif" font-size="10.00">uiMainWin</text>
</a>
</g>
<!-- Node3&#45;&gt;Node2 -->
<g id="edge4" class="edge"><title>Node3&#45;&gt;Node2</title>
<path fill="none" stroke="midnightblue" d="M104,-164.191C104,-155.168 104,-144.994 104,-137.571"/>
<polygon fill="midnightblue" stroke="midnightblue" points="100.5,-164.362 104,-174.362 107.5,-164.362 100.5,-164.362"/>
</g>
<!-- Node4 -->
<g id="node6" class="node"><title>Node4</title>
<a xlink:href="classuiParent.html" target="_top" xlink:title="uiParent">
<polygon fill="white" stroke="black" points="77.5,-232.5 77.5,-253.5 130.5,-253.5 130.5,-232.5 77.5,-232.5"/>
<text text-anchor="middle" x="104" y="-240.5" font-family="Helvetica,sans-Serif" font-size="10.00">uiParent</text>
</a>
</g>
<!-- Node4&#45;&gt;Node3 -->
<g id="edge6" class="edge"><title>Node4&#45;&gt;Node3</title>
<path fill="none" stroke="midnightblue" d="M104,-222.191C104,-213.168 104,-202.994 104,-195.571"/>
<polygon fill="midnightblue" stroke="midnightblue" points="100.5,-222.362 104,-232.362 107.5,-222.362 100.5,-222.362"/>
</g>
<!-- Node5 -->
<g id="node8" class="node"><title>Node5</title>
<polygon fill="white" stroke="#bfbfbf" points="66.5,-290.5 66.5,-311.5 141.5,-311.5 141.5,-290.5 66.5,-290.5"/>
<text text-anchor="middle" x="104" y="-298.5" font-family="Helvetica,sans-Serif" font-size="10.00">uiBaseObject</text>
</g>
<!-- Node5&#45;&gt;Node4 -->
<g id="edge8" class="edge"><title>Node5&#45;&gt;Node4</title>
<path fill="none" stroke="midnightblue" d="M104,-280.191C104,-271.168 104,-260.994 104,-253.571"/>
<polygon fill="midnightblue" stroke="midnightblue" points="100.5,-280.362 104,-290.362 107.5,-280.362 100.5,-280.362"/>
</g>
</g>
</svg>
