<?xml version="1.0" encoding="UTF-8" standalone="no"?>
<!DOCTYPE svg PUBLIC "-//W3C//DTD SVG 1.1//EN"
 "http://www.w3.org/Graphics/SVG/1.1/DTD/svg11.dtd">
<!-- Generated by graphviz version 2.26.0 (20091210.2329)
 -->
<!-- Title: IODirEntryList Pages: 1 -->
<svg width="169pt" height="222pt"
 viewBox="0.00 0.00 169.00 222.00" xmlns="http://www.w3.org/2000/svg" xmlns:xlink="http://www.w3.org/1999/xlink">
<g id="graph1" class="graph" transform="scale(1 1) rotate(0) translate(4 218)">
<title>IODirEntryList</title>
<polygon fill="white" stroke="white" points="-4,5 -4,-218 166,-218 166,5 -4,5"/>
<!-- Node1 -->
<g id="node1" class="node"><title>Node1</title>
<polygon fill="#bfbfbf" stroke="black" points="22.5,-0.5 22.5,-21.5 101.5,-21.5 101.5,-0.5 22.5,-0.5"/>
<text text-anchor="middle" x="62" y="-8.5" font-family="Helvetica,sans-Serif" font-size="10.00">IODirEntryList</text>
</g>
<!-- Node2 -->
<g id="node2" class="node"><title>Node2</title>
<a xlink:href="classObjectSet.html" target="_top" xlink:title="ObjectSet\&lt; IODirEntry \&gt;">
<polygon fill="white" stroke="black" points="-0.5,-60.5 -0.5,-81.5 124.5,-81.5 124.5,-60.5 -0.5,-60.5"/>
<text text-anchor="middle" x="62" y="-68.5" font-family="Helvetica,sans-Serif" font-size="10.00">ObjectSet&lt; IODirEntry &gt;</text>
</a>
</g>
<!-- Node2&#45;&gt;Node1 -->
<g id="edge2" class="edge"><title>Node2&#45;&gt;Node1</title>
<path fill="none" stroke="midnightblue" d="M62,-50.2312C62,-40.5922 62,-29.5444 62,-21.6339"/>
<polygon fill="midnightblue" stroke="midnightblue" points="58.5001,-50.2732 62,-60.2732 65.5001,-50.2732 58.5001,-50.2732"/>
</g>
<!-- Node3 -->
<g id="node4" class="node"><title>Node3</title>
<a xlink:href="classOD_1_1Set.html" target="_top" xlink:title="Base class for all sets used in OpendTect. ">
<polygon fill="white" stroke="black" points="42.5,-192.5 42.5,-213.5 95.5,-213.5 95.5,-192.5 42.5,-192.5"/>
<text text-anchor="middle" x="69" y="-200.5" font-family="Helvetica,sans-Serif" font-size="10.00">OD::Set</text>
</a>
</g>
<!-- Node3&#45;&gt;Node2 -->
<g id="edge4" class="edge"><title>Node3&#45;&gt;Node2</title>
<path fill="none" stroke="midnightblue" d="M67.1128,-182.437C66.3631,-173.679 65.5501,-163.346 65,-154 63.475,-128.09 62.6114,-97.5822 62.233,-81.7516"/>
<polygon fill="midnightblue" stroke="midnightblue" points="63.635,-182.843 68.0039,-192.495 70.6077,-182.226 63.635,-182.843"/>
</g>
<!-- Node4 -->
<g id="node6" class="node"><title>Node4</title>
<a xlink:href="classObjectSet.html" target="_top" xlink:title="Set of pointers to objects. ">
<polygon fill="white" stroke="black" points="74,-132.5 74,-153.5 158,-153.5 158,-132.5 74,-132.5"/>
<text text-anchor="middle" x="116" y="-140.5" font-family="Helvetica,sans-Serif" font-size="10.00">ObjectSet&lt; T &gt;</text>
</a>
</g>
<!-- Node3&#45;&gt;Node4 -->
<g id="edge8" class="edge"><title>Node3&#45;&gt;Node4</title>
<path fill="none" stroke="midnightblue" d="M83.5842,-184.382C91.5028,-174.273 101.007,-162.14 107.67,-153.634"/>
<polygon fill="midnightblue" stroke="midnightblue" points="80.814,-182.243 77.4027,-192.273 86.3246,-186.559 80.814,-182.243"/>
</g>
<!-- Node4&#45;&gt;Node2 -->
<g id="edge6" class="edge"><title>Node4&#45;&gt;Node2</title>
<path fill="none" stroke="orange" stroke-dasharray="5,2" d="M101.899,-124.198C91.7367,-110.649 78.3885,-92.8514 70.0006,-81.6674"/>
<polygon fill="orange" stroke="orange" points="99.2321,-126.476 108.032,-132.376 104.832,-122.276 99.2321,-126.476"/>
<text text-anchor="middle" x="127" y="-104.5" font-family="Helvetica,sans-Serif" font-size="10.00"> &lt; IODirEntry &gt;</text>
</g>
</g>
</svg>
