<?xml version="1.0" encoding="UTF-8" standalone="no"?>
<!DOCTYPE svg PUBLIC "-//W3C//DTD SVG 1.1//EN"
 "http://www.w3.org/Graphics/SVG/1.1/DTD/svg11.dtd">
<!-- Generated by graphviz version 2.26.0 (20091210.2329)
 -->
<!-- Title: Batch::MMProgDef Pages: 1 -->
<svg width="418pt" height="88pt"
 viewBox="0.00 0.00 418.00 88.00" xmlns="http://www.w3.org/2000/svg" xmlns:xlink="http://www.w3.org/1999/xlink">
<g id="graph1" class="graph" transform="scale(1 1) rotate(0) translate(4 84)">
<title>Batch::MMProgDef</title>
<polygon fill="white" stroke="white" points="-4,5 -4,-84 415,-84 415,5 -4,5"/>
<!-- Node1 -->
<g id="node1" class="node"><title>Node1</title>
<polygon fill="#bfbfbf" stroke="black" points="167.5,-58.5 167.5,-79.5 268.5,-79.5 268.5,-58.5 167.5,-58.5"/>
<text text-anchor="middle" x="218" y="-66.5" font-family="Helvetica,sans-Serif" font-size="10.00">Batch::MMProgDef</text>
</g>
<!-- Node2 -->
<g id="node3" class="node"><title>Node2</title>
<a xlink:href="classBatch_1_1PreStackMMProgDef.html" target="_top" xlink:title="Batch::PreStackMMProgDef">
<polygon fill="white" stroke="black" points="-0.5,-0.5 -0.5,-21.5 140.5,-21.5 140.5,-0.5 -0.5,-0.5"/>
<text text-anchor="middle" x="70" y="-8.5" font-family="Helvetica,sans-Serif" font-size="10.00">Batch::PreStackMMProgDef</text>
</a>
</g>
<!-- Node1&#45;&gt;Node2 -->
<g id="edge2" class="edge"><title>Node1&#45;&gt;Node2</title>
<path fill="none" stroke="midnightblue" d="M181.64,-54.7509C155.505,-44.5086 120.832,-30.9206 97.1024,-21.6212"/>
<polygon fill="midnightblue" stroke="midnightblue" points="180.611,-58.1065 191.198,-58.4966 183.165,-51.5891 180.611,-58.1065"/>
</g>
<!-- Node3 -->
<g id="node5" class="node"><title>Node3</title>
<a xlink:href="classBatch_1_1SeisMMProgDef.html" target="_top" xlink:title="Batch::SeisMMProgDef">
<polygon fill="white" stroke="black" points="158,-0.5 158,-21.5 278,-21.5 278,-0.5 158,-0.5"/>
<text text-anchor="middle" x="218" y="-8.5" font-family="Helvetica,sans-Serif" font-size="10.00">Batch::SeisMMProgDef</text>
</a>
</g>
<!-- Node1&#45;&gt;Node3 -->
<g id="edge4" class="edge"><title>Node1&#45;&gt;Node3</title>
<path fill="none" stroke="midnightblue" d="M218,-48.1906C218,-39.1684 218,-28.9941 218,-21.5707"/>
<polygon fill="midnightblue" stroke="midnightblue" points="214.5,-48.3619 218,-58.3619 221.5,-48.3619 214.5,-48.3619"/>
</g>
<!-- Node4 -->
<g id="node7" class="node"><title>Node4</title>
<a xlink:href="classBatch_1_1VolMMProgDef.html" target="_top" xlink:title="Batch::VolMMProgDef">
<polygon fill="white" stroke="black" points="295.5,-0.5 295.5,-21.5 410.5,-21.5 410.5,-0.5 295.5,-0.5"/>
<text text-anchor="middle" x="353" y="-8.5" font-family="Helvetica,sans-Serif" font-size="10.00">Batch::VolMMProgDef</text>
</a>
</g>
<!-- Node1&#45;&gt;Node4 -->
<g id="edge6" class="edge"><title>Node1&#45;&gt;Node4</title>
<path fill="none" stroke="midnightblue" d="M251.798,-54.4794C275.562,-44.2695 306.824,-30.8386 328.278,-21.6212"/>
<polygon fill="midnightblue" stroke="midnightblue" points="250.254,-51.3334 242.447,-58.4966 253.017,-57.7649 250.254,-51.3334"/>
</g>
</g>
</svg>
