<?xml version="1.0" encoding="UTF-8" standalone="no"?>
<!DOCTYPE svg PUBLIC "-//W3C//DTD SVG 1.1//EN"
 "http://www.w3.org/Graphics/SVG/1.1/DTD/svg11.dtd">
<!-- Generated by graphviz version 2.26.0 (20091210.2329)
 -->
<!-- Title: uiODDisplayTreeItem Pages: 1 -->
<svg width="796pt" height="550pt"
 viewBox="0.00 0.00 796.00 550.00" xmlns="http://www.w3.org/2000/svg" xmlns:xlink="http://www.w3.org/1999/xlink">
<g id="graph1" class="graph" transform="scale(1 1) rotate(0) translate(4 546)">
<title>uiODDisplayTreeItem</title>
<polygon fill="white" stroke="white" points="-4,5 -4,-546 793,-546 793,5 -4,5"/>
<!-- Node1 -->
<g id="node1" class="node"><title>Node1</title>
<polygon fill="#bfbfbf" stroke="black" points="316.5,-260.5 316.5,-281.5 427.5,-281.5 427.5,-260.5 316.5,-260.5"/>
<text text-anchor="middle" x="372" y="-268.5" font-family="Helvetica,sans-Serif" font-size="10.00">uiODDisplayTreeItem</text>
</g>
<!-- Node5 -->
<g id="node9" class="node"><title>Node5</title>
<a xlink:href="classuiOD2DLineTreeItem.html" target="_top" xlink:title="uiOD2DLineTreeItem">
<polygon fill="white" stroke="black" points="490.5,-520.5 490.5,-541.5 599.5,-541.5 599.5,-520.5 490.5,-520.5"/>
<text text-anchor="middle" x="545" y="-528.5" font-family="Helvetica,sans-Serif" font-size="10.00">uiOD2DLineTreeItem</text>
</a>
</g>
<!-- Node1&#45;&gt;Node5 -->
<g id="edge8" class="edge"><title>Node1&#45;&gt;Node5</title>
<path fill="none" stroke="midnightblue" d="M373.644,-291.619C378.494,-338.137 396.948,-451.785 464,-511 471.491,-517.616 480.829,-522.118 490.473,-525.166"/>
<polygon fill="midnightblue" stroke="midnightblue" points="377.118,-291.181 372.701,-281.55 370.148,-291.833 377.118,-291.181"/>
</g>
<!-- Node6 -->
<g id="node11" class="node"><title>Node6</title>
<a xlink:href="classuiODAnnotSubItem.html" target="_top" xlink:title="uiODAnnotSubItem">
<polygon fill="white" stroke="black" points="494.5,-480.5 494.5,-501.5 595.5,-501.5 595.5,-480.5 494.5,-480.5"/>
<text text-anchor="middle" x="545" y="-488.5" font-family="Helvetica,sans-Serif" font-size="10.00">uiODAnnotSubItem</text>
</a>
</g>
<!-- Node1&#45;&gt;Node6 -->
<g id="edge10" class="edge"><title>Node1&#45;&gt;Node6</title>
<path fill="none" stroke="midnightblue" d="M375.384,-291.496C383.22,-332.221 406.529,-423.483 464,-471 472.596,-478.107 483.349,-482.748 494.183,-485.764"/>
<polygon fill="midnightblue" stroke="midnightblue" points="378.826,-290.861 373.605,-281.642 371.938,-292.105 378.826,-290.861"/>
</g>
<!-- Node10 -->
<g id="node19" class="node"><title>Node10</title>
<a xlink:href="classuiODBodyDisplayTreeItem.html" target="_top" xlink:title="uiODBodyDisplayTreeItem">
<polygon fill="white" stroke="black" points="478,-440.5 478,-461.5 612,-461.5 612,-440.5 478,-440.5"/>
<text text-anchor="middle" x="545" y="-448.5" font-family="Helvetica,sans-Serif" font-size="10.00">uiODBodyDisplayTreeItem</text>
</a>
</g>
<!-- Node1&#45;&gt;Node10 -->
<g id="edge18" class="edge"><title>Node1&#45;&gt;Node10</title>
<path fill="none" stroke="midnightblue" d="M377.895,-291.37C388.911,-325.688 415.961,-394.819 464,-431 469.091,-434.834 474.825,-437.941 480.83,-440.458"/>
<polygon fill="midnightblue" stroke="midnightblue" points="381.157,-290.069 374.875,-281.537 374.465,-292.124 381.157,-290.069"/>
</g>
<!-- Node11 -->
<g id="node21" class="node"><title>Node11</title>
<a xlink:href="classuiODEarthModelSurfaceTreeItem.html" target="_top" xlink:title="uiODEarthModelSurfaceTreeItem">
<polygon fill="white" stroke="black" points="464.5,-400.5 464.5,-421.5 625.5,-421.5 625.5,-400.5 464.5,-400.5"/>
<text text-anchor="middle" x="545" y="-408.5" font-family="Helvetica,sans-Serif" font-size="10.00">uiODEarthModelSurfaceTreeItem</text>
</a>
</g>
<!-- Node1&#45;&gt;Node11 -->
<g id="edge20" class="edge"><title>Node1&#45;&gt;Node11</title>
<path fill="none" stroke="midnightblue" d="M381.685,-290.805C395.91,-317.748 425.043,-365.51 464,-391 469.818,-394.807 476.302,-397.889 482.997,-400.385"/>
<polygon fill="midnightblue" stroke="midnightblue" points="384.642,-288.899 376.974,-281.588 378.409,-292.085 384.642,-288.899"/>
</g>
<!-- Node14 -->
<g id="node27" class="node"><title>Node14</title>
<a xlink:href="classuiODFaultStickSetTreeItem.html" target="_top" xlink:title="uiODFaultStickSetTreeItem">
<polygon fill="white" stroke="black" points="476.5,-360.5 476.5,-381.5 613.5,-381.5 613.5,-360.5 476.5,-360.5"/>
<text text-anchor="middle" x="545" y="-368.5" font-family="Helvetica,sans-Serif" font-size="10.00">uiODFaultStickSetTreeItem</text>
</a>
</g>
<!-- Node1&#45;&gt;Node14 -->
<g id="edge26" class="edge"><title>Node1&#45;&gt;Node14</title>
<path fill="none" stroke="midnightblue" d="M388.016,-289.285C405.06,-307.602 433.7,-335.268 464,-351 471.328,-354.805 479.408,-357.906 487.542,-360.43"/>
<polygon fill="midnightblue" stroke="midnightblue" points="390.352,-286.652 381.037,-281.604 385.171,-291.359 390.352,-286.652"/>
</g>
<!-- Node15 -->
<g id="node29" class="node"><title>Node15</title>
<a xlink:href="classuiODFaultTreeItem.html" target="_top" xlink:title="uiODFaultTreeItem">
<polygon fill="white" stroke="black" points="495,-320.5 495,-341.5 595,-341.5 595,-320.5 495,-320.5"/>
<text text-anchor="middle" x="545" y="-328.5" font-family="Helvetica,sans-Serif" font-size="10.00">uiODFaultTreeItem</text>
</a>
</g>
<!-- Node1&#45;&gt;Node15 -->
<g id="edge28" class="edge"><title>Node1&#45;&gt;Node15</title>
<path fill="none" stroke="midnightblue" d="M402.76,-285.921C420.398,-294.083 443.119,-303.939 464,-311 474.428,-314.527 485.804,-317.722 496.645,-320.472"/>
<polygon fill="midnightblue" stroke="midnightblue" points="404.068,-282.669 393.528,-281.59 401.095,-289.006 404.068,-282.669"/>
</g>
<!-- Node16 -->
<g id="node31" class="node"><title>Node16</title>
<a xlink:href="classuiODPickSetTreeItem.html" target="_top" xlink:title="uiODPickSetTreeItem">
<polygon fill="white" stroke="black" points="488.5,-280.5 488.5,-301.5 601.5,-301.5 601.5,-280.5 488.5,-280.5"/>
<text text-anchor="middle" x="545" y="-288.5" font-family="Helvetica,sans-Serif" font-size="10.00">uiODPickSetTreeItem</text>
</a>
</g>
<!-- Node1&#45;&gt;Node16 -->
<g id="edge30" class="edge"><title>Node1&#45;&gt;Node16</title>
<path fill="none" stroke="midnightblue" d="M437.859,-278.614C454.453,-280.532 472.122,-282.575 488.226,-284.437"/>
<polygon fill="midnightblue" stroke="midnightblue" points="438.026,-275.11 427.691,-277.438 437.222,-282.064 438.026,-275.11"/>
</g>
<!-- Node17 -->
<g id="node33" class="node"><title>Node17</title>
<a xlink:href="classuiODPlaneDataTreeItem.html" target="_top" xlink:title="uiODPlaneDataTreeItem">
<polygon fill="white" stroke="black" points="483,-240.5 483,-261.5 607,-261.5 607,-240.5 483,-240.5"/>
<text text-anchor="middle" x="545" y="-248.5" font-family="Helvetica,sans-Serif" font-size="10.00">uiODPlaneDataTreeItem</text>
</a>
</g>
<!-- Node1&#45;&gt;Node17 -->
<g id="edge32" class="edge"><title>Node1&#45;&gt;Node17</title>
<path fill="none" stroke="midnightblue" d="M437.764,-263.397C452.545,-261.688 468.184,-259.88 482.814,-258.189"/>
<polygon fill="midnightblue" stroke="midnightblue" points="437.222,-259.936 427.691,-264.562 438.026,-266.89 437.222,-259.936"/>
</g>
<!-- Node21 -->
<g id="node41" class="node"><title>Node21</title>
<a xlink:href="classuiODPolygonTreeItem.html" target="_top" xlink:title="uiODPolygonTreeItem">
<polygon fill="white" stroke="black" points="488.5,-200.5 488.5,-221.5 601.5,-221.5 601.5,-200.5 488.5,-200.5"/>
<text text-anchor="middle" x="545" y="-208.5" font-family="Helvetica,sans-Serif" font-size="10.00">uiODPolygonTreeItem</text>
</a>
</g>
<!-- Node1&#45;&gt;Node21 -->
<g id="edge40" class="edge"><title>Node1&#45;&gt;Node21</title>
<path fill="none" stroke="midnightblue" d="M402.76,-256.079C420.398,-247.917 443.119,-238.061 464,-231 474.428,-227.473 485.804,-224.278 496.645,-221.528"/>
<polygon fill="midnightblue" stroke="midnightblue" points="401.095,-252.994 393.528,-260.41 404.068,-259.331 401.095,-252.994"/>
</g>
<!-- Node22 -->
<g id="node43" class="node"><title>Node22</title>
<a xlink:href="classuiODPSEventsTreeItem.html" target="_top" xlink:title="uiODPSEventsTreeItem">
<polygon fill="white" stroke="black" points="484,-160.5 484,-181.5 606,-181.5 606,-160.5 484,-160.5"/>
<text text-anchor="middle" x="545" y="-168.5" font-family="Helvetica,sans-Serif" font-size="10.00">uiODPSEventsTreeItem</text>
</a>
</g>
<!-- Node1&#45;&gt;Node22 -->
<g id="edge42" class="edge"><title>Node1&#45;&gt;Node22</title>
<path fill="none" stroke="midnightblue" d="M388.016,-252.715C405.06,-234.398 433.7,-206.732 464,-191 471.328,-187.195 479.408,-184.094 487.542,-181.57"/>
<polygon fill="midnightblue" stroke="midnightblue" points="385.171,-250.641 381.037,-260.396 390.352,-255.348 385.171,-250.641"/>
</g>
<!-- Node23 -->
<g id="node45" class="node"><title>Node23</title>
<a xlink:href="classuiODRandomLineTreeItem.html" target="_top" xlink:title="uiODRandomLineTreeItem">
<polygon fill="white" stroke="black" points="478.5,-120.5 478.5,-141.5 611.5,-141.5 611.5,-120.5 478.5,-120.5"/>
<text text-anchor="middle" x="545" y="-128.5" font-family="Helvetica,sans-Serif" font-size="10.00">uiODRandomLineTreeItem</text>
</a>
</g>
<!-- Node1&#45;&gt;Node23 -->
<g id="edge44" class="edge"><title>Node1&#45;&gt;Node23</title>
<path fill="none" stroke="midnightblue" d="M381.685,-251.195C395.91,-224.252 425.043,-176.49 464,-151 469.818,-147.193 476.302,-144.111 482.997,-141.615"/>
<polygon fill="midnightblue" stroke="midnightblue" points="378.409,-249.915 376.974,-260.412 384.642,-253.101 378.409,-249.915"/>
</g>
<!-- Node24 -->
<g id="node47" class="node"><title>Node24</title>
<a xlink:href="classuiODVolrenSubTreeItem.html" target="_top" xlink:title="uiODVolrenSubTreeItem">
<polygon fill="white" stroke="black" points="483.5,-80.5 483.5,-101.5 606.5,-101.5 606.5,-80.5 483.5,-80.5"/>
<text text-anchor="middle" x="545" y="-88.5" font-family="Helvetica,sans-Serif" font-size="10.00">uiODVolrenSubTreeItem</text>
</a>
</g>
<!-- Node1&#45;&gt;Node24 -->
<g id="edge46" class="edge"><title>Node1&#45;&gt;Node24</title>
<path fill="none" stroke="midnightblue" d="M377.895,-250.63C388.911,-216.312 415.961,-147.181 464,-111 469.785,-106.643 476.4,-103.225 483.301,-100.545"/>
<polygon fill="midnightblue" stroke="midnightblue" points="374.465,-249.876 374.875,-260.463 381.157,-251.931 374.465,-249.876"/>
</g>
<!-- Node25 -->
<g id="node49" class="node"><title>Node25</title>
<a xlink:href="classuiODVolrenTreeItem.html" target="_top" xlink:title="uiODVolrenTreeItem">
<polygon fill="white" stroke="black" points="492,-40.5 492,-61.5 598,-61.5 598,-40.5 492,-40.5"/>
<text text-anchor="middle" x="545" y="-48.5" font-family="Helvetica,sans-Serif" font-size="10.00">uiODVolrenTreeItem</text>
</a>
</g>
<!-- Node1&#45;&gt;Node25 -->
<g id="edge48" class="edge"><title>Node1&#45;&gt;Node25</title>
<path fill="none" stroke="midnightblue" d="M375.384,-250.504C383.22,-209.779 406.529,-118.517 464,-71 471.926,-64.4469 481.686,-59.9903 491.653,-56.9714"/>
<polygon fill="midnightblue" stroke="midnightblue" points="371.938,-249.895 373.605,-260.358 378.826,-251.139 371.938,-249.895"/>
</g>
<!-- Node26 -->
<g id="node51" class="node"><title>Node26</title>
<a xlink:href="classuiODWellTreeItem.html" target="_top" xlink:title="uiODWellTreeItem">
<polygon fill="white" stroke="black" points="496,-0.5 496,-21.5 594,-21.5 594,-0.5 496,-0.5"/>
<text text-anchor="middle" x="545" y="-8.5" font-family="Helvetica,sans-Serif" font-size="10.00">uiODWellTreeItem</text>
</a>
</g>
<!-- Node1&#45;&gt;Node26 -->
<g id="edge50" class="edge"><title>Node1&#45;&gt;Node26</title>
<path fill="none" stroke="midnightblue" d="M373.644,-250.381C378.494,-203.863 396.948,-90.2148 464,-31 472.903,-23.1378 484.413,-18.2603 495.947,-15.2621"/>
<polygon fill="midnightblue" stroke="midnightblue" points="370.148,-250.167 372.701,-260.45 377.118,-250.819 370.148,-250.167"/>
</g>
<!-- Node2 -->
<g id="node2" class="node"><title>Node2</title>
<a xlink:href="classuiODTreeItem.html" target="_top" xlink:title="uiODTreeItem">
<polygon fill="white" stroke="black" points="202,-260.5 202,-281.5 280,-281.5 280,-260.5 202,-260.5"/>
<text text-anchor="middle" x="241" y="-268.5" font-family="Helvetica,sans-Serif" font-size="10.00">uiODTreeItem</text>
</a>
</g>
<!-- Node2&#45;&gt;Node1 -->
<g id="edge2" class="edge"><title>Node2&#45;&gt;Node1</title>
<path fill="none" stroke="midnightblue" d="M290.379,-271C298.827,-271 307.657,-271 316.257,-271"/>
<polygon fill="midnightblue" stroke="midnightblue" points="290.304,-267.5 280.304,-271 290.304,-274.5 290.304,-267.5"/>
</g>
<!-- Node3 -->
<g id="node4" class="node"><title>Node3</title>
<a xlink:href="classuiTreeItem.html" target="_top" xlink:title="uiTreeItem">
<polygon fill="white" stroke="black" points="102.5,-260.5 102.5,-281.5 165.5,-281.5 165.5,-260.5 102.5,-260.5"/>
<text text-anchor="middle" x="134" y="-268.5" font-family="Helvetica,sans-Serif" font-size="10.00">uiTreeItem</text>
</a>
</g>
<!-- Node3&#45;&gt;Node2 -->
<g id="edge4" class="edge"><title>Node3&#45;&gt;Node2</title>
<path fill="none" stroke="midnightblue" d="M175.698,-271C184.262,-271 193.251,-271 201.727,-271"/>
<polygon fill="midnightblue" stroke="midnightblue" points="175.525,-267.5 165.525,-271 175.525,-274.5 175.525,-267.5"/>
</g>
<!-- Node4 -->
<g id="node6" class="node"><title>Node4</title>
<a xlink:href="classCallBacker.html" target="_top" xlink:title="To be able to send and/or receive CallBacks, inherit from this class. ">
<polygon fill="white" stroke="black" points="0.5,-260.5 0.5,-281.5 65.5,-281.5 65.5,-260.5 0.5,-260.5"/>
<text text-anchor="middle" x="33" y="-268.5" font-family="Helvetica,sans-Serif" font-size="10.00">CallBacker</text>
</a>
</g>
<!-- Node4&#45;&gt;Node3 -->
<g id="edge6" class="edge"><title>Node4&#45;&gt;Node3</title>
<path fill="none" stroke="midnightblue" d="M75.7263,-271C84.6133,-271 93.8294,-271 102.238,-271"/>
<polygon fill="midnightblue" stroke="midnightblue" points="75.513,-267.5 65.513,-271 75.513,-274.5 75.513,-267.5"/>
</g>
<!-- Node7 -->
<g id="node13" class="node"><title>Node7</title>
<a xlink:href="classArrowSubItem.html" target="_top" xlink:title="ArrowSubItem">
<polygon fill="white" stroke="black" points="685.5,-520.5 685.5,-541.5 764.5,-541.5 764.5,-520.5 685.5,-520.5"/>
<text text-anchor="middle" x="725" y="-528.5" font-family="Helvetica,sans-Serif" font-size="10.00">ArrowSubItem</text>
</a>
</g>
<!-- Node6&#45;&gt;Node7 -->
<g id="edge12" class="edge"><title>Node6&#45;&gt;Node7</title>
<path fill="none" stroke="midnightblue" d="M602.405,-503.757C629.432,-509.763 660.994,-516.776 685.324,-522.183"/>
<polygon fill="midnightblue" stroke="midnightblue" points="602.814,-500.262 592.293,-501.51 601.295,-507.096 602.814,-500.262"/>
</g>
<!-- Node8 -->
<g id="node15" class="node"><title>Node8</title>
<a xlink:href="classImageSubItem.html" target="_top" xlink:title="ImageSubItem">
<polygon fill="white" stroke="black" points="685,-480.5 685,-501.5 765,-501.5 765,-480.5 685,-480.5"/>
<text text-anchor="middle" x="725" y="-488.5" font-family="Helvetica,sans-Serif" font-size="10.00">ImageSubItem</text>
</a>
</g>
<!-- Node6&#45;&gt;Node8 -->
<g id="edge14" class="edge"><title>Node6&#45;&gt;Node8</title>
<path fill="none" stroke="midnightblue" d="M605.767,-491C631.793,-491 661.479,-491 684.719,-491"/>
<polygon fill="midnightblue" stroke="midnightblue" points="605.619,-487.5 595.619,-491 605.619,-494.5 605.619,-487.5"/>
</g>
<!-- Node9 -->
<g id="node17" class="node"><title>Node9</title>
<a xlink:href="classScaleBarSubItem.html" target="_top" xlink:title="ScaleBarSubItem">
<polygon fill="white" stroke="black" points="678.5,-440.5 678.5,-461.5 771.5,-461.5 771.5,-440.5 678.5,-440.5"/>
<text text-anchor="middle" x="725" y="-448.5" font-family="Helvetica,sans-Serif" font-size="10.00">ScaleBarSubItem</text>
</a>
</g>
<!-- Node6&#45;&gt;Node9 -->
<g id="edge16" class="edge"><title>Node6&#45;&gt;Node9</title>
<path fill="none" stroke="midnightblue" d="M602.203,-478.288C626.755,-472.832 655.08,-466.538 678.335,-461.37"/>
<polygon fill="midnightblue" stroke="midnightblue" points="601.295,-474.904 592.293,-480.49 602.814,-481.738 601.295,-474.904"/>
</g>
<!-- Node12 -->
<g id="node23" class="node"><title>Node12</title>
<a xlink:href="classuiODHorizon2DTreeItem.html" target="_top" xlink:title="uiODHorizon2DTreeItem">
<polygon fill="white" stroke="black" points="662.5,-400.5 662.5,-421.5 787.5,-421.5 787.5,-400.5 662.5,-400.5"/>
<text text-anchor="middle" x="725" y="-408.5" font-family="Helvetica,sans-Serif" font-size="10.00">uiODHorizon2DTreeItem</text>
</a>
</g>
<!-- Node11&#45;&gt;Node12 -->
<g id="edge22" class="edge"><title>Node11&#45;&gt;Node12</title>
<path fill="none" stroke="midnightblue" d="M635.694,-411C644.716,-411 653.728,-411 662.368,-411"/>
<polygon fill="midnightblue" stroke="midnightblue" points="635.523,-407.5 625.523,-411 635.523,-414.5 635.523,-407.5"/>
</g>
<!-- Node13 -->
<g id="node25" class="node"><title>Node13</title>
<a xlink:href="classuiODHorizonTreeItem.html" target="_top" xlink:title="uiODHorizonTreeItem">
<polygon fill="white" stroke="black" points="669,-360.5 669,-381.5 781,-381.5 781,-360.5 669,-360.5"/>
<text text-anchor="middle" x="725" y="-368.5" font-family="Helvetica,sans-Serif" font-size="10.00">uiODHorizonTreeItem</text>
</a>
</g>
<!-- Node11&#45;&gt;Node13 -->
<g id="edge24" class="edge"><title>Node11&#45;&gt;Node13</title>
<path fill="none" stroke="midnightblue" d="M602.124,-398.306C626.475,-392.894 654.55,-386.656 677.711,-381.509"/>
<polygon fill="midnightblue" stroke="midnightblue" points="601.295,-394.904 592.293,-400.49 602.814,-401.738 601.295,-394.904"/>
</g>
<!-- Node18 -->
<g id="node35" class="node"><title>Node18</title>
<a xlink:href="classuiODCrosslineTreeItem.html" target="_top" xlink:title="uiODCrosslineTreeItem">
<polygon fill="white" stroke="black" points="665.5,-280.5 665.5,-301.5 784.5,-301.5 784.5,-280.5 665.5,-280.5"/>
<text text-anchor="middle" x="725" y="-288.5" font-family="Helvetica,sans-Serif" font-size="10.00">uiODCrosslineTreeItem</text>
</a>
</g>
<!-- Node17&#45;&gt;Node18 -->
<g id="edge34" class="edge"><title>Node17&#45;&gt;Node18</title>
<path fill="none" stroke="midnightblue" d="M602.124,-263.694C626.475,-269.106 654.55,-275.344 677.711,-280.491"/>
<polygon fill="midnightblue" stroke="midnightblue" points="602.814,-260.262 592.293,-261.51 601.295,-267.096 602.814,-260.262"/>
</g>
<!-- Node19 -->
<g id="node37" class="node"><title>Node19</title>
<a xlink:href="classuiODInlineTreeItem.html" target="_top" xlink:title="uiODInlineTreeItem">
<polygon fill="white" stroke="black" points="674.5,-240.5 674.5,-261.5 775.5,-261.5 775.5,-240.5 674.5,-240.5"/>
<text text-anchor="middle" x="725" y="-248.5" font-family="Helvetica,sans-Serif" font-size="10.00">uiODInlineTreeItem</text>
</a>
</g>
<!-- Node17&#45;&gt;Node19 -->
<g id="edge36" class="edge"><title>Node17&#45;&gt;Node19</title>
<path fill="none" stroke="midnightblue" d="M617.379,-251C636.499,-251 656.723,-251 674.415,-251"/>
<polygon fill="midnightblue" stroke="midnightblue" points="617.198,-247.5 607.198,-251 617.198,-254.5 617.198,-247.5"/>
</g>
<!-- Node20 -->
<g id="node39" class="node"><title>Node20</title>
<a xlink:href="classuiODZsliceTreeItem.html" target="_top" xlink:title="uiODZsliceTreeItem">
<polygon fill="white" stroke="black" points="673,-200.5 673,-221.5 777,-221.5 777,-200.5 673,-200.5"/>
<text text-anchor="middle" x="725" y="-208.5" font-family="Helvetica,sans-Serif" font-size="10.00">uiODZsliceTreeItem</text>
</a>
</g>
<!-- Node17&#45;&gt;Node20 -->
<g id="edge38" class="edge"><title>Node17&#45;&gt;Node20</title>
<path fill="none" stroke="midnightblue" d="M602.124,-238.306C626.475,-232.894 654.55,-226.656 677.711,-221.509"/>
<polygon fill="midnightblue" stroke="midnightblue" points="601.295,-234.904 592.293,-240.49 602.814,-241.738 601.295,-234.904"/>
</g>
</g>
</svg>
