<?xml version="1.0" encoding="UTF-8" standalone="no"?>
<!DOCTYPE svg PUBLIC "-//W3C//DTD SVG 1.1//EN"
 "http://www.w3.org/Graphics/SVG/1.1/DTD/svg11.dtd">
<!-- Generated by graphviz version 2.26.0 (20091210.2329)
 -->
<!-- Title: Survey::Geometry Pages: 1 -->
<svg width="244pt" height="146pt"
 viewBox="0.00 0.00 244.00 146.00" xmlns="http://www.w3.org/2000/svg" xmlns:xlink="http://www.w3.org/1999/xlink">
<g id="graph1" class="graph" transform="scale(1 1) rotate(0) translate(4 142)">
<title>Survey::Geometry</title>
<polygon fill="white" stroke="white" points="-4,5 -4,-142 241,-142 241,5 -4,5"/>
<!-- Node1 -->
<g id="node1" class="node"><title>Node1</title>
<polygon fill="#bfbfbf" stroke="black" points="69,-116.5 69,-137.5 165,-137.5 165,-116.5 69,-116.5"/>
<text text-anchor="middle" x="117" y="-124.5" font-family="Helvetica,sans-Serif" font-size="10.00">Survey::Geometry</text>
</g>
<!-- Node2 -->
<g id="node3" class="node"><title>Node2</title>
<a xlink:href="classSurvey_1_1Geometry2D.html" target="_top" xlink:title="Geometry of a 2D Line. ">
<polygon fill="white" stroke="black" points="-0.5,-58.5 -0.5,-79.5 108.5,-79.5 108.5,-58.5 -0.5,-58.5"/>
<text text-anchor="middle" x="54" y="-66.5" font-family="Helvetica,sans-Serif" font-size="10.00">Survey::Geometry2D</text>
</a>
</g>
<!-- Node1&#45;&gt;Node2 -->
<g id="edge2" class="edge"><title>Node1&#45;&gt;Node2</title>
<path fill="none" stroke="midnightblue" d="M97.8882,-109.405C87.3122,-99.6683 74.52,-87.8914 65.4819,-79.5707"/>
<polygon fill="midnightblue" stroke="midnightblue" points="95.7172,-112.164 105.445,-116.362 100.458,-107.014 95.7172,-112.164"/>
</g>
<!-- Node3 -->
<g id="node5" class="node"><title>Node3</title>
<a xlink:href="classSurvey_1_1Geometry3D.html" target="_top" xlink:title="Scaled down survey geometry for an inl/crl geometry. ">
<polygon fill="white" stroke="black" points="125.5,-58.5 125.5,-79.5 234.5,-79.5 234.5,-58.5 125.5,-58.5"/>
<text text-anchor="middle" x="180" y="-66.5" font-family="Helvetica,sans-Serif" font-size="10.00">Survey::Geometry3D</text>
</a>
</g>
<!-- Node1&#45;&gt;Node3 -->
<g id="edge4" class="edge"><title>Node1&#45;&gt;Node3</title>
<path fill="none" stroke="midnightblue" d="M136.112,-109.405C146.688,-99.6683 159.48,-87.8914 168.518,-79.5707"/>
<polygon fill="midnightblue" stroke="midnightblue" points="133.542,-107.014 128.555,-116.362 138.283,-112.164 133.542,-107.014"/>
</g>
<!-- Node4 -->
<g id="node7" class="node"><title>Node4</title>
<a xlink:href="classSeis_1_1Blocks_1_1HGeom.html" target="_top" xlink:title="Seis::Blocks::HGeom">
<polygon fill="white" stroke="black" points="124,-0.5 124,-21.5 236,-21.5 236,-0.5 124,-0.5"/>
<text text-anchor="middle" x="180" y="-8.5" font-family="Helvetica,sans-Serif" font-size="10.00">Seis::Blocks::HGeom</text>
</a>
</g>
<!-- Node3&#45;&gt;Node4 -->
<g id="edge6" class="edge"><title>Node3&#45;&gt;Node4</title>
<path fill="none" stroke="midnightblue" d="M180,-48.1906C180,-39.1684 180,-28.9941 180,-21.5707"/>
<polygon fill="midnightblue" stroke="midnightblue" points="176.5,-48.3619 180,-58.3619 183.5,-48.3619 176.5,-48.3619"/>
</g>
</g>
</svg>
