<?xml version="1.0" encoding="UTF-8" standalone="no"?>
<!DOCTYPE svg PUBLIC "-//W3C//DTD SVG 1.1//EN"
 "http://www.w3.org/Graphics/SVG/1.1/DTD/svg11.dtd">
<!-- Generated by graphviz version 2.26.0 (20091210.2329)
 -->
<!-- Title: SEGYDirectSeisPS3DTranslator Pages: 1 -->
<svg width="168pt" height="204pt"
 viewBox="0.00 0.00 168.00 204.00" xmlns="http://www.w3.org/2000/svg" xmlns:xlink="http://www.w3.org/1999/xlink">
<g id="graph1" class="graph" transform="scale(1 1) rotate(0) translate(4 200)">
<title>SEGYDirectSeisPS3DTranslator</title>
<polygon fill="white" stroke="white" points="-4,5 -4,-200 165,-200 165,5 -4,5"/>
<!-- Node1 -->
<g id="node1" class="node"><title>Node1</title>
<polygon fill="#bfbfbf" stroke="black" points="0,-0.5 0,-21.5 160,-21.5 160,-0.5 0,-0.5"/>
<text text-anchor="middle" x="80" y="-8.5" font-family="Helvetica,sans-Serif" font-size="10.00">SEGYDirectSeisPS3DTranslator</text>
</g>
<!-- Node2 -->
<g id="node2" class="node"><title>Node2</title>
<a xlink:href="classSeisPS3DTranslator.html" target="_top" xlink:title="SeisPS3DTranslator">
<polygon fill="white" stroke="black" points="27,-58.5 27,-79.5 133,-79.5 133,-58.5 27,-58.5"/>
<text text-anchor="middle" x="80" y="-66.5" font-family="Helvetica,sans-Serif" font-size="10.00">SeisPS3DTranslator</text>
</a>
</g>
<!-- Node2&#45;&gt;Node1 -->
<g id="edge2" class="edge"><title>Node2&#45;&gt;Node1</title>
<path fill="none" stroke="midnightblue" d="M80,-48.1906C80,-39.1684 80,-28.9941 80,-21.5707"/>
<polygon fill="midnightblue" stroke="midnightblue" points="76.5001,-48.3619 80,-58.3619 83.5001,-48.3619 76.5001,-48.3619"/>
</g>
<!-- Node3 -->
<g id="node4" class="node"><title>Node3</title>
<a xlink:href="classTranslator.html" target="_top" xlink:title="I/O Interpreter class for a certain object type. ">
<polygon fill="white" stroke="black" points="50,-116.5 50,-137.5 110,-137.5 110,-116.5 50,-116.5"/>
<text text-anchor="middle" x="80" y="-124.5" font-family="Helvetica,sans-Serif" font-size="10.00">Translator</text>
</a>
</g>
<!-- Node3&#45;&gt;Node2 -->
<g id="edge4" class="edge"><title>Node3&#45;&gt;Node2</title>
<path fill="none" stroke="midnightblue" d="M80,-106.191C80,-97.1684 80,-86.9941 80,-79.5707"/>
<polygon fill="midnightblue" stroke="midnightblue" points="76.5001,-106.362 80,-116.362 83.5001,-106.362 76.5001,-106.362"/>
</g>
<!-- Node4 -->
<g id="node6" class="node"><title>Node4</title>
<a xlink:href="classCallBacker.html" target="_top" xlink:title="To be able to send and/or receive CallBacks, inherit from this class. ">
<polygon fill="white" stroke="black" points="47.5,-174.5 47.5,-195.5 112.5,-195.5 112.5,-174.5 47.5,-174.5"/>
<text text-anchor="middle" x="80" y="-182.5" font-family="Helvetica,sans-Serif" font-size="10.00">CallBacker</text>
</a>
</g>
<!-- Node4&#45;&gt;Node3 -->
<g id="edge6" class="edge"><title>Node4&#45;&gt;Node3</title>
<path fill="none" stroke="midnightblue" d="M80,-164.191C80,-155.168 80,-144.994 80,-137.571"/>
<polygon fill="midnightblue" stroke="midnightblue" points="76.5001,-164.362 80,-174.362 83.5001,-164.362 76.5001,-164.362"/>
</g>
</g>
</svg>
