<?xml version="1.0" encoding="UTF-8" standalone="no"?>
<!DOCTYPE svg PUBLIC "-//W3C//DTD SVG 1.1//EN"
 "http://www.w3.org/Graphics/SVG/1.1/DTD/svg11.dtd">
<!-- Generated by graphviz version 2.26.0 (20091210.2329)
 -->
<!-- Title: Coord3 Pages: 1 -->
<svg width="172pt" height="236pt"
 viewBox="0.00 0.00 172.00 236.00" xmlns="http://www.w3.org/2000/svg" xmlns:xlink="http://www.w3.org/1999/xlink">
<g id="graph1" class="graph" transform="scale(1 1) rotate(0) translate(4 232)">
<title>Coord3</title>
<polygon fill="white" stroke="white" points="-4,5 -4,-232 169,-232 169,5 -4,5"/>
<!-- Node1 -->
<g id="node1" class="node"><title>Node1</title>
<polygon fill="#bfbfbf" stroke="black" points="31,-0.5 31,-21.5 79,-21.5 79,-0.5 31,-0.5"/>
<text text-anchor="middle" x="55" y="-8.5" font-family="Helvetica,sans-Serif" font-size="10.00">Coord3</text>
</g>
<!-- Node2 -->
<g id="node2" class="node"><title>Node2</title>
<a xlink:href="classCoord.html" target="_top" xlink:title="A cartesian coordinate in 2D space. ">
<polygon fill="white" stroke="black" points="33.5,-60.5 33.5,-81.5 76.5,-81.5 76.5,-60.5 33.5,-60.5"/>
<text text-anchor="middle" x="55" y="-68.5" font-family="Helvetica,sans-Serif" font-size="10.00">Coord</text>
</a>
</g>
<!-- Node2&#45;&gt;Node1 -->
<g id="edge2" class="edge"><title>Node2&#45;&gt;Node1</title>
<path fill="none" stroke="midnightblue" d="M55,-50.2312C55,-40.5922 55,-29.5444 55,-21.6339"/>
<polygon fill="midnightblue" stroke="midnightblue" points="51.5001,-50.2732 55,-60.2732 58.5001,-50.2732 51.5001,-50.2732"/>
</g>
<!-- Node3 -->
<g id="node4" class="node"><title>Node3</title>
<a xlink:href="classGeom_1_1Point2D.html" target="_top" xlink:title="Geom::Point2D\&lt; Pos\l::Ordinate_Type \&gt;">
<polygon fill="white" stroke="black" points="0,-121 0,-155 110,-155 110,-121 0,-121"/>
<text text-anchor="start" x="8" y="-142" font-family="Helvetica,sans-Serif" font-size="10.00">Geom::Point2D&lt; Pos</text>
<text text-anchor="middle" x="55" y="-129" font-family="Helvetica,sans-Serif" font-size="10.00">::Ordinate_Type &gt;</text>
</a>
</g>
<!-- Node3&#45;&gt;Node2 -->
<g id="edge4" class="edge"><title>Node3&#45;&gt;Node2</title>
<path fill="none" stroke="midnightblue" d="M55,-110.534C55,-100.306 55,-89.3007 55,-81.5056"/>
<polygon fill="midnightblue" stroke="midnightblue" points="51.5001,-110.746 55,-120.746 58.5001,-110.746 51.5001,-110.746"/>
</g>
<!-- Node4 -->
<g id="node6" class="node"><title>Node4</title>
<a xlink:href="classGeom_1_1Point2D.html" target="_top" xlink:title="Basic point class. ">
<polygon fill="white" stroke="black" points="1,-206.5 1,-227.5 109,-227.5 109,-206.5 1,-206.5"/>
<text text-anchor="middle" x="55" y="-214.5" font-family="Helvetica,sans-Serif" font-size="10.00">Geom::Point2D&lt; T &gt;</text>
</a>
</g>
<!-- Node4&#45;&gt;Node3 -->
<g id="edge6" class="edge"><title>Node4&#45;&gt;Node3</title>
<path fill="none" stroke="orange" stroke-dasharray="5,2" d="M55,-196.162C55,-183.363 55,-167.171 55,-155.124"/>
<polygon fill="orange" stroke="orange" points="51.5001,-196.346 55,-206.346 58.5001,-196.346 51.5001,-196.346"/>
<text text-anchor="middle" x="109.5" y="-178.5" font-family="Helvetica,sans-Serif" font-size="10.00"> &lt; Pos::Ordinate_Type &gt;</text>
</g>
</g>
</svg>
