<?xml version="1.0" encoding="UTF-8" standalone="no"?>
<!DOCTYPE svg PUBLIC "-//W3C//DTD SVG 1.1//EN"
 "http://www.w3.org/Graphics/SVG/1.1/DTD/svg11.dtd">
<!-- Generated by graphviz version 2.26.0 (20091210.2329)
 -->
<!-- Title: PlaneParameters&lt; T &gt; Pages: 1 -->
<svg width="266pt" height="334pt"
 viewBox="0.00 0.00 266.00 334.00" xmlns="http://www.w3.org/2000/svg" xmlns:xlink="http://www.w3.org/1999/xlink">
<g id="graph1" class="graph" transform="scale(1 1) rotate(0) translate(4 330)">
<title>PlaneParameters&lt; T &gt;</title>
<polygon fill="white" stroke="white" points="-4,5 -4,-330 263,-330 263,5 -4,5"/>
<!-- Node1 -->
<g id="node1" class="node"><title>Node1</title>
<polygon fill="#bfbfbf" stroke="black" points="47,-72.5 47,-93.5 163,-93.5 163,-72.5 47,-72.5"/>
<text text-anchor="middle" x="105" y="-80.5" font-family="Helvetica,sans-Serif" font-size="10.00">PlaneParameters&lt; T &gt;</text>
</g>
<!-- Node6 -->
<g id="node12" class="node"><title>Node6</title>
<a xlink:href="classPlaneParameters.html" target="_top" xlink:title="PlaneParameters\&lt; float \&gt;">
<polygon fill="white" stroke="black" points="41,-0.5 41,-21.5 169,-21.5 169,-0.5 41,-0.5"/>
<text text-anchor="middle" x="105" y="-8.5" font-family="Helvetica,sans-Serif" font-size="10.00">PlaneParameters&lt; float &gt;</text>
</a>
</g>
<!-- Node1&#45;&gt;Node6 -->
<g id="edge12" class="edge"><title>Node1&#45;&gt;Node6</title>
<path fill="none" stroke="orange" stroke-dasharray="5,2" d="M105,-62.2348C105,-48.969 105,-32.3188 105,-21.6674"/>
<polygon fill="orange" stroke="orange" points="101.5,-62.3761 105,-72.3762 108.5,-62.3762 101.5,-62.3761"/>
<text text-anchor="middle" x="125" y="-44.5" font-family="Helvetica,sans-Serif" font-size="10.00"> &lt; float &gt;</text>
</g>
<!-- Node2 -->
<g id="node2" class="node"><title>Node2</title>
<a xlink:href="classMathXYFunction.html" target="_top" xlink:title="MathXYFunction\&lt; T, T \&gt;">
<polygon fill="white" stroke="black" points="42.5,-132.5 42.5,-153.5 167.5,-153.5 167.5,-132.5 42.5,-132.5"/>
<text text-anchor="middle" x="105" y="-140.5" font-family="Helvetica,sans-Serif" font-size="10.00">MathXYFunction&lt; T, T &gt;</text>
</a>
</g>
<!-- Node2&#45;&gt;Node1 -->
<g id="edge2" class="edge"><title>Node2&#45;&gt;Node1</title>
<path fill="none" stroke="midnightblue" d="M105,-122.231C105,-112.592 105,-101.544 105,-93.6339"/>
<polygon fill="midnightblue" stroke="midnightblue" points="101.5,-122.273 105,-132.273 108.5,-122.273 101.5,-122.273"/>
</g>
<!-- Node3 -->
<g id="node4" class="node"><title>Node3</title>
<a xlink:href="classMathFunctionND.html" target="_top" xlink:title="MathFunctionND\&lt; T, T \&gt;">
<polygon fill="white" stroke="black" points="-0.5,-211.5 -0.5,-232.5 126.5,-232.5 126.5,-211.5 -0.5,-211.5"/>
<text text-anchor="middle" x="63" y="-219.5" font-family="Helvetica,sans-Serif" font-size="10.00">MathFunctionND&lt; T, T &gt;</text>
</a>
</g>
<!-- Node3&#45;&gt;Node2 -->
<g id="edge4" class="edge"><title>Node3&#45;&gt;Node2</title>
<path fill="none" stroke="midnightblue" d="M73.5444,-202.166C81.7058,-186.815 92.6959,-166.143 99.2913,-153.738"/>
<polygon fill="midnightblue" stroke="midnightblue" points="70.2682,-200.873 68.6643,-211.346 76.449,-204.159 70.2682,-200.873"/>
</g>
<!-- Node4 -->
<g id="node6" class="node"><title>Node4</title>
<a xlink:href="classMathFunctionND.html" target="_top" xlink:title="Multidimensional Mathematical function. ">
<polygon fill="white" stroke="black" points="84,-291 84,-325 200,-325 200,-291 84,-291"/>
<text text-anchor="start" x="92" y="-312" font-family="Helvetica,sans-Serif" font-size="10.00">MathFunctionND&lt; RT,</text>
<text text-anchor="middle" x="142" y="-299" font-family="Helvetica,sans-Serif" font-size="10.00"> PT &gt;</text>
</a>
</g>
<!-- Node4&#45;&gt;Node3 -->
<g id="edge6" class="edge"><title>Node4&#45;&gt;Node3</title>
<path fill="none" stroke="orange" stroke-dasharray="5,2" d="M118.897,-282.85C103.647,-266.249 84.434,-245.333 72.9654,-232.848"/>
<polygon fill="orange" stroke="orange" points="116.671,-285.6 126.013,-290.597 121.826,-280.864 116.671,-285.6"/>
<text text-anchor="middle" x="127" y="-262.5" font-family="Helvetica,sans-Serif" font-size="10.00"> &lt; T, T &gt;</text>
</g>
<!-- Node5 -->
<g id="node8" class="node"><title>Node5</title>
<a xlink:href="classMathXYFunction.html" target="_top" xlink:title="A Math Function as in F(x,y). ">
<polygon fill="white" stroke="black" points="143.5,-205 143.5,-239 258.5,-239 258.5,-205 143.5,-205"/>
<text text-anchor="start" x="151.5" y="-226" font-family="Helvetica,sans-Serif" font-size="10.00">MathXYFunction&lt; RT,</text>
<text text-anchor="middle" x="201" y="-213" font-family="Helvetica,sans-Serif" font-size="10.00"> PT &gt;</text>
</a>
</g>
<!-- Node4&#45;&gt;Node5 -->
<g id="edge10" class="edge"><title>Node4&#45;&gt;Node5</title>
<path fill="none" stroke="midnightblue" d="M159.605,-282.339C169.195,-268.36 180.8,-251.444 189.28,-239.084"/>
<polygon fill="midnightblue" stroke="midnightblue" points="156.711,-280.371 153.94,-290.597 162.483,-284.331 156.711,-280.371"/>
</g>
<!-- Node5&#45;&gt;Node2 -->
<g id="edge8" class="edge"><title>Node5&#45;&gt;Node2</title>
<path fill="none" stroke="orange" stroke-dasharray="5,2" d="M172.211,-198.309C154.12,-183.422 131.67,-164.947 117.841,-153.567"/>
<polygon fill="orange" stroke="orange" points="170.224,-201.206 180.169,-204.858 174.672,-195.801 170.224,-201.206"/>
<text text-anchor="middle" x="175" y="-176.5" font-family="Helvetica,sans-Serif" font-size="10.00"> &lt; T, T &gt;</text>
</g>
</g>
</svg>
