<?xml version="1.0" encoding="UTF-8" standalone="no"?>
<!DOCTYPE svg PUBLIC "-//W3C//DTD SVG 1.1//EN"
 "http://www.w3.org/Graphics/SVG/1.1/DTD/svg11.dtd">
<!-- Generated by graphviz version 2.26.0 (20091210.2329)
 -->
<!-- Title: uiRect Pages: 1 -->
<svg width="278pt" height="248pt"
 viewBox="0.00 0.00 278.00 248.00" xmlns="http://www.w3.org/2000/svg" xmlns:xlink="http://www.w3.org/1999/xlink">
<g id="graph1" class="graph" transform="scale(1 1) rotate(0) translate(4 244)">
<title>uiRect</title>
<polygon fill="white" stroke="white" points="-4,5 -4,-244 275,-244 275,5 -4,5"/>
<!-- Node1 -->
<g id="node1" class="node"><title>Node1</title>
<polygon fill="#bfbfbf" stroke="black" points="82.5,-0.5 82.5,-21.5 127.5,-21.5 127.5,-0.5 82.5,-0.5"/>
<text text-anchor="middle" x="105" y="-8.5" font-family="Helvetica,sans-Serif" font-size="10.00">uiRect</text>
</g>
<!-- Node2 -->
<g id="node2" class="node"><title>Node2</title>
<a xlink:href="classGeom_1_1PixRectangle.html" target="_top" xlink:title="Geom::PixRectangle\l\&lt; int \&gt;">
<polygon fill="white" stroke="black" points="51.5,-61 51.5,-95 158.5,-95 158.5,-61 51.5,-61"/>
<text text-anchor="start" x="59.5" y="-82" font-family="Helvetica,sans-Serif" font-size="10.00">Geom::PixRectangle</text>
<text text-anchor="middle" x="105" y="-69" font-family="Helvetica,sans-Serif" font-size="10.00">&lt; int &gt;</text>
</a>
</g>
<!-- Node2&#45;&gt;Node1 -->
<g id="edge2" class="edge"><title>Node2&#45;&gt;Node1</title>
<path fill="none" stroke="midnightblue" d="M105,-50.5344C105,-40.3057 105,-29.3007 105,-21.5056"/>
<polygon fill="midnightblue" stroke="midnightblue" points="101.5,-50.7458 105,-60.7458 108.5,-50.7459 101.5,-50.7458"/>
</g>
<!-- Node3 -->
<g id="node4" class="node"><title>Node3</title>
<a xlink:href="classGeom_1_1Rectangle.html" target="_top" xlink:title="Geom::Rectangle\&lt; int \&gt;">
<polygon fill="white" stroke="black" points="0,-146.5 0,-167.5 122,-167.5 122,-146.5 0,-146.5"/>
<text text-anchor="middle" x="61" y="-154.5" font-family="Helvetica,sans-Serif" font-size="10.00">Geom::Rectangle&lt; int &gt;</text>
</a>
</g>
<!-- Node3&#45;&gt;Node2 -->
<g id="edge4" class="edge"><title>Node3&#45;&gt;Node2</title>
<path fill="none" stroke="midnightblue" d="M71.9634,-137.316C79.1856,-124.349 88.5493,-107.536 95.4628,-95.1236"/>
<polygon fill="midnightblue" stroke="midnightblue" points="68.7422,-135.906 66.934,-146.346 74.8576,-139.312 68.7422,-135.906"/>
</g>
<!-- Node4 -->
<g id="node6" class="node"><title>Node4</title>
<a xlink:href="classGeom_1_1Rectangle.html" target="_top" xlink:title="Basic 2D rectangle class. ">
<polygon fill="white" stroke="black" points="85.5,-218.5 85.5,-239.5 202.5,-239.5 202.5,-218.5 85.5,-218.5"/>
<text text-anchor="middle" x="144" y="-226.5" font-family="Helvetica,sans-Serif" font-size="10.00">Geom::Rectangle&lt; T &gt;</text>
</a>
</g>
<!-- Node4&#45;&gt;Node3 -->
<g id="edge6" class="edge"><title>Node4&#45;&gt;Node3</title>
<path fill="none" stroke="orange" stroke-dasharray="5,2" d="M124.089,-211.728C108.281,-198.015 86.6809,-179.277 73.2972,-167.667"/>
<polygon fill="orange" stroke="orange" points="121.906,-214.467 131.753,-218.376 126.493,-209.179 121.906,-214.467"/>
<text text-anchor="middle" x="125" y="-190.5" font-family="Helvetica,sans-Serif" font-size="10.00"> &lt; int &gt;</text>
</g>
<!-- Node5 -->
<g id="node8" class="node"><title>Node5</title>
<a xlink:href="classGeom_1_1PixRectangle.html" target="_top" xlink:title="Integer rectangle class. ">
<polygon fill="white" stroke="black" points="139.5,-146.5 139.5,-167.5 270.5,-167.5 270.5,-146.5 139.5,-146.5"/>
<text text-anchor="middle" x="205" y="-154.5" font-family="Helvetica,sans-Serif" font-size="10.00">Geom::PixRectangle&lt; T &gt;</text>
</a>
</g>
<!-- Node4&#45;&gt;Node5 -->
<g id="edge10" class="edge"><title>Node4&#45;&gt;Node5</title>
<path fill="none" stroke="midnightblue" d="M159.602,-210.584C171.121,-196.989 186.397,-178.958 195.962,-167.667"/>
<polygon fill="midnightblue" stroke="midnightblue" points="156.795,-208.484 153.001,-218.376 162.135,-213.009 156.795,-208.484"/>
</g>
<!-- Node5&#45;&gt;Node2 -->
<g id="edge8" class="edge"><title>Node5&#45;&gt;Node2</title>
<path fill="none" stroke="orange" stroke-dasharray="5,2" d="M183.39,-139.928C166.616,-126.677 143.466,-108.388 126.675,-95.1236"/>
<polygon fill="orange" stroke="orange" points="181.497,-142.893 191.514,-146.346 185.836,-137.4 181.497,-142.893"/>
<text text-anchor="middle" x="182" y="-118.5" font-family="Helvetica,sans-Serif" font-size="10.00"> &lt; int &gt;</text>
</g>
</g>
</svg>
