<?xml version="1.0" encoding="UTF-8" standalone="no"?>
<!DOCTYPE svg PUBLIC "-//W3C//DTD SVG 1.1//EN"
 "http://www.w3.org/Graphics/SVG/1.1/DTD/svg11.dtd">
<!-- Generated by graphviz version 2.26.0 (20091210.2329)
 -->
<!-- Title: Property Pages: 1 -->
<svg width="278pt" height="88pt"
 viewBox="0.00 0.00 278.00 88.00" xmlns="http://www.w3.org/2000/svg" xmlns:xlink="http://www.w3.org/1999/xlink">
<g id="graph1" class="graph" transform="scale(1 1) rotate(0) translate(4 84)">
<title>Property</title>
<polygon fill="white" stroke="white" points="-4,5 -4,-84 275,-84 275,5 -4,5"/>
<!-- Node1 -->
<g id="node1" class="node"><title>Node1</title>
<polygon fill="#bfbfbf" stroke="black" points="106.5,-58.5 106.5,-79.5 159.5,-79.5 159.5,-58.5 106.5,-58.5"/>
<text text-anchor="middle" x="133" y="-66.5" font-family="Helvetica,sans-Serif" font-size="10.00">Property</text>
</g>
<!-- Node2 -->
<g id="node3" class="node"><title>Node2</title>
<a xlink:href="classMathProperty.html" target="_top" xlink:title="Calculated property. ">
<polygon fill="white" stroke="black" points="-0.5,-0.5 -0.5,-21.5 74.5,-21.5 74.5,-0.5 -0.5,-0.5"/>
<text text-anchor="middle" x="37" y="-8.5" font-family="Helvetica,sans-Serif" font-size="10.00">MathProperty</text>
</a>
</g>
<!-- Node1&#45;&gt;Node2 -->
<g id="edge2" class="edge"><title>Node1&#45;&gt;Node2</title>
<path fill="none" stroke="midnightblue" d="M106.684,-53.1009C90.0745,-43.0658 69.0786,-30.3808 54.4963,-21.5707"/>
<polygon fill="midnightblue" stroke="midnightblue" points="105.023,-56.1864 115.392,-58.3619 108.643,-50.195 105.023,-56.1864"/>
</g>
<!-- Node3 -->
<g id="node5" class="node"><title>Node3</title>
<a xlink:href="classRangeProperty.html" target="_top" xlink:title="Range of values. pos_ is usually in [0,1]. ">
<polygon fill="white" stroke="black" points="92,-0.5 92,-21.5 174,-21.5 174,-0.5 92,-0.5"/>
<text text-anchor="middle" x="133" y="-8.5" font-family="Helvetica,sans-Serif" font-size="10.00">RangeProperty</text>
</a>
</g>
<!-- Node1&#45;&gt;Node3 -->
<g id="edge4" class="edge"><title>Node1&#45;&gt;Node3</title>
<path fill="none" stroke="midnightblue" d="M133,-48.1906C133,-39.1684 133,-28.9941 133,-21.5707"/>
<polygon fill="midnightblue" stroke="midnightblue" points="129.5,-48.3619 133,-58.3619 136.5,-48.3619 129.5,-48.3619"/>
</g>
<!-- Node4 -->
<g id="node7" class="node"><title>Node4</title>
<a xlink:href="classValueProperty.html" target="_top" xlink:title="Simple, single&#45;value property. ">
<polygon fill="white" stroke="black" points="192,-0.5 192,-21.5 270,-21.5 270,-0.5 192,-0.5"/>
<text text-anchor="middle" x="231" y="-8.5" font-family="Helvetica,sans-Serif" font-size="10.00">ValueProperty</text>
</a>
</g>
<!-- Node1&#45;&gt;Node4 -->
<g id="edge6" class="edge"><title>Node1&#45;&gt;Node4</title>
<path fill="none" stroke="midnightblue" d="M159.864,-53.1009C176.82,-43.0658 198.253,-30.3808 213.139,-21.5707"/>
<polygon fill="midnightblue" stroke="midnightblue" points="157.798,-50.2566 150.975,-58.3619 161.363,-56.2807 157.798,-50.2566"/>
</g>
</g>
</svg>
