<?xml version="1.0" encoding="UTF-8" standalone="no"?>
<!DOCTYPE svg PUBLIC "-//W3C//DTD SVG 1.1//EN"
 "http://www.w3.org/Graphics/SVG/1.1/DTD/svg11.dtd">
<!-- Generated by graphviz version 2.26.0 (20091210.2329)
 -->
<!-- Title: uiEditProbDenFunc Pages: 1 -->
<svg width="308pt" height="262pt"
 viewBox="0.00 0.00 308.00 262.00" xmlns="http://www.w3.org/2000/svg" xmlns:xlink="http://www.w3.org/1999/xlink">
<g id="graph1" class="graph" transform="scale(1 1) rotate(0) translate(4 258)">
<title>uiEditProbDenFunc</title>
<polygon fill="white" stroke="white" points="-4,5 -4,-258 305,-258 305,5 -4,5"/>
<!-- Node1 -->
<g id="node1" class="node"><title>Node1</title>
<polygon fill="#bfbfbf" stroke="black" points="99.5,-58.5 99.5,-79.5 200.5,-79.5 200.5,-58.5 99.5,-58.5"/>
<text text-anchor="middle" x="150" y="-66.5" font-family="Helvetica,sans-Serif" font-size="10.00">uiEditProbDenFunc</text>
</g>
<!-- Node5 -->
<g id="node9" class="node"><title>Node5</title>
<a xlink:href="classuiEditGaussianProbDenFunc.html" target="_top" xlink:title="Group to edit Gaussian PPDF&#39;s. ">
<polygon fill="white" stroke="black" points="-0.5,-0.5 -0.5,-21.5 142.5,-21.5 142.5,-0.5 -0.5,-0.5"/>
<text text-anchor="middle" x="71" y="-8.5" font-family="Helvetica,sans-Serif" font-size="10.00">uiEditGaussianProbDenFunc</text>
</a>
</g>
<!-- Node1&#45;&gt;Node5 -->
<g id="edge8" class="edge"><title>Node1&#45;&gt;Node5</title>
<path fill="none" stroke="midnightblue" d="M127.197,-52.2587C113.72,-42.3641 97.0647,-30.1361 85.398,-21.5707"/>
<polygon fill="midnightblue" stroke="midnightblue" points="125.378,-55.2651 135.51,-58.3619 129.521,-49.6225 125.378,-55.2651"/>
</g>
<!-- Node6 -->
<g id="node11" class="node"><title>Node6</title>
<a xlink:href="classuiEditSampledProbDenFunc.html" target="_top" xlink:title="Group to edit SampledProbDenFunc&#39;s. ">
<polygon fill="white" stroke="black" points="160,-0.5 160,-21.5 300,-21.5 300,-0.5 160,-0.5"/>
<text text-anchor="middle" x="230" y="-8.5" font-family="Helvetica,sans-Serif" font-size="10.00">uiEditSampledProbDenFunc</text>
</a>
</g>
<!-- Node1&#45;&gt;Node6 -->
<g id="edge10" class="edge"><title>Node1&#45;&gt;Node6</title>
<path fill="none" stroke="midnightblue" d="M173.092,-52.2587C186.739,-42.3641 203.605,-30.1361 215.42,-21.5707"/>
<polygon fill="midnightblue" stroke="midnightblue" points="170.715,-49.6585 164.673,-58.3619 174.824,-55.3258 170.715,-49.6585"/>
</g>
<!-- Node2 -->
<g id="node2" class="node"><title>Node2</title>
<a xlink:href="classuiGroup.html" target="_top" xlink:title="uiGroup">
<polygon fill="white" stroke="black" points="125,-116.5 125,-137.5 175,-137.5 175,-116.5 125,-116.5"/>
<text text-anchor="middle" x="150" y="-124.5" font-family="Helvetica,sans-Serif" font-size="10.00">uiGroup</text>
</a>
</g>
<!-- Node2&#45;&gt;Node1 -->
<g id="edge2" class="edge"><title>Node2&#45;&gt;Node1</title>
<path fill="none" stroke="midnightblue" d="M150,-106.191C150,-97.1684 150,-86.9941 150,-79.5707"/>
<polygon fill="midnightblue" stroke="midnightblue" points="146.5,-106.362 150,-116.362 153.5,-106.362 146.5,-106.362"/>
</g>
<!-- Node3 -->
<g id="node4" class="node"><title>Node3</title>
<a xlink:href="classuiParent.html" target="_top" xlink:title="uiParent">
<polygon fill="white" stroke="black" points="123.5,-174.5 123.5,-195.5 176.5,-195.5 176.5,-174.5 123.5,-174.5"/>
<text text-anchor="middle" x="150" y="-182.5" font-family="Helvetica,sans-Serif" font-size="10.00">uiParent</text>
</a>
</g>
<!-- Node3&#45;&gt;Node2 -->
<g id="edge4" class="edge"><title>Node3&#45;&gt;Node2</title>
<path fill="none" stroke="midnightblue" d="M150,-164.191C150,-155.168 150,-144.994 150,-137.571"/>
<polygon fill="midnightblue" stroke="midnightblue" points="146.5,-164.362 150,-174.362 153.5,-164.362 146.5,-164.362"/>
</g>
<!-- Node4 -->
<g id="node6" class="node"><title>Node4</title>
<polygon fill="white" stroke="#bfbfbf" points="112.5,-232.5 112.5,-253.5 187.5,-253.5 187.5,-232.5 112.5,-232.5"/>
<text text-anchor="middle" x="150" y="-240.5" font-family="Helvetica,sans-Serif" font-size="10.00">uiBaseObject</text>
</g>
<!-- Node4&#45;&gt;Node3 -->
<g id="edge6" class="edge"><title>Node4&#45;&gt;Node3</title>
<path fill="none" stroke="midnightblue" d="M150,-222.191C150,-213.168 150,-202.994 150,-195.571"/>
<polygon fill="midnightblue" stroke="midnightblue" points="146.5,-222.362 150,-232.362 153.5,-222.362 146.5,-222.362"/>
</g>
</g>
</svg>
