<?xml version="1.0" encoding="UTF-8" standalone="no"?>
<!DOCTYPE svg PUBLIC "-//W3C//DTD SVG 1.1//EN"
 "http://www.w3.org/Graphics/SVG/1.1/DTD/svg11.dtd">
<!-- Generated by graphviz version 2.26.0 (20091210.2329)
 -->
<!-- Title: Array1DStacker&lt; fT, ArrT &gt; Pages: 1 -->
<svg width="114pt" height="276pt"
 viewBox="0.00 0.00 114.00 276.00" xmlns="http://www.w3.org/2000/svg" xmlns:xlink="http://www.w3.org/1999/xlink">
<g id="graph1" class="graph" transform="scale(1 1) rotate(0) translate(4 272)">
<title>Array1DStacker&lt; fT, ArrT &gt;</title>
<polygon fill="white" stroke="white" points="-4,5 -4,-272 111,-272 111,5 -4,5"/>
<!-- Node1 -->
<g id="node1" class="node"><title>Node1</title>
<polygon fill="#bfbfbf" stroke="black" points="-0.5,-1 -0.5,-35 106.5,-35 106.5,-1 -0.5,-1"/>
<text text-anchor="start" x="7.5" y="-22" font-family="Helvetica,sans-Serif" font-size="10.00">Array1DStacker&lt; fT,</text>
<text text-anchor="middle" x="53" y="-9" font-family="Helvetica,sans-Serif" font-size="10.00"> ArrT &gt;</text>
</g>
<!-- Node2 -->
<g id="node2" class="node"><title>Node2</title>
<a xlink:href="classParallelTask.html" target="_top" xlink:title="Generalization of a task that can be run in parallel. ">
<polygon fill="white" stroke="black" points="17.5,-72.5 17.5,-93.5 88.5,-93.5 88.5,-72.5 17.5,-72.5"/>
<text text-anchor="middle" x="53" y="-80.5" font-family="Helvetica,sans-Serif" font-size="10.00">ParallelTask</text>
</a>
</g>
<!-- Node2&#45;&gt;Node1 -->
<g id="edge2" class="edge"><title>Node2&#45;&gt;Node1</title>
<path fill="none" stroke="midnightblue" d="M53,-62.1306C53,-53.4049 53,-43.3908 53,-35.1099"/>
<polygon fill="midnightblue" stroke="midnightblue" points="49.5001,-62.2665 53,-72.2666 56.5001,-62.2666 49.5001,-62.2665"/>
</g>
<!-- Node3 -->
<g id="node4" class="node"><title>Node3</title>
<a xlink:href="classTask.html" target="_top" xlink:title="Generalization of something (e.g. a computation) that needs to be done in multiple steps...">
<polygon fill="white" stroke="black" points="34,-130.5 34,-151.5 72,-151.5 72,-130.5 34,-130.5"/>
<text text-anchor="middle" x="53" y="-138.5" font-family="Helvetica,sans-Serif" font-size="10.00">Task</text>
</a>
</g>
<!-- Node3&#45;&gt;Node2 -->
<g id="edge4" class="edge"><title>Node3&#45;&gt;Node2</title>
<path fill="none" stroke="midnightblue" d="M53,-120.191C53,-111.168 53,-100.994 53,-93.5707"/>
<polygon fill="midnightblue" stroke="midnightblue" points="49.5001,-120.362 53,-130.362 56.5001,-120.362 49.5001,-120.362"/>
</g>
<!-- Node4 -->
<g id="node6" class="node"><title>Node4</title>
<a xlink:href="classNamedObject.html" target="_top" xlink:title="Object with a name. ">
<polygon fill="white" stroke="black" points="14.5,-188.5 14.5,-209.5 91.5,-209.5 91.5,-188.5 14.5,-188.5"/>
<text text-anchor="middle" x="53" y="-196.5" font-family="Helvetica,sans-Serif" font-size="10.00">NamedObject</text>
</a>
</g>
<!-- Node4&#45;&gt;Node3 -->
<g id="edge6" class="edge"><title>Node4&#45;&gt;Node3</title>
<path fill="none" stroke="midnightblue" d="M53,-178.191C53,-169.168 53,-158.994 53,-151.571"/>
<polygon fill="midnightblue" stroke="midnightblue" points="49.5001,-178.362 53,-188.362 56.5001,-178.362 49.5001,-178.362"/>
</g>
<!-- Node5 -->
<g id="node8" class="node"><title>Node5</title>
<a xlink:href="classCallBacker.html" target="_top" xlink:title="To be able to send and/or receive CallBacks, inherit from this class. ">
<polygon fill="white" stroke="black" points="20.5,-246.5 20.5,-267.5 85.5,-267.5 85.5,-246.5 20.5,-246.5"/>
<text text-anchor="middle" x="53" y="-254.5" font-family="Helvetica,sans-Serif" font-size="10.00">CallBacker</text>
</a>
</g>
<!-- Node5&#45;&gt;Node4 -->
<g id="edge8" class="edge"><title>Node5&#45;&gt;Node4</title>
<path fill="none" stroke="midnightblue" d="M53,-236.191C53,-227.168 53,-216.994 53,-209.571"/>
<polygon fill="midnightblue" stroke="midnightblue" points="49.5001,-236.362 53,-246.362 56.5001,-236.362 49.5001,-236.362"/>
</g>
</g>
</svg>
