<?xml version="1.0" encoding="UTF-8" standalone="no"?>
<!DOCTYPE svg PUBLIC "-//W3C//DTD SVG 1.1//EN"
 "http://www.w3.org/Graphics/SVG/1.1/DTD/svg11.dtd">
<!-- Generated by graphviz version 2.26.0 (20091210.2329)
 -->
<!-- Title: SampledNDProbDenFunc Pages: 1 -->
<svg width="216pt" height="204pt"
 viewBox="0.00 0.00 216.00 204.00" xmlns="http://www.w3.org/2000/svg" xmlns:xlink="http://www.w3.org/1999/xlink">
<g id="graph1" class="graph" transform="scale(1 1) rotate(0) translate(4 200)">
<title>SampledNDProbDenFunc</title>
<polygon fill="white" stroke="white" points="-4,5 -4,-200 213,-200 213,5 -4,5"/>
<!-- Node1 -->
<g id="node1" class="node"><title>Node1</title>
<polygon fill="#bfbfbf" stroke="black" points="29,-0.5 29,-21.5 159,-21.5 159,-0.5 29,-0.5"/>
<text text-anchor="middle" x="94" y="-8.5" font-family="Helvetica,sans-Serif" font-size="10.00">SampledNDProbDenFunc</text>
</g>
<!-- Node2 -->
<g id="node2" class="node"><title>Node2</title>
<a xlink:href="classProbDenFunc.html" target="_top" xlink:title="Base class for Probability Density Functions. ">
<polygon fill="white" stroke="black" points="-0.5,-58.5 -0.5,-79.5 76.5,-79.5 76.5,-58.5 -0.5,-58.5"/>
<text text-anchor="middle" x="38" y="-66.5" font-family="Helvetica,sans-Serif" font-size="10.00">ProbDenFunc</text>
</a>
</g>
<!-- Node2&#45;&gt;Node1 -->
<g id="edge2" class="edge"><title>Node2&#45;&gt;Node1</title>
<path fill="none" stroke="midnightblue" d="M55.2654,-51.118C64.6118,-41.4377 75.8388,-29.8098 83.7939,-21.5707"/>
<polygon fill="midnightblue" stroke="midnightblue" points="52.6993,-48.7368 48.2713,-58.3619 57.7352,-53.599 52.6993,-48.7368"/>
</g>
<!-- Node3 -->
<g id="node4" class="node"><title>Node3</title>
<a xlink:href="classNamedObject.html" target="_top" xlink:title="Object with a name. ">
<polygon fill="white" stroke="black" points="-0.5,-116.5 -0.5,-137.5 76.5,-137.5 76.5,-116.5 -0.5,-116.5"/>
<text text-anchor="middle" x="38" y="-124.5" font-family="Helvetica,sans-Serif" font-size="10.00">NamedObject</text>
</a>
</g>
<!-- Node3&#45;&gt;Node2 -->
<g id="edge4" class="edge"><title>Node3&#45;&gt;Node2</title>
<path fill="none" stroke="midnightblue" d="M38,-106.191C38,-97.1684 38,-86.9941 38,-79.5707"/>
<polygon fill="midnightblue" stroke="midnightblue" points="34.5001,-106.362 38,-116.362 41.5001,-106.362 34.5001,-106.362"/>
</g>
<!-- Node4 -->
<g id="node6" class="node"><title>Node4</title>
<a xlink:href="classCallBacker.html" target="_top" xlink:title="To be able to send and/or receive CallBacks, inherit from this class. ">
<polygon fill="white" stroke="black" points="5.5,-174.5 5.5,-195.5 70.5,-195.5 70.5,-174.5 5.5,-174.5"/>
<text text-anchor="middle" x="38" y="-182.5" font-family="Helvetica,sans-Serif" font-size="10.00">CallBacker</text>
</a>
</g>
<!-- Node4&#45;&gt;Node3 -->
<g id="edge6" class="edge"><title>Node4&#45;&gt;Node3</title>
<path fill="none" stroke="midnightblue" d="M38,-164.191C38,-155.168 38,-144.994 38,-137.571"/>
<polygon fill="midnightblue" stroke="midnightblue" points="34.5001,-164.362 38,-174.362 41.5001,-164.362 34.5001,-164.362"/>
</g>
<!-- Node5 -->
<g id="node8" class="node"><title>Node5</title>
<a xlink:href="classArrayNDProbDenFunc.html" target="_top" xlink:title="PDF based on ArrayND implementation. ">
<polygon fill="white" stroke="black" points="93.5,-58.5 93.5,-79.5 208.5,-79.5 208.5,-58.5 93.5,-58.5"/>
<text text-anchor="middle" x="151" y="-66.5" font-family="Helvetica,sans-Serif" font-size="10.00">ArrayNDProbDenFunc</text>
</a>
</g>
<!-- Node5&#45;&gt;Node1 -->
<g id="edge8" class="edge"><title>Node5&#45;&gt;Node1</title>
<path fill="none" stroke="midnightblue" d="M133.426,-51.118C123.913,-41.4377 112.486,-29.8098 104.388,-21.5707"/>
<polygon fill="midnightblue" stroke="midnightblue" points="131.04,-53.6829 140.545,-58.3619 136.032,-48.7763 131.04,-53.6829"/>
</g>
</g>
</svg>
