<?xml version="1.0" encoding="UTF-8" standalone="no"?>
<!DOCTYPE svg PUBLIC "-//W3C//DTD SVG 1.1//EN"
 "http://www.w3.org/Graphics/SVG/1.1/DTD/svg11.dtd">
<!-- Generated by graphviz version 2.26.0 (20091210.2329)
 -->
<!-- Title: uiGraphicsViewBase Pages: 1 -->
<svg width="818pt" height="430pt"
 viewBox="0.00 0.00 818.00 430.00" xmlns="http://www.w3.org/2000/svg" xmlns:xlink="http://www.w3.org/1999/xlink">
<g id="graph1" class="graph" transform="scale(1 1) rotate(0) translate(4 426)">
<title>uiGraphicsViewBase</title>
<polygon fill="white" stroke="white" points="-4,5 -4,-426 815,-426 815,5 -4,5"/>
<!-- Node1 -->
<g id="node1" class="node"><title>Node1</title>
<polygon fill="#bfbfbf" stroke="black" points="202.5,-220.5 202.5,-241.5 309.5,-241.5 309.5,-220.5 202.5,-220.5"/>
<text text-anchor="middle" x="256" y="-228.5" font-family="Helvetica,sans-Serif" font-size="10.00">uiGraphicsViewBase</text>
</g>
<!-- Node4 -->
<g id="node7" class="node"><title>Node4</title>
<a xlink:href="classuiGraphicsView.html" target="_top" xlink:title="uiGraphicsView">
<polygon fill="white" stroke="black" points="346.5,-220.5 346.5,-241.5 431.5,-241.5 431.5,-220.5 346.5,-220.5"/>
<text text-anchor="middle" x="389" y="-228.5" font-family="Helvetica,sans-Serif" font-size="10.00">uiGraphicsView</text>
</a>
</g>
<!-- Node1&#45;&gt;Node4 -->
<g id="edge6" class="edge"><title>Node1&#45;&gt;Node4</title>
<path fill="none" stroke="midnightblue" d="M319.746,-231C328.688,-231 337.696,-231 346.123,-231"/>
<polygon fill="midnightblue" stroke="midnightblue" points="319.713,-227.5 309.713,-231 319.713,-234.5 319.713,-227.5"/>
</g>
<!-- Node2 -->
<g id="node2" class="node"><title>Node2</title>
<a xlink:href="classuiObject.html" target="_top" xlink:title="The base class for most UI elements. ">
<polygon fill="white" stroke="black" points="112.5,-220.5 112.5,-241.5 165.5,-241.5 165.5,-220.5 112.5,-220.5"/>
<text text-anchor="middle" x="139" y="-228.5" font-family="Helvetica,sans-Serif" font-size="10.00">uiObject</text>
</a>
</g>
<!-- Node2&#45;&gt;Node1 -->
<g id="edge2" class="edge"><title>Node2&#45;&gt;Node1</title>
<path fill="none" stroke="midnightblue" d="M175.779,-231C184.202,-231 193.325,-231 202.297,-231"/>
<polygon fill="midnightblue" stroke="midnightblue" points="175.549,-227.5 165.549,-231 175.549,-234.5 175.549,-227.5"/>
</g>
<!-- Node3 -->
<g id="node4" class="node"><title>Node3</title>
<polygon fill="white" stroke="#bfbfbf" points="0.5,-220.5 0.5,-241.5 75.5,-241.5 75.5,-220.5 0.5,-220.5"/>
<text text-anchor="middle" x="38" y="-228.5" font-family="Helvetica,sans-Serif" font-size="10.00">uiBaseObject</text>
</g>
<!-- Node3&#45;&gt;Node2 -->
<g id="edge4" class="edge"><title>Node3&#45;&gt;Node2</title>
<path fill="none" stroke="midnightblue" d="M85.8165,-231C94.9589,-231 104.219,-231 112.393,-231"/>
<polygon fill="midnightblue" stroke="midnightblue" points="85.6087,-227.5 75.6087,-231 85.6086,-234.5 85.6087,-227.5"/>
</g>
<!-- Node5 -->
<g id="node9" class="node"><title>Node5</title>
<a xlink:href="classuiColTabMarkerCanvas.html" target="_top" xlink:title="uiColTabMarkerCanvas">
<polygon fill="white" stroke="black" points="482.5,-400.5 482.5,-421.5 601.5,-421.5 601.5,-400.5 482.5,-400.5"/>
<text text-anchor="middle" x="542" y="-408.5" font-family="Helvetica,sans-Serif" font-size="10.00">uiColTabMarkerCanvas</text>
</a>
</g>
<!-- Node4&#45;&gt;Node5 -->
<g id="edge8" class="edge"><title>Node4&#45;&gt;Node5</title>
<path fill="none" stroke="midnightblue" d="M393.399,-251.705C401.773,-285.952 423.301,-354.254 468,-391 472.626,-394.803 477.912,-397.887 483.484,-400.387"/>
<polygon fill="midnightblue" stroke="midnightblue" points="396.788,-250.823 391.13,-241.866 389.967,-252.396 396.788,-250.823"/>
</g>
<!-- Node6 -->
<g id="node11" class="node"><title>Node6</title>
<a xlink:href="classuiDirectionalPlot.html" target="_top" xlink:title="creates a directional plot: Rose diagrams and more. ">
<polygon fill="white" stroke="black" points="498,-360.5 498,-381.5 586,-381.5 586,-360.5 498,-360.5"/>
<text text-anchor="middle" x="542" y="-368.5" font-family="Helvetica,sans-Serif" font-size="10.00">uiDirectionalPlot</text>
</a>
</g>
<!-- Node4&#45;&gt;Node6 -->
<g id="edge10" class="edge"><title>Node4&#45;&gt;Node6</title>
<path fill="none" stroke="midnightblue" d="M396.792,-251.036C408.277,-277.899 432.319,-325.187 468,-351 476.734,-357.318 487.349,-361.641 497.781,-364.597"/>
<polygon fill="midnightblue" stroke="midnightblue" points="399.92,-249.439 392.885,-241.517 393.444,-252.097 399.92,-249.439"/>
</g>
<!-- Node7 -->
<g id="node13" class="node"><title>Node7</title>
<a xlink:href="classuiExtLayerSequenceGenDesc.html" target="_top" xlink:title="Base class for external LayerSequenceGenDesc editors, i.e. editors that are not also Layer Model disp...">
<polygon fill="white" stroke="black" points="468,-320.5 468,-341.5 616,-341.5 616,-320.5 468,-320.5"/>
<text text-anchor="middle" x="542" y="-328.5" font-family="Helvetica,sans-Serif" font-size="10.00">uiExtLayerSequenceGenDesc</text>
</a>
</g>
<!-- Node4&#45;&gt;Node7 -->
<g id="edge12" class="edge"><title>Node4&#45;&gt;Node7</title>
<path fill="none" stroke="midnightblue" d="M402.655,-249.73C416.952,-268.006 441.046,-295.286 468,-311 474.553,-314.821 481.857,-317.931 489.252,-320.459"/>
<polygon fill="midnightblue" stroke="midnightblue" points="405.292,-247.415 396.454,-241.572 399.719,-251.651 405.292,-247.415"/>
</g>
<!-- Node9 -->
<g id="node17" class="node"><title>Node9</title>
<a xlink:href="classuiFunctionDisplay.html" target="_top" xlink:title="displays a function of (X,Y) pairs on a canvas &#45; optionally a Y2. ">
<polygon fill="white" stroke="black" points="494.5,-280.5 494.5,-301.5 589.5,-301.5 589.5,-280.5 494.5,-280.5"/>
<text text-anchor="middle" x="542" y="-288.5" font-family="Helvetica,sans-Serif" font-size="10.00">uiFunctionDisplay</text>
</a>
</g>
<!-- Node4&#45;&gt;Node9 -->
<g id="edge16" class="edge"><title>Node4&#45;&gt;Node9</title>
<path fill="none" stroke="midnightblue" d="M416.501,-246.678C431.404,-254.721 450.339,-264.224 468,-271 477.195,-274.527 487.257,-277.687 496.917,-280.396"/>
<polygon fill="midnightblue" stroke="midnightblue" points="417.793,-243.394 407.343,-241.646 414.422,-249.529 417.793,-243.394"/>
</g>
<!-- Node12 -->
<g id="node23" class="node"><title>Node12</title>
<a xlink:href="classuiFunctionDrawer.html" target="_top" xlink:title="uiFunctionDrawer">
<polygon fill="white" stroke="black" points="495.5,-240.5 495.5,-261.5 588.5,-261.5 588.5,-240.5 495.5,-240.5"/>
<text text-anchor="middle" x="542" y="-248.5" font-family="Helvetica,sans-Serif" font-size="10.00">uiFunctionDrawer</text>
</a>
</g>
<!-- Node4&#45;&gt;Node12 -->
<g id="edge22" class="edge"><title>Node4&#45;&gt;Node12</title>
<path fill="none" stroke="midnightblue" d="M441.643,-237.881C459.081,-240.161 478.357,-242.681 495.316,-244.897"/>
<polygon fill="midnightblue" stroke="midnightblue" points="441.988,-234.397 431.619,-236.571 441.081,-241.338 441.988,-234.397"/>
</g>
<!-- Node13 -->
<g id="node25" class="node"><title>Node13</title>
<a xlink:href="classuiObjectItemView.html" target="_top" xlink:title="Embeds some uiObjects in a uiGraphicsView following a horizontal layout. Objects can be dynamically r...">
<polygon fill="white" stroke="black" points="495,-200.5 495,-221.5 589,-221.5 589,-200.5 495,-200.5"/>
<text text-anchor="middle" x="542" y="-208.5" font-family="Helvetica,sans-Serif" font-size="10.00">uiObjectItemView</text>
</a>
</g>
<!-- Node4&#45;&gt;Node13 -->
<g id="edge24" class="edge"><title>Node4&#45;&gt;Node13</title>
<path fill="none" stroke="midnightblue" d="M441.551,-224.131C458.827,-221.872 477.916,-219.377 494.771,-217.174"/>
<polygon fill="midnightblue" stroke="midnightblue" points="441.081,-220.662 431.619,-225.429 441.988,-227.603 441.081,-220.662"/>
</g>
<!-- Node16 -->
<g id="node31" class="node"><title>Node16</title>
<a xlink:href="classuiPolarDiagram.html" target="_top" xlink:title="Displays a polar diagram which can be used to set the azimuth and the dip by gyrating the pointer...">
<polygon fill="white" stroke="black" points="500.5,-160.5 500.5,-181.5 583.5,-181.5 583.5,-160.5 500.5,-160.5"/>
<text text-anchor="middle" x="542" y="-168.5" font-family="Helvetica,sans-Serif" font-size="10.00">uiPolarDiagram</text>
</a>
</g>
<!-- Node4&#45;&gt;Node16 -->
<g id="edge30" class="edge"><title>Node4&#45;&gt;Node16</title>
<path fill="none" stroke="midnightblue" d="M416.501,-215.322C431.404,-207.279 450.339,-197.776 468,-191 478.313,-187.043 489.717,-183.55 500.421,-180.636"/>
<polygon fill="midnightblue" stroke="midnightblue" points="414.422,-212.471 407.343,-220.354 417.793,-218.606 414.422,-212.471"/>
</g>
<!-- Node17 -->
<g id="node33" class="node"><title>Node17</title>
<a xlink:href="classuiRGBArrayCanvas.html" target="_top" xlink:title="Provides a canvas where a uiRGBArray is pre&#45;drawn. ">
<polygon fill="white" stroke="black" points="490.5,-120.5 490.5,-141.5 593.5,-141.5 593.5,-120.5 490.5,-120.5"/>
<text text-anchor="middle" x="542" y="-128.5" font-family="Helvetica,sans-Serif" font-size="10.00">uiRGBArrayCanvas</text>
</a>
</g>
<!-- Node4&#45;&gt;Node17 -->
<g id="edge32" class="edge"><title>Node4&#45;&gt;Node17</title>
<path fill="none" stroke="midnightblue" d="M402.655,-212.27C416.952,-193.994 441.046,-166.714 468,-151 474.898,-146.978 482.628,-143.743 490.42,-141.147"/>
<polygon fill="midnightblue" stroke="midnightblue" points="399.719,-210.349 396.454,-220.428 405.292,-214.585 399.719,-210.349"/>
</g>
<!-- Node20 -->
<g id="node39" class="node"><title>Node20</title>
<a xlink:href="classuiStratDisplay.html" target="_top" xlink:title="uiStratDisplay">
<polygon fill="white" stroke="black" points="503,-80.5 503,-101.5 581,-101.5 581,-80.5 503,-80.5"/>
<text text-anchor="middle" x="542" y="-88.5" font-family="Helvetica,sans-Serif" font-size="10.00">uiStratDisplay</text>
</a>
</g>
<!-- Node4&#45;&gt;Node20 -->
<g id="edge38" class="edge"><title>Node4&#45;&gt;Node20</title>
<path fill="none" stroke="midnightblue" d="M396.792,-210.964C408.277,-184.101 432.319,-136.813 468,-111 478.136,-103.668 490.805,-99.0235 502.781,-96.082"/>
<polygon fill="midnightblue" stroke="midnightblue" points="393.444,-209.903 392.885,-220.483 399.92,-212.561 393.444,-209.903"/>
</g>
<!-- Node21 -->
<g id="node41" class="node"><title>Node21</title>
<a xlink:href="classuiWellDahDisplay.html" target="_top" xlink:title="Well depth/distance along hole display. ">
<polygon fill="white" stroke="black" points="494.5,-40.5 494.5,-61.5 589.5,-61.5 589.5,-40.5 494.5,-40.5"/>
<text text-anchor="middle" x="542" y="-48.5" font-family="Helvetica,sans-Serif" font-size="10.00">uiWellDahDisplay</text>
</a>
</g>
<!-- Node4&#45;&gt;Node21 -->
<g id="edge40" class="edge"><title>Node4&#45;&gt;Node21</title>
<path fill="none" stroke="midnightblue" d="M393.399,-210.295C401.773,-176.048 423.301,-107.746 468,-71 475.505,-64.8306 484.746,-60.5534 494.125,-57.5909"/>
<polygon fill="midnightblue" stroke="midnightblue" points="389.967,-209.604 391.13,-220.134 396.788,-211.177 389.967,-209.604"/>
</g>
<!-- Node8 -->
<g id="node15" class="node"><title>Node8</title>
<a xlink:href="classuiBasicLayerSequenceGenDesc.html" target="_top" xlink:title="uiBasicLayerSequenceGenDesc">
<polygon fill="white" stroke="black" points="652,-320.5 652,-341.5 810,-341.5 810,-320.5 652,-320.5"/>
<text text-anchor="middle" x="731" y="-328.5" font-family="Helvetica,sans-Serif" font-size="10.00">uiBasicLayerSequenceGenDesc</text>
</a>
</g>
<!-- Node7&#45;&gt;Node8 -->
<g id="edge14" class="edge"><title>Node7&#45;&gt;Node8</title>
<path fill="none" stroke="midnightblue" d="M626.38,-331C634.822,-331 643.373,-331 651.759,-331"/>
<polygon fill="midnightblue" stroke="midnightblue" points="626.155,-327.5 616.155,-331 626.155,-334.5 626.155,-327.5"/>
</g>
<!-- Node10 -->
<g id="node19" class="node"><title>Node10</title>
<a xlink:href="classuiFuncTaperDisp.html" target="_top" xlink:title="uiFuncTaperDisp">
<polygon fill="white" stroke="black" points="685.5,-280.5 685.5,-301.5 776.5,-301.5 776.5,-280.5 685.5,-280.5"/>
<text text-anchor="middle" x="731" y="-288.5" font-family="Helvetica,sans-Serif" font-size="10.00">uiFuncTaperDisp</text>
</a>
</g>
<!-- Node9&#45;&gt;Node10 -->
<g id="edge18" class="edge"><title>Node9&#45;&gt;Node10</title>
<path fill="none" stroke="midnightblue" d="M599.938,-291C627.352,-291 659.62,-291 685.279,-291"/>
<polygon fill="midnightblue" stroke="midnightblue" points="599.693,-287.5 589.693,-291 599.693,-294.5 599.693,-287.5"/>
</g>
<!-- Node11 -->
<g id="node21" class="node"><title>Node11</title>
<a xlink:href="classuiHistogramDisplay.html" target="_top" xlink:title="uiHistogramDisplay">
<polygon fill="white" stroke="black" points="680,-240.5 680,-261.5 782,-261.5 782,-240.5 680,-240.5"/>
<text text-anchor="middle" x="731" y="-248.5" font-family="Helvetica,sans-Serif" font-size="10.00">uiHistogramDisplay</text>
</a>
</g>
<!-- Node9&#45;&gt;Node11 -->
<g id="edge20" class="edge"><title>Node9&#45;&gt;Node11</title>
<path fill="none" stroke="midnightblue" d="M599.814,-278.764C625.871,-273.249 656.334,-266.802 681.342,-261.51"/>
<polygon fill="midnightblue" stroke="midnightblue" points="598.751,-275.412 589.693,-280.906 600.201,-282.26 598.751,-275.412"/>
</g>
<!-- Node14 -->
<g id="node27" class="node"><title>Node14</title>
<a xlink:href="classPreStackView_1_1uiViewer2D.html" target="_top" xlink:title="PreStackView::uiViewer2D">
<polygon fill="white" stroke="black" points="663.5,-200.5 663.5,-221.5 798.5,-221.5 798.5,-200.5 663.5,-200.5"/>
<text text-anchor="middle" x="731" y="-208.5" font-family="Helvetica,sans-Serif" font-size="10.00">PreStackView::uiViewer2D</text>
</a>
</g>
<!-- Node13&#45;&gt;Node14 -->
<g id="edge26" class="edge"><title>Node13&#45;&gt;Node14</title>
<path fill="none" stroke="midnightblue" d="M599.478,-211C619.635,-211 642.461,-211 663.372,-211"/>
<polygon fill="midnightblue" stroke="midnightblue" points="599.205,-207.5 589.205,-211 599.205,-214.5 599.205,-207.5"/>
</g>
<!-- Node15 -->
<g id="node29" class="node"><title>Node15</title>
<a xlink:href="classuiObjectItemViewInfoBar.html" target="_top" xlink:title="uiObjectItemViewInfoBar">
<polygon fill="white" stroke="black" points="668.5,-160.5 668.5,-181.5 793.5,-181.5 793.5,-160.5 668.5,-160.5"/>
<text text-anchor="middle" x="731" y="-168.5" font-family="Helvetica,sans-Serif" font-size="10.00">uiObjectItemViewInfoBar</text>
</a>
</g>
<!-- Node13&#45;&gt;Node15 -->
<g id="edge28" class="edge"><title>Node13&#45;&gt;Node15</title>
<path fill="none" stroke="midnightblue" d="M599.329,-198.867C625.408,-193.348 655.978,-186.878 681.095,-181.562"/>
<polygon fill="midnightblue" stroke="midnightblue" points="598.264,-195.515 589.205,-201.009 599.713,-202.363 598.264,-195.515"/>
</g>
<!-- Node18 -->
<g id="node35" class="node"><title>Node18</title>
<a xlink:href="classuiColorTableCanvas.html" target="_top" xlink:title="uiColorTableCanvas">
<polygon fill="white" stroke="black" points="678.5,-120.5 678.5,-141.5 783.5,-141.5 783.5,-120.5 678.5,-120.5"/>
<text text-anchor="middle" x="731" y="-128.5" font-family="Helvetica,sans-Serif" font-size="10.00">uiColorTableCanvas</text>
</a>
</g>
<!-- Node17&#45;&gt;Node18 -->
<g id="edge34" class="edge"><title>Node17&#45;&gt;Node18</title>
<path fill="none" stroke="midnightblue" d="M603.765,-131C627.893,-131 655.27,-131 678.431,-131"/>
<polygon fill="midnightblue" stroke="midnightblue" points="603.645,-127.5 593.645,-131 603.645,-134.5 603.645,-127.5"/>
</g>
<!-- Node19 -->
<g id="node37" class="node"><title>Node19</title>
<a xlink:href="classuiDataPointSetCrossPlotter.html" target="_top" xlink:title="DataPointSet crossplotter. ">
<polygon fill="white" stroke="black" points="662.5,-80.5 662.5,-101.5 799.5,-101.5 799.5,-80.5 662.5,-80.5"/>
<text text-anchor="middle" x="731" y="-88.5" font-family="Helvetica,sans-Serif" font-size="10.00">uiDataPointSetCrossPlotter</text>
</a>
</g>
<!-- Node17&#45;&gt;Node19 -->
<g id="edge36" class="edge"><title>Node17&#45;&gt;Node19</title>
<path fill="none" stroke="midnightblue" d="M601.639,-118.378C627.287,-112.95 656.919,-106.679 681.346,-101.509"/>
<polygon fill="midnightblue" stroke="midnightblue" points="600.716,-114.996 591.658,-120.49 602.166,-121.844 600.716,-114.996"/>
</g>
<!-- Node22 -->
<g id="node43" class="node"><title>Node22</title>
<a xlink:href="classuiWellLogDisplay.html" target="_top" xlink:title="Displays maximum two Well logs. ">
<polygon fill="white" stroke="black" points="685,-40.5 685,-61.5 777,-61.5 777,-40.5 685,-40.5"/>
<text text-anchor="middle" x="731" y="-48.5" font-family="Helvetica,sans-Serif" font-size="10.00">uiWellLogDisplay</text>
</a>
</g>
<!-- Node21&#45;&gt;Node22 -->
<g id="edge42" class="edge"><title>Node21&#45;&gt;Node22</title>
<path fill="none" stroke="midnightblue" d="M599.899,-51C627.206,-51 659.337,-51 684.954,-51"/>
<polygon fill="midnightblue" stroke="midnightblue" points="599.693,-47.5001 589.693,-51 599.693,-54.5001 599.693,-47.5001"/>
</g>
<!-- Node23 -->
<g id="node45" class="node"><title>Node23</title>
<a xlink:href="classuiWellStratDisplay.html" target="_top" xlink:title="uiWellStratDisplay">
<polygon fill="white" stroke="black" points="682,-0.5 682,-21.5 780,-21.5 780,-0.5 682,-0.5"/>
<text text-anchor="middle" x="731" y="-8.5" font-family="Helvetica,sans-Serif" font-size="10.00">uiWellStratDisplay</text>
</a>
</g>
<!-- Node21&#45;&gt;Node23 -->
<g id="edge44" class="edge"><title>Node21&#45;&gt;Node23</title>
<path fill="none" stroke="midnightblue" d="M599.507,-38.8292C625.747,-33.2757 656.506,-26.766 681.674,-21.4393"/>
<polygon fill="midnightblue" stroke="midnightblue" points="598.751,-35.4115 589.693,-40.9063 600.201,-42.2598 598.751,-35.4115"/>
</g>
</g>
</svg>
