<?xml version="1.0" encoding="UTF-8" standalone="no"?>
<!DOCTYPE svg PUBLIC "-//W3C//DTD SVG 1.1//EN"
 "http://www.w3.org/Graphics/SVG/1.1/DTD/svg11.dtd">
<!-- Generated by graphviz version 2.26.0 (20091210.2329)
 -->
<!-- Title: Array3D&lt; T &gt; Pages: 1 -->
<svg width="694pt" height="390pt"
 viewBox="0.00 0.00 694.00 390.00" xmlns="http://www.w3.org/2000/svg" xmlns:xlink="http://www.w3.org/1999/xlink">
<g id="graph1" class="graph" transform="scale(1 1) rotate(0) translate(4 386)">
<title>Array3D&lt; T &gt;</title>
<polygon fill="white" stroke="white" points="-4,5 -4,-386 691,-386 691,5 -4,5"/>
<!-- Node1 -->
<g id="node1" class="node"><title>Node1</title>
<polygon fill="#bfbfbf" stroke="black" points="118.5,-180.5 118.5,-201.5 195.5,-201.5 195.5,-180.5 118.5,-180.5"/>
<text text-anchor="middle" x="157" y="-188.5" font-family="Helvetica,sans-Serif" font-size="10.00">Array3D&lt; T &gt;</text>
</g>
<!-- Node3 -->
<g id="node5" class="node"><title>Node3</title>
<a xlink:href="classArray3DConv.html" target="_top" xlink:title="Array3DConv\&lt; T \&gt;">
<polygon fill="white" stroke="black" points="331,-360.5 331,-381.5 431,-381.5 431,-360.5 331,-360.5"/>
<text text-anchor="middle" x="381" y="-368.5" font-family="Helvetica,sans-Serif" font-size="10.00">Array3DConv&lt; T &gt;</text>
</a>
</g>
<!-- Node1&#45;&gt;Node3 -->
<g id="edge4" class="edge"><title>Node1&#45;&gt;Node3</title>
<path fill="none" stroke="midnightblue" d="M158.43,-211.898C161.901,-245.178 173.74,-309.835 214,-343 246.334,-369.636 294.416,-375.294 330.695,-375.076"/>
<polygon fill="midnightblue" stroke="midnightblue" points="161.914,-211.558 157.546,-201.906 154.941,-212.175 161.914,-211.558"/>
</g>
<!-- Node4 -->
<g id="node7" class="node"><title>Node4</title>
<a xlink:href="classArray3DImpl.html" target="_top" xlink:title="Implementation of Array3D. ">
<polygon fill="white" stroke="black" points="333.5,-240.5 333.5,-261.5 428.5,-261.5 428.5,-240.5 333.5,-240.5"/>
<text text-anchor="middle" x="381" y="-248.5" font-family="Helvetica,sans-Serif" font-size="10.00">Array3DImpl&lt; T &gt;</text>
</a>
</g>
<!-- Node1&#45;&gt;Node4 -->
<g id="edge6" class="edge"><title>Node1&#45;&gt;Node4</title>
<path fill="none" stroke="midnightblue" d="M182.779,-206.715C192.304,-211.938 203.372,-217.346 214,-221 253,-234.407 299.289,-242.122 333.23,-246.361"/>
<polygon fill="midnightblue" stroke="midnightblue" points="184.264,-203.534 173.842,-201.627 180.801,-209.617 184.264,-203.534"/>
</g>
<!-- Node8 -->
<g id="node15" class="node"><title>Node8</title>
<a xlink:href="classArray3DSubSelection.html" target="_top" xlink:title="Array3DSubSelection\&lt; T \&gt;">
<polygon fill="white" stroke="black" points="314,-160.5 314,-181.5 448,-181.5 448,-160.5 314,-160.5"/>
<text text-anchor="middle" x="381" y="-168.5" font-family="Helvetica,sans-Serif" font-size="10.00">Array3DSubSelection&lt; T &gt;</text>
</a>
</g>
<!-- Node1&#45;&gt;Node8 -->
<g id="edge14" class="edge"><title>Node1&#45;&gt;Node8</title>
<path fill="none" stroke="midnightblue" d="M205.808,-186.642C237.382,-183.823 278.914,-180.115 313.616,-177.016"/>
<polygon fill="midnightblue" stroke="midnightblue" points="205.156,-183.186 195.507,-187.562 205.779,-190.159 205.156,-183.186"/>
</g>
<!-- Node9 -->
<g id="node17" class="node"><title>Node9</title>
<a xlink:href="classArray3DWrapper.html" target="_top" xlink:title="Subclass of ArrayNDWrapper. ">
<polygon fill="white" stroke="black" points="324.5,-120.5 324.5,-141.5 437.5,-141.5 437.5,-120.5 324.5,-120.5"/>
<text text-anchor="middle" x="381" y="-128.5" font-family="Helvetica,sans-Serif" font-size="10.00">Array3DWrapper&lt; T &gt;</text>
</a>
</g>
<!-- Node1&#45;&gt;Node9 -->
<g id="edge16" class="edge"><title>Node1&#45;&gt;Node9</title>
<path fill="none" stroke="midnightblue" d="M203.793,-177.8C207.245,-176.846 210.676,-175.904 214,-175 256.962,-163.311 306.276,-150.378 340.115,-141.577"/>
<polygon fill="midnightblue" stroke="midnightblue" points="202.775,-174.45 194.076,-180.5 204.648,-181.195 202.775,-174.45"/>
</g>
<!-- Node10 -->
<g id="node19" class="node"><title>Node10</title>
<a xlink:href="classArray3D.html" target="_top" xlink:title="Array3D\&lt; TT \&gt;">
<polygon fill="white" stroke="black" points="339.5,-80.5 339.5,-101.5 422.5,-101.5 422.5,-80.5 339.5,-80.5"/>
<text text-anchor="middle" x="381" y="-88.5" font-family="Helvetica,sans-Serif" font-size="10.00">Array3D&lt; TT &gt;</text>
</a>
</g>
<!-- Node1&#45;&gt;Node10 -->
<g id="edge18" class="edge"><title>Node1&#45;&gt;Node10</title>
<path fill="none" stroke="orange" stroke-dasharray="5,2" d="M172.46,-172.706C183.071,-161.222 198.072,-146.945 214,-138 253.524,-115.804 304.294,-103.462 339.427,-97.0586"/>
<polygon fill="orange" stroke="orange" points="169.594,-170.662 165.559,-180.458 174.822,-175.316 169.594,-170.662"/>
<text text-anchor="middle" x="255" y="-142" font-family="Helvetica,sans-Serif" font-size="10.00"> &lt; TT &gt;</text>
</g>
<!-- Node11 -->
<g id="node21" class="node"><title>Node11</title>
<a xlink:href="classArray3D.html" target="_top" xlink:title="Array3D\&lt; float \&gt;">
<polygon fill="white" stroke="black" points="336.5,-320.5 336.5,-341.5 425.5,-341.5 425.5,-320.5 336.5,-320.5"/>
<text text-anchor="middle" x="381" y="-328.5" font-family="Helvetica,sans-Serif" font-size="10.00">Array3D&lt; float &gt;</text>
</a>
</g>
<!-- Node1&#45;&gt;Node11 -->
<g id="edge20" class="edge"><title>Node1&#45;&gt;Node11</title>
<path fill="none" stroke="orange" stroke-dasharray="5,2" d="M162.751,-211.175C170.484,-234.54 186.536,-272.446 214,-293 249.471,-319.546 300.224,-328.064 336.454,-330.546"/>
<polygon fill="orange" stroke="orange" points="166.079,-210.09 159.772,-201.577 159.394,-212.165 166.079,-210.09"/>
<text text-anchor="middle" x="255" y="-330" font-family="Helvetica,sans-Serif" font-size="10.00"> &lt; float &gt;</text>
</g>
<!-- Node13 -->
<g id="node26" class="node"><title>Node13</title>
<a xlink:href="classArray3D.html" target="_top" xlink:title="Array3D\&lt; int \&gt;">
<polygon fill="white" stroke="black" points="340.5,-40.5 340.5,-61.5 421.5,-61.5 421.5,-40.5 340.5,-40.5"/>
<text text-anchor="middle" x="381" y="-48.5" font-family="Helvetica,sans-Serif" font-size="10.00">Array3D&lt; int &gt;</text>
</a>
</g>
<!-- Node1&#45;&gt;Node13 -->
<g id="edge26" class="edge"><title>Node1&#45;&gt;Node13</title>
<path fill="none" stroke="orange" stroke-dasharray="5,2" d="M163.132,-170.605C171.094,-147.693 187.234,-111.091 214,-91 250.838,-63.3482 304.038,-54.5037 340.433,-51.8372"/>
<polygon fill="orange" stroke="orange" points="159.73,-169.747 159.955,-180.34 166.385,-171.919 159.73,-169.747"/>
<text text-anchor="middle" x="255" y="-95" font-family="Helvetica,sans-Serif" font-size="10.00"> &lt; int &gt;</text>
</g>
<!-- Node14 -->
<g id="node28" class="node"><title>Node14</title>
<a xlink:href="classArray3D.html" target="_top" xlink:title="Array3D\&lt; float_complex \&gt;">
<polygon fill="white" stroke="black" points="315.5,-280.5 315.5,-301.5 446.5,-301.5 446.5,-280.5 315.5,-280.5"/>
<text text-anchor="middle" x="381" y="-288.5" font-family="Helvetica,sans-Serif" font-size="10.00">Array3D&lt; float_complex &gt;</text>
</a>
</g>
<!-- Node1&#45;&gt;Node14 -->
<g id="edge28" class="edge"><title>Node1&#45;&gt;Node14</title>
<path fill="none" stroke="orange" stroke-dasharray="5,2" d="M172.071,-209.339C182.664,-221.113 197.793,-235.858 214,-245 245.17,-262.582 283.447,-273.758 315.488,-280.684"/>
<polygon fill="orange" stroke="orange" points="174.701,-207.029 165.505,-201.767 169.412,-211.615 174.701,-207.029"/>
<text text-anchor="middle" x="255" y="-280" font-family="Helvetica,sans-Serif" font-size="10.00"> &lt; float_complex &gt;</text>
</g>
<!-- Node15 -->
<g id="node31" class="node"><title>Node15</title>
<a xlink:href="classArray3D.html" target="_top" xlink:title="Array3D\&lt; unsigned char \&gt;">
<polygon fill="white" stroke="black" points="315.5,-0.5 315.5,-21.5 446.5,-21.5 446.5,-0.5 315.5,-0.5"/>
<text text-anchor="middle" x="381" y="-8.5" font-family="Helvetica,sans-Serif" font-size="10.00">Array3D&lt; unsigned char &gt;</text>
</a>
</g>
<!-- Node1&#45;&gt;Node15 -->
<g id="edge32" class="edge"><title>Node1&#45;&gt;Node15</title>
<path fill="none" stroke="orange" stroke-dasharray="5,2" d="M158.613,-169.993C162.329,-137.092 174.496,-73.7838 214,-41 241.882,-17.8615 281.523,-10.0322 315.187,-8.14234"/>
<polygon fill="orange" stroke="orange" points="155.099,-169.973 157.62,-180.263 162.066,-170.647 155.099,-169.973"/>
<text text-anchor="middle" x="255" y="-45" font-family="Helvetica,sans-Serif" font-size="10.00"> &lt; unsigned char &gt;</text>
</g>
<!-- Node16 -->
<g id="node33" class="node"><title>Node16</title>
<a xlink:href="classArray3D.html" target="_top" xlink:title="Array3D\&lt; bool \&gt;">
<polygon fill="white" stroke="black" points="336.5,-200.5 336.5,-221.5 425.5,-221.5 425.5,-200.5 336.5,-200.5"/>
<text text-anchor="middle" x="381" y="-208.5" font-family="Helvetica,sans-Serif" font-size="10.00">Array3D&lt; bool &gt;</text>
</a>
</g>
<!-- Node1&#45;&gt;Node16 -->
<g id="edge34" class="edge"><title>Node1&#45;&gt;Node16</title>
<path fill="none" stroke="orange" stroke-dasharray="5,2" d="M205.553,-195.335C244.472,-198.81 298.644,-203.647 336.461,-207.023"/>
<polygon fill="orange" stroke="orange" points="205.779,-191.841 195.507,-194.438 205.156,-198.814 205.779,-191.841"/>
<text text-anchor="middle" x="255" y="-208" font-family="Helvetica,sans-Serif" font-size="10.00"> &lt; bool &gt;</text>
</g>
<!-- Node2 -->
<g id="node2" class="node"><title>Node2</title>
<a xlink:href="classArrayND.html" target="_top" xlink:title="An ArrayND is an array with a given number of dimensions and a size. ">
<polygon fill="white" stroke="black" points="0.5,-180.5 0.5,-201.5 79.5,-201.5 79.5,-180.5 0.5,-180.5"/>
<text text-anchor="middle" x="40" y="-188.5" font-family="Helvetica,sans-Serif" font-size="10.00">ArrayND&lt; T &gt;</text>
</a>
</g>
<!-- Node2&#45;&gt;Node1 -->
<g id="edge2" class="edge"><title>Node2&#45;&gt;Node1</title>
<path fill="none" stroke="midnightblue" d="M89.7647,-191C99.2815,-191 109.114,-191 118.224,-191"/>
<polygon fill="midnightblue" stroke="midnightblue" points="89.6109,-187.5 79.6109,-191 89.6108,-194.5 89.6109,-187.5"/>
</g>
<!-- Node5 -->
<g id="node9" class="node"><title>Node5</title>
<a xlink:href="classArray3DImpl.html" target="_top" xlink:title="Array3DImpl\&lt; float \&gt;">
<polygon fill="white" stroke="black" points="572,-291.5 572,-312.5 680,-312.5 680,-291.5 572,-291.5"/>
<text text-anchor="middle" x="626" y="-299.5" font-family="Helvetica,sans-Serif" font-size="10.00">Array3DImpl&lt; float &gt;</text>
</a>
</g>
<!-- Node4&#45;&gt;Node5 -->
<g id="edge8" class="edge"><title>Node4&#45;&gt;Node5</title>
<path fill="none" stroke="orange" stroke-dasharray="5,2" d="M438.483,-262.966C479.943,-271.596 535.395,-283.139 575.227,-291.431"/>
<polygon fill="orange" stroke="orange" points="439.032,-259.505 428.529,-260.894 437.606,-266.358 439.032,-259.505"/>
<text text-anchor="middle" x="507" y="-290" font-family="Helvetica,sans-Serif" font-size="10.00"> &lt; float &gt;</text>
</g>
<!-- Node6 -->
<g id="node11" class="node"><title>Node6</title>
<a xlink:href="classArray3DImpl.html" target="_top" xlink:title="Array3DImpl\&lt; float\l_complex \&gt;">
<polygon fill="white" stroke="black" points="576.5,-232 576.5,-266 675.5,-266 675.5,-232 576.5,-232"/>
<text text-anchor="start" x="584.5" y="-253" font-family="Helvetica,sans-Serif" font-size="10.00">Array3DImpl&lt; float</text>
<text text-anchor="middle" x="626" y="-240" font-family="Helvetica,sans-Serif" font-size="10.00">_complex &gt;</text>
</a>
</g>
<!-- Node4&#45;&gt;Node6 -->
<g id="edge10" class="edge"><title>Node4&#45;&gt;Node6</title>
<path fill="none" stroke="orange" stroke-dasharray="5,2" d="M438.753,-244.83C447.86,-244.069 457.179,-243.414 466,-243 502.404,-241.291 511.582,-241.601 548,-243 557.093,-243.349 566.769,-243.927 576.1,-244.589"/>
<polygon fill="orange" stroke="orange" points="438.251,-241.36 428.598,-245.727 438.867,-248.333 438.251,-241.36"/>
<text text-anchor="middle" x="507" y="-247" font-family="Helvetica,sans-Serif" font-size="10.00"> &lt; float_complex &gt;</text>
</g>
<!-- Node7 -->
<g id="node13" class="node"><title>Node7</title>
<a xlink:href="classArray3DImpl.html" target="_top" xlink:title="Array3DImpl\&lt; bool \&gt;">
<polygon fill="white" stroke="black" points="572.5,-181.5 572.5,-202.5 679.5,-202.5 679.5,-181.5 572.5,-181.5"/>
<text text-anchor="middle" x="626" y="-189.5" font-family="Helvetica,sans-Serif" font-size="10.00">Array3DImpl&lt; bool &gt;</text>
</a>
</g>
<!-- Node4&#45;&gt;Node7 -->
<g id="edge12" class="edge"><title>Node4&#45;&gt;Node7</title>
<path fill="none" stroke="orange" stroke-dasharray="5,2" d="M427.271,-237.396C434.229,-235.29 441.312,-233.112 448,-231 456.041,-228.46 457.856,-227.189 466,-225 501.06,-215.577 541.06,-207.327 572.295,-201.433"/>
<polygon fill="orange" stroke="orange" points="425.797,-234.185 417.227,-240.414 427.811,-240.888 425.797,-234.185"/>
<text text-anchor="middle" x="507" y="-229" font-family="Helvetica,sans-Serif" font-size="10.00"> &lt; bool &gt;</text>
</g>
<!-- Node11&#45;&gt;Node5 -->
<g id="edge22" class="edge"><title>Node11&#45;&gt;Node5</title>
<path fill="none" stroke="midnightblue" d="M436.043,-327.863C468.681,-325.636 510.808,-322.12 548,-317 556.88,-315.778 566.279,-314.209 575.361,-312.548"/>
<polygon fill="midnightblue" stroke="midnightblue" points="435.544,-324.388 425.798,-328.542 436.007,-331.373 435.544,-324.388"/>
</g>
<!-- Node12 -->
<g id="node24" class="node"><title>Node12</title>
<a xlink:href="classAttrib_1_1DataHolderArray.html" target="_top" xlink:title="An array of attribute data holders. ">
<polygon fill="white" stroke="black" points="566.5,-345.5 566.5,-366.5 685.5,-366.5 685.5,-345.5 566.5,-345.5"/>
<text text-anchor="middle" x="626" y="-353.5" font-family="Helvetica,sans-Serif" font-size="10.00">Attrib::DataHolderArray</text>
</a>
</g>
<!-- Node11&#45;&gt;Node12 -->
<g id="edge24" class="edge"><title>Node11&#45;&gt;Node12</title>
<path fill="none" stroke="midnightblue" d="M435.488,-338.391C445.621,-339.669 456.125,-340.93 466,-342 499.127,-345.591 536.191,-348.88 566.298,-351.367"/>
<polygon fill="midnightblue" stroke="midnightblue" points="435.878,-334.913 425.514,-337.114 434.988,-341.856 435.878,-334.913"/>
</g>
<!-- Node14&#45;&gt;Node6 -->
<g id="edge30" class="edge"><title>Node14&#45;&gt;Node6</title>
<path fill="none" stroke="midnightblue" d="M456.66,-299.631C485.641,-300.822 518.751,-299.579 548,-292 556.859,-289.704 557.991,-286.427 566,-282 575.364,-276.824 585.56,-271.208 594.845,-266.102"/>
<polygon fill="midnightblue" stroke="midnightblue" points="456.761,-296.132 446.595,-299.115 456.403,-303.123 456.761,-296.132"/>
</g>
<!-- Node16&#45;&gt;Node7 -->
<g id="edge36" class="edge"><title>Node16&#45;&gt;Node7</title>
<path fill="none" stroke="midnightblue" d="M426.493,-197.58C444.37,-192.416 461.675,-187.599 466,-187 501.237,-182.121 541.237,-183.371 572.428,-185.841"/>
<polygon fill="midnightblue" stroke="midnightblue" points="425.208,-194.308 416.581,-200.459 427.161,-201.03 425.208,-194.308"/>
</g>
</g>
</svg>
