<?xml version="1.0" encoding="UTF-8" standalone="no"?>
<!DOCTYPE svg PUBLIC "-//W3C//DTD SVG 1.1//EN"
 "http://www.w3.org/Graphics/SVG/1.1/DTD/svg11.dtd">
<!-- Generated by graphviz version 2.26.0 (20091210.2329)
 -->
<!-- Title: BendPointFinderBase Pages: 1 -->
<svg width="392pt" height="378pt"
 viewBox="0.00 0.00 392.00 378.00" xmlns="http://www.w3.org/2000/svg" xmlns:xlink="http://www.w3.org/1999/xlink">
<g id="graph1" class="graph" transform="scale(1 1) rotate(0) translate(4 374)">
<title>BendPointFinderBase</title>
<polygon fill="white" stroke="white" points="-4,5 -4,-374 389,-374 389,5 -4,5"/>
<!-- Node1 -->
<g id="node1" class="node"><title>Node1</title>
<polygon fill="#bfbfbf" stroke="black" points="191.5,-116.5 191.5,-137.5 302.5,-137.5 302.5,-116.5 191.5,-116.5"/>
<text text-anchor="middle" x="247" y="-124.5" font-family="Helvetica,sans-Serif" font-size="10.00">BendPointFinderBase</text>
</g>
<!-- Node6 -->
<g id="node11" class="node"><title>Node6</title>
<a xlink:href="classBendPointFinder2DBase.html" target="_top" xlink:title="Used to find bendpoints in two dimensional datasets. ">
<polygon fill="white" stroke="black" points="120,-58.5 120,-79.5 244,-79.5 244,-58.5 120,-58.5"/>
<text text-anchor="middle" x="182" y="-66.5" font-family="Helvetica,sans-Serif" font-size="10.00">BendPointFinder2DBase</text>
</a>
</g>
<!-- Node1&#45;&gt;Node6 -->
<g id="edge10" class="edge"><title>Node1&#45;&gt;Node6</title>
<path fill="none" stroke="midnightblue" d="M227.602,-109.691C216.629,-99.8996 203.263,-87.973 193.846,-79.5707"/>
<polygon fill="midnightblue" stroke="midnightblue" points="225.286,-112.315 235.078,-116.362 229.947,-107.092 225.286,-112.315"/>
</g>
<!-- Node10 -->
<g id="node19" class="node"><title>Node10</title>
<a xlink:href="classBendPointFinder3D.html" target="_top" xlink:title="Used to find bendpoints in three dimensional datasets. ">
<polygon fill="white" stroke="black" points="261.5,-58.5 261.5,-79.5 362.5,-79.5 362.5,-58.5 261.5,-58.5"/>
<text text-anchor="middle" x="312" y="-66.5" font-family="Helvetica,sans-Serif" font-size="10.00">BendPointFinder3D</text>
</a>
</g>
<!-- Node1&#45;&gt;Node10 -->
<g id="edge18" class="edge"><title>Node1&#45;&gt;Node10</title>
<path fill="none" stroke="midnightblue" d="M266.398,-109.691C277.371,-99.8996 290.737,-87.973 300.154,-79.5707"/>
<polygon fill="midnightblue" stroke="midnightblue" points="264.053,-107.092 258.922,-116.362 268.714,-112.315 264.053,-107.092"/>
</g>
<!-- Node2 -->
<g id="node2" class="node"><title>Node2</title>
<a xlink:href="classParallelTask.html" target="_top" xlink:title="Generalization of a task that can be run in parallel. ">
<polygon fill="white" stroke="black" points="211.5,-174.5 211.5,-195.5 282.5,-195.5 282.5,-174.5 211.5,-174.5"/>
<text text-anchor="middle" x="247" y="-182.5" font-family="Helvetica,sans-Serif" font-size="10.00">ParallelTask</text>
</a>
</g>
<!-- Node2&#45;&gt;Node1 -->
<g id="edge2" class="edge"><title>Node2&#45;&gt;Node1</title>
<path fill="none" stroke="midnightblue" d="M247,-164.191C247,-155.168 247,-144.994 247,-137.571"/>
<polygon fill="midnightblue" stroke="midnightblue" points="243.5,-164.362 247,-174.362 250.5,-164.362 243.5,-164.362"/>
</g>
<!-- Node3 -->
<g id="node4" class="node"><title>Node3</title>
<a xlink:href="classTask.html" target="_top" xlink:title="Generalization of something (e.g. a computation) that needs to be done in multiple steps...">
<polygon fill="white" stroke="black" points="228,-232.5 228,-253.5 266,-253.5 266,-232.5 228,-232.5"/>
<text text-anchor="middle" x="247" y="-240.5" font-family="Helvetica,sans-Serif" font-size="10.00">Task</text>
</a>
</g>
<!-- Node3&#45;&gt;Node2 -->
<g id="edge4" class="edge"><title>Node3&#45;&gt;Node2</title>
<path fill="none" stroke="midnightblue" d="M247,-222.191C247,-213.168 247,-202.994 247,-195.571"/>
<polygon fill="midnightblue" stroke="midnightblue" points="243.5,-222.362 247,-232.362 250.5,-222.362 243.5,-222.362"/>
</g>
<!-- Node4 -->
<g id="node6" class="node"><title>Node4</title>
<a xlink:href="classNamedObject.html" target="_top" xlink:title="Object with a name. ">
<polygon fill="white" stroke="black" points="208.5,-290.5 208.5,-311.5 285.5,-311.5 285.5,-290.5 208.5,-290.5"/>
<text text-anchor="middle" x="247" y="-298.5" font-family="Helvetica,sans-Serif" font-size="10.00">NamedObject</text>
</a>
</g>
<!-- Node4&#45;&gt;Node3 -->
<g id="edge6" class="edge"><title>Node4&#45;&gt;Node3</title>
<path fill="none" stroke="midnightblue" d="M247,-280.191C247,-271.168 247,-260.994 247,-253.571"/>
<polygon fill="midnightblue" stroke="midnightblue" points="243.5,-280.362 247,-290.362 250.5,-280.362 243.5,-280.362"/>
</g>
<!-- Node5 -->
<g id="node8" class="node"><title>Node5</title>
<a xlink:href="classCallBacker.html" target="_top" xlink:title="To be able to send and/or receive CallBacks, inherit from this class. ">
<polygon fill="white" stroke="black" points="214.5,-348.5 214.5,-369.5 279.5,-369.5 279.5,-348.5 214.5,-348.5"/>
<text text-anchor="middle" x="247" y="-356.5" font-family="Helvetica,sans-Serif" font-size="10.00">CallBacker</text>
</a>
</g>
<!-- Node5&#45;&gt;Node4 -->
<g id="edge8" class="edge"><title>Node5&#45;&gt;Node4</title>
<path fill="none" stroke="midnightblue" d="M247,-338.191C247,-329.168 247,-318.994 247,-311.571"/>
<polygon fill="midnightblue" stroke="midnightblue" points="243.5,-338.362 247,-348.362 250.5,-338.362 243.5,-338.362"/>
</g>
<!-- Node7 -->
<g id="node13" class="node"><title>Node7</title>
<a xlink:href="classBendPointFinder2D.html" target="_top" xlink:title="Used to find bendpoints in set of XY Coordinates. ">
<polygon fill="white" stroke="black" points="-0.5,-0.5 -0.5,-21.5 100.5,-21.5 100.5,-0.5 -0.5,-0.5"/>
<text text-anchor="middle" x="50" y="-8.5" font-family="Helvetica,sans-Serif" font-size="10.00">BendPointFinder2D</text>
</a>
</g>
<!-- Node6&#45;&gt;Node7 -->
<g id="edge12" class="edge"><title>Node6&#45;&gt;Node7</title>
<path fill="none" stroke="midnightblue" d="M148.643,-54.3431C125.445,-44.1502 95.0567,-30.7977 74.1724,-21.6212"/>
<polygon fill="midnightblue" stroke="midnightblue" points="147.533,-57.6782 158.096,-58.4966 150.349,-51.2695 147.533,-57.6782"/>
</g>
<!-- Node8 -->
<g id="node15" class="node"><title>Node8</title>
<a xlink:href="classBendPointFinder2DGeom.html" target="_top" xlink:title="Used to find bendpoints in Line 2D Geometry. ">
<polygon fill="white" stroke="black" points="118,-0.5 118,-21.5 246,-21.5 246,-0.5 118,-0.5"/>
<text text-anchor="middle" x="182" y="-8.5" font-family="Helvetica,sans-Serif" font-size="10.00">BendPointFinder2DGeom</text>
</a>
</g>
<!-- Node6&#45;&gt;Node8 -->
<g id="edge14" class="edge"><title>Node6&#45;&gt;Node8</title>
<path fill="none" stroke="midnightblue" d="M182,-48.1906C182,-39.1684 182,-28.9941 182,-21.5707"/>
<polygon fill="midnightblue" stroke="midnightblue" points="178.5,-48.3619 182,-58.3619 185.5,-48.3619 178.5,-48.3619"/>
</g>
<!-- Node9 -->
<g id="node17" class="node"><title>Node9</title>
<a xlink:href="classBendPointFinderTrcKey.html" target="_top" xlink:title="Used to find bendpoints in set of TrcKeys. ">
<polygon fill="white" stroke="black" points="264,-0.5 264,-21.5 384,-21.5 384,-0.5 264,-0.5"/>
<text text-anchor="middle" x="324" y="-8.5" font-family="Helvetica,sans-Serif" font-size="10.00">BendPointFinderTrcKey</text>
</a>
</g>
<!-- Node6&#45;&gt;Node9 -->
<g id="edge16" class="edge"><title>Node6&#45;&gt;Node9</title>
<path fill="none" stroke="midnightblue" d="M217.218,-54.6153C242.255,-44.3889 275.329,-30.8796 297.996,-21.6212"/>
<polygon fill="midnightblue" stroke="midnightblue" points="215.649,-51.4752 207.715,-58.4966 218.296,-57.9555 215.649,-51.4752"/>
</g>
</g>
</svg>
