<?xml version="1.0" encoding="UTF-8" standalone="no"?>
<!DOCTYPE svg PUBLIC "-//W3C//DTD SVG 1.1//EN"
 "http://www.w3.org/Graphics/SVG/1.1/DTD/svg11.dtd">
<!-- Generated by graphviz version 2.26.0 (20091210.2329)
 -->
<!-- Title: SeisPS2DReader Pages: 1 -->
<svg width="276pt" height="146pt"
 viewBox="0.00 0.00 276.00 146.00" xmlns="http://www.w3.org/2000/svg" xmlns:xlink="http://www.w3.org/1999/xlink">
<g id="graph1" class="graph" transform="scale(1 1) rotate(0) translate(4 142)">
<title>SeisPS2DReader</title>
<polygon fill="white" stroke="white" points="-4,5 -4,-142 273,-142 273,5 -4,5"/>
<!-- Node1 -->
<g id="node1" class="node"><title>Node1</title>
<polygon fill="#bfbfbf" stroke="black" points="88,-58.5 88,-79.5 182,-79.5 182,-58.5 88,-58.5"/>
<text text-anchor="middle" x="135" y="-66.5" font-family="Helvetica,sans-Serif" font-size="10.00">SeisPS2DReader</text>
</g>
<!-- Node3 -->
<g id="node5" class="node"><title>Node3</title>
<a xlink:href="classSEGYDirect2DPSReader.html" target="_top" xlink:title="reads from 2D PS data store reader based on SEG&#45;Y files ">
<polygon fill="white" stroke="black" points="0,-0.5 0,-21.5 128,-21.5 128,-0.5 0,-0.5"/>
<text text-anchor="middle" x="64" y="-8.5" font-family="Helvetica,sans-Serif" font-size="10.00">SEGYDirect2DPSReader</text>
</a>
</g>
<!-- Node1&#45;&gt;Node3 -->
<g id="edge4" class="edge"><title>Node1&#45;&gt;Node3</title>
<path fill="none" stroke="midnightblue" d="M114.159,-51.9753C102.109,-42.1315 87.3254,-30.0545 76.9399,-21.5707"/>
<polygon fill="midnightblue" stroke="midnightblue" points="112.019,-54.746 121.978,-58.3619 116.447,-49.3249 112.019,-54.746"/>
</g>
<!-- Node4 -->
<g id="node7" class="node"><title>Node4</title>
<a xlink:href="classSeisCBVSPS2DReader.html" target="_top" xlink:title="reads from a CBVS prestack seismic data store. ">
<polygon fill="white" stroke="black" points="146,-0.5 146,-21.5 268,-21.5 268,-0.5 146,-0.5"/>
<text text-anchor="middle" x="207" y="-8.5" font-family="Helvetica,sans-Serif" font-size="10.00">SeisCBVSPS2DReader</text>
</a>
</g>
<!-- Node1&#45;&gt;Node4 -->
<g id="edge6" class="edge"><title>Node1&#45;&gt;Node4</title>
<path fill="none" stroke="midnightblue" d="M156.134,-51.9753C168.354,-42.1315 183.346,-30.0545 193.878,-21.5707"/>
<polygon fill="midnightblue" stroke="midnightblue" points="153.798,-49.3629 148.206,-58.3619 158.189,-54.8142 153.798,-49.3629"/>
</g>
<!-- Node2 -->
<g id="node2" class="node"><title>Node2</title>
<a xlink:href="classSeisPSReader.html" target="_top" xlink:title="reads from a prestack seismic data store. ">
<polygon fill="white" stroke="black" points="94.5,-116.5 94.5,-137.5 175.5,-137.5 175.5,-116.5 94.5,-116.5"/>
<text text-anchor="middle" x="135" y="-124.5" font-family="Helvetica,sans-Serif" font-size="10.00">SeisPSReader</text>
</a>
</g>
<!-- Node2&#45;&gt;Node1 -->
<g id="edge2" class="edge"><title>Node2&#45;&gt;Node1</title>
<path fill="none" stroke="midnightblue" d="M135,-106.191C135,-97.1684 135,-86.9941 135,-79.5707"/>
<polygon fill="midnightblue" stroke="midnightblue" points="131.5,-106.362 135,-116.362 138.5,-106.362 131.5,-106.362"/>
</g>
</g>
</svg>
