<?xml version="1.0" encoding="UTF-8" standalone="no"?>
<!DOCTYPE svg PUBLIC "-//W3C//DTD SVG 1.1//EN"
 "http://www.w3.org/Graphics/SVG/1.1/DTD/svg11.dtd">
<!-- Generated by graphviz version 2.26.0 (20091210.2329)
 -->
<!-- Title: uiODEarthModelSurfaceDataTreeItem Pages: 1 -->
<svg width="150pt" height="276pt"
 viewBox="0.00 0.00 150.00 276.00" xmlns="http://www.w3.org/2000/svg" xmlns:xlink="http://www.w3.org/1999/xlink">
<g id="graph1" class="graph" transform="scale(1 1) rotate(0) translate(4 272)">
<title>uiODEarthModelSurfaceDataTreeItem</title>
<polygon fill="white" stroke="white" points="-4,5 -4,-272 147,-272 147,5 -4,5"/>
<!-- Node1 -->
<g id="node1" class="node"><title>Node1</title>
<polygon fill="#bfbfbf" stroke="black" points="-0.5,-1 -0.5,-35 142.5,-35 142.5,-1 -0.5,-1"/>
<text text-anchor="start" x="7.5" y="-22" font-family="Helvetica,sans-Serif" font-size="10.00">uiODEarthModelSurfaceData</text>
<text text-anchor="middle" x="71" y="-9" font-family="Helvetica,sans-Serif" font-size="10.00">TreeItem</text>
</g>
<!-- Node2 -->
<g id="node2" class="node"><title>Node2</title>
<a xlink:href="classuiODAttribTreeItem.html" target="_top" xlink:title="uiODAttribTreeItem">
<polygon fill="white" stroke="black" points="20.5,-72.5 20.5,-93.5 121.5,-93.5 121.5,-72.5 20.5,-72.5"/>
<text text-anchor="middle" x="71" y="-80.5" font-family="Helvetica,sans-Serif" font-size="10.00">uiODAttribTreeItem</text>
</a>
</g>
<!-- Node2&#45;&gt;Node1 -->
<g id="edge2" class="edge"><title>Node2&#45;&gt;Node1</title>
<path fill="none" stroke="midnightblue" d="M71,-62.1306C71,-53.4049 71,-43.3908 71,-35.1099"/>
<polygon fill="midnightblue" stroke="midnightblue" points="67.5001,-62.2665 71,-72.2666 74.5001,-62.2666 67.5001,-62.2665"/>
</g>
<!-- Node3 -->
<g id="node4" class="node"><title>Node3</title>
<a xlink:href="classuiODDataTreeItem.html" target="_top" xlink:title="uiODDataTreeItem">
<polygon fill="white" stroke="black" points="21.5,-130.5 21.5,-151.5 120.5,-151.5 120.5,-130.5 21.5,-130.5"/>
<text text-anchor="middle" x="71" y="-138.5" font-family="Helvetica,sans-Serif" font-size="10.00">uiODDataTreeItem</text>
</a>
</g>
<!-- Node3&#45;&gt;Node2 -->
<g id="edge4" class="edge"><title>Node3&#45;&gt;Node2</title>
<path fill="none" stroke="midnightblue" d="M71,-120.191C71,-111.168 71,-100.994 71,-93.5707"/>
<polygon fill="midnightblue" stroke="midnightblue" points="67.5001,-120.362 71,-130.362 74.5001,-120.362 67.5001,-120.362"/>
</g>
<!-- Node4 -->
<g id="node6" class="node"><title>Node4</title>
<a xlink:href="classuiTreeItem.html" target="_top" xlink:title="uiTreeItem">
<polygon fill="white" stroke="black" points="39.5,-188.5 39.5,-209.5 102.5,-209.5 102.5,-188.5 39.5,-188.5"/>
<text text-anchor="middle" x="71" y="-196.5" font-family="Helvetica,sans-Serif" font-size="10.00">uiTreeItem</text>
</a>
</g>
<!-- Node4&#45;&gt;Node3 -->
<g id="edge6" class="edge"><title>Node4&#45;&gt;Node3</title>
<path fill="none" stroke="midnightblue" d="M71,-178.191C71,-169.168 71,-158.994 71,-151.571"/>
<polygon fill="midnightblue" stroke="midnightblue" points="67.5001,-178.362 71,-188.362 74.5001,-178.362 67.5001,-178.362"/>
</g>
<!-- Node5 -->
<g id="node8" class="node"><title>Node5</title>
<a xlink:href="classCallBacker.html" target="_top" xlink:title="To be able to send and/or receive CallBacks, inherit from this class. ">
<polygon fill="white" stroke="black" points="38.5,-246.5 38.5,-267.5 103.5,-267.5 103.5,-246.5 38.5,-246.5"/>
<text text-anchor="middle" x="71" y="-254.5" font-family="Helvetica,sans-Serif" font-size="10.00">CallBacker</text>
</a>
</g>
<!-- Node5&#45;&gt;Node4 -->
<g id="edge8" class="edge"><title>Node5&#45;&gt;Node4</title>
<path fill="none" stroke="midnightblue" d="M71,-236.191C71,-227.168 71,-216.994 71,-209.571"/>
<polygon fill="midnightblue" stroke="midnightblue" points="67.5001,-236.362 71,-246.362 74.5001,-236.362 67.5001,-236.362"/>
</g>
</g>
</svg>
