<?xml version="1.0" encoding="UTF-8" standalone="no"?>
<!DOCTYPE svg PUBLIC "-//W3C//DTD SVG 1.1//EN"
 "http://www.w3.org/Graphics/SVG/1.1/DTD/svg11.dtd">
<!-- Generated by graphviz version 2.26.0 (20091210.2329)
 -->
<!-- Title: uiFlatViewDataDispPropTab Pages: 1 -->
<svg width="210pt" height="378pt"
 viewBox="0.00 0.00 210.00 378.00" xmlns="http://www.w3.org/2000/svg" xmlns:xlink="http://www.w3.org/1999/xlink">
<g id="graph1" class="graph" transform="scale(1 1) rotate(0) translate(4 374)">
<title>uiFlatViewDataDispPropTab</title>
<polygon fill="white" stroke="white" points="-4,5 -4,-374 207,-374 207,5 -4,5"/>
<!-- Node1 -->
<g id="node1" class="node"><title>Node1</title>
<polygon fill="#bfbfbf" stroke="black" points="29,-58.5 29,-79.5 169,-79.5 169,-58.5 29,-58.5"/>
<text text-anchor="middle" x="99" y="-66.5" font-family="Helvetica,sans-Serif" font-size="10.00">uiFlatViewDataDispPropTab</text>
</g>
<!-- Node7 -->
<g id="node13" class="node"><title>Node7</title>
<a xlink:href="classuiFVVDPropTab.html" target="_top" xlink:title="uiFlatViewer VD display properties tabs. ">
<polygon fill="white" stroke="black" points="0,-0.5 0,-21.5 88,-21.5 88,-0.5 0,-0.5"/>
<text text-anchor="middle" x="44" y="-8.5" font-family="Helvetica,sans-Serif" font-size="10.00">uiFVVDPropTab</text>
</a>
</g>
<!-- Node1&#45;&gt;Node7 -->
<g id="edge12" class="edge"><title>Node1&#45;&gt;Node7</title>
<path fill="none" stroke="midnightblue" d="M81.7698,-50.8299C72.6454,-41.2078 61.7595,-29.7282 54.0239,-21.5707"/>
<polygon fill="midnightblue" stroke="midnightblue" points="79.4915,-53.514 88.9122,-58.3619 84.5709,-48.6973 79.4915,-53.514"/>
</g>
<!-- Node8 -->
<g id="node15" class="node"><title>Node8</title>
<a xlink:href="classuiFVWVAPropTab.html" target="_top" xlink:title="uiFlatViewer WVA display properties tabs. ">
<polygon fill="white" stroke="black" points="105.5,-0.5 105.5,-21.5 202.5,-21.5 202.5,-0.5 105.5,-0.5"/>
<text text-anchor="middle" x="154" y="-8.5" font-family="Helvetica,sans-Serif" font-size="10.00">uiFVWVAPropTab</text>
</a>
</g>
<!-- Node1&#45;&gt;Node8 -->
<g id="edge14" class="edge"><title>Node1&#45;&gt;Node8</title>
<path fill="none" stroke="midnightblue" d="M116.23,-50.8299C125.355,-41.2078 136.24,-29.7282 143.976,-21.5707"/>
<polygon fill="midnightblue" stroke="midnightblue" points="113.429,-48.6973 109.088,-58.3619 118.508,-53.514 113.429,-48.6973"/>
</g>
<!-- Node2 -->
<g id="node2" class="node"><title>Node2</title>
<a xlink:href="classuiFlatViewPropTab.html" target="_top" xlink:title="uiFlatViewer properties tabs. ">
<polygon fill="white" stroke="black" points="49.5,-116.5 49.5,-137.5 148.5,-137.5 148.5,-116.5 49.5,-116.5"/>
<text text-anchor="middle" x="99" y="-124.5" font-family="Helvetica,sans-Serif" font-size="10.00">uiFlatViewPropTab</text>
</a>
</g>
<!-- Node2&#45;&gt;Node1 -->
<g id="edge2" class="edge"><title>Node2&#45;&gt;Node1</title>
<path fill="none" stroke="midnightblue" d="M99,-106.191C99,-97.1684 99,-86.9941 99,-79.5707"/>
<polygon fill="midnightblue" stroke="midnightblue" points="95.5001,-106.362 99,-116.362 102.5,-106.362 95.5001,-106.362"/>
</g>
<!-- Node3 -->
<g id="node4" class="node"><title>Node3</title>
<a xlink:href="classuiDlgGroup.html" target="_top" xlink:title="uiDlgGroup">
<polygon fill="white" stroke="black" points="66.5,-174.5 66.5,-195.5 131.5,-195.5 131.5,-174.5 66.5,-174.5"/>
<text text-anchor="middle" x="99" y="-182.5" font-family="Helvetica,sans-Serif" font-size="10.00">uiDlgGroup</text>
</a>
</g>
<!-- Node3&#45;&gt;Node2 -->
<g id="edge4" class="edge"><title>Node3&#45;&gt;Node2</title>
<path fill="none" stroke="midnightblue" d="M99,-164.191C99,-155.168 99,-144.994 99,-137.571"/>
<polygon fill="midnightblue" stroke="midnightblue" points="95.5001,-164.362 99,-174.362 102.5,-164.362 95.5001,-164.362"/>
</g>
<!-- Node4 -->
<g id="node6" class="node"><title>Node4</title>
<a xlink:href="classuiGroup.html" target="_top" xlink:title="uiGroup">
<polygon fill="white" stroke="black" points="74,-232.5 74,-253.5 124,-253.5 124,-232.5 74,-232.5"/>
<text text-anchor="middle" x="99" y="-240.5" font-family="Helvetica,sans-Serif" font-size="10.00">uiGroup</text>
</a>
</g>
<!-- Node4&#45;&gt;Node3 -->
<g id="edge6" class="edge"><title>Node4&#45;&gt;Node3</title>
<path fill="none" stroke="midnightblue" d="M99,-222.191C99,-213.168 99,-202.994 99,-195.571"/>
<polygon fill="midnightblue" stroke="midnightblue" points="95.5001,-222.362 99,-232.362 102.5,-222.362 95.5001,-222.362"/>
</g>
<!-- Node5 -->
<g id="node8" class="node"><title>Node5</title>
<a xlink:href="classuiParent.html" target="_top" xlink:title="uiParent">
<polygon fill="white" stroke="black" points="72.5,-290.5 72.5,-311.5 125.5,-311.5 125.5,-290.5 72.5,-290.5"/>
<text text-anchor="middle" x="99" y="-298.5" font-family="Helvetica,sans-Serif" font-size="10.00">uiParent</text>
</a>
</g>
<!-- Node5&#45;&gt;Node4 -->
<g id="edge8" class="edge"><title>Node5&#45;&gt;Node4</title>
<path fill="none" stroke="midnightblue" d="M99,-280.191C99,-271.168 99,-260.994 99,-253.571"/>
<polygon fill="midnightblue" stroke="midnightblue" points="95.5001,-280.362 99,-290.362 102.5,-280.362 95.5001,-280.362"/>
</g>
<!-- Node6 -->
<g id="node10" class="node"><title>Node6</title>
<polygon fill="white" stroke="#bfbfbf" points="61.5,-348.5 61.5,-369.5 136.5,-369.5 136.5,-348.5 61.5,-348.5"/>
<text text-anchor="middle" x="99" y="-356.5" font-family="Helvetica,sans-Serif" font-size="10.00">uiBaseObject</text>
</g>
<!-- Node6&#45;&gt;Node5 -->
<g id="edge10" class="edge"><title>Node6&#45;&gt;Node5</title>
<path fill="none" stroke="midnightblue" d="M99,-338.191C99,-329.168 99,-318.994 99,-311.571"/>
<polygon fill="midnightblue" stroke="midnightblue" points="95.5001,-338.362 99,-348.362 102.5,-338.362 95.5001,-338.362"/>
</g>
</g>
</svg>
