<?xml version="1.0" encoding="UTF-8" standalone="no"?>
<!DOCTYPE svg PUBLIC "-//W3C//DTD SVG 1.1//EN"
 "http://www.w3.org/Graphics/SVG/1.1/DTD/svg11.dtd">
<!-- Generated by graphviz version 2.26.0 (20091210.2329)
 -->
<!-- Title: KeyReplaceJobDescProv Pages: 1 -->
<svg width="320pt" height="146pt"
 viewBox="0.00 0.00 320.00 146.00" xmlns="http://www.w3.org/2000/svg" xmlns:xlink="http://www.w3.org/1999/xlink">
<g id="graph1" class="graph" transform="scale(1 1) rotate(0) translate(4 142)">
<title>KeyReplaceJobDescProv</title>
<polygon fill="white" stroke="white" points="-4,5 -4,-142 317,-142 317,5 -4,5"/>
<!-- Node1 -->
<g id="node1" class="node"><title>Node1</title>
<polygon fill="#bfbfbf" stroke="black" points="87.5,-58.5 87.5,-79.5 216.5,-79.5 216.5,-58.5 87.5,-58.5"/>
<text text-anchor="middle" x="152" y="-66.5" font-family="Helvetica,sans-Serif" font-size="10.00">KeyReplaceJobDescProv</text>
</g>
<!-- Node3 -->
<g id="node5" class="node"><title>Node3</title>
<a xlink:href="classIDKeyReplaceJobDescProv.html" target="_top" xlink:title="KeyReplaceJobDescProv where the values taken from a range of IDs. ">
<polygon fill="white" stroke="black" points="0,-0.5 0,-21.5 140,-21.5 140,-0.5 0,-0.5"/>
<text text-anchor="middle" x="70" y="-8.5" font-family="Helvetica,sans-Serif" font-size="10.00">IDKeyReplaceJobDescProv</text>
</a>
</g>
<!-- Node1&#45;&gt;Node3 -->
<g id="edge4" class="edge"><title>Node1&#45;&gt;Node3</title>
<path fill="none" stroke="midnightblue" d="M128.73,-52.5407C114.672,-42.5973 97.1698,-30.2177 84.9447,-21.5707"/>
<polygon fill="midnightblue" stroke="midnightblue" points="126.775,-55.4447 136.96,-58.3619 130.817,-49.7298 126.775,-55.4447"/>
</g>
<!-- Node4 -->
<g id="node7" class="node"><title>Node4</title>
<a xlink:href="classStringKeyReplaceJobDescProv.html" target="_top" xlink:title="KeyReplaceJobDescProv where the values are in a string set. ">
<polygon fill="white" stroke="black" points="157.5,-0.5 157.5,-21.5 312.5,-21.5 312.5,-0.5 157.5,-0.5"/>
<text text-anchor="middle" x="235" y="-8.5" font-family="Helvetica,sans-Serif" font-size="10.00">StringKeyReplaceJobDescProv</text>
</a>
</g>
<!-- Node1&#45;&gt;Node4 -->
<g id="edge6" class="edge"><title>Node1&#45;&gt;Node4</title>
<path fill="none" stroke="midnightblue" d="M175.554,-52.5407C189.783,-42.5973 207.499,-30.2177 219.873,-21.5707"/>
<polygon fill="midnightblue" stroke="midnightblue" points="173.416,-49.7649 167.223,-58.3619 177.425,-55.5028 173.416,-49.7649"/>
</g>
<!-- Node2 -->
<g id="node2" class="node"><title>Node2</title>
<a xlink:href="classJobDescProv.html" target="_top" xlink:title="Interface for providing parameter files for jobs (job descriptions). Two implementations are pre&#45;cook...">
<polygon fill="white" stroke="black" points="114,-116.5 114,-137.5 190,-137.5 190,-116.5 114,-116.5"/>
<text text-anchor="middle" x="152" y="-124.5" font-family="Helvetica,sans-Serif" font-size="10.00">JobDescProv</text>
</a>
</g>
<!-- Node2&#45;&gt;Node1 -->
<g id="edge2" class="edge"><title>Node2&#45;&gt;Node1</title>
<path fill="none" stroke="midnightblue" d="M152,-106.191C152,-97.1684 152,-86.9941 152,-79.5707"/>
<polygon fill="midnightblue" stroke="midnightblue" points="148.5,-106.362 152,-116.362 155.5,-106.362 148.5,-106.362"/>
</g>
</g>
</svg>
