<?xml version="1.0" encoding="UTF-8" standalone="no"?>
<!DOCTYPE svg PUBLIC "-//W3C//DTD SVG 1.1//EN"
 "http://www.w3.org/Graphics/SVG/1.1/DTD/svg11.dtd">
<!-- Generated by graphviz version 2.26.0 (20091210.2329)
 -->
<!-- Title: SEGYDirectSurvGeom2DTranslator Pages: 1 -->
<svg width="180pt" height="204pt"
 viewBox="0.00 0.00 180.00 204.00" xmlns="http://www.w3.org/2000/svg" xmlns:xlink="http://www.w3.org/1999/xlink">
<g id="graph1" class="graph" transform="scale(1 1) rotate(0) translate(4 200)">
<title>SEGYDirectSurvGeom2DTranslator</title>
<polygon fill="white" stroke="white" points="-4,5 -4,-200 177,-200 177,5 -4,5"/>
<!-- Node1 -->
<g id="node1" class="node"><title>Node1</title>
<polygon fill="#bfbfbf" stroke="black" points="-0.5,-0.5 -0.5,-21.5 172.5,-21.5 172.5,-0.5 -0.5,-0.5"/>
<text text-anchor="middle" x="86" y="-8.5" font-family="Helvetica,sans-Serif" font-size="10.00">SEGYDirectSurvGeom2DTranslator</text>
</g>
<!-- Node2 -->
<g id="node2" class="node"><title>Node2</title>
<a xlink:href="classSurvGeom2DTranslator.html" target="_top" xlink:title="SurvGeom2DTranslator">
<polygon fill="white" stroke="black" points="26.5,-58.5 26.5,-79.5 145.5,-79.5 145.5,-58.5 26.5,-58.5"/>
<text text-anchor="middle" x="86" y="-66.5" font-family="Helvetica,sans-Serif" font-size="10.00">SurvGeom2DTranslator</text>
</a>
</g>
<!-- Node2&#45;&gt;Node1 -->
<g id="edge2" class="edge"><title>Node2&#45;&gt;Node1</title>
<path fill="none" stroke="midnightblue" d="M86,-48.1906C86,-39.1684 86,-28.9941 86,-21.5707"/>
<polygon fill="midnightblue" stroke="midnightblue" points="82.5001,-48.3619 86,-58.3619 89.5001,-48.3619 82.5001,-48.3619"/>
</g>
<!-- Node3 -->
<g id="node4" class="node"><title>Node3</title>
<a xlink:href="classTranslator.html" target="_top" xlink:title="I/O Interpreter class for a certain object type. ">
<polygon fill="white" stroke="black" points="56,-116.5 56,-137.5 116,-137.5 116,-116.5 56,-116.5"/>
<text text-anchor="middle" x="86" y="-124.5" font-family="Helvetica,sans-Serif" font-size="10.00">Translator</text>
</a>
</g>
<!-- Node3&#45;&gt;Node2 -->
<g id="edge4" class="edge"><title>Node3&#45;&gt;Node2</title>
<path fill="none" stroke="midnightblue" d="M86,-106.191C86,-97.1684 86,-86.9941 86,-79.5707"/>
<polygon fill="midnightblue" stroke="midnightblue" points="82.5001,-106.362 86,-116.362 89.5001,-106.362 82.5001,-106.362"/>
</g>
<!-- Node4 -->
<g id="node6" class="node"><title>Node4</title>
<a xlink:href="classCallBacker.html" target="_top" xlink:title="To be able to send and/or receive CallBacks, inherit from this class. ">
<polygon fill="white" stroke="black" points="53.5,-174.5 53.5,-195.5 118.5,-195.5 118.5,-174.5 53.5,-174.5"/>
<text text-anchor="middle" x="86" y="-182.5" font-family="Helvetica,sans-Serif" font-size="10.00">CallBacker</text>
</a>
</g>
<!-- Node4&#45;&gt;Node3 -->
<g id="edge6" class="edge"><title>Node4&#45;&gt;Node3</title>
<path fill="none" stroke="midnightblue" d="M86,-164.191C86,-155.168 86,-144.994 86,-137.571"/>
<polygon fill="midnightblue" stroke="midnightblue" points="82.5001,-164.362 86,-174.362 89.5001,-164.362 82.5001,-164.362"/>
</g>
</g>
</svg>
