<?xml version="1.0" encoding="UTF-8" standalone="no"?>
<!DOCTYPE svg PUBLIC "-//W3C//DTD SVG 1.1//EN"
 "http://www.w3.org/Graphics/SVG/1.1/DTD/svg11.dtd">
<!-- Generated by graphviz version 2.26.0 (20091210.2329)
 -->
<!-- Title: visBase::NodeState Pages: 1 -->
<svg width="456pt" height="146pt"
 viewBox="0.00 0.00 456.00 146.00" xmlns="http://www.w3.org/2000/svg" xmlns:xlink="http://www.w3.org/1999/xlink">
<g id="graph1" class="graph" transform="scale(1 1) rotate(0) translate(4 142)">
<title>visBase::NodeState</title>
<polygon fill="white" stroke="white" points="-4,5 -4,-142 453,-142 453,5 -4,5"/>
<!-- Node1 -->
<g id="node1" class="node"><title>Node1</title>
<polygon fill="#bfbfbf" stroke="black" points="160,-58.5 160,-79.5 264,-79.5 264,-58.5 160,-58.5"/>
<text text-anchor="middle" x="212" y="-66.5" font-family="Helvetica,sans-Serif" font-size="10.00">visBase::NodeState</text>
</g>
<!-- Node3 -->
<g id="node5" class="node"><title>Node3</title>
<a xlink:href="classvisBase_1_1DrawStyle.html" target="_top" xlink:title="visBase::DrawStyle">
<polygon fill="white" stroke="black" points="0,-0.5 0,-21.5 104,-21.5 104,-0.5 0,-0.5"/>
<text text-anchor="middle" x="52" y="-8.5" font-family="Helvetica,sans-Serif" font-size="10.00">visBase::DrawStyle</text>
</a>
</g>
<!-- Node1&#45;&gt;Node3 -->
<g id="edge4" class="edge"><title>Node1&#45;&gt;Node3</title>
<path fill="none" stroke="midnightblue" d="M173.405,-55.0095C144.972,-44.7023 106.905,-30.903 81.0291,-21.5231"/>
<polygon fill="midnightblue" stroke="midnightblue" points="172.431,-58.3791 183.025,-58.4966 174.817,-51.7981 172.431,-58.3791"/>
</g>
<!-- Node4 -->
<g id="node7" class="node"><title>Node4</title>
<a xlink:href="classvisBase_1_1Light.html" target="_top" xlink:title="Class for all lights. More options are available in osg, but only what we currently need is implement...">
<polygon fill="white" stroke="black" points="121.5,-0.5 121.5,-21.5 200.5,-21.5 200.5,-0.5 121.5,-0.5"/>
<text text-anchor="middle" x="161" y="-8.5" font-family="Helvetica,sans-Serif" font-size="10.00">visBase::Light</text>
</a>
</g>
<!-- Node1&#45;&gt;Node4 -->
<g id="edge6" class="edge"><title>Node1&#45;&gt;Node4</title>
<path fill="none" stroke="midnightblue" d="M196.023,-50.8299C187.562,-41.2078 177.468,-29.7282 170.295,-21.5707"/>
<polygon fill="midnightblue" stroke="midnightblue" points="193.414,-53.1634 202.646,-58.3619 198.671,-48.541 193.414,-53.1634"/>
</g>
<!-- Node5 -->
<g id="node9" class="node"><title>Node5</title>
<a xlink:href="classvisBase_1_1Material.html" target="_top" xlink:title="visBase::Material">
<polygon fill="white" stroke="black" points="218,-0.5 218,-21.5 310,-21.5 310,-0.5 218,-0.5"/>
<text text-anchor="middle" x="264" y="-8.5" font-family="Helvetica,sans-Serif" font-size="10.00">visBase::Material</text>
</a>
</g>
<!-- Node1&#45;&gt;Node5 -->
<g id="edge8" class="edge"><title>Node1&#45;&gt;Node5</title>
<path fill="none" stroke="midnightblue" d="M228.29,-50.8299C236.917,-41.2078 247.209,-29.7282 254.523,-21.5707"/>
<polygon fill="midnightblue" stroke="midnightblue" points="225.607,-48.5798 221.538,-58.3619 230.819,-53.2526 225.607,-48.5798"/>
</g>
<!-- Node6 -->
<g id="node11" class="node"><title>Node6</title>
<a xlink:href="classvisBase_1_1PolygonOffset.html" target="_top" xlink:title="visBase::PolygonOffset">
<polygon fill="white" stroke="black" points="328,-0.5 328,-21.5 448,-21.5 448,-0.5 328,-0.5"/>
<text text-anchor="middle" x="388" y="-8.5" font-family="Helvetica,sans-Serif" font-size="10.00">visBase::PolygonOffset</text>
</a>
</g>
<!-- Node1&#45;&gt;Node6 -->
<g id="edge10" class="edge"><title>Node1&#45;&gt;Node6</title>
<path fill="none" stroke="midnightblue" d="M253.637,-55.2787C284.998,-44.9437 327.356,-30.9849 356.068,-21.5231"/>
<polygon fill="midnightblue" stroke="midnightblue" points="252.274,-52.0425 243.872,-58.4966 254.465,-58.6908 252.274,-52.0425"/>
</g>
<!-- Node2 -->
<g id="node2" class="node"><title>Node2</title>
<a xlink:href="classCallBacker.html" target="_top" xlink:title="To be able to send and/or receive CallBacks, inherit from this class. ">
<polygon fill="white" stroke="black" points="179.5,-116.5 179.5,-137.5 244.5,-137.5 244.5,-116.5 179.5,-116.5"/>
<text text-anchor="middle" x="212" y="-124.5" font-family="Helvetica,sans-Serif" font-size="10.00">CallBacker</text>
</a>
</g>
<!-- Node2&#45;&gt;Node1 -->
<g id="edge2" class="edge"><title>Node2&#45;&gt;Node1</title>
<path fill="none" stroke="midnightblue" d="M212,-106.191C212,-97.1684 212,-86.9941 212,-79.5707"/>
<polygon fill="midnightblue" stroke="midnightblue" points="208.5,-106.362 212,-116.362 215.5,-106.362 208.5,-106.362"/>
</g>
</g>
</svg>
