<?xml version="1.0" encoding="UTF-8" standalone="no"?>
<!DOCTYPE svg PUBLIC "-//W3C//DTD SVG 1.1//EN"
 "http://www.w3.org/Graphics/SVG/1.1/DTD/svg11.dtd">
<!-- Generated by graphviz version 2.26.0 (20091210.2329)
 -->
<!-- Title: Pos::RandomFilter Pages: 1 -->
<svg width="246pt" height="146pt"
 viewBox="0.00 0.00 246.00 146.00" xmlns="http://www.w3.org/2000/svg" xmlns:xlink="http://www.w3.org/1999/xlink">
<g id="graph1" class="graph" transform="scale(1 1) rotate(0) translate(4 142)">
<title>Pos::RandomFilter</title>
<polygon fill="white" stroke="white" points="-4,5 -4,-142 243,-142 243,5 -4,5"/>
<!-- Node1 -->
<g id="node1" class="node"><title>Node1</title>
<polygon fill="#bfbfbf" stroke="black" points="70,-58.5 70,-79.5 168,-79.5 168,-58.5 70,-58.5"/>
<text text-anchor="middle" x="119" y="-66.5" font-family="Helvetica,sans-Serif" font-size="10.00">Pos::RandomFilter</text>
</g>
<!-- Node3 -->
<g id="node5" class="node"><title>Node3</title>
<a xlink:href="classPos_1_1RandomFilter2D.html" target="_top" xlink:title="Passes a percentage of the positions (2D). ">
<polygon fill="white" stroke="black" points="-0.5,-0.5 -0.5,-21.5 110.5,-21.5 110.5,-0.5 -0.5,-0.5"/>
<text text-anchor="middle" x="55" y="-8.5" font-family="Helvetica,sans-Serif" font-size="10.00">Pos::RandomFilter2D</text>
</a>
</g>
<!-- Node1&#45;&gt;Node3 -->
<g id="edge4" class="edge"><title>Node1&#45;&gt;Node3</title>
<path fill="none" stroke="midnightblue" d="M99.5848,-51.405C88.8409,-41.6683 75.8457,-29.8914 66.6642,-21.5707"/>
<polygon fill="midnightblue" stroke="midnightblue" points="97.5012,-54.2401 107.261,-58.3619 102.202,-49.0532 97.5012,-54.2401"/>
</g>
<!-- Node4 -->
<g id="node7" class="node"><title>Node4</title>
<a xlink:href="classPos_1_1RandomFilter3D.html" target="_top" xlink:title="Passes a percentage of the positions (3D). ">
<polygon fill="white" stroke="black" points="127.5,-0.5 127.5,-21.5 238.5,-21.5 238.5,-0.5 127.5,-0.5"/>
<text text-anchor="middle" x="183" y="-8.5" font-family="Helvetica,sans-Serif" font-size="10.00">Pos::RandomFilter3D</text>
</a>
</g>
<!-- Node1&#45;&gt;Node4 -->
<g id="edge6" class="edge"><title>Node1&#45;&gt;Node4</title>
<path fill="none" stroke="midnightblue" d="M138.415,-51.405C149.159,-41.6683 162.154,-29.8914 171.336,-21.5707"/>
<polygon fill="midnightblue" stroke="midnightblue" points="135.798,-49.0532 130.739,-58.3619 140.499,-54.2401 135.798,-49.0532"/>
</g>
<!-- Node2 -->
<g id="node2" class="node"><title>Node2</title>
<a xlink:href="classPos_1_1Filter.html" target="_top" xlink:title="Decides whether a given position should be included. ">
<polygon fill="white" stroke="black" points="88,-116.5 88,-137.5 150,-137.5 150,-116.5 88,-116.5"/>
<text text-anchor="middle" x="119" y="-124.5" font-family="Helvetica,sans-Serif" font-size="10.00">Pos::Filter</text>
</a>
</g>
<!-- Node2&#45;&gt;Node1 -->
<g id="edge2" class="edge"><title>Node2&#45;&gt;Node1</title>
<path fill="none" stroke="midnightblue" d="M119,-106.191C119,-97.1684 119,-86.9941 119,-79.5707"/>
<polygon fill="midnightblue" stroke="midnightblue" points="115.5,-106.362 119,-116.362 122.5,-106.362 115.5,-106.362"/>
</g>
</g>
</svg>
