<?xml version="1.0" encoding="UTF-8" standalone="no"?>
<!DOCTYPE svg PUBLIC "-//W3C//DTD SVG 1.1//EN"
 "http://www.w3.org/Graphics/SVG/1.1/DTD/svg11.dtd">
<!-- Generated by graphviz version 2.26.0 (20091210.2329)
 -->
<!-- Title: SurvGeom2DTranslator Pages: 1 -->
<svg width="332pt" height="204pt"
 viewBox="0.00 0.00 332.00 204.00" xmlns="http://www.w3.org/2000/svg" xmlns:xlink="http://www.w3.org/1999/xlink">
<g id="graph1" class="graph" transform="scale(1 1) rotate(0) translate(4 200)">
<title>SurvGeom2DTranslator</title>
<polygon fill="white" stroke="white" points="-4,5 -4,-200 329,-200 329,5 -4,5"/>
<!-- Node1 -->
<g id="node1" class="node"><title>Node1</title>
<polygon fill="#bfbfbf" stroke="black" points="92.5,-58.5 92.5,-79.5 211.5,-79.5 211.5,-58.5 92.5,-58.5"/>
<text text-anchor="middle" x="152" y="-66.5" font-family="Helvetica,sans-Serif" font-size="10.00">SurvGeom2DTranslator</text>
</g>
<!-- Node4 -->
<g id="node7" class="node"><title>Node4</title>
<a xlink:href="classdgbSurvGeom2DTranslator.html" target="_top" xlink:title="dgbSurvGeom2DTranslator">
<polygon fill="white" stroke="black" points="-0.5,-0.5 -0.5,-21.5 134.5,-21.5 134.5,-0.5 -0.5,-0.5"/>
<text text-anchor="middle" x="67" y="-8.5" font-family="Helvetica,sans-Serif" font-size="10.00">dgbSurvGeom2DTranslator</text>
</a>
</g>
<!-- Node1&#45;&gt;Node4 -->
<g id="edge6" class="edge"><title>Node1&#45;&gt;Node4</title>
<path fill="none" stroke="midnightblue" d="M127.879,-52.5407C113.306,-42.5973 95.1639,-30.2177 82.4915,-21.5707"/>
<polygon fill="midnightblue" stroke="midnightblue" points="126.177,-55.6166 136.41,-58.3619 130.122,-49.8344 126.177,-55.6166"/>
</g>
<!-- Node5 -->
<g id="node9" class="node"><title>Node5</title>
<a xlink:href="classSEGYDirectSurvGeom2DTranslator.html" target="_top" xlink:title="SEGYDirectSurvGeom2DTranslator">
<polygon fill="white" stroke="black" points="151.5,-0.5 151.5,-21.5 324.5,-21.5 324.5,-0.5 151.5,-0.5"/>
<text text-anchor="middle" x="238" y="-8.5" font-family="Helvetica,sans-Serif" font-size="10.00">SEGYDirectSurvGeom2DTranslator</text>
</a>
</g>
<!-- Node1&#45;&gt;Node5 -->
<g id="edge8" class="edge"><title>Node1&#45;&gt;Node5</title>
<path fill="none" stroke="midnightblue" d="M176.405,-52.5407C191.149,-42.5973 209.505,-30.2177 222.326,-21.5707"/>
<polygon fill="midnightblue" stroke="midnightblue" points="174.107,-49.8687 167.774,-58.3619 178.021,-55.6722 174.107,-49.8687"/>
</g>
<!-- Node2 -->
<g id="node2" class="node"><title>Node2</title>
<a xlink:href="classTranslator.html" target="_top" xlink:title="I/O Interpreter class for a certain object type. ">
<polygon fill="white" stroke="black" points="122,-116.5 122,-137.5 182,-137.5 182,-116.5 122,-116.5"/>
<text text-anchor="middle" x="152" y="-124.5" font-family="Helvetica,sans-Serif" font-size="10.00">Translator</text>
</a>
</g>
<!-- Node2&#45;&gt;Node1 -->
<g id="edge2" class="edge"><title>Node2&#45;&gt;Node1</title>
<path fill="none" stroke="midnightblue" d="M152,-106.191C152,-97.1684 152,-86.9941 152,-79.5707"/>
<polygon fill="midnightblue" stroke="midnightblue" points="148.5,-106.362 152,-116.362 155.5,-106.362 148.5,-106.362"/>
</g>
<!-- Node3 -->
<g id="node4" class="node"><title>Node3</title>
<a xlink:href="classCallBacker.html" target="_top" xlink:title="To be able to send and/or receive CallBacks, inherit from this class. ">
<polygon fill="white" stroke="black" points="119.5,-174.5 119.5,-195.5 184.5,-195.5 184.5,-174.5 119.5,-174.5"/>
<text text-anchor="middle" x="152" y="-182.5" font-family="Helvetica,sans-Serif" font-size="10.00">CallBacker</text>
</a>
</g>
<!-- Node3&#45;&gt;Node2 -->
<g id="edge4" class="edge"><title>Node3&#45;&gt;Node2</title>
<path fill="none" stroke="midnightblue" d="M152,-164.191C152,-155.168 152,-144.994 152,-137.571"/>
<polygon fill="midnightblue" stroke="midnightblue" points="148.5,-164.362 152,-174.362 155.5,-164.362 148.5,-164.362"/>
</g>
</g>
</svg>
