<?xml version="1.0" encoding="UTF-8" standalone="no"?>
<!DOCTYPE svg PUBLIC "-//W3C//DTD SVG 1.1//EN"
 "http://www.w3.org/Graphics/SVG/1.1/DTD/svg11.dtd">
<!-- Generated by graphviz version 2.26.0 (20091210.2329)
 -->
<!-- Title: VrmsRayTracer1D Pages: 1 -->
<svg width="106pt" height="320pt"
 viewBox="0.00 0.00 106.00 320.00" xmlns="http://www.w3.org/2000/svg" xmlns:xlink="http://www.w3.org/1999/xlink">
<g id="graph1" class="graph" transform="scale(1 1) rotate(0) translate(4 316)">
<title>VrmsRayTracer1D</title>
<polygon fill="white" stroke="white" points="-4,5 -4,-316 103,-316 103,5 -4,5"/>
<!-- Node1 -->
<g id="node1" class="node"><title>Node1</title>
<polygon fill="#bfbfbf" stroke="black" points="0,-0.5 0,-21.5 98,-21.5 98,-0.5 0,-0.5"/>
<text text-anchor="middle" x="49" y="-8.5" font-family="Helvetica,sans-Serif" font-size="10.00">VrmsRayTracer1D</text>
</g>
<!-- Node2 -->
<g id="node2" class="node"><title>Node2</title>
<a xlink:href="classRayTracer1D.html" target="_top" xlink:title="Ray tracer in 1D. ">
<polygon fill="white" stroke="black" points="11.5,-58.5 11.5,-79.5 86.5,-79.5 86.5,-58.5 11.5,-58.5"/>
<text text-anchor="middle" x="49" y="-66.5" font-family="Helvetica,sans-Serif" font-size="10.00">RayTracer1D</text>
</a>
</g>
<!-- Node2&#45;&gt;Node1 -->
<g id="edge2" class="edge"><title>Node2&#45;&gt;Node1</title>
<path fill="none" stroke="midnightblue" d="M49,-48.1906C49,-39.1684 49,-28.9941 49,-21.5707"/>
<polygon fill="midnightblue" stroke="midnightblue" points="45.5001,-48.3619 49,-58.3619 52.5001,-48.3619 45.5001,-48.3619"/>
</g>
<!-- Node3 -->
<g id="node4" class="node"><title>Node3</title>
<a xlink:href="classParallelTask.html" target="_top" xlink:title="Generalization of a task that can be run in parallel. ">
<polygon fill="white" stroke="black" points="13.5,-116.5 13.5,-137.5 84.5,-137.5 84.5,-116.5 13.5,-116.5"/>
<text text-anchor="middle" x="49" y="-124.5" font-family="Helvetica,sans-Serif" font-size="10.00">ParallelTask</text>
</a>
</g>
<!-- Node3&#45;&gt;Node2 -->
<g id="edge4" class="edge"><title>Node3&#45;&gt;Node2</title>
<path fill="none" stroke="midnightblue" d="M49,-106.191C49,-97.1684 49,-86.9941 49,-79.5707"/>
<polygon fill="midnightblue" stroke="midnightblue" points="45.5001,-106.362 49,-116.362 52.5001,-106.362 45.5001,-106.362"/>
</g>
<!-- Node4 -->
<g id="node6" class="node"><title>Node4</title>
<a xlink:href="classTask.html" target="_top" xlink:title="Generalization of something (e.g. a computation) that needs to be done in multiple steps...">
<polygon fill="white" stroke="black" points="30,-174.5 30,-195.5 68,-195.5 68,-174.5 30,-174.5"/>
<text text-anchor="middle" x="49" y="-182.5" font-family="Helvetica,sans-Serif" font-size="10.00">Task</text>
</a>
</g>
<!-- Node4&#45;&gt;Node3 -->
<g id="edge6" class="edge"><title>Node4&#45;&gt;Node3</title>
<path fill="none" stroke="midnightblue" d="M49,-164.191C49,-155.168 49,-144.994 49,-137.571"/>
<polygon fill="midnightblue" stroke="midnightblue" points="45.5001,-164.362 49,-174.362 52.5001,-164.362 45.5001,-164.362"/>
</g>
<!-- Node5 -->
<g id="node8" class="node"><title>Node5</title>
<a xlink:href="classNamedObject.html" target="_top" xlink:title="Object with a name. ">
<polygon fill="white" stroke="black" points="10.5,-232.5 10.5,-253.5 87.5,-253.5 87.5,-232.5 10.5,-232.5"/>
<text text-anchor="middle" x="49" y="-240.5" font-family="Helvetica,sans-Serif" font-size="10.00">NamedObject</text>
</a>
</g>
<!-- Node5&#45;&gt;Node4 -->
<g id="edge8" class="edge"><title>Node5&#45;&gt;Node4</title>
<path fill="none" stroke="midnightblue" d="M49,-222.191C49,-213.168 49,-202.994 49,-195.571"/>
<polygon fill="midnightblue" stroke="midnightblue" points="45.5001,-222.362 49,-232.362 52.5001,-222.362 45.5001,-222.362"/>
</g>
<!-- Node6 -->
<g id="node10" class="node"><title>Node6</title>
<a xlink:href="classCallBacker.html" target="_top" xlink:title="To be able to send and/or receive CallBacks, inherit from this class. ">
<polygon fill="white" stroke="black" points="16.5,-290.5 16.5,-311.5 81.5,-311.5 81.5,-290.5 16.5,-290.5"/>
<text text-anchor="middle" x="49" y="-298.5" font-family="Helvetica,sans-Serif" font-size="10.00">CallBacker</text>
</a>
</g>
<!-- Node6&#45;&gt;Node5 -->
<g id="edge10" class="edge"><title>Node6&#45;&gt;Node5</title>
<path fill="none" stroke="midnightblue" d="M49,-280.191C49,-271.168 49,-260.994 49,-253.571"/>
<polygon fill="midnightblue" stroke="midnightblue" points="45.5001,-280.362 49,-290.362 52.5001,-280.362 45.5001,-280.362"/>
</g>
</g>
</svg>
