<?xml version="1.0" encoding="UTF-8" standalone="no"?>
<!DOCTYPE svg PUBLIC "-//W3C//DTD SVG 1.1//EN"
 "http://www.w3.org/Graphics/SVG/1.1/DTD/svg11.dtd">
<!-- Generated by graphviz version 2.26.0 (20091210.2329)
 -->
<!-- Title: PreStackView::uiSyntheticViewer2DMainWin Pages: 1 -->
<svg width="216pt" height="334pt"
 viewBox="0.00 0.00 216.00 334.00" xmlns="http://www.w3.org/2000/svg" xmlns:xlink="http://www.w3.org/1999/xlink">
<g id="graph1" class="graph" transform="scale(1 1) rotate(0) translate(4 330)">
<title>PreStackView::uiSyntheticViewer2DMainWin</title>
<polygon fill="white" stroke="white" points="-4,5 -4,-330 213,-330 213,5 -4,5"/>
<!-- Node1 -->
<g id="node1" class="node"><title>Node1</title>
<polygon fill="#bfbfbf" stroke="black" points="44,-1 44,-35 178,-35 178,-1 44,-1"/>
<text text-anchor="start" x="52" y="-22" font-family="Helvetica,sans-Serif" font-size="10.00">PreStackView::uiSynthetic</text>
<text text-anchor="middle" x="111" y="-9" font-family="Helvetica,sans-Serif" font-size="10.00">Viewer2DMainWin</text>
</g>
<!-- Node2 -->
<g id="node2" class="node"><title>Node2</title>
<a xlink:href="classPreStackView_1_1uiViewer2DMainWin.html" target="_top" xlink:title="PreStackView::uiViewer2DMainWin">
<polygon fill="white" stroke="black" points="24.5,-72.5 24.5,-93.5 197.5,-93.5 197.5,-72.5 24.5,-72.5"/>
<text text-anchor="middle" x="111" y="-80.5" font-family="Helvetica,sans-Serif" font-size="10.00">PreStackView::uiViewer2DMainWin</text>
</a>
</g>
<!-- Node2&#45;&gt;Node1 -->
<g id="edge2" class="edge"><title>Node2&#45;&gt;Node1</title>
<path fill="none" stroke="midnightblue" d="M111,-62.1306C111,-53.4049 111,-43.3908 111,-35.1099"/>
<polygon fill="midnightblue" stroke="midnightblue" points="107.5,-62.2665 111,-72.2666 114.5,-62.2666 107.5,-62.2665"/>
</g>
<!-- Node3 -->
<g id="node4" class="node"><title>Node3</title>
<a xlink:href="classuiObjectItemViewWin.html" target="_top" xlink:title="A uiMainWin that holds embedded uiObjects and controls. ">
<polygon fill="white" stroke="black" points="-0.5,-130.5 -0.5,-151.5 110.5,-151.5 110.5,-130.5 -0.5,-130.5"/>
<text text-anchor="middle" x="55" y="-138.5" font-family="Helvetica,sans-Serif" font-size="10.00">uiObjectItemViewWin</text>
</a>
</g>
<!-- Node3&#45;&gt;Node2 -->
<g id="edge4" class="edge"><title>Node3&#45;&gt;Node2</title>
<path fill="none" stroke="midnightblue" d="M72.2654,-123.118C81.6118,-113.438 92.8388,-101.81 100.794,-93.5707"/>
<polygon fill="midnightblue" stroke="midnightblue" points="69.6993,-120.737 65.2713,-130.362 74.7352,-125.599 69.6993,-120.737"/>
</g>
<!-- Node4 -->
<g id="node6" class="node"><title>Node4</title>
<a xlink:href="classuiMainWin.html" target="_top" xlink:title="User interface main window. ">
<polygon fill="white" stroke="black" points="24,-188.5 24,-209.5 86,-209.5 86,-188.5 24,-188.5"/>
<text text-anchor="middle" x="55" y="-196.5" font-family="Helvetica,sans-Serif" font-size="10.00">uiMainWin</text>
</a>
</g>
<!-- Node4&#45;&gt;Node3 -->
<g id="edge6" class="edge"><title>Node4&#45;&gt;Node3</title>
<path fill="none" stroke="midnightblue" d="M55,-178.191C55,-169.168 55,-158.994 55,-151.571"/>
<polygon fill="midnightblue" stroke="midnightblue" points="51.5001,-178.362 55,-188.362 58.5001,-178.362 51.5001,-178.362"/>
</g>
<!-- Node5 -->
<g id="node8" class="node"><title>Node5</title>
<a xlink:href="classuiParent.html" target="_top" xlink:title="uiParent">
<polygon fill="white" stroke="black" points="28.5,-246.5 28.5,-267.5 81.5,-267.5 81.5,-246.5 28.5,-246.5"/>
<text text-anchor="middle" x="55" y="-254.5" font-family="Helvetica,sans-Serif" font-size="10.00">uiParent</text>
</a>
</g>
<!-- Node5&#45;&gt;Node4 -->
<g id="edge8" class="edge"><title>Node5&#45;&gt;Node4</title>
<path fill="none" stroke="midnightblue" d="M55,-236.191C55,-227.168 55,-216.994 55,-209.571"/>
<polygon fill="midnightblue" stroke="midnightblue" points="51.5001,-236.362 55,-246.362 58.5001,-236.362 51.5001,-236.362"/>
</g>
<!-- Node6 -->
<g id="node10" class="node"><title>Node6</title>
<polygon fill="white" stroke="#bfbfbf" points="17.5,-304.5 17.5,-325.5 92.5,-325.5 92.5,-304.5 17.5,-304.5"/>
<text text-anchor="middle" x="55" y="-312.5" font-family="Helvetica,sans-Serif" font-size="10.00">uiBaseObject</text>
</g>
<!-- Node6&#45;&gt;Node5 -->
<g id="edge10" class="edge"><title>Node6&#45;&gt;Node5</title>
<path fill="none" stroke="midnightblue" d="M55,-294.191C55,-285.168 55,-274.994 55,-267.571"/>
<polygon fill="midnightblue" stroke="midnightblue" points="51.5001,-294.362 55,-304.362 58.5001,-294.362 51.5001,-294.362"/>
</g>
<!-- Node7 -->
<g id="node12" class="node"><title>Node7</title>
<a xlink:href="classuiFlatViewWin.html" target="_top" xlink:title="Base class for windows containing one or more uiFlatViewer(s). ">
<polygon fill="white" stroke="black" points="128,-130.5 128,-151.5 208,-151.5 208,-130.5 128,-130.5"/>
<text text-anchor="middle" x="168" y="-138.5" font-family="Helvetica,sans-Serif" font-size="10.00">uiFlatViewWin</text>
</a>
</g>
<!-- Node7&#45;&gt;Node2 -->
<g id="edge12" class="edge"><title>Node7&#45;&gt;Node2</title>
<path fill="none" stroke="midnightblue" d="M150.426,-123.118C140.913,-113.438 129.486,-101.81 121.388,-93.5707"/>
<polygon fill="midnightblue" stroke="midnightblue" points="148.04,-125.683 157.545,-130.362 153.032,-120.776 148.04,-125.683"/>
</g>
</g>
</svg>
