<?xml version="1.0" encoding="UTF-8" standalone="no"?>
<!DOCTYPE svg PUBLIC "-//W3C//DTD SVG 1.1//EN"
 "http://www.w3.org/Graphics/SVG/1.1/DTD/svg11.dtd">
<!-- Generated by graphviz version 2.26.0 (20091210.2329)
 -->
<!-- Title: Array2D&lt; T &gt; Pages: 1 -->
<svg width="854pt" height="858pt"
 viewBox="0.00 0.00 854.00 857.76" xmlns="http://www.w3.org/2000/svg" xmlns:xlink="http://www.w3.org/1999/xlink">
<g id="graph1" class="graph" transform="scale(1 1) rotate(0) translate(4 853.759)">
<title>Array2D&lt; T &gt;</title>
<polygon fill="white" stroke="white" points="-4,5 -4,-853.759 851,-853.759 851,5 -4,5"/>
<!-- Node1 -->
<g id="node1" class="node"><title>Node1</title>
<polygon fill="#bfbfbf" stroke="black" points="118.5,-384.259 118.5,-405.259 195.5,-405.259 195.5,-384.259 118.5,-384.259"/>
<text text-anchor="middle" x="157" y="-392.259" font-family="Helvetica,sans-Serif" font-size="10.00">Array2D&lt; T &gt;</text>
</g>
<!-- Node3 -->
<g id="node5" class="node"><title>Node3</title>
<a xlink:href="classArray2DConv.html" target="_top" xlink:title="Array2DConv\&lt; T \&gt;">
<polygon fill="white" stroke="black" points="331,-828.259 331,-849.259 431,-849.259 431,-828.259 331,-828.259"/>
<text text-anchor="middle" x="381" y="-836.259" font-family="Helvetica,sans-Serif" font-size="10.00">Array2DConv&lt; T &gt;</text>
</a>
</g>
<!-- Node1&#45;&gt;Node3 -->
<g id="edge4" class="edge"><title>Node1&#45;&gt;Node3</title>
<path fill="none" stroke="midnightblue" d="M158.405,-415.917C163.988,-497.033 185.68,-785.057 214,-813.759 243.856,-844.018 293.467,-848.019 330.876,-845.801"/>
<polygon fill="midnightblue" stroke="midnightblue" points="161.868,-415.247 157.7,-405.506 154.884,-415.72 161.868,-415.247"/>
</g>
<!-- Node4 -->
<g id="node7" class="node"><title>Node4</title>
<a xlink:href="classArray2DImpl.html" target="_top" xlink:title="Implementation of Array2D. ">
<polygon fill="white" stroke="black" points="333.5,-602.259 333.5,-623.259 428.5,-623.259 428.5,-602.259 333.5,-602.259"/>
<text text-anchor="middle" x="381" y="-610.259" font-family="Helvetica,sans-Serif" font-size="10.00">Array2DImpl&lt; T &gt;</text>
</a>
</g>
<!-- Node1&#45;&gt;Node4 -->
<g id="edge6" class="edge"><title>Node1&#45;&gt;Node4</title>
<path fill="none" stroke="midnightblue" d="M160.053,-415.272C167.276,-460.895 186.869,-568.574 214,-591.759 246.545,-619.57 296.532,-622.428 333.34,-619.784"/>
<polygon fill="midnightblue" stroke="midnightblue" points="163.503,-414.685 158.521,-405.335 156.585,-415.751 163.503,-414.685"/>
</g>
<!-- Node5 -->
<g id="node9" class="node"><title>Node5</title>
<a xlink:href="classArray2DImpl.html" target="_top" xlink:title="Array2DImpl\&lt; fT \&gt;">
<polygon fill="white" stroke="black" points="630,-759.259 630,-780.259 728,-780.259 728,-759.259 630,-759.259"/>
<text text-anchor="middle" x="679" y="-767.259" font-family="Helvetica,sans-Serif" font-size="10.00">Array2DImpl&lt; fT &gt;</text>
</a>
</g>
<!-- Node1&#45;&gt;Node5 -->
<g id="edge30" class="edge"><title>Node1&#45;&gt;Node5</title>
<path fill="none" stroke="midnightblue" d="M158.669,-415.617C163.957,-477.663 181.913,-659.787 214,-708.759 305.142,-847.862 546.852,-803.828 640.85,-780.342"/>
<polygon fill="midnightblue" stroke="midnightblue" points="162.144,-415.165 157.828,-405.489 155.168,-415.744 162.144,-415.165"/>
</g>
<!-- Node6 -->
<g id="node11" class="node"><title>Node6</title>
<a xlink:href="classArray2DImpl.html" target="_top" xlink:title="Array2DImpl\&lt; double \&gt;">
<polygon fill="white" stroke="black" points="620,-624.259 620,-645.259 738,-645.259 738,-624.259 620,-624.259"/>
<text text-anchor="middle" x="679" y="-632.259" font-family="Helvetica,sans-Serif" font-size="10.00">Array2DImpl&lt; double &gt;</text>
</a>
</g>
<!-- Node1&#45;&gt;Node6 -->
<g id="edge28" class="edge"><title>Node1&#45;&gt;Node6</title>
<path fill="none" stroke="midnightblue" d="M159.545,-415.221C166.144,-465.103 185.319,-591.059 214,-620.759 274.643,-683.556 517.154,-721.281 600,-693.759 628.591,-684.261 655.209,-659.936 669.054,-645.66"/>
<polygon fill="midnightblue" stroke="midnightblue" points="163.013,-414.754 158.264,-405.283 156.071,-415.649 163.013,-414.754"/>
</g>
<!-- Node10 -->
<g id="node19" class="node"><title>Node10</title>
<a xlink:href="classArray2DImpl.html" target="_top" xlink:title="Array2DImpl\&lt; const\l Attrib::DataHolder * \&gt;">
<polygon fill="white" stroke="black" points="622,-517.759 622,-551.759 736,-551.759 736,-517.759 622,-517.759"/>
<text text-anchor="start" x="630" y="-538.759" font-family="Helvetica,sans-Serif" font-size="10.00">Array2DImpl&lt; const</text>
<text text-anchor="middle" x="679" y="-525.759" font-family="Helvetica,sans-Serif" font-size="10.00"> Attrib::DataHolder * &gt;</text>
</a>
</g>
<!-- Node1&#45;&gt;Node10 -->
<g id="edge26" class="edge"><title>Node1&#45;&gt;Node10</title>
<path fill="none" stroke="midnightblue" d="M165.902,-414.574C175.339,-433.508 191.932,-461.629 214,-478.759 251.314,-507.724 267.467,-506.638 314,-514.759 372.669,-524.998 397.339,-546.069 448,-514.759 463.217,-505.354 450.783,-488.164 466,-478.759 516.661,-447.449 547.727,-450.221 600,-478.759 612.985,-485.848 606.828,-497.061 618,-506.759 622.752,-510.884 628.213,-514.515 633.873,-517.676"/>
<polygon fill="midnightblue" stroke="midnightblue" points="168.978,-412.894 161.517,-405.372 162.659,-415.905 168.978,-412.894"/>
</g>
<!-- Node11 -->
<g id="node21" class="node"><title>Node11</title>
<a xlink:href="classArray2DImpl.html" target="_top" xlink:title="Array2DImpl\&lt; visBase\l::HorizonSectionTile * \&gt;">
<polygon fill="white" stroke="black" points="618.5,-697.759 618.5,-731.759 739.5,-731.759 739.5,-697.759 618.5,-697.759"/>
<text text-anchor="start" x="626.5" y="-718.759" font-family="Helvetica,sans-Serif" font-size="10.00">Array2DImpl&lt; visBase</text>
<text text-anchor="middle" x="679" y="-705.759" font-family="Helvetica,sans-Serif" font-size="10.00">::HorizonSectionTile * &gt;</text>
</a>
</g>
<!-- Node1&#45;&gt;Node11 -->
<g id="edge32" class="edge"><title>Node1&#45;&gt;Node11</title>
<path fill="none" stroke="midnightblue" d="M158.994,-415.348C164.721,-470.619 182.835,-620.576 214,-657.759 327.625,-793.329 427.946,-795.835 600,-754.759 618.691,-750.297 637.964,-740.655 652.795,-731.957"/>
<polygon fill="midnightblue" stroke="midnightblue" points="162.471,-414.94 157.986,-405.341 155.506,-415.641 162.471,-414.94"/>
</g>
<!-- Node12 -->
<g id="node23" class="node"><title>Node12</title>
<a xlink:href="classArray2DImpl.html" target="_top" xlink:title="Array2DImpl\&lt; Attrib\l::DataHolder * \&gt;">
<polygon fill="white" stroke="black" points="627,-463.759 627,-497.759 731,-497.759 731,-463.759 627,-463.759"/>
<text text-anchor="start" x="635" y="-484.759" font-family="Helvetica,sans-Serif" font-size="10.00">Array2DImpl&lt; Attrib</text>
<text text-anchor="middle" x="679" y="-471.759" font-family="Helvetica,sans-Serif" font-size="10.00">::DataHolder * &gt;</text>
</a>
</g>
<!-- Node1&#45;&gt;Node12 -->
<g id="edge24" class="edge"><title>Node1&#45;&gt;Node12</title>
<path fill="none" stroke="midnightblue" d="M205.336,-381.813C292.937,-361.4 479.959,-332.176 600,-416.759 613.977,-426.607 605.731,-438.851 618,-450.759 623.081,-455.691 629.131,-459.959 635.417,-463.603"/>
<polygon fill="midnightblue" stroke="midnightblue" points="204.319,-378.457 195.408,-384.188 205.948,-385.265 204.319,-378.457"/>
</g>
<!-- Node13 -->
<g id="node30" class="node"><title>Node13</title>
<a xlink:href="classArray2DSlice.html" target="_top" xlink:title="Subclass of Array2D and ArrayNDSliceBase. ">
<polygon fill="white" stroke="black" points="332,-484.259 332,-505.259 430,-505.259 430,-484.259 332,-484.259"/>
<text text-anchor="middle" x="381" y="-492.259" font-family="Helvetica,sans-Serif" font-size="10.00">Array2DSlice&lt; T &gt;</text>
</a>
</g>
<!-- Node1&#45;&gt;Node13 -->
<g id="edge34" class="edge"><title>Node1&#45;&gt;Node13</title>
<path fill="none" stroke="midnightblue" d="M172.071,-413.098C182.664,-424.872 197.793,-439.617 214,-448.759 250.67,-469.444 297.178,-481.262 331.796,-487.725"/>
<polygon fill="midnightblue" stroke="midnightblue" points="174.701,-410.788 165.505,-405.526 169.412,-415.374 174.701,-410.788"/>
</g>
<!-- Node14 -->
<g id="node32" class="node"><title>Node14</title>
<a xlink:href="classArray2DSubSelection.html" target="_top" xlink:title="Makes a subselection of an Array2D cube. ">
<polygon fill="white" stroke="black" points="314,-444.259 314,-465.259 448,-465.259 448,-444.259 314,-444.259"/>
<text text-anchor="middle" x="381" y="-452.259" font-family="Helvetica,sans-Serif" font-size="10.00">Array2DSubSelection&lt; T &gt;</text>
</a>
</g>
<!-- Node1&#45;&gt;Node14 -->
<g id="edge36" class="edge"><title>Node1&#45;&gt;Node14</title>
<path fill="none" stroke="midnightblue" d="M182.779,-410.475C192.304,-415.697 203.372,-421.105 214,-424.759 246.036,-435.772 282.989,-442.944 313.978,-447.504"/>
<polygon fill="midnightblue" stroke="midnightblue" points="184.264,-407.293 173.842,-405.386 180.801,-413.376 184.264,-407.293"/>
</g>
<!-- Node15 -->
<g id="node34" class="node"><title>Node15</title>
<a xlink:href="classArray2D.html" target="_top" xlink:title="Array2D\&lt; TT \&gt;">
<polygon fill="white" stroke="black" points="339.5,-404.259 339.5,-425.259 422.5,-425.259 422.5,-404.259 339.5,-404.259"/>
<text text-anchor="middle" x="381" y="-412.259" font-family="Helvetica,sans-Serif" font-size="10.00">Array2D&lt; TT &gt;</text>
</a>
</g>
<!-- Node1&#45;&gt;Node15 -->
<g id="edge38" class="edge"><title>Node1&#45;&gt;Node15</title>
<path fill="none" stroke="orange" stroke-dasharray="5,2" d="M205.532,-399.092C245.401,-402.652 301.286,-407.642 339.196,-411.027"/>
<polygon fill="orange" stroke="orange" points="205.779,-395.6 195.507,-398.197 205.156,-402.573 205.779,-395.6"/>
<text text-anchor="middle" x="255" y="-411.759" font-family="Helvetica,sans-Serif" font-size="10.00"> &lt; TT &gt;</text>
</g>
<!-- Node16 -->
<g id="node36" class="node"><title>Node16</title>
<a xlink:href="classArray2D.html" target="_top" xlink:title="Array2D\&lt; float \&gt;">
<polygon fill="white" stroke="black" points="336.5,-246.259 336.5,-267.259 425.5,-267.259 425.5,-246.259 336.5,-246.259"/>
<text text-anchor="middle" x="381" y="-254.259" font-family="Helvetica,sans-Serif" font-size="10.00">Array2D&lt; float &gt;</text>
</a>
</g>
<!-- Node1&#45;&gt;Node16 -->
<g id="edge40" class="edge"><title>Node1&#45;&gt;Node16</title>
<path fill="none" stroke="orange" stroke-dasharray="5,2" d="M160.77,-374.304C166.886,-347.411 181.704,-300.877 214,-277.759 249.404,-252.416 300.168,-249.46 336.419,-251.416"/>
<polygon fill="orange" stroke="orange" points="157.323,-373.685 158.714,-384.189 164.177,-375.11 157.323,-373.685"/>
<text text-anchor="middle" x="255" y="-281.759" font-family="Helvetica,sans-Serif" font-size="10.00"> &lt; float &gt;</text>
</g>
<!-- Node19 -->
<g id="node43" class="node"><title>Node19</title>
<a xlink:href="classArray2D.html" target="_top" xlink:title="Array2D\&lt; int \&gt;">
<polygon fill="white" stroke="black" points="340.5,-326.259 340.5,-347.259 421.5,-347.259 421.5,-326.259 340.5,-326.259"/>
<text text-anchor="middle" x="381" y="-334.259" font-family="Helvetica,sans-Serif" font-size="10.00">Array2D&lt; int &gt;</text>
</a>
</g>
<!-- Node1&#45;&gt;Node19 -->
<g id="edge48" class="edge"><title>Node1&#45;&gt;Node19</title>
<path fill="none" stroke="orange" stroke-dasharray="5,2" d="M173.488,-376.863C184.008,-366.712 198.538,-354.852 214,-348.759 254.836,-332.667 305.6,-331.384 340.373,-333.038"/>
<polygon fill="orange" stroke="orange" points="170.811,-374.593 166.276,-384.169 175.792,-379.511 170.811,-374.593"/>
<text text-anchor="middle" x="255" y="-352.759" font-family="Helvetica,sans-Serif" font-size="10.00"> &lt; int &gt;</text>
</g>
<!-- Node20 -->
<g id="node45" class="node"><title>Node20</title>
<a xlink:href="classArray2D.html" target="_top" xlink:title="Array2D\&lt; unsigned int \&gt;">
<polygon fill="white" stroke="black" points="319.5,-286.259 319.5,-307.259 442.5,-307.259 442.5,-286.259 319.5,-286.259"/>
<text text-anchor="middle" x="381" y="-294.259" font-family="Helvetica,sans-Serif" font-size="10.00">Array2D&lt; unsigned int &gt;</text>
</a>
</g>
<!-- Node1&#45;&gt;Node20 -->
<g id="edge50" class="edge"><title>Node1&#45;&gt;Node20</title>
<path fill="none" stroke="orange" stroke-dasharray="5,2" d="M165.795,-374.731C174.997,-356.361 191.282,-330.053 214,-316.759 245.503,-298.324 286.057,-293.124 319.313,-292.629"/>
<polygon fill="orange" stroke="orange" points="162.529,-373.451 161.415,-383.987 168.856,-376.444 162.529,-373.451"/>
<text text-anchor="middle" x="255" y="-320.759" font-family="Helvetica,sans-Serif" font-size="10.00"> &lt; unsigned int &gt;</text>
</g>
<!-- Node21 -->
<g id="node47" class="node"><title>Node21</title>
<a xlink:href="classArray2D.html" target="_top" xlink:title="Array2D\&lt; float_complex \&gt;">
<polygon fill="white" stroke="black" points="315.5,-562.259 315.5,-583.259 446.5,-583.259 446.5,-562.259 315.5,-562.259"/>
<text text-anchor="middle" x="381" y="-570.259" font-family="Helvetica,sans-Serif" font-size="10.00">Array2D&lt; float_complex &gt;</text>
</a>
</g>
<!-- Node1&#45;&gt;Node21 -->
<g id="edge52" class="edge"><title>Node1&#45;&gt;Node21</title>
<path fill="none" stroke="orange" stroke-dasharray="5,2" d="M158.271,-415.385C161.518,-448.847 173.055,-514.554 214,-547.759 242.007,-570.471 281.653,-577.13 315.288,-577.918"/>
<polygon fill="orange" stroke="orange" points="161.755,-415.051 157.456,-405.367 154.778,-415.618 161.755,-415.051"/>
<text text-anchor="middle" x="255" y="-580.759" font-family="Helvetica,sans-Serif" font-size="10.00"> &lt; float_complex &gt;</text>
</g>
<!-- Node22 -->
<g id="node50" class="node"><title>Node22</title>
<a xlink:href="classArray2D.html" target="_top" xlink:title="Array2D\&lt; SeisTrc * \&gt;">
<polygon fill="white" stroke="black" points="325.5,-206.259 325.5,-227.259 436.5,-227.259 436.5,-206.259 325.5,-206.259"/>
<text text-anchor="middle" x="381" y="-214.259" font-family="Helvetica,sans-Serif" font-size="10.00">Array2D&lt; SeisTrc * &gt;</text>
</a>
</g>
<!-- Node1&#45;&gt;Node22 -->
<g id="edge56" class="edge"><title>Node1&#45;&gt;Node22</title>
<path fill="none" stroke="orange" stroke-dasharray="5,2" d="M161.575,-374.025C170.605,-335.089 191.776,-253.364 214,-235.759 244.993,-211.208 289.963,-207.324 325.431,-209.106"/>
<polygon fill="orange" stroke="orange" points="158.113,-373.466 159.313,-383.993 164.94,-375.016 158.113,-373.466"/>
<text text-anchor="middle" x="255" y="-239.759" font-family="Helvetica,sans-Serif" font-size="10.00"> &lt; SeisTrc * &gt;</text>
</g>
<!-- Node23 -->
<g id="node52" class="node"><title>Node23</title>
<a xlink:href="classArray2D.html" target="_top" xlink:title="Array2D\&lt; Coord3 \&gt;">
<polygon fill="white" stroke="black" points="330,-166.259 330,-187.259 432,-187.259 432,-166.259 330,-166.259"/>
<text text-anchor="middle" x="381" y="-174.259" font-family="Helvetica,sans-Serif" font-size="10.00">Array2D&lt; Coord3 &gt;</text>
</a>
</g>
<!-- Node1&#45;&gt;Node23 -->
<g id="edge58" class="edge"><title>Node1&#45;&gt;Node23</title>
<path fill="none" stroke="orange" stroke-dasharray="5,2" d="M159.877,-373.997C166.795,-327.296 185.898,-216.221 214,-192.759 245.637,-166.346 293.321,-164.244 329.648,-167.647"/>
<polygon fill="orange" stroke="orange" points="156.376,-373.754 158.416,-384.15 163.304,-374.751 156.376,-373.754"/>
<text text-anchor="middle" x="255" y="-196.759" font-family="Helvetica,sans-Serif" font-size="10.00"> &lt; Coord3 &gt;</text>
</g>
<!-- Node24 -->
<g id="node54" class="node"><title>Node24</title>
<a xlink:href="classArray2D.html" target="_top" xlink:title="Array2D\&lt; unsigned char \&gt;">
<polygon fill="white" stroke="black" points="315.5,-126.259 315.5,-147.259 446.5,-147.259 446.5,-126.259 315.5,-126.259"/>
<text text-anchor="middle" x="381" y="-134.259" font-family="Helvetica,sans-Serif" font-size="10.00">Array2D&lt; unsigned char &gt;</text>
</a>
</g>
<!-- Node1&#45;&gt;Node24 -->
<g id="edge60" class="edge"><title>Node1&#45;&gt;Node24</title>
<path fill="none" stroke="orange" stroke-dasharray="5,2" d="M158.746,-373.981C163.715,-320.298 179.833,-179.123 214,-149.759 245.428,-122.749 293.613,-121.78 330.161,-126.231"/>
<polygon fill="orange" stroke="orange" points="155.252,-373.766 157.853,-384.036 162.224,-374.385 155.252,-373.766"/>
<text text-anchor="middle" x="255" y="-153.759" font-family="Helvetica,sans-Serif" font-size="10.00"> &lt; unsigned char &gt;</text>
</g>
<!-- Node25 -->
<g id="node56" class="node"><title>Node25</title>
<a xlink:href="classArray2D.html" target="_top" xlink:title="Array2D\&lt; od_int64 \&gt;">
<polygon fill="white" stroke="black" points="327.5,-86.2591 327.5,-107.259 434.5,-107.259 434.5,-86.2591 327.5,-86.2591"/>
<text text-anchor="middle" x="381" y="-94.2591" font-family="Helvetica,sans-Serif" font-size="10.00">Array2D&lt; od_int64 &gt;</text>
</a>
</g>
<!-- Node1&#45;&gt;Node25 -->
<g id="edge62" class="edge"><title>Node1&#45;&gt;Node25</title>
<path fill="none" stroke="orange" stroke-dasharray="5,2" d="M157.956,-374.072C161.183,-314.24 173.825,-143.014 214,-107.759 247.087,-78.7247 299.5,-80.2027 336.776,-86.2474"/>
<polygon fill="orange" stroke="orange" points="154.454,-374.022 157.445,-384.186 161.445,-374.376 154.454,-374.022"/>
<text text-anchor="middle" x="255" y="-111.759" font-family="Helvetica,sans-Serif" font-size="10.00"> &lt; od_int64 &gt;</text>
</g>
<!-- Node26 -->
<g id="node58" class="node"><title>Node26</title>
<a xlink:href="classArray2D.html" target="_top" xlink:title="Array2D\&lt; char \&gt;">
<polygon fill="white" stroke="black" points="336.5,-46.2591 336.5,-67.2591 425.5,-67.2591 425.5,-46.2591 336.5,-46.2591"/>
<text text-anchor="middle" x="381" y="-54.2591" font-family="Helvetica,sans-Serif" font-size="10.00">Array2D&lt; char &gt;</text>
</a>
</g>
<!-- Node1&#45;&gt;Node26 -->
<g id="edge64" class="edge"><title>Node1&#45;&gt;Node26</title>
<path fill="none" stroke="orange" stroke-dasharray="5,2" d="M157.374,-373.687C159.021,-307.67 167.81,-106.809 214,-65.7591 248.182,-35.3809 303.516,-38.9755 341.037,-46.239"/>
<polygon fill="orange" stroke="orange" points="153.867,-373.982 157.148,-384.056 160.865,-374.135 153.867,-373.982"/>
<text text-anchor="middle" x="255" y="-69.7591" font-family="Helvetica,sans-Serif" font-size="10.00"> &lt; char &gt;</text>
</g>
<!-- Node27 -->
<g id="node60" class="node"><title>Node27</title>
<a xlink:href="classArray2D.html" target="_top" xlink:title="Array2D\&lt; bool \&gt;">
<polygon fill="white" stroke="black" points="336.5,-6.25906 336.5,-27.2591 425.5,-27.2591 425.5,-6.25906 336.5,-6.25906"/>
<text text-anchor="middle" x="381" y="-14.2591" font-family="Helvetica,sans-Serif" font-size="10.00">Array2D&lt; bool &gt;</text>
</a>
</g>
<!-- Node1&#45;&gt;Node27 -->
<g id="edge66" class="edge"><title>Node1&#45;&gt;Node27</title>
<path fill="none" stroke="orange" stroke-dasharray="5,2" d="M158.67,-374.103C164.888,-299.684 187.695,-48.4375 214,-24.7591 248.625,6.40929 305.476,1.64001 343.074,-6.25582"/>
<polygon fill="orange" stroke="orange" points="155.179,-373.857 157.846,-384.111 162.155,-374.432 155.179,-373.857"/>
<text text-anchor="middle" x="255" y="-28.7591" font-family="Helvetica,sans-Serif" font-size="10.00"> &lt; bool &gt;</text>
</g>
<!-- Node2 -->
<g id="node2" class="node"><title>Node2</title>
<a xlink:href="classArrayND.html" target="_top" xlink:title="An ArrayND is an array with a given number of dimensions and a size. ">
<polygon fill="white" stroke="black" points="0.5,-384.259 0.5,-405.259 79.5,-405.259 79.5,-384.259 0.5,-384.259"/>
<text text-anchor="middle" x="40" y="-392.259" font-family="Helvetica,sans-Serif" font-size="10.00">ArrayND&lt; T &gt;</text>
</a>
</g>
<!-- Node2&#45;&gt;Node1 -->
<g id="edge2" class="edge"><title>Node2&#45;&gt;Node1</title>
<path fill="none" stroke="midnightblue" d="M89.7647,-394.759C99.2815,-394.759 109.114,-394.759 118.224,-394.759"/>
<polygon fill="midnightblue" stroke="midnightblue" points="89.6109,-391.259 79.6109,-394.759 89.6108,-398.259 89.6109,-391.259"/>
</g>
<!-- Node4&#45;&gt;Node5 -->
<g id="edge8" class="edge"><title>Node4&#45;&gt;Node5</title>
<path fill="none" stroke="orange" stroke-dasharray="5,2" d="M391.317,-632.379C405.059,-656.529 431.679,-697.004 466,-718.759 516.101,-750.517 584.236,-762.508 629.822,-767.03"/>
<polygon fill="orange" stroke="orange" points="394.273,-630.491 386.384,-623.419 388.141,-633.867 394.273,-630.491"/>
<text text-anchor="middle" x="533" y="-766.759" font-family="Helvetica,sans-Serif" font-size="10.00"> &lt; fT &gt;</text>
</g>
<!-- Node4&#45;&gt;Node6 -->
<g id="edge10" class="edge"><title>Node4&#45;&gt;Node6</title>
<path fill="none" stroke="orange" stroke-dasharray="5,2" d="M438.637,-617.014C490.773,-620.863 567.214,-626.506 619.821,-630.39"/>
<polygon fill="orange" stroke="orange" points="438.779,-613.515 428.548,-616.269 438.264,-620.496 438.779,-613.515"/>
<text text-anchor="middle" x="533" y="-633.759" font-family="Helvetica,sans-Serif" font-size="10.00"> &lt; double &gt;</text>
</g>
<!-- Node7 -->
<g id="node13" class="node"><title>Node7</title>
<a xlink:href="classArray2DImpl.html" target="_top" xlink:title="Array2DImpl\&lt; float \&gt;">
<polygon fill="white" stroke="black" points="625,-420.259 625,-441.259 733,-441.259 733,-420.259 625,-420.259"/>
<text text-anchor="middle" x="679" y="-428.259" font-family="Helvetica,sans-Serif" font-size="10.00">Array2DImpl&lt; float &gt;</text>
</a>
</g>
<!-- Node4&#45;&gt;Node7 -->
<g id="edge12" class="edge"><title>Node4&#45;&gt;Node7</title>
<path fill="none" stroke="orange" stroke-dasharray="5,2" d="M437.613,-601.493C441.494,-599.103 445.033,-596.224 448,-592.759 486.51,-547.784 424.225,-502.719 466,-460.759 506.84,-419.739 576.309,-417.394 624.768,-421.929"/>
<polygon fill="orange" stroke="orange" points="436.034,-598.369 428.665,-605.981 439.173,-604.626 436.034,-598.369"/>
<text text-anchor="middle" x="533" y="-464.759" font-family="Helvetica,sans-Serif" font-size="10.00"> &lt; float &gt;</text>
</g>
<!-- Node9 -->
<g id="node17" class="node"><title>Node9</title>
<a xlink:href="classArray2DImpl.html" target="_top" xlink:title="Array2DImpl\&lt; float\l_complex \&gt;">
<polygon fill="white" stroke="black" points="629.5,-570.759 629.5,-604.759 728.5,-604.759 728.5,-570.759 629.5,-570.759"/>
<text text-anchor="start" x="637.5" y="-591.759" font-family="Helvetica,sans-Serif" font-size="10.00">Array2DImpl&lt; float</text>
<text text-anchor="middle" x="679" y="-578.759" font-family="Helvetica,sans-Serif" font-size="10.00">_complex &gt;</text>
</a>
</g>
<!-- Node4&#45;&gt;Node9 -->
<g id="edge16" class="edge"><title>Node4&#45;&gt;Node9</title>
<path fill="none" stroke="orange" stroke-dasharray="5,2" d="M438.765,-605.595C447.871,-604.572 457.186,-603.587 466,-602.759 521.916,-597.504 586.248,-593.215 629.451,-590.59"/>
<polygon fill="orange" stroke="orange" points="438.147,-602.143 428.612,-606.76 438.945,-609.097 438.147,-602.143"/>
<text text-anchor="middle" x="533" y="-606.759" font-family="Helvetica,sans-Serif" font-size="10.00"> &lt; float_complex &gt;</text>
</g>
<!-- Node4&#45;&gt;Node10 -->
<g id="edge18" class="edge"><title>Node4&#45;&gt;Node10</title>
<path fill="none" stroke="orange" stroke-dasharray="5,2" d="M436.401,-598.508C440.422,-596.786 444.333,-594.875 448,-592.759 457.53,-587.258 456.207,-580.777 466,-575.759 514.932,-550.688 577.33,-540.878 621.92,-537.076"/>
<polygon fill="orange" stroke="orange" points="434.946,-595.318 426.884,-602.192 437.473,-601.847 434.946,-595.318"/>
<text text-anchor="middle" x="533" y="-579.759" font-family="Helvetica,sans-Serif" font-size="10.00"> &lt; const Attrib::DataHolder * &gt;</text>
</g>
<!-- Node4&#45;&gt;Node11 -->
<g id="edge20" class="edge"><title>Node4&#45;&gt;Node11</title>
<path fill="none" stroke="orange" stroke-dasharray="5,2" d="M417.5,-626.889C432.477,-632.585 450.019,-639.128 466,-644.759 519.784,-663.711 581.765,-683.896 624.948,-697.696"/>
<polygon fill="orange" stroke="orange" points="418.662,-623.586 408.072,-623.286 416.163,-630.125 418.662,-623.586"/>
<text text-anchor="start" x="472.5" y="-705.759" font-family="Helvetica,sans-Serif" font-size="10.00"> &lt; visBase::HorizonSection</text>
<text text-anchor="middle" x="533" y="-692.759" font-family="Helvetica,sans-Serif" font-size="10.00">Tile * &gt;</text>
</g>
<!-- Node4&#45;&gt;Node12 -->
<g id="edge22" class="edge"><title>Node4&#45;&gt;Node12</title>
<path fill="none" stroke="orange" stroke-dasharray="5,2" d="M437.861,-600.705C441.576,-598.483 445.017,-595.859 448,-592.759 470.274,-569.613 442.647,-544.817 466,-522.759 508.882,-482.255 578.937,-475.577 626.915,-476.505"/>
<polygon fill="orange" stroke="orange" points="436.196,-597.624 428.782,-605.193 439.298,-603.9 436.196,-597.624"/>
<text text-anchor="middle" x="533" y="-526.759" font-family="Helvetica,sans-Serif" font-size="10.00"> &lt; Attrib::DataHolder * &gt;</text>
</g>
<!-- Node8 -->
<g id="node15" class="node"><title>Node8</title>
<a xlink:href="classAttrib_1_1Slice.html" target="_top" xlink:title="Slice containing attribute values. ">
<polygon fill="white" stroke="black" points="778,-420.259 778,-441.259 846,-441.259 846,-420.259 778,-420.259"/>
<text text-anchor="middle" x="812" y="-428.259" font-family="Helvetica,sans-Serif" font-size="10.00">Attrib::Slice</text>
</a>
</g>
<!-- Node7&#45;&gt;Node8 -->
<g id="edge14" class="edge"><title>Node7&#45;&gt;Node8</title>
<path fill="none" stroke="midnightblue" d="M743.1,-430.759C755.079,-430.759 767.163,-430.759 777.792,-430.759"/>
<polygon fill="midnightblue" stroke="midnightblue" points="743.096,-427.259 733.096,-430.759 743.096,-434.259 743.096,-427.259"/>
</g>
<!-- Node16&#45;&gt;Node7 -->
<g id="edge42" class="edge"><title>Node16&#45;&gt;Node7</title>
<path fill="none" stroke="midnightblue" d="M431.171,-270.414C436.912,-272.365 442.628,-274.488 448,-276.759 519.291,-306.899 536.732,-317.171 600,-361.759 626.198,-380.222 653.713,-405.912 668.352,-420.165"/>
<polygon fill="midnightblue" stroke="midnightblue" points="432.134,-267.047 421.542,-267.298 429.979,-273.707 432.134,-267.047"/>
</g>
<!-- Node17 -->
<g id="node39" class="node"><title>Node17</title>
<a xlink:href="classBIDValSetArrAdapter.html" target="_top" xlink:title="an adapter between Array2D and a BinIDValueSet ">
<polygon fill="white" stroke="black" points="624,-266.259 624,-287.259 734,-287.259 734,-266.259 624,-266.259"/>
<text text-anchor="middle" x="679" y="-274.259" font-family="Helvetica,sans-Serif" font-size="10.00">BIDValSetArrAdapter</text>
</a>
</g>
<!-- Node16&#45;&gt;Node17 -->
<g id="edge44" class="edge"><title>Node16&#45;&gt;Node17</title>
<path fill="none" stroke="midnightblue" d="M435.602,-260.424C489.118,-264.015 570.257,-269.461 623.932,-273.063"/>
<polygon fill="midnightblue" stroke="midnightblue" points="435.826,-256.931 425.614,-259.753 435.357,-263.915 435.826,-256.931"/>
</g>
<!-- Node18 -->
<g id="node41" class="node"><title>Node18</title>
<a xlink:href="classSeisTrcBufArray2D.html" target="_top" xlink:title="Array2D based on SeisTrcBuf. ">
<polygon fill="white" stroke="black" points="628.5,-226.259 628.5,-247.259 729.5,-247.259 729.5,-226.259 628.5,-226.259"/>
<text text-anchor="middle" x="679" y="-234.259" font-family="Helvetica,sans-Serif" font-size="10.00">SeisTrcBufArray2D</text>
</a>
</g>
<!-- Node16&#45;&gt;Node18 -->
<g id="edge46" class="edge"><title>Node16&#45;&gt;Node18</title>
<path fill="none" stroke="midnightblue" d="M435.872,-253.076C490.879,-249.385 574.869,-243.748 628.337,-240.159"/>
<polygon fill="midnightblue" stroke="midnightblue" points="435.357,-249.603 425.614,-253.765 435.826,-256.587 435.357,-249.603"/>
</g>
<!-- Node21&#45;&gt;Node9 -->
<g id="edge54" class="edge"><title>Node21&#45;&gt;Node9</title>
<path fill="none" stroke="midnightblue" d="M419.89,-558.706C429.145,-555.236 438.957,-551.452 448,-547.759 456.105,-544.449 457.436,-541.576 466,-539.759 524.258,-527.396 545.893,-514.873 600,-539.759 611.168,-544.896 608.136,-553.423 618,-560.759 622.925,-564.422 628.426,-567.725 634.052,-570.661"/>
<polygon fill="midnightblue" stroke="midnightblue" points="418.659,-555.43 410.503,-562.192 421.096,-561.992 418.659,-555.43"/>
</g>
</g>
</svg>
