<?xml version="1.0" encoding="UTF-8" standalone="no"?>
<!DOCTYPE svg PUBLIC "-//W3C//DTD SVG 1.1//EN"
 "http://www.w3.org/Graphics/SVG/1.1/DTD/svg11.dtd">
<!-- Generated by graphviz version 2.26.0 (20091210.2329)
 -->
<!-- Title: SecondOrderPoly Pages: 1 -->
<svg width="124pt" height="160pt"
 viewBox="0.00 0.00 124.00 160.00" xmlns="http://www.w3.org/2000/svg" xmlns:xlink="http://www.w3.org/1999/xlink">
<g id="graph1" class="graph" transform="scale(1 1) rotate(0) translate(4 156)">
<title>SecondOrderPoly</title>
<polygon fill="white" stroke="white" points="-4,5 -4,-156 121,-156 121,5 -4,5"/>
<!-- Node1 -->
<g id="node1" class="node"><title>Node1</title>
<polygon fill="#bfbfbf" stroke="black" points="11.5,-0.5 11.5,-21.5 104.5,-21.5 104.5,-0.5 11.5,-0.5"/>
<text text-anchor="middle" x="58" y="-8.5" font-family="Helvetica,sans-Serif" font-size="10.00">SecondOrderPoly</text>
</g>
<!-- Node2 -->
<g id="node2" class="node"><title>Node2</title>
<a xlink:href="classMathFunction.html" target="_top" xlink:title="Mathematical function. ">
<polygon fill="white" stroke="black" points="9,-58.5 9,-79.5 107,-79.5 107,-58.5 9,-58.5"/>
<text text-anchor="middle" x="58" y="-66.5" font-family="Helvetica,sans-Serif" font-size="10.00">FloatMathFunction</text>
</a>
</g>
<!-- Node2&#45;&gt;Node1 -->
<g id="edge2" class="edge"><title>Node2&#45;&gt;Node1</title>
<path fill="none" stroke="midnightblue" d="M58,-48.1906C58,-39.1684 58,-28.9941 58,-21.5707"/>
<polygon fill="midnightblue" stroke="midnightblue" points="54.5001,-48.3619 58,-58.3619 61.5001,-48.3619 54.5001,-48.3619"/>
</g>
<!-- Node3 -->
<g id="node4" class="node"><title>Node3</title>
<a xlink:href="classMathFunctionND.html" target="_top" xlink:title="Multidimensional Mathematical function. ">
<polygon fill="white" stroke="black" points="0,-117 0,-151 116,-151 116,-117 0,-117"/>
<text text-anchor="start" x="8" y="-138" font-family="Helvetica,sans-Serif" font-size="10.00">MathFunctionND&lt; RT,</text>
<text text-anchor="middle" x="58" y="-125" font-family="Helvetica,sans-Serif" font-size="10.00"> PT &gt;</text>
</a>
</g>
<!-- Node3&#45;&gt;Node2 -->
<g id="edge4" class="edge"><title>Node3&#45;&gt;Node2</title>
<path fill="none" stroke="midnightblue" d="M58,-106.688C58,-97.2415 58,-87.1949 58,-79.8521"/>
<polygon fill="midnightblue" stroke="midnightblue" points="54.5001,-106.922 58,-116.922 61.5001,-106.922 54.5001,-106.922"/>
</g>
</g>
</svg>
