<?xml version="1.0" encoding="UTF-8" standalone="no"?>
<!DOCTYPE svg PUBLIC "-//W3C//DTD SVG 1.1//EN"
 "http://www.w3.org/Graphics/SVG/1.1/DTD/svg11.dtd">
<!-- Generated by graphviz version 2.26.0 (20091210.2329)
 -->
<!-- Title: CmdDrive::CurTableItemCmd Pages: 1 -->
<svg width="158pt" height="262pt"
 viewBox="0.00 0.00 158.00 262.00" xmlns="http://www.w3.org/2000/svg" xmlns:xlink="http://www.w3.org/1999/xlink">
<g id="graph1" class="graph" transform="scale(1 1) rotate(0) translate(4 258)">
<title>CmdDrive::CurTableItemCmd</title>
<polygon fill="white" stroke="white" points="-4,5 -4,-258 155,-258 155,5 -4,5"/>
<!-- Node1 -->
<g id="node1" class="node"><title>Node1</title>
<polygon fill="#bfbfbf" stroke="black" points="1.5,-0.5 1.5,-21.5 148.5,-21.5 148.5,-0.5 1.5,-0.5"/>
<text text-anchor="middle" x="75" y="-8.5" font-family="Helvetica,sans-Serif" font-size="10.00">CmdDrive::CurTableItemCmd</text>
</g>
<!-- Node2 -->
<g id="node2" class="node"><title>Node2</title>
<a xlink:href="classCmdDrive_1_1TableQuestionCmd.html" target="_top" xlink:title="CmdDrive::TableQuestionCmd">
<polygon fill="white" stroke="black" points="-0.5,-58.5 -0.5,-79.5 150.5,-79.5 150.5,-58.5 -0.5,-58.5"/>
<text text-anchor="middle" x="75" y="-66.5" font-family="Helvetica,sans-Serif" font-size="10.00">CmdDrive::TableQuestionCmd</text>
</a>
</g>
<!-- Node2&#45;&gt;Node1 -->
<g id="edge2" class="edge"><title>Node2&#45;&gt;Node1</title>
<path fill="none" stroke="midnightblue" d="M75,-48.1906C75,-39.1684 75,-28.9941 75,-21.5707"/>
<polygon fill="midnightblue" stroke="midnightblue" points="71.5001,-48.3619 75,-58.3619 78.5001,-48.3619 71.5001,-48.3619"/>
</g>
<!-- Node3 -->
<g id="node4" class="node"><title>Node3</title>
<a xlink:href="classCmdDrive_1_1TableCmd.html" target="_top" xlink:title="CmdDrive::TableCmd">
<polygon fill="white" stroke="black" points="19,-116.5 19,-137.5 131,-137.5 131,-116.5 19,-116.5"/>
<text text-anchor="middle" x="75" y="-124.5" font-family="Helvetica,sans-Serif" font-size="10.00">CmdDrive::TableCmd</text>
</a>
</g>
<!-- Node3&#45;&gt;Node2 -->
<g id="edge4" class="edge"><title>Node3&#45;&gt;Node2</title>
<path fill="none" stroke="midnightblue" d="M75,-106.191C75,-97.1684 75,-86.9941 75,-79.5707"/>
<polygon fill="midnightblue" stroke="midnightblue" points="71.5001,-106.362 75,-116.362 78.5001,-106.362 71.5001,-106.362"/>
</g>
<!-- Node4 -->
<g id="node6" class="node"><title>Node4</title>
<a xlink:href="classCmdDrive_1_1UiObjectCmd.html" target="_top" xlink:title="CmdDrive::UiObjectCmd">
<polygon fill="white" stroke="black" points="12,-174.5 12,-195.5 138,-195.5 138,-174.5 12,-174.5"/>
<text text-anchor="middle" x="75" y="-182.5" font-family="Helvetica,sans-Serif" font-size="10.00">CmdDrive::UiObjectCmd</text>
</a>
</g>
<!-- Node4&#45;&gt;Node3 -->
<g id="edge6" class="edge"><title>Node4&#45;&gt;Node3</title>
<path fill="none" stroke="midnightblue" d="M75,-164.191C75,-155.168 75,-144.994 75,-137.571"/>
<polygon fill="midnightblue" stroke="midnightblue" points="71.5001,-164.362 75,-174.362 78.5001,-164.362 71.5001,-164.362"/>
</g>
<!-- Node5 -->
<g id="node8" class="node"><title>Node5</title>
<a xlink:href="classCmdDrive_1_1Command.html" target="_top" xlink:title="CmdDrive::Command">
<polygon fill="white" stroke="black" points="19,-232.5 19,-253.5 131,-253.5 131,-232.5 19,-232.5"/>
<text text-anchor="middle" x="75" y="-240.5" font-family="Helvetica,sans-Serif" font-size="10.00">CmdDrive::Command</text>
</a>
</g>
<!-- Node5&#45;&gt;Node4 -->
<g id="edge8" class="edge"><title>Node5&#45;&gt;Node4</title>
<path fill="none" stroke="midnightblue" d="M75,-222.191C75,-213.168 75,-202.994 75,-195.571"/>
<polygon fill="midnightblue" stroke="midnightblue" points="71.5001,-222.362 75,-232.362 78.5001,-222.362 71.5001,-222.362"/>
</g>
</g>
</svg>
