<?xml version="1.0" encoding="UTF-8" standalone="no"?>
<!DOCTYPE svg PUBLIC "-//W3C//DTD SVG 1.1//EN"
 "http://www.w3.org/Graphics/SVG/1.1/DTD/svg11.dtd">
<!-- Generated by graphviz version 2.26.0 (20091210.2329)
 -->
<!-- Title: ValueSeriesInterpolator&lt; T &gt; Pages: 1 -->
<svg width="150pt" height="116pt"
 viewBox="0.00 0.00 150.00 116.00" xmlns="http://www.w3.org/2000/svg" xmlns:xlink="http://www.w3.org/1999/xlink">
<g id="graph1" class="graph" transform="scale(1 1) rotate(0) translate(4 112)">
<title>ValueSeriesInterpolator&lt; T &gt;</title>
<polygon fill="white" stroke="white" points="-4,5 -4,-112 147,-112 147,5 -4,5"/>
<!-- Node1 -->
<g id="node1" class="node"><title>Node1</title>
<polygon fill="#bfbfbf" stroke="black" points="0,-86.5 0,-107.5 142,-107.5 142,-86.5 0,-86.5"/>
<text text-anchor="middle" x="71" y="-94.5" font-family="Helvetica,sans-Serif" font-size="10.00">ValueSeriesInterpolator&lt; T &gt;</text>
</g>
<!-- Node2 -->
<g id="node3" class="node"><title>Node2</title>
<a xlink:href="classValueSeriesInterpolator.html" target="_top" xlink:title="ValueSeriesInterpolator\l\&lt; float \&gt;">
<polygon fill="white" stroke="black" points="12,-1 12,-35 130,-35 130,-1 12,-1"/>
<text text-anchor="start" x="20" y="-22" font-family="Helvetica,sans-Serif" font-size="10.00">ValueSeriesInterpolator</text>
<text text-anchor="middle" x="71" y="-9" font-family="Helvetica,sans-Serif" font-size="10.00">&lt; float &gt;</text>
</a>
</g>
<!-- Node1&#45;&gt;Node2 -->
<g id="edge2" class="edge"><title>Node1&#45;&gt;Node2</title>
<path fill="none" stroke="orange" stroke-dasharray="5,2" d="M71,-76.1618C71,-63.3635 71,-47.1713 71,-35.1236"/>
<polygon fill="orange" stroke="orange" points="67.5001,-76.3457 71,-86.3457 74.5001,-76.3457 67.5001,-76.3457"/>
<text text-anchor="middle" x="91" y="-58.5" font-family="Helvetica,sans-Serif" font-size="10.00"> &lt; float &gt;</text>
</g>
</g>
</svg>
