<?xml version="1.0" encoding="UTF-8" standalone="no"?>
<!DOCTYPE svg PUBLIC "-//W3C//DTD SVG 1.1//EN"
 "http://www.w3.org/Graphics/SVG/1.1/DTD/svg11.dtd">
<!-- Generated by graphviz version 2.26.0 (20091210.2329)
 -->
<!-- Title: uiColorTableToolBar Pages: 1 -->
<svg width="260pt" height="204pt"
 viewBox="0.00 0.00 260.00 204.00" xmlns="http://www.w3.org/2000/svg" xmlns:xlink="http://www.w3.org/1999/xlink">
<g id="graph1" class="graph" transform="scale(1 1) rotate(0) translate(4 200)">
<title>uiColorTableToolBar</title>
<polygon fill="white" stroke="white" points="-4,5 -4,-200 257,-200 257,5 -4,5"/>
<!-- Node1 -->
<g id="node1" class="node"><title>Node1</title>
<polygon fill="#bfbfbf" stroke="black" points="123.5,-0.5 123.5,-21.5 228.5,-21.5 228.5,-0.5 123.5,-0.5"/>
<text text-anchor="middle" x="176" y="-8.5" font-family="Helvetica,sans-Serif" font-size="10.00">uiColorTableToolBar</text>
</g>
<!-- Node2 -->
<g id="node2" class="node"><title>Node2</title>
<a xlink:href="classuiToolBar.html" target="_top" xlink:title="uiToolBar">
<polygon fill="white" stroke="black" points="106,-58.5 106,-79.5 164,-79.5 164,-58.5 106,-58.5"/>
<text text-anchor="middle" x="135" y="-66.5" font-family="Helvetica,sans-Serif" font-size="10.00">uiToolBar</text>
</a>
</g>
<!-- Node2&#45;&gt;Node1 -->
<g id="edge2" class="edge"><title>Node2&#45;&gt;Node1</title>
<path fill="none" stroke="midnightblue" d="M148.46,-49.9591C155.131,-40.522 162.934,-29.4835 168.528,-21.5707"/>
<polygon fill="midnightblue" stroke="midnightblue" points="145.434,-48.1758 142.52,-58.3619 151.15,-52.2165 145.434,-48.1758"/>
</g>
<!-- Node3 -->
<g id="node4" class="node"><title>Node3</title>
<a xlink:href="classuiActionContainer.html" target="_top" xlink:title="uiActionContainer">
<polygon fill="white" stroke="black" points="0,-116.5 0,-137.5 94,-137.5 94,-116.5 0,-116.5"/>
<text text-anchor="middle" x="47" y="-124.5" font-family="Helvetica,sans-Serif" font-size="10.00">uiActionContainer</text>
</a>
</g>
<!-- Node3&#45;&gt;Node2 -->
<g id="edge4" class="edge"><title>Node3&#45;&gt;Node2</title>
<path fill="none" stroke="midnightblue" d="M71.5467,-110.821C86.7043,-100.831 105.718,-88.2993 118.962,-79.5707"/>
<polygon fill="midnightblue" stroke="midnightblue" points="69.564,-107.936 63.1406,-116.362 73.4163,-113.781 69.564,-107.936"/>
</g>
<!-- Node4 -->
<g id="node6" class="node"><title>Node4</title>
<a xlink:href="classuiParent.html" target="_top" xlink:title="uiParent">
<polygon fill="white" stroke="black" points="111.5,-116.5 111.5,-137.5 164.5,-137.5 164.5,-116.5 111.5,-116.5"/>
<text text-anchor="middle" x="138" y="-124.5" font-family="Helvetica,sans-Serif" font-size="10.00">uiParent</text>
</a>
</g>
<!-- Node4&#45;&gt;Node2 -->
<g id="edge6" class="edge"><title>Node4&#45;&gt;Node2</title>
<path fill="none" stroke="midnightblue" d="M136.924,-106.191C136.457,-97.1684 135.931,-86.9941 135.547,-79.5707"/>
<polygon fill="midnightblue" stroke="midnightblue" points="133.438,-106.556 137.45,-116.362 140.428,-106.194 133.438,-106.556"/>
</g>
<!-- Node5 -->
<g id="node8" class="node"><title>Node5</title>
<polygon fill="white" stroke="#bfbfbf" points="100.5,-174.5 100.5,-195.5 175.5,-195.5 175.5,-174.5 100.5,-174.5"/>
<text text-anchor="middle" x="138" y="-182.5" font-family="Helvetica,sans-Serif" font-size="10.00">uiBaseObject</text>
</g>
<!-- Node5&#45;&gt;Node4 -->
<g id="edge8" class="edge"><title>Node5&#45;&gt;Node4</title>
<path fill="none" stroke="midnightblue" d="M138,-164.191C138,-155.168 138,-144.994 138,-137.571"/>
<polygon fill="midnightblue" stroke="midnightblue" points="134.5,-164.362 138,-174.362 141.5,-164.362 134.5,-164.362"/>
</g>
<!-- Node6 -->
<g id="node10" class="node"><title>Node6</title>
<a xlink:href="classuiColorTable.html" target="_top" xlink:title="uiColorTable">
<polygon fill="white" stroke="black" points="181.5,-58.5 181.5,-79.5 252.5,-79.5 252.5,-58.5 181.5,-58.5"/>
<text text-anchor="middle" x="217" y="-66.5" font-family="Helvetica,sans-Serif" font-size="10.00">uiColorTable</text>
</a>
</g>
<!-- Node6&#45;&gt;Node1 -->
<g id="edge10" class="edge"><title>Node6&#45;&gt;Node1</title>
<path fill="none" stroke="midnightblue" d="M203.54,-49.9591C196.869,-40.522 189.066,-29.4835 183.472,-21.5707"/>
<polygon fill="midnightblue" stroke="midnightblue" points="200.85,-52.2165 209.48,-58.3619 206.566,-48.1758 200.85,-52.2165"/>
</g>
<!-- Node7 -->
<g id="node12" class="node"><title>Node7</title>
<a xlink:href="classCallBacker.html" target="_top" xlink:title="To be able to send and/or receive CallBacks, inherit from this class. ">
<polygon fill="white" stroke="black" points="184.5,-116.5 184.5,-137.5 249.5,-137.5 249.5,-116.5 184.5,-116.5"/>
<text text-anchor="middle" x="217" y="-124.5" font-family="Helvetica,sans-Serif" font-size="10.00">CallBacker</text>
</a>
</g>
<!-- Node7&#45;&gt;Node6 -->
<g id="edge12" class="edge"><title>Node7&#45;&gt;Node6</title>
<path fill="none" stroke="midnightblue" d="M217,-106.191C217,-97.1684 217,-86.9941 217,-79.5707"/>
<polygon fill="midnightblue" stroke="midnightblue" points="213.5,-106.362 217,-116.362 220.5,-106.362 213.5,-106.362"/>
</g>
</g>
</svg>
