<?xml version="1.0" encoding="UTF-8" standalone="no"?>
<!DOCTYPE svg PUBLIC "-//W3C//DTD SVG 1.1//EN"
 "http://www.w3.org/Graphics/SVG/1.1/DTD/svg11.dtd">
<!-- Generated by graphviz version 2.26.0 (20091210.2329)
 -->
<!-- Title: Geometry::PlaneElementEditor Pages: 1 -->
<svg width="160pt" height="204pt"
 viewBox="0.00 0.00 160.00 204.00" xmlns="http://www.w3.org/2000/svg" xmlns:xlink="http://www.w3.org/1999/xlink">
<g id="graph1" class="graph" transform="scale(1 1) rotate(0) translate(4 200)">
<title>Geometry::PlaneElementEditor</title>
<polygon fill="white" stroke="white" points="-4,5 -4,-200 157,-200 157,5 -4,5"/>
<!-- Node1 -->
<g id="node1" class="node"><title>Node1</title>
<polygon fill="#bfbfbf" stroke="black" points="0,-0.5 0,-21.5 152,-21.5 152,-0.5 0,-0.5"/>
<text text-anchor="middle" x="76" y="-8.5" font-family="Helvetica,sans-Serif" font-size="10.00">Geometry::PlaneElementEditor</text>
</g>
<!-- Node2 -->
<g id="node2" class="node"><title>Node2</title>
<a xlink:href="classGeometry_1_1ElementEditorImpl.html" target="_top" xlink:title="Geometry::ElementEditorImpl">
<polygon fill="white" stroke="black" points="3,-58.5 3,-79.5 149,-79.5 149,-58.5 3,-58.5"/>
<text text-anchor="middle" x="76" y="-66.5" font-family="Helvetica,sans-Serif" font-size="10.00">Geometry::ElementEditorImpl</text>
</a>
</g>
<!-- Node2&#45;&gt;Node1 -->
<g id="edge2" class="edge"><title>Node2&#45;&gt;Node1</title>
<path fill="none" stroke="midnightblue" d="M76,-48.1906C76,-39.1684 76,-28.9941 76,-21.5707"/>
<polygon fill="midnightblue" stroke="midnightblue" points="72.5001,-48.3619 76,-58.3619 79.5001,-48.3619 72.5001,-48.3619"/>
</g>
<!-- Node3 -->
<g id="node4" class="node"><title>Node3</title>
<a xlink:href="classGeometry_1_1ElementEditor.html" target="_top" xlink:title="Geometry::ElementEditor">
<polygon fill="white" stroke="black" points="12.5,-116.5 12.5,-137.5 139.5,-137.5 139.5,-116.5 12.5,-116.5"/>
<text text-anchor="middle" x="76" y="-124.5" font-family="Helvetica,sans-Serif" font-size="10.00">Geometry::ElementEditor</text>
</a>
</g>
<!-- Node3&#45;&gt;Node2 -->
<g id="edge4" class="edge"><title>Node3&#45;&gt;Node2</title>
<path fill="none" stroke="midnightblue" d="M76,-106.191C76,-97.1684 76,-86.9941 76,-79.5707"/>
<polygon fill="midnightblue" stroke="midnightblue" points="72.5001,-106.362 76,-116.362 79.5001,-106.362 72.5001,-106.362"/>
</g>
<!-- Node4 -->
<g id="node6" class="node"><title>Node4</title>
<a xlink:href="classCallBacker.html" target="_top" xlink:title="To be able to send and/or receive CallBacks, inherit from this class. ">
<polygon fill="white" stroke="black" points="43.5,-174.5 43.5,-195.5 108.5,-195.5 108.5,-174.5 43.5,-174.5"/>
<text text-anchor="middle" x="76" y="-182.5" font-family="Helvetica,sans-Serif" font-size="10.00">CallBacker</text>
</a>
</g>
<!-- Node4&#45;&gt;Node3 -->
<g id="edge6" class="edge"><title>Node4&#45;&gt;Node3</title>
<path fill="none" stroke="midnightblue" d="M76,-164.191C76,-155.168 76,-144.994 76,-137.571"/>
<polygon fill="midnightblue" stroke="midnightblue" points="72.5001,-164.362 76,-174.362 79.5001,-164.362 72.5001,-164.362"/>
</g>
</g>
</svg>
