<?xml version="1.0" encoding="UTF-8" standalone="no"?>
<!DOCTYPE svg PUBLIC "-//W3C//DTD SVG 1.1//EN"
 "http://www.w3.org/Graphics/SVG/1.1/DTD/svg11.dtd">
<!-- Generated by graphviz version 2.26.0 (20091210.2329)
 -->
<!-- Title: LinearVelTransform Pages: 1 -->
<svg width="238pt" height="146pt"
 viewBox="0.00 0.00 238.00 146.00" xmlns="http://www.w3.org/2000/svg" xmlns:xlink="http://www.w3.org/1999/xlink">
<g id="graph1" class="graph" transform="scale(1 1) rotate(0) translate(4 142)">
<title>LinearVelTransform</title>
<polygon fill="white" stroke="white" points="-4,5 -4,-142 235,-142 235,5 -4,5"/>
<!-- Node1 -->
<g id="node1" class="node"><title>Node1</title>
<polygon fill="#bfbfbf" stroke="black" points="64.5,-58.5 64.5,-79.5 165.5,-79.5 165.5,-58.5 64.5,-58.5"/>
<text text-anchor="middle" x="115" y="-66.5" font-family="Helvetica,sans-Serif" font-size="10.00">LinearVelTransform</text>
</g>
<!-- Node3 -->
<g id="node5" class="node"><title>Node3</title>
<a xlink:href="classLinearD2TTransform.html" target="_top" xlink:title="LinearD2TTransform">
<polygon fill="white" stroke="black" points="0,-0.5 0,-21.5 106,-21.5 106,-0.5 0,-0.5"/>
<text text-anchor="middle" x="53" y="-8.5" font-family="Helvetica,sans-Serif" font-size="10.00">LinearD2TTransform</text>
</a>
</g>
<!-- Node1&#45;&gt;Node3 -->
<g id="edge4" class="edge"><title>Node1&#45;&gt;Node3</title>
<path fill="none" stroke="midnightblue" d="M96.1915,-51.405C85.7834,-41.6683 73.1942,-29.8914 64.2997,-21.5707"/>
<polygon fill="midnightblue" stroke="midnightblue" points="93.9344,-54.0863 103.628,-58.3619 98.7166,-48.9743 93.9344,-54.0863"/>
</g>
<!-- Node4 -->
<g id="node7" class="node"><title>Node4</title>
<a xlink:href="classLinearT2DTransform.html" target="_top" xlink:title="LinearT2DTransform">
<polygon fill="white" stroke="black" points="124,-0.5 124,-21.5 230,-21.5 230,-0.5 124,-0.5"/>
<text text-anchor="middle" x="177" y="-8.5" font-family="Helvetica,sans-Serif" font-size="10.00">LinearT2DTransform</text>
</a>
</g>
<!-- Node1&#45;&gt;Node4 -->
<g id="edge6" class="edge"><title>Node1&#45;&gt;Node4</title>
<path fill="none" stroke="midnightblue" d="M133.808,-51.405C144.217,-41.6683 156.806,-29.8914 165.7,-21.5707"/>
<polygon fill="midnightblue" stroke="midnightblue" points="131.283,-48.9743 126.372,-58.3619 136.066,-54.0863 131.283,-48.9743"/>
</g>
<!-- Node2 -->
<g id="node2" class="node"><title>Node2</title>
<a xlink:href="classZAxisTransform.html" target="_top" xlink:title="Base class for z&#45;axis transforms. ">
<polygon fill="white" stroke="black" points="72,-116.5 72,-137.5 158,-137.5 158,-116.5 72,-116.5"/>
<text text-anchor="middle" x="115" y="-124.5" font-family="Helvetica,sans-Serif" font-size="10.00">ZAxisTransform</text>
</a>
</g>
<!-- Node2&#45;&gt;Node1 -->
<g id="edge2" class="edge"><title>Node2&#45;&gt;Node1</title>
<path fill="none" stroke="midnightblue" d="M115,-106.191C115,-97.1684 115,-86.9941 115,-79.5707"/>
<polygon fill="midnightblue" stroke="midnightblue" points="111.5,-106.362 115,-116.362 118.5,-106.362 111.5,-106.362"/>
</g>
</g>
</svg>
