<?xml version="1.0" encoding="UTF-8" standalone="no"?>
<!DOCTYPE svg PUBLIC "-//W3C//DTD SVG 1.1//EN"
 "http://www.w3.org/Graphics/SVG/1.1/DTD/svg11.dtd">
<!-- Generated by graphviz version 2.26.0 (20091210.2329)
 -->
<!-- Title: TrcKeySamplingSet Pages: 1 -->
<svg width="302pt" height="368pt"
 viewBox="0.00 0.00 302.00 368.00" xmlns="http://www.w3.org/2000/svg" xmlns:xlink="http://www.w3.org/1999/xlink">
<g id="graph1" class="graph" transform="scale(1 1) rotate(0) translate(4 364)">
<title>TrcKeySamplingSet</title>
<polygon fill="white" stroke="white" points="-4,5 -4,-364 299,-364 299,5 -4,5"/>
<!-- Node1 -->
<g id="node1" class="node"><title>Node1</title>
<polygon fill="#bfbfbf" stroke="black" points="100,-0.5 100,-21.5 204,-21.5 204,-0.5 100,-0.5"/>
<text text-anchor="middle" x="152" y="-8.5" font-family="Helvetica,sans-Serif" font-size="10.00">TrcKeySamplingSet</text>
</g>
<!-- Node2 -->
<g id="node2" class="node"><title>Node2</title>
<a xlink:href="classTypeSet.html" target="_top" xlink:title="TypeSet\&lt; TrcKeySampling \&gt;">
<polygon fill="white" stroke="black" points="80.5,-60.5 80.5,-81.5 223.5,-81.5 223.5,-60.5 80.5,-60.5"/>
<text text-anchor="middle" x="152" y="-68.5" font-family="Helvetica,sans-Serif" font-size="10.00">TypeSet&lt; TrcKeySampling &gt;</text>
</a>
</g>
<!-- Node2&#45;&gt;Node1 -->
<g id="edge2" class="edge"><title>Node2&#45;&gt;Node1</title>
<path fill="none" stroke="midnightblue" d="M152,-50.2312C152,-40.5922 152,-29.5444 152,-21.6339"/>
<polygon fill="midnightblue" stroke="midnightblue" points="148.5,-50.2732 152,-60.2732 155.5,-50.2732 148.5,-50.2732"/>
</g>
<!-- Node3 -->
<g id="node4" class="node"><title>Node3</title>
<a xlink:href="classTypeSetBase.html" target="_top" xlink:title="TypeSetBase\&lt; TrcKeySampling,\l int \&gt;">
<polygon fill="white" stroke="black" points="0,-193 0,-227 160,-227 160,-193 0,-193"/>
<text text-anchor="start" x="8" y="-214" font-family="Helvetica,sans-Serif" font-size="10.00">TypeSetBase&lt; TrcKeySampling,</text>
<text text-anchor="middle" x="80" y="-201" font-family="Helvetica,sans-Serif" font-size="10.00"> int &gt;</text>
</a>
</g>
<!-- Node3&#45;&gt;Node2 -->
<g id="edge4" class="edge"><title>Node3&#45;&gt;Node2</title>
<path fill="none" stroke="midnightblue" d="M93.6303,-183.686C109.561,-152.931 135.173,-103.486 146.41,-81.7914"/>
<polygon fill="midnightblue" stroke="midnightblue" points="90.3203,-182.467 88.8286,-192.956 96.5359,-185.686 90.3203,-182.467"/>
</g>
<!-- Node4 -->
<g id="node6" class="node"><title>Node4</title>
<a xlink:href="classOD_1_1Set.html" target="_top" xlink:title="Base class for all sets used in OpendTect. ">
<polygon fill="white" stroke="black" points="144.5,-338.5 144.5,-359.5 197.5,-359.5 197.5,-338.5 144.5,-338.5"/>
<text text-anchor="middle" x="171" y="-346.5" font-family="Helvetica,sans-Serif" font-size="10.00">OD::Set</text>
</a>
</g>
<!-- Node4&#45;&gt;Node3 -->
<g id="edge6" class="edge"><title>Node4&#45;&gt;Node3</title>
<path fill="none" stroke="midnightblue" d="M142.875,-332.73C119.839,-317.43 89.4113,-292.098 79,-260 75.5711,-249.429 75.8211,-236.929 76.9283,-227.072"/>
<polygon fill="midnightblue" stroke="midnightblue" points="141.279,-335.864 151.594,-338.285 145.041,-329.96 141.279,-335.864"/>
</g>
<!-- Node5 -->
<g id="node8" class="node"><title>Node5</title>
<a xlink:href="classTypeSetBase.html" target="_top" xlink:title="Base class for TypeSet, usually not used as such. ">
<polygon fill="white" stroke="black" points="116.5,-278.5 116.5,-299.5 225.5,-299.5 225.5,-278.5 116.5,-278.5"/>
<text text-anchor="middle" x="171" y="-286.5" font-family="Helvetica,sans-Serif" font-size="10.00">TypeSetBase&lt; T, I &gt;</text>
</a>
</g>
<!-- Node4&#45;&gt;Node5 -->
<g id="edge10" class="edge"><title>Node4&#45;&gt;Node5</title>
<path fill="none" stroke="midnightblue" d="M171,-328.231C171,-318.592 171,-307.544 171,-299.634"/>
<polygon fill="midnightblue" stroke="midnightblue" points="167.5,-328.273 171,-338.273 174.5,-328.273 167.5,-328.273"/>
</g>
<!-- Node7 -->
<g id="node13" class="node"><title>Node7</title>
<a xlink:href="classTypeSetBase.html" target="_top" xlink:title="TypeSetBase\&lt; T, int \&gt;">
<polygon fill="white" stroke="black" points="178,-199.5 178,-220.5 294,-220.5 294,-199.5 178,-199.5"/>
<text text-anchor="middle" x="236" y="-207.5" font-family="Helvetica,sans-Serif" font-size="10.00">TypeSetBase&lt; T, int &gt;</text>
</a>
</g>
<!-- Node4&#45;&gt;Node7 -->
<g id="edge16" class="edge"><title>Node4&#45;&gt;Node7</title>
<path fill="none" stroke="midnightblue" d="M198.526,-332.949C221.425,-317.647 251.853,-292.189 262,-260 266.53,-245.63 256.201,-230.455 247.251,-220.644"/>
<polygon fill="midnightblue" stroke="midnightblue" points="196.4,-330.155 189.87,-338.498 200.177,-336.048 196.4,-330.155"/>
</g>
<!-- Node5&#45;&gt;Node3 -->
<g id="edge8" class="edge"><title>Node5&#45;&gt;Node3</title>
<path fill="none" stroke="orange" stroke-dasharray="5,2" d="M119.679,-275.392C105.938,-270.782 93.6086,-265.422 89,-260 81.3457,-250.995 79.2386,-237.717 78.9686,-227.108"/>
<polygon fill="orange" stroke="orange" points="118.75,-278.769 129.34,-278.454 120.866,-272.096 118.75,-278.769"/>
<text text-anchor="middle" x="144" y="-250.5" font-family="Helvetica,sans-Serif" font-size="10.00"> &lt; TrcKeySampling, int &gt;</text>
</g>
<!-- Node5&#45;&gt;Node7 -->
<g id="edge18" class="edge"><title>Node5&#45;&gt;Node7</title>
<path fill="none" stroke="orange" stroke-dasharray="5,2" d="M191.909,-271.451C195.769,-267.829 199.638,-263.92 203,-260 213.699,-247.527 223.762,-231.404 229.898,-220.888"/>
<polygon fill="orange" stroke="orange" points="189.276,-269.11 184.163,-278.39 193.947,-274.324 189.276,-269.11"/>
<text text-anchor="middle" x="236" y="-250.5" font-family="Helvetica,sans-Serif" font-size="10.00"> &lt; T, int &gt;</text>
</g>
<!-- Node6 -->
<g id="node11" class="node"><title>Node6</title>
<a xlink:href="classTypeSet.html" target="_top" xlink:title="Set of (small) copyable elements. ">
<polygon fill="white" stroke="black" points="163.5,-132.5 163.5,-153.5 240.5,-153.5 240.5,-132.5 163.5,-132.5"/>
<text text-anchor="middle" x="202" y="-140.5" font-family="Helvetica,sans-Serif" font-size="10.00">TypeSet&lt; T &gt;</text>
</a>
</g>
<!-- Node6&#45;&gt;Node2 -->
<g id="edge12" class="edge"><title>Node6&#45;&gt;Node2</title>
<path fill="none" stroke="orange" stroke-dasharray="5,2" d="M188.674,-123.81C179.299,-110.311 167.101,-92.7449 159.408,-81.6674"/>
<polygon fill="orange" stroke="orange" points="186.044,-126.159 194.622,-132.376 191.793,-122.166 186.044,-126.159"/>
<text text-anchor="middle" x="229" y="-104.5" font-family="Helvetica,sans-Serif" font-size="10.00"> &lt; TrcKeySampling &gt;</text>
</g>
<!-- Node7&#45;&gt;Node6 -->
<g id="edge14" class="edge"><title>Node7&#45;&gt;Node6</title>
<path fill="none" stroke="midnightblue" d="M225.846,-189.99C219.765,-178.007 212.281,-163.259 207.337,-153.517"/>
<polygon fill="midnightblue" stroke="midnightblue" points="222.891,-191.902 230.537,-199.235 229.133,-188.734 222.891,-191.902"/>
</g>
</g>
</svg>
