<?xml version="1.0" encoding="UTF-8" standalone="no"?>
<!DOCTYPE svg PUBLIC "-//W3C//DTD SVG 1.1//EN"
 "http://www.w3.org/Graphics/SVG/1.1/DTD/svg11.dtd">
<!-- Generated by graphviz version 2.26.0 (20091210.2329)
 -->
<!-- Title: uiStringSet Pages: 1 -->
<svg width="262pt" height="368pt"
 viewBox="0.00 0.00 262.00 368.00" xmlns="http://www.w3.org/2000/svg" xmlns:xlink="http://www.w3.org/1999/xlink">
<g id="graph1" class="graph" transform="scale(1 1) rotate(0) translate(4 364)">
<title>uiStringSet</title>
<polygon fill="white" stroke="white" points="-4,5 -4,-364 259,-364 259,5 -4,5"/>
<!-- Node1 -->
<g id="node1" class="node"><title>Node1</title>
<polygon fill="#bfbfbf" stroke="black" points="89.5,-0.5 89.5,-21.5 154.5,-21.5 154.5,-0.5 89.5,-0.5"/>
<text text-anchor="middle" x="122" y="-8.5" font-family="Helvetica,sans-Serif" font-size="10.00">uiStringSet</text>
</g>
<!-- Node2 -->
<g id="node2" class="node"><title>Node2</title>
<a xlink:href="classTypeSet.html" target="_top" xlink:title="TypeSet\&lt; uiString \&gt;">
<polygon fill="white" stroke="black" points="70,-60.5 70,-81.5 174,-81.5 174,-60.5 70,-60.5"/>
<text text-anchor="middle" x="122" y="-68.5" font-family="Helvetica,sans-Serif" font-size="10.00">TypeSet&lt; uiString &gt;</text>
</a>
</g>
<!-- Node2&#45;&gt;Node1 -->
<g id="edge2" class="edge"><title>Node2&#45;&gt;Node1</title>
<path fill="none" stroke="midnightblue" d="M122,-50.2312C122,-40.5922 122,-29.5444 122,-21.6339"/>
<polygon fill="midnightblue" stroke="midnightblue" points="118.5,-50.2732 122,-60.2732 125.5,-50.2732 118.5,-50.2732"/>
</g>
<!-- Node3 -->
<g id="node4" class="node"><title>Node3</title>
<a xlink:href="classTypeSetBase.html" target="_top" xlink:title="TypeSetBase\&lt; uiString,\l int \&gt;">
<polygon fill="white" stroke="black" points="-0.5,-193 -0.5,-227 120.5,-227 120.5,-193 -0.5,-193"/>
<text text-anchor="start" x="7.5" y="-214" font-family="Helvetica,sans-Serif" font-size="10.00">TypeSetBase&lt; uiString,</text>
<text text-anchor="middle" x="60" y="-201" font-family="Helvetica,sans-Serif" font-size="10.00"> int &gt;</text>
</a>
</g>
<!-- Node3&#45;&gt;Node2 -->
<g id="edge4" class="edge"><title>Node3&#45;&gt;Node2</title>
<path fill="none" stroke="midnightblue" d="M71.7372,-183.686C85.4553,-152.931 107.51,-103.486 117.187,-81.7914"/>
<polygon fill="midnightblue" stroke="midnightblue" points="68.4796,-182.397 67.6024,-192.956 74.8725,-185.249 68.4796,-182.397"/>
</g>
<!-- Node4 -->
<g id="node6" class="node"><title>Node4</title>
<a xlink:href="classOD_1_1Set.html" target="_top" xlink:title="Base class for all sets used in OpendTect. ">
<polygon fill="white" stroke="black" points="110.5,-338.5 110.5,-359.5 163.5,-359.5 163.5,-338.5 110.5,-338.5"/>
<text text-anchor="middle" x="137" y="-346.5" font-family="Helvetica,sans-Serif" font-size="10.00">OD::Set</text>
</a>
</g>
<!-- Node4&#45;&gt;Node3 -->
<g id="edge6" class="edge"><title>Node4&#45;&gt;Node3</title>
<path fill="none" stroke="midnightblue" d="M107.574,-332.944C95.2565,-324.712 81.9753,-313.548 74,-300 60.684,-277.379 58.7506,-246.252 59.037,-227.162"/>
<polygon fill="midnightblue" stroke="midnightblue" points="105.952,-336.059 116.282,-338.412 109.675,-330.131 105.952,-336.059"/>
</g>
<!-- Node5 -->
<g id="node8" class="node"><title>Node5</title>
<a xlink:href="classTypeSetBase.html" target="_top" xlink:title="Base class for TypeSet, usually not used as such. ">
<polygon fill="white" stroke="black" points="82.5,-278.5 82.5,-299.5 191.5,-299.5 191.5,-278.5 82.5,-278.5"/>
<text text-anchor="middle" x="137" y="-286.5" font-family="Helvetica,sans-Serif" font-size="10.00">TypeSetBase&lt; T, I &gt;</text>
</a>
</g>
<!-- Node4&#45;&gt;Node5 -->
<g id="edge10" class="edge"><title>Node4&#45;&gt;Node5</title>
<path fill="none" stroke="midnightblue" d="M137,-328.231C137,-318.592 137,-307.544 137,-299.634"/>
<polygon fill="midnightblue" stroke="midnightblue" points="133.5,-328.273 137,-338.273 140.5,-328.273 133.5,-328.273"/>
</g>
<!-- Node7 -->
<g id="node13" class="node"><title>Node7</title>
<a xlink:href="classTypeSetBase.html" target="_top" xlink:title="TypeSetBase\&lt; T, int \&gt;">
<polygon fill="white" stroke="black" points="138,-199.5 138,-220.5 254,-220.5 254,-199.5 138,-199.5"/>
<text text-anchor="middle" x="196" y="-207.5" font-family="Helvetica,sans-Serif" font-size="10.00">TypeSetBase&lt; T, int &gt;</text>
</a>
</g>
<!-- Node4&#45;&gt;Node7 -->
<g id="edge16" class="edge"><title>Node4&#45;&gt;Node7</title>
<path fill="none" stroke="midnightblue" d="M164.03,-332.736C176.331,-324.24 190.278,-312.918 200,-300 215.051,-279.999 222.279,-270.231 216,-246 213.633,-236.864 208.389,-227.578 203.865,-220.726"/>
<polygon fill="midnightblue" stroke="midnightblue" points="161.862,-329.974 155.448,-338.407 165.72,-335.814 161.862,-329.974"/>
</g>
<!-- Node5&#45;&gt;Node3 -->
<g id="edge8" class="edge"><title>Node5&#45;&gt;Node3</title>
<path fill="none" stroke="orange" stroke-dasharray="5,2" d="M102.059,-273.36C95.8956,-269.578 89.8949,-265.121 85,-260 76.1479,-250.74 69.7778,-237.735 65.6836,-227.31"/>
<polygon fill="orange" stroke="orange" points="100.661,-276.588 111.096,-278.417 104.079,-270.48 100.661,-276.588"/>
<text text-anchor="middle" x="120.5" y="-250.5" font-family="Helvetica,sans-Serif" font-size="10.00"> &lt; uiString, int &gt;</text>
</g>
<!-- Node5&#45;&gt;Node7 -->
<g id="edge18" class="edge"><title>Node5&#45;&gt;Node7</title>
<path fill="none" stroke="orange" stroke-dasharray="5,2" d="M151.162,-270.038C162.687,-254.606 178.539,-233.38 187.981,-220.738"/>
<polygon fill="orange" stroke="orange" points="148.137,-268.239 144.957,-278.346 153.745,-272.428 148.137,-268.239"/>
<text text-anchor="middle" x="191" y="-250.5" font-family="Helvetica,sans-Serif" font-size="10.00"> &lt; T, int &gt;</text>
</g>
<!-- Node6 -->
<g id="node11" class="node"><title>Node6</title>
<a xlink:href="classTypeSet.html" target="_top" xlink:title="Set of (small) copyable elements. ">
<polygon fill="white" stroke="black" points="131.5,-132.5 131.5,-153.5 208.5,-153.5 208.5,-132.5 131.5,-132.5"/>
<text text-anchor="middle" x="170" y="-140.5" font-family="Helvetica,sans-Serif" font-size="10.00">TypeSet&lt; T &gt;</text>
</a>
</g>
<!-- Node6&#45;&gt;Node2 -->
<g id="edge12" class="edge"><title>Node6&#45;&gt;Node2</title>
<path fill="none" stroke="orange" stroke-dasharray="5,2" d="M157.207,-123.81C148.207,-110.311 136.497,-92.7449 129.112,-81.6674"/>
<polygon fill="orange" stroke="orange" points="154.458,-125.997 162.917,-132.376 160.283,-122.114 154.458,-125.997"/>
<text text-anchor="middle" x="178.5" y="-104.5" font-family="Helvetica,sans-Serif" font-size="10.00"> &lt; uiString &gt;</text>
</g>
<!-- Node7&#45;&gt;Node6 -->
<g id="edge14" class="edge"><title>Node7&#45;&gt;Node6</title>
<path fill="none" stroke="midnightblue" d="M188.095,-189.63C183.471,-177.713 177.824,-163.161 174.081,-153.517"/>
<polygon fill="midnightblue" stroke="midnightblue" points="184.942,-191.179 191.823,-199.235 191.468,-188.646 184.942,-191.179"/>
</g>
</g>
</svg>
