<?xml version="1.0" encoding="UTF-8" standalone="no"?>
<!DOCTYPE svg PUBLIC "-//W3C//DTD SVG 1.1//EN"
 "http://www.w3.org/Graphics/SVG/1.1/DTD/svg11.dtd">
<!-- Generated by graphviz version 2.26.0 (20091210.2329)
 -->
<!-- Title: uiImportLogsDlg Pages: 1 -->
<svg width="96pt" height="262pt"
 viewBox="0.00 0.00 96.00 262.00" xmlns="http://www.w3.org/2000/svg" xmlns:xlink="http://www.w3.org/1999/xlink">
<g id="graph1" class="graph" transform="scale(1 1) rotate(0) translate(4 258)">
<title>uiImportLogsDlg</title>
<polygon fill="white" stroke="white" points="-4,5 -4,-258 93,-258 93,5 -4,5"/>
<!-- Node1 -->
<g id="node1" class="node"><title>Node1</title>
<polygon fill="#bfbfbf" stroke="black" points="0,-0.5 0,-21.5 88,-21.5 88,-0.5 0,-0.5"/>
<text text-anchor="middle" x="44" y="-8.5" font-family="Helvetica,sans-Serif" font-size="10.00">uiImportLogsDlg</text>
</g>
<!-- Node2 -->
<g id="node2" class="node"><title>Node2</title>
<a xlink:href="classuiDialog.html" target="_top" xlink:title="uiDialog">
<polygon fill="white" stroke="black" points="18,-58.5 18,-79.5 70,-79.5 70,-58.5 18,-58.5"/>
<text text-anchor="middle" x="44" y="-66.5" font-family="Helvetica,sans-Serif" font-size="10.00">uiDialog</text>
</a>
</g>
<!-- Node2&#45;&gt;Node1 -->
<g id="edge2" class="edge"><title>Node2&#45;&gt;Node1</title>
<path fill="none" stroke="midnightblue" d="M44,-48.1906C44,-39.1684 44,-28.9941 44,-21.5707"/>
<polygon fill="midnightblue" stroke="midnightblue" points="40.5001,-48.3619 44,-58.3619 47.5001,-48.3619 40.5001,-48.3619"/>
</g>
<!-- Node3 -->
<g id="node4" class="node"><title>Node3</title>
<a xlink:href="classuiMainWin.html" target="_top" xlink:title="User interface main window. ">
<polygon fill="white" stroke="black" points="13,-116.5 13,-137.5 75,-137.5 75,-116.5 13,-116.5"/>
<text text-anchor="middle" x="44" y="-124.5" font-family="Helvetica,sans-Serif" font-size="10.00">uiMainWin</text>
</a>
</g>
<!-- Node3&#45;&gt;Node2 -->
<g id="edge4" class="edge"><title>Node3&#45;&gt;Node2</title>
<path fill="none" stroke="midnightblue" d="M44,-106.191C44,-97.1684 44,-86.9941 44,-79.5707"/>
<polygon fill="midnightblue" stroke="midnightblue" points="40.5001,-106.362 44,-116.362 47.5001,-106.362 40.5001,-106.362"/>
</g>
<!-- Node4 -->
<g id="node6" class="node"><title>Node4</title>
<a xlink:href="classuiParent.html" target="_top" xlink:title="uiParent">
<polygon fill="white" stroke="black" points="17.5,-174.5 17.5,-195.5 70.5,-195.5 70.5,-174.5 17.5,-174.5"/>
<text text-anchor="middle" x="44" y="-182.5" font-family="Helvetica,sans-Serif" font-size="10.00">uiParent</text>
</a>
</g>
<!-- Node4&#45;&gt;Node3 -->
<g id="edge6" class="edge"><title>Node4&#45;&gt;Node3</title>
<path fill="none" stroke="midnightblue" d="M44,-164.191C44,-155.168 44,-144.994 44,-137.571"/>
<polygon fill="midnightblue" stroke="midnightblue" points="40.5001,-164.362 44,-174.362 47.5001,-164.362 40.5001,-164.362"/>
</g>
<!-- Node5 -->
<g id="node8" class="node"><title>Node5</title>
<polygon fill="white" stroke="#bfbfbf" points="6.5,-232.5 6.5,-253.5 81.5,-253.5 81.5,-232.5 6.5,-232.5"/>
<text text-anchor="middle" x="44" y="-240.5" font-family="Helvetica,sans-Serif" font-size="10.00">uiBaseObject</text>
</g>
<!-- Node5&#45;&gt;Node4 -->
<g id="edge8" class="edge"><title>Node5&#45;&gt;Node4</title>
<path fill="none" stroke="midnightblue" d="M44,-222.191C44,-213.168 44,-202.994 44,-195.571"/>
<polygon fill="midnightblue" stroke="midnightblue" points="40.5001,-222.362 44,-232.362 47.5001,-222.362 40.5001,-222.362"/>
</g>
</g>
</svg>
