<?xml version="1.0" encoding="UTF-8" standalone="no"?>
<!DOCTYPE svg PUBLIC "-//W3C//DTD SVG 1.1//EN"
 "http://www.w3.org/Graphics/SVG/1.1/DTD/svg11.dtd">
<!-- Generated by graphviz version 2.26.0 (20091210.2329)
 -->
<!-- Title: uiElasticPropSelGrp::uiSelInpGrp Pages: 1 -->
<svg width="112pt" height="218pt"
 viewBox="0.00 0.00 112.00 218.00" xmlns="http://www.w3.org/2000/svg" xmlns:xlink="http://www.w3.org/1999/xlink">
<g id="graph1" class="graph" transform="scale(1 1) rotate(0) translate(4 214)">
<title>uiElasticPropSelGrp::uiSelInpGrp</title>
<polygon fill="white" stroke="white" points="-4,5 -4,-214 109,-214 109,5 -4,5"/>
<!-- Node1 -->
<g id="node1" class="node"><title>Node1</title>
<polygon fill="#bfbfbf" stroke="black" points="0,-1 0,-35 104,-35 104,-1 0,-1"/>
<text text-anchor="start" x="8" y="-22" font-family="Helvetica,sans-Serif" font-size="10.00">uiElasticPropSelGrp</text>
<text text-anchor="middle" x="52" y="-9" font-family="Helvetica,sans-Serif" font-size="10.00">::uiSelInpGrp</text>
</g>
<!-- Node2 -->
<g id="node2" class="node"><title>Node2</title>
<a xlink:href="classuiGroup.html" target="_top" xlink:title="uiGroup">
<polygon fill="white" stroke="black" points="27,-72.5 27,-93.5 77,-93.5 77,-72.5 27,-72.5"/>
<text text-anchor="middle" x="52" y="-80.5" font-family="Helvetica,sans-Serif" font-size="10.00">uiGroup</text>
</a>
</g>
<!-- Node2&#45;&gt;Node1 -->
<g id="edge2" class="edge"><title>Node2&#45;&gt;Node1</title>
<path fill="none" stroke="midnightblue" d="M52,-62.1306C52,-53.4049 52,-43.3908 52,-35.1099"/>
<polygon fill="midnightblue" stroke="midnightblue" points="48.5001,-62.2665 52,-72.2666 55.5001,-62.2666 48.5001,-62.2665"/>
</g>
<!-- Node3 -->
<g id="node4" class="node"><title>Node3</title>
<a xlink:href="classuiParent.html" target="_top" xlink:title="uiParent">
<polygon fill="white" stroke="black" points="25.5,-130.5 25.5,-151.5 78.5,-151.5 78.5,-130.5 25.5,-130.5"/>
<text text-anchor="middle" x="52" y="-138.5" font-family="Helvetica,sans-Serif" font-size="10.00">uiParent</text>
</a>
</g>
<!-- Node3&#45;&gt;Node2 -->
<g id="edge4" class="edge"><title>Node3&#45;&gt;Node2</title>
<path fill="none" stroke="midnightblue" d="M52,-120.191C52,-111.168 52,-100.994 52,-93.5707"/>
<polygon fill="midnightblue" stroke="midnightblue" points="48.5001,-120.362 52,-130.362 55.5001,-120.362 48.5001,-120.362"/>
</g>
<!-- Node4 -->
<g id="node6" class="node"><title>Node4</title>
<polygon fill="white" stroke="#bfbfbf" points="14.5,-188.5 14.5,-209.5 89.5,-209.5 89.5,-188.5 14.5,-188.5"/>
<text text-anchor="middle" x="52" y="-196.5" font-family="Helvetica,sans-Serif" font-size="10.00">uiBaseObject</text>
</g>
<!-- Node4&#45;&gt;Node3 -->
<g id="edge6" class="edge"><title>Node4&#45;&gt;Node3</title>
<path fill="none" stroke="midnightblue" d="M52,-178.191C52,-169.168 52,-158.994 52,-151.571"/>
<polygon fill="midnightblue" stroke="midnightblue" points="48.5001,-178.362 52,-188.362 55.5001,-178.362 48.5001,-178.362"/>
</g>
</g>
</svg>
