<?xml version="1.0" encoding="UTF-8" standalone="no"?>
<!DOCTYPE svg PUBLIC "-//W3C//DTD SVG 1.1//EN"
 "http://www.w3.org/Graphics/SVG/1.1/DTD/svg11.dtd">
<!-- Generated by graphviz version 2.26.0 (20091210.2329)
 -->
<!-- Title: Threads::Atomic&lt; T &gt; Pages: 1 -->
<svg width="490pt" height="2172pt"
 viewBox="0.00 0.00 490.00 2172.46" xmlns="http://www.w3.org/2000/svg" xmlns:xlink="http://www.w3.org/1999/xlink">
<g id="graph1" class="graph" transform="scale(1 1) rotate(0) translate(4 2168.46)">
<title>Threads::Atomic&lt; T &gt;</title>
<polygon fill="white" stroke="white" points="-4,5 -4,-2168.46 487,-2168.46 487,5 -4,5"/>
<!-- Node1 -->
<g id="node1" class="node"><title>Node1</title>
<polygon fill="#bfbfbf" stroke="black" points="0.5,-1050.96 0.5,-1071.96 113.5,-1071.96 113.5,-1050.96 0.5,-1050.96"/>
<text text-anchor="middle" x="57" y="-1058.96" font-family="Helvetica,sans-Serif" font-size="10.00">Threads::Atomic&lt; T &gt;</text>
</g>
<!-- Node2 -->
<g id="node3" class="node"><title>Node2</title>
<a xlink:href="classThreads_1_1Atomic.html" target="_top" xlink:title="Threads::Atomic\&lt; ColTab\l::Sequence * \&gt;">
<polygon fill="white" stroke="black" points="325.5,-2116.46 325.5,-2150.46 454.5,-2150.46 454.5,-2116.46 325.5,-2116.46"/>
<text text-anchor="start" x="333.5" y="-2137.46" font-family="Helvetica,sans-Serif" font-size="10.00">Threads::Atomic&lt; ColTab</text>
<text text-anchor="middle" x="390" y="-2124.46" font-family="Helvetica,sans-Serif" font-size="10.00">::Sequence * &gt;</text>
</a>
</g>
<!-- Node1&#45;&gt;Node2 -->
<g id="edge2" class="edge"><title>Node1&#45;&gt;Node2</title>
<path fill="none" stroke="orange" stroke-dasharray="5,2" d="M57.7361,-1082.15C62.9337,-1225.64 94.9734,-2068.21 132,-2106.46 180.94,-2157.03 266.251,-2155.92 325.304,-2147.39"/>
<polygon fill="orange" stroke="orange" points="61.2304,-1081.93 57.3733,-1072.06 54.235,-1082.18 61.2304,-1081.93"/>
<text text-anchor="middle" x="206" y="-2155.46" font-family="Helvetica,sans-Serif" font-size="10.00"> &lt; ColTab::Sequence * &gt;</text>
</g>
<!-- Node3 -->
<g id="node5" class="node"><title>Node3</title>
<a xlink:href="classThreads_1_1Atomic.html" target="_top" xlink:title="Threads::Atomic\&lt; Continuous\lCurvatureArray2DInterpol\l::HorizonData * \&gt;">
<polygon fill="white" stroke="black" points="316.5,-2050.96 316.5,-2097.96 463.5,-2097.96 463.5,-2050.96 316.5,-2050.96"/>
<text text-anchor="start" x="324.5" y="-2084.96" font-family="Helvetica,sans-Serif" font-size="10.00">Threads::Atomic&lt; Continuous</text>
<text text-anchor="start" x="324.5" y="-2071.96" font-family="Helvetica,sans-Serif" font-size="10.00">CurvatureArray2DInterpol</text>
<text text-anchor="middle" x="390" y="-2058.96" font-family="Helvetica,sans-Serif" font-size="10.00">::HorizonData * &gt;</text>
</a>
</g>
<!-- Node1&#45;&gt;Node3 -->
<g id="edge4" class="edge"><title>Node1&#45;&gt;Node3</title>
<path fill="none" stroke="orange" stroke-dasharray="5,2" d="M57.8266,-1082.3C63.4467,-1221.62 96.8782,-2013.6 132,-2049.46 156.875,-2074.86 249.323,-2078.43 316.457,-2077.44"/>
<polygon fill="orange" stroke="orange" points="61.3167,-1081.98 57.4191,-1072.13 54.3223,-1082.26 61.3167,-1081.98"/>
<text text-anchor="start" x="139.5" y="-2093.46" font-family="Helvetica,sans-Serif" font-size="10.00"> &lt; ContinuousCurvatureArray2</text>
<text text-anchor="middle" x="206" y="-2080.46" font-family="Helvetica,sans-Serif" font-size="10.00">DInterpol::HorizonData * &gt;</text>
</g>
<!-- Node4 -->
<g id="node7" class="node"><title>Node4</title>
<a xlink:href="classThreads_1_1Atomic.html" target="_top" xlink:title="Threads::Atomic\&lt; visBase\l::ThumbWheel * \&gt;">
<polygon fill="white" stroke="black" points="323.5,-1998.46 323.5,-2032.46 456.5,-2032.46 456.5,-1998.46 323.5,-1998.46"/>
<text text-anchor="start" x="331.5" y="-2019.46" font-family="Helvetica,sans-Serif" font-size="10.00">Threads::Atomic&lt; visBase</text>
<text text-anchor="middle" x="390" y="-2006.46" font-family="Helvetica,sans-Serif" font-size="10.00">::ThumbWheel * &gt;</text>
</a>
</g>
<!-- Node1&#45;&gt;Node4 -->
<g id="edge6" class="edge"><title>Node1&#45;&gt;Node4</title>
<path fill="none" stroke="orange" stroke-dasharray="5,2" d="M57.1389,-1082.56C58.2076,-1214.2 66.9559,-1919.37 132,-1986.46 180.472,-2036.46 264.409,-2036.67 323.348,-2028.98"/>
<polygon fill="orange" stroke="orange" points="60.6365,-1082.22 57.0618,-1072.24 53.6367,-1082.27 60.6365,-1082.22"/>
<text text-anchor="middle" x="206" y="-2036.46" font-family="Helvetica,sans-Serif" font-size="10.00"> &lt; visBase::ThumbWheel * &gt;</text>
</g>
<!-- Node5 -->
<g id="node9" class="node"><title>Node5</title>
<a xlink:href="classThreads_1_1Atomic.html" target="_top" xlink:title="Threads::Atomic\&lt; int64_t \&gt;">
<polygon fill="white" stroke="black" points="322,-1958.96 322,-1979.96 458,-1979.96 458,-1958.96 322,-1958.96"/>
<text text-anchor="middle" x="390" y="-1966.96" font-family="Helvetica,sans-Serif" font-size="10.00">Threads::Atomic&lt; int64_t &gt;</text>
</a>
</g>
<!-- Node1&#45;&gt;Node5 -->
<g id="edge8" class="edge"><title>Node1&#45;&gt;Node5</title>
<path fill="none" stroke="orange" stroke-dasharray="5,2" d="M57.235,-1082.27C58.8673,-1209.18 70.35,-1875.9 132,-1939.46 157.469,-1965.72 254.29,-1970.75 321.788,-1970.9"/>
<polygon fill="orange" stroke="orange" points="60.7315,-1081.95 57.1097,-1071.99 53.732,-1082.03 60.7315,-1081.95"/>
<text text-anchor="middle" x="206" y="-1973.46" font-family="Helvetica,sans-Serif" font-size="10.00"> &lt; int64_t &gt;</text>
</g>
<!-- Node6 -->
<g id="node11" class="node"><title>Node6</title>
<a xlink:href="classThreads_1_1Atomic.html" target="_top" xlink:title="Threads::Atomic\&lt; visBase\l::PolygonSelection * \&gt;">
<polygon fill="white" stroke="black" points="323.5,-1906.46 323.5,-1940.46 456.5,-1940.46 456.5,-1906.46 323.5,-1906.46"/>
<text text-anchor="start" x="331.5" y="-1927.46" font-family="Helvetica,sans-Serif" font-size="10.00">Threads::Atomic&lt; visBase</text>
<text text-anchor="middle" x="390" y="-1914.46" font-family="Helvetica,sans-Serif" font-size="10.00">::PolygonSelection * &gt;</text>
</a>
</g>
<!-- Node1&#45;&gt;Node6 -->
<g id="edge10" class="edge"><title>Node1&#45;&gt;Node6</title>
<path fill="none" stroke="orange" stroke-dasharray="5,2" d="M57.3498,-1082.25C59.6115,-1204.99 73.9581,-1831.46 132,-1891.46 157.653,-1917.98 255.777,-1923.68 323.338,-1924.34"/>
<polygon fill="orange" stroke="orange" points="60.8445,-1081.92 57.1676,-1071.99 53.8456,-1082.05 60.8445,-1081.92"/>
<text text-anchor="middle" x="206" y="-1926.46" font-family="Helvetica,sans-Serif" font-size="10.00"> &lt; visBase::PolygonSelection * &gt;</text>
</g>
<!-- Node7 -->
<g id="node13" class="node"><title>Node7</title>
<a xlink:href="classThreads_1_1Atomic.html" target="_top" xlink:title="Threads::Atomic\&lt; Survey\l::Geometry3D * \&gt;">
<polygon fill="white" stroke="black" points="326,-1854.46 326,-1888.46 454,-1888.46 454,-1854.46 326,-1854.46"/>
<text text-anchor="start" x="334" y="-1875.46" font-family="Helvetica,sans-Serif" font-size="10.00">Threads::Atomic&lt; Survey</text>
<text text-anchor="middle" x="390" y="-1862.46" font-family="Helvetica,sans-Serif" font-size="10.00">::Geometry3D * &gt;</text>
</a>
</g>
<!-- Node1&#45;&gt;Node7 -->
<g id="edge12" class="edge"><title>Node1&#45;&gt;Node7</title>
<path fill="none" stroke="orange" stroke-dasharray="5,2" d="M57.4286,-1082.31C60.0788,-1201.45 76.0042,-1792.81 132,-1848.46 158.393,-1874.69 258.49,-1876.62 325.963,-1874.71"/>
<polygon fill="orange" stroke="orange" points="60.9215,-1081.94 57.207,-1072.01 53.9231,-1082.09 60.9215,-1081.94"/>
<text text-anchor="middle" x="206" y="-1878.46" font-family="Helvetica,sans-Serif" font-size="10.00"> &lt; Survey::Geometry3D * &gt;</text>
</g>
<!-- Node8 -->
<g id="node15" class="node"><title>Node8</title>
<a xlink:href="classThreads_1_1Atomic.html" target="_top" xlink:title="Threads::Atomic\&lt; EnumDef\lImpl\&lt; DayOfWeek \&gt; * \&gt;">
<polygon fill="white" stroke="black" points="320.5,-1802.46 320.5,-1836.46 459.5,-1836.46 459.5,-1802.46 320.5,-1802.46"/>
<text text-anchor="start" x="328.5" y="-1823.46" font-family="Helvetica,sans-Serif" font-size="10.00">Threads::Atomic&lt; EnumDef</text>
<text text-anchor="middle" x="390" y="-1810.46" font-family="Helvetica,sans-Serif" font-size="10.00">Impl&lt; DayOfWeek &gt; * &gt;</text>
</a>
</g>
<!-- Node1&#45;&gt;Node8 -->
<g id="edge14" class="edge"><title>Node1&#45;&gt;Node8</title>
<path fill="none" stroke="orange" stroke-dasharray="5,2" d="M57.621,-1082.09C61.2198,-1195.18 81.0382,-1736.64 132,-1788.46 157.463,-1814.36 252.944,-1819.94 320.301,-1820.52"/>
<polygon fill="orange" stroke="orange" points="61.1162,-1081.88 57.307,-1072 54.1196,-1082.1 61.1162,-1081.88"/>
<text text-anchor="start" x="138" y="-1835.46" font-family="Helvetica,sans-Serif" font-size="10.00"> &lt; EnumDefImpl&lt; DayOfWeek</text>
<text text-anchor="middle" x="206" y="-1822.46" font-family="Helvetica,sans-Serif" font-size="10.00"> &gt; * &gt;</text>
</g>
<!-- Node9 -->
<g id="node17" class="node"><title>Node9</title>
<a xlink:href="classThreads_1_1Atomic.html" target="_top" xlink:title="Threads::Atomic\&lt; visBase\l::TextureRectangle * \&gt;">
<polygon fill="white" stroke="black" points="323.5,-1750.46 323.5,-1784.46 456.5,-1784.46 456.5,-1750.46 323.5,-1750.46"/>
<text text-anchor="start" x="331.5" y="-1771.46" font-family="Helvetica,sans-Serif" font-size="10.00">Threads::Atomic&lt; visBase</text>
<text text-anchor="middle" x="390" y="-1758.46" font-family="Helvetica,sans-Serif" font-size="10.00">::TextureRectangle * &gt;</text>
</a>
</g>
<!-- Node1&#45;&gt;Node9 -->
<g id="edge16" class="edge"><title>Node1&#45;&gt;Node9</title>
<path fill="none" stroke="orange" stroke-dasharray="5,2" d="M57.7372,-1082.26C61.8171,-1191.72 83.2356,-1697.86 132,-1745.46 158.258,-1771.09 255.944,-1772.98 323.281,-1770.98"/>
<polygon fill="orange" stroke="orange" points="61.2313,-1082.03 57.3688,-1072.17 54.236,-1082.29 61.2313,-1082.03"/>
<text text-anchor="middle" x="206" y="-1775.46" font-family="Helvetica,sans-Serif" font-size="10.00"> &lt; visBase::TextureRectangle * &gt;</text>
</g>
<!-- Node10 -->
<g id="node19" class="node"><title>Node10</title>
<a xlink:href="classThreads_1_1Atomic.html" target="_top" xlink:title="Threads::Atomic\&lt; const\l visBase::visBase::Transformation * \&gt;">
<polygon fill="white" stroke="black" points="298.5,-1698.46 298.5,-1732.46 481.5,-1732.46 481.5,-1698.46 298.5,-1698.46"/>
<text text-anchor="start" x="306.5" y="-1719.46" font-family="Helvetica,sans-Serif" font-size="10.00">Threads::Atomic&lt; const</text>
<text text-anchor="middle" x="390" y="-1706.46" font-family="Helvetica,sans-Serif" font-size="10.00"> visBase::visBase::Transformation * &gt;</text>
</a>
</g>
<!-- Node1&#45;&gt;Node10 -->
<g id="edge18" class="edge"><title>Node1&#45;&gt;Node10</title>
<path fill="none" stroke="orange" stroke-dasharray="5,2" d="M57.9753,-1082.04C63.0589,-1185.18 87.9834,-1642.77 132,-1686.46 155.034,-1709.32 233.787,-1715.64 298.288,-1716.79"/>
<polygon fill="orange" stroke="orange" points="61.4676,-1081.79 57.4873,-1071.97 54.4758,-1082.13 61.4676,-1081.79"/>
<text text-anchor="start" x="148" y="-1732.46" font-family="Helvetica,sans-Serif" font-size="10.00"> &lt; const visBase::visBase</text>
<text text-anchor="middle" x="206" y="-1719.46" font-family="Helvetica,sans-Serif" font-size="10.00">::Transformation * &gt;</text>
</g>
<!-- Node11 -->
<g id="node21" class="node"><title>Node11</title>
<a xlink:href="classThreads_1_1Atomic.html" target="_top" xlink:title="Threads::Atomic\&lt; PickRetriever * \&gt;">
<polygon fill="white" stroke="black" points="303.5,-1658.96 303.5,-1679.96 476.5,-1679.96 476.5,-1658.96 303.5,-1658.96"/>
<text text-anchor="middle" x="390" y="-1666.96" font-family="Helvetica,sans-Serif" font-size="10.00">Threads::Atomic&lt; PickRetriever * &gt;</text>
</a>
</g>
<!-- Node1&#45;&gt;Node11 -->
<g id="edge20" class="edge"><title>Node1&#45;&gt;Node11</title>
<path fill="none" stroke="orange" stroke-dasharray="5,2" d="M58.2056,-1082.32C64.1147,-1181.18 91.3838,-1599.38 132,-1639.46 155.712,-1662.86 237.993,-1669.24 303.339,-1670.46"/>
<polygon fill="orange" stroke="orange" points="61.687,-1081.9 57.6047,-1072.13 54.6991,-1082.31 61.687,-1081.9"/>
<text text-anchor="middle" x="206" y="-1673.46" font-family="Helvetica,sans-Serif" font-size="10.00"> &lt; PickRetriever * &gt;</text>
</g>
<!-- Node12 -->
<g id="node23" class="node"><title>Node12</title>
<a xlink:href="classThreads_1_1Atomic.html" target="_top" xlink:title="Threads::Atomic\&lt; const\l mVisTrans * \&gt;">
<polygon fill="white" stroke="black" points="329,-1606.46 329,-1640.46 451,-1640.46 451,-1606.46 329,-1606.46"/>
<text text-anchor="start" x="337" y="-1627.46" font-family="Helvetica,sans-Serif" font-size="10.00">Threads::Atomic&lt; const</text>
<text text-anchor="middle" x="390" y="-1614.46" font-family="Helvetica,sans-Serif" font-size="10.00"> mVisTrans * &gt;</text>
</a>
</g>
<!-- Node1&#45;&gt;Node12 -->
<g id="edge22" class="edge"><title>Node1&#45;&gt;Node12</title>
<path fill="none" stroke="orange" stroke-dasharray="5,2" d="M58.4692,-1082.34C65.2599,-1176.05 94.8617,-1554.96 132,-1591.46 158.998,-1618 261.395,-1623.5 328.784,-1624.14"/>
<polygon fill="orange" stroke="orange" points="61.9448,-1081.87 57.7397,-1072.14 54.9627,-1082.37 61.9448,-1081.87"/>
<text text-anchor="middle" x="206" y="-1626.46" font-family="Helvetica,sans-Serif" font-size="10.00"> &lt; const mVisTrans * &gt;</text>
</g>
<!-- Node13 -->
<g id="node25" class="node"><title>Node13</title>
<a xlink:href="classThreads_1_1Atomic.html" target="_top" xlink:title="Threads::Atomic\&lt; TypeSet\l\&lt; float \&gt; * \&gt;">
<polygon fill="white" stroke="black" points="323,-1554.46 323,-1588.46 457,-1588.46 457,-1554.46 323,-1554.46"/>
<text text-anchor="start" x="331" y="-1575.46" font-family="Helvetica,sans-Serif" font-size="10.00">Threads::Atomic&lt; TypeSet</text>
<text text-anchor="middle" x="390" y="-1562.46" font-family="Helvetica,sans-Serif" font-size="10.00">&lt; float &gt; * &gt;</text>
</a>
</g>
<!-- Node1&#45;&gt;Node13 -->
<g id="edge24" class="edge"><title>Node1&#45;&gt;Node13</title>
<path fill="none" stroke="orange" stroke-dasharray="5,2" d="M58.7035,-1082.39C66.1625,-1171.57 97.1307,-1516.87 132,-1549.46 158.724,-1574.44 255.744,-1576.55 322.879,-1574.78"/>
<polygon fill="orange" stroke="orange" points="62.1721,-1081.86 57.8598,-1072.18 55.1959,-1082.44 62.1721,-1081.86"/>
<text text-anchor="middle" x="206" y="-1578.46" font-family="Helvetica,sans-Serif" font-size="10.00"> &lt; TypeSet&lt; float &gt; * &gt;</text>
</g>
<!-- Node14 -->
<g id="node27" class="node"><title>Node14</title>
<a xlink:href="classThreads_1_1Atomic.html" target="_top" xlink:title="Threads::Atomic\&lt; const\l void * \&gt;">
<polygon fill="white" stroke="black" points="329,-1502.46 329,-1536.46 451,-1536.46 451,-1502.46 329,-1502.46"/>
<text text-anchor="start" x="337" y="-1523.46" font-family="Helvetica,sans-Serif" font-size="10.00">Threads::Atomic&lt; const</text>
<text text-anchor="middle" x="390" y="-1510.46" font-family="Helvetica,sans-Serif" font-size="10.00"> void * &gt;</text>
</a>
</g>
<!-- Node1&#45;&gt;Node14 -->
<g id="edge26" class="edge"><title>Node1&#45;&gt;Node14</title>
<path fill="none" stroke="orange" stroke-dasharray="5,2" d="M57.5203,-1082.31C59.9129,-1159.97 72.4649,-1430.88 132,-1487.46 183.856,-1536.74 270.4,-1537.27 328.8,-1530.52"/>
<polygon fill="orange" stroke="orange" points="61.0187,-1082.2 57.2366,-1072.3 54.0215,-1082.4 61.0187,-1082.2"/>
<text text-anchor="middle" x="206" y="-1537.46" font-family="Helvetica,sans-Serif" font-size="10.00"> &lt; const void * &gt;</text>
</g>
<!-- Node15 -->
<g id="node29" class="node"><title>Node15</title>
<a xlink:href="classThreads_1_1Atomic.html" target="_top" xlink:title="Threads::Atomic\&lt; visBase\l::Scene * \&gt;">
<polygon fill="white" stroke="black" points="323.5,-1450.46 323.5,-1484.46 456.5,-1484.46 456.5,-1450.46 323.5,-1450.46"/>
<text text-anchor="start" x="331.5" y="-1471.46" font-family="Helvetica,sans-Serif" font-size="10.00">Threads::Atomic&lt; visBase</text>
<text text-anchor="middle" x="390" y="-1458.46" font-family="Helvetica,sans-Serif" font-size="10.00">::Scene * &gt;</text>
</a>
</g>
<!-- Node1&#45;&gt;Node15 -->
<g id="edge28" class="edge"><title>Node1&#45;&gt;Node15</title>
<path fill="none" stroke="orange" stroke-dasharray="5,2" d="M57.8779,-1082.16C61.415,-1154.78 77.18,-1396.26 132,-1445.46 159.265,-1469.94 256.406,-1472.16 323.386,-1470.55"/>
<polygon fill="orange" stroke="orange" points="61.3669,-1081.84 57.4111,-1072.01 54.3743,-1082.16 61.3669,-1081.84"/>
<text text-anchor="middle" x="206" y="-1474.46" font-family="Helvetica,sans-Serif" font-size="10.00"> &lt; visBase::Scene * &gt;</text>
</g>
<!-- Node16 -->
<g id="node31" class="node"><title>Node16</title>
<a xlink:href="classThreads_1_1Atomic.html" target="_top" xlink:title="Threads::Atomic\&lt; ValueSeries\lInterpolator\&lt; float \&gt; * \&gt;">
<polygon fill="white" stroke="black" points="315,-1398.46 315,-1432.46 465,-1432.46 465,-1398.46 315,-1398.46"/>
<text text-anchor="start" x="323" y="-1419.46" font-family="Helvetica,sans-Serif" font-size="10.00">Threads::Atomic&lt; ValueSeries</text>
<text text-anchor="middle" x="390" y="-1406.46" font-family="Helvetica,sans-Serif" font-size="10.00">Interpolator&lt; float &gt; * &gt;</text>
</a>
</g>
<!-- Node1&#45;&gt;Node16 -->
<g id="edge30" class="edge"><title>Node1&#45;&gt;Node16</title>
<path fill="none" stroke="orange" stroke-dasharray="5,2" d="M58.6905,-1082.38C64.4396,-1147.9 85.5185,-1347.3 132,-1388.46 158.298,-1411.75 248.351,-1416.68 314.691,-1416.98"/>
<polygon fill="orange" stroke="orange" points="62.1504,-1081.75 57.8185,-1072.08 55.1754,-1082.34 62.1504,-1081.75"/>
<text text-anchor="start" x="149" y="-1432.46" font-family="Helvetica,sans-Serif" font-size="10.00"> &lt; ValueSeriesInterpolator</text>
<text text-anchor="middle" x="206" y="-1419.46" font-family="Helvetica,sans-Serif" font-size="10.00">&lt; float &gt; * &gt;</text>
</g>
<!-- Node17 -->
<g id="node33" class="node"><title>Node17</title>
<a xlink:href="classThreads_1_1Atomic.html" target="_top" xlink:title="Threads::Atomic\&lt; T * \&gt;">
<polygon fill="white" stroke="black" points="330.5,-1358.96 330.5,-1379.96 449.5,-1379.96 449.5,-1358.96 330.5,-1358.96"/>
<text text-anchor="middle" x="390" y="-1366.96" font-family="Helvetica,sans-Serif" font-size="10.00">Threads::Atomic&lt; T * &gt;</text>
</a>
</g>
<!-- Node1&#45;&gt;Node17 -->
<g id="edge32" class="edge"><title>Node1&#45;&gt;Node17</title>
<path fill="none" stroke="orange" stroke-dasharray="5,2" d="M59.3549,-1082.11C66.6129,-1141.83 90.68,-1312.68 132,-1347.46 160.975,-1371.85 263.581,-1373.67 330.336,-1372.06"/>
<polygon fill="orange" stroke="orange" points="62.8114,-1081.54 58.161,-1072.02 55.8599,-1082.36 62.8114,-1081.54"/>
<text text-anchor="middle" x="206" y="-1375.46" font-family="Helvetica,sans-Serif" font-size="10.00"> &lt; T * &gt;</text>
</g>
<!-- Node18 -->
<g id="node35" class="node"><title>Node18</title>
<a xlink:href="classThreads_1_1Atomic.html" target="_top" xlink:title="Threads::Atomic\&lt; int \&gt;">
<polygon fill="white" stroke="black" points="331.5,-1318.96 331.5,-1339.96 448.5,-1339.96 448.5,-1318.96 331.5,-1318.96"/>
<text text-anchor="middle" x="390" y="-1326.96" font-family="Helvetica,sans-Serif" font-size="10.00">Threads::Atomic&lt; int &gt;</text>
</a>
</g>
<!-- Node1&#45;&gt;Node18 -->
<g id="edge34" class="edge"><title>Node1&#45;&gt;Node18</title>
<path fill="none" stroke="orange" stroke-dasharray="5,2" d="M60.2691,-1082.02C69.2615,-1135.79 96.1023,-1278.44 132,-1307.46 161.582,-1331.38 264.819,-1333.29 331.39,-1331.84"/>
<polygon fill="orange" stroke="orange" points="63.6933,-1081.27 58.6242,-1071.97 56.7852,-1082.4 63.6933,-1081.27"/>
<text text-anchor="middle" x="206" y="-1335.46" font-family="Helvetica,sans-Serif" font-size="10.00"> &lt; int &gt;</text>
</g>
<!-- Node19 -->
<g id="node37" class="node"><title>Node19</title>
<a xlink:href="classThreads_1_1Atomic.html" target="_top" xlink:title="Threads::Atomic\&lt; Attrib\l::Data2DHolder * \&gt;">
<polygon fill="white" stroke="black" points="329.5,-1266.46 329.5,-1300.46 450.5,-1300.46 450.5,-1266.46 329.5,-1266.46"/>
<text text-anchor="start" x="337.5" y="-1287.46" font-family="Helvetica,sans-Serif" font-size="10.00">Threads::Atomic&lt; Attrib</text>
<text text-anchor="middle" x="390" y="-1274.46" font-family="Helvetica,sans-Serif" font-size="10.00">::Data2DHolder * &gt;</text>
</a>
</g>
<!-- Node1&#45;&gt;Node19 -->
<g id="edge36" class="edge"><title>Node1&#45;&gt;Node19</title>
<path fill="none" stroke="orange" stroke-dasharray="5,2" d="M58.5885,-1082.35C62.825,-1122.15 78.0789,-1208.6 132,-1250.46 188.091,-1294.01 272.62,-1296.51 329.487,-1291.96"/>
<polygon fill="orange" stroke="orange" points="62.058,-1081.86 57.646,-1072.23 55.0882,-1082.51 62.058,-1081.86"/>
<text text-anchor="middle" x="206" y="-1296.46" font-family="Helvetica,sans-Serif" font-size="10.00"> &lt; Attrib::Data2DHolder * &gt;</text>
</g>
<!-- Node20 -->
<g id="node39" class="node"><title>Node20</title>
<a xlink:href="classThreads_1_1Atomic.html" target="_top" xlink:title="Threads::Atomic\&lt; TypeSet\l\&lt; Coord \&gt; * \&gt;">
<polygon fill="white" stroke="black" points="323,-1214.46 323,-1248.46 457,-1248.46 457,-1214.46 323,-1214.46"/>
<text text-anchor="start" x="331" y="-1235.46" font-family="Helvetica,sans-Serif" font-size="10.00">Threads::Atomic&lt; TypeSet</text>
<text text-anchor="middle" x="390" y="-1222.46" font-family="Helvetica,sans-Serif" font-size="10.00">&lt; Coord &gt; * &gt;</text>
</a>
</g>
<!-- Node1&#45;&gt;Node20 -->
<g id="edge38" class="edge"><title>Node1&#45;&gt;Node20</title>
<path fill="none" stroke="orange" stroke-dasharray="5,2" d="M62.9356,-1082.1C72.4309,-1111.13 93.9526,-1163.37 132,-1189.46 188.141,-1227.96 267.069,-1235.76 322.806,-1235.62"/>
<polygon fill="orange" stroke="orange" points="66.1764,-1080.74 59.8759,-1072.22 59.4894,-1082.81 66.1764,-1080.74"/>
<text text-anchor="middle" x="206" y="-1237.46" font-family="Helvetica,sans-Serif" font-size="10.00"> &lt; TypeSet&lt; Coord &gt; * &gt;</text>
</g>
<!-- Node21 -->
<g id="node41" class="node"><title>Node21</title>
<a xlink:href="classThreads_1_1Atomic.html" target="_top" xlink:title="Threads::Atomic\&lt; visBase\l::TextureChannels * \&gt;">
<polygon fill="white" stroke="black" points="323.5,-1162.46 323.5,-1196.46 456.5,-1196.46 456.5,-1162.46 323.5,-1162.46"/>
<text text-anchor="start" x="331.5" y="-1183.46" font-family="Helvetica,sans-Serif" font-size="10.00">Threads::Atomic&lt; visBase</text>
<text text-anchor="middle" x="390" y="-1170.46" font-family="Helvetica,sans-Serif" font-size="10.00">::TextureChannels * &gt;</text>
</a>
</g>
<!-- Node1&#45;&gt;Node21 -->
<g id="edge40" class="edge"><title>Node1&#45;&gt;Node21</title>
<path fill="none" stroke="orange" stroke-dasharray="5,2" d="M70.947,-1080.05C84.591,-1096.8 106.931,-1120.71 132,-1133.46 192.115,-1164.05 269.127,-1174.64 323.306,-1178.13"/>
<polygon fill="orange" stroke="orange" points="73.5733,-1077.72 64.6363,-1072.03 68.0741,-1082.05 73.5733,-1077.72"/>
<text text-anchor="middle" x="206" y="-1176.46" font-family="Helvetica,sans-Serif" font-size="10.00"> &lt; visBase::TextureChannels * &gt;</text>
</g>
<!-- Node22 -->
<g id="node43" class="node"><title>Node22</title>
<a xlink:href="classThreads_1_1Atomic.html" target="_top" xlink:title="Threads::Atomic\&lt; Continuous\lCurvatureArray2DInterpol\l::BriggsData * \&gt;">
<polygon fill="white" stroke="black" points="316.5,-1096.96 316.5,-1143.96 463.5,-1143.96 463.5,-1096.96 316.5,-1096.96"/>
<text text-anchor="start" x="324.5" y="-1130.96" font-family="Helvetica,sans-Serif" font-size="10.00">Threads::Atomic&lt; Continuous</text>
<text text-anchor="start" x="324.5" y="-1117.96" font-family="Helvetica,sans-Serif" font-size="10.00">CurvatureArray2DInterpol</text>
<text text-anchor="middle" x="390" y="-1104.96" font-family="Helvetica,sans-Serif" font-size="10.00">::BriggsData * &gt;</text>
</a>
</g>
<!-- Node1&#45;&gt;Node22 -->
<g id="edge42" class="edge"><title>Node1&#45;&gt;Node22</title>
<path fill="none" stroke="orange" stroke-dasharray="5,2" d="M111.373,-1074.2C118.302,-1075.7 125.308,-1077.16 132,-1078.46 193.919,-1090.51 264.66,-1101.85 316.389,-1109.71"/>
<polygon fill="orange" stroke="orange" points="111.841,-1070.72 101.322,-1071.98 110.333,-1077.56 111.841,-1070.72"/>
<text text-anchor="start" x="139.5" y="-1120.46" font-family="Helvetica,sans-Serif" font-size="10.00"> &lt; ContinuousCurvatureArray2</text>
<text text-anchor="middle" x="206" y="-1107.46" font-family="Helvetica,sans-Serif" font-size="10.00">DInterpol::BriggsData * &gt;</text>
</g>
<!-- Node23 -->
<g id="node45" class="node"><title>Node23</title>
<a xlink:href="classThreads_1_1Atomic.html" target="_top" xlink:title="Threads::Atomic\&lt; Time2Depth\lStretcher * \&gt;">
<polygon fill="white" stroke="black" points="314.5,-1044.46 314.5,-1078.46 465.5,-1078.46 465.5,-1044.46 314.5,-1044.46"/>
<text text-anchor="start" x="322.5" y="-1065.46" font-family="Helvetica,sans-Serif" font-size="10.00">Threads::Atomic&lt; Time2Depth</text>
<text text-anchor="middle" x="390" y="-1052.46" font-family="Helvetica,sans-Serif" font-size="10.00">Stretcher * &gt;</text>
</a>
</g>
<!-- Node1&#45;&gt;Node23 -->
<g id="edge44" class="edge"><title>Node1&#45;&gt;Node23</title>
<path fill="none" stroke="orange" stroke-dasharray="5,2" d="M123.869,-1061.46C178.925,-1061.46 256.969,-1061.46 314.311,-1061.46"/>
<polygon fill="orange" stroke="orange" points="123.866,-1057.96 113.866,-1061.46 123.866,-1064.96 123.866,-1057.96"/>
<text text-anchor="middle" x="206" y="-1065.46" font-family="Helvetica,sans-Serif" font-size="10.00"> &lt; Time2DepthStretcher * &gt;</text>
</g>
<!-- Node24 -->
<g id="node47" class="node"><title>Node24</title>
<a xlink:href="classThreads_1_1Atomic.html" target="_top" xlink:title="Threads::Atomic\&lt; Coords\l::CoordSystem * \&gt;">
<polygon fill="white" stroke="black" points="325.5,-992.462 325.5,-1026.46 454.5,-1026.46 454.5,-992.462 325.5,-992.462"/>
<text text-anchor="start" x="333.5" y="-1013.46" font-family="Helvetica,sans-Serif" font-size="10.00">Threads::Atomic&lt; Coords</text>
<text text-anchor="middle" x="390" y="-1000.46" font-family="Helvetica,sans-Serif" font-size="10.00">::CoordSystem * &gt;</text>
</a>
</g>
<!-- Node1&#45;&gt;Node24 -->
<g id="edge46" class="edge"><title>Node1&#45;&gt;Node24</title>
<path fill="none" stroke="orange" stroke-dasharray="5,2" d="M110.297,-1048.78C117.57,-1047.22 124.955,-1045.74 132,-1044.46 197.498,-1032.62 273.007,-1022.82 325.34,-1016.63"/>
<polygon fill="orange" stroke="orange" points="109.512,-1045.36 100.492,-1050.92 111.009,-1052.2 109.512,-1045.36"/>
<text text-anchor="middle" x="206" y="-1048.46" font-family="Helvetica,sans-Serif" font-size="10.00"> &lt; Coords::CoordSystem * &gt;</text>
</g>
<!-- Node25 -->
<g id="node49" class="node"><title>Node25</title>
<a xlink:href="classThreads_1_1Atomic.html" target="_top" xlink:title="Threads::Atomic\&lt; visBase\l::Transformation * \&gt;">
<polygon fill="white" stroke="black" points="323.5,-940.462 323.5,-974.462 456.5,-974.462 456.5,-940.462 323.5,-940.462"/>
<text text-anchor="start" x="331.5" y="-961.462" font-family="Helvetica,sans-Serif" font-size="10.00">Threads::Atomic&lt; visBase</text>
<text text-anchor="middle" x="390" y="-948.462" font-family="Helvetica,sans-Serif" font-size="10.00">::Transformation * &gt;</text>
</a>
</g>
<!-- Node1&#45;&gt;Node25 -->
<g id="edge48" class="edge"><title>Node1&#45;&gt;Node25</title>
<path fill="none" stroke="orange" stroke-dasharray="5,2" d="M75.1954,-1043.67C89.4762,-1030.76 110.482,-1013.94 132,-1004.46 193.454,-977.384 269.741,-965.906 323.367,-961.041"/>
<polygon fill="orange" stroke="orange" points="72.5392,-1041.36 67.6112,-1050.74 77.3124,-1046.48 72.5392,-1041.36"/>
<text text-anchor="middle" x="206" y="-1008.46" font-family="Helvetica,sans-Serif" font-size="10.00"> &lt; visBase::Transformation * &gt;</text>
</g>
<!-- Node26 -->
<g id="node51" class="node"><title>Node26</title>
<a xlink:href="classThreads_1_1Atomic.html" target="_top" xlink:title="Threads::Atomic\&lt; Geometry\l::PrimitiveSetCreator * \&gt;">
<polygon fill="white" stroke="black" points="320,-888.462 320,-922.462 460,-922.462 460,-888.462 320,-888.462"/>
<text text-anchor="start" x="328" y="-909.462" font-family="Helvetica,sans-Serif" font-size="10.00">Threads::Atomic&lt; Geometry</text>
<text text-anchor="middle" x="390" y="-896.462" font-family="Helvetica,sans-Serif" font-size="10.00">::PrimitiveSetCreator * &gt;</text>
</a>
</g>
<!-- Node1&#45;&gt;Node26 -->
<g id="edge50" class="edge"><title>Node1&#45;&gt;Node26</title>
<path fill="none" stroke="orange" stroke-dasharray="5,2" d="M62.9371,-1041.08C72.4342,-1012.46 93.9582,-961.114 132,-936.462 187.654,-900.398 264.462,-895.53 319.78,-897.922"/>
<polygon fill="orange" stroke="orange" points="59.5314,-1040.24 59.8768,-1050.83 66.2103,-1042.34 59.5314,-1040.24"/>
<text text-anchor="start" x="148.5" y="-953.462" font-family="Helvetica,sans-Serif" font-size="10.00"> &lt; Geometry::PrimitiveSet</text>
<text text-anchor="middle" x="206" y="-940.462" font-family="Helvetica,sans-Serif" font-size="10.00">Creator * &gt;</text>
</g>
<!-- Node27 -->
<g id="node53" class="node"><title>Node27</title>
<a xlink:href="classThreads_1_1Atomic.html" target="_top" xlink:title="Threads::Atomic\&lt; visBase\l::Coordinates * \&gt;">
<polygon fill="white" stroke="black" points="323.5,-836.462 323.5,-870.462 456.5,-870.462 456.5,-836.462 323.5,-836.462"/>
<text text-anchor="start" x="331.5" y="-857.462" font-family="Helvetica,sans-Serif" font-size="10.00">Threads::Atomic&lt; visBase</text>
<text text-anchor="middle" x="390" y="-844.462" font-family="Helvetica,sans-Serif" font-size="10.00">::Coordinates * &gt;</text>
</a>
</g>
<!-- Node1&#45;&gt;Node27 -->
<g id="edge52" class="edge"><title>Node1&#45;&gt;Node27</title>
<path fill="none" stroke="orange" stroke-dasharray="5,2" d="M58.9019,-1040.53C63.6356,-1001.84 79.6489,-919.531 132,-880.462 186.681,-839.654 267,-837.69 323.461,-842.887"/>
<polygon fill="orange" stroke="orange" points="55.4054,-1040.31 57.8057,-1050.63 62.3645,-1041.07 55.4054,-1040.31"/>
<text text-anchor="middle" x="206" y="-884.462" font-family="Helvetica,sans-Serif" font-size="10.00"> &lt; visBase::Coordinates * &gt;</text>
</g>
<!-- Node28 -->
<g id="node55" class="node"><title>Node28</title>
<a xlink:href="classThreads_1_1Atomic.html" target="_top" xlink:title="Threads::Atomic\&lt; EnumDef\lImpl\&lt; Type \&gt; * \&gt;">
<polygon fill="white" stroke="black" points="320.5,-784.462 320.5,-818.462 459.5,-818.462 459.5,-784.462 320.5,-784.462"/>
<text text-anchor="start" x="328.5" y="-805.462" font-family="Helvetica,sans-Serif" font-size="10.00">Threads::Atomic&lt; EnumDef</text>
<text text-anchor="middle" x="390" y="-792.462" font-family="Helvetica,sans-Serif" font-size="10.00">Impl&lt; Type &gt; * &gt;</text>
</a>
</g>
<!-- Node1&#45;&gt;Node28 -->
<g id="edge54" class="edge"><title>Node1&#45;&gt;Node28</title>
<path fill="none" stroke="orange" stroke-dasharray="5,2" d="M60.0689,-1040.74C68.6456,-985.903 94.7056,-839.267 132,-810.462 186.448,-768.409 268.36,-773.551 325.225,-784.41"/>
<polygon fill="orange" stroke="orange" points="56.5982,-1040.28 58.5473,-1050.69 63.5179,-1041.34 56.5982,-1040.28"/>
<text text-anchor="start" x="154.5" y="-827.462" font-family="Helvetica,sans-Serif" font-size="10.00"> &lt; EnumDefImpl&lt; Type</text>
<text text-anchor="middle" x="206" y="-814.462" font-family="Helvetica,sans-Serif" font-size="10.00"> &gt; * &gt;</text>
</g>
<!-- Node29 -->
<g id="node57" class="node"><title>Node29</title>
<a xlink:href="classThreads_1_1Atomic.html" target="_top" xlink:title="Threads::Atomic\&lt; visBase\l::Normals * \&gt;">
<polygon fill="white" stroke="black" points="323.5,-732.462 323.5,-766.462 456.5,-766.462 456.5,-732.462 323.5,-732.462"/>
<text text-anchor="start" x="331.5" y="-753.462" font-family="Helvetica,sans-Serif" font-size="10.00">Threads::Atomic&lt; visBase</text>
<text text-anchor="middle" x="390" y="-740.462" font-family="Helvetica,sans-Serif" font-size="10.00">::Normals * &gt;</text>
</a>
</g>
<!-- Node1&#45;&gt;Node29 -->
<g id="edge56" class="edge"><title>Node1&#45;&gt;Node29</title>
<path fill="none" stroke="orange" stroke-dasharray="5,2" d="M58.9653,-1040.81C65.3359,-978.678 87.6214,-795.575 132,-759.462 160.249,-736.475 256.591,-738.641 323.196,-743.29"/>
<polygon fill="orange" stroke="orange" points="55.4647,-1040.64 57.9592,-1050.94 62.4304,-1041.33 55.4647,-1040.64"/>
<text text-anchor="middle" x="206" y="-763.462" font-family="Helvetica,sans-Serif" font-size="10.00"> &lt; visBase::Normals * &gt;</text>
</g>
<!-- Node30 -->
<g id="node59" class="node"><title>Node30</title>
<a xlink:href="classThreads_1_1Atomic.html" target="_top" xlink:title="Threads::Atomic\&lt; EnumDef\lImpl\&lt; Dir \&gt; * \&gt;">
<polygon fill="white" stroke="black" points="320.5,-680.462 320.5,-714.462 459.5,-714.462 459.5,-680.462 320.5,-680.462"/>
<text text-anchor="start" x="328.5" y="-701.462" font-family="Helvetica,sans-Serif" font-size="10.00">Threads::Atomic&lt; EnumDef</text>
<text text-anchor="middle" x="390" y="-688.462" font-family="Helvetica,sans-Serif" font-size="10.00">Impl&lt; Dir &gt; * &gt;</text>
</a>
</g>
<!-- Node1&#45;&gt;Node30 -->
<g id="edge58" class="edge"><title>Node1&#45;&gt;Node30</title>
<path fill="none" stroke="orange" stroke-dasharray="5,2" d="M58.2123,-1040.64C62.6901,-971.721 80.7785,-752.928 132,-709.462 184.737,-664.71 267.59,-669.531 325.12,-680.433"/>
<polygon fill="orange" stroke="orange" points="54.7141,-1040.5 57.5876,-1050.7 61.7007,-1040.94 54.7141,-1040.5"/>
<text text-anchor="start" x="159" y="-726.462" font-family="Helvetica,sans-Serif" font-size="10.00"> &lt; EnumDefImpl&lt; Dir</text>
<text text-anchor="middle" x="206" y="-713.462" font-family="Helvetica,sans-Serif" font-size="10.00"> &gt; * &gt;</text>
</g>
<!-- Node31 -->
<g id="node61" class="node"><title>Node31</title>
<a xlink:href="classThreads_1_1Atomic.html" target="_top" xlink:title="Threads::Atomic\&lt; visBase\l::Axes * \&gt;">
<polygon fill="white" stroke="black" points="323.5,-628.462 323.5,-662.462 456.5,-662.462 456.5,-628.462 323.5,-628.462"/>
<text text-anchor="start" x="331.5" y="-649.462" font-family="Helvetica,sans-Serif" font-size="10.00">Threads::Atomic&lt; visBase</text>
<text text-anchor="middle" x="390" y="-636.462" font-family="Helvetica,sans-Serif" font-size="10.00">::Axes * &gt;</text>
</a>
</g>
<!-- Node1&#45;&gt;Node31 -->
<g id="edge60" class="edge"><title>Node1&#45;&gt;Node31</title>
<path fill="none" stroke="orange" stroke-dasharray="5,2" d="M57.5683,-1040.47C60.0965,-964.626 72.9738,-706.55 132,-655.462 185.636,-609.039 271.549,-616.189 329.338,-628.418"/>
<polygon fill="orange" stroke="orange" points="54.0642,-1040.56 57.256,-1050.66 61.0609,-1040.77 54.0642,-1040.56"/>
<text text-anchor="middle" x="206" y="-659.462" font-family="Helvetica,sans-Serif" font-size="10.00"> &lt; visBase::Axes * &gt;</text>
</g>
<!-- Node32 -->
<g id="node63" class="node"><title>Node32</title>
<a xlink:href="classThreads_1_1Atomic.html" target="_top" xlink:title="Threads::Atomic\&lt; visBase\l::SceneColTab * \&gt;">
<polygon fill="white" stroke="black" points="323.5,-576.462 323.5,-610.462 456.5,-610.462 456.5,-576.462 323.5,-576.462"/>
<text text-anchor="start" x="331.5" y="-597.462" font-family="Helvetica,sans-Serif" font-size="10.00">Threads::Atomic&lt; visBase</text>
<text text-anchor="middle" x="390" y="-584.462" font-family="Helvetica,sans-Serif" font-size="10.00">::SceneColTab * &gt;</text>
</a>
</g>
<!-- Node1&#45;&gt;Node32 -->
<g id="edge62" class="edge"><title>Node1&#45;&gt;Node32</title>
<path fill="none" stroke="orange" stroke-dasharray="5,2" d="M58.8276,-1040.88C66.6226,-955.346 98.2356,-631.081 132,-601.462 186.407,-553.736 274.847,-563.043 332.727,-576.417"/>
<polygon fill="orange" stroke="orange" points="55.3356,-1040.63 57.9237,-1050.91 62.3074,-1041.26 55.3356,-1040.63"/>
<text text-anchor="middle" x="206" y="-605.462" font-family="Helvetica,sans-Serif" font-size="10.00"> &lt; visBase::SceneColTab * &gt;</text>
</g>
<!-- Node33 -->
<g id="node65" class="node"><title>Node33</title>
<a xlink:href="classThreads_1_1Atomic.html" target="_top" xlink:title="Threads::Atomic\&lt; visBase\l::Camera * \&gt;">
<polygon fill="white" stroke="black" points="323.5,-524.462 323.5,-558.462 456.5,-558.462 456.5,-524.462 323.5,-524.462"/>
<text text-anchor="start" x="331.5" y="-545.462" font-family="Helvetica,sans-Serif" font-size="10.00">Threads::Atomic&lt; visBase</text>
<text text-anchor="middle" x="390" y="-532.462" font-family="Helvetica,sans-Serif" font-size="10.00">::Camera * &gt;</text>
</a>
</g>
<!-- Node1&#45;&gt;Node33 -->
<g id="edge64" class="edge"><title>Node1&#45;&gt;Node33</title>
<path fill="none" stroke="orange" stroke-dasharray="5,2" d="M58.486,-1040.58C65.2433,-948.518 94.3731,-581.89 132,-548.462 159.301,-524.208 256.432,-528.002 323.4,-533.96"/>
<polygon fill="orange" stroke="orange" points="54.9902,-1040.4 57.7582,-1050.63 61.9719,-1040.91 54.9902,-1040.4"/>
<text text-anchor="middle" x="206" y="-552.462" font-family="Helvetica,sans-Serif" font-size="10.00"> &lt; visBase::Camera * &gt;</text>
</g>
<!-- Node34 -->
<g id="node67" class="node"><title>Node34</title>
<a xlink:href="classThreads_1_1Atomic.html" target="_top" xlink:title="Threads::Atomic\&lt; QPixmap * \&gt;">
<polygon fill="white" stroke="black" points="313,-484.962 313,-505.962 467,-505.962 467,-484.962 313,-484.962"/>
<text text-anchor="middle" x="390" y="-492.962" font-family="Helvetica,sans-Serif" font-size="10.00">Threads::Atomic&lt; QPixmap * &gt;</text>
</a>
</g>
<!-- Node1&#45;&gt;Node34 -->
<g id="edge66" class="edge"><title>Node1&#45;&gt;Node34</title>
<path fill="none" stroke="orange" stroke-dasharray="5,2" d="M58.3036,-1040.7C64.5141,-944.994 92.4473,-549.34 132,-512.462 157.404,-488.777 246.371,-487.515 312.771,-490.221"/>
<polygon fill="orange" stroke="orange" points="54.8005,-1040.64 57.6545,-1050.85 61.7862,-1041.09 54.8005,-1040.64"/>
<text text-anchor="middle" x="206" y="-516.462" font-family="Helvetica,sans-Serif" font-size="10.00"> &lt; QPixmap * &gt;</text>
</g>
<!-- Node35 -->
<g id="node69" class="node"><title>Node35</title>
<a xlink:href="classThreads_1_1Atomic.html" target="_top" xlink:title="Threads::Atomic\&lt; EnumDef\lImpl\&lt; Pol2D \&gt; * \&gt;">
<polygon fill="white" stroke="black" points="320.5,-432.462 320.5,-466.462 459.5,-466.462 459.5,-432.462 320.5,-432.462"/>
<text text-anchor="start" x="328.5" y="-453.462" font-family="Helvetica,sans-Serif" font-size="10.00">Threads::Atomic&lt; EnumDef</text>
<text text-anchor="middle" x="390" y="-440.462" font-family="Helvetica,sans-Serif" font-size="10.00">Impl&lt; Pol2D &gt; * &gt;</text>
</a>
</g>
<!-- Node1&#45;&gt;Node35 -->
<g id="edge68" class="edge"><title>Node1&#45;&gt;Node35</title>
<path fill="none" stroke="orange" stroke-dasharray="5,2" d="M58.0175,-1040.6C63.1798,-938.931 87.9685,-498.745 132,-458.462 158.579,-434.147 253.507,-436.819 320.467,-442.174"/>
<polygon fill="orange" stroke="orange" points="54.5112,-1040.64 57.5081,-1050.8 61.5024,-1040.99 54.5112,-1040.64"/>
<text text-anchor="start" x="151.5" y="-475.462" font-family="Helvetica,sans-Serif" font-size="10.00"> &lt; EnumDefImpl&lt; Pol2D</text>
<text text-anchor="middle" x="206" y="-462.462" font-family="Helvetica,sans-Serif" font-size="10.00"> &gt; * &gt;</text>
</g>
<!-- Node36 -->
<g id="node71" class="node"><title>Node36</title>
<a xlink:href="classThreads_1_1Atomic.html" target="_top" xlink:title="Threads::Atomic\&lt; visBase\l::DepthTabPlaneDragger * \&gt;">
<polygon fill="white" stroke="black" points="320,-380.462 320,-414.462 460,-414.462 460,-380.462 320,-380.462"/>
<text text-anchor="start" x="328" y="-401.462" font-family="Helvetica,sans-Serif" font-size="10.00">Threads::Atomic&lt; visBase</text>
<text text-anchor="middle" x="390" y="-388.462" font-family="Helvetica,sans-Serif" font-size="10.00">::DepthTabPlaneDragger * &gt;</text>
</a>
</g>
<!-- Node1&#45;&gt;Node36 -->
<g id="edge70" class="edge"><title>Node1&#45;&gt;Node36</title>
<path fill="none" stroke="orange" stroke-dasharray="5,2" d="M57.8174,-1040.58C62.199,-933.845 84.499,-452.672 132,-408.462 184.673,-359.439 272.711,-367.563 331.065,-380.446"/>
<polygon fill="orange" stroke="orange" points="54.3145,-1040.58 57.4095,-1050.71 61.3089,-1040.86 54.3145,-1040.58"/>
<text text-anchor="start" x="145.5" y="-425.462" font-family="Helvetica,sans-Serif" font-size="10.00"> &lt; visBase::DepthTabPlane</text>
<text text-anchor="middle" x="206" y="-412.462" font-family="Helvetica,sans-Serif" font-size="10.00">Dragger * &gt;</text>
</g>
<!-- Node37 -->
<g id="node73" class="node"><title>Node37</title>
<a xlink:href="classThreads_1_1Atomic.html" target="_top" xlink:title="Threads::Atomic\&lt; bool \&gt;">
<polygon fill="white" stroke="black" points="327.5,-340.962 327.5,-361.962 452.5,-361.962 452.5,-340.962 327.5,-340.962"/>
<text text-anchor="middle" x="390" y="-348.962" font-family="Helvetica,sans-Serif" font-size="10.00">Threads::Atomic&lt; bool &gt;</text>
</a>
</g>
<!-- Node1&#45;&gt;Node37 -->
<g id="edge72" class="edge"><title>Node1&#45;&gt;Node37</title>
<path fill="none" stroke="orange" stroke-dasharray="5,2" d="M57.5925,-1040.58C60.9838,-928.441 79.6552,-400.923 132,-353.462 159.584,-328.452 260.15,-335.082 327.273,-342.805"/>
<polygon fill="orange" stroke="orange" points="54.085,-1040.79 57.2891,-1050.89 61.082,-1041 54.085,-1040.79"/>
<text text-anchor="middle" x="206" y="-357.462" font-family="Helvetica,sans-Serif" font-size="10.00"> &lt; bool &gt;</text>
</g>
<!-- Node38 -->
<g id="node75" class="node"><title>Node38</title>
<a xlink:href="classThreads_1_1Atomic.html" target="_top" xlink:title="Threads::Atomic\&lt; TaskRunner * \&gt;">
<polygon fill="white" stroke="black" points="306.5,-300.962 306.5,-321.962 473.5,-321.962 473.5,-300.962 306.5,-300.962"/>
<text text-anchor="middle" x="390" y="-308.962" font-family="Helvetica,sans-Serif" font-size="10.00">Threads::Atomic&lt; TaskRunner * &gt;</text>
</a>
</g>
<!-- Node1&#45;&gt;Node38 -->
<g id="edge74" class="edge"><title>Node1&#45;&gt;Node38</title>
<path fill="none" stroke="orange" stroke-dasharray="5,2" d="M57.4977,-1040.66C60.4604,-925.463 77.5351,-369.065 132,-318.462 156.579,-295.626 240.685,-297.111 306.265,-302.278"/>
<polygon fill="orange" stroke="orange" points="53.9921,-1040.85 57.2414,-1050.93 60.9899,-1041.02 53.9921,-1040.85"/>
<text text-anchor="middle" x="206" y="-322.462" font-family="Helvetica,sans-Serif" font-size="10.00"> &lt; TaskRunner * &gt;</text>
</g>
<!-- Node39 -->
<g id="node77" class="node"><title>Node39</title>
<a xlink:href="classThreads_1_1Atomic.html" target="_top" xlink:title="Threads::Atomic\&lt; float * \&gt;">
<polygon fill="white" stroke="black" points="324,-260.962 324,-281.962 456,-281.962 456,-260.962 324,-260.962"/>
<text text-anchor="middle" x="390" y="-268.962" font-family="Helvetica,sans-Serif" font-size="10.00">Threads::Atomic&lt; float * &gt;</text>
</a>
</g>
<!-- Node1&#45;&gt;Node39 -->
<g id="edge76" class="edge"><title>Node1&#45;&gt;Node39</title>
<path fill="none" stroke="orange" stroke-dasharray="5,2" d="M57.4089,-1040.38C59.9295,-921.196 75.1686,-335.137 132,-281.462 158.641,-256.301 256.491,-259.2 323.725,-264.581"/>
<polygon fill="orange" stroke="orange" points="53.9033,-1040.63 57.1984,-1050.7 60.9018,-1040.77 53.9033,-1040.63"/>
<text text-anchor="middle" x="206" y="-285.462" font-family="Helvetica,sans-Serif" font-size="10.00"> &lt; float * &gt;</text>
</g>
<!-- Node40 -->
<g id="node79" class="node"><title>Node40</title>
<a xlink:href="classThreads_1_1Atomic.html" target="_top" xlink:title="Threads::Atomic\&lt; OD\l::RGBImageLoader * \&gt;">
<polygon fill="white" stroke="black" points="332,-208.462 332,-242.462 448,-242.462 448,-208.462 332,-208.462"/>
<text text-anchor="start" x="340" y="-229.462" font-family="Helvetica,sans-Serif" font-size="10.00">Threads::Atomic&lt; OD</text>
<text text-anchor="middle" x="390" y="-216.462" font-family="Helvetica,sans-Serif" font-size="10.00">::RGBImageLoader * &gt;</text>
</a>
</g>
<!-- Node1&#45;&gt;Node40 -->
<g id="edge78" class="edge"><title>Node1&#45;&gt;Node40</title>
<path fill="none" stroke="orange" stroke-dasharray="5,2" d="M57.334,-1040.54C59.488,-918.402 73.2457,-300.951 132,-243.462 159.319,-216.731 264.409,-217.594 331.746,-221.171"/>
<polygon fill="orange" stroke="orange" points="53.8306,-1040.72 57.1607,-1050.78 60.8296,-1040.84 53.8306,-1040.72"/>
<text text-anchor="middle" x="206" y="-247.462" font-family="Helvetica,sans-Serif" font-size="10.00"> &lt; OD::RGBImageLoader * &gt;</text>
</g>
<!-- Node41 -->
<g id="node81" class="node"><title>Node41</title>
<a xlink:href="classThreads_1_1Atomic.html" target="_top" xlink:title="Threads::Atomic\&lt; EnumDef\lImpl\&lt; Month \&gt; * \&gt;">
<polygon fill="white" stroke="black" points="320.5,-156.462 320.5,-190.462 459.5,-190.462 459.5,-156.462 320.5,-156.462"/>
<text text-anchor="start" x="328.5" y="-177.462" font-family="Helvetica,sans-Serif" font-size="10.00">Threads::Atomic&lt; EnumDef</text>
<text text-anchor="middle" x="390" y="-164.462" font-family="Helvetica,sans-Serif" font-size="10.00">Impl&lt; Month &gt; * &gt;</text>
</a>
</g>
<!-- Node1&#45;&gt;Node41 -->
<g id="edge80" class="edge"><title>Node1&#45;&gt;Node41</title>
<path fill="none" stroke="orange" stroke-dasharray="5,2" d="M57.1993,-1040.33C58.609,-912.847 68.9525,-249.792 132,-188.462 182.493,-139.345 268.091,-144.832 326.744,-156.42"/>
<polygon fill="orange" stroke="orange" points="53.6961,-1040.63 57.0921,-1050.67 60.6957,-1040.7 53.6961,-1040.63"/>
<text text-anchor="start" x="151.5" y="-205.462" font-family="Helvetica,sans-Serif" font-size="10.00"> &lt; EnumDefImpl&lt; Month</text>
<text text-anchor="middle" x="206" y="-192.462" font-family="Helvetica,sans-Serif" font-size="10.00"> &gt; * &gt;</text>
</g>
<!-- Node42 -->
<g id="node83" class="node"><title>Node42</title>
<a xlink:href="classThreads_1_1Atomic.html" target="_top" xlink:title="Threads::Atomic\&lt; char * \&gt;">
<polygon fill="white" stroke="black" points="324,-116.962 324,-137.962 456,-137.962 456,-116.962 324,-116.962"/>
<text text-anchor="middle" x="390" y="-124.962" font-family="Helvetica,sans-Serif" font-size="10.00">Threads::Atomic&lt; char * &gt;</text>
</a>
</g>
<!-- Node1&#45;&gt;Node42 -->
<g id="edge82" class="edge"><title>Node1&#45;&gt;Node42</title>
<path fill="none" stroke="orange" stroke-dasharray="5,2" d="M57.895,-1040.58C63.7676,-905.852 97.6164,-163.682 132,-131.462 158.723,-106.422 256.55,-111.735 323.757,-118.844"/>
<polygon fill="orange" stroke="orange" points="54.3894,-1040.64 57.4535,-1050.78 61.3828,-1040.94 54.3894,-1040.64"/>
<text text-anchor="middle" x="206" y="-135.462" font-family="Helvetica,sans-Serif" font-size="10.00"> &lt; char * &gt;</text>
</g>
<!-- Node43 -->
<g id="node85" class="node"><title>Node43</title>
<a xlink:href="classThreads_1_1Atomic.html" target="_top" xlink:title="Threads::Atomic\&lt; visBase\l::DataObjectGroup * \&gt;">
<polygon fill="white" stroke="black" points="323.5,-64.4623 323.5,-98.4623 456.5,-98.4623 456.5,-64.4623 323.5,-64.4623"/>
<text text-anchor="start" x="331.5" y="-85.4623" font-family="Helvetica,sans-Serif" font-size="10.00">Threads::Atomic&lt; visBase</text>
<text text-anchor="middle" x="390" y="-72.4623" font-family="Helvetica,sans-Serif" font-size="10.00">::DataObjectGroup * &gt;</text>
</a>
</g>
<!-- Node1&#45;&gt;Node43 -->
<g id="edge84" class="edge"><title>Node1&#45;&gt;Node43</title>
<path fill="none" stroke="orange" stroke-dasharray="5,2" d="M57.8446,-1040.65C63.5186,-903.122 96.9274,-129.728 132,-95.4623 182.937,-45.6976 269.913,-52.2691 328.643,-64.4436"/>
<polygon fill="orange" stroke="orange" points="54.3448,-1040.57 57.4324,-1050.71 61.3389,-1040.86 54.3448,-1040.57"/>
<text text-anchor="middle" x="206" y="-99.4623" font-family="Helvetica,sans-Serif" font-size="10.00"> &lt; visBase::DataObjectGroup * &gt;</text>
</g>
<!-- Node44 -->
<g id="node87" class="node"><title>Node44</title>
<a xlink:href="classThreads_1_1Atomic.html" target="_top" xlink:title="Threads::Atomic\&lt; visBase\l::Text2 * \&gt;">
<polygon fill="white" stroke="black" points="323.5,-12.4623 323.5,-46.4623 456.5,-46.4623 456.5,-12.4623 323.5,-12.4623"/>
<text text-anchor="start" x="331.5" y="-33.4623" font-family="Helvetica,sans-Serif" font-size="10.00">Threads::Atomic&lt; visBase</text>
<text text-anchor="middle" x="390" y="-20.4623" font-family="Helvetica,sans-Serif" font-size="10.00">::Text2 * &gt;</text>
</a>
</g>
<!-- Node1&#45;&gt;Node44 -->
<g id="edge86" class="edge"><title>Node1&#45;&gt;Node44</title>
<path fill="none" stroke="orange" stroke-dasharray="5,2" d="M57.7406,-1040.74C62.909,-898.8 94.4826,-74.5691 132,-38.4623 185.041,12.5848 276.226,1.83298 334.774,-12.4308"/>
<polygon fill="orange" stroke="orange" points="54.2426,-1040.62 57.3792,-1050.74 61.2381,-1040.88 54.2426,-1040.62"/>
<text text-anchor="middle" x="206" y="-42.4623" font-family="Helvetica,sans-Serif" font-size="10.00"> &lt; visBase::Text2 * &gt;</text>
</g>
</g>
</svg>
