<?xml version="1.0" encoding="UTF-8" standalone="no"?>
<!DOCTYPE svg PUBLIC "-//W3C//DTD SVG 1.1//EN"
 "http://www.w3.org/Graphics/SVG/1.1/DTD/svg11.dtd">
<!-- Generated by graphviz version 2.26.0 (20091210.2329)
 -->
<!-- Title: Attrib::BinIDParam Pages: 1 -->
<svg width="106pt" height="146pt"
 viewBox="0.00 0.00 106.00 146.00" xmlns="http://www.w3.org/2000/svg" xmlns:xlink="http://www.w3.org/1999/xlink">
<g id="graph1" class="graph" transform="scale(1 1) rotate(0) translate(4 142)">
<title>Attrib::BinIDParam</title>
<polygon fill="white" stroke="white" points="-4,5 -4,-142 103,-142 103,5 -4,5"/>
<!-- Node1 -->
<g id="node1" class="node"><title>Node1</title>
<polygon fill="#bfbfbf" stroke="black" points="-0.5,-0.5 -0.5,-21.5 98.5,-21.5 98.5,-0.5 -0.5,-0.5"/>
<text text-anchor="middle" x="49" y="-8.5" font-family="Helvetica,sans-Serif" font-size="10.00">Attrib::BinIDParam</text>
</g>
<!-- Node2 -->
<g id="node2" class="node"><title>Node2</title>
<a xlink:href="classAttrib_1_1ValParam.html" target="_top" xlink:title="Attribute Value Parameter. ">
<polygon fill="white" stroke="black" points="4.5,-58.5 4.5,-79.5 93.5,-79.5 93.5,-58.5 4.5,-58.5"/>
<text text-anchor="middle" x="49" y="-66.5" font-family="Helvetica,sans-Serif" font-size="10.00">Attrib::ValParam</text>
</a>
</g>
<!-- Node2&#45;&gt;Node1 -->
<g id="edge2" class="edge"><title>Node2&#45;&gt;Node1</title>
<path fill="none" stroke="midnightblue" d="M49,-48.1906C49,-39.1684 49,-28.9941 49,-21.5707"/>
<polygon fill="midnightblue" stroke="midnightblue" points="45.5001,-48.3619 49,-58.3619 52.5001,-48.3619 45.5001,-48.3619"/>
</g>
<!-- Node3 -->
<g id="node4" class="node"><title>Node3</title>
<a xlink:href="classAttrib_1_1Param.html" target="_top" xlink:title="A parameter that is used by an attribute. ">
<polygon fill="white" stroke="black" points="12,-116.5 12,-137.5 86,-137.5 86,-116.5 12,-116.5"/>
<text text-anchor="middle" x="49" y="-124.5" font-family="Helvetica,sans-Serif" font-size="10.00">Attrib::Param</text>
</a>
</g>
<!-- Node3&#45;&gt;Node2 -->
<g id="edge4" class="edge"><title>Node3&#45;&gt;Node2</title>
<path fill="none" stroke="midnightblue" d="M49,-106.191C49,-97.1684 49,-86.9941 49,-79.5707"/>
<polygon fill="midnightblue" stroke="midnightblue" points="45.5001,-106.362 49,-116.362 52.5001,-106.362 45.5001,-106.362"/>
</g>
</g>
</svg>
