<?xml version="1.0" encoding="UTF-8" standalone="no"?>
<!DOCTYPE svg PUBLIC "-//W3C//DTD SVG 1.1//EN"
 "http://www.w3.org/Graphics/SVG/1.1/DTD/svg11.dtd">
<!-- Generated by graphviz version 2.26.0 (20091210.2329)
 -->
<!-- Title: ArrayNDProbDenFunc Pages: 1 -->
<svg width="430pt" height="88pt"
 viewBox="0.00 0.00 430.00 88.00" xmlns="http://www.w3.org/2000/svg" xmlns:xlink="http://www.w3.org/1999/xlink">
<g id="graph1" class="graph" transform="scale(1 1) rotate(0) translate(4 84)">
<title>ArrayNDProbDenFunc</title>
<polygon fill="white" stroke="white" points="-4,5 -4,-84 427,-84 427,5 -4,5"/>
<!-- Node1 -->
<g id="node1" class="node"><title>Node1</title>
<polygon fill="#bfbfbf" stroke="black" points="152.5,-58.5 152.5,-79.5 267.5,-79.5 267.5,-58.5 152.5,-58.5"/>
<text text-anchor="middle" x="210" y="-66.5" font-family="Helvetica,sans-Serif" font-size="10.00">ArrayNDProbDenFunc</text>
</g>
<!-- Node2 -->
<g id="node3" class="node"><title>Node2</title>
<a xlink:href="classSampled1DProbDenFunc.html" target="_top" xlink:title="One dimensional PDF based on binned data. ">
<polygon fill="white" stroke="black" points="0,-0.5 0,-21.5 128,-21.5 128,-0.5 0,-0.5"/>
<text text-anchor="middle" x="64" y="-8.5" font-family="Helvetica,sans-Serif" font-size="10.00">Sampled1DProbDenFunc</text>
</a>
</g>
<!-- Node1&#45;&gt;Node2 -->
<g id="edge2" class="edge"><title>Node1&#45;&gt;Node2</title>
<path fill="none" stroke="midnightblue" d="M174.132,-54.7509C148.349,-44.5086 114.145,-30.9206 90.7362,-21.6212"/>
<polygon fill="midnightblue" stroke="midnightblue" points="172.975,-58.0574 183.561,-58.4966 175.559,-51.5519 172.975,-58.0574"/>
</g>
<!-- Node3 -->
<g id="node5" class="node"><title>Node3</title>
<a xlink:href="classSampled2DProbDenFunc.html" target="_top" xlink:title="Two dimensional PDF based on binned data. ">
<polygon fill="white" stroke="black" points="146,-0.5 146,-21.5 274,-21.5 274,-0.5 146,-0.5"/>
<text text-anchor="middle" x="210" y="-8.5" font-family="Helvetica,sans-Serif" font-size="10.00">Sampled2DProbDenFunc</text>
</a>
</g>
<!-- Node1&#45;&gt;Node3 -->
<g id="edge4" class="edge"><title>Node1&#45;&gt;Node3</title>
<path fill="none" stroke="midnightblue" d="M210,-48.1906C210,-39.1684 210,-28.9941 210,-21.5707"/>
<polygon fill="midnightblue" stroke="midnightblue" points="206.5,-48.3619 210,-58.3619 213.5,-48.3619 206.5,-48.3619"/>
</g>
<!-- Node4 -->
<g id="node7" class="node"><title>Node4</title>
<a xlink:href="classSampledNDProbDenFunc.html" target="_top" xlink:title="Multi&#45;dimensional PDF based on binned data. ">
<polygon fill="white" stroke="black" points="292,-0.5 292,-21.5 422,-21.5 422,-0.5 292,-0.5"/>
<text text-anchor="middle" x="357" y="-8.5" font-family="Helvetica,sans-Serif" font-size="10.00">SampledNDProbDenFunc</text>
</a>
</g>
<!-- Node1&#45;&gt;Node4 -->
<g id="edge6" class="edge"><title>Node1&#45;&gt;Node4</title>
<path fill="none" stroke="midnightblue" d="M246.114,-54.7509C272.073,-44.5086 306.512,-30.9206 330.081,-21.6212"/>
<polygon fill="midnightblue" stroke="midnightblue" points="244.638,-51.5706 236.621,-58.4966 247.207,-58.0821 244.638,-51.5706"/>
</g>
</g>
</svg>
