<?xml version="1.0" encoding="UTF-8" standalone="no"?>
<!DOCTYPE svg PUBLIC "-//W3C//DTD SVG 1.1//EN"
 "http://www.w3.org/Graphics/SVG/1.1/DTD/svg11.dtd">
<!-- Generated by graphviz version 2.26.0 (20091210.2329)
 -->
<!-- Title: SEGY::DirectReader Pages: 1 -->
<svg width="448pt" height="88pt"
 viewBox="0.00 0.00 448.00 88.00" xmlns="http://www.w3.org/2000/svg" xmlns:xlink="http://www.w3.org/1999/xlink">
<g id="graph1" class="graph" transform="scale(1 1) rotate(0) translate(4 84)">
<title>SEGY::DirectReader</title>
<polygon fill="white" stroke="white" points="-4,5 -4,-84 445,-84 445,5 -4,5"/>
<!-- Node1 -->
<g id="node1" class="node"><title>Node1</title>
<polygon fill="#bfbfbf" stroke="black" points="156,-58.5 156,-79.5 264,-79.5 264,-58.5 156,-58.5"/>
<text text-anchor="middle" x="210" y="-66.5" font-family="Helvetica,sans-Serif" font-size="10.00">SEGY::DirectReader</text>
</g>
<!-- Node2 -->
<g id="node3" class="node"><title>Node2</title>
<a xlink:href="classSEGYDirect2DPSReader.html" target="_top" xlink:title="reads from 2D PS data store reader based on SEG&#45;Y files ">
<polygon fill="white" stroke="black" points="0,-0.5 0,-21.5 128,-21.5 128,-0.5 0,-0.5"/>
<text text-anchor="middle" x="64" y="-8.5" font-family="Helvetica,sans-Serif" font-size="10.00">SEGYDirect2DPSReader</text>
</a>
</g>
<!-- Node1&#45;&gt;Node2 -->
<g id="edge2" class="edge"><title>Node1&#45;&gt;Node2</title>
<path fill="none" stroke="midnightblue" d="M174.132,-54.7509C148.349,-44.5086 114.145,-30.9206 90.7362,-21.6212"/>
<polygon fill="midnightblue" stroke="midnightblue" points="172.975,-58.0574 183.561,-58.4966 175.559,-51.5519 172.975,-58.0574"/>
</g>
<!-- Node3 -->
<g id="node5" class="node"><title>Node3</title>
<a xlink:href="classSEGYDirect3DPSReader.html" target="_top" xlink:title="reads from 3D PS data store reader based on SEG&#45;Y files ">
<polygon fill="white" stroke="black" points="146,-0.5 146,-21.5 274,-21.5 274,-0.5 146,-0.5"/>
<text text-anchor="middle" x="210" y="-8.5" font-family="Helvetica,sans-Serif" font-size="10.00">SEGYDirect3DPSReader</text>
</a>
</g>
<!-- Node1&#45;&gt;Node3 -->
<g id="edge4" class="edge"><title>Node1&#45;&gt;Node3</title>
<path fill="none" stroke="midnightblue" d="M210,-48.1906C210,-39.1684 210,-28.9941 210,-21.5707"/>
<polygon fill="midnightblue" stroke="midnightblue" points="206.5,-48.3619 210,-58.3619 213.5,-48.3619 206.5,-48.3619"/>
</g>
<!-- Node4 -->
<g id="node7" class="node"><title>Node4</title>
<a xlink:href="classSEGYDirectSeisTrcTranslator.html" target="_top" xlink:title="SEGYDirectSeisTrcTranslator">
<polygon fill="white" stroke="black" points="292,-0.5 292,-21.5 440,-21.5 440,-0.5 292,-0.5"/>
<text text-anchor="middle" x="366" y="-8.5" font-family="Helvetica,sans-Serif" font-size="10.00">SEGYDirectSeisTrcTranslator</text>
</a>
</g>
<!-- Node1&#45;&gt;Node4 -->
<g id="edge6" class="edge"><title>Node1&#45;&gt;Node4</title>
<path fill="none" stroke="midnightblue" d="M247.63,-55.0095C275.352,-44.7023 312.468,-30.903 337.697,-21.5231"/>
<polygon fill="midnightblue" stroke="midnightblue" points="246.404,-51.7311 238.25,-58.4966 248.843,-58.2923 246.404,-51.7311"/>
</g>
</g>
</svg>
