<?xml version="1.0" encoding="UTF-8" standalone="no"?>
<!DOCTYPE svg PUBLIC "-//W3C//DTD SVG 1.1//EN"
 "http://www.w3.org/Graphics/SVG/1.1/DTD/svg11.dtd">
<!-- Generated by graphviz version 2.26.0 (20091210.2329)
 -->
<!-- Title: Geometry::RowColSurface Pages: 1 -->
<svg width="752pt" height="150pt"
 viewBox="0.00 0.00 752.00 150.00" xmlns="http://www.w3.org/2000/svg" xmlns:xlink="http://www.w3.org/1999/xlink">
<g id="graph1" class="graph" transform="scale(1 1) rotate(0) translate(4 146)">
<title>Geometry::RowColSurface</title>
<polygon fill="white" stroke="white" points="-4,5 -4,-146 749,-146 749,5 -4,5"/>
<!-- Node1 -->
<g id="node1" class="node"><title>Node1</title>
<polygon fill="#bfbfbf" stroke="black" points="240,-60.5 240,-81.5 374,-81.5 374,-60.5 240,-60.5"/>
<text text-anchor="middle" x="307" y="-68.5" font-family="Helvetica,sans-Serif" font-size="10.00">Geometry::RowColSurface</text>
</g>
<!-- Node4 -->
<g id="node7" class="node"><title>Node4</title>
<a xlink:href="classGeometry_1_1FaultStickSet.html" target="_top" xlink:title="Geometry::FaultStickSet">
<polygon fill="white" stroke="black" points="420.5,-120.5 420.5,-141.5 545.5,-141.5 545.5,-120.5 420.5,-120.5"/>
<text text-anchor="middle" x="483" y="-128.5" font-family="Helvetica,sans-Serif" font-size="10.00">Geometry::FaultStickSet</text>
</a>
</g>
<!-- Node1&#45;&gt;Node4 -->
<g id="edge6" class="edge"><title>Node1&#45;&gt;Node4</title>
<path fill="none" stroke="midnightblue" d="M341.393,-85.38C361.261,-93.4282 386.832,-103.35 410,-111 420.107,-114.337 431.127,-117.565 441.469,-120.418"/>
<polygon fill="midnightblue" stroke="midnightblue" points="342.714,-82.1391 332.133,-81.5977 340.067,-88.6193 342.714,-82.1391"/>
</g>
<!-- Node6 -->
<g id="node11" class="node"><title>Node6</title>
<a xlink:href="classGeometry_1_1Horizon2DLine.html" target="_top" xlink:title="Geometry::Horizon2DLine">
<polygon fill="white" stroke="black" points="418,-80.5 418,-101.5 548,-101.5 548,-80.5 418,-80.5"/>
<text text-anchor="middle" x="483" y="-88.5" font-family="Helvetica,sans-Serif" font-size="10.00">Geometry::Horizon2DLine</text>
</a>
</g>
<!-- Node1&#45;&gt;Node6 -->
<g id="edge10" class="edge"><title>Node1&#45;&gt;Node6</title>
<path fill="none" stroke="midnightblue" d="M384.258,-79.7794C395.481,-81.0546 406.939,-82.3567 417.89,-83.6011"/>
<polygon fill="midnightblue" stroke="midnightblue" points="384.371,-76.2698 374.04,-78.6182 383.581,-83.225 384.371,-76.2698"/>
</g>
<!-- Node7 -->
<g id="node13" class="node"><title>Node7</title>
<a xlink:href="classGeometry_1_1ParametricSurface.html" target="_top" xlink:title="Geometry::ParametricSurface">
<polygon fill="white" stroke="black" points="410,-40.5 410,-61.5 556,-61.5 556,-40.5 410,-40.5"/>
<text text-anchor="middle" x="483" y="-48.5" font-family="Helvetica,sans-Serif" font-size="10.00">Geometry::ParametricSurface</text>
</a>
</g>
<!-- Node1&#45;&gt;Node7 -->
<g id="edge12" class="edge"><title>Node1&#45;&gt;Node7</title>
<path fill="none" stroke="midnightblue" d="M384.063,-62.2428C392.674,-61.2643 401.427,-60.2696 409.986,-59.2971"/>
<polygon fill="midnightblue" stroke="midnightblue" points="383.581,-58.775 374.04,-63.3818 384.371,-65.7302 383.581,-58.775"/>
</g>
<!-- Node10 -->
<g id="node19" class="node"><title>Node10</title>
<a xlink:href="classGeometry_1_1PolygonSurface.html" target="_top" xlink:title="Geometry::PolygonSurface">
<polygon fill="white" stroke="black" points="416,-0.5 416,-21.5 550,-21.5 550,-0.5 416,-0.5"/>
<text text-anchor="middle" x="483" y="-8.5" font-family="Helvetica,sans-Serif" font-size="10.00">Geometry::PolygonSurface</text>
</a>
</g>
<!-- Node1&#45;&gt;Node10 -->
<g id="edge18" class="edge"><title>Node1&#45;&gt;Node10</title>
<path fill="none" stroke="midnightblue" d="M341.393,-56.62C361.261,-48.5718 386.832,-38.6498 410,-31 420.107,-27.6627 431.127,-24.4351 441.469,-21.5817"/>
<polygon fill="midnightblue" stroke="midnightblue" points="340.067,-53.3807 332.133,-60.4023 342.714,-59.8609 340.067,-53.3807"/>
</g>
<!-- Node2 -->
<g id="node2" class="node"><title>Node2</title>
<a xlink:href="classGeometry_1_1Element.html" target="_top" xlink:title="Geometry::Element">
<polygon fill="white" stroke="black" points="102.5,-60.5 102.5,-81.5 203.5,-81.5 203.5,-60.5 102.5,-60.5"/>
<text text-anchor="middle" x="153" y="-68.5" font-family="Helvetica,sans-Serif" font-size="10.00">Geometry::Element</text>
</a>
</g>
<!-- Node2&#45;&gt;Node1 -->
<g id="edge2" class="edge"><title>Node2&#45;&gt;Node1</title>
<path fill="none" stroke="midnightblue" d="M214.075,-71C222.591,-71 231.378,-71 239.996,-71"/>
<polygon fill="midnightblue" stroke="midnightblue" points="213.852,-67.5001 203.852,-71 213.852,-74.5001 213.852,-67.5001"/>
</g>
<!-- Node3 -->
<g id="node4" class="node"><title>Node3</title>
<a xlink:href="classCallBacker.html" target="_top" xlink:title="To be able to send and/or receive CallBacks, inherit from this class. ">
<polygon fill="white" stroke="black" points="0.5,-60.5 0.5,-81.5 65.5,-81.5 65.5,-60.5 0.5,-60.5"/>
<text text-anchor="middle" x="33" y="-68.5" font-family="Helvetica,sans-Serif" font-size="10.00">CallBacker</text>
</a>
</g>
<!-- Node3&#45;&gt;Node2 -->
<g id="edge4" class="edge"><title>Node3&#45;&gt;Node2</title>
<path fill="none" stroke="midnightblue" d="M75.8927,-71C84.4219,-71 93.4543,-71 102.218,-71"/>
<polygon fill="midnightblue" stroke="midnightblue" points="75.7906,-67.5001 65.7905,-71 75.7905,-74.5001 75.7906,-67.5001"/>
</g>
<!-- Node5 -->
<g id="node9" class="node"><title>Node5</title>
<a xlink:href="classGeometry_1_1FaultStickSurface.html" target="_top" xlink:title="Geometry::FaultStickSurface">
<polygon fill="white" stroke="black" points="596.5,-120.5 596.5,-141.5 739.5,-141.5 739.5,-120.5 596.5,-120.5"/>
<text text-anchor="middle" x="668" y="-128.5" font-family="Helvetica,sans-Serif" font-size="10.00">Geometry::FaultStickSurface</text>
</a>
</g>
<!-- Node4&#45;&gt;Node5 -->
<g id="edge8" class="edge"><title>Node4&#45;&gt;Node5</title>
<path fill="none" stroke="midnightblue" d="M555.685,-131C569.001,-131 582.893,-131 596.185,-131"/>
<polygon fill="midnightblue" stroke="midnightblue" points="555.633,-127.5 545.633,-131 555.633,-134.5 555.633,-127.5"/>
</g>
<!-- Node8 -->
<g id="node15" class="node"><title>Node8</title>
<a xlink:href="classGeometry_1_1BinIDSurface.html" target="_top" xlink:title="Geometry::BinIDSurface">
<polygon fill="white" stroke="black" points="606,-60.5 606,-81.5 730,-81.5 730,-60.5 606,-60.5"/>
<text text-anchor="middle" x="668" y="-68.5" font-family="Helvetica,sans-Serif" font-size="10.00">Geometry::BinIDSurface</text>
</a>
</g>
<!-- Node7&#45;&gt;Node8 -->
<g id="edge14" class="edge"><title>Node7&#45;&gt;Node8</title>
<path fill="none" stroke="midnightblue" d="M566.236,-59.9985C579.56,-61.4389 593.142,-62.9073 605.863,-64.2825"/>
<polygon fill="midnightblue" stroke="midnightblue" points="566.435,-56.4997 556.117,-58.9045 565.683,-63.4592 566.435,-56.4997"/>
</g>
<!-- Node9 -->
<g id="node17" class="node"><title>Node9</title>
<a xlink:href="classGeometry_1_1CubicBezierSurface.html" target="_top" xlink:title="Geometry::CubicBezierSurface">
<polygon fill="white" stroke="black" points="592,-20.5 592,-41.5 744,-41.5 744,-20.5 592,-20.5"/>
<text text-anchor="middle" x="668" y="-28.5" font-family="Helvetica,sans-Serif" font-size="10.00">Geometry::CubicBezierSurface</text>
</a>
</g>
<!-- Node7&#45;&gt;Node9 -->
<g id="edge16" class="edge"><title>Node7&#45;&gt;Node9</title>
<path fill="none" stroke="midnightblue" d="M566.087,-42.0176C574.638,-41.0932 583.298,-40.157 591.769,-39.2412"/>
<polygon fill="midnightblue" stroke="midnightblue" points="565.683,-38.5408 556.117,-43.0955 566.435,-45.5003 565.683,-38.5408"/>
</g>
</g>
</svg>
