<?xml version="1.0" encoding="UTF-8" standalone="no"?>
<!DOCTYPE svg PUBLIC "-//W3C//DTD SVG 1.1//EN"
 "http://www.w3.org/Graphics/SVG/1.1/DTD/svg11.dtd">
<!-- Generated by graphviz version 2.26.0 (20091210.2329)
 -->
<!-- Title: uiGenInput Pages: 1 -->
<svg width="360pt" height="262pt"
 viewBox="0.00 0.00 360.00 262.00" xmlns="http://www.w3.org/2000/svg" xmlns:xlink="http://www.w3.org/1999/xlink">
<g id="graph1" class="graph" transform="scale(1 1) rotate(0) translate(4 258)">
<title>uiGenInput</title>
<polygon fill="white" stroke="white" points="-4,5 -4,-258 357,-258 357,5 -4,5"/>
<!-- Node1 -->
<g id="node1" class="node"><title>Node1</title>
<polygon fill="#bfbfbf" stroke="black" points="139,-58.5 139,-79.5 203,-79.5 203,-58.5 139,-58.5"/>
<text text-anchor="middle" x="171" y="-66.5" font-family="Helvetica,sans-Serif" font-size="10.00">uiGenInput</text>
</g>
<!-- Node5 -->
<g id="node9" class="node"><title>Node5</title>
<a xlink:href="classuiConstantVel.html" target="_top" xlink:title="uiConstantVel">
<polygon fill="white" stroke="black" points="0,-0.5 0,-21.5 78,-21.5 78,-0.5 0,-0.5"/>
<text text-anchor="middle" x="39" y="-8.5" font-family="Helvetica,sans-Serif" font-size="10.00">uiConstantVel</text>
</a>
</g>
<!-- Node1&#45;&gt;Node5 -->
<g id="edge8" class="edge"><title>Node1&#45;&gt;Node5</title>
<path fill="none" stroke="midnightblue" d="M137.643,-54.3431C114.445,-44.1502 84.0567,-30.7977 63.1724,-21.6212"/>
<polygon fill="midnightblue" stroke="midnightblue" points="136.533,-57.6782 147.096,-58.4966 139.349,-51.2695 136.533,-57.6782"/>
</g>
<!-- Node6 -->
<g id="node11" class="node"><title>Node6</title>
<a xlink:href="classuiFileInput.html" target="_top" xlink:title="A file&#45;name input. ">
<polygon fill="white" stroke="black" points="96,-0.5 96,-21.5 158,-21.5 158,-0.5 96,-0.5"/>
<text text-anchor="middle" x="127" y="-8.5" font-family="Helvetica,sans-Serif" font-size="10.00">uiFileInput</text>
</a>
</g>
<!-- Node1&#45;&gt;Node6 -->
<g id="edge10" class="edge"><title>Node1&#45;&gt;Node6</title>
<path fill="none" stroke="midnightblue" d="M156.776,-50.2504C149.569,-40.75 141.084,-29.5651 135.019,-21.5707"/>
<polygon fill="midnightblue" stroke="midnightblue" points="154.097,-52.5103 162.93,-58.3619 159.674,-48.2796 154.097,-52.5103"/>
</g>
<!-- Node7 -->
<g id="node13" class="node"><title>Node7</title>
<a xlink:href="classuiListBoxFilter.html" target="_top" xlink:title="A filter field attaching itself to a listbox. ">
<polygon fill="white" stroke="black" points="175.5,-0.5 175.5,-21.5 254.5,-21.5 254.5,-0.5 175.5,-0.5"/>
<text text-anchor="middle" x="215" y="-8.5" font-family="Helvetica,sans-Serif" font-size="10.00">uiListBoxFilter</text>
</a>
</g>
<!-- Node1&#45;&gt;Node7 -->
<g id="edge12" class="edge"><title>Node1&#45;&gt;Node7</title>
<path fill="none" stroke="midnightblue" d="M185.224,-50.2504C192.431,-40.75 200.916,-29.5651 206.981,-21.5707"/>
<polygon fill="midnightblue" stroke="midnightblue" points="182.326,-48.2796 179.07,-58.3619 187.903,-52.5103 182.326,-48.2796"/>
</g>
<!-- Node8 -->
<g id="node15" class="node"><title>Node8</title>
<a xlink:href="classuiZRangeInput.html" target="_top" xlink:title="uiZRangeInput">
<polygon fill="white" stroke="black" points="272,-0.5 272,-21.5 352,-21.5 352,-0.5 272,-0.5"/>
<text text-anchor="middle" x="312" y="-8.5" font-family="Helvetica,sans-Serif" font-size="10.00">uiZRangeInput</text>
</a>
</g>
<!-- Node1&#45;&gt;Node8 -->
<g id="edge14" class="edge"><title>Node1&#45;&gt;Node8</title>
<path fill="none" stroke="midnightblue" d="M205.97,-54.6153C230.83,-44.3889 263.672,-30.8796 286.179,-21.6212"/>
<polygon fill="midnightblue" stroke="midnightblue" points="204.451,-51.4555 196.534,-58.4966 207.114,-57.9292 204.451,-51.4555"/>
</g>
<!-- Node2 -->
<g id="node2" class="node"><title>Node2</title>
<a xlink:href="classuiGroup.html" target="_top" xlink:title="uiGroup">
<polygon fill="white" stroke="black" points="146,-116.5 146,-137.5 196,-137.5 196,-116.5 146,-116.5"/>
<text text-anchor="middle" x="171" y="-124.5" font-family="Helvetica,sans-Serif" font-size="10.00">uiGroup</text>
</a>
</g>
<!-- Node2&#45;&gt;Node1 -->
<g id="edge2" class="edge"><title>Node2&#45;&gt;Node1</title>
<path fill="none" stroke="midnightblue" d="M171,-106.191C171,-97.1684 171,-86.9941 171,-79.5707"/>
<polygon fill="midnightblue" stroke="midnightblue" points="167.5,-106.362 171,-116.362 174.5,-106.362 167.5,-106.362"/>
</g>
<!-- Node3 -->
<g id="node4" class="node"><title>Node3</title>
<a xlink:href="classuiParent.html" target="_top" xlink:title="uiParent">
<polygon fill="white" stroke="black" points="144.5,-174.5 144.5,-195.5 197.5,-195.5 197.5,-174.5 144.5,-174.5"/>
<text text-anchor="middle" x="171" y="-182.5" font-family="Helvetica,sans-Serif" font-size="10.00">uiParent</text>
</a>
</g>
<!-- Node3&#45;&gt;Node2 -->
<g id="edge4" class="edge"><title>Node3&#45;&gt;Node2</title>
<path fill="none" stroke="midnightblue" d="M171,-164.191C171,-155.168 171,-144.994 171,-137.571"/>
<polygon fill="midnightblue" stroke="midnightblue" points="167.5,-164.362 171,-174.362 174.5,-164.362 167.5,-164.362"/>
</g>
<!-- Node4 -->
<g id="node6" class="node"><title>Node4</title>
<polygon fill="white" stroke="#bfbfbf" points="133.5,-232.5 133.5,-253.5 208.5,-253.5 208.5,-232.5 133.5,-232.5"/>
<text text-anchor="middle" x="171" y="-240.5" font-family="Helvetica,sans-Serif" font-size="10.00">uiBaseObject</text>
</g>
<!-- Node4&#45;&gt;Node3 -->
<g id="edge6" class="edge"><title>Node4&#45;&gt;Node3</title>
<path fill="none" stroke="midnightblue" d="M171,-222.191C171,-213.168 171,-202.994 171,-195.571"/>
<polygon fill="midnightblue" stroke="midnightblue" points="167.5,-222.362 171,-232.362 174.5,-222.362 167.5,-222.362"/>
</g>
</g>
</svg>
