<?xml version="1.0" encoding="UTF-8" standalone="no"?>
<!DOCTYPE svg PUBLIC "-//W3C//DTD SVG 1.1//EN"
 "http://www.w3.org/Graphics/SVG/1.1/DTD/svg11.dtd">
<!-- Generated by graphviz version 2.26.0 (20091210.2329)
 -->
<!-- Title: DirList Pages: 1 -->
<svg width="280pt" height="368pt"
 viewBox="0.00 0.00 280.00 368.00" xmlns="http://www.w3.org/2000/svg" xmlns:xlink="http://www.w3.org/1999/xlink">
<g id="graph1" class="graph" transform="scale(1 1) rotate(0) translate(4 364)">
<title>DirList</title>
<polygon fill="white" stroke="white" points="-4,5 -4,-364 277,-364 277,5 -4,5"/>
<!-- Node1 -->
<g id="node1" class="node"><title>Node1</title>
<polygon fill="#bfbfbf" stroke="black" points="86.5,-0.5 86.5,-21.5 131.5,-21.5 131.5,-0.5 86.5,-0.5"/>
<text text-anchor="middle" x="109" y="-8.5" font-family="Helvetica,sans-Serif" font-size="10.00">DirList</text>
</g>
<!-- Node2 -->
<g id="node2" class="node"><title>Node2</title>
<a xlink:href="classBufferStringSet.html" target="_top" xlink:title="Set of BufferString objects. ">
<polygon fill="white" stroke="black" points="67.5,-60.5 67.5,-81.5 150.5,-81.5 150.5,-60.5 67.5,-60.5"/>
<text text-anchor="middle" x="109" y="-68.5" font-family="Helvetica,sans-Serif" font-size="10.00">BufferStringSet</text>
</a>
</g>
<!-- Node2&#45;&gt;Node1 -->
<g id="edge2" class="edge"><title>Node2&#45;&gt;Node1</title>
<path fill="none" stroke="midnightblue" d="M109,-50.2312C109,-40.5922 109,-29.5444 109,-21.6339"/>
<polygon fill="midnightblue" stroke="midnightblue" points="105.5,-50.2732 109,-60.2732 112.5,-50.2732 105.5,-50.2732"/>
</g>
<!-- Node3 -->
<g id="node4" class="node"><title>Node3</title>
<a xlink:href="classManagedObjectSet.html" target="_top" xlink:title="ManagedObjectSet\&lt; Buffer\lString \&gt;">
<polygon fill="white" stroke="black" points="41.5,-121 41.5,-155 176.5,-155 176.5,-121 41.5,-121"/>
<text text-anchor="start" x="49.5" y="-142" font-family="Helvetica,sans-Serif" font-size="10.00">ManagedObjectSet&lt; Buffer</text>
<text text-anchor="middle" x="109" y="-129" font-family="Helvetica,sans-Serif" font-size="10.00">String &gt;</text>
</a>
</g>
<!-- Node3&#45;&gt;Node2 -->
<g id="edge4" class="edge"><title>Node3&#45;&gt;Node2</title>
<path fill="none" stroke="midnightblue" d="M109,-110.534C109,-100.306 109,-89.3007 109,-81.5056"/>
<polygon fill="midnightblue" stroke="midnightblue" points="105.5,-110.746 109,-120.746 112.5,-110.746 105.5,-110.746"/>
</g>
<!-- Node4 -->
<g id="node6" class="node"><title>Node4</title>
<a xlink:href="classObjectSet.html" target="_top" xlink:title="ObjectSet\&lt; BufferString \&gt;">
<polygon fill="white" stroke="black" points="0,-206.5 0,-227.5 130,-227.5 130,-206.5 0,-206.5"/>
<text text-anchor="middle" x="65" y="-214.5" font-family="Helvetica,sans-Serif" font-size="10.00">ObjectSet&lt; BufferString &gt;</text>
</a>
</g>
<!-- Node4&#45;&gt;Node3 -->
<g id="edge6" class="edge"><title>Node4&#45;&gt;Node3</title>
<path fill="none" stroke="midnightblue" d="M75.9634,-197.316C83.1856,-184.349 92.5493,-167.536 99.4628,-155.124"/>
<polygon fill="midnightblue" stroke="midnightblue" points="72.7422,-195.906 70.934,-206.346 78.8576,-199.312 72.7422,-195.906"/>
</g>
<!-- Node5 -->
<g id="node8" class="node"><title>Node5</title>
<a xlink:href="classOD_1_1Set.html" target="_top" xlink:title="Base class for all sets used in OpendTect. ">
<polygon fill="white" stroke="black" points="61.5,-338.5 61.5,-359.5 114.5,-359.5 114.5,-338.5 61.5,-338.5"/>
<text text-anchor="middle" x="88" y="-346.5" font-family="Helvetica,sans-Serif" font-size="10.00">OD::Set</text>
</a>
</g>
<!-- Node5&#45;&gt;Node4 -->
<g id="edge8" class="edge"><title>Node5&#45;&gt;Node4</title>
<path fill="none" stroke="midnightblue" d="M84.3545,-328.078C79.3762,-299.507 70.6373,-249.353 66.8439,-227.582"/>
<polygon fill="midnightblue" stroke="midnightblue" points="80.9531,-328.947 86.1178,-338.198 87.8492,-327.745 80.9531,-328.947"/>
</g>
<!-- Node6 -->
<g id="node10" class="node"><title>Node6</title>
<a xlink:href="classObjectSet.html" target="_top" xlink:title="Set of pointers to objects. ">
<polygon fill="white" stroke="black" points="93,-278.5 93,-299.5 177,-299.5 177,-278.5 93,-278.5"/>
<text text-anchor="middle" x="135" y="-286.5" font-family="Helvetica,sans-Serif" font-size="10.00">ObjectSet&lt; T &gt;</text>
</a>
</g>
<!-- Node5&#45;&gt;Node6 -->
<g id="edge12" class="edge"><title>Node5&#45;&gt;Node6</title>
<path fill="none" stroke="midnightblue" d="M102.584,-330.382C110.503,-320.273 120.007,-308.14 126.67,-299.634"/>
<polygon fill="midnightblue" stroke="midnightblue" points="99.814,-328.243 96.4027,-338.273 105.325,-332.559 99.814,-328.243"/>
</g>
<!-- Node6&#45;&gt;Node4 -->
<g id="edge10" class="edge"><title>Node6&#45;&gt;Node4</title>
<path fill="none" stroke="orange" stroke-dasharray="5,2" d="M117.469,-270.968C104.209,-257.329 86.4515,-239.064 75.3711,-227.667"/>
<polygon fill="orange" stroke="orange" points="115.191,-273.646 124.671,-278.376 120.21,-268.766 115.191,-273.646"/>
<text text-anchor="middle" x="143.5" y="-250.5" font-family="Helvetica,sans-Serif" font-size="10.00"> &lt; BufferString &gt;</text>
</g>
<!-- Node7 -->
<g id="node13" class="node"><title>Node7</title>
<a xlink:href="classManagedObjectSet.html" target="_top" xlink:title="ObjectSet where the objects contained are owned by this set. ">
<polygon fill="white" stroke="black" points="148,-206.5 148,-227.5 272,-227.5 272,-206.5 148,-206.5"/>
<text text-anchor="middle" x="210" y="-214.5" font-family="Helvetica,sans-Serif" font-size="10.00">ManagedObjectSet&lt; T &gt;</text>
</a>
</g>
<!-- Node6&#45;&gt;Node7 -->
<g id="edge16" class="edge"><title>Node6&#45;&gt;Node7</title>
<path fill="none" stroke="midnightblue" d="M166.916,-273.228C172.987,-269.397 178.998,-264.955 184,-260 193.545,-250.545 201.015,-236.905 205.452,-227.536"/>
<polygon fill="midnightblue" stroke="midnightblue" points="164.951,-270.323 158.087,-278.394 168.486,-276.365 164.951,-270.323"/>
</g>
<!-- Node7&#45;&gt;Node3 -->
<g id="edge14" class="edge"><title>Node7&#45;&gt;Node3</title>
<path fill="none" stroke="orange" stroke-dasharray="5,2" d="M188.174,-199.928C171.232,-186.677 147.851,-168.388 130.892,-155.124"/>
<polygon fill="orange" stroke="orange" points="186.346,-202.942 196.379,-206.346 190.658,-197.428 186.346,-202.942"/>
<text text-anchor="middle" x="207.5" y="-178.5" font-family="Helvetica,sans-Serif" font-size="10.00"> &lt; BufferString &gt;</text>
</g>
</g>
</svg>
