<?xml version="1.0" encoding="UTF-8" standalone="no"?>
<!DOCTYPE svg PUBLIC "-//W3C//DTD SVG 1.1//EN"
 "http://www.w3.org/Graphics/SVG/1.1/DTD/svg11.dtd">
<!-- Generated by graphviz version 2.26.0 (20091210.2329)
 -->
<!-- Title: PreStack::AngleMuteComputer Pages: 1 -->
<svg width="231pt" height="262pt"
 viewBox="0.00 0.00 231.00 262.00" xmlns="http://www.w3.org/2000/svg" xmlns:xlink="http://www.w3.org/1999/xlink">
<g id="graph1" class="graph" transform="scale(1 1) rotate(0) translate(4 258)">
<title>PreStack::AngleMuteComputer</title>
<polygon fill="white" stroke="white" points="-4,5 -4,-258 228,-258 228,5 -4,5"/>
<!-- Node1 -->
<g id="node1" class="node"><title>Node1</title>
<polygon fill="#bfbfbf" stroke="black" points="21,-0.5 21,-21.5 173,-21.5 173,-0.5 21,-0.5"/>
<text text-anchor="middle" x="97" y="-8.5" font-family="Helvetica,sans-Serif" font-size="10.00">PreStack::AngleMuteComputer</text>
</g>
<!-- Node2 -->
<g id="node2" class="node"><title>Node2</title>
<a xlink:href="classParallelTask.html" target="_top" xlink:title="Generalization of a task that can be run in parallel. ">
<polygon fill="white" stroke="black" points="2.5,-58.5 2.5,-79.5 73.5,-79.5 73.5,-58.5 2.5,-58.5"/>
<text text-anchor="middle" x="38" y="-66.5" font-family="Helvetica,sans-Serif" font-size="10.00">ParallelTask</text>
</a>
</g>
<!-- Node2&#45;&gt;Node1 -->
<g id="edge2" class="edge"><title>Node2&#45;&gt;Node1</title>
<path fill="none" stroke="midnightblue" d="M56.1903,-51.118C66.0375,-41.4377 77.8659,-29.8098 86.2471,-21.5707"/>
<polygon fill="midnightblue" stroke="midnightblue" points="53.4991,-48.8556 48.8215,-58.3619 58.4064,-53.8474 53.4991,-48.8556"/>
</g>
<!-- Node3 -->
<g id="node4" class="node"><title>Node3</title>
<a xlink:href="classTask.html" target="_top" xlink:title="Generalization of something (e.g. a computation) that needs to be done in multiple steps...">
<polygon fill="white" stroke="black" points="19,-116.5 19,-137.5 57,-137.5 57,-116.5 19,-116.5"/>
<text text-anchor="middle" x="38" y="-124.5" font-family="Helvetica,sans-Serif" font-size="10.00">Task</text>
</a>
</g>
<!-- Node3&#45;&gt;Node2 -->
<g id="edge4" class="edge"><title>Node3&#45;&gt;Node2</title>
<path fill="none" stroke="midnightblue" d="M38,-106.191C38,-97.1684 38,-86.9941 38,-79.5707"/>
<polygon fill="midnightblue" stroke="midnightblue" points="34.5001,-106.362 38,-116.362 41.5001,-106.362 34.5001,-106.362"/>
</g>
<!-- Node4 -->
<g id="node6" class="node"><title>Node4</title>
<a xlink:href="classNamedObject.html" target="_top" xlink:title="Object with a name. ">
<polygon fill="white" stroke="black" points="-0.5,-174.5 -0.5,-195.5 76.5,-195.5 76.5,-174.5 -0.5,-174.5"/>
<text text-anchor="middle" x="38" y="-182.5" font-family="Helvetica,sans-Serif" font-size="10.00">NamedObject</text>
</a>
</g>
<!-- Node4&#45;&gt;Node3 -->
<g id="edge6" class="edge"><title>Node4&#45;&gt;Node3</title>
<path fill="none" stroke="midnightblue" d="M38,-164.191C38,-155.168 38,-144.994 38,-137.571"/>
<polygon fill="midnightblue" stroke="midnightblue" points="34.5001,-164.362 38,-174.362 41.5001,-164.362 34.5001,-164.362"/>
</g>
<!-- Node5 -->
<g id="node8" class="node"><title>Node5</title>
<a xlink:href="classCallBacker.html" target="_top" xlink:title="To be able to send and/or receive CallBacks, inherit from this class. ">
<polygon fill="white" stroke="black" points="5.5,-232.5 5.5,-253.5 70.5,-253.5 70.5,-232.5 5.5,-232.5"/>
<text text-anchor="middle" x="38" y="-240.5" font-family="Helvetica,sans-Serif" font-size="10.00">CallBacker</text>
</a>
</g>
<!-- Node5&#45;&gt;Node4 -->
<g id="edge8" class="edge"><title>Node5&#45;&gt;Node4</title>
<path fill="none" stroke="midnightblue" d="M38,-222.191C38,-213.168 38,-202.994 38,-195.571"/>
<polygon fill="midnightblue" stroke="midnightblue" points="34.5001,-222.362 38,-232.362 41.5001,-222.362 34.5001,-222.362"/>
</g>
<!-- Node6 -->
<g id="node10" class="node"><title>Node6</title>
<a xlink:href="classPreStack_1_1AngleMuteBase.html" target="_top" xlink:title="PreStack::AngleMuteBase">
<polygon fill="white" stroke="black" points="91,-58.5 91,-79.5 223,-79.5 223,-58.5 91,-58.5"/>
<text text-anchor="middle" x="157" y="-66.5" font-family="Helvetica,sans-Serif" font-size="10.00">PreStack::AngleMuteBase</text>
</a>
</g>
<!-- Node6&#45;&gt;Node1 -->
<g id="edge10" class="edge"><title>Node6&#45;&gt;Node1</title>
<path fill="none" stroke="midnightblue" d="M138.798,-51.405C128.726,-41.6683 116.543,-29.8914 107.935,-21.5707"/>
<polygon fill="midnightblue" stroke="midnightblue" points="136.373,-53.9281 145.995,-58.3619 141.238,-48.8952 136.373,-53.9281"/>
</g>
</g>
</svg>
