<?xml version="1.0" encoding="UTF-8" standalone="no"?>
<!DOCTYPE svg PUBLIC "-//W3C//DTD SVG 1.1//EN"
 "http://www.w3.org/Graphics/SVG/1.1/DTD/svg11.dtd">
<!-- Generated by graphviz version 2.26.0 (20091210.2329)
 -->
<!-- Title: SeisPSReader Pages: 1 -->
<svg width="384pt" height="190pt"
 viewBox="0.00 0.00 384.00 190.00" xmlns="http://www.w3.org/2000/svg" xmlns:xlink="http://www.w3.org/1999/xlink">
<g id="graph1" class="graph" transform="scale(1 1) rotate(0) translate(4 186)">
<title>SeisPSReader</title>
<polygon fill="white" stroke="white" points="-4,5 -4,-186 381,-186 381,5 -4,5"/>
<!-- Node1 -->
<g id="node1" class="node"><title>Node1</title>
<polygon fill="#bfbfbf" stroke="black" points="0.5,-100.5 0.5,-121.5 81.5,-121.5 81.5,-100.5 0.5,-100.5"/>
<text text-anchor="middle" x="41" y="-108.5" font-family="Helvetica,sans-Serif" font-size="10.00">SeisPSReader</text>
</g>
<!-- Node2 -->
<g id="node3" class="node"><title>Node2</title>
<a xlink:href="classSeisPS2DReader.html" target="_top" xlink:title="reads from a 2D prestack seismic data store. ">
<polygon fill="white" stroke="black" points="118,-120.5 118,-141.5 212,-141.5 212,-120.5 118,-120.5"/>
<text text-anchor="middle" x="165" y="-128.5" font-family="Helvetica,sans-Serif" font-size="10.00">SeisPS2DReader</text>
</a>
</g>
<!-- Node1&#45;&gt;Node2 -->
<g id="edge2" class="edge"><title>Node1&#45;&gt;Node2</title>
<path fill="none" stroke="midnightblue" d="M91.6029,-119.162C100.279,-120.561 109.263,-122.01 117.845,-123.394"/>
<polygon fill="midnightblue" stroke="midnightblue" points="92.032,-115.686 81.6022,-117.549 90.9173,-122.596 92.032,-115.686"/>
</g>
<!-- Node5 -->
<g id="node9" class="node"><title>Node5</title>
<a xlink:href="classSeisPS3DReader.html" target="_top" xlink:title="reads from a 3D prestack seismic data store. ">
<polygon fill="white" stroke="black" points="118,-60.5 118,-81.5 212,-81.5 212,-60.5 118,-60.5"/>
<text text-anchor="middle" x="165" y="-68.5" font-family="Helvetica,sans-Serif" font-size="10.00">SeisPS3DReader</text>
</a>
</g>
<!-- Node1&#45;&gt;Node5 -->
<g id="edge8" class="edge"><title>Node1&#45;&gt;Node5</title>
<path fill="none" stroke="midnightblue" d="M83.2446,-97.3727C99.2446,-92.2114 117.205,-86.4178 132.208,-81.5782"/>
<polygon fill="midnightblue" stroke="midnightblue" points="82.0221,-94.0894 73.5795,-100.49 84.1712,-100.751 82.0221,-94.0894"/>
</g>
<!-- Node3 -->
<g id="node5" class="node"><title>Node3</title>
<a xlink:href="classSEGYDirect2DPSReader.html" target="_top" xlink:title="reads from 2D PS data store reader based on SEG&#45;Y files ">
<polygon fill="white" stroke="black" points="248,-160.5 248,-181.5 376,-181.5 376,-160.5 248,-160.5"/>
<text text-anchor="middle" x="312" y="-168.5" font-family="Helvetica,sans-Serif" font-size="10.00">SEGYDirect2DPSReader</text>
</a>
</g>
<!-- Node2&#45;&gt;Node3 -->
<g id="edge4" class="edge"><title>Node2&#45;&gt;Node3</title>
<path fill="none" stroke="midnightblue" d="M213.516,-144.202C232.961,-149.493 255.054,-155.504 273.38,-160.491"/>
<polygon fill="midnightblue" stroke="midnightblue" points="214.191,-140.758 203.623,-141.51 212.353,-147.512 214.191,-140.758"/>
</g>
<!-- Node4 -->
<g id="node7" class="node"><title>Node4</title>
<a xlink:href="classSeisCBVSPS2DReader.html" target="_top" xlink:title="reads from a CBVS prestack seismic data store. ">
<polygon fill="white" stroke="black" points="251,-120.5 251,-141.5 373,-141.5 373,-120.5 251,-120.5"/>
<text text-anchor="middle" x="312" y="-128.5" font-family="Helvetica,sans-Serif" font-size="10.00">SeisCBVSPS2DReader</text>
</a>
</g>
<!-- Node2&#45;&gt;Node4 -->
<g id="edge6" class="edge"><title>Node2&#45;&gt;Node4</title>
<path fill="none" stroke="midnightblue" d="M222.59,-131C231.848,-131 241.46,-131 250.8,-131"/>
<polygon fill="midnightblue" stroke="midnightblue" points="222.321,-127.5 212.321,-131 222.321,-134.5 222.321,-127.5"/>
</g>
<!-- Node6 -->
<g id="node11" class="node"><title>Node6</title>
<a xlink:href="classMultiCubeSeisPSReader.html" target="_top" xlink:title="PS data store reader based on multiple 3D CBVS cubes. ">
<polygon fill="white" stroke="black" points="249.5,-80.5 249.5,-101.5 374.5,-101.5 374.5,-80.5 249.5,-80.5"/>
<text text-anchor="middle" x="312" y="-88.5" font-family="Helvetica,sans-Serif" font-size="10.00">MultiCubeSeisPSReader</text>
</a>
</g>
<!-- Node5&#45;&gt;Node6 -->
<g id="edge10" class="edge"><title>Node5&#45;&gt;Node6</title>
<path fill="none" stroke="midnightblue" d="M222.232,-78.7867C231.165,-80.002 240.434,-81.2632 249.477,-82.4935"/>
<polygon fill="midnightblue" stroke="midnightblue" points="222.701,-75.3184 212.321,-77.4382 221.758,-82.2545 222.701,-75.3184"/>
</g>
<!-- Node7 -->
<g id="node13" class="node"><title>Node7</title>
<a xlink:href="classSEGYDirect3DPSReader.html" target="_top" xlink:title="reads from 3D PS data store reader based on SEG&#45;Y files ">
<polygon fill="white" stroke="black" points="248,-40.5 248,-61.5 376,-61.5 376,-40.5 248,-40.5"/>
<text text-anchor="middle" x="312" y="-48.5" font-family="Helvetica,sans-Serif" font-size="10.00">SEGYDirect3DPSReader</text>
</a>
</g>
<!-- Node5&#45;&gt;Node7 -->
<g id="edge12" class="edge"><title>Node5&#45;&gt;Node7</title>
<path fill="none" stroke="midnightblue" d="M222.355,-63.1966C230.726,-62.0577 239.391,-60.8788 247.886,-59.723"/>
<polygon fill="midnightblue" stroke="midnightblue" points="221.758,-59.7455 212.321,-64.5618 222.701,-66.6816 221.758,-59.7455"/>
</g>
<!-- Node8 -->
<g id="node15" class="node"><title>Node8</title>
<a xlink:href="classSeisCBVSPS3DReader.html" target="_top" xlink:title="reads from a CBVS prestack seismic data store. ">
<polygon fill="white" stroke="black" points="251,-0.5 251,-21.5 373,-21.5 373,-0.5 251,-0.5"/>
<text text-anchor="middle" x="312" y="-8.5" font-family="Helvetica,sans-Serif" font-size="10.00">SeisCBVSPS3DReader</text>
</a>
</g>
<!-- Node5&#45;&gt;Node8 -->
<g id="edge14" class="edge"><title>Node5&#45;&gt;Node8</title>
<path fill="none" stroke="midnightblue" d="M193.962,-55.7542C209.698,-47.8011 229.641,-38.2473 248,-31 256.662,-27.5804 266.161,-24.345 275.127,-21.5125"/>
<polygon fill="midnightblue" stroke="midnightblue" points="192.067,-52.7923 184.76,-60.4643 195.257,-59.0235 192.067,-52.7923"/>
</g>
</g>
</svg>
