<?xml version="1.0" encoding="UTF-8" standalone="no"?>
<!DOCTYPE svg PUBLIC "-//W3C//DTD SVG 1.1//EN"
 "http://www.w3.org/Graphics/SVG/1.1/DTD/svg11.dtd">
<!-- Generated by graphviz version 2.26.0 (20091210.2329)
 -->
<!-- Title: Table::AscIO Pages: 1 -->
<svg width="252pt" height="630pt"
 viewBox="0.00 0.00 252.00 630.00" xmlns="http://www.w3.org/2000/svg" xmlns:xlink="http://www.w3.org/1999/xlink">
<g id="graph1" class="graph" transform="scale(1 1) rotate(0) translate(4 626)">
<title>Table::AscIO</title>
<polygon fill="white" stroke="white" points="-4,5 -4,-626 249,-626 249,5 -4,5"/>
<!-- Node1 -->
<g id="node1" class="node"><title>Node1</title>
<polygon fill="#bfbfbf" stroke="black" points="0,-300.5 0,-321.5 74,-321.5 74,-300.5 0,-300.5"/>
<text text-anchor="middle" x="37" y="-308.5" font-family="Helvetica,sans-Serif" font-size="10.00">Table::AscIO</text>
</g>
<!-- Node2 -->
<g id="node3" class="node"><title>Node2</title>
<a xlink:href="classEM_1_1FaultAscIO.html" target="_top" xlink:title="Ascii I/O for Fault. ">
<polygon fill="white" stroke="black" points="133.5,-600.5 133.5,-621.5 220.5,-621.5 220.5,-600.5 133.5,-600.5"/>
<text text-anchor="middle" x="177" y="-608.5" font-family="Helvetica,sans-Serif" font-size="10.00">EM::FaultAscIO</text>
</a>
</g>
<!-- Node1&#45;&gt;Node2 -->
<g id="edge2" class="edge"><title>Node1&#45;&gt;Node2</title>
<path fill="none" stroke="midnightblue" d="M39.7836,-331.977C47.9395,-390.41 73.5246,-553.223 110,-591 116.324,-597.55 124.693,-601.978 133.366,-604.966"/>
<polygon fill="midnightblue" stroke="midnightblue" points="43.208,-331.184 38.3868,-321.75 36.2724,-332.132 43.208,-331.184"/>
</g>
<!-- Node3 -->
<g id="node5" class="node"><title>Node3</title>
<a xlink:href="classEM_1_1Horizon2DAscIO.html" target="_top" xlink:title="Ascii I/O for Horizon2D. ">
<polygon fill="white" stroke="black" points="121,-560.5 121,-581.5 233,-581.5 233,-560.5 121,-560.5"/>
<text text-anchor="middle" x="177" y="-568.5" font-family="Helvetica,sans-Serif" font-size="10.00">EM::Horizon2DAscIO</text>
</a>
</g>
<!-- Node1&#45;&gt;Node3 -->
<g id="edge4" class="edge"><title>Node1&#45;&gt;Node3</title>
<path fill="none" stroke="midnightblue" d="M40.7082,-331.705C50.4637,-383.993 78.2869,-519.451 110,-551 113.873,-554.853 118.454,-557.969 123.375,-560.488"/>
<polygon fill="midnightblue" stroke="midnightblue" points="44.1039,-330.817 38.8583,-321.612 37.2186,-332.079 44.1039,-330.817"/>
</g>
<!-- Node4 -->
<g id="node7" class="node"><title>Node4</title>
<a xlink:href="classEM_1_1Horizon3DAscIO.html" target="_top" xlink:title="Ascii I/O for Horizon3D. ">
<polygon fill="white" stroke="black" points="121,-520.5 121,-541.5 233,-541.5 233,-520.5 121,-520.5"/>
<text text-anchor="middle" x="177" y="-528.5" font-family="Helvetica,sans-Serif" font-size="10.00">EM::Horizon3DAscIO</text>
</a>
</g>
<!-- Node1&#45;&gt;Node4 -->
<g id="edge6" class="edge"><title>Node1&#45;&gt;Node4</title>
<path fill="none" stroke="midnightblue" d="M38.6002,-331.997C42.8268,-372.532 57.8583,-461.891 110,-511 114.065,-514.828 118.832,-517.927 123.918,-520.434"/>
<polygon fill="midnightblue" stroke="midnightblue" points="42.0757,-331.569 37.6728,-321.932 35.1053,-332.211 42.0757,-331.569"/>
</g>
<!-- Node5 -->
<g id="node9" class="node"><title>Node5</title>
<a xlink:href="classGeom2dAscIO.html" target="_top" xlink:title="Ascii I/O for 2D Geometry. ">
<polygon fill="white" stroke="black" points="136.5,-480.5 136.5,-501.5 217.5,-501.5 217.5,-480.5 136.5,-480.5"/>
<text text-anchor="middle" x="177" y="-488.5" font-family="Helvetica,sans-Serif" font-size="10.00">Geom2dAscIO</text>
</a>
</g>
<!-- Node1&#45;&gt;Node5 -->
<g id="edge8" class="edge"><title>Node1&#45;&gt;Node5</title>
<path fill="none" stroke="midnightblue" d="M40.7854,-331.994C48.0466,-366.159 67.1765,-433.711 110,-471 117.415,-477.457 126.846,-481.83 136.274,-484.792"/>
<polygon fill="midnightblue" stroke="midnightblue" points="44.1383,-330.908 38.7608,-321.78 37.2719,-332.269 44.1383,-330.908"/>
</g>
<!-- Node6 -->
<g id="node11" class="node"><title>Node6</title>
<a xlink:href="classPickSetAscIO.html" target="_top" xlink:title="PickSetAscIO">
<polygon fill="white" stroke="black" points="137.5,-440.5 137.5,-461.5 216.5,-461.5 216.5,-440.5 137.5,-440.5"/>
<text text-anchor="middle" x="177" y="-448.5" font-family="Helvetica,sans-Serif" font-size="10.00">PickSetAscIO</text>
</a>
</g>
<!-- Node1&#45;&gt;Node6 -->
<g id="edge10" class="edge"><title>Node1&#45;&gt;Node6</title>
<path fill="none" stroke="midnightblue" d="M44.0326,-331.297C54.3383,-358.065 76.0826,-404.83 110,-431 117.977,-437.155 127.824,-441.421 137.491,-444.376"/>
<polygon fill="midnightblue" stroke="midnightblue" points="47.2714,-329.964 40.5314,-321.789 40.7026,-332.383 47.2714,-329.964"/>
</g>
<!-- Node7 -->
<g id="node13" class="node"><title>Node7</title>
<a xlink:href="classPreStack_1_1EventAscIO.html" target="_top" xlink:title="Ascii I/O for PreStack event. ">
<polygon fill="white" stroke="black" points="119,-400.5 119,-421.5 235,-421.5 235,-400.5 119,-400.5"/>
<text text-anchor="middle" x="177" y="-408.5" font-family="Helvetica,sans-Serif" font-size="10.00">PreStack::EventAscIO</text>
</a>
</g>
<!-- Node1&#45;&gt;Node7 -->
<g id="edge12" class="edge"><title>Node1&#45;&gt;Node7</title>
<path fill="none" stroke="midnightblue" d="M49.7447,-330.116C62.8212,-348.301 84.7775,-375.166 110,-391 116.066,-394.808 122.894,-397.923 129.812,-400.462"/>
<polygon fill="midnightblue" stroke="midnightblue" points="52.3328,-327.708 43.7456,-321.502 46.5887,-331.709 52.3328,-327.708"/>
</g>
<!-- Node8 -->
<g id="node15" class="node"><title>Node8</title>
<a xlink:href="classPreStack_1_1MuteAscIO.html" target="_top" xlink:title="Ascii I/O for PreStack mute. ">
<polygon fill="white" stroke="black" points="120.5,-360.5 120.5,-381.5 233.5,-381.5 233.5,-360.5 120.5,-360.5"/>
<text text-anchor="middle" x="177" y="-368.5" font-family="Helvetica,sans-Serif" font-size="10.00">PreStack::MuteAscIO</text>
</a>
</g>
<!-- Node1&#45;&gt;Node8 -->
<g id="edge14" class="edge"><title>Node1&#45;&gt;Node8</title>
<path fill="none" stroke="midnightblue" d="M62.7345,-326.844C76.4252,-334.821 93.7481,-344.211 110,-351 118.401,-354.509 127.63,-357.679 136.481,-360.407"/>
<polygon fill="midnightblue" stroke="midnightblue" points="64.2802,-323.692 53.8944,-321.597 60.7073,-329.711 64.2802,-323.692"/>
</g>
<!-- Node9 -->
<g id="node17" class="node"><title>Node9</title>
<a xlink:href="classVel_1_1FunctionAscIO.html" target="_top" xlink:title="Vel::FunctionAscIO">
<polygon fill="white" stroke="black" points="126,-320.5 126,-341.5 228,-341.5 228,-320.5 126,-320.5"/>
<text text-anchor="middle" x="177" y="-328.5" font-family="Helvetica,sans-Serif" font-size="10.00">Vel::FunctionAscIO</text>
</a>
</g>
<!-- Node1&#45;&gt;Node9 -->
<g id="edge16" class="edge"><title>Node1&#45;&gt;Node9</title>
<path fill="none" stroke="midnightblue" d="M84.1479,-317.735C97.5943,-319.656 112.304,-321.758 125.971,-323.71"/>
<polygon fill="midnightblue" stroke="midnightblue" points="84.5444,-314.257 74.1499,-316.307 83.5544,-321.186 84.5444,-314.257"/>
</g>
<!-- Node10 -->
<g id="node19" class="node"><title>Node10</title>
<a xlink:href="classWaveletAscIO.html" target="_top" xlink:title="WaveletAscIO">
<polygon fill="white" stroke="black" points="137,-280.5 137,-301.5 217,-301.5 217,-280.5 137,-280.5"/>
<text text-anchor="middle" x="177" y="-288.5" font-family="Helvetica,sans-Serif" font-size="10.00">WaveletAscIO</text>
</a>
</g>
<!-- Node1&#45;&gt;Node10 -->
<g id="edge18" class="edge"><title>Node1&#45;&gt;Node10</title>
<path fill="none" stroke="midnightblue" d="M84.4306,-304.224C101.421,-301.797 120.398,-299.086 136.725,-296.754"/>
<polygon fill="midnightblue" stroke="midnightblue" points="83.5544,-300.814 74.1499,-305.693 84.5444,-307.743 83.5544,-300.814"/>
</g>
<!-- Node11 -->
<g id="node21" class="node"><title>Node11</title>
<a xlink:href="classWell_1_1BulkD2TModelAscIO.html" target="_top" xlink:title="Bulk D2TModel Ascii I/O. ">
<polygon fill="white" stroke="black" points="110,-240.5 110,-261.5 244,-261.5 244,-240.5 110,-240.5"/>
<text text-anchor="middle" x="177" y="-248.5" font-family="Helvetica,sans-Serif" font-size="10.00">Well::BulkD2TModelAscIO</text>
</a>
</g>
<!-- Node1&#45;&gt;Node11 -->
<g id="edge20" class="edge"><title>Node1&#45;&gt;Node11</title>
<path fill="none" stroke="midnightblue" d="M62.7345,-295.156C76.4252,-287.179 93.7481,-277.789 110,-271 118.401,-267.491 127.63,-264.321 136.481,-261.593"/>
<polygon fill="midnightblue" stroke="midnightblue" points="60.7073,-292.289 53.8944,-300.403 64.2802,-298.308 60.7073,-292.289"/>
</g>
<!-- Node12 -->
<g id="node23" class="node"><title>Node12</title>
<a xlink:href="classWell_1_1BulkMarkerAscIO.html" target="_top" xlink:title="Bulk MarkerSet Ascii I/O. ">
<polygon fill="white" stroke="black" points="117.5,-200.5 117.5,-221.5 236.5,-221.5 236.5,-200.5 117.5,-200.5"/>
<text text-anchor="middle" x="177" y="-208.5" font-family="Helvetica,sans-Serif" font-size="10.00">Well::BulkMarkerAscIO</text>
</a>
</g>
<!-- Node1&#45;&gt;Node12 -->
<g id="edge22" class="edge"><title>Node1&#45;&gt;Node12</title>
<path fill="none" stroke="midnightblue" d="M49.7447,-291.884C62.8212,-273.699 84.7775,-246.834 110,-231 116.066,-227.192 122.894,-224.077 129.812,-221.538"/>
<polygon fill="midnightblue" stroke="midnightblue" points="46.5887,-290.291 43.7456,-300.498 52.3328,-294.292 46.5887,-290.291"/>
</g>
<!-- Node13 -->
<g id="node25" class="node"><title>Node13</title>
<a xlink:href="classWell_1_1BulkTrackAscIO.html" target="_top" xlink:title="Bulk WellTrack Ascii I/O. ">
<polygon fill="white" stroke="black" points="120,-160.5 120,-181.5 234,-181.5 234,-160.5 120,-160.5"/>
<text text-anchor="middle" x="177" y="-168.5" font-family="Helvetica,sans-Serif" font-size="10.00">Well::BulkTrackAscIO</text>
</a>
</g>
<!-- Node1&#45;&gt;Node13 -->
<g id="edge24" class="edge"><title>Node1&#45;&gt;Node13</title>
<path fill="none" stroke="midnightblue" d="M44.0326,-290.703C54.3383,-263.935 76.0826,-217.17 110,-191 114.998,-187.144 120.729,-184.029 126.691,-181.514"/>
<polygon fill="midnightblue" stroke="midnightblue" points="40.7026,-289.617 40.5314,-300.211 47.2714,-292.036 40.7026,-289.617"/>
</g>
<!-- Node14 -->
<g id="node27" class="node"><title>Node14</title>
<a xlink:href="classWell_1_1D2TModelAscIO.html" target="_top" xlink:title="D2TModel Ascii I/O. ">
<polygon fill="white" stroke="black" points="119.5,-120.5 119.5,-141.5 234.5,-141.5 234.5,-120.5 119.5,-120.5"/>
<text text-anchor="middle" x="177" y="-128.5" font-family="Helvetica,sans-Serif" font-size="10.00">Well::D2TModelAscIO</text>
</a>
</g>
<!-- Node1&#45;&gt;Node14 -->
<g id="edge26" class="edge"><title>Node1&#45;&gt;Node14</title>
<path fill="none" stroke="midnightblue" d="M40.7854,-290.006C48.0466,-255.841 67.1765,-188.289 110,-151 114.394,-147.174 119.496,-144.079 124.886,-141.576"/>
<polygon fill="midnightblue" stroke="midnightblue" points="37.2719,-289.731 38.7608,-300.22 44.1383,-291.092 37.2719,-289.731"/>
</g>
<!-- Node15 -->
<g id="node29" class="node"><title>Node15</title>
<a xlink:href="classWell_1_1DirectionalAscIO.html" target="_top" xlink:title="Directional survey Ascii I/O. ">
<polygon fill="white" stroke="black" points="119,-80.5 119,-101.5 235,-101.5 235,-80.5 119,-80.5"/>
<text text-anchor="middle" x="177" y="-88.5" font-family="Helvetica,sans-Serif" font-size="10.00">Well::DirectionalAscIO</text>
</a>
</g>
<!-- Node1&#45;&gt;Node15 -->
<g id="edge28" class="edge"><title>Node1&#45;&gt;Node15</title>
<path fill="none" stroke="midnightblue" d="M38.6002,-290.003C42.8268,-249.468 57.8583,-160.109 110,-111 114.065,-107.172 118.832,-104.073 123.918,-101.566"/>
<polygon fill="midnightblue" stroke="midnightblue" points="35.1053,-289.789 37.6728,-300.068 42.0757,-290.431 35.1053,-289.789"/>
</g>
<!-- Node16 -->
<g id="node31" class="node"><title>Node16</title>
<a xlink:href="classWell_1_1MarkerSetAscIO.html" target="_top" xlink:title="MarkerSet Ascii I/O. ">
<polygon fill="white" stroke="black" points="119.5,-40.5 119.5,-61.5 234.5,-61.5 234.5,-40.5 119.5,-40.5"/>
<text text-anchor="middle" x="177" y="-48.5" font-family="Helvetica,sans-Serif" font-size="10.00">Well::MarkerSetAscIO</text>
</a>
</g>
<!-- Node1&#45;&gt;Node16 -->
<g id="edge30" class="edge"><title>Node1&#45;&gt;Node16</title>
<path fill="none" stroke="midnightblue" d="M40.7082,-290.295C50.4637,-238.007 78.2869,-102.549 110,-71 113.873,-67.1474 118.454,-64.0312 123.375,-61.5117"/>
<polygon fill="midnightblue" stroke="midnightblue" points="37.2186,-289.921 38.8583,-300.388 44.1039,-291.183 37.2186,-289.921"/>
</g>
<!-- Node17 -->
<g id="node33" class="node"><title>Node17</title>
<a xlink:href="classWell_1_1TrackAscIO.html" target="_top" xlink:title="Track Ascii I/O. ">
<polygon fill="white" stroke="black" points="129.5,-0.5 129.5,-21.5 224.5,-21.5 224.5,-0.5 129.5,-0.5"/>
<text text-anchor="middle" x="177" y="-8.5" font-family="Helvetica,sans-Serif" font-size="10.00">Well::TrackAscIO</text>
</a>
</g>
<!-- Node1&#45;&gt;Node17 -->
<g id="edge32" class="edge"><title>Node1&#45;&gt;Node17</title>
<path fill="none" stroke="midnightblue" d="M39.7836,-290.023C47.9395,-231.59 73.5246,-68.7769 110,-31 115.312,-25.4984 122.067,-21.4933 129.234,-18.5815"/>
<polygon fill="midnightblue" stroke="midnightblue" points="36.2724,-289.868 38.3868,-300.25 43.208,-290.816 36.2724,-289.868"/>
</g>
</g>
</svg>
