<?xml version="1.0" encoding="UTF-8" standalone="no"?>
<!DOCTYPE svg PUBLIC "-//W3C//DTD SVG 1.1//EN"
 "http://www.w3.org/Graphics/SVG/1.1/DTD/svg11.dtd">
<!-- Generated by graphviz version 2.26.0 (20091210.2329)
 -->
<!-- Title: Strat::ContentSet Pages: 1 -->
<svg width="160pt" height="222pt"
 viewBox="0.00 0.00 160.00 222.00" xmlns="http://www.w3.org/2000/svg" xmlns:xlink="http://www.w3.org/1999/xlink">
<g id="graph1" class="graph" transform="scale(1 1) rotate(0) translate(4 218)">
<title>Strat::ContentSet</title>
<polygon fill="white" stroke="white" points="-4,5 -4,-218 157,-218 157,5 -4,5"/>
<!-- Node1 -->
<g id="node1" class="node"><title>Node1</title>
<polygon fill="#bfbfbf" stroke="black" points="9.5,-0.5 9.5,-21.5 102.5,-21.5 102.5,-0.5 9.5,-0.5"/>
<text text-anchor="middle" x="56" y="-8.5" font-family="Helvetica,sans-Serif" font-size="10.00">Strat::ContentSet</text>
</g>
<!-- Node2 -->
<g id="node2" class="node"><title>Node2</title>
<a xlink:href="classObjectSet.html" target="_top" xlink:title="ObjectSet\&lt; Content \&gt;">
<polygon fill="white" stroke="black" points="-0.5,-60.5 -0.5,-81.5 112.5,-81.5 112.5,-60.5 -0.5,-60.5"/>
<text text-anchor="middle" x="56" y="-68.5" font-family="Helvetica,sans-Serif" font-size="10.00">ObjectSet&lt; Content &gt;</text>
</a>
</g>
<!-- Node2&#45;&gt;Node1 -->
<g id="edge2" class="edge"><title>Node2&#45;&gt;Node1</title>
<path fill="none" stroke="midnightblue" d="M56,-50.2312C56,-40.5922 56,-29.5444 56,-21.6339"/>
<polygon fill="midnightblue" stroke="midnightblue" points="52.5001,-50.2732 56,-60.2732 59.5001,-50.2732 52.5001,-50.2732"/>
</g>
<!-- Node3 -->
<g id="node4" class="node"><title>Node3</title>
<a xlink:href="classOD_1_1Set.html" target="_top" xlink:title="Base class for all sets used in OpendTect. ">
<polygon fill="white" stroke="black" points="36.5,-192.5 36.5,-213.5 89.5,-213.5 89.5,-192.5 36.5,-192.5"/>
<text text-anchor="middle" x="63" y="-200.5" font-family="Helvetica,sans-Serif" font-size="10.00">OD::Set</text>
</a>
</g>
<!-- Node3&#45;&gt;Node2 -->
<g id="edge4" class="edge"><title>Node3&#45;&gt;Node2</title>
<path fill="none" stroke="midnightblue" d="M61.1128,-182.437C60.3631,-173.679 59.5501,-163.346 59,-154 57.475,-128.09 56.6114,-97.5822 56.233,-81.7516"/>
<polygon fill="midnightblue" stroke="midnightblue" points="57.635,-182.843 62.0039,-192.495 64.6077,-182.226 57.635,-182.843"/>
</g>
<!-- Node4 -->
<g id="node6" class="node"><title>Node4</title>
<a xlink:href="classObjectSet.html" target="_top" xlink:title="Set of pointers to objects. ">
<polygon fill="white" stroke="black" points="68,-132.5 68,-153.5 152,-153.5 152,-132.5 68,-132.5"/>
<text text-anchor="middle" x="110" y="-140.5" font-family="Helvetica,sans-Serif" font-size="10.00">ObjectSet&lt; T &gt;</text>
</a>
</g>
<!-- Node3&#45;&gt;Node4 -->
<g id="edge8" class="edge"><title>Node3&#45;&gt;Node4</title>
<path fill="none" stroke="midnightblue" d="M77.5842,-184.382C85.5028,-174.273 95.0072,-162.14 101.67,-153.634"/>
<polygon fill="midnightblue" stroke="midnightblue" points="74.814,-182.243 71.4027,-192.273 80.3246,-186.559 74.814,-182.243"/>
</g>
<!-- Node4&#45;&gt;Node2 -->
<g id="edge6" class="edge"><title>Node4&#45;&gt;Node2</title>
<path fill="none" stroke="orange" stroke-dasharray="5,2" d="M95.8986,-124.198C85.7367,-110.649 72.3885,-92.8514 64.0006,-81.6674"/>
<polygon fill="orange" stroke="orange" points="93.2321,-126.476 102.032,-132.376 98.8321,-122.276 93.2321,-126.476"/>
<text text-anchor="middle" x="115" y="-104.5" font-family="Helvetica,sans-Serif" font-size="10.00"> &lt; Content &gt;</text>
</g>
</g>
</svg>
