<?xml version="1.0" encoding="UTF-8" standalone="no"?>
<!DOCTYPE svg PUBLIC "-//W3C//DTD SVG 1.1//EN"
 "http://www.w3.org/Graphics/SVG/1.1/DTD/svg11.dtd">
<!-- Generated by graphviz version 2.26.0 (20091210.2329)
 -->
<!-- Title: uiDataPointSetCrossPlotterPropDlg Pages: 1 -->
<svg width="144pt" height="334pt"
 viewBox="0.00 0.00 144.00 334.00" xmlns="http://www.w3.org/2000/svg" xmlns:xlink="http://www.w3.org/1999/xlink">
<g id="graph1" class="graph" transform="scale(1 1) rotate(0) translate(4 330)">
<title>uiDataPointSetCrossPlotterPropDlg</title>
<polygon fill="white" stroke="white" points="-4,5 -4,-330 141,-330 141,5 -4,5"/>
<!-- Node1 -->
<g id="node1" class="node"><title>Node1</title>
<polygon fill="#bfbfbf" stroke="black" points="-0.5,-1 -0.5,-35 136.5,-35 136.5,-1 -0.5,-1"/>
<text text-anchor="start" x="7.5" y="-22" font-family="Helvetica,sans-Serif" font-size="10.00">uiDataPointSetCrossPlotter</text>
<text text-anchor="middle" x="68" y="-9" font-family="Helvetica,sans-Serif" font-size="10.00">PropDlg</text>
</g>
<!-- Node2 -->
<g id="node2" class="node"><title>Node2</title>
<a xlink:href="classuiTabStackDlg.html" target="_top" xlink:title="uiTabStackDlg">
<polygon fill="white" stroke="black" points="27.5,-72.5 27.5,-93.5 108.5,-93.5 108.5,-72.5 27.5,-72.5"/>
<text text-anchor="middle" x="68" y="-80.5" font-family="Helvetica,sans-Serif" font-size="10.00">uiTabStackDlg</text>
</a>
</g>
<!-- Node2&#45;&gt;Node1 -->
<g id="edge2" class="edge"><title>Node2&#45;&gt;Node1</title>
<path fill="none" stroke="midnightblue" d="M68,-62.1306C68,-53.4049 68,-43.3908 68,-35.1099"/>
<polygon fill="midnightblue" stroke="midnightblue" points="64.5001,-62.2665 68,-72.2666 71.5001,-62.2666 64.5001,-62.2665"/>
</g>
<!-- Node3 -->
<g id="node4" class="node"><title>Node3</title>
<a xlink:href="classuiDialog.html" target="_top" xlink:title="uiDialog">
<polygon fill="white" stroke="black" points="42,-130.5 42,-151.5 94,-151.5 94,-130.5 42,-130.5"/>
<text text-anchor="middle" x="68" y="-138.5" font-family="Helvetica,sans-Serif" font-size="10.00">uiDialog</text>
</a>
</g>
<!-- Node3&#45;&gt;Node2 -->
<g id="edge4" class="edge"><title>Node3&#45;&gt;Node2</title>
<path fill="none" stroke="midnightblue" d="M68,-120.191C68,-111.168 68,-100.994 68,-93.5707"/>
<polygon fill="midnightblue" stroke="midnightblue" points="64.5001,-120.362 68,-130.362 71.5001,-120.362 64.5001,-120.362"/>
</g>
<!-- Node4 -->
<g id="node6" class="node"><title>Node4</title>
<a xlink:href="classuiMainWin.html" target="_top" xlink:title="User interface main window. ">
<polygon fill="white" stroke="black" points="37,-188.5 37,-209.5 99,-209.5 99,-188.5 37,-188.5"/>
<text text-anchor="middle" x="68" y="-196.5" font-family="Helvetica,sans-Serif" font-size="10.00">uiMainWin</text>
</a>
</g>
<!-- Node4&#45;&gt;Node3 -->
<g id="edge6" class="edge"><title>Node4&#45;&gt;Node3</title>
<path fill="none" stroke="midnightblue" d="M68,-178.191C68,-169.168 68,-158.994 68,-151.571"/>
<polygon fill="midnightblue" stroke="midnightblue" points="64.5001,-178.362 68,-188.362 71.5001,-178.362 64.5001,-178.362"/>
</g>
<!-- Node5 -->
<g id="node8" class="node"><title>Node5</title>
<a xlink:href="classuiParent.html" target="_top" xlink:title="uiParent">
<polygon fill="white" stroke="black" points="41.5,-246.5 41.5,-267.5 94.5,-267.5 94.5,-246.5 41.5,-246.5"/>
<text text-anchor="middle" x="68" y="-254.5" font-family="Helvetica,sans-Serif" font-size="10.00">uiParent</text>
</a>
</g>
<!-- Node5&#45;&gt;Node4 -->
<g id="edge8" class="edge"><title>Node5&#45;&gt;Node4</title>
<path fill="none" stroke="midnightblue" d="M68,-236.191C68,-227.168 68,-216.994 68,-209.571"/>
<polygon fill="midnightblue" stroke="midnightblue" points="64.5001,-236.362 68,-246.362 71.5001,-236.362 64.5001,-236.362"/>
</g>
<!-- Node6 -->
<g id="node10" class="node"><title>Node6</title>
<polygon fill="white" stroke="#bfbfbf" points="30.5,-304.5 30.5,-325.5 105.5,-325.5 105.5,-304.5 30.5,-304.5"/>
<text text-anchor="middle" x="68" y="-312.5" font-family="Helvetica,sans-Serif" font-size="10.00">uiBaseObject</text>
</g>
<!-- Node6&#45;&gt;Node5 -->
<g id="edge10" class="edge"><title>Node6&#45;&gt;Node5</title>
<path fill="none" stroke="midnightblue" d="M68,-294.191C68,-285.168 68,-274.994 68,-267.571"/>
<polygon fill="midnightblue" stroke="midnightblue" points="64.5001,-294.362 68,-304.362 71.5001,-294.362 64.5001,-294.362"/>
</g>
</g>
</svg>
