<?xml version="1.0" encoding="UTF-8" standalone="no"?>
<!DOCTYPE svg PUBLIC "-//W3C//DTD SVG 1.1//EN"
 "http://www.w3.org/Graphics/SVG/1.1/DTD/svg11.dtd">
<!-- Generated by graphviz version 2.26.0 (20091210.2329)
 -->
<!-- Title: RandomLineSetTranslator Pages: 1 -->
<svg width="154pt" height="204pt"
 viewBox="0.00 0.00 154.00 204.00" xmlns="http://www.w3.org/2000/svg" xmlns:xlink="http://www.w3.org/1999/xlink">
<g id="graph1" class="graph" transform="scale(1 1) rotate(0) translate(4 200)">
<title>RandomLineSetTranslator</title>
<polygon fill="white" stroke="white" points="-4,5 -4,-200 151,-200 151,5 -4,5"/>
<!-- Node1 -->
<g id="node1" class="node"><title>Node1</title>
<polygon fill="#bfbfbf" stroke="black" points="8,-58.5 8,-79.5 138,-79.5 138,-58.5 8,-58.5"/>
<text text-anchor="middle" x="73" y="-66.5" font-family="Helvetica,sans-Serif" font-size="10.00">RandomLineSetTranslator</text>
</g>
<!-- Node4 -->
<g id="node7" class="node"><title>Node4</title>
<a xlink:href="classdgbRandomLineSetTranslator.html" target="_top" xlink:title="dgbRandomLineSetTranslator">
<polygon fill="white" stroke="black" points="0,-0.5 0,-21.5 146,-21.5 146,-0.5 0,-0.5"/>
<text text-anchor="middle" x="73" y="-8.5" font-family="Helvetica,sans-Serif" font-size="10.00">dgbRandomLineSetTranslator</text>
</a>
</g>
<!-- Node1&#45;&gt;Node4 -->
<g id="edge6" class="edge"><title>Node1&#45;&gt;Node4</title>
<path fill="none" stroke="midnightblue" d="M73,-48.1906C73,-39.1684 73,-28.9941 73,-21.5707"/>
<polygon fill="midnightblue" stroke="midnightblue" points="69.5001,-48.3619 73,-58.3619 76.5001,-48.3619 69.5001,-48.3619"/>
</g>
<!-- Node2 -->
<g id="node2" class="node"><title>Node2</title>
<a xlink:href="classTranslator.html" target="_top" xlink:title="I/O Interpreter class for a certain object type. ">
<polygon fill="white" stroke="black" points="43,-116.5 43,-137.5 103,-137.5 103,-116.5 43,-116.5"/>
<text text-anchor="middle" x="73" y="-124.5" font-family="Helvetica,sans-Serif" font-size="10.00">Translator</text>
</a>
</g>
<!-- Node2&#45;&gt;Node1 -->
<g id="edge2" class="edge"><title>Node2&#45;&gt;Node1</title>
<path fill="none" stroke="midnightblue" d="M73,-106.191C73,-97.1684 73,-86.9941 73,-79.5707"/>
<polygon fill="midnightblue" stroke="midnightblue" points="69.5001,-106.362 73,-116.362 76.5001,-106.362 69.5001,-106.362"/>
</g>
<!-- Node3 -->
<g id="node4" class="node"><title>Node3</title>
<a xlink:href="classCallBacker.html" target="_top" xlink:title="To be able to send and/or receive CallBacks, inherit from this class. ">
<polygon fill="white" stroke="black" points="40.5,-174.5 40.5,-195.5 105.5,-195.5 105.5,-174.5 40.5,-174.5"/>
<text text-anchor="middle" x="73" y="-182.5" font-family="Helvetica,sans-Serif" font-size="10.00">CallBacker</text>
</a>
</g>
<!-- Node3&#45;&gt;Node2 -->
<g id="edge4" class="edge"><title>Node3&#45;&gt;Node2</title>
<path fill="none" stroke="midnightblue" d="M73,-164.191C73,-155.168 73,-144.994 73,-137.571"/>
<polygon fill="midnightblue" stroke="midnightblue" points="69.5001,-164.362 73,-174.362 76.5001,-164.362 69.5001,-164.362"/>
</g>
</g>
</svg>
