<?xml version="1.0" encoding="UTF-8" standalone="no"?>
<!DOCTYPE svg PUBLIC "-//W3C//DTD SVG 1.1//EN"
 "http://www.w3.org/Graphics/SVG/1.1/DTD/svg11.dtd">
<!-- Generated by graphviz version 2.26.0 (20091210.2329)
 -->
<!-- Title: ArrayMath::CumArrOperExec&lt; RT, AT &gt; Pages: 1 -->
<svg width="152pt" height="276pt"
 viewBox="0.00 0.00 152.00 276.00" xmlns="http://www.w3.org/2000/svg" xmlns:xlink="http://www.w3.org/1999/xlink">
<g id="graph1" class="graph" transform="scale(1 1) rotate(0) translate(4 272)">
<title>ArrayMath::CumArrOperExec&lt; RT, AT &gt;</title>
<polygon fill="white" stroke="white" points="-4,5 -4,-272 149,-272 149,5 -4,5"/>
<!-- Node1 -->
<g id="node1" class="node"><title>Node1</title>
<polygon fill="#bfbfbf" stroke="black" points="-0.5,-1 -0.5,-35 144.5,-35 144.5,-1 -0.5,-1"/>
<text text-anchor="start" x="7.5" y="-22" font-family="Helvetica,sans-Serif" font-size="10.00">ArrayMath::CumArrOperExec</text>
<text text-anchor="middle" x="72" y="-9" font-family="Helvetica,sans-Serif" font-size="10.00">&lt; RT, AT &gt;</text>
</g>
<!-- Node2 -->
<g id="node2" class="node"><title>Node2</title>
<a xlink:href="classParallelTask.html" target="_top" xlink:title="Generalization of a task that can be run in parallel. ">
<polygon fill="white" stroke="black" points="36.5,-72.5 36.5,-93.5 107.5,-93.5 107.5,-72.5 36.5,-72.5"/>
<text text-anchor="middle" x="72" y="-80.5" font-family="Helvetica,sans-Serif" font-size="10.00">ParallelTask</text>
</a>
</g>
<!-- Node2&#45;&gt;Node1 -->
<g id="edge2" class="edge"><title>Node2&#45;&gt;Node1</title>
<path fill="none" stroke="midnightblue" d="M72,-62.1306C72,-53.4049 72,-43.3908 72,-35.1099"/>
<polygon fill="midnightblue" stroke="midnightblue" points="68.5001,-62.2665 72,-72.2666 75.5001,-62.2666 68.5001,-62.2665"/>
</g>
<!-- Node3 -->
<g id="node4" class="node"><title>Node3</title>
<a xlink:href="classTask.html" target="_top" xlink:title="Generalization of something (e.g. a computation) that needs to be done in multiple steps...">
<polygon fill="white" stroke="black" points="53,-130.5 53,-151.5 91,-151.5 91,-130.5 53,-130.5"/>
<text text-anchor="middle" x="72" y="-138.5" font-family="Helvetica,sans-Serif" font-size="10.00">Task</text>
</a>
</g>
<!-- Node3&#45;&gt;Node2 -->
<g id="edge4" class="edge"><title>Node3&#45;&gt;Node2</title>
<path fill="none" stroke="midnightblue" d="M72,-120.191C72,-111.168 72,-100.994 72,-93.5707"/>
<polygon fill="midnightblue" stroke="midnightblue" points="68.5001,-120.362 72,-130.362 75.5001,-120.362 68.5001,-120.362"/>
</g>
<!-- Node4 -->
<g id="node6" class="node"><title>Node4</title>
<a xlink:href="classNamedObject.html" target="_top" xlink:title="Object with a name. ">
<polygon fill="white" stroke="black" points="33.5,-188.5 33.5,-209.5 110.5,-209.5 110.5,-188.5 33.5,-188.5"/>
<text text-anchor="middle" x="72" y="-196.5" font-family="Helvetica,sans-Serif" font-size="10.00">NamedObject</text>
</a>
</g>
<!-- Node4&#45;&gt;Node3 -->
<g id="edge6" class="edge"><title>Node4&#45;&gt;Node3</title>
<path fill="none" stroke="midnightblue" d="M72,-178.191C72,-169.168 72,-158.994 72,-151.571"/>
<polygon fill="midnightblue" stroke="midnightblue" points="68.5001,-178.362 72,-188.362 75.5001,-178.362 68.5001,-178.362"/>
</g>
<!-- Node5 -->
<g id="node8" class="node"><title>Node5</title>
<a xlink:href="classCallBacker.html" target="_top" xlink:title="To be able to send and/or receive CallBacks, inherit from this class. ">
<polygon fill="white" stroke="black" points="39.5,-246.5 39.5,-267.5 104.5,-267.5 104.5,-246.5 39.5,-246.5"/>
<text text-anchor="middle" x="72" y="-254.5" font-family="Helvetica,sans-Serif" font-size="10.00">CallBacker</text>
</a>
</g>
<!-- Node5&#45;&gt;Node4 -->
<g id="edge8" class="edge"><title>Node5&#45;&gt;Node4</title>
<path fill="none" stroke="midnightblue" d="M72,-236.191C72,-227.168 72,-216.994 72,-209.571"/>
<polygon fill="midnightblue" stroke="midnightblue" points="68.5001,-236.362 72,-246.362 75.5001,-236.362 68.5001,-236.362"/>
</g>
</g>
</svg>
