<?xml version="1.0" encoding="UTF-8" standalone="no"?>
<!DOCTYPE svg PUBLIC "-//W3C//DTD SVG 1.1//EN"
 "http://www.w3.org/Graphics/SVG/1.1/DTD/svg11.dtd">
<!-- Generated by graphviz version 2.26.0 (20091210.2329)
 -->
<!-- Title: Stats::DirectionalData Pages: 1 -->
<svg width="278pt" height="308pt"
 viewBox="0.00 0.00 278.00 308.00" xmlns="http://www.w3.org/2000/svg" xmlns:xlink="http://www.w3.org/1999/xlink">
<g id="graph1" class="graph" transform="scale(1 1) rotate(0) translate(4 304)">
<title>Stats::DirectionalData</title>
<polygon fill="white" stroke="white" points="-4,5 -4,-304 275,-304 275,5 -4,5"/>
<!-- Node1 -->
<g id="node1" class="node"><title>Node1</title>
<polygon fill="#bfbfbf" stroke="black" points="51.5,-0.5 51.5,-21.5 164.5,-21.5 164.5,-0.5 51.5,-0.5"/>
<text text-anchor="middle" x="108" y="-8.5" font-family="Helvetica,sans-Serif" font-size="10.00">Stats::DirectionalData</text>
</g>
<!-- Node2 -->
<g id="node2" class="node"><title>Node2</title>
<a xlink:href="classManagedObjectSet.html" target="_top" xlink:title="ManagedObjectSet\&lt; Sector\lData \&gt;">
<polygon fill="white" stroke="black" points="39.5,-61 39.5,-95 176.5,-95 176.5,-61 39.5,-61"/>
<text text-anchor="start" x="47.5" y="-82" font-family="Helvetica,sans-Serif" font-size="10.00">ManagedObjectSet&lt; Sector</text>
<text text-anchor="middle" x="108" y="-69" font-family="Helvetica,sans-Serif" font-size="10.00">Data &gt;</text>
</a>
</g>
<!-- Node2&#45;&gt;Node1 -->
<g id="edge2" class="edge"><title>Node2&#45;&gt;Node1</title>
<path fill="none" stroke="midnightblue" d="M108,-50.5344C108,-40.3057 108,-29.3007 108,-21.5056"/>
<polygon fill="midnightblue" stroke="midnightblue" points="104.5,-50.7458 108,-60.7458 111.5,-50.7459 104.5,-50.7458"/>
</g>
<!-- Node3 -->
<g id="node4" class="node"><title>Node3</title>
<a xlink:href="classObjectSet.html" target="_top" xlink:title="ObjectSet\&lt; SectorData \&gt;">
<polygon fill="white" stroke="black" points="0,-146.5 0,-167.5 128,-167.5 128,-146.5 0,-146.5"/>
<text text-anchor="middle" x="64" y="-154.5" font-family="Helvetica,sans-Serif" font-size="10.00">ObjectSet&lt; SectorData &gt;</text>
</a>
</g>
<!-- Node3&#45;&gt;Node2 -->
<g id="edge4" class="edge"><title>Node3&#45;&gt;Node2</title>
<path fill="none" stroke="midnightblue" d="M74.9634,-137.316C82.1856,-124.349 91.5493,-107.536 98.4628,-95.1236"/>
<polygon fill="midnightblue" stroke="midnightblue" points="71.7422,-135.906 69.934,-146.346 77.8576,-139.312 71.7422,-135.906"/>
</g>
<!-- Node4 -->
<g id="node6" class="node"><title>Node4</title>
<a xlink:href="classOD_1_1Set.html" target="_top" xlink:title="Base class for all sets used in OpendTect. ">
<polygon fill="white" stroke="black" points="60.5,-278.5 60.5,-299.5 113.5,-299.5 113.5,-278.5 60.5,-278.5"/>
<text text-anchor="middle" x="87" y="-286.5" font-family="Helvetica,sans-Serif" font-size="10.00">OD::Set</text>
</a>
</g>
<!-- Node4&#45;&gt;Node3 -->
<g id="edge6" class="edge"><title>Node4&#45;&gt;Node3</title>
<path fill="none" stroke="midnightblue" d="M83.3545,-268.078C78.3762,-239.507 69.6373,-189.353 65.8439,-167.582"/>
<polygon fill="midnightblue" stroke="midnightblue" points="79.9531,-268.947 85.1178,-278.198 86.8492,-267.745 79.9531,-268.947"/>
</g>
<!-- Node5 -->
<g id="node8" class="node"><title>Node5</title>
<a xlink:href="classObjectSet.html" target="_top" xlink:title="Set of pointers to objects. ">
<polygon fill="white" stroke="black" points="92,-218.5 92,-239.5 176,-239.5 176,-218.5 92,-218.5"/>
<text text-anchor="middle" x="134" y="-226.5" font-family="Helvetica,sans-Serif" font-size="10.00">ObjectSet&lt; T &gt;</text>
</a>
</g>
<!-- Node4&#45;&gt;Node5 -->
<g id="edge10" class="edge"><title>Node4&#45;&gt;Node5</title>
<path fill="none" stroke="midnightblue" d="M101.584,-270.382C109.503,-260.273 119.007,-248.14 125.67,-239.634"/>
<polygon fill="midnightblue" stroke="midnightblue" points="98.814,-268.243 95.4027,-278.273 104.325,-272.559 98.814,-268.243"/>
</g>
<!-- Node5&#45;&gt;Node3 -->
<g id="edge8" class="edge"><title>Node5&#45;&gt;Node3</title>
<path fill="none" stroke="orange" stroke-dasharray="5,2" d="M116.469,-210.968C103.209,-197.329 85.4515,-179.064 74.3711,-167.667"/>
<polygon fill="orange" stroke="orange" points="114.191,-213.646 123.671,-218.376 119.21,-208.766 114.191,-213.646"/>
<text text-anchor="middle" x="141.5" y="-190.5" font-family="Helvetica,sans-Serif" font-size="10.00"> &lt; SectorData &gt;</text>
</g>
<!-- Node6 -->
<g id="node11" class="node"><title>Node6</title>
<a xlink:href="classManagedObjectSet.html" target="_top" xlink:title="ObjectSet where the objects contained are owned by this set. ">
<polygon fill="white" stroke="black" points="146,-146.5 146,-167.5 270,-167.5 270,-146.5 146,-146.5"/>
<text text-anchor="middle" x="208" y="-154.5" font-family="Helvetica,sans-Serif" font-size="10.00">ManagedObjectSet&lt; T &gt;</text>
</a>
</g>
<!-- Node5&#45;&gt;Node6 -->
<g id="edge14" class="edge"><title>Node5&#45;&gt;Node6</title>
<path fill="none" stroke="midnightblue" d="M164.205,-213.217C170.146,-209.352 176.061,-204.9 181,-200 190.511,-190.563 198.247,-177.173 202.962,-167.852"/>
<polygon fill="midnightblue" stroke="midnightblue" points="162.327,-210.263 155.592,-218.442 165.958,-216.247 162.327,-210.263"/>
</g>
<!-- Node6&#45;&gt;Node2 -->
<g id="edge12" class="edge"><title>Node6&#45;&gt;Node2</title>
<path fill="none" stroke="orange" stroke-dasharray="5,2" d="M186.39,-139.928C169.616,-126.677 146.466,-108.388 129.675,-95.1236"/>
<polygon fill="orange" stroke="orange" points="184.497,-142.893 194.514,-146.346 188.836,-137.4 184.497,-142.893"/>
<text text-anchor="middle" x="204.5" y="-118.5" font-family="Helvetica,sans-Serif" font-size="10.00"> &lt; SectorData &gt;</text>
</g>
</g>
</svg>
