<?xml version="1.0" encoding="UTF-8" standalone="no"?>
<!DOCTYPE svg PUBLIC "-//W3C//DTD SVG 1.1//EN"
 "http://www.w3.org/Graphics/SVG/1.1/DTD/svg11.dtd">
<!-- Generated by graphviz version 2.26.0 (20091210.2329)
 -->
<!-- Title: VW2DFaultSS2D Pages: 1 -->
<svg width="116pt" height="204pt"
 viewBox="0.00 0.00 116.00 204.00" xmlns="http://www.w3.org/2000/svg" xmlns:xlink="http://www.w3.org/1999/xlink">
<g id="graph1" class="graph" transform="scale(1 1) rotate(0) translate(4 200)">
<title>VW2DFaultSS2D</title>
<polygon fill="white" stroke="white" points="-4,5 -4,-200 113,-200 113,5 -4,5"/>
<!-- Node1 -->
<g id="node1" class="node"><title>Node1</title>
<polygon fill="#bfbfbf" stroke="black" points="7,-0.5 7,-21.5 101,-21.5 101,-0.5 7,-0.5"/>
<text text-anchor="middle" x="54" y="-8.5" font-family="Helvetica,sans-Serif" font-size="10.00">VW2DFaultSS2D</text>
</g>
<!-- Node2 -->
<g id="node2" class="node"><title>Node2</title>
<a xlink:href="classVw2DEMDataObject.html" target="_top" xlink:title="Vw2DEMDataObject">
<polygon fill="white" stroke="black" points="0,-58.5 0,-79.5 108,-79.5 108,-58.5 0,-58.5"/>
<text text-anchor="middle" x="54" y="-66.5" font-family="Helvetica,sans-Serif" font-size="10.00">Vw2DEMDataObject</text>
</a>
</g>
<!-- Node2&#45;&gt;Node1 -->
<g id="edge2" class="edge"><title>Node2&#45;&gt;Node1</title>
<path fill="none" stroke="midnightblue" d="M54,-48.1906C54,-39.1684 54,-28.9941 54,-21.5707"/>
<polygon fill="midnightblue" stroke="midnightblue" points="50.5001,-48.3619 54,-58.3619 57.5001,-48.3619 50.5001,-48.3619"/>
</g>
<!-- Node3 -->
<g id="node4" class="node"><title>Node3</title>
<a xlink:href="classVw2DDataObject.html" target="_top" xlink:title="Vw2DDataObject">
<polygon fill="white" stroke="black" points="7.5,-116.5 7.5,-137.5 100.5,-137.5 100.5,-116.5 7.5,-116.5"/>
<text text-anchor="middle" x="54" y="-124.5" font-family="Helvetica,sans-Serif" font-size="10.00">Vw2DDataObject</text>
</a>
</g>
<!-- Node3&#45;&gt;Node2 -->
<g id="edge4" class="edge"><title>Node3&#45;&gt;Node2</title>
<path fill="none" stroke="midnightblue" d="M54,-106.191C54,-97.1684 54,-86.9941 54,-79.5707"/>
<polygon fill="midnightblue" stroke="midnightblue" points="50.5001,-106.362 54,-116.362 57.5001,-106.362 50.5001,-106.362"/>
</g>
<!-- Node4 -->
<g id="node6" class="node"><title>Node4</title>
<a xlink:href="classCallBacker.html" target="_top" xlink:title="To be able to send and/or receive CallBacks, inherit from this class. ">
<polygon fill="white" stroke="black" points="21.5,-174.5 21.5,-195.5 86.5,-195.5 86.5,-174.5 21.5,-174.5"/>
<text text-anchor="middle" x="54" y="-182.5" font-family="Helvetica,sans-Serif" font-size="10.00">CallBacker</text>
</a>
</g>
<!-- Node4&#45;&gt;Node3 -->
<g id="edge6" class="edge"><title>Node4&#45;&gt;Node3</title>
<path fill="none" stroke="midnightblue" d="M54,-164.191C54,-155.168 54,-144.994 54,-137.571"/>
<polygon fill="midnightblue" stroke="midnightblue" points="50.5001,-164.362 54,-174.362 57.5001,-164.362 50.5001,-164.362"/>
</g>
</g>
</svg>
