<?xml version="1.0" encoding="UTF-8" standalone="no"?>
<!DOCTYPE svg PUBLIC "-//W3C//DTD SVG 1.1//EN"
 "http://www.w3.org/Graphics/SVG/1.1/DTD/svg11.dtd">
<!-- Generated by graphviz version 2.26.0 (20091210.2329)
 -->
<!-- Title: cmdfunction.h Pages: 1 -->
<svg width="937pt" height="784pt"
 viewBox="0.00 0.00 937.10 784.00" xmlns="http://www.w3.org/2000/svg" xmlns:xlink="http://www.w3.org/1999/xlink">
<g id="graph1" class="graph" transform="scale(1 1) rotate(0) translate(4 780)">
<title>cmdfunction.h</title>
<polygon fill="white" stroke="white" points="-4,5 -4,-780 934.104,-780 934.104,5 -4,5"/>
<!-- Node1 -->
<g id="node1" class="node"><title>Node1</title>
<polygon fill="#bfbfbf" stroke="black" points="366,-754.5 366,-775.5 444,-775.5 444,-754.5 366,-754.5"/>
<text text-anchor="middle" x="405" y="-762.5" font-family="Helvetica,sans-Serif" font-size="10.00">cmdfunction.h</text>
</g>
<!-- Node2 -->
<g id="node3" class="node"><title>Node2</title>
<polygon fill="white" stroke="#bfbfbf" points="283,-696.5 283,-717.5 377,-717.5 377,-696.5 283,-696.5"/>
<text text-anchor="middle" x="330" y="-704.5" font-family="Helvetica,sans-Serif" font-size="10.00">uicmddrivermod.h</text>
</g>
<!-- Node1&#45;&gt;Node2 -->
<g id="edge2" class="edge"><title>Node1&#45;&gt;Node2</title>
<path fill="none" stroke="midnightblue" d="M391.244,-754.362C380.249,-745.859 364.627,-733.779 351.914,-723.947"/>
<polygon fill="midnightblue" stroke="midnightblue" points="353.721,-720.919 343.669,-717.571 349.438,-726.457 353.721,-720.919"/>
</g>
<!-- Node3 -->
<g id="node5" class="node"><title>Node3</title>
<a xlink:href="bufstringset_8h.html" target="_top" xlink:title="bufstringset.h">
<polygon fill="white" stroke="black" points="361,-638.5 361,-659.5 437,-659.5 437,-638.5 361,-638.5"/>
<text text-anchor="middle" x="399" y="-646.5" font-family="Helvetica,sans-Serif" font-size="10.00">bufstringset.h</text>
</a>
</g>
<!-- Node1&#45;&gt;Node3 -->
<g id="edge4" class="edge"><title>Node1&#45;&gt;Node3</title>
<path fill="none" stroke="midnightblue" d="M404.446,-754.295C403.455,-735.131 401.361,-694.654 400.078,-669.843"/>
<polygon fill="midnightblue" stroke="midnightblue" points="403.564,-669.485 399.552,-659.679 396.574,-669.847 403.564,-669.485"/>
</g>
<!-- Node29 -->
<g id="node74" class="node"><title>Node29</title>
<a xlink:href="factory_8h.html" target="_top" xlink:title="factory.h">
<polygon fill="white" stroke="black" points="437.5,-696.5 437.5,-717.5 492.5,-717.5 492.5,-696.5 437.5,-696.5"/>
<text text-anchor="middle" x="465" y="-704.5" font-family="Helvetica,sans-Serif" font-size="10.00">factory.h</text>
</a>
</g>
<!-- Node1&#45;&gt;Node29 -->
<g id="edge90" class="edge"><title>Node1&#45;&gt;Node29</title>
<path fill="none" stroke="midnightblue" d="M416.005,-754.362C424.547,-746.104 436.58,-734.472 446.583,-724.803"/>
<polygon fill="midnightblue" stroke="midnightblue" points="449.308,-727.037 454.065,-717.571 444.442,-722.004 449.308,-727.037"/>
</g>
<!-- Node4 -->
<g id="node7" class="node"><title>Node4</title>
<polygon fill="white" stroke="#bfbfbf" points="334.5,-0.5 334.5,-21.5 401.5,-21.5 401.5,-0.5 334.5,-0.5"/>
<text text-anchor="middle" x="368" y="-8.5" font-family="Helvetica,sans-Serif" font-size="10.00">basicmod.h</text>
</g>
<!-- Node3&#45;&gt;Node4 -->
<g id="edge6" class="edge"><title>Node3&#45;&gt;Node4</title>
<path fill="none" stroke="midnightblue" d="M360.708,-644.937C267.801,-634.022 38,-600.229 38,-533 38,-533 38,-533 38,-127 38,-91.5529 48.8055,-78.1041 78,-58 117.157,-31.0354 253.08,-18.4185 324.064,-13.5524"/>
<polygon fill="midnightblue" stroke="midnightblue" points="324.714,-17.0171 334.461,-12.8634 324.251,-10.0324 324.714,-17.0171"/>
</g>
<!-- Node5 -->
<g id="node9" class="node"><title>Node5</title>
<a xlink:href="bufstring_8h.html" target="_top" xlink:title="bufstring.h">
<polygon fill="white" stroke="black" points="185,-348.5 185,-369.5 247,-369.5 247,-348.5 185,-348.5"/>
<text text-anchor="middle" x="216" y="-356.5" font-family="Helvetica,sans-Serif" font-size="10.00">bufstring.h</text>
</a>
</g>
<!-- Node3&#45;&gt;Node5 -->
<g id="edge8" class="edge"><title>Node3&#45;&gt;Node5</title>
<path fill="none" stroke="midnightblue" d="M360.932,-642.775C316.654,-634.826 247.166,-619.932 228,-602 204.29,-579.817 204,-565.469 204,-533 204,-533 204,-533 204,-475 204,-441.42 209.037,-402.66 212.584,-379.528"/>
<polygon fill="midnightblue" stroke="midnightblue" points="216.062,-379.944 214.177,-369.518 209.149,-378.844 216.062,-379.944"/>
</g>
<!-- Node22 -->
<g id="node54" class="node"><title>Node22</title>
<a xlink:href="manobjectset_8h.html" target="_top" xlink:title="manobjectset.h">
<polygon fill="white" stroke="black" points="543.5,-580.5 543.5,-601.5 626.5,-601.5 626.5,-580.5 543.5,-580.5"/>
<text text-anchor="middle" x="585" y="-588.5" font-family="Helvetica,sans-Serif" font-size="10.00">manobjectset.h</text>
</a>
</g>
<!-- Node3&#45;&gt;Node22 -->
<g id="edge64" class="edge"><title>Node3&#45;&gt;Node22</title>
<path fill="none" stroke="midnightblue" d="M432.683,-638.497C463.137,-629 508.157,-614.962 541.358,-604.609"/>
<polygon fill="midnightblue" stroke="midnightblue" points="542.749,-607.841 551.254,-601.523 540.665,-601.159 542.749,-607.841"/>
</g>
<!-- Node5&#45;&gt;Node4 -->
<g id="edge10" class="edge"><title>Node5&#45;&gt;Node4</title>
<path fill="none" stroke="midnightblue" d="M204.758,-348.438C161.907,-306.947 15.1626,-152.757 95,-58 109.602,-40.6697 250.687,-23.3812 324.093,-15.4671"/>
<polygon fill="midnightblue" stroke="midnightblue" points="324.836,-18.9079 334.409,-14.3686 324.094,-11.9472 324.836,-18.9079"/>
</g>
<!-- Node6 -->
<g id="node12" class="node"><title>Node6</title>
<a xlink:href="fixedstring_8h.html" target="_top" xlink:title="fixedstring.h">
<polygon fill="white" stroke="black" points="251,-290.5 251,-311.5 321,-311.5 321,-290.5 251,-290.5"/>
<text text-anchor="middle" x="286" y="-298.5" font-family="Helvetica,sans-Serif" font-size="10.00">fixedstring.h</text>
</a>
</g>
<!-- Node5&#45;&gt;Node6 -->
<g id="edge12" class="edge"><title>Node5&#45;&gt;Node6</title>
<path fill="none" stroke="midnightblue" d="M228.839,-348.362C239.002,-339.941 253.401,-328.011 265.204,-318.231"/>
<polygon fill="midnightblue" stroke="midnightblue" points="267.775,-320.646 273.242,-311.571 263.309,-315.256 267.775,-320.646"/>
</g>
<!-- Node19 -->
<g id="node45" class="node"><title>Node19</title>
<a xlink:href="string2_8h.html" target="_top" xlink:title="string2.h">
<polygon fill="white" stroke="black" points="189,-116.5 189,-137.5 243,-137.5 243,-116.5 189,-116.5"/>
<text text-anchor="middle" x="216" y="-124.5" font-family="Helvetica,sans-Serif" font-size="10.00">string2.h</text>
</a>
</g>
<!-- Node5&#45;&gt;Node19 -->
<g id="edge52" class="edge"><title>Node5&#45;&gt;Node19</title>
<path fill="none" stroke="midnightblue" d="M216,-348.429C216,-312.648 216,-195.663 216,-147.748"/>
<polygon fill="midnightblue" stroke="midnightblue" points="219.5,-147.633 216,-137.634 212.5,-147.634 219.5,-147.633"/>
</g>
<!-- Node6&#45;&gt;Node4 -->
<g id="edge14" class="edge"><title>Node6&#45;&gt;Node4</title>
<path fill="none" stroke="midnightblue" d="M281.416,-290.234C276.22,-276.65 268.964,-252.575 273,-232 288.498,-152.998 334.524,-67.6604 356.314,-30.3262"/>
<polygon fill="midnightblue" stroke="midnightblue" points="359.453,-31.8943 361.536,-21.5062 353.429,-28.3281 359.453,-31.8943"/>
</g>
<!-- Node7 -->
<g id="node15" class="node"><title>Node7</title>
<a xlink:href="odstring_8h.html" target="_top" xlink:title="odstring.h">
<polygon fill="white" stroke="black" points="281.5,-232.5 281.5,-253.5 340.5,-253.5 340.5,-232.5 281.5,-232.5"/>
<text text-anchor="middle" x="311" y="-240.5" font-family="Helvetica,sans-Serif" font-size="10.00">odstring.h</text>
</a>
</g>
<!-- Node6&#45;&gt;Node7 -->
<g id="edge16" class="edge"><title>Node6&#45;&gt;Node7</title>
<path fill="none" stroke="midnightblue" d="M290.585,-290.362C293.898,-282.677 298.47,-272.069 302.448,-262.84"/>
<polygon fill="midnightblue" stroke="midnightblue" points="305.699,-264.139 306.444,-253.571 299.271,-261.368 305.699,-264.139"/>
</g>
<!-- Node7&#45;&gt;Node4 -->
<g id="edge18" class="edge"><title>Node7&#45;&gt;Node4</title>
<path fill="none" stroke="midnightblue" d="M313.29,-232.1C319.362,-203.441 336.607,-123.662 354,-58 356.304,-49.3017 359.092,-39.7749 361.571,-31.5861"/>
<polygon fill="midnightblue" stroke="midnightblue" points="364.995,-32.3612 364.586,-21.7742 358.303,-30.305 364.995,-32.3612"/>
</g>
<!-- Node8 -->
<g id="node18" class="node"><title>Node8</title>
<a xlink:href="gendefs_8h.html" target="_top" xlink:title="gendefs.h">
<polygon fill="white" stroke="black" points="525.5,-174.5 525.5,-195.5 584.5,-195.5 584.5,-174.5 525.5,-174.5"/>
<text text-anchor="middle" x="555" y="-182.5" font-family="Helvetica,sans-Serif" font-size="10.00">gendefs.h</text>
</a>
</g>
<!-- Node7&#45;&gt;Node8 -->
<g id="edge20" class="edge"><title>Node7&#45;&gt;Node8</title>
<path fill="none" stroke="midnightblue" d="M340.919,-235.888C384.758,-225.467 466.522,-206.032 515.329,-194.43"/>
<polygon fill="midnightblue" stroke="midnightblue" points="516.299,-197.797 525.218,-192.079 514.68,-190.987 516.299,-197.797"/>
</g>
<!-- Node9 -->
<g id="node20" class="node"><title>Node9</title>
<a xlink:href="undefval_8h.html" target="_top" xlink:title="undefval.h">
<polygon fill="white" stroke="black" points="610,-116.5 610,-137.5 672,-137.5 672,-116.5 610,-116.5"/>
<text text-anchor="middle" x="641" y="-124.5" font-family="Helvetica,sans-Serif" font-size="10.00">undefval.h</text>
</a>
</g>
<!-- Node8&#45;&gt;Node9 -->
<g id="edge22" class="edge"><title>Node8&#45;&gt;Node9</title>
<path fill="none" stroke="midnightblue" d="M570.774,-174.362C583.624,-165.696 601.985,-153.313 616.71,-143.382"/>
<polygon fill="midnightblue" stroke="midnightblue" points="618.993,-146.064 625.326,-137.571 615.079,-140.26 618.993,-146.064"/>
</g>
<!-- Node16 -->
<g id="node37" class="node"><title>Node16</title>
<a xlink:href="commontypes_8h.html" target="_top" xlink:title="commontypes.h">
<polygon fill="white" stroke="black" points="506,-116.5 506,-137.5 592,-137.5 592,-116.5 506,-116.5"/>
<text text-anchor="middle" x="549" y="-124.5" font-family="Helvetica,sans-Serif" font-size="10.00">commontypes.h</text>
</a>
</g>
<!-- Node8&#45;&gt;Node16 -->
<g id="edge42" class="edge"><title>Node8&#45;&gt;Node16</title>
<path fill="none" stroke="midnightblue" d="M553.9,-174.362C553.13,-166.922 552.077,-156.743 551.144,-147.728"/>
<polygon fill="midnightblue" stroke="midnightblue" points="554.604,-147.157 550.094,-137.571 547.641,-147.878 554.604,-147.157"/>
</g>
<!-- Node17 -->
<g id="node40" class="node"><title>Node17</title>
<a xlink:href="errmsg_8h.html" target="_top" xlink:title="errmsg.h">
<polygon fill="white" stroke="black" points="433.5,-116.5 433.5,-137.5 488.5,-137.5 488.5,-116.5 433.5,-116.5"/>
<text text-anchor="middle" x="461" y="-124.5" font-family="Helvetica,sans-Serif" font-size="10.00">errmsg.h</text>
</a>
</g>
<!-- Node8&#45;&gt;Node17 -->
<g id="edge46" class="edge"><title>Node8&#45;&gt;Node17</title>
<path fill="none" stroke="midnightblue" d="M537.759,-174.362C523.448,-165.532 502.885,-152.844 486.643,-142.822"/>
<polygon fill="midnightblue" stroke="midnightblue" points="488.48,-139.843 478.132,-137.571 484.804,-145.8 488.48,-139.843"/>
</g>
<!-- Node9&#45;&gt;Node4 -->
<g id="edge24" class="edge"><title>Node9&#45;&gt;Node4</title>
<path fill="none" stroke="midnightblue" d="M618.736,-116.416C579.405,-97.7265 501.17,-60.594 495,-58 466.396,-45.9749 433.53,-33.8567 408.4,-24.9376"/>
<polygon fill="midnightblue" stroke="midnightblue" points="409.424,-21.5874 398.829,-21.5625 407.096,-28.189 409.424,-21.5874"/>
</g>
<!-- Node10 -->
<g id="node23" class="node"><title>Node10</title>
<a xlink:href="commondefs_8h.html" target="_top" xlink:title="commondefs.h">
<polygon fill="white" stroke="black" points="584.5,-58.5 584.5,-79.5 665.5,-79.5 665.5,-58.5 584.5,-58.5"/>
<text text-anchor="middle" x="625" y="-66.5" font-family="Helvetica,sans-Serif" font-size="10.00">commondefs.h</text>
</a>
</g>
<!-- Node9&#45;&gt;Node10 -->
<g id="edge26" class="edge"><title>Node9&#45;&gt;Node10</title>
<path fill="none" stroke="midnightblue" d="M638.065,-116.362C635.99,-108.84 633.143,-98.5187 630.636,-89.4308"/>
<polygon fill="midnightblue" stroke="midnightblue" points="633.949,-88.2798 627.916,-79.5707 627.201,-90.1414 633.949,-88.2798"/>
</g>
<!-- Node14 -->
<g id="node32" class="node"><title>Node14</title>
<a xlink:href="plftypes_8h.html" target="_top" xlink:title="plftypes.h">
<polygon fill="white" stroke="black" points="720.5,-58.5 720.5,-79.5 779.5,-79.5 779.5,-58.5 720.5,-58.5"/>
<text text-anchor="middle" x="750" y="-66.5" font-family="Helvetica,sans-Serif" font-size="10.00">plftypes.h</text>
</a>
</g>
<!-- Node9&#45;&gt;Node14 -->
<g id="edge36" class="edge"><title>Node9&#45;&gt;Node14</title>
<path fill="none" stroke="midnightblue" d="M660.739,-116.497C677.61,-107.519 702.109,-94.4835 721.174,-84.3387"/>
<polygon fill="midnightblue" stroke="midnightblue" points="722.856,-87.4086 730.039,-79.6212 719.567,-81.2289 722.856,-87.4086"/>
</g>
<!-- Node10&#45;&gt;Node4 -->
<g id="edge28" class="edge"><title>Node10&#45;&gt;Node4</title>
<path fill="none" stroke="midnightblue" d="M584.278,-59.8097C537.104,-49.1636 459.699,-31.6947 411.411,-20.7971"/>
<polygon fill="midnightblue" stroke="midnightblue" points="412.096,-17.3636 401.57,-18.5762 410.555,-24.1919 412.096,-17.3636"/>
</g>
<!-- Node11 -->
<g id="node26" class="node"><title>Node11</title>
<a xlink:href="plfdefs_8h.html" target="_top" xlink:title="plfdefs.h">
<polygon fill="white" stroke="black" points="657,-0.5 657,-21.5 711,-21.5 711,-0.5 657,-0.5"/>
<text text-anchor="middle" x="684" y="-8.5" font-family="Helvetica,sans-Serif" font-size="10.00">plfdefs.h</text>
</a>
</g>
<!-- Node10&#45;&gt;Node11 -->
<g id="edge30" class="edge"><title>Node10&#45;&gt;Node11</title>
<path fill="none" stroke="midnightblue" d="M635.822,-58.3619C644.221,-50.1043 656.054,-38.4725 665.89,-28.8029"/>
<polygon fill="midnightblue" stroke="midnightblue" points="668.569,-31.077 673.247,-21.5707 663.662,-26.0851 668.569,-31.077"/>
</g>
<!-- Node12 -->
<g id="node28" class="node"><title>Node12</title>
<polygon fill="white" stroke="#bfbfbf" points="848.5,-0.5 848.5,-21.5 907.5,-21.5 907.5,-0.5 848.5,-0.5"/>
<text text-anchor="middle" x="878" y="-8.5" font-family="Helvetica,sans-Serif" font-size="10.00">stdexcept</text>
</g>
<!-- Node10&#45;&gt;Node12 -->
<g id="edge32" class="edge"><title>Node10&#45;&gt;Node12</title>
<path fill="none" stroke="midnightblue" d="M665.649,-59.6813C713.148,-48.7923 791.222,-30.8937 838.306,-20.0997"/>
<polygon fill="midnightblue" stroke="midnightblue" points="839.181,-23.4901 848.146,-17.844 837.617,-16.6671 839.181,-23.4901"/>
</g>
<!-- Node13 -->
<g id="node30" class="node"><title>Node13</title>
<polygon fill="white" stroke="#bfbfbf" points="604.5,-0.5 604.5,-21.5 639.5,-21.5 639.5,-0.5 604.5,-0.5"/>
<text text-anchor="middle" x="622" y="-8.5" font-family="Helvetica,sans-Serif" font-size="10.00">new</text>
</g>
<!-- Node10&#45;&gt;Node13 -->
<g id="edge34" class="edge"><title>Node10&#45;&gt;Node13</title>
<path fill="none" stroke="midnightblue" d="M624.45,-58.3619C624.065,-50.9219 623.538,-40.7427 623.072,-31.7276"/>
<polygon fill="midnightblue" stroke="midnightblue" points="626.559,-31.3765 622.547,-21.5707 619.568,-31.7381 626.559,-31.3765"/>
</g>
<!-- Node14&#45;&gt;Node11 -->
<g id="edge38" class="edge"><title>Node14&#45;&gt;Node11</title>
<path fill="none" stroke="midnightblue" d="M737.895,-58.3619C728.312,-49.9408 714.736,-38.0105 703.607,-28.2308"/>
<polygon fill="midnightblue" stroke="midnightblue" points="705.851,-25.5427 696.029,-21.5707 701.23,-30.8009 705.851,-25.5427"/>
</g>
<!-- Node15 -->
<g id="node35" class="node"><title>Node15</title>
<polygon fill="white" stroke="#bfbfbf" points="728.5,-0.5 728.5,-21.5 777.5,-21.5 777.5,-0.5 728.5,-0.5"/>
<text text-anchor="middle" x="753" y="-8.5" font-family="Helvetica,sans-Serif" font-size="10.00">stdint.h</text>
</g>
<!-- Node14&#45;&gt;Node15 -->
<g id="edge40" class="edge"><title>Node14&#45;&gt;Node15</title>
<path fill="none" stroke="midnightblue" d="M750.55,-58.3619C750.935,-50.9219 751.462,-40.7427 751.928,-31.7276"/>
<polygon fill="midnightblue" stroke="midnightblue" points="755.432,-31.7381 752.453,-21.5707 748.441,-31.3765 755.432,-31.7381"/>
</g>
<!-- Node16&#45;&gt;Node10 -->
<g id="edge44" class="edge"><title>Node16&#45;&gt;Node10</title>
<path fill="none" stroke="midnightblue" d="M562.94,-116.362C574.188,-107.777 590.216,-95.5459 603.165,-85.6636"/>
<polygon fill="midnightblue" stroke="midnightblue" points="605.323,-88.4198 611.149,-79.5707 601.076,-82.8551 605.323,-88.4198"/>
</g>
<!-- Node17&#45;&gt;Node10 -->
<g id="edge48" class="edge"><title>Node17&#45;&gt;Node10</title>
<path fill="none" stroke="midnightblue" d="M488.82,-117.161C515.34,-107.782 555.545,-93.5632 585.403,-83.0038"/>
<polygon fill="midnightblue" stroke="midnightblue" points="586.836,-86.2094 595.097,-79.5754 584.502,-79.6099 586.836,-86.2094"/>
</g>
<!-- Node18 -->
<g id="node43" class="node"><title>Node18</title>
<polygon fill="white" stroke="#bfbfbf" points="435.5,-58.5 435.5,-79.5 486.5,-79.5 486.5,-58.5 435.5,-58.5"/>
<text text-anchor="middle" x="461" y="-66.5" font-family="Helvetica,sans-Serif" font-size="10.00">typeinfo</text>
</g>
<!-- Node17&#45;&gt;Node18 -->
<g id="edge50" class="edge"><title>Node17&#45;&gt;Node18</title>
<path fill="none" stroke="midnightblue" d="M461,-116.362C461,-108.922 461,-98.7427 461,-89.7276"/>
<polygon fill="midnightblue" stroke="midnightblue" points="464.5,-89.5706 461,-79.5707 457.5,-89.5707 464.5,-89.5706"/>
</g>
<!-- Node19&#45;&gt;Node4 -->
<g id="edge54" class="edge"><title>Node19&#45;&gt;Node4</title>
<path fill="none" stroke="midnightblue" d="M223.82,-116.088C234.701,-101.475 255.609,-75.3789 278,-58 294.684,-45.0507 315.465,-33.9275 332.853,-25.7576"/>
<polygon fill="midnightblue" stroke="midnightblue" points="334.473,-28.8658 342.117,-21.5297 331.566,-22.4976 334.473,-28.8658"/>
</g>
<!-- Node19&#45;&gt;Node10 -->
<g id="edge58" class="edge"><title>Node19&#45;&gt;Node10</title>
<path fill="none" stroke="midnightblue" d="M243.152,-123.15C310.685,-113.573 487.061,-88.561 574.439,-76.17"/>
<polygon fill="midnightblue" stroke="midnightblue" points="574.978,-79.6287 584.387,-74.7593 573.995,-72.6981 574.978,-79.6287"/>
</g>
<!-- Node19&#45;&gt;Node14 -->
<g id="edge56" class="edge"><title>Node19&#45;&gt;Node14</title>
<path fill="none" stroke="midnightblue" d="M243.146,-124.611C314.079,-118.281 510.783,-100.178 674,-80 685.871,-78.5325 698.756,-76.7425 710.486,-75.0363"/>
<polygon fill="midnightblue" stroke="midnightblue" points="711.06,-78.4897 720.443,-73.5688 710.039,-71.5645 711.06,-78.4897"/>
</g>
<!-- Node20 -->
<g id="node50" class="node"><title>Node20</title>
<polygon fill="white" stroke="#bfbfbf" points="177.5,-58.5 177.5,-79.5 226.5,-79.5 226.5,-58.5 177.5,-58.5"/>
<text text-anchor="middle" x="202" y="-66.5" font-family="Helvetica,sans-Serif" font-size="10.00">ctype.h</text>
</g>
<!-- Node19&#45;&gt;Node20 -->
<g id="edge60" class="edge"><title>Node19&#45;&gt;Node20</title>
<path fill="none" stroke="midnightblue" d="M213.432,-116.362C211.617,-108.84 209.125,-98.5187 206.932,-89.4308"/>
<polygon fill="midnightblue" stroke="midnightblue" points="210.3,-88.4702 204.552,-79.5707 203.496,-90.1127 210.3,-88.4702"/>
</g>
<!-- Node21 -->
<g id="node52" class="node"><title>Node21</title>
<polygon fill="white" stroke="#bfbfbf" points="104,-58.5 104,-79.5 160,-79.5 160,-58.5 104,-58.5"/>
<text text-anchor="middle" x="132" y="-66.5" font-family="Helvetica,sans-Serif" font-size="10.00">wctype.h</text>
</g>
<!-- Node19&#45;&gt;Node21 -->
<g id="edge62" class="edge"><title>Node19&#45;&gt;Node21</title>
<path fill="none" stroke="midnightblue" d="M200.593,-116.362C188.042,-107.696 170.108,-95.3126 155.725,-85.3819"/>
<polygon fill="midnightblue" stroke="midnightblue" points="157.527,-82.3725 147.309,-79.5707 153.55,-88.1327 157.527,-82.3725"/>
</g>
<!-- Node23 -->
<g id="node56" class="node"><title>Node23</title>
<a xlink:href="objectset_8h.html" target="_top" xlink:title="objectset.h">
<polygon fill="white" stroke="black" points="555.5,-522.5 555.5,-543.5 620.5,-543.5 620.5,-522.5 555.5,-522.5"/>
<text text-anchor="middle" x="588" y="-530.5" font-family="Helvetica,sans-Serif" font-size="10.00">objectset.h</text>
</a>
</g>
<!-- Node22&#45;&gt;Node23 -->
<g id="edge66" class="edge"><title>Node22&#45;&gt;Node23</title>
<path fill="none" stroke="midnightblue" d="M585.55,-580.362C585.935,-572.922 586.462,-562.743 586.928,-553.728"/>
<polygon fill="midnightblue" stroke="midnightblue" points="590.432,-553.738 587.453,-543.571 583.441,-553.376 590.432,-553.738"/>
</g>
<!-- Node24 -->
<g id="node58" class="node"><title>Node24</title>
<a xlink:href="odset_8h.html" target="_top" xlink:title="odset.h">
<polygon fill="white" stroke="black" points="568.5,-464.5 568.5,-485.5 617.5,-485.5 617.5,-464.5 568.5,-464.5"/>
<text text-anchor="middle" x="593" y="-472.5" font-family="Helvetica,sans-Serif" font-size="10.00">odset.h</text>
</a>
</g>
<!-- Node23&#45;&gt;Node24 -->
<g id="edge68" class="edge"><title>Node23&#45;&gt;Node24</title>
<path fill="none" stroke="midnightblue" d="M588.917,-522.362C589.558,-514.922 590.436,-504.743 591.213,-495.728"/>
<polygon fill="midnightblue" stroke="midnightblue" points="594.717,-495.834 592.089,-485.571 587.743,-495.233 594.717,-495.834"/>
</g>
<!-- Node25 -->
<g id="node61" class="node"><title>Node25</title>
<a xlink:href="vectoraccess_8h.html" target="_top" xlink:title="vectoraccess.h">
<polygon fill="white" stroke="black" points="468.5,-464.5 468.5,-485.5 551.5,-485.5 551.5,-464.5 468.5,-464.5"/>
<text text-anchor="middle" x="510" y="-472.5" font-family="Helvetica,sans-Serif" font-size="10.00">vectoraccess.h</text>
</a>
</g>
<!-- Node23&#45;&gt;Node25 -->
<g id="edge72" class="edge"><title>Node23&#45;&gt;Node25</title>
<path fill="none" stroke="midnightblue" d="M573.694,-522.362C562.149,-513.777 545.7,-501.546 532.41,-491.664"/>
<polygon fill="midnightblue" stroke="midnightblue" points="534.329,-488.729 524.216,-485.571 530.152,-494.346 534.329,-488.729"/>
</g>
<!-- Node24&#45;&gt;Node8 -->
<g id="edge70" class="edge"><title>Node24&#45;&gt;Node8</title>
<path fill="none" stroke="midnightblue" d="M599.909,-464.297C612.064,-444.404 636,-400.023 636,-359 636,-359 636,-359 636,-301 636,-259.912 601.416,-222.992 577.444,-202.336"/>
<polygon fill="midnightblue" stroke="midnightblue" points="579.412,-199.421 569.481,-195.728 574.941,-204.808 579.412,-199.421"/>
</g>
<!-- Node25&#45;&gt;Node8 -->
<g id="edge82" class="edge"><title>Node25&#45;&gt;Node8</title>
<path fill="none" stroke="midnightblue" d="M518.428,-464.367C525.341,-455.194 534.943,-441.352 541,-428 554.141,-399.033 560,-390.808 560,-359 560,-359 560,-359 560,-301 560,-267.567 557.901,-228.763 556.423,-205.582"/>
<polygon fill="midnightblue" stroke="midnightblue" points="559.912,-205.297 555.759,-195.55 552.927,-205.759 559.912,-205.297"/>
</g>
<!-- Node25&#45;&gt;Node12 -->
<g id="edge88" class="edge"><title>Node25&#45;&gt;Node12</title>
<path fill="none" stroke="midnightblue" d="M537.853,-464.334C604.223,-437.757 773.988,-362.803 879,-254 940.296,-190.491 937.596,-142.162 911,-58 907.7,-47.5574 901.156,-37.4231 894.76,-29.2551"/>
<polygon fill="midnightblue" stroke="midnightblue" points="897.392,-26.9468 888.29,-21.5245 892.024,-31.4395 897.392,-26.9468"/>
</g>
<!-- Node26 -->
<g id="node63" class="node"><title>Node26</title>
<a xlink:href="debug_8h.html" target="_top" xlink:title="debug.h">
<polygon fill="white" stroke="black" points="345.5,-406.5 345.5,-427.5 396.5,-427.5 396.5,-406.5 345.5,-406.5"/>
<text text-anchor="middle" x="371" y="-414.5" font-family="Helvetica,sans-Serif" font-size="10.00">debug.h</text>
</a>
</g>
<!-- Node25&#45;&gt;Node26 -->
<g id="edge74" class="edge"><title>Node25&#45;&gt;Node26</title>
<path fill="none" stroke="midnightblue" d="M484.828,-464.497C462.727,-455.275 430.361,-441.769 405.787,-431.515"/>
<polygon fill="midnightblue" stroke="midnightblue" points="407.031,-428.242 396.454,-427.621 404.335,-434.702 407.031,-428.242"/>
</g>
<!-- Node27 -->
<g id="node69" class="node"><title>Node27</title>
<polygon fill="white" stroke="#bfbfbf" points="414,-406.5 414,-427.5 470,-427.5 470,-406.5 414,-406.5"/>
<text text-anchor="middle" x="442" y="-414.5" font-family="Helvetica,sans-Serif" font-size="10.00">algorithm</text>
</g>
<!-- Node25&#45;&gt;Node27 -->
<g id="edge84" class="edge"><title>Node25&#45;&gt;Node27</title>
<path fill="none" stroke="midnightblue" d="M497.528,-464.362C487.655,-455.941 473.667,-444.011 462.202,-434.231"/>
<polygon fill="midnightblue" stroke="midnightblue" points="464.273,-431.397 454.393,-427.571 459.73,-436.723 464.273,-431.397"/>
</g>
<!-- Node28 -->
<g id="node71" class="node"><title>Node28</title>
<polygon fill="white" stroke="#bfbfbf" points="488,-406.5 488,-427.5 532,-427.5 532,-406.5 488,-406.5"/>
<text text-anchor="middle" x="510" y="-414.5" font-family="Helvetica,sans-Serif" font-size="10.00">vector</text>
</g>
<!-- Node25&#45;&gt;Node28 -->
<g id="edge86" class="edge"><title>Node25&#45;&gt;Node28</title>
<path fill="none" stroke="midnightblue" d="M510,-464.362C510,-456.922 510,-446.743 510,-437.728"/>
<polygon fill="midnightblue" stroke="midnightblue" points="513.5,-437.571 510,-427.571 506.5,-437.571 513.5,-437.571"/>
</g>
<!-- Node26&#45;&gt;Node4 -->
<g id="edge76" class="edge"><title>Node26&#45;&gt;Node4</title>
<path fill="none" stroke="midnightblue" d="M376.469,-406.448C386.312,-386.444 406,-341.388 406,-301 406,-301 406,-301 406,-127 406,-91.7411 389.949,-53.3154 378.711,-30.7323"/>
<polygon fill="midnightblue" stroke="midnightblue" points="381.802,-29.0901 374.105,-21.809 375.582,-32.3005 381.802,-29.0901"/>
</g>
<!-- Node26&#45;&gt;Node5 -->
<g id="edge80" class="edge"><title>Node26&#45;&gt;Node5</title>
<path fill="none" stroke="midnightblue" d="M345.405,-407.422C320.484,-398.097 282.311,-383.813 253.875,-373.173"/>
<polygon fill="midnightblue" stroke="midnightblue" points="254.853,-369.802 244.26,-369.575 252.4,-376.358 254.853,-369.802"/>
</g>
<!-- Node26&#45;&gt;Node8 -->
<g id="edge78" class="edge"><title>Node26&#45;&gt;Node8</title>
<path fill="none" stroke="midnightblue" d="M383.261,-406.346C393.541,-397.161 408.364,-383.313 420,-370 469.75,-313.084 520.065,-238.668 542.666,-204.139"/>
<polygon fill="midnightblue" stroke="midnightblue" points="545.763,-205.797 548.282,-195.506 539.895,-201.98 545.763,-205.797"/>
</g>
<!-- Node29&#45;&gt;Node3 -->
<g id="edge94" class="edge"><title>Node29&#45;&gt;Node3</title>
<path fill="none" stroke="midnightblue" d="M452.895,-696.362C443.312,-687.941 429.736,-676.011 418.607,-666.231"/>
<polygon fill="midnightblue" stroke="midnightblue" points="420.851,-663.543 411.029,-659.571 416.23,-668.801 420.851,-663.543"/>
</g>
<!-- Node29&#45;&gt;Node4 -->
<g id="edge92" class="edge"><title>Node29&#45;&gt;Node4</title>
<path fill="none" stroke="midnightblue" d="M437.305,-703.088C337.199,-688.58 0,-636.346 0,-591 0,-591 0,-591 0,-127 0,-89.3873 16.9301,-77.6529 49,-58 94.3013,-30.2387 247.811,-17.8059 324.15,-13.2331"/>
<polygon fill="midnightblue" stroke="midnightblue" points="324.61,-16.7124 334.391,-12.6393 324.205,-9.72415 324.61,-16.7124"/>
</g>
<!-- Node30 -->
<g id="node78" class="node"><title>Node30</title>
<a xlink:href="perthreadrepos_8h.html" target="_top" xlink:title="perthreadrepos.h">
<polygon fill="white" stroke="black" points="540.5,-638.5 540.5,-659.5 629.5,-659.5 629.5,-638.5 540.5,-638.5"/>
<text text-anchor="middle" x="585" y="-646.5" font-family="Helvetica,sans-Serif" font-size="10.00">perthreadrepos.h</text>
</a>
</g>
<!-- Node29&#45;&gt;Node30 -->
<g id="edge96" class="edge"><title>Node29&#45;&gt;Node30</title>
<path fill="none" stroke="midnightblue" d="M486.731,-696.497C505.474,-687.438 532.767,-674.246 553.836,-664.063"/>
<polygon fill="midnightblue" stroke="midnightblue" points="555.545,-667.124 563.025,-659.621 552.498,-660.822 555.545,-667.124"/>
</g>
<!-- Node33 -->
<g id="node92" class="node"><title>Node33</title>
<a xlink:href="ptrman_8h.html" target="_top" xlink:title="ptrman.h">
<polygon fill="white" stroke="black" points="815.5,-232.5 815.5,-253.5 870.5,-253.5 870.5,-232.5 815.5,-232.5"/>
<text text-anchor="middle" x="843" y="-240.5" font-family="Helvetica,sans-Serif" font-size="10.00">ptrman.h</text>
</a>
</g>
<!-- Node29&#45;&gt;Node33 -->
<g id="edge118" class="edge"><title>Node29&#45;&gt;Node33</title>
<path fill="none" stroke="midnightblue" d="M492.735,-704.334C578.55,-695.33 834,-662.518 834,-591 834,-591 834,-591 834,-359 834,-325.497 837.778,-286.715 840.438,-263.557"/>
<polygon fill="midnightblue" stroke="midnightblue" points="843.925,-263.879 841.633,-253.535 836.974,-263.05 843.925,-263.879"/>
</g>
<!-- Node37 -->
<g id="node104" class="node"><title>Node37</title>
<a xlink:href="typeset_8h.html" target="_top" xlink:title="typeset.h">
<polygon fill="white" stroke="black" points="481.5,-522.5 481.5,-543.5 538.5,-543.5 538.5,-522.5 481.5,-522.5"/>
<text text-anchor="middle" x="510" y="-530.5" font-family="Helvetica,sans-Serif" font-size="10.00">typeset.h</text>
</a>
</g>
<!-- Node29&#45;&gt;Node37 -->
<g id="edge134" class="edge"><title>Node29&#45;&gt;Node37</title>
<path fill="none" stroke="midnightblue" d="M467.929,-696.286C473.101,-677.31 484.141,-636.539 493,-602 497.16,-585.781 501.687,-567.366 505.023,-553.642"/>
<polygon fill="midnightblue" stroke="midnightblue" points="508.461,-554.315 507.413,-543.772 501.658,-552.668 508.461,-554.315"/>
</g>
<!-- Node38 -->
<g id="node108" class="node"><title>Node38</title>
<a xlink:href="uistring_8h.html" target="_top" xlink:title="uistring.h">
<polygon fill="white" stroke="black" points="428,-580.5 428,-601.5 484,-601.5 484,-580.5 428,-580.5"/>
<text text-anchor="middle" x="456" y="-588.5" font-family="Helvetica,sans-Serif" font-size="10.00">uistring.h</text>
</a>
</g>
<!-- Node29&#45;&gt;Node38 -->
<g id="edge140" class="edge"><title>Node29&#45;&gt;Node38</title>
<path fill="none" stroke="midnightblue" d="M464.169,-696.295C462.683,-677.131 459.542,-636.654 457.617,-611.843"/>
<polygon fill="midnightblue" stroke="midnightblue" points="461.092,-611.378 456.829,-601.679 454.113,-611.92 461.092,-611.378"/>
</g>
<!-- Node30&#45;&gt;Node4 -->
<g id="edge98" class="edge"><title>Node30&#45;&gt;Node4</title>
<path fill="none" stroke="midnightblue" d="M540.156,-645.263C504.287,-640.307 454.324,-628.783 419,-602 370.833,-565.48 375.615,-539.769 348,-486 318.265,-428.104 276.349,-409.016 299,-348 306.348,-328.205 319.623,-330.389 330,-312 358.954,-260.688 368,-243.917 368,-185 368,-185 368,-185 368,-127 368,-93.5978 368,-54.7853 368,-31.5939"/>
<polygon fill="midnightblue" stroke="midnightblue" points="371.5,-31.5561 368,-21.5561 364.5,-31.5561 371.5,-31.5561"/>
</g>
<!-- Node30&#45;&gt;Node22 -->
<g id="edge100" class="edge"><title>Node30&#45;&gt;Node22</title>
<path fill="none" stroke="midnightblue" d="M585,-638.362C585,-630.922 585,-620.743 585,-611.728"/>
<polygon fill="midnightblue" stroke="midnightblue" points="588.5,-611.571 585,-601.571 581.5,-611.571 588.5,-611.571"/>
</g>
<!-- Node31 -->
<g id="node82" class="node"><title>Node31</title>
<a xlink:href="threadlock_8h.html" target="_top" xlink:title="threadlock.h">
<polygon fill="white" stroke="black" points="690,-116.5 690,-137.5 760,-137.5 760,-116.5 690,-116.5"/>
<text text-anchor="middle" x="725" y="-124.5" font-family="Helvetica,sans-Serif" font-size="10.00">threadlock.h</text>
</a>
</g>
<!-- Node30&#45;&gt;Node31 -->
<g id="edge102" class="edge"><title>Node30&#45;&gt;Node31</title>
<path fill="none" stroke="midnightblue" d="M629.217,-638.418C678.092,-623.776 750,-592.178 750,-533 750,-533 750,-533 750,-243 750,-208.853 739.52,-170.296 732.131,-147.354"/>
<polygon fill="midnightblue" stroke="midnightblue" points="735.396,-146.083 728.906,-137.709 728.757,-148.302 735.396,-146.083"/>
</g>
<!-- Node32 -->
<g id="node87" class="node"><title>Node32</title>
<a xlink:href="thread_8h.html" target="_top" xlink:title="thread.h">
<polygon fill="white" stroke="black" points="778,-116.5 778,-137.5 830,-137.5 830,-116.5 778,-116.5"/>
<text text-anchor="middle" x="804" y="-124.5" font-family="Helvetica,sans-Serif" font-size="10.00">thread.h</text>
</a>
</g>
<!-- Node30&#45;&gt;Node32 -->
<g id="edge110" class="edge"><title>Node30&#45;&gt;Node32</title>
<path fill="none" stroke="midnightblue" d="M629.549,-643.464C689.306,-633.266 788,-605.455 788,-533 788,-533 788,-533 788,-243 788,-209.456 794.647,-170.964 799.372,-147.836"/>
<polygon fill="midnightblue" stroke="midnightblue" points="802.848,-148.315 801.5,-137.806 796.001,-146.862 802.848,-148.315"/>
</g>
<!-- Node31&#45;&gt;Node4 -->
<g id="edge104" class="edge"><title>Node31&#45;&gt;Node4</title>
<path fill="none" stroke="midnightblue" d="M689.828,-117.606C659.282,-109.048 614.092,-95.4179 576,-80 555.733,-71.7969 552.373,-65.9343 532,-58 492.106,-42.4634 444.978,-29.4876 411.503,-21.1341"/>
<polygon fill="midnightblue" stroke="midnightblue" points="412.123,-17.6822 401.576,-18.6922 410.451,-24.4796 412.123,-17.6822"/>
</g>
<!-- Node31&#45;&gt;Node10 -->
<g id="edge106" class="edge"><title>Node31&#45;&gt;Node10</title>
<path fill="none" stroke="midnightblue" d="M706.658,-116.362C691.434,-107.532 669.559,-94.844 652.28,-84.8224"/>
<polygon fill="midnightblue" stroke="midnightblue" points="653.632,-81.5603 643.225,-79.5707 650.12,-87.6155 653.632,-81.5603"/>
</g>
<!-- Node31&#45;&gt;Node14 -->
<g id="edge108" class="edge"><title>Node31&#45;&gt;Node14</title>
<path fill="none" stroke="midnightblue" d="M729.585,-116.362C732.898,-108.677 737.47,-98.0686 741.448,-88.8399"/>
<polygon fill="midnightblue" stroke="midnightblue" points="744.699,-90.1393 745.444,-79.5707 738.271,-87.3685 744.699,-90.1393"/>
</g>
<!-- Node32&#45;&gt;Node4 -->
<g id="edge112" class="edge"><title>Node32&#45;&gt;Node4</title>
<path fill="none" stroke="midnightblue" d="M782.641,-116.486C763.888,-107.161 735.944,-93.0356 712,-80 694.86,-70.6688 692.407,-64.4823 674,-58 584.329,-26.4211 472.489,-16.0428 411.924,-12.644"/>
<polygon fill="midnightblue" stroke="midnightblue" points="411.754,-9.13048 401.585,-12.1042 411.389,-16.121 411.754,-9.13048"/>
</g>
<!-- Node32&#45;&gt;Node10 -->
<g id="edge114" class="edge"><title>Node32&#45;&gt;Node10</title>
<path fill="none" stroke="midnightblue" d="M777.972,-118.566C748.937,-109.158 701.541,-93.8009 667.191,-82.671"/>
<polygon fill="midnightblue" stroke="midnightblue" points="668.023,-79.2613 657.431,-79.5084 665.865,-85.9204 668.023,-79.2613"/>
</g>
<!-- Node32&#45;&gt;Node14 -->
<g id="edge116" class="edge"><title>Node32&#45;&gt;Node14</title>
<path fill="none" stroke="midnightblue" d="M794.096,-116.362C786.484,-108.186 775.792,-96.7025 766.843,-87.0907"/>
<polygon fill="midnightblue" stroke="midnightblue" points="769.217,-84.5046 759.842,-79.5707 764.094,-89.2746 769.217,-84.5046"/>
</g>
<!-- Node33&#45;&gt;Node8 -->
<g id="edge120" class="edge"><title>Node33&#45;&gt;Node8</title>
<path fill="none" stroke="midnightblue" d="M815.385,-237.439C764.119,-227.114 654.068,-204.951 594.78,-193.011"/>
<polygon fill="midnightblue" stroke="midnightblue" points="595.167,-189.519 584.673,-190.976 593.785,-196.381 595.167,-189.519"/>
</g>
<!-- Node34 -->
<g id="node95" class="node"><title>Node34</title>
<a xlink:href="atomic_8h.html" target="_top" xlink:title="atomic.h">
<polygon fill="white" stroke="black" points="848,-116.5 848,-137.5 902,-137.5 902,-116.5 848,-116.5"/>
<text text-anchor="middle" x="875" y="-124.5" font-family="Helvetica,sans-Serif" font-size="10.00">atomic.h</text>
</a>
</g>
<!-- Node33&#45;&gt;Node34 -->
<g id="edge122" class="edge"><title>Node33&#45;&gt;Node34</title>
<path fill="none" stroke="midnightblue" d="M841.596,-232.432C840.147,-218.644 838.867,-193.93 845,-174 848.095,-163.944 853.969,-153.955 859.705,-145.789"/>
<polygon fill="midnightblue" stroke="midnightblue" points="862.549,-147.83 865.737,-137.726 856.944,-143.637 862.549,-147.83"/>
</g>
<!-- Node36 -->
<g id="node102" class="node"><title>Node36</title>
<polygon fill="white" stroke="#bfbfbf" points="854,-174.5 854,-195.5 902,-195.5 902,-174.5 854,-174.5"/>
<text text-anchor="middle" x="878" y="-182.5" font-family="Helvetica,sans-Serif" font-size="10.00">stdlib.h</text>
</g>
<!-- Node33&#45;&gt;Node36 -->
<g id="edge132" class="edge"><title>Node33&#45;&gt;Node36</title>
<path fill="none" stroke="midnightblue" d="M849.42,-232.362C854.156,-224.513 860.732,-213.616 866.382,-204.253"/>
<polygon fill="midnightblue" stroke="midnightblue" points="869.451,-205.941 871.621,-195.571 863.458,-202.324 869.451,-205.941"/>
</g>
<!-- Node34&#45;&gt;Node4 -->
<g id="edge124" class="edge"><title>Node34&#45;&gt;Node4</title>
<path fill="none" stroke="midnightblue" d="M865.526,-116.389C850.726,-100.605 820.438,-71.371 788,-58 720.723,-30.2682 505.553,-17.2944 412.062,-12.8577"/>
<polygon fill="midnightblue" stroke="midnightblue" points="411.962,-9.34937 401.811,-12.3824 411.638,-16.3419 411.962,-9.34937"/>
</g>
<!-- Node34&#45;&gt;Node10 -->
<g id="edge126" class="edge"><title>Node34&#45;&gt;Node10</title>
<path fill="none" stroke="midnightblue" d="M847.94,-118.477C844.933,-117.606 841.908,-116.762 839,-116 783.646,-101.49 719.448,-87.8025 675.916,-78.9821"/>
<polygon fill="midnightblue" stroke="midnightblue" points="676.354,-75.5001 665.86,-76.9566 674.972,-82.3623 676.354,-75.5001"/>
</g>
<!-- Node34&#45;&gt;Node14 -->
<g id="edge128" class="edge"><title>Node34&#45;&gt;Node14</title>
<path fill="none" stroke="midnightblue" d="M852.363,-116.497C832.752,-107.397 804.154,-94.1273 782.167,-83.9253"/>
<polygon fill="midnightblue" stroke="midnightblue" points="783.435,-80.6554 772.891,-79.6212 780.488,-87.0051 783.435,-80.6554"/>
</g>
<!-- Node35 -->
<g id="node100" class="node"><title>Node35</title>
<polygon fill="white" stroke="#bfbfbf" points="835.5,-58.5 835.5,-79.5 902.5,-79.5 902.5,-58.5 835.5,-58.5"/>
<text text-anchor="middle" x="869" y="-66.5" font-family="Helvetica,sans-Serif" font-size="10.00">odversion.h</text>
</g>
<!-- Node34&#45;&gt;Node35 -->
<g id="edge130" class="edge"><title>Node34&#45;&gt;Node35</title>
<path fill="none" stroke="midnightblue" d="M873.9,-116.362C873.13,-108.922 872.077,-98.7427 871.144,-89.7276"/>
<polygon fill="midnightblue" stroke="midnightblue" points="874.604,-89.1574 870.094,-79.5707 867.641,-89.8777 874.604,-89.1574"/>
</g>
<!-- Node37&#45;&gt;Node24 -->
<g id="edge136" class="edge"><title>Node37&#45;&gt;Node24</title>
<path fill="none" stroke="midnightblue" d="M525.223,-522.362C537.625,-513.696 555.346,-501.313 569.557,-491.382"/>
<polygon fill="midnightblue" stroke="midnightblue" points="571.681,-494.168 577.873,-485.571 567.671,-488.43 571.681,-494.168"/>
</g>
<!-- Node37&#45;&gt;Node25 -->
<g id="edge138" class="edge"><title>Node37&#45;&gt;Node25</title>
<path fill="none" stroke="midnightblue" d="M510,-522.362C510,-514.922 510,-504.743 510,-495.728"/>
<polygon fill="midnightblue" stroke="midnightblue" points="513.5,-495.571 510,-485.571 506.5,-495.571 513.5,-495.571"/>
</g>
<!-- Node38&#45;&gt;Node8 -->
<g id="edge142" class="edge"><title>Node38&#45;&gt;Node8</title>
<path fill="none" stroke="midnightblue" d="M484.211,-585.869C527.035,-577.665 605.911,-560.802 629,-544 658.603,-522.457 674,-511.612 674,-475 674,-475 674,-475 674,-301 674,-253.063 623.872,-218.487 588.685,-200.122"/>
<polygon fill="midnightblue" stroke="midnightblue" points="590.164,-196.948 579.657,-195.589 587.023,-203.204 590.164,-196.948"/>
</g>
<!-- Node38&#45;&gt;Node19 -->
<g id="edge152" class="edge"><title>Node38&#45;&gt;Node19</title>
<path fill="none" stroke="midnightblue" d="M430.132,-580.371C371.423,-554.618 229.087,-482.588 176,-370 139.874,-293.384 183.62,-189.818 205.249,-146.901"/>
<polygon fill="midnightblue" stroke="midnightblue" points="208.476,-148.282 209.972,-137.793 202.262,-145.059 208.476,-148.282"/>
</g>
<!-- Node38&#45;&gt;Node31 -->
<g id="edge150" class="edge"><title>Node38&#45;&gt;Node31</title>
<path fill="none" stroke="midnightblue" d="M484.059,-586.706C532.039,-578.988 627.441,-561.902 656,-544 689.465,-523.023 712,-514.496 712,-475 712,-475 712,-475 712,-243 712,-209.389 717.457,-170.638 721.3,-147.516"/>
<polygon fill="midnightblue" stroke="midnightblue" points="724.775,-147.961 723.026,-137.512 717.876,-146.771 724.775,-147.961"/>
</g>
<!-- Node38&#45;&gt;Node37 -->
<g id="edge154" class="edge"><title>Node38&#45;&gt;Node37</title>
<path fill="none" stroke="midnightblue" d="M465.904,-580.362C473.516,-572.186 484.208,-560.702 493.157,-551.091"/>
<polygon fill="midnightblue" stroke="midnightblue" points="495.906,-553.275 500.158,-543.571 490.783,-548.505 495.906,-553.275"/>
</g>
<!-- Node39 -->
<g id="node111" class="node"><title>Node39</title>
<a xlink:href="keystrs_8h.html" target="_top" xlink:title="keystrs.h">
<polygon fill="white" stroke="black" points="307.5,-348.5 307.5,-369.5 364.5,-369.5 364.5,-348.5 307.5,-348.5"/>
<text text-anchor="middle" x="336" y="-356.5" font-family="Helvetica,sans-Serif" font-size="10.00">keystrs.h</text>
</a>
</g>
<!-- Node38&#45;&gt;Node39 -->
<g id="edge144" class="edge"><title>Node38&#45;&gt;Node39</title>
<path fill="none" stroke="midnightblue" d="M444.216,-580.191C418.75,-555.943 359.102,-494.129 337,-428 331.786,-412.4 331.877,-393.686 333.082,-379.685"/>
<polygon fill="midnightblue" stroke="midnightblue" points="336.575,-379.944 334.208,-369.617 329.619,-379.167 336.575,-379.944"/>
</g>
<!-- Node39&#45;&gt;Node6 -->
<g id="edge148" class="edge"><title>Node39&#45;&gt;Node6</title>
<path fill="none" stroke="midnightblue" d="M326.829,-348.362C319.852,-340.268 310.079,-328.932 301.844,-319.38"/>
<polygon fill="midnightblue" stroke="midnightblue" points="304.293,-316.859 295.113,-311.571 298.991,-321.43 304.293,-316.859"/>
</g>
<!-- Node39&#45;&gt;Node8 -->
<g id="edge146" class="edge"><title>Node39&#45;&gt;Node8</title>
<path fill="none" stroke="midnightblue" d="M349.37,-348.377C386.1,-319.195 488.788,-237.607 533.614,-201.992"/>
<polygon fill="midnightblue" stroke="midnightblue" points="535.875,-204.666 541.527,-195.705 531.52,-199.185 535.875,-204.666"/>
</g>
</g>
</svg>
