<?xml version="1.0" encoding="UTF-8" standalone="no"?>
<!DOCTYPE svg PUBLIC "-//W3C//DTD SVG 1.1//EN"
 "http://www.w3.org/Graphics/SVG/1.1/DTD/svg11.dtd">
<!-- Generated by graphviz version 2.26.0 (20091210.2329)
 -->
<!-- Title: coltabindex.h Pages: 1 -->
<svg width="1175pt" height="668pt"
 viewBox="0.00 0.00 1175.00 668.00" xmlns="http://www.w3.org/2000/svg" xmlns:xlink="http://www.w3.org/1999/xlink">
<g id="graph1" class="graph" transform="scale(1 1) rotate(0) translate(4 664)">
<title>coltabindex.h</title>
<polygon fill="white" stroke="white" points="-4,5 -4,-664 1172,-664 1172,5 -4,5"/>
<!-- Node1 -->
<g id="node1" class="node"><title>Node1</title>
<polygon fill="#bfbfbf" stroke="black" points="257,-638.5 257,-659.5 331,-659.5 331,-638.5 257,-638.5"/>
<text text-anchor="middle" x="294" y="-646.5" font-family="Helvetica,sans-Serif" font-size="10.00">coltabindex.h</text>
</g>
<!-- Node2 -->
<g id="node3" class="node"><title>Node2</title>
<polygon fill="white" stroke="#bfbfbf" points="128.5,-522.5 128.5,-543.5 203.5,-543.5 203.5,-522.5 128.5,-522.5"/>
<text text-anchor="middle" x="166" y="-530.5" font-family="Helvetica,sans-Serif" font-size="10.00">generalmod.h</text>
</g>
<!-- Node1&#45;&gt;Node2 -->
<g id="edge2" class="edge"><title>Node1&#45;&gt;Node2</title>
<path fill="none" stroke="midnightblue" d="M276.66,-638.445C262.623,-629.532 242.68,-616.012 227,-602 209.623,-586.471 192.26,-566.259 180.528,-551.729"/>
<polygon fill="midnightblue" stroke="midnightblue" points="182.96,-549.164 174.001,-543.51 177.478,-553.518 182.96,-549.164"/>
</g>
<!-- Node3 -->
<g id="node5" class="node"><title>Node3</title>
<a xlink:href="coltab_8h.html" target="_top" xlink:title="coltab.h">
<polygon fill="white" stroke="black" points="235.5,-580.5 235.5,-601.5 286.5,-601.5 286.5,-580.5 235.5,-580.5"/>
<text text-anchor="middle" x="261" y="-588.5" font-family="Helvetica,sans-Serif" font-size="10.00">coltab.h</text>
</a>
</g>
<!-- Node1&#45;&gt;Node3 -->
<g id="edge4" class="edge"><title>Node1&#45;&gt;Node3</title>
<path fill="none" stroke="midnightblue" d="M287.947,-638.362C283.528,-630.595 277.41,-619.843 272.121,-610.546"/>
<polygon fill="midnightblue" stroke="midnightblue" points="275.002,-608.531 267.014,-601.571 268.918,-611.993 275.002,-608.531"/>
</g>
<!-- Node33 -->
<g id="node88" class="node"><title>Node33</title>
<a xlink:href="typeset_8h.html" target="_top" xlink:title="typeset.h">
<polygon fill="white" stroke="black" points="401.5,-522.5 401.5,-543.5 458.5,-543.5 458.5,-522.5 401.5,-522.5"/>
<text text-anchor="middle" x="430" y="-530.5" font-family="Helvetica,sans-Serif" font-size="10.00">typeset.h</text>
</a>
</g>
<!-- Node1&#45;&gt;Node33 -->
<g id="edge110" class="edge"><title>Node1&#45;&gt;Node33</title>
<path fill="none" stroke="midnightblue" d="M306.551,-638.295C330.132,-618.182 381.239,-574.59 409.746,-550.275"/>
<polygon fill="midnightblue" stroke="midnightblue" points="412.143,-552.832 417.48,-543.679 407.6,-547.506 412.143,-552.832"/>
</g>
<!-- Node40 -->
<g id="node110" class="node"><title>Node40</title>
<a xlink:href="uistring_8h.html" target="_top" xlink:title="uistring.h">
<polygon fill="white" stroke="black" points="655,-580.5 655,-601.5 711,-601.5 711,-580.5 655,-580.5"/>
<text text-anchor="middle" x="683" y="-588.5" font-family="Helvetica,sans-Serif" font-size="10.00">uistring.h</text>
</a>
</g>
<!-- Node1&#45;&gt;Node40 -->
<g id="edge140" class="edge"><title>Node1&#45;&gt;Node40</title>
<path fill="none" stroke="midnightblue" d="M331.299,-643.439C405.4,-632.39 570.427,-607.785 645.054,-596.658"/>
<polygon fill="midnightblue" stroke="midnightblue" points="645.591,-600.116 654.965,-595.18 644.559,-593.193 645.591,-600.116"/>
</g>
<!-- Node3&#45;&gt;Node2 -->
<g id="edge6" class="edge"><title>Node3&#45;&gt;Node2</title>
<path fill="none" stroke="midnightblue" d="M243.576,-580.362C229.113,-571.532 208.331,-558.844 191.916,-548.822"/>
<polygon fill="midnightblue" stroke="midnightblue" points="193.673,-545.794 183.314,-543.571 190.025,-551.769 193.673,-545.794"/>
</g>
<!-- Node4 -->
<g id="node8" class="node"><title>Node4</title>
<a xlink:href="color_8h.html" target="_top" xlink:title="color.h">
<polygon fill="white" stroke="black" points="535,-232.5 535,-253.5 581,-253.5 581,-232.5 535,-232.5"/>
<text text-anchor="middle" x="558" y="-240.5" font-family="Helvetica,sans-Serif" font-size="10.00">color.h</text>
</a>
</g>
<!-- Node3&#45;&gt;Node4 -->
<g id="edge8" class="edge"><title>Node3&#45;&gt;Node4</title>
<path fill="none" stroke="midnightblue" d="M286.733,-589.14C356.552,-582.478 548.242,-552.993 607,-428 633.745,-371.106 594.188,-297.252 571.727,-262.589"/>
<polygon fill="midnightblue" stroke="midnightblue" points="574.383,-260.264 565.914,-253.898 568.564,-264.156 574.383,-260.264"/>
</g>
<!-- Node17 -->
<g id="node39" class="node"><title>Node17</title>
<a xlink:href="ranges_8h.html" target="_top" xlink:title="ranges.h">
<polygon fill="white" stroke="black" points="221,-522.5 221,-543.5 275,-543.5 275,-522.5 221,-522.5"/>
<text text-anchor="middle" x="248" y="-530.5" font-family="Helvetica,sans-Serif" font-size="10.00">ranges.h</text>
</a>
</g>
<!-- Node3&#45;&gt;Node17 -->
<g id="edge44" class="edge"><title>Node3&#45;&gt;Node17</title>
<path fill="none" stroke="midnightblue" d="M258.616,-580.362C256.93,-572.84 254.616,-562.519 252.579,-553.431"/>
<polygon fill="midnightblue" stroke="midnightblue" points="255.972,-552.563 250.369,-543.571 249.141,-554.094 255.972,-552.563"/>
</g>
<!-- Node5 -->
<g id="node10" class="node"><title>Node5</title>
<polygon fill="white" stroke="#bfbfbf" points="867.5,-0.5 867.5,-21.5 934.5,-21.5 934.5,-0.5 867.5,-0.5"/>
<text text-anchor="middle" x="901" y="-8.5" font-family="Helvetica,sans-Serif" font-size="10.00">basicmod.h</text>
</g>
<!-- Node4&#45;&gt;Node5 -->
<g id="edge10" class="edge"><title>Node4&#45;&gt;Node5</title>
<path fill="none" stroke="midnightblue" d="M581.158,-240.056C633.027,-232.353 760.005,-207.179 837,-138 869.427,-108.865 887.568,-59.5069 895.704,-31.6804"/>
<polygon fill="midnightblue" stroke="midnightblue" points="899.135,-32.406 898.425,-21.835 892.388,-30.5412 899.135,-32.406"/>
</g>
<!-- Node6 -->
<g id="node12" class="node"><title>Node6</title>
<a xlink:href="gendefs_8h.html" target="_top" xlink:title="gendefs.h">
<polygon fill="white" stroke="black" points="427.5,-174.5 427.5,-195.5 486.5,-195.5 486.5,-174.5 427.5,-174.5"/>
<text text-anchor="middle" x="457" y="-182.5" font-family="Helvetica,sans-Serif" font-size="10.00">gendefs.h</text>
</a>
</g>
<!-- Node4&#45;&gt;Node6 -->
<g id="edge12" class="edge"><title>Node4&#45;&gt;Node6</title>
<path fill="none" stroke="midnightblue" d="M539.475,-232.362C524.099,-223.532 502.004,-210.844 484.553,-200.822"/>
<polygon fill="midnightblue" stroke="midnightblue" points="485.822,-197.515 475.408,-195.571 482.336,-203.586 485.822,-197.515"/>
</g>
<!-- Node7 -->
<g id="node14" class="node"><title>Node7</title>
<a xlink:href="undefval_8h.html" target="_top" xlink:title="undefval.h">
<polygon fill="white" stroke="black" points="595,-116.5 595,-137.5 657,-137.5 657,-116.5 595,-116.5"/>
<text text-anchor="middle" x="626" y="-124.5" font-family="Helvetica,sans-Serif" font-size="10.00">undefval.h</text>
</a>
</g>
<!-- Node6&#45;&gt;Node7 -->
<g id="edge14" class="edge"><title>Node6&#45;&gt;Node7</title>
<path fill="none" stroke="midnightblue" d="M486.825,-174.764C514.357,-165.315 555.462,-151.208 585.867,-140.773"/>
<polygon fill="midnightblue" stroke="midnightblue" points="587.01,-144.082 595.333,-137.525 584.738,-137.461 587.01,-144.082"/>
</g>
<!-- Node14 -->
<g id="node31" class="node"><title>Node14</title>
<a xlink:href="commontypes_8h.html" target="_top" xlink:title="commontypes.h">
<polygon fill="white" stroke="black" points="491,-116.5 491,-137.5 577,-137.5 577,-116.5 491,-116.5"/>
<text text-anchor="middle" x="534" y="-124.5" font-family="Helvetica,sans-Serif" font-size="10.00">commontypes.h</text>
</a>
</g>
<!-- Node6&#45;&gt;Node14 -->
<g id="edge34" class="edge"><title>Node6&#45;&gt;Node14</title>
<path fill="none" stroke="midnightblue" d="M471.123,-174.362C482.52,-165.777 498.758,-153.546 511.878,-143.664"/>
<polygon fill="midnightblue" stroke="midnightblue" points="514.085,-146.383 519.967,-137.571 509.873,-140.792 514.085,-146.383"/>
</g>
<!-- Node15 -->
<g id="node34" class="node"><title>Node15</title>
<a xlink:href="errmsg_8h.html" target="_top" xlink:title="errmsg.h">
<polygon fill="white" stroke="black" points="418.5,-116.5 418.5,-137.5 473.5,-137.5 473.5,-116.5 418.5,-116.5"/>
<text text-anchor="middle" x="446" y="-124.5" font-family="Helvetica,sans-Serif" font-size="10.00">errmsg.h</text>
</a>
</g>
<!-- Node6&#45;&gt;Node15 -->
<g id="edge38" class="edge"><title>Node6&#45;&gt;Node15</title>
<path fill="none" stroke="midnightblue" d="M454.982,-174.362C453.556,-166.84 451.598,-156.519 449.875,-147.431"/>
<polygon fill="midnightblue" stroke="midnightblue" points="453.307,-146.743 448.005,-137.571 446.429,-148.048 453.307,-146.743"/>
</g>
<!-- Node7&#45;&gt;Node5 -->
<g id="edge16" class="edge"><title>Node7&#45;&gt;Node5</title>
<path fill="none" stroke="midnightblue" d="M651.378,-116.295C700.925,-95.3952 810.571,-49.1446 866.594,-25.5132"/>
<polygon fill="midnightblue" stroke="midnightblue" points="868.227,-28.6231 876.08,-21.5117 865.506,-22.1734 868.227,-28.6231"/>
</g>
<!-- Node8 -->
<g id="node17" class="node"><title>Node8</title>
<a xlink:href="commondefs_8h.html" target="_top" xlink:title="commondefs.h">
<polygon fill="white" stroke="black" points="525.5,-58.5 525.5,-79.5 606.5,-79.5 606.5,-58.5 525.5,-58.5"/>
<text text-anchor="middle" x="566" y="-66.5" font-family="Helvetica,sans-Serif" font-size="10.00">commondefs.h</text>
</a>
</g>
<!-- Node7&#45;&gt;Node8 -->
<g id="edge18" class="edge"><title>Node7&#45;&gt;Node8</title>
<path fill="none" stroke="midnightblue" d="M614.995,-116.362C606.453,-108.104 594.42,-96.4725 584.417,-86.8029"/>
<polygon fill="midnightblue" stroke="midnightblue" points="586.558,-84.0044 576.935,-79.5707 581.692,-89.0374 586.558,-84.0044"/>
</g>
<!-- Node12 -->
<g id="node26" class="node"><title>Node12</title>
<a xlink:href="plftypes_8h.html" target="_top" xlink:title="plftypes.h">
<polygon fill="white" stroke="black" points="631.5,-58.5 631.5,-79.5 690.5,-79.5 690.5,-58.5 631.5,-58.5"/>
<text text-anchor="middle" x="661" y="-66.5" font-family="Helvetica,sans-Serif" font-size="10.00">plftypes.h</text>
</a>
</g>
<!-- Node7&#45;&gt;Node12 -->
<g id="edge28" class="edge"><title>Node7&#45;&gt;Node12</title>
<path fill="none" stroke="midnightblue" d="M632.42,-116.362C637.156,-108.513 643.732,-97.6159 649.382,-88.2527"/>
<polygon fill="midnightblue" stroke="midnightblue" points="652.451,-89.9409 654.621,-79.5707 646.458,-86.3242 652.451,-89.9409"/>
</g>
<!-- Node8&#45;&gt;Node5 -->
<g id="edge20" class="edge"><title>Node8&#45;&gt;Node5</title>
<path fill="none" stroke="midnightblue" d="M606.767,-61.0139C612.221,-59.9803 617.744,-58.9514 623,-58 705.581,-43.053 802.241,-27.0457 857.082,-18.1026"/>
<polygon fill="midnightblue" stroke="midnightblue" points="857.841,-21.5251 867.149,-16.4636 856.716,-14.616 857.841,-21.5251"/>
</g>
<!-- Node9 -->
<g id="node20" class="node"><title>Node9</title>
<a xlink:href="plfdefs_8h.html" target="_top" xlink:title="plfdefs.h">
<polygon fill="white" stroke="black" points="583,-0.5 583,-21.5 637,-21.5 637,-0.5 583,-0.5"/>
<text text-anchor="middle" x="610" y="-8.5" font-family="Helvetica,sans-Serif" font-size="10.00">plfdefs.h</text>
</a>
</g>
<!-- Node8&#45;&gt;Node9 -->
<g id="edge22" class="edge"><title>Node8&#45;&gt;Node9</title>
<path fill="none" stroke="midnightblue" d="M574.07,-58.3619C580.149,-50.3496 588.637,-39.1605 595.837,-29.6696"/>
<polygon fill="midnightblue" stroke="midnightblue" points="598.725,-31.653 601.981,-21.5707 593.149,-27.4222 598.725,-31.653"/>
</g>
<!-- Node10 -->
<g id="node22" class="node"><title>Node10</title>
<polygon fill="white" stroke="#bfbfbf" points="266.5,-0.5 266.5,-21.5 325.5,-21.5 325.5,-0.5 266.5,-0.5"/>
<text text-anchor="middle" x="296" y="-8.5" font-family="Helvetica,sans-Serif" font-size="10.00">stdexcept</text>
</g>
<!-- Node8&#45;&gt;Node10 -->
<g id="edge24" class="edge"><title>Node8&#45;&gt;Node10</title>
<path fill="none" stroke="midnightblue" d="M525.286,-60.254C474.016,-49.2404 386.507,-30.4422 335.714,-19.5311"/>
<polygon fill="midnightblue" stroke="midnightblue" points="336.274,-16.0717 325.762,-17.3934 334.804,-22.9156 336.274,-16.0717"/>
</g>
<!-- Node11 -->
<g id="node24" class="node"><title>Node11</title>
<polygon fill="white" stroke="#bfbfbf" points="530.5,-0.5 530.5,-21.5 565.5,-21.5 565.5,-0.5 530.5,-0.5"/>
<text text-anchor="middle" x="548" y="-8.5" font-family="Helvetica,sans-Serif" font-size="10.00">new</text>
</g>
<!-- Node8&#45;&gt;Node11 -->
<g id="edge26" class="edge"><title>Node8&#45;&gt;Node11</title>
<path fill="none" stroke="midnightblue" d="M562.699,-58.3619C560.339,-50.7584 557.091,-40.294 554.249,-31.1349"/>
<polygon fill="midnightblue" stroke="midnightblue" points="557.587,-30.0839 551.281,-21.5707 550.902,-32.1587 557.587,-30.0839"/>
</g>
<!-- Node12&#45;&gt;Node9 -->
<g id="edge30" class="edge"><title>Node12&#45;&gt;Node9</title>
<path fill="none" stroke="midnightblue" d="M651.646,-58.3619C644.457,-50.1861 634.359,-38.7025 625.907,-29.0907"/>
<polygon fill="midnightblue" stroke="midnightblue" points="628.527,-26.7692 619.295,-21.5707 623.27,-31.3916 628.527,-26.7692"/>
</g>
<!-- Node13 -->
<g id="node29" class="node"><title>Node13</title>
<polygon fill="white" stroke="#bfbfbf" points="654.5,-0.5 654.5,-21.5 703.5,-21.5 703.5,-0.5 654.5,-0.5"/>
<text text-anchor="middle" x="679" y="-8.5" font-family="Helvetica,sans-Serif" font-size="10.00">stdint.h</text>
</g>
<!-- Node12&#45;&gt;Node13 -->
<g id="edge32" class="edge"><title>Node12&#45;&gt;Node13</title>
<path fill="none" stroke="midnightblue" d="M664.301,-58.3619C666.661,-50.7584 669.909,-40.294 672.751,-31.1349"/>
<polygon fill="midnightblue" stroke="midnightblue" points="676.098,-32.1587 675.719,-21.5707 669.413,-30.0839 676.098,-32.1587"/>
</g>
<!-- Node14&#45;&gt;Node8 -->
<g id="edge36" class="edge"><title>Node14&#45;&gt;Node8</title>
<path fill="none" stroke="midnightblue" d="M539.869,-116.362C544.155,-108.595 550.087,-97.8426 555.216,-88.5458"/>
<polygon fill="midnightblue" stroke="midnightblue" points="558.402,-90.0172 560.168,-79.5707 552.273,-86.6357 558.402,-90.0172"/>
</g>
<!-- Node15&#45;&gt;Node8 -->
<g id="edge40" class="edge"><title>Node15&#45;&gt;Node8</title>
<path fill="none" stroke="midnightblue" d="M467.731,-116.497C486.474,-107.438 513.767,-94.2462 534.836,-84.0628"/>
<polygon fill="midnightblue" stroke="midnightblue" points="536.545,-87.1242 544.025,-79.6212 533.498,-80.8217 536.545,-87.1242"/>
</g>
<!-- Node16 -->
<g id="node37" class="node"><title>Node16</title>
<polygon fill="white" stroke="#bfbfbf" points="441.5,-58.5 441.5,-79.5 492.5,-79.5 492.5,-58.5 441.5,-58.5"/>
<text text-anchor="middle" x="467" y="-66.5" font-family="Helvetica,sans-Serif" font-size="10.00">typeinfo</text>
</g>
<!-- Node15&#45;&gt;Node16 -->
<g id="edge42" class="edge"><title>Node15&#45;&gt;Node16</title>
<path fill="none" stroke="midnightblue" d="M449.852,-116.362C452.605,-108.758 456.394,-98.294 459.71,-89.1349"/>
<polygon fill="midnightblue" stroke="midnightblue" points="463.059,-90.1649 463.173,-79.5707 456.477,-87.7818 463.059,-90.1649"/>
</g>
<!-- Node17&#45;&gt;Node6 -->
<g id="edge46" class="edge"><title>Node17&#45;&gt;Node6</title>
<path fill="none" stroke="midnightblue" d="M248,-522.444C248,-502.062 248,-455.868 248,-417 248,-417 248,-417 248,-301 248,-224.307 356.921,-197.891 417.501,-189.13"/>
<polygon fill="midnightblue" stroke="midnightblue" points="418.057,-192.587 427.499,-187.78 417.12,-185.65 418.057,-192.587"/>
</g>
<!-- Node18 -->
<g id="node42" class="node"><title>Node18</title>
<a xlink:href="math2_8h.html" target="_top" xlink:title="math2.h">
<polygon fill="white" stroke="black" points="338,-464.5 338,-485.5 390,-485.5 390,-464.5 338,-464.5"/>
<text text-anchor="middle" x="364" y="-472.5" font-family="Helvetica,sans-Serif" font-size="10.00">math2.h</text>
</a>
</g>
<!-- Node17&#45;&gt;Node18 -->
<g id="edge48" class="edge"><title>Node17&#45;&gt;Node18</title>
<path fill="none" stroke="midnightblue" d="M269.007,-522.497C287.043,-513.479 313.27,-500.365 333.599,-490.201"/>
<polygon fill="midnightblue" stroke="midnightblue" points="335.379,-493.224 342.758,-485.621 332.248,-486.963 335.379,-493.224"/>
</g>
<!-- Node27 -->
<g id="node69" class="node"><title>Node27</title>
<a xlink:href="ptrman_8h.html" target="_top" xlink:title="ptrman.h">
<polygon fill="white" stroke="black" points="127.5,-232.5 127.5,-253.5 182.5,-253.5 182.5,-232.5 127.5,-232.5"/>
<text text-anchor="middle" x="155" y="-240.5" font-family="Helvetica,sans-Serif" font-size="10.00">ptrman.h</text>
</a>
</g>
<!-- Node17&#45;&gt;Node27 -->
<g id="edge84" class="edge"><title>Node17&#45;&gt;Node27</title>
<path fill="none" stroke="midnightblue" d="M220.866,-524.082C187.457,-512.831 134.435,-493.989 129,-486 81.2916,-415.862 123.958,-307.068 144.938,-262.773"/>
<polygon fill="midnightblue" stroke="midnightblue" points="148.152,-264.167 149.392,-253.645 141.861,-261.097 148.152,-264.167"/>
</g>
<!-- Node31 -->
<g id="node81" class="node"><title>Node31</title>
<a xlink:href="varlenarray_8h.html" target="_top" xlink:title="varlenarray.h">
<polygon fill="white" stroke="black" points="-0.5,-290.5 -0.5,-311.5 72.5,-311.5 72.5,-290.5 -0.5,-290.5"/>
<text text-anchor="middle" x="36" y="-298.5" font-family="Helvetica,sans-Serif" font-size="10.00">varlenarray.h</text>
</a>
</g>
<!-- Node17&#45;&gt;Node31 -->
<g id="edge100" class="edge"><title>Node17&#45;&gt;Node31</title>
<path fill="none" stroke="midnightblue" d="M220.951,-524.721C177.415,-511.384 96.5746,-486.567 96,-486 50.0332,-440.66 39.2601,-359.836 36.7513,-321.834"/>
<polygon fill="midnightblue" stroke="midnightblue" points="40.2284,-321.304 36.2083,-311.502 33.2381,-321.672 40.2284,-321.304"/>
</g>
<!-- Node32 -->
<g id="node84" class="node"><title>Node32</title>
<a xlink:href="samplingdata_8h.html" target="_top" xlink:title="samplingdata.h">
<polygon fill="white" stroke="black" points="137.5,-464.5 137.5,-485.5 220.5,-485.5 220.5,-464.5 137.5,-464.5"/>
<text text-anchor="middle" x="179" y="-472.5" font-family="Helvetica,sans-Serif" font-size="10.00">samplingdata.h</text>
</a>
</g>
<!-- Node17&#45;&gt;Node32 -->
<g id="edge104" class="edge"><title>Node17&#45;&gt;Node32</title>
<path fill="none" stroke="midnightblue" d="M229.98,-522.362C218.584,-514.023 204.271,-502.242 193.583,-492.516"/>
<polygon fill="midnightblue" stroke="midnightblue" points="195.898,-489.889 186.223,-485.571 191.094,-494.98 195.898,-489.889"/>
</g>
<!-- Node18&#45;&gt;Node5 -->
<g id="edge50" class="edge"><title>Node18&#45;&gt;Node5</title>
<path fill="none" stroke="midnightblue" d="M390.101,-470.394C402.73,-468.264 418.126,-465.81 432,-464 586.759,-443.807 1000.45,-459.937 1128,-370 1156.79,-349.701 1167,-336.226 1167,-301 1167,-301 1167,-301 1167,-127 1167,-88.3308 1146.63,-78.7527 1114,-58 1086.31,-40.3871 998.471,-25.0787 944.628,-17.0283"/>
<polygon fill="midnightblue" stroke="midnightblue" points="945.07,-13.5556 934.667,-15.5635 944.051,-20.4812 945.07,-13.5556"/>
</g>
<!-- Node18&#45;&gt;Node6 -->
<g id="edge52" class="edge"><title>Node18&#45;&gt;Node6</title>
<path fill="none" stroke="midnightblue" d="M357.618,-464.242C352.525,-454.994 345.796,-441.111 343,-428 335.527,-392.956 340.065,-381.416 353,-348 375.073,-290.977 418.389,-232.576 441.542,-203.629"/>
<polygon fill="midnightblue" stroke="midnightblue" points="444.453,-205.596 448.034,-195.625 439.016,-201.187 444.453,-205.596"/>
</g>
<!-- Node19 -->
<g id="node46" class="node"><title>Node19</title>
<a xlink:href="odcomplex_8h.html" target="_top" xlink:title="odcomplex.h">
<polygon fill="white" stroke="black" points="352,-406.5 352,-427.5 424,-427.5 424,-406.5 352,-406.5"/>
<text text-anchor="middle" x="388" y="-414.5" font-family="Helvetica,sans-Serif" font-size="10.00">odcomplex.h</text>
</a>
</g>
<!-- Node18&#45;&gt;Node19 -->
<g id="edge54" class="edge"><title>Node18&#45;&gt;Node19</title>
<path fill="none" stroke="midnightblue" d="M368.402,-464.362C371.582,-456.677 375.972,-446.069 379.79,-436.84"/>
<polygon fill="midnightblue" stroke="midnightblue" points="383.036,-438.149 383.626,-427.571 376.568,-435.473 383.036,-438.149"/>
</g>
<!-- Node20 -->
<g id="node48" class="node"><title>Node20</title>
<polygon fill="white" stroke="#bfbfbf" points="361.5,-348.5 361.5,-369.5 414.5,-369.5 414.5,-348.5 361.5,-348.5"/>
<text text-anchor="middle" x="388" y="-356.5" font-family="Helvetica,sans-Serif" font-size="10.00">complex</text>
</g>
<!-- Node19&#45;&gt;Node20 -->
<g id="edge56" class="edge"><title>Node19&#45;&gt;Node20</title>
<path fill="none" stroke="midnightblue" d="M388,-406.362C388,-398.922 388,-388.743 388,-379.728"/>
<polygon fill="midnightblue" stroke="midnightblue" points="391.5,-379.571 388,-369.571 384.5,-379.571 391.5,-379.571"/>
</g>
<!-- Node21 -->
<g id="node50" class="node"><title>Node21</title>
<a xlink:href="convert_8h.html" target="_top" xlink:title="convert.h">
<polygon fill="white" stroke="black" points="754.5,-348.5 754.5,-369.5 811.5,-369.5 811.5,-348.5 754.5,-348.5"/>
<text text-anchor="middle" x="783" y="-356.5" font-family="Helvetica,sans-Serif" font-size="10.00">convert.h</text>
</a>
</g>
<!-- Node19&#45;&gt;Node21 -->
<g id="edge58" class="edge"><title>Node19&#45;&gt;Node21</title>
<path fill="none" stroke="midnightblue" d="M424.286,-412.195C512.448,-400.515 731.291,-371.475 739,-370 740.701,-369.674 742.435,-369.324 744.184,-368.954"/>
<polygon fill="midnightblue" stroke="midnightblue" points="745.246,-372.303 754.227,-366.683 743.702,-365.475 745.246,-372.303"/>
</g>
<!-- Node21&#45;&gt;Node7 -->
<g id="edge72" class="edge"><title>Node21&#45;&gt;Node7</title>
<path fill="none" stroke="midnightblue" d="M767.774,-348.495C743.956,-331.332 697.839,-295.046 671,-254 648.822,-220.081 636.052,-173.906 630.114,-147.598"/>
<polygon fill="midnightblue" stroke="midnightblue" points="633.496,-146.679 627.98,-137.634 626.652,-148.145 633.496,-146.679"/>
</g>
<!-- Node22 -->
<g id="node52" class="node"><title>Node22</title>
<a xlink:href="string2_8h.html" target="_top" xlink:title="string2.h">
<polygon fill="white" stroke="black" points="777,-290.5 777,-311.5 831,-311.5 831,-290.5 777,-290.5"/>
<text text-anchor="middle" x="804" y="-298.5" font-family="Helvetica,sans-Serif" font-size="10.00">string2.h</text>
</a>
</g>
<!-- Node21&#45;&gt;Node22 -->
<g id="edge60" class="edge"><title>Node21&#45;&gt;Node22</title>
<path fill="none" stroke="midnightblue" d="M786.852,-348.362C789.605,-340.758 793.394,-330.294 796.71,-321.135"/>
<polygon fill="midnightblue" stroke="midnightblue" points="800.059,-322.165 800.173,-311.571 793.477,-319.782 800.059,-322.165"/>
</g>
<!-- Node25 -->
<g id="node62" class="node"><title>Node25</title>
<a xlink:href="fixedstring_8h.html" target="_top" xlink:title="fixedstring.h">
<polygon fill="white" stroke="black" points="877,-290.5 877,-311.5 947,-311.5 947,-290.5 877,-290.5"/>
<text text-anchor="middle" x="912" y="-298.5" font-family="Helvetica,sans-Serif" font-size="10.00">fixedstring.h</text>
</a>
</g>
<!-- Node21&#45;&gt;Node25 -->
<g id="edge74" class="edge"><title>Node21&#45;&gt;Node25</title>
<path fill="none" stroke="midnightblue" d="M806.361,-348.497C826.691,-339.356 856.378,-326.008 879.109,-315.788"/>
<polygon fill="midnightblue" stroke="midnightblue" points="880.692,-318.914 888.377,-311.621 877.821,-312.53 880.692,-318.914"/>
</g>
<!-- Node22&#45;&gt;Node5 -->
<g id="edge62" class="edge"><title>Node22&#45;&gt;Node5</title>
<path fill="none" stroke="midnightblue" d="M831.041,-295.995C870.295,-288.208 940.311,-272.183 958,-254 980.18,-231.201 977,-216.808 977,-185 977,-185 977,-185 977,-127 977,-86.5104 944.203,-49.1585 921.698,-28.2949"/>
<polygon fill="midnightblue" stroke="midnightblue" points="924.026,-25.681 914.238,-21.6247 919.36,-30.8993 924.026,-25.681"/>
</g>
<!-- Node22&#45;&gt;Node8 -->
<g id="edge66" class="edge"><title>Node22&#45;&gt;Node8</title>
<path fill="none" stroke="midnightblue" d="M777.622,-290.465C760.699,-282.575 739.296,-270.331 725,-254 681.064,-203.811 712.326,-163.993 666,-116 651.705,-101.191 631.826,-90.5391 613.555,-83.1614"/>
<polygon fill="midnightblue" stroke="midnightblue" points="614.776,-79.8813 604.185,-79.597 612.288,-86.4239 614.776,-79.8813"/>
</g>
<!-- Node22&#45;&gt;Node12 -->
<g id="edge64" class="edge"><title>Node22&#45;&gt;Node12</title>
<path fill="none" stroke="midnightblue" d="M784.039,-290.328C770.389,-282.082 752.866,-269.477 742,-254 705.087,-201.422 729.29,-172.653 699,-116 693.508,-105.729 685.635,-95.5283 678.477,-87.2684"/>
<polygon fill="midnightblue" stroke="midnightblue" points="680.97,-84.8063 671.674,-79.7247 675.772,-89.4947 680.97,-84.8063"/>
</g>
<!-- Node23 -->
<g id="node57" class="node"><title>Node23</title>
<polygon fill="white" stroke="#bfbfbf" points="750.5,-232.5 750.5,-253.5 799.5,-253.5 799.5,-232.5 750.5,-232.5"/>
<text text-anchor="middle" x="775" y="-240.5" font-family="Helvetica,sans-Serif" font-size="10.00">ctype.h</text>
</g>
<!-- Node22&#45;&gt;Node23 -->
<g id="edge68" class="edge"><title>Node22&#45;&gt;Node23</title>
<path fill="none" stroke="midnightblue" d="M798.681,-290.362C794.797,-282.595 789.421,-271.843 784.773,-262.546"/>
<polygon fill="midnightblue" stroke="midnightblue" points="787.888,-260.95 780.285,-253.571 781.627,-264.08 787.888,-260.95"/>
</g>
<!-- Node24 -->
<g id="node59" class="node"><title>Node24</title>
<polygon fill="white" stroke="#bfbfbf" points="817,-232.5 817,-253.5 873,-253.5 873,-232.5 817,-232.5"/>
<text text-anchor="middle" x="845" y="-240.5" font-family="Helvetica,sans-Serif" font-size="10.00">wctype.h</text>
</g>
<!-- Node22&#45;&gt;Node24 -->
<g id="edge70" class="edge"><title>Node22&#45;&gt;Node24</title>
<path fill="none" stroke="midnightblue" d="M811.52,-290.362C817.126,-282.431 824.932,-271.389 831.597,-261.961"/>
<polygon fill="midnightblue" stroke="midnightblue" points="834.613,-263.757 837.528,-253.571 828.897,-259.716 834.613,-263.757"/>
</g>
<!-- Node25&#45;&gt;Node5 -->
<g id="edge76" class="edge"><title>Node25&#45;&gt;Node5</title>
<path fill="none" stroke="midnightblue" d="M944.703,-290.44C986.355,-274.697 1053,-240.79 1053,-185 1053,-185 1053,-185 1053,-127 1053,-71.9511 989.218,-39.5455 944.287,-23.547"/>
<polygon fill="midnightblue" stroke="midnightblue" points="945.328,-20.2042 934.734,-20.2879 943.068,-26.8293 945.328,-20.2042"/>
</g>
<!-- Node26 -->
<g id="node65" class="node"><title>Node26</title>
<a xlink:href="odstring_8h.html" target="_top" xlink:title="odstring.h">
<polygon fill="white" stroke="black" points="890.5,-232.5 890.5,-253.5 949.5,-253.5 949.5,-232.5 890.5,-232.5"/>
<text text-anchor="middle" x="920" y="-240.5" font-family="Helvetica,sans-Serif" font-size="10.00">odstring.h</text>
</a>
</g>
<!-- Node25&#45;&gt;Node26 -->
<g id="edge78" class="edge"><title>Node25&#45;&gt;Node26</title>
<path fill="none" stroke="midnightblue" d="M913.467,-290.362C914.494,-282.922 915.898,-272.743 917.141,-263.728"/>
<polygon fill="midnightblue" stroke="midnightblue" points="920.643,-263.955 918.542,-253.571 913.708,-262.999 920.643,-263.955"/>
</g>
<!-- Node26&#45;&gt;Node5 -->
<g id="edge80" class="edge"><title>Node26&#45;&gt;Node5</title>
<path fill="none" stroke="midnightblue" d="M919.134,-232.429C916.204,-196.648 906.623,-79.6628 902.699,-31.7481"/>
<polygon fill="midnightblue" stroke="midnightblue" points="906.175,-31.3144 901.871,-21.6335 899.199,-31.8859 906.175,-31.3144"/>
</g>
<!-- Node26&#45;&gt;Node6 -->
<g id="edge82" class="edge"><title>Node26&#45;&gt;Node6</title>
<path fill="none" stroke="midnightblue" d="M890.248,-233.864C887.475,-233.171 884.695,-232.535 882,-232 741.871,-204.184 572.246,-191.628 496.664,-187.109"/>
<polygon fill="midnightblue" stroke="midnightblue" points="496.823,-183.612 486.636,-186.524 496.415,-190.6 496.823,-183.612"/>
</g>
<!-- Node27&#45;&gt;Node6 -->
<g id="edge86" class="edge"><title>Node27&#45;&gt;Node6</title>
<path fill="none" stroke="midnightblue" d="M182.711,-235.228C187.14,-234.083 191.685,-232.966 196,-232 273.974,-214.552 366.174,-199.161 417.479,-191.056"/>
<polygon fill="midnightblue" stroke="midnightblue" points="418.146,-194.495 427.482,-189.487 417.061,-187.579 418.146,-194.495"/>
</g>
<!-- Node28 -->
<g id="node72" class="node"><title>Node28</title>
<a xlink:href="atomic_8h.html" target="_top" xlink:title="atomic.h">
<polygon fill="white" stroke="black" points="347,-116.5 347,-137.5 401,-137.5 401,-116.5 347,-116.5"/>
<text text-anchor="middle" x="374" y="-124.5" font-family="Helvetica,sans-Serif" font-size="10.00">atomic.h</text>
</a>
</g>
<!-- Node27&#45;&gt;Node28 -->
<g id="edge88" class="edge"><title>Node27&#45;&gt;Node28</title>
<path fill="none" stroke="midnightblue" d="M175.21,-232.295C214.259,-211.612 300.183,-166.099 345.201,-142.254"/>
<polygon fill="midnightblue" stroke="midnightblue" points="346.956,-145.285 354.155,-137.512 343.68,-139.1 346.956,-145.285"/>
</g>
<!-- Node30 -->
<g id="node79" class="node"><title>Node30</title>
<polygon fill="white" stroke="#bfbfbf" points="131,-174.5 131,-195.5 179,-195.5 179,-174.5 131,-174.5"/>
<text text-anchor="middle" x="155" y="-182.5" font-family="Helvetica,sans-Serif" font-size="10.00">stdlib.h</text>
</g>
<!-- Node27&#45;&gt;Node30 -->
<g id="edge98" class="edge"><title>Node27&#45;&gt;Node30</title>
<path fill="none" stroke="midnightblue" d="M155,-232.362C155,-224.922 155,-214.743 155,-205.728"/>
<polygon fill="midnightblue" stroke="midnightblue" points="158.5,-205.571 155,-195.571 151.5,-205.571 158.5,-205.571"/>
</g>
<!-- Node28&#45;&gt;Node5 -->
<g id="edge90" class="edge"><title>Node28&#45;&gt;Node5</title>
<path fill="none" stroke="midnightblue" d="M379.567,-116.368C388.483,-100.558 407.579,-71.2904 433,-58 470.111,-38.5978 748.242,-20.1117 857.306,-13.5314"/>
<polygon fill="midnightblue" stroke="midnightblue" points="857.546,-17.0234 867.319,-12.9321 857.128,-10.0359 857.546,-17.0234"/>
</g>
<!-- Node28&#45;&gt;Node8 -->
<g id="edge92" class="edge"><title>Node28&#45;&gt;Node8</title>
<path fill="none" stroke="midnightblue" d="M401.123,-118.7C404.118,-117.787 407.123,-116.873 410,-116 447.491,-104.625 490.08,-91.7999 521.275,-82.4242"/>
<polygon fill="midnightblue" stroke="midnightblue" points="522.413,-85.7371 530.982,-79.5075 520.398,-79.0332 522.413,-85.7371"/>
</g>
<!-- Node28&#45;&gt;Node12 -->
<g id="edge94" class="edge"><title>Node28&#45;&gt;Node12</title>
<path fill="none" stroke="midnightblue" d="M401.029,-118.352C404.041,-117.504 407.077,-116.701 410,-116 499.959,-94.4436 524.418,-98.7658 615,-80 617.156,-79.5534 619.365,-79.0796 621.592,-78.5894"/>
<polygon fill="midnightblue" stroke="midnightblue" points="622.391,-81.9972 631.366,-76.3668 620.838,-75.1714 622.391,-81.9972"/>
</g>
<!-- Node29 -->
<g id="node77" class="node"><title>Node29</title>
<polygon fill="white" stroke="#bfbfbf" points="319.5,-58.5 319.5,-79.5 386.5,-79.5 386.5,-58.5 319.5,-58.5"/>
<text text-anchor="middle" x="353" y="-66.5" font-family="Helvetica,sans-Serif" font-size="10.00">odversion.h</text>
</g>
<!-- Node28&#45;&gt;Node29 -->
<g id="edge96" class="edge"><title>Node28&#45;&gt;Node29</title>
<path fill="none" stroke="midnightblue" d="M370.148,-116.362C367.395,-108.758 363.606,-98.294 360.29,-89.1349"/>
<polygon fill="midnightblue" stroke="midnightblue" points="363.523,-87.7818 356.827,-79.5707 356.941,-90.1649 363.523,-87.7818"/>
</g>
<!-- Node31&#45;&gt;Node27 -->
<g id="edge102" class="edge"><title>Node31&#45;&gt;Node27</title>
<path fill="none" stroke="midnightblue" d="M57.55,-290.497C76.1363,-281.438 103.202,-268.246 124.095,-258.063"/>
<polygon fill="midnightblue" stroke="midnightblue" points="125.753,-261.149 133.208,-253.621 122.686,-254.856 125.753,-261.149"/>
</g>
<!-- Node32&#45;&gt;Node6 -->
<g id="edge106" class="edge"><title>Node32&#45;&gt;Node6</title>
<path fill="none" stroke="midnightblue" d="M183.844,-464.379C192.562,-444.262 210,-399.024 210,-359 210,-359 210,-359 210,-301 210,-268.531 209.63,-253.456 234,-232 260.768,-208.433 360.425,-194.75 417.038,-188.718"/>
<polygon fill="midnightblue" stroke="midnightblue" points="417.493,-192.189 427.08,-187.68 416.773,-185.227 417.493,-192.189"/>
</g>
<!-- Node32&#45;&gt;Node17 -->
<g id="edge108" class="edge"><title>Node32&#45;&gt;Node17</title>
<path fill="none" stroke="midnightblue" d="M196.928,-485.571C208.308,-493.891 222.623,-505.668 233.331,-515.405"/>
<polygon fill="midnightblue" stroke="midnightblue" points="231.032,-518.048 240.708,-522.362 235.834,-512.955 231.032,-518.048"/>
</g>
<!-- Node34 -->
<g id="node90" class="node"><title>Node34</title>
<a xlink:href="odset_8h.html" target="_top" xlink:title="odset.h">
<polygon fill="white" stroke="black" points="275.5,-290.5 275.5,-311.5 324.5,-311.5 324.5,-290.5 275.5,-290.5"/>
<text text-anchor="middle" x="300" y="-298.5" font-family="Helvetica,sans-Serif" font-size="10.00">odset.h</text>
</a>
</g>
<!-- Node33&#45;&gt;Node34 -->
<g id="edge112" class="edge"><title>Node33&#45;&gt;Node34</title>
<path fill="none" stroke="midnightblue" d="M401.385,-526.393C378.789,-519.771 348.001,-507.407 329,-486 287.929,-439.727 291.896,-360.012 296.636,-322.15"/>
<polygon fill="midnightblue" stroke="midnightblue" points="300.161,-322.216 298.083,-311.827 293.229,-321.245 300.161,-322.216"/>
</g>
<!-- Node35 -->
<g id="node93" class="node"><title>Node35</title>
<a xlink:href="vectoraccess_8h.html" target="_top" xlink:title="vectoraccess.h">
<polygon fill="white" stroke="black" points="440.5,-464.5 440.5,-485.5 523.5,-485.5 523.5,-464.5 440.5,-464.5"/>
<text text-anchor="middle" x="482" y="-472.5" font-family="Helvetica,sans-Serif" font-size="10.00">vectoraccess.h</text>
</a>
</g>
<!-- Node33&#45;&gt;Node35 -->
<g id="edge116" class="edge"><title>Node33&#45;&gt;Node35</title>
<path fill="none" stroke="midnightblue" d="M439.538,-522.362C446.868,-514.186 457.163,-502.702 465.781,-493.091"/>
<polygon fill="midnightblue" stroke="midnightblue" points="468.453,-495.353 472.523,-485.571 463.241,-490.68 468.453,-495.353"/>
</g>
<!-- Node34&#45;&gt;Node6 -->
<g id="edge114" class="edge"><title>Node34&#45;&gt;Node6</title>
<path fill="none" stroke="midnightblue" d="M303.258,-290.418C308.368,-275.464 319.625,-248.174 338,-232 360.495,-212.2 392.33,-200.216 417.413,-193.309"/>
<polygon fill="midnightblue" stroke="midnightblue" points="418.55,-196.63 427.354,-190.736 416.796,-189.853 418.55,-196.63"/>
</g>
<!-- Node35&#45;&gt;Node6 -->
<g id="edge132" class="edge"><title>Node35&#45;&gt;Node6</title>
<path fill="none" stroke="midnightblue" d="M479.039,-464.257C476.535,-454.785 473.039,-440.574 471,-428 458.566,-351.342 458.559,-331.578 455,-254 454.262,-237.913 454.85,-219.703 455.575,-206.031"/>
<polygon fill="midnightblue" stroke="midnightblue" points="459.086,-205.952 456.19,-195.761 452.098,-205.533 459.086,-205.952"/>
</g>
<!-- Node35&#45;&gt;Node10 -->
<g id="edge138" class="edge"><title>Node35&#45;&gt;Node10</title>
<path fill="none" stroke="midnightblue" d="M440.392,-465.403C341.386,-441.364 100,-375.151 100,-301 100,-301 100,-301 100,-127 100,-55.158 198.729,-26.8617 256.045,-16.4877"/>
<polygon fill="midnightblue" stroke="midnightblue" points="256.961,-19.8821 266.232,-14.7528 255.786,-12.9814 256.961,-19.8821"/>
</g>
<!-- Node36 -->
<g id="node95" class="node"><title>Node36</title>
<a xlink:href="debug_8h.html" target="_top" xlink:title="debug.h">
<polygon fill="white" stroke="black" points="734.5,-406.5 734.5,-427.5 785.5,-427.5 785.5,-406.5 734.5,-406.5"/>
<text text-anchor="middle" x="760" y="-414.5" font-family="Helvetica,sans-Serif" font-size="10.00">debug.h</text>
</a>
</g>
<!-- Node35&#45;&gt;Node36 -->
<g id="edge118" class="edge"><title>Node35&#45;&gt;Node36</title>
<path fill="none" stroke="midnightblue" d="M523.619,-466.317C578.177,-454.934 672.957,-435.16 724.367,-424.434"/>
<polygon fill="midnightblue" stroke="midnightblue" points="725.273,-427.821 734.348,-422.352 723.844,-420.968 725.273,-427.821"/>
</g>
<!-- Node38 -->
<g id="node105" class="node"><title>Node38</title>
<polygon fill="white" stroke="#bfbfbf" points="480,-406.5 480,-427.5 536,-427.5 536,-406.5 480,-406.5"/>
<text text-anchor="middle" x="508" y="-414.5" font-family="Helvetica,sans-Serif" font-size="10.00">algorithm</text>
</g>
<!-- Node35&#45;&gt;Node38 -->
<g id="edge134" class="edge"><title>Node35&#45;&gt;Node38</title>
<path fill="none" stroke="midnightblue" d="M486.769,-464.362C490.214,-456.677 494.969,-446.069 499.106,-436.84"/>
<polygon fill="midnightblue" stroke="midnightblue" points="502.365,-438.127 503.261,-427.571 495.977,-435.264 502.365,-438.127"/>
</g>
<!-- Node39 -->
<g id="node107" class="node"><title>Node39</title>
<polygon fill="white" stroke="#bfbfbf" points="554,-406.5 554,-427.5 598,-427.5 598,-406.5 554,-406.5"/>
<text text-anchor="middle" x="576" y="-414.5" font-family="Helvetica,sans-Serif" font-size="10.00">vector</text>
</g>
<!-- Node35&#45;&gt;Node39 -->
<g id="edge136" class="edge"><title>Node35&#45;&gt;Node39</title>
<path fill="none" stroke="midnightblue" d="M499.241,-464.362C513.552,-455.532 534.115,-442.844 550.357,-432.822"/>
<polygon fill="midnightblue" stroke="midnightblue" points="552.196,-435.8 558.868,-427.571 548.52,-429.843 552.196,-435.8"/>
</g>
<!-- Node36&#45;&gt;Node5 -->
<g id="edge120" class="edge"><title>Node36&#45;&gt;Node5</title>
<path fill="none" stroke="midnightblue" d="M785.56,-410.024C790.668,-408.663 795.999,-407.267 801,-406 949.379,-368.416 1129,-454.065 1129,-301 1129,-301 1129,-301 1129,-127 1129,-45.2162 1011.02,-21.069 944.8,-13.9567"/>
<polygon fill="midnightblue" stroke="midnightblue" points="944.937,-10.4533 934.642,-12.9553 944.251,-17.4195 944.937,-10.4533"/>
</g>
<!-- Node36&#45;&gt;Node6 -->
<g id="edge122" class="edge"><title>Node36&#45;&gt;Node6</title>
<path fill="none" stroke="midnightblue" d="M734.516,-406.369C714.864,-397.709 687.356,-384.565 665,-370 586.652,-318.956 507.916,-239.389 474.135,-203.575"/>
<polygon fill="midnightblue" stroke="midnightblue" points="476.289,-200.753 466.901,-195.842 471.177,-205.536 476.289,-200.753"/>
</g>
<!-- Node37 -->
<g id="node99" class="node"><title>Node37</title>
<a xlink:href="bufstring_8h.html" target="_top" xlink:title="bufstring.h">
<polygon fill="white" stroke="black" points="881,-348.5 881,-369.5 943,-369.5 943,-348.5 881,-348.5"/>
<text text-anchor="middle" x="912" y="-356.5" font-family="Helvetica,sans-Serif" font-size="10.00">bufstring.h</text>
</a>
</g>
<!-- Node36&#45;&gt;Node37 -->
<g id="edge124" class="edge"><title>Node36&#45;&gt;Node37</title>
<path fill="none" stroke="midnightblue" d="M785.785,-407.161C810.257,-397.823 847.304,-383.687 874.939,-373.142"/>
<polygon fill="midnightblue" stroke="midnightblue" points="876.19,-376.411 884.285,-369.575 873.694,-369.87 876.19,-376.411"/>
</g>
<!-- Node37&#45;&gt;Node5 -->
<g id="edge126" class="edge"><title>Node37&#45;&gt;Node5</title>
<path fill="none" stroke="midnightblue" d="M943.179,-353.531C994.464,-342.545 1091,-312.619 1091,-243 1091,-243 1091,-243 1091,-127 1091,-58.7812 1000.67,-29.4884 944.577,-17.8746"/>
<polygon fill="midnightblue" stroke="midnightblue" points="945.017,-14.3945 934.531,-15.9064 943.671,-21.2639 945.017,-14.3945"/>
</g>
<!-- Node37&#45;&gt;Node22 -->
<g id="edge130" class="edge"><title>Node37&#45;&gt;Node22</title>
<path fill="none" stroke="midnightblue" d="M892.442,-348.497C875.802,-339.56 851.673,-326.602 832.82,-316.477"/>
<polygon fill="midnightblue" stroke="midnightblue" points="834.243,-313.269 823.777,-311.621 830.931,-319.436 834.243,-313.269"/>
</g>
<!-- Node37&#45;&gt;Node25 -->
<g id="edge128" class="edge"><title>Node37&#45;&gt;Node25</title>
<path fill="none" stroke="midnightblue" d="M912,-348.362C912,-340.922 912,-330.743 912,-321.728"/>
<polygon fill="midnightblue" stroke="midnightblue" points="915.5,-321.571 912,-311.571 908.5,-321.571 915.5,-321.571"/>
</g>
<!-- Node40&#45;&gt;Node6 -->
<g id="edge142" class="edge"><title>Node40&#45;&gt;Node6</title>
<path fill="none" stroke="midnightblue" d="M679.526,-580.18C669.973,-551.054 641.697,-468.947 607,-406 566.995,-333.423 544.573,-323.216 499,-254 488.222,-237.631 476.696,-218.571 468.449,-204.637"/>
<polygon fill="midnightblue" stroke="midnightblue" points="471.4,-202.75 463.314,-195.904 465.366,-206.299 471.4,-202.75"/>
</g>
<!-- Node40&#45;&gt;Node22 -->
<g id="edge158" class="edge"><title>Node40&#45;&gt;Node22</title>
<path fill="none" stroke="midnightblue" d="M711.072,-585.382C759.357,-573.902 853,-542.887 853,-475 853,-475 853,-475 853,-417 853,-380.463 832.117,-342.193 817.617,-320.025"/>
<polygon fill="midnightblue" stroke="midnightblue" points="820.385,-317.87 811.873,-311.562 814.593,-321.801 820.385,-317.87"/>
</g>
<!-- Node40&#45;&gt;Node33 -->
<g id="edge160" class="edge"><title>Node40&#45;&gt;Node33</title>
<path fill="none" stroke="midnightblue" d="M654.958,-584.571C609.581,-574.169 519.97,-553.625 468.601,-541.849"/>
<polygon fill="midnightblue" stroke="midnightblue" points="469.085,-538.369 458.555,-539.546 467.52,-545.192 469.085,-538.369"/>
</g>
<!-- Node41 -->
<g id="node113" class="node"><title>Node41</title>
<a xlink:href="keystrs_8h.html" target="_top" xlink:title="keystrs.h">
<polygon fill="white" stroke="black" points="673.5,-348.5 673.5,-369.5 730.5,-369.5 730.5,-348.5 673.5,-348.5"/>
<text text-anchor="middle" x="702" y="-356.5" font-family="Helvetica,sans-Serif" font-size="10.00">keystrs.h</text>
</a>
</g>
<!-- Node40&#45;&gt;Node41 -->
<g id="edge144" class="edge"><title>Node40&#45;&gt;Node41</title>
<path fill="none" stroke="midnightblue" d="M683.866,-580.429C686.796,-544.648 696.377,-427.663 700.301,-379.748"/>
<polygon fill="midnightblue" stroke="midnightblue" points="703.801,-379.886 701.129,-369.634 696.825,-379.314 703.801,-379.886"/>
</g>
<!-- Node42 -->
<g id="node117" class="node"><title>Node42</title>
<a xlink:href="threadlock_8h.html" target="_top" xlink:title="threadlock.h">
<polygon fill="white" stroke="black" points="758,-116.5 758,-137.5 828,-137.5 828,-116.5 758,-116.5"/>
<text text-anchor="middle" x="793" y="-124.5" font-family="Helvetica,sans-Serif" font-size="10.00">threadlock.h</text>
</a>
</g>
<!-- Node40&#45;&gt;Node42 -->
<g id="edge150" class="edge"><title>Node40&#45;&gt;Node42</title>
<path fill="none" stroke="midnightblue" d="M711.02,-587.36C791.061,-576.185 1015,-539.185 1015,-475 1015,-475 1015,-475 1015,-301 1015,-211.802 902.61,-161.447 837.765,-139.817"/>
<polygon fill="midnightblue" stroke="midnightblue" points="838.768,-136.463 828.177,-136.712 836.612,-143.123 838.768,-136.463"/>
</g>
<!-- Node41&#45;&gt;Node6 -->
<g id="edge146" class="edge"><title>Node41&#45;&gt;Node6</title>
<path fill="none" stroke="midnightblue" d="M681.33,-348.44C666.495,-340.084 646.771,-327.296 633,-312 605.991,-282.001 620.648,-258.271 590,-232 563.504,-209.288 525.296,-197.298 496.624,-191.131"/>
<polygon fill="midnightblue" stroke="midnightblue" points="497.023,-187.642 486.531,-189.113 495.651,-194.506 497.023,-187.642"/>
</g>
<!-- Node41&#45;&gt;Node25 -->
<g id="edge148" class="edge"><title>Node41&#45;&gt;Node25</title>
<path fill="none" stroke="midnightblue" d="M730.759,-351.057C765.939,-341.341 825.892,-324.782 867.15,-313.387"/>
<polygon fill="midnightblue" stroke="midnightblue" points="868.242,-316.717 876.95,-310.681 866.379,-309.969 868.242,-316.717"/>
</g>
<!-- Node42&#45;&gt;Node5 -->
<g id="edge152" class="edge"><title>Node42&#45;&gt;Node5</title>
<path fill="none" stroke="midnightblue" d="M800.058,-116.125C809.468,-102.005 827.035,-76.9329 845,-58 855.203,-47.2477 867.751,-36.5248 878.381,-28.0419"/>
<polygon fill="midnightblue" stroke="midnightblue" points="880.691,-30.6781 886.413,-21.7613 876.379,-25.1637 880.691,-30.6781"/>
</g>
<!-- Node42&#45;&gt;Node8 -->
<g id="edge154" class="edge"><title>Node42&#45;&gt;Node8</title>
<path fill="none" stroke="midnightblue" d="M757.531,-117.938C719.667,-108.263 659.346,-92.8505 616.524,-81.9092"/>
<polygon fill="midnightblue" stroke="midnightblue" points="617.138,-78.4538 606.583,-79.3692 615.405,-85.2359 617.138,-78.4538"/>
</g>
<!-- Node42&#45;&gt;Node12 -->
<g id="edge156" class="edge"><title>Node42&#45;&gt;Node12</title>
<path fill="none" stroke="midnightblue" d="M769.096,-116.497C748.2,-107.315 717.644,-93.8889 694.345,-83.6516"/>
<polygon fill="midnightblue" stroke="midnightblue" points="695.736,-80.4397 685.172,-79.6212 692.92,-86.8483 695.736,-80.4397"/>
</g>
</g>
</svg>
