<?xml version="1.0" encoding="UTF-8" standalone="no"?>
<!DOCTYPE svg PUBLIC "-//W3C//DTD SVG 1.1//EN"
 "http://www.w3.org/Graphics/SVG/1.1/DTD/svg11.dtd">
<!-- Generated by graphviz version 2.26.0 (20091210.2329)
 -->
<!-- Title: coltabsequence.h Pages: 1 -->
<svg width="1353pt" height="146pt"
 viewBox="0.00 0.00 1353.00 146.00" xmlns="http://www.w3.org/2000/svg" xmlns:xlink="http://www.w3.org/1999/xlink">
<g id="graph1" class="graph" transform="scale(1 1) rotate(0) translate(4 142)">
<title>coltabsequence.h</title>
<polygon fill="white" stroke="white" points="-4,5 -4,-142 1350,-142 1350,5 -4,5"/>
<!-- Node1 -->
<g id="node1" class="node"><title>Node1</title>
<polygon fill="#bfbfbf" stroke="black" points="671.5,-116.5 671.5,-137.5 764.5,-137.5 764.5,-116.5 671.5,-116.5"/>
<text text-anchor="middle" x="718" y="-124.5" font-family="Helvetica,sans-Serif" font-size="10.00">coltabsequence.h</text>
</g>
<!-- Node2 -->
<g id="node3" class="node"><title>Node2</title>
<a xlink:href="dpsdispmgr_8h.html" target="_top" xlink:title="dpsdispmgr.h">
<polygon fill="white" stroke="black" points="126.5,-58.5 126.5,-79.5 201.5,-79.5 201.5,-58.5 126.5,-58.5"/>
<text text-anchor="middle" x="164" y="-66.5" font-family="Helvetica,sans-Serif" font-size="10.00">dpsdispmgr.h</text>
</a>
</g>
<!-- Node1&#45;&gt;Node2 -->
<g id="edge2" class="edge"><title>Node1&#45;&gt;Node2</title>
<path fill="none" stroke="midnightblue" d="M661.325,-124.396C567.117,-119.478 372.569,-106.818 210,-80 207.245,-79.5456 204.411,-79.0179 201.567,-78.4443"/>
<polygon fill="midnightblue" stroke="midnightblue" points="661.323,-127.9 671.489,-124.917 661.682,-120.91 661.323,-127.9"/>
</g>
<!-- Node5 -->
<g id="node9" class="node"><title>Node5</title>
<a xlink:href="uigraphicscoltab_8h.html" target="_top" xlink:title="uigraphicscoltab.h">
<polygon fill="white" stroke="black" points="218.5,-58.5 218.5,-79.5 313.5,-79.5 313.5,-58.5 218.5,-58.5"/>
<text text-anchor="middle" x="266" y="-66.5" font-family="Helvetica,sans-Serif" font-size="10.00">uigraphicscoltab.h</text>
</a>
</g>
<!-- Node1&#45;&gt;Node5 -->
<g id="edge8" class="edge"><title>Node1&#45;&gt;Node5</title>
<path fill="none" stroke="midnightblue" d="M661.227,-121.628C584.167,-114.026 442.269,-98.9214 322,-80 319.259,-79.5688 316.449,-79.1004 313.615,-78.608"/>
<polygon fill="midnightblue" stroke="midnightblue" points="660.913,-125.114 671.207,-122.607 661.596,-118.148 660.913,-125.114"/>
</g>
<!-- Node6 -->
<g id="node11" class="node"><title>Node6</title>
<a xlink:href="uiflatviewproptabs_8h.html" target="_top" xlink:title="uiflatviewproptabs.h">
<polygon fill="white" stroke="black" points="331,-58.5 331,-79.5 435,-79.5 435,-58.5 331,-58.5"/>
<text text-anchor="middle" x="383" y="-66.5" font-family="Helvetica,sans-Serif" font-size="10.00">uiflatviewproptabs.h</text>
</a>
</g>
<!-- Node1&#45;&gt;Node6 -->
<g id="edge10" class="edge"><title>Node1&#45;&gt;Node6</title>
<path fill="none" stroke="midnightblue" d="M661.465,-117.447C606.045,-108.049 519.178,-93.2259 444,-80 441.138,-79.4966 438.202,-78.977 435.238,-78.4502"/>
<polygon fill="midnightblue" stroke="midnightblue" points="660.993,-120.917 671.437,-119.137 662.163,-114.015 660.993,-120.917"/>
</g>
<!-- Node7 -->
<g id="node13" class="node"><title>Node7</title>
<a xlink:href="uidatapointsetcrossplot_8h.html" target="_top" xlink:title="uidatapointsetcrossplot.h">
<polygon fill="white" stroke="black" points="452.5,-58.5 452.5,-79.5 577.5,-79.5 577.5,-58.5 452.5,-58.5"/>
<text text-anchor="middle" x="515" y="-66.5" font-family="Helvetica,sans-Serif" font-size="10.00">uidatapointsetcrossplot.h</text>
</a>
</g>
<!-- Node1&#45;&gt;Node7 -->
<g id="edge12" class="edge"><title>Node1&#45;&gt;Node7</title>
<path fill="none" stroke="midnightblue" d="M671.378,-113.68C635.075,-103.307 585.377,-89.1078 551.831,-79.5231"/>
<polygon fill="midnightblue" stroke="midnightblue" points="670.661,-117.115 681.238,-116.497 672.585,-110.384 670.661,-117.115"/>
</g>
<!-- Node11 -->
<g id="node21" class="node"><title>Node11</title>
<a xlink:href="visgeomindexedshape_8h.html" target="_top" xlink:title="visgeomindexedshape.h">
<polygon fill="white" stroke="black" points="595,-58.5 595,-79.5 717,-79.5 717,-58.5 595,-58.5"/>
<text text-anchor="middle" x="656" y="-66.5" font-family="Helvetica,sans-Serif" font-size="10.00">visgeomindexedshape.h</text>
</a>
</g>
<!-- Node1&#45;&gt;Node11 -->
<g id="edge20" class="edge"><title>Node1&#45;&gt;Node11</title>
<path fill="none" stroke="midnightblue" d="M699.192,-109.405C688.783,-99.6683 676.194,-87.8914 667.3,-79.5707"/>
<polygon fill="midnightblue" stroke="midnightblue" points="696.934,-112.086 706.628,-116.362 701.717,-106.974 696.934,-112.086"/>
</g>
<!-- Node12 -->
<g id="node23" class="node"><title>Node12</title>
<a xlink:href="visscenecoltab_8h.html" target="_top" xlink:title="visscenecoltab.h">
<polygon fill="white" stroke="black" points="735,-58.5 735,-79.5 825,-79.5 825,-58.5 735,-58.5"/>
<text text-anchor="middle" x="780" y="-66.5" font-family="Helvetica,sans-Serif" font-size="10.00">visscenecoltab.h</text>
</a>
</g>
<!-- Node1&#45;&gt;Node12 -->
<g id="edge22" class="edge"><title>Node1&#45;&gt;Node12</title>
<path fill="none" stroke="midnightblue" d="M736.808,-109.405C747.217,-99.6683 759.806,-87.8914 768.7,-79.5707"/>
<polygon fill="midnightblue" stroke="midnightblue" points="734.283,-106.974 729.372,-116.362 739.066,-112.086 734.283,-106.974"/>
</g>
<!-- Node13 -->
<g id="node25" class="node"><title>Node13</title>
<a xlink:href="vistexturechannel2voldata_8h.html" target="_top" xlink:title="vistexturechannel2voldata.h">
<polygon fill="white" stroke="black" points="843,-58.5 843,-79.5 981,-79.5 981,-58.5 843,-58.5"/>
<text text-anchor="middle" x="912" y="-66.5" font-family="Helvetica,sans-Serif" font-size="10.00">vistexturechannel2voldata.h</text>
</a>
</g>
<!-- Node1&#45;&gt;Node13 -->
<g id="edge24" class="edge"><title>Node1&#45;&gt;Node13</title>
<path fill="none" stroke="midnightblue" d="M763,-113.546C797.655,-103.186 844.88,-89.0668 876.802,-79.5231"/>
<polygon fill="midnightblue" stroke="midnightblue" points="761.71,-110.279 753.132,-116.497 763.715,-116.985 761.71,-110.279"/>
</g>
<!-- Node14 -->
<g id="node27" class="node"><title>Node14</title>
<a xlink:href="visvolrenscalarfield_8h.html" target="_top" xlink:title="visvolrenscalarfield.h">
<polygon fill="white" stroke="black" points="999,-58.5 999,-79.5 1107,-79.5 1107,-58.5 999,-58.5"/>
<text text-anchor="middle" x="1053" y="-66.5" font-family="Helvetica,sans-Serif" font-size="10.00">visvolrenscalarfield.h</text>
</a>
</g>
<!-- Node1&#45;&gt;Node14 -->
<g id="edge26" class="edge"><title>Node1&#45;&gt;Node14</title>
<path fill="none" stroke="midnightblue" d="M774.595,-117.251C829.617,-107.765 915.549,-92.9321 990,-80 992.844,-79.506 995.76,-78.9988 998.705,-78.4863"/>
<polygon fill="midnightblue" stroke="midnightblue" points="773.951,-113.81 764.691,-118.958 775.14,-120.708 773.951,-113.81"/>
</g>
<!-- Node15 -->
<g id="node29" class="node"><title>Node15</title>
<a xlink:href="vishorizondisplay_8h.html" target="_top" xlink:title="vishorizondisplay.h">
<polygon fill="white" stroke="black" points="1125,-58.5 1125,-79.5 1225,-79.5 1225,-58.5 1125,-58.5"/>
<text text-anchor="middle" x="1175" y="-66.5" font-family="Helvetica,sans-Serif" font-size="10.00">vishorizondisplay.h</text>
</a>
</g>
<!-- Node1&#45;&gt;Node15 -->
<g id="edge28" class="edge"><title>Node1&#45;&gt;Node15</title>
<path fill="none" stroke="midnightblue" d="M774.718,-121.506C852.066,-113.739 994.872,-98.4227 1116,-80 1118.88,-79.5613 1121.84,-79.087 1124.83,-78.5901"/>
<polygon fill="midnightblue" stroke="midnightblue" points="774.306,-118.03 764.704,-122.506 775.002,-124.995 774.306,-118.03"/>
</g>
<!-- Node16 -->
<g id="node31" class="node"><title>Node16</title>
<a xlink:href="vispseventdisplay_8h.html" target="_top" xlink:title="vispseventdisplay.h">
<polygon fill="white" stroke="black" points="1242.5,-58.5 1242.5,-79.5 1345.5,-79.5 1345.5,-58.5 1242.5,-58.5"/>
<text text-anchor="middle" x="1294" y="-66.5" font-family="Helvetica,sans-Serif" font-size="10.00">vispseventdisplay.h</text>
</a>
</g>
<!-- Node1&#45;&gt;Node16 -->
<g id="edge30" class="edge"><title>Node1&#45;&gt;Node16</title>
<path fill="none" stroke="midnightblue" d="M774.759,-123.516C869.985,-117.295 1067.83,-102.753 1234,-80 1236.73,-79.6265 1239.52,-79.2153 1242.34,-78.7781"/>
<polygon fill="midnightblue" stroke="midnightblue" points="774.518,-120.025 764.765,-124.163 774.97,-127.01 774.518,-120.025"/>
</g>
<!-- Node3 -->
<g id="node5" class="node"><title>Node3</title>
<a xlink:href="vispointsetdisplay_8h.html" target="_top" xlink:title="vispointsetdisplay.h">
<polygon fill="white" stroke="black" points="-0.5,-0.5 -0.5,-21.5 102.5,-21.5 102.5,-0.5 -0.5,-0.5"/>
<text text-anchor="middle" x="51" y="-8.5" font-family="Helvetica,sans-Serif" font-size="10.00">vispointsetdisplay.h</text>
</a>
</g>
<!-- Node2&#45;&gt;Node3 -->
<g id="edge4" class="edge"><title>Node2&#45;&gt;Node3</title>
<path fill="none" stroke="midnightblue" d="M134.375,-53.794C114.659,-43.6746 89.252,-30.6338 71.6931,-21.6212"/>
<polygon fill="midnightblue" stroke="midnightblue" points="133.042,-57.044 143.537,-58.4966 136.238,-50.8164 133.042,-57.044"/>
</g>
<!-- Node4 -->
<g id="node7" class="node"><title>Node4</title>
<a xlink:href="uivisdatapointsetdisplaymgr_8h.html" target="_top" xlink:title="uivisdatapointsetdisplaymgr.h">
<polygon fill="white" stroke="black" points="120,-0.5 120,-21.5 266,-21.5 266,-0.5 120,-0.5"/>
<text text-anchor="middle" x="193" y="-8.5" font-family="Helvetica,sans-Serif" font-size="10.00">uivisdatapointsetdisplaymgr.h</text>
</a>
</g>
<!-- Node2&#45;&gt;Node4 -->
<g id="edge6" class="edge"><title>Node2&#45;&gt;Node4</title>
<path fill="none" stroke="midnightblue" d="M173.813,-49.3733C178.466,-40.0682 183.84,-29.3204 187.715,-21.5707"/>
<polygon fill="midnightblue" stroke="midnightblue" points="170.661,-47.8524 169.319,-58.3619 176.922,-50.9829 170.661,-47.8524"/>
</g>
<!-- Node8 -->
<g id="node15" class="node"><title>Node8</title>
<a xlink:href="uidatapointsetcrossplotwin_8h.html" target="_top" xlink:title="uidatapointsetcrossplotwin.h">
<polygon fill="white" stroke="black" points="312,-0.5 312,-21.5 452,-21.5 452,-0.5 312,-0.5"/>
<text text-anchor="middle" x="382" y="-8.5" font-family="Helvetica,sans-Serif" font-size="10.00">uidatapointsetcrossplotwin.h</text>
</a>
</g>
<!-- Node7&#45;&gt;Node8 -->
<g id="edge14" class="edge"><title>Node7&#45;&gt;Node8</title>
<path fill="none" stroke="midnightblue" d="M481.703,-54.4794C458.29,-44.2695 427.492,-30.8386 406.356,-21.6212"/>
<polygon fill="midnightblue" stroke="midnightblue" points="480.349,-57.7075 490.915,-58.4966 483.147,-51.291 480.349,-57.7075"/>
</g>
<!-- Node9 -->
<g id="node17" class="node"><title>Node9</title>
<a xlink:href="uiimpexpselgrp_8h.html" target="_top" xlink:title="uiimpexpselgrp.h">
<polygon fill="white" stroke="black" points="470,-0.5 470,-21.5 560,-21.5 560,-0.5 470,-0.5"/>
<text text-anchor="middle" x="515" y="-8.5" font-family="Helvetica,sans-Serif" font-size="10.00">uiimpexpselgrp.h</text>
</a>
</g>
<!-- Node7&#45;&gt;Node9 -->
<g id="edge16" class="edge"><title>Node7&#45;&gt;Node9</title>
<path fill="none" stroke="midnightblue" d="M515,-48.1906C515,-39.1684 515,-28.9941 515,-21.5707"/>
<polygon fill="midnightblue" stroke="midnightblue" points="511.5,-48.3619 515,-58.3619 518.5,-48.3619 511.5,-48.3619"/>
</g>
<!-- Node10 -->
<g id="node19" class="node"><title>Node10</title>
<a xlink:href="densitycalc_8h.html" target="_top" xlink:title="densitycalc.h">
<polygon fill="white" stroke="black" points="578,-0.5 578,-21.5 652,-21.5 652,-0.5 578,-0.5"/>
<text text-anchor="middle" x="615" y="-8.5" font-family="Helvetica,sans-Serif" font-size="10.00">densitycalc.h</text>
</a>
</g>
<!-- Node7&#45;&gt;Node10 -->
<g id="edge18" class="edge"><title>Node7&#45;&gt;Node10</title>
<path fill="none" stroke="midnightblue" d="M542.412,-53.1009C559.714,-43.0658 581.585,-30.3808 596.775,-21.5707"/>
<polygon fill="midnightblue" stroke="midnightblue" points="540.236,-50.3171 533.342,-58.3619 543.748,-56.3723 540.236,-50.3171"/>
</g>
</g>
</svg>
