<?xml version="1.0" encoding="UTF-8" standalone="no"?>
<!DOCTYPE svg PUBLIC "-//W3C//DTD SVG 1.1//EN"
 "http://www.w3.org/Graphics/SVG/1.1/DTD/svg11.dtd">
<!-- Generated by graphviz version 2.26.0 (20091210.2329)
 -->
<!-- Title: commandlineparser.h Pages: 1 -->
<svg width="705pt" height="726pt"
 viewBox="0.00 0.00 705.00 726.00" xmlns="http://www.w3.org/2000/svg" xmlns:xlink="http://www.w3.org/1999/xlink">
<g id="graph1" class="graph" transform="scale(1 1) rotate(0) translate(4 722)">
<title>commandlineparser.h</title>
<polygon fill="white" stroke="white" points="-4,5 -4,-722 702,-722 702,5 -4,5"/>
<!-- Node1 -->
<g id="node1" class="node"><title>Node1</title>
<polygon fill="#bfbfbf" stroke="black" points="313,-696.5 313,-717.5 423,-717.5 423,-696.5 313,-696.5"/>
<text text-anchor="middle" x="368" y="-704.5" font-family="Helvetica,sans-Serif" font-size="10.00">commandlineparser.h</text>
</g>
<!-- Node2 -->
<g id="node3" class="node"><title>Node2</title>
<a xlink:href="genc_8h.html" target="_top" xlink:title="genc.h">
<polygon fill="white" stroke="black" points="76,-232.5 76,-253.5 122,-253.5 122,-232.5 76,-232.5"/>
<text text-anchor="middle" x="99" y="-240.5" font-family="Helvetica,sans-Serif" font-size="10.00">genc.h</text>
</a>
</g>
<!-- Node1&#45;&gt;Node2 -->
<g id="edge2" class="edge"><title>Node1&#45;&gt;Node2</title>
<path fill="none" stroke="midnightblue" d="M312.765,-699.232C218.822,-684.456 38,-648.54 38,-591 38,-591 38,-591 38,-359 38,-320.834 64.1875,-282.883 82.2458,-261.249"/>
<polygon fill="midnightblue" stroke="midnightblue" points="85.0262,-263.385 88.9271,-253.535 79.7347,-258.802 85.0262,-263.385"/>
</g>
<!-- Node18 -->
<g id="node43" class="node"><title>Node18</title>
<a xlink:href="bufstringset_8h.html" target="_top" xlink:title="bufstringset.h">
<polygon fill="white" stroke="black" points="294,-638.5 294,-659.5 370,-659.5 370,-638.5 294,-638.5"/>
<text text-anchor="middle" x="332" y="-646.5" font-family="Helvetica,sans-Serif" font-size="10.00">bufstringset.h</text>
</a>
</g>
<!-- Node1&#45;&gt;Node18 -->
<g id="edge50" class="edge"><title>Node1&#45;&gt;Node18</title>
<path fill="none" stroke="midnightblue" d="M361.397,-696.362C356.525,-688.513 349.762,-677.616 343.95,-668.253"/>
<polygon fill="midnightblue" stroke="midnightblue" points="346.809,-666.221 338.561,-659.571 340.861,-669.913 346.809,-666.221"/>
</g>
<!-- Node26 -->
<g id="node66" class="node"><title>Node26</title>
<a xlink:href="debug_8h.html" target="_top" xlink:title="debug.h">
<polygon fill="white" stroke="black" points="380.5,-406.5 380.5,-427.5 431.5,-427.5 431.5,-406.5 380.5,-406.5"/>
<text text-anchor="middle" x="406" y="-414.5" font-family="Helvetica,sans-Serif" font-size="10.00">debug.h</text>
</a>
</g>
<!-- Node1&#45;&gt;Node26 -->
<g id="edge102" class="edge"><title>Node1&#45;&gt;Node26</title>
<path fill="none" stroke="midnightblue" d="M373.625,-696.466C383.75,-676.493 404,-631.486 404,-591 404,-591 404,-591 404,-533 404,-499.593 404.84,-460.782 405.431,-437.592"/>
<polygon fill="midnightblue" stroke="midnightblue" points="408.93,-437.644 405.696,-427.555 401.933,-437.459 408.93,-437.644"/>
</g>
<!-- Node29 -->
<g id="node77" class="node"><title>Node29</title>
<a xlink:href="typeset_8h.html" target="_top" xlink:title="typeset.h">
<polygon fill="white" stroke="black" points="548.5,-522.5 548.5,-543.5 605.5,-543.5 605.5,-522.5 548.5,-522.5"/>
<text text-anchor="middle" x="577" y="-530.5" font-family="Helvetica,sans-Serif" font-size="10.00">typeset.h</text>
</a>
</g>
<!-- Node1&#45;&gt;Node29 -->
<g id="edge96" class="edge"><title>Node1&#45;&gt;Node29</title>
<path fill="none" stroke="midnightblue" d="M393.949,-696.433C430.398,-680.522 497.092,-647.374 540,-602 553.355,-587.877 563.335,-568.002 569.543,-553.208"/>
<polygon fill="midnightblue" stroke="midnightblue" points="572.798,-554.497 573.234,-543.911 566.291,-551.914 572.798,-554.497"/>
</g>
<!-- Node3 -->
<g id="node5" class="node"><title>Node3</title>
<polygon fill="white" stroke="#bfbfbf" points="258.5,-0.5 258.5,-21.5 325.5,-21.5 325.5,-0.5 258.5,-0.5"/>
<text text-anchor="middle" x="292" y="-8.5" font-family="Helvetica,sans-Serif" font-size="10.00">basicmod.h</text>
</g>
<!-- Node2&#45;&gt;Node3 -->
<g id="edge4" class="edge"><title>Node2&#45;&gt;Node3</title>
<path fill="none" stroke="midnightblue" d="M91.1717,-232.408C69.504,-201.711 13.1506,-111.488 57,-58 80.6888,-29.1043 186.814,-17.6197 248.041,-13.3386"/>
<polygon fill="midnightblue" stroke="midnightblue" points="248.445,-16.8196 258.191,-12.6659 247.982,-9.83489 248.445,-16.8196"/>
</g>
<!-- Node4 -->
<g id="node7" class="node"><title>Node4</title>
<a xlink:href="gendefs_8h.html" target="_top" xlink:title="gendefs.h">
<polygon fill="white" stroke="black" points="438.5,-174.5 438.5,-195.5 497.5,-195.5 497.5,-174.5 438.5,-174.5"/>
<text text-anchor="middle" x="468" y="-182.5" font-family="Helvetica,sans-Serif" font-size="10.00">gendefs.h</text>
</a>
</g>
<!-- Node2&#45;&gt;Node4 -->
<g id="edge6" class="edge"><title>Node2&#45;&gt;Node4</title>
<path fill="none" stroke="midnightblue" d="M122.083,-239.372C183.414,-229.732 351.006,-203.389 428.159,-191.262"/>
<polygon fill="midnightblue" stroke="midnightblue" points="429.089,-194.659 438.425,-189.649 428.002,-187.744 429.089,-194.659"/>
</g>
<!-- Node15 -->
<g id="node34" class="node"><title>Node15</title>
<a xlink:href="string2_8h.html" target="_top" xlink:title="string2.h">
<polygon fill="white" stroke="black" points="172,-116.5 172,-137.5 226,-137.5 226,-116.5 172,-116.5"/>
<text text-anchor="middle" x="199" y="-124.5" font-family="Helvetica,sans-Serif" font-size="10.00">string2.h</text>
</a>
</g>
<!-- Node2&#45;&gt;Node15 -->
<g id="edge38" class="edge"><title>Node2&#45;&gt;Node15</title>
<path fill="none" stroke="midnightblue" d="M108.229,-232.295C125.27,-212.527 161.862,-170.08 183.014,-145.544"/>
<polygon fill="midnightblue" stroke="midnightblue" points="185.915,-147.539 189.794,-137.679 180.613,-142.968 185.915,-147.539"/>
</g>
<!-- Node5 -->
<g id="node9" class="node"><title>Node5</title>
<a xlink:href="undefval_8h.html" target="_top" xlink:title="undefval.h">
<polygon fill="white" stroke="black" points="420,-116.5 420,-137.5 482,-137.5 482,-116.5 420,-116.5"/>
<text text-anchor="middle" x="451" y="-124.5" font-family="Helvetica,sans-Serif" font-size="10.00">undefval.h</text>
</a>
</g>
<!-- Node4&#45;&gt;Node5 -->
<g id="edge8" class="edge"><title>Node4&#45;&gt;Node5</title>
<path fill="none" stroke="midnightblue" d="M464.882,-174.362C462.677,-166.84 459.652,-156.519 456.988,-147.431"/>
<polygon fill="midnightblue" stroke="midnightblue" points="460.27,-146.182 454.098,-137.571 453.552,-148.151 460.27,-146.182"/>
</g>
<!-- Node12 -->
<g id="node26" class="node"><title>Node12</title>
<a xlink:href="commontypes_8h.html" target="_top" xlink:title="commontypes.h">
<polygon fill="white" stroke="black" points="500,-116.5 500,-137.5 586,-137.5 586,-116.5 500,-116.5"/>
<text text-anchor="middle" x="543" y="-124.5" font-family="Helvetica,sans-Serif" font-size="10.00">commontypes.h</text>
</a>
</g>
<!-- Node4&#45;&gt;Node12 -->
<g id="edge28" class="edge"><title>Node4&#45;&gt;Node12</title>
<path fill="none" stroke="midnightblue" d="M481.756,-174.362C492.751,-165.859 508.373,-153.779 521.086,-143.947"/>
<polygon fill="midnightblue" stroke="midnightblue" points="523.562,-146.457 529.331,-137.571 519.279,-140.919 523.562,-146.457"/>
</g>
<!-- Node13 -->
<g id="node29" class="node"><title>Node13</title>
<a xlink:href="errmsg_8h.html" target="_top" xlink:title="errmsg.h">
<polygon fill="white" stroke="black" points="603.5,-116.5 603.5,-137.5 658.5,-137.5 658.5,-116.5 603.5,-116.5"/>
<text text-anchor="middle" x="631" y="-124.5" font-family="Helvetica,sans-Serif" font-size="10.00">errmsg.h</text>
</a>
</g>
<!-- Node4&#45;&gt;Node13 -->
<g id="edge32" class="edge"><title>Node4&#45;&gt;Node13</title>
<path fill="none" stroke="midnightblue" d="M497.518,-174.497C524.553,-164.877 564.686,-150.596 593.884,-140.207"/>
<polygon fill="midnightblue" stroke="midnightblue" points="595.084,-143.495 603.332,-136.845 592.737,-136.9 595.084,-143.495"/>
</g>
<!-- Node5&#45;&gt;Node3 -->
<g id="edge10" class="edge"><title>Node5&#45;&gt;Node3</title>
<path fill="none" stroke="midnightblue" d="M442.038,-116.166C429.634,-101.642 406.034,-75.6463 382,-58 364.856,-45.4126 343.881,-34.25 326.493,-25.9653"/>
<polygon fill="midnightblue" stroke="midnightblue" points="327.793,-22.71 317.25,-21.668 324.842,-29.0576 327.793,-22.71"/>
</g>
<!-- Node6 -->
<g id="node12" class="node"><title>Node6</title>
<a xlink:href="commondefs_8h.html" target="_top" xlink:title="commondefs.h">
<polygon fill="white" stroke="black" points="509.5,-58.5 509.5,-79.5 590.5,-79.5 590.5,-58.5 509.5,-58.5"/>
<text text-anchor="middle" x="550" y="-66.5" font-family="Helvetica,sans-Serif" font-size="10.00">commondefs.h</text>
</a>
</g>
<!-- Node5&#45;&gt;Node6 -->
<g id="edge12" class="edge"><title>Node5&#45;&gt;Node6</title>
<path fill="none" stroke="midnightblue" d="M469.158,-116.362C484.23,-107.532 505.887,-94.844 522.993,-84.8224"/>
<polygon fill="midnightblue" stroke="midnightblue" points="525.098,-87.6456 531.957,-79.5707 521.559,-81.6058 525.098,-87.6456"/>
</g>
<!-- Node10 -->
<g id="node21" class="node"><title>Node10</title>
<a xlink:href="plftypes_8h.html" target="_top" xlink:title="plftypes.h">
<polygon fill="white" stroke="black" points="433.5,-58.5 433.5,-79.5 492.5,-79.5 492.5,-58.5 433.5,-58.5"/>
<text text-anchor="middle" x="463" y="-66.5" font-family="Helvetica,sans-Serif" font-size="10.00">plftypes.h</text>
</a>
</g>
<!-- Node5&#45;&gt;Node10 -->
<g id="edge22" class="edge"><title>Node5&#45;&gt;Node10</title>
<path fill="none" stroke="midnightblue" d="M453.201,-116.362C454.757,-108.84 456.893,-98.5187 458.773,-89.4308"/>
<polygon fill="midnightblue" stroke="midnightblue" points="462.214,-90.0724 460.813,-79.5707 455.359,-88.6541 462.214,-90.0724"/>
</g>
<!-- Node6&#45;&gt;Node3 -->
<g id="edge14" class="edge"><title>Node6&#45;&gt;Node3</title>
<path fill="none" stroke="midnightblue" d="M509.404,-59.8737C462.107,-49.2411 384.262,-31.741 335.682,-20.82"/>
<polygon fill="midnightblue" stroke="midnightblue" points="336.305,-17.3729 325.781,-18.5942 334.77,-24.2024 336.305,-17.3729"/>
</g>
<!-- Node7 -->
<g id="node15" class="node"><title>Node7</title>
<a xlink:href="plfdefs_8h.html" target="_top" xlink:title="plfdefs.h">
<polygon fill="white" stroke="black" points="479,-0.5 479,-21.5 533,-21.5 533,-0.5 479,-0.5"/>
<text text-anchor="middle" x="506" y="-8.5" font-family="Helvetica,sans-Serif" font-size="10.00">plfdefs.h</text>
</a>
</g>
<!-- Node6&#45;&gt;Node7 -->
<g id="edge16" class="edge"><title>Node6&#45;&gt;Node7</title>
<path fill="none" stroke="midnightblue" d="M541.93,-58.3619C535.851,-50.3496 527.363,-39.1605 520.163,-29.6696"/>
<polygon fill="midnightblue" stroke="midnightblue" points="522.851,-27.4222 514.019,-21.5707 517.275,-31.653 522.851,-27.4222"/>
</g>
<!-- Node8 -->
<g id="node17" class="node"><title>Node8</title>
<polygon fill="white" stroke="#bfbfbf" points="638.5,-0.5 638.5,-21.5 697.5,-21.5 697.5,-0.5 638.5,-0.5"/>
<text text-anchor="middle" x="668" y="-8.5" font-family="Helvetica,sans-Serif" font-size="10.00">stdexcept</text>
</g>
<!-- Node6&#45;&gt;Node8 -->
<g id="edge18" class="edge"><title>Node6&#45;&gt;Node8</title>
<path fill="none" stroke="midnightblue" d="M571.369,-58.4966C589.799,-49.4378 616.637,-36.2462 637.355,-26.0628"/>
<polygon fill="midnightblue" stroke="midnightblue" points="638.961,-29.1735 646.391,-21.6212 635.873,-22.8914 638.961,-29.1735"/>
</g>
<!-- Node9 -->
<g id="node19" class="node"><title>Node9</title>
<polygon fill="white" stroke="#bfbfbf" points="550.5,-0.5 550.5,-21.5 585.5,-21.5 585.5,-0.5 550.5,-0.5"/>
<text text-anchor="middle" x="568" y="-8.5" font-family="Helvetica,sans-Serif" font-size="10.00">new</text>
</g>
<!-- Node6&#45;&gt;Node9 -->
<g id="edge20" class="edge"><title>Node6&#45;&gt;Node9</title>
<path fill="none" stroke="midnightblue" d="M553.301,-58.3619C555.661,-50.7584 558.909,-40.294 561.751,-31.1349"/>
<polygon fill="midnightblue" stroke="midnightblue" points="565.098,-32.1587 564.719,-21.5707 558.413,-30.0839 565.098,-32.1587"/>
</g>
<!-- Node10&#45;&gt;Node7 -->
<g id="edge24" class="edge"><title>Node10&#45;&gt;Node7</title>
<path fill="none" stroke="midnightblue" d="M470.887,-58.3619C476.827,-50.3496 485.122,-39.1605 492.159,-29.6696"/>
<polygon fill="midnightblue" stroke="midnightblue" points="495.019,-31.6883 498.163,-21.5707 489.396,-27.5193 495.019,-31.6883"/>
</g>
<!-- Node11 -->
<g id="node24" class="node"><title>Node11</title>
<polygon fill="white" stroke="#bfbfbf" points="412.5,-0.5 412.5,-21.5 461.5,-21.5 461.5,-0.5 412.5,-0.5"/>
<text text-anchor="middle" x="437" y="-8.5" font-family="Helvetica,sans-Serif" font-size="10.00">stdint.h</text>
</g>
<!-- Node10&#45;&gt;Node11 -->
<g id="edge26" class="edge"><title>Node10&#45;&gt;Node11</title>
<path fill="none" stroke="midnightblue" d="M458.231,-58.3619C454.786,-50.6766 450.031,-40.0686 445.894,-30.8399"/>
<polygon fill="midnightblue" stroke="midnightblue" points="449.023,-29.264 441.739,-21.5707 442.635,-32.1275 449.023,-29.264"/>
</g>
<!-- Node12&#45;&gt;Node6 -->
<g id="edge30" class="edge"><title>Node12&#45;&gt;Node6</title>
<path fill="none" stroke="midnightblue" d="M544.284,-116.362C545.182,-108.922 546.41,-98.7427 547.498,-89.7276"/>
<polygon fill="midnightblue" stroke="midnightblue" points="551.001,-89.918 548.724,-79.5707 544.051,-89.0792 551.001,-89.918"/>
</g>
<!-- Node13&#45;&gt;Node6 -->
<g id="edge34" class="edge"><title>Node13&#45;&gt;Node6</title>
<path fill="none" stroke="midnightblue" d="M616.143,-116.362C604.154,-107.777 587.073,-95.5459 573.272,-85.6636"/>
<polygon fill="midnightblue" stroke="midnightblue" points="574.931,-82.5469 564.762,-79.5707 570.855,-88.2383 574.931,-82.5469"/>
</g>
<!-- Node14 -->
<g id="node32" class="node"><title>Node14</title>
<polygon fill="white" stroke="#bfbfbf" points="607.5,-58.5 607.5,-79.5 658.5,-79.5 658.5,-58.5 607.5,-58.5"/>
<text text-anchor="middle" x="633" y="-66.5" font-family="Helvetica,sans-Serif" font-size="10.00">typeinfo</text>
</g>
<!-- Node13&#45;&gt;Node14 -->
<g id="edge36" class="edge"><title>Node13&#45;&gt;Node14</title>
<path fill="none" stroke="midnightblue" d="M631.367,-116.362C631.623,-108.922 631.974,-98.7427 632.285,-89.7276"/>
<polygon fill="midnightblue" stroke="midnightblue" points="635.789,-89.6854 632.635,-79.5707 628.793,-89.4441 635.789,-89.6854"/>
</g>
<!-- Node15&#45;&gt;Node3 -->
<g id="edge40" class="edge"><title>Node15&#45;&gt;Node3</title>
<path fill="none" stroke="midnightblue" d="M204.198,-116.072C211.22,-101.895 224.641,-76.761 240,-58 248.913,-47.1126 260.382,-36.4722 270.281,-28.0766"/>
<polygon fill="midnightblue" stroke="midnightblue" points="272.649,-30.66 278.136,-21.5962 268.194,-25.2605 272.649,-30.66"/>
</g>
<!-- Node15&#45;&gt;Node6 -->
<g id="edge44" class="edge"><title>Node15&#45;&gt;Node6</title>
<path fill="none" stroke="midnightblue" d="M226.175,-123.388C277.601,-116.42 392.868,-100.173 499.447,-80.2123"/>
<polygon fill="midnightblue" stroke="midnightblue" points="500.225,-83.6274 509.401,-78.3321 498.925,-76.749 500.225,-83.6274"/>
</g>
<!-- Node15&#45;&gt;Node10 -->
<g id="edge42" class="edge"><title>Node15&#45;&gt;Node10</title>
<path fill="none" stroke="midnightblue" d="M226.258,-121.011C273.165,-110.706 369.321,-89.5809 423.545,-77.6681"/>
<polygon fill="midnightblue" stroke="midnightblue" points="424.466,-81.0493 433.482,-75.4849 422.964,-74.2123 424.466,-81.0493"/>
</g>
<!-- Node16 -->
<g id="node39" class="node"><title>Node16</title>
<polygon fill="white" stroke="#bfbfbf" points="139.5,-58.5 139.5,-79.5 188.5,-79.5 188.5,-58.5 139.5,-58.5"/>
<text text-anchor="middle" x="164" y="-66.5" font-family="Helvetica,sans-Serif" font-size="10.00">ctype.h</text>
</g>
<!-- Node15&#45;&gt;Node16 -->
<g id="edge46" class="edge"><title>Node15&#45;&gt;Node16</title>
<path fill="none" stroke="midnightblue" d="M192.58,-116.362C187.844,-108.513 181.268,-97.6159 175.618,-88.2527"/>
<polygon fill="midnightblue" stroke="midnightblue" points="178.542,-86.3242 170.379,-79.5707 172.549,-89.9409 178.542,-86.3242"/>
</g>
<!-- Node17 -->
<g id="node41" class="node"><title>Node17</title>
<polygon fill="white" stroke="#bfbfbf" points="66,-58.5 66,-79.5 122,-79.5 122,-58.5 66,-58.5"/>
<text text-anchor="middle" x="94" y="-66.5" font-family="Helvetica,sans-Serif" font-size="10.00">wctype.h</text>
</g>
<!-- Node15&#45;&gt;Node17 -->
<g id="edge48" class="edge"><title>Node15&#45;&gt;Node17</title>
<path fill="none" stroke="midnightblue" d="M179.741,-116.362C163.534,-107.409 140.147,-94.4908 121.891,-84.4064"/>
<polygon fill="midnightblue" stroke="midnightblue" points="123.582,-81.3422 113.137,-79.5707 120.198,-87.4696 123.582,-81.3422"/>
</g>
<!-- Node18&#45;&gt;Node3 -->
<g id="edge52" class="edge"><title>Node18&#45;&gt;Node3</title>
<path fill="none" stroke="midnightblue" d="M293.951,-640.144C222.637,-622.433 76,-580.269 76,-533 76,-533 76,-533 76,-417 76,-332.612 0,-327.388 0,-243 0,-243 0,-243 0,-127 0,-91.0989 12.4696,-78.4168 42,-58 74.7761,-35.3391 185.565,-21.272 248.099,-14.943"/>
<polygon fill="midnightblue" stroke="midnightblue" points="248.465,-18.424 258.072,-13.9578 247.776,-11.4579 248.465,-18.424"/>
</g>
<!-- Node19 -->
<g id="node46" class="node"><title>Node19</title>
<a xlink:href="bufstring_8h.html" target="_top" xlink:title="bufstring.h">
<polygon fill="white" stroke="black" points="287,-348.5 287,-369.5 349,-369.5 349,-348.5 287,-348.5"/>
<text text-anchor="middle" x="318" y="-356.5" font-family="Helvetica,sans-Serif" font-size="10.00">bufstring.h</text>
</a>
</g>
<!-- Node18&#45;&gt;Node19 -->
<g id="edge54" class="edge"><title>Node18&#45;&gt;Node19</title>
<path fill="none" stroke="midnightblue" d="M331.544,-638.446C330.705,-618.068 329,-571.881 329,-533 329,-533 329,-533 329,-475 329,-441.448 324.383,-402.68 321.131,-379.538"/>
<polygon fill="midnightblue" stroke="midnightblue" points="324.577,-378.915 319.671,-369.524 317.65,-379.925 324.577,-378.915"/>
</g>
<!-- Node22 -->
<g id="node57" class="node"><title>Node22</title>
<a xlink:href="manobjectset_8h.html" target="_top" xlink:title="manobjectset.h">
<polygon fill="white" stroke="black" points="448.5,-580.5 448.5,-601.5 531.5,-601.5 531.5,-580.5 448.5,-580.5"/>
<text text-anchor="middle" x="490" y="-588.5" font-family="Helvetica,sans-Serif" font-size="10.00">manobjectset.h</text>
</a>
</g>
<!-- Node18&#45;&gt;Node22 -->
<g id="edge70" class="edge"><title>Node18&#45;&gt;Node22</title>
<path fill="none" stroke="midnightblue" d="M360.613,-638.497C386.148,-629.123 423.737,-615.324 451.829,-605.012"/>
<polygon fill="midnightblue" stroke="midnightblue" points="453.152,-608.255 461.334,-601.523 450.74,-601.684 453.152,-608.255"/>
</g>
<!-- Node19&#45;&gt;Node3 -->
<g id="edge56" class="edge"><title>Node19&#45;&gt;Node3</title>
<path fill="none" stroke="midnightblue" d="M305.08,-348.281C295.246,-339.476 282.07,-326.184 274,-312 258.21,-284.248 254,-274.929 254,-243 254,-243 254,-243 254,-127 254,-91.7411 270.051,-53.3154 281.289,-30.7323"/>
<polygon fill="midnightblue" stroke="midnightblue" points="284.418,-32.3005 285.895,-21.809 278.198,-29.0901 284.418,-32.3005"/>
</g>
<!-- Node19&#45;&gt;Node15 -->
<g id="edge68" class="edge"><title>Node19&#45;&gt;Node15</title>
<path fill="none" stroke="midnightblue" d="M289.018,-348.354C272.231,-340.73 252.089,-328.817 240,-312 203.629,-261.407 198.634,-184.408 198.496,-147.772"/>
<polygon fill="midnightblue" stroke="midnightblue" points="201.996,-147.801 198.58,-137.772 194.996,-147.743 201.996,-147.801"/>
</g>
<!-- Node20 -->
<g id="node49" class="node"><title>Node20</title>
<a xlink:href="fixedstring_8h.html" target="_top" xlink:title="fixedstring.h">
<polygon fill="white" stroke="black" points="283,-290.5 283,-311.5 353,-311.5 353,-290.5 283,-290.5"/>
<text text-anchor="middle" x="318" y="-298.5" font-family="Helvetica,sans-Serif" font-size="10.00">fixedstring.h</text>
</a>
</g>
<!-- Node19&#45;&gt;Node20 -->
<g id="edge58" class="edge"><title>Node19&#45;&gt;Node20</title>
<path fill="none" stroke="midnightblue" d="M318,-348.362C318,-340.922 318,-330.743 318,-321.728"/>
<polygon fill="midnightblue" stroke="midnightblue" points="321.5,-321.571 318,-311.571 314.5,-321.571 321.5,-321.571"/>
</g>
<!-- Node20&#45;&gt;Node3 -->
<g id="edge60" class="edge"><title>Node20&#45;&gt;Node3</title>
<path fill="none" stroke="midnightblue" d="M313.938,-290.305C306.625,-270.063 292,-224.626 292,-185 292,-185 292,-185 292,-127 292,-93.5978 292,-54.7853 292,-31.5939"/>
<polygon fill="midnightblue" stroke="midnightblue" points="295.5,-31.5561 292,-21.5561 288.5,-31.5561 295.5,-31.5561"/>
</g>
<!-- Node21 -->
<g id="node52" class="node"><title>Node21</title>
<a xlink:href="odstring_8h.html" target="_top" xlink:title="odstring.h">
<polygon fill="white" stroke="black" points="319.5,-232.5 319.5,-253.5 378.5,-253.5 378.5,-232.5 319.5,-232.5"/>
<text text-anchor="middle" x="349" y="-240.5" font-family="Helvetica,sans-Serif" font-size="10.00">odstring.h</text>
</a>
</g>
<!-- Node20&#45;&gt;Node21 -->
<g id="edge62" class="edge"><title>Node20&#45;&gt;Node21</title>
<path fill="none" stroke="midnightblue" d="M323.686,-290.362C327.837,-282.595 333.584,-271.843 338.553,-262.546"/>
<polygon fill="midnightblue" stroke="midnightblue" points="341.723,-264.04 343.35,-253.571 335.55,-260.74 341.723,-264.04"/>
</g>
<!-- Node21&#45;&gt;Node3 -->
<g id="edge64" class="edge"><title>Node21&#45;&gt;Node3</title>
<path fill="none" stroke="midnightblue" d="M346.71,-232.1C340.638,-203.441 323.393,-123.662 306,-58 303.696,-49.3017 300.908,-39.7749 298.429,-31.5861"/>
<polygon fill="midnightblue" stroke="midnightblue" points="301.697,-30.305 295.414,-21.7742 295.005,-32.3612 301.697,-30.305"/>
</g>
<!-- Node21&#45;&gt;Node4 -->
<g id="edge66" class="edge"><title>Node21&#45;&gt;Node4</title>
<path fill="none" stroke="midnightblue" d="M370.55,-232.497C389.136,-223.438 416.202,-210.246 437.095,-200.063"/>
<polygon fill="midnightblue" stroke="midnightblue" points="438.753,-203.149 446.208,-195.621 435.686,-196.856 438.753,-203.149"/>
</g>
<!-- Node23 -->
<g id="node59" class="node"><title>Node23</title>
<a xlink:href="objectset_8h.html" target="_top" xlink:title="objectset.h">
<polygon fill="white" stroke="black" points="466.5,-522.5 466.5,-543.5 531.5,-543.5 531.5,-522.5 466.5,-522.5"/>
<text text-anchor="middle" x="499" y="-530.5" font-family="Helvetica,sans-Serif" font-size="10.00">objectset.h</text>
</a>
</g>
<!-- Node22&#45;&gt;Node23 -->
<g id="edge72" class="edge"><title>Node22&#45;&gt;Node23</title>
<path fill="none" stroke="midnightblue" d="M491.651,-580.362C492.805,-572.922 494.385,-562.743 495.784,-553.728"/>
<polygon fill="midnightblue" stroke="midnightblue" points="499.285,-553.989 497.36,-543.571 492.368,-552.916 499.285,-553.989"/>
</g>
<!-- Node24 -->
<g id="node61" class="node"><title>Node24</title>
<a xlink:href="odset_8h.html" target="_top" xlink:title="odset.h">
<polygon fill="white" stroke="black" points="565.5,-464.5 565.5,-485.5 614.5,-485.5 614.5,-464.5 565.5,-464.5"/>
<text text-anchor="middle" x="590" y="-472.5" font-family="Helvetica,sans-Serif" font-size="10.00">odset.h</text>
</a>
</g>
<!-- Node23&#45;&gt;Node24 -->
<g id="edge74" class="edge"><title>Node23&#45;&gt;Node24</title>
<path fill="none" stroke="midnightblue" d="M515.691,-522.362C529.416,-513.614 549.084,-501.079 564.737,-491.101"/>
<polygon fill="midnightblue" stroke="midnightblue" points="566.863,-493.897 573.415,-485.571 563.101,-487.994 566.863,-493.897"/>
</g>
<!-- Node25 -->
<g id="node64" class="node"><title>Node25</title>
<a xlink:href="vectoraccess_8h.html" target="_top" xlink:title="vectoraccess.h">
<polygon fill="white" stroke="black" points="465.5,-464.5 465.5,-485.5 548.5,-485.5 548.5,-464.5 465.5,-464.5"/>
<text text-anchor="middle" x="507" y="-472.5" font-family="Helvetica,sans-Serif" font-size="10.00">vectoraccess.h</text>
</a>
</g>
<!-- Node23&#45;&gt;Node25 -->
<g id="edge78" class="edge"><title>Node23&#45;&gt;Node25</title>
<path fill="none" stroke="midnightblue" d="M500.467,-522.362C501.494,-514.922 502.898,-504.743 504.141,-495.728"/>
<polygon fill="midnightblue" stroke="midnightblue" points="507.643,-495.955 505.542,-485.571 500.708,-494.999 507.643,-495.955"/>
</g>
<!-- Node24&#45;&gt;Node4 -->
<g id="edge76" class="edge"><title>Node24&#45;&gt;Node4</title>
<path fill="none" stroke="midnightblue" d="M614.762,-467.871C633.606,-460.998 658.238,-448.552 670,-428 674.857,-419.514 673.538,-415.115 670,-406 633.674,-312.415 537.196,-234.257 491.996,-201.509"/>
<polygon fill="midnightblue" stroke="midnightblue" points="493.847,-198.531 483.673,-195.574 489.783,-204.23 493.847,-198.531"/>
</g>
<!-- Node25&#45;&gt;Node4 -->
<g id="edge88" class="edge"><title>Node25&#45;&gt;Node4</title>
<path fill="none" stroke="midnightblue" d="M503.094,-464.291C496.062,-444.027 482,-398.554 482,-359 482,-359 482,-359 482,-301 482,-267.355 476.123,-228.615 471.985,-205.504"/>
<polygon fill="midnightblue" stroke="midnightblue" points="475.395,-204.697 470.126,-195.505 468.513,-205.976 475.395,-204.697"/>
</g>
<!-- Node25&#45;&gt;Node8 -->
<g id="edge94" class="edge"><title>Node25&#45;&gt;Node8</title>
<path fill="none" stroke="midnightblue" d="M548.698,-464.692C582.066,-455.61 625.17,-441.724 637,-428 708.934,-344.551 686,-295.174 686,-185 686,-185 686,-185 686,-127 686,-93.3732 678.522,-54.9046 673.206,-31.8049"/>
<polygon fill="midnightblue" stroke="midnightblue" points="676.541,-30.7008 670.812,-21.7882 669.733,-32.3279 676.541,-30.7008"/>
</g>
<!-- Node25&#45;&gt;Node26 -->
<g id="edge80" class="edge"><title>Node25&#45;&gt;Node26</title>
<path fill="none" stroke="midnightblue" d="M488.475,-464.362C473.099,-455.532 451.004,-442.844 433.553,-432.822"/>
<polygon fill="midnightblue" stroke="midnightblue" points="434.822,-429.515 424.408,-427.571 431.336,-435.586 434.822,-429.515"/>
</g>
<!-- Node27 -->
<g id="node72" class="node"><title>Node27</title>
<polygon fill="white" stroke="#bfbfbf" points="572,-406.5 572,-427.5 628,-427.5 628,-406.5 572,-406.5"/>
<text text-anchor="middle" x="600" y="-414.5" font-family="Helvetica,sans-Serif" font-size="10.00">algorithm</text>
</g>
<!-- Node25&#45;&gt;Node27 -->
<g id="edge90" class="edge"><title>Node25&#45;&gt;Node27</title>
<path fill="none" stroke="midnightblue" d="M524.058,-464.362C538.085,-455.614 558.184,-443.079 574.182,-433.101"/>
<polygon fill="midnightblue" stroke="midnightblue" points="576.418,-435.832 583.051,-427.571 572.713,-429.893 576.418,-435.832"/>
</g>
<!-- Node28 -->
<g id="node74" class="node"><title>Node28</title>
<polygon fill="white" stroke="#bfbfbf" points="510,-406.5 510,-427.5 554,-427.5 554,-406.5 510,-406.5"/>
<text text-anchor="middle" x="532" y="-414.5" font-family="Helvetica,sans-Serif" font-size="10.00">vector</text>
</g>
<!-- Node25&#45;&gt;Node28 -->
<g id="edge92" class="edge"><title>Node25&#45;&gt;Node28</title>
<path fill="none" stroke="midnightblue" d="M511.585,-464.362C514.898,-456.677 519.47,-446.069 523.448,-436.84"/>
<polygon fill="midnightblue" stroke="midnightblue" points="526.699,-438.139 527.444,-427.571 520.271,-435.368 526.699,-438.139"/>
</g>
<!-- Node26&#45;&gt;Node3 -->
<g id="edge82" class="edge"><title>Node26&#45;&gt;Node3</title>
<path fill="none" stroke="midnightblue" d="M405.852,-406.414C405.254,-377.869 402.232,-297.075 387,-232 368.186,-151.619 358.857,-131.869 322,-58 317.239,-48.4583 311.021,-38.4258 305.481,-30.0916"/>
<polygon fill="midnightblue" stroke="midnightblue" points="308.363,-28.1065 299.836,-21.8183 302.581,-32.0515 308.363,-28.1065"/>
</g>
<!-- Node26&#45;&gt;Node4 -->
<g id="edge84" class="edge"><title>Node26&#45;&gt;Node4</title>
<path fill="none" stroke="midnightblue" d="M409.335,-406.204C412.243,-396.698 416.527,-382.467 420,-370 436.552,-310.584 454.374,-239.915 462.895,-205.661"/>
<polygon fill="midnightblue" stroke="midnightblue" points="466.311,-206.428 465.321,-195.879 459.517,-204.742 466.311,-206.428"/>
</g>
<!-- Node26&#45;&gt;Node19 -->
<g id="edge86" class="edge"><title>Node26&#45;&gt;Node19</title>
<path fill="none" stroke="midnightblue" d="M389.859,-406.362C376.586,-397.614 357.568,-385.079 342.43,-375.101"/>
<polygon fill="midnightblue" stroke="midnightblue" points="344.314,-372.151 334.038,-369.571 340.462,-377.996 344.314,-372.151"/>
</g>
<!-- Node29&#45;&gt;Node24 -->
<g id="edge98" class="edge"><title>Node29&#45;&gt;Node24</title>
<path fill="none" stroke="midnightblue" d="M579.384,-522.362C581.07,-514.84 583.384,-504.519 585.421,-495.431"/>
<polygon fill="midnightblue" stroke="midnightblue" points="588.859,-496.094 587.631,-485.571 582.028,-494.563 588.859,-496.094"/>
</g>
<!-- Node29&#45;&gt;Node25 -->
<g id="edge100" class="edge"><title>Node29&#45;&gt;Node25</title>
<path fill="none" stroke="midnightblue" d="M564.161,-522.362C553.998,-513.941 539.599,-502.011 527.796,-492.231"/>
<polygon fill="midnightblue" stroke="midnightblue" points="529.691,-489.256 519.758,-485.571 525.225,-494.646 529.691,-489.256"/>
</g>
</g>
</svg>
