<?xml version="1.0" encoding="UTF-8" standalone="no"?>
<!DOCTYPE svg PUBLIC "-//W3C//DTD SVG 1.1//EN"
 "http://www.w3.org/Graphics/SVG/1.1/DTD/svg11.dtd">
<!-- Generated by graphviz version 2.26.0 (20091210.2329)
 -->
<!-- Title: compoundkey.h Pages: 1 -->
<svg width="3894pt" height="262pt"
 viewBox="0.00 0.00 3894.00 262.00" xmlns="http://www.w3.org/2000/svg" xmlns:xlink="http://www.w3.org/1999/xlink">
<g id="graph1" class="graph" transform="scale(1 1) rotate(0) translate(4 258)">
<title>compoundkey.h</title>
<polygon fill="white" stroke="white" points="-4,5 -4,-258 3891,-258 3891,5 -4,5"/>
<!-- Node1 -->
<g id="node1" class="node"><title>Node1</title>
<polygon fill="#bfbfbf" stroke="black" points="1592,-232.5 1592,-253.5 1678,-253.5 1678,-232.5 1592,-232.5"/>
<text text-anchor="middle" x="1635" y="-240.5" font-family="Helvetica,sans-Serif" font-size="10.00">compoundkey.h</text>
</g>
<!-- Node2 -->
<g id="node3" class="node"><title>Node2</title>
<a xlink:href="multiid_8h.html" target="_top" xlink:title="multiid.h">
<polygon fill="white" stroke="red" points="1532.5,-174.5 1532.5,-195.5 1585.5,-195.5 1585.5,-174.5 1532.5,-174.5"/>
<text text-anchor="middle" x="1559" y="-182.5" font-family="Helvetica,sans-Serif" font-size="10.00">multiid.h</text>
</a>
</g>
<!-- Node1&#45;&gt;Node2 -->
<g id="edge2" class="edge"><title>Node1&#45;&gt;Node2</title>
<path fill="none" stroke="midnightblue" d="M1613.06,-226.259C1600.1,-216.364 1584.07,-204.136 1572.85,-195.571"/>
<polygon fill="midnightblue" stroke="midnightblue" points="1610.99,-229.077 1621.06,-232.362 1615.23,-223.513 1610.99,-229.077"/>
</g>
<!-- Node49 -->
<g id="node106" class="node"><title>Node49</title>
<a xlink:href="stratlayer_8h.html" target="_top" xlink:title="stratlayer.h">
<polygon fill="white" stroke="red" points="1602.5,-174.5 1602.5,-195.5 1667.5,-195.5 1667.5,-174.5 1602.5,-174.5"/>
<text text-anchor="middle" x="1635" y="-182.5" font-family="Helvetica,sans-Serif" font-size="10.00">stratlayer.h</text>
</a>
</g>
<!-- Node1&#45;&gt;Node49 -->
<g id="edge114" class="edge"><title>Node1&#45;&gt;Node49</title>
<path fill="none" stroke="midnightblue" d="M1635,-222.191C1635,-213.168 1635,-202.994 1635,-195.571"/>
<polygon fill="midnightblue" stroke="midnightblue" points="1631.5,-222.362 1635,-232.362 1638.5,-222.362 1631.5,-222.362"/>
</g>
<!-- Node50 -->
<g id="node108" class="node"><title>Node50</title>
<a xlink:href="stratunitref_8h.html" target="_top" xlink:title="stratunitref.h">
<polygon fill="white" stroke="red" points="1684.5,-174.5 1684.5,-195.5 1755.5,-195.5 1755.5,-174.5 1684.5,-174.5"/>
<text text-anchor="middle" x="1720" y="-182.5" font-family="Helvetica,sans-Serif" font-size="10.00">stratunitref.h</text>
</a>
</g>
<!-- Node1&#45;&gt;Node50 -->
<g id="edge116" class="edge"><title>Node1&#45;&gt;Node50</title>
<path fill="none" stroke="midnightblue" d="M1659.12,-226.541C1673.69,-216.597 1691.84,-204.218 1704.51,-195.571"/>
<polygon fill="midnightblue" stroke="midnightblue" points="1656.88,-223.834 1650.59,-232.362 1660.82,-229.617 1656.88,-223.834"/>
</g>
<!-- Node3 -->
<g id="node5" class="node"><title>Node3</title>
<a xlink:href="datapack_8h.html" target="_top" xlink:title="datapack.h">
<polygon fill="white" stroke="red" points="-0.5,-116.5 -0.5,-137.5 64.5,-137.5 64.5,-116.5 -0.5,-116.5"/>
<text text-anchor="middle" x="32" y="-124.5" font-family="Helvetica,sans-Serif" font-size="10.00">datapack.h</text>
</a>
</g>
<!-- Node2&#45;&gt;Node3 -->
<g id="edge4" class="edge"><title>Node2&#45;&gt;Node3</title>
<path fill="none" stroke="midnightblue" d="M1522.25,-184.845C1322.91,-183.849 369.671,-177.089 78,-138 73.6052,-137.411 69.0177,-136.581 64.5144,-135.638"/>
<polygon fill="midnightblue" stroke="midnightblue" points="1522.46,-188.346 1532.48,-184.894 1522.49,-181.346 1522.46,-188.346"/>
</g>
<!-- Node4 -->
<g id="node7" class="node"><title>Node4</title>
<a xlink:href="veldesc_8h.html" target="_top" xlink:title="veldesc.h">
<polygon fill="white" stroke="red" points="127.5,-58.5 127.5,-79.5 186.5,-79.5 186.5,-58.5 127.5,-58.5"/>
<text text-anchor="middle" x="157" y="-66.5" font-family="Helvetica,sans-Serif" font-size="10.00">veldesc.h</text>
</a>
</g>
<!-- Node2&#45;&gt;Node4 -->
<g id="edge6" class="edge"><title>Node2&#45;&gt;Node4</title>
<path fill="none" stroke="midnightblue" d="M1521.97,-184.503C1298.31,-181.415 136.294,-164.129 111,-138 93.3756,-119.794 121.727,-94.0082 141.168,-79.6697"/>
<polygon fill="midnightblue" stroke="midnightblue" points="1522.15,-188.006 1532.2,-184.643 1522.25,-181.006 1522.15,-188.006"/>
</g>
<!-- Node5 -->
<g id="node9" class="node"><title>Node5</title>
<a xlink:href="velocityfunction_8h.html" target="_top" xlink:title="velocityfunction.h">
<polygon fill="white" stroke="red" points="142.5,-0.5 142.5,-21.5 235.5,-21.5 235.5,-0.5 142.5,-0.5"/>
<text text-anchor="middle" x="189" y="-8.5" font-family="Helvetica,sans-Serif" font-size="10.00">velocityfunction.h</text>
</a>
</g>
<!-- Node2&#45;&gt;Node5 -->
<g id="edge100" class="edge"><title>Node2&#45;&gt;Node5</title>
<path fill="none" stroke="midnightblue" d="M1522.32,-184.807C1314.76,-183.577 294.968,-175.631 241,-138 201.327,-110.336 191.875,-46.688 189.662,-21.5193"/>
<polygon fill="midnightblue" stroke="midnightblue" points="1522.38,-188.308 1532.4,-184.865 1522.42,-181.308 1522.38,-188.308"/>
</g>
<!-- Node6 -->
<g id="node11" class="node"><title>Node6</title>
<a xlink:href="staticsdesc_8h.html" target="_top" xlink:title="staticsdesc.h">
<polygon fill="white" stroke="black" points="119.5,-116.5 119.5,-137.5 194.5,-137.5 194.5,-116.5 119.5,-116.5"/>
<text text-anchor="middle" x="157" y="-124.5" font-family="Helvetica,sans-Serif" font-size="10.00">staticsdesc.h</text>
</a>
</g>
<!-- Node2&#45;&gt;Node6 -->
<g id="edge10" class="edge"><title>Node2&#45;&gt;Node6</title>
<path fill="none" stroke="midnightblue" d="M1522.24,-184.605C1333.62,-182.442 472.876,-170.907 208,-138 203.685,-137.464 199.196,-136.742 194.749,-135.923"/>
<polygon fill="midnightblue" stroke="midnightblue" points="1522.42,-188.107 1532.46,-184.72 1522.5,-181.107 1522.42,-188.107"/>
</g>
<!-- Node7 -->
<g id="node14" class="node"><title>Node7</title>
<a xlink:href="conn_8h.html" target="_top" xlink:title="conn.h">
<polygon fill="white" stroke="red" points="250,-116.5 250,-137.5 296,-137.5 296,-116.5 250,-116.5"/>
<text text-anchor="middle" x="273" y="-124.5" font-family="Helvetica,sans-Serif" font-size="10.00">conn.h</text>
</a>
</g>
<!-- Node2&#45;&gt;Node7 -->
<g id="edge14" class="edge"><title>Node2&#45;&gt;Node7</title>
<path fill="none" stroke="midnightblue" d="M1522.41,-184.861C1342.68,-183.992 552.333,-177.927 310,-138 305.504,-137.259 300.785,-136.136 296.28,-134.885"/>
<polygon fill="midnightblue" stroke="midnightblue" points="1522.4,-188.361 1532.41,-184.907 1522.43,-181.361 1522.4,-188.361"/>
</g>
<!-- Node8 -->
<g id="node16" class="node"><title>Node8</title>
<a xlink:href="ctxtioobj_8h.html" target="_top" xlink:title="ctxtioobj.h">
<polygon fill="white" stroke="red" points="318,-58.5 318,-79.5 380,-79.5 380,-58.5 318,-58.5"/>
<text text-anchor="middle" x="349" y="-66.5" font-family="Helvetica,sans-Serif" font-size="10.00">ctxtioobj.h</text>
</a>
</g>
<!-- Node2&#45;&gt;Node8 -->
<g id="edge16" class="edge"><title>Node2&#45;&gt;Node8</title>
<path fill="none" stroke="midnightblue" d="M1522.37,-184.277C1321.7,-180.232 363.978,-159.805 343,-138 327.994,-122.403 337.056,-94.6266 343.76,-79.5091"/>
<polygon fill="midnightblue" stroke="midnightblue" points="1522.33,-187.777 1532.4,-184.478 1522.48,-180.778 1522.33,-187.777"/>
</g>
<!-- Node9 -->
<g id="node18" class="node"><title>Node9</title>
<a xlink:href="ioobj_8h.html" target="_top" xlink:title="ioobj.h">
<polygon fill="white" stroke="red" points="351.5,-116.5 351.5,-137.5 396.5,-137.5 396.5,-116.5 351.5,-116.5"/>
<text text-anchor="middle" x="374" y="-124.5" font-family="Helvetica,sans-Serif" font-size="10.00">ioobj.h</text>
</a>
</g>
<!-- Node2&#45;&gt;Node9 -->
<g id="edge18" class="edge"><title>Node2&#45;&gt;Node9</title>
<path fill="none" stroke="midnightblue" d="M1522.18,-184.157C1337.51,-179.841 516.715,-159.583 405,-138 402.309,-137.48 399.537,-136.768 396.809,-135.955"/>
<polygon fill="midnightblue" stroke="midnightblue" points="1522.37,-187.662 1532.45,-184.396 1522.53,-180.664 1522.37,-187.662"/>
</g>
<!-- Node10 -->
<g id="node21" class="node"><title>Node10</title>
<a xlink:href="iodir_8h.html" target="_top" xlink:title="iodir.h">
<polygon fill="white" stroke="black" points="413.5,-116.5 413.5,-137.5 456.5,-137.5 456.5,-116.5 413.5,-116.5"/>
<text text-anchor="middle" x="435" y="-124.5" font-family="Helvetica,sans-Serif" font-size="10.00">iodir.h</text>
</a>
</g>
<!-- Node2&#45;&gt;Node10 -->
<g id="edge22" class="edge"><title>Node2&#45;&gt;Node10</title>
<path fill="none" stroke="midnightblue" d="M1522.1,-184.09C1343.2,-179.586 570.389,-159.055 465,-138 462.28,-137.457 459.478,-136.706 456.73,-135.849"/>
<polygon fill="midnightblue" stroke="midnightblue" points="1522.22,-187.594 1532.31,-184.346 1522.4,-180.596 1522.22,-187.594"/>
</g>
<!-- Node11 -->
<g id="node23" class="node"><title>Node11</title>
<a xlink:href="iodirentry_8h.html" target="_top" xlink:title="iodirentry.h">
<polygon fill="white" stroke="black" points="473.5,-116.5 473.5,-137.5 538.5,-137.5 538.5,-116.5 473.5,-116.5"/>
<text text-anchor="middle" x="506" y="-124.5" font-family="Helvetica,sans-Serif" font-size="10.00">iodirentry.h</text>
</a>
</g>
<!-- Node2&#45;&gt;Node11 -->
<g id="edge24" class="edge"><title>Node2&#45;&gt;Node11</title>
<path fill="none" stroke="midnightblue" d="M1522.29,-184.356C1364.19,-181.418 740.676,-168.117 547,-138 544.233,-137.57 541.384,-137.025 538.538,-136.409"/>
<polygon fill="midnightblue" stroke="midnightblue" points="1522.38,-187.858 1532.44,-184.542 1522.51,-180.859 1522.38,-187.858"/>
</g>
<!-- Node12 -->
<g id="node25" class="node"><title>Node12</title>
<a xlink:href="ioman_8h.html" target="_top" xlink:title="ioman.h">
<polygon fill="white" stroke="black" points="555.5,-116.5 555.5,-137.5 606.5,-137.5 606.5,-116.5 555.5,-116.5"/>
<text text-anchor="middle" x="581" y="-124.5" font-family="Helvetica,sans-Serif" font-size="10.00">ioman.h</text>
</a>
</g>
<!-- Node2&#45;&gt;Node12 -->
<g id="edge26" class="edge"><title>Node2&#45;&gt;Node12</title>
<path fill="none" stroke="midnightblue" d="M1522.3,-184.461C1370.82,-182.037 793.897,-170.799 615,-138 612.315,-137.508 609.549,-136.86 606.808,-136.124"/>
<polygon fill="midnightblue" stroke="midnightblue" points="1522.4,-187.963 1532.46,-184.62 1522.51,-180.964 1522.4,-187.963"/>
</g>
<!-- Node13 -->
<g id="node27" class="node"><title>Node13</title>
<a xlink:href="picksetmgr_8h.html" target="_top" xlink:title="picksetmgr.h">
<polygon fill="white" stroke="red" points="623.5,-116.5 623.5,-137.5 696.5,-137.5 696.5,-116.5 623.5,-116.5"/>
<text text-anchor="middle" x="660" y="-124.5" font-family="Helvetica,sans-Serif" font-size="10.00">picksetmgr.h</text>
</a>
</g>
<!-- Node2&#45;&gt;Node13 -->
<g id="edge28" class="edge"><title>Node2&#45;&gt;Node13</title>
<path fill="none" stroke="midnightblue" d="M1521.76,-183.867C1378.95,-179.381 866.222,-161.931 705,-138 702.295,-137.599 699.515,-137.11 696.727,-136.564"/>
<polygon fill="midnightblue" stroke="midnightblue" points="1522.05,-187.378 1532.16,-184.191 1522.27,-180.381 1522.05,-187.378"/>
</g>
<!-- Node14 -->
<g id="node29" class="node"><title>Node14</title>
<a xlink:href="surfaceinfo_8h.html" target="_top" xlink:title="surfaceinfo.h">
<polygon fill="white" stroke="black" points="713.5,-116.5 713.5,-137.5 786.5,-137.5 786.5,-116.5 713.5,-116.5"/>
<text text-anchor="middle" x="750" y="-124.5" font-family="Helvetica,sans-Serif" font-size="10.00">surfaceinfo.h</text>
</a>
</g>
<!-- Node2&#45;&gt;Node14 -->
<g id="edge30" class="edge"><title>Node2&#45;&gt;Node14</title>
<path fill="none" stroke="midnightblue" d="M1522.25,-183.609C1389.9,-178.466 937.952,-159.692 795,-138 792.296,-137.59 789.517,-137.094 786.73,-136.544"/>
<polygon fill="midnightblue" stroke="midnightblue" points="1522.16,-187.108 1532.29,-183.997 1522.43,-180.114 1522.16,-187.108"/>
</g>
<!-- Node15 -->
<g id="node31" class="node"><title>Node15</title>
<a xlink:href="stratlayseqgendesc_8h.html" target="_top" xlink:title="stratlayseqgendesc.h">
<polygon fill="white" stroke="black" points="804,-116.5 804,-137.5 914,-137.5 914,-116.5 804,-116.5"/>
<text text-anchor="middle" x="859" y="-124.5" font-family="Helvetica,sans-Serif" font-size="10.00">stratlayseqgendesc.h</text>
</a>
</g>
<!-- Node2&#45;&gt;Node15 -->
<g id="edge32" class="edge"><title>Node2&#45;&gt;Node15</title>
<path fill="none" stroke="midnightblue" d="M1521.98,-183.514C1423.97,-179.31 1149.68,-165.79 923,-138 920.091,-137.643 917.112,-137.246 914.108,-136.819"/>
<polygon fill="midnightblue" stroke="midnightblue" points="1522.11,-187.023 1532.25,-183.948 1522.41,-180.029 1522.11,-187.023"/>
</g>
<!-- Node16 -->
<g id="node33" class="node"><title>Node16</title>
<a xlink:href="polyposprovider_8h.html" target="_top" xlink:title="polyposprovider.h">
<polygon fill="white" stroke="black" points="931.5,-116.5 931.5,-137.5 1024.5,-137.5 1024.5,-116.5 931.5,-116.5"/>
<text text-anchor="middle" x="978" y="-124.5" font-family="Helvetica,sans-Serif" font-size="10.00">polyposprovider.h</text>
</a>
</g>
<!-- Node2&#45;&gt;Node16 -->
<g id="edge34" class="edge"><title>Node2&#45;&gt;Node16</title>
<path fill="none" stroke="midnightblue" d="M1522.3,-183.092C1436.41,-178.328 1215.71,-164.356 1033,-138 1030.3,-137.611 1027.54,-137.175 1024.75,-136.708"/>
<polygon fill="midnightblue" stroke="midnightblue" points="1522.16,-186.589 1532.34,-183.64 1522.54,-179.6 1522.16,-186.589"/>
</g>
<!-- Node17 -->
<g id="node35" class="node"><title>Node17</title>
<a xlink:href="randomlinegeom_8h.html" target="_top" xlink:title="randomlinegeom.h">
<polygon fill="white" stroke="red" points="1042,-116.5 1042,-137.5 1138,-137.5 1138,-116.5 1042,-116.5"/>
<text text-anchor="middle" x="1090" y="-124.5" font-family="Helvetica,sans-Serif" font-size="10.00">randomlinegeom.h</text>
</a>
</g>
<!-- Node2&#45;&gt;Node17 -->
<g id="edge36" class="edge"><title>Node2&#45;&gt;Node17</title>
<path fill="none" stroke="midnightblue" d="M1521.96,-181.482C1450.33,-174.51 1287.9,-157.883 1152,-138 1147.46,-137.335 1142.74,-136.593 1138.02,-135.815"/>
<polygon fill="midnightblue" stroke="midnightblue" points="1521.97,-184.999 1532.26,-182.479 1522.64,-178.032 1521.97,-184.999"/>
</g>
<!-- Node18 -->
<g id="node37" class="node"><title>Node18</title>
<a xlink:href="emposid_8h.html" target="_top" xlink:title="emposid.h">
<polygon fill="white" stroke="red" points="1270,-116.5 1270,-137.5 1332,-137.5 1332,-116.5 1270,-116.5"/>
<text text-anchor="middle" x="1301" y="-124.5" font-family="Helvetica,sans-Serif" font-size="10.00">emposid.h</text>
</a>
</g>
<!-- Node2&#45;&gt;Node18 -->
<g id="edge38" class="edge"><title>Node2&#45;&gt;Node18</title>
<path fill="none" stroke="midnightblue" d="M1522.52,-177.212C1480.05,-168.086 1407.85,-152.381 1346,-138 1341.61,-136.98 1336.99,-135.88 1332.45,-134.783"/>
<polygon fill="midnightblue" stroke="midnightblue" points="1521.88,-180.655 1532.39,-179.33 1523.35,-173.81 1521.88,-180.655"/>
</g>
<!-- Node19 -->
<g id="node39" class="node"><title>Node19</title>
<a xlink:href="emobject_8h.html" target="_top" xlink:title="emobject.h">
<polygon fill="white" stroke="red" points="1015.5,-58.5 1015.5,-79.5 1080.5,-79.5 1080.5,-58.5 1015.5,-58.5"/>
<text text-anchor="middle" x="1048" y="-66.5" font-family="Helvetica,sans-Serif" font-size="10.00">emobject.h</text>
</a>
</g>
<!-- Node2&#45;&gt;Node19 -->
<g id="edge52" class="edge"><title>Node2&#45;&gt;Node19</title>
<path fill="none" stroke="midnightblue" d="M1522.1,-183.947C1455.63,-181.237 1311.91,-171.645 1196,-138 1189.48,-136.108 1109.9,-98.4361 1070.21,-79.573"/>
<polygon fill="midnightblue" stroke="midnightblue" points="1522.34,-187.459 1532.47,-184.339 1522.61,-180.464 1522.34,-187.459"/>
</g>
<!-- Node20 -->
<g id="node41" class="node"><title>Node20</title>
<a xlink:href="emmanager_8h.html" target="_top" xlink:title="emmanager.h">
<polygon fill="white" stroke="black" points="1098,-58.5 1098,-79.5 1174,-79.5 1174,-58.5 1098,-58.5"/>
<text text-anchor="middle" x="1136" y="-66.5" font-family="Helvetica,sans-Serif" font-size="10.00">emmanager.h</text>
</a>
</g>
<!-- Node2&#45;&gt;Node20 -->
<g id="edge56" class="edge"><title>Node2&#45;&gt;Node20</title>
<path fill="none" stroke="midnightblue" d="M1521.93,-181.432C1450.05,-174.194 1294.36,-156.859 1244,-138 1206.29,-123.876 1167.91,-95.2318 1148.67,-79.6601"/>
<polygon fill="midnightblue" stroke="midnightblue" points="1522.02,-184.958 1532.31,-182.466 1522.71,-177.993 1522.02,-184.958"/>
</g>
<!-- Node21 -->
<g id="node43" class="node"><title>Node21</title>
<a xlink:href="emsurfaceposprov_8h.html" target="_top" xlink:title="emsurfaceposprov.h">
<polygon fill="white" stroke="black" points="1191.5,-58.5 1191.5,-79.5 1296.5,-79.5 1296.5,-58.5 1191.5,-58.5"/>
<text text-anchor="middle" x="1244" y="-66.5" font-family="Helvetica,sans-Serif" font-size="10.00">emsurfaceposprov.h</text>
</a>
</g>
<!-- Node2&#45;&gt;Node21 -->
<g id="edge60" class="edge"><title>Node2&#45;&gt;Node21</title>
<path fill="none" stroke="midnightblue" d="M1522.18,-184.131C1451.07,-181.685 1298.52,-172.454 1261,-138 1244.64,-122.98 1242.88,-94.9691 1243.28,-79.6617"/>
<polygon fill="midnightblue" stroke="midnightblue" points="1522.36,-187.638 1532.46,-184.457 1522.58,-180.642 1522.36,-187.638"/>
</g>
<!-- Node22 -->
<g id="node45" class="node"><title>Node22</title>
<a xlink:href="horizongridder_8h.html" target="_top" xlink:title="horizongridder.h">
<polygon fill="white" stroke="black" points="1314,-58.5 1314,-79.5 1400,-79.5 1400,-58.5 1314,-58.5"/>
<text text-anchor="middle" x="1357" y="-66.5" font-family="Helvetica,sans-Serif" font-size="10.00">horizongridder.h</text>
</a>
</g>
<!-- Node2&#45;&gt;Node22 -->
<g id="edge64" class="edge"><title>Node2&#45;&gt;Node22</title>
<path fill="none" stroke="midnightblue" d="M1522.25,-174.506C1497.22,-166.495 1463.87,-154.095 1437,-138 1408.99,-121.223 1381.26,-94.4177 1366.95,-79.6408"/>
<polygon fill="midnightblue" stroke="midnightblue" points="1521.5,-177.938 1532.09,-177.566 1523.58,-171.254 1521.5,-177.938"/>
</g>
<!-- Node23 -->
<g id="node47" class="node"><title>Node23</title>
<a xlink:href="horizonmodifier_8h.html" target="_top" xlink:title="horizonmodifier.h">
<polygon fill="white" stroke="black" points="1417.5,-58.5 1417.5,-79.5 1508.5,-79.5 1508.5,-58.5 1417.5,-58.5"/>
<text text-anchor="middle" x="1463" y="-66.5" font-family="Helvetica,sans-Serif" font-size="10.00">horizonmodifier.h</text>
</a>
</g>
<!-- Node2&#45;&gt;Node23 -->
<g id="edge66" class="edge"><title>Node2&#45;&gt;Node23</title>
<path fill="none" stroke="midnightblue" d="M1522.25,-180.388C1496.15,-174.981 1462.86,-163.278 1446,-138 1433.95,-119.937 1446.5,-94.0972 1455.53,-79.7115"/>
<polygon fill="midnightblue" stroke="midnightblue" points="1521.74,-183.852 1532.21,-182.225 1523.01,-176.969 1521.74,-183.852"/>
</g>
<!-- Node24 -->
<g id="node49" class="node"><title>Node24</title>
<a xlink:href="velocitypicks_8h.html" target="_top" xlink:title="velocitypicks.h">
<polygon fill="white" stroke="red" points="1526,-58.5 1526,-79.5 1608,-79.5 1608,-58.5 1526,-58.5"/>
<text text-anchor="middle" x="1567" y="-66.5" font-family="Helvetica,sans-Serif" font-size="10.00">velocitypicks.h</text>
</a>
</g>
<!-- Node2&#45;&gt;Node24 -->
<g id="edge102" class="edge"><title>Node2&#45;&gt;Node24</title>
<path fill="none" stroke="midnightblue" d="M1522.33,-176.586C1484.94,-166.16 1435.04,-146.018 1455,-116 1463.81,-102.742 1501.2,-88.7722 1530.38,-79.543"/>
<polygon fill="midnightblue" stroke="midnightblue" points="1521.92,-180.096 1532.48,-179.269 1523.71,-173.329 1521.92,-180.096"/>
</g>
<!-- Node25 -->
<g id="node52" class="node"><title>Node25</title>
<a xlink:href="embodyoperator_8h.html" target="_top" xlink:title="embodyoperator.h">
<polygon fill="white" stroke="black" points="1463.5,-116.5 1463.5,-137.5 1558.5,-137.5 1558.5,-116.5 1463.5,-116.5"/>
<text text-anchor="middle" x="1511" y="-124.5" font-family="Helvetica,sans-Serif" font-size="10.00">embodyoperator.h</text>
</a>
</g>
<!-- Node2&#45;&gt;Node25 -->
<g id="edge54" class="edge"><title>Node2&#45;&gt;Node25</title>
<path fill="none" stroke="midnightblue" d="M1543.72,-166.541C1535.81,-156.979 1526.43,-145.647 1519.75,-137.571"/>
<polygon fill="midnightblue" stroke="midnightblue" points="1541.12,-168.889 1550.2,-174.362 1546.52,-164.426 1541.12,-168.889"/>
</g>
<!-- Node26 -->
<g id="node55" class="node"><title>Node26</title>
<a xlink:href="emregion_8h.html" target="_top" xlink:title="emregion.h">
<polygon fill="white" stroke="black" points="1575.5,-116.5 1575.5,-137.5 1640.5,-137.5 1640.5,-116.5 1575.5,-116.5"/>
<text text-anchor="middle" x="1608" y="-124.5" font-family="Helvetica,sans-Serif" font-size="10.00">emregion.h</text>
</a>
</g>
<!-- Node2&#45;&gt;Node26 -->
<g id="edge58" class="edge"><title>Node2&#45;&gt;Node26</title>
<path fill="none" stroke="midnightblue" d="M1574.59,-166.541C1582.67,-156.979 1592.25,-145.647 1599.07,-137.571"/>
<polygon fill="midnightblue" stroke="midnightblue" points="1571.77,-164.464 1567.99,-174.362 1577.11,-168.982 1571.77,-164.464"/>
</g>
<!-- Node27 -->
<g id="node58" class="node"><title>Node27</title>
<a xlink:href="faulttrace_8h.html" target="_top" xlink:title="faulttrace.h">
<polygon fill="white" stroke="red" points="1657.5,-116.5 1657.5,-137.5 1722.5,-137.5 1722.5,-116.5 1657.5,-116.5"/>
<text text-anchor="middle" x="1690" y="-124.5" font-family="Helvetica,sans-Serif" font-size="10.00">faulttrace.h</text>
</a>
</g>
<!-- Node2&#45;&gt;Node27 -->
<g id="edge62" class="edge"><title>Node2&#45;&gt;Node27</title>
<path fill="none" stroke="midnightblue" d="M1592.1,-170.343C1615.13,-160.15 1645.28,-146.798 1666.01,-137.621"/>
<polygon fill="midnightblue" stroke="midnightblue" points="1590.45,-167.248 1582.72,-174.497 1593.28,-173.649 1590.45,-167.248"/>
</g>
<!-- Node28 -->
<g id="node62" class="node"><title>Node28</title>
<a xlink:href="horizonrelation_8h.html" target="_top" xlink:title="horizonrelation.h">
<polygon fill="white" stroke="black" points="1740,-116.5 1740,-137.5 1828,-137.5 1828,-116.5 1740,-116.5"/>
<text text-anchor="middle" x="1784" y="-124.5" font-family="Helvetica,sans-Serif" font-size="10.00">horizonrelation.h</text>
</a>
</g>
<!-- Node2&#45;&gt;Node28 -->
<g id="edge68" class="edge"><title>Node2&#45;&gt;Node28</title>
<path fill="none" stroke="midnightblue" d="M1595.53,-173.67C1650.01,-158.535 1703.2,-145.675 1739.65,-137.15"/>
<polygon fill="midnightblue" stroke="midnightblue" points="1594.39,-170.354 1585.7,-176.421 1596.28,-177.095 1594.39,-170.354"/>
</g>
<!-- Node29 -->
<g id="node64" class="node"><title>Node29</title>
<a xlink:href="horizonsorter_8h.html" target="_top" xlink:title="horizonsorter.h">
<polygon fill="white" stroke="black" points="1845.5,-116.5 1845.5,-137.5 1926.5,-137.5 1926.5,-116.5 1845.5,-116.5"/>
<text text-anchor="middle" x="1886" y="-124.5" font-family="Helvetica,sans-Serif" font-size="10.00">horizonsorter.h</text>
</a>
</g>
<!-- Node2&#45;&gt;Node29 -->
<g id="edge70" class="edge"><title>Node2&#45;&gt;Node29</title>
<path fill="none" stroke="midnightblue" d="M1595.51,-173.905C1702.19,-150.026 1732.81,-157.386 1837,-138 1839.74,-137.49 1842.57,-136.935 1845.41,-136.355"/>
<polygon fill="midnightblue" stroke="midnightblue" points="1594.61,-170.52 1585.63,-176.154 1596.16,-177.345 1594.61,-170.52"/>
</g>
<!-- Node30 -->
<g id="node66" class="node"><title>Node30</title>
<a xlink:href="welldata_8h.html" target="_top" xlink:title="welldata.h">
<polygon fill="white" stroke="red" points="1943.5,-116.5 1943.5,-137.5 2004.5,-137.5 2004.5,-116.5 1943.5,-116.5"/>
<text text-anchor="middle" x="1974" y="-124.5" font-family="Helvetica,sans-Serif" font-size="10.00">welldata.h</text>
</a>
</g>
<!-- Node2&#45;&gt;Node30 -->
<g id="edge72" class="edge"><title>Node2&#45;&gt;Node30</title>
<path fill="none" stroke="midnightblue" d="M1595.61,-173.984C1745.07,-143.998 1788.56,-166.17 1935,-138 1937.76,-137.468 1940.62,-136.834 1943.46,-136.143"/>
<polygon fill="midnightblue" stroke="midnightblue" points="1594.7,-170.598 1585.61,-176.036 1596.11,-177.455 1594.7,-170.598"/>
</g>
<!-- Node31 -->
<g id="node68" class="node"><title>Node31</title>
<a xlink:href="wellposprovider_8h.html" target="_top" xlink:title="wellposprovider.h">
<polygon fill="white" stroke="black" points="2022,-116.5 2022,-137.5 2114,-137.5 2114,-116.5 2022,-116.5"/>
<text text-anchor="middle" x="2068" y="-124.5" font-family="Helvetica,sans-Serif" font-size="10.00">wellposprovider.h</text>
</a>
</g>
<!-- Node2&#45;&gt;Node31 -->
<g id="edge74" class="edge"><title>Node2&#45;&gt;Node31</title>
<path fill="none" stroke="midnightblue" d="M1595.58,-174.025C1779.18,-138.682 1831.21,-163.905 2013,-138 2015.89,-137.588 2018.86,-137.121 2021.85,-136.619"/>
<polygon fill="midnightblue" stroke="midnightblue" points="1594.74,-170.624 1585.6,-175.981 1596.08,-177.493 1594.74,-170.624"/>
</g>
<!-- Node32 -->
<g id="node70" class="node"><title>Node32</title>
<a xlink:href="segyresorter_8h.html" target="_top" xlink:title="segyresorter.h">
<polygon fill="white" stroke="black" points="2131.5,-116.5 2131.5,-137.5 2210.5,-137.5 2210.5,-116.5 2131.5,-116.5"/>
<text text-anchor="middle" x="2171" y="-124.5" font-family="Helvetica,sans-Serif" font-size="10.00">segyresorter.h</text>
</a>
</g>
<!-- Node2&#45;&gt;Node32 -->
<g id="edge76" class="edge"><title>Node2&#45;&gt;Node32</title>
<path fill="none" stroke="midnightblue" d="M1595.68,-174.047C1827.43,-131.543 1893.17,-171.939 2123,-138 2125.71,-137.6 2128.49,-137.129 2131.28,-136.609"/>
<polygon fill="midnightblue" stroke="midnightblue" points="1594.78,-170.655 1585.59,-175.931 1596.06,-177.536 1594.78,-170.655"/>
</g>
<!-- Node33 -->
<g id="node72" class="node"><title>Node33</title>
<a xlink:href="seisdatapackwriter_8h.html" target="_top" xlink:title="seisdatapackwriter.h">
<polygon fill="white" stroke="black" points="2227.5,-116.5 2227.5,-137.5 2334.5,-137.5 2334.5,-116.5 2227.5,-116.5"/>
<text text-anchor="middle" x="2281" y="-124.5" font-family="Helvetica,sans-Serif" font-size="10.00">seisdatapackwriter.h</text>
</a>
</g>
<!-- Node2&#45;&gt;Node33 -->
<g id="edge78" class="edge"><title>Node2&#45;&gt;Node33</title>
<path fill="none" stroke="midnightblue" d="M1595.82,-174.041C1869.55,-125.029 1946.02,-169.964 2219,-138 2221.71,-137.682 2224.49,-137.321 2227.29,-136.929"/>
<polygon fill="midnightblue" stroke="midnightblue" points="1594.8,-170.67 1585.58,-175.901 1596.05,-177.557 1594.8,-170.67"/>
</g>
<!-- Node34 -->
<g id="node74" class="node"><title>Node34</title>
<a xlink:href="seisimpbpsif_8h.html" target="_top" xlink:title="seisimpbpsif.h">
<polygon fill="white" stroke="black" points="2352,-116.5 2352,-137.5 2432,-137.5 2432,-116.5 2352,-116.5"/>
<text text-anchor="middle" x="2392" y="-124.5" font-family="Helvetica,sans-Serif" font-size="10.00">seisimpbpsif.h</text>
</a>
</g>
<!-- Node2&#45;&gt;Node34 -->
<g id="edge80" class="edge"><title>Node2&#45;&gt;Node34</title>
<path fill="none" stroke="midnightblue" d="M1595.85,-174.059C1923.99,-116.923 2016.12,-182.208 2343,-138 2345.94,-137.603 2348.96,-137.117 2351.99,-136.573"/>
<polygon fill="midnightblue" stroke="midnightblue" points="1594.82,-170.688 1585.58,-175.874 1596.03,-177.581 1594.82,-170.688"/>
</g>
<!-- Node35 -->
<g id="node76" class="node"><title>Node35</title>
<a xlink:href="seisimpps_8h.html" target="_top" xlink:title="seisimpps.h">
<polygon fill="white" stroke="black" points="2449.5,-116.5 2449.5,-137.5 2518.5,-137.5 2518.5,-116.5 2449.5,-116.5"/>
<text text-anchor="middle" x="2484" y="-124.5" font-family="Helvetica,sans-Serif" font-size="10.00">seisimpps.h</text>
</a>
</g>
<!-- Node2&#45;&gt;Node35 -->
<g id="edge82" class="edge"><title>Node2&#45;&gt;Node35</title>
<path fill="none" stroke="midnightblue" d="M1595.52,-174.129C1966.96,-110.424 2071.53,-192.504 2441,-138 2443.74,-137.595 2446.57,-137.087 2449.39,-136.512"/>
<polygon fill="midnightblue" stroke="midnightblue" points="1594.83,-170.697 1585.57,-175.858 1596.03,-177.593 1594.83,-170.697"/>
</g>
<!-- Node36 -->
<g id="node78" class="node"><title>Node36</title>
<a xlink:href="seisiosimple_8h.html" target="_top" xlink:title="seisiosimple.h">
<polygon fill="white" stroke="red" points="2535.5,-116.5 2535.5,-137.5 2614.5,-137.5 2614.5,-116.5 2535.5,-116.5"/>
<text text-anchor="middle" x="2575" y="-124.5" font-family="Helvetica,sans-Serif" font-size="10.00">seisiosimple.h</text>
</a>
</g>
<!-- Node2&#45;&gt;Node36 -->
<g id="edge84" class="edge"><title>Node2&#45;&gt;Node36</title>
<path fill="none" stroke="midnightblue" d="M1595.6,-174.122C2004.72,-104.596 2118.94,-192.146 2527,-138 2529.71,-137.64 2532.5,-137.198 2535.29,-136.701"/>
<polygon fill="midnightblue" stroke="midnightblue" points="1594.83,-170.702 1585.57,-175.847 1596.02,-177.601 1594.83,-170.702"/>
</g>
<!-- Node37 -->
<g id="node80" class="node"><title>Node37</title>
<a xlink:href="seisjobexecprov_8h.html" target="_top" xlink:title="seisjobexecprov.h">
<polygon fill="white" stroke="black" points="2631.5,-116.5 2631.5,-137.5 2726.5,-137.5 2726.5,-116.5 2631.5,-116.5"/>
<text text-anchor="middle" x="2679" y="-124.5" font-family="Helvetica,sans-Serif" font-size="10.00">seisjobexecprov.h</text>
</a>
</g>
<!-- Node2&#45;&gt;Node37 -->
<g id="edge86" class="edge"><title>Node2&#45;&gt;Node37</title>
<path fill="none" stroke="midnightblue" d="M1595.61,-174.126C2046.86,-98.0596 2171.71,-189.884 2623,-138 2625.76,-137.683 2628.58,-137.304 2631.42,-136.88"/>
<polygon fill="midnightblue" stroke="midnightblue" points="1594.84,-170.707 1585.57,-175.837 1596.02,-177.607 1594.84,-170.707"/>
</g>
<!-- Node38 -->
<g id="node82" class="node"><title>Node38</title>
<a xlink:href="seisposprovider_8h.html" target="_top" xlink:title="seisposprovider.h">
<polygon fill="white" stroke="red" points="2743.5,-116.5 2743.5,-137.5 2836.5,-137.5 2836.5,-116.5 2743.5,-116.5"/>
<text text-anchor="middle" x="2790" y="-124.5" font-family="Helvetica,sans-Serif" font-size="10.00">seisposprovider.h</text>
</a>
</g>
<!-- Node2&#45;&gt;Node38 -->
<g id="edge88" class="edge"><title>Node2&#45;&gt;Node38</title>
<path fill="none" stroke="midnightblue" d="M1595.58,-174.138C2096.04,-90.5512 2234.28,-195.568 2735,-138 2737.71,-137.689 2740.48,-137.314 2743.28,-136.893"/>
<polygon fill="midnightblue" stroke="midnightblue" points="1594.85,-170.712 1585.57,-175.827 1596.01,-177.615 1594.85,-170.712"/>
</g>
<!-- Node39 -->
<g id="node84" class="node"><title>Node39</title>
<a xlink:href="seispreload_8h.html" target="_top" xlink:title="seispreload.h">
<polygon fill="white" stroke="black" points="2854,-116.5 2854,-137.5 2928,-137.5 2928,-116.5 2854,-116.5"/>
<text text-anchor="middle" x="2891" y="-124.5" font-family="Helvetica,sans-Serif" font-size="10.00">seispreload.h</text>
</a>
</g>
<!-- Node2&#45;&gt;Node39 -->
<g id="edge90" class="edge"><title>Node2&#45;&gt;Node39</title>
<path fill="none" stroke="midnightblue" d="M1595.72,-174.122C2144.38,-83.3094 2296.96,-210.623 2845,-138 2847.93,-137.612 2850.95,-137.115 2853.97,-136.548"/>
<polygon fill="midnightblue" stroke="midnightblue" points="1594.85,-170.718 1585.57,-175.82 1596.01,-177.622 1594.85,-170.718"/>
</g>
<!-- Node40 -->
<g id="node86" class="node"><title>Node40</title>
<a xlink:href="nlacrdesc_8h.html" target="_top" xlink:title="nlacrdesc.h">
<polygon fill="white" stroke="black" points="2945.5,-116.5 2945.5,-137.5 3012.5,-137.5 3012.5,-116.5 2945.5,-116.5"/>
<text text-anchor="middle" x="2979" y="-124.5" font-family="Helvetica,sans-Serif" font-size="10.00">nlacrdesc.h</text>
</a>
</g>
<!-- Node2&#45;&gt;Node40 -->
<g id="edge92" class="edge"><title>Node2&#45;&gt;Node40</title>
<path fill="none" stroke="midnightblue" d="M1595.59,-174.148C2184.77,-77.1783 2349.18,-221.721 2937,-138 2939.69,-137.617 2942.45,-137.125 2945.21,-136.561"/>
<polygon fill="midnightblue" stroke="midnightblue" points="1594.86,-170.721 1585.57,-175.814 1596.01,-177.627 1594.86,-170.721"/>
</g>
<!-- Node41 -->
<g id="node88" class="node"><title>Node41</title>
<a xlink:href="attribdescset_8h.html" target="_top" xlink:title="attribdescset.h">
<polygon fill="white" stroke="red" points="3029.5,-116.5 3029.5,-137.5 3110.5,-137.5 3110.5,-116.5 3029.5,-116.5"/>
<text text-anchor="middle" x="3070" y="-124.5" font-family="Helvetica,sans-Serif" font-size="10.00">attribdescset.h</text>
</a>
</g>
<!-- Node2&#45;&gt;Node41 -->
<g id="edge94" class="edge"><title>Node2&#45;&gt;Node41</title>
<path fill="none" stroke="midnightblue" d="M1595.6,-174.186C1923.25,-123.057 2709.41,-176.528 3021,-138 3023.77,-137.658 3026.61,-137.229 3029.47,-136.741"/>
<polygon fill="midnightblue" stroke="midnightblue" points="1594.88,-170.758 1585.57,-175.809 1596,-177.668 1594.88,-170.758"/>
</g>
<!-- Node42 -->
<g id="node90" class="node"><title>Node42</title>
<a xlink:href="attribdescsetman_8h.html" target="_top" xlink:title="attribdescsetman.h">
<polygon fill="white" stroke="black" points="3128,-116.5 3128,-137.5 3228,-137.5 3228,-116.5 3128,-116.5"/>
<text text-anchor="middle" x="3178" y="-124.5" font-family="Helvetica,sans-Serif" font-size="10.00">attribdescsetman.h</text>
</a>
</g>
<!-- Node2&#45;&gt;Node42 -->
<g id="edge96" class="edge"><title>Node2&#45;&gt;Node42</title>
<path fill="none" stroke="midnightblue" d="M1595.5,-174.202C1944.64,-119.667 2785.06,-172.843 3119,-138 3121.9,-137.697 3124.87,-137.329 3127.87,-136.914"/>
<polygon fill="midnightblue" stroke="midnightblue" points="1594.88,-170.756 1585.57,-175.805 1596,-177.667 1594.88,-170.756"/>
</g>
<!-- Node43 -->
<g id="node92" class="node"><title>Node43</title>
<a xlink:href="attribsel_8h.html" target="_top" xlink:title="attribsel.h">
<polygon fill="white" stroke="red" points="3245.5,-116.5 3245.5,-137.5 3304.5,-137.5 3304.5,-116.5 3245.5,-116.5"/>
<text text-anchor="middle" x="3275" y="-124.5" font-family="Helvetica,sans-Serif" font-size="10.00">attribsel.h</text>
</a>
</g>
<!-- Node2&#45;&gt;Node43 -->
<g id="edge98" class="edge"><title>Node2&#45;&gt;Node43</title>
<path fill="none" stroke="midnightblue" d="M1595.69,-174.177C1970.95,-116.069 2879.26,-192.74 3237,-138 3239.72,-137.584 3242.51,-137.03 3245.29,-136.391"/>
<polygon fill="midnightblue" stroke="midnightblue" points="1594.88,-170.762 1585.56,-175.8 1595.99,-177.674 1594.88,-170.762"/>
</g>
<!-- Node44 -->
<g id="node96" class="node"><title>Node44</title>
<a xlink:href="volprocattrib_8h.html" target="_top" xlink:title="volprocattrib.h">
<polygon fill="white" stroke="black" points="3322,-116.5 3322,-137.5 3400,-137.5 3400,-116.5 3322,-116.5"/>
<text text-anchor="middle" x="3361" y="-124.5" font-family="Helvetica,sans-Serif" font-size="10.00">volprocattrib.h</text>
</a>
</g>
<!-- Node2&#45;&gt;Node44 -->
<g id="edge104" class="edge"><title>Node2&#45;&gt;Node44</title>
<path fill="none" stroke="midnightblue" d="M1595.57,-174.194C1987.45,-113.335 2937.05,-184.518 3313,-138 3315.88,-137.643 3318.85,-137.187 3321.82,-136.664"/>
<polygon fill="midnightblue" stroke="midnightblue" points="1594.88,-170.759 1585.56,-175.797 1595.99,-177.671 1594.88,-170.759"/>
</g>
<!-- Node45 -->
<g id="node98" class="node"><title>Node45</title>
<a xlink:href="volprocbodyfiller_8h.html" target="_top" xlink:title="volprocbodyfiller.h">
<polygon fill="white" stroke="red" points="3417.5,-116.5 3417.5,-137.5 3512.5,-137.5 3512.5,-116.5 3417.5,-116.5"/>
<text text-anchor="middle" x="3465" y="-124.5" font-family="Helvetica,sans-Serif" font-size="10.00">volprocbodyfiller.h</text>
</a>
</g>
<!-- Node2&#45;&gt;Node45 -->
<g id="edge106" class="edge"><title>Node2&#45;&gt;Node45</title>
<path fill="none" stroke="midnightblue" d="M1595.51,-174.203C2008.45,-110.02 3011.12,-180.694 3409,-138 3411.76,-137.704 3414.58,-137.341 3417.43,-136.93"/>
<polygon fill="midnightblue" stroke="midnightblue" points="1594.88,-170.758 1585.56,-175.794 1595.99,-177.671 1594.88,-170.758"/>
</g>
<!-- Node46 -->
<g id="node100" class="node"><title>Node46</title>
<a xlink:href="volprocchain_8h.html" target="_top" xlink:title="volprocchain.h">
<polygon fill="white" stroke="red" points="3530,-116.5 3530,-137.5 3610,-137.5 3610,-116.5 3530,-116.5"/>
<text text-anchor="middle" x="3570" y="-124.5" font-family="Helvetica,sans-Serif" font-size="10.00">volprocchain.h</text>
</a>
</g>
<!-- Node2&#45;&gt;Node46 -->
<g id="edge108" class="edge"><title>Node2&#45;&gt;Node46</title>
<path fill="none" stroke="midnightblue" d="M1595.46,-174.212C2033.01,-106.355 3098.99,-188.781 3521,-138 3523.86,-137.656 3526.79,-137.218 3529.74,-136.716"/>
<polygon fill="midnightblue" stroke="midnightblue" points="1594.89,-170.76 1585.56,-175.791 1595.99,-177.672 1594.89,-170.76"/>
</g>
<!-- Node47 -->
<g id="node102" class="node"><title>Node47</title>
<a xlink:href="volprocchainoutput_8h.html" target="_top" xlink:title="volprocchainoutput.h">
<polygon fill="white" stroke="black" points="3627.5,-116.5 3627.5,-137.5 3734.5,-137.5 3734.5,-116.5 3627.5,-116.5"/>
<text text-anchor="middle" x="3681" y="-124.5" font-family="Helvetica,sans-Serif" font-size="10.00">volprocchainoutput.h</text>
</a>
</g>
<!-- Node2&#45;&gt;Node47 -->
<g id="edge110" class="edge"><title>Node2&#45;&gt;Node47</title>
<path fill="none" stroke="midnightblue" d="M1595.62,-174.187C2054.8,-102.948 3174.31,-181.129 3619,-138 3621.72,-137.736 3624.5,-137.419 3627.3,-137.061"/>
<polygon fill="midnightblue" stroke="midnightblue" points="1594.89,-170.759 1585.56,-175.788 1595.99,-177.672 1594.89,-170.759"/>
</g>
<!-- Node48 -->
<g id="node104" class="node"><title>Node48</title>
<a xlink:href="volprocsurfacelimitedfiller_8h.html" target="_top" xlink:title="volprocsurfacelimitedfiller.h">
<polygon fill="white" stroke="red" points="3751.5,-116.5 3751.5,-137.5 3886.5,-137.5 3886.5,-116.5 3751.5,-116.5"/>
<text text-anchor="middle" x="3819" y="-124.5" font-family="Helvetica,sans-Serif" font-size="10.00">volprocsurfacelimitedfiller.h</text>
</a>
</g>
<!-- Node2&#45;&gt;Node48 -->
<g id="edge112" class="edge"><title>Node2&#45;&gt;Node48</title>
<path fill="none" stroke="midnightblue" d="M1595.5,-174.204C2081.87,-98.6789 3270.17,-176.024 3743,-138 3745.66,-137.786 3748.36,-137.539 3751.1,-137.264"/>
<polygon fill="midnightblue" stroke="midnightblue" points="1594.89,-170.758 1585.56,-175.785 1595.99,-177.671 1594.89,-170.758"/>
</g>
<!-- Node4&#45;&gt;Node5 -->
<g id="edge8" class="edge"><title>Node4&#45;&gt;Node5</title>
<path fill="none" stroke="midnightblue" d="M167.829,-49.3733C172.962,-40.0682 178.892,-29.3204 183.168,-21.5707"/>
<polygon fill="midnightblue" stroke="midnightblue" points="164.636,-47.9153 162.869,-58.3619 170.765,-51.2969 164.636,-47.9153"/>
</g>
<!-- Node6&#45;&gt;Node4 -->
<g id="edge12" class="edge"><title>Node6&#45;&gt;Node4</title>
<path fill="none" stroke="midnightblue" d="M157,-106.191C157,-97.1684 157,-86.9941 157,-79.5707"/>
<polygon fill="midnightblue" stroke="midnightblue" points="153.5,-106.362 157,-116.362 160.5,-106.362 153.5,-106.362"/>
</g>
<!-- Node9&#45;&gt;Node8 -->
<g id="edge20" class="edge"><title>Node9&#45;&gt;Node8</title>
<path fill="none" stroke="midnightblue" d="M365.413,-107.079C361.432,-97.8422 356.862,-87.2388 353.556,-79.5707"/>
<polygon fill="midnightblue" stroke="midnightblue" points="362.242,-108.564 369.415,-116.362 368.67,-105.793 362.242,-108.564"/>
</g>
<!-- Node18&#45;&gt;Node19 -->
<g id="edge40" class="edge"><title>Node18&#45;&gt;Node19</title>
<path fill="none" stroke="midnightblue" d="M1259.61,-118.386C1216.78,-109.342 1148.03,-94.4547 1089,-80 1086.28,-79.3339 1083.46,-78.6232 1080.64,-77.8958"/>
<polygon fill="midnightblue" stroke="midnightblue" points="1259.14,-121.865 1269.65,-120.5 1260.58,-115.015 1259.14,-121.865"/>
</g>
<!-- Node18&#45;&gt;Node20 -->
<g id="edge42" class="edge"><title>Node18&#45;&gt;Node20</title>
<path fill="none" stroke="midnightblue" d="M1261.58,-113.144C1232.22,-102.823 1192.74,-88.9439 1165.94,-79.5231"/>
<polygon fill="midnightblue" stroke="midnightblue" points="1260.52,-116.482 1271.12,-116.497 1262.85,-109.878 1260.52,-116.482"/>
</g>
<!-- Node18&#45;&gt;Node21 -->
<g id="edge44" class="edge"><title>Node18&#45;&gt;Node21</title>
<path fill="none" stroke="midnightblue" d="M1283.43,-109.118C1273.91,-99.4377 1262.49,-87.8098 1254.39,-79.5707"/>
<polygon fill="midnightblue" stroke="midnightblue" points="1281.04,-111.683 1290.55,-116.362 1286.03,-106.776 1281.04,-111.683"/>
</g>
<!-- Node18&#45;&gt;Node22 -->
<g id="edge46" class="edge"><title>Node18&#45;&gt;Node22</title>
<path fill="none" stroke="midnightblue" d="M1318.27,-109.118C1327.61,-99.4377 1338.84,-87.8098 1346.79,-79.5707"/>
<polygon fill="midnightblue" stroke="midnightblue" points="1315.7,-106.737 1311.27,-116.362 1320.74,-111.599 1315.7,-106.737"/>
</g>
<!-- Node18&#45;&gt;Node23 -->
<g id="edge48" class="edge"><title>Node18&#45;&gt;Node23</title>
<path fill="none" stroke="midnightblue" d="M1340.08,-113.009C1368.87,-102.702 1407.41,-88.903 1433.61,-79.5231"/>
<polygon fill="midnightblue" stroke="midnightblue" points="1338.57,-109.831 1330.34,-116.497 1340.93,-116.421 1338.57,-109.831"/>
</g>
<!-- Node18&#45;&gt;Node24 -->
<g id="edge50" class="edge"><title>Node18&#45;&gt;Node24</title>
<path fill="none" stroke="midnightblue" d="M1342.03,-118.101C1385.49,-108.67 1456.09,-93.3275 1517,-80 1519.87,-79.3731 1522.82,-78.725 1525.8,-78.0716"/>
<polygon fill="midnightblue" stroke="midnightblue" points="1341.15,-114.71 1332.12,-120.251 1342.64,-121.551 1341.15,-114.71"/>
</g>
</g>
</svg>
