<?xml version="1.0" encoding="UTF-8" standalone="no"?>
<!DOCTYPE svg PUBLIC "-//W3C//DTD SVG 1.1//EN"
 "http://www.w3.org/Graphics/SVG/1.1/DTD/svg11.dtd">
<!-- Generated by graphviz version 2.26.0 (20091210.2329)
 -->
<!-- Title: ctxtioobj.h Pages: 1 -->
<svg width="3471pt" height="262pt"
 viewBox="0.00 0.00 3471.00 262.00" xmlns="http://www.w3.org/2000/svg" xmlns:xlink="http://www.w3.org/1999/xlink">
<g id="graph1" class="graph" transform="scale(1 1) rotate(0) translate(4 258)">
<title>ctxtioobj.h</title>
<polygon fill="white" stroke="white" points="-4,5 -4,-258 3468,-258 3468,5 -4,5"/>
<!-- Node1 -->
<g id="node1" class="node"><title>Node1</title>
<polygon fill="#bfbfbf" stroke="black" points="1611,-232.5 1611,-253.5 1673,-253.5 1673,-232.5 1611,-232.5"/>
<text text-anchor="middle" x="1642" y="-240.5" font-family="Helvetica,sans-Serif" font-size="10.00">ctxtioobj.h</text>
</g>
<!-- Node2 -->
<g id="node3" class="node"><title>Node2</title>
<a xlink:href="transl_8h.html" target="_top" xlink:title="transl.h">
<polygon fill="white" stroke="black" points="1591.5,-174.5 1591.5,-195.5 1640.5,-195.5 1640.5,-174.5 1591.5,-174.5"/>
<text text-anchor="middle" x="1616" y="-182.5" font-family="Helvetica,sans-Serif" font-size="10.00">transl.h</text>
</a>
</g>
<!-- Node1&#45;&gt;Node2 -->
<g id="edge2" class="edge"><title>Node1&#45;&gt;Node2</title>
<path fill="none" stroke="midnightblue" d="M1633.07,-223.079C1628.93,-213.842 1624.18,-203.239 1620.74,-195.571"/>
<polygon fill="midnightblue" stroke="midnightblue" points="1629.95,-224.669 1637.23,-232.362 1636.33,-221.805 1629.95,-224.669"/>
</g>
<!-- Node14 -->
<g id="node27" class="node"><title>Node14</title>
<a xlink:href="posvecdatasettr_8h.html" target="_top" xlink:title="posvecdatasettr.h">
<polygon fill="white" stroke="black" points="442.5,-116.5 442.5,-137.5 537.5,-137.5 537.5,-116.5 442.5,-116.5"/>
<text text-anchor="middle" x="490" y="-124.5" font-family="Helvetica,sans-Serif" font-size="10.00">posvecdatasettr.h</text>
</a>
</g>
<!-- Node1&#45;&gt;Node14 -->
<g id="edge98" class="edge"><title>Node1&#45;&gt;Node14</title>
<path fill="none" stroke="midnightblue" d="M1600.95,-239.416C1458.77,-226.907 974.195,-183.461 575,-138 562.877,-136.619 549.799,-134.995 537.622,-133.424"/>
<polygon fill="midnightblue" stroke="midnightblue" points="1600.71,-242.908 1610.97,-240.297 1601.32,-235.935 1600.71,-242.908"/>
</g>
<!-- Node23 -->
<g id="node45" class="node"><title>Node23</title>
<a xlink:href="seistrctr_8h.html" target="_top" xlink:title="seistrctr.h">
<polygon fill="white" stroke="black" points="304,-116.5 304,-137.5 364,-137.5 364,-116.5 304,-116.5"/>
<text text-anchor="middle" x="334" y="-124.5" font-family="Helvetica,sans-Serif" font-size="10.00">seistrctr.h</text>
</a>
</g>
<!-- Node1&#45;&gt;Node23 -->
<g id="edge100" class="edge"><title>Node1&#45;&gt;Node23</title>
<path fill="none" stroke="midnightblue" d="M1600.74,-241.046C1490.57,-235.668 1180.36,-219.47 923,-196 708.454,-176.434 451.121,-142.754 364.289,-131.105"/>
<polygon fill="midnightblue" stroke="midnightblue" points="1600.61,-244.544 1610.77,-241.533 1600.95,-237.552 1600.61,-244.544"/>
</g>
<!-- Node34 -->
<g id="node71" class="node"><title>Node34</title>
<a xlink:href="attribdescsettr_8h.html" target="_top" xlink:title="attribdescsettr.h">
<polygon fill="white" stroke="black" points="3094.5,-116.5 3094.5,-137.5 3181.5,-137.5 3181.5,-116.5 3094.5,-116.5"/>
<text text-anchor="middle" x="3138" y="-124.5" font-family="Helvetica,sans-Serif" font-size="10.00">attribdescsettr.h</text>
</a>
</g>
<!-- Node1&#45;&gt;Node34 -->
<g id="edge102" class="edge"><title>Node1&#45;&gt;Node34</title>
<path fill="none" stroke="midnightblue" d="M1649.11,-222.725C1656.02,-206.385 1668.26,-184.468 1687,-174 1754.88,-136.092 3008.78,-147.083 3086,-138 3088.75,-137.677 3091.57,-137.278 3094.4,-136.826"/>
<polygon fill="midnightblue" stroke="midnightblue" points="1645.68,-221.892 1645.32,-232.481 1652.2,-224.427 1645.68,-221.892"/>
</g>
<!-- Node46 -->
<g id="node98" class="node"><title>Node46</title>
<a xlink:href="uidatapointsetmerger_8h.html" target="_top" xlink:title="uidatapointsetmerger.h">
<polygon fill="white" stroke="black" points="1696,-174.5 1696,-195.5 1812,-195.5 1812,-174.5 1696,-174.5"/>
<text text-anchor="middle" x="1754" y="-182.5" font-family="Helvetica,sans-Serif" font-size="10.00">uidatapointsetmerger.h</text>
</a>
</g>
<!-- Node1&#45;&gt;Node46 -->
<g id="edge104" class="edge"><title>Node1&#45;&gt;Node46</title>
<path fill="none" stroke="midnightblue" d="M1671.36,-227.794C1690.9,-217.675 1716.09,-204.634 1733.49,-195.621"/>
<polygon fill="midnightblue" stroke="midnightblue" points="1669.55,-224.79 1662.28,-232.497 1672.77,-231.006 1669.55,-224.79"/>
</g>
<!-- Node47 -->
<g id="node100" class="node"><title>Node47</title>
<a xlink:href="uiseissel_8h.html" target="_top" xlink:title="uiseissel.h">
<polygon fill="white" stroke="black" points="3245.5,-174.5 3245.5,-195.5 3308.5,-195.5 3308.5,-174.5 3245.5,-174.5"/>
<text text-anchor="middle" x="3277" y="-182.5" font-family="Helvetica,sans-Serif" font-size="10.00">uiseissel.h</text>
</a>
</g>
<!-- Node1&#45;&gt;Node47 -->
<g id="edge106" class="edge"><title>Node1&#45;&gt;Node47</title>
<path fill="none" stroke="midnightblue" d="M1683.54,-241.527C1914.94,-233.318 3041.96,-193.338 3245.47,-186.118"/>
<polygon fill="midnightblue" stroke="midnightblue" points="1683.07,-238.041 1673.2,-241.893 1683.32,-245.036 1683.07,-238.041"/>
</g>
<!-- Node3 -->
<g id="node5" class="node"><title>Node3</title>
<a xlink:href="elasticpropseltransl_8h.html" target="_top" xlink:title="elasticpropseltransl.h">
<polygon fill="white" stroke="black" points="2030.5,-116.5 2030.5,-137.5 2139.5,-137.5 2139.5,-116.5 2030.5,-116.5"/>
<text text-anchor="middle" x="2085" y="-124.5" font-family="Helvetica,sans-Serif" font-size="10.00">elasticpropseltransl.h</text>
</a>
</g>
<!-- Node2&#45;&gt;Node3 -->
<g id="edge4" class="edge"><title>Node2&#45;&gt;Node3</title>
<path fill="none" stroke="midnightblue" d="M1650.73,-174.67C1651.83,-174.431 1652.92,-174.207 1654,-174 1815.39,-143.021 1859.16,-160.149 2022,-138 2024.75,-137.626 2027.56,-137.22 2030.4,-136.792"/>
<polygon fill="midnightblue" stroke="midnightblue" points="1649.65,-171.33 1640.78,-177.117 1651.32,-178.127 1649.65,-171.33"/>
</g>
<!-- Node4 -->
<g id="node7" class="node"><title>Node4</title>
<a xlink:href="ioobjselectiontransl_8h.html" target="_top" xlink:title="ioobjselectiontransl.h">
<polygon fill="white" stroke="black" points="2525,-116.5 2525,-137.5 2633,-137.5 2633,-116.5 2525,-116.5"/>
<text text-anchor="middle" x="2579" y="-124.5" font-family="Helvetica,sans-Serif" font-size="10.00">ioobjselectiontransl.h</text>
</a>
</g>
<!-- Node2&#45;&gt;Node4 -->
<g id="edge6" class="edge"><title>Node2&#45;&gt;Node4</title>
<path fill="none" stroke="midnightblue" d="M1650.71,-174.59C1651.82,-174.375 1652.92,-174.177 1654,-174 2032.44,-112.246 2134.76,-179.065 2516,-138 2518.87,-137.691 2521.81,-137.331 2524.77,-136.934"/>
<polygon fill="midnightblue" stroke="midnightblue" points="1649.69,-171.236 1640.74,-176.913 1651.28,-178.053 1649.69,-171.236"/>
</g>
<!-- Node5 -->
<g id="node9" class="node"><title>Node5</title>
<a xlink:href="mathformulatransl_8h.html" target="_top" xlink:title="mathformulatransl.h">
<polygon fill="white" stroke="black" points="2650.5,-116.5 2650.5,-137.5 2753.5,-137.5 2753.5,-116.5 2650.5,-116.5"/>
<text text-anchor="middle" x="2702" y="-124.5" font-family="Helvetica,sans-Serif" font-size="10.00">mathformulatransl.h</text>
</a>
</g>
<!-- Node2&#45;&gt;Node5 -->
<g id="edge8" class="edge"><title>Node2&#45;&gt;Node5</title>
<path fill="none" stroke="midnightblue" d="M1650.71,-174.583C1651.82,-174.369 1652.91,-174.174 1654,-174 2087.85,-104.387 2205.2,-185.744 2642,-138 2644.74,-137.701 2647.54,-137.349 2650.36,-136.958"/>
<polygon fill="midnightblue" stroke="midnightblue" points="1649.69,-171.227 1640.74,-176.894 1651.27,-178.046 1649.69,-171.227"/>
</g>
<!-- Node6 -->
<g id="node11" class="node"><title>Node6</title>
<a xlink:href="preloads_8h.html" target="_top" xlink:title="preloads.h">
<polygon fill="white" stroke="black" points="2771,-116.5 2771,-137.5 2833,-137.5 2833,-116.5 2771,-116.5"/>
<text text-anchor="middle" x="2802" y="-124.5" font-family="Helvetica,sans-Serif" font-size="10.00">preloads.h</text>
</a>
</g>
<!-- Node2&#45;&gt;Node6 -->
<g id="edge10" class="edge"><title>Node2&#45;&gt;Node6</title>
<path fill="none" stroke="midnightblue" d="M1650.71,-174.577C1651.82,-174.365 1652.91,-174.172 1654,-174 2140.63,-96.9016 2274.86,-211.835 2762,-138 2764.85,-137.568 2767.78,-137.003 2770.71,-136.356"/>
<polygon fill="midnightblue" stroke="midnightblue" points="1649.69,-171.22 1640.74,-176.879 1651.27,-178.041 1649.69,-171.22"/>
</g>
<!-- Node7 -->
<g id="node13" class="node"><title>Node7</title>
<a xlink:href="rangeposprovider_8h.html" target="_top" xlink:title="rangeposprovider.h">
<polygon fill="white" stroke="black" points="2850.5,-116.5 2850.5,-137.5 2949.5,-137.5 2949.5,-116.5 2850.5,-116.5"/>
<text text-anchor="middle" x="2900" y="-124.5" font-family="Helvetica,sans-Serif" font-size="10.00">rangeposprovider.h</text>
</a>
</g>
<!-- Node2&#45;&gt;Node7 -->
<g id="edge12" class="edge"><title>Node2&#45;&gt;Node7</title>
<path fill="none" stroke="midnightblue" d="M1650.71,-174.574C1651.82,-174.363 1652.91,-174.171 1654,-174 2175.83,-91.9109 2316.88,-195.392 2842,-138 2844.75,-137.699 2847.57,-137.34 2850.4,-136.937"/>
<polygon fill="midnightblue" stroke="midnightblue" points="1649.69,-171.216 1640.74,-176.871 1651.27,-178.038 1649.69,-171.216"/>
</g>
<!-- Node8 -->
<g id="node15" class="node"><title>Node8</title>
<a xlink:href="survgeometrytransl_8h.html" target="_top" xlink:title="survgeometrytransl.h">
<polygon fill="white" stroke="black" points="560,-58.5 560,-79.5 668,-79.5 668,-58.5 560,-58.5"/>
<text text-anchor="middle" x="614" y="-66.5" font-family="Helvetica,sans-Serif" font-size="10.00">survgeometrytransl.h</text>
</a>
</g>
<!-- Node2&#45;&gt;Node8 -->
<g id="edge14" class="edge"><title>Node2&#45;&gt;Node8</title>
<path fill="none" stroke="midnightblue" d="M1581.37,-184.074C1403.64,-179.243 601.625,-156.446 584,-138 567.937,-121.189 588.716,-94.3972 602.869,-79.6315"/>
<polygon fill="midnightblue" stroke="midnightblue" points="1581.37,-187.576 1591.47,-184.348 1581.56,-180.578 1581.37,-187.576"/>
</g>
<!-- Node10 -->
<g id="node19" class="node"><title>Node10</title>
<a xlink:href="strattransl_8h.html" target="_top" xlink:title="strattransl.h">
<polygon fill="white" stroke="black" points="593,-116.5 593,-137.5 661,-137.5 661,-116.5 593,-116.5"/>
<text text-anchor="middle" x="627" y="-124.5" font-family="Helvetica,sans-Serif" font-size="10.00">strattransl.h</text>
</a>
</g>
<!-- Node2&#45;&gt;Node10 -->
<g id="edge18" class="edge"><title>Node2&#45;&gt;Node10</title>
<path fill="none" stroke="midnightblue" d="M1580.8,-184.198C1431.61,-180.652 850.829,-165.337 670,-138 667.105,-137.562 664.122,-137.012 661.14,-136.393"/>
<polygon fill="midnightblue" stroke="midnightblue" points="1581.1,-187.706 1591.18,-184.442 1581.26,-180.708 1581.1,-187.706"/>
</g>
<!-- Node11 -->
<g id="node21" class="node"><title>Node11</title>
<a xlink:href="strattreetransl_8h.html" target="_top" xlink:title="strattreetransl.h">
<polygon fill="white" stroke="black" points="678.5,-116.5 678.5,-137.5 763.5,-137.5 763.5,-116.5 678.5,-116.5"/>
<text text-anchor="middle" x="721" y="-124.5" font-family="Helvetica,sans-Serif" font-size="10.00">strattreetransl.h</text>
</a>
</g>
<!-- Node2&#45;&gt;Node11 -->
<g id="edge20" class="edge"><title>Node2&#45;&gt;Node11</title>
<path fill="none" stroke="midnightblue" d="M1581.07,-183.787C1442.65,-178.866 932.35,-159.621 772,-138 769.307,-137.637 766.545,-137.208 763.767,-136.733"/>
<polygon fill="midnightblue" stroke="midnightblue" points="1581,-187.287 1591.12,-184.142 1581.25,-180.291 1581,-187.287"/>
</g>
<!-- Node12 -->
<g id="node23" class="node"><title>Node12</title>
<a xlink:href="picksettr_8h.html" target="_top" xlink:title="picksettr.h">
<polygon fill="white" stroke="black" points="1273,-116.5 1273,-137.5 1335,-137.5 1335,-116.5 1273,-116.5"/>
<text text-anchor="middle" x="1304" y="-124.5" font-family="Helvetica,sans-Serif" font-size="10.00">picksettr.h</text>
</a>
</g>
<!-- Node2&#45;&gt;Node12 -->
<g id="edge22" class="edge"><title>Node2&#45;&gt;Node12</title>
<path fill="none" stroke="midnightblue" d="M1581.46,-180.133C1529.6,-172.578 1428.67,-156.91 1344,-138 1341.19,-137.372 1338.28,-136.672 1335.37,-135.937"/>
<polygon fill="midnightblue" stroke="midnightblue" points="1581.06,-183.612 1591.46,-181.578 1582.06,-176.684 1581.06,-183.612"/>
</g>
<!-- Node2&#45;&gt;Node14 -->
<g id="edge26" class="edge"><title>Node2&#45;&gt;Node14</title>
<path fill="none" stroke="midnightblue" d="M1581.16,-184.093C1421.37,-179.836 757.546,-161.075 551,-138 546.615,-137.51 542.07,-136.895 537.529,-136.207"/>
<polygon fill="midnightblue" stroke="midnightblue" points="1581.28,-187.597 1591.37,-184.363 1581.46,-180.6 1581.28,-187.597"/>
</g>
<!-- Node16 -->
<g id="node31" class="node"><title>Node16</title>
<a xlink:href="probdenfunctr_8h.html" target="_top" xlink:title="probdenfunctr.h">
<polygon fill="white" stroke="black" points="879,-116.5 879,-137.5 963,-137.5 963,-116.5 879,-116.5"/>
<text text-anchor="middle" x="921" y="-124.5" font-family="Helvetica,sans-Serif" font-size="10.00">probdenfunctr.h</text>
</a>
</g>
<!-- Node2&#45;&gt;Node16 -->
<g id="edge30" class="edge"><title>Node2&#45;&gt;Node16</title>
<path fill="none" stroke="midnightblue" d="M1581.18,-184.166C1484.22,-181.477 1203.02,-171.179 972,-138 969.131,-137.588 966.182,-137.107 963.219,-136.581"/>
<polygon fill="midnightblue" stroke="midnightblue" points="1581.21,-187.668 1591.3,-184.437 1581.4,-180.671 1581.21,-187.668"/>
</g>
<!-- Node17 -->
<g id="node33" class="node"><title>Node17</title>
<a xlink:href="randomlinetr_8h.html" target="_top" xlink:title="randomlinetr.h">
<polygon fill="white" stroke="black" points="981,-116.5 981,-137.5 1059,-137.5 1059,-116.5 981,-116.5"/>
<text text-anchor="middle" x="1020" y="-124.5" font-family="Helvetica,sans-Serif" font-size="10.00">randomlinetr.h</text>
</a>
</g>
<!-- Node2&#45;&gt;Node17 -->
<g id="edge32" class="edge"><title>Node2&#45;&gt;Node17</title>
<path fill="none" stroke="midnightblue" d="M1581.16,-183.702C1494.15,-180.094 1260.44,-168.152 1068,-138 1065.13,-137.55 1062.17,-137.026 1059.21,-136.454"/>
<polygon fill="midnightblue" stroke="midnightblue" points="1581.14,-187.204 1591.27,-184.111 1581.42,-180.21 1581.14,-187.204"/>
</g>
<!-- Node18 -->
<g id="node35" class="node"><title>Node18</title>
<a xlink:href="embodytr_8h.html" target="_top" xlink:title="embodytr.h">
<polygon fill="white" stroke="black" points="1076.5,-116.5 1076.5,-137.5 1141.5,-137.5 1141.5,-116.5 1076.5,-116.5"/>
<text text-anchor="middle" x="1109" y="-124.5" font-family="Helvetica,sans-Serif" font-size="10.00">embodytr.h</text>
</a>
</g>
<!-- Node2&#45;&gt;Node18 -->
<g id="edge34" class="edge"><title>Node2&#45;&gt;Node18</title>
<path fill="none" stroke="midnightblue" d="M1581.09,-183.41C1503.19,-179.44 1309.46,-167.234 1150,-138 1147.25,-137.495 1144.41,-136.898 1141.57,-136.246"/>
<polygon fill="midnightblue" stroke="midnightblue" points="1581.14,-186.916 1591.3,-183.916 1581.48,-179.925 1581.14,-186.916"/>
</g>
<!-- Node19 -->
<g id="node37" class="node"><title>Node19</title>
<a xlink:href="emsticksettransl_8h.html" target="_top" xlink:title="emsticksettransl.h">
<polygon fill="white" stroke="black" points="1158.5,-116.5 1158.5,-137.5 1255.5,-137.5 1255.5,-116.5 1158.5,-116.5"/>
<text text-anchor="middle" x="1207" y="-124.5" font-family="Helvetica,sans-Serif" font-size="10.00">emsticksettransl.h</text>
</a>
</g>
<!-- Node2&#45;&gt;Node19 -->
<g id="edge36" class="edge"><title>Node2&#45;&gt;Node19</title>
<path fill="none" stroke="midnightblue" d="M1580.94,-181C1517.52,-173.615 1379.62,-156.859 1264,-138 1261.31,-137.562 1258.56,-137.094 1255.78,-136.607"/>
<polygon fill="midnightblue" stroke="midnightblue" points="1580.84,-184.512 1591.17,-182.186 1581.64,-177.559 1580.84,-184.512"/>
</g>
<!-- Node20 -->
<g id="node39" class="node"><title>Node20</title>
<a xlink:href="emsurfacetr_8h.html" target="_top" xlink:title="emsurfacetr.h">
<polygon fill="white" stroke="black" points="2156.5,-116.5 2156.5,-137.5 2233.5,-137.5 2233.5,-116.5 2156.5,-116.5"/>
<text text-anchor="middle" x="2195" y="-124.5" font-family="Helvetica,sans-Serif" font-size="10.00">emsurfacetr.h</text>
</a>
</g>
<!-- Node2&#45;&gt;Node20 -->
<g id="edge38" class="edge"><title>Node2&#45;&gt;Node20</title>
<path fill="none" stroke="midnightblue" d="M1650.72,-174.634C1651.82,-174.406 1652.92,-174.194 1654,-174 1870.69,-135.183 1930.38,-171.185 2148,-138 2150.73,-137.583 2153.54,-137.091 2156.37,-136.55"/>
<polygon fill="midnightblue" stroke="midnightblue" points="1649.67,-171.288 1640.76,-177.027 1651.3,-178.094 1649.67,-171.288"/>
</g>
<!-- Node22 -->
<g id="node43" class="node"><title>Node22</title>
<a xlink:href="welltransl_8h.html" target="_top" xlink:title="welltransl.h">
<polygon fill="white" stroke="black" points="1353,-116.5 1353,-137.5 1419,-137.5 1419,-116.5 1353,-116.5"/>
<text text-anchor="middle" x="1386" y="-124.5" font-family="Helvetica,sans-Serif" font-size="10.00">welltransl.h</text>
</a>
</g>
<!-- Node2&#45;&gt;Node22 -->
<g id="edge42" class="edge"><title>Node2&#45;&gt;Node22</title>
<path fill="none" stroke="midnightblue" d="M1581.37,-176.466C1543.63,-167.136 1481.48,-151.687 1428,-138 1425.08,-137.252 1422.05,-136.47 1419.01,-135.682"/>
<polygon fill="midnightblue" stroke="midnightblue" points="1580.79,-179.928 1591.34,-178.929 1582.47,-173.133 1580.79,-179.928"/>
</g>
<!-- Node2&#45;&gt;Node23 -->
<g id="edge44" class="edge"><title>Node2&#45;&gt;Node23</title>
<path fill="none" stroke="midnightblue" d="M1581.13,-184.503C1438.61,-182.282 886.59,-171.849 434,-138 410.487,-136.241 383.964,-133.279 364.144,-130.871"/>
<polygon fill="midnightblue" stroke="midnightblue" points="1581.37,-188.007 1591.42,-184.66 1581.48,-181.007 1581.37,-188.007"/>
</g>
<!-- Node31 -->
<g id="node62" class="node"><title>Node31</title>
<a xlink:href="seispsioprov_8h.html" target="_top" xlink:title="seispsioprov.h">
<polygon fill="white" stroke="black" points="781,-116.5 781,-137.5 861,-137.5 861,-116.5 781,-116.5"/>
<text text-anchor="middle" x="821" y="-124.5" font-family="Helvetica,sans-Serif" font-size="10.00">seispsioprov.h</text>
</a>
</g>
<!-- Node2&#45;&gt;Node31 -->
<g id="edge62" class="edge"><title>Node2&#45;&gt;Node31</title>
<path fill="none" stroke="midnightblue" d="M1581.19,-184.755C1474.37,-183.587 1142,-176.851 870,-138 867.065,-137.581 864.046,-137.079 861.016,-136.524"/>
<polygon fill="midnightblue" stroke="midnightblue" points="1581.35,-188.257 1591.39,-184.857 1581.42,-181.257 1581.35,-188.257"/>
</g>
<!-- Node33 -->
<g id="node69" class="node"><title>Node33</title>
<a xlink:href="waveletio_8h.html" target="_top" xlink:title="waveletio.h">
<polygon fill="white" stroke="black" points="1437,-116.5 1437,-137.5 1503,-137.5 1503,-116.5 1437,-116.5"/>
<text text-anchor="middle" x="1470" y="-124.5" font-family="Helvetica,sans-Serif" font-size="10.00">waveletio.h</text>
</a>
</g>
<!-- Node2&#45;&gt;Node33 -->
<g id="edge72" class="edge"><title>Node2&#45;&gt;Node33</title>
<path fill="none" stroke="midnightblue" d="M1581.76,-171.4C1555.77,-161.072 1520.53,-147.073 1496.62,-137.575"/>
<polygon fill="midnightblue" stroke="midnightblue" points="1580.65,-174.722 1591.23,-175.161 1583.23,-168.216 1580.65,-174.722"/>
</g>
<!-- Node2&#45;&gt;Node34 -->
<g id="edge74" class="edge"><title>Node2&#45;&gt;Node34</title>
<path fill="none" stroke="midnightblue" d="M1650.71,-174.566C1651.82,-174.358 1652.91,-174.168 1654,-174 1968.58,-125.344 2769.85,-175.096 3086,-138 3088.75,-137.677 3091.57,-137.279 3094.4,-136.828"/>
<polygon fill="midnightblue" stroke="midnightblue" points="1649.7,-171.208 1640.73,-176.853 1651.26,-178.031 1649.7,-171.208"/>
</g>
<!-- Node36 -->
<g id="node75" class="node"><title>Node36</title>
<a xlink:href="volproctrans_8h.html" target="_top" xlink:title="volproctrans.h">
<polygon fill="white" stroke="black" points="1521,-116.5 1521,-137.5 1599,-137.5 1599,-116.5 1521,-116.5"/>
<text text-anchor="middle" x="1560" y="-124.5" font-family="Helvetica,sans-Serif" font-size="10.00">volproctrans.h</text>
</a>
</g>
<!-- Node2&#45;&gt;Node36 -->
<g id="edge78" class="edge"><title>Node2&#45;&gt;Node36</title>
<path fill="none" stroke="midnightblue" d="M1598.73,-167.118C1589.39,-157.438 1578.16,-145.81 1570.21,-137.571"/>
<polygon fill="midnightblue" stroke="midnightblue" points="1596.26,-169.599 1605.73,-174.362 1601.3,-164.737 1596.26,-169.599"/>
</g>
<!-- Node37 -->
<g id="node77" class="node"><title>Node37</title>
<a xlink:href="prestackeventtransl_8h.html" target="_top" xlink:title="prestackeventtransl.h">
<polygon fill="white" stroke="black" points="1617,-116.5 1617,-137.5 1727,-137.5 1727,-116.5 1617,-116.5"/>
<text text-anchor="middle" x="1672" y="-124.5" font-family="Helvetica,sans-Serif" font-size="10.00">prestackeventtransl.h</text>
</a>
</g>
<!-- Node2&#45;&gt;Node37 -->
<g id="edge80" class="edge"><title>Node2&#45;&gt;Node37</title>
<path fill="none" stroke="midnightblue" d="M1633.27,-167.118C1642.61,-157.438 1653.84,-145.81 1661.79,-137.571"/>
<polygon fill="midnightblue" stroke="midnightblue" points="1630.7,-164.737 1626.27,-174.362 1635.74,-169.599 1630.7,-164.737"/>
</g>
<!-- Node38 -->
<g id="node79" class="node"><title>Node38</title>
<a xlink:href="prestackmutedeftransl_8h.html" target="_top" xlink:title="prestackmutedeftransl.h">
<polygon fill="white" stroke="black" points="1745,-116.5 1745,-137.5 1867,-137.5 1867,-116.5 1745,-116.5"/>
<text text-anchor="middle" x="1806" y="-124.5" font-family="Helvetica,sans-Serif" font-size="10.00">prestackmutedeftransl.h</text>
</a>
</g>
<!-- Node2&#45;&gt;Node38 -->
<g id="edge82" class="edge"><title>Node2&#45;&gt;Node38</title>
<path fill="none" stroke="midnightblue" d="M1650.44,-174.487C1684.76,-164.011 1737.16,-148.016 1771.5,-137.533"/>
<polygon fill="midnightblue" stroke="midnightblue" points="1649.38,-171.15 1640.84,-177.418 1651.43,-177.845 1649.38,-171.15"/>
</g>
<!-- Node39 -->
<g id="node81" class="node"><title>Node39</title>
<a xlink:href="prestackprocessortransl_8h.html" target="_top" xlink:title="prestackprocessortransl.h">
<polygon fill="white" stroke="black" points="1884.5,-116.5 1884.5,-137.5 2013.5,-137.5 2013.5,-116.5 1884.5,-116.5"/>
<text text-anchor="middle" x="1949" y="-124.5" font-family="Helvetica,sans-Serif" font-size="10.00">prestackprocessortransl.h</text>
</a>
</g>
<!-- Node2&#45;&gt;Node39 -->
<g id="edge84" class="edge"><title>Node2&#45;&gt;Node39</title>
<path fill="none" stroke="midnightblue" d="M1650.75,-174.756C1651.84,-174.492 1652.93,-174.24 1654,-174 1676.02,-169.079 1804.39,-149.135 1884.37,-136.863"/>
<polygon fill="midnightblue" stroke="midnightblue" points="1649.62,-171.432 1640.82,-177.337 1651.38,-178.206 1649.62,-171.432"/>
</g>
<!-- Node40 -->
<g id="node83" class="node"><title>Node40</title>
<a xlink:href="mpesetup_8h.html" target="_top" xlink:title="mpesetup.h">
<polygon fill="white" stroke="black" points="2353,-116.5 2353,-137.5 2421,-137.5 2421,-116.5 2353,-116.5"/>
<text text-anchor="middle" x="2387" y="-124.5" font-family="Helvetica,sans-Serif" font-size="10.00">mpesetup.h</text>
</a>
</g>
<!-- Node2&#45;&gt;Node40 -->
<g id="edge86" class="edge"><title>Node2&#45;&gt;Node40</title>
<path fill="none" stroke="midnightblue" d="M1650.72,-174.605C1651.82,-174.385 1652.92,-174.183 1654,-174 1956.81,-122.97 2040.42,-184.28 2344,-138 2346.89,-137.559 2349.88,-137.006 2352.86,-136.385"/>
<polygon fill="midnightblue" stroke="midnightblue" points="1649.68,-171.253 1640.75,-176.951 1651.28,-178.067 1649.68,-171.253"/>
</g>
<!-- Node42 -->
<g id="node87" class="node"><title>Node42</title>
<a xlink:href="uiioobjinserter_8h.html" target="_top" xlink:title="uiioobjinserter.h">
<polygon fill="white" stroke="black" points="2250.5,-116.5 2250.5,-137.5 2335.5,-137.5 2335.5,-116.5 2250.5,-116.5"/>
<text text-anchor="middle" x="2293" y="-124.5" font-family="Helvetica,sans-Serif" font-size="10.00">uiioobjinserter.h</text>
</a>
</g>
<!-- Node2&#45;&gt;Node42 -->
<g id="edge90" class="edge"><title>Node2&#45;&gt;Node42</title>
<path fill="none" stroke="midnightblue" d="M1650.72,-174.618C1651.82,-174.395 1652.92,-174.187 1654,-174 1911.98,-129.328 1982.62,-173.703 2242,-138 2244.69,-137.629 2247.45,-137.195 2250.23,-136.716"/>
<polygon fill="midnightblue" stroke="midnightblue" points="1649.67,-171.268 1640.75,-176.984 1651.29,-178.079 1649.67,-171.268"/>
</g>
<!-- Node43 -->
<g id="node89" class="node"><title>Node43</title>
<a xlink:href="uiioobjselwritetransl_8h.html" target="_top" xlink:title="uiioobjselwritetransl.h">
<polygon fill="white" stroke="red" points="2967,-116.5 2967,-137.5 3077,-137.5 3077,-116.5 2967,-116.5"/>
<text text-anchor="middle" x="3022" y="-124.5" font-family="Helvetica,sans-Serif" font-size="10.00">uiioobjselwritetransl.h</text>
</a>
</g>
<!-- Node2&#45;&gt;Node43 -->
<g id="edge92" class="edge"><title>Node2&#45;&gt;Node43</title>
<path fill="none" stroke="midnightblue" d="M1650.71,-174.57C1651.82,-174.36 1652.91,-174.169 1654,-174 1940.43,-129.337 2669.53,-166.625 2958,-138 2960.92,-137.711 2963.9,-137.366 2966.91,-136.982"/>
<polygon fill="midnightblue" stroke="midnightblue" points="1649.7,-171.212 1640.73,-176.862 1651.26,-178.034 1649.7,-171.212"/>
</g>
<!-- Node45 -->
<g id="node93" class="node"><title>Node45</title>
<a xlink:href="odsession_8h.html" target="_top" xlink:title="odsession.h">
<polygon fill="white" stroke="red" points="2438.5,-116.5 2438.5,-137.5 2507.5,-137.5 2507.5,-116.5 2438.5,-116.5"/>
<text text-anchor="middle" x="2473" y="-124.5" font-family="Helvetica,sans-Serif" font-size="10.00">odsession.h</text>
</a>
</g>
<!-- Node2&#45;&gt;Node45 -->
<g id="edge96" class="edge"><title>Node2&#45;&gt;Node45</title>
<path fill="none" stroke="midnightblue" d="M1650.71,-174.597C1651.82,-174.379 1652.92,-174.179 1654,-174 1994.62,-117.609 2088.53,-189.049 2430,-138 2432.74,-137.59 2435.57,-137.078 2438.39,-136.5"/>
<polygon fill="midnightblue" stroke="midnightblue" points="1649.68,-171.243 1640.74,-176.93 1651.28,-178.059 1649.68,-171.243"/>
</g>
<!-- Node9 -->
<g id="node17" class="node"><title>Node9</title>
<a xlink:href="segydirect2d_8h.html" target="_top" xlink:title="segydirect2d.h">
<polygon fill="white" stroke="black" points="458,-0.5 458,-21.5 538,-21.5 538,-0.5 458,-0.5"/>
<text text-anchor="middle" x="498" y="-8.5" font-family="Helvetica,sans-Serif" font-size="10.00">segydirect2d.h</text>
</a>
</g>
<!-- Node8&#45;&gt;Node9 -->
<g id="edge16" class="edge"><title>Node8&#45;&gt;Node9</title>
<path fill="none" stroke="midnightblue" d="M583.864,-53.9319C563.586,-43.7932 537.35,-30.6748 519.242,-21.6212"/>
<polygon fill="midnightblue" stroke="midnightblue" points="582.484,-57.1549 592.993,-58.4966 585.614,-50.8939 582.484,-57.1549"/>
</g>
<!-- Node13 -->
<g id="node25" class="node"><title>Node13</title>
<a xlink:href="picksetfact_8h.html" target="_top" xlink:title="picksetfact.h">
<polygon fill="white" stroke="black" points="1267.5,-58.5 1267.5,-79.5 1340.5,-79.5 1340.5,-58.5 1267.5,-58.5"/>
<text text-anchor="middle" x="1304" y="-66.5" font-family="Helvetica,sans-Serif" font-size="10.00">picksetfact.h</text>
</a>
</g>
<!-- Node12&#45;&gt;Node13 -->
<g id="edge24" class="edge"><title>Node12&#45;&gt;Node13</title>
<path fill="none" stroke="midnightblue" d="M1304,-106.191C1304,-97.1684 1304,-86.9941 1304,-79.5707"/>
<polygon fill="midnightblue" stroke="midnightblue" points="1300.5,-106.362 1304,-116.362 1307.5,-106.362 1300.5,-106.362"/>
</g>
<!-- Node15 -->
<g id="node29" class="node"><title>Node15</title>
<a xlink:href="posvecdatasetfact_8h.html" target="_top" xlink:title="posvecdatasetfact.h">
<polygon fill="white" stroke="black" points="437.5,-58.5 437.5,-79.5 542.5,-79.5 542.5,-58.5 437.5,-58.5"/>
<text text-anchor="middle" x="490" y="-66.5" font-family="Helvetica,sans-Serif" font-size="10.00">posvecdatasetfact.h</text>
</a>
</g>
<!-- Node14&#45;&gt;Node15 -->
<g id="edge28" class="edge"><title>Node14&#45;&gt;Node15</title>
<path fill="none" stroke="midnightblue" d="M490,-106.191C490,-97.1684 490,-86.9941 490,-79.5707"/>
<polygon fill="midnightblue" stroke="midnightblue" points="486.5,-106.362 490,-116.362 493.5,-106.362 486.5,-106.362"/>
</g>
<!-- Node21 -->
<g id="node41" class="node"><title>Node21</title>
<a xlink:href="lmkemfaulttransl_8h.html" target="_top" xlink:title="lmkemfaulttransl.h">
<polygon fill="white" stroke="black" points="2146.5,-58.5 2146.5,-79.5 2243.5,-79.5 2243.5,-58.5 2146.5,-58.5"/>
<text text-anchor="middle" x="2195" y="-66.5" font-family="Helvetica,sans-Serif" font-size="10.00">lmkemfaulttransl.h</text>
</a>
</g>
<!-- Node20&#45;&gt;Node21 -->
<g id="edge40" class="edge"><title>Node20&#45;&gt;Node21</title>
<path fill="none" stroke="midnightblue" d="M2195,-106.191C2195,-97.1684 2195,-86.9941 2195,-79.5707"/>
<polygon fill="midnightblue" stroke="midnightblue" points="2191.5,-106.362 2195,-116.362 2198.5,-106.362 2191.5,-106.362"/>
</g>
<!-- Node24 -->
<g id="node47" class="node"><title>Node24</title>
<a xlink:href="seis2dlineio_8h.html" target="_top" xlink:title="seis2dlineio.h">
<polygon fill="white" stroke="red" points="344,-58.5 344,-79.5 420,-79.5 420,-58.5 344,-58.5"/>
<text text-anchor="middle" x="382" y="-66.5" font-family="Helvetica,sans-Serif" font-size="10.00">seis2dlineio.h</text>
</a>
</g>
<!-- Node23&#45;&gt;Node24 -->
<g id="edge46" class="edge"><title>Node23&#45;&gt;Node24</title>
<path fill="none" stroke="midnightblue" d="M349.277,-108.541C357.19,-98.9786 366.568,-87.6467 373.252,-79.5707"/>
<polygon fill="midnightblue" stroke="midnightblue" points="346.483,-106.426 342.804,-116.362 351.876,-110.889 346.483,-106.426"/>
</g>
<!-- Node25 -->
<g id="node50" class="node"><title>Node25</title>
<a xlink:href="segydirecttr_8h.html" target="_top" xlink:title="segydirecttr.h">
<polygon fill="white" stroke="black" points="686,-58.5 686,-79.5 762,-79.5 762,-58.5 686,-58.5"/>
<text text-anchor="middle" x="724" y="-66.5" font-family="Helvetica,sans-Serif" font-size="10.00">segydirecttr.h</text>
</a>
</g>
<!-- Node23&#45;&gt;Node25 -->
<g id="edge50" class="edge"><title>Node23&#45;&gt;Node25</title>
<path fill="none" stroke="midnightblue" d="M374.57,-122.688C438.961,-115.565 568.39,-100.105 677,-80 679.884,-79.4661 682.858,-78.8726 685.843,-78.2458"/>
<polygon fill="midnightblue" stroke="midnightblue" points="373.994,-119.23 364.435,-123.8 374.757,-126.189 373.994,-119.23"/>
</g>
<!-- Node27 -->
<g id="node54" class="node"><title>Node27</title>
<a xlink:href="segytr_8h.html" target="_top" xlink:title="segytr.h">
<polygon fill="white" stroke="black" points="0,-58.5 0,-79.5 52,-79.5 52,-58.5 0,-58.5"/>
<text text-anchor="middle" x="26" y="-66.5" font-family="Helvetica,sans-Serif" font-size="10.00">segytr.h</text>
</a>
</g>
<!-- Node23&#45;&gt;Node27 -->
<g id="edge54" class="edge"><title>Node23&#45;&gt;Node27</title>
<path fill="none" stroke="midnightblue" d="M293.727,-121.789C240.163,-114.467 142.727,-99.7837 61,-80 58.1523,-79.3107 55.1979,-78.5139 52.2672,-77.6706"/>
<polygon fill="midnightblue" stroke="midnightblue" points="293.459,-125.285 303.837,-123.155 294.396,-118.348 293.459,-125.285"/>
</g>
<!-- Node28 -->
<g id="node56" class="node"><title>Node28</title>
<a xlink:href="seisblockstr_8h.html" target="_top" xlink:title="seisblockstr.h">
<polygon fill="white" stroke="black" points="69.5,-58.5 69.5,-79.5 146.5,-79.5 146.5,-58.5 69.5,-58.5"/>
<text text-anchor="middle" x="108" y="-66.5" font-family="Helvetica,sans-Serif" font-size="10.00">seisblockstr.h</text>
</a>
</g>
<!-- Node23&#45;&gt;Node28 -->
<g id="edge56" class="edge"><title>Node23&#45;&gt;Node28</title>
<path fill="none" stroke="midnightblue" d="M294.218,-116.79C252.7,-106.135 188.025,-89.5374 146.856,-78.9718"/>
<polygon fill="midnightblue" stroke="midnightblue" points="293.433,-120.202 303.989,-119.298 295.173,-113.422 293.433,-120.202"/>
</g>
<!-- Node29 -->
<g id="node58" class="node"><title>Node29</title>
<a xlink:href="seiscbvs_8h.html" target="_top" xlink:title="seiscbvs.h">
<polygon fill="white" stroke="black" points="164,-58.5 164,-79.5 228,-79.5 228,-58.5 164,-58.5"/>
<text text-anchor="middle" x="196" y="-66.5" font-family="Helvetica,sans-Serif" font-size="10.00">seiscbvs.h</text>
</a>
</g>
<!-- Node23&#45;&gt;Node29 -->
<g id="edge58" class="edge"><title>Node23&#45;&gt;Node29</title>
<path fill="none" stroke="midnightblue" d="M299.774,-112.615C275.443,-102.389 243.3,-88.8796 221.271,-79.6212"/>
<polygon fill="midnightblue" stroke="midnightblue" points="298.434,-115.849 309.009,-116.497 301.146,-109.395 298.434,-115.849"/>
</g>
<!-- Node30 -->
<g id="node60" class="node"><title>Node30</title>
<a xlink:href="seispscubetr_8h.html" target="_top" xlink:title="seispscubetr.h">
<polygon fill="white" stroke="black" points="246,-58.5 246,-79.5 326,-79.5 326,-58.5 246,-58.5"/>
<text text-anchor="middle" x="286" y="-66.5" font-family="Helvetica,sans-Serif" font-size="10.00">seispscubetr.h</text>
</a>
</g>
<!-- Node23&#45;&gt;Node30 -->
<g id="edge60" class="edge"><title>Node23&#45;&gt;Node30</title>
<path fill="none" stroke="midnightblue" d="M318.723,-108.541C310.81,-98.9786 301.432,-87.6467 294.748,-79.5707"/>
<polygon fill="midnightblue" stroke="midnightblue" points="316.124,-110.889 325.196,-116.362 321.517,-106.426 316.124,-110.889"/>
</g>
<!-- Node24&#45;&gt;Node9 -->
<g id="edge48" class="edge"><title>Node24&#45;&gt;Node9</title>
<path fill="none" stroke="midnightblue" d="M412.136,-53.9319C432.414,-43.7932 458.65,-30.6748 476.758,-21.6212"/>
<polygon fill="midnightblue" stroke="midnightblue" points="410.386,-50.8939 403.007,-58.4966 413.516,-57.1549 410.386,-50.8939"/>
</g>
<!-- Node26 -->
<g id="node52" class="node"><title>Node26</title>
<a xlink:href="seispsfact_8h.html" target="_top" xlink:title="seispsfact.h">
<polygon fill="white" stroke="black" points="792,-0.5 792,-21.5 862,-21.5 862,-0.5 792,-0.5"/>
<text text-anchor="middle" x="827" y="-8.5" font-family="Helvetica,sans-Serif" font-size="10.00">seispsfact.h</text>
</a>
</g>
<!-- Node25&#45;&gt;Node26 -->
<g id="edge52" class="edge"><title>Node25&#45;&gt;Node26</title>
<path fill="none" stroke="midnightblue" d="M751.741,-53.379C769.638,-43.3011 792.437,-30.4624 808.228,-21.5707"/>
<polygon fill="midnightblue" stroke="midnightblue" points="749.888,-50.4055 742.892,-58.3619 753.323,-56.505 749.888,-50.4055"/>
</g>
<!-- Node31&#45;&gt;Node25 -->
<g id="edge64" class="edge"><title>Node31&#45;&gt;Node25</title>
<path fill="none" stroke="midnightblue" d="M794.41,-111.101C777.627,-101.066 756.413,-88.3808 741.679,-79.5707"/>
<polygon fill="midnightblue" stroke="midnightblue" points="792.83,-114.234 803.209,-116.362 796.422,-108.226 792.83,-114.234"/>
</g>
<!-- Node31&#45;&gt;Node26 -->
<g id="edge70" class="edge"><title>Node31&#45;&gt;Node26</title>
<path fill="none" stroke="midnightblue" d="M852.837,-111.046C864.555,-103.389 876.535,-93.0133 883,-80 894.532,-56.7876 866.811,-34.3257 846.39,-21.626"/>
<polygon fill="midnightblue" stroke="midnightblue" points="850.772,-108.204 844.022,-116.371 854.392,-114.196 850.772,-108.204"/>
</g>
<!-- Node32 -->
<g id="node65" class="node"><title>Node32</title>
<a xlink:href="seismulticubeps_8h.html" target="_top" xlink:title="seismulticubeps.h">
<polygon fill="white" stroke="black" points="779.5,-58.5 779.5,-79.5 874.5,-79.5 874.5,-58.5 779.5,-58.5"/>
<text text-anchor="middle" x="827" y="-66.5" font-family="Helvetica,sans-Serif" font-size="10.00">seismulticubeps.h</text>
</a>
</g>
<!-- Node31&#45;&gt;Node32 -->
<g id="edge66" class="edge"><title>Node31&#45;&gt;Node32</title>
<path fill="none" stroke="midnightblue" d="M823.153,-106.191C824.086,-97.1684 825.139,-86.9941 825.906,-79.5707"/>
<polygon fill="midnightblue" stroke="midnightblue" points="819.648,-106.055 822.1,-116.362 826.611,-106.775 819.648,-106.055"/>
</g>
<!-- Node32&#45;&gt;Node26 -->
<g id="edge68" class="edge"><title>Node32&#45;&gt;Node26</title>
<path fill="none" stroke="midnightblue" d="M827,-48.1906C827,-39.1684 827,-28.9941 827,-21.5707"/>
<polygon fill="midnightblue" stroke="midnightblue" points="823.5,-48.3619 827,-58.3619 830.5,-48.3619 823.5,-48.3619"/>
</g>
<!-- Node35 -->
<g id="node73" class="node"><title>Node35</title>
<a xlink:href="attrfact_8h.html" target="_top" xlink:title="attrfact.h">
<polygon fill="white" stroke="black" points="3110,-58.5 3110,-79.5 3166,-79.5 3166,-58.5 3110,-58.5"/>
<text text-anchor="middle" x="3138" y="-66.5" font-family="Helvetica,sans-Serif" font-size="10.00">attrfact.h</text>
</a>
</g>
<!-- Node34&#45;&gt;Node35 -->
<g id="edge76" class="edge"><title>Node34&#45;&gt;Node35</title>
<path fill="none" stroke="midnightblue" d="M3138,-106.191C3138,-97.1684 3138,-86.9941 3138,-79.5707"/>
<polygon fill="midnightblue" stroke="midnightblue" points="3134.5,-106.362 3138,-116.362 3141.5,-106.362 3134.5,-106.362"/>
</g>
<!-- Node41 -->
<g id="node85" class="node"><title>Node41</title>
<a xlink:href="mpefact_8h.html" target="_top" xlink:title="mpefact.h">
<polygon fill="white" stroke="black" points="2357,-58.5 2357,-79.5 2417,-79.5 2417,-58.5 2357,-58.5"/>
<text text-anchor="middle" x="2387" y="-66.5" font-family="Helvetica,sans-Serif" font-size="10.00">mpefact.h</text>
</a>
</g>
<!-- Node40&#45;&gt;Node41 -->
<g id="edge88" class="edge"><title>Node40&#45;&gt;Node41</title>
<path fill="none" stroke="midnightblue" d="M2387,-106.191C2387,-97.1684 2387,-86.9941 2387,-79.5707"/>
<polygon fill="midnightblue" stroke="midnightblue" points="2383.5,-106.362 2387,-116.362 2390.5,-106.362 2383.5,-106.362"/>
</g>
<!-- Node44 -->
<g id="node91" class="node"><title>Node44</title>
<a xlink:href="uiseiswriteopts_8h.html" target="_top" xlink:title="uiseiswriteopts.h">
<polygon fill="white" stroke="black" points="2977,-58.5 2977,-79.5 3067,-79.5 3067,-58.5 2977,-58.5"/>
<text text-anchor="middle" x="3022" y="-66.5" font-family="Helvetica,sans-Serif" font-size="10.00">uiseiswriteopts.h</text>
</a>
</g>
<!-- Node43&#45;&gt;Node44 -->
<g id="edge94" class="edge"><title>Node43&#45;&gt;Node44</title>
<path fill="none" stroke="midnightblue" d="M3022,-106.191C3022,-97.1684 3022,-86.9941 3022,-79.5707"/>
<polygon fill="midnightblue" stroke="midnightblue" points="3018.5,-106.362 3022,-116.362 3025.5,-106.362 3018.5,-106.362"/>
</g>
<!-- Node48 -->
<g id="node102" class="node"><title>Node48</title>
<a xlink:href="uistaticsdesc_8h.html" target="_top" xlink:title="uistaticsdesc.h">
<polygon fill="white" stroke="black" points="3380.5,-116.5 3380.5,-137.5 3463.5,-137.5 3463.5,-116.5 3380.5,-116.5"/>
<text text-anchor="middle" x="3422" y="-124.5" font-family="Helvetica,sans-Serif" font-size="10.00">uistaticsdesc.h</text>
</a>
</g>
<!-- Node47&#45;&gt;Node48 -->
<g id="edge108" class="edge"><title>Node47&#45;&gt;Node48</title>
<path fill="none" stroke="midnightblue" d="M3312.62,-170.751C3338.23,-160.509 3372.2,-146.921 3395.45,-137.621"/>
<polygon fill="midnightblue" stroke="midnightblue" points="3311.24,-167.533 3303.26,-174.497 3313.84,-174.032 3311.24,-167.533"/>
</g>
<!-- Node49 -->
<g id="node104" class="node"><title>Node49</title>
<a xlink:href="uiveldesc_8h.html" target="_top" xlink:title="uiveldesc.h">
<polygon fill="white" stroke="black" points="3199,-116.5 3199,-137.5 3265,-137.5 3265,-116.5 3199,-116.5"/>
<text text-anchor="middle" x="3232" y="-124.5" font-family="Helvetica,sans-Serif" font-size="10.00">uiveldesc.h</text>
</a>
</g>
<!-- Node47&#45;&gt;Node49 -->
<g id="edge110" class="edge"><title>Node47&#45;&gt;Node49</title>
<path fill="none" stroke="midnightblue" d="M3262.45,-166.25C3255.08,-156.75 3246.4,-145.565 3240.2,-137.571"/>
<polygon fill="midnightblue" stroke="midnightblue" points="3259.85,-168.607 3268.75,-174.362 3265.38,-164.316 3259.85,-168.607"/>
</g>
<!-- Node50 -->
<g id="node106" class="node"><title>Node50</title>
<a xlink:href="uisteeringsel_8h.html" target="_top" xlink:title="uisteeringsel.h">
<polygon fill="white" stroke="red" points="3283,-116.5 3283,-137.5 3363,-137.5 3363,-116.5 3283,-116.5"/>
<text text-anchor="middle" x="3323" y="-124.5" font-family="Helvetica,sans-Serif" font-size="10.00">uisteeringsel.h</text>
</a>
</g>
<!-- Node47&#45;&gt;Node50 -->
<g id="edge112" class="edge"><title>Node47&#45;&gt;Node50</title>
<path fill="none" stroke="midnightblue" d="M3291.87,-166.25C3299.41,-156.75 3308.28,-145.565 3314.62,-137.571"/>
<polygon fill="midnightblue" stroke="midnightblue" points="3288.91,-164.352 3285.44,-174.362 3294.39,-168.702 3288.91,-164.352"/>
</g>
</g>
</svg>
