<?xml version="1.0" encoding="UTF-8" standalone="no"?>
<!DOCTYPE svg PUBLIC "-//W3C//DTD SVG 1.1//EN"
 "http://www.w3.org/Graphics/SVG/1.1/DTD/svg11.dtd">
<!-- Generated by graphviz version 2.26.0 (20091210.2329)
 -->
<!-- Title: dataclipper.h Pages: 1 -->
<svg width="861pt" height="610pt"
 viewBox="0.00 0.00 861.00 610.00" xmlns="http://www.w3.org/2000/svg" xmlns:xlink="http://www.w3.org/1999/xlink">
<g id="graph1" class="graph" transform="scale(1 1) rotate(0) translate(4 606)">
<title>dataclipper.h</title>
<polygon fill="white" stroke="white" points="-4,5 -4,-606 858,-606 858,5 -4,5"/>
<!-- Node1 -->
<g id="node1" class="node"><title>Node1</title>
<polygon fill="#bfbfbf" stroke="black" points="72,-580.5 72,-601.5 144,-601.5 144,-580.5 72,-580.5"/>
<text text-anchor="middle" x="108" y="-588.5" font-family="Helvetica,sans-Serif" font-size="10.00">dataclipper.h</text>
</g>
<!-- Node2 -->
<g id="node3" class="node"><title>Node2</title>
<polygon fill="white" stroke="#bfbfbf" points="0,-522.5 0,-543.5 62,-543.5 62,-522.5 0,-522.5"/>
<text text-anchor="middle" x="31" y="-530.5" font-family="Helvetica,sans-Serif" font-size="10.00">algomod.h</text>
</g>
<!-- Node1&#45;&gt;Node2 -->
<g id="edge2" class="edge"><title>Node1&#45;&gt;Node2</title>
<path fill="none" stroke="midnightblue" d="M93.877,-580.362C82.4802,-571.777 66.2419,-559.546 53.1223,-549.664"/>
<polygon fill="midnightblue" stroke="midnightblue" points="55.1268,-546.792 45.0335,-543.571 50.9152,-552.383 55.1268,-546.792"/>
</g>
<!-- Node3 -->
<g id="node5" class="node"><title>Node3</title>
<a xlink:href="typeset_8h.html" target="_top" xlink:title="typeset.h">
<polygon fill="white" stroke="black" points="79.5,-522.5 79.5,-543.5 136.5,-543.5 136.5,-522.5 79.5,-522.5"/>
<text text-anchor="middle" x="108" y="-530.5" font-family="Helvetica,sans-Serif" font-size="10.00">typeset.h</text>
</a>
</g>
<!-- Node1&#45;&gt;Node3 -->
<g id="edge4" class="edge"><title>Node1&#45;&gt;Node3</title>
<path fill="none" stroke="midnightblue" d="M108,-580.362C108,-572.922 108,-562.743 108,-553.728"/>
<polygon fill="midnightblue" stroke="midnightblue" points="111.5,-553.571 108,-543.571 104.5,-553.571 111.5,-553.571"/>
</g>
<!-- Node27 -->
<g id="node68" class="node"><title>Node27</title>
<a xlink:href="ranges_8h.html" target="_top" xlink:title="ranges.h">
<polygon fill="white" stroke="black" points="250,-522.5 250,-543.5 304,-543.5 304,-522.5 250,-522.5"/>
<text text-anchor="middle" x="277" y="-530.5" font-family="Helvetica,sans-Serif" font-size="10.00">ranges.h</text>
</a>
</g>
<!-- Node1&#45;&gt;Node27 -->
<g id="edge82" class="edge"><title>Node1&#45;&gt;Node27</title>
<path fill="none" stroke="midnightblue" d="M138.605,-580.497C167.148,-570.701 209.772,-556.072 240.168,-545.641"/>
<polygon fill="midnightblue" stroke="midnightblue" points="241.646,-548.834 249.969,-542.277 239.374,-542.213 241.646,-548.834"/>
</g>
<!-- Node4 -->
<g id="node7" class="node"><title>Node4</title>
<a xlink:href="odset_8h.html" target="_top" xlink:title="odset.h">
<polygon fill="white" stroke="black" points="73.5,-290.5 73.5,-311.5 122.5,-311.5 122.5,-290.5 73.5,-290.5"/>
<text text-anchor="middle" x="98" y="-298.5" font-family="Helvetica,sans-Serif" font-size="10.00">odset.h</text>
</a>
</g>
<!-- Node3&#45;&gt;Node4 -->
<g id="edge6" class="edge"><title>Node3&#45;&gt;Node4</title>
<path fill="none" stroke="midnightblue" d="M93.9383,-522.192C83.1059,-513.338 68.2901,-500.023 58,-486 41.0659,-462.922 36.3829,-455.904 30,-428 20.3295,-385.725 54.9569,-342.453 78.3096,-318.93"/>
<polygon fill="midnightblue" stroke="midnightblue" points="80.9792,-321.216 85.7167,-311.739 76.1035,-316.193 80.9792,-321.216"/>
</g>
<!-- Node17 -->
<g id="node37" class="node"><title>Node17</title>
<a xlink:href="vectoraccess_8h.html" target="_top" xlink:title="vectoraccess.h">
<polygon fill="white" stroke="black" points="66.5,-464.5 66.5,-485.5 149.5,-485.5 149.5,-464.5 66.5,-464.5"/>
<text text-anchor="middle" x="108" y="-472.5" font-family="Helvetica,sans-Serif" font-size="10.00">vectoraccess.h</text>
</a>
</g>
<!-- Node3&#45;&gt;Node17 -->
<g id="edge40" class="edge"><title>Node3&#45;&gt;Node17</title>
<path fill="none" stroke="midnightblue" d="M108,-522.362C108,-514.922 108,-504.743 108,-495.728"/>
<polygon fill="midnightblue" stroke="midnightblue" points="111.5,-495.571 108,-485.571 104.5,-495.571 111.5,-495.571"/>
</g>
<!-- Node5 -->
<g id="node9" class="node"><title>Node5</title>
<a xlink:href="gendefs_8h.html" target="_top" xlink:title="gendefs.h">
<polygon fill="white" stroke="black" points="231.5,-174.5 231.5,-195.5 290.5,-195.5 290.5,-174.5 231.5,-174.5"/>
<text text-anchor="middle" x="261" y="-182.5" font-family="Helvetica,sans-Serif" font-size="10.00">gendefs.h</text>
</a>
</g>
<!-- Node4&#45;&gt;Node5 -->
<g id="edge8" class="edge"><title>Node4&#45;&gt;Node5</title>
<path fill="none" stroke="midnightblue" d="M107.609,-290.216C120.875,-275.748 146.006,-249.815 171,-232 188.44,-219.569 209.599,-208.351 227.018,-199.994"/>
<polygon fill="midnightblue" stroke="midnightblue" points="228.696,-203.073 236.263,-195.657 225.723,-196.736 228.696,-203.073"/>
</g>
<!-- Node6 -->
<g id="node11" class="node"><title>Node6</title>
<a xlink:href="undefval_8h.html" target="_top" xlink:title="undefval.h">
<polygon fill="white" stroke="black" points="394,-116.5 394,-137.5 456,-137.5 456,-116.5 394,-116.5"/>
<text text-anchor="middle" x="425" y="-124.5" font-family="Helvetica,sans-Serif" font-size="10.00">undefval.h</text>
</a>
</g>
<!-- Node5&#45;&gt;Node6 -->
<g id="edge10" class="edge"><title>Node5&#45;&gt;Node6</title>
<path fill="none" stroke="midnightblue" d="M290.699,-174.497C317.32,-165.082 356.562,-151.204 385.761,-140.877"/>
<polygon fill="midnightblue" stroke="midnightblue" points="386.984,-144.157 395.245,-137.523 384.65,-137.558 386.984,-144.157"/>
</g>
<!-- Node14 -->
<g id="node29" class="node"><title>Node14</title>
<a xlink:href="commontypes_8h.html" target="_top" xlink:title="commontypes.h">
<polygon fill="white" stroke="black" points="218,-116.5 218,-137.5 304,-137.5 304,-116.5 218,-116.5"/>
<text text-anchor="middle" x="261" y="-124.5" font-family="Helvetica,sans-Serif" font-size="10.00">commontypes.h</text>
</a>
</g>
<!-- Node5&#45;&gt;Node14 -->
<g id="edge30" class="edge"><title>Node5&#45;&gt;Node14</title>
<path fill="none" stroke="midnightblue" d="M261,-174.362C261,-166.922 261,-156.743 261,-147.728"/>
<polygon fill="midnightblue" stroke="midnightblue" points="264.5,-147.571 261,-137.571 257.5,-147.571 264.5,-147.571"/>
</g>
<!-- Node15 -->
<g id="node32" class="node"><title>Node15</title>
<a xlink:href="errmsg_8h.html" target="_top" xlink:title="errmsg.h">
<polygon fill="white" stroke="black" points="145.5,-116.5 145.5,-137.5 200.5,-137.5 200.5,-116.5 145.5,-116.5"/>
<text text-anchor="middle" x="173" y="-124.5" font-family="Helvetica,sans-Serif" font-size="10.00">errmsg.h</text>
</a>
</g>
<!-- Node5&#45;&gt;Node15 -->
<g id="edge34" class="edge"><title>Node5&#45;&gt;Node15</title>
<path fill="none" stroke="midnightblue" d="M244.859,-174.362C231.586,-165.614 212.568,-153.079 197.43,-143.101"/>
<polygon fill="midnightblue" stroke="midnightblue" points="199.314,-140.151 189.038,-137.571 195.462,-145.996 199.314,-140.151"/>
</g>
<!-- Node7 -->
<g id="node13" class="node"><title>Node7</title>
<polygon fill="white" stroke="#bfbfbf" points="489.5,-0.5 489.5,-21.5 556.5,-21.5 556.5,-0.5 489.5,-0.5"/>
<text text-anchor="middle" x="523" y="-8.5" font-family="Helvetica,sans-Serif" font-size="10.00">basicmod.h</text>
</g>
<!-- Node6&#45;&gt;Node7 -->
<g id="edge12" class="edge"><title>Node6&#45;&gt;Node7</title>
<path fill="none" stroke="midnightblue" d="M431.098,-116.135C439.265,-102.027 454.634,-76.9662 471,-58 480.192,-47.3474 491.689,-36.7296 501.533,-28.2884"/>
<polygon fill="midnightblue" stroke="midnightblue" points="503.91,-30.8625 509.326,-21.7566 499.414,-25.4975 503.91,-30.8625"/>
</g>
<!-- Node8 -->
<g id="node15" class="node"><title>Node8</title>
<a xlink:href="commondefs_8h.html" target="_top" xlink:title="commondefs.h">
<polygon fill="white" stroke="black" points="224.5,-58.5 224.5,-79.5 305.5,-79.5 305.5,-58.5 224.5,-58.5"/>
<text text-anchor="middle" x="265" y="-66.5" font-family="Helvetica,sans-Serif" font-size="10.00">commondefs.h</text>
</a>
</g>
<!-- Node6&#45;&gt;Node8 -->
<g id="edge14" class="edge"><title>Node6&#45;&gt;Node8</title>
<path fill="none" stroke="midnightblue" d="M396.025,-116.497C370.167,-107.123 332.101,-93.3242 303.654,-83.0122"/>
<polygon fill="midnightblue" stroke="midnightblue" points="304.623,-79.6406 294.029,-79.5231 302.238,-86.2216 304.623,-79.6406"/>
</g>
<!-- Node12 -->
<g id="node24" class="node"><title>Node12</title>
<a xlink:href="plftypes_8h.html" target="_top" xlink:title="plftypes.h">
<polygon fill="white" stroke="black" points="322.5,-58.5 322.5,-79.5 381.5,-79.5 381.5,-58.5 322.5,-58.5"/>
<text text-anchor="middle" x="352" y="-66.5" font-family="Helvetica,sans-Serif" font-size="10.00">plftypes.h</text>
</a>
</g>
<!-- Node6&#45;&gt;Node12 -->
<g id="edge24" class="edge"><title>Node6&#45;&gt;Node12</title>
<path fill="none" stroke="midnightblue" d="M411.611,-116.362C400.909,-107.859 385.704,-95.7785 373.329,-85.9466"/>
<polygon fill="midnightblue" stroke="midnightblue" points="375.311,-83.0511 365.304,-79.5707 370.957,-88.5318 375.311,-83.0511"/>
</g>
<!-- Node8&#45;&gt;Node7 -->
<g id="edge16" class="edge"><title>Node8&#45;&gt;Node7</title>
<path fill="none" stroke="midnightblue" d="M305.596,-59.8737C352.893,-49.2411 430.738,-31.741 479.318,-20.82"/>
<polygon fill="midnightblue" stroke="midnightblue" points="480.23,-24.2024 489.219,-18.5942 478.695,-17.3729 480.23,-24.2024"/>
</g>
<!-- Node9 -->
<g id="node18" class="node"><title>Node9</title>
<a xlink:href="plfdefs_8h.html" target="_top" xlink:title="plfdefs.h">
<polygon fill="white" stroke="black" points="278,-0.5 278,-21.5 332,-21.5 332,-0.5 278,-0.5"/>
<text text-anchor="middle" x="305" y="-8.5" font-family="Helvetica,sans-Serif" font-size="10.00">plfdefs.h</text>
</a>
</g>
<!-- Node8&#45;&gt;Node9 -->
<g id="edge18" class="edge"><title>Node8&#45;&gt;Node9</title>
<path fill="none" stroke="midnightblue" d="M272.337,-58.3619C277.806,-50.4313 285.422,-39.3885 291.924,-29.9606"/>
<polygon fill="midnightblue" stroke="midnightblue" points="294.914,-31.7899 297.71,-21.5707 289.151,-27.8157 294.914,-31.7899"/>
</g>
<!-- Node10 -->
<g id="node20" class="node"><title>Node10</title>
<polygon fill="white" stroke="#bfbfbf" points="76.5,-0.5 76.5,-21.5 135.5,-21.5 135.5,-0.5 76.5,-0.5"/>
<text text-anchor="middle" x="106" y="-8.5" font-family="Helvetica,sans-Serif" font-size="10.00">stdexcept</text>
</g>
<!-- Node8&#45;&gt;Node10 -->
<g id="edge20" class="edge"><title>Node8&#45;&gt;Node10</title>
<path fill="none" stroke="midnightblue" d="M236.206,-58.4966C210.509,-49.1229 172.682,-35.3242 144.413,-25.0122"/>
<polygon fill="midnightblue" stroke="midnightblue" points="145.442,-21.662 134.848,-21.5231 143.043,-28.2381 145.442,-21.662"/>
</g>
<!-- Node11 -->
<g id="node22" class="node"><title>Node11</title>
<polygon fill="white" stroke="#bfbfbf" points="225.5,-0.5 225.5,-21.5 260.5,-21.5 260.5,-0.5 225.5,-0.5"/>
<text text-anchor="middle" x="243" y="-8.5" font-family="Helvetica,sans-Serif" font-size="10.00">new</text>
</g>
<!-- Node8&#45;&gt;Node11 -->
<g id="edge22" class="edge"><title>Node8&#45;&gt;Node11</title>
<path fill="none" stroke="midnightblue" d="M260.965,-58.3619C258.081,-50.7584 254.112,-40.294 250.637,-31.1349"/>
<polygon fill="midnightblue" stroke="midnightblue" points="253.829,-29.6793 247.01,-21.5707 247.284,-32.1619 253.829,-29.6793"/>
</g>
<!-- Node12&#45;&gt;Node9 -->
<g id="edge26" class="edge"><title>Node12&#45;&gt;Node9</title>
<path fill="none" stroke="midnightblue" d="M343.379,-58.3619C336.82,-50.2678 327.634,-38.9318 319.894,-29.3796"/>
<polygon fill="midnightblue" stroke="midnightblue" points="322.581,-27.1364 313.566,-21.5707 317.142,-31.5436 322.581,-27.1364"/>
</g>
<!-- Node13 -->
<g id="node27" class="node"><title>Node13</title>
<polygon fill="white" stroke="#bfbfbf" points="349.5,-0.5 349.5,-21.5 398.5,-21.5 398.5,-0.5 349.5,-0.5"/>
<text text-anchor="middle" x="374" y="-8.5" font-family="Helvetica,sans-Serif" font-size="10.00">stdint.h</text>
</g>
<!-- Node12&#45;&gt;Node13 -->
<g id="edge28" class="edge"><title>Node12&#45;&gt;Node13</title>
<path fill="none" stroke="midnightblue" d="M356.035,-58.3619C358.919,-50.7584 362.888,-40.294 366.363,-31.1349"/>
<polygon fill="midnightblue" stroke="midnightblue" points="369.716,-32.1619 369.99,-21.5707 363.171,-29.6793 369.716,-32.1619"/>
</g>
<!-- Node14&#45;&gt;Node8 -->
<g id="edge32" class="edge"><title>Node14&#45;&gt;Node8</title>
<path fill="none" stroke="midnightblue" d="M261.734,-116.362C262.247,-108.922 262.949,-98.7427 263.571,-89.7276"/>
<polygon fill="midnightblue" stroke="midnightblue" points="267.075,-89.7878 264.271,-79.5707 260.091,-89.3061 267.075,-89.7878"/>
</g>
<!-- Node15&#45;&gt;Node8 -->
<g id="edge36" class="edge"><title>Node15&#45;&gt;Node8</title>
<path fill="none" stroke="midnightblue" d="M189.874,-116.362C203.751,-107.614 223.634,-95.0786 239.46,-85.1015"/>
<polygon fill="midnightblue" stroke="midnightblue" points="241.64,-87.8645 248.233,-79.5707 237.907,-81.943 241.64,-87.8645"/>
</g>
<!-- Node16 -->
<g id="node35" class="node"><title>Node16</title>
<polygon fill="white" stroke="#bfbfbf" points="72.5,-58.5 72.5,-79.5 123.5,-79.5 123.5,-58.5 72.5,-58.5"/>
<text text-anchor="middle" x="98" y="-66.5" font-family="Helvetica,sans-Serif" font-size="10.00">typeinfo</text>
</g>
<!-- Node15&#45;&gt;Node16 -->
<g id="edge38" class="edge"><title>Node15&#45;&gt;Node16</title>
<path fill="none" stroke="midnightblue" d="M159.244,-116.362C148.249,-107.859 132.627,-95.7785 119.914,-85.9466"/>
<polygon fill="midnightblue" stroke="midnightblue" points="121.721,-82.9195 111.669,-79.5707 117.438,-88.4569 121.721,-82.9195"/>
</g>
<!-- Node17&#45;&gt;Node5 -->
<g id="edge74" class="edge"><title>Node17&#45;&gt;Node5</title>
<path fill="none" stroke="midnightblue" d="M126.541,-464.326C139.418,-455.998 155.997,-443.293 166,-428 183.411,-401.381 185,-390.808 185,-359 185,-359 185,-359 185,-301 185,-260.51 217.797,-223.158 240.302,-202.295"/>
<polygon fill="midnightblue" stroke="midnightblue" points="242.64,-204.899 247.762,-195.625 237.974,-199.681 242.64,-204.899"/>
</g>
<!-- Node17&#45;&gt;Node10 -->
<g id="edge80" class="edge"><title>Node17&#45;&gt;Node10</title>
<path fill="none" stroke="midnightblue" d="M80.0808,-464.482C63.259,-456.789 42.702,-444.757 30,-428 10.7857,-402.651 11,-390.808 11,-359 11,-359 11,-359 11,-127 11,-83.5461 51.3953,-47.4386 79.5037,-27.5737"/>
<polygon fill="midnightblue" stroke="midnightblue" points="81.8306,-30.224 88.1312,-21.7061 77.894,-24.4357 81.8306,-30.224"/>
</g>
<!-- Node18 -->
<g id="node39" class="node"><title>Node18</title>
<a xlink:href="debug_8h.html" target="_top" xlink:title="debug.h">
<polygon fill="white" stroke="black" points="319.5,-406.5 319.5,-427.5 370.5,-427.5 370.5,-406.5 319.5,-406.5"/>
<text text-anchor="middle" x="345" y="-414.5" font-family="Helvetica,sans-Serif" font-size="10.00">debug.h</text>
</a>
</g>
<!-- Node17&#45;&gt;Node18 -->
<g id="edge42" class="edge"><title>Node17&#45;&gt;Node18</title>
<path fill="none" stroke="midnightblue" d="M149.553,-464.831C194.809,-453.756 266.442,-436.225 309.267,-425.745"/>
<polygon fill="midnightblue" stroke="midnightblue" points="310.36,-429.081 319.242,-423.304 308.696,-422.281 310.36,-429.081"/>
</g>
<!-- Node25 -->
<g id="node63" class="node"><title>Node25</title>
<polygon fill="white" stroke="#bfbfbf" points="39,-406.5 39,-427.5 95,-427.5 95,-406.5 39,-406.5"/>
<text text-anchor="middle" x="67" y="-414.5" font-family="Helvetica,sans-Serif" font-size="10.00">algorithm</text>
</g>
<!-- Node17&#45;&gt;Node25 -->
<g id="edge76" class="edge"><title>Node17&#45;&gt;Node25</title>
<path fill="none" stroke="midnightblue" d="M100.48,-464.362C94.8739,-456.431 87.0678,-445.389 80.4032,-435.961"/>
<polygon fill="midnightblue" stroke="midnightblue" points="83.1028,-433.716 74.4724,-427.571 77.3867,-437.757 83.1028,-433.716"/>
</g>
<!-- Node26 -->
<g id="node65" class="node"><title>Node26</title>
<polygon fill="white" stroke="#bfbfbf" points="113,-406.5 113,-427.5 157,-427.5 157,-406.5 113,-406.5"/>
<text text-anchor="middle" x="135" y="-414.5" font-family="Helvetica,sans-Serif" font-size="10.00">vector</text>
</g>
<!-- Node17&#45;&gt;Node26 -->
<g id="edge78" class="edge"><title>Node17&#45;&gt;Node26</title>
<path fill="none" stroke="midnightblue" d="M112.952,-464.362C116.53,-456.677 121.468,-446.069 125.764,-436.84"/>
<polygon fill="midnightblue" stroke="midnightblue" points="129.032,-438.114 130.079,-427.571 122.686,-435.159 129.032,-438.114"/>
</g>
<!-- Node18&#45;&gt;Node5 -->
<g id="edge46" class="edge"><title>Node18&#45;&gt;Node5</title>
<path fill="none" stroke="midnightblue" d="M339.576,-406.327C334.889,-396.9 328.087,-382.714 323,-370 299.497,-311.256 277.285,-239.748 266.992,-205.375"/>
<polygon fill="midnightblue" stroke="midnightblue" points="270.286,-204.172 264.082,-195.583 263.576,-206.166 270.286,-204.172"/>
</g>
<!-- Node18&#45;&gt;Node7 -->
<g id="edge44" class="edge"><title>Node18&#45;&gt;Node7</title>
<path fill="none" stroke="midnightblue" d="M357.424,-406.354C391.687,-375.734 485,-283.32 485,-185 485,-185 485,-185 485,-127 485,-91.7411 501.051,-53.3154 512.289,-30.7323"/>
<polygon fill="midnightblue" stroke="midnightblue" points="515.418,-32.3005 516.895,-21.809 509.198,-29.0901 515.418,-32.3005"/>
</g>
<!-- Node19 -->
<g id="node43" class="node"><title>Node19</title>
<a xlink:href="bufstring_8h.html" target="_top" xlink:title="bufstring.h">
<polygon fill="white" stroke="black" points="490,-348.5 490,-369.5 552,-369.5 552,-348.5 490,-348.5"/>
<text text-anchor="middle" x="521" y="-356.5" font-family="Helvetica,sans-Serif" font-size="10.00">bufstring.h</text>
</a>
</g>
<!-- Node18&#45;&gt;Node19 -->
<g id="edge48" class="edge"><title>Node18&#45;&gt;Node19</title>
<path fill="none" stroke="midnightblue" d="M370.592,-408.566C399.314,-399.101 446.309,-383.614 480.13,-372.468"/>
<polygon fill="midnightblue" stroke="midnightblue" points="481.328,-375.759 489.73,-369.305 479.137,-369.111 481.328,-375.759"/>
</g>
<!-- Node19&#45;&gt;Node7 -->
<g id="edge50" class="edge"><title>Node19&#45;&gt;Node7</title>
<path fill="none" stroke="midnightblue" d="M521.207,-348.408C521.717,-321.253 523,-246.931 523,-185 523,-185 523,-185 523,-127 523,-93.5978 523,-54.7853 523,-31.5939"/>
<polygon fill="midnightblue" stroke="midnightblue" points="526.5,-31.5561 523,-21.5561 519.5,-31.5561 526.5,-31.5561"/>
</g>
<!-- Node20 -->
<g id="node46" class="node"><title>Node20</title>
<a xlink:href="fixedstring_8h.html" target="_top" xlink:title="fixedstring.h">
<polygon fill="white" stroke="black" points="623,-290.5 623,-311.5 693,-311.5 693,-290.5 623,-290.5"/>
<text text-anchor="middle" x="658" y="-298.5" font-family="Helvetica,sans-Serif" font-size="10.00">fixedstring.h</text>
</a>
</g>
<!-- Node19&#45;&gt;Node20 -->
<g id="edge52" class="edge"><title>Node19&#45;&gt;Node20</title>
<path fill="none" stroke="midnightblue" d="M545.81,-348.497C567.496,-339.315 599.211,-325.889 623.392,-315.652"/>
<polygon fill="midnightblue" stroke="midnightblue" points="625.068,-318.743 632.912,-311.621 622.339,-312.297 625.068,-318.743"/>
</g>
<!-- Node22 -->
<g id="node53" class="node"><title>Node22</title>
<a xlink:href="string2_8h.html" target="_top" xlink:title="string2.h">
<polygon fill="white" stroke="black" points="568,-116.5 568,-137.5 622,-137.5 622,-116.5 568,-116.5"/>
<text text-anchor="middle" x="595" y="-124.5" font-family="Helvetica,sans-Serif" font-size="10.00">string2.h</text>
</a>
</g>
<!-- Node19&#45;&gt;Node22 -->
<g id="edge62" class="edge"><title>Node19&#45;&gt;Node22</title>
<path fill="none" stroke="midnightblue" d="M524.372,-348.429C535.809,-312.573 573.256,-195.169 588.479,-147.446"/>
<polygon fill="midnightblue" stroke="midnightblue" points="591.904,-148.224 591.608,-137.634 585.235,-146.097 591.904,-148.224"/>
</g>
<!-- Node20&#45;&gt;Node7 -->
<g id="edge54" class="edge"><title>Node20&#45;&gt;Node7</title>
<path fill="none" stroke="midnightblue" d="M682.657,-290.411C717.513,-273.586 777,-237.221 777,-185 777,-185 777,-185 777,-127 777,-86.3607 751.723,-79.1158 717,-58 670.46,-29.6977 607.936,-18.4319 566.601,-13.9515"/>
<polygon fill="midnightblue" stroke="midnightblue" points="566.869,-10.461 556.571,-12.9524 566.175,-17.4265 566.869,-10.461"/>
</g>
<!-- Node21 -->
<g id="node49" class="node"><title>Node21</title>
<a xlink:href="odstring_8h.html" target="_top" xlink:title="odstring.h">
<polygon fill="white" stroke="black" points="628.5,-232.5 628.5,-253.5 687.5,-253.5 687.5,-232.5 628.5,-232.5"/>
<text text-anchor="middle" x="658" y="-240.5" font-family="Helvetica,sans-Serif" font-size="10.00">odstring.h</text>
</a>
</g>
<!-- Node20&#45;&gt;Node21 -->
<g id="edge56" class="edge"><title>Node20&#45;&gt;Node21</title>
<path fill="none" stroke="midnightblue" d="M658,-290.362C658,-282.922 658,-272.743 658,-263.728"/>
<polygon fill="midnightblue" stroke="midnightblue" points="661.5,-263.571 658,-253.571 654.5,-263.571 661.5,-263.571"/>
</g>
<!-- Node21&#45;&gt;Node5 -->
<g id="edge60" class="edge"><title>Node21&#45;&gt;Node5</title>
<path fill="none" stroke="midnightblue" d="M628.485,-238.688C558.146,-228.412 380.574,-202.469 300.839,-190.82"/>
<polygon fill="midnightblue" stroke="midnightblue" points="301.11,-187.323 290.709,-189.34 300.098,-194.249 301.11,-187.323"/>
</g>
<!-- Node21&#45;&gt;Node7 -->
<g id="edge58" class="edge"><title>Node21&#45;&gt;Node7</title>
<path fill="none" stroke="midnightblue" d="M665.776,-232.093C686.685,-201.317 739.793,-112.498 698,-58 682.116,-37.2868 613.288,-23.6777 566.831,-16.6664"/>
<polygon fill="midnightblue" stroke="midnightblue" points="567.108,-13.1698 556.707,-15.1886 566.096,-20.0964 567.108,-13.1698"/>
</g>
<!-- Node22&#45;&gt;Node7 -->
<g id="edge64" class="edge"><title>Node22&#45;&gt;Node7</title>
<path fill="none" stroke="midnightblue" d="M622.24,-118.568C654.67,-107.091 702.078,-84.8712 682,-58 668.113,-39.4134 608.665,-25.5978 566.544,-17.9149"/>
<polygon fill="midnightblue" stroke="midnightblue" points="566.971,-14.4361 556.514,-16.1403 565.751,-21.329 566.971,-14.4361"/>
</g>
<!-- Node22&#45;&gt;Node8 -->
<g id="edge68" class="edge"><title>Node22&#45;&gt;Node8</title>
<path fill="none" stroke="midnightblue" d="M567.784,-122.958C519.171,-115.629 414.004,-99.2797 315.706,-80.2648"/>
<polygon fill="midnightblue" stroke="midnightblue" points="316.09,-76.7738 305.606,-78.2965 314.752,-83.6446 316.09,-76.7738"/>
</g>
<!-- Node22&#45;&gt;Node12 -->
<g id="edge66" class="edge"><title>Node22&#45;&gt;Node12</title>
<path fill="none" stroke="midnightblue" d="M567.597,-120.459C524.606,-110.198 441.115,-90.2703 391.594,-78.4505"/>
<polygon fill="midnightblue" stroke="midnightblue" points="392.109,-74.9751 381.57,-76.0578 390.484,-81.7839 392.109,-74.9751"/>
</g>
<!-- Node23 -->
<g id="node58" class="node"><title>Node23</title>
<polygon fill="white" stroke="#bfbfbf" points="624.5,-58.5 624.5,-79.5 673.5,-79.5 673.5,-58.5 624.5,-58.5"/>
<text text-anchor="middle" x="649" y="-66.5" font-family="Helvetica,sans-Serif" font-size="10.00">ctype.h</text>
</g>
<!-- Node22&#45;&gt;Node23 -->
<g id="edge70" class="edge"><title>Node22&#45;&gt;Node23</title>
<path fill="none" stroke="midnightblue" d="M604.904,-116.362C612.516,-108.186 623.208,-96.7025 632.157,-87.0907"/>
<polygon fill="midnightblue" stroke="midnightblue" points="634.906,-89.2746 639.158,-79.5707 629.783,-84.5046 634.906,-89.2746"/>
</g>
<!-- Node24 -->
<g id="node60" class="node"><title>Node24</title>
<polygon fill="white" stroke="#bfbfbf" points="551,-58.5 551,-79.5 607,-79.5 607,-58.5 551,-58.5"/>
<text text-anchor="middle" x="579" y="-66.5" font-family="Helvetica,sans-Serif" font-size="10.00">wctype.h</text>
</g>
<!-- Node22&#45;&gt;Node24 -->
<g id="edge72" class="edge"><title>Node22&#45;&gt;Node24</title>
<path fill="none" stroke="midnightblue" d="M592.065,-116.362C589.99,-108.84 587.143,-98.5187 584.636,-89.4308"/>
<polygon fill="midnightblue" stroke="midnightblue" points="587.949,-88.2798 581.916,-79.5707 581.201,-90.1414 587.949,-88.2798"/>
</g>
<!-- Node27&#45;&gt;Node5 -->
<g id="edge84" class="edge"><title>Node27&#45;&gt;Node5</title>
<path fill="none" stroke="midnightblue" d="M276.504,-522.203C274.254,-473.285 264.999,-271.971 261.967,-206.023"/>
<polygon fill="midnightblue" stroke="midnightblue" points="265.446,-205.499 261.491,-195.671 258.454,-205.821 265.446,-205.499"/>
</g>
<!-- Node28 -->
<g id="node71" class="node"><title>Node28</title>
<a xlink:href="math2_8h.html" target="_top" xlink:title="math2.h">
<polygon fill="white" stroke="black" points="540,-464.5 540,-485.5 592,-485.5 592,-464.5 540,-464.5"/>
<text text-anchor="middle" x="566" y="-472.5" font-family="Helvetica,sans-Serif" font-size="10.00">math2.h</text>
</a>
</g>
<!-- Node27&#45;&gt;Node28 -->
<g id="edge86" class="edge"><title>Node27&#45;&gt;Node28</title>
<path fill="none" stroke="midnightblue" d="M304.188,-527.544C356.547,-517.035 471.369,-493.992 530.001,-482.225"/>
<polygon fill="midnightblue" stroke="midnightblue" points="530.813,-485.632 539.928,-480.232 529.435,-478.769 530.813,-485.632"/>
</g>
<!-- Node32 -->
<g id="node84" class="node"><title>Node32</title>
<a xlink:href="ptrman_8h.html" target="_top" xlink:title="ptrman.h">
<polygon fill="white" stroke="black" points="364.5,-232.5 364.5,-253.5 419.5,-253.5 419.5,-232.5 364.5,-232.5"/>
<text text-anchor="middle" x="392" y="-240.5" font-family="Helvetica,sans-Serif" font-size="10.00">ptrman.h</text>
</a>
</g>
<!-- Node27&#45;&gt;Node32 -->
<g id="edge104" class="edge"><title>Node27&#45;&gt;Node32</title>
<path fill="none" stroke="midnightblue" d="M304,-527.224C338.897,-519.148 396.66,-503.492 409,-486 457.738,-416.911 419.982,-307.527 401.104,-262.924"/>
<polygon fill="midnightblue" stroke="midnightblue" points="404.298,-261.491 397.086,-253.73 397.884,-264.294 404.298,-261.491"/>
</g>
<!-- Node36 -->
<g id="node96" class="node"><title>Node36</title>
<a xlink:href="varlenarray_8h.html" target="_top" xlink:title="varlenarray.h">
<polygon fill="white" stroke="black" points="327.5,-464.5 327.5,-485.5 400.5,-485.5 400.5,-464.5 327.5,-464.5"/>
<text text-anchor="middle" x="364" y="-472.5" font-family="Helvetica,sans-Serif" font-size="10.00">varlenarray.h</text>
</a>
</g>
<!-- Node27&#45;&gt;Node36 -->
<g id="edge120" class="edge"><title>Node27&#45;&gt;Node36</title>
<path fill="none" stroke="midnightblue" d="M292.957,-522.362C305.957,-513.696 324.531,-501.313 339.427,-491.382"/>
<polygon fill="midnightblue" stroke="midnightblue" points="341.765,-494.03 348.144,-485.571 337.882,-488.206 341.765,-494.03"/>
</g>
<!-- Node37 -->
<g id="node99" class="node"><title>Node37</title>
<a xlink:href="samplingdata_8h.html" target="_top" xlink:title="samplingdata.h">
<polygon fill="white" stroke="black" points="166.5,-464.5 166.5,-485.5 249.5,-485.5 249.5,-464.5 166.5,-464.5"/>
<text text-anchor="middle" x="208" y="-472.5" font-family="Helvetica,sans-Serif" font-size="10.00">samplingdata.h</text>
</a>
</g>
<!-- Node27&#45;&gt;Node37 -->
<g id="edge124" class="edge"><title>Node27&#45;&gt;Node37</title>
<path fill="none" stroke="midnightblue" d="M258.98,-522.362C247.584,-514.023 233.271,-502.242 222.583,-492.516"/>
<polygon fill="midnightblue" stroke="midnightblue" points="224.898,-489.889 215.223,-485.571 220.094,-494.98 224.898,-489.889"/>
</g>
<!-- Node28&#45;&gt;Node5 -->
<g id="edge90" class="edge"><title>Node28&#45;&gt;Node5</title>
<path fill="none" stroke="midnightblue" d="M554.783,-464.335C509.106,-420.904 336.827,-257.098 279.604,-202.689"/>
<polygon fill="midnightblue" stroke="midnightblue" points="281.978,-200.116 272.319,-195.762 277.154,-205.189 281.978,-200.116"/>
</g>
<!-- Node28&#45;&gt;Node7 -->
<g id="edge88" class="edge"><title>Node28&#45;&gt;Node7</title>
<path fill="none" stroke="midnightblue" d="M592.23,-470.239C663.079,-456.638 853,-414.959 853,-359 853,-359 853,-359 853,-127 853,-67.0513 656.721,-30.5752 566.913,-17.0231"/>
<polygon fill="midnightblue" stroke="midnightblue" points="567.17,-13.523 556.765,-15.5211 566.145,-20.4476 567.17,-13.523"/>
</g>
<!-- Node29 -->
<g id="node75" class="node"><title>Node29</title>
<a xlink:href="odcomplex_8h.html" target="_top" xlink:title="odcomplex.h">
<polygon fill="white" stroke="black" points="592,-406.5 592,-427.5 664,-427.5 664,-406.5 592,-406.5"/>
<text text-anchor="middle" x="628" y="-414.5" font-family="Helvetica,sans-Serif" font-size="10.00">odcomplex.h</text>
</a>
</g>
<!-- Node28&#45;&gt;Node29 -->
<g id="edge92" class="edge"><title>Node28&#45;&gt;Node29</title>
<path fill="none" stroke="midnightblue" d="M577.372,-464.362C586.286,-456.023 598.879,-444.242 609.276,-434.516"/>
<polygon fill="midnightblue" stroke="midnightblue" points="611.789,-436.958 616.7,-427.571 607.007,-431.846 611.789,-436.958"/>
</g>
<!-- Node30 -->
<g id="node77" class="node"><title>Node30</title>
<polygon fill="white" stroke="#bfbfbf" points="673.5,-348.5 673.5,-369.5 726.5,-369.5 726.5,-348.5 673.5,-348.5"/>
<text text-anchor="middle" x="700" y="-356.5" font-family="Helvetica,sans-Serif" font-size="10.00">complex</text>
</g>
<!-- Node29&#45;&gt;Node30 -->
<g id="edge94" class="edge"><title>Node29&#45;&gt;Node30</title>
<path fill="none" stroke="midnightblue" d="M641.206,-406.362C651.761,-397.859 666.758,-385.779 678.963,-375.947"/>
<polygon fill="midnightblue" stroke="midnightblue" points="681.286,-378.57 686.878,-369.571 676.895,-373.118 681.286,-378.57"/>
</g>
<!-- Node31 -->
<g id="node79" class="node"><title>Node31</title>
<a xlink:href="convert_8h.html" target="_top" xlink:title="convert.h">
<polygon fill="white" stroke="black" points="599.5,-348.5 599.5,-369.5 656.5,-369.5 656.5,-348.5 599.5,-348.5"/>
<text text-anchor="middle" x="628" y="-356.5" font-family="Helvetica,sans-Serif" font-size="10.00">convert.h</text>
</a>
</g>
<!-- Node29&#45;&gt;Node31 -->
<g id="edge96" class="edge"><title>Node29&#45;&gt;Node31</title>
<path fill="none" stroke="midnightblue" d="M628,-406.362C628,-398.922 628,-388.743 628,-379.728"/>
<polygon fill="midnightblue" stroke="midnightblue" points="631.5,-379.571 628,-369.571 624.5,-379.571 631.5,-379.571"/>
</g>
<!-- Node31&#45;&gt;Node6 -->
<g id="edge100" class="edge"><title>Node31&#45;&gt;Node6</title>
<path fill="none" stroke="midnightblue" d="M618.75,-348.429C586.914,-312.044 481.604,-191.691 441.084,-145.382"/>
<polygon fill="midnightblue" stroke="midnightblue" points="443.523,-142.855 434.304,-137.634 438.255,-147.464 443.523,-142.855"/>
</g>
<!-- Node31&#45;&gt;Node20 -->
<g id="edge102" class="edge"><title>Node31&#45;&gt;Node20</title>
<path fill="none" stroke="midnightblue" d="M633.502,-348.362C637.52,-340.595 643.081,-329.843 647.89,-320.546"/>
<polygon fill="midnightblue" stroke="midnightblue" points="651.047,-322.061 652.532,-311.571 644.829,-318.845 651.047,-322.061"/>
</g>
<!-- Node31&#45;&gt;Node22 -->
<g id="edge98" class="edge"><title>Node31&#45;&gt;Node22</title>
<path fill="none" stroke="midnightblue" d="M656.832,-348.824C673.246,-341.371 692.398,-329.473 702,-312 709.479,-298.391 706.815,-255.303 696,-232 678.645,-194.606 642.45,-162.267 618.438,-143.703"/>
<polygon fill="midnightblue" stroke="midnightblue" points="620.295,-140.72 610.201,-137.503 616.086,-146.313 620.295,-140.72"/>
</g>
<!-- Node32&#45;&gt;Node5 -->
<g id="edge106" class="edge"><title>Node32&#45;&gt;Node5</title>
<path fill="none" stroke="midnightblue" d="M368.277,-232.497C347.632,-223.356 317.484,-210.008 294.401,-199.788"/>
<polygon fill="midnightblue" stroke="midnightblue" points="295.55,-196.469 284.989,-195.621 292.716,-202.87 295.55,-196.469"/>
</g>
<!-- Node33 -->
<g id="node87" class="node"><title>Node33</title>
<a xlink:href="atomic_8h.html" target="_top" xlink:title="atomic.h">
<polygon fill="white" stroke="black" points="322,-116.5 322,-137.5 376,-137.5 376,-116.5 322,-116.5"/>
<text text-anchor="middle" x="349" y="-124.5" font-family="Helvetica,sans-Serif" font-size="10.00">atomic.h</text>
</a>
</g>
<!-- Node32&#45;&gt;Node33 -->
<g id="edge108" class="edge"><title>Node32&#45;&gt;Node33</title>
<path fill="none" stroke="midnightblue" d="M383.58,-232.442C376.728,-223.316 367.348,-209.5 362,-196 355.836,-180.44 352.545,-161.723 350.817,-147.712"/>
<polygon fill="midnightblue" stroke="midnightblue" points="354.283,-147.206 349.743,-137.633 347.323,-147.948 354.283,-147.206"/>
</g>
<!-- Node35 -->
<g id="node94" class="node"><title>Node35</title>
<polygon fill="white" stroke="#bfbfbf" points="371,-174.5 371,-195.5 419,-195.5 419,-174.5 371,-174.5"/>
<text text-anchor="middle" x="395" y="-182.5" font-family="Helvetica,sans-Serif" font-size="10.00">stdlib.h</text>
</g>
<!-- Node32&#45;&gt;Node35 -->
<g id="edge118" class="edge"><title>Node32&#45;&gt;Node35</title>
<path fill="none" stroke="midnightblue" d="M392.55,-232.362C392.935,-224.922 393.462,-214.743 393.928,-205.728"/>
<polygon fill="midnightblue" stroke="midnightblue" points="397.432,-205.738 394.453,-195.571 390.441,-205.376 397.432,-205.738"/>
</g>
<!-- Node33&#45;&gt;Node7 -->
<g id="edge110" class="edge"><title>Node33&#45;&gt;Node7</title>
<path fill="none" stroke="midnightblue" d="M364.312,-116.348C384.023,-102.679 419.385,-78.3078 450,-58 465.765,-47.5427 483.618,-36.0422 497.723,-27.0349"/>
<polygon fill="midnightblue" stroke="midnightblue" points="499.838,-29.8373 506.391,-21.5118 496.076,-23.9339 499.838,-29.8373"/>
</g>
<!-- Node33&#45;&gt;Node8 -->
<g id="edge112" class="edge"><title>Node33&#45;&gt;Node8</title>
<path fill="none" stroke="midnightblue" d="M333.593,-116.362C321.042,-107.696 303.108,-95.3126 288.725,-85.3819"/>
<polygon fill="midnightblue" stroke="midnightblue" points="290.527,-82.3725 280.309,-79.5707 286.55,-88.1327 290.527,-82.3725"/>
</g>
<!-- Node33&#45;&gt;Node12 -->
<g id="edge114" class="edge"><title>Node33&#45;&gt;Node12</title>
<path fill="none" stroke="midnightblue" d="M349.55,-116.362C349.935,-108.922 350.462,-98.7427 350.928,-89.7276"/>
<polygon fill="midnightblue" stroke="midnightblue" points="354.432,-89.7381 351.453,-79.5707 347.441,-89.3765 354.432,-89.7381"/>
</g>
<!-- Node34 -->
<g id="node92" class="node"><title>Node34</title>
<polygon fill="white" stroke="#bfbfbf" points="140.5,-58.5 140.5,-79.5 207.5,-79.5 207.5,-58.5 140.5,-58.5"/>
<text text-anchor="middle" x="174" y="-66.5" font-family="Helvetica,sans-Serif" font-size="10.00">odversion.h</text>
</g>
<!-- Node33&#45;&gt;Node34 -->
<g id="edge116" class="edge"><title>Node33&#45;&gt;Node34</title>
<path fill="none" stroke="midnightblue" d="M321.656,-117.938C293.256,-108.525 248.467,-93.6806 215.66,-82.8073"/>
<polygon fill="midnightblue" stroke="midnightblue" points="216.488,-79.3944 205.894,-79.5707 214.285,-86.039 216.488,-79.3944"/>
</g>
<!-- Node36&#45;&gt;Node32 -->
<g id="edge122" class="edge"><title>Node36&#45;&gt;Node32</title>
<path fill="none" stroke="midnightblue" d="M368.201,-464.362C371.719,-454.958 376.547,-440.786 379,-428 390.282,-369.193 392.033,-298.194 392.146,-263.753"/>
<polygon fill="midnightblue" stroke="midnightblue" points="395.646,-263.54 392.134,-253.545 388.646,-263.549 395.646,-263.54"/>
</g>
<!-- Node37&#45;&gt;Node5 -->
<g id="edge126" class="edge"><title>Node37&#45;&gt;Node5</title>
<path fill="none" stroke="midnightblue" d="M210.344,-464.185C214.562,-443.744 223,-397.989 223,-359 223,-359 223,-359 223,-301 223,-265.741 239.051,-227.315 250.289,-204.732"/>
<polygon fill="midnightblue" stroke="midnightblue" points="253.418,-206.301 254.895,-195.809 247.198,-203.09 253.418,-206.301"/>
</g>
<!-- Node37&#45;&gt;Node27 -->
<g id="edge128" class="edge"><title>Node37&#45;&gt;Node27</title>
<path fill="none" stroke="midnightblue" d="M225.928,-485.571C237.308,-493.891 251.623,-505.668 262.331,-515.405"/>
<polygon fill="midnightblue" stroke="midnightblue" points="260.032,-518.048 269.708,-522.362 264.834,-512.955 260.032,-518.048"/>
</g>
</g>
</svg>
