<?xml version="1.0" encoding="UTF-8" standalone="no"?>
<!DOCTYPE svg PUBLIC "-//W3C//DTD SVG 1.1//EN"
 "http://www.w3.org/Graphics/SVG/1.1/DTD/svg11.dtd">
<!-- Generated by graphviz version 2.26.0 (20091210.2329)
 -->
<!-- Title: uiBase Pages: 1 -->
<svg width="106pt" height="225pt"
 viewBox="0.00 0.00 106.00 225.00" xmlns="http://www.w3.org/2000/svg" xmlns:xlink="http://www.w3.org/1999/xlink">
<g id="graph1" class="graph" transform="scale(1 1) rotate(0) translate(4 221)">
<title>uiBase</title>
<polygon fill="white" stroke="white" points="-4,5 -4,-221 103,-221 103,5 -4,5"/>
<g id="graph2" class="cluster"><title>clusterdir_d2b9221de5326749103b27af6319345b</title>
<a xlink:href="dir_d2b9221de5326749103b27af6319345b.html" target="_top" xlink:title="include">
<polygon fill="#ddddee" stroke="black" points="8,-136 8,-209 78,-209 78,-136 8,-136"/>
<text text-anchor="middle" x="43" y="-196" font-family="Helvetica,sans-Serif" font-size="10.00">include</text>
</a>
</g>
<!-- dir_d58547225052419d4950f25c06d5e500 -->
<g id="node2" class="node"><title>dir_d58547225052419d4950f25c06d5e500</title>
<a xlink:href="dir_d58547225052419d4950f25c06d5e500.html" target="_top" xlink:title="uiBase">
<polygon fill="#eeeeff" stroke="black" points="70,-180 16,-180 16,-144 70,-144 70,-180"/>
<text text-anchor="middle" x="43" y="-159.5" font-family="Helvetica,sans-Serif" font-size="10.00">uiBase</text>
</a>
</g>
<!-- dir_cc4a0e24939644b536f11a8c115a722d -->
<g id="node3" class="node"><title>dir_cc4a0e24939644b536f11a8c115a722d</title>
<a xlink:href="dir_cc4a0e24939644b536f11a8c115a722d.html" target="_top" xlink:title="Basic">
<polygon fill="none" stroke="black" points="70,-36 16,-36 16,-1.77636e-14 70,-3.55271e-15 70,-36"/>
<text text-anchor="middle" x="43" y="-15.5" font-family="Helvetica,sans-Serif" font-size="10.00">Basic</text>
</a>
</g>
<!-- dir_d58547225052419d4950f25c06d5e500&#45;&gt;dir_cc4a0e24939644b536f11a8c115a722d -->
<g id="edge3" class="edge"><title>dir_d58547225052419d4950f25c06d5e500&#45;&gt;dir_cc4a0e24939644b536f11a8c115a722d</title>
<path fill="none" stroke="black" d="M39.585,-143.58C37.8291,-133.177 35.8774,-119.909 35,-108 33.8244,-92.0432 33.8244,-87.9568 35,-72 35.6169,-63.6264 36.7649,-54.5812 38.0026,-46.3322"/>
<polygon fill="black" stroke="black" points="41.4648,-46.8463 39.585,-36.4196 34.5523,-45.7428 41.4648,-46.8463"/>
<a xlink:href="dir_000027_000005.html" target="_top" xlink:title="61">
<text text-anchor="middle" x="43.702" y="-48.3436" font-family="Helvetica,sans-Serif" font-size="10.00">61</text>
</a>
</g>
<!-- dir_80f7a5e12bcad5460b6cfcfd0f5e6ceb -->
<g id="node4" class="node"><title>dir_80f7a5e12bcad5460b6cfcfd0f5e6ceb</title>
<a xlink:href="dir_80f7a5e12bcad5460b6cfcfd0f5e6ceb.html" target="_top" xlink:title="General">
<polygon fill="none" stroke="black" points="98,-108 44,-108 44,-72 98,-72 98,-108"/>
<text text-anchor="middle" x="71" y="-87.5" font-family="Helvetica,sans-Serif" font-size="10.00">General</text>
</a>
</g>
<!-- dir_d58547225052419d4950f25c06d5e500&#45;&gt;dir_80f7a5e12bcad5460b6cfcfd0f5e6ceb -->
<g id="edge5" class="edge"><title>dir_d58547225052419d4950f25c06d5e500&#45;&gt;dir_80f7a5e12bcad5460b6cfcfd0f5e6ceb</title>
<path fill="none" stroke="black" d="M50.0656,-143.831C53.126,-135.962 56.7779,-126.571 60.1682,-117.853"/>
<polygon fill="black" stroke="black" points="63.4768,-119.002 63.8393,-108.413 56.9527,-116.465 63.4768,-119.002"/>
<a xlink:href="dir_000027_000006.html" target="_top" xlink:title="23">
<text text-anchor="middle" x="64.8202" y="-120.881" font-family="Helvetica,sans-Serif" font-size="10.00">23</text>
</a>
</g>
<!-- dir_80f7a5e12bcad5460b6cfcfd0f5e6ceb&#45;&gt;dir_cc4a0e24939644b536f11a8c115a722d -->
<g id="edge7" class="edge"><title>dir_80f7a5e12bcad5460b6cfcfd0f5e6ceb&#45;&gt;dir_cc4a0e24939644b536f11a8c115a722d</title>
<path fill="none" stroke="black" d="M63.9344,-71.8314C60.874,-63.9617 57.2221,-54.5712 53.8318,-45.8533"/>
<polygon fill="black" stroke="black" points="57.0473,-44.4647 50.1607,-36.4133 50.5232,-47.0019 57.0473,-44.4647"/>
<a xlink:href="dir_000006_000005.html" target="_top" xlink:title="233">
<text text-anchor="middle" x="60.9963" y="-44.2859" font-family="Helvetica,sans-Serif" font-size="10.00">233</text>
</a>
</g>
</g>
</svg>
