<?xml version="1.0" encoding="UTF-8" standalone="no"?>
<!DOCTYPE svg PUBLIC "-//W3C//DTD SVG 1.1//EN"
 "http://www.w3.org/Graphics/SVG/1.1/DTD/svg11.dtd">
<!-- Generated by graphviz version 2.26.0 (20091210.2329)
 -->
<!-- Title: uiMPE Pages: 1 -->
<svg width="660pt" height="513pt"
 viewBox="0.00 0.00 660.00 513.00" xmlns="http://www.w3.org/2000/svg" xmlns:xlink="http://www.w3.org/1999/xlink">
<g id="graph1" class="graph" transform="scale(1 1) rotate(0) translate(4 509)">
<title>uiMPE</title>
<polygon fill="white" stroke="white" points="-4,5 -4,-509 657,-509 657,5 -4,5"/>
<g id="graph2" class="cluster"><title>clusterdir_d2b9221de5326749103b27af6319345b</title>
<a xlink:href="dir_d2b9221de5326749103b27af6319345b.html" target="_top" xlink:title="include">
<polygon fill="#ddddee" stroke="black" points="269,-424 269,-497 339,-497 339,-424 269,-424"/>
<text text-anchor="middle" x="304" y="-484" font-family="Helvetica,sans-Serif" font-size="10.00">include</text>
</a>
</g>
<!-- dir_9cf464fc0843dbf363707f8f1439a2cc -->
<g id="node2" class="node"><title>dir_9cf464fc0843dbf363707f8f1439a2cc</title>
<a xlink:href="dir_9cf464fc0843dbf363707f8f1439a2cc.html" target="_top" xlink:title="uiMPE">
<polygon fill="#eeeeff" stroke="black" points="331,-468 277,-468 277,-432 331,-432 331,-468"/>
<text text-anchor="middle" x="304" y="-447.5" font-family="Helvetica,sans-Serif" font-size="10.00">uiMPE</text>
</a>
</g>
<!-- dir_a4e11dda51689ce1c2d226f842ef9681 -->
<g id="node3" class="node"><title>dir_a4e11dda51689ce1c2d226f842ef9681</title>
<a xlink:href="dir_a4e11dda51689ce1c2d226f842ef9681.html" target="_top" xlink:title="AttributeEngine">
<polygon fill="none" stroke="black" points="490,-324 408,-324 408,-288 490,-288 490,-324"/>
<text text-anchor="middle" x="449" y="-303.5" font-family="Helvetica,sans-Serif" font-size="10.00">AttributeEngine</text>
</a>
</g>
<!-- dir_9cf464fc0843dbf363707f8f1439a2cc&#45;&gt;dir_a4e11dda51689ce1c2d226f842ef9681 -->
<g id="edge45" class="edge"><title>dir_9cf464fc0843dbf363707f8f1439a2cc&#45;&gt;dir_a4e11dda51689ce1c2d226f842ef9681</title>
<path fill="none" stroke="black" d="M331.125,-438.053C350.309,-428.637 375.759,-414.093 394,-396 412.24,-377.908 427.006,-352.615 436.628,-333.448"/>
<polygon fill="black" stroke="black" points="439.84,-334.847 441.057,-324.322 433.542,-331.791 439.84,-334.847"/>
<a xlink:href="dir_000024_000008.html" target="_top" xlink:title="1">
<text text-anchor="middle" x="440.825" y="-336.82" font-family="Helvetica,sans-Serif" font-size="10.00">1</text>
</a>
</g>
<!-- dir_ac841071a1c8cf597098dd9117b3679e -->
<g id="node4" class="node"><title>dir_ac841071a1c8cf597098dd9117b3679e</title>
<a xlink:href="dir_ac841071a1c8cf597098dd9117b3679e.html" target="_top" xlink:title="EarthModel">
<polygon fill="none" stroke="black" points="200,-324 134,-324 134,-288 200,-288 200,-324"/>
<text text-anchor="middle" x="167" y="-303.5" font-family="Helvetica,sans-Serif" font-size="10.00">EarthModel</text>
</a>
</g>
<!-- dir_9cf464fc0843dbf363707f8f1439a2cc&#45;&gt;dir_ac841071a1c8cf597098dd9117b3679e -->
<g id="edge47" class="edge"><title>dir_9cf464fc0843dbf363707f8f1439a2cc&#45;&gt;dir_ac841071a1c8cf597098dd9117b3679e</title>
<path fill="none" stroke="black" d="M276.714,-442.273C253.122,-434.284 219.65,-419.606 199,-396 183.799,-378.623 175.668,-353.529 171.412,-334.251"/>
<polygon fill="black" stroke="black" points="174.803,-333.354 169.426,-324.225 167.936,-334.714 174.803,-333.354"/>
<a xlink:href="dir_000024_000020.html" target="_top" xlink:title="9">
<text text-anchor="middle" x="178.286" y="-333.829" font-family="Helvetica,sans-Serif" font-size="10.00">9</text>
</a>
</g>
<!-- dir_cc4a0e24939644b536f11a8c115a722d -->
<g id="node5" class="node"><title>dir_cc4a0e24939644b536f11a8c115a722d</title>
<a xlink:href="dir_cc4a0e24939644b536f11a8c115a722d.html" target="_top" xlink:title="Basic">
<polygon fill="none" stroke="black" points="331,-36 277,-36 277,-1.77636e-14 331,-3.55271e-15 331,-36"/>
<text text-anchor="middle" x="304" y="-15.5" font-family="Helvetica,sans-Serif" font-size="10.00">Basic</text>
</a>
</g>
<!-- dir_9cf464fc0843dbf363707f8f1439a2cc&#45;&gt;dir_cc4a0e24939644b536f11a8c115a722d -->
<g id="edge49" class="edge"><title>dir_9cf464fc0843dbf363707f8f1439a2cc&#45;&gt;dir_cc4a0e24939644b536f11a8c115a722d</title>
<path fill="none" stroke="black" d="M276.754,-443.324C202.137,-424.25 0,-366.954 0,-306 0,-306 0,-306 0,-162 0,-103.546 185.896,-48.4562 266.952,-27.2138"/>
<polygon fill="black" stroke="black" points="267.951,-30.5708 276.754,-24.6763 266.196,-23.7941 267.951,-30.5708"/>
<a xlink:href="dir_000024_000005.html" target="_top" xlink:title="19">
<text text-anchor="middle" x="265.182" y="-31.7202" font-family="Helvetica,sans-Serif" font-size="10.00">19</text>
</a>
</g>
<!-- dir_d58547225052419d4950f25c06d5e500 -->
<g id="node6" class="node"><title>dir_d58547225052419d4950f25c06d5e500</title>
<a xlink:href="dir_d58547225052419d4950f25c06d5e500.html" target="_top" xlink:title="uiBase">
<polygon fill="none" stroke="black" points="652,-252 598,-252 598,-216 652,-216 652,-252"/>
<text text-anchor="middle" x="625" y="-231.5" font-family="Helvetica,sans-Serif" font-size="10.00">uiBase</text>
</a>
</g>
<!-- dir_9cf464fc0843dbf363707f8f1439a2cc&#45;&gt;dir_d58547225052419d4950f25c06d5e500 -->
<g id="edge51" class="edge"><title>dir_9cf464fc0843dbf363707f8f1439a2cc&#45;&gt;dir_d58547225052419d4950f25c06d5e500</title>
<path fill="none" stroke="black" d="M331.269,-444.021C384.283,-431.077 502.077,-395.676 571,-324 588.72,-305.573 603.236,-280.312 612.738,-261.243"/>
<polygon fill="black" stroke="black" points="615.922,-262.698 617.116,-252.17 609.617,-259.655 615.922,-262.698"/>
<a xlink:href="dir_000024_000027.html" target="_top" xlink:title="2">
<text text-anchor="middle" x="616.917" y="-264.669" font-family="Helvetica,sans-Serif" font-size="10.00">2</text>
</a>
</g>
<!-- dir_6268b49073b78c88d26984fabe0817a7 -->
<g id="node7" class="node"><title>dir_6268b49073b78c88d26984fabe0817a7</title>
<a xlink:href="dir_6268b49073b78c88d26984fabe0817a7.html" target="_top" xlink:title="Algo">
<polygon fill="none" stroke="black" points="276,-108 222,-108 222,-72 276,-72 276,-108"/>
<text text-anchor="middle" x="249" y="-87.5" font-family="Helvetica,sans-Serif" font-size="10.00">Algo</text>
</a>
</g>
<!-- dir_9cf464fc0843dbf363707f8f1439a2cc&#45;&gt;dir_6268b49073b78c88d26984fabe0817a7 -->
<g id="edge53" class="edge"><title>dir_9cf464fc0843dbf363707f8f1439a2cc&#45;&gt;dir_6268b49073b78c88d26984fabe0817a7</title>
<path fill="none" stroke="black" d="M276.964,-443.51C249.116,-435.789 205.58,-420.735 175,-396 144.709,-371.499 136.643,-361.179 125,-324 99.5295,-242.668 175.962,-156.43 220.075,-115.035"/>
<polygon fill="black" stroke="black" points="222.652,-117.42 227.643,-108.074 217.913,-112.268 222.652,-117.42"/>
<a xlink:href="dir_000024_000003.html" target="_top" xlink:title="2">
<text text-anchor="middle" x="221.929" y="-119.443" font-family="Helvetica,sans-Serif" font-size="10.00">2</text>
</a>
</g>
<!-- dir_011e459a6131a5a818b4c0484e3c2a97 -->
<g id="node8" class="node"><title>dir_011e459a6131a5a818b4c0484e3c2a97</title>
<a xlink:href="dir_011e459a6131a5a818b4c0484e3c2a97.html" target="_top" xlink:title="MPEEngine">
<polygon fill="none" stroke="black" points="276,-396 208,-396 208,-360 276,-360 276,-396"/>
<text text-anchor="middle" x="242" y="-375.5" font-family="Helvetica,sans-Serif" font-size="10.00">MPEEngine</text>
</a>
</g>
<!-- dir_9cf464fc0843dbf363707f8f1439a2cc&#45;&gt;dir_011e459a6131a5a818b4c0484e3c2a97 -->
<g id="edge55" class="edge"><title>dir_9cf464fc0843dbf363707f8f1439a2cc&#45;&gt;dir_011e459a6131a5a818b4c0484e3c2a97</title>
<path fill="none" stroke="black" d="M288.355,-431.831C281.141,-423.454 272.443,-413.353 264.54,-404.175"/>
<polygon fill="black" stroke="black" points="267.033,-401.707 257.856,-396.413 261.729,-406.275 267.033,-401.707"/>
<a xlink:href="dir_000024_000010.html" target="_top" xlink:title="4">
<text text-anchor="middle" x="271.53" y="-400.078" font-family="Helvetica,sans-Serif" font-size="10.00">4</text>
</a>
</g>
<!-- dir_4f22cc067df9f3250d4d5cf919c785c6 -->
<g id="node9" class="node"><title>dir_4f22cc067df9f3250d4d5cf919c785c6</title>
<a xlink:href="dir_4f22cc067df9f3250d4d5cf919c785c6.html" target="_top" xlink:title="Geometry">
<polygon fill="none" stroke="black" points="314,-252 256,-252 256,-216 314,-216 314,-252"/>
<text text-anchor="middle" x="285" y="-231.5" font-family="Helvetica,sans-Serif" font-size="10.00">Geometry</text>
</a>
</g>
<!-- dir_9cf464fc0843dbf363707f8f1439a2cc&#45;&gt;dir_4f22cc067df9f3250d4d5cf919c785c6 -->
<g id="edge57" class="edge"><title>dir_9cf464fc0843dbf363707f8f1439a2cc&#45;&gt;dir_4f22cc067df9f3250d4d5cf919c785c6</title>
<path fill="none" stroke="black" d="M302.413,-431.955C299.102,-394.314 291.438,-307.187 287.474,-262.125"/>
<polygon fill="black" stroke="black" points="290.959,-261.8 286.596,-252.145 283.986,-262.413 290.959,-261.8"/>
<a xlink:href="dir_000024_000007.html" target="_top" xlink:title="1">
<text text-anchor="middle" x="294.102" y="-262.632" font-family="Helvetica,sans-Serif" font-size="10.00">1</text>
</a>
</g>
<!-- dir_80f7a5e12bcad5460b6cfcfd0f5e6ceb -->
<g id="node10" class="node"><title>dir_80f7a5e12bcad5460b6cfcfd0f5e6ceb</title>
<a xlink:href="dir_80f7a5e12bcad5460b6cfcfd0f5e6ceb.html" target="_top" xlink:title="General">
<polygon fill="none" stroke="black" points="386,-180 332,-180 332,-144 386,-144 386,-180"/>
<text text-anchor="middle" x="359" y="-159.5" font-family="Helvetica,sans-Serif" font-size="10.00">General</text>
</a>
</g>
<!-- dir_9cf464fc0843dbf363707f8f1439a2cc&#45;&gt;dir_80f7a5e12bcad5460b6cfcfd0f5e6ceb -->
<g id="edge59" class="edge"><title>dir_9cf464fc0843dbf363707f8f1439a2cc&#45;&gt;dir_80f7a5e12bcad5460b6cfcfd0f5e6ceb</title>
<path fill="none" stroke="black" d="M308.093,-431.77C315.84,-396.943 332.952,-318.493 345,-252 348.73,-231.416 352.343,-208.072 354.965,-190.317"/>
<polygon fill="black" stroke="black" points="358.444,-190.717 356.424,-180.316 351.517,-189.706 358.444,-190.717"/>
<a xlink:href="dir_000024_000006.html" target="_top" xlink:title="7">
<text text-anchor="middle" x="360.734" y="-192.184" font-family="Helvetica,sans-Serif" font-size="10.00">7</text>
</a>
</g>
<!-- dir_3294b7a2d3100053ff8030387b3365d6 -->
<g id="node11" class="node"><title>dir_3294b7a2d3100053ff8030387b3365d6</title>
<a xlink:href="dir_3294b7a2d3100053ff8030387b3365d6.html" target="_top" xlink:title="uiTools">
<polygon fill="none" stroke="black" points="562,-324 508,-324 508,-288 562,-288 562,-324"/>
<text text-anchor="middle" x="535" y="-303.5" font-family="Helvetica,sans-Serif" font-size="10.00">uiTools</text>
</a>
</g>
<!-- dir_9cf464fc0843dbf363707f8f1439a2cc&#45;&gt;dir_3294b7a2d3100053ff8030387b3365d6 -->
<g id="edge61" class="edge"><title>dir_9cf464fc0843dbf363707f8f1439a2cc&#45;&gt;dir_3294b7a2d3100053ff8030387b3365d6</title>
<path fill="none" stroke="black" d="M331.191,-439.763C355.741,-430.013 392.437,-414.161 422,-396 453.213,-376.825 485.594,-350.233 507.649,-330.929"/>
<polygon fill="black" stroke="black" points="510.115,-333.421 515.286,-324.175 505.477,-328.178 510.115,-333.421"/>
<a xlink:href="dir_000024_000004.html" target="_top" xlink:title="4">
<text text-anchor="middle" x="509.303" y="-335.43" font-family="Helvetica,sans-Serif" font-size="10.00">4</text>
</a>
</g>
<!-- dir_a4e11dda51689ce1c2d226f842ef9681&#45;&gt;dir_cc4a0e24939644b536f11a8c115a722d -->
<g id="edge3" class="edge"><title>dir_a4e11dda51689ce1c2d226f842ef9681&#45;&gt;dir_cc4a0e24939644b536f11a8c115a722d</title>
<path fill="none" stroke="black" d="M444.706,-287.866C437.072,-257.224 419.595,-193.684 395,-144 377.828,-109.31 368.782,-103.293 346,-72 339.325,-62.8319 331.787,-52.9905 324.957,-44.2536"/>
<polygon fill="black" stroke="black" points="327.612,-41.968 318.678,-36.2734 322.111,-46.2966 327.612,-41.968"/>
<a xlink:href="dir_000008_000005.html" target="_top" xlink:title="57">
<text text-anchor="middle" x="332.067" y="-40.5372" font-family="Helvetica,sans-Serif" font-size="10.00">57</text>
</a>
</g>
<!-- dir_a4e11dda51689ce1c2d226f842ef9681&#45;&gt;dir_80f7a5e12bcad5460b6cfcfd0f5e6ceb -->
<g id="edge5" class="edge"><title>dir_a4e11dda51689ce1c2d226f842ef9681&#45;&gt;dir_80f7a5e12bcad5460b6cfcfd0f5e6ceb</title>
<path fill="none" stroke="black" d="M438.182,-287.984C427.19,-269.753 409.608,-240.795 394,-216 388.434,-207.158 382.265,-197.57 376.675,-188.961"/>
<polygon fill="black" stroke="black" points="379.499,-186.886 371.109,-180.417 373.634,-190.706 379.499,-186.886"/>
<a xlink:href="dir_000008_000006.html" target="_top" xlink:title="6">
<text text-anchor="middle" x="383.84" y="-185.848" font-family="Helvetica,sans-Serif" font-size="10.00">6</text>
</a>
</g>
<!-- dir_ac841071a1c8cf597098dd9117b3679e&#45;&gt;dir_cc4a0e24939644b536f11a8c115a722d -->
<g id="edge7" class="edge"><title>dir_ac841071a1c8cf597098dd9117b3679e&#45;&gt;dir_cc4a0e24939644b536f11a8c115a722d</title>
<path fill="none" stroke="black" d="M165.533,-287.753C163.1,-245.323 162.736,-138.584 213,-72 226.824,-53.6872 248.82,-40.3898 267.723,-31.5729"/>
<polygon fill="black" stroke="black" points="269.25,-34.7249 276.985,-27.4852 266.423,-28.3209 269.25,-34.7249"/>
<a xlink:href="dir_000020_000005.html" target="_top" xlink:title="124">
<text text-anchor="middle" x="267.108" y="-36.2738" font-family="Helvetica,sans-Serif" font-size="10.00">124</text>
</a>
</g>
<!-- dir_ac841071a1c8cf597098dd9117b3679e&#45;&gt;dir_6268b49073b78c88d26984fabe0817a7 -->
<g id="edge9" class="edge"><title>dir_ac841071a1c8cf597098dd9117b3679e&#45;&gt;dir_6268b49073b78c88d26984fabe0817a7</title>
<path fill="none" stroke="black" d="M170.441,-287.893C176.65,-257.289 191.235,-193.806 214,-144 218.274,-134.649 223.999,-125.042 229.578,-116.572"/>
<polygon fill="black" stroke="black" points="232.534,-118.45 235.273,-108.216 226.749,-114.508 232.534,-118.45"/>
<a xlink:href="dir_000020_000003.html" target="_top" xlink:title="11">
<text text-anchor="middle" x="232.856" y="-120.52" font-family="Helvetica,sans-Serif" font-size="10.00">11</text>
</a>
</g>
<!-- dir_ac841071a1c8cf597098dd9117b3679e&#45;&gt;dir_4f22cc067df9f3250d4d5cf919c785c6 -->
<g id="edge11" class="edge"><title>dir_ac841071a1c8cf597098dd9117b3679e&#45;&gt;dir_4f22cc067df9f3250d4d5cf919c785c6</title>
<path fill="none" stroke="black" d="M196.776,-287.831C211.985,-278.552 230.658,-267.158 246.904,-257.245"/>
<polygon fill="black" stroke="black" points="248.929,-260.11 255.642,-251.913 245.282,-254.134 248.929,-260.11"/>
<a xlink:href="dir_000020_000007.html" target="_top" xlink:title="6">
<text text-anchor="middle" x="247.339" y="-261.906" font-family="Helvetica,sans-Serif" font-size="10.00">6</text>
</a>
</g>
<!-- dir_ac841071a1c8cf597098dd9117b3679e&#45;&gt;dir_80f7a5e12bcad5460b6cfcfd0f5e6ceb -->
<g id="edge13" class="edge"><title>dir_ac841071a1c8cf597098dd9117b3679e&#45;&gt;dir_80f7a5e12bcad5460b6cfcfd0f5e6ceb</title>
<path fill="none" stroke="black" d="M179.704,-287.847C194.195,-268.165 219.471,-236.785 247,-216 270.063,-198.587 299.634,-184.618 322.599,-175.254"/>
<polygon fill="black" stroke="black" points="323.993,-178.466 331.998,-171.526 321.412,-171.959 323.993,-178.466"/>
<a xlink:href="dir_000020_000006.html" target="_top" xlink:title="14">
<text text-anchor="middle" x="321.699" y="-179.931" font-family="Helvetica,sans-Serif" font-size="10.00">14</text>
</a>
</g>
<!-- dir_d58547225052419d4950f25c06d5e500&#45;&gt;dir_cc4a0e24939644b536f11a8c115a722d -->
<g id="edge15" class="edge"><title>dir_d58547225052419d4950f25c06d5e500&#45;&gt;dir_cc4a0e24939644b536f11a8c115a722d</title>
<path fill="none" stroke="black" d="M626.188,-215.858C627.313,-182.246 624.501,-110.242 584,-72 549.49,-39.415 409.598,-25.3484 341.545,-20.3398"/>
<polygon fill="black" stroke="black" points="341.489,-16.8271 331.267,-19.6122 340.994,-23.8096 341.489,-16.8271"/>
<a xlink:href="dir_000027_000005.html" target="_top" xlink:title="61">
<text text-anchor="middle" x="345.275" y="-11.7486" font-family="Helvetica,sans-Serif" font-size="10.00">61</text>
</a>
</g>
<!-- dir_d58547225052419d4950f25c06d5e500&#45;&gt;dir_80f7a5e12bcad5460b6cfcfd0f5e6ceb -->
<g id="edge17" class="edge"><title>dir_d58547225052419d4950f25c06d5e500&#45;&gt;dir_80f7a5e12bcad5460b6cfcfd0f5e6ceb</title>
<path fill="none" stroke="black" d="M597.535,-226.566C549.525,-213.571 450.308,-186.715 396.191,-172.067"/>
<polygon fill="black" stroke="black" points="396.883,-168.628 386.315,-169.394 395.054,-175.385 396.883,-168.628"/>
<a xlink:href="dir_000027_000006.html" target="_top" xlink:title="23">
<text text-anchor="middle" x="401.094" y="-164.326" font-family="Helvetica,sans-Serif" font-size="10.00">23</text>
</a>
</g>
<!-- dir_6268b49073b78c88d26984fabe0817a7&#45;&gt;dir_cc4a0e24939644b536f11a8c115a722d -->
<g id="edge19" class="edge"><title>dir_6268b49073b78c88d26984fabe0817a7&#45;&gt;dir_cc4a0e24939644b536f11a8c115a722d</title>
<path fill="none" stroke="black" d="M262.879,-71.8314C269.214,-63.5386 276.838,-53.557 283.793,-44.4533"/>
<polygon fill="black" stroke="black" points="286.645,-46.4847 289.934,-36.4133 281.083,-42.2353 286.645,-46.4847"/>
<a xlink:href="dir_000003_000005.html" target="_top" xlink:title="235">
<text text-anchor="middle" x="286.719" y="-48.5647" font-family="Helvetica,sans-Serif" font-size="10.00">235</text>
</a>
</g>
<!-- dir_6268b49073b78c88d26984fabe0817a7&#45;&gt;dir_80f7a5e12bcad5460b6cfcfd0f5e6ceb -->
<g id="edge21" class="edge"><title>dir_6268b49073b78c88d26984fabe0817a7&#45;&gt;dir_80f7a5e12bcad5460b6cfcfd0f5e6ceb</title>
<path fill="none" stroke="black" d="M276.37,-104.306C292.25,-113.879 312.163,-126.717 328.521,-137.852"/>
<polygon fill="black" stroke="black" points="326.975,-141.037 337.195,-143.831 330.948,-135.274 326.975,-141.037"/>
<a xlink:href="dir_000003_000006.html" target="_top" xlink:title="1">
<text text-anchor="middle" x="322.404" y="-138.835" font-family="Helvetica,sans-Serif" font-size="10.00">1</text>
</a>
</g>
<!-- dir_011e459a6131a5a818b4c0484e3c2a97&#45;&gt;dir_a4e11dda51689ce1c2d226f842ef9681 -->
<g id="edge23" class="edge"><title>dir_011e459a6131a5a818b4c0484e3c2a97&#45;&gt;dir_a4e11dda51689ce1c2d226f842ef9681</title>
<path fill="none" stroke="black" d="M276.182,-366.111C309.387,-354.561 360.208,-336.884 398.156,-323.685"/>
<polygon fill="black" stroke="black" points="399.704,-326.852 407.999,-320.261 397.404,-320.241 399.704,-326.852"/>
<a xlink:href="dir_000010_000008.html" target="_top" xlink:title="4">
<text text-anchor="middle" x="397.242" y="-328.215" font-family="Helvetica,sans-Serif" font-size="10.00">4</text>
</a>
</g>
<!-- dir_011e459a6131a5a818b4c0484e3c2a97&#45;&gt;dir_ac841071a1c8cf597098dd9117b3679e -->
<g id="edge25" class="edge"><title>dir_011e459a6131a5a818b4c0484e3c2a97&#45;&gt;dir_ac841071a1c8cf597098dd9117b3679e</title>
<path fill="none" stroke="black" d="M223.074,-359.831C214.014,-351.134 203.019,-340.578 193.173,-331.127"/>
<polygon fill="black" stroke="black" points="195.557,-328.563 185.92,-324.163 190.71,-333.613 195.557,-328.563"/>
<a xlink:href="dir_000010_000020.html" target="_top" xlink:title="12">
<text text-anchor="middle" x="200.117" y="-326.504" font-family="Helvetica,sans-Serif" font-size="10.00">12</text>
</a>
</g>
<!-- dir_011e459a6131a5a818b4c0484e3c2a97&#45;&gt;dir_cc4a0e24939644b536f11a8c115a722d -->
<g id="edge27" class="edge"><title>dir_011e459a6131a5a818b4c0484e3c2a97&#45;&gt;dir_cc4a0e24939644b536f11a8c115a722d</title>
<path fill="none" stroke="black" d="M207.877,-366.863C176.86,-355.968 134.525,-338.887 125,-324 116.377,-310.523 122.687,-303.832 125,-288 139.495,-188.801 124.463,-147.865 190,-72 209.881,-48.9863 241.737,-35.0506 266.728,-27.1159"/>
<polygon fill="black" stroke="black" points="268.032,-30.3794 276.617,-24.17 266.033,-23.6708 268.032,-30.3794"/>
<a xlink:href="dir_000010_000005.html" target="_top" xlink:title="50">
<text text-anchor="middle" x="265.398" y="-31.6267" font-family="Helvetica,sans-Serif" font-size="10.00">50</text>
</a>
</g>
<!-- dir_011e459a6131a5a818b4c0484e3c2a97&#45;&gt;dir_6268b49073b78c88d26984fabe0817a7 -->
<g id="edge29" class="edge"><title>dir_011e459a6131a5a818b4c0484e3c2a97&#45;&gt;dir_6268b49073b78c88d26984fabe0817a7</title>
<path fill="none" stroke="black" d="M242.438,-359.984C243.621,-311.294 246.89,-176.796 248.318,-118.057"/>
<polygon fill="black" stroke="black" points="251.818,-118.091 248.562,-108.009 244.82,-117.921 251.818,-118.091"/>
<a xlink:href="dir_000010_000003.html" target="_top" xlink:title="4">
<text text-anchor="middle" x="254.569" y="-119.254" font-family="Helvetica,sans-Serif" font-size="10.00">4</text>
</a>
</g>
<!-- dir_011e459a6131a5a818b4c0484e3c2a97&#45;&gt;dir_4f22cc067df9f3250d4d5cf919c785c6 -->
<g id="edge31" class="edge"><title>dir_011e459a6131a5a818b4c0484e3c2a97&#45;&gt;dir_4f22cc067df9f3250d4d5cf919c785c6</title>
<path fill="none" stroke="black" d="M247.446,-359.762C254.813,-335.093 268.021,-290.86 276.647,-261.973"/>
<polygon fill="black" stroke="black" points="280.091,-262.673 279.598,-252.09 273.383,-260.67 280.091,-262.673"/>
<a xlink:href="dir_000010_000007.html" target="_top" xlink:title="1">
<text text-anchor="middle" x="281.783" y="-264.43" font-family="Helvetica,sans-Serif" font-size="10.00">1</text>
</a>
</g>
<!-- dir_011e459a6131a5a818b4c0484e3c2a97&#45;&gt;dir_80f7a5e12bcad5460b6cfcfd0f5e6ceb -->
<g id="edge33" class="edge"><title>dir_011e459a6131a5a818b4c0484e3c2a97&#45;&gt;dir_80f7a5e12bcad5460b6cfcfd0f5e6ceb</title>
<path fill="none" stroke="black" d="M254.465,-359.594C261.458,-349.195 270.3,-335.927 278,-324 298.468,-292.297 305.925,-285.652 323,-252 333.296,-231.708 342.759,-207.744 349.396,-189.648"/>
<polygon fill="black" stroke="black" points="352.775,-190.596 352.872,-180.001 346.189,-188.223 352.775,-190.596"/>
<a xlink:href="dir_000010_000006.html" target="_top" xlink:title="1">
<text text-anchor="middle" x="354.228" y="-192.44" font-family="Helvetica,sans-Serif" font-size="10.00">1</text>
</a>
</g>
<!-- dir_4f22cc067df9f3250d4d5cf919c785c6&#45;&gt;dir_cc4a0e24939644b536f11a8c115a722d -->
<g id="edge35" class="edge"><title>dir_4f22cc067df9f3250d4d5cf919c785c6&#45;&gt;dir_cc4a0e24939644b536f11a8c115a722d</title>
<path fill="none" stroke="black" d="M286.587,-215.955C289.898,-178.314 297.562,-91.1867 301.526,-46.1246"/>
<polygon fill="black" stroke="black" points="305.014,-46.4133 302.404,-36.1451 298.041,-45.7999 305.014,-46.4133"/>
<a xlink:href="dir_000007_000005.html" target="_top" xlink:title="57">
<text text-anchor="middle" x="307.528" y="-47.7429" font-family="Helvetica,sans-Serif" font-size="10.00">57</text>
</a>
</g>
<!-- dir_4f22cc067df9f3250d4d5cf919c785c6&#45;&gt;dir_6268b49073b78c88d26984fabe0817a7 -->
<g id="edge37" class="edge"><title>dir_4f22cc067df9f3250d4d5cf919c785c6&#45;&gt;dir_6268b49073b78c88d26984fabe0817a7</title>
<path fill="none" stroke="black" d="M280.441,-215.762C274.273,-191.093 263.215,-146.86 255.993,-117.973"/>
<polygon fill="black" stroke="black" points="259.343,-116.942 253.522,-108.09 252.552,-118.64 259.343,-116.942"/>
<a xlink:href="dir_000007_000003.html" target="_top" xlink:title="2">
<text text-anchor="middle" x="262.97" y="-117.241" font-family="Helvetica,sans-Serif" font-size="10.00">2</text>
</a>
</g>
<!-- dir_4f22cc067df9f3250d4d5cf919c785c6&#45;&gt;dir_80f7a5e12bcad5460b6cfcfd0f5e6ceb -->
<g id="edge39" class="edge"><title>dir_4f22cc067df9f3250d4d5cf919c785c6&#45;&gt;dir_80f7a5e12bcad5460b6cfcfd0f5e6ceb</title>
<path fill="none" stroke="black" d="M303.673,-215.831C312.525,-207.219 323.249,-196.785 332.889,-187.405"/>
<polygon fill="black" stroke="black" points="335.606,-189.645 340.333,-180.163 330.725,-184.628 335.606,-189.645"/>
<a xlink:href="dir_000007_000006.html" target="_top" xlink:title="8">
<text text-anchor="middle" x="335.01" y="-191.687" font-family="Helvetica,sans-Serif" font-size="10.00">8</text>
</a>
</g>
<!-- dir_80f7a5e12bcad5460b6cfcfd0f5e6ceb&#45;&gt;dir_cc4a0e24939644b536f11a8c115a722d -->
<g id="edge41" class="edge"><title>dir_80f7a5e12bcad5460b6cfcfd0f5e6ceb&#45;&gt;dir_cc4a0e24939644b536f11a8c115a722d</title>
<path fill="none" stroke="black" d="M352.034,-143.762C342.571,-118.985 325.569,-74.4714 314.539,-45.5939"/>
<polygon fill="black" stroke="black" points="317.747,-44.1826 310.909,-36.0896 311.208,-46.6803 317.747,-44.1826"/>
<a xlink:href="dir_000006_000005.html" target="_top" xlink:title="233">
<text text-anchor="middle" x="321.682" y="-44.0275" font-family="Helvetica,sans-Serif" font-size="10.00">233</text>
</a>
</g>
<!-- dir_80f7a5e12bcad5460b6cfcfd0f5e6ceb&#45;&gt;dir_6268b49073b78c88d26984fabe0817a7 -->
<g id="edge43" class="edge"><title>dir_80f7a5e12bcad5460b6cfcfd0f5e6ceb&#45;&gt;dir_6268b49073b78c88d26984fabe0817a7</title>
<path fill="none" stroke="black" d="M331.764,-147.775C315.663,-138.073 295.382,-124.991 278.865,-113.729"/>
<polygon fill="black" stroke="black" points="280.83,-110.834 270.612,-108.034 276.854,-116.595 280.83,-110.834"/>
<a xlink:href="dir_000006_000003.html" target="_top" xlink:title="18">
<text text-anchor="middle" x="285.402" y="-108.039" font-family="Helvetica,sans-Serif" font-size="10.00">18</text>
</a>
</g>
<!-- dir_3294b7a2d3100053ff8030387b3365d6&#45;&gt;dir_cc4a0e24939644b536f11a8c115a722d -->
<g id="edge63" class="edge"><title>dir_3294b7a2d3100053ff8030387b3365d6&#45;&gt;dir_cc4a0e24939644b536f11a8c115a722d</title>
<path fill="none" stroke="black" d="M530.26,-287.884C524.865,-269.064 514.958,-239.181 501,-216 456.982,-142.895 436.289,-130.327 374,-72 362.911,-61.6164 349.933,-51.19 338.184,-42.3061"/>
<polygon fill="black" stroke="black" points="340.003,-39.2964 329.891,-36.1325 335.823,-44.9114 340.003,-39.2964"/>
<a xlink:href="dir_000004_000005.html" target="_top" xlink:title="103">
<text text-anchor="middle" x="344.581" y="-36.6653" font-family="Helvetica,sans-Serif" font-size="10.00">103</text>
</a>
</g>
<!-- dir_3294b7a2d3100053ff8030387b3365d6&#45;&gt;dir_d58547225052419d4950f25c06d5e500 -->
<g id="edge65" class="edge"><title>dir_3294b7a2d3100053ff8030387b3365d6&#45;&gt;dir_d58547225052419d4950f25c06d5e500</title>
<path fill="none" stroke="black" d="M557.711,-287.831C568.796,-278.963 582.295,-268.164 594.285,-258.572"/>
<polygon fill="black" stroke="black" points="596.674,-261.143 602.296,-252.163 592.301,-255.677 596.674,-261.143"/>
<a xlink:href="dir_000004_000027.html" target="_top" xlink:title="84">
<text text-anchor="middle" x="595.641" y="-263.105" font-family="Helvetica,sans-Serif" font-size="10.00">84</text>
</a>
</g>
<!-- dir_3294b7a2d3100053ff8030387b3365d6&#45;&gt;dir_6268b49073b78c88d26984fabe0817a7 -->
<g id="edge67" class="edge"><title>dir_3294b7a2d3100053ff8030387b3365d6&#45;&gt;dir_6268b49073b78c88d26984fabe0817a7</title>
<path fill="none" stroke="black" d="M524.07,-287.89C503.116,-254.654 454.089,-183.696 395,-144 361.342,-121.388 316.986,-106.732 286.033,-98.4738"/>
<polygon fill="black" stroke="black" points="286.642,-95.0165 276.085,-95.9162 284.899,-101.796 286.642,-95.0165"/>
<a xlink:href="dir_000004_000003.html" target="_top" xlink:title="7">
<text text-anchor="middle" x="290.83" y="-90.6616" font-family="Helvetica,sans-Serif" font-size="10.00">7</text>
</a>
</g>
<!-- dir_3294b7a2d3100053ff8030387b3365d6&#45;&gt;dir_80f7a5e12bcad5460b6cfcfd0f5e6ceb -->
<g id="edge69" class="edge"><title>dir_3294b7a2d3100053ff8030387b3365d6&#45;&gt;dir_80f7a5e12bcad5460b6cfcfd0f5e6ceb</title>
<path fill="none" stroke="black" d="M512.709,-287.762C481.368,-262.119 424.19,-215.337 389.099,-186.626"/>
<polygon fill="black" stroke="black" points="391.065,-183.713 381.11,-180.09 386.633,-189.131 391.065,-183.713"/>
<a xlink:href="dir_000004_000006.html" target="_top" xlink:title="21">
<text text-anchor="middle" x="395.645" y="-181.292" font-family="Helvetica,sans-Serif" font-size="10.00">21</text>
</a>
</g>
</g>
</svg>
