<?xml version="1.0" encoding="UTF-8" standalone="no"?>
<!DOCTYPE svg PUBLIC "-//W3C//DTD SVG 1.1//EN"
 "http://www.w3.org/Graphics/SVG/1.1/DTD/svg11.dtd">
<!-- Generated by graphviz version 2.26.0 (20091210.2329)
 -->
<!-- Title: VolumeProcessing Pages: 1 -->
<svg width="262pt" height="369pt"
 viewBox="0.00 0.00 261.53 369.00" xmlns="http://www.w3.org/2000/svg" xmlns:xlink="http://www.w3.org/1999/xlink">
<g id="graph1" class="graph" transform="scale(1 1) rotate(0) translate(4 365)">
<title>VolumeProcessing</title>
<polygon fill="white" stroke="white" points="-4,5 -4,-365 258.527,-365 258.527,5 -4,5"/>
<g id="graph2" class="cluster"><title>clusterdir_d2b9221de5326749103b27af6319345b</title>
<a xlink:href="dir_d2b9221de5326749103b27af6319345b.html" target="_top" xlink:title="include">
<polygon fill="#ddddee" stroke="black" points="76.5267,-280 76.5267,-353 190.527,-353 190.527,-280 76.5267,-280"/>
<text text-anchor="middle" x="133.527" y="-340" font-family="Helvetica,sans-Serif" font-size="10.00">include</text>
</a>
</g>
<!-- dir_c8e62117b23228ed15f99372ebfe9bd3 -->
<g id="node2" class="node"><title>dir_c8e62117b23228ed15f99372ebfe9bd3</title>
<a xlink:href="dir_c8e62117b23228ed15f99372ebfe9bd3.html" target="_top" xlink:title="VolumeProcessing">
<polygon fill="#eeeeff" stroke="black" points="182.527,-324 84.5267,-324 84.5267,-288 182.527,-288 182.527,-324"/>
<text text-anchor="middle" x="133.527" y="-303.5" font-family="Helvetica,sans-Serif" font-size="10.00">VolumeProcessing</text>
</a>
</g>
<!-- dir_a4e11dda51689ce1c2d226f842ef9681 -->
<g id="node3" class="node"><title>dir_a4e11dda51689ce1c2d226f842ef9681</title>
<a xlink:href="dir_a4e11dda51689ce1c2d226f842ef9681.html" target="_top" xlink:title="AttributeEngine">
<polygon fill="none" stroke="black" points="105.527,-252 23.5267,-252 23.5267,-216 105.527,-216 105.527,-252"/>
<text text-anchor="middle" x="64.5267" y="-231.5" font-family="Helvetica,sans-Serif" font-size="10.00">AttributeEngine</text>
</a>
</g>
<!-- dir_c8e62117b23228ed15f99372ebfe9bd3&#45;&gt;dir_a4e11dda51689ce1c2d226f842ef9681 -->
<g id="edge11" class="edge"><title>dir_c8e62117b23228ed15f99372ebfe9bd3&#45;&gt;dir_a4e11dda51689ce1c2d226f842ef9681</title>
<path fill="none" stroke="black" d="M116.115,-287.831C108.006,-279.369 98.2111,-269.149 89.3448,-259.897"/>
<polygon fill="black" stroke="black" points="91.6188,-257.211 82.1728,-252.413 86.5649,-262.055 91.6188,-257.211"/>
<a xlink:href="dir_000054_000008.html" target="_top" xlink:title="3">
<text text-anchor="middle" x="96.1558" y="-255.342" font-family="Helvetica,sans-Serif" font-size="10.00">3</text>
</a>
</g>
<!-- dir_cc4a0e24939644b536f11a8c115a722d -->
<g id="node4" class="node"><title>dir_cc4a0e24939644b536f11a8c115a722d</title>
<a xlink:href="dir_cc4a0e24939644b536f11a8c115a722d.html" target="_top" xlink:title="Basic">
<polygon fill="none" stroke="black" points="134.527,-36 80.5267,-36 80.5267,-1.77636e-14 134.527,-3.55271e-15 134.527,-36"/>
<text text-anchor="middle" x="107.527" y="-15.5" font-family="Helvetica,sans-Serif" font-size="10.00">Basic</text>
</a>
</g>
<!-- dir_c8e62117b23228ed15f99372ebfe9bd3&#45;&gt;dir_cc4a0e24939644b536f11a8c115a722d -->
<g id="edge13" class="edge"><title>dir_c8e62117b23228ed15f99372ebfe9bd3&#45;&gt;dir_cc4a0e24939644b536f11a8c115a722d</title>
<path fill="none" stroke="black" d="M84.3067,-296.868C58.8494,-289.379 29.949,-275.934 14.5267,-252 -30.1485,-182.667 41.5422,-88.4296 82.3417,-43.6561"/>
<polygon fill="black" stroke="black" points="85.0808,-45.8501 89.3247,-36.1424 79.9533,-41.0848 85.0808,-45.8501"/>
<a xlink:href="dir_000054_000005.html" target="_top" xlink:title="25">
<text text-anchor="middle" x="84.7135" y="-47.916" font-family="Helvetica,sans-Serif" font-size="10.00">25</text>
</a>
</g>
<!-- dir_6268b49073b78c88d26984fabe0817a7 -->
<g id="node5" class="node"><title>dir_6268b49073b78c88d26984fabe0817a7</title>
<a xlink:href="dir_6268b49073b78c88d26984fabe0817a7.html" target="_top" xlink:title="Algo">
<polygon fill="none" stroke="black" points="189.527,-108 135.527,-108 135.527,-72 189.527,-72 189.527,-108"/>
<text text-anchor="middle" x="162.527" y="-87.5" font-family="Helvetica,sans-Serif" font-size="10.00">Algo</text>
</a>
</g>
<!-- dir_c8e62117b23228ed15f99372ebfe9bd3&#45;&gt;dir_6268b49073b78c88d26984fabe0817a7 -->
<g id="edge15" class="edge"><title>dir_c8e62117b23228ed15f99372ebfe9bd3&#45;&gt;dir_6268b49073b78c88d26984fabe0817a7</title>
<path fill="none" stroke="black" d="M136.52,-287.669C140.468,-263.171 147.502,-218.387 152.527,-180 155.214,-159.475 157.782,-136.254 159.643,-118.541"/>
<polygon fill="black" stroke="black" points="163.155,-118.604 160.705,-108.297 156.192,-117.882 163.155,-118.604"/>
<a xlink:href="dir_000054_000003.html" target="_top" xlink:title="2">
<text text-anchor="middle" x="165.609" y="-119.973" font-family="Helvetica,sans-Serif" font-size="10.00">2</text>
</a>
</g>
<!-- dir_467073107133d89c46ce4ba33aad10ae -->
<g id="node6" class="node"><title>dir_467073107133d89c46ce4ba33aad10ae</title>
<a xlink:href="dir_467073107133d89c46ce4ba33aad10ae.html" target="_top" xlink:title="Well">
<polygon fill="none" stroke="black" points="253.527,-252 199.527,-252 199.527,-216 253.527,-216 253.527,-252"/>
<text text-anchor="middle" x="226.527" y="-231.5" font-family="Helvetica,sans-Serif" font-size="10.00">Well</text>
</a>
</g>
<!-- dir_c8e62117b23228ed15f99372ebfe9bd3&#45;&gt;dir_467073107133d89c46ce4ba33aad10ae -->
<g id="edge17" class="edge"><title>dir_c8e62117b23228ed15f99372ebfe9bd3&#45;&gt;dir_467073107133d89c46ce4ba33aad10ae</title>
<path fill="none" stroke="black" d="M156.995,-287.831C168.559,-278.878 182.667,-267.956 195.145,-258.295"/>
<polygon fill="black" stroke="black" points="197.302,-261.052 203.066,-252.163 193.017,-255.517 197.302,-261.052"/>
<a xlink:href="dir_000054_000018.html" target="_top" xlink:title="1">
<text text-anchor="middle" x="196.198" y="-262.998" font-family="Helvetica,sans-Serif" font-size="10.00">1</text>
</a>
</g>
<!-- dir_80f7a5e12bcad5460b6cfcfd0f5e6ceb -->
<g id="node7" class="node"><title>dir_80f7a5e12bcad5460b6cfcfd0f5e6ceb</title>
<a xlink:href="dir_80f7a5e12bcad5460b6cfcfd0f5e6ceb.html" target="_top" xlink:title="General">
<polygon fill="none" stroke="black" points="143.527,-180 89.5267,-180 89.5267,-144 143.527,-144 143.527,-180"/>
<text text-anchor="middle" x="116.527" y="-159.5" font-family="Helvetica,sans-Serif" font-size="10.00">General</text>
</a>
</g>
<!-- dir_c8e62117b23228ed15f99372ebfe9bd3&#45;&gt;dir_80f7a5e12bcad5460b6cfcfd0f5e6ceb -->
<g id="edge19" class="edge"><title>dir_c8e62117b23228ed15f99372ebfe9bd3&#45;&gt;dir_80f7a5e12bcad5460b6cfcfd0f5e6ceb</title>
<path fill="none" stroke="black" d="M131.374,-287.762C128.474,-263.201 123.285,-219.247 119.874,-190.354"/>
<polygon fill="black" stroke="black" points="123.311,-189.61 118.662,-180.09 116.359,-190.431 123.311,-189.61"/>
<a xlink:href="dir_000054_000006.html" target="_top" xlink:title="2">
<text text-anchor="middle" x="126.552" y="-190.347" font-family="Helvetica,sans-Serif" font-size="10.00">2</text>
</a>
</g>
<!-- dir_a4e11dda51689ce1c2d226f842ef9681&#45;&gt;dir_cc4a0e24939644b536f11a8c115a722d -->
<g id="edge3" class="edge"><title>dir_a4e11dda51689ce1c2d226f842ef9681&#45;&gt;dir_cc4a0e24939644b536f11a8c115a722d</title>
<path fill="none" stroke="black" d="M67.5872,-215.693C70.6772,-197.483 75.6741,-168.762 80.5267,-144 87.1146,-110.383 95.4815,-71.9017 101.142,-46.4027"/>
<polygon fill="black" stroke="black" points="104.63,-46.8433 103.389,-36.3214 97.7974,-45.3203 104.63,-46.8433"/>
<a xlink:href="dir_000008_000005.html" target="_top" xlink:title="57">
<text text-anchor="middle" x="106.619" y="-48.4696" font-family="Helvetica,sans-Serif" font-size="10.00">57</text>
</a>
</g>
<!-- dir_a4e11dda51689ce1c2d226f842ef9681&#45;&gt;dir_80f7a5e12bcad5460b6cfcfd0f5e6ceb -->
<g id="edge5" class="edge"><title>dir_a4e11dda51689ce1c2d226f842ef9681&#45;&gt;dir_80f7a5e12bcad5460b6cfcfd0f5e6ceb</title>
<path fill="none" stroke="black" d="M77.6485,-215.831C83.5766,-207.623 90.6997,-197.761 97.2201,-188.732"/>
<polygon fill="black" stroke="black" points="100.211,-190.569 103.228,-180.413 94.5359,-186.471 100.211,-190.569"/>
<a xlink:href="dir_000008_000006.html" target="_top" xlink:title="6">
<text text-anchor="middle" x="100.408" y="-192.646" font-family="Helvetica,sans-Serif" font-size="10.00">6</text>
</a>
</g>
<!-- dir_6268b49073b78c88d26984fabe0817a7&#45;&gt;dir_cc4a0e24939644b536f11a8c115a722d -->
<g id="edge7" class="edge"><title>dir_6268b49073b78c88d26984fabe0817a7&#45;&gt;dir_cc4a0e24939644b536f11a8c115a722d</title>
<path fill="none" stroke="black" d="M148.648,-71.8314C142.313,-63.5386 134.688,-53.557 127.734,-44.4533"/>
<polygon fill="black" stroke="black" points="130.444,-42.2353 121.592,-36.4133 124.882,-46.4847 130.444,-42.2353"/>
<a xlink:href="dir_000003_000005.html" target="_top" xlink:title="235">
<text text-anchor="middle" x="134.883" y="-40.8683" font-family="Helvetica,sans-Serif" font-size="10.00">235</text>
</a>
</g>
<!-- dir_6268b49073b78c88d26984fabe0817a7&#45;&gt;dir_80f7a5e12bcad5460b6cfcfd0f5e6ceb -->
<g id="edge9" class="edge"><title>dir_6268b49073b78c88d26984fabe0817a7&#45;&gt;dir_80f7a5e12bcad5460b6cfcfd0f5e6ceb</title>
<path fill="none" stroke="black" d="M156.739,-108.413C152.262,-116.654 146.142,-126.525 139.969,-135.536"/>
<polygon fill="black" stroke="black" points="137.016,-133.65 134.087,-143.831 142.726,-137.699 137.016,-133.65"/>
<a xlink:href="dir_000003_000006.html" target="_top" xlink:title="1">
<text text-anchor="middle" x="136.779" y="-126.575" font-family="Helvetica,sans-Serif" font-size="10.00">1</text>
</a>
</g>
<!-- dir_467073107133d89c46ce4ba33aad10ae&#45;&gt;dir_cc4a0e24939644b536f11a8c115a722d -->
<g id="edge21" class="edge"><title>dir_467073107133d89c46ce4ba33aad10ae&#45;&gt;dir_cc4a0e24939644b536f11a8c115a722d</title>
<path fill="none" stroke="black" d="M228.051,-215.902C229.81,-183.908 229.209,-116.542 198.527,-72 185.422,-52.9748 163.233,-39.6106 144.047,-30.9366"/>
<polygon fill="black" stroke="black" points="145.211,-27.6281 134.639,-26.9371 142.472,-34.0702 145.211,-27.6281"/>
<a xlink:href="dir_000018_000005.html" target="_top" xlink:title="67">
<text text-anchor="middle" x="149.63" y="-23.9213" font-family="Helvetica,sans-Serif" font-size="10.00">67</text>
</a>
</g>
<!-- dir_467073107133d89c46ce4ba33aad10ae&#45;&gt;dir_6268b49073b78c88d26984fabe0817a7 -->
<g id="edge23" class="edge"><title>dir_467073107133d89c46ce4ba33aad10ae&#45;&gt;dir_6268b49073b78c88d26984fabe0817a7</title>
<path fill="none" stroke="black" d="M218.421,-215.762C207.409,-190.985 187.625,-146.471 174.791,-117.594"/>
<polygon fill="black" stroke="black" points="177.826,-115.806 170.567,-108.09 171.43,-118.649 177.826,-115.806"/>
<a xlink:href="dir_000018_000003.html" target="_top" xlink:title="5">
<text text-anchor="middle" x="181.881" y="-115.438" font-family="Helvetica,sans-Serif" font-size="10.00">5</text>
</a>
</g>
<!-- dir_467073107133d89c46ce4ba33aad10ae&#45;&gt;dir_80f7a5e12bcad5460b6cfcfd0f5e6ceb -->
<g id="edge25" class="edge"><title>dir_467073107133d89c46ce4ba33aad10ae&#45;&gt;dir_80f7a5e12bcad5460b6cfcfd0f5e6ceb</title>
<path fill="none" stroke="black" d="M199.336,-216.202C185.189,-206.943 167.711,-195.502 152.464,-185.522"/>
<polygon fill="black" stroke="black" points="154.07,-182.391 143.786,-179.843 150.236,-188.248 154.07,-182.391"/>
<a xlink:href="dir_000018_000006.html" target="_top" xlink:title="7">
<text text-anchor="middle" x="158.633" y="-179.484" font-family="Helvetica,sans-Serif" font-size="10.00">7</text>
</a>
</g>
<!-- dir_80f7a5e12bcad5460b6cfcfd0f5e6ceb&#45;&gt;dir_cc4a0e24939644b536f11a8c115a722d -->
<g id="edge27" class="edge"><title>dir_80f7a5e12bcad5460b6cfcfd0f5e6ceb&#45;&gt;dir_cc4a0e24939644b536f11a8c115a722d</title>
<path fill="none" stroke="black" d="M115.387,-143.762C113.852,-119.201 111.105,-75.2474 109.299,-46.3541"/>
<polygon fill="black" stroke="black" points="112.774,-45.8518 108.657,-36.0896 105.788,-46.2885 112.774,-45.8518"/>
<a xlink:href="dir_000006_000005.html" target="_top" xlink:title="233">
<text text-anchor="middle" x="115.832" y="-46.7623" font-family="Helvetica,sans-Serif" font-size="10.00">233</text>
</a>
</g>
<!-- dir_80f7a5e12bcad5460b6cfcfd0f5e6ceb&#45;&gt;dir_6268b49073b78c88d26984fabe0817a7 -->
<g id="edge29" class="edge"><title>dir_80f7a5e12bcad5460b6cfcfd0f5e6ceb&#45;&gt;dir_6268b49073b78c88d26984fabe0817a7</title>
<path fill="none" stroke="black" d="M122.182,-143.831C126.626,-135.623 132.729,-125.761 138.901,-116.732"/>
<polygon fill="black" stroke="black" points="141.868,-118.598 144.787,-108.413 136.154,-114.555 141.868,-118.598"/>
<a xlink:href="dir_000006_000003.html" target="_top" xlink:title="18">
<text text-anchor="middle" x="142.11" y="-120.672" font-family="Helvetica,sans-Serif" font-size="10.00">18</text>
</a>
</g>
</g>
</svg>
