<?xml version="1.0" encoding="UTF-8" standalone="no"?>
<!DOCTYPE svg PUBLIC "-//W3C//DTD SVG 1.1//EN"
 "http://www.w3.org/Graphics/SVG/1.1/DTD/svg11.dtd">
<!-- Generated by graphviz version 2.26.0 (20091210.2329)
 -->
<!-- Title: Seis Pages: 1 -->
<svg width="197pt" height="369pt"
 viewBox="0.00 0.00 196.77 369.00" xmlns="http://www.w3.org/2000/svg" xmlns:xlink="http://www.w3.org/1999/xlink">
<g id="graph1" class="graph" transform="scale(1 1) rotate(0) translate(4 365)">
<title>Seis</title>
<polygon fill="white" stroke="white" points="-4,5 -4,-365 193.77,-365 193.77,5 -4,5"/>
<g id="graph2" class="cluster"><title>clusterdir_d2b9221de5326749103b27af6319345b</title>
<a xlink:href="dir_d2b9221de5326749103b27af6319345b.html" target="_top" xlink:title="include">
<polygon fill="#ddddee" stroke="black" points="42.77,-280 42.77,-353 112.77,-353 112.77,-280 42.77,-280"/>
<text text-anchor="middle" x="77.77" y="-340" font-family="Helvetica,sans-Serif" font-size="10.00">include</text>
</a>
</g>
<!-- dir_fdfcdd81cc19eb627c1860e85cd86213 -->
<g id="node2" class="node"><title>dir_fdfcdd81cc19eb627c1860e85cd86213</title>
<a xlink:href="dir_fdfcdd81cc19eb627c1860e85cd86213.html" target="_top" xlink:title="Seis">
<polygon fill="#eeeeff" stroke="black" points="104.77,-324 50.77,-324 50.77,-288 104.77,-288 104.77,-324"/>
<text text-anchor="middle" x="77.77" y="-303.5" font-family="Helvetica,sans-Serif" font-size="10.00">Seis</text>
</a>
</g>
<!-- dir_cc4a0e24939644b536f11a8c115a722d -->
<g id="node3" class="node"><title>dir_cc4a0e24939644b536f11a8c115a722d</title>
<a xlink:href="dir_cc4a0e24939644b536f11a8c115a722d.html" target="_top" xlink:title="Basic">
<polygon fill="none" stroke="black" points="95.77,-36 41.77,-36 41.77,-1.77636e-14 95.77,-3.55271e-15 95.77,-36"/>
<text text-anchor="middle" x="68.77" y="-15.5" font-family="Helvetica,sans-Serif" font-size="10.00">Basic</text>
</a>
</g>
<!-- dir_fdfcdd81cc19eb627c1860e85cd86213&#45;&gt;dir_cc4a0e24939644b536f11a8c115a722d -->
<g id="edge7" class="edge"><title>dir_fdfcdd81cc19eb627c1860e85cd86213&#45;&gt;dir_cc4a0e24939644b536f11a8c115a722d</title>
<path fill="none" stroke="black" d="M50.5168,-291.627C36.1278,-282.414 19.8217,-268.991 11.77,-252 -21.6492,-181.477 23.9593,-89.4058 51.1259,-44.6923"/>
<polygon fill="black" stroke="black" points="54.1316,-46.4866 56.4462,-36.1477 48.1893,-42.7866 54.1316,-46.4866"/>
<a xlink:href="dir_000032_000005.html" target="_top" xlink:title="218">
<text text-anchor="middle" x="54.6419" y="-48.5388" font-family="Helvetica,sans-Serif" font-size="10.00">218</text>
</a>
</g>
<!-- dir_6268b49073b78c88d26984fabe0817a7 -->
<g id="node4" class="node"><title>dir_6268b49073b78c88d26984fabe0817a7</title>
<a xlink:href="dir_6268b49073b78c88d26984fabe0817a7.html" target="_top" xlink:title="Algo">
<polygon fill="none" stroke="black" points="188.77,-180 134.77,-180 134.77,-144 188.77,-144 188.77,-180"/>
<text text-anchor="middle" x="161.77" y="-159.5" font-family="Helvetica,sans-Serif" font-size="10.00">Algo</text>
</a>
</g>
<!-- dir_fdfcdd81cc19eb627c1860e85cd86213&#45;&gt;dir_6268b49073b78c88d26984fabe0817a7 -->
<g id="edge9" class="edge"><title>dir_fdfcdd81cc19eb627c1860e85cd86213&#45;&gt;dir_6268b49073b78c88d26984fabe0817a7</title>
<path fill="none" stroke="black" d="M94.0825,-287.84C102.672,-277.734 113.003,-264.669 120.77,-252 132.961,-232.115 143.758,-207.992 151.209,-189.727"/>
<polygon fill="black" stroke="black" points="154.536,-190.832 154.991,-180.247 148.035,-188.238 154.536,-190.832"/>
<a xlink:href="dir_000032_000003.html" target="_top" xlink:title="16">
<text text-anchor="middle" x="155.841" y="-192.723" font-family="Helvetica,sans-Serif" font-size="10.00">16</text>
</a>
</g>
<!-- dir_4f22cc067df9f3250d4d5cf919c785c6 -->
<g id="node5" class="node"><title>dir_4f22cc067df9f3250d4d5cf919c785c6</title>
<a xlink:href="dir_4f22cc067df9f3250d4d5cf919c785c6.html" target="_top" xlink:title="Geometry">
<polygon fill="none" stroke="black" points="78.77,-252 20.77,-252 20.77,-216 78.77,-216 78.77,-252"/>
<text text-anchor="middle" x="49.77" y="-231.5" font-family="Helvetica,sans-Serif" font-size="10.00">Geometry</text>
</a>
</g>
<!-- dir_fdfcdd81cc19eb627c1860e85cd86213&#45;&gt;dir_4f22cc067df9f3250d4d5cf919c785c6 -->
<g id="edge11" class="edge"><title>dir_fdfcdd81cc19eb627c1860e85cd86213&#45;&gt;dir_4f22cc067df9f3250d4d5cf919c785c6</title>
<path fill="none" stroke="black" d="M70.7044,-287.831C67.644,-279.962 63.9921,-270.571 60.6019,-261.853"/>
<polygon fill="black" stroke="black" points="63.8173,-260.465 56.9307,-252.413 57.2932,-263.002 63.8173,-260.465"/>
<a xlink:href="dir_000032_000007.html" target="_top" xlink:title="1">
<text text-anchor="middle" x="67.7663" y="-260.286" font-family="Helvetica,sans-Serif" font-size="10.00">1</text>
</a>
</g>
<!-- dir_80f7a5e12bcad5460b6cfcfd0f5e6ceb -->
<g id="node6" class="node"><title>dir_80f7a5e12bcad5460b6cfcfd0f5e6ceb</title>
<a xlink:href="dir_80f7a5e12bcad5460b6cfcfd0f5e6ceb.html" target="_top" xlink:title="General">
<polygon fill="none" stroke="black" points="133.77,-108 79.77,-108 79.77,-72 133.77,-72 133.77,-108"/>
<text text-anchor="middle" x="106.77" y="-87.5" font-family="Helvetica,sans-Serif" font-size="10.00">General</text>
</a>
</g>
<!-- dir_fdfcdd81cc19eb627c1860e85cd86213&#45;&gt;dir_80f7a5e12bcad5460b6cfcfd0f5e6ceb -->
<g id="edge13" class="edge"><title>dir_fdfcdd81cc19eb627c1860e85cd86213&#45;&gt;dir_80f7a5e12bcad5460b6cfcfd0f5e6ceb</title>
<path fill="none" stroke="black" d="M81.499,-287.557C83.5251,-277.146 85.9756,-263.879 87.77,-252 94.8384,-205.209 100.775,-150.476 104.045,-118.107"/>
<polygon fill="black" stroke="black" points="107.54,-118.329 105.05,-108.031 100.575,-117.635 107.54,-118.329"/>
<a xlink:href="dir_000032_000006.html" target="_top" xlink:title="29">
<text text-anchor="middle" x="110.009" y="-119.688" font-family="Helvetica,sans-Serif" font-size="10.00">29</text>
</a>
</g>
<!-- dir_6268b49073b78c88d26984fabe0817a7&#45;&gt;dir_cc4a0e24939644b536f11a8c115a722d -->
<g id="edge3" class="edge"><title>dir_6268b49073b78c88d26984fabe0817a7&#45;&gt;dir_cc4a0e24939644b536f11a8c115a722d</title>
<path fill="none" stroke="black" d="M161.667,-143.65C160.746,-124.366 156.909,-93.8552 142.77,-72 133.416,-57.5408 118.736,-45.6524 104.909,-36.7468"/>
<polygon fill="black" stroke="black" points="106.371,-33.5398 96.0099,-31.3283 102.731,-39.5186 106.371,-33.5398"/>
<a xlink:href="dir_000003_000005.html" target="_top" xlink:title="235">
<text text-anchor="middle" x="110.918" y="-30.4842" font-family="Helvetica,sans-Serif" font-size="10.00">235</text>
</a>
</g>
<!-- dir_6268b49073b78c88d26984fabe0817a7&#45;&gt;dir_80f7a5e12bcad5460b6cfcfd0f5e6ceb -->
<g id="edge5" class="edge"><title>dir_6268b49073b78c88d26984fabe0817a7&#45;&gt;dir_80f7a5e12bcad5460b6cfcfd0f5e6ceb</title>
<path fill="none" stroke="black" d="M141.939,-143.831C134.869,-135.623 127.137,-125.761 120.643,-116.732"/>
<polygon fill="black" stroke="black" points="123.442,-114.626 114.86,-108.413 117.694,-118.622 123.442,-114.626"/>
<a xlink:href="dir_000003_000006.html" target="_top" xlink:title="1">
<text text-anchor="middle" x="127.825" y="-113.457" font-family="Helvetica,sans-Serif" font-size="10.00">1</text>
</a>
</g>
<!-- dir_4f22cc067df9f3250d4d5cf919c785c6&#45;&gt;dir_cc4a0e24939644b536f11a8c115a722d -->
<g id="edge15" class="edge"><title>dir_4f22cc067df9f3250d4d5cf919c785c6&#45;&gt;dir_cc4a0e24939644b536f11a8c115a722d</title>
<path fill="none" stroke="black" d="M51.3573,-215.955C54.6683,-178.314 62.3323,-91.1867 66.2961,-46.1246"/>
<polygon fill="black" stroke="black" points="69.7841,-46.4133 67.1739,-36.1451 62.8111,-45.7999 69.7841,-46.4133"/>
<a xlink:href="dir_000007_000005.html" target="_top" xlink:title="57">
<text text-anchor="middle" x="72.2976" y="-47.7429" font-family="Helvetica,sans-Serif" font-size="10.00">57</text>
</a>
</g>
<!-- dir_4f22cc067df9f3250d4d5cf919c785c6&#45;&gt;dir_6268b49073b78c88d26984fabe0817a7 -->
<g id="edge17" class="edge"><title>dir_4f22cc067df9f3250d4d5cf919c785c6&#45;&gt;dir_6268b49073b78c88d26984fabe0817a7</title>
<path fill="none" stroke="black" d="M78.0324,-215.831C92.5502,-206.498 110.396,-195.026 125.877,-185.074"/>
<polygon fill="black" stroke="black" points="128.157,-187.769 134.676,-179.418 124.371,-181.881 128.157,-187.769"/>
<a xlink:href="dir_000007_000003.html" target="_top" xlink:title="2">
<text text-anchor="middle" x="126.668" y="-189.602" font-family="Helvetica,sans-Serif" font-size="10.00">2</text>
</a>
</g>
<!-- dir_4f22cc067df9f3250d4d5cf919c785c6&#45;&gt;dir_80f7a5e12bcad5460b6cfcfd0f5e6ceb -->
<g id="edge19" class="edge"><title>dir_4f22cc067df9f3250d4d5cf919c785c6&#45;&gt;dir_80f7a5e12bcad5460b6cfcfd0f5e6ceb</title>
<path fill="none" stroke="black" d="M56.9891,-215.762C66.7969,-190.985 84.4168,-146.471 95.8474,-117.594"/>
<polygon fill="black" stroke="black" points="99.1833,-118.676 99.6095,-108.09 92.6747,-116.099 99.1833,-118.676"/>
<a xlink:href="dir_000007_000006.html" target="_top" xlink:title="8">
<text text-anchor="middle" x="100.5" y="-120.563" font-family="Helvetica,sans-Serif" font-size="10.00">8</text>
</a>
</g>
<!-- dir_80f7a5e12bcad5460b6cfcfd0f5e6ceb&#45;&gt;dir_cc4a0e24939644b536f11a8c115a722d -->
<g id="edge21" class="edge"><title>dir_80f7a5e12bcad5460b6cfcfd0f5e6ceb&#45;&gt;dir_cc4a0e24939644b536f11a8c115a722d</title>
<path fill="none" stroke="black" d="M97.181,-71.8314C92.9383,-63.7925 87.8579,-54.1666 83.174,-45.2918"/>
<polygon fill="black" stroke="black" points="86.2511,-43.6235 78.4881,-36.4133 80.0604,-46.8908 86.2511,-43.6235"/>
<a xlink:href="dir_000006_000005.html" target="_top" xlink:title="233">
<text text-anchor="middle" x="90.4399" y="-42.9772" font-family="Helvetica,sans-Serif" font-size="10.00">233</text>
</a>
</g>
<!-- dir_80f7a5e12bcad5460b6cfcfd0f5e6ceb&#45;&gt;dir_6268b49073b78c88d26984fabe0817a7 -->
<g id="edge23" class="edge"><title>dir_80f7a5e12bcad5460b6cfcfd0f5e6ceb&#45;&gt;dir_6268b49073b78c88d26984fabe0817a7</title>
<path fill="none" stroke="black" d="M126.812,-108.413C133.895,-116.654 141.621,-126.525 148.089,-135.536"/>
<polygon fill="black" stroke="black" points="145.268,-137.61 153.844,-143.831 151.02,-133.62 145.268,-137.61"/>
<a xlink:href="dir_000006_000003.html" target="_top" xlink:title="18">
<text text-anchor="middle" x="140.886" y="-133.774" font-family="Helvetica,sans-Serif" font-size="10.00">18</text>
</a>
</g>
</g>
</svg>
