<?xml version="1.0" encoding="UTF-8" standalone="no"?>
<!DOCTYPE svg PUBLIC "-//W3C//DTD SVG 1.1//EN"
 "http://www.w3.org/Graphics/SVG/1.1/DTD/svg11.dtd">
<!-- Generated by graphviz version 2.26.0 (20091210.2329)
 -->
<!-- Title: uiNLA Pages: 1 -->
<svg width="150pt" height="225pt"
 viewBox="0.00 0.00 150.00 225.00" xmlns="http://www.w3.org/2000/svg" xmlns:xlink="http://www.w3.org/1999/xlink">
<g id="graph1" class="graph" transform="scale(1 1) rotate(0) translate(4 221)">
<title>uiNLA</title>
<polygon fill="white" stroke="white" points="-4,5 -4,-221 147,-221 147,5 -4,5"/>
<g id="graph2" class="cluster"><title>clusterdir_d2b9221de5326749103b27af6319345b</title>
<a xlink:href="dir_d2b9221de5326749103b27af6319345b.html" target="_top" xlink:title="include">
<polygon fill="#ddddee" stroke="black" points="8,-136 8,-209 78,-209 78,-136 8,-136"/>
<text text-anchor="middle" x="43" y="-196" font-family="Helvetica,sans-Serif" font-size="10.00">include</text>
</a>
</g>
<!-- dir_766b4297251e4e07a0672ff55ba3c446 -->
<g id="node2" class="node"><title>dir_766b4297251e4e07a0672ff55ba3c446</title>
<a xlink:href="dir_766b4297251e4e07a0672ff55ba3c446.html" target="_top" xlink:title="uiNLA">
<polygon fill="#eeeeff" stroke="black" points="70,-180 16,-180 16,-144 70,-144 70,-180"/>
<text text-anchor="middle" x="43" y="-159.5" font-family="Helvetica,sans-Serif" font-size="10.00">uiNLA</text>
</a>
</g>
<!-- dir_cc4a0e24939644b536f11a8c115a722d -->
<g id="node3" class="node"><title>dir_cc4a0e24939644b536f11a8c115a722d</title>
<a xlink:href="dir_cc4a0e24939644b536f11a8c115a722d.html" target="_top" xlink:title="Basic">
<polygon fill="none" stroke="black" points="70,-36 16,-36 16,-1.77636e-14 70,-3.55271e-15 70,-36"/>
<text text-anchor="middle" x="43" y="-15.5" font-family="Helvetica,sans-Serif" font-size="10.00">Basic</text>
</a>
</g>
<!-- dir_766b4297251e4e07a0672ff55ba3c446&#45;&gt;dir_cc4a0e24939644b536f11a8c115a722d -->
<g id="edge3" class="edge"><title>dir_766b4297251e4e07a0672ff55ba3c446&#45;&gt;dir_cc4a0e24939644b536f11a8c115a722d</title>
<path fill="none" stroke="black" d="M27.0095,-143.917C19.3462,-134.037 10.9834,-121.156 7,-108 2.36345,-92.6865 2.36345,-87.3135 7,-72 9.95644,-62.2355 15.3252,-52.6229 21.03,-44.2762"/>
<polygon fill="black" stroke="black" points="23.9414,-46.2239 27.0095,-36.0831 18.2871,-42.0973 23.9414,-46.2239"/>
<a xlink:href="dir_000048_000005.html" target="_top" xlink:title="3">
<text text-anchor="middle" x="24.1158" y="-48.3013" font-family="Helvetica,sans-Serif" font-size="10.00">3</text>
</a>
</g>
<!-- dir_3294b7a2d3100053ff8030387b3365d6 -->
<g id="node4" class="node"><title>dir_3294b7a2d3100053ff8030387b3365d6</title>
<a xlink:href="dir_3294b7a2d3100053ff8030387b3365d6.html" target="_top" xlink:title="uiTools">
<polygon fill="none" stroke="black" points="70,-108 16,-108 16,-72 70,-72 70,-108"/>
<text text-anchor="middle" x="43" y="-87.5" font-family="Helvetica,sans-Serif" font-size="10.00">uiTools</text>
</a>
</g>
<!-- dir_766b4297251e4e07a0672ff55ba3c446&#45;&gt;dir_3294b7a2d3100053ff8030387b3365d6 -->
<g id="edge5" class="edge"><title>dir_766b4297251e4e07a0672ff55ba3c446&#45;&gt;dir_3294b7a2d3100053ff8030387b3365d6</title>
<path fill="none" stroke="black" d="M43,-143.831C43,-136.131 43,-126.974 43,-118.417"/>
<polygon fill="black" stroke="black" points="46.5001,-118.413 43,-108.413 39.5001,-118.413 46.5001,-118.413"/>
<a xlink:href="dir_000048_000004.html" target="_top" xlink:title="1">
<text text-anchor="middle" x="49.3393" y="-119.508" font-family="Helvetica,sans-Serif" font-size="10.00">1</text>
</a>
</g>
<!-- dir_37939dfd75b64d4a4856ae60960d076a -->
<g id="node5" class="node"><title>dir_37939dfd75b64d4a4856ae60960d076a</title>
<a xlink:href="dir_37939dfd75b64d4a4856ae60960d076a.html" target="_top" xlink:title="NLA">
<polygon fill="none" stroke="black" points="142,-108 88,-108 88,-72 142,-72 142,-108"/>
<text text-anchor="middle" x="115" y="-87.5" font-family="Helvetica,sans-Serif" font-size="10.00">NLA</text>
</a>
</g>
<!-- dir_766b4297251e4e07a0672ff55ba3c446&#45;&gt;dir_37939dfd75b64d4a4856ae60960d076a -->
<g id="edge7" class="edge"><title>dir_766b4297251e4e07a0672ff55ba3c446&#45;&gt;dir_37939dfd75b64d4a4856ae60960d076a</title>
<path fill="none" stroke="black" d="M61.1686,-143.831C69.7152,-135.285 80.0557,-124.944 89.3802,-115.62"/>
<polygon fill="black" stroke="black" points="91.9905,-117.959 96.5867,-108.413 87.0408,-113.009 91.9905,-117.959"/>
<a xlink:href="dir_000048_000031.html" target="_top" xlink:title="1">
<text text-anchor="middle" x="91.4564" y="-120.009" font-family="Helvetica,sans-Serif" font-size="10.00">1</text>
</a>
</g>
<!-- dir_3294b7a2d3100053ff8030387b3365d6&#45;&gt;dir_cc4a0e24939644b536f11a8c115a722d -->
<g id="edge9" class="edge"><title>dir_3294b7a2d3100053ff8030387b3365d6&#45;&gt;dir_cc4a0e24939644b536f11a8c115a722d</title>
<path fill="none" stroke="black" d="M43,-71.8314C43,-64.131 43,-54.9743 43,-46.4166"/>
<polygon fill="black" stroke="black" points="46.5001,-46.4132 43,-36.4133 39.5001,-46.4133 46.5001,-46.4132"/>
<a xlink:href="dir_000004_000005.html" target="_top" xlink:title="103">
<text text-anchor="middle" x="49.3393" y="-47.5079" font-family="Helvetica,sans-Serif" font-size="10.00">103</text>
</a>
</g>
<!-- dir_37939dfd75b64d4a4856ae60960d076a&#45;&gt;dir_cc4a0e24939644b536f11a8c115a722d -->
<g id="edge11" class="edge"><title>dir_37939dfd75b64d4a4856ae60960d076a&#45;&gt;dir_cc4a0e24939644b536f11a8c115a722d</title>
<path fill="none" stroke="black" d="M96.8314,-71.8314C88.2848,-63.2848 77.9443,-52.9443 68.6198,-43.6198"/>
<polygon fill="black" stroke="black" points="70.9592,-41.0095 61.4133,-36.4133 66.0095,-45.9592 70.9592,-41.0095"/>
<a xlink:href="dir_000031_000005.html" target="_top" xlink:title="6">
<text text-anchor="middle" x="75.5087" y="-39.0436" font-family="Helvetica,sans-Serif" font-size="10.00">6</text>
</a>
</g>
</g>
</svg>
