<?xml version="1.0" encoding="UTF-8" standalone="no"?>
<!DOCTYPE svg PUBLIC "-//W3C//DTD SVG 1.1//EN"
 "http://www.w3.org/Graphics/SVG/1.1/DTD/svg11.dtd">
<!-- Generated by graphviz version 2.26.0 (20091210.2329)
 -->
<!-- Title: AttributeEngine Pages: 1 -->
<svg width="138pt" height="297pt"
 viewBox="0.00 0.00 138.00 297.00" xmlns="http://www.w3.org/2000/svg" xmlns:xlink="http://www.w3.org/1999/xlink">
<g id="graph1" class="graph" transform="scale(1 1) rotate(0) translate(4 293)">
<title>AttributeEngine</title>
<polygon fill="white" stroke="white" points="-4,5 -4,-293 135,-293 135,5 -4,5"/>
<g id="graph2" class="cluster"><title>clusterdir_d2b9221de5326749103b27af6319345b</title>
<a xlink:href="dir_d2b9221de5326749103b27af6319345b.html" target="_top" xlink:title="include">
<polygon fill="#ddddee" stroke="black" points="8,-208 8,-281 106,-281 106,-208 8,-208"/>
<text text-anchor="middle" x="57" y="-268" font-family="Helvetica,sans-Serif" font-size="10.00">include</text>
</a>
</g>
<!-- dir_a4e11dda51689ce1c2d226f842ef9681 -->
<g id="node2" class="node"><title>dir_a4e11dda51689ce1c2d226f842ef9681</title>
<a xlink:href="dir_a4e11dda51689ce1c2d226f842ef9681.html" target="_top" xlink:title="AttributeEngine">
<polygon fill="#eeeeff" stroke="black" points="98,-252 16,-252 16,-216 98,-216 98,-252"/>
<text text-anchor="middle" x="57" y="-231.5" font-family="Helvetica,sans-Serif" font-size="10.00">AttributeEngine</text>
</a>
</g>
<!-- dir_cc4a0e24939644b536f11a8c115a722d -->
<g id="node3" class="node"><title>dir_cc4a0e24939644b536f11a8c115a722d</title>
<a xlink:href="dir_cc4a0e24939644b536f11a8c115a722d.html" target="_top" xlink:title="Basic">
<polygon fill="none" stroke="black" points="75,-36 21,-36 21,-1.77636e-14 75,-3.55271e-15 75,-36"/>
<text text-anchor="middle" x="48" y="-15.5" font-family="Helvetica,sans-Serif" font-size="10.00">Basic</text>
</a>
</g>
<!-- dir_a4e11dda51689ce1c2d226f842ef9681&#45;&gt;dir_cc4a0e24939644b536f11a8c115a722d -->
<g id="edge3" class="edge"><title>dir_a4e11dda51689ce1c2d226f842ef9681&#45;&gt;dir_cc4a0e24939644b536f11a8c115a722d</title>
<path fill="none" stroke="black" d="M41.0095,-215.917C33.3462,-206.037 24.9834,-193.156 21,-180 7.07235,-134 23.1919,-78.3417 35.828,-45.6874"/>
<polygon fill="black" stroke="black" points="39.1082,-46.9113 39.6006,-36.328 32.6158,-44.2943 39.1082,-46.9113"/>
<a xlink:href="dir_000008_000005.html" target="_top" xlink:title="57">
<text text-anchor="middle" x="40.3978" y="-48.8068" font-family="Helvetica,sans-Serif" font-size="10.00">57</text>
</a>
</g>
<!-- dir_fdfcdd81cc19eb627c1860e85cd86213 -->
<g id="node4" class="node"><title>dir_fdfcdd81cc19eb627c1860e85cd86213</title>
<a xlink:href="dir_fdfcdd81cc19eb627c1860e85cd86213.html" target="_top" xlink:title="Seis">
<polygon fill="none" stroke="black" points="84,-180 30,-180 30,-144 84,-144 84,-180"/>
<text text-anchor="middle" x="57" y="-159.5" font-family="Helvetica,sans-Serif" font-size="10.00">Seis</text>
</a>
</g>
<!-- dir_a4e11dda51689ce1c2d226f842ef9681&#45;&gt;dir_fdfcdd81cc19eb627c1860e85cd86213 -->
<g id="edge5" class="edge"><title>dir_a4e11dda51689ce1c2d226f842ef9681&#45;&gt;dir_fdfcdd81cc19eb627c1860e85cd86213</title>
<path fill="none" stroke="black" d="M57,-215.831C57,-208.131 57,-198.974 57,-190.417"/>
<polygon fill="black" stroke="black" points="60.5001,-190.413 57,-180.413 53.5001,-190.413 60.5001,-190.413"/>
<a xlink:href="dir_000008_000032.html" target="_top" xlink:title="3">
<text text-anchor="middle" x="63.3393" y="-191.508" font-family="Helvetica,sans-Serif" font-size="10.00">3</text>
</a>
</g>
<!-- dir_80f7a5e12bcad5460b6cfcfd0f5e6ceb -->
<g id="node5" class="node"><title>dir_80f7a5e12bcad5460b6cfcfd0f5e6ceb</title>
<a xlink:href="dir_80f7a5e12bcad5460b6cfcfd0f5e6ceb.html" target="_top" xlink:title="General">
<polygon fill="none" stroke="black" points="130,-108 76,-108 76,-72 130,-72 130,-108"/>
<text text-anchor="middle" x="103" y="-87.5" font-family="Helvetica,sans-Serif" font-size="10.00">General</text>
</a>
</g>
<!-- dir_a4e11dda51689ce1c2d226f842ef9681&#45;&gt;dir_80f7a5e12bcad5460b6cfcfd0f5e6ceb -->
<g id="edge7" class="edge"><title>dir_a4e11dda51689ce1c2d226f842ef9681&#45;&gt;dir_80f7a5e12bcad5460b6cfcfd0f5e6ceb</title>
<path fill="none" stroke="black" d="M72.3975,-215.719C79.8986,-205.785 88.2951,-192.916 93,-180 100.208,-160.212 102.611,-136.49 103.263,-118.369"/>
<polygon fill="black" stroke="black" points="106.767,-118.227 103.47,-108.158 99.7683,-118.085 106.767,-118.227"/>
<a xlink:href="dir_000008_000006.html" target="_top" xlink:title="6">
<text text-anchor="middle" x="109.533" y="-119.378" font-family="Helvetica,sans-Serif" font-size="10.00">6</text>
</a>
</g>
<!-- dir_fdfcdd81cc19eb627c1860e85cd86213&#45;&gt;dir_cc4a0e24939644b536f11a8c115a722d -->
<g id="edge9" class="edge"><title>dir_fdfcdd81cc19eb627c1860e85cd86213&#45;&gt;dir_cc4a0e24939644b536f11a8c115a722d</title>
<path fill="none" stroke="black" d="M55.8601,-143.762C54.3251,-119.201 51.578,-75.2474 49.7721,-46.3541"/>
<polygon fill="black" stroke="black" points="53.2477,-45.8518 49.1306,-36.0896 46.2613,-46.2885 53.2477,-45.8518"/>
<a xlink:href="dir_000032_000005.html" target="_top" xlink:title="218">
<text text-anchor="middle" x="56.3055" y="-46.7623" font-family="Helvetica,sans-Serif" font-size="10.00">218</text>
</a>
</g>
<!-- dir_fdfcdd81cc19eb627c1860e85cd86213&#45;&gt;dir_80f7a5e12bcad5460b6cfcfd0f5e6ceb -->
<g id="edge11" class="edge"><title>dir_fdfcdd81cc19eb627c1860e85cd86213&#45;&gt;dir_80f7a5e12bcad5460b6cfcfd0f5e6ceb</title>
<path fill="none" stroke="black" d="M68.6077,-143.831C73.7978,-135.708 80.0232,-125.964 85.7425,-117.012"/>
<polygon fill="black" stroke="black" points="88.8015,-118.725 91.236,-108.413 82.9026,-114.956 88.8015,-118.725"/>
<a xlink:href="dir_000032_000006.html" target="_top" xlink:title="29">
<text text-anchor="middle" x="89.2589" y="-120.782" font-family="Helvetica,sans-Serif" font-size="10.00">29</text>
</a>
</g>
<!-- dir_80f7a5e12bcad5460b6cfcfd0f5e6ceb&#45;&gt;dir_cc4a0e24939644b536f11a8c115a722d -->
<g id="edge13" class="edge"><title>dir_80f7a5e12bcad5460b6cfcfd0f5e6ceb&#45;&gt;dir_cc4a0e24939644b536f11a8c115a722d</title>
<path fill="none" stroke="black" d="M89.1212,-71.8314C82.7864,-63.5386 75.1616,-53.557 68.2074,-44.4533"/>
<polygon fill="black" stroke="black" points="70.9175,-42.2353 62.0657,-36.4133 65.3548,-46.4847 70.9175,-42.2353"/>
<a xlink:href="dir_000006_000005.html" target="_top" xlink:title="233">
<text text-anchor="middle" x="75.3558" y="-40.8683" font-family="Helvetica,sans-Serif" font-size="10.00">233</text>
</a>
</g>
</g>
</svg>
