<?xml version="1.0" encoding="UTF-8" standalone="no"?>
<!DOCTYPE svg PUBLIC "-//W3C//DTD SVG 1.1//EN"
 "http://www.w3.org/Graphics/SVG/1.1/DTD/svg11.dtd">
<!-- Generated by graphviz version 2.26.0 (20091210.2329)
 -->
<!-- Title: uiFlatView Pages: 1 -->
<svg width="225pt" height="441pt"
 viewBox="0.00 0.00 225.47 441.00" xmlns="http://www.w3.org/2000/svg" xmlns:xlink="http://www.w3.org/1999/xlink">
<g id="graph1" class="graph" transform="scale(1 1) rotate(0) translate(4 437)">
<title>uiFlatView</title>
<polygon fill="white" stroke="white" points="-4,5 -4,-437 222.469,-437 222.469,5 -4,5"/>
<g id="graph2" class="cluster"><title>clusterdir_d2b9221de5326749103b27af6319345b</title>
<a xlink:href="dir_d2b9221de5326749103b27af6319345b.html" target="_top" xlink:title="include">
<polygon fill="#ddddee" stroke="black" points="71,-352 71,-425 149,-425 149,-352 71,-352"/>
<text text-anchor="middle" x="110" y="-412" font-family="Helvetica,sans-Serif" font-size="10.00">include</text>
</a>
</g>
<!-- dir_32cb7ac7dbe0773efa26d04d050f7f5b -->
<g id="node2" class="node"><title>dir_32cb7ac7dbe0773efa26d04d050f7f5b</title>
<a xlink:href="dir_32cb7ac7dbe0773efa26d04d050f7f5b.html" target="_top" xlink:title="uiFlatView">
<polygon fill="#eeeeff" stroke="black" points="141,-396 79,-396 79,-360 141,-360 141,-396"/>
<text text-anchor="middle" x="110" y="-375.5" font-family="Helvetica,sans-Serif" font-size="10.00">uiFlatView</text>
</a>
</g>
<!-- dir_cc4a0e24939644b536f11a8c115a722d -->
<g id="node3" class="node"><title>dir_cc4a0e24939644b536f11a8c115a722d</title>
<a xlink:href="dir_cc4a0e24939644b536f11a8c115a722d.html" target="_top" xlink:title="Basic">
<polygon fill="none" stroke="black" points="135,-36 81,-36 81,-1.77636e-14 135,-3.55271e-15 135,-36"/>
<text text-anchor="middle" x="108" y="-15.5" font-family="Helvetica,sans-Serif" font-size="10.00">Basic</text>
</a>
</g>
<!-- dir_32cb7ac7dbe0773efa26d04d050f7f5b&#45;&gt;dir_cc4a0e24939644b536f11a8c115a722d -->
<g id="edge3" class="edge"><title>dir_32cb7ac7dbe0773efa26d04d050f7f5b&#45;&gt;dir_cc4a0e24939644b536f11a8c115a722d</title>
<path fill="none" stroke="black" d="M83.3721,-359.99C50.8173,-335.592 0,-288.74 0,-234 0,-234 0,-234 0,-162 0,-112.085 42.0434,-68.3996 73.6658,-42.6011"/>
<polygon fill="black" stroke="black" points="76.185,-45.071 81.8562,-36.1217 71.842,-39.5811 76.185,-45.071"/>
<a xlink:href="dir_000023_000005.html" target="_top" xlink:title="12">
<text text-anchor="middle" x="75.1275" y="-47.0279" font-family="Helvetica,sans-Serif" font-size="10.00">12</text>
</a>
</g>
<!-- dir_d58547225052419d4950f25c06d5e500 -->
<g id="node4" class="node"><title>dir_d58547225052419d4950f25c06d5e500</title>
<a xlink:href="dir_d58547225052419d4950f25c06d5e500.html" target="_top" xlink:title="uiBase">
<polygon fill="none" stroke="black" points="82,-252 28,-252 28,-216 82,-216 82,-252"/>
<text text-anchor="middle" x="55" y="-231.5" font-family="Helvetica,sans-Serif" font-size="10.00">uiBase</text>
</a>
</g>
<!-- dir_32cb7ac7dbe0773efa26d04d050f7f5b&#45;&gt;dir_d58547225052419d4950f25c06d5e500 -->
<g id="edge5" class="edge"><title>dir_32cb7ac7dbe0773efa26d04d050f7f5b&#45;&gt;dir_d58547225052419d4950f25c06d5e500</title>
<path fill="none" stroke="black" d="M103.034,-359.762C93.5705,-334.985 76.5689,-290.471 65.5393,-261.594"/>
<polygon fill="black" stroke="black" points="68.747,-260.183 61.9092,-252.09 62.2077,-262.68 68.747,-260.183"/>
<a xlink:href="dir_000023_000027.html" target="_top" xlink:title="9">
<text text-anchor="middle" x="72.6819" y="-260.028" font-family="Helvetica,sans-Serif" font-size="10.00">9</text>
</a>
</g>
<!-- dir_6268b49073b78c88d26984fabe0817a7 -->
<g id="node5" class="node"><title>dir_6268b49073b78c88d26984fabe0817a7</title>
<a xlink:href="dir_6268b49073b78c88d26984fabe0817a7.html" target="_top" xlink:title="Algo">
<polygon fill="none" stroke="black" points="190,-108 136,-108 136,-72 190,-72 190,-108"/>
<text text-anchor="middle" x="163" y="-87.5" font-family="Helvetica,sans-Serif" font-size="10.00">Algo</text>
</a>
</g>
<!-- dir_32cb7ac7dbe0773efa26d04d050f7f5b&#45;&gt;dir_6268b49073b78c88d26984fabe0817a7 -->
<g id="edge7" class="edge"><title>dir_32cb7ac7dbe0773efa26d04d050f7f5b&#45;&gt;dir_6268b49073b78c88d26984fabe0817a7</title>
<path fill="none" stroke="black" d="M141.281,-368.553C162.251,-360.405 188.274,-346.35 201,-324 239.121,-257.052 201.178,-162.901 178.025,-117.122"/>
<polygon fill="black" stroke="black" points="181.06,-115.372 173.341,-108.115 174.849,-118.602 181.06,-115.372"/>
<a xlink:href="dir_000023_000003.html" target="_top" xlink:title="1">
<text text-anchor="middle" x="185.237" y="-114.752" font-family="Helvetica,sans-Serif" font-size="10.00">1</text>
</a>
</g>
<!-- dir_80f7a5e12bcad5460b6cfcfd0f5e6ceb -->
<g id="node6" class="node"><title>dir_80f7a5e12bcad5460b6cfcfd0f5e6ceb</title>
<a xlink:href="dir_80f7a5e12bcad5460b6cfcfd0f5e6ceb.html" target="_top" xlink:title="General">
<polygon fill="none" stroke="black" points="152,-180 98,-180 98,-144 152,-144 152,-180"/>
<text text-anchor="middle" x="125" y="-159.5" font-family="Helvetica,sans-Serif" font-size="10.00">General</text>
</a>
</g>
<!-- dir_32cb7ac7dbe0773efa26d04d050f7f5b&#45;&gt;dir_80f7a5e12bcad5460b6cfcfd0f5e6ceb -->
<g id="edge9" class="edge"><title>dir_32cb7ac7dbe0773efa26d04d050f7f5b&#45;&gt;dir_80f7a5e12bcad5460b6cfcfd0f5e6ceb</title>
<path fill="none" stroke="black" d="M111.253,-359.955C113.867,-322.314 119.918,-235.187 123.047,-190.125"/>
<polygon fill="black" stroke="black" points="126.539,-190.364 123.74,-180.145 119.555,-189.879 126.539,-190.364"/>
<a xlink:href="dir_000023_000006.html" target="_top" xlink:title="10">
<text text-anchor="middle" x="129.122" y="-191.646" font-family="Helvetica,sans-Serif" font-size="10.00">10</text>
</a>
</g>
<!-- dir_3294b7a2d3100053ff8030387b3365d6 -->
<g id="node7" class="node"><title>dir_3294b7a2d3100053ff8030387b3365d6</title>
<a xlink:href="dir_3294b7a2d3100053ff8030387b3365d6.html" target="_top" xlink:title="uiTools">
<polygon fill="none" stroke="black" points="192,-324 138,-324 138,-288 192,-288 192,-324"/>
<text text-anchor="middle" x="165" y="-303.5" font-family="Helvetica,sans-Serif" font-size="10.00">uiTools</text>
</a>
</g>
<!-- dir_32cb7ac7dbe0773efa26d04d050f7f5b&#45;&gt;dir_3294b7a2d3100053ff8030387b3365d6 -->
<g id="edge11" class="edge"><title>dir_32cb7ac7dbe0773efa26d04d050f7f5b&#45;&gt;dir_3294b7a2d3100053ff8030387b3365d6</title>
<path fill="none" stroke="black" d="M123.879,-359.831C130.214,-351.539 137.838,-341.557 144.793,-332.453"/>
<polygon fill="black" stroke="black" points="147.645,-334.485 150.934,-324.413 142.083,-330.235 147.645,-334.485"/>
<a xlink:href="dir_000023_000004.html" target="_top" xlink:title="6">
<text text-anchor="middle" x="147.719" y="-336.565" font-family="Helvetica,sans-Serif" font-size="10.00">6</text>
</a>
</g>
<!-- dir_d58547225052419d4950f25c06d5e500&#45;&gt;dir_cc4a0e24939644b536f11a8c115a722d -->
<g id="edge13" class="edge"><title>dir_d58547225052419d4950f25c06d5e500&#45;&gt;dir_cc4a0e24939644b536f11a8c115a722d</title>
<path fill="none" stroke="black" d="M59.4276,-215.955C68.6636,-178.314 90.0422,-91.1867 101.099,-46.1246"/>
<polygon fill="black" stroke="black" points="104.564,-46.6911 103.548,-36.1451 97.7655,-45.0229 104.564,-46.6911"/>
<a xlink:href="dir_000027_000005.html" target="_top" xlink:title="61">
<text text-anchor="middle" x="106.465" y="-48.3587" font-family="Helvetica,sans-Serif" font-size="10.00">61</text>
</a>
</g>
<!-- dir_d58547225052419d4950f25c06d5e500&#45;&gt;dir_80f7a5e12bcad5460b6cfcfd0f5e6ceb -->
<g id="edge15" class="edge"><title>dir_d58547225052419d4950f25c06d5e500&#45;&gt;dir_80f7a5e12bcad5460b6cfcfd0f5e6ceb</title>
<path fill="none" stroke="black" d="M72.664,-215.831C80.9732,-207.285 91.0264,-196.944 100.092,-187.62"/>
<polygon fill="black" stroke="black" points="102.637,-190.023 107.098,-180.413 97.6179,-185.143 102.637,-190.023"/>
<a xlink:href="dir_000027_000006.html" target="_top" xlink:title="23">
<text text-anchor="middle" x="102.167" y="-192.08" font-family="Helvetica,sans-Serif" font-size="10.00">23</text>
</a>
</g>
<!-- dir_6268b49073b78c88d26984fabe0817a7&#45;&gt;dir_cc4a0e24939644b536f11a8c115a722d -->
<g id="edge17" class="edge"><title>dir_6268b49073b78c88d26984fabe0817a7&#45;&gt;dir_cc4a0e24939644b536f11a8c115a722d</title>
<path fill="none" stroke="black" d="M149.121,-71.8314C142.786,-63.5386 135.162,-53.557 128.207,-44.4533"/>
<polygon fill="black" stroke="black" points="130.917,-42.2353 122.066,-36.4133 125.355,-46.4847 130.917,-42.2353"/>
<a xlink:href="dir_000003_000005.html" target="_top" xlink:title="235">
<text text-anchor="middle" x="135.356" y="-40.8683" font-family="Helvetica,sans-Serif" font-size="10.00">235</text>
</a>
</g>
<!-- dir_6268b49073b78c88d26984fabe0817a7&#45;&gt;dir_80f7a5e12bcad5460b6cfcfd0f5e6ceb -->
<g id="edge19" class="edge"><title>dir_6268b49073b78c88d26984fabe0817a7&#45;&gt;dir_80f7a5e12bcad5460b6cfcfd0f5e6ceb</title>
<path fill="none" stroke="black" d="M159.258,-108.413C155.77,-116.484 150.88,-126.118 145.822,-134.978"/>
<polygon fill="black" stroke="black" points="142.658,-133.45 140.541,-143.831 148.67,-137.036 142.658,-133.45"/>
<a xlink:href="dir_000003_000006.html" target="_top" xlink:title="1">
<text text-anchor="middle" x="142.06" y="-126.408" font-family="Helvetica,sans-Serif" font-size="10.00">1</text>
</a>
</g>
<!-- dir_80f7a5e12bcad5460b6cfcfd0f5e6ceb&#45;&gt;dir_cc4a0e24939644b536f11a8c115a722d -->
<g id="edge21" class="edge"><title>dir_80f7a5e12bcad5460b6cfcfd0f5e6ceb&#45;&gt;dir_cc4a0e24939644b536f11a8c115a722d</title>
<path fill="none" stroke="black" d="M122.847,-143.762C119.947,-119.201 114.758,-75.2474 111.347,-46.3541"/>
<polygon fill="black" stroke="black" points="114.784,-45.6103 110.136,-36.0896 107.832,-46.431 114.784,-45.6103"/>
<a xlink:href="dir_000006_000005.html" target="_top" xlink:title="233">
<text text-anchor="middle" x="118.025" y="-46.3473" font-family="Helvetica,sans-Serif" font-size="10.00">233</text>
</a>
</g>
<!-- dir_80f7a5e12bcad5460b6cfcfd0f5e6ceb&#45;&gt;dir_6268b49073b78c88d26984fabe0817a7 -->
<g id="edge23" class="edge"><title>dir_80f7a5e12bcad5460b6cfcfd0f5e6ceb&#45;&gt;dir_6268b49073b78c88d26984fabe0817a7</title>
<path fill="none" stroke="black" d="M128.637,-143.831C132.132,-135.708 137.073,-125.964 142.184,-117.012"/>
<polygon fill="black" stroke="black" points="145.196,-118.796 147.306,-108.413 139.182,-115.214 145.196,-118.796"/>
<a xlink:href="dir_000006_000003.html" target="_top" xlink:title="18">
<text text-anchor="middle" x="145.795" y="-120.837" font-family="Helvetica,sans-Serif" font-size="10.00">18</text>
</a>
</g>
<!-- dir_3294b7a2d3100053ff8030387b3365d6&#45;&gt;dir_cc4a0e24939644b536f11a8c115a722d -->
<g id="edge25" class="edge"><title>dir_3294b7a2d3100053ff8030387b3365d6&#45;&gt;dir_cc4a0e24939644b536f11a8c115a722d</title>
<path fill="none" stroke="black" d="M174.844,-287.859C195.803,-246.55 239.727,-143.526 199,-72 187.36,-51.5583 164.598,-38.0559 144.752,-29.6651"/>
<polygon fill="black" stroke="black" points="145.892,-26.3526 135.305,-25.9486 143.329,-32.8667 145.892,-26.3526"/>
<a xlink:href="dir_000004_000005.html" target="_top" xlink:title="103">
<text text-anchor="middle" x="150.276" y="-22.5264" font-family="Helvetica,sans-Serif" font-size="10.00">103</text>
</a>
</g>
<!-- dir_3294b7a2d3100053ff8030387b3365d6&#45;&gt;dir_d58547225052419d4950f25c06d5e500 -->
<g id="edge27" class="edge"><title>dir_3294b7a2d3100053ff8030387b3365d6&#45;&gt;dir_d58547225052419d4950f25c06d5e500</title>
<path fill="none" stroke="black" d="M137.809,-288.202C123.662,-278.943 106.184,-267.502 90.937,-257.522"/>
<polygon fill="black" stroke="black" points="92.5433,-254.391 82.2594,-251.843 88.7097,-260.248 92.5433,-254.391"/>
<a xlink:href="dir_000004_000027.html" target="_top" xlink:title="84">
<text text-anchor="middle" x="97.1058" y="-251.484" font-family="Helvetica,sans-Serif" font-size="10.00">84</text>
</a>
</g>
<!-- dir_3294b7a2d3100053ff8030387b3365d6&#45;&gt;dir_6268b49073b78c88d26984fabe0817a7 -->
<g id="edge29" class="edge"><title>dir_3294b7a2d3100053ff8030387b3365d6&#45;&gt;dir_6268b49073b78c88d26984fabe0817a7</title>
<path fill="none" stroke="black" d="M164.833,-287.955C164.485,-250.394 163.681,-163.554 163.263,-118.41"/>
<polygon fill="black" stroke="black" points="166.761,-118.112 163.168,-108.145 159.761,-118.177 166.761,-118.112"/>
<a xlink:href="dir_000004_000003.html" target="_top" xlink:title="7">
<text text-anchor="middle" x="169.633" y="-119.18" font-family="Helvetica,sans-Serif" font-size="10.00">7</text>
</a>
</g>
<!-- dir_3294b7a2d3100053ff8030387b3365d6&#45;&gt;dir_80f7a5e12bcad5460b6cfcfd0f5e6ceb -->
<g id="edge31" class="edge"><title>dir_3294b7a2d3100053ff8030387b3365d6&#45;&gt;dir_80f7a5e12bcad5460b6cfcfd0f5e6ceb</title>
<path fill="none" stroke="black" d="M159.934,-287.762C153.081,-263.093 140.794,-218.86 132.77,-189.973"/>
<polygon fill="black" stroke="black" points="136.074,-188.788 130.025,-180.09 129.329,-190.662 136.074,-188.788"/>
<a xlink:href="dir_000004_000006.html" target="_top" xlink:title="21">
<text text-anchor="middle" x="139.771" y="-188.992" font-family="Helvetica,sans-Serif" font-size="10.00">21</text>
</a>
</g>
</g>
</svg>
