<?xml version="1.0" encoding="UTF-8" standalone="no"?>
<!DOCTYPE svg PUBLIC "-//W3C//DTD SVG 1.1//EN"
 "http://www.w3.org/Graphics/SVG/1.1/DTD/svg11.dtd">
<!-- Generated by graphviz version 2.26.0 (20091210.2329)
 -->
<!-- Title: uiVolumeProcessing Pages: 1 -->
<svg width="352pt" height="369pt"
 viewBox="0.00 0.00 351.66 369.00" xmlns="http://www.w3.org/2000/svg" xmlns:xlink="http://www.w3.org/1999/xlink">
<g id="graph1" class="graph" transform="scale(1 1) rotate(0) translate(4 365)">
<title>uiVolumeProcessing</title>
<polygon fill="white" stroke="white" points="-4,5 -4,-365 348.663,-365 348.663,5 -4,5"/>
<g id="graph2" class="cluster"><title>clusterdir_d2b9221de5326749103b27af6319345b</title>
<a xlink:href="dir_d2b9221de5326749103b27af6319345b.html" target="_top" xlink:title="include">
<polygon fill="#ddddee" stroke="black" points="65.663,-280 65.663,-353 187.663,-353 187.663,-280 65.663,-280"/>
<text text-anchor="middle" x="126.663" y="-340" font-family="Helvetica,sans-Serif" font-size="10.00">include</text>
</a>
</g>
<!-- dir_8bc71d53cff8fd92c5a3ba60acd8f139 -->
<g id="node2" class="node"><title>dir_8bc71d53cff8fd92c5a3ba60acd8f139</title>
<a xlink:href="dir_8bc71d53cff8fd92c5a3ba60acd8f139.html" target="_top" xlink:title="uiVolumeProcessing">
<polygon fill="#eeeeff" stroke="black" points="179.663,-324 73.663,-324 73.663,-288 179.663,-288 179.663,-324"/>
<text text-anchor="middle" x="126.663" y="-303.5" font-family="Helvetica,sans-Serif" font-size="10.00">uiVolumeProcessing</text>
</a>
</g>
<!-- dir_cc4a0e24939644b536f11a8c115a722d -->
<g id="node3" class="node"><title>dir_cc4a0e24939644b536f11a8c115a722d</title>
<a xlink:href="dir_cc4a0e24939644b536f11a8c115a722d.html" target="_top" xlink:title="Basic">
<polygon fill="none" stroke="black" points="161.663,-36 107.663,-36 107.663,-1.77636e-14 161.663,-3.55271e-15 161.663,-36"/>
<text text-anchor="middle" x="134.663" y="-15.5" font-family="Helvetica,sans-Serif" font-size="10.00">Basic</text>
</a>
</g>
<!-- dir_8bc71d53cff8fd92c5a3ba60acd8f139&#45;&gt;dir_cc4a0e24939644b536f11a8c115a722d -->
<g id="edge13" class="edge"><title>dir_8bc71d53cff8fd92c5a3ba60acd8f139&#45;&gt;dir_cc4a0e24939644b536f11a8c115a722d</title>
<path fill="none" stroke="black" d="M73.4202,-296.383C48.0445,-288.837 19.9531,-275.489 4.66305,-252 -4.06578,-238.591 2.05089,-231.785 4.66305,-216 15.7,-149.303 12.4606,-125.597 53.663,-72 65.4597,-56.6547 82.9121,-44.2321 98.5992,-35.1883"/>
<polygon fill="black" stroke="black" points="100.496,-38.1397 107.575,-30.2573 97.1256,-32.0045 100.496,-38.1397"/>
<a xlink:href="dir_000052_000005.html" target="_top" xlink:title="6">
<text text-anchor="middle" x="98.7124" y="-39.8589" font-family="Helvetica,sans-Serif" font-size="10.00">6</text>
</a>
</g>
<!-- dir_d58547225052419d4950f25c06d5e500 -->
<g id="node4" class="node"><title>dir_d58547225052419d4950f25c06d5e500</title>
<a xlink:href="dir_d58547225052419d4950f25c06d5e500.html" target="_top" xlink:title="uiBase">
<polygon fill="none" stroke="black" points="134.663,-108 80.663,-108 80.663,-72 134.663,-72 134.663,-108"/>
<text text-anchor="middle" x="107.663" y="-87.5" font-family="Helvetica,sans-Serif" font-size="10.00">uiBase</text>
</a>
</g>
<!-- dir_8bc71d53cff8fd92c5a3ba60acd8f139&#45;&gt;dir_d58547225052419d4950f25c06d5e500 -->
<g id="edge15" class="edge"><title>dir_8bc71d53cff8fd92c5a3ba60acd8f139&#45;&gt;dir_d58547225052419d4950f25c06d5e500</title>
<path fill="none" stroke="black" d="M125.076,-287.955C121.765,-250.314 114.101,-163.187 110.137,-118.125"/>
<polygon fill="black" stroke="black" points="113.622,-117.8 109.259,-108.145 106.649,-118.413 113.622,-117.8"/>
<a xlink:href="dir_000052_000027.html" target="_top" xlink:title="2">
<text text-anchor="middle" x="116.765" y="-118.632" font-family="Helvetica,sans-Serif" font-size="10.00">2</text>
</a>
</g>
<!-- dir_c8e62117b23228ed15f99372ebfe9bd3 -->
<g id="node5" class="node"><title>dir_c8e62117b23228ed15f99372ebfe9bd3</title>
<a xlink:href="dir_c8e62117b23228ed15f99372ebfe9bd3.html" target="_top" xlink:title="VolumeProcessing">
<polygon fill="none" stroke="black" points="271.663,-252 173.663,-252 173.663,-216 271.663,-216 271.663,-252"/>
<text text-anchor="middle" x="222.663" y="-231.5" font-family="Helvetica,sans-Serif" font-size="10.00">VolumeProcessing</text>
</a>
</g>
<!-- dir_8bc71d53cff8fd92c5a3ba60acd8f139&#45;&gt;dir_c8e62117b23228ed15f99372ebfe9bd3 -->
<g id="edge17" class="edge"><title>dir_8bc71d53cff8fd92c5a3ba60acd8f139&#45;&gt;dir_c8e62117b23228ed15f99372ebfe9bd3</title>
<path fill="none" stroke="black" d="M150.888,-287.831C162.826,-278.878 177.389,-267.956 190.269,-258.295"/>
<polygon fill="black" stroke="black" points="192.546,-260.963 198.446,-252.163 188.346,-255.363 192.546,-260.963"/>
<a xlink:href="dir_000052_000054.html" target="_top" xlink:title="8">
<text text-anchor="middle" x="191.374" y="-262.891" font-family="Helvetica,sans-Serif" font-size="10.00">8</text>
</a>
</g>
<!-- dir_1f6e6a7a6dd1d8f36802e02cb5ada112 -->
<g id="node6" class="node"><title>dir_1f6e6a7a6dd1d8f36802e02cb5ada112</title>
<a xlink:href="dir_1f6e6a7a6dd1d8f36802e02cb5ada112.html" target="_top" xlink:title="uiAttributes">
<polygon fill="none" stroke="black" points="79.663,-252 13.663,-252 13.663,-216 79.663,-216 79.663,-252"/>
<text text-anchor="middle" x="46.663" y="-231.5" font-family="Helvetica,sans-Serif" font-size="10.00">uiAttributes</text>
</a>
</g>
<!-- dir_8bc71d53cff8fd92c5a3ba60acd8f139&#45;&gt;dir_1f6e6a7a6dd1d8f36802e02cb5ada112 -->
<g id="edge19" class="edge"><title>dir_8bc71d53cff8fd92c5a3ba60acd8f139&#45;&gt;dir_1f6e6a7a6dd1d8f36802e02cb5ada112</title>
<path fill="none" stroke="black" d="M106.476,-287.831C96.8116,-279.134 85.0834,-268.578 74.5814,-259.127"/>
<polygon fill="black" stroke="black" points="76.6183,-256.251 66.844,-252.163 71.9355,-261.454 76.6183,-256.251"/>
<a xlink:href="dir_000052_000009.html" target="_top" xlink:title="1">
<text text-anchor="middle" x="81.1895" y="-254.045" font-family="Helvetica,sans-Serif" font-size="10.00">1</text>
</a>
</g>
<!-- dir_3294b7a2d3100053ff8030387b3365d6 -->
<g id="node7" class="node"><title>dir_3294b7a2d3100053ff8030387b3365d6</title>
<a xlink:href="dir_3294b7a2d3100053ff8030387b3365d6.html" target="_top" xlink:title="uiTools">
<polygon fill="none" stroke="black" points="189.663,-180 135.663,-180 135.663,-144 189.663,-144 189.663,-180"/>
<text text-anchor="middle" x="162.663" y="-159.5" font-family="Helvetica,sans-Serif" font-size="10.00">uiTools</text>
</a>
</g>
<!-- dir_8bc71d53cff8fd92c5a3ba60acd8f139&#45;&gt;dir_3294b7a2d3100053ff8030387b3365d6 -->
<g id="edge21" class="edge"><title>dir_8bc71d53cff8fd92c5a3ba60acd8f139&#45;&gt;dir_3294b7a2d3100053ff8030387b3365d6</title>
<path fill="none" stroke="black" d="M131.222,-287.762C137.39,-263.093 148.448,-218.86 155.67,-189.973"/>
<polygon fill="black" stroke="black" points="159.111,-190.64 158.141,-180.09 152.32,-188.942 159.111,-190.64"/>
<a xlink:href="dir_000052_000004.html" target="_top" xlink:title="1">
<text text-anchor="middle" x="160.993" y="-192.316" font-family="Helvetica,sans-Serif" font-size="10.00">1</text>
</a>
</g>
<!-- dir_46d588b3d622ab56b650b88c04e6ea36 -->
<g id="node8" class="node"><title>dir_46d588b3d622ab56b650b88c04e6ea36</title>
<a xlink:href="dir_46d588b3d622ab56b650b88c04e6ea36.html" target="_top" xlink:title="MMProc">
<polygon fill="none" stroke="black" points="343.663,-252 289.663,-252 289.663,-216 343.663,-216 343.663,-252"/>
<text text-anchor="middle" x="316.663" y="-231.5" font-family="Helvetica,sans-Serif" font-size="10.00">MMProc</text>
</a>
</g>
<!-- dir_8bc71d53cff8fd92c5a3ba60acd8f139&#45;&gt;dir_46d588b3d622ab56b650b88c04e6ea36 -->
<g id="edge23" class="edge"><title>dir_8bc71d53cff8fd92c5a3ba60acd8f139&#45;&gt;dir_46d588b3d622ab56b650b88c04e6ea36</title>
<path fill="none" stroke="black" d="M179.679,-289.251C207.443,-280.058 242.063,-267.934 280.101,-252.022"/>
<polygon fill="black" stroke="black" points="281.469,-255.244 289.313,-248.122 278.74,-248.798 281.469,-255.244"/>
<a xlink:href="dir_000052_000012.html" target="_top" xlink:title="2">
<text text-anchor="middle" x="279.266" y="-256.76" font-family="Helvetica,sans-Serif" font-size="10.00">2</text>
</a>
</g>
<!-- dir_d58547225052419d4950f25c06d5e500&#45;&gt;dir_cc4a0e24939644b536f11a8c115a722d -->
<g id="edge3" class="edge"><title>dir_d58547225052419d4950f25c06d5e500&#45;&gt;dir_cc4a0e24939644b536f11a8c115a722d</title>
<path fill="none" stroke="black" d="M114.476,-71.8314C117.427,-63.9617 120.949,-54.5712 124.218,-45.8533"/>
<polygon fill="black" stroke="black" points="127.524,-47.0055 127.758,-36.4133 120.97,-44.5476 127.524,-47.0055"/>
<a xlink:href="dir_000027_000005.html" target="_top" xlink:title="61">
<text text-anchor="middle" x="128.92" y="-48.8682" font-family="Helvetica,sans-Serif" font-size="10.00">61</text>
</a>
</g>
<!-- dir_c8e62117b23228ed15f99372ebfe9bd3&#45;&gt;dir_cc4a0e24939644b536f11a8c115a722d -->
<g id="edge5" class="edge"><title>dir_c8e62117b23228ed15f99372ebfe9bd3&#45;&gt;dir_cc4a0e24939644b536f11a8c115a722d</title>
<path fill="none" stroke="black" d="M218.936,-215.731C214.913,-197.303 207.829,-168.196 198.663,-144 185.989,-110.543 178.898,-103.881 162.663,-72 158.276,-63.385 153.446,-54.0259 149.051,-45.5567"/>
<polygon fill="black" stroke="black" points="152.039,-43.7169 144.32,-36.4598 145.829,-46.9467 152.039,-43.7169"/>
<a xlink:href="dir_000054_000005.html" target="_top" xlink:title="25">
<text text-anchor="middle" x="156.217" y="-43.0961" font-family="Helvetica,sans-Serif" font-size="10.00">25</text>
</a>
</g>
<!-- dir_1f6e6a7a6dd1d8f36802e02cb5ada112&#45;&gt;dir_cc4a0e24939644b536f11a8c115a722d -->
<g id="edge7" class="edge"><title>dir_1f6e6a7a6dd1d8f36802e02cb5ada112&#45;&gt;dir_cc4a0e24939644b536f11a8c115a722d</title>
<path fill="none" stroke="black" d="M45.5127,-215.678C44.3638,-184.206 45.6553,-118.754 71.663,-72 78.4153,-59.8615 89.0185,-49.2063 99.6138,-40.639"/>
<polygon fill="black" stroke="black" points="101.825,-43.3541 107.651,-34.5045 97.5781,-37.7898 101.825,-43.3541"/>
<a xlink:href="dir_000009_000005.html" target="_top" xlink:title="39">
<text text-anchor="middle" x="100.691" y="-45.292" font-family="Helvetica,sans-Serif" font-size="10.00">39</text>
</a>
</g>
<!-- dir_1f6e6a7a6dd1d8f36802e02cb5ada112&#45;&gt;dir_d58547225052419d4950f25c06d5e500 -->
<g id="edge9" class="edge"><title>dir_1f6e6a7a6dd1d8f36802e02cb5ada112&#45;&gt;dir_d58547225052419d4950f25c06d5e500</title>
<path fill="none" stroke="black" d="M54.3887,-215.762C64.8848,-190.985 83.7411,-146.471 95.974,-117.594"/>
<polygon fill="black" stroke="black" points="99.3222,-118.663 100,-108.09 92.8767,-115.932 99.3222,-118.663"/>
<a xlink:href="dir_000009_000027.html" target="_top" xlink:title="18">
<text text-anchor="middle" x="100.535" y="-120.58" font-family="Helvetica,sans-Serif" font-size="10.00">18</text>
</a>
</g>
<!-- dir_1f6e6a7a6dd1d8f36802e02cb5ada112&#45;&gt;dir_3294b7a2d3100053ff8030387b3365d6 -->
<g id="edge11" class="edge"><title>dir_1f6e6a7a6dd1d8f36802e02cb5ada112&#45;&gt;dir_3294b7a2d3100053ff8030387b3365d6</title>
<path fill="none" stroke="black" d="M75.9347,-215.831C91.3382,-206.271 110.358,-194.465 126.658,-184.348"/>
<polygon fill="black" stroke="black" points="128.742,-187.174 135.393,-178.926 125.051,-181.226 128.742,-187.174"/>
<a xlink:href="dir_000009_000004.html" target="_top" xlink:title="5">
<text text-anchor="middle" x="127.185" y="-188.982" font-family="Helvetica,sans-Serif" font-size="10.00">5</text>
</a>
</g>
<!-- dir_3294b7a2d3100053ff8030387b3365d6&#45;&gt;dir_cc4a0e24939644b536f11a8c115a722d -->
<g id="edge25" class="edge"><title>dir_3294b7a2d3100053ff8030387b3365d6&#45;&gt;dir_cc4a0e24939644b536f11a8c115a722d</title>
<path fill="none" stroke="black" d="M159.117,-143.762C154.32,-119.093 145.719,-74.8598 140.102,-45.9731"/>
<polygon fill="black" stroke="black" points="143.525,-45.2377 138.18,-36.0896 136.654,-46.5738 143.525,-45.2377"/>
<a xlink:href="dir_000004_000005.html" target="_top" xlink:title="103">
<text text-anchor="middle" x="146.998" y="-45.7243" font-family="Helvetica,sans-Serif" font-size="10.00">103</text>
</a>
</g>
<!-- dir_3294b7a2d3100053ff8030387b3365d6&#45;&gt;dir_d58547225052419d4950f25c06d5e500 -->
<g id="edge27" class="edge"><title>dir_3294b7a2d3100053ff8030387b3365d6&#45;&gt;dir_d58547225052419d4950f25c06d5e500</title>
<path fill="none" stroke="black" d="M148.784,-143.831C142.449,-135.539 134.825,-125.557 127.87,-116.453"/>
<polygon fill="black" stroke="black" points="130.581,-114.235 121.729,-108.413 125.018,-118.485 130.581,-114.235"/>
<a xlink:href="dir_000004_000027.html" target="_top" xlink:title="84">
<text text-anchor="middle" x="135.019" y="-112.868" font-family="Helvetica,sans-Serif" font-size="10.00">84</text>
</a>
</g>
<!-- dir_46d588b3d622ab56b650b88c04e6ea36&#45;&gt;dir_cc4a0e24939644b536f11a8c115a722d -->
<g id="edge29" class="edge"><title>dir_46d588b3d622ab56b650b88c04e6ea36&#45;&gt;dir_cc4a0e24939644b536f11a8c115a722d</title>
<path fill="none" stroke="black" d="M302.755,-215.584C279.514,-185.062 230.96,-122.365 186.663,-72 178.202,-62.3798 168.559,-52.1737 159.895,-43.2547"/>
<polygon fill="black" stroke="black" points="162.391,-40.8019 152.894,-36.1065 157.39,-45.6999 162.391,-40.8019"/>
<a xlink:href="dir_000012_000005.html" target="_top" xlink:title="17">
<text text-anchor="middle" x="166.935" y="-38.8834" font-family="Helvetica,sans-Serif" font-size="10.00">17</text>
</a>
</g>
</g>
</svg>
