<?xml version="1.0" encoding="UTF-8" standalone="no"?>
<!DOCTYPE svg PUBLIC "-//W3C//DTD SVG 1.1//EN"
 "http://www.w3.org/Graphics/SVG/1.1/DTD/svg11.dtd">
<!-- Generated by graphviz version 2.26.0 (20091210.2329)
 -->
<!-- Title: displaypropertylinks.h Pages: 1 -->
<svg width="1044pt" height="784pt"
 viewBox="0.00 0.00 1044.06 784.00" xmlns="http://www.w3.org/2000/svg" xmlns:xlink="http://www.w3.org/1999/xlink">
<g id="graph1" class="graph" transform="scale(1 1) rotate(0) translate(4 780)">
<title>displaypropertylinks.h</title>
<polygon fill="white" stroke="white" points="-4,5 -4,-780 1041.06,-780 1041.06,5 -4,5"/>
<!-- Node1 -->
<g id="node1" class="node"><title>Node1</title>
<polygon fill="#bfbfbf" stroke="black" points="291.5,-754.5 291.5,-775.5 402.5,-775.5 402.5,-754.5 291.5,-754.5"/>
<text text-anchor="middle" x="347" y="-762.5" font-family="Helvetica,sans-Serif" font-size="10.00">displaypropertylinks.h</text>
</g>
<!-- Node2 -->
<g id="node3" class="node"><title>Node2</title>
<polygon fill="white" stroke="#bfbfbf" points="206.5,-696.5 206.5,-717.5 281.5,-717.5 281.5,-696.5 206.5,-696.5"/>
<text text-anchor="middle" x="244" y="-704.5" font-family="Helvetica,sans-Serif" font-size="10.00">generalmod.h</text>
</g>
<!-- Node1&#45;&gt;Node2 -->
<g id="edge2" class="edge"><title>Node1&#45;&gt;Node2</title>
<path fill="none" stroke="midnightblue" d="M328.108,-754.362C312.282,-745.45 289.477,-732.609 271.605,-722.545"/>
<polygon fill="midnightblue" stroke="midnightblue" points="273.203,-719.428 262.772,-717.571 269.768,-725.527 273.203,-719.428"/>
</g>
<!-- Node3 -->
<g id="node5" class="node"><title>Node3</title>
<a xlink:href="factory_8h.html" target="_top" xlink:title="factory.h">
<polygon fill="white" stroke="black" points="357.5,-696.5 357.5,-717.5 412.5,-717.5 412.5,-696.5 357.5,-696.5"/>
<text text-anchor="middle" x="385" y="-704.5" font-family="Helvetica,sans-Serif" font-size="10.00">factory.h</text>
</a>
</g>
<!-- Node1&#45;&gt;Node3 -->
<g id="edge4" class="edge"><title>Node1&#45;&gt;Node3</title>
<path fill="none" stroke="midnightblue" d="M353.97,-754.362C359.166,-746.431 366.401,-735.389 372.578,-725.961"/>
<polygon fill="midnightblue" stroke="midnightblue" points="375.522,-727.853 378.074,-717.571 369.666,-724.017 375.522,-727.853"/>
</g>
<!-- Node31 -->
<g id="node81" class="node"><title>Node31</title>
<a xlink:href="threadlock_8h.html" target="_top" xlink:title="threadlock.h">
<polygon fill="white" stroke="black" points="280,-522.5 280,-543.5 350,-543.5 350,-522.5 280,-522.5"/>
<text text-anchor="middle" x="315" y="-530.5" font-family="Helvetica,sans-Serif" font-size="10.00">threadlock.h</text>
</a>
</g>
<!-- Node1&#45;&gt;Node31 -->
<g id="edge178" class="edge"><title>Node1&#45;&gt;Node31</title>
<path fill="none" stroke="midnightblue" d="M345.542,-754.429C340.607,-718.648 324.471,-601.663 317.862,-553.748"/>
<polygon fill="midnightblue" stroke="midnightblue" points="321.3,-553.061 316.467,-543.634 314.366,-554.018 321.3,-553.061"/>
</g>
<!-- Node40 -->
<g id="node117" class="node"><title>Node40</title>
<a xlink:href="namedobj_8h.html" target="_top" xlink:title="namedobj.h">
<polygon fill="white" stroke="black" points="859.5,-696.5 859.5,-717.5 926.5,-717.5 926.5,-696.5 859.5,-696.5"/>
<text text-anchor="middle" x="893" y="-704.5" font-family="Helvetica,sans-Serif" font-size="10.00">namedobj.h</text>
</a>
</g>
<!-- Node1&#45;&gt;Node40 -->
<g id="edge154" class="edge"><title>Node1&#45;&gt;Node40</title>
<path fill="none" stroke="midnightblue" d="M402.612,-759.093C511.435,-747.533 750.489,-722.139 849.117,-711.662"/>
<polygon fill="midnightblue" stroke="midnightblue" points="849.751,-715.114 859.326,-710.577 849.012,-708.153 849.751,-715.114"/>
</g>
<!-- Node4 -->
<g id="node7" class="node"><title>Node4</title>
<polygon fill="white" stroke="#bfbfbf" points="660.5,-0.5 660.5,-21.5 727.5,-21.5 727.5,-0.5 660.5,-0.5"/>
<text text-anchor="middle" x="694" y="-8.5" font-family="Helvetica,sans-Serif" font-size="10.00">basicmod.h</text>
</g>
<!-- Node3&#45;&gt;Node4 -->
<g id="edge6" class="edge"><title>Node3&#45;&gt;Node4</title>
<path fill="none" stroke="midnightblue" d="M412.63,-706.641C502.202,-705.115 783.467,-697.39 865,-660 939.293,-625.931 998,-614.732 998,-533 998,-533 998,-533 998,-127 998,-85.7719 971.874,-78.3172 936,-58 902.732,-39.1587 798.028,-23.7239 737.803,-16.1178"/>
<polygon fill="midnightblue" stroke="midnightblue" points="738.176,-12.6372 727.82,-14.8772 737.312,-19.5838 738.176,-12.6372"/>
</g>
<!-- Node5 -->
<g id="node9" class="node"><title>Node5</title>
<a xlink:href="bufstringset_8h.html" target="_top" xlink:title="bufstringset.h">
<polygon fill="white" stroke="black" points="619,-638.5 619,-659.5 695,-659.5 695,-638.5 619,-638.5"/>
<text text-anchor="middle" x="657" y="-646.5" font-family="Helvetica,sans-Serif" font-size="10.00">bufstringset.h</text>
</a>
</g>
<!-- Node3&#45;&gt;Node5 -->
<g id="edge8" class="edge"><title>Node3&#45;&gt;Node5</title>
<path fill="none" stroke="midnightblue" d="M412.578,-701.119C458.7,-691.285 552.032,-671.383 609.08,-659.218"/>
<polygon fill="midnightblue" stroke="midnightblue" points="609.895,-662.623 618.945,-657.115 608.435,-655.777 609.895,-662.623"/>
</g>
<!-- Node30 -->
<g id="node77" class="node"><title>Node30</title>
<a xlink:href="perthreadrepos_8h.html" target="_top" xlink:title="perthreadrepos.h">
<polygon fill="white" stroke="black" points="188.5,-638.5 188.5,-659.5 277.5,-659.5 277.5,-638.5 188.5,-638.5"/>
<text text-anchor="middle" x="233" y="-646.5" font-family="Helvetica,sans-Serif" font-size="10.00">perthreadrepos.h</text>
</a>
</g>
<!-- Node3&#45;&gt;Node30 -->
<g id="edge94" class="edge"><title>Node3&#45;&gt;Node30</title>
<path fill="none" stroke="midnightblue" d="M357.474,-696.497C333.016,-687.164 297.062,-673.445 270.076,-663.147"/>
<polygon fill="midnightblue" stroke="midnightblue" points="271.168,-659.818 260.578,-659.523 268.673,-666.358 271.168,-659.818"/>
</g>
<!-- Node33 -->
<g id="node91" class="node"><title>Node33</title>
<a xlink:href="ptrman_8h.html" target="_top" xlink:title="ptrman.h">
<polygon fill="white" stroke="black" points="310.5,-232.5 310.5,-253.5 365.5,-253.5 365.5,-232.5 310.5,-232.5"/>
<text text-anchor="middle" x="338" y="-240.5" font-family="Helvetica,sans-Serif" font-size="10.00">ptrman.h</text>
</a>
</g>
<!-- Node3&#45;&gt;Node33 -->
<g id="edge116" class="edge"><title>Node3&#45;&gt;Node33</title>
<path fill="none" stroke="midnightblue" d="M374,-696.47C349.658,-672.308 291.75,-609.875 271,-544 238.196,-439.858 300.185,-310.608 326.749,-262.355"/>
<polygon fill="midnightblue" stroke="midnightblue" points="329.838,-264.001 331.692,-253.569 323.738,-260.568 329.838,-264.001"/>
</g>
<!-- Node37 -->
<g id="node103" class="node"><title>Node37</title>
<a xlink:href="typeset_8h.html" target="_top" xlink:title="typeset.h">
<polygon fill="white" stroke="black" points="511.5,-522.5 511.5,-543.5 568.5,-543.5 568.5,-522.5 511.5,-522.5"/>
<text text-anchor="middle" x="540" y="-530.5" font-family="Helvetica,sans-Serif" font-size="10.00">typeset.h</text>
</a>
</g>
<!-- Node3&#45;&gt;Node37 -->
<g id="edge132" class="edge"><title>Node3&#45;&gt;Node37</title>
<path fill="none" stroke="midnightblue" d="M394.463,-696.377C420.02,-667.688 490.695,-588.348 523.221,-551.835"/>
<polygon fill="midnightblue" stroke="midnightblue" points="526.227,-553.723 530.266,-543.928 521,-549.067 526.227,-553.723"/>
</g>
<!-- Node38 -->
<g id="node107" class="node"><title>Node38</title>
<a xlink:href="uistring_8h.html" target="_top" xlink:title="uistring.h">
<polygon fill="white" stroke="black" points="353,-580.5 353,-601.5 409,-601.5 409,-580.5 353,-580.5"/>
<text text-anchor="middle" x="381" y="-588.5" font-family="Helvetica,sans-Serif" font-size="10.00">uistring.h</text>
</a>
</g>
<!-- Node3&#45;&gt;Node38 -->
<g id="edge138" class="edge"><title>Node3&#45;&gt;Node38</title>
<path fill="none" stroke="midnightblue" d="M384.631,-696.295C383.97,-677.131 382.574,-636.654 381.719,-611.843"/>
<polygon fill="midnightblue" stroke="midnightblue" points="385.211,-611.553 381.368,-601.679 378.215,-611.794 385.211,-611.553"/>
</g>
<!-- Node5&#45;&gt;Node4 -->
<g id="edge10" class="edge"><title>Node5&#45;&gt;Node4</title>
<path fill="none" stroke="midnightblue" d="M695.091,-644.966C748.169,-638.601 840.622,-624.577 865,-602 928.123,-543.539 922,-503.036 922,-417 922,-417 922,-417 922,-127 922,-45.2162 804.025,-21.069 737.8,-13.9567"/>
<polygon fill="midnightblue" stroke="midnightblue" points="737.937,-10.4533 727.642,-12.9553 737.251,-17.4195 737.937,-10.4533"/>
</g>
<!-- Node6 -->
<g id="node12" class="node"><title>Node6</title>
<a xlink:href="bufstring_8h.html" target="_top" xlink:title="bufstring.h">
<polygon fill="white" stroke="black" points="748,-348.5 748,-369.5 810,-369.5 810,-348.5 748,-348.5"/>
<text text-anchor="middle" x="779" y="-356.5" font-family="Helvetica,sans-Serif" font-size="10.00">bufstring.h</text>
</a>
</g>
<!-- Node5&#45;&gt;Node6 -->
<g id="edge12" class="edge"><title>Node5&#45;&gt;Node6</title>
<path fill="none" stroke="midnightblue" d="M680.634,-638.374C695.593,-630.445 714.103,-618.192 725,-602 772.832,-530.922 778.966,-424.207 779.298,-379.672"/>
<polygon fill="midnightblue" stroke="midnightblue" points="782.798,-379.512 779.277,-369.52 775.798,-379.527 782.798,-379.512"/>
</g>
<!-- Node23 -->
<g id="node57" class="node"><title>Node23</title>
<a xlink:href="manobjectset_8h.html" target="_top" xlink:title="manobjectset.h">
<polygon fill="white" stroke="black" points="533.5,-580.5 533.5,-601.5 616.5,-601.5 616.5,-580.5 533.5,-580.5"/>
<text text-anchor="middle" x="575" y="-588.5" font-family="Helvetica,sans-Serif" font-size="10.00">manobjectset.h</text>
</a>
</g>
<!-- Node5&#45;&gt;Node23 -->
<g id="edge68" class="edge"><title>Node5&#45;&gt;Node23</title>
<path fill="none" stroke="midnightblue" d="M641.96,-638.362C629.707,-629.696 612.201,-617.313 598.161,-607.382"/>
<polygon fill="midnightblue" stroke="midnightblue" points="600.13,-604.488 589.945,-601.571 596.088,-610.203 600.13,-604.488"/>
</g>
<!-- Node6&#45;&gt;Node4 -->
<g id="edge14" class="edge"><title>Node6&#45;&gt;Node4</title>
<path fill="none" stroke="midnightblue" d="M786.426,-348.164C803.87,-321.62 846,-250.712 846,-185 846,-185 846,-185 846,-127 846,-94.5312 844.761,-81.1551 822,-58 799.633,-35.2457 765.338,-23.4233 737.874,-17.3289"/>
<polygon fill="midnightblue" stroke="midnightblue" points="738.219,-13.8274 727.722,-15.2628 736.823,-20.6868 738.219,-13.8274"/>
</g>
<!-- Node7 -->
<g id="node15" class="node"><title>Node7</title>
<a xlink:href="fixedstring_8h.html" target="_top" xlink:title="fixedstring.h">
<polygon fill="white" stroke="black" points="612,-290.5 612,-311.5 682,-311.5 682,-290.5 612,-290.5"/>
<text text-anchor="middle" x="647" y="-298.5" font-family="Helvetica,sans-Serif" font-size="10.00">fixedstring.h</text>
</a>
</g>
<!-- Node6&#45;&gt;Node7 -->
<g id="edge16" class="edge"><title>Node6&#45;&gt;Node7</title>
<path fill="none" stroke="midnightblue" d="M755.096,-348.497C734.2,-339.315 703.644,-325.889 680.345,-315.652"/>
<polygon fill="midnightblue" stroke="midnightblue" points="681.736,-312.44 671.172,-311.621 678.92,-318.848 681.736,-312.44"/>
</g>
<!-- Node20 -->
<g id="node48" class="node"><title>Node20</title>
<a xlink:href="string2_8h.html" target="_top" xlink:title="string2.h">
<polygon fill="white" stroke="black" points="201,-116.5 201,-137.5 255,-137.5 255,-116.5 201,-116.5"/>
<text text-anchor="middle" x="228" y="-124.5" font-family="Helvetica,sans-Serif" font-size="10.00">string2.h</text>
</a>
</g>
<!-- Node6&#45;&gt;Node20 -->
<g id="edge56" class="edge"><title>Node6&#45;&gt;Node20</title>
<path fill="none" stroke="midnightblue" d="M773.165,-348.473C759.295,-324.381 721.968,-264.789 675,-232 610.575,-187.024 584.123,-193.461 508,-174 484.891,-168.092 336.652,-144.248 265.718,-132.969"/>
<polygon fill="midnightblue" stroke="midnightblue" points="265.858,-129.448 255.433,-131.336 264.76,-136.361 265.858,-129.448"/>
</g>
<!-- Node7&#45;&gt;Node4 -->
<g id="edge18" class="edge"><title>Node7&#45;&gt;Node4</title>
<path fill="none" stroke="midnightblue" d="M655.12,-290.454C661.674,-281.335 670.516,-267.523 675,-254 701.164,-175.096 698.361,-74.1983 695.642,-31.5236"/>
<polygon fill="midnightblue" stroke="midnightblue" points="699.132,-31.2633 694.935,-21.5352 692.149,-31.7572 699.132,-31.2633"/>
</g>
<!-- Node8 -->
<g id="node18" class="node"><title>Node8</title>
<a xlink:href="odstring_8h.html" target="_top" xlink:title="odstring.h">
<polygon fill="white" stroke="black" points="607.5,-232.5 607.5,-253.5 666.5,-253.5 666.5,-232.5 607.5,-232.5"/>
<text text-anchor="middle" x="637" y="-240.5" font-family="Helvetica,sans-Serif" font-size="10.00">odstring.h</text>
</a>
</g>
<!-- Node7&#45;&gt;Node8 -->
<g id="edge20" class="edge"><title>Node7&#45;&gt;Node8</title>
<path fill="none" stroke="midnightblue" d="M645.166,-290.362C643.869,-282.84 642.089,-272.519 640.523,-263.431"/>
<polygon fill="midnightblue" stroke="midnightblue" points="643.971,-262.831 638.823,-253.571 637.073,-264.02 643.971,-262.831"/>
</g>
<!-- Node8&#45;&gt;Node4 -->
<g id="edge22" class="edge"><title>Node8&#45;&gt;Node4</title>
<path fill="none" stroke="midnightblue" d="M639.597,-232.429C648.407,-196.573 677.252,-79.1689 688.977,-31.4458"/>
<polygon fill="midnightblue" stroke="midnightblue" points="692.4,-32.1798 691.387,-21.6335 685.603,-30.5096 692.4,-32.1798"/>
</g>
<!-- Node9 -->
<g id="node21" class="node"><title>Node9</title>
<a xlink:href="gendefs_8h.html" target="_top" xlink:title="gendefs.h">
<polygon fill="white" stroke="black" points="440.5,-174.5 440.5,-195.5 499.5,-195.5 499.5,-174.5 440.5,-174.5"/>
<text text-anchor="middle" x="470" y="-182.5" font-family="Helvetica,sans-Serif" font-size="10.00">gendefs.h</text>
</a>
</g>
<!-- Node8&#45;&gt;Node9 -->
<g id="edge24" class="edge"><title>Node8&#45;&gt;Node9</title>
<path fill="none" stroke="midnightblue" d="M607.144,-232.631C579.834,-223.146 539.247,-209.05 509.308,-198.652"/>
<polygon fill="midnightblue" stroke="midnightblue" points="510.193,-195.254 499.598,-195.279 507.896,-201.867 510.193,-195.254"/>
</g>
<!-- Node10 -->
<g id="node23" class="node"><title>Node10</title>
<a xlink:href="undefval_8h.html" target="_top" xlink:title="undefval.h">
<polygon fill="white" stroke="black" points="311,-116.5 311,-137.5 373,-137.5 373,-116.5 311,-116.5"/>
<text text-anchor="middle" x="342" y="-124.5" font-family="Helvetica,sans-Serif" font-size="10.00">undefval.h</text>
</a>
</g>
<!-- Node9&#45;&gt;Node10 -->
<g id="edge26" class="edge"><title>Node9&#45;&gt;Node10</title>
<path fill="none" stroke="midnightblue" d="M446.82,-174.497C426.648,-165.356 397.19,-152.008 374.636,-141.788"/>
<polygon fill="midnightblue" stroke="midnightblue" points="375.993,-138.561 365.44,-137.621 373.104,-144.937 375.993,-138.561"/>
</g>
<!-- Node17 -->
<g id="node40" class="node"><title>Node17</title>
<a xlink:href="commontypes_8h.html" target="_top" xlink:title="commontypes.h">
<polygon fill="white" stroke="black" points="391,-116.5 391,-137.5 477,-137.5 477,-116.5 391,-116.5"/>
<text text-anchor="middle" x="434" y="-124.5" font-family="Helvetica,sans-Serif" font-size="10.00">commontypes.h</text>
</a>
</g>
<!-- Node9&#45;&gt;Node17 -->
<g id="edge46" class="edge"><title>Node9&#45;&gt;Node17</title>
<path fill="none" stroke="midnightblue" d="M463.397,-174.362C458.525,-166.513 451.762,-155.616 445.95,-146.253"/>
<polygon fill="midnightblue" stroke="midnightblue" points="448.809,-144.221 440.561,-137.571 442.861,-147.913 448.809,-144.221"/>
</g>
<!-- Node18 -->
<g id="node43" class="node"><title>Node18</title>
<a xlink:href="errmsg_8h.html" target="_top" xlink:title="errmsg.h">
<polygon fill="white" stroke="black" points="494.5,-116.5 494.5,-137.5 549.5,-137.5 549.5,-116.5 494.5,-116.5"/>
<text text-anchor="middle" x="522" y="-124.5" font-family="Helvetica,sans-Serif" font-size="10.00">errmsg.h</text>
</a>
</g>
<!-- Node9&#45;&gt;Node18 -->
<g id="edge50" class="edge"><title>Node9&#45;&gt;Node18</title>
<path fill="none" stroke="midnightblue" d="M479.538,-174.362C486.868,-166.186 497.163,-154.702 505.781,-145.091"/>
<polygon fill="midnightblue" stroke="midnightblue" points="508.453,-147.353 512.523,-137.571 503.241,-142.68 508.453,-147.353"/>
</g>
<!-- Node10&#45;&gt;Node4 -->
<g id="edge28" class="edge"><title>Node10&#45;&gt;Node4</title>
<path fill="none" stroke="midnightblue" d="M367.811,-116.334C389.283,-107.251 420.507,-93.5523 447,-80 464.374,-71.1126 466.827,-65.1115 485,-58 539.872,-36.5276 606.877,-23.6311 649.98,-16.9199"/>
<polygon fill="midnightblue" stroke="midnightblue" points="650.769,-20.3404 660.134,-15.3846 649.723,-13.419 650.769,-20.3404"/>
</g>
<!-- Node11 -->
<g id="node26" class="node"><title>Node11</title>
<a xlink:href="commondefs_8h.html" target="_top" xlink:title="commondefs.h">
<polygon fill="white" stroke="black" points="357.5,-58.5 357.5,-79.5 438.5,-79.5 438.5,-58.5 357.5,-58.5"/>
<text text-anchor="middle" x="398" y="-66.5" font-family="Helvetica,sans-Serif" font-size="10.00">commondefs.h</text>
</a>
</g>
<!-- Node10&#45;&gt;Node11 -->
<g id="edge30" class="edge"><title>Node10&#45;&gt;Node11</title>
<path fill="none" stroke="midnightblue" d="M352.271,-116.362C360.244,-108.104 371.475,-96.4725 380.811,-86.8029"/>
<polygon fill="midnightblue" stroke="midnightblue" points="383.366,-89.1958 387.794,-79.5707 378.33,-84.3336 383.366,-89.1958"/>
</g>
<!-- Node15 -->
<g id="node35" class="node"><title>Node15</title>
<a xlink:href="plftypes_8h.html" target="_top" xlink:title="plftypes.h">
<polygon fill="white" stroke="black" points="65.5,-58.5 65.5,-79.5 124.5,-79.5 124.5,-58.5 65.5,-58.5"/>
<text text-anchor="middle" x="95" y="-66.5" font-family="Helvetica,sans-Serif" font-size="10.00">plftypes.h</text>
</a>
</g>
<!-- Node10&#45;&gt;Node15 -->
<g id="edge40" class="edge"><title>Node10&#45;&gt;Node15</title>
<path fill="none" stroke="midnightblue" d="M310.717,-119.654C265.997,-109.153 183.797,-89.8511 134.799,-78.3455"/>
<polygon fill="midnightblue" stroke="midnightblue" points="135.408,-74.8934 124.873,-76.0146 133.808,-81.708 135.408,-74.8934"/>
</g>
<!-- Node11&#45;&gt;Node4 -->
<g id="edge32" class="edge"><title>Node11&#45;&gt;Node4</title>
<path fill="none" stroke="midnightblue" d="M438.682,-60.6715C443.175,-59.7641 447.684,-58.8588 452,-58 521.364,-44.1997 602.012,-28.6323 650.475,-19.3292"/>
<polygon fill="midnightblue" stroke="midnightblue" points="651.151,-22.7634 660.313,-17.442 649.832,-15.8888 651.151,-22.7634"/>
</g>
<!-- Node12 -->
<g id="node29" class="node"><title>Node12</title>
<a xlink:href="plfdefs_8h.html" target="_top" xlink:title="plfdefs.h">
<polygon fill="white" stroke="black" points="223,-0.5 223,-21.5 277,-21.5 277,-0.5 223,-0.5"/>
<text text-anchor="middle" x="250" y="-8.5" font-family="Helvetica,sans-Serif" font-size="10.00">plfdefs.h</text>
</a>
</g>
<!-- Node11&#45;&gt;Node12 -->
<g id="edge34" class="edge"><title>Node11&#45;&gt;Node12</title>
<path fill="none" stroke="midnightblue" d="M371.198,-58.4966C347.562,-49.2337 312.9,-35.6499 286.692,-25.3793"/>
<polygon fill="midnightblue" stroke="midnightblue" points="287.69,-22.0113 277.102,-21.6212 285.136,-28.5287 287.69,-22.0113"/>
</g>
<!-- Node13 -->
<g id="node31" class="node"><title>Node13</title>
<polygon fill="white" stroke="#bfbfbf" points="508.5,-0.5 508.5,-21.5 567.5,-21.5 567.5,-0.5 508.5,-0.5"/>
<text text-anchor="middle" x="538" y="-8.5" font-family="Helvetica,sans-Serif" font-size="10.00">stdexcept</text>
</g>
<!-- Node11&#45;&gt;Node13 -->
<g id="edge36" class="edge"><title>Node11&#45;&gt;Node13</title>
<path fill="none" stroke="midnightblue" d="M423.353,-58.4966C445.613,-49.2746 478.212,-35.7695 502.963,-25.5153"/>
<polygon fill="midnightblue" stroke="midnightblue" points="504.464,-28.6822 512.363,-21.6212 501.784,-22.2152 504.464,-28.6822"/>
</g>
<!-- Node14 -->
<g id="node33" class="node"><title>Node14</title>
<polygon fill="white" stroke="#bfbfbf" points="380.5,-0.5 380.5,-21.5 415.5,-21.5 415.5,-0.5 380.5,-0.5"/>
<text text-anchor="middle" x="398" y="-8.5" font-family="Helvetica,sans-Serif" font-size="10.00">new</text>
</g>
<!-- Node11&#45;&gt;Node14 -->
<g id="edge38" class="edge"><title>Node11&#45;&gt;Node14</title>
<path fill="none" stroke="midnightblue" d="M398,-58.3619C398,-50.9219 398,-40.7427 398,-31.7276"/>
<polygon fill="midnightblue" stroke="midnightblue" points="401.5,-31.5706 398,-21.5707 394.5,-31.5707 401.5,-31.5706"/>
</g>
<!-- Node15&#45;&gt;Node12 -->
<g id="edge42" class="edge"><title>Node15&#45;&gt;Node12</title>
<path fill="none" stroke="midnightblue" d="M123.069,-58.4966C148.321,-49.0476 185.589,-35.1021 213.217,-24.7641"/>
<polygon fill="midnightblue" stroke="midnightblue" points="214.78,-27.9164 222.919,-21.1337 212.326,-21.3603 214.78,-27.9164"/>
</g>
<!-- Node16 -->
<g id="node38" class="node"><title>Node16</title>
<polygon fill="white" stroke="#bfbfbf" points="70.5,-0.5 70.5,-21.5 119.5,-21.5 119.5,-0.5 70.5,-0.5"/>
<text text-anchor="middle" x="95" y="-8.5" font-family="Helvetica,sans-Serif" font-size="10.00">stdint.h</text>
</g>
<!-- Node15&#45;&gt;Node16 -->
<g id="edge44" class="edge"><title>Node15&#45;&gt;Node16</title>
<path fill="none" stroke="midnightblue" d="M95,-58.3619C95,-50.9219 95,-40.7427 95,-31.7276"/>
<polygon fill="midnightblue" stroke="midnightblue" points="98.5001,-31.5706 95,-21.5707 91.5001,-31.5707 98.5001,-31.5706"/>
</g>
<!-- Node17&#45;&gt;Node11 -->
<g id="edge48" class="edge"><title>Node17&#45;&gt;Node11</title>
<path fill="none" stroke="midnightblue" d="M427.397,-116.362C422.525,-108.513 415.762,-97.6159 409.95,-88.2527"/>
<polygon fill="midnightblue" stroke="midnightblue" points="412.809,-86.2213 404.561,-79.5707 406.861,-89.9129 412.809,-86.2213"/>
</g>
<!-- Node18&#45;&gt;Node11 -->
<g id="edge52" class="edge"><title>Node18&#45;&gt;Node11</title>
<path fill="none" stroke="midnightblue" d="M499.545,-116.497C480.09,-107.397 451.72,-94.1273 429.909,-83.9253"/>
<polygon fill="midnightblue" stroke="midnightblue" points="431.248,-80.6878 420.707,-79.6212 428.283,-87.0285 431.248,-80.6878"/>
</g>
<!-- Node19 -->
<g id="node46" class="node"><title>Node19</title>
<polygon fill="white" stroke="#bfbfbf" points="493.5,-58.5 493.5,-79.5 544.5,-79.5 544.5,-58.5 493.5,-58.5"/>
<text text-anchor="middle" x="519" y="-66.5" font-family="Helvetica,sans-Serif" font-size="10.00">typeinfo</text>
</g>
<!-- Node18&#45;&gt;Node19 -->
<g id="edge54" class="edge"><title>Node18&#45;&gt;Node19</title>
<path fill="none" stroke="midnightblue" d="M521.45,-116.362C521.065,-108.922 520.538,-98.7427 520.072,-89.7276"/>
<polygon fill="midnightblue" stroke="midnightblue" points="523.559,-89.3765 519.547,-79.5707 516.568,-89.7381 523.559,-89.3765"/>
</g>
<!-- Node20&#45;&gt;Node4 -->
<g id="edge58" class="edge"><title>Node20&#45;&gt;Node4</title>
<path fill="none" stroke="midnightblue" d="M219.643,-116.247C209.127,-101.338 194.135,-74.3756 209,-58 209.926,-56.9799 530.933,-26.4568 650.129,-15.1552"/>
<polygon fill="midnightblue" stroke="midnightblue" points="650.73,-18.614 660.355,-14.1858 650.069,-11.6452 650.73,-18.614"/>
</g>
<!-- Node20&#45;&gt;Node11 -->
<g id="edge62" class="edge"><title>Node20&#45;&gt;Node11</title>
<path fill="none" stroke="midnightblue" d="M255.313,-117.681C282.838,-108.29 325.644,-93.6863 357.195,-82.9218"/>
<polygon fill="midnightblue" stroke="midnightblue" points="358.675,-86.1149 367.009,-79.5733 356.415,-79.4898 358.675,-86.1149"/>
</g>
<!-- Node20&#45;&gt;Node15 -->
<g id="edge60" class="edge"><title>Node20&#45;&gt;Node15</title>
<path fill="none" stroke="midnightblue" d="M203.915,-116.497C182.861,-107.315 152.073,-93.8889 128.598,-83.6516"/>
<polygon fill="midnightblue" stroke="midnightblue" points="129.921,-80.4104 119.356,-79.6212 127.123,-86.8268 129.921,-80.4104"/>
</g>
<!-- Node21 -->
<g id="node53" class="node"><title>Node21</title>
<polygon fill="white" stroke="#bfbfbf" points="217.5,-58.5 217.5,-79.5 266.5,-79.5 266.5,-58.5 217.5,-58.5"/>
<text text-anchor="middle" x="242" y="-66.5" font-family="Helvetica,sans-Serif" font-size="10.00">ctype.h</text>
</g>
<!-- Node20&#45;&gt;Node21 -->
<g id="edge64" class="edge"><title>Node20&#45;&gt;Node21</title>
<path fill="none" stroke="midnightblue" d="M230.568,-116.362C232.383,-108.84 234.875,-98.5187 237.068,-89.4308"/>
<polygon fill="midnightblue" stroke="midnightblue" points="240.504,-90.1127 239.448,-79.5707 233.7,-88.4702 240.504,-90.1127"/>
</g>
<!-- Node22 -->
<g id="node55" class="node"><title>Node22</title>
<polygon fill="white" stroke="#bfbfbf" points="284,-58.5 284,-79.5 340,-79.5 340,-58.5 284,-58.5"/>
<text text-anchor="middle" x="312" y="-66.5" font-family="Helvetica,sans-Serif" font-size="10.00">wctype.h</text>
</g>
<!-- Node20&#45;&gt;Node22 -->
<g id="edge66" class="edge"><title>Node20&#45;&gt;Node22</title>
<path fill="none" stroke="midnightblue" d="M243.407,-116.362C255.958,-107.696 273.892,-95.3126 288.275,-85.3819"/>
<polygon fill="midnightblue" stroke="midnightblue" points="290.45,-88.1327 296.691,-79.5707 286.473,-82.3725 290.45,-88.1327"/>
</g>
<!-- Node24 -->
<g id="node59" class="node"><title>Node24</title>
<a xlink:href="objectset_8h.html" target="_top" xlink:title="objectset.h">
<polygon fill="white" stroke="black" points="609.5,-522.5 609.5,-543.5 674.5,-543.5 674.5,-522.5 609.5,-522.5"/>
<text text-anchor="middle" x="642" y="-530.5" font-family="Helvetica,sans-Serif" font-size="10.00">objectset.h</text>
</a>
</g>
<!-- Node23&#45;&gt;Node24 -->
<g id="edge70" class="edge"><title>Node23&#45;&gt;Node24</title>
<path fill="none" stroke="midnightblue" d="M587.289,-580.362C597.017,-571.941 610.798,-560.011 622.095,-550.231"/>
<polygon fill="midnightblue" stroke="midnightblue" points="624.519,-552.762 629.789,-543.571 619.938,-547.469 624.519,-552.762"/>
</g>
<!-- Node25 -->
<g id="node61" class="node"><title>Node25</title>
<a xlink:href="odset_8h.html" target="_top" xlink:title="odset.h">
<polygon fill="white" stroke="black" points="515.5,-464.5 515.5,-485.5 564.5,-485.5 564.5,-464.5 515.5,-464.5"/>
<text text-anchor="middle" x="540" y="-472.5" font-family="Helvetica,sans-Serif" font-size="10.00">odset.h</text>
</a>
</g>
<!-- Node24&#45;&gt;Node25 -->
<g id="edge72" class="edge"><title>Node24&#45;&gt;Node25</title>
<path fill="none" stroke="midnightblue" d="M623.292,-522.362C607.619,-513.45 585.036,-500.609 567.337,-490.545"/>
<polygon fill="midnightblue" stroke="midnightblue" points="569.013,-487.471 558.59,-485.571 565.553,-493.556 569.013,-487.471"/>
</g>
<!-- Node26 -->
<g id="node64" class="node"><title>Node26</title>
<a xlink:href="vectoraccess_8h.html" target="_top" xlink:title="vectoraccess.h">
<polygon fill="white" stroke="black" points="600.5,-464.5 600.5,-485.5 683.5,-485.5 683.5,-464.5 600.5,-464.5"/>
<text text-anchor="middle" x="642" y="-472.5" font-family="Helvetica,sans-Serif" font-size="10.00">vectoraccess.h</text>
</a>
</g>
<!-- Node24&#45;&gt;Node26 -->
<g id="edge76" class="edge"><title>Node24&#45;&gt;Node26</title>
<path fill="none" stroke="midnightblue" d="M642,-522.362C642,-514.922 642,-504.743 642,-495.728"/>
<polygon fill="midnightblue" stroke="midnightblue" points="645.5,-495.571 642,-485.571 638.5,-495.571 645.5,-495.571"/>
</g>
<!-- Node25&#45;&gt;Node9 -->
<g id="edge74" class="edge"><title>Node25&#45;&gt;Node9</title>
<path fill="none" stroke="midnightblue" d="M531.967,-464.464C517.833,-444.843 490,-400.886 490,-359 490,-359 490,-359 490,-301 490,-267.127 481.616,-228.489 475.704,-205.456"/>
<polygon fill="midnightblue" stroke="midnightblue" points="479.08,-204.531 473.125,-195.768 472.316,-206.332 479.08,-204.531"/>
</g>
<!-- Node26&#45;&gt;Node9 -->
<g id="edge86" class="edge"><title>Node26&#45;&gt;Node9</title>
<path fill="none" stroke="midnightblue" d="M603.859,-464.435C584.267,-457.174 561.525,-445.597 547,-428 526.752,-403.469 528,-390.808 528,-359 528,-359 528,-359 528,-301 528,-263.233 503.1,-225.158 485.93,-203.391"/>
<polygon fill="midnightblue" stroke="midnightblue" points="488.618,-201.149 479.578,-195.625 483.2,-205.581 488.618,-201.149"/>
</g>
<!-- Node26&#45;&gt;Node13 -->
<g id="edge92" class="edge"><title>Node26&#45;&gt;Node13</title>
<path fill="none" stroke="midnightblue" d="M678.64,-464.43C720.357,-450.295 786.874,-420.916 819,-370 852.544,-316.836 874.139,-290.042 850,-232 807.882,-130.729 768.13,-115.936 675,-58 644.86,-39.25 606.303,-26.8872 577.775,-19.5687"/>
<polygon fill="midnightblue" stroke="midnightblue" points="578.301,-16.0935 567.753,-17.0982 576.625,-22.89 578.301,-16.0935"/>
</g>
<!-- Node27 -->
<g id="node66" class="node"><title>Node27</title>
<a xlink:href="debug_8h.html" target="_top" xlink:title="debug.h">
<polygon fill="white" stroke="black" points="555.5,-406.5 555.5,-427.5 606.5,-427.5 606.5,-406.5 555.5,-406.5"/>
<text text-anchor="middle" x="581" y="-414.5" font-family="Helvetica,sans-Serif" font-size="10.00">debug.h</text>
</a>
</g>
<!-- Node26&#45;&gt;Node27 -->
<g id="edge78" class="edge"><title>Node26&#45;&gt;Node27</title>
<path fill="none" stroke="midnightblue" d="M630.812,-464.362C622.041,-456.023 609.651,-444.242 599.422,-434.516"/>
<polygon fill="midnightblue" stroke="midnightblue" points="601.776,-431.925 592.117,-427.571 596.953,-436.998 601.776,-431.925"/>
</g>
<!-- Node28 -->
<g id="node72" class="node"><title>Node28</title>
<polygon fill="white" stroke="#bfbfbf" points="624,-406.5 624,-427.5 680,-427.5 680,-406.5 624,-406.5"/>
<text text-anchor="middle" x="652" y="-414.5" font-family="Helvetica,sans-Serif" font-size="10.00">algorithm</text>
</g>
<!-- Node26&#45;&gt;Node28 -->
<g id="edge88" class="edge"><title>Node26&#45;&gt;Node28</title>
<path fill="none" stroke="midnightblue" d="M643.834,-464.362C645.131,-456.84 646.911,-446.519 648.477,-437.431"/>
<polygon fill="midnightblue" stroke="midnightblue" points="651.927,-438.02 650.177,-427.571 645.029,-436.831 651.927,-438.02"/>
</g>
<!-- Node29 -->
<g id="node74" class="node"><title>Node29</title>
<polygon fill="white" stroke="#bfbfbf" points="698,-406.5 698,-427.5 742,-427.5 742,-406.5 698,-406.5"/>
<text text-anchor="middle" x="720" y="-414.5" font-family="Helvetica,sans-Serif" font-size="10.00">vector</text>
</g>
<!-- Node26&#45;&gt;Node29 -->
<g id="edge90" class="edge"><title>Node26&#45;&gt;Node29</title>
<path fill="none" stroke="midnightblue" d="M656.306,-464.362C667.851,-455.777 684.3,-443.546 697.59,-433.664"/>
<polygon fill="midnightblue" stroke="midnightblue" points="699.848,-436.346 705.784,-427.571 695.671,-430.729 699.848,-436.346"/>
</g>
<!-- Node27&#45;&gt;Node4 -->
<g id="edge80" class="edge"><title>Node27&#45;&gt;Node4</title>
<path fill="none" stroke="midnightblue" d="M605.293,-406.401C663.853,-379.023 808,-299.956 808,-185 808,-185 808,-185 808,-127 808,-80.0264 759.859,-45.1175 726.144,-26.4297"/>
<polygon fill="midnightblue" stroke="midnightblue" points="727.541,-23.2078 717.07,-21.5923 724.248,-29.385 727.541,-23.2078"/>
</g>
<!-- Node27&#45;&gt;Node6 -->
<g id="edge84" class="edge"><title>Node27&#45;&gt;Node6</title>
<path fill="none" stroke="midnightblue" d="M606.591,-408.618C609.424,-407.721 612.27,-406.832 615,-406 656.721,-393.277 704.712,-379.639 737.953,-370.348"/>
<polygon fill="midnightblue" stroke="midnightblue" points="739.08,-373.668 747.773,-367.611 737.2,-366.925 739.08,-373.668"/>
</g>
<!-- Node27&#45;&gt;Node9 -->
<g id="edge82" class="edge"><title>Node27&#45;&gt;Node9</title>
<path fill="none" stroke="midnightblue" d="M581.457,-406.307C582.22,-376.094 580.742,-288.615 542,-232 532.822,-218.587 518.427,-208.082 504.914,-200.438"/>
<polygon fill="midnightblue" stroke="midnightblue" points="506.25,-197.185 495.774,-195.602 502.976,-203.372 506.25,-197.185"/>
</g>
<!-- Node30&#45;&gt;Node4 -->
<g id="edge96" class="edge"><title>Node30&#45;&gt;Node4</title>
<path fill="none" stroke="midnightblue" d="M188.351,-646.392C120.695,-639.758 0,-616.258 0,-533 0,-533 0,-533 0,-127 0,-90.1433 14.1126,-76.4829 46,-58 97.0663,-28.4004 517.166,-26.7396 576,-22 600.609,-20.0175 628.074,-17.4767 650.311,-15.3365"/>
<polygon fill="midnightblue" stroke="midnightblue" points="650.834,-18.8023 660.45,-14.3537 650.159,-11.8349 650.834,-18.8023"/>
</g>
<!-- Node30&#45;&gt;Node23 -->
<g id="edge98" class="edge"><title>Node30&#45;&gt;Node23</title>
<path fill="none" stroke="midnightblue" d="M277.711,-641.418C341.087,-630.669 456.757,-611.053 523.597,-599.717"/>
<polygon fill="midnightblue" stroke="midnightblue" points="524.217,-603.162 533.491,-598.039 523.047,-596.261 524.217,-603.162"/>
</g>
<!-- Node30&#45;&gt;Node31 -->
<g id="edge100" class="edge"><title>Node30&#45;&gt;Node31</title>
<path fill="none" stroke="midnightblue" d="M240.567,-638.295C254.48,-618.613 284.285,-576.45 301.663,-551.867"/>
<polygon fill="midnightblue" stroke="midnightblue" points="304.537,-553.865 307.451,-543.679 298.82,-549.825 304.537,-553.865"/>
</g>
<!-- Node32 -->
<g id="node86" class="node"><title>Node32</title>
<a xlink:href="thread_8h.html" target="_top" xlink:title="thread.h">
<polygon fill="white" stroke="black" points="55,-116.5 55,-137.5 107,-137.5 107,-116.5 55,-116.5"/>
<text text-anchor="middle" x="81" y="-124.5" font-family="Helvetica,sans-Serif" font-size="10.00">thread.h</text>
</a>
</g>
<!-- Node30&#45;&gt;Node32 -->
<g id="edge108" class="edge"><title>Node30&#45;&gt;Node32</title>
<path fill="none" stroke="midnightblue" d="M198.874,-638.382C156.291,-622.758 89,-589.179 89,-533 89,-533 89,-533 89,-243 89,-209.518 85.6419,-170.729 83.2771,-147.564"/>
<polygon fill="midnightblue" stroke="midnightblue" points="86.7491,-147.115 82.215,-137.539 79.7881,-147.852 86.7491,-147.115"/>
</g>
<!-- Node31&#45;&gt;Node4 -->
<g id="edge102" class="edge"><title>Node31&#45;&gt;Node4</title>
<path fill="none" stroke="midnightblue" d="M306.469,-522.464C261.605,-465.785 60.186,-194.633 198,-58 198.502,-57.5025 529.265,-26.4453 650.302,-15.0956"/>
<polygon fill="midnightblue" stroke="midnightblue" points="650.708,-18.573 660.337,-14.1546 650.054,-11.6035 650.708,-18.573"/>
</g>
<!-- Node31&#45;&gt;Node11 -->
<g id="edge104" class="edge"><title>Node31&#45;&gt;Node11</title>
<path fill="none" stroke="midnightblue" d="M313.499,-522.297C307.173,-476.816 283,-299.351 283,-243 283,-243 283,-243 283,-185 283,-153.192 281.701,-140.489 302,-116 314.29,-101.173 332.393,-90.6431 349.575,-83.3633"/>
<polygon fill="midnightblue" stroke="midnightblue" points="350.969,-86.576 358.984,-79.6467 348.397,-80.0656 350.969,-86.576"/>
</g>
<!-- Node31&#45;&gt;Node15 -->
<g id="edge106" class="edge"><title>Node31&#45;&gt;Node15</title>
<path fill="none" stroke="midnightblue" d="M279.867,-526.773C227.484,-515.241 135,-485.22 135,-417 135,-417 135,-417 135,-185 135,-149.557 118.104,-111.186 106.274,-88.6646"/>
<polygon fill="midnightblue" stroke="midnightblue" points="109.285,-86.8744 101.427,-79.7681 103.138,-90.2238 109.285,-86.8744"/>
</g>
<!-- Node32&#45;&gt;Node4 -->
<g id="edge110" class="edge"><title>Node32&#45;&gt;Node4</title>
<path fill="none" stroke="midnightblue" d="M71.3843,-116.284C59.2178,-101.417 41.5986,-74.5067 57,-58 96.4349,-15.735 518.385,-26.683 576,-22 600.608,-19.9998 628.073,-17.4579 650.31,-15.3216"/>
<polygon fill="midnightblue" stroke="midnightblue" points="650.832,-18.7875 660.449,-14.3409 650.158,-11.82 650.832,-18.7875"/>
</g>
<!-- Node32&#45;&gt;Node11 -->
<g id="edge112" class="edge"><title>Node32&#45;&gt;Node11</title>
<path fill="none" stroke="midnightblue" d="M107.325,-122.807C153.796,-115.314 253.624,-98.8118 347.453,-80.2498"/>
<polygon fill="midnightblue" stroke="midnightblue" points="348.265,-83.6569 357.389,-78.2717 346.899,-76.7916 348.265,-83.6569"/>
</g>
<!-- Node32&#45;&gt;Node15 -->
<g id="edge114" class="edge"><title>Node32&#45;&gt;Node15</title>
<path fill="none" stroke="midnightblue" d="M83.5678,-116.362C85.3834,-108.84 87.8748,-98.5187 90.0684,-89.4308"/>
<polygon fill="midnightblue" stroke="midnightblue" points="93.5043,-90.1127 92.4485,-79.5707 86.6997,-88.4702 93.5043,-90.1127"/>
</g>
<!-- Node33&#45;&gt;Node9 -->
<g id="edge118" class="edge"><title>Node33&#45;&gt;Node9</title>
<path fill="none" stroke="midnightblue" d="M361.904,-232.497C382.8,-223.315 413.356,-209.889 436.655,-199.652"/>
<polygon fill="midnightblue" stroke="midnightblue" points="438.08,-202.848 445.828,-195.621 435.264,-196.44 438.08,-202.848"/>
</g>
<!-- Node34 -->
<g id="node94" class="node"><title>Node34</title>
<a xlink:href="atomic_8h.html" target="_top" xlink:title="atomic.h">
<polygon fill="white" stroke="black" points="567,-116.5 567,-137.5 621,-137.5 621,-116.5 567,-116.5"/>
<text text-anchor="middle" x="594" y="-124.5" font-family="Helvetica,sans-Serif" font-size="10.00">atomic.h</text>
</a>
</g>
<!-- Node33&#45;&gt;Node34 -->
<g id="edge120" class="edge"><title>Node33&#45;&gt;Node34</title>
<path fill="none" stroke="midnightblue" d="M349.565,-232.357C366.469,-217.329 399.462,-189.949 432,-174 481.538,-149.718 500.17,-153.951 557.026,-138.171"/>
<polygon fill="midnightblue" stroke="midnightblue" points="558.242,-141.464 566.889,-135.342 556.312,-134.735 558.242,-141.464"/>
</g>
<!-- Node36 -->
<g id="node101" class="node"><title>Node36</title>
<polygon fill="white" stroke="#bfbfbf" points="314,-174.5 314,-195.5 362,-195.5 362,-174.5 314,-174.5"/>
<text text-anchor="middle" x="338" y="-182.5" font-family="Helvetica,sans-Serif" font-size="10.00">stdlib.h</text>
</g>
<!-- Node33&#45;&gt;Node36 -->
<g id="edge130" class="edge"><title>Node33&#45;&gt;Node36</title>
<path fill="none" stroke="midnightblue" d="M338,-232.362C338,-224.922 338,-214.743 338,-205.728"/>
<polygon fill="midnightblue" stroke="midnightblue" points="341.5,-205.571 338,-195.571 334.5,-205.571 341.5,-205.571"/>
</g>
<!-- Node34&#45;&gt;Node4 -->
<g id="edge122" class="edge"><title>Node34&#45;&gt;Node4</title>
<path fill="none" stroke="midnightblue" d="M589.961,-116.197C585.285,-101.708 579.588,-75.7514 591,-58 604.181,-37.4969 628.761,-25.8289 650.603,-19.2475"/>
<polygon fill="midnightblue" stroke="midnightblue" points="651.674,-22.5833 660.396,-16.5681 649.827,-15.8315 651.674,-22.5833"/>
</g>
<!-- Node34&#45;&gt;Node11 -->
<g id="edge124" class="edge"><title>Node34&#45;&gt;Node11</title>
<path fill="none" stroke="midnightblue" d="M566.883,-118.68C563.887,-117.771 560.88,-116.863 558,-116 519.712,-104.527 476.187,-91.7596 444.209,-82.4303"/>
<polygon fill="midnightblue" stroke="midnightblue" points="444.834,-78.9667 434.254,-79.5281 442.875,-85.687 444.834,-78.9667"/>
</g>
<!-- Node34&#45;&gt;Node15 -->
<g id="edge126" class="edge"><title>Node34&#45;&gt;Node15</title>
<path fill="none" stroke="midnightblue" d="M566.624,-118.032C563.732,-117.266 560.819,-116.568 558,-116 537.376,-111.844 243.743,-83.3308 135.065,-72.8523"/>
<polygon fill="midnightblue" stroke="midnightblue" points="135.13,-69.3425 124.84,-71.8671 134.458,-76.3102 135.13,-69.3425"/>
</g>
<!-- Node35 -->
<g id="node99" class="node"><title>Node35</title>
<polygon fill="white" stroke="#bfbfbf" points="599.5,-58.5 599.5,-79.5 666.5,-79.5 666.5,-58.5 599.5,-58.5"/>
<text text-anchor="middle" x="633" y="-66.5" font-family="Helvetica,sans-Serif" font-size="10.00">odversion.h</text>
</g>
<!-- Node34&#45;&gt;Node35 -->
<g id="edge128" class="edge"><title>Node34&#45;&gt;Node35</title>
<path fill="none" stroke="midnightblue" d="M601.153,-116.362C606.486,-108.431 613.911,-97.3885 620.251,-87.9606"/>
<polygon fill="midnightblue" stroke="midnightblue" points="623.217,-89.8221 625.892,-79.5707 617.408,-85.9161 623.217,-89.8221"/>
</g>
<!-- Node37&#45;&gt;Node25 -->
<g id="edge134" class="edge"><title>Node37&#45;&gt;Node25</title>
<path fill="none" stroke="midnightblue" d="M540,-522.362C540,-514.922 540,-504.743 540,-495.728"/>
<polygon fill="midnightblue" stroke="midnightblue" points="543.5,-495.571 540,-485.571 536.5,-495.571 543.5,-495.571"/>
</g>
<!-- Node37&#45;&gt;Node26 -->
<g id="edge136" class="edge"><title>Node37&#45;&gt;Node26</title>
<path fill="none" stroke="midnightblue" d="M558.708,-522.362C574.381,-513.45 596.964,-500.609 614.663,-490.545"/>
<polygon fill="midnightblue" stroke="midnightblue" points="616.447,-493.556 623.41,-485.571 612.987,-487.471 616.447,-493.556"/>
</g>
<!-- Node38&#45;&gt;Node9 -->
<g id="edge140" class="edge"><title>Node38&#45;&gt;Node9</title>
<path fill="none" stroke="midnightblue" d="M380.544,-580.446C379.705,-560.068 378,-513.881 378,-475 378,-475 378,-475 378,-417 378,-332.718 431.115,-242.573 456.629,-204.134"/>
<polygon fill="midnightblue" stroke="midnightblue" points="459.76,-205.753 462.471,-195.511 453.965,-201.826 459.76,-205.753"/>
</g>
<!-- Node38&#45;&gt;Node20 -->
<g id="edge150" class="edge"><title>Node38&#45;&gt;Node20</title>
<path fill="none" stroke="midnightblue" d="M352.671,-585.032C305.025,-573.15 214,-541.719 214,-475 214,-475 214,-475 214,-243 214,-209.355 219.877,-170.615 224.015,-147.504"/>
<polygon fill="midnightblue" stroke="midnightblue" points="227.487,-147.976 225.874,-137.505 220.605,-146.697 227.487,-147.976"/>
</g>
<!-- Node38&#45;&gt;Node31 -->
<g id="edge148" class="edge"><title>Node38&#45;&gt;Node31</title>
<path fill="none" stroke="midnightblue" d="M368.895,-580.362C359.312,-571.941 345.736,-560.011 334.607,-550.231"/>
<polygon fill="midnightblue" stroke="midnightblue" points="336.851,-547.543 327.029,-543.571 332.23,-552.801 336.851,-547.543"/>
</g>
<!-- Node38&#45;&gt;Node37 -->
<g id="edge152" class="edge"><title>Node38&#45;&gt;Node37</title>
<path fill="none" stroke="midnightblue" d="M409.06,-580.764C434.819,-571.368 473.204,-557.366 501.762,-546.948"/>
<polygon fill="midnightblue" stroke="midnightblue" points="503.222,-550.142 511.417,-543.427 500.823,-543.565 503.222,-550.142"/>
</g>
<!-- Node39 -->
<g id="node110" class="node"><title>Node39</title>
<a xlink:href="keystrs_8h.html" target="_top" xlink:title="keystrs.h">
<polygon fill="white" stroke="black" points="405.5,-348.5 405.5,-369.5 462.5,-369.5 462.5,-348.5 405.5,-348.5"/>
<text text-anchor="middle" x="434" y="-356.5" font-family="Helvetica,sans-Serif" font-size="10.00">keystrs.h</text>
</a>
</g>
<!-- Node38&#45;&gt;Node39 -->
<g id="edge142" class="edge"><title>Node38&#45;&gt;Node39</title>
<path fill="none" stroke="midnightblue" d="M383.554,-580.178C385.797,-570.654 389.139,-556.412 392,-544 405.753,-484.344 421.677,-413.784 429.369,-379.607"/>
<polygon fill="midnightblue" stroke="midnightblue" points="432.784,-380.373 431.564,-369.849 425.954,-378.837 432.784,-380.373"/>
</g>
<!-- Node39&#45;&gt;Node7 -->
<g id="edge146" class="edge"><title>Node39&#45;&gt;Node7</title>
<path fill="none" stroke="midnightblue" d="M462.726,-351.178C498.469,-341.445 559.911,-324.714 601.944,-313.269"/>
<polygon fill="midnightblue" stroke="midnightblue" points="602.926,-316.629 611.656,-310.624 601.087,-309.875 602.926,-316.629"/>
</g>
<!-- Node39&#45;&gt;Node9 -->
<g id="edge144" class="edge"><title>Node39&#45;&gt;Node9</title>
<path fill="none" stroke="midnightblue" d="M436.198,-348.377C442.008,-320.293 457.861,-243.673 465.613,-206.203"/>
<polygon fill="midnightblue" stroke="midnightblue" points="469.14,-206.429 467.739,-195.928 462.286,-205.011 469.14,-206.429"/>
</g>
<!-- Node40&#45;&gt;Node4 -->
<g id="edge156" class="edge"><title>Node40&#45;&gt;Node4</title>
<path fill="none" stroke="midnightblue" d="M926.527,-696.446C968.794,-680.801 1036,-647.103 1036,-591 1036,-591 1036,-591 1036,-127 1036,-94.5312 1037.01,-78.7026 1012,-58 971.093,-24.1419 815.283,-14.6499 738.002,-12.0078"/>
<polygon fill="midnightblue" stroke="midnightblue" points="737.745,-8.49798 727.639,-11.6787 737.522,-15.4945 737.745,-8.49798"/>
</g>
<!-- Node40&#45;&gt;Node6 -->
<g id="edge176" class="edge"><title>Node40&#45;&gt;Node6</title>
<path fill="none" stroke="midnightblue" d="M891.22,-696.321C887.425,-674.298 877.826,-622.354 865,-580 842.095,-504.364 805.188,-417.902 788.154,-379.374"/>
<polygon fill="midnightblue" stroke="midnightblue" points="791.169,-377.54 783.905,-369.827 784.774,-380.386 791.169,-377.54"/>
</g>
<!-- Node41 -->
<g id="node120" class="node"><title>Node41</title>
<a xlink:href="callback_8h.html" target="_top" xlink:title="callback.h">
<polygon fill="white" stroke="black" points="795.5,-638.5 795.5,-659.5 856.5,-659.5 856.5,-638.5 795.5,-638.5"/>
<text text-anchor="middle" x="826" y="-646.5" font-family="Helvetica,sans-Serif" font-size="10.00">callback.h</text>
</a>
</g>
<!-- Node40&#45;&gt;Node41 -->
<g id="edge158" class="edge"><title>Node40&#45;&gt;Node41</title>
<path fill="none" stroke="midnightblue" d="M880.711,-696.362C870.983,-687.941 857.202,-676.011 845.905,-666.231"/>
<polygon fill="midnightblue" stroke="midnightblue" points="848.062,-663.469 838.211,-659.571 843.481,-668.762 848.062,-663.469"/>
</g>
<!-- Node41&#45;&gt;Node4 -->
<g id="edge160" class="edge"><title>Node41&#45;&gt;Node4</title>
<path fill="none" stroke="midnightblue" d="M842.7,-638.43C878.621,-614.247 960,-551.066 960,-475 960,-475 960,-475 960,-127 960,-88.3308 939.629,-78.7527 907,-58 879.308,-40.3871 791.471,-25.0787 737.628,-17.0283"/>
<polygon fill="midnightblue" stroke="midnightblue" points="738.07,-13.5556 727.667,-15.5635 737.051,-20.4812 738.07,-13.5556"/>
</g>
<!-- Node41&#45;&gt;Node31 -->
<g id="edge174" class="edge"><title>Node41&#45;&gt;Node31</title>
<path fill="none" stroke="midnightblue" d="M795.497,-642.557C762.165,-634.981 707.571,-620.99 663,-602 645.046,-594.351 643.413,-586.464 625,-580 534.693,-548.295 422.199,-537.971 360.597,-534.613"/>
<polygon fill="midnightblue" stroke="midnightblue" points="360.595,-531.109 350.431,-534.098 360.24,-538.1 360.595,-531.109"/>
</g>
<!-- Node42 -->
<g id="node123" class="node"><title>Node42</title>
<a xlink:href="refcount_8h.html" target="_top" xlink:title="refcount.h">
<polygon fill="white" stroke="black" points="796,-580.5 796,-601.5 856,-601.5 856,-580.5 796,-580.5"/>
<text text-anchor="middle" x="826" y="-588.5" font-family="Helvetica,sans-Serif" font-size="10.00">refcount.h</text>
</a>
</g>
<!-- Node41&#45;&gt;Node42 -->
<g id="edge162" class="edge"><title>Node41&#45;&gt;Node42</title>
<path fill="none" stroke="midnightblue" d="M826,-638.362C826,-630.922 826,-620.743 826,-611.728"/>
<polygon fill="midnightblue" stroke="midnightblue" points="829.5,-611.571 826,-601.571 822.5,-611.571 829.5,-611.571"/>
</g>
<!-- Node43 -->
<g id="node127" class="node"><title>Node43</title>
<a xlink:href="sets_8h.html" target="_top" xlink:title="sets.h">
<polygon fill="white" stroke="black" points="672,-580.5 672,-601.5 716,-601.5 716,-580.5 672,-580.5"/>
<text text-anchor="middle" x="694" y="-588.5" font-family="Helvetica,sans-Serif" font-size="10.00">sets.h</text>
</a>
</g>
<!-- Node41&#45;&gt;Node43 -->
<g id="edge168" class="edge"><title>Node41&#45;&gt;Node43</title>
<path fill="none" stroke="midnightblue" d="M802.096,-638.497C780.678,-629.086 749.11,-615.215 725.611,-604.89"/>
<polygon fill="midnightblue" stroke="midnightblue" points="726.969,-601.664 716.406,-600.845 724.153,-608.072 726.969,-601.664"/>
</g>
<!-- Node42&#45;&gt;Node24 -->
<g id="edge166" class="edge"><title>Node42&#45;&gt;Node24</title>
<path fill="none" stroke="midnightblue" d="M795.616,-581.422C765.237,-571.847 718.269,-557.041 684.264,-546.322"/>
<polygon fill="midnightblue" stroke="midnightblue" points="685.19,-542.945 674.601,-543.276 683.086,-549.621 685.19,-542.945"/>
</g>
<!-- Node42&#45;&gt;Node34 -->
<g id="edge164" class="edge"><title>Node42&#45;&gt;Node34</title>
<path fill="none" stroke="midnightblue" d="M832.207,-580.419C847.169,-553.881 884,-481.958 884,-417 884,-417 884,-417 884,-359 884,-230.807 709.075,-161.797 630.937,-137.365"/>
<polygon fill="midnightblue" stroke="midnightblue" points="631.608,-133.911 621.022,-134.343 629.567,-140.607 631.608,-133.911"/>
</g>
<!-- Node43&#45;&gt;Node24 -->
<g id="edge172" class="edge"><title>Node43&#45;&gt;Node24</title>
<path fill="none" stroke="midnightblue" d="M684.462,-580.362C677.132,-572.186 666.837,-560.702 658.219,-551.091"/>
<polygon fill="midnightblue" stroke="midnightblue" points="660.759,-548.68 651.477,-543.571 655.547,-553.353 660.759,-548.68"/>
</g>
<!-- Node43&#45;&gt;Node37 -->
<g id="edge170" class="edge"><title>Node43&#45;&gt;Node37</title>
<path fill="none" stroke="midnightblue" d="M671.936,-582.69C647.352,-573.431 607.18,-558.302 577.612,-547.166"/>
<polygon fill="midnightblue" stroke="midnightblue" points="578.621,-543.806 568.029,-543.556 576.154,-550.356 578.621,-543.806"/>
</g>
</g>
</svg>
