<?xml version="1.0" encoding="UTF-8" standalone="no"?>
<!DOCTYPE svg PUBLIC "-//W3C//DTD SVG 1.1//EN"
 "http://www.w3.org/Graphics/SVG/1.1/DTD/svg11.dtd">
<!-- Generated by graphviz version 2.26.0 (20091210.2329)
 -->
<!-- Title: elasticpropsel.h Pages: 1 -->
<svg width="296pt" height="88pt"
 viewBox="0.00 0.00 296.00 88.00" xmlns="http://www.w3.org/2000/svg" xmlns:xlink="http://www.w3.org/1999/xlink">
<g id="graph1" class="graph" transform="scale(1 1) rotate(0) translate(4 84)">
<title>elasticpropsel.h</title>
<polygon fill="white" stroke="white" points="-4,5 -4,-84 293,-84 293,5 -4,5"/>
<!-- Node1 -->
<g id="node1" class="node"><title>Node1</title>
<polygon fill="#bfbfbf" stroke="black" points="101.5,-58.5 101.5,-79.5 186.5,-79.5 186.5,-58.5 101.5,-58.5"/>
<text text-anchor="middle" x="144" y="-66.5" font-family="Helvetica,sans-Serif" font-size="10.00">elasticpropsel.h</text>
</g>
<!-- Node2 -->
<g id="node3" class="node"><title>Node2</title>
<a xlink:href="stratlayermodel_8h.html" target="_top" xlink:title="stratlayermodel.h">
<polygon fill="white" stroke="black" points="0,-0.5 0,-21.5 92,-21.5 92,-0.5 0,-0.5"/>
<text text-anchor="middle" x="46" y="-8.5" font-family="Helvetica,sans-Serif" font-size="10.00">stratlayermodel.h</text>
</a>
</g>
<!-- Node1&#45;&gt;Node2 -->
<g id="edge2" class="edge"><title>Node1&#45;&gt;Node2</title>
<path fill="none" stroke="midnightblue" d="M117.136,-53.1009C100.18,-43.0658 78.7469,-30.3808 63.8608,-21.5707"/>
<polygon fill="midnightblue" stroke="midnightblue" points="115.637,-56.2807 126.025,-58.3619 119.202,-50.2566 115.637,-56.2807"/>
</g>
<!-- Node3 -->
<g id="node5" class="node"><title>Node3</title>
<a xlink:href="stratsynth_8h.html" target="_top" xlink:title="stratsynth.h">
<polygon fill="white" stroke="black" points="110,-0.5 110,-21.5 178,-21.5 178,-0.5 110,-0.5"/>
<text text-anchor="middle" x="144" y="-8.5" font-family="Helvetica,sans-Serif" font-size="10.00">stratsynth.h</text>
</a>
</g>
<!-- Node1&#45;&gt;Node3 -->
<g id="edge4" class="edge"><title>Node1&#45;&gt;Node3</title>
<path fill="none" stroke="midnightblue" d="M144,-48.1906C144,-39.1684 144,-28.9941 144,-21.5707"/>
<polygon fill="midnightblue" stroke="midnightblue" points="140.5,-48.3619 144,-58.3619 147.5,-48.3619 140.5,-48.3619"/>
</g>
<!-- Node4 -->
<g id="node7" class="node"><title>Node4</title>
<a xlink:href="uielasticpropsel_8h.html" target="_top" xlink:title="uielasticpropsel.h">
<polygon fill="white" stroke="black" points="196,-0.5 196,-21.5 288,-21.5 288,-0.5 196,-0.5"/>
<text text-anchor="middle" x="242" y="-8.5" font-family="Helvetica,sans-Serif" font-size="10.00">uielasticpropsel.h</text>
</a>
</g>
<!-- Node1&#45;&gt;Node4 -->
<g id="edge6" class="edge"><title>Node1&#45;&gt;Node4</title>
<path fill="none" stroke="midnightblue" d="M170.864,-53.1009C187.82,-43.0658 209.253,-30.3808 224.139,-21.5707"/>
<polygon fill="midnightblue" stroke="midnightblue" points="168.798,-50.2566 161.975,-58.3619 172.363,-56.2807 168.798,-50.2566"/>
</g>
</g>
</svg>
