<?xml version="1.0" encoding="UTF-8" standalone="no"?>
<!DOCTYPE svg PUBLIC "-//W3C//DTD SVG 1.1//EN"
 "http://www.w3.org/Graphics/SVG/1.1/DTD/svg11.dtd">
<!-- Generated by graphviz version 2.26.0 (20091210.2329)
 -->
<!-- Title: emhorizonpreload.h Pages: 1 -->
<svg width="851pt" height="726pt"
 viewBox="0.00 0.00 851.36 726.00" xmlns="http://www.w3.org/2000/svg" xmlns:xlink="http://www.w3.org/1999/xlink">
<g id="graph1" class="graph" transform="scale(1 1) rotate(0) translate(4 722)">
<title>emhorizonpreload.h</title>
<polygon fill="white" stroke="white" points="-4,5 -4,-722 848.361,-722 848.361,5 -4,5"/>
<!-- Node1 -->
<g id="node1" class="node"><title>Node1</title>
<polygon fill="#bfbfbf" stroke="black" points="376.861,-696.5 376.861,-717.5 477.861,-717.5 477.861,-696.5 376.861,-696.5"/>
<text text-anchor="middle" x="427.361" y="-704.5" font-family="Helvetica,sans-Serif" font-size="10.00">emhorizonpreload.h</text>
</g>
<!-- Node2 -->
<g id="node3" class="node"><title>Node2</title>
<polygon fill="white" stroke="#bfbfbf" points="258.361,-638.5 258.361,-659.5 350.361,-659.5 350.361,-638.5 258.361,-638.5"/>
<text text-anchor="middle" x="304.361" y="-646.5" font-family="Helvetica,sans-Serif" font-size="10.00">earthmodelmod.h</text>
</g>
<!-- Node1&#45;&gt;Node2 -->
<g id="edge2" class="edge"><title>Node1&#45;&gt;Node2</title>
<path fill="none" stroke="midnightblue" d="M405.087,-696.497C385.79,-687.397 357.649,-674.127 336.013,-663.925"/>
<polygon fill="midnightblue" stroke="midnightblue" points="337.423,-660.721 326.886,-659.621 334.438,-667.052 337.423,-660.721"/>
</g>
<!-- Node3 -->
<g id="node5" class="node"><title>Node3</title>
<a xlink:href="callback_8h.html" target="_top" xlink:title="callback.h">
<polygon fill="white" stroke="black" points="367.861,-638.5 367.861,-659.5 428.861,-659.5 428.861,-638.5 367.861,-638.5"/>
<text text-anchor="middle" x="398.361" y="-646.5" font-family="Helvetica,sans-Serif" font-size="10.00">callback.h</text>
</a>
</g>
<!-- Node1&#45;&gt;Node3 -->
<g id="edge4" class="edge"><title>Node1&#45;&gt;Node3</title>
<path fill="none" stroke="midnightblue" d="M422.042,-696.362C418.159,-688.595 412.783,-677.843 408.134,-668.546"/>
<polygon fill="midnightblue" stroke="midnightblue" points="411.249,-666.95 403.647,-659.571 404.988,-670.08 411.249,-666.95"/>
</g>
<!-- Node32 -->
<g id="node82" class="node"><title>Node32</title>
<a xlink:href="typeset_8h.html" target="_top" xlink:title="typeset.h">
<polygon fill="white" stroke="black" points="404.861,-522.5 404.861,-543.5 461.861,-543.5 461.861,-522.5 404.861,-522.5"/>
<text text-anchor="middle" x="433.361" y="-530.5" font-family="Helvetica,sans-Serif" font-size="10.00">typeset.h</text>
</a>
</g>
<!-- Node1&#45;&gt;Node32 -->
<g id="edge126" class="edge"><title>Node1&#45;&gt;Node32</title>
<path fill="none" stroke="midnightblue" d="M430.315,-696.276C432.758,-686.816 436.035,-672.611 437.361,-660 441.284,-622.711 438.235,-578.954 435.742,-553.755"/>
<polygon fill="midnightblue" stroke="midnightblue" points="439.198,-553.148 434.663,-543.573 432.237,-553.886 439.198,-553.148"/>
</g>
<!-- Node34 -->
<g id="node92" class="node"><title>Node34</title>
<a xlink:href="bufstringset_8h.html" target="_top" xlink:title="bufstringset.h">
<polygon fill="white" stroke="black" points="694.361,-638.5 694.361,-659.5 770.361,-659.5 770.361,-638.5 694.361,-638.5"/>
<text text-anchor="middle" x="732.361" y="-646.5" font-family="Helvetica,sans-Serif" font-size="10.00">bufstringset.h</text>
</a>
</g>
<!-- Node1&#45;&gt;Node34 -->
<g id="edge116" class="edge"><title>Node1&#45;&gt;Node34</title>
<path fill="none" stroke="midnightblue" d="M478.068,-697.357C535.316,-686.471 627.787,-668.886 684.035,-658.19"/>
<polygon fill="midnightblue" stroke="midnightblue" points="684.93,-661.583 694.1,-656.276 683.622,-654.706 684.93,-661.583"/>
</g>
<!-- Node4 -->
<g id="node7" class="node"><title>Node4</title>
<polygon fill="white" stroke="#bfbfbf" points="479.861,-0.5 479.861,-21.5 546.861,-21.5 546.861,-0.5 479.861,-0.5"/>
<text text-anchor="middle" x="513.361" y="-8.5" font-family="Helvetica,sans-Serif" font-size="10.00">basicmod.h</text>
</g>
<!-- Node3&#45;&gt;Node4 -->
<g id="edge6" class="edge"><title>Node3&#45;&gt;Node4</title>
<path fill="none" stroke="midnightblue" d="M428.953,-639.385C523.605,-609.203 805.361,-515.921 805.361,-475 805.361,-475 805.361,-475 805.361,-127 805.361,-86.3607 780.477,-78.4557 745.361,-58 713.956,-39.7057 615.194,-24.2543 557.146,-16.4509"/>
<polygon fill="midnightblue" stroke="midnightblue" points="557.526,-12.9708 547.154,-15.129 556.608,-19.9104 557.526,-12.9708"/>
</g>
<!-- Node5 -->
<g id="node9" class="node"><title>Node5</title>
<a xlink:href="refcount_8h.html" target="_top" xlink:title="refcount.h">
<polygon fill="white" stroke="black" points="302.361,-580.5 302.361,-601.5 362.361,-601.5 362.361,-580.5 302.361,-580.5"/>
<text text-anchor="middle" x="332.361" y="-588.5" font-family="Helvetica,sans-Serif" font-size="10.00">refcount.h</text>
</a>
</g>
<!-- Node3&#45;&gt;Node5 -->
<g id="edge8" class="edge"><title>Node3&#45;&gt;Node5</title>
<path fill="none" stroke="midnightblue" d="M386.256,-638.362C376.673,-629.941 363.098,-618.011 351.969,-608.231"/>
<polygon fill="midnightblue" stroke="midnightblue" points="354.212,-605.543 344.39,-601.571 349.591,-610.801 354.212,-605.543"/>
</g>
<!-- Node31 -->
<g id="node80" class="node"><title>Node31</title>
<a xlink:href="sets_8h.html" target="_top" xlink:title="sets.h">
<polygon fill="white" stroke="black" points="380.361,-580.5 380.361,-601.5 424.361,-601.5 424.361,-580.5 380.361,-580.5"/>
<text text-anchor="middle" x="402.361" y="-588.5" font-family="Helvetica,sans-Serif" font-size="10.00">sets.h</text>
</a>
</g>
<!-- Node3&#45;&gt;Node31 -->
<g id="edge98" class="edge"><title>Node3&#45;&gt;Node31</title>
<path fill="none" stroke="midnightblue" d="M399.095,-638.362C399.608,-630.922 400.31,-620.743 400.932,-611.728"/>
<polygon fill="midnightblue" stroke="midnightblue" points="404.436,-611.788 401.632,-601.571 397.453,-611.306 404.436,-611.788"/>
</g>
<!-- Node33 -->
<g id="node87" class="node"><title>Node33</title>
<a xlink:href="threadlock_8h.html" target="_top" xlink:title="threadlock.h">
<polygon fill="white" stroke="black" points="128.361,-116.5 128.361,-137.5 198.361,-137.5 198.361,-116.5 128.361,-116.5"/>
<text text-anchor="middle" x="163.361" y="-124.5" font-family="Helvetica,sans-Serif" font-size="10.00">threadlock.h</text>
</a>
</g>
<!-- Node3&#45;&gt;Node33 -->
<g id="edge108" class="edge"><title>Node3&#45;&gt;Node33</title>
<path fill="none" stroke="midnightblue" d="M367.653,-639.745C281.77,-613.755 45.3614,-541.447 45.3614,-533 45.3614,-533 45.3614,-533 45.3614,-359 45.3614,-270.777 113.992,-182.184 146.572,-145.097"/>
<polygon fill="midnightblue" stroke="midnightblue" points="149.234,-147.371 153.301,-137.588 144.021,-142.7 149.234,-147.371"/>
</g>
<!-- Node6 -->
<g id="node11" class="node"><title>Node6</title>
<a xlink:href="atomic_8h.html" target="_top" xlink:title="atomic.h">
<polygon fill="white" stroke="black" points="56.3614,-116.5 56.3614,-137.5 110.361,-137.5 110.361,-116.5 56.3614,-116.5"/>
<text text-anchor="middle" x="83.3614" y="-124.5" font-family="Helvetica,sans-Serif" font-size="10.00">atomic.h</text>
</a>
</g>
<!-- Node5&#45;&gt;Node6 -->
<g id="edge10" class="edge"><title>Node5&#45;&gt;Node6</title>
<path fill="none" stroke="midnightblue" d="M302.326,-583.749C236.1,-566.885 83.3614,-522.809 83.3614,-475 83.3614,-475 83.3614,-475 83.3614,-243 83.3614,-209.598 83.3614,-170.785 83.3614,-147.594"/>
<polygon fill="midnightblue" stroke="midnightblue" points="86.8615,-147.556 83.3614,-137.556 79.8615,-147.556 86.8615,-147.556"/>
</g>
<!-- Node14 -->
<g id="node30" class="node"><title>Node14</title>
<a xlink:href="objectset_8h.html" target="_top" xlink:title="objectset.h">
<polygon fill="white" stroke="black" points="322.861,-522.5 322.861,-543.5 387.861,-543.5 387.861,-522.5 322.861,-522.5"/>
<text text-anchor="middle" x="355.361" y="-530.5" font-family="Helvetica,sans-Serif" font-size="10.00">objectset.h</text>
</a>
</g>
<!-- Node5&#45;&gt;Node14 -->
<g id="edge32" class="edge"><title>Node5&#45;&gt;Node14</title>
<path fill="none" stroke="midnightblue" d="M336.58,-580.362C339.595,-572.758 343.745,-562.294 347.377,-553.135"/>
<polygon fill="midnightblue" stroke="midnightblue" points="350.737,-554.157 351.17,-543.571 344.23,-551.576 350.737,-554.157"/>
</g>
<!-- Node6&#45;&gt;Node4 -->
<g id="edge12" class="edge"><title>Node6&#45;&gt;Node4</title>
<path fill="none" stroke="midnightblue" d="M88.3963,-116.456C96.5051,-100.761 114.046,-71.6413 138.361,-58 166.772,-42.0613 376.783,-22.5668 469.537,-14.6255"/>
<polygon fill="midnightblue" stroke="midnightblue" points="470.054,-18.0943 479.722,-13.7597 469.461,-11.1195 470.054,-18.0943"/>
</g>
<!-- Node7 -->
<g id="node14" class="node"><title>Node7</title>
<a xlink:href="commondefs_8h.html" target="_top" xlink:title="commondefs.h">
<polygon fill="white" stroke="black" points="222.861,-58.5 222.861,-79.5 303.861,-79.5 303.861,-58.5 222.861,-58.5"/>
<text text-anchor="middle" x="263.361" y="-66.5" font-family="Helvetica,sans-Serif" font-size="10.00">commondefs.h</text>
</a>
</g>
<!-- Node6&#45;&gt;Node7 -->
<g id="edge14" class="edge"><title>Node6&#45;&gt;Node7</title>
<path fill="none" stroke="midnightblue" d="M110.7,-118.191C139.97,-108.759 186.796,-93.6712 220.876,-82.6896"/>
<polygon fill="midnightblue" stroke="midnightblue" points="222.123,-85.9653 230.567,-79.567 219.976,-79.3026 222.123,-85.9653"/>
</g>
<!-- Node11 -->
<g id="node23" class="node"><title>Node11</title>
<a xlink:href="plftypes_8h.html" target="_top" xlink:title="plftypes.h">
<polygon fill="white" stroke="black" points="146.861,-58.5 146.861,-79.5 205.861,-79.5 205.861,-58.5 146.861,-58.5"/>
<text text-anchor="middle" x="176.361" y="-66.5" font-family="Helvetica,sans-Serif" font-size="10.00">plftypes.h</text>
</a>
</g>
<!-- Node6&#45;&gt;Node11 -->
<g id="edge24" class="edge"><title>Node6&#45;&gt;Node11</title>
<path fill="none" stroke="midnightblue" d="M100.419,-116.362C114.446,-107.614 134.546,-95.0786 150.544,-85.1015"/>
<polygon fill="midnightblue" stroke="midnightblue" points="152.779,-87.8323 159.412,-79.5707 149.075,-81.8927 152.779,-87.8323"/>
</g>
<!-- Node13 -->
<g id="node28" class="node"><title>Node13</title>
<polygon fill="white" stroke="#bfbfbf" points="24.8614,-58.5 24.8614,-79.5 91.8614,-79.5 91.8614,-58.5 24.8614,-58.5"/>
<text text-anchor="middle" x="58.3614" y="-66.5" font-family="Helvetica,sans-Serif" font-size="10.00">odversion.h</text>
</g>
<!-- Node6&#45;&gt;Node13 -->
<g id="edge30" class="edge"><title>Node6&#45;&gt;Node13</title>
<path fill="none" stroke="midnightblue" d="M78.7761,-116.362C75.4634,-108.677 70.891,-98.0686 66.9131,-88.8399"/>
<polygon fill="midnightblue" stroke="midnightblue" points="70.0903,-87.3685 62.9178,-79.5707 63.662,-90.1393 70.0903,-87.3685"/>
</g>
<!-- Node7&#45;&gt;Node4 -->
<g id="edge16" class="edge"><title>Node7&#45;&gt;Node4</title>
<path fill="none" stroke="midnightblue" d="M304.085,-59.5522C349.587,-48.9956 422.978,-31.9689 469.657,-21.1393"/>
<polygon fill="midnightblue" stroke="midnightblue" points="470.53,-24.5301 479.48,-18.8606 468.947,-17.7112 470.53,-24.5301"/>
</g>
<!-- Node8 -->
<g id="node17" class="node"><title>Node8</title>
<a xlink:href="plfdefs_8h.html" target="_top" xlink:title="plfdefs.h">
<polygon fill="white" stroke="black" points="205.361,-0.5 205.361,-21.5 259.361,-21.5 259.361,-0.5 205.361,-0.5"/>
<text text-anchor="middle" x="232.361" y="-8.5" font-family="Helvetica,sans-Serif" font-size="10.00">plfdefs.h</text>
</a>
</g>
<!-- Node7&#45;&gt;Node8 -->
<g id="edge18" class="edge"><title>Node7&#45;&gt;Node8</title>
<path fill="none" stroke="midnightblue" d="M257.676,-58.3619C253.524,-50.5949 247.777,-39.8426 242.808,-30.5458"/>
<polygon fill="midnightblue" stroke="midnightblue" points="245.812,-28.7401 238.011,-21.5707 239.638,-32.0398 245.812,-28.7401"/>
</g>
<!-- Node9 -->
<g id="node19" class="node"><title>Node9</title>
<polygon fill="white" stroke="#bfbfbf" points="128.861,-0.5 128.861,-21.5 187.861,-21.5 187.861,-0.5 128.861,-0.5"/>
<text text-anchor="middle" x="158.361" y="-8.5" font-family="Helvetica,sans-Serif" font-size="10.00">stdexcept</text>
</g>
<!-- Node7&#45;&gt;Node9 -->
<g id="edge20" class="edge"><title>Node7&#45;&gt;Node9</title>
<path fill="none" stroke="midnightblue" d="M244.103,-58.3619C227.896,-49.4094 204.509,-36.4908 186.252,-26.4064"/>
<polygon fill="midnightblue" stroke="midnightblue" points="187.944,-23.3422 177.498,-21.5707 184.559,-29.4696 187.944,-23.3422"/>
</g>
<!-- Node10 -->
<g id="node21" class="node"><title>Node10</title>
<polygon fill="white" stroke="#bfbfbf" points="276.861,-0.5 276.861,-21.5 311.861,-21.5 311.861,-0.5 276.861,-0.5"/>
<text text-anchor="middle" x="294.361" y="-8.5" font-family="Helvetica,sans-Serif" font-size="10.00">new</text>
</g>
<!-- Node7&#45;&gt;Node10 -->
<g id="edge22" class="edge"><title>Node7&#45;&gt;Node10</title>
<path fill="none" stroke="midnightblue" d="M269.047,-58.3619C273.199,-50.5949 278.946,-39.8426 283.915,-30.5458"/>
<polygon fill="midnightblue" stroke="midnightblue" points="287.085,-32.0398 288.712,-21.5707 280.911,-28.7401 287.085,-32.0398"/>
</g>
<!-- Node11&#45;&gt;Node8 -->
<g id="edge26" class="edge"><title>Node11&#45;&gt;Node8</title>
<path fill="none" stroke="midnightblue" d="M186.633,-58.3619C194.606,-50.1043 205.836,-38.4725 215.172,-28.8029"/>
<polygon fill="midnightblue" stroke="midnightblue" points="217.727,-31.1958 222.155,-21.5707 212.691,-26.3336 217.727,-31.1958"/>
</g>
<!-- Node12 -->
<g id="node26" class="node"><title>Node12</title>
<polygon fill="white" stroke="#bfbfbf" points="62.8614,-0.5 62.8614,-21.5 111.861,-21.5 111.861,-0.5 62.8614,-0.5"/>
<text text-anchor="middle" x="87.3614" y="-8.5" font-family="Helvetica,sans-Serif" font-size="10.00">stdint.h</text>
</g>
<!-- Node11&#45;&gt;Node12 -->
<g id="edge28" class="edge"><title>Node11&#45;&gt;Node12</title>
<path fill="none" stroke="midnightblue" d="M160.037,-58.3619C146.614,-49.6138 127.379,-37.0786 112.069,-27.1015"/>
<polygon fill="midnightblue" stroke="midnightblue" points="113.871,-24.0982 103.582,-21.5707 110.049,-29.9628 113.871,-24.0982"/>
</g>
<!-- Node15 -->
<g id="node32" class="node"><title>Node15</title>
<a xlink:href="odset_8h.html" target="_top" xlink:title="odset.h">
<polygon fill="white" stroke="black" points="408.861,-464.5 408.861,-485.5 457.861,-485.5 457.861,-464.5 408.861,-464.5"/>
<text text-anchor="middle" x="433.361" y="-472.5" font-family="Helvetica,sans-Serif" font-size="10.00">odset.h</text>
</a>
</g>
<!-- Node14&#45;&gt;Node15 -->
<g id="edge34" class="edge"><title>Node14&#45;&gt;Node15</title>
<path fill="none" stroke="midnightblue" d="M369.668,-522.362C381.213,-513.777 397.662,-501.546 410.952,-491.664"/>
<polygon fill="midnightblue" stroke="midnightblue" points="413.21,-494.346 419.146,-485.571 409.033,-488.729 413.21,-494.346"/>
</g>
<!-- Node21 -->
<g id="node49" class="node"><title>Node21</title>
<a xlink:href="vectoraccess_8h.html" target="_top" xlink:title="vectoraccess.h">
<polygon fill="white" stroke="black" points="296.861,-464.5 296.861,-485.5 379.861,-485.5 379.861,-464.5 296.861,-464.5"/>
<text text-anchor="middle" x="338.361" y="-472.5" font-family="Helvetica,sans-Serif" font-size="10.00">vectoraccess.h</text>
</a>
</g>
<!-- Node14&#45;&gt;Node21 -->
<g id="edge56" class="edge"><title>Node14&#45;&gt;Node21</title>
<path fill="none" stroke="midnightblue" d="M352.243,-522.362C350.039,-514.84 347.013,-504.519 344.35,-495.431"/>
<polygon fill="midnightblue" stroke="midnightblue" points="347.631,-494.182 341.46,-485.571 340.914,-496.151 347.631,-494.182"/>
</g>
<!-- Node16 -->
<g id="node34" class="node"><title>Node16</title>
<a xlink:href="gendefs_8h.html" target="_top" xlink:title="gendefs.h">
<polygon fill="white" stroke="black" points="361.861,-174.5 361.861,-195.5 420.861,-195.5 420.861,-174.5 361.861,-174.5"/>
<text text-anchor="middle" x="391.361" y="-182.5" font-family="Helvetica,sans-Serif" font-size="10.00">gendefs.h</text>
</a>
</g>
<!-- Node15&#45;&gt;Node16 -->
<g id="edge36" class="edge"><title>Node15&#45;&gt;Node16</title>
<path fill="none" stroke="midnightblue" d="M435.032,-464.476C438.109,-444.148 444.361,-398.042 444.361,-359 444.361,-359 444.361,-359 444.361,-301 444.361,-264.026 421.809,-225.93 406.127,-203.908"/>
<polygon fill="midnightblue" stroke="midnightblue" points="408.87,-201.731 400.113,-195.766 403.239,-205.89 408.87,-201.731"/>
</g>
<!-- Node17 -->
<g id="node36" class="node"><title>Node17</title>
<a xlink:href="undefval_8h.html" target="_top" xlink:title="undefval.h">
<polygon fill="white" stroke="black" points="320.361,-116.5 320.361,-137.5 382.361,-137.5 382.361,-116.5 320.361,-116.5"/>
<text text-anchor="middle" x="351.361" y="-124.5" font-family="Helvetica,sans-Serif" font-size="10.00">undefval.h</text>
</a>
</g>
<!-- Node16&#45;&gt;Node17 -->
<g id="edge38" class="edge"><title>Node16&#45;&gt;Node17</title>
<path fill="none" stroke="midnightblue" d="M384.025,-174.362C378.555,-166.431 370.94,-155.389 364.438,-145.961"/>
<polygon fill="midnightblue" stroke="midnightblue" points="367.21,-143.816 358.652,-137.571 361.448,-147.79 367.21,-143.816"/>
</g>
<!-- Node18 -->
<g id="node41" class="node"><title>Node18</title>
<a xlink:href="commontypes_8h.html" target="_top" xlink:title="commontypes.h">
<polygon fill="white" stroke="black" points="216.361,-116.5 216.361,-137.5 302.361,-137.5 302.361,-116.5 216.361,-116.5"/>
<text text-anchor="middle" x="259.361" y="-124.5" font-family="Helvetica,sans-Serif" font-size="10.00">commontypes.h</text>
</a>
</g>
<!-- Node16&#45;&gt;Node18 -->
<g id="edge46" class="edge"><title>Node16&#45;&gt;Node18</title>
<path fill="none" stroke="midnightblue" d="M367.457,-174.497C346.562,-165.315 316.005,-151.889 292.706,-141.652"/>
<polygon fill="midnightblue" stroke="midnightblue" points="294.097,-138.44 283.534,-137.621 291.281,-144.848 294.097,-138.44"/>
</g>
<!-- Node19 -->
<g id="node44" class="node"><title>Node19</title>
<a xlink:href="errmsg_8h.html" target="_top" xlink:title="errmsg.h">
<polygon fill="white" stroke="black" points="399.861,-116.5 399.861,-137.5 454.861,-137.5 454.861,-116.5 399.861,-116.5"/>
<text text-anchor="middle" x="427.361" y="-124.5" font-family="Helvetica,sans-Serif" font-size="10.00">errmsg.h</text>
</a>
</g>
<!-- Node16&#45;&gt;Node19 -->
<g id="edge50" class="edge"><title>Node16&#45;&gt;Node19</title>
<path fill="none" stroke="midnightblue" d="M397.964,-174.362C402.836,-166.513 409.6,-155.616 415.411,-146.253"/>
<polygon fill="midnightblue" stroke="midnightblue" points="418.5,-147.913 420.8,-137.571 412.553,-144.221 418.5,-147.913"/>
</g>
<!-- Node17&#45;&gt;Node4 -->
<g id="edge40" class="edge"><title>Node17&#45;&gt;Node4</title>
<path fill="none" stroke="midnightblue" d="M354.421,-116.378C359.259,-101.376 370.055,-74.0273 388.361,-58 411.307,-37.911 443.675,-26.0577 469.724,-19.2805"/>
<polygon fill="midnightblue" stroke="midnightblue" points="470.839,-22.6111 479.726,-16.8426 469.182,-15.8102 470.839,-22.6111"/>
</g>
<!-- Node17&#45;&gt;Node7 -->
<g id="edge42" class="edge"><title>Node17&#45;&gt;Node7</title>
<path fill="none" stroke="midnightblue" d="M335.221,-116.362C321.948,-107.614 302.929,-95.0786 287.791,-85.1015"/>
<polygon fill="midnightblue" stroke="midnightblue" points="289.675,-82.1515 279.4,-79.5707 285.823,-87.9962 289.675,-82.1515"/>
</g>
<!-- Node17&#45;&gt;Node11 -->
<g id="edge44" class="edge"><title>Node17&#45;&gt;Node11</title>
<path fill="none" stroke="midnightblue" d="M320.075,-116.631C290.889,-106.958 247.232,-92.4886 215.698,-82.0373"/>
<polygon fill="midnightblue" stroke="midnightblue" points="216.513,-78.6201 205.919,-78.7964 214.311,-85.2647 216.513,-78.6201"/>
</g>
<!-- Node18&#45;&gt;Node7 -->
<g id="edge48" class="edge"><title>Node18&#45;&gt;Node7</title>
<path fill="none" stroke="midnightblue" d="M260.095,-116.362C260.608,-108.922 261.31,-98.7427 261.932,-89.7276"/>
<polygon fill="midnightblue" stroke="midnightblue" points="265.436,-89.7878 262.632,-79.5707 258.453,-89.3061 265.436,-89.7878"/>
</g>
<!-- Node19&#45;&gt;Node7 -->
<g id="edge52" class="edge"><title>Node19&#45;&gt;Node7</title>
<path fill="none" stroke="midnightblue" d="M399.541,-117.161C373.021,-107.782 332.816,-93.5632 302.958,-83.0038"/>
<polygon fill="midnightblue" stroke="midnightblue" points="303.859,-79.6099 293.264,-79.5754 301.525,-86.2094 303.859,-79.6099"/>
</g>
<!-- Node20 -->
<g id="node47" class="node"><title>Node20</title>
<polygon fill="white" stroke="#bfbfbf" points="396.861,-58.5 396.861,-79.5 447.861,-79.5 447.861,-58.5 396.861,-58.5"/>
<text text-anchor="middle" x="422.361" y="-66.5" font-family="Helvetica,sans-Serif" font-size="10.00">typeinfo</text>
</g>
<!-- Node19&#45;&gt;Node20 -->
<g id="edge54" class="edge"><title>Node19&#45;&gt;Node20</title>
<path fill="none" stroke="midnightblue" d="M426.444,-116.362C425.803,-108.922 424.925,-98.7427 424.148,-89.7276"/>
<polygon fill="midnightblue" stroke="midnightblue" points="427.619,-89.2331 423.273,-79.5707 420.645,-89.8343 427.619,-89.2331"/>
</g>
<!-- Node21&#45;&gt;Node9 -->
<g id="edge96" class="edge"><title>Node21&#45;&gt;Node9</title>
<path fill="none" stroke="midnightblue" d="M296.778,-471.32C233.769,-463.209 121.361,-437.709 121.361,-359 121.361,-359 121.361,-359 121.361,-301 121.361,-183.349 -52.5312,-153.371 16.3614,-58 19.5134,-53.6366 78.1646,-35.2051 119.092,-22.7619"/>
<polygon fill="midnightblue" stroke="midnightblue" points="120.257,-26.0661 128.813,-19.8174 118.228,-19.3667 120.257,-26.0661"/>
</g>
<!-- Node21&#45;&gt;Node16 -->
<g id="edge90" class="edge"><title>Node21&#45;&gt;Node16</title>
<path fill="none" stroke="midnightblue" d="M338.361,-464.444C338.361,-444.062 338.361,-397.868 338.361,-359 338.361,-359 338.361,-359 338.361,-301 338.361,-264.026 360.914,-225.93 376.596,-203.908"/>
<polygon fill="midnightblue" stroke="midnightblue" points="379.483,-205.89 382.61,-195.766 373.853,-201.731 379.483,-205.89"/>
</g>
<!-- Node22 -->
<g id="node51" class="node"><title>Node22</title>
<a xlink:href="debug_8h.html" target="_top" xlink:title="debug.h">
<polygon fill="white" stroke="black" points="365.861,-406.5 365.861,-427.5 416.861,-427.5 416.861,-406.5 365.861,-406.5"/>
<text text-anchor="middle" x="391.361" y="-414.5" font-family="Helvetica,sans-Serif" font-size="10.00">debug.h</text>
</a>
</g>
<!-- Node21&#45;&gt;Node22 -->
<g id="edge58" class="edge"><title>Node21&#45;&gt;Node22</title>
<path fill="none" stroke="midnightblue" d="M348.082,-464.362C355.553,-456.186 366.047,-444.702 374.83,-435.091"/>
<polygon fill="midnightblue" stroke="midnightblue" points="377.54,-437.314 381.702,-427.571 372.373,-432.592 377.54,-437.314"/>
</g>
<!-- Node29 -->
<g id="node75" class="node"><title>Node29</title>
<polygon fill="white" stroke="#bfbfbf" points="192.361,-406.5 192.361,-427.5 248.361,-427.5 248.361,-406.5 192.361,-406.5"/>
<text text-anchor="middle" x="220.361" y="-414.5" font-family="Helvetica,sans-Serif" font-size="10.00">algorithm</text>
</g>
<!-- Node21&#45;&gt;Node29 -->
<g id="edge92" class="edge"><title>Node21&#45;&gt;Node29</title>
<path fill="none" stroke="midnightblue" d="M316.993,-464.497C298.562,-455.438 271.724,-442.246 251.006,-432.063"/>
<polygon fill="midnightblue" stroke="midnightblue" points="252.489,-428.891 241.97,-427.621 249.401,-435.174 252.489,-428.891"/>
</g>
<!-- Node30 -->
<g id="node77" class="node"><title>Node30</title>
<polygon fill="white" stroke="#bfbfbf" points="266.361,-406.5 266.361,-427.5 310.361,-427.5 310.361,-406.5 266.361,-406.5"/>
<text text-anchor="middle" x="288.361" y="-414.5" font-family="Helvetica,sans-Serif" font-size="10.00">vector</text>
</g>
<!-- Node21&#45;&gt;Node30 -->
<g id="edge94" class="edge"><title>Node21&#45;&gt;Node30</title>
<path fill="none" stroke="midnightblue" d="M329.191,-464.362C322.213,-456.268 312.441,-444.932 304.206,-435.38"/>
<polygon fill="midnightblue" stroke="midnightblue" points="306.654,-432.859 297.474,-427.571 301.353,-437.43 306.654,-432.859"/>
</g>
<!-- Node22&#45;&gt;Node4 -->
<g id="edge60" class="edge"><title>Node22&#45;&gt;Node4</title>
<path fill="none" stroke="midnightblue" d="M408.052,-406.403C434.323,-388.272 482.361,-348.609 482.361,-301 482.361,-301 482.361,-301 482.361,-185 482.361,-128.762 498.251,-63.8625 507.278,-31.5299"/>
<polygon fill="midnightblue" stroke="midnightblue" points="510.656,-32.4502 510.044,-21.873 503.926,-30.523 510.656,-32.4502"/>
</g>
<!-- Node22&#45;&gt;Node16 -->
<g id="edge62" class="edge"><title>Node22&#45;&gt;Node16</title>
<path fill="none" stroke="midnightblue" d="M391.361,-406.429C391.361,-370.648 391.361,-253.663 391.361,-205.748"/>
<polygon fill="midnightblue" stroke="midnightblue" points="394.862,-205.633 391.361,-195.634 387.862,-205.634 394.862,-205.633"/>
</g>
<!-- Node23 -->
<g id="node55" class="node"><title>Node23</title>
<a xlink:href="bufstring_8h.html" target="_top" xlink:title="bufstring.h">
<polygon fill="white" stroke="black" points="660.361,-348.5 660.361,-369.5 722.361,-369.5 722.361,-348.5 660.361,-348.5"/>
<text text-anchor="middle" x="691.361" y="-356.5" font-family="Helvetica,sans-Serif" font-size="10.00">bufstring.h</text>
</a>
</g>
<!-- Node22&#45;&gt;Node23 -->
<g id="edge64" class="edge"><title>Node22&#45;&gt;Node23</title>
<path fill="none" stroke="midnightblue" d="M416.939,-412.055C468.884,-402.012 587.128,-379.152 650.101,-366.977"/>
<polygon fill="midnightblue" stroke="midnightblue" points="650.929,-370.382 660.083,-365.047 649.601,-363.509 650.929,-370.382"/>
</g>
<!-- Node23&#45;&gt;Node4 -->
<g id="edge66" class="edge"><title>Node23&#45;&gt;Node4</title>
<path fill="none" stroke="midnightblue" d="M704.6,-348.375C726.374,-329.606 767.361,-288.263 767.361,-243 767.361,-243 767.361,-243 767.361,-127 767.361,-88.8657 748.24,-78.9273 716.361,-58 690.545,-41.0524 608.868,-25.8048 557.325,-17.528"/>
<polygon fill="midnightblue" stroke="midnightblue" points="557.553,-14.0207 547.129,-15.9184 556.461,-20.9351 557.553,-14.0207"/>
</g>
<!-- Node24 -->
<g id="node58" class="node"><title>Node24</title>
<a xlink:href="fixedstring_8h.html" target="_top" xlink:title="fixedstring.h">
<polygon fill="white" stroke="black" points="656.361,-290.5 656.361,-311.5 726.361,-311.5 726.361,-290.5 656.361,-290.5"/>
<text text-anchor="middle" x="691.361" y="-298.5" font-family="Helvetica,sans-Serif" font-size="10.00">fixedstring.h</text>
</a>
</g>
<!-- Node23&#45;&gt;Node24 -->
<g id="edge68" class="edge"><title>Node23&#45;&gt;Node24</title>
<path fill="none" stroke="midnightblue" d="M691.361,-348.362C691.361,-340.922 691.361,-330.743 691.361,-321.728"/>
<polygon fill="midnightblue" stroke="midnightblue" points="694.862,-321.571 691.361,-311.571 687.862,-321.571 694.862,-321.571"/>
</g>
<!-- Node26 -->
<g id="node65" class="node"><title>Node26</title>
<a xlink:href="string2_8h.html" target="_top" xlink:title="string2.h">
<polygon fill="white" stroke="black" points="522.361,-116.5 522.361,-137.5 576.361,-137.5 576.361,-116.5 522.361,-116.5"/>
<text text-anchor="middle" x="549.361" y="-124.5" font-family="Helvetica,sans-Serif" font-size="10.00">string2.h</text>
</a>
</g>
<!-- Node23&#45;&gt;Node26 -->
<g id="edge78" class="edge"><title>Node23&#45;&gt;Node26</title>
<path fill="none" stroke="midnightblue" d="M679.606,-348.153C670.175,-339.07 656.97,-325.466 647.361,-312 607.565,-256.231 573.241,-182.287 557.908,-147.171"/>
<polygon fill="midnightblue" stroke="midnightblue" points="560.947,-145.38 553.774,-137.582 554.519,-148.151 560.947,-145.38"/>
</g>
<!-- Node24&#45;&gt;Node4 -->
<g id="edge70" class="edge"><title>Node24&#45;&gt;Node4</title>
<path fill="none" stroke="midnightblue" d="M697.467,-290.191C708.209,-270.127 729.361,-225.477 729.361,-185 729.361,-185 729.361,-185 729.361,-127 729.361,-91.9903 718.959,-79.5417 691.361,-58 670.573,-41.7733 602.623,-26.9369 556.951,-18.4409"/>
<polygon fill="midnightblue" stroke="midnightblue" points="557.467,-14.9773 547,-16.6242 556.209,-21.8635 557.467,-14.9773"/>
</g>
<!-- Node25 -->
<g id="node61" class="node"><title>Node25</title>
<a xlink:href="odstring_8h.html" target="_top" xlink:title="odstring.h">
<polygon fill="white" stroke="black" points="642.861,-232.5 642.861,-253.5 701.861,-253.5 701.861,-232.5 642.861,-232.5"/>
<text text-anchor="middle" x="672.361" y="-240.5" font-family="Helvetica,sans-Serif" font-size="10.00">odstring.h</text>
</a>
</g>
<!-- Node24&#45;&gt;Node25 -->
<g id="edge72" class="edge"><title>Node24&#45;&gt;Node25</title>
<path fill="none" stroke="midnightblue" d="M687.877,-290.362C685.386,-282.758 681.958,-272.294 678.957,-263.135"/>
<polygon fill="midnightblue" stroke="midnightblue" points="682.263,-261.984 675.824,-253.571 675.611,-264.163 682.263,-261.984"/>
</g>
<!-- Node25&#45;&gt;Node4 -->
<g id="edge74" class="edge"><title>Node25&#45;&gt;Node4</title>
<path fill="none" stroke="midnightblue" d="M676.272,-232.461C686.87,-201.906 712.733,-112.031 672.361,-58 658.474,-39.4134 599.026,-25.5978 556.905,-17.9149"/>
<polygon fill="midnightblue" stroke="midnightblue" points="557.332,-14.4361 546.875,-16.1403 556.112,-21.329 557.332,-14.4361"/>
</g>
<!-- Node25&#45;&gt;Node16 -->
<g id="edge76" class="edge"><title>Node25&#45;&gt;Node16</title>
<path fill="none" stroke="midnightblue" d="M642.821,-236.903C592.014,-226.416 488.062,-204.959 431.011,-193.184"/>
<polygon fill="midnightblue" stroke="midnightblue" points="431.429,-189.697 420.928,-191.103 430.014,-196.552 431.429,-189.697"/>
</g>
<!-- Node26&#45;&gt;Node4 -->
<g id="edge80" class="edge"><title>Node26&#45;&gt;Node4</title>
<path fill="none" stroke="midnightblue" d="M545.203,-116.255C541.602,-106.782 536.358,-92.569 532.361,-80 527.251,-63.9299 522.219,-45.5058 518.619,-31.7403"/>
<polygon fill="midnightblue" stroke="midnightblue" points="521.95,-30.6426 516.064,-21.8334 515.172,-32.3906 521.95,-30.6426"/>
</g>
<!-- Node26&#45;&gt;Node7 -->
<g id="edge84" class="edge"><title>Node26&#45;&gt;Node7</title>
<path fill="none" stroke="midnightblue" d="M522.197,-121.491C474.483,-111.815 374.924,-91.6246 314.138,-79.2974"/>
<polygon fill="midnightblue" stroke="midnightblue" points="314.492,-75.7979 303.995,-77.2405 313.1,-82.6582 314.492,-75.7979"/>
</g>
<!-- Node26&#45;&gt;Node11 -->
<g id="edge82" class="edge"><title>Node26&#45;&gt;Node11</title>
<path fill="none" stroke="midnightblue" d="M522.134,-123.407C452.777,-114.225 271.502,-90.0303 216.18,-80.0157"/>
<polygon fill="midnightblue" stroke="midnightblue" points="216.616,-76.5348 206.13,-78.0518 215.273,-83.4049 216.616,-76.5348"/>
</g>
<!-- Node27 -->
<g id="node70" class="node"><title>Node27</title>
<polygon fill="white" stroke="#bfbfbf" points="540.861,-58.5 540.861,-79.5 589.861,-79.5 589.861,-58.5 540.861,-58.5"/>
<text text-anchor="middle" x="565.361" y="-66.5" font-family="Helvetica,sans-Serif" font-size="10.00">ctype.h</text>
</g>
<!-- Node26&#45;&gt;Node27 -->
<g id="edge86" class="edge"><title>Node26&#45;&gt;Node27</title>
<path fill="none" stroke="midnightblue" d="M552.296,-116.362C554.371,-108.84 557.218,-98.5187 559.725,-89.4308"/>
<polygon fill="midnightblue" stroke="midnightblue" points="563.16,-90.1414 562.445,-79.5707 556.412,-88.2798 563.16,-90.1414"/>
</g>
<!-- Node28 -->
<g id="node72" class="node"><title>Node28</title>
<polygon fill="white" stroke="#bfbfbf" points="607.361,-58.5 607.361,-79.5 663.361,-79.5 663.361,-58.5 607.361,-58.5"/>
<text text-anchor="middle" x="635.361" y="-66.5" font-family="Helvetica,sans-Serif" font-size="10.00">wctype.h</text>
</g>
<!-- Node26&#45;&gt;Node28 -->
<g id="edge88" class="edge"><title>Node26&#45;&gt;Node28</title>
<path fill="none" stroke="midnightblue" d="M565.135,-116.362C577.985,-107.696 596.346,-95.3126 611.071,-85.3819"/>
<polygon fill="midnightblue" stroke="midnightblue" points="613.354,-88.0639 619.688,-79.5707 609.44,-82.2604 613.354,-88.0639"/>
</g>
<!-- Node31&#45;&gt;Node14 -->
<g id="edge106" class="edge"><title>Node31&#45;&gt;Node14</title>
<path fill="none" stroke="midnightblue" d="M393.741,-580.362C387.182,-572.268 377.996,-560.932 370.255,-551.38"/>
<polygon fill="midnightblue" stroke="midnightblue" points="372.942,-549.136 363.927,-543.571 367.504,-553.544 372.942,-549.136"/>
</g>
<!-- Node31&#45;&gt;Node32 -->
<g id="edge100" class="edge"><title>Node31&#45;&gt;Node32</title>
<path fill="none" stroke="midnightblue" d="M408.047,-580.362C412.199,-572.595 417.946,-561.843 422.915,-552.546"/>
<polygon fill="midnightblue" stroke="midnightblue" points="426.085,-554.04 427.712,-543.571 419.911,-550.74 426.085,-554.04"/>
</g>
<!-- Node32&#45;&gt;Node15 -->
<g id="edge102" class="edge"><title>Node32&#45;&gt;Node15</title>
<path fill="none" stroke="midnightblue" d="M433.361,-522.362C433.361,-514.922 433.361,-504.743 433.361,-495.728"/>
<polygon fill="midnightblue" stroke="midnightblue" points="436.862,-495.571 433.361,-485.571 429.862,-495.571 436.862,-495.571"/>
</g>
<!-- Node32&#45;&gt;Node21 -->
<g id="edge104" class="edge"><title>Node32&#45;&gt;Node21</title>
<path fill="none" stroke="midnightblue" d="M415.937,-522.362C401.474,-513.532 380.692,-500.844 364.277,-490.822"/>
<polygon fill="midnightblue" stroke="midnightblue" points="366.034,-487.794 355.675,-485.571 362.387,-493.769 366.034,-487.794"/>
</g>
<!-- Node33&#45;&gt;Node4 -->
<g id="edge110" class="edge"><title>Node33&#45;&gt;Node4</title>
<path fill="none" stroke="midnightblue" d="M198.553,-116.78C228.917,-107.753 273.834,-93.8987 312.361,-80 336.739,-71.2059 342.001,-66.8416 366.361,-58 400.982,-45.4343 440.807,-32.8119 470.265,-23.8167"/>
<polygon fill="midnightblue" stroke="midnightblue" points="471.283,-27.1653 479.835,-20.9105 469.249,-20.4673 471.283,-27.1653"/>
</g>
<!-- Node33&#45;&gt;Node7 -->
<g id="edge112" class="edge"><title>Node33&#45;&gt;Node7</title>
<path fill="none" stroke="midnightblue" d="M181.703,-116.362C196.927,-107.532 218.803,-94.844 236.081,-84.8224"/>
<polygon fill="midnightblue" stroke="midnightblue" points="238.242,-87.6155 245.136,-79.5707 234.73,-81.5603 238.242,-87.6155"/>
</g>
<!-- Node33&#45;&gt;Node11 -->
<g id="edge114" class="edge"><title>Node33&#45;&gt;Node11</title>
<path fill="none" stroke="midnightblue" d="M165.746,-116.362C167.432,-108.84 169.745,-98.5187 171.782,-89.4308"/>
<polygon fill="midnightblue" stroke="midnightblue" points="175.22,-90.0941 173.992,-79.5707 168.39,-88.563 175.22,-90.0941"/>
</g>
<!-- Node34&#45;&gt;Node4 -->
<g id="edge118" class="edge"><title>Node34&#45;&gt;Node4</title>
<path fill="none" stroke="midnightblue" d="M754.557,-638.384C786.95,-621.163 843.361,-583.869 843.361,-533 843.361,-533 843.361,-533 843.361,-127 843.361,-84.5631 814.767,-78.043 777.361,-58 740.046,-38.0051 622.501,-22.6982 557.559,-15.5104"/>
<polygon fill="midnightblue" stroke="midnightblue" points="557.545,-11.9883 547.225,-14.386 556.788,-18.9472 557.545,-11.9883"/>
</g>
<!-- Node34&#45;&gt;Node23 -->
<g id="edge120" class="edge"><title>Node34&#45;&gt;Node23</title>
<path fill="none" stroke="midnightblue" d="M737.83,-638.448C747.674,-618.444 767.361,-573.388 767.361,-533 767.361,-533 767.361,-533 767.361,-475 767.361,-434.51 734.564,-397.158 712.06,-376.295"/>
<polygon fill="midnightblue" stroke="midnightblue" points="714.387,-373.681 704.6,-369.625 709.722,-378.899 714.387,-373.681"/>
</g>
<!-- Node35 -->
<g id="node96" class="node"><title>Node35</title>
<a xlink:href="manobjectset_8h.html" target="_top" xlink:title="manobjectset.h">
<polygon fill="white" stroke="black" points="656.861,-580.5 656.861,-601.5 739.861,-601.5 739.861,-580.5 656.861,-580.5"/>
<text text-anchor="middle" x="698.361" y="-588.5" font-family="Helvetica,sans-Serif" font-size="10.00">manobjectset.h</text>
</a>
</g>
<!-- Node34&#45;&gt;Node35 -->
<g id="edge122" class="edge"><title>Node34&#45;&gt;Node35</title>
<path fill="none" stroke="midnightblue" d="M726.125,-638.362C721.524,-630.513 715.136,-619.616 709.648,-610.253"/>
<polygon fill="midnightblue" stroke="midnightblue" points="712.635,-608.428 704.558,-601.571 706.596,-611.968 712.635,-608.428"/>
</g>
<!-- Node35&#45;&gt;Node14 -->
<g id="edge124" class="edge"><title>Node35&#45;&gt;Node14</title>
<path fill="none" stroke="midnightblue" d="M656.581,-585.945C600.004,-578.783 495.729,-564.465 398.002,-544.195"/>
<polygon fill="midnightblue" stroke="midnightblue" points="398.465,-540.715 387.959,-542.085 397.026,-547.566 398.465,-540.715"/>
</g>
</g>
</svg>
