<?xml version="1.0" encoding="UTF-8" standalone="no"?>
<!DOCTYPE svg PUBLIC "-//W3C//DTD SVG 1.1//EN"
 "http://www.w3.org/Graphics/SVG/1.1/DTD/svg11.dtd">
<!-- Generated by graphviz version 2.26.0 (20091210.2329)
 -->
<!-- Title: emobject.h Pages: 1 -->
<svg width="1136pt" height="320pt"
 viewBox="0.00 0.00 1136.00 320.00" xmlns="http://www.w3.org/2000/svg" xmlns:xlink="http://www.w3.org/1999/xlink">
<g id="graph1" class="graph" transform="scale(1 1) rotate(0) translate(4 316)">
<title>emobject.h</title>
<polygon fill="white" stroke="white" points="-4,5 -4,-316 1133,-316 1133,5 -4,5"/>
<!-- Node1 -->
<g id="node1" class="node"><title>Node1</title>
<polygon fill="#bfbfbf" stroke="black" points="601.5,-290.5 601.5,-311.5 666.5,-311.5 666.5,-290.5 601.5,-290.5"/>
<text text-anchor="middle" x="634" y="-298.5" font-family="Helvetica,sans-Serif" font-size="10.00">emobject.h</text>
</g>
<!-- Node2 -->
<g id="node3" class="node"><title>Node2</title>
<a xlink:href="embody_8h.html" target="_top" xlink:title="embody.h">
<polygon fill="white" stroke="black" points="300.5,-232.5 300.5,-253.5 359.5,-253.5 359.5,-232.5 300.5,-232.5"/>
<text text-anchor="middle" x="330" y="-240.5" font-family="Helvetica,sans-Serif" font-size="10.00">embody.h</text>
</a>
</g>
<!-- Node1&#45;&gt;Node2 -->
<g id="edge2" class="edge"><title>Node1&#45;&gt;Node2</title>
<path fill="none" stroke="midnightblue" d="M591.535,-292.898C529.015,-280.97 413.767,-258.982 359.598,-248.647"/>
<polygon fill="midnightblue" stroke="midnightblue" points="590.988,-296.357 601.467,-294.793 592.3,-289.481 590.988,-296.357"/>
</g>
<!-- Node3 -->
<g id="node5" class="node"><title>Node3</title>
<a xlink:href="emmarchingcubessurface_8h.html" target="_top" xlink:title="emmarchingcubessurface.h">
<polygon fill="white" stroke="black" points="-0.5,-174.5 -0.5,-195.5 136.5,-195.5 136.5,-174.5 -0.5,-174.5"/>
<text text-anchor="middle" x="68" y="-182.5" font-family="Helvetica,sans-Serif" font-size="10.00">emmarchingcubessurface.h</text>
</a>
</g>
<!-- Node1&#45;&gt;Node3 -->
<g id="edge44" class="edge"><title>Node1&#45;&gt;Node3</title>
<path fill="none" stroke="midnightblue" d="M591.076,-298.982C519.907,-294.911 373.385,-283.443 253,-254 192.731,-239.26 125.206,-210.87 90.8133,-195.501"/>
<polygon fill="midnightblue" stroke="midnightblue" points="591.249,-302.497 601.426,-299.552 591.634,-295.508 591.249,-302.497"/>
</g>
<!-- Node5 -->
<g id="node9" class="node"><title>Node5</title>
<a xlink:href="emrandomposbody_8h.html" target="_top" xlink:title="emrandomposbody.h">
<polygon fill="white" stroke="black" points="153.5,-174.5 153.5,-195.5 260.5,-195.5 260.5,-174.5 153.5,-174.5"/>
<text text-anchor="middle" x="207" y="-182.5" font-family="Helvetica,sans-Serif" font-size="10.00">emrandomposbody.h</text>
</a>
</g>
<!-- Node1&#45;&gt;Node5 -->
<g id="edge46" class="edge"><title>Node1&#45;&gt;Node5</title>
<path fill="none" stroke="midnightblue" d="M591.207,-298.006C511.81,-291.978 344.951,-276.965 292,-254 260.263,-240.236 230.691,-211.168 216.246,-195.513"/>
<polygon fill="midnightblue" stroke="midnightblue" points="591.122,-301.509 601.355,-298.763 591.643,-294.528 591.122,-301.509"/>
</g>
<!-- Node7 -->
<g id="node13" class="node"><title>Node7</title>
<a xlink:href="emsurface_8h.html" target="_top" xlink:title="emsurface.h">
<polygon fill="white" stroke="black" points="553.5,-232.5 553.5,-253.5 624.5,-253.5 624.5,-232.5 553.5,-232.5"/>
<text text-anchor="middle" x="589" y="-240.5" font-family="Helvetica,sans-Serif" font-size="10.00">emsurface.h</text>
</a>
</g>
<!-- Node1&#45;&gt;Node7 -->
<g id="edge12" class="edge"><title>Node1&#45;&gt;Node7</title>
<path fill="none" stroke="midnightblue" d="M619.453,-282.25C612.082,-272.75 603.404,-261.565 597.201,-253.571"/>
<polygon fill="midnightblue" stroke="midnightblue" points="616.851,-284.607 625.746,-290.362 622.382,-280.316 616.851,-284.607"/>
</g>
<!-- Node16 -->
<g id="node33" class="node"><title>Node16</title>
<a xlink:href="emsurfacegeometry_8h.html" target="_top" xlink:title="emsurfacegeometry.h">
<polygon fill="white" stroke="black" points="425.5,-232.5 425.5,-253.5 536.5,-253.5 536.5,-232.5 425.5,-232.5"/>
<text text-anchor="middle" x="481" y="-240.5" font-family="Helvetica,sans-Serif" font-size="10.00">emsurfacegeometry.h</text>
</a>
</g>
<!-- Node1&#45;&gt;Node16 -->
<g id="edge34" class="edge"><title>Node1&#45;&gt;Node16</title>
<path fill="none" stroke="midnightblue" d="M596.737,-286.874C569.587,-276.582 533.395,-262.862 508.759,-253.523"/>
<polygon fill="midnightblue" stroke="midnightblue" points="595.702,-290.225 606.293,-290.497 598.183,-283.679 595.702,-290.225"/>
</g>
<!-- Node17 -->
<g id="node38" class="node"><title>Node17</title>
<a xlink:href="emioobjinfo_8h.html" target="_top" xlink:title="emioobjinfo.h">
<polygon fill="white" stroke="black" points="642,-232.5 642,-253.5 716,-253.5 716,-232.5 642,-232.5"/>
<text text-anchor="middle" x="679" y="-240.5" font-family="Helvetica,sans-Serif" font-size="10.00">emioobjinfo.h</text>
</a>
</g>
<!-- Node1&#45;&gt;Node17 -->
<g id="edge42" class="edge"><title>Node1&#45;&gt;Node17</title>
<path fill="none" stroke="midnightblue" d="M648.547,-282.25C655.918,-272.75 664.596,-261.565 670.799,-253.571"/>
<polygon fill="midnightblue" stroke="midnightblue" points="645.618,-280.316 642.254,-290.362 651.149,-284.607 645.618,-280.316"/>
</g>
<!-- Node18 -->
<g id="node42" class="node"><title>Node18</title>
<a xlink:href="emstickset_8h.html" target="_top" xlink:title="emstickset.h">
<polygon fill="white" stroke="black" points="733.5,-232.5 733.5,-253.5 806.5,-253.5 806.5,-232.5 733.5,-232.5"/>
<text text-anchor="middle" x="770" y="-240.5" font-family="Helvetica,sans-Serif" font-size="10.00">emstickset.h</text>
</a>
</g>
<!-- Node1&#45;&gt;Node18 -->
<g id="edge48" class="edge"><title>Node1&#45;&gt;Node18</title>
<path fill="none" stroke="midnightblue" d="M668.048,-286.479C691.989,-276.269 723.482,-262.839 745.095,-253.621"/>
<polygon fill="midnightblue" stroke="midnightblue" points="666.454,-283.354 658.629,-290.497 669.2,-289.793 666.454,-283.354"/>
</g>
<!-- Node20 -->
<g id="node46" class="node"><title>Node20</title>
<a xlink:href="uiexpfault_8h.html" target="_top" xlink:title="uiexpfault.h">
<polygon fill="white" stroke="black" points="823.5,-232.5 823.5,-253.5 890.5,-253.5 890.5,-232.5 823.5,-232.5"/>
<text text-anchor="middle" x="857" y="-240.5" font-family="Helvetica,sans-Serif" font-size="10.00">uiexpfault.h</text>
</a>
</g>
<!-- Node1&#45;&gt;Node20 -->
<g id="edge52" class="edge"><title>Node1&#45;&gt;Node20</title>
<path fill="none" stroke="midnightblue" d="M676.56,-289.975C713.244,-280.466 767.62,-266.356 815,-254 817.626,-253.315 820.344,-252.606 823.076,-251.891"/>
<polygon fill="midnightblue" stroke="midnightblue" points="675.505,-286.633 666.703,-292.53 677.262,-293.409 675.505,-286.633"/>
</g>
<!-- Node21 -->
<g id="node48" class="node"><title>Node21</title>
<a xlink:href="visemobjdisplay_8h.html" target="_top" xlink:title="visemobjdisplay.h">
<polygon fill="white" stroke="black" points="907.5,-232.5 907.5,-253.5 1002.5,-253.5 1002.5,-232.5 907.5,-232.5"/>
<text text-anchor="middle" x="955" y="-240.5" font-family="Helvetica,sans-Serif" font-size="10.00">visemobjdisplay.h</text>
</a>
</g>
<!-- Node1&#45;&gt;Node21 -->
<g id="edge54" class="edge"><title>Node1&#45;&gt;Node21</title>
<path fill="none" stroke="midnightblue" d="M676.613,-293.691C729.009,-284.647 820.632,-268.645 899,-254 901.727,-253.49 904.527,-252.961 907.353,-252.421"/>
<polygon fill="midnightblue" stroke="midnightblue" points="675.933,-290.257 666.673,-295.405 677.122,-297.155 675.933,-290.257"/>
</g>
<!-- Node24 -->
<g id="node54" class="node"><title>Node24</title>
<a xlink:href="uiseedpropdlg_8h.html" target="_top" xlink:title="uiseedpropdlg.h">
<polygon fill="white" stroke="black" points="1019.5,-232.5 1019.5,-253.5 1104.5,-253.5 1104.5,-232.5 1019.5,-232.5"/>
<text text-anchor="middle" x="1062" y="-240.5" font-family="Helvetica,sans-Serif" font-size="10.00">uiseedpropdlg.h</text>
</a>
</g>
<!-- Node1&#45;&gt;Node24 -->
<g id="edge60" class="edge"><title>Node1&#45;&gt;Node24</title>
<path fill="none" stroke="midnightblue" d="M676.877,-296.902C747.017,-289.918 890.544,-274.458 1011,-254 1013.77,-253.53 1016.61,-253.012 1019.48,-252.466"/>
<polygon fill="midnightblue" stroke="midnightblue" points="676.276,-293.444 666.668,-297.91 676.964,-300.41 676.276,-293.444"/>
</g>
<!-- Node2&#45;&gt;Node3 -->
<g id="edge4" class="edge"><title>Node2&#45;&gt;Node3</title>
<path fill="none" stroke="midnightblue" d="M290.68,-234.296C243.873,-223.934 165.749,-206.639 115.579,-195.533"/>
<polygon fill="midnightblue" stroke="midnightblue" points="289.934,-237.715 300.455,-236.459 291.447,-230.881 289.934,-237.715"/>
</g>
<!-- Node4 -->
<g id="node7" class="node"><title>Node4</title>
<a xlink:href="empolygonbody_8h.html" target="_top" xlink:title="empolygonbody.h">
<polygon fill="white" stroke="black" points="399.5,-174.5 399.5,-195.5 492.5,-195.5 492.5,-174.5 399.5,-174.5"/>
<text text-anchor="middle" x="446" y="-182.5" font-family="Helvetica,sans-Serif" font-size="10.00">empolygonbody.h</text>
</a>
</g>
<!-- Node2&#45;&gt;Node4 -->
<g id="edge6" class="edge"><title>Node2&#45;&gt;Node4</title>
<path fill="none" stroke="midnightblue" d="M360.136,-227.932C380.414,-217.793 406.65,-204.675 424.758,-195.621"/>
<polygon fill="midnightblue" stroke="midnightblue" points="358.386,-224.894 351.007,-232.497 361.516,-231.155 358.386,-224.894"/>
</g>
<!-- Node2&#45;&gt;Node5 -->
<g id="edge8" class="edge"><title>Node2&#45;&gt;Node5</title>
<path fill="none" stroke="midnightblue" d="M298.627,-228.206C277.049,-218.031 248.898,-204.757 229.524,-195.621"/>
<polygon fill="midnightblue" stroke="midnightblue" points="297.188,-231.397 307.726,-232.497 300.174,-225.066 297.188,-231.397"/>
</g>
<!-- Node6 -->
<g id="node11" class="node"><title>Node6</title>
<a xlink:href="emsurfaceposprov_8h.html" target="_top" xlink:title="emsurfaceposprov.h">
<polygon fill="white" stroke="black" points="277.5,-174.5 277.5,-195.5 382.5,-195.5 382.5,-174.5 277.5,-174.5"/>
<text text-anchor="middle" x="330" y="-182.5" font-family="Helvetica,sans-Serif" font-size="10.00">emsurfaceposprov.h</text>
</a>
</g>
<!-- Node2&#45;&gt;Node6 -->
<g id="edge10" class="edge"><title>Node2&#45;&gt;Node6</title>
<path fill="none" stroke="midnightblue" d="M330,-222.191C330,-213.168 330,-202.994 330,-195.571"/>
<polygon fill="midnightblue" stroke="midnightblue" points="326.5,-222.362 330,-232.362 333.5,-222.362 326.5,-222.362"/>
</g>
<!-- Node7&#45;&gt;Node4 -->
<g id="edge30" class="edge"><title>Node7&#45;&gt;Node4</title>
<path fill="none" stroke="midnightblue" d="M553.534,-228.615C528.321,-218.389 495.013,-204.88 472.187,-195.621"/>
<polygon fill="midnightblue" stroke="midnightblue" points="552.521,-231.981 563.104,-232.497 555.153,-225.495 552.521,-231.981"/>
</g>
<!-- Node8 -->
<g id="node15" class="node"><title>Node8</title>
<a xlink:href="emfault_8h.html" target="_top" xlink:title="emfault.h">
<polygon fill="white" stroke="black" points="509.5,-174.5 509.5,-195.5 566.5,-195.5 566.5,-174.5 509.5,-174.5"/>
<text text-anchor="middle" x="538" y="-182.5" font-family="Helvetica,sans-Serif" font-size="10.00">emfault.h</text>
</a>
</g>
<!-- Node7&#45;&gt;Node8 -->
<g id="edge14" class="edge"><title>Node7&#45;&gt;Node8</title>
<path fill="none" stroke="midnightblue" d="M573.023,-224.83C564.562,-215.208 554.468,-203.728 547.295,-195.571"/>
<polygon fill="midnightblue" stroke="midnightblue" points="570.414,-227.163 579.646,-232.362 575.671,-222.541 570.414,-227.163"/>
</g>
<!-- Node12 -->
<g id="node24" class="node"><title>Node12</title>
<a xlink:href="emhorizon_8h.html" target="_top" xlink:title="emhorizon.h">
<polygon fill="white" stroke="black" points="584,-174.5 584,-195.5 654,-195.5 654,-174.5 584,-174.5"/>
<text text-anchor="middle" x="619" y="-182.5" font-family="Helvetica,sans-Serif" font-size="10.00">emhorizon.h</text>
</a>
</g>
<!-- Node7&#45;&gt;Node12 -->
<g id="edge24" class="edge"><title>Node7&#45;&gt;Node12</title>
<path fill="none" stroke="midnightblue" d="M599.152,-223.373C603.965,-214.068 609.524,-203.32 613.532,-195.571"/>
<polygon fill="midnightblue" stroke="midnightblue" points="595.988,-221.872 594.502,-232.362 602.206,-225.088 595.988,-221.872"/>
</g>
<!-- Node15 -->
<g id="node31" class="node"><title>Node15</title>
<a xlink:href="emrowcoliterator_8h.html" target="_top" xlink:title="emrowcoliterator.h">
<polygon fill="white" stroke="black" points="671.5,-174.5 671.5,-195.5 768.5,-195.5 768.5,-174.5 671.5,-174.5"/>
<text text-anchor="middle" x="720" y="-182.5" font-family="Helvetica,sans-Serif" font-size="10.00">emrowcoliterator.h</text>
</a>
</g>
<!-- Node7&#45;&gt;Node15 -->
<g id="edge32" class="edge"><title>Node7&#45;&gt;Node15</title>
<path fill="none" stroke="midnightblue" d="M622.104,-228.343C645.126,-218.15 675.285,-204.798 696.011,-195.621"/>
<polygon fill="midnightblue" stroke="midnightblue" points="620.45,-225.248 612.723,-232.497 623.284,-231.649 620.45,-225.248"/>
</g>
<!-- Node9 -->
<g id="node17" class="node"><title>Node9</title>
<a xlink:href="emfault3d_8h.html" target="_top" xlink:title="emfault3d.h">
<polygon fill="white" stroke="black" points="455,-58.5 455,-79.5 523,-79.5 523,-58.5 455,-58.5"/>
<text text-anchor="middle" x="489" y="-66.5" font-family="Helvetica,sans-Serif" font-size="10.00">emfault3d.h</text>
</a>
</g>
<!-- Node8&#45;&gt;Node9 -->
<g id="edge16" class="edge"><title>Node8&#45;&gt;Node9</title>
<path fill="none" stroke="midnightblue" d="M503.467,-169.482C490.875,-161.917 478.016,-151.491 471,-138 461.062,-118.888 472.949,-93.8803 481.584,-79.8204"/>
<polygon fill="midnightblue" stroke="midnightblue" points="502.057,-172.702 512.5,-174.488 505.45,-166.579 502.057,-172.702"/>
</g>
<!-- Node11 -->
<g id="node21" class="node"><title>Node11</title>
<a xlink:href="emfaultstickset_8h.html" target="_top" xlink:title="emfaultstickset.h">
<polygon fill="white" stroke="black" points="480,-116.5 480,-137.5 572,-137.5 572,-116.5 480,-116.5"/>
<text text-anchor="middle" x="526" y="-124.5" font-family="Helvetica,sans-Serif" font-size="10.00">emfaultstickset.h</text>
</a>
</g>
<!-- Node8&#45;&gt;Node11 -->
<g id="edge20" class="edge"><title>Node8&#45;&gt;Node11</title>
<path fill="none" stroke="midnightblue" d="M533.756,-164.488C531.874,-155.392 529.74,-145.076 528.187,-137.571"/>
<polygon fill="midnightblue" stroke="midnightblue" points="530.345,-165.278 535.799,-174.362 537.2,-163.86 530.345,-165.278"/>
</g>
<!-- Node10 -->
<g id="node19" class="node"><title>Node10</title>
<a xlink:href="emfaultset3d_8h.html" target="_top" xlink:title="emfaultset3d.h">
<polygon fill="white" stroke="black" points="448.5,-0.5 448.5,-21.5 529.5,-21.5 529.5,-0.5 448.5,-0.5"/>
<text text-anchor="middle" x="489" y="-8.5" font-family="Helvetica,sans-Serif" font-size="10.00">emfaultset3d.h</text>
</a>
</g>
<!-- Node9&#45;&gt;Node10 -->
<g id="edge18" class="edge"><title>Node9&#45;&gt;Node10</title>
<path fill="none" stroke="midnightblue" d="M489,-48.1906C489,-39.1684 489,-28.9941 489,-21.5707"/>
<polygon fill="midnightblue" stroke="midnightblue" points="485.5,-48.3619 489,-58.3619 492.5,-48.3619 485.5,-48.3619"/>
</g>
<!-- Node11&#45;&gt;Node9 -->
<g id="edge22" class="edge"><title>Node11&#45;&gt;Node9</title>
<path fill="none" stroke="midnightblue" d="M513.667,-107.667C507.688,-98.2948 500.739,-87.4019 495.743,-79.5707"/>
<polygon fill="midnightblue" stroke="midnightblue" points="510.885,-109.814 519.214,-116.362 516.786,-106.049 510.885,-109.814"/>
</g>
<!-- Node13 -->
<g id="node26" class="node"><title>Node13</title>
<a xlink:href="emhorizon2d_8h.html" target="_top" xlink:title="emhorizon2d.h">
<polygon fill="white" stroke="black" points="590,-116.5 590,-137.5 670,-137.5 670,-116.5 590,-116.5"/>
<text text-anchor="middle" x="630" y="-124.5" font-family="Helvetica,sans-Serif" font-size="10.00">emhorizon2d.h</text>
</a>
</g>
<!-- Node12&#45;&gt;Node13 -->
<g id="edge26" class="edge"><title>Node12&#45;&gt;Node13</title>
<path fill="none" stroke="midnightblue" d="M622.89,-164.488C624.615,-155.392 626.572,-145.076 627.995,-137.571"/>
<polygon fill="midnightblue" stroke="midnightblue" points="619.442,-163.885 621.018,-174.362 626.32,-165.189 619.442,-163.885"/>
</g>
<!-- Node14 -->
<g id="node28" class="node"><title>Node14</title>
<a xlink:href="emhorizon3d_8h.html" target="_top" xlink:title="emhorizon3d.h">
<polygon fill="white" stroke="black" points="688,-116.5 688,-137.5 768,-137.5 768,-116.5 688,-116.5"/>
<text text-anchor="middle" x="728" y="-124.5" font-family="Helvetica,sans-Serif" font-size="10.00">emhorizon3d.h</text>
</a>
</g>
<!-- Node12&#45;&gt;Node14 -->
<g id="edge28" class="edge"><title>Node12&#45;&gt;Node14</title>
<path fill="none" stroke="midnightblue" d="M647.577,-169.794C666.594,-159.675 691.102,-146.634 708.039,-137.621"/>
<polygon fill="midnightblue" stroke="midnightblue" points="645.923,-166.709 638.739,-174.497 649.211,-172.889 645.923,-166.709"/>
</g>
<!-- Node16&#45;&gt;Node4 -->
<g id="edge40" class="edge"><title>Node16&#45;&gt;Node4</title>
<path fill="none" stroke="midnightblue" d="M469.333,-223.667C463.678,-214.295 457.105,-203.402 452.379,-195.571"/>
<polygon fill="midnightblue" stroke="midnightblue" points="466.417,-225.608 474.58,-232.362 472.41,-221.992 466.417,-225.608"/>
</g>
<!-- Node16&#45;&gt;Node8 -->
<g id="edge36" class="edge"><title>Node16&#45;&gt;Node8</title>
<path fill="none" stroke="midnightblue" d="M498.574,-225.118C508.087,-215.438 519.514,-203.81 527.612,-195.571"/>
<polygon fill="midnightblue" stroke="midnightblue" points="495.968,-222.776 491.455,-232.362 500.96,-227.683 495.968,-222.776"/>
</g>
<!-- Node16&#45;&gt;Node12 -->
<g id="edge38" class="edge"><title>Node16&#45;&gt;Node12</title>
<path fill="none" stroke="midnightblue" d="M515.226,-228.615C539.557,-218.389 571.7,-204.88 593.729,-195.621"/>
<polygon fill="midnightblue" stroke="midnightblue" points="513.854,-225.395 505.991,-232.497 516.566,-231.849 513.854,-225.395"/>
</g>
<!-- Node19 -->
<g id="node44" class="node"><title>Node19</title>
<a xlink:href="emsticksettransl_8h.html" target="_top" xlink:title="emsticksettransl.h">
<polygon fill="white" stroke="black" points="785.5,-174.5 785.5,-195.5 882.5,-195.5 882.5,-174.5 785.5,-174.5"/>
<text text-anchor="middle" x="834" y="-182.5" font-family="Helvetica,sans-Serif" font-size="10.00">emsticksettransl.h</text>
</a>
</g>
<!-- Node18&#45;&gt;Node19 -->
<g id="edge50" class="edge"><title>Node18&#45;&gt;Node19</title>
<path fill="none" stroke="midnightblue" d="M789.415,-225.405C800.159,-215.668 813.154,-203.891 822.336,-195.571"/>
<polygon fill="midnightblue" stroke="midnightblue" points="786.798,-223.053 781.739,-232.362 791.499,-228.24 786.798,-223.053"/>
</g>
<!-- Node22 -->
<g id="node50" class="node"><title>Node22</title>
<a xlink:href="vishorizon2ddisplay_8h.html" target="_top" xlink:title="vishorizon2ddisplay.h">
<polygon fill="white" stroke="black" points="900,-174.5 900,-195.5 1010,-195.5 1010,-174.5 900,-174.5"/>
<text text-anchor="middle" x="955" y="-182.5" font-family="Helvetica,sans-Serif" font-size="10.00">vishorizon2ddisplay.h</text>
</a>
</g>
<!-- Node21&#45;&gt;Node22 -->
<g id="edge56" class="edge"><title>Node21&#45;&gt;Node22</title>
<path fill="none" stroke="midnightblue" d="M955,-222.191C955,-213.168 955,-202.994 955,-195.571"/>
<polygon fill="midnightblue" stroke="midnightblue" points="951.5,-222.362 955,-232.362 958.5,-222.362 951.5,-222.362"/>
</g>
<!-- Node23 -->
<g id="node52" class="node"><title>Node23</title>
<a xlink:href="vishorizondisplay_8h.html" target="_top" xlink:title="vishorizondisplay.h">
<polygon fill="white" stroke="black" points="1028,-174.5 1028,-195.5 1128,-195.5 1128,-174.5 1028,-174.5"/>
<text text-anchor="middle" x="1078" y="-182.5" font-family="Helvetica,sans-Serif" font-size="10.00">vishorizondisplay.h</text>
</a>
</g>
<!-- Node21&#45;&gt;Node23 -->
<g id="edge58" class="edge"><title>Node21&#45;&gt;Node23</title>
<path fill="none" stroke="midnightblue" d="M986.373,-228.206C1007.95,-218.031 1036.1,-204.757 1055.48,-195.621"/>
<polygon fill="midnightblue" stroke="midnightblue" points="984.826,-225.066 977.274,-232.497 987.812,-231.397 984.826,-225.066"/>
</g>
</g>
</svg>
