<?xml version="1.0" encoding="UTF-8" standalone="no"?>
<!DOCTYPE svg PUBLIC "-//W3C//DTD SVG 1.1//EN"
 "http://www.w3.org/Graphics/SVG/1.1/DTD/svg11.dtd">
<!-- Generated by graphviz version 2.26.0 (20091210.2329)
 -->
<!-- Title: emposid.h Pages: 1 -->
<svg width="800pt" height="552pt"
 viewBox="0.00 0.00 800.00 552.00" xmlns="http://www.w3.org/2000/svg" xmlns:xlink="http://www.w3.org/1999/xlink">
<g id="graph1" class="graph" transform="scale(1 1) rotate(0) translate(4 548)">
<title>emposid.h</title>
<polygon fill="white" stroke="white" points="-4,5 -4,-548 797,-548 797,5 -4,5"/>
<!-- Node1 -->
<g id="node1" class="node"><title>Node1</title>
<polygon fill="#bfbfbf" stroke="black" points="127,-522.5 127,-543.5 189,-543.5 189,-522.5 127,-522.5"/>
<text text-anchor="middle" x="158" y="-530.5" font-family="Helvetica,sans-Serif" font-size="10.00">emposid.h</text>
</g>
<!-- Node2 -->
<g id="node3" class="node"><title>Node2</title>
<polygon fill="white" stroke="#bfbfbf" points="22,-464.5 22,-485.5 114,-485.5 114,-464.5 22,-464.5"/>
<text text-anchor="middle" x="68" y="-472.5" font-family="Helvetica,sans-Serif" font-size="10.00">earthmodelmod.h</text>
</g>
<!-- Node1&#45;&gt;Node2 -->
<g id="edge2" class="edge"><title>Node1&#45;&gt;Node2</title>
<path fill="none" stroke="midnightblue" d="M141.493,-522.362C127.918,-513.614 108.467,-501.079 92.985,-491.101"/>
<polygon fill="midnightblue" stroke="midnightblue" points="94.7044,-488.046 84.4027,-485.571 90.9125,-493.93 94.7044,-488.046"/>
</g>
<!-- Node3 -->
<g id="node5" class="node"><title>Node3</title>
<a xlink:href="multiid_8h.html" target="_top" xlink:title="multiid.h">
<polygon fill="white" stroke="black" points="131.5,-464.5 131.5,-485.5 184.5,-485.5 184.5,-464.5 131.5,-464.5"/>
<text text-anchor="middle" x="158" y="-472.5" font-family="Helvetica,sans-Serif" font-size="10.00">multiid.h</text>
</a>
</g>
<!-- Node1&#45;&gt;Node3 -->
<g id="edge4" class="edge"><title>Node1&#45;&gt;Node3</title>
<path fill="none" stroke="midnightblue" d="M158,-522.362C158,-514.922 158,-504.743 158,-495.728"/>
<polygon fill="midnightblue" stroke="midnightblue" points="161.5,-495.571 158,-485.571 154.5,-495.571 161.5,-495.571"/>
</g>
<!-- Node23 -->
<g id="node59" class="node"><title>Node23</title>
<a xlink:href="rowcol_8h.html" target="_top" xlink:title="rowcol.h">
<polygon fill="white" stroke="black" points="357.5,-348.5 357.5,-369.5 410.5,-369.5 410.5,-348.5 357.5,-348.5"/>
<text text-anchor="middle" x="384" y="-356.5" font-family="Helvetica,sans-Serif" font-size="10.00">rowcol.h</text>
</a>
</g>
<!-- Node1&#45;&gt;Node23 -->
<g id="edge72" class="edge"><title>Node1&#45;&gt;Node23</title>
<path fill="none" stroke="midnightblue" d="M171.797,-522.377C209.701,-493.195 315.672,-411.607 361.931,-375.992"/>
<polygon fill="midnightblue" stroke="midnightblue" points="364.308,-378.578 370.096,-369.705 360.037,-373.032 364.308,-378.578"/>
</g>
<!-- Node4 -->
<g id="node7" class="node"><title>Node4</title>
<polygon fill="white" stroke="#bfbfbf" points="296.5,-0.5 296.5,-21.5 363.5,-21.5 363.5,-0.5 296.5,-0.5"/>
<text text-anchor="middle" x="330" y="-8.5" font-family="Helvetica,sans-Serif" font-size="10.00">basicmod.h</text>
</g>
<!-- Node3&#45;&gt;Node4 -->
<g id="edge6" class="edge"><title>Node3&#45;&gt;Node4</title>
<path fill="none" stroke="midnightblue" d="M131.283,-464.938C104.308,-454.468 64.8479,-438.203 52,-428 21.929,-404.119 0,-397.4 0,-359 0,-359 0,-359 0,-127 0,-91.5529 10.8055,-78.1041 40,-58 79.1572,-31.0354 215.08,-18.4185 286.064,-13.5524"/>
<polygon fill="midnightblue" stroke="midnightblue" points="286.714,-17.0171 296.461,-12.8634 286.251,-10.0324 286.714,-17.0171"/>
</g>
<!-- Node5 -->
<g id="node9" class="node"><title>Node5</title>
<a xlink:href="compoundkey_8h.html" target="_top" xlink:title="compoundkey.h">
<polygon fill="white" stroke="black" points="115,-406.5 115,-427.5 201,-427.5 201,-406.5 115,-406.5"/>
<text text-anchor="middle" x="158" y="-414.5" font-family="Helvetica,sans-Serif" font-size="10.00">compoundkey.h</text>
</a>
</g>
<!-- Node3&#45;&gt;Node5 -->
<g id="edge8" class="edge"><title>Node3&#45;&gt;Node5</title>
<path fill="none" stroke="midnightblue" d="M158,-464.362C158,-456.922 158,-446.743 158,-437.728"/>
<polygon fill="midnightblue" stroke="midnightblue" points="161.5,-437.571 158,-427.571 154.5,-437.571 161.5,-437.571"/>
</g>
<!-- Node7 -->
<g id="node15" class="node"><title>Node7</title>
<a xlink:href="fixedstring_8h.html" target="_top" xlink:title="fixedstring.h">
<polygon fill="white" stroke="black" points="260,-290.5 260,-311.5 330,-311.5 330,-290.5 260,-290.5"/>
<text text-anchor="middle" x="295" y="-298.5" font-family="Helvetica,sans-Serif" font-size="10.00">fixedstring.h</text>
</a>
</g>
<!-- Node3&#45;&gt;Node7 -->
<g id="edge70" class="edge"><title>Node3&#45;&gt;Node7</title>
<path fill="none" stroke="midnightblue" d="M171.054,-464.452C181.989,-455.33 197.734,-441.517 210,-428 241.303,-393.504 269.649,-346.59 284.371,-320.516"/>
<polygon fill="midnightblue" stroke="midnightblue" points="287.521,-322.053 289.324,-311.612 281.404,-318.65 287.521,-322.053"/>
</g>
<!-- Node20 -->
<g id="node48" class="node"><title>Node20</title>
<a xlink:href="string2_8h.html" target="_top" xlink:title="string2.h">
<polygon fill="white" stroke="black" points="167,-116.5 167,-137.5 221,-137.5 221,-116.5 167,-116.5"/>
<text text-anchor="middle" x="194" y="-124.5" font-family="Helvetica,sans-Serif" font-size="10.00">string2.h</text>
</a>
</g>
<!-- Node3&#45;&gt;Node20 -->
<g id="edge68" class="edge"><title>Node3&#45;&gt;Node20</title>
<path fill="none" stroke="midnightblue" d="M133.136,-464.469C97.9872,-447.718 38,-411.446 38,-359 38,-359 38,-359 38,-243 38,-183.887 111.023,-151.362 157.148,-136.714"/>
<polygon fill="midnightblue" stroke="midnightblue" points="158.275,-140.03 166.827,-133.775 156.241,-133.332 158.275,-140.03"/>
</g>
<!-- Node5&#45;&gt;Node4 -->
<g id="edge10" class="edge"><title>Node5&#45;&gt;Node4</title>
<path fill="none" stroke="midnightblue" d="M143.34,-406.313C119.754,-387.757 76,-347.119 76,-301 76,-301 76,-301 76,-243 76,-160.345 3.74268,-121.21 57,-58 71.6016,-40.6697 212.687,-23.3812 286.093,-15.4671"/>
<polygon fill="midnightblue" stroke="midnightblue" points="286.836,-18.9079 296.409,-14.3686 286.094,-11.9472 286.836,-18.9079"/>
</g>
<!-- Node6 -->
<g id="node12" class="node"><title>Node6</title>
<a xlink:href="bufstring_8h.html" target="_top" xlink:title="bufstring.h">
<polygon fill="white" stroke="black" points="182,-348.5 182,-369.5 244,-369.5 244,-348.5 182,-348.5"/>
<text text-anchor="middle" x="213" y="-356.5" font-family="Helvetica,sans-Serif" font-size="10.00">bufstring.h</text>
</a>
</g>
<!-- Node5&#45;&gt;Node6 -->
<g id="edge12" class="edge"><title>Node5&#45;&gt;Node6</title>
<path fill="none" stroke="midnightblue" d="M168.088,-406.362C175.841,-398.186 186.73,-386.702 195.845,-377.091"/>
<polygon fill="midnightblue" stroke="midnightblue" points="198.635,-379.235 202.976,-369.571 193.555,-374.419 198.635,-379.235"/>
</g>
<!-- Node6&#45;&gt;Node4 -->
<g id="edge14" class="edge"><title>Node6&#45;&gt;Node4</title>
<path fill="none" stroke="midnightblue" d="M215.9,-348.457C226.731,-309.439 266.378,-169.72 309,-58 312.443,-48.9766 316.721,-39.1965 320.515,-30.9062"/>
<polygon fill="midnightblue" stroke="midnightblue" points="323.762,-32.2262 324.816,-21.684 317.418,-29.2678 323.762,-32.2262"/>
</g>
<!-- Node6&#45;&gt;Node7 -->
<g id="edge16" class="edge"><title>Node6&#45;&gt;Node7</title>
<path fill="none" stroke="midnightblue" d="M228.04,-348.362C240.293,-339.696 257.799,-327.313 271.839,-317.382"/>
<polygon fill="midnightblue" stroke="midnightblue" points="273.912,-320.203 280.055,-311.571 269.87,-314.488 273.912,-320.203"/>
</g>
<!-- Node6&#45;&gt;Node20 -->
<g id="edge56" class="edge"><title>Node6&#45;&gt;Node20</title>
<path fill="none" stroke="midnightblue" d="M212.134,-348.429C209.204,-312.648 199.623,-195.663 195.699,-147.748"/>
<polygon fill="midnightblue" stroke="midnightblue" points="199.175,-147.314 194.871,-137.634 192.199,-147.886 199.175,-147.314"/>
</g>
<!-- Node7&#45;&gt;Node4 -->
<g id="edge18" class="edge"><title>Node7&#45;&gt;Node4</title>
<path fill="none" stroke="midnightblue" d="M292.874,-290.241C290.465,-276.663 287.106,-252.595 289,-232 295.846,-157.569 315.4,-70.7973 324.813,-31.8203"/>
<polygon fill="midnightblue" stroke="midnightblue" points="328.254,-32.4834 327.231,-21.938 321.455,-30.8195 328.254,-32.4834"/>
</g>
<!-- Node8 -->
<g id="node18" class="node"><title>Node8</title>
<a xlink:href="odstring_8h.html" target="_top" xlink:title="odstring.h">
<polygon fill="white" stroke="black" points="297.5,-232.5 297.5,-253.5 356.5,-253.5 356.5,-232.5 297.5,-232.5"/>
<text text-anchor="middle" x="327" y="-240.5" font-family="Helvetica,sans-Serif" font-size="10.00">odstring.h</text>
</a>
</g>
<!-- Node7&#45;&gt;Node8 -->
<g id="edge20" class="edge"><title>Node7&#45;&gt;Node8</title>
<path fill="none" stroke="midnightblue" d="M300.869,-290.362C305.155,-282.595 311.087,-271.843 316.216,-262.546"/>
<polygon fill="midnightblue" stroke="midnightblue" points="319.402,-264.017 321.168,-253.571 313.273,-260.636 319.402,-264.017"/>
</g>
<!-- Node8&#45;&gt;Node4 -->
<g id="edge22" class="edge"><title>Node8&#45;&gt;Node4</title>
<path fill="none" stroke="midnightblue" d="M327.137,-232.429C327.599,-196.648 329.112,-79.6628 329.732,-31.7481"/>
<polygon fill="midnightblue" stroke="midnightblue" points="333.233,-31.678 329.862,-21.6335 326.233,-31.5874 333.233,-31.678"/>
</g>
<!-- Node9 -->
<g id="node21" class="node"><title>Node9</title>
<a xlink:href="gendefs_8h.html" target="_top" xlink:title="gendefs.h">
<polygon fill="white" stroke="black" points="551.5,-174.5 551.5,-195.5 610.5,-195.5 610.5,-174.5 551.5,-174.5"/>
<text text-anchor="middle" x="581" y="-182.5" font-family="Helvetica,sans-Serif" font-size="10.00">gendefs.h</text>
</a>
</g>
<!-- Node8&#45;&gt;Node9 -->
<g id="edge24" class="edge"><title>Node8&#45;&gt;Node9</title>
<path fill="none" stroke="midnightblue" d="M356.634,-236.233C402.3,-225.805 489.941,-205.793 541.128,-194.105"/>
<polygon fill="midnightblue" stroke="midnightblue" points="542.192,-197.452 551.162,-191.813 540.634,-190.627 542.192,-197.452"/>
</g>
<!-- Node10 -->
<g id="node23" class="node"><title>Node10</title>
<a xlink:href="undefval_8h.html" target="_top" xlink:title="undefval.h">
<polygon fill="white" stroke="black" points="458,-116.5 458,-137.5 520,-137.5 520,-116.5 458,-116.5"/>
<text text-anchor="middle" x="489" y="-124.5" font-family="Helvetica,sans-Serif" font-size="10.00">undefval.h</text>
</a>
</g>
<!-- Node9&#45;&gt;Node10 -->
<g id="edge26" class="edge"><title>Node9&#45;&gt;Node10</title>
<path fill="none" stroke="midnightblue" d="M564.126,-174.362C550.249,-165.614 530.366,-153.079 514.54,-143.101"/>
<polygon fill="midnightblue" stroke="midnightblue" points="516.093,-139.943 505.767,-137.571 512.36,-145.864 516.093,-139.943"/>
</g>
<!-- Node17 -->
<g id="node40" class="node"><title>Node17</title>
<a xlink:href="commontypes_8h.html" target="_top" xlink:title="commontypes.h">
<polygon fill="white" stroke="black" points="538,-116.5 538,-137.5 624,-137.5 624,-116.5 538,-116.5"/>
<text text-anchor="middle" x="581" y="-124.5" font-family="Helvetica,sans-Serif" font-size="10.00">commontypes.h</text>
</a>
</g>
<!-- Node9&#45;&gt;Node17 -->
<g id="edge46" class="edge"><title>Node9&#45;&gt;Node17</title>
<path fill="none" stroke="midnightblue" d="M581,-174.362C581,-166.922 581,-156.743 581,-147.728"/>
<polygon fill="midnightblue" stroke="midnightblue" points="584.5,-147.571 581,-137.571 577.5,-147.571 584.5,-147.571"/>
</g>
<!-- Node18 -->
<g id="node43" class="node"><title>Node18</title>
<a xlink:href="errmsg_8h.html" target="_top" xlink:title="errmsg.h">
<polygon fill="white" stroke="black" points="641.5,-116.5 641.5,-137.5 696.5,-137.5 696.5,-116.5 641.5,-116.5"/>
<text text-anchor="middle" x="669" y="-124.5" font-family="Helvetica,sans-Serif" font-size="10.00">errmsg.h</text>
</a>
</g>
<!-- Node9&#45;&gt;Node18 -->
<g id="edge50" class="edge"><title>Node9&#45;&gt;Node18</title>
<path fill="none" stroke="midnightblue" d="M597.141,-174.362C610.414,-165.614 629.432,-153.079 644.57,-143.101"/>
<polygon fill="midnightblue" stroke="midnightblue" points="646.538,-145.996 652.962,-137.571 642.686,-140.151 646.538,-145.996"/>
</g>
<!-- Node10&#45;&gt;Node4 -->
<g id="edge28" class="edge"><title>Node10&#45;&gt;Node4</title>
<path fill="none" stroke="midnightblue" d="M480.038,-116.166C467.634,-101.642 444.034,-75.6463 420,-58 402.856,-45.4126 381.881,-34.25 364.493,-25.9653"/>
<polygon fill="midnightblue" stroke="midnightblue" points="365.793,-22.71 355.25,-21.668 362.842,-29.0576 365.793,-22.71"/>
</g>
<!-- Node11 -->
<g id="node26" class="node"><title>Node11</title>
<a xlink:href="commondefs_8h.html" target="_top" xlink:title="commondefs.h">
<polygon fill="white" stroke="black" points="547.5,-58.5 547.5,-79.5 628.5,-79.5 628.5,-58.5 547.5,-58.5"/>
<text text-anchor="middle" x="588" y="-66.5" font-family="Helvetica,sans-Serif" font-size="10.00">commondefs.h</text>
</a>
</g>
<!-- Node10&#45;&gt;Node11 -->
<g id="edge30" class="edge"><title>Node10&#45;&gt;Node11</title>
<path fill="none" stroke="midnightblue" d="M507.158,-116.362C522.23,-107.532 543.887,-94.844 560.993,-84.8224"/>
<polygon fill="midnightblue" stroke="midnightblue" points="563.098,-87.6456 569.957,-79.5707 559.559,-81.6058 563.098,-87.6456"/>
</g>
<!-- Node15 -->
<g id="node35" class="node"><title>Node15</title>
<a xlink:href="plftypes_8h.html" target="_top" xlink:title="plftypes.h">
<polygon fill="white" stroke="black" points="471.5,-58.5 471.5,-79.5 530.5,-79.5 530.5,-58.5 471.5,-58.5"/>
<text text-anchor="middle" x="501" y="-66.5" font-family="Helvetica,sans-Serif" font-size="10.00">plftypes.h</text>
</a>
</g>
<!-- Node10&#45;&gt;Node15 -->
<g id="edge40" class="edge"><title>Node10&#45;&gt;Node15</title>
<path fill="none" stroke="midnightblue" d="M491.201,-116.362C492.757,-108.84 494.893,-98.5187 496.773,-89.4308"/>
<polygon fill="midnightblue" stroke="midnightblue" points="500.214,-90.0724 498.813,-79.5707 493.359,-88.6541 500.214,-90.0724"/>
</g>
<!-- Node11&#45;&gt;Node4 -->
<g id="edge32" class="edge"><title>Node11&#45;&gt;Node4</title>
<path fill="none" stroke="midnightblue" d="M547.404,-59.8737C500.107,-49.2411 422.262,-31.741 373.682,-20.82"/>
<polygon fill="midnightblue" stroke="midnightblue" points="374.305,-17.3729 363.781,-18.5942 372.77,-24.2024 374.305,-17.3729"/>
</g>
<!-- Node12 -->
<g id="node29" class="node"><title>Node12</title>
<a xlink:href="plfdefs_8h.html" target="_top" xlink:title="plfdefs.h">
<polygon fill="white" stroke="black" points="499,-0.5 499,-21.5 553,-21.5 553,-0.5 499,-0.5"/>
<text text-anchor="middle" x="526" y="-8.5" font-family="Helvetica,sans-Serif" font-size="10.00">plfdefs.h</text>
</a>
</g>
<!-- Node11&#45;&gt;Node12 -->
<g id="edge34" class="edge"><title>Node11&#45;&gt;Node12</title>
<path fill="none" stroke="midnightblue" d="M576.628,-58.3619C567.714,-50.0226 555.121,-38.2418 544.724,-28.5162"/>
<polygon fill="midnightblue" stroke="midnightblue" points="546.993,-25.8463 537.3,-21.5707 542.211,-30.9582 546.993,-25.8463"/>
</g>
<!-- Node13 -->
<g id="node31" class="node"><title>Node13</title>
<polygon fill="white" stroke="#bfbfbf" points="622.5,-0.5 622.5,-21.5 681.5,-21.5 681.5,-0.5 622.5,-0.5"/>
<text text-anchor="middle" x="652" y="-8.5" font-family="Helvetica,sans-Serif" font-size="10.00">stdexcept</text>
</g>
<!-- Node11&#45;&gt;Node13 -->
<g id="edge36" class="edge"><title>Node11&#45;&gt;Node13</title>
<path fill="none" stroke="midnightblue" d="M599.739,-58.3619C608.941,-50.0226 621.94,-38.2418 632.672,-28.5162"/>
<polygon fill="midnightblue" stroke="midnightblue" points="635.276,-30.8793 640.336,-21.5707 630.576,-25.6924 635.276,-30.8793"/>
</g>
<!-- Node14 -->
<g id="node33" class="node"><title>Node14</title>
<polygon fill="white" stroke="#bfbfbf" points="570.5,-0.5 570.5,-21.5 605.5,-21.5 605.5,-0.5 570.5,-0.5"/>
<text text-anchor="middle" x="588" y="-8.5" font-family="Helvetica,sans-Serif" font-size="10.00">new</text>
</g>
<!-- Node11&#45;&gt;Node14 -->
<g id="edge38" class="edge"><title>Node11&#45;&gt;Node14</title>
<path fill="none" stroke="midnightblue" d="M588,-58.3619C588,-50.9219 588,-40.7427 588,-31.7276"/>
<polygon fill="midnightblue" stroke="midnightblue" points="591.5,-31.5706 588,-21.5707 584.5,-31.5707 591.5,-31.5706"/>
</g>
<!-- Node15&#45;&gt;Node12 -->
<g id="edge42" class="edge"><title>Node15&#45;&gt;Node12</title>
<path fill="none" stroke="midnightblue" d="M505.585,-58.3619C508.898,-50.6766 513.47,-40.0686 517.448,-30.8399"/>
<polygon fill="midnightblue" stroke="midnightblue" points="520.699,-32.1393 521.444,-21.5707 514.271,-29.3685 520.699,-32.1393"/>
</g>
<!-- Node16 -->
<g id="node38" class="node"><title>Node16</title>
<polygon fill="white" stroke="#bfbfbf" points="432.5,-0.5 432.5,-21.5 481.5,-21.5 481.5,-0.5 432.5,-0.5"/>
<text text-anchor="middle" x="457" y="-8.5" font-family="Helvetica,sans-Serif" font-size="10.00">stdint.h</text>
</g>
<!-- Node15&#45;&gt;Node16 -->
<g id="edge44" class="edge"><title>Node15&#45;&gt;Node16</title>
<path fill="none" stroke="midnightblue" d="M492.93,-58.3619C486.851,-50.3496 478.363,-39.1605 471.163,-29.6696"/>
<polygon fill="midnightblue" stroke="midnightblue" points="473.851,-27.4222 465.019,-21.5707 468.275,-31.653 473.851,-27.4222"/>
</g>
<!-- Node17&#45;&gt;Node11 -->
<g id="edge48" class="edge"><title>Node17&#45;&gt;Node11</title>
<path fill="none" stroke="midnightblue" d="M582.284,-116.362C583.182,-108.922 584.41,-98.7427 585.498,-89.7276"/>
<polygon fill="midnightblue" stroke="midnightblue" points="589.001,-89.918 586.724,-79.5707 582.051,-89.0792 589.001,-89.918"/>
</g>
<!-- Node18&#45;&gt;Node11 -->
<g id="edge52" class="edge"><title>Node18&#45;&gt;Node11</title>
<path fill="none" stroke="midnightblue" d="M654.143,-116.362C642.154,-107.777 625.073,-95.5459 611.272,-85.6636"/>
<polygon fill="midnightblue" stroke="midnightblue" points="612.931,-82.5469 602.762,-79.5707 608.855,-88.2383 612.931,-82.5469"/>
</g>
<!-- Node19 -->
<g id="node46" class="node"><title>Node19</title>
<polygon fill="white" stroke="#bfbfbf" points="645.5,-58.5 645.5,-79.5 696.5,-79.5 696.5,-58.5 645.5,-58.5"/>
<text text-anchor="middle" x="671" y="-66.5" font-family="Helvetica,sans-Serif" font-size="10.00">typeinfo</text>
</g>
<!-- Node18&#45;&gt;Node19 -->
<g id="edge54" class="edge"><title>Node18&#45;&gt;Node19</title>
<path fill="none" stroke="midnightblue" d="M669.367,-116.362C669.623,-108.922 669.974,-98.7427 670.285,-89.7276"/>
<polygon fill="midnightblue" stroke="midnightblue" points="673.789,-89.6854 670.635,-79.5707 666.793,-89.4441 673.789,-89.6854"/>
</g>
<!-- Node20&#45;&gt;Node4 -->
<g id="edge58" class="edge"><title>Node20&#45;&gt;Node4</title>
<path fill="none" stroke="midnightblue" d="M198.9,-116.457C206.145,-101.796 220.938,-75.1286 240,-58 255.156,-44.381 274.975,-33.4784 292.155,-25.6157"/>
<polygon fill="midnightblue" stroke="midnightblue" points="293.635,-28.7888 301.382,-21.5623 290.819,-22.3799 293.635,-28.7888"/>
</g>
<!-- Node20&#45;&gt;Node11 -->
<g id="edge62" class="edge"><title>Node20&#45;&gt;Node11</title>
<path fill="none" stroke="midnightblue" d="M221.406,-124.072C278.416,-117.811 414.095,-102.015 537.422,-80.1792"/>
<polygon fill="midnightblue" stroke="midnightblue" points="538.185,-83.5983 547.412,-78.392 536.952,-76.7077 538.185,-83.5983"/>
</g>
<!-- Node20&#45;&gt;Node15 -->
<g id="edge60" class="edge"><title>Node20&#45;&gt;Node15</title>
<path fill="none" stroke="midnightblue" d="M221.244,-121.853C275.596,-111.584 397.71,-88.514 461.105,-76.5371"/>
<polygon fill="midnightblue" stroke="midnightblue" points="461.949,-79.9398 471.125,-74.6441 460.649,-73.0615 461.949,-79.9398"/>
</g>
<!-- Node21 -->
<g id="node53" class="node"><title>Node21</title>
<polygon fill="white" stroke="#bfbfbf" points="65.5,-58.5 65.5,-79.5 114.5,-79.5 114.5,-58.5 65.5,-58.5"/>
<text text-anchor="middle" x="90" y="-66.5" font-family="Helvetica,sans-Serif" font-size="10.00">ctype.h</text>
</g>
<!-- Node20&#45;&gt;Node21 -->
<g id="edge64" class="edge"><title>Node20&#45;&gt;Node21</title>
<path fill="none" stroke="midnightblue" d="M174.925,-116.362C158.945,-107.45 135.919,-94.6087 117.873,-84.5447"/>
<polygon fill="midnightblue" stroke="midnightblue" points="119.393,-81.3846 108.954,-79.5707 115.983,-87.4982 119.393,-81.3846"/>
</g>
<!-- Node22 -->
<g id="node55" class="node"><title>Node22</title>
<polygon fill="white" stroke="#bfbfbf" points="132,-58.5 132,-79.5 188,-79.5 188,-58.5 132,-58.5"/>
<text text-anchor="middle" x="160" y="-66.5" font-family="Helvetica,sans-Serif" font-size="10.00">wctype.h</text>
</g>
<!-- Node20&#45;&gt;Node22 -->
<g id="edge66" class="edge"><title>Node20&#45;&gt;Node22</title>
<path fill="none" stroke="midnightblue" d="M187.764,-116.362C183.163,-108.513 176.775,-97.6159 171.286,-88.2527"/>
<polygon fill="midnightblue" stroke="midnightblue" points="174.273,-86.4276 166.197,-79.5707 168.234,-89.9677 174.273,-86.4276"/>
</g>
<!-- Node23&#45;&gt;Node4 -->
<g id="edge74" class="edge"><title>Node23&#45;&gt;Node4</title>
<path fill="none" stroke="midnightblue" d="M383.063,-348.248C379.538,-309.069 366.083,-170.362 343,-58 341.199,-49.2354 338.67,-39.697 336.32,-31.5175"/>
<polygon fill="midnightblue" stroke="midnightblue" points="339.614,-30.316 333.411,-21.727 332.904,-32.3097 339.614,-30.316"/>
</g>
<!-- Node24 -->
<g id="node62" class="node"><title>Node24</title>
<a xlink:href="posidxpair_8h.html" target="_top" xlink:title="posidxpair.h">
<polygon fill="white" stroke="black" points="411.5,-290.5 411.5,-311.5 480.5,-311.5 480.5,-290.5 411.5,-290.5"/>
<text text-anchor="middle" x="446" y="-298.5" font-family="Helvetica,sans-Serif" font-size="10.00">posidxpair.h</text>
</a>
</g>
<!-- Node23&#45;&gt;Node24 -->
<g id="edge76" class="edge"><title>Node23&#45;&gt;Node24</title>
<path fill="none" stroke="midnightblue" d="M395.372,-348.362C404.286,-340.023 416.879,-328.242 427.276,-318.516"/>
<polygon fill="midnightblue" stroke="midnightblue" points="429.789,-320.958 434.7,-311.571 425.007,-315.846 429.789,-320.958"/>
</g>
<!-- Node24&#45;&gt;Node4 -->
<g id="edge78" class="edge"><title>Node24&#45;&gt;Node4</title>
<path fill="none" stroke="midnightblue" d="M445.353,-290.463C442.76,-255.062 430.761,-138.125 382,-58 374.883,-46.3053 363.979,-35.8126 353.991,-27.7239"/>
<polygon fill="midnightblue" stroke="midnightblue" points="355.981,-24.8393 345.919,-21.5211 351.716,-30.3897 355.981,-24.8393"/>
</g>
<!-- Node25 -->
<g id="node65" class="node"><title>Node25</title>
<a xlink:href="idxpair_8h.html" target="_top" xlink:title="idxpair.h">
<polygon fill="white" stroke="black" points="625.5,-232.5 625.5,-253.5 678.5,-253.5 678.5,-232.5 625.5,-232.5"/>
<text text-anchor="middle" x="652" y="-240.5" font-family="Helvetica,sans-Serif" font-size="10.00">idxpair.h</text>
</a>
</g>
<!-- Node24&#45;&gt;Node25 -->
<g id="edge80" class="edge"><title>Node24&#45;&gt;Node25</title>
<path fill="none" stroke="midnightblue" d="M480.945,-291.161C518.458,-280.599 577.771,-263.899 615.772,-253.2"/>
<polygon fill="midnightblue" stroke="midnightblue" points="616.741,-256.563 625.419,-250.484 614.844,-249.825 616.741,-256.563"/>
</g>
<!-- Node25&#45;&gt;Node4 -->
<g id="edge82" class="edge"><title>Node25&#45;&gt;Node4</title>
<path fill="none" stroke="midnightblue" d="M661.016,-232.323C686.019,-201.394 751.424,-110.606 705,-58 702.271,-54.9073 472.263,-27.6521 373.863,-16.1189"/>
<polygon fill="midnightblue" stroke="midnightblue" points="373.987,-12.6097 363.648,-14.9228 373.173,-19.5622 373.987,-12.6097"/>
</g>
<!-- Node25&#45;&gt;Node9 -->
<g id="edge84" class="edge"><title>Node25&#45;&gt;Node9</title>
<path fill="none" stroke="midnightblue" d="M638.978,-232.362C628.569,-223.859 613.781,-211.779 601.745,-201.947"/>
<polygon fill="midnightblue" stroke="midnightblue" points="603.899,-199.187 593.94,-195.571 599.47,-204.608 603.899,-199.187"/>
</g>
<!-- Node26 -->
<g id="node69" class="node"><title>Node26</title>
<polygon fill="white" stroke="#bfbfbf" points="752,-174.5 752,-195.5 792,-195.5 792,-174.5 752,-174.5"/>
<text text-anchor="middle" x="772" y="-182.5" font-family="Helvetica,sans-Serif" font-size="10.00">utility</text>
</g>
<!-- Node25&#45;&gt;Node26 -->
<g id="edge86" class="edge"><title>Node25&#45;&gt;Node26</title>
<path fill="none" stroke="midnightblue" d="M673.731,-232.497C692.942,-223.211 721.137,-209.584 742.404,-199.305"/>
<polygon fill="midnightblue" stroke="midnightblue" points="744.151,-202.348 751.631,-194.845 741.104,-196.046 744.151,-202.348"/>
</g>
</g>
</svg>
