<?xml version="1.0" encoding="UTF-8" standalone="no"?>
<!DOCTYPE svg PUBLIC "-//W3C//DTD SVG 1.1//EN"
 "http://www.w3.org/Graphics/SVG/1.1/DTD/svg11.dtd">
<!-- Generated by graphviz version 2.26.0 (20091210.2329)
 -->
<!-- Title: enums.h Pages: 1 -->
<svg width="3892pt" height="204pt"
 viewBox="0.00 0.00 3892.00 204.00" xmlns="http://www.w3.org/2000/svg" xmlns:xlink="http://www.w3.org/1999/xlink">
<g id="graph1" class="graph" transform="scale(1 1) rotate(0) translate(4 200)">
<title>enums.h</title>
<polygon fill="white" stroke="white" points="-4,5 -4,-200 3889,-200 3889,5 -4,5"/>
<!-- Node1 -->
<g id="node1" class="node"><title>Node1</title>
<polygon fill="#bfbfbf" stroke="black" points="1724,-174.5 1724,-195.5 1778,-195.5 1778,-174.5 1724,-174.5"/>
<text text-anchor="middle" x="1751" y="-182.5" font-family="Helvetica,sans-Serif" font-size="10.00">enums.h</text>
</g>
<!-- Node2 -->
<g id="node3" class="node"><title>Node2</title>
<a xlink:href="trckeyzsampling_8h.html" target="_top" xlink:title="trckeyzsampling.h">
<polygon fill="white" stroke="red" points="142,-116.5 142,-137.5 238,-137.5 238,-116.5 142,-116.5"/>
<text text-anchor="middle" x="190" y="-124.5" font-family="Helvetica,sans-Serif" font-size="10.00">trckeyzsampling.h</text>
</a>
</g>
<!-- Node1&#45;&gt;Node2 -->
<g id="edge2" class="edge"><title>Node1&#45;&gt;Node2</title>
<path fill="none" stroke="midnightblue" d="M1713.93,-184.361C1513.98,-180.836 562.245,-162.994 269,-138 259.066,-137.153 248.47,-135.913 238.372,-134.567"/>
<polygon fill="midnightblue" stroke="midnightblue" points="1713.87,-187.861 1723.93,-184.537 1714,-180.862 1713.87,-187.861"/>
</g>
<!-- Node4 -->
<g id="node7" class="node"><title>Node4</title>
<a xlink:href="arrayndalgo_8h.html" target="_top" xlink:title="arrayndalgo.h">
<polygon fill="white" stroke="red" points="39.5,-58.5 39.5,-79.5 114.5,-79.5 114.5,-58.5 39.5,-58.5"/>
<text text-anchor="middle" x="77" y="-66.5" font-family="Helvetica,sans-Serif" font-size="10.00">arrayndalgo.h</text>
</a>
</g>
<!-- Node1&#45;&gt;Node4 -->
<g id="edge26" class="edge"><title>Node1&#45;&gt;Node4</title>
<path fill="none" stroke="midnightblue" d="M1713.86,-184.796C1478.88,-183.395 206.156,-174.157 133,-138 107.689,-125.49 89.949,-95.6065 81.8895,-79.5806"/>
<polygon fill="midnightblue" stroke="midnightblue" points="1713.93,-188.296 1723.95,-184.855 1713.97,-181.296 1713.93,-188.296"/>
</g>
<!-- Node5 -->
<g id="node9" class="node"><title>Node5</title>
<a xlink:href="array2dinterpol_8h.html" target="_top" xlink:title="array2dinterpol.h">
<polygon fill="white" stroke="red" points="-0.5,-0.5 -0.5,-21.5 88.5,-21.5 88.5,-0.5 -0.5,-0.5"/>
<text text-anchor="middle" x="44" y="-8.5" font-family="Helvetica,sans-Serif" font-size="10.00">array2dinterpol.h</text>
</a>
</g>
<!-- Node1&#45;&gt;Node5 -->
<g id="edge28" class="edge"><title>Node1&#45;&gt;Node5</title>
<path fill="none" stroke="midnightblue" d="M1713.64,-184.61C1475.85,-182.042 181.022,-166.774 103,-138 64.4469,-123.782 48.7377,-117.066 31,-80 21.8442,-60.8674 31.1402,-35.8669 38.0349,-21.814"/>
<polygon fill="midnightblue" stroke="midnightblue" points="1713.81,-188.112 1723.85,-184.719 1713.88,-181.112 1713.81,-188.112"/>
</g>
<!-- Node6 -->
<g id="node11" class="node"><title>Node6</title>
<a xlink:href="fftfilter_8h.html" target="_top" xlink:title="fftfilter.h">
<polygon fill="white" stroke="red" points="211.5,-0.5 211.5,-21.5 264.5,-21.5 264.5,-0.5 211.5,-0.5"/>
<text text-anchor="middle" x="238" y="-8.5" font-family="Helvetica,sans-Serif" font-size="10.00">fftfilter.h</text>
</a>
</g>
<!-- Node1&#45;&gt;Node6 -->
<g id="edge32" class="edge"><title>Node1&#45;&gt;Node6</title>
<path fill="none" stroke="midnightblue" d="M1713.5,-184.906C1496.74,-184.216 411.716,-178.734 355,-138 324.157,-115.848 349.957,-86.6204 325,-58 308.978,-39.6267 283.963,-27.1754 264.86,-19.7294"/>
<polygon fill="midnightblue" stroke="midnightblue" points="1713.72,-188.406 1723.73,-184.937 1713.74,-181.406 1713.72,-188.406"/>
</g>
<!-- Node7 -->
<g id="node13" class="node"><title>Node7</title>
<a xlink:href="uicreatepicks_8h.html" target="_top" xlink:title="uicreatepicks.h">
<polygon fill="white" stroke="black" points="233.5,-58.5 233.5,-79.5 316.5,-79.5 316.5,-58.5 233.5,-58.5"/>
<text text-anchor="middle" x="275" y="-66.5" font-family="Helvetica,sans-Serif" font-size="10.00">uicreatepicks.h</text>
</a>
</g>
<!-- Node1&#45;&gt;Node7 -->
<g id="edge118" class="edge"><title>Node1&#45;&gt;Node7</title>
<path fill="none" stroke="midnightblue" d="M1713.79,-184.725C1495.11,-182.99 384.727,-172.5 322,-138 298.759,-125.217 284.728,-95.4507 278.616,-79.5139"/>
<polygon fill="midnightblue" stroke="midnightblue" points="1713.78,-188.225 1723.8,-184.803 1713.83,-181.225 1713.78,-188.225"/>
</g>
<!-- Node8 -->
<g id="node15" class="node"><title>Node8</title>
<a xlink:href="dateinfo_8h.html" target="_top" xlink:title="dateinfo.h">
<polygon fill="white" stroke="red" points="363.5,-116.5 363.5,-137.5 422.5,-137.5 422.5,-116.5 363.5,-116.5"/>
<text text-anchor="middle" x="393" y="-124.5" font-family="Helvetica,sans-Serif" font-size="10.00">dateinfo.h</text>
</a>
</g>
<!-- Node1&#45;&gt;Node8 -->
<g id="edge14" class="edge"><title>Node1&#45;&gt;Node8</title>
<path fill="none" stroke="midnightblue" d="M1713.84,-184.91C1526.87,-184.271 687.964,-179.121 431,-138 428.287,-137.566 425.495,-136.999 422.713,-136.351"/>
<polygon fill="midnightblue" stroke="midnightblue" points="1713.97,-188.411 1723.98,-184.943 1713.99,-181.411 1713.97,-188.411"/>
</g>
<!-- Node9 -->
<g id="node17" class="node"><title>Node9</title>
<a xlink:href="file_8h.html" target="_top" xlink:title="file.h">
<polygon fill="white" stroke="red" points="440,-116.5 440,-137.5 478,-137.5 478,-116.5 440,-116.5"/>
<text text-anchor="middle" x="459" y="-124.5" font-family="Helvetica,sans-Serif" font-size="10.00">file.h</text>
</a>
</g>
<!-- Node1&#45;&gt;Node9 -->
<g id="edge16" class="edge"><title>Node1&#45;&gt;Node9</title>
<path fill="none" stroke="midnightblue" d="M1713.8,-184.362C1517.83,-180.902 609.625,-163.592 487,-138 484.035,-137.381 480.976,-136.478 478.018,-135.451"/>
<polygon fill="midnightblue" stroke="midnightblue" points="1713.82,-187.863 1723.88,-184.539 1713.95,-180.864 1713.82,-187.863"/>
</g>
<!-- Node10 -->
<g id="node19" class="node"><title>Node10</title>
<a xlink:href="odinst_8h.html" target="_top" xlink:title="odinst.h">
<polygon fill="white" stroke="black" points="495.5,-116.5 495.5,-137.5 546.5,-137.5 546.5,-116.5 495.5,-116.5"/>
<text text-anchor="middle" x="521" y="-124.5" font-family="Helvetica,sans-Serif" font-size="10.00">odinst.h</text>
</a>
</g>
<!-- Node1&#45;&gt;Node10 -->
<g id="edge18" class="edge"><title>Node1&#45;&gt;Node10</title>
<path fill="none" stroke="midnightblue" d="M1713.69,-184.904C1537.26,-184.243 785.564,-179.025 555,-138 552.312,-137.522 549.544,-136.883 546.803,-136.153"/>
<polygon fill="midnightblue" stroke="midnightblue" points="1713.76,-188.405 1723.78,-184.94 1713.79,-181.405 1713.76,-188.405"/>
</g>
<!-- Node11 -->
<g id="node21" class="node"><title>Node11</title>
<a xlink:href="odplatform_8h.html" target="_top" xlink:title="odplatform.h">
<polygon fill="white" stroke="red" points="563.5,-116.5 563.5,-137.5 634.5,-137.5 634.5,-116.5 563.5,-116.5"/>
<text text-anchor="middle" x="599" y="-124.5" font-family="Helvetica,sans-Serif" font-size="10.00">odplatform.h</text>
</a>
</g>
<!-- Node1&#45;&gt;Node11 -->
<g id="edge20" class="edge"><title>Node1&#45;&gt;Node11</title>
<path fill="none" stroke="midnightblue" d="M1713.46,-184.3C1545.36,-181.025 860.757,-166.185 648,-138 643.678,-137.428 639.176,-136.659 634.728,-135.793"/>
<polygon fill="midnightblue" stroke="midnightblue" points="1713.49,-187.801 1723.55,-184.494 1713.62,-180.802 1713.49,-187.801"/>
</g>
<!-- Node12 -->
<g id="node23" class="node"><title>Node12</title>
<a xlink:href="survinfo_8h.html" target="_top" xlink:title="survinfo.h">
<polygon fill="white" stroke="red" points="689.5,-116.5 689.5,-137.5 748.5,-137.5 748.5,-116.5 689.5,-116.5"/>
<text text-anchor="middle" x="719" y="-124.5" font-family="Helvetica,sans-Serif" font-size="10.00">survinfo.h</text>
</a>
</g>
<!-- Node1&#45;&gt;Node12 -->
<g id="edge22" class="edge"><title>Node1&#45;&gt;Node12</title>
<path fill="none" stroke="midnightblue" d="M1713.9,-184.409C1556.89,-181.73 946.509,-169.461 757,-138 754.29,-137.55 751.499,-136.972 748.719,-136.317"/>
<polygon fill="midnightblue" stroke="midnightblue" points="1713.94,-187.91 1723.99,-184.579 1714.05,-180.911 1713.94,-187.91"/>
</g>
<!-- Node13 -->
<g id="node25" class="node"><title>Node13</title>
<a xlink:href="wellextractdata_8h.html" target="_top" xlink:title="wellextractdata.h">
<polygon fill="white" stroke="red" points="673.5,-58.5 673.5,-79.5 764.5,-79.5 764.5,-58.5 673.5,-58.5"/>
<text text-anchor="middle" x="719" y="-66.5" font-family="Helvetica,sans-Serif" font-size="10.00">wellextractdata.h</text>
</a>
</g>
<!-- Node1&#45;&gt;Node13 -->
<g id="edge92" class="edge"><title>Node1&#45;&gt;Node13</title>
<path fill="none" stroke="midnightblue" d="M1713.95,-184.792C1529.47,-183.581 717.455,-176.092 681,-138 664.264,-120.512 688.836,-94.2219 705.596,-79.6611"/>
<polygon fill="midnightblue" stroke="midnightblue" points="1713.95,-188.292 1723.97,-184.856 1713.99,-181.292 1713.95,-188.292"/>
</g>
<!-- Node14 -->
<g id="node29" class="node"><title>Node14</title>
<a xlink:href="dippca_8h.html" target="_top" xlink:title="dippca.h">
<polygon fill="white" stroke="black" points="881.5,-116.5 881.5,-137.5 934.5,-137.5 934.5,-116.5 881.5,-116.5"/>
<text text-anchor="middle" x="908" y="-124.5" font-family="Helvetica,sans-Serif" font-size="10.00">dippca.h</text>
</a>
</g>
<!-- Node1&#45;&gt;Node14 -->
<g id="edge30" class="edge"><title>Node1&#45;&gt;Node14</title>
<path fill="none" stroke="midnightblue" d="M1713.69,-183.856C1576.26,-179.482 1098.4,-162.799 948,-138 943.594,-137.274 938.976,-136.254 934.507,-135.125"/>
<polygon fill="midnightblue" stroke="midnightblue" points="1713.62,-187.356 1723.73,-184.173 1713.85,-180.359 1713.62,-187.356"/>
</g>
<!-- Node15 -->
<g id="node32" class="node"><title>Node15</title>
<a xlink:href="veldesc_8h.html" target="_top" xlink:title="veldesc.h">
<polygon fill="white" stroke="red" points="989.5,-116.5 989.5,-137.5 1048.5,-137.5 1048.5,-116.5 989.5,-116.5"/>
<text text-anchor="middle" x="1019" y="-124.5" font-family="Helvetica,sans-Serif" font-size="10.00">veldesc.h</text>
</a>
</g>
<!-- Node1&#45;&gt;Node15 -->
<g id="edge34" class="edge"><title>Node1&#45;&gt;Node15</title>
<path fill="none" stroke="midnightblue" d="M1713.53,-183.522C1588.3,-178.416 1184.98,-160.588 1057,-138 1054.29,-137.523 1051.51,-136.926 1048.73,-136.258"/>
<polygon fill="midnightblue" stroke="midnightblue" points="1713.63,-187.029 1723.76,-183.936 1713.91,-180.034 1713.63,-187.029"/>
</g>
<!-- Node16 -->
<g id="node34" class="node"><title>Node16</title>
<a xlink:href="velocityfunction_8h.html" target="_top" xlink:title="velocityfunction.h">
<polygon fill="white" stroke="red" points="943.5,-58.5 943.5,-79.5 1036.5,-79.5 1036.5,-58.5 943.5,-58.5"/>
<text text-anchor="middle" x="990" y="-66.5" font-family="Helvetica,sans-Serif" font-size="10.00">velocityfunction.h</text>
</a>
</g>
<!-- Node1&#45;&gt;Node16 -->
<g id="edge98" class="edge"><title>Node1&#45;&gt;Node16</title>
<path fill="none" stroke="midnightblue" d="M1713.57,-184.125C1562.74,-180.422 1006.37,-164.97 981,-138 966.182,-122.25 976.486,-94.791 984.026,-79.6974"/>
<polygon fill="midnightblue" stroke="midnightblue" points="1713.64,-187.628 1723.72,-184.372 1713.81,-180.63 1713.64,-187.628"/>
</g>
<!-- Node17 -->
<g id="node36" class="node"><title>Node17</title>
<a xlink:href="stattype_8h.html" target="_top" xlink:title="stattype.h">
<polygon fill="white" stroke="red" points="766,-116.5 766,-137.5 826,-137.5 826,-116.5 766,-116.5"/>
<text text-anchor="middle" x="796" y="-124.5" font-family="Helvetica,sans-Serif" font-size="10.00">stattype.h</text>
</a>
</g>
<!-- Node1&#45;&gt;Node17 -->
<g id="edge38" class="edge"><title>Node1&#45;&gt;Node17</title>
<path fill="none" stroke="midnightblue" d="M1713.68,-184.038C1564.77,-180.052 1012.85,-163.816 840,-138 835.483,-137.325 830.755,-136.392 826.142,-135.351"/>
<polygon fill="midnightblue" stroke="midnightblue" points="1713.6,-187.537 1723.69,-184.304 1713.79,-180.54 1713.6,-187.537"/>
</g>
<!-- Node18 -->
<g id="node39" class="node"><title>Node18</title>
<a xlink:href="prestackprop_8h.html" target="_top" xlink:title="prestackprop.h">
<polygon fill="white" stroke="red" points="797.5,-58.5 797.5,-79.5 878.5,-79.5 878.5,-58.5 797.5,-58.5"/>
<text text-anchor="middle" x="838" y="-66.5" font-family="Helvetica,sans-Serif" font-size="10.00">prestackprop.h</text>
</a>
</g>
<!-- Node1&#45;&gt;Node18 -->
<g id="edge104" class="edge"><title>Node1&#45;&gt;Node18</title>
<path fill="none" stroke="midnightblue" d="M1713.53,-184.036C1550.41,-179.709 908.707,-161.263 873,-138 852.517,-124.655 843.468,-95.4104 839.948,-79.6181"/>
<polygon fill="midnightblue" stroke="midnightblue" points="1713.48,-187.536 1723.57,-184.301 1713.67,-180.539 1713.48,-187.536"/>
</g>
<!-- Node19 -->
<g id="node41" class="node"><title>Node19</title>
<a xlink:href="valseriesevent_8h.html" target="_top" xlink:title="valseriesevent.h">
<polygon fill="white" stroke="red" points="1066,-116.5 1066,-137.5 1154,-137.5 1154,-116.5 1066,-116.5"/>
<text text-anchor="middle" x="1110" y="-124.5" font-family="Helvetica,sans-Serif" font-size="10.00">valseriesevent.h</text>
</a>
</g>
<!-- Node1&#45;&gt;Node19 -->
<g id="edge44" class="edge"><title>Node1&#45;&gt;Node19</title>
<path fill="none" stroke="midnightblue" d="M1713.85,-183.642C1620.73,-179.89 1369.94,-167.627 1163,-138 1160.12,-137.587 1157.15,-137.113 1154.17,-136.598"/>
<polygon fill="midnightblue" stroke="midnightblue" points="1713.78,-187.142 1723.91,-184.039 1714.05,-180.147 1713.78,-187.142"/>
</g>
<!-- Node20 -->
<g id="node43" class="node"><title>Node20</title>
<a xlink:href="wavelettrans_8h.html" target="_top" xlink:title="wavelettrans.h">
<polygon fill="white" stroke="red" points="1172,-116.5 1172,-137.5 1252,-137.5 1252,-116.5 1172,-116.5"/>
<text text-anchor="middle" x="1212" y="-124.5" font-family="Helvetica,sans-Serif" font-size="10.00">wavelettrans.h</text>
</a>
</g>
<!-- Node1&#45;&gt;Node20 -->
<g id="edge46" class="edge"><title>Node1&#45;&gt;Node20</title>
<path fill="none" stroke="midnightblue" d="M1713.65,-183.018C1631.44,-178.304 1428.76,-164.768 1261,-138 1258.07,-137.533 1255.06,-136.996 1252.03,-136.416"/>
<polygon fill="midnightblue" stroke="midnightblue" points="1713.58,-186.519 1723.76,-183.587 1713.97,-179.53 1713.58,-186.519"/>
</g>
<!-- Node21 -->
<g id="node45" class="node"><title>Node21</title>
<a xlink:href="zaxistransform_8h.html" target="_top" xlink:title="zaxistransform.h">
<polygon fill="white" stroke="red" points="1269.5,-116.5 1269.5,-137.5 1358.5,-137.5 1358.5,-116.5 1269.5,-116.5"/>
<text text-anchor="middle" x="1314" y="-124.5" font-family="Helvetica,sans-Serif" font-size="10.00">zaxistransform.h</text>
</a>
</g>
<!-- Node1&#45;&gt;Node21 -->
<g id="edge48" class="edge"><title>Node1&#45;&gt;Node21</title>
<path fill="none" stroke="midnightblue" d="M1713.58,-181.163C1645.44,-173.999 1496.67,-157.531 1372,-138 1367.65,-137.318 1363.12,-136.555 1358.6,-135.757"/>
<polygon fill="midnightblue" stroke="midnightblue" points="1713.49,-184.673 1723.8,-182.232 1714.22,-177.711 1713.49,-184.673"/>
</g>
<!-- Node22 -->
<g id="node47" class="node"><title>Node22</title>
<a xlink:href="draw_8h.html" target="_top" xlink:title="draw.h">
<polygon fill="white" stroke="red" points="1414,-116.5 1414,-137.5 1460,-137.5 1460,-116.5 1414,-116.5"/>
<text text-anchor="middle" x="1437" y="-124.5" font-family="Helvetica,sans-Serif" font-size="10.00">draw.h</text>
</a>
</g>
<!-- Node1&#45;&gt;Node22 -->
<g id="edge50" class="edge"><title>Node1&#45;&gt;Node22</title>
<path fill="none" stroke="midnightblue" d="M1713.67,-180.782C1659.3,-174.189 1555.38,-159.884 1469,-138 1466.15,-137.279 1463.2,-136.419 1460.28,-135.504"/>
<polygon fill="midnightblue" stroke="midnightblue" points="1713.52,-184.289 1723.86,-181.998 1714.35,-177.338 1713.52,-184.289"/>
</g>
<!-- Node23 -->
<g id="node49" class="node"><title>Node23</title>
<a xlink:href="pickset_8h.html" target="_top" xlink:title="pickset.h">
<polygon fill="white" stroke="red" points="1383,-58.5 1383,-79.5 1439,-79.5 1439,-58.5 1383,-58.5"/>
<text text-anchor="middle" x="1411" y="-66.5" font-family="Helvetica,sans-Serif" font-size="10.00">pickset.h</text>
</a>
</g>
<!-- Node1&#45;&gt;Node23 -->
<g id="edge74" class="edge"><title>Node1&#45;&gt;Node23</title>
<path fill="none" stroke="midnightblue" d="M1713.78,-182.672C1628.58,-176.964 1425.12,-161.039 1405,-138 1390.84,-121.789 1399.42,-94.5132 1405.86,-79.5721"/>
<polygon fill="midnightblue" stroke="midnightblue" points="1713.6,-186.167 1723.81,-183.333 1714.06,-179.182 1713.6,-186.167"/>
</g>
<!-- Node24 -->
<g id="node51" class="node"><title>Node24</title>
<a xlink:href="datachar_8h.html" target="_top" xlink:title="datachar.h">
<polygon fill="white" stroke="red" points="1478,-116.5 1478,-137.5 1540,-137.5 1540,-116.5 1478,-116.5"/>
<text text-anchor="middle" x="1509" y="-124.5" font-family="Helvetica,sans-Serif" font-size="10.00">datachar.h</text>
</a>
</g>
<!-- Node1&#45;&gt;Node24 -->
<g id="edge54" class="edge"><title>Node1&#45;&gt;Node24</title>
<path fill="none" stroke="midnightblue" d="M1713.82,-176.814C1673.21,-167.765 1606.31,-152.541 1549,-138 1546.21,-137.291 1543.31,-136.536 1540.41,-135.765"/>
<polygon fill="midnightblue" stroke="midnightblue" points="1713.28,-180.279 1723.8,-179.032 1714.8,-173.446 1713.28,-180.279"/>
</g>
<!-- Node25 -->
<g id="node53" class="node"><title>Node25</title>
<a xlink:href="coltabmapper_8h.html" target="_top" xlink:title="coltabmapper.h">
<polygon fill="white" stroke="red" points="1557.5,-116.5 1557.5,-137.5 1640.5,-137.5 1640.5,-116.5 1557.5,-116.5"/>
<text text-anchor="middle" x="1599" y="-124.5" font-family="Helvetica,sans-Serif" font-size="10.00">coltabmapper.h</text>
</a>
</g>
<!-- Node1&#45;&gt;Node25 -->
<g id="edge56" class="edge"><title>Node1&#45;&gt;Node25</title>
<path fill="none" stroke="midnightblue" d="M1714.34,-171.012C1687.38,-160.723 1651.29,-146.953 1626.71,-137.573"/>
<polygon fill="midnightblue" stroke="midnightblue" points="1713.23,-174.336 1723.83,-174.631 1715.73,-167.796 1713.23,-174.336"/>
</g>
<!-- Node26 -->
<g id="node55" class="node"><title>Node26</title>
<a xlink:href="coltabsequence_8h.html" target="_top" xlink:title="coltabsequence.h">
<polygon fill="white" stroke="red" points="1657.5,-116.5 1657.5,-137.5 1750.5,-137.5 1750.5,-116.5 1657.5,-116.5"/>
<text text-anchor="middle" x="1704" y="-124.5" font-family="Helvetica,sans-Serif" font-size="10.00">coltabsequence.h</text>
</a>
</g>
<!-- Node1&#45;&gt;Node26 -->
<g id="edge58" class="edge"><title>Node1&#45;&gt;Node26</title>
<path fill="none" stroke="midnightblue" d="M1736.04,-166.541C1728.29,-156.979 1719.11,-145.647 1712.57,-137.571"/>
<polygon fill="midnightblue" stroke="midnightblue" points="1733.36,-168.796 1742.38,-174.362 1738.8,-164.389 1733.36,-168.796"/>
</g>
<!-- Node27 -->
<g id="node57" class="node"><title>Node27</title>
<a xlink:href="ctxtioobj_8h.html" target="_top" xlink:title="ctxtioobj.h">
<polygon fill="white" stroke="red" points="1768,-116.5 1768,-137.5 1830,-137.5 1830,-116.5 1768,-116.5"/>
<text text-anchor="middle" x="1799" y="-124.5" font-family="Helvetica,sans-Serif" font-size="10.00">ctxtioobj.h</text>
</a>
</g>
<!-- Node1&#45;&gt;Node27 -->
<g id="edge60" class="edge"><title>Node1&#45;&gt;Node27</title>
<path fill="none" stroke="midnightblue" d="M1766.28,-166.541C1774.19,-156.979 1783.57,-145.647 1790.25,-137.571"/>
<polygon fill="midnightblue" stroke="midnightblue" points="1763.48,-164.426 1759.8,-174.362 1768.88,-168.889 1763.48,-164.426"/>
</g>
<!-- Node28 -->
<g id="node59" class="node"><title>Node28</title>
<a xlink:href="elasticprop_8h.html" target="_top" xlink:title="elasticprop.h">
<polygon fill="white" stroke="red" points="1836,-58.5 1836,-79.5 1908,-79.5 1908,-58.5 1836,-58.5"/>
<text text-anchor="middle" x="1872" y="-66.5" font-family="Helvetica,sans-Serif" font-size="10.00">elasticprop.h</text>
</a>
</g>
<!-- Node1&#45;&gt;Node28 -->
<g id="edge62" class="edge"><title>Node1&#45;&gt;Node28</title>
<path fill="none" stroke="midnightblue" d="M1787.41,-171.816C1804.75,-164.092 1824.76,-152.891 1839,-138 1855.34,-120.92 1864.91,-94.2329 1869.23,-79.5564"/>
<polygon fill="midnightblue" stroke="midnightblue" points="1785.95,-168.633 1778.1,-175.752 1788.67,-175.08 1785.95,-168.633"/>
</g>
<!-- Node29 -->
<g id="node61" class="node"><title>Node29</title>
<a xlink:href="propertyref_8h.html" target="_top" xlink:title="propertyref.h">
<polygon fill="white" stroke="red" points="1885.5,-116.5 1885.5,-137.5 1956.5,-137.5 1956.5,-116.5 1885.5,-116.5"/>
<text text-anchor="middle" x="1921" y="-124.5" font-family="Helvetica,sans-Serif" font-size="10.00">propertyref.h</text>
</a>
</g>
<!-- Node1&#45;&gt;Node29 -->
<g id="edge64" class="edge"><title>Node1&#45;&gt;Node29</title>
<path fill="none" stroke="midnightblue" d="M1788.15,-172.325C1818.65,-161.921 1861.33,-147.358 1890.01,-137.573"/>
<polygon fill="midnightblue" stroke="midnightblue" points="1786.65,-169.14 1778.31,-175.681 1788.91,-175.765 1786.65,-169.14"/>
</g>
<!-- Node30 -->
<g id="node64" class="node"><title>Node30</title>
<a xlink:href="keyenum_8h.html" target="_top" xlink:title="keyenum.h">
<polygon fill="white" stroke="red" points="2011.5,-116.5 2011.5,-137.5 2076.5,-137.5 2076.5,-116.5 2011.5,-116.5"/>
<text text-anchor="middle" x="2044" y="-124.5" font-family="Helvetica,sans-Serif" font-size="10.00">keyenum.h</text>
</a>
</g>
<!-- Node1&#45;&gt;Node30 -->
<g id="edge68" class="edge"><title>Node1&#45;&gt;Node30</title>
<path fill="none" stroke="midnightblue" d="M1788.14,-178.491C1836.57,-169.876 1923.84,-153.913 1998,-138 2002.34,-137.07 2006.89,-136.042 2011.37,-135"/>
<polygon fill="midnightblue" stroke="midnightblue" points="1787.37,-175.074 1778.13,-180.265 1788.59,-181.966 1787.37,-175.074"/>
</g>
<!-- Node31 -->
<g id="node66" class="node"><title>Node31</title>
<a xlink:href="uishortcutsmgr_8h.html" target="_top" xlink:title="uishortcutsmgr.h">
<polygon fill="white" stroke="black" points="1969.5,-58.5 1969.5,-79.5 2058.5,-79.5 2058.5,-58.5 1969.5,-58.5"/>
<text text-anchor="middle" x="2014" y="-66.5" font-family="Helvetica,sans-Serif" font-size="10.00">uishortcutsmgr.h</text>
</a>
</g>
<!-- Node1&#45;&gt;Node31 -->
<g id="edge114" class="edge"><title>Node1&#45;&gt;Node31</title>
<path fill="none" stroke="midnightblue" d="M1788.42,-180.088C1841.76,-172.537 1936.38,-156.946 1965,-138 1987.17,-123.321 2002.49,-94.9063 2009.56,-79.5171"/>
<polygon fill="midnightblue" stroke="midnightblue" points="1787.76,-176.646 1778.33,-181.49 1788.72,-183.58 1787.76,-176.646"/>
</g>
<!-- Node32 -->
<g id="node68" class="node"><title>Node32</title>
<a xlink:href="fontdata_8h.html" target="_top" xlink:title="fontdata.h">
<polygon fill="white" stroke="red" points="2094,-116.5 2094,-137.5 2154,-137.5 2154,-116.5 2094,-116.5"/>
<text text-anchor="middle" x="2124" y="-124.5" font-family="Helvetica,sans-Serif" font-size="10.00">fontdata.h</text>
</a>
</g>
<!-- Node1&#45;&gt;Node32 -->
<g id="edge72" class="edge"><title>Node1&#45;&gt;Node32</title>
<path fill="none" stroke="midnightblue" d="M1788.13,-181.432C1850.08,-175.109 1978.29,-160.45 2085,-138 2087.89,-137.392 2090.88,-136.687 2093.87,-135.934"/>
<polygon fill="midnightblue" stroke="midnightblue" points="1787.66,-177.962 1778.06,-182.446 1788.36,-184.927 1787.66,-177.962"/>
</g>
<!-- Node33 -->
<g id="node71" class="node"><title>Node33</title>
<a xlink:href="stratlayseqattrib_8h.html" target="_top" xlink:title="stratlayseqattrib.h">
<polygon fill="white" stroke="black" points="2171.5,-116.5 2171.5,-137.5 2266.5,-137.5 2266.5,-116.5 2171.5,-116.5"/>
<text text-anchor="middle" x="2219" y="-124.5" font-family="Helvetica,sans-Serif" font-size="10.00">stratlayseqattrib.h</text>
</a>
</g>
<!-- Node1&#45;&gt;Node33 -->
<g id="edge76" class="edge"><title>Node1&#45;&gt;Node33</title>
<path fill="none" stroke="midnightblue" d="M1788.08,-181.777C1860.42,-175.268 2025.35,-159.335 2163,-138 2165.74,-137.575 2168.55,-137.112 2171.39,-136.623"/>
<polygon fill="midnightblue" stroke="midnightblue" points="1787.74,-178.294 1778.1,-182.669 1788.37,-185.266 1787.74,-178.294"/>
</g>
<!-- Node34 -->
<g id="node73" class="node"><title>Node34</title>
<a xlink:href="stratunitref_8h.html" target="_top" xlink:title="stratunitref.h">
<polygon fill="white" stroke="red" points="2283.5,-116.5 2283.5,-137.5 2354.5,-137.5 2354.5,-116.5 2283.5,-116.5"/>
<text text-anchor="middle" x="2319" y="-124.5" font-family="Helvetica,sans-Serif" font-size="10.00">stratunitref.h</text>
</a>
</g>
<!-- Node1&#45;&gt;Node34 -->
<g id="edge78" class="edge"><title>Node1&#45;&gt;Node34</title>
<path fill="none" stroke="midnightblue" d="M1788.26,-183.648C1874.46,-180.089 2094.09,-168.537 2275,-138 2277.64,-137.554 2280.35,-137.033 2283.08,-136.464"/>
<polygon fill="midnightblue" stroke="midnightblue" points="1788.04,-180.154 1778.19,-184.053 1788.32,-187.149 1788.04,-180.154"/>
</g>
<!-- Node35 -->
<g id="node75" class="node"><title>Node35</title>
<a xlink:href="indexedshape_8h.html" target="_top" xlink:title="indexedshape.h">
<polygon fill="white" stroke="red" points="2409.5,-116.5 2409.5,-137.5 2494.5,-137.5 2494.5,-116.5 2409.5,-116.5"/>
<text text-anchor="middle" x="2452" y="-124.5" font-family="Helvetica,sans-Serif" font-size="10.00">indexedshape.h</text>
</a>
</g>
<!-- Node1&#45;&gt;Node35 -->
<g id="edge80" class="edge"><title>Node1&#45;&gt;Node35</title>
<path fill="none" stroke="midnightblue" d="M1788.28,-183.864C1887.52,-180.5 2166.23,-168.822 2396,-138 2400.32,-137.42 2404.81,-136.715 2409.28,-135.944"/>
<polygon fill="midnightblue" stroke="midnightblue" points="1788.04,-180.37 1778.16,-184.199 1788.27,-187.366 1788.04,-180.37"/>
</g>
<!-- Node36 -->
<g id="node77" class="node"><title>Node36</title>
<a xlink:href="explfaultsticksurface_8h.html" target="_top" xlink:title="explfaultsticksurface.h">
<polygon fill="white" stroke="red" points="2359.5,-58.5 2359.5,-79.5 2474.5,-79.5 2474.5,-58.5 2359.5,-58.5"/>
<text text-anchor="middle" x="2417" y="-66.5" font-family="Helvetica,sans-Serif" font-size="10.00">explfaultsticksurface.h</text>
</a>
</g>
<!-- Node1&#45;&gt;Node36 -->
<g id="edge84" class="edge"><title>Node1&#45;&gt;Node36</title>
<path fill="none" stroke="midnightblue" d="M1788.36,-183.877C1913.42,-179.877 2312.4,-165.101 2363,-138 2387.41,-124.929 2404.4,-95.5687 2412.19,-79.6867"/>
<polygon fill="midnightblue" stroke="midnightblue" points="1788.02,-180.386 1778.14,-184.199 1788.24,-187.382 1788.02,-180.386"/>
</g>
<!-- Node37 -->
<g id="node80" class="node"><title>Node37</title>
<a xlink:href="embodyoperator_8h.html" target="_top" xlink:title="embodyoperator.h">
<polygon fill="white" stroke="black" points="2511.5,-116.5 2511.5,-137.5 2606.5,-137.5 2606.5,-116.5 2511.5,-116.5"/>
<text text-anchor="middle" x="2559" y="-124.5" font-family="Helvetica,sans-Serif" font-size="10.00">embodyoperator.h</text>
</a>
</g>
<!-- Node1&#45;&gt;Node37 -->
<g id="edge86" class="edge"><title>Node1&#45;&gt;Node37</title>
<path fill="none" stroke="midnightblue" d="M1788.33,-184.402C1898.27,-182.269 2230.23,-173.159 2503,-138 2505.75,-137.645 2508.57,-137.237 2511.41,-136.79"/>
<polygon fill="midnightblue" stroke="midnightblue" points="1788.03,-180.907 1778.1,-184.593 1788.16,-187.906 1788.03,-180.907"/>
</g>
<!-- Node38 -->
<g id="node82" class="node"><title>Node38</title>
<a xlink:href="horizonmerger_8h.html" target="_top" xlink:title="horizonmerger.h">
<polygon fill="white" stroke="black" points="2624,-116.5 2624,-137.5 2710,-137.5 2710,-116.5 2624,-116.5"/>
<text text-anchor="middle" x="2667" y="-124.5" font-family="Helvetica,sans-Serif" font-size="10.00">horizonmerger.h</text>
</a>
</g>
<!-- Node1&#45;&gt;Node38 -->
<g id="edge88" class="edge"><title>Node1&#45;&gt;Node38</title>
<path fill="none" stroke="midnightblue" d="M1788.22,-183.741C1932.02,-178.757 2451.37,-159.627 2615,-138 2617.93,-137.613 2620.94,-137.151 2623.96,-136.639"/>
<polygon fill="midnightblue" stroke="midnightblue" points="1788.02,-180.246 1778.14,-184.088 1788.26,-187.241 1788.02,-180.246"/>
</g>
<!-- Node39 -->
<g id="node84" class="node"><title>Node39</title>
<a xlink:href="welldata_8h.html" target="_top" xlink:title="welldata.h">
<polygon fill="white" stroke="red" points="2727.5,-116.5 2727.5,-137.5 2788.5,-137.5 2788.5,-116.5 2727.5,-116.5"/>
<text text-anchor="middle" x="2758" y="-124.5" font-family="Helvetica,sans-Serif" font-size="10.00">welldata.h</text>
</a>
</g>
<!-- Node1&#45;&gt;Node39 -->
<g id="edge90" class="edge"><title>Node1&#45;&gt;Node39</title>
<path fill="none" stroke="midnightblue" d="M1788.6,-184.311C1943.8,-181.294 2534.94,-168.027 2719,-138 2721.78,-137.547 2724.64,-136.967 2727.49,-136.311"/>
<polygon fill="midnightblue" stroke="midnightblue" points="1788.13,-180.82 1778.2,-184.511 1788.26,-187.818 1788.13,-180.82"/>
</g>
<!-- Node40 -->
<g id="node87" class="node"><title>Node40</title>
<a xlink:href="seisinfo_8h.html" target="_top" xlink:title="seisinfo.h">
<polygon fill="white" stroke="red" points="2805.5,-116.5 2805.5,-137.5 2864.5,-137.5 2864.5,-116.5 2805.5,-116.5"/>
<text text-anchor="middle" x="2835" y="-124.5" font-family="Helvetica,sans-Serif" font-size="10.00">seisinfo.h</text>
</a>
</g>
<!-- Node1&#45;&gt;Node40 -->
<g id="edge94" class="edge"><title>Node1&#45;&gt;Node40</title>
<path fill="none" stroke="midnightblue" d="M1788.47,-184.505C1951.14,-182.171 2596.92,-170.974 2797,-138 2799.71,-137.553 2802.5,-136.978 2805.28,-136.324"/>
<polygon fill="midnightblue" stroke="midnightblue" points="1788.41,-181.005 1778.46,-184.646 1788.51,-188.004 1788.41,-181.005"/>
</g>
<!-- Node41 -->
<g id="node89" class="node"><title>Node41</title>
<a xlink:href="nlacrdesc_8h.html" target="_top" xlink:title="nlacrdesc.h">
<polygon fill="white" stroke="black" points="2881.5,-116.5 2881.5,-137.5 2948.5,-137.5 2948.5,-116.5 2881.5,-116.5"/>
<text text-anchor="middle" x="2915" y="-124.5" font-family="Helvetica,sans-Serif" font-size="10.00">nlacrdesc.h</text>
</a>
</g>
<!-- Node1&#45;&gt;Node41 -->
<g id="edge96" class="edge"><title>Node1&#45;&gt;Node41</title>
<path fill="none" stroke="midnightblue" d="M1788.65,-184.506C1958.79,-182.109 2656.88,-170.445 2873,-138 2875.68,-137.597 2878.44,-137.09 2881.2,-136.516"/>
<polygon fill="midnightblue" stroke="midnightblue" points="1788.39,-181.009 1778.44,-184.648 1788.49,-188.009 1788.39,-181.009"/>
</g>
<!-- Node42 -->
<g id="node92" class="node"><title>Node42</title>
<a xlink:href="velocitypicks_8h.html" target="_top" xlink:title="velocitypicks.h">
<polygon fill="white" stroke="red" points="2966,-116.5 2966,-137.5 3048,-137.5 3048,-116.5 2966,-116.5"/>
<text text-anchor="middle" x="3007" y="-124.5" font-family="Helvetica,sans-Serif" font-size="10.00">velocitypicks.h</text>
</a>
</g>
<!-- Node1&#45;&gt;Node42 -->
<g id="edge100" class="edge"><title>Node1&#45;&gt;Node42</title>
<path fill="none" stroke="midnightblue" d="M1788.26,-184.44C1965.29,-181.642 2722.66,-168.102 2957,-138 2959.91,-137.626 2962.9,-137.166 2965.9,-136.648"/>
<polygon fill="midnightblue" stroke="midnightblue" points="1788.09,-180.942 1778.14,-184.598 1788.2,-187.941 1788.09,-180.942"/>
</g>
<!-- Node43 -->
<g id="node94" class="node"><title>Node43</title>
<a xlink:href="prestackanglecomputer_8h.html" target="_top" xlink:title="prestackanglecomputer.h">
<polygon fill="white" stroke="black" points="3066,-116.5 3066,-137.5 3192,-137.5 3192,-116.5 3066,-116.5"/>
<text text-anchor="middle" x="3129" y="-124.5" font-family="Helvetica,sans-Serif" font-size="10.00">prestackanglecomputer.h</text>
</a>
</g>
<!-- Node1&#45;&gt;Node43 -->
<g id="edge102" class="edge"><title>Node1&#45;&gt;Node43</title>
<path fill="none" stroke="midnightblue" d="M1788.29,-184.242C1974.06,-180.374 2800.93,-162.087 3057,-138 3059.9,-137.728 3062.85,-137.415 3065.84,-137.073"/>
<polygon fill="midnightblue" stroke="midnightblue" points="1788.13,-180.744 1778.2,-184.45 1788.27,-187.743 1788.13,-180.744"/>
</g>
<!-- Node44 -->
<g id="node97" class="node"><title>Node44</title>
<a xlink:href="stratsynthgenparams_8h.html" target="_top" xlink:title="stratsynthgenparams.h">
<polygon fill="white" stroke="red" points="3210,-116.5 3210,-137.5 3326,-137.5 3326,-116.5 3210,-116.5"/>
<text text-anchor="middle" x="3268" y="-124.5" font-family="Helvetica,sans-Serif" font-size="10.00">stratsynthgenparams.h</text>
</a>
</g>
<!-- Node1&#45;&gt;Node44 -->
<g id="edge106" class="edge"><title>Node1&#45;&gt;Node44</title>
<path fill="none" stroke="midnightblue" d="M1788.21,-184.452C1985.89,-181.44 2914.86,-166.006 3201,-138 3203.93,-137.713 3206.93,-137.377 3209.96,-137.005"/>
<polygon fill="midnightblue" stroke="midnightblue" points="1787.99,-180.955 1778.05,-184.606 1788.1,-187.954 1787.99,-180.955"/>
</g>
<!-- Node45 -->
<g id="node99" class="node"><title>Node45</title>
<a xlink:href="welltiesetup_8h.html" target="_top" xlink:title="welltiesetup.h">
<polygon fill="white" stroke="red" points="3343.5,-116.5 3343.5,-137.5 3420.5,-137.5 3420.5,-116.5 3343.5,-116.5"/>
<text text-anchor="middle" x="3382" y="-124.5" font-family="Helvetica,sans-Serif" font-size="10.00">welltiesetup.h</text>
</a>
</g>
<!-- Node1&#45;&gt;Node45 -->
<g id="edge108" class="edge"><title>Node1&#45;&gt;Node45</title>
<path fill="none" stroke="midnightblue" d="M1788.32,-184.907C1997.07,-184.232 3021.94,-178.86 3335,-138 3337.74,-137.642 3340.56,-137.194 3343.38,-136.684"/>
<polygon fill="midnightblue" stroke="midnightblue" points="1788.17,-181.407 1778.18,-184.938 1788.19,-188.407 1788.17,-181.407"/>
</g>
<!-- Node46 -->
<g id="node101" class="node"><title>Node46</title>
<a xlink:href="uigeom_8h.html" target="_top" xlink:title="uigeom.h">
<polygon fill="white" stroke="red" points="3438,-116.5 3438,-137.5 3494,-137.5 3494,-116.5 3438,-116.5"/>
<text text-anchor="middle" x="3466" y="-124.5" font-family="Helvetica,sans-Serif" font-size="10.00">uigeom.h</text>
</a>
</g>
<!-- Node1&#45;&gt;Node46 -->
<g id="edge110" class="edge"><title>Node1&#45;&gt;Node46</title>
<path fill="none" stroke="midnightblue" d="M1788.62,-184.535C2021.5,-181.576 3262.22,-164.657 3429,-138 3431.91,-137.535 3434.92,-136.904 3437.89,-136.179"/>
<polygon fill="midnightblue" stroke="midnightblue" points="1788.25,-181.039 1778.3,-184.665 1788.34,-188.038 1788.25,-181.039"/>
</g>
<!-- Node47 -->
<g id="node103" class="node"><title>Node47</title>
<a xlink:href="uicombobox_8h.html" target="_top" xlink:title="uicombobox.h">
<polygon fill="white" stroke="red" points="3511.5,-116.5 3511.5,-137.5 3588.5,-137.5 3588.5,-116.5 3511.5,-116.5"/>
<text text-anchor="middle" x="3550" y="-124.5" font-family="Helvetica,sans-Serif" font-size="10.00">uicombobox.h</text>
</a>
</g>
<!-- Node1&#45;&gt;Node47 -->
<g id="edge112" class="edge"><title>Node1&#45;&gt;Node47</title>
<path fill="none" stroke="midnightblue" d="M1788.37,-184.454C2026.5,-180.911 3327.65,-160.633 3503,-138 3505.74,-137.646 3508.56,-137.2 3511.39,-136.693"/>
<polygon fill="midnightblue" stroke="midnightblue" points="1788.1,-180.957 1778.15,-184.605 1788.2,-187.956 1788.1,-180.957"/>
</g>
<!-- Node48 -->
<g id="node106" class="node"><title>Node48</title>
<a xlink:href="dpsdensitycalc_8h.html" target="_top" xlink:title="dpsdensitycalc.h">
<polygon fill="white" stroke="black" points="3606,-116.5 3606,-137.5 3696,-137.5 3696,-116.5 3606,-116.5"/>
<text text-anchor="middle" x="3651" y="-124.5" font-family="Helvetica,sans-Serif" font-size="10.00">dpsdensitycalc.h</text>
</a>
</g>
<!-- Node1&#45;&gt;Node48 -->
<g id="edge116" class="edge"><title>Node1&#45;&gt;Node48</title>
<path fill="none" stroke="midnightblue" d="M1788.14,-184.943C2016.08,-184.461 3228.17,-179.932 3597,-138 3599.85,-137.676 3602.78,-137.276 3605.72,-136.824"/>
<polygon fill="midnightblue" stroke="midnightblue" points="1788.03,-181.443 1778.03,-184.963 1788.04,-188.443 1788.03,-181.443"/>
</g>
<!-- Node49 -->
<g id="node109" class="node"><title>Node49</title>
<a xlink:href="uisurfaceman_8h.html" target="_top" xlink:title="uisurfaceman.h">
<polygon fill="white" stroke="black" points="3713.5,-116.5 3713.5,-137.5 3796.5,-137.5 3796.5,-116.5 3713.5,-116.5"/>
<text text-anchor="middle" x="3755" y="-124.5" font-family="Helvetica,sans-Serif" font-size="10.00">uisurfaceman.h</text>
</a>
</g>
<!-- Node1&#45;&gt;Node49 -->
<g id="edge120" class="edge"><title>Node1&#45;&gt;Node49</title>
<path fill="none" stroke="midnightblue" d="M1788.2,-184.537C2041.46,-181.325 3508.12,-161.799 3705,-138 3707.74,-137.669 3710.54,-137.257 3713.36,-136.789"/>
<polygon fill="midnightblue" stroke="midnightblue" points="1788,-181.039 1778.04,-184.665 1788.09,-188.038 1788,-181.039"/>
</g>
<!-- Node50 -->
<g id="node111" class="node"><title>Node50</title>
<a xlink:href="ui3dviewer_8h.html" target="_top" xlink:title="ui3dviewer.h">
<polygon fill="white" stroke="red" points="3813.5,-116.5 3813.5,-137.5 3884.5,-137.5 3884.5,-116.5 3813.5,-116.5"/>
<text text-anchor="middle" x="3849" y="-124.5" font-family="Helvetica,sans-Serif" font-size="10.00">ui3dviewer.h</text>
</a>
</g>
<!-- Node1&#45;&gt;Node50 -->
<g id="edge122" class="edge"><title>Node1&#45;&gt;Node50</title>
<path fill="none" stroke="midnightblue" d="M1788.47,-184.644C2049.98,-182.093 3597.98,-165.893 3805,-138 3807.65,-137.643 3810.38,-137.186 3813.11,-136.663"/>
<polygon fill="midnightblue" stroke="midnightblue" points="1788.31,-181.145 1778.34,-184.742 1788.37,-188.145 1788.31,-181.145"/>
</g>
<!-- Node3 -->
<g id="node5" class="node"><title>Node3</title>
<a xlink:href="cubesampling_8h.html" target="_top" xlink:title="cubesampling.h">
<polygon fill="white" stroke="black" points="131.5,-58.5 131.5,-79.5 216.5,-79.5 216.5,-58.5 131.5,-58.5"/>
<text text-anchor="middle" x="174" y="-66.5" font-family="Helvetica,sans-Serif" font-size="10.00">cubesampling.h</text>
</a>
</g>
<!-- Node2&#45;&gt;Node3 -->
<g id="edge4" class="edge"><title>Node2&#45;&gt;Node3</title>
<path fill="none" stroke="midnightblue" d="M184.341,-106.488C181.832,-97.3924 178.986,-87.0756 176.916,-79.5707"/>
<polygon fill="midnightblue" stroke="midnightblue" points="181.032,-107.653 187.065,-116.362 187.78,-105.791 181.032,-107.653"/>
</g>
<!-- Node2&#45;&gt;Node4 -->
<g id="edge6" class="edge"><title>Node2&#45;&gt;Node4</title>
<path fill="none" stroke="midnightblue" d="M160.375,-111.794C140.659,-101.675 115.252,-88.6338 97.6931,-79.6212"/>
<polygon fill="midnightblue" stroke="midnightblue" points="159.042,-115.044 169.537,-116.497 162.238,-108.816 159.042,-115.044"/>
</g>
<!-- Node2&#45;&gt;Node7 -->
<g id="edge12" class="edge"><title>Node2&#45;&gt;Node7</title>
<path fill="none" stroke="midnightblue" d="M214.121,-110.541C228.694,-100.597 246.836,-88.2177 259.509,-79.5707"/>
<polygon fill="midnightblue" stroke="midnightblue" points="211.878,-107.834 205.59,-116.362 215.823,-113.617 211.878,-107.834"/>
</g>
<!-- Node4&#45;&gt;Node5 -->
<g id="edge8" class="edge"><title>Node4&#45;&gt;Node5</title>
<path fill="none" stroke="midnightblue" d="M66,-49.6667C60.6677,-40.2948 54.4701,-29.4019 50.0143,-21.5707"/>
<polygon fill="midnightblue" stroke="midnightblue" points="62.9599,-51.4011 70.9473,-58.3619 69.0441,-47.9394 62.9599,-51.4011"/>
</g>
<!-- Node4&#45;&gt;Node6 -->
<g id="edge10" class="edge"><title>Node4&#45;&gt;Node6</title>
<path fill="none" stroke="midnightblue" d="M115.765,-55.0351C145.379,-44.3665 185.411,-29.9451 211.464,-20.5595"/>
<polygon fill="midnightblue" stroke="midnightblue" points="114.378,-51.8145 106.156,-58.4966 116.75,-58.4002 114.378,-51.8145"/>
</g>
<!-- Node12&#45;&gt;Node13 -->
<g id="edge24" class="edge"><title>Node12&#45;&gt;Node13</title>
<path fill="none" stroke="midnightblue" d="M719,-106.191C719,-97.1684 719,-86.9941 719,-79.5707"/>
<polygon fill="midnightblue" stroke="midnightblue" points="715.5,-106.362 719,-116.362 722.5,-106.362 715.5,-106.362"/>
</g>
<!-- Node15&#45;&gt;Node16 -->
<g id="edge36" class="edge"><title>Node15&#45;&gt;Node16</title>
<path fill="none" stroke="midnightblue" d="M1009.19,-107.373C1004.53,-98.0682 999.16,-87.3204 995.285,-79.5707"/>
<polygon fill="midnightblue" stroke="midnightblue" points="1006.08,-108.983 1013.68,-116.362 1012.34,-105.852 1006.08,-108.983"/>
</g>
<!-- Node17&#45;&gt;Node13 -->
<g id="edge40" class="edge"><title>Node17&#45;&gt;Node13</title>
<path fill="none" stroke="midnightblue" d="M773.774,-110.259C760.639,-100.364 744.405,-88.1361 733.033,-79.5707"/>
<polygon fill="midnightblue" stroke="midnightblue" points="771.784,-113.141 781.877,-116.362 775.995,-107.55 771.784,-113.141"/>
</g>
<!-- Node17&#45;&gt;Node18 -->
<g id="edge42" class="edge"><title>Node17&#45;&gt;Node18</title>
<path fill="none" stroke="midnightblue" d="M809.577,-108.25C816.457,-98.75 824.556,-87.5651 830.345,-79.5707"/>
<polygon fill="midnightblue" stroke="midnightblue" points="806.734,-106.21 803.703,-116.362 812.403,-110.315 806.734,-106.21"/>
</g>
<!-- Node22&#45;&gt;Node23 -->
<g id="edge52" class="edge"><title>Node22&#45;&gt;Node23</title>
<path fill="none" stroke="midnightblue" d="M1428.07,-107.079C1423.93,-97.8422 1419.18,-87.2388 1415.74,-79.5707"/>
<polygon fill="midnightblue" stroke="midnightblue" points="1424.95,-108.669 1432.23,-116.362 1431.33,-105.805 1424.95,-108.669"/>
</g>
<!-- Node29&#45;&gt;Node28 -->
<g id="edge66" class="edge"><title>Node29&#45;&gt;Node28</title>
<path fill="none" stroke="midnightblue" d="M1905.41,-108.541C1897.33,-98.9786 1887.75,-87.6467 1880.93,-79.5707"/>
<polygon fill="midnightblue" stroke="midnightblue" points="1902.89,-110.982 1912.01,-116.362 1908.23,-106.464 1902.89,-110.982"/>
</g>
<!-- Node30&#45;&gt;Node31 -->
<g id="edge70" class="edge"><title>Node30&#45;&gt;Node31</title>
<path fill="none" stroke="midnightblue" d="M2033.85,-107.373C2029.04,-98.0682 2023.48,-87.3204 2019.47,-79.5707"/>
<polygon fill="midnightblue" stroke="midnightblue" points="2030.79,-109.088 2038.5,-116.362 2037.01,-105.872 2030.79,-109.088"/>
</g>
<!-- Node35&#45;&gt;Node36 -->
<g id="edge82" class="edge"><title>Node35&#45;&gt;Node36</title>
<path fill="none" stroke="midnightblue" d="M2440.33,-107.667C2434.68,-98.2948 2428.1,-87.4019 2423.38,-79.5707"/>
<polygon fill="midnightblue" stroke="midnightblue" points="2437.42,-109.608 2445.58,-116.362 2443.41,-105.992 2437.42,-109.608"/>
</g>
</g>
</svg>
