<?xml version="1.0" encoding="UTF-8" standalone="no"?>
<!DOCTYPE svg PUBLIC "-//W3C//DTD SVG 1.1//EN"
 "http://www.w3.org/Graphics/SVG/1.1/DTD/svg11.dtd">
<!-- Generated by graphviz version 2.26.0 (20091210.2329)
 -->
<!-- Title: errmsg.h Pages: 1 -->
<svg width="3305pt" height="320pt"
 viewBox="0.00 0.00 3305.00 320.00" xmlns="http://www.w3.org/2000/svg" xmlns:xlink="http://www.w3.org/1999/xlink">
<g id="graph1" class="graph" transform="scale(1 1) rotate(0) translate(4 316)">
<title>errmsg.h</title>
<polygon fill="white" stroke="white" points="-4,5 -4,-316 3302,-316 3302,5 -4,5"/>
<!-- Node1 -->
<g id="node1" class="node"><title>Node1</title>
<polygon fill="#bfbfbf" stroke="black" points="1309.5,-290.5 1309.5,-311.5 1364.5,-311.5 1364.5,-290.5 1309.5,-290.5"/>
<text text-anchor="middle" x="1337" y="-298.5" font-family="Helvetica,sans-Serif" font-size="10.00">errmsg.h</text>
</g>
<!-- Node2 -->
<g id="node3" class="node"><title>Node2</title>
<a xlink:href="gendefs_8h.html" target="_top" xlink:title="gendefs.h">
<polygon fill="white" stroke="red" points="1307.5,-232.5 1307.5,-253.5 1366.5,-253.5 1366.5,-232.5 1307.5,-232.5"/>
<text text-anchor="middle" x="1337" y="-240.5" font-family="Helvetica,sans-Serif" font-size="10.00">gendefs.h</text>
</a>
</g>
<!-- Node1&#45;&gt;Node2 -->
<g id="edge2" class="edge"><title>Node1&#45;&gt;Node2</title>
<path fill="none" stroke="midnightblue" d="M1337,-280.191C1337,-271.168 1337,-260.994 1337,-253.571"/>
<polygon fill="midnightblue" stroke="midnightblue" points="1333.5,-280.362 1337,-290.362 1340.5,-280.362 1333.5,-280.362"/>
</g>
<!-- Node3 -->
<g id="node5" class="node"><title>Node3</title>
<a xlink:href="odset_8h.html" target="_top" xlink:title="odset.h">
<polygon fill="white" stroke="red" points="34.5,-174.5 34.5,-195.5 83.5,-195.5 83.5,-174.5 34.5,-174.5"/>
<text text-anchor="middle" x="59" y="-182.5" font-family="Helvetica,sans-Serif" font-size="10.00">odset.h</text>
</a>
</g>
<!-- Node2&#45;&gt;Node3 -->
<g id="edge4" class="edge"><title>Node2&#45;&gt;Node3</title>
<path fill="none" stroke="midnightblue" d="M1297.4,-242.796C1112.87,-241.648 336.28,-234.573 97,-196 92.6605,-195.3 88.1157,-194.263 83.7395,-193.101"/>
<polygon fill="midnightblue" stroke="midnightblue" points="1297.45,-246.296 1307.47,-242.857 1297.49,-239.297 1297.45,-246.296"/>
</g>
<!-- Node4 -->
<g id="node7" class="node"><title>Node4</title>
<a xlink:href="statrand_8h.html" target="_top" xlink:title="statrand.h">
<polygon fill="white" stroke="red" points="0,-116.5 0,-137.5 60,-137.5 60,-116.5 0,-116.5"/>
<text text-anchor="middle" x="30" y="-124.5" font-family="Helvetica,sans-Serif" font-size="10.00">statrand.h</text>
</a>
</g>
<!-- Node2&#45;&gt;Node4 -->
<g id="edge110" class="edge"><title>Node2&#45;&gt;Node4</title>
<path fill="none" stroke="midnightblue" d="M1297.11,-242.325C1079.9,-238.559 48.6336,-219.46 26,-196 11.0035,-180.456 19.0734,-152.658 25.1866,-137.523"/>
<polygon fill="midnightblue" stroke="midnightblue" points="1297.34,-245.83 1307.4,-242.503 1297.47,-238.831 1297.34,-245.83"/>
</g>
<!-- Node5 -->
<g id="node9" class="node"><title>Node5</title>
<a xlink:href="debug_8h.html" target="_top" xlink:title="debug.h">
<polygon fill="white" stroke="red" points="176.5,-174.5 176.5,-195.5 227.5,-195.5 227.5,-174.5 176.5,-174.5"/>
<text text-anchor="middle" x="202" y="-182.5" font-family="Helvetica,sans-Serif" font-size="10.00">debug.h</text>
</a>
</g>
<!-- Node2&#45;&gt;Node5 -->
<g id="edge8" class="edge"><title>Node2&#45;&gt;Node5</title>
<path fill="none" stroke="midnightblue" d="M1297.2,-242.738C1125.31,-241.387 445.919,-233.718 236,-196 233.313,-195.517 230.546,-194.875 227.804,-194.144"/>
<polygon fill="midnightblue" stroke="midnightblue" points="1297.29,-246.239 1307.32,-242.815 1297.35,-239.239 1297.29,-246.239"/>
</g>
<!-- Node6 -->
<g id="node11" class="node"><title>Node6</title>
<a xlink:href="vectoraccess_8h.html" target="_top" xlink:title="vectoraccess.h">
<polygon fill="white" stroke="red" points="138.5,-116.5 138.5,-137.5 221.5,-137.5 221.5,-116.5 138.5,-116.5"/>
<text text-anchor="middle" x="180" y="-124.5" font-family="Helvetica,sans-Serif" font-size="10.00">vectoraccess.h</text>
</a>
</g>
<!-- Node2&#45;&gt;Node6 -->
<g id="edge16" class="edge"><title>Node2&#45;&gt;Node6</title>
<path fill="none" stroke="midnightblue" d="M1297.42,-242.929C1097.64,-242.379 207.959,-237.598 168,-196 152.922,-180.304 164.797,-152.823 173.304,-137.712"/>
<polygon fill="midnightblue" stroke="midnightblue" points="1297.46,-246.429 1307.47,-242.954 1297.48,-239.429 1297.46,-246.429"/>
</g>
<!-- Node7 -->
<g id="node13" class="node"><title>Node7</title>
<a xlink:href="sortedlist_8h.html" target="_top" xlink:title="sortedlist.h">
<polygon fill="white" stroke="red" points="112.5,-58.5 112.5,-79.5 177.5,-79.5 177.5,-58.5 112.5,-58.5"/>
<text text-anchor="middle" x="145" y="-66.5" font-family="Helvetica,sans-Serif" font-size="10.00">sortedlist.h</text>
</a>
</g>
<!-- Node2&#45;&gt;Node7 -->
<g id="edge106" class="edge"><title>Node2&#45;&gt;Node7</title>
<path fill="none" stroke="midnightblue" d="M1297.36,-242.574C1097.22,-240.279 205.462,-228.27 157,-196 125.765,-175.201 124.227,-153.079 130,-116 132.003,-103.136 136.916,-88.9786 140.576,-79.5988"/>
<polygon fill="midnightblue" stroke="midnightblue" points="1297.39,-246.075 1307.43,-242.688 1297.47,-239.075 1297.39,-246.075"/>
</g>
<!-- Node8 -->
<g id="node15" class="node"><title>Node8</title>
<a xlink:href="odstring_8h.html" target="_top" xlink:title="odstring.h">
<polygon fill="white" stroke="red" points="244.5,-174.5 244.5,-195.5 303.5,-195.5 303.5,-174.5 244.5,-174.5"/>
<text text-anchor="middle" x="274" y="-182.5" font-family="Helvetica,sans-Serif" font-size="10.00">odstring.h</text>
</a>
</g>
<!-- Node2&#45;&gt;Node8 -->
<g id="edge14" class="edge"><title>Node2&#45;&gt;Node8</title>
<path fill="none" stroke="midnightblue" d="M1297.07,-242.427C1132.57,-239.871 506.765,-228.19 312,-196 309.29,-195.552 306.498,-194.975 303.718,-194.321"/>
<polygon fill="midnightblue" stroke="midnightblue" points="1297.18,-245.929 1307.23,-242.582 1297.29,-238.93 1297.18,-245.929"/>
</g>
<!-- Node9 -->
<g id="node18" class="node"><title>Node9</title>
<a xlink:href="valseries_8h.html" target="_top" xlink:title="valseries.h">
<polygon fill="white" stroke="red" points="321,-174.5 321,-195.5 385,-195.5 385,-174.5 321,-174.5"/>
<text text-anchor="middle" x="353" y="-182.5" font-family="Helvetica,sans-Serif" font-size="10.00">valseries.h</text>
</a>
</g>
<!-- Node2&#45;&gt;Node9 -->
<g id="edge18" class="edge"><title>Node2&#45;&gt;Node9</title>
<path fill="none" stroke="midnightblue" d="M1296.99,-241.98C1141.39,-237.861 576.498,-221.447 399,-196 394.448,-195.347 389.687,-194.454 385.025,-193.456"/>
<polygon fill="midnightblue" stroke="midnightblue" points="1296.97,-245.481 1307.06,-242.244 1297.15,-238.483 1296.97,-245.481"/>
</g>
<!-- Node10 -->
<g id="node20" class="node"><title>Node10</title>
<a xlink:href="uistring_8h.html" target="_top" xlink:title="uistring.h">
<polygon fill="white" stroke="red" points="441,-116.5 441,-137.5 497,-137.5 497,-116.5 441,-116.5"/>
<text text-anchor="middle" x="469" y="-124.5" font-family="Helvetica,sans-Serif" font-size="10.00">uistring.h</text>
</a>
</g>
<!-- Node2&#45;&gt;Node10 -->
<g id="edge20" class="edge"><title>Node2&#45;&gt;Node10</title>
<path fill="none" stroke="midnightblue" d="M1296.99,-242.334C1130.4,-239.37 499.003,-226.176 470,-196 455.057,-180.452 460.633,-152.656 465.261,-137.522"/>
<polygon fill="midnightblue" stroke="midnightblue" points="1297.22,-245.838 1307.28,-242.514 1297.35,-238.84 1297.22,-245.838"/>
</g>
<!-- Node11 -->
<g id="node22" class="node"><title>Node11</title>
<a xlink:href="netreqconnection_8h.html" target="_top" xlink:title="netreqconnection.h">
<polygon fill="white" stroke="black" points="391.5,-58.5 391.5,-79.5 490.5,-79.5 490.5,-58.5 391.5,-58.5"/>
<text text-anchor="middle" x="441" y="-66.5" font-family="Helvetica,sans-Serif" font-size="10.00">netreqconnection.h</text>
</a>
</g>
<!-- Node2&#45;&gt;Node11 -->
<g id="edge126" class="edge"><title>Node2&#45;&gt;Node11</title>
<path fill="none" stroke="midnightblue" d="M1296.93,-242.031C1129.37,-237.829 491.87,-220.298 457,-196 419.987,-170.209 431.614,-105.463 438.014,-79.7601"/>
<polygon fill="midnightblue" stroke="midnightblue" points="1296.97,-245.533 1307.05,-242.283 1297.14,-238.535 1296.97,-245.533"/>
</g>
<!-- Node12 -->
<g id="node24" class="node"><title>Node12</title>
<a xlink:href="keystrs_8h.html" target="_top" xlink:title="keystrs.h">
<polygon fill="white" stroke="red" points="478.5,-174.5 478.5,-195.5 535.5,-195.5 535.5,-174.5 478.5,-174.5"/>
<text text-anchor="middle" x="507" y="-182.5" font-family="Helvetica,sans-Serif" font-size="10.00">keystrs.h</text>
</a>
</g>
<!-- Node2&#45;&gt;Node12 -->
<g id="edge24" class="edge"><title>Node2&#45;&gt;Node12</title>
<path fill="none" stroke="midnightblue" d="M1296.9,-241.842C1157,-237.611 691.109,-221.872 544,-196 541.228,-195.512 538.37,-194.889 535.528,-194.187"/>
<polygon fill="midnightblue" stroke="midnightblue" points="1297.06,-245.348 1307.16,-242.149 1297.27,-238.351 1297.06,-245.348"/>
</g>
<!-- Node13 -->
<g id="node27" class="node"><title>Node13</title>
<a xlink:href="arrayndinfo_8h.html" target="_top" xlink:title="arrayndinfo.h">
<polygon fill="white" stroke="red" points="552.5,-174.5 552.5,-195.5 625.5,-195.5 625.5,-174.5 552.5,-174.5"/>
<text text-anchor="middle" x="589" y="-182.5" font-family="Helvetica,sans-Serif" font-size="10.00">arrayndinfo.h</text>
</a>
</g>
<!-- Node2&#45;&gt;Node13 -->
<g id="edge28" class="edge"><title>Node2&#45;&gt;Node13</title>
<path fill="none" stroke="midnightblue" d="M1297.21,-242.397C1190.24,-240.328 887.719,-231.53 639,-196 634.689,-195.384 630.196,-194.601 625.749,-193.737"/>
<polygon fill="midnightblue" stroke="midnightblue" points="1297.18,-245.897 1307.24,-242.582 1297.31,-238.898 1297.18,-245.897"/>
</g>
<!-- Node14 -->
<g id="node29" class="node"><title>Node14</title>
<a xlink:href="ptrman_8h.html" target="_top" xlink:title="ptrman.h">
<polygon fill="white" stroke="red" points="826.5,-174.5 826.5,-195.5 881.5,-195.5 881.5,-174.5 826.5,-174.5"/>
<text text-anchor="middle" x="854" y="-182.5" font-family="Helvetica,sans-Serif" font-size="10.00">ptrman.h</text>
</a>
</g>
<!-- Node2&#45;&gt;Node14 -->
<g id="edge30" class="edge"><title>Node2&#45;&gt;Node14</title>
<path fill="none" stroke="midnightblue" d="M1296.96,-240.843C1219.03,-236.181 1041.73,-223.311 895,-196 890.653,-195.191 886.091,-194.157 881.654,-193.048"/>
<polygon fill="midnightblue" stroke="midnightblue" points="1297.1,-244.357 1307.29,-241.447 1297.51,-237.368 1297.1,-244.357"/>
</g>
<!-- Node15 -->
<g id="node31" class="node"><title>Node15</title>
<a xlink:href="ranges_8h.html" target="_top" xlink:title="ranges.h">
<polygon fill="white" stroke="red" points="796,-116.5 796,-137.5 850,-137.5 850,-116.5 796,-116.5"/>
<text text-anchor="middle" x="823" y="-124.5" font-family="Helvetica,sans-Serif" font-size="10.00">ranges.h</text>
</a>
</g>
<!-- Node2&#45;&gt;Node15 -->
<g id="edge58" class="edge"><title>Node2&#45;&gt;Node15</title>
<path fill="none" stroke="midnightblue" d="M1296.97,-242.41C1180.86,-240.288 850.139,-231.181 818,-196 803.5,-180.127 811.722,-152.717 817.98,-137.664"/>
<polygon fill="midnightblue" stroke="midnightblue" points="1297.14,-245.914 1307.2,-242.589 1297.27,-238.915 1297.14,-245.914"/>
</g>
<!-- Node16 -->
<g id="node33" class="node"><title>Node16</title>
<a xlink:href="geometry_8h.html" target="_top" xlink:title="geometry.h">
<polygon fill="white" stroke="red" points="685.5,-58.5 685.5,-79.5 750.5,-79.5 750.5,-58.5 685.5,-58.5"/>
<text text-anchor="middle" x="718" y="-66.5" font-family="Helvetica,sans-Serif" font-size="10.00">geometry.h</text>
</a>
</g>
<!-- Node2&#45;&gt;Node16 -->
<g id="edge56" class="edge"><title>Node2&#45;&gt;Node16</title>
<path fill="none" stroke="midnightblue" d="M1297.15,-241.492C1162.25,-236.195 730.038,-217.596 710,-196 679.797,-163.448 701.954,-103.721 712.869,-79.5597"/>
<polygon fill="midnightblue" stroke="midnightblue" points="1297.31,-245 1307.44,-241.892 1297.58,-238.006 1297.31,-245"/>
</g>
<!-- Node17 -->
<g id="node35" class="node"><title>Node17</title>
<a xlink:href="mouseevent_8h.html" target="_top" xlink:title="mouseevent.h">
<polygon fill="white" stroke="red" points="646,-0.5 646,-21.5 724,-21.5 724,-0.5 646,-0.5"/>
<text text-anchor="middle" x="685" y="-8.5" font-family="Helvetica,sans-Serif" font-size="10.00">mouseevent.h</text>
</a>
</g>
<!-- Node2&#45;&gt;Node17 -->
<g id="edge122" class="edge"><title>Node2&#45;&gt;Node17</title>
<path fill="none" stroke="midnightblue" d="M1297.19,-241.442C1160.47,-235.918 717.219,-216.491 695,-196 645.109,-149.989 670.667,-54.147 681.194,-21.8743"/>
<polygon fill="midnightblue" stroke="midnightblue" points="1297.11,-244.942 1307.24,-241.846 1297.39,-237.947 1297.11,-244.942"/>
</g>
<!-- Node18 -->
<g id="node37" class="node"><title>Node18</title>
<a xlink:href="samplingdata_8h.html" target="_top" xlink:title="samplingdata.h">
<polygon fill="white" stroke="red" points="781.5,-58.5 781.5,-79.5 864.5,-79.5 864.5,-58.5 781.5,-58.5"/>
<text text-anchor="middle" x="823" y="-66.5" font-family="Helvetica,sans-Serif" font-size="10.00">samplingdata.h</text>
</a>
</g>
<!-- Node2&#45;&gt;Node18 -->
<g id="edge66" class="edge"><title>Node2&#45;&gt;Node18</title>
<path fill="none" stroke="midnightblue" d="M1297.13,-240.957C1213.7,-236.199 1023.58,-222.702 965,-196 904.208,-168.29 850.941,-105.237 831.174,-79.8696"/>
<polygon fill="midnightblue" stroke="midnightblue" points="1297.05,-244.458 1307.23,-241.52 1297.44,-237.468 1297.05,-244.458"/>
</g>
<!-- Node19 -->
<g id="node40" class="node"><title>Node19</title>
<a xlink:href="ailayer_8h.html" target="_top" xlink:title="ailayer.h">
<polygon fill="white" stroke="red" points="892.5,-58.5 892.5,-79.5 945.5,-79.5 945.5,-58.5 892.5,-58.5"/>
<text text-anchor="middle" x="919" y="-66.5" font-family="Helvetica,sans-Serif" font-size="10.00">ailayer.h</text>
</a>
</g>
<!-- Node2&#45;&gt;Node19 -->
<g id="edge92" class="edge"><title>Node2&#45;&gt;Node19</title>
<path fill="none" stroke="midnightblue" d="M1297.13,-241.826C1217.35,-238.801 1041.49,-228.537 992,-196 949.075,-167.777 928.44,-105.021 921.644,-79.8013"/>
<polygon fill="midnightblue" stroke="midnightblue" points="1297.15,-245.329 1307.27,-242.191 1297.4,-238.334 1297.15,-245.329"/>
</g>
<!-- Node20 -->
<g id="node42" class="node"><title>Node20</title>
<a xlink:href="sorting_8h.html" target="_top" xlink:title="sorting.h">
<polygon fill="white" stroke="red" points="966,-116.5 966,-137.5 1020,-137.5 1020,-116.5 966,-116.5"/>
<text text-anchor="middle" x="993" y="-124.5" font-family="Helvetica,sans-Serif" font-size="10.00">sorting.h</text>
</a>
</g>
<!-- Node2&#45;&gt;Node20 -->
<g id="edge90" class="edge"><title>Node2&#45;&gt;Node20</title>
<path fill="none" stroke="midnightblue" d="M1297.39,-239.824C1214.77,-232.846 1029.98,-215.259 1009,-196 992.694,-181.032 991.408,-153 992.082,-137.676"/>
<polygon fill="midnightblue" stroke="midnightblue" points="1297.15,-243.316 1307.41,-240.66 1297.73,-236.341 1297.15,-243.316"/>
</g>
<!-- Node21 -->
<g id="node44" class="node"><title>Node21</title>
<a xlink:href="idxable_8h.html" target="_top" xlink:title="idxable.h">
<polygon fill="white" stroke="red" points="975,-58.5 975,-79.5 1031,-79.5 1031,-58.5 975,-58.5"/>
<text text-anchor="middle" x="1003" y="-66.5" font-family="Helvetica,sans-Serif" font-size="10.00">idxable.h</text>
</a>
</g>
<!-- Node2&#45;&gt;Node21 -->
<g id="edge96" class="edge"><title>Node2&#45;&gt;Node21</title>
<path fill="none" stroke="midnightblue" d="M1297.31,-242.24C1225.28,-239.996 1077.23,-231.116 1042,-196 1016.49,-170.568 1040.78,-150.041 1029,-116 1024.43,-102.782 1016.29,-88.9174 1010.33,-79.7023"/>
<polygon fill="midnightblue" stroke="midnightblue" points="1297.27,-245.741 1307.36,-242.526 1297.47,-238.743 1297.27,-245.741"/>
</g>
<!-- Node22 -->
<g id="node46" class="node"><title>Node22</title>
<a xlink:href="bindatadesc_8h.html" target="_top" xlink:title="bindatadesc.h">
<polygon fill="white" stroke="red" points="1050.5,-174.5 1050.5,-195.5 1127.5,-195.5 1127.5,-174.5 1050.5,-174.5"/>
<text text-anchor="middle" x="1089" y="-182.5" font-family="Helvetica,sans-Serif" font-size="10.00">bindatadesc.h</text>
</a>
</g>
<!-- Node2&#45;&gt;Node22 -->
<g id="edge48" class="edge"><title>Node2&#45;&gt;Node22</title>
<path fill="none" stroke="midnightblue" d="M1297.61,-233.793C1257.09,-224.319 1192.13,-209.132 1136,-196 1133.31,-195.37 1130.53,-194.72 1127.73,-194.065"/>
<polygon fill="midnightblue" stroke="midnightblue" points="1296.84,-237.205 1307.37,-236.074 1298.43,-230.389 1296.84,-237.205"/>
</g>
<!-- Node23 -->
<g id="node48" class="node"><title>Node23</title>
<a xlink:href="idxpair_8h.html" target="_top" xlink:title="idxpair.h">
<polygon fill="white" stroke="red" points="1144.5,-174.5 1144.5,-195.5 1197.5,-195.5 1197.5,-174.5 1144.5,-174.5"/>
<text text-anchor="middle" x="1171" y="-182.5" font-family="Helvetica,sans-Serif" font-size="10.00">idxpair.h</text>
</a>
</g>
<!-- Node2&#45;&gt;Node23 -->
<g id="edge50" class="edge"><title>Node2&#45;&gt;Node23</title>
<path fill="none" stroke="midnightblue" d="M1297.73,-229.28C1266.87,-218.498 1224.73,-203.772 1197.68,-194.322"/>
<polygon fill="midnightblue" stroke="midnightblue" points="1296.73,-232.636 1307.32,-232.631 1299.04,-226.028 1296.73,-232.636"/>
</g>
<!-- Node24 -->
<g id="node50" class="node"><title>Node24</title>
<a xlink:href="color_8h.html" target="_top" xlink:title="color.h">
<polygon fill="white" stroke="red" points="1215,-174.5 1215,-195.5 1261,-195.5 1261,-174.5 1215,-174.5"/>
<text text-anchor="middle" x="1238" y="-182.5" font-family="Helvetica,sans-Serif" font-size="10.00">color.h</text>
</a>
</g>
<!-- Node2&#45;&gt;Node24 -->
<g id="edge52" class="edge"><title>Node2&#45;&gt;Node24</title>
<path fill="none" stroke="midnightblue" d="M1309.86,-227.101C1292.73,-217.066 1271.08,-204.381 1256.04,-195.571"/>
<polygon fill="midnightblue" stroke="midnightblue" points="1308.44,-230.327 1318.84,-232.362 1311.98,-224.287 1308.44,-230.327"/>
</g>
<!-- Node25 -->
<g id="node52" class="node"><title>Node25</title>
<a xlink:href="genc_8h.html" target="_top" xlink:title="genc.h">
<polygon fill="white" stroke="red" points="1279,-174.5 1279,-195.5 1325,-195.5 1325,-174.5 1279,-174.5"/>
<text text-anchor="middle" x="1302" y="-182.5" font-family="Helvetica,sans-Serif" font-size="10.00">genc.h</text>
</a>
</g>
<!-- Node2&#45;&gt;Node25 -->
<g id="edge54" class="edge"><title>Node2&#45;&gt;Node25</title>
<path fill="none" stroke="midnightblue" d="M1325.33,-223.667C1319.68,-214.295 1313.1,-203.402 1308.38,-195.571"/>
<polygon fill="midnightblue" stroke="midnightblue" points="1322.42,-225.608 1330.58,-232.362 1328.41,-221.992 1322.42,-225.608"/>
</g>
<!-- Node26 -->
<g id="node56" class="node"><title>Node26</title>
<a xlink:href="math2_8h.html" target="_top" xlink:title="math2.h">
<polygon fill="white" stroke="red" points="719,-174.5 719,-195.5 771,-195.5 771,-174.5 719,-174.5"/>
<text text-anchor="middle" x="745" y="-182.5" font-family="Helvetica,sans-Serif" font-size="10.00">math2.h</text>
</a>
</g>
<!-- Node2&#45;&gt;Node26 -->
<g id="edge60" class="edge"><title>Node2&#45;&gt;Node26</title>
<path fill="none" stroke="midnightblue" d="M1297.26,-242.111C1206.05,-239.53 974.896,-229.899 785,-196 780.462,-195.19 775.693,-194.097 771.093,-192.914"/>
<polygon fill="midnightblue" stroke="midnightblue" points="1297.34,-245.615 1307.43,-242.386 1297.53,-238.617 1297.34,-245.615"/>
</g>
<!-- Node27 -->
<g id="node61" class="node"><title>Node27</title>
<a xlink:href="envvars_8h.html" target="_top" xlink:title="envvars.h">
<polygon fill="white" stroke="red" points="1342.5,-174.5 1342.5,-195.5 1401.5,-195.5 1401.5,-174.5 1342.5,-174.5"/>
<text text-anchor="middle" x="1372" y="-182.5" font-family="Helvetica,sans-Serif" font-size="10.00">envvars.h</text>
</a>
</g>
<!-- Node2&#45;&gt;Node27 -->
<g id="edge68" class="edge"><title>Node2&#45;&gt;Node27</title>
<path fill="none" stroke="midnightblue" d="M1348.67,-223.667C1354.32,-214.295 1360.9,-203.402 1365.62,-195.571"/>
<polygon fill="midnightblue" stroke="midnightblue" points="1345.59,-221.992 1343.42,-232.362 1351.58,-225.608 1345.59,-221.992"/>
</g>
<!-- Node28 -->
<g id="node63" class="node"><title>Node28</title>
<a xlink:href="file_8h.html" target="_top" xlink:title="file.h">
<polygon fill="white" stroke="red" points="1438,-116.5 1438,-137.5 1476,-137.5 1476,-116.5 1438,-116.5"/>
<text text-anchor="middle" x="1457" y="-124.5" font-family="Helvetica,sans-Serif" font-size="10.00">file.h</text>
</a>
</g>
<!-- Node2&#45;&gt;Node28 -->
<g id="edge70" class="edge"><title>Node2&#45;&gt;Node28</title>
<path fill="none" stroke="midnightblue" d="M1366.91,-227.427C1380.95,-219.239 1397.34,-208.34 1410,-196 1428.27,-178.197 1443.63,-152.26 1451.45,-137.788"/>
<polygon fill="midnightblue" stroke="midnightblue" points="1365.08,-224.443 1358.09,-232.405 1368.52,-230.54 1365.08,-224.443"/>
</g>
<!-- Node29 -->
<g id="node65" class="node"><title>Node29</title>
<a xlink:href="timefun_8h.html" target="_top" xlink:title="timefun.h">
<polygon fill="white" stroke="red" points="1456.5,-174.5 1456.5,-195.5 1513.5,-195.5 1513.5,-174.5 1456.5,-174.5"/>
<text text-anchor="middle" x="1485" y="-182.5" font-family="Helvetica,sans-Serif" font-size="10.00">timefun.h</text>
</a>
</g>
<!-- Node2&#45;&gt;Node29 -->
<g id="edge72" class="edge"><title>Node2&#45;&gt;Node29</title>
<path fill="none" stroke="midnightblue" d="M1373.36,-228.751C1399.5,-218.509 1434.17,-204.921 1457.9,-195.621"/>
<polygon fill="midnightblue" stroke="midnightblue" points="1371.84,-225.589 1363.8,-232.497 1374.39,-232.107 1371.84,-225.589"/>
</g>
<!-- Node30 -->
<g id="node68" class="node"><title>Node30</title>
<a xlink:href="oddirs_8h.html" target="_top" xlink:title="oddirs.h">
<polygon fill="white" stroke="red" points="1530.5,-174.5 1530.5,-195.5 1581.5,-195.5 1581.5,-174.5 1530.5,-174.5"/>
<text text-anchor="middle" x="1556" y="-182.5" font-family="Helvetica,sans-Serif" font-size="10.00">oddirs.h</text>
</a>
</g>
<!-- Node2&#45;&gt;Node30 -->
<g id="edge76" class="edge"><title>Node2&#45;&gt;Node30</title>
<path fill="none" stroke="midnightblue" d="M1376.68,-233.7C1414.27,-224.703 1472.23,-210.356 1522,-196 1524.74,-195.209 1527.6,-194.347 1530.43,-193.465"/>
<polygon fill="midnightblue" stroke="midnightblue" points="1375.55,-230.369 1366.63,-236.091 1377.17,-237.179 1375.55,-230.369"/>
</g>
<!-- Node31 -->
<g id="node70" class="node"><title>Node31</title>
<a xlink:href="odplugin_8h.html" target="_top" xlink:title="odplugin.h">
<polygon fill="white" stroke="black" points="1598.5,-174.5 1598.5,-195.5 1659.5,-195.5 1659.5,-174.5 1598.5,-174.5"/>
<text text-anchor="middle" x="1629" y="-182.5" font-family="Helvetica,sans-Serif" font-size="10.00">odplugin.h</text>
</a>
</g>
<!-- Node2&#45;&gt;Node31 -->
<g id="edge78" class="edge"><title>Node2&#45;&gt;Node31</title>
<path fill="none" stroke="midnightblue" d="M1376.86,-236.75C1426.91,-228.639 1515.27,-213.443 1590,-196 1592.74,-195.36 1595.58,-194.652 1598.41,-193.912"/>
<polygon fill="midnightblue" stroke="midnightblue" points="1376.1,-233.328 1366.78,-238.372 1377.21,-240.239 1376.1,-233.328"/>
</g>
<!-- Node32 -->
<g id="node72" class="node"><title>Node32</title>
<a xlink:href="odsysmem_8h.html" target="_top" xlink:title="odsysmem.h">
<polygon fill="white" stroke="black" points="1676.5,-174.5 1676.5,-195.5 1749.5,-195.5 1749.5,-174.5 1676.5,-174.5"/>
<text text-anchor="middle" x="1713" y="-182.5" font-family="Helvetica,sans-Serif" font-size="10.00">odsysmem.h</text>
</a>
</g>
<!-- Node2&#45;&gt;Node32 -->
<g id="edge80" class="edge"><title>Node2&#45;&gt;Node32</title>
<path fill="none" stroke="midnightblue" d="M1377.04,-238.608C1439.49,-231.467 1563.75,-216.092 1668,-196 1670.69,-195.483 1673.45,-194.908 1676.23,-194.302"/>
<polygon fill="midnightblue" stroke="midnightblue" points="1376.38,-235.161 1366.83,-239.764 1377.16,-242.116 1376.38,-235.161"/>
</g>
<!-- Node33 -->
<g id="node74" class="node"><title>Node33</title>
<a xlink:href="odver_8h.html" target="_top" xlink:title="odver.h">
<polygon fill="white" stroke="black" points="1766.5,-174.5 1766.5,-195.5 1815.5,-195.5 1815.5,-174.5 1766.5,-174.5"/>
<text text-anchor="middle" x="1791" y="-182.5" font-family="Helvetica,sans-Serif" font-size="10.00">odver.h</text>
</a>
</g>
<!-- Node2&#45;&gt;Node33 -->
<g id="edge82" class="edge"><title>Node2&#45;&gt;Node33</title>
<path fill="none" stroke="midnightblue" d="M1377.14,-241.332C1452.55,-237.58 1620.22,-226.299 1758,-196 1760.71,-195.403 1763.52,-194.666 1766.29,-193.858"/>
<polygon fill="midnightblue" stroke="midnightblue" points="1376.52,-237.858 1366.7,-241.832 1376.85,-244.85 1376.52,-237.858"/>
</g>
<!-- Node34 -->
<g id="node76" class="node"><title>Node34</title>
<a xlink:href="sharedlibs_8h.html" target="_top" xlink:title="sharedlibs.h">
<polygon fill="white" stroke="red" points="1832.5,-174.5 1832.5,-195.5 1901.5,-195.5 1901.5,-174.5 1832.5,-174.5"/>
<text text-anchor="middle" x="1867" y="-182.5" font-family="Helvetica,sans-Serif" font-size="10.00">sharedlibs.h</text>
</a>
</g>
<!-- Node2&#45;&gt;Node34 -->
<g id="edge84" class="edge"><title>Node2&#45;&gt;Node34</title>
<path fill="none" stroke="midnightblue" d="M1376.63,-241.249C1459.98,-237.113 1659.31,-224.834 1824,-196 1826.73,-195.522 1829.55,-194.96 1832.37,-194.349"/>
<polygon fill="midnightblue" stroke="midnightblue" points="1376.4,-237.756 1366.58,-241.736 1376.74,-244.748 1376.4,-237.756"/>
</g>
<!-- Node35 -->
<g id="node78" class="node"><title>Node35</title>
<a xlink:href="strmoper_8h.html" target="_top" xlink:title="strmoper.h">
<polygon fill="white" stroke="black" points="1918.5,-174.5 1918.5,-195.5 1981.5,-195.5 1981.5,-174.5 1918.5,-174.5"/>
<text text-anchor="middle" x="1950" y="-182.5" font-family="Helvetica,sans-Serif" font-size="10.00">strmoper.h</text>
</a>
</g>
<!-- Node2&#45;&gt;Node35 -->
<g id="edge86" class="edge"><title>Node2&#45;&gt;Node35</title>
<path fill="none" stroke="midnightblue" d="M1376.94,-242.28C1470.71,-240.036 1711.97,-231.035 1910,-196 1912.7,-195.523 1915.47,-194.946 1918.25,-194.308"/>
<polygon fill="midnightblue" stroke="midnightblue" points="1376.69,-238.785 1366.77,-242.511 1376.85,-245.783 1376.69,-238.785"/>
</g>
<!-- Node36 -->
<g id="node80" class="node"><title>Node36</title>
<a xlink:href="winutils_8h.html" target="_top" xlink:title="winutils.h">
<polygon fill="white" stroke="black" points="1999,-174.5 1999,-195.5 2057,-195.5 2057,-174.5 1999,-174.5"/>
<text text-anchor="middle" x="2028" y="-182.5" font-family="Helvetica,sans-Serif" font-size="10.00">winutils.h</text>
</a>
</g>
<!-- Node2&#45;&gt;Node36 -->
<g id="edge88" class="edge"><title>Node2&#45;&gt;Node36</title>
<path fill="none" stroke="midnightblue" d="M1376.76,-241.234C1499.47,-235.613 1871.09,-217.247 1990,-196 1992.84,-195.493 1995.77,-194.856 1998.69,-194.145"/>
<polygon fill="midnightblue" stroke="midnightblue" points="1376.51,-237.742 1366.68,-241.693 1376.83,-244.735 1376.51,-237.742"/>
</g>
<!-- Node37 -->
<g id="node84" class="node"><title>Node37</title>
<a xlink:href="angles_8h.html" target="_top" xlink:title="angles.h">
<polygon fill="white" stroke="red" points="2074.5,-174.5 2074.5,-195.5 2127.5,-195.5 2127.5,-174.5 2074.5,-174.5"/>
<text text-anchor="middle" x="2101" y="-182.5" font-family="Helvetica,sans-Serif" font-size="10.00">angles.h</text>
</a>
</g>
<!-- Node2&#45;&gt;Node37 -->
<g id="edge94" class="edge"><title>Node2&#45;&gt;Node37</title>
<path fill="none" stroke="midnightblue" d="M1376.92,-241.689C1509.16,-237.15 1932.02,-220.996 2066,-196 2068.76,-195.486 2071.6,-194.824 2074.41,-194.079"/>
<polygon fill="midnightblue" stroke="midnightblue" points="1376.71,-238.194 1366.83,-242.032 1376.95,-245.19 1376.71,-238.194"/>
</g>
<!-- Node38 -->
<g id="node87" class="node"><title>Node38</title>
<a xlink:href="changetracker_8h.html" target="_top" xlink:title="changetracker.h">
<polygon fill="white" stroke="red" points="2145,-174.5 2145,-195.5 2231,-195.5 2231,-174.5 2145,-174.5"/>
<text text-anchor="middle" x="2188" y="-182.5" font-family="Helvetica,sans-Serif" font-size="10.00">changetracker.h</text>
</a>
</g>
<!-- Node2&#45;&gt;Node38 -->
<g id="edge98" class="edge"><title>Node2&#45;&gt;Node38</title>
<path fill="none" stroke="midnightblue" d="M1376.87,-241.447C1517.02,-235.863 1986.68,-216.07 2136,-196 2138.93,-195.607 2141.93,-195.14 2144.96,-194.624"/>
<polygon fill="midnightblue" stroke="midnightblue" points="1376.45,-237.961 1366.59,-241.854 1376.73,-244.955 1376.45,-237.961"/>
</g>
<!-- Node39 -->
<g id="node89" class="node"><title>Node39</title>
<a xlink:href="checksum_8h.html" target="_top" xlink:title="checksum.h">
<polygon fill="white" stroke="black" points="2249,-174.5 2249,-195.5 2319,-195.5 2319,-174.5 2249,-174.5"/>
<text text-anchor="middle" x="2284" y="-182.5" font-family="Helvetica,sans-Serif" font-size="10.00">checksum.h</text>
</a>
</g>
<!-- Node2&#45;&gt;Node39 -->
<g id="edge100" class="edge"><title>Node2&#45;&gt;Node39</title>
<path fill="none" stroke="midnightblue" d="M1376.99,-241.946C1528.84,-237.783 2069.81,-221.459 2240,-196 2242.8,-195.581 2245.69,-195.062 2248.58,-194.479"/>
<polygon fill="midnightblue" stroke="midnightblue" points="1376.64,-238.454 1366.74,-242.224 1376.83,-245.451 1376.64,-238.454"/>
</g>
<!-- Node40 -->
<g id="node91" class="node"><title>Node40</title>
<a xlink:href="curvature_8h.html" target="_top" xlink:title="curvature.h">
<polygon fill="white" stroke="black" points="2336.5,-174.5 2336.5,-195.5 2401.5,-195.5 2401.5,-174.5 2336.5,-174.5"/>
<text text-anchor="middle" x="2369" y="-182.5" font-family="Helvetica,sans-Serif" font-size="10.00">curvature.h</text>
</a>
</g>
<!-- Node2&#45;&gt;Node40 -->
<g id="edge102" class="edge"><title>Node2&#45;&gt;Node40</title>
<path fill="none" stroke="midnightblue" d="M1377.13,-242.246C1538.45,-239.039 2140.01,-225.327 2328,-196 2330.77,-195.568 2333.62,-195.022 2336.46,-194.406"/>
<polygon fill="midnightblue" stroke="midnightblue" points="1376.64,-238.755 1366.72,-242.451 1376.78,-245.754 1376.64,-238.755"/>
</g>
<!-- Node41 -->
<g id="node93" class="node"><title>Node41</title>
<a xlink:href="scaler_8h.html" target="_top" xlink:title="scaler.h">
<polygon fill="white" stroke="red" points="2418.5,-174.5 2418.5,-195.5 2469.5,-195.5 2469.5,-174.5 2418.5,-174.5"/>
<text text-anchor="middle" x="2444" y="-182.5" font-family="Helvetica,sans-Serif" font-size="10.00">scaler.h</text>
</a>
</g>
<!-- Node2&#45;&gt;Node41 -->
<g id="edge104" class="edge"><title>Node2&#45;&gt;Node41</title>
<path fill="none" stroke="midnightblue" d="M1376.87,-242.686C1546.15,-241.133 2205.87,-232.795 2410,-196 2412.69,-195.516 2415.45,-194.873 2418.2,-194.141"/>
<polygon fill="midnightblue" stroke="midnightblue" points="1376.64,-239.188 1366.67,-242.777 1376.7,-246.188 1376.64,-239.188"/>
</g>
<!-- Node42 -->
<g id="node96" class="node"><title>Node42</title>
<a xlink:href="statgrubbs_8h.html" target="_top" xlink:title="statgrubbs.h">
<polygon fill="white" stroke="black" points="2486.5,-174.5 2486.5,-195.5 2557.5,-195.5 2557.5,-174.5 2486.5,-174.5"/>
<text text-anchor="middle" x="2522" y="-182.5" font-family="Helvetica,sans-Serif" font-size="10.00">statgrubbs.h</text>
</a>
</g>
<!-- Node2&#45;&gt;Node42 -->
<g id="edge108" class="edge"><title>Node2&#45;&gt;Node42</title>
<path fill="none" stroke="midnightblue" d="M1376.76,-242.449C1552.27,-239.851 2258.65,-227.599 2478,-196 2480.65,-195.618 2483.37,-195.144 2486.1,-194.608"/>
<polygon fill="midnightblue" stroke="midnightblue" points="1376.62,-238.951 1366.68,-242.597 1376.73,-245.95 1376.62,-238.951"/>
</g>
<!-- Node43 -->
<g id="node99" class="node"><title>Node43</title>
<a xlink:href="timeser_8h.html" target="_top" xlink:title="timeser.h">
<polygon fill="white" stroke="black" points="2574.5,-174.5 2574.5,-195.5 2631.5,-195.5 2631.5,-174.5 2574.5,-174.5"/>
<text text-anchor="middle" x="2603" y="-182.5" font-family="Helvetica,sans-Serif" font-size="10.00">timeser.h</text>
</a>
</g>
<!-- Node2&#45;&gt;Node43 -->
<g id="edge112" class="edge"><title>Node2&#45;&gt;Node43</title>
<path fill="none" stroke="midnightblue" d="M1376.56,-242.819C1560.02,-241.775 2329.11,-235.104 2566,-196 2568.78,-195.542 2571.64,-194.937 2574.48,-194.248"/>
<polygon fill="midnightblue" stroke="midnightblue" points="1376.52,-239.319 1366.54,-242.873 1376.56,-246.319 1376.52,-239.319"/>
</g>
<!-- Node44 -->
<g id="node101" class="node"><title>Node44</title>
<a xlink:href="datainterp_8h.html" target="_top" xlink:title="datainterp.h">
<polygon fill="white" stroke="red" points="2649,-174.5 2649,-195.5 2717,-195.5 2717,-174.5 2649,-174.5"/>
<text text-anchor="middle" x="2683" y="-182.5" font-family="Helvetica,sans-Serif" font-size="10.00">datainterp.h</text>
</a>
</g>
<!-- Node2&#45;&gt;Node44 -->
<g id="edge114" class="edge"><title>Node2&#45;&gt;Node44</title>
<path fill="none" stroke="midnightblue" d="M1376.73,-242.714C1567.1,-241.168 2387.13,-232.473 2640,-196 2642.9,-195.582 2645.88,-195.046 2648.87,-194.435"/>
<polygon fill="midnightblue" stroke="midnightblue" points="1376.59,-239.215 1366.62,-242.794 1376.65,-246.215 1376.59,-239.215"/>
</g>
<!-- Node45 -->
<g id="node103" class="node"><title>Node45</title>
<a xlink:href="rawarray_8h.html" target="_top" xlink:title="rawarray.h">
<polygon fill="white" stroke="red" points="2735,-174.5 2735,-195.5 2797,-195.5 2797,-174.5 2735,-174.5"/>
<text text-anchor="middle" x="2766" y="-182.5" font-family="Helvetica,sans-Serif" font-size="10.00">rawarray.h</text>
</a>
</g>
<!-- Node2&#45;&gt;Node45 -->
<g id="edge116" class="edge"><title>Node2&#45;&gt;Node45</title>
<path fill="none" stroke="midnightblue" d="M1376.78,-242.912C1574.83,-242.281 2455.62,-237.168 2726,-196 2728.85,-195.566 2731.78,-195 2734.71,-194.352"/>
<polygon fill="midnightblue" stroke="midnightblue" points="1376.54,-239.412 1366.55,-242.942 1376.57,-246.412 1376.54,-239.412"/>
</g>
<!-- Node46 -->
<g id="node105" class="node"><title>Node46</title>
<a xlink:href="ibmformat_8h.html" target="_top" xlink:title="ibmformat.h">
<polygon fill="white" stroke="black" points="2815,-174.5 2815,-195.5 2883,-195.5 2883,-174.5 2815,-174.5"/>
<text text-anchor="middle" x="2849" y="-182.5" font-family="Helvetica,sans-Serif" font-size="10.00">ibmformat.h</text>
</a>
</g>
<!-- Node2&#45;&gt;Node46 -->
<g id="edge118" class="edge"><title>Node2&#45;&gt;Node46</title>
<path fill="none" stroke="midnightblue" d="M1376.76,-242.901C1581.53,-242.215 2518.58,-236.859 2806,-196 2808.9,-195.588 2811.88,-195.056 2814.87,-194.448"/>
<polygon fill="midnightblue" stroke="midnightblue" points="1376.74,-239.401 1366.75,-242.933 1376.77,-246.401 1376.74,-239.401"/>
</g>
<!-- Node47 -->
<g id="node107" class="node"><title>Node47</title>
<a xlink:href="ioobjtags_8h.html" target="_top" xlink:title="ioobjtags.h">
<polygon fill="white" stroke="black" points="2901,-174.5 2901,-195.5 2965,-195.5 2965,-174.5 2901,-174.5"/>
<text text-anchor="middle" x="2933" y="-182.5" font-family="Helvetica,sans-Serif" font-size="10.00">ioobjtags.h</text>
</a>
</g>
<!-- Node2&#45;&gt;Node47 -->
<g id="edge120" class="edge"><title>Node2&#45;&gt;Node47</title>
<path fill="none" stroke="midnightblue" d="M1376.82,-242.349C1604.65,-238.549 2738.29,-218.629 2892,-196 2894.92,-195.571 2897.92,-195.007 2900.92,-194.361"/>
<polygon fill="midnightblue" stroke="midnightblue" points="1376.6,-238.852 1366.66,-242.518 1376.72,-245.851 1376.6,-238.852"/>
</g>
<!-- Node48 -->
<g id="node110" class="node"><title>Node48</title>
<a xlink:href="variogramcomputers_8h.html" target="_top" xlink:title="variogramcomputers.h">
<polygon fill="white" stroke="black" points="2982.5,-174.5 2982.5,-195.5 3095.5,-195.5 3095.5,-174.5 2982.5,-174.5"/>
<text text-anchor="middle" x="3039" y="-182.5" font-family="Helvetica,sans-Serif" font-size="10.00">variogramcomputers.h</text>
</a>
</g>
<!-- Node2&#45;&gt;Node48 -->
<g id="edge124" class="edge"><title>Node2&#45;&gt;Node48</title>
<path fill="none" stroke="midnightblue" d="M1376.63,-242.61C1594.63,-240.353 2649.85,-227.925 2974,-196 2976.73,-195.731 2979.53,-195.415 2982.34,-195.065"/>
<polygon fill="midnightblue" stroke="midnightblue" points="1376.56,-239.111 1366.59,-242.713 1376.63,-246.11 1376.56,-239.111"/>
</g>
<!-- Node49 -->
<g id="node113" class="node"><title>Node49</title>
<a xlink:href="systeminfo_8h.html" target="_top" xlink:title="systeminfo.h">
<polygon fill="white" stroke="black" points="3112.5,-174.5 3112.5,-195.5 3185.5,-195.5 3185.5,-174.5 3112.5,-174.5"/>
<text text-anchor="middle" x="3149" y="-182.5" font-family="Helvetica,sans-Serif" font-size="10.00">systeminfo.h</text>
</a>
</g>
<!-- Node2&#45;&gt;Node49 -->
<g id="edge128" class="edge"><title>Node2&#45;&gt;Node49</title>
<path fill="none" stroke="midnightblue" d="M1377.04,-242.447C1623.3,-238.978 2927.83,-219.6 3104,-196 3106.71,-195.637 3109.49,-195.176 3112.28,-194.65"/>
<polygon fill="midnightblue" stroke="midnightblue" points="1376.71,-238.951 1366.77,-242.591 1376.81,-245.95 1376.71,-238.951"/>
</g>
<!-- Node50 -->
<g id="node115" class="node"><title>Node50</title>
<a xlink:href="faulthorintersect_8h.html" target="_top" xlink:title="faulthorintersect.h">
<polygon fill="white" stroke="black" points="3202.5,-174.5 3202.5,-195.5 3297.5,-195.5 3297.5,-174.5 3202.5,-174.5"/>
<text text-anchor="middle" x="3250" y="-182.5" font-family="Helvetica,sans-Serif" font-size="10.00">faulthorintersect.h</text>
</a>
</g>
<!-- Node2&#45;&gt;Node50 -->
<g id="edge130" class="edge"><title>Node2&#45;&gt;Node50</title>
<path fill="none" stroke="midnightblue" d="M1376.98,-242.906C1612.78,-242.214 2824.22,-236.702 3194,-196 3196.76,-195.696 3199.58,-195.328 3202.43,-194.912"/>
<polygon fill="midnightblue" stroke="midnightblue" points="1376.8,-239.407 1366.81,-242.935 1376.82,-246.407 1376.8,-239.407"/>
</g>
<!-- Node3&#45;&gt;Node4 -->
<g id="edge6" class="edge"><title>Node3&#45;&gt;Node4</title>
<path fill="none" stroke="midnightblue" d="M49.1867,-165.373C44.5341,-156.068 39.1602,-145.32 35.2853,-137.571"/>
<polygon fill="midnightblue" stroke="midnightblue" points="46.0783,-166.983 53.681,-174.362 52.3393,-163.852 46.0783,-166.983"/>
</g>
<!-- Node5&#45;&gt;Node6 -->
<g id="edge10" class="edge"><title>Node5&#45;&gt;Node6</title>
<path fill="none" stroke="midnightblue" d="M194.332,-164.784C190.855,-155.617 186.887,-145.157 184.01,-137.571"/>
<polygon fill="midnightblue" stroke="midnightblue" points="191.146,-166.253 197.965,-174.362 197.691,-163.771 191.146,-166.253"/>
</g>
<!-- Node6&#45;&gt;Node7 -->
<g id="edge12" class="edge"><title>Node6&#45;&gt;Node7</title>
<path fill="none" stroke="midnightblue" d="M168.333,-107.667C162.678,-98.2948 156.105,-87.4019 151.379,-79.5707"/>
<polygon fill="midnightblue" stroke="midnightblue" points="165.417,-109.608 173.58,-116.362 171.41,-105.992 165.417,-109.608"/>
</g>
<!-- Node10&#45;&gt;Node11 -->
<g id="edge22" class="edge"><title>Node10&#45;&gt;Node11</title>
<path fill="none" stroke="midnightblue" d="M459.383,-107.079C454.924,-97.8422 449.805,-87.2388 446.103,-79.5707"/>
<polygon fill="midnightblue" stroke="midnightblue" points="456.365,-108.878 463.864,-116.362 462.669,-105.835 456.365,-108.878"/>
</g>
<!-- Node12&#45;&gt;Node10 -->
<g id="edge26" class="edge"><title>Node12&#45;&gt;Node10</title>
<path fill="none" stroke="midnightblue" d="M494.525,-165.959C488.342,-156.522 481.11,-145.484 475.926,-137.571"/>
<polygon fill="midnightblue" stroke="midnightblue" points="491.622,-167.915 500.03,-174.362 497.478,-164.079 491.622,-167.915"/>
</g>
<!-- Node14&#45;&gt;Node15 -->
<g id="edge32" class="edge"><title>Node14&#45;&gt;Node15</title>
<path fill="none" stroke="midnightblue" d="M843.51,-165.373C838.536,-156.068 832.792,-145.32 828.65,-137.571"/>
<polygon fill="midnightblue" stroke="midnightblue" points="840.514,-167.192 848.314,-174.362 846.687,-163.893 840.514,-167.192"/>
</g>
<!-- Node14&#45;&gt;Node20 -->
<g id="edge44" class="edge"><title>Node14&#45;&gt;Node20</title>
<path fill="none" stroke="midnightblue" d="M888.474,-170.615C912.982,-160.389 945.358,-146.88 967.546,-137.621"/>
<polygon fill="midnightblue" stroke="midnightblue" points="887.053,-167.416 879.172,-174.497 889.748,-173.876 887.053,-167.416"/>
</g>
<!-- Node15&#45;&gt;Node16 -->
<g id="edge34" class="edge"><title>Node15&#45;&gt;Node16</title>
<path fill="none" stroke="midnightblue" d="M794.971,-111.517C776.689,-101.419 753.308,-88.5032 737.137,-79.5707"/>
<polygon fill="midnightblue" stroke="midnightblue" points="793.296,-114.59 803.741,-116.362 796.68,-108.463 793.296,-114.59"/>
</g>
<!-- Node15&#45;&gt;Node18 -->
<g id="edge38" class="edge"><title>Node15&#45;&gt;Node18</title>
<path fill="none" stroke="midnightblue" d="M816.495,-106.191C815.941,-97.1684 816.326,-86.9941 817.648,-79.5707"/>
<polygon fill="midnightblue" stroke="midnightblue" points="813.043,-106.814 817.636,-116.362 820,-106.034 813.043,-106.814"/>
</g>
<!-- Node15&#45;&gt;Node19 -->
<g id="edge42" class="edge"><title>Node15&#45;&gt;Node19</title>
<path fill="none" stroke="midnightblue" d="M849.316,-111.101C865.926,-101.066 886.921,-88.3808 901.504,-79.5707"/>
<polygon fill="midnightblue" stroke="midnightblue" points="847.357,-108.195 840.608,-116.362 850.977,-114.186 847.357,-108.195"/>
</g>
<!-- Node16&#45;&gt;Node17 -->
<g id="edge36" class="edge"><title>Node16&#45;&gt;Node17</title>
<path fill="none" stroke="midnightblue" d="M707,-49.6667C701.668,-40.2948 695.47,-29.4019 691.014,-21.5707"/>
<polygon fill="midnightblue" stroke="midnightblue" points="703.96,-51.4011 711.947,-58.3619 710.044,-47.9394 703.96,-51.4011"/>
</g>
<!-- Node18&#45;&gt;Node15 -->
<g id="edge40" class="edge"><title>Node18&#45;&gt;Node15</title>
<path fill="none" stroke="midnightblue" d="M829.5,-89.7276C830.059,-98.7427 829.681,-108.922 828.364,-116.362"/>
<polygon fill="midnightblue" stroke="midnightblue" points="832.953,-89.1144 828.352,-79.5707 825.997,-89.9004 832.953,-89.1144"/>
</g>
<!-- Node20&#45;&gt;Node21 -->
<g id="edge46" class="edge"><title>Node20&#45;&gt;Node21</title>
<path fill="none" stroke="midnightblue" d="M996.537,-106.488C998.105,-97.3924 999.884,-87.0756 1001.18,-79.5707"/>
<polygon fill="midnightblue" stroke="midnightblue" points="993.084,-105.913 994.834,-116.362 999.982,-107.102 993.084,-105.913"/>
</g>
<!-- Node26&#45;&gt;Node15 -->
<g id="edge62" class="edge"><title>Node26&#45;&gt;Node15</title>
<path fill="none" stroke="midnightblue" d="M767.514,-168.259C780.821,-158.364 797.265,-146.136 808.784,-137.571"/>
<polygon fill="midnightblue" stroke="midnightblue" points="765.243,-165.586 759.306,-174.362 769.42,-171.203 765.243,-165.586"/>
</g>
<!-- Node26&#45;&gt;Node16 -->
<g id="edge64" class="edge"><title>Node26&#45;&gt;Node16</title>
<path fill="none" stroke="midnightblue" d="M740.219,-164.458C734.448,-139.663 724.962,-98.9098 720.486,-79.6792"/>
<polygon fill="midnightblue" stroke="midnightblue" points="736.832,-165.349 742.508,-174.295 743.65,-163.762 736.832,-165.349"/>
</g>
<!-- Node29&#45;&gt;Node28 -->
<g id="edge74" class="edge"><title>Node29&#45;&gt;Node28</title>
<path fill="none" stroke="midnightblue" d="M1475.38,-165.079C1470.92,-155.842 1465.8,-145.239 1462.1,-137.571"/>
<polygon fill="midnightblue" stroke="midnightblue" points="1472.36,-166.878 1479.86,-174.362 1478.67,-163.835 1472.36,-166.878"/>
</g>
</g>
</svg>
