<?xml version="1.0" encoding="UTF-8" standalone="no"?>
<!DOCTYPE svg PUBLIC "-//W3C//DTD SVG 1.1//EN"
 "http://www.w3.org/Graphics/SVG/1.1/DTD/svg11.dtd">
<!-- Generated by graphviz version 2.26.0 (20091210.2329)
 -->
<!-- Title: factory.h Pages: 1 -->
<svg width="938pt" height="726pt"
 viewBox="0.00 0.00 938.07 726.00" xmlns="http://www.w3.org/2000/svg" xmlns:xlink="http://www.w3.org/1999/xlink">
<g id="graph1" class="graph" transform="scale(1 1) rotate(0) translate(4 722)">
<title>factory.h</title>
<polygon fill="white" stroke="white" points="-4,5 -4,-722 935.071,-722 935.071,5 -4,5"/>
<!-- Node1 -->
<g id="node1" class="node"><title>Node1</title>
<polygon fill="#bfbfbf" stroke="black" points="449.5,-696.5 449.5,-717.5 504.5,-717.5 504.5,-696.5 449.5,-696.5"/>
<text text-anchor="middle" x="477" y="-704.5" font-family="Helvetica,sans-Serif" font-size="10.00">factory.h</text>
</g>
<!-- Node2 -->
<g id="node3" class="node"><title>Node2</title>
<polygon fill="white" stroke="#bfbfbf" points="334.5,-0.5 334.5,-21.5 401.5,-21.5 401.5,-0.5 334.5,-0.5"/>
<text text-anchor="middle" x="368" y="-8.5" font-family="Helvetica,sans-Serif" font-size="10.00">basicmod.h</text>
</g>
<!-- Node1&#45;&gt;Node2 -->
<g id="edge2" class="edge"><title>Node1&#45;&gt;Node2</title>
<path fill="none" stroke="midnightblue" d="M449.293,-706.256C347.489,-702.783 0,-684.109 0,-591 0,-591 0,-591 0,-127 0,-88.5999 18.9914,-77.6214 52,-58 97.1939,-31.1352 248.753,-18.2843 324.353,-13.4244"/>
<polygon fill="midnightblue" stroke="midnightblue" points="324.735,-16.9074 334.497,-12.791 324.298,-9.92105 324.735,-16.9074"/>
</g>
<!-- Node3 -->
<g id="node5" class="node"><title>Node3</title>
<a xlink:href="bufstringset_8h.html" target="_top" xlink:title="bufstringset.h">
<polygon fill="white" stroke="black" points="170,-638.5 170,-659.5 246,-659.5 246,-638.5 170,-638.5"/>
<text text-anchor="middle" x="208" y="-646.5" font-family="Helvetica,sans-Serif" font-size="10.00">bufstringset.h</text>
</a>
</g>
<!-- Node1&#45;&gt;Node3 -->
<g id="edge4" class="edge"><title>Node1&#45;&gt;Node3</title>
<path fill="none" stroke="midnightblue" d="M449.476,-701.066C403.969,-691.254 312.484,-671.528 256.107,-659.373"/>
<polygon fill="midnightblue" stroke="midnightblue" points="256.521,-655.881 246.008,-657.195 255.045,-662.724 256.521,-655.881"/>
</g>
<!-- Node28 -->
<g id="node73" class="node"><title>Node28</title>
<a xlink:href="perthreadrepos_8h.html" target="_top" xlink:title="perthreadrepos.h">
<polygon fill="white" stroke="black" points="356.5,-638.5 356.5,-659.5 445.5,-659.5 445.5,-638.5 356.5,-638.5"/>
<text text-anchor="middle" x="401" y="-646.5" font-family="Helvetica,sans-Serif" font-size="10.00">perthreadrepos.h</text>
</a>
</g>
<!-- Node1&#45;&gt;Node28 -->
<g id="edge90" class="edge"><title>Node1&#45;&gt;Node28</title>
<path fill="none" stroke="midnightblue" d="M463.06,-696.362C451.812,-687.777 435.784,-675.546 422.835,-665.664"/>
<polygon fill="midnightblue" stroke="midnightblue" points="424.924,-662.855 414.851,-659.571 420.677,-668.42 424.924,-662.855"/>
</g>
<!-- Node31 -->
<g id="node87" class="node"><title>Node31</title>
<a xlink:href="ptrman_8h.html" target="_top" xlink:title="ptrman.h">
<polygon fill="white" stroke="black" points="847.5,-232.5 847.5,-253.5 902.5,-253.5 902.5,-232.5 847.5,-232.5"/>
<text text-anchor="middle" x="875" y="-240.5" font-family="Helvetica,sans-Serif" font-size="10.00">ptrman.h</text>
</a>
</g>
<!-- Node1&#45;&gt;Node31 -->
<g id="edge112" class="edge"><title>Node1&#45;&gt;Node31</title>
<path fill="none" stroke="midnightblue" d="M504.671,-704.955C594.928,-697.534 875,-668.28 875,-591 875,-591 875,-591 875,-359 875,-325.598 875,-286.785 875,-263.594"/>
<polygon fill="midnightblue" stroke="midnightblue" points="878.5,-263.556 875,-253.556 871.5,-263.556 878.5,-263.556"/>
</g>
<!-- Node35 -->
<g id="node99" class="node"><title>Node35</title>
<a xlink:href="typeset_8h.html" target="_top" xlink:title="typeset.h">
<polygon fill="white" stroke="black" points="620.5,-522.5 620.5,-543.5 677.5,-543.5 677.5,-522.5 620.5,-522.5"/>
<text text-anchor="middle" x="649" y="-530.5" font-family="Helvetica,sans-Serif" font-size="10.00">typeset.h</text>
</a>
</g>
<!-- Node1&#45;&gt;Node35 -->
<g id="edge128" class="edge"><title>Node1&#45;&gt;Node35</title>
<path fill="none" stroke="midnightblue" d="M484.661,-696.411C501.389,-673.668 543.059,-619.052 585,-580 597.015,-568.812 611.702,-557.862 623.975,-549.35"/>
<polygon fill="midnightblue" stroke="midnightblue" points="626.11,-552.13 632.412,-543.614 622.174,-546.342 626.11,-552.13"/>
</g>
<!-- Node36 -->
<g id="node103" class="node"><title>Node36</title>
<a xlink:href="uistring_8h.html" target="_top" xlink:title="uistring.h">
<polygon fill="white" stroke="black" points="594,-580.5 594,-601.5 650,-601.5 650,-580.5 594,-580.5"/>
<text text-anchor="middle" x="622" y="-588.5" font-family="Helvetica,sans-Serif" font-size="10.00">uistring.h</text>
</a>
</g>
<!-- Node1&#45;&gt;Node36 -->
<g id="edge134" class="edge"><title>Node1&#45;&gt;Node36</title>
<path fill="none" stroke="midnightblue" d="M503.962,-696.466C522.828,-688.284 547.96,-675.7 567,-660 584.227,-645.795 599.666,-625.399 609.769,-610.466"/>
<polygon fill="midnightblue" stroke="midnightblue" points="612.778,-612.259 615.338,-601.978 606.926,-608.419 612.778,-612.259"/>
</g>
<!-- Node3&#45;&gt;Node2 -->
<g id="edge6" class="edge"><title>Node3&#45;&gt;Node2</title>
<path fill="none" stroke="midnightblue" d="M169.849,-640.857C119.727,-627.662 38,-596.421 38,-533 38,-533 38,-533 38,-127 38,-90.1433 53.0381,-77.9945 84,-58 122.935,-32.8569 254.533,-19.4754 324.083,-14.0109"/>
<polygon fill="midnightblue" stroke="midnightblue" points="324.578,-17.4833 334.282,-13.2314 324.044,-10.5037 324.578,-17.4833"/>
</g>
<!-- Node4 -->
<g id="node8" class="node"><title>Node4</title>
<a xlink:href="bufstring_8h.html" target="_top" xlink:title="bufstring.h">
<polygon fill="white" stroke="black" points="201,-348.5 201,-369.5 263,-369.5 263,-348.5 201,-348.5"/>
<text text-anchor="middle" x="232" y="-356.5" font-family="Helvetica,sans-Serif" font-size="10.00">bufstring.h</text>
</a>
</g>
<!-- Node3&#45;&gt;Node4 -->
<g id="edge8" class="edge"><title>Node3&#45;&gt;Node4</title>
<path fill="none" stroke="midnightblue" d="M190.319,-638.247C163.09,-620.178 114,-580.954 114,-533 114,-533 114,-533 114,-475 114,-427.137 163.982,-392.44 198.886,-374.046"/>
<polygon fill="midnightblue" stroke="midnightblue" points="200.5,-377.151 207.836,-369.507 197.334,-370.908 200.5,-377.151"/>
</g>
<!-- Node21 -->
<g id="node53" class="node"><title>Node21</title>
<a xlink:href="manobjectset_8h.html" target="_top" xlink:title="manobjectset.h">
<polygon fill="white" stroke="black" points="428.5,-580.5 428.5,-601.5 511.5,-601.5 511.5,-580.5 428.5,-580.5"/>
<text text-anchor="middle" x="470" y="-588.5" font-family="Helvetica,sans-Serif" font-size="10.00">manobjectset.h</text>
</a>
</g>
<!-- Node3&#45;&gt;Node21 -->
<g id="edge64" class="edge"><title>Node3&#45;&gt;Node21</title>
<path fill="none" stroke="midnightblue" d="M246.097,-640.566C291.601,-630.493 367.918,-613.598 418.612,-602.376"/>
<polygon fill="midnightblue" stroke="midnightblue" points="419.386,-605.79 428.393,-600.211 417.872,-598.955 419.386,-605.79"/>
</g>
<!-- Node4&#45;&gt;Node2 -->
<g id="edge10" class="edge"><title>Node4&#45;&gt;Node2</title>
<path fill="none" stroke="midnightblue" d="M207.836,-348.493C173.314,-331.656 114,-295.14 114,-243 114,-243 114,-243 114,-127 114,-95.1919 109.721,-79.6757 133,-58 160.202,-32.6718 263.897,-19.8046 324.066,-14.3418"/>
<polygon fill="midnightblue" stroke="midnightblue" points="324.392,-17.8268 334.049,-13.4671 323.781,-10.8535 324.392,-17.8268"/>
</g>
<!-- Node5 -->
<g id="node11" class="node"><title>Node5</title>
<a xlink:href="fixedstring_8h.html" target="_top" xlink:title="fixedstring.h">
<polygon fill="white" stroke="black" points="395,-290.5 395,-311.5 465,-311.5 465,-290.5 395,-290.5"/>
<text text-anchor="middle" x="430" y="-298.5" font-family="Helvetica,sans-Serif" font-size="10.00">fixedstring.h</text>
</a>
</g>
<!-- Node4&#45;&gt;Node5 -->
<g id="edge12" class="edge"><title>Node4&#45;&gt;Node5</title>
<path fill="none" stroke="midnightblue" d="M263.374,-349.81C296.067,-340.233 347.606,-325.135 384.711,-314.267"/>
<polygon fill="midnightblue" stroke="midnightblue" points="386.153,-317.491 394.766,-311.321 384.185,-310.774 386.153,-317.491"/>
</g>
<!-- Node18 -->
<g id="node44" class="node"><title>Node18</title>
<a xlink:href="string2_8h.html" target="_top" xlink:title="string2.h">
<polygon fill="white" stroke="black" points="248,-116.5 248,-137.5 302,-137.5 302,-116.5 248,-116.5"/>
<text text-anchor="middle" x="275" y="-124.5" font-family="Helvetica,sans-Serif" font-size="10.00">string2.h</text>
</a>
</g>
<!-- Node4&#45;&gt;Node18 -->
<g id="edge52" class="edge"><title>Node4&#45;&gt;Node18</title>
<path fill="none" stroke="midnightblue" d="M233.959,-348.429C240.591,-312.648 262.274,-195.663 271.154,-147.748"/>
<polygon fill="midnightblue" stroke="midnightblue" points="274.648,-148.104 273.029,-137.634 267.765,-146.828 274.648,-148.104"/>
</g>
<!-- Node5&#45;&gt;Node2 -->
<g id="edge14" class="edge"><title>Node5&#45;&gt;Node2</title>
<path fill="none" stroke="midnightblue" d="M427.72,-290.335C418.606,-247.704 384.694,-89.0869 372.448,-31.8034"/>
<polygon fill="midnightblue" stroke="midnightblue" points="375.814,-30.8094 370.301,-21.7622 368.969,-32.2729 375.814,-30.8094"/>
</g>
<!-- Node6 -->
<g id="node14" class="node"><title>Node6</title>
<a xlink:href="odstring_8h.html" target="_top" xlink:title="odstring.h">
<polygon fill="white" stroke="black" points="432.5,-232.5 432.5,-253.5 491.5,-253.5 491.5,-232.5 432.5,-232.5"/>
<text text-anchor="middle" x="462" y="-240.5" font-family="Helvetica,sans-Serif" font-size="10.00">odstring.h</text>
</a>
</g>
<!-- Node5&#45;&gt;Node6 -->
<g id="edge16" class="edge"><title>Node5&#45;&gt;Node6</title>
<path fill="none" stroke="midnightblue" d="M435.869,-290.362C440.155,-282.595 446.087,-271.843 451.216,-262.546"/>
<polygon fill="midnightblue" stroke="midnightblue" points="454.402,-264.017 456.168,-253.571 448.273,-260.636 454.402,-264.017"/>
</g>
<!-- Node6&#45;&gt;Node2 -->
<g id="edge18" class="edge"><title>Node6&#45;&gt;Node2</title>
<path fill="none" stroke="midnightblue" d="M457.717,-232.429C443.158,-196.497 395.42,-78.6742 376.162,-31.1453"/>
<polygon fill="midnightblue" stroke="midnightblue" points="379.308,-29.5873 372.308,-21.6335 372.82,-32.216 379.308,-29.5873"/>
</g>
<!-- Node7 -->
<g id="node17" class="node"><title>Node7</title>
<a xlink:href="gendefs_8h.html" target="_top" xlink:title="gendefs.h">
<polygon fill="white" stroke="black" points="690.5,-174.5 690.5,-195.5 749.5,-195.5 749.5,-174.5 690.5,-174.5"/>
<text text-anchor="middle" x="720" y="-182.5" font-family="Helvetica,sans-Serif" font-size="10.00">gendefs.h</text>
</a>
</g>
<!-- Node6&#45;&gt;Node7 -->
<g id="edge20" class="edge"><title>Node6&#45;&gt;Node7</title>
<path fill="none" stroke="midnightblue" d="M491.596,-236.347C538.129,-225.886 628.447,-205.582 680.481,-193.884"/>
<polygon fill="midnightblue" stroke="midnightblue" points="681.364,-197.273 690.353,-191.665 679.829,-190.443 681.364,-197.273"/>
</g>
<!-- Node8 -->
<g id="node19" class="node"><title>Node8</title>
<a xlink:href="undefval_8h.html" target="_top" xlink:title="undefval.h">
<polygon fill="white" stroke="black" points="592,-116.5 592,-137.5 654,-137.5 654,-116.5 592,-116.5"/>
<text text-anchor="middle" x="623" y="-124.5" font-family="Helvetica,sans-Serif" font-size="10.00">undefval.h</text>
</a>
</g>
<!-- Node7&#45;&gt;Node8 -->
<g id="edge22" class="edge"><title>Node7&#45;&gt;Node8</title>
<path fill="none" stroke="midnightblue" d="M702.209,-174.362C687.441,-165.532 666.222,-152.844 649.462,-142.822"/>
<polygon fill="midnightblue" stroke="midnightblue" points="651.057,-139.699 640.679,-137.571 647.465,-145.707 651.057,-139.699"/>
</g>
<!-- Node15 -->
<g id="node36" class="node"><title>Node15</title>
<a xlink:href="commontypes_8h.html" target="_top" xlink:title="commontypes.h">
<polygon fill="white" stroke="black" points="672,-116.5 672,-137.5 758,-137.5 758,-116.5 672,-116.5"/>
<text text-anchor="middle" x="715" y="-124.5" font-family="Helvetica,sans-Serif" font-size="10.00">commontypes.h</text>
</a>
</g>
<!-- Node7&#45;&gt;Node15 -->
<g id="edge42" class="edge"><title>Node7&#45;&gt;Node15</title>
<path fill="none" stroke="midnightblue" d="M719.083,-174.362C718.442,-166.922 717.564,-156.743 716.787,-147.728"/>
<polygon fill="midnightblue" stroke="midnightblue" points="720.257,-147.233 715.911,-137.571 713.283,-147.834 720.257,-147.233"/>
</g>
<!-- Node16 -->
<g id="node39" class="node"><title>Node16</title>
<a xlink:href="errmsg_8h.html" target="_top" xlink:title="errmsg.h">
<polygon fill="white" stroke="black" points="775.5,-116.5 775.5,-137.5 830.5,-137.5 830.5,-116.5 775.5,-116.5"/>
<text text-anchor="middle" x="803" y="-124.5" font-family="Helvetica,sans-Serif" font-size="10.00">errmsg.h</text>
</a>
</g>
<!-- Node7&#45;&gt;Node16 -->
<g id="edge46" class="edge"><title>Node7&#45;&gt;Node16</title>
<path fill="none" stroke="midnightblue" d="M735.223,-174.362C747.625,-165.696 765.346,-153.313 779.557,-143.382"/>
<polygon fill="midnightblue" stroke="midnightblue" points="781.681,-146.168 787.873,-137.571 777.671,-140.43 781.681,-146.168"/>
</g>
<!-- Node8&#45;&gt;Node2 -->
<g id="edge24" class="edge"><title>Node8&#45;&gt;Node2</title>
<path fill="none" stroke="midnightblue" d="M618.892,-116.247C612.424,-100.826 598.359,-72.6753 577,-58 550.562,-39.835 464.858,-24.8101 411.762,-16.9412"/>
<polygon fill="midnightblue" stroke="midnightblue" points="412.005,-13.4398 401.605,-15.4641 410.997,-20.3669 412.005,-13.4398"/>
</g>
<!-- Node9 -->
<g id="node22" class="node"><title>Node9</title>
<a xlink:href="commondefs_8h.html" target="_top" xlink:title="commondefs.h">
<polygon fill="white" stroke="black" points="623.5,-58.5 623.5,-79.5 704.5,-79.5 704.5,-58.5 623.5,-58.5"/>
<text text-anchor="middle" x="664" y="-66.5" font-family="Helvetica,sans-Serif" font-size="10.00">commondefs.h</text>
</a>
</g>
<!-- Node8&#45;&gt;Node9 -->
<g id="edge26" class="edge"><title>Node8&#45;&gt;Node9</title>
<path fill="none" stroke="midnightblue" d="M630.52,-116.362C636.126,-108.431 643.932,-97.3885 650.597,-87.9606"/>
<polygon fill="midnightblue" stroke="midnightblue" points="653.613,-89.7568 656.528,-79.5707 647.897,-85.7161 653.613,-89.7568"/>
</g>
<!-- Node13 -->
<g id="node31" class="node"><title>Node13</title>
<a xlink:href="plftypes_8h.html" target="_top" xlink:title="plftypes.h">
<polygon fill="white" stroke="black" points="509.5,-58.5 509.5,-79.5 568.5,-79.5 568.5,-58.5 509.5,-58.5"/>
<text text-anchor="middle" x="539" y="-66.5" font-family="Helvetica,sans-Serif" font-size="10.00">plftypes.h</text>
</a>
</g>
<!-- Node8&#45;&gt;Node13 -->
<g id="edge36" class="edge"><title>Node8&#45;&gt;Node13</title>
<path fill="none" stroke="midnightblue" d="M607.593,-116.362C595.042,-107.696 577.108,-95.3126 562.725,-85.3819"/>
<polygon fill="midnightblue" stroke="midnightblue" points="564.527,-82.3725 554.309,-79.5707 560.55,-88.1327 564.527,-82.3725"/>
</g>
<!-- Node9&#45;&gt;Node2 -->
<g id="edge28" class="edge"><title>Node9&#45;&gt;Node2</title>
<path fill="none" stroke="midnightblue" d="M623.318,-60.6715C618.825,-59.7641 614.316,-58.8588 610,-58 540.636,-44.1997 459.988,-28.6323 411.525,-19.3292"/>
<polygon fill="midnightblue" stroke="midnightblue" points="412.168,-15.8888 401.687,-17.442 410.849,-22.7634 412.168,-15.8888"/>
</g>
<!-- Node10 -->
<g id="node25" class="node"><title>Node10</title>
<a xlink:href="plfdefs_8h.html" target="_top" xlink:title="plfdefs.h">
<polygon fill="white" stroke="black" points="578,-0.5 578,-21.5 632,-21.5 632,-0.5 578,-0.5"/>
<text text-anchor="middle" x="605" y="-8.5" font-family="Helvetica,sans-Serif" font-size="10.00">plfdefs.h</text>
</a>
</g>
<!-- Node9&#45;&gt;Node10 -->
<g id="edge30" class="edge"><title>Node9&#45;&gt;Node10</title>
<path fill="none" stroke="midnightblue" d="M653.178,-58.3619C644.779,-50.1043 632.946,-38.4725 623.11,-28.8029"/>
<polygon fill="midnightblue" stroke="midnightblue" points="625.338,-26.0851 615.753,-21.5707 620.431,-31.077 625.338,-26.0851"/>
</g>
<!-- Node11 -->
<g id="node27" class="node"><title>Node11</title>
<polygon fill="white" stroke="#bfbfbf" points="802.5,-0.5 802.5,-21.5 861.5,-21.5 861.5,-0.5 802.5,-0.5"/>
<text text-anchor="middle" x="832" y="-8.5" font-family="Helvetica,sans-Serif" font-size="10.00">stdexcept</text>
</g>
<!-- Node9&#45;&gt;Node11 -->
<g id="edge32" class="edge"><title>Node9&#45;&gt;Node11</title>
<path fill="none" stroke="midnightblue" d="M694.424,-58.4966C721.948,-48.994 762.645,-34.9438 792.64,-24.5887"/>
<polygon fill="midnightblue" stroke="midnightblue" points="794.056,-27.8024 802.367,-21.2305 791.772,-21.1856 794.056,-27.8024"/>
</g>
<!-- Node12 -->
<g id="node29" class="node"><title>Node12</title>
<polygon fill="white" stroke="#bfbfbf" points="649.5,-0.5 649.5,-21.5 684.5,-21.5 684.5,-0.5 649.5,-0.5"/>
<text text-anchor="middle" x="667" y="-8.5" font-family="Helvetica,sans-Serif" font-size="10.00">new</text>
</g>
<!-- Node9&#45;&gt;Node12 -->
<g id="edge34" class="edge"><title>Node9&#45;&gt;Node12</title>
<path fill="none" stroke="midnightblue" d="M664.55,-58.3619C664.935,-50.9219 665.462,-40.7427 665.928,-31.7276"/>
<polygon fill="midnightblue" stroke="midnightblue" points="669.432,-31.7381 666.453,-21.5707 662.441,-31.3765 669.432,-31.7381"/>
</g>
<!-- Node13&#45;&gt;Node10 -->
<g id="edge38" class="edge"><title>Node13&#45;&gt;Node10</title>
<path fill="none" stroke="midnightblue" d="M551.105,-58.3619C560.688,-49.9408 574.264,-38.0105 585.393,-28.2308"/>
<polygon fill="midnightblue" stroke="midnightblue" points="587.77,-30.8009 592.971,-21.5707 583.149,-25.5427 587.77,-30.8009"/>
</g>
<!-- Node14 -->
<g id="node34" class="node"><title>Node14</title>
<polygon fill="white" stroke="#bfbfbf" points="511.5,-0.5 511.5,-21.5 560.5,-21.5 560.5,-0.5 511.5,-0.5"/>
<text text-anchor="middle" x="536" y="-8.5" font-family="Helvetica,sans-Serif" font-size="10.00">stdint.h</text>
</g>
<!-- Node13&#45;&gt;Node14 -->
<g id="edge40" class="edge"><title>Node13&#45;&gt;Node14</title>
<path fill="none" stroke="midnightblue" d="M538.45,-58.3619C538.065,-50.9219 537.538,-40.7427 537.072,-31.7276"/>
<polygon fill="midnightblue" stroke="midnightblue" points="540.559,-31.3765 536.547,-21.5707 533.568,-31.7381 540.559,-31.3765"/>
</g>
<!-- Node15&#45;&gt;Node9 -->
<g id="edge44" class="edge"><title>Node15&#45;&gt;Node9</title>
<path fill="none" stroke="midnightblue" d="M705.646,-116.362C698.457,-108.186 688.359,-96.7025 679.907,-87.0907"/>
<polygon fill="midnightblue" stroke="midnightblue" points="682.527,-84.7692 673.295,-79.5707 677.27,-89.3916 682.527,-84.7692"/>
</g>
<!-- Node16&#45;&gt;Node9 -->
<g id="edge48" class="edge"><title>Node16&#45;&gt;Node9</title>
<path fill="none" stroke="midnightblue" d="M777.828,-116.497C755.727,-107.275 723.361,-93.7695 698.787,-83.5153"/>
<polygon fill="midnightblue" stroke="midnightblue" points="700.031,-80.2421 689.454,-79.6212 697.335,-86.7022 700.031,-80.2421"/>
</g>
<!-- Node17 -->
<g id="node42" class="node"><title>Node17</title>
<polygon fill="white" stroke="#bfbfbf" points="729.5,-58.5 729.5,-79.5 780.5,-79.5 780.5,-58.5 729.5,-58.5"/>
<text text-anchor="middle" x="755" y="-66.5" font-family="Helvetica,sans-Serif" font-size="10.00">typeinfo</text>
</g>
<!-- Node16&#45;&gt;Node17 -->
<g id="edge50" class="edge"><title>Node16&#45;&gt;Node17</title>
<path fill="none" stroke="midnightblue" d="M794.196,-116.362C787.498,-108.268 778.116,-96.9318 770.211,-87.3796"/>
<polygon fill="midnightblue" stroke="midnightblue" points="772.82,-85.0431 763.748,-79.5707 767.427,-89.5061 772.82,-85.0431"/>
</g>
<!-- Node18&#45;&gt;Node2 -->
<g id="edge54" class="edge"><title>Node18&#45;&gt;Node2</title>
<path fill="none" stroke="midnightblue" d="M280.198,-116.072C287.22,-101.895 300.641,-76.761 316,-58 324.913,-47.1126 336.382,-36.4722 346.281,-28.0766"/>
<polygon fill="midnightblue" stroke="midnightblue" points="348.649,-30.66 354.136,-21.5962 344.194,-25.2605 348.649,-30.66"/>
</g>
<!-- Node18&#45;&gt;Node9 -->
<g id="edge58" class="edge"><title>Node18&#45;&gt;Node9</title>
<path fill="none" stroke="midnightblue" d="M302.045,-122.968C366.468,-113.362 529.832,-89.0044 613.27,-76.5639"/>
<polygon fill="midnightblue" stroke="midnightblue" points="613.906,-80.0079 623.28,-75.0713 612.873,-73.0844 613.906,-80.0079"/>
</g>
<!-- Node18&#45;&gt;Node13 -->
<g id="edge56" class="edge"><title>Node18&#45;&gt;Node13</title>
<path fill="none" stroke="midnightblue" d="M302.258,-121.011C349.165,-110.706 445.321,-89.5809 499.545,-77.6681"/>
<polygon fill="midnightblue" stroke="midnightblue" points="500.466,-81.0493 509.482,-75.4849 498.964,-74.2123 500.466,-81.0493"/>
</g>
<!-- Node19 -->
<g id="node49" class="node"><title>Node19</title>
<polygon fill="white" stroke="#bfbfbf" points="141.5,-58.5 141.5,-79.5 190.5,-79.5 190.5,-58.5 141.5,-58.5"/>
<text text-anchor="middle" x="166" y="-66.5" font-family="Helvetica,sans-Serif" font-size="10.00">ctype.h</text>
</g>
<!-- Node18&#45;&gt;Node19 -->
<g id="edge60" class="edge"><title>Node18&#45;&gt;Node19</title>
<path fill="none" stroke="midnightblue" d="M255.261,-116.497C238.39,-107.519 213.891,-94.4835 194.826,-84.3387"/>
<polygon fill="midnightblue" stroke="midnightblue" points="196.433,-81.2289 185.961,-79.6212 193.144,-87.4086 196.433,-81.2289"/>
</g>
<!-- Node20 -->
<g id="node51" class="node"><title>Node20</title>
<polygon fill="white" stroke="#bfbfbf" points="208,-58.5 208,-79.5 264,-79.5 264,-58.5 208,-58.5"/>
<text text-anchor="middle" x="236" y="-66.5" font-family="Helvetica,sans-Serif" font-size="10.00">wctype.h</text>
</g>
<!-- Node18&#45;&gt;Node20 -->
<g id="edge62" class="edge"><title>Node18&#45;&gt;Node20</title>
<path fill="none" stroke="midnightblue" d="M267.847,-116.362C262.514,-108.431 255.089,-97.3885 248.749,-87.9606"/>
<polygon fill="midnightblue" stroke="midnightblue" points="251.592,-85.9161 243.108,-79.5707 245.783,-89.8221 251.592,-85.9161"/>
</g>
<!-- Node22 -->
<g id="node55" class="node"><title>Node22</title>
<a xlink:href="objectset_8h.html" target="_top" xlink:title="objectset.h">
<polygon fill="white" stroke="black" points="538.5,-522.5 538.5,-543.5 603.5,-543.5 603.5,-522.5 538.5,-522.5"/>
<text text-anchor="middle" x="571" y="-530.5" font-family="Helvetica,sans-Serif" font-size="10.00">objectset.h</text>
</a>
</g>
<!-- Node21&#45;&gt;Node22 -->
<g id="edge66" class="edge"><title>Node21&#45;&gt;Node22</title>
<path fill="none" stroke="midnightblue" d="M488.525,-580.362C503.901,-571.532 525.996,-558.844 543.447,-548.822"/>
<polygon fill="midnightblue" stroke="midnightblue" points="545.664,-551.586 552.592,-543.571 542.178,-545.515 545.664,-551.586"/>
</g>
<!-- Node23 -->
<g id="node57" class="node"><title>Node23</title>
<a xlink:href="odset_8h.html" target="_top" xlink:title="odset.h">
<polygon fill="white" stroke="black" points="663.5,-464.5 663.5,-485.5 712.5,-485.5 712.5,-464.5 663.5,-464.5"/>
<text text-anchor="middle" x="688" y="-472.5" font-family="Helvetica,sans-Serif" font-size="10.00">odset.h</text>
</a>
</g>
<!-- Node22&#45;&gt;Node23 -->
<g id="edge68" class="edge"><title>Node22&#45;&gt;Node23</title>
<path fill="none" stroke="midnightblue" d="M592.188,-522.497C610.462,-513.438 637.072,-500.246 657.615,-490.063"/>
<polygon fill="midnightblue" stroke="midnightblue" points="659.169,-493.199 666.574,-485.621 656.06,-486.927 659.169,-493.199"/>
</g>
<!-- Node24 -->
<g id="node60" class="node"><title>Node24</title>
<a xlink:href="vectoraccess_8h.html" target="_top" xlink:title="vectoraccess.h">
<polygon fill="white" stroke="black" points="563.5,-464.5 563.5,-485.5 646.5,-485.5 646.5,-464.5 563.5,-464.5"/>
<text text-anchor="middle" x="605" y="-472.5" font-family="Helvetica,sans-Serif" font-size="10.00">vectoraccess.h</text>
</a>
</g>
<!-- Node22&#45;&gt;Node24 -->
<g id="edge72" class="edge"><title>Node22&#45;&gt;Node24</title>
<path fill="none" stroke="midnightblue" d="M577.236,-522.362C581.837,-514.513 588.225,-503.616 593.714,-494.253"/>
<polygon fill="midnightblue" stroke="midnightblue" points="596.766,-495.968 598.803,-485.571 590.727,-492.428 596.766,-495.968"/>
</g>
<!-- Node23&#45;&gt;Node7 -->
<g id="edge70" class="edge"><title>Node23&#45;&gt;Node7</title>
<path fill="none" stroke="midnightblue" d="M690.979,-464.26C693.493,-454.79 696.995,-440.579 699,-428 712.004,-346.41 717.384,-248.035 719.208,-205.854"/>
<polygon fill="midnightblue" stroke="midnightblue" points="722.711,-205.861 719.623,-195.726 715.717,-205.574 722.711,-205.861"/>
</g>
<!-- Node24&#45;&gt;Node7 -->
<g id="edge82" class="edge"><title>Node24&#45;&gt;Node7</title>
<path fill="none" stroke="midnightblue" d="M624.795,-464.365C638.298,-456.137 655.563,-443.537 666,-428 683.737,-401.596 685,-390.808 685,-359 685,-359 685,-359 685,-301 685,-265.976 699.805,-227.441 710.157,-204.778"/>
<polygon fill="midnightblue" stroke="midnightblue" points="713.41,-206.088 714.531,-195.552 707.085,-203.089 713.41,-206.088"/>
</g>
<!-- Node24&#45;&gt;Node11 -->
<g id="edge88" class="edge"><title>Node24&#45;&gt;Node11</title>
<path fill="none" stroke="midnightblue" d="M636.334,-464.493C680.152,-448.761 760.776,-415.945 818,-370 892.948,-309.825 930,-281.116 930,-185 930,-185 930,-185 930,-127 930,-95.1919 930.285,-83.2948 911,-58 900.423,-44.127 884.475,-33.5321 869.671,-25.9452"/>
<polygon fill="midnightblue" stroke="midnightblue" points="871.188,-22.7911 860.659,-21.6076 868.152,-29.0985 871.188,-22.7911"/>
</g>
<!-- Node25 -->
<g id="node62" class="node"><title>Node25</title>
<a xlink:href="debug_8h.html" target="_top" xlink:title="debug.h">
<polygon fill="white" stroke="black" points="394.5,-406.5 394.5,-427.5 445.5,-427.5 445.5,-406.5 394.5,-406.5"/>
<text text-anchor="middle" x="420" y="-414.5" font-family="Helvetica,sans-Serif" font-size="10.00">debug.h</text>
</a>
</g>
<!-- Node24&#45;&gt;Node25 -->
<g id="edge74" class="edge"><title>Node24&#45;&gt;Node25</title>
<path fill="none" stroke="midnightblue" d="M571.498,-464.497C538.66,-454.201 488.795,-438.568 455.339,-428.079"/>
<polygon fill="midnightblue" stroke="midnightblue" points="456.109,-424.653 445.52,-425.001 454.015,-431.332 456.109,-424.653"/>
</g>
<!-- Node26 -->
<g id="node68" class="node"><title>Node26</title>
<polygon fill="white" stroke="#bfbfbf" points="601,-406.5 601,-427.5 657,-427.5 657,-406.5 601,-406.5"/>
<text text-anchor="middle" x="629" y="-414.5" font-family="Helvetica,sans-Serif" font-size="10.00">algorithm</text>
</g>
<!-- Node24&#45;&gt;Node26 -->
<g id="edge84" class="edge"><title>Node24&#45;&gt;Node26</title>
<path fill="none" stroke="midnightblue" d="M609.402,-464.362C612.582,-456.677 616.972,-446.069 620.79,-436.84"/>
<polygon fill="midnightblue" stroke="midnightblue" points="624.036,-438.149 624.626,-427.571 617.568,-435.473 624.036,-438.149"/>
</g>
<!-- Node27 -->
<g id="node70" class="node"><title>Node27</title>
<polygon fill="white" stroke="#bfbfbf" points="539,-406.5 539,-427.5 583,-427.5 583,-406.5 539,-406.5"/>
<text text-anchor="middle" x="561" y="-414.5" font-family="Helvetica,sans-Serif" font-size="10.00">vector</text>
</g>
<!-- Node24&#45;&gt;Node27 -->
<g id="edge86" class="edge"><title>Node24&#45;&gt;Node27</title>
<path fill="none" stroke="midnightblue" d="M596.93,-464.362C590.851,-456.35 582.363,-445.161 575.163,-435.67"/>
<polygon fill="midnightblue" stroke="midnightblue" points="577.851,-433.422 569.019,-427.571 572.275,-437.653 577.851,-433.422"/>
</g>
<!-- Node25&#45;&gt;Node2 -->
<g id="edge76" class="edge"><title>Node25&#45;&gt;Node2</title>
<path fill="none" stroke="midnightblue" d="M415.491,-406.203C407.884,-387.433 392.677,-347.398 386,-312 366.416,-208.177 366.523,-80.9789 367.446,-31.7888"/>
<polygon fill="midnightblue" stroke="midnightblue" points="370.951,-31.5897 367.674,-21.5145 363.953,-31.4344 370.951,-31.5897"/>
</g>
<!-- Node25&#45;&gt;Node4 -->
<g id="edge80" class="edge"><title>Node25&#45;&gt;Node4</title>
<path fill="none" stroke="midnightblue" d="M394.254,-409.057C363,-399.415 309.907,-383.035 273.002,-371.65"/>
<polygon fill="midnightblue" stroke="midnightblue" points="273.642,-368.184 263.054,-368.581 271.578,-374.873 273.642,-368.184"/>
</g>
<!-- Node25&#45;&gt;Node7 -->
<g id="edge78" class="edge"><title>Node25&#45;&gt;Node7</title>
<path fill="none" stroke="midnightblue" d="M433.67,-406.429C481.207,-369.667 639.589,-247.185 698.063,-201.965"/>
<polygon fill="midnightblue" stroke="midnightblue" points="700.48,-204.52 706.25,-195.634 696.198,-198.982 700.48,-204.52"/>
</g>
<!-- Node28&#45;&gt;Node2 -->
<g id="edge92" class="edge"><title>Node28&#45;&gt;Node2</title>
<path fill="none" stroke="midnightblue" d="M356.492,-645.552C267.482,-635.977 76,-600.763 76,-475 76,-475 76,-475 76,-127 76,-92.2025 84.8914,-78.5127 113,-58 145.982,-33.931 260.261,-20.3732 324.062,-14.5156"/>
<polygon fill="midnightblue" stroke="midnightblue" points="324.576,-17.9837 334.225,-13.6084 323.954,-11.0114 324.576,-17.9837"/>
</g>
<!-- Node28&#45;&gt;Node21 -->
<g id="edge94" class="edge"><title>Node28&#45;&gt;Node21</title>
<path fill="none" stroke="midnightblue" d="M413.656,-638.362C423.674,-629.941 437.867,-618.011 449.501,-608.231"/>
<polygon fill="midnightblue" stroke="midnightblue" points="452.022,-610.684 457.425,-601.571 447.518,-605.326 452.022,-610.684"/>
</g>
<!-- Node29 -->
<g id="node77" class="node"><title>Node29</title>
<a xlink:href="threadlock_8h.html" target="_top" xlink:title="threadlock.h">
<polygon fill="white" stroke="black" points="504,-116.5 504,-137.5 574,-137.5 574,-116.5 504,-116.5"/>
<text text-anchor="middle" x="539" y="-124.5" font-family="Helvetica,sans-Serif" font-size="10.00">threadlock.h</text>
</a>
</g>
<!-- Node28&#45;&gt;Node29 -->
<g id="edge96" class="edge"><title>Node28&#45;&gt;Node29</title>
<path fill="none" stroke="midnightblue" d="M403.882,-638.097C421.105,-572.95 510.446,-235.008 533.544,-147.637"/>
<polygon fill="midnightblue" stroke="midnightblue" points="536.961,-148.405 536.134,-137.843 530.194,-146.616 536.961,-148.405"/>
</g>
<!-- Node30 -->
<g id="node82" class="node"><title>Node30</title>
<a xlink:href="thread_8h.html" target="_top" xlink:title="thread.h">
<polygon fill="white" stroke="black" points="434,-116.5 434,-137.5 486,-137.5 486,-116.5 434,-116.5"/>
<text text-anchor="middle" x="460" y="-124.5" font-family="Helvetica,sans-Serif" font-size="10.00">thread.h</text>
</a>
</g>
<!-- Node28&#45;&gt;Node30 -->
<g id="edge104" class="edge"><title>Node28&#45;&gt;Node30</title>
<path fill="none" stroke="midnightblue" d="M388.459,-638.227C367.83,-619.233 329,-577.561 329,-533 329,-533 329,-533 329,-417 329,-305.619 410.249,-189.808 444.773,-145.626"/>
<polygon fill="midnightblue" stroke="midnightblue" points="447.719,-147.545 451.201,-137.539 442.239,-143.189 447.719,-147.545"/>
</g>
<!-- Node29&#45;&gt;Node2 -->
<g id="edge98" class="edge"><title>Node29&#45;&gt;Node2</title>
<path fill="none" stroke="midnightblue" d="M524.191,-116.286C505.115,-102.551 470.857,-78.1098 441,-58 425.412,-47.5007 407.691,-36.0793 393.612,-27.1247"/>
<polygon fill="midnightblue" stroke="midnightblue" points="395.266,-24.029 384.946,-21.631 391.518,-29.9412 395.266,-24.029"/>
</g>
<!-- Node29&#45;&gt;Node9 -->
<g id="edge100" class="edge"><title>Node29&#45;&gt;Node9</title>
<path fill="none" stroke="midnightblue" d="M561.637,-116.497C581.248,-107.397 609.846,-94.1273 631.833,-83.9253"/>
<polygon fill="midnightblue" stroke="midnightblue" points="633.512,-87.0051 641.109,-79.6212 630.565,-80.6554 633.512,-87.0051"/>
</g>
<!-- Node29&#45;&gt;Node13 -->
<g id="edge102" class="edge"><title>Node29&#45;&gt;Node13</title>
<path fill="none" stroke="midnightblue" d="M539,-116.362C539,-108.922 539,-98.7427 539,-89.7276"/>
<polygon fill="midnightblue" stroke="midnightblue" points="542.5,-89.5706 539,-79.5707 535.5,-89.5707 542.5,-89.5706"/>
</g>
<!-- Node30&#45;&gt;Node2 -->
<g id="edge106" class="edge"><title>Node30&#45;&gt;Node2</title>
<path fill="none" stroke="midnightblue" d="M454.984,-116.06C448.191,-101.872 435.161,-76.7247 420,-58 411.146,-47.0648 399.682,-36.4197 389.772,-28.0334"/>
<polygon fill="midnightblue" stroke="midnightblue" points="391.852,-25.2119 381.905,-21.5635 387.405,-30.6185 391.852,-25.2119"/>
</g>
<!-- Node30&#45;&gt;Node9 -->
<g id="edge108" class="edge"><title>Node30&#45;&gt;Node9</title>
<path fill="none" stroke="midnightblue" d="M486.345,-118.617C489.261,-117.72 492.191,-116.832 495,-116 535.091,-104.129 580.79,-91.4721 614.549,-82.2871"/>
<polygon fill="midnightblue" stroke="midnightblue" points="615.89,-85.55 624.624,-79.5528 614.056,-78.7944 615.89,-85.55"/>
</g>
<!-- Node30&#45;&gt;Node13 -->
<g id="edge110" class="edge"><title>Node30&#45;&gt;Node13</title>
<path fill="none" stroke="midnightblue" d="M474.49,-116.362C486.183,-107.777 502.843,-95.5459 516.303,-85.6636"/>
<polygon fill="midnightblue" stroke="midnightblue" points="518.613,-88.31 524.602,-79.5707 514.47,-82.6675 518.613,-88.31"/>
</g>
<!-- Node31&#45;&gt;Node7 -->
<g id="edge114" class="edge"><title>Node31&#45;&gt;Node7</title>
<path fill="none" stroke="midnightblue" d="M847.289,-232.631C822.395,-223.315 785.614,-209.552 757.983,-199.213"/>
<polygon fill="midnightblue" stroke="midnightblue" points="758.849,-195.8 748.256,-195.573 756.395,-202.356 758.849,-195.8"/>
</g>
<!-- Node32 -->
<g id="node90" class="node"><title>Node32</title>
<a xlink:href="atomic_8h.html" target="_top" xlink:title="atomic.h">
<polygon fill="white" stroke="black" points="848,-116.5 848,-137.5 902,-137.5 902,-116.5 848,-116.5"/>
<text text-anchor="middle" x="875" y="-124.5" font-family="Helvetica,sans-Serif" font-size="10.00">atomic.h</text>
</a>
</g>
<!-- Node31&#45;&gt;Node32 -->
<g id="edge116" class="edge"><title>Node31&#45;&gt;Node32</title>
<path fill="none" stroke="midnightblue" d="M865.631,-232.306C858.415,-223.313 849.015,-209.753 845,-196 842.26,-186.614 842.26,-183.386 845,-174 847.949,-163.9 853.801,-153.905 859.56,-145.745"/>
<polygon fill="midnightblue" stroke="midnightblue" points="862.405,-147.786 865.631,-137.694 856.816,-143.571 862.405,-147.786"/>
</g>
<!-- Node34 -->
<g id="node97" class="node"><title>Node34</title>
<polygon fill="white" stroke="#bfbfbf" points="854,-174.5 854,-195.5 902,-195.5 902,-174.5 854,-174.5"/>
<text text-anchor="middle" x="878" y="-182.5" font-family="Helvetica,sans-Serif" font-size="10.00">stdlib.h</text>
</g>
<!-- Node31&#45;&gt;Node34 -->
<g id="edge126" class="edge"><title>Node31&#45;&gt;Node34</title>
<path fill="none" stroke="midnightblue" d="M875.55,-232.362C875.935,-224.922 876.462,-214.743 876.928,-205.728"/>
<polygon fill="midnightblue" stroke="midnightblue" points="880.432,-205.738 877.453,-195.571 873.441,-205.376 880.432,-205.738"/>
</g>
<!-- Node32&#45;&gt;Node2 -->
<g id="edge118" class="edge"><title>Node32&#45;&gt;Node2</title>
<path fill="none" stroke="midnightblue" d="M865.662,-116.387C851.068,-100.601 821.174,-71.3634 789,-58 754.725,-43.7641 512.752,-22.7567 411.931,-14.5075"/>
<polygon fill="midnightblue" stroke="midnightblue" points="412.023,-11.0035 401.772,-13.6805 411.455,-17.9804 412.023,-11.0035"/>
</g>
<!-- Node32&#45;&gt;Node9 -->
<g id="edge120" class="edge"><title>Node32&#45;&gt;Node9</title>
<path fill="none" stroke="midnightblue" d="M847.903,-118.612C844.903,-117.716 841.89,-116.829 839,-116 797.305,-104.035 749.755,-91.3234 714.754,-82.1412"/>
<polygon fill="midnightblue" stroke="midnightblue" points="715.334,-78.6751 704.774,-79.5293 713.562,-85.4471 715.334,-78.6751"/>
</g>
<!-- Node32&#45;&gt;Node13 -->
<g id="edge122" class="edge"><title>Node32&#45;&gt;Node13</title>
<path fill="none" stroke="midnightblue" d="M847.984,-118.298C844.969,-117.46 841.93,-116.674 839,-116 814.066,-110.268 654.449,-86.2043 578.741,-74.906"/>
<polygon fill="midnightblue" stroke="midnightblue" points="579.045,-71.4127 568.638,-73.3998 578.013,-78.3362 579.045,-71.4127"/>
</g>
<!-- Node33 -->
<g id="node95" class="node"><title>Node33</title>
<polygon fill="white" stroke="#bfbfbf" points="835.5,-58.5 835.5,-79.5 902.5,-79.5 902.5,-58.5 835.5,-58.5"/>
<text text-anchor="middle" x="869" y="-66.5" font-family="Helvetica,sans-Serif" font-size="10.00">odversion.h</text>
</g>
<!-- Node32&#45;&gt;Node33 -->
<g id="edge124" class="edge"><title>Node32&#45;&gt;Node33</title>
<path fill="none" stroke="midnightblue" d="M873.9,-116.362C873.13,-108.922 872.077,-98.7427 871.144,-89.7276"/>
<polygon fill="midnightblue" stroke="midnightblue" points="874.604,-89.1574 870.094,-79.5707 867.641,-89.8777 874.604,-89.1574"/>
</g>
<!-- Node35&#45;&gt;Node23 -->
<g id="edge130" class="edge"><title>Node35&#45;&gt;Node23</title>
<path fill="none" stroke="midnightblue" d="M656.153,-522.362C661.486,-514.431 668.911,-503.389 675.251,-493.961"/>
<polygon fill="midnightblue" stroke="midnightblue" points="678.217,-495.822 680.892,-485.571 672.408,-491.916 678.217,-495.822"/>
</g>
<!-- Node35&#45;&gt;Node24 -->
<g id="edge132" class="edge"><title>Node35&#45;&gt;Node24</title>
<path fill="none" stroke="midnightblue" d="M640.93,-522.362C634.851,-514.35 626.363,-503.161 619.163,-493.67"/>
<polygon fill="midnightblue" stroke="midnightblue" points="621.851,-491.422 613.019,-485.571 616.275,-495.653 621.851,-491.422"/>
</g>
<!-- Node36&#45;&gt;Node7 -->
<g id="edge136" class="edge"><title>Node36&#45;&gt;Node7</title>
<path fill="none" stroke="midnightblue" d="M650.107,-588.767C708.386,-582.444 837,-558.977 837,-475 837,-475 837,-475 837,-417 837,-328.93 768.952,-240.257 736.647,-203.123"/>
<polygon fill="midnightblue" stroke="midnightblue" points="739.231,-200.761 729.975,-195.604 733.995,-205.407 739.231,-200.761"/>
</g>
<!-- Node36&#45;&gt;Node18 -->
<g id="edge146" class="edge"><title>Node36&#45;&gt;Node18</title>
<path fill="none" stroke="midnightblue" d="M593.779,-581.816C513.734,-553.803 291,-461.442 291,-301 291,-301 291,-301 291,-243 291,-209.456 284.353,-170.964 279.628,-147.836"/>
<polygon fill="midnightblue" stroke="midnightblue" points="282.999,-146.862 277.5,-137.806 276.152,-148.315 282.999,-146.862"/>
</g>
<!-- Node36&#45;&gt;Node29 -->
<g id="edge144" class="edge"><title>Node36&#45;&gt;Node29</title>
<path fill="none" stroke="midnightblue" d="M593.653,-584.924C572.056,-578.647 543.764,-566.488 530,-544 497.981,-491.688 529.011,-467.325 530,-406 531.556,-309.511 536.137,-194.325 538.095,-147.907"/>
<polygon fill="midnightblue" stroke="midnightblue" points="541.604,-147.78 538.533,-137.64 534.61,-147.482 541.604,-147.78"/>
</g>
<!-- Node36&#45;&gt;Node35 -->
<g id="edge148" class="edge"><title>Node36&#45;&gt;Node35</title>
<path fill="none" stroke="midnightblue" d="M626.952,-580.362C630.53,-572.677 635.468,-562.069 639.764,-552.84"/>
<polygon fill="midnightblue" stroke="midnightblue" points="643.032,-554.114 644.079,-543.571 636.686,-551.159 643.032,-554.114"/>
</g>
<!-- Node37 -->
<g id="node106" class="node"><title>Node37</title>
<a xlink:href="keystrs_8h.html" target="_top" xlink:title="keystrs.h">
<polygon fill="white" stroke="black" points="752.5,-348.5 752.5,-369.5 809.5,-369.5 809.5,-348.5 752.5,-348.5"/>
<text text-anchor="middle" x="781" y="-356.5" font-family="Helvetica,sans-Serif" font-size="10.00">keystrs.h</text>
</a>
</g>
<!-- Node36&#45;&gt;Node37 -->
<g id="edge138" class="edge"><title>Node36&#45;&gt;Node37</title>
<path fill="none" stroke="midnightblue" d="M639.053,-580.405C652.568,-571.57 671.521,-558.178 686,-544 732.429,-498.536 751.466,-488.57 775,-428 780.979,-412.612 782.271,-393.883 782.183,-379.822"/>
<polygon fill="midnightblue" stroke="midnightblue" points="785.678,-379.591 781.88,-369.7 778.681,-379.8 785.678,-379.591"/>
</g>
<!-- Node37&#45;&gt;Node5 -->
<g id="edge142" class="edge"><title>Node37&#45;&gt;Node5</title>
<path fill="none" stroke="midnightblue" d="M752.276,-354.254C691.337,-344.184 548.691,-320.613 475.333,-308.491"/>
<polygon fill="midnightblue" stroke="midnightblue" points="475.468,-304.966 465.031,-306.789 474.326,-311.872 475.468,-304.966"/>
</g>
<!-- Node37&#45;&gt;Node7 -->
<g id="edge140" class="edge"><title>Node37&#45;&gt;Node7</title>
<path fill="none" stroke="midnightblue" d="M777.745,-348.383C770.971,-326.475 754.684,-274.73 739,-232 735.723,-223.072 731.827,-213.306 728.419,-205.001"/>
<polygon fill="midnightblue" stroke="midnightblue" points="731.644,-203.643 724.577,-195.75 725.18,-206.328 731.644,-203.643"/>
</g>
</g>
</svg>
