<?xml version="1.0" encoding="UTF-8" standalone="no"?>
<!DOCTYPE svg PUBLIC "-//W3C//DTD SVG 1.1//EN"
 "http://www.w3.org/Graphics/SVG/1.1/DTD/svg11.dtd">
<!-- Generated by graphviz version 2.26.0 (20091210.2329)
 -->
<!-- Title: faulttrace.h Pages: 1 -->
<svg width="214pt" height="146pt"
 viewBox="0.00 0.00 214.00 146.00" xmlns="http://www.w3.org/2000/svg" xmlns:xlink="http://www.w3.org/1999/xlink">
<g id="graph1" class="graph" transform="scale(1 1) rotate(0) translate(4 142)">
<title>faulttrace.h</title>
<polygon fill="white" stroke="white" points="-4,5 -4,-142 211,-142 211,5 -4,5"/>
<!-- Node1 -->
<g id="node1" class="node"><title>Node1</title>
<polygon fill="#bfbfbf" stroke="black" points="65.5,-116.5 65.5,-137.5 130.5,-137.5 130.5,-116.5 65.5,-116.5"/>
<text text-anchor="middle" x="98" y="-124.5" font-family="Helvetica,sans-Serif" font-size="10.00">faulttrace.h</text>
</g>
<!-- Node2 -->
<g id="node3" class="node"><title>Node2</title>
<a xlink:href="uiiosurface_8h.html" target="_top" xlink:title="uiiosurface.h">
<polygon fill="white" stroke="black" points="62,-58.5 62,-79.5 134,-79.5 134,-58.5 62,-58.5"/>
<text text-anchor="middle" x="98" y="-66.5" font-family="Helvetica,sans-Serif" font-size="10.00">uiiosurface.h</text>
</a>
</g>
<!-- Node1&#45;&gt;Node2 -->
<g id="edge2" class="edge"><title>Node1&#45;&gt;Node2</title>
<path fill="none" stroke="midnightblue" d="M98,-106.191C98,-97.1684 98,-86.9941 98,-79.5707"/>
<polygon fill="midnightblue" stroke="midnightblue" points="94.5001,-106.362 98,-116.362 101.5,-106.362 94.5001,-106.362"/>
</g>
<!-- Node3 -->
<g id="node5" class="node"><title>Node3</title>
<a xlink:href="uiiosurfacedlg_8h.html" target="_top" xlink:title="uiiosurfacedlg.h">
<polygon fill="white" stroke="black" points="-0.5,-0.5 -0.5,-21.5 84.5,-21.5 84.5,-0.5 -0.5,-0.5"/>
<text text-anchor="middle" x="42" y="-8.5" font-family="Helvetica,sans-Serif" font-size="10.00">uiiosurfacedlg.h</text>
</a>
</g>
<!-- Node2&#45;&gt;Node3 -->
<g id="edge4" class="edge"><title>Node2&#45;&gt;Node3</title>
<path fill="none" stroke="midnightblue" d="M80.7346,-51.118C71.3882,-41.4377 60.1612,-29.8098 52.2061,-21.5707"/>
<polygon fill="midnightblue" stroke="midnightblue" points="78.2648,-53.599 87.7287,-58.3619 83.3007,-48.7368 78.2648,-53.599"/>
</g>
<!-- Node4 -->
<g id="node7" class="node"><title>Node4</title>
<a xlink:href="uimultisurfaceread_8h.html" target="_top" xlink:title="uimultisurfaceread.h">
<polygon fill="white" stroke="black" points="102,-0.5 102,-21.5 206,-21.5 206,-0.5 102,-0.5"/>
<text text-anchor="middle" x="154" y="-8.5" font-family="Helvetica,sans-Serif" font-size="10.00">uimultisurfaceread.h</text>
</a>
</g>
<!-- Node2&#45;&gt;Node4 -->
<g id="edge6" class="edge"><title>Node2&#45;&gt;Node4</title>
<path fill="none" stroke="midnightblue" d="M115.265,-51.118C124.612,-41.4377 135.839,-29.8098 143.794,-21.5707"/>
<polygon fill="midnightblue" stroke="midnightblue" points="112.699,-48.7368 108.271,-58.3619 117.735,-53.599 112.699,-48.7368"/>
</g>
</g>
</svg>
