<?xml version="1.0" encoding="UTF-8" standalone="no"?>
<!DOCTYPE svg PUBLIC "-//W3C//DTD SVG 1.1//EN"
 "http://www.w3.org/Graphics/SVG/1.1/DTD/svg11.dtd">
<!-- Generated by graphviz version 2.26.0 (20091210.2329)
 -->
<!-- Title: filepath.h Pages: 1 -->
<svg width="770pt" height="726pt"
 viewBox="0.00 0.00 770.00 726.00" xmlns="http://www.w3.org/2000/svg" xmlns:xlink="http://www.w3.org/1999/xlink">
<g id="graph1" class="graph" transform="scale(1 1) rotate(0) translate(4 722)">
<title>filepath.h</title>
<polygon fill="white" stroke="white" points="-4,5 -4,-722 767,-722 767,5 -4,5"/>
<!-- Node1 -->
<g id="node1" class="node"><title>Node1</title>
<polygon fill="#bfbfbf" stroke="black" points="15,-696.5 15,-717.5 71,-717.5 71,-696.5 15,-696.5"/>
<text text-anchor="middle" x="43" y="-704.5" font-family="Helvetica,sans-Serif" font-size="10.00">filepath.h</text>
</g>
<!-- Node2 -->
<g id="node3" class="node"><title>Node2</title>
<polygon fill="white" stroke="#bfbfbf" points="118.5,-0.5 118.5,-21.5 185.5,-21.5 185.5,-0.5 118.5,-0.5"/>
<text text-anchor="middle" x="152" y="-8.5" font-family="Helvetica,sans-Serif" font-size="10.00">basicmod.h</text>
</g>
<!-- Node1&#45;&gt;Node2 -->
<g id="edge2" class="edge"><title>Node1&#45;&gt;Node2</title>
<path fill="none" stroke="midnightblue" d="M36.0913,-696.297C23.9362,-676.404 0,-632.023 0,-591 0,-591 0,-591 0,-127 0,-71.9511 63.7823,-39.5455 108.713,-23.547"/>
<polygon fill="midnightblue" stroke="midnightblue" points="109.932,-26.8293 118.266,-20.2879 107.672,-20.2042 109.932,-26.8293"/>
</g>
<!-- Node3 -->
<g id="node5" class="node"><title>Node3</title>
<a xlink:href="bufstringset_8h.html" target="_top" xlink:title="bufstringset.h">
<polygon fill="white" stroke="black" points="49,-638.5 49,-659.5 125,-659.5 125,-638.5 49,-638.5"/>
<text text-anchor="middle" x="87" y="-646.5" font-family="Helvetica,sans-Serif" font-size="10.00">bufstringset.h</text>
</a>
</g>
<!-- Node1&#45;&gt;Node3 -->
<g id="edge4" class="edge"><title>Node1&#45;&gt;Node3</title>
<path fill="none" stroke="midnightblue" d="M51.0703,-696.362C57.1486,-688.35 65.6369,-677.161 72.8369,-667.67"/>
<polygon fill="midnightblue" stroke="midnightblue" points="75.7254,-669.653 78.9809,-659.571 70.1486,-665.422 75.7254,-669.653"/>
</g>
<!-- Node3&#45;&gt;Node2 -->
<g id="edge6" class="edge"><title>Node3&#45;&gt;Node2</title>
<path fill="none" stroke="midnightblue" d="M79.1273,-638.438C65.2761,-618.776 38,-574.756 38,-533 38,-533 38,-533 38,-127 38,-80.0264 86.1415,-45.1175 119.856,-26.4297"/>
<polygon fill="midnightblue" stroke="midnightblue" points="121.752,-29.385 128.93,-21.5923 118.459,-23.2078 121.752,-29.385"/>
</g>
<!-- Node4 -->
<g id="node8" class="node"><title>Node4</title>
<a xlink:href="bufstring_8h.html" target="_top" xlink:title="bufstring.h">
<polygon fill="white" stroke="black" points="124,-348.5 124,-369.5 186,-369.5 186,-348.5 124,-348.5"/>
<text text-anchor="middle" x="155" y="-356.5" font-family="Helvetica,sans-Serif" font-size="10.00">bufstring.h</text>
</a>
</g>
<!-- Node3&#45;&gt;Node4 -->
<g id="edge8" class="edge"><title>Node3&#45;&gt;Node4</title>
<path fill="none" stroke="midnightblue" d="M90.2812,-638.243C96.1875,-617.898 108,-572.295 108,-533 108,-533 108,-533 108,-475 108,-438.685 128.031,-400.347 141.939,-378.105"/>
<polygon fill="midnightblue" stroke="midnightblue" points="144.943,-379.905 147.449,-369.611 139.07,-376.096 144.943,-379.905"/>
</g>
<!-- Node21 -->
<g id="node53" class="node"><title>Node21</title>
<a xlink:href="manobjectset_8h.html" target="_top" xlink:title="manobjectset.h">
<polygon fill="white" stroke="black" points="278.5,-580.5 278.5,-601.5 361.5,-601.5 361.5,-580.5 278.5,-580.5"/>
<text text-anchor="middle" x="320" y="-588.5" font-family="Helvetica,sans-Serif" font-size="10.00">manobjectset.h</text>
</a>
</g>
<!-- Node3&#45;&gt;Node21 -->
<g id="edge64" class="edge"><title>Node3&#45;&gt;Node21</title>
<path fill="none" stroke="midnightblue" d="M125.214,-639.487C164.261,-629.768 225.145,-614.612 268.442,-603.834"/>
<polygon fill="midnightblue" stroke="midnightblue" points="269.363,-607.212 278.221,-601.4 267.672,-600.419 269.363,-607.212"/>
</g>
<!-- Node4&#45;&gt;Node2 -->
<g id="edge10" class="edge"><title>Node4&#45;&gt;Node2</title>
<path fill="none" stroke="midnightblue" d="M141.239,-348.49C118.605,-329.895 76,-288.807 76,-243 76,-243 76,-243 76,-127 76,-86.5104 108.797,-49.1585 131.302,-28.2949"/>
<polygon fill="midnightblue" stroke="midnightblue" points="133.64,-30.8993 138.762,-21.6247 128.974,-25.681 133.64,-30.8993"/>
</g>
<!-- Node5 -->
<g id="node11" class="node"><title>Node5</title>
<a xlink:href="fixedstring_8h.html" target="_top" xlink:title="fixedstring.h">
<polygon fill="white" stroke="black" points="120,-290.5 120,-311.5 190,-311.5 190,-290.5 120,-290.5"/>
<text text-anchor="middle" x="155" y="-298.5" font-family="Helvetica,sans-Serif" font-size="10.00">fixedstring.h</text>
</a>
</g>
<!-- Node4&#45;&gt;Node5 -->
<g id="edge12" class="edge"><title>Node4&#45;&gt;Node5</title>
<path fill="none" stroke="midnightblue" d="M155,-348.362C155,-340.922 155,-330.743 155,-321.728"/>
<polygon fill="midnightblue" stroke="midnightblue" points="158.5,-321.571 155,-311.571 151.5,-321.571 158.5,-321.571"/>
</g>
<!-- Node18 -->
<g id="node44" class="node"><title>Node18</title>
<a xlink:href="string2_8h.html" target="_top" xlink:title="string2.h">
<polygon fill="white" stroke="black" points="269,-116.5 269,-137.5 323,-137.5 323,-116.5 269,-116.5"/>
<text text-anchor="middle" x="296" y="-124.5" font-family="Helvetica,sans-Serif" font-size="10.00">string2.h</text>
</a>
</g>
<!-- Node4&#45;&gt;Node18 -->
<g id="edge52" class="edge"><title>Node4&#45;&gt;Node18</title>
<path fill="none" stroke="midnightblue" d="M166.77,-348.164C176.21,-339.087 189.419,-325.486 199,-312 238.59,-256.271 272.469,-182.309 287.582,-147.179"/>
<polygon fill="midnightblue" stroke="midnightblue" points="290.969,-148.16 291.656,-137.587 284.525,-145.423 290.969,-148.16"/>
</g>
<!-- Node5&#45;&gt;Node2 -->
<g id="edge14" class="edge"><title>Node5&#45;&gt;Node2</title>
<path fill="none" stroke="midnightblue" d="M148.413,-290.253C136.823,-270.289 114,-225.797 114,-185 114,-185 114,-185 114,-127 114,-91.7411 130.051,-53.3154 141.289,-30.7323"/>
<polygon fill="midnightblue" stroke="midnightblue" points="144.418,-32.3005 145.895,-21.809 138.198,-29.0901 144.418,-32.3005"/>
</g>
<!-- Node6 -->
<g id="node14" class="node"><title>Node6</title>
<a xlink:href="odstring_8h.html" target="_top" xlink:title="odstring.h">
<polygon fill="white" stroke="black" points="141.5,-232.5 141.5,-253.5 200.5,-253.5 200.5,-232.5 141.5,-232.5"/>
<text text-anchor="middle" x="171" y="-240.5" font-family="Helvetica,sans-Serif" font-size="10.00">odstring.h</text>
</a>
</g>
<!-- Node5&#45;&gt;Node6 -->
<g id="edge16" class="edge"><title>Node5&#45;&gt;Node6</title>
<path fill="none" stroke="midnightblue" d="M157.935,-290.362C160.01,-282.84 162.857,-272.519 165.364,-263.431"/>
<polygon fill="midnightblue" stroke="midnightblue" points="168.799,-264.141 168.084,-253.571 162.051,-262.28 168.799,-264.141"/>
</g>
<!-- Node6&#45;&gt;Node2 -->
<g id="edge18" class="edge"><title>Node6&#45;&gt;Node2</title>
<path fill="none" stroke="midnightblue" d="M170.134,-232.429C167.204,-196.648 157.623,-79.6628 153.699,-31.7481"/>
<polygon fill="midnightblue" stroke="midnightblue" points="157.175,-31.3144 152.871,-21.6335 150.199,-31.8859 157.175,-31.3144"/>
</g>
<!-- Node7 -->
<g id="node17" class="node"><title>Node7</title>
<a xlink:href="gendefs_8h.html" target="_top" xlink:title="gendefs.h">
<polygon fill="white" stroke="black" points="483.5,-174.5 483.5,-195.5 542.5,-195.5 542.5,-174.5 483.5,-174.5"/>
<text text-anchor="middle" x="513" y="-182.5" font-family="Helvetica,sans-Serif" font-size="10.00">gendefs.h</text>
</a>
</g>
<!-- Node6&#45;&gt;Node7 -->
<g id="edge20" class="edge"><title>Node6&#45;&gt;Node7</title>
<path fill="none" stroke="midnightblue" d="M200.752,-237.954C262.274,-227.521 403.523,-203.566 472.967,-191.789"/>
<polygon fill="midnightblue" stroke="midnightblue" points="473.799,-195.198 483.073,-190.075 472.629,-188.297 473.799,-195.198"/>
</g>
<!-- Node8 -->
<g id="node19" class="node"><title>Node8</title>
<a xlink:href="undefval_8h.html" target="_top" xlink:title="undefval.h">
<polygon fill="white" stroke="black" points="420,-116.5 420,-137.5 482,-137.5 482,-116.5 420,-116.5"/>
<text text-anchor="middle" x="451" y="-124.5" font-family="Helvetica,sans-Serif" font-size="10.00">undefval.h</text>
</a>
</g>
<!-- Node7&#45;&gt;Node8 -->
<g id="edge22" class="edge"><title>Node7&#45;&gt;Node8</title>
<path fill="none" stroke="midnightblue" d="M501.628,-174.362C492.714,-166.023 480.121,-154.242 469.724,-144.516"/>
<polygon fill="midnightblue" stroke="midnightblue" points="471.993,-141.846 462.3,-137.571 467.211,-146.958 471.993,-141.846"/>
</g>
<!-- Node15 -->
<g id="node36" class="node"><title>Node15</title>
<a xlink:href="commontypes_8h.html" target="_top" xlink:title="commontypes.h">
<polygon fill="white" stroke="black" points="500,-116.5 500,-137.5 586,-137.5 586,-116.5 500,-116.5"/>
<text text-anchor="middle" x="543" y="-124.5" font-family="Helvetica,sans-Serif" font-size="10.00">commontypes.h</text>
</a>
</g>
<!-- Node7&#45;&gt;Node15 -->
<g id="edge42" class="edge"><title>Node7&#45;&gt;Node15</title>
<path fill="none" stroke="midnightblue" d="M518.502,-174.362C522.52,-166.595 528.081,-155.843 532.89,-146.546"/>
<polygon fill="midnightblue" stroke="midnightblue" points="536.047,-148.061 537.532,-137.571 529.829,-144.845 536.047,-148.061"/>
</g>
<!-- Node16 -->
<g id="node39" class="node"><title>Node16</title>
<a xlink:href="errmsg_8h.html" target="_top" xlink:title="errmsg.h">
<polygon fill="white" stroke="black" points="603.5,-116.5 603.5,-137.5 658.5,-137.5 658.5,-116.5 603.5,-116.5"/>
<text text-anchor="middle" x="631" y="-124.5" font-family="Helvetica,sans-Serif" font-size="10.00">errmsg.h</text>
</a>
</g>
<!-- Node7&#45;&gt;Node16 -->
<g id="edge46" class="edge"><title>Node7&#45;&gt;Node16</title>
<path fill="none" stroke="midnightblue" d="M534.369,-174.497C552.799,-165.438 579.637,-152.246 600.355,-142.063"/>
<polygon fill="midnightblue" stroke="midnightblue" points="601.961,-145.174 609.391,-137.621 598.873,-138.891 601.961,-145.174"/>
</g>
<!-- Node8&#45;&gt;Node2 -->
<g id="edge24" class="edge"><title>Node8&#45;&gt;Node2</title>
<path fill="none" stroke="midnightblue" d="M443.657,-116.443C432.316,-101.003 409.005,-72.5252 382,-58 350.406,-41.0066 253.501,-25.1592 196.049,-16.9175"/>
<polygon fill="midnightblue" stroke="midnightblue" points="196.197,-13.4037 185.805,-15.4686 195.217,-20.3347 196.197,-13.4037"/>
</g>
<!-- Node9 -->
<g id="node22" class="node"><title>Node9</title>
<a xlink:href="commondefs_8h.html" target="_top" xlink:title="commondefs.h">
<polygon fill="white" stroke="black" points="509.5,-58.5 509.5,-79.5 590.5,-79.5 590.5,-58.5 509.5,-58.5"/>
<text text-anchor="middle" x="550" y="-66.5" font-family="Helvetica,sans-Serif" font-size="10.00">commondefs.h</text>
</a>
</g>
<!-- Node8&#45;&gt;Node9 -->
<g id="edge26" class="edge"><title>Node8&#45;&gt;Node9</title>
<path fill="none" stroke="midnightblue" d="M469.158,-116.362C484.23,-107.532 505.887,-94.844 522.993,-84.8224"/>
<polygon fill="midnightblue" stroke="midnightblue" points="525.098,-87.6456 531.957,-79.5707 521.559,-81.6058 525.098,-87.6456"/>
</g>
<!-- Node13 -->
<g id="node31" class="node"><title>Node13</title>
<a xlink:href="plftypes_8h.html" target="_top" xlink:title="plftypes.h">
<polygon fill="white" stroke="black" points="433.5,-58.5 433.5,-79.5 492.5,-79.5 492.5,-58.5 433.5,-58.5"/>
<text text-anchor="middle" x="463" y="-66.5" font-family="Helvetica,sans-Serif" font-size="10.00">plftypes.h</text>
</a>
</g>
<!-- Node8&#45;&gt;Node13 -->
<g id="edge36" class="edge"><title>Node8&#45;&gt;Node13</title>
<path fill="none" stroke="midnightblue" d="M453.201,-116.362C454.757,-108.84 456.893,-98.5187 458.773,-89.4308"/>
<polygon fill="midnightblue" stroke="midnightblue" points="462.214,-90.0724 460.813,-79.5707 455.359,-88.6541 462.214,-90.0724"/>
</g>
<!-- Node9&#45;&gt;Node2 -->
<g id="edge28" class="edge"><title>Node9&#45;&gt;Node2</title>
<path fill="none" stroke="midnightblue" d="M509.413,-59.6032C506.571,-59.0332 503.746,-58.4922 501,-58 391.896,-38.4453 262.285,-23.015 195.936,-15.675"/>
<polygon fill="midnightblue" stroke="midnightblue" points="196.165,-12.1793 185.843,-14.5671 195.401,-19.1375 196.165,-12.1793"/>
</g>
<!-- Node10 -->
<g id="node25" class="node"><title>Node10</title>
<a xlink:href="plfdefs_8h.html" target="_top" xlink:title="plfdefs.h">
<polygon fill="white" stroke="black" points="479,-0.5 479,-21.5 533,-21.5 533,-0.5 479,-0.5"/>
<text text-anchor="middle" x="506" y="-8.5" font-family="Helvetica,sans-Serif" font-size="10.00">plfdefs.h</text>
</a>
</g>
<!-- Node9&#45;&gt;Node10 -->
<g id="edge30" class="edge"><title>Node9&#45;&gt;Node10</title>
<path fill="none" stroke="midnightblue" d="M541.93,-58.3619C535.851,-50.3496 527.363,-39.1605 520.163,-29.6696"/>
<polygon fill="midnightblue" stroke="midnightblue" points="522.851,-27.4222 514.019,-21.5707 517.275,-31.653 522.851,-27.4222"/>
</g>
<!-- Node11 -->
<g id="node27" class="node"><title>Node11</title>
<polygon fill="white" stroke="#bfbfbf" points="638.5,-0.5 638.5,-21.5 697.5,-21.5 697.5,-0.5 638.5,-0.5"/>
<text text-anchor="middle" x="668" y="-8.5" font-family="Helvetica,sans-Serif" font-size="10.00">stdexcept</text>
</g>
<!-- Node9&#45;&gt;Node11 -->
<g id="edge32" class="edge"><title>Node9&#45;&gt;Node11</title>
<path fill="none" stroke="midnightblue" d="M571.369,-58.4966C589.799,-49.4378 616.637,-36.2462 637.355,-26.0628"/>
<polygon fill="midnightblue" stroke="midnightblue" points="638.961,-29.1735 646.391,-21.6212 635.873,-22.8914 638.961,-29.1735"/>
</g>
<!-- Node12 -->
<g id="node29" class="node"><title>Node12</title>
<polygon fill="white" stroke="#bfbfbf" points="550.5,-0.5 550.5,-21.5 585.5,-21.5 585.5,-0.5 550.5,-0.5"/>
<text text-anchor="middle" x="568" y="-8.5" font-family="Helvetica,sans-Serif" font-size="10.00">new</text>
</g>
<!-- Node9&#45;&gt;Node12 -->
<g id="edge34" class="edge"><title>Node9&#45;&gt;Node12</title>
<path fill="none" stroke="midnightblue" d="M553.301,-58.3619C555.661,-50.7584 558.909,-40.294 561.751,-31.1349"/>
<polygon fill="midnightblue" stroke="midnightblue" points="565.098,-32.1587 564.719,-21.5707 558.413,-30.0839 565.098,-32.1587"/>
</g>
<!-- Node13&#45;&gt;Node10 -->
<g id="edge38" class="edge"><title>Node13&#45;&gt;Node10</title>
<path fill="none" stroke="midnightblue" d="M470.887,-58.3619C476.827,-50.3496 485.122,-39.1605 492.159,-29.6696"/>
<polygon fill="midnightblue" stroke="midnightblue" points="495.019,-31.6883 498.163,-21.5707 489.396,-27.5193 495.019,-31.6883"/>
</g>
<!-- Node14 -->
<g id="node34" class="node"><title>Node14</title>
<polygon fill="white" stroke="#bfbfbf" points="412.5,-0.5 412.5,-21.5 461.5,-21.5 461.5,-0.5 412.5,-0.5"/>
<text text-anchor="middle" x="437" y="-8.5" font-family="Helvetica,sans-Serif" font-size="10.00">stdint.h</text>
</g>
<!-- Node13&#45;&gt;Node14 -->
<g id="edge40" class="edge"><title>Node13&#45;&gt;Node14</title>
<path fill="none" stroke="midnightblue" d="M458.231,-58.3619C454.786,-50.6766 450.031,-40.0686 445.894,-30.8399"/>
<polygon fill="midnightblue" stroke="midnightblue" points="449.023,-29.264 441.739,-21.5707 442.635,-32.1275 449.023,-29.264"/>
</g>
<!-- Node15&#45;&gt;Node9 -->
<g id="edge44" class="edge"><title>Node15&#45;&gt;Node9</title>
<path fill="none" stroke="midnightblue" d="M544.284,-116.362C545.182,-108.922 546.41,-98.7427 547.498,-89.7276"/>
<polygon fill="midnightblue" stroke="midnightblue" points="551.001,-89.918 548.724,-79.5707 544.051,-89.0792 551.001,-89.918"/>
</g>
<!-- Node16&#45;&gt;Node9 -->
<g id="edge48" class="edge"><title>Node16&#45;&gt;Node9</title>
<path fill="none" stroke="midnightblue" d="M616.143,-116.362C604.154,-107.777 587.073,-95.5459 573.272,-85.6636"/>
<polygon fill="midnightblue" stroke="midnightblue" points="574.931,-82.5469 564.762,-79.5707 570.855,-88.2383 574.931,-82.5469"/>
</g>
<!-- Node17 -->
<g id="node42" class="node"><title>Node17</title>
<polygon fill="white" stroke="#bfbfbf" points="607.5,-58.5 607.5,-79.5 658.5,-79.5 658.5,-58.5 607.5,-58.5"/>
<text text-anchor="middle" x="633" y="-66.5" font-family="Helvetica,sans-Serif" font-size="10.00">typeinfo</text>
</g>
<!-- Node16&#45;&gt;Node17 -->
<g id="edge50" class="edge"><title>Node16&#45;&gt;Node17</title>
<path fill="none" stroke="midnightblue" d="M631.367,-116.362C631.623,-108.922 631.974,-98.7427 632.285,-89.7276"/>
<polygon fill="midnightblue" stroke="midnightblue" points="635.789,-89.6854 632.635,-79.5707 628.793,-89.4441 635.789,-89.6854"/>
</g>
<!-- Node18&#45;&gt;Node2 -->
<g id="edge54" class="edge"><title>Node18&#45;&gt;Node2</title>
<path fill="none" stroke="midnightblue" d="M303.262,-116.06C311.982,-101.416 323.914,-75.284 311,-58 297.113,-39.4134 237.665,-25.5978 195.544,-17.9149"/>
<polygon fill="midnightblue" stroke="midnightblue" points="195.971,-14.4361 185.514,-16.1403 194.751,-21.329 195.971,-14.4361"/>
</g>
<!-- Node18&#45;&gt;Node9 -->
<g id="edge58" class="edge"><title>Node18&#45;&gt;Node9</title>
<path fill="none" stroke="midnightblue" d="M323.182,-120.793C365.143,-111.212 446.375,-92.6625 499.375,-80.5601"/>
<polygon fill="midnightblue" stroke="midnightblue" points="500.282,-83.943 509.252,-78.3046 498.724,-77.1187 500.282,-83.943"/>
</g>
<!-- Node18&#45;&gt;Node13 -->
<g id="edge56" class="edge"><title>Node18&#45;&gt;Node13</title>
<path fill="none" stroke="midnightblue" d="M323.203,-117.552C350.475,-108.081 392.743,-93.4008 423.665,-82.6613"/>
<polygon fill="midnightblue" stroke="midnightblue" points="424.974,-85.9117 433.272,-79.3246 422.678,-79.2992 424.974,-85.9117"/>
</g>
<!-- Node19 -->
<g id="node49" class="node"><title>Node19</title>
<polygon fill="white" stroke="#bfbfbf" points="253.5,-58.5 253.5,-79.5 302.5,-79.5 302.5,-58.5 253.5,-58.5"/>
<text text-anchor="middle" x="278" y="-66.5" font-family="Helvetica,sans-Serif" font-size="10.00">ctype.h</text>
</g>
<!-- Node18&#45;&gt;Node19 -->
<g id="edge60" class="edge"><title>Node18&#45;&gt;Node19</title>
<path fill="none" stroke="midnightblue" d="M292.699,-116.362C290.339,-108.758 287.091,-98.294 284.249,-89.1349"/>
<polygon fill="midnightblue" stroke="midnightblue" points="287.587,-88.0839 281.281,-79.5707 280.902,-90.1587 287.587,-88.0839"/>
</g>
<!-- Node20 -->
<g id="node51" class="node"><title>Node20</title>
<polygon fill="white" stroke="#bfbfbf" points="180,-58.5 180,-79.5 236,-79.5 236,-58.5 180,-58.5"/>
<text text-anchor="middle" x="208" y="-66.5" font-family="Helvetica,sans-Serif" font-size="10.00">wctype.h</text>
</g>
<!-- Node18&#45;&gt;Node20 -->
<g id="edge62" class="edge"><title>Node18&#45;&gt;Node20</title>
<path fill="none" stroke="midnightblue" d="M279.859,-116.362C266.586,-107.614 247.568,-95.0786 232.43,-85.1015"/>
<polygon fill="midnightblue" stroke="midnightblue" points="234.314,-82.1515 224.038,-79.5707 230.462,-87.9962 234.314,-82.1515"/>
</g>
<!-- Node22 -->
<g id="node55" class="node"><title>Node22</title>
<a xlink:href="objectset_8h.html" target="_top" xlink:title="objectset.h">
<polygon fill="white" stroke="black" points="430.5,-522.5 430.5,-543.5 495.5,-543.5 495.5,-522.5 430.5,-522.5"/>
<text text-anchor="middle" x="463" y="-530.5" font-family="Helvetica,sans-Serif" font-size="10.00">objectset.h</text>
</a>
</g>
<!-- Node21&#45;&gt;Node22 -->
<g id="edge66" class="edge"><title>Node21&#45;&gt;Node22</title>
<path fill="none" stroke="midnightblue" d="M345.896,-580.497C368.633,-571.275 401.93,-557.769 427.212,-547.515"/>
<polygon fill="midnightblue" stroke="midnightblue" points="428.862,-550.623 436.813,-543.621 426.231,-544.136 428.862,-550.623"/>
</g>
<!-- Node23 -->
<g id="node57" class="node"><title>Node23</title>
<a xlink:href="odset_8h.html" target="_top" xlink:title="odset.h">
<polygon fill="white" stroke="black" points="713.5,-348.5 713.5,-369.5 762.5,-369.5 762.5,-348.5 713.5,-348.5"/>
<text text-anchor="middle" x="738" y="-356.5" font-family="Helvetica,sans-Serif" font-size="10.00">odset.h</text>
</a>
</g>
<!-- Node22&#45;&gt;Node23 -->
<g id="edge68" class="edge"><title>Node22&#45;&gt;Node23</title>
<path fill="none" stroke="midnightblue" d="M495.829,-525.629C545.316,-513.077 639.638,-483.362 700,-428 714.576,-414.631 724.811,-394.346 730.958,-379.225"/>
<polygon fill="midnightblue" stroke="midnightblue" points="734.285,-380.322 734.563,-369.731 727.741,-377.837 734.285,-380.322"/>
</g>
<!-- Node24 -->
<g id="node60" class="node"><title>Node24</title>
<a xlink:href="vectoraccess_8h.html" target="_top" xlink:title="vectoraccess.h">
<polygon fill="white" stroke="black" points="421.5,-464.5 421.5,-485.5 504.5,-485.5 504.5,-464.5 421.5,-464.5"/>
<text text-anchor="middle" x="463" y="-472.5" font-family="Helvetica,sans-Serif" font-size="10.00">vectoraccess.h</text>
</a>
</g>
<!-- Node22&#45;&gt;Node24 -->
<g id="edge72" class="edge"><title>Node22&#45;&gt;Node24</title>
<path fill="none" stroke="midnightblue" d="M463,-522.362C463,-514.922 463,-504.743 463,-495.728"/>
<polygon fill="midnightblue" stroke="midnightblue" points="466.5,-495.571 463,-485.571 459.5,-495.571 466.5,-495.571"/>
</g>
<!-- Node23&#45;&gt;Node7 -->
<g id="edge70" class="edge"><title>Node23&#45;&gt;Node7</title>
<path fill="none" stroke="midnightblue" d="M724.264,-348.377C686.528,-319.195 581.026,-237.607 534.972,-201.992"/>
<polygon fill="midnightblue" stroke="midnightblue" points="536.894,-199.053 526.842,-195.705 532.612,-204.591 536.894,-199.053"/>
</g>
<!-- Node24&#45;&gt;Node7 -->
<g id="edge82" class="edge"><title>Node24&#45;&gt;Node7</title>
<path fill="none" stroke="midnightblue" d="M471.428,-464.367C478.341,-455.194 487.943,-441.352 494,-428 507.141,-399.033 513,-390.808 513,-359 513,-359 513,-359 513,-301 513,-267.598 513,-228.785 513,-205.594"/>
<polygon fill="midnightblue" stroke="midnightblue" points="516.5,-205.556 513,-195.556 509.5,-205.556 516.5,-205.556"/>
</g>
<!-- Node24&#45;&gt;Node11 -->
<g id="edge88" class="edge"><title>Node24&#45;&gt;Node11</title>
<path fill="none" stroke="midnightblue" d="M504.683,-471.841C569.227,-464.427 686,-439.843 686,-359 686,-359 686,-359 686,-127 686,-93.3732 678.522,-54.9046 673.206,-31.8049"/>
<polygon fill="midnightblue" stroke="midnightblue" points="676.541,-30.7008 670.812,-21.7882 669.733,-32.3279 676.541,-30.7008"/>
</g>
<!-- Node25 -->
<g id="node62" class="node"><title>Node25</title>
<a xlink:href="debug_8h.html" target="_top" xlink:title="debug.h">
<polygon fill="white" stroke="black" points="372.5,-406.5 372.5,-427.5 423.5,-427.5 423.5,-406.5 372.5,-406.5"/>
<text text-anchor="middle" x="398" y="-414.5" font-family="Helvetica,sans-Serif" font-size="10.00">debug.h</text>
</a>
</g>
<!-- Node24&#45;&gt;Node25 -->
<g id="edge74" class="edge"><title>Node24&#45;&gt;Node25</title>
<path fill="none" stroke="midnightblue" d="M451.078,-464.362C441.641,-455.941 428.27,-444.011 417.31,-434.231"/>
<polygon fill="midnightblue" stroke="midnightblue" points="419.638,-431.617 409.846,-427.571 414.978,-436.84 419.638,-431.617"/>
</g>
<!-- Node26 -->
<g id="node68" class="node"><title>Node26</title>
<polygon fill="white" stroke="#bfbfbf" points="299,-406.5 299,-427.5 355,-427.5 355,-406.5 299,-406.5"/>
<text text-anchor="middle" x="327" y="-414.5" font-family="Helvetica,sans-Serif" font-size="10.00">algorithm</text>
</g>
<!-- Node24&#45;&gt;Node26 -->
<g id="edge84" class="edge"><title>Node24&#45;&gt;Node26</title>
<path fill="none" stroke="midnightblue" d="M438.371,-464.497C416.843,-455.315 385.36,-441.889 361.355,-431.652"/>
<polygon fill="midnightblue" stroke="midnightblue" points="362.476,-428.325 351.905,-427.621 359.73,-434.764 362.476,-428.325"/>
</g>
<!-- Node27 -->
<g id="node70" class="node"><title>Node27</title>
<polygon fill="white" stroke="#bfbfbf" points="441,-406.5 441,-427.5 485,-427.5 485,-406.5 441,-406.5"/>
<text text-anchor="middle" x="463" y="-414.5" font-family="Helvetica,sans-Serif" font-size="10.00">vector</text>
</g>
<!-- Node24&#45;&gt;Node27 -->
<g id="edge86" class="edge"><title>Node24&#45;&gt;Node27</title>
<path fill="none" stroke="midnightblue" d="M463,-464.362C463,-456.922 463,-446.743 463,-437.728"/>
<polygon fill="midnightblue" stroke="midnightblue" points="466.5,-437.571 463,-427.571 459.5,-437.571 466.5,-437.571"/>
</g>
<!-- Node25&#45;&gt;Node2 -->
<g id="edge76" class="edge"><title>Node25&#45;&gt;Node2</title>
<path fill="none" stroke="midnightblue" d="M393.312,-406.364C384.875,-386.219 368,-340.939 368,-301 368,-301 368,-301 368,-127 368,-49.5839 258.977,-23.6186 195.841,-15.0726"/>
<polygon fill="midnightblue" stroke="midnightblue" points="196.109,-11.5788 185.75,-13.8014 195.234,-18.5239 196.109,-11.5788"/>
</g>
<!-- Node25&#45;&gt;Node4 -->
<g id="edge80" class="edge"><title>Node25&#45;&gt;Node4</title>
<path fill="none" stroke="midnightblue" d="M372.456,-408.458C369.614,-407.591 366.753,-406.753 364,-406 306.171,-390.179 238.296,-375.646 195.959,-367.052"/>
<polygon fill="midnightblue" stroke="midnightblue" points="196.522,-363.595 186.027,-365.05 195.139,-370.457 196.522,-363.595"/>
</g>
<!-- Node25&#45;&gt;Node7 -->
<g id="edge78" class="edge"><title>Node25&#45;&gt;Node7</title>
<path fill="none" stroke="midnightblue" d="M403.24,-406.429C421.088,-370.422 479.7,-252.179 503.162,-204.847"/>
<polygon fill="midnightblue" stroke="midnightblue" points="506.424,-206.148 507.729,-195.634 500.152,-203.039 506.424,-206.148"/>
</g>
</g>
</svg>
