<?xml version="1.0" encoding="UTF-8" standalone="no"?>
<!DOCTYPE svg PUBLIC "-//W3C//DTD SVG 1.1//EN"
 "http://www.w3.org/Graphics/SVG/1.1/DTD/svg11.dtd">
<!-- Generated by graphviz version 2.26.0 (20091210.2329)
 -->
<!-- Title: flatposdata.h Pages: 1 -->
<svg width="712pt" height="610pt"
 viewBox="0.00 0.00 712.00 610.00" xmlns="http://www.w3.org/2000/svg" xmlns:xlink="http://www.w3.org/1999/xlink">
<g id="graph1" class="graph" transform="scale(1 1) rotate(0) translate(4 606)">
<title>flatposdata.h</title>
<polygon fill="white" stroke="white" points="-4,5 -4,-606 709,-606 709,5 -4,5"/>
<!-- Node1 -->
<g id="node1" class="node"><title>Node1</title>
<polygon fill="#bfbfbf" stroke="black" points="249.5,-580.5 249.5,-601.5 322.5,-601.5 322.5,-580.5 249.5,-580.5"/>
<text text-anchor="middle" x="286" y="-588.5" font-family="Helvetica,sans-Serif" font-size="10.00">flatposdata.h</text>
</g>
<!-- Node2 -->
<g id="node3" class="node"><title>Node2</title>
<polygon fill="white" stroke="#bfbfbf" points="166.5,-522.5 166.5,-543.5 241.5,-543.5 241.5,-522.5 166.5,-522.5"/>
<text text-anchor="middle" x="204" y="-530.5" font-family="Helvetica,sans-Serif" font-size="10.00">generalmod.h</text>
</g>
<!-- Node1&#45;&gt;Node2 -->
<g id="edge2" class="edge"><title>Node1&#45;&gt;Node2</title>
<path fill="none" stroke="midnightblue" d="M270.96,-580.362C258.707,-571.696 241.201,-559.313 227.161,-549.382"/>
<polygon fill="midnightblue" stroke="midnightblue" points="229.13,-546.488 218.945,-543.571 225.088,-552.203 229.13,-546.488"/>
</g>
<!-- Node3 -->
<g id="node5" class="node"><title>Node3</title>
<a xlink:href="ranges_8h.html" target="_top" xlink:title="ranges.h">
<polygon fill="white" stroke="black" points="259,-522.5 259,-543.5 313,-543.5 313,-522.5 259,-522.5"/>
<text text-anchor="middle" x="286" y="-530.5" font-family="Helvetica,sans-Serif" font-size="10.00">ranges.h</text>
</a>
</g>
<!-- Node1&#45;&gt;Node3 -->
<g id="edge4" class="edge"><title>Node1&#45;&gt;Node3</title>
<path fill="none" stroke="midnightblue" d="M286,-580.362C286,-572.922 286,-562.743 286,-553.728"/>
<polygon fill="midnightblue" stroke="midnightblue" points="289.5,-553.571 286,-543.571 282.5,-553.571 289.5,-553.571"/>
</g>
<!-- Node31 -->
<g id="node81" class="node"><title>Node31</title>
<a xlink:href="indexinfo_8h.html" target="_top" xlink:title="indexinfo.h">
<polygon fill="white" stroke="black" points="339,-522.5 339,-543.5 403,-543.5 403,-522.5 339,-522.5"/>
<text text-anchor="middle" x="371" y="-530.5" font-family="Helvetica,sans-Serif" font-size="10.00">indexinfo.h</text>
</a>
</g>
<!-- Node1&#45;&gt;Node31 -->
<g id="edge100" class="edge"><title>Node1&#45;&gt;Node31</title>
<path fill="none" stroke="midnightblue" d="M301.59,-580.362C314.291,-571.696 332.438,-559.313 346.992,-549.382"/>
<polygon fill="midnightblue" stroke="midnightblue" points="349.221,-552.098 355.509,-543.571 345.276,-546.316 349.221,-552.098"/>
</g>
<!-- Node4 -->
<g id="node7" class="node"><title>Node4</title>
<a xlink:href="gendefs_8h.html" target="_top" xlink:title="gendefs.h">
<polygon fill="white" stroke="black" points="227.5,-174.5 227.5,-195.5 286.5,-195.5 286.5,-174.5 227.5,-174.5"/>
<text text-anchor="middle" x="257" y="-182.5" font-family="Helvetica,sans-Serif" font-size="10.00">gendefs.h</text>
</a>
</g>
<!-- Node3&#45;&gt;Node4 -->
<g id="edge6" class="edge"><title>Node3&#45;&gt;Node4</title>
<path fill="none" stroke="midnightblue" d="M274.634,-522.355C255.519,-503.235 219,-460.955 219,-417 219,-417 219,-417 219,-301 219,-265.741 235.051,-227.315 246.289,-204.732"/>
<polygon fill="midnightblue" stroke="midnightblue" points="249.418,-206.301 250.895,-195.809 243.198,-203.09 249.418,-206.301"/>
</g>
<!-- Node16 -->
<g id="node35" class="node"><title>Node16</title>
<a xlink:href="math2_8h.html" target="_top" xlink:title="math2.h">
<polygon fill="white" stroke="black" points="260,-464.5 260,-485.5 312,-485.5 312,-464.5 260,-464.5"/>
<text text-anchor="middle" x="286" y="-472.5" font-family="Helvetica,sans-Serif" font-size="10.00">math2.h</text>
</a>
</g>
<!-- Node3&#45;&gt;Node16 -->
<g id="edge38" class="edge"><title>Node3&#45;&gt;Node16</title>
<path fill="none" stroke="midnightblue" d="M286,-522.362C286,-514.922 286,-504.743 286,-495.728"/>
<polygon fill="midnightblue" stroke="midnightblue" points="289.5,-495.571 286,-485.571 282.5,-495.571 289.5,-495.571"/>
</g>
<!-- Node25 -->
<g id="node62" class="node"><title>Node25</title>
<a xlink:href="ptrman_8h.html" target="_top" xlink:title="ptrman.h">
<polygon fill="white" stroke="black" points="127.5,-232.5 127.5,-253.5 182.5,-253.5 182.5,-232.5 127.5,-232.5"/>
<text text-anchor="middle" x="155" y="-240.5" font-family="Helvetica,sans-Serif" font-size="10.00">ptrman.h</text>
</a>
</g>
<!-- Node3&#45;&gt;Node25 -->
<g id="edge74" class="edge"><title>Node3&#45;&gt;Node25</title>
<path fill="none" stroke="midnightblue" d="M258.886,-523.232C205.305,-503.092 91,-455.604 91,-417 91,-417 91,-417 91,-359 91,-320.453 118.428,-282.662 137.373,-261.157"/>
<polygon fill="midnightblue" stroke="midnightblue" points="139.983,-263.489 144.143,-253.745 134.815,-258.768 139.983,-263.489"/>
</g>
<!-- Node29 -->
<g id="node74" class="node"><title>Node29</title>
<a xlink:href="varlenarray_8h.html" target="_top" xlink:title="varlenarray.h">
<polygon fill="white" stroke="black" points="118.5,-406.5 118.5,-427.5 191.5,-427.5 191.5,-406.5 118.5,-406.5"/>
<text text-anchor="middle" x="155" y="-414.5" font-family="Helvetica,sans-Serif" font-size="10.00">varlenarray.h</text>
</a>
</g>
<!-- Node3&#45;&gt;Node29 -->
<g id="edge90" class="edge"><title>Node3&#45;&gt;Node29</title>
<path fill="none" stroke="midnightblue" d="M261.946,-522.372C244.854,-514.066 222.01,-501.368 205,-486 189.152,-471.681 175.277,-451.567 166.189,-436.749"/>
<polygon fill="midnightblue" stroke="midnightblue" points="169.047,-434.706 160.937,-427.89 163.026,-438.276 169.047,-434.706"/>
</g>
<!-- Node30 -->
<g id="node77" class="node"><title>Node30</title>
<a xlink:href="samplingdata_8h.html" target="_top" xlink:title="samplingdata.h">
<polygon fill="white" stroke="black" points="329.5,-464.5 329.5,-485.5 412.5,-485.5 412.5,-464.5 329.5,-464.5"/>
<text text-anchor="middle" x="371" y="-472.5" font-family="Helvetica,sans-Serif" font-size="10.00">samplingdata.h</text>
</a>
</g>
<!-- Node3&#45;&gt;Node30 -->
<g id="edge94" class="edge"><title>Node3&#45;&gt;Node30</title>
<path fill="none" stroke="midnightblue" d="M296.226,-522.362C307.499,-513.614 325.618,-501.079 341.285,-491.101"/>
<polygon fill="midnightblue" stroke="midnightblue" points="343.522,-493.831 350.156,-485.571 339.819,-487.891 343.522,-493.831"/>
</g>
<!-- Node5 -->
<g id="node9" class="node"><title>Node5</title>
<a xlink:href="undefval_8h.html" target="_top" xlink:title="undefval.h">
<polygon fill="white" stroke="black" points="286,-116.5 286,-137.5 348,-137.5 348,-116.5 286,-116.5"/>
<text text-anchor="middle" x="317" y="-124.5" font-family="Helvetica,sans-Serif" font-size="10.00">undefval.h</text>
</a>
</g>
<!-- Node4&#45;&gt;Node5 -->
<g id="edge8" class="edge"><title>Node4&#45;&gt;Node5</title>
<path fill="none" stroke="midnightblue" d="M268.005,-174.362C276.547,-166.104 288.58,-154.472 298.583,-144.803"/>
<polygon fill="midnightblue" stroke="midnightblue" points="301.308,-147.037 306.065,-137.571 296.442,-142.004 301.308,-147.037"/>
</g>
<!-- Node13 -->
<g id="node27" class="node"><title>Node13</title>
<a xlink:href="commontypes_8h.html" target="_top" xlink:title="commontypes.h">
<polygon fill="white" stroke="black" points="72,-116.5 72,-137.5 158,-137.5 158,-116.5 72,-116.5"/>
<text text-anchor="middle" x="115" y="-124.5" font-family="Helvetica,sans-Serif" font-size="10.00">commontypes.h</text>
</a>
</g>
<!-- Node4&#45;&gt;Node13 -->
<g id="edge28" class="edge"><title>Node4&#45;&gt;Node13</title>
<path fill="none" stroke="midnightblue" d="M231.285,-174.497C208.707,-165.275 175.642,-151.769 150.537,-141.515"/>
<polygon fill="midnightblue" stroke="midnightblue" points="151.585,-138.162 141.004,-137.621 148.938,-144.643 151.585,-138.162"/>
</g>
<!-- Node14 -->
<g id="node30" class="node"><title>Node14</title>
<a xlink:href="errmsg_8h.html" target="_top" xlink:title="errmsg.h">
<polygon fill="white" stroke="black" points="-0.5,-116.5 -0.5,-137.5 54.5,-137.5 54.5,-116.5 -0.5,-116.5"/>
<text text-anchor="middle" x="27" y="-124.5" font-family="Helvetica,sans-Serif" font-size="10.00">errmsg.h</text>
</a>
</g>
<!-- Node4&#45;&gt;Node14 -->
<g id="edge32" class="edge"><title>Node4&#45;&gt;Node14</title>
<path fill="none" stroke="midnightblue" d="M227.281,-178.372C190.958,-170.148 127.422,-155.36 64.5365,-138.33"/>
<polygon fill="midnightblue" stroke="midnightblue" points="65.4295,-134.946 54.8609,-135.69 63.587,-141.699 65.4295,-134.946"/>
</g>
<!-- Node6 -->
<g id="node11" class="node"><title>Node6</title>
<polygon fill="white" stroke="#bfbfbf" points="397.5,-0.5 397.5,-21.5 464.5,-21.5 464.5,-0.5 397.5,-0.5"/>
<text text-anchor="middle" x="431" y="-8.5" font-family="Helvetica,sans-Serif" font-size="10.00">basicmod.h</text>
</g>
<!-- Node5&#45;&gt;Node6 -->
<g id="edge10" class="edge"><title>Node5&#45;&gt;Node6</title>
<path fill="none" stroke="midnightblue" d="M327.521,-116.295C347.117,-96.3545 389.393,-53.337 413.403,-28.9056"/>
<polygon fill="midnightblue" stroke="midnightblue" points="415.992,-31.2648 420.505,-21.6792 410.999,-26.3582 415.992,-31.2648"/>
</g>
<!-- Node7 -->
<g id="node13" class="node"><title>Node7</title>
<a xlink:href="commondefs_8h.html" target="_top" xlink:title="commondefs.h">
<polygon fill="white" stroke="black" points="67.5,-58.5 67.5,-79.5 148.5,-79.5 148.5,-58.5 67.5,-58.5"/>
<text text-anchor="middle" x="108" y="-66.5" font-family="Helvetica,sans-Serif" font-size="10.00">commondefs.h</text>
</a>
</g>
<!-- Node5&#45;&gt;Node7 -->
<g id="edge12" class="edge"><title>Node5&#45;&gt;Node7</title>
<path fill="none" stroke="midnightblue" d="M285.711,-118.317C251.278,-108.761 195.533,-93.2915 155.659,-82.226"/>
<polygon fill="midnightblue" stroke="midnightblue" points="156.458,-78.8155 145.886,-79.5139 154.586,-85.5605 156.458,-78.8155"/>
</g>
<!-- Node11 -->
<g id="node22" class="node"><title>Node11</title>
<a xlink:href="plftypes_8h.html" target="_top" xlink:title="plftypes.h">
<polygon fill="white" stroke="black" points="287.5,-58.5 287.5,-79.5 346.5,-79.5 346.5,-58.5 287.5,-58.5"/>
<text text-anchor="middle" x="317" y="-66.5" font-family="Helvetica,sans-Serif" font-size="10.00">plftypes.h</text>
</a>
</g>
<!-- Node5&#45;&gt;Node11 -->
<g id="edge22" class="edge"><title>Node5&#45;&gt;Node11</title>
<path fill="none" stroke="midnightblue" d="M317,-116.362C317,-108.922 317,-98.7427 317,-89.7276"/>
<polygon fill="midnightblue" stroke="midnightblue" points="320.5,-89.5706 317,-79.5707 313.5,-89.5707 320.5,-89.5706"/>
</g>
<!-- Node7&#45;&gt;Node6 -->
<g id="edge14" class="edge"><title>Node7&#45;&gt;Node6</title>
<path fill="none" stroke="midnightblue" d="M148.608,-59.7166C151.445,-59.1196 154.263,-58.5416 157,-58 237.953,-41.9813 332.996,-26.3943 387.197,-17.8081"/>
<polygon fill="midnightblue" stroke="midnightblue" points="387.82,-21.253 397.152,-16.2369 386.729,-14.3386 387.82,-21.253"/>
</g>
<!-- Node8 -->
<g id="node16" class="node"><title>Node8</title>
<a xlink:href="plfdefs_8h.html" target="_top" xlink:title="plfdefs.h">
<polygon fill="white" stroke="black" points="220,-0.5 220,-21.5 274,-21.5 274,-0.5 220,-0.5"/>
<text text-anchor="middle" x="247" y="-8.5" font-family="Helvetica,sans-Serif" font-size="10.00">plfdefs.h</text>
</a>
</g>
<!-- Node7&#45;&gt;Node8 -->
<g id="edge16" class="edge"><title>Node7&#45;&gt;Node8</title>
<path fill="none" stroke="midnightblue" d="M133.172,-58.4966C155.273,-49.2746 187.639,-35.7695 212.213,-25.5153"/>
<polygon fill="midnightblue" stroke="midnightblue" points="213.665,-28.7022 221.546,-21.6212 210.969,-22.2421 213.665,-28.7022"/>
</g>
<!-- Node9 -->
<g id="node18" class="node"><title>Node9</title>
<polygon fill="white" stroke="#bfbfbf" points="110.5,-0.5 110.5,-21.5 169.5,-21.5 169.5,-0.5 110.5,-0.5"/>
<text text-anchor="middle" x="140" y="-8.5" font-family="Helvetica,sans-Serif" font-size="10.00">stdexcept</text>
</g>
<!-- Node7&#45;&gt;Node9 -->
<g id="edge18" class="edge"><title>Node7&#45;&gt;Node9</title>
<path fill="none" stroke="midnightblue" d="M113.869,-58.3619C118.155,-50.5949 124.087,-39.8426 129.216,-30.5458"/>
<polygon fill="midnightblue" stroke="midnightblue" points="132.402,-32.0172 134.168,-21.5707 126.273,-28.6357 132.402,-32.0172"/>
</g>
<!-- Node10 -->
<g id="node20" class="node"><title>Node10</title>
<polygon fill="white" stroke="#bfbfbf" points="58.5,-0.5 58.5,-21.5 93.5,-21.5 93.5,-0.5 58.5,-0.5"/>
<text text-anchor="middle" x="76" y="-8.5" font-family="Helvetica,sans-Serif" font-size="10.00">new</text>
</g>
<!-- Node7&#45;&gt;Node10 -->
<g id="edge20" class="edge"><title>Node7&#45;&gt;Node10</title>
<path fill="none" stroke="midnightblue" d="M102.131,-58.3619C97.8454,-50.5949 91.9131,-39.8426 86.7839,-30.5458"/>
<polygon fill="midnightblue" stroke="midnightblue" points="89.7274,-28.6357 81.8321,-21.5707 83.5984,-32.0172 89.7274,-28.6357"/>
</g>
<!-- Node11&#45;&gt;Node8 -->
<g id="edge24" class="edge"><title>Node11&#45;&gt;Node8</title>
<path fill="none" stroke="midnightblue" d="M304.161,-58.3619C293.998,-49.9408 279.599,-38.0105 267.796,-28.2308"/>
<polygon fill="midnightblue" stroke="midnightblue" points="269.691,-25.2558 259.758,-21.5707 265.225,-30.6459 269.691,-25.2558"/>
</g>
<!-- Node12 -->
<g id="node25" class="node"><title>Node12</title>
<polygon fill="white" stroke="#bfbfbf" points="292.5,-0.5 292.5,-21.5 341.5,-21.5 341.5,-0.5 292.5,-0.5"/>
<text text-anchor="middle" x="317" y="-8.5" font-family="Helvetica,sans-Serif" font-size="10.00">stdint.h</text>
</g>
<!-- Node11&#45;&gt;Node12 -->
<g id="edge26" class="edge"><title>Node11&#45;&gt;Node12</title>
<path fill="none" stroke="midnightblue" d="M317,-58.3619C317,-50.9219 317,-40.7427 317,-31.7276"/>
<polygon fill="midnightblue" stroke="midnightblue" points="320.5,-31.5706 317,-21.5707 313.5,-31.5707 320.5,-31.5706"/>
</g>
<!-- Node13&#45;&gt;Node7 -->
<g id="edge30" class="edge"><title>Node13&#45;&gt;Node7</title>
<path fill="none" stroke="midnightblue" d="M113.716,-116.362C112.818,-108.922 111.59,-98.7427 110.502,-89.7276"/>
<polygon fill="midnightblue" stroke="midnightblue" points="113.949,-89.0792 109.276,-79.5707 106.999,-89.918 113.949,-89.0792"/>
</g>
<!-- Node14&#45;&gt;Node7 -->
<g id="edge34" class="edge"><title>Node14&#45;&gt;Node7</title>
<path fill="none" stroke="midnightblue" d="M41.8566,-116.362C53.8455,-107.777 70.9273,-95.5459 84.7285,-85.6636"/>
<polygon fill="midnightblue" stroke="midnightblue" points="87.1446,-88.2383 93.2375,-79.5707 83.0693,-82.5469 87.1446,-88.2383"/>
</g>
<!-- Node15 -->
<g id="node33" class="node"><title>Node15</title>
<polygon fill="white" stroke="#bfbfbf" points="-0.5,-58.5 -0.5,-79.5 50.5,-79.5 50.5,-58.5 -0.5,-58.5"/>
<text text-anchor="middle" x="25" y="-66.5" font-family="Helvetica,sans-Serif" font-size="10.00">typeinfo</text>
</g>
<!-- Node14&#45;&gt;Node15 -->
<g id="edge36" class="edge"><title>Node14&#45;&gt;Node15</title>
<path fill="none" stroke="midnightblue" d="M26.6332,-116.362C26.3766,-108.922 26.0256,-98.7427 25.7147,-89.7276"/>
<polygon fill="midnightblue" stroke="midnightblue" points="29.2071,-89.4441 25.3645,-79.5707 22.2113,-89.6854 29.2071,-89.4441"/>
</g>
<!-- Node16&#45;&gt;Node4 -->
<g id="edge42" class="edge"><title>Node16&#45;&gt;Node4</title>
<path fill="none" stroke="midnightblue" d="M281.469,-464.348C273.312,-444.178 257,-398.857 257,-359 257,-359 257,-359 257,-301 257,-267.598 257,-228.785 257,-205.594"/>
<polygon fill="midnightblue" stroke="midnightblue" points="260.5,-205.556 257,-195.556 253.5,-205.556 260.5,-205.556"/>
</g>
<!-- Node16&#45;&gt;Node6 -->
<g id="edge40" class="edge"><title>Node16&#45;&gt;Node6</title>
<path fill="none" stroke="midnightblue" d="M312.365,-466.686C315.278,-465.776 318.201,-464.866 321,-464 474.12,-416.638 666,-519.278 666,-359 666,-359 666,-359 666,-127 666,-95.1919 670.096,-79.8711 647,-58 622.603,-34.8969 530.527,-21.4098 474.769,-15.1928"/>
<polygon fill="midnightblue" stroke="midnightblue" points="475.123,-11.7108 464.805,-14.1159 474.371,-18.6702 475.123,-11.7108"/>
</g>
<!-- Node17 -->
<g id="node39" class="node"><title>Node17</title>
<a xlink:href="odcomplex_8h.html" target="_top" xlink:title="odcomplex.h">
<polygon fill="white" stroke="black" points="285,-406.5 285,-427.5 357,-427.5 357,-406.5 285,-406.5"/>
<text text-anchor="middle" x="321" y="-414.5" font-family="Helvetica,sans-Serif" font-size="10.00">odcomplex.h</text>
</a>
</g>
<!-- Node16&#45;&gt;Node17 -->
<g id="edge44" class="edge"><title>Node16&#45;&gt;Node17</title>
<path fill="none" stroke="midnightblue" d="M292.42,-464.362C297.156,-456.513 303.732,-445.616 309.382,-436.253"/>
<polygon fill="midnightblue" stroke="midnightblue" points="312.451,-437.941 314.621,-427.571 306.458,-434.324 312.451,-437.941"/>
</g>
<!-- Node18 -->
<g id="node41" class="node"><title>Node18</title>
<polygon fill="white" stroke="#bfbfbf" points="292.5,-348.5 292.5,-369.5 345.5,-369.5 345.5,-348.5 292.5,-348.5"/>
<text text-anchor="middle" x="319" y="-356.5" font-family="Helvetica,sans-Serif" font-size="10.00">complex</text>
</g>
<!-- Node17&#45;&gt;Node18 -->
<g id="edge46" class="edge"><title>Node17&#45;&gt;Node18</title>
<path fill="none" stroke="midnightblue" d="M320.633,-406.362C320.377,-398.922 320.026,-388.743 319.715,-379.728"/>
<polygon fill="midnightblue" stroke="midnightblue" points="323.207,-379.444 319.365,-369.571 316.211,-379.685 323.207,-379.444"/>
</g>
<!-- Node19 -->
<g id="node43" class="node"><title>Node19</title>
<a xlink:href="convert_8h.html" target="_top" xlink:title="convert.h">
<polygon fill="white" stroke="black" points="400.5,-348.5 400.5,-369.5 457.5,-369.5 457.5,-348.5 400.5,-348.5"/>
<text text-anchor="middle" x="429" y="-356.5" font-family="Helvetica,sans-Serif" font-size="10.00">convert.h</text>
</a>
</g>
<!-- Node17&#45;&gt;Node19 -->
<g id="edge48" class="edge"><title>Node17&#45;&gt;Node19</title>
<path fill="none" stroke="midnightblue" d="M340.558,-406.497C357.198,-397.56 381.327,-384.602 400.18,-374.477"/>
<polygon fill="midnightblue" stroke="midnightblue" points="402.069,-377.436 409.223,-369.621 398.757,-371.269 402.069,-377.436"/>
</g>
<!-- Node19&#45;&gt;Node5 -->
<g id="edge62" class="edge"><title>Node19&#45;&gt;Node5</title>
<path fill="none" stroke="midnightblue" d="M417.21,-348.178C407.758,-339.11 394.543,-325.512 385,-312 347.772,-259.287 328.491,-183.84 320.918,-147.762"/>
<polygon fill="midnightblue" stroke="midnightblue" points="324.26,-146.627 318.863,-137.51 317.397,-148.003 324.26,-146.627"/>
</g>
<!-- Node20 -->
<g id="node45" class="node"><title>Node20</title>
<a xlink:href="string2_8h.html" target="_top" xlink:title="string2.h">
<polygon fill="white" stroke="black" points="478,-116.5 478,-137.5 532,-137.5 532,-116.5 478,-116.5"/>
<text text-anchor="middle" x="505" y="-124.5" font-family="Helvetica,sans-Serif" font-size="10.00">string2.h</text>
</a>
</g>
<!-- Node19&#45;&gt;Node20 -->
<g id="edge50" class="edge"><title>Node19&#45;&gt;Node20</title>
<path fill="none" stroke="midnightblue" d="M442.778,-348.157C452.802,-339.479 465.828,-326.409 473,-312 500.261,-257.233 504.75,-183.331 505.204,-147.79"/>
<polygon fill="midnightblue" stroke="midnightblue" points="508.704,-147.682 505.233,-137.671 501.704,-147.661 508.704,-147.682"/>
</g>
<!-- Node23 -->
<g id="node55" class="node"><title>Node23</title>
<a xlink:href="fixedstring_8h.html" target="_top" xlink:title="fixedstring.h">
<polygon fill="white" stroke="black" points="394,-290.5 394,-311.5 464,-311.5 464,-290.5 394,-290.5"/>
<text text-anchor="middle" x="429" y="-298.5" font-family="Helvetica,sans-Serif" font-size="10.00">fixedstring.h</text>
</a>
</g>
<!-- Node19&#45;&gt;Node23 -->
<g id="edge64" class="edge"><title>Node19&#45;&gt;Node23</title>
<path fill="none" stroke="midnightblue" d="M429,-348.362C429,-340.922 429,-330.743 429,-321.728"/>
<polygon fill="midnightblue" stroke="midnightblue" points="432.5,-321.571 429,-311.571 425.5,-321.571 432.5,-321.571"/>
</g>
<!-- Node20&#45;&gt;Node6 -->
<g id="edge52" class="edge"><title>Node20&#45;&gt;Node6</title>
<path fill="none" stroke="midnightblue" d="M498.858,-116.088C491.05,-102.354 477.017,-78.1241 464,-58 457.891,-48.5559 450.758,-38.3082 444.69,-29.7992"/>
<polygon fill="midnightblue" stroke="midnightblue" points="447.52,-27.7407 438.839,-21.6679 441.838,-31.8292 447.52,-27.7407"/>
</g>
<!-- Node20&#45;&gt;Node7 -->
<g id="edge56" class="edge"><title>Node20&#45;&gt;Node7</title>
<path fill="none" stroke="midnightblue" d="M477.801,-124.138C420.563,-117.943 283.307,-102.179 158.682,-80.1953"/>
<polygon fill="midnightblue" stroke="midnightblue" points="159.046,-76.705 148.587,-78.3956 157.818,-83.5964 159.046,-76.705"/>
</g>
<!-- Node20&#45;&gt;Node11 -->
<g id="edge54" class="edge"><title>Node20&#45;&gt;Node11</title>
<path fill="none" stroke="midnightblue" d="M477.663,-118.566C445.734,-108.716 392.664,-92.3433 356.317,-81.1298"/>
<polygon fill="midnightblue" stroke="midnightblue" points="357.128,-77.7172 346.541,-78.1136 355.064,-84.4061 357.128,-77.7172"/>
</g>
<!-- Node21 -->
<g id="node50" class="node"><title>Node21</title>
<polygon fill="white" stroke="#bfbfbf" points="515.5,-58.5 515.5,-79.5 564.5,-79.5 564.5,-58.5 515.5,-58.5"/>
<text text-anchor="middle" x="540" y="-66.5" font-family="Helvetica,sans-Serif" font-size="10.00">ctype.h</text>
</g>
<!-- Node20&#45;&gt;Node21 -->
<g id="edge58" class="edge"><title>Node20&#45;&gt;Node21</title>
<path fill="none" stroke="midnightblue" d="M511.42,-116.362C516.156,-108.513 522.732,-97.6159 528.382,-88.2527"/>
<polygon fill="midnightblue" stroke="midnightblue" points="531.451,-89.9409 533.621,-79.5707 525.458,-86.3242 531.451,-89.9409"/>
</g>
<!-- Node22 -->
<g id="node52" class="node"><title>Node22</title>
<polygon fill="white" stroke="#bfbfbf" points="582,-58.5 582,-79.5 638,-79.5 638,-58.5 582,-58.5"/>
<text text-anchor="middle" x="610" y="-66.5" font-family="Helvetica,sans-Serif" font-size="10.00">wctype.h</text>
</g>
<!-- Node20&#45;&gt;Node22 -->
<g id="edge60" class="edge"><title>Node20&#45;&gt;Node22</title>
<path fill="none" stroke="midnightblue" d="M524.259,-116.362C540.466,-107.409 563.853,-94.4908 582.109,-84.4064"/>
<polygon fill="midnightblue" stroke="midnightblue" points="583.802,-87.4696 590.863,-79.5707 580.418,-81.3422 583.802,-87.4696"/>
</g>
<!-- Node23&#45;&gt;Node6 -->
<g id="edge66" class="edge"><title>Node23&#45;&gt;Node6</title>
<path fill="none" stroke="midnightblue" d="M432.281,-290.243C438.188,-269.898 450,-224.295 450,-185 450,-185 450,-185 450,-127 450,-93.175 442.035,-54.5229 436.419,-31.474"/>
<polygon fill="midnightblue" stroke="midnightblue" points="439.812,-30.6159 433.969,-21.7784 433.026,-32.3312 439.812,-30.6159"/>
</g>
<!-- Node24 -->
<g id="node58" class="node"><title>Node24</title>
<a xlink:href="odstring_8h.html" target="_top" xlink:title="odstring.h">
<polygon fill="white" stroke="black" points="363.5,-232.5 363.5,-253.5 422.5,-253.5 422.5,-232.5 363.5,-232.5"/>
<text text-anchor="middle" x="393" y="-240.5" font-family="Helvetica,sans-Serif" font-size="10.00">odstring.h</text>
</a>
</g>
<!-- Node23&#45;&gt;Node24 -->
<g id="edge68" class="edge"><title>Node23&#45;&gt;Node24</title>
<path fill="none" stroke="midnightblue" d="M422.397,-290.362C417.525,-282.513 410.762,-271.616 404.95,-262.253"/>
<polygon fill="midnightblue" stroke="midnightblue" points="407.809,-260.221 399.561,-253.571 401.861,-263.913 407.809,-260.221"/>
</g>
<!-- Node24&#45;&gt;Node4 -->
<g id="edge72" class="edge"><title>Node24&#45;&gt;Node4</title>
<path fill="none" stroke="midnightblue" d="M368.371,-232.497C346.843,-223.315 315.36,-209.889 291.355,-199.652"/>
<polygon fill="midnightblue" stroke="midnightblue" points="292.476,-196.325 281.905,-195.621 289.73,-202.764 292.476,-196.325"/>
</g>
<!-- Node24&#45;&gt;Node6 -->
<g id="edge70" class="edge"><title>Node24&#45;&gt;Node6</title>
<path fill="none" stroke="midnightblue" d="M394.732,-232.429C400.592,-196.648 419.754,-79.6628 427.602,-31.7481"/>
<polygon fill="midnightblue" stroke="midnightblue" points="431.096,-32.0678 429.258,-21.6335 424.188,-30.9362 431.096,-32.0678"/>
</g>
<!-- Node25&#45;&gt;Node4 -->
<g id="edge76" class="edge"><title>Node25&#45;&gt;Node4</title>
<path fill="none" stroke="midnightblue" d="M173.708,-232.362C189.381,-223.45 211.964,-210.609 229.663,-200.545"/>
<polygon fill="midnightblue" stroke="midnightblue" points="231.447,-203.556 238.41,-195.571 227.987,-197.471 231.447,-203.556"/>
</g>
<!-- Node26 -->
<g id="node65" class="node"><title>Node26</title>
<a xlink:href="atomic_8h.html" target="_top" xlink:title="atomic.h">
<polygon fill="white" stroke="black" points="176,-116.5 176,-137.5 230,-137.5 230,-116.5 176,-116.5"/>
<text text-anchor="middle" x="203" y="-124.5" font-family="Helvetica,sans-Serif" font-size="10.00">atomic.h</text>
</a>
</g>
<!-- Node25&#45;&gt;Node26 -->
<g id="edge78" class="edge"><title>Node25&#45;&gt;Node26</title>
<path fill="none" stroke="midnightblue" d="M161.609,-232.477C167.275,-223.145 175.389,-209.016 181,-196 187.833,-180.147 193.665,-161.452 197.604,-147.523"/>
<polygon fill="midnightblue" stroke="midnightblue" points="201.078,-148.088 200.34,-137.519 194.326,-146.241 201.078,-148.088"/>
</g>
<!-- Node28 -->
<g id="node72" class="node"><title>Node28</title>
<polygon fill="white" stroke="#bfbfbf" points="124,-174.5 124,-195.5 172,-195.5 172,-174.5 124,-174.5"/>
<text text-anchor="middle" x="148" y="-182.5" font-family="Helvetica,sans-Serif" font-size="10.00">stdlib.h</text>
</g>
<!-- Node25&#45;&gt;Node28 -->
<g id="edge88" class="edge"><title>Node25&#45;&gt;Node28</title>
<path fill="none" stroke="midnightblue" d="M153.716,-232.362C152.818,-224.922 151.59,-214.743 150.502,-205.728"/>
<polygon fill="midnightblue" stroke="midnightblue" points="153.949,-205.079 149.276,-195.571 146.999,-205.918 153.949,-205.079"/>
</g>
<!-- Node26&#45;&gt;Node6 -->
<g id="edge80" class="edge"><title>Node26&#45;&gt;Node6</title>
<path fill="none" stroke="midnightblue" d="M211.971,-116.319C225.176,-101.245 251.293,-73.8095 279,-58 312.987,-38.6068 355.907,-26.2843 387.464,-19.1458"/>
<polygon fill="midnightblue" stroke="midnightblue" points="388.258,-22.5549 397.285,-17.0078 386.769,-15.7151 388.258,-22.5549"/>
</g>
<!-- Node26&#45;&gt;Node7 -->
<g id="edge82" class="edge"><title>Node26&#45;&gt;Node7</title>
<path fill="none" stroke="midnightblue" d="M185.576,-116.362C171.113,-107.532 150.331,-94.844 133.916,-84.8224"/>
<polygon fill="midnightblue" stroke="midnightblue" points="135.673,-81.7943 125.314,-79.5707 132.025,-87.7688 135.673,-81.7943"/>
</g>
<!-- Node26&#45;&gt;Node11 -->
<g id="edge84" class="edge"><title>Node26&#45;&gt;Node11</title>
<path fill="none" stroke="midnightblue" d="M223.645,-116.497C241.37,-107.479 267.145,-94.3649 287.123,-84.2006"/>
<polygon fill="midnightblue" stroke="midnightblue" points="288.798,-87.2753 296.124,-79.6212 285.624,-81.0364 288.798,-87.2753"/>
</g>
<!-- Node27 -->
<g id="node70" class="node"><title>Node27</title>
<polygon fill="white" stroke="#bfbfbf" points="165.5,-58.5 165.5,-79.5 232.5,-79.5 232.5,-58.5 165.5,-58.5"/>
<text text-anchor="middle" x="199" y="-66.5" font-family="Helvetica,sans-Serif" font-size="10.00">odversion.h</text>
</g>
<!-- Node26&#45;&gt;Node27 -->
<g id="edge86" class="edge"><title>Node26&#45;&gt;Node27</title>
<path fill="none" stroke="midnightblue" d="M202.266,-116.362C201.753,-108.922 201.051,-98.7427 200.429,-89.7276"/>
<polygon fill="midnightblue" stroke="midnightblue" points="203.909,-89.3061 199.729,-79.5707 196.925,-89.7878 203.909,-89.3061"/>
</g>
<!-- Node29&#45;&gt;Node25 -->
<g id="edge92" class="edge"><title>Node29&#45;&gt;Node25</title>
<path fill="none" stroke="midnightblue" d="M155,-406.377C155,-378.293 155,-301.673 155,-264.203"/>
<polygon fill="midnightblue" stroke="midnightblue" points="158.5,-263.928 155,-253.928 151.5,-263.928 158.5,-263.928"/>
</g>
<!-- Node30&#45;&gt;Node3 -->
<g id="edge98" class="edge"><title>Node30&#45;&gt;Node3</title>
<path fill="none" stroke="midnightblue" d="M360.861,-485.571C349.623,-494.299 331.515,-506.831 315.836,-516.821"/>
<polygon fill="midnightblue" stroke="midnightblue" points="313.586,-514.099 306.954,-522.362 317.291,-520.039 313.586,-514.099"/>
</g>
<!-- Node30&#45;&gt;Node4 -->
<g id="edge96" class="edge"><title>Node30&#45;&gt;Node4</title>
<path fill="none" stroke="midnightblue" d="M370.657,-464.197C370.124,-450.575 368.845,-426.461 366,-406 362.374,-379.927 363.529,-372.538 354,-348 332.286,-292.084 292.362,-233.215 271.136,-203.905"/>
<polygon fill="midnightblue" stroke="midnightblue" points="273.925,-201.79 265.19,-195.794 268.28,-205.929 273.925,-201.79"/>
</g>
<!-- Node31&#45;&gt;Node6 -->
<g id="edge102" class="edge"><title>Node31&#45;&gt;Node6</title>
<path fill="none" stroke="midnightblue" d="M403.232,-528.799C486.802,-517.011 704,-480.286 704,-417 704,-417 704,-417 704,-127 704,-92.4103 695.685,-78.7355 668,-58 638.069,-35.5829 534.87,-21.5933 474.978,-15.166"/>
<polygon fill="midnightblue" stroke="midnightblue" points="474.994,-11.6486 464.684,-14.0898 474.266,-18.6106 474.994,-11.6486"/>
</g>
<!-- Node31&#45;&gt;Node30 -->
<g id="edge104" class="edge"><title>Node31&#45;&gt;Node30</title>
<path fill="none" stroke="midnightblue" d="M371,-522.362C371,-514.922 371,-504.743 371,-495.728"/>
<polygon fill="midnightblue" stroke="midnightblue" points="374.5,-495.571 371,-485.571 367.5,-495.571 374.5,-495.571"/>
</g>
</g>
</svg>
