<?xml version="1.0" encoding="UTF-8" standalone="no"?>
<!DOCTYPE svg PUBLIC "-//W3C//DTD SVG 1.1//EN"
 "http://www.w3.org/Graphics/SVG/1.1/DTD/svg11.dtd">
<!-- Generated by graphviz version 2.26.0 (20091210.2329)
 -->
<!-- Title: flatview.h Pages: 1 -->
<svg width="2773pt" height="146pt"
 viewBox="0.00 0.00 2773.00 146.00" xmlns="http://www.w3.org/2000/svg" xmlns:xlink="http://www.w3.org/1999/xlink">
<g id="graph1" class="graph" transform="scale(1 1) rotate(0) translate(4 142)">
<title>flatview.h</title>
<polygon fill="white" stroke="white" points="-4,5 -4,-142 2770,-142 2770,5 -4,5"/>
<!-- Node1 -->
<g id="node1" class="node"><title>Node1</title>
<polygon fill="#bfbfbf" stroke="black" points="1297.5,-116.5 1297.5,-137.5 1356.5,-137.5 1356.5,-116.5 1297.5,-116.5"/>
<text text-anchor="middle" x="1327" y="-124.5" font-family="Helvetica,sans-Serif" font-size="10.00">flatview.h</text>
</g>
<!-- Node2 -->
<g id="node3" class="node"><title>Node2</title>
<a xlink:href="flatauxdataeditor_8h.html" target="_top" xlink:title="flatauxdataeditor.h">
<polygon fill="white" stroke="black" points="40.5,-58.5 40.5,-79.5 137.5,-79.5 137.5,-58.5 40.5,-58.5"/>
<text text-anchor="middle" x="89" y="-66.5" font-family="Helvetica,sans-Serif" font-size="10.00">flatauxdataeditor.h</text>
</a>
</g>
<!-- Node1&#45;&gt;Node2 -->
<g id="edge2" class="edge"><title>Node1&#45;&gt;Node2</title>
<path fill="none" stroke="midnightblue" d="M1287.22,-126.136C1108.5,-122.144 378.559,-104.619 151,-80 146.653,-79.5297 142.15,-78.9378 137.647,-78.2737"/>
<polygon fill="midnightblue" stroke="midnightblue" points="1287.16,-129.636 1297.24,-126.359 1287.32,-122.637 1287.16,-129.636"/>
</g>
<!-- Node4 -->
<g id="node7" class="node"><title>Node4</title>
<a xlink:href="view2dpickset_8h.html" target="_top" xlink:title="view2dpickset.h">
<polygon fill="white" stroke="black" points="121.5,-0.5 121.5,-21.5 208.5,-21.5 208.5,-0.5 121.5,-0.5"/>
<text text-anchor="middle" x="165" y="-8.5" font-family="Helvetica,sans-Serif" font-size="10.00">view2dpickset.h</text>
</a>
</g>
<!-- Node1&#45;&gt;Node4 -->
<g id="edge54" class="edge"><title>Node1&#45;&gt;Node4</title>
<path fill="none" stroke="midnightblue" d="M1287.25,-126.67C1090.45,-124.874 228.058,-115.02 184,-80 166.395,-66.0064 164.186,-37.308 164.404,-21.6936"/>
<polygon fill="midnightblue" stroke="midnightblue" points="1287.4,-130.172 1297.43,-126.761 1287.46,-123.172 1287.4,-130.172"/>
</g>
<!-- Node5 -->
<g id="node9" class="node"><title>Node5</title>
<a xlink:href="emfault3dpainter_8h.html" target="_top" xlink:title="emfault3dpainter.h">
<polygon fill="white" stroke="black" points="192.5,-58.5 192.5,-79.5 289.5,-79.5 289.5,-58.5 192.5,-58.5"/>
<text text-anchor="middle" x="241" y="-66.5" font-family="Helvetica,sans-Serif" font-size="10.00">emfault3dpainter.h</text>
</a>
</g>
<!-- Node1&#45;&gt;Node5 -->
<g id="edge8" class="edge"><title>Node1&#45;&gt;Node5</title>
<path fill="none" stroke="midnightblue" d="M1286.99,-125.949C1122.11,-121.5 494.795,-103.358 298,-80 295.298,-79.6793 292.532,-79.3038 289.745,-78.8888"/>
<polygon fill="midnightblue" stroke="midnightblue" points="1287.08,-129.453 1297.17,-126.222 1287.27,-122.455 1287.08,-129.453"/>
</g>
<!-- Node6 -->
<g id="node11" class="node"><title>Node6</title>
<a xlink:href="emfaultstickpainter_8h.html" target="_top" xlink:title="emfaultstickpainter.h">
<polygon fill="white" stroke="black" points="306.5,-58.5 306.5,-79.5 413.5,-79.5 413.5,-58.5 306.5,-58.5"/>
<text text-anchor="middle" x="360" y="-66.5" font-family="Helvetica,sans-Serif" font-size="10.00">emfaultstickpainter.h</text>
</a>
</g>
<!-- Node1&#45;&gt;Node6 -->
<g id="edge10" class="edge"><title>Node1&#45;&gt;Node6</title>
<path fill="none" stroke="midnightblue" d="M1287.18,-126.687C1160.4,-125.315 754.965,-118.036 422,-80 419.285,-79.6898 416.508,-79.3353 413.709,-78.9481"/>
<polygon fill="midnightblue" stroke="midnightblue" points="1287.17,-130.187 1297.2,-126.789 1287.24,-123.187 1287.17,-130.187"/>
</g>
<!-- Node7 -->
<g id="node13" class="node"><title>Node7</title>
<a xlink:href="emhorizonpainter2d_8h.html" target="_top" xlink:title="emhorizonpainter2d.h">
<polygon fill="white" stroke="black" points="431,-58.5 431,-79.5 541,-79.5 541,-58.5 431,-58.5"/>
<text text-anchor="middle" x="486" y="-66.5" font-family="Helvetica,sans-Serif" font-size="10.00">emhorizonpainter2d.h</text>
</a>
</g>
<!-- Node1&#45;&gt;Node7 -->
<g id="edge12" class="edge"><title>Node1&#45;&gt;Node7</title>
<path fill="none" stroke="midnightblue" d="M1287.18,-126.134C1172.41,-123.307 831.191,-112.57 550,-80 547.088,-79.6627 544.108,-79.2805 541.103,-78.8659"/>
<polygon fill="midnightblue" stroke="midnightblue" points="1287.18,-129.635 1297.26,-126.376 1287.34,-122.637 1287.18,-129.635"/>
</g>
<!-- Node8 -->
<g id="node15" class="node"><title>Node8</title>
<a xlink:href="emhorizonpainter3d_8h.html" target="_top" xlink:title="emhorizonpainter3d.h">
<polygon fill="white" stroke="black" points="559,-58.5 559,-79.5 669,-79.5 669,-58.5 559,-58.5"/>
<text text-anchor="middle" x="614" y="-66.5" font-family="Helvetica,sans-Serif" font-size="10.00">emhorizonpainter3d.h</text>
</a>
</g>
<!-- Node1&#45;&gt;Node8 -->
<g id="edge14" class="edge"><title>Node1&#45;&gt;Node8</title>
<path fill="none" stroke="midnightblue" d="M1287.35,-125.482C1185.75,-121.299 907.88,-108.011 678,-80 675.09,-79.6454 672.111,-79.2495 669.108,-78.8241"/>
<polygon fill="midnightblue" stroke="midnightblue" points="1287.34,-128.984 1297.47,-125.892 1287.62,-121.99 1287.34,-128.984"/>
</g>
<!-- Node9 -->
<g id="node17" class="node"><title>Node9</title>
<a xlink:href="syntheticdata_8h.html" target="_top" xlink:title="syntheticdata.h">
<polygon fill="white" stroke="black" points="686.5,-58.5 686.5,-79.5 769.5,-79.5 769.5,-58.5 686.5,-58.5"/>
<text text-anchor="middle" x="728" y="-66.5" font-family="Helvetica,sans-Serif" font-size="10.00">syntheticdata.h</text>
</a>
</g>
<!-- Node1&#45;&gt;Node9 -->
<g id="edge16" class="edge"><title>Node1&#45;&gt;Node9</title>
<path fill="none" stroke="midnightblue" d="M1287.27,-125.387C1196.56,-121.316 967.447,-108.821 778,-80 775.276,-79.5856 772.479,-79.1102 769.665,-78.5948"/>
<polygon fill="midnightblue" stroke="midnightblue" points="1287.24,-128.889 1297.38,-125.832 1287.54,-121.896 1287.24,-128.889"/>
</g>
<!-- Node12 -->
<g id="node23" class="node"><title>Node12</title>
<a xlink:href="uicolortable_8h.html" target="_top" xlink:title="uicolortable.h">
<polygon fill="white" stroke="black" points="787,-58.5 787,-79.5 861,-79.5 861,-58.5 787,-58.5"/>
<text text-anchor="middle" x="824" y="-66.5" font-family="Helvetica,sans-Serif" font-size="10.00">uicolortable.h</text>
</a>
</g>
<!-- Node1&#45;&gt;Node12 -->
<g id="edge22" class="edge"><title>Node1&#45;&gt;Node12</title>
<path fill="none" stroke="midnightblue" d="M1287.34,-124.693C1207.76,-119.674 1023.13,-106.066 870,-80 867.086,-79.504 864.082,-78.9299 861.07,-78.3096"/>
<polygon fill="midnightblue" stroke="midnightblue" points="1287.21,-128.191 1297.41,-125.317 1287.65,-121.205 1287.21,-128.191"/>
</g>
<!-- Node13 -->
<g id="node25" class="node"><title>Node13</title>
<a xlink:href="uiflatauxdatadisplay_8h.html" target="_top" xlink:title="uiflatauxdatadisplay.h">
<polygon fill="white" stroke="black" points="878.5,-58.5 878.5,-79.5 989.5,-79.5 989.5,-58.5 878.5,-58.5"/>
<text text-anchor="middle" x="934" y="-66.5" font-family="Helvetica,sans-Serif" font-size="10.00">uiflatauxdatadisplay.h</text>
</a>
</g>
<!-- Node1&#45;&gt;Node13 -->
<g id="edge24" class="edge"><title>Node1&#45;&gt;Node13</title>
<path fill="none" stroke="midnightblue" d="M1287.36,-121.706C1225.49,-113.361 1102.26,-96.4032 998,-80 995.327,-79.5795 992.593,-79.1411 989.832,-78.6919"/>
<polygon fill="midnightblue" stroke="midnightblue" points="1287.09,-125.201 1297.47,-123.066 1288.02,-118.264 1287.09,-125.201"/>
</g>
<!-- Node14 -->
<g id="node27" class="node"><title>Node14</title>
<a xlink:href="uiflatviewcoltabed_8h.html" target="_top" xlink:title="uiflatviewcoltabed.h">
<polygon fill="white" stroke="black" points="1006.5,-58.5 1006.5,-79.5 1109.5,-79.5 1109.5,-58.5 1006.5,-58.5"/>
<text text-anchor="middle" x="1058" y="-66.5" font-family="Helvetica,sans-Serif" font-size="10.00">uiflatviewcoltabed.h</text>
</a>
</g>
<!-- Node1&#45;&gt;Node14 -->
<g id="edge26" class="edge"><title>Node1&#45;&gt;Node14</title>
<path fill="none" stroke="midnightblue" d="M1287.46,-118.475C1239.6,-108.156 1158.99,-90.7756 1107.17,-79.6022"/>
<polygon fill="midnightblue" stroke="midnightblue" points="1286.93,-121.941 1297.44,-120.627 1288.41,-115.098 1286.93,-121.941"/>
</g>
<!-- Node15 -->
<g id="node29" class="node"><title>Node15</title>
<a xlink:href="uiflatviewer_8h.html" target="_top" xlink:title="uiflatviewer.h">
<polygon fill="white" stroke="black" points="1127,-58.5 1127,-79.5 1201,-79.5 1201,-58.5 1127,-58.5"/>
<text text-anchor="middle" x="1164" y="-66.5" font-family="Helvetica,sans-Serif" font-size="10.00">uiflatviewer.h</text>
</a>
</g>
<!-- Node1&#45;&gt;Node15 -->
<g id="edge28" class="edge"><title>Node1&#45;&gt;Node15</title>
<path fill="none" stroke="midnightblue" d="M1287.68,-113.009C1258.72,-102.702 1219.93,-88.903 1193.57,-79.5231"/>
<polygon fill="midnightblue" stroke="midnightblue" points="1286.89,-116.442 1297.48,-116.497 1289.23,-109.847 1286.89,-116.442"/>
</g>
<!-- Node18 -->
<g id="node35" class="node"><title>Node18</title>
<a xlink:href="uiflatviewpropdlg_8h.html" target="_top" xlink:title="uiflatviewpropdlg.h">
<polygon fill="white" stroke="black" points="1219,-58.5 1219,-79.5 1317,-79.5 1317,-58.5 1219,-58.5"/>
<text text-anchor="middle" x="1268" y="-66.5" font-family="Helvetica,sans-Serif" font-size="10.00">uiflatviewpropdlg.h</text>
</a>
</g>
<!-- Node1&#45;&gt;Node18 -->
<g id="edge34" class="edge"><title>Node1&#45;&gt;Node18</title>
<path fill="none" stroke="midnightblue" d="M1308.81,-109.118C1298.96,-99.4377 1287.13,-87.8098 1278.75,-79.5707"/>
<polygon fill="midnightblue" stroke="midnightblue" points="1306.59,-111.847 1316.18,-116.362 1311.5,-106.856 1306.59,-111.847"/>
</g>
<!-- Node19 -->
<g id="node37" class="node"><title>Node19</title>
<a xlink:href="uiflatviewproptabs_8h.html" target="_top" xlink:title="uiflatviewproptabs.h">
<polygon fill="white" stroke="black" points="1335,-58.5 1335,-79.5 1439,-79.5 1439,-58.5 1335,-58.5"/>
<text text-anchor="middle" x="1387" y="-66.5" font-family="Helvetica,sans-Serif" font-size="10.00">uiflatviewproptabs.h</text>
</a>
</g>
<!-- Node1&#45;&gt;Node19 -->
<g id="edge36" class="edge"><title>Node1&#45;&gt;Node19</title>
<path fill="none" stroke="midnightblue" d="M1345.2,-109.405C1355.27,-99.6683 1367.46,-87.8914 1376.06,-79.5707"/>
<polygon fill="midnightblue" stroke="midnightblue" points="1342.76,-106.895 1338,-116.362 1347.63,-111.928 1342.76,-106.895"/>
</g>
<!-- Node20 -->
<g id="node39" class="node"><title>Node20</title>
<a xlink:href="uimultiflatviewcontrol_8h.html" target="_top" xlink:title="uimultiflatviewcontrol.h">
<polygon fill="white" stroke="black" points="1457,-58.5 1457,-79.5 1573,-79.5 1573,-58.5 1457,-58.5"/>
<text text-anchor="middle" x="1515" y="-66.5" font-family="Helvetica,sans-Serif" font-size="10.00">uimultiflatviewcontrol.h</text>
</a>
</g>
<!-- Node1&#45;&gt;Node20 -->
<g id="edge38" class="edge"><title>Node1&#45;&gt;Node20</title>
<path fill="none" stroke="midnightblue" d="M1366.37,-114.854C1400.25,-104.401 1448.64,-89.4736 1480.9,-79.5217"/>
<polygon fill="midnightblue" stroke="midnightblue" points="1365.31,-111.517 1356.79,-117.81 1367.38,-118.206 1365.31,-111.517"/>
</g>
<!-- Node21 -->
<g id="node41" class="node"><title>Node21</title>
<a xlink:href="uistratlaymoddisp_8h.html" target="_top" xlink:title="uistratlaymoddisp.h">
<polygon fill="white" stroke="black" points="1590.5,-58.5 1590.5,-79.5 1691.5,-79.5 1691.5,-58.5 1590.5,-58.5"/>
<text text-anchor="middle" x="1641" y="-66.5" font-family="Helvetica,sans-Serif" font-size="10.00">uistratlaymoddisp.h</text>
</a>
</g>
<!-- Node1&#45;&gt;Node21 -->
<g id="edge40" class="edge"><title>Node1&#45;&gt;Node21</title>
<path fill="none" stroke="midnightblue" d="M1366.95,-119.663C1417.15,-110.437 1505.97,-94.0951 1582,-80 1584.77,-79.4872 1587.61,-78.9602 1590.47,-78.4278"/>
<polygon fill="midnightblue" stroke="midnightblue" points="1366.04,-116.271 1356.84,-121.521 1367.31,-123.156 1366.04,-116.271"/>
</g>
<!-- Node23 -->
<g id="node45" class="node"><title>Node23</title>
<a xlink:href="uipsviewer2dmainwin_8h.html" target="_top" xlink:title="uipsviewer2dmainwin.h">
<polygon fill="white" stroke="black" points="1709,-58.5 1709,-79.5 1827,-79.5 1827,-58.5 1709,-58.5"/>
<text text-anchor="middle" x="1768" y="-66.5" font-family="Helvetica,sans-Serif" font-size="10.00">uipsviewer2dmainwin.h</text>
</a>
</g>
<!-- Node1&#45;&gt;Node23 -->
<g id="edge44" class="edge"><title>Node1&#45;&gt;Node23</title>
<path fill="none" stroke="midnightblue" d="M1366.84,-122.444C1435.13,-114.532 1578.89,-97.421 1700,-80 1702.84,-79.5914 1705.75,-79.1627 1708.68,-78.7213"/>
<polygon fill="midnightblue" stroke="midnightblue" points="1366.08,-119.009 1356.54,-123.634 1366.88,-125.963 1366.08,-119.009"/>
</g>
<!-- Node24 -->
<g id="node47" class="node"><title>Node24</title>
<a xlink:href="horflatvieweditor2d_8h.html" target="_top" xlink:title="horflatvieweditor2d.h">
<polygon fill="white" stroke="black" points="1844.5,-58.5 1844.5,-79.5 1951.5,-79.5 1951.5,-58.5 1844.5,-58.5"/>
<text text-anchor="middle" x="1898" y="-66.5" font-family="Helvetica,sans-Serif" font-size="10.00">horflatvieweditor2d.h</text>
</a>
</g>
<!-- Node1&#45;&gt;Node24 -->
<g id="edge46" class="edge"><title>Node1&#45;&gt;Node24</title>
<path fill="none" stroke="midnightblue" d="M1366.74,-124.465C1452.62,-118.739 1661.87,-103.445 1836,-80 1838.71,-79.6353 1841.48,-79.237 1844.27,-78.815"/>
<polygon fill="midnightblue" stroke="midnightblue" points="1366.39,-120.98 1356.65,-125.132 1366.85,-127.965 1366.39,-120.98"/>
</g>
<!-- Node25 -->
<g id="node49" class="node"><title>Node25</title>
<a xlink:href="horflatvieweditor3d_8h.html" target="_top" xlink:title="horflatvieweditor3d.h">
<polygon fill="white" stroke="black" points="1968.5,-58.5 1968.5,-79.5 2075.5,-79.5 2075.5,-58.5 1968.5,-58.5"/>
<text text-anchor="middle" x="2022" y="-66.5" font-family="Helvetica,sans-Serif" font-size="10.00">horflatvieweditor3d.h</text>
</a>
</g>
<!-- Node1&#45;&gt;Node25 -->
<g id="edge48" class="edge"><title>Node1&#45;&gt;Node25</title>
<path fill="none" stroke="midnightblue" d="M1367.04,-125.439C1467.25,-121.227 1736.87,-108.003 1960,-80 1962.71,-79.6597 1965.49,-79.2809 1968.28,-78.8744"/>
<polygon fill="midnightblue" stroke="midnightblue" points="1366.61,-121.954 1356.77,-125.864 1366.9,-128.948 1366.61,-121.954"/>
</g>
<!-- Node26 -->
<g id="node51" class="node"><title>Node26</title>
<a xlink:href="uimpecorrelationgrp_8h.html" target="_top" xlink:title="uimpecorrelationgrp.h">
<polygon fill="white" stroke="black" points="2093,-58.5 2093,-79.5 2203,-79.5 2203,-58.5 2093,-58.5"/>
<text text-anchor="middle" x="2148" y="-66.5" font-family="Helvetica,sans-Serif" font-size="10.00">uimpecorrelationgrp.h</text>
</a>
</g>
<!-- Node1&#45;&gt;Node26 -->
<g id="edge50" class="edge"><title>Node1&#45;&gt;Node26</title>
<path fill="none" stroke="midnightblue" d="M1366.92,-126.043C1479.82,-123.008 1810.96,-111.846 2084,-80 2086.91,-79.6604 2089.89,-79.2763 2092.9,-78.8603"/>
<polygon fill="midnightblue" stroke="midnightblue" points="1366.59,-122.55 1356.68,-126.312 1366.77,-129.548 1366.59,-122.55"/>
</g>
<!-- Node27 -->
<g id="node53" class="node"><title>Node27</title>
<a xlink:href="uimpeeventgrp_8h.html" target="_top" xlink:title="uimpeeventgrp.h">
<polygon fill="white" stroke="black" points="2220.5,-58.5 2220.5,-79.5 2309.5,-79.5 2309.5,-58.5 2220.5,-58.5"/>
<text text-anchor="middle" x="2265" y="-66.5" font-family="Helvetica,sans-Serif" font-size="10.00">uimpeeventgrp.h</text>
</a>
</g>
<!-- Node1&#45;&gt;Node27 -->
<g id="edge52" class="edge"><title>Node1&#45;&gt;Node27</title>
<path fill="none" stroke="midnightblue" d="M1366.66,-125.695C1516.06,-120.653 2044.92,-101.648 2212,-80 2214.7,-79.6498 2217.47,-79.2378 2220.26,-78.7825"/>
<polygon fill="midnightblue" stroke="midnightblue" points="1366.44,-122.2 1356.57,-126.033 1366.68,-129.196 1366.44,-122.2"/>
</g>
<!-- Node28 -->
<g id="node56" class="node"><title>Node28</title>
<a xlink:href="visflatviewer_8h.html" target="_top" xlink:title="visflatviewer.h">
<polygon fill="white" stroke="black" points="2327,-58.5 2327,-79.5 2407,-79.5 2407,-58.5 2327,-58.5"/>
<text text-anchor="middle" x="2367" y="-66.5" font-family="Helvetica,sans-Serif" font-size="10.00">visflatviewer.h</text>
</a>
</g>
<!-- Node1&#45;&gt;Node28 -->
<g id="edge56" class="edge"><title>Node1&#45;&gt;Node28</title>
<path fill="none" stroke="midnightblue" d="M1367.1,-126.028C1528.29,-121.974 2129.45,-105.44 2318,-80 2320.94,-79.6036 2323.96,-79.1185 2326.99,-78.5752"/>
<polygon fill="midnightblue" stroke="midnightblue" points="1366.6,-122.539 1356.69,-126.287 1366.78,-129.536 1366.6,-122.539"/>
</g>
<!-- Node29 -->
<g id="node58" class="node"><title>Node29</title>
<a xlink:href="uiodplanedatatreeitem_8h.html" target="_top" xlink:title="uiodplanedatatreeitem.h">
<polygon fill="white" stroke="black" points="2425,-58.5 2425,-79.5 2545,-79.5 2545,-58.5 2425,-58.5"/>
<text text-anchor="middle" x="2485" y="-66.5" font-family="Helvetica,sans-Serif" font-size="10.00">uiodplanedatatreeitem.h</text>
</a>
</g>
<!-- Node1&#45;&gt;Node29 -->
<g id="edge58" class="edge"><title>Node1&#45;&gt;Node29</title>
<path fill="none" stroke="midnightblue" d="M1366.53,-125.904C1536.53,-121.098 2206.22,-101.177 2416,-80 2418.9,-79.7076 2421.86,-79.3733 2424.84,-79.0076"/>
<polygon fill="midnightblue" stroke="midnightblue" points="1366.42,-122.406 1356.52,-126.186 1366.62,-129.403 1366.42,-122.406"/>
</g>
<!-- Node30 -->
<g id="node60" class="node"><title>Node30</title>
<a xlink:href="uiodscenemgr_8h.html" target="_top" xlink:title="uiodscenemgr.h">
<polygon fill="white" stroke="black" points="2563,-58.5 2563,-79.5 2649,-79.5 2649,-58.5 2563,-58.5"/>
<text text-anchor="middle" x="2606" y="-66.5" font-family="Helvetica,sans-Serif" font-size="10.00">uiodscenemgr.h</text>
</a>
</g>
<!-- Node1&#45;&gt;Node30 -->
<g id="edge60" class="edge"><title>Node1&#45;&gt;Node30</title>
<path fill="none" stroke="midnightblue" d="M1366.73,-126.388C1550.16,-123.425 2316.25,-109.482 2554,-80 2556.93,-79.6366 2559.94,-79.1922 2562.97,-78.6927"/>
<polygon fill="midnightblue" stroke="midnightblue" points="1366.66,-122.889 1356.72,-126.548 1366.77,-129.888 1366.66,-122.889"/>
</g>
<!-- Node31 -->
<g id="node62" class="node"><title>Node31</title>
<a xlink:href="uiodviewer2dmgr_8h.html" target="_top" xlink:title="uiodviewer2dmgr.h">
<polygon fill="white" stroke="black" points="2667,-58.5 2667,-79.5 2765,-79.5 2765,-58.5 2667,-58.5"/>
<text text-anchor="middle" x="2716" y="-66.5" font-family="Helvetica,sans-Serif" font-size="10.00">uiodviewer2dmgr.h</text>
</a>
</g>
<!-- Node1&#45;&gt;Node31 -->
<g id="edge62" class="edge"><title>Node1&#45;&gt;Node31</title>
<path fill="none" stroke="midnightblue" d="M1366.91,-126.41C1559.98,-123.432 2398.36,-109.034 2658,-80 2660.85,-79.6811 2663.77,-79.3003 2666.72,-78.8751"/>
<polygon fill="midnightblue" stroke="midnightblue" points="1366.61,-122.914 1356.66,-126.567 1366.71,-129.914 1366.61,-122.914"/>
</g>
<!-- Node3 -->
<g id="node5" class="node"><title>Node3</title>
<a xlink:href="uiflatauxdataeditor_8h.html" target="_top" xlink:title="uiflatauxdataeditor.h">
<polygon fill="white" stroke="black" points="0,-0.5 0,-21.5 104,-21.5 104,-0.5 0,-0.5"/>
<text text-anchor="middle" x="52" y="-8.5" font-family="Helvetica,sans-Serif" font-size="10.00">uiflatauxdataeditor.h</text>
</a>
</g>
<!-- Node2&#45;&gt;Node3 -->
<g id="edge4" class="edge"><title>Node2&#45;&gt;Node3</title>
<path fill="none" stroke="midnightblue" d="M76.6667,-49.6667C70.688,-40.2948 63.7392,-29.4019 58.7433,-21.5707"/>
<polygon fill="midnightblue" stroke="midnightblue" points="73.8847,-51.8136 82.2136,-58.3619 79.7862,-48.0489 73.8847,-51.8136"/>
</g>
<!-- Node2&#45;&gt;Node4 -->
<g id="edge6" class="edge"><title>Node2&#45;&gt;Node4</title>
<path fill="none" stroke="midnightblue" d="M110.937,-52.2587C123.902,-42.3641 139.925,-30.1361 151.149,-21.5707"/>
<polygon fill="midnightblue" stroke="midnightblue" points="108.766,-49.5128 102.94,-58.3619 113.012,-55.0775 108.766,-49.5128"/>
</g>
<!-- Node10 -->
<g id="node19" class="node"><title>Node10</title>
<a xlink:href="stratsynth_8h.html" target="_top" xlink:title="stratsynth.h">
<polygon fill="white" stroke="black" points="643,-0.5 643,-21.5 711,-21.5 711,-0.5 643,-0.5"/>
<text text-anchor="middle" x="677" y="-8.5" font-family="Helvetica,sans-Serif" font-size="10.00">stratsynth.h</text>
</a>
</g>
<!-- Node9&#45;&gt;Node10 -->
<g id="edge18" class="edge"><title>Node9&#45;&gt;Node10</title>
<path fill="none" stroke="midnightblue" d="M712.023,-50.8299C703.562,-41.2078 693.468,-29.7282 686.295,-21.5707"/>
<polygon fill="midnightblue" stroke="midnightblue" points="709.414,-53.1634 718.646,-58.3619 714.671,-48.541 709.414,-53.1634"/>
</g>
<!-- Node11 -->
<g id="node21" class="node"><title>Node11</title>
<a xlink:href="syntheticdataimpl_8h.html" target="_top" xlink:title="syntheticdataimpl.h">
<polygon fill="white" stroke="black" points="728.5,-0.5 728.5,-21.5 829.5,-21.5 829.5,-0.5 728.5,-0.5"/>
<text text-anchor="middle" x="779" y="-8.5" font-family="Helvetica,sans-Serif" font-size="10.00">syntheticdataimpl.h</text>
</a>
</g>
<!-- Node9&#45;&gt;Node11 -->
<g id="edge20" class="edge"><title>Node9&#45;&gt;Node11</title>
<path fill="none" stroke="midnightblue" d="M743.977,-50.8299C752.438,-41.2078 762.532,-29.7282 769.705,-21.5707"/>
<polygon fill="midnightblue" stroke="midnightblue" points="741.329,-48.541 737.354,-58.3619 746.586,-53.1634 741.329,-48.541"/>
</g>
<!-- Node16 -->
<g id="node31" class="node"><title>Node16</title>
<a xlink:href="uiseissingtrcdisp_8h.html" target="_top" xlink:title="uiseissingtrcdisp.h">
<polygon fill="white" stroke="black" points="1061,-0.5 1061,-21.5 1159,-21.5 1159,-0.5 1061,-0.5"/>
<text text-anchor="middle" x="1110" y="-8.5" font-family="Helvetica,sans-Serif" font-size="10.00">uiseissingtrcdisp.h</text>
</a>
</g>
<!-- Node15&#45;&gt;Node16 -->
<g id="edge30" class="edge"><title>Node15&#45;&gt;Node16</title>
<path fill="none" stroke="midnightblue" d="M1147.08,-50.8299C1138.12,-41.2078 1127.44,-29.7282 1119.84,-21.5707"/>
<polygon fill="midnightblue" stroke="midnightblue" points="1144.72,-53.4279 1154.1,-58.3619 1149.84,-48.658 1144.72,-53.4279"/>
</g>
<!-- Node17 -->
<g id="node33" class="node"><title>Node17</title>
<a xlink:href="uiwelltieview_8h.html" target="_top" xlink:title="uiwelltieview.h">
<polygon fill="white" stroke="black" points="1177,-0.5 1177,-21.5 1257,-21.5 1257,-0.5 1177,-0.5"/>
<text text-anchor="middle" x="1217" y="-8.5" font-family="Helvetica,sans-Serif" font-size="10.00">uiwelltieview.h</text>
</a>
</g>
<!-- Node15&#45;&gt;Node17 -->
<g id="edge32" class="edge"><title>Node15&#45;&gt;Node17</title>
<path fill="none" stroke="midnightblue" d="M1180.6,-50.8299C1189.4,-41.2078 1199.89,-29.7282 1207.34,-21.5707"/>
<polygon fill="midnightblue" stroke="midnightblue" points="1177.88,-48.6188 1173.72,-58.3619 1183.05,-53.3408 1177.88,-48.6188"/>
</g>
<!-- Node22 -->
<g id="node43" class="node"><title>Node22</title>
<a xlink:href="uistratsimplelaymoddisp_8h.html" target="_top" xlink:title="uistratsimplelaymoddisp.h">
<polygon fill="white" stroke="black" points="1576,-0.5 1576,-21.5 1706,-21.5 1706,-0.5 1576,-0.5"/>
<text text-anchor="middle" x="1641" y="-8.5" font-family="Helvetica,sans-Serif" font-size="10.00">uistratsimplelaymoddisp.h</text>
</a>
</g>
<!-- Node21&#45;&gt;Node22 -->
<g id="edge42" class="edge"><title>Node21&#45;&gt;Node22</title>
<path fill="none" stroke="midnightblue" d="M1641,-48.1906C1641,-39.1684 1641,-28.9941 1641,-21.5707"/>
<polygon fill="midnightblue" stroke="midnightblue" points="1637.5,-48.3619 1641,-58.3619 1644.5,-48.3619 1637.5,-48.3619"/>
</g>
</g>
</svg>
