<?xml version="1.0" encoding="UTF-8" standalone="no"?>
<!DOCTYPE svg PUBLIC "-//W3C//DTD SVG 1.1//EN"
 "http://www.w3.org/Graphics/SVG/1.1/DTD/svg11.dtd">
<!-- Generated by graphviz version 2.26.0 (20091210.2329)
 -->
<!-- Title: flatviewzoommgr.h Pages: 1 -->
<svg width="872pt" height="668pt"
 viewBox="0.00 0.00 872.00 668.00" xmlns="http://www.w3.org/2000/svg" xmlns:xlink="http://www.w3.org/1999/xlink">
<g id="graph1" class="graph" transform="scale(1 1) rotate(0) translate(4 664)">
<title>flatviewzoommgr.h</title>
<polygon fill="white" stroke="white" points="-4,5 -4,-664 869,-664 869,5 -4,5"/>
<!-- Node1 -->
<g id="node1" class="node"><title>Node1</title>
<polygon fill="#bfbfbf" stroke="black" points="241.5,-638.5 241.5,-659.5 340.5,-659.5 340.5,-638.5 241.5,-638.5"/>
<text text-anchor="middle" x="291" y="-646.5" font-family="Helvetica,sans-Serif" font-size="10.00">flatviewzoommgr.h</text>
</g>
<!-- Node2 -->
<g id="node3" class="node"><title>Node2</title>
<polygon fill="white" stroke="#bfbfbf" points="156.5,-580.5 156.5,-601.5 241.5,-601.5 241.5,-580.5 156.5,-580.5"/>
<text text-anchor="middle" x="199" y="-588.5" font-family="Helvetica,sans-Serif" font-size="10.00">uiflatviewmod.h</text>
</g>
<!-- Node1&#45;&gt;Node2 -->
<g id="edge2" class="edge"><title>Node1&#45;&gt;Node2</title>
<path fill="none" stroke="midnightblue" d="M274.126,-638.362C260.249,-629.614 240.366,-617.079 224.54,-607.101"/>
<polygon fill="midnightblue" stroke="midnightblue" points="226.093,-603.943 215.767,-601.571 222.36,-609.864 226.093,-603.943"/>
</g>
<!-- Node3 -->
<g id="node5" class="node"><title>Node3</title>
<a xlink:href="geometry_8h.html" target="_top" xlink:title="geometry.h">
<polygon fill="white" stroke="black" points="258.5,-580.5 258.5,-601.5 323.5,-601.5 323.5,-580.5 258.5,-580.5"/>
<text text-anchor="middle" x="291" y="-588.5" font-family="Helvetica,sans-Serif" font-size="10.00">geometry.h</text>
</a>
</g>
<!-- Node1&#45;&gt;Node3 -->
<g id="edge4" class="edge"><title>Node1&#45;&gt;Node3</title>
<path fill="none" stroke="midnightblue" d="M291,-638.362C291,-630.922 291,-620.743 291,-611.728"/>
<polygon fill="midnightblue" stroke="midnightblue" points="294.5,-611.571 291,-601.571 287.5,-611.571 294.5,-611.571"/>
</g>
<!-- Node32 -->
<g id="node85" class="node"><title>Node32</title>
<a xlink:href="sets_8h.html" target="_top" xlink:title="sets.h">
<polygon fill="white" stroke="black" points="348,-580.5 348,-601.5 392,-601.5 392,-580.5 348,-580.5"/>
<text text-anchor="middle" x="370" y="-588.5" font-family="Helvetica,sans-Serif" font-size="10.00">sets.h</text>
</a>
</g>
<!-- Node1&#45;&gt;Node32 -->
<g id="edge106" class="edge"><title>Node1&#45;&gt;Node32</title>
<path fill="none" stroke="midnightblue" d="M305.49,-638.362C317.183,-629.777 333.843,-617.546 347.303,-607.664"/>
<polygon fill="midnightblue" stroke="midnightblue" points="349.613,-610.31 355.602,-601.571 345.47,-604.667 349.613,-610.31"/>
</g>
<!-- Node4 -->
<g id="node7" class="node"><title>Node4</title>
<a xlink:href="gendefs_8h.html" target="_top" xlink:title="gendefs.h">
<polygon fill="white" stroke="black" points="225.5,-174.5 225.5,-195.5 284.5,-195.5 284.5,-174.5 225.5,-174.5"/>
<text text-anchor="middle" x="255" y="-182.5" font-family="Helvetica,sans-Serif" font-size="10.00">gendefs.h</text>
</a>
</g>
<!-- Node3&#45;&gt;Node4 -->
<g id="edge6" class="edge"><title>Node3&#45;&gt;Node4</title>
<path fill="none" stroke="midnightblue" d="M285.353,-580.233C268.874,-547.777 222,-447.665 222,-359 222,-359 222,-359 222,-301 222,-266.138 235.959,-227.555 245.72,-204.838"/>
<polygon fill="midnightblue" stroke="midnightblue" points="248.969,-206.146 249.844,-195.587 242.575,-203.296 248.969,-206.146"/>
</g>
<!-- Node16 -->
<g id="node35" class="node"><title>Node16</title>
<a xlink:href="ranges_8h.html" target="_top" xlink:title="ranges.h">
<polygon fill="white" stroke="black" points="150,-522.5 150,-543.5 204,-543.5 204,-522.5 150,-522.5"/>
<text text-anchor="middle" x="177" y="-530.5" font-family="Helvetica,sans-Serif" font-size="10.00">ranges.h</text>
</a>
</g>
<!-- Node3&#45;&gt;Node16 -->
<g id="edge38" class="edge"><title>Node3&#45;&gt;Node16</title>
<path fill="none" stroke="midnightblue" d="M270.355,-580.497C252.63,-571.479 226.855,-558.365 206.877,-548.201"/>
<polygon fill="midnightblue" stroke="midnightblue" points="208.376,-545.036 197.876,-543.621 205.202,-551.275 208.376,-545.036"/>
</g>
<!-- Node17 -->
<g id="node38" class="node"><title>Node17</title>
<a xlink:href="math2_8h.html" target="_top" xlink:title="math2.h">
<polygon fill="white" stroke="black" points="274,-464.5 274,-485.5 326,-485.5 326,-464.5 274,-464.5"/>
<text text-anchor="middle" x="300" y="-472.5" font-family="Helvetica,sans-Serif" font-size="10.00">math2.h</text>
</a>
</g>
<!-- Node3&#45;&gt;Node17 -->
<g id="edge104" class="edge"><title>Node3&#45;&gt;Node17</title>
<path fill="none" stroke="midnightblue" d="M291.831,-580.295C293.317,-561.131 296.458,-520.654 298.383,-495.843"/>
<polygon fill="midnightblue" stroke="midnightblue" points="301.887,-495.92 299.171,-485.679 294.908,-495.378 301.887,-495.92"/>
</g>
<!-- Node5 -->
<g id="node9" class="node"><title>Node5</title>
<a xlink:href="undefval_8h.html" target="_top" xlink:title="undefval.h">
<polygon fill="white" stroke="black" points="311,-116.5 311,-137.5 373,-137.5 373,-116.5 311,-116.5"/>
<text text-anchor="middle" x="342" y="-124.5" font-family="Helvetica,sans-Serif" font-size="10.00">undefval.h</text>
</a>
</g>
<!-- Node4&#45;&gt;Node5 -->
<g id="edge8" class="edge"><title>Node4&#45;&gt;Node5</title>
<path fill="none" stroke="midnightblue" d="M270.957,-174.362C283.957,-165.696 302.531,-153.313 317.427,-143.382"/>
<polygon fill="midnightblue" stroke="midnightblue" points="319.765,-146.03 326.144,-137.571 315.882,-140.206 319.765,-146.03"/>
</g>
<!-- Node13 -->
<g id="node27" class="node"><title>Node13</title>
<a xlink:href="commontypes_8h.html" target="_top" xlink:title="commontypes.h">
<polygon fill="white" stroke="black" points="207,-116.5 207,-137.5 293,-137.5 293,-116.5 207,-116.5"/>
<text text-anchor="middle" x="250" y="-124.5" font-family="Helvetica,sans-Serif" font-size="10.00">commontypes.h</text>
</a>
</g>
<!-- Node4&#45;&gt;Node13 -->
<g id="edge28" class="edge"><title>Node4&#45;&gt;Node13</title>
<path fill="none" stroke="midnightblue" d="M254.083,-174.362C253.442,-166.922 252.564,-156.743 251.787,-147.728"/>
<polygon fill="midnightblue" stroke="midnightblue" points="255.257,-147.233 250.911,-137.571 248.283,-147.834 255.257,-147.233"/>
</g>
<!-- Node14 -->
<g id="node30" class="node"><title>Node14</title>
<a xlink:href="errmsg_8h.html" target="_top" xlink:title="errmsg.h">
<polygon fill="white" stroke="black" points="62.5,-116.5 62.5,-137.5 117.5,-137.5 117.5,-116.5 62.5,-116.5"/>
<text text-anchor="middle" x="90" y="-124.5" font-family="Helvetica,sans-Serif" font-size="10.00">errmsg.h</text>
</a>
</g>
<!-- Node4&#45;&gt;Node14 -->
<g id="edge32" class="edge"><title>Node4&#45;&gt;Node14</title>
<path fill="none" stroke="midnightblue" d="M225.12,-174.497C197.669,-164.847 156.879,-150.509 127.301,-140.112"/>
<polygon fill="midnightblue" stroke="midnightblue" points="128.331,-136.764 117.736,-136.75 126.009,-143.368 128.331,-136.764"/>
</g>
<!-- Node6 -->
<g id="node11" class="node"><title>Node6</title>
<polygon fill="white" stroke="#bfbfbf" points="416.5,-0.5 416.5,-21.5 483.5,-21.5 483.5,-0.5 416.5,-0.5"/>
<text text-anchor="middle" x="450" y="-8.5" font-family="Helvetica,sans-Serif" font-size="10.00">basicmod.h</text>
</g>
<!-- Node5&#45;&gt;Node6 -->
<g id="edge10" class="edge"><title>Node5&#45;&gt;Node6</title>
<path fill="none" stroke="midnightblue" d="M349.871,-116.293C360.297,-102.356 379.529,-77.4799 398,-58 407.812,-47.6519 419.537,-36.929 429.368,-28.3429"/>
<polygon fill="midnightblue" stroke="midnightblue" points="431.803,-30.8655 437.097,-21.6883 427.235,-25.5609 431.803,-30.8655"/>
</g>
<!-- Node7 -->
<g id="node13" class="node"><title>Node7</title>
<a xlink:href="commondefs_8h.html" target="_top" xlink:title="commondefs.h">
<polygon fill="white" stroke="black" points="189.5,-58.5 189.5,-79.5 270.5,-79.5 270.5,-58.5 189.5,-58.5"/>
<text text-anchor="middle" x="230" y="-66.5" font-family="Helvetica,sans-Serif" font-size="10.00">commondefs.h</text>
</a>
</g>
<!-- Node5&#45;&gt;Node7 -->
<g id="edge12" class="edge"><title>Node5&#45;&gt;Node7</title>
<path fill="none" stroke="midnightblue" d="M321.718,-116.497C304.382,-107.519 279.21,-94.4835 259.62,-84.3387"/>
<polygon fill="midnightblue" stroke="midnightblue" points="260.999,-81.1118 250.51,-79.6212 257.78,-87.3278 260.999,-81.1118"/>
</g>
<!-- Node11 -->
<g id="node22" class="node"><title>Node11</title>
<a xlink:href="plftypes_8h.html" target="_top" xlink:title="plftypes.h">
<polygon fill="white" stroke="black" points="287.5,-58.5 287.5,-79.5 346.5,-79.5 346.5,-58.5 287.5,-58.5"/>
<text text-anchor="middle" x="317" y="-66.5" font-family="Helvetica,sans-Serif" font-size="10.00">plftypes.h</text>
</a>
</g>
<!-- Node5&#45;&gt;Node11 -->
<g id="edge22" class="edge"><title>Node5&#45;&gt;Node11</title>
<path fill="none" stroke="midnightblue" d="M337.415,-116.362C334.102,-108.677 329.53,-98.0686 325.552,-88.8399"/>
<polygon fill="midnightblue" stroke="midnightblue" points="328.729,-87.3685 321.556,-79.5707 322.301,-90.1393 328.729,-87.3685"/>
</g>
<!-- Node7&#45;&gt;Node6 -->
<g id="edge14" class="edge"><title>Node7&#45;&gt;Node6</title>
<path fill="none" stroke="midnightblue" d="M269.84,-58.4966C308.423,-48.3248 366.77,-32.9423 406.536,-22.4588"/>
<polygon fill="midnightblue" stroke="midnightblue" points="407.444,-25.8389 416.222,-19.9052 405.66,-19.0702 407.444,-25.8389"/>
</g>
<!-- Node8 -->
<g id="node16" class="node"><title>Node8</title>
<a xlink:href="plfdefs_8h.html" target="_top" xlink:title="plfdefs.h">
<polygon fill="white" stroke="black" points="243,-0.5 243,-21.5 297,-21.5 297,-0.5 243,-0.5"/>
<text text-anchor="middle" x="270" y="-8.5" font-family="Helvetica,sans-Serif" font-size="10.00">plfdefs.h</text>
</a>
</g>
<!-- Node7&#45;&gt;Node8 -->
<g id="edge16" class="edge"><title>Node7&#45;&gt;Node8</title>
<path fill="none" stroke="midnightblue" d="M237.337,-58.3619C242.806,-50.4313 250.422,-39.3885 256.924,-29.9606"/>
<polygon fill="midnightblue" stroke="midnightblue" points="259.914,-31.7899 262.71,-21.5707 254.151,-27.8157 259.914,-31.7899"/>
</g>
<!-- Node9 -->
<g id="node18" class="node"><title>Node9</title>
<polygon fill="white" stroke="#bfbfbf" points="625.5,-0.5 625.5,-21.5 684.5,-21.5 684.5,-0.5 625.5,-0.5"/>
<text text-anchor="middle" x="655" y="-8.5" font-family="Helvetica,sans-Serif" font-size="10.00">stdexcept</text>
</g>
<!-- Node7&#45;&gt;Node9 -->
<g id="edge18" class="edge"><title>Node7&#45;&gt;Node9</title>
<path fill="none" stroke="midnightblue" d="M270.582,-59.5732C273.424,-59.0104 276.251,-58.4791 279,-58 400.747,-36.7763 546.284,-21.3924 615.138,-14.7062"/>
<polygon fill="midnightblue" stroke="midnightblue" points="615.503,-18.1874 625.122,-13.7457 614.833,-11.2195 615.503,-18.1874"/>
</g>
<!-- Node10 -->
<g id="node20" class="node"><title>Node10</title>
<polygon fill="white" stroke="#bfbfbf" points="190.5,-0.5 190.5,-21.5 225.5,-21.5 225.5,-0.5 190.5,-0.5"/>
<text text-anchor="middle" x="208" y="-8.5" font-family="Helvetica,sans-Serif" font-size="10.00">new</text>
</g>
<!-- Node7&#45;&gt;Node10 -->
<g id="edge20" class="edge"><title>Node7&#45;&gt;Node10</title>
<path fill="none" stroke="midnightblue" d="M225.965,-58.3619C223.081,-50.7584 219.112,-40.294 215.637,-31.1349"/>
<polygon fill="midnightblue" stroke="midnightblue" points="218.829,-29.6793 212.01,-21.5707 212.284,-32.1619 218.829,-29.6793"/>
</g>
<!-- Node11&#45;&gt;Node8 -->
<g id="edge24" class="edge"><title>Node11&#45;&gt;Node8</title>
<path fill="none" stroke="midnightblue" d="M308.379,-58.3619C301.82,-50.2678 292.634,-38.9318 284.894,-29.3796"/>
<polygon fill="midnightblue" stroke="midnightblue" points="287.581,-27.1364 278.566,-21.5707 282.142,-31.5436 287.581,-27.1364"/>
</g>
<!-- Node12 -->
<g id="node25" class="node"><title>Node12</title>
<polygon fill="white" stroke="#bfbfbf" points="314.5,-0.5 314.5,-21.5 363.5,-21.5 363.5,-0.5 314.5,-0.5"/>
<text text-anchor="middle" x="339" y="-8.5" font-family="Helvetica,sans-Serif" font-size="10.00">stdint.h</text>
</g>
<!-- Node11&#45;&gt;Node12 -->
<g id="edge26" class="edge"><title>Node11&#45;&gt;Node12</title>
<path fill="none" stroke="midnightblue" d="M321.035,-58.3619C323.919,-50.7584 327.888,-40.294 331.363,-31.1349"/>
<polygon fill="midnightblue" stroke="midnightblue" points="334.716,-32.1619 334.99,-21.5707 328.171,-29.6793 334.716,-32.1619"/>
</g>
<!-- Node13&#45;&gt;Node7 -->
<g id="edge30" class="edge"><title>Node13&#45;&gt;Node7</title>
<path fill="none" stroke="midnightblue" d="M246.332,-116.362C243.71,-108.758 240.101,-98.294 236.943,-89.1349"/>
<polygon fill="midnightblue" stroke="midnightblue" points="240.214,-87.8834 233.645,-79.5707 233.596,-90.1654 240.214,-87.8834"/>
</g>
<!-- Node14&#45;&gt;Node7 -->
<g id="edge34" class="edge"><title>Node14&#45;&gt;Node7</title>
<path fill="none" stroke="midnightblue" d="M115.353,-116.497C137.613,-107.275 170.212,-93.7695 194.963,-83.5153"/>
<polygon fill="midnightblue" stroke="midnightblue" points="196.464,-86.6822 204.363,-79.6212 193.784,-80.2152 196.464,-86.6822"/>
</g>
<!-- Node15 -->
<g id="node33" class="node"><title>Node15</title>
<polygon fill="white" stroke="#bfbfbf" points="-0.5,-58.5 -0.5,-79.5 50.5,-79.5 50.5,-58.5 -0.5,-58.5"/>
<text text-anchor="middle" x="25" y="-66.5" font-family="Helvetica,sans-Serif" font-size="10.00">typeinfo</text>
</g>
<!-- Node14&#45;&gt;Node15 -->
<g id="edge36" class="edge"><title>Node14&#45;&gt;Node15</title>
<path fill="none" stroke="midnightblue" d="M78.078,-116.362C68.6405,-107.941 55.2704,-96.0105 44.3104,-86.2308"/>
<polygon fill="midnightblue" stroke="midnightblue" points="46.6381,-83.6171 36.8464,-79.5707 41.9776,-88.8401 46.6381,-83.6171"/>
</g>
<!-- Node16&#45;&gt;Node4 -->
<g id="edge40" class="edge"><title>Node16&#45;&gt;Node4</title>
<path fill="none" stroke="midnightblue" d="M159.583,-522.225C147.953,-513.93 133.62,-501.309 127,-486 108.748,-443.793 72.1997,-586.479 166,-290 174.415,-263.402 172.708,-253.892 190,-232 199.794,-219.601 213.674,-208.96 226.095,-200.955"/>
<polygon fill="midnightblue" stroke="midnightblue" points="228.115,-203.822 234.802,-195.604 224.45,-197.858 228.115,-203.822"/>
</g>
<!-- Node16&#45;&gt;Node17 -->
<g id="edge42" class="edge"><title>Node16&#45;&gt;Node17</title>
<path fill="none" stroke="midnightblue" d="M199.274,-522.497C218.572,-513.397 246.713,-500.127 268.348,-489.925"/>
<polygon fill="midnightblue" stroke="midnightblue" points="269.924,-493.052 277.476,-485.621 266.938,-486.721 269.924,-493.052"/>
</g>
<!-- Node26 -->
<g id="node65" class="node"><title>Node26</title>
<a xlink:href="ptrman_8h.html" target="_top" xlink:title="ptrman.h">
<polygon fill="white" stroke="black" points="46.5,-232.5 46.5,-253.5 101.5,-253.5 101.5,-232.5 46.5,-232.5"/>
<text text-anchor="middle" x="74" y="-240.5" font-family="Helvetica,sans-Serif" font-size="10.00">ptrman.h</text>
</a>
</g>
<!-- Node16&#45;&gt;Node26 -->
<g id="edge78" class="edge"><title>Node16&#45;&gt;Node26</title>
<path fill="none" stroke="midnightblue" d="M149.905,-527.702C101.687,-516.528 6,-485.698 6,-417 6,-417 6,-417 6,-359 6,-327.192 8.71552,-317.323 25,-290 31.7213,-278.722 41.8688,-268.362 51.1891,-260.255"/>
<polygon fill="midnightblue" stroke="midnightblue" points="53.5853,-262.815 59.0599,-253.744 49.1236,-257.421 53.5853,-262.815"/>
</g>
<!-- Node30 -->
<g id="node77" class="node"><title>Node30</title>
<a xlink:href="varlenarray_8h.html" target="_top" xlink:title="varlenarray.h">
<polygon fill="white" stroke="black" points="33.5,-290.5 33.5,-311.5 106.5,-311.5 106.5,-290.5 33.5,-290.5"/>
<text text-anchor="middle" x="70" y="-298.5" font-family="Helvetica,sans-Serif" font-size="10.00">varlenarray.h</text>
</a>
</g>
<!-- Node16&#45;&gt;Node30 -->
<g id="edge94" class="edge"><title>Node16&#45;&gt;Node30</title>
<path fill="none" stroke="midnightblue" d="M149.692,-524.795C130.89,-517.662 107.035,-505.372 94,-486 59.7548,-435.105 63.0457,-358.251 67.0752,-321.711"/>
<polygon fill="midnightblue" stroke="midnightblue" points="70.5546,-322.093 68.3087,-311.739 63.6076,-321.233 70.5546,-322.093"/>
</g>
<!-- Node31 -->
<g id="node80" class="node"><title>Node31</title>
<a xlink:href="samplingdata_8h.html" target="_top" xlink:title="samplingdata.h">
<polygon fill="white" stroke="black" points="135.5,-464.5 135.5,-485.5 218.5,-485.5 218.5,-464.5 135.5,-464.5"/>
<text text-anchor="middle" x="177" y="-472.5" font-family="Helvetica,sans-Serif" font-size="10.00">samplingdata.h</text>
</a>
</g>
<!-- Node16&#45;&gt;Node31 -->
<g id="edge98" class="edge"><title>Node16&#45;&gt;Node31</title>
<path fill="none" stroke="midnightblue" d="M171.636,-522.362C170.319,-514.922 169.941,-504.743 170.5,-495.728"/>
<polygon fill="midnightblue" stroke="midnightblue" points="174.003,-495.9 171.648,-485.571 167.047,-495.114 174.003,-495.9"/>
</g>
<!-- Node17&#45;&gt;Node4 -->
<g id="edge46" class="edge"><title>Node17&#45;&gt;Node4</title>
<path fill="none" stroke="midnightblue" d="M293.573,-464.232C282.266,-444.234 260,-399.688 260,-359 260,-359 260,-359 260,-301 260,-267.567 257.901,-228.763 256.423,-205.582"/>
<polygon fill="midnightblue" stroke="midnightblue" points="259.912,-205.297 255.759,-195.55 252.927,-205.759 259.912,-205.297"/>
</g>
<!-- Node17&#45;&gt;Node6 -->
<g id="edge44" class="edge"><title>Node17&#45;&gt;Node6</title>
<path fill="none" stroke="midnightblue" d="M304.67,-464.284C325.867,-415.478 412,-215.292 412,-185 412,-185 412,-185 412,-127 412,-91.7411 428.051,-53.3154 439.289,-30.7323"/>
<polygon fill="midnightblue" stroke="midnightblue" points="442.418,-32.3005 443.895,-21.809 436.198,-29.0901 442.418,-32.3005"/>
</g>
<!-- Node18 -->
<g id="node42" class="node"><title>Node18</title>
<a xlink:href="odcomplex_8h.html" target="_top" xlink:title="odcomplex.h">
<polygon fill="white" stroke="black" points="364,-406.5 364,-427.5 436,-427.5 436,-406.5 364,-406.5"/>
<text text-anchor="middle" x="400" y="-414.5" font-family="Helvetica,sans-Serif" font-size="10.00">odcomplex.h</text>
</a>
</g>
<!-- Node17&#45;&gt;Node18 -->
<g id="edge48" class="edge"><title>Node17&#45;&gt;Node18</title>
<path fill="none" stroke="midnightblue" d="M318.342,-464.362C333.566,-455.532 355.441,-442.844 372.72,-432.822"/>
<polygon fill="midnightblue" stroke="midnightblue" points="374.88,-435.615 381.775,-427.571 371.368,-429.56 374.88,-435.615"/>
</g>
<!-- Node19 -->
<g id="node44" class="node"><title>Node19</title>
<polygon fill="white" stroke="#bfbfbf" points="363.5,-348.5 363.5,-369.5 416.5,-369.5 416.5,-348.5 363.5,-348.5"/>
<text text-anchor="middle" x="390" y="-356.5" font-family="Helvetica,sans-Serif" font-size="10.00">complex</text>
</g>
<!-- Node18&#45;&gt;Node19 -->
<g id="edge50" class="edge"><title>Node18&#45;&gt;Node19</title>
<path fill="none" stroke="midnightblue" d="M398.166,-406.362C396.869,-398.84 395.089,-388.519 393.523,-379.431"/>
<polygon fill="midnightblue" stroke="midnightblue" points="396.971,-378.831 391.823,-369.571 390.073,-380.02 396.971,-378.831"/>
</g>
<!-- Node20 -->
<g id="node46" class="node"><title>Node20</title>
<a xlink:href="convert_8h.html" target="_top" xlink:title="convert.h">
<polygon fill="white" stroke="black" points="510.5,-348.5 510.5,-369.5 567.5,-369.5 567.5,-348.5 510.5,-348.5"/>
<text text-anchor="middle" x="539" y="-356.5" font-family="Helvetica,sans-Serif" font-size="10.00">convert.h</text>
</a>
</g>
<!-- Node18&#45;&gt;Node20 -->
<g id="edge52" class="edge"><title>Node18&#45;&gt;Node20</title>
<path fill="none" stroke="midnightblue" d="M425.172,-406.497C447.273,-397.275 479.639,-383.769 504.213,-373.515"/>
<polygon fill="midnightblue" stroke="midnightblue" points="505.665,-376.702 513.546,-369.621 502.969,-370.242 505.665,-376.702"/>
</g>
<!-- Node20&#45;&gt;Node5 -->
<g id="edge66" class="edge"><title>Node20&#45;&gt;Node5</title>
<path fill="none" stroke="midnightblue" d="M530.023,-348.429C499.128,-312.044 396.931,-191.691 357.609,-145.382"/>
<polygon fill="midnightblue" stroke="midnightblue" points="360.17,-142.991 351.029,-137.634 354.834,-147.522 360.17,-142.991"/>
</g>
<!-- Node21 -->
<g id="node48" class="node"><title>Node21</title>
<a xlink:href="string2_8h.html" target="_top" xlink:title="string2.h">
<polygon fill="white" stroke="black" points="537,-116.5 537,-137.5 591,-137.5 591,-116.5 537,-116.5"/>
<text text-anchor="middle" x="564" y="-124.5" font-family="Helvetica,sans-Serif" font-size="10.00">string2.h</text>
</a>
</g>
<!-- Node20&#45;&gt;Node21 -->
<g id="edge54" class="edge"><title>Node20&#45;&gt;Node21</title>
<path fill="none" stroke="midnightblue" d="M540.139,-348.429C543.995,-312.648 556.601,-195.663 561.764,-147.748"/>
<polygon fill="midnightblue" stroke="midnightblue" points="565.263,-147.951 562.854,-137.634 558.303,-147.201 565.263,-147.951"/>
</g>
<!-- Node24 -->
<g id="node58" class="node"><title>Node24</title>
<a xlink:href="fixedstring_8h.html" target="_top" xlink:title="fixedstring.h">
<polygon fill="white" stroke="black" points="568,-290.5 568,-311.5 638,-311.5 638,-290.5 568,-290.5"/>
<text text-anchor="middle" x="603" y="-298.5" font-family="Helvetica,sans-Serif" font-size="10.00">fixedstring.h</text>
</a>
</g>
<!-- Node20&#45;&gt;Node24 -->
<g id="edge68" class="edge"><title>Node20&#45;&gt;Node24</title>
<path fill="none" stroke="midnightblue" d="M550.739,-348.362C559.941,-340.023 572.94,-328.242 583.672,-318.516"/>
<polygon fill="midnightblue" stroke="midnightblue" points="586.276,-320.879 591.336,-311.571 581.576,-315.692 586.276,-320.879"/>
</g>
<!-- Node21&#45;&gt;Node6 -->
<g id="edge56" class="edge"><title>Node21&#45;&gt;Node6</title>
<path fill="none" stroke="midnightblue" d="M579.478,-116.433C597.753,-102.647 623.895,-77.9348 609,-58 595.113,-39.4134 535.665,-25.5978 493.544,-17.9149"/>
<polygon fill="midnightblue" stroke="midnightblue" points="493.971,-14.4361 483.514,-16.1403 492.751,-21.329 493.971,-14.4361"/>
</g>
<!-- Node21&#45;&gt;Node7 -->
<g id="edge60" class="edge"><title>Node21&#45;&gt;Node7</title>
<path fill="none" stroke="midnightblue" d="M536.793,-123.045C487.617,-115.782 380.466,-99.4366 280.558,-80.2315"/>
<polygon fill="midnightblue" stroke="midnightblue" points="281.087,-76.769 270.604,-78.3037 279.756,-83.6413 281.087,-76.769"/>
</g>
<!-- Node21&#45;&gt;Node11 -->
<g id="edge58" class="edge"><title>Node21&#45;&gt;Node11</title>
<path fill="none" stroke="midnightblue" d="M536.623,-120.571C492.91,-110.307 407.149,-90.1686 356.7,-78.3223"/>
<polygon fill="midnightblue" stroke="midnightblue" points="357.337,-74.8767 346.802,-75.998 355.737,-81.6914 357.337,-74.8767"/>
</g>
<!-- Node22 -->
<g id="node53" class="node"><title>Node22</title>
<polygon fill="white" stroke="#bfbfbf" points="477.5,-58.5 477.5,-79.5 526.5,-79.5 526.5,-58.5 477.5,-58.5"/>
<text text-anchor="middle" x="502" y="-66.5" font-family="Helvetica,sans-Serif" font-size="10.00">ctype.h</text>
</g>
<!-- Node21&#45;&gt;Node22 -->
<g id="edge62" class="edge"><title>Node21&#45;&gt;Node22</title>
<path fill="none" stroke="midnightblue" d="M552.628,-116.362C543.714,-108.023 531.121,-96.2418 520.724,-86.5162"/>
<polygon fill="midnightblue" stroke="midnightblue" points="522.993,-83.8463 513.3,-79.5707 518.211,-88.9582 522.993,-83.8463"/>
</g>
<!-- Node23 -->
<g id="node55" class="node"><title>Node23</title>
<polygon fill="white" stroke="#bfbfbf" points="544,-58.5 544,-79.5 600,-79.5 600,-58.5 544,-58.5"/>
<text text-anchor="middle" x="572" y="-66.5" font-family="Helvetica,sans-Serif" font-size="10.00">wctype.h</text>
</g>
<!-- Node21&#45;&gt;Node23 -->
<g id="edge64" class="edge"><title>Node21&#45;&gt;Node23</title>
<path fill="none" stroke="midnightblue" d="M565.467,-116.362C566.494,-108.922 567.898,-98.7427 569.141,-89.7276"/>
<polygon fill="midnightblue" stroke="midnightblue" points="572.643,-89.9551 570.542,-79.5707 565.708,-88.9986 572.643,-89.9551"/>
</g>
<!-- Node24&#45;&gt;Node6 -->
<g id="edge70" class="edge"><title>Node24&#45;&gt;Node6</title>
<path fill="none" stroke="midnightblue" d="M608.522,-290.374C626.738,-253.685 680.679,-130.606 625,-58 609.116,-37.2868 540.288,-23.6777 493.831,-16.6664"/>
<polygon fill="midnightblue" stroke="midnightblue" points="494.108,-13.1698 483.707,-15.1886 493.096,-20.0964 494.108,-13.1698"/>
</g>
<!-- Node25 -->
<g id="node61" class="node"><title>Node25</title>
<a xlink:href="odstring_8h.html" target="_top" xlink:title="odstring.h">
<polygon fill="white" stroke="black" points="477.5,-232.5 477.5,-253.5 536.5,-253.5 536.5,-232.5 477.5,-232.5"/>
<text text-anchor="middle" x="507" y="-240.5" font-family="Helvetica,sans-Serif" font-size="10.00">odstring.h</text>
</a>
</g>
<!-- Node24&#45;&gt;Node25 -->
<g id="edge72" class="edge"><title>Node24&#45;&gt;Node25</title>
<path fill="none" stroke="midnightblue" d="M585.392,-290.362C570.777,-281.532 549.776,-268.844 533.189,-258.822"/>
<polygon fill="midnightblue" stroke="midnightblue" points="534.865,-255.746 524.496,-253.571 531.246,-261.738 534.865,-255.746"/>
</g>
<!-- Node25&#45;&gt;Node4 -->
<g id="edge76" class="edge"><title>Node25&#45;&gt;Node4</title>
<path fill="none" stroke="midnightblue" d="M477.103,-236.119C431.729,-225.676 345.42,-205.811 294.79,-194.158"/>
<polygon fill="midnightblue" stroke="midnightblue" points="295.389,-190.704 284.858,-191.872 293.819,-197.526 295.389,-190.704"/>
</g>
<!-- Node25&#45;&gt;Node6 -->
<g id="edge74" class="edge"><title>Node25&#45;&gt;Node6</title>
<path fill="none" stroke="midnightblue" d="M504.403,-232.429C495.593,-196.573 466.748,-79.1689 455.023,-31.4458"/>
<polygon fill="midnightblue" stroke="midnightblue" points="458.397,-30.5096 452.613,-21.6335 451.6,-32.1798 458.397,-30.5096"/>
</g>
<!-- Node26&#45;&gt;Node4 -->
<g id="edge80" class="edge"><title>Node26&#45;&gt;Node4</title>
<path fill="none" stroke="midnightblue" d="M101.885,-234.065C132.3,-224.318 181.224,-208.641 215.565,-197.636"/>
<polygon fill="midnightblue" stroke="midnightblue" points="216.822,-200.909 225.277,-194.524 214.686,-194.243 216.822,-200.909"/>
</g>
<!-- Node27 -->
<g id="node68" class="node"><title>Node27</title>
<a xlink:href="atomic_8h.html" target="_top" xlink:title="atomic.h">
<polygon fill="white" stroke="black" points="135,-116.5 135,-137.5 189,-137.5 189,-116.5 135,-116.5"/>
<text text-anchor="middle" x="162" y="-124.5" font-family="Helvetica,sans-Serif" font-size="10.00">atomic.h</text>
</a>
</g>
<!-- Node26&#45;&gt;Node27 -->
<g id="edge82" class="edge"><title>Node26&#45;&gt;Node27</title>
<path fill="none" stroke="midnightblue" d="M82.1211,-232.295C97.0519,-212.613 129.038,-170.45 147.687,-145.867"/>
<polygon fill="midnightblue" stroke="midnightblue" points="150.643,-147.762 153.899,-137.679 145.066,-143.531 150.643,-147.762"/>
</g>
<!-- Node29 -->
<g id="node75" class="node"><title>Node29</title>
<polygon fill="white" stroke="#bfbfbf" points="50,-174.5 50,-195.5 98,-195.5 98,-174.5 50,-174.5"/>
<text text-anchor="middle" x="74" y="-182.5" font-family="Helvetica,sans-Serif" font-size="10.00">stdlib.h</text>
</g>
<!-- Node26&#45;&gt;Node29 -->
<g id="edge92" class="edge"><title>Node26&#45;&gt;Node29</title>
<path fill="none" stroke="midnightblue" d="M74,-232.362C74,-224.922 74,-214.743 74,-205.728"/>
<polygon fill="midnightblue" stroke="midnightblue" points="77.5001,-205.571 74,-195.571 70.5001,-205.571 77.5001,-205.571"/>
</g>
<!-- Node27&#45;&gt;Node6 -->
<g id="edge84" class="edge"><title>Node27&#45;&gt;Node6</title>
<path fill="none" stroke="midnightblue" d="M161.653,-116.343C161.778,-101.042 164.447,-73.0397 181,-58 189.305,-50.4544 332.48,-28.3595 406.476,-17.3651"/>
<polygon fill="midnightblue" stroke="midnightblue" points="407.057,-20.8173 416.436,-15.8901 406.031,-13.8928 407.057,-20.8173"/>
</g>
<!-- Node27&#45;&gt;Node7 -->
<g id="edge86" class="edge"><title>Node27&#45;&gt;Node7</title>
<path fill="none" stroke="midnightblue" d="M174.472,-116.362C184.345,-107.941 198.333,-96.0105 209.798,-86.2308"/>
<polygon fill="midnightblue" stroke="midnightblue" points="212.27,-88.7231 217.607,-79.5707 207.727,-83.3972 212.27,-88.7231"/>
</g>
<!-- Node27&#45;&gt;Node11 -->
<g id="edge88" class="edge"><title>Node27&#45;&gt;Node11</title>
<path fill="none" stroke="midnightblue" d="M189.354,-116.764C214.387,-107.397 251.653,-93.4523 279.465,-83.0452"/>
<polygon fill="midnightblue" stroke="midnightblue" points="280.734,-86.3076 288.873,-79.5249 278.281,-79.7516 280.734,-86.3076"/>
</g>
<!-- Node28 -->
<g id="node73" class="node"><title>Node28</title>
<polygon fill="white" stroke="#bfbfbf" points="67.5,-58.5 67.5,-79.5 134.5,-79.5 134.5,-58.5 67.5,-58.5"/>
<text text-anchor="middle" x="101" y="-66.5" font-family="Helvetica,sans-Serif" font-size="10.00">odversion.h</text>
</g>
<!-- Node27&#45;&gt;Node28 -->
<g id="edge90" class="edge"><title>Node27&#45;&gt;Node28</title>
<path fill="none" stroke="midnightblue" d="M150.812,-116.362C142.041,-108.023 129.651,-96.2418 119.422,-86.5162"/>
<polygon fill="midnightblue" stroke="midnightblue" points="121.776,-83.9248 112.117,-79.5707 116.953,-88.9978 121.776,-83.9248"/>
</g>
<!-- Node30&#45;&gt;Node26 -->
<g id="edge96" class="edge"><title>Node30&#45;&gt;Node26</title>
<path fill="none" stroke="midnightblue" d="M70.7337,-290.362C71.2468,-282.922 71.9488,-272.743 72.5705,-263.728"/>
<polygon fill="midnightblue" stroke="midnightblue" points="76.0746,-263.788 73.271,-253.571 69.0912,-263.306 76.0746,-263.788"/>
</g>
<!-- Node31&#45;&gt;Node4 -->
<g id="edge100" class="edge"><title>Node31&#45;&gt;Node4</title>
<path fill="none" stroke="midnightblue" d="M177.456,-464.446C178.295,-444.068 180,-397.881 180,-359 180,-359 180,-359 180,-301 180,-260.846 212.084,-223.594 234.283,-202.626"/>
<polygon fill="midnightblue" stroke="midnightblue" points="236.895,-204.981 241.936,-195.662 232.184,-199.804 236.895,-204.981"/>
</g>
<!-- Node31&#45;&gt;Node16 -->
<g id="edge102" class="edge"><title>Node31&#45;&gt;Node16</title>
<path fill="none" stroke="midnightblue" d="M182.352,-485.571C183.674,-492.994 184.059,-503.168 183.505,-512.191"/>
<polygon fill="midnightblue" stroke="midnightblue" points="180,-512.034 182.364,-522.362 186.957,-512.814 180,-512.034"/>
</g>
<!-- Node33 -->
<g id="node87" class="node"><title>Node33</title>
<a xlink:href="typeset_8h.html" target="_top" xlink:title="typeset.h">
<polygon fill="white" stroke="black" points="419.5,-522.5 419.5,-543.5 476.5,-543.5 476.5,-522.5 419.5,-522.5"/>
<text text-anchor="middle" x="448" y="-530.5" font-family="Helvetica,sans-Serif" font-size="10.00">typeset.h</text>
</a>
</g>
<!-- Node32&#45;&gt;Node33 -->
<g id="edge108" class="edge"><title>Node32&#45;&gt;Node33</title>
<path fill="none" stroke="midnightblue" d="M384.306,-580.362C395.851,-571.777 412.3,-559.546 425.59,-549.664"/>
<polygon fill="midnightblue" stroke="midnightblue" points="427.848,-552.346 433.784,-543.571 423.671,-546.729 427.848,-552.346"/>
</g>
<!-- Node40 -->
<g id="node109" class="node"><title>Node40</title>
<a xlink:href="objectset_8h.html" target="_top" xlink:title="objectset.h">
<polygon fill="white" stroke="black" points="337.5,-522.5 337.5,-543.5 402.5,-543.5 402.5,-522.5 337.5,-522.5"/>
<text text-anchor="middle" x="370" y="-530.5" font-family="Helvetica,sans-Serif" font-size="10.00">objectset.h</text>
</a>
</g>
<!-- Node32&#45;&gt;Node40 -->
<g id="edge138" class="edge"><title>Node32&#45;&gt;Node40</title>
<path fill="none" stroke="midnightblue" d="M370,-580.362C370,-572.922 370,-562.743 370,-553.728"/>
<polygon fill="midnightblue" stroke="midnightblue" points="373.5,-553.571 370,-543.571 366.5,-553.571 373.5,-553.571"/>
</g>
<!-- Node34 -->
<g id="node89" class="node"><title>Node34</title>
<a xlink:href="odset_8h.html" target="_top" xlink:title="odset.h">
<polygon fill="white" stroke="black" points="345.5,-464.5 345.5,-485.5 394.5,-485.5 394.5,-464.5 345.5,-464.5"/>
<text text-anchor="middle" x="370" y="-472.5" font-family="Helvetica,sans-Serif" font-size="10.00">odset.h</text>
</a>
</g>
<!-- Node33&#45;&gt;Node34 -->
<g id="edge110" class="edge"><title>Node33&#45;&gt;Node34</title>
<path fill="none" stroke="midnightblue" d="M433.694,-522.362C422.149,-513.777 405.7,-501.546 392.41,-491.664"/>
<polygon fill="midnightblue" stroke="midnightblue" points="394.329,-488.729 384.216,-485.571 390.152,-494.346 394.329,-488.729"/>
</g>
<!-- Node35 -->
<g id="node92" class="node"><title>Node35</title>
<a xlink:href="vectoraccess_8h.html" target="_top" xlink:title="vectoraccess.h">
<polygon fill="white" stroke="black" points="503.5,-464.5 503.5,-485.5 586.5,-485.5 586.5,-464.5 503.5,-464.5"/>
<text text-anchor="middle" x="545" y="-472.5" font-family="Helvetica,sans-Serif" font-size="10.00">vectoraccess.h</text>
</a>
</g>
<!-- Node33&#45;&gt;Node35 -->
<g id="edge114" class="edge"><title>Node33&#45;&gt;Node35</title>
<path fill="none" stroke="midnightblue" d="M465.791,-522.362C480.559,-513.532 501.778,-500.844 518.538,-490.822"/>
<polygon fill="midnightblue" stroke="midnightblue" points="520.535,-493.707 527.321,-485.571 516.943,-487.699 520.535,-493.707"/>
</g>
<!-- Node34&#45;&gt;Node4 -->
<g id="edge112" class="edge"><title>Node34&#45;&gt;Node4</title>
<path fill="none" stroke="midnightblue" d="M365.771,-464.335C348.795,-421.526 285.441,-261.763 262.968,-205.093"/>
<polygon fill="midnightblue" stroke="midnightblue" points="266.208,-203.768 259.268,-195.762 259.701,-206.348 266.208,-203.768"/>
</g>
<!-- Node35&#45;&gt;Node4 -->
<g id="edge130" class="edge"><title>Node35&#45;&gt;Node4</title>
<path fill="none" stroke="midnightblue" d="M535.217,-464.295C514.976,-442.224 466.887,-390.195 425,-348 371.584,-294.192 306.358,-232.814 274.456,-203.064"/>
<polygon fill="midnightblue" stroke="midnightblue" points="276.438,-200.127 266.734,-195.874 271.667,-205.25 276.438,-200.127"/>
</g>
<!-- Node35&#45;&gt;Node9 -->
<g id="edge136" class="edge"><title>Node35&#45;&gt;Node9</title>
<path fill="none" stroke="midnightblue" d="M583.805,-464.464C650.552,-445.185 780,-402.223 780,-359 780,-359 780,-359 780,-127 780,-78.0804 727.925,-43.985 690.998,-25.9574"/>
<polygon fill="midnightblue" stroke="midnightblue" points="692.049,-22.5849 681.509,-21.5102 689.079,-28.9233 692.049,-22.5849"/>
</g>
<!-- Node36 -->
<g id="node94" class="node"><title>Node36</title>
<a xlink:href="debug_8h.html" target="_top" xlink:title="debug.h">
<polygon fill="white" stroke="black" points="600.5,-406.5 600.5,-427.5 651.5,-427.5 651.5,-406.5 600.5,-406.5"/>
<text text-anchor="middle" x="626" y="-414.5" font-family="Helvetica,sans-Serif" font-size="10.00">debug.h</text>
</a>
</g>
<!-- Node35&#45;&gt;Node36 -->
<g id="edge116" class="edge"><title>Node35&#45;&gt;Node36</title>
<path fill="none" stroke="midnightblue" d="M559.857,-464.362C571.846,-455.777 588.927,-443.546 602.728,-433.664"/>
<polygon fill="midnightblue" stroke="midnightblue" points="605.145,-436.238 611.238,-427.571 601.069,-430.547 605.145,-436.238"/>
</g>
<!-- Node38 -->
<g id="node104" class="node"><title>Node38</title>
<polygon fill="white" stroke="#bfbfbf" points="808,-406.5 808,-427.5 864,-427.5 864,-406.5 808,-406.5"/>
<text text-anchor="middle" x="836" y="-414.5" font-family="Helvetica,sans-Serif" font-size="10.00">algorithm</text>
</g>
<!-- Node35&#45;&gt;Node38 -->
<g id="edge132" class="edge"><title>Node35&#45;&gt;Node38</title>
<path fill="none" stroke="midnightblue" d="M586.596,-468.061C636.184,-459.578 721.467,-444.323 794,-428 795.241,-427.721 796.501,-427.43 797.772,-427.132"/>
<polygon fill="midnightblue" stroke="midnightblue" points="798.719,-430.503 807.599,-424.724 797.053,-423.704 798.719,-430.503"/>
</g>
<!-- Node39 -->
<g id="node106" class="node"><title>Node39</title>
<polygon fill="white" stroke="#bfbfbf" points="523,-406.5 523,-427.5 567,-427.5 567,-406.5 523,-406.5"/>
<text text-anchor="middle" x="545" y="-414.5" font-family="Helvetica,sans-Serif" font-size="10.00">vector</text>
</g>
<!-- Node35&#45;&gt;Node39 -->
<g id="edge134" class="edge"><title>Node35&#45;&gt;Node39</title>
<path fill="none" stroke="midnightblue" d="M545,-464.362C545,-456.922 545,-446.743 545,-437.728"/>
<polygon fill="midnightblue" stroke="midnightblue" points="548.5,-437.571 545,-427.571 541.5,-437.571 548.5,-437.571"/>
</g>
<!-- Node36&#45;&gt;Node4 -->
<g id="edge120" class="edge"><title>Node36&#45;&gt;Node4</title>
<path fill="none" stroke="midnightblue" d="M600.016,-410.248C573.994,-402.793 533.409,-389.245 502,-370 424.199,-322.329 425.395,-283.392 350,-232 331.355,-219.291 308.775,-207.973 290.307,-199.63"/>
<polygon fill="midnightblue" stroke="midnightblue" points="291.629,-196.388 281.068,-195.547 288.799,-202.79 291.629,-196.388"/>
</g>
<!-- Node36&#45;&gt;Node6 -->
<g id="edge118" class="edge"><title>Node36&#45;&gt;Node6</title>
<path fill="none" stroke="midnightblue" d="M649.754,-406.379C683.692,-389.395 742,-352.692 742,-301 742,-301 742,-301 742,-127 742,-84.5631 713.112,-78.5806 676,-58 645.233,-40.9383 550.366,-25.1725 493.794,-16.9501"/>
<polygon fill="midnightblue" stroke="midnightblue" points="494.096,-13.4577 483.701,-15.504 493.103,-20.387 494.096,-13.4577"/>
</g>
<!-- Node37 -->
<g id="node98" class="node"><title>Node37</title>
<a xlink:href="bufstring_8h.html" target="_top" xlink:title="bufstring.h">
<polygon fill="white" stroke="black" points="611,-348.5 611,-369.5 673,-369.5 673,-348.5 611,-348.5"/>
<text text-anchor="middle" x="642" y="-356.5" font-family="Helvetica,sans-Serif" font-size="10.00">bufstring.h</text>
</a>
</g>
<!-- Node36&#45;&gt;Node37 -->
<g id="edge122" class="edge"><title>Node36&#45;&gt;Node37</title>
<path fill="none" stroke="midnightblue" d="M628.935,-406.362C631.01,-398.84 633.857,-388.519 636.364,-379.431"/>
<polygon fill="midnightblue" stroke="midnightblue" points="639.799,-380.141 639.084,-369.571 633.051,-378.28 639.799,-380.141"/>
</g>
<!-- Node37&#45;&gt;Node6 -->
<g id="edge124" class="edge"><title>Node37&#45;&gt;Node6</title>
<path fill="none" stroke="midnightblue" d="M652.238,-348.496C669.848,-329.269 704,-286.386 704,-243 704,-243 704,-243 704,-127 704,-86.6509 679.4,-79.0879 645,-58 598.335,-29.3932 535.463,-18.1967 493.877,-13.8154"/>
<polygon fill="midnightblue" stroke="midnightblue" points="494.076,-10.3184 483.786,-12.8418 493.403,-17.286 494.076,-10.3184"/>
</g>
<!-- Node37&#45;&gt;Node21 -->
<g id="edge128" class="edge"><title>Node37&#45;&gt;Node21</title>
<path fill="none" stroke="midnightblue" d="M644.819,-348.077C647.906,-334.33 651.82,-310.088 647,-290 633.562,-233.993 597.503,-175.529 577.622,-146.202"/>
<polygon fill="midnightblue" stroke="midnightblue" points="580.346,-143.986 571.785,-137.744 574.584,-147.962 580.346,-143.986"/>
</g>
<!-- Node37&#45;&gt;Node24 -->
<g id="edge126" class="edge"><title>Node37&#45;&gt;Node24</title>
<path fill="none" stroke="midnightblue" d="M634.847,-348.362C629.514,-340.431 622.089,-329.389 615.749,-319.961"/>
<polygon fill="midnightblue" stroke="midnightblue" points="618.592,-317.916 610.108,-311.571 612.783,-321.822 618.592,-317.916"/>
</g>
<!-- Node40&#45;&gt;Node34 -->
<g id="edge140" class="edge"><title>Node40&#45;&gt;Node34</title>
<path fill="none" stroke="midnightblue" d="M370,-522.362C370,-514.922 370,-504.743 370,-495.728"/>
<polygon fill="midnightblue" stroke="midnightblue" points="373.5,-495.571 370,-485.571 366.5,-495.571 373.5,-495.571"/>
</g>
<!-- Node40&#45;&gt;Node35 -->
<g id="edge142" class="edge"><title>Node40&#45;&gt;Node35</title>
<path fill="none" stroke="midnightblue" d="M401.691,-522.497C430.221,-513.041 472.336,-499.083 503.535,-488.743"/>
<polygon fill="midnightblue" stroke="midnightblue" points="504.858,-491.991 513.249,-485.523 502.656,-485.347 504.858,-491.991"/>
</g>
</g>
</svg>
