<?xml version="1.0" encoding="UTF-8" standalone="no"?>
<!DOCTYPE svg PUBLIC "-//W3C//DTD SVG 1.1//EN"
 "http://www.w3.org/Graphics/SVG/1.1/DTD/svg11.dtd">
<!-- Generated by graphviz version 2.26.0 (20091210.2329)
 -->
<!-- Title: fontdata.h Pages: 1 -->
<svg width="1043pt" height="262pt"
 viewBox="0.00 0.00 1043.00 262.00" xmlns="http://www.w3.org/2000/svg" xmlns:xlink="http://www.w3.org/1999/xlink">
<g id="graph1" class="graph" transform="scale(1 1) rotate(0) translate(4 258)">
<title>fontdata.h</title>
<polygon fill="white" stroke="white" points="-4,5 -4,-258 1040,-258 1040,5 -4,5"/>
<!-- Node1 -->
<g id="node1" class="node"><title>Node1</title>
<polygon fill="#bfbfbf" stroke="black" points="722,-232.5 722,-253.5 782,-253.5 782,-232.5 722,-232.5"/>
<text text-anchor="middle" x="752" y="-240.5" font-family="Helvetica,sans-Serif" font-size="10.00">fontdata.h</text>
</g>
<!-- Node2 -->
<g id="node3" class="node"><title>Node2</title>
<a xlink:href="welldisp_8h.html" target="_top" xlink:title="welldisp.h">
<polygon fill="white" stroke="black" points="204,-174.5 204,-195.5 264,-195.5 264,-174.5 204,-174.5"/>
<text text-anchor="middle" x="234" y="-182.5" font-family="Helvetica,sans-Serif" font-size="10.00">welldisp.h</text>
</a>
</g>
<!-- Node1&#45;&gt;Node2 -->
<g id="edge2" class="edge"><title>Node1&#45;&gt;Node2</title>
<path fill="none" stroke="midnightblue" d="M711.897,-238.51C611.806,-227.303 352.702,-198.291 264.172,-188.378"/>
<polygon fill="midnightblue" stroke="midnightblue" points="711.584,-241.996 721.911,-239.631 712.363,-235.04 711.584,-241.996"/>
</g>
<!-- Node10 -->
<g id="node19" class="node"><title>Node10</title>
<a xlink:href="uifont_8h.html" target="_top" xlink:title="uifont.h">
<polygon fill="white" stroke="black" points="554.5,-174.5 554.5,-195.5 603.5,-195.5 603.5,-174.5 554.5,-174.5"/>
<text text-anchor="middle" x="579" y="-182.5" font-family="Helvetica,sans-Serif" font-size="10.00">uifont.h</text>
</a>
</g>
<!-- Node1&#45;&gt;Node10 -->
<g id="edge18" class="edge"><title>Node1&#45;&gt;Node10</title>
<path fill="none" stroke="midnightblue" d="M711.953,-229.574C678.541,-218.372 631.982,-202.763 603.752,-193.298"/>
<polygon fill="midnightblue" stroke="midnightblue" points="711.272,-233.037 721.866,-232.897 713.497,-226.4 711.272,-233.037"/>
</g>
<!-- Node18 -->
<g id="node35" class="node"><title>Node18</title>
<a xlink:href="uiaxishandler_8h.html" target="_top" xlink:title="uiaxishandler.h">
<polygon fill="white" stroke="black" points="621,-174.5 621,-195.5 703,-195.5 703,-174.5 621,-174.5"/>
<text text-anchor="middle" x="662" y="-182.5" font-family="Helvetica,sans-Serif" font-size="10.00">uiaxishandler.h</text>
</a>
</g>
<!-- Node1&#45;&gt;Node18 -->
<g id="edge34" class="edge"><title>Node1&#45;&gt;Node18</title>
<path fill="none" stroke="midnightblue" d="M726.895,-226.821C711.393,-216.831 691.947,-204.299 678.403,-195.571"/>
<polygon fill="midnightblue" stroke="midnightblue" points="725.191,-229.887 735.493,-232.362 728.983,-224.003 725.191,-229.887"/>
</g>
<!-- Node24 -->
<g id="node50" class="node"><title>Node24</title>
<a xlink:href="uifontsel_8h.html" target="_top" xlink:title="uifontsel.h">
<polygon fill="white" stroke="black" points="721,-174.5 721,-195.5 783,-195.5 783,-174.5 721,-174.5"/>
<text text-anchor="middle" x="752" y="-182.5" font-family="Helvetica,sans-Serif" font-size="10.00">uifontsel.h</text>
</a>
</g>
<!-- Node1&#45;&gt;Node24 -->
<g id="edge52" class="edge"><title>Node1&#45;&gt;Node24</title>
<path fill="none" stroke="midnightblue" d="M752,-222.191C752,-213.168 752,-202.994 752,-195.571"/>
<polygon fill="midnightblue" stroke="midnightblue" points="748.5,-222.362 752,-232.362 755.5,-222.362 748.5,-222.362"/>
</g>
<!-- Node25 -->
<g id="node52" class="node"><title>Node25</title>
<a xlink:href="vistext_8h.html" target="_top" xlink:title="vistext.h">
<polygon fill="white" stroke="black" points="801,-174.5 801,-195.5 855,-195.5 855,-174.5 801,-174.5"/>
<text text-anchor="middle" x="828" y="-182.5" font-family="Helvetica,sans-Serif" font-size="10.00">vistext.h</text>
</a>
</g>
<!-- Node1&#45;&gt;Node25 -->
<g id="edge54" class="edge"><title>Node1&#45;&gt;Node25</title>
<path fill="none" stroke="midnightblue" d="M773.937,-226.259C786.902,-216.364 802.925,-204.136 814.149,-195.571"/>
<polygon fill="midnightblue" stroke="midnightblue" points="771.766,-223.513 765.94,-232.362 776.012,-229.077 771.766,-223.513"/>
</g>
<!-- Node27 -->
<g id="node56" class="node"><title>Node27</title>
<a xlink:href="viswell_8h.html" target="_top" xlink:title="viswell.h">
<polygon fill="white" stroke="black" points="872.5,-174.5 872.5,-195.5 927.5,-195.5 927.5,-174.5 872.5,-174.5"/>
<text text-anchor="middle" x="900" y="-182.5" font-family="Helvetica,sans-Serif" font-size="10.00">viswell.h</text>
</a>
</g>
<!-- Node1&#45;&gt;Node27 -->
<g id="edge58" class="edge"><title>Node1&#45;&gt;Node27</title>
<path fill="none" stroke="midnightblue" d="M788.36,-228.751C814.495,-218.509 849.168,-204.921 872.898,-195.621"/>
<polygon fill="midnightblue" stroke="midnightblue" points="786.835,-225.589 778.802,-232.497 789.389,-232.107 786.835,-225.589"/>
</g>
<!-- Node29 -->
<g id="node60" class="node"><title>Node29</title>
<a xlink:href="uiscenepropdlg_8h.html" target="_top" xlink:title="uiscenepropdlg.h">
<polygon fill="white" stroke="black" points="945,-174.5 945,-195.5 1035,-195.5 1035,-174.5 945,-174.5"/>
<text text-anchor="middle" x="990" y="-182.5" font-family="Helvetica,sans-Serif" font-size="10.00">uiscenepropdlg.h</text>
</a>
</g>
<!-- Node1&#45;&gt;Node29 -->
<g id="edge62" class="edge"><title>Node1&#45;&gt;Node29</title>
<path fill="none" stroke="midnightblue" d="M791.95,-233.264C834.834,-222.814 902.727,-206.268 946.82,-195.523"/>
<polygon fill="midnightblue" stroke="midnightblue" points="791.03,-229.886 782.143,-235.654 792.687,-236.687 791.03,-229.886"/>
</g>
<!-- Node3 -->
<g id="node5" class="node"><title>Node3</title>
<a xlink:href="welltiedata_8h.html" target="_top" xlink:title="welltiedata.h">
<polygon fill="white" stroke="black" points="4.5,-116.5 4.5,-137.5 75.5,-137.5 75.5,-116.5 4.5,-116.5"/>
<text text-anchor="middle" x="40" y="-124.5" font-family="Helvetica,sans-Serif" font-size="10.00">welltiedata.h</text>
</a>
</g>
<!-- Node2&#45;&gt;Node3 -->
<g id="edge4" class="edge"><title>Node2&#45;&gt;Node3</title>
<path fill="none" stroke="midnightblue" d="M193.819,-172.987C158.892,-162.545 108.786,-147.565 75.357,-137.571"/>
<polygon fill="midnightblue" stroke="midnightblue" points="193.104,-176.426 203.688,-175.938 195.109,-169.72 193.104,-176.426"/>
</g>
<!-- Node5 -->
<g id="node9" class="node"><title>Node5</title>
<a xlink:href="uiwelldahdisplay_8h.html" target="_top" xlink:title="uiwelldahdisplay.h">
<polygon fill="white" stroke="black" points="295,-116.5 295,-137.5 391,-137.5 391,-116.5 295,-116.5"/>
<text text-anchor="middle" x="343" y="-124.5" font-family="Helvetica,sans-Serif" font-size="10.00">uiwelldahdisplay.h</text>
</a>
</g>
<!-- Node2&#45;&gt;Node5 -->
<g id="edge8" class="edge"><title>Node2&#45;&gt;Node5</title>
<path fill="none" stroke="midnightblue" d="M262.577,-169.794C281.594,-159.675 306.102,-146.634 323.039,-137.621"/>
<polygon fill="midnightblue" stroke="midnightblue" points="260.923,-166.709 253.739,-174.497 264.211,-172.889 260.923,-166.709"/>
</g>
<!-- Node8 -->
<g id="node15" class="node"><title>Node8</title>
<a xlink:href="uiwelldisplay_8h.html" target="_top" xlink:title="uiwelldisplay.h">
<polygon fill="white" stroke="black" points="93,-116.5 93,-137.5 173,-137.5 173,-116.5 93,-116.5"/>
<text text-anchor="middle" x="133" y="-124.5" font-family="Helvetica,sans-Serif" font-size="10.00">uiwelldisplay.h</text>
</a>
</g>
<!-- Node2&#45;&gt;Node8 -->
<g id="edge14" class="edge"><title>Node2&#45;&gt;Node8</title>
<path fill="none" stroke="midnightblue" d="M206.798,-169.379C189.248,-159.301 166.891,-146.462 151.408,-137.571"/>
<polygon fill="midnightblue" stroke="midnightblue" points="205.06,-172.417 215.475,-174.362 208.546,-166.347 205.06,-172.417"/>
</g>
<!-- Node9 -->
<g id="node17" class="node"><title>Node9</title>
<a xlink:href="uiwelldispprop_8h.html" target="_top" xlink:title="uiwelldispprop.h">
<polygon fill="white" stroke="black" points="191,-116.5 191,-137.5 277,-137.5 277,-116.5 191,-116.5"/>
<text text-anchor="middle" x="234" y="-124.5" font-family="Helvetica,sans-Serif" font-size="10.00">uiwelldispprop.h</text>
</a>
</g>
<!-- Node2&#45;&gt;Node9 -->
<g id="edge16" class="edge"><title>Node2&#45;&gt;Node9</title>
<path fill="none" stroke="midnightblue" d="M234,-164.191C234,-155.168 234,-144.994 234,-137.571"/>
<polygon fill="midnightblue" stroke="midnightblue" points="230.5,-164.362 234,-174.362 237.5,-164.362 230.5,-164.362"/>
</g>
<!-- Node4 -->
<g id="node7" class="node"><title>Node4</title>
<a xlink:href="uiwelltieview_8h.html" target="_top" xlink:title="uiwelltieview.h">
<polygon fill="white" stroke="black" points="0,-58.5 0,-79.5 80,-79.5 80,-58.5 0,-58.5"/>
<text text-anchor="middle" x="40" y="-66.5" font-family="Helvetica,sans-Serif" font-size="10.00">uiwelltieview.h</text>
</a>
</g>
<!-- Node3&#45;&gt;Node4 -->
<g id="edge6" class="edge"><title>Node3&#45;&gt;Node4</title>
<path fill="none" stroke="midnightblue" d="M40,-106.191C40,-97.1684 40,-86.9941 40,-79.5707"/>
<polygon fill="midnightblue" stroke="midnightblue" points="36.5001,-106.362 40,-116.362 43.5001,-106.362 36.5001,-106.362"/>
</g>
<!-- Node6 -->
<g id="node11" class="node"><title>Node6</title>
<a xlink:href="uiwelllogdisplay_8h.html" target="_top" xlink:title="uiwelllogdisplay.h">
<polygon fill="white" stroke="black" points="265.5,-58.5 265.5,-79.5 358.5,-79.5 358.5,-58.5 265.5,-58.5"/>
<text text-anchor="middle" x="312" y="-66.5" font-family="Helvetica,sans-Serif" font-size="10.00">uiwelllogdisplay.h</text>
</a>
</g>
<!-- Node5&#45;&gt;Node6 -->
<g id="edge10" class="edge"><title>Node5&#45;&gt;Node6</title>
<path fill="none" stroke="midnightblue" d="M332.51,-107.373C327.536,-98.0682 321.792,-87.3204 317.65,-79.5707"/>
<polygon fill="midnightblue" stroke="midnightblue" points="329.514,-109.192 337.314,-116.362 335.687,-105.893 329.514,-109.192"/>
</g>
<!-- Node7 -->
<g id="node13" class="node"><title>Node7</title>
<a xlink:href="uiwellstratdisplay_8h.html" target="_top" xlink:title="uiwellstratdisplay.h">
<polygon fill="white" stroke="black" points="148,-58.5 148,-79.5 248,-79.5 248,-58.5 148,-58.5"/>
<text text-anchor="middle" x="198" y="-66.5" font-family="Helvetica,sans-Serif" font-size="10.00">uiwellstratdisplay.h</text>
</a>
</g>
<!-- Node5&#45;&gt;Node7 -->
<g id="edge12" class="edge"><title>Node5&#45;&gt;Node7</title>
<path fill="none" stroke="midnightblue" d="M307.377,-112.751C281.771,-102.509 247.801,-88.9206 224.553,-79.6212"/>
<polygon fill="midnightblue" stroke="midnightblue" points="306.157,-116.032 316.742,-116.497 308.757,-109.533 306.157,-116.032"/>
</g>
<!-- Node11 -->
<g id="node21" class="node"><title>Node11</title>
<a xlink:href="uiobjbody_8h.html" target="_top" xlink:title="uiobjbody.h">
<polygon fill="white" stroke="black" points="440,-116.5 440,-137.5 506,-137.5 506,-116.5 440,-116.5"/>
<text text-anchor="middle" x="473" y="-124.5" font-family="Helvetica,sans-Serif" font-size="10.00">uiobjbody.h</text>
</a>
</g>
<!-- Node10&#45;&gt;Node11 -->
<g id="edge20" class="edge"><title>Node10&#45;&gt;Node11</title>
<path fill="none" stroke="midnightblue" d="M550.704,-169.517C532.248,-159.419 508.644,-146.503 492.319,-137.571"/>
<polygon fill="midnightblue" stroke="midnightblue" points="549.105,-172.632 559.558,-174.362 552.465,-166.491 549.105,-172.632"/>
</g>
<!-- Node16 -->
<g id="node31" class="node"><title>Node16</title>
<a xlink:href="uigraphicssceneaxismgr_8h.html" target="_top" xlink:title="uigraphicssceneaxismgr.h">
<polygon fill="white" stroke="black" points="524,-116.5 524,-137.5 654,-137.5 654,-116.5 524,-116.5"/>
<text text-anchor="middle" x="589" y="-124.5" font-family="Helvetica,sans-Serif" font-size="10.00">uigraphicssceneaxismgr.h</text>
</a>
</g>
<!-- Node10&#45;&gt;Node16 -->
<g id="edge30" class="edge"><title>Node10&#45;&gt;Node16</title>
<path fill="none" stroke="midnightblue" d="M582.537,-164.488C584.105,-155.392 585.884,-145.076 587.177,-137.571"/>
<polygon fill="midnightblue" stroke="midnightblue" points="579.084,-163.913 580.834,-174.362 585.982,-165.102 579.084,-163.913"/>
</g>
<!-- Node12 -->
<g id="node23" class="node"><title>Node12</title>
<a xlink:href="i__layoutitem_8h.html" target="_top" xlink:title="i_layoutitem.h">
<polygon fill="white" stroke="black" points="485.5,-58.5 485.5,-79.5 562.5,-79.5 562.5,-58.5 485.5,-58.5"/>
<text text-anchor="middle" x="524" y="-66.5" font-family="Helvetica,sans-Serif" font-size="10.00">i_layoutitem.h</text>
</a>
</g>
<!-- Node11&#45;&gt;Node12 -->
<g id="edge22" class="edge"><title>Node11&#45;&gt;Node12</title>
<path fill="none" stroke="midnightblue" d="M488.977,-108.83C497.438,-99.2078 507.532,-87.7282 514.705,-79.5707"/>
<polygon fill="midnightblue" stroke="midnightblue" points="486.329,-106.541 482.354,-116.362 491.586,-111.163 486.329,-106.541"/>
</g>
<!-- Node13 -->
<g id="node25" class="node"><title>Node13</title>
<a xlink:href="ui3dviewerbody_8h.html" target="_top" xlink:title="ui3dviewerbody.h">
<polygon fill="white" stroke="black" points="376,-58.5 376,-79.5 468,-79.5 468,-58.5 376,-58.5"/>
<text text-anchor="middle" x="422" y="-66.5" font-family="Helvetica,sans-Serif" font-size="10.00">ui3dviewerbody.h</text>
</a>
</g>
<!-- Node11&#45;&gt;Node13 -->
<g id="edge24" class="edge"><title>Node11&#45;&gt;Node13</title>
<path fill="none" stroke="midnightblue" d="M457.023,-108.83C448.562,-99.2078 438.468,-87.7282 431.295,-79.5707"/>
<polygon fill="midnightblue" stroke="midnightblue" points="454.414,-111.163 463.646,-116.362 459.671,-106.541 454.414,-111.163"/>
</g>
<!-- Node14 -->
<g id="node27" class="node"><title>Node14</title>
<a xlink:href="ui3dindirectviewer_8h.html" target="_top" xlink:title="ui3dindirectviewer.h">
<polygon fill="white" stroke="black" points="407.5,-0.5 407.5,-21.5 510.5,-21.5 510.5,-0.5 407.5,-0.5"/>
<text text-anchor="middle" x="459" y="-8.5" font-family="Helvetica,sans-Serif" font-size="10.00">ui3dindirectviewer.h</text>
</a>
</g>
<!-- Node13&#45;&gt;Node14 -->
<g id="edge26" class="edge"><title>Node13&#45;&gt;Node14</title>
<path fill="none" stroke="midnightblue" d="M434.333,-49.6667C440.312,-40.2948 447.261,-29.4019 452.257,-21.5707"/>
<polygon fill="midnightblue" stroke="midnightblue" points="431.214,-48.0489 428.786,-58.3619 437.115,-51.8136 431.214,-48.0489"/>
</g>
<!-- Node15 -->
<g id="node29" class="node"><title>Node15</title>
<a xlink:href="swapbuffercallback_8h.html" target="_top" xlink:title="swapbuffercallback.h">
<polygon fill="white" stroke="black" points="281.5,-0.5 281.5,-21.5 390.5,-21.5 390.5,-0.5 281.5,-0.5"/>
<text text-anchor="middle" x="336" y="-8.5" font-family="Helvetica,sans-Serif" font-size="10.00">swapbuffercallback.h</text>
</a>
</g>
<!-- Node13&#45;&gt;Node15 -->
<g id="edge28" class="edge"><title>Node13&#45;&gt;Node15</title>
<path fill="none" stroke="midnightblue" d="M397.595,-52.5407C382.851,-42.5973 364.495,-30.2177 351.674,-21.5707"/>
<polygon fill="midnightblue" stroke="midnightblue" points="395.979,-55.6722 406.226,-58.3619 399.893,-49.8687 395.979,-55.6722"/>
</g>
<!-- Node17 -->
<g id="node33" class="node"><title>Node17</title>
<a xlink:href="flatviewaxesdrawer_8h.html" target="_top" xlink:title="flatviewaxesdrawer.h">
<polygon fill="white" stroke="black" points="579.5,-58.5 579.5,-79.5 688.5,-79.5 688.5,-58.5 579.5,-58.5"/>
<text text-anchor="middle" x="634" y="-66.5" font-family="Helvetica,sans-Serif" font-size="10.00">flatviewaxesdrawer.h</text>
</a>
</g>
<!-- Node16&#45;&gt;Node17 -->
<g id="edge32" class="edge"><title>Node16&#45;&gt;Node17</title>
<path fill="none" stroke="midnightblue" d="M603.547,-108.25C610.918,-98.75 619.596,-87.5651 625.799,-79.5707"/>
<polygon fill="midnightblue" stroke="midnightblue" points="600.618,-106.316 597.254,-116.362 606.149,-110.607 600.618,-106.316"/>
</g>
<!-- Node18&#45;&gt;Node5 -->
<g id="edge50" class="edge"><title>Node18&#45;&gt;Node5</title>
<path fill="none" stroke="midnightblue" d="M611.009,-173.862C528.228,-157.667 443.094,-143.284 391.224,-134.775"/>
<polygon fill="midnightblue" stroke="midnightblue" points="610.341,-177.297 620.829,-175.793 611.693,-170.429 610.341,-177.297"/>
</g>
<!-- Node18&#45;&gt;Node16 -->
<g id="edge46" class="edge"><title>Node18&#45;&gt;Node16</title>
<path fill="none" stroke="midnightblue" d="M640.572,-167.975C628.183,-158.132 612.982,-146.055 602.304,-137.571"/>
<polygon fill="midnightblue" stroke="midnightblue" points="638.604,-170.881 648.611,-174.362 642.958,-165.401 638.604,-170.881"/>
</g>
<!-- Node19 -->
<g id="node37" class="node"><title>Node19</title>
<a xlink:href="uiaxisdata_8h.html" target="_top" xlink:title="uiaxisdata.h">
<polygon fill="white" stroke="black" points="671.5,-116.5 671.5,-137.5 740.5,-137.5 740.5,-116.5 671.5,-116.5"/>
<text text-anchor="middle" x="706" y="-124.5" font-family="Helvetica,sans-Serif" font-size="10.00">uiaxisdata.h</text>
</a>
</g>
<!-- Node18&#45;&gt;Node19 -->
<g id="edge36" class="edge"><title>Node18&#45;&gt;Node19</title>
<path fill="none" stroke="midnightblue" d="M676.224,-166.25C683.431,-156.75 691.916,-145.565 697.981,-137.571"/>
<polygon fill="midnightblue" stroke="midnightblue" points="673.326,-164.28 670.07,-174.362 678.903,-168.51 673.326,-164.28"/>
</g>
<!-- Node20 -->
<g id="node39" class="node"><title>Node20</title>
<a xlink:href="uidatapointsetcrossplot_8h.html" target="_top" xlink:title="uidatapointsetcrossplot.h">
<polygon fill="white" stroke="black" points="705.5,-58.5 705.5,-79.5 830.5,-79.5 830.5,-58.5 705.5,-58.5"/>
<text text-anchor="middle" x="768" y="-66.5" font-family="Helvetica,sans-Serif" font-size="10.00">uidatapointsetcrossplot.h</text>
</a>
</g>
<!-- Node18&#45;&gt;Node20 -->
<g id="edge48" class="edge"><title>Node18&#45;&gt;Node20</title>
<path fill="none" stroke="midnightblue" d="M704.486,-170.377C720.488,-162.943 737.563,-152.374 749,-138 762.616,-120.888 766.49,-94.6916 767.582,-79.9901"/>
<polygon fill="midnightblue" stroke="midnightblue" points="703.014,-167.2 695.239,-174.396 705.805,-173.62 703.014,-167.2"/>
</g>
<!-- Node19&#45;&gt;Node20 -->
<g id="edge38" class="edge"><title>Node19&#45;&gt;Node20</title>
<path fill="none" stroke="midnightblue" d="M724.808,-109.405C735.217,-99.6683 747.806,-87.8914 756.7,-79.5707"/>
<polygon fill="midnightblue" stroke="midnightblue" points="722.283,-106.974 717.372,-116.362 727.066,-112.086 722.283,-106.974"/>
</g>
<!-- Node21 -->
<g id="node41" class="node"><title>Node21</title>
<a xlink:href="uidatapointsetcrossplotwin_8h.html" target="_top" xlink:title="uidatapointsetcrossplotwin.h">
<polygon fill="white" stroke="black" points="565,-0.5 565,-21.5 705,-21.5 705,-0.5 565,-0.5"/>
<text text-anchor="middle" x="635" y="-8.5" font-family="Helvetica,sans-Serif" font-size="10.00">uidatapointsetcrossplotwin.h</text>
</a>
</g>
<!-- Node20&#45;&gt;Node21 -->
<g id="edge40" class="edge"><title>Node20&#45;&gt;Node21</title>
<path fill="none" stroke="midnightblue" d="M734.703,-54.4794C711.29,-44.2695 680.492,-30.8386 659.356,-21.6212"/>
<polygon fill="midnightblue" stroke="midnightblue" points="733.349,-57.7075 743.915,-58.4966 736.147,-51.291 733.349,-57.7075"/>
</g>
<!-- Node22 -->
<g id="node43" class="node"><title>Node22</title>
<a xlink:href="uiimpexpselgrp_8h.html" target="_top" xlink:title="uiimpexpselgrp.h">
<polygon fill="white" stroke="black" points="723,-0.5 723,-21.5 813,-21.5 813,-0.5 723,-0.5"/>
<text text-anchor="middle" x="768" y="-8.5" font-family="Helvetica,sans-Serif" font-size="10.00">uiimpexpselgrp.h</text>
</a>
</g>
<!-- Node20&#45;&gt;Node22 -->
<g id="edge42" class="edge"><title>Node20&#45;&gt;Node22</title>
<path fill="none" stroke="midnightblue" d="M768,-48.1906C768,-39.1684 768,-28.9941 768,-21.5707"/>
<polygon fill="midnightblue" stroke="midnightblue" points="764.5,-48.3619 768,-58.3619 771.5,-48.3619 764.5,-48.3619"/>
</g>
<!-- Node23 -->
<g id="node45" class="node"><title>Node23</title>
<a xlink:href="densitycalc_8h.html" target="_top" xlink:title="densitycalc.h">
<polygon fill="white" stroke="black" points="831,-0.5 831,-21.5 905,-21.5 905,-0.5 831,-0.5"/>
<text text-anchor="middle" x="868" y="-8.5" font-family="Helvetica,sans-Serif" font-size="10.00">densitycalc.h</text>
</a>
</g>
<!-- Node20&#45;&gt;Node23 -->
<g id="edge44" class="edge"><title>Node20&#45;&gt;Node23</title>
<path fill="none" stroke="midnightblue" d="M795.412,-53.1009C812.714,-43.0658 834.585,-30.3808 849.775,-21.5707"/>
<polygon fill="midnightblue" stroke="midnightblue" points="793.236,-50.3171 786.342,-58.3619 796.748,-56.3723 793.236,-50.3171"/>
</g>
<!-- Node26 -->
<g id="node54" class="node"><title>Node26</title>
<a xlink:href="uiosgfont_8h.html" target="_top" xlink:title="uiosgfont.h">
<polygon fill="white" stroke="black" points="795.5,-116.5 795.5,-137.5 860.5,-137.5 860.5,-116.5 795.5,-116.5"/>
<text text-anchor="middle" x="828" y="-124.5" font-family="Helvetica,sans-Serif" font-size="10.00">uiosgfont.h</text>
</a>
</g>
<!-- Node25&#45;&gt;Node26 -->
<g id="edge56" class="edge"><title>Node25&#45;&gt;Node26</title>
<path fill="none" stroke="midnightblue" d="M828,-164.191C828,-155.168 828,-144.994 828,-137.571"/>
<polygon fill="midnightblue" stroke="midnightblue" points="824.5,-164.362 828,-174.362 831.5,-164.362 824.5,-164.362"/>
</g>
<!-- Node28 -->
<g id="node58" class="node"><title>Node28</title>
<a xlink:href="viswelldisplay_8h.html" target="_top" xlink:title="viswelldisplay.h">
<polygon fill="white" stroke="black" points="878,-116.5 878,-137.5 964,-137.5 964,-116.5 878,-116.5"/>
<text text-anchor="middle" x="921" y="-124.5" font-family="Helvetica,sans-Serif" font-size="10.00">viswelldisplay.h</text>
</a>
</g>
<!-- Node27&#45;&gt;Node28 -->
<g id="edge60" class="edge"><title>Node27&#45;&gt;Node28</title>
<path fill="none" stroke="midnightblue" d="M907.32,-164.784C910.639,-155.617 914.426,-145.157 917.173,-137.571"/>
<polygon fill="midnightblue" stroke="midnightblue" points="903.965,-163.768 903.852,-174.362 910.547,-166.151 903.965,-163.768"/>
</g>
</g>
</svg>
