<?xml version="1.0" encoding="UTF-8" standalone="no"?>
<!DOCTYPE svg PUBLIC "-//W3C//DTD SVG 1.1//EN"
 "http://www.w3.org/Graphics/SVG/1.1/DTD/svg11.dtd">
<!-- Generated by graphviz version 2.26.0 (20091210.2329)
 -->
<!-- Title: geeditor.h Pages: 1 -->
<svg width="308pt" height="88pt"
 viewBox="0.00 0.00 308.00 88.00" xmlns="http://www.w3.org/2000/svg" xmlns:xlink="http://www.w3.org/1999/xlink">
<g id="graph1" class="graph" transform="scale(1 1) rotate(0) translate(4 84)">
<title>geeditor.h</title>
<polygon fill="white" stroke="white" points="-4,5 -4,-84 305,-84 305,5 -4,5"/>
<!-- Node1 -->
<g id="node1" class="node"><title>Node1</title>
<polygon fill="#bfbfbf" stroke="black" points="117.5,-58.5 117.5,-79.5 176.5,-79.5 176.5,-58.5 117.5,-58.5"/>
<text text-anchor="middle" x="147" y="-66.5" font-family="Helvetica,sans-Serif" font-size="10.00">geeditor.h</text>
</g>
<!-- Node2 -->
<g id="node3" class="node"><title>Node2</title>
<a xlink:href="geeditorimpl_8h.html" target="_top" xlink:title="geeditorimpl.h">
<polygon fill="white" stroke="black" points="-0.5,-0.5 -0.5,-21.5 76.5,-21.5 76.5,-0.5 -0.5,-0.5"/>
<text text-anchor="middle" x="38" y="-8.5" font-family="Helvetica,sans-Serif" font-size="10.00">geeditorimpl.h</text>
</a>
</g>
<!-- Node1&#45;&gt;Node2 -->
<g id="edge2" class="edge"><title>Node1&#45;&gt;Node2</title>
<path fill="none" stroke="midnightblue" d="M118.423,-53.794C99.4057,-43.6746 74.898,-30.6338 57.9606,-21.6212"/>
<polygon fill="midnightblue" stroke="midnightblue" points="116.789,-56.8889 127.261,-58.4966 120.077,-50.7093 116.789,-56.8889"/>
</g>
<!-- Node3 -->
<g id="node5" class="node"><title>Node3</title>
<a xlink:href="polygonsurfaceedit_8h.html" target="_top" xlink:title="polygonsurfaceedit.h">
<polygon fill="white" stroke="black" points="93.5,-0.5 93.5,-21.5 200.5,-21.5 200.5,-0.5 93.5,-0.5"/>
<text text-anchor="middle" x="147" y="-8.5" font-family="Helvetica,sans-Serif" font-size="10.00">polygonsurfaceedit.h</text>
</a>
</g>
<!-- Node1&#45;&gt;Node3 -->
<g id="edge4" class="edge"><title>Node1&#45;&gt;Node3</title>
<path fill="none" stroke="midnightblue" d="M147,-48.1906C147,-39.1684 147,-28.9941 147,-21.5707"/>
<polygon fill="midnightblue" stroke="midnightblue" points="143.5,-48.3619 147,-58.3619 150.5,-48.3619 143.5,-48.3619"/>
</g>
<!-- Node4 -->
<g id="node7" class="node"><title>Node4</title>
<a xlink:href="stickseteditor_8h.html" target="_top" xlink:title="stickseteditor.h">
<polygon fill="white" stroke="black" points="217.5,-0.5 217.5,-21.5 300.5,-21.5 300.5,-0.5 217.5,-0.5"/>
<text text-anchor="middle" x="259" y="-8.5" font-family="Helvetica,sans-Serif" font-size="10.00">stickseteditor.h</text>
</a>
</g>
<!-- Node1&#45;&gt;Node4 -->
<g id="edge6" class="edge"><title>Node1&#45;&gt;Node4</title>
<path fill="none" stroke="midnightblue" d="M176.363,-53.794C195.904,-43.6746 221.086,-30.6338 238.49,-21.6212"/>
<polygon fill="midnightblue" stroke="midnightblue" points="174.553,-50.7901 167.282,-58.4966 177.772,-57.006 174.553,-50.7901"/>
</g>
</g>
</svg>
