<?xml version="1.0" encoding="UTF-8" standalone="no"?>
<!DOCTYPE svg PUBLIC "-//W3C//DTD SVG 1.1//EN"
 "http://www.w3.org/Graphics/SVG/1.1/DTD/svg11.dtd">
<!-- Generated by graphviz version 2.26.0 (20091210.2329)
 -->
<!-- Title: globexpr.h Pages: 1 -->
<svg width="590pt" height="436pt"
 viewBox="0.00 0.00 590.00 436.00" xmlns="http://www.w3.org/2000/svg" xmlns:xlink="http://www.w3.org/1999/xlink">
<g id="graph1" class="graph" transform="scale(1 1) rotate(0) translate(4 432)">
<title>globexpr.h</title>
<polygon fill="white" stroke="white" points="-4,5 -4,-432 587,-432 587,5 -4,5"/>
<!-- Node1 -->
<g id="node1" class="node"><title>Node1</title>
<polygon fill="#bfbfbf" stroke="black" points="9,-406.5 9,-427.5 71,-427.5 71,-406.5 9,-406.5"/>
<text text-anchor="middle" x="40" y="-414.5" font-family="Helvetica,sans-Serif" font-size="10.00">globexpr.h</text>
</g>
<!-- Node2 -->
<g id="node3" class="node"><title>Node2</title>
<polygon fill="white" stroke="#bfbfbf" points="80.5,-0.5 80.5,-21.5 147.5,-21.5 147.5,-0.5 80.5,-0.5"/>
<text text-anchor="middle" x="114" y="-8.5" font-family="Helvetica,sans-Serif" font-size="10.00">basicmod.h</text>
</g>
<!-- Node1&#45;&gt;Node2 -->
<g id="edge2" class="edge"><title>Node1&#45;&gt;Node2</title>
<path fill="none" stroke="midnightblue" d="M33.5733,-406.232C22.2662,-386.234 0,-341.688 0,-301 0,-301 0,-301 0,-127 0,-80.0264 48.1415,-45.1175 81.8558,-26.4297"/>
<polygon fill="midnightblue" stroke="midnightblue" points="83.7523,-29.385 90.9304,-21.5923 80.4594,-23.2078 83.7523,-29.385"/>
</g>
<!-- Node3 -->
<g id="node5" class="node"><title>Node3</title>
<a xlink:href="bufstring_8h.html" target="_top" xlink:title="bufstring.h">
<polygon fill="white" stroke="black" points="49,-348.5 49,-369.5 111,-369.5 111,-348.5 49,-348.5"/>
<text text-anchor="middle" x="80" y="-356.5" font-family="Helvetica,sans-Serif" font-size="10.00">bufstring.h</text>
</a>
</g>
<!-- Node1&#45;&gt;Node3 -->
<g id="edge4" class="edge"><title>Node1&#45;&gt;Node3</title>
<path fill="none" stroke="midnightblue" d="M47.3366,-406.362C52.806,-398.431 60.4217,-387.389 66.9237,-377.961"/>
<polygon fill="midnightblue" stroke="midnightblue" points="69.9138,-379.79 72.7099,-369.571 64.1513,-375.816 69.9138,-379.79"/>
</g>
<!-- Node3&#45;&gt;Node2 -->
<g id="edge6" class="edge"><title>Node3&#45;&gt;Node2</title>
<path fill="none" stroke="midnightblue" d="M73.252,-348.275C61.3795,-328.346 38,-283.909 38,-243 38,-243 38,-243 38,-127 38,-86.5104 70.7975,-49.1585 93.3017,-28.2949"/>
<polygon fill="midnightblue" stroke="midnightblue" points="95.6399,-30.8993 100.762,-21.6247 90.9742,-25.681 95.6399,-30.8993"/>
</g>
<!-- Node4 -->
<g id="node8" class="node"><title>Node4</title>
<a xlink:href="fixedstring_8h.html" target="_top" xlink:title="fixedstring.h">
<polygon fill="white" stroke="black" points="66,-290.5 66,-311.5 136,-311.5 136,-290.5 66,-290.5"/>
<text text-anchor="middle" x="101" y="-298.5" font-family="Helvetica,sans-Serif" font-size="10.00">fixedstring.h</text>
</a>
</g>
<!-- Node3&#45;&gt;Node4 -->
<g id="edge8" class="edge"><title>Node3&#45;&gt;Node4</title>
<path fill="none" stroke="midnightblue" d="M83.8517,-348.362C86.6047,-340.758 90.3936,-330.294 93.7098,-321.135"/>
<polygon fill="midnightblue" stroke="midnightblue" points="97.0592,-322.165 97.1727,-311.571 90.4773,-319.782 97.0592,-322.165"/>
</g>
<!-- Node17 -->
<g id="node41" class="node"><title>Node17</title>
<a xlink:href="string2_8h.html" target="_top" xlink:title="string2.h">
<polygon fill="white" stroke="black" points="398,-116.5 398,-137.5 452,-137.5 452,-116.5 398,-116.5"/>
<text text-anchor="middle" x="425" y="-124.5" font-family="Helvetica,sans-Serif" font-size="10.00">string2.h</text>
</a>
</g>
<!-- Node3&#45;&gt;Node17 -->
<g id="edge48" class="edge"><title>Node3&#45;&gt;Node17</title>
<path fill="none" stroke="midnightblue" d="M95.7204,-348.429C150.612,-311.516 334.025,-188.177 400.595,-143.412"/>
<polygon fill="midnightblue" stroke="midnightblue" points="402.842,-146.118 409.187,-137.634 398.936,-140.309 402.842,-146.118"/>
</g>
<!-- Node4&#45;&gt;Node2 -->
<g id="edge10" class="edge"><title>Node4&#45;&gt;Node2</title>
<path fill="none" stroke="midnightblue" d="M97.0938,-290.291C90.0625,-270.027 76,-224.554 76,-185 76,-185 76,-185 76,-127 76,-91.7411 92.0509,-53.3154 103.289,-30.7323"/>
<polygon fill="midnightblue" stroke="midnightblue" points="106.418,-32.3005 107.895,-21.809 100.198,-29.0901 106.418,-32.3005"/>
</g>
<!-- Node5 -->
<g id="node11" class="node"><title>Node5</title>
<a xlink:href="odstring_8h.html" target="_top" xlink:title="odstring.h">
<polygon fill="white" stroke="black" points="103.5,-232.5 103.5,-253.5 162.5,-253.5 162.5,-232.5 103.5,-232.5"/>
<text text-anchor="middle" x="133" y="-240.5" font-family="Helvetica,sans-Serif" font-size="10.00">odstring.h</text>
</a>
</g>
<!-- Node4&#45;&gt;Node5 -->
<g id="edge12" class="edge"><title>Node4&#45;&gt;Node5</title>
<path fill="none" stroke="midnightblue" d="M106.869,-290.362C111.155,-282.595 117.087,-271.843 122.216,-262.546"/>
<polygon fill="midnightblue" stroke="midnightblue" points="125.402,-264.017 127.168,-253.571 119.273,-260.636 125.402,-264.017"/>
</g>
<!-- Node5&#45;&gt;Node2 -->
<g id="edge14" class="edge"><title>Node5&#45;&gt;Node2</title>
<path fill="none" stroke="midnightblue" d="M132.134,-232.429C129.204,-196.648 119.623,-79.6628 115.699,-31.7481"/>
<polygon fill="midnightblue" stroke="midnightblue" points="119.175,-31.3144 114.871,-21.6335 112.199,-31.8859 119.175,-31.3144"/>
</g>
<!-- Node6 -->
<g id="node14" class="node"><title>Node6</title>
<a xlink:href="gendefs_8h.html" target="_top" xlink:title="gendefs.h">
<polygon fill="white" stroke="black" points="184.5,-174.5 184.5,-195.5 243.5,-195.5 243.5,-174.5 184.5,-174.5"/>
<text text-anchor="middle" x="214" y="-182.5" font-family="Helvetica,sans-Serif" font-size="10.00">gendefs.h</text>
</a>
</g>
<!-- Node5&#45;&gt;Node6 -->
<g id="edge16" class="edge"><title>Node5&#45;&gt;Node6</title>
<path fill="none" stroke="midnightblue" d="M147.857,-232.362C159.846,-223.777 176.927,-211.546 190.728,-201.664"/>
<polygon fill="midnightblue" stroke="midnightblue" points="193.145,-204.238 199.238,-195.571 189.069,-198.547 193.145,-204.238"/>
</g>
<!-- Node7 -->
<g id="node16" class="node"><title>Node7</title>
<a xlink:href="undefval_8h.html" target="_top" xlink:title="undefval.h">
<polygon fill="white" stroke="black" points="318,-116.5 318,-137.5 380,-137.5 380,-116.5 318,-116.5"/>
<text text-anchor="middle" x="349" y="-124.5" font-family="Helvetica,sans-Serif" font-size="10.00">undefval.h</text>
</a>
</g>
<!-- Node6&#45;&gt;Node7 -->
<g id="edge18" class="edge"><title>Node6&#45;&gt;Node7</title>
<path fill="none" stroke="midnightblue" d="M238.447,-174.497C259.818,-165.315 291.069,-151.889 314.897,-141.652"/>
<polygon fill="midnightblue" stroke="midnightblue" points="316.472,-144.784 324.278,-137.621 313.709,-138.353 316.472,-144.784"/>
</g>
<!-- Node14 -->
<g id="node33" class="node"><title>Node14</title>
<a xlink:href="commontypes_8h.html" target="_top" xlink:title="commontypes.h">
<polygon fill="white" stroke="black" points="214,-116.5 214,-137.5 300,-137.5 300,-116.5 214,-116.5"/>
<text text-anchor="middle" x="257" y="-124.5" font-family="Helvetica,sans-Serif" font-size="10.00">commontypes.h</text>
</a>
</g>
<!-- Node6&#45;&gt;Node14 -->
<g id="edge38" class="edge"><title>Node6&#45;&gt;Node14</title>
<path fill="none" stroke="midnightblue" d="M221.887,-174.362C227.827,-166.35 236.122,-155.161 243.159,-145.67"/>
<polygon fill="midnightblue" stroke="midnightblue" points="246.019,-147.688 249.163,-137.571 240.396,-143.519 246.019,-147.688"/>
</g>
<!-- Node15 -->
<g id="node36" class="node"><title>Node15</title>
<a xlink:href="errmsg_8h.html" target="_top" xlink:title="errmsg.h">
<polygon fill="white" stroke="black" points="141.5,-116.5 141.5,-137.5 196.5,-137.5 196.5,-116.5 141.5,-116.5"/>
<text text-anchor="middle" x="169" y="-124.5" font-family="Helvetica,sans-Serif" font-size="10.00">errmsg.h</text>
</a>
</g>
<!-- Node6&#45;&gt;Node15 -->
<g id="edge42" class="edge"><title>Node6&#45;&gt;Node15</title>
<path fill="none" stroke="midnightblue" d="M205.746,-174.362C199.53,-166.35 190.849,-155.161 183.485,-145.67"/>
<polygon fill="midnightblue" stroke="midnightblue" points="186.097,-143.326 177.201,-137.571 180.566,-147.617 186.097,-143.326"/>
</g>
<!-- Node7&#45;&gt;Node2 -->
<g id="edge20" class="edge"><title>Node7&#45;&gt;Node2</title>
<path fill="none" stroke="midnightblue" d="M321.914,-116.493C299.392,-107.505 266.668,-93.8562 239,-80 221.551,-71.2613 218.031,-67.5277 201,-58 181.785,-47.2507 159.988,-35.4758 143.018,-26.4007"/>
<polygon fill="midnightblue" stroke="midnightblue" points="144.604,-23.28 134.134,-21.6603 141.309,-29.4559 144.604,-23.28"/>
</g>
<!-- Node8 -->
<g id="node19" class="node"><title>Node8</title>
<a xlink:href="commondefs_8h.html" target="_top" xlink:title="commondefs.h">
<polygon fill="white" stroke="black" points="247.5,-58.5 247.5,-79.5 328.5,-79.5 328.5,-58.5 247.5,-58.5"/>
<text text-anchor="middle" x="288" y="-66.5" font-family="Helvetica,sans-Serif" font-size="10.00">commondefs.h</text>
</a>
</g>
<!-- Node7&#45;&gt;Node8 -->
<g id="edge22" class="edge"><title>Node7&#45;&gt;Node8</title>
<path fill="none" stroke="midnightblue" d="M337.812,-116.362C329.041,-108.023 316.651,-96.2418 306.422,-86.5162"/>
<polygon fill="midnightblue" stroke="midnightblue" points="308.776,-83.9248 299.117,-79.5707 303.953,-88.9978 308.776,-83.9248"/>
</g>
<!-- Node12 -->
<g id="node28" class="node"><title>Node12</title>
<a xlink:href="plftypes_8h.html" target="_top" xlink:title="plftypes.h">
<polygon fill="white" stroke="black" points="383.5,-58.5 383.5,-79.5 442.5,-79.5 442.5,-58.5 383.5,-58.5"/>
<text text-anchor="middle" x="413" y="-66.5" font-family="Helvetica,sans-Serif" font-size="10.00">plftypes.h</text>
</a>
</g>
<!-- Node7&#45;&gt;Node12 -->
<g id="edge32" class="edge"><title>Node7&#45;&gt;Node12</title>
<path fill="none" stroke="midnightblue" d="M360.739,-116.362C369.941,-108.023 382.94,-96.2418 393.672,-86.5162"/>
<polygon fill="midnightblue" stroke="midnightblue" points="396.276,-88.8793 401.336,-79.5707 391.576,-83.6924 396.276,-88.8793"/>
</g>
<!-- Node8&#45;&gt;Node2 -->
<g id="edge24" class="edge"><title>Node8&#45;&gt;Node2</title>
<path fill="none" stroke="midnightblue" d="M256.49,-58.4966C228.123,-49.0411 186.249,-35.0829 155.228,-24.7428"/>
<polygon fill="midnightblue" stroke="midnightblue" points="156.163,-21.365 145.569,-21.5231 153.949,-28.0058 156.163,-21.365"/>
</g>
<!-- Node9 -->
<g id="node22" class="node"><title>Node9</title>
<a xlink:href="plfdefs_8h.html" target="_top" xlink:title="plfdefs.h">
<polygon fill="white" stroke="black" points="335,-0.5 335,-21.5 389,-21.5 389,-0.5 335,-0.5"/>
<text text-anchor="middle" x="362" y="-8.5" font-family="Helvetica,sans-Serif" font-size="10.00">plfdefs.h</text>
</a>
</g>
<!-- Node8&#45;&gt;Node9 -->
<g id="edge26" class="edge"><title>Node8&#45;&gt;Node9</title>
<path fill="none" stroke="midnightblue" d="M301.573,-58.3619C312.421,-49.859 327.834,-37.7785 340.379,-27.9466"/>
<polygon fill="midnightblue" stroke="midnightblue" points="342.802,-30.4942 348.513,-21.5707 338.484,-24.9848 342.802,-30.4942"/>
</g>
<!-- Node10 -->
<g id="node24" class="node"><title>Node10</title>
<polygon fill="white" stroke="#bfbfbf" points="258.5,-0.5 258.5,-21.5 317.5,-21.5 317.5,-0.5 258.5,-0.5"/>
<text text-anchor="middle" x="288" y="-8.5" font-family="Helvetica,sans-Serif" font-size="10.00">stdexcept</text>
</g>
<!-- Node8&#45;&gt;Node10 -->
<g id="edge28" class="edge"><title>Node8&#45;&gt;Node10</title>
<path fill="none" stroke="midnightblue" d="M288,-58.3619C288,-50.9219 288,-40.7427 288,-31.7276"/>
<polygon fill="midnightblue" stroke="midnightblue" points="291.5,-31.5706 288,-21.5707 284.5,-31.5707 291.5,-31.5706"/>
</g>
<!-- Node11 -->
<g id="node26" class="node"><title>Node11</title>
<polygon fill="white" stroke="#bfbfbf" points="206.5,-0.5 206.5,-21.5 241.5,-21.5 241.5,-0.5 206.5,-0.5"/>
<text text-anchor="middle" x="224" y="-8.5" font-family="Helvetica,sans-Serif" font-size="10.00">new</text>
</g>
<!-- Node8&#45;&gt;Node11 -->
<g id="edge30" class="edge"><title>Node8&#45;&gt;Node11</title>
<path fill="none" stroke="midnightblue" d="M276.261,-58.3619C267.059,-50.0226 254.06,-38.2418 243.328,-28.5162"/>
<polygon fill="midnightblue" stroke="midnightblue" points="245.424,-25.6924 235.664,-21.5707 240.724,-30.8793 245.424,-25.6924"/>
</g>
<!-- Node12&#45;&gt;Node9 -->
<g id="edge34" class="edge"><title>Node12&#45;&gt;Node9</title>
<path fill="none" stroke="midnightblue" d="M403.646,-58.3619C396.457,-50.1861 386.359,-38.7025 377.907,-29.0907"/>
<polygon fill="midnightblue" stroke="midnightblue" points="380.527,-26.7692 371.295,-21.5707 375.27,-31.3916 380.527,-26.7692"/>
</g>
<!-- Node13 -->
<g id="node31" class="node"><title>Node13</title>
<polygon fill="white" stroke="#bfbfbf" points="406.5,-0.5 406.5,-21.5 455.5,-21.5 455.5,-0.5 406.5,-0.5"/>
<text text-anchor="middle" x="431" y="-8.5" font-family="Helvetica,sans-Serif" font-size="10.00">stdint.h</text>
</g>
<!-- Node12&#45;&gt;Node13 -->
<g id="edge36" class="edge"><title>Node12&#45;&gt;Node13</title>
<path fill="none" stroke="midnightblue" d="M416.301,-58.3619C418.661,-50.7584 421.909,-40.294 424.751,-31.1349"/>
<polygon fill="midnightblue" stroke="midnightblue" points="428.098,-32.1587 427.719,-21.5707 421.413,-30.0839 428.098,-32.1587"/>
</g>
<!-- Node14&#45;&gt;Node8 -->
<g id="edge40" class="edge"><title>Node14&#45;&gt;Node8</title>
<path fill="none" stroke="midnightblue" d="M262.686,-116.362C266.837,-108.595 272.584,-97.8426 277.553,-88.5458"/>
<polygon fill="midnightblue" stroke="midnightblue" points="280.723,-90.0398 282.35,-79.5707 274.55,-86.7401 280.723,-90.0398"/>
</g>
<!-- Node15&#45;&gt;Node8 -->
<g id="edge44" class="edge"><title>Node15&#45;&gt;Node8</title>
<path fill="none" stroke="midnightblue" d="M190.55,-116.497C209.136,-107.438 236.202,-94.2462 257.095,-84.0628"/>
<polygon fill="midnightblue" stroke="midnightblue" points="258.753,-87.1487 266.208,-79.6212 255.686,-80.8563 258.753,-87.1487"/>
</g>
<!-- Node16 -->
<g id="node39" class="node"><title>Node16</title>
<polygon fill="white" stroke="#bfbfbf" points="141.5,-58.5 141.5,-79.5 192.5,-79.5 192.5,-58.5 141.5,-58.5"/>
<text text-anchor="middle" x="167" y="-66.5" font-family="Helvetica,sans-Serif" font-size="10.00">typeinfo</text>
</g>
<!-- Node15&#45;&gt;Node16 -->
<g id="edge46" class="edge"><title>Node15&#45;&gt;Node16</title>
<path fill="none" stroke="midnightblue" d="M168.633,-116.362C168.377,-108.922 168.026,-98.7427 167.715,-89.7276"/>
<polygon fill="midnightblue" stroke="midnightblue" points="171.207,-89.4441 167.365,-79.5707 164.211,-89.6854 171.207,-89.4441"/>
</g>
<!-- Node17&#45;&gt;Node2 -->
<g id="edge50" class="edge"><title>Node17&#45;&gt;Node2</title>
<path fill="none" stroke="midnightblue" d="M414.711,-116.272C399.311,-100.882 368.671,-72.769 337,-58 305.69,-43.3994 213.327,-26.8479 157.776,-17.8012"/>
<polygon fill="midnightblue" stroke="midnightblue" points="158.285,-14.3381 147.855,-16.2015 157.17,-21.2488 158.285,-14.3381"/>
</g>
<!-- Node17&#45;&gt;Node8 -->
<g id="edge54" class="edge"><title>Node17&#45;&gt;Node8</title>
<path fill="none" stroke="midnightblue" d="M400.19,-116.497C378.504,-107.315 346.789,-93.8889 322.608,-83.6516"/>
<polygon fill="midnightblue" stroke="midnightblue" points="323.661,-80.2968 313.088,-79.6212 320.932,-86.7429 323.661,-80.2968"/>
</g>
<!-- Node17&#45;&gt;Node12 -->
<g id="edge52" class="edge"><title>Node17&#45;&gt;Node12</title>
<path fill="none" stroke="midnightblue" d="M422.799,-116.362C421.243,-108.84 419.107,-98.5187 417.227,-89.4308"/>
<polygon fill="midnightblue" stroke="midnightblue" points="420.641,-88.6541 415.187,-79.5707 413.786,-90.0724 420.641,-88.6541"/>
</g>
<!-- Node18 -->
<g id="node46" class="node"><title>Node18</title>
<polygon fill="white" stroke="#bfbfbf" points="459.5,-58.5 459.5,-79.5 508.5,-79.5 508.5,-58.5 459.5,-58.5"/>
<text text-anchor="middle" x="484" y="-66.5" font-family="Helvetica,sans-Serif" font-size="10.00">ctype.h</text>
</g>
<!-- Node17&#45;&gt;Node18 -->
<g id="edge56" class="edge"><title>Node17&#45;&gt;Node18</title>
<path fill="none" stroke="midnightblue" d="M435.822,-116.362C444.221,-108.104 456.054,-96.4725 465.89,-86.8029"/>
<polygon fill="midnightblue" stroke="midnightblue" points="468.569,-89.077 473.247,-79.5707 463.662,-84.0851 468.569,-89.077"/>
</g>
<!-- Node19 -->
<g id="node48" class="node"><title>Node19</title>
<polygon fill="white" stroke="#bfbfbf" points="526,-58.5 526,-79.5 582,-79.5 582,-58.5 526,-58.5"/>
<text text-anchor="middle" x="554" y="-66.5" font-family="Helvetica,sans-Serif" font-size="10.00">wctype.h</text>
</g>
<!-- Node17&#45;&gt;Node19 -->
<g id="edge58" class="edge"><title>Node17&#45;&gt;Node19</title>
<path fill="none" stroke="midnightblue" d="M448.361,-116.497C468.691,-107.356 498.378,-94.0082 521.109,-83.7883"/>
<polygon fill="midnightblue" stroke="midnightblue" points="522.692,-86.9142 530.377,-79.6212 519.821,-80.5298 522.692,-86.9142"/>
</g>
</g>
</svg>
