<?xml version="1.0" encoding="UTF-8" standalone="no"?>
<!DOCTYPE svg PUBLIC "-//W3C//DTD SVG 1.1//EN"
 "http://www.w3.org/Graphics/SVG/1.1/DTD/svg11.dtd">
<!-- Generated by graphviz version 2.26.0 (20091210.2329)
 -->
<!-- Title: helpview.h Pages: 1 -->
<svg width="4326pt" height="262pt"
 viewBox="0.00 0.00 4326.00 262.00" xmlns="http://www.w3.org/2000/svg" xmlns:xlink="http://www.w3.org/1999/xlink">
<g id="graph1" class="graph" transform="scale(1 1) rotate(0) translate(4 258)">
<title>helpview.h</title>
<polygon fill="white" stroke="white" points="-4,5 -4,-258 4323,-258 4323,5 -4,5"/>
<!-- Node1 -->
<g id="node1" class="node"><title>Node1</title>
<polygon fill="#bfbfbf" stroke="black" points="3267.5,-232.5 3267.5,-253.5 3330.5,-253.5 3330.5,-232.5 3267.5,-232.5"/>
<text text-anchor="middle" x="3299" y="-240.5" font-family="Helvetica,sans-Serif" font-size="10.00">helpview.h</text>
</g>
<!-- Node2 -->
<g id="node3" class="node"><title>Node2</title>
<a xlink:href="uidialog_8h.html" target="_top" xlink:title="uidialog.h">
<polygon fill="white" stroke="red" points="2078,-174.5 2078,-195.5 2136,-195.5 2136,-174.5 2078,-174.5"/>
<text text-anchor="middle" x="2107" y="-182.5" font-family="Helvetica,sans-Serif" font-size="10.00">uidialog.h</text>
</a>
</g>
<!-- Node1&#45;&gt;Node2 -->
<g id="edge2" class="edge"><title>Node1&#45;&gt;Node2</title>
<path fill="none" stroke="midnightblue" d="M3257.35,-240.974C3068.62,-231.79 2295.87,-194.19 2136.02,-186.412"/>
<polygon fill="midnightblue" stroke="midnightblue" points="3257.27,-244.473 3267.42,-241.464 3257.61,-237.482 3257.27,-244.473"/>
</g>
<!-- Node35 -->
<g id="node71" class="node"><title>Node35</title>
<a xlink:href="uiflatviewstdcontrol_8h.html" target="_top" xlink:title="uiflatviewstdcontrol.h">
<polygon fill="white" stroke="red" points="4209.5,-116.5 4209.5,-137.5 4318.5,-137.5 4318.5,-116.5 4209.5,-116.5"/>
<text text-anchor="middle" x="4264" y="-124.5" font-family="Helvetica,sans-Serif" font-size="10.00">uiflatviewstdcontrol.h</text>
</a>
</g>
<!-- Node1&#45;&gt;Node35 -->
<g id="edge102" class="edge"><title>Node1&#45;&gt;Node35</title>
<path fill="none" stroke="midnightblue" d="M3275.91,-225.975C3258.49,-211.142 3239.96,-189.622 3255,-174 3291.48,-136.11 4148.7,-143.536 4201,-138 4203.76,-137.708 4206.58,-137.368 4209.43,-136.992"/>
<polygon fill="midnightblue" stroke="midnightblue" points="3273.74,-228.715 3283.71,-232.274 3278.13,-223.269 3273.74,-228.715"/>
</g>
<!-- Node48 -->
<g id="node98" class="node"><title>Node48</title>
<a xlink:href="uihelpview_8h.html" target="_top" xlink:title="uihelpview.h">
<polygon fill="white" stroke="black" points="3263.5,-174.5 3263.5,-195.5 3334.5,-195.5 3334.5,-174.5 3263.5,-174.5"/>
<text text-anchor="middle" x="3299" y="-182.5" font-family="Helvetica,sans-Serif" font-size="10.00">uihelpview.h</text>
</a>
</g>
<!-- Node1&#45;&gt;Node48 -->
<g id="edge100" class="edge"><title>Node1&#45;&gt;Node48</title>
<path fill="none" stroke="midnightblue" d="M3299,-222.191C3299,-213.168 3299,-202.994 3299,-195.571"/>
<polygon fill="midnightblue" stroke="midnightblue" points="3295.5,-222.362 3299,-232.362 3302.5,-222.362 3295.5,-222.362"/>
</g>
<!-- Node49 -->
<g id="node101" class="node"><title>Node49</title>
<a xlink:href="uiioobjsel_8h.html" target="_top" xlink:title="uiioobjsel.h">
<polygon fill="white" stroke="red" points="3351.5,-174.5 3351.5,-195.5 3416.5,-195.5 3416.5,-174.5 3351.5,-174.5"/>
<text text-anchor="middle" x="3384" y="-182.5" font-family="Helvetica,sans-Serif" font-size="10.00">uiioobjsel.h</text>
</a>
</g>
<!-- Node1&#45;&gt;Node49 -->
<g id="edge104" class="edge"><title>Node1&#45;&gt;Node49</title>
<path fill="none" stroke="midnightblue" d="M3323.12,-226.541C3337.69,-216.597 3355.84,-204.218 3368.51,-195.571"/>
<polygon fill="midnightblue" stroke="midnightblue" points="3320.88,-223.834 3314.59,-232.362 3324.82,-229.617 3320.88,-223.834"/>
</g>
<!-- Node50 -->
<g id="node103" class="node"><title>Node50</title>
<a xlink:href="uiattrdesced_8h.html" target="_top" xlink:title="uiattrdesced.h">
<polygon fill="white" stroke="red" points="3434,-174.5 3434,-195.5 3512,-195.5 3512,-174.5 3434,-174.5"/>
<text text-anchor="middle" x="3473" y="-182.5" font-family="Helvetica,sans-Serif" font-size="10.00">uiattrdesced.h</text>
</a>
</g>
<!-- Node1&#45;&gt;Node50 -->
<g id="edge106" class="edge"><title>Node1&#45;&gt;Node50</title>
<path fill="none" stroke="midnightblue" d="M3340.16,-229.279C3371.17,-218.944 3413.05,-204.985 3441.43,-195.523"/>
<polygon fill="midnightblue" stroke="midnightblue" points="3338.89,-226.014 3330.51,-232.497 3341.1,-232.655 3338.89,-226.014"/>
</g>
<!-- Node3 -->
<g id="node5" class="node"><title>Node3</title>
<a xlink:href="i__qdialog_8h.html" target="_top" xlink:title="i_qdialog.h">
<polygon fill="white" stroke="black" points="4129.5,-116.5 4129.5,-137.5 4192.5,-137.5 4192.5,-116.5 4129.5,-116.5"/>
<text text-anchor="middle" x="4161" y="-124.5" font-family="Helvetica,sans-Serif" font-size="10.00">i_qdialog.h</text>
</a>
</g>
<!-- Node2&#45;&gt;Node3 -->
<g id="edge4" class="edge"><title>Node2&#45;&gt;Node3</title>
<path fill="none" stroke="midnightblue" d="M2146.63,-184.659C2411.38,-182.303 3919.1,-167.658 4121,-138 4123.71,-137.602 4126.49,-137.08 4129.27,-136.48"/>
<polygon fill="midnightblue" stroke="midnightblue" points="2146.31,-181.162 2136.34,-184.75 2146.38,-188.161 2146.31,-181.162"/>
</g>
<!-- Node4 -->
<g id="node7" class="node"><title>Node4</title>
<a xlink:href="uiamplspectrum_8h.html" target="_top" xlink:title="uiamplspectrum.h">
<polygon fill="white" stroke="red" points="0,-116.5 0,-137.5 94,-137.5 94,-116.5 0,-116.5"/>
<text text-anchor="middle" x="47" y="-124.5" font-family="Helvetica,sans-Serif" font-size="10.00">uiamplspectrum.h</text>
</a>
</g>
<!-- Node2&#45;&gt;Node4 -->
<g id="edge6" class="edge"><title>Node2&#45;&gt;Node4</title>
<path fill="none" stroke="midnightblue" d="M2067.53,-184.907C1822.65,-184.201 508.299,-178.552 108,-138 103.503,-137.544 98.8403,-136.942 94.1864,-136.254"/>
<polygon fill="midnightblue" stroke="midnightblue" points="2067.73,-188.407 2077.74,-184.935 2067.75,-181.407 2067.73,-188.407"/>
</g>
<!-- Node5 -->
<g id="node9" class="node"><title>Node5</title>
<a xlink:href="uidlggroup_8h.html" target="_top" xlink:title="uidlggroup.h">
<polygon fill="white" stroke="red" points="187.5,-116.5 187.5,-137.5 256.5,-137.5 256.5,-116.5 187.5,-116.5"/>
<text text-anchor="middle" x="222" y="-124.5" font-family="Helvetica,sans-Serif" font-size="10.00">uidlggroup.h</text>
</a>
</g>
<!-- Node2&#45;&gt;Node5 -->
<g id="edge8" class="edge"><title>Node2&#45;&gt;Node5</title>
<path fill="none" stroke="midnightblue" d="M2067.77,-184.467C1817.96,-181.011 453.908,-161.189 270,-138 265.674,-137.455 261.167,-136.69 256.722,-135.815"/>
<polygon fill="midnightblue" stroke="midnightblue" points="2067.79,-187.968 2077.84,-184.606 2067.89,-180.968 2067.79,-187.968"/>
</g>
<!-- Node6 -->
<g id="node11" class="node"><title>Node6</title>
<a xlink:href="uisettings_8h.html" target="_top" xlink:title="uisettings.h">
<polygon fill="white" stroke="red" points="164.5,-58.5 164.5,-79.5 231.5,-79.5 231.5,-58.5 164.5,-58.5"/>
<text text-anchor="middle" x="198" y="-66.5" font-family="Helvetica,sans-Serif" font-size="10.00">uisettings.h</text>
</a>
</g>
<!-- Node2&#45;&gt;Node6 -->
<g id="edge28" class="edge"><title>Node2&#45;&gt;Node6</title>
<path fill="none" stroke="midnightblue" d="M2067.48,-184.795C1795.73,-183.292 213.201,-173.045 179,-138 163.466,-122.083 178.945,-94.6903 189.661,-79.6519"/>
<polygon fill="midnightblue" stroke="midnightblue" points="2067.65,-188.296 2077.67,-184.85 2067.69,-181.296 2067.65,-188.296"/>
</g>
<!-- Node7 -->
<g id="node13" class="node"><title>Node7</title>
<a xlink:href="uifontsel_8h.html" target="_top" xlink:title="uifontsel.h">
<polygon fill="white" stroke="black" points="126,-0.5 126,-21.5 188,-21.5 188,-0.5 126,-0.5"/>
<text text-anchor="middle" x="157" y="-8.5" font-family="Helvetica,sans-Serif" font-size="10.00">uifontsel.h</text>
</a>
</g>
<!-- Node2&#45;&gt;Node7 -->
<g id="edge26" class="edge"><title>Node2&#45;&gt;Node7</title>
<path fill="none" stroke="midnightblue" d="M2067.79,-184.713C1796.42,-182.65 207.067,-169.244 169,-138 134.42,-109.618 146.94,-46.9535 153.761,-21.7799"/>
<polygon fill="midnightblue" stroke="midnightblue" points="2067.93,-188.214 2077.95,-184.79 2067.98,-181.215 2067.93,-188.214"/>
</g>
<!-- Node8 -->
<g id="node15" class="node"><title>Node8</title>
<a xlink:href="uibatchlaunch_8h.html" target="_top" xlink:title="uibatchlaunch.h">
<polygon fill="white" stroke="black" points="223.5,-0.5 223.5,-21.5 308.5,-21.5 308.5,-0.5 223.5,-0.5"/>
<text text-anchor="middle" x="266" y="-8.5" font-family="Helvetica,sans-Serif" font-size="10.00">uibatchlaunch.h</text>
</a>
</g>
<!-- Node2&#45;&gt;Node8 -->
<g id="edge80" class="edge"><title>Node2&#45;&gt;Node8</title>
<path fill="none" stroke="midnightblue" d="M2067.7,-184.614C1807.25,-181.976 339.177,-165.885 303,-138 266.258,-109.68 264.463,-46.9796 265.34,-21.7882"/>
<polygon fill="midnightblue" stroke="midnightblue" points="2067.8,-188.115 2077.83,-184.716 2067.87,-181.115 2067.8,-188.115"/>
</g>
<!-- Node9 -->
<g id="node17" class="node"><title>Node9</title>
<a xlink:href="uiarray2dchg_8h.html" target="_top" xlink:title="uiarray2dchg.h">
<polygon fill="white" stroke="black" points="312,-116.5 312,-137.5 392,-137.5 392,-116.5 312,-116.5"/>
<text text-anchor="middle" x="352" y="-124.5" font-family="Helvetica,sans-Serif" font-size="10.00">uiarray2dchg.h</text>
</a>
</g>
<!-- Node2&#45;&gt;Node9 -->
<g id="edge16" class="edge"><title>Node2&#45;&gt;Node9</title>
<path fill="none" stroke="midnightblue" d="M2067.48,-184.949C1844.22,-184.501 738.727,-180.158 401,-138 398.058,-137.633 395.034,-137.169 392,-136.641"/>
<polygon fill="midnightblue" stroke="midnightblue" points="2067.73,-188.449 2077.74,-184.968 2067.74,-181.449 2067.73,-188.449"/>
</g>
<!-- Node10 -->
<g id="node19" class="node"><title>Node10</title>
<a xlink:href="uibatchprocdlg_8h.html" target="_top" xlink:title="uibatchprocdlg.h">
<polygon fill="white" stroke="red" points="410,-116.5 410,-137.5 498,-137.5 498,-116.5 410,-116.5"/>
<text text-anchor="middle" x="454" y="-124.5" font-family="Helvetica,sans-Serif" font-size="10.00">uibatchprocdlg.h</text>
</a>
</g>
<!-- Node2&#45;&gt;Node10 -->
<g id="edge18" class="edge"><title>Node2&#45;&gt;Node10</title>
<path fill="none" stroke="midnightblue" d="M2067.59,-184.779C1852.93,-183.436 822.86,-175.127 507,-138 504.107,-137.66 501.137,-137.241 498.152,-136.767"/>
<polygon fill="midnightblue" stroke="midnightblue" points="2067.73,-188.28 2077.75,-184.842 2067.77,-181.28 2067.73,-188.28"/>
</g>
<!-- Node11 -->
<g id="node21" class="node"><title>Node11</title>
<a xlink:href="uicoltabimport_8h.html" target="_top" xlink:title="uicoltabimport.h">
<polygon fill="white" stroke="black" points="516,-116.5 516,-137.5 602,-137.5 602,-116.5 516,-116.5"/>
<text text-anchor="middle" x="559" y="-124.5" font-family="Helvetica,sans-Serif" font-size="10.00">uicoltabimport.h</text>
</a>
</g>
<!-- Node2&#45;&gt;Node11 -->
<g id="edge20" class="edge"><title>Node2&#45;&gt;Node11</title>
<path fill="none" stroke="midnightblue" d="M2067.88,-184.709C1862.28,-183.037 905.147,-173.449 611,-138 608.068,-137.647 605.057,-137.21 602.032,-136.716"/>
<polygon fill="midnightblue" stroke="midnightblue" points="2067.88,-188.209 2077.91,-184.789 2067.94,-181.209 2067.88,-188.209"/>
</g>
<!-- Node12 -->
<g id="node23" class="node"><title>Node12</title>
<a xlink:href="uicoltabman_8h.html" target="_top" xlink:title="uicoltabman.h">
<polygon fill="white" stroke="black" points="619.5,-116.5 619.5,-137.5 696.5,-137.5 696.5,-116.5 619.5,-116.5"/>
<text text-anchor="middle" x="658" y="-124.5" font-family="Helvetica,sans-Serif" font-size="10.00">uicoltabman.h</text>
</a>
</g>
<!-- Node2&#45;&gt;Node12 -->
<g id="edge22" class="edge"><title>Node2&#45;&gt;Node12</title>
<path fill="none" stroke="midnightblue" d="M2067.52,-184.724C1869.04,-183.175 978.962,-174.293 705,-138 702.258,-137.637 699.443,-137.184 696.618,-136.672"/>
<polygon fill="midnightblue" stroke="midnightblue" points="2067.74,-188.225 2077.76,-184.802 2067.79,-181.226 2067.74,-188.225"/>
</g>
<!-- Node13 -->
<g id="node25" class="node"><title>Node13</title>
<a xlink:href="uicoltabmarker_8h.html" target="_top" xlink:title="uicoltabmarker.h">
<polygon fill="white" stroke="black" points="713.5,-116.5 713.5,-137.5 802.5,-137.5 802.5,-116.5 713.5,-116.5"/>
<text text-anchor="middle" x="758" y="-124.5" font-family="Helvetica,sans-Serif" font-size="10.00">uicoltabmarker.h</text>
</a>
</g>
<!-- Node2&#45;&gt;Node13 -->
<g id="edge24" class="edge"><title>Node2&#45;&gt;Node13</title>
<path fill="none" stroke="midnightblue" d="M2067.82,-184.469C1879.2,-181.778 1063.41,-168.55 811,-138 808.294,-137.673 805.522,-137.278 802.732,-136.836"/>
<polygon fill="midnightblue" stroke="midnightblue" points="2067.79,-187.969 2077.84,-184.611 2067.89,-180.97 2067.79,-187.969"/>
</g>
<!-- Node14 -->
<g id="node29" class="node"><title>Node14</title>
<a xlink:href="uigeninputdlg_8h.html" target="_top" xlink:title="uigeninputdlg.h">
<polygon fill="white" stroke="black" points="820,-116.5 820,-137.5 902,-137.5 902,-116.5 820,-116.5"/>
<text text-anchor="middle" x="861" y="-124.5" font-family="Helvetica,sans-Serif" font-size="10.00">uigeninputdlg.h</text>
</a>
</g>
<!-- Node2&#45;&gt;Node14 -->
<g id="edge30" class="edge"><title>Node2&#45;&gt;Node14</title>
<path fill="none" stroke="midnightblue" d="M2067.71,-184.393C1887.9,-181.471 1142.38,-167.759 911,-138 908.091,-137.626 905.101,-137.165 902.099,-136.647"/>
<polygon fill="midnightblue" stroke="midnightblue" points="2067.71,-187.893 2077.77,-184.555 2067.83,-180.894 2067.71,-187.893"/>
</g>
<!-- Node15 -->
<g id="node31" class="node"><title>Node15</title>
<a xlink:href="uisaveimagedlg_8h.html" target="_top" xlink:title="uisaveimagedlg.h">
<polygon fill="white" stroke="red" points="920,-116.5 920,-137.5 1012,-137.5 1012,-116.5 920,-116.5"/>
<text text-anchor="middle" x="966" y="-124.5" font-family="Helvetica,sans-Serif" font-size="10.00">uisaveimagedlg.h</text>
</a>
</g>
<!-- Node2&#45;&gt;Node15 -->
<g id="edge32" class="edge"><title>Node2&#45;&gt;Node15</title>
<path fill="none" stroke="midnightblue" d="M2067.3,-184.103C1897.26,-180.134 1229.64,-163.226 1021,-138 1018.1,-137.649 1015.12,-137.23 1012.13,-136.762"/>
<polygon fill="midnightblue" stroke="midnightblue" points="2067.46,-187.607 2077.54,-184.34 2067.63,-180.609 2067.46,-187.607"/>
</g>
<!-- Node16 -->
<g id="node33" class="node"><title>Node16</title>
<a xlink:href="uihandledlsitefail_8h.html" target="_top" xlink:title="uihandledlsitefail.h">
<polygon fill="white" stroke="black" points="1029.5,-116.5 1029.5,-137.5 1126.5,-137.5 1126.5,-116.5 1029.5,-116.5"/>
<text text-anchor="middle" x="1078" y="-124.5" font-family="Helvetica,sans-Serif" font-size="10.00">uihandledlsitefail.h</text>
</a>
</g>
<!-- Node2&#45;&gt;Node16 -->
<g id="edge34" class="edge"><title>Node2&#45;&gt;Node16</title>
<path fill="none" stroke="midnightblue" d="M2067.69,-183.848C1909.66,-179.098 1320.29,-160.244 1135,-138 1132.3,-137.676 1129.53,-137.297 1126.75,-136.88"/>
<polygon fill="midnightblue" stroke="midnightblue" points="2067.79,-187.352 2077.89,-184.152 2068,-180.355 2067.79,-187.352"/>
</g>
<!-- Node17 -->
<g id="node35" class="node"><title>Node17</title>
<a xlink:href="uiissuereporter_8h.html" target="_top" xlink:title="uiissuereporter.h">
<polygon fill="white" stroke="black" points="1143.5,-116.5 1143.5,-137.5 1232.5,-137.5 1232.5,-116.5 1143.5,-116.5"/>
<text text-anchor="middle" x="1188" y="-124.5" font-family="Helvetica,sans-Serif" font-size="10.00">uiissuereporter.h</text>
</a>
</g>
<!-- Node2&#45;&gt;Node17 -->
<g id="edge36" class="edge"><title>Node2&#45;&gt;Node17</title>
<path fill="none" stroke="midnightblue" d="M2067.26,-183.639C1919.81,-178.465 1404.14,-159.234 1241,-138 1238.3,-137.648 1235.53,-137.235 1232.74,-136.779"/>
<polygon fill="midnightblue" stroke="midnightblue" points="2067.51,-187.15 2077.63,-184.001 2067.76,-180.154 2067.51,-187.15"/>
</g>
<!-- Node18 -->
<g id="node37" class="node"><title>Node18</title>
<a xlink:href="uimapperrangeeditordlg_8h.html" target="_top" xlink:title="uimapperrangeeditordlg.h">
<polygon fill="white" stroke="black" points="1249.5,-116.5 1249.5,-137.5 1374.5,-137.5 1374.5,-116.5 1249.5,-116.5"/>
<text text-anchor="middle" x="1312" y="-124.5" font-family="Helvetica,sans-Serif" font-size="10.00">uimapperrangeeditordlg.h</text>
</a>
</g>
<!-- Node2&#45;&gt;Node18 -->
<g id="edge38" class="edge"><title>Node2&#45;&gt;Node18</title>
<path fill="none" stroke="midnightblue" d="M2067.77,-183.68C1958.83,-179.75 1643.52,-166.58 1383,-138 1380.27,-137.701 1377.49,-137.372 1374.68,-137.02"/>
<polygon fill="midnightblue" stroke="midnightblue" points="2067.83,-187.184 2077.95,-184.042 2068.08,-180.189 2067.83,-187.184"/>
</g>
<!-- Node19 -->
<g id="node39" class="node"><title>Node19</title>
<a xlink:href="uimeasuredlg_8h.html" target="_top" xlink:title="uimeasuredlg.h">
<polygon fill="white" stroke="black" points="1391.5,-116.5 1391.5,-137.5 1474.5,-137.5 1474.5,-116.5 1391.5,-116.5"/>
<text text-anchor="middle" x="1433" y="-124.5" font-family="Helvetica,sans-Serif" font-size="10.00">uimeasuredlg.h</text>
</a>
</g>
<!-- Node2&#45;&gt;Node19 -->
<g id="edge40" class="edge"><title>Node2&#45;&gt;Node19</title>
<path fill="none" stroke="midnightblue" d="M2067.81,-183.971C1969.12,-180.964 1702.6,-170.261 1483,-138 1480.27,-137.6 1477.47,-137.135 1474.66,-136.627"/>
<polygon fill="midnightblue" stroke="midnightblue" points="2067.82,-187.473 2077.91,-184.27 2068.02,-180.476 2067.82,-187.473"/>
</g>
<!-- Node20 -->
<g id="node41" class="node"><title>Node20</title>
<a xlink:href="uipluginman_8h.html" target="_top" xlink:title="uipluginman.h">
<polygon fill="white" stroke="black" points="1491.5,-116.5 1491.5,-137.5 1568.5,-137.5 1568.5,-116.5 1491.5,-116.5"/>
<text text-anchor="middle" x="1530" y="-124.5" font-family="Helvetica,sans-Serif" font-size="10.00">uipluginman.h</text>
</a>
</g>
<!-- Node2&#45;&gt;Node20 -->
<g id="edge42" class="edge"><title>Node2&#45;&gt;Node20</title>
<path fill="none" stroke="midnightblue" d="M2067.72,-183.419C1979.49,-179.454 1759.08,-167.23 1577,-138 1574.27,-137.562 1571.46,-137.054 1568.64,-136.501"/>
<polygon fill="midnightblue" stroke="midnightblue" points="2067.66,-186.92 2077.81,-183.862 2067.97,-179.927 2067.66,-186.92"/>
</g>
<!-- Node21 -->
<g id="node43" class="node"><title>Node21</title>
<a xlink:href="uipluginsel_8h.html" target="_top" xlink:title="uipluginsel.h">
<polygon fill="white" stroke="black" points="1585.5,-116.5 1585.5,-137.5 1656.5,-137.5 1656.5,-116.5 1585.5,-116.5"/>
<text text-anchor="middle" x="1621" y="-124.5" font-family="Helvetica,sans-Serif" font-size="10.00">uipluginsel.h</text>
</a>
</g>
<!-- Node2&#45;&gt;Node21 -->
<g id="edge44" class="edge"><title>Node2&#45;&gt;Node21</title>
<path fill="none" stroke="midnightblue" d="M2067.58,-182.654C1990.01,-177.633 1812.32,-164.117 1665,-138 1662.36,-137.533 1659.65,-136.995 1656.93,-136.415"/>
<polygon fill="midnightblue" stroke="midnightblue" points="2067.64,-186.165 2077.84,-183.307 2068.09,-179.179 2067.64,-186.165"/>
</g>
<!-- Node22 -->
<g id="node45" class="node"><title>Node22</title>
<a xlink:href="uiproxydlg_8h.html" target="_top" xlink:title="uiproxydlg.h">
<polygon fill="white" stroke="black" points="1673.5,-116.5 1673.5,-137.5 1742.5,-137.5 1742.5,-116.5 1673.5,-116.5"/>
<text text-anchor="middle" x="1708" y="-124.5" font-family="Helvetica,sans-Serif" font-size="10.00">uiproxydlg.h</text>
</a>
</g>
<!-- Node2&#45;&gt;Node22 -->
<g id="edge46" class="edge"><title>Node2&#45;&gt;Node22</title>
<path fill="none" stroke="midnightblue" d="M2067.39,-181.328C2001.39,-174.862 1864.93,-160.013 1751,-138 1748.28,-137.474 1745.47,-136.878 1742.65,-136.243"/>
<polygon fill="midnightblue" stroke="midnightblue" points="2067.45,-184.85 2077.74,-182.329 2068.12,-177.882 2067.45,-184.85"/>
</g>
<!-- Node23 -->
<g id="node47" class="node"><title>Node23</title>
<a xlink:href="uiselsimple_8h.html" target="_top" xlink:title="uiselsimple.h">
<polygon fill="white" stroke="red" points="1760,-116.5 1760,-137.5 1834,-137.5 1834,-116.5 1760,-116.5"/>
<text text-anchor="middle" x="1797" y="-124.5" font-family="Helvetica,sans-Serif" font-size="10.00">uiselsimple.h</text>
</a>
</g>
<!-- Node2&#45;&gt;Node23 -->
<g id="edge48" class="edge"><title>Node2&#45;&gt;Node23</title>
<path fill="none" stroke="midnightblue" d="M2067.93,-178.779C2016.28,-170.387 1922.52,-154.571 1843,-138 1840.11,-137.397 1837.12,-136.746 1834.12,-136.072"/>
<polygon fill="midnightblue" stroke="midnightblue" points="2067.55,-182.264 2077.99,-180.405 2068.67,-175.353 2067.55,-182.264"/>
</g>
<!-- Node24 -->
<g id="node49" class="node"><title>Node24</title>
<a xlink:href="uishortcuts_8h.html" target="_top" xlink:title="uishortcuts.h">
<polygon fill="white" stroke="black" points="1851.5,-116.5 1851.5,-137.5 1924.5,-137.5 1924.5,-116.5 1851.5,-116.5"/>
<text text-anchor="middle" x="1888" y="-124.5" font-family="Helvetica,sans-Serif" font-size="10.00">uishortcuts.h</text>
</a>
</g>
<!-- Node2&#45;&gt;Node24 -->
<g id="edge50" class="edge"><title>Node2&#45;&gt;Node24</title>
<path fill="none" stroke="midnightblue" d="M2068.1,-174.699C2027.47,-163.937 1964.22,-147.187 1924.51,-136.668"/>
<polygon fill="midnightblue" stroke="midnightblue" points="2067.36,-178.121 2077.92,-177.298 2069.15,-171.354 2067.36,-178.121"/>
</g>
<!-- Node25 -->
<g id="node51" class="node"><title>Node25</title>
<a xlink:href="uislicesel_8h.html" target="_top" xlink:title="uislicesel.h">
<polygon fill="white" stroke="red" points="1941.5,-116.5 1941.5,-137.5 2006.5,-137.5 2006.5,-116.5 1941.5,-116.5"/>
<text text-anchor="middle" x="1974" y="-124.5" font-family="Helvetica,sans-Serif" font-size="10.00">uislicesel.h</text>
</a>
</g>
<!-- Node2&#45;&gt;Node25 -->
<g id="edge52" class="edge"><title>Node2&#45;&gt;Node25</title>
<path fill="none" stroke="midnightblue" d="M2073.7,-170.479C2050.29,-160.269 2019.49,-146.839 1998.36,-137.621"/>
<polygon fill="midnightblue" stroke="midnightblue" points="2072.35,-173.707 2082.91,-174.497 2075.15,-167.291 2072.35,-173.707"/>
</g>
<!-- Node26 -->
<g id="node53" class="node"><title>Node26</title>
<a xlink:href="uitaskrunner_8h.html" target="_top" xlink:title="uitaskrunner.h">
<polygon fill="white" stroke="black" points="2024,-116.5 2024,-137.5 2102,-137.5 2102,-116.5 2024,-116.5"/>
<text text-anchor="middle" x="2063" y="-124.5" font-family="Helvetica,sans-Serif" font-size="10.00">uitaskrunner.h</text>
</a>
</g>
<!-- Node2&#45;&gt;Node26 -->
<g id="edge54" class="edge"><title>Node2&#45;&gt;Node26</title>
<path fill="none" stroke="midnightblue" d="M2092.78,-166.25C2085.57,-156.75 2077.08,-145.565 2071.02,-137.571"/>
<polygon fill="midnightblue" stroke="midnightblue" points="2090.1,-168.51 2098.93,-174.362 2095.67,-164.28 2090.1,-168.51"/>
</g>
<!-- Node27 -->
<g id="node55" class="node"><title>Node27</title>
<a xlink:href="uitextfile_8h.html" target="_top" xlink:title="uitextfile.h">
<polygon fill="white" stroke="black" points="2120,-116.5 2120,-137.5 2182,-137.5 2182,-116.5 2120,-116.5"/>
<text text-anchor="middle" x="2151" y="-124.5" font-family="Helvetica,sans-Serif" font-size="10.00">uitextfile.h</text>
</a>
</g>
<!-- Node2&#45;&gt;Node27 -->
<g id="edge56" class="edge"><title>Node2&#45;&gt;Node27</title>
<path fill="none" stroke="midnightblue" d="M2121.22,-166.25C2128.43,-156.75 2136.92,-145.565 2142.98,-137.571"/>
<polygon fill="midnightblue" stroke="midnightblue" points="2118.33,-164.28 2115.07,-174.362 2123.9,-168.51 2118.33,-164.28"/>
</g>
<!-- Node28 -->
<g id="node57" class="node"><title>Node28</title>
<a xlink:href="uivariogram_8h.html" target="_top" xlink:title="uivariogram.h">
<polygon fill="white" stroke="black" points="2199.5,-116.5 2199.5,-137.5 2274.5,-137.5 2274.5,-116.5 2199.5,-116.5"/>
<text text-anchor="middle" x="2237" y="-124.5" font-family="Helvetica,sans-Serif" font-size="10.00">uivariogram.h</text>
</a>
</g>
<!-- Node2&#45;&gt;Node28 -->
<g id="edge58" class="edge"><title>Node2&#45;&gt;Node28</title>
<path fill="none" stroke="midnightblue" d="M2139.85,-170.343C2162.7,-160.15 2192.63,-146.798 2213.19,-137.621"/>
<polygon fill="midnightblue" stroke="midnightblue" points="2138.25,-167.226 2130.54,-174.497 2141.1,-173.618 2138.25,-167.226"/>
</g>
<!-- Node29 -->
<g id="node59" class="node"><title>Node29</title>
<a xlink:href="uivarwizarddlg_8h.html" target="_top" xlink:title="uivarwizarddlg.h">
<polygon fill="white" stroke="red" points="2291.5,-116.5 2291.5,-137.5 2378.5,-137.5 2378.5,-116.5 2291.5,-116.5"/>
<text text-anchor="middle" x="2335" y="-124.5" font-family="Helvetica,sans-Serif" font-size="10.00">uivarwizarddlg.h</text>
</a>
</g>
<!-- Node2&#45;&gt;Node29 -->
<g id="edge60" class="edge"><title>Node2&#45;&gt;Node29</title>
<path fill="none" stroke="midnightblue" d="M2146.25,-175.015C2187.31,-164.57 2251.5,-148.242 2293.41,-137.58"/>
<polygon fill="midnightblue" stroke="midnightblue" points="2145.17,-171.679 2136.34,-177.536 2146.89,-178.463 2145.17,-171.679"/>
</g>
<!-- Node30 -->
<g id="node61" class="node"><title>Node30</title>
<a xlink:href="uiwindowfuncseldlg_8h.html" target="_top" xlink:title="uiwindowfuncseldlg.h">
<polygon fill="white" stroke="black" points="2396,-116.5 2396,-137.5 2506,-137.5 2506,-116.5 2396,-116.5"/>
<text text-anchor="middle" x="2451" y="-124.5" font-family="Helvetica,sans-Serif" font-size="10.00">uiwindowfuncseldlg.h</text>
</a>
</g>
<!-- Node2&#45;&gt;Node30 -->
<g id="edge62" class="edge"><title>Node2&#45;&gt;Node30</title>
<path fill="none" stroke="midnightblue" d="M2146.22,-178.466C2200.38,-169.432 2301.12,-152.587 2387,-138 2389.89,-137.509 2392.85,-137.004 2395.84,-136.494"/>
<polygon fill="midnightblue" stroke="midnightblue" points="2145.32,-175.069 2136.03,-180.166 2146.47,-181.973 2145.32,-175.069"/>
</g>
<!-- Node31 -->
<g id="node63" class="node"><title>Node31</title>
<a xlink:href="uiwindowgrabber_8h.html" target="_top" xlink:title="uiwindowgrabber.h">
<polygon fill="white" stroke="black" points="2524,-116.5 2524,-137.5 2622,-137.5 2622,-116.5 2524,-116.5"/>
<text text-anchor="middle" x="2573" y="-124.5" font-family="Helvetica,sans-Serif" font-size="10.00">uiwindowgrabber.h</text>
</a>
</g>
<!-- Node2&#45;&gt;Node31 -->
<g id="edge64" class="edge"><title>Node2&#45;&gt;Node31</title>
<path fill="none" stroke="midnightblue" d="M2146.12,-181.449C2218.94,-174.627 2380.12,-158.531 2515,-138 2517.94,-137.553 2520.96,-137.066 2524,-136.553"/>
<polygon fill="midnightblue" stroke="midnightblue" points="2145.67,-177.976 2136.04,-182.387 2146.32,-184.946 2145.67,-177.976"/>
</g>
<!-- Node32 -->
<g id="node65" class="node"><title>Node32</title>
<a xlink:href="uiwizard_8h.html" target="_top" xlink:title="uiwizard.h">
<polygon fill="white" stroke="red" points="2639.5,-116.5 2639.5,-137.5 2700.5,-137.5 2700.5,-116.5 2639.5,-116.5"/>
<text text-anchor="middle" x="2670" y="-124.5" font-family="Helvetica,sans-Serif" font-size="10.00">uiwizard.h</text>
</a>
</g>
<!-- Node2&#45;&gt;Node32 -->
<g id="edge66" class="edge"><title>Node2&#45;&gt;Node32</title>
<path fill="none" stroke="midnightblue" d="M2146.26,-183.962C2233.9,-181.105 2451.89,-170.996 2631,-138 2633.77,-137.49 2636.62,-136.871 2639.47,-136.189"/>
<polygon fill="midnightblue" stroke="midnightblue" points="2146.11,-180.465 2136.23,-184.276 2146.33,-187.462 2146.11,-180.465"/>
</g>
<!-- Node33 -->
<g id="node67" class="node"><title>Node33</title>
<a xlink:href="command_8h.html" target="_top" xlink:title="command.h">
<polygon fill="white" stroke="red" points="2718,-116.5 2718,-137.5 2786,-137.5 2786,-116.5 2718,-116.5"/>
<text text-anchor="middle" x="2752" y="-124.5" font-family="Helvetica,sans-Serif" font-size="10.00">command.h</text>
</a>
</g>
<!-- Node2&#45;&gt;Node33 -->
<g id="edge68" class="edge"><title>Node2&#45;&gt;Node33</title>
<path fill="none" stroke="midnightblue" d="M2146.19,-184.276C2242.58,-181.989 2498.66,-172.846 2709,-138 2711.89,-137.521 2714.87,-136.943 2717.85,-136.304"/>
<polygon fill="midnightblue" stroke="midnightblue" points="2145.95,-180.78 2136.04,-184.505 2146.11,-187.778 2145.95,-180.78"/>
</g>
<!-- Node34 -->
<g id="node69" class="node"><title>Node34</title>
<a xlink:href="uicmddriverdlg_8h.html" target="_top" xlink:title="uicmddriverdlg.h">
<polygon fill="white" stroke="black" points="2804,-116.5 2804,-137.5 2892,-137.5 2892,-116.5 2804,-116.5"/>
<text text-anchor="middle" x="2848" y="-124.5" font-family="Helvetica,sans-Serif" font-size="10.00">uicmddriverdlg.h</text>
</a>
</g>
<!-- Node2&#45;&gt;Node34 -->
<g id="edge70" class="edge"><title>Node2&#45;&gt;Node34</title>
<path fill="none" stroke="midnightblue" d="M2146.51,-184.185C2252.18,-181.599 2549.89,-171.648 2795,-138 2797.89,-137.604 2800.85,-137.142 2803.83,-136.637"/>
<polygon fill="midnightblue" stroke="midnightblue" points="2146.23,-180.691 2136.32,-184.426 2146.4,-187.689 2146.23,-180.691"/>
</g>
<!-- Node2&#45;&gt;Node35 -->
<g id="edge72" class="edge"><title>Node2&#45;&gt;Node35</title>
<path fill="none" stroke="midnightblue" d="M2146.48,-184.472C2416.73,-180.81 3989.4,-158.729 4201,-138 4203.76,-137.729 4206.59,-137.407 4209.43,-137.045"/>
<polygon fill="midnightblue" stroke="midnightblue" points="2146.3,-180.974 2136.35,-184.609 2146.39,-187.973 2146.3,-180.974"/>
</g>
<!-- Node36 -->
<g id="node73" class="node"><title>Node36</title>
<a xlink:href="uiobjfileman_8h.html" target="_top" xlink:title="uiobjfileman.h">
<polygon fill="white" stroke="red" points="2909.5,-116.5 2909.5,-137.5 2986.5,-137.5 2986.5,-116.5 2909.5,-116.5"/>
<text text-anchor="middle" x="2948" y="-124.5" font-family="Helvetica,sans-Serif" font-size="10.00">uiobjfileman.h</text>
</a>
</g>
<!-- Node2&#45;&gt;Node36 -->
<g id="edge74" class="edge"><title>Node2&#45;&gt;Node36</title>
<path fill="none" stroke="midnightblue" d="M2146.16,-183.569C2284.91,-178.361 2752.67,-159.586 2901,-138 2903.74,-137.602 2906.55,-137.123 2909.37,-136.592"/>
<polygon fill="midnightblue" stroke="midnightblue" points="2145.86,-180.078 2136,-183.948 2146.13,-187.073 2145.86,-180.078"/>
</g>
<!-- Node37 -->
<g id="node75" class="node"><title>Node37</title>
<a xlink:href="uisip_8h.html" target="_top" xlink:title="uisip.h">
<polygon fill="white" stroke="red" points="3003.5,-116.5 3003.5,-137.5 3048.5,-137.5 3048.5,-116.5 3003.5,-116.5"/>
<text text-anchor="middle" x="3026" y="-124.5" font-family="Helvetica,sans-Serif" font-size="10.00">uisip.h</text>
</a>
</g>
<!-- Node2&#45;&gt;Node37 -->
<g id="edge76" class="edge"><title>Node2&#45;&gt;Node37</title>
<path fill="none" stroke="midnightblue" d="M2146.41,-184.419C2296.06,-181.98 2829.04,-171.112 2995,-138 2997.69,-137.464 3000.46,-136.742 3003.18,-135.923"/>
<polygon fill="midnightblue" stroke="midnightblue" points="2146.25,-180.921 2136.31,-184.58 2146.36,-187.92 2146.25,-180.921"/>
</g>
<!-- Node38 -->
<g id="node77" class="node"><title>Node38</title>
<a xlink:href="uibatchhostsdlg_8h.html" target="_top" xlink:title="uibatchhostsdlg.h">
<polygon fill="white" stroke="black" points="3065.5,-116.5 3065.5,-137.5 3158.5,-137.5 3158.5,-116.5 3065.5,-116.5"/>
<text text-anchor="middle" x="3112" y="-124.5" font-family="Helvetica,sans-Serif" font-size="10.00">uibatchhostsdlg.h</text>
</a>
</g>
<!-- Node2&#45;&gt;Node38 -->
<g id="edge78" class="edge"><title>Node2&#45;&gt;Node38</title>
<path fill="none" stroke="midnightblue" d="M2146.45,-183.828C2302.44,-179.073 2876.38,-160.405 3057,-138 3059.71,-137.664 3062.48,-137.271 3065.27,-136.835"/>
<polygon fill="midnightblue" stroke="midnightblue" points="2146.26,-180.332 2136.37,-184.134 2146.47,-187.329 2146.26,-180.332"/>
</g>
<!-- Node39 -->
<g id="node80" class="node"><title>Node39</title>
<a xlink:href="uibatchprogs_8h.html" target="_top" xlink:title="uibatchprogs.h">
<polygon fill="white" stroke="black" points="3176,-116.5 3176,-137.5 3256,-137.5 3256,-116.5 3176,-116.5"/>
<text text-anchor="middle" x="3216" y="-124.5" font-family="Helvetica,sans-Serif" font-size="10.00">uibatchprogs.h</text>
</a>
</g>
<!-- Node2&#45;&gt;Node39 -->
<g id="edge82" class="edge"><title>Node2&#45;&gt;Node39</title>
<path fill="none" stroke="midnightblue" d="M2146.57,-184.181C2313.88,-180.575 2963.99,-165.072 3167,-138 3169.94,-137.608 3172.96,-137.126 3175.99,-136.585"/>
<polygon fill="midnightblue" stroke="midnightblue" points="2146.18,-180.689 2136.25,-184.402 2146.33,-187.687 2146.18,-180.689"/>
</g>
<!-- Node40 -->
<g id="node82" class="node"><title>Node40</title>
<a xlink:href="uiclusterjobprov_8h.html" target="_top" xlink:title="uiclusterjobprov.h">
<polygon fill="white" stroke="black" points="3273.5,-116.5 3273.5,-137.5 3366.5,-137.5 3366.5,-116.5 3273.5,-116.5"/>
<text text-anchor="middle" x="3320" y="-124.5" font-family="Helvetica,sans-Serif" font-size="10.00">uiclusterjobprov.h</text>
</a>
</g>
<!-- Node2&#45;&gt;Node40 -->
<g id="edge84" class="edge"><title>Node2&#45;&gt;Node40</title>
<path fill="none" stroke="midnightblue" d="M2146.16,-184.237C2322.16,-180.679 3041.19,-164.755 3265,-138 3267.71,-137.676 3270.48,-137.292 3273.27,-136.864"/>
<polygon fill="midnightblue" stroke="midnightblue" points="2145.99,-180.739 2136.06,-184.439 2146.13,-187.738 2145.99,-180.739"/>
</g>
<!-- Node41 -->
<g id="node84" class="node"><title>Node41</title>
<a xlink:href="uiconvpos_8h.html" target="_top" xlink:title="uiconvpos.h">
<polygon fill="white" stroke="black" points="3383.5,-116.5 3383.5,-137.5 3452.5,-137.5 3452.5,-116.5 3383.5,-116.5"/>
<text text-anchor="middle" x="3418" y="-124.5" font-family="Helvetica,sans-Serif" font-size="10.00">uiconvpos.h</text>
</a>
</g>
<!-- Node2&#45;&gt;Node41 -->
<g id="edge86" class="edge"><title>Node2&#45;&gt;Node41</title>
<path fill="none" stroke="midnightblue" d="M2146.25,-184.673C2332.59,-182.946 3129.19,-173.58 3375,-138 3377.75,-137.603 3380.57,-137.099 3383.39,-136.528"/>
<polygon fill="midnightblue" stroke="midnightblue" points="2146.06,-181.174 2136.09,-184.765 2146.12,-188.174 2146.06,-181.174"/>
</g>
<!-- Node42 -->
<g id="node86" class="node"><title>Node42</title>
<a xlink:href="uicrdevenv_8h.html" target="_top" xlink:title="uicrdevenv.h">
<polygon fill="white" stroke="black" points="3470,-116.5 3470,-137.5 3542,-137.5 3542,-116.5 3470,-116.5"/>
<text text-anchor="middle" x="3506" y="-124.5" font-family="Helvetica,sans-Serif" font-size="10.00">uicrdevenv.h</text>
</a>
</g>
<!-- Node2&#45;&gt;Node42 -->
<g id="edge88" class="edge"><title>Node2&#45;&gt;Node42</title>
<path fill="none" stroke="midnightblue" d="M2146.08,-184.725C2339.65,-183.196 3197.03,-174.451 3461,-138 3463.87,-137.604 3466.82,-137.102 3469.77,-136.531"/>
<polygon fill="midnightblue" stroke="midnightblue" points="2146.05,-181.225 2136.07,-184.802 2146.1,-188.225 2146.05,-181.225"/>
</g>
<!-- Node43 -->
<g id="node88" class="node"><title>Node43</title>
<a xlink:href="uicreatedpspdf_8h.html" target="_top" xlink:title="uicreatedpspdf.h">
<polygon fill="white" stroke="black" points="3559.5,-116.5 3559.5,-137.5 3648.5,-137.5 3648.5,-116.5 3559.5,-116.5"/>
<text text-anchor="middle" x="3604" y="-124.5" font-family="Helvetica,sans-Serif" font-size="10.00">uicreatedpspdf.h</text>
</a>
</g>
<!-- Node2&#45;&gt;Node43 -->
<g id="edge90" class="edge"><title>Node2&#45;&gt;Node43</title>
<path fill="none" stroke="midnightblue" d="M2146.36,-184.635C2348.1,-182.627 3267.77,-171.746 3551,-138 3553.71,-137.678 3556.48,-137.287 3559.27,-136.848"/>
<polygon fill="midnightblue" stroke="midnightblue" points="2146.19,-181.137 2136.22,-184.735 2146.26,-188.136 2146.19,-181.137"/>
</g>
<!-- Node44 -->
<g id="node90" class="node"><title>Node44</title>
<a xlink:href="uicreatepicks_8h.html" target="_top" xlink:title="uicreatepicks.h">
<polygon fill="white" stroke="black" points="3665.5,-116.5 3665.5,-137.5 3748.5,-137.5 3748.5,-116.5 3665.5,-116.5"/>
<text text-anchor="middle" x="3707" y="-124.5" font-family="Helvetica,sans-Serif" font-size="10.00">uicreatepicks.h</text>
</a>
</g>
<!-- Node2&#45;&gt;Node44 -->
<g id="edge92" class="edge"><title>Node2&#45;&gt;Node44</title>
<path fill="none" stroke="midnightblue" d="M2146.51,-184.799C2357.38,-183.574 3351.88,-175.853 3657,-138 3659.73,-137.661 3662.54,-137.242 3665.36,-136.769"/>
<polygon fill="midnightblue" stroke="midnightblue" points="2146.21,-181.3 2136.23,-184.857 2146.25,-188.3 2146.21,-181.3"/>
</g>
<!-- Node45 -->
<g id="node92" class="node"><title>Node45</title>
<a xlink:href="uidatapointset_8h.html" target="_top" xlink:title="uidatapointset.h">
<polygon fill="white" stroke="red" points="3766,-116.5 3766,-137.5 3852,-137.5 3852,-116.5 3766,-116.5"/>
<text text-anchor="middle" x="3809" y="-124.5" font-family="Helvetica,sans-Serif" font-size="10.00">uidatapointset.h</text>
</a>
</g>
<!-- Node2&#45;&gt;Node45 -->
<g id="edge94" class="edge"><title>Node2&#45;&gt;Node45</title>
<path fill="none" stroke="midnightblue" d="M2146.26,-184.841C2364.54,-183.812 3430.65,-176.845 3757,-138 3759.93,-137.651 3762.94,-137.217 3765.97,-136.726"/>
<polygon fill="midnightblue" stroke="midnightblue" points="2146.21,-181.341 2136.22,-184.887 2146.24,-188.341 2146.21,-181.341"/>
</g>
<!-- Node46 -->
<g id="node94" class="node"><title>Node46</title>
<a xlink:href="uidatapointsetmerger_8h.html" target="_top" xlink:title="uidatapointsetmerger.h">
<polygon fill="white" stroke="black" points="3870,-116.5 3870,-137.5 3986,-137.5 3986,-116.5 3870,-116.5"/>
<text text-anchor="middle" x="3928" y="-124.5" font-family="Helvetica,sans-Serif" font-size="10.00">uidatapointsetmerger.h</text>
</a>
</g>
<!-- Node2&#45;&gt;Node46 -->
<g id="edge96" class="edge"><title>Node2&#45;&gt;Node46</title>
<path fill="none" stroke="midnightblue" d="M2146.16,-184.675C2372.17,-182.693 3511.92,-171.178 3861,-138 3863.93,-137.721 3866.93,-137.392 3869.96,-137.025"/>
<polygon fill="midnightblue" stroke="midnightblue" points="2146.06,-181.176 2136.09,-184.763 2146.12,-188.176 2146.06,-181.176"/>
</g>
<!-- Node47 -->
<g id="node96" class="node"><title>Node47</title>
<a xlink:href="uidpsaddcolumndlg_8h.html" target="_top" xlink:title="uidpsaddcolumndlg.h">
<polygon fill="white" stroke="red" points="4004,-116.5 4004,-137.5 4112,-137.5 4112,-116.5 4004,-116.5"/>
<text text-anchor="middle" x="4058" y="-124.5" font-family="Helvetica,sans-Serif" font-size="10.00">uidpsaddcolumndlg.h</text>
</a>
</g>
<!-- Node2&#45;&gt;Node47 -->
<g id="edge98" class="edge"><title>Node2&#45;&gt;Node47</title>
<path fill="none" stroke="midnightblue" d="M2146.49,-184.814C2383.36,-183.575 3618.03,-175.395 3995,-138 3997.87,-137.715 4000.81,-137.374 4003.77,-136.993"/>
<polygon fill="midnightblue" stroke="midnightblue" points="2146.27,-181.315 2136.28,-184.866 2146.3,-188.315 2146.27,-181.315"/>
</g>
<!-- Node5&#45;&gt;Node6 -->
<g id="edge10" class="edge"><title>Node5&#45;&gt;Node6</title>
<path fill="none" stroke="midnightblue" d="M213.757,-107.079C209.935,-97.8422 205.547,-87.2388 202.374,-79.5707"/>
<polygon fill="midnightblue" stroke="midnightblue" points="210.54,-108.46 217.598,-116.362 217.009,-105.783 210.54,-108.46"/>
</g>
<!-- Node6&#45;&gt;Node7 -->
<g id="edge12" class="edge"><title>Node6&#45;&gt;Node7</title>
<path fill="none" stroke="midnightblue" d="M184.54,-49.9591C177.869,-40.522 170.066,-29.4835 164.472,-21.5707"/>
<polygon fill="midnightblue" stroke="midnightblue" points="181.85,-52.2165 190.48,-58.3619 187.566,-48.1758 181.85,-52.2165"/>
</g>
<!-- Node6&#45;&gt;Node8 -->
<g id="edge14" class="edge"><title>Node6&#45;&gt;Node8</title>
<path fill="none" stroke="midnightblue" d="M218.294,-51.6908C229.773,-41.8996 243.756,-29.973 253.607,-21.5707"/>
<polygon fill="midnightblue" stroke="midnightblue" points="215.809,-49.2095 210.472,-58.3619 220.352,-54.5353 215.809,-49.2095"/>
</g>
</g>
</svg>
