<?xml version="1.0" encoding="UTF-8" standalone="no"?>
<!DOCTYPE svg PUBLIC "-//W3C//DTD SVG 1.1//EN"
 "http://www.w3.org/Graphics/SVG/1.1/DTD/svg11.dtd">
<!-- Generated by graphviz version 2.26.0 (20091210.2329)
 -->
<!-- Title: horizonrelation.h Pages: 1 -->
<svg width="705pt" height="610pt"
 viewBox="0.00 0.00 705.00 610.00" xmlns="http://www.w3.org/2000/svg" xmlns:xlink="http://www.w3.org/1999/xlink">
<g id="graph1" class="graph" transform="scale(1 1) rotate(0) translate(4 606)">
<title>horizonrelation.h</title>
<polygon fill="white" stroke="white" points="-4,5 -4,-606 702,-606 702,5 -4,5"/>
<!-- Node1 -->
<g id="node1" class="node"><title>Node1</title>
<polygon fill="#bfbfbf" stroke="black" points="244,-580.5 244,-601.5 332,-601.5 332,-580.5 244,-580.5"/>
<text text-anchor="middle" x="288" y="-588.5" font-family="Helvetica,sans-Serif" font-size="10.00">horizonrelation.h</text>
</g>
<!-- Node2 -->
<g id="node3" class="node"><title>Node2</title>
<polygon fill="white" stroke="#bfbfbf" points="168,-522.5 168,-543.5 260,-543.5 260,-522.5 168,-522.5"/>
<text text-anchor="middle" x="214" y="-530.5" font-family="Helvetica,sans-Serif" font-size="10.00">earthmodelmod.h</text>
</g>
<!-- Node1&#45;&gt;Node2 -->
<g id="edge2" class="edge"><title>Node1&#45;&gt;Node2</title>
<path fill="none" stroke="midnightblue" d="M274.427,-580.362C263.579,-571.859 248.166,-559.779 235.621,-549.947"/>
<polygon fill="midnightblue" stroke="midnightblue" points="237.516,-546.985 227.487,-543.571 233.198,-552.494 237.516,-546.985"/>
</g>
<!-- Node3 -->
<g id="node5" class="node"><title>Node3</title>
<a xlink:href="multiid_8h.html" target="_top" xlink:title="multiid.h">
<polygon fill="white" stroke="black" points="158.5,-464.5 158.5,-485.5 211.5,-485.5 211.5,-464.5 158.5,-464.5"/>
<text text-anchor="middle" x="185" y="-472.5" font-family="Helvetica,sans-Serif" font-size="10.00">multiid.h</text>
</a>
</g>
<!-- Node1&#45;&gt;Node3 -->
<g id="edge4" class="edge"><title>Node1&#45;&gt;Node3</title>
<path fill="none" stroke="midnightblue" d="M287.545,-580.039C286.411,-565.371 282.488,-539.213 269,-522 256.851,-506.497 238.082,-495.306 221.365,-487.743"/>
<polygon fill="midnightblue" stroke="midnightblue" points="222.398,-484.38 211.825,-483.705 219.669,-490.826 222.398,-484.38"/>
</g>
<!-- Node23 -->
<g id="node59" class="node"><title>Node23</title>
<a xlink:href="objectset_8h.html" target="_top" xlink:title="objectset.h">
<polygon fill="white" stroke="black" points="425.5,-522.5 425.5,-543.5 490.5,-543.5 490.5,-522.5 425.5,-522.5"/>
<text text-anchor="middle" x="458" y="-530.5" font-family="Helvetica,sans-Serif" font-size="10.00">objectset.h</text>
</a>
</g>
<!-- Node1&#45;&gt;Node23 -->
<g id="edge72" class="edge"><title>Node1&#45;&gt;Node23</title>
<path fill="none" stroke="midnightblue" d="M318.786,-580.497C346.38,-571.082 387.058,-557.204 417.325,-546.877"/>
<polygon fill="midnightblue" stroke="midnightblue" points="418.822,-550.065 427.157,-543.523 416.562,-543.44 418.822,-550.065"/>
</g>
<!-- Node4 -->
<g id="node7" class="node"><title>Node4</title>
<polygon fill="white" stroke="#bfbfbf" points="118.5,-0.5 118.5,-21.5 185.5,-21.5 185.5,-0.5 118.5,-0.5"/>
<text text-anchor="middle" x="152" y="-8.5" font-family="Helvetica,sans-Serif" font-size="10.00">basicmod.h</text>
</g>
<!-- Node3&#45;&gt;Node4 -->
<g id="edge6" class="edge"><title>Node3&#45;&gt;Node4</title>
<path fill="none" stroke="midnightblue" d="M158.494,-470.972C107.34,-461.534 0,-432.924 0,-359 0,-359 0,-359 0,-127 0,-71.9511 63.7823,-39.5455 108.713,-23.547"/>
<polygon fill="midnightblue" stroke="midnightblue" points="109.932,-26.8293 118.266,-20.2879 107.672,-20.2042 109.932,-26.8293"/>
</g>
<!-- Node5 -->
<g id="node9" class="node"><title>Node5</title>
<a xlink:href="compoundkey_8h.html" target="_top" xlink:title="compoundkey.h">
<polygon fill="white" stroke="black" points="71,-406.5 71,-427.5 157,-427.5 157,-406.5 71,-406.5"/>
<text text-anchor="middle" x="114" y="-414.5" font-family="Helvetica,sans-Serif" font-size="10.00">compoundkey.h</text>
</a>
</g>
<!-- Node3&#45;&gt;Node5 -->
<g id="edge8" class="edge"><title>Node3&#45;&gt;Node5</title>
<path fill="none" stroke="midnightblue" d="M171.978,-464.362C161.569,-455.859 146.781,-443.779 134.745,-433.947"/>
<polygon fill="midnightblue" stroke="midnightblue" points="136.899,-431.187 126.94,-427.571 132.47,-436.608 136.899,-431.187"/>
</g>
<!-- Node7 -->
<g id="node15" class="node"><title>Node7</title>
<a xlink:href="fixedstring_8h.html" target="_top" xlink:title="fixedstring.h">
<polygon fill="white" stroke="black" points="146,-290.5 146,-311.5 216,-311.5 216,-290.5 146,-290.5"/>
<text text-anchor="middle" x="181" y="-298.5" font-family="Helvetica,sans-Serif" font-size="10.00">fixedstring.h</text>
</a>
</g>
<!-- Node3&#45;&gt;Node7 -->
<g id="edge70" class="edge"><title>Node3&#45;&gt;Node7</title>
<path fill="none" stroke="midnightblue" d="M184.756,-464.377C184.11,-436.293 182.349,-359.673 181.487,-322.203"/>
<polygon fill="midnightblue" stroke="midnightblue" points="184.98,-321.845 181.251,-311.928 177.982,-322.006 184.98,-321.845"/>
</g>
<!-- Node20 -->
<g id="node48" class="node"><title>Node20</title>
<a xlink:href="string2_8h.html" target="_top" xlink:title="string2.h">
<polygon fill="white" stroke="black" points="247,-116.5 247,-137.5 301,-137.5 301,-116.5 247,-116.5"/>
<text text-anchor="middle" x="274" y="-124.5" font-family="Helvetica,sans-Serif" font-size="10.00">string2.h</text>
</a>
</g>
<!-- Node3&#45;&gt;Node20 -->
<g id="edge68" class="edge"><title>Node3&#45;&gt;Node20</title>
<path fill="none" stroke="midnightblue" d="M200.196,-464.437C224.645,-446.064 270,-405.688 270,-359 270,-359 270,-359 270,-243 270,-209.578 271.679,-170.771 272.861,-147.587"/>
<polygon fill="midnightblue" stroke="midnightblue" points="276.359,-147.723 273.392,-137.552 269.369,-147.353 276.359,-147.723"/>
</g>
<!-- Node5&#45;&gt;Node4 -->
<g id="edge10" class="edge"><title>Node5&#45;&gt;Node4</title>
<path fill="none" stroke="midnightblue" d="M100.762,-406.375C78.9873,-387.606 38,-346.263 38,-301 38,-301 38,-301 38,-127 38,-80.0264 86.1415,-45.1175 119.856,-26.4297"/>
<polygon fill="midnightblue" stroke="midnightblue" points="121.752,-29.385 128.93,-21.5923 118.459,-23.2078 121.752,-29.385"/>
</g>
<!-- Node6 -->
<g id="node12" class="node"><title>Node6</title>
<a xlink:href="bufstring_8h.html" target="_top" xlink:title="bufstring.h">
<polygon fill="white" stroke="black" points="85,-348.5 85,-369.5 147,-369.5 147,-348.5 85,-348.5"/>
<text text-anchor="middle" x="116" y="-356.5" font-family="Helvetica,sans-Serif" font-size="10.00">bufstring.h</text>
</a>
</g>
<!-- Node5&#45;&gt;Node6 -->
<g id="edge12" class="edge"><title>Node5&#45;&gt;Node6</title>
<path fill="none" stroke="midnightblue" d="M114.367,-406.362C114.623,-398.922 114.974,-388.743 115.285,-379.728"/>
<polygon fill="midnightblue" stroke="midnightblue" points="118.789,-379.685 115.635,-369.571 111.793,-379.444 118.789,-379.685"/>
</g>
<!-- Node6&#45;&gt;Node4 -->
<g id="edge14" class="edge"><title>Node6&#45;&gt;Node4</title>
<path fill="none" stroke="midnightblue" d="M109.573,-348.232C98.2662,-328.234 76,-283.688 76,-243 76,-243 76,-243 76,-127 76,-86.5104 108.797,-49.1585 131.302,-28.2949"/>
<polygon fill="midnightblue" stroke="midnightblue" points="133.64,-30.8993 138.762,-21.6247 128.974,-25.681 133.64,-30.8993"/>
</g>
<!-- Node6&#45;&gt;Node7 -->
<g id="edge16" class="edge"><title>Node6&#45;&gt;Node7</title>
<path fill="none" stroke="midnightblue" d="M127.922,-348.362C137.359,-339.941 150.73,-328.011 161.69,-318.231"/>
<polygon fill="midnightblue" stroke="midnightblue" points="164.022,-320.84 169.154,-311.571 159.362,-315.617 164.022,-320.84"/>
</g>
<!-- Node6&#45;&gt;Node20 -->
<g id="edge56" class="edge"><title>Node6&#45;&gt;Node20</title>
<path fill="none" stroke="midnightblue" d="M118.316,-348.405C121.538,-334.59 128.007,-309.845 137,-290 164.872,-228.492 222.726,-171.767 253.58,-144.318"/>
<polygon fill="midnightblue" stroke="midnightblue" points="255.946,-146.899 261.165,-137.679 251.335,-141.632 255.946,-146.899"/>
</g>
<!-- Node7&#45;&gt;Node4 -->
<g id="edge18" class="edge"><title>Node7&#45;&gt;Node4</title>
<path fill="none" stroke="midnightblue" d="M178.903,-290.211C177.119,-280.709 174.599,-266.479 173,-254 162.503,-172.05 155.808,-73.8637 153.217,-31.793"/>
<polygon fill="midnightblue" stroke="midnightblue" points="156.704,-31.4635 152.608,-21.6923 149.717,-31.8848 156.704,-31.4635"/>
</g>
<!-- Node8 -->
<g id="node18" class="node"><title>Node8</title>
<a xlink:href="odstring_8h.html" target="_top" xlink:title="odstring.h">
<polygon fill="white" stroke="black" points="181.5,-232.5 181.5,-253.5 240.5,-253.5 240.5,-232.5 181.5,-232.5"/>
<text text-anchor="middle" x="211" y="-240.5" font-family="Helvetica,sans-Serif" font-size="10.00">odstring.h</text>
</a>
</g>
<!-- Node7&#45;&gt;Node8 -->
<g id="edge20" class="edge"><title>Node7&#45;&gt;Node8</title>
<path fill="none" stroke="midnightblue" d="M186.502,-290.362C190.52,-282.595 196.081,-271.843 200.89,-262.546"/>
<polygon fill="midnightblue" stroke="midnightblue" points="204.047,-264.061 205.532,-253.571 197.829,-260.845 204.047,-264.061"/>
</g>
<!-- Node8&#45;&gt;Node4 -->
<g id="edge22" class="edge"><title>Node8&#45;&gt;Node4</title>
<path fill="none" stroke="midnightblue" d="M208.312,-232.429C199.193,-196.573 169.336,-79.1689 157.2,-31.4458"/>
<polygon fill="midnightblue" stroke="midnightblue" points="160.561,-30.4624 154.704,-21.6335 153.777,-32.1877 160.561,-30.4624"/>
</g>
<!-- Node9 -->
<g id="node21" class="node"><title>Node9</title>
<a xlink:href="gendefs_8h.html" target="_top" xlink:title="gendefs.h">
<polygon fill="white" stroke="black" points="428.5,-174.5 428.5,-195.5 487.5,-195.5 487.5,-174.5 428.5,-174.5"/>
<text text-anchor="middle" x="458" y="-182.5" font-family="Helvetica,sans-Serif" font-size="10.00">gendefs.h</text>
</a>
</g>
<!-- Node8&#45;&gt;Node9 -->
<g id="edge24" class="edge"><title>Node8&#45;&gt;Node9</title>
<path fill="none" stroke="midnightblue" d="M240.794,-236.004C285.236,-225.568 368.951,-205.91 418.465,-194.284"/>
<polygon fill="midnightblue" stroke="midnightblue" points="419.55,-197.624 428.485,-191.931 417.95,-190.809 419.55,-197.624"/>
</g>
<!-- Node10 -->
<g id="node23" class="node"><title>Node10</title>
<a xlink:href="undefval_8h.html" target="_top" xlink:title="undefval.h">
<polygon fill="white" stroke="black" points="420,-116.5 420,-137.5 482,-137.5 482,-116.5 420,-116.5"/>
<text text-anchor="middle" x="451" y="-124.5" font-family="Helvetica,sans-Serif" font-size="10.00">undefval.h</text>
</a>
</g>
<!-- Node9&#45;&gt;Node10 -->
<g id="edge26" class="edge"><title>Node9&#45;&gt;Node10</title>
<path fill="none" stroke="midnightblue" d="M456.716,-174.362C455.818,-166.922 454.59,-156.743 453.502,-147.728"/>
<polygon fill="midnightblue" stroke="midnightblue" points="456.949,-147.079 452.276,-137.571 449.999,-147.918 456.949,-147.079"/>
</g>
<!-- Node17 -->
<g id="node40" class="node"><title>Node17</title>
<a xlink:href="commontypes_8h.html" target="_top" xlink:title="commontypes.h">
<polygon fill="white" stroke="black" points="500,-116.5 500,-137.5 586,-137.5 586,-116.5 500,-116.5"/>
<text text-anchor="middle" x="543" y="-124.5" font-family="Helvetica,sans-Serif" font-size="10.00">commontypes.h</text>
</a>
</g>
<!-- Node9&#45;&gt;Node17 -->
<g id="edge46" class="edge"><title>Node9&#45;&gt;Node17</title>
<path fill="none" stroke="midnightblue" d="M473.59,-174.362C486.291,-165.696 504.438,-153.313 518.992,-143.382"/>
<polygon fill="midnightblue" stroke="midnightblue" points="521.221,-146.098 527.509,-137.571 517.276,-140.316 521.221,-146.098"/>
</g>
<!-- Node18 -->
<g id="node43" class="node"><title>Node18</title>
<a xlink:href="errmsg_8h.html" target="_top" xlink:title="errmsg.h">
<polygon fill="white" stroke="black" points="603.5,-116.5 603.5,-137.5 658.5,-137.5 658.5,-116.5 603.5,-116.5"/>
<text text-anchor="middle" x="631" y="-124.5" font-family="Helvetica,sans-Serif" font-size="10.00">errmsg.h</text>
</a>
</g>
<!-- Node9&#45;&gt;Node18 -->
<g id="edge50" class="edge"><title>Node9&#45;&gt;Node18</title>
<path fill="none" stroke="midnightblue" d="M487.74,-175.029C517.03,-165.21 561.866,-150.178 593.566,-139.55"/>
<polygon fill="midnightblue" stroke="midnightblue" points="594.992,-142.764 603.36,-136.266 592.767,-136.127 594.992,-142.764"/>
</g>
<!-- Node10&#45;&gt;Node4 -->
<g id="edge28" class="edge"><title>Node10&#45;&gt;Node4</title>
<path fill="none" stroke="midnightblue" d="M443.657,-116.443C432.316,-101.003 409.005,-72.5252 382,-58 350.406,-41.0066 253.501,-25.1592 196.049,-16.9175"/>
<polygon fill="midnightblue" stroke="midnightblue" points="196.197,-13.4037 185.805,-15.4686 195.217,-20.3347 196.197,-13.4037"/>
</g>
<!-- Node11 -->
<g id="node26" class="node"><title>Node11</title>
<a xlink:href="commondefs_8h.html" target="_top" xlink:title="commondefs.h">
<polygon fill="white" stroke="black" points="509.5,-58.5 509.5,-79.5 590.5,-79.5 590.5,-58.5 509.5,-58.5"/>
<text text-anchor="middle" x="550" y="-66.5" font-family="Helvetica,sans-Serif" font-size="10.00">commondefs.h</text>
</a>
</g>
<!-- Node10&#45;&gt;Node11 -->
<g id="edge30" class="edge"><title>Node10&#45;&gt;Node11</title>
<path fill="none" stroke="midnightblue" d="M469.158,-116.362C484.23,-107.532 505.887,-94.844 522.993,-84.8224"/>
<polygon fill="midnightblue" stroke="midnightblue" points="525.098,-87.6456 531.957,-79.5707 521.559,-81.6058 525.098,-87.6456"/>
</g>
<!-- Node15 -->
<g id="node35" class="node"><title>Node15</title>
<a xlink:href="plftypes_8h.html" target="_top" xlink:title="plftypes.h">
<polygon fill="white" stroke="black" points="433.5,-58.5 433.5,-79.5 492.5,-79.5 492.5,-58.5 433.5,-58.5"/>
<text text-anchor="middle" x="463" y="-66.5" font-family="Helvetica,sans-Serif" font-size="10.00">plftypes.h</text>
</a>
</g>
<!-- Node10&#45;&gt;Node15 -->
<g id="edge40" class="edge"><title>Node10&#45;&gt;Node15</title>
<path fill="none" stroke="midnightblue" d="M453.201,-116.362C454.757,-108.84 456.893,-98.5187 458.773,-89.4308"/>
<polygon fill="midnightblue" stroke="midnightblue" points="462.214,-90.0724 460.813,-79.5707 455.359,-88.6541 462.214,-90.0724"/>
</g>
<!-- Node11&#45;&gt;Node4 -->
<g id="edge32" class="edge"><title>Node11&#45;&gt;Node4</title>
<path fill="none" stroke="midnightblue" d="M509.413,-59.6032C506.571,-59.0332 503.746,-58.4922 501,-58 391.896,-38.4453 262.285,-23.015 195.936,-15.675"/>
<polygon fill="midnightblue" stroke="midnightblue" points="196.165,-12.1793 185.843,-14.5671 195.401,-19.1375 196.165,-12.1793"/>
</g>
<!-- Node12 -->
<g id="node29" class="node"><title>Node12</title>
<a xlink:href="plfdefs_8h.html" target="_top" xlink:title="plfdefs.h">
<polygon fill="white" stroke="black" points="479,-0.5 479,-21.5 533,-21.5 533,-0.5 479,-0.5"/>
<text text-anchor="middle" x="506" y="-8.5" font-family="Helvetica,sans-Serif" font-size="10.00">plfdefs.h</text>
</a>
</g>
<!-- Node11&#45;&gt;Node12 -->
<g id="edge34" class="edge"><title>Node11&#45;&gt;Node12</title>
<path fill="none" stroke="midnightblue" d="M541.93,-58.3619C535.851,-50.3496 527.363,-39.1605 520.163,-29.6696"/>
<polygon fill="midnightblue" stroke="midnightblue" points="522.851,-27.4222 514.019,-21.5707 517.275,-31.653 522.851,-27.4222"/>
</g>
<!-- Node13 -->
<g id="node31" class="node"><title>Node13</title>
<polygon fill="white" stroke="#bfbfbf" points="638.5,-0.5 638.5,-21.5 697.5,-21.5 697.5,-0.5 638.5,-0.5"/>
<text text-anchor="middle" x="668" y="-8.5" font-family="Helvetica,sans-Serif" font-size="10.00">stdexcept</text>
</g>
<!-- Node11&#45;&gt;Node13 -->
<g id="edge36" class="edge"><title>Node11&#45;&gt;Node13</title>
<path fill="none" stroke="midnightblue" d="M571.369,-58.4966C589.799,-49.4378 616.637,-36.2462 637.355,-26.0628"/>
<polygon fill="midnightblue" stroke="midnightblue" points="638.961,-29.1735 646.391,-21.6212 635.873,-22.8914 638.961,-29.1735"/>
</g>
<!-- Node14 -->
<g id="node33" class="node"><title>Node14</title>
<polygon fill="white" stroke="#bfbfbf" points="550.5,-0.5 550.5,-21.5 585.5,-21.5 585.5,-0.5 550.5,-0.5"/>
<text text-anchor="middle" x="568" y="-8.5" font-family="Helvetica,sans-Serif" font-size="10.00">new</text>
</g>
<!-- Node11&#45;&gt;Node14 -->
<g id="edge38" class="edge"><title>Node11&#45;&gt;Node14</title>
<path fill="none" stroke="midnightblue" d="M553.301,-58.3619C555.661,-50.7584 558.909,-40.294 561.751,-31.1349"/>
<polygon fill="midnightblue" stroke="midnightblue" points="565.098,-32.1587 564.719,-21.5707 558.413,-30.0839 565.098,-32.1587"/>
</g>
<!-- Node15&#45;&gt;Node12 -->
<g id="edge42" class="edge"><title>Node15&#45;&gt;Node12</title>
<path fill="none" stroke="midnightblue" d="M470.887,-58.3619C476.827,-50.3496 485.122,-39.1605 492.159,-29.6696"/>
<polygon fill="midnightblue" stroke="midnightblue" points="495.019,-31.6883 498.163,-21.5707 489.396,-27.5193 495.019,-31.6883"/>
</g>
<!-- Node16 -->
<g id="node38" class="node"><title>Node16</title>
<polygon fill="white" stroke="#bfbfbf" points="412.5,-0.5 412.5,-21.5 461.5,-21.5 461.5,-0.5 412.5,-0.5"/>
<text text-anchor="middle" x="437" y="-8.5" font-family="Helvetica,sans-Serif" font-size="10.00">stdint.h</text>
</g>
<!-- Node15&#45;&gt;Node16 -->
<g id="edge44" class="edge"><title>Node15&#45;&gt;Node16</title>
<path fill="none" stroke="midnightblue" d="M458.231,-58.3619C454.786,-50.6766 450.031,-40.0686 445.894,-30.8399"/>
<polygon fill="midnightblue" stroke="midnightblue" points="449.023,-29.264 441.739,-21.5707 442.635,-32.1275 449.023,-29.264"/>
</g>
<!-- Node17&#45;&gt;Node11 -->
<g id="edge48" class="edge"><title>Node17&#45;&gt;Node11</title>
<path fill="none" stroke="midnightblue" d="M544.284,-116.362C545.182,-108.922 546.41,-98.7427 547.498,-89.7276"/>
<polygon fill="midnightblue" stroke="midnightblue" points="551.001,-89.918 548.724,-79.5707 544.051,-89.0792 551.001,-89.918"/>
</g>
<!-- Node18&#45;&gt;Node11 -->
<g id="edge52" class="edge"><title>Node18&#45;&gt;Node11</title>
<path fill="none" stroke="midnightblue" d="M616.143,-116.362C604.154,-107.777 587.073,-95.5459 573.272,-85.6636"/>
<polygon fill="midnightblue" stroke="midnightblue" points="574.931,-82.5469 564.762,-79.5707 570.855,-88.2383 574.931,-82.5469"/>
</g>
<!-- Node19 -->
<g id="node46" class="node"><title>Node19</title>
<polygon fill="white" stroke="#bfbfbf" points="607.5,-58.5 607.5,-79.5 658.5,-79.5 658.5,-58.5 607.5,-58.5"/>
<text text-anchor="middle" x="633" y="-66.5" font-family="Helvetica,sans-Serif" font-size="10.00">typeinfo</text>
</g>
<!-- Node18&#45;&gt;Node19 -->
<g id="edge54" class="edge"><title>Node18&#45;&gt;Node19</title>
<path fill="none" stroke="midnightblue" d="M631.367,-116.362C631.623,-108.922 631.974,-98.7427 632.285,-89.7276"/>
<polygon fill="midnightblue" stroke="midnightblue" points="635.789,-89.6854 632.635,-79.5707 628.793,-89.4441 635.789,-89.6854"/>
</g>
<!-- Node20&#45;&gt;Node4 -->
<g id="edge58" class="edge"><title>Node20&#45;&gt;Node4</title>
<path fill="none" stroke="midnightblue" d="M287.045,-116.371C302.72,-102.302 325.238,-77.0557 311,-58 297.113,-39.4134 237.665,-25.5978 195.544,-17.9149"/>
<polygon fill="midnightblue" stroke="midnightblue" points="195.971,-14.4361 185.514,-16.1403 194.751,-21.329 195.971,-14.4361"/>
</g>
<!-- Node20&#45;&gt;Node11 -->
<g id="edge62" class="edge"><title>Node20&#45;&gt;Node11</title>
<path fill="none" stroke="midnightblue" d="M301.286,-121.503C342.195,-113.229 422.101,-96.9407 499.461,-80.3109"/>
<polygon fill="midnightblue" stroke="midnightblue" points="500.331,-83.7037 509.37,-78.1758 498.857,-76.8608 500.331,-83.7037"/>
</g>
<!-- Node20&#45;&gt;Node15 -->
<g id="edge60" class="edge"><title>Node20&#45;&gt;Node15</title>
<path fill="none" stroke="midnightblue" d="M301.079,-118.69C333.174,-108.841 386.918,-92.3479 423.615,-81.0863"/>
<polygon fill="midnightblue" stroke="midnightblue" points="424.949,-84.3383 433.482,-78.0585 422.895,-77.6463 424.949,-84.3383"/>
</g>
<!-- Node21 -->
<g id="node53" class="node"><title>Node21</title>
<polygon fill="white" stroke="#bfbfbf" points="179.5,-58.5 179.5,-79.5 228.5,-79.5 228.5,-58.5 179.5,-58.5"/>
<text text-anchor="middle" x="204" y="-66.5" font-family="Helvetica,sans-Serif" font-size="10.00">ctype.h</text>
</g>
<!-- Node20&#45;&gt;Node21 -->
<g id="edge64" class="edge"><title>Node20&#45;&gt;Node21</title>
<path fill="none" stroke="midnightblue" d="M261.161,-116.362C250.998,-107.941 236.599,-96.0105 224.796,-86.2308"/>
<polygon fill="midnightblue" stroke="midnightblue" points="226.691,-83.2558 216.758,-79.5707 222.225,-88.6459 226.691,-83.2558"/>
</g>
<!-- Node22 -->
<g id="node55" class="node"><title>Node22</title>
<polygon fill="white" stroke="#bfbfbf" points="246,-58.5 246,-79.5 302,-79.5 302,-58.5 246,-58.5"/>
<text text-anchor="middle" x="274" y="-66.5" font-family="Helvetica,sans-Serif" font-size="10.00">wctype.h</text>
</g>
<!-- Node20&#45;&gt;Node22 -->
<g id="edge66" class="edge"><title>Node20&#45;&gt;Node22</title>
<path fill="none" stroke="midnightblue" d="M274,-116.362C274,-108.922 274,-98.7427 274,-89.7276"/>
<polygon fill="midnightblue" stroke="midnightblue" points="277.5,-89.5706 274,-79.5707 270.5,-89.5707 277.5,-89.5706"/>
</g>
<!-- Node24 -->
<g id="node61" class="node"><title>Node24</title>
<a xlink:href="odset_8h.html" target="_top" xlink:title="odset.h">
<polygon fill="white" stroke="black" points="433.5,-348.5 433.5,-369.5 482.5,-369.5 482.5,-348.5 433.5,-348.5"/>
<text text-anchor="middle" x="458" y="-356.5" font-family="Helvetica,sans-Serif" font-size="10.00">odset.h</text>
</a>
</g>
<!-- Node23&#45;&gt;Node24 -->
<g id="edge74" class="edge"><title>Node23&#45;&gt;Node24</title>
<path fill="none" stroke="midnightblue" d="M458,-522.377C458,-494.293 458,-417.673 458,-380.203"/>
<polygon fill="midnightblue" stroke="midnightblue" points="461.5,-379.928 458,-369.928 454.5,-379.928 461.5,-379.928"/>
</g>
<!-- Node25 -->
<g id="node64" class="node"><title>Node25</title>
<a xlink:href="vectoraccess_8h.html" target="_top" xlink:title="vectoraccess.h">
<polygon fill="white" stroke="black" points="501.5,-464.5 501.5,-485.5 584.5,-485.5 584.5,-464.5 501.5,-464.5"/>
<text text-anchor="middle" x="543" y="-472.5" font-family="Helvetica,sans-Serif" font-size="10.00">vectoraccess.h</text>
</a>
</g>
<!-- Node23&#45;&gt;Node25 -->
<g id="edge78" class="edge"><title>Node23&#45;&gt;Node25</title>
<path fill="none" stroke="midnightblue" d="M473.59,-522.362C486.291,-513.696 504.438,-501.313 518.992,-491.382"/>
<polygon fill="midnightblue" stroke="midnightblue" points="521.221,-494.098 527.509,-485.571 517.276,-488.316 521.221,-494.098"/>
</g>
<!-- Node24&#45;&gt;Node9 -->
<g id="edge76" class="edge"><title>Node24&#45;&gt;Node9</title>
<path fill="none" stroke="midnightblue" d="M458,-348.377C458,-320.293 458,-243.673 458,-206.203"/>
<polygon fill="midnightblue" stroke="midnightblue" points="461.5,-205.928 458,-195.928 454.5,-205.928 461.5,-205.928"/>
</g>
<!-- Node25&#45;&gt;Node9 -->
<g id="edge88" class="edge"><title>Node25&#45;&gt;Node9</title>
<path fill="none" stroke="midnightblue" d="M537.844,-464.413C528.562,-444.35 510,-399.201 510,-359 510,-359 510,-359 510,-301 510,-264.145 487.873,-226.013 472.487,-203.952"/>
<polygon fill="midnightblue" stroke="midnightblue" points="475.283,-201.845 466.587,-195.794 469.611,-205.948 475.283,-201.845"/>
</g>
<!-- Node25&#45;&gt;Node13 -->
<g id="edge94" class="edge"><title>Node25&#45;&gt;Node13</title>
<path fill="none" stroke="midnightblue" d="M584.721,-468.531C611.101,-462.367 644.052,-450.519 665,-428 686.833,-404.529 686,-391.056 686,-359 686,-359 686,-359 686,-127 686,-93.3732 678.522,-54.9046 673.206,-31.8049"/>
<polygon fill="midnightblue" stroke="midnightblue" points="676.541,-30.7008 670.812,-21.7882 669.733,-32.3279 676.541,-30.7008"/>
</g>
<!-- Node26 -->
<g id="node66" class="node"><title>Node26</title>
<a xlink:href="debug_8h.html" target="_top" xlink:title="debug.h">
<polygon fill="white" stroke="black" points="361.5,-406.5 361.5,-427.5 412.5,-427.5 412.5,-406.5 361.5,-406.5"/>
<text text-anchor="middle" x="387" y="-414.5" font-family="Helvetica,sans-Serif" font-size="10.00">debug.h</text>
</a>
</g>
<!-- Node25&#45;&gt;Node26 -->
<g id="edge80" class="edge"><title>Node25&#45;&gt;Node26</title>
<path fill="none" stroke="midnightblue" d="M514.75,-464.497C488.752,-454.831 450.1,-440.46 422.124,-430.059"/>
<polygon fill="midnightblue" stroke="midnightblue" points="423.305,-426.764 412.712,-426.559 420.865,-433.325 423.305,-426.764"/>
</g>
<!-- Node27 -->
<g id="node72" class="node"><title>Node27</title>
<polygon fill="white" stroke="#bfbfbf" points="600,-406.5 600,-427.5 656,-427.5 656,-406.5 600,-406.5"/>
<text text-anchor="middle" x="628" y="-414.5" font-family="Helvetica,sans-Serif" font-size="10.00">algorithm</text>
</g>
<!-- Node25&#45;&gt;Node27 -->
<g id="edge90" class="edge"><title>Node25&#45;&gt;Node27</title>
<path fill="none" stroke="midnightblue" d="M558.59,-464.362C571.291,-455.696 589.438,-443.313 603.992,-433.382"/>
<polygon fill="midnightblue" stroke="midnightblue" points="606.221,-436.098 612.509,-427.571 602.276,-430.316 606.221,-436.098"/>
</g>
<!-- Node28 -->
<g id="node74" class="node"><title>Node28</title>
<polygon fill="white" stroke="#bfbfbf" points="538,-406.5 538,-427.5 582,-427.5 582,-406.5 538,-406.5"/>
<text text-anchor="middle" x="560" y="-414.5" font-family="Helvetica,sans-Serif" font-size="10.00">vector</text>
</g>
<!-- Node25&#45;&gt;Node28 -->
<g id="edge92" class="edge"><title>Node25&#45;&gt;Node28</title>
<path fill="none" stroke="midnightblue" d="M546.118,-464.362C548.323,-456.84 551.348,-446.519 554.012,-437.431"/>
<polygon fill="midnightblue" stroke="midnightblue" points="557.448,-438.151 556.902,-427.571 550.73,-436.182 557.448,-438.151"/>
</g>
<!-- Node26&#45;&gt;Node4 -->
<g id="edge82" class="edge"><title>Node26&#45;&gt;Node4</title>
<path fill="none" stroke="midnightblue" d="M384.031,-406.222C378.688,-385.841 368,-340.182 368,-301 368,-301 368,-301 368,-127 368,-49.5839 258.977,-23.6186 195.841,-15.0726"/>
<polygon fill="midnightblue" stroke="midnightblue" points="196.109,-11.5788 185.75,-13.8014 195.234,-18.5239 196.109,-11.5788"/>
</g>
<!-- Node26&#45;&gt;Node6 -->
<g id="edge86" class="edge"><title>Node26&#45;&gt;Node6</title>
<path fill="none" stroke="midnightblue" d="M361.015,-411.439C313.873,-401.349 213.904,-379.954 157.313,-367.842"/>
<polygon fill="midnightblue" stroke="midnightblue" points="157.784,-364.364 147.273,-365.693 156.319,-371.209 157.784,-364.364"/>
</g>
<!-- Node26&#45;&gt;Node9 -->
<g id="edge84" class="edge"><title>Node26&#45;&gt;Node9</title>
<path fill="none" stroke="midnightblue" d="M390.235,-406.429C401.208,-370.573 437.138,-253.169 451.743,-205.446"/>
<polygon fill="midnightblue" stroke="midnightblue" points="455.166,-206.22 454.746,-195.634 448.473,-204.171 455.166,-206.22"/>
</g>
</g>
</svg>
