<?xml version="1.0" encoding="UTF-8" standalone="no"?>
<!DOCTYPE svg PUBLIC "-//W3C//DTD SVG 1.1//EN"
 "http://www.w3.org/Graphics/SVG/1.1/DTD/svg11.dtd">
<!-- Generated by graphviz version 2.26.0 (20091210.2329)
 -->
<!-- Title: horizon2dextender.h Pages: 1 -->
<svg width="1824pt" height="784pt"
 viewBox="0.00 0.00 1824.11 784.00" xmlns="http://www.w3.org/2000/svg" xmlns:xlink="http://www.w3.org/1999/xlink">
<g id="graph1" class="graph" transform="scale(1 1) rotate(0) translate(4 780)">
<title>horizon2dextender.h</title>
<polygon fill="white" stroke="white" points="-4,5 -4,-780 1821.11,-780 1821.11,5 -4,5"/>
<!-- Node1 -->
<g id="node1" class="node"><title>Node1</title>
<polygon fill="#bfbfbf" stroke="black" points="1094.11,-754.5 1094.11,-775.5 1198.11,-775.5 1198.11,-754.5 1094.11,-754.5"/>
<text text-anchor="middle" x="1146.11" y="-762.5" font-family="Helvetica,sans-Serif" font-size="10.00">horizon2dextender.h</text>
</g>
<!-- Node2 -->
<g id="node3" class="node"><title>Node2</title>
<polygon fill="white" stroke="#bfbfbf" points="245.606,-580.5 245.606,-601.5 336.606,-601.5 336.606,-580.5 245.606,-580.5"/>
<text text-anchor="middle" x="291.106" y="-588.5" font-family="Helvetica,sans-Serif" font-size="10.00">mpeenginemod.h</text>
</g>
<!-- Node1&#45;&gt;Node2 -->
<g id="edge2" class="edge"><title>Node1&#45;&gt;Node2</title>
<path fill="none" stroke="midnightblue" d="M1093.77,-755.77C1042.17,-746.571 961.099,-731.855 891.106,-718 690.257,-678.241 452.603,-626.554 346.764,-603.292"/>
<polygon fill="midnightblue" stroke="midnightblue" points="347.457,-599.861 336.939,-601.131 345.953,-606.698 347.457,-599.861"/>
</g>
<!-- Node3 -->
<g id="node5" class="node"><title>Node3</title>
<a xlink:href="sectionextender_8h.html" target="_top" xlink:title="sectionextender.h">
<polygon fill="white" stroke="black" points="674.106,-638.5 674.106,-659.5 768.106,-659.5 768.106,-638.5 674.106,-638.5"/>
<text text-anchor="middle" x="721.106" y="-646.5" font-family="Helvetica,sans-Serif" font-size="10.00">sectionextender.h</text>
</a>
</g>
<!-- Node1&#45;&gt;Node3 -->
<g id="edge4" class="edge"><title>Node1&#45;&gt;Node3</title>
<path fill="none" stroke="midnightblue" d="M1107.26,-754.398C1029.41,-733.147 854.442,-685.393 769.375,-662.174"/>
<polygon fill="midnightblue" stroke="midnightblue" points="770.274,-658.792 759.705,-659.535 768.431,-665.545 770.274,-658.792"/>
</g>
<!-- Node42 -->
<g id="node139" class="node"><title>Node42</title>
<a xlink:href="coord_8h.html" target="_top" xlink:title="coord.h">
<polygon fill="white" stroke="black" points="1557.61,-406.5 1557.61,-427.5 1606.61,-427.5 1606.61,-406.5 1557.61,-406.5"/>
<text text-anchor="middle" x="1582.11" y="-414.5" font-family="Helvetica,sans-Serif" font-size="10.00">coord.h</text>
</a>
</g>
<!-- Node1&#45;&gt;Node42 -->
<g id="edge194" class="edge"><title>Node1&#45;&gt;Node42</title>
<path fill="none" stroke="midnightblue" d="M1198.26,-762.227C1315.72,-754.78 1595.19,-729.936 1652.11,-660 1708.22,-591.044 1631.76,-479.132 1597.35,-435.368"/>
<polygon fill="midnightblue" stroke="midnightblue" points="1600.07,-433.165 1591.08,-427.557 1594.61,-437.546 1600.07,-433.165"/>
</g>
<!-- Node44 -->
<g id="node148" class="node"><title>Node44</title>
<a xlink:href="posinfo2dsurv_8h.html" target="_top" xlink:title="posinfo2dsurv.h">
<polygon fill="white" stroke="black" points="1103.11,-696.5 1103.11,-717.5 1189.11,-717.5 1189.11,-696.5 1103.11,-696.5"/>
<text text-anchor="middle" x="1146.11" y="-704.5" font-family="Helvetica,sans-Serif" font-size="10.00">posinfo2dsurv.h</text>
</a>
</g>
<!-- Node1&#45;&gt;Node44 -->
<g id="edge208" class="edge"><title>Node1&#45;&gt;Node44</title>
<path fill="none" stroke="midnightblue" d="M1146.11,-754.362C1146.11,-746.922 1146.11,-736.743 1146.11,-727.728"/>
<polygon fill="midnightblue" stroke="midnightblue" points="1149.61,-727.571 1146.11,-717.571 1142.61,-727.571 1149.61,-727.571"/>
</g>
<!-- Node50 -->
<g id="node180" class="node"><title>Node50</title>
<a xlink:href="trckeyvalue_8h.html" target="_top" xlink:title="trckeyvalue.h">
<polygon fill="white" stroke="black" points="1741.61,-464.5 1741.61,-485.5 1816.61,-485.5 1816.61,-464.5 1741.61,-464.5"/>
<text text-anchor="middle" x="1779.11" y="-472.5" font-family="Helvetica,sans-Serif" font-size="10.00">trckeyvalue.h</text>
</a>
</g>
<!-- Node1&#45;&gt;Node50 -->
<g id="edge260" class="edge"><title>Node1&#45;&gt;Node50</title>
<path fill="none" stroke="midnightblue" d="M1198.55,-763.608C1333.34,-759.634 1684.37,-746.627 1728.11,-718 1757.22,-698.942 1765.11,-683.797 1765.11,-649 1765.11,-649 1765.11,-649 1765.11,-591 1765.11,-557.355 1770.98,-518.615 1775.12,-495.504"/>
<polygon fill="midnightblue" stroke="midnightblue" points="1778.59,-495.976 1776.98,-485.505 1771.71,-494.697 1778.59,-495.976"/>
</g>
<!-- Node3&#45;&gt;Node2 -->
<g id="edge6" class="edge"><title>Node3&#45;&gt;Node2</title>
<path fill="none" stroke="midnightblue" d="M673.838,-643.906C603.216,-636.092 466.048,-620.136 350.106,-602 349.025,-601.831 347.934,-601.657 346.835,-601.48"/>
<polygon fill="midnightblue" stroke="midnightblue" points="347.241,-597.999 336.799,-599.791 346.08,-604.902 347.241,-597.999"/>
</g>
<!-- Node4 -->
<g id="node8" class="node"><title>Node4</title>
<a xlink:href="emposid_8h.html" target="_top" xlink:title="emposid.h">
<polygon fill="white" stroke="black" points="128.106,-406.5 128.106,-427.5 190.106,-427.5 190.106,-406.5 128.106,-406.5"/>
<text text-anchor="middle" x="159.106" y="-414.5" font-family="Helvetica,sans-Serif" font-size="10.00">emposid.h</text>
</a>
</g>
<!-- Node3&#45;&gt;Node4 -->
<g id="edge8" class="edge"><title>Node3&#45;&gt;Node4</title>
<path fill="none" stroke="midnightblue" d="M673.846,-643.208C596.176,-632.294 438.18,-604.154 318.106,-544 260.321,-515.051 203.927,-462.621 176.445,-435.053"/>
<polygon fill="midnightblue" stroke="midnightblue" points="178.685,-432.34 169.179,-427.663 173.694,-437.247 178.685,-432.34"/>
</g>
<!-- Node20 -->
<g id="node53" class="node"><title>Node20</title>
<a xlink:href="factory_8h.html" target="_top" xlink:title="factory.h">
<polygon fill="white" stroke="black" points="726.606,-406.5 726.606,-427.5 781.606,-427.5 781.606,-406.5 726.606,-406.5"/>
<text text-anchor="middle" x="754.106" y="-414.5" font-family="Helvetica,sans-Serif" font-size="10.00">factory.h</text>
</a>
</g>
<!-- Node3&#45;&gt;Node20 -->
<g id="edge66" class="edge"><title>Node3&#45;&gt;Node20</title>
<path fill="none" stroke="midnightblue" d="M722.61,-638.429C727.7,-602.648 744.34,-485.663 751.155,-437.748"/>
<polygon fill="midnightblue" stroke="midnightblue" points="754.651,-438.027 752.594,-427.634 747.72,-437.041 754.651,-438.027"/>
</g>
<!-- Node28 -->
<g id="node82" class="node"><title>Node28</title>
<a xlink:href="sets_8h.html" target="_top" xlink:title="sets.h">
<polygon fill="white" stroke="black" points="1150.11,-348.5 1150.11,-369.5 1194.11,-369.5 1194.11,-348.5 1150.11,-348.5"/>
<text text-anchor="middle" x="1172.11" y="-356.5" font-family="Helvetica,sans-Serif" font-size="10.00">sets.h</text>
</a>
</g>
<!-- Node3&#45;&gt;Node28 -->
<g id="edge108" class="edge"><title>Node3&#45;&gt;Node28</title>
<path fill="none" stroke="midnightblue" d="M768.134,-640.289C860,-620.576 1062.56,-563.295 1157.11,-428 1166.96,-413.907 1170.51,-394.546 1171.72,-379.919"/>
<polygon fill="midnightblue" stroke="midnightblue" points="1175.22,-379.991 1172.25,-369.822 1168.23,-379.626 1175.22,-379.991"/>
</g>
<!-- Node30 -->
<g id="node88" class="node"><title>Node30</title>
<a xlink:href="sortedlist_8h.html" target="_top" xlink:title="sortedlist.h">
<polygon fill="white" stroke="black" points="907.606,-290.5 907.606,-311.5 972.606,-311.5 972.606,-290.5 907.606,-290.5"/>
<text text-anchor="middle" x="940.106" y="-298.5" font-family="Helvetica,sans-Serif" font-size="10.00">sortedlist.h</text>
</a>
</g>
<!-- Node3&#45;&gt;Node30 -->
<g id="edge116" class="edge"><title>Node3&#45;&gt;Node30</title>
<path fill="none" stroke="midnightblue" d="M732.807,-638.245C764.842,-608.171 854.797,-519.403 903.106,-428 921.522,-393.157 931.874,-347.96 936.698,-321.947"/>
<polygon fill="midnightblue" stroke="midnightblue" points="940.206,-322.208 938.485,-311.754 933.311,-321 940.206,-322.208"/>
</g>
<!-- Node31 -->
<g id="node92" class="node"><title>Node31</title>
<a xlink:href="task_8h.html" target="_top" xlink:title="task.h">
<polygon fill="white" stroke="black" points="645.106,-522.5 645.106,-543.5 689.106,-543.5 689.106,-522.5 645.106,-522.5"/>
<text text-anchor="middle" x="667.106" y="-530.5" font-family="Helvetica,sans-Serif" font-size="10.00">task.h</text>
</a>
</g>
<!-- Node3&#45;&gt;Node31 -->
<g id="edge122" class="edge"><title>Node3&#45;&gt;Node31</title>
<path fill="none" stroke="midnightblue" d="M716.123,-638.295C707.081,-618.872 687.848,-577.556 676.345,-552.846"/>
<polygon fill="midnightblue" stroke="midnightblue" points="679.471,-551.268 672.078,-543.679 673.125,-554.222 679.471,-551.268"/>
</g>
<!-- Node35 -->
<g id="node110" class="node"><title>Node35</title>
<a xlink:href="trckeyzsampling_8h.html" target="_top" xlink:title="trckeyzsampling.h">
<polygon fill="white" stroke="black" points="578.106,-580.5 578.106,-601.5 674.106,-601.5 674.106,-580.5 578.106,-580.5"/>
<text text-anchor="middle" x="626.106" y="-588.5" font-family="Helvetica,sans-Serif" font-size="10.00">trckeyzsampling.h</text>
</a>
</g>
<!-- Node3&#45;&gt;Node35 -->
<g id="edge150" class="edge"><title>Node3&#45;&gt;Node35</title>
<path fill="none" stroke="midnightblue" d="M703.682,-638.362C689.219,-629.532 668.437,-616.844 652.022,-606.822"/>
<polygon fill="midnightblue" stroke="midnightblue" points="653.779,-603.794 643.42,-601.571 650.132,-609.769 653.779,-603.794"/>
</g>
<!-- Node5 -->
<g id="node10" class="node"><title>Node5</title>
<polygon fill="white" stroke="#bfbfbf" points="28.1064,-348.5 28.1064,-369.5 120.106,-369.5 120.106,-348.5 28.1064,-348.5"/>
<text text-anchor="middle" x="74.1064" y="-356.5" font-family="Helvetica,sans-Serif" font-size="10.00">earthmodelmod.h</text>
</g>
<!-- Node4&#45;&gt;Node5 -->
<g id="edge10" class="edge"><title>Node4&#45;&gt;Node5</title>
<path fill="none" stroke="midnightblue" d="M143.516,-406.362C130.815,-397.696 112.668,-385.313 98.1143,-375.382"/>
<polygon fill="midnightblue" stroke="midnightblue" points="99.8308,-372.316 89.5979,-369.571 95.8853,-378.098 99.8308,-372.316"/>
</g>
<!-- Node6 -->
<g id="node12" class="node"><title>Node6</title>
<a xlink:href="multiid_8h.html" target="_top" xlink:title="multiid.h">
<polygon fill="white" stroke="black" points="339.606,-290.5 339.606,-311.5 392.606,-311.5 392.606,-290.5 339.606,-290.5"/>
<text text-anchor="middle" x="366.106" y="-298.5" font-family="Helvetica,sans-Serif" font-size="10.00">multiid.h</text>
</a>
</g>
<!-- Node4&#45;&gt;Node6 -->
<g id="edge12" class="edge"><title>Node4&#45;&gt;Node6</title>
<path fill="none" stroke="midnightblue" d="M178.209,-406.295C215.041,-385.655 295.994,-340.29 338.618,-316.404"/>
<polygon fill="midnightblue" stroke="midnightblue" points="340.336,-319.454 347.349,-311.512 336.914,-313.347 340.336,-319.454"/>
</g>
<!-- Node14 -->
<g id="node35" class="node"><title>Node14</title>
<a xlink:href="rowcol_8h.html" target="_top" xlink:title="rowcol.h">
<polygon fill="white" stroke="black" points="137.606,-348.5 137.606,-369.5 190.606,-369.5 190.606,-348.5 137.606,-348.5"/>
<text text-anchor="middle" x="164.106" y="-356.5" font-family="Helvetica,sans-Serif" font-size="10.00">rowcol.h</text>
</a>
</g>
<!-- Node4&#45;&gt;Node14 -->
<g id="edge42" class="edge"><title>Node4&#45;&gt;Node14</title>
<path fill="none" stroke="midnightblue" d="M160.023,-406.362C160.665,-398.922 161.542,-388.743 162.32,-379.728"/>
<polygon fill="midnightblue" stroke="midnightblue" points="165.823,-379.834 163.195,-369.571 158.849,-379.233 165.823,-379.834"/>
</g>
<!-- Node7 -->
<g id="node14" class="node"><title>Node7</title>
<polygon fill="white" stroke="#bfbfbf" points="720.606,-0.5 720.606,-21.5 787.606,-21.5 787.606,-0.5 720.606,-0.5"/>
<text text-anchor="middle" x="754.106" y="-8.5" font-family="Helvetica,sans-Serif" font-size="10.00">basicmod.h</text>
</g>
<!-- Node6&#45;&gt;Node7 -->
<g id="edge14" class="edge"><title>Node6&#45;&gt;Node7</title>
<path fill="none" stroke="midnightblue" d="M352.83,-290.37C342.739,-281.614 329.247,-268.344 321.106,-254 305.407,-226.336 302.106,-216.808 302.106,-185 302.106,-185 302.106,-185 302.106,-127 302.106,-43.2326 597.047,-19.1053 710.429,-12.925"/>
<polygon fill="midnightblue" stroke="midnightblue" points="710.699,-16.4157 720.502,-12.3974 710.333,-9.42533 710.699,-16.4157"/>
</g>
<!-- Node8 -->
<g id="node16" class="node"><title>Node8</title>
<a xlink:href="compoundkey_8h.html" target="_top" xlink:title="compoundkey.h">
<polygon fill="white" stroke="black" points="330.106,-232.5 330.106,-253.5 416.106,-253.5 416.106,-232.5 330.106,-232.5"/>
<text text-anchor="middle" x="373.106" y="-240.5" font-family="Helvetica,sans-Serif" font-size="10.00">compoundkey.h</text>
</a>
</g>
<!-- Node6&#45;&gt;Node8 -->
<g id="edge16" class="edge"><title>Node6&#45;&gt;Node8</title>
<path fill="none" stroke="midnightblue" d="M367.39,-290.362C368.288,-282.922 369.517,-272.743 370.605,-263.728"/>
<polygon fill="midnightblue" stroke="midnightblue" points="374.107,-263.918 371.831,-253.571 367.158,-263.079 374.107,-263.918"/>
</g>
<!-- Node10 -->
<g id="node22" class="node"><title>Node10</title>
<a xlink:href="fixedstring_8h.html" target="_top" xlink:title="fixedstring.h">
<polygon fill="white" stroke="red" points="1048.11,-116.5 1048.11,-137.5 1118.11,-137.5 1118.11,-116.5 1048.11,-116.5"/>
<text text-anchor="middle" x="1083.11" y="-124.5" font-family="Helvetica,sans-Serif" font-size="10.00">fixedstring.h</text>
</a>
</g>
<!-- Node6&#45;&gt;Node10 -->
<g id="edge40" class="edge"><title>Node6&#45;&gt;Node10</title>
<path fill="none" stroke="midnightblue" d="M392.857,-298.263C524.206,-284.7 1095.54,-224.225 1120.11,-196 1133.48,-180.633 1118.51,-159.61 1103.81,-144.82"/>
<polygon fill="midnightblue" stroke="midnightblue" points="1105.96,-142.041 1096.29,-137.717 1101.15,-147.129 1105.96,-142.041"/>
</g>
<!-- Node11 -->
<g id="node25" class="node"><title>Node11</title>
<a xlink:href="string2_8h.html" target="_top" xlink:title="string2.h">
<polygon fill="white" stroke="red" points="719.106,-116.5 719.106,-137.5 773.106,-137.5 773.106,-116.5 719.106,-116.5"/>
<text text-anchor="middle" x="746.106" y="-124.5" font-family="Helvetica,sans-Serif" font-size="10.00">string2.h</text>
</a>
</g>
<!-- Node6&#45;&gt;Node11 -->
<g id="edge38" class="edge"><title>Node6&#45;&gt;Node11</title>
<path fill="none" stroke="midnightblue" d="M392.708,-292.481C419.084,-283.761 460.454,-269.348 495.106,-254 564.908,-223.085 578.832,-208.155 647.106,-174 669.232,-162.931 694.423,-150.981 713.856,-141.901"/>
<polygon fill="midnightblue" stroke="midnightblue" points="715.584,-144.957 723.171,-137.562 712.628,-138.612 715.584,-144.957"/>
</g>
<!-- Node8&#45;&gt;Node7 -->
<g id="edge18" class="edge"><title>Node8&#45;&gt;Node7</title>
<path fill="none" stroke="midnightblue" d="M377.671,-232.489C392.192,-200.408 440.66,-103.198 513.106,-58 545.415,-37.8432 650.012,-22.929 710.259,-15.7577"/>
<polygon fill="midnightblue" stroke="midnightblue" points="710.721,-19.2276 720.247,-14.5913 709.909,-12.2749 710.721,-19.2276"/>
</g>
<!-- Node9 -->
<g id="node19" class="node"><title>Node9</title>
<a xlink:href="bufstring_8h.html" target="_top" xlink:title="bufstring.h">
<polygon fill="white" stroke="black" points="656.106,-174.5 656.106,-195.5 718.106,-195.5 718.106,-174.5 656.106,-174.5"/>
<text text-anchor="middle" x="687.106" y="-182.5" font-family="Helvetica,sans-Serif" font-size="10.00">bufstring.h</text>
</a>
</g>
<!-- Node8&#45;&gt;Node9 -->
<g id="edge20" class="edge"><title>Node8&#45;&gt;Node9</title>
<path fill="none" stroke="midnightblue" d="M416.216,-233.773C419.222,-233.163 422.208,-232.566 425.106,-232 502.967,-216.785 594.223,-200.84 645.895,-191.987"/>
<polygon fill="midnightblue" stroke="midnightblue" points="646.726,-195.396 655.993,-190.26 645.546,-188.496 646.726,-195.396"/>
</g>
<!-- Node9&#45;&gt;Node7 -->
<g id="edge22" class="edge"><title>Node9&#45;&gt;Node7</title>
<path fill="none" stroke="midnightblue" d="M690.507,-174.179C694.841,-160.538 702.666,-136.405 710.106,-116 719.606,-89.9472 722.337,-83.5539 733.106,-58 736.857,-49.1004 741.183,-39.3395 744.931,-31.0302"/>
<polygon fill="midnightblue" stroke="midnightblue" points="748.188,-32.3224 749.137,-21.7701 741.815,-29.4273 748.188,-32.3224"/>
</g>
<!-- Node9&#45;&gt;Node10 -->
<g id="edge24" class="edge"><title>Node9&#45;&gt;Node10</title>
<path fill="none" stroke="midnightblue" d="M718.295,-180.515C775.937,-172.215 903.04,-153.856 1010.11,-138 1019.04,-136.677 1028.59,-135.248 1037.74,-133.873"/>
<polygon fill="midnightblue" stroke="midnightblue" points="1038.47,-137.302 1047.84,-132.351 1037.43,-130.38 1038.47,-137.302"/>
</g>
<!-- Node9&#45;&gt;Node11 -->
<g id="edge28" class="edge"><title>Node9&#45;&gt;Node11</title>
<path fill="none" stroke="midnightblue" d="M697.928,-174.362C706.328,-166.104 718.16,-154.472 727.997,-144.803"/>
<polygon fill="midnightblue" stroke="midnightblue" points="730.676,-147.077 735.353,-137.571 725.769,-142.085 730.676,-147.077"/>
</g>
<!-- Node10&#45;&gt;Node7 -->
<g id="edge26" class="edge"><title>Node10&#45;&gt;Node7</title>
<path fill="none" stroke="midnightblue" d="M1069.44,-116.426C1049.12,-101.228 1009.24,-73.3521 971.106,-58 913.549,-34.8289 842.583,-22.215 797.824,-16.0429"/>
<polygon fill="midnightblue" stroke="midnightblue" points="798.235,-12.5668 787.861,-14.7158 797.311,-19.5055 798.235,-12.5668"/>
</g>
<!-- Node11&#45;&gt;Node7 -->
<g id="edge30" class="edge"><title>Node11&#45;&gt;Node7</title>
<path fill="none" stroke="midnightblue" d="M743.311,-116.198C740.175,-102.577 735.92,-78.4633 739.106,-58 740.515,-48.9549 743.362,-39.2705 746.2,-31.057"/>
<polygon fill="midnightblue" stroke="midnightblue" points="749.512,-32.1923 749.683,-21.5988 742.943,-29.7736 749.512,-32.1923"/>
</g>
<!-- Node12 -->
<g id="node28" class="node"><title>Node12</title>
<a xlink:href="plftypes_8h.html" target="_top" xlink:title="plftypes.h">
<polygon fill="white" stroke="red" points="883.606,-58.5 883.606,-79.5 942.606,-79.5 942.606,-58.5 883.606,-58.5"/>
<text text-anchor="middle" x="913.106" y="-66.5" font-family="Helvetica,sans-Serif" font-size="10.00">plftypes.h</text>
</a>
</g>
<!-- Node11&#45;&gt;Node12 -->
<g id="edge32" class="edge"><title>Node11&#45;&gt;Node12</title>
<path fill="none" stroke="midnightblue" d="M773.309,-117.552C800.581,-108.081 842.849,-93.4008 873.771,-82.6613"/>
<polygon fill="midnightblue" stroke="midnightblue" points="875.081,-85.9117 883.379,-79.3246 872.784,-79.2992 875.081,-85.9117"/>
</g>
<!-- Node13 -->
<g id="node30" class="node"><title>Node13</title>
<a xlink:href="commondefs_8h.html" target="_top" xlink:title="commondefs.h">
<polygon fill="white" stroke="red" points="747.606,-58.5 747.606,-79.5 828.606,-79.5 828.606,-58.5 747.606,-58.5"/>
<text text-anchor="middle" x="788.106" y="-66.5" font-family="Helvetica,sans-Serif" font-size="10.00">commondefs.h</text>
</a>
</g>
<!-- Node11&#45;&gt;Node13 -->
<g id="edge34" class="edge"><title>Node11&#45;&gt;Node13</title>
<path fill="none" stroke="midnightblue" d="M753.81,-116.362C759.553,-108.431 767.549,-97.3885 774.376,-87.9606"/>
<polygon fill="midnightblue" stroke="midnightblue" points="777.421,-89.7229 780.452,-79.5707 771.752,-85.6173 777.421,-89.7229"/>
</g>
<!-- Node13&#45;&gt;Node7 -->
<g id="edge36" class="edge"><title>Node13&#45;&gt;Node7</title>
<path fill="none" stroke="midnightblue" d="M781.87,-58.3619C777.269,-50.5131 770.881,-39.6159 765.392,-30.2527"/>
<polygon fill="midnightblue" stroke="midnightblue" points="768.38,-28.4276 760.303,-21.5707 762.341,-31.9677 768.38,-28.4276"/>
</g>
<!-- Node14&#45;&gt;Node7 -->
<g id="edge44" class="edge"><title>Node14&#45;&gt;Node7</title>
<path fill="none" stroke="midnightblue" d="M142.7,-348.325C128.286,-340.156 109.836,-327.644 98.1064,-312 78.6288,-286.022 74.1064,-275.469 74.1064,-243 74.1064,-243 74.1064,-243 74.1064,-127 74.1064,-94.5312 72.3332,-77.7475 98.1064,-58 146.524,-20.902 571.164,-12.9894 710.227,-11.3871"/>
<polygon fill="midnightblue" stroke="midnightblue" points="710.542,-14.884 720.503,-11.2743 710.465,-7.8844 710.542,-14.884"/>
</g>
<!-- Node15 -->
<g id="node38" class="node"><title>Node15</title>
<a xlink:href="posidxpair_8h.html" target="_top" xlink:title="posidxpair.h">
<polygon fill="white" stroke="black" points="253.606,-290.5 253.606,-311.5 322.606,-311.5 322.606,-290.5 253.606,-290.5"/>
<text text-anchor="middle" x="288.106" y="-298.5" font-family="Helvetica,sans-Serif" font-size="10.00">posidxpair.h</text>
</a>
</g>
<!-- Node14&#45;&gt;Node15 -->
<g id="edge46" class="edge"><title>Node14&#45;&gt;Node15</title>
<path fill="none" stroke="midnightblue" d="M186.562,-348.497C206.016,-339.397 234.386,-326.127 256.197,-315.925"/>
<polygon fill="midnightblue" stroke="midnightblue" points="257.824,-319.028 265.399,-311.621 254.858,-312.688 257.824,-319.028"/>
</g>
<!-- Node15&#45;&gt;Node7 -->
<g id="edge48" class="edge"><title>Node15&#45;&gt;Node7</title>
<path fill="none" stroke="midnightblue" d="M284.356,-290.279C277.606,-269.993 264.106,-224.486 264.106,-185 264.106,-185 264.106,-185 264.106,-127 264.106,-82.356 296.615,-76.8028 337.106,-58 402.64,-27.5682 616.968,-16.0784 710.167,-12.447"/>
<polygon fill="midnightblue" stroke="midnightblue" points="710.526,-15.936 720.387,-12.0615 710.262,-8.94098 710.526,-15.936"/>
</g>
<!-- Node16 -->
<g id="node41" class="node"><title>Node16</title>
<a xlink:href="idxpair_8h.html" target="_top" xlink:title="idxpair.h">
<polygon fill="white" stroke="black" points="433.606,-232.5 433.606,-253.5 486.606,-253.5 486.606,-232.5 433.606,-232.5"/>
<text text-anchor="middle" x="460.106" y="-240.5" font-family="Helvetica,sans-Serif" font-size="10.00">idxpair.h</text>
</a>
</g>
<!-- Node15&#45;&gt;Node16 -->
<g id="edge50" class="edge"><title>Node15&#45;&gt;Node16</title>
<path fill="none" stroke="midnightblue" d="M319.254,-290.497C348.693,-280.57 392.848,-265.68 423.854,-255.225"/>
<polygon fill="midnightblue" stroke="midnightblue" points="425.066,-258.51 433.424,-251.998 422.83,-251.876 425.066,-258.51"/>
</g>
<!-- Node16&#45;&gt;Node7 -->
<g id="edge52" class="edge"><title>Node16&#45;&gt;Node7</title>
<path fill="none" stroke="midnightblue" d="M460.989,-232.414C464.298,-200.117 479.002,-102.352 538.106,-58 564.853,-37.9292 655.28,-23.4043 710.293,-16.1756"/>
<polygon fill="midnightblue" stroke="midnightblue" points="710.99,-19.615 720.462,-14.8694 710.098,-12.6721 710.99,-19.615"/>
</g>
<!-- Node17 -->
<g id="node44" class="node"><title>Node17</title>
<a xlink:href="gendefs_8h.html" target="_top" xlink:title="gendefs.h">
<polygon fill="white" stroke="red" points="940.606,-174.5 940.606,-195.5 999.606,-195.5 999.606,-174.5 940.606,-174.5"/>
<text text-anchor="middle" x="970.106" y="-182.5" font-family="Helvetica,sans-Serif" font-size="10.00">gendefs.h</text>
</a>
</g>
<!-- Node16&#45;&gt;Node17 -->
<g id="edge54" class="edge"><title>Node16&#45;&gt;Node17</title>
<path fill="none" stroke="midnightblue" d="M486.808,-239.963C570.936,-230.396 830.804,-200.842 930.556,-189.498"/>
<polygon fill="midnightblue" stroke="midnightblue" points="930.99,-192.971 940.53,-188.364 930.199,-186.016 930.99,-192.971"/>
</g>
<!-- Node19 -->
<g id="node51" class="node"><title>Node19</title>
<polygon fill="white" stroke="#bfbfbf" points="484.106,-174.5 484.106,-195.5 524.106,-195.5 524.106,-174.5 484.106,-174.5"/>
<text text-anchor="middle" x="504.106" y="-182.5" font-family="Helvetica,sans-Serif" font-size="10.00">utility</text>
</g>
<!-- Node16&#45;&gt;Node19 -->
<g id="edge64" class="edge"><title>Node16&#45;&gt;Node19</title>
<path fill="none" stroke="midnightblue" d="M468.177,-232.362C474.255,-224.35 482.743,-213.161 489.943,-203.67"/>
<polygon fill="midnightblue" stroke="midnightblue" points="492.832,-205.653 496.087,-195.571 487.255,-201.422 492.832,-205.653"/>
</g>
<!-- Node18 -->
<g id="node46" class="node"><title>Node18</title>
<a xlink:href="undefval_8h.html" target="_top" xlink:title="undefval.h">
<polygon fill="white" stroke="black" points="939.106,-116.5 939.106,-137.5 1001.11,-137.5 1001.11,-116.5 939.106,-116.5"/>
<text text-anchor="middle" x="970.106" y="-124.5" font-family="Helvetica,sans-Serif" font-size="10.00">undefval.h</text>
</a>
</g>
<!-- Node17&#45;&gt;Node18 -->
<g id="edge56" class="edge"><title>Node17&#45;&gt;Node18</title>
<path fill="none" stroke="midnightblue" d="M970.106,-174.362C970.106,-166.922 970.106,-156.743 970.106,-147.728"/>
<polygon fill="midnightblue" stroke="midnightblue" points="973.606,-147.571 970.106,-137.571 966.606,-147.571 973.606,-147.571"/>
</g>
<!-- Node18&#45;&gt;Node7 -->
<g id="edge58" class="edge"><title>Node18&#45;&gt;Node7</title>
<path fill="none" stroke="midnightblue" d="M970.33,-116.476C970.05,-101.339 967.191,-73.5393 951.106,-58 929.518,-37.1443 849.098,-23.2015 797.924,-16.2275"/>
<polygon fill="midnightblue" stroke="midnightblue" points="798.165,-12.729 787.792,-14.8853 797.246,-19.6684 798.165,-12.729"/>
</g>
<!-- Node18&#45;&gt;Node12 -->
<g id="edge62" class="edge"><title>Node18&#45;&gt;Node12</title>
<path fill="none" stroke="midnightblue" d="M959.652,-116.362C951.536,-108.104 940.105,-96.4725 930.602,-86.8029"/>
<polygon fill="midnightblue" stroke="midnightblue" points="933,-84.2497 923.495,-79.5707 928.008,-89.1562 933,-84.2497"/>
</g>
<!-- Node18&#45;&gt;Node13 -->
<g id="edge60" class="edge"><title>Node18&#45;&gt;Node13</title>
<path fill="none" stroke="midnightblue" d="M938.819,-117.029C909.069,-107.549 864.074,-93.2096 830.99,-82.6663"/>
<polygon fill="midnightblue" stroke="midnightblue" points="831.726,-79.2274 821.135,-79.5257 829.6,-85.8969 831.726,-79.2274"/>
</g>
<!-- Node20&#45;&gt;Node7 -->
<g id="edge68" class="edge"><title>Node20&#45;&gt;Node7</title>
<path fill="none" stroke="midnightblue" d="M726.344,-414.638C629.247,-405.906 306.368,-372.773 225.106,-312 197.24,-291.16 188.106,-277.797 188.106,-243 188.106,-243 188.106,-243 188.106,-127 188.106,-87.2228 209.939,-76.5871 245.106,-58 285.764,-36.5112 594.276,-19.008 710.233,-13.1241"/>
<polygon fill="midnightblue" stroke="midnightblue" points="710.705,-16.6049 720.516,-12.6072 710.353,-9.61374 710.705,-16.6049"/>
</g>
<!-- Node21 -->
<g id="node56" class="node"><title>Node21</title>
<a xlink:href="bufstringset_8h.html" target="_top" xlink:title="bufstringset.h">
<polygon fill="white" stroke="red" points="576.106,-290.5 576.106,-311.5 652.106,-311.5 652.106,-290.5 576.106,-290.5"/>
<text text-anchor="middle" x="614.106" y="-298.5" font-family="Helvetica,sans-Serif" font-size="10.00">bufstringset.h</text>
</a>
</g>
<!-- Node20&#45;&gt;Node21 -->
<g id="edge70" class="edge"><title>Node20&#45;&gt;Node21</title>
<path fill="none" stroke="midnightblue" d="M738.772,-406.415C725.594,-397.159 706.223,-383.174 690.106,-370 669.85,-353.441 647.831,-333.182 632.734,-318.912"/>
<polygon fill="midnightblue" stroke="midnightblue" points="634.772,-316.019 625.114,-311.662 629.947,-321.091 634.772,-316.019"/>
</g>
<!-- Node22 -->
<g id="node60" class="node"><title>Node22</title>
<a xlink:href="perthreadrepos_8h.html" target="_top" xlink:title="perthreadrepos.h">
<polygon fill="white" stroke="red" points="511.606,-348.5 511.606,-369.5 600.606,-369.5 600.606,-348.5 511.606,-348.5"/>
<text text-anchor="middle" x="556.106" y="-356.5" font-family="Helvetica,sans-Serif" font-size="10.00">perthreadrepos.h</text>
</a>
</g>
<!-- Node20&#45;&gt;Node22 -->
<g id="edge76" class="edge"><title>Node20&#45;&gt;Node22</title>
<path fill="none" stroke="midnightblue" d="M726.575,-408.935C694.386,-399.506 640.612,-383.754 602.064,-372.462"/>
<polygon fill="midnightblue" stroke="midnightblue" points="602.701,-369.002 592.121,-369.55 600.733,-375.72 602.701,-369.002"/>
</g>
<!-- Node24 -->
<g id="node68" class="node"><title>Node24</title>
<a xlink:href="ptrman_8h.html" target="_top" xlink:title="ptrman.h">
<polygon fill="white" stroke="red" points="1097.61,-232.5 1097.61,-253.5 1152.61,-253.5 1152.61,-232.5 1097.61,-232.5"/>
<text text-anchor="middle" x="1125.11" y="-240.5" font-family="Helvetica,sans-Serif" font-size="10.00">ptrman.h</text>
</a>
</g>
<!-- Node20&#45;&gt;Node24 -->
<g id="edge88" class="edge"><title>Node20&#45;&gt;Node24</title>
<path fill="none" stroke="midnightblue" d="M778.985,-406.385C821.138,-388.201 909.047,-349.425 981.106,-312 998.425,-303.005 1001.72,-298.857 1019.11,-290 1042.18,-278.248 1068.83,-266.44 1089.63,-257.599"/>
<polygon fill="midnightblue" stroke="midnightblue" points="1091.18,-260.743 1099.04,-253.634 1088.47,-254.293 1091.18,-260.743"/>
</g>
<!-- Node25 -->
<g id="node71" class="node"><title>Node25</title>
<a xlink:href="typeset_8h.html" target="_top" xlink:title="typeset.h">
<polygon fill="white" stroke="red" points="1109.61,-290.5 1109.61,-311.5 1166.61,-311.5 1166.61,-290.5 1109.61,-290.5"/>
<text text-anchor="middle" x="1138.11" y="-298.5" font-family="Helvetica,sans-Serif" font-size="10.00">typeset.h</text>
</a>
</g>
<!-- Node20&#45;&gt;Node25 -->
<g id="edge92" class="edge"><title>Node20&#45;&gt;Node25</title>
<path fill="none" stroke="midnightblue" d="M781.723,-408.658C849.118,-388.299 1022.14,-336.031 1099.61,-312.631"/>
<polygon fill="midnightblue" stroke="midnightblue" points="1100.88,-315.901 1109.44,-309.659 1098.86,-309.2 1100.88,-315.901"/>
</g>
<!-- Node27 -->
<g id="node76" class="node"><title>Node27</title>
<a xlink:href="uistring_8h.html" target="_top" xlink:title="uistring.h">
<polygon fill="white" stroke="red" points="732.106,-348.5 732.106,-369.5 788.106,-369.5 788.106,-348.5 732.106,-348.5"/>
<text text-anchor="middle" x="760.106" y="-356.5" font-family="Helvetica,sans-Serif" font-size="10.00">uistring.h</text>
</a>
</g>
<!-- Node20&#45;&gt;Node27 -->
<g id="edge98" class="edge"><title>Node20&#45;&gt;Node27</title>
<path fill="none" stroke="midnightblue" d="M755.207,-406.362C755.977,-398.922 757.03,-388.743 757.962,-379.728"/>
<polygon fill="midnightblue" stroke="midnightblue" points="761.465,-379.878 759.013,-369.571 754.502,-379.157 761.465,-379.878"/>
</g>
<!-- Node21&#45;&gt;Node7 -->
<g id="edge72" class="edge"><title>Node21&#45;&gt;Node7</title>
<path fill="none" stroke="midnightblue" d="M610.356,-290.279C603.606,-269.993 590.106,-224.486 590.106,-185 590.106,-185 590.106,-185 590.106,-127 590.106,-67.7822 662.258,-36.087 710.847,-21.4565"/>
<polygon fill="midnightblue" stroke="midnightblue" points="711.881,-24.8012 720.523,-18.6722 709.945,-18.0742 711.881,-24.8012"/>
</g>
<!-- Node21&#45;&gt;Node9 -->
<g id="edge74" class="edge"><title>Node21&#45;&gt;Node9</title>
<path fill="none" stroke="midnightblue" d="M620.843,-290.295C633.175,-270.7 659.53,-228.82 675.029,-204.191"/>
<polygon fill="midnightblue" stroke="midnightblue" points="678.022,-206.007 680.386,-195.679 672.097,-202.279 678.022,-206.007"/>
</g>
<!-- Node22&#45;&gt;Node7 -->
<g id="edge78" class="edge"><title>Node22&#45;&gt;Node7</title>
<path fill="none" stroke="midnightblue" d="M511.313,-353.532C427.611,-343.134 254.983,-320.769 245.106,-312 221.32,-290.882 226.106,-274.808 226.106,-243 226.106,-243 226.106,-243 226.106,-127 226.106,-86.0677 250.679,-76.6683 287.106,-58 324.296,-38.9412 601.738,-20.2482 710.525,-13.5721"/>
<polygon fill="midnightblue" stroke="midnightblue" points="710.744,-17.0653 720.512,-12.9639 710.318,-10.0783 710.744,-17.0653"/>
</g>
<!-- Node23 -->
<g id="node63" class="node"><title>Node23</title>
<a xlink:href="threadlock_8h.html" target="_top" xlink:title="threadlock.h">
<polygon fill="white" stroke="black" points="782.106,-290.5 782.106,-311.5 852.106,-311.5 852.106,-290.5 782.106,-290.5"/>
<text text-anchor="middle" x="817.106" y="-298.5" font-family="Helvetica,sans-Serif" font-size="10.00">threadlock.h</text>
</a>
</g>
<!-- Node22&#45;&gt;Node23 -->
<g id="edge80" class="edge"><title>Node22&#45;&gt;Node23</title>
<path fill="none" stroke="midnightblue" d="M600.677,-349.095C648.524,-338.463 724.111,-321.666 772.118,-310.997"/>
<polygon fill="midnightblue" stroke="midnightblue" points="772.921,-314.404 781.924,-308.818 771.403,-307.571 772.921,-314.404"/>
</g>
<!-- Node23&#45;&gt;Node7 -->
<g id="edge82" class="edge"><title>Node23&#45;&gt;Node7</title>
<path fill="none" stroke="midnightblue" d="M823.372,-290.211C834.397,-270.18 856.106,-225.581 856.106,-185 856.106,-185 856.106,-185 856.106,-127 856.106,-95.1919 856.662,-83.0866 837.106,-58 826.146,-43.9397 809.726,-33.3932 794.376,-25.8917"/>
<polygon fill="midnightblue" stroke="midnightblue" points="795.565,-22.5869 785.015,-21.6102 792.653,-28.9526 795.565,-22.5869"/>
</g>
<!-- Node23&#45;&gt;Node12 -->
<g id="edge86" class="edge"><title>Node23&#45;&gt;Node12</title>
<path fill="none" stroke="midnightblue" d="M833.712,-290.445C845.629,-282.007 861.112,-269.112 870.106,-254 901.758,-200.818 910.112,-126.177 912.316,-90.1285"/>
<polygon fill="midnightblue" stroke="midnightblue" points="915.826,-90.0213 912.838,-79.8567 908.835,-89.6663 915.826,-90.0213"/>
</g>
<!-- Node23&#45;&gt;Node13 -->
<g id="edge84" class="edge"><title>Node23&#45;&gt;Node13</title>
<path fill="none" stroke="midnightblue" d="M815.785,-290.429C811.312,-254.648 796.689,-137.663 790.7,-89.7481"/>
<polygon fill="midnightblue" stroke="midnightblue" points="794.149,-89.1221 789.436,-79.6335 787.203,-89.9904 794.149,-89.1221"/>
</g>
<!-- Node24&#45;&gt;Node17 -->
<g id="edge90" class="edge"><title>Node24&#45;&gt;Node17</title>
<path fill="none" stroke="midnightblue" d="M1097.4,-232.631C1072.5,-223.315 1035.72,-209.552 1008.09,-199.213"/>
<polygon fill="midnightblue" stroke="midnightblue" points="1008.95,-195.8 998.363,-195.573 1006.5,-202.356 1008.95,-195.8"/>
</g>
<!-- Node26 -->
<g id="node73" class="node"><title>Node26</title>
<a xlink:href="vectoraccess_8h.html" target="_top" xlink:title="vectoraccess.h">
<polygon fill="white" stroke="red" points="997.606,-232.5 997.606,-253.5 1080.61,-253.5 1080.61,-232.5 997.606,-232.5"/>
<text text-anchor="middle" x="1039.11" y="-240.5" font-family="Helvetica,sans-Serif" font-size="10.00">vectoraccess.h</text>
</a>
</g>
<!-- Node25&#45;&gt;Node26 -->
<g id="edge94" class="edge"><title>Node25&#45;&gt;Node26</title>
<path fill="none" stroke="midnightblue" d="M1119.95,-290.362C1104.88,-281.532 1083.22,-268.844 1066.11,-258.822"/>
<polygon fill="midnightblue" stroke="midnightblue" points="1067.55,-255.606 1057.15,-253.571 1064.01,-261.646 1067.55,-255.606"/>
</g>
<!-- Node26&#45;&gt;Node17 -->
<g id="edge96" class="edge"><title>Node26&#45;&gt;Node17</title>
<path fill="none" stroke="midnightblue" d="M1026.45,-232.362C1016.43,-223.941 1002.24,-212.011 990.605,-202.231"/>
<polygon fill="midnightblue" stroke="midnightblue" points="992.589,-199.326 982.682,-195.571 988.085,-204.684 992.589,-199.326"/>
</g>
<!-- Node27&#45;&gt;Node11 -->
<g id="edge104" class="edge"><title>Node27&#45;&gt;Node11</title>
<path fill="none" stroke="midnightblue" d="M759.468,-348.429C757.309,-312.648 750.25,-195.663 747.358,-147.748"/>
<polygon fill="midnightblue" stroke="midnightblue" points="750.844,-147.404 746.748,-137.634 743.857,-147.826 750.844,-147.404"/>
</g>
<!-- Node27&#45;&gt;Node17 -->
<g id="edge100" class="edge"><title>Node27&#45;&gt;Node17</title>
<path fill="none" stroke="midnightblue" d="M788.442,-349.543C809.728,-341.59 838.911,-328.822 861.106,-312 902.535,-280.601 939.294,-231.063 957.676,-204.073"/>
<polygon fill="midnightblue" stroke="midnightblue" points="960.738,-205.791 963.389,-195.534 954.92,-201.899 960.738,-205.791"/>
</g>
<!-- Node27&#45;&gt;Node23 -->
<g id="edge102" class="edge"><title>Node27&#45;&gt;Node23</title>
<path fill="none" stroke="midnightblue" d="M770.561,-348.362C778.676,-340.104 790.108,-328.472 799.61,-318.803"/>
<polygon fill="midnightblue" stroke="midnightblue" points="802.205,-321.156 806.718,-311.571 797.212,-316.25 802.205,-321.156"/>
</g>
<!-- Node27&#45;&gt;Node25 -->
<g id="edge106" class="edge"><title>Node27&#45;&gt;Node25</title>
<path fill="none" stroke="midnightblue" d="M788.205,-356.586C845.298,-351.37 979.03,-337.574 1099.76,-312.06"/>
<polygon fill="midnightblue" stroke="midnightblue" points="1100.49,-315.482 1109.53,-309.962 1099.02,-308.638 1100.49,-315.482"/>
</g>
<!-- Node28&#45;&gt;Node25 -->
<g id="edge110" class="edge"><title>Node28&#45;&gt;Node25</title>
<path fill="none" stroke="midnightblue" d="M1165.87,-348.362C1161.27,-340.513 1154.88,-329.616 1149.39,-320.253"/>
<polygon fill="midnightblue" stroke="midnightblue" points="1152.38,-318.428 1144.3,-311.571 1146.34,-321.968 1152.38,-318.428"/>
</g>
<!-- Node29 -->
<g id="node85" class="node"><title>Node29</title>
<a xlink:href="objectset_8h.html" target="_top" xlink:title="objectset.h">
<polygon fill="white" stroke="red" points="1027.61,-290.5 1027.61,-311.5 1092.61,-311.5 1092.61,-290.5 1027.61,-290.5"/>
<text text-anchor="middle" x="1060.11" y="-298.5" font-family="Helvetica,sans-Serif" font-size="10.00">objectset.h</text>
</a>
</g>
<!-- Node28&#45;&gt;Node29 -->
<g id="edge112" class="edge"><title>Node28&#45;&gt;Node29</title>
<path fill="none" stroke="midnightblue" d="M1151.82,-348.497C1134.49,-339.519 1109.32,-326.484 1089.73,-316.339"/>
<polygon fill="midnightblue" stroke="midnightblue" points="1091.11,-313.112 1080.62,-311.621 1087.89,-319.328 1091.11,-313.112"/>
</g>
<!-- Node29&#45;&gt;Node26 -->
<g id="edge114" class="edge"><title>Node29&#45;&gt;Node26</title>
<path fill="none" stroke="midnightblue" d="M1056.25,-290.362C1053.5,-282.758 1049.71,-272.294 1046.4,-263.135"/>
<polygon fill="midnightblue" stroke="midnightblue" points="1049.63,-261.782 1042.93,-253.571 1043.05,-264.165 1049.63,-261.782"/>
</g>
<!-- Node30&#45;&gt;Node17 -->
<g id="edge118" class="edge"><title>Node30&#45;&gt;Node17</title>
<path fill="none" stroke="midnightblue" d="M942.875,-290.295C947.853,-271.045 958.394,-230.289 964.802,-205.509"/>
<polygon fill="midnightblue" stroke="midnightblue" points="968.229,-206.237 967.345,-195.679 961.452,-204.484 968.229,-206.237"/>
</g>
<!-- Node30&#45;&gt;Node26 -->
<g id="edge120" class="edge"><title>Node30&#45;&gt;Node26</title>
<path fill="none" stroke="midnightblue" d="M958.265,-290.362C973.336,-281.532 994.993,-268.844 1012.1,-258.822"/>
<polygon fill="midnightblue" stroke="midnightblue" points="1014.2,-261.646 1021.06,-253.571 1010.67,-255.606 1014.2,-261.646"/>
</g>
<!-- Node31&#45;&gt;Node7 -->
<g id="edge124" class="edge"><title>Node31&#45;&gt;Node7</title>
<path fill="none" stroke="midnightblue" d="M645.105,-529.794C555.684,-516.608 219.495,-465.494 119.106,-428 70.9749,-410.023 50.4841,-410.685 19.1064,-370 -0.319145,-344.813 0.106382,-332.808 0.106382,-301 0.106382,-301 0.106382,-301 0.106382,-127 0.106382,-81.3778 34.1424,-75.8999 76.1064,-58 134.208,-33.2165 569.513,-17.0087 710.314,-12.371"/>
<polygon fill="midnightblue" stroke="midnightblue" points="710.44,-15.8688 720.32,-12.0446 710.212,-8.87257 710.44,-15.8688"/>
</g>
<!-- Node31&#45;&gt;Node23 -->
<g id="edge146" class="edge"><title>Node31&#45;&gt;Node23</title>
<path fill="none" stroke="midnightblue" d="M667.285,-522.274C668.373,-491.215 675.662,-400.106 723.106,-348 736.373,-333.43 755.176,-322.788 772.483,-315.354"/>
<polygon fill="midnightblue" stroke="midnightblue" points="773.939,-318.54 781.899,-311.549 771.316,-312.05 773.939,-318.54"/>
</g>
<!-- Node31&#45;&gt;Node27 -->
<g id="edge148" class="edge"><title>Node31&#45;&gt;Node27</title>
<path fill="none" stroke="midnightblue" d="M670.051,-522.209C676.526,-499.537 693.419,-445.767 718.106,-406 724.58,-395.573 733.442,-385.261 741.358,-376.965"/>
<polygon fill="midnightblue" stroke="midnightblue" points="744.008,-379.263 748.549,-369.69 739.03,-374.342 744.008,-379.263"/>
</g>
<!-- Node31&#45;&gt;Node29 -->
<g id="edge144" class="edge"><title>Node31&#45;&gt;Node29</title>
<path fill="none" stroke="midnightblue" d="M685.014,-522.429C747.799,-485.365 958.186,-361.167 1033.23,-316.866"/>
<polygon fill="midnightblue" stroke="midnightblue" points="1035.26,-319.731 1042.09,-311.634 1031.7,-313.703 1035.26,-319.731"/>
</g>
<!-- Node32 -->
<g id="node95" class="node"><title>Node32</title>
<a xlink:href="namedobj_8h.html" target="_top" xlink:title="namedobj.h">
<polygon fill="white" stroke="black" points="511.606,-464.5 511.606,-485.5 578.606,-485.5 578.606,-464.5 511.606,-464.5"/>
<text text-anchor="middle" x="545.106" y="-472.5" font-family="Helvetica,sans-Serif" font-size="10.00">namedobj.h</text>
</a>
</g>
<!-- Node31&#45;&gt;Node32 -->
<g id="edge126" class="edge"><title>Node31&#45;&gt;Node32</title>
<path fill="none" stroke="midnightblue" d="M645.013,-522.497C625.872,-513.397 597.96,-500.127 576.501,-489.925"/>
<polygon fill="midnightblue" stroke="midnightblue" points="577.982,-486.754 567.448,-485.621 574.976,-493.076 577.982,-486.754"/>
</g>
<!-- Node32&#45;&gt;Node7 -->
<g id="edge128" class="edge"><title>Node32&#45;&gt;Node7</title>
<path fill="none" stroke="midnightblue" d="M511.523,-465.681C445.557,-446.081 296.903,-395.397 198.106,-312 169.56,-287.903 150.106,-280.357 150.106,-243 150.106,-243 150.106,-243 150.106,-127 150.106,-87.783 170.534,-76.5124 205.106,-58 249.202,-34.3882 587.703,-17.9859 710.113,-12.7735"/>
<polygon fill="midnightblue" stroke="midnightblue" points="710.409,-16.2643 720.253,-12.3464 710.114,-9.27047 710.409,-16.2643"/>
</g>
<!-- Node32&#45;&gt;Node9 -->
<g id="edge142" class="edge"><title>Node32&#45;&gt;Node9</title>
<path fill="none" stroke="midnightblue" d="M536.227,-464.199C519.079,-441.951 484.66,-389.612 503.106,-348 534.446,-277.304 613.607,-225.023 657.189,-200.508"/>
<polygon fill="midnightblue" stroke="midnightblue" points="659.101,-203.451 666.175,-195.563 655.727,-197.318 659.101,-203.451"/>
</g>
<!-- Node33 -->
<g id="node98" class="node"><title>Node33</title>
<a xlink:href="callback_8h.html" target="_top" xlink:title="callback.h">
<polygon fill="white" stroke="black" points="1087.61,-406.5 1087.61,-427.5 1148.61,-427.5 1148.61,-406.5 1087.61,-406.5"/>
<text text-anchor="middle" x="1118.11" y="-414.5" font-family="Helvetica,sans-Serif" font-size="10.00">callback.h</text>
</a>
</g>
<!-- Node32&#45;&gt;Node33 -->
<g id="edge130" class="edge"><title>Node32&#45;&gt;Node33</title>
<path fill="none" stroke="midnightblue" d="M578.811,-471.588C678.061,-461.542 969.045,-432.088 1077.1,-421.151"/>
<polygon fill="midnightblue" stroke="midnightblue" points="1077.67,-424.611 1087.27,-420.122 1076.97,-417.647 1077.67,-424.611"/>
</g>
<!-- Node33&#45;&gt;Node7 -->
<g id="edge132" class="edge"><title>Node33&#45;&gt;Node7</title>
<path fill="none" stroke="midnightblue" d="M1148.62,-414.951C1228.57,-409.291 1439.49,-392.363 1461.11,-370 1518.56,-310.574 1480.11,-267.655 1480.11,-185 1480.11,-185 1480.11,-185 1480.11,-127 1480.11,-118.431 1498.42,-102.45 1304.11,-58 1207.95,-36.0033 910.788,-18.9914 798.072,-13.1712"/>
<polygon fill="midnightblue" stroke="midnightblue" points="797.919,-9.6589 787.753,-12.6431 797.561,-16.6497 797.919,-9.6589"/>
</g>
<!-- Node33&#45;&gt;Node23 -->
<g id="edge140" class="edge"><title>Node33&#45;&gt;Node23</title>
<path fill="none" stroke="midnightblue" d="M1119.16,-406.385C1120.02,-391.137 1119.1,-363.199 1103.11,-348 1094.43,-339.759 940.759,-317.818 862.346,-307.084"/>
<polygon fill="midnightblue" stroke="midnightblue" points="862.641,-303.592 852.259,-305.708 861.694,-310.528 862.641,-303.592"/>
</g>
<!-- Node33&#45;&gt;Node28 -->
<g id="edge138" class="edge"><title>Node33&#45;&gt;Node28</title>
<path fill="none" stroke="midnightblue" d="M1128.01,-406.362C1135.62,-398.186 1146.31,-386.702 1155.26,-377.091"/>
<polygon fill="midnightblue" stroke="midnightblue" points="1158.01,-379.275 1162.26,-369.571 1152.89,-374.505 1158.01,-379.275"/>
</g>
<!-- Node34 -->
<g id="node101" class="node"><title>Node34</title>
<a xlink:href="refcount_8h.html" target="_top" xlink:title="refcount.h">
<polygon fill="white" stroke="red" points="1034.11,-348.5 1034.11,-369.5 1094.11,-369.5 1094.11,-348.5 1034.11,-348.5"/>
<text text-anchor="middle" x="1064.11" y="-356.5" font-family="Helvetica,sans-Serif" font-size="10.00">refcount.h</text>
</a>
</g>
<!-- Node33&#45;&gt;Node34 -->
<g id="edge134" class="edge"><title>Node33&#45;&gt;Node34</title>
<path fill="none" stroke="midnightblue" d="M1108.2,-406.362C1100.59,-398.186 1089.9,-386.702 1080.95,-377.091"/>
<polygon fill="midnightblue" stroke="midnightblue" points="1083.32,-374.505 1073.95,-369.571 1078.2,-379.275 1083.32,-374.505"/>
</g>
<!-- Node34&#45;&gt;Node29 -->
<g id="edge136" class="edge"><title>Node34&#45;&gt;Node29</title>
<path fill="none" stroke="midnightblue" d="M1063.37,-348.362C1062.86,-340.922 1062.16,-330.743 1061.54,-321.728"/>
<polygon fill="midnightblue" stroke="midnightblue" points="1065.02,-321.306 1060.84,-311.571 1058.03,-321.788 1065.02,-321.306"/>
</g>
<!-- Node35&#45;&gt;Node7 -->
<g id="edge152" class="edge"><title>Node35&#45;&gt;Node7</title>
<path fill="none" stroke="midnightblue" d="M595.044,-580.472C571.015,-571.868 537.213,-558.748 509.106,-544 346.79,-458.828 300.441,-438.841 168.106,-312 139.593,-284.67 112.106,-282.496 112.106,-243 112.106,-243 112.106,-243 112.106,-127 112.106,-87.783 132.483,-76.4171 167.106,-58 214.679,-32.6948 582,-17.1934 710.161,-12.5103"/>
<polygon fill="midnightblue" stroke="midnightblue" points="710.524,-15.9996 720.391,-12.141 710.271,-9.00414 710.524,-15.9996"/>
</g>
<!-- Node36 -->
<g id="node113" class="node"><title>Node36</title>
<a xlink:href="trckeysampling_8h.html" target="_top" xlink:title="trckeysampling.h">
<polygon fill="white" stroke="black" points="1230.61,-464.5 1230.61,-485.5 1321.61,-485.5 1321.61,-464.5 1230.61,-464.5"/>
<text text-anchor="middle" x="1276.11" y="-472.5" font-family="Helvetica,sans-Serif" font-size="10.00">trckeysampling.h</text>
</a>
</g>
<!-- Node35&#45;&gt;Node36 -->
<g id="edge154" class="edge"><title>Node35&#45;&gt;Node36</title>
<path fill="none" stroke="midnightblue" d="M674.166,-582.423C792.005,-561.393 1094.8,-507.356 1220.31,-484.957"/>
<polygon fill="midnightblue" stroke="midnightblue" points="1221.24,-488.347 1230.47,-483.145 1220.01,-481.456 1221.24,-488.347"/>
</g>
<!-- Node41 -->
<g id="node133" class="node"><title>Node41</title>
<a xlink:href="enums_8h.html" target="_top" xlink:title="enums.h">
<polygon fill="white" stroke="red" points="518.106,-522.5 518.106,-543.5 572.106,-543.5 572.106,-522.5 518.106,-522.5"/>
<text text-anchor="middle" x="545.106" y="-530.5" font-family="Helvetica,sans-Serif" font-size="10.00">enums.h</text>
</a>
</g>
<!-- Node35&#45;&gt;Node41 -->
<g id="edge184" class="edge"><title>Node35&#45;&gt;Node41</title>
<path fill="none" stroke="midnightblue" d="M611.25,-580.362C599.261,-571.777 582.179,-559.546 568.378,-549.664"/>
<polygon fill="midnightblue" stroke="midnightblue" points="570.037,-546.547 559.869,-543.571 565.962,-552.238 570.037,-546.547"/>
</g>
<!-- Node36&#45;&gt;Node7 -->
<g id="edge156" class="edge"><title>Node36&#45;&gt;Node7</title>
<path fill="none" stroke="midnightblue" d="M1285.24,-464.492C1298.93,-449.376 1326.28,-421.601 1355.11,-406 1407.08,-377.873 1439.13,-409.478 1483.11,-370 1528.37,-329.367 1534.11,-303.826 1534.11,-243 1534.11,-243 1534.11,-243 1534.11,-127 1534.11,-43.8081 1441.16,-76.7606 1360.11,-58 1252.95,-33.1968 918.487,-17.6234 797.956,-12.6945"/>
<polygon fill="midnightblue" stroke="midnightblue" points="797.773,-9.18434 787.64,-12.2774 797.49,-16.1786 797.773,-9.18434"/>
</g>
<!-- Node36&#45;&gt;Node25 -->
<g id="edge176" class="edge"><title>Node36&#45;&gt;Node25</title>
<path fill="none" stroke="midnightblue" d="M1270.65,-464.193C1256.87,-437.156 1220.55,-367.369 1203.11,-348 1192.31,-336.01 1177.97,-325.245 1165.5,-317.052"/>
<polygon fill="midnightblue" stroke="midnightblue" points="1167.16,-313.957 1156.84,-311.561 1163.41,-319.87 1167.16,-313.957"/>
</g>
<!-- Node37 -->
<g id="node116" class="node"><title>Node37</title>
<a xlink:href="binid_8h.html" target="_top" xlink:title="binid.h">
<polygon fill="white" stroke="black" points="1287.61,-348.5 1287.61,-369.5 1332.61,-369.5 1332.61,-348.5 1287.61,-348.5"/>
<text text-anchor="middle" x="1310.11" y="-356.5" font-family="Helvetica,sans-Serif" font-size="10.00">binid.h</text>
</a>
</g>
<!-- Node36&#45;&gt;Node37 -->
<g id="edge158" class="edge"><title>Node36&#45;&gt;Node37</title>
<path fill="none" stroke="midnightblue" d="M1279.24,-464.295C1284.89,-445.045 1296.83,-404.289 1304.1,-379.509"/>
<polygon fill="midnightblue" stroke="midnightblue" points="1307.52,-380.26 1306.98,-369.679 1300.8,-378.291 1307.52,-380.26"/>
</g>
<!-- Node38 -->
<g id="node120" class="node"><title>Node38</title>
<a xlink:href="ranges_8h.html" target="_top" xlink:title="ranges.h">
<polygon fill="white" stroke="red" points="1184.11,-290.5 1184.11,-311.5 1238.11,-311.5 1238.11,-290.5 1184.11,-290.5"/>
<text text-anchor="middle" x="1211.11" y="-298.5" font-family="Helvetica,sans-Serif" font-size="10.00">ranges.h</text>
</a>
</g>
<!-- Node36&#45;&gt;Node38 -->
<g id="edge164" class="edge"><title>Node36&#45;&gt;Node38</title>
<path fill="none" stroke="midnightblue" d="M1273.43,-464.227C1267.77,-442.032 1253.62,-389.784 1236.11,-348 1232.2,-338.688 1227.08,-328.764 1222.48,-320.447"/>
<polygon fill="midnightblue" stroke="midnightblue" points="1225.42,-318.526 1217.44,-311.554 1219.33,-321.979 1225.42,-318.526"/>
</g>
<!-- Node40 -->
<g id="node129" class="node"><title>Node40</title>
<a xlink:href="trckey_8h.html" target="_top" xlink:title="trckey.h">
<polygon fill="white" stroke="black" points="1364.11,-406.5 1364.11,-427.5 1416.11,-427.5 1416.11,-406.5 1364.11,-406.5"/>
<text text-anchor="middle" x="1390.11" y="-414.5" font-family="Helvetica,sans-Serif" font-size="10.00">trckey.h</text>
</a>
</g>
<!-- Node36&#45;&gt;Node40 -->
<g id="edge178" class="edge"><title>Node36&#45;&gt;Node40</title>
<path fill="none" stroke="midnightblue" d="M1296.75,-464.497C1314.48,-455.479 1340.25,-442.365 1360.23,-432.201"/>
<polygon fill="midnightblue" stroke="midnightblue" points="1361.9,-435.275 1369.23,-427.621 1358.73,-429.036 1361.9,-435.275"/>
</g>
<!-- Node37&#45;&gt;Node7 -->
<g id="edge160" class="edge"><title>Node37&#45;&gt;Node7</title>
<path fill="none" stroke="midnightblue" d="M1326.23,-348.476C1350.86,-331.55 1397.68,-295.898 1423.11,-254 1439.61,-226.807 1442.11,-216.808 1442.11,-185 1442.11,-185 1442.11,-185 1442.11,-127 1442.11,-61.4223 949.8,-23.7849 798.08,-13.7429"/>
<polygon fill="midnightblue" stroke="midnightblue" points="797.963,-10.2278 787.756,-13.0675 797.506,-17.2129 797.963,-10.2278"/>
</g>
<!-- Node37&#45;&gt;Node15 -->
<g id="edge162" class="edge"><title>Node37&#45;&gt;Node15</title>
<path fill="none" stroke="midnightblue" d="M1287.6,-356.281C1265.97,-353.765 1232.35,-350.105 1203.11,-348 819.527,-320.391 716.627,-367.555 332.703,-311.975"/>
<polygon fill="midnightblue" stroke="midnightblue" points="333.115,-308.498 322.714,-310.515 332.102,-315.425 333.115,-308.498"/>
</g>
<!-- Node38&#45;&gt;Node17 -->
<g id="edge166" class="edge"><title>Node38&#45;&gt;Node17</title>
<path fill="none" stroke="midnightblue" d="M1206.35,-290.291C1198.95,-274.924 1183.22,-246.841 1161.11,-232 1104.9,-194.271 1078.79,-212.389 1013.11,-196 1012.02,-195.729 1010.92,-195.454 1009.81,-195.176"/>
<polygon fill="midnightblue" stroke="midnightblue" points="1010.26,-191.678 999.703,-192.62 1008.54,-198.464 1010.26,-191.678"/>
</g>
<!-- Node38&#45;&gt;Node24 -->
<g id="edge174" class="edge"><title>Node38&#45;&gt;Node24</title>
<path fill="none" stroke="midnightblue" d="M1195.33,-290.362C1182.48,-281.696 1164.12,-269.313 1149.4,-259.382"/>
<polygon fill="midnightblue" stroke="midnightblue" points="1151.03,-256.26 1140.78,-253.571 1147.11,-262.064 1151.03,-256.26"/>
</g>
<!-- Node39 -->
<g id="node123" class="node"><title>Node39</title>
<a xlink:href="math2_8h.html" target="_top" xlink:title="math2.h">
<polygon fill="white" stroke="red" points="1246.11,-232.5 1246.11,-253.5 1298.11,-253.5 1298.11,-232.5 1246.11,-232.5"/>
<text text-anchor="middle" x="1272.11" y="-240.5" font-family="Helvetica,sans-Serif" font-size="10.00">math2.h</text>
</a>
</g>
<!-- Node38&#45;&gt;Node39 -->
<g id="edge168" class="edge"><title>Node38&#45;&gt;Node39</title>
<path fill="none" stroke="midnightblue" d="M1222.29,-290.362C1231.07,-282.023 1243.46,-270.242 1253.68,-260.516"/>
<polygon fill="midnightblue" stroke="midnightblue" points="1256.15,-262.998 1260.99,-253.571 1251.33,-257.925 1256.15,-262.998"/>
</g>
<!-- Node39&#45;&gt;Node7 -->
<g id="edge170" class="edge"><title>Node39&#45;&gt;Node7</title>
<path fill="none" stroke="midnightblue" d="M1262.02,-232.356C1239.5,-209.032 1182.75,-152.581 1127.11,-116 1076.94,-83.02 1062.2,-76.569 1005.11,-58 934.307,-34.9735 848.386,-21.9323 797.648,-15.6846"/>
<polygon fill="midnightblue" stroke="midnightblue" points="798.024,-12.2047 787.679,-14.489 797.191,-19.1549 798.024,-12.2047"/>
</g>
<!-- Node39&#45;&gt;Node17 -->
<g id="edge172" class="edge"><title>Node39&#45;&gt;Node17</title>
<path fill="none" stroke="midnightblue" d="M1245.95,-235.383C1241.36,-234.167 1236.61,-232.986 1232.11,-232 1135.75,-210.893 1109.65,-216.242 1013.11,-196 1012.01,-195.771 1010.91,-195.532 1009.79,-195.286"/>
<polygon fill="midnightblue" stroke="midnightblue" points="1010.17,-191.781 999.635,-192.916 1008.58,-198.597 1010.17,-191.781"/>
</g>
<!-- Node40&#45;&gt;Node7 -->
<g id="edge180" class="edge"><title>Node40&#45;&gt;Node7</title>
<path fill="none" stroke="midnightblue" d="M1416.19,-411.364C1452.52,-403.028 1515.75,-386.599 1532.11,-370 1573.65,-327.852 1572.11,-302.178 1572.11,-243 1572.11,-243 1572.11,-243 1572.11,-127 1572.11,-94.5312 1574,-77.5874 1548.11,-58 1518,-35.2269 959.862,-17.0623 797.849,-12.2523"/>
<polygon fill="midnightblue" stroke="midnightblue" points="797.859,-8.75118 787.76,-11.9549 797.653,-15.7481 797.859,-8.75118"/>
</g>
<!-- Node40&#45;&gt;Node37 -->
<g id="edge182" class="edge"><title>Node40&#45;&gt;Node37</title>
<path fill="none" stroke="midnightblue" d="M1375.43,-406.362C1363.59,-397.777 1346.72,-385.546 1333.09,-375.664"/>
<polygon fill="midnightblue" stroke="midnightblue" points="1334.84,-372.607 1324.69,-369.571 1330.73,-378.274 1334.84,-372.607"/>
</g>
<!-- Node41&#45;&gt;Node7 -->
<g id="edge186" class="edge"><title>Node41&#45;&gt;Node7</title>
<path fill="none" stroke="midnightblue" d="M526.065,-522.374C513.57,-514.228 498.266,-501.723 491.106,-486 487.054,-477.101 490.98,-473.777 491.106,-464 491.773,-412.432 484.678,-398.704 494.106,-348 508.164,-272.402 552.106,-261.894 552.106,-185 552.106,-185 552.106,-185 552.106,-127 552.106,-54.5561 651.016,-26.698 710.411,-16.5"/>
<polygon fill="midnightblue" stroke="midnightblue" points="710.983,-19.9532 720.296,-14.9022 709.866,-13.0429 710.983,-19.9532"/>
</g>
<!-- Node41&#45;&gt;Node21 -->
<g id="edge190" class="edge"><title>Node41&#45;&gt;Node21</title>
<path fill="none" stroke="midnightblue" d="M531.25,-522.337C521.312,-513.753 508.726,-500.722 503.106,-486 481.234,-428.699 469.231,-399.13 503.106,-348 517.215,-326.705 543.104,-315.032 566.333,-308.647"/>
<polygon fill="midnightblue" stroke="midnightblue" points="567.224,-312.032 576.083,-306.221 565.534,-305.239 567.224,-312.032"/>
</g>
<!-- Node41&#45;&gt;Node27 -->
<g id="edge188" class="edge"><title>Node41&#45;&gt;Node27</title>
<path fill="none" stroke="midnightblue" d="M558.232,-522.377C594.216,-493.255 694.685,-411.946 738.836,-376.214"/>
<polygon fill="midnightblue" stroke="midnightblue" points="741.308,-378.716 746.879,-369.705 736.904,-373.275 741.308,-378.716"/>
</g>
<!-- Node41&#45;&gt;Node32 -->
<g id="edge192" class="edge"><title>Node41&#45;&gt;Node32</title>
<path fill="none" stroke="midnightblue" d="M545.106,-522.362C545.106,-514.922 545.106,-504.743 545.106,-495.728"/>
<polygon fill="midnightblue" stroke="midnightblue" points="548.606,-495.571 545.106,-485.571 541.606,-495.571 548.606,-495.571"/>
</g>
<!-- Node42&#45;&gt;Node7 -->
<g id="edge196" class="edge"><title>Node42&#45;&gt;Node7</title>
<path fill="none" stroke="midnightblue" d="M1598.25,-406.27C1623.65,-387.948 1670.11,-348.017 1670.11,-301 1670.11,-301 1670.11,-301 1670.11,-127 1670.11,-73.3675 1621.79,-75.5353 1571.11,-58 1498.02,-32.7132 958.184,-16.4396 798.485,-12.1408"/>
<polygon fill="midnightblue" stroke="midnightblue" points="798.179,-8.63152 788.089,-11.8635 797.993,-15.629 798.179,-8.63152"/>
</g>
<!-- Node42&#45;&gt;Node18 -->
<g id="edge206" class="edge"><title>Node42&#45;&gt;Node18</title>
<path fill="none" stroke="midnightblue" d="M1566.7,-406.351C1510.87,-367.814 1321.76,-237.591 1307.11,-232 1197.71,-190.243 1152.19,-245.571 1046.11,-196 1021.08,-184.308 998.503,-161.483 984.579,-145.29"/>
<polygon fill="midnightblue" stroke="midnightblue" points="987.205,-142.973 978.12,-137.521 981.822,-147.448 987.205,-142.973"/>
</g>
<!-- Node43 -->
<g id="node142" class="node"><title>Node43</title>
<a xlink:href="geometry_8h.html" target="_top" xlink:title="geometry.h">
<polygon fill="white" stroke="black" points="1387.61,-348.5 1387.61,-369.5 1452.61,-369.5 1452.61,-348.5 1387.61,-348.5"/>
<text text-anchor="middle" x="1420.11" y="-356.5" font-family="Helvetica,sans-Serif" font-size="10.00">geometry.h</text>
</a>
</g>
<!-- Node42&#45;&gt;Node43 -->
<g id="edge198" class="edge"><title>Node42&#45;&gt;Node43</title>
<path fill="none" stroke="midnightblue" d="M1557.5,-408.191C1531.38,-398.84 1489.74,-383.93 1459.14,-372.973"/>
<polygon fill="midnightblue" stroke="midnightblue" points="1460.22,-369.643 1449.62,-369.567 1457.86,-376.233 1460.22,-369.643"/>
</g>
<!-- Node43&#45;&gt;Node17 -->
<g id="edge200" class="edge"><title>Node43&#45;&gt;Node17</title>
<path fill="none" stroke="midnightblue" d="M1398.79,-348.399C1380.07,-339.017 1352.15,-324.859 1328.11,-312 1263.89,-277.651 1253.31,-257.531 1185.11,-232 1111.96,-204.619 1089.18,-213.682 1013.11,-196 1012.02,-195.747 1010.92,-195.487 1009.8,-195.223"/>
<polygon fill="midnightblue" stroke="midnightblue" points="1010.22,-191.721 999.672,-192.746 1008.56,-198.521 1010.22,-191.721"/>
</g>
<!-- Node43&#45;&gt;Node38 -->
<g id="edge202" class="edge"><title>Node43&#45;&gt;Node38</title>
<path fill="none" stroke="midnightblue" d="M1387.45,-349.938C1349.64,-339.445 1287.51,-322.203 1247.99,-311.236"/>
<polygon fill="midnightblue" stroke="midnightblue" points="1248.79,-307.825 1238.22,-308.523 1246.92,-314.57 1248.79,-307.825"/>
</g>
<!-- Node43&#45;&gt;Node39 -->
<g id="edge204" class="edge"><title>Node43&#45;&gt;Node39</title>
<path fill="none" stroke="midnightblue" d="M1406.45,-348.295C1380.68,-328.096 1324.69,-284.216 1293.75,-259.963"/>
<polygon fill="midnightblue" stroke="midnightblue" points="1295.76,-257.093 1285.73,-253.679 1291.44,-262.603 1295.76,-257.093"/>
</g>
<!-- Node44&#45;&gt;Node7 -->
<g id="edge210" class="edge"><title>Node44&#45;&gt;Node7</title>
<path fill="none" stroke="midnightblue" d="M1189.28,-700.583C1233.63,-693.315 1304.3,-679.84 1363.11,-660 1584.17,-585.413 1746.11,-534.31 1746.11,-301 1746.11,-301 1746.11,-301 1746.11,-127 1746.11,-79.0288 1707.79,-75.4636 1663.11,-58 1582.11,-26.3397 968.234,-14.3752 797.848,-11.6446"/>
<polygon fill="midnightblue" stroke="midnightblue" points="797.792,-8.14337 787.738,-11.4851 797.682,-15.1425 797.792,-8.14337"/>
</g>
<!-- Node44&#45;&gt;Node16 -->
<g id="edge258" class="edge"><title>Node44&#45;&gt;Node16</title>
<path fill="none" stroke="midnightblue" d="M1102.9,-706.207C919.91,-702.288 218.106,-681.366 218.106,-591 218.106,-591 218.106,-591 218.106,-475 218.106,-366.081 322.841,-387.748 401.106,-312 417.426,-296.205 434.066,-276.331 445.496,-261.973"/>
<polygon fill="midnightblue" stroke="midnightblue" points="448.466,-263.859 451.89,-253.832 442.961,-259.535 448.466,-263.859"/>
</g>
<!-- Node44&#45;&gt;Node23 -->
<g id="edge254" class="edge"><title>Node44&#45;&gt;Node23</title>
<path fill="none" stroke="midnightblue" d="M1102.96,-701.093C1013.51,-687.634 816.106,-651.121 816.106,-591 816.106,-591 816.106,-591 816.106,-417 816.106,-383.597 816.526,-344.784 816.822,-321.593"/>
<polygon fill="midnightblue" stroke="midnightblue" points="820.322,-321.601 816.955,-311.556 813.322,-321.509 820.322,-321.601"/>
</g>
<!-- Node44&#45;&gt;Node33 -->
<g id="edge256" class="edge"><title>Node44&#45;&gt;Node33</title>
<path fill="none" stroke="midnightblue" d="M1145.08,-696.335C1140.96,-653.704 1125.65,-495.087 1120.11,-437.803"/>
<polygon fill="midnightblue" stroke="midnightblue" points="1123.59,-437.379 1119.15,-427.762 1116.62,-438.052 1123.59,-437.379"/>
</g>
<!-- Node45 -->
<g id="node151" class="node"><title>Node45</title>
<a xlink:href="posinfo2d_8h.html" target="_top" xlink:title="posinfo2d.h">
<polygon fill="white" stroke="black" points="1438.61,-464.5 1438.61,-485.5 1505.61,-485.5 1505.61,-464.5 1438.61,-464.5"/>
<text text-anchor="middle" x="1472.11" y="-472.5" font-family="Helvetica,sans-Serif" font-size="10.00">posinfo2d.h</text>
</a>
</g>
<!-- Node44&#45;&gt;Node45 -->
<g id="edge212" class="edge"><title>Node44&#45;&gt;Node45</title>
<path fill="none" stroke="midnightblue" d="M1189.04,-696.478C1240.8,-682.094 1328.28,-652.179 1388.11,-602 1424.03,-571.874 1450.49,-522.54 1463.36,-495.068"/>
<polygon fill="midnightblue" stroke="midnightblue" points="1466.67,-496.248 1467.62,-485.695 1460.3,-493.352 1466.67,-496.248"/>
</g>
<!-- Node47 -->
<g id="node159" class="node"><title>Node47</title>
<a xlink:href="separstr_8h.html" target="_top" xlink:title="separstr.h">
<polygon fill="white" stroke="black" points="1354.11,-232.5 1354.11,-253.5 1414.11,-253.5 1414.11,-232.5 1354.11,-232.5"/>
<text text-anchor="middle" x="1384.11" y="-240.5" font-family="Helvetica,sans-Serif" font-size="10.00">separstr.h</text>
</a>
</g>
<!-- Node44&#45;&gt;Node47 -->
<g id="edge224" class="edge"><title>Node44&#45;&gt;Node47</title>
<path fill="none" stroke="midnightblue" d="M1189.31,-699.971C1226.66,-692.909 1281.52,-680.148 1326.11,-660 1476.21,-592.179 1546.28,-577.643 1615.11,-428 1657.02,-336.866 1500.65,-277.138 1424.06,-253.918"/>
<polygon fill="midnightblue" stroke="midnightblue" points="1424.83,-250.496 1414.25,-251.011 1422.84,-257.208 1424.83,-250.496"/>
</g>
<!-- Node49 -->
<g id="node169" class="node"><title>Node49</title>
<a xlink:href="survgeom_8h.html" target="_top" xlink:title="survgeom.h">
<polygon fill="white" stroke="black" points="998.106,-638.5 998.106,-659.5 1066.11,-659.5 1066.11,-638.5 998.106,-638.5"/>
<text text-anchor="middle" x="1032.11" y="-646.5" font-family="Helvetica,sans-Serif" font-size="10.00">survgeom.h</text>
</a>
</g>
<!-- Node44&#45;&gt;Node49 -->
<g id="edge240" class="edge"><title>Node44&#45;&gt;Node49</title>
<path fill="none" stroke="midnightblue" d="M1125.46,-696.497C1107.74,-687.479 1081.96,-674.365 1061.98,-664.201"/>
<polygon fill="midnightblue" stroke="midnightblue" points="1063.48,-661.036 1052.98,-659.621 1060.31,-667.275 1063.48,-661.036"/>
</g>
<!-- Node45&#45;&gt;Node7 -->
<g id="edge214" class="edge"><title>Node45&#45;&gt;Node7</title>
<path fill="none" stroke="midnightblue" d="M1505.8,-469.644C1536.47,-463.511 1581.88,-451.168 1615.11,-428 1672.49,-387.985 1708.11,-370.96 1708.11,-301 1708.11,-301 1708.11,-301 1708.11,-127 1708.11,-77.2997 1666.63,-75.4892 1620.11,-58 1542.88,-28.9665 963.048,-15.1952 797.887,-11.835"/>
<polygon fill="midnightblue" stroke="midnightblue" points="797.686,-8.33038 787.618,-11.6287 797.545,-15.329 797.686,-8.33038"/>
</g>
<!-- Node45&#45;&gt;Node9 -->
<g id="edge220" class="edge"><title>Node45&#45;&gt;Node9</title>
<path fill="none" stroke="midnightblue" d="M1438.33,-471.383C1295.77,-455.971 749.323,-395.424 723.106,-370 677.997,-326.254 680.308,-244.033 684.278,-205.68"/>
<polygon fill="midnightblue" stroke="midnightblue" points="687.761,-206.025 685.458,-195.684 680.81,-205.205 687.761,-206.025"/>
</g>
<!-- Node45&#45;&gt;Node25 -->
<g id="edge216" class="edge"><title>Node45&#45;&gt;Node25</title>
<path fill="none" stroke="midnightblue" d="M1466.47,-464.298C1458.56,-449.923 1443.09,-424.095 1425.11,-406 1409.12,-389.909 1361.92,-357.02 1341.11,-348 1274.68,-319.213 1250.24,-329.793 1176.47,-312.164"/>
<polygon fill="midnightblue" stroke="midnightblue" points="1177.28,-308.758 1166.73,-309.742 1175.59,-315.551 1177.28,-308.758"/>
</g>
<!-- Node45&#45;&gt;Node42 -->
<g id="edge218" class="edge"><title>Node45&#45;&gt;Node42</title>
<path fill="none" stroke="midnightblue" d="M1492.03,-464.497C1509.05,-455.519 1533.78,-442.484 1553.02,-432.339"/>
<polygon fill="midnightblue" stroke="midnightblue" points="1554.75,-435.381 1561.96,-427.621 1551.48,-429.189 1554.75,-435.381"/>
</g>
<!-- Node46 -->
<g id="node157" class="node"><title>Node46</title>
<a xlink:href="od__iosfwd_8h.html" target="_top" xlink:title="od_iosfwd.h">
<polygon fill="white" stroke="black" points="1471.61,-406.5 1471.61,-427.5 1540.61,-427.5 1540.61,-406.5 1471.61,-406.5"/>
<text text-anchor="middle" x="1506.11" y="-414.5" font-family="Helvetica,sans-Serif" font-size="10.00">od_iosfwd.h</text>
</a>
</g>
<!-- Node45&#45;&gt;Node46 -->
<g id="edge222" class="edge"><title>Node45&#45;&gt;Node46</title>
<path fill="none" stroke="midnightblue" d="M1478.34,-464.362C1482.94,-456.513 1489.33,-445.616 1494.82,-436.253"/>
<polygon fill="midnightblue" stroke="midnightblue" points="1497.87,-437.968 1499.91,-427.571 1491.83,-434.428 1497.87,-437.968"/>
</g>
<!-- Node47&#45;&gt;Node7 -->
<g id="edge226" class="edge"><title>Node47&#45;&gt;Node7</title>
<path fill="none" stroke="midnightblue" d="M1369.27,-232.282C1323.81,-200.03 1181.45,-103.321 1048.11,-58 962.233,-28.8142 855.959,-17.5569 797.593,-13.3624"/>
<polygon fill="midnightblue" stroke="midnightblue" points="797.828,-9.87042 787.612,-12.681 797.351,-16.8542 797.828,-9.87042"/>
</g>
<!-- Node47&#45;&gt;Node9 -->
<g id="edge228" class="edge"><title>Node47&#45;&gt;Node9</title>
<path fill="none" stroke="midnightblue" d="M1353.81,-238.199C1339.65,-236.077 1322.54,-233.686 1307.11,-232 1089.68,-208.255 828.041,-192.655 728.378,-187.181"/>
<polygon fill="midnightblue" stroke="midnightblue" points="728.315,-183.673 718.139,-186.623 727.934,-190.662 728.315,-183.673"/>
</g>
<!-- Node47&#45;&gt;Node10 -->
<g id="edge230" class="edge"><title>Node47&#45;&gt;Node10</title>
<path fill="none" stroke="midnightblue" d="M1356.6,-232.398C1302.29,-211.471 1181.3,-164.841 1120.09,-141.252"/>
<polygon fill="midnightblue" stroke="midnightblue" points="1121.03,-137.865 1110.44,-137.535 1118.52,-144.397 1121.03,-137.865"/>
</g>
<!-- Node48 -->
<g id="node164" class="node"><title>Node48</title>
<a xlink:href="convert_8h.html" target="_top" xlink:title="convert.h">
<polygon fill="white" stroke="black" points="1054.61,-174.5 1054.61,-195.5 1111.61,-195.5 1111.61,-174.5 1054.61,-174.5"/>
<text text-anchor="middle" x="1083.11" y="-182.5" font-family="Helvetica,sans-Serif" font-size="10.00">convert.h</text>
</a>
</g>
<!-- Node47&#45;&gt;Node48 -->
<g id="edge232" class="edge"><title>Node47&#45;&gt;Node48</title>
<path fill="none" stroke="midnightblue" d="M1353.87,-235.17C1349.27,-234.058 1344.57,-232.965 1340.11,-232 1263.12,-215.355 1172.33,-199.666 1121.88,-191.295"/>
<polygon fill="midnightblue" stroke="midnightblue" points="1122.18,-187.797 1111.75,-189.622 1121.04,-194.704 1122.18,-187.797"/>
</g>
<!-- Node48&#45;&gt;Node10 -->
<g id="edge238" class="edge"><title>Node48&#45;&gt;Node10</title>
<path fill="none" stroke="midnightblue" d="M1083.11,-174.362C1083.11,-166.922 1083.11,-156.743 1083.11,-147.728"/>
<polygon fill="midnightblue" stroke="midnightblue" points="1086.61,-147.571 1083.11,-137.571 1079.61,-147.571 1086.61,-147.571"/>
</g>
<!-- Node48&#45;&gt;Node11 -->
<g id="edge234" class="edge"><title>Node48&#45;&gt;Node11</title>
<path fill="none" stroke="midnightblue" d="M1054.37,-180.055C993.485,-169.576 851.501,-145.139 783.59,-133.451"/>
<polygon fill="midnightblue" stroke="midnightblue" points="783.799,-129.936 773.35,-131.689 782.612,-136.834 783.799,-129.936"/>
</g>
<!-- Node48&#45;&gt;Node18 -->
<g id="edge236" class="edge"><title>Node48&#45;&gt;Node18</title>
<path fill="none" stroke="midnightblue" d="M1062.64,-174.497C1045.07,-165.479 1019.52,-152.365 999.721,-142.201"/>
<polygon fill="midnightblue" stroke="midnightblue" points="1001.29,-139.074 990.799,-137.621 998.098,-145.301 1001.29,-139.074"/>
</g>
<!-- Node49&#45;&gt;Node20 -->
<g id="edge242" class="edge"><title>Node49&#45;&gt;Node20</title>
<path fill="none" stroke="midnightblue" d="M998.026,-639.819C973.727,-632.213 941.073,-619.759 916.106,-602 849.043,-554.298 791.119,-473.534 766.598,-436.551"/>
<polygon fill="midnightblue" stroke="midnightblue" points="769.241,-434.197 760.842,-427.74 763.381,-438.026 769.241,-434.197"/>
</g>
<!-- Node49&#45;&gt;Node23 -->
<g id="edge248" class="edge"><title>Node49&#45;&gt;Node23</title>
<path fill="none" stroke="midnightblue" d="M1025.44,-638.203C994.963,-588.88 868.772,-384.627 829.1,-320.413"/>
<polygon fill="midnightblue" stroke="midnightblue" points="831.932,-318.338 823.699,-311.671 825.977,-322.018 831.932,-318.338"/>
</g>
<!-- Node49&#45;&gt;Node34 -->
<g id="edge246" class="edge"><title>Node49&#45;&gt;Node34</title>
<path fill="none" stroke="midnightblue" d="M1033.28,-638.335C1037.99,-595.704 1055.49,-437.087 1061.81,-379.803"/>
<polygon fill="midnightblue" stroke="midnightblue" points="1065.3,-380.086 1062.92,-369.762 1058.34,-379.318 1065.3,-380.086"/>
</g>
<!-- Node49&#45;&gt;Node35 -->
<g id="edge252" class="edge"><title>Node49&#45;&gt;Node35</title>
<path fill="none" stroke="midnightblue" d="M997.841,-644.105C928.4,-634.185 770.391,-611.612 684.431,-599.332"/>
<polygon fill="midnightblue" stroke="midnightblue" points="684.711,-595.837 674.317,-597.887 683.721,-602.766 684.711,-595.837"/>
</g>
<!-- Node49&#45;&gt;Node40 -->
<g id="edge250" class="edge"><title>Node49&#45;&gt;Node40</title>
<path fill="none" stroke="midnightblue" d="M1058.29,-638.453C1112.57,-615.812 1239.84,-558.662 1330.11,-486 1348.13,-471.491 1365.08,-451.137 1376.33,-436.297"/>
<polygon fill="midnightblue" stroke="midnightblue" points="1379.43,-437.992 1382.57,-427.871 1373.81,-433.83 1379.43,-437.992"/>
</g>
<!-- Node49&#45;&gt;Node42 -->
<g id="edge244" class="edge"><title>Node49&#45;&gt;Node42</title>
<path fill="none" stroke="midnightblue" d="M1066.3,-643.131C1148.65,-627.839 1362.39,-581.181 1514.11,-486 1535.62,-472.501 1555.42,-450.913 1568.04,-435.48"/>
<polygon fill="midnightblue" stroke="midnightblue" points="1570.79,-437.637 1574.27,-427.63 1565.31,-433.283 1570.79,-437.637"/>
</g>
<!-- Node50&#45;&gt;Node7 -->
<g id="edge262" class="edge"><title>Node50&#45;&gt;Node7</title>
<path fill="none" stroke="midnightblue" d="M1779.87,-464.45C1781.26,-444.08 1784.11,-397.904 1784.11,-359 1784.11,-359 1784.11,-359 1784.11,-127 1784.11,-94.5312 1786.12,-77.4259 1760.11,-58 1721.05,-28.8361 986.461,-14.8143 797.915,-11.6866"/>
<polygon fill="midnightblue" stroke="midnightblue" points="797.871,-8.18551 787.815,-11.5209 797.756,-15.1846 797.871,-8.18551"/>
</g>
<!-- Node50&#45;&gt;Node40 -->
<g id="edge264" class="edge"><title>Node50&#45;&gt;Node40</title>
<path fill="none" stroke="midnightblue" d="M1741.16,-469.38C1681.83,-460.588 1563.49,-443.028 1463.11,-428 1451.05,-426.195 1437.87,-424.212 1426.07,-422.433"/>
<polygon fill="midnightblue" stroke="midnightblue" points="1426.53,-418.963 1416.12,-420.932 1425.49,-425.885 1426.53,-418.963"/>
</g>
</g>
</svg>
