<?xml version="1.0" encoding="UTF-8" standalone="no"?>
<!DOCTYPE svg PUBLIC "-//W3C//DTD SVG 1.1//EN"
 "http://www.w3.org/Graphics/SVG/1.1/DTD/svg11.dtd">
<!-- Generated by graphviz version 2.26.0 (20091210.2329)
 -->
<!-- Title: i_qaction.h Pages: 1 -->
<svg width="962pt" height="900pt"
 viewBox="0.00 0.00 962.00 900.00" xmlns="http://www.w3.org/2000/svg" xmlns:xlink="http://www.w3.org/1999/xlink">
<g id="graph1" class="graph" transform="scale(1 1) rotate(0) translate(4 896)">
<title>i_qaction.h</title>
<polygon fill="white" stroke="white" points="-4,5 -4,-896 959,-896 959,5 -4,5"/>
<!-- Node1 -->
<g id="node1" class="node"><title>Node1</title>
<polygon fill="#bfbfbf" stroke="black" points="438,-870.5 438,-891.5 502,-891.5 502,-870.5 438,-870.5"/>
<text text-anchor="middle" x="470" y="-878.5" font-family="Helvetica,sans-Serif" font-size="10.00">i_qaction.h</text>
</g>
<!-- Node2 -->
<g id="node3" class="node"><title>Node2</title>
<a xlink:href="uiaction_8h.html" target="_top" xlink:title="uiaction.h">
<polygon fill="white" stroke="black" points="332.5,-812.5 332.5,-833.5 391.5,-833.5 391.5,-812.5 332.5,-812.5"/>
<text text-anchor="middle" x="362" y="-820.5" font-family="Helvetica,sans-Serif" font-size="10.00">uiaction.h</text>
</a>
</g>
<!-- Node1&#45;&gt;Node2 -->
<g id="edge2" class="edge"><title>Node1&#45;&gt;Node2</title>
<path fill="none" stroke="midnightblue" d="M450.442,-870.497C433.802,-861.56 409.673,-848.602 390.82,-838.477"/>
<polygon fill="midnightblue" stroke="midnightblue" points="392.243,-835.269 381.777,-833.621 388.931,-841.436 392.243,-835.269"/>
</g>
<!-- Node41 -->
<g id="node121" class="node"><title>Node41</title>
<polygon fill="white" stroke="#bfbfbf" points="408.5,-812.5 408.5,-833.5 461.5,-833.5 461.5,-812.5 408.5,-812.5"/>
<text text-anchor="middle" x="435" y="-820.5" font-family="Helvetica,sans-Serif" font-size="10.00">QObject</text>
</g>
<!-- Node1&#45;&gt;Node41 -->
<g id="edge160" class="edge"><title>Node1&#45;&gt;Node41</title>
<path fill="none" stroke="midnightblue" d="M463.58,-870.362C458.844,-862.513 452.268,-851.616 446.618,-842.253"/>
<polygon fill="midnightblue" stroke="midnightblue" points="449.542,-840.324 441.379,-833.571 443.549,-843.941 449.542,-840.324"/>
</g>
<!-- Node42 -->
<g id="node123" class="node"><title>Node42</title>
<polygon fill="white" stroke="#bfbfbf" points="479,-812.5 479,-833.5 531,-833.5 531,-812.5 479,-812.5"/>
<text text-anchor="middle" x="505" y="-820.5" font-family="Helvetica,sans-Serif" font-size="10.00">QAction</text>
</g>
<!-- Node1&#45;&gt;Node42 -->
<g id="edge162" class="edge"><title>Node1&#45;&gt;Node42</title>
<path fill="none" stroke="midnightblue" d="M476.42,-870.362C481.156,-862.513 487.732,-851.616 493.382,-842.253"/>
<polygon fill="midnightblue" stroke="midnightblue" points="496.451,-843.941 498.621,-833.571 490.458,-840.324 496.451,-843.941"/>
</g>
<!-- Node43 -->
<g id="node125" class="node"><title>Node43</title>
<polygon fill="white" stroke="#bfbfbf" points="549,-812.5 549,-833.5 603,-833.5 603,-812.5 549,-812.5"/>
<text text-anchor="middle" x="576" y="-820.5" font-family="Helvetica,sans-Serif" font-size="10.00">iostream</text>
</g>
<!-- Node1&#45;&gt;Node43 -->
<g id="edge164" class="edge"><title>Node1&#45;&gt;Node43</title>
<path fill="none" stroke="midnightblue" d="M489.442,-870.362C505.804,-861.409 529.413,-848.491 547.843,-838.406"/>
<polygon fill="midnightblue" stroke="midnightblue" points="549.589,-841.441 556.681,-833.571 546.229,-835.3 549.589,-841.441"/>
</g>
<!-- Node3 -->
<g id="node5" class="node"><title>Node3</title>
<polygon fill="white" stroke="#bfbfbf" points="189,-696.5 189,-717.5 261,-717.5 261,-696.5 189,-696.5"/>
<text text-anchor="middle" x="225" y="-704.5" font-family="Helvetica,sans-Serif" font-size="10.00">uibasemod.h</text>
</g>
<!-- Node2&#45;&gt;Node3 -->
<g id="edge4" class="edge"><title>Node2&#45;&gt;Node3</title>
<path fill="none" stroke="midnightblue" d="M332.29,-814.358C310.979,-806.956 282.67,-794.521 263,-776 248.6,-762.441 238.343,-742.181 232.143,-727.117"/>
<polygon fill="midnightblue" stroke="midnightblue" points="235.361,-725.737 228.498,-717.666 228.83,-728.255 235.361,-725.737"/>
</g>
<!-- Node4 -->
<g id="node7" class="node"><title>Node4</title>
<a xlink:href="separstr_8h.html" target="_top" xlink:title="separstr.h">
<polygon fill="white" stroke="black" points="384,-406.5 384,-427.5 444,-427.5 444,-406.5 384,-406.5"/>
<text text-anchor="middle" x="414" y="-414.5" font-family="Helvetica,sans-Serif" font-size="10.00">separstr.h</text>
</a>
</g>
<!-- Node2&#45;&gt;Node4 -->
<g id="edge6" class="edge"><title>Node2&#45;&gt;Node4</title>
<path fill="none" stroke="midnightblue" d="M370.194,-812.489C384.611,-792.91 413,-749.019 413,-707 413,-707 413,-707 413,-533 413,-499.597 413.42,-460.784 413.715,-437.593"/>
<polygon fill="midnightblue" stroke="midnightblue" points="417.215,-437.601 413.848,-427.556 410.216,-437.509 417.215,-437.601"/>
</g>
<!-- Node24 -->
<g id="node62" class="node"><title>Node24</title>
<a xlink:href="uistring_8h.html" target="_top" xlink:title="uistring.h">
<polygon fill="white" stroke="black" points="635,-580.5 635,-601.5 691,-601.5 691,-580.5 635,-580.5"/>
<text text-anchor="middle" x="663" y="-588.5" font-family="Helvetica,sans-Serif" font-size="10.00">uistring.h</text>
</a>
</g>
<!-- Node2&#45;&gt;Node24 -->
<g id="edge76" class="edge"><title>Node2&#45;&gt;Node24</title>
<path fill="none" stroke="midnightblue" d="M377.095,-812.336C390.346,-802.915 410.091,-788.733 427,-776 507.37,-715.478 600.887,-640.906 641.901,-607.986"/>
<polygon fill="midnightblue" stroke="midnightblue" points="644.23,-610.605 649.833,-601.614 639.845,-605.148 644.23,-610.605"/>
</g>
<!-- Node33 -->
<g id="node93" class="node"><title>Node33</title>
<a xlink:href="uibaseobject_8h.html" target="_top" xlink:title="uibaseobject.h">
<polygon fill="white" stroke="black" points="272,-754.5 272,-775.5 352,-775.5 352,-754.5 272,-754.5"/>
<text text-anchor="middle" x="312" y="-762.5" font-family="Helvetica,sans-Serif" font-size="10.00">uibaseobject.h</text>
</a>
</g>
<!-- Node2&#45;&gt;Node33 -->
<g id="edge120" class="edge"><title>Node2&#45;&gt;Node33</title>
<path fill="none" stroke="midnightblue" d="M352.829,-812.362C345.852,-804.268 336.079,-792.932 327.844,-783.38"/>
<polygon fill="midnightblue" stroke="midnightblue" points="330.293,-780.859 321.113,-775.571 324.991,-785.43 330.293,-780.859"/>
</g>
<!-- Node5 -->
<g id="node9" class="node"><title>Node5</title>
<polygon fill="white" stroke="#bfbfbf" points="324.5,-0.5 324.5,-21.5 391.5,-21.5 391.5,-0.5 324.5,-0.5"/>
<text text-anchor="middle" x="358" y="-8.5" font-family="Helvetica,sans-Serif" font-size="10.00">basicmod.h</text>
</g>
<!-- Node4&#45;&gt;Node5 -->
<g id="edge8" class="edge"><title>Node4&#45;&gt;Node5</title>
<path fill="none" stroke="midnightblue" d="M408.358,-406.487C378.3,-350.457 238.273,-89.1719 236,-80 233.648,-70.5094 230.467,-66.0615 236,-58 245.33,-44.4066 283.36,-31.1053 314.512,-22.1423"/>
<polygon fill="midnightblue" stroke="midnightblue" points="315.654,-25.4573 324.339,-19.3898 313.766,-18.7167 315.654,-25.4573"/>
</g>
<!-- Node6 -->
<g id="node11" class="node"><title>Node6</title>
<a xlink:href="bufstring_8h.html" target="_top" xlink:title="bufstring.h">
<polygon fill="white" stroke="black" points="306,-348.5 306,-369.5 368,-369.5 368,-348.5 306,-348.5"/>
<text text-anchor="middle" x="337" y="-356.5" font-family="Helvetica,sans-Serif" font-size="10.00">bufstring.h</text>
</a>
</g>
<!-- Node4&#45;&gt;Node6 -->
<g id="edge10" class="edge"><title>Node4&#45;&gt;Node6</title>
<path fill="none" stroke="midnightblue" d="M399.877,-406.362C388.48,-397.777 372.242,-385.546 359.122,-375.664"/>
<polygon fill="midnightblue" stroke="midnightblue" points="361.127,-372.792 351.033,-369.571 356.915,-378.383 361.127,-372.792"/>
</g>
<!-- Node7 -->
<g id="node14" class="node"><title>Node7</title>
<a xlink:href="fixedstring_8h.html" target="_top" xlink:title="fixedstring.h">
<polygon fill="white" stroke="black" points="374,-290.5 374,-311.5 444,-311.5 444,-290.5 374,-290.5"/>
<text text-anchor="middle" x="409" y="-298.5" font-family="Helvetica,sans-Serif" font-size="10.00">fixedstring.h</text>
</a>
</g>
<!-- Node4&#45;&gt;Node7 -->
<g id="edge66" class="edge"><title>Node4&#45;&gt;Node7</title>
<path fill="none" stroke="midnightblue" d="M413.539,-406.295C412.713,-387.131 410.968,-346.654 409.898,-321.843"/>
<polygon fill="midnightblue" stroke="midnightblue" points="413.388,-321.519 409.46,-311.679 406.394,-321.821 413.388,-321.519"/>
</g>
<!-- Node23 -->
<g id="node57" class="node"><title>Node23</title>
<a xlink:href="convert_8h.html" target="_top" xlink:title="convert.h">
<polygon fill="white" stroke="black" points="611.5,-348.5 611.5,-369.5 668.5,-369.5 668.5,-348.5 611.5,-348.5"/>
<text text-anchor="middle" x="640" y="-356.5" font-family="Helvetica,sans-Serif" font-size="10.00">convert.h</text>
</a>
</g>
<!-- Node4&#45;&gt;Node23 -->
<g id="edge68" class="edge"><title>Node4&#45;&gt;Node23</title>
<path fill="none" stroke="midnightblue" d="M444.224,-409.93C479.731,-401.526 540.632,-386.811 601.576,-370.318"/>
<polygon fill="midnightblue" stroke="midnightblue" points="602.624,-373.66 611.353,-367.656 600.785,-366.905 602.624,-373.66"/>
</g>
<!-- Node6&#45;&gt;Node5 -->
<g id="edge12" class="edge"><title>Node6&#45;&gt;Node5</title>
<path fill="none" stroke="midnightblue" d="M325.633,-348.232C300.22,-323.582 238.275,-260.216 203,-196 172.372,-140.242 125.697,-108.023 165,-58 183.189,-34.8503 262.965,-21.6735 314.087,-15.4641"/>
<polygon fill="midnightblue" stroke="midnightblue" points="314.69,-18.9175 324.215,-14.279 313.876,-11.965 314.69,-18.9175"/>
</g>
<!-- Node6&#45;&gt;Node7 -->
<g id="edge14" class="edge"><title>Node6&#45;&gt;Node7</title>
<path fill="none" stroke="midnightblue" d="M350.206,-348.362C360.761,-339.859 375.758,-327.779 387.963,-317.947"/>
<polygon fill="midnightblue" stroke="midnightblue" points="390.286,-320.57 395.878,-311.571 385.895,-315.118 390.286,-320.57"/>
</g>
<!-- Node20 -->
<g id="node47" class="node"><title>Node20</title>
<a xlink:href="string2_8h.html" target="_top" xlink:title="string2.h">
<polygon fill="white" stroke="black" points="678,-290.5 678,-311.5 732,-311.5 732,-290.5 678,-290.5"/>
<text text-anchor="middle" x="705" y="-298.5" font-family="Helvetica,sans-Serif" font-size="10.00">string2.h</text>
</a>
</g>
<!-- Node6&#45;&gt;Node20 -->
<g id="edge54" class="edge"><title>Node6&#45;&gt;Node20</title>
<path fill="none" stroke="midnightblue" d="M368.058,-354.105C435.443,-343.485 594.84,-318.362 667.606,-306.894"/>
<polygon fill="midnightblue" stroke="midnightblue" points="668.359,-310.318 677.692,-305.304 667.269,-303.404 668.359,-310.318"/>
</g>
<!-- Node7&#45;&gt;Node5 -->
<g id="edge16" class="edge"><title>Node7&#45;&gt;Node5</title>
<path fill="none" stroke="midnightblue" d="M399.305,-290.323C391.782,-281.339 381.843,-267.784 377,-254 362.687,-213.265 359.12,-83.0646 358.261,-31.9148"/>
<polygon fill="midnightblue" stroke="midnightblue" points="361.758,-31.6854 358.11,-21.7387 354.759,-31.7898 361.758,-31.6854"/>
</g>
<!-- Node8 -->
<g id="node17" class="node"><title>Node8</title>
<a xlink:href="odstring_8h.html" target="_top" xlink:title="odstring.h">
<polygon fill="white" stroke="black" points="385.5,-232.5 385.5,-253.5 444.5,-253.5 444.5,-232.5 385.5,-232.5"/>
<text text-anchor="middle" x="415" y="-240.5" font-family="Helvetica,sans-Serif" font-size="10.00">odstring.h</text>
</a>
</g>
<!-- Node7&#45;&gt;Node8 -->
<g id="edge18" class="edge"><title>Node7&#45;&gt;Node8</title>
<path fill="none" stroke="midnightblue" d="M410.1,-290.362C410.87,-282.922 411.923,-272.743 412.856,-263.728"/>
<polygon fill="midnightblue" stroke="midnightblue" points="416.359,-263.878 413.906,-253.571 409.396,-263.157 416.359,-263.878"/>
</g>
<!-- Node8&#45;&gt;Node5 -->
<g id="edge20" class="edge"><title>Node8&#45;&gt;Node5</title>
<path fill="none" stroke="midnightblue" d="M415.367,-232.13C415.986,-202.88 415.28,-120.491 391,-58 387.034,-47.7918 380.396,-37.6908 374.109,-29.4844"/>
<polygon fill="midnightblue" stroke="midnightblue" points="376.819,-27.27 367.811,-21.6932 371.375,-31.6704 376.819,-27.27"/>
</g>
<!-- Node9 -->
<g id="node20" class="node"><title>Node9</title>
<a xlink:href="gendefs_8h.html" target="_top" xlink:title="gendefs.h">
<polygon fill="white" stroke="black" points="480.5,-174.5 480.5,-195.5 539.5,-195.5 539.5,-174.5 480.5,-174.5"/>
<text text-anchor="middle" x="510" y="-182.5" font-family="Helvetica,sans-Serif" font-size="10.00">gendefs.h</text>
</a>
</g>
<!-- Node8&#45;&gt;Node9 -->
<g id="edge22" class="edge"><title>Node8&#45;&gt;Node9</title>
<path fill="none" stroke="midnightblue" d="M432.424,-232.362C446.887,-223.532 467.669,-210.844 484.084,-200.822"/>
<polygon fill="midnightblue" stroke="midnightblue" points="485.975,-203.769 492.686,-195.571 482.327,-197.794 485.975,-203.769"/>
</g>
<!-- Node10 -->
<g id="node22" class="node"><title>Node10</title>
<a xlink:href="undefval_8h.html" target="_top" xlink:title="undefval.h">
<polygon fill="white" stroke="black" points="756,-116.5 756,-137.5 818,-137.5 818,-116.5 756,-116.5"/>
<text text-anchor="middle" x="787" y="-124.5" font-family="Helvetica,sans-Serif" font-size="10.00">undefval.h</text>
</a>
</g>
<!-- Node9&#45;&gt;Node10 -->
<g id="edge24" class="edge"><title>Node9&#45;&gt;Node10</title>
<path fill="none" stroke="midnightblue" d="M539.644,-178.793C589.309,-168.394 689.424,-147.431 745.871,-135.612"/>
<polygon fill="midnightblue" stroke="midnightblue" points="746.81,-138.991 755.88,-133.516 745.375,-132.14 746.81,-138.991"/>
</g>
<!-- Node17 -->
<g id="node39" class="node"><title>Node17</title>
<a xlink:href="commontypes_8h.html" target="_top" xlink:title="commontypes.h">
<polygon fill="white" stroke="black" points="514,-116.5 514,-137.5 600,-137.5 600,-116.5 514,-116.5"/>
<text text-anchor="middle" x="557" y="-124.5" font-family="Helvetica,sans-Serif" font-size="10.00">commontypes.h</text>
</a>
</g>
<!-- Node9&#45;&gt;Node17 -->
<g id="edge44" class="edge"><title>Node9&#45;&gt;Node17</title>
<path fill="none" stroke="midnightblue" d="M518.621,-174.362C525.18,-166.268 534.366,-154.932 542.106,-145.38"/>
<polygon fill="midnightblue" stroke="midnightblue" points="544.858,-147.544 548.434,-137.571 539.419,-143.136 544.858,-147.544"/>
</g>
<!-- Node18 -->
<g id="node42" class="node"><title>Node18</title>
<a xlink:href="errmsg_8h.html" target="_top" xlink:title="errmsg.h">
<polygon fill="white" stroke="black" points="441.5,-116.5 441.5,-137.5 496.5,-137.5 496.5,-116.5 441.5,-116.5"/>
<text text-anchor="middle" x="469" y="-124.5" font-family="Helvetica,sans-Serif" font-size="10.00">errmsg.h</text>
</a>
</g>
<!-- Node9&#45;&gt;Node18 -->
<g id="edge48" class="edge"><title>Node9&#45;&gt;Node18</title>
<path fill="none" stroke="midnightblue" d="M502.48,-174.362C496.874,-166.431 489.068,-155.389 482.403,-145.961"/>
<polygon fill="midnightblue" stroke="midnightblue" points="485.103,-143.716 476.472,-137.571 479.387,-147.757 485.103,-143.716"/>
</g>
<!-- Node10&#45;&gt;Node5 -->
<g id="edge26" class="edge"><title>Node10&#45;&gt;Node5</title>
<path fill="none" stroke="midnightblue" d="M761.486,-116.427C739.473,-107.179 706.914,-93.199 679,-80 659.593,-70.8235 656.376,-64.7568 636,-58 555.906,-31.4405 457.619,-19.3384 401.961,-14.2663"/>
<polygon fill="midnightblue" stroke="midnightblue" points="402.015,-10.7577 391.748,-13.3713 401.404,-17.731 402.015,-10.7577"/>
</g>
<!-- Node11 -->
<g id="node25" class="node"><title>Node11</title>
<a xlink:href="commondefs_8h.html" target="_top" xlink:title="commondefs.h">
<polygon fill="white" stroke="black" points="687.5,-58.5 687.5,-79.5 768.5,-79.5 768.5,-58.5 687.5,-58.5"/>
<text text-anchor="middle" x="728" y="-66.5" font-family="Helvetica,sans-Serif" font-size="10.00">commondefs.h</text>
</a>
</g>
<!-- Node10&#45;&gt;Node11 -->
<g id="edge28" class="edge"><title>Node10&#45;&gt;Node11</title>
<path fill="none" stroke="midnightblue" d="M776.178,-116.362C767.779,-108.104 755.946,-96.4725 746.11,-86.8029"/>
<polygon fill="midnightblue" stroke="midnightblue" points="748.338,-84.0851 738.753,-79.5707 743.431,-89.077 748.338,-84.0851"/>
</g>
<!-- Node15 -->
<g id="node34" class="node"><title>Node15</title>
<a xlink:href="plftypes_8h.html" target="_top" xlink:title="plftypes.h">
<polygon fill="white" stroke="black" points="800.5,-58.5 800.5,-79.5 859.5,-79.5 859.5,-58.5 800.5,-58.5"/>
<text text-anchor="middle" x="830" y="-66.5" font-family="Helvetica,sans-Serif" font-size="10.00">plftypes.h</text>
</a>
</g>
<!-- Node10&#45;&gt;Node15 -->
<g id="edge38" class="edge"><title>Node10&#45;&gt;Node15</title>
<path fill="none" stroke="midnightblue" d="M794.887,-116.362C800.827,-108.35 809.122,-97.1605 816.159,-87.6696"/>
<polygon fill="midnightblue" stroke="midnightblue" points="819.019,-89.6883 822.163,-79.5707 813.396,-85.5193 819.019,-89.6883"/>
</g>
<!-- Node11&#45;&gt;Node5 -->
<g id="edge30" class="edge"><title>Node11&#45;&gt;Node5</title>
<path fill="none" stroke="midnightblue" d="M687.354,-60.4786C682.855,-59.6074 678.334,-58.7632 674,-58 577.181,-40.9511 462.949,-24.9799 401.828,-16.7668"/>
<polygon fill="midnightblue" stroke="midnightblue" points="402.144,-13.2779 391.768,-15.4206 401.215,-20.2161 402.144,-13.2779"/>
</g>
<!-- Node12 -->
<g id="node28" class="node"><title>Node12</title>
<a xlink:href="plfdefs_8h.html" target="_top" xlink:title="plfdefs.h">
<polygon fill="white" stroke="black" points="748,-0.5 748,-21.5 802,-21.5 802,-0.5 748,-0.5"/>
<text text-anchor="middle" x="775" y="-8.5" font-family="Helvetica,sans-Serif" font-size="10.00">plfdefs.h</text>
</a>
</g>
<!-- Node11&#45;&gt;Node12 -->
<g id="edge32" class="edge"><title>Node11&#45;&gt;Node12</title>
<path fill="none" stroke="midnightblue" d="M736.621,-58.3619C743.18,-50.2678 752.366,-38.9318 760.106,-29.3796"/>
<polygon fill="midnightblue" stroke="midnightblue" points="762.858,-31.5436 766.434,-21.5707 757.419,-27.1364 762.858,-31.5436"/>
</g>
<!-- Node13 -->
<g id="node30" class="node"><title>Node13</title>
<polygon fill="white" stroke="#bfbfbf" points="496.5,-0.5 496.5,-21.5 555.5,-21.5 555.5,-0.5 496.5,-0.5"/>
<text text-anchor="middle" x="526" y="-8.5" font-family="Helvetica,sans-Serif" font-size="10.00">stdexcept</text>
</g>
<!-- Node11&#45;&gt;Node13 -->
<g id="edge34" class="edge"><title>Node11&#45;&gt;Node13</title>
<path fill="none" stroke="midnightblue" d="M691.419,-58.4966C655.878,-48.2916 602.07,-32.842 565.552,-22.3565"/>
<polygon fill="midnightblue" stroke="midnightblue" points="566.317,-18.9349 555.74,-19.5391 564.385,-25.663 566.317,-18.9349"/>
</g>
<!-- Node14 -->
<g id="node32" class="node"><title>Node14</title>
<polygon fill="white" stroke="#bfbfbf" points="695.5,-0.5 695.5,-21.5 730.5,-21.5 730.5,-0.5 695.5,-0.5"/>
<text text-anchor="middle" x="713" y="-8.5" font-family="Helvetica,sans-Serif" font-size="10.00">new</text>
</g>
<!-- Node11&#45;&gt;Node14 -->
<g id="edge36" class="edge"><title>Node11&#45;&gt;Node14</title>
<path fill="none" stroke="midnightblue" d="M725.249,-58.3619C723.303,-50.8401 720.634,-40.5187 718.284,-31.4308"/>
<polygon fill="midnightblue" stroke="midnightblue" points="721.626,-30.3758 715.734,-21.5707 714.849,-32.1285 721.626,-30.3758"/>
</g>
<!-- Node15&#45;&gt;Node12 -->
<g id="edge40" class="edge"><title>Node15&#45;&gt;Node12</title>
<path fill="none" stroke="midnightblue" d="M819.912,-58.3619C812.159,-50.1861 801.27,-38.7025 792.155,-29.0907"/>
<polygon fill="midnightblue" stroke="midnightblue" points="794.445,-26.4186 785.024,-21.5707 789.365,-31.2352 794.445,-26.4186"/>
</g>
<!-- Node16 -->
<g id="node37" class="node"><title>Node16</title>
<polygon fill="white" stroke="#bfbfbf" points="819.5,-0.5 819.5,-21.5 868.5,-21.5 868.5,-0.5 819.5,-0.5"/>
<text text-anchor="middle" x="844" y="-8.5" font-family="Helvetica,sans-Serif" font-size="10.00">stdint.h</text>
</g>
<!-- Node15&#45;&gt;Node16 -->
<g id="edge42" class="edge"><title>Node15&#45;&gt;Node16</title>
<path fill="none" stroke="midnightblue" d="M832.568,-58.3619C834.383,-50.8401 836.875,-40.5187 839.068,-31.4308"/>
<polygon fill="midnightblue" stroke="midnightblue" points="842.504,-32.1127 841.448,-21.5707 835.7,-30.4702 842.504,-32.1127"/>
</g>
<!-- Node17&#45;&gt;Node11 -->
<g id="edge46" class="edge"><title>Node17&#45;&gt;Node11</title>
<path fill="none" stroke="midnightblue" d="M587.967,-116.497C615.844,-107.041 656.997,-93.0829 687.482,-82.7428"/>
<polygon fill="midnightblue" stroke="midnightblue" points="688.629,-86.0497 696.975,-79.5231 686.381,-79.4207 688.629,-86.0497"/>
</g>
<!-- Node18&#45;&gt;Node11 -->
<g id="edge50" class="edge"><title>Node18&#45;&gt;Node11</title>
<path fill="none" stroke="midnightblue" d="M496.839,-118.227C499.587,-117.441 502.342,-116.685 505,-116 563.774,-100.859 632.181,-86.9875 677.574,-78.3009"/>
<polygon fill="midnightblue" stroke="midnightblue" points="678.294,-81.7268 687.464,-76.4206 676.986,-74.85 678.294,-81.7268"/>
</g>
<!-- Node19 -->
<g id="node45" class="node"><title>Node19</title>
<polygon fill="white" stroke="#bfbfbf" points="443.5,-58.5 443.5,-79.5 494.5,-79.5 494.5,-58.5 443.5,-58.5"/>
<text text-anchor="middle" x="469" y="-66.5" font-family="Helvetica,sans-Serif" font-size="10.00">typeinfo</text>
</g>
<!-- Node18&#45;&gt;Node19 -->
<g id="edge52" class="edge"><title>Node18&#45;&gt;Node19</title>
<path fill="none" stroke="midnightblue" d="M469,-116.362C469,-108.922 469,-98.7427 469,-89.7276"/>
<polygon fill="midnightblue" stroke="midnightblue" points="472.5,-89.5706 469,-79.5707 465.5,-89.5707 472.5,-89.5706"/>
</g>
<!-- Node20&#45;&gt;Node5 -->
<g id="edge56" class="edge"><title>Node20&#45;&gt;Node5</title>
<path fill="none" stroke="midnightblue" d="M684.452,-290.351C670.71,-282.194 653.318,-269.685 643,-254 608.285,-201.227 647.521,-166.062 609,-116 558.425,-50.2733 459.161,-25.3132 401.781,-16.1172"/>
<polygon fill="midnightblue" stroke="midnightblue" points="401.986,-12.6085 391.576,-14.5772 400.941,-19.5302 401.986,-12.6085"/>
</g>
<!-- Node20&#45;&gt;Node11 -->
<g id="edge60" class="edge"><title>Node20&#45;&gt;Node11</title>
<path fill="none" stroke="midnightblue" d="M732.211,-292.512C750.124,-285.346 772.19,-273.134 783,-254 799.396,-224.977 770.522,-209.644 747,-138 741.74,-121.978 736.717,-103.551 733.158,-89.7724"/>
<polygon fill="midnightblue" stroke="midnightblue" points="736.493,-88.6853 730.641,-79.8532 729.708,-90.4069 736.493,-88.6853"/>
</g>
<!-- Node20&#45;&gt;Node15 -->
<g id="edge58" class="edge"><title>Node20&#45;&gt;Node15</title>
<path fill="none" stroke="midnightblue" d="M732.098,-294.246C753.398,-287.539 782.189,-275.132 799,-254 837.584,-205.498 835.933,-126.868 832.545,-89.7101"/>
<polygon fill="midnightblue" stroke="midnightblue" points="836.008,-89.168 831.481,-79.589 829.046,-89.9002 836.008,-89.168"/>
</g>
<!-- Node21 -->
<g id="node52" class="node"><title>Node21</title>
<polygon fill="white" stroke="#bfbfbf" points="651.5,-232.5 651.5,-253.5 700.5,-253.5 700.5,-232.5 651.5,-232.5"/>
<text text-anchor="middle" x="676" y="-240.5" font-family="Helvetica,sans-Serif" font-size="10.00">ctype.h</text>
</g>
<!-- Node20&#45;&gt;Node21 -->
<g id="edge62" class="edge"><title>Node20&#45;&gt;Node21</title>
<path fill="none" stroke="midnightblue" d="M699.681,-290.362C695.797,-282.595 690.421,-271.843 685.773,-262.546"/>
<polygon fill="midnightblue" stroke="midnightblue" points="688.888,-260.95 681.285,-253.571 682.627,-264.08 688.888,-260.95"/>
</g>
<!-- Node22 -->
<g id="node54" class="node"><title>Node22</title>
<polygon fill="white" stroke="#bfbfbf" points="718,-232.5 718,-253.5 774,-253.5 774,-232.5 718,-232.5"/>
<text text-anchor="middle" x="746" y="-240.5" font-family="Helvetica,sans-Serif" font-size="10.00">wctype.h</text>
</g>
<!-- Node20&#45;&gt;Node22 -->
<g id="edge64" class="edge"><title>Node20&#45;&gt;Node22</title>
<path fill="none" stroke="midnightblue" d="M712.52,-290.362C718.126,-282.431 725.932,-271.389 732.597,-261.961"/>
<polygon fill="midnightblue" stroke="midnightblue" points="735.613,-263.757 738.528,-253.571 729.897,-259.716 735.613,-263.757"/>
</g>
<!-- Node23&#45;&gt;Node7 -->
<g id="edge74" class="edge"><title>Node23&#45;&gt;Node7</title>
<path fill="none" stroke="midnightblue" d="M611.358,-350.327C608.539,-349.521 605.718,-348.733 603,-348 552.212,-334.308 493.449,-320.329 454.023,-311.218"/>
<polygon fill="midnightblue" stroke="midnightblue" points="454.715,-307.785 444.184,-308.952 453.144,-314.607 454.715,-307.785"/>
</g>
<!-- Node23&#45;&gt;Node10 -->
<g id="edge72" class="edge"><title>Node23&#45;&gt;Node10</title>
<path fill="none" stroke="midnightblue" d="M668.68,-350.956C708.016,-338.079 776.403,-308.553 799,-254 813.674,-218.573 803.01,-172.972 794.569,-147.166"/>
<polygon fill="midnightblue" stroke="midnightblue" points="797.869,-146 791.279,-137.705 791.258,-148.3 797.869,-146"/>
</g>
<!-- Node23&#45;&gt;Node20 -->
<g id="edge70" class="edge"><title>Node23&#45;&gt;Node20</title>
<path fill="none" stroke="midnightblue" d="M651.922,-348.362C661.359,-339.941 674.73,-328.011 685.69,-318.231"/>
<polygon fill="midnightblue" stroke="midnightblue" points="688.022,-320.84 693.154,-311.571 683.362,-315.617 688.022,-320.84"/>
</g>
<!-- Node24&#45;&gt;Node9 -->
<g id="edge78" class="edge"><title>Node24&#45;&gt;Node9</title>
<path fill="none" stroke="midnightblue" d="M668.156,-580.413C677.438,-560.35 696,-515.201 696,-475 696,-475 696,-475 696,-417 696,-316.191 587.775,-234.185 536.432,-200.952"/>
<polygon fill="midnightblue" stroke="midnightblue" points="538.154,-197.9 527.834,-195.5 534.405,-203.811 538.154,-197.9"/>
</g>
<!-- Node24&#45;&gt;Node20 -->
<g id="edge94" class="edge"><title>Node24&#45;&gt;Node20</title>
<path fill="none" stroke="midnightblue" d="M676.618,-580.331C687.021,-571.554 701.05,-558.274 710,-544 727.249,-516.492 734,-507.469 734,-475 734,-475 734,-475 734,-417 734,-382.592 721.843,-344.112 713.271,-321.257"/>
<polygon fill="midnightblue" stroke="midnightblue" points="716.421,-319.7 709.531,-311.652 709.898,-322.24 716.421,-319.7"/>
</g>
<!-- Node25 -->
<g id="node65" class="node"><title>Node25</title>
<a xlink:href="keystrs_8h.html" target="_top" xlink:title="keystrs.h">
<polygon fill="white" stroke="black" points="537.5,-348.5 537.5,-369.5 594.5,-369.5 594.5,-348.5 537.5,-348.5"/>
<text text-anchor="middle" x="566" y="-356.5" font-family="Helvetica,sans-Serif" font-size="10.00">keystrs.h</text>
</a>
</g>
<!-- Node24&#45;&gt;Node25 -->
<g id="edge80" class="edge"><title>Node24&#45;&gt;Node25</title>
<path fill="none" stroke="midnightblue" d="M658.58,-580.429C643.557,-544.497 594.295,-426.674 574.423,-379.145"/>
<polygon fill="midnightblue" stroke="midnightblue" points="577.533,-377.509 570.446,-369.634 571.074,-380.21 577.533,-377.509"/>
</g>
<!-- Node26 -->
<g id="node69" class="node"><title>Node26</title>
<a xlink:href="threadlock_8h.html" target="_top" xlink:title="threadlock.h">
<polygon fill="white" stroke="black" points="874,-116.5 874,-137.5 944,-137.5 944,-116.5 874,-116.5"/>
<text text-anchor="middle" x="909" y="-124.5" font-family="Helvetica,sans-Serif" font-size="10.00">threadlock.h</text>
</a>
</g>
<!-- Node24&#45;&gt;Node26 -->
<g id="edge86" class="edge"><title>Node24&#45;&gt;Node26</title>
<path fill="none" stroke="midnightblue" d="M691.042,-584.449C756.914,-568.249 916,-524.045 916,-475 916,-475 916,-475 916,-243 916,-209.537 913.062,-170.743 910.992,-147.571"/>
<polygon fill="midnightblue" stroke="midnightblue" points="914.471,-147.178 910.063,-137.543 907.501,-147.824 914.471,-147.178"/>
</g>
<!-- Node27 -->
<g id="node75" class="node"><title>Node27</title>
<a xlink:href="typeset_8h.html" target="_top" xlink:title="typeset.h">
<polygon fill="white" stroke="black" points="328.5,-522.5 328.5,-543.5 385.5,-543.5 385.5,-522.5 328.5,-522.5"/>
<text text-anchor="middle" x="357" y="-530.5" font-family="Helvetica,sans-Serif" font-size="10.00">typeset.h</text>
</a>
</g>
<!-- Node24&#45;&gt;Node27 -->
<g id="edge96" class="edge"><title>Node24&#45;&gt;Node27</title>
<path fill="none" stroke="midnightblue" d="M634.761,-585.647C579.681,-575.207 457.853,-552.116 395.462,-540.29"/>
<polygon fill="midnightblue" stroke="midnightblue" points="396.093,-536.847 385.616,-538.424 394.789,-543.725 396.093,-536.847"/>
</g>
<!-- Node25&#45;&gt;Node7 -->
<g id="edge84" class="edge"><title>Node25&#45;&gt;Node7</title>
<path fill="none" stroke="midnightblue" d="M537.568,-348.497C512.195,-339.123 474.843,-325.324 446.93,-315.012"/>
<polygon fill="midnightblue" stroke="midnightblue" points="448.078,-311.705 437.485,-311.523 445.652,-318.272 448.078,-311.705"/>
</g>
<!-- Node25&#45;&gt;Node9 -->
<g id="edge82" class="edge"><title>Node25&#45;&gt;Node9</title>
<path fill="none" stroke="midnightblue" d="M562.581,-348.377C553.504,-320.172 528.671,-243.012 516.669,-205.72"/>
<polygon fill="midnightblue" stroke="midnightblue" points="519.912,-204.375 513.517,-195.928 513.249,-206.519 519.912,-204.375"/>
</g>
<!-- Node26&#45;&gt;Node5 -->
<g id="edge88" class="edge"><title>Node26&#45;&gt;Node5</title>
<path fill="none" stroke="midnightblue" d="M906.078,-116.431C901.119,-100.703 889.443,-71.5415 868,-58 863.08,-54.8932 524.992,-25.4233 402.061,-14.7967"/>
<polygon fill="midnightblue" stroke="midnightblue" points="402.138,-11.2905 391.874,-13.9167 401.536,-18.2645 402.138,-11.2905"/>
</g>
<!-- Node26&#45;&gt;Node11 -->
<g id="edge90" class="edge"><title>Node26&#45;&gt;Node11</title>
<path fill="none" stroke="midnightblue" d="M876.222,-116.497C846.587,-107 802.778,-92.9619 770.469,-82.6087"/>
<polygon fill="midnightblue" stroke="midnightblue" points="771.43,-79.2416 760.839,-79.5231 769.294,-85.9078 771.43,-79.2416"/>
</g>
<!-- Node26&#45;&gt;Node15 -->
<g id="edge92" class="edge"><title>Node26&#45;&gt;Node15</title>
<path fill="none" stroke="midnightblue" d="M894.51,-116.362C882.817,-107.777 866.157,-95.5459 852.697,-85.6636"/>
<polygon fill="midnightblue" stroke="midnightblue" points="854.53,-82.6675 844.398,-79.5707 850.387,-88.31 854.53,-82.6675"/>
</g>
<!-- Node28 -->
<g id="node77" class="node"><title>Node28</title>
<a xlink:href="odset_8h.html" target="_top" xlink:title="odset.h">
<polygon fill="white" stroke="black" points="335.5,-464.5 335.5,-485.5 384.5,-485.5 384.5,-464.5 335.5,-464.5"/>
<text text-anchor="middle" x="360" y="-472.5" font-family="Helvetica,sans-Serif" font-size="10.00">odset.h</text>
</a>
</g>
<!-- Node27&#45;&gt;Node28 -->
<g id="edge98" class="edge"><title>Node27&#45;&gt;Node28</title>
<path fill="none" stroke="midnightblue" d="M357.55,-522.362C357.935,-514.922 358.462,-504.743 358.928,-495.728"/>
<polygon fill="midnightblue" stroke="midnightblue" points="362.432,-495.738 359.453,-485.571 355.441,-495.376 362.432,-495.738"/>
</g>
<!-- Node29 -->
<g id="node80" class="node"><title>Node29</title>
<a xlink:href="vectoraccess_8h.html" target="_top" xlink:title="vectoraccess.h">
<polygon fill="white" stroke="black" points="235.5,-464.5 235.5,-485.5 318.5,-485.5 318.5,-464.5 235.5,-464.5"/>
<text text-anchor="middle" x="277" y="-472.5" font-family="Helvetica,sans-Serif" font-size="10.00">vectoraccess.h</text>
</a>
</g>
<!-- Node27&#45;&gt;Node29 -->
<g id="edge102" class="edge"><title>Node27&#45;&gt;Node29</title>
<path fill="none" stroke="midnightblue" d="M342.327,-522.362C330.486,-513.777 313.615,-501.546 299.984,-491.664"/>
<polygon fill="midnightblue" stroke="midnightblue" points="301.731,-488.607 291.58,-485.571 297.622,-494.274 301.731,-488.607"/>
</g>
<!-- Node28&#45;&gt;Node9 -->
<g id="edge100" class="edge"><title>Node28&#45;&gt;Node9</title>
<path fill="none" stroke="midnightblue" d="M384.708,-472.098C412.882,-467.521 458.576,-456.043 486,-428 508.702,-404.787 510,-391.469 510,-359 510,-359 510,-359 510,-301 510,-267.598 510,-228.785 510,-205.594"/>
<polygon fill="midnightblue" stroke="midnightblue" points="513.5,-205.556 510,-195.556 506.5,-205.556 513.5,-205.556"/>
</g>
<!-- Node29&#45;&gt;Node9 -->
<g id="edge112" class="edge"><title>Node29&#45;&gt;Node9</title>
<path fill="none" stroke="midnightblue" d="M318.538,-465.008C369.021,-452.702 448.131,-432.831 453,-428 475.579,-405.596 472,-390.808 472,-359 472,-359 472,-359 472,-301 472,-265.741 488.051,-227.315 499.289,-204.732"/>
<polygon fill="midnightblue" stroke="midnightblue" points="502.418,-206.301 503.895,-195.809 496.198,-203.09 502.418,-206.301"/>
</g>
<!-- Node29&#45;&gt;Node13 -->
<g id="edge118" class="edge"><title>Node29&#45;&gt;Node13</title>
<path fill="none" stroke="midnightblue" d="M235.446,-464.898C187.154,-450.384 114,-418.567 114,-359 114,-359 114,-359 114,-301 114,-180.153 138.572,-129.498 236,-58 255.906,-43.3917 411.625,-23.9916 486.306,-15.4072"/>
<polygon fill="midnightblue" stroke="midnightblue" points="486.744,-18.88 496.283,-14.2693 485.951,-11.9251 486.744,-18.88"/>
</g>
<!-- Node30 -->
<g id="node82" class="node"><title>Node30</title>
<a xlink:href="debug_8h.html" target="_top" xlink:title="debug.h">
<polygon fill="white" stroke="black" points="315.5,-406.5 315.5,-427.5 366.5,-427.5 366.5,-406.5 315.5,-406.5"/>
<text text-anchor="middle" x="341" y="-414.5" font-family="Helvetica,sans-Serif" font-size="10.00">debug.h</text>
</a>
</g>
<!-- Node29&#45;&gt;Node30 -->
<g id="edge104" class="edge"><title>Node29&#45;&gt;Node30</title>
<path fill="none" stroke="midnightblue" d="M288.739,-464.362C297.941,-456.023 310.94,-444.242 321.672,-434.516"/>
<polygon fill="midnightblue" stroke="midnightblue" points="324.276,-436.879 329.336,-427.571 319.576,-431.692 324.276,-436.879"/>
</g>
<!-- Node31 -->
<g id="node88" class="node"><title>Node31</title>
<polygon fill="white" stroke="#bfbfbf" points="180,-406.5 180,-427.5 236,-427.5 236,-406.5 180,-406.5"/>
<text text-anchor="middle" x="208" y="-414.5" font-family="Helvetica,sans-Serif" font-size="10.00">algorithm</text>
</g>
<!-- Node29&#45;&gt;Node31 -->
<g id="edge114" class="edge"><title>Node29&#45;&gt;Node31</title>
<path fill="none" stroke="midnightblue" d="M264.344,-464.362C254.326,-455.941 240.133,-444.011 228.499,-434.231"/>
<polygon fill="midnightblue" stroke="midnightblue" points="230.482,-431.326 220.575,-427.571 225.978,-436.684 230.482,-431.326"/>
</g>
<!-- Node32 -->
<g id="node90" class="node"><title>Node32</title>
<polygon fill="white" stroke="#bfbfbf" points="254,-406.5 254,-427.5 298,-427.5 298,-406.5 254,-406.5"/>
<text text-anchor="middle" x="276" y="-414.5" font-family="Helvetica,sans-Serif" font-size="10.00">vector</text>
</g>
<!-- Node29&#45;&gt;Node32 -->
<g id="edge116" class="edge"><title>Node29&#45;&gt;Node32</title>
<path fill="none" stroke="midnightblue" d="M276.817,-464.362C276.688,-456.922 276.513,-446.743 276.357,-437.728"/>
<polygon fill="midnightblue" stroke="midnightblue" points="279.854,-437.509 276.182,-427.571 272.855,-437.63 279.854,-437.509"/>
</g>
<!-- Node30&#45;&gt;Node5 -->
<g id="edge106" class="edge"><title>Node30&#45;&gt;Node5</title>
<path fill="none" stroke="midnightblue" d="M326.95,-406.475C268.324,-361.329 50.7513,-180.797 149,-58 169.245,-32.6963 258.778,-20.063 313.884,-14.5755"/>
<polygon fill="midnightblue" stroke="midnightblue" points="314.459,-18.0365 324.082,-13.6021 313.794,-11.0682 314.459,-18.0365"/>
</g>
<!-- Node30&#45;&gt;Node6 -->
<g id="edge110" class="edge"><title>Node30&#45;&gt;Node6</title>
<path fill="none" stroke="midnightblue" d="M340.266,-406.362C339.753,-398.922 339.051,-388.743 338.429,-379.728"/>
<polygon fill="midnightblue" stroke="midnightblue" points="341.909,-379.306 337.729,-369.571 334.925,-379.788 341.909,-379.306"/>
</g>
<!-- Node30&#45;&gt;Node9 -->
<g id="edge108" class="edge"><title>Node30&#45;&gt;Node9</title>
<path fill="none" stroke="midnightblue" d="M326.499,-406.479C316.096,-397.97 302.914,-384.97 297,-370 293.408,-360.906 294.093,-357.336 297,-348 315.62,-288.205 327.271,-270.069 377,-232 404.45,-210.986 442.068,-198.856 470.293,-192.202"/>
<polygon fill="midnightblue" stroke="midnightblue" points="471.229,-195.579 480.231,-189.992 469.71,-188.746 471.229,-195.579"/>
</g>
<!-- Node33&#45;&gt;Node3 -->
<g id="edge122" class="edge"><title>Node33&#45;&gt;Node3</title>
<path fill="none" stroke="midnightblue" d="M296.043,-754.362C283.043,-745.696 264.469,-733.313 249.573,-723.382"/>
<polygon fill="midnightblue" stroke="midnightblue" points="251.118,-720.206 240.856,-717.571 247.235,-726.03 251.118,-720.206"/>
</g>
<!-- Node34 -->
<g id="node96" class="node"><title>Node34</title>
<a xlink:href="namedobj_8h.html" target="_top" xlink:title="namedobj.h">
<polygon fill="white" stroke="black" points="278.5,-696.5 278.5,-717.5 345.5,-717.5 345.5,-696.5 278.5,-696.5"/>
<text text-anchor="middle" x="312" y="-704.5" font-family="Helvetica,sans-Serif" font-size="10.00">namedobj.h</text>
</a>
</g>
<!-- Node33&#45;&gt;Node34 -->
<g id="edge124" class="edge"><title>Node33&#45;&gt;Node34</title>
<path fill="none" stroke="midnightblue" d="M312,-754.362C312,-746.922 312,-736.743 312,-727.728"/>
<polygon fill="midnightblue" stroke="midnightblue" points="315.5,-727.571 312,-717.571 308.5,-727.571 315.5,-727.571"/>
</g>
<!-- Node34&#45;&gt;Node5 -->
<g id="edge126" class="edge"><title>Node34&#45;&gt;Node5</title>
<path fill="none" stroke="midnightblue" d="M278.314,-698.154C197.638,-676.497 0,-620.436 0,-591 0,-591 0,-591 0,-127 0,-83.9439 29.7438,-77.7557 68,-58 110.136,-36.241 244.071,-21.294 314.211,-14.7435"/>
<polygon fill="midnightblue" stroke="midnightblue" points="314.849,-18.1998 324.488,-13.8013 314.21,-11.2291 314.849,-18.1998"/>
</g>
<!-- Node34&#45;&gt;Node6 -->
<g id="edge158" class="edge"><title>Node34&#45;&gt;Node6</title>
<path fill="none" stroke="midnightblue" d="M289.753,-696.412C245.789,-674.758 152,-624.624 152,-591 152,-591 152,-591 152,-475 152,-443.192 148.59,-428.573 171,-406 188.437,-388.437 252.533,-373.964 295.784,-365.91"/>
<polygon fill="midnightblue" stroke="midnightblue" points="296.536,-369.331 305.749,-364.098 295.284,-362.444 296.536,-369.331"/>
</g>
<!-- Node35 -->
<g id="node99" class="node"><title>Node35</title>
<a xlink:href="callback_8h.html" target="_top" xlink:title="callback.h">
<polygon fill="white" stroke="black" points="281.5,-638.5 281.5,-659.5 342.5,-659.5 342.5,-638.5 281.5,-638.5"/>
<text text-anchor="middle" x="312" y="-646.5" font-family="Helvetica,sans-Serif" font-size="10.00">callback.h</text>
</a>
</g>
<!-- Node34&#45;&gt;Node35 -->
<g id="edge128" class="edge"><title>Node34&#45;&gt;Node35</title>
<path fill="none" stroke="midnightblue" d="M312,-696.362C312,-688.922 312,-678.743 312,-669.728"/>
<polygon fill="midnightblue" stroke="midnightblue" points="315.5,-669.571 312,-659.571 308.5,-669.571 315.5,-669.571"/>
</g>
<!-- Node35&#45;&gt;Node5 -->
<g id="edge130" class="edge"><title>Node35&#45;&gt;Node5</title>
<path fill="none" stroke="midnightblue" d="M281.366,-642.828C209.867,-627.547 38,-585.367 38,-533 38,-533 38,-533 38,-127 38,-75.175 84.6607,-79.0908 132,-58 191.898,-31.314 267.554,-19.5405 314.354,-14.5185"/>
<polygon fill="midnightblue" stroke="midnightblue" points="314.864,-17.9849 324.458,-13.4914 314.156,-11.0208 314.864,-17.9849"/>
</g>
<!-- Node35&#45;&gt;Node26 -->
<g id="edge156" class="edge"><title>Node35&#45;&gt;Node26</title>
<path fill="none" stroke="midnightblue" d="M342.533,-646.765C470.119,-637.024 954,-595.932 954,-533 954,-533 954,-533 954,-243 954,-206.899 934.821,-168.496 921.505,-146.182"/>
<polygon fill="midnightblue" stroke="midnightblue" points="924.469,-144.32 916.23,-137.658 918.516,-148.003 924.469,-144.32"/>
</g>
<!-- Node36 -->
<g id="node102" class="node"><title>Node36</title>
<a xlink:href="refcount_8h.html" target="_top" xlink:title="refcount.h">
<polygon fill="white" stroke="black" points="231,-580.5 231,-601.5 291,-601.5 291,-580.5 231,-580.5"/>
<text text-anchor="middle" x="261" y="-588.5" font-family="Helvetica,sans-Serif" font-size="10.00">refcount.h</text>
</a>
</g>
<!-- Node35&#45;&gt;Node36 -->
<g id="edge132" class="edge"><title>Node35&#45;&gt;Node36</title>
<path fill="none" stroke="midnightblue" d="M302.646,-638.362C295.457,-630.186 285.359,-618.702 276.907,-609.091"/>
<polygon fill="midnightblue" stroke="midnightblue" points="279.527,-606.769 270.295,-601.571 274.27,-611.392 279.527,-606.769"/>
</g>
<!-- Node40 -->
<g id="node115" class="node"><title>Node40</title>
<a xlink:href="sets_8h.html" target="_top" xlink:title="sets.h">
<polygon fill="white" stroke="black" points="309,-580.5 309,-601.5 353,-601.5 353,-580.5 309,-580.5"/>
<text text-anchor="middle" x="331" y="-588.5" font-family="Helvetica,sans-Serif" font-size="10.00">sets.h</text>
</a>
</g>
<!-- Node35&#45;&gt;Node40 -->
<g id="edge150" class="edge"><title>Node35&#45;&gt;Node40</title>
<path fill="none" stroke="midnightblue" d="M315.485,-638.362C317.976,-630.758 321.404,-620.294 324.404,-611.135"/>
<polygon fill="midnightblue" stroke="midnightblue" points="327.75,-612.163 327.537,-601.571 321.098,-609.984 327.75,-612.163"/>
</g>
<!-- Node37 -->
<g id="node104" class="node"><title>Node37</title>
<a xlink:href="atomic_8h.html" target="_top" xlink:title="atomic.h">
<polygon fill="white" stroke="black" points="294,-116.5 294,-137.5 348,-137.5 348,-116.5 294,-116.5"/>
<text text-anchor="middle" x="321" y="-124.5" font-family="Helvetica,sans-Serif" font-size="10.00">atomic.h</text>
</a>
</g>
<!-- Node36&#45;&gt;Node37 -->
<g id="edge134" class="edge"><title>Node36&#45;&gt;Node37</title>
<path fill="none" stroke="midnightblue" d="M238.381,-580.433C187.738,-555.114 71.7971,-487.026 100,-406 140.72,-289.013 253.182,-184.163 300.06,-144.177"/>
<polygon fill="midnightblue" stroke="midnightblue" points="302.371,-146.807 307.764,-137.688 297.861,-141.453 302.371,-146.807"/>
</g>
<!-- Node39 -->
<g id="node111" class="node"><title>Node39</title>
<a xlink:href="objectset_8h.html" target="_top" xlink:title="objectset.h">
<polygon fill="white" stroke="black" points="246.5,-522.5 246.5,-543.5 311.5,-543.5 311.5,-522.5 246.5,-522.5"/>
<text text-anchor="middle" x="279" y="-530.5" font-family="Helvetica,sans-Serif" font-size="10.00">objectset.h</text>
</a>
</g>
<!-- Node36&#45;&gt;Node39 -->
<g id="edge144" class="edge"><title>Node36&#45;&gt;Node39</title>
<path fill="none" stroke="midnightblue" d="M264.301,-580.362C266.661,-572.758 269.909,-562.294 272.751,-553.135"/>
<polygon fill="midnightblue" stroke="midnightblue" points="276.098,-554.159 275.719,-543.571 269.413,-552.084 276.098,-554.159"/>
</g>
<!-- Node37&#45;&gt;Node5 -->
<g id="edge136" class="edge"><title>Node37&#45;&gt;Node5</title>
<path fill="none" stroke="midnightblue" d="M324.415,-116.295C330.555,-97.0451 343.554,-56.2889 351.458,-31.5091"/>
<polygon fill="midnightblue" stroke="midnightblue" points="354.889,-32.2699 354.594,-21.6792 348.22,-30.1427 354.889,-32.2699"/>
</g>
<!-- Node37&#45;&gt;Node11 -->
<g id="edge138" class="edge"><title>Node37&#45;&gt;Node11</title>
<path fill="none" stroke="midnightblue" d="M348.02,-123.15C415.136,-113.585 590.29,-88.6246 677.354,-76.2173"/>
<polygon fill="midnightblue" stroke="midnightblue" points="677.863,-79.6802 687.27,-74.8043 676.876,-72.7502 677.863,-79.6802"/>
</g>
<!-- Node37&#45;&gt;Node15 -->
<g id="edge140" class="edge"><title>Node37&#45;&gt;Node15</title>
<path fill="none" stroke="midnightblue" d="M348.039,-124.29C442.854,-114.777 755.667,-83.3044 777,-80 781.402,-79.3181 785.992,-78.5115 790.548,-77.6498"/>
<polygon fill="midnightblue" stroke="midnightblue" points="791.254,-81.0781 800.384,-75.7024 789.894,-74.2114 791.254,-81.0781"/>
</g>
<!-- Node38 -->
<g id="node109" class="node"><title>Node38</title>
<polygon fill="white" stroke="#bfbfbf" points="244.5,-58.5 244.5,-79.5 311.5,-79.5 311.5,-58.5 244.5,-58.5"/>
<text text-anchor="middle" x="278" y="-66.5" font-family="Helvetica,sans-Serif" font-size="10.00">odversion.h</text>
</g>
<!-- Node37&#45;&gt;Node38 -->
<g id="edge142" class="edge"><title>Node37&#45;&gt;Node38</title>
<path fill="none" stroke="midnightblue" d="M313.113,-116.362C307.173,-108.35 298.878,-97.1605 291.841,-87.6696"/>
<polygon fill="midnightblue" stroke="midnightblue" points="294.604,-85.5193 285.837,-79.5707 288.981,-89.6883 294.604,-85.5193"/>
</g>
<!-- Node39&#45;&gt;Node28 -->
<g id="edge146" class="edge"><title>Node39&#45;&gt;Node28</title>
<path fill="none" stroke="midnightblue" d="M293.857,-522.362C305.846,-513.777 322.927,-501.546 336.728,-491.664"/>
<polygon fill="midnightblue" stroke="midnightblue" points="339.145,-494.238 345.238,-485.571 335.069,-488.547 339.145,-494.238"/>
</g>
<!-- Node39&#45;&gt;Node29 -->
<g id="edge148" class="edge"><title>Node39&#45;&gt;Node29</title>
<path fill="none" stroke="midnightblue" d="M278.633,-522.362C278.377,-514.922 278.026,-504.743 277.715,-495.728"/>
<polygon fill="midnightblue" stroke="midnightblue" points="281.207,-495.444 277.365,-485.571 274.211,-495.685 281.207,-495.444"/>
</g>
<!-- Node40&#45;&gt;Node27 -->
<g id="edge152" class="edge"><title>Node40&#45;&gt;Node27</title>
<path fill="none" stroke="midnightblue" d="M335.769,-580.362C339.214,-572.677 343.969,-562.069 348.106,-552.84"/>
<polygon fill="midnightblue" stroke="midnightblue" points="351.365,-554.127 352.261,-543.571 344.977,-551.264 351.365,-554.127"/>
</g>
<!-- Node40&#45;&gt;Node39 -->
<g id="edge154" class="edge"><title>Node40&#45;&gt;Node39</title>
<path fill="none" stroke="midnightblue" d="M321.462,-580.362C314.132,-572.186 303.837,-560.702 295.219,-551.091"/>
<polygon fill="midnightblue" stroke="midnightblue" points="297.759,-548.68 288.477,-543.571 292.547,-553.353 297.759,-548.68"/>
</g>
</g>
</svg>
