<?xml version="1.0" encoding="UTF-8" standalone="no"?>
<!DOCTYPE svg PUBLIC "-//W3C//DTD SVG 1.1//EN"
 "http://www.w3.org/Graphics/SVG/1.1/DTD/svg11.dtd">
<!-- Generated by graphviz version 2.26.0 (20091210.2329)
 -->
<!-- Title: Graphical Class Hierarchy Pages: 1 -->
<svg width="216pt" height="70pt"
 viewBox="0.00 0.00 216.00 70.00" xmlns="http://www.w3.org/2000/svg" xmlns:xlink="http://www.w3.org/1999/xlink">
<g id="graph1" class="graph" transform="scale(1 1) rotate(0) translate(4 66)">
<title>Graphical Class Hierarchy</title>
<polygon fill="white" stroke="white" points="-4,5 -4,-66 213,-66 213,5 -4,5"/>
<!-- Node1 -->
<g id="node1" class="node"><title>Node1</title>
<a xlink:href="classSeparString.html" target="_top" xlink:title="List encoded in a string. ">
<polygon fill="white" stroke="black" points="0,-20.5 0,-41.5 68,-41.5 68,-20.5 0,-20.5"/>
<text text-anchor="middle" x="34" y="-28.5" font-family="Helvetica,sans-Serif" font-size="10.00">SeparString</text>
</a>
</g>
<!-- Node2 -->
<g id="node3" class="node"><title>Node2</title>
<a xlink:href="classFileMultiString.html" target="_top" xlink:title="SeparString with backquotes as separators, use in most ascii files. ">
<polygon fill="white" stroke="black" points="116.5,-40.5 116.5,-61.5 195.5,-61.5 195.5,-40.5 116.5,-40.5"/>
<text text-anchor="middle" x="156" y="-48.5" font-family="Helvetica,sans-Serif" font-size="10.00">FileMultiString</text>
</a>
</g>
<!-- Node1&#45;&gt;Node2 -->
<g id="edge2" class="edge"><title>Node1&#45;&gt;Node2</title>
<path fill="none" stroke="midnightblue" d="M78.4458,-38.2862C90.8502,-40.3197 104.243,-42.5152 116.351,-44.5001"/>
<polygon fill="midnightblue" stroke="midnightblue" points="78.743,-34.7883 68.3085,-36.6243 77.6105,-41.6961 78.743,-34.7883"/>
</g>
<!-- Node3 -->
<g id="node5" class="node"><title>Node3</title>
<a xlink:href="classuiActionSeparString.html" target="_top" xlink:title="uiActionSeparString">
<polygon fill="white" stroke="black" points="104.5,-0.5 104.5,-21.5 207.5,-21.5 207.5,-0.5 104.5,-0.5"/>
<text text-anchor="middle" x="156" y="-8.5" font-family="Helvetica,sans-Serif" font-size="10.00">uiActionSeparString</text>
</a>
</g>
<!-- Node1&#45;&gt;Node3 -->
<g id="edge4" class="edge"><title>Node1&#45;&gt;Node3</title>
<path fill="none" stroke="midnightblue" d="M78.2879,-23.7397C86.6949,-22.3615 95.5608,-20.9081 104.177,-19.4956"/>
<polygon fill="midnightblue" stroke="midnightblue" points="77.6105,-20.3039 68.3085,-25.3757 78.743,-27.2117 77.6105,-20.3039"/>
</g>
</g>
</svg>
