<?xml version="1.0" encoding="UTF-8" standalone="no"?>
<!DOCTYPE svg PUBLIC "-//W3C//DTD SVG 1.1//EN"
 "http://www.w3.org/Graphics/SVG/1.1/DTD/svg11.dtd">
<!-- Generated by graphviz version 2.26.0 (20091210.2329)
 -->
<!-- Title: Graphical Class Hierarchy Pages: 1 -->
<svg width="328pt" height="94pt"
 viewBox="0.00 0.00 328.00 94.00" xmlns="http://www.w3.org/2000/svg" xmlns:xlink="http://www.w3.org/1999/xlink">
<g id="graph1" class="graph" transform="scale(1 1) rotate(0) translate(4 90)">
<title>Graphical Class Hierarchy</title>
<polygon fill="white" stroke="white" points="-4,5 -4,-90 325,-90 325,5 -4,5"/>
<!-- Node1 -->
<g id="node1" class="node"><title>Node1</title>
<a xlink:href="classPreStack_1_1AngleComputer.html" target="_top" xlink:title="Computes angles for PreStack::Gather. ">
<polygon fill="white" stroke="black" points="0.5,-32.5 0.5,-53.5 131.5,-53.5 131.5,-32.5 0.5,-32.5"/>
<text text-anchor="middle" x="66" y="-40.5" font-family="Helvetica,sans-Serif" font-size="10.00">PreStack::AngleComputer</text>
</a>
</g>
<!-- Node2 -->
<g id="node3" class="node"><title>Node2</title>
<a xlink:href="classPreStack_1_1ModelBasedAngleComputer.html" target="_top" xlink:title="Computes angles for PreStack::Gather from ElasticModel. ">
<polygon fill="white" stroke="black" points="173,-52 173,-86 315,-86 315,-52 173,-52"/>
<text text-anchor="start" x="181" y="-73" font-family="Helvetica,sans-Serif" font-size="10.00">PreStack::ModelBasedAngle</text>
<text text-anchor="middle" x="244" y="-60" font-family="Helvetica,sans-Serif" font-size="10.00">Computer</text>
</a>
</g>
<!-- Node1&#45;&gt;Node2 -->
<g id="edge2" class="edge"><title>Node1&#45;&gt;Node2</title>
<path fill="none" stroke="midnightblue" d="M141.434,-54.0185C151.874,-55.5434 162.569,-57.1056 172.926,-58.6184"/>
<polygon fill="midnightblue" stroke="midnightblue" points="141.923,-50.5528 131.522,-52.5707 140.911,-57.4793 141.923,-50.5528"/>
</g>
<!-- Node3 -->
<g id="node5" class="node"><title>Node3</title>
<a xlink:href="classPreStack_1_1VelocityBasedAngleComputer.html" target="_top" xlink:title="Computes angles for PreStack::Gather from velocity model. ">
<polygon fill="white" stroke="black" points="168.5,-0 168.5,-34 319.5,-34 319.5,-0 168.5,-0"/>
<text text-anchor="start" x="176.5" y="-21" font-family="Helvetica,sans-Serif" font-size="10.00">PreStack::VelocityBasedAngle</text>
<text text-anchor="middle" x="244" y="-8" font-family="Helvetica,sans-Serif" font-size="10.00">Computer</text>
</a>
</g>
<!-- Node1&#45;&gt;Node3 -->
<g id="edge4" class="edge"><title>Node1&#45;&gt;Node3</title>
<path fill="none" stroke="midnightblue" d="M141.479,-31.9749C150.385,-30.674 159.476,-29.3461 168.384,-28.045"/>
<polygon fill="midnightblue" stroke="midnightblue" points="140.911,-28.5207 131.522,-33.4293 141.923,-35.4472 140.911,-28.5207"/>
</g>
</g>
</svg>
