<?xml version="1.0" encoding="UTF-8" standalone="no"?>
<!DOCTYPE svg PUBLIC "-//W3C//DTD SVG 1.1//EN"
 "http://www.w3.org/Graphics/SVG/1.1/DTD/svg11.dtd">
<!-- Generated by graphviz version 2.26.0 (20091210.2329)
 -->
<!-- Title: Graphical Class Hierarchy Pages: 1 -->
<svg width="328pt" height="42pt"
 viewBox="0.00 0.00 328.00 42.00" xmlns="http://www.w3.org/2000/svg" xmlns:xlink="http://www.w3.org/1999/xlink">
<g id="graph1" class="graph" transform="scale(1 1) rotate(0) translate(4 38)">
<title>Graphical Class Hierarchy</title>
<polygon fill="white" stroke="white" points="-4,5 -4,-38 325,-38 325,5 -4,5"/>
<!-- Node1 -->
<g id="node1" class="node"><title>Node1</title>
<a xlink:href="classPtrManBase.html" target="_top" xlink:title="PtrManBase\&lt; EnumDefImpl\l\&lt; Type \&gt; \&gt;">
<polygon fill="white" stroke="black" points="0,-0 0,-34 140,-34 140,-0 0,-0"/>
<text text-anchor="start" x="8" y="-21" font-family="Helvetica,sans-Serif" font-size="10.00">PtrManBase&lt; EnumDefImpl</text>
<text text-anchor="middle" x="70" y="-8" font-family="Helvetica,sans-Serif" font-size="10.00">&lt; Type &gt; &gt;</text>
</a>
</g>
<!-- Node2 -->
<g id="node3" class="node"><title>Node2</title>
<a xlink:href="classConstPtrMan.html" target="_top" xlink:title="ConstPtrMan\&lt; EnumDefImpl\l\&lt; Type \&gt; \&gt;">
<polygon fill="white" stroke="black" points="176.5,-0 176.5,-34 319.5,-34 319.5,-0 176.5,-0"/>
<text text-anchor="start" x="184.5" y="-21" font-family="Helvetica,sans-Serif" font-size="10.00">ConstPtrMan&lt; EnumDefImpl</text>
<text text-anchor="middle" x="248" y="-8" font-family="Helvetica,sans-Serif" font-size="10.00">&lt; Type &gt; &gt;</text>
</a>
</g>
<!-- Node1&#45;&gt;Node2 -->
<g id="edge2" class="edge"><title>Node1&#45;&gt;Node2</title>
<path fill="none" stroke="midnightblue" d="M150.201,-17C158.871,-17 167.653,-17 176.215,-17"/>
<polygon fill="midnightblue" stroke="midnightblue" points="150.095,-13.5001 140.095,-17 150.095,-20.5001 150.095,-13.5001"/>
</g>
</g>
</svg>
