<?xml version="1.0" encoding="UTF-8" standalone="no"?>
<!DOCTYPE svg PUBLIC "-//W3C//DTD SVG 1.1//EN"
 "http://www.w3.org/Graphics/SVG/1.1/DTD/svg11.dtd">
<!-- Generated by graphviz version 2.26.0 (20091210.2329)
 -->
<!-- Title: Graphical Class Hierarchy Pages: 1 -->
<svg width="264pt" height="70pt"
 viewBox="0.00 0.00 264.00 70.00" xmlns="http://www.w3.org/2000/svg" xmlns:xlink="http://www.w3.org/1999/xlink">
<g id="graph1" class="graph" transform="scale(1 1) rotate(0) translate(4 66)">
<title>Graphical Class Hierarchy</title>
<polygon fill="white" stroke="white" points="-4,5 -4,-66 261,-66 261,5 -4,5"/>
<!-- Node1 -->
<g id="node1" class="node"><title>Node1</title>
<a xlink:href="classOD_1_1String.html" target="_top" xlink:title="encapsulates the read&#45;access&#45;only part of strings in OD. ">
<polygon fill="white" stroke="black" points="0.5,-20.5 0.5,-41.5 63.5,-41.5 63.5,-20.5 0.5,-20.5"/>
<text text-anchor="middle" x="32" y="-28.5" font-family="Helvetica,sans-Serif" font-size="10.00">OD::String</text>
</a>
</g>
<!-- Node2 -->
<g id="node3" class="node"><title>Node2</title>
<a xlink:href="classBufferString.html" target="_top" xlink:title="OD::String with its own variable length buffer. The buffer has a guaranteed minimum size...">
<polygon fill="white" stroke="black" points="100,-40.5 100,-61.5 168,-61.5 168,-40.5 100,-40.5"/>
<text text-anchor="middle" x="134" y="-48.5" font-family="Helvetica,sans-Serif" font-size="10.00">BufferString</text>
</a>
</g>
<!-- Node1&#45;&gt;Node2 -->
<g id="edge2" class="edge"><title>Node1&#45;&gt;Node2</title>
<path fill="none" stroke="midnightblue" d="M73.684,-39.1733C82.3769,-40.8778 91.4436,-42.6556 99.8271,-44.2994"/>
<polygon fill="midnightblue" stroke="midnightblue" points="74.2009,-35.7081 63.7143,-37.2185 72.854,-42.5773 74.2009,-35.7081"/>
</g>
<!-- Node4 -->
<g id="node7" class="node"><title>Node4</title>
<a xlink:href="classFixedString.html" target="_top" xlink:title="OD::String that holds an existing text string. ">
<polygon fill="white" stroke="black" points="101,-0.5 101,-21.5 167,-21.5 167,-0.5 101,-0.5"/>
<text text-anchor="middle" x="134" y="-8.5" font-family="Helvetica,sans-Serif" font-size="10.00">FixedString</text>
</a>
</g>
<!-- Node1&#45;&gt;Node4 -->
<g id="edge6" class="edge"><title>Node1&#45;&gt;Node4</title>
<path fill="none" stroke="midnightblue" d="M73.7043,-22.8227C82.7613,-21.0468 92.2231,-19.1915 100.895,-17.4913"/>
<polygon fill="midnightblue" stroke="midnightblue" points="72.854,-19.4227 63.7143,-24.7815 74.2009,-26.2919 72.854,-19.4227"/>
</g>
<!-- Node3 -->
<g id="node5" class="node"><title>Node3</title>
<a xlink:href="classLineKey.html" target="_top" xlink:title="Key for a line in a line set. ">
<polygon fill="white" stroke="black" points="204,-40.5 204,-61.5 256,-61.5 256,-40.5 204,-40.5"/>
<text text-anchor="middle" x="230" y="-48.5" font-family="Helvetica,sans-Serif" font-size="10.00">LineKey</text>
</a>
</g>
<!-- Node2&#45;&gt;Node3 -->
<g id="edge4" class="edge"><title>Node2&#45;&gt;Node3</title>
<path fill="none" stroke="midnightblue" d="M178.247,-51C187.002,-51 195.925,-51 203.841,-51"/>
<polygon fill="midnightblue" stroke="midnightblue" points="178.116,-47.5001 168.116,-51 178.116,-54.5001 178.116,-47.5001"/>
</g>
</g>
</svg>
