<?xml version="1.0" encoding="UTF-8" standalone="no"?>
<!DOCTYPE svg PUBLIC "-//W3C//DTD SVG 1.1//EN"
 "http://www.w3.org/Graphics/SVG/1.1/DTD/svg11.dtd">
<!-- Generated by graphviz version 2.26.0 (20091210.2329)
 -->
<!-- Title: Graphical Class Hierarchy Pages: 1 -->
<svg width="264pt" height="70pt"
 viewBox="0.00 0.00 264.00 70.00" xmlns="http://www.w3.org/2000/svg" xmlns:xlink="http://www.w3.org/1999/xlink">
<g id="graph1" class="graph" transform="scale(1 1) rotate(0) translate(4 66)">
<title>Graphical Class Hierarchy</title>
<polygon fill="white" stroke="white" points="-4,5 -4,-66 261,-66 261,5 -4,5"/>
<!-- Node1 -->
<g id="node1" class="node"><title>Node1</title>
<a xlink:href="classStrat_1_1LayerValue.html" target="_top" xlink:title="Strat::LayerValue">
<polygon fill="white" stroke="black" points="0,-20.5 0,-41.5 92,-41.5 92,-20.5 0,-20.5"/>
<text text-anchor="middle" x="46" y="-28.5" font-family="Helvetica,sans-Serif" font-size="10.00">Strat::LayerValue</text>
</a>
</g>
<!-- Node2 -->
<g id="node3" class="node"><title>Node2</title>
<a xlink:href="classStrat_1_1FormulaLayerValue.html" target="_top" xlink:title="returns a layer value based on Math::Formula. It does not copy the Formula, so keep the formula alive...">
<polygon fill="white" stroke="black" points="128,-40.5 128,-61.5 256,-61.5 256,-40.5 128,-40.5"/>
<text text-anchor="middle" x="192" y="-48.5" font-family="Helvetica,sans-Serif" font-size="10.00">Strat::FormulaLayerValue</text>
</a>
</g>
<!-- Node1&#45;&gt;Node2 -->
<g id="edge2" class="edge"><title>Node1&#45;&gt;Node2</title>
<path fill="none" stroke="midnightblue" d="M102.268,-38.7079C110.679,-39.8602 119.404,-41.0554 127.962,-42.2277"/>
<polygon fill="midnightblue" stroke="midnightblue" points="102.578,-35.2178 92.1953,-37.3281 101.628,-42.153 102.578,-35.2178"/>
</g>
<!-- Node3 -->
<g id="node5" class="node"><title>Node3</title>
<a xlink:href="classStrat_1_1SimpleLayerValue.html" target="_top" xlink:title="Strat::SimpleLayerValue">
<polygon fill="white" stroke="black" points="131,-0.5 131,-21.5 253,-21.5 253,-0.5 131,-0.5"/>
<text text-anchor="middle" x="192" y="-8.5" font-family="Helvetica,sans-Serif" font-size="10.00">Strat::SimpleLayerValue</text>
</a>
</g>
<!-- Node1&#45;&gt;Node3 -->
<g id="edge4" class="edge"><title>Node1&#45;&gt;Node3</title>
<path fill="none" stroke="midnightblue" d="M102.199,-23.3016C111.588,-22.0153 121.37,-20.6753 130.876,-19.3732"/>
<polygon fill="midnightblue" stroke="midnightblue" points="101.628,-19.847 92.1953,-24.6719 102.578,-26.7822 101.628,-19.847"/>
</g>
</g>
</svg>
