<?xml version="1.0" encoding="UTF-8" standalone="no"?>
<!DOCTYPE svg PUBLIC "-//W3C//DTD SVG 1.1//EN"
 "http://www.w3.org/Graphics/SVG/1.1/DTD/svg11.dtd">
<!-- Generated by graphviz version 2.26.0 (20091210.2329)
 -->
<!-- Title: Graphical Class Hierarchy Pages: 1 -->
<svg width="302pt" height="70pt"
 viewBox="0.00 0.00 302.00 70.00" xmlns="http://www.w3.org/2000/svg" xmlns:xlink="http://www.w3.org/1999/xlink">
<g id="graph1" class="graph" transform="scale(1 1) rotate(0) translate(4 66)">
<title>Graphical Class Hierarchy</title>
<polygon fill="white" stroke="white" points="-4,5 -4,-66 299,-66 299,5 -4,5"/>
<!-- Node1 -->
<g id="node1" class="node"><title>Node1</title>
<a xlink:href="classSurvey_1_1GeometryWriter.html" target="_top" xlink:title="Survey::GeometryWriter">
<polygon fill="white" stroke="black" points="0,-20.5 0,-41.5 122,-41.5 122,-20.5 0,-20.5"/>
<text text-anchor="middle" x="61" y="-28.5" font-family="Helvetica,sans-Serif" font-size="10.00">Survey::GeometryWriter</text>
</a>
</g>
<!-- Node2 -->
<g id="node3" class="node"><title>Node2</title>
<a xlink:href="classSurvey_1_1GeometryWriter2D.html" target="_top" xlink:title="2D GeometryWriter. ">
<polygon fill="white" stroke="black" points="158.5,-40.5 158.5,-61.5 293.5,-61.5 293.5,-40.5 158.5,-40.5"/>
<text text-anchor="middle" x="226" y="-48.5" font-family="Helvetica,sans-Serif" font-size="10.00">Survey::GeometryWriter2D</text>
</a>
</g>
<!-- Node1&#45;&gt;Node2 -->
<g id="edge2" class="edge"><title>Node1&#45;&gt;Node2</title>
<path fill="none" stroke="midnightblue" d="M132.457,-39.6614C141.073,-40.7058 149.853,-41.7701 158.412,-42.8075"/>
<polygon fill="midnightblue" stroke="midnightblue" points="132.788,-36.1761 122.44,-38.4473 131.946,-43.1252 132.788,-36.1761"/>
</g>
<!-- Node3 -->
<g id="node5" class="node"><title>Node3</title>
<a xlink:href="classSurvey_1_1GeometryWriter3D.html" target="_top" xlink:title="3D GeometryWriter. ">
<polygon fill="white" stroke="black" points="158.5,-0.5 158.5,-21.5 293.5,-21.5 293.5,-0.5 158.5,-0.5"/>
<text text-anchor="middle" x="226" y="-8.5" font-family="Helvetica,sans-Serif" font-size="10.00">Survey::GeometryWriter3D</text>
</a>
</g>
<!-- Node1&#45;&gt;Node3 -->
<g id="edge4" class="edge"><title>Node1&#45;&gt;Node3</title>
<path fill="none" stroke="midnightblue" d="M132.457,-22.3386C141.073,-21.2942 149.853,-20.2299 158.412,-19.1925"/>
<polygon fill="midnightblue" stroke="midnightblue" points="131.946,-18.8748 122.44,-23.5527 132.788,-25.8239 131.946,-18.8748"/>
</g>
</g>
</svg>
