<?xml version="1.0" encoding="UTF-8" standalone="no"?>
<!DOCTYPE svg PUBLIC "-//W3C//DTD SVG 1.1//EN"
 "http://www.w3.org/Graphics/SVG/1.1/DTD/svg11.dtd">
<!-- Generated by graphviz version 2.26.0 (20091210.2329)
 -->
<!-- Title: Graphical Class Hierarchy Pages: 1 -->
<svg width="228pt" height="110pt"
 viewBox="0.00 0.00 228.00 110.00" xmlns="http://www.w3.org/2000/svg" xmlns:xlink="http://www.w3.org/1999/xlink">
<g id="graph1" class="graph" transform="scale(1 1) rotate(0) translate(4 106)">
<title>Graphical Class Hierarchy</title>
<polygon fill="white" stroke="white" points="-4,5 -4,-106 225,-106 225,5 -4,5"/>
<!-- Node1 -->
<g id="node1" class="node"><title>Node1</title>
<a xlink:href="classSelector.html" target="_top" xlink:title="Interface for classes that select on basis of a key. ">
<polygon fill="white" stroke="black" points="0.5,-40.5 0.5,-61.5 77.5,-61.5 77.5,-40.5 0.5,-40.5"/>
<text text-anchor="middle" x="39" y="-48.5" font-family="Helvetica,sans-Serif" font-size="10.00">Selector&lt; T &gt;</text>
</a>
</g>
<!-- Node2 -->
<g id="node3" class="node"><title>Node2</title>
<a xlink:href="classArraySelector.html" target="_top" xlink:title="Selector based on array. ">
<polygon fill="white" stroke="black" points="117,-80.5 117,-101.5 217,-101.5 217,-80.5 117,-80.5"/>
<text text-anchor="middle" x="167" y="-88.5" font-family="Helvetica,sans-Serif" font-size="10.00">ArraySelector&lt; T &gt;</text>
</a>
</g>
<!-- Node1&#45;&gt;Node2 -->
<g id="edge2" class="edge"><title>Node1&#45;&gt;Node2</title>
<path fill="none" stroke="midnightblue" d="M82.6073,-64.6273C99.1235,-69.7886 117.663,-75.5822 133.15,-80.4218"/>
<polygon fill="midnightblue" stroke="midnightblue" points="83.2193,-61.1517 72.6305,-61.5095 81.1313,-67.833 83.2193,-61.1517"/>
</g>
<!-- Node3 -->
<g id="node5" class="node"><title>Node3</title>
<a xlink:href="classRangeSelector.html" target="_top" xlink:title="Selector based on range specification (an Interval). ">
<polygon fill="white" stroke="black" points="114.5,-40.5 114.5,-61.5 219.5,-61.5 219.5,-40.5 114.5,-40.5"/>
<text text-anchor="middle" x="167" y="-48.5" font-family="Helvetica,sans-Serif" font-size="10.00">RangeSelector&lt; T &gt;</text>
</a>
</g>
<!-- Node1&#45;&gt;Node3 -->
<g id="edge4" class="edge"><title>Node1&#45;&gt;Node3</title>
<path fill="none" stroke="midnightblue" d="M87.9845,-51C96.5656,-51 105.528,-51 114.207,-51"/>
<polygon fill="midnightblue" stroke="midnightblue" points="87.7516,-47.5001 77.7516,-51 87.7515,-54.5001 87.7516,-47.5001"/>
</g>
<!-- Node4 -->
<g id="node7" class="node"><title>Node4</title>
<a xlink:href="classSingleSelector.html" target="_top" xlink:title="Selector selecting only a single value. ">
<polygon fill="white" stroke="black" points="115,-0.5 115,-21.5 219,-21.5 219,-0.5 115,-0.5"/>
<text text-anchor="middle" x="167" y="-8.5" font-family="Helvetica,sans-Serif" font-size="10.00">SingleSelector&lt; T &gt;</text>
</a>
</g>
<!-- Node1&#45;&gt;Node4 -->
<g id="edge6" class="edge"><title>Node1&#45;&gt;Node4</title>
<path fill="none" stroke="midnightblue" d="M82.6073,-37.3727C99.1235,-32.2114 117.663,-26.4178 133.15,-21.5782"/>
<polygon fill="midnightblue" stroke="midnightblue" points="81.1313,-34.167 72.6305,-40.4905 83.2193,-40.8483 81.1313,-34.167"/>
</g>
</g>
</svg>
