<?xml version="1.0" encoding="UTF-8" standalone="no"?>
<!DOCTYPE svg PUBLIC "-//W3C//DTD SVG 1.1//EN"
 "http://www.w3.org/Graphics/SVG/1.1/DTD/svg11.dtd">
<!-- Generated by graphviz version 2.26.0 (20091210.2329)
 -->
<!-- Title: Graphical Class Hierarchy Pages: 1 -->
<svg width="306pt" height="70pt"
 viewBox="0.00 0.00 306.00 70.00" xmlns="http://www.w3.org/2000/svg" xmlns:xlink="http://www.w3.org/1999/xlink">
<g id="graph1" class="graph" transform="scale(1 1) rotate(0) translate(4 66)">
<title>Graphical Class Hierarchy</title>
<polygon fill="white" stroke="white" points="-4,5 -4,-66 303,-66 303,5 -4,5"/>
<!-- Node1 -->
<g id="node1" class="node"><title>Node1</title>
<a xlink:href="classSeis2DLineIOProvider.html" target="_top" xlink:title="Provides read/write to/from 2D seismic lines. Only interesting if you want to add your own 2D data I/...">
<polygon fill="white" stroke="black" points="0.5,-20.5 0.5,-41.5 113.5,-41.5 113.5,-20.5 0.5,-20.5"/>
<text text-anchor="middle" x="57" y="-28.5" font-family="Helvetica,sans-Serif" font-size="10.00">Seis2DLineIOProvider</text>
</a>
</g>
<!-- Node2 -->
<g id="node3" class="node"><title>Node2</title>
<a xlink:href="classSEGYDirect2DLineIOProvider.html" target="_top" xlink:title="SEGYDirect2DLineIOProvider">
<polygon fill="white" stroke="black" points="150,-40.5 150,-61.5 298,-61.5 298,-40.5 150,-40.5"/>
<text text-anchor="middle" x="224" y="-48.5" font-family="Helvetica,sans-Serif" font-size="10.00">SEGYDirect2DLineIOProvider</text>
</a>
</g>
<!-- Node1&#45;&gt;Node2 -->
<g id="edge2" class="edge"><title>Node1&#45;&gt;Node2</title>
<path fill="none" stroke="midnightblue" d="M123.521,-38.9666C132.144,-39.9993 141.018,-41.0621 149.756,-42.1085"/>
<polygon fill="midnightblue" stroke="midnightblue" points="123.884,-35.4851 113.539,-37.7711 123.051,-42.4355 123.884,-35.4851"/>
</g>
<!-- Node3 -->
<g id="node5" class="node"><title>Node3</title>
<a xlink:href="classSeisCBVS2DLineIOProvider.html" target="_top" xlink:title="SeisCBVS2DLineIOProvider">
<polygon fill="white" stroke="black" points="153.5,-0.5 153.5,-21.5 294.5,-21.5 294.5,-0.5 153.5,-0.5"/>
<text text-anchor="middle" x="224" y="-8.5" font-family="Helvetica,sans-Serif" font-size="10.00">SeisCBVS2DLineIOProvider</text>
</a>
</g>
<!-- Node1&#45;&gt;Node3 -->
<g id="edge4" class="edge"><title>Node1&#45;&gt;Node3</title>
<path fill="none" stroke="midnightblue" d="M123.583,-23.026C133.357,-21.8555 143.453,-20.6464 153.306,-19.4664"/>
<polygon fill="midnightblue" stroke="midnightblue" points="123.051,-19.5645 113.539,-24.2289 123.884,-26.5149 123.051,-19.5645"/>
</g>
</g>
</svg>
