<?xml version="1.0" encoding="UTF-8" standalone="no"?>
<!DOCTYPE svg PUBLIC "-//W3C//DTD SVG 1.1//EN"
 "http://www.w3.org/Graphics/SVG/1.1/DTD/svg11.dtd">
<!-- Generated by graphviz version 2.26.0 (20091210.2329)
 -->
<!-- Title: Graphical Class Hierarchy Pages: 1 -->
<svg width="360pt" height="30pt"
 viewBox="0.00 0.00 360.00 30.00" xmlns="http://www.w3.org/2000/svg" xmlns:xlink="http://www.w3.org/1999/xlink">
<g id="graph1" class="graph" transform="scale(1 1) rotate(0) translate(4 26)">
<title>Graphical Class Hierarchy</title>
<polygon fill="white" stroke="white" points="-4,5 -4,-26 357,-26 357,5 -4,5"/>
<!-- Node1 -->
<g id="node1" class="node"><title>Node1</title>
<a xlink:href="classuiIOSelect_1_1Setup.html" target="_top" xlink:title="uiIOSelect::Setup">
<polygon fill="white" stroke="black" points="0,-0.5 0,-21.5 94,-21.5 94,-0.5 0,-0.5"/>
<text text-anchor="middle" x="47" y="-8.5" font-family="Helvetica,sans-Serif" font-size="10.00">uiIOSelect::Setup</text>
</a>
</g>
<!-- Node2 -->
<g id="node3" class="node"><title>Node2</title>
<a xlink:href="classuiIOObjSel_1_1Setup.html" target="_top" xlink:title="uiIOObjSel::Setup">
<polygon fill="white" stroke="black" points="130.5,-0.5 130.5,-21.5 225.5,-21.5 225.5,-0.5 130.5,-0.5"/>
<text text-anchor="middle" x="178" y="-8.5" font-family="Helvetica,sans-Serif" font-size="10.00">uiIOObjSel::Setup</text>
</a>
</g>
<!-- Node1&#45;&gt;Node2 -->
<g id="edge2" class="edge"><title>Node1&#45;&gt;Node2</title>
<path fill="none" stroke="midnightblue" d="M104.351,-11C113.026,-11 121.895,-11 130.335,-11"/>
<polygon fill="midnightblue" stroke="midnightblue" points="104.294,-7.5001 94.294,-11 104.294,-14.5001 104.294,-7.5001"/>
</g>
<!-- Node3 -->
<g id="node5" class="node"><title>Node3</title>
<a xlink:href="structuiSeisSel_1_1Setup.html" target="_top" xlink:title="uiSeisSel::Setup">
<polygon fill="white" stroke="black" points="262.5,-0.5 262.5,-21.5 351.5,-21.5 351.5,-0.5 262.5,-0.5"/>
<text text-anchor="middle" x="307" y="-8.5" font-family="Helvetica,sans-Serif" font-size="10.00">uiSeisSel::Setup</text>
</a>
</g>
<!-- Node2&#45;&gt;Node3 -->
<g id="edge4" class="edge"><title>Node2&#45;&gt;Node3</title>
<path fill="none" stroke="midnightblue" d="M235.877,-11C244.671,-11 253.632,-11 262.096,-11"/>
<polygon fill="midnightblue" stroke="midnightblue" points="235.668,-7.5001 225.668,-11 235.668,-14.5001 235.668,-7.5001"/>
</g>
</g>
</svg>
