<?xml version="1.0" encoding="UTF-8" standalone="no"?>
<!DOCTYPE svg PUBLIC "-//W3C//DTD SVG 1.1//EN"
 "http://www.w3.org/Graphics/SVG/1.1/DTD/svg11.dtd">
<!-- Generated by graphviz version 2.26.0 (20091210.2329)
 -->
<!-- Title: Graphical Class Hierarchy Pages: 1 -->
<svg width="166pt" height="150pt"
 viewBox="0.00 0.00 166.00 150.00" xmlns="http://www.w3.org/2000/svg" xmlns:xlink="http://www.w3.org/1999/xlink">
<g id="graph1" class="graph" transform="scale(1 1) rotate(0) translate(4 146)">
<title>Graphical Class Hierarchy</title>
<polygon fill="white" stroke="white" points="-4,5 -4,-146 163,-146 163,5 -4,5"/>
<!-- Node1 -->
<g id="node1" class="node"><title>Node1</title>
<a xlink:href="classScaler.html" target="_top" xlink:title="Scaling of floating point numbers. ">
<polygon fill="white" stroke="black" points="0,-60.5 0,-81.5 44,-81.5 44,-60.5 0,-60.5"/>
<text text-anchor="middle" x="22" y="-68.5" font-family="Helvetica,sans-Serif" font-size="10.00">Scaler</text>
</a>
</g>
<!-- Node2 -->
<g id="node3" class="node"><title>Node2</title>
<a xlink:href="classAsymptScaler.html" target="_top" xlink:title="Asymptotic or &#39;Squeeze&#39; scaling, with a linear (main) part. ">
<polygon fill="white" stroke="black" points="80,-120.5 80,-141.5 158,-141.5 158,-120.5 80,-120.5"/>
<text text-anchor="middle" x="119" y="-128.5" font-family="Helvetica,sans-Serif" font-size="10.00">AsymptScaler</text>
</a>
</g>
<!-- Node1&#45;&gt;Node2 -->
<g id="edge2" class="edge"><title>Node1&#45;&gt;Node2</title>
<path fill="none" stroke="midnightblue" d="M44.6739,-87.6516C55.2065,-95.1208 68.0247,-103.841 80,-111 85.4862,-114.28 91.5711,-117.56 97.271,-120.488"/>
<polygon fill="midnightblue" stroke="midnightblue" points="46.597,-84.7236 36.4328,-81.7335 42.5139,-90.4095 46.597,-84.7236"/>
</g>
<!-- Node3 -->
<g id="node5" class="node"><title>Node3</title>
<a xlink:href="classExpScaler.html" target="_top" xlink:title="Exponential scaling, base e or ten. ">
<polygon fill="white" stroke="black" points="88,-80.5 88,-101.5 150,-101.5 150,-80.5 88,-80.5"/>
<text text-anchor="middle" x="119" y="-88.5" font-family="Helvetica,sans-Serif" font-size="10.00">ExpScaler</text>
</a>
</g>
<!-- Node1&#45;&gt;Node3 -->
<g id="edge4" class="edge"><title>Node1&#45;&gt;Node3</title>
<path fill="none" stroke="midnightblue" d="M53.9895,-77.5958C64.8895,-79.8432 77.0528,-82.3511 87.8833,-84.5842"/>
<polygon fill="midnightblue" stroke="midnightblue" points="54.5116,-74.1299 44.0108,-75.5383 53.098,-80.9857 54.5116,-74.1299"/>
</g>
<!-- Node4 -->
<g id="node7" class="node"><title>Node4</title>
<a xlink:href="classLinScaler.html" target="_top" xlink:title="Linear scaling. ">
<polygon fill="white" stroke="black" points="90.5,-40.5 90.5,-61.5 147.5,-61.5 147.5,-40.5 90.5,-40.5"/>
<text text-anchor="middle" x="119" y="-48.5" font-family="Helvetica,sans-Serif" font-size="10.00">LinScaler</text>
</a>
</g>
<!-- Node1&#45;&gt;Node4 -->
<g id="edge6" class="edge"><title>Node1&#45;&gt;Node4</title>
<path fill="none" stroke="midnightblue" d="M53.9052,-64.4216C65.6942,-61.9909 78.9706,-59.2535 90.4439,-56.8878"/>
<polygon fill="midnightblue" stroke="midnightblue" points="53.098,-61.0143 44.0108,-66.4617 54.5116,-67.8701 53.098,-61.0143"/>
</g>
<!-- Node5 -->
<g id="node9" class="node"><title>Node5</title>
<a xlink:href="classLogScaler.html" target="_top" xlink:title="Logarithmic scaling, base e or ten. ">
<polygon fill="white" stroke="black" points="89,-0.5 89,-21.5 149,-21.5 149,-0.5 89,-0.5"/>
<text text-anchor="middle" x="119" y="-8.5" font-family="Helvetica,sans-Serif" font-size="10.00">LogScaler</text>
</a>
</g>
<!-- Node1&#45;&gt;Node5 -->
<g id="edge8" class="edge"><title>Node1&#45;&gt;Node5</title>
<path fill="none" stroke="midnightblue" d="M44.6739,-54.3484C55.2065,-46.8792 68.0247,-38.1589 80,-31 85.4862,-27.7203 91.5711,-24.4396 97.271,-21.5117"/>
<polygon fill="midnightblue" stroke="midnightblue" points="42.5139,-51.5905 36.4328,-60.2665 46.597,-57.2764 42.5139,-51.5905"/>
</g>
</g>
</svg>
