<?xml version="1.0" encoding="UTF-8" standalone="no"?>
<!DOCTYPE svg PUBLIC "-//W3C//DTD SVG 1.1//EN"
 "http://www.w3.org/Graphics/SVG/1.1/DTD/svg11.dtd">
<!-- Generated by graphviz version 2.26.0 (20091210.2329)
 -->
<!-- Title: Graphical Class Hierarchy Pages: 1 -->
<svg width="324pt" height="82pt"
 viewBox="0.00 0.00 324.00 82.00" xmlns="http://www.w3.org/2000/svg" xmlns:xlink="http://www.w3.org/1999/xlink">
<g id="graph1" class="graph" transform="scale(1 1) rotate(0) translate(4 78)">
<title>Graphical Class Hierarchy</title>
<polygon fill="white" stroke="white" points="-4,5 -4,-78 321,-78 321,5 -4,5"/>
<!-- Node1 -->
<g id="node1" class="node"><title>Node1</title>
<a xlink:href="classPtrManBase.html" target="_top" xlink:title="PtrManBase\&lt; Coords\l::CoordSystem \&gt;">
<polygon fill="white" stroke="black" points="0.5,-17 0.5,-51 111.5,-51 111.5,-17 0.5,-17"/>
<text text-anchor="start" x="8.5" y="-38" font-family="Helvetica,sans-Serif" font-size="10.00">PtrManBase&lt; Coords</text>
<text text-anchor="middle" x="56" y="-25" font-family="Helvetica,sans-Serif" font-size="10.00">::CoordSystem &gt;</text>
</a>
</g>
<!-- Node2 -->
<g id="node3" class="node"><title>Node2</title>
<a xlink:href="classConstRefMan.html" target="_top" xlink:title="ConstRefMan\&lt; Coords\l::CoordSystem \&gt;">
<polygon fill="white" stroke="black" points="173,-40 173,-74 291,-74 291,-40 173,-40"/>
<text text-anchor="start" x="181" y="-61" font-family="Helvetica,sans-Serif" font-size="10.00">ConstRefMan&lt; Coords</text>
<text text-anchor="middle" x="232" y="-48" font-family="Helvetica,sans-Serif" font-size="10.00">::CoordSystem &gt;</text>
</a>
</g>
<!-- Node1&#45;&gt;Node2 -->
<g id="edge2" class="edge"><title>Node1&#45;&gt;Node2</title>
<path fill="none" stroke="midnightblue" d="M121.903,-42.6123C138.581,-44.7919 156.392,-47.1194 172.721,-49.2533"/>
<polygon fill="midnightblue" stroke="midnightblue" points="122.057,-39.1027 111.688,-41.2773 121.15,-46.0437 122.057,-39.1027"/>
</g>
<!-- Node3 -->
<g id="node5" class="node"><title>Node3</title>
<a xlink:href="classRefMan.html" target="_top" xlink:title="RefMan\&lt; Coords::CoordSystem \&gt;">
<polygon fill="white" stroke="black" points="148.5,-0.5 148.5,-21.5 315.5,-21.5 315.5,-0.5 148.5,-0.5"/>
<text text-anchor="middle" x="232" y="-8.5" font-family="Helvetica,sans-Serif" font-size="10.00">RefMan&lt; Coords::CoordSystem &gt;</text>
</a>
</g>
<!-- Node1&#45;&gt;Node3 -->
<g id="edge4" class="edge"><title>Node1&#45;&gt;Node3</title>
<path fill="none" stroke="midnightblue" d="M121.687,-25.4158C131.44,-24.1413 141.585,-22.8156 151.597,-21.5072"/>
<polygon fill="midnightblue" stroke="midnightblue" points="121.15,-21.9563 111.688,-26.7227 122.057,-28.8973 121.15,-21.9563"/>
</g>
</g>
</svg>
