<?xml version="1.0" encoding="UTF-8" standalone="no"?>
<!DOCTYPE svg PUBLIC "-//W3C//DTD SVG 1.1//EN"
 "http://www.w3.org/Graphics/SVG/1.1/DTD/svg11.dtd">
<!-- Generated by graphviz version 2.26.0 (20091210.2329)
 -->
<!-- Title: Graphical Class Hierarchy Pages: 1 -->
<svg width="260pt" height="70pt"
 viewBox="0.00 0.00 260.00 70.00" xmlns="http://www.w3.org/2000/svg" xmlns:xlink="http://www.w3.org/1999/xlink">
<g id="graph1" class="graph" transform="scale(1 1) rotate(0) translate(4 66)">
<title>Graphical Class Hierarchy</title>
<polygon fill="white" stroke="white" points="-4,5 -4,-66 257,-66 257,5 -4,5"/>
<!-- Node1 -->
<g id="node1" class="node"><title>Node1</title>
<a xlink:href="classMPE_1_1EMTracker.html" target="_top" xlink:title="Tracks EM objects. ">
<polygon fill="white" stroke="black" points="0,-20.5 0,-41.5 92,-41.5 92,-20.5 0,-20.5"/>
<text text-anchor="middle" x="46" y="-28.5" font-family="Helvetica,sans-Serif" font-size="10.00">MPE::EMTracker</text>
</a>
</g>
<!-- Node2 -->
<g id="node3" class="node"><title>Node2</title>
<a xlink:href="classMPE_1_1Horizon2DTracker.html" target="_top" xlink:title="EMTracker to track EM::Horizon2D. ">
<polygon fill="white" stroke="black" points="128,-40.5 128,-61.5 252,-61.5 252,-40.5 128,-40.5"/>
<text text-anchor="middle" x="190" y="-48.5" font-family="Helvetica,sans-Serif" font-size="10.00">MPE::Horizon2DTracker</text>
</a>
</g>
<!-- Node1&#45;&gt;Node2 -->
<g id="edge2" class="edge"><title>Node1&#45;&gt;Node2</title>
<path fill="none" stroke="midnightblue" d="M102.407,-38.8343C110.795,-39.9992 119.479,-41.2054 127.974,-42.3853"/>
<polygon fill="midnightblue" stroke="midnightblue" points="102.742,-35.3473 92.3551,-37.4382 101.779,-42.2807 102.742,-35.3473"/>
</g>
<!-- Node3 -->
<g id="node5" class="node"><title>Node3</title>
<a xlink:href="classMPE_1_1Horizon3DTracker.html" target="_top" xlink:title="EMTracker to track EM::Horizon3D. ">
<polygon fill="white" stroke="black" points="128,-0.5 128,-21.5 252,-21.5 252,-0.5 128,-0.5"/>
<text text-anchor="middle" x="190" y="-8.5" font-family="Helvetica,sans-Serif" font-size="10.00">MPE::Horizon3DTracker</text>
</a>
</g>
<!-- Node1&#45;&gt;Node3 -->
<g id="edge4" class="edge"><title>Node1&#45;&gt;Node3</title>
<path fill="none" stroke="midnightblue" d="M102.407,-23.1657C110.795,-22.0008 119.479,-20.7946 127.974,-19.6147"/>
<polygon fill="midnightblue" stroke="midnightblue" points="101.779,-19.7193 92.3551,-24.5618 102.742,-26.6527 101.779,-19.7193"/>
</g>
</g>
</svg>
