<?xml version="1.0" encoding="UTF-8" standalone="no"?>
<!DOCTYPE svg PUBLIC "-//W3C//DTD SVG 1.1//EN"
 "http://www.w3.org/Graphics/SVG/1.1/DTD/svg11.dtd">
<!-- Generated by graphviz version 2.26.0 (20091210.2329)
 -->
<!-- Title: Graphical Class Hierarchy Pages: 1 -->
<svg width="410pt" height="90pt"
 viewBox="0.00 0.00 410.00 90.00" xmlns="http://www.w3.org/2000/svg" xmlns:xlink="http://www.w3.org/1999/xlink">
<g id="graph1" class="graph" transform="scale(1 1) rotate(0) translate(4 86)">
<title>Graphical Class Hierarchy</title>
<polygon fill="white" stroke="white" points="-4,5 -4,-86 407,-86 407,5 -4,5"/>
<!-- Node1 -->
<g id="node1" class="node"><title>Node1</title>
<polygon fill="white" stroke="#bfbfbf" points="0,-20.5 0,-41.5 90,-41.5 90,-20.5 0,-20.5"/>
<text text-anchor="middle" x="45" y="-28.5" font-family="Helvetica,sans-Serif" font-size="10.00">Index_Type_Pair</text>
</g>
<!-- Node2 -->
<g id="node3" class="node"><title>Node2</title>
<a xlink:href="classIdxPair.html" target="_top" xlink:title="A pair of numbers; base class for BinID et al. ">
<polygon fill="white" stroke="black" points="126.5,-20.5 126.5,-41.5 173.5,-41.5 173.5,-20.5 126.5,-20.5"/>
<text text-anchor="middle" x="150" y="-28.5" font-family="Helvetica,sans-Serif" font-size="10.00">IdxPair</text>
</a>
</g>
<!-- Node1&#45;&gt;Node2 -->
<g id="edge2" class="edge"><title>Node1&#45;&gt;Node2</title>
<path fill="none" stroke="midnightblue" d="M100.42,-31C109.534,-31 118.53,-31 126.305,-31"/>
<polygon fill="midnightblue" stroke="midnightblue" points="100.139,-27.5001 90.1388,-31 100.139,-34.5001 100.139,-27.5001"/>
</g>
<!-- Node3 -->
<g id="node5" class="node"><title>Node3</title>
<a xlink:href="classPos_1_1IdxPair.html" target="_top" xlink:title="IdxPair with position indices; base class for BinID et al. ">
<polygon fill="white" stroke="black" points="226.5,-40.5 226.5,-61.5 297.5,-61.5 297.5,-40.5 226.5,-40.5"/>
<text text-anchor="middle" x="262" y="-48.5" font-family="Helvetica,sans-Serif" font-size="10.00">Pos::IdxPair</text>
</a>
</g>
<!-- Node2&#45;&gt;Node3 -->
<g id="edge4" class="edge"><title>Node2&#45;&gt;Node3</title>
<path fill="none" stroke="midnightblue" d="M183.601,-37.0002C197.096,-39.41 212.668,-42.1907 226.36,-44.6358"/>
<polygon fill="midnightblue" stroke="midnightblue" points="184.212,-33.554 173.752,-35.2415 182.981,-40.445 184.212,-33.554"/>
</g>
<!-- Node6 -->
<g id="node11" class="node"><title>Node6</title>
<a xlink:href="classPosInfo_1_1Line2DKey.html" target="_top" xlink:title="Key holding ID for both lineset and line. ">
<polygon fill="white" stroke="black" points="210,-0.5 210,-21.5 314,-21.5 314,-0.5 210,-0.5"/>
<text text-anchor="middle" x="262" y="-8.5" font-family="Helvetica,sans-Serif" font-size="10.00">PosInfo::Line2DKey</text>
</a>
</g>
<!-- Node2&#45;&gt;Node6 -->
<g id="edge10" class="edge"><title>Node2&#45;&gt;Node6</title>
<path fill="none" stroke="midnightblue" d="M183.675,-24.9867C191.884,-23.5207 200.859,-21.9181 209.709,-20.3376"/>
<polygon fill="midnightblue" stroke="midnightblue" points="182.981,-21.555 173.752,-26.7585 184.212,-28.446 182.981,-21.555"/>
</g>
<!-- Node4 -->
<g id="node7" class="node"><title>Node4</title>
<a xlink:href="classBinID.html" target="_top" xlink:title="Positioning in a seismic survey: inline/crossline or lineNr/trcNr. ">
<polygon fill="white" stroke="black" points="355.5,-60.5 355.5,-81.5 396.5,-81.5 396.5,-60.5 355.5,-60.5"/>
<text text-anchor="middle" x="376" y="-68.5" font-family="Helvetica,sans-Serif" font-size="10.00">BinID</text>
</a>
</g>
<!-- Node3&#45;&gt;Node4 -->
<g id="edge6" class="edge"><title>Node3&#45;&gt;Node4</title>
<path fill="none" stroke="midnightblue" d="M307.793,-59.0339C324.264,-61.9235 342.035,-65.0412 355.307,-67.3696"/>
<polygon fill="midnightblue" stroke="midnightblue" points="308.212,-55.554 297.758,-57.2733 307.002,-62.4487 308.212,-55.554"/>
</g>
<!-- Node5 -->
<g id="node9" class="node"><title>Node5</title>
<a xlink:href="classRowCol.html" target="_top" xlink:title="IdxPair used for its row() and col(). ">
<polygon fill="white" stroke="black" points="350,-20.5 350,-41.5 402,-41.5 402,-20.5 350,-20.5"/>
<text text-anchor="middle" x="376" y="-28.5" font-family="Helvetica,sans-Serif" font-size="10.00">RowCol</text>
</a>
</g>
<!-- Node3&#45;&gt;Node5 -->
<g id="edge8" class="edge"><title>Node3&#45;&gt;Node5</title>
<path fill="none" stroke="midnightblue" d="M307.906,-42.9464C322.15,-40.4474 337.355,-37.7798 349.776,-35.6008"/>
<polygon fill="midnightblue" stroke="midnightblue" points="307.002,-39.5513 297.758,-44.7267 308.212,-46.446 307.002,-39.5513"/>
</g>
</g>
</svg>
