<?xml version="1.0" encoding="UTF-8" standalone="no"?>
<!DOCTYPE svg PUBLIC "-//W3C//DTD SVG 1.1//EN"
 "http://www.w3.org/Graphics/SVG/1.1/DTD/svg11.dtd">
<!-- Generated by graphviz version 2.26.0 (20091210.2329)
 -->
<!-- Title: Graphical Class Hierarchy Pages: 1 -->
<svg width="200pt" height="70pt"
 viewBox="0.00 0.00 200.00 70.00" xmlns="http://www.w3.org/2000/svg" xmlns:xlink="http://www.w3.org/1999/xlink">
<g id="graph1" class="graph" transform="scale(1 1) rotate(0) translate(4 66)">
<title>Graphical Class Hierarchy</title>
<polygon fill="white" stroke="white" points="-4,5 -4,-66 197,-66 197,5 -4,5"/>
<!-- Node1 -->
<g id="node1" class="node"><title>Node1</title>
<a xlink:href="classCBVSIOMgr.html" target="_top" xlink:title="Base class for CBVS read and write manager. ">
<polygon fill="white" stroke="black" points="0.5,-20.5 0.5,-41.5 71.5,-41.5 71.5,-20.5 0.5,-20.5"/>
<text text-anchor="middle" x="36" y="-28.5" font-family="Helvetica,sans-Serif" font-size="10.00">CBVSIOMgr</text>
</a>
</g>
<!-- Node2 -->
<g id="node3" class="node"><title>Node2</title>
<a xlink:href="classCBVSReadMgr.html" target="_top" xlink:title="Manager for reading CBVS file&#45;packs. ">
<polygon fill="white" stroke="black" points="108,-40.5 108,-61.5 192,-61.5 192,-40.5 108,-40.5"/>
<text text-anchor="middle" x="150" y="-48.5" font-family="Helvetica,sans-Serif" font-size="10.00">CBVSReadMgr</text>
</a>
</g>
<!-- Node1&#45;&gt;Node2 -->
<g id="edge2" class="edge"><title>Node1&#45;&gt;Node2</title>
<path fill="none" stroke="midnightblue" d="M81.7225,-39.0215C90.3965,-40.5432 99.4334,-42.1287 107.986,-43.6291"/>
<polygon fill="midnightblue" stroke="midnightblue" points="82.2119,-35.554 71.7575,-37.2733 81.0023,-42.4487 82.2119,-35.554"/>
</g>
<!-- Node3 -->
<g id="node5" class="node"><title>Node3</title>
<a xlink:href="classCBVSWriteMgr.html" target="_top" xlink:title="Writer for CBVS file packs. ">
<polygon fill="white" stroke="black" points="108,-0.5 108,-21.5 192,-21.5 192,-0.5 108,-0.5"/>
<text text-anchor="middle" x="150" y="-8.5" font-family="Helvetica,sans-Serif" font-size="10.00">CBVSWriteMgr</text>
</a>
</g>
<!-- Node1&#45;&gt;Node3 -->
<g id="edge4" class="edge"><title>Node1&#45;&gt;Node3</title>
<path fill="none" stroke="midnightblue" d="M81.7225,-22.9785C90.3965,-21.4568 99.4334,-19.8713 107.986,-18.3709"/>
<polygon fill="midnightblue" stroke="midnightblue" points="81.0023,-19.5513 71.7575,-24.7267 82.2119,-26.446 81.0023,-19.5513"/>
</g>
</g>
</svg>
