<?xml version="1.0" encoding="UTF-8" standalone="no"?>
<!DOCTYPE svg PUBLIC "-//W3C//DTD SVG 1.1//EN"
 "http://www.w3.org/Graphics/SVG/1.1/DTD/svg11.dtd">
<!-- Generated by graphviz version 2.26.0 (20091210.2329)
 -->
<!-- Title: Graphical Class Hierarchy Pages: 1 -->
<svg width="252pt" height="230pt"
 viewBox="0.00 0.00 252.00 230.00" xmlns="http://www.w3.org/2000/svg" xmlns:xlink="http://www.w3.org/1999/xlink">
<g id="graph1" class="graph" transform="scale(1 1) rotate(0) translate(4 226)">
<title>Graphical Class Hierarchy</title>
<polygon fill="white" stroke="white" points="-4,5 -4,-226 249,-226 249,5 -4,5"/>
<!-- Node1 -->
<g id="node1" class="node"><title>Node1</title>
<a xlink:href="classPtrManBase.html" target="_top" xlink:title="PtrManBase\&lt; T \&gt;">
<polygon fill="white" stroke="black" points="0.5,-100.5 0.5,-121.5 95.5,-121.5 95.5,-100.5 0.5,-100.5"/>
<text text-anchor="middle" x="48" y="-108.5" font-family="Helvetica,sans-Serif" font-size="10.00">PtrManBase&lt; T &gt;</text>
</a>
</g>
<!-- Node2 -->
<g id="node3" class="node"><title>Node2</title>
<a xlink:href="classArrPtrMan.html" target="_top" xlink:title="ArrPtrMan\&lt; T \&gt;">
<polygon fill="white" stroke="black" points="145.5,-200.5 145.5,-221.5 230.5,-221.5 230.5,-200.5 145.5,-200.5"/>
<text text-anchor="middle" x="188" y="-208.5" font-family="Helvetica,sans-Serif" font-size="10.00">ArrPtrMan&lt; T &gt;</text>
</a>
</g>
<!-- Node1&#45;&gt;Node2 -->
<g id="edge2" class="edge"><title>Node1&#45;&gt;Node2</title>
<path fill="none" stroke="midnightblue" d="M63.3019,-129.526C78.9399,-147.42 104.738,-174.21 132,-191 137.977,-194.681 144.73,-197.818 151.425,-200.44"/>
<polygon fill="midnightblue" stroke="midnightblue" points="65.6358,-126.869 56.4794,-121.539 60.3133,-131.416 65.6358,-126.869"/>
</g>
<!-- Node3 -->
<g id="node5" class="node"><title>Node3</title>
<a xlink:href="classConstArrPtrMan.html" target="_top" xlink:title="ConstArrPtrMan\&lt; T \&gt;">
<polygon fill="white" stroke="black" points="132.5,-160.5 132.5,-181.5 243.5,-181.5 243.5,-160.5 132.5,-160.5"/>
<text text-anchor="middle" x="188" y="-168.5" font-family="Helvetica,sans-Serif" font-size="10.00">ConstArrPtrMan&lt; T &gt;</text>
</a>
</g>
<!-- Node1&#45;&gt;Node3 -->
<g id="edge4" class="edge"><title>Node1&#45;&gt;Node3</title>
<path fill="none" stroke="midnightblue" d="M78.0966,-126.242C93.9582,-134.043 113.841,-143.457 132,-151 139.913,-154.287 148.582,-157.545 156.684,-160.447"/>
<polygon fill="midnightblue" stroke="midnightblue" points="79.3052,-122.935 68.7916,-121.626 76.1938,-129.206 79.3052,-122.935"/>
</g>
<!-- Node4 -->
<g id="node7" class="node"><title>Node4</title>
<a xlink:href="classConstPtrMan.html" target="_top" xlink:title="ConstPtrMan\&lt; T \&gt;">
<polygon fill="white" stroke="black" points="139,-120.5 139,-141.5 237,-141.5 237,-120.5 139,-120.5"/>
<text text-anchor="middle" x="188" y="-128.5" font-family="Helvetica,sans-Serif" font-size="10.00">ConstPtrMan&lt; T &gt;</text>
</a>
</g>
<!-- Node1&#45;&gt;Node4 -->
<g id="edge6" class="edge"><title>Node1&#45;&gt;Node4</title>
<path fill="none" stroke="midnightblue" d="M105.774,-119.253C116.812,-120.83 128.268,-122.467 138.998,-124"/>
<polygon fill="midnightblue" stroke="midnightblue" points="106.183,-115.776 95.7885,-117.827 105.193,-122.706 106.183,-115.776"/>
</g>
<!-- Node5 -->
<g id="node9" class="node"><title>Node5</title>
<a xlink:href="classConstRefMan.html" target="_top" xlink:title="ConstRefMan\&lt; T \&gt;">
<polygon fill="white" stroke="black" points="137.5,-80.5 137.5,-101.5 238.5,-101.5 238.5,-80.5 137.5,-80.5"/>
<text text-anchor="middle" x="188" y="-88.5" font-family="Helvetica,sans-Serif" font-size="10.00">ConstRefMan&lt; T &gt;</text>
</a>
</g>
<!-- Node1&#45;&gt;Node5 -->
<g id="edge8" class="edge"><title>Node1&#45;&gt;Node5</title>
<path fill="none" stroke="midnightblue" d="M105.959,-102.72C116.284,-101.245 126.969,-99.7187 137.079,-98.2744"/>
<polygon fill="midnightblue" stroke="midnightblue" points="105.193,-99.294 95.7885,-104.173 106.183,-106.224 105.193,-99.294"/>
</g>
<!-- Node6 -->
<g id="node11" class="node"><title>Node6</title>
<a xlink:href="classPtrMan.html" target="_top" xlink:title="PtrMan\&lt; T \&gt;">
<polygon fill="white" stroke="black" points="152,-40.5 152,-61.5 224,-61.5 224,-40.5 152,-40.5"/>
<text text-anchor="middle" x="188" y="-48.5" font-family="Helvetica,sans-Serif" font-size="10.00">PtrMan&lt; T &gt;</text>
</a>
</g>
<!-- Node1&#45;&gt;Node6 -->
<g id="edge10" class="edge"><title>Node1&#45;&gt;Node6</title>
<path fill="none" stroke="midnightblue" d="M78.0966,-95.7575C93.9582,-87.9575 113.841,-78.5433 132,-71 139.913,-67.7128 148.582,-64.4548 156.684,-61.5526"/>
<polygon fill="midnightblue" stroke="midnightblue" points="76.1938,-92.7944 68.7916,-100.374 79.3052,-99.065 76.1938,-92.7944"/>
</g>
<!-- Node7 -->
<g id="node13" class="node"><title>Node7</title>
<a xlink:href="classRefMan.html" target="_top" xlink:title="RefMan\&lt; T \&gt;">
<polygon fill="white" stroke="black" points="150.5,-0.5 150.5,-21.5 225.5,-21.5 225.5,-0.5 150.5,-0.5"/>
<text text-anchor="middle" x="188" y="-8.5" font-family="Helvetica,sans-Serif" font-size="10.00">RefMan&lt; T &gt;</text>
</a>
</g>
<!-- Node1&#45;&gt;Node7 -->
<g id="edge12" class="edge"><title>Node1&#45;&gt;Node7</title>
<path fill="none" stroke="midnightblue" d="M63.3019,-92.4743C78.9399,-74.5805 104.738,-47.7903 132,-31 137.977,-27.3186 144.73,-24.1818 151.425,-21.5601"/>
<polygon fill="midnightblue" stroke="midnightblue" points="60.3133,-90.5843 56.4794,-100.461 65.6358,-95.1309 60.3133,-90.5843"/>
</g>
</g>
</svg>
