<?xml version="1.0" encoding="UTF-8" standalone="no"?>
<!DOCTYPE svg PUBLIC "-//W3C//DTD SVG 1.1//EN"
 "http://www.w3.org/Graphics/SVG/1.1/DTD/svg11.dtd">
<!-- Generated by graphviz version 2.26.0 (20091210.2329)
 -->
<!-- Title: Graphical Class Hierarchy Pages: 1 -->
<svg width="502pt" height="990pt"
 viewBox="0.00 0.00 502.00 990.00" xmlns="http://www.w3.org/2000/svg" xmlns:xlink="http://www.w3.org/1999/xlink">
<g id="graph1" class="graph" transform="scale(1 1) rotate(0) translate(4 986)">
<title>Graphical Class Hierarchy</title>
<polygon fill="white" stroke="white" points="-4,5 -4,-986 499,-986 499,5 -4,5"/>
<!-- Node1 -->
<g id="node1" class="node"><title>Node1</title>
<a xlink:href="classArrayImplBase.html" target="_top" xlink:title="ArrayImplBase\&lt; T \&gt;">
<polygon fill="white" stroke="black" points="194.5,-478.5 194.5,-499.5 299.5,-499.5 299.5,-478.5 194.5,-478.5"/>
<text text-anchor="middle" x="247" y="-486.5" font-family="Helvetica,sans-Serif" font-size="10.00">ArrayImplBase&lt; T &gt;</text>
</a>
</g>
<!-- Node2 -->
<g id="node3" class="node"><title>Node2</title>
<a xlink:href="classArray1DImpl.html" target="_top" xlink:title="Implementation of Array1D. ">
<polygon fill="white" stroke="black" points="379.5,-760.5 379.5,-781.5 474.5,-781.5 474.5,-760.5 379.5,-760.5"/>
<text text-anchor="middle" x="427" y="-768.5" font-family="Helvetica,sans-Serif" font-size="10.00">Array1DImpl&lt; T &gt;</text>
</a>
</g>
<!-- Node1&#45;&gt;Node2 -->
<g id="edge2" class="edge"><title>Node1&#45;&gt;Node2</title>
<path fill="none" stroke="midnightblue" d="M308.884,-497.768C314.56,-500.612 319.759,-504.281 324,-509 396.691,-589.872 288.775,-668.834 360,-751 365.168,-756.962 372.031,-761.186 379.396,-764.17"/>
<polygon fill="midnightblue" stroke="midnightblue" points="310.22,-494.533 299.642,-493.944 307.544,-501.001 310.22,-494.533"/>
</g>
<!-- Node3 -->
<g id="node5" class="node"><title>Node3</title>
<a xlink:href="classArray1DImpl.html" target="_top" xlink:title="Array1DImpl\&lt; float\l_complex \&gt;">
<polygon fill="white" stroke="black" points="377.5,-708 377.5,-742 476.5,-742 476.5,-708 377.5,-708"/>
<text text-anchor="start" x="385.5" y="-729" font-family="Helvetica,sans-Serif" font-size="10.00">Array1DImpl&lt; float</text>
<text text-anchor="middle" x="427" y="-716" font-family="Helvetica,sans-Serif" font-size="10.00">_complex &gt;</text>
</a>
</g>
<!-- Node1&#45;&gt;Node3 -->
<g id="edge4" class="edge"><title>Node1&#45;&gt;Node3</title>
<path fill="none" stroke="midnightblue" d="M309.342,-498.261C314.804,-501.026 319.83,-504.541 324,-509 382.708,-571.771 305.031,-632.93 360,-699 364.708,-704.659 370.805,-709.091 377.4,-712.56"/>
<polygon fill="midnightblue" stroke="midnightblue" points="310.39,-494.906 299.814,-494.283 307.693,-501.365 310.39,-494.906"/>
</g>
<!-- Node4 -->
<g id="node7" class="node"><title>Node4</title>
<a xlink:href="classArray2DImpl.html" target="_top" xlink:title="Implementation of Array2D. ">
<polygon fill="white" stroke="black" points="379.5,-576.5 379.5,-597.5 474.5,-597.5 474.5,-576.5 379.5,-576.5"/>
<text text-anchor="middle" x="427" y="-584.5" font-family="Helvetica,sans-Serif" font-size="10.00">Array2DImpl&lt; T &gt;</text>
</a>
</g>
<!-- Node1&#45;&gt;Node4 -->
<g id="edge6" class="edge"><title>Node1&#45;&gt;Node4</title>
<path fill="none" stroke="midnightblue" d="M309.204,-500.584C314.459,-502.898 319.482,-505.673 324,-509 348.431,-526.99 335.897,-548.574 360,-567 365.786,-571.423 372.541,-574.872 379.492,-577.56"/>
<polygon fill="midnightblue" stroke="midnightblue" points="310.147,-497.198 299.556,-496.897 307.648,-503.736 310.147,-497.198"/>
</g>
<!-- Node5 -->
<g id="node9" class="node"><title>Node5</title>
<a xlink:href="classArray2DImpl.html" target="_top" xlink:title="Array2DImpl\&lt; Attrib\l::DataHolder * \&gt;">
<polygon fill="white" stroke="black" points="375,-524 375,-558 479,-558 479,-524 375,-524"/>
<text text-anchor="start" x="383" y="-545" font-family="Helvetica,sans-Serif" font-size="10.00">Array2DImpl&lt; Attrib</text>
<text text-anchor="middle" x="427" y="-532" font-family="Helvetica,sans-Serif" font-size="10.00">::DataHolder * &gt;</text>
</a>
</g>
<!-- Node1&#45;&gt;Node5 -->
<g id="edge8" class="edge"><title>Node1&#45;&gt;Node5</title>
<path fill="none" stroke="midnightblue" d="M298.826,-502.104C307.258,-504.339 315.885,-506.687 324,-509 340.567,-513.722 358.529,-519.183 374.744,-524.242"/>
<polygon fill="midnightblue" stroke="midnightblue" points="299.619,-498.694 289.058,-499.542 297.843,-505.465 299.619,-498.694"/>
</g>
<!-- Node6 -->
<g id="node11" class="node"><title>Node6</title>
<a xlink:href="classArray2DImpl.html" target="_top" xlink:title="Array2DImpl\&lt; const\l Attrib::DataHolder * \&gt;">
<polygon fill="white" stroke="black" points="370,-472 370,-506 484,-506 484,-472 370,-472"/>
<text text-anchor="start" x="378" y="-493" font-family="Helvetica,sans-Serif" font-size="10.00">Array2DImpl&lt; const</text>
<text text-anchor="middle" x="427" y="-480" font-family="Helvetica,sans-Serif" font-size="10.00"> Attrib::DataHolder * &gt;</text>
</a>
</g>
<!-- Node1&#45;&gt;Node6 -->
<g id="edge10" class="edge"><title>Node1&#45;&gt;Node6</title>
<path fill="none" stroke="midnightblue" d="M309.61,-489C329.23,-489 350.77,-489 369.982,-489"/>
<polygon fill="midnightblue" stroke="midnightblue" points="309.547,-485.5 299.547,-489 309.547,-492.5 309.547,-485.5"/>
</g>
<!-- Node7 -->
<g id="node13" class="node"><title>Node7</title>
<a xlink:href="classArray2DImpl.html" target="_top" xlink:title="Array2DImpl\&lt; double \&gt;">
<polygon fill="white" stroke="black" points="368,-432.5 368,-453.5 486,-453.5 486,-432.5 368,-432.5"/>
<text text-anchor="middle" x="427" y="-440.5" font-family="Helvetica,sans-Serif" font-size="10.00">Array2DImpl&lt; double &gt;</text>
</a>
</g>
<!-- Node1&#45;&gt;Node7 -->
<g id="edge12" class="edge"><title>Node1&#45;&gt;Node7</title>
<path fill="none" stroke="midnightblue" d="M298.227,-475.909C326.001,-468.811 359.867,-460.156 385.897,-453.504"/>
<polygon fill="midnightblue" stroke="midnightblue" points="297.118,-472.58 288.296,-478.447 298.851,-479.362 297.118,-472.58"/>
</g>
<!-- Node8 -->
<g id="node15" class="node"><title>Node8</title>
<a xlink:href="classArray2DImpl.html" target="_top" xlink:title="Array2DImpl\&lt; float\l_complex \&gt;">
<polygon fill="white" stroke="black" points="377.5,-190 377.5,-224 476.5,-224 476.5,-190 377.5,-190"/>
<text text-anchor="start" x="385.5" y="-211" font-family="Helvetica,sans-Serif" font-size="10.00">Array2DImpl&lt; float</text>
<text text-anchor="middle" x="427" y="-198" font-family="Helvetica,sans-Serif" font-size="10.00">_complex &gt;</text>
</a>
</g>
<!-- Node1&#45;&gt;Node8 -->
<g id="edge14" class="edge"><title>Node1&#45;&gt;Node8</title>
<path fill="none" stroke="midnightblue" d="M308.829,-480.182C314.515,-477.347 319.731,-473.694 324,-469 391.842,-394.403 302.475,-327.814 360,-245 365.951,-236.433 374.495,-229.559 383.5,-224.142"/>
<polygon fill="midnightblue" stroke="midnightblue" points="307.487,-476.949 299.575,-483.996 310.155,-483.421 307.487,-476.949"/>
</g>
<!-- Node9 -->
<g id="node17" class="node"><title>Node9</title>
<a xlink:href="classArray2DImpl.html" target="_top" xlink:title="Array2DImpl\&lt; fT \&gt;">
<polygon fill="white" stroke="black" points="378,-392.5 378,-413.5 476,-413.5 476,-392.5 378,-392.5"/>
<text text-anchor="middle" x="427" y="-400.5" font-family="Helvetica,sans-Serif" font-size="10.00">Array2DImpl&lt; fT &gt;</text>
</a>
</g>
<!-- Node1&#45;&gt;Node9 -->
<g id="edge16" class="edge"><title>Node1&#45;&gt;Node9</title>
<path fill="none" stroke="midnightblue" d="M309.327,-476.68C314.482,-474.52 319.452,-471.982 324,-469 345.709,-454.763 338.55,-437.625 360,-423 365.617,-419.17 371.982,-416.059 378.5,-413.536"/>
<polygon fill="midnightblue" stroke="midnightblue" points="308.059,-473.417 299.898,-480.174 310.492,-479.981 308.059,-473.417"/>
</g>
<!-- Node10 -->
<g id="node19" class="node"><title>Node10</title>
<a xlink:href="classArray2DImpl.html" target="_top" xlink:title="Array2DImpl\&lt; visBase\l::HorizonSectionTile * \&gt;">
<polygon fill="white" stroke="black" points="366.5,-616 366.5,-650 487.5,-650 487.5,-616 366.5,-616"/>
<text text-anchor="start" x="374.5" y="-637" font-family="Helvetica,sans-Serif" font-size="10.00">Array2DImpl&lt; visBase</text>
<text text-anchor="middle" x="427" y="-624" font-family="Helvetica,sans-Serif" font-size="10.00">::HorizonSectionTile * &gt;</text>
</a>
</g>
<!-- Node1&#45;&gt;Node10 -->
<g id="edge18" class="edge"><title>Node1&#45;&gt;Node10</title>
<path fill="none" stroke="midnightblue" d="M309.104,-499.226C314.524,-501.81 319.608,-505.018 324,-509 358.377,-540.166 327.488,-573.893 360,-607 363.322,-610.383 367.134,-613.334 371.218,-615.908"/>
<polygon fill="midnightblue" stroke="midnightblue" points="310.311,-495.939 299.728,-495.444 307.692,-502.431 310.311,-495.939"/>
</g>
<!-- Node11 -->
<g id="node21" class="node"><title>Node11</title>
<a xlink:href="classArray3DImpl.html" target="_top" xlink:title="Implementation of Array3D. ">
<polygon fill="white" stroke="black" points="379.5,-126.5 379.5,-147.5 474.5,-147.5 474.5,-126.5 379.5,-126.5"/>
<text text-anchor="middle" x="427" y="-134.5" font-family="Helvetica,sans-Serif" font-size="10.00">Array3DImpl&lt; T &gt;</text>
</a>
</g>
<!-- Node1&#45;&gt;Node11 -->
<g id="edge20" class="edge"><title>Node1&#45;&gt;Node11</title>
<path fill="none" stroke="midnightblue" d="M309.399,-480.126C314.896,-477.292 319.914,-473.654 324,-469 409.108,-372.064 291.803,-290.495 360,-181 369.417,-165.88 386.167,-154.88 400.563,-147.66"/>
<polygon fill="midnightblue" stroke="midnightblue" points="307.636,-477.07 299.775,-484.174 310.35,-483.523 307.636,-477.07"/>
</g>
<!-- Node12 -->
<g id="node23" class="node"><title>Node12</title>
<a xlink:href="classArray3DImpl.html" target="_top" xlink:title="Array3DImpl\&lt; bool \&gt;">
<polygon fill="white" stroke="black" points="373.5,-312.5 373.5,-333.5 480.5,-333.5 480.5,-312.5 373.5,-312.5"/>
<text text-anchor="middle" x="427" y="-320.5" font-family="Helvetica,sans-Serif" font-size="10.00">Array3DImpl&lt; bool &gt;</text>
</a>
</g>
<!-- Node1&#45;&gt;Node12 -->
<g id="edge22" class="edge"><title>Node1&#45;&gt;Node12</title>
<path fill="none" stroke="midnightblue" d="M309.175,-479.223C314.625,-476.554 319.694,-473.203 324,-469 365.677,-428.318 319.061,-384.425 360,-343 363.84,-339.115 368.4,-335.977 373.308,-333.445"/>
<polygon fill="midnightblue" stroke="midnightblue" points="307.641,-476.069 299.714,-483.098 310.294,-482.546 307.641,-476.069"/>
</g>
<!-- Node13 -->
<g id="node25" class="node"><title>Node13</title>
<a xlink:href="classArray3DImpl.html" target="_top" xlink:title="Array3DImpl\&lt; float\l_complex \&gt;">
<polygon fill="white" stroke="black" points="377.5,-254 377.5,-288 476.5,-288 476.5,-254 377.5,-254"/>
<text text-anchor="start" x="385.5" y="-275" font-family="Helvetica,sans-Serif" font-size="10.00">Array3DImpl&lt; float</text>
<text text-anchor="middle" x="427" y="-262" font-family="Helvetica,sans-Serif" font-size="10.00">_complex &gt;</text>
</a>
</g>
<!-- Node1&#45;&gt;Node13 -->
<g id="edge24" class="edge"><title>Node1&#45;&gt;Node13</title>
<path fill="none" stroke="midnightblue" d="M309.223,-479.626C314.707,-476.883 319.771,-473.404 324,-469 376.288,-414.547 313.156,-362.201 360,-303 364.719,-297.036 370.822,-292.121 377.42,-288.089"/>
<polygon fill="midnightblue" stroke="midnightblue" points="307.57,-476.522 299.668,-483.579 310.246,-482.99 307.57,-476.522"/>
</g>
<!-- Node14 -->
<g id="node27" class="node"><title>Node14</title>
<a xlink:href="classArrayNDImpl.html" target="_top" xlink:title="Implementation of ArrayND. ">
<polygon fill="white" stroke="black" points="378,-352.5 378,-373.5 476,-373.5 476,-352.5 378,-352.5"/>
<text text-anchor="middle" x="427" y="-360.5" font-family="Helvetica,sans-Serif" font-size="10.00">ArrayNDImpl&lt; T &gt;</text>
</a>
</g>
<!-- Node1&#45;&gt;Node14 -->
<g id="edge26" class="edge"><title>Node1&#45;&gt;Node14</title>
<path fill="none" stroke="midnightblue" d="M308.923,-478.569C314.379,-476.027 319.521,-472.883 324,-469 355.309,-441.858 329.184,-410.701 360,-383 365.146,-378.374 371.322,-374.817 377.814,-372.082"/>
<polygon fill="midnightblue" stroke="midnightblue" points="307.51,-475.364 299.505,-482.305 310.091,-481.871 307.51,-475.364"/>
</g>
<!-- Node15 -->
<g id="node28" class="node"><title>Node15</title>
<a xlink:href="classArrayND.html" target="_top" xlink:title="An ArrayND is an array with a given number of dimensions and a size. ">
<polygon fill="white" stroke="black" points="27.5,-438.5 27.5,-459.5 106.5,-459.5 106.5,-438.5 27.5,-438.5"/>
<text text-anchor="middle" x="67" y="-446.5" font-family="Helvetica,sans-Serif" font-size="10.00">ArrayND&lt; T &gt;</text>
</a>
</g>
<!-- Node15&#45;&gt;Node14 -->
<g id="edge96" class="edge"><title>Node15&#45;&gt;Node14</title>
<path fill="none" stroke="midnightblue" d="M116.689,-438.457C168.566,-427.292 252.215,-408.848 324,-391 345.76,-385.59 369.96,-379.038 389.433,-373.634"/>
<polygon fill="midnightblue" stroke="midnightblue" points="115.793,-435.069 106.75,-440.59 117.262,-441.913 115.793,-435.069"/>
</g>
<!-- Node16 -->
<g id="node30" class="node"><title>Node16</title>
<a xlink:href="classArray1D.html" target="_top" xlink:title="Array1D ( Subclass of ArrayND ) is a one dimensional array. ">
<polygon fill="white" stroke="black" points="208.5,-800.5 208.5,-821.5 285.5,-821.5 285.5,-800.5 208.5,-800.5"/>
<text text-anchor="middle" x="247" y="-808.5" font-family="Helvetica,sans-Serif" font-size="10.00">Array1D&lt; T &gt;</text>
</a>
</g>
<!-- Node15&#45;&gt;Node16 -->
<g id="edge28" class="edge"><title>Node15&#45;&gt;Node16</title>
<path fill="none" stroke="midnightblue" d="M72.0179,-469.72C89.222,-540.069 146.074,-766.714 170,-790 180.228,-799.954 194.69,-805.298 208.324,-808.13"/>
<polygon fill="midnightblue" stroke="midnightblue" points="75.3753,-468.714 69.6083,-459.826 68.5741,-470.37 75.3753,-468.714"/>
</g>
<!-- Node19 -->
<g id="node38" class="node"><title>Node19</title>
<a xlink:href="classArray1D.html" target="_top" xlink:title="Array1D\&lt; char \&gt;">
<polygon fill="white" stroke="black" points="202.5,-759.5 202.5,-780.5 291.5,-780.5 291.5,-759.5 202.5,-759.5"/>
<text text-anchor="middle" x="247" y="-767.5" font-family="Helvetica,sans-Serif" font-size="10.00">Array1D&lt; char &gt;</text>
</a>
</g>
<!-- Node15&#45;&gt;Node19 -->
<g id="edge38" class="edge"><title>Node15&#45;&gt;Node19</title>
<path fill="none" stroke="midnightblue" d="M67.7668,-469.726C70.9272,-523.973 87.1125,-671.291 170,-749 178.794,-757.245 190.504,-762.311 202.133,-765.407"/>
<polygon fill="midnightblue" stroke="midnightblue" points="71.2569,-469.438 67.2708,-459.622 64.2654,-469.782 71.2569,-469.438"/>
</g>
<!-- Node20 -->
<g id="node40" class="node"><title>Node20</title>
<a xlink:href="classArray1D.html" target="_top" xlink:title="Array1D\&lt; TT \&gt;">
<polygon fill="white" stroke="black" points="205.5,-718.5 205.5,-739.5 288.5,-739.5 288.5,-718.5 205.5,-718.5"/>
<text text-anchor="middle" x="247" y="-726.5" font-family="Helvetica,sans-Serif" font-size="10.00">Array1D&lt; TT &gt;</text>
</a>
</g>
<!-- Node15&#45;&gt;Node20 -->
<g id="edge40" class="edge"><title>Node15&#45;&gt;Node20</title>
<path fill="none" stroke="midnightblue" d="M68.9454,-469.635C74.7182,-518.842 96.2592,-643.818 170,-709 179.727,-717.598 192.693,-722.579 205.207,-725.439"/>
<polygon fill="midnightblue" stroke="midnightblue" points="72.4135,-469.149 67.8662,-459.58 65.4534,-469.896 72.4135,-469.149"/>
</g>
<!-- Node21 -->
<g id="node42" class="node"><title>Node21</title>
<a xlink:href="classArray2D.html" target="_top" xlink:title="Array2D ( Subclass of ArrayND ) is a two dimensional array. ">
<polygon fill="white" stroke="black" points="208.5,-598.5 208.5,-619.5 285.5,-619.5 285.5,-598.5 208.5,-598.5"/>
<text text-anchor="middle" x="247" y="-606.5" font-family="Helvetica,sans-Serif" font-size="10.00">Array2D&lt; T &gt;</text>
</a>
</g>
<!-- Node15&#45;&gt;Node21 -->
<g id="edge42" class="edge"><title>Node15&#45;&gt;Node21</title>
<path fill="none" stroke="midnightblue" d="M76.1268,-468.964C91.1904,-499.621 124.209,-557.987 170,-589 181.321,-596.668 195.402,-601.396 208.414,-604.311"/>
<polygon fill="midnightblue" stroke="midnightblue" points="79.1773,-467.23 71.7141,-459.71 72.8588,-470.243 79.1773,-467.23"/>
</g>
<!-- Node25 -->
<g id="node56" class="node"><title>Node25</title>
<a xlink:href="classArray2D.html" target="_top" xlink:title="Array2D\&lt; bool \&gt;">
<polygon fill="white" stroke="black" points="202.5,-438.5 202.5,-459.5 291.5,-459.5 291.5,-438.5 202.5,-438.5"/>
<text text-anchor="middle" x="247" y="-446.5" font-family="Helvetica,sans-Serif" font-size="10.00">Array2D&lt; bool &gt;</text>
</a>
</g>
<!-- Node15&#45;&gt;Node25 -->
<g id="edge62" class="edge"><title>Node15&#45;&gt;Node25</title>
<path fill="none" stroke="midnightblue" d="M116.809,-449C143.557,-449 176.266,-449 202.207,-449"/>
<polygon fill="midnightblue" stroke="midnightblue" points="116.502,-445.5 106.502,-449 116.502,-452.5 116.502,-445.5"/>
</g>
<!-- Node26 -->
<g id="node58" class="node"><title>Node26</title>
<a xlink:href="classArray2D.html" target="_top" xlink:title="Array2D\&lt; char \&gt;">
<polygon fill="white" stroke="black" points="202.5,-320.5 202.5,-341.5 291.5,-341.5 291.5,-320.5 202.5,-320.5"/>
<text text-anchor="middle" x="247" y="-328.5" font-family="Helvetica,sans-Serif" font-size="10.00">Array2D&lt; char &gt;</text>
</a>
</g>
<!-- Node15&#45;&gt;Node26 -->
<g id="edge64" class="edge"><title>Node15&#45;&gt;Node26</title>
<path fill="none" stroke="midnightblue" d="M81.5217,-430.304C99.7874,-408.078 133.242,-371.432 170,-351 179.899,-345.498 191.357,-341.468 202.359,-338.533"/>
<polygon fill="midnightblue" stroke="midnightblue" points="78.6148,-428.334 75.0785,-438.321 84.0711,-432.719 78.6148,-428.334"/>
</g>
<!-- Node27 -->
<g id="node60" class="node"><title>Node27</title>
<a xlink:href="classArray2D.html" target="_top" xlink:title="Array2D\&lt; Coord3 \&gt;">
<polygon fill="white" stroke="black" points="196,-280.5 196,-301.5 298,-301.5 298,-280.5 196,-280.5"/>
<text text-anchor="middle" x="247" y="-288.5" font-family="Helvetica,sans-Serif" font-size="10.00">Array2D&lt; Coord3 &gt;</text>
</a>
</g>
<!-- Node15&#45;&gt;Node27 -->
<g id="edge66" class="edge"><title>Node15&#45;&gt;Node27</title>
<path fill="none" stroke="midnightblue" d="M76.2037,-429.321C91.371,-399.103 124.527,-341.57 170,-311 177.68,-305.837 186.614,-302.007 195.62,-299.165"/>
<polygon fill="midnightblue" stroke="midnightblue" points="72.9927,-427.921 71.7579,-438.443 79.2852,-430.987 72.9927,-427.921"/>
</g>
<!-- Node28 -->
<g id="node62" class="node"><title>Node28</title>
<a xlink:href="classArray2D.html" target="_top" xlink:title="Array2D\&lt; od_int64 \&gt;">
<polygon fill="white" stroke="black" points="193.5,-240.5 193.5,-261.5 300.5,-261.5 300.5,-240.5 193.5,-240.5"/>
<text text-anchor="middle" x="247" y="-248.5" font-family="Helvetica,sans-Serif" font-size="10.00">Array2D&lt; od_int64 &gt;</text>
</a>
</g>
<!-- Node15&#45;&gt;Node28 -->
<g id="edge68" class="edge"><title>Node15&#45;&gt;Node28</title>
<path fill="none" stroke="midnightblue" d="M73.0254,-428.463C85.0574,-391.157 115.681,-312.308 170,-271 176.816,-265.816 184.847,-261.971 193.105,-259.119"/>
<polygon fill="midnightblue" stroke="midnightblue" points="69.6187,-427.632 70.0009,-438.22 76.3048,-429.705 69.6187,-427.632"/>
</g>
<!-- Node29 -->
<g id="node64" class="node"><title>Node29</title>
<a xlink:href="classArray2D.html" target="_top" xlink:title="Array2D\&lt; SeisTrc * \&gt;">
<polygon fill="white" stroke="black" points="191.5,-200.5 191.5,-221.5 302.5,-221.5 302.5,-200.5 191.5,-200.5"/>
<text text-anchor="middle" x="247" y="-208.5" font-family="Helvetica,sans-Serif" font-size="10.00">Array2D&lt; SeisTrc * &gt;</text>
</a>
</g>
<!-- Node15&#45;&gt;Node29 -->
<g id="edge70" class="edge"><title>Node15&#45;&gt;Node29</title>
<path fill="none" stroke="midnightblue" d="M70.6655,-428.499C79.5212,-385.143 106.242,-283.812 170,-231 176.169,-225.89 183.495,-222.069 191.138,-219.215"/>
<polygon fill="midnightblue" stroke="midnightblue" points="67.2068,-427.951 68.7463,-438.434 74.0797,-429.279 67.2068,-427.951"/>
</g>
<!-- Node30 -->
<g id="node66" class="node"><title>Node30</title>
<a xlink:href="classArray2D.html" target="_top" xlink:title="Array2D\&lt; TT \&gt;">
<polygon fill="white" stroke="black" points="205.5,-160.5 205.5,-181.5 288.5,-181.5 288.5,-160.5 205.5,-160.5"/>
<text text-anchor="middle" x="247" y="-168.5" font-family="Helvetica,sans-Serif" font-size="10.00">Array2D&lt; TT &gt;</text>
</a>
</g>
<!-- Node15&#45;&gt;Node30 -->
<g id="edge72" class="edge"><title>Node15&#45;&gt;Node30</title>
<path fill="none" stroke="midnightblue" d="M68.998,-428.52C74.8865,-379.683 96.6635,-255.652 170,-191 179.739,-182.414 192.707,-177.437 205.221,-174.576"/>
<polygon fill="midnightblue" stroke="midnightblue" points="65.5148,-428.176 67.8943,-438.5 72.4724,-428.945 65.5148,-428.176"/>
</g>
<!-- Node31 -->
<g id="node68" class="node"><title>Node31</title>
<a xlink:href="classArray2D.html" target="_top" xlink:title="Array2D\&lt; unsigned char \&gt;">
<polygon fill="white" stroke="black" points="181.5,-678.5 181.5,-699.5 312.5,-699.5 312.5,-678.5 181.5,-678.5"/>
<text text-anchor="middle" x="247" y="-686.5" font-family="Helvetica,sans-Serif" font-size="10.00">Array2D&lt; unsigned char &gt;</text>
</a>
</g>
<!-- Node15&#45;&gt;Node31 -->
<g id="edge74" class="edge"><title>Node15&#45;&gt;Node31</title>
<path fill="none" stroke="midnightblue" d="M70.6058,-469.685C79.3461,-513.431 105.857,-615.679 170,-669 174.567,-672.797 179.772,-675.882 185.273,-678.388"/>
<polygon fill="midnightblue" stroke="midnightblue" points="74.008,-468.839 68.7141,-459.661 67.1294,-470.137 74.008,-468.839"/>
</g>
<!-- Node32 -->
<g id="node70" class="node"><title>Node32</title>
<a xlink:href="classArray2D.html" target="_top" xlink:title="Array2D\&lt; unsigned int \&gt;">
<polygon fill="white" stroke="black" points="185.5,-638.5 185.5,-659.5 308.5,-659.5 308.5,-638.5 185.5,-638.5"/>
<text text-anchor="middle" x="247" y="-646.5" font-family="Helvetica,sans-Serif" font-size="10.00">Array2D&lt; unsigned int &gt;</text>
</a>
</g>
<!-- Node15&#45;&gt;Node32 -->
<g id="edge76" class="edge"><title>Node15&#45;&gt;Node32</title>
<path fill="none" stroke="midnightblue" d="M72.9566,-469.765C84.8764,-507.485 115.324,-587.212 170,-629 175.048,-632.858 180.768,-635.975 186.755,-638.494"/>
<polygon fill="midnightblue" stroke="midnightblue" points="76.216,-468.452 69.9629,-459.899 69.5176,-470.485 76.216,-468.452"/>
</g>
<!-- Node33 -->
<g id="node72" class="node"><title>Node33</title>
<a xlink:href="classArray3D.html" target="_top" xlink:title="Array3D ( Subclass of ArrayND ) is a three dimensional array. ">
<polygon fill="white" stroke="black" points="208.5,-40.5 208.5,-61.5 285.5,-61.5 285.5,-40.5 208.5,-40.5"/>
<text text-anchor="middle" x="247" y="-48.5" font-family="Helvetica,sans-Serif" font-size="10.00">Array3D&lt; T &gt;</text>
</a>
</g>
<!-- Node15&#45;&gt;Node33 -->
<g id="edge78" class="edge"><title>Node15&#45;&gt;Node33</title>
<path fill="none" stroke="midnightblue" d="M69.8704,-428.399C80.1982,-357.152 117.646,-122.734 170,-71 180.119,-61.0008 194.56,-55.8102 208.207,-53.1775"/>
<polygon fill="midnightblue" stroke="midnightblue" points="66.394,-427.985 68.4476,-438.379 73.3239,-428.973 66.394,-427.985"/>
</g>
<!-- Node37 -->
<g id="node81" class="node"><title>Node37</title>
<a xlink:href="classArray3D.html" target="_top" xlink:title="Array3D\&lt; bool \&gt;">
<polygon fill="white" stroke="black" points="202.5,-360.5 202.5,-381.5 291.5,-381.5 291.5,-360.5 202.5,-360.5"/>
<text text-anchor="middle" x="247" y="-368.5" font-family="Helvetica,sans-Serif" font-size="10.00">Array3D&lt; bool &gt;</text>
</a>
</g>
<!-- Node15&#45;&gt;Node37 -->
<g id="edge88" class="edge"><title>Node15&#45;&gt;Node37</title>
<path fill="none" stroke="midnightblue" d="M94.3069,-433.413C114.741,-422.131 143.597,-406.995 170,-396 182.975,-390.597 197.563,-385.6 210.523,-381.517"/>
<polygon fill="midnightblue" stroke="midnightblue" points="92.5784,-430.37 85.5497,-438.297 95.9881,-436.483 92.5784,-430.37"/>
</g>
<!-- Node38 -->
<g id="node84" class="node"><title>Node38</title>
<a xlink:href="classArray3D.html" target="_top" xlink:title="Array3D\&lt; TT \&gt;">
<polygon fill="white" stroke="black" points="205.5,-558.5 205.5,-579.5 288.5,-579.5 288.5,-558.5 205.5,-558.5"/>
<text text-anchor="middle" x="247" y="-566.5" font-family="Helvetica,sans-Serif" font-size="10.00">Array3D&lt; TT &gt;</text>
</a>
</g>
<!-- Node15&#45;&gt;Node38 -->
<g id="edge92" class="edge"><title>Node15&#45;&gt;Node38</title>
<path fill="none" stroke="midnightblue" d="M81.1552,-467.737C99.272,-490.39 132.796,-528.074 170,-549 180.714,-555.026 193.285,-559.28 205.127,-562.265"/>
<polygon fill="midnightblue" stroke="midnightblue" points="83.6987,-465.307 74.7825,-459.584 78.1837,-469.618 83.6987,-465.307"/>
</g>
<!-- Node39 -->
<g id="node86" class="node"><title>Node39</title>
<a xlink:href="classArray3D.html" target="_top" xlink:title="Array3D\&lt; unsigned char \&gt;">
<polygon fill="white" stroke="black" points="181.5,-518.5 181.5,-539.5 312.5,-539.5 312.5,-518.5 181.5,-518.5"/>
<text text-anchor="middle" x="247" y="-526.5" font-family="Helvetica,sans-Serif" font-size="10.00">Array3D&lt; unsigned char &gt;</text>
</a>
</g>
<!-- Node15&#45;&gt;Node39 -->
<g id="edge94" class="edge"><title>Node15&#45;&gt;Node39</title>
<path fill="none" stroke="midnightblue" d="M90.5814,-465.254C110.86,-478.602 141.294,-497.173 170,-509 178.812,-512.63 188.467,-515.756 197.871,-518.387"/>
<polygon fill="midnightblue" stroke="midnightblue" points="92.2802,-462.179 82.0217,-459.531 88.3895,-467.998 92.2802,-462.179"/>
</g>
<!-- Node16&#45;&gt;Node2 -->
<g id="edge32" class="edge"><title>Node16&#45;&gt;Node2</title>
<path fill="none" stroke="midnightblue" d="M295.643,-800.191C321.678,-794.405 353.614,-787.308 379.477,-781.561"/>
<polygon fill="midnightblue" stroke="midnightblue" points="294.617,-796.833 285.615,-802.419 296.136,-803.666 294.617,-796.833"/>
</g>
<!-- Node16&#45;&gt;Node3 -->
<g id="edge34" class="edge"><title>Node16&#45;&gt;Node3</title>
<path fill="none" stroke="midnightblue" d="M295.332,-802.26C305.242,-799.269 315.295,-795.287 324,-790 344.162,-777.755 340.501,-764.276 360,-751 365.363,-747.348 371.312,-744.108 377.387,-741.261"/>
<polygon fill="midnightblue" stroke="midnightblue" points="294.253,-798.926 285.524,-804.932 296.093,-805.68 294.253,-798.926"/>
</g>
<!-- Node17 -->
<g id="node32" class="node"><title>Node17</title>
<a xlink:href="classArray1DConv.html" target="_top" xlink:title="Array1DConv\&lt; T, TT \&gt;">
<polygon fill="white" stroke="black" points="368,-840.5 368,-861.5 486,-861.5 486,-840.5 368,-840.5"/>
<text text-anchor="middle" x="427" y="-848.5" font-family="Helvetica,sans-Serif" font-size="10.00">Array1DConv&lt; T, TT &gt;</text>
</a>
</g>
<!-- Node16&#45;&gt;Node17 -->
<g id="edge30" class="edge"><title>Node16&#45;&gt;Node17</title>
<path fill="none" stroke="midnightblue" d="M295.643,-821.809C321.678,-827.595 353.614,-834.692 379.477,-840.439"/>
<polygon fill="midnightblue" stroke="midnightblue" points="296.136,-818.334 285.615,-819.581 294.617,-825.167 296.136,-818.334"/>
</g>
<!-- Node18 -->
<g id="node36" class="node"><title>Node18</title>
<a xlink:href="classArray1DSlice.html" target="_top" xlink:title="Subclass of Array1D and ArrayNDSliceBase. ">
<polygon fill="white" stroke="black" points="378,-920.5 378,-941.5 476,-941.5 476,-920.5 378,-920.5"/>
<text text-anchor="middle" x="427" y="-928.5" font-family="Helvetica,sans-Serif" font-size="10.00">Array1DSlice&lt; T &gt;</text>
</a>
</g>
<!-- Node16&#45;&gt;Node18 -->
<g id="edge36" class="edge"><title>Node16&#45;&gt;Node18</title>
<path fill="none" stroke="midnightblue" d="M295.557,-816.653C305.791,-819.652 315.922,-824.181 324,-831 353.795,-856.149 330.662,-885.32 360,-911 365.206,-915.557 371.416,-919.077 377.924,-921.795"/>
<polygon fill="midnightblue" stroke="midnightblue" points="296.326,-813.238 285.777,-814.222 294.637,-820.031 296.326,-813.238"/>
</g>
<!-- Node21&#45;&gt;Node4 -->
<g id="edge46" class="edge"><title>Node21&#45;&gt;Node4</title>
<path fill="none" stroke="midnightblue" d="M295.643,-603.055C321.678,-599.873 353.614,-595.969 379.477,-592.808"/>
<polygon fill="midnightblue" stroke="midnightblue" points="295.116,-599.593 285.615,-604.28 295.965,-606.541 295.116,-599.593"/>
</g>
<!-- Node21&#45;&gt;Node5 -->
<g id="edge48" class="edge"><title>Node21&#45;&gt;Node5</title>
<path fill="none" stroke="midnightblue" d="M295.575,-598.708C305.168,-596.03 315.036,-592.804 324,-589 341.261,-581.675 343.193,-575.314 360,-567 366.263,-563.902 372.992,-560.915 379.683,-558.139"/>
<polygon fill="midnightblue" stroke="midnightblue" points="294.506,-595.37 285.727,-601.301 296.288,-602.139 294.506,-595.37"/>
</g>
<!-- Node21&#45;&gt;Node6 -->
<g id="edge50" class="edge"><title>Node21&#45;&gt;Node6</title>
<path fill="none" stroke="midnightblue" d="M295.408,-603.168C305.649,-600.177 315.821,-595.697 324,-589 352.299,-565.83 333.092,-539.772 360,-515 363.672,-511.62 367.832,-508.661 372.238,-506.075"/>
<polygon fill="midnightblue" stroke="midnightblue" points="294.489,-599.789 285.631,-605.602 296.18,-606.582 294.489,-599.789"/>
</g>
<!-- Node21&#45;&gt;Node7 -->
<g id="edge52" class="edge"><title>Node21&#45;&gt;Node7</title>
<path fill="none" stroke="midnightblue" d="M295.708,-604.359C306.117,-601.328 316.285,-596.53 324,-589 365.677,-548.318 319.061,-504.425 360,-463 363.754,-459.201 368.198,-456.117 372.982,-453.615"/>
<polygon fill="midnightblue" stroke="midnightblue" points="294.633,-601.018 285.727,-606.756 296.268,-607.824 294.633,-601.018"/>
</g>
<!-- Node21&#45;&gt;Node9 -->
<g id="edge54" class="edge"><title>Node21&#45;&gt;Node9</title>
<path fill="none" stroke="midnightblue" d="M295.439,-604.897C306.055,-601.865 316.383,-596.933 324,-589 376.288,-534.547 308.7,-478.384 360,-423 364.867,-417.746 371.049,-413.851 377.682,-410.968"/>
<polygon fill="midnightblue" stroke="midnightblue" points="294.62,-601.494 285.679,-607.178 296.213,-608.31 294.62,-601.494"/>
</g>
<!-- Node21&#45;&gt;Node10 -->
<g id="edge56" class="edge"><title>Node21&#45;&gt;Node10</title>
<path fill="none" stroke="midnightblue" d="M295.643,-615.486C317.465,-618.395 343.433,-621.858 366.495,-624.933"/>
<polygon fill="midnightblue" stroke="midnightblue" points="295.989,-612.001 285.615,-614.149 295.064,-618.94 295.989,-612.001"/>
</g>
<!-- Node22 -->
<g id="node44" class="node"><title>Node22</title>
<a xlink:href="classArray2DConv.html" target="_top" xlink:title="Array2DConv\&lt; T, TT \&gt;">
<polygon fill="white" stroke="black" points="368,-668.5 368,-689.5 486,-689.5 486,-668.5 368,-668.5"/>
<text text-anchor="middle" x="427" y="-676.5" font-family="Helvetica,sans-Serif" font-size="10.00">Array2DConv&lt; T, TT &gt;</text>
</a>
</g>
<!-- Node21&#45;&gt;Node22 -->
<g id="edge44" class="edge"><title>Node21&#45;&gt;Node22</title>
<path fill="none" stroke="midnightblue" d="M295.749,-618.19C305.4,-620.962 315.246,-624.504 324,-629 342.527,-638.515 341.647,-649.154 360,-659 366.953,-662.73 374.695,-665.856 382.376,-668.443"/>
<polygon fill="midnightblue" stroke="midnightblue" points="296.376,-614.736 285.815,-615.574 294.593,-621.506 296.376,-614.736"/>
</g>
<!-- Node23 -->
<g id="node52" class="node"><title>Node23</title>
<a xlink:href="classArray2DSlice.html" target="_top" xlink:title="Subclass of Array2D and ArrayNDSliceBase. ">
<polygon fill="white" stroke="black" points="378,-880.5 378,-901.5 476,-901.5 476,-880.5 378,-880.5"/>
<text text-anchor="middle" x="427" y="-888.5" font-family="Helvetica,sans-Serif" font-size="10.00">Array2DSlice&lt; T &gt;</text>
</a>
</g>
<!-- Node21&#45;&gt;Node23 -->
<g id="edge58" class="edge"><title>Node21&#45;&gt;Node23</title>
<path fill="none" stroke="midnightblue" d="M295.511,-612.665C306.224,-615.699 316.578,-620.742 324,-629 396.691,-709.872 288.775,-788.834 360,-871 364.771,-876.504 370.986,-880.526 377.706,-883.459"/>
<polygon fill="midnightblue" stroke="midnightblue" points="296.175,-609.226 285.647,-610.409 294.615,-616.05 296.175,-609.226"/>
</g>
<!-- Node24 -->
<g id="node54" class="node"><title>Node24</title>
<a xlink:href="classArray2DSubSelection.html" target="_top" xlink:title="Makes a subselection of an Array2D cube. ">
<polygon fill="white" stroke="black" points="360,-800.5 360,-821.5 494,-821.5 494,-800.5 360,-800.5"/>
<text text-anchor="middle" x="427" y="-808.5" font-family="Helvetica,sans-Serif" font-size="10.00">Array2DSubSelection&lt; T &gt;</text>
</a>
</g>
<!-- Node21&#45;&gt;Node24 -->
<g id="edge60" class="edge"><title>Node21&#45;&gt;Node24</title>
<path fill="none" stroke="midnightblue" d="M295.411,-613.131C306.027,-616.162 316.363,-621.087 324,-629 375.221,-682.07 309.742,-737.018 360,-791 363.557,-794.82 367.809,-797.922 372.423,-800.438"/>
<polygon fill="midnightblue" stroke="midnightblue" points="296.185,-609.718 285.651,-610.849 294.592,-616.534 296.185,-609.718"/>
</g>
<!-- Node33&#45;&gt;Node11 -->
<g id="edge82" class="edge"><title>Node33&#45;&gt;Node11</title>
<path fill="none" stroke="midnightblue" d="M295.376,-58.963C305.284,-61.8348 315.325,-65.7281 324,-71 344.439,-83.4208 340.315,-97.4148 360,-111 369.242,-117.378 380.267,-122.485 390.678,-126.427"/>
<polygon fill="midnightblue" stroke="midnightblue" points="296.127,-55.5421 285.569,-56.4186 294.369,-62.3178 296.127,-55.5421"/>
</g>
<!-- Node34 -->
<g id="node74" class="node"><title>Node34</title>
<a xlink:href="classArray3DConv.html" target="_top" xlink:title="Array3DConv\&lt; T, TT \&gt;">
<polygon fill="white" stroke="black" points="368,-80.5 368,-101.5 486,-101.5 486,-80.5 368,-80.5"/>
<text text-anchor="middle" x="427" y="-88.5" font-family="Helvetica,sans-Serif" font-size="10.00">Array3DConv&lt; T, TT &gt;</text>
</a>
</g>
<!-- Node33&#45;&gt;Node34 -->
<g id="edge80" class="edge"><title>Node33&#45;&gt;Node34</title>
<path fill="none" stroke="midnightblue" d="M295.643,-61.8095C321.678,-67.5951 353.614,-74.692 379.477,-80.4394"/>
<polygon fill="midnightblue" stroke="midnightblue" points="296.136,-58.3337 285.615,-59.581 294.617,-65.167 296.136,-58.3337"/>
</g>
<!-- Node35 -->
<g id="node77" class="node"><title>Node35</title>
<a xlink:href="classArray3DSubSelection.html" target="_top" xlink:title="Array3DSubSelection\&lt; T \&gt;">
<polygon fill="white" stroke="black" points="360,-40.5 360,-61.5 494,-61.5 494,-40.5 360,-40.5"/>
<text text-anchor="middle" x="427" y="-48.5" font-family="Helvetica,sans-Serif" font-size="10.00">Array3DSubSelection&lt; T &gt;</text>
</a>
</g>
<!-- Node33&#45;&gt;Node35 -->
<g id="edge84" class="edge"><title>Node33&#45;&gt;Node35</title>
<path fill="none" stroke="midnightblue" d="M295.865,-51C315.532,-51 338.538,-51 359.742,-51"/>
<polygon fill="midnightblue" stroke="midnightblue" points="295.615,-47.5001 285.615,-51 295.614,-54.5001 295.615,-47.5001"/>
</g>
<!-- Node36 -->
<g id="node79" class="node"><title>Node36</title>
<a xlink:href="classArray3DWrapper.html" target="_top" xlink:title="Subclass of ArrayNDWrapper. ">
<polygon fill="white" stroke="black" points="370.5,-0.5 370.5,-21.5 483.5,-21.5 483.5,-0.5 370.5,-0.5"/>
<text text-anchor="middle" x="427" y="-8.5" font-family="Helvetica,sans-Serif" font-size="10.00">Array3DWrapper&lt; T &gt;</text>
</a>
</g>
<!-- Node33&#45;&gt;Node36 -->
<g id="edge86" class="edge"><title>Node33&#45;&gt;Node36</title>
<path fill="none" stroke="midnightblue" d="M295.643,-40.1905C321.678,-34.4049 353.614,-27.308 379.477,-21.5606"/>
<polygon fill="midnightblue" stroke="midnightblue" points="294.617,-36.833 285.615,-42.419 296.136,-43.6663 294.617,-36.833"/>
</g>
<!-- Node37&#45;&gt;Node12 -->
<g id="edge90" class="edge"><title>Node37&#45;&gt;Node12</title>
<path fill="none" stroke="midnightblue" d="M297.579,-357.95C306.391,-355.651 315.465,-353.268 324,-351 345.312,-345.336 369.067,-338.887 388.388,-333.607"/>
<polygon fill="midnightblue" stroke="midnightblue" points="296.579,-354.593 287.783,-360.499 298.342,-361.368 296.579,-354.593"/>
</g>
<!-- Node40 -->
<g id="node88" class="node"><title>Node40</title>
<a xlink:href="classArrayND.html" target="_top" xlink:title="ArrayND\&lt; float_complex \&gt;">
<polygon fill="white" stroke="black" points="0,-100.5 0,-121.5 134,-121.5 134,-100.5 0,-100.5"/>
<text text-anchor="middle" x="67" y="-108.5" font-family="Helvetica,sans-Serif" font-size="10.00">ArrayND&lt; float_complex &gt;</text>
</a>
</g>
<!-- Node41 -->
<g id="node90" class="node"><title>Node41</title>
<a xlink:href="classArray2D.html" target="_top" xlink:title="Array2D\&lt; float_complex \&gt;">
<polygon fill="white" stroke="black" points="181.5,-80.5 181.5,-101.5 312.5,-101.5 312.5,-80.5 181.5,-80.5"/>
<text text-anchor="middle" x="247" y="-88.5" font-family="Helvetica,sans-Serif" font-size="10.00">Array2D&lt; float_complex &gt;</text>
</a>
</g>
<!-- Node40&#45;&gt;Node41 -->
<g id="edge98" class="edge"><title>Node40&#45;&gt;Node41</title>
<path fill="none" stroke="midnightblue" d="M144.311,-102.41C156.673,-101.036 169.36,-99.6267 181.415,-98.2872"/>
<polygon fill="midnightblue" stroke="midnightblue" points="143.578,-98.9697 134.025,-103.553 144.351,-105.927 143.578,-98.9697"/>
</g>
<!-- Node42 -->
<g id="node93" class="node"><title>Node42</title>
<a xlink:href="classArray3D.html" target="_top" xlink:title="Array3D\&lt; float_complex \&gt;">
<polygon fill="white" stroke="black" points="181.5,-120.5 181.5,-141.5 312.5,-141.5 312.5,-120.5 181.5,-120.5"/>
<text text-anchor="middle" x="247" y="-128.5" font-family="Helvetica,sans-Serif" font-size="10.00">Array3D&lt; float_complex &gt;</text>
</a>
</g>
<!-- Node40&#45;&gt;Node42 -->
<g id="edge102" class="edge"><title>Node40&#45;&gt;Node42</title>
<path fill="none" stroke="midnightblue" d="M144.311,-119.59C156.673,-120.964 169.36,-122.373 181.415,-123.713"/>
<polygon fill="midnightblue" stroke="midnightblue" points="144.351,-116.073 134.025,-118.447 143.578,-123.03 144.351,-116.073"/>
</g>
<!-- Node41&#45;&gt;Node8 -->
<g id="edge100" class="edge"><title>Node41&#45;&gt;Node8</title>
<path fill="none" stroke="midnightblue" d="M314.089,-105.453C317.541,-107.106 320.871,-108.948 324,-111 345.709,-125.237 341.433,-138.855 360,-157 372.456,-169.173 387.956,-180.921 400.91,-189.966"/>
<polygon fill="midnightblue" stroke="midnightblue" points="315.293,-102.162 304.718,-101.504 312.574,-108.613 315.293,-102.162"/>
</g>
<!-- Node42&#45;&gt;Node13 -->
<g id="edge104" class="edge"><title>Node42&#45;&gt;Node13</title>
<path fill="none" stroke="midnightblue" d="M318.331,-146.751C320.309,-148.058 322.206,-149.472 324,-151 354.298,-176.812 333.331,-203.454 360,-233 367.527,-241.338 377.328,-248.296 387.1,-253.881"/>
<polygon fill="midnightblue" stroke="midnightblue" points="319.646,-143.478 309.205,-141.675 316.243,-149.595 319.646,-143.478"/>
</g>
<!-- Node43 -->
<g id="node95" class="node"><title>Node43</title>
<a xlink:href="classArrayNDSliceBase.html" target="_top" xlink:title="Base class of Array1DSlice and Array2DSlice. Access&#45;tool to another ArrayND with higher dimensionalit...">
<polygon fill="white" stroke="black" points="197.5,-880.5 197.5,-901.5 296.5,-901.5 296.5,-880.5 197.5,-880.5"/>
<text text-anchor="middle" x="247" y="-888.5" font-family="Helvetica,sans-Serif" font-size="10.00">ArrayNDSliceBase</text>
</a>
</g>
<!-- Node43&#45;&gt;Node18 -->
<g id="edge106" class="edge"><title>Node43&#45;&gt;Node18</title>
<path fill="none" stroke="midnightblue" d="M304.124,-903.694C328.475,-909.106 356.55,-915.344 379.711,-920.491"/>
<polygon fill="midnightblue" stroke="midnightblue" points="304.814,-900.262 294.293,-901.51 303.295,-907.096 304.814,-900.262"/>
</g>
<!-- Node43&#45;&gt;Node23 -->
<g id="edge108" class="edge"><title>Node43&#45;&gt;Node23</title>
<path fill="none" stroke="midnightblue" d="M306.685,-891C329.759,-891 355.843,-891 377.811,-891"/>
<polygon fill="midnightblue" stroke="midnightblue" points="306.662,-887.5 296.662,-891 306.662,-894.5 306.662,-887.5"/>
</g>
<!-- Node44 -->
<g id="node98" class="node"><title>Node44</title>
<a xlink:href="classArrayNDWrapper.html" target="_top" xlink:title="Access tool to another array with a lower number of dimensions. ">
<polygon fill="white" stroke="black" points="201,-0.5 201,-21.5 293,-21.5 293,-0.5 201,-0.5"/>
<text text-anchor="middle" x="247" y="-8.5" font-family="Helvetica,sans-Serif" font-size="10.00">ArrayNDWrapper</text>
</a>
</g>
<!-- Node44&#45;&gt;Node36 -->
<g id="edge110" class="edge"><title>Node44&#45;&gt;Node36</title>
<path fill="none" stroke="midnightblue" d="M303.526,-11C324.772,-11 348.92,-11 370.192,-11"/>
<polygon fill="midnightblue" stroke="midnightblue" points="303.355,-7.5001 293.354,-11 303.354,-14.5001 303.355,-7.5001"/>
</g>
<!-- Node45 -->
<g id="node100" class="node"><title>Node45</title>
<a xlink:href="classValueSeries.html" target="_top" xlink:title="Interface to a series of values. ">
<polygon fill="white" stroke="black" points="20.5,-840.5 20.5,-861.5 113.5,-861.5 113.5,-840.5 20.5,-840.5"/>
<text text-anchor="middle" x="67" y="-848.5" font-family="Helvetica,sans-Serif" font-size="10.00">ValueSeries&lt; T &gt;</text>
</a>
</g>
<!-- Node45&#45;&gt;Node16 -->
<g id="edge112" class="edge"><title>Node45&#45;&gt;Node16</title>
<path fill="none" stroke="midnightblue" d="M123.727,-838.394C151.267,-832.274 183.644,-825.079 208.304,-819.599"/>
<polygon fill="midnightblue" stroke="midnightblue" points="122.826,-835.009 113.823,-840.595 124.344,-841.842 122.826,-835.009"/>
</g>
<!-- Node45&#45;&gt;Node19 -->
<g id="edge114" class="edge"><title>Node45&#45;&gt;Node19</title>
<path fill="none" stroke="midnightblue" d="M90.9716,-834.605C111.271,-821.327 141.532,-802.931 170,-791 180.223,-786.715 191.577,-783.058 202.355,-780.054"/>
<polygon fill="midnightblue" stroke="midnightblue" points="88.7831,-831.857 82.3877,-840.303 92.6548,-837.688 88.7831,-831.857"/>
</g>
<!-- Node46 -->
<g id="node104" class="node"><title>Node46</title>
<a xlink:href="classArrayNDValseriesAdapter.html" target="_top" xlink:title="Adapter that makes any ArrayND to a (slow) value series. ">
<polygon fill="white" stroke="black" points="170.5,-960.5 170.5,-981.5 323.5,-981.5 323.5,-960.5 170.5,-960.5"/>
<text text-anchor="middle" x="247" y="-968.5" font-family="Helvetica,sans-Serif" font-size="10.00">ArrayNDValseriesAdapter&lt; T &gt;</text>
</a>
</g>
<!-- Node45&#45;&gt;Node46 -->
<g id="edge116" class="edge"><title>Node45&#45;&gt;Node46</title>
<path fill="none" stroke="midnightblue" d="M81.1552,-869.737C99.272,-892.39 132.796,-930.074 170,-951 176.741,-954.792 184.218,-957.882 191.785,-960.395"/>
<polygon fill="midnightblue" stroke="midnightblue" points="83.6987,-867.307 74.7825,-861.584 78.1837,-871.618 83.6987,-867.307"/>
</g>
<!-- Node47 -->
<g id="node106" class="node"><title>Node47</title>
<a xlink:href="classConvMemValueSeries.html" target="_top" xlink:title="ConvMemValueSeries\&lt; T \&gt;">
<polygon fill="white" stroke="black" points="178,-920.5 178,-941.5 316,-941.5 316,-920.5 178,-920.5"/>
<text text-anchor="middle" x="247" y="-928.5" font-family="Helvetica,sans-Serif" font-size="10.00">ConvMemValueSeries&lt; T &gt;</text>
</a>
</g>
<!-- Node45&#45;&gt;Node47 -->
<g id="edge118" class="edge"><title>Node45&#45;&gt;Node47</title>
<path fill="none" stroke="midnightblue" d="M90.5814,-867.254C110.86,-880.602 141.294,-899.173 170,-911 178.812,-914.63 188.467,-917.756 197.871,-920.387"/>
<polygon fill="midnightblue" stroke="midnightblue" points="92.2802,-864.179 82.0217,-861.531 88.3895,-869.998 92.2802,-864.179"/>
</g>
<!-- Node48 -->
<g id="node108" class="node"><title>Node48</title>
<a xlink:href="classOffsetValueSeries.html" target="_top" xlink:title="ValueSeries of offsets. ">
<polygon fill="white" stroke="black" points="187,-840.5 187,-861.5 307,-861.5 307,-840.5 187,-840.5"/>
<text text-anchor="middle" x="247" y="-848.5" font-family="Helvetica,sans-Serif" font-size="10.00">OffsetValueSeries&lt; T &gt;</text>
</a>
</g>
<!-- Node45&#45;&gt;Node48 -->
<g id="edge120" class="edge"><title>Node45&#45;&gt;Node48</title>
<path fill="none" stroke="midnightblue" d="M124.03,-851C144.038,-851 166.569,-851 186.826,-851"/>
<polygon fill="midnightblue" stroke="midnightblue" points="123.823,-847.5 113.823,-851 123.823,-854.5 123.823,-847.5"/>
</g>
<!-- Node49 -->
<g id="node109" class="node"><title>Node49</title>
<a xlink:href="classValueSeries.html" target="_top" xlink:title="ValueSeries\&lt; TT \&gt;">
<polygon fill="white" stroke="black" points="17.5,-718.5 17.5,-739.5 116.5,-739.5 116.5,-718.5 17.5,-718.5"/>
<text text-anchor="middle" x="67" y="-726.5" font-family="Helvetica,sans-Serif" font-size="10.00">ValueSeries&lt; TT &gt;</text>
</a>
</g>
<!-- Node49&#45;&gt;Node20 -->
<g id="edge122" class="edge"><title>Node49&#45;&gt;Node20</title>
<path fill="none" stroke="midnightblue" d="M126.712,-729C152.505,-729 182.054,-729 205.411,-729"/>
<polygon fill="midnightblue" stroke="midnightblue" points="126.662,-725.5 116.662,-729 126.662,-732.5 126.662,-725.5"/>
</g>
</g>
</svg>
