<?xml version="1.0" encoding="UTF-8" standalone="no"?>
<!DOCTYPE svg PUBLIC "-//W3C//DTD SVG 1.1//EN"
 "http://www.w3.org/Graphics/SVG/1.1/DTD/svg11.dtd">
<!-- Generated by graphviz version 2.26.0 (20091210.2329)
 -->
<!-- Title: Graphical Class Hierarchy Pages: 1 -->
<svg width="492pt" height="76pt"
 viewBox="0.00 0.00 492.00 76.00" xmlns="http://www.w3.org/2000/svg" xmlns:xlink="http://www.w3.org/1999/xlink">
<g id="graph1" class="graph" transform="scale(1 1) rotate(0) translate(4 72)">
<title>Graphical Class Hierarchy</title>
<polygon fill="white" stroke="white" points="-4,5 -4,-72 489,-72 489,5 -4,5"/>
<!-- Node1 -->
<g id="node1" class="node"><title>Node1</title>
<a xlink:href="classGeometry_1_1PrimitiveSet.html" target="_top" xlink:title="Geometry::PrimitiveSet">
<polygon fill="white" stroke="black" points="0.5,-20.5 0.5,-41.5 119.5,-41.5 119.5,-20.5 0.5,-20.5"/>
<text text-anchor="middle" x="60" y="-28.5" font-family="Helvetica,sans-Serif" font-size="10.00">Geometry::PrimitiveSet</text>
</a>
</g>
<!-- Node2 -->
<g id="node3" class="node"><title>Node2</title>
<a xlink:href="classGeometry_1_1IndexedPrimitiveSet.html" target="_top" xlink:title="Geometry::IndexedPrimitiveSet">
<polygon fill="white" stroke="black" points="156.5,-40.5 156.5,-61.5 309.5,-61.5 309.5,-40.5 156.5,-40.5"/>
<text text-anchor="middle" x="233" y="-48.5" font-family="Helvetica,sans-Serif" font-size="10.00">Geometry::IndexedPrimitiveSet</text>
</a>
</g>
<!-- Node1&#45;&gt;Node2 -->
<g id="edge2" class="edge"><title>Node1&#45;&gt;Node2</title>
<path fill="none" stroke="midnightblue" d="M129.67,-39.0544C138.415,-40.0653 147.398,-41.1039 156.244,-42.1265"/>
<polygon fill="midnightblue" stroke="midnightblue" points="129.873,-35.5545 119.537,-37.8829 129.069,-42.5082 129.873,-35.5545"/>
</g>
<!-- Node4 -->
<g id="node7" class="node"><title>Node4</title>
<a xlink:href="classGeometry_1_1RangePrimitiveSet.html" target="_top" xlink:title="Geometry::RangePrimitiveSet">
<polygon fill="white" stroke="black" points="159.5,-0.5 159.5,-21.5 306.5,-21.5 306.5,-0.5 159.5,-0.5"/>
<text text-anchor="middle" x="233" y="-8.5" font-family="Helvetica,sans-Serif" font-size="10.00">Geometry::RangePrimitiveSet</text>
</a>
</g>
<!-- Node1&#45;&gt;Node4 -->
<g id="edge6" class="edge"><title>Node1&#45;&gt;Node4</title>
<path fill="none" stroke="midnightblue" d="M129.592,-22.9546C139.367,-21.8246 149.441,-20.66 159.289,-19.5215"/>
<polygon fill="midnightblue" stroke="midnightblue" points="129.069,-19.4918 119.537,-24.1171 129.873,-26.4455 129.069,-19.4918"/>
</g>
<!-- Node3 -->
<g id="node5" class="node"><title>Node3</title>
<a xlink:href="classGeometry_1_1IndexedPrimitiveSetImpl.html" target="_top" xlink:title="Geometry::IndexedPrimitive\lSetImpl">
<polygon fill="white" stroke="black" points="346,-34 346,-68 484,-68 484,-34 346,-34"/>
<text text-anchor="start" x="354" y="-55" font-family="Helvetica,sans-Serif" font-size="10.00">Geometry::IndexedPrimitive</text>
<text text-anchor="middle" x="415" y="-42" font-family="Helvetica,sans-Serif" font-size="10.00">SetImpl</text>
</a>
</g>
<!-- Node2&#45;&gt;Node3 -->
<g id="edge4" class="edge"><title>Node2&#45;&gt;Node3</title>
<path fill="none" stroke="midnightblue" d="M319.883,-51C328.631,-51 337.429,-51 345.954,-51"/>
<polygon fill="midnightblue" stroke="midnightblue" points="319.657,-47.5001 309.657,-51 319.657,-54.5001 319.657,-47.5001"/>
</g>
</g>
</svg>
