<?xml version="1.0" encoding="UTF-8" standalone="no"?>
<!DOCTYPE svg PUBLIC "-//W3C//DTD SVG 1.1//EN"
 "http://www.w3.org/Graphics/SVG/1.1/DTD/svg11.dtd">
<!-- Generated by graphviz version 2.26.0 (20091210.2329)
 -->
<!-- Title: Graphical Class Hierarchy Pages: 1 -->
<svg width="356pt" height="110pt"
 viewBox="0.00 0.00 356.00 110.00" xmlns="http://www.w3.org/2000/svg" xmlns:xlink="http://www.w3.org/1999/xlink">
<g id="graph1" class="graph" transform="scale(1 1) rotate(0) translate(4 106)">
<title>Graphical Class Hierarchy</title>
<polygon fill="white" stroke="white" points="-4,5 -4,-106 353,-106 353,5 -4,5"/>
<!-- Node1 -->
<g id="node1" class="node"><title>Node1</title>
<a xlink:href="structTable_1_1Converter_1_1RowManipulator.html" target="_top" xlink:title="Table::Converter::RowManipulator">
<polygon fill="white" stroke="black" points="0,-40.5 0,-61.5 166,-61.5 166,-40.5 0,-40.5"/>
<text text-anchor="middle" x="83" y="-48.5" font-family="Helvetica,sans-Serif" font-size="10.00">Table::Converter::RowManipulator</text>
</a>
</g>
<!-- Node2 -->
<g id="node3" class="node"><title>Node2</title>
<a xlink:href="classTable_1_1DuplicateKeyRemover.html" target="_top" xlink:title="Removes records with identical keys. ">
<polygon fill="white" stroke="black" points="202.5,-80.5 202.5,-101.5 347.5,-101.5 347.5,-80.5 202.5,-80.5"/>
<text text-anchor="middle" x="275" y="-88.5" font-family="Helvetica,sans-Serif" font-size="10.00">Table::DuplicateKeyRemover</text>
</a>
</g>
<!-- Node1&#45;&gt;Node2 -->
<g id="edge2" class="edge"><title>Node1&#45;&gt;Node2</title>
<path fill="none" stroke="midnightblue" d="M143.24,-63.55C169.374,-68.9946 199.633,-75.2986 224.558,-80.4913"/>
<polygon fill="midnightblue" stroke="midnightblue" points="143.949,-60.1227 133.446,-61.5095 142.522,-66.9756 143.949,-60.1227"/>
</g>
<!-- Node3 -->
<g id="node5" class="node"><title>Node3</title>
<a xlink:href="classTable_1_1RecordMatcher.html" target="_top" xlink:title="Only passes records where col(s) (don&#39;t) match expression(s) ">
<polygon fill="white" stroke="black" points="218.5,-40.5 218.5,-61.5 331.5,-61.5 331.5,-40.5 218.5,-40.5"/>
<text text-anchor="middle" x="275" y="-48.5" font-family="Helvetica,sans-Serif" font-size="10.00">Table::RecordMatcher</text>
</a>
</g>
<!-- Node1&#45;&gt;Node3 -->
<g id="edge4" class="edge"><title>Node1&#45;&gt;Node3</title>
<path fill="none" stroke="midnightblue" d="M176.48,-51C190.781,-51 205.157,-51 218.337,-51"/>
<polygon fill="midnightblue" stroke="midnightblue" points="176.097,-47.5001 166.097,-51 176.097,-54.5001 176.097,-47.5001"/>
</g>
<!-- Node4 -->
<g id="node7" class="node"><title>Node4</title>
<a xlink:href="classTable_1_1StartStopManipulator.html" target="_top" xlink:title="Removes lines at start or stop of input. ">
<polygon fill="white" stroke="black" points="206,-0.5 206,-21.5 344,-21.5 344,-0.5 206,-0.5"/>
<text text-anchor="middle" x="275" y="-8.5" font-family="Helvetica,sans-Serif" font-size="10.00">Table::StartStopManipulator</text>
</a>
</g>
<!-- Node1&#45;&gt;Node4 -->
<g id="edge6" class="edge"><title>Node1&#45;&gt;Node4</title>
<path fill="none" stroke="midnightblue" d="M143.24,-38.45C169.374,-33.0054 199.633,-26.7014 224.558,-21.5087"/>
<polygon fill="midnightblue" stroke="midnightblue" points="142.522,-35.0244 133.446,-40.4905 143.949,-41.8773 142.522,-35.0244"/>
</g>
</g>
</svg>
