<?xml version="1.0" encoding="UTF-8" standalone="no"?>
<!DOCTYPE svg PUBLIC "-//W3C//DTD SVG 1.1//EN"
 "http://www.w3.org/Graphics/SVG/1.1/DTD/svg11.dtd">
<!-- Generated by graphviz version 2.26.0 (20091210.2329)
 -->
<!-- Title: Graphical Class Hierarchy Pages: 1 -->
<svg width="258pt" height="150pt"
 viewBox="0.00 0.00 258.00 150.00" xmlns="http://www.w3.org/2000/svg" xmlns:xlink="http://www.w3.org/1999/xlink">
<g id="graph1" class="graph" transform="scale(1 1) rotate(0) translate(4 146)">
<title>Graphical Class Hierarchy</title>
<polygon fill="white" stroke="white" points="-4,5 -4,-146 255,-146 255,5 -4,5"/>
<!-- Node1 -->
<g id="node1" class="node"><title>Node1</title>
<a xlink:href="classuiSurvInfoProvider.html" target="_top" xlink:title="uiSurvInfoProvider">
<polygon fill="white" stroke="black" points="0.5,-60.5 0.5,-81.5 97.5,-81.5 97.5,-60.5 0.5,-60.5"/>
<text text-anchor="middle" x="49" y="-68.5" font-family="Helvetica,sans-Serif" font-size="10.00">uiSurvInfoProvider</text>
</a>
</g>
<!-- Node2 -->
<g id="node3" class="node"><title>Node2</title>
<a xlink:href="classui2DSurvInfoProvider.html" target="_top" xlink:title="ui2DSurvInfoProvider">
<polygon fill="white" stroke="black" points="137,-120.5 137,-141.5 247,-141.5 247,-120.5 137,-120.5"/>
<text text-anchor="middle" x="192" y="-128.5" font-family="Helvetica,sans-Serif" font-size="10.00">ui2DSurvInfoProvider</text>
</a>
</g>
<!-- Node1&#45;&gt;Node2 -->
<g id="edge2" class="edge"><title>Node1&#45;&gt;Node2</title>
<path fill="none" stroke="midnightblue" d="M79.4393,-86.2997C95.4855,-94.1153 115.606,-103.526 134,-111 142.092,-114.288 150.95,-117.521 159.255,-120.398"/>
<polygon fill="midnightblue" stroke="midnightblue" points="80.5449,-82.9432 70.0267,-81.6711 77.4559,-89.2248 80.5449,-82.9432"/>
</g>
<!-- Node3 -->
<g id="node5" class="node"><title>Node3</title>
<a xlink:href="classuiCopySurveySIP.html" target="_top" xlink:title="uiCopySurveySIP">
<polygon fill="white" stroke="black" points="144.5,-80.5 144.5,-101.5 239.5,-101.5 239.5,-80.5 144.5,-80.5"/>
<text text-anchor="middle" x="192" y="-88.5" font-family="Helvetica,sans-Serif" font-size="10.00">uiCopySurveySIP</text>
</a>
</g>
<!-- Node1&#45;&gt;Node3 -->
<g id="edge4" class="edge"><title>Node1&#45;&gt;Node3</title>
<path fill="none" stroke="midnightblue" d="M107.871,-79.2337C120.025,-80.9336 132.681,-82.7037 144.375,-84.3392"/>
<polygon fill="midnightblue" stroke="midnightblue" points="108.201,-75.7459 97.8125,-77.8269 107.231,-82.6784 108.201,-75.7459"/>
</g>
<!-- Node4 -->
<g id="node7" class="node"><title>Node4</title>
<a xlink:href="classuiNavSurvInfoProvider.html" target="_top" xlink:title="uiNavSurvInfoProvider">
<polygon fill="white" stroke="black" points="134.5,-40.5 134.5,-61.5 249.5,-61.5 249.5,-40.5 134.5,-40.5"/>
<text text-anchor="middle" x="192" y="-48.5" font-family="Helvetica,sans-Serif" font-size="10.00">uiNavSurvInfoProvider</text>
</a>
</g>
<!-- Node1&#45;&gt;Node4 -->
<g id="edge6" class="edge"><title>Node1&#45;&gt;Node4</title>
<path fill="none" stroke="midnightblue" d="M107.824,-62.7728C116.48,-61.5623 125.391,-60.3159 134.03,-59.1077"/>
<polygon fill="midnightblue" stroke="midnightblue" points="107.231,-59.3216 97.8125,-64.1731 108.201,-66.2541 107.231,-59.3216"/>
</g>
<!-- Node5 -->
<g id="node9" class="node"><title>Node5</title>
<a xlink:href="classuiSurveyFileSIP.html" target="_top" xlink:title="uiSurveyFileSIP">
<polygon fill="white" stroke="black" points="148.5,-0.5 148.5,-21.5 235.5,-21.5 235.5,-0.5 148.5,-0.5"/>
<text text-anchor="middle" x="192" y="-8.5" font-family="Helvetica,sans-Serif" font-size="10.00">uiSurveyFileSIP</text>
</a>
</g>
<!-- Node1&#45;&gt;Node5 -->
<g id="edge8" class="edge"><title>Node1&#45;&gt;Node5</title>
<path fill="none" stroke="midnightblue" d="M79.4393,-55.7003C95.4855,-47.8847 115.606,-38.4738 134,-31 142.092,-27.7121 150.95,-24.4786 159.255,-21.6018"/>
<polygon fill="midnightblue" stroke="midnightblue" points="77.4559,-52.7752 70.0267,-60.3289 80.5449,-59.0568 77.4559,-52.7752"/>
</g>
</g>
</svg>
