<?xml version="1.0" encoding="UTF-8" standalone="no"?>
<!DOCTYPE svg PUBLIC "-//W3C//DTD SVG 1.1//EN"
 "http://www.w3.org/Graphics/SVG/1.1/DTD/svg11.dtd">
<!-- Generated by graphviz version 2.26.0 (20091210.2329)
 -->
<!-- Title: Graphical Class Hierarchy Pages: 1 -->
<svg width="306pt" height="70pt"
 viewBox="0.00 0.00 306.00 70.00" xmlns="http://www.w3.org/2000/svg" xmlns:xlink="http://www.w3.org/1999/xlink">
<g id="graph1" class="graph" transform="scale(1 1) rotate(0) translate(4 66)">
<title>Graphical Class Hierarchy</title>
<polygon fill="white" stroke="white" points="-4,5 -4,-66 303,-66 303,5 -4,5"/>
<!-- Node1 -->
<g id="node1" class="node"><title>Node1</title>
<a xlink:href="classBatch_1_1ClusterProgDef.html" target="_top" xlink:title="Base class for Cluster prog definitions. ">
<polygon fill="white" stroke="black" points="0,-20.5 0,-41.5 116,-41.5 116,-20.5 0,-20.5"/>
<text text-anchor="middle" x="58" y="-28.5" font-family="Helvetica,sans-Serif" font-size="10.00">Batch::ClusterProgDef</text>
</a>
</g>
<!-- Node2 -->
<g id="node3" class="node"><title>Node2</title>
<a xlink:href="classBatch_1_1SimpleClusterProgDef.html" target="_top" xlink:title="Batch::SimpleClusterProgDef">
<polygon fill="white" stroke="black" points="152,-40.5 152,-61.5 298,-61.5 298,-40.5 152,-40.5"/>
<text text-anchor="middle" x="225" y="-48.5" font-family="Helvetica,sans-Serif" font-size="10.00">Batch::SimpleClusterProgDef</text>
</a>
</g>
<!-- Node1&#45;&gt;Node2 -->
<g id="edge2" class="edge"><title>Node1&#45;&gt;Node2</title>
<path fill="none" stroke="midnightblue" d="M126.511,-39.2049C134.897,-40.2092 143.491,-41.2385 151.941,-42.2504"/>
<polygon fill="midnightblue" stroke="midnightblue" points="126.754,-35.7091 116.408,-37.995 125.921,-42.6594 126.754,-35.7091"/>
</g>
<!-- Node3 -->
<g id="node5" class="node"><title>Node3</title>
<a xlink:href="classBatch_1_1VolClusterProgDef.html" target="_top" xlink:title="Batch::VolClusterProgDef">
<polygon fill="white" stroke="black" points="160,-0.5 160,-21.5 290,-21.5 290,-0.5 160,-0.5"/>
<text text-anchor="middle" x="225" y="-8.5" font-family="Helvetica,sans-Serif" font-size="10.00">Batch::VolClusterProgDef</text>
</a>
</g>
<!-- Node1&#45;&gt;Node3 -->
<g id="edge4" class="edge"><title>Node1&#45;&gt;Node3</title>
<path fill="none" stroke="midnightblue" d="M126.411,-22.8071C137.439,-21.4864 148.83,-20.1222 159.78,-18.8108"/>
<polygon fill="midnightblue" stroke="midnightblue" points="125.921,-19.3406 116.408,-24.005 126.754,-26.2909 125.921,-19.3406"/>
</g>
</g>
</svg>
