<?xml version="1.0" encoding="UTF-8" standalone="no"?>
<!DOCTYPE svg PUBLIC "-//W3C//DTD SVG 1.1//EN"
 "http://www.w3.org/Graphics/SVG/1.1/DTD/svg11.dtd">
<!-- Generated by graphviz version 2.26.0 (20091210.2329)
 -->
<!-- Title: Graphical Class Hierarchy Pages: 1 -->
<svg width="310pt" height="42pt"
 viewBox="0.00 0.00 310.00 42.00" xmlns="http://www.w3.org/2000/svg" xmlns:xlink="http://www.w3.org/1999/xlink">
<g id="graph1" class="graph" transform="scale(1 1) rotate(0) translate(4 38)">
<title>Graphical Class Hierarchy</title>
<polygon fill="white" stroke="white" points="-4,5 -4,-38 307,-38 307,5 -4,5"/>
<!-- Node1 -->
<g id="node1" class="node"><title>Node1</title>
<a xlink:href="classPtrManBase.html" target="_top" xlink:title="PtrManBase\&lt; Geometry\l::PrimitiveSetCreator \&gt;">
<polygon fill="white" stroke="black" points="0,-0 0,-34 122,-34 122,-0 0,-0"/>
<text text-anchor="start" x="8" y="-21" font-family="Helvetica,sans-Serif" font-size="10.00">PtrManBase&lt; Geometry</text>
<text text-anchor="middle" x="61" y="-8" font-family="Helvetica,sans-Serif" font-size="10.00">::PrimitiveSetCreator &gt;</text>
</a>
</g>
<!-- Node2 -->
<g id="node3" class="node"><title>Node2</title>
<a xlink:href="classPtrMan.html" target="_top" xlink:title="PtrMan\&lt; Geometry::Primitive\lSetCreator \&gt;">
<polygon fill="white" stroke="black" points="158,-0 158,-34 302,-34 302,-0 158,-0"/>
<text text-anchor="start" x="166" y="-21" font-family="Helvetica,sans-Serif" font-size="10.00">PtrMan&lt; Geometry::Primitive</text>
<text text-anchor="middle" x="230" y="-8" font-family="Helvetica,sans-Serif" font-size="10.00">SetCreator &gt;</text>
</a>
</g>
<!-- Node1&#45;&gt;Node2 -->
<g id="edge2" class="edge"><title>Node1&#45;&gt;Node2</title>
<path fill="none" stroke="midnightblue" d="M132.236,-17C140.71,-17 149.367,-17 157.854,-17"/>
<polygon fill="midnightblue" stroke="midnightblue" points="132.013,-13.5001 122.013,-17 132.013,-20.5001 132.013,-13.5001"/>
</g>
</g>
</svg>
