<?xml version="1.0" encoding="UTF-8" standalone="no"?>
<!DOCTYPE svg PUBLIC "-//W3C//DTD SVG 1.1//EN"
 "http://www.w3.org/Graphics/SVG/1.1/DTD/svg11.dtd">
<!-- Generated by graphviz version 2.26.0 (20091210.2329)
 -->
<!-- Title: Graphical Class Hierarchy Pages: 1 -->
<svg width="362pt" height="1190pt"
 viewBox="0.00 0.00 362.00 1190.00" xmlns="http://www.w3.org/2000/svg" xmlns:xlink="http://www.w3.org/1999/xlink">
<g id="graph1" class="graph" transform="scale(1 1) rotate(0) translate(4 1186)">
<title>Graphical Class Hierarchy</title>
<polygon fill="white" stroke="white" points="-4,5 -4,-1186 359,-1186 359,5 -4,5"/>
<!-- Node1 -->
<g id="node1" class="node"><title>Node1</title>
<a xlink:href="classAttrib_1_1Provider.html" target="_top" xlink:title="Provides the actual output to ... ">
<polygon fill="white" stroke="black" points="0,-580.5 0,-601.5 82,-601.5 82,-580.5 0,-580.5"/>
<text text-anchor="middle" x="41" y="-588.5" font-family="Helvetica,sans-Serif" font-size="10.00">Attrib::Provider</text>
</a>
</g>
<!-- Node2 -->
<g id="node3" class="node"><title>Node2</title>
<a xlink:href="classAttrib_1_1Coherency.html" target="_top" xlink:title="Calculates coherency. ">
<polygon fill="white" stroke="black" points="129.5,-1160.5 129.5,-1181.5 222.5,-1181.5 222.5,-1160.5 129.5,-1160.5"/>
<text text-anchor="middle" x="176" y="-1168.5" font-family="Helvetica,sans-Serif" font-size="10.00">Attrib::Coherency</text>
</a>
</g>
<!-- Node1&#45;&gt;Node2 -->
<g id="edge2" class="edge"><title>Node1&#45;&gt;Node2</title>
<path fill="none" stroke="midnightblue" d="M42.5864,-611.951C50.0743,-708.583 82.9822,-1108.37 118,-1151 121.11,-1154.79 124.975,-1157.86 129.223,-1160.35"/>
<polygon fill="midnightblue" stroke="midnightblue" points="46.0558,-611.416 41.8009,-601.714 39.0763,-611.952 46.0558,-611.416"/>
</g>
<!-- Node3 -->
<g id="node5" class="node"><title>Node3</title>
<a xlink:href="classAttrib_1_1Convolve.html" target="_top" xlink:title="Convolution Attribute. ">
<polygon fill="white" stroke="black" points="132.5,-1120.5 132.5,-1141.5 219.5,-1141.5 219.5,-1120.5 132.5,-1120.5"/>
<text text-anchor="middle" x="176" y="-1128.5" font-family="Helvetica,sans-Serif" font-size="10.00">Attrib::Convolve</text>
</a>
</g>
<!-- Node1&#45;&gt;Node3 -->
<g id="edge4" class="edge"><title>Node1&#45;&gt;Node3</title>
<path fill="none" stroke="midnightblue" d="M41.2891,-611.919C42.9044,-699.155 53.2849,-1033.05 118,-1111 121.878,-1115.67 126.904,-1119.25 132.376,-1122"/>
<polygon fill="midnightblue" stroke="midnightblue" points="44.7852,-611.647 41.1204,-601.706 37.7861,-611.763 44.7852,-611.647"/>
</g>
<!-- Node4 -->
<g id="node7" class="node"><title>Node4</title>
<a xlink:href="classAttrib_1_1DeltaResample.html" target="_top" xlink:title="Resamples the trace at shifted locations. ">
<polygon fill="white" stroke="black" points="119.5,-1080.5 119.5,-1101.5 232.5,-1101.5 232.5,-1080.5 119.5,-1080.5"/>
<text text-anchor="middle" x="176" y="-1088.5" font-family="Helvetica,sans-Serif" font-size="10.00">Attrib::DeltaResample</text>
</a>
</g>
<!-- Node1&#45;&gt;Node4 -->
<g id="edge6" class="edge"><title>Node1&#45;&gt;Node4</title>
<path fill="none" stroke="midnightblue" d="M41.5733,-611.883C44.2559,-694.798 58.1008,-999.726 118,-1071 121.221,-1074.83 125.214,-1077.93 129.587,-1080.44"/>
<polygon fill="midnightblue" stroke="midnightblue" points="45.0662,-611.593 41.2652,-601.704 38.0694,-611.805 45.0662,-611.593"/>
</g>
<!-- Node5 -->
<g id="node9" class="node"><title>Node5</title>
<a xlink:href="classAttrib_1_1DipFilter.html" target="_top" xlink:title="Dip filtering Attribute. ">
<polygon fill="white" stroke="black" points="134.5,-1040.5 134.5,-1061.5 217.5,-1061.5 217.5,-1040.5 134.5,-1040.5"/>
<text text-anchor="middle" x="176" y="-1048.5" font-family="Helvetica,sans-Serif" font-size="10.00">Attrib::DipFilter</text>
</a>
</g>
<!-- Node1&#45;&gt;Node5 -->
<g id="edge8" class="edge"><title>Node1&#45;&gt;Node5</title>
<path fill="none" stroke="midnightblue" d="M41.8965,-611.633C45.6897,-689.766 62.8518,-966.316 118,-1031 122.354,-1036.11 128.077,-1039.91 134.232,-1042.74"/>
<polygon fill="midnightblue" stroke="midnightblue" points="45.3905,-611.421 41.4309,-601.594 38.398,-611.745 45.3905,-611.421"/>
</g>
<!-- Node6 -->
<g id="node11" class="node"><title>Node6</title>
<a xlink:href="classAttrib_1_1Energy.html" target="_top" xlink:title="Energy Attribute ">
<polygon fill="white" stroke="black" points="137.5,-1000.5 137.5,-1021.5 214.5,-1021.5 214.5,-1000.5 137.5,-1000.5"/>
<text text-anchor="middle" x="176" y="-1008.5" font-family="Helvetica,sans-Serif" font-size="10.00">Attrib::Energy</text>
</a>
</g>
<!-- Node1&#45;&gt;Node6 -->
<g id="edge10" class="edge"><title>Node1&#45;&gt;Node6</title>
<path fill="none" stroke="midnightblue" d="M42.3235,-612.092C47.3754,-686.166 67.7497,-933.062 118,-991 123.095,-996.874 130,-1001.02 137.269,-1003.96"/>
<polygon fill="midnightblue" stroke="midnightblue" points="45.7916,-611.491 41.6421,-601.743 38.8068,-611.951 45.7916,-611.491"/>
</g>
<!-- Node7 -->
<g id="node13" class="node"><title>Node7</title>
<a xlink:href="classAttrib_1_1Evaluate.html" target="_top" xlink:title="Evaluate Attribute ">
<polygon fill="white" stroke="black" points="134,-960.5 134,-981.5 218,-981.5 218,-960.5 134,-960.5"/>
<text text-anchor="middle" x="176" y="-968.5" font-family="Helvetica,sans-Serif" font-size="10.00">Attrib::Evaluate</text>
</a>
</g>
<!-- Node1&#45;&gt;Node7 -->
<g id="edge12" class="edge"><title>Node1&#45;&gt;Node7</title>
<path fill="none" stroke="midnightblue" d="M42.785,-611.758C49.093,-680.542 72.4458,-899.553 118,-951 122.307,-955.864 127.855,-959.546 133.807,-962.333"/>
<polygon fill="midnightblue" stroke="midnightblue" points="46.2645,-611.371 41.8891,-601.722 39.2922,-611.993 46.2645,-611.371"/>
</g>
<!-- Node8 -->
<g id="node15" class="node"><title>Node8</title>
<a xlink:href="classAttrib_1_1Event.html" target="_top" xlink:title="Event attribute ">
<polygon fill="white" stroke="black" points="140.5,-920.5 140.5,-941.5 211.5,-941.5 211.5,-920.5 140.5,-920.5"/>
<text text-anchor="middle" x="176" y="-928.5" font-family="Helvetica,sans-Serif" font-size="10.00">Attrib::Event</text>
</a>
</g>
<!-- Node1&#45;&gt;Node8 -->
<g id="edge14" class="edge"><title>Node1&#45;&gt;Node8</title>
<path fill="none" stroke="midnightblue" d="M43.3535,-611.482C51.0155,-674.829 77.1336,-866.013 118,-911 123.944,-917.544 132.131,-921.947 140.481,-924.909"/>
<polygon fill="midnightblue" stroke="midnightblue" points="46.8248,-611.033 42.1738,-601.514 39.8733,-611.856 46.8248,-611.033"/>
</g>
<!-- Node9 -->
<g id="node17" class="node"><title>Node9</title>
<a xlink:href="classAttrib_1_1FingerPrint.html" target="_top" xlink:title="FingerPrint Attribute Calculates the match with a definite vector. ">
<polygon fill="white" stroke="black" points="129.5,-880.5 129.5,-901.5 222.5,-901.5 222.5,-880.5 129.5,-880.5"/>
<text text-anchor="middle" x="176" y="-888.5" font-family="Helvetica,sans-Serif" font-size="10.00">Attrib::FingerPrint</text>
</a>
</g>
<!-- Node1&#45;&gt;Node9 -->
<g id="edge16" class="edge"><title>Node1&#45;&gt;Node9</title>
<path fill="none" stroke="midnightblue" d="M44.1797,-611.911C53.4244,-670.17 81.9408,-832.568 118,-871 121.571,-874.806 125.9,-877.888 130.566,-880.383"/>
<polygon fill="midnightblue" stroke="midnightblue" points="47.589,-611.057 42.5912,-601.715 40.6725,-612.135 47.589,-611.057"/>
</g>
<!-- Node10 -->
<g id="node19" class="node"><title>Node10</title>
<a xlink:href="classAttrib_1_1FreqFilter.html" target="_top" xlink:title="Frequency filtering attribute. ">
<polygon fill="white" stroke="black" points="132.5,-840.5 132.5,-861.5 219.5,-861.5 219.5,-840.5 132.5,-840.5"/>
<text text-anchor="middle" x="176" y="-848.5" font-family="Helvetica,sans-Serif" font-size="10.00">Attrib::FreqFilter</text>
</a>
</g>
<!-- Node1&#45;&gt;Node10 -->
<g id="edge18" class="edge"><title>Node1&#45;&gt;Node10</title>
<path fill="none" stroke="midnightblue" d="M45.1473,-611.638C55.9972,-663.767 86.5635,-798.877 118,-831 122.097,-835.187 127.111,-838.498 132.459,-841.116"/>
<polygon fill="midnightblue" stroke="midnightblue" points="48.5218,-610.67 43.0848,-601.576 41.6644,-612.076 48.5218,-610.67"/>
</g>
<!-- Node11 -->
<g id="node21" class="node"><title>Node11</title>
<a xlink:href="classAttrib_1_1Frequency.html" target="_top" xlink:title="Frequency Attribute. ">
<polygon fill="white" stroke="black" points="130,-800.5 130,-821.5 222,-821.5 222,-800.5 130,-800.5"/>
<text text-anchor="middle" x="176" y="-808.5" font-family="Helvetica,sans-Serif" font-size="10.00">Attrib::Frequency</text>
</a>
</g>
<!-- Node1&#45;&gt;Node11 -->
<g id="edge20" class="edge"><title>Node1&#45;&gt;Node11</title>
<path fill="none" stroke="midnightblue" d="M43.241,-611.826C48.6632,-652.064 66.1223,-740.929 118,-791 121.985,-794.846 126.745,-797.955 131.799,-800.468"/>
<polygon fill="midnightblue" stroke="midnightblue" points="46.7073,-611.337 42.0123,-601.839 39.7597,-612.192 46.7073,-611.337"/>
</g>
<!-- Node12 -->
<g id="node23" class="node"><title>Node12</title>
<a xlink:href="classAttrib_1_1GapDecon.html" target="_top" xlink:title="Gap deconvolution attribute. ">
<polygon fill="white" stroke="black" points="130,-760.5 130,-781.5 222,-781.5 222,-760.5 130,-760.5"/>
<text text-anchor="middle" x="176" y="-768.5" font-family="Helvetica,sans-Serif" font-size="10.00">Attrib::GapDecon</text>
</a>
</g>
<!-- Node1&#45;&gt;Node12 -->
<g id="edge22" class="edge"><title>Node1&#45;&gt;Node12</title>
<path fill="none" stroke="midnightblue" d="M45.518,-611.81C53.9319,-645.709 75.1699,-712.889 118,-751 122.297,-754.823 127.362,-757.924 132.679,-760.436"/>
<polygon fill="midnightblue" stroke="midnightblue" points="48.8333,-610.617 43.1435,-601.679 42.018,-612.214 48.8333,-610.617"/>
</g>
<!-- Node13 -->
<g id="node25" class="node"><title>Node13</title>
<a xlink:href="classAttrib_1_1Hilbert.html" target="_top" xlink:title="Calculates Hilbert transform. ">
<polygon fill="white" stroke="black" points="139,-720.5 139,-741.5 213,-741.5 213,-720.5 139,-720.5"/>
<text text-anchor="middle" x="176" y="-728.5" font-family="Helvetica,sans-Serif" font-size="10.00">Attrib::Hilbert</text>
</a>
</g>
<!-- Node1&#45;&gt;Node13 -->
<g id="edge24" class="edge"><title>Node1&#45;&gt;Node13</title>
<path fill="none" stroke="midnightblue" d="M48.8866,-611.089C60.2843,-637.624 83.8112,-684.126 118,-711 124.113,-715.805 131.456,-719.496 138.83,-722.318"/>
<polygon fill="midnightblue" stroke="midnightblue" points="52.0477,-609.574 44.9923,-601.671 45.5789,-612.249 52.0477,-609.574"/>
</g>
<!-- Node14 -->
<g id="node27" class="node"><title>Node14</title>
<a xlink:href="classAttrib_1_1Instantaneous.html" target="_top" xlink:title="Instantaneous Attribute ">
<polygon fill="white" stroke="black" points="122.5,-680.5 122.5,-701.5 229.5,-701.5 229.5,-680.5 122.5,-680.5"/>
<text text-anchor="middle" x="176" y="-688.5" font-family="Helvetica,sans-Serif" font-size="10.00">Attrib::Instantaneous</text>
</a>
</g>
<!-- Node1&#45;&gt;Node14 -->
<g id="edge26" class="edge"><title>Node1&#45;&gt;Node14</title>
<path fill="none" stroke="midnightblue" d="M54.6647,-609.653C68.7246,-627.644 92.1694,-654.506 118,-671 123.835,-674.726 130.446,-677.849 137.063,-680.436"/>
<polygon fill="midnightblue" stroke="midnightblue" points="57.3896,-607.455 48.5471,-601.618 51.8202,-611.695 57.3896,-607.455"/>
</g>
<!-- Node15 -->
<g id="node29" class="node"><title>Node15</title>
<a xlink:href="classAttrib_1_1MatchDelta.html" target="_top" xlink:title="Computes the match delta between two cubes. Ties Max events to each other. ">
<polygon fill="white" stroke="black" points="128,-640.5 128,-661.5 224,-661.5 224,-640.5 128,-640.5"/>
<text text-anchor="middle" x="176" y="-648.5" font-family="Helvetica,sans-Serif" font-size="10.00">Attrib::MatchDelta</text>
</a>
</g>
<!-- Node1&#45;&gt;Node15 -->
<g id="edge28" class="edge"><title>Node1&#45;&gt;Node15</title>
<path fill="none" stroke="midnightblue" d="M68.5364,-606.56C83.0114,-614.416 101.195,-623.784 118,-631 125.83,-634.362 134.43,-637.576 142.554,-640.406"/>
<polygon fill="midnightblue" stroke="midnightblue" points="70.0609,-603.404 59.6117,-601.654 66.6887,-609.538 70.0609,-603.404"/>
</g>
<!-- Node16 -->
<g id="node31" class="node"><title>Node16</title>
<a xlink:href="classAttrib_1_1Mathematics.html" target="_top" xlink:title="Math Attribute ">
<polygon fill="white" stroke="black" points="125,-600.5 125,-621.5 227,-621.5 227,-600.5 125,-600.5"/>
<text text-anchor="middle" x="176" y="-608.5" font-family="Helvetica,sans-Serif" font-size="10.00">Attrib::Mathematics</text>
</a>
</g>
<!-- Node1&#45;&gt;Node16 -->
<g id="edge30" class="edge"><title>Node1&#45;&gt;Node16</title>
<path fill="none" stroke="midnightblue" d="M92.1765,-598.582C102.763,-600.15 113.92,-601.803 124.517,-603.373"/>
<polygon fill="midnightblue" stroke="midnightblue" points="92.643,-595.113 82.238,-597.109 91.6171,-602.037 92.643,-595.113"/>
</g>
<!-- Node17 -->
<g id="node33" class="node"><title>Node17</title>
<a xlink:href="classAttrib_1_1Position.html" target="_top" xlink:title="Position Attribute. ">
<polygon fill="white" stroke="black" points="135.5,-560.5 135.5,-581.5 216.5,-581.5 216.5,-560.5 135.5,-560.5"/>
<text text-anchor="middle" x="176" y="-568.5" font-family="Helvetica,sans-Serif" font-size="10.00">Attrib::Position</text>
</a>
</g>
<!-- Node1&#45;&gt;Node17 -->
<g id="edge32" class="edge"><title>Node1&#45;&gt;Node17</title>
<path fill="none" stroke="midnightblue" d="M92.4012,-583.385C106.66,-581.273 121.936,-579.009 135.478,-577.003"/>
<polygon fill="midnightblue" stroke="midnightblue" points="91.6171,-579.963 82.238,-584.891 92.643,-586.887 91.6171,-579.963"/>
</g>
<!-- Node18 -->
<g id="node35" class="node"><title>Node18</title>
<a xlink:href="classAttrib_1_1PSAttrib.html" target="_top" xlink:title="&quot;Prestack Attribute&quot; ">
<polygon fill="white" stroke="black" points="134.5,-520.5 134.5,-541.5 217.5,-541.5 217.5,-520.5 134.5,-520.5"/>
<text text-anchor="middle" x="176" y="-528.5" font-family="Helvetica,sans-Serif" font-size="10.00">Attrib::PSAttrib</text>
</a>
</g>
<!-- Node1&#45;&gt;Node18 -->
<g id="edge34" class="edge"><title>Node1&#45;&gt;Node18</title>
<path fill="none" stroke="midnightblue" d="M68.5364,-575.44C83.0114,-567.584 101.195,-558.216 118,-551 125.83,-547.638 134.43,-544.424 142.554,-541.594"/>
<polygon fill="midnightblue" stroke="midnightblue" points="66.6887,-572.462 59.6117,-580.346 70.0609,-578.596 66.6887,-572.462"/>
</g>
<!-- Node19 -->
<g id="node37" class="node"><title>Node19</title>
<a xlink:href="classAttrib_1_1Reference.html" target="_top" xlink:title="Reference Attribute ">
<polygon fill="white" stroke="black" points="130.5,-480.5 130.5,-501.5 221.5,-501.5 221.5,-480.5 130.5,-480.5"/>
<text text-anchor="middle" x="176" y="-488.5" font-family="Helvetica,sans-Serif" font-size="10.00">Attrib::Reference</text>
</a>
</g>
<!-- Node1&#45;&gt;Node19 -->
<g id="edge36" class="edge"><title>Node1&#45;&gt;Node19</title>
<path fill="none" stroke="midnightblue" d="M54.6647,-572.347C68.7246,-554.356 92.1694,-527.494 118,-511 123.835,-507.274 130.446,-504.151 137.063,-501.564"/>
<polygon fill="midnightblue" stroke="midnightblue" points="51.8202,-570.305 48.5471,-580.382 57.3896,-574.545 51.8202,-570.305"/>
</g>
<!-- Node20 -->
<g id="node39" class="node"><title>Node20</title>
<a xlink:href="classAttrib_1_1Relief.html" target="_top" xlink:title="Pseudo Relief Attribute. ">
<polygon fill="white" stroke="black" points="140.5,-440.5 140.5,-461.5 211.5,-461.5 211.5,-440.5 140.5,-440.5"/>
<text text-anchor="middle" x="176" y="-448.5" font-family="Helvetica,sans-Serif" font-size="10.00">Attrib::Relief</text>
</a>
</g>
<!-- Node1&#45;&gt;Node20 -->
<g id="edge38" class="edge"><title>Node1&#45;&gt;Node20</title>
<path fill="none" stroke="midnightblue" d="M48.8866,-570.911C60.2843,-544.376 83.8112,-497.874 118,-471 124.532,-465.866 132.467,-462.003 140.345,-459.115"/>
<polygon fill="midnightblue" stroke="midnightblue" points="45.5789,-569.751 44.9923,-580.329 52.0477,-572.426 45.5789,-569.751"/>
</g>
<!-- Node21 -->
<g id="node41" class="node"><title>Node21</title>
<a xlink:href="classAttrib_1_1SampleValue.html" target="_top" xlink:title="Sample Value Attribute. ">
<polygon fill="white" stroke="black" points="124,-400.5 124,-421.5 228,-421.5 228,-400.5 124,-400.5"/>
<text text-anchor="middle" x="176" y="-408.5" font-family="Helvetica,sans-Serif" font-size="10.00">Attrib::SampleValue</text>
</a>
</g>
<!-- Node1&#45;&gt;Node21 -->
<g id="edge40" class="edge"><title>Node1&#45;&gt;Node21</title>
<path fill="none" stroke="midnightblue" d="M45.518,-570.19C53.9319,-536.291 75.1699,-469.111 118,-431 122.297,-427.177 127.362,-424.076 132.679,-421.564"/>
<polygon fill="midnightblue" stroke="midnightblue" points="42.018,-569.786 43.1435,-580.321 48.8333,-571.383 42.018,-569.786"/>
</g>
<!-- Node22 -->
<g id="node43" class="node"><title>Node22</title>
<a xlink:href="classAttrib_1_1Scaling.html" target="_top" xlink:title="Scaling Attribute Calculates the squared sum of the gate&#39;s samples divided by the number of samples i...">
<polygon fill="white" stroke="black" points="137,-360.5 137,-381.5 215,-381.5 215,-360.5 137,-360.5"/>
<text text-anchor="middle" x="176" y="-368.5" font-family="Helvetica,sans-Serif" font-size="10.00">Attrib::Scaling</text>
</a>
</g>
<!-- Node1&#45;&gt;Node22 -->
<g id="edge42" class="edge"><title>Node1&#45;&gt;Node22</title>
<path fill="none" stroke="midnightblue" d="M43.241,-570.174C48.6632,-529.936 66.1223,-441.071 118,-391 123.288,-385.896 129.939,-382.091 136.834,-379.254"/>
<polygon fill="midnightblue" stroke="midnightblue" points="39.7597,-569.808 42.0123,-580.161 46.7073,-570.663 39.7597,-569.808"/>
</g>
<!-- Node23 -->
<g id="node45" class="node"><title>Node23</title>
<a xlink:href="classAttrib_1_1Semblance.html" target="_top" xlink:title="Attrib::Semblance">
<polygon fill="white" stroke="black" points="128.5,-320.5 128.5,-341.5 223.5,-341.5 223.5,-320.5 128.5,-320.5"/>
<text text-anchor="middle" x="176" y="-328.5" font-family="Helvetica,sans-Serif" font-size="10.00">Attrib::Semblance</text>
</a>
</g>
<!-- Node1&#45;&gt;Node23 -->
<g id="edge44" class="edge"><title>Node1&#45;&gt;Node23</title>
<path fill="none" stroke="midnightblue" d="M45.1473,-570.362C55.9972,-518.233 86.5635,-383.123 118,-351 121.725,-347.194 126.207,-344.111 131.009,-341.615"/>
<polygon fill="midnightblue" stroke="midnightblue" points="41.6644,-569.924 43.0848,-580.424 48.5218,-571.33 41.6644,-569.924"/>
</g>
<!-- Node24 -->
<g id="node47" class="node"><title>Node24</title>
<a xlink:href="classAttrib_1_1Shift.html" target="_top" xlink:title="Shift Attribute Shift takes the input at a specified position and outputs it at other relative positi...">
<polygon fill="white" stroke="black" points="143,-280.5 143,-301.5 209,-301.5 209,-280.5 143,-280.5"/>
<text text-anchor="middle" x="176" y="-288.5" font-family="Helvetica,sans-Serif" font-size="10.00">Attrib::Shift</text>
</a>
</g>
<!-- Node1&#45;&gt;Node24 -->
<g id="edge46" class="edge"><title>Node1&#45;&gt;Node24</title>
<path fill="none" stroke="midnightblue" d="M44.1797,-570.089C53.4244,-511.83 81.9408,-349.432 118,-311 124.559,-304.009 133.675,-299.462 142.739,-296.504"/>
<polygon fill="midnightblue" stroke="midnightblue" points="40.6725,-569.865 42.5912,-580.285 47.589,-570.943 40.6725,-569.865"/>
</g>
<!-- Node25 -->
<g id="node49" class="node"><title>Node25</title>
<a xlink:href="classAttrib_1_1Similarity.html" target="_top" xlink:title="Similarity Attribute ">
<polygon fill="white" stroke="black" points="133,-240.5 133,-261.5 219,-261.5 219,-240.5 133,-240.5"/>
<text text-anchor="middle" x="176" y="-248.5" font-family="Helvetica,sans-Serif" font-size="10.00">Attrib::Similarity</text>
</a>
</g>
<!-- Node1&#45;&gt;Node25 -->
<g id="edge48" class="edge"><title>Node1&#45;&gt;Node25</title>
<path fill="none" stroke="midnightblue" d="M43.3535,-570.518C51.0155,-507.171 77.1336,-315.987 118,-271 122.082,-266.506 127.222,-263.022 132.746,-260.32"/>
<polygon fill="midnightblue" stroke="midnightblue" points="39.8733,-570.144 42.1738,-580.486 46.8248,-570.967 39.8733,-570.144"/>
</g>
<!-- Node26 -->
<g id="node51" class="node"><title>Node26</title>
<a xlink:href="classAttrib_1_1SpecDecomp.html" target="_top" xlink:title="Spectral Decomposition Attribute. ">
<polygon fill="white" stroke="black" points="123.5,-200.5 123.5,-221.5 228.5,-221.5 228.5,-200.5 123.5,-200.5"/>
<text text-anchor="middle" x="176" y="-208.5" font-family="Helvetica,sans-Serif" font-size="10.00">Attrib::SpecDecomp</text>
</a>
</g>
<!-- Node1&#45;&gt;Node26 -->
<g id="edge50" class="edge"><title>Node1&#45;&gt;Node26</title>
<path fill="none" stroke="midnightblue" d="M42.785,-570.242C49.093,-501.458 72.4458,-282.447 118,-231 121.389,-227.172 125.547,-224.077 130.065,-221.574"/>
<polygon fill="midnightblue" stroke="midnightblue" points="39.2922,-570.007 41.8891,-580.278 46.2645,-570.629 39.2922,-570.007"/>
</g>
<!-- Node27 -->
<g id="node53" class="node"><title>Node27</title>
<a xlink:href="classAttrib_1_1StorageProvider.html" target="_top" xlink:title="Attribute storage provider. ">
<polygon fill="white" stroke="black" points="118,-160.5 118,-181.5 234,-181.5 234,-160.5 118,-160.5"/>
<text text-anchor="middle" x="176" y="-168.5" font-family="Helvetica,sans-Serif" font-size="10.00">Attrib::StorageProvider</text>
</a>
</g>
<!-- Node1&#45;&gt;Node27 -->
<g id="edge52" class="edge"><title>Node1&#45;&gt;Node27</title>
<path fill="none" stroke="midnightblue" d="M42.3235,-569.908C47.3754,-495.834 67.7497,-248.938 118,-191 121.35,-187.138 125.483,-184.021 129.987,-181.505"/>
<polygon fill="midnightblue" stroke="midnightblue" points="38.8068,-570.049 41.6421,-580.257 45.7916,-570.509 38.8068,-570.049"/>
</g>
<!-- Node28 -->
<g id="node55" class="node"><title>Node28</title>
<a xlink:href="classAttrib_1_1Texture.html" target="_top" xlink:title="Attrib::Texture">
<polygon fill="white" stroke="black" points="136.5,-120.5 136.5,-141.5 215.5,-141.5 215.5,-120.5 136.5,-120.5"/>
<text text-anchor="middle" x="176" y="-128.5" font-family="Helvetica,sans-Serif" font-size="10.00">Attrib::Texture</text>
</a>
</g>
<!-- Node1&#45;&gt;Node28 -->
<g id="edge54" class="edge"><title>Node1&#45;&gt;Node28</title>
<path fill="none" stroke="midnightblue" d="M41.8965,-570.367C45.6897,-492.234 62.8518,-215.684 118,-151 122.837,-145.326 129.366,-141.26 136.299,-138.346"/>
<polygon fill="midnightblue" stroke="midnightblue" points="38.398,-570.255 41.4309,-580.406 45.3905,-570.579 38.398,-570.255"/>
</g>
<!-- Node29 -->
<g id="node57" class="node"><title>Node29</title>
<a xlink:href="classAttrib_1_1VolStatsBase.html" target="_top" xlink:title="Use VolStats instead. ">
<polygon fill="white" stroke="black" points="123,-80.5 123,-101.5 229,-101.5 229,-80.5 123,-80.5"/>
<text text-anchor="middle" x="176" y="-88.5" font-family="Helvetica,sans-Serif" font-size="10.00">Attrib::VolStatsBase</text>
</a>
</g>
<!-- Node1&#45;&gt;Node29 -->
<g id="edge56" class="edge"><title>Node1&#45;&gt;Node29</title>
<path fill="none" stroke="midnightblue" d="M41.5733,-570.117C44.2559,-487.202 58.1008,-182.274 118,-111 121.221,-107.168 125.214,-104.068 129.587,-101.562"/>
<polygon fill="midnightblue" stroke="midnightblue" points="38.0694,-570.195 41.2652,-580.296 45.0662,-570.407 38.0694,-570.195"/>
</g>
<!-- Node31 -->
<g id="node61" class="node"><title>Node31</title>
<a xlink:href="classAttrib_1_1WellLog.html" target="_top" xlink:title="WellLog Attribute ">
<polygon fill="white" stroke="black" points="135.5,-40.5 135.5,-61.5 216.5,-61.5 216.5,-40.5 135.5,-40.5"/>
<text text-anchor="middle" x="176" y="-48.5" font-family="Helvetica,sans-Serif" font-size="10.00">Attrib::WellLog</text>
</a>
</g>
<!-- Node1&#45;&gt;Node31 -->
<g id="edge60" class="edge"><title>Node1&#45;&gt;Node31</title>
<path fill="none" stroke="midnightblue" d="M41.2891,-570.081C42.9044,-482.845 53.2849,-148.953 118,-71 122.558,-65.5092 128.704,-61.5225 135.293,-58.6288"/>
<polygon fill="midnightblue" stroke="midnightblue" points="37.7861,-570.237 41.1204,-580.294 44.7852,-570.353 37.7861,-570.237"/>
</g>
<!-- Node32 -->
<g id="node63" class="node"><title>Node32</title>
<a xlink:href="classVolProcAttrib.html" target="_top" xlink:title="VolProcAttrib">
<polygon fill="white" stroke="black" points="139,-0.5 139,-21.5 213,-21.5 213,-0.5 139,-0.5"/>
<text text-anchor="middle" x="176" y="-8.5" font-family="Helvetica,sans-Serif" font-size="10.00">VolProcAttrib</text>
</a>
</g>
<!-- Node1&#45;&gt;Node32 -->
<g id="edge62" class="edge"><title>Node1&#45;&gt;Node32</title>
<path fill="none" stroke="midnightblue" d="M42.5864,-570.049C50.0743,-473.417 82.9822,-73.6288 118,-31 123.341,-24.498 130.909,-20.1043 138.821,-17.137"/>
<polygon fill="midnightblue" stroke="midnightblue" points="39.0763,-570.048 41.8009,-580.286 46.0558,-570.584 39.0763,-570.048"/>
</g>
<!-- Node30 -->
<g id="node59" class="node"><title>Node30</title>
<a xlink:href="classAttrib_1_1VolStats.html" target="_top" xlink:title="Volume Statistics Attribute. ">
<polygon fill="white" stroke="black" points="270.5,-80.5 270.5,-101.5 353.5,-101.5 353.5,-80.5 270.5,-80.5"/>
<text text-anchor="middle" x="312" y="-88.5" font-family="Helvetica,sans-Serif" font-size="10.00">Attrib::VolStats</text>
</a>
</g>
<!-- Node29&#45;&gt;Node30 -->
<g id="edge58" class="edge"><title>Node29&#45;&gt;Node30</title>
<path fill="none" stroke="midnightblue" d="M239.635,-91C249.991,-91 260.482,-91 270.142,-91"/>
<polygon fill="midnightblue" stroke="midnightblue" points="239.36,-87.5001 229.36,-91 239.36,-94.5001 239.36,-87.5001"/>
</g>
</g>
</svg>
