<?xml version="1.0" encoding="UTF-8" standalone="no"?>
<!DOCTYPE svg PUBLIC "-//W3C//DTD SVG 1.1//EN"
 "http://www.w3.org/Graphics/SVG/1.1/DTD/svg11.dtd">
<!-- Generated by graphviz version 2.26.0 (20091210.2329)
 -->
<!-- Title: Graphical Class Hierarchy Pages: 1 -->
<svg width="358pt" height="30pt"
 viewBox="0.00 0.00 358.00 30.00" xmlns="http://www.w3.org/2000/svg" xmlns:xlink="http://www.w3.org/1999/xlink">
<g id="graph1" class="graph" transform="scale(1 1) rotate(0) translate(4 26)">
<title>Graphical Class Hierarchy</title>
<polygon fill="white" stroke="white" points="-4,5 -4,-26 355,-26 355,5 -4,5"/>
<!-- Node1 -->
<g id="node1" class="node"><title>Node1</title>
<a xlink:href="classBasicInterval.html" target="_top" xlink:title="BasicInterval\&lt; int \&gt;">
<polygon fill="white" stroke="black" points="0,-0.5 0,-21.5 102,-21.5 102,-0.5 0,-0.5"/>
<text text-anchor="middle" x="51" y="-8.5" font-family="Helvetica,sans-Serif" font-size="10.00">BasicInterval&lt; int &gt;</text>
</a>
</g>
<!-- Node2 -->
<g id="node3" class="node"><title>Node2</title>
<a xlink:href="classInterval.html" target="_top" xlink:title="Interval\&lt; int \&gt;">
<polygon fill="white" stroke="black" points="138.5,-0.5 138.5,-21.5 215.5,-21.5 215.5,-0.5 138.5,-0.5"/>
<text text-anchor="middle" x="177" y="-8.5" font-family="Helvetica,sans-Serif" font-size="10.00">Interval&lt; int &gt;</text>
</a>
</g>
<!-- Node1&#45;&gt;Node2 -->
<g id="edge2" class="edge"><title>Node1&#45;&gt;Node2</title>
<path fill="none" stroke="midnightblue" d="M112.466,-11C121.219,-11 130.012,-11 138.168,-11"/>
<polygon fill="midnightblue" stroke="midnightblue" points="112.249,-7.5001 102.249,-11 112.249,-14.5001 112.249,-7.5001"/>
</g>
<!-- Node3 -->
<g id="node5" class="node"><title>Node3</title>
<a xlink:href="classStepInterval.html" target="_top" xlink:title="StepInterval\&lt; int \&gt;">
<polygon fill="white" stroke="black" points="252,-0.5 252,-21.5 350,-21.5 350,-0.5 252,-0.5"/>
<text text-anchor="middle" x="301" y="-8.5" font-family="Helvetica,sans-Serif" font-size="10.00">StepInterval&lt; int &gt;</text>
</a>
</g>
<!-- Node2&#45;&gt;Node3 -->
<g id="edge4" class="edge"><title>Node2&#45;&gt;Node3</title>
<path fill="none" stroke="midnightblue" d="M225.812,-11C234.405,-11 243.351,-11 251.95,-11"/>
<polygon fill="midnightblue" stroke="midnightblue" points="225.555,-7.5001 215.555,-11 225.555,-14.5001 225.555,-7.5001"/>
</g>
</g>
</svg>
