<?xml version="1.0" encoding="UTF-8" standalone="no"?>
<!DOCTYPE svg PUBLIC "-//W3C//DTD SVG 1.1//EN"
 "http://www.w3.org/Graphics/SVG/1.1/DTD/svg11.dtd">
<!-- Generated by graphviz version 2.26.0 (20091210.2329)
 -->
<!-- Title: Graphical Class Hierarchy Pages: 1 -->
<svg width="324pt" height="42pt"
 viewBox="0.00 0.00 324.00 42.00" xmlns="http://www.w3.org/2000/svg" xmlns:xlink="http://www.w3.org/1999/xlink">
<g id="graph1" class="graph" transform="scale(1 1) rotate(0) translate(4 38)">
<title>Graphical Class Hierarchy</title>
<polygon fill="white" stroke="white" points="-4,5 -4,-38 321,-38 321,5 -4,5"/>
<!-- Node1 -->
<g id="node1" class="node"><title>Node1</title>
<a xlink:href="classPtrManBase.html" target="_top" xlink:title="PtrManBase\&lt; const visBase\l::visBase::Transformation \&gt;">
<polygon fill="white" stroke="black" points="0,-0 0,-34 142,-34 142,-0 0,-0"/>
<text text-anchor="start" x="8" y="-21" font-family="Helvetica,sans-Serif" font-size="10.00">PtrManBase&lt; const visBase</text>
<text text-anchor="middle" x="71" y="-8" font-family="Helvetica,sans-Serif" font-size="10.00">::visBase::Transformation &gt;</text>
</a>
</g>
<!-- Node2 -->
<g id="node3" class="node"><title>Node2</title>
<a xlink:href="classRefMan.html" target="_top" xlink:title="RefMan\&lt; const visBase\l::visBase::Transformation \&gt;">
<polygon fill="white" stroke="black" points="178,-0 178,-34 316,-34 316,-0 178,-0"/>
<text text-anchor="start" x="186" y="-21" font-family="Helvetica,sans-Serif" font-size="10.00">RefMan&lt; const visBase</text>
<text text-anchor="middle" x="247" y="-8" font-family="Helvetica,sans-Serif" font-size="10.00">::visBase::Transformation &gt;</text>
</a>
</g>
<!-- Node1&#45;&gt;Node2 -->
<g id="edge2" class="edge"><title>Node1&#45;&gt;Node2</title>
<path fill="none" stroke="midnightblue" d="M152.141,-17C160.764,-17 169.475,-17 177.941,-17"/>
<polygon fill="midnightblue" stroke="midnightblue" points="152.079,-13.5001 142.079,-17 152.079,-20.5001 152.079,-13.5001"/>
</g>
</g>
</svg>
