<?xml version="1.0" encoding="UTF-8" standalone="no"?>
<!DOCTYPE svg PUBLIC "-//W3C//DTD SVG 1.1//EN"
 "http://www.w3.org/Graphics/SVG/1.1/DTD/svg11.dtd">
<!-- Generated by graphviz version 2.26.0 (20091210.2329)
 -->
<!-- Title: Graphical Class Hierarchy Pages: 1 -->
<svg width="316pt" height="70pt"
 viewBox="0.00 0.00 316.00 70.00" xmlns="http://www.w3.org/2000/svg" xmlns:xlink="http://www.w3.org/1999/xlink">
<g id="graph1" class="graph" transform="scale(1 1) rotate(0) translate(4 66)">
<title>Graphical Class Hierarchy</title>
<polygon fill="white" stroke="white" points="-4,5 -4,-66 313,-66 313,5 -4,5"/>
<!-- Node1 -->
<g id="node1" class="node"><title>Node1</title>
<a xlink:href="classSeis_1_1SeqIO.html" target="_top" xlink:title="Base class for Seismic Sequential IO classes. ">
<polygon fill="white" stroke="black" points="0,-20.5 0,-41.5 70,-41.5 70,-20.5 0,-20.5"/>
<text text-anchor="middle" x="35" y="-28.5" font-family="Helvetica,sans-Serif" font-size="10.00">Seis::SeqIO</text>
</a>
</g>
<!-- Node2 -->
<g id="node3" class="node"><title>Node2</title>
<a xlink:href="classSeis_1_1SeqInp.html" target="_top" xlink:title="Base class for Seismic Sequential input classes. ">
<polygon fill="white" stroke="black" points="107.5,-40.5 107.5,-61.5 180.5,-61.5 180.5,-40.5 107.5,-40.5"/>
<text text-anchor="middle" x="144" y="-48.5" font-family="Helvetica,sans-Serif" font-size="10.00">Seis::SeqInp</text>
</a>
</g>
<!-- Node1&#45;&gt;Node2 -->
<g id="edge2" class="edge"><title>Node1&#45;&gt;Node2</title>
<path fill="none" stroke="midnightblue" d="M80.1551,-39.2853C89.2563,-40.9553 98.7158,-42.691 107.477,-44.2986"/>
<polygon fill="midnightblue" stroke="midnightblue" points="80.5558,-35.8005 70.0883,-37.4382 79.2924,-42.6856 80.5558,-35.8005"/>
</g>
<!-- Node4 -->
<g id="node7" class="node"><title>Node4</title>
<a xlink:href="classSeis_1_1SeqOut.html" target="_top" xlink:title="Base class for Seismic Sequential output classes. ">
<polygon fill="white" stroke="black" points="106.5,-0.5 106.5,-21.5 181.5,-21.5 181.5,-0.5 106.5,-0.5"/>
<text text-anchor="middle" x="144" y="-8.5" font-family="Helvetica,sans-Serif" font-size="10.00">Seis::SeqOut</text>
</a>
</g>
<!-- Node1&#45;&gt;Node4 -->
<g id="edge6" class="edge"><title>Node1&#45;&gt;Node4</title>
<path fill="none" stroke="midnightblue" d="M80.1184,-22.7214C88.8394,-21.1212 97.8908,-19.4604 106.343,-17.9096"/>
<polygon fill="midnightblue" stroke="midnightblue" points="79.2924,-19.3144 70.0883,-24.5618 80.5558,-26.1995 79.2924,-19.3144"/>
</g>
<!-- Node3 -->
<g id="node5" class="node"><title>Node3</title>
<a xlink:href="classSeis_1_1ODSeqInp.html" target="_top" xlink:title="OpendTect&#45;internal Seismic Sequential input. ">
<polygon fill="white" stroke="black" points="219,-40.5 219,-61.5 307,-61.5 307,-40.5 219,-40.5"/>
<text text-anchor="middle" x="263" y="-48.5" font-family="Helvetica,sans-Serif" font-size="10.00">Seis::ODSeqInp</text>
</a>
</g>
<!-- Node2&#45;&gt;Node3 -->
<g id="edge4" class="edge"><title>Node2&#45;&gt;Node3</title>
<path fill="none" stroke="midnightblue" d="M190.813,-51C199.996,-51 209.602,-51 218.699,-51"/>
<polygon fill="midnightblue" stroke="midnightblue" points="190.675,-47.5001 180.675,-51 190.675,-54.5001 190.675,-47.5001"/>
</g>
<!-- Node5 -->
<g id="node9" class="node"><title>Node5</title>
<a xlink:href="classSeis_1_1ODSeqOut.html" target="_top" xlink:title="Seismic Sequential output via SeistrcWriter. ">
<polygon fill="white" stroke="black" points="218,-0.5 218,-21.5 308,-21.5 308,-0.5 218,-0.5"/>
<text text-anchor="middle" x="263" y="-8.5" font-family="Helvetica,sans-Serif" font-size="10.00">Seis::ODSeqOut</text>
</a>
</g>
<!-- Node4&#45;&gt;Node5 -->
<g id="edge8" class="edge"><title>Node4&#45;&gt;Node5</title>
<path fill="none" stroke="midnightblue" d="M191.837,-11C200.362,-11 209.219,-11 217.672,-11"/>
<polygon fill="midnightblue" stroke="midnightblue" points="191.652,-7.5001 181.652,-11 191.652,-14.5001 191.652,-7.5001"/>
</g>
</g>
</svg>
