<?xml version="1.0" encoding="UTF-8" standalone="no"?>
<!DOCTYPE svg PUBLIC "-//W3C//DTD SVG 1.1//EN"
 "http://www.w3.org/Graphics/SVG/1.1/DTD/svg11.dtd">
<!-- Generated by graphviz version 2.26.0 (20091210.2329)
 -->
<!-- Title: Graphical Class Hierarchy Pages: 1 -->
<svg width="366pt" height="710pt"
 viewBox="0.00 0.00 366.00 710.00" xmlns="http://www.w3.org/2000/svg" xmlns:xlink="http://www.w3.org/1999/xlink">
<g id="graph1" class="graph" transform="scale(1 1) rotate(0) translate(4 706)">
<title>Graphical Class Hierarchy</title>
<polygon fill="white" stroke="white" points="-4,5 -4,-706 363,-706 363,5 -4,5"/>
<!-- Node1 -->
<g id="node1" class="node"><title>Node1</title>
<polygon fill="white" stroke="#bfbfbf" points="0.5,-340.5 0.5,-361.5 83.5,-361.5 83.5,-340.5 0.5,-340.5"/>
<text text-anchor="middle" x="42" y="-348.5" font-family="Helvetica,sans-Serif" font-size="10.00">uiGraphicsItem</text>
</g>
<!-- Node2 -->
<g id="node3" class="node"><title>Node2</title>
<a xlink:href="classuiAdvancedTextItem.html" target="_top" xlink:title="uiAdvancedTextItem">
<polygon fill="white" stroke="black" points="129.5,-680.5 129.5,-701.5 236.5,-701.5 236.5,-680.5 129.5,-680.5"/>
<text text-anchor="middle" x="183" y="-688.5" font-family="Helvetica,sans-Serif" font-size="10.00">uiAdvancedTextItem</text>
</a>
</g>
<!-- Node1&#45;&gt;Node2 -->
<g id="edge2" class="edge"><title>Node1&#45;&gt;Node2</title>
<path fill="none" stroke="midnightblue" d="M44.3741,-371.528C52.1063,-435.011 78.4867,-626.549 120,-671 123.603,-674.858 127.945,-677.975 132.645,-680.493"/>
<polygon fill="midnightblue" stroke="midnightblue" points="47.8424,-371.054 43.1838,-361.538 40.8915,-371.882 47.8424,-371.054"/>
</g>
<!-- Node3 -->
<g id="node5" class="node"><title>Node3</title>
<a xlink:href="classuiArrowItem.html" target="_top" xlink:title="uiArrowItem">
<polygon fill="white" stroke="black" points="148.5,-640.5 148.5,-661.5 217.5,-661.5 217.5,-640.5 148.5,-640.5"/>
<text text-anchor="middle" x="183" y="-648.5" font-family="Helvetica,sans-Serif" font-size="10.00">uiArrowItem</text>
</a>
</g>
<!-- Node1&#45;&gt;Node3 -->
<g id="edge4" class="edge"><title>Node1&#45;&gt;Node3</title>
<path fill="none" stroke="midnightblue" d="M45.211,-371.958C54.5493,-430.343 83.3731,-593.041 120,-631 127.49,-638.762 137.974,-643.521 148.243,-646.435"/>
<polygon fill="midnightblue" stroke="midnightblue" points="48.6154,-371.076 43.6066,-361.74 41.7002,-372.162 48.6154,-371.076"/>
</g>
<!-- Node4 -->
<g id="node7" class="node"><title>Node4</title>
<a xlink:href="classuiColTabItem.html" target="_top" xlink:title="uiColTabItem">
<polygon fill="white" stroke="black" points="145.5,-600.5 145.5,-621.5 220.5,-621.5 220.5,-600.5 145.5,-600.5"/>
<text text-anchor="middle" x="183" y="-608.5" font-family="Helvetica,sans-Serif" font-size="10.00">uiColTabItem</text>
</a>
</g>
<!-- Node1&#45;&gt;Node4 -->
<g id="edge6" class="edge"><title>Node1&#45;&gt;Node4</title>
<path fill="none" stroke="midnightblue" d="M46.1913,-371.686C57.1588,-423.929 88.0711,-559.289 120,-591 126.921,-597.874 136.191,-602.388 145.488,-605.351"/>
<polygon fill="midnightblue" stroke="midnightblue" points="49.5587,-370.686 44.1067,-361.602 42.7037,-372.103 49.5587,-370.686"/>
</g>
<!-- Node5 -->
<g id="node9" class="node"><title>Node5</title>
<a xlink:href="classuiCurvedItem.html" target="_top" xlink:title="uiCurvedItem">
<polygon fill="white" stroke="black" points="145.5,-560.5 145.5,-581.5 220.5,-581.5 220.5,-560.5 145.5,-560.5"/>
<text text-anchor="middle" x="183" y="-568.5" font-family="Helvetica,sans-Serif" font-size="10.00">uiCurvedItem</text>
</a>
</g>
<!-- Node1&#45;&gt;Node5 -->
<g id="edge8" class="edge"><title>Node1&#45;&gt;Node5</title>
<path fill="none" stroke="midnightblue" d="M44.2461,-371.946C49.6968,-412.392 67.3129,-501.604 120,-551 127.032,-557.593 136.232,-562.012 145.421,-564.975"/>
<polygon fill="midnightblue" stroke="midnightblue" points="47.7058,-371.403 43.0122,-361.904 40.758,-372.257 47.7058,-371.403"/>
</g>
<!-- Node6 -->
<g id="node11" class="node"><title>Node6</title>
<a xlink:href="classuiDynamicImageItem.html" target="_top" xlink:title="uiDynamicImageItem">
<polygon fill="white" stroke="black" points="128,-520.5 128,-541.5 238,-541.5 238,-520.5 128,-520.5"/>
<text text-anchor="middle" x="183" y="-528.5" font-family="Helvetica,sans-Serif" font-size="10.00">uiDynamicImageItem</text>
</a>
</g>
<!-- Node1&#45;&gt;Node6 -->
<g id="edge10" class="edge"><title>Node1&#45;&gt;Node6</title>
<path fill="none" stroke="midnightblue" d="M46.4416,-371.49C54.8524,-405.423 76.3126,-473.274 120,-511 124.43,-514.825 129.594,-517.92 135.026,-520.423"/>
<polygon fill="midnightblue" stroke="midnightblue" points="49.8474,-370.684 44.1577,-361.746 43.0321,-372.281 49.8474,-370.684"/>
</g>
<!-- Node7 -->
<g id="node13" class="node"><title>Node7</title>
<a xlink:href="classuiEllipseItem.html" target="_top" xlink:title="uiEllipseItem">
<polygon fill="white" stroke="black" points="146.5,-480.5 146.5,-501.5 219.5,-501.5 219.5,-480.5 146.5,-480.5"/>
<text text-anchor="middle" x="183" y="-488.5" font-family="Helvetica,sans-Serif" font-size="10.00">uiEllipseItem</text>
</a>
</g>
<!-- Node1&#45;&gt;Node7 -->
<g id="edge12" class="edge"><title>Node1&#45;&gt;Node7</title>
<path fill="none" stroke="midnightblue" d="M49.9613,-371.215C61.4757,-397.89 85.2732,-444.551 120,-471 127.668,-476.841 137.087,-481.002 146.283,-483.956"/>
<polygon fill="midnightblue" stroke="midnightblue" points="53.0954,-369.636 46.0283,-361.742 46.6305,-372.32 53.0954,-369.636"/>
</g>
<!-- Node9 -->
<g id="node17" class="node"><title>Node9</title>
<a xlink:href="classuiGraphicsItemGroup.html" target="_top" xlink:title="uiGraphicsItemGroup">
<polygon fill="white" stroke="black" points="128.5,-440.5 128.5,-461.5 237.5,-461.5 237.5,-440.5 128.5,-440.5"/>
<text text-anchor="middle" x="183" y="-448.5" font-family="Helvetica,sans-Serif" font-size="10.00">uiGraphicsItemGroup</text>
</a>
</g>
<!-- Node1&#45;&gt;Node9 -->
<g id="edge16" class="edge"><title>Node1&#45;&gt;Node9</title>
<path fill="none" stroke="midnightblue" d="M55.8071,-369.784C70.023,-387.874 93.7525,-414.809 120,-431 126.055,-434.735 132.873,-437.834 139.728,-440.386"/>
<polygon fill="midnightblue" stroke="midnightblue" points="58.4789,-367.516 49.6233,-361.7 52.919,-371.769 58.4789,-367.516"/>
</g>
<!-- Node10 -->
<g id="node19" class="node"><title>Node10</title>
<a xlink:href="classuiLineItem.html" target="_top" xlink:title="uiLineItem">
<polygon fill="white" stroke="black" points="152,-400.5 152,-421.5 214,-421.5 214,-400.5 152,-400.5"/>
<text text-anchor="middle" x="183" y="-408.5" font-family="Helvetica,sans-Serif" font-size="10.00">uiLineItem</text>
</a>
</g>
<!-- Node1&#45;&gt;Node10 -->
<g id="edge18" class="edge"><title>Node1&#45;&gt;Node10</title>
<path fill="none" stroke="midnightblue" d="M69.547,-366.55C84.2438,-374.48 102.8,-383.917 120,-391 130.187,-395.195 141.593,-399.056 151.871,-402.244"/>
<polygon fill="midnightblue" stroke="midnightblue" points="70.9519,-363.329 60.4996,-361.597 67.5904,-369.469 70.9519,-363.329"/>
</g>
<!-- Node11 -->
<g id="node21" class="node"><title>Node11</title>
<a xlink:href="classuiMarkerItem.html" target="_top" xlink:title="uiMarkerItem">
<polygon fill="white" stroke="black" points="146,-360.5 146,-381.5 220,-381.5 220,-360.5 146,-360.5"/>
<text text-anchor="middle" x="183" y="-368.5" font-family="Helvetica,sans-Serif" font-size="10.00">uiMarkerItem</text>
</a>
</g>
<!-- Node1&#45;&gt;Node11 -->
<g id="edge20" class="edge"><title>Node1&#45;&gt;Node11</title>
<path fill="none" stroke="midnightblue" d="M93.4767,-358.302C110.731,-360.749 129.629,-363.43 145.596,-365.695"/>
<polygon fill="midnightblue" stroke="midnightblue" points="93.9345,-354.832 83.542,-356.892 92.9514,-361.762 93.9345,-354.832"/>
</g>
<!-- Node12 -->
<g id="node23" class="node"><title>Node12</title>
<a xlink:href="classuiMultiColorPolyLineItem.html" target="_top" xlink:title="uiMultiColorPolyLineItem">
<polygon fill="white" stroke="black" points="120.5,-320.5 120.5,-341.5 245.5,-341.5 245.5,-320.5 120.5,-320.5"/>
<text text-anchor="middle" x="183" y="-328.5" font-family="Helvetica,sans-Serif" font-size="10.00">uiMultiColorPolyLineItem</text>
</a>
</g>
<!-- Node1&#45;&gt;Node12 -->
<g id="edge22" class="edge"><title>Node1&#45;&gt;Node12</title>
<path fill="none" stroke="midnightblue" d="M93.5367,-343.69C102.244,-342.455 111.368,-341.161 120.321,-339.891"/>
<polygon fill="midnightblue" stroke="midnightblue" points="92.9514,-340.238 83.542,-345.108 93.9345,-347.168 92.9514,-340.238"/>
</g>
<!-- Node13 -->
<g id="node25" class="node"><title>Node13</title>
<a xlink:href="classuiObjectItem.html" target="_top" xlink:title="uiObjectItem">
<polygon fill="white" stroke="black" points="147,-280.5 147,-301.5 219,-301.5 219,-280.5 147,-280.5"/>
<text text-anchor="middle" x="183" y="-288.5" font-family="Helvetica,sans-Serif" font-size="10.00">uiObjectItem</text>
</a>
</g>
<!-- Node1&#45;&gt;Node13 -->
<g id="edge24" class="edge"><title>Node1&#45;&gt;Node13</title>
<path fill="none" stroke="midnightblue" d="M69.547,-335.45C84.2438,-327.52 102.8,-318.083 120,-311 128.595,-307.461 138.058,-304.159 146.979,-301.299"/>
<polygon fill="midnightblue" stroke="midnightblue" points="67.5904,-332.531 60.4996,-340.403 70.9519,-338.671 67.5904,-332.531"/>
</g>
<!-- Node14 -->
<g id="node27" class="node"><title>Node14</title>
<a xlink:href="classuiPixmapItem.html" target="_top" xlink:title="uiPixmapItem">
<polygon fill="white" stroke="black" points="144.5,-240.5 144.5,-261.5 221.5,-261.5 221.5,-240.5 144.5,-240.5"/>
<text text-anchor="middle" x="183" y="-248.5" font-family="Helvetica,sans-Serif" font-size="10.00">uiPixmapItem</text>
</a>
</g>
<!-- Node1&#45;&gt;Node14 -->
<g id="edge26" class="edge"><title>Node1&#45;&gt;Node14</title>
<path fill="none" stroke="midnightblue" d="M55.8071,-332.216C70.023,-314.126 93.7525,-287.191 120,-271 127.423,-266.421 135.991,-262.798 144.37,-259.967"/>
<polygon fill="midnightblue" stroke="midnightblue" points="52.919,-330.231 49.6233,-340.3 58.4789,-334.484 52.919,-330.231"/>
</g>
<!-- Node15 -->
<g id="node29" class="node"><title>Node15</title>
<a xlink:href="classuiPointItem.html" target="_top" xlink:title="uiPointItem">
<polygon fill="white" stroke="black" points="150,-200.5 150,-221.5 216,-221.5 216,-200.5 150,-200.5"/>
<text text-anchor="middle" x="183" y="-208.5" font-family="Helvetica,sans-Serif" font-size="10.00">uiPointItem</text>
</a>
</g>
<!-- Node1&#45;&gt;Node15 -->
<g id="edge28" class="edge"><title>Node1&#45;&gt;Node15</title>
<path fill="none" stroke="midnightblue" d="M49.9613,-330.785C61.4757,-304.11 85.2732,-257.449 120,-231 128.673,-224.395 139.584,-219.937 149.879,-216.944"/>
<polygon fill="midnightblue" stroke="midnightblue" points="46.6305,-329.68 46.0283,-340.258 53.0954,-332.364 46.6305,-329.68"/>
</g>
<!-- Node16 -->
<g id="node31" class="node"><title>Node16</title>
<a xlink:href="classuiPolygonItem.html" target="_top" xlink:title="uiPolygonItem">
<polygon fill="white" stroke="black" points="143.5,-160.5 143.5,-181.5 222.5,-181.5 222.5,-160.5 143.5,-160.5"/>
<text text-anchor="middle" x="183" y="-168.5" font-family="Helvetica,sans-Serif" font-size="10.00">uiPolygonItem</text>
</a>
</g>
<!-- Node1&#45;&gt;Node16 -->
<g id="edge30" class="edge"><title>Node1&#45;&gt;Node16</title>
<path fill="none" stroke="midnightblue" d="M46.4416,-330.51C54.8524,-296.577 76.3126,-228.726 120,-191 126.688,-185.225 135.052,-181.115 143.479,-178.19"/>
<polygon fill="midnightblue" stroke="midnightblue" points="43.0321,-329.719 44.1577,-340.254 49.8474,-331.316 43.0321,-329.719"/>
</g>
<!-- Node17 -->
<g id="node33" class="node"><title>Node17</title>
<a xlink:href="classuiPolyLineItem.html" target="_top" xlink:title="uiPolyLineItem">
<polygon fill="white" stroke="black" points="142.5,-120.5 142.5,-141.5 223.5,-141.5 223.5,-120.5 142.5,-120.5"/>
<text text-anchor="middle" x="183" y="-128.5" font-family="Helvetica,sans-Serif" font-size="10.00">uiPolyLineItem</text>
</a>
</g>
<!-- Node1&#45;&gt;Node17 -->
<g id="edge32" class="edge"><title>Node1&#45;&gt;Node17</title>
<path fill="none" stroke="midnightblue" d="M44.2461,-330.054C49.6968,-289.608 67.3129,-200.396 120,-151 126.279,-145.114 134.286,-140.96 142.47,-138.028"/>
<polygon fill="midnightblue" stroke="midnightblue" points="40.758,-329.743 43.0122,-340.096 47.7058,-330.597 40.758,-329.743"/>
</g>
<!-- Node18 -->
<g id="node35" class="node"><title>Node18</title>
<a xlink:href="classuiRectItem.html" target="_top" xlink:title="uiRectItem">
<polygon fill="white" stroke="black" points="150.5,-80.5 150.5,-101.5 215.5,-101.5 215.5,-80.5 150.5,-80.5"/>
<text text-anchor="middle" x="183" y="-88.5" font-family="Helvetica,sans-Serif" font-size="10.00">uiRectItem</text>
</a>
</g>
<!-- Node1&#45;&gt;Node18 -->
<g id="edge34" class="edge"><title>Node1&#45;&gt;Node18</title>
<path fill="none" stroke="midnightblue" d="M46.1913,-330.314C57.1588,-278.071 88.0711,-142.711 120,-111 128.142,-102.913 139.536,-98.0927 150.399,-95.2204"/>
<polygon fill="midnightblue" stroke="midnightblue" points="42.7037,-329.897 44.1067,-340.398 49.5587,-331.314 42.7037,-329.897"/>
</g>
<!-- Node20 -->
<g id="node39" class="node"><title>Node20</title>
<a xlink:href="classuiScaleBarItem.html" target="_top" xlink:title="It adds a graphic scale made from polygons. ">
<polygon fill="white" stroke="black" points="141.5,-40.5 141.5,-61.5 224.5,-61.5 224.5,-40.5 141.5,-40.5"/>
<text text-anchor="middle" x="183" y="-48.5" font-family="Helvetica,sans-Serif" font-size="10.00">uiScaleBarItem</text>
</a>
</g>
<!-- Node1&#45;&gt;Node20 -->
<g id="edge38" class="edge"><title>Node1&#45;&gt;Node20</title>
<path fill="none" stroke="midnightblue" d="M45.211,-330.042C54.5493,-271.657 83.3731,-108.959 120,-71 125.817,-64.9717 133.439,-60.7551 141.364,-57.8072"/>
<polygon fill="midnightblue" stroke="midnightblue" points="41.7002,-329.838 43.6066,-340.26 48.6154,-330.924 41.7002,-329.838"/>
</g>
<!-- Node21 -->
<g id="node41" class="node"><title>Node21</title>
<a xlink:href="classuiTextItem.html" target="_top" xlink:title="uiTextItem">
<polygon fill="white" stroke="black" points="151.5,-0.5 151.5,-21.5 214.5,-21.5 214.5,-0.5 151.5,-0.5"/>
<text text-anchor="middle" x="183" y="-8.5" font-family="Helvetica,sans-Serif" font-size="10.00">uiTextItem</text>
</a>
</g>
<!-- Node1&#45;&gt;Node21 -->
<g id="edge40" class="edge"><title>Node1&#45;&gt;Node21</title>
<path fill="none" stroke="midnightblue" d="M44.3741,-330.472C52.1063,-266.989 78.4867,-75.4505 120,-31 128.146,-22.2778 140.071,-17.3416 151.36,-14.5548"/>
<polygon fill="midnightblue" stroke="midnightblue" points="40.8915,-330.118 43.1838,-340.462 47.8424,-330.946 40.8915,-330.118"/>
</g>
<!-- Node8 -->
<g id="node15" class="node"><title>Node8</title>
<a xlink:href="classuiCircleItem.html" target="_top" xlink:title="uiCircleItem">
<polygon fill="white" stroke="black" points="285.5,-480.5 285.5,-501.5 354.5,-501.5 354.5,-480.5 285.5,-480.5"/>
<text text-anchor="middle" x="320" y="-488.5" font-family="Helvetica,sans-Serif" font-size="10.00">uiCircleItem</text>
</a>
</g>
<!-- Node7&#45;&gt;Node8 -->
<g id="edge14" class="edge"><title>Node7&#45;&gt;Node8</title>
<path fill="none" stroke="midnightblue" d="M229.79,-491C247.905,-491 268.279,-491 285.075,-491"/>
<polygon fill="midnightblue" stroke="midnightblue" points="229.714,-487.5 219.713,-491 229.713,-494.5 229.714,-487.5"/>
</g>
<!-- Node19 -->
<g id="node37" class="node"><title>Node19</title>
<a xlink:href="classuiLegendItem.html" target="_top" xlink:title="A legend, mainly used in maps. ">
<polygon fill="white" stroke="black" points="282.5,-80.5 282.5,-101.5 357.5,-101.5 357.5,-80.5 282.5,-80.5"/>
<text text-anchor="middle" x="320" y="-88.5" font-family="Helvetica,sans-Serif" font-size="10.00">uiLegendItem</text>
</a>
</g>
<!-- Node18&#45;&gt;Node19 -->
<g id="edge36" class="edge"><title>Node18&#45;&gt;Node19</title>
<path fill="none" stroke="midnightblue" d="M226.04,-91C244.019,-91 264.727,-91 282.119,-91"/>
<polygon fill="midnightblue" stroke="midnightblue" points="225.815,-87.5001 215.815,-91 225.815,-94.5001 225.815,-87.5001"/>
</g>
</g>
</svg>
