<?xml version="1.0" encoding="UTF-8" standalone="no"?>
<!DOCTYPE svg PUBLIC "-//W3C//DTD SVG 1.1//EN"
 "http://www.w3.org/Graphics/SVG/1.1/DTD/svg11.dtd">
<!-- Generated by graphviz version 2.26.0 (20091210.2329)
 -->
<!-- Title: Graphical Class Hierarchy Pages: 1 -->
<svg width="264pt" height="94pt"
 viewBox="0.00 0.00 264.00 94.00" xmlns="http://www.w3.org/2000/svg" xmlns:xlink="http://www.w3.org/1999/xlink">
<g id="graph1" class="graph" transform="scale(1 1) rotate(0) translate(4 90)">
<title>Graphical Class Hierarchy</title>
<polygon fill="white" stroke="white" points="-4,5 -4,-90 261,-90 261,5 -4,5"/>
<!-- Node1 -->
<g id="node1" class="node"><title>Node1</title>
<a xlink:href="classValueSeries.html" target="_top" xlink:title="ValueSeries\&lt; RT \&gt;">
<polygon fill="white" stroke="black" points="0.5,-32.5 0.5,-53.5 101.5,-53.5 101.5,-32.5 0.5,-32.5"/>
<text text-anchor="middle" x="51" y="-40.5" font-family="Helvetica,sans-Serif" font-size="10.00">ValueSeries&lt; RT &gt;</text>
</a>
</g>
<!-- Node2 -->
<g id="node3" class="node"><title>Node2</title>
<a xlink:href="classArrayValueSeries.html" target="_top" xlink:title="Series of values from a pointer to some kind of array. If a more advanced conversion between the retu...">
<polygon fill="white" stroke="black" points="138,-52 138,-86 256,-86 256,-52 138,-52"/>
<text text-anchor="start" x="146" y="-73" font-family="Helvetica,sans-Serif" font-size="10.00">ArrayValueSeries&lt; RT,</text>
<text text-anchor="middle" x="197" y="-60" font-family="Helvetica,sans-Serif" font-size="10.00"> AT &gt;</text>
</a>
</g>
<!-- Node1&#45;&gt;Node2 -->
<g id="edge2" class="edge"><title>Node1&#45;&gt;Node2</title>
<path fill="none" stroke="midnightblue" d="M111.692,-53.8082C120.363,-55.3522 129.272,-56.9388 137.911,-58.4772"/>
<polygon fill="midnightblue" stroke="midnightblue" points="112.113,-50.3281 101.654,-52.0206 110.885,-57.2197 112.113,-50.3281"/>
</g>
<!-- Node3 -->
<g id="node5" class="node"><title>Node3</title>
<a xlink:href="classMultiArrayValueSeries.html" target="_top" xlink:title="Valueseries that allocates its data in smaller chunks. By doing this, it performs better in environme...">
<polygon fill="white" stroke="black" points="140.5,-0 140.5,-34 253.5,-34 253.5,-0 140.5,-0"/>
<text text-anchor="start" x="148.5" y="-21" font-family="Helvetica,sans-Serif" font-size="10.00">MultiArrayValueSeries</text>
<text text-anchor="middle" x="197" y="-8" font-family="Helvetica,sans-Serif" font-size="10.00">&lt; RT, AT &gt;</text>
</a>
</g>
<!-- Node1&#45;&gt;Node3 -->
<g id="edge4" class="edge"><title>Node1&#45;&gt;Node3</title>
<path fill="none" stroke="midnightblue" d="M111.501,-32.2258C121.081,-30.5199 130.957,-28.7612 140.442,-27.072"/>
<polygon fill="midnightblue" stroke="midnightblue" points="110.885,-28.7803 101.654,-33.9794 112.113,-35.6719 110.885,-28.7803"/>
</g>
</g>
</svg>
