<?xml version="1.0" encoding="UTF-8" standalone="no"?>
<!DOCTYPE svg PUBLIC "-//W3C//DTD SVG 1.1//EN"
 "http://www.w3.org/Graphics/SVG/1.1/DTD/svg11.dtd">
<!-- Generated by graphviz version 2.26.0 (20091210.2329)
 -->
<!-- Title: interpretexpr.h Pages: 1 -->
<svg width="628pt" height="436pt"
 viewBox="0.00 0.00 628.00 436.00" xmlns="http://www.w3.org/2000/svg" xmlns:xlink="http://www.w3.org/1999/xlink">
<g id="graph1" class="graph" transform="scale(1 1) rotate(0) translate(4 432)">
<title>interpretexpr.h</title>
<polygon fill="white" stroke="white" points="-4,5 -4,-432 625,-432 625,5 -4,5"/>
<!-- Node1 -->
<g id="node1" class="node"><title>Node1</title>
<polygon fill="#bfbfbf" stroke="black" points="55.5,-406.5 55.5,-427.5 134.5,-427.5 134.5,-406.5 55.5,-406.5"/>
<text text-anchor="middle" x="95" y="-414.5" font-family="Helvetica,sans-Serif" font-size="10.00">interpretexpr.h</text>
</g>
<!-- Node2 -->
<g id="node3" class="node"><title>Node2</title>
<polygon fill="white" stroke="#bfbfbf" points="0,-348.5 0,-369.5 94,-369.5 94,-348.5 0,-348.5"/>
<text text-anchor="middle" x="47" y="-356.5" font-family="Helvetica,sans-Serif" font-size="10.00">uicmddrivermod.h</text>
</g>
<!-- Node1&#45;&gt;Node2 -->
<g id="edge2" class="edge"><title>Node1&#45;&gt;Node2</title>
<path fill="none" stroke="midnightblue" d="M86.1961,-406.362C79.4975,-398.268 70.116,-386.932 62.2107,-377.38"/>
<polygon fill="midnightblue" stroke="midnightblue" points="64.8202,-375.043 55.7481,-369.571 59.4275,-379.506 64.8202,-375.043"/>
</g>
<!-- Node3 -->
<g id="node5" class="node"><title>Node3</title>
<a xlink:href="bufstring_8h.html" target="_top" xlink:title="bufstring.h">
<polygon fill="white" stroke="black" points="112,-348.5 112,-369.5 174,-369.5 174,-348.5 112,-348.5"/>
<text text-anchor="middle" x="143" y="-356.5" font-family="Helvetica,sans-Serif" font-size="10.00">bufstring.h</text>
</a>
</g>
<!-- Node1&#45;&gt;Node3 -->
<g id="edge4" class="edge"><title>Node1&#45;&gt;Node3</title>
<path fill="none" stroke="midnightblue" d="M103.804,-406.362C110.502,-398.268 119.884,-386.932 127.789,-377.38"/>
<polygon fill="midnightblue" stroke="midnightblue" points="130.573,-379.506 134.252,-369.571 125.18,-375.043 130.573,-379.506"/>
</g>
<!-- Node4 -->
<g id="node7" class="node"><title>Node4</title>
<polygon fill="white" stroke="#bfbfbf" points="255.5,-0.5 255.5,-21.5 322.5,-21.5 322.5,-0.5 255.5,-0.5"/>
<text text-anchor="middle" x="289" y="-8.5" font-family="Helvetica,sans-Serif" font-size="10.00">basicmod.h</text>
</g>
<!-- Node3&#45;&gt;Node4 -->
<g id="edge6" class="edge"><title>Node3&#45;&gt;Node4</title>
<path fill="none" stroke="midnightblue" d="M130.956,-348.492C110.699,-329.586 72,-287.626 72,-243 72,-243 72,-243 72,-127 72,-91.9903 82.3874,-79.5227 110,-58 130.909,-41.7025 199.24,-26.8866 245.167,-18.4141"/>
<polygon fill="midnightblue" stroke="midnightblue" points="245.957,-21.8282 255.173,-16.6027 244.71,-14.9401 245.957,-21.8282"/>
</g>
<!-- Node5 -->
<g id="node9" class="node"><title>Node5</title>
<a xlink:href="fixedstring_8h.html" target="_top" xlink:title="fixedstring.h">
<polygon fill="white" stroke="black" points="108,-290.5 108,-311.5 178,-311.5 178,-290.5 108,-290.5"/>
<text text-anchor="middle" x="143" y="-298.5" font-family="Helvetica,sans-Serif" font-size="10.00">fixedstring.h</text>
</a>
</g>
<!-- Node3&#45;&gt;Node5 -->
<g id="edge8" class="edge"><title>Node3&#45;&gt;Node5</title>
<path fill="none" stroke="midnightblue" d="M143,-348.362C143,-340.922 143,-330.743 143,-321.728"/>
<polygon fill="midnightblue" stroke="midnightblue" points="146.5,-321.571 143,-311.571 139.5,-321.571 146.5,-321.571"/>
</g>
<!-- Node18 -->
<g id="node42" class="node"><title>Node18</title>
<a xlink:href="string2_8h.html" target="_top" xlink:title="string2.h">
<polygon fill="white" stroke="black" points="224,-116.5 224,-137.5 278,-137.5 278,-116.5 224,-116.5"/>
<text text-anchor="middle" x="251" y="-124.5" font-family="Helvetica,sans-Serif" font-size="10.00">string2.h</text>
</a>
</g>
<!-- Node3&#45;&gt;Node18 -->
<g id="edge48" class="edge"><title>Node3&#45;&gt;Node18</title>
<path fill="none" stroke="midnightblue" d="M155.721,-348.164C165.445,-339.296 178.571,-325.974 187,-312 219.946,-257.38 238.984,-183.409 246.798,-147.821"/>
<polygon fill="midnightblue" stroke="midnightblue" points="250.296,-148.197 248.945,-137.689 243.448,-146.746 250.296,-148.197"/>
</g>
<!-- Node5&#45;&gt;Node4 -->
<g id="edge10" class="edge"><title>Node5&#45;&gt;Node4</title>
<path fill="none" stroke="midnightblue" d="M137.844,-290.413C128.562,-270.35 110,-225.201 110,-185 110,-185 110,-185 110,-127 110,-95.1919 106.7,-80.6822 129,-58 145.266,-41.4546 203.886,-27.203 245.446,-18.8589"/>
<polygon fill="midnightblue" stroke="midnightblue" points="246.206,-22.2767 255.346,-16.9175 244.859,-15.4076 246.206,-22.2767"/>
</g>
<!-- Node6 -->
<g id="node12" class="node"><title>Node6</title>
<a xlink:href="odstring_8h.html" target="_top" xlink:title="odstring.h">
<polygon fill="white" stroke="black" points="296.5,-232.5 296.5,-253.5 355.5,-253.5 355.5,-232.5 296.5,-232.5"/>
<text text-anchor="middle" x="326" y="-240.5" font-family="Helvetica,sans-Serif" font-size="10.00">odstring.h</text>
</a>
</g>
<!-- Node5&#45;&gt;Node6 -->
<g id="edge12" class="edge"><title>Node5&#45;&gt;Node6</title>
<path fill="none" stroke="midnightblue" d="M176.14,-290.497C207.223,-280.645 253.728,-265.906 286.676,-255.463"/>
<polygon fill="midnightblue" stroke="midnightblue" points="287.958,-258.729 296.433,-252.371 285.843,-252.056 287.958,-258.729"/>
</g>
<!-- Node6&#45;&gt;Node4 -->
<g id="edge14" class="edge"><title>Node6&#45;&gt;Node4</title>
<path fill="none" stroke="midnightblue" d="M324.314,-232.429C318.608,-196.648 299.951,-79.6628 292.309,-31.7481"/>
<polygon fill="midnightblue" stroke="midnightblue" points="295.727,-30.9575 290.696,-21.6335 288.815,-32.06 295.727,-30.9575"/>
</g>
<!-- Node7 -->
<g id="node15" class="node"><title>Node7</title>
<a xlink:href="gendefs_8h.html" target="_top" xlink:title="gendefs.h">
<polygon fill="white" stroke="black" points="429.5,-174.5 429.5,-195.5 488.5,-195.5 488.5,-174.5 429.5,-174.5"/>
<text text-anchor="middle" x="459" y="-182.5" font-family="Helvetica,sans-Serif" font-size="10.00">gendefs.h</text>
</a>
</g>
<!-- Node6&#45;&gt;Node7 -->
<g id="edge16" class="edge"><title>Node6&#45;&gt;Node7</title>
<path fill="none" stroke="midnightblue" d="M350.085,-232.497C371.139,-223.315 401.927,-209.889 425.402,-199.652"/>
<polygon fill="midnightblue" stroke="midnightblue" points="426.877,-202.827 434.644,-195.621 424.079,-196.41 426.877,-202.827"/>
</g>
<!-- Node8 -->
<g id="node17" class="node"><title>Node8</title>
<a xlink:href="undefval_8h.html" target="_top" xlink:title="undefval.h">
<polygon fill="white" stroke="black" points="382,-116.5 382,-137.5 444,-137.5 444,-116.5 382,-116.5"/>
<text text-anchor="middle" x="413" y="-124.5" font-family="Helvetica,sans-Serif" font-size="10.00">undefval.h</text>
</a>
</g>
<!-- Node7&#45;&gt;Node8 -->
<g id="edge18" class="edge"><title>Node7&#45;&gt;Node8</title>
<path fill="none" stroke="midnightblue" d="M450.563,-174.362C444.208,-166.35 435.334,-155.161 427.807,-145.67"/>
<polygon fill="midnightblue" stroke="midnightblue" points="430.34,-143.231 421.384,-137.571 424.855,-147.581 430.34,-143.231"/>
</g>
<!-- Node15 -->
<g id="node34" class="node"><title>Node15</title>
<a xlink:href="commontypes_8h.html" target="_top" xlink:title="commontypes.h">
<polygon fill="white" stroke="black" points="462,-116.5 462,-137.5 548,-137.5 548,-116.5 462,-116.5"/>
<text text-anchor="middle" x="505" y="-124.5" font-family="Helvetica,sans-Serif" font-size="10.00">commontypes.h</text>
</a>
</g>
<!-- Node7&#45;&gt;Node15 -->
<g id="edge38" class="edge"><title>Node7&#45;&gt;Node15</title>
<path fill="none" stroke="midnightblue" d="M467.437,-174.362C473.792,-166.35 482.666,-155.161 490.193,-145.67"/>
<polygon fill="midnightblue" stroke="midnightblue" points="493.145,-147.581 496.616,-137.571 487.66,-143.231 493.145,-147.581"/>
</g>
<!-- Node16 -->
<g id="node37" class="node"><title>Node16</title>
<a xlink:href="errmsg_8h.html" target="_top" xlink:title="errmsg.h">
<polygon fill="white" stroke="black" points="565.5,-116.5 565.5,-137.5 620.5,-137.5 620.5,-116.5 565.5,-116.5"/>
<text text-anchor="middle" x="593" y="-124.5" font-family="Helvetica,sans-Serif" font-size="10.00">errmsg.h</text>
</a>
</g>
<!-- Node7&#45;&gt;Node16 -->
<g id="edge42" class="edge"><title>Node7&#45;&gt;Node16</title>
<path fill="none" stroke="midnightblue" d="M483.266,-174.497C504.478,-165.315 535.498,-151.889 559.15,-141.652"/>
<polygon fill="midnightblue" stroke="midnightblue" points="560.674,-144.806 568.461,-137.621 557.894,-138.381 560.674,-144.806"/>
</g>
<!-- Node8&#45;&gt;Node4 -->
<g id="edge20" class="edge"><title>Node8&#45;&gt;Node4</title>
<path fill="none" stroke="midnightblue" d="M401.662,-116.199C387.344,-102.579 361.928,-78.4661 340,-58 329.547,-48.2441 317.818,-37.426 308.246,-28.6303"/>
<polygon fill="midnightblue" stroke="midnightblue" points="310.522,-25.9685 300.788,-21.7853 305.788,-31.1257 310.522,-25.9685"/>
</g>
<!-- Node9 -->
<g id="node20" class="node"><title>Node9</title>
<a xlink:href="commondefs_8h.html" target="_top" xlink:title="commondefs.h">
<polygon fill="white" stroke="black" points="467.5,-58.5 467.5,-79.5 548.5,-79.5 548.5,-58.5 467.5,-58.5"/>
<text text-anchor="middle" x="508" y="-66.5" font-family="Helvetica,sans-Serif" font-size="10.00">commondefs.h</text>
</a>
</g>
<!-- Node8&#45;&gt;Node9 -->
<g id="edge22" class="edge"><title>Node8&#45;&gt;Node9</title>
<path fill="none" stroke="midnightblue" d="M430.424,-116.362C444.887,-107.532 465.669,-94.844 482.084,-84.8224"/>
<polygon fill="midnightblue" stroke="midnightblue" points="483.975,-87.7688 490.686,-79.5707 480.327,-81.7943 483.975,-87.7688"/>
</g>
<!-- Node13 -->
<g id="node29" class="node"><title>Node13</title>
<a xlink:href="plftypes_8h.html" target="_top" xlink:title="plftypes.h">
<polygon fill="white" stroke="black" points="391.5,-58.5 391.5,-79.5 450.5,-79.5 450.5,-58.5 391.5,-58.5"/>
<text text-anchor="middle" x="421" y="-66.5" font-family="Helvetica,sans-Serif" font-size="10.00">plftypes.h</text>
</a>
</g>
<!-- Node8&#45;&gt;Node13 -->
<g id="edge32" class="edge"><title>Node8&#45;&gt;Node13</title>
<path fill="none" stroke="midnightblue" d="M414.467,-116.362C415.494,-108.922 416.898,-98.7427 418.141,-89.7276"/>
<polygon fill="midnightblue" stroke="midnightblue" points="421.643,-89.9551 419.542,-79.5707 414.708,-88.9986 421.643,-89.9551"/>
</g>
<!-- Node9&#45;&gt;Node4 -->
<g id="edge24" class="edge"><title>Node9&#45;&gt;Node4</title>
<path fill="none" stroke="midnightblue" d="M468.341,-58.4966C430.015,-48.3464 372.097,-33.0075 332.519,-22.5255"/>
<polygon fill="midnightblue" stroke="midnightblue" points="333.188,-19.0821 322.625,-19.9052 331.395,-25.8488 333.188,-19.0821"/>
</g>
<!-- Node10 -->
<g id="node23" class="node"><title>Node10</title>
<a xlink:href="plfdefs_8h.html" target="_top" xlink:title="plfdefs.h">
<polygon fill="white" stroke="black" points="407,-0.5 407,-21.5 461,-21.5 461,-0.5 407,-0.5"/>
<text text-anchor="middle" x="434" y="-8.5" font-family="Helvetica,sans-Serif" font-size="10.00">plfdefs.h</text>
</a>
</g>
<!-- Node9&#45;&gt;Node10 -->
<g id="edge26" class="edge"><title>Node9&#45;&gt;Node10</title>
<path fill="none" stroke="midnightblue" d="M494.427,-58.3619C483.579,-49.859 468.166,-37.7785 455.621,-27.9466"/>
<polygon fill="midnightblue" stroke="midnightblue" points="457.516,-24.9848 447.487,-21.5707 453.198,-30.4942 457.516,-24.9848"/>
</g>
<!-- Node11 -->
<g id="node25" class="node"><title>Node11</title>
<polygon fill="white" stroke="#bfbfbf" points="478.5,-0.5 478.5,-21.5 537.5,-21.5 537.5,-0.5 478.5,-0.5"/>
<text text-anchor="middle" x="508" y="-8.5" font-family="Helvetica,sans-Serif" font-size="10.00">stdexcept</text>
</g>
<!-- Node9&#45;&gt;Node11 -->
<g id="edge28" class="edge"><title>Node9&#45;&gt;Node11</title>
<path fill="none" stroke="midnightblue" d="M508,-58.3619C508,-50.9219 508,-40.7427 508,-31.7276"/>
<polygon fill="midnightblue" stroke="midnightblue" points="511.5,-31.5706 508,-21.5707 504.5,-31.5707 511.5,-31.5706"/>
</g>
<!-- Node12 -->
<g id="node27" class="node"><title>Node12</title>
<polygon fill="white" stroke="#bfbfbf" points="554.5,-0.5 554.5,-21.5 589.5,-21.5 589.5,-0.5 554.5,-0.5"/>
<text text-anchor="middle" x="572" y="-8.5" font-family="Helvetica,sans-Serif" font-size="10.00">new</text>
</g>
<!-- Node9&#45;&gt;Node12 -->
<g id="edge30" class="edge"><title>Node9&#45;&gt;Node12</title>
<path fill="none" stroke="midnightblue" d="M519.739,-58.3619C528.941,-50.0226 541.94,-38.2418 552.672,-28.5162"/>
<polygon fill="midnightblue" stroke="midnightblue" points="555.276,-30.8793 560.336,-21.5707 550.576,-25.6924 555.276,-30.8793"/>
</g>
<!-- Node13&#45;&gt;Node10 -->
<g id="edge34" class="edge"><title>Node13&#45;&gt;Node10</title>
<path fill="none" stroke="midnightblue" d="M423.384,-58.3619C425.07,-50.8401 427.384,-40.5187 429.421,-31.4308"/>
<polygon fill="midnightblue" stroke="midnightblue" points="432.859,-32.0941 431.631,-21.5707 426.028,-30.563 432.859,-32.0941"/>
</g>
<!-- Node14 -->
<g id="node32" class="node"><title>Node14</title>
<polygon fill="white" stroke="#bfbfbf" points="340.5,-0.5 340.5,-21.5 389.5,-21.5 389.5,-0.5 340.5,-0.5"/>
<text text-anchor="middle" x="365" y="-8.5" font-family="Helvetica,sans-Serif" font-size="10.00">stdint.h</text>
</g>
<!-- Node13&#45;&gt;Node14 -->
<g id="edge36" class="edge"><title>Node13&#45;&gt;Node14</title>
<path fill="none" stroke="midnightblue" d="M410.729,-58.3619C402.756,-50.1043 391.525,-38.4725 382.189,-28.8029"/>
<polygon fill="midnightblue" stroke="midnightblue" points="384.67,-26.3336 375.206,-21.5707 379.634,-31.1958 384.67,-26.3336"/>
</g>
<!-- Node15&#45;&gt;Node9 -->
<g id="edge40" class="edge"><title>Node15&#45;&gt;Node9</title>
<path fill="none" stroke="midnightblue" d="M505.55,-116.362C505.935,-108.922 506.462,-98.7427 506.928,-89.7276"/>
<polygon fill="midnightblue" stroke="midnightblue" points="510.432,-89.7381 507.453,-79.5707 503.441,-89.3765 510.432,-89.7381"/>
</g>
<!-- Node16&#45;&gt;Node9 -->
<g id="edge44" class="edge"><title>Node16&#45;&gt;Node9</title>
<path fill="none" stroke="midnightblue" d="M577.41,-116.362C564.709,-107.696 546.562,-95.3126 532.008,-85.3819"/>
<polygon fill="midnightblue" stroke="midnightblue" points="533.724,-82.316 523.491,-79.5707 529.779,-88.0982 533.724,-82.316"/>
</g>
<!-- Node17 -->
<g id="node40" class="node"><title>Node17</title>
<polygon fill="white" stroke="#bfbfbf" points="567.5,-58.5 567.5,-79.5 618.5,-79.5 618.5,-58.5 567.5,-58.5"/>
<text text-anchor="middle" x="593" y="-66.5" font-family="Helvetica,sans-Serif" font-size="10.00">typeinfo</text>
</g>
<!-- Node16&#45;&gt;Node17 -->
<g id="edge46" class="edge"><title>Node16&#45;&gt;Node17</title>
<path fill="none" stroke="midnightblue" d="M593,-116.362C593,-108.922 593,-98.7427 593,-89.7276"/>
<polygon fill="midnightblue" stroke="midnightblue" points="596.5,-89.5706 593,-79.5707 589.5,-89.5707 596.5,-89.5706"/>
</g>
<!-- Node18&#45;&gt;Node4 -->
<g id="edge50" class="edge"><title>Node18&#45;&gt;Node4</title>
<path fill="none" stroke="midnightblue" d="M255.405,-116.266C259.22,-106.799 264.773,-92.5905 269,-80 274.388,-63.9532 279.684,-45.5277 283.472,-31.7558"/>
<polygon fill="midnightblue" stroke="midnightblue" points="286.921,-32.4104 286.159,-21.843 280.164,-30.579 286.921,-32.4104"/>
</g>
<!-- Node18&#45;&gt;Node9 -->
<g id="edge54" class="edge"><title>Node18&#45;&gt;Node9</title>
<path fill="none" stroke="midnightblue" d="M278.018,-120.903C320.514,-111.312 403.665,-92.5464 457.478,-80.4019"/>
<polygon fill="midnightblue" stroke="midnightblue" points="458.514,-83.7562 467.498,-78.1405 456.973,-76.9279 458.514,-83.7562"/>
</g>
<!-- Node18&#45;&gt;Node13 -->
<g id="edge52" class="edge"><title>Node18&#45;&gt;Node13</title>
<path fill="none" stroke="midnightblue" d="M278.313,-117.681C306.262,-108.146 349.964,-93.2357 381.643,-82.4278"/>
<polygon fill="midnightblue" stroke="midnightblue" points="383.136,-85.6165 391.47,-79.0749 380.876,-78.9914 383.136,-85.6165"/>
</g>
<!-- Node19 -->
<g id="node47" class="node"><title>Node19</title>
<polygon fill="white" stroke="#bfbfbf" points="137.5,-58.5 137.5,-79.5 186.5,-79.5 186.5,-58.5 137.5,-58.5"/>
<text text-anchor="middle" x="162" y="-66.5" font-family="Helvetica,sans-Serif" font-size="10.00">ctype.h</text>
</g>
<!-- Node18&#45;&gt;Node19 -->
<g id="edge56" class="edge"><title>Node18&#45;&gt;Node19</title>
<path fill="none" stroke="midnightblue" d="M234.676,-116.362C221.252,-107.614 202.017,-95.0786 186.707,-85.1015"/>
<polygon fill="midnightblue" stroke="midnightblue" points="188.509,-82.0982 178.22,-79.5707 184.688,-87.9628 188.509,-82.0982"/>
</g>
<!-- Node20 -->
<g id="node49" class="node"><title>Node20</title>
<polygon fill="white" stroke="#bfbfbf" points="204,-58.5 204,-79.5 260,-79.5 260,-58.5 204,-58.5"/>
<text text-anchor="middle" x="232" y="-66.5" font-family="Helvetica,sans-Serif" font-size="10.00">wctype.h</text>
</g>
<!-- Node18&#45;&gt;Node20 -->
<g id="edge58" class="edge"><title>Node18&#45;&gt;Node20</title>
<path fill="none" stroke="midnightblue" d="M247.515,-116.362C245.024,-108.758 241.596,-98.294 238.596,-89.1349"/>
<polygon fill="midnightblue" stroke="midnightblue" points="241.902,-87.9841 235.463,-79.5707 235.25,-90.1634 241.902,-87.9841"/>
</g>
</g>
</svg>
