<?xml version="1.0" encoding="UTF-8" standalone="no"?>
<!DOCTYPE svg PUBLIC "-//W3C//DTD SVG 1.1//EN"
 "http://www.w3.org/Graphics/SVG/1.1/DTD/svg11.dtd">
<!-- Generated by graphviz version 2.26.0 (20091210.2329)
 -->
<!-- Title: ioman.h Pages: 1 -->
<svg width="934pt" height="784pt"
 viewBox="0.00 0.00 933.94 784.00" xmlns="http://www.w3.org/2000/svg" xmlns:xlink="http://www.w3.org/1999/xlink">
<g id="graph1" class="graph" transform="scale(1 1) rotate(0) translate(4 780)">
<title>ioman.h</title>
<polygon fill="white" stroke="white" points="-4,5 -4,-780 930.94,-780 930.94,5 -4,5"/>
<!-- Node1 -->
<g id="node1" class="node"><title>Node1</title>
<polygon fill="#bfbfbf" stroke="black" points="559.44,-754.5 559.44,-775.5 610.44,-775.5 610.44,-754.5 559.44,-754.5"/>
<text text-anchor="middle" x="584.94" y="-762.5" font-family="Helvetica,sans-Serif" font-size="10.00">ioman.h</text>
</g>
<!-- Node2 -->
<g id="node3" class="node"><title>Node2</title>
<polygon fill="white" stroke="#bfbfbf" points="459.44,-696.5 459.44,-717.5 534.44,-717.5 534.44,-696.5 459.44,-696.5"/>
<text text-anchor="middle" x="496.94" y="-704.5" font-family="Helvetica,sans-Serif" font-size="10.00">generalmod.h</text>
</g>
<!-- Node1&#45;&gt;Node2 -->
<g id="edge2" class="edge"><title>Node1&#45;&gt;Node2</title>
<path fill="none" stroke="midnightblue" d="M568.8,-754.362C555.527,-745.614 536.508,-733.079 521.37,-723.101"/>
<polygon fill="midnightblue" stroke="midnightblue" points="523.254,-720.151 512.978,-717.571 519.402,-725.996 523.254,-720.151"/>
</g>
<!-- Node3 -->
<g id="node5" class="node"><title>Node3</title>
<a xlink:href="namedobj_8h.html" target="_top" xlink:title="namedobj.h">
<polygon fill="white" stroke="black" points="551.44,-696.5 551.44,-717.5 618.44,-717.5 618.44,-696.5 551.44,-696.5"/>
<text text-anchor="middle" x="584.94" y="-704.5" font-family="Helvetica,sans-Serif" font-size="10.00">namedobj.h</text>
</a>
</g>
<!-- Node1&#45;&gt;Node3 -->
<g id="edge4" class="edge"><title>Node1&#45;&gt;Node3</title>
<path fill="none" stroke="midnightblue" d="M584.94,-754.362C584.94,-746.922 584.94,-736.743 584.94,-727.728"/>
<polygon fill="midnightblue" stroke="midnightblue" points="588.44,-727.571 584.94,-717.571 581.44,-727.571 588.44,-727.571"/>
</g>
<!-- Node35 -->
<g id="node96" class="node"><title>Node35</title>
<a xlink:href="multiid_8h.html" target="_top" xlink:title="multiid.h">
<polygon fill="white" stroke="black" points="711.44,-464.5 711.44,-485.5 764.44,-485.5 764.44,-464.5 711.44,-464.5"/>
<text text-anchor="middle" x="737.94" y="-472.5" font-family="Helvetica,sans-Serif" font-size="10.00">multiid.h</text>
</a>
</g>
<!-- Node1&#45;&gt;Node35 -->
<g id="edge122" class="edge"><title>Node1&#45;&gt;Node35</title>
<path fill="none" stroke="midnightblue" d="M605.825,-754.456C636.964,-737.077 691.94,-699.276 691.94,-649 691.94,-649 691.94,-649 691.94,-591 691.94,-554.793 711.545,-516.422 725.157,-494.144"/>
<polygon fill="midnightblue" stroke="midnightblue" points="728.153,-495.955 730.549,-485.634 722.24,-492.208 728.153,-495.955"/>
</g>
<!-- Node4 -->
<g id="node7" class="node"><title>Node4</title>
<polygon fill="white" stroke="#bfbfbf" points="524.44,-0.5 524.44,-21.5 591.44,-21.5 591.44,-0.5 524.44,-0.5"/>
<text text-anchor="middle" x="557.94" y="-8.5" font-family="Helvetica,sans-Serif" font-size="10.00">basicmod.h</text>
</g>
<!-- Node3&#45;&gt;Node4 -->
<g id="edge6" class="edge"><title>Node3&#45;&gt;Node4</title>
<path fill="none" stroke="midnightblue" d="M580.721,-696.319C573.128,-676.1 557.94,-630.7 557.94,-591 557.94,-591 557.94,-591 557.94,-127 557.94,-93.5978 557.94,-54.7853 557.94,-31.5939"/>
<polygon fill="midnightblue" stroke="midnightblue" points="561.44,-31.5561 557.94,-21.5561 554.44,-31.5561 561.44,-31.5561"/>
</g>
<!-- Node5 -->
<g id="node9" class="node"><title>Node5</title>
<a xlink:href="callback_8h.html" target="_top" xlink:title="callback.h">
<polygon fill="white" stroke="black" points="361.44,-638.5 361.44,-659.5 422.44,-659.5 422.44,-638.5 361.44,-638.5"/>
<text text-anchor="middle" x="391.94" y="-646.5" font-family="Helvetica,sans-Serif" font-size="10.00">callback.h</text>
</a>
</g>
<!-- Node3&#45;&gt;Node5 -->
<g id="edge8" class="edge"><title>Node3&#45;&gt;Node5</title>
<path fill="none" stroke="midnightblue" d="M551.322,-696.897C518.295,-686.972 467.861,-671.815 432.597,-661.218"/>
<polygon fill="midnightblue" stroke="midnightblue" points="433.212,-657.749 422.628,-658.222 431.198,-664.452 433.212,-657.749"/>
</g>
<!-- Node24 -->
<g id="node58" class="node"><title>Node24</title>
<a xlink:href="bufstring_8h.html" target="_top" xlink:title="bufstring.h">
<polygon fill="white" stroke="black" points="626.94,-348.5 626.94,-369.5 688.94,-369.5 688.94,-348.5 626.94,-348.5"/>
<text text-anchor="middle" x="657.94" y="-356.5" font-family="Helvetica,sans-Serif" font-size="10.00">bufstring.h</text>
</a>
</g>
<!-- Node3&#45;&gt;Node24 -->
<g id="edge120" class="edge"><title>Node3&#45;&gt;Node24</title>
<path fill="none" stroke="midnightblue" d="M586.611,-696.476C589.688,-676.148 595.94,-630.042 595.94,-591 595.94,-591 595.94,-591 595.94,-475 595.94,-443.192 599.556,-433.84 614.94,-406 620.858,-395.29 629.693,-385.059 637.818,-376.893"/>
<polygon fill="midnightblue" stroke="midnightblue" points="640.474,-379.194 645.271,-369.748 635.63,-374.141 640.474,-379.194"/>
</g>
<!-- Node5&#45;&gt;Node4 -->
<g id="edge10" class="edge"><title>Node5&#45;&gt;Node4</title>
<path fill="none" stroke="midnightblue" d="M419.714,-638.399C457.36,-622.006 519.94,-586.682 519.94,-533 519.94,-533 519.94,-533 519.94,-127 519.94,-91.7411 535.991,-53.3154 547.229,-30.7323"/>
<polygon fill="midnightblue" stroke="midnightblue" points="550.359,-32.3005 551.835,-21.809 544.138,-29.0901 550.359,-32.3005"/>
</g>
<!-- Node6 -->
<g id="node12" class="node"><title>Node6</title>
<a xlink:href="refcount_8h.html" target="_top" xlink:title="refcount.h">
<polygon fill="white" stroke="black" points="361.94,-580.5 361.94,-601.5 421.94,-601.5 421.94,-580.5 361.94,-580.5"/>
<text text-anchor="middle" x="391.94" y="-588.5" font-family="Helvetica,sans-Serif" font-size="10.00">refcount.h</text>
</a>
</g>
<!-- Node5&#45;&gt;Node6 -->
<g id="edge12" class="edge"><title>Node5&#45;&gt;Node6</title>
<path fill="none" stroke="midnightblue" d="M391.94,-638.362C391.94,-630.922 391.94,-620.743 391.94,-611.728"/>
<polygon fill="midnightblue" stroke="midnightblue" points="395.44,-611.571 391.94,-601.571 388.44,-611.571 395.44,-611.571"/>
</g>
<!-- Node32 -->
<g id="node83" class="node"><title>Node32</title>
<a xlink:href="sets_8h.html" target="_top" xlink:title="sets.h">
<polygon fill="white" stroke="black" points="269.94,-580.5 269.94,-601.5 313.94,-601.5 313.94,-580.5 269.94,-580.5"/>
<text text-anchor="middle" x="291.94" y="-588.5" font-family="Helvetica,sans-Serif" font-size="10.00">sets.h</text>
</a>
</g>
<!-- Node5&#45;&gt;Node32 -->
<g id="edge102" class="edge"><title>Node5&#45;&gt;Node32</title>
<path fill="none" stroke="midnightblue" d="M373.599,-638.362C358.375,-629.532 336.499,-616.844 319.22,-606.822"/>
<polygon fill="midnightblue" stroke="midnightblue" points="320.572,-603.56 310.165,-601.571 317.06,-609.615 320.572,-603.56"/>
</g>
<!-- Node34 -->
<g id="node90" class="node"><title>Node34</title>
<a xlink:href="threadlock_8h.html" target="_top" xlink:title="threadlock.h">
<polygon fill="white" stroke="black" points="187.94,-116.5 187.94,-137.5 257.94,-137.5 257.94,-116.5 187.94,-116.5"/>
<text text-anchor="middle" x="222.94" y="-124.5" font-family="Helvetica,sans-Serif" font-size="10.00">threadlock.h</text>
</a>
</g>
<!-- Node5&#45;&gt;Node34 -->
<g id="edge112" class="edge"><title>Node5&#45;&gt;Node34</title>
<path fill="none" stroke="midnightblue" d="M361.365,-645.958C273.4,-636.368 25.9402,-603.156 25.9402,-533 25.9402,-533 25.9402,-533 25.9402,-243 25.9402,-206.794 125.998,-163.277 183.496,-141.259"/>
<polygon fill="midnightblue" stroke="midnightblue" points="184.903,-144.469 193.02,-137.659 182.429,-137.921 184.903,-144.469"/>
</g>
<!-- Node7 -->
<g id="node14" class="node"><title>Node7</title>
<a xlink:href="atomic_8h.html" target="_top" xlink:title="atomic.h">
<polygon fill="white" stroke="black" points="393.94,-116.5 393.94,-137.5 447.94,-137.5 447.94,-116.5 393.94,-116.5"/>
<text text-anchor="middle" x="420.94" y="-124.5" font-family="Helvetica,sans-Serif" font-size="10.00">atomic.h</text>
</a>
</g>
<!-- Node6&#45;&gt;Node7 -->
<g id="edge14" class="edge"><title>Node6&#45;&gt;Node7</title>
<path fill="none" stroke="midnightblue" d="M396.471,-580.348C404.628,-560.178 420.94,-514.857 420.94,-475 420.94,-475 420.94,-475 420.94,-243 420.94,-209.598 420.94,-170.785 420.94,-147.594"/>
<polygon fill="midnightblue" stroke="midnightblue" points="424.44,-147.556 420.94,-137.556 417.44,-147.556 424.44,-147.556"/>
</g>
<!-- Node15 -->
<g id="node33" class="node"><title>Node15</title>
<a xlink:href="objectset_8h.html" target="_top" xlink:title="objectset.h">
<polygon fill="white" stroke="black" points="259.44,-522.5 259.44,-543.5 324.44,-543.5 324.44,-522.5 259.44,-522.5"/>
<text text-anchor="middle" x="291.94" y="-530.5" font-family="Helvetica,sans-Serif" font-size="10.00">objectset.h</text>
</a>
</g>
<!-- Node6&#45;&gt;Node15 -->
<g id="edge36" class="edge"><title>Node6&#45;&gt;Node15</title>
<path fill="none" stroke="midnightblue" d="M373.599,-580.362C358.375,-571.532 336.499,-558.844 319.22,-548.822"/>
<polygon fill="midnightblue" stroke="midnightblue" points="320.572,-545.56 310.165,-543.571 317.06,-551.615 320.572,-545.56"/>
</g>
<!-- Node7&#45;&gt;Node4 -->
<g id="edge16" class="edge"><title>Node7&#45;&gt;Node4</title>
<path fill="none" stroke="midnightblue" d="M433.583,-116.295C457.337,-96.1819 508.821,-52.5904 537.538,-28.2752"/>
<polygon fill="midnightblue" stroke="midnightblue" points="539.958,-30.8123 545.328,-21.6792 535.434,-25.47 539.958,-30.8123"/>
</g>
<!-- Node8 -->
<g id="node17" class="node"><title>Node8</title>
<a xlink:href="commondefs_8h.html" target="_top" xlink:title="commondefs.h">
<polygon fill="white" stroke="black" points="99.4402,-58.5 99.4402,-79.5 180.44,-79.5 180.44,-58.5 99.4402,-58.5"/>
<text text-anchor="middle" x="139.94" y="-66.5" font-family="Helvetica,sans-Serif" font-size="10.00">commondefs.h</text>
</a>
</g>
<!-- Node7&#45;&gt;Node8 -->
<g id="edge18" class="edge"><title>Node7&#45;&gt;Node8</title>
<path fill="none" stroke="midnightblue" d="M393.741,-121.386C346.869,-111.711 250.179,-91.7539 190.604,-79.4574"/>
<polygon fill="midnightblue" stroke="midnightblue" points="191.156,-75.9975 180.655,-77.4037 189.741,-82.8529 191.156,-75.9975"/>
</g>
<!-- Node12 -->
<g id="node26" class="node"><title>Node12</title>
<a xlink:href="plftypes_8h.html" target="_top" xlink:title="plftypes.h">
<polygon fill="white" stroke="black" points="235.44,-58.5 235.44,-79.5 294.44,-79.5 294.44,-58.5 235.44,-58.5"/>
<text text-anchor="middle" x="264.94" y="-66.5" font-family="Helvetica,sans-Serif" font-size="10.00">plftypes.h</text>
</a>
</g>
<!-- Node7&#45;&gt;Node12 -->
<g id="edge28" class="edge"><title>Node7&#45;&gt;Node12</title>
<path fill="none" stroke="midnightblue" d="M393.767,-116.897C368.623,-107.549 330.997,-93.5595 302.891,-83.11"/>
<polygon fill="midnightblue" stroke="midnightblue" points="303.976,-79.7792 293.383,-79.5749 301.536,-86.3404 303.976,-79.7792"/>
</g>
<!-- Node14 -->
<g id="node31" class="node"><title>Node14</title>
<polygon fill="white" stroke="#bfbfbf" points="387.44,-58.5 387.44,-79.5 454.44,-79.5 454.44,-58.5 387.44,-58.5"/>
<text text-anchor="middle" x="420.94" y="-66.5" font-family="Helvetica,sans-Serif" font-size="10.00">odversion.h</text>
</g>
<!-- Node7&#45;&gt;Node14 -->
<g id="edge34" class="edge"><title>Node7&#45;&gt;Node14</title>
<path fill="none" stroke="midnightblue" d="M420.94,-116.362C420.94,-108.922 420.94,-98.7427 420.94,-89.7276"/>
<polygon fill="midnightblue" stroke="midnightblue" points="424.44,-89.5706 420.94,-79.5707 417.44,-89.5707 424.44,-89.5706"/>
</g>
<!-- Node8&#45;&gt;Node4 -->
<g id="edge20" class="edge"><title>Node8&#45;&gt;Node4</title>
<path fill="none" stroke="midnightblue" d="M180.572,-60.3944C185.074,-59.5389 189.599,-58.7215 193.94,-58 309.032,-38.8732 445.697,-23.0633 514.199,-15.6101"/>
<polygon fill="midnightblue" stroke="midnightblue" points="514.631,-19.0838 524.197,-14.5291 513.879,-12.1244 514.631,-19.0838"/>
</g>
<!-- Node9 -->
<g id="node20" class="node"><title>Node9</title>
<a xlink:href="plfdefs_8h.html" target="_top" xlink:title="plfdefs.h">
<polygon fill="white" stroke="black" points="171.94,-0.5 171.94,-21.5 225.94,-21.5 225.94,-0.5 171.94,-0.5"/>
<text text-anchor="middle" x="198.94" y="-8.5" font-family="Helvetica,sans-Serif" font-size="10.00">plfdefs.h</text>
</a>
</g>
<!-- Node8&#45;&gt;Node9 -->
<g id="edge22" class="edge"><title>Node8&#45;&gt;Node9</title>
<path fill="none" stroke="midnightblue" d="M150.762,-58.3619C159.162,-50.1043 170.994,-38.4725 180.83,-28.8029"/>
<polygon fill="midnightblue" stroke="midnightblue" points="183.51,-31.077 188.187,-21.5707 178.602,-26.0851 183.51,-31.077"/>
</g>
<!-- Node10 -->
<g id="node22" class="node"><title>Node10</title>
<polygon fill="white" stroke="#bfbfbf" points="0.440184,-0.5 0.440184,-21.5 59.4402,-21.5 59.4402,-0.5 0.440184,-0.5"/>
<text text-anchor="middle" x="29.9402" y="-8.5" font-family="Helvetica,sans-Serif" font-size="10.00">stdexcept</text>
</g>
<!-- Node8&#45;&gt;Node10 -->
<g id="edge24" class="edge"><title>Node8&#45;&gt;Node10</title>
<path fill="none" stroke="midnightblue" d="M120.02,-58.4966C102.994,-49.5194 78.271,-36.4835 59.0308,-26.3387"/>
<polygon fill="midnightblue" stroke="midnightblue" points="60.562,-23.1894 50.0839,-21.6212 57.2971,-29.3814 60.562,-23.1894"/>
</g>
<!-- Node11 -->
<g id="node24" class="node"><title>Node11</title>
<polygon fill="white" stroke="#bfbfbf" points="119.44,-0.5 119.44,-21.5 154.44,-21.5 154.44,-0.5 119.44,-0.5"/>
<text text-anchor="middle" x="136.94" y="-8.5" font-family="Helvetica,sans-Serif" font-size="10.00">new</text>
</g>
<!-- Node8&#45;&gt;Node11 -->
<g id="edge26" class="edge"><title>Node8&#45;&gt;Node11</title>
<path fill="none" stroke="midnightblue" d="M139.39,-58.3619C139.005,-50.9219 138.479,-40.7427 138.012,-31.7276"/>
<polygon fill="midnightblue" stroke="midnightblue" points="141.499,-31.3765 137.487,-21.5707 134.508,-31.7381 141.499,-31.3765"/>
</g>
<!-- Node12&#45;&gt;Node9 -->
<g id="edge30" class="edge"><title>Node12&#45;&gt;Node9</title>
<path fill="none" stroke="midnightblue" d="M252.835,-58.3619C243.252,-49.9408 229.676,-38.0105 218.548,-28.2308"/>
<polygon fill="midnightblue" stroke="midnightblue" points="220.791,-25.5427 210.969,-21.5707 216.17,-30.8009 220.791,-25.5427"/>
</g>
<!-- Node13 -->
<g id="node29" class="node"><title>Node13</title>
<polygon fill="white" stroke="#bfbfbf" points="243.44,-0.5 243.44,-21.5 292.44,-21.5 292.44,-0.5 243.44,-0.5"/>
<text text-anchor="middle" x="267.94" y="-8.5" font-family="Helvetica,sans-Serif" font-size="10.00">stdint.h</text>
</g>
<!-- Node12&#45;&gt;Node13 -->
<g id="edge32" class="edge"><title>Node12&#45;&gt;Node13</title>
<path fill="none" stroke="midnightblue" d="M265.49,-58.3619C265.875,-50.9219 266.402,-40.7427 266.868,-31.7276"/>
<polygon fill="midnightblue" stroke="midnightblue" points="270.372,-31.7381 267.393,-21.5707 263.381,-31.3765 270.372,-31.7381"/>
</g>
<!-- Node16 -->
<g id="node35" class="node"><title>Node16</title>
<a xlink:href="odset_8h.html" target="_top" xlink:title="odset.h">
<polygon fill="white" stroke="black" points="160.44,-464.5 160.44,-485.5 209.44,-485.5 209.44,-464.5 160.44,-464.5"/>
<text text-anchor="middle" x="184.94" y="-472.5" font-family="Helvetica,sans-Serif" font-size="10.00">odset.h</text>
</a>
</g>
<!-- Node15&#45;&gt;Node16 -->
<g id="edge38" class="edge"><title>Node15&#45;&gt;Node16</title>
<path fill="none" stroke="midnightblue" d="M272.315,-522.362C255.799,-513.409 231.966,-500.491 213.362,-490.406"/>
<polygon fill="midnightblue" stroke="midnightblue" points="214.901,-487.259 204.441,-485.571 211.565,-493.413 214.901,-487.259"/>
</g>
<!-- Node22 -->
<g id="node52" class="node"><title>Node22</title>
<a xlink:href="vectoraccess_8h.html" target="_top" xlink:title="vectoraccess.h">
<polygon fill="white" stroke="black" points="226.44,-464.5 226.44,-485.5 309.44,-485.5 309.44,-464.5 226.44,-464.5"/>
<text text-anchor="middle" x="267.94" y="-472.5" font-family="Helvetica,sans-Serif" font-size="10.00">vectoraccess.h</text>
</a>
</g>
<!-- Node15&#45;&gt;Node22 -->
<g id="edge60" class="edge"><title>Node15&#45;&gt;Node22</title>
<path fill="none" stroke="midnightblue" d="M287.538,-522.362C284.358,-514.677 279.969,-504.069 276.15,-494.84"/>
<polygon fill="midnightblue" stroke="midnightblue" points="279.372,-493.473 272.314,-485.571 272.904,-496.149 279.372,-493.473"/>
</g>
<!-- Node17 -->
<g id="node37" class="node"><title>Node17</title>
<a xlink:href="gendefs_8h.html" target="_top" xlink:title="gendefs.h">
<polygon fill="white" stroke="black" points="148.44,-174.5 148.44,-195.5 207.44,-195.5 207.44,-174.5 148.44,-174.5"/>
<text text-anchor="middle" x="177.94" y="-182.5" font-family="Helvetica,sans-Serif" font-size="10.00">gendefs.h</text>
</a>
</g>
<!-- Node16&#45;&gt;Node17 -->
<g id="edge40" class="edge"><title>Node16&#45;&gt;Node17</title>
<path fill="none" stroke="midnightblue" d="M170.101,-464.354C146.228,-445.858 101.94,-405.307 101.94,-359 101.94,-359 101.94,-359 101.94,-301 101.94,-260.51 134.738,-223.158 157.242,-202.295"/>
<polygon fill="midnightblue" stroke="midnightblue" points="159.58,-204.899 164.702,-195.625 154.914,-199.681 159.58,-204.899"/>
</g>
<!-- Node18 -->
<g id="node39" class="node"><title>Node18</title>
<a xlink:href="undefval_8h.html" target="_top" xlink:title="undefval.h">
<polygon fill="white" stroke="black" points="275.94,-116.5 275.94,-137.5 337.94,-137.5 337.94,-116.5 275.94,-116.5"/>
<text text-anchor="middle" x="306.94" y="-124.5" font-family="Helvetica,sans-Serif" font-size="10.00">undefval.h</text>
</a>
</g>
<!-- Node17&#45;&gt;Node18 -->
<g id="edge42" class="edge"><title>Node17&#45;&gt;Node18</title>
<path fill="none" stroke="midnightblue" d="M201.301,-174.497C221.631,-165.356 251.319,-152.008 274.049,-141.788"/>
<polygon fill="midnightblue" stroke="midnightblue" points="275.632,-144.914 283.317,-137.621 272.761,-138.53 275.632,-144.914"/>
</g>
<!-- Node19 -->
<g id="node44" class="node"><title>Node19</title>
<a xlink:href="commontypes_8h.html" target="_top" xlink:title="commontypes.h">
<polygon fill="white" stroke="black" points="83.9402,-116.5 83.9402,-137.5 169.94,-137.5 169.94,-116.5 83.9402,-116.5"/>
<text text-anchor="middle" x="126.94" y="-124.5" font-family="Helvetica,sans-Serif" font-size="10.00">commontypes.h</text>
</a>
</g>
<!-- Node17&#45;&gt;Node19 -->
<g id="edge50" class="edge"><title>Node17&#45;&gt;Node19</title>
<path fill="none" stroke="midnightblue" d="M168.586,-174.362C161.397,-166.186 151.299,-154.702 142.847,-145.091"/>
<polygon fill="midnightblue" stroke="midnightblue" points="145.467,-142.769 136.235,-137.571 140.21,-147.392 145.467,-142.769"/>
</g>
<!-- Node20 -->
<g id="node47" class="node"><title>Node20</title>
<a xlink:href="errmsg_8h.html" target="_top" xlink:title="errmsg.h">
<polygon fill="white" stroke="black" points="11.4402,-116.5 11.4402,-137.5 66.4402,-137.5 66.4402,-116.5 11.4402,-116.5"/>
<text text-anchor="middle" x="38.9402" y="-124.5" font-family="Helvetica,sans-Serif" font-size="10.00">errmsg.h</text>
</a>
</g>
<!-- Node17&#45;&gt;Node20 -->
<g id="edge54" class="edge"><title>Node17&#45;&gt;Node20</title>
<path fill="none" stroke="midnightblue" d="M152.768,-174.497C130.667,-165.275 98.3015,-151.769 73.7268,-141.515"/>
<polygon fill="midnightblue" stroke="midnightblue" points="74.9711,-138.242 64.3945,-137.621 72.2755,-144.702 74.9711,-138.242"/>
</g>
<!-- Node18&#45;&gt;Node4 -->
<g id="edge44" class="edge"><title>Node18&#45;&gt;Node4</title>
<path fill="none" stroke="midnightblue" d="M309.948,-116.263C314.839,-100.863 326.033,-72.7371 345.94,-58 372.2,-38.5605 460.085,-23.8989 514.109,-16.4568"/>
<polygon fill="midnightblue" stroke="midnightblue" points="514.664,-19.9137 524.107,-15.1085 513.729,-12.9765 514.664,-19.9137"/>
</g>
<!-- Node18&#45;&gt;Node8 -->
<g id="edge46" class="edge"><title>Node18&#45;&gt;Node8</title>
<path fill="none" stroke="midnightblue" d="M276.698,-116.497C249.59,-107.082 209.63,-93.2036 179.897,-82.8773"/>
<polygon fill="midnightblue" stroke="midnightblue" points="180.834,-79.4977 170.239,-79.5231 178.538,-86.1102 180.834,-79.4977"/>
</g>
<!-- Node18&#45;&gt;Node12 -->
<g id="edge48" class="edge"><title>Node18&#45;&gt;Node12</title>
<path fill="none" stroke="midnightblue" d="M299.237,-116.362C293.494,-108.431 285.497,-97.3885 278.67,-87.9606"/>
<polygon fill="midnightblue" stroke="midnightblue" points="281.295,-85.6173 272.595,-79.5707 275.625,-89.7229 281.295,-85.6173"/>
</g>
<!-- Node19&#45;&gt;Node8 -->
<g id="edge52" class="edge"><title>Node19&#45;&gt;Node8</title>
<path fill="none" stroke="midnightblue" d="M129.325,-116.362C131.01,-108.84 133.324,-98.5187 135.361,-89.4308"/>
<polygon fill="midnightblue" stroke="midnightblue" points="138.799,-90.0941 137.571,-79.5707 131.968,-88.563 138.799,-90.0941"/>
</g>
<!-- Node20&#45;&gt;Node8 -->
<g id="edge56" class="edge"><title>Node20&#45;&gt;Node8</title>
<path fill="none" stroke="midnightblue" d="M57.4651,-116.362C72.8413,-107.532 94.9361,-94.844 112.387,-84.8224"/>
<polygon fill="midnightblue" stroke="midnightblue" points="114.604,-87.5857 121.533,-79.5707 111.118,-81.5154 114.604,-87.5857"/>
</g>
<!-- Node21 -->
<g id="node50" class="node"><title>Node21</title>
<polygon fill="white" stroke="#bfbfbf" points="13.4402,-58.5 13.4402,-79.5 64.4402,-79.5 64.4402,-58.5 13.4402,-58.5"/>
<text text-anchor="middle" x="38.9402" y="-66.5" font-family="Helvetica,sans-Serif" font-size="10.00">typeinfo</text>
</g>
<!-- Node20&#45;&gt;Node21 -->
<g id="edge58" class="edge"><title>Node20&#45;&gt;Node21</title>
<path fill="none" stroke="midnightblue" d="M38.9402,-116.362C38.9402,-108.922 38.9402,-98.7427 38.9402,-89.7276"/>
<polygon fill="midnightblue" stroke="midnightblue" points="42.4403,-89.5706 38.9402,-79.5707 35.4403,-89.5707 42.4403,-89.5706"/>
</g>
<!-- Node22&#45;&gt;Node10 -->
<g id="edge100" class="edge"><title>Node22&#45;&gt;Node10</title>
<path fill="none" stroke="midnightblue" d="M239.35,-464.36C220.833,-456.425 197.068,-444.171 179.94,-428 70.1453,-324.338 43.7976,-283.367 2.94018,-138 -0.674438,-125.14 -1.59131,-82.3894 4.94018,-58 7.5178,-48.3749 12.3584,-38.5209 17.0986,-30.3379"/>
<polygon fill="midnightblue" stroke="midnightblue" points="20.2086,-31.9627 22.4757,-21.6132 14.2494,-28.29 20.2086,-31.9627"/>
</g>
<!-- Node22&#45;&gt;Node17 -->
<g id="edge94" class="edge"><title>Node22&#45;&gt;Node17</title>
<path fill="none" stroke="midnightblue" d="M243.543,-464.429C228.042,-456.523 208.742,-444.276 196.94,-428 178.268,-402.249 177.94,-390.808 177.94,-359 177.94,-359 177.94,-359 177.94,-301 177.94,-267.598 177.94,-228.785 177.94,-205.594"/>
<polygon fill="midnightblue" stroke="midnightblue" points="181.44,-205.556 177.94,-195.556 174.44,-205.556 181.44,-205.556"/>
</g>
<!-- Node23 -->
<g id="node54" class="node"><title>Node23</title>
<a xlink:href="debug_8h.html" target="_top" xlink:title="debug.h">
<polygon fill="white" stroke="black" points="341.44,-406.5 341.44,-427.5 392.44,-427.5 392.44,-406.5 341.44,-406.5"/>
<text text-anchor="middle" x="366.94" y="-414.5" font-family="Helvetica,sans-Serif" font-size="10.00">debug.h</text>
</a>
</g>
<!-- Node22&#45;&gt;Node23 -->
<g id="edge62" class="edge"><title>Node22&#45;&gt;Node23</title>
<path fill="none" stroke="midnightblue" d="M286.098,-464.362C301.17,-455.532 322.827,-442.844 339.933,-432.822"/>
<polygon fill="midnightblue" stroke="midnightblue" points="342.038,-435.646 348.897,-427.571 338.5,-429.606 342.038,-435.646"/>
</g>
<!-- Node30 -->
<g id="node78" class="node"><title>Node30</title>
<polygon fill="white" stroke="#bfbfbf" points="205.94,-406.5 205.94,-427.5 261.94,-427.5 261.94,-406.5 205.94,-406.5"/>
<text text-anchor="middle" x="233.94" y="-414.5" font-family="Helvetica,sans-Serif" font-size="10.00">algorithm</text>
</g>
<!-- Node22&#45;&gt;Node30 -->
<g id="edge96" class="edge"><title>Node22&#45;&gt;Node30</title>
<path fill="none" stroke="midnightblue" d="M261.704,-464.362C257.103,-456.513 250.715,-445.616 245.226,-436.253"/>
<polygon fill="midnightblue" stroke="midnightblue" points="248.213,-434.428 240.137,-427.571 242.175,-437.968 248.213,-434.428"/>
</g>
<!-- Node31 -->
<g id="node80" class="node"><title>Node31</title>
<polygon fill="white" stroke="#bfbfbf" points="279.94,-406.5 279.94,-427.5 323.94,-427.5 323.94,-406.5 279.94,-406.5"/>
<text text-anchor="middle" x="301.94" y="-414.5" font-family="Helvetica,sans-Serif" font-size="10.00">vector</text>
</g>
<!-- Node22&#45;&gt;Node31 -->
<g id="edge98" class="edge"><title>Node22&#45;&gt;Node31</title>
<path fill="none" stroke="midnightblue" d="M274.176,-464.362C278.777,-456.513 285.165,-445.616 290.654,-436.253"/>
<polygon fill="midnightblue" stroke="midnightblue" points="293.706,-437.968 295.744,-427.571 287.667,-434.428 293.706,-437.968"/>
</g>
<!-- Node23&#45;&gt;Node4 -->
<g id="edge64" class="edge"><title>Node23&#45;&gt;Node4</title>
<path fill="none" stroke="midnightblue" d="M366.788,-406.444C366.509,-386.063 365.94,-339.869 365.94,-301 365.94,-301 365.94,-301 365.94,-185 365.94,-128.261 342.041,-101.102 378.94,-58 396.363,-37.6486 467.045,-23.8674 514.205,-16.7326"/>
<polygon fill="midnightblue" stroke="midnightblue" points="514.79,-20.1844 524.175,-15.2695 513.773,-13.2585 514.79,-20.1844"/>
</g>
<!-- Node23&#45;&gt;Node17 -->
<g id="edge66" class="edge"><title>Node23&#45;&gt;Node17</title>
<path fill="none" stroke="midnightblue" d="M358.328,-406.429C328.749,-370.12 231.047,-250.19 193.151,-203.671"/>
<polygon fill="midnightblue" stroke="midnightblue" points="195.632,-201.176 186.603,-195.634 190.205,-205.597 195.632,-201.176"/>
</g>
<!-- Node23&#45;&gt;Node24 -->
<g id="edge68" class="edge"><title>Node23&#45;&gt;Node24</title>
<path fill="none" stroke="midnightblue" d="M392.509,-411.904C442.985,-401.843 555.818,-379.354 616.854,-367.189"/>
<polygon fill="midnightblue" stroke="midnightblue" points="617.781,-370.573 626.904,-365.186 616.413,-363.708 617.781,-370.573"/>
</g>
<!-- Node24&#45;&gt;Node4 -->
<g id="edge70" class="edge"><title>Node24&#45;&gt;Node4</title>
<path fill="none" stroke="midnightblue" d="M667.596,-348.441C704.354,-306.96 829.786,-152.803 754.94,-58 736.199,-34.262 653.685,-21.2035 601.571,-15.1909"/>
<polygon fill="midnightblue" stroke="midnightblue" points="601.907,-11.7067 591.582,-14.0812 601.134,-18.6639 601.907,-11.7067"/>
</g>
<!-- Node25 -->
<g id="node61" class="node"><title>Node25</title>
<a xlink:href="fixedstring_8h.html" target="_top" xlink:title="fixedstring.h">
<polygon fill="white" stroke="black" points="770.94,-290.5 770.94,-311.5 840.94,-311.5 840.94,-290.5 770.94,-290.5"/>
<text text-anchor="middle" x="805.94" y="-298.5" font-family="Helvetica,sans-Serif" font-size="10.00">fixedstring.h</text>
</a>
</g>
<!-- Node24&#45;&gt;Node25 -->
<g id="edge72" class="edge"><title>Node24&#45;&gt;Node25</title>
<path fill="none" stroke="midnightblue" d="M684.742,-348.497C708.378,-339.234 743.041,-325.65 769.248,-315.379"/>
<polygon fill="midnightblue" stroke="midnightblue" points="770.804,-318.529 778.838,-311.621 768.25,-312.011 770.804,-318.529"/>
</g>
<!-- Node27 -->
<g id="node68" class="node"><title>Node27</title>
<a xlink:href="string2_8h.html" target="_top" xlink:title="string2.h">
<polygon fill="white" stroke="black" points="620.94,-116.5 620.94,-137.5 674.94,-137.5 674.94,-116.5 620.94,-116.5"/>
<text text-anchor="middle" x="647.94" y="-124.5" font-family="Helvetica,sans-Serif" font-size="10.00">string2.h</text>
</a>
</g>
<!-- Node24&#45;&gt;Node27 -->
<g id="edge82" class="edge"><title>Node24&#45;&gt;Node27</title>
<path fill="none" stroke="midnightblue" d="M657.485,-348.429C655.942,-312.648 650.9,-195.663 648.834,-147.748"/>
<polygon fill="midnightblue" stroke="midnightblue" points="652.326,-147.473 648.399,-137.634 645.333,-147.775 652.326,-147.473"/>
</g>
<!-- Node25&#45;&gt;Node4 -->
<g id="edge74" class="edge"><title>Node25&#45;&gt;Node4</title>
<path fill="none" stroke="midnightblue" d="M813.01,-290.319C825.447,-270.463 849.94,-226.139 849.94,-185 849.94,-185 849.94,-185 849.94,-127 849.94,-91.0989 837.471,-78.4168 807.94,-58 775.164,-35.3391 664.375,-21.272 601.841,-14.943"/>
<polygon fill="midnightblue" stroke="midnightblue" points="602.164,-11.4579 591.868,-13.9578 601.476,-18.424 602.164,-11.4579"/>
</g>
<!-- Node26 -->
<g id="node64" class="node"><title>Node26</title>
<a xlink:href="odstring_8h.html" target="_top" xlink:title="odstring.h">
<polygon fill="white" stroke="black" points="763.44,-232.5 763.44,-253.5 822.44,-253.5 822.44,-232.5 763.44,-232.5"/>
<text text-anchor="middle" x="792.94" y="-240.5" font-family="Helvetica,sans-Serif" font-size="10.00">odstring.h</text>
</a>
</g>
<!-- Node25&#45;&gt;Node26 -->
<g id="edge76" class="edge"><title>Node25&#45;&gt;Node26</title>
<path fill="none" stroke="midnightblue" d="M803.556,-290.362C801.87,-282.84 799.556,-272.519 797.519,-263.431"/>
<polygon fill="midnightblue" stroke="midnightblue" points="800.912,-262.563 795.309,-253.571 794.081,-264.094 800.912,-262.563"/>
</g>
<!-- Node26&#45;&gt;Node4 -->
<g id="edge78" class="edge"><title>Node26&#45;&gt;Node4</title>
<path fill="none" stroke="midnightblue" d="M796.715,-232.234C806.891,-201.064 831.31,-109.687 787.94,-58 764.586,-30.1673 662.198,-18.3056 602.193,-13.6691"/>
<polygon fill="midnightblue" stroke="midnightblue" points="602.099,-10.1528 591.869,-12.9102 601.586,-17.134 602.099,-10.1528"/>
</g>
<!-- Node26&#45;&gt;Node17 -->
<g id="edge80" class="edge"><title>Node26&#45;&gt;Node17</title>
<path fill="none" stroke="midnightblue" d="M763.277,-240.203C662.413,-230.69 332.59,-199.585 217.775,-188.757"/>
<polygon fill="midnightblue" stroke="midnightblue" points="217.949,-185.258 207.665,-187.803 217.292,-192.227 217.949,-185.258"/>
</g>
<!-- Node27&#45;&gt;Node4 -->
<g id="edge84" class="edge"><title>Node27&#45;&gt;Node4</title>
<path fill="none" stroke="midnightblue" d="M639.635,-116.295C624.364,-96.6135 591.652,-54.4504 572.578,-29.8668"/>
<polygon fill="midnightblue" stroke="midnightblue" points="575.121,-27.4346 566.226,-21.6792 569.59,-31.7256 575.121,-27.4346"/>
</g>
<!-- Node27&#45;&gt;Node8 -->
<g id="edge88" class="edge"><title>Node27&#45;&gt;Node8</title>
<path fill="none" stroke="midnightblue" d="M620.835,-124.113C553.925,-116.955 375.554,-97.6897 226.94,-80 215.248,-78.6082 202.679,-77.0533 190.831,-75.561"/>
<polygon fill="midnightblue" stroke="midnightblue" points="191.005,-72.0552 180.645,-74.2713 190.126,-78.9997 191.005,-72.0552"/>
</g>
<!-- Node27&#45;&gt;Node12 -->
<g id="edge86" class="edge"><title>Node27&#45;&gt;Node12</title>
<path fill="none" stroke="midnightblue" d="M620.703,-122.875C554.054,-112.782 382.529,-86.8072 304.565,-75.0007"/>
<polygon fill="midnightblue" stroke="midnightblue" points="305.059,-71.5356 294.648,-73.4988 304.011,-78.4567 305.059,-71.5356"/>
</g>
<!-- Node28 -->
<g id="node73" class="node"><title>Node28</title>
<polygon fill="white" stroke="#bfbfbf" points="623.44,-58.5 623.44,-79.5 672.44,-79.5 672.44,-58.5 623.44,-58.5"/>
<text text-anchor="middle" x="647.94" y="-66.5" font-family="Helvetica,sans-Serif" font-size="10.00">ctype.h</text>
</g>
<!-- Node27&#45;&gt;Node28 -->
<g id="edge90" class="edge"><title>Node27&#45;&gt;Node28</title>
<path fill="none" stroke="midnightblue" d="M647.94,-116.362C647.94,-108.922 647.94,-98.7427 647.94,-89.7276"/>
<polygon fill="midnightblue" stroke="midnightblue" points="651.44,-89.5706 647.94,-79.5707 644.44,-89.5707 651.44,-89.5706"/>
</g>
<!-- Node29 -->
<g id="node75" class="node"><title>Node29</title>
<polygon fill="white" stroke="#bfbfbf" points="689.94,-58.5 689.94,-79.5 745.94,-79.5 745.94,-58.5 689.94,-58.5"/>
<text text-anchor="middle" x="717.94" y="-66.5" font-family="Helvetica,sans-Serif" font-size="10.00">wctype.h</text>
</g>
<!-- Node27&#45;&gt;Node29 -->
<g id="edge92" class="edge"><title>Node27&#45;&gt;Node29</title>
<path fill="none" stroke="midnightblue" d="M660.779,-116.362C670.943,-107.941 685.341,-96.0105 697.144,-86.2308"/>
<polygon fill="midnightblue" stroke="midnightblue" points="699.715,-88.6459 705.182,-79.5707 695.249,-83.2558 699.715,-88.6459"/>
</g>
<!-- Node32&#45;&gt;Node15 -->
<g id="edge110" class="edge"><title>Node32&#45;&gt;Node15</title>
<path fill="none" stroke="midnightblue" d="M291.94,-580.362C291.94,-572.922 291.94,-562.743 291.94,-553.728"/>
<polygon fill="midnightblue" stroke="midnightblue" points="295.44,-553.571 291.94,-543.571 288.44,-553.571 295.44,-553.571"/>
</g>
<!-- Node33 -->
<g id="node85" class="node"><title>Node33</title>
<a xlink:href="typeset_8h.html" target="_top" xlink:title="typeset.h">
<polygon fill="white" stroke="black" points="185.44,-522.5 185.44,-543.5 242.44,-543.5 242.44,-522.5 185.44,-522.5"/>
<text text-anchor="middle" x="213.94" y="-530.5" font-family="Helvetica,sans-Serif" font-size="10.00">typeset.h</text>
</a>
</g>
<!-- Node32&#45;&gt;Node33 -->
<g id="edge104" class="edge"><title>Node32&#45;&gt;Node33</title>
<path fill="none" stroke="midnightblue" d="M277.634,-580.362C266.089,-571.777 249.64,-559.546 236.35,-549.664"/>
<polygon fill="midnightblue" stroke="midnightblue" points="238.269,-546.729 228.156,-543.571 234.092,-552.346 238.269,-546.729"/>
</g>
<!-- Node33&#45;&gt;Node16 -->
<g id="edge106" class="edge"><title>Node33&#45;&gt;Node16</title>
<path fill="none" stroke="midnightblue" d="M208.621,-522.362C204.738,-514.595 199.361,-503.843 194.713,-494.546"/>
<polygon fill="midnightblue" stroke="midnightblue" points="197.828,-492.95 190.226,-485.571 191.567,-496.08 197.828,-492.95"/>
</g>
<!-- Node33&#45;&gt;Node22 -->
<g id="edge108" class="edge"><title>Node33&#45;&gt;Node22</title>
<path fill="none" stroke="midnightblue" d="M223.845,-522.362C231.457,-514.186 242.148,-502.702 251.097,-493.091"/>
<polygon fill="midnightblue" stroke="midnightblue" points="253.846,-495.275 258.099,-485.571 248.723,-490.505 253.846,-495.275"/>
</g>
<!-- Node34&#45;&gt;Node4 -->
<g id="edge114" class="edge"><title>Node34&#45;&gt;Node4</title>
<path fill="none" stroke="midnightblue" d="M219.861,-116.318C216.236,-101.243 212.397,-73.8058 226.94,-58 246.134,-37.1403 428.78,-20.7478 514.242,-14.1515"/>
<polygon fill="midnightblue" stroke="midnightblue" points="514.704,-17.6265 524.41,-13.3776 514.173,-10.6467 514.704,-17.6265"/>
</g>
<!-- Node34&#45;&gt;Node8 -->
<g id="edge116" class="edge"><title>Node34&#45;&gt;Node8</title>
<path fill="none" stroke="midnightblue" d="M207.717,-116.362C195.315,-107.696 177.594,-95.3126 163.383,-85.3819"/>
<polygon fill="midnightblue" stroke="midnightblue" points="165.269,-82.4297 155.067,-79.5707 161.259,-88.1676 165.269,-82.4297"/>
</g>
<!-- Node34&#45;&gt;Node12 -->
<g id="edge118" class="edge"><title>Node34&#45;&gt;Node12</title>
<path fill="none" stroke="midnightblue" d="M230.644,-116.362C236.386,-108.431 244.383,-97.3885 251.21,-87.9606"/>
<polygon fill="midnightblue" stroke="midnightblue" points="254.255,-89.7229 257.286,-79.5707 248.586,-85.6173 254.255,-89.7229"/>
</g>
<!-- Node35&#45;&gt;Node4 -->
<g id="edge124" class="edge"><title>Node35&#45;&gt;Node4</title>
<path fill="none" stroke="midnightblue" d="M764.477,-471.189C816.3,-462.089 925.94,-433.978 925.94,-359 925.94,-359 925.94,-359 925.94,-127 925.94,-86.0677 900.874,-77.602 864.94,-58 820.445,-33.7274 675.729,-19.7574 601.993,-14.0487"/>
<polygon fill="midnightblue" stroke="midnightblue" points="601.885,-10.5306 591.649,-13.2662 601.356,-17.5107 601.885,-10.5306"/>
</g>
<!-- Node35&#45;&gt;Node25 -->
<g id="edge134" class="edge"><title>Node35&#45;&gt;Node25</title>
<path fill="none" stroke="midnightblue" d="M742.092,-464.377C753.162,-436.051 783.528,-358.349 798.029,-321.242"/>
<polygon fill="midnightblue" stroke="midnightblue" points="801.289,-322.516 801.67,-311.928 794.77,-319.968 801.289,-322.516"/>
</g>
<!-- Node35&#45;&gt;Node27 -->
<g id="edge132" class="edge"><title>Node35&#45;&gt;Node27</title>
<path fill="none" stroke="midnightblue" d="M735.652,-464.246C727.24,-425.061 696.802,-286.335 663.94,-174 661.354,-165.158 658.138,-155.508 655.27,-147.264"/>
<polygon fill="midnightblue" stroke="midnightblue" points="658.535,-145.999 651.895,-137.742 651.937,-148.337 658.535,-145.999"/>
</g>
<!-- Node36 -->
<g id="node99" class="node"><title>Node36</title>
<a xlink:href="compoundkey_8h.html" target="_top" xlink:title="compoundkey.h">
<polygon fill="white" stroke="black" points="623.94,-406.5 623.94,-427.5 709.94,-427.5 709.94,-406.5 623.94,-406.5"/>
<text text-anchor="middle" x="666.94" y="-414.5" font-family="Helvetica,sans-Serif" font-size="10.00">compoundkey.h</text>
</a>
</g>
<!-- Node35&#45;&gt;Node36 -->
<g id="edge126" class="edge"><title>Node35&#45;&gt;Node36</title>
<path fill="none" stroke="midnightblue" d="M724.918,-464.362C714.509,-455.859 699.721,-443.779 687.685,-433.947"/>
<polygon fill="midnightblue" stroke="midnightblue" points="689.839,-431.187 679.88,-427.571 685.41,-436.608 689.839,-431.187"/>
</g>
<!-- Node36&#45;&gt;Node4 -->
<g id="edge128" class="edge"><title>Node36&#45;&gt;Node4</title>
<path fill="none" stroke="midnightblue" d="M700.477,-406.451C741.646,-391.798 810.802,-361.37 849.94,-312 886.541,-265.831 887.94,-243.917 887.94,-185 887.94,-185 887.94,-185 887.94,-127 887.94,-88.3308 868.069,-77.9455 834.94,-58 796.385,-34.7871 669.492,-20.6187 601.642,-14.5168"/>
<polygon fill="midnightblue" stroke="midnightblue" points="601.948,-11.0302 591.68,-13.6407 601.335,-18.0033 601.948,-11.0302"/>
</g>
<!-- Node36&#45;&gt;Node24 -->
<g id="edge130" class="edge"><title>Node36&#45;&gt;Node24</title>
<path fill="none" stroke="midnightblue" d="M665.289,-406.362C664.135,-398.922 662.555,-388.743 661.157,-379.728"/>
<polygon fill="midnightblue" stroke="midnightblue" points="664.573,-378.916 659.58,-369.571 657.655,-379.989 664.573,-378.916"/>
</g>
</g>
</svg>
