<?xml version="1.0" encoding="UTF-8" standalone="no"?>
<!DOCTYPE svg PUBLIC "-//W3C//DTD SVG 1.1//EN"
 "http://www.w3.org/Graphics/SVG/1.1/DTD/svg11.dtd">
<!-- Generated by graphviz version 2.26.0 (20091210.2329)
 -->
<!-- Title: iosubdir.h Pages: 1 -->
<svg width="1050pt" height="842pt"
 viewBox="0.00 0.00 1050.00 842.00" xmlns="http://www.w3.org/2000/svg" xmlns:xlink="http://www.w3.org/1999/xlink">
<g id="graph1" class="graph" transform="scale(1 1) rotate(0) translate(4 838)">
<title>iosubdir.h</title>
<polygon fill="white" stroke="white" points="-4,5 -4,-838 1047,-838 1047,5 -4,5"/>
<!-- Node1 -->
<g id="node1" class="node"><title>Node1</title>
<polygon fill="#bfbfbf" stroke="black" points="192.5,-812.5 192.5,-833.5 251.5,-833.5 251.5,-812.5 192.5,-812.5"/>
<text text-anchor="middle" x="222" y="-820.5" font-family="Helvetica,sans-Serif" font-size="10.00">iosubdir.h</text>
</g>
<!-- Node2 -->
<g id="node3" class="node"><title>Node2</title>
<a xlink:href="ioobj_8h.html" target="_top" xlink:title="ioobj.h">
<polygon fill="white" stroke="black" points="199.5,-754.5 199.5,-775.5 244.5,-775.5 244.5,-754.5 199.5,-754.5"/>
<text text-anchor="middle" x="222" y="-762.5" font-family="Helvetica,sans-Serif" font-size="10.00">ioobj.h</text>
</a>
</g>
<!-- Node1&#45;&gt;Node2 -->
<g id="edge2" class="edge"><title>Node1&#45;&gt;Node2</title>
<path fill="none" stroke="midnightblue" d="M222,-812.362C222,-804.922 222,-794.743 222,-785.728"/>
<polygon fill="midnightblue" stroke="midnightblue" points="225.5,-785.571 222,-775.571 218.5,-785.571 225.5,-785.571"/>
</g>
<!-- Node3 -->
<g id="node5" class="node"><title>Node3</title>
<polygon fill="white" stroke="#bfbfbf" points="-0.5,-696.5 -0.5,-717.5 74.5,-717.5 74.5,-696.5 -0.5,-696.5"/>
<text text-anchor="middle" x="37" y="-704.5" font-family="Helvetica,sans-Serif" font-size="10.00">generalmod.h</text>
</g>
<!-- Node2&#45;&gt;Node3 -->
<g id="edge4" class="edge"><title>Node2&#45;&gt;Node3</title>
<path fill="none" stroke="midnightblue" d="M199.315,-757.888C169.733,-748.614 117.374,-732.198 80.1257,-720.52"/>
<polygon fill="midnightblue" stroke="midnightblue" points="81.118,-717.164 70.5289,-717.512 79.0239,-723.843 81.118,-717.164"/>
</g>
<!-- Node4 -->
<g id="node7" class="node"><title>Node4</title>
<a xlink:href="multiid_8h.html" target="_top" xlink:title="multiid.h">
<polygon fill="white" stroke="black" points="136.5,-464.5 136.5,-485.5 189.5,-485.5 189.5,-464.5 136.5,-464.5"/>
<text text-anchor="middle" x="163" y="-472.5" font-family="Helvetica,sans-Serif" font-size="10.00">multiid.h</text>
</a>
</g>
<!-- Node2&#45;&gt;Node4 -->
<g id="edge6" class="edge"><title>Node2&#45;&gt;Node4</title>
<path fill="none" stroke="midnightblue" d="M199.429,-755.551C164.668,-739.313 102,-702.605 102,-649 102,-649 102,-649 102,-591 102,-552.834 128.188,-514.883 146.246,-493.249"/>
<polygon fill="midnightblue" stroke="midnightblue" points="149.026,-495.385 152.927,-485.535 143.735,-490.802 149.026,-495.385"/>
</g>
<!-- Node24 -->
<g id="node61" class="node"><title>Node24</title>
<a xlink:href="namedobj_8h.html" target="_top" xlink:title="namedobj.h">
<polygon fill="white" stroke="black" points="249.5,-696.5 249.5,-717.5 316.5,-717.5 316.5,-696.5 249.5,-696.5"/>
<text text-anchor="middle" x="283" y="-704.5" font-family="Helvetica,sans-Serif" font-size="10.00">namedobj.h</text>
</a>
</g>
<!-- Node2&#45;&gt;Node24 -->
<g id="edge74" class="edge"><title>Node2&#45;&gt;Node24</title>
<path fill="none" stroke="midnightblue" d="M233.188,-754.362C241.959,-746.023 254.349,-734.242 264.578,-724.516"/>
<polygon fill="midnightblue" stroke="midnightblue" points="267.047,-726.998 271.883,-717.571 262.224,-721.925 267.047,-726.998"/>
</g>
<!-- Node38 -->
<g id="node107" class="node"><title>Node38</title>
<a xlink:href="uistring_8h.html" target="_top" xlink:title="uistring.h">
<polygon fill="white" stroke="black" points="651,-580.5 651,-601.5 707,-601.5 707,-580.5 651,-580.5"/>
<text text-anchor="middle" x="679" y="-588.5" font-family="Helvetica,sans-Serif" font-size="10.00">uistring.h</text>
</a>
</g>
<!-- Node2&#45;&gt;Node38 -->
<g id="edge138" class="edge"><title>Node2&#45;&gt;Node38</title>
<path fill="none" stroke="midnightblue" d="M244.651,-762.149C323.846,-751.781 586.944,-713.843 650,-660 664.313,-647.778 671.713,-627.298 675.441,-611.817"/>
<polygon fill="midnightblue" stroke="midnightblue" points="678.953,-612.119 677.553,-601.617 672.098,-610.7 678.953,-612.119"/>
</g>
<!-- Node5 -->
<g id="node9" class="node"><title>Node5</title>
<polygon fill="white" stroke="#bfbfbf" points="267.5,-0.5 267.5,-21.5 334.5,-21.5 334.5,-0.5 267.5,-0.5"/>
<text text-anchor="middle" x="301" y="-8.5" font-family="Helvetica,sans-Serif" font-size="10.00">basicmod.h</text>
</g>
<!-- Node4&#45;&gt;Node5 -->
<g id="edge8" class="edge"><title>Node4&#45;&gt;Node5</title>
<path fill="none" stroke="midnightblue" d="M150.956,-464.492C130.699,-445.586 92,-403.626 92,-359 92,-359 92,-359 92,-127 92,-52.0719 195.964,-25.1335 257.242,-15.7633"/>
<polygon fill="midnightblue" stroke="midnightblue" points="258.017,-19.1882 267.421,-14.3076 257.026,-12.2588 258.017,-19.1882"/>
</g>
<!-- Node6 -->
<g id="node11" class="node"><title>Node6</title>
<a xlink:href="compoundkey_8h.html" target="_top" xlink:title="compoundkey.h">
<polygon fill="white" stroke="black" points="191,-406.5 191,-427.5 277,-427.5 277,-406.5 191,-406.5"/>
<text text-anchor="middle" x="234" y="-414.5" font-family="Helvetica,sans-Serif" font-size="10.00">compoundkey.h</text>
</a>
</g>
<!-- Node4&#45;&gt;Node6 -->
<g id="edge10" class="edge"><title>Node4&#45;&gt;Node6</title>
<path fill="none" stroke="midnightblue" d="M176.022,-464.362C186.431,-455.859 201.219,-443.779 213.255,-433.947"/>
<polygon fill="midnightblue" stroke="midnightblue" points="215.53,-436.608 221.06,-427.571 211.101,-431.187 215.53,-436.608"/>
</g>
<!-- Node8 -->
<g id="node17" class="node"><title>Node8</title>
<a xlink:href="fixedstring_8h.html" target="_top" xlink:title="fixedstring.h">
<polygon fill="white" stroke="black" points="211,-290.5 211,-311.5 281,-311.5 281,-290.5 211,-290.5"/>
<text text-anchor="middle" x="246" y="-298.5" font-family="Helvetica,sans-Serif" font-size="10.00">fixedstring.h</text>
</a>
</g>
<!-- Node4&#45;&gt;Node8 -->
<g id="edge72" class="edge"><title>Node4&#45;&gt;Node8</title>
<path fill="none" stroke="midnightblue" d="M164.919,-464.453C169.384,-441.791 181.959,-387.324 206,-348 212.268,-337.747 220.722,-327.457 228.243,-319.13"/>
<polygon fill="midnightblue" stroke="midnightblue" points="230.805,-321.513 235.066,-311.813 225.686,-316.739 230.805,-321.513"/>
</g>
<!-- Node21 -->
<g id="node50" class="node"><title>Node21</title>
<a xlink:href="string2_8h.html" target="_top" xlink:title="string2.h">
<polygon fill="white" stroke="black" points="352,-290.5 352,-311.5 406,-311.5 406,-290.5 352,-290.5"/>
<text text-anchor="middle" x="379" y="-298.5" font-family="Helvetica,sans-Serif" font-size="10.00">string2.h</text>
</a>
</g>
<!-- Node4&#45;&gt;Node21 -->
<g id="edge70" class="edge"><title>Node4&#45;&gt;Node21</title>
<path fill="none" stroke="midnightblue" d="M189.651,-469.49C216.146,-463.002 256.924,-450.19 286,-428 324.697,-398.468 354.568,-348.547 369.161,-320.908"/>
<polygon fill="midnightblue" stroke="midnightblue" points="372.377,-322.307 373.834,-311.813 366.151,-319.108 372.377,-322.307"/>
</g>
<!-- Node6&#45;&gt;Node5 -->
<g id="edge12" class="edge"><title>Node6&#45;&gt;Node5</title>
<path fill="none" stroke="midnightblue" d="M213.948,-406.444C183.727,-388.92 130,-350.768 130,-301 130,-301 130,-301 130,-127 130,-65.4542 206.8,-34.302 257.462,-20.4475"/>
<polygon fill="midnightblue" stroke="midnightblue" points="258.423,-23.8141 267.216,-17.9033 256.656,-17.0407 258.423,-23.8141"/>
</g>
<!-- Node7 -->
<g id="node14" class="node"><title>Node7</title>
<a xlink:href="bufstring_8h.html" target="_top" xlink:title="bufstring.h">
<polygon fill="white" stroke="black" points="215,-348.5 215,-369.5 277,-369.5 277,-348.5 215,-348.5"/>
<text text-anchor="middle" x="246" y="-356.5" font-family="Helvetica,sans-Serif" font-size="10.00">bufstring.h</text>
</a>
</g>
<!-- Node6&#45;&gt;Node7 -->
<g id="edge14" class="edge"><title>Node6&#45;&gt;Node7</title>
<path fill="none" stroke="midnightblue" d="M236.201,-406.362C237.757,-398.84 239.893,-388.519 241.773,-379.431"/>
<polygon fill="midnightblue" stroke="midnightblue" points="245.214,-380.072 243.813,-369.571 238.359,-378.654 245.214,-380.072"/>
</g>
<!-- Node7&#45;&gt;Node5 -->
<g id="edge16" class="edge"><title>Node7&#45;&gt;Node5</title>
<path fill="none" stroke="midnightblue" d="M232.413,-348.452C210.066,-329.798 168,-288.624 168,-243 168,-243 168,-243 168,-127 168,-76.7237 222.646,-43.2398 261.882,-25.6778"/>
<polygon fill="midnightblue" stroke="midnightblue" points="263.675,-28.717 271.483,-21.5554 260.913,-22.2849 263.675,-28.717"/>
</g>
<!-- Node7&#45;&gt;Node8 -->
<g id="edge18" class="edge"><title>Node7&#45;&gt;Node8</title>
<path fill="none" stroke="midnightblue" d="M246,-348.362C246,-340.922 246,-330.743 246,-321.728"/>
<polygon fill="midnightblue" stroke="midnightblue" points="249.5,-321.571 246,-311.571 242.5,-321.571 249.5,-321.571"/>
</g>
<!-- Node7&#45;&gt;Node21 -->
<g id="edge58" class="edge"><title>Node7&#45;&gt;Node21</title>
<path fill="none" stroke="midnightblue" d="M270.085,-348.497C291.139,-339.315 321.927,-325.889 345.402,-315.652"/>
<polygon fill="midnightblue" stroke="midnightblue" points="346.877,-318.827 354.644,-311.621 344.079,-312.41 346.877,-318.827"/>
</g>
<!-- Node8&#45;&gt;Node5 -->
<g id="edge20" class="edge"><title>Node8&#45;&gt;Node5</title>
<path fill="none" stroke="midnightblue" d="M239.573,-290.232C228.266,-270.234 206,-225.688 206,-185 206,-185 206,-185 206,-127 206,-94.5312 210.083,-83.6422 230,-58 240.094,-45.0049 254.833,-34.4247 268.27,-26.6163"/>
<polygon fill="midnightblue" stroke="midnightblue" points="270.214,-29.5418 277.291,-21.6576 266.842,-23.4074 270.214,-29.5418"/>
</g>
<!-- Node9 -->
<g id="node20" class="node"><title>Node9</title>
<a xlink:href="odstring_8h.html" target="_top" xlink:title="odstring.h">
<polygon fill="white" stroke="black" points="271.5,-232.5 271.5,-253.5 330.5,-253.5 330.5,-232.5 271.5,-232.5"/>
<text text-anchor="middle" x="301" y="-240.5" font-family="Helvetica,sans-Serif" font-size="10.00">odstring.h</text>
</a>
</g>
<!-- Node8&#45;&gt;Node9 -->
<g id="edge22" class="edge"><title>Node8&#45;&gt;Node9</title>
<path fill="none" stroke="midnightblue" d="M256.088,-290.362C263.841,-282.186 274.73,-270.702 283.845,-261.091"/>
<polygon fill="midnightblue" stroke="midnightblue" points="286.635,-263.235 290.976,-253.571 281.555,-258.419 286.635,-263.235"/>
</g>
<!-- Node9&#45;&gt;Node5 -->
<g id="edge24" class="edge"><title>Node9&#45;&gt;Node5</title>
<path fill="none" stroke="midnightblue" d="M301,-232.429C301,-196.648 301,-79.6628 301,-31.7481"/>
<polygon fill="midnightblue" stroke="midnightblue" points="304.5,-31.6335 301,-21.6335 297.5,-31.6335 304.5,-31.6335"/>
</g>
<!-- Node10 -->
<g id="node23" class="node"><title>Node10</title>
<a xlink:href="gendefs_8h.html" target="_top" xlink:title="gendefs.h">
<polygon fill="white" stroke="black" points="685.5,-174.5 685.5,-195.5 744.5,-195.5 744.5,-174.5 685.5,-174.5"/>
<text text-anchor="middle" x="715" y="-182.5" font-family="Helvetica,sans-Serif" font-size="10.00">gendefs.h</text>
</a>
</g>
<!-- Node9&#45;&gt;Node10 -->
<g id="edge26" class="edge"><title>Node9&#45;&gt;Node10</title>
<path fill="none" stroke="midnightblue" d="M330.76,-233.905C333.532,-233.203 336.309,-232.554 339,-232 460.35,-207.014 606.649,-193.354 675.512,-187.878"/>
<polygon fill="midnightblue" stroke="midnightblue" points="675.794,-191.367 685.491,-187.099 675.249,-184.388 675.794,-191.367"/>
</g>
<!-- Node11 -->
<g id="node25" class="node"><title>Node11</title>
<a xlink:href="undefval_8h.html" target="_top" xlink:title="undefval.h">
<polygon fill="white" stroke="black" points="776,-116.5 776,-137.5 838,-137.5 838,-116.5 776,-116.5"/>
<text text-anchor="middle" x="807" y="-124.5" font-family="Helvetica,sans-Serif" font-size="10.00">undefval.h</text>
</a>
</g>
<!-- Node10&#45;&gt;Node11 -->
<g id="edge28" class="edge"><title>Node10&#45;&gt;Node11</title>
<path fill="none" stroke="midnightblue" d="M731.874,-174.362C745.751,-165.614 765.634,-153.079 781.46,-143.101"/>
<polygon fill="midnightblue" stroke="midnightblue" points="783.64,-145.864 790.233,-137.571 779.907,-139.943 783.64,-145.864"/>
</g>
<!-- Node18 -->
<g id="node42" class="node"><title>Node18</title>
<a xlink:href="commontypes_8h.html" target="_top" xlink:title="commontypes.h">
<polygon fill="white" stroke="black" points="672,-116.5 672,-137.5 758,-137.5 758,-116.5 672,-116.5"/>
<text text-anchor="middle" x="715" y="-124.5" font-family="Helvetica,sans-Serif" font-size="10.00">commontypes.h</text>
</a>
</g>
<!-- Node10&#45;&gt;Node18 -->
<g id="edge48" class="edge"><title>Node10&#45;&gt;Node18</title>
<path fill="none" stroke="midnightblue" d="M715,-174.362C715,-166.922 715,-156.743 715,-147.728"/>
<polygon fill="midnightblue" stroke="midnightblue" points="718.5,-147.571 715,-137.571 711.5,-147.571 718.5,-147.571"/>
</g>
<!-- Node19 -->
<g id="node45" class="node"><title>Node19</title>
<a xlink:href="errmsg_8h.html" target="_top" xlink:title="errmsg.h">
<polygon fill="white" stroke="black" points="599.5,-116.5 599.5,-137.5 654.5,-137.5 654.5,-116.5 599.5,-116.5"/>
<text text-anchor="middle" x="627" y="-124.5" font-family="Helvetica,sans-Serif" font-size="10.00">errmsg.h</text>
</a>
</g>
<!-- Node10&#45;&gt;Node19 -->
<g id="edge52" class="edge"><title>Node10&#45;&gt;Node19</title>
<path fill="none" stroke="midnightblue" d="M698.859,-174.362C685.586,-165.614 666.568,-153.079 651.43,-143.101"/>
<polygon fill="midnightblue" stroke="midnightblue" points="653.314,-140.151 643.038,-137.571 649.462,-145.996 653.314,-140.151"/>
</g>
<!-- Node11&#45;&gt;Node5 -->
<g id="edge30" class="edge"><title>Node11&#45;&gt;Node5</title>
<path fill="none" stroke="midnightblue" d="M775.745,-117.574C747.873,-108.845 706.162,-94.9834 671,-80 651.251,-71.5845 648.458,-64.5044 628,-58 529.885,-26.8056 408.587,-16.2492 344.859,-12.7258"/>
<polygon fill="midnightblue" stroke="midnightblue" points="344.933,-9.22501 334.765,-12.2004 344.569,-16.2155 344.933,-9.22501"/>
</g>
<!-- Node12 -->
<g id="node28" class="node"><title>Node12</title>
<a xlink:href="commondefs_8h.html" target="_top" xlink:title="commondefs.h">
<polygon fill="white" stroke="black" points="712.5,-58.5 712.5,-79.5 793.5,-79.5 793.5,-58.5 712.5,-58.5"/>
<text text-anchor="middle" x="753" y="-66.5" font-family="Helvetica,sans-Serif" font-size="10.00">commondefs.h</text>
</a>
</g>
<!-- Node11&#45;&gt;Node12 -->
<g id="edge32" class="edge"><title>Node11&#45;&gt;Node12</title>
<path fill="none" stroke="midnightblue" d="M797.096,-116.362C789.484,-108.186 778.792,-96.7025 769.843,-87.0907"/>
<polygon fill="midnightblue" stroke="midnightblue" points="772.217,-84.5046 762.842,-79.5707 767.094,-89.2746 772.217,-84.5046"/>
</g>
<!-- Node16 -->
<g id="node37" class="node"><title>Node16</title>
<a xlink:href="plftypes_8h.html" target="_top" xlink:title="plftypes.h">
<polygon fill="white" stroke="black" points="861.5,-58.5 861.5,-79.5 920.5,-79.5 920.5,-58.5 861.5,-58.5"/>
<text text-anchor="middle" x="891" y="-66.5" font-family="Helvetica,sans-Serif" font-size="10.00">plftypes.h</text>
</a>
</g>
<!-- Node11&#45;&gt;Node16 -->
<g id="edge42" class="edge"><title>Node11&#45;&gt;Node16</title>
<path fill="none" stroke="midnightblue" d="M822.407,-116.362C834.958,-107.696 852.892,-95.3126 867.275,-85.3819"/>
<polygon fill="midnightblue" stroke="midnightblue" points="869.45,-88.1327 875.691,-79.5707 865.473,-82.3725 869.45,-88.1327"/>
</g>
<!-- Node12&#45;&gt;Node5 -->
<g id="edge34" class="edge"><title>Node12&#45;&gt;Node5</title>
<path fill="none" stroke="midnightblue" d="M712.376,-60.3468C707.873,-59.5002 703.345,-58.6979 699,-58 570.993,-37.4408 418.471,-21.9099 344.94,-14.9797"/>
<polygon fill="midnightblue" stroke="midnightblue" points="344.959,-11.4664 334.677,-14.0201 344.307,-18.436 344.959,-11.4664"/>
</g>
<!-- Node13 -->
<g id="node31" class="node"><title>Node13</title>
<a xlink:href="plfdefs_8h.html" target="_top" xlink:title="plfdefs.h">
<polygon fill="white" stroke="black" points="792,-0.5 792,-21.5 846,-21.5 846,-0.5 792,-0.5"/>
<text text-anchor="middle" x="819" y="-8.5" font-family="Helvetica,sans-Serif" font-size="10.00">plfdefs.h</text>
</a>
</g>
<!-- Node12&#45;&gt;Node13 -->
<g id="edge36" class="edge"><title>Node12&#45;&gt;Node13</title>
<path fill="none" stroke="midnightblue" d="M765.105,-58.3619C774.688,-49.9408 788.264,-38.0105 799.393,-28.2308"/>
<polygon fill="midnightblue" stroke="midnightblue" points="801.77,-30.8009 806.971,-21.5707 797.149,-25.5427 801.77,-30.8009"/>
</g>
<!-- Node14 -->
<g id="node33" class="node"><title>Node14</title>
<polygon fill="white" stroke="#bfbfbf" points="581.5,-0.5 581.5,-21.5 640.5,-21.5 640.5,-0.5 581.5,-0.5"/>
<text text-anchor="middle" x="611" y="-8.5" font-family="Helvetica,sans-Serif" font-size="10.00">stdexcept</text>
</g>
<!-- Node12&#45;&gt;Node14 -->
<g id="edge38" class="edge"><title>Node12&#45;&gt;Node14</title>
<path fill="none" stroke="midnightblue" d="M727.285,-58.4966C704.707,-49.2746 671.642,-35.7695 646.537,-25.5153"/>
<polygon fill="midnightblue" stroke="midnightblue" points="647.585,-22.1624 637.004,-21.6212 644.938,-28.6427 647.585,-22.1624"/>
</g>
<!-- Node15 -->
<g id="node35" class="node"><title>Node15</title>
<polygon fill="white" stroke="#bfbfbf" points="735.5,-0.5 735.5,-21.5 770.5,-21.5 770.5,-0.5 735.5,-0.5"/>
<text text-anchor="middle" x="753" y="-8.5" font-family="Helvetica,sans-Serif" font-size="10.00">new</text>
</g>
<!-- Node12&#45;&gt;Node15 -->
<g id="edge40" class="edge"><title>Node12&#45;&gt;Node15</title>
<path fill="none" stroke="midnightblue" d="M753,-58.3619C753,-50.9219 753,-40.7427 753,-31.7276"/>
<polygon fill="midnightblue" stroke="midnightblue" points="756.5,-31.5706 753,-21.5707 749.5,-31.5707 756.5,-31.5706"/>
</g>
<!-- Node16&#45;&gt;Node13 -->
<g id="edge44" class="edge"><title>Node16&#45;&gt;Node13</title>
<path fill="none" stroke="midnightblue" d="M877.794,-58.3619C867.239,-49.859 852.242,-37.7785 840.037,-27.9466"/>
<polygon fill="midnightblue" stroke="midnightblue" points="842.105,-25.1183 832.122,-21.5707 837.714,-30.5696 842.105,-25.1183"/>
</g>
<!-- Node17 -->
<g id="node40" class="node"><title>Node17</title>
<polygon fill="white" stroke="#bfbfbf" points="866.5,-0.5 866.5,-21.5 915.5,-21.5 915.5,-0.5 866.5,-0.5"/>
<text text-anchor="middle" x="891" y="-8.5" font-family="Helvetica,sans-Serif" font-size="10.00">stdint.h</text>
</g>
<!-- Node16&#45;&gt;Node17 -->
<g id="edge46" class="edge"><title>Node16&#45;&gt;Node17</title>
<path fill="none" stroke="midnightblue" d="M891,-58.3619C891,-50.9219 891,-40.7427 891,-31.7276"/>
<polygon fill="midnightblue" stroke="midnightblue" points="894.5,-31.5706 891,-21.5707 887.5,-31.5707 894.5,-31.5706"/>
</g>
<!-- Node18&#45;&gt;Node12 -->
<g id="edge50" class="edge"><title>Node18&#45;&gt;Node12</title>
<path fill="none" stroke="midnightblue" d="M721.97,-116.362C727.166,-108.431 734.401,-97.3885 740.578,-87.9606"/>
<polygon fill="midnightblue" stroke="midnightblue" points="743.522,-89.8534 746.074,-79.5707 737.666,-86.0172 743.522,-89.8534"/>
</g>
<!-- Node19&#45;&gt;Node12 -->
<g id="edge54" class="edge"><title>Node19&#45;&gt;Node12</title>
<path fill="none" stroke="midnightblue" d="M649.818,-116.497C669.586,-107.397 698.413,-94.1273 720.576,-83.9253"/>
<polygon fill="midnightblue" stroke="midnightblue" points="722.306,-86.982 729.926,-79.6212 719.379,-80.6234 722.306,-86.982"/>
</g>
<!-- Node20 -->
<g id="node48" class="node"><title>Node20</title>
<polygon fill="white" stroke="#bfbfbf" points="568.5,-58.5 568.5,-79.5 619.5,-79.5 619.5,-58.5 568.5,-58.5"/>
<text text-anchor="middle" x="594" y="-66.5" font-family="Helvetica,sans-Serif" font-size="10.00">typeinfo</text>
</g>
<!-- Node19&#45;&gt;Node20 -->
<g id="edge56" class="edge"><title>Node19&#45;&gt;Node20</title>
<path fill="none" stroke="midnightblue" d="M620.947,-116.362C616.528,-108.595 610.41,-97.8426 605.121,-88.5458"/>
<polygon fill="midnightblue" stroke="midnightblue" points="608.002,-86.5315 600.014,-79.5707 601.918,-89.9932 608.002,-86.5315"/>
</g>
<!-- Node21&#45;&gt;Node5 -->
<g id="edge60" class="edge"><title>Node21&#45;&gt;Node5</title>
<path fill="none" stroke="midnightblue" d="M351.552,-296.986C325.154,-291.688 285.97,-279.808 263,-254 241.853,-230.24 244,-216.808 244,-185 244,-185 244,-185 244,-127 244,-89.5289 268.254,-51.5841 285.12,-29.7281"/>
<polygon fill="midnightblue" stroke="midnightblue" points="288.067,-31.6467 291.588,-21.6538 282.604,-27.2705 288.067,-31.6467"/>
</g>
<!-- Node21&#45;&gt;Node12 -->
<g id="edge64" class="edge"><title>Node21&#45;&gt;Node12</title>
<path fill="none" stroke="midnightblue" d="M406.307,-291.987C427.522,-284.124 456.947,-271.264 479,-254 541.199,-205.308 525.175,-159.665 591,-116 624.395,-93.8476 668.377,-81.9484 702.086,-75.6706"/>
<polygon fill="midnightblue" stroke="midnightblue" points="702.95,-79.0727 712.195,-73.8977 701.74,-72.1779 702.95,-79.0727"/>
</g>
<!-- Node21&#45;&gt;Node16 -->
<g id="edge62" class="edge"><title>Node21&#45;&gt;Node16</title>
<path fill="none" stroke="midnightblue" d="M406.062,-297.391C508.493,-283.121 869.932,-227.029 935,-138 947.536,-120.848 930.415,-100.192 914.006,-85.9769"/>
<polygon fill="midnightblue" stroke="midnightblue" points="916.102,-83.1697 906.141,-79.5597 911.677,-88.5934 916.102,-83.1697"/>
</g>
<!-- Node22 -->
<g id="node55" class="node"><title>Node22</title>
<polygon fill="white" stroke="#bfbfbf" points="421.5,-232.5 421.5,-253.5 470.5,-253.5 470.5,-232.5 421.5,-232.5"/>
<text text-anchor="middle" x="446" y="-240.5" font-family="Helvetica,sans-Serif" font-size="10.00">ctype.h</text>
</g>
<!-- Node21&#45;&gt;Node22 -->
<g id="edge66" class="edge"><title>Node21&#45;&gt;Node22</title>
<path fill="none" stroke="midnightblue" d="M391.289,-290.362C401.017,-281.941 414.798,-270.011 426.095,-260.231"/>
<polygon fill="midnightblue" stroke="midnightblue" points="428.519,-262.762 433.789,-253.571 423.938,-257.469 428.519,-262.762"/>
</g>
<!-- Node23 -->
<g id="node57" class="node"><title>Node23</title>
<polygon fill="white" stroke="#bfbfbf" points="348,-232.5 348,-253.5 404,-253.5 404,-232.5 348,-232.5"/>
<text text-anchor="middle" x="376" y="-240.5" font-family="Helvetica,sans-Serif" font-size="10.00">wctype.h</text>
</g>
<!-- Node21&#45;&gt;Node23 -->
<g id="edge68" class="edge"><title>Node21&#45;&gt;Node23</title>
<path fill="none" stroke="midnightblue" d="M378.45,-290.362C378.065,-282.922 377.538,-272.743 377.072,-263.728"/>
<polygon fill="midnightblue" stroke="midnightblue" points="380.559,-263.376 376.547,-253.571 373.568,-263.738 380.559,-263.376"/>
</g>
<!-- Node24&#45;&gt;Node5 -->
<g id="edge76" class="edge"><title>Node24&#45;&gt;Node5</title>
<path fill="none" stroke="midnightblue" d="M269.02,-696.428C219.3,-657.513 54,-516.305 54,-359 54,-359 54,-359 54,-127 54,-88.5999 73.8955,-79.0682 106,-58 130.599,-41.8573 207.686,-26.5474 257.25,-18.0043"/>
<polygon fill="midnightblue" stroke="midnightblue" points="258.107,-21.4092 267.38,-16.2862 256.936,-14.5078 258.107,-21.4092"/>
</g>
<!-- Node24&#45;&gt;Node7 -->
<g id="edge136" class="edge"><title>Node24&#45;&gt;Node7</title>
<path fill="none" stroke="midnightblue" d="M292.908,-696.435C309.949,-677.111 343,-634.079 343,-591 343,-591 343,-591 343,-475 343,-430.987 301.396,-394.87 272.682,-375.184"/>
<polygon fill="midnightblue" stroke="midnightblue" points="274.518,-372.202 264.245,-369.612 270.66,-378.043 274.518,-372.202"/>
</g>
<!-- Node25 -->
<g id="node64" class="node"><title>Node25</title>
<a xlink:href="callback_8h.html" target="_top" xlink:title="callback.h">
<polygon fill="white" stroke="black" points="580.5,-638.5 580.5,-659.5 641.5,-659.5 641.5,-638.5 580.5,-638.5"/>
<text text-anchor="middle" x="611" y="-646.5" font-family="Helvetica,sans-Serif" font-size="10.00">callback.h</text>
</a>
</g>
<!-- Node24&#45;&gt;Node25 -->
<g id="edge78" class="edge"><title>Node24&#45;&gt;Node25</title>
<path fill="none" stroke="midnightblue" d="M316.56,-701.066C377.158,-690.35 504.621,-667.811 570.167,-656.221"/>
<polygon fill="midnightblue" stroke="midnightblue" points="570.897,-659.646 580.135,-654.458 569.678,-652.753 570.897,-659.646"/>
</g>
<!-- Node25&#45;&gt;Node5 -->
<g id="edge80" class="edge"><title>Node25&#45;&gt;Node5</title>
<path fill="none" stroke="midnightblue" d="M580.152,-644.749C525.878,-635.345 419,-607.384 419,-533 419,-533 419,-533 419,-475 419,-363.757 515.996,-336.912 479,-232 447.337,-142.212 362.042,-62.0439 322.132,-28.1394"/>
<polygon fill="midnightblue" stroke="midnightblue" points="324.255,-25.3527 314.34,-21.6199 319.763,-30.7214 324.255,-25.3527"/>
</g>
<!-- Node26 -->
<g id="node67" class="node"><title>Node26</title>
<a xlink:href="refcount_8h.html" target="_top" xlink:title="refcount.h">
<polygon fill="white" stroke="black" points="725,-580.5 725,-601.5 785,-601.5 785,-580.5 725,-580.5"/>
<text text-anchor="middle" x="755" y="-588.5" font-family="Helvetica,sans-Serif" font-size="10.00">refcount.h</text>
</a>
</g>
<!-- Node25&#45;&gt;Node26 -->
<g id="edge82" class="edge"><title>Node25&#45;&gt;Node26</title>
<path fill="none" stroke="midnightblue" d="M637.077,-638.497C660.075,-629.234 693.8,-615.65 719.3,-605.379"/>
<polygon fill="midnightblue" stroke="midnightblue" points="720.662,-608.604 728.63,-601.621 718.047,-602.111 720.662,-608.604"/>
</g>
<!-- Node35 -->
<g id="node94" class="node"><title>Node35</title>
<a xlink:href="sets_8h.html" target="_top" xlink:title="sets.h">
<polygon fill="white" stroke="black" points="589,-580.5 589,-601.5 633,-601.5 633,-580.5 589,-580.5"/>
<text text-anchor="middle" x="611" y="-588.5" font-family="Helvetica,sans-Serif" font-size="10.00">sets.h</text>
</a>
</g>
<!-- Node25&#45;&gt;Node35 -->
<g id="edge118" class="edge"><title>Node25&#45;&gt;Node35</title>
<path fill="none" stroke="midnightblue" d="M611,-638.362C611,-630.922 611,-620.743 611,-611.728"/>
<polygon fill="midnightblue" stroke="midnightblue" points="614.5,-611.571 611,-601.571 607.5,-611.571 614.5,-611.571"/>
</g>
<!-- Node37 -->
<g id="node101" class="node"><title>Node37</title>
<a xlink:href="threadlock_8h.html" target="_top" xlink:title="threadlock.h">
<polygon fill="white" stroke="black" points="856,-116.5 856,-137.5 926,-137.5 926,-116.5 856,-116.5"/>
<text text-anchor="middle" x="891" y="-124.5" font-family="Helvetica,sans-Serif" font-size="10.00">threadlock.h</text>
</a>
</g>
<!-- Node25&#45;&gt;Node37 -->
<g id="edge128" class="edge"><title>Node25&#45;&gt;Node37</title>
<path fill="none" stroke="midnightblue" d="M641.741,-645.309C725.931,-634.351 954,-598.612 954,-533 954,-533 954,-533 954,-417 954,-313.517 915.219,-193.899 898.511,-147.167"/>
<polygon fill="midnightblue" stroke="midnightblue" points="901.744,-145.817 895.037,-137.615 895.165,-148.209 901.744,-145.817"/>
</g>
<!-- Node27 -->
<g id="node69" class="node"><title>Node27</title>
<a xlink:href="atomic_8h.html" target="_top" xlink:title="atomic.h">
<polygon fill="white" stroke="black" points="982,-116.5 982,-137.5 1036,-137.5 1036,-116.5 982,-116.5"/>
<text text-anchor="middle" x="1009" y="-124.5" font-family="Helvetica,sans-Serif" font-size="10.00">atomic.h</text>
</a>
</g>
<!-- Node26&#45;&gt;Node27 -->
<g id="edge84" class="edge"><title>Node26&#45;&gt;Node27</title>
<path fill="none" stroke="midnightblue" d="M785.283,-583.888C831.921,-570.931 916,-538.734 916,-475 916,-475 916,-475 916,-417 916,-310.602 973.466,-192.283 998.053,-146.529"/>
<polygon fill="midnightblue" stroke="midnightblue" points="1001.17,-148.117 1002.9,-137.663 995.031,-144.76 1001.17,-148.117"/>
</g>
<!-- Node29 -->
<g id="node76" class="node"><title>Node29</title>
<a xlink:href="objectset_8h.html" target="_top" xlink:title="objectset.h">
<polygon fill="white" stroke="black" points="656.5,-522.5 656.5,-543.5 721.5,-543.5 721.5,-522.5 656.5,-522.5"/>
<text text-anchor="middle" x="689" y="-530.5" font-family="Helvetica,sans-Serif" font-size="10.00">objectset.h</text>
</a>
</g>
<!-- Node26&#45;&gt;Node29 -->
<g id="edge94" class="edge"><title>Node26&#45;&gt;Node29</title>
<path fill="none" stroke="midnightblue" d="M742.895,-580.362C733.312,-571.941 719.736,-560.011 708.607,-550.231"/>
<polygon fill="midnightblue" stroke="midnightblue" points="710.851,-547.543 701.029,-543.571 706.23,-552.801 710.851,-547.543"/>
</g>
<!-- Node27&#45;&gt;Node5 -->
<g id="edge86" class="edge"><title>Node27&#45;&gt;Node5</title>
<path fill="none" stroke="midnightblue" d="M1000.54,-116.243C987.26,-100.269 959.834,-70.79 929,-58 875.412,-35.7715 478.984,-18.0939 345.057,-12.7011"/>
<polygon fill="midnightblue" stroke="midnightblue" points="344.897,-9.19207 334.765,-12.2902 344.618,-16.1865 344.897,-9.19207"/>
</g>
<!-- Node27&#45;&gt;Node12 -->
<g id="edge88" class="edge"><title>Node27&#45;&gt;Node12</title>
<path fill="none" stroke="midnightblue" d="M981.604,-120.793C939.192,-111.184 856.972,-92.5561 803.566,-80.4563"/>
<polygon fill="midnightblue" stroke="midnightblue" points="804.143,-76.9985 793.617,-78.2023 802.596,-83.8255 804.143,-76.9985"/>
</g>
<!-- Node27&#45;&gt;Node16 -->
<g id="edge90" class="edge"><title>Node27&#45;&gt;Node16</title>
<path fill="none" stroke="midnightblue" d="M987.631,-116.497C969.201,-107.438 942.363,-94.2462 921.645,-84.0628"/>
<polygon fill="midnightblue" stroke="midnightblue" points="923.127,-80.8914 912.609,-79.6212 920.039,-87.1735 923.127,-80.8914"/>
</g>
<!-- Node28 -->
<g id="node74" class="node"><title>Node28</title>
<polygon fill="white" stroke="#bfbfbf" points="975.5,-58.5 975.5,-79.5 1042.5,-79.5 1042.5,-58.5 975.5,-58.5"/>
<text text-anchor="middle" x="1009" y="-66.5" font-family="Helvetica,sans-Serif" font-size="10.00">odversion.h</text>
</g>
<!-- Node27&#45;&gt;Node28 -->
<g id="edge92" class="edge"><title>Node27&#45;&gt;Node28</title>
<path fill="none" stroke="midnightblue" d="M1009,-116.362C1009,-108.922 1009,-98.7427 1009,-89.7276"/>
<polygon fill="midnightblue" stroke="midnightblue" points="1012.5,-89.5706 1009,-79.5707 1005.5,-89.5707 1012.5,-89.5706"/>
</g>
<!-- Node30 -->
<g id="node78" class="node"><title>Node30</title>
<a xlink:href="odset_8h.html" target="_top" xlink:title="odset.h">
<polygon fill="white" stroke="black" points="669.5,-464.5 669.5,-485.5 718.5,-485.5 718.5,-464.5 669.5,-464.5"/>
<text text-anchor="middle" x="694" y="-472.5" font-family="Helvetica,sans-Serif" font-size="10.00">odset.h</text>
</a>
</g>
<!-- Node29&#45;&gt;Node30 -->
<g id="edge96" class="edge"><title>Node29&#45;&gt;Node30</title>
<path fill="none" stroke="midnightblue" d="M689.917,-522.362C690.558,-514.922 691.436,-504.743 692.213,-495.728"/>
<polygon fill="midnightblue" stroke="midnightblue" points="695.717,-495.834 693.089,-485.571 688.743,-495.233 695.717,-495.834"/>
</g>
<!-- Node31 -->
<g id="node81" class="node"><title>Node31</title>
<a xlink:href="vectoraccess_8h.html" target="_top" xlink:title="vectoraccess.h">
<polygon fill="white" stroke="black" points="569.5,-464.5 569.5,-485.5 652.5,-485.5 652.5,-464.5 569.5,-464.5"/>
<text text-anchor="middle" x="611" y="-472.5" font-family="Helvetica,sans-Serif" font-size="10.00">vectoraccess.h</text>
</a>
</g>
<!-- Node29&#45;&gt;Node31 -->
<g id="edge100" class="edge"><title>Node29&#45;&gt;Node31</title>
<path fill="none" stroke="midnightblue" d="M674.694,-522.362C663.149,-513.777 646.7,-501.546 633.41,-491.664"/>
<polygon fill="midnightblue" stroke="midnightblue" points="635.329,-488.729 625.216,-485.571 631.152,-494.346 635.329,-488.729"/>
</g>
<!-- Node30&#45;&gt;Node10 -->
<g id="edge98" class="edge"><title>Node30&#45;&gt;Node10</title>
<path fill="none" stroke="midnightblue" d="M715.337,-464.366C746.812,-446.994 802,-409.355 802,-359 802,-359 802,-359 802,-301 802,-258.933 764.928,-222.357 739.184,-202.029"/>
<polygon fill="midnightblue" stroke="midnightblue" points="741.036,-199.04 730.957,-195.774 736.799,-204.613 741.036,-199.04"/>
</g>
<!-- Node31&#45;&gt;Node10 -->
<g id="edge110" class="edge"><title>Node31&#45;&gt;Node10</title>
<path fill="none" stroke="midnightblue" d="M633.229,-464.41C647.49,-456.427 665.124,-444.098 675,-428 719.218,-355.92 718.987,-250.171 716.595,-205.802"/>
<polygon fill="midnightblue" stroke="midnightblue" points="720.079,-205.43 715.949,-195.673 713.093,-205.875 720.079,-205.43"/>
</g>
<!-- Node31&#45;&gt;Node14 -->
<g id="edge116" class="edge"><title>Node31&#45;&gt;Node14</title>
<path fill="none" stroke="midnightblue" d="M620.677,-464.361C628.131,-455.4 637.842,-441.856 642,-428 644.81,-418.635 643.202,-415.704 642,-406 623.639,-257.73 578.361,-228.27 560,-80 558.798,-70.2963 556.075,-66.9553 560,-58 565.325,-45.8522 575.51,-35.4564 585.387,-27.554"/>
<polygon fill="midnightblue" stroke="midnightblue" points="587.564,-30.2965 593.497,-21.5188 583.385,-24.6807 587.564,-30.2965"/>
</g>
<!-- Node32 -->
<g id="node83" class="node"><title>Node32</title>
<a xlink:href="debug_8h.html" target="_top" xlink:title="debug.h">
<polygon fill="white" stroke="black" points="446.5,-406.5 446.5,-427.5 497.5,-427.5 497.5,-406.5 446.5,-406.5"/>
<text text-anchor="middle" x="472" y="-414.5" font-family="Helvetica,sans-Serif" font-size="10.00">debug.h</text>
</a>
</g>
<!-- Node31&#45;&gt;Node32 -->
<g id="edge102" class="edge"><title>Node31&#45;&gt;Node32</title>
<path fill="none" stroke="midnightblue" d="M585.828,-464.497C563.727,-455.275 531.361,-441.769 506.787,-431.515"/>
<polygon fill="midnightblue" stroke="midnightblue" points="508.031,-428.242 497.454,-427.621 505.335,-434.702 508.031,-428.242"/>
</g>
<!-- Node33 -->
<g id="node89" class="node"><title>Node33</title>
<polygon fill="white" stroke="#bfbfbf" points="515,-406.5 515,-427.5 571,-427.5 571,-406.5 515,-406.5"/>
<text text-anchor="middle" x="543" y="-414.5" font-family="Helvetica,sans-Serif" font-size="10.00">algorithm</text>
</g>
<!-- Node31&#45;&gt;Node33 -->
<g id="edge112" class="edge"><title>Node31&#45;&gt;Node33</title>
<path fill="none" stroke="midnightblue" d="M598.528,-464.362C588.655,-455.941 574.667,-444.011 563.202,-434.231"/>
<polygon fill="midnightblue" stroke="midnightblue" points="565.273,-431.397 555.393,-427.571 560.73,-436.723 565.273,-431.397"/>
</g>
<!-- Node34 -->
<g id="node91" class="node"><title>Node34</title>
<polygon fill="white" stroke="#bfbfbf" points="589,-406.5 589,-427.5 633,-427.5 633,-406.5 589,-406.5"/>
<text text-anchor="middle" x="611" y="-414.5" font-family="Helvetica,sans-Serif" font-size="10.00">vector</text>
</g>
<!-- Node31&#45;&gt;Node34 -->
<g id="edge114" class="edge"><title>Node31&#45;&gt;Node34</title>
<path fill="none" stroke="midnightblue" d="M611,-464.362C611,-456.922 611,-446.743 611,-437.728"/>
<polygon fill="midnightblue" stroke="midnightblue" points="614.5,-437.571 611,-427.571 607.5,-437.571 614.5,-437.571"/>
</g>
<!-- Node32&#45;&gt;Node5 -->
<g id="edge104" class="edge"><title>Node32&#45;&gt;Node5</title>
<path fill="none" stroke="midnightblue" d="M475.521,-406.484C483.908,-380.809 504.9,-312.723 512,-254 521.24,-177.58 491.46,-78.3 472,-58 454.556,-39.803 389.467,-25.6558 344.82,-17.8225"/>
<polygon fill="midnightblue" stroke="midnightblue" points="345.238,-14.3432 334.791,-16.1079 344.058,-21.2431 345.238,-14.3432"/>
</g>
<!-- Node32&#45;&gt;Node7 -->
<g id="edge108" class="edge"><title>Node32&#45;&gt;Node7</title>
<path fill="none" stroke="midnightblue" d="M446.075,-410.347C407.081,-400.339 332.985,-381.324 286.728,-369.452"/>
<polygon fill="midnightblue" stroke="midnightblue" points="287.577,-366.057 277.021,-366.961 285.837,-372.837 287.577,-366.057"/>
</g>
<!-- Node32&#45;&gt;Node10 -->
<g id="edge106" class="edge"><title>Node32&#45;&gt;Node10</title>
<path fill="none" stroke="midnightblue" d="M497.692,-408.676C527.349,-398.713 573.864,-381.888 588,-370 643.31,-323.486 630.998,-290.082 674,-232 681.324,-222.108 690.228,-211.734 697.864,-203.256"/>
<polygon fill="midnightblue" stroke="midnightblue" points="700.531,-205.526 704.704,-195.787 695.369,-200.798 700.531,-205.526"/>
</g>
<!-- Node35&#45;&gt;Node29 -->
<g id="edge126" class="edge"><title>Node35&#45;&gt;Node29</title>
<path fill="none" stroke="midnightblue" d="M625.306,-580.362C636.851,-571.777 653.3,-559.546 666.59,-549.664"/>
<polygon fill="midnightblue" stroke="midnightblue" points="668.848,-552.346 674.784,-543.571 664.671,-546.729 668.848,-552.346"/>
</g>
<!-- Node36 -->
<g id="node96" class="node"><title>Node36</title>
<a xlink:href="typeset_8h.html" target="_top" xlink:title="typeset.h">
<polygon fill="white" stroke="black" points="582.5,-522.5 582.5,-543.5 639.5,-543.5 639.5,-522.5 582.5,-522.5"/>
<text text-anchor="middle" x="611" y="-530.5" font-family="Helvetica,sans-Serif" font-size="10.00">typeset.h</text>
</a>
</g>
<!-- Node35&#45;&gt;Node36 -->
<g id="edge120" class="edge"><title>Node35&#45;&gt;Node36</title>
<path fill="none" stroke="midnightblue" d="M611,-580.362C611,-572.922 611,-562.743 611,-553.728"/>
<polygon fill="midnightblue" stroke="midnightblue" points="614.5,-553.571 611,-543.571 607.5,-553.571 614.5,-553.571"/>
</g>
<!-- Node36&#45;&gt;Node30 -->
<g id="edge122" class="edge"><title>Node36&#45;&gt;Node30</title>
<path fill="none" stroke="midnightblue" d="M626.223,-522.362C638.625,-513.696 656.346,-501.313 670.557,-491.382"/>
<polygon fill="midnightblue" stroke="midnightblue" points="672.681,-494.168 678.873,-485.571 668.671,-488.43 672.681,-494.168"/>
</g>
<!-- Node36&#45;&gt;Node31 -->
<g id="edge124" class="edge"><title>Node36&#45;&gt;Node31</title>
<path fill="none" stroke="midnightblue" d="M611,-522.362C611,-514.922 611,-504.743 611,-495.728"/>
<polygon fill="midnightblue" stroke="midnightblue" points="614.5,-495.571 611,-485.571 607.5,-495.571 614.5,-495.571"/>
</g>
<!-- Node37&#45;&gt;Node5 -->
<g id="edge130" class="edge"><title>Node37&#45;&gt;Node5</title>
<path fill="none" stroke="midnightblue" d="M855.597,-118.131C801.633,-104.607 704.9,-80.3484 704,-80 684.715,-72.5342 682.689,-64.3243 663,-58 604.63,-39.2511 427.722,-21.9963 344.788,-14.6862"/>
<polygon fill="midnightblue" stroke="midnightblue" points="344.946,-11.1867 334.68,-13.8035 344.337,-18.1602 344.946,-11.1867"/>
</g>
<!-- Node37&#45;&gt;Node12 -->
<g id="edge132" class="edge"><title>Node37&#45;&gt;Node12</title>
<path fill="none" stroke="midnightblue" d="M866.009,-116.497C844.067,-107.275 811.934,-93.7695 787.536,-83.5153"/>
<polygon fill="midnightblue" stroke="midnightblue" points="788.846,-80.2693 778.271,-79.6212 786.134,-86.7225 788.846,-80.2693"/>
</g>
<!-- Node37&#45;&gt;Node16 -->
<g id="edge134" class="edge"><title>Node37&#45;&gt;Node16</title>
<path fill="none" stroke="midnightblue" d="M891,-116.362C891,-108.922 891,-98.7427 891,-89.7276"/>
<polygon fill="midnightblue" stroke="midnightblue" points="894.5,-89.5706 891,-79.5707 887.5,-89.5707 894.5,-89.5706"/>
</g>
<!-- Node38&#45;&gt;Node10 -->
<g id="edge140" class="edge"><title>Node38&#45;&gt;Node10</title>
<path fill="none" stroke="midnightblue" d="M701.386,-580.434C745.625,-558.823 840,-508.762 840,-475 840,-475 840,-475 840,-301 840,-252.08 787.925,-217.985 750.998,-199.957"/>
<polygon fill="midnightblue" stroke="midnightblue" points="752.049,-196.585 741.509,-195.51 749.079,-202.923 752.049,-196.585"/>
</g>
<!-- Node38&#45;&gt;Node21 -->
<g id="edge150" class="edge"><title>Node38&#45;&gt;Node21</title>
<path fill="none" stroke="midnightblue" d="M650.965,-581.638C576.782,-556.667 381,-489.4 381,-475 381,-475 381,-475 381,-417 381,-383.593 380.16,-344.782 379.569,-321.592"/>
<polygon fill="midnightblue" stroke="midnightblue" points="383.067,-321.459 379.304,-311.555 376.07,-321.644 383.067,-321.459"/>
</g>
<!-- Node38&#45;&gt;Node36 -->
<g id="edge152" class="edge"><title>Node38&#45;&gt;Node36</title>
<path fill="none" stroke="midnightblue" d="M666.528,-580.362C656.655,-571.941 642.667,-560.011 631.202,-550.231"/>
<polygon fill="midnightblue" stroke="midnightblue" points="633.273,-547.397 623.393,-543.571 628.73,-552.723 633.273,-547.397"/>
</g>
<!-- Node38&#45;&gt;Node37 -->
<g id="edge148" class="edge"><title>Node38&#45;&gt;Node37</title>
<path fill="none" stroke="midnightblue" d="M707.18,-581.231C737.382,-570.538 783.126,-553.637 799,-544 838.849,-519.808 878,-521.618 878,-475 878,-475 878,-475 878,-243 878,-209.389 883.457,-170.638 887.3,-147.516"/>
<polygon fill="midnightblue" stroke="midnightblue" points="890.775,-147.961 889.026,-137.512 883.876,-146.771 890.775,-147.961"/>
</g>
<!-- Node39 -->
<g id="node110" class="node"><title>Node39</title>
<a xlink:href="keystrs_8h.html" target="_top" xlink:title="keystrs.h">
<polygon fill="white" stroke="black" points="715.5,-348.5 715.5,-369.5 772.5,-369.5 772.5,-348.5 715.5,-348.5"/>
<text text-anchor="middle" x="744" y="-356.5" font-family="Helvetica,sans-Serif" font-size="10.00">keystrs.h</text>
</a>
</g>
<!-- Node38&#45;&gt;Node39 -->
<g id="edge142" class="edge"><title>Node38&#45;&gt;Node39</title>
<path fill="none" stroke="midnightblue" d="M695.901,-580.495C707.673,-572.167 722.55,-559.389 730,-544 756.342,-489.587 751.584,-415.52 747.169,-379.866"/>
<polygon fill="midnightblue" stroke="midnightblue" points="750.603,-379.15 745.787,-369.713 743.667,-380.093 750.603,-379.15"/>
</g>
<!-- Node39&#45;&gt;Node8 -->
<g id="edge146" class="edge"><title>Node39&#45;&gt;Node8</title>
<path fill="none" stroke="midnightblue" d="M715.437,-355.673C632.697,-346.037 392.348,-318.045 291.443,-306.293"/>
<polygon fill="midnightblue" stroke="midnightblue" points="291.605,-302.788 281.267,-305.107 290.795,-309.741 291.605,-302.788"/>
</g>
<!-- Node39&#45;&gt;Node10 -->
<g id="edge144" class="edge"><title>Node39&#45;&gt;Node10</title>
<path fill="none" stroke="midnightblue" d="M742.23,-348.377C737.549,-320.293 724.779,-243.673 718.534,-206.203"/>
<polygon fill="midnightblue" stroke="midnightblue" points="721.918,-205.216 716.821,-195.928 715.013,-206.367 721.918,-205.216"/>
</g>
</g>
</svg>
