<?xml version="1.0" encoding="UTF-8" standalone="no"?>
<!DOCTYPE svg PUBLIC "-//W3C//DTD SVG 1.1//EN"
 "http://www.w3.org/Graphics/SVG/1.1/DTD/svg11.dtd">
<!-- Generated by graphviz version 2.26.0 (20091210.2329)
 -->
<!-- Title: issuereporter.h Pages: 1 -->
<svg width="693pt" height="668pt"
 viewBox="0.00 0.00 693.14 668.00" xmlns="http://www.w3.org/2000/svg" xmlns:xlink="http://www.w3.org/1999/xlink">
<g id="graph1" class="graph" transform="scale(1 1) rotate(0) translate(4 664)">
<title>issuereporter.h</title>
<polygon fill="white" stroke="white" points="-4,5 -4,-664 690.142,-664 690.142,5 -4,5"/>
<!-- Node1 -->
<g id="node1" class="node"><title>Node1</title>
<polygon fill="#bfbfbf" stroke="black" points="337.5,-638.5 337.5,-659.5 418.5,-659.5 418.5,-638.5 337.5,-638.5"/>
<text text-anchor="middle" x="378" y="-646.5" font-family="Helvetica,sans-Serif" font-size="10.00">issuereporter.h</text>
</g>
<!-- Node2 -->
<g id="node3" class="node"><title>Node2</title>
<polygon fill="white" stroke="#bfbfbf" points="254,-580.5 254,-601.5 332,-601.5 332,-580.5 254,-580.5"/>
<text text-anchor="middle" x="293" y="-588.5" font-family="Helvetica,sans-Serif" font-size="10.00">networkmod.h</text>
</g>
<!-- Node1&#45;&gt;Node2 -->
<g id="edge2" class="edge"><title>Node1&#45;&gt;Node2</title>
<path fill="none" stroke="midnightblue" d="M362.41,-638.362C349.709,-629.696 331.562,-617.313 317.008,-607.382"/>
<polygon fill="midnightblue" stroke="midnightblue" points="318.724,-604.316 308.491,-601.571 314.779,-610.098 318.724,-604.316"/>
</g>
<!-- Node3 -->
<g id="node5" class="node"><title>Node3</title>
<a xlink:href="bufstring_8h.html" target="_top" xlink:title="bufstring.h">
<polygon fill="white" stroke="black" points="513,-348.5 513,-369.5 575,-369.5 575,-348.5 513,-348.5"/>
<text text-anchor="middle" x="544" y="-356.5" font-family="Helvetica,sans-Serif" font-size="10.00">bufstring.h</text>
</a>
</g>
<!-- Node1&#45;&gt;Node3 -->
<g id="edge4" class="edge"><title>Node1&#45;&gt;Node3</title>
<path fill="none" stroke="midnightblue" d="M418.792,-644.192C478.325,-634.648 582,-607.354 582,-533 582,-533 582,-533 582,-475 582,-439.741 565.949,-401.315 554.711,-378.732"/>
<polygon fill="midnightblue" stroke="midnightblue" points="557.802,-377.09 550.105,-369.809 551.582,-380.301 557.802,-377.09"/>
</g>
<!-- Node21 -->
<g id="node51" class="node"><title>Node21</title>
<a xlink:href="uistring_8h.html" target="_top" xlink:title="uistring.h">
<polygon fill="white" stroke="black" points="350,-580.5 350,-601.5 406,-601.5 406,-580.5 350,-580.5"/>
<text text-anchor="middle" x="378" y="-588.5" font-family="Helvetica,sans-Serif" font-size="10.00">uistring.h</text>
</a>
</g>
<!-- Node1&#45;&gt;Node21 -->
<g id="edge60" class="edge"><title>Node1&#45;&gt;Node21</title>
<path fill="none" stroke="midnightblue" d="M378,-638.362C378,-630.922 378,-620.743 378,-611.728"/>
<polygon fill="midnightblue" stroke="midnightblue" points="381.5,-611.571 378,-601.571 374.5,-611.571 381.5,-611.571"/>
</g>
<!-- Node4 -->
<g id="node7" class="node"><title>Node4</title>
<polygon fill="white" stroke="#bfbfbf" points="396.5,-0.5 396.5,-21.5 463.5,-21.5 463.5,-0.5 396.5,-0.5"/>
<text text-anchor="middle" x="430" y="-8.5" font-family="Helvetica,sans-Serif" font-size="10.00">basicmod.h</text>
</g>
<!-- Node3&#45;&gt;Node4 -->
<g id="edge6" class="edge"><title>Node3&#45;&gt;Node4</title>
<path fill="none" stroke="midnightblue" d="M554.982,-348.488C596.839,-307.182 740.169,-153.593 662,-58 638.699,-29.5051 534.408,-17.8752 473.883,-13.4603"/>
<polygon fill="midnightblue" stroke="midnightblue" points="474.06,-9.9643 463.842,-12.7647 473.576,-16.9476 474.06,-9.9643"/>
</g>
<!-- Node5 -->
<g id="node9" class="node"><title>Node5</title>
<a xlink:href="fixedstring_8h.html" target="_top" xlink:title="fixedstring.h">
<polygon fill="white" stroke="black" points="433,-290.5 433,-311.5 503,-311.5 503,-290.5 433,-290.5"/>
<text text-anchor="middle" x="468" y="-298.5" font-family="Helvetica,sans-Serif" font-size="10.00">fixedstring.h</text>
</a>
</g>
<!-- Node3&#45;&gt;Node5 -->
<g id="edge8" class="edge"><title>Node3&#45;&gt;Node5</title>
<path fill="none" stroke="midnightblue" d="M530.06,-348.362C518.812,-339.777 502.784,-327.546 489.835,-317.664"/>
<polygon fill="midnightblue" stroke="midnightblue" points="491.924,-314.855 481.851,-311.571 487.677,-320.42 491.924,-314.855"/>
</g>
<!-- Node18 -->
<g id="node42" class="node"><title>Node18</title>
<a xlink:href="string2_8h.html" target="_top" xlink:title="string2.h">
<polygon fill="white" stroke="black" points="517,-116.5 517,-137.5 571,-137.5 571,-116.5 517,-116.5"/>
<text text-anchor="middle" x="544" y="-124.5" font-family="Helvetica,sans-Serif" font-size="10.00">string2.h</text>
</a>
</g>
<!-- Node3&#45;&gt;Node18 -->
<g id="edge48" class="edge"><title>Node3&#45;&gt;Node18</title>
<path fill="none" stroke="midnightblue" d="M544,-348.429C544,-312.648 544,-195.663 544,-147.748"/>
<polygon fill="midnightblue" stroke="midnightblue" points="547.5,-147.633 544,-137.634 540.5,-147.634 547.5,-147.633"/>
</g>
<!-- Node5&#45;&gt;Node4 -->
<g id="edge10" class="edge"><title>Node5&#45;&gt;Node4</title>
<path fill="none" stroke="midnightblue" d="M473.779,-290.164C478.39,-280.868 484.48,-266.959 487,-254 488.867,-244.402 488.076,-241.718 487,-232 478.28,-153.229 470.899,-133.872 448,-58 445.302,-49.0599 441.719,-39.3929 438.461,-31.1639"/>
<polygon fill="midnightblue" stroke="midnightblue" points="441.61,-29.6158 434.598,-21.6728 435.126,-32.2545 441.61,-29.6158"/>
</g>
<!-- Node6 -->
<g id="node12" class="node"><title>Node6</title>
<a xlink:href="odstring_8h.html" target="_top" xlink:title="odstring.h">
<polygon fill="white" stroke="black" points="419.5,-232.5 419.5,-253.5 478.5,-253.5 478.5,-232.5 419.5,-232.5"/>
<text text-anchor="middle" x="449" y="-240.5" font-family="Helvetica,sans-Serif" font-size="10.00">odstring.h</text>
</a>
</g>
<!-- Node5&#45;&gt;Node6 -->
<g id="edge12" class="edge"><title>Node5&#45;&gt;Node6</title>
<path fill="none" stroke="midnightblue" d="M464.515,-290.362C462.024,-282.758 458.596,-272.294 455.596,-263.135"/>
<polygon fill="midnightblue" stroke="midnightblue" points="458.902,-261.984 452.463,-253.571 452.25,-264.163 458.902,-261.984"/>
</g>
<!-- Node6&#45;&gt;Node4 -->
<g id="edge14" class="edge"><title>Node6&#45;&gt;Node4</title>
<path fill="none" stroke="midnightblue" d="M448.134,-232.429C445.204,-196.648 435.623,-79.6628 431.699,-31.7481"/>
<polygon fill="midnightblue" stroke="midnightblue" points="435.175,-31.3144 430.871,-21.6335 428.199,-31.8859 435.175,-31.3144"/>
</g>
<!-- Node7 -->
<g id="node15" class="node"><title>Node7</title>
<a xlink:href="gendefs_8h.html" target="_top" xlink:title="gendefs.h">
<polygon fill="white" stroke="black" points="142.5,-174.5 142.5,-195.5 201.5,-195.5 201.5,-174.5 142.5,-174.5"/>
<text text-anchor="middle" x="172" y="-182.5" font-family="Helvetica,sans-Serif" font-size="10.00">gendefs.h</text>
</a>
</g>
<!-- Node6&#45;&gt;Node7 -->
<g id="edge16" class="edge"><title>Node6&#45;&gt;Node7</title>
<path fill="none" stroke="midnightblue" d="M419.356,-236.793C369.297,-226.311 267.983,-205.098 211.794,-193.332"/>
<polygon fill="midnightblue" stroke="midnightblue" points="212.354,-189.874 201.849,-191.25 210.92,-196.725 212.354,-189.874"/>
</g>
<!-- Node8 -->
<g id="node17" class="node"><title>Node8</title>
<a xlink:href="undefval_8h.html" target="_top" xlink:title="undefval.h">
<polygon fill="white" stroke="black" points="233,-116.5 233,-137.5 295,-137.5 295,-116.5 233,-116.5"/>
<text text-anchor="middle" x="264" y="-124.5" font-family="Helvetica,sans-Serif" font-size="10.00">undefval.h</text>
</a>
</g>
<!-- Node7&#45;&gt;Node8 -->
<g id="edge18" class="edge"><title>Node7&#45;&gt;Node8</title>
<path fill="none" stroke="midnightblue" d="M188.874,-174.362C202.751,-165.614 222.634,-153.079 238.46,-143.101"/>
<polygon fill="midnightblue" stroke="midnightblue" points="240.64,-145.864 247.233,-137.571 236.907,-139.943 240.64,-145.864"/>
</g>
<!-- Node15 -->
<g id="node34" class="node"><title>Node15</title>
<a xlink:href="commontypes_8h.html" target="_top" xlink:title="commontypes.h">
<polygon fill="white" stroke="black" points="129,-116.5 129,-137.5 215,-137.5 215,-116.5 129,-116.5"/>
<text text-anchor="middle" x="172" y="-124.5" font-family="Helvetica,sans-Serif" font-size="10.00">commontypes.h</text>
</a>
</g>
<!-- Node7&#45;&gt;Node15 -->
<g id="edge38" class="edge"><title>Node7&#45;&gt;Node15</title>
<path fill="none" stroke="midnightblue" d="M172,-174.362C172,-166.922 172,-156.743 172,-147.728"/>
<polygon fill="midnightblue" stroke="midnightblue" points="175.5,-147.571 172,-137.571 168.5,-147.571 175.5,-147.571"/>
</g>
<!-- Node16 -->
<g id="node37" class="node"><title>Node16</title>
<a xlink:href="errmsg_8h.html" target="_top" xlink:title="errmsg.h">
<polygon fill="white" stroke="black" points="56.5,-116.5 56.5,-137.5 111.5,-137.5 111.5,-116.5 56.5,-116.5"/>
<text text-anchor="middle" x="84" y="-124.5" font-family="Helvetica,sans-Serif" font-size="10.00">errmsg.h</text>
</a>
</g>
<!-- Node7&#45;&gt;Node16 -->
<g id="edge42" class="edge"><title>Node7&#45;&gt;Node16</title>
<path fill="none" stroke="midnightblue" d="M155.859,-174.362C142.586,-165.614 123.568,-153.079 108.43,-143.101"/>
<polygon fill="midnightblue" stroke="midnightblue" points="110.314,-140.151 100.038,-137.571 106.462,-145.996 110.314,-140.151"/>
</g>
<!-- Node8&#45;&gt;Node4 -->
<g id="edge20" class="edge"><title>Node8&#45;&gt;Node4</title>
<path fill="none" stroke="midnightblue" d="M279.319,-116.295C308.349,-96.0092 371.556,-51.8403 406.168,-27.6534"/>
<polygon fill="midnightblue" stroke="midnightblue" points="408.526,-30.2762 414.718,-21.6792 404.516,-24.5383 408.526,-30.2762"/>
</g>
<!-- Node9 -->
<g id="node20" class="node"><title>Node9</title>
<a xlink:href="commondefs_8h.html" target="_top" xlink:title="commondefs.h">
<polygon fill="white" stroke="black" points="150.5,-58.5 150.5,-79.5 231.5,-79.5 231.5,-58.5 150.5,-58.5"/>
<text text-anchor="middle" x="191" y="-66.5" font-family="Helvetica,sans-Serif" font-size="10.00">commondefs.h</text>
</a>
</g>
<!-- Node8&#45;&gt;Node9 -->
<g id="edge22" class="edge"><title>Node8&#45;&gt;Node9</title>
<path fill="none" stroke="midnightblue" d="M250.611,-116.362C239.909,-107.859 224.704,-95.7785 212.329,-85.9466"/>
<polygon fill="midnightblue" stroke="midnightblue" points="214.311,-83.0511 204.304,-79.5707 209.957,-88.5318 214.311,-83.0511"/>
</g>
<!-- Node13 -->
<g id="node29" class="node"><title>Node13</title>
<a xlink:href="plftypes_8h.html" target="_top" xlink:title="plftypes.h">
<polygon fill="white" stroke="black" points="248.5,-58.5 248.5,-79.5 307.5,-79.5 307.5,-58.5 248.5,-58.5"/>
<text text-anchor="middle" x="278" y="-66.5" font-family="Helvetica,sans-Serif" font-size="10.00">plftypes.h</text>
</a>
</g>
<!-- Node8&#45;&gt;Node13 -->
<g id="edge32" class="edge"><title>Node8&#45;&gt;Node13</title>
<path fill="none" stroke="midnightblue" d="M266.568,-116.362C268.383,-108.84 270.875,-98.5187 273.068,-89.4308"/>
<polygon fill="midnightblue" stroke="midnightblue" points="276.504,-90.1127 275.448,-79.5707 269.7,-88.4702 276.504,-90.1127"/>
</g>
<!-- Node9&#45;&gt;Node4 -->
<g id="edge24" class="edge"><title>Node9&#45;&gt;Node4</title>
<path fill="none" stroke="midnightblue" d="M231.543,-59.1611C274.54,-48.7266 342.222,-32.3018 386.361,-21.5902"/>
<polygon fill="midnightblue" stroke="midnightblue" points="387.332,-24.9562 396.225,-19.1966 385.681,-18.1537 387.332,-24.9562"/>
</g>
<!-- Node10 -->
<g id="node23" class="node"><title>Node10</title>
<a xlink:href="plfdefs_8h.html" target="_top" xlink:title="plfdefs.h">
<polygon fill="white" stroke="black" points="204,-0.5 204,-21.5 258,-21.5 258,-0.5 204,-0.5"/>
<text text-anchor="middle" x="231" y="-8.5" font-family="Helvetica,sans-Serif" font-size="10.00">plfdefs.h</text>
</a>
</g>
<!-- Node9&#45;&gt;Node10 -->
<g id="edge26" class="edge"><title>Node9&#45;&gt;Node10</title>
<path fill="none" stroke="midnightblue" d="M198.337,-58.3619C203.806,-50.4313 211.422,-39.3885 217.924,-29.9606"/>
<polygon fill="midnightblue" stroke="midnightblue" points="220.914,-31.7899 223.71,-21.5707 215.151,-27.8157 220.914,-31.7899"/>
</g>
<!-- Node11 -->
<g id="node25" class="node"><title>Node11</title>
<polygon fill="white" stroke="#bfbfbf" points="48.5,-0.5 48.5,-21.5 107.5,-21.5 107.5,-0.5 48.5,-0.5"/>
<text text-anchor="middle" x="78" y="-8.5" font-family="Helvetica,sans-Serif" font-size="10.00">stdexcept</text>
</g>
<!-- Node9&#45;&gt;Node11 -->
<g id="edge28" class="edge"><title>Node9&#45;&gt;Node11</title>
<path fill="none" stroke="midnightblue" d="M170.537,-58.4966C152.967,-49.4786 127.418,-36.3649 107.615,-26.2006"/>
<polygon fill="midnightblue" stroke="midnightblue" points="109.188,-23.0738 98.6931,-21.6212 105.991,-29.3014 109.188,-23.0738"/>
</g>
<!-- Node12 -->
<g id="node27" class="node"><title>Node12</title>
<polygon fill="white" stroke="#bfbfbf" points="151.5,-0.5 151.5,-21.5 186.5,-21.5 186.5,-0.5 151.5,-0.5"/>
<text text-anchor="middle" x="169" y="-8.5" font-family="Helvetica,sans-Serif" font-size="10.00">new</text>
</g>
<!-- Node9&#45;&gt;Node12 -->
<g id="edge30" class="edge"><title>Node9&#45;&gt;Node12</title>
<path fill="none" stroke="midnightblue" d="M186.965,-58.3619C184.081,-50.7584 180.112,-40.294 176.637,-31.1349"/>
<polygon fill="midnightblue" stroke="midnightblue" points="179.829,-29.6793 173.01,-21.5707 173.284,-32.1619 179.829,-29.6793"/>
</g>
<!-- Node13&#45;&gt;Node10 -->
<g id="edge34" class="edge"><title>Node13&#45;&gt;Node10</title>
<path fill="none" stroke="midnightblue" d="M269.379,-58.3619C262.82,-50.2678 253.634,-38.9318 245.894,-29.3796"/>
<polygon fill="midnightblue" stroke="midnightblue" points="248.581,-27.1364 239.566,-21.5707 243.142,-31.5436 248.581,-27.1364"/>
</g>
<!-- Node14 -->
<g id="node32" class="node"><title>Node14</title>
<polygon fill="white" stroke="#bfbfbf" points="275.5,-0.5 275.5,-21.5 324.5,-21.5 324.5,-0.5 275.5,-0.5"/>
<text text-anchor="middle" x="300" y="-8.5" font-family="Helvetica,sans-Serif" font-size="10.00">stdint.h</text>
</g>
<!-- Node13&#45;&gt;Node14 -->
<g id="edge36" class="edge"><title>Node13&#45;&gt;Node14</title>
<path fill="none" stroke="midnightblue" d="M282.035,-58.3619C284.919,-50.7584 288.888,-40.294 292.363,-31.1349"/>
<polygon fill="midnightblue" stroke="midnightblue" points="295.716,-32.1619 295.99,-21.5707 289.171,-29.6793 295.716,-32.1619"/>
</g>
<!-- Node15&#45;&gt;Node9 -->
<g id="edge40" class="edge"><title>Node15&#45;&gt;Node9</title>
<path fill="none" stroke="midnightblue" d="M175.485,-116.362C177.976,-108.758 181.404,-98.294 184.404,-89.1349"/>
<polygon fill="midnightblue" stroke="midnightblue" points="187.75,-90.1634 187.537,-79.5707 181.098,-87.9841 187.75,-90.1634"/>
</g>
<!-- Node16&#45;&gt;Node9 -->
<g id="edge44" class="edge"><title>Node16&#45;&gt;Node9</title>
<path fill="none" stroke="midnightblue" d="M103.625,-116.362C120.141,-107.409 143.974,-94.4908 162.578,-84.4064"/>
<polygon fill="midnightblue" stroke="midnightblue" points="164.375,-87.4132 171.499,-79.5707 161.04,-81.2592 164.375,-87.4132"/>
</g>
<!-- Node17 -->
<g id="node40" class="node"><title>Node17</title>
<polygon fill="white" stroke="#bfbfbf" points="58.5,-58.5 58.5,-79.5 109.5,-79.5 109.5,-58.5 58.5,-58.5"/>
<text text-anchor="middle" x="84" y="-66.5" font-family="Helvetica,sans-Serif" font-size="10.00">typeinfo</text>
</g>
<!-- Node16&#45;&gt;Node17 -->
<g id="edge46" class="edge"><title>Node16&#45;&gt;Node17</title>
<path fill="none" stroke="midnightblue" d="M84,-116.362C84,-108.922 84,-98.7427 84,-89.7276"/>
<polygon fill="midnightblue" stroke="midnightblue" points="87.5001,-89.5706 84,-79.5707 80.5001,-89.5707 87.5001,-89.5706"/>
</g>
<!-- Node18&#45;&gt;Node4 -->
<g id="edge50" class="edge"><title>Node18&#45;&gt;Node4</title>
<path fill="none" stroke="midnightblue" d="M571.073,-120.547C608.9,-110.27 670.347,-88.215 646,-58 624.805,-31.6966 530.616,-19.3435 473.848,-14.1929"/>
<polygon fill="midnightblue" stroke="midnightblue" points="473.975,-10.6908 463.71,-13.3133 473.37,-17.6646 473.975,-10.6908"/>
</g>
<!-- Node18&#45;&gt;Node9 -->
<g id="edge54" class="edge"><title>Node18&#45;&gt;Node9</title>
<path fill="none" stroke="midnightblue" d="M516.644,-123.401C464.876,-116.455 348.842,-100.244 241.613,-80.2215"/>
<polygon fill="midnightblue" stroke="midnightblue" points="242.073,-76.7468 231.598,-78.3353 240.778,-83.6258 242.073,-76.7468"/>
</g>
<!-- Node18&#45;&gt;Node13 -->
<g id="edge52" class="edge"><title>Node18&#45;&gt;Node13</title>
<path fill="none" stroke="midnightblue" d="M516.535,-121.011C469.273,-110.706 372.388,-89.5809 317.754,-77.6681"/>
<polygon fill="midnightblue" stroke="midnightblue" points="318.257,-74.1958 307.741,-75.4849 316.766,-81.0351 318.257,-74.1958"/>
</g>
<!-- Node19 -->
<g id="node47" class="node"><title>Node19</title>
<polygon fill="white" stroke="#bfbfbf" points="588.5,-58.5 588.5,-79.5 637.5,-79.5 637.5,-58.5 588.5,-58.5"/>
<text text-anchor="middle" x="613" y="-66.5" font-family="Helvetica,sans-Serif" font-size="10.00">ctype.h</text>
</g>
<!-- Node18&#45;&gt;Node19 -->
<g id="edge56" class="edge"><title>Node18&#45;&gt;Node19</title>
<path fill="none" stroke="midnightblue" d="M556.656,-116.362C566.674,-107.941 580.867,-96.0105 592.501,-86.2308"/>
<polygon fill="midnightblue" stroke="midnightblue" points="595.022,-88.6844 600.425,-79.5707 590.518,-83.326 595.022,-88.6844"/>
</g>
<!-- Node20 -->
<g id="node49" class="node"><title>Node20</title>
<polygon fill="white" stroke="#bfbfbf" points="515,-58.5 515,-79.5 571,-79.5 571,-58.5 515,-58.5"/>
<text text-anchor="middle" x="543" y="-66.5" font-family="Helvetica,sans-Serif" font-size="10.00">wctype.h</text>
</g>
<!-- Node18&#45;&gt;Node20 -->
<g id="edge58" class="edge"><title>Node18&#45;&gt;Node20</title>
<path fill="none" stroke="midnightblue" d="M543.817,-116.362C543.688,-108.922 543.513,-98.7427 543.357,-89.7276"/>
<polygon fill="midnightblue" stroke="midnightblue" points="546.854,-89.5088 543.182,-79.5707 539.855,-89.6295 546.854,-89.5088"/>
</g>
<!-- Node21&#45;&gt;Node7 -->
<g id="edge62" class="edge"><title>Node21&#45;&gt;Node7</title>
<path fill="none" stroke="midnightblue" d="M349.791,-582.324C346.833,-581.501 343.862,-580.71 341,-580 187.088,-541.815 7.10543e-15,-633.578 0,-475 0,-475 0,-475 0,-301 0,-237.483 81.6211,-206.429 132.411,-193.254"/>
<polygon fill="midnightblue" stroke="midnightblue" points="133.562,-196.575 142.432,-190.781 131.885,-189.779 133.562,-196.575"/>
</g>
<!-- Node21&#45;&gt;Node18 -->
<g id="edge78" class="edge"><title>Node21&#45;&gt;Node18</title>
<path fill="none" stroke="midnightblue" d="M404.823,-580.478C467.831,-553.803 620,-477.15 620,-359 620,-359 620,-359 620,-243 620,-202.51 587.203,-165.158 564.698,-144.295"/>
<polygon fill="midnightblue" stroke="midnightblue" points="567.026,-141.681 557.238,-137.625 562.36,-146.899 567.026,-141.681"/>
</g>
<!-- Node22 -->
<g id="node54" class="node"><title>Node22</title>
<a xlink:href="keystrs_8h.html" target="_top" xlink:title="keystrs.h">
<polygon fill="white" stroke="black" points="419.5,-348.5 419.5,-369.5 476.5,-369.5 476.5,-348.5 419.5,-348.5"/>
<text text-anchor="middle" x="448" y="-356.5" font-family="Helvetica,sans-Serif" font-size="10.00">keystrs.h</text>
</a>
</g>
<!-- Node21&#45;&gt;Node22 -->
<g id="edge64" class="edge"><title>Node21&#45;&gt;Node22</title>
<path fill="none" stroke="midnightblue" d="M381.19,-580.429C392.008,-544.573 427.432,-427.169 441.831,-379.446"/>
<polygon fill="midnightblue" stroke="midnightblue" points="445.254,-380.218 444.792,-369.634 438.552,-378.196 445.254,-380.218"/>
</g>
<!-- Node23 -->
<g id="node58" class="node"><title>Node23</title>
<a xlink:href="threadlock_8h.html" target="_top" xlink:title="threadlock.h">
<polygon fill="white" stroke="black" points="313,-116.5 313,-137.5 383,-137.5 383,-116.5 313,-116.5"/>
<text text-anchor="middle" x="348" y="-124.5" font-family="Helvetica,sans-Serif" font-size="10.00">threadlock.h</text>
</a>
</g>
<!-- Node21&#45;&gt;Node23 -->
<g id="edge70" class="edge"><title>Node21&#45;&gt;Node23</title>
<path fill="none" stroke="midnightblue" d="M367.762,-580.496C350.152,-561.269 316,-518.386 316,-475 316,-475 316,-475 316,-359 316,-280.21 334.336,-187.769 343.248,-147.489"/>
<polygon fill="midnightblue" stroke="midnightblue" points="346.7,-148.091 345.489,-137.566 339.872,-146.549 346.7,-148.091"/>
</g>
<!-- Node24 -->
<g id="node64" class="node"><title>Node24</title>
<a xlink:href="typeset_8h.html" target="_top" xlink:title="typeset.h">
<polygon fill="white" stroke="black" points="169.5,-522.5 169.5,-543.5 226.5,-543.5 226.5,-522.5 169.5,-522.5"/>
<text text-anchor="middle" x="198" y="-530.5" font-family="Helvetica,sans-Serif" font-size="10.00">typeset.h</text>
</a>
</g>
<!-- Node21&#45;&gt;Node24 -->
<g id="edge80" class="edge"><title>Node21&#45;&gt;Node24</title>
<path fill="none" stroke="midnightblue" d="M349.875,-581.938C319.277,-572.078 270.186,-556.26 236.134,-545.288"/>
<polygon fill="midnightblue" stroke="midnightblue" points="237.113,-541.926 226.522,-542.19 234.966,-548.589 237.113,-541.926"/>
</g>
<!-- Node22&#45;&gt;Node5 -->
<g id="edge68" class="edge"><title>Node22&#45;&gt;Node5</title>
<path fill="none" stroke="midnightblue" d="M451.668,-348.362C454.29,-340.758 457.899,-330.294 461.057,-321.135"/>
<polygon fill="midnightblue" stroke="midnightblue" points="464.404,-322.165 464.355,-311.571 457.786,-319.883 464.404,-322.165"/>
</g>
<!-- Node22&#45;&gt;Node7 -->
<g id="edge66" class="edge"><title>Node22&#45;&gt;Node7</title>
<path fill="none" stroke="midnightblue" d="M431.15,-348.377C384.476,-318.952 253.287,-236.246 197.558,-201.113"/>
<polygon fill="midnightblue" stroke="midnightblue" points="199.306,-198.077 188.98,-195.705 195.572,-203.998 199.306,-198.077"/>
</g>
<!-- Node23&#45;&gt;Node4 -->
<g id="edge72" class="edge"><title>Node23&#45;&gt;Node4</title>
<path fill="none" stroke="midnightblue" d="M355.567,-116.295C369.48,-96.6135 399.285,-54.4504 416.663,-29.8668"/>
<polygon fill="midnightblue" stroke="midnightblue" points="419.537,-31.8653 422.451,-21.6792 413.82,-27.8247 419.537,-31.8653"/>
</g>
<!-- Node23&#45;&gt;Node9 -->
<g id="edge74" class="edge"><title>Node23&#45;&gt;Node9</title>
<path fill="none" stroke="midnightblue" d="M319.568,-116.497C294.195,-107.123 256.843,-93.3242 228.93,-83.0122"/>
<polygon fill="midnightblue" stroke="midnightblue" points="230.078,-79.7054 219.485,-79.5231 227.652,-86.2716 230.078,-79.7054"/>
</g>
<!-- Node23&#45;&gt;Node13 -->
<g id="edge76" class="edge"><title>Node23&#45;&gt;Node13</title>
<path fill="none" stroke="midnightblue" d="M335.161,-116.362C324.998,-107.941 310.599,-96.0105 298.796,-86.2308"/>
<polygon fill="midnightblue" stroke="midnightblue" points="300.691,-83.2558 290.758,-79.5707 296.225,-88.6459 300.691,-83.2558"/>
</g>
<!-- Node25 -->
<g id="node66" class="node"><title>Node25</title>
<a xlink:href="odset_8h.html" target="_top" xlink:title="odset.h">
<polygon fill="white" stroke="black" points="27.5,-290.5 27.5,-311.5 76.5,-311.5 76.5,-290.5 27.5,-290.5"/>
<text text-anchor="middle" x="52" y="-298.5" font-family="Helvetica,sans-Serif" font-size="10.00">odset.h</text>
</a>
</g>
<!-- Node24&#45;&gt;Node25 -->
<g id="edge82" class="edge"><title>Node24&#45;&gt;Node25</title>
<path fill="none" stroke="midnightblue" d="M182.645,-522.28C159.175,-505.092 114.525,-469.094 90,-428 69.5663,-393.761 59.3859,-347.699 54.9394,-321.498"/>
<polygon fill="midnightblue" stroke="midnightblue" points="58.3898,-320.908 53.3717,-311.577 51.4756,-322.001 58.3898,-320.908"/>
</g>
<!-- Node26 -->
<g id="node69" class="node"><title>Node26</title>
<a xlink:href="vectoraccess_8h.html" target="_top" xlink:title="vectoraccess.h">
<polygon fill="white" stroke="black" points="156.5,-464.5 156.5,-485.5 239.5,-485.5 239.5,-464.5 156.5,-464.5"/>
<text text-anchor="middle" x="198" y="-472.5" font-family="Helvetica,sans-Serif" font-size="10.00">vectoraccess.h</text>
</a>
</g>
<!-- Node24&#45;&gt;Node26 -->
<g id="edge86" class="edge"><title>Node24&#45;&gt;Node26</title>
<path fill="none" stroke="midnightblue" d="M198,-522.362C198,-514.922 198,-504.743 198,-495.728"/>
<polygon fill="midnightblue" stroke="midnightblue" points="201.5,-495.571 198,-485.571 194.5,-495.571 201.5,-495.571"/>
</g>
<!-- Node25&#45;&gt;Node7 -->
<g id="edge84" class="edge"><title>Node25&#45;&gt;Node7</title>
<path fill="none" stroke="midnightblue" d="M63.0742,-290.295C83.7022,-270.355 128.203,-227.337 153.477,-202.906"/>
<polygon fill="midnightblue" stroke="midnightblue" points="156.195,-205.146 160.953,-195.679 151.33,-200.113 156.195,-205.146"/>
</g>
<!-- Node26&#45;&gt;Node7 -->
<g id="edge96" class="edge"><title>Node26&#45;&gt;Node7</title>
<path fill="none" stroke="midnightblue" d="M187.501,-464.288C179.214,-455.283 167.931,-441.718 161,-428 146.657,-399.609 142,-390.808 142,-359 142,-359 142,-359 142,-301 142,-266.366 154.69,-227.714 163.563,-204.921"/>
<polygon fill="midnightblue" stroke="midnightblue" points="166.814,-206.22 167.312,-195.636 160.323,-203.599 166.814,-206.22"/>
</g>
<!-- Node26&#45;&gt;Node11 -->
<g id="edge102" class="edge"><title>Node26&#45;&gt;Node11</title>
<path fill="none" stroke="midnightblue" d="M182.371,-464.295C170.867,-455.689 155.616,-442.649 146,-428 108.671,-371.132 59.0351,-205.124 48,-138 45.2609,-121.339 45.7782,-72.3635 50,-58 52.8801,-48.2012 58.2809,-38.3417 63.5767,-30.2014"/>
<polygon fill="midnightblue" stroke="midnightblue" points="66.5541,-32.0496 69.3711,-21.8361 60.7997,-28.0637 66.5541,-32.0496"/>
</g>
<!-- Node27 -->
<g id="node71" class="node"><title>Node27</title>
<a xlink:href="debug_8h.html" target="_top" xlink:title="debug.h">
<polygon fill="white" stroke="black" points="354.5,-406.5 354.5,-427.5 405.5,-427.5 405.5,-406.5 354.5,-406.5"/>
<text text-anchor="middle" x="380" y="-414.5" font-family="Helvetica,sans-Serif" font-size="10.00">debug.h</text>
</a>
</g>
<!-- Node26&#45;&gt;Node27 -->
<g id="edge88" class="edge"><title>Node26&#45;&gt;Node27</title>
<path fill="none" stroke="midnightblue" d="M230.959,-464.497C263.079,-454.261 311.757,-438.748 344.665,-428.261"/>
<polygon fill="midnightblue" stroke="midnightblue" points="345.87,-431.55 354.335,-425.179 343.745,-424.88 345.87,-431.55"/>
</g>
<!-- Node28 -->
<g id="node77" class="node"><title>Node28</title>
<polygon fill="white" stroke="#bfbfbf" points="170,-406.5 170,-427.5 226,-427.5 226,-406.5 170,-406.5"/>
<text text-anchor="middle" x="198" y="-414.5" font-family="Helvetica,sans-Serif" font-size="10.00">algorithm</text>
</g>
<!-- Node26&#45;&gt;Node28 -->
<g id="edge98" class="edge"><title>Node26&#45;&gt;Node28</title>
<path fill="none" stroke="midnightblue" d="M198,-464.362C198,-456.922 198,-446.743 198,-437.728"/>
<polygon fill="midnightblue" stroke="midnightblue" points="201.5,-437.571 198,-427.571 194.5,-437.571 201.5,-437.571"/>
</g>
<!-- Node29 -->
<g id="node79" class="node"><title>Node29</title>
<polygon fill="white" stroke="#bfbfbf" points="244,-406.5 244,-427.5 288,-427.5 288,-406.5 244,-406.5"/>
<text text-anchor="middle" x="266" y="-414.5" font-family="Helvetica,sans-Serif" font-size="10.00">vector</text>
</g>
<!-- Node26&#45;&gt;Node29 -->
<g id="edge100" class="edge"><title>Node26&#45;&gt;Node29</title>
<path fill="none" stroke="midnightblue" d="M210.472,-464.362C220.345,-455.941 234.333,-444.011 245.798,-434.231"/>
<polygon fill="midnightblue" stroke="midnightblue" points="248.27,-436.723 253.607,-427.571 243.727,-431.397 248.27,-436.723"/>
</g>
<!-- Node27&#45;&gt;Node3 -->
<g id="edge94" class="edge"><title>Node27&#45;&gt;Node3</title>
<path fill="none" stroke="midnightblue" d="M405.625,-407.938C432.126,-398.565 473.852,-383.808 504.561,-372.948"/>
<polygon fill="midnightblue" stroke="midnightblue" points="505.85,-376.205 514.111,-369.571 503.516,-369.605 505.85,-376.205"/>
</g>
<!-- Node27&#45;&gt;Node4 -->
<g id="edge90" class="edge"><title>Node27&#45;&gt;Node4</title>
<path fill="none" stroke="midnightblue" d="M381.337,-406.14C388.074,-351.437 418.327,-105.783 427.412,-32.0127"/>
<polygon fill="midnightblue" stroke="midnightblue" points="430.933,-32.0573 428.682,-21.7045 423.986,-31.2016 430.933,-32.0573"/>
</g>
<!-- Node27&#45;&gt;Node7 -->
<g id="edge92" class="edge"><title>Node27&#45;&gt;Node7</title>
<path fill="none" stroke="midnightblue" d="M370.522,-406.429C337.834,-369.969 229.551,-249.191 188.223,-203.095"/>
<polygon fill="midnightblue" stroke="midnightblue" points="190.815,-200.743 181.533,-195.634 185.603,-205.416 190.815,-200.743"/>
</g>
</g>
</svg>
