<?xml version="1.0" encoding="UTF-8" standalone="no"?>
<!DOCTYPE svg PUBLIC "-//W3C//DTD SVG 1.1//EN"
 "http://www.w3.org/Graphics/SVG/1.1/DTD/svg11.dtd">
<!-- Generated by graphviz version 2.26.0 (20091210.2329)
 -->
<!-- Title: legal.h Pages: 1 -->
<svg width="967pt" height="784pt"
 viewBox="0.00 0.00 966.68 784.00" xmlns="http://www.w3.org/2000/svg" xmlns:xlink="http://www.w3.org/1999/xlink">
<g id="graph1" class="graph" transform="scale(1 1) rotate(0) translate(4 780)">
<title>legal.h</title>
<polygon fill="white" stroke="white" points="-4,5 -4,-780 963.684,-780 963.684,5 -4,5"/>
<!-- Node1 -->
<g id="node1" class="node"><title>Node1</title>
<polygon fill="#bfbfbf" stroke="black" points="181.5,-754.5 181.5,-775.5 226.5,-775.5 226.5,-754.5 181.5,-754.5"/>
<text text-anchor="middle" x="204" y="-762.5" font-family="Helvetica,sans-Serif" font-size="10.00">legal.h</text>
</g>
<!-- Node2 -->
<g id="node3" class="node"><title>Node2</title>
<polygon fill="white" stroke="#bfbfbf" points="283.5,-0.5 283.5,-21.5 350.5,-21.5 350.5,-0.5 283.5,-0.5"/>
<text text-anchor="middle" x="317" y="-8.5" font-family="Helvetica,sans-Serif" font-size="10.00">basicmod.h</text>
</g>
<!-- Node1&#45;&gt;Node2 -->
<g id="edge2" class="edge"><title>Node1&#45;&gt;Node2</title>
<path fill="none" stroke="midnightblue" d="M181.389,-762.778C128.275,-756.186 0,-731.706 0,-649 0,-649 0,-649 0,-127 0,-89.3873 17.2016,-78.0892 49,-58 85.5809,-34.8894 207.052,-20.7863 273.182,-14.6341"/>
<polygon fill="midnightblue" stroke="midnightblue" points="273.656,-18.1055 283.298,-13.7148 273.023,-11.1342 273.656,-18.1055"/>
</g>
<!-- Node3 -->
<g id="node5" class="node"><title>Node3</title>
<a xlink:href="factory_8h.html" target="_top" xlink:title="factory.h">
<polygon fill="white" stroke="black" points="380.5,-696.5 380.5,-717.5 435.5,-717.5 435.5,-696.5 380.5,-696.5"/>
<text text-anchor="middle" x="408" y="-704.5" font-family="Helvetica,sans-Serif" font-size="10.00">factory.h</text>
</a>
</g>
<!-- Node1&#45;&gt;Node3 -->
<g id="edge4" class="edge"><title>Node1&#45;&gt;Node3</title>
<path fill="none" stroke="midnightblue" d="M226.611,-758.571C261.4,-748.681 328.432,-729.622 370.546,-717.649"/>
<polygon fill="midnightblue" stroke="midnightblue" points="371.761,-720.942 380.423,-714.841 369.847,-714.209 371.761,-720.942"/>
</g>
<!-- Node3&#45;&gt;Node2 -->
<g id="edge6" class="edge"><title>Node3&#45;&gt;Node2</title>
<path fill="none" stroke="midnightblue" d="M380.492,-704.381C294.744,-695.466 38,-662.779 38,-591 38,-591 38,-591 38,-127 38,-91.328 49.8601,-78.5758 79,-58 109.671,-36.343 213.065,-22.0547 273.006,-15.376"/>
<polygon fill="midnightblue" stroke="midnightblue" points="273.745,-18.8164 283.308,-14.2554 272.988,-11.8574 273.745,-18.8164"/>
</g>
<!-- Node4 -->
<g id="node8" class="node"><title>Node4</title>
<a xlink:href="bufstringset_8h.html" target="_top" xlink:title="bufstringset.h">
<polygon fill="white" stroke="black" points="192,-638.5 192,-659.5 268,-659.5 268,-638.5 192,-638.5"/>
<text text-anchor="middle" x="230" y="-646.5" font-family="Helvetica,sans-Serif" font-size="10.00">bufstringset.h</text>
</a>
</g>
<!-- Node3&#45;&gt;Node4 -->
<g id="edge8" class="edge"><title>Node3&#45;&gt;Node4</title>
<path fill="none" stroke="midnightblue" d="M380.188,-697.938C351.3,-688.525 305.744,-673.681 272.374,-662.807"/>
<polygon fill="midnightblue" stroke="midnightblue" points="273.033,-659.341 262.441,-659.571 270.865,-665.997 273.033,-659.341"/>
</g>
<!-- Node29 -->
<g id="node76" class="node"><title>Node29</title>
<a xlink:href="perthreadrepos_8h.html" target="_top" xlink:title="perthreadrepos.h">
<polygon fill="white" stroke="black" points="363.5,-638.5 363.5,-659.5 452.5,-659.5 452.5,-638.5 363.5,-638.5"/>
<text text-anchor="middle" x="408" y="-646.5" font-family="Helvetica,sans-Serif" font-size="10.00">perthreadrepos.h</text>
</a>
</g>
<!-- Node3&#45;&gt;Node29 -->
<g id="edge94" class="edge"><title>Node3&#45;&gt;Node29</title>
<path fill="none" stroke="midnightblue" d="M408,-696.362C408,-688.922 408,-678.743 408,-669.728"/>
<polygon fill="midnightblue" stroke="midnightblue" points="411.5,-669.571 408,-659.571 404.5,-669.571 411.5,-669.571"/>
</g>
<!-- Node32 -->
<g id="node90" class="node"><title>Node32</title>
<a xlink:href="ptrman_8h.html" target="_top" xlink:title="ptrman.h">
<polygon fill="white" stroke="black" points="845.5,-232.5 845.5,-253.5 900.5,-253.5 900.5,-232.5 845.5,-232.5"/>
<text text-anchor="middle" x="873" y="-240.5" font-family="Helvetica,sans-Serif" font-size="10.00">ptrman.h</text>
</a>
</g>
<!-- Node3&#45;&gt;Node32 -->
<g id="edge116" class="edge"><title>Node3&#45;&gt;Node32</title>
<path fill="none" stroke="midnightblue" d="M435.838,-705.946C534.843,-701.453 864,-679.836 864,-591 864,-591 864,-591 864,-359 864,-325.497 867.778,-286.715 870.438,-263.557"/>
<polygon fill="midnightblue" stroke="midnightblue" points="873.925,-263.879 871.633,-253.535 866.974,-263.05 873.925,-263.879"/>
</g>
<!-- Node36 -->
<g id="node102" class="node"><title>Node36</title>
<a xlink:href="typeset_8h.html" target="_top" xlink:title="typeset.h">
<polygon fill="white" stroke="black" points="563.5,-522.5 563.5,-543.5 620.5,-543.5 620.5,-522.5 563.5,-522.5"/>
<text text-anchor="middle" x="592" y="-530.5" font-family="Helvetica,sans-Serif" font-size="10.00">typeset.h</text>
</a>
</g>
<!-- Node3&#45;&gt;Node36 -->
<g id="edge132" class="edge"><title>Node3&#45;&gt;Node36</title>
<path fill="none" stroke="midnightblue" d="M421.001,-696.183C431.962,-686.899 447.908,-672.996 461,-660 494.949,-626.3 498.174,-612.792 533,-580 544.397,-569.269 558.013,-558.312 569.292,-549.68"/>
<polygon fill="midnightblue" stroke="midnightblue" points="571.511,-552.391 577.387,-543.575 567.295,-546.803 571.511,-552.391"/>
</g>
<!-- Node37 -->
<g id="node106" class="node"><title>Node37</title>
<a xlink:href="uistring_8h.html" target="_top" xlink:title="uistring.h">
<polygon fill="white" stroke="black" points="542,-580.5 542,-601.5 598,-601.5 598,-580.5 542,-580.5"/>
<text text-anchor="middle" x="570" y="-588.5" font-family="Helvetica,sans-Serif" font-size="10.00">uistring.h</text>
</a>
</g>
<!-- Node3&#45;&gt;Node37 -->
<g id="edge138" class="edge"><title>Node3&#45;&gt;Node37</title>
<path fill="none" stroke="midnightblue" d="M435.576,-699.413C458.934,-692.032 492.445,-679.115 517,-660 534.57,-646.323 549.479,-625.519 558.965,-610.331"/>
<polygon fill="midnightblue" stroke="midnightblue" points="561.993,-612.087 564.147,-601.714 555.994,-608.48 561.993,-612.087"/>
</g>
<!-- Node4&#45;&gt;Node2 -->
<g id="edge10" class="edge"><title>Node4&#45;&gt;Node2</title>
<path fill="none" stroke="midnightblue" d="M191.933,-638.587C146.329,-623.524 76,-590.907 76,-533 76,-533 76,-533 76,-127 76,-94.5312 75.6902,-79.5234 100,-58 125.268,-35.6284 217.492,-21.8721 273.256,-15.4119"/>
<polygon fill="midnightblue" stroke="midnightblue" points="273.674,-18.8871 283.219,-14.2902 272.89,-11.931 273.674,-18.8871"/>
</g>
<!-- Node5 -->
<g id="node11" class="node"><title>Node5</title>
<a xlink:href="bufstring_8h.html" target="_top" xlink:title="bufstring.h">
<polygon fill="white" stroke="black" points="194,-348.5 194,-369.5 256,-369.5 256,-348.5 194,-348.5"/>
<text text-anchor="middle" x="225" y="-356.5" font-family="Helvetica,sans-Serif" font-size="10.00">bufstring.h</text>
</a>
</g>
<!-- Node4&#45;&gt;Node5 -->
<g id="edge12" class="edge"><title>Node4&#45;&gt;Node5</title>
<path fill="none" stroke="midnightblue" d="M216.413,-638.452C194.066,-619.798 152,-578.624 152,-533 152,-533 152,-533 152,-475 152,-435.158 183.228,-397.811 204.835,-376.738"/>
<polygon fill="midnightblue" stroke="midnightblue" points="207.395,-379.136 212.284,-369.737 202.601,-374.035 207.395,-379.136"/>
</g>
<!-- Node22 -->
<g id="node56" class="node"><title>Node22</title>
<a xlink:href="manobjectset_8h.html" target="_top" xlink:title="manobjectset.h">
<polygon fill="white" stroke="black" points="343.5,-580.5 343.5,-601.5 426.5,-601.5 426.5,-580.5 343.5,-580.5"/>
<text text-anchor="middle" x="385" y="-588.5" font-family="Helvetica,sans-Serif" font-size="10.00">manobjectset.h</text>
</a>
</g>
<!-- Node4&#45;&gt;Node22 -->
<g id="edge68" class="edge"><title>Node4&#45;&gt;Node22</title>
<path fill="none" stroke="midnightblue" d="M258.069,-638.497C283.01,-629.164 319.674,-615.445 347.192,-605.147"/>
<polygon fill="midnightblue" stroke="midnightblue" points="348.739,-608.306 356.878,-601.523 346.286,-601.75 348.739,-608.306"/>
</g>
<!-- Node5&#45;&gt;Node2 -->
<g id="edge14" class="edge"><title>Node5&#45;&gt;Node2</title>
<path fill="none" stroke="midnightblue" d="M212.284,-348.263C191.369,-329.325 152,-287.734 152,-243 152,-243 152,-243 152,-127 152,-67.5413 224.592,-35.9248 273.477,-21.3746"/>
<polygon fill="midnightblue" stroke="midnightblue" points="274.55,-24.7083 283.212,-18.6068 272.636,-17.9751 274.55,-24.7083"/>
</g>
<!-- Node6 -->
<g id="node14" class="node"><title>Node6</title>
<a xlink:href="fixedstring_8h.html" target="_top" xlink:title="fixedstring.h">
<polygon fill="white" stroke="black" points="253,-290.5 253,-311.5 323,-311.5 323,-290.5 253,-290.5"/>
<text text-anchor="middle" x="288" y="-298.5" font-family="Helvetica,sans-Serif" font-size="10.00">fixedstring.h</text>
</a>
</g>
<!-- Node5&#45;&gt;Node6 -->
<g id="edge16" class="edge"><title>Node5&#45;&gt;Node6</title>
<path fill="none" stroke="midnightblue" d="M236.555,-348.362C245.613,-340.023 258.41,-328.242 268.974,-318.516"/>
<polygon fill="midnightblue" stroke="midnightblue" points="271.532,-320.919 276.518,-311.571 266.79,-315.769 271.532,-320.919"/>
</g>
<!-- Node19 -->
<g id="node47" class="node"><title>Node19</title>
<a xlink:href="string2_8h.html" target="_top" xlink:title="string2.h">
<polygon fill="white" stroke="black" points="327,-116.5 327,-137.5 381,-137.5 381,-116.5 327,-116.5"/>
<text text-anchor="middle" x="354" y="-124.5" font-family="Helvetica,sans-Serif" font-size="10.00">string2.h</text>
</a>
</g>
<!-- Node5&#45;&gt;Node19 -->
<g id="edge56" class="edge"><title>Node5&#45;&gt;Node19</title>
<path fill="none" stroke="midnightblue" d="M225.059,-348.451C225.601,-325.785 229.159,-271.311 250,-232 269.588,-195.054 306.389,-162.592 330.546,-143.88"/>
<polygon fill="midnightblue" stroke="midnightblue" points="332.952,-146.448 338.818,-137.625 328.73,-140.864 332.952,-146.448"/>
</g>
<!-- Node6&#45;&gt;Node2 -->
<g id="edge18" class="edge"><title>Node6&#45;&gt;Node2</title>
<path fill="none" stroke="midnightblue" d="M269.567,-290.436C241.179,-272.633 190,-233.773 190,-185 190,-185 190,-185 190,-127 190,-77.586 243.064,-43.5862 280.591,-25.7196"/>
<polygon fill="midnightblue" stroke="midnightblue" points="282.119,-28.8695 289.755,-21.5253 279.206,-22.5045 282.119,-28.8695"/>
</g>
<!-- Node7 -->
<g id="node17" class="node"><title>Node7</title>
<a xlink:href="odstring_8h.html" target="_top" xlink:title="odstring.h">
<polygon fill="white" stroke="black" points="258.5,-232.5 258.5,-253.5 317.5,-253.5 317.5,-232.5 258.5,-232.5"/>
<text text-anchor="middle" x="288" y="-240.5" font-family="Helvetica,sans-Serif" font-size="10.00">odstring.h</text>
</a>
</g>
<!-- Node6&#45;&gt;Node7 -->
<g id="edge20" class="edge"><title>Node6&#45;&gt;Node7</title>
<path fill="none" stroke="midnightblue" d="M288,-290.362C288,-282.922 288,-272.743 288,-263.728"/>
<polygon fill="midnightblue" stroke="midnightblue" points="291.5,-263.571 288,-253.571 284.5,-263.571 291.5,-263.571"/>
</g>
<!-- Node7&#45;&gt;Node2 -->
<g id="edge22" class="edge"><title>Node7&#45;&gt;Node2</title>
<path fill="none" stroke="midnightblue" d="M280.821,-232.296C261.996,-202.773 214.812,-118.383 247,-58 254.329,-44.2512 267.664,-33.8104 280.744,-26.3035"/>
<polygon fill="midnightblue" stroke="midnightblue" points="282.483,-29.3436 289.682,-21.5707 279.207,-23.1574 282.483,-29.3436"/>
</g>
<!-- Node8 -->
<g id="node20" class="node"><title>Node8</title>
<a xlink:href="gendefs_8h.html" target="_top" xlink:title="gendefs.h">
<polygon fill="white" stroke="black" points="601.5,-174.5 601.5,-195.5 660.5,-195.5 660.5,-174.5 601.5,-174.5"/>
<text text-anchor="middle" x="631" y="-182.5" font-family="Helvetica,sans-Serif" font-size="10.00">gendefs.h</text>
</a>
</g>
<!-- Node7&#45;&gt;Node8 -->
<g id="edge24" class="edge"><title>Node7&#45;&gt;Node8</title>
<path fill="none" stroke="midnightblue" d="M317.541,-238.005C379.212,-227.576 521.685,-203.485 591.286,-191.715"/>
<polygon fill="midnightblue" stroke="midnightblue" points="592.132,-195.122 601.409,-190.004 590.965,-188.22 592.132,-195.122"/>
</g>
<!-- Node9 -->
<g id="node22" class="node"><title>Node9</title>
<a xlink:href="undefval_8h.html" target="_top" xlink:title="undefval.h">
<polygon fill="white" stroke="black" points="696,-116.5 696,-137.5 758,-137.5 758,-116.5 696,-116.5"/>
<text text-anchor="middle" x="727" y="-124.5" font-family="Helvetica,sans-Serif" font-size="10.00">undefval.h</text>
</a>
</g>
<!-- Node8&#45;&gt;Node9 -->
<g id="edge26" class="edge"><title>Node8&#45;&gt;Node9</title>
<path fill="none" stroke="midnightblue" d="M648.608,-174.362C663.223,-165.532 684.224,-152.844 700.811,-142.822"/>
<polygon fill="midnightblue" stroke="midnightblue" points="702.754,-145.738 709.504,-137.571 699.135,-139.746 702.754,-145.738"/>
</g>
<!-- Node16 -->
<g id="node39" class="node"><title>Node16</title>
<a xlink:href="commontypes_8h.html" target="_top" xlink:title="commontypes.h">
<polygon fill="white" stroke="black" points="592,-116.5 592,-137.5 678,-137.5 678,-116.5 592,-116.5"/>
<text text-anchor="middle" x="635" y="-124.5" font-family="Helvetica,sans-Serif" font-size="10.00">commontypes.h</text>
</a>
</g>
<!-- Node8&#45;&gt;Node16 -->
<g id="edge46" class="edge"><title>Node8&#45;&gt;Node16</title>
<path fill="none" stroke="midnightblue" d="M631.734,-174.362C632.247,-166.922 632.949,-156.743 633.571,-147.728"/>
<polygon fill="midnightblue" stroke="midnightblue" points="637.075,-147.788 634.271,-137.571 630.091,-147.306 637.075,-147.788"/>
</g>
<!-- Node17 -->
<g id="node42" class="node"><title>Node17</title>
<a xlink:href="errmsg_8h.html" target="_top" xlink:title="errmsg.h">
<polygon fill="white" stroke="black" points="449.5,-116.5 449.5,-137.5 504.5,-137.5 504.5,-116.5 449.5,-116.5"/>
<text text-anchor="middle" x="477" y="-124.5" font-family="Helvetica,sans-Serif" font-size="10.00">errmsg.h</text>
</a>
</g>
<!-- Node8&#45;&gt;Node17 -->
<g id="edge50" class="edge"><title>Node8&#45;&gt;Node17</title>
<path fill="none" stroke="midnightblue" d="M603.112,-174.497C578.254,-165.135 541.678,-151.359 514.309,-141.051"/>
<polygon fill="midnightblue" stroke="midnightblue" points="515.273,-137.674 504.681,-137.425 512.805,-144.225 515.273,-137.674"/>
</g>
<!-- Node9&#45;&gt;Node2 -->
<g id="edge28" class="edge"><title>Node9&#45;&gt;Node2</title>
<path fill="none" stroke="midnightblue" d="M699.831,-116.368C675.507,-106.847 638.869,-92.5008 607,-80 582.106,-70.2351 576.652,-65.5511 551,-58 485.822,-38.8143 408.141,-24.9241 360.711,-17.4167"/>
<polygon fill="midnightblue" stroke="midnightblue" points="361.196,-13.9501 350.776,-15.8676 360.118,-20.8665 361.196,-13.9501"/>
</g>
<!-- Node10 -->
<g id="node25" class="node"><title>Node10</title>
<a xlink:href="commondefs_8h.html" target="_top" xlink:title="commondefs.h">
<polygon fill="white" stroke="black" points="615.5,-58.5 615.5,-79.5 696.5,-79.5 696.5,-58.5 615.5,-58.5"/>
<text text-anchor="middle" x="656" y="-66.5" font-family="Helvetica,sans-Serif" font-size="10.00">commondefs.h</text>
</a>
</g>
<!-- Node9&#45;&gt;Node10 -->
<g id="edge30" class="edge"><title>Node9&#45;&gt;Node10</title>
<path fill="none" stroke="midnightblue" d="M713.978,-116.362C703.569,-107.859 688.781,-95.7785 676.745,-85.9466"/>
<polygon fill="midnightblue" stroke="midnightblue" points="678.899,-83.1866 668.94,-79.5707 674.47,-88.6077 678.899,-83.1866"/>
</g>
<!-- Node14 -->
<g id="node34" class="node"><title>Node14</title>
<a xlink:href="plftypes_8h.html" target="_top" xlink:title="plftypes.h">
<polygon fill="white" stroke="black" points="713.5,-58.5 713.5,-79.5 772.5,-79.5 772.5,-58.5 713.5,-58.5"/>
<text text-anchor="middle" x="743" y="-66.5" font-family="Helvetica,sans-Serif" font-size="10.00">plftypes.h</text>
</a>
</g>
<!-- Node9&#45;&gt;Node14 -->
<g id="edge40" class="edge"><title>Node9&#45;&gt;Node14</title>
<path fill="none" stroke="midnightblue" d="M729.935,-116.362C732.01,-108.84 734.857,-98.5187 737.364,-89.4308"/>
<polygon fill="midnightblue" stroke="midnightblue" points="740.799,-90.1414 740.084,-79.5707 734.051,-88.2798 740.799,-90.1414"/>
</g>
<!-- Node10&#45;&gt;Node2 -->
<g id="edge32" class="edge"><title>Node10&#45;&gt;Node2</title>
<path fill="none" stroke="midnightblue" d="M615.342,-60.5477C610.845,-59.6635 606.328,-58.7974 602,-58 516.805,-42.3036 416.814,-26.3895 360.789,-17.6988"/>
<polygon fill="midnightblue" stroke="midnightblue" points="361.27,-14.2318 350.853,-16.1618 360.2,-21.1495 361.27,-14.2318"/>
</g>
<!-- Node11 -->
<g id="node28" class="node"><title>Node11</title>
<a xlink:href="plfdefs_8h.html" target="_top" xlink:title="plfdefs.h">
<polygon fill="white" stroke="black" points="669,-0.5 669,-21.5 723,-21.5 723,-0.5 669,-0.5"/>
<text text-anchor="middle" x="696" y="-8.5" font-family="Helvetica,sans-Serif" font-size="10.00">plfdefs.h</text>
</a>
</g>
<!-- Node10&#45;&gt;Node11 -->
<g id="edge34" class="edge"><title>Node10&#45;&gt;Node11</title>
<path fill="none" stroke="midnightblue" d="M663.337,-58.3619C668.806,-50.4313 676.422,-39.3885 682.924,-29.9606"/>
<polygon fill="midnightblue" stroke="midnightblue" points="685.914,-31.7899 688.71,-21.5707 680.151,-27.8157 685.914,-31.7899"/>
</g>
<!-- Node12 -->
<g id="node30" class="node"><title>Node12</title>
<polygon fill="white" stroke="#bfbfbf" points="879.5,-0.5 879.5,-21.5 938.5,-21.5 938.5,-0.5 879.5,-0.5"/>
<text text-anchor="middle" x="909" y="-8.5" font-family="Helvetica,sans-Serif" font-size="10.00">stdexcept</text>
</g>
<!-- Node10&#45;&gt;Node12 -->
<g id="edge36" class="edge"><title>Node10&#45;&gt;Node12</title>
<path fill="none" stroke="midnightblue" d="M696.649,-59.6813C744.148,-48.7923 822.222,-30.8937 869.306,-20.0997"/>
<polygon fill="midnightblue" stroke="midnightblue" points="870.181,-23.4901 879.146,-17.844 868.617,-16.6671 870.181,-23.4901"/>
</g>
<!-- Node13 -->
<g id="node32" class="node"><title>Node13</title>
<polygon fill="white" stroke="#bfbfbf" points="616.5,-0.5 616.5,-21.5 651.5,-21.5 651.5,-0.5 616.5,-0.5"/>
<text text-anchor="middle" x="634" y="-8.5" font-family="Helvetica,sans-Serif" font-size="10.00">new</text>
</g>
<!-- Node10&#45;&gt;Node13 -->
<g id="edge38" class="edge"><title>Node10&#45;&gt;Node13</title>
<path fill="none" stroke="midnightblue" d="M651.965,-58.3619C649.081,-50.7584 645.112,-40.294 641.637,-31.1349"/>
<polygon fill="midnightblue" stroke="midnightblue" points="644.829,-29.6793 638.01,-21.5707 638.284,-32.1619 644.829,-29.6793"/>
</g>
<!-- Node14&#45;&gt;Node11 -->
<g id="edge42" class="edge"><title>Node14&#45;&gt;Node11</title>
<path fill="none" stroke="midnightblue" d="M734.379,-58.3619C727.82,-50.2678 718.634,-38.9318 710.894,-29.3796"/>
<polygon fill="midnightblue" stroke="midnightblue" points="713.581,-27.1364 704.566,-21.5707 708.142,-31.5436 713.581,-27.1364"/>
</g>
<!-- Node15 -->
<g id="node37" class="node"><title>Node15</title>
<polygon fill="white" stroke="#bfbfbf" points="740.5,-0.5 740.5,-21.5 789.5,-21.5 789.5,-0.5 740.5,-0.5"/>
<text text-anchor="middle" x="765" y="-8.5" font-family="Helvetica,sans-Serif" font-size="10.00">stdint.h</text>
</g>
<!-- Node14&#45;&gt;Node15 -->
<g id="edge44" class="edge"><title>Node14&#45;&gt;Node15</title>
<path fill="none" stroke="midnightblue" d="M747.035,-58.3619C749.919,-50.7584 753.888,-40.294 757.363,-31.1349"/>
<polygon fill="midnightblue" stroke="midnightblue" points="760.716,-32.1619 760.99,-21.5707 754.171,-29.6793 760.716,-32.1619"/>
</g>
<!-- Node16&#45;&gt;Node10 -->
<g id="edge48" class="edge"><title>Node16&#45;&gt;Node10</title>
<path fill="none" stroke="midnightblue" d="M638.852,-116.362C641.605,-108.758 645.394,-98.294 648.71,-89.1349"/>
<polygon fill="midnightblue" stroke="midnightblue" points="652.059,-90.1649 652.173,-79.5707 645.477,-87.7818 652.059,-90.1649"/>
</g>
<!-- Node17&#45;&gt;Node10 -->
<g id="edge52" class="edge"><title>Node17&#45;&gt;Node10</title>
<path fill="none" stroke="midnightblue" d="M504.576,-118.065C533.764,-108.607 580.184,-93.566 613.941,-82.6282"/>
<polygon fill="midnightblue" stroke="midnightblue" points="615.104,-85.9304 623.538,-79.5183 612.946,-79.2713 615.104,-85.9304"/>
</g>
<!-- Node18 -->
<g id="node45" class="node"><title>Node18</title>
<polygon fill="white" stroke="#bfbfbf" points="471.5,-58.5 471.5,-79.5 522.5,-79.5 522.5,-58.5 471.5,-58.5"/>
<text text-anchor="middle" x="497" y="-66.5" font-family="Helvetica,sans-Serif" font-size="10.00">typeinfo</text>
</g>
<!-- Node17&#45;&gt;Node18 -->
<g id="edge54" class="edge"><title>Node17&#45;&gt;Node18</title>
<path fill="none" stroke="midnightblue" d="M480.668,-116.362C483.29,-108.758 486.899,-98.294 490.057,-89.1349"/>
<polygon fill="midnightblue" stroke="midnightblue" points="493.404,-90.1654 493.355,-79.5707 486.786,-87.8834 493.404,-90.1654"/>
</g>
<!-- Node19&#45;&gt;Node2 -->
<g id="edge58" class="edge"><title>Node19&#45;&gt;Node2</title>
<path fill="none" stroke="midnightblue" d="M365.798,-116.098C379.154,-102.374 397.744,-78.1546 387,-58 379.671,-44.2512 366.336,-33.8104 353.256,-26.3035"/>
<polygon fill="midnightblue" stroke="midnightblue" points="354.793,-23.1574 344.318,-21.5707 351.517,-29.3436 354.793,-23.1574"/>
</g>
<!-- Node19&#45;&gt;Node10 -->
<g id="edge62" class="edge"><title>Node19&#45;&gt;Node10</title>
<path fill="none" stroke="midnightblue" d="M381.066,-121.802C431.57,-112.102 540.88,-91.1091 605.42,-78.7141"/>
<polygon fill="midnightblue" stroke="midnightblue" points="606.217,-82.1249 615.378,-76.8016 604.897,-75.2506 606.217,-82.1249"/>
</g>
<!-- Node19&#45;&gt;Node14 -->
<g id="edge60" class="edge"><title>Node19&#45;&gt;Node14</title>
<path fill="none" stroke="midnightblue" d="M381.253,-123.463C454.435,-113.953 652.699,-88.0922 703.379,-79.8369"/>
<polygon fill="midnightblue" stroke="midnightblue" points="704.009,-83.2797 713.235,-78.0698 702.774,-76.3896 704.009,-83.2797"/>
</g>
<!-- Node20 -->
<g id="node52" class="node"><title>Node20</title>
<polygon fill="white" stroke="#bfbfbf" points="329.5,-58.5 329.5,-79.5 378.5,-79.5 378.5,-58.5 329.5,-58.5"/>
<text text-anchor="middle" x="354" y="-66.5" font-family="Helvetica,sans-Serif" font-size="10.00">ctype.h</text>
</g>
<!-- Node19&#45;&gt;Node20 -->
<g id="edge64" class="edge"><title>Node19&#45;&gt;Node20</title>
<path fill="none" stroke="midnightblue" d="M354,-116.362C354,-108.922 354,-98.7427 354,-89.7276"/>
<polygon fill="midnightblue" stroke="midnightblue" points="357.5,-89.5706 354,-79.5707 350.5,-89.5707 357.5,-89.5706"/>
</g>
<!-- Node21 -->
<g id="node54" class="node"><title>Node21</title>
<polygon fill="white" stroke="#bfbfbf" points="256,-58.5 256,-79.5 312,-79.5 312,-58.5 256,-58.5"/>
<text text-anchor="middle" x="284" y="-66.5" font-family="Helvetica,sans-Serif" font-size="10.00">wctype.h</text>
</g>
<!-- Node19&#45;&gt;Node21 -->
<g id="edge66" class="edge"><title>Node19&#45;&gt;Node21</title>
<path fill="none" stroke="midnightblue" d="M341.161,-116.362C330.998,-107.941 316.599,-96.0105 304.796,-86.2308"/>
<polygon fill="midnightblue" stroke="midnightblue" points="306.691,-83.2558 296.758,-79.5707 302.225,-88.6459 306.691,-83.2558"/>
</g>
<!-- Node23 -->
<g id="node58" class="node"><title>Node23</title>
<a xlink:href="objectset_8h.html" target="_top" xlink:title="objectset.h">
<polygon fill="white" stroke="black" points="481.5,-522.5 481.5,-543.5 546.5,-543.5 546.5,-522.5 481.5,-522.5"/>
<text text-anchor="middle" x="514" y="-530.5" font-family="Helvetica,sans-Serif" font-size="10.00">objectset.h</text>
</a>
</g>
<!-- Node22&#45;&gt;Node23 -->
<g id="edge70" class="edge"><title>Node22&#45;&gt;Node23</title>
<path fill="none" stroke="midnightblue" d="M408.361,-580.497C428.691,-571.356 458.378,-558.008 481.109,-547.788"/>
<polygon fill="midnightblue" stroke="midnightblue" points="482.692,-550.914 490.377,-543.621 479.821,-544.53 482.692,-550.914"/>
</g>
<!-- Node24 -->
<g id="node60" class="node"><title>Node24</title>
<a xlink:href="odset_8h.html" target="_top" xlink:title="odset.h">
<polygon fill="white" stroke="black" points="606.5,-464.5 606.5,-485.5 655.5,-485.5 655.5,-464.5 606.5,-464.5"/>
<text text-anchor="middle" x="631" y="-472.5" font-family="Helvetica,sans-Serif" font-size="10.00">odset.h</text>
</a>
</g>
<!-- Node23&#45;&gt;Node24 -->
<g id="edge72" class="edge"><title>Node23&#45;&gt;Node24</title>
<path fill="none" stroke="midnightblue" d="M535.188,-522.497C553.462,-513.438 580.072,-500.246 600.615,-490.063"/>
<polygon fill="midnightblue" stroke="midnightblue" points="602.169,-493.199 609.574,-485.621 599.06,-486.927 602.169,-493.199"/>
</g>
<!-- Node25 -->
<g id="node63" class="node"><title>Node25</title>
<a xlink:href="vectoraccess_8h.html" target="_top" xlink:title="vectoraccess.h">
<polygon fill="white" stroke="black" points="506.5,-464.5 506.5,-485.5 589.5,-485.5 589.5,-464.5 506.5,-464.5"/>
<text text-anchor="middle" x="548" y="-472.5" font-family="Helvetica,sans-Serif" font-size="10.00">vectoraccess.h</text>
</a>
</g>
<!-- Node23&#45;&gt;Node25 -->
<g id="edge76" class="edge"><title>Node23&#45;&gt;Node25</title>
<path fill="none" stroke="midnightblue" d="M520.236,-522.362C524.837,-514.513 531.225,-503.616 536.714,-494.253"/>
<polygon fill="midnightblue" stroke="midnightblue" points="539.766,-495.968 541.803,-485.571 533.727,-492.428 539.766,-495.968"/>
</g>
<!-- Node24&#45;&gt;Node8 -->
<g id="edge74" class="edge"><title>Node24&#45;&gt;Node8</title>
<path fill="none" stroke="midnightblue" d="M636.469,-464.448C646.312,-444.444 666,-399.388 666,-359 666,-359 666,-359 666,-301 666,-265.976 651.195,-227.441 640.843,-204.778"/>
<polygon fill="midnightblue" stroke="midnightblue" points="643.915,-203.089 636.469,-195.552 637.59,-206.088 643.915,-203.089"/>
</g>
<!-- Node25&#45;&gt;Node8 -->
<g id="edge86" class="edge"><title>Node25&#45;&gt;Node8</title>
<path fill="none" stroke="midnightblue" d="M567.795,-464.365C581.298,-456.137 598.563,-443.537 609,-428 626.737,-401.596 628,-390.808 628,-359 628,-359 628,-359 628,-301 628,-267.587 629.259,-228.777 630.146,-205.59"/>
<polygon fill="midnightblue" stroke="midnightblue" points="633.645,-205.685 630.544,-195.554 626.65,-205.407 633.645,-205.685"/>
</g>
<!-- Node25&#45;&gt;Node12 -->
<g id="edge92" class="edge"><title>Node25&#45;&gt;Node12</title>
<path fill="none" stroke="midnightblue" d="M574.805,-464.415C639.474,-437.759 806.288,-362.182 909,-254 969.773,-189.99 966.989,-142.351 941,-58 937.841,-47.7466 931.596,-37.7278 925.455,-29.5925"/>
<polygon fill="midnightblue" stroke="midnightblue" points="927.991,-27.1612 918.984,-21.5822 922.546,-31.5603 927.991,-27.1612"/>
</g>
<!-- Node26 -->
<g id="node65" class="node"><title>Node26</title>
<a xlink:href="debug_8h.html" target="_top" xlink:title="debug.h">
<polygon fill="white" stroke="black" points="375.5,-406.5 375.5,-427.5 426.5,-427.5 426.5,-406.5 375.5,-406.5"/>
<text text-anchor="middle" x="401" y="-414.5" font-family="Helvetica,sans-Serif" font-size="10.00">debug.h</text>
</a>
</g>
<!-- Node25&#45;&gt;Node26 -->
<g id="edge78" class="edge"><title>Node25&#45;&gt;Node26</title>
<path fill="none" stroke="midnightblue" d="M521.379,-464.497C497.609,-455.118 462.612,-441.31 436.472,-430.996"/>
<polygon fill="midnightblue" stroke="midnightblue" points="437.516,-427.645 426.929,-427.231 434.947,-434.157 437.516,-427.645"/>
</g>
<!-- Node27 -->
<g id="node71" class="node"><title>Node27</title>
<polygon fill="white" stroke="#bfbfbf" points="544,-406.5 544,-427.5 600,-427.5 600,-406.5 544,-406.5"/>
<text text-anchor="middle" x="572" y="-414.5" font-family="Helvetica,sans-Serif" font-size="10.00">algorithm</text>
</g>
<!-- Node25&#45;&gt;Node27 -->
<g id="edge88" class="edge"><title>Node25&#45;&gt;Node27</title>
<path fill="none" stroke="midnightblue" d="M552.402,-464.362C555.582,-456.677 559.972,-446.069 563.79,-436.84"/>
<polygon fill="midnightblue" stroke="midnightblue" points="567.036,-438.149 567.626,-427.571 560.568,-435.473 567.036,-438.149"/>
</g>
<!-- Node28 -->
<g id="node73" class="node"><title>Node28</title>
<polygon fill="white" stroke="#bfbfbf" points="482,-406.5 482,-427.5 526,-427.5 526,-406.5 482,-406.5"/>
<text text-anchor="middle" x="504" y="-414.5" font-family="Helvetica,sans-Serif" font-size="10.00">vector</text>
</g>
<!-- Node25&#45;&gt;Node28 -->
<g id="edge90" class="edge"><title>Node25&#45;&gt;Node28</title>
<path fill="none" stroke="midnightblue" d="M539.93,-464.362C533.851,-456.35 525.363,-445.161 518.163,-435.67"/>
<polygon fill="midnightblue" stroke="midnightblue" points="520.851,-433.422 512.019,-427.571 515.275,-437.653 520.851,-433.422"/>
</g>
<!-- Node26&#45;&gt;Node2 -->
<g id="edge80" class="edge"><title>Node26&#45;&gt;Node2</title>
<path fill="none" stroke="midnightblue" d="M404.281,-406.243C410.188,-385.898 422,-340.295 422,-301 422,-301 422,-301 422,-185 422,-127.86 434.778,-104.804 402,-58 391.827,-43.4734 375.666,-32.95 360.155,-25.5924"/>
<polygon fill="midnightblue" stroke="midnightblue" points="361.203,-22.2302 350.64,-21.4128 358.388,-28.6391 361.203,-22.2302"/>
</g>
<!-- Node26&#45;&gt;Node5 -->
<g id="edge84" class="edge"><title>Node26&#45;&gt;Node5</title>
<path fill="none" stroke="midnightblue" d="M375.408,-408.566C346.686,-399.101 299.691,-383.614 265.87,-372.468"/>
<polygon fill="midnightblue" stroke="midnightblue" points="266.863,-369.111 256.27,-369.305 264.672,-375.759 266.863,-369.111"/>
</g>
<!-- Node26&#45;&gt;Node8 -->
<g id="edge82" class="edge"><title>Node26&#45;&gt;Node8</title>
<path fill="none" stroke="midnightblue" d="M411.48,-406.429C447.701,-369.893 567.858,-248.691 613.344,-202.809"/>
<polygon fill="midnightblue" stroke="midnightblue" points="615.903,-205.199 620.458,-195.634 610.932,-200.271 615.903,-205.199"/>
</g>
<!-- Node29&#45;&gt;Node2 -->
<g id="edge96" class="edge"><title>Node29&#45;&gt;Node2</title>
<path fill="none" stroke="midnightblue" d="M363.348,-643.371C281.102,-630.238 114,-589.47 114,-475 114,-475 114,-475 114,-127 114,-54.0943 213.925,-26.3898 273.56,-16.3474"/>
<polygon fill="midnightblue" stroke="midnightblue" points="274.149,-19.7978 283.479,-14.7765 273.054,-12.884 274.149,-19.7978"/>
</g>
<!-- Node29&#45;&gt;Node22 -->
<g id="edge98" class="edge"><title>Node29&#45;&gt;Node22</title>
<path fill="none" stroke="midnightblue" d="M403.781,-638.362C400.766,-630.758 396.617,-620.294 392.985,-611.135"/>
<polygon fill="midnightblue" stroke="midnightblue" points="396.132,-609.576 389.192,-601.571 389.625,-612.157 396.132,-609.576"/>
</g>
<!-- Node30 -->
<g id="node80" class="node"><title>Node30</title>
<a xlink:href="threadlock_8h.html" target="_top" xlink:title="threadlock.h">
<polygon fill="white" stroke="black" points="776,-116.5 776,-137.5 846,-137.5 846,-116.5 776,-116.5"/>
<text text-anchor="middle" x="811" y="-124.5" font-family="Helvetica,sans-Serif" font-size="10.00">threadlock.h</text>
</a>
</g>
<!-- Node29&#45;&gt;Node30 -->
<g id="edge100" class="edge"><title>Node29&#45;&gt;Node30</title>
<path fill="none" stroke="midnightblue" d="M452.658,-645.862C558.921,-637.173 818,-608.269 818,-533 818,-533 818,-533 818,-243 818,-209.537 815.062,-170.743 812.992,-147.571"/>
<polygon fill="midnightblue" stroke="midnightblue" points="816.471,-147.178 812.063,-137.543 809.501,-147.824 816.471,-147.178"/>
</g>
<!-- Node31 -->
<g id="node85" class="node"><title>Node31</title>
<a xlink:href="thread_8h.html" target="_top" xlink:title="thread.h">
<polygon fill="white" stroke="black" points="522,-116.5 522,-137.5 574,-137.5 574,-116.5 522,-116.5"/>
<text text-anchor="middle" x="548" y="-124.5" font-family="Helvetica,sans-Serif" font-size="10.00">thread.h</text>
</a>
</g>
<!-- Node29&#45;&gt;Node31 -->
<g id="edge108" class="edge"><title>Node29&#45;&gt;Node31</title>
<path fill="none" stroke="midnightblue" d="M415.391,-638.366C428.394,-618.585 454,-574.379 454,-533 454,-533 454,-533 454,-475 454,-397.621 460,-378.379 460,-301 460,-301 460,-301 460,-243 460,-200.758 497.498,-164.236 523.538,-143.966"/>
<polygon fill="midnightblue" stroke="midnightblue" points="525.956,-146.528 531.859,-137.73 521.758,-140.926 525.956,-146.528"/>
</g>
<!-- Node30&#45;&gt;Node2 -->
<g id="edge102" class="edge"><title>Node30&#45;&gt;Node2</title>
<path fill="none" stroke="midnightblue" d="M809.7,-116.294C807.184,-100.663 800.093,-71.9446 781,-58 747.468,-33.5099 469.749,-18.0898 360.707,-12.9288"/>
<polygon fill="midnightblue" stroke="midnightblue" points="360.847,-9.43159 350.695,-12.4614 360.521,-16.424 360.847,-9.43159"/>
</g>
<!-- Node30&#45;&gt;Node10 -->
<g id="edge104" class="edge"><title>Node30&#45;&gt;Node10</title>
<path fill="none" stroke="midnightblue" d="M782.931,-116.497C757.99,-107.164 721.326,-93.4447 693.808,-83.1475"/>
<polygon fill="midnightblue" stroke="midnightblue" points="694.714,-79.7497 684.122,-79.5231 692.261,-86.3058 694.714,-79.7497"/>
</g>
<!-- Node30&#45;&gt;Node14 -->
<g id="edge106" class="edge"><title>Node30&#45;&gt;Node14</title>
<path fill="none" stroke="midnightblue" d="M798.528,-116.362C788.655,-107.941 774.667,-96.0105 763.202,-86.2308"/>
<polygon fill="midnightblue" stroke="midnightblue" points="765.273,-83.3972 755.393,-79.5707 760.73,-88.7231 765.273,-83.3972"/>
</g>
<!-- Node31&#45;&gt;Node2 -->
<g id="edge110" class="edge"><title>Node31&#45;&gt;Node2</title>
<path fill="none" stroke="midnightblue" d="M548.599,-116.466C548.846,-101.317 546.901,-73.5025 531,-58 507.204,-34.8002 416.19,-21.374 360.806,-15.1879"/>
<polygon fill="midnightblue" stroke="midnightblue" points="360.888,-11.6764 350.569,-14.0813 360.135,-18.6358 360.888,-11.6764"/>
</g>
<!-- Node31&#45;&gt;Node10 -->
<g id="edge112" class="edge"><title>Node31&#45;&gt;Node10</title>
<path fill="none" stroke="midnightblue" d="M567.558,-116.497C584.198,-107.56 608.327,-94.602 627.18,-84.4772"/>
<polygon fill="midnightblue" stroke="midnightblue" points="629.069,-87.436 636.223,-79.6212 625.757,-81.2691 629.069,-87.436"/>
</g>
<!-- Node31&#45;&gt;Node14 -->
<g id="edge114" class="edge"><title>Node31&#45;&gt;Node14</title>
<path fill="none" stroke="midnightblue" d="M574.357,-118.658C577.271,-117.753 580.197,-116.852 583,-116 605.535,-109.15 664.06,-92.0204 703.722,-80.4461"/>
<polygon fill="midnightblue" stroke="midnightblue" points="704.746,-83.7934 713.365,-77.6328 702.785,-77.0735 704.746,-83.7934"/>
</g>
<!-- Node32&#45;&gt;Node8 -->
<g id="edge118" class="edge"><title>Node32&#45;&gt;Node8</title>
<path fill="none" stroke="midnightblue" d="M845.24,-236.347C802.354,-226.068 719.819,-206.287 670.655,-194.504"/>
<polygon fill="midnightblue" stroke="midnightblue" points="671.237,-191.045 660.697,-192.117 669.606,-197.852 671.237,-191.045"/>
</g>
<!-- Node33 -->
<g id="node93" class="node"><title>Node33</title>
<a xlink:href="atomic_8h.html" target="_top" xlink:title="atomic.h">
<polygon fill="white" stroke="black" points="864,-116.5 864,-137.5 918,-137.5 918,-116.5 864,-116.5"/>
<text text-anchor="middle" x="891" y="-124.5" font-family="Helvetica,sans-Serif" font-size="10.00">atomic.h</text>
</a>
</g>
<!-- Node32&#45;&gt;Node33 -->
<g id="edge120" class="edge"><title>Node32&#45;&gt;Node33</title>
<path fill="none" stroke="midnightblue" d="M872.322,-232.14C871.695,-218.46 871.339,-194.285 875,-174 876.636,-164.934 879.695,-155.246 882.703,-147.036"/>
<polygon fill="midnightblue" stroke="midnightblue" points="886.016,-148.173 886.376,-137.584 879.491,-145.638 886.016,-148.173"/>
</g>
<!-- Node35 -->
<g id="node100" class="node"><title>Node35</title>
<polygon fill="white" stroke="#bfbfbf" points="884,-174.5 884,-195.5 932,-195.5 932,-174.5 884,-174.5"/>
<text text-anchor="middle" x="908" y="-182.5" font-family="Helvetica,sans-Serif" font-size="10.00">stdlib.h</text>
</g>
<!-- Node32&#45;&gt;Node35 -->
<g id="edge130" class="edge"><title>Node32&#45;&gt;Node35</title>
<path fill="none" stroke="midnightblue" d="M879.42,-232.362C884.156,-224.513 890.732,-213.616 896.382,-204.253"/>
<polygon fill="midnightblue" stroke="midnightblue" points="899.451,-205.941 901.621,-195.571 893.458,-202.324 899.451,-205.941"/>
</g>
<!-- Node33&#45;&gt;Node2 -->
<g id="edge122" class="edge"><title>Node33&#45;&gt;Node2</title>
<path fill="none" stroke="midnightblue" d="M881.415,-116.328C866.443,-100.465 835.804,-71.1286 803,-58 723.204,-26.0649 464.874,-15.2322 360.925,-12.1085"/>
<polygon fill="midnightblue" stroke="midnightblue" points="360.872,-8.60562 350.775,-11.8134 360.669,-15.6027 360.872,-8.60562"/>
</g>
<!-- Node33&#45;&gt;Node10 -->
<g id="edge124" class="edge"><title>Node33&#45;&gt;Node10</title>
<path fill="none" stroke="midnightblue" d="M863.927,-118.523C860.923,-117.643 857.902,-116.785 855,-116 827.43,-108.54 755.894,-91.8889 706.557,-80.5482"/>
<polygon fill="midnightblue" stroke="midnightblue" points="707.227,-77.1111 696.697,-78.2847 705.661,-83.9336 707.227,-77.1111"/>
</g>
<!-- Node33&#45;&gt;Node14 -->
<g id="edge126" class="edge"><title>Node33&#45;&gt;Node14</title>
<path fill="none" stroke="midnightblue" d="M864.198,-116.497C840.562,-107.234 805.9,-93.6499 779.692,-83.3793"/>
<polygon fill="midnightblue" stroke="midnightblue" points="780.69,-80.0113 770.102,-79.6212 778.136,-86.5287 780.69,-80.0113"/>
</g>
<!-- Node34 -->
<g id="node98" class="node"><title>Node34</title>
<polygon fill="white" stroke="#bfbfbf" points="865.5,-58.5 865.5,-79.5 932.5,-79.5 932.5,-58.5 865.5,-58.5"/>
<text text-anchor="middle" x="899" y="-66.5" font-family="Helvetica,sans-Serif" font-size="10.00">odversion.h</text>
</g>
<!-- Node33&#45;&gt;Node34 -->
<g id="edge128" class="edge"><title>Node33&#45;&gt;Node34</title>
<path fill="none" stroke="midnightblue" d="M892.467,-116.362C893.494,-108.922 894.898,-98.7427 896.141,-89.7276"/>
<polygon fill="midnightblue" stroke="midnightblue" points="899.643,-89.9551 897.542,-79.5707 892.708,-88.9986 899.643,-89.9551"/>
</g>
<!-- Node36&#45;&gt;Node24 -->
<g id="edge134" class="edge"><title>Node36&#45;&gt;Node24</title>
<path fill="none" stroke="midnightblue" d="M599.153,-522.362C604.486,-514.431 611.911,-503.389 618.251,-493.961"/>
<polygon fill="midnightblue" stroke="midnightblue" points="621.217,-495.822 623.892,-485.571 615.408,-491.916 621.217,-495.822"/>
</g>
<!-- Node36&#45;&gt;Node25 -->
<g id="edge136" class="edge"><title>Node36&#45;&gt;Node25</title>
<path fill="none" stroke="midnightblue" d="M583.93,-522.362C577.851,-514.35 569.363,-503.161 562.163,-493.67"/>
<polygon fill="midnightblue" stroke="midnightblue" points="564.851,-491.422 556.019,-485.571 559.275,-495.653 564.851,-491.422"/>
</g>
<!-- Node37&#45;&gt;Node8 -->
<g id="edge140" class="edge"><title>Node37&#45;&gt;Node8</title>
<path fill="none" stroke="midnightblue" d="M598.018,-585.58C646.756,-574.345 742,-543.613 742,-475 742,-475 742,-475 742,-301 742,-254.502 694.867,-219.347 662.028,-200.496"/>
<polygon fill="midnightblue" stroke="midnightblue" points="663.641,-197.389 653.196,-195.616 660.256,-203.516 663.641,-197.389"/>
</g>
<!-- Node37&#45;&gt;Node19 -->
<g id="edge150" class="edge"><title>Node37&#45;&gt;Node19</title>
<path fill="none" stroke="midnightblue" d="M541.68,-584.711C474.294,-568.928 310,-525.293 310,-475 310,-475 310,-475 310,-417 310,-369.32 324.288,-359.052 332,-312 341.682,-252.926 348.863,-182.574 352.099,-148.127"/>
<polygon fill="midnightblue" stroke="midnightblue" points="355.61,-148.169 353.043,-137.89 348.64,-147.526 355.61,-148.169"/>
</g>
<!-- Node37&#45;&gt;Node30 -->
<g id="edge148" class="edge"><title>Node37&#45;&gt;Node30</title>
<path fill="none" stroke="midnightblue" d="M598.322,-588.431C655.643,-581.514 780,-557.052 780,-475 780,-475 780,-475 780,-243 780,-208.292 793.113,-169.663 802.282,-146.894"/>
<polygon fill="midnightblue" stroke="midnightblue" points="805.531,-148.197 806.156,-137.621 799.072,-145.499 805.531,-148.197"/>
</g>
<!-- Node37&#45;&gt;Node36 -->
<g id="edge152" class="edge"><title>Node37&#45;&gt;Node36</title>
<path fill="none" stroke="midnightblue" d="M574.035,-580.362C576.919,-572.758 580.888,-562.294 584.363,-553.135"/>
<polygon fill="midnightblue" stroke="midnightblue" points="587.716,-554.162 587.99,-543.571 581.171,-551.679 587.716,-554.162"/>
</g>
<!-- Node38 -->
<g id="node109" class="node"><title>Node38</title>
<a xlink:href="keystrs_8h.html" target="_top" xlink:title="keystrs.h">
<polygon fill="white" stroke="black" points="337.5,-348.5 337.5,-369.5 394.5,-369.5 394.5,-348.5 337.5,-348.5"/>
<text text-anchor="middle" x="366" y="-356.5" font-family="Helvetica,sans-Serif" font-size="10.00">keystrs.h</text>
</a>
</g>
<!-- Node37&#45;&gt;Node38 -->
<g id="edge142" class="edge"><title>Node37&#45;&gt;Node38</title>
<path fill="none" stroke="midnightblue" d="M541.668,-580.617C521.429,-572.43 494.151,-559.774 473,-544 417.016,-502.248 392.738,-492.923 367,-428 360.938,-412.709 361.091,-393.973 362.536,-379.885"/>
<polygon fill="midnightblue" stroke="midnightblue" points="366.036,-380.111 363.877,-369.738 359.097,-379.193 366.036,-380.111"/>
</g>
<!-- Node38&#45;&gt;Node6 -->
<g id="edge146" class="edge"><title>Node38&#45;&gt;Node6</title>
<path fill="none" stroke="midnightblue" d="M351.694,-348.362C340.149,-339.777 323.7,-327.546 310.41,-317.664"/>
<polygon fill="midnightblue" stroke="midnightblue" points="312.329,-314.729 302.216,-311.571 308.152,-320.346 312.329,-314.729"/>
</g>
<!-- Node38&#45;&gt;Node8 -->
<g id="edge144" class="edge"><title>Node38&#45;&gt;Node8</title>
<path fill="none" stroke="midnightblue" d="M382.178,-348.377C426.9,-319.013 552.434,-236.587 606.129,-201.33"/>
<polygon fill="midnightblue" stroke="midnightblue" points="608.259,-204.119 614.697,-195.705 604.417,-198.268 608.259,-204.119"/>
</g>
</g>
</svg>
