<?xml version="1.0" encoding="UTF-8" standalone="no"?>
<!DOCTYPE svg PUBLIC "-//W3C//DTD SVG 1.1//EN"
 "http://www.w3.org/Graphics/SVG/1.1/DTD/svg11.dtd">
<!-- Generated by graphviz version 2.26.0 (20091210.2329)
 -->
<!-- Title: mathformula.h Pages: 1 -->
<svg width="873pt" height="610pt"
 viewBox="0.00 0.00 873.00 610.00" xmlns="http://www.w3.org/2000/svg" xmlns:xlink="http://www.w3.org/1999/xlink">
<g id="graph1" class="graph" transform="scale(1 1) rotate(0) translate(4 606)">
<title>mathformula.h</title>
<polygon fill="white" stroke="white" points="-4,5 -4,-606 870,-606 870,5 -4,5"/>
<!-- Node1 -->
<g id="node1" class="node"><title>Node1</title>
<polygon fill="#bfbfbf" stroke="black" points="80.5,-580.5 80.5,-601.5 159.5,-601.5 159.5,-580.5 80.5,-580.5"/>
<text text-anchor="middle" x="120" y="-588.5" font-family="Helvetica,sans-Serif" font-size="10.00">mathformula.h</text>
</g>
<!-- Node2 -->
<g id="node3" class="node"><title>Node2</title>
<polygon fill="white" stroke="#bfbfbf" points="-0.5,-522.5 -0.5,-543.5 74.5,-543.5 74.5,-522.5 -0.5,-522.5"/>
<text text-anchor="middle" x="37" y="-530.5" font-family="Helvetica,sans-Serif" font-size="10.00">generalmod.h</text>
</g>
<!-- Node1&#45;&gt;Node2 -->
<g id="edge2" class="edge"><title>Node1&#45;&gt;Node2</title>
<path fill="none" stroke="midnightblue" d="M104.777,-580.362C92.3746,-571.696 74.6542,-559.313 60.443,-549.382"/>
<polygon fill="midnightblue" stroke="midnightblue" points="62.3288,-546.43 52.127,-543.571 58.3191,-552.168 62.3288,-546.43"/>
</g>
<!-- Node3 -->
<g id="node5" class="node"><title>Node3</title>
<a xlink:href="typeset_8h.html" target="_top" xlink:title="typeset.h">
<polygon fill="white" stroke="black" points="91.5,-522.5 91.5,-543.5 148.5,-543.5 148.5,-522.5 91.5,-522.5"/>
<text text-anchor="middle" x="120" y="-530.5" font-family="Helvetica,sans-Serif" font-size="10.00">typeset.h</text>
</a>
</g>
<!-- Node1&#45;&gt;Node3 -->
<g id="edge4" class="edge"><title>Node1&#45;&gt;Node3</title>
<path fill="none" stroke="midnightblue" d="M120,-580.362C120,-572.922 120,-562.743 120,-553.728"/>
<polygon fill="midnightblue" stroke="midnightblue" points="123.5,-553.571 120,-543.571 116.5,-553.571 123.5,-553.571"/>
</g>
<!-- Node27 -->
<g id="node68" class="node"><title>Node27</title>
<a xlink:href="ranges_8h.html" target="_top" xlink:title="ranges.h">
<polygon fill="white" stroke="black" points="262,-522.5 262,-543.5 316,-543.5 316,-522.5 262,-522.5"/>
<text text-anchor="middle" x="289" y="-530.5" font-family="Helvetica,sans-Serif" font-size="10.00">ranges.h</text>
</a>
</g>
<!-- Node1&#45;&gt;Node27 -->
<g id="edge82" class="edge"><title>Node1&#45;&gt;Node27</title>
<path fill="none" stroke="midnightblue" d="M150.605,-580.497C179.148,-570.701 221.772,-556.072 252.168,-545.641"/>
<polygon fill="midnightblue" stroke="midnightblue" points="253.646,-548.834 261.969,-542.277 251.374,-542.213 253.646,-548.834"/>
</g>
<!-- Node4 -->
<g id="node7" class="node"><title>Node4</title>
<a xlink:href="odset_8h.html" target="_top" xlink:title="odset.h">
<polygon fill="white" stroke="black" points="85.5,-290.5 85.5,-311.5 134.5,-311.5 134.5,-290.5 85.5,-290.5"/>
<text text-anchor="middle" x="110" y="-298.5" font-family="Helvetica,sans-Serif" font-size="10.00">odset.h</text>
</a>
</g>
<!-- Node3&#45;&gt;Node4 -->
<g id="edge6" class="edge"><title>Node3&#45;&gt;Node4</title>
<path fill="none" stroke="midnightblue" d="M105.938,-522.192C95.1059,-513.338 80.2901,-500.023 70,-486 53.0659,-462.922 48.3829,-455.904 42,-428 32.3295,-385.725 66.9569,-342.453 90.3096,-318.93"/>
<polygon fill="midnightblue" stroke="midnightblue" points="92.9792,-321.216 97.7167,-311.739 88.1035,-316.193 92.9792,-321.216"/>
</g>
<!-- Node17 -->
<g id="node37" class="node"><title>Node17</title>
<a xlink:href="vectoraccess_8h.html" target="_top" xlink:title="vectoraccess.h">
<polygon fill="white" stroke="black" points="78.5,-464.5 78.5,-485.5 161.5,-485.5 161.5,-464.5 78.5,-464.5"/>
<text text-anchor="middle" x="120" y="-472.5" font-family="Helvetica,sans-Serif" font-size="10.00">vectoraccess.h</text>
</a>
</g>
<!-- Node3&#45;&gt;Node17 -->
<g id="edge40" class="edge"><title>Node3&#45;&gt;Node17</title>
<path fill="none" stroke="midnightblue" d="M120,-522.362C120,-514.922 120,-504.743 120,-495.728"/>
<polygon fill="midnightblue" stroke="midnightblue" points="123.5,-495.571 120,-485.571 116.5,-495.571 123.5,-495.571"/>
</g>
<!-- Node5 -->
<g id="node9" class="node"><title>Node5</title>
<a xlink:href="gendefs_8h.html" target="_top" xlink:title="gendefs.h">
<polygon fill="white" stroke="black" points="243.5,-174.5 243.5,-195.5 302.5,-195.5 302.5,-174.5 243.5,-174.5"/>
<text text-anchor="middle" x="273" y="-182.5" font-family="Helvetica,sans-Serif" font-size="10.00">gendefs.h</text>
</a>
</g>
<!-- Node4&#45;&gt;Node5 -->
<g id="edge8" class="edge"><title>Node4&#45;&gt;Node5</title>
<path fill="none" stroke="midnightblue" d="M119.609,-290.216C132.875,-275.748 158.006,-249.815 183,-232 200.44,-219.569 221.599,-208.351 239.018,-199.994"/>
<polygon fill="midnightblue" stroke="midnightblue" points="240.696,-203.073 248.263,-195.657 237.723,-196.736 240.696,-203.073"/>
</g>
<!-- Node6 -->
<g id="node11" class="node"><title>Node6</title>
<a xlink:href="undefval_8h.html" target="_top" xlink:title="undefval.h">
<polygon fill="white" stroke="black" points="406,-116.5 406,-137.5 468,-137.5 468,-116.5 406,-116.5"/>
<text text-anchor="middle" x="437" y="-124.5" font-family="Helvetica,sans-Serif" font-size="10.00">undefval.h</text>
</a>
</g>
<!-- Node5&#45;&gt;Node6 -->
<g id="edge10" class="edge"><title>Node5&#45;&gt;Node6</title>
<path fill="none" stroke="midnightblue" d="M302.699,-174.497C329.32,-165.082 368.562,-151.204 397.761,-140.877"/>
<polygon fill="midnightblue" stroke="midnightblue" points="398.984,-144.157 407.245,-137.523 396.65,-137.558 398.984,-144.157"/>
</g>
<!-- Node14 -->
<g id="node29" class="node"><title>Node14</title>
<a xlink:href="commontypes_8h.html" target="_top" xlink:title="commontypes.h">
<polygon fill="white" stroke="black" points="230,-116.5 230,-137.5 316,-137.5 316,-116.5 230,-116.5"/>
<text text-anchor="middle" x="273" y="-124.5" font-family="Helvetica,sans-Serif" font-size="10.00">commontypes.h</text>
</a>
</g>
<!-- Node5&#45;&gt;Node14 -->
<g id="edge30" class="edge"><title>Node5&#45;&gt;Node14</title>
<path fill="none" stroke="midnightblue" d="M273,-174.362C273,-166.922 273,-156.743 273,-147.728"/>
<polygon fill="midnightblue" stroke="midnightblue" points="276.5,-147.571 273,-137.571 269.5,-147.571 276.5,-147.571"/>
</g>
<!-- Node15 -->
<g id="node32" class="node"><title>Node15</title>
<a xlink:href="errmsg_8h.html" target="_top" xlink:title="errmsg.h">
<polygon fill="white" stroke="black" points="157.5,-116.5 157.5,-137.5 212.5,-137.5 212.5,-116.5 157.5,-116.5"/>
<text text-anchor="middle" x="185" y="-124.5" font-family="Helvetica,sans-Serif" font-size="10.00">errmsg.h</text>
</a>
</g>
<!-- Node5&#45;&gt;Node15 -->
<g id="edge34" class="edge"><title>Node5&#45;&gt;Node15</title>
<path fill="none" stroke="midnightblue" d="M256.859,-174.362C243.586,-165.614 224.568,-153.079 209.43,-143.101"/>
<polygon fill="midnightblue" stroke="midnightblue" points="211.314,-140.151 201.038,-137.571 207.462,-145.996 211.314,-140.151"/>
</g>
<!-- Node7 -->
<g id="node13" class="node"><title>Node7</title>
<polygon fill="white" stroke="#bfbfbf" points="501.5,-0.5 501.5,-21.5 568.5,-21.5 568.5,-0.5 501.5,-0.5"/>
<text text-anchor="middle" x="535" y="-8.5" font-family="Helvetica,sans-Serif" font-size="10.00">basicmod.h</text>
</g>
<!-- Node6&#45;&gt;Node7 -->
<g id="edge12" class="edge"><title>Node6&#45;&gt;Node7</title>
<path fill="none" stroke="midnightblue" d="M443.098,-116.135C451.265,-102.027 466.634,-76.9662 483,-58 492.192,-47.3474 503.689,-36.7296 513.533,-28.2884"/>
<polygon fill="midnightblue" stroke="midnightblue" points="515.91,-30.8625 521.326,-21.7566 511.414,-25.4975 515.91,-30.8625"/>
</g>
<!-- Node8 -->
<g id="node15" class="node"><title>Node8</title>
<a xlink:href="commondefs_8h.html" target="_top" xlink:title="commondefs.h">
<polygon fill="white" stroke="black" points="236.5,-58.5 236.5,-79.5 317.5,-79.5 317.5,-58.5 236.5,-58.5"/>
<text text-anchor="middle" x="277" y="-66.5" font-family="Helvetica,sans-Serif" font-size="10.00">commondefs.h</text>
</a>
</g>
<!-- Node6&#45;&gt;Node8 -->
<g id="edge14" class="edge"><title>Node6&#45;&gt;Node8</title>
<path fill="none" stroke="midnightblue" d="M408.025,-116.497C382.167,-107.123 344.101,-93.3242 315.654,-83.0122"/>
<polygon fill="midnightblue" stroke="midnightblue" points="316.623,-79.6406 306.029,-79.5231 314.238,-86.2216 316.623,-79.6406"/>
</g>
<!-- Node12 -->
<g id="node24" class="node"><title>Node12</title>
<a xlink:href="plftypes_8h.html" target="_top" xlink:title="plftypes.h">
<polygon fill="white" stroke="black" points="334.5,-58.5 334.5,-79.5 393.5,-79.5 393.5,-58.5 334.5,-58.5"/>
<text text-anchor="middle" x="364" y="-66.5" font-family="Helvetica,sans-Serif" font-size="10.00">plftypes.h</text>
</a>
</g>
<!-- Node6&#45;&gt;Node12 -->
<g id="edge24" class="edge"><title>Node6&#45;&gt;Node12</title>
<path fill="none" stroke="midnightblue" d="M423.611,-116.362C412.909,-107.859 397.704,-95.7785 385.329,-85.9466"/>
<polygon fill="midnightblue" stroke="midnightblue" points="387.311,-83.0511 377.304,-79.5707 382.957,-88.5318 387.311,-83.0511"/>
</g>
<!-- Node8&#45;&gt;Node7 -->
<g id="edge16" class="edge"><title>Node8&#45;&gt;Node7</title>
<path fill="none" stroke="midnightblue" d="M317.596,-59.8737C364.893,-49.2411 442.738,-31.741 491.318,-20.82"/>
<polygon fill="midnightblue" stroke="midnightblue" points="492.23,-24.2024 501.219,-18.5942 490.695,-17.3729 492.23,-24.2024"/>
</g>
<!-- Node9 -->
<g id="node18" class="node"><title>Node9</title>
<a xlink:href="plfdefs_8h.html" target="_top" xlink:title="plfdefs.h">
<polygon fill="white" stroke="black" points="290,-0.5 290,-21.5 344,-21.5 344,-0.5 290,-0.5"/>
<text text-anchor="middle" x="317" y="-8.5" font-family="Helvetica,sans-Serif" font-size="10.00">plfdefs.h</text>
</a>
</g>
<!-- Node8&#45;&gt;Node9 -->
<g id="edge18" class="edge"><title>Node8&#45;&gt;Node9</title>
<path fill="none" stroke="midnightblue" d="M284.337,-58.3619C289.806,-50.4313 297.422,-39.3885 303.924,-29.9606"/>
<polygon fill="midnightblue" stroke="midnightblue" points="306.914,-31.7899 309.71,-21.5707 301.151,-27.8157 306.914,-31.7899"/>
</g>
<!-- Node10 -->
<g id="node20" class="node"><title>Node10</title>
<polygon fill="white" stroke="#bfbfbf" points="88.5,-0.5 88.5,-21.5 147.5,-21.5 147.5,-0.5 88.5,-0.5"/>
<text text-anchor="middle" x="118" y="-8.5" font-family="Helvetica,sans-Serif" font-size="10.00">stdexcept</text>
</g>
<!-- Node8&#45;&gt;Node10 -->
<g id="edge20" class="edge"><title>Node8&#45;&gt;Node10</title>
<path fill="none" stroke="midnightblue" d="M248.206,-58.4966C222.509,-49.1229 184.682,-35.3242 156.413,-25.0122"/>
<polygon fill="midnightblue" stroke="midnightblue" points="157.442,-21.662 146.848,-21.5231 155.043,-28.2381 157.442,-21.662"/>
</g>
<!-- Node11 -->
<g id="node22" class="node"><title>Node11</title>
<polygon fill="white" stroke="#bfbfbf" points="237.5,-0.5 237.5,-21.5 272.5,-21.5 272.5,-0.5 237.5,-0.5"/>
<text text-anchor="middle" x="255" y="-8.5" font-family="Helvetica,sans-Serif" font-size="10.00">new</text>
</g>
<!-- Node8&#45;&gt;Node11 -->
<g id="edge22" class="edge"><title>Node8&#45;&gt;Node11</title>
<path fill="none" stroke="midnightblue" d="M272.965,-58.3619C270.081,-50.7584 266.112,-40.294 262.637,-31.1349"/>
<polygon fill="midnightblue" stroke="midnightblue" points="265.829,-29.6793 259.01,-21.5707 259.284,-32.1619 265.829,-29.6793"/>
</g>
<!-- Node12&#45;&gt;Node9 -->
<g id="edge26" class="edge"><title>Node12&#45;&gt;Node9</title>
<path fill="none" stroke="midnightblue" d="M355.379,-58.3619C348.82,-50.2678 339.634,-38.9318 331.894,-29.3796"/>
<polygon fill="midnightblue" stroke="midnightblue" points="334.581,-27.1364 325.566,-21.5707 329.142,-31.5436 334.581,-27.1364"/>
</g>
<!-- Node13 -->
<g id="node27" class="node"><title>Node13</title>
<polygon fill="white" stroke="#bfbfbf" points="361.5,-0.5 361.5,-21.5 410.5,-21.5 410.5,-0.5 361.5,-0.5"/>
<text text-anchor="middle" x="386" y="-8.5" font-family="Helvetica,sans-Serif" font-size="10.00">stdint.h</text>
</g>
<!-- Node12&#45;&gt;Node13 -->
<g id="edge28" class="edge"><title>Node12&#45;&gt;Node13</title>
<path fill="none" stroke="midnightblue" d="M368.035,-58.3619C370.919,-50.7584 374.888,-40.294 378.363,-31.1349"/>
<polygon fill="midnightblue" stroke="midnightblue" points="381.716,-32.1619 381.99,-21.5707 375.171,-29.6793 381.716,-32.1619"/>
</g>
<!-- Node14&#45;&gt;Node8 -->
<g id="edge32" class="edge"><title>Node14&#45;&gt;Node8</title>
<path fill="none" stroke="midnightblue" d="M273.734,-116.362C274.247,-108.922 274.949,-98.7427 275.571,-89.7276"/>
<polygon fill="midnightblue" stroke="midnightblue" points="279.075,-89.7878 276.271,-79.5707 272.091,-89.3061 279.075,-89.7878"/>
</g>
<!-- Node15&#45;&gt;Node8 -->
<g id="edge36" class="edge"><title>Node15&#45;&gt;Node8</title>
<path fill="none" stroke="midnightblue" d="M201.874,-116.362C215.751,-107.614 235.634,-95.0786 251.46,-85.1015"/>
<polygon fill="midnightblue" stroke="midnightblue" points="253.64,-87.8645 260.233,-79.5707 249.907,-81.943 253.64,-87.8645"/>
</g>
<!-- Node16 -->
<g id="node35" class="node"><title>Node16</title>
<polygon fill="white" stroke="#bfbfbf" points="84.5,-58.5 84.5,-79.5 135.5,-79.5 135.5,-58.5 84.5,-58.5"/>
<text text-anchor="middle" x="110" y="-66.5" font-family="Helvetica,sans-Serif" font-size="10.00">typeinfo</text>
</g>
<!-- Node15&#45;&gt;Node16 -->
<g id="edge38" class="edge"><title>Node15&#45;&gt;Node16</title>
<path fill="none" stroke="midnightblue" d="M171.244,-116.362C160.249,-107.859 144.627,-95.7785 131.914,-85.9466"/>
<polygon fill="midnightblue" stroke="midnightblue" points="133.721,-82.9195 123.669,-79.5707 129.438,-88.4569 133.721,-82.9195"/>
</g>
<!-- Node17&#45;&gt;Node5 -->
<g id="edge74" class="edge"><title>Node17&#45;&gt;Node5</title>
<path fill="none" stroke="midnightblue" d="M138.541,-464.326C151.418,-455.998 167.997,-443.293 178,-428 195.411,-401.381 197,-390.808 197,-359 197,-359 197,-359 197,-301 197,-260.51 229.797,-223.158 252.302,-202.295"/>
<polygon fill="midnightblue" stroke="midnightblue" points="254.64,-204.899 259.762,-195.625 249.974,-199.681 254.64,-204.899"/>
</g>
<!-- Node17&#45;&gt;Node10 -->
<g id="edge80" class="edge"><title>Node17&#45;&gt;Node10</title>
<path fill="none" stroke="midnightblue" d="M92.0808,-464.482C75.259,-456.789 54.702,-444.757 42,-428 22.7857,-402.651 23,-390.808 23,-359 23,-359 23,-359 23,-127 23,-83.5461 63.3953,-47.4386 91.5037,-27.5737"/>
<polygon fill="midnightblue" stroke="midnightblue" points="93.8306,-30.224 100.131,-21.7061 89.894,-24.4357 93.8306,-30.224"/>
</g>
<!-- Node18 -->
<g id="node39" class="node"><title>Node18</title>
<a xlink:href="debug_8h.html" target="_top" xlink:title="debug.h">
<polygon fill="white" stroke="black" points="331.5,-406.5 331.5,-427.5 382.5,-427.5 382.5,-406.5 331.5,-406.5"/>
<text text-anchor="middle" x="357" y="-414.5" font-family="Helvetica,sans-Serif" font-size="10.00">debug.h</text>
</a>
</g>
<!-- Node17&#45;&gt;Node18 -->
<g id="edge42" class="edge"><title>Node17&#45;&gt;Node18</title>
<path fill="none" stroke="midnightblue" d="M161.553,-464.831C206.809,-453.756 278.442,-436.225 321.267,-425.745"/>
<polygon fill="midnightblue" stroke="midnightblue" points="322.36,-429.081 331.242,-423.304 320.696,-422.281 322.36,-429.081"/>
</g>
<!-- Node25 -->
<g id="node63" class="node"><title>Node25</title>
<polygon fill="white" stroke="#bfbfbf" points="51,-406.5 51,-427.5 107,-427.5 107,-406.5 51,-406.5"/>
<text text-anchor="middle" x="79" y="-414.5" font-family="Helvetica,sans-Serif" font-size="10.00">algorithm</text>
</g>
<!-- Node17&#45;&gt;Node25 -->
<g id="edge76" class="edge"><title>Node17&#45;&gt;Node25</title>
<path fill="none" stroke="midnightblue" d="M112.48,-464.362C106.874,-456.431 99.0678,-445.389 92.4032,-435.961"/>
<polygon fill="midnightblue" stroke="midnightblue" points="95.1028,-433.716 86.4724,-427.571 89.3867,-437.757 95.1028,-433.716"/>
</g>
<!-- Node26 -->
<g id="node65" class="node"><title>Node26</title>
<polygon fill="white" stroke="#bfbfbf" points="125,-406.5 125,-427.5 169,-427.5 169,-406.5 125,-406.5"/>
<text text-anchor="middle" x="147" y="-414.5" font-family="Helvetica,sans-Serif" font-size="10.00">vector</text>
</g>
<!-- Node17&#45;&gt;Node26 -->
<g id="edge78" class="edge"><title>Node17&#45;&gt;Node26</title>
<path fill="none" stroke="midnightblue" d="M124.952,-464.362C128.53,-456.677 133.468,-446.069 137.764,-436.84"/>
<polygon fill="midnightblue" stroke="midnightblue" points="141.032,-438.114 142.079,-427.571 134.686,-435.159 141.032,-438.114"/>
</g>
<!-- Node18&#45;&gt;Node5 -->
<g id="edge46" class="edge"><title>Node18&#45;&gt;Node5</title>
<path fill="none" stroke="midnightblue" d="M351.576,-406.327C346.889,-396.9 340.087,-382.714 335,-370 311.497,-311.256 289.285,-239.748 278.992,-205.375"/>
<polygon fill="midnightblue" stroke="midnightblue" points="282.286,-204.172 276.082,-195.583 275.576,-206.166 282.286,-204.172"/>
</g>
<!-- Node18&#45;&gt;Node7 -->
<g id="edge44" class="edge"><title>Node18&#45;&gt;Node7</title>
<path fill="none" stroke="midnightblue" d="M369.424,-406.354C403.687,-375.734 497,-283.32 497,-185 497,-185 497,-185 497,-127 497,-91.7411 513.051,-53.3154 524.289,-30.7323"/>
<polygon fill="midnightblue" stroke="midnightblue" points="527.418,-32.3005 528.895,-21.809 521.198,-29.0901 527.418,-32.3005"/>
</g>
<!-- Node19 -->
<g id="node43" class="node"><title>Node19</title>
<a xlink:href="bufstring_8h.html" target="_top" xlink:title="bufstring.h">
<polygon fill="white" stroke="black" points="514,-348.5 514,-369.5 576,-369.5 576,-348.5 514,-348.5"/>
<text text-anchor="middle" x="545" y="-356.5" font-family="Helvetica,sans-Serif" font-size="10.00">bufstring.h</text>
</a>
</g>
<!-- Node18&#45;&gt;Node19 -->
<g id="edge48" class="edge"><title>Node18&#45;&gt;Node19</title>
<path fill="none" stroke="midnightblue" d="M382.746,-409.057C414,-399.415 467.093,-383.035 503.998,-371.65"/>
<polygon fill="midnightblue" stroke="midnightblue" points="505.422,-374.873 513.946,-368.581 503.358,-368.184 505.422,-374.873"/>
</g>
<!-- Node19&#45;&gt;Node7 -->
<g id="edge50" class="edge"><title>Node19&#45;&gt;Node7</title>
<path fill="none" stroke="midnightblue" d="M543.967,-348.42C541.413,-321.292 535,-247.029 535,-185 535,-185 535,-185 535,-127 535,-93.5978 535,-54.7853 535,-31.5939"/>
<polygon fill="midnightblue" stroke="midnightblue" points="538.5,-31.5561 535,-21.5561 531.5,-31.5561 538.5,-31.5561"/>
</g>
<!-- Node20 -->
<g id="node46" class="node"><title>Node20</title>
<a xlink:href="fixedstring_8h.html" target="_top" xlink:title="fixedstring.h">
<polygon fill="white" stroke="black" points="630,-290.5 630,-311.5 700,-311.5 700,-290.5 630,-290.5"/>
<text text-anchor="middle" x="665" y="-298.5" font-family="Helvetica,sans-Serif" font-size="10.00">fixedstring.h</text>
</a>
</g>
<!-- Node19&#45;&gt;Node20 -->
<g id="edge52" class="edge"><title>Node19&#45;&gt;Node20</title>
<path fill="none" stroke="midnightblue" d="M566.731,-348.497C585.474,-339.438 612.767,-326.246 633.836,-316.063"/>
<polygon fill="midnightblue" stroke="midnightblue" points="635.545,-319.124 643.025,-311.621 632.498,-312.822 635.545,-319.124"/>
</g>
<!-- Node22 -->
<g id="node53" class="node"><title>Node22</title>
<a xlink:href="string2_8h.html" target="_top" xlink:title="string2.h">
<polygon fill="white" stroke="black" points="575,-116.5 575,-137.5 629,-137.5 629,-116.5 575,-116.5"/>
<text text-anchor="middle" x="602" y="-124.5" font-family="Helvetica,sans-Serif" font-size="10.00">string2.h</text>
</a>
</g>
<!-- Node19&#45;&gt;Node22 -->
<g id="edge62" class="edge"><title>Node19&#45;&gt;Node22</title>
<path fill="none" stroke="midnightblue" d="M547.597,-348.429C556.407,-312.573 585.252,-195.169 596.977,-147.446"/>
<polygon fill="midnightblue" stroke="midnightblue" points="600.4,-148.18 599.387,-137.634 593.603,-146.51 600.4,-148.18"/>
</g>
<!-- Node20&#45;&gt;Node7 -->
<g id="edge54" class="edge"><title>Node20&#45;&gt;Node7</title>
<path fill="none" stroke="midnightblue" d="M691.297,-290.429C727.696,-273.854 789,-238.062 789,-185 789,-185 789,-185 789,-127 789,-86.3607 763.723,-79.1158 729,-58 682.46,-29.6977 619.936,-18.4319 578.601,-13.9515"/>
<polygon fill="midnightblue" stroke="midnightblue" points="578.869,-10.461 568.571,-12.9524 578.175,-17.4265 578.869,-10.461"/>
</g>
<!-- Node21 -->
<g id="node49" class="node"><title>Node21</title>
<a xlink:href="odstring_8h.html" target="_top" xlink:title="odstring.h">
<polygon fill="white" stroke="black" points="635.5,-232.5 635.5,-253.5 694.5,-253.5 694.5,-232.5 635.5,-232.5"/>
<text text-anchor="middle" x="665" y="-240.5" font-family="Helvetica,sans-Serif" font-size="10.00">odstring.h</text>
</a>
</g>
<!-- Node20&#45;&gt;Node21 -->
<g id="edge56" class="edge"><title>Node20&#45;&gt;Node21</title>
<path fill="none" stroke="midnightblue" d="M665,-290.362C665,-282.922 665,-272.743 665,-263.728"/>
<polygon fill="midnightblue" stroke="midnightblue" points="668.5,-263.571 665,-253.571 661.5,-263.571 668.5,-263.571"/>
</g>
<!-- Node21&#45;&gt;Node5 -->
<g id="edge60" class="edge"><title>Node21&#45;&gt;Node5</title>
<path fill="none" stroke="midnightblue" d="M635.215,-238.593C565.45,-228.271 391.427,-202.522 312.744,-190.88"/>
<polygon fill="midnightblue" stroke="midnightblue" points="313.145,-187.402 302.74,-189.4 312.12,-194.326 313.145,-187.402"/>
</g>
<!-- Node21&#45;&gt;Node7 -->
<g id="edge58" class="edge"><title>Node21&#45;&gt;Node7</title>
<path fill="none" stroke="midnightblue" d="M673.245,-232.126C695.443,-201.435 752.04,-112.82 710,-58 694.116,-37.2868 625.288,-23.6777 578.831,-16.6664"/>
<polygon fill="midnightblue" stroke="midnightblue" points="579.108,-13.1698 568.707,-15.1886 578.096,-20.0964 579.108,-13.1698"/>
</g>
<!-- Node22&#45;&gt;Node7 -->
<g id="edge64" class="edge"><title>Node22&#45;&gt;Node7</title>
<path fill="none" stroke="midnightblue" d="M629.209,-119.337C663.368,-108.332 715.092,-86.2292 694,-58 680.113,-39.4134 620.665,-25.5978 578.544,-17.9149"/>
<polygon fill="midnightblue" stroke="midnightblue" points="578.971,-14.4361 568.514,-16.1403 577.751,-21.329 578.971,-14.4361"/>
</g>
<!-- Node22&#45;&gt;Node8 -->
<g id="edge68" class="edge"><title>Node22&#45;&gt;Node8</title>
<path fill="none" stroke="midnightblue" d="M574.883,-122.863C526.966,-115.45 423.983,-99.0559 327.52,-80.2347"/>
<polygon fill="midnightblue" stroke="midnightblue" points="328.095,-76.7806 317.607,-78.2872 326.745,-83.6494 328.095,-76.7806"/>
</g>
<!-- Node22&#45;&gt;Node12 -->
<g id="edge66" class="edge"><title>Node22&#45;&gt;Node12</title>
<path fill="none" stroke="midnightblue" d="M574.698,-120.347C532.636,-110.096 451.789,-90.394 403.392,-78.5998"/>
<polygon fill="midnightblue" stroke="midnightblue" points="404.127,-75.1766 393.583,-76.2093 402.47,-81.9775 404.127,-75.1766"/>
</g>
<!-- Node23 -->
<g id="node58" class="node"><title>Node23</title>
<polygon fill="white" stroke="#bfbfbf" points="636.5,-58.5 636.5,-79.5 685.5,-79.5 685.5,-58.5 636.5,-58.5"/>
<text text-anchor="middle" x="661" y="-66.5" font-family="Helvetica,sans-Serif" font-size="10.00">ctype.h</text>
</g>
<!-- Node22&#45;&gt;Node23 -->
<g id="edge70" class="edge"><title>Node22&#45;&gt;Node23</title>
<path fill="none" stroke="midnightblue" d="M612.822,-116.362C621.221,-108.104 633.054,-96.4725 642.89,-86.8029"/>
<polygon fill="midnightblue" stroke="midnightblue" points="645.569,-89.077 650.247,-79.5707 640.662,-84.0851 645.569,-89.077"/>
</g>
<!-- Node24 -->
<g id="node60" class="node"><title>Node24</title>
<polygon fill="white" stroke="#bfbfbf" points="563,-58.5 563,-79.5 619,-79.5 619,-58.5 563,-58.5"/>
<text text-anchor="middle" x="591" y="-66.5" font-family="Helvetica,sans-Serif" font-size="10.00">wctype.h</text>
</g>
<!-- Node22&#45;&gt;Node24 -->
<g id="edge72" class="edge"><title>Node22&#45;&gt;Node24</title>
<path fill="none" stroke="midnightblue" d="M599.982,-116.362C598.556,-108.84 596.598,-98.5187 594.875,-89.4308"/>
<polygon fill="midnightblue" stroke="midnightblue" points="598.307,-88.7433 593.005,-79.5707 591.429,-90.0477 598.307,-88.7433"/>
</g>
<!-- Node27&#45;&gt;Node5 -->
<g id="edge84" class="edge"><title>Node27&#45;&gt;Node5</title>
<path fill="none" stroke="midnightblue" d="M288.504,-522.203C286.254,-473.285 276.999,-271.971 273.967,-206.023"/>
<polygon fill="midnightblue" stroke="midnightblue" points="277.446,-205.499 273.491,-195.671 270.454,-205.821 277.446,-205.499"/>
</g>
<!-- Node28 -->
<g id="node71" class="node"><title>Node28</title>
<a xlink:href="math2_8h.html" target="_top" xlink:title="math2.h">
<polygon fill="white" stroke="black" points="554,-464.5 554,-485.5 606,-485.5 606,-464.5 554,-464.5"/>
<text text-anchor="middle" x="580" y="-472.5" font-family="Helvetica,sans-Serif" font-size="10.00">math2.h</text>
</a>
</g>
<!-- Node27&#45;&gt;Node28 -->
<g id="edge86" class="edge"><title>Node27&#45;&gt;Node28</title>
<path fill="none" stroke="midnightblue" d="M316.115,-527.596C368.691,-517.117 484.512,-494.032 543.672,-482.241"/>
<polygon fill="midnightblue" stroke="midnightblue" points="544.566,-485.631 553.689,-480.244 543.198,-478.766 544.566,-485.631"/>
</g>
<!-- Node32 -->
<g id="node84" class="node"><title>Node32</title>
<a xlink:href="ptrman_8h.html" target="_top" xlink:title="ptrman.h">
<polygon fill="white" stroke="black" points="376.5,-232.5 376.5,-253.5 431.5,-253.5 431.5,-232.5 376.5,-232.5"/>
<text text-anchor="middle" x="404" y="-240.5" font-family="Helvetica,sans-Serif" font-size="10.00">ptrman.h</text>
</a>
</g>
<!-- Node27&#45;&gt;Node32 -->
<g id="edge104" class="edge"><title>Node27&#45;&gt;Node32</title>
<path fill="none" stroke="midnightblue" d="M316.196,-527.479C352.069,-519.581 412.172,-504.006 425,-486 474.123,-417.051 433.711,-307.588 413.651,-262.944"/>
<polygon fill="midnightblue" stroke="midnightblue" points="416.767,-261.342 409.386,-253.741 410.416,-264.286 416.767,-261.342"/>
</g>
<!-- Node36 -->
<g id="node96" class="node"><title>Node36</title>
<a xlink:href="varlenarray_8h.html" target="_top" xlink:title="varlenarray.h">
<polygon fill="white" stroke="black" points="343.5,-464.5 343.5,-485.5 416.5,-485.5 416.5,-464.5 343.5,-464.5"/>
<text text-anchor="middle" x="380" y="-472.5" font-family="Helvetica,sans-Serif" font-size="10.00">varlenarray.h</text>
</a>
</g>
<!-- Node27&#45;&gt;Node36 -->
<g id="edge120" class="edge"><title>Node27&#45;&gt;Node36</title>
<path fill="none" stroke="midnightblue" d="M305.691,-522.362C319.416,-513.614 339.084,-501.079 354.737,-491.101"/>
<polygon fill="midnightblue" stroke="midnightblue" points="356.863,-493.897 363.415,-485.571 353.101,-487.994 356.863,-493.897"/>
</g>
<!-- Node37 -->
<g id="node99" class="node"><title>Node37</title>
<a xlink:href="samplingdata_8h.html" target="_top" xlink:title="samplingdata.h">
<polygon fill="white" stroke="black" points="178.5,-464.5 178.5,-485.5 261.5,-485.5 261.5,-464.5 178.5,-464.5"/>
<text text-anchor="middle" x="220" y="-472.5" font-family="Helvetica,sans-Serif" font-size="10.00">samplingdata.h</text>
</a>
</g>
<!-- Node27&#45;&gt;Node37 -->
<g id="edge124" class="edge"><title>Node27&#45;&gt;Node37</title>
<path fill="none" stroke="midnightblue" d="M270.98,-522.362C259.584,-514.023 245.271,-502.242 234.583,-492.516"/>
<polygon fill="midnightblue" stroke="midnightblue" points="236.898,-489.889 227.223,-485.571 232.094,-494.98 236.898,-489.889"/>
</g>
<!-- Node28&#45;&gt;Node5 -->
<g id="edge90" class="edge"><title>Node28&#45;&gt;Node5</title>
<path fill="none" stroke="midnightblue" d="M568.71,-464.335C522.733,-420.904 349.324,-257.098 291.726,-202.689"/>
<polygon fill="midnightblue" stroke="midnightblue" points="294.066,-200.085 284.393,-195.762 289.259,-205.173 294.066,-200.085"/>
</g>
<!-- Node28&#45;&gt;Node7 -->
<g id="edge88" class="edge"><title>Node28&#45;&gt;Node7</title>
<path fill="none" stroke="midnightblue" d="M606.047,-470.204C676.403,-456.513 865,-414.624 865,-359 865,-359 865,-359 865,-127 865,-67.0513 668.721,-30.5752 578.913,-17.0231"/>
<polygon fill="midnightblue" stroke="midnightblue" points="579.17,-13.523 568.765,-15.5211 578.145,-20.4476 579.17,-13.523"/>
</g>
<!-- Node29 -->
<g id="node75" class="node"><title>Node29</title>
<a xlink:href="odcomplex_8h.html" target="_top" xlink:title="odcomplex.h">
<polygon fill="white" stroke="black" points="600,-406.5 600,-427.5 672,-427.5 672,-406.5 600,-406.5"/>
<text text-anchor="middle" x="636" y="-414.5" font-family="Helvetica,sans-Serif" font-size="10.00">odcomplex.h</text>
</a>
</g>
<!-- Node28&#45;&gt;Node29 -->
<g id="edge92" class="edge"><title>Node28&#45;&gt;Node29</title>
<path fill="none" stroke="midnightblue" d="M590.271,-464.362C598.244,-456.104 609.475,-444.472 618.811,-434.803"/>
<polygon fill="midnightblue" stroke="midnightblue" points="621.366,-437.196 625.794,-427.571 616.33,-432.334 621.366,-437.196"/>
</g>
<!-- Node30 -->
<g id="node77" class="node"><title>Node30</title>
<polygon fill="white" stroke="#bfbfbf" points="681.5,-348.5 681.5,-369.5 734.5,-369.5 734.5,-348.5 681.5,-348.5"/>
<text text-anchor="middle" x="708" y="-356.5" font-family="Helvetica,sans-Serif" font-size="10.00">complex</text>
</g>
<!-- Node29&#45;&gt;Node30 -->
<g id="edge94" class="edge"><title>Node29&#45;&gt;Node30</title>
<path fill="none" stroke="midnightblue" d="M649.206,-406.362C659.761,-397.859 674.758,-385.779 686.963,-375.947"/>
<polygon fill="midnightblue" stroke="midnightblue" points="689.286,-378.57 694.878,-369.571 684.895,-373.118 689.286,-378.57"/>
</g>
<!-- Node31 -->
<g id="node79" class="node"><title>Node31</title>
<a xlink:href="convert_8h.html" target="_top" xlink:title="convert.h">
<polygon fill="white" stroke="black" points="607.5,-348.5 607.5,-369.5 664.5,-369.5 664.5,-348.5 607.5,-348.5"/>
<text text-anchor="middle" x="636" y="-356.5" font-family="Helvetica,sans-Serif" font-size="10.00">convert.h</text>
</a>
</g>
<!-- Node29&#45;&gt;Node31 -->
<g id="edge96" class="edge"><title>Node29&#45;&gt;Node31</title>
<path fill="none" stroke="midnightblue" d="M636,-406.362C636,-398.922 636,-388.743 636,-379.728"/>
<polygon fill="midnightblue" stroke="midnightblue" points="639.5,-379.571 636,-369.571 632.5,-379.571 639.5,-379.571"/>
</g>
<!-- Node31&#45;&gt;Node6 -->
<g id="edge100" class="edge"><title>Node31&#45;&gt;Node6</title>
<path fill="none" stroke="midnightblue" d="M626.932,-348.429C595.723,-312.044 492.489,-191.691 452.767,-145.382"/>
<polygon fill="midnightblue" stroke="midnightblue" points="455.288,-142.945 446.121,-137.634 449.975,-147.503 455.288,-142.945"/>
</g>
<!-- Node31&#45;&gt;Node20 -->
<g id="edge102" class="edge"><title>Node31&#45;&gt;Node20</title>
<path fill="none" stroke="midnightblue" d="M641.319,-348.362C645.203,-340.595 650.579,-329.843 655.227,-320.546"/>
<polygon fill="midnightblue" stroke="midnightblue" points="658.373,-322.08 659.715,-311.571 652.112,-318.95 658.373,-322.08"/>
</g>
<!-- Node31&#45;&gt;Node22 -->
<g id="edge98" class="edge"><title>Node31&#45;&gt;Node22</title>
<path fill="none" stroke="midnightblue" d="M664.825,-348.552C680.938,-341.053 699.616,-329.202 709,-312 716.453,-298.337 713.749,-255.16 703,-232 685.645,-194.606 649.45,-162.267 625.438,-143.703"/>
<polygon fill="midnightblue" stroke="midnightblue" points="627.295,-140.72 617.201,-137.503 623.086,-146.313 627.295,-140.72"/>
</g>
<!-- Node32&#45;&gt;Node5 -->
<g id="edge106" class="edge"><title>Node32&#45;&gt;Node5</title>
<path fill="none" stroke="midnightblue" d="M380.277,-232.497C359.632,-223.356 329.484,-210.008 306.401,-199.788"/>
<polygon fill="midnightblue" stroke="midnightblue" points="307.55,-196.469 296.989,-195.621 304.716,-202.87 307.55,-196.469"/>
</g>
<!-- Node33 -->
<g id="node87" class="node"><title>Node33</title>
<a xlink:href="atomic_8h.html" target="_top" xlink:title="atomic.h">
<polygon fill="white" stroke="black" points="334,-116.5 334,-137.5 388,-137.5 388,-116.5 334,-116.5"/>
<text text-anchor="middle" x="361" y="-124.5" font-family="Helvetica,sans-Serif" font-size="10.00">atomic.h</text>
</a>
</g>
<!-- Node32&#45;&gt;Node33 -->
<g id="edge108" class="edge"><title>Node32&#45;&gt;Node33</title>
<path fill="none" stroke="midnightblue" d="M395.58,-232.442C388.728,-223.316 379.348,-209.5 374,-196 367.836,-180.44 364.545,-161.723 362.817,-147.712"/>
<polygon fill="midnightblue" stroke="midnightblue" points="366.283,-147.206 361.743,-137.633 359.323,-147.948 366.283,-147.206"/>
</g>
<!-- Node35 -->
<g id="node94" class="node"><title>Node35</title>
<polygon fill="white" stroke="#bfbfbf" points="383,-174.5 383,-195.5 431,-195.5 431,-174.5 383,-174.5"/>
<text text-anchor="middle" x="407" y="-182.5" font-family="Helvetica,sans-Serif" font-size="10.00">stdlib.h</text>
</g>
<!-- Node32&#45;&gt;Node35 -->
<g id="edge118" class="edge"><title>Node32&#45;&gt;Node35</title>
<path fill="none" stroke="midnightblue" d="M404.55,-232.362C404.935,-224.922 405.462,-214.743 405.928,-205.728"/>
<polygon fill="midnightblue" stroke="midnightblue" points="409.432,-205.738 406.453,-195.571 402.441,-205.376 409.432,-205.738"/>
</g>
<!-- Node33&#45;&gt;Node7 -->
<g id="edge110" class="edge"><title>Node33&#45;&gt;Node7</title>
<path fill="none" stroke="midnightblue" d="M376.312,-116.348C396.023,-102.679 431.385,-78.3078 462,-58 477.765,-47.5427 495.618,-36.0422 509.723,-27.0349"/>
<polygon fill="midnightblue" stroke="midnightblue" points="511.838,-29.8373 518.391,-21.5118 508.076,-23.9339 511.838,-29.8373"/>
</g>
<!-- Node33&#45;&gt;Node8 -->
<g id="edge112" class="edge"><title>Node33&#45;&gt;Node8</title>
<path fill="none" stroke="midnightblue" d="M345.593,-116.362C333.042,-107.696 315.108,-95.3126 300.725,-85.3819"/>
<polygon fill="midnightblue" stroke="midnightblue" points="302.527,-82.3725 292.309,-79.5707 298.55,-88.1327 302.527,-82.3725"/>
</g>
<!-- Node33&#45;&gt;Node12 -->
<g id="edge114" class="edge"><title>Node33&#45;&gt;Node12</title>
<path fill="none" stroke="midnightblue" d="M361.55,-116.362C361.935,-108.922 362.462,-98.7427 362.928,-89.7276"/>
<polygon fill="midnightblue" stroke="midnightblue" points="366.432,-89.7381 363.453,-79.5707 359.441,-89.3765 366.432,-89.7381"/>
</g>
<!-- Node34 -->
<g id="node92" class="node"><title>Node34</title>
<polygon fill="white" stroke="#bfbfbf" points="152.5,-58.5 152.5,-79.5 219.5,-79.5 219.5,-58.5 152.5,-58.5"/>
<text text-anchor="middle" x="186" y="-66.5" font-family="Helvetica,sans-Serif" font-size="10.00">odversion.h</text>
</g>
<!-- Node33&#45;&gt;Node34 -->
<g id="edge116" class="edge"><title>Node33&#45;&gt;Node34</title>
<path fill="none" stroke="midnightblue" d="M333.656,-117.938C305.256,-108.525 260.467,-93.6806 227.66,-82.8073"/>
<polygon fill="midnightblue" stroke="midnightblue" points="228.488,-79.3944 217.894,-79.5707 226.285,-86.039 228.488,-79.3944"/>
</g>
<!-- Node36&#45;&gt;Node32 -->
<g id="edge122" class="edge"><title>Node36&#45;&gt;Node32</title>
<path fill="none" stroke="midnightblue" d="M383.029,-464.268C385.575,-454.803 389.096,-440.595 391,-428 399.907,-369.079 402.73,-298.659 403.61,-264.163"/>
<polygon fill="midnightblue" stroke="midnightblue" points="407.115,-263.986 403.841,-253.91 400.117,-263.829 407.115,-263.986"/>
</g>
<!-- Node37&#45;&gt;Node5 -->
<g id="edge126" class="edge"><title>Node37&#45;&gt;Node5</title>
<path fill="none" stroke="midnightblue" d="M222.344,-464.185C226.562,-443.744 235,-397.989 235,-359 235,-359 235,-359 235,-301 235,-265.741 251.051,-227.315 262.289,-204.732"/>
<polygon fill="midnightblue" stroke="midnightblue" points="265.418,-206.301 266.895,-195.809 259.198,-203.09 265.418,-206.301"/>
</g>
<!-- Node37&#45;&gt;Node27 -->
<g id="edge128" class="edge"><title>Node37&#45;&gt;Node27</title>
<path fill="none" stroke="midnightblue" d="M237.928,-485.571C249.308,-493.891 263.623,-505.668 274.331,-515.405"/>
<polygon fill="midnightblue" stroke="midnightblue" points="272.032,-518.048 281.708,-522.362 276.834,-512.955 272.032,-518.048"/>
</g>
</g>
</svg>
