<?xml version="1.0" encoding="UTF-8" standalone="no"?>
<!DOCTYPE svg PUBLIC "-//W3C//DTD SVG 1.1//EN"
 "http://www.w3.org/Graphics/SVG/1.1/DTD/svg11.dtd">
<!-- Generated by graphviz version 2.26.0 (20091210.2329)
 -->
<!-- Title: mathformula.h Pages: 1 -->
<svg width="246pt" height="88pt"
 viewBox="0.00 0.00 246.00 88.00" xmlns="http://www.w3.org/2000/svg" xmlns:xlink="http://www.w3.org/1999/xlink">
<g id="graph1" class="graph" transform="scale(1 1) rotate(0) translate(4 84)">
<title>mathformula.h</title>
<polygon fill="white" stroke="white" points="-4,5 -4,-84 243,-84 243,5 -4,5"/>
<!-- Node1 -->
<g id="node1" class="node"><title>Node1</title>
<polygon fill="#bfbfbf" stroke="black" points="91.5,-58.5 91.5,-79.5 170.5,-79.5 170.5,-58.5 91.5,-58.5"/>
<text text-anchor="middle" x="131" y="-66.5" font-family="Helvetica,sans-Serif" font-size="10.00">mathformula.h</text>
</g>
<!-- Node2 -->
<g id="node3" class="node"><title>Node2</title>
<a xlink:href="uimathexpressionvariable_8h.html" target="_top" xlink:title="uimathexpressionvariable.h">
<polygon fill="white" stroke="black" points="-0.5,-0.5 -0.5,-21.5 134.5,-21.5 134.5,-0.5 -0.5,-0.5"/>
<text text-anchor="middle" x="67" y="-8.5" font-family="Helvetica,sans-Serif" font-size="10.00">uimathexpressionvariable.h</text>
</a>
</g>
<!-- Node1&#45;&gt;Node2 -->
<g id="edge2" class="edge"><title>Node1&#45;&gt;Node2</title>
<path fill="none" stroke="midnightblue" d="M111.585,-51.405C100.841,-41.6683 87.8457,-29.8914 78.6642,-21.5707"/>
<polygon fill="midnightblue" stroke="midnightblue" points="109.501,-54.2401 119.261,-58.3619 114.202,-49.0532 109.501,-54.2401"/>
</g>
<!-- Node3 -->
<g id="node5" class="node"><title>Node3</title>
<a xlink:href="uimathformula_8h.html" target="_top" xlink:title="uimathformula.h">
<polygon fill="white" stroke="black" points="152,-0.5 152,-21.5 238,-21.5 238,-0.5 152,-0.5"/>
<text text-anchor="middle" x="195" y="-8.5" font-family="Helvetica,sans-Serif" font-size="10.00">uimathformula.h</text>
</a>
</g>
<!-- Node1&#45;&gt;Node3 -->
<g id="edge4" class="edge"><title>Node1&#45;&gt;Node3</title>
<path fill="none" stroke="midnightblue" d="M150.415,-51.405C161.159,-41.6683 174.154,-29.8914 183.336,-21.5707"/>
<polygon fill="midnightblue" stroke="midnightblue" points="147.798,-49.0532 142.739,-58.3619 152.499,-54.2401 147.798,-49.0532"/>
</g>
</g>
</svg>
