<?xml version="1.0" encoding="UTF-8" standalone="no"?>
<!DOCTYPE svg PUBLIC "-//W3C//DTD SVG 1.1//EN"
 "http://www.w3.org/Graphics/SVG/1.1/DTD/svg11.dtd">
<!-- Generated by graphviz version 2.26.0 (20091210.2329)
 -->
<!-- Title: measuretoolman.h Pages: 1 -->
<svg width="816pt" height="726pt"
 viewBox="0.00 0.00 816.00 726.00" xmlns="http://www.w3.org/2000/svg" xmlns:xlink="http://www.w3.org/1999/xlink">
<g id="graph1" class="graph" transform="scale(1 1) rotate(0) translate(4 722)">
<title>measuretoolman.h</title>
<polygon fill="white" stroke="white" points="-4,5 -4,-722 813,-722 813,5 -4,5"/>
<!-- Node1 -->
<g id="node1" class="node"><title>Node1</title>
<polygon fill="#bfbfbf" stroke="black" points="351.5,-696.5 351.5,-717.5 448.5,-717.5 448.5,-696.5 351.5,-696.5"/>
<text text-anchor="middle" x="400" y="-704.5" font-family="Helvetica,sans-Serif" font-size="10.00">measuretoolman.h</text>
</g>
<!-- Node2 -->
<g id="node3" class="node"><title>Node2</title>
<a xlink:href="callback_8h.html" target="_top" xlink:title="callback.h">
<polygon fill="white" stroke="black" points="333.5,-638.5 333.5,-659.5 394.5,-659.5 394.5,-638.5 333.5,-638.5"/>
<text text-anchor="middle" x="364" y="-646.5" font-family="Helvetica,sans-Serif" font-size="10.00">callback.h</text>
</a>
</g>
<!-- Node1&#45;&gt;Node2 -->
<g id="edge2" class="edge"><title>Node1&#45;&gt;Node2</title>
<path fill="none" stroke="midnightblue" d="M393.397,-696.362C388.525,-688.513 381.762,-677.616 375.95,-668.253"/>
<polygon fill="midnightblue" stroke="midnightblue" points="378.809,-666.221 370.561,-659.571 372.861,-669.913 378.809,-666.221"/>
</g>
<!-- Node33 -->
<g id="node90" class="node"><title>Node33</title>
<a xlink:href="uistring_8h.html" target="_top" xlink:title="uistring.h">
<polygon fill="white" stroke="black" points="422,-580.5 422,-601.5 478,-601.5 478,-580.5 422,-580.5"/>
<text text-anchor="middle" x="450" y="-588.5" font-family="Helvetica,sans-Serif" font-size="10.00">uistring.h</text>
</a>
</g>
<!-- Node1&#45;&gt;Node33 -->
<g id="edge114" class="edge"><title>Node1&#45;&gt;Node33</title>
<path fill="none" stroke="midnightblue" d="M404.614,-696.295C412.949,-676.959 430.637,-635.923 441.303,-611.177"/>
<polygon fill="midnightblue" stroke="midnightblue" points="444.653,-612.248 445.397,-601.679 438.224,-609.477 444.653,-612.248"/>
</g>
<!-- Node3 -->
<g id="node5" class="node"><title>Node3</title>
<polygon fill="white" stroke="#bfbfbf" points="463.5,-0.5 463.5,-21.5 530.5,-21.5 530.5,-0.5 463.5,-0.5"/>
<text text-anchor="middle" x="497" y="-8.5" font-family="Helvetica,sans-Serif" font-size="10.00">basicmod.h</text>
</g>
<!-- Node2&#45;&gt;Node3 -->
<g id="edge4" class="edge"><title>Node2&#45;&gt;Node3</title>
<path fill="none" stroke="midnightblue" d="M394.518,-647.617C494.83,-642.253 808,-618.646 808,-533 808,-533 808,-533 808,-127 808,-87.5044 785.964,-78.1584 752,-58 716.98,-37.2147 604.09,-22.3332 540.891,-15.3926"/>
<polygon fill="midnightblue" stroke="midnightblue" points="541.137,-11.899 530.82,-14.3076 540.388,-18.8587 541.137,-11.899"/>
</g>
<!-- Node4 -->
<g id="node7" class="node"><title>Node4</title>
<a xlink:href="refcount_8h.html" target="_top" xlink:title="refcount.h">
<polygon fill="white" stroke="black" points="151,-580.5 151,-601.5 211,-601.5 211,-580.5 151,-580.5"/>
<text text-anchor="middle" x="181" y="-588.5" font-family="Helvetica,sans-Serif" font-size="10.00">refcount.h</text>
</a>
</g>
<!-- Node2&#45;&gt;Node4 -->
<g id="edge6" class="edge"><title>Node2&#45;&gt;Node4</title>
<path fill="none" stroke="midnightblue" d="M333.37,-639.292C302.439,-629.489 254.524,-614.303 220.697,-603.581"/>
<polygon fill="midnightblue" stroke="midnightblue" points="221.711,-600.231 211.121,-600.547 219.596,-606.904 221.711,-600.231"/>
</g>
<!-- Node30 -->
<g id="node78" class="node"><title>Node30</title>
<a xlink:href="sets_8h.html" target="_top" xlink:title="sets.h">
<polygon fill="white" stroke="black" points="237,-580.5 237,-601.5 281,-601.5 281,-580.5 237,-580.5"/>
<text text-anchor="middle" x="259" y="-588.5" font-family="Helvetica,sans-Serif" font-size="10.00">sets.h</text>
</a>
</g>
<!-- Node2&#45;&gt;Node30 -->
<g id="edge96" class="edge"><title>Node2&#45;&gt;Node30</title>
<path fill="none" stroke="midnightblue" d="M344.741,-638.362C328.534,-629.409 305.147,-616.491 286.891,-606.406"/>
<polygon fill="midnightblue" stroke="midnightblue" points="288.582,-603.342 278.137,-601.571 285.198,-609.47 288.582,-603.342"/>
</g>
<!-- Node32 -->
<g id="node85" class="node"><title>Node32</title>
<a xlink:href="threadlock_8h.html" target="_top" xlink:title="threadlock.h">
<polygon fill="white" stroke="black" points="380,-116.5 380,-137.5 450,-137.5 450,-116.5 380,-116.5"/>
<text text-anchor="middle" x="415" y="-124.5" font-family="Helvetica,sans-Serif" font-size="10.00">threadlock.h</text>
</a>
</g>
<!-- Node2&#45;&gt;Node32 -->
<g id="edge106" class="edge"><title>Node2&#45;&gt;Node32</title>
<path fill="none" stroke="midnightblue" d="M364,-638.444C364,-618.062 364,-571.868 364,-533 364,-533 364,-533 364,-417 364,-314.323 395.394,-194.247 408.92,-147.279"/>
<polygon fill="midnightblue" stroke="midnightblue" points="412.28,-148.258 411.732,-137.677 405.563,-146.29 412.28,-148.258"/>
</g>
<!-- Node5 -->
<g id="node9" class="node"><title>Node5</title>
<a xlink:href="atomic_8h.html" target="_top" xlink:title="atomic.h">
<polygon fill="white" stroke="black" points="124,-116.5 124,-137.5 178,-137.5 178,-116.5 124,-116.5"/>
<text text-anchor="middle" x="151" y="-124.5" font-family="Helvetica,sans-Serif" font-size="10.00">atomic.h</text>
</a>
</g>
<!-- Node4&#45;&gt;Node5 -->
<g id="edge8" class="edge"><title>Node4&#45;&gt;Node5</title>
<path fill="none" stroke="midnightblue" d="M150.673,-581.614C108.697,-566.514 38,-532.542 38,-475 38,-475 38,-475 38,-243 38,-196.1 85.9817,-161.067 119.413,-142.35"/>
<polygon fill="midnightblue" stroke="midnightblue" points="121.26,-145.33 128.404,-137.507 117.94,-139.167 121.26,-145.33"/>
</g>
<!-- Node13 -->
<g id="node28" class="node"><title>Node13</title>
<a xlink:href="objectset_8h.html" target="_top" xlink:title="objectset.h">
<polygon fill="white" stroke="black" points="148.5,-522.5 148.5,-543.5 213.5,-543.5 213.5,-522.5 148.5,-522.5"/>
<text text-anchor="middle" x="181" y="-530.5" font-family="Helvetica,sans-Serif" font-size="10.00">objectset.h</text>
</a>
</g>
<!-- Node4&#45;&gt;Node13 -->
<g id="edge30" class="edge"><title>Node4&#45;&gt;Node13</title>
<path fill="none" stroke="midnightblue" d="M181,-580.362C181,-572.922 181,-562.743 181,-553.728"/>
<polygon fill="midnightblue" stroke="midnightblue" points="184.5,-553.571 181,-543.571 177.5,-553.571 184.5,-553.571"/>
</g>
<!-- Node5&#45;&gt;Node3 -->
<g id="edge10" class="edge"><title>Node5&#45;&gt;Node3</title>
<path fill="none" stroke="midnightblue" d="M156.677,-116.307C165.577,-100.693 184.374,-71.9949 209,-58 229.876,-46.1363 377.779,-26.0681 453.118,-16.4535"/>
<polygon fill="midnightblue" stroke="midnightblue" points="453.767,-19.8994 463.247,-15.1682 452.886,-12.9551 453.767,-19.8994"/>
</g>
<!-- Node6 -->
<g id="node12" class="node"><title>Node6</title>
<a xlink:href="commondefs_8h.html" target="_top" xlink:title="commondefs.h">
<polygon fill="white" stroke="black" points="217.5,-58.5 217.5,-79.5 298.5,-79.5 298.5,-58.5 217.5,-58.5"/>
<text text-anchor="middle" x="258" y="-66.5" font-family="Helvetica,sans-Serif" font-size="10.00">commondefs.h</text>
</a>
</g>
<!-- Node5&#45;&gt;Node6 -->
<g id="edge12" class="edge"><title>Node5&#45;&gt;Node6</title>
<path fill="none" stroke="midnightblue" d="M170.625,-116.362C187.141,-107.409 210.974,-94.4908 229.578,-84.4064"/>
<polygon fill="midnightblue" stroke="midnightblue" points="231.375,-87.4132 238.499,-79.5707 228.04,-81.2592 231.375,-87.4132"/>
</g>
<!-- Node10 -->
<g id="node21" class="node"><title>Node10</title>
<a xlink:href="plftypes_8h.html" target="_top" xlink:title="plftypes.h">
<polygon fill="white" stroke="black" points="315.5,-58.5 315.5,-79.5 374.5,-79.5 374.5,-58.5 315.5,-58.5"/>
<text text-anchor="middle" x="345" y="-66.5" font-family="Helvetica,sans-Serif" font-size="10.00">plftypes.h</text>
</a>
</g>
<!-- Node5&#45;&gt;Node10 -->
<g id="edge22" class="edge"><title>Node5&#45;&gt;Node10</title>
<path fill="none" stroke="midnightblue" d="M178.12,-118.69C181.116,-117.779 184.122,-116.868 187,-116 227.301,-103.849 273.448,-90.146 305.42,-80.6853"/>
<polygon fill="midnightblue" stroke="midnightblue" points="306.681,-83.9625 315.277,-77.7701 304.695,-77.2499 306.681,-83.9625"/>
</g>
<!-- Node12 -->
<g id="node26" class="node"><title>Node12</title>
<polygon fill="white" stroke="#bfbfbf" points="95.5,-58.5 95.5,-79.5 162.5,-79.5 162.5,-58.5 95.5,-58.5"/>
<text text-anchor="middle" x="129" y="-66.5" font-family="Helvetica,sans-Serif" font-size="10.00">odversion.h</text>
</g>
<!-- Node5&#45;&gt;Node12 -->
<g id="edge28" class="edge"><title>Node5&#45;&gt;Node12</title>
<path fill="none" stroke="midnightblue" d="M146.965,-116.362C144.081,-108.758 140.112,-98.294 136.637,-89.1349"/>
<polygon fill="midnightblue" stroke="midnightblue" points="139.829,-87.6793 133.01,-79.5707 133.284,-90.1619 139.829,-87.6793"/>
</g>
<!-- Node6&#45;&gt;Node3 -->
<g id="edge14" class="edge"><title>Node6&#45;&gt;Node3</title>
<path fill="none" stroke="midnightblue" d="M298.543,-59.1611C341.54,-48.7266 409.222,-32.3018 453.361,-21.5902"/>
<polygon fill="midnightblue" stroke="midnightblue" points="454.332,-24.9562 463.225,-19.1966 452.681,-18.1537 454.332,-24.9562"/>
</g>
<!-- Node7 -->
<g id="node15" class="node"><title>Node7</title>
<a xlink:href="plfdefs_8h.html" target="_top" xlink:title="plfdefs.h">
<polygon fill="white" stroke="black" points="271,-0.5 271,-21.5 325,-21.5 325,-0.5 271,-0.5"/>
<text text-anchor="middle" x="298" y="-8.5" font-family="Helvetica,sans-Serif" font-size="10.00">plfdefs.h</text>
</a>
</g>
<!-- Node6&#45;&gt;Node7 -->
<g id="edge16" class="edge"><title>Node6&#45;&gt;Node7</title>
<path fill="none" stroke="midnightblue" d="M265.337,-58.3619C270.806,-50.4313 278.422,-39.3885 284.924,-29.9606"/>
<polygon fill="midnightblue" stroke="midnightblue" points="287.914,-31.7899 290.71,-21.5707 282.151,-27.8157 287.914,-31.7899"/>
</g>
<!-- Node8 -->
<g id="node17" class="node"><title>Node8</title>
<polygon fill="white" stroke="#bfbfbf" points="45.5,-0.5 45.5,-21.5 104.5,-21.5 104.5,-0.5 45.5,-0.5"/>
<text text-anchor="middle" x="75" y="-8.5" font-family="Helvetica,sans-Serif" font-size="10.00">stdexcept</text>
</g>
<!-- Node6&#45;&gt;Node8 -->
<g id="edge18" class="edge"><title>Node6&#45;&gt;Node8</title>
<path fill="none" stroke="midnightblue" d="M224.86,-58.4966C193.777,-48.6451 147.272,-33.906 114.324,-23.4635"/>
<polygon fill="midnightblue" stroke="midnightblue" points="115.157,-20.0557 104.567,-20.3708 113.042,-26.7286 115.157,-20.0557"/>
</g>
<!-- Node9 -->
<g id="node19" class="node"><title>Node9</title>
<polygon fill="white" stroke="#bfbfbf" points="218.5,-0.5 218.5,-21.5 253.5,-21.5 253.5,-0.5 218.5,-0.5"/>
<text text-anchor="middle" x="236" y="-8.5" font-family="Helvetica,sans-Serif" font-size="10.00">new</text>
</g>
<!-- Node6&#45;&gt;Node9 -->
<g id="edge20" class="edge"><title>Node6&#45;&gt;Node9</title>
<path fill="none" stroke="midnightblue" d="M253.965,-58.3619C251.081,-50.7584 247.112,-40.294 243.637,-31.1349"/>
<polygon fill="midnightblue" stroke="midnightblue" points="246.829,-29.6793 240.01,-21.5707 240.284,-32.1619 246.829,-29.6793"/>
</g>
<!-- Node10&#45;&gt;Node7 -->
<g id="edge24" class="edge"><title>Node10&#45;&gt;Node7</title>
<path fill="none" stroke="midnightblue" d="M336.379,-58.3619C329.82,-50.2678 320.634,-38.9318 312.894,-29.3796"/>
<polygon fill="midnightblue" stroke="midnightblue" points="315.581,-27.1364 306.566,-21.5707 310.142,-31.5436 315.581,-27.1364"/>
</g>
<!-- Node11 -->
<g id="node24" class="node"><title>Node11</title>
<polygon fill="white" stroke="#bfbfbf" points="342.5,-0.5 342.5,-21.5 391.5,-21.5 391.5,-0.5 342.5,-0.5"/>
<text text-anchor="middle" x="367" y="-8.5" font-family="Helvetica,sans-Serif" font-size="10.00">stdint.h</text>
</g>
<!-- Node10&#45;&gt;Node11 -->
<g id="edge26" class="edge"><title>Node10&#45;&gt;Node11</title>
<path fill="none" stroke="midnightblue" d="M349.035,-58.3619C351.919,-50.7584 355.888,-40.294 359.363,-31.1349"/>
<polygon fill="midnightblue" stroke="midnightblue" points="362.716,-32.1619 362.99,-21.5707 356.171,-29.6793 362.716,-32.1619"/>
</g>
<!-- Node14 -->
<g id="node30" class="node"><title>Node14</title>
<a xlink:href="odset_8h.html" target="_top" xlink:title="odset.h">
<polygon fill="white" stroke="black" points="140.5,-464.5 140.5,-485.5 189.5,-485.5 189.5,-464.5 140.5,-464.5"/>
<text text-anchor="middle" x="165" y="-472.5" font-family="Helvetica,sans-Serif" font-size="10.00">odset.h</text>
</a>
</g>
<!-- Node13&#45;&gt;Node14 -->
<g id="edge32" class="edge"><title>Node13&#45;&gt;Node14</title>
<path fill="none" stroke="midnightblue" d="M178.065,-522.362C175.99,-514.84 173.143,-504.519 170.636,-495.431"/>
<polygon fill="midnightblue" stroke="midnightblue" points="173.949,-494.28 167.916,-485.571 167.201,-496.141 173.949,-494.28"/>
</g>
<!-- Node20 -->
<g id="node47" class="node"><title>Node20</title>
<a xlink:href="vectoraccess_8h.html" target="_top" xlink:title="vectoraccess.h">
<polygon fill="white" stroke="black" points="206.5,-464.5 206.5,-485.5 289.5,-485.5 289.5,-464.5 206.5,-464.5"/>
<text text-anchor="middle" x="248" y="-472.5" font-family="Helvetica,sans-Serif" font-size="10.00">vectoraccess.h</text>
</a>
</g>
<!-- Node13&#45;&gt;Node20 -->
<g id="edge54" class="edge"><title>Node13&#45;&gt;Node20</title>
<path fill="none" stroke="midnightblue" d="M193.289,-522.362C203.017,-513.941 216.798,-502.011 228.095,-492.231"/>
<polygon fill="midnightblue" stroke="midnightblue" points="230.519,-494.762 235.789,-485.571 225.938,-489.469 230.519,-494.762"/>
</g>
<!-- Node15 -->
<g id="node32" class="node"><title>Node15</title>
<a xlink:href="gendefs_8h.html" target="_top" xlink:title="gendefs.h">
<polygon fill="white" stroke="black" points="296.5,-174.5 296.5,-195.5 355.5,-195.5 355.5,-174.5 296.5,-174.5"/>
<text text-anchor="middle" x="326" y="-182.5" font-family="Helvetica,sans-Serif" font-size="10.00">gendefs.h</text>
</a>
</g>
<!-- Node14&#45;&gt;Node15 -->
<g id="edge34" class="edge"><title>Node14&#45;&gt;Node15</title>
<path fill="none" stroke="midnightblue" d="M154.348,-464.457C142.21,-451.103 125.022,-427.265 133,-406 167.569,-313.861 259.876,-234.929 303.09,-201.743"/>
<polygon fill="midnightblue" stroke="midnightblue" points="305.421,-204.369 311.287,-195.546 301.2,-198.785 305.421,-204.369"/>
</g>
<!-- Node16 -->
<g id="node34" class="node"><title>Node16</title>
<a xlink:href="undefval_8h.html" target="_top" xlink:title="undefval.h">
<polygon fill="white" stroke="black" points="300,-116.5 300,-137.5 362,-137.5 362,-116.5 300,-116.5"/>
<text text-anchor="middle" x="331" y="-124.5" font-family="Helvetica,sans-Serif" font-size="10.00">undefval.h</text>
</a>
</g>
<!-- Node15&#45;&gt;Node16 -->
<g id="edge36" class="edge"><title>Node15&#45;&gt;Node16</title>
<path fill="none" stroke="midnightblue" d="M326.917,-174.362C327.558,-166.922 328.436,-156.743 329.213,-147.728"/>
<polygon fill="midnightblue" stroke="midnightblue" points="332.717,-147.834 330.089,-137.571 325.743,-147.233 332.717,-147.834"/>
</g>
<!-- Node17 -->
<g id="node39" class="node"><title>Node17</title>
<a xlink:href="commontypes_8h.html" target="_top" xlink:title="commontypes.h">
<polygon fill="white" stroke="black" points="196,-116.5 196,-137.5 282,-137.5 282,-116.5 196,-116.5"/>
<text text-anchor="middle" x="239" y="-124.5" font-family="Helvetica,sans-Serif" font-size="10.00">commontypes.h</text>
</a>
</g>
<!-- Node15&#45;&gt;Node17 -->
<g id="edge44" class="edge"><title>Node15&#45;&gt;Node17</title>
<path fill="none" stroke="midnightblue" d="M310.043,-174.362C297.043,-165.696 278.469,-153.313 263.573,-143.382"/>
<polygon fill="midnightblue" stroke="midnightblue" points="265.118,-140.206 254.856,-137.571 261.235,-146.03 265.118,-140.206"/>
</g>
<!-- Node18 -->
<g id="node42" class="node"><title>Node18</title>
<a xlink:href="errmsg_8h.html" target="_top" xlink:title="errmsg.h">
<polygon fill="white" stroke="black" points="51.5,-116.5 51.5,-137.5 106.5,-137.5 106.5,-116.5 51.5,-116.5"/>
<text text-anchor="middle" x="79" y="-124.5" font-family="Helvetica,sans-Serif" font-size="10.00">errmsg.h</text>
</a>
</g>
<!-- Node15&#45;&gt;Node18 -->
<g id="edge48" class="edge"><title>Node15&#45;&gt;Node18</title>
<path fill="none" stroke="midnightblue" d="M296.471,-179.174C257.35,-171.294 186.013,-156.36 116.622,-138.309"/>
<polygon fill="midnightblue" stroke="midnightblue" points="117.408,-134.897 106.847,-135.742 115.63,-141.667 117.408,-134.897"/>
</g>
<!-- Node16&#45;&gt;Node3 -->
<g id="edge38" class="edge"><title>Node16&#45;&gt;Node3</title>
<path fill="none" stroke="midnightblue" d="M346.319,-116.295C375.349,-96.0092 438.556,-51.8403 473.168,-27.6534"/>
<polygon fill="midnightblue" stroke="midnightblue" points="475.526,-30.2762 481.718,-21.6792 471.516,-24.5383 475.526,-30.2762"/>
</g>
<!-- Node16&#45;&gt;Node6 -->
<g id="edge40" class="edge"><title>Node16&#45;&gt;Node6</title>
<path fill="none" stroke="midnightblue" d="M317.611,-116.362C306.909,-107.859 291.704,-95.7785 279.329,-85.9466"/>
<polygon fill="midnightblue" stroke="midnightblue" points="281.311,-83.0511 271.304,-79.5707 276.957,-88.5318 281.311,-83.0511"/>
</g>
<!-- Node16&#45;&gt;Node10 -->
<g id="edge42" class="edge"><title>Node16&#45;&gt;Node10</title>
<path fill="none" stroke="midnightblue" d="M333.568,-116.362C335.383,-108.84 337.875,-98.5187 340.068,-89.4308"/>
<polygon fill="midnightblue" stroke="midnightblue" points="343.504,-90.1127 342.448,-79.5707 336.7,-88.4702 343.504,-90.1127"/>
</g>
<!-- Node17&#45;&gt;Node6 -->
<g id="edge46" class="edge"><title>Node17&#45;&gt;Node6</title>
<path fill="none" stroke="midnightblue" d="M242.485,-116.362C244.976,-108.758 248.404,-98.294 251.404,-89.1349"/>
<polygon fill="midnightblue" stroke="midnightblue" points="254.75,-90.1634 254.537,-79.5707 248.098,-87.9841 254.75,-90.1634"/>
</g>
<!-- Node18&#45;&gt;Node6 -->
<g id="edge50" class="edge"><title>Node18&#45;&gt;Node6</title>
<path fill="none" stroke="midnightblue" d="M106.576,-118.065C135.764,-108.607 182.184,-93.566 215.941,-82.6282"/>
<polygon fill="midnightblue" stroke="midnightblue" points="217.104,-85.9304 225.538,-79.5183 214.946,-79.2713 217.104,-85.9304"/>
</g>
<!-- Node19 -->
<g id="node45" class="node"><title>Node19</title>
<polygon fill="white" stroke="#bfbfbf" points="27.5,-58.5 27.5,-79.5 78.5,-79.5 78.5,-58.5 27.5,-58.5"/>
<text text-anchor="middle" x="53" y="-66.5" font-family="Helvetica,sans-Serif" font-size="10.00">typeinfo</text>
</g>
<!-- Node18&#45;&gt;Node19 -->
<g id="edge52" class="edge"><title>Node18&#45;&gt;Node19</title>
<path fill="none" stroke="midnightblue" d="M74.2312,-116.362C70.7861,-108.677 66.0308,-98.0686 61.8937,-88.8399"/>
<polygon fill="midnightblue" stroke="midnightblue" points="65.023,-87.264 57.7386,-79.5707 58.6354,-90.1275 65.023,-87.264"/>
</g>
<!-- Node20&#45;&gt;Node8 -->
<g id="edge94" class="edge"><title>Node20&#45;&gt;Node8</title>
<path fill="none" stroke="midnightblue" d="M206.495,-465.459C182.791,-458.323 153.752,-446.534 133,-428 41.1729,-345.988 7.53882e-15,-308.118 0,-185 0,-185 0,-185 0,-127 1.94768e-15,-95.1919 1.8185,-84.7684 19,-58 26.682,-46.0316 38.3672,-35.5363 49.0796,-27.5173"/>
<polygon fill="midnightblue" stroke="midnightblue" points="51.2374,-30.2779 57.3672,-21.6364 47.1864,-24.5691 51.2374,-30.2779"/>
</g>
<!-- Node20&#45;&gt;Node15 -->
<g id="edge88" class="edge"><title>Node20&#45;&gt;Node15</title>
<path fill="none" stroke="midnightblue" d="M254.427,-464.232C265.734,-444.234 288,-399.688 288,-359 288,-359 288,-359 288,-301 288,-265.741 304.051,-227.315 315.289,-204.732"/>
<polygon fill="midnightblue" stroke="midnightblue" points="318.418,-206.301 319.895,-195.809 312.198,-203.09 318.418,-206.301"/>
</g>
<!-- Node21 -->
<g id="node49" class="node"><title>Node21</title>
<a xlink:href="debug_8h.html" target="_top" xlink:title="debug.h">
<polygon fill="white" stroke="black" points="395.5,-406.5 395.5,-427.5 446.5,-427.5 446.5,-406.5 395.5,-406.5"/>
<text text-anchor="middle" x="421" y="-414.5" font-family="Helvetica,sans-Serif" font-size="10.00">debug.h</text>
</a>
</g>
<!-- Node20&#45;&gt;Node21 -->
<g id="edge56" class="edge"><title>Node20&#45;&gt;Node21</title>
<path fill="none" stroke="midnightblue" d="M279.329,-464.497C309.29,-454.452 354.407,-439.326 385.642,-428.854"/>
<polygon fill="midnightblue" stroke="midnightblue" points="386.89,-432.127 395.259,-425.63 384.665,-425.49 386.89,-432.127"/>
</g>
<!-- Node28 -->
<g id="node73" class="node"><title>Node28</title>
<polygon fill="white" stroke="#bfbfbf" points="142,-406.5 142,-427.5 198,-427.5 198,-406.5 142,-406.5"/>
<text text-anchor="middle" x="170" y="-414.5" font-family="Helvetica,sans-Serif" font-size="10.00">algorithm</text>
</g>
<!-- Node20&#45;&gt;Node28 -->
<g id="edge90" class="edge"><title>Node20&#45;&gt;Node28</title>
<path fill="none" stroke="midnightblue" d="M233.694,-464.362C222.149,-455.777 205.7,-443.546 192.41,-433.664"/>
<polygon fill="midnightblue" stroke="midnightblue" points="194.329,-430.729 184.216,-427.571 190.152,-436.346 194.329,-430.729"/>
</g>
<!-- Node29 -->
<g id="node75" class="node"><title>Node29</title>
<polygon fill="white" stroke="#bfbfbf" points="216,-406.5 216,-427.5 260,-427.5 260,-406.5 216,-406.5"/>
<text text-anchor="middle" x="238" y="-414.5" font-family="Helvetica,sans-Serif" font-size="10.00">vector</text>
</g>
<!-- Node20&#45;&gt;Node29 -->
<g id="edge92" class="edge"><title>Node20&#45;&gt;Node29</title>
<path fill="none" stroke="midnightblue" d="M246.166,-464.362C244.869,-456.84 243.089,-446.519 241.523,-437.431"/>
<polygon fill="midnightblue" stroke="midnightblue" points="244.971,-436.831 239.823,-427.571 238.073,-438.02 244.971,-436.831"/>
</g>
<!-- Node21&#45;&gt;Node3 -->
<g id="edge58" class="edge"><title>Node21&#45;&gt;Node3</title>
<path fill="none" stroke="midnightblue" d="M427.1,-406.406C441.804,-379.836 478,-307.847 478,-243 478,-243 478,-243 478,-127 478,-93.175 485.965,-54.5229 491.581,-31.474"/>
<polygon fill="midnightblue" stroke="midnightblue" points="494.974,-32.3312 494.031,-21.7784 488.188,-30.6159 494.974,-32.3312"/>
</g>
<!-- Node21&#45;&gt;Node15 -->
<g id="edge60" class="edge"><title>Node21&#45;&gt;Node15</title>
<path fill="none" stroke="midnightblue" d="M416.671,-406.429C401.958,-370.497 353.711,-252.674 334.249,-205.145"/>
<polygon fill="midnightblue" stroke="midnightblue" points="337.383,-203.561 330.354,-195.634 330.905,-206.214 337.383,-203.561"/>
</g>
<!-- Node22 -->
<g id="node53" class="node"><title>Node22</title>
<a xlink:href="bufstring_8h.html" target="_top" xlink:title="bufstring.h">
<polygon fill="white" stroke="black" points="580,-348.5 580,-369.5 642,-369.5 642,-348.5 580,-348.5"/>
<text text-anchor="middle" x="611" y="-356.5" font-family="Helvetica,sans-Serif" font-size="10.00">bufstring.h</text>
</a>
</g>
<!-- Node21&#45;&gt;Node22 -->
<g id="edge62" class="edge"><title>Node21&#45;&gt;Node22</title>
<path fill="none" stroke="midnightblue" d="M446.624,-409.178C478.332,-399.499 532.71,-382.899 570.186,-371.459"/>
<polygon fill="midnightblue" stroke="midnightblue" points="571.258,-374.791 579.8,-368.524 569.214,-368.096 571.258,-374.791"/>
</g>
<!-- Node22&#45;&gt;Node3 -->
<g id="edge64" class="edge"><title>Node22&#45;&gt;Node3</title>
<path fill="none" stroke="midnightblue" d="M607.463,-348.203C591.372,-299.083 524.944,-96.3016 503.621,-31.211"/>
<polygon fill="midnightblue" stroke="midnightblue" points="506.935,-30.0841 500.496,-21.6706 500.283,-32.2633 506.935,-30.0841"/>
</g>
<!-- Node23 -->
<g id="node56" class="node"><title>Node23</title>
<a xlink:href="fixedstring_8h.html" target="_top" xlink:title="fixedstring.h">
<polygon fill="white" stroke="black" points="620,-290.5 620,-311.5 690,-311.5 690,-290.5 620,-290.5"/>
<text text-anchor="middle" x="655" y="-298.5" font-family="Helvetica,sans-Serif" font-size="10.00">fixedstring.h</text>
</a>
</g>
<!-- Node22&#45;&gt;Node23 -->
<g id="edge66" class="edge"><title>Node22&#45;&gt;Node23</title>
<path fill="none" stroke="midnightblue" d="M619.07,-348.362C625.149,-340.35 633.637,-329.161 640.837,-319.67"/>
<polygon fill="midnightblue" stroke="midnightblue" points="643.725,-321.653 646.981,-311.571 638.149,-317.422 643.725,-321.653"/>
</g>
<!-- Node25 -->
<g id="node63" class="node"><title>Node25</title>
<a xlink:href="string2_8h.html" target="_top" xlink:title="string2.h">
<polygon fill="white" stroke="black" points="565,-116.5 565,-137.5 619,-137.5 619,-116.5 565,-116.5"/>
<text text-anchor="middle" x="592" y="-124.5" font-family="Helvetica,sans-Serif" font-size="10.00">string2.h</text>
</a>
</g>
<!-- Node22&#45;&gt;Node25 -->
<g id="edge76" class="edge"><title>Node22&#45;&gt;Node25</title>
<path fill="none" stroke="midnightblue" d="M610.134,-348.429C607.204,-312.648 597.623,-195.663 593.699,-147.748"/>
<polygon fill="midnightblue" stroke="midnightblue" points="597.175,-147.314 592.871,-137.634 590.199,-147.886 597.175,-147.314"/>
</g>
<!-- Node23&#45;&gt;Node3 -->
<g id="edge68" class="edge"><title>Node23&#45;&gt;Node3</title>
<path fill="none" stroke="midnightblue" d="M664.72,-290.275C697.097,-253.261 795.725,-129.251 732,-58 707.091,-30.1493 601.458,-18.2433 540.633,-13.6177"/>
<polygon fill="midnightblue" stroke="midnightblue" points="540.778,-10.1191 530.551,-12.8863 540.272,-17.1008 540.778,-10.1191"/>
</g>
<!-- Node24 -->
<g id="node59" class="node"><title>Node24</title>
<a xlink:href="odstring_8h.html" target="_top" xlink:title="odstring.h">
<polygon fill="white" stroke="black" points="619.5,-232.5 619.5,-253.5 678.5,-253.5 678.5,-232.5 619.5,-232.5"/>
<text text-anchor="middle" x="649" y="-240.5" font-family="Helvetica,sans-Serif" font-size="10.00">odstring.h</text>
</a>
</g>
<!-- Node23&#45;&gt;Node24 -->
<g id="edge70" class="edge"><title>Node23&#45;&gt;Node24</title>
<path fill="none" stroke="midnightblue" d="M653.9,-290.362C653.13,-282.922 652.077,-272.743 651.144,-263.728"/>
<polygon fill="midnightblue" stroke="midnightblue" points="654.604,-263.157 650.094,-253.571 647.641,-263.878 654.604,-263.157"/>
</g>
<!-- Node24&#45;&gt;Node3 -->
<g id="edge72" class="edge"><title>Node24&#45;&gt;Node3</title>
<path fill="none" stroke="midnightblue" d="M659.186,-232.175C686.707,-201.615 757.568,-113.308 713,-58 691.805,-31.6966 597.616,-19.3435 540.848,-14.1929"/>
<polygon fill="midnightblue" stroke="midnightblue" points="540.975,-10.6908 530.71,-13.3133 540.37,-17.6646 540.975,-10.6908"/>
</g>
<!-- Node24&#45;&gt;Node15 -->
<g id="edge74" class="edge"><title>Node24&#45;&gt;Node15</title>
<path fill="none" stroke="midnightblue" d="M619.48,-237.699C561.236,-227.241 431.491,-203.943 365.778,-192.143"/>
<polygon fill="midnightblue" stroke="midnightblue" points="366.264,-188.674 355.802,-190.352 365.026,-195.564 366.264,-188.674"/>
</g>
<!-- Node25&#45;&gt;Node3 -->
<g id="edge78" class="edge"><title>Node25&#45;&gt;Node3</title>
<path fill="none" stroke="midnightblue" d="M583.233,-116.295C567.044,-96.5271 532.281,-54.0801 512.187,-29.5443"/>
<polygon fill="midnightblue" stroke="midnightblue" points="514.79,-27.1982 505.746,-21.6792 509.374,-31.6334 514.79,-27.1982"/>
</g>
<!-- Node25&#45;&gt;Node6 -->
<g id="edge82" class="edge"><title>Node25&#45;&gt;Node6</title>
<path fill="none" stroke="midnightblue" d="M564.793,-123.045C515.617,-115.782 408.466,-99.4366 308.558,-80.2315"/>
<polygon fill="midnightblue" stroke="midnightblue" points="309.087,-76.769 298.604,-78.3037 307.756,-83.6413 309.087,-76.769"/>
</g>
<!-- Node25&#45;&gt;Node10 -->
<g id="edge80" class="edge"><title>Node25&#45;&gt;Node10</title>
<path fill="none" stroke="midnightblue" d="M564.623,-120.571C520.91,-110.307 435.149,-90.1686 384.7,-78.3223"/>
<polygon fill="midnightblue" stroke="midnightblue" points="385.337,-74.8767 374.802,-75.998 383.737,-81.6914 385.337,-74.8767"/>
</g>
<!-- Node26 -->
<g id="node68" class="node"><title>Node26</title>
<polygon fill="white" stroke="#bfbfbf" points="581.5,-58.5 581.5,-79.5 630.5,-79.5 630.5,-58.5 581.5,-58.5"/>
<text text-anchor="middle" x="606" y="-66.5" font-family="Helvetica,sans-Serif" font-size="10.00">ctype.h</text>
</g>
<!-- Node25&#45;&gt;Node26 -->
<g id="edge84" class="edge"><title>Node25&#45;&gt;Node26</title>
<path fill="none" stroke="midnightblue" d="M594.568,-116.362C596.383,-108.84 598.875,-98.5187 601.068,-89.4308"/>
<polygon fill="midnightblue" stroke="midnightblue" points="604.504,-90.1127 603.448,-79.5707 597.7,-88.4702 604.504,-90.1127"/>
</g>
<!-- Node27 -->
<g id="node70" class="node"><title>Node27</title>
<polygon fill="white" stroke="#bfbfbf" points="648,-58.5 648,-79.5 704,-79.5 704,-58.5 648,-58.5"/>
<text text-anchor="middle" x="676" y="-66.5" font-family="Helvetica,sans-Serif" font-size="10.00">wctype.h</text>
</g>
<!-- Node25&#45;&gt;Node27 -->
<g id="edge86" class="edge"><title>Node25&#45;&gt;Node27</title>
<path fill="none" stroke="midnightblue" d="M607.407,-116.362C619.958,-107.696 637.892,-95.3126 652.275,-85.3819"/>
<polygon fill="midnightblue" stroke="midnightblue" points="654.45,-88.1327 660.691,-79.5707 650.473,-82.3725 654.45,-88.1327"/>
</g>
<!-- Node30&#45;&gt;Node13 -->
<g id="edge104" class="edge"><title>Node30&#45;&gt;Node13</title>
<path fill="none" stroke="midnightblue" d="M244.694,-580.362C233.149,-571.777 216.7,-559.546 203.41,-549.664"/>
<polygon fill="midnightblue" stroke="midnightblue" points="205.329,-546.729 195.216,-543.571 201.152,-552.346 205.329,-546.729"/>
</g>
<!-- Node31 -->
<g id="node80" class="node"><title>Node31</title>
<a xlink:href="typeset_8h.html" target="_top" xlink:title="typeset.h">
<polygon fill="white" stroke="black" points="230.5,-522.5 230.5,-543.5 287.5,-543.5 287.5,-522.5 230.5,-522.5"/>
<text text-anchor="middle" x="259" y="-530.5" font-family="Helvetica,sans-Serif" font-size="10.00">typeset.h</text>
</a>
</g>
<!-- Node30&#45;&gt;Node31 -->
<g id="edge98" class="edge"><title>Node30&#45;&gt;Node31</title>
<path fill="none" stroke="midnightblue" d="M259,-580.362C259,-572.922 259,-562.743 259,-553.728"/>
<polygon fill="midnightblue" stroke="midnightblue" points="262.5,-553.571 259,-543.571 255.5,-553.571 262.5,-553.571"/>
</g>
<!-- Node31&#45;&gt;Node14 -->
<g id="edge100" class="edge"><title>Node31&#45;&gt;Node14</title>
<path fill="none" stroke="midnightblue" d="M241.759,-522.362C227.448,-513.532 206.885,-500.844 190.643,-490.822"/>
<polygon fill="midnightblue" stroke="midnightblue" points="192.48,-487.843 182.132,-485.571 188.804,-493.8 192.48,-487.843"/>
</g>
<!-- Node31&#45;&gt;Node20 -->
<g id="edge102" class="edge"><title>Node31&#45;&gt;Node20</title>
<path fill="none" stroke="midnightblue" d="M256.982,-522.362C255.556,-514.84 253.598,-504.519 251.875,-495.431"/>
<polygon fill="midnightblue" stroke="midnightblue" points="255.307,-494.743 250.005,-485.571 248.429,-496.048 255.307,-494.743"/>
</g>
<!-- Node32&#45;&gt;Node3 -->
<g id="edge108" class="edge"><title>Node32&#45;&gt;Node3</title>
<path fill="none" stroke="midnightblue" d="M422.567,-116.295C436.48,-96.6135 466.285,-54.4504 483.663,-29.8668"/>
<polygon fill="midnightblue" stroke="midnightblue" points="486.537,-31.8653 489.451,-21.6792 480.82,-27.8247 486.537,-31.8653"/>
</g>
<!-- Node32&#45;&gt;Node6 -->
<g id="edge110" class="edge"><title>Node32&#45;&gt;Node6</title>
<path fill="none" stroke="midnightblue" d="M386.568,-116.497C361.195,-107.123 323.843,-93.3242 295.93,-83.0122"/>
<polygon fill="midnightblue" stroke="midnightblue" points="297.078,-79.7054 286.485,-79.5231 294.652,-86.2716 297.078,-79.7054"/>
</g>
<!-- Node32&#45;&gt;Node10 -->
<g id="edge112" class="edge"><title>Node32&#45;&gt;Node10</title>
<path fill="none" stroke="midnightblue" d="M402.161,-116.362C391.998,-107.941 377.599,-96.0105 365.796,-86.2308"/>
<polygon fill="midnightblue" stroke="midnightblue" points="367.691,-83.2558 357.758,-79.5707 363.225,-88.6459 367.691,-83.2558"/>
</g>
<!-- Node33&#45;&gt;Node15 -->
<g id="edge116" class="edge"><title>Node33&#45;&gt;Node15</title>
<path fill="none" stroke="midnightblue" d="M423.703,-580.429C387.304,-563.854 326,-528.062 326,-475 326,-475 326,-475 326,-301 326,-267.598 326,-228.785 326,-205.594"/>
<polygon fill="midnightblue" stroke="midnightblue" points="329.5,-205.556 326,-195.556 322.5,-205.556 329.5,-205.556"/>
</g>
<!-- Node33&#45;&gt;Node25 -->
<g id="edge126" class="edge"><title>Node33&#45;&gt;Node25</title>
<path fill="none" stroke="midnightblue" d="M478.19,-586.119C551.776,-572.584 744,-531.791 744,-475 744,-475 744,-475 744,-301 744,-226.854 664.748,-169.063 620.696,-142.668"/>
<polygon fill="midnightblue" stroke="midnightblue" points="622.272,-139.535 611.871,-137.517 618.744,-145.581 622.272,-139.535"/>
</g>
<!-- Node33&#45;&gt;Node31 -->
<g id="edge128" class="edge"><title>Node33&#45;&gt;Node31</title>
<path fill="none" stroke="midnightblue" d="M421.817,-582.442C388.904,-572.447 334.285,-555.861 297.485,-544.687"/>
<polygon fill="midnightblue" stroke="midnightblue" points="298.196,-541.245 287.611,-541.688 296.162,-547.943 298.196,-541.245"/>
</g>
<!-- Node33&#45;&gt;Node32 -->
<g id="edge124" class="edge"><title>Node33&#45;&gt;Node32</title>
<path fill="none" stroke="midnightblue" d="M454.375,-580.333C462.25,-560.139 478,-514.777 478,-475 478,-475 478,-475 478,-417 478,-313.517 439.219,-193.899 422.511,-147.167"/>
<polygon fill="midnightblue" stroke="midnightblue" points="425.744,-145.817 419.037,-137.615 419.165,-148.209 425.744,-145.817"/>
</g>
<!-- Node34 -->
<g id="node93" class="node"><title>Node34</title>
<a xlink:href="keystrs_8h.html" target="_top" xlink:title="keystrs.h">
<polygon fill="white" stroke="black" points="505.5,-348.5 505.5,-369.5 562.5,-369.5 562.5,-348.5 505.5,-348.5"/>
<text text-anchor="middle" x="534" y="-356.5" font-family="Helvetica,sans-Serif" font-size="10.00">keystrs.h</text>
</a>
</g>
<!-- Node33&#45;&gt;Node34 -->
<g id="edge118" class="edge"><title>Node33&#45;&gt;Node34</title>
<path fill="none" stroke="midnightblue" d="M462.542,-580.289C472.045,-571.489 484.675,-558.199 492,-544 520.34,-489.064 529.7,-415.241 532.678,-379.754"/>
<polygon fill="midnightblue" stroke="midnightblue" points="536.178,-379.886 533.436,-369.652 529.198,-379.361 536.178,-379.886"/>
</g>
<!-- Node34&#45;&gt;Node15 -->
<g id="edge120" class="edge"><title>Node34&#45;&gt;Node15</title>
<path fill="none" stroke="midnightblue" d="M521.302,-348.377C486.489,-319.255 389.291,-237.946 346.578,-202.214"/>
<polygon fill="midnightblue" stroke="midnightblue" points="348.712,-199.436 338.796,-195.705 344.221,-204.806 348.712,-199.436"/>
</g>
<!-- Node34&#45;&gt;Node23 -->
<g id="edge122" class="edge"><title>Node34&#45;&gt;Node23</title>
<path fill="none" stroke="midnightblue" d="M555.912,-348.497C574.811,-339.438 602.331,-326.246 623.576,-316.063"/>
<polygon fill="midnightblue" stroke="midnightblue" points="625.337,-319.1 632.842,-311.621 622.311,-312.788 625.337,-319.1"/>
</g>
</g>
</svg>
