<?xml version="1.0" encoding="UTF-8" standalone="no"?>
<!DOCTYPE svg PUBLIC "-//W3C//DTD SVG 1.1//EN"
 "http://www.w3.org/Graphics/SVG/1.1/DTD/svg11.dtd">
<!-- Generated by graphviz version 2.26.0 (20091210.2329)
 -->
<!-- Title: menuhandler.h Pages: 1 -->
<svg width="1668pt" height="320pt"
 viewBox="0.00 0.00 1668.00 320.00" xmlns="http://www.w3.org/2000/svg" xmlns:xlink="http://www.w3.org/1999/xlink">
<g id="graph1" class="graph" transform="scale(1 1) rotate(0) translate(4 316)">
<title>menuhandler.h</title>
<polygon fill="white" stroke="white" points="-4,5 -4,-316 1665,-316 1665,5 -4,5"/>
<!-- Node1 -->
<g id="node1" class="node"><title>Node1</title>
<polygon fill="#bfbfbf" stroke="black" points="777,-290.5 777,-311.5 857,-311.5 857,-290.5 777,-290.5"/>
<text text-anchor="middle" x="817" y="-298.5" font-family="Helvetica,sans-Serif" font-size="10.00">menuhandler.h</text>
</g>
<!-- Node2 -->
<g id="node3" class="node"><title>Node2</title>
<a xlink:href="uimenuhandler_8h.html" target="_top" xlink:title="uimenuhandler.h">
<polygon fill="white" stroke="black" points="90,-232.5 90,-253.5 178,-253.5 178,-232.5 90,-232.5"/>
<text text-anchor="middle" x="134" y="-240.5" font-family="Helvetica,sans-Serif" font-size="10.00">uimenuhandler.h</text>
</a>
</g>
<!-- Node1&#45;&gt;Node2 -->
<g id="edge2" class="edge"><title>Node1&#45;&gt;Node2</title>
<path fill="none" stroke="midnightblue" d="M766.829,-298.908C660.999,-294.12 407.259,-280.667 196,-254 190.252,-253.274 184.226,-252.378 178.284,-251.412"/>
<polygon fill="midnightblue" stroke="midnightblue" points="766.756,-302.408 776.902,-299.357 767.068,-295.415 766.756,-302.408"/>
</g>
<!-- Node4 -->
<g id="node7" class="node"><title>Node4</title>
<a xlink:href="uiflatviewstdcontrol_8h.html" target="_top" xlink:title="uiflatviewstdcontrol.h">
<polygon fill="white" stroke="black" points="204.5,-232.5 204.5,-253.5 313.5,-253.5 313.5,-232.5 204.5,-232.5"/>
<text text-anchor="middle" x="259" y="-240.5" font-family="Helvetica,sans-Serif" font-size="10.00">uiflatviewstdcontrol.h</text>
</a>
</g>
<!-- Node1&#45;&gt;Node4 -->
<g id="edge6" class="edge"><title>Node1&#45;&gt;Node4</title>
<path fill="none" stroke="midnightblue" d="M766.622,-297.525C676.965,-291.049 483.914,-275.788 322,-254 319.249,-253.63 316.435,-253.227 313.595,-252.802"/>
<polygon fill="midnightblue" stroke="midnightblue" points="766.552,-301.029 776.777,-298.252 767.053,-294.046 766.552,-301.029"/>
</g>
<!-- Node8 -->
<g id="node15" class="node"><title>Node8</title>
<a xlink:href="uistrattreewin_8h.html" target="_top" xlink:title="uistrattreewin.h">
<polygon fill="white" stroke="black" points="330.5,-232.5 330.5,-253.5 413.5,-253.5 413.5,-232.5 330.5,-232.5"/>
<text text-anchor="middle" x="372" y="-240.5" font-family="Helvetica,sans-Serif" font-size="10.00">uistrattreewin.h</text>
</a>
</g>
<!-- Node1&#45;&gt;Node8 -->
<g id="edge14" class="edge"><title>Node1&#45;&gt;Node8</title>
<path fill="none" stroke="midnightblue" d="M766.578,-296.598C691.268,-289.664 545.078,-274.809 422,-254 419.283,-253.541 416.491,-253.031 413.682,-252.491"/>
<polygon fill="midnightblue" stroke="midnightblue" points="766.447,-300.101 776.724,-297.524 767.083,-293.13 766.447,-300.101"/>
</g>
<!-- Node9 -->
<g id="node17" class="node"><title>Node9</title>
<a xlink:href="uiwelldisplaymarkeredit_8h.html" target="_top" xlink:title="uiwelldisplaymarkeredit.h">
<polygon fill="white" stroke="black" points="431,-232.5 431,-253.5 557,-253.5 557,-232.5 431,-232.5"/>
<text text-anchor="middle" x="494" y="-240.5" font-family="Helvetica,sans-Serif" font-size="10.00">uiwelldisplaymarkeredit.h</text>
</a>
</g>
<!-- Node1&#45;&gt;Node9 -->
<g id="edge16" class="edge"><title>Node1&#45;&gt;Node9</title>
<path fill="none" stroke="midnightblue" d="M766.729,-291.973C708.812,-281.573 613.782,-264.509 552.571,-253.517"/>
<polygon fill="midnightblue" stroke="midnightblue" points="766.284,-295.449 776.745,-293.772 767.521,-288.559 766.284,-295.449"/>
</g>
<!-- Node10 -->
<g id="node19" class="node"><title>Node10</title>
<a xlink:href="uiattribpartserv_8h.html" target="_top" xlink:title="uiattribpartserv.h">
<polygon fill="white" stroke="black" points="574.5,-232.5 574.5,-253.5 663.5,-253.5 663.5,-232.5 574.5,-232.5"/>
<text text-anchor="middle" x="619" y="-240.5" font-family="Helvetica,sans-Serif" font-size="10.00">uiattribpartserv.h</text>
</a>
</g>
<!-- Node1&#45;&gt;Node10 -->
<g id="edge18" class="edge"><title>Node1&#45;&gt;Node10</title>
<path fill="none" stroke="midnightblue" d="M771.527,-287.68C736.117,-277.307 687.644,-263.108 654.924,-253.523"/>
<polygon fill="midnightblue" stroke="midnightblue" points="770.563,-291.044 781.144,-290.497 772.531,-284.327 770.563,-291.044"/>
</g>
<!-- Node11 -->
<g id="node21" class="node"><title>Node11</title>
<a xlink:href="uivisdatapointsetdisplaymgr_8h.html" target="_top" xlink:title="uivisdatapointsetdisplaymgr.h">
<polygon fill="white" stroke="black" points="681,-232.5 681,-253.5 827,-253.5 827,-232.5 681,-232.5"/>
<text text-anchor="middle" x="754" y="-240.5" font-family="Helvetica,sans-Serif" font-size="10.00">uivisdatapointsetdisplaymgr.h</text>
</a>
</g>
<!-- Node1&#45;&gt;Node11 -->
<g id="edge20" class="edge"><title>Node1&#45;&gt;Node11</title>
<path fill="none" stroke="midnightblue" d="M797.888,-283.405C787.312,-273.668 774.52,-261.891 765.482,-253.571"/>
<polygon fill="midnightblue" stroke="midnightblue" points="795.717,-286.164 805.445,-290.362 800.458,-281.014 795.717,-286.164"/>
</g>
<!-- Node12 -->
<g id="node23" class="node"><title>Node12</title>
<a xlink:href="uivisemobj_8h.html" target="_top" xlink:title="uivisemobj.h">
<polygon fill="white" stroke="black" points="844.5,-232.5 844.5,-253.5 915.5,-253.5 915.5,-232.5 844.5,-232.5"/>
<text text-anchor="middle" x="880" y="-240.5" font-family="Helvetica,sans-Serif" font-size="10.00">uivisemobj.h</text>
</a>
</g>
<!-- Node1&#45;&gt;Node12 -->
<g id="edge22" class="edge"><title>Node1&#45;&gt;Node12</title>
<path fill="none" stroke="midnightblue" d="M836.112,-283.405C846.688,-273.668 859.48,-261.891 868.518,-253.571"/>
<polygon fill="midnightblue" stroke="midnightblue" points="833.542,-281.014 828.555,-290.362 838.283,-286.164 833.542,-281.014"/>
</g>
<!-- Node13 -->
<g id="node25" class="node"><title>Node13</title>
<a xlink:href="uivismenuitemhandler_8h.html" target="_top" xlink:title="uivismenuitemhandler.h">
<polygon fill="white" stroke="black" points="932.5,-232.5 932.5,-253.5 1051.5,-253.5 1051.5,-232.5 932.5,-232.5"/>
<text text-anchor="middle" x="992" y="-240.5" font-family="Helvetica,sans-Serif" font-size="10.00">uivismenuitemhandler.h</text>
</a>
</g>
<!-- Node1&#45;&gt;Node13 -->
<g id="edge24" class="edge"><title>Node1&#45;&gt;Node13</title>
<path fill="none" stroke="midnightblue" d="M858.4,-287.279C889.584,-276.944 931.701,-262.985 960.249,-253.523"/>
<polygon fill="midnightblue" stroke="midnightblue" points="857.082,-284.028 848.691,-290.497 859.285,-290.673 857.082,-284.028"/>
</g>
<!-- Node14 -->
<g id="node27" class="node"><title>Node14</title>
<a xlink:href="uivispartserv_8h.html" target="_top" xlink:title="uivispartserv.h">
<polygon fill="white" stroke="black" points="1069,-232.5 1069,-253.5 1149,-253.5 1149,-232.5 1069,-232.5"/>
<text text-anchor="middle" x="1109" y="-240.5" font-family="Helvetica,sans-Serif" font-size="10.00">uivispartserv.h</text>
</a>
</g>
<!-- Node1&#45;&gt;Node14 -->
<g id="edge26" class="edge"><title>Node1&#45;&gt;Node14</title>
<path fill="none" stroke="midnightblue" d="M867.123,-291.756C916.317,-282.578 993.44,-267.905 1060,-254 1062.9,-253.394 1065.9,-252.755 1068.91,-252.102"/>
<polygon fill="midnightblue" stroke="midnightblue" points="866.253,-288.358 857.063,-293.629 867.534,-295.24 866.253,-288.358"/>
</g>
<!-- Node16 -->
<g id="node31" class="node"><title>Node16</title>
<a xlink:href="uiodtreeitem_8h.html" target="_top" xlink:title="uiodtreeitem.h">
<polygon fill="white" stroke="black" points="1167,-232.5 1167,-253.5 1245,-253.5 1245,-232.5 1167,-232.5"/>
<text text-anchor="middle" x="1206" y="-240.5" font-family="Helvetica,sans-Serif" font-size="10.00">uiodtreeitem.h</text>
</a>
</g>
<!-- Node1&#45;&gt;Node16 -->
<g id="edge30" class="edge"><title>Node1&#45;&gt;Node16</title>
<path fill="none" stroke="midnightblue" d="M867.309,-295.475C934.03,-287.825 1055.33,-272.802 1158,-254 1160.86,-253.476 1163.81,-252.898 1166.77,-252.288"/>
<polygon fill="midnightblue" stroke="midnightblue" points="866.621,-292.03 857.081,-296.638 867.413,-298.985 866.621,-292.03"/>
</g>
<!-- Node34 -->
<g id="node73" class="node"><title>Node34</title>
<a xlink:href="uiodvw2dvariabledensity_8h.html" target="_top" xlink:title="uiodvw2dvariabledensity.h">
<polygon fill="white" stroke="black" points="1262.5,-232.5 1262.5,-253.5 1393.5,-253.5 1393.5,-232.5 1262.5,-232.5"/>
<text text-anchor="middle" x="1328" y="-240.5" font-family="Helvetica,sans-Serif" font-size="10.00">uiodvw2dvariabledensity.h</text>
</a>
</g>
<!-- Node1&#45;&gt;Node34 -->
<g id="edge78" class="edge"><title>Node1&#45;&gt;Node34</title>
<path fill="none" stroke="midnightblue" d="M867.09,-296.277C948.395,-288.462 1114.1,-271.914 1254,-254 1256.71,-253.654 1259.47,-253.29 1262.25,-252.914"/>
<polygon fill="midnightblue" stroke="midnightblue" points="866.751,-292.794 857.13,-297.232 867.418,-299.762 866.751,-292.794"/>
</g>
<!-- Node35 -->
<g id="node75" class="node"><title>Node35</title>
<a xlink:href="uiodvw2dwigglevararea_8h.html" target="_top" xlink:title="uiodvw2dwigglevararea.h">
<polygon fill="white" stroke="black" points="1411,-232.5 1411,-253.5 1537,-253.5 1537,-232.5 1411,-232.5"/>
<text text-anchor="middle" x="1474" y="-240.5" font-family="Helvetica,sans-Serif" font-size="10.00">uiodvw2dwigglevararea.h</text>
</a>
</g>
<!-- Node1&#45;&gt;Node35 -->
<g id="edge80" class="edge"><title>Node1&#45;&gt;Node35</title>
<path fill="none" stroke="midnightblue" d="M867.428,-298.166C968.876,-292.196 1204.8,-276.956 1402,-254 1404.89,-253.664 1407.84,-253.299 1410.82,-252.914"/>
<polygon fill="midnightblue" stroke="midnightblue" points="866.949,-294.688 857.17,-298.765 867.357,-301.676 866.949,-294.688"/>
</g>
<!-- Node3 -->
<g id="node5" class="node"><title>Node3</title>
<a xlink:href="uiflatauxdataeditorlist_8h.html" target="_top" xlink:title="uiflatauxdataeditorlist.h">
<polygon fill="white" stroke="black" points="-0.5,-174.5 -0.5,-195.5 116.5,-195.5 116.5,-174.5 -0.5,-174.5"/>
<text text-anchor="middle" x="58" y="-182.5" font-family="Helvetica,sans-Serif" font-size="10.00">uiflatauxdataeditorlist.h</text>
</a>
</g>
<!-- Node2&#45;&gt;Node3 -->
<g id="edge4" class="edge"><title>Node2&#45;&gt;Node3</title>
<path fill="none" stroke="midnightblue" d="M112.063,-226.259C99.0978,-216.364 83.0749,-204.136 71.8512,-195.571"/>
<polygon fill="midnightblue" stroke="midnightblue" points="109.988,-229.077 120.06,-232.362 114.234,-223.513 109.988,-229.077"/>
</g>
<!-- Node5 -->
<g id="node9" class="node"><title>Node5</title>
<a xlink:href="uimultiflatviewcontrol_8h.html" target="_top" xlink:title="uimultiflatviewcontrol.h">
<polygon fill="white" stroke="black" points="134,-174.5 134,-195.5 250,-195.5 250,-174.5 134,-174.5"/>
<text text-anchor="middle" x="192" y="-182.5" font-family="Helvetica,sans-Serif" font-size="10.00">uimultiflatviewcontrol.h</text>
</a>
</g>
<!-- Node4&#45;&gt;Node5 -->
<g id="edge8" class="edge"><title>Node4&#45;&gt;Node5</title>
<path fill="none" stroke="midnightblue" d="M239.005,-225.691C227.694,-215.9 213.917,-203.973 204.211,-195.571"/>
<polygon fill="midnightblue" stroke="midnightblue" points="236.86,-228.463 246.711,-232.362 241.441,-223.171 236.86,-228.463"/>
</g>
<!-- Node6 -->
<g id="node11" class="node"><title>Node6</title>
<a xlink:href="uipsviewer2dmainwin_8h.html" target="_top" xlink:title="uipsviewer2dmainwin.h">
<polygon fill="white" stroke="black" points="268,-174.5 268,-195.5 386,-195.5 386,-174.5 268,-174.5"/>
<text text-anchor="middle" x="327" y="-182.5" font-family="Helvetica,sans-Serif" font-size="10.00">uipsviewer2dmainwin.h</text>
</a>
</g>
<!-- Node4&#45;&gt;Node6 -->
<g id="edge10" class="edge"><title>Node4&#45;&gt;Node6</title>
<path fill="none" stroke="midnightblue" d="M279.294,-225.691C290.773,-215.9 304.756,-203.973 314.607,-195.571"/>
<polygon fill="midnightblue" stroke="midnightblue" points="276.809,-223.209 271.472,-232.362 281.352,-228.535 276.809,-223.209"/>
</g>
<!-- Node7 -->
<g id="node13" class="node"><title>Node7</title>
<a xlink:href="uiwelltiecontrolview_8h.html" target="_top" xlink:title="uiwelltiecontrolview.h">
<polygon fill="white" stroke="black" points="404,-174.5 404,-195.5 514,-195.5 514,-174.5 404,-174.5"/>
<text text-anchor="middle" x="459" y="-182.5" font-family="Helvetica,sans-Serif" font-size="10.00">uiwelltiecontrolview.h</text>
</a>
</g>
<!-- Node4&#45;&gt;Node7 -->
<g id="edge12" class="edge"><title>Node4&#45;&gt;Node7</title>
<path fill="none" stroke="midnightblue" d="M304.933,-229.68C340.7,-219.307 389.663,-205.108 422.714,-195.523"/>
<polygon fill="midnightblue" stroke="midnightblue" points="303.848,-226.35 295.218,-232.497 305.798,-233.073 303.848,-226.35"/>
</g>
<!-- Node15 -->
<g id="node29" class="node"><title>Node15</title>
<a xlink:href="uiodscenemgr_8h.html" target="_top" xlink:title="uiodscenemgr.h">
<polygon fill="white" stroke="black" points="1041,-174.5 1041,-195.5 1127,-195.5 1127,-174.5 1041,-174.5"/>
<text text-anchor="middle" x="1084" y="-182.5" font-family="Helvetica,sans-Serif" font-size="10.00">uiodscenemgr.h</text>
</a>
</g>
<!-- Node14&#45;&gt;Node15 -->
<g id="edge28" class="edge"><title>Node14&#45;&gt;Node15</title>
<path fill="none" stroke="midnightblue" d="M1100.41,-223.079C1096.43,-213.842 1091.86,-203.239 1088.56,-195.571"/>
<polygon fill="midnightblue" stroke="midnightblue" points="1097.24,-224.564 1104.41,-232.362 1103.67,-221.793 1097.24,-224.564"/>
</g>
<!-- Node17 -->
<g id="node33" class="node"><title>Node17</title>
<a xlink:href="uioddisplaytreeitem_8h.html" target="_top" xlink:title="uioddisplaytreeitem.h">
<polygon fill="white" stroke="black" points="987.5,-116.5 987.5,-137.5 1096.5,-137.5 1096.5,-116.5 987.5,-116.5"/>
<text text-anchor="middle" x="1042" y="-124.5" font-family="Helvetica,sans-Serif" font-size="10.00">uioddisplaytreeitem.h</text>
</a>
</g>
<!-- Node16&#45;&gt;Node17 -->
<g id="edge32" class="edge"><title>Node16&#45;&gt;Node17</title>
<path fill="none" stroke="midnightblue" d="M1190.24,-224.516C1176.86,-209.6 1156.61,-188.743 1136,-174 1114.78,-158.82 1087.94,-145.934 1068.37,-137.515"/>
<polygon fill="midnightblue" stroke="midnightblue" points="1187.69,-226.917 1196.92,-232.116 1192.95,-222.295 1187.69,-226.917"/>
</g>
<!-- Node30 -->
<g id="node59" class="node"><title>Node30</title>
<a xlink:href="uioddatatreeitem_8h.html" target="_top" xlink:title="uioddatatreeitem.h">
<polygon fill="white" stroke="black" points="1182.5,-174.5 1182.5,-195.5 1279.5,-195.5 1279.5,-174.5 1182.5,-174.5"/>
<text text-anchor="middle" x="1231" y="-182.5" font-family="Helvetica,sans-Serif" font-size="10.00">uioddatatreeitem.h</text>
</a>
</g>
<!-- Node16&#45;&gt;Node30 -->
<g id="edge58" class="edge"><title>Node16&#45;&gt;Node30</title>
<path fill="none" stroke="midnightblue" d="M1214.59,-223.079C1218.57,-213.842 1223.14,-203.239 1226.44,-195.571"/>
<polygon fill="midnightblue" stroke="midnightblue" points="1211.33,-221.793 1210.59,-232.362 1217.76,-224.564 1211.33,-221.793"/>
</g>
<!-- Node33 -->
<g id="node71" class="node"><title>Node33</title>
<a xlink:href="uiodscenetreeitem_8h.html" target="_top" xlink:title="uiodscenetreeitem.h">
<polygon fill="white" stroke="black" points="1297,-174.5 1297,-195.5 1401,-195.5 1401,-174.5 1297,-174.5"/>
<text text-anchor="middle" x="1349" y="-182.5" font-family="Helvetica,sans-Serif" font-size="10.00">uiodscenetreeitem.h</text>
</a>
</g>
<!-- Node16&#45;&gt;Node33 -->
<g id="edge76" class="edge"><title>Node16&#45;&gt;Node33</title>
<path fill="none" stroke="midnightblue" d="M1241.47,-228.615C1266.68,-218.389 1299.99,-204.88 1322.81,-195.621"/>
<polygon fill="midnightblue" stroke="midnightblue" points="1239.85,-225.495 1231.9,-232.497 1242.48,-231.981 1239.85,-225.495"/>
</g>
<!-- Node18 -->
<g id="node35" class="node"><title>Node18</title>
<a xlink:href="uiodannottreeitem_8h.html" target="_top" xlink:title="uiodannottreeitem.h">
<polygon fill="white" stroke="black" points="812,-58.5 812,-79.5 914,-79.5 914,-58.5 812,-58.5"/>
<text text-anchor="middle" x="863" y="-66.5" font-family="Helvetica,sans-Serif" font-size="10.00">uiodannottreeitem.h</text>
</a>
</g>
<!-- Node17&#45;&gt;Node18 -->
<g id="edge34" class="edge"><title>Node17&#45;&gt;Node18</title>
<path fill="none" stroke="midnightblue" d="M1000.07,-113.413C968.13,-103.065 924.804,-89.0258 895.476,-79.5231"/>
<polygon fill="midnightblue" stroke="midnightblue" points="998.992,-116.744 1009.58,-116.497 1001.15,-110.085 998.992,-116.744"/>
</g>
<!-- Node19 -->
<g id="node37" class="node"><title>Node19</title>
<a xlink:href="uiodbodydisplaytreeitem_8h.html" target="_top" xlink:title="uiodbodydisplaytreeitem.h">
<polygon fill="white" stroke="black" points="1166,-58.5 1166,-79.5 1296,-79.5 1296,-58.5 1166,-58.5"/>
<text text-anchor="middle" x="1231" y="-66.5" font-family="Helvetica,sans-Serif" font-size="10.00">uiodbodydisplaytreeitem.h</text>
</a>
</g>
<!-- Node17&#45;&gt;Node19 -->
<g id="edge36" class="edge"><title>Node17&#45;&gt;Node19</title>
<path fill="none" stroke="midnightblue" d="M1085.84,-113.546C1119.6,-103.186 1165.61,-89.0668 1196.71,-79.5231"/>
<polygon fill="midnightblue" stroke="midnightblue" points="1084.76,-110.217 1076.23,-116.497 1086.81,-116.909 1084.76,-110.217"/>
</g>
<!-- Node20 -->
<g id="node39" class="node"><title>Node20</title>
<a xlink:href="uiodemsurftreeitem_8h.html" target="_top" xlink:title="uiodemsurftreeitem.h">
<polygon fill="white" stroke="black" points="1314,-58.5 1314,-79.5 1422,-79.5 1422,-58.5 1314,-58.5"/>
<text text-anchor="middle" x="1368" y="-66.5" font-family="Helvetica,sans-Serif" font-size="10.00">uiodemsurftreeitem.h</text>
</a>
</g>
<!-- Node17&#45;&gt;Node20 -->
<g id="edge38" class="edge"><title>Node17&#45;&gt;Node20</title>
<path fill="none" stroke="midnightblue" d="M1106.78,-115.474C1167.39,-104.692 1256.88,-88.7696 1313.8,-78.6429"/>
<polygon fill="midnightblue" stroke="midnightblue" points="1105.8,-112.095 1096.57,-117.292 1107.02,-118.986 1105.8,-112.095"/>
</g>
<!-- Node22 -->
<g id="node43" class="node"><title>Node22</title>
<a xlink:href="uiodfaulttreeitem_8h.html" target="_top" xlink:title="uiodfaulttreeitem.h">
<polygon fill="white" stroke="black" points="1439.5,-58.5 1439.5,-79.5 1536.5,-79.5 1536.5,-58.5 1439.5,-58.5"/>
<text text-anchor="middle" x="1488" y="-66.5" font-family="Helvetica,sans-Serif" font-size="10.00">uiodfaulttreeitem.h</text>
</a>
</g>
<!-- Node17&#45;&gt;Node22 -->
<g id="edge42" class="edge"><title>Node17&#45;&gt;Node22</title>
<path fill="none" stroke="midnightblue" d="M1106.68,-120.594C1184.03,-112.607 1317.32,-97.8144 1431,-80 1433.69,-79.5787 1436.44,-79.124 1439.22,-78.6474"/>
<polygon fill="midnightblue" stroke="midnightblue" points="1106.2,-117.125 1096.61,-121.628 1106.91,-124.088 1106.2,-117.125"/>
</g>
<!-- Node23 -->
<g id="node45" class="node"><title>Node23</title>
<a xlink:href="uiodpicksettreeitem_8h.html" target="_top" xlink:title="uiodpicksettreeitem.h">
<polygon fill="white" stroke="black" points="280,-58.5 280,-79.5 390,-79.5 390,-58.5 280,-58.5"/>
<text text-anchor="middle" x="335" y="-66.5" font-family="Helvetica,sans-Serif" font-size="10.00">uiodpicksettreeitem.h</text>
</a>
</g>
<!-- Node17&#45;&gt;Node23 -->
<g id="edge44" class="edge"><title>Node17&#45;&gt;Node23</title>
<path fill="none" stroke="midnightblue" d="M977.052,-124.344C860.791,-119.123 609.574,-105.73 399,-80 396.09,-79.6445 393.112,-79.2477 390.108,-78.8217"/>
<polygon fill="midnightblue" stroke="midnightblue" points="977.059,-127.847 987.205,-124.794 977.37,-120.854 977.059,-127.847"/>
</g>
<!-- Node24 -->
<g id="node47" class="node"><title>Node24</title>
<a xlink:href="uiodplanedatatreeitem_8h.html" target="_top" xlink:title="uiodplanedatatreeitem.h">
<polygon fill="white" stroke="black" points="408,-58.5 408,-79.5 528,-79.5 528,-58.5 408,-58.5"/>
<text text-anchor="middle" x="468" y="-66.5" font-family="Helvetica,sans-Serif" font-size="10.00">uiodplanedatatreeitem.h</text>
</a>
</g>
<!-- Node17&#45;&gt;Node24 -->
<g id="edge46" class="edge"><title>Node17&#45;&gt;Node24</title>
<path fill="none" stroke="midnightblue" d="M977.163,-122.327C880.91,-115.082 694.621,-99.8773 537,-80 534.112,-79.6357 531.158,-79.2431 528.178,-78.8306"/>
<polygon fill="midnightblue" stroke="midnightblue" points="977.087,-125.831 987.32,-123.087 977.609,-118.851 977.087,-125.831"/>
</g>
<!-- Node25 -->
<g id="node49" class="node"><title>Node25</title>
<a xlink:href="uiodpseventstreeitem_8h.html" target="_top" xlink:title="uiodpseventstreeitem.h">
<polygon fill="white" stroke="black" points="546,-58.5 546,-79.5 664,-79.5 664,-58.5 546,-58.5"/>
<text text-anchor="middle" x="605" y="-66.5" font-family="Helvetica,sans-Serif" font-size="10.00">uiodpseventstreeitem.h</text>
</a>
</g>
<!-- Node17&#45;&gt;Node25 -->
<g id="edge48" class="edge"><title>Node17&#45;&gt;Node25</title>
<path fill="none" stroke="midnightblue" d="M977.15,-119.41C903.385,-110.621 779.37,-95.3733 673,-80 670.159,-79.5895 667.254,-79.1592 664.32,-78.7166"/>
<polygon fill="midnightblue" stroke="midnightblue" points="976.875,-122.902 987.218,-120.607 977.701,-115.951 976.875,-122.902"/>
</g>
<!-- Node26 -->
<g id="node51" class="node"><title>Node26</title>
<a xlink:href="uiodrandlinetreeitem_8h.html" target="_top" xlink:title="uiodrandlinetreeitem.h">
<polygon fill="white" stroke="black" points="682,-58.5 682,-79.5 794,-79.5 794,-58.5 682,-58.5"/>
<text text-anchor="middle" x="738" y="-66.5" font-family="Helvetica,sans-Serif" font-size="10.00">uiodrandlinetreeitem.h</text>
</a>
</g>
<!-- Node17&#45;&gt;Node26 -->
<g id="edge50" class="edge"><title>Node17&#45;&gt;Node26</title>
<path fill="none" stroke="midnightblue" d="M977.365,-114.668C922.675,-104.234 845.14,-89.4411 793.287,-79.5482"/>
<polygon fill="midnightblue" stroke="midnightblue" points="976.821,-118.128 987.3,-116.564 978.133,-111.252 976.821,-118.128"/>
</g>
<!-- Node27 -->
<g id="node53" class="node"><title>Node27</title>
<a xlink:href="uiodseis2dtreeitem_8h.html" target="_top" xlink:title="uiodseis2dtreeitem.h">
<polygon fill="white" stroke="black" points="1553.5,-58.5 1553.5,-79.5 1660.5,-79.5 1660.5,-58.5 1553.5,-58.5"/>
<text text-anchor="middle" x="1607" y="-66.5" font-family="Helvetica,sans-Serif" font-size="10.00">uiodseis2dtreeitem.h</text>
</a>
</g>
<!-- Node17&#45;&gt;Node27 -->
<g id="edge52" class="edge"><title>Node17&#45;&gt;Node27</title>
<path fill="none" stroke="midnightblue" d="M1106.82,-121.245C1232.91,-110.004 1502.62,-85.729 1545,-80 1547.71,-79.6338 1550.48,-79.2343 1553.27,-78.8114"/>
<polygon fill="midnightblue" stroke="midnightblue" points="1106.18,-117.788 1096.53,-122.161 1106.8,-124.76 1106.18,-117.788"/>
</g>
<!-- Node28 -->
<g id="node55" class="node"><title>Node28</title>
<a xlink:href="uiodvolrentreeitem_8h.html" target="_top" xlink:title="uiodvolrentreeitem.h">
<polygon fill="white" stroke="black" points="932,-58.5 932,-79.5 1036,-79.5 1036,-58.5 932,-58.5"/>
<text text-anchor="middle" x="984" y="-66.5" font-family="Helvetica,sans-Serif" font-size="10.00">uiodvolrentreeitem.h</text>
</a>
</g>
<!-- Node17&#45;&gt;Node28 -->
<g id="edge54" class="edge"><title>Node17&#45;&gt;Node28</title>
<path fill="none" stroke="midnightblue" d="M1024.12,-109.118C1014.44,-99.4377 1002.81,-87.8098 994.571,-79.5707"/>
<polygon fill="midnightblue" stroke="midnightblue" points="1021.82,-111.766 1031.36,-116.362 1026.77,-106.816 1021.82,-111.766"/>
</g>
<!-- Node29 -->
<g id="node57" class="node"><title>Node29</title>
<a xlink:href="uiodwelltreeitem_8h.html" target="_top" xlink:title="uiodwelltreeitem.h">
<polygon fill="white" stroke="black" points="1053.5,-58.5 1053.5,-79.5 1148.5,-79.5 1148.5,-58.5 1053.5,-58.5"/>
<text text-anchor="middle" x="1101" y="-66.5" font-family="Helvetica,sans-Serif" font-size="10.00">uiodwelltreeitem.h</text>
</a>
</g>
<!-- Node17&#45;&gt;Node29 -->
<g id="edge56" class="edge"><title>Node17&#45;&gt;Node29</title>
<path fill="none" stroke="midnightblue" d="M1060.19,-109.118C1070.04,-99.4377 1081.87,-87.8098 1090.25,-79.5707"/>
<polygon fill="midnightblue" stroke="midnightblue" points="1057.5,-106.856 1052.82,-116.362 1062.41,-111.847 1057.5,-106.856"/>
</g>
<!-- Node21 -->
<g id="node41" class="node"><title>Node21</title>
<a xlink:href="uiodhortreeitem_8h.html" target="_top" xlink:title="uiodhortreeitem.h">
<polygon fill="white" stroke="black" points="1322,-0.5 1322,-21.5 1414,-21.5 1414,-0.5 1322,-0.5"/>
<text text-anchor="middle" x="1368" y="-8.5" font-family="Helvetica,sans-Serif" font-size="10.00">uiodhortreeitem.h</text>
</a>
</g>
<!-- Node20&#45;&gt;Node21 -->
<g id="edge40" class="edge"><title>Node20&#45;&gt;Node21</title>
<path fill="none" stroke="midnightblue" d="M1368,-48.1906C1368,-39.1684 1368,-28.9941 1368,-21.5707"/>
<polygon fill="midnightblue" stroke="midnightblue" points="1364.5,-48.3619 1368,-58.3619 1371.5,-48.3619 1364.5,-48.3619"/>
</g>
<!-- Node31 -->
<g id="node61" class="node"><title>Node31</title>
<a xlink:href="uiodattribtreeitem_8h.html" target="_top" xlink:title="uiodattribtreeitem.h">
<polygon fill="white" stroke="black" points="1181,-116.5 1181,-137.5 1281,-137.5 1281,-116.5 1181,-116.5"/>
<text text-anchor="middle" x="1231" y="-124.5" font-family="Helvetica,sans-Serif" font-size="10.00">uiodattribtreeitem.h</text>
</a>
</g>
<!-- Node30&#45;&gt;Node31 -->
<g id="edge60" class="edge"><title>Node30&#45;&gt;Node31</title>
<path fill="none" stroke="midnightblue" d="M1231,-164.191C1231,-155.168 1231,-144.994 1231,-137.571"/>
<polygon fill="midnightblue" stroke="midnightblue" points="1227.5,-164.362 1231,-174.362 1234.5,-164.362 1227.5,-164.362"/>
</g>
<!-- Node32 -->
<g id="node69" class="node"><title>Node32</title>
<a xlink:href="uiodvolproctreeitem_8h.html" target="_top" xlink:title="uiodvolproctreeitem.h">
<polygon fill="white" stroke="black" points="1299,-116.5 1299,-137.5 1409,-137.5 1409,-116.5 1299,-116.5"/>
<text text-anchor="middle" x="1354" y="-124.5" font-family="Helvetica,sans-Serif" font-size="10.00">uiodvolproctreeitem.h</text>
</a>
</g>
<!-- Node30&#45;&gt;Node32 -->
<g id="edge74" class="edge"><title>Node30&#45;&gt;Node32</title>
<path fill="none" stroke="midnightblue" d="M1262.37,-170.206C1283.95,-160.031 1312.1,-146.757 1331.48,-137.621"/>
<polygon fill="midnightblue" stroke="midnightblue" points="1260.83,-167.066 1253.27,-174.497 1263.81,-173.397 1260.83,-167.066"/>
</g>
<!-- Node31&#45;&gt;Node19 -->
<g id="edge62" class="edge"><title>Node31&#45;&gt;Node19</title>
<path fill="none" stroke="midnightblue" d="M1231,-106.191C1231,-97.1684 1231,-86.9941 1231,-79.5707"/>
<polygon fill="midnightblue" stroke="midnightblue" points="1227.5,-106.362 1231,-116.362 1234.5,-106.362 1227.5,-106.362"/>
</g>
<!-- Node31&#45;&gt;Node20 -->
<g id="edge64" class="edge"><title>Node31&#45;&gt;Node20</title>
<path fill="none" stroke="midnightblue" d="M1265.3,-112.479C1289.42,-102.269 1321.14,-88.8386 1342.91,-79.6212"/>
<polygon fill="midnightblue" stroke="midnightblue" points="1263.65,-109.375 1255.81,-116.497 1266.38,-115.821 1263.65,-109.375"/>
</g>
<!-- Node31&#45;&gt;Node22 -->
<g id="edge66" class="edge"><title>Node31&#45;&gt;Node22</title>
<path fill="none" stroke="midnightblue" d="M1287.39,-114.274C1333.56,-103.855 1398.09,-89.2921 1441.37,-79.5231"/>
<polygon fill="midnightblue" stroke="midnightblue" points="1286.52,-110.881 1277.54,-116.497 1288.07,-117.709 1286.52,-110.881"/>
</g>
<!-- Node31&#45;&gt;Node27 -->
<g id="edge68" class="edge"><title>Node31&#45;&gt;Node27</title>
<path fill="none" stroke="midnightblue" d="M1291.31,-115.838C1404.66,-97.5196 1435.17,-97.4904 1545,-80 1547.7,-79.5702 1550.46,-79.1194 1553.25,-78.6559"/>
<polygon fill="midnightblue" stroke="midnightblue" points="1290.49,-112.426 1281.19,-117.488 1291.62,-119.335 1290.49,-112.426"/>
</g>
<!-- Node31&#45;&gt;Node28 -->
<g id="edge70" class="edge"><title>Node31&#45;&gt;Node28</title>
<path fill="none" stroke="midnightblue" d="M1176.52,-114.208C1132.17,-103.794 1070.33,-89.2716 1028.81,-79.5231"/>
<polygon fill="midnightblue" stroke="midnightblue" points="1175.73,-117.618 1186.27,-116.497 1177.34,-110.803 1175.73,-117.618"/>
</g>
<!-- Node31&#45;&gt;Node29 -->
<g id="edge72" class="edge"><title>Node31&#45;&gt;Node29</title>
<path fill="none" stroke="midnightblue" d="M1198.15,-112.343C1175.3,-102.15 1145.37,-88.7977 1124.81,-79.6212"/>
<polygon fill="midnightblue" stroke="midnightblue" points="1196.9,-115.618 1207.46,-116.497 1199.75,-109.226 1196.9,-115.618"/>
</g>
</g>
</svg>
