<?xml version="1.0" encoding="UTF-8" standalone="no"?>
<!DOCTYPE svg PUBLIC "-//W3C//DTD SVG 1.1//EN"
 "http://www.w3.org/Graphics/SVG/1.1/DTD/svg11.dtd">
<!-- Generated by graphviz version 2.26.0 (20091210.2329)
 -->
<!-- Title: mmassetmgr.h Pages: 1 -->
<svg width="854pt" height="784pt"
 viewBox="0.00 0.00 854.00 784.00" xmlns="http://www.w3.org/2000/svg" xmlns:xlink="http://www.w3.org/1999/xlink">
<g id="graph1" class="graph" transform="scale(1 1) rotate(0) translate(4 780)">
<title>mmassetmgr.h</title>
<polygon fill="white" stroke="white" points="-4,5 -4,-780 851,-780 851,5 -4,5"/>
<!-- Node1 -->
<g id="node1" class="node"><title>Node1</title>
<polygon fill="#bfbfbf" stroke="black" points="699,-754.5 699,-775.5 781,-775.5 781,-754.5 699,-754.5"/>
<text text-anchor="middle" x="740" y="-762.5" font-family="Helvetica,sans-Serif" font-size="10.00">mmassetmgr.h</text>
</g>
<!-- Node2 -->
<g id="node3" class="node"><title>Node2</title>
<polygon fill="white" stroke="#bfbfbf" points="610.5,-696.5 610.5,-717.5 689.5,-717.5 689.5,-696.5 610.5,-696.5"/>
<text text-anchor="middle" x="650" y="-704.5" font-family="Helvetica,sans-Serif" font-size="10.00">mmprocmod.h</text>
</g>
<!-- Node1&#45;&gt;Node2 -->
<g id="edge2" class="edge"><title>Node1&#45;&gt;Node2</title>
<path fill="none" stroke="midnightblue" d="M723.493,-754.362C709.918,-745.614 690.467,-733.079 674.985,-723.101"/>
<polygon fill="midnightblue" stroke="midnightblue" points="676.704,-720.046 666.403,-717.571 672.912,-725.93 676.704,-720.046"/>
</g>
<!-- Node3 -->
<g id="node5" class="node"><title>Node3</title>
<a xlink:href="namedobj_8h.html" target="_top" xlink:title="namedobj.h">
<polygon fill="white" stroke="black" points="706.5,-696.5 706.5,-717.5 773.5,-717.5 773.5,-696.5 706.5,-696.5"/>
<text text-anchor="middle" x="740" y="-704.5" font-family="Helvetica,sans-Serif" font-size="10.00">namedobj.h</text>
</a>
</g>
<!-- Node1&#45;&gt;Node3 -->
<g id="edge4" class="edge"><title>Node1&#45;&gt;Node3</title>
<path fill="none" stroke="midnightblue" d="M740,-754.362C740,-746.922 740,-736.743 740,-727.728"/>
<polygon fill="midnightblue" stroke="midnightblue" points="743.5,-727.571 740,-717.571 736.5,-727.571 743.5,-727.571"/>
</g>
<!-- Node24 -->
<g id="node58" class="node"><title>Node24</title>
<a xlink:href="bufstring_8h.html" target="_top" xlink:title="bufstring.h">
<polygon fill="white" stroke="black" points="701,-348.5 701,-369.5 763,-369.5 763,-348.5 701,-348.5"/>
<text text-anchor="middle" x="732" y="-356.5" font-family="Helvetica,sans-Serif" font-size="10.00">bufstring.h</text>
</a>
</g>
<!-- Node1&#45;&gt;Node24 -->
<g id="edge122" class="edge"><title>Node1&#45;&gt;Node24</title>
<path fill="none" stroke="midnightblue" d="M751.535,-754.388C770.936,-735.321 808,-693.12 808,-649 808,-649 808,-649 808,-475 808,-434.51 775.203,-397.158 752.698,-376.295"/>
<polygon fill="midnightblue" stroke="midnightblue" points="755.026,-373.681 745.238,-369.625 750.36,-378.899 755.026,-373.681"/>
</g>
<!-- Node4 -->
<g id="node7" class="node"><title>Node4</title>
<polygon fill="white" stroke="#bfbfbf" points="482.5,-0.5 482.5,-21.5 549.5,-21.5 549.5,-0.5 482.5,-0.5"/>
<text text-anchor="middle" x="516" y="-8.5" font-family="Helvetica,sans-Serif" font-size="10.00">basicmod.h</text>
</g>
<!-- Node3&#45;&gt;Node4 -->
<g id="edge6" class="edge"><title>Node3&#45;&gt;Node4</title>
<path fill="none" stroke="midnightblue" d="M749.038,-696.227C774.671,-664.535 846,-567.994 846,-475 846,-475 846,-475 846,-127 846,-86.6509 822.065,-77.9626 787,-58 748.989,-36.3599 626.598,-21.6227 560.061,-14.9908"/>
<polygon fill="midnightblue" stroke="midnightblue" points="560.176,-11.4855 549.883,-13.9962 559.496,-18.4523 560.176,-11.4855"/>
</g>
<!-- Node5 -->
<g id="node9" class="node"><title>Node5</title>
<a xlink:href="callback_8h.html" target="_top" xlink:title="callback.h">
<polygon fill="white" stroke="black" points="303.5,-638.5 303.5,-659.5 364.5,-659.5 364.5,-638.5 303.5,-638.5"/>
<text text-anchor="middle" x="334" y="-646.5" font-family="Helvetica,sans-Serif" font-size="10.00">callback.h</text>
</a>
</g>
<!-- Node3&#45;&gt;Node5 -->
<g id="edge8" class="edge"><title>Node3&#45;&gt;Node5</title>
<path fill="none" stroke="midnightblue" d="M706.159,-697.74C703.409,-697.109 700.664,-696.519 698,-696 581.934,-673.404 442.868,-658.87 375.136,-652.584"/>
<polygon fill="midnightblue" stroke="midnightblue" points="375.17,-649.072 364.893,-651.646 374.532,-656.043 375.17,-649.072"/>
</g>
<!-- Node3&#45;&gt;Node24 -->
<g id="edge120" class="edge"><title>Node3&#45;&gt;Node24</title>
<path fill="none" stroke="midnightblue" d="M738.785,-696.461C736.547,-676.107 732,-629.96 732,-591 732,-591 732,-591 732,-475 732,-441.598 732,-402.785 732,-379.594"/>
<polygon fill="midnightblue" stroke="midnightblue" points="735.5,-379.556 732,-369.556 728.5,-379.556 735.5,-379.556"/>
</g>
<!-- Node5&#45;&gt;Node4 -->
<g id="edge10" class="edge"><title>Node5&#45;&gt;Node4</title>
<path fill="none" stroke="midnightblue" d="M364.874,-643.874C416.799,-633.295 516,-603.817 516,-533 516,-533 516,-533 516,-127 516,-93.5978 516,-54.7853 516,-31.5939"/>
<polygon fill="midnightblue" stroke="midnightblue" points="519.5,-31.5561 516,-21.5561 512.5,-31.5561 519.5,-31.5561"/>
</g>
<!-- Node6 -->
<g id="node12" class="node"><title>Node6</title>
<a xlink:href="refcount_8h.html" target="_top" xlink:title="refcount.h">
<polygon fill="white" stroke="black" points="246,-580.5 246,-601.5 306,-601.5 306,-580.5 246,-580.5"/>
<text text-anchor="middle" x="276" y="-588.5" font-family="Helvetica,sans-Serif" font-size="10.00">refcount.h</text>
</a>
</g>
<!-- Node5&#45;&gt;Node6 -->
<g id="edge12" class="edge"><title>Node5&#45;&gt;Node6</title>
<path fill="none" stroke="midnightblue" d="M323.362,-638.362C315.104,-630.104 303.472,-618.472 293.803,-608.803"/>
<polygon fill="midnightblue" stroke="midnightblue" points="296.117,-606.167 286.571,-601.571 291.167,-611.117 296.117,-606.167"/>
</g>
<!-- Node32 -->
<g id="node83" class="node"><title>Node32</title>
<a xlink:href="sets_8h.html" target="_top" xlink:title="sets.h">
<polygon fill="white" stroke="black" points="184,-580.5 184,-601.5 228,-601.5 228,-580.5 184,-580.5"/>
<text text-anchor="middle" x="206" y="-588.5" font-family="Helvetica,sans-Serif" font-size="10.00">sets.h</text>
</a>
</g>
<!-- Node5&#45;&gt;Node32 -->
<g id="edge102" class="edge"><title>Node5&#45;&gt;Node32</title>
<path fill="none" stroke="midnightblue" d="M310.82,-638.497C290.27,-629.185 260.082,-615.506 237.375,-605.217"/>
<polygon fill="midnightblue" stroke="midnightblue" points="238.704,-601.977 228.151,-601.037 235.815,-608.352 238.704,-601.977"/>
</g>
<!-- Node34 -->
<g id="node90" class="node"><title>Node34</title>
<a xlink:href="threadlock_8h.html" target="_top" xlink:title="threadlock.h">
<polygon fill="white" stroke="black" points="284,-116.5 284,-137.5 354,-137.5 354,-116.5 284,-116.5"/>
<text text-anchor="middle" x="319" y="-124.5" font-family="Helvetica,sans-Serif" font-size="10.00">threadlock.h</text>
</a>
</g>
<!-- Node5&#45;&gt;Node34 -->
<g id="edge112" class="edge"><title>Node5&#45;&gt;Node34</title>
<path fill="none" stroke="midnightblue" d="M334,-638.444C334,-618.062 334,-571.868 334,-533 334,-533 334,-533 334,-243 334,-209.494 327.769,-170.991 323.339,-147.851"/>
<polygon fill="midnightblue" stroke="midnightblue" points="326.726,-146.94 321.344,-137.815 319.861,-148.305 326.726,-146.94"/>
</g>
<!-- Node7 -->
<g id="node14" class="node"><title>Node7</title>
<a xlink:href="atomic_8h.html" target="_top" xlink:title="atomic.h">
<polygon fill="white" stroke="black" points="372,-116.5 372,-137.5 426,-137.5 426,-116.5 372,-116.5"/>
<text text-anchor="middle" x="399" y="-124.5" font-family="Helvetica,sans-Serif" font-size="10.00">atomic.h</text>
</a>
</g>
<!-- Node6&#45;&gt;Node7 -->
<g id="edge14" class="edge"><title>Node6&#45;&gt;Node7</title>
<path fill="none" stroke="midnightblue" d="M306.08,-584.274C353.426,-571.71 440,-539.867 440,-475 440,-475 440,-475 440,-243 440,-207.462 422.682,-169.12 410.556,-146.63"/>
<polygon fill="midnightblue" stroke="midnightblue" points="413.524,-144.766 405.587,-137.747 407.415,-148.183 413.524,-144.766"/>
</g>
<!-- Node15 -->
<g id="node33" class="node"><title>Node15</title>
<a xlink:href="objectset_8h.html" target="_top" xlink:title="objectset.h">
<polygon fill="white" stroke="black" points="178.5,-522.5 178.5,-543.5 243.5,-543.5 243.5,-522.5 178.5,-522.5"/>
<text text-anchor="middle" x="211" y="-530.5" font-family="Helvetica,sans-Serif" font-size="10.00">objectset.h</text>
</a>
</g>
<!-- Node6&#45;&gt;Node15 -->
<g id="edge36" class="edge"><title>Node6&#45;&gt;Node15</title>
<path fill="none" stroke="midnightblue" d="M264.078,-580.362C254.641,-571.941 241.27,-560.011 230.31,-550.231"/>
<polygon fill="midnightblue" stroke="midnightblue" points="232.638,-547.617 222.846,-543.571 227.978,-552.84 232.638,-547.617"/>
</g>
<!-- Node7&#45;&gt;Node4 -->
<g id="edge16" class="edge"><title>Node7&#45;&gt;Node4</title>
<path fill="none" stroke="midnightblue" d="M408.438,-116.465C420.867,-102.714 443.544,-78.0388 464,-58 474.323,-47.8878 486.258,-37.0439 496.088,-28.323"/>
<polygon fill="midnightblue" stroke="midnightblue" points="498.577,-30.795 503.769,-21.5595 493.951,-25.5415 498.577,-30.795"/>
</g>
<!-- Node8 -->
<g id="node17" class="node"><title>Node8</title>
<a xlink:href="commondefs_8h.html" target="_top" xlink:title="commondefs.h">
<polygon fill="white" stroke="black" points="95.5,-58.5 95.5,-79.5 176.5,-79.5 176.5,-58.5 95.5,-58.5"/>
<text text-anchor="middle" x="136" y="-66.5" font-family="Helvetica,sans-Serif" font-size="10.00">commondefs.h</text>
</a>
</g>
<!-- Node7&#45;&gt;Node8 -->
<g id="edge18" class="edge"><title>Node7&#45;&gt;Node8</title>
<path fill="none" stroke="midnightblue" d="M371.949,-118.441C368.941,-117.577 365.912,-116.745 363,-116 303.007,-100.659 233.129,-86.7804 186.919,-78.1484"/>
<polygon fill="midnightblue" stroke="midnightblue" points="187.326,-74.6642 176.856,-76.2815 186.049,-81.5468 187.326,-74.6642"/>
</g>
<!-- Node12 -->
<g id="node26" class="node"><title>Node12</title>
<a xlink:href="plftypes_8h.html" target="_top" xlink:title="plftypes.h">
<polygon fill="white" stroke="black" points="231.5,-58.5 231.5,-79.5 290.5,-79.5 290.5,-58.5 231.5,-58.5"/>
<text text-anchor="middle" x="261" y="-66.5" font-family="Helvetica,sans-Serif" font-size="10.00">plftypes.h</text>
</a>
</g>
<!-- Node7&#45;&gt;Node12 -->
<g id="edge28" class="edge"><title>Node7&#45;&gt;Node12</title>
<path fill="none" stroke="midnightblue" d="M374.009,-116.497C352.067,-107.275 319.934,-93.7695 295.536,-83.5153"/>
<polygon fill="midnightblue" stroke="midnightblue" points="296.846,-80.2693 286.271,-79.6212 294.134,-86.7225 296.846,-80.2693"/>
</g>
<!-- Node14 -->
<g id="node31" class="node"><title>Node14</title>
<polygon fill="white" stroke="#bfbfbf" points="345.5,-58.5 345.5,-79.5 412.5,-79.5 412.5,-58.5 345.5,-58.5"/>
<text text-anchor="middle" x="379" y="-66.5" font-family="Helvetica,sans-Serif" font-size="10.00">odversion.h</text>
</g>
<!-- Node7&#45;&gt;Node14 -->
<g id="edge34" class="edge"><title>Node7&#45;&gt;Node14</title>
<path fill="none" stroke="midnightblue" d="M395.332,-116.362C392.71,-108.758 389.101,-98.294 385.943,-89.1349"/>
<polygon fill="midnightblue" stroke="midnightblue" points="389.214,-87.8834 382.645,-79.5707 382.596,-90.1654 389.214,-87.8834"/>
</g>
<!-- Node8&#45;&gt;Node4 -->
<g id="edge20" class="edge"><title>Node8&#45;&gt;Node4</title>
<path fill="none" stroke="midnightblue" d="M176.643,-60.4591C181.143,-59.5915 185.664,-58.7536 190,-58 290.597,-40.5175 409.462,-24.5573 472.17,-16.5012"/>
<polygon fill="midnightblue" stroke="midnightblue" points="472.633,-19.9706 482.108,-15.2303 471.745,-13.0271 472.633,-19.9706"/>
</g>
<!-- Node9 -->
<g id="node20" class="node"><title>Node9</title>
<a xlink:href="plfdefs_8h.html" target="_top" xlink:title="plfdefs.h">
<polygon fill="white" stroke="black" points="168,-0.5 168,-21.5 222,-21.5 222,-0.5 168,-0.5"/>
<text text-anchor="middle" x="195" y="-8.5" font-family="Helvetica,sans-Serif" font-size="10.00">plfdefs.h</text>
</a>
</g>
<!-- Node8&#45;&gt;Node9 -->
<g id="edge22" class="edge"><title>Node8&#45;&gt;Node9</title>
<path fill="none" stroke="midnightblue" d="M146.822,-58.3619C155.221,-50.1043 167.054,-38.4725 176.89,-28.8029"/>
<polygon fill="midnightblue" stroke="midnightblue" points="179.569,-31.077 184.247,-21.5707 174.662,-26.0851 179.569,-31.077"/>
</g>
<!-- Node10 -->
<g id="node22" class="node"><title>Node10</title>
<polygon fill="white" stroke="#bfbfbf" points="3.5,-0.5 3.5,-21.5 62.5,-21.5 62.5,-0.5 3.5,-0.5"/>
<text text-anchor="middle" x="33" y="-8.5" font-family="Helvetica,sans-Serif" font-size="10.00">stdexcept</text>
</g>
<!-- Node8&#45;&gt;Node10 -->
<g id="edge24" class="edge"><title>Node8&#45;&gt;Node10</title>
<path fill="none" stroke="midnightblue" d="M117.108,-58.3619C101.282,-49.4502 78.4774,-36.6087 60.6053,-26.5447"/>
<polygon fill="midnightblue" stroke="midnightblue" points="62.2029,-23.4276 51.772,-21.5707 58.7682,-29.5271 62.2029,-23.4276"/>
</g>
<!-- Node11 -->
<g id="node24" class="node"><title>Node11</title>
<polygon fill="white" stroke="#bfbfbf" points="115.5,-0.5 115.5,-21.5 150.5,-21.5 150.5,-0.5 115.5,-0.5"/>
<text text-anchor="middle" x="133" y="-8.5" font-family="Helvetica,sans-Serif" font-size="10.00">new</text>
</g>
<!-- Node8&#45;&gt;Node11 -->
<g id="edge26" class="edge"><title>Node8&#45;&gt;Node11</title>
<path fill="none" stroke="midnightblue" d="M135.45,-58.3619C135.065,-50.9219 134.538,-40.7427 134.072,-31.7276"/>
<polygon fill="midnightblue" stroke="midnightblue" points="137.559,-31.3765 133.547,-21.5707 130.568,-31.7381 137.559,-31.3765"/>
</g>
<!-- Node12&#45;&gt;Node9 -->
<g id="edge30" class="edge"><title>Node12&#45;&gt;Node9</title>
<path fill="none" stroke="midnightblue" d="M248.895,-58.3619C239.312,-49.9408 225.736,-38.0105 214.607,-28.2308"/>
<polygon fill="midnightblue" stroke="midnightblue" points="216.851,-25.5427 207.029,-21.5707 212.23,-30.8009 216.851,-25.5427"/>
</g>
<!-- Node13 -->
<g id="node29" class="node"><title>Node13</title>
<polygon fill="white" stroke="#bfbfbf" points="239.5,-0.5 239.5,-21.5 288.5,-21.5 288.5,-0.5 239.5,-0.5"/>
<text text-anchor="middle" x="264" y="-8.5" font-family="Helvetica,sans-Serif" font-size="10.00">stdint.h</text>
</g>
<!-- Node12&#45;&gt;Node13 -->
<g id="edge32" class="edge"><title>Node12&#45;&gt;Node13</title>
<path fill="none" stroke="midnightblue" d="M261.55,-58.3619C261.935,-50.9219 262.462,-40.7427 262.928,-31.7276"/>
<polygon fill="midnightblue" stroke="midnightblue" points="266.432,-31.7381 263.453,-21.5707 259.441,-31.3765 266.432,-31.7381"/>
</g>
<!-- Node16 -->
<g id="node35" class="node"><title>Node16</title>
<a xlink:href="odset_8h.html" target="_top" xlink:title="odset.h">
<polygon fill="white" stroke="black" points="103.5,-464.5 103.5,-485.5 152.5,-485.5 152.5,-464.5 103.5,-464.5"/>
<text text-anchor="middle" x="128" y="-472.5" font-family="Helvetica,sans-Serif" font-size="10.00">odset.h</text>
</a>
</g>
<!-- Node15&#45;&gt;Node16 -->
<g id="edge38" class="edge"><title>Node15&#45;&gt;Node16</title>
<path fill="none" stroke="midnightblue" d="M195.777,-522.362C183.375,-513.696 165.654,-501.313 151.443,-491.382"/>
<polygon fill="midnightblue" stroke="midnightblue" points="153.329,-488.43 143.127,-485.571 149.319,-494.168 153.329,-488.43"/>
</g>
<!-- Node22 -->
<g id="node52" class="node"><title>Node22</title>
<a xlink:href="vectoraccess_8h.html" target="_top" xlink:title="vectoraccess.h">
<polygon fill="white" stroke="black" points="169.5,-464.5 169.5,-485.5 252.5,-485.5 252.5,-464.5 169.5,-464.5"/>
<text text-anchor="middle" x="211" y="-472.5" font-family="Helvetica,sans-Serif" font-size="10.00">vectoraccess.h</text>
</a>
</g>
<!-- Node15&#45;&gt;Node22 -->
<g id="edge60" class="edge"><title>Node15&#45;&gt;Node22</title>
<path fill="none" stroke="midnightblue" d="M211,-522.362C211,-514.922 211,-504.743 211,-495.728"/>
<polygon fill="midnightblue" stroke="midnightblue" points="214.5,-495.571 211,-485.571 207.5,-495.571 214.5,-495.571"/>
</g>
<!-- Node17 -->
<g id="node37" class="node"><title>Node17</title>
<a xlink:href="gendefs_8h.html" target="_top" xlink:title="gendefs.h">
<polygon fill="white" stroke="black" points="125.5,-174.5 125.5,-195.5 184.5,-195.5 184.5,-174.5 125.5,-174.5"/>
<text text-anchor="middle" x="155" y="-182.5" font-family="Helvetica,sans-Serif" font-size="10.00">gendefs.h</text>
</a>
</g>
<!-- Node16&#45;&gt;Node17 -->
<g id="edge40" class="edge"><title>Node16&#45;&gt;Node17</title>
<path fill="none" stroke="midnightblue" d="M111.493,-464.358C85.5104,-446.163 38,-406.411 38,-359 38,-359 38,-359 38,-301 38,-253.546 87.1373,-218.88 121.724,-200.358"/>
<polygon fill="midnightblue" stroke="midnightblue" points="123.75,-203.251 131.041,-195.564 120.548,-197.027 123.75,-203.251"/>
</g>
<!-- Node18 -->
<g id="node39" class="node"><title>Node18</title>
<a xlink:href="undefval_8h.html" target="_top" xlink:title="undefval.h">
<polygon fill="white" stroke="black" points="204,-116.5 204,-137.5 266,-137.5 266,-116.5 204,-116.5"/>
<text text-anchor="middle" x="235" y="-124.5" font-family="Helvetica,sans-Serif" font-size="10.00">undefval.h</text>
</a>
</g>
<!-- Node17&#45;&gt;Node18 -->
<g id="edge42" class="edge"><title>Node17&#45;&gt;Node18</title>
<path fill="none" stroke="midnightblue" d="M169.673,-174.362C181.514,-165.777 198.385,-153.546 212.016,-143.664"/>
<polygon fill="midnightblue" stroke="midnightblue" points="214.378,-146.274 220.42,-137.571 210.269,-140.607 214.378,-146.274"/>
</g>
<!-- Node19 -->
<g id="node44" class="node"><title>Node19</title>
<a xlink:href="commontypes_8h.html" target="_top" xlink:title="commontypes.h">
<polygon fill="white" stroke="black" points="100,-116.5 100,-137.5 186,-137.5 186,-116.5 100,-116.5"/>
<text text-anchor="middle" x="143" y="-124.5" font-family="Helvetica,sans-Serif" font-size="10.00">commontypes.h</text>
</a>
</g>
<!-- Node17&#45;&gt;Node19 -->
<g id="edge50" class="edge"><title>Node17&#45;&gt;Node19</title>
<path fill="none" stroke="midnightblue" d="M152.799,-174.362C151.243,-166.84 149.107,-156.519 147.227,-147.431"/>
<polygon fill="midnightblue" stroke="midnightblue" points="150.641,-146.654 145.187,-137.571 143.786,-148.072 150.641,-146.654"/>
</g>
<!-- Node20 -->
<g id="node47" class="node"><title>Node20</title>
<a xlink:href="errmsg_8h.html" target="_top" xlink:title="errmsg.h">
<polygon fill="white" stroke="black" points="27.5,-116.5 27.5,-137.5 82.5,-137.5 82.5,-116.5 27.5,-116.5"/>
<text text-anchor="middle" x="55" y="-124.5" font-family="Helvetica,sans-Serif" font-size="10.00">errmsg.h</text>
</a>
</g>
<!-- Node17&#45;&gt;Node20 -->
<g id="edge54" class="edge"><title>Node17&#45;&gt;Node20</title>
<path fill="none" stroke="midnightblue" d="M136.658,-174.362C121.434,-165.532 99.5585,-152.844 82.28,-142.822"/>
<polygon fill="midnightblue" stroke="midnightblue" points="83.6316,-139.56 73.2253,-137.571 80.1196,-145.615 83.6316,-139.56"/>
</g>
<!-- Node18&#45;&gt;Node4 -->
<g id="edge44" class="edge"><title>Node18&#45;&gt;Node4</title>
<path fill="none" stroke="midnightblue" d="M228.427,-116.274C220.246,-101.396 208.96,-74.4713 223,-58 238.992,-39.2384 394.865,-22.2579 472.506,-14.8834"/>
<polygon fill="midnightblue" stroke="midnightblue" points="472.842,-18.3674 482.471,-13.9489 472.188,-11.398 472.842,-18.3674"/>
</g>
<!-- Node18&#45;&gt;Node8 -->
<g id="edge46" class="edge"><title>Node18&#45;&gt;Node8</title>
<path fill="none" stroke="midnightblue" d="M216.842,-116.362C201.77,-107.532 180.113,-94.844 163.007,-84.8224"/>
<polygon fill="midnightblue" stroke="midnightblue" points="164.441,-81.6058 154.043,-79.5707 160.902,-87.6456 164.441,-81.6058"/>
</g>
<!-- Node18&#45;&gt;Node12 -->
<g id="edge48" class="edge"><title>Node18&#45;&gt;Node12</title>
<path fill="none" stroke="midnightblue" d="M239.769,-116.362C243.214,-108.677 247.969,-98.0686 252.106,-88.8399"/>
<polygon fill="midnightblue" stroke="midnightblue" points="255.365,-90.1275 256.261,-79.5707 248.977,-87.264 255.365,-90.1275"/>
</g>
<!-- Node19&#45;&gt;Node8 -->
<g id="edge52" class="edge"><title>Node19&#45;&gt;Node8</title>
<path fill="none" stroke="midnightblue" d="M141.716,-116.362C140.818,-108.922 139.59,-98.7427 138.502,-89.7276"/>
<polygon fill="midnightblue" stroke="midnightblue" points="141.949,-89.0792 137.276,-79.5707 134.999,-89.918 141.949,-89.0792"/>
</g>
<!-- Node20&#45;&gt;Node8 -->
<g id="edge56" class="edge"><title>Node20&#45;&gt;Node8</title>
<path fill="none" stroke="midnightblue" d="M69.8566,-116.362C81.8455,-107.777 98.9273,-95.5459 112.728,-85.6636"/>
<polygon fill="midnightblue" stroke="midnightblue" points="115.145,-88.2383 121.238,-79.5707 111.069,-82.5469 115.145,-88.2383"/>
</g>
<!-- Node21 -->
<g id="node50" class="node"><title>Node21</title>
<polygon fill="white" stroke="#bfbfbf" points="27.5,-58.5 27.5,-79.5 78.5,-79.5 78.5,-58.5 27.5,-58.5"/>
<text text-anchor="middle" x="53" y="-66.5" font-family="Helvetica,sans-Serif" font-size="10.00">typeinfo</text>
</g>
<!-- Node20&#45;&gt;Node21 -->
<g id="edge58" class="edge"><title>Node20&#45;&gt;Node21</title>
<path fill="none" stroke="midnightblue" d="M54.6332,-116.362C54.3766,-108.922 54.0256,-98.7427 53.7147,-89.7276"/>
<polygon fill="midnightblue" stroke="midnightblue" points="57.2071,-89.4441 53.3645,-79.5707 50.2113,-89.6854 57.2071,-89.4441"/>
</g>
<!-- Node22&#45;&gt;Node10 -->
<g id="edge100" class="edge"><title>Node22&#45;&gt;Node10</title>
<path fill="none" stroke="midnightblue" d="M176.63,-464.421C116.84,-443.637 0,-391.451 0,-301 0,-301 0,-301 0,-127 0,-92.1383 13.9593,-53.5551 23.7198,-30.8381"/>
<polygon fill="midnightblue" stroke="midnightblue" points="26.9688,-32.146 27.8438,-21.5873 20.5753,-29.2958 26.9688,-32.146"/>
</g>
<!-- Node22&#45;&gt;Node17 -->
<g id="edge94" class="edge"><title>Node22&#45;&gt;Node17</title>
<path fill="none" stroke="midnightblue" d="M200.501,-464.288C192.214,-455.283 180.931,-441.718 174,-428 159.657,-399.609 155,-390.808 155,-359 155,-359 155,-359 155,-301 155,-267.598 155,-228.785 155,-205.594"/>
<polygon fill="midnightblue" stroke="midnightblue" points="158.5,-205.556 155,-195.556 151.5,-205.556 158.5,-205.556"/>
</g>
<!-- Node23 -->
<g id="node54" class="node"><title>Node23</title>
<a xlink:href="debug_8h.html" target="_top" xlink:title="debug.h">
<polygon fill="white" stroke="black" points="361.5,-406.5 361.5,-427.5 412.5,-427.5 412.5,-406.5 361.5,-406.5"/>
<text text-anchor="middle" x="387" y="-414.5" font-family="Helvetica,sans-Serif" font-size="10.00">debug.h</text>
</a>
</g>
<!-- Node22&#45;&gt;Node23 -->
<g id="edge62" class="edge"><title>Node22&#45;&gt;Node23</title>
<path fill="none" stroke="midnightblue" d="M242.872,-464.497C273.532,-454.393 319.791,-439.148 351.586,-428.67"/>
<polygon fill="midnightblue" stroke="midnightblue" points="352.961,-431.903 361.363,-425.448 350.77,-425.254 352.961,-431.903"/>
</g>
<!-- Node30 -->
<g id="node78" class="node"><title>Node30</title>
<polygon fill="white" stroke="#bfbfbf" points="183,-406.5 183,-427.5 239,-427.5 239,-406.5 183,-406.5"/>
<text text-anchor="middle" x="211" y="-414.5" font-family="Helvetica,sans-Serif" font-size="10.00">algorithm</text>
</g>
<!-- Node22&#45;&gt;Node30 -->
<g id="edge96" class="edge"><title>Node22&#45;&gt;Node30</title>
<path fill="none" stroke="midnightblue" d="M211,-464.362C211,-456.922 211,-446.743 211,-437.728"/>
<polygon fill="midnightblue" stroke="midnightblue" points="214.5,-437.571 211,-427.571 207.5,-437.571 214.5,-437.571"/>
</g>
<!-- Node31 -->
<g id="node80" class="node"><title>Node31</title>
<polygon fill="white" stroke="#bfbfbf" points="257,-406.5 257,-427.5 301,-427.5 301,-406.5 257,-406.5"/>
<text text-anchor="middle" x="279" y="-414.5" font-family="Helvetica,sans-Serif" font-size="10.00">vector</text>
</g>
<!-- Node22&#45;&gt;Node31 -->
<g id="edge98" class="edge"><title>Node22&#45;&gt;Node31</title>
<path fill="none" stroke="midnightblue" d="M223.472,-464.362C233.345,-455.941 247.333,-444.011 258.798,-434.231"/>
<polygon fill="midnightblue" stroke="midnightblue" points="261.27,-436.723 266.607,-427.571 256.727,-431.397 261.27,-436.723"/>
</g>
<!-- Node23&#45;&gt;Node4 -->
<g id="edge64" class="edge"><title>Node23&#45;&gt;Node4</title>
<path fill="none" stroke="midnightblue" d="M397.439,-406.232C421.342,-380.387 478,-311.862 478,-243 478,-243 478,-243 478,-127 478,-91.7411 494.051,-53.3154 505.289,-30.7323"/>
<polygon fill="midnightblue" stroke="midnightblue" points="508.418,-32.3005 509.895,-21.809 502.198,-29.0901 508.418,-32.3005"/>
</g>
<!-- Node23&#45;&gt;Node17 -->
<g id="edge66" class="edge"><title>Node23&#45;&gt;Node17</title>
<path fill="none" stroke="midnightblue" d="M376.429,-406.429C339.893,-369.893 218.691,-248.691 172.809,-202.809"/>
<polygon fill="midnightblue" stroke="midnightblue" points="175.179,-200.23 165.634,-195.634 170.23,-205.179 175.179,-200.23"/>
</g>
<!-- Node23&#45;&gt;Node24 -->
<g id="edge68" class="edge"><title>Node23&#45;&gt;Node24</title>
<path fill="none" stroke="midnightblue" d="M412.649,-412.688C471.888,-402.729 618.651,-378.056 690.725,-365.939"/>
<polygon fill="midnightblue" stroke="midnightblue" points="691.516,-369.355 700.798,-364.246 690.356,-362.452 691.516,-369.355"/>
</g>
<!-- Node24&#45;&gt;Node4 -->
<g id="edge70" class="edge"><title>Node24&#45;&gt;Node4</title>
<path fill="none" stroke="midnightblue" d="M745.238,-348.375C767.013,-329.606 808,-288.263 808,-243 808,-243 808,-243 808,-127 808,-89.1282 789.93,-78.3659 758,-58 725.68,-37.3854 620.096,-22.6073 559.607,-15.5915"/>
<polygon fill="midnightblue" stroke="midnightblue" points="559.916,-12.1042 549.584,-14.4522 559.125,-19.0594 559.916,-12.1042"/>
</g>
<!-- Node25 -->
<g id="node61" class="node"><title>Node25</title>
<a xlink:href="fixedstring_8h.html" target="_top" xlink:title="fixedstring.h">
<polygon fill="white" stroke="black" points="697,-290.5 697,-311.5 767,-311.5 767,-290.5 697,-290.5"/>
<text text-anchor="middle" x="732" y="-298.5" font-family="Helvetica,sans-Serif" font-size="10.00">fixedstring.h</text>
</a>
</g>
<!-- Node24&#45;&gt;Node25 -->
<g id="edge72" class="edge"><title>Node24&#45;&gt;Node25</title>
<path fill="none" stroke="midnightblue" d="M732,-348.362C732,-340.922 732,-330.743 732,-321.728"/>
<polygon fill="midnightblue" stroke="midnightblue" points="735.5,-321.571 732,-311.571 728.5,-321.571 735.5,-321.571"/>
</g>
<!-- Node27 -->
<g id="node68" class="node"><title>Node27</title>
<a xlink:href="string2_8h.html" target="_top" xlink:title="string2.h">
<polygon fill="white" stroke="black" points="561,-116.5 561,-137.5 615,-137.5 615,-116.5 561,-116.5"/>
<text text-anchor="middle" x="588" y="-124.5" font-family="Helvetica,sans-Serif" font-size="10.00">string2.h</text>
</a>
</g>
<!-- Node24&#45;&gt;Node27 -->
<g id="edge82" class="edge"><title>Node24&#45;&gt;Node27</title>
<path fill="none" stroke="midnightblue" d="M720.655,-348.497C711.219,-339.404 697.796,-325.606 688,-312 647.789,-256.148 612.577,-182.244 596.804,-147.154"/>
<polygon fill="midnightblue" stroke="midnightblue" points="599.806,-145.291 592.549,-137.573 593.409,-148.133 599.806,-145.291"/>
</g>
<!-- Node25&#45;&gt;Node4 -->
<g id="edge74" class="edge"><title>Node25&#45;&gt;Node4</title>
<path fill="none" stroke="midnightblue" d="M738.105,-290.191C748.847,-270.127 770,-225.477 770,-185 770,-185 770,-185 770,-127 770,-92.2025 760.787,-78.9463 733,-58 706.179,-37.7819 615.316,-23.3103 560.031,-16.1306"/>
<polygon fill="midnightblue" stroke="midnightblue" points="560.173,-12.6206 549.812,-14.8337 559.292,-19.5649 560.173,-12.6206"/>
</g>
<!-- Node26 -->
<g id="node64" class="node"><title>Node26</title>
<a xlink:href="odstring_8h.html" target="_top" xlink:title="odstring.h">
<polygon fill="white" stroke="black" points="683.5,-232.5 683.5,-253.5 742.5,-253.5 742.5,-232.5 683.5,-232.5"/>
<text text-anchor="middle" x="713" y="-240.5" font-family="Helvetica,sans-Serif" font-size="10.00">odstring.h</text>
</a>
</g>
<!-- Node25&#45;&gt;Node26 -->
<g id="edge76" class="edge"><title>Node25&#45;&gt;Node26</title>
<path fill="none" stroke="midnightblue" d="M728.515,-290.362C726.024,-282.758 722.596,-272.294 719.596,-263.135"/>
<polygon fill="midnightblue" stroke="midnightblue" points="722.902,-261.984 716.463,-253.571 716.25,-264.163 722.902,-261.984"/>
</g>
<!-- Node26&#45;&gt;Node4 -->
<g id="edge78" class="edge"><title>Node26&#45;&gt;Node4</title>
<path fill="none" stroke="midnightblue" d="M717.048,-232.355C728.02,-201.514 754.794,-110.938 713,-58 694.259,-34.262 611.745,-21.2035 559.631,-15.1909"/>
<polygon fill="midnightblue" stroke="midnightblue" points="559.967,-11.7067 549.641,-14.0812 559.194,-18.6639 559.967,-11.7067"/>
</g>
<!-- Node26&#45;&gt;Node17 -->
<g id="edge80" class="edge"><title>Node26&#45;&gt;Node17</title>
<path fill="none" stroke="midnightblue" d="M683.393,-239.923C589.85,-230.199 300.573,-200.131 194.508,-189.107"/>
<polygon fill="midnightblue" stroke="midnightblue" points="194.844,-185.623 184.535,-188.07 194.12,-192.585 194.844,-185.623"/>
</g>
<!-- Node27&#45;&gt;Node4 -->
<g id="edge84" class="edge"><title>Node27&#45;&gt;Node4</title>
<path fill="none" stroke="midnightblue" d="M581.355,-116.295C569.193,-96.6998 543.199,-54.8198 527.912,-30.1913"/>
<polygon fill="midnightblue" stroke="midnightblue" points="530.876,-28.3298 522.628,-21.6792 524.928,-32.0214 530.876,-28.3298"/>
</g>
<!-- Node27&#45;&gt;Node8 -->
<g id="edge88" class="edge"><title>Node27&#45;&gt;Node8</title>
<path fill="none" stroke="midnightblue" d="M560.743,-123.502C486.989,-114.038 282.625,-87.8147 186.811,-75.52"/>
<polygon fill="midnightblue" stroke="midnightblue" points="187.146,-72.0343 176.781,-74.233 186.255,-78.9774 187.146,-72.0343"/>
</g>
<!-- Node27&#45;&gt;Node12 -->
<g id="edge86" class="edge"><title>Node27&#45;&gt;Node12</title>
<path fill="none" stroke="midnightblue" d="M560.962,-122.204C503.444,-112.002 368.704,-88.1034 301.13,-76.1179"/>
<polygon fill="midnightblue" stroke="midnightblue" points="301.341,-72.6008 290.884,-74.3005 300.119,-79.4932 301.341,-72.6008"/>
</g>
<!-- Node28 -->
<g id="node73" class="node"><title>Node28</title>
<polygon fill="white" stroke="#bfbfbf" points="581.5,-58.5 581.5,-79.5 630.5,-79.5 630.5,-58.5 581.5,-58.5"/>
<text text-anchor="middle" x="606" y="-66.5" font-family="Helvetica,sans-Serif" font-size="10.00">ctype.h</text>
</g>
<!-- Node27&#45;&gt;Node28 -->
<g id="edge90" class="edge"><title>Node27&#45;&gt;Node28</title>
<path fill="none" stroke="midnightblue" d="M591.301,-116.362C593.661,-108.758 596.909,-98.294 599.751,-89.1349"/>
<polygon fill="midnightblue" stroke="midnightblue" points="603.098,-90.1587 602.719,-79.5707 596.413,-88.0839 603.098,-90.1587"/>
</g>
<!-- Node29 -->
<g id="node75" class="node"><title>Node29</title>
<polygon fill="white" stroke="#bfbfbf" points="648,-58.5 648,-79.5 704,-79.5 704,-58.5 648,-58.5"/>
<text text-anchor="middle" x="676" y="-66.5" font-family="Helvetica,sans-Serif" font-size="10.00">wctype.h</text>
</g>
<!-- Node27&#45;&gt;Node29 -->
<g id="edge92" class="edge"><title>Node27&#45;&gt;Node29</title>
<path fill="none" stroke="midnightblue" d="M604.141,-116.362C617.414,-107.614 636.432,-95.0786 651.57,-85.1015"/>
<polygon fill="midnightblue" stroke="midnightblue" points="653.538,-87.9962 659.962,-79.5707 649.686,-82.1515 653.538,-87.9962"/>
</g>
<!-- Node32&#45;&gt;Node15 -->
<g id="edge110" class="edge"><title>Node32&#45;&gt;Node15</title>
<path fill="none" stroke="midnightblue" d="M206.917,-580.362C207.558,-572.922 208.436,-562.743 209.213,-553.728"/>
<polygon fill="midnightblue" stroke="midnightblue" points="212.717,-553.834 210.089,-543.571 205.743,-553.233 212.717,-553.834"/>
</g>
<!-- Node33 -->
<g id="node85" class="node"><title>Node33</title>
<a xlink:href="typeset_8h.html" target="_top" xlink:title="typeset.h">
<polygon fill="white" stroke="black" points="104.5,-522.5 104.5,-543.5 161.5,-543.5 161.5,-522.5 104.5,-522.5"/>
<text text-anchor="middle" x="133" y="-530.5" font-family="Helvetica,sans-Serif" font-size="10.00">typeset.h</text>
</a>
</g>
<!-- Node32&#45;&gt;Node33 -->
<g id="edge104" class="edge"><title>Node32&#45;&gt;Node33</title>
<path fill="none" stroke="midnightblue" d="M192.611,-580.362C181.909,-571.859 166.704,-559.779 154.329,-549.947"/>
<polygon fill="midnightblue" stroke="midnightblue" points="156.311,-547.051 146.304,-543.571 151.957,-552.532 156.311,-547.051"/>
</g>
<!-- Node33&#45;&gt;Node16 -->
<g id="edge106" class="edge"><title>Node33&#45;&gt;Node16</title>
<path fill="none" stroke="midnightblue" d="M132.083,-522.362C131.442,-514.922 130.564,-504.743 129.787,-495.728"/>
<polygon fill="midnightblue" stroke="midnightblue" points="133.257,-495.233 128.911,-485.571 126.283,-495.834 133.257,-495.233"/>
</g>
<!-- Node33&#45;&gt;Node22 -->
<g id="edge108" class="edge"><title>Node33&#45;&gt;Node22</title>
<path fill="none" stroke="midnightblue" d="M147.306,-522.362C158.851,-513.777 175.3,-501.546 188.59,-491.664"/>
<polygon fill="midnightblue" stroke="midnightblue" points="190.848,-494.346 196.784,-485.571 186.671,-488.729 190.848,-494.346"/>
</g>
<!-- Node34&#45;&gt;Node4 -->
<g id="edge114" class="edge"><title>Node34&#45;&gt;Node4</title>
<path fill="none" stroke="midnightblue" d="M318.656,-116.284C318.781,-101.168 321.343,-73.6822 337,-58 355.836,-39.1338 425.47,-24.9772 472.128,-17.3521"/>
<polygon fill="midnightblue" stroke="midnightblue" points="472.963,-20.7634 482.288,-15.7349 471.862,-13.8504 472.963,-20.7634"/>
</g>
<!-- Node34&#45;&gt;Node8 -->
<g id="edge116" class="edge"><title>Node34&#45;&gt;Node8</title>
<path fill="none" stroke="midnightblue" d="M285.86,-116.497C255.897,-107 211.604,-92.9619 178.938,-82.6087"/>
<polygon fill="midnightblue" stroke="midnightblue" points="179.792,-79.208 169.202,-79.5231 177.677,-85.8809 179.792,-79.208"/>
</g>
<!-- Node34&#45;&gt;Node12 -->
<g id="edge118" class="edge"><title>Node34&#45;&gt;Node12</title>
<path fill="none" stroke="midnightblue" d="M308.362,-116.362C300.104,-108.104 288.472,-96.4725 278.803,-86.8029"/>
<polygon fill="midnightblue" stroke="midnightblue" points="281.117,-84.1669 271.571,-79.5707 276.167,-89.1166 281.117,-84.1669"/>
</g>
</g>
</svg>
