<?xml version="1.0" encoding="UTF-8" standalone="no"?>
<!DOCTYPE svg PUBLIC "-//W3C//DTD SVG 1.1//EN"
 "http://www.w3.org/Graphics/SVG/1.1/DTD/svg11.dtd">
<!-- Generated by graphviz version 2.26.0 (20091210.2329)
 -->
<!-- Title: netserver.h Pages: 1 -->
<svg width="894pt" height="726pt"
 viewBox="0.00 0.00 893.91 726.00" xmlns="http://www.w3.org/2000/svg" xmlns:xlink="http://www.w3.org/1999/xlink">
<g id="graph1" class="graph" transform="scale(1 1) rotate(0) translate(4 722)">
<title>netserver.h</title>
<polygon fill="white" stroke="white" points="-4,5 -4,-722 890.91,-722 890.91,5 -4,5"/>
<!-- Node1 -->
<g id="node1" class="node"><title>Node1</title>
<polygon fill="#bfbfbf" stroke="black" points="73.5,-696.5 73.5,-717.5 138.5,-717.5 138.5,-696.5 73.5,-696.5"/>
<text text-anchor="middle" x="106" y="-704.5" font-family="Helvetica,sans-Serif" font-size="10.00">netserver.h</text>
</g>
<!-- Node2 -->
<g id="node3" class="node"><title>Node2</title>
<polygon fill="white" stroke="#bfbfbf" points="0,-638.5 0,-659.5 78,-659.5 78,-638.5 0,-638.5"/>
<text text-anchor="middle" x="39" y="-646.5" font-family="Helvetica,sans-Serif" font-size="10.00">networkmod.h</text>
</g>
<!-- Node1&#45;&gt;Node2 -->
<g id="edge2" class="edge"><title>Node1&#45;&gt;Node2</title>
<path fill="none" stroke="midnightblue" d="M93.7112,-696.362C83.9833,-687.941 70.2018,-676.011 58.9045,-666.231"/>
<polygon fill="midnightblue" stroke="midnightblue" points="61.0623,-663.469 51.2109,-659.571 56.4808,-668.762 61.0623,-663.469"/>
</g>
<!-- Node3 -->
<g id="node5" class="node"><title>Node3</title>
<a xlink:href="callback_8h.html" target="_top" xlink:title="callback.h">
<polygon fill="white" stroke="black" points="461.5,-638.5 461.5,-659.5 522.5,-659.5 522.5,-638.5 461.5,-638.5"/>
<text text-anchor="middle" x="492" y="-646.5" font-family="Helvetica,sans-Serif" font-size="10.00">callback.h</text>
</a>
</g>
<!-- Node1&#45;&gt;Node3 -->
<g id="edge4" class="edge"><title>Node1&#45;&gt;Node3</title>
<path fill="none" stroke="midnightblue" d="M138.577,-702.105C208.709,-691.567 373.858,-666.752 450.981,-655.164"/>
<polygon fill="midnightblue" stroke="midnightblue" points="451.891,-658.566 461.26,-653.619 450.851,-651.644 451.891,-658.566"/>
</g>
<!-- Node23 -->
<g id="node55" class="node"><title>Node23</title>
<a xlink:href="bufstring_8h.html" target="_top" xlink:title="bufstring.h">
<polygon fill="white" stroke="black" points="154,-348.5 154,-369.5 216,-369.5 216,-348.5 154,-348.5"/>
<text text-anchor="middle" x="185" y="-356.5" font-family="Helvetica,sans-Serif" font-size="10.00">bufstring.h</text>
</a>
</g>
<!-- Node1&#45;&gt;Node23 -->
<g id="edge116" class="edge"><title>Node1&#45;&gt;Node23</title>
<path fill="none" stroke="midnightblue" d="M106,-696.444C106,-676.062 106,-629.868 106,-591 106,-591 106,-591 106,-475 106,-434.024 140.092,-396.825 163.485,-376.123"/>
<polygon fill="midnightblue" stroke="midnightblue" points="165.902,-378.662 171.239,-369.51 161.359,-373.336 165.902,-378.662"/>
</g>
<!-- Node4 -->
<g id="node7" class="node"><title>Node4</title>
<polygon fill="white" stroke="#bfbfbf" points="387.5,-0.5 387.5,-21.5 454.5,-21.5 454.5,-0.5 387.5,-0.5"/>
<text text-anchor="middle" x="421" y="-8.5" font-family="Helvetica,sans-Serif" font-size="10.00">basicmod.h</text>
</g>
<!-- Node3&#45;&gt;Node4 -->
<g id="edge6" class="edge"><title>Node3&#45;&gt;Node4</title>
<path fill="none" stroke="midnightblue" d="M461.165,-646.784C363.596,-637.943 68,-596.358 68,-417 68,-417 68,-417 68,-127 68,-88.0584 88.4272,-77.731 122,-58 164.423,-33.0674 304.808,-19.46 377.112,-13.9516"/>
<polygon fill="midnightblue" stroke="midnightblue" points="377.552,-17.4286 387.266,-13.1973 377.034,-10.4479 377.552,-17.4286"/>
</g>
<!-- Node5 -->
<g id="node9" class="node"><title>Node5</title>
<a xlink:href="refcount_8h.html" target="_top" xlink:title="refcount.h">
<polygon fill="white" stroke="black" points="462,-580.5 462,-601.5 522,-601.5 522,-580.5 462,-580.5"/>
<text text-anchor="middle" x="492" y="-588.5" font-family="Helvetica,sans-Serif" font-size="10.00">refcount.h</text>
</a>
</g>
<!-- Node3&#45;&gt;Node5 -->
<g id="edge8" class="edge"><title>Node3&#45;&gt;Node5</title>
<path fill="none" stroke="midnightblue" d="M492,-638.362C492,-630.922 492,-620.743 492,-611.728"/>
<polygon fill="midnightblue" stroke="midnightblue" points="495.5,-611.571 492,-601.571 488.5,-611.571 495.5,-611.571"/>
</g>
<!-- Node31 -->
<g id="node80" class="node"><title>Node31</title>
<a xlink:href="sets_8h.html" target="_top" xlink:title="sets.h">
<polygon fill="white" stroke="black" points="589,-580.5 589,-601.5 633,-601.5 633,-580.5 589,-580.5"/>
<text text-anchor="middle" x="611" y="-588.5" font-family="Helvetica,sans-Serif" font-size="10.00">sets.h</text>
</a>
</g>
<!-- Node3&#45;&gt;Node31 -->
<g id="edge98" class="edge"><title>Node3&#45;&gt;Node31</title>
<path fill="none" stroke="midnightblue" d="M513.55,-638.497C532.136,-629.438 559.202,-616.246 580.095,-606.063"/>
<polygon fill="midnightblue" stroke="midnightblue" points="581.753,-609.149 589.208,-601.621 578.686,-602.856 581.753,-609.149"/>
</g>
<!-- Node33 -->
<g id="node87" class="node"><title>Node33</title>
<a xlink:href="threadlock_8h.html" target="_top" xlink:title="threadlock.h">
<polygon fill="white" stroke="black" points="628,-116.5 628,-137.5 698,-137.5 698,-116.5 628,-116.5"/>
<text text-anchor="middle" x="663" y="-124.5" font-family="Helvetica,sans-Serif" font-size="10.00">threadlock.h</text>
</a>
</g>
<!-- Node3&#45;&gt;Node33 -->
<g id="edge108" class="edge"><title>Node3&#45;&gt;Node33</title>
<path fill="none" stroke="midnightblue" d="M522.749,-644.914C604.672,-633.173 822,-596.081 822,-533 822,-533 822,-533 822,-243 822,-186.217 755,-154.274 707.985,-138.849"/>
<polygon fill="midnightblue" stroke="midnightblue" points="708.876,-135.46 698.287,-135.805 706.78,-142.139 708.876,-135.46"/>
</g>
<!-- Node6 -->
<g id="node11" class="node"><title>Node6</title>
<a xlink:href="atomic_8h.html" target="_top" xlink:title="atomic.h">
<polygon fill="white" stroke="black" points="438,-116.5 438,-137.5 492,-137.5 492,-116.5 438,-116.5"/>
<text text-anchor="middle" x="465" y="-124.5" font-family="Helvetica,sans-Serif" font-size="10.00">atomic.h</text>
</a>
</g>
<!-- Node5&#45;&gt;Node6 -->
<g id="edge10" class="edge"><title>Node5&#45;&gt;Node6</title>
<path fill="none" stroke="midnightblue" d="M487.781,-580.319C480.188,-560.1 465,-514.7 465,-475 465,-475 465,-475 465,-243 465,-209.598 465,-170.785 465,-147.594"/>
<polygon fill="midnightblue" stroke="midnightblue" points="468.5,-147.556 465,-137.556 461.5,-147.556 468.5,-147.556"/>
</g>
<!-- Node14 -->
<g id="node30" class="node"><title>Node14</title>
<a xlink:href="objectset_8h.html" target="_top" xlink:title="objectset.h">
<polygon fill="white" stroke="black" points="578.5,-522.5 578.5,-543.5 643.5,-543.5 643.5,-522.5 578.5,-522.5"/>
<text text-anchor="middle" x="611" y="-530.5" font-family="Helvetica,sans-Serif" font-size="10.00">objectset.h</text>
</a>
</g>
<!-- Node5&#45;&gt;Node14 -->
<g id="edge32" class="edge"><title>Node5&#45;&gt;Node14</title>
<path fill="none" stroke="midnightblue" d="M513.55,-580.497C532.136,-571.438 559.202,-558.246 580.095,-548.063"/>
<polygon fill="midnightblue" stroke="midnightblue" points="581.753,-551.149 589.208,-543.621 578.686,-544.856 581.753,-551.149"/>
</g>
<!-- Node6&#45;&gt;Node4 -->
<g id="edge12" class="edge"><title>Node6&#45;&gt;Node4</title>
<path fill="none" stroke="midnightblue" d="M466.891,-116.26C468.868,-102.286 470.718,-77.3717 463,-58 458.626,-47.0208 450.467,-36.9403 442.496,-28.9543"/>
<polygon fill="midnightblue" stroke="midnightblue" points="444.433,-25.9747 434.734,-21.7108 439.657,-31.0924 444.433,-25.9747"/>
</g>
<!-- Node7 -->
<g id="node14" class="node"><title>Node7</title>
<a xlink:href="commondefs_8h.html" target="_top" xlink:title="commondefs.h">
<polygon fill="white" stroke="black" points="699.5,-58.5 699.5,-79.5 780.5,-79.5 780.5,-58.5 699.5,-58.5"/>
<text text-anchor="middle" x="740" y="-66.5" font-family="Helvetica,sans-Serif" font-size="10.00">commondefs.h</text>
</a>
</g>
<!-- Node6&#45;&gt;Node7 -->
<g id="edge14" class="edge"><title>Node6&#45;&gt;Node7</title>
<path fill="none" stroke="midnightblue" d="M492.121,-121.28C537.884,-111.628 631.125,-91.9627 689.299,-79.6934"/>
<polygon fill="midnightblue" stroke="midnightblue" points="690.318,-83.0555 699.38,-77.5671 688.873,-76.2062 690.318,-83.0555"/>
</g>
<!-- Node11 -->
<g id="node23" class="node"><title>Node11</title>
<a xlink:href="plftypes_8h.html" target="_top" xlink:title="plftypes.h">
<polygon fill="white" stroke="black" points="585.5,-58.5 585.5,-79.5 644.5,-79.5 644.5,-58.5 585.5,-58.5"/>
<text text-anchor="middle" x="615" y="-66.5" font-family="Helvetica,sans-Serif" font-size="10.00">plftypes.h</text>
</a>
</g>
<!-- Node6&#45;&gt;Node11 -->
<g id="edge24" class="edge"><title>Node6&#45;&gt;Node11</title>
<path fill="none" stroke="midnightblue" d="M492.164,-116.497C516.3,-107.164 551.781,-93.4447 578.412,-83.1475"/>
<polygon fill="midnightblue" stroke="midnightblue" points="579.72,-86.394 587.785,-79.5231 577.196,-79.8651 579.72,-86.394"/>
</g>
<!-- Node13 -->
<g id="node28" class="node"><title>Node13</title>
<polygon fill="white" stroke="#bfbfbf" points="387.5,-58.5 387.5,-79.5 454.5,-79.5 454.5,-58.5 387.5,-58.5"/>
<text text-anchor="middle" x="421" y="-66.5" font-family="Helvetica,sans-Serif" font-size="10.00">odversion.h</text>
</g>
<!-- Node6&#45;&gt;Node13 -->
<g id="edge30" class="edge"><title>Node6&#45;&gt;Node13</title>
<path fill="none" stroke="midnightblue" d="M456.93,-116.362C450.851,-108.35 442.363,-97.1605 435.163,-87.6696"/>
<polygon fill="midnightblue" stroke="midnightblue" points="437.851,-85.4222 429.019,-79.5707 432.275,-89.653 437.851,-85.4222"/>
</g>
<!-- Node7&#45;&gt;Node4 -->
<g id="edge16" class="edge"><title>Node7&#45;&gt;Node4</title>
<path fill="none" stroke="midnightblue" d="M699.332,-60.6005C694.836,-59.7064 690.323,-58.8236 686,-58 608.114,-43.1628 517.05,-27.3452 464.498,-18.3657"/>
<polygon fill="midnightblue" stroke="midnightblue" points="464.962,-14.8944 454.516,-16.6633 463.785,-21.7948 464.962,-14.8944"/>
</g>
<!-- Node8 -->
<g id="node17" class="node"><title>Node8</title>
<a xlink:href="plfdefs_8h.html" target="_top" xlink:title="plfdefs.h">
<polygon fill="white" stroke="black" points="654,-0.5 654,-21.5 708,-21.5 708,-0.5 654,-0.5"/>
<text text-anchor="middle" x="681" y="-8.5" font-family="Helvetica,sans-Serif" font-size="10.00">plfdefs.h</text>
</a>
</g>
<!-- Node7&#45;&gt;Node8 -->
<g id="edge18" class="edge"><title>Node7&#45;&gt;Node8</title>
<path fill="none" stroke="midnightblue" d="M729.178,-58.3619C720.779,-50.1043 708.946,-38.4725 699.11,-28.8029"/>
<polygon fill="midnightblue" stroke="midnightblue" points="701.338,-26.0851 691.753,-21.5707 696.431,-31.077 701.338,-26.0851"/>
</g>
<!-- Node9 -->
<g id="node19" class="node"><title>Node9</title>
<polygon fill="white" stroke="#bfbfbf" points="826.5,-0.5 826.5,-21.5 885.5,-21.5 885.5,-0.5 826.5,-0.5"/>
<text text-anchor="middle" x="856" y="-8.5" font-family="Helvetica,sans-Serif" font-size="10.00">stdexcept</text>
</g>
<!-- Node7&#45;&gt;Node9 -->
<g id="edge20" class="edge"><title>Node7&#45;&gt;Node9</title>
<path fill="none" stroke="midnightblue" d="M761.007,-58.4966C779.043,-49.4786 805.27,-36.3649 825.599,-26.2006"/>
<polygon fill="midnightblue" stroke="midnightblue" points="827.379,-29.2239 834.758,-21.6212 824.248,-22.9629 827.379,-29.2239"/>
</g>
<!-- Node10 -->
<g id="node21" class="node"><title>Node10</title>
<polygon fill="white" stroke="#bfbfbf" points="725.5,-0.5 725.5,-21.5 760.5,-21.5 760.5,-0.5 725.5,-0.5"/>
<text text-anchor="middle" x="743" y="-8.5" font-family="Helvetica,sans-Serif" font-size="10.00">new</text>
</g>
<!-- Node7&#45;&gt;Node10 -->
<g id="edge22" class="edge"><title>Node7&#45;&gt;Node10</title>
<path fill="none" stroke="midnightblue" d="M740.55,-58.3619C740.935,-50.9219 741.462,-40.7427 741.928,-31.7276"/>
<polygon fill="midnightblue" stroke="midnightblue" points="745.432,-31.7381 742.453,-21.5707 738.441,-31.3765 745.432,-31.7381"/>
</g>
<!-- Node11&#45;&gt;Node8 -->
<g id="edge26" class="edge"><title>Node11&#45;&gt;Node8</title>
<path fill="none" stroke="midnightblue" d="M627.105,-58.3619C636.688,-49.9408 650.264,-38.0105 661.393,-28.2308"/>
<polygon fill="midnightblue" stroke="midnightblue" points="663.77,-30.8009 668.971,-21.5707 659.149,-25.5427 663.77,-30.8009"/>
</g>
<!-- Node12 -->
<g id="node26" class="node"><title>Node12</title>
<polygon fill="white" stroke="#bfbfbf" points="587.5,-0.5 587.5,-21.5 636.5,-21.5 636.5,-0.5 587.5,-0.5"/>
<text text-anchor="middle" x="612" y="-8.5" font-family="Helvetica,sans-Serif" font-size="10.00">stdint.h</text>
</g>
<!-- Node11&#45;&gt;Node12 -->
<g id="edge28" class="edge"><title>Node11&#45;&gt;Node12</title>
<path fill="none" stroke="midnightblue" d="M614.45,-58.3619C614.065,-50.9219 613.538,-40.7427 613.072,-31.7276"/>
<polygon fill="midnightblue" stroke="midnightblue" points="616.559,-31.3765 612.547,-21.5707 609.568,-31.7381 616.559,-31.3765"/>
</g>
<!-- Node15 -->
<g id="node32" class="node"><title>Node15</title>
<a xlink:href="odset_8h.html" target="_top" xlink:title="odset.h">
<polygon fill="white" stroke="black" points="682.5,-464.5 682.5,-485.5 731.5,-485.5 731.5,-464.5 682.5,-464.5"/>
<text text-anchor="middle" x="707" y="-472.5" font-family="Helvetica,sans-Serif" font-size="10.00">odset.h</text>
</a>
</g>
<!-- Node14&#45;&gt;Node15 -->
<g id="edge34" class="edge"><title>Node14&#45;&gt;Node15</title>
<path fill="none" stroke="midnightblue" d="M628.608,-522.362C643.223,-513.532 664.224,-500.844 680.811,-490.822"/>
<polygon fill="midnightblue" stroke="midnightblue" points="682.754,-493.738 689.504,-485.571 679.135,-487.746 682.754,-493.738"/>
</g>
<!-- Node21 -->
<g id="node49" class="node"><title>Node21</title>
<a xlink:href="vectoraccess_8h.html" target="_top" xlink:title="vectoraccess.h">
<polygon fill="white" stroke="black" points="582.5,-464.5 582.5,-485.5 665.5,-485.5 665.5,-464.5 582.5,-464.5"/>
<text text-anchor="middle" x="624" y="-472.5" font-family="Helvetica,sans-Serif" font-size="10.00">vectoraccess.h</text>
</a>
</g>
<!-- Node14&#45;&gt;Node21 -->
<g id="edge56" class="edge"><title>Node14&#45;&gt;Node21</title>
<path fill="none" stroke="midnightblue" d="M613.384,-522.362C615.07,-514.84 617.384,-504.519 619.421,-495.431"/>
<polygon fill="midnightblue" stroke="midnightblue" points="622.859,-496.094 621.631,-485.571 616.028,-494.563 622.859,-496.094"/>
</g>
<!-- Node16 -->
<g id="node34" class="node"><title>Node16</title>
<a xlink:href="gendefs_8h.html" target="_top" xlink:title="gendefs.h">
<polygon fill="white" stroke="black" points="678.5,-174.5 678.5,-195.5 737.5,-195.5 737.5,-174.5 678.5,-174.5"/>
<text text-anchor="middle" x="708" y="-182.5" font-family="Helvetica,sans-Serif" font-size="10.00">gendefs.h</text>
</a>
</g>
<!-- Node15&#45;&gt;Node16 -->
<g id="edge36" class="edge"><title>Node15&#45;&gt;Node16</title>
<path fill="none" stroke="midnightblue" d="M722.899,-464.333C734.609,-455.747 750.147,-442.715 760,-428 778.065,-401.021 784,-391.469 784,-359 784,-359 784,-359 784,-301 784,-260.51 751.203,-223.158 728.698,-202.295"/>
<polygon fill="midnightblue" stroke="midnightblue" points="731.026,-199.681 721.238,-195.625 726.36,-204.899 731.026,-199.681"/>
</g>
<!-- Node17 -->
<g id="node36" class="node"><title>Node17</title>
<a xlink:href="undefval_8h.html" target="_top" xlink:title="undefval.h">
<polygon fill="white" stroke="black" points="548,-116.5 548,-137.5 610,-137.5 610,-116.5 548,-116.5"/>
<text text-anchor="middle" x="579" y="-124.5" font-family="Helvetica,sans-Serif" font-size="10.00">undefval.h</text>
</a>
</g>
<!-- Node16&#45;&gt;Node17 -->
<g id="edge38" class="edge"><title>Node16&#45;&gt;Node17</title>
<path fill="none" stroke="midnightblue" d="M684.639,-174.497C664.309,-165.356 634.622,-152.008 611.891,-141.788"/>
<polygon fill="midnightblue" stroke="midnightblue" points="613.179,-138.53 602.623,-137.621 610.308,-144.914 613.179,-138.53"/>
</g>
<!-- Node18 -->
<g id="node41" class="node"><title>Node18</title>
<a xlink:href="commontypes_8h.html" target="_top" xlink:title="commontypes.h">
<polygon fill="white" stroke="black" points="716,-116.5 716,-137.5 802,-137.5 802,-116.5 716,-116.5"/>
<text text-anchor="middle" x="759" y="-124.5" font-family="Helvetica,sans-Serif" font-size="10.00">commontypes.h</text>
</a>
</g>
<!-- Node16&#45;&gt;Node18 -->
<g id="edge46" class="edge"><title>Node16&#45;&gt;Node18</title>
<path fill="none" stroke="midnightblue" d="M717.354,-174.362C724.543,-166.186 734.641,-154.702 743.093,-145.091"/>
<polygon fill="midnightblue" stroke="midnightblue" points="745.73,-147.392 749.705,-137.571 740.473,-142.769 745.73,-147.392"/>
</g>
<!-- Node19 -->
<g id="node44" class="node"><title>Node19</title>
<a xlink:href="errmsg_8h.html" target="_top" xlink:title="errmsg.h">
<polygon fill="white" stroke="black" points="819.5,-116.5 819.5,-137.5 874.5,-137.5 874.5,-116.5 819.5,-116.5"/>
<text text-anchor="middle" x="847" y="-124.5" font-family="Helvetica,sans-Serif" font-size="10.00">errmsg.h</text>
</a>
</g>
<!-- Node16&#45;&gt;Node19 -->
<g id="edge50" class="edge"><title>Node16&#45;&gt;Node19</title>
<path fill="none" stroke="midnightblue" d="M733.172,-174.497C755.273,-165.275 787.639,-151.769 812.213,-141.515"/>
<polygon fill="midnightblue" stroke="midnightblue" points="813.665,-144.702 821.546,-137.621 810.969,-138.242 813.665,-144.702"/>
</g>
<!-- Node17&#45;&gt;Node4 -->
<g id="edge40" class="edge"><title>Node17&#45;&gt;Node4</title>
<path fill="none" stroke="midnightblue" d="M574.465,-116.219C567.685,-101.275 553.576,-74.2734 534,-58 513.86,-41.2583 486.918,-29.7425 464.393,-22.3013"/>
<polygon fill="midnightblue" stroke="midnightblue" points="465.309,-18.9205 454.72,-19.2618 463.211,-25.5986 465.309,-18.9205"/>
</g>
<!-- Node17&#45;&gt;Node7 -->
<g id="edge42" class="edge"><title>Node17&#45;&gt;Node7</title>
<path fill="none" stroke="midnightblue" d="M608.156,-116.497C634.176,-107.123 672.479,-93.3242 701.104,-83.0122"/>
<polygon fill="midnightblue" stroke="midnightblue" points="702.568,-86.2052 710.789,-79.5231 700.195,-79.6195 702.568,-86.2052"/>
</g>
<!-- Node17&#45;&gt;Node11 -->
<g id="edge44" class="edge"><title>Node17&#45;&gt;Node11</title>
<path fill="none" stroke="midnightblue" d="M585.603,-116.362C590.475,-108.513 597.238,-97.6159 603.05,-88.2527"/>
<polygon fill="midnightblue" stroke="midnightblue" points="606.139,-89.9129 608.439,-79.5707 600.191,-86.2213 606.139,-89.9129"/>
</g>
<!-- Node18&#45;&gt;Node7 -->
<g id="edge48" class="edge"><title>Node18&#45;&gt;Node7</title>
<path fill="none" stroke="midnightblue" d="M755.515,-116.362C753.024,-108.758 749.596,-98.294 746.596,-89.1349"/>
<polygon fill="midnightblue" stroke="midnightblue" points="749.902,-87.9841 743.463,-79.5707 743.25,-90.1634 749.902,-87.9841"/>
</g>
<!-- Node19&#45;&gt;Node7 -->
<g id="edge52" class="edge"><title>Node19&#45;&gt;Node7</title>
<path fill="none" stroke="midnightblue" d="M827.375,-116.362C810.859,-107.409 787.026,-94.4908 768.422,-84.4064"/>
<polygon fill="midnightblue" stroke="midnightblue" points="769.96,-81.2592 759.501,-79.5707 766.625,-87.4132 769.96,-81.2592"/>
</g>
<!-- Node20 -->
<g id="node47" class="node"><title>Node20</title>
<polygon fill="white" stroke="#bfbfbf" points="821.5,-58.5 821.5,-79.5 872.5,-79.5 872.5,-58.5 821.5,-58.5"/>
<text text-anchor="middle" x="847" y="-66.5" font-family="Helvetica,sans-Serif" font-size="10.00">typeinfo</text>
</g>
<!-- Node19&#45;&gt;Node20 -->
<g id="edge54" class="edge"><title>Node19&#45;&gt;Node20</title>
<path fill="none" stroke="midnightblue" d="M847,-116.362C847,-108.922 847,-98.7427 847,-89.7276"/>
<polygon fill="midnightblue" stroke="midnightblue" points="850.5,-89.5706 847,-79.5707 843.5,-89.5707 850.5,-89.5706"/>
</g>
<!-- Node21&#45;&gt;Node9 -->
<g id="edge96" class="edge"><title>Node21&#45;&gt;Node9</title>
<path fill="none" stroke="midnightblue" d="M651.25,-464.375C669.204,-456.377 692.379,-444.044 709,-428 817.145,-323.609 842.877,-282.855 883,-138 886.589,-125.043 887.463,-82.1353 881,-58 878.422,-48.3749 873.582,-38.5209 868.842,-30.3379"/>
<polygon fill="midnightblue" stroke="midnightblue" points="871.691,-28.29 863.465,-21.6132 865.732,-31.9627 871.691,-28.29"/>
</g>
<!-- Node21&#45;&gt;Node16 -->
<g id="edge90" class="edge"><title>Node21&#45;&gt;Node16</title>
<path fill="none" stroke="midnightblue" d="M645.405,-464.487C659.749,-456.392 677.963,-443.902 689,-428 707.136,-401.869 708,-390.808 708,-359 708,-359 708,-359 708,-301 708,-267.598 708,-228.785 708,-205.594"/>
<polygon fill="midnightblue" stroke="midnightblue" points="711.5,-205.556 708,-195.556 704.5,-205.556 711.5,-205.556"/>
</g>
<!-- Node22 -->
<g id="node51" class="node"><title>Node22</title>
<a xlink:href="debug_8h.html" target="_top" xlink:title="debug.h">
<polygon fill="white" stroke="black" points="493.5,-406.5 493.5,-427.5 544.5,-427.5 544.5,-406.5 493.5,-406.5"/>
<text text-anchor="middle" x="519" y="-414.5" font-family="Helvetica,sans-Serif" font-size="10.00">debug.h</text>
</a>
</g>
<!-- Node21&#45;&gt;Node22 -->
<g id="edge58" class="edge"><title>Node21&#45;&gt;Node22</title>
<path fill="none" stroke="midnightblue" d="M604.741,-464.362C588.534,-455.409 565.147,-442.491 546.891,-432.406"/>
<polygon fill="midnightblue" stroke="midnightblue" points="548.582,-429.342 538.137,-427.571 545.198,-435.47 548.582,-429.342"/>
</g>
<!-- Node29 -->
<g id="node75" class="node"><title>Node29</title>
<polygon fill="white" stroke="#bfbfbf" points="562,-406.5 562,-427.5 618,-427.5 618,-406.5 562,-406.5"/>
<text text-anchor="middle" x="590" y="-414.5" font-family="Helvetica,sans-Serif" font-size="10.00">algorithm</text>
</g>
<!-- Node21&#45;&gt;Node29 -->
<g id="edge92" class="edge"><title>Node21&#45;&gt;Node29</title>
<path fill="none" stroke="midnightblue" d="M617.764,-464.362C613.163,-456.513 606.775,-445.616 601.286,-436.253"/>
<polygon fill="midnightblue" stroke="midnightblue" points="604.273,-434.428 596.197,-427.571 598.234,-437.968 604.273,-434.428"/>
</g>
<!-- Node30 -->
<g id="node77" class="node"><title>Node30</title>
<polygon fill="white" stroke="#bfbfbf" points="636,-406.5 636,-427.5 680,-427.5 680,-406.5 636,-406.5"/>
<text text-anchor="middle" x="658" y="-414.5" font-family="Helvetica,sans-Serif" font-size="10.00">vector</text>
</g>
<!-- Node21&#45;&gt;Node30 -->
<g id="edge94" class="edge"><title>Node21&#45;&gt;Node30</title>
<path fill="none" stroke="midnightblue" d="M630.236,-464.362C634.837,-456.513 641.225,-445.616 646.714,-436.253"/>
<polygon fill="midnightblue" stroke="midnightblue" points="649.766,-437.968 651.803,-427.571 643.727,-434.428 649.766,-437.968"/>
</g>
<!-- Node22&#45;&gt;Node4 -->
<g id="edge60" class="edge"><title>Node22&#45;&gt;Node4</title>
<path fill="none" stroke="midnightblue" d="M519.152,-406.444C519.432,-386.063 520,-339.869 520,-301 520,-301 520,-301 520,-127 520,-82.6111 477.539,-46.6106 448.232,-27.0498"/>
<polygon fill="midnightblue" stroke="midnightblue" points="449.926,-23.9779 439.621,-21.516 446.142,-29.8667 449.926,-23.9779"/>
</g>
<!-- Node22&#45;&gt;Node16 -->
<g id="edge62" class="edge"><title>Node22&#45;&gt;Node16</title>
<path fill="none" stroke="midnightblue" d="M527.612,-406.429C557.191,-370.12 654.893,-250.19 692.79,-203.671"/>
<polygon fill="midnightblue" stroke="midnightblue" points="695.735,-205.597 699.337,-195.634 690.308,-201.176 695.735,-205.597"/>
</g>
<!-- Node22&#45;&gt;Node23 -->
<g id="edge64" class="edge"><title>Node22&#45;&gt;Node23</title>
<path fill="none" stroke="midnightblue" d="M493.346,-412.545C435.882,-402.566 296.401,-378.345 226.447,-366.197"/>
<polygon fill="midnightblue" stroke="midnightblue" points="226.696,-362.688 216.244,-364.426 225.498,-369.585 226.696,-362.688"/>
</g>
<!-- Node23&#45;&gt;Node4 -->
<g id="edge66" class="edge"><title>Node23&#45;&gt;Node4</title>
<path fill="none" stroke="midnightblue" d="M171.239,-348.49C148.605,-329.895 106,-288.807 106,-243 106,-243 106,-243 106,-127 106,-89.3873 123.214,-78.1095 155,-58 191.207,-35.0929 311.245,-20.9417 376.996,-14.7174"/>
<polygon fill="midnightblue" stroke="midnightblue" points="377.426,-18.1926 387.061,-13.7863 376.781,-11.2223 377.426,-18.1926"/>
</g>
<!-- Node24 -->
<g id="node58" class="node"><title>Node24</title>
<a xlink:href="fixedstring_8h.html" target="_top" xlink:title="fixedstring.h">
<polygon fill="white" stroke="black" points="150,-290.5 150,-311.5 220,-311.5 220,-290.5 150,-290.5"/>
<text text-anchor="middle" x="185" y="-298.5" font-family="Helvetica,sans-Serif" font-size="10.00">fixedstring.h</text>
</a>
</g>
<!-- Node23&#45;&gt;Node24 -->
<g id="edge68" class="edge"><title>Node23&#45;&gt;Node24</title>
<path fill="none" stroke="midnightblue" d="M185,-348.362C185,-340.922 185,-330.743 185,-321.728"/>
<polygon fill="midnightblue" stroke="midnightblue" points="188.5,-321.571 185,-311.571 181.5,-321.571 188.5,-321.571"/>
</g>
<!-- Node26 -->
<g id="node65" class="node"><title>Node26</title>
<a xlink:href="string2_8h.html" target="_top" xlink:title="string2.h">
<polygon fill="white" stroke="black" points="308,-116.5 308,-137.5 362,-137.5 362,-116.5 308,-116.5"/>
<text text-anchor="middle" x="335" y="-124.5" font-family="Helvetica,sans-Serif" font-size="10.00">string2.h</text>
</a>
</g>
<!-- Node23&#45;&gt;Node26 -->
<g id="edge78" class="edge"><title>Node23&#45;&gt;Node26</title>
<path fill="none" stroke="midnightblue" d="M196.259,-348.434C205.643,-339.303 219.036,-325.484 229,-312 270.646,-255.64 308.665,-181.467 325.646,-146.648"/>
<polygon fill="midnightblue" stroke="midnightblue" points="328.847,-148.069 330.044,-137.542 322.543,-145.025 328.847,-148.069"/>
</g>
<!-- Node24&#45;&gt;Node4 -->
<g id="edge70" class="edge"><title>Node24&#45;&gt;Node4</title>
<path fill="none" stroke="midnightblue" d="M178.413,-290.253C166.823,-270.289 144,-225.797 144,-185 144,-185 144,-185 144,-127 144,-91.328 155.877,-78.5992 185,-58 215.325,-36.5505 317.391,-22.2221 376.901,-15.4712"/>
<polygon fill="midnightblue" stroke="midnightblue" points="377.581,-18.9174 387.135,-14.3373 376.81,-11.9599 377.581,-18.9174"/>
</g>
<!-- Node25 -->
<g id="node61" class="node"><title>Node25</title>
<a xlink:href="odstring_8h.html" target="_top" xlink:title="odstring.h">
<polygon fill="white" stroke="black" points="171.5,-232.5 171.5,-253.5 230.5,-253.5 230.5,-232.5 171.5,-232.5"/>
<text text-anchor="middle" x="201" y="-240.5" font-family="Helvetica,sans-Serif" font-size="10.00">odstring.h</text>
</a>
</g>
<!-- Node24&#45;&gt;Node25 -->
<g id="edge72" class="edge"><title>Node24&#45;&gt;Node25</title>
<path fill="none" stroke="midnightblue" d="M187.935,-290.362C190.01,-282.84 192.857,-272.519 195.364,-263.431"/>
<polygon fill="midnightblue" stroke="midnightblue" points="198.799,-264.141 198.084,-253.571 192.051,-262.28 198.799,-264.141"/>
</g>
<!-- Node25&#45;&gt;Node4 -->
<g id="edge74" class="edge"><title>Node25&#45;&gt;Node4</title>
<path fill="none" stroke="midnightblue" d="M196.891,-232.306C185.756,-201.334 158.581,-110.439 201,-58 222.679,-31.2007 319.054,-19.0133 376.813,-14.0287"/>
<polygon fill="midnightblue" stroke="midnightblue" points="377.442,-17.4888 387.121,-13.1798 376.868,-10.5124 377.442,-17.4888"/>
</g>
<!-- Node25&#45;&gt;Node16 -->
<g id="edge76" class="edge"><title>Node25&#45;&gt;Node16</title>
<path fill="none" stroke="midnightblue" d="M230.822,-239.588C317.555,-229.666 569.772,-200.813 668.096,-189.565"/>
<polygon fill="midnightblue" stroke="midnightblue" points="668.678,-193.021 678.215,-188.407 667.882,-186.067 668.678,-193.021"/>
</g>
<!-- Node26&#45;&gt;Node4 -->
<g id="edge80" class="edge"><title>Node26&#45;&gt;Node4</title>
<path fill="none" stroke="midnightblue" d="M341.055,-116.362C349.108,-102.498 364.069,-77.7029 379,-58 386.513,-48.0859 395.635,-37.7095 403.455,-29.236"/>
<polygon fill="midnightblue" stroke="midnightblue" points="406.169,-31.4592 410.46,-21.7722 401.065,-26.6689 406.169,-31.4592"/>
</g>
<!-- Node26&#45;&gt;Node7 -->
<g id="edge84" class="edge"><title>Node26&#45;&gt;Node7</title>
<path fill="none" stroke="midnightblue" d="M362.202,-123.104C429.095,-113.525 602.45,-88.6985 689.116,-76.2872"/>
<polygon fill="midnightblue" stroke="midnightblue" points="689.839,-79.7194 699.242,-74.837 688.847,-72.79 689.839,-79.7194"/>
</g>
<!-- Node26&#45;&gt;Node11 -->
<g id="edge82" class="edge"><title>Node26&#45;&gt;Node11</title>
<path fill="none" stroke="midnightblue" d="M362.102,-121.386C411.819,-111.088 517.781,-89.1382 575.512,-77.1797"/>
<polygon fill="midnightblue" stroke="midnightblue" points="576.284,-80.5941 585.366,-75.1384 574.864,-73.7396 576.284,-80.5941"/>
</g>
<!-- Node27 -->
<g id="node70" class="node"><title>Node27</title>
<polygon fill="white" stroke="#bfbfbf" points="283.5,-58.5 283.5,-79.5 332.5,-79.5 332.5,-58.5 283.5,-58.5"/>
<text text-anchor="middle" x="308" y="-66.5" font-family="Helvetica,sans-Serif" font-size="10.00">ctype.h</text>
</g>
<!-- Node26&#45;&gt;Node27 -->
<g id="edge86" class="edge"><title>Node26&#45;&gt;Node27</title>
<path fill="none" stroke="midnightblue" d="M330.048,-116.362C326.47,-108.677 321.532,-98.0686 317.236,-88.8399"/>
<polygon fill="midnightblue" stroke="midnightblue" points="320.314,-87.1594 312.921,-79.5707 313.968,-90.1136 320.314,-87.1594"/>
</g>
<!-- Node28 -->
<g id="node72" class="node"><title>Node28</title>
<polygon fill="white" stroke="#bfbfbf" points="210,-58.5 210,-79.5 266,-79.5 266,-58.5 210,-58.5"/>
<text text-anchor="middle" x="238" y="-66.5" font-family="Helvetica,sans-Serif" font-size="10.00">wctype.h</text>
</g>
<!-- Node26&#45;&gt;Node28 -->
<g id="edge88" class="edge"><title>Node26&#45;&gt;Node28</title>
<path fill="none" stroke="midnightblue" d="M317.209,-116.362C302.441,-107.532 281.222,-94.844 264.462,-84.8224"/>
<polygon fill="midnightblue" stroke="midnightblue" points="266.057,-81.6987 255.679,-79.5707 262.465,-87.7066 266.057,-81.6987"/>
</g>
<!-- Node31&#45;&gt;Node14 -->
<g id="edge106" class="edge"><title>Node31&#45;&gt;Node14</title>
<path fill="none" stroke="midnightblue" d="M611,-580.362C611,-572.922 611,-562.743 611,-553.728"/>
<polygon fill="midnightblue" stroke="midnightblue" points="614.5,-553.571 611,-543.571 607.5,-553.571 614.5,-553.571"/>
</g>
<!-- Node32 -->
<g id="node82" class="node"><title>Node32</title>
<a xlink:href="typeset_8h.html" target="_top" xlink:title="typeset.h">
<polygon fill="white" stroke="black" points="660.5,-522.5 660.5,-543.5 717.5,-543.5 717.5,-522.5 660.5,-522.5"/>
<text text-anchor="middle" x="689" y="-530.5" font-family="Helvetica,sans-Serif" font-size="10.00">typeset.h</text>
</a>
</g>
<!-- Node31&#45;&gt;Node32 -->
<g id="edge100" class="edge"><title>Node31&#45;&gt;Node32</title>
<path fill="none" stroke="midnightblue" d="M625.306,-580.362C636.851,-571.777 653.3,-559.546 666.59,-549.664"/>
<polygon fill="midnightblue" stroke="midnightblue" points="668.848,-552.346 674.784,-543.571 664.671,-546.729 668.848,-552.346"/>
</g>
<!-- Node32&#45;&gt;Node15 -->
<g id="edge102" class="edge"><title>Node32&#45;&gt;Node15</title>
<path fill="none" stroke="midnightblue" d="M692.301,-522.362C694.661,-514.758 697.909,-504.294 700.751,-495.135"/>
<polygon fill="midnightblue" stroke="midnightblue" points="704.098,-496.159 703.719,-485.571 697.413,-494.084 704.098,-496.159"/>
</g>
<!-- Node32&#45;&gt;Node21 -->
<g id="edge104" class="edge"><title>Node32&#45;&gt;Node21</title>
<path fill="none" stroke="midnightblue" d="M677.078,-522.362C667.641,-513.941 654.27,-502.011 643.31,-492.231"/>
<polygon fill="midnightblue" stroke="midnightblue" points="645.638,-489.617 635.846,-485.571 640.978,-494.84 645.638,-489.617"/>
</g>
<!-- Node33&#45;&gt;Node4 -->
<g id="edge110" class="edge"><title>Node33&#45;&gt;Node4</title>
<path fill="none" stroke="midnightblue" d="M664.87,-116.301C666.844,-101.205 667.886,-73.7433 653,-58 627.829,-31.3799 525.185,-19.0417 465.192,-14.0042"/>
<polygon fill="midnightblue" stroke="midnightblue" points="465.121,-10.4873 454.873,-13.1743 464.56,-17.4648 465.121,-10.4873"/>
</g>
<!-- Node33&#45;&gt;Node7 -->
<g id="edge112" class="edge"><title>Node33&#45;&gt;Node7</title>
<path fill="none" stroke="midnightblue" d="M677.123,-116.362C688.52,-107.777 704.758,-95.5459 717.878,-85.6636"/>
<polygon fill="midnightblue" stroke="midnightblue" points="720.085,-88.3829 725.967,-79.5707 715.873,-82.7916 720.085,-88.3829"/>
</g>
<!-- Node33&#45;&gt;Node11 -->
<g id="edge114" class="edge"><title>Node33&#45;&gt;Node11</title>
<path fill="none" stroke="midnightblue" d="M654.196,-116.362C647.498,-108.268 638.116,-96.9318 630.211,-87.3796"/>
<polygon fill="midnightblue" stroke="midnightblue" points="632.82,-85.0431 623.748,-79.5707 627.427,-89.5061 632.82,-85.0431"/>
</g>
</g>
</svg>
