<?xml version="1.0" encoding="UTF-8" standalone="no"?>
<!DOCTYPE svg PUBLIC "-//W3C//DTD SVG 1.1//EN"
 "http://www.w3.org/Graphics/SVG/1.1/DTD/svg11.dtd">
<!-- Generated by graphviz version 2.26.0 (20091210.2329)
 -->
<!-- Title: nrbytes2string.h Pages: 1 -->
<svg width="389pt" height="378pt"
 viewBox="0.00 0.00 389.00 378.00" xmlns="http://www.w3.org/2000/svg" xmlns:xlink="http://www.w3.org/1999/xlink">
<g id="graph1" class="graph" transform="scale(1 1) rotate(0) translate(4 374)">
<title>nrbytes2string.h</title>
<polygon fill="white" stroke="white" points="-4,5 -4,-374 386,-374 386,5 -4,5"/>
<!-- Node1 -->
<g id="node1" class="node"><title>Node1</title>
<polygon fill="#bfbfbf" stroke="black" points="295,-348.5 295,-369.5 381,-369.5 381,-348.5 295,-348.5"/>
<text text-anchor="middle" x="338" y="-356.5" font-family="Helvetica,sans-Serif" font-size="10.00">nrbytes2string.h</text>
</g>
<!-- Node2 -->
<g id="node3" class="node"><title>Node2</title>
<polygon fill="white" stroke="#bfbfbf" points="278.5,-0.5 278.5,-21.5 345.5,-21.5 345.5,-0.5 278.5,-0.5"/>
<text text-anchor="middle" x="312" y="-8.5" font-family="Helvetica,sans-Serif" font-size="10.00">basicmod.h</text>
</g>
<!-- Node1&#45;&gt;Node2 -->
<g id="edge2" class="edge"><title>Node1&#45;&gt;Node2</title>
<path fill="none" stroke="midnightblue" d="M343,-348.396C352,-328.305 370,-283.111 370,-243 370,-243 370,-243 370,-127 370,-89.233 345.1,-51.1576 327.93,-29.3915"/>
<polygon fill="midnightblue" stroke="midnightblue" points="330.618,-27.1492 321.578,-21.6246 325.2,-31.5811 330.618,-27.1492"/>
</g>
<!-- Node3 -->
<g id="node5" class="node"><title>Node3</title>
<a xlink:href="fixedstring_8h.html" target="_top" xlink:title="fixedstring.h">
<polygon fill="white" stroke="black" points="272,-290.5 272,-311.5 342,-311.5 342,-290.5 272,-290.5"/>
<text text-anchor="middle" x="307" y="-298.5" font-family="Helvetica,sans-Serif" font-size="10.00">fixedstring.h</text>
</a>
</g>
<!-- Node1&#45;&gt;Node3 -->
<g id="edge4" class="edge"><title>Node1&#45;&gt;Node3</title>
<path fill="none" stroke="midnightblue" d="M332.314,-348.362C328.163,-340.595 322.416,-329.843 317.447,-320.546"/>
<polygon fill="midnightblue" stroke="midnightblue" points="320.45,-318.74 312.65,-311.571 314.277,-322.04 320.45,-318.74"/>
</g>
<!-- Node3&#45;&gt;Node2 -->
<g id="edge6" class="edge"><title>Node3&#45;&gt;Node2</title>
<path fill="none" stroke="midnightblue" d="M310.906,-290.291C317.938,-270.027 332,-224.554 332,-185 332,-185 332,-185 332,-127 332,-93.1273 323.616,-54.4892 317.704,-31.4562"/>
<polygon fill="midnightblue" stroke="midnightblue" points="321.08,-30.5309 315.125,-21.768 314.316,-32.3319 321.08,-30.5309"/>
</g>
<!-- Node4 -->
<g id="node8" class="node"><title>Node4</title>
<a xlink:href="odstring_8h.html" target="_top" xlink:title="odstring.h">
<polygon fill="white" stroke="black" points="245.5,-232.5 245.5,-253.5 304.5,-253.5 304.5,-232.5 245.5,-232.5"/>
<text text-anchor="middle" x="275" y="-240.5" font-family="Helvetica,sans-Serif" font-size="10.00">odstring.h</text>
</a>
</g>
<!-- Node3&#45;&gt;Node4 -->
<g id="edge8" class="edge"><title>Node3&#45;&gt;Node4</title>
<path fill="none" stroke="midnightblue" d="M301.131,-290.362C296.845,-282.595 290.913,-271.843 285.784,-262.546"/>
<polygon fill="midnightblue" stroke="midnightblue" points="288.727,-260.636 280.832,-253.571 282.598,-264.017 288.727,-260.636"/>
</g>
<!-- Node4&#45;&gt;Node2 -->
<g id="edge10" class="edge"><title>Node4&#45;&gt;Node2</title>
<path fill="none" stroke="midnightblue" d="M276.686,-232.429C282.392,-196.648 301.049,-79.6628 308.691,-31.7481"/>
<polygon fill="midnightblue" stroke="midnightblue" points="312.185,-32.06 310.304,-21.6335 305.273,-30.9575 312.185,-32.06"/>
</g>
<!-- Node5 -->
<g id="node11" class="node"><title>Node5</title>
<a xlink:href="gendefs_8h.html" target="_top" xlink:title="gendefs.h">
<polygon fill="white" stroke="black" points="131.5,-174.5 131.5,-195.5 190.5,-195.5 190.5,-174.5 131.5,-174.5"/>
<text text-anchor="middle" x="161" y="-182.5" font-family="Helvetica,sans-Serif" font-size="10.00">gendefs.h</text>
</a>
</g>
<!-- Node4&#45;&gt;Node5 -->
<g id="edge12" class="edge"><title>Node4&#45;&gt;Node5</title>
<path fill="none" stroke="midnightblue" d="M254.355,-232.497C236.63,-223.479 210.855,-210.365 190.877,-200.201"/>
<polygon fill="midnightblue" stroke="midnightblue" points="192.376,-197.036 181.876,-195.621 189.202,-203.275 192.376,-197.036"/>
</g>
<!-- Node6 -->
<g id="node13" class="node"><title>Node6</title>
<a xlink:href="undefval_8h.html" target="_top" xlink:title="undefval.h">
<polygon fill="white" stroke="black" points="176,-116.5 176,-137.5 238,-137.5 238,-116.5 176,-116.5"/>
<text text-anchor="middle" x="207" y="-124.5" font-family="Helvetica,sans-Serif" font-size="10.00">undefval.h</text>
</a>
</g>
<!-- Node5&#45;&gt;Node6 -->
<g id="edge14" class="edge"><title>Node5&#45;&gt;Node6</title>
<path fill="none" stroke="midnightblue" d="M169.437,-174.362C175.792,-166.35 184.666,-155.161 192.193,-145.67"/>
<polygon fill="midnightblue" stroke="midnightblue" points="195.145,-147.581 198.616,-137.571 189.66,-143.231 195.145,-147.581"/>
</g>
<!-- Node13 -->
<g id="node30" class="node"><title>Node13</title>
<a xlink:href="commontypes_8h.html" target="_top" xlink:title="commontypes.h">
<polygon fill="white" stroke="black" points="72,-116.5 72,-137.5 158,-137.5 158,-116.5 72,-116.5"/>
<text text-anchor="middle" x="115" y="-124.5" font-family="Helvetica,sans-Serif" font-size="10.00">commontypes.h</text>
</a>
</g>
<!-- Node5&#45;&gt;Node13 -->
<g id="edge34" class="edge"><title>Node5&#45;&gt;Node13</title>
<path fill="none" stroke="midnightblue" d="M152.563,-174.362C146.208,-166.35 137.334,-155.161 129.807,-145.67"/>
<polygon fill="midnightblue" stroke="midnightblue" points="132.34,-143.231 123.384,-137.571 126.855,-147.581 132.34,-143.231"/>
</g>
<!-- Node14 -->
<g id="node33" class="node"><title>Node14</title>
<a xlink:href="errmsg_8h.html" target="_top" xlink:title="errmsg.h">
<polygon fill="white" stroke="black" points="-0.5,-116.5 -0.5,-137.5 54.5,-137.5 54.5,-116.5 -0.5,-116.5"/>
<text text-anchor="middle" x="27" y="-124.5" font-family="Helvetica,sans-Serif" font-size="10.00">errmsg.h</text>
</a>
</g>
<!-- Node5&#45;&gt;Node14 -->
<g id="edge38" class="edge"><title>Node5&#45;&gt;Node14</title>
<path fill="none" stroke="midnightblue" d="M136.734,-174.497C115.522,-165.315 84.5019,-151.889 60.8502,-141.652"/>
<polygon fill="midnightblue" stroke="midnightblue" points="62.1062,-138.381 51.5387,-137.621 59.3256,-144.806 62.1062,-138.381"/>
</g>
<!-- Node6&#45;&gt;Node2 -->
<g id="edge16" class="edge"><title>Node6&#45;&gt;Node2</title>
<path fill="none" stroke="midnightblue" d="M216.69,-116.295C234.661,-96.4408 273.341,-53.709 295.504,-29.2239"/>
<polygon fill="midnightblue" stroke="midnightblue" points="298.217,-31.4419 302.333,-21.6792 293.028,-26.7443 298.217,-31.4419"/>
</g>
<!-- Node7 -->
<g id="node16" class="node"><title>Node7</title>
<a xlink:href="commondefs_8h.html" target="_top" xlink:title="commondefs.h">
<polygon fill="white" stroke="black" points="71.5,-58.5 71.5,-79.5 152.5,-79.5 152.5,-58.5 71.5,-58.5"/>
<text text-anchor="middle" x="112" y="-66.5" font-family="Helvetica,sans-Serif" font-size="10.00">commondefs.h</text>
</a>
</g>
<!-- Node6&#45;&gt;Node7 -->
<g id="edge18" class="edge"><title>Node6&#45;&gt;Node7</title>
<path fill="none" stroke="midnightblue" d="M189.576,-116.362C175.113,-107.532 154.331,-94.844 137.916,-84.8224"/>
<polygon fill="midnightblue" stroke="midnightblue" points="139.673,-81.7943 129.314,-79.5707 136.025,-87.7688 139.673,-81.7943"/>
</g>
<!-- Node11 -->
<g id="node25" class="node"><title>Node11</title>
<a xlink:href="plftypes_8h.html" target="_top" xlink:title="plftypes.h">
<polygon fill="white" stroke="black" points="169.5,-58.5 169.5,-79.5 228.5,-79.5 228.5,-58.5 169.5,-58.5"/>
<text text-anchor="middle" x="199" y="-66.5" font-family="Helvetica,sans-Serif" font-size="10.00">plftypes.h</text>
</a>
</g>
<!-- Node6&#45;&gt;Node11 -->
<g id="edge28" class="edge"><title>Node6&#45;&gt;Node11</title>
<path fill="none" stroke="midnightblue" d="M205.533,-116.362C204.506,-108.922 203.102,-98.7427 201.859,-89.7276"/>
<polygon fill="midnightblue" stroke="midnightblue" points="205.292,-88.9986 200.458,-79.5707 198.357,-89.9551 205.292,-88.9986"/>
</g>
<!-- Node7&#45;&gt;Node2 -->
<g id="edge20" class="edge"><title>Node7&#45;&gt;Node2</title>
<path fill="none" stroke="midnightblue" d="M148.218,-58.4966C182.07,-48.6796 232.659,-34.009 268.644,-23.5731"/>
<polygon fill="midnightblue" stroke="midnightblue" points="269.751,-26.8964 278.381,-20.7495 267.802,-20.1733 269.751,-26.8964"/>
</g>
<!-- Node8 -->
<g id="node19" class="node"><title>Node8</title>
<a xlink:href="plfdefs_8h.html" target="_top" xlink:title="plfdefs.h">
<polygon fill="white" stroke="black" points="141,-0.5 141,-21.5 195,-21.5 195,-0.5 141,-0.5"/>
<text text-anchor="middle" x="168" y="-8.5" font-family="Helvetica,sans-Serif" font-size="10.00">plfdefs.h</text>
</a>
</g>
<!-- Node7&#45;&gt;Node8 -->
<g id="edge22" class="edge"><title>Node7&#45;&gt;Node8</title>
<path fill="none" stroke="midnightblue" d="M122.271,-58.3619C130.244,-50.1043 141.475,-38.4725 150.811,-28.8029"/>
<polygon fill="midnightblue" stroke="midnightblue" points="153.366,-31.1958 157.794,-21.5707 148.33,-26.3336 153.366,-31.1958"/>
</g>
<!-- Node9 -->
<g id="node21" class="node"><title>Node9</title>
<polygon fill="white" stroke="#bfbfbf" points="64.5,-0.5 64.5,-21.5 123.5,-21.5 123.5,-0.5 64.5,-0.5"/>
<text text-anchor="middle" x="94" y="-8.5" font-family="Helvetica,sans-Serif" font-size="10.00">stdexcept</text>
</g>
<!-- Node7&#45;&gt;Node9 -->
<g id="edge24" class="edge"><title>Node7&#45;&gt;Node9</title>
<path fill="none" stroke="midnightblue" d="M108.699,-58.3619C106.339,-50.7584 103.091,-40.294 100.249,-31.1349"/>
<polygon fill="midnightblue" stroke="midnightblue" points="103.587,-30.0839 97.2805,-21.5707 96.9019,-32.1587 103.587,-30.0839"/>
</g>
<!-- Node10 -->
<g id="node23" class="node"><title>Node10</title>
<polygon fill="white" stroke="#bfbfbf" points="12.5,-0.5 12.5,-21.5 47.5,-21.5 47.5,-0.5 12.5,-0.5"/>
<text text-anchor="middle" x="30" y="-8.5" font-family="Helvetica,sans-Serif" font-size="10.00">new</text>
</g>
<!-- Node7&#45;&gt;Node10 -->
<g id="edge26" class="edge"><title>Node7&#45;&gt;Node10</title>
<path fill="none" stroke="midnightblue" d="M96.9599,-58.3619C84.7075,-49.6955 67.2005,-37.3126 53.1606,-27.3819"/>
<polygon fill="midnightblue" stroke="midnightblue" points="55.13,-24.4879 44.9447,-21.5707 51.0877,-30.2028 55.13,-24.4879"/>
</g>
<!-- Node11&#45;&gt;Node8 -->
<g id="edge30" class="edge"><title>Node11&#45;&gt;Node8</title>
<path fill="none" stroke="midnightblue" d="M193.314,-58.3619C189.163,-50.5949 183.416,-39.8426 178.447,-30.5458"/>
<polygon fill="midnightblue" stroke="midnightblue" points="181.45,-28.7401 173.65,-21.5707 175.277,-32.0398 181.45,-28.7401"/>
</g>
<!-- Node12 -->
<g id="node28" class="node"><title>Node12</title>
<polygon fill="white" stroke="#bfbfbf" points="212.5,-0.5 212.5,-21.5 261.5,-21.5 261.5,-0.5 212.5,-0.5"/>
<text text-anchor="middle" x="237" y="-8.5" font-family="Helvetica,sans-Serif" font-size="10.00">stdint.h</text>
</g>
<!-- Node11&#45;&gt;Node12 -->
<g id="edge32" class="edge"><title>Node11&#45;&gt;Node12</title>
<path fill="none" stroke="midnightblue" d="M205.97,-58.3619C211.166,-50.4313 218.401,-39.3885 224.578,-29.9606"/>
<polygon fill="midnightblue" stroke="midnightblue" points="227.522,-31.8534 230.074,-21.5707 221.666,-28.0172 227.522,-31.8534"/>
</g>
<!-- Node13&#45;&gt;Node7 -->
<g id="edge36" class="edge"><title>Node13&#45;&gt;Node7</title>
<path fill="none" stroke="midnightblue" d="M114.45,-116.362C114.065,-108.922 113.538,-98.7427 113.072,-89.7276"/>
<polygon fill="midnightblue" stroke="midnightblue" points="116.559,-89.3765 112.547,-79.5707 109.568,-89.7381 116.559,-89.3765"/>
</g>
<!-- Node14&#45;&gt;Node7 -->
<g id="edge40" class="edge"><title>Node14&#45;&gt;Node7</title>
<path fill="none" stroke="midnightblue" d="M42.5903,-116.362C55.291,-107.696 73.4385,-95.3126 87.9921,-85.3819"/>
<polygon fill="midnightblue" stroke="midnightblue" points="90.221,-88.0982 96.5085,-79.5707 86.2755,-82.316 90.221,-88.0982"/>
</g>
<!-- Node15 -->
<g id="node36" class="node"><title>Node15</title>
<polygon fill="white" stroke="#bfbfbf" points="1.5,-58.5 1.5,-79.5 52.5,-79.5 52.5,-58.5 1.5,-58.5"/>
<text text-anchor="middle" x="27" y="-66.5" font-family="Helvetica,sans-Serif" font-size="10.00">typeinfo</text>
</g>
<!-- Node14&#45;&gt;Node15 -->
<g id="edge42" class="edge"><title>Node14&#45;&gt;Node15</title>
<path fill="none" stroke="midnightblue" d="M27,-116.362C27,-108.922 27,-98.7427 27,-89.7276"/>
<polygon fill="midnightblue" stroke="midnightblue" points="30.5001,-89.5706 27,-79.5707 23.5001,-89.5707 30.5001,-89.5706"/>
</g>
</g>
</svg>
