<?xml version="1.0" encoding="UTF-8" standalone="no"?>
<!DOCTYPE svg PUBLIC "-//W3C//DTD SVG 1.1//EN"
 "http://www.w3.org/Graphics/SVG/1.1/DTD/svg11.dtd">
<!-- Generated by graphviz version 2.26.0 (20091210.2329)
 -->
<!-- Title: objdisposer.h Pages: 1 -->
<svg width="854pt" height="726pt"
 viewBox="0.00 0.00 854.00 726.00" xmlns="http://www.w3.org/2000/svg" xmlns:xlink="http://www.w3.org/1999/xlink">
<g id="graph1" class="graph" transform="scale(1 1) rotate(0) translate(4 722)">
<title>objdisposer.h</title>
<polygon fill="white" stroke="white" points="-4,5 -4,-722 851,-722 851,5 -4,5"/>
<!-- Node1 -->
<g id="node1" class="node"><title>Node1</title>
<polygon fill="#bfbfbf" stroke="black" points="316,-696.5 316,-717.5 390,-717.5 390,-696.5 316,-696.5"/>
<text text-anchor="middle" x="353" y="-704.5" font-family="Helvetica,sans-Serif" font-size="10.00">objdisposer.h</text>
</g>
<!-- Node2 -->
<g id="node3" class="node"><title>Node2</title>
<polygon fill="white" stroke="#bfbfbf" points="538.5,-0.5 538.5,-21.5 605.5,-21.5 605.5,-0.5 538.5,-0.5"/>
<text text-anchor="middle" x="572" y="-8.5" font-family="Helvetica,sans-Serif" font-size="10.00">basicmod.h</text>
</g>
<!-- Node1&#45;&gt;Node2 -->
<g id="edge2" class="edge"><title>Node1&#45;&gt;Node2</title>
<path fill="none" stroke="midnightblue" d="M390.055,-706.207C504.708,-702.762 846,-684.643 846,-591 846,-591 846,-591 846,-127 846,-92.4103 837.694,-78.7244 810,-58 779.877,-35.4573 675.876,-21.4876 615.79,-15.1045"/>
<polygon fill="midnightblue" stroke="midnightblue" points="616.133,-11.6213 605.825,-14.0726 615.412,-18.5841 616.133,-11.6213"/>
</g>
<!-- Node3 -->
<g id="node5" class="node"><title>Node3</title>
<a xlink:href="callback_8h.html" target="_top" xlink:title="callback.h">
<polygon fill="white" stroke="black" points="322.5,-638.5 322.5,-659.5 383.5,-659.5 383.5,-638.5 322.5,-638.5"/>
<text text-anchor="middle" x="353" y="-646.5" font-family="Helvetica,sans-Serif" font-size="10.00">callback.h</text>
</a>
</g>
<!-- Node1&#45;&gt;Node3 -->
<g id="edge4" class="edge"><title>Node1&#45;&gt;Node3</title>
<path fill="none" stroke="midnightblue" d="M353,-696.362C353,-688.922 353,-678.743 353,-669.728"/>
<polygon fill="midnightblue" stroke="midnightblue" points="356.5,-669.571 353,-659.571 349.5,-669.571 356.5,-669.571"/>
</g>
<!-- Node30 -->
<g id="node79" class="node"><title>Node30</title>
<a xlink:href="sets_8h.html" target="_top" xlink:title="sets.h">
<polygon fill="white" stroke="black" points="232,-580.5 232,-601.5 276,-601.5 276,-580.5 232,-580.5"/>
<text text-anchor="middle" x="254" y="-588.5" font-family="Helvetica,sans-Serif" font-size="10.00">sets.h</text>
</a>
</g>
<!-- Node1&#45;&gt;Node30 -->
<g id="edge116" class="edge"><title>Node1&#45;&gt;Node30</title>
<path fill="none" stroke="midnightblue" d="M343.864,-696.295C326.993,-676.527 290.767,-634.08 269.827,-609.544"/>
<polygon fill="midnightblue" stroke="midnightblue" points="272.268,-607.014 263.114,-601.679 266.944,-611.558 272.268,-607.014"/>
</g>
<!-- Node3&#45;&gt;Node2 -->
<g id="edge6" class="edge"><title>Node3&#45;&gt;Node2</title>
<path fill="none" stroke="midnightblue" d="M383.56,-647.804C485.577,-642.993 808,-620.838 808,-533 808,-533 808,-533 808,-127 808,-95.1919 812.106,-79.86 789,-58 764.419,-34.7442 671.486,-21.2804 615.519,-15.116"/>
<polygon fill="midnightblue" stroke="midnightblue" points="615.839,-11.6303 605.524,-14.0492 615.096,-18.5908 615.839,-11.6303"/>
</g>
<!-- Node4 -->
<g id="node8" class="node"><title>Node4</title>
<a xlink:href="refcount_8h.html" target="_top" xlink:title="refcount.h">
<polygon fill="white" stroke="black" points="294,-580.5 294,-601.5 354,-601.5 354,-580.5 294,-580.5"/>
<text text-anchor="middle" x="324" y="-588.5" font-family="Helvetica,sans-Serif" font-size="10.00">refcount.h</text>
</a>
</g>
<!-- Node3&#45;&gt;Node4 -->
<g id="edge8" class="edge"><title>Node3&#45;&gt;Node4</title>
<path fill="none" stroke="midnightblue" d="M347.681,-638.362C343.797,-630.595 338.421,-619.843 333.773,-610.546"/>
<polygon fill="midnightblue" stroke="midnightblue" points="336.888,-608.95 329.285,-601.571 330.627,-612.08 336.888,-608.95"/>
</g>
<!-- Node3&#45;&gt;Node30 -->
<g id="edge98" class="edge"><title>Node3&#45;&gt;Node30</title>
<path fill="none" stroke="midnightblue" d="M334.842,-638.362C319.77,-629.532 298.113,-616.844 281.007,-606.822"/>
<polygon fill="midnightblue" stroke="midnightblue" points="282.441,-603.606 272.043,-601.571 278.902,-609.646 282.441,-603.606"/>
</g>
<!-- Node32 -->
<g id="node86" class="node"><title>Node32</title>
<a xlink:href="threadlock_8h.html" target="_top" xlink:title="threadlock.h">
<polygon fill="white" stroke="black" points="284,-116.5 284,-137.5 354,-137.5 354,-116.5 284,-116.5"/>
<text text-anchor="middle" x="319" y="-124.5" font-family="Helvetica,sans-Serif" font-size="10.00">threadlock.h</text>
</a>
</g>
<!-- Node3&#45;&gt;Node32 -->
<g id="edge108" class="edge"><title>Node3&#45;&gt;Node32</title>
<path fill="none" stroke="midnightblue" d="M357.531,-638.348C365.688,-618.178 382,-572.857 382,-533 382,-533 382,-533 382,-243 382,-204.762 355.238,-167.092 336.599,-145.493"/>
<polygon fill="midnightblue" stroke="midnightblue" points="338.966,-142.89 329.687,-137.777 333.752,-147.561 338.966,-142.89"/>
</g>
<!-- Node5 -->
<g id="node10" class="node"><title>Node5</title>
<a xlink:href="atomic_8h.html" target="_top" xlink:title="atomic.h">
<polygon fill="white" stroke="black" points="676,-116.5 676,-137.5 730,-137.5 730,-116.5 676,-116.5"/>
<text text-anchor="middle" x="703" y="-124.5" font-family="Helvetica,sans-Serif" font-size="10.00">atomic.h</text>
</a>
</g>
<!-- Node4&#45;&gt;Node5 -->
<g id="edge10" class="edge"><title>Node4&#45;&gt;Node5</title>
<path fill="none" stroke="midnightblue" d="M354.279,-588.091C442.645,-578.772 694,-546.022 694,-475 694,-475 694,-475 694,-243 694,-209.497 697.778,-170.715 700.438,-147.557"/>
<polygon fill="midnightblue" stroke="midnightblue" points="703.925,-147.879 701.633,-137.535 696.974,-147.05 703.925,-147.879"/>
</g>
<!-- Node13 -->
<g id="node29" class="node"><title>Node13</title>
<a xlink:href="objectset_8h.html" target="_top" xlink:title="objectset.h">
<polygon fill="white" stroke="black" points="237.5,-522.5 237.5,-543.5 302.5,-543.5 302.5,-522.5 237.5,-522.5"/>
<text text-anchor="middle" x="270" y="-530.5" font-family="Helvetica,sans-Serif" font-size="10.00">objectset.h</text>
</a>
</g>
<!-- Node4&#45;&gt;Node13 -->
<g id="edge32" class="edge"><title>Node4&#45;&gt;Node13</title>
<path fill="none" stroke="midnightblue" d="M314.096,-580.362C306.484,-572.186 295.792,-560.702 286.843,-551.091"/>
<polygon fill="midnightblue" stroke="midnightblue" points="289.217,-548.505 279.842,-543.571 284.094,-553.275 289.217,-548.505"/>
</g>
<!-- Node5&#45;&gt;Node2 -->
<g id="edge12" class="edge"><title>Node5&#45;&gt;Node2</title>
<path fill="none" stroke="midnightblue" d="M698.917,-116.435C692.799,-101.749 680.013,-75.0507 662,-58 647.418,-44.1972 627.995,-33.3724 610.925,-25.6083"/>
<polygon fill="midnightblue" stroke="midnightblue" points="612.296,-22.3879 601.73,-21.6102 609.505,-28.8074 612.296,-22.3879"/>
</g>
<!-- Node6 -->
<g id="node13" class="node"><title>Node6</title>
<a xlink:href="commondefs_8h.html" target="_top" xlink:title="commondefs.h">
<polygon fill="white" stroke="black" points="95.5,-58.5 95.5,-79.5 176.5,-79.5 176.5,-58.5 95.5,-58.5"/>
<text text-anchor="middle" x="136" y="-66.5" font-family="Helvetica,sans-Serif" font-size="10.00">commondefs.h</text>
</a>
</g>
<!-- Node5&#45;&gt;Node6 -->
<g id="edge14" class="edge"><title>Node5&#45;&gt;Node6</title>
<path fill="none" stroke="midnightblue" d="M675.907,-124.617C602.773,-118.125 395.245,-99.318 223,-80 211.298,-78.6876 198.726,-77.1641 186.877,-75.677"/>
<polygon fill="midnightblue" stroke="midnightblue" points="187.052,-72.1712 176.691,-74.3856 186.172,-79.1156 187.052,-72.1712"/>
</g>
<!-- Node10 -->
<g id="node22" class="node"><title>Node10</title>
<a xlink:href="plftypes_8h.html" target="_top" xlink:title="plftypes.h">
<polygon fill="white" stroke="black" points="231.5,-58.5 231.5,-79.5 290.5,-79.5 290.5,-58.5 231.5,-58.5"/>
<text text-anchor="middle" x="261" y="-66.5" font-family="Helvetica,sans-Serif" font-size="10.00">plftypes.h</text>
</a>
</g>
<!-- Node5&#45;&gt;Node10 -->
<g id="edge24" class="edge"><title>Node5&#45;&gt;Node10</title>
<path fill="none" stroke="midnightblue" d="M675.89,-123.67C615.169,-116.177 463.631,-97.2937 337,-80 325.149,-78.3815 312.27,-76.5464 300.539,-74.8453"/>
<polygon fill="midnightblue" stroke="midnightblue" points="300.981,-71.3727 290.58,-73.3937 299.971,-78.2995 300.981,-71.3727"/>
</g>
<!-- Node12 -->
<g id="node27" class="node"><title>Node12</title>
<polygon fill="white" stroke="#bfbfbf" points="713.5,-58.5 713.5,-79.5 780.5,-79.5 780.5,-58.5 713.5,-58.5"/>
<text text-anchor="middle" x="747" y="-66.5" font-family="Helvetica,sans-Serif" font-size="10.00">odversion.h</text>
</g>
<!-- Node5&#45;&gt;Node12 -->
<g id="edge30" class="edge"><title>Node5&#45;&gt;Node12</title>
<path fill="none" stroke="midnightblue" d="M711.07,-116.362C717.149,-108.35 725.637,-97.1605 732.837,-87.6696"/>
<polygon fill="midnightblue" stroke="midnightblue" points="735.725,-89.653 738.981,-79.5707 730.149,-85.4222 735.725,-89.653"/>
</g>
<!-- Node6&#45;&gt;Node2 -->
<g id="edge16" class="edge"><title>Node6&#45;&gt;Node2</title>
<path fill="none" stroke="midnightblue" d="M176.627,-60.3681C181.13,-59.5175 185.656,-58.7085 190,-58 311.849,-38.125 456.798,-22.4565 528.031,-15.2755"/>
<polygon fill="midnightblue" stroke="midnightblue" points="528.803,-18.7158 538.405,-14.2373 528.106,-11.7506 528.803,-18.7158"/>
</g>
<!-- Node7 -->
<g id="node16" class="node"><title>Node7</title>
<a xlink:href="plfdefs_8h.html" target="_top" xlink:title="plfdefs.h">
<polygon fill="white" stroke="black" points="168,-0.5 168,-21.5 222,-21.5 222,-0.5 168,-0.5"/>
<text text-anchor="middle" x="195" y="-8.5" font-family="Helvetica,sans-Serif" font-size="10.00">plfdefs.h</text>
</a>
</g>
<!-- Node6&#45;&gt;Node7 -->
<g id="edge18" class="edge"><title>Node6&#45;&gt;Node7</title>
<path fill="none" stroke="midnightblue" d="M146.822,-58.3619C155.221,-50.1043 167.054,-38.4725 176.89,-28.8029"/>
<polygon fill="midnightblue" stroke="midnightblue" points="179.569,-31.077 184.247,-21.5707 174.662,-26.0851 179.569,-31.077"/>
</g>
<!-- Node8 -->
<g id="node18" class="node"><title>Node8</title>
<polygon fill="white" stroke="#bfbfbf" points="6.5,-0.5 6.5,-21.5 65.5,-21.5 65.5,-0.5 6.5,-0.5"/>
<text text-anchor="middle" x="36" y="-8.5" font-family="Helvetica,sans-Serif" font-size="10.00">stdexcept</text>
</g>
<!-- Node6&#45;&gt;Node8 -->
<g id="edge20" class="edge"><title>Node6&#45;&gt;Node8</title>
<path fill="none" stroke="midnightblue" d="M117.658,-58.3619C102.434,-49.532 80.5585,-36.844 63.28,-26.8224"/>
<polygon fill="midnightblue" stroke="midnightblue" points="64.6316,-23.5603 54.2253,-21.5707 61.1196,-29.6155 64.6316,-23.5603"/>
</g>
<!-- Node9 -->
<g id="node20" class="node"><title>Node9</title>
<polygon fill="white" stroke="#bfbfbf" points="115.5,-0.5 115.5,-21.5 150.5,-21.5 150.5,-0.5 115.5,-0.5"/>
<text text-anchor="middle" x="133" y="-8.5" font-family="Helvetica,sans-Serif" font-size="10.00">new</text>
</g>
<!-- Node6&#45;&gt;Node9 -->
<g id="edge22" class="edge"><title>Node6&#45;&gt;Node9</title>
<path fill="none" stroke="midnightblue" d="M135.45,-58.3619C135.065,-50.9219 134.538,-40.7427 134.072,-31.7276"/>
<polygon fill="midnightblue" stroke="midnightblue" points="137.559,-31.3765 133.547,-21.5707 130.568,-31.7381 137.559,-31.3765"/>
</g>
<!-- Node10&#45;&gt;Node7 -->
<g id="edge26" class="edge"><title>Node10&#45;&gt;Node7</title>
<path fill="none" stroke="midnightblue" d="M248.895,-58.3619C239.312,-49.9408 225.736,-38.0105 214.607,-28.2308"/>
<polygon fill="midnightblue" stroke="midnightblue" points="216.851,-25.5427 207.029,-21.5707 212.23,-30.8009 216.851,-25.5427"/>
</g>
<!-- Node11 -->
<g id="node25" class="node"><title>Node11</title>
<polygon fill="white" stroke="#bfbfbf" points="239.5,-0.5 239.5,-21.5 288.5,-21.5 288.5,-0.5 239.5,-0.5"/>
<text text-anchor="middle" x="264" y="-8.5" font-family="Helvetica,sans-Serif" font-size="10.00">stdint.h</text>
</g>
<!-- Node10&#45;&gt;Node11 -->
<g id="edge28" class="edge"><title>Node10&#45;&gt;Node11</title>
<path fill="none" stroke="midnightblue" d="M261.55,-58.3619C261.935,-50.9219 262.462,-40.7427 262.928,-31.7276"/>
<polygon fill="midnightblue" stroke="midnightblue" points="266.432,-31.7381 263.453,-21.5707 259.441,-31.3765 266.432,-31.7381"/>
</g>
<!-- Node14 -->
<g id="node31" class="node"><title>Node14</title>
<a xlink:href="odset_8h.html" target="_top" xlink:title="odset.h">
<polygon fill="white" stroke="black" points="162.5,-464.5 162.5,-485.5 211.5,-485.5 211.5,-464.5 162.5,-464.5"/>
<text text-anchor="middle" x="187" y="-472.5" font-family="Helvetica,sans-Serif" font-size="10.00">odset.h</text>
</a>
</g>
<!-- Node13&#45;&gt;Node14 -->
<g id="edge34" class="edge"><title>Node13&#45;&gt;Node14</title>
<path fill="none" stroke="midnightblue" d="M254.777,-522.362C242.375,-513.696 224.654,-501.313 210.443,-491.382"/>
<polygon fill="midnightblue" stroke="midnightblue" points="212.329,-488.43 202.127,-485.571 208.319,-494.168 212.329,-488.43"/>
</g>
<!-- Node20 -->
<g id="node48" class="node"><title>Node20</title>
<a xlink:href="vectoraccess_8h.html" target="_top" xlink:title="vectoraccess.h">
<polygon fill="white" stroke="black" points="228.5,-464.5 228.5,-485.5 311.5,-485.5 311.5,-464.5 228.5,-464.5"/>
<text text-anchor="middle" x="270" y="-472.5" font-family="Helvetica,sans-Serif" font-size="10.00">vectoraccess.h</text>
</a>
</g>
<!-- Node13&#45;&gt;Node20 -->
<g id="edge56" class="edge"><title>Node13&#45;&gt;Node20</title>
<path fill="none" stroke="midnightblue" d="M270,-522.362C270,-514.922 270,-504.743 270,-495.728"/>
<polygon fill="midnightblue" stroke="midnightblue" points="273.5,-495.571 270,-485.571 266.5,-495.571 273.5,-495.571"/>
</g>
<!-- Node15 -->
<g id="node33" class="node"><title>Node15</title>
<a xlink:href="gendefs_8h.html" target="_top" xlink:title="gendefs.h">
<polygon fill="white" stroke="black" points="205.5,-174.5 205.5,-195.5 264.5,-195.5 264.5,-174.5 205.5,-174.5"/>
<text text-anchor="middle" x="235" y="-182.5" font-family="Helvetica,sans-Serif" font-size="10.00">gendefs.h</text>
</a>
</g>
<!-- Node14&#45;&gt;Node15 -->
<g id="edge36" class="edge"><title>Node14&#45;&gt;Node15</title>
<path fill="none" stroke="midnightblue" d="M184.344,-464.202C179.562,-443.79 170,-398.08 170,-359 170,-359 170,-359 170,-301 170,-262.312 197.857,-224.564 217.097,-203.107"/>
<polygon fill="midnightblue" stroke="midnightblue" points="219.727,-205.419 223.974,-195.712 214.601,-200.652 219.727,-205.419"/>
</g>
<!-- Node16 -->
<g id="node35" class="node"><title>Node16</title>
<a xlink:href="undefval_8h.html" target="_top" xlink:title="undefval.h">
<polygon fill="white" stroke="black" points="204,-116.5 204,-137.5 266,-137.5 266,-116.5 204,-116.5"/>
<text text-anchor="middle" x="235" y="-124.5" font-family="Helvetica,sans-Serif" font-size="10.00">undefval.h</text>
</a>
</g>
<!-- Node15&#45;&gt;Node16 -->
<g id="edge38" class="edge"><title>Node15&#45;&gt;Node16</title>
<path fill="none" stroke="midnightblue" d="M235,-174.362C235,-166.922 235,-156.743 235,-147.728"/>
<polygon fill="midnightblue" stroke="midnightblue" points="238.5,-147.571 235,-137.571 231.5,-147.571 238.5,-147.571"/>
</g>
<!-- Node17 -->
<g id="node40" class="node"><title>Node17</title>
<a xlink:href="commontypes_8h.html" target="_top" xlink:title="commontypes.h">
<polygon fill="white" stroke="black" points="100,-116.5 100,-137.5 186,-137.5 186,-116.5 100,-116.5"/>
<text text-anchor="middle" x="143" y="-124.5" font-family="Helvetica,sans-Serif" font-size="10.00">commontypes.h</text>
</a>
</g>
<!-- Node15&#45;&gt;Node17 -->
<g id="edge46" class="edge"><title>Node15&#45;&gt;Node17</title>
<path fill="none" stroke="midnightblue" d="M218.126,-174.362C204.249,-165.614 184.366,-153.079 168.54,-143.101"/>
<polygon fill="midnightblue" stroke="midnightblue" points="170.093,-139.943 159.767,-137.571 166.36,-145.864 170.093,-139.943"/>
</g>
<!-- Node18 -->
<g id="node43" class="node"><title>Node18</title>
<a xlink:href="errmsg_8h.html" target="_top" xlink:title="errmsg.h">
<polygon fill="white" stroke="black" points="27.5,-116.5 27.5,-137.5 82.5,-137.5 82.5,-116.5 27.5,-116.5"/>
<text text-anchor="middle" x="55" y="-124.5" font-family="Helvetica,sans-Serif" font-size="10.00">errmsg.h</text>
</a>
</g>
<!-- Node15&#45;&gt;Node18 -->
<g id="edge50" class="edge"><title>Node15&#45;&gt;Node18</title>
<path fill="none" stroke="midnightblue" d="M205.277,-175.422C174.419,-165.479 126.065,-149.899 92.5765,-139.108"/>
<polygon fill="midnightblue" stroke="midnightblue" points="93.2883,-135.66 82.6967,-135.924 91.1414,-142.323 93.2883,-135.66"/>
</g>
<!-- Node16&#45;&gt;Node2 -->
<g id="edge40" class="edge"><title>Node16&#45;&gt;Node2</title>
<path fill="none" stroke="midnightblue" d="M228.369,-116.224C220.12,-101.287 208.754,-74.2932 223,-58 242.839,-35.3105 439.189,-19.6889 528.352,-13.7091"/>
<polygon fill="midnightblue" stroke="midnightblue" points="528.673,-17.1956 538.421,-13.0443 528.212,-10.2108 528.673,-17.1956"/>
</g>
<!-- Node16&#45;&gt;Node6 -->
<g id="edge42" class="edge"><title>Node16&#45;&gt;Node6</title>
<path fill="none" stroke="midnightblue" d="M216.842,-116.362C201.77,-107.532 180.113,-94.844 163.007,-84.8224"/>
<polygon fill="midnightblue" stroke="midnightblue" points="164.441,-81.6058 154.043,-79.5707 160.902,-87.6456 164.441,-81.6058"/>
</g>
<!-- Node16&#45;&gt;Node10 -->
<g id="edge44" class="edge"><title>Node16&#45;&gt;Node10</title>
<path fill="none" stroke="midnightblue" d="M239.769,-116.362C243.214,-108.677 247.969,-98.0686 252.106,-88.8399"/>
<polygon fill="midnightblue" stroke="midnightblue" points="255.365,-90.1275 256.261,-79.5707 248.977,-87.264 255.365,-90.1275"/>
</g>
<!-- Node17&#45;&gt;Node6 -->
<g id="edge48" class="edge"><title>Node17&#45;&gt;Node6</title>
<path fill="none" stroke="midnightblue" d="M141.716,-116.362C140.818,-108.922 139.59,-98.7427 138.502,-89.7276"/>
<polygon fill="midnightblue" stroke="midnightblue" points="141.949,-89.0792 137.276,-79.5707 134.999,-89.918 141.949,-89.0792"/>
</g>
<!-- Node18&#45;&gt;Node6 -->
<g id="edge52" class="edge"><title>Node18&#45;&gt;Node6</title>
<path fill="none" stroke="midnightblue" d="M69.8566,-116.362C81.8455,-107.777 98.9273,-95.5459 112.728,-85.6636"/>
<polygon fill="midnightblue" stroke="midnightblue" points="115.145,-88.2383 121.238,-79.5707 111.069,-82.5469 115.145,-88.2383"/>
</g>
<!-- Node19 -->
<g id="node46" class="node"><title>Node19</title>
<polygon fill="white" stroke="#bfbfbf" points="27.5,-58.5 27.5,-79.5 78.5,-79.5 78.5,-58.5 27.5,-58.5"/>
<text text-anchor="middle" x="53" y="-66.5" font-family="Helvetica,sans-Serif" font-size="10.00">typeinfo</text>
</g>
<!-- Node18&#45;&gt;Node19 -->
<g id="edge54" class="edge"><title>Node18&#45;&gt;Node19</title>
<path fill="none" stroke="midnightblue" d="M54.6332,-116.362C54.3766,-108.922 54.0256,-98.7427 53.7147,-89.7276"/>
<polygon fill="midnightblue" stroke="midnightblue" points="57.2071,-89.4441 53.3645,-79.5707 50.2113,-89.6854 57.2071,-89.4441"/>
</g>
<!-- Node20&#45;&gt;Node8 -->
<g id="edge96" class="edge"><title>Node20&#45;&gt;Node8</title>
<path fill="none" stroke="midnightblue" d="M236.893,-464.438C164.795,-440.961 0,-384.509 0,-359 0,-359 0,-359 0,-127 0,-91.8911 15.2283,-53.3823 25.8762,-30.7474"/>
<polygon fill="midnightblue" stroke="midnightblue" points="29.1323,-32.0556 30.375,-21.5339 22.8421,-28.9842 29.1323,-32.0556"/>
</g>
<!-- Node20&#45;&gt;Node15 -->
<g id="edge90" class="edge"><title>Node20&#45;&gt;Node15</title>
<path fill="none" stroke="midnightblue" d="M270,-464.444C270,-444.062 270,-397.868 270,-359 270,-359 270,-359 270,-301 270,-265.976 255.195,-227.441 244.843,-204.778"/>
<polygon fill="midnightblue" stroke="midnightblue" points="247.915,-203.089 240.469,-195.552 241.59,-206.088 247.915,-203.089"/>
</g>
<!-- Node21 -->
<g id="node50" class="node"><title>Node21</title>
<a xlink:href="debug_8h.html" target="_top" xlink:title="debug.h">
<polygon fill="white" stroke="black" points="421.5,-406.5 421.5,-427.5 472.5,-427.5 472.5,-406.5 421.5,-406.5"/>
<text text-anchor="middle" x="447" y="-414.5" font-family="Helvetica,sans-Serif" font-size="10.00">debug.h</text>
</a>
</g>
<!-- Node20&#45;&gt;Node21 -->
<g id="edge58" class="edge"><title>Node20&#45;&gt;Node21</title>
<path fill="none" stroke="midnightblue" d="M302.053,-464.497C332.977,-454.364 379.68,-439.06 411.664,-428.579"/>
<polygon fill="midnightblue" stroke="midnightblue" points="413.08,-431.798 421.493,-425.358 410.9,-425.146 413.08,-431.798"/>
</g>
<!-- Node28 -->
<g id="node74" class="node"><title>Node28</title>
<polygon fill="white" stroke="#bfbfbf" points="298,-406.5 298,-427.5 354,-427.5 354,-406.5 298,-406.5"/>
<text text-anchor="middle" x="326" y="-414.5" font-family="Helvetica,sans-Serif" font-size="10.00">algorithm</text>
</g>
<!-- Node20&#45;&gt;Node28 -->
<g id="edge92" class="edge"><title>Node20&#45;&gt;Node28</title>
<path fill="none" stroke="midnightblue" d="M280.271,-464.362C288.244,-456.104 299.475,-444.472 308.811,-434.803"/>
<polygon fill="midnightblue" stroke="midnightblue" points="311.366,-437.196 315.794,-427.571 306.33,-432.334 311.366,-437.196"/>
</g>
<!-- Node29 -->
<g id="node76" class="node"><title>Node29</title>
<polygon fill="white" stroke="#bfbfbf" points="198,-406.5 198,-427.5 242,-427.5 242,-406.5 198,-406.5"/>
<text text-anchor="middle" x="220" y="-414.5" font-family="Helvetica,sans-Serif" font-size="10.00">vector</text>
</g>
<!-- Node20&#45;&gt;Node29 -->
<g id="edge94" class="edge"><title>Node20&#45;&gt;Node29</title>
<path fill="none" stroke="midnightblue" d="M260.829,-464.362C253.852,-456.268 244.079,-444.932 235.844,-435.38"/>
<polygon fill="midnightblue" stroke="midnightblue" points="238.293,-432.859 229.113,-427.571 232.991,-437.43 238.293,-432.859"/>
</g>
<!-- Node21&#45;&gt;Node2 -->
<g id="edge60" class="edge"><title>Node21&#45;&gt;Node2</title>
<path fill="none" stroke="midnightblue" d="M450.343,-406.14C467.22,-351.325 543.13,-104.771 565.67,-31.5596"/>
<polygon fill="midnightblue" stroke="midnightblue" points="569.107,-32.2916 568.704,-21.7045 562.417,-30.2318 569.107,-32.2916"/>
</g>
<!-- Node21&#45;&gt;Node15 -->
<g id="edge62" class="edge"><title>Node21&#45;&gt;Node15</title>
<path fill="none" stroke="midnightblue" d="M439.807,-406.388C430.285,-392.553 412.741,-367.788 396,-348 349.713,-293.289 334.758,-282.591 284,-232 274.185,-222.217 263.051,-211.508 253.879,-202.785"/>
<polygon fill="midnightblue" stroke="midnightblue" points="256.073,-200.043 246.407,-195.706 251.259,-205.124 256.073,-200.043"/>
</g>
<!-- Node22 -->
<g id="node54" class="node"><title>Node22</title>
<a xlink:href="bufstring_8h.html" target="_top" xlink:title="bufstring.h">
<polygon fill="white" stroke="black" points="507,-348.5 507,-369.5 569,-369.5 569,-348.5 507,-348.5"/>
<text text-anchor="middle" x="538" y="-356.5" font-family="Helvetica,sans-Serif" font-size="10.00">bufstring.h</text>
</a>
</g>
<!-- Node21&#45;&gt;Node22 -->
<g id="edge64" class="edge"><title>Node21&#45;&gt;Node22</title>
<path fill="none" stroke="midnightblue" d="M463.691,-406.362C477.416,-397.614 497.084,-385.079 512.737,-375.101"/>
<polygon fill="midnightblue" stroke="midnightblue" points="514.863,-377.897 521.415,-369.571 511.101,-371.994 514.863,-377.897"/>
</g>
<!-- Node22&#45;&gt;Node2 -->
<g id="edge66" class="edge"><title>Node22&#45;&gt;Node2</title>
<path fill="none" stroke="midnightblue" d="M559.732,-348.472C591.79,-331.242 648,-293.79 648,-243 648,-243 648,-243 648,-127 648,-86.5104 615.203,-49.1585 592.698,-28.2949"/>
<polygon fill="midnightblue" stroke="midnightblue" points="595.026,-25.681 585.238,-21.6247 590.36,-30.8993 595.026,-25.681"/>
</g>
<!-- Node23 -->
<g id="node57" class="node"><title>Node23</title>
<a xlink:href="fixedstring_8h.html" target="_top" xlink:title="fixedstring.h">
<polygon fill="white" stroke="black" points="524,-290.5 524,-311.5 594,-311.5 594,-290.5 524,-290.5"/>
<text text-anchor="middle" x="559" y="-298.5" font-family="Helvetica,sans-Serif" font-size="10.00">fixedstring.h</text>
</a>
</g>
<!-- Node22&#45;&gt;Node23 -->
<g id="edge68" class="edge"><title>Node22&#45;&gt;Node23</title>
<path fill="none" stroke="midnightblue" d="M541.852,-348.362C544.605,-340.758 548.394,-330.294 551.71,-321.135"/>
<polygon fill="midnightblue" stroke="midnightblue" points="555.059,-322.165 555.173,-311.571 548.477,-319.782 555.059,-322.165"/>
</g>
<!-- Node25 -->
<g id="node64" class="node"><title>Node25</title>
<a xlink:href="string2_8h.html" target="_top" xlink:title="string2.h">
<polygon fill="white" stroke="black" points="392,-116.5 392,-137.5 446,-137.5 446,-116.5 392,-116.5"/>
<text text-anchor="middle" x="419" y="-124.5" font-family="Helvetica,sans-Serif" font-size="10.00">string2.h</text>
</a>
</g>
<!-- Node22&#45;&gt;Node25 -->
<g id="edge78" class="edge"><title>Node22&#45;&gt;Node25</title>
<path fill="none" stroke="midnightblue" d="M532.578,-348.429C514.07,-312.346 453.204,-193.683 429.028,-146.55"/>
<polygon fill="midnightblue" stroke="midnightblue" points="432.132,-144.934 424.454,-137.634 425.904,-148.129 432.132,-144.934"/>
</g>
<!-- Node23&#45;&gt;Node2 -->
<g id="edge70" class="edge"><title>Node23&#45;&gt;Node2</title>
<path fill="none" stroke="midnightblue" d="M567.718,-290.411C574.866,-281.265 584.784,-267.439 591,-254 604.353,-225.131 610,-216.808 610,-185 610,-185 610,-185 610,-127 610,-91.7411 593.949,-53.3154 582.711,-30.7323"/>
<polygon fill="midnightblue" stroke="midnightblue" points="585.802,-29.0901 578.105,-21.809 579.582,-32.3005 585.802,-29.0901"/>
</g>
<!-- Node24 -->
<g id="node60" class="node"><title>Node24</title>
<a xlink:href="odstring_8h.html" target="_top" xlink:title="odstring.h">
<polygon fill="white" stroke="black" points="523.5,-232.5 523.5,-253.5 582.5,-253.5 582.5,-232.5 523.5,-232.5"/>
<text text-anchor="middle" x="553" y="-240.5" font-family="Helvetica,sans-Serif" font-size="10.00">odstring.h</text>
</a>
</g>
<!-- Node23&#45;&gt;Node24 -->
<g id="edge72" class="edge"><title>Node23&#45;&gt;Node24</title>
<path fill="none" stroke="midnightblue" d="M557.9,-290.362C557.13,-282.922 556.077,-272.743 555.144,-263.728"/>
<polygon fill="midnightblue" stroke="midnightblue" points="558.604,-263.157 554.094,-253.571 551.641,-263.878 558.604,-263.157"/>
</g>
<!-- Node24&#45;&gt;Node2 -->
<g id="edge74" class="edge"><title>Node24&#45;&gt;Node2</title>
<path fill="none" stroke="midnightblue" d="M553.866,-232.429C556.796,-196.648 566.377,-79.6628 570.301,-31.7481"/>
<polygon fill="midnightblue" stroke="midnightblue" points="573.801,-31.8859 571.129,-21.6335 566.825,-31.3144 573.801,-31.8859"/>
</g>
<!-- Node24&#45;&gt;Node15 -->
<g id="edge76" class="edge"><title>Node24&#45;&gt;Node15</title>
<path fill="none" stroke="midnightblue" d="M523.369,-237.596C465.969,-227.126 339.587,-204.076 274.882,-192.274"/>
<polygon fill="midnightblue" stroke="midnightblue" points="275.137,-188.763 264.672,-190.412 273.881,-195.649 275.137,-188.763"/>
</g>
<!-- Node25&#45;&gt;Node2 -->
<g id="edge80" class="edge"><title>Node25&#45;&gt;Node2</title>
<path fill="none" stroke="midnightblue" d="M433.12,-116.295C459.762,-96.0955 517.638,-52.2158 549.626,-27.9632"/>
<polygon fill="midnightblue" stroke="midnightblue" points="552.06,-30.5099 557.914,-21.6792 547.831,-24.9318 552.06,-30.5099"/>
</g>
<!-- Node25&#45;&gt;Node6 -->
<g id="edge84" class="edge"><title>Node25&#45;&gt;Node6</title>
<path fill="none" stroke="midnightblue" d="M391.865,-121.439C344.653,-111.763 246.709,-91.6895 186.635,-79.3774"/>
<polygon fill="midnightblue" stroke="midnightblue" points="187.105,-75.9011 176.606,-77.322 185.699,-82.7586 187.105,-75.9011"/>
</g>
<!-- Node25&#45;&gt;Node10 -->
<g id="edge82" class="edge"><title>Node25&#45;&gt;Node10</title>
<path fill="none" stroke="midnightblue" d="M391.839,-117.029C366.346,-107.671 327.958,-93.5796 299.348,-83.0772"/>
<polygon fill="midnightblue" stroke="midnightblue" points="300.267,-79.6862 289.673,-79.5257 297.855,-86.2574 300.267,-79.6862"/>
</g>
<!-- Node26 -->
<g id="node69" class="node"><title>Node26</title>
<polygon fill="white" stroke="#bfbfbf" points="345.5,-58.5 345.5,-79.5 394.5,-79.5 394.5,-58.5 345.5,-58.5"/>
<text text-anchor="middle" x="370" y="-66.5" font-family="Helvetica,sans-Serif" font-size="10.00">ctype.h</text>
</g>
<!-- Node25&#45;&gt;Node26 -->
<g id="edge86" class="edge"><title>Node25&#45;&gt;Node26</title>
<path fill="none" stroke="midnightblue" d="M410.013,-116.362C403.175,-108.268 393.598,-96.9318 385.528,-87.3796"/>
<polygon fill="midnightblue" stroke="midnightblue" points="388.058,-84.9508 378.93,-79.5707 382.71,-89.4683 388.058,-84.9508"/>
</g>
<!-- Node27 -->
<g id="node71" class="node"><title>Node27</title>
<polygon fill="white" stroke="#bfbfbf" points="412,-58.5 412,-79.5 468,-79.5 468,-58.5 412,-58.5"/>
<text text-anchor="middle" x="440" y="-66.5" font-family="Helvetica,sans-Serif" font-size="10.00">wctype.h</text>
</g>
<!-- Node25&#45;&gt;Node27 -->
<g id="edge88" class="edge"><title>Node25&#45;&gt;Node27</title>
<path fill="none" stroke="midnightblue" d="M422.852,-116.362C425.605,-108.758 429.394,-98.294 432.71,-89.1349"/>
<polygon fill="midnightblue" stroke="midnightblue" points="436.059,-90.1649 436.173,-79.5707 429.477,-87.7818 436.059,-90.1649"/>
</g>
<!-- Node30&#45;&gt;Node13 -->
<g id="edge106" class="edge"><title>Node30&#45;&gt;Node13</title>
<path fill="none" stroke="midnightblue" d="M256.935,-580.362C259.01,-572.84 261.857,-562.519 264.364,-553.431"/>
<polygon fill="midnightblue" stroke="midnightblue" points="267.799,-554.141 267.084,-543.571 261.051,-552.28 267.799,-554.141"/>
</g>
<!-- Node31 -->
<g id="node81" class="node"><title>Node31</title>
<a xlink:href="typeset_8h.html" target="_top" xlink:title="typeset.h">
<polygon fill="white" stroke="black" points="163.5,-522.5 163.5,-543.5 220.5,-543.5 220.5,-522.5 163.5,-522.5"/>
<text text-anchor="middle" x="192" y="-530.5" font-family="Helvetica,sans-Serif" font-size="10.00">typeset.h</text>
</a>
</g>
<!-- Node30&#45;&gt;Node31 -->
<g id="edge100" class="edge"><title>Node30&#45;&gt;Node31</title>
<path fill="none" stroke="midnightblue" d="M242.628,-580.362C233.714,-572.023 221.121,-560.242 210.724,-550.516"/>
<polygon fill="midnightblue" stroke="midnightblue" points="212.993,-547.846 203.3,-543.571 208.211,-552.958 212.993,-547.846"/>
</g>
<!-- Node31&#45;&gt;Node14 -->
<g id="edge102" class="edge"><title>Node31&#45;&gt;Node14</title>
<path fill="none" stroke="midnightblue" d="M191.083,-522.362C190.442,-514.922 189.564,-504.743 188.787,-495.728"/>
<polygon fill="midnightblue" stroke="midnightblue" points="192.257,-495.233 187.911,-485.571 185.283,-495.834 192.257,-495.233"/>
</g>
<!-- Node31&#45;&gt;Node20 -->
<g id="edge104" class="edge"><title>Node31&#45;&gt;Node20</title>
<path fill="none" stroke="midnightblue" d="M206.306,-522.362C217.851,-513.777 234.3,-501.546 247.59,-491.664"/>
<polygon fill="midnightblue" stroke="midnightblue" points="249.848,-494.346 255.784,-485.571 245.671,-488.729 249.848,-494.346"/>
</g>
<!-- Node32&#45;&gt;Node2 -->
<g id="edge110" class="edge"><title>Node32&#45;&gt;Node2</title>
<path fill="none" stroke="midnightblue" d="M318.532,-116.411C318.479,-101.194 320.794,-73.2955 337,-58 364.102,-32.421 468.343,-19.6262 528.496,-14.2489"/>
<polygon fill="midnightblue" stroke="midnightblue" points="528.808,-17.7352 538.47,-13.3891 528.206,-10.761 528.808,-17.7352"/>
</g>
<!-- Node32&#45;&gt;Node6 -->
<g id="edge112" class="edge"><title>Node32&#45;&gt;Node6</title>
<path fill="none" stroke="midnightblue" d="M285.86,-116.497C255.897,-107 211.604,-92.9619 178.938,-82.6087"/>
<polygon fill="midnightblue" stroke="midnightblue" points="179.792,-79.208 169.202,-79.5231 177.677,-85.8809 179.792,-79.208"/>
</g>
<!-- Node32&#45;&gt;Node10 -->
<g id="edge114" class="edge"><title>Node32&#45;&gt;Node10</title>
<path fill="none" stroke="midnightblue" d="M308.362,-116.362C300.104,-108.104 288.472,-96.4725 278.803,-86.8029"/>
<polygon fill="midnightblue" stroke="midnightblue" points="281.117,-84.1669 271.571,-79.5707 276.167,-89.1166 281.117,-84.1669"/>
</g>
</g>
</svg>
