<?xml version="1.0" encoding="UTF-8" standalone="no"?>
<!DOCTYPE svg PUBLIC "-//W3C//DTD SVG 1.1//EN"
 "http://www.w3.org/Graphics/SVG/1.1/DTD/svg11.dtd">
<!-- Generated by graphviz version 2.26.0 (20091210.2329)
 -->
<!-- Title: objectset.h Pages: 1 -->
<svg width="3789pt" height="262pt"
 viewBox="0.00 0.00 3789.00 262.00" xmlns="http://www.w3.org/2000/svg" xmlns:xlink="http://www.w3.org/1999/xlink">
<g id="graph1" class="graph" transform="scale(1 1) rotate(0) translate(4 258)">
<title>objectset.h</title>
<polygon fill="white" stroke="white" points="-4,5 -4,-258 3786,-258 3786,5 -4,5"/>
<!-- Node1 -->
<g id="node1" class="node"><title>Node1</title>
<polygon fill="#bfbfbf" stroke="black" points="2366.5,-232.5 2366.5,-253.5 2431.5,-253.5 2431.5,-232.5 2366.5,-232.5"/>
<text text-anchor="middle" x="2399" y="-240.5" font-family="Helvetica,sans-Serif" font-size="10.00">objectset.h</text>
</g>
<!-- Node2 -->
<g id="node3" class="node"><title>Node2</title>
<a xlink:href="refcount_8h.html" target="_top" xlink:title="refcount.h">
<polygon fill="white" stroke="red" points="1197,-174.5 1197,-195.5 1257,-195.5 1257,-174.5 1197,-174.5"/>
<text text-anchor="middle" x="1227" y="-182.5" font-family="Helvetica,sans-Serif" font-size="10.00">refcount.h</text>
</a>
</g>
<!-- Node1&#45;&gt;Node2 -->
<g id="edge2" class="edge"><title>Node1&#45;&gt;Node2</title>
<path fill="none" stroke="midnightblue" d="M2356.4,-240.892C2168.68,-231.602 1417.62,-194.434 1257.23,-186.496"/>
<polygon fill="midnightblue" stroke="midnightblue" points="2356.27,-244.39 2366.43,-241.388 2356.62,-237.398 2356.27,-244.39"/>
</g>
<!-- Node5 -->
<g id="node9" class="node"><title>Node5</title>
<a xlink:href="texttranslator_8h.html" target="_top" xlink:title="texttranslator.h">
<polygon fill="white" stroke="black" points="90,-58.5 90,-79.5 172,-79.5 172,-58.5 90,-58.5"/>
<text text-anchor="middle" x="131" y="-66.5" font-family="Helvetica,sans-Serif" font-size="10.00">texttranslator.h</text>
</a>
</g>
<!-- Node1&#45;&gt;Node5 -->
<g id="edge104" class="edge"><title>Node1&#45;&gt;Node5</title>
<path fill="none" stroke="midnightblue" d="M2355.97,-242.65C2042.68,-240.04 122.952,-222.964 70,-196 33.8397,-177.587 3.93327,-150.054 26,-116 34.2814,-103.22 69.9568,-88.9875 97.4501,-79.5684"/>
<polygon fill="midnightblue" stroke="midnightblue" points="2356.41,-246.154 2366.43,-242.737 2356.46,-239.154 2356.41,-246.154"/>
</g>
<!-- Node6 -->
<g id="node11" class="node"><title>Node6</title>
<a xlink:href="threadwork_8h.html" target="_top" xlink:title="threadwork.h">
<polygon fill="white" stroke="red" points="-0.5,-58.5 -0.5,-79.5 72.5,-79.5 72.5,-58.5 -0.5,-58.5"/>
<text text-anchor="middle" x="36" y="-66.5" font-family="Helvetica,sans-Serif" font-size="10.00">threadwork.h</text>
</a>
</g>
<!-- Node1&#45;&gt;Node6 -->
<g id="edge106" class="edge"><title>Node1&#45;&gt;Node6</title>
<path fill="none" stroke="midnightblue" d="M2356.2,-242.825C2040.5,-241.455 83.8099,-231.536 35,-196 5.37099,-174.428 7.35646,-151.844 15,-116 17.7959,-102.889 24.5251,-89.0063 29.6184,-79.7575"/>
<polygon fill="midnightblue" stroke="midnightblue" points="2356.3,-246.326 2366.31,-242.869 2356.33,-239.326 2356.3,-246.326"/>
</g>
<!-- Node7 -->
<g id="node13" class="node"><title>Node7</title>
<a xlink:href="transl_8h.html" target="_top" xlink:title="transl.h">
<polygon fill="white" stroke="red" points="1818.5,-58.5 1818.5,-79.5 1867.5,-79.5 1867.5,-58.5 1818.5,-58.5"/>
<text text-anchor="middle" x="1843" y="-66.5" font-family="Helvetica,sans-Serif" font-size="10.00">transl.h</text>
</a>
</g>
<!-- Node1&#45;&gt;Node7 -->
<g id="edge110" class="edge"><title>Node1&#45;&gt;Node7</title>
<path fill="none" stroke="midnightblue" d="M2356.11,-240.718C2247.59,-234.66 1968.15,-217.176 1932,-196 1884.84,-168.374 1856.51,-104.703 1846.8,-79.5241"/>
<polygon fill="midnightblue" stroke="midnightblue" points="2356.19,-244.228 2366.37,-241.285 2356.57,-237.239 2356.19,-244.228"/>
</g>
<!-- Node10 -->
<g id="node19" class="node"><title>Node10</title>
<a xlink:href="netreqconnection_8h.html" target="_top" xlink:title="netreqconnection.h">
<polygon fill="white" stroke="black" points="297.5,-58.5 297.5,-79.5 396.5,-79.5 396.5,-58.5 297.5,-58.5"/>
<text text-anchor="middle" x="347" y="-66.5" font-family="Helvetica,sans-Serif" font-size="10.00">netreqconnection.h</text>
</a>
</g>
<!-- Node1&#45;&gt;Node10 -->
<g id="edge126" class="edge"><title>Node1&#45;&gt;Node10</title>
<path fill="none" stroke="midnightblue" d="M2355.95,-242.588C2063.66,-239.722 378.605,-222.111 274,-196 218.46,-182.136 189.01,-186.747 159,-138 153.874,-129.674 152.983,-123.707 159,-116 163.387,-110.382 244.382,-91.5989 298.616,-79.5474"/>
<polygon fill="midnightblue" stroke="midnightblue" points="2356.11,-246.089 2366.15,-242.687 2356.18,-239.09 2356.11,-246.089"/>
</g>
<!-- Node17 -->
<g id="node33" class="node"><title>Node17</title>
<a xlink:href="visnodestate_8h.html" target="_top" xlink:title="visnodestate.h">
<polygon fill="white" stroke="red" points="1885,-58.5 1885,-79.5 1965,-79.5 1965,-58.5 1885,-58.5"/>
<text text-anchor="middle" x="1925" y="-66.5" font-family="Helvetica,sans-Serif" font-size="10.00">visnodestate.h</text>
</a>
</g>
<!-- Node1&#45;&gt;Node17 -->
<g id="edge144" class="edge"><title>Node1&#45;&gt;Node17</title>
<path fill="none" stroke="midnightblue" d="M2356.27,-241.328C2250.29,-236.791 1981.71,-222.75 1952,-196 1918.16,-165.532 1920.91,-104.074 1923.58,-79.5015"/>
<polygon fill="midnightblue" stroke="midnightblue" points="2356.16,-244.827 2366.3,-241.75 2356.46,-237.833 2356.16,-244.827"/>
</g>
<!-- Node31 -->
<g id="node73" class="node"><title>Node31</title>
<a xlink:href="sets_8h.html" target="_top" xlink:title="sets.h">
<polygon fill="white" stroke="red" points="283,-174.5 283,-195.5 327,-195.5 327,-174.5 283,-174.5"/>
<text text-anchor="middle" x="305" y="-182.5" font-family="Helvetica,sans-Serif" font-size="10.00">sets.h</text>
</a>
</g>
<!-- Node1&#45;&gt;Node31 -->
<g id="edge84" class="edge"><title>Node1&#45;&gt;Node31</title>
<path fill="none" stroke="midnightblue" d="M2355.99,-241.809C2077.14,-234.085 530.694,-191.251 327.119,-185.613"/>
<polygon fill="midnightblue" stroke="midnightblue" points="2356.02,-245.311 2366.11,-242.089 2356.21,-238.313 2356.02,-245.311"/>
</g>
<!-- Node32 -->
<g id="node80" class="node"><title>Node32</title>
<a xlink:href="task_8h.html" target="_top" xlink:title="task.h">
<polygon fill="white" stroke="red" points="35,-116.5 35,-137.5 79,-137.5 79,-116.5 35,-116.5"/>
<text text-anchor="middle" x="57" y="-124.5" font-family="Helvetica,sans-Serif" font-size="10.00">task.h</text>
</a>
</g>
<!-- Node1&#45;&gt;Node32 -->
<g id="edge96" class="edge"><title>Node1&#45;&gt;Node32</title>
<path fill="none" stroke="midnightblue" d="M2355.86,-242.728C2043.8,-240.687 142.973,-226.994 93,-196 72.1019,-183.039 62.7227,-153.632 59.0466,-137.714"/>
<polygon fill="midnightblue" stroke="midnightblue" points="2356.26,-246.231 2366.28,-242.796 2356.31,-239.231 2356.26,-246.231"/>
</g>
<!-- Node33 -->
<g id="node84" class="node"><title>Node33</title>
<a xlink:href="manobjectset_8h.html" target="_top" xlink:title="manobjectset.h">
<polygon fill="white" stroke="red" points="1960.5,-174.5 1960.5,-195.5 2043.5,-195.5 2043.5,-174.5 1960.5,-174.5"/>
<text text-anchor="middle" x="2002" y="-182.5" font-family="Helvetica,sans-Serif" font-size="10.00">manobjectset.h</text>
</a>
</g>
<!-- Node1&#45;&gt;Node33 -->
<g id="edge102" class="edge"><title>Node1&#45;&gt;Node33</title>
<path fill="none" stroke="midnightblue" d="M2356.36,-238.364C2290.72,-230.972 2161.09,-215.355 2052,-196 2049.29,-195.519 2046.5,-194.993 2043.69,-194.44"/>
<polygon fill="midnightblue" stroke="midnightblue" points="2356,-241.846 2366.33,-239.479 2356.78,-234.89 2356,-241.846"/>
</g>
<!-- Node34 -->
<g id="node88" class="node"><title>Node34</title>
<a xlink:href="sincinterpolator_8h.html" target="_top" xlink:title="sincinterpolator.h">
<polygon fill="white" stroke="black" points="2060.5,-174.5 2060.5,-195.5 2151.5,-195.5 2151.5,-174.5 2060.5,-174.5"/>
<text text-anchor="middle" x="2106" y="-182.5" font-family="Helvetica,sans-Serif" font-size="10.00">sincinterpolator.h</text>
</a>
</g>
<!-- Node1&#45;&gt;Node34 -->
<g id="edge108" class="edge"><title>Node1&#45;&gt;Node34</title>
<path fill="none" stroke="midnightblue" d="M2356.12,-234.659C2308.28,-225.331 2228.57,-209.726 2160,-196 2157.28,-195.455 2154.48,-194.893 2151.66,-194.324"/>
<polygon fill="midnightblue" stroke="midnightblue" points="2355.64,-238.131 2366.13,-236.608 2356.98,-231.26 2355.64,-238.131"/>
</g>
<!-- Node35 -->
<g id="node91" class="node"><title>Node35</title>
<a xlink:href="iodir_8h.html" target="_top" xlink:title="iodir.h">
<polygon fill="white" stroke="black" points="2168.5,-174.5 2168.5,-195.5 2211.5,-195.5 2211.5,-174.5 2168.5,-174.5"/>
<text text-anchor="middle" x="2190" y="-182.5" font-family="Helvetica,sans-Serif" font-size="10.00">iodir.h</text>
</a>
</g>
<!-- Node1&#45;&gt;Node35 -->
<g id="edge112" class="edge"><title>Node1&#45;&gt;Node35</title>
<path fill="none" stroke="midnightblue" d="M2356.59,-233.066C2320.12,-224.237 2266.23,-210.511 2220,-196 2217.25,-195.136 2214.38,-194.169 2211.55,-193.177"/>
<polygon fill="midnightblue" stroke="midnightblue" points="2355.86,-236.489 2366.4,-235.423 2357.5,-229.683 2355.86,-236.489"/>
</g>
<!-- Node36 -->
<g id="node93" class="node"><title>Node36</title>
<a xlink:href="iodirentry_8h.html" target="_top" xlink:title="iodirentry.h">
<polygon fill="white" stroke="black" points="2228.5,-174.5 2228.5,-195.5 2293.5,-195.5 2293.5,-174.5 2228.5,-174.5"/>
<text text-anchor="middle" x="2261" y="-182.5" font-family="Helvetica,sans-Serif" font-size="10.00">iodirentry.h</text>
</a>
</g>
<!-- Node1&#45;&gt;Node36 -->
<g id="edge114" class="edge"><title>Node1&#45;&gt;Node36</title>
<path fill="none" stroke="midnightblue" d="M2364.77,-228.615C2340.44,-218.389 2308.3,-204.88 2286.27,-195.621"/>
<polygon fill="midnightblue" stroke="midnightblue" points="2363.43,-231.849 2374.01,-232.497 2366.15,-225.395 2363.43,-231.849"/>
</g>
<!-- Node37 -->
<g id="node95" class="node"><title>Node37</title>
<a xlink:href="linesetposinfo_8h.html" target="_top" xlink:title="linesetposinfo.h">
<polygon fill="white" stroke="black" points="2310.5,-174.5 2310.5,-195.5 2395.5,-195.5 2395.5,-174.5 2310.5,-174.5"/>
<text text-anchor="middle" x="2353" y="-182.5" font-family="Helvetica,sans-Serif" font-size="10.00">linesetposinfo.h</text>
</a>
</g>
<!-- Node1&#45;&gt;Node37 -->
<g id="edge116" class="edge"><title>Node1&#45;&gt;Node37</title>
<path fill="none" stroke="midnightblue" d="M2384.13,-224.25C2376.59,-214.75 2367.72,-203.565 2361.38,-195.571"/>
<polygon fill="midnightblue" stroke="midnightblue" points="2381.61,-226.702 2390.56,-232.362 2387.09,-222.352 2381.61,-226.702"/>
</g>
<!-- Node38 -->
<g id="node97" class="node"><title>Node38</title>
<a xlink:href="stratlevel_8h.html" target="_top" xlink:title="stratlevel.h">
<polygon fill="white" stroke="red" points="2412.5,-174.5 2412.5,-195.5 2477.5,-195.5 2477.5,-174.5 2412.5,-174.5"/>
<text text-anchor="middle" x="2445" y="-182.5" font-family="Helvetica,sans-Serif" font-size="10.00">stratlevel.h</text>
</a>
</g>
<!-- Node1&#45;&gt;Node38 -->
<g id="edge118" class="edge"><title>Node1&#45;&gt;Node38</title>
<path fill="none" stroke="midnightblue" d="M2413.87,-224.25C2421.41,-214.75 2430.28,-203.565 2436.62,-195.571"/>
<polygon fill="midnightblue" stroke="midnightblue" points="2410.91,-222.352 2407.44,-232.362 2416.39,-226.702 2410.91,-222.352"/>
</g>
<!-- Node39 -->
<g id="node99" class="node"><title>Node39</title>
<a xlink:href="ziparchiveinfo_8h.html" target="_top" xlink:title="ziparchiveinfo.h">
<polygon fill="white" stroke="black" points="2494.5,-174.5 2494.5,-195.5 2579.5,-195.5 2579.5,-174.5 2494.5,-174.5"/>
<text text-anchor="middle" x="2537" y="-182.5" font-family="Helvetica,sans-Serif" font-size="10.00">ziparchiveinfo.h</text>
</a>
</g>
<!-- Node1&#45;&gt;Node39 -->
<g id="edge120" class="edge"><title>Node1&#45;&gt;Node39</title>
<path fill="none" stroke="midnightblue" d="M2433.23,-228.615C2457.56,-218.389 2489.7,-204.88 2511.73,-195.621"/>
<polygon fill="midnightblue" stroke="midnightblue" points="2431.85,-225.395 2423.99,-232.497 2434.57,-231.849 2431.85,-225.395"/>
</g>
<!-- Node40 -->
<g id="node101" class="node"><title>Node40</title>
<a xlink:href="stratcontent_8h.html" target="_top" xlink:title="stratcontent.h">
<polygon fill="white" stroke="red" points="2596.5,-174.5 2596.5,-195.5 2673.5,-195.5 2673.5,-174.5 2596.5,-174.5"/>
<text text-anchor="middle" x="2635" y="-182.5" font-family="Helvetica,sans-Serif" font-size="10.00">stratcontent.h</text>
</a>
</g>
<!-- Node1&#45;&gt;Node40 -->
<g id="edge122" class="edge"><title>Node1&#45;&gt;Node40</title>
<path fill="none" stroke="midnightblue" d="M2441.63,-232.522C2485.63,-221.71 2553.66,-204.99 2596.19,-194.537"/>
<polygon fill="midnightblue" stroke="midnightblue" points="2440.69,-229.15 2431.81,-234.935 2442.36,-235.948 2440.69,-229.15"/>
</g>
<!-- Node41 -->
<g id="node103" class="node"><title>Node41</title>
<a xlink:href="stratlayseqgendesc_8h.html" target="_top" xlink:title="stratlayseqgendesc.h">
<polygon fill="white" stroke="black" points="2691,-174.5 2691,-195.5 2801,-195.5 2801,-174.5 2691,-174.5"/>
<text text-anchor="middle" x="2746" y="-182.5" font-family="Helvetica,sans-Serif" font-size="10.00">stratlayseqgendesc.h</text>
</a>
</g>
<!-- Node1&#45;&gt;Node41 -->
<g id="edge124" class="edge"><title>Node1&#45;&gt;Node41</title>
<path fill="none" stroke="midnightblue" d="M2441.85,-235.961C2497.29,-226.835 2596.88,-210.383 2682,-196 2684.89,-195.512 2687.85,-195.009 2690.85,-194.5"/>
<polygon fill="midnightblue" stroke="midnightblue" points="2440.99,-232.555 2431.69,-237.632 2442.13,-239.462 2440.99,-232.555"/>
</g>
<!-- Node42 -->
<g id="node106" class="node"><title>Node42</title>
<a xlink:href="emstoredobjaccess_8h.html" target="_top" xlink:title="emstoredobjaccess.h">
<polygon fill="white" stroke="black" points="2819,-174.5 2819,-195.5 2929,-195.5 2929,-174.5 2819,-174.5"/>
<text text-anchor="middle" x="2874" y="-182.5" font-family="Helvetica,sans-Serif" font-size="10.00">emstoredobjaccess.h</text>
</a>
</g>
<!-- Node1&#45;&gt;Node42 -->
<g id="edge128" class="edge"><title>Node1&#45;&gt;Node42</title>
<path fill="none" stroke="midnightblue" d="M2441.55,-238.932C2516.28,-231.611 2675.89,-215.177 2810,-196 2812.9,-195.585 2815.87,-195.141 2818.87,-194.678"/>
<polygon fill="midnightblue" stroke="midnightblue" points="2441.19,-235.45 2431.58,-239.904 2441.87,-242.417 2441.19,-235.45"/>
</g>
<!-- Node43 -->
<g id="node108" class="node"><title>Node43</title>
<a xlink:href="horizonrelation_8h.html" target="_top" xlink:title="horizonrelation.h">
<polygon fill="white" stroke="black" points="2947,-174.5 2947,-195.5 3035,-195.5 3035,-174.5 2947,-174.5"/>
<text text-anchor="middle" x="2991" y="-182.5" font-family="Helvetica,sans-Serif" font-size="10.00">horizonrelation.h</text>
</a>
</g>
<!-- Node1&#45;&gt;Node43 -->
<g id="edge130" class="edge"><title>Node1&#45;&gt;Node43</title>
<path fill="none" stroke="midnightblue" d="M2441.91,-240.977C2533.46,-236.284 2754.52,-222.945 2938,-196 2940.88,-195.577 2943.84,-195.095 2946.82,-194.574"/>
<polygon fill="midnightblue" stroke="midnightblue" points="2441.47,-237.494 2431.66,-241.494 2441.82,-244.485 2441.47,-237.494"/>
</g>
<!-- Node44 -->
<g id="node110" class="node"><title>Node44</title>
<a xlink:href="segyhdrdef_8h.html" target="_top" xlink:title="segyhdrdef.h">
<polygon fill="white" stroke="red" points="3052.5,-174.5 3052.5,-195.5 3125.5,-195.5 3125.5,-174.5 3052.5,-174.5"/>
<text text-anchor="middle" x="3089" y="-182.5" font-family="Helvetica,sans-Serif" font-size="10.00">segyhdrdef.h</text>
</a>
</g>
<!-- Node1&#45;&gt;Node44 -->
<g id="edge132" class="edge"><title>Node1&#45;&gt;Node44</title>
<path fill="none" stroke="midnightblue" d="M2441.87,-242.344C2545.78,-240.22 2819.09,-231.428 3044,-196 3046.7,-195.575 3049.48,-195.068 3052.26,-194.51"/>
<polygon fill="midnightblue" stroke="midnightblue" points="2441.7,-238.847 2431.77,-242.54 2441.84,-245.845 2441.7,-238.847"/>
</g>
<!-- Node45 -->
<g id="node112" class="node"><title>Node45</title>
<a xlink:href="seis2ddata_8h.html" target="_top" xlink:title="seis2ddata.h">
<polygon fill="white" stroke="black" points="3143,-174.5 3143,-195.5 3215,-195.5 3215,-174.5 3143,-174.5"/>
<text text-anchor="middle" x="3179" y="-182.5" font-family="Helvetica,sans-Serif" font-size="10.00">seis2ddata.h</text>
</a>
</g>
<!-- Node1&#45;&gt;Node45 -->
<g id="edge134" class="edge"><title>Node1&#45;&gt;Node45</title>
<path fill="none" stroke="midnightblue" d="M2441.54,-241.265C2577.26,-235.576 2998.96,-216.658 3134,-196 3136.86,-195.562 3139.81,-195.03 3142.76,-194.439"/>
<polygon fill="midnightblue" stroke="midnightblue" points="2441.37,-237.769 2431.53,-241.683 2441.66,-244.763 2441.37,-237.769"/>
</g>
<!-- Node46 -->
<g id="node114" class="node"><title>Node46</title>
<a xlink:href="seiscubeprov_8h.html" target="_top" xlink:title="seiscubeprov.h">
<polygon fill="white" stroke="black" points="3232.5,-174.5 3232.5,-195.5 3315.5,-195.5 3315.5,-174.5 3232.5,-174.5"/>
<text text-anchor="middle" x="3274" y="-182.5" font-family="Helvetica,sans-Serif" font-size="10.00">seiscubeprov.h</text>
</a>
</g>
<!-- Node1&#45;&gt;Node46 -->
<g id="edge136" class="edge"><title>Node1&#45;&gt;Node46</title>
<path fill="none" stroke="midnightblue" d="M2442.2,-241.452C2589.38,-236.033 3070.62,-217.104 3224,-196 3226.73,-195.624 3229.53,-195.179 3232.35,-194.685"/>
<polygon fill="midnightblue" stroke="midnightblue" points="2441.65,-237.969 2431.79,-241.833 2441.91,-244.964 2441.65,-237.969"/>
</g>
<!-- Node47 -->
<g id="node116" class="node"><title>Node47</title>
<a xlink:href="seisselectionimpl_8h.html" target="_top" xlink:title="seisselectionimpl.h">
<polygon fill="white" stroke="black" points="3333,-174.5 3333,-195.5 3433,-195.5 3433,-174.5 3333,-174.5"/>
<text text-anchor="middle" x="3383" y="-182.5" font-family="Helvetica,sans-Serif" font-size="10.00">seisselectionimpl.h</text>
</a>
</g>
<!-- Node1&#45;&gt;Node47 -->
<g id="edge138" class="edge"><title>Node1&#45;&gt;Node47</title>
<path fill="none" stroke="midnightblue" d="M2442.07,-241.577C2600.37,-236.227 3149.75,-216.577 3324,-196 3326.9,-195.658 3329.87,-195.259 3332.86,-194.82"/>
<polygon fill="midnightblue" stroke="midnightblue" points="2441.67,-238.088 2431.79,-241.923 2441.9,-245.084 2441.67,-238.088"/>
</g>
<!-- Node48 -->
<g id="node118" class="node"><title>Node48</title>
<a xlink:href="semblancealgo_8h.html" target="_top" xlink:title="semblancealgo.h">
<polygon fill="white" stroke="black" points="3451,-174.5 3451,-195.5 3541,-195.5 3541,-174.5 3451,-174.5"/>
<text text-anchor="middle" x="3496" y="-182.5" font-family="Helvetica,sans-Serif" font-size="10.00">semblancealgo.h</text>
</a>
</g>
<!-- Node1&#45;&gt;Node48 -->
<g id="edge140" class="edge"><title>Node1&#45;&gt;Node48</title>
<path fill="none" stroke="midnightblue" d="M2441.58,-241.968C2611.76,-237.708 3243.44,-220.545 3442,-196 3444.85,-195.648 3447.77,-195.227 3450.71,-194.759"/>
<polygon fill="midnightblue" stroke="midnightblue" points="2441.41,-238.471 2431.5,-242.219 2441.59,-245.469 2441.41,-238.471"/>
</g>
<!-- Node49 -->
<g id="node120" class="node"><title>Node49</title>
<a xlink:href="identifierman_8h.html" target="_top" xlink:title="identifierman.h">
<polygon fill="white" stroke="red" points="3559,-174.5 3559,-195.5 3639,-195.5 3639,-174.5 3559,-174.5"/>
<text text-anchor="middle" x="3599" y="-182.5" font-family="Helvetica,sans-Serif" font-size="10.00">identifierman.h</text>
</a>
</g>
<!-- Node1&#45;&gt;Node49 -->
<g id="edge142" class="edge"><title>Node1&#45;&gt;Node49</title>
<path fill="none" stroke="midnightblue" d="M2441.78,-242.285C2623.15,-239.093 3329.46,-225.016 3550,-196 3552.94,-195.613 3555.96,-195.135 3558.99,-194.597"/>
<polygon fill="midnightblue" stroke="midnightblue" points="2441.51,-238.789 2431.57,-242.463 2441.63,-245.788 2441.51,-238.789"/>
</g>
<!-- Node50 -->
<g id="node123" class="node"><title>Node50</title>
<a xlink:href="visrandomtrackdragger_8h.html" target="_top" xlink:title="visrandomtrackdragger.h">
<polygon fill="white" stroke="black" points="3657,-174.5 3657,-195.5 3781,-195.5 3781,-174.5 3657,-174.5"/>
<text text-anchor="middle" x="3719" y="-182.5" font-family="Helvetica,sans-Serif" font-size="10.00">visrandomtrackdragger.h</text>
</a>
</g>
<!-- Node1&#45;&gt;Node50 -->
<g id="edge146" class="edge"><title>Node1&#45;&gt;Node50</title>
<path fill="none" stroke="midnightblue" d="M2441.92,-242.055C2632.85,-237.749 3406.33,-219.189 3648,-196 3650.86,-195.726 3653.77,-195.412 3656.71,-195.069"/>
<polygon fill="midnightblue" stroke="midnightblue" points="2441.64,-238.561 2431.72,-242.284 2441.8,-245.559 2441.64,-238.561"/>
</g>
<!-- Node3 -->
<g id="node5" class="node"><title>Node3</title>
<a xlink:href="callback_8h.html" target="_top" xlink:title="callback.h">
<polygon fill="white" stroke="red" points="518.5,-116.5 518.5,-137.5 579.5,-137.5 579.5,-116.5 518.5,-116.5"/>
<text text-anchor="middle" x="549" y="-124.5" font-family="Helvetica,sans-Serif" font-size="10.00">callback.h</text>
</a>
</g>
<!-- Node2&#45;&gt;Node3 -->
<g id="edge4" class="edge"><title>Node2&#45;&gt;Node3</title>
<path fill="none" stroke="midnightblue" d="M1186.49,-183.091C1064.82,-177.187 703.916,-158.395 588,-138 585.229,-137.512 582.371,-136.909 579.522,-136.237"/>
<polygon fill="midnightblue" stroke="midnightblue" points="1186.68,-186.604 1196.83,-183.59 1187.01,-179.612 1186.68,-186.604"/>
</g>
<!-- Node4 -->
<g id="node7" class="node"><title>Node4</title>
<a xlink:href="coordsystem_8h.html" target="_top" xlink:title="coordsystem.h">
<polygon fill="white" stroke="red" points="1171.5,-58.5 1171.5,-79.5 1252.5,-79.5 1252.5,-58.5 1171.5,-58.5"/>
<text text-anchor="middle" x="1212" y="-66.5" font-family="Helvetica,sans-Serif" font-size="10.00">coordsystem.h</text>
</a>
</g>
<!-- Node2&#45;&gt;Node4 -->
<g id="edge34" class="edge"><title>Node2&#45;&gt;Node4</title>
<path fill="none" stroke="midnightblue" d="M1267.24,-180.57C1316.41,-174.232 1395.28,-160.755 1413,-138 1419.01,-130.286 1419.08,-123.661 1413,-116 1393.4,-91.2916 1305.75,-78.3424 1252.88,-72.6621"/>
<polygon fill="midnightblue" stroke="midnightblue" points="1266.72,-177.108 1257.23,-181.815 1267.59,-184.054 1266.72,-177.108"/>
</g>
<!-- Node2&#45;&gt;Node7 -->
<g id="edge46" class="edge"><title>Node2&#45;&gt;Node7</title>
<path fill="none" stroke="midnightblue" d="M1267.57,-184.253C1393.72,-181.591 1773.27,-170.901 1817,-138 1835.52,-124.071 1840.85,-95.3456 1842.38,-79.7101"/>
<polygon fill="midnightblue" stroke="midnightblue" points="1267.13,-180.761 1257.2,-184.466 1267.27,-187.76 1267.13,-180.761"/>
</g>
<!-- Node8 -->
<g id="node15" class="node"><title>Node8</title>
<a xlink:href="menuhandler_8h.html" target="_top" xlink:title="menuhandler.h">
<polygon fill="white" stroke="red" points="1342,-58.5 1342,-79.5 1422,-79.5 1422,-58.5 1342,-58.5"/>
<text text-anchor="middle" x="1382" y="-66.5" font-family="Helvetica,sans-Serif" font-size="10.00">menuhandler.h</text>
</a>
</g>
<!-- Node2&#45;&gt;Node8 -->
<g id="edge48" class="edge"><title>Node2&#45;&gt;Node8</title>
<path fill="none" stroke="midnightblue" d="M1267.2,-181.512C1320.47,-175.963 1410.06,-163.088 1430,-138 1445.8,-118.124 1417.95,-93.3905 1398.48,-79.585"/>
<polygon fill="midnightblue" stroke="midnightblue" points="1266.67,-178.049 1257.06,-182.526 1267.36,-185.014 1266.67,-178.049"/>
</g>
<!-- Node9 -->
<g id="node17" class="node"><title>Node9</title>
<a xlink:href="pickretriever_8h.html" target="_top" xlink:title="pickretriever.h">
<polygon fill="white" stroke="red" points="1718,-0.5 1718,-21.5 1796,-21.5 1796,-0.5 1718,-0.5"/>
<text text-anchor="middle" x="1757" y="-8.5" font-family="Helvetica,sans-Serif" font-size="10.00">pickretriever.h</text>
</a>
</g>
<!-- Node2&#45;&gt;Node9 -->
<g id="edge50" class="edge"><title>Node2&#45;&gt;Node9</title>
<path fill="none" stroke="midnightblue" d="M1267.22,-183.653C1385.51,-179.42 1730.75,-165.026 1840,-138 1903,-122.416 1938.37,-134.241 1974,-80 1979.37,-71.8274 1980.14,-65.6106 1974,-58 1952.1,-30.8469 1852.69,-18.595 1796.32,-13.7467"/>
<polygon fill="midnightblue" stroke="midnightblue" points="1267.02,-180.159 1257.15,-184.009 1267.26,-187.154 1267.02,-180.159"/>
</g>
<!-- Node11 -->
<g id="node21" class="node"><title>Node11</title>
<a xlink:href="indexedshape_8h.html" target="_top" xlink:title="indexedshape.h">
<polygon fill="white" stroke="red" points="413.5,-58.5 413.5,-79.5 498.5,-79.5 498.5,-58.5 413.5,-58.5"/>
<text text-anchor="middle" x="456" y="-66.5" font-family="Helvetica,sans-Serif" font-size="10.00">indexedshape.h</text>
</a>
</g>
<!-- Node2&#45;&gt;Node11 -->
<g id="edge52" class="edge"><title>Node2&#45;&gt;Node11</title>
<path fill="none" stroke="midnightblue" d="M1186.81,-184.483C1043.14,-182.352 560.314,-172.655 501,-138 478.526,-124.869 465.263,-95.5339 459.473,-79.6716"/>
<polygon fill="midnightblue" stroke="midnightblue" points="1186.9,-187.985 1196.95,-184.629 1187,-180.985 1186.9,-187.985"/>
</g>
<!-- Node12 -->
<g id="node23" class="node"><title>Node12</title>
<a xlink:href="marchingcubes_8h.html" target="_top" xlink:title="marchingcubes.h">
<polygon fill="white" stroke="black" points="189.5,-58.5 189.5,-79.5 280.5,-79.5 280.5,-58.5 189.5,-58.5"/>
<text text-anchor="middle" x="235" y="-66.5" font-family="Helvetica,sans-Serif" font-size="10.00">marchingcubes.h</text>
</a>
</g>
<!-- Node2&#45;&gt;Node12 -->
<g id="edge56" class="edge"><title>Node2&#45;&gt;Node12</title>
<path fill="none" stroke="midnightblue" d="M1186.3,-183.624C1050.5,-178.851 613.677,-161.974 475,-138 464.76,-136.23 335.212,-98.4 270.829,-79.5226"/>
<polygon fill="midnightblue" stroke="midnightblue" points="1186.55,-187.135 1196.66,-183.985 1186.79,-180.139 1186.55,-187.135"/>
</g>
<!-- Node13 -->
<g id="node25" class="node"><title>Node13</title>
<a xlink:href="emobject_8h.html" target="_top" xlink:title="emobject.h">
<polygon fill="white" stroke="red" points="1475.5,-58.5 1475.5,-79.5 1540.5,-79.5 1540.5,-58.5 1475.5,-58.5"/>
<text text-anchor="middle" x="1508" y="-66.5" font-family="Helvetica,sans-Serif" font-size="10.00">emobject.h</text>
</a>
</g>
<!-- Node2&#45;&gt;Node13 -->
<g id="edge62" class="edge"><title>Node2&#45;&gt;Node13</title>
<path fill="none" stroke="midnightblue" d="M1267.17,-183.388C1365.78,-179.022 1613.55,-165.405 1638,-138 1644.51,-130.704 1643.62,-124.003 1638,-116 1626.56,-99.6953 1575.29,-84.7736 1540.66,-76.297"/>
<polygon fill="midnightblue" stroke="midnightblue" points="1266.84,-179.899 1257,-183.829 1267.15,-186.893 1266.84,-179.899"/>
</g>
<!-- Node14 -->
<g id="node27" class="node"><title>Node14</title>
<a xlink:href="welldata_8h.html" target="_top" xlink:title="welldata.h">
<polygon fill="white" stroke="red" points="515.5,-58.5 515.5,-79.5 576.5,-79.5 576.5,-58.5 515.5,-58.5"/>
<text text-anchor="middle" x="546" y="-66.5" font-family="Helvetica,sans-Serif" font-size="10.00">welldata.h</text>
</a>
</g>
<!-- Node2&#45;&gt;Node14 -->
<g id="edge64" class="edge"><title>Node2&#45;&gt;Node14</title>
<path fill="none" stroke="midnightblue" d="M1186.86,-183.871C1039.18,-179.525 533.291,-162.868 510,-138 493.652,-120.545 517.12,-94.242 533.16,-79.6704"/>
<polygon fill="midnightblue" stroke="midnightblue" points="1186.77,-187.37 1196.87,-184.163 1186.97,-180.373 1186.77,-187.37"/>
</g>
<!-- Node15 -->
<g id="node29" class="node"><title>Node15</title>
<a xlink:href="seisrandomprovider_8h.html" target="_top" xlink:title="seisrandomprovider.h">
<polygon fill="white" stroke="black" points="1576,-58.5 1576,-79.5 1686,-79.5 1686,-58.5 1576,-58.5"/>
<text text-anchor="middle" x="1631" y="-66.5" font-family="Helvetica,sans-Serif" font-size="10.00">seisrandomprovider.h</text>
</a>
</g>
<!-- Node2&#45;&gt;Node15 -->
<g id="edge66" class="edge"><title>Node2&#45;&gt;Node15</title>
<path fill="none" stroke="midnightblue" d="M1267.43,-183.572C1369.15,-179.567 1629.37,-166.596 1655,-138 1670.07,-121.188 1652.58,-94.3963 1640.52,-79.631"/>
<polygon fill="midnightblue" stroke="midnightblue" points="1267.11,-180.082 1257.25,-183.964 1267.38,-187.077 1267.11,-180.082"/>
</g>
<!-- Node16 -->
<g id="node31" class="node"><title>Node16</title>
<a xlink:href="velocitypicks_8h.html" target="_top" xlink:title="velocitypicks.h">
<polygon fill="white" stroke="red" points="928,-58.5 928,-79.5 1010,-79.5 1010,-58.5 928,-58.5"/>
<text text-anchor="middle" x="969" y="-66.5" font-family="Helvetica,sans-Serif" font-size="10.00">velocitypicks.h</text>
</a>
</g>
<!-- Node2&#45;&gt;Node16 -->
<g id="edge78" class="edge"><title>Node2&#45;&gt;Node16</title>
<path fill="none" stroke="midnightblue" d="M1267.1,-180.92C1323.39,-173.691 1415.25,-155.506 1380,-116 1367.76,-102.284 1112.19,-80.4429 1010.35,-72.2477"/>
<polygon fill="midnightblue" stroke="midnightblue" points="1266.54,-177.461 1257.04,-182.145 1267.39,-184.41 1266.54,-177.461"/>
</g>
<!-- Node18 -->
<g id="node36" class="node"><title>Node18</title>
<a xlink:href="survgeom_8h.html" target="_top" xlink:title="survgeom.h">
<polygon fill="white" stroke="red" points="1723,-116.5 1723,-137.5 1791,-137.5 1791,-116.5 1723,-116.5"/>
<text text-anchor="middle" x="1757" y="-124.5" font-family="Helvetica,sans-Serif" font-size="10.00">survgeom.h</text>
</a>
</g>
<!-- Node2&#45;&gt;Node18 -->
<g id="edge36" class="edge"><title>Node2&#45;&gt;Node18</title>
<path fill="none" stroke="midnightblue" d="M1267.07,-182.833C1349.99,-177.967 1546.25,-164.471 1709,-138 1713.47,-137.273 1718.15,-136.375 1722.76,-135.409"/>
<polygon fill="midnightblue" stroke="midnightblue" points="1266.85,-179.34 1257.07,-183.41 1267.25,-186.328 1266.85,-179.34"/>
</g>
<!-- Node19 -->
<g id="node38" class="node"><title>Node19</title>
<a xlink:href="zaxistransform_8h.html" target="_top" xlink:title="zaxistransform.h">
<polygon fill="white" stroke="red" points="1712.5,-58.5 1712.5,-79.5 1801.5,-79.5 1801.5,-58.5 1712.5,-58.5"/>
<text text-anchor="middle" x="1757" y="-66.5" font-family="Helvetica,sans-Serif" font-size="10.00">zaxistransform.h</text>
</a>
</g>
<!-- Node2&#45;&gt;Node19 -->
<g id="edge44" class="edge"><title>Node2&#45;&gt;Node19</title>
<path fill="none" stroke="midnightblue" d="M1267.37,-184.773C1391.93,-183.656 1764.02,-177.052 1800,-138 1816.83,-119.73 1790.2,-93.9679 1771.9,-79.6509"/>
<polygon fill="midnightblue" stroke="midnightblue" points="1267.1,-181.275 1257.13,-184.857 1267.16,-188.275 1267.1,-181.275"/>
</g>
<!-- Node20 -->
<g id="node41" class="node"><title>Node20</title>
<a xlink:href="positionlist_8h.html" target="_top" xlink:title="positionlist.h">
<polygon fill="white" stroke="red" points="596.5,-116.5 596.5,-137.5 667.5,-137.5 667.5,-116.5 596.5,-116.5"/>
<text text-anchor="middle" x="632" y="-124.5" font-family="Helvetica,sans-Serif" font-size="10.00">positionlist.h</text>
</a>
</g>
<!-- Node2&#45;&gt;Node20 -->
<g id="edge42" class="edge"><title>Node2&#45;&gt;Node20</title>
<path fill="none" stroke="midnightblue" d="M1186.73,-183.769C1095.35,-180.496 865.479,-169.558 676,-138 673.359,-137.56 670.644,-137.043 667.92,-136.477"/>
<polygon fill="midnightblue" stroke="midnightblue" points="1186.81,-187.274 1196.93,-184.123 1187.05,-180.278 1186.81,-187.274"/>
</g>
<!-- Node21 -->
<g id="node48" class="node"><title>Node21</title>
<a xlink:href="faultstickset_8h.html" target="_top" xlink:title="faultstickset.h">
<polygon fill="white" stroke="red" points="685,-116.5 685,-137.5 763,-137.5 763,-116.5 685,-116.5"/>
<text text-anchor="middle" x="724" y="-124.5" font-family="Helvetica,sans-Serif" font-size="10.00">faultstickset.h</text>
</a>
</g>
<!-- Node2&#45;&gt;Node21 -->
<g id="edge54" class="edge"><title>Node2&#45;&gt;Node21</title>
<path fill="none" stroke="midnightblue" d="M1186.66,-182.497C1106.99,-177.188 924.022,-163.174 772,-138 769.132,-137.525 766.18,-136.982 763.215,-136.398"/>
<polygon fill="midnightblue" stroke="midnightblue" points="1186.54,-185.997 1196.75,-183.16 1187,-179.012 1186.54,-185.997"/>
</g>
<!-- Node22 -->
<g id="node51" class="node"><title>Node22</title>
<a xlink:href="polygonsurface_8h.html" target="_top" xlink:title="polygonsurface.h">
<polygon fill="white" stroke="red" points="780.5,-116.5 780.5,-137.5 871.5,-137.5 871.5,-116.5 780.5,-116.5"/>
<text text-anchor="middle" x="826" y="-124.5" font-family="Helvetica,sans-Serif" font-size="10.00">polygonsurface.h</text>
</a>
</g>
<!-- Node2&#45;&gt;Node22 -->
<g id="edge58" class="edge"><title>Node2&#45;&gt;Node22</title>
<path fill="none" stroke="midnightblue" d="M1186.52,-180.401C1121.64,-172.831 990.434,-156.706 880,-138 877.264,-137.537 874.456,-137.037 871.625,-136.516"/>
<polygon fill="midnightblue" stroke="midnightblue" points="1186.39,-183.909 1196.73,-181.585 1187.2,-176.956 1186.39,-183.909"/>
</g>
<!-- Node23 -->
<g id="node53" class="node"><title>Node23</title>
<a xlink:href="randomlinegeom_8h.html" target="_top" xlink:title="randomlinegeom.h">
<polygon fill="white" stroke="red" points="889,-116.5 889,-137.5 985,-137.5 985,-116.5 889,-116.5"/>
<text text-anchor="middle" x="937" y="-124.5" font-family="Helvetica,sans-Serif" font-size="10.00">randomlinegeom.h</text>
</a>
</g>
<!-- Node2&#45;&gt;Node23 -->
<g id="edge60" class="edge"><title>Node2&#45;&gt;Node23</title>
<path fill="none" stroke="midnightblue" d="M1186.79,-176.957C1134.03,-166.405 1041.55,-147.909 985.127,-136.625"/>
<polygon fill="midnightblue" stroke="midnightblue" points="1186.29,-180.428 1196.79,-178.957 1187.67,-173.564 1186.29,-180.428"/>
</g>
<!-- Node24 -->
<g id="node58" class="node"><title>Node24</title>
<a xlink:href="attribdataholder_8h.html" target="_top" xlink:title="attribdataholder.h">
<polygon fill="white" stroke="red" points="211,-116.5 211,-137.5 303,-137.5 303,-116.5 211,-116.5"/>
<text text-anchor="middle" x="257" y="-124.5" font-family="Helvetica,sans-Serif" font-size="10.00">attribdataholder.h</text>
</a>
</g>
<!-- Node2&#45;&gt;Node24 -->
<g id="edge68" class="edge"><title>Node2&#45;&gt;Node24</title>
<path fill="none" stroke="midnightblue" d="M1186.52,-183.709C1032.77,-178.682 485.018,-159.628 312,-138 309.101,-137.638 306.127,-137.209 303.134,-136.735"/>
<polygon fill="midnightblue" stroke="midnightblue" points="1186.79,-187.219 1196.9,-184.046 1187.01,-180.223 1186.79,-187.219"/>
</g>
<!-- Node25 -->
<g id="node60" class="node"><title>Node25</title>
<a xlink:href="attribdesc_8h.html" target="_top" xlink:title="attribdesc.h">
<polygon fill="white" stroke="black" points="1003,-116.5 1003,-137.5 1071,-137.5 1071,-116.5 1003,-116.5"/>
<text text-anchor="middle" x="1037" y="-124.5" font-family="Helvetica,sans-Serif" font-size="10.00">attribdesc.h</text>
</a>
</g>
<!-- Node2&#45;&gt;Node25 -->
<g id="edge70" class="edge"><title>Node2&#45;&gt;Node25</title>
<path fill="none" stroke="midnightblue" d="M1187.18,-172.845C1152.82,-162.357 1103.73,-147.37 1071.14,-137.421"/>
<polygon fill="midnightblue" stroke="midnightblue" points="1186.31,-176.238 1196.89,-175.81 1188.35,-169.543 1186.31,-176.238"/>
</g>
<!-- Node26 -->
<g id="node62" class="node"><title>Node26</title>
<a xlink:href="attriboutput_8h.html" target="_top" xlink:title="attriboutput.h">
<polygon fill="white" stroke="black" points="1089,-116.5 1089,-137.5 1163,-137.5 1163,-116.5 1089,-116.5"/>
<text text-anchor="middle" x="1126" y="-124.5" font-family="Helvetica,sans-Serif" font-size="10.00">attriboutput.h</text>
</a>
</g>
<!-- Node2&#45;&gt;Node26 -->
<g id="edge72" class="edge"><title>Node2&#45;&gt;Node26</title>
<path fill="none" stroke="midnightblue" d="M1199.8,-169.379C1182.25,-159.301 1159.89,-146.462 1144.41,-137.571"/>
<polygon fill="midnightblue" stroke="midnightblue" points="1198.06,-172.417 1208.48,-174.362 1201.55,-166.347 1198.06,-172.417"/>
</g>
<!-- Node27 -->
<g id="node64" class="node"><title>Node27</title>
<a xlink:href="attribslice_8h.html" target="_top" xlink:title="attribslice.h">
<polygon fill="white" stroke="black" points="320.5,-116.5 320.5,-137.5 387.5,-137.5 387.5,-116.5 320.5,-116.5"/>
<text text-anchor="middle" x="354" y="-124.5" font-family="Helvetica,sans-Serif" font-size="10.00">attribslice.h</text>
</a>
</g>
<!-- Node2&#45;&gt;Node27 -->
<g id="edge74" class="edge"><title>Node2&#45;&gt;Node27</title>
<path fill="none" stroke="midnightblue" d="M1186.69,-183.632C1042.89,-178.608 555.466,-160.299 401,-138 396.687,-137.377 392.187,-136.554 387.754,-135.637"/>
<polygon fill="midnightblue" stroke="midnightblue" points="1186.71,-187.135 1196.83,-183.984 1186.96,-180.139 1186.71,-187.135"/>
</g>
<!-- Node28 -->
<g id="node66" class="node"><title>Node28</title>
<a xlink:href="velocityfunction_8h.html" target="_top" xlink:title="velocityfunction.h">
<polygon fill="white" stroke="red" points="1180.5,-116.5 1180.5,-137.5 1273.5,-137.5 1273.5,-116.5 1180.5,-116.5"/>
<text text-anchor="middle" x="1227" y="-124.5" font-family="Helvetica,sans-Serif" font-size="10.00">velocityfunction.h</text>
</a>
</g>
<!-- Node2&#45;&gt;Node28 -->
<g id="edge76" class="edge"><title>Node2&#45;&gt;Node28</title>
<path fill="none" stroke="midnightblue" d="M1227,-164.191C1227,-155.168 1227,-144.994 1227,-137.571"/>
<polygon fill="midnightblue" stroke="midnightblue" points="1223.5,-164.362 1227,-174.362 1230.5,-164.362 1223.5,-164.362"/>
</g>
<!-- Node29 -->
<g id="node69" class="node"><title>Node29</title>
<a xlink:href="volprocchain_8h.html" target="_top" xlink:title="volprocchain.h">
<polygon fill="white" stroke="red" points="1291,-116.5 1291,-137.5 1371,-137.5 1371,-116.5 1291,-116.5"/>
<text text-anchor="middle" x="1331" y="-124.5" font-family="Helvetica,sans-Serif" font-size="10.00">volprocchain.h</text>
</a>
</g>
<!-- Node2&#45;&gt;Node29 -->
<g id="edge80" class="edge"><title>Node2&#45;&gt;Node29</title>
<path fill="none" stroke="midnightblue" d="M1255.01,-169.379C1273.08,-159.301 1296.1,-146.462 1312.05,-137.571"/>
<polygon fill="midnightblue" stroke="midnightblue" points="1253.1,-166.434 1246.08,-174.362 1256.51,-172.548 1253.1,-166.434"/>
</g>
<!-- Node30 -->
<g id="node71" class="node"><title>Node30</title>
<a xlink:href="prestackanglecomputer_8h.html" target="_top" xlink:title="prestackanglecomputer.h">
<polygon fill="white" stroke="black" points="1503,-116.5 1503,-137.5 1629,-137.5 1629,-116.5 1503,-116.5"/>
<text text-anchor="middle" x="1566" y="-124.5" font-family="Helvetica,sans-Serif" font-size="10.00">prestackanglecomputer.h</text>
</a>
</g>
<!-- Node2&#45;&gt;Node30 -->
<g id="edge82" class="edge"><title>Node2&#45;&gt;Node30</title>
<path fill="none" stroke="midnightblue" d="M1267.08,-178.143C1325.75,-168.105 1435.51,-149.326 1504.45,-137.53"/>
<polygon fill="midnightblue" stroke="midnightblue" points="1266.35,-174.717 1257.08,-179.853 1267.53,-181.616 1266.35,-174.717"/>
</g>
<!-- Node3&#45;&gt;Node4 -->
<g id="edge6" class="edge"><title>Node3&#45;&gt;Node4</title>
<path fill="none" stroke="midnightblue" d="M589.5,-116.2C678.015,-103.738 1047.33,-79.5476 1171.29,-71.5918"/>
<polygon fill="midnightblue" stroke="midnightblue" points="588.858,-112.757 579.523,-117.768 589.945,-119.673 588.858,-112.757"/>
</g>
<!-- Node3&#45;&gt;Node5 -->
<g id="edge8" class="edge"><title>Node3&#45;&gt;Node5</title>
<path fill="none" stroke="midnightblue" d="M508.03,-122.978C439.886,-116.018 299.065,-100.484 181,-80 178.11,-79.4986 175.134,-78.9437 172.143,-78.3574"/>
<polygon fill="midnightblue" stroke="midnightblue" points="508.027,-126.496 518.329,-124.021 508.732,-119.531 508.027,-126.496"/>
</g>
<!-- Node3&#45;&gt;Node6 -->
<g id="edge10" class="edge"><title>Node3&#45;&gt;Node6</title>
<path fill="none" stroke="midnightblue" d="M508.127,-123.634C409.931,-115.429 162.827,-94.0392 81,-80 78.3049,-79.5376 75.532,-79.004 72.7493,-78.4263"/>
<polygon fill="midnightblue" stroke="midnightblue" points="507.996,-127.135 518.253,-124.478 508.578,-120.16 507.996,-127.135"/>
</g>
<!-- Node3&#45;&gt;Node7 -->
<g id="edge12" class="edge"><title>Node3&#45;&gt;Node7</title>
<path fill="none" stroke="midnightblue" d="M589.446,-116.12C1126.91,-35.3479 1278.27,-174.343 1810,-80 1812.74,-79.5147 1815.55,-78.8486 1818.34,-78.0824"/>
<polygon fill="midnightblue" stroke="midnightblue" points="588.86,-112.669 579.501,-117.633 589.913,-119.589 588.86,-112.669"/>
</g>
<!-- Node3&#45;&gt;Node8 -->
<g id="edge14" class="edge"><title>Node3&#45;&gt;Node8</title>
<path fill="none" stroke="midnightblue" d="M589.669,-116.029C885.307,-67.812 965.594,-101.321 1261,-80 1288.03,-78.0487 1318.42,-75.2848 1341.97,-73.0157"/>
<polygon fill="midnightblue" stroke="midnightblue" points="588.809,-112.624 579.512,-117.704 589.948,-119.53 588.809,-112.624"/>
</g>
<!-- Node3&#45;&gt;Node9 -->
<g id="edge16" class="edge"><title>Node3&#45;&gt;Node9</title>
<path fill="none" stroke="midnightblue" d="M589.35,-115.823C735.257,-82.4617 773.817,-74.7327 919,-58 1225.16,-22.7142 1597.42,-13.6524 1717.59,-11.5682"/>
<polygon fill="midnightblue" stroke="midnightblue" points="588.549,-112.416 579.582,-118.058 590.11,-119.239 588.549,-112.416"/>
</g>
<!-- Node3&#45;&gt;Node10 -->
<g id="edge18" class="edge"><title>Node3&#45;&gt;Node10</title>
<path fill="none" stroke="midnightblue" d="M508.518,-115.376C472.097,-104.919 419.044,-89.6859 383.802,-79.567"/>
<polygon fill="midnightblue" stroke="midnightblue" points="507.743,-118.795 518.321,-118.191 509.675,-112.067 507.743,-118.795"/>
</g>
<!-- Node3&#45;&gt;Node11 -->
<g id="edge20" class="edge"><title>Node3&#45;&gt;Node11</title>
<path fill="none" stroke="midnightblue" d="M523.059,-110.821C507.04,-100.831 486.945,-88.2993 472.949,-79.5707"/>
<polygon fill="midnightblue" stroke="midnightblue" points="521.605,-114.04 531.942,-116.362 525.309,-108.1 521.605,-114.04"/>
</g>
<!-- Node3&#45;&gt;Node12 -->
<g id="edge22" class="edge"><title>Node3&#45;&gt;Node12</title>
<path fill="none" stroke="midnightblue" d="M508.124,-119.899C456.869,-110.928 366.332,-94.8641 289,-80 286.275,-79.4763 283.475,-78.9301 280.651,-78.3731"/>
<polygon fill="midnightblue" stroke="midnightblue" points="507.688,-123.376 518.141,-121.649 508.893,-116.48 507.688,-123.376"/>
</g>
<!-- Node3&#45;&gt;Node13 -->
<g id="edge24" class="edge"><title>Node3&#45;&gt;Node13</title>
<path fill="none" stroke="midnightblue" d="M589.43,-116.092C960.057,-57.7107 1060.87,-114.256 1431,-80 1445.66,-78.6435 1461.79,-76.448 1475.49,-74.3738"/>
<polygon fill="midnightblue" stroke="midnightblue" points="588.832,-112.643 579.507,-117.672 589.933,-119.556 588.832,-112.643"/>
</g>
<!-- Node3&#45;&gt;Node14 -->
<g id="edge26" class="edge"><title>Node3&#45;&gt;Node14</title>
<path fill="none" stroke="midnightblue" d="M547.924,-106.191C547.457,-97.1684 546.931,-86.9941 546.547,-79.5707"/>
<polygon fill="midnightblue" stroke="midnightblue" points="544.438,-106.556 548.45,-116.362 551.428,-106.194 544.438,-106.556"/>
</g>
<!-- Node3&#45;&gt;Node15 -->
<g id="edge28" class="edge"><title>Node3&#45;&gt;Node15</title>
<path fill="none" stroke="midnightblue" d="M589.541,-116.084C1011.99,-50.559 1126.47,-116.17 1549,-80 1557.73,-79.2527 1566.96,-78.2369 1575.94,-77.1231"/>
<polygon fill="midnightblue" stroke="midnightblue" points="588.842,-112.651 579.504,-117.657 589.926,-119.567 588.842,-112.651"/>
</g>
<!-- Node3&#45;&gt;Node16 -->
<g id="edge30" class="edge"><title>Node3&#45;&gt;Node16</title>
<path fill="none" stroke="midnightblue" d="M589.542,-115.911C717.764,-90.6582 859.332,-77.4727 927.794,-72.0152"/>
<polygon fill="midnightblue" stroke="midnightblue" points="588.669,-112.516 579.55,-117.909 590.042,-119.38 588.669,-112.516"/>
</g>
<!-- Node3&#45;&gt;Node17 -->
<g id="edge32" class="edge"><title>Node3&#45;&gt;Node17</title>
<path fill="none" stroke="midnightblue" d="M589.978,-116.008C1155.93,-31.0304 1311.09,-150.632 1876,-80 1878.94,-79.6322 1881.97,-79.1681 1885,-78.6397"/>
<polygon fill="midnightblue" stroke="midnightblue" points="589.29,-112.573 579.928,-117.532 590.34,-119.494 589.29,-112.573"/>
</g>
<!-- Node18&#45;&gt;Node19 -->
<g id="edge38" class="edge"><title>Node18&#45;&gt;Node19</title>
<path fill="none" stroke="midnightblue" d="M1757,-106.191C1757,-97.1684 1757,-86.9941 1757,-79.5707"/>
<polygon fill="midnightblue" stroke="midnightblue" points="1753.5,-106.362 1757,-116.362 1760.5,-106.362 1753.5,-106.362"/>
</g>
<!-- Node19&#45;&gt;Node9 -->
<g id="edge40" class="edge"><title>Node19&#45;&gt;Node9</title>
<path fill="none" stroke="midnightblue" d="M1757,-48.1906C1757,-39.1684 1757,-28.9941 1757,-21.5707"/>
<polygon fill="midnightblue" stroke="midnightblue" points="1753.5,-48.3619 1757,-58.3619 1760.5,-48.3619 1753.5,-48.3619"/>
</g>
<!-- Node31&#45;&gt;Node3 -->
<g id="edge86" class="edge"><title>Node31&#45;&gt;Node3</title>
<path fill="none" stroke="midnightblue" d="M337.079,-177.375C384.354,-166.137 472.127,-145.273 518.488,-134.253"/>
<polygon fill="midnightblue" stroke="midnightblue" points="336.003,-174.033 327.084,-179.751 337.622,-180.843 336.003,-174.033"/>
</g>
<!-- Node31&#45;&gt;Node11 -->
<g id="edge88" class="edge"><title>Node31&#45;&gt;Node11</title>
<path fill="none" stroke="midnightblue" d="M272.686,-180.696C223.045,-172.808 136.948,-153.312 169,-116 203.569,-75.7581 352.824,-89.5971 405,-80 407.762,-79.492 410.602,-78.9458 413.462,-78.378"/>
<polygon fill="midnightblue" stroke="midnightblue" points="272.259,-184.171 282.669,-182.205 273.305,-177.25 272.259,-184.171"/>
</g>
<!-- Node31&#45;&gt;Node14 -->
<g id="edge90" class="edge"><title>Node31&#45;&gt;Node14</title>
<path fill="none" stroke="midnightblue" d="M272.99,-177.079C234.213,-166.027 176.994,-144.131 202,-116 247.342,-64.9911 440.061,-93.3045 507,-80 509.76,-79.4514 512.61,-78.8057 515.454,-78.1067"/>
<polygon fill="midnightblue" stroke="midnightblue" points="272.303,-180.52 282.872,-179.779 274.148,-173.767 272.303,-180.52"/>
</g>
<!-- Node31&#45;&gt;Node24 -->
<g id="edge92" class="edge"><title>Node31&#45;&gt;Node24</title>
<path fill="none" stroke="midnightblue" d="M289.723,-166.541C281.81,-156.979 272.432,-145.647 265.748,-137.571"/>
<polygon fill="midnightblue" stroke="midnightblue" points="287.124,-168.889 296.196,-174.362 292.517,-164.426 287.124,-168.889"/>
</g>
<!-- Node31&#45;&gt;Node27 -->
<g id="edge94" class="edge"><title>Node31&#45;&gt;Node27</title>
<path fill="none" stroke="midnightblue" d="M320.595,-166.541C328.673,-156.979 338.247,-145.647 345.07,-137.571"/>
<polygon fill="midnightblue" stroke="midnightblue" points="317.767,-164.464 313.987,-174.362 323.115,-168.982 317.767,-164.464"/>
</g>
<!-- Node32&#45;&gt;Node6 -->
<g id="edge98" class="edge"><title>Node32&#45;&gt;Node6</title>
<path fill="none" stroke="midnightblue" d="M49.6803,-106.784C46.3613,-97.617 42.5742,-87.1572 39.8273,-79.5707"/>
<polygon fill="midnightblue" stroke="midnightblue" points="46.4529,-108.151 53.1483,-116.362 53.0347,-105.768 46.4529,-108.151"/>
</g>
<!-- Node32&#45;&gt;Node12 -->
<g id="edge100" class="edge"><title>Node32&#45;&gt;Node12</title>
<path fill="none" stroke="midnightblue" d="M88.9635,-116.585C121.07,-106.123 170.288,-90.086 202.561,-79.5699"/>
<polygon fill="midnightblue" stroke="midnightblue" points="87.6075,-113.346 79.1839,-119.772 89.7763,-120.001 87.6075,-113.346"/>
</g>
</g>
</svg>
