<?xml version="1.0" encoding="UTF-8" standalone="no"?>
<!DOCTYPE svg PUBLIC "-//W3C//DTD SVG 1.1//EN"
 "http://www.w3.org/Graphics/SVG/1.1/DTD/svg11.dtd">
<!-- Generated by graphviz version 2.26.0 (20091210.2329)
 -->
<!-- Title: od_iostream.h Pages: 1 -->
<svg width="867pt" height="784pt"
 viewBox="0.00 0.00 867.00 784.00" xmlns="http://www.w3.org/2000/svg" xmlns:xlink="http://www.w3.org/1999/xlink">
<g id="graph1" class="graph" transform="scale(1 1) rotate(0) translate(4 780)">
<title>od_iostream.h</title>
<polygon fill="white" stroke="white" points="-4,5 -4,-780 864,-780 864,5 -4,5"/>
<!-- Node1 -->
<g id="node1" class="node"><title>Node1</title>
<polygon fill="#bfbfbf" stroke="black" points="46,-754.5 46,-775.5 124,-775.5 124,-754.5 46,-754.5"/>
<text text-anchor="middle" x="85" y="-762.5" font-family="Helvetica,sans-Serif" font-size="10.00">od_iostream.h</text>
</g>
<!-- Node2 -->
<g id="node3" class="node"><title>Node2</title>
<polygon fill="white" stroke="#bfbfbf" points="315.5,-0.5 315.5,-21.5 382.5,-21.5 382.5,-0.5 315.5,-0.5"/>
<text text-anchor="middle" x="349" y="-8.5" font-family="Helvetica,sans-Serif" font-size="10.00">basicmod.h</text>
</g>
<!-- Node1&#45;&gt;Node2 -->
<g id="edge2" class="edge"><title>Node1&#45;&gt;Node2</title>
<path fill="none" stroke="midnightblue" d="M69.8037,-754.437C45.3547,-736.064 0,-695.688 0,-649 0,-649 0,-649 0,-127 0,-88.3308 19.7664,-77.7695 53,-58 94.8233,-33.1208 233.556,-19.5063 305.252,-13.9774"/>
<polygon fill="midnightblue" stroke="midnightblue" points="305.615,-17.4601 315.324,-13.22 305.09,-10.4798 305.615,-17.4601"/>
</g>
<!-- Node3 -->
<g id="node5" class="node"><title>Node3</title>
<a xlink:href="od__istream_8h.html" target="_top" xlink:title="od_istream.h">
<polygon fill="white" stroke="black" points="48.5,-696.5 48.5,-717.5 121.5,-717.5 121.5,-696.5 48.5,-696.5"/>
<text text-anchor="middle" x="85" y="-704.5" font-family="Helvetica,sans-Serif" font-size="10.00">od_istream.h</text>
</a>
</g>
<!-- Node1&#45;&gt;Node3 -->
<g id="edge4" class="edge"><title>Node1&#45;&gt;Node3</title>
<path fill="none" stroke="midnightblue" d="M85,-754.362C85,-746.922 85,-736.743 85,-727.728"/>
<polygon fill="midnightblue" stroke="midnightblue" points="88.5001,-727.571 85,-717.571 81.5001,-727.571 88.5001,-727.571"/>
</g>
<!-- Node33 -->
<g id="node91" class="node"><title>Node33</title>
<a xlink:href="od__ostream_8h.html" target="_top" xlink:title="od_ostream.h">
<polygon fill="white" stroke="black" points="161,-696.5 161,-717.5 237,-717.5 237,-696.5 161,-696.5"/>
<text text-anchor="middle" x="199" y="-704.5" font-family="Helvetica,sans-Serif" font-size="10.00">od_ostream.h</text>
</a>
</g>
<!-- Node1&#45;&gt;Node33 -->
<g id="edge116" class="edge"><title>Node1&#45;&gt;Node33</title>
<path fill="none" stroke="midnightblue" d="M105.645,-754.497C123.37,-745.479 149.145,-732.365 169.123,-722.201"/>
<polygon fill="midnightblue" stroke="midnightblue" points="170.798,-725.275 178.124,-717.621 167.624,-719.036 170.798,-725.275"/>
</g>
<!-- Node3&#45;&gt;Node2 -->
<g id="edge6" class="edge"><title>Node3&#45;&gt;Node2</title>
<path fill="none" stroke="midnightblue" d="M77.4486,-696.389C64.1628,-676.648 38,-632.503 38,-591 38,-591 38,-591 38,-127 38,-89.6429 54.5473,-78.1565 86,-58 121.679,-35.1351 240.414,-20.9658 305.463,-14.7277"/>
<polygon fill="midnightblue" stroke="midnightblue" points="305.791,-18.2124 315.421,-13.7945 305.138,-11.2429 305.791,-18.2124"/>
</g>
<!-- Node4 -->
<g id="node8" class="node"><title>Node4</title>
<a xlink:href="od__stream_8h.html" target="_top" xlink:title="od_stream.h">
<polygon fill="white" stroke="black" points="163.5,-638.5 163.5,-659.5 234.5,-659.5 234.5,-638.5 163.5,-638.5"/>
<text text-anchor="middle" x="199" y="-646.5" font-family="Helvetica,sans-Serif" font-size="10.00">od_stream.h</text>
</a>
</g>
<!-- Node3&#45;&gt;Node4 -->
<g id="edge8" class="edge"><title>Node3&#45;&gt;Node4</title>
<path fill="none" stroke="midnightblue" d="M105.645,-696.497C123.37,-687.479 149.145,-674.365 169.123,-664.201"/>
<polygon fill="midnightblue" stroke="midnightblue" points="170.798,-667.275 178.124,-659.621 167.624,-661.036 170.798,-667.275"/>
</g>
<!-- Node4&#45;&gt;Node2 -->
<g id="edge10" class="edge"><title>Node4&#45;&gt;Node2</title>
<path fill="none" stroke="midnightblue" d="M201.949,-638.113C205.208,-624.403 209.444,-600.199 205,-580 175.648,-446.578 76,-437.613 76,-301 76,-301 76,-301 76,-127 76,-91.9903 85.7607,-78.6935 114,-58 143.839,-36.1342 245.612,-21.9678 304.988,-15.3548"/>
<polygon fill="midnightblue" stroke="midnightblue" points="305.636,-18.805 315.199,-14.2452 304.88,-11.846 305.636,-18.805"/>
</g>
<!-- Node5 -->
<g id="node11" class="node"><title>Node5</title>
<a xlink:href="bufstring_8h.html" target="_top" xlink:title="bufstring.h">
<polygon fill="white" stroke="black" points="269,-348.5 269,-369.5 331,-369.5 331,-348.5 269,-348.5"/>
<text text-anchor="middle" x="300" y="-356.5" font-family="Helvetica,sans-Serif" font-size="10.00">bufstring.h</text>
</a>
</g>
<!-- Node4&#45;&gt;Node5 -->
<g id="edge12" class="edge"><title>Node4&#45;&gt;Node5</title>
<path fill="none" stroke="midnightblue" d="M215.507,-638.358C241.49,-620.163 289,-580.411 289,-533 289,-533 289,-533 289,-475 289,-441.448 293.617,-402.68 296.869,-379.538"/>
<polygon fill="midnightblue" stroke="midnightblue" points="300.35,-379.925 298.329,-369.524 293.423,-378.915 300.35,-379.925"/>
</g>
<!-- Node22 -->
<g id="node56" class="node"><title>Node22</title>
<a xlink:href="uistring_8h.html" target="_top" xlink:title="uistring.h">
<polygon fill="white" stroke="black" points="380,-580.5 380,-601.5 436,-601.5 436,-580.5 380,-580.5"/>
<text text-anchor="middle" x="408" y="-588.5" font-family="Helvetica,sans-Serif" font-size="10.00">uistring.h</text>
</a>
</g>
<!-- Node4&#45;&gt;Node22 -->
<g id="edge68" class="edge"><title>Node4&#45;&gt;Node22</title>
<path fill="none" stroke="midnightblue" d="M234.928,-639.029C272.641,-628.564 331.685,-612.178 370.116,-601.513"/>
<polygon fill="midnightblue" stroke="midnightblue" points="371.195,-604.846 379.895,-598.8 369.323,-598.101 371.195,-604.846"/>
</g>
<!-- Node31 -->
<g id="node87" class="node"><title>Node31</title>
<a xlink:href="od__iosfwd_8h.html" target="_top" xlink:title="od_iosfwd.h">
<polygon fill="white" stroke="black" points="65.5,-580.5 65.5,-601.5 134.5,-601.5 134.5,-580.5 65.5,-580.5"/>
<text text-anchor="middle" x="100" y="-588.5" font-family="Helvetica,sans-Serif" font-size="10.00">od_iosfwd.h</text>
</a>
</g>
<!-- Node4&#45;&gt;Node31 -->
<g id="edge112" class="edge"><title>Node4&#45;&gt;Node31</title>
<path fill="none" stroke="midnightblue" d="M180.842,-638.362C165.77,-629.532 144.113,-616.844 127.007,-606.822"/>
<polygon fill="midnightblue" stroke="midnightblue" points="128.441,-603.606 118.043,-601.571 124.902,-609.646 128.441,-603.606"/>
</g>
<!-- Node32 -->
<g id="node89" class="node"><title>Node32</title>
<polygon fill="white" stroke="#bfbfbf" points="151.5,-580.5 151.5,-601.5 196.5,-601.5 196.5,-580.5 151.5,-580.5"/>
<text text-anchor="middle" x="174" y="-588.5" font-family="Helvetica,sans-Serif" font-size="10.00">iosfwd</text>
</g>
<!-- Node4&#45;&gt;Node32 -->
<g id="edge114" class="edge"><title>Node4&#45;&gt;Node32</title>
<path fill="none" stroke="midnightblue" d="M194.415,-638.362C191.102,-630.677 186.53,-620.069 182.552,-610.84"/>
<polygon fill="midnightblue" stroke="midnightblue" points="185.729,-609.368 178.556,-601.571 179.301,-612.139 185.729,-609.368"/>
</g>
<!-- Node5&#45;&gt;Node2 -->
<g id="edge14" class="edge"><title>Node5&#45;&gt;Node2</title>
<path fill="none" stroke="midnightblue" d="M268.868,-354.183C215.918,-344.029 114,-315.118 114,-243 114,-243 114,-243 114,-127 114,-95.1919 109.904,-79.8711 133,-58 157.397,-34.8969 249.473,-21.4098 305.231,-15.1928"/>
<polygon fill="midnightblue" stroke="midnightblue" points="305.629,-18.6702 315.195,-14.1159 304.877,-11.7108 305.629,-18.6702"/>
</g>
<!-- Node6 -->
<g id="node14" class="node"><title>Node6</title>
<a xlink:href="fixedstring_8h.html" target="_top" xlink:title="fixedstring.h">
<polygon fill="white" stroke="black" points="314,-290.5 314,-311.5 384,-311.5 384,-290.5 314,-290.5"/>
<text text-anchor="middle" x="349" y="-298.5" font-family="Helvetica,sans-Serif" font-size="10.00">fixedstring.h</text>
</a>
</g>
<!-- Node5&#45;&gt;Node6 -->
<g id="edge16" class="edge"><title>Node5&#45;&gt;Node6</title>
<path fill="none" stroke="midnightblue" d="M308.987,-348.362C315.825,-340.268 325.402,-328.932 333.472,-319.38"/>
<polygon fill="midnightblue" stroke="midnightblue" points="336.29,-321.468 340.07,-311.571 330.942,-316.951 336.29,-321.468"/>
</g>
<!-- Node19 -->
<g id="node47" class="node"><title>Node19</title>
<a xlink:href="string2_8h.html" target="_top" xlink:title="string2.h">
<polygon fill="white" stroke="black" points="248,-116.5 248,-137.5 302,-137.5 302,-116.5 248,-116.5"/>
<text text-anchor="middle" x="275" y="-124.5" font-family="Helvetica,sans-Serif" font-size="10.00">string2.h</text>
</a>
</g>
<!-- Node5&#45;&gt;Node19 -->
<g id="edge56" class="edge"><title>Node5&#45;&gt;Node19</title>
<path fill="none" stroke="midnightblue" d="M298.861,-348.429C295.005,-312.648 282.399,-195.663 277.236,-147.748"/>
<polygon fill="midnightblue" stroke="midnightblue" points="280.697,-147.201 276.146,-137.634 273.737,-147.951 280.697,-147.201"/>
</g>
<!-- Node6&#45;&gt;Node2 -->
<g id="edge18" class="edge"><title>Node6&#45;&gt;Node2</title>
<path fill="none" stroke="midnightblue" d="M345.164,-290.345C341.989,-280.93 337.731,-266.752 336,-254 334.685,-244.311 335.713,-241.774 336,-232 338.168,-158.221 344.399,-70.7673 347.377,-31.6746"/>
<polygon fill="midnightblue" stroke="midnightblue" points="350.877,-31.8109 348.157,-21.5712 343.898,-31.2722 350.877,-31.8109"/>
</g>
<!-- Node7 -->
<g id="node17" class="node"><title>Node7</title>
<a xlink:href="odstring_8h.html" target="_top" xlink:title="odstring.h">
<polygon fill="white" stroke="black" points="344.5,-232.5 344.5,-253.5 403.5,-253.5 403.5,-232.5 344.5,-232.5"/>
<text text-anchor="middle" x="374" y="-240.5" font-family="Helvetica,sans-Serif" font-size="10.00">odstring.h</text>
</a>
</g>
<!-- Node6&#45;&gt;Node7 -->
<g id="edge20" class="edge"><title>Node6&#45;&gt;Node7</title>
<path fill="none" stroke="midnightblue" d="M353.585,-290.362C356.898,-282.677 361.47,-272.069 365.448,-262.84"/>
<polygon fill="midnightblue" stroke="midnightblue" points="368.699,-264.139 369.444,-253.571 362.271,-261.368 368.699,-264.139"/>
</g>
<!-- Node7&#45;&gt;Node2 -->
<g id="edge22" class="edge"><title>Node7&#45;&gt;Node2</title>
<path fill="none" stroke="midnightblue" d="M372.861,-232.429C369.005,-196.648 356.399,-79.6628 351.236,-31.7481"/>
<polygon fill="midnightblue" stroke="midnightblue" points="354.697,-31.2009 350.146,-21.6335 347.737,-31.951 354.697,-31.2009"/>
</g>
<!-- Node8 -->
<g id="node20" class="node"><title>Node8</title>
<a xlink:href="gendefs_8h.html" target="_top" xlink:title="gendefs.h">
<polygon fill="white" stroke="black" points="565.5,-174.5 565.5,-195.5 624.5,-195.5 624.5,-174.5 565.5,-174.5"/>
<text text-anchor="middle" x="595" y="-182.5" font-family="Helvetica,sans-Serif" font-size="10.00">gendefs.h</text>
</a>
</g>
<!-- Node7&#45;&gt;Node8 -->
<g id="edge24" class="edge"><title>Node7&#45;&gt;Node8</title>
<path fill="none" stroke="midnightblue" d="M403.805,-235.178C443.046,-224.879 512.139,-206.746 555.641,-195.329"/>
<polygon fill="midnightblue" stroke="midnightblue" points="556.531,-198.715 565.315,-192.791 554.754,-191.944 556.531,-198.715"/>
</g>
<!-- Node9 -->
<g id="node22" class="node"><title>Node9</title>
<a xlink:href="undefval_8h.html" target="_top" xlink:title="undefval.h">
<polygon fill="white" stroke="black" points="522,-116.5 522,-137.5 584,-137.5 584,-116.5 522,-116.5"/>
<text text-anchor="middle" x="553" y="-124.5" font-family="Helvetica,sans-Serif" font-size="10.00">undefval.h</text>
</a>
</g>
<!-- Node8&#45;&gt;Node9 -->
<g id="edge26" class="edge"><title>Node8&#45;&gt;Node9</title>
<path fill="none" stroke="midnightblue" d="M587.297,-174.362C581.554,-166.431 573.557,-155.389 566.73,-145.961"/>
<polygon fill="midnightblue" stroke="midnightblue" points="569.355,-143.617 560.655,-137.571 563.685,-147.723 569.355,-143.617"/>
</g>
<!-- Node16 -->
<g id="node39" class="node"><title>Node16</title>
<a xlink:href="commontypes_8h.html" target="_top" xlink:title="commontypes.h">
<polygon fill="white" stroke="black" points="602,-116.5 602,-137.5 688,-137.5 688,-116.5 602,-116.5"/>
<text text-anchor="middle" x="645" y="-124.5" font-family="Helvetica,sans-Serif" font-size="10.00">commontypes.h</text>
</a>
</g>
<!-- Node8&#45;&gt;Node16 -->
<g id="edge46" class="edge"><title>Node8&#45;&gt;Node16</title>
<path fill="none" stroke="midnightblue" d="M604.171,-174.362C611.148,-166.268 620.921,-154.932 629.156,-145.38"/>
<polygon fill="midnightblue" stroke="midnightblue" points="632.009,-147.43 635.887,-137.571 626.707,-142.859 632.009,-147.43"/>
</g>
<!-- Node17 -->
<g id="node42" class="node"><title>Node17</title>
<a xlink:href="errmsg_8h.html" target="_top" xlink:title="errmsg.h">
<polygon fill="white" stroke="black" points="705.5,-116.5 705.5,-137.5 760.5,-137.5 760.5,-116.5 705.5,-116.5"/>
<text text-anchor="middle" x="733" y="-124.5" font-family="Helvetica,sans-Serif" font-size="10.00">errmsg.h</text>
</a>
</g>
<!-- Node8&#45;&gt;Node17 -->
<g id="edge50" class="edge"><title>Node8&#45;&gt;Node17</title>
<path fill="none" stroke="midnightblue" d="M619.991,-174.497C641.933,-165.275 674.066,-151.769 698.464,-141.515"/>
<polygon fill="midnightblue" stroke="midnightblue" points="699.866,-144.722 707.729,-137.621 697.154,-138.269 699.866,-144.722"/>
</g>
<!-- Node9&#45;&gt;Node2 -->
<g id="edge28" class="edge"><title>Node9&#45;&gt;Node2</title>
<path fill="none" stroke="midnightblue" d="M537.261,-116.452C516.167,-102.473 477.393,-77.3258 443,-58 422.682,-46.5831 399.237,-34.8581 380.844,-25.9749"/>
<polygon fill="midnightblue" stroke="midnightblue" points="382.26,-22.7723 371.73,-21.6053 379.234,-29.0844 382.26,-22.7723"/>
</g>
<!-- Node10 -->
<g id="node25" class="node"><title>Node10</title>
<a xlink:href="commondefs_8h.html" target="_top" xlink:title="commondefs.h">
<polygon fill="white" stroke="black" points="585.5,-58.5 585.5,-79.5 666.5,-79.5 666.5,-58.5 585.5,-58.5"/>
<text text-anchor="middle" x="626" y="-66.5" font-family="Helvetica,sans-Serif" font-size="10.00">commondefs.h</text>
</a>
</g>
<!-- Node9&#45;&gt;Node10 -->
<g id="edge30" class="edge"><title>Node9&#45;&gt;Node10</title>
<path fill="none" stroke="midnightblue" d="M566.389,-116.362C577.091,-107.859 592.296,-95.7785 604.671,-85.9466"/>
<polygon fill="midnightblue" stroke="midnightblue" points="607.043,-88.5318 612.696,-79.5707 602.689,-83.0511 607.043,-88.5318"/>
</g>
<!-- Node14 -->
<g id="node34" class="node"><title>Node14</title>
<a xlink:href="plftypes_8h.html" target="_top" xlink:title="plftypes.h">
<polygon fill="white" stroke="black" points="509.5,-58.5 509.5,-79.5 568.5,-79.5 568.5,-58.5 509.5,-58.5"/>
<text text-anchor="middle" x="539" y="-66.5" font-family="Helvetica,sans-Serif" font-size="10.00">plftypes.h</text>
</a>
</g>
<!-- Node9&#45;&gt;Node14 -->
<g id="edge40" class="edge"><title>Node9&#45;&gt;Node14</title>
<path fill="none" stroke="midnightblue" d="M550.432,-116.362C548.617,-108.84 546.125,-98.5187 543.932,-89.4308"/>
<polygon fill="midnightblue" stroke="midnightblue" points="547.3,-88.4702 541.552,-79.5707 540.496,-90.1127 547.3,-88.4702"/>
</g>
<!-- Node10&#45;&gt;Node2 -->
<g id="edge32" class="edge"><title>Node10&#45;&gt;Node2</title>
<path fill="none" stroke="midnightblue" d="M585.37,-59.8214C582.539,-59.1995 579.727,-58.5872 577,-58 512.902,-44.1999 438.481,-29.0156 392.561,-19.7435"/>
<polygon fill="midnightblue" stroke="midnightblue" points="393.143,-16.2904 382.648,-17.7443 391.759,-23.1522 393.143,-16.2904"/>
</g>
<!-- Node11 -->
<g id="node28" class="node"><title>Node11</title>
<a xlink:href="plfdefs_8h.html" target="_top" xlink:title="plfdefs.h">
<polygon fill="white" stroke="black" points="559,-0.5 559,-21.5 613,-21.5 613,-0.5 559,-0.5"/>
<text text-anchor="middle" x="586" y="-8.5" font-family="Helvetica,sans-Serif" font-size="10.00">plfdefs.h</text>
</a>
</g>
<!-- Node10&#45;&gt;Node11 -->
<g id="edge34" class="edge"><title>Node10&#45;&gt;Node11</title>
<path fill="none" stroke="midnightblue" d="M618.663,-58.3619C613.194,-50.4313 605.578,-39.3885 599.076,-29.9606"/>
<polygon fill="midnightblue" stroke="midnightblue" points="601.849,-27.8157 593.29,-21.5707 596.086,-31.7899 601.849,-27.8157"/>
</g>
<!-- Node12 -->
<g id="node30" class="node"><title>Node12</title>
<polygon fill="white" stroke="#bfbfbf" points="750.5,-0.5 750.5,-21.5 809.5,-21.5 809.5,-0.5 750.5,-0.5"/>
<text text-anchor="middle" x="780" y="-8.5" font-family="Helvetica,sans-Serif" font-size="10.00">stdexcept</text>
</g>
<!-- Node10&#45;&gt;Node12 -->
<g id="edge36" class="edge"><title>Node10&#45;&gt;Node12</title>
<path fill="none" stroke="midnightblue" d="M653.888,-58.4966C678.668,-49.1639 715.095,-35.4447 742.436,-25.1475"/>
<polygon fill="midnightblue" stroke="midnightblue" points="743.935,-28.3231 752.059,-21.5231 741.468,-21.7723 743.935,-28.3231"/>
</g>
<!-- Node13 -->
<g id="node32" class="node"><title>Node13</title>
<polygon fill="white" stroke="#bfbfbf" points="630.5,-0.5 630.5,-21.5 665.5,-21.5 665.5,-0.5 630.5,-0.5"/>
<text text-anchor="middle" x="648" y="-8.5" font-family="Helvetica,sans-Serif" font-size="10.00">new</text>
</g>
<!-- Node10&#45;&gt;Node13 -->
<g id="edge38" class="edge"><title>Node10&#45;&gt;Node13</title>
<path fill="none" stroke="midnightblue" d="M630.035,-58.3619C632.919,-50.7584 636.888,-40.294 640.363,-31.1349"/>
<polygon fill="midnightblue" stroke="midnightblue" points="643.716,-32.1619 643.99,-21.5707 637.171,-29.6793 643.716,-32.1619"/>
</g>
<!-- Node14&#45;&gt;Node11 -->
<g id="edge42" class="edge"><title>Node14&#45;&gt;Node11</title>
<path fill="none" stroke="midnightblue" d="M547.621,-58.3619C554.18,-50.2678 563.366,-38.9318 571.106,-29.3796"/>
<polygon fill="midnightblue" stroke="midnightblue" points="573.858,-31.5436 577.434,-21.5707 568.419,-27.1364 573.858,-31.5436"/>
</g>
<!-- Node15 -->
<g id="node37" class="node"><title>Node15</title>
<polygon fill="white" stroke="#bfbfbf" points="492.5,-0.5 492.5,-21.5 541.5,-21.5 541.5,-0.5 492.5,-0.5"/>
<text text-anchor="middle" x="517" y="-8.5" font-family="Helvetica,sans-Serif" font-size="10.00">stdint.h</text>
</g>
<!-- Node14&#45;&gt;Node15 -->
<g id="edge44" class="edge"><title>Node14&#45;&gt;Node15</title>
<path fill="none" stroke="midnightblue" d="M534.965,-58.3619C532.081,-50.7584 528.112,-40.294 524.637,-31.1349"/>
<polygon fill="midnightblue" stroke="midnightblue" points="527.829,-29.6793 521.01,-21.5707 521.284,-32.1619 527.829,-29.6793"/>
</g>
<!-- Node16&#45;&gt;Node10 -->
<g id="edge48" class="edge"><title>Node16&#45;&gt;Node10</title>
<path fill="none" stroke="midnightblue" d="M641.515,-116.362C639.024,-108.758 635.596,-98.294 632.596,-89.1349"/>
<polygon fill="midnightblue" stroke="midnightblue" points="635.902,-87.9841 629.463,-79.5707 629.25,-90.1634 635.902,-87.9841"/>
</g>
<!-- Node17&#45;&gt;Node10 -->
<g id="edge52" class="edge"><title>Node17&#45;&gt;Node10</title>
<path fill="none" stroke="midnightblue" d="M713.375,-116.362C696.859,-107.409 673.026,-94.4908 654.422,-84.4064"/>
<polygon fill="midnightblue" stroke="midnightblue" points="655.96,-81.2592 645.501,-79.5707 652.625,-87.4132 655.96,-81.2592"/>
</g>
<!-- Node18 -->
<g id="node45" class="node"><title>Node18</title>
<polygon fill="white" stroke="#bfbfbf" points="707.5,-58.5 707.5,-79.5 758.5,-79.5 758.5,-58.5 707.5,-58.5"/>
<text text-anchor="middle" x="733" y="-66.5" font-family="Helvetica,sans-Serif" font-size="10.00">typeinfo</text>
</g>
<!-- Node17&#45;&gt;Node18 -->
<g id="edge54" class="edge"><title>Node17&#45;&gt;Node18</title>
<path fill="none" stroke="midnightblue" d="M733,-116.362C733,-108.922 733,-98.7427 733,-89.7276"/>
<polygon fill="midnightblue" stroke="midnightblue" points="736.5,-89.5706 733,-79.5707 729.5,-89.5707 736.5,-89.5706"/>
</g>
<!-- Node19&#45;&gt;Node2 -->
<g id="edge58" class="edge"><title>Node19&#45;&gt;Node2</title>
<path fill="none" stroke="midnightblue" d="M281.142,-116.088C288.95,-102.354 302.983,-78.1241 316,-58 322.109,-48.5559 329.242,-38.3082 335.31,-29.7992"/>
<polygon fill="midnightblue" stroke="midnightblue" points="338.162,-31.8292 341.161,-21.6679 332.48,-27.7407 338.162,-31.8292"/>
</g>
<!-- Node19&#45;&gt;Node10 -->
<g id="edge62" class="edge"><title>Node19&#45;&gt;Node10</title>
<path fill="none" stroke="midnightblue" d="M302.175,-123.388C353.601,-116.42 468.868,-100.173 575.447,-80.2123"/>
<polygon fill="midnightblue" stroke="midnightblue" points="576.225,-83.6274 585.401,-78.3321 574.925,-76.749 576.225,-83.6274"/>
</g>
<!-- Node19&#45;&gt;Node14 -->
<g id="edge60" class="edge"><title>Node19&#45;&gt;Node14</title>
<path fill="none" stroke="midnightblue" d="M302.258,-121.011C349.165,-110.706 445.321,-89.5809 499.545,-77.6681"/>
<polygon fill="midnightblue" stroke="midnightblue" points="500.466,-81.0493 509.482,-75.4849 498.964,-74.2123 500.466,-81.0493"/>
</g>
<!-- Node20 -->
<g id="node52" class="node"><title>Node20</title>
<polygon fill="white" stroke="#bfbfbf" points="141.5,-58.5 141.5,-79.5 190.5,-79.5 190.5,-58.5 141.5,-58.5"/>
<text text-anchor="middle" x="166" y="-66.5" font-family="Helvetica,sans-Serif" font-size="10.00">ctype.h</text>
</g>
<!-- Node19&#45;&gt;Node20 -->
<g id="edge64" class="edge"><title>Node19&#45;&gt;Node20</title>
<path fill="none" stroke="midnightblue" d="M255.261,-116.497C238.39,-107.519 213.891,-94.4835 194.826,-84.3387"/>
<polygon fill="midnightblue" stroke="midnightblue" points="196.433,-81.2289 185.961,-79.6212 193.144,-87.4086 196.433,-81.2289"/>
</g>
<!-- Node21 -->
<g id="node54" class="node"><title>Node21</title>
<polygon fill="white" stroke="#bfbfbf" points="208,-58.5 208,-79.5 264,-79.5 264,-58.5 208,-58.5"/>
<text text-anchor="middle" x="236" y="-66.5" font-family="Helvetica,sans-Serif" font-size="10.00">wctype.h</text>
</g>
<!-- Node19&#45;&gt;Node21 -->
<g id="edge66" class="edge"><title>Node19&#45;&gt;Node21</title>
<path fill="none" stroke="midnightblue" d="M267.847,-116.362C262.514,-108.431 255.089,-97.3885 248.749,-87.9606"/>
<polygon fill="midnightblue" stroke="midnightblue" points="251.592,-85.9161 243.108,-79.5707 245.783,-89.8221 251.592,-85.9161"/>
</g>
<!-- Node22&#45;&gt;Node8 -->
<g id="edge70" class="edge"><title>Node22&#45;&gt;Node8</title>
<path fill="none" stroke="midnightblue" d="M436.186,-588.424C523.396,-579.686 783,-547.577 783,-475 783,-475 783,-475 783,-301 783,-231.859 689.767,-202.572 634.613,-191.295"/>
<polygon fill="midnightblue" stroke="midnightblue" points="635.272,-187.858 624.789,-189.394 633.942,-194.73 635.272,-187.858"/>
</g>
<!-- Node22&#45;&gt;Node19 -->
<g id="edge86" class="edge"><title>Node22&#45;&gt;Node19</title>
<path fill="none" stroke="midnightblue" d="M379.671,-585.032C332.025,-573.15 241,-541.719 241,-475 241,-475 241,-475 241,-243 241,-208.058 255.382,-169.499 265.439,-146.809"/>
<polygon fill="midnightblue" stroke="midnightblue" points="268.689,-148.118 269.688,-137.57 262.329,-145.193 268.689,-148.118"/>
</g>
<!-- Node23 -->
<g id="node59" class="node"><title>Node23</title>
<a xlink:href="keystrs_8h.html" target="_top" xlink:title="keystrs.h">
<polygon fill="white" stroke="black" points="416.5,-348.5 416.5,-369.5 473.5,-369.5 473.5,-348.5 416.5,-348.5"/>
<text text-anchor="middle" x="445" y="-356.5" font-family="Helvetica,sans-Serif" font-size="10.00">keystrs.h</text>
</a>
</g>
<!-- Node22&#45;&gt;Node23 -->
<g id="edge72" class="edge"><title>Node22&#45;&gt;Node23</title>
<path fill="none" stroke="midnightblue" d="M409.686,-580.429C415.392,-544.648 434.049,-427.663 441.691,-379.748"/>
<polygon fill="midnightblue" stroke="midnightblue" points="445.185,-380.06 443.304,-369.634 438.273,-378.957 445.185,-380.06"/>
</g>
<!-- Node24 -->
<g id="node63" class="node"><title>Node24</title>
<a xlink:href="threadlock_8h.html" target="_top" xlink:title="threadlock.h">
<polygon fill="white" stroke="black" points="434,-116.5 434,-137.5 504,-137.5 504,-116.5 434,-116.5"/>
<text text-anchor="middle" x="469" y="-124.5" font-family="Helvetica,sans-Serif" font-size="10.00">threadlock.h</text>
</a>
</g>
<!-- Node22&#45;&gt;Node24 -->
<g id="edge78" class="edge"><title>Node22&#45;&gt;Node24</title>
<path fill="none" stroke="midnightblue" d="M405.031,-580.222C399.688,-559.841 389,-514.182 389,-475 389,-475 389,-475 389,-417 389,-311.877 438.454,-192.788 459.596,-146.678"/>
<polygon fill="midnightblue" stroke="midnightblue" points="462.819,-148.048 463.874,-137.506 456.475,-145.089 462.819,-148.048"/>
</g>
<!-- Node25 -->
<g id="node69" class="node"><title>Node25</title>
<a xlink:href="typeset_8h.html" target="_top" xlink:title="typeset.h">
<polygon fill="white" stroke="black" points="566.5,-522.5 566.5,-543.5 623.5,-543.5 623.5,-522.5 566.5,-522.5"/>
<text text-anchor="middle" x="595" y="-530.5" font-family="Helvetica,sans-Serif" font-size="10.00">typeset.h</text>
</a>
</g>
<!-- Node22&#45;&gt;Node25 -->
<g id="edge88" class="edge"><title>Node22&#45;&gt;Node25</title>
<path fill="none" stroke="midnightblue" d="M436.401,-582.191C468.528,-572.226 521.012,-555.948 556.732,-544.869"/>
<polygon fill="midnightblue" stroke="midnightblue" points="557.817,-548.197 566.331,-541.892 555.743,-541.511 557.817,-548.197"/>
</g>
<!-- Node23&#45;&gt;Node6 -->
<g id="edge76" class="edge"><title>Node23&#45;&gt;Node6</title>
<path fill="none" stroke="midnightblue" d="M427.392,-348.362C412.777,-339.532 391.776,-326.844 375.189,-316.822"/>
<polygon fill="midnightblue" stroke="midnightblue" points="376.865,-313.746 366.496,-311.571 373.246,-319.738 376.865,-313.746"/>
</g>
<!-- Node23&#45;&gt;Node8 -->
<g id="edge74" class="edge"><title>Node23&#45;&gt;Node8</title>
<path fill="none" stroke="midnightblue" d="M451.558,-348.489C465.906,-325.898 501.785,-271.56 539,-232 549.156,-221.204 561.7,-210.477 572.339,-202.003"/>
<polygon fill="midnightblue" stroke="midnightblue" points="574.648,-204.641 580.382,-195.731 570.343,-199.121 574.648,-204.641"/>
</g>
<!-- Node24&#45;&gt;Node2 -->
<g id="edge80" class="edge"><title>Node24&#45;&gt;Node2</title>
<path fill="none" stroke="midnightblue" d="M463.079,-116.265C454.774,-101.853 438.582,-75.983 420,-58 407.572,-45.9722 391.673,-35.1213 378.073,-26.8839"/>
<polygon fill="midnightblue" stroke="midnightblue" points="379.491,-23.6582 369.095,-21.6163 375.949,-29.6957 379.491,-23.6582"/>
</g>
<!-- Node24&#45;&gt;Node10 -->
<g id="edge82" class="edge"><title>Node24&#45;&gt;Node10</title>
<path fill="none" stroke="midnightblue" d="M497.432,-116.497C522.805,-107.123 560.157,-93.3242 588.07,-83.0122"/>
<polygon fill="midnightblue" stroke="midnightblue" points="589.348,-86.2716 597.515,-79.5231 586.922,-79.7054 589.348,-86.2716"/>
</g>
<!-- Node24&#45;&gt;Node14 -->
<g id="edge84" class="edge"><title>Node24&#45;&gt;Node14</title>
<path fill="none" stroke="midnightblue" d="M481.839,-116.362C492.002,-107.941 506.401,-96.0105 518.204,-86.2308"/>
<polygon fill="midnightblue" stroke="midnightblue" points="520.775,-88.6459 526.242,-79.5707 516.309,-83.2558 520.775,-88.6459"/>
</g>
<!-- Node26 -->
<g id="node71" class="node"><title>Node26</title>
<a xlink:href="odset_8h.html" target="_top" xlink:title="odset.h">
<polygon fill="white" stroke="black" points="682.5,-290.5 682.5,-311.5 731.5,-311.5 731.5,-290.5 682.5,-290.5"/>
<text text-anchor="middle" x="707" y="-298.5" font-family="Helvetica,sans-Serif" font-size="10.00">odset.h</text>
</a>
</g>
<!-- Node25&#45;&gt;Node26 -->
<g id="edge90" class="edge"><title>Node25&#45;&gt;Node26</title>
<path fill="none" stroke="midnightblue" d="M609.208,-522.296C630.738,-505.13 670.924,-469.162 688,-428 702.659,-392.662 706.203,-347.634 706.946,-321.785"/>
<polygon fill="midnightblue" stroke="midnightblue" points="710.448,-321.722 707.119,-311.664 703.449,-321.602 710.448,-321.722"/>
</g>
<!-- Node27 -->
<g id="node74" class="node"><title>Node27</title>
<a xlink:href="vectoraccess_8h.html" target="_top" xlink:title="vectoraccess.h">
<polygon fill="white" stroke="black" points="553.5,-464.5 553.5,-485.5 636.5,-485.5 636.5,-464.5 553.5,-464.5"/>
<text text-anchor="middle" x="595" y="-472.5" font-family="Helvetica,sans-Serif" font-size="10.00">vectoraccess.h</text>
</a>
</g>
<!-- Node25&#45;&gt;Node27 -->
<g id="edge94" class="edge"><title>Node25&#45;&gt;Node27</title>
<path fill="none" stroke="midnightblue" d="M595,-522.362C595,-514.922 595,-504.743 595,-495.728"/>
<polygon fill="midnightblue" stroke="midnightblue" points="598.5,-495.571 595,-485.571 591.5,-495.571 598.5,-495.571"/>
</g>
<!-- Node26&#45;&gt;Node8 -->
<g id="edge92" class="edge"><title>Node26&#45;&gt;Node8</title>
<path fill="none" stroke="midnightblue" d="M696.664,-290.295C677.411,-270.355 635.877,-227.337 612.288,-202.906"/>
<polygon fill="midnightblue" stroke="midnightblue" points="614.775,-200.442 605.311,-195.679 609.739,-205.304 614.775,-200.442"/>
</g>
<!-- Node27&#45;&gt;Node8 -->
<g id="edge104" class="edge"><title>Node27&#45;&gt;Node8</title>
<path fill="none" stroke="midnightblue" d="M595,-464.444C595,-444.062 595,-397.868 595,-359 595,-359 595,-359 595,-301 595,-267.598 595,-228.785 595,-205.594"/>
<polygon fill="midnightblue" stroke="midnightblue" points="598.5,-205.556 595,-195.556 591.5,-205.556 598.5,-205.556"/>
</g>
<!-- Node27&#45;&gt;Node12 -->
<g id="edge110" class="edge"><title>Node27&#45;&gt;Node12</title>
<path fill="none" stroke="midnightblue" d="M628.609,-464.414C648.033,-456.866 671.762,-445.012 688,-428 746.516,-366.697 739.928,-334.638 766,-254 790.295,-178.859 793.958,-158.561 802,-80 802.996,-70.2731 804.123,-67.5445 802,-58 799.914,-48.6216 795.748,-38.9009 791.597,-30.7504"/>
<polygon fill="midnightblue" stroke="midnightblue" points="794.536,-28.8278 786.683,-21.716 788.387,-32.1729 794.536,-28.8278"/>
</g>
<!-- Node28 -->
<g id="node76" class="node"><title>Node28</title>
<a xlink:href="debug_8h.html" target="_top" xlink:title="debug.h">
<polygon fill="white" stroke="black" points="454.5,-406.5 454.5,-427.5 505.5,-427.5 505.5,-406.5 454.5,-406.5"/>
<text text-anchor="middle" x="480" y="-414.5" font-family="Helvetica,sans-Serif" font-size="10.00">debug.h</text>
</a>
</g>
<!-- Node27&#45;&gt;Node28 -->
<g id="edge96" class="edge"><title>Node27&#45;&gt;Node28</title>
<path fill="none" stroke="midnightblue" d="M574.174,-464.497C556.294,-455.479 530.293,-442.365 510.139,-432.201"/>
<polygon fill="midnightblue" stroke="midnightblue" points="511.564,-428.999 501.059,-427.621 508.412,-435.249 511.564,-428.999"/>
</g>
<!-- Node29 -->
<g id="node82" class="node"><title>Node29</title>
<polygon fill="white" stroke="#bfbfbf" points="623,-406.5 623,-427.5 679,-427.5 679,-406.5 623,-406.5"/>
<text text-anchor="middle" x="651" y="-414.5" font-family="Helvetica,sans-Serif" font-size="10.00">algorithm</text>
</g>
<!-- Node27&#45;&gt;Node29 -->
<g id="edge106" class="edge"><title>Node27&#45;&gt;Node29</title>
<path fill="none" stroke="midnightblue" d="M605.271,-464.362C613.244,-456.104 624.475,-444.472 633.811,-434.803"/>
<polygon fill="midnightblue" stroke="midnightblue" points="636.366,-437.196 640.794,-427.571 631.33,-432.334 636.366,-437.196"/>
</g>
<!-- Node30 -->
<g id="node84" class="node"><title>Node30</title>
<polygon fill="white" stroke="#bfbfbf" points="523,-406.5 523,-427.5 567,-427.5 567,-406.5 523,-406.5"/>
<text text-anchor="middle" x="545" y="-414.5" font-family="Helvetica,sans-Serif" font-size="10.00">vector</text>
</g>
<!-- Node27&#45;&gt;Node30 -->
<g id="edge108" class="edge"><title>Node27&#45;&gt;Node30</title>
<path fill="none" stroke="midnightblue" d="M585.829,-464.362C578.852,-456.268 569.079,-444.932 560.844,-435.38"/>
<polygon fill="midnightblue" stroke="midnightblue" points="563.293,-432.859 554.113,-427.571 557.991,-437.43 563.293,-432.859"/>
</g>
<!-- Node28&#45;&gt;Node2 -->
<g id="edge98" class="edge"><title>Node28&#45;&gt;Node2</title>
<path fill="none" stroke="midnightblue" d="M481.734,-406.132C483.596,-392.442 485.807,-368.258 482,-348 458.147,-221.084 387.008,-80.9808 359.772,-30.4762"/>
<polygon fill="midnightblue" stroke="midnightblue" points="362.794,-28.7078 354.937,-21.6003 356.647,-32.0563 362.794,-28.7078"/>
</g>
<!-- Node28&#45;&gt;Node5 -->
<g id="edge102" class="edge"><title>Node28&#45;&gt;Node5</title>
<path fill="none" stroke="midnightblue" d="M454.21,-408.69C424.659,-399.168 375.837,-383.436 341.045,-372.225"/>
<polygon fill="midnightblue" stroke="midnightblue" points="341.775,-368.784 331.183,-369.048 339.628,-375.446 341.775,-368.784"/>
</g>
<!-- Node28&#45;&gt;Node8 -->
<g id="edge100" class="edge"><title>Node28&#45;&gt;Node8</title>
<path fill="none" stroke="midnightblue" d="M491.27,-406.263C500.242,-397.244 512.638,-383.671 521,-370 538.766,-340.953 572.968,-247.179 587.822,-205.405"/>
<polygon fill="midnightblue" stroke="midnightblue" points="591.2,-206.35 591.238,-195.755 584.601,-204.014 591.2,-206.35"/>
</g>
<!-- Node33&#45;&gt;Node2 -->
<g id="edge118" class="edge"><title>Node33&#45;&gt;Node2</title>
<path fill="none" stroke="midnightblue" d="M237.337,-704.353C378.197,-694.123 859,-654.551 859,-591 859,-591 859,-591 859,-301 859,-185.519 858.199,-128.842 767,-58 752.346,-46.6174 497.428,-23.6788 393.033,-14.712"/>
<polygon fill="midnightblue" stroke="midnightblue" points="393.088,-11.204 382.826,-13.8386 392.491,-18.1785 393.088,-11.204"/>
</g>
<!-- Node33&#45;&gt;Node4 -->
<g id="edge120" class="edge"><title>Node33&#45;&gt;Node4</title>
<path fill="none" stroke="midnightblue" d="M199,-696.362C199,-688.922 199,-678.743 199,-669.728"/>
<polygon fill="midnightblue" stroke="midnightblue" points="202.5,-669.571 199,-659.571 195.5,-669.571 202.5,-669.571"/>
</g>
</g>
</svg>
