<?xml version="1.0" encoding="UTF-8" standalone="no"?>
<!DOCTYPE svg PUBLIC "-//W3C//DTD SVG 1.1//EN"
 "http://www.w3.org/Graphics/SVG/1.1/DTD/svg11.dtd">
<!-- Generated by graphviz version 2.26.0 (20091210.2329)
 -->
<!-- Title: odcomplex.h Pages: 1 -->
<svg width="2213pt" height="378pt"
 viewBox="0.00 0.00 2213.00 378.00" xmlns="http://www.w3.org/2000/svg" xmlns:xlink="http://www.w3.org/1999/xlink">
<g id="graph1" class="graph" transform="scale(1 1) rotate(0) translate(4 374)">
<title>odcomplex.h</title>
<polygon fill="white" stroke="white" points="-4,5 -4,-374 2210,-374 2210,5 -4,5"/>
<!-- Node1 -->
<g id="node1" class="node"><title>Node1</title>
<polygon fill="#bfbfbf" stroke="black" points="1316,-348.5 1316,-369.5 1388,-369.5 1388,-348.5 1316,-348.5"/>
<text text-anchor="middle" x="1352" y="-356.5" font-family="Helvetica,sans-Serif" font-size="10.00">odcomplex.h</text>
</g>
<!-- Node2 -->
<g id="node3" class="node"><title>Node2</title>
<a xlink:href="math2_8h.html" target="_top" xlink:title="math2.h">
<polygon fill="white" stroke="black" points="1288,-290.5 1288,-311.5 1340,-311.5 1340,-290.5 1288,-290.5"/>
<text text-anchor="middle" x="1314" y="-298.5" font-family="Helvetica,sans-Serif" font-size="10.00">math2.h</text>
</a>
</g>
<!-- Node1&#45;&gt;Node2 -->
<g id="edge2" class="edge"><title>Node1&#45;&gt;Node2</title>
<path fill="none" stroke="midnightblue" d="M1339.52,-339.959C1333.34,-330.522 1326.11,-319.484 1320.93,-311.571"/>
<polygon fill="midnightblue" stroke="midnightblue" points="1336.62,-341.915 1345.03,-348.362 1342.48,-338.079 1336.62,-341.915"/>
</g>
<!-- Node15 -->
<g id="node30" class="node"><title>Node15</title>
<a xlink:href="raytrace1d_8h.html" target="_top" xlink:title="raytrace1d.h">
<polygon fill="white" stroke="black" points="464.5,-58.5 464.5,-79.5 535.5,-79.5 535.5,-58.5 464.5,-58.5"/>
<text text-anchor="middle" x="500" y="-66.5" font-family="Helvetica,sans-Serif" font-size="10.00">raytrace1d.h</text>
</a>
</g>
<!-- Node1&#45;&gt;Node15 -->
<g id="edge128" class="edge"><title>Node1&#45;&gt;Node15</title>
<path fill="none" stroke="midnightblue" d="M1305.76,-358.811C1134.1,-357.801 533.745,-351.466 347,-312 263.987,-294.456 169,-327.847 169,-243 169,-243 169,-243 169,-185 169,-74.1444 431.609,-85.2718 456,-80 458.617,-79.4344 461.315,-78.8251 464.026,-78.1935"/>
<polygon fill="midnightblue" stroke="midnightblue" points="1305.95,-362.312 1315.97,-358.867 1305.99,-355.312 1305.95,-362.312"/>
</g>
<!-- Node18 -->
<g id="node37" class="node"><title>Node18</title>
<a xlink:href="synthseis_8h.html" target="_top" xlink:title="synthseis.h">
<polygon fill="white" stroke="black" points="380.5,-58.5 380.5,-79.5 447.5,-79.5 447.5,-58.5 380.5,-58.5"/>
<text text-anchor="middle" x="414" y="-66.5" font-family="Helvetica,sans-Serif" font-size="10.00">synthseis.h</text>
</a>
</g>
<!-- Node1&#45;&gt;Node18 -->
<g id="edge142" class="edge"><title>Node1&#45;&gt;Node18</title>
<path fill="none" stroke="midnightblue" d="M1305.88,-358.223C1095.58,-354.543 235.66,-337.957 185,-312 150.343,-294.242 131,-281.942 131,-243 131,-243 131,-243 131,-185 131,-145.223 153.938,-136.543 188,-116 220.001,-96.7001 325.322,-80.5762 380.149,-73.2439"/>
<polygon fill="midnightblue" stroke="midnightblue" points="1305.91,-361.724 1315.96,-358.398 1306.03,-354.725 1305.91,-361.724"/>
</g>
<!-- Node21 -->
<g id="node45" class="node"><title>Node21</title>
<a xlink:href="uiamplspectrum_8h.html" target="_top" xlink:title="uiamplspectrum.h">
<polygon fill="white" stroke="black" points="9,-116.5 9,-137.5 103,-137.5 103,-116.5 9,-116.5"/>
<text text-anchor="middle" x="56" y="-124.5" font-family="Helvetica,sans-Serif" font-size="10.00">uiamplspectrum.h</text>
</a>
</g>
<!-- Node1&#45;&gt;Node21 -->
<g id="edge148" class="edge"><title>Node1&#45;&gt;Node21</title>
<path fill="none" stroke="midnightblue" d="M1305.81,-358.707C1087.23,-357.138 165.336,-348.378 117,-312 59.7147,-268.887 55.4749,-170.309 55.7098,-137.696"/>
<polygon fill="midnightblue" stroke="midnightblue" points="1305.95,-362.208 1315.97,-358.779 1306,-355.209 1305.95,-362.208"/>
</g>
<!-- Node23 -->
<g id="node49" class="node"><title>Node23</title>
<a xlink:href="uifkspectrum_8h.html" target="_top" xlink:title="uifkspectrum.h">
<polygon fill="white" stroke="black" points="267.5,-116.5 267.5,-137.5 348.5,-137.5 348.5,-116.5 267.5,-116.5"/>
<text text-anchor="middle" x="308" y="-124.5" font-family="Helvetica,sans-Serif" font-size="10.00">uifkspectrum.h</text>
</a>
</g>
<!-- Node1&#45;&gt;Node23 -->
<g id="edge150" class="edge"><title>Node1&#45;&gt;Node23</title>
<path fill="none" stroke="midnightblue" d="M1305.82,-357.881C1131.11,-353.48 516.209,-336.392 432,-312 331.075,-282.766 279.025,-286.712 226,-196 210.789,-169.978 247.667,-149.259 276.799,-137.552"/>
<polygon fill="midnightblue" stroke="midnightblue" points="1305.88,-361.384 1315.97,-358.135 1306.06,-354.386 1305.88,-361.384"/>
</g>
<!-- Node29 -->
<g id="node64" class="node"><title>Node29</title>
<a xlink:href="fourierinterpol_8h.html" target="_top" xlink:title="fourierinterpol.h">
<polygon fill="white" stroke="black" points="234.5,-174.5 234.5,-195.5 317.5,-195.5 317.5,-174.5 234.5,-174.5"/>
<text text-anchor="middle" x="276" y="-182.5" font-family="Helvetica,sans-Serif" font-size="10.00">fourierinterpol.h</text>
</a>
</g>
<!-- Node1&#45;&gt;Node29 -->
<g id="edge124" class="edge"><title>Node1&#45;&gt;Node29</title>
<path fill="none" stroke="midnightblue" d="M1305.66,-357.774C1137.78,-353.157 567.202,-335.851 489,-312 405.403,-286.504 320.451,-221.585 288.859,-195.798"/>
<polygon fill="midnightblue" stroke="midnightblue" points="1305.8,-361.28 1315.89,-358.054 1305.99,-354.282 1305.8,-361.28"/>
</g>
<!-- Node39 -->
<g id="node92" class="node"><title>Node39</title>
<a xlink:href="convolve2d_8h.html" target="_top" xlink:title="convolve2d.h">
<polygon fill="white" stroke="black" points="1442,-290.5 1442,-311.5 1516,-311.5 1516,-290.5 1442,-290.5"/>
<text text-anchor="middle" x="1479" y="-298.5" font-family="Helvetica,sans-Serif" font-size="10.00">convolve2d.h</text>
</a>
</g>
<!-- Node1&#45;&gt;Node39 -->
<g id="edge106" class="edge"><title>Node1&#45;&gt;Node39</title>
<path fill="none" stroke="midnightblue" d="M1384.39,-344.206C1406.67,-334.031 1435.74,-320.757 1455.74,-311.621"/>
<polygon fill="midnightblue" stroke="midnightblue" points="1382.64,-341.159 1375,-348.497 1385.55,-347.526 1382.64,-341.159"/>
</g>
<!-- Node41 -->
<g id="node96" class="node"><title>Node41</title>
<a xlink:href="fftfilter_8h.html" target="_top" xlink:title="fftfilter.h">
<polygon fill="white" stroke="black" points="1533.5,-290.5 1533.5,-311.5 1586.5,-311.5 1586.5,-290.5 1533.5,-290.5"/>
<text text-anchor="middle" x="1560" y="-298.5" font-family="Helvetica,sans-Serif" font-size="10.00">fftfilter.h</text>
</a>
</g>
<!-- Node1&#45;&gt;Node41 -->
<g id="edge110" class="edge"><title>Node1&#45;&gt;Node41</title>
<path fill="none" stroke="midnightblue" d="M1398.14,-346.991C1433.07,-337.773 1482.18,-324.539 1525,-312 1527.69,-311.212 1530.49,-310.37 1533.28,-309.516"/>
<polygon fill="midnightblue" stroke="midnightblue" points="1397.01,-343.669 1388.23,-349.599 1398.79,-350.439 1397.01,-343.669"/>
</g>
<!-- Node43 -->
<g id="node100" class="node"><title>Node43</title>
<a xlink:href="transform_8h.html" target="_top" xlink:title="transform.h">
<polygon fill="white" stroke="black" points="1358,-290.5 1358,-311.5 1424,-311.5 1424,-290.5 1358,-290.5"/>
<text text-anchor="middle" x="1391" y="-298.5" font-family="Helvetica,sans-Serif" font-size="10.00">transform.h</text>
</a>
</g>
<!-- Node1&#45;&gt;Node43 -->
<g id="edge114" class="edge"><title>Node1&#45;&gt;Node43</title>
<path fill="none" stroke="midnightblue" d="M1364.8,-339.959C1371.15,-330.522 1378.57,-319.484 1383.89,-311.571"/>
<polygon fill="midnightblue" stroke="midnightblue" points="1361.83,-338.11 1359.15,-348.362 1367.64,-342.016 1361.83,-338.11"/>
</g>
<!-- Node46 -->
<g id="node109" class="node"><title>Node46</title>
<a xlink:href="phase_8h.html" target="_top" xlink:title="phase.h">
<polygon fill="white" stroke="black" points="1603.5,-290.5 1603.5,-311.5 1654.5,-311.5 1654.5,-290.5 1603.5,-290.5"/>
<text text-anchor="middle" x="1629" y="-298.5" font-family="Helvetica,sans-Serif" font-size="10.00">phase.h</text>
</a>
</g>
<!-- Node1&#45;&gt;Node46 -->
<g id="edge126" class="edge"><title>Node1&#45;&gt;Node46</title>
<path fill="none" stroke="midnightblue" d="M1398.13,-351.799C1447.29,-343.726 1527.21,-329.453 1595,-312 1597.76,-311.288 1600.63,-310.477 1603.48,-309.626"/>
<polygon fill="midnightblue" stroke="midnightblue" points="1397.43,-348.367 1388.13,-353.427 1398.56,-355.276 1397.43,-348.367"/>
</g>
<!-- Node47 -->
<g id="node112" class="node"><title>Node47</title>
<a xlink:href="reflectivitymodel_8h.html" target="_top" xlink:title="reflectivitymodel.h">
<polygon fill="white" stroke="black" points="544,-116.5 544,-137.5 640,-137.5 640,-116.5 544,-116.5"/>
<text text-anchor="middle" x="592" y="-124.5" font-family="Helvetica,sans-Serif" font-size="10.00">reflectivitymodel.h</text>
</a>
</g>
<!-- Node1&#45;&gt;Node47 -->
<g id="edge130" class="edge"><title>Node1&#45;&gt;Node47</title>
<path fill="none" stroke="midnightblue" d="M1305.56,-356.833C1150.56,-348.537 655.484,-313.137 560,-196 545.316,-177.986 565.948,-152.128 580.276,-137.726"/>
<polygon fill="midnightblue" stroke="midnightblue" points="1305.52,-360.335 1315.69,-357.362 1305.89,-353.345 1305.52,-360.335"/>
</g>
<!-- Node48 -->
<g id="node118" class="node"><title>Node48</title>
<a xlink:href="zoeppritzcoeff_8h.html" target="_top" xlink:title="zoeppritzcoeff.h">
<polygon fill="white" stroke="black" points="1672,-290.5 1672,-311.5 1758,-311.5 1758,-290.5 1672,-290.5"/>
<text text-anchor="middle" x="1715" y="-298.5" font-family="Helvetica,sans-Serif" font-size="10.00">zoeppritzcoeff.h</text>
</a>
</g>
<!-- Node1&#45;&gt;Node48 -->
<g id="edge140" class="edge"><title>Node1&#45;&gt;Node48</title>
<path fill="none" stroke="midnightblue" d="M1398.08,-352.895C1458.91,-344.638 1569.29,-328.978 1663,-312 1665.91,-311.474 1668.9,-310.907 1671.91,-310.318"/>
<polygon fill="midnightblue" stroke="midnightblue" points="1397.47,-349.445 1388.03,-354.252 1398.41,-356.382 1397.47,-349.445"/>
</g>
<!-- Node49 -->
<g id="node121" class="node"><title>Node49</title>
<a xlink:href="waveletattrib_8h.html" target="_top" xlink:title="waveletattrib.h">
<polygon fill="white" stroke="black" points="1776,-290.5 1776,-311.5 1856,-311.5 1856,-290.5 1776,-290.5"/>
<text text-anchor="middle" x="1816" y="-298.5" font-family="Helvetica,sans-Serif" font-size="10.00">waveletattrib.h</text>
</a>
</g>
<!-- Node1&#45;&gt;Node49 -->
<g id="edge144" class="edge"><title>Node1&#45;&gt;Node49</title>
<path fill="none" stroke="midnightblue" d="M1398.58,-355.378C1475.6,-349.019 1634.17,-334.363 1767,-312 1769.92,-311.508 1772.93,-310.952 1775.96,-310.359"/>
<polygon fill="midnightblue" stroke="midnightblue" points="1397.95,-351.918 1388.27,-356.22 1398.52,-358.894 1397.95,-351.918"/>
</g>
<!-- Node50 -->
<g id="node123" class="node"><title>Node50</title>
<a xlink:href="welltiegeocalculator_8h.html" target="_top" xlink:title="welltiegeocalculator.h">
<polygon fill="white" stroke="black" points="1874,-290.5 1874,-311.5 1984,-311.5 1984,-290.5 1874,-290.5"/>
<text text-anchor="middle" x="1929" y="-298.5" font-family="Helvetica,sans-Serif" font-size="10.00">welltiegeocalculator.h</text>
</a>
</g>
<!-- Node1&#45;&gt;Node50 -->
<g id="edge146" class="edge"><title>Node1&#45;&gt;Node50</title>
<path fill="none" stroke="midnightblue" d="M1398.34,-355.985C1488.46,-349.848 1693.56,-334.551 1865,-312 1867.91,-311.618 1870.88,-311.2 1873.88,-310.757"/>
<polygon fill="midnightblue" stroke="midnightblue" points="1397.92,-352.504 1388.18,-356.67 1398.4,-359.489 1397.92,-352.504"/>
</g>
<!-- Node3 -->
<g id="node5" class="node"><title>Node3</title>
<a xlink:href="ranges_8h.html" target="_top" xlink:title="ranges.h">
<polygon fill="white" stroke="red" points="1005,-232.5 1005,-253.5 1059,-253.5 1059,-232.5 1005,-232.5"/>
<text text-anchor="middle" x="1032" y="-240.5" font-family="Helvetica,sans-Serif" font-size="10.00">ranges.h</text>
</a>
</g>
<!-- Node2&#45;&gt;Node3 -->
<g id="edge4" class="edge"><title>Node2&#45;&gt;Node3</title>
<path fill="none" stroke="midnightblue" d="M1277.93,-293.582C1220.69,-281.809 1110.31,-259.107 1059.2,-248.594"/>
<polygon fill="midnightblue" stroke="midnightblue" points="1277.48,-297.061 1287.98,-295.647 1278.89,-290.205 1277.48,-297.061"/>
</g>
<!-- Node4 -->
<g id="node7" class="node"><title>Node4</title>
<a xlink:href="geometry_8h.html" target="_top" xlink:title="geometry.h">
<polygon fill="white" stroke="red" points="334.5,-174.5 334.5,-195.5 399.5,-195.5 399.5,-174.5 334.5,-174.5"/>
<text text-anchor="middle" x="367" y="-182.5" font-family="Helvetica,sans-Serif" font-size="10.00">geometry.h</text>
</a>
</g>
<!-- Node2&#45;&gt;Node4 -->
<g id="edge86" class="edge"><title>Node2&#45;&gt;Node4</title>
<path fill="none" stroke="midnightblue" d="M1277.85,-298.724C1155.02,-290.586 742.747,-259.945 408,-196 405.249,-195.475 402.412,-194.863 399.574,-194.202"/>
<polygon fill="midnightblue" stroke="midnightblue" points="1277.63,-302.217 1287.84,-299.379 1278.09,-295.232 1277.63,-302.217"/>
</g>
<!-- Node6 -->
<g id="node12" class="node"><title>Node6</title>
<a xlink:href="mathfunc_8h.html" target="_top" xlink:title="mathfunc.h">
<polygon fill="white" stroke="red" points="1309.5,-116.5 1309.5,-137.5 1374.5,-137.5 1374.5,-116.5 1309.5,-116.5"/>
<text text-anchor="middle" x="1342" y="-124.5" font-family="Helvetica,sans-Serif" font-size="10.00">mathfunc.h</text>
</a>
</g>
<!-- Node2&#45;&gt;Node6 -->
<g id="edge88" class="edge"><title>Node2&#45;&gt;Node6</title>
<path fill="none" stroke="midnightblue" d="M1278,-288.929C1245.69,-276.242 1206.29,-254.966 1227,-232 1278.91,-174.423 1522.09,-253.577 1574,-196 1580.55,-188.738 1580.19,-181.569 1574,-174 1549.22,-143.698 1432.85,-132.468 1374.92,-128.705"/>
<polygon fill="midnightblue" stroke="midnightblue" points="1277.14,-292.342 1287.73,-292.583 1279.6,-285.789 1277.14,-292.342"/>
</g>
<!-- Node24 -->
<g id="node52" class="node"><title>Node24</title>
<a xlink:href="simpnumer_8h.html" target="_top" xlink:title="simpnumer.h">
<polygon fill="white" stroke="red" points="1696.5,-174.5 1696.5,-195.5 1769.5,-195.5 1769.5,-174.5 1696.5,-174.5"/>
<text text-anchor="middle" x="1733" y="-182.5" font-family="Helvetica,sans-Serif" font-size="10.00">simpnumer.h</text>
</a>
</g>
<!-- Node2&#45;&gt;Node24 -->
<g id="edge90" class="edge"><title>Node2&#45;&gt;Node24</title>
<path fill="none" stroke="midnightblue" d="M1301.36,-281.777C1293.03,-266.481 1285.73,-245.476 1298,-232 1326.93,-200.237 1640.55,-202.628 1683,-196 1687.3,-195.328 1691.79,-194.51 1696.23,-193.627"/>
<polygon fill="midnightblue" stroke="midnightblue" points="1298.39,-283.635 1306.51,-290.445 1304.41,-280.06 1298.39,-283.635"/>
</g>
<!-- Node25 -->
<g id="node54" class="node"><title>Node25</title>
<a xlink:href="statruncalc_8h.html" target="_top" xlink:title="statruncalc.h">
<polygon fill="white" stroke="red" points="1696.5,-116.5 1696.5,-137.5 1769.5,-137.5 1769.5,-116.5 1696.5,-116.5"/>
<text text-anchor="middle" x="1733" y="-124.5" font-family="Helvetica,sans-Serif" font-size="10.00">statruncalc.h</text>
</a>
</g>
<!-- Node2&#45;&gt;Node25 -->
<g id="edge102" class="edge"><title>Node2&#45;&gt;Node25</title>
<path fill="none" stroke="midnightblue" d="M1350.41,-290.556C1429.33,-281.493 1747.2,-287.49 1778,-254 1802.07,-227.828 1791.25,-206.995 1778,-174 1772.02,-159.114 1758.83,-146.281 1748.27,-137.804"/>
<polygon fill="midnightblue" stroke="midnightblue" points="1349.59,-287.14 1340.21,-292.079 1350.62,-294.063 1349.59,-287.14"/>
</g>
<!-- Node26 -->
<g id="node56" class="node"><title>Node26</title>
<a xlink:href="statparallelcalc_8h.html" target="_top" xlink:title="statparallelcalc.h">
<polygon fill="white" stroke="black" points="1656,-58.5 1656,-79.5 1746,-79.5 1746,-58.5 1656,-58.5"/>
<text text-anchor="middle" x="1701" y="-66.5" font-family="Helvetica,sans-Serif" font-size="10.00">statparallelcalc.h</text>
</a>
</g>
<!-- Node2&#45;&gt;Node26 -->
<g id="edge100" class="edge"><title>Node2&#45;&gt;Node26</title>
<path fill="none" stroke="midnightblue" d="M1297.07,-282.363C1285.48,-267.296 1274.29,-246.311 1287,-232 1332.03,-181.304 1530.03,-227.636 1590,-196 1642.58,-168.266 1681.57,-104.659 1695.46,-79.5102"/>
<polygon fill="midnightblue" stroke="midnightblue" points="1294.7,-284.984 1303.77,-290.454 1300.09,-280.52 1294.7,-284.984"/>
</g>
<!-- Node34 -->
<g id="node80" class="node"><title>Node34</title>
<a xlink:href="array2dmatrix_8h.html" target="_top" xlink:title="array2dmatrix.h">
<polygon fill="white" stroke="black" points="1307,-232.5 1307,-253.5 1391,-253.5 1391,-232.5 1307,-232.5"/>
<text text-anchor="middle" x="1349" y="-240.5" font-family="Helvetica,sans-Serif" font-size="10.00">array2dmatrix.h</text>
</a>
</g>
<!-- Node2&#45;&gt;Node34 -->
<g id="edge92" class="edge"><title>Node2&#45;&gt;Node34</title>
<path fill="none" stroke="midnightblue" d="M1325.67,-281.667C1331.32,-272.295 1337.9,-261.402 1342.62,-253.571"/>
<polygon fill="midnightblue" stroke="midnightblue" points="1322.59,-279.992 1320.42,-290.362 1328.58,-283.608 1322.59,-279.992"/>
</g>
<!-- Node35 -->
<g id="node82" class="node"><title>Node35</title>
<a xlink:href="convolve3d_8h.html" target="_top" xlink:title="convolve3d.h">
<polygon fill="white" stroke="red" points="1409,-232.5 1409,-253.5 1483,-253.5 1483,-232.5 1409,-232.5"/>
<text text-anchor="middle" x="1446" y="-240.5" font-family="Helvetica,sans-Serif" font-size="10.00">convolve3d.h</text>
</a>
</g>
<!-- Node2&#45;&gt;Node35 -->
<g id="edge94" class="edge"><title>Node2&#45;&gt;Node35</title>
<path fill="none" stroke="midnightblue" d="M1347.36,-286.343C1370.55,-276.15 1400.94,-262.798 1421.83,-253.621"/>
<polygon fill="midnightblue" stroke="midnightblue" points="1345.65,-283.27 1337.9,-290.497 1348.47,-289.678 1345.65,-283.27"/>
</g>
<!-- Node36 -->
<g id="node84" class="node"><title>Node36</title>
<a xlink:href="interpolnd_8h.html" target="_top" xlink:title="interpolnd.h">
<polygon fill="white" stroke="black" points="1500.5,-232.5 1500.5,-253.5 1567.5,-253.5 1567.5,-232.5 1500.5,-232.5"/>
<text text-anchor="middle" x="1534" y="-240.5" font-family="Helvetica,sans-Serif" font-size="10.00">interpolnd.h</text>
</a>
</g>
<!-- Node2&#45;&gt;Node36 -->
<g id="edge96" class="edge"><title>Node2&#45;&gt;Node36</title>
<path fill="none" stroke="midnightblue" d="M1350.06,-289.8C1413.71,-271.961 1431.5,-269.538 1492,-254 1494.63,-253.325 1497.35,-252.622 1500.08,-251.913"/>
<polygon fill="midnightblue" stroke="midnightblue" points="1349,-286.463 1340.32,-292.547 1350.9,-293.2 1349,-286.463"/>
</g>
<!-- Node37 -->
<g id="node86" class="node"><title>Node37</title>
<a xlink:href="rcollinebuilder_8h.html" target="_top" xlink:title="rcollinebuilder.h">
<polygon fill="white" stroke="black" points="1585,-232.5 1585,-253.5 1669,-253.5 1669,-232.5 1585,-232.5"/>
<text text-anchor="middle" x="1627" y="-240.5" font-family="Helvetica,sans-Serif" font-size="10.00">rcollinebuilder.h</text>
</a>
</g>
<!-- Node2&#45;&gt;Node37 -->
<g id="edge98" class="edge"><title>Node2&#45;&gt;Node37</title>
<path fill="none" stroke="midnightblue" d="M1350.17,-289.977C1450.21,-266.983 1478.73,-272.189 1576,-254 1578.85,-253.467 1581.78,-252.896 1584.74,-252.304"/>
<polygon fill="midnightblue" stroke="midnightblue" points="1349.2,-286.608 1340.26,-292.291 1350.79,-293.425 1349.2,-286.608"/>
</g>
<!-- Node38 -->
<g id="node90" class="node"><title>Node38</title>
<a xlink:href="coltabmapper_8h.html" target="_top" xlink:title="coltabmapper.h">
<polygon fill="white" stroke="red" points="1686.5,-232.5 1686.5,-253.5 1769.5,-253.5 1769.5,-232.5 1686.5,-232.5"/>
<text text-anchor="middle" x="1728" y="-240.5" font-family="Helvetica,sans-Serif" font-size="10.00">coltabmapper.h</text>
</a>
</g>
<!-- Node2&#45;&gt;Node38 -->
<g id="edge104" class="edge"><title>Node2&#45;&gt;Node38</title>
<path fill="none" stroke="midnightblue" d="M1350.35,-290.048C1494.81,-260.593 1536.11,-277.302 1678,-254 1680.72,-253.553 1683.51,-253.054 1686.32,-252.52"/>
<polygon fill="midnightblue" stroke="midnightblue" points="1349.31,-286.69 1340.23,-292.152 1350.73,-293.543 1349.31,-286.69"/>
</g>
<!-- Node3&#45;&gt;Node4 -->
<g id="edge6" class="edge"><title>Node3&#45;&gt;Node4</title>
<path fill="none" stroke="midnightblue" d="M994.515,-241.099C877.812,-235.034 521.983,-215.407 408,-196 405.239,-195.53 402.395,-194.957 399.552,-194.322"/>
<polygon fill="midnightblue" stroke="midnightblue" points="994.563,-244.606 1004.73,-241.627 994.924,-237.615 994.563,-244.606"/>
</g>
<!-- Node5 -->
<g id="node9" class="node"><title>Node5</title>
<a xlink:href="samplingdata_8h.html" target="_top" xlink:title="samplingdata.h">
<polygon fill="white" stroke="red" points="1024.5,-174.5 1024.5,-195.5 1107.5,-195.5 1107.5,-174.5 1024.5,-174.5"/>
<text text-anchor="middle" x="1066" y="-182.5" font-family="Helvetica,sans-Serif" font-size="10.00">samplingdata.h</text>
</a>
</g>
<!-- Node3&#45;&gt;Node5 -->
<g id="edge8" class="edge"><title>Node3&#45;&gt;Node5</title>
<path fill="none" stroke="midnightblue" d="M1037.23,-223.079C1042.01,-213.842 1048.59,-203.239 1054.45,-195.571"/>
<polygon fill="midnightblue" stroke="midnightblue" points="1033.95,-221.822 1032.87,-232.362 1040.29,-224.798 1033.95,-221.822"/>
</g>
<!-- Node7 -->
<g id="node14" class="node"><title>Node7</title>
<a xlink:href="extremefinder_8h.html" target="_top" xlink:title="extremefinder.h">
<polygon fill="white" stroke="black" points="1425,-58.5 1425,-79.5 1509,-79.5 1509,-58.5 1425,-58.5"/>
<text text-anchor="middle" x="1467" y="-66.5" font-family="Helvetica,sans-Serif" font-size="10.00">extremefinder.h</text>
</a>
</g>
<!-- Node3&#45;&gt;Node7 -->
<g id="edge68" class="edge"><title>Node3&#45;&gt;Node7</title>
<path fill="none" stroke="midnightblue" d="M1069.39,-240.434C1190.62,-232.029 1565.44,-205.333 1574,-196 1612.29,-154.246 1528.76,-101.765 1487.86,-79.6258"/>
<polygon fill="midnightblue" stroke="midnightblue" points="1068.86,-236.962 1059.13,-241.144 1069.35,-243.945 1068.86,-236.962"/>
</g>
<!-- Node8 -->
<g id="node16" class="node"><title>Node8</title>
<a xlink:href="reflectivitysampler_8h.html" target="_top" xlink:title="reflectivitysampler.h">
<polygon fill="white" stroke="black" points="949,-58.5 949,-79.5 1053,-79.5 1053,-58.5 949,-58.5"/>
<text text-anchor="middle" x="1001" y="-66.5" font-family="Helvetica,sans-Serif" font-size="10.00">reflectivitysampler.h</text>
</a>
</g>
<!-- Node3&#45;&gt;Node8 -->
<g id="edge78" class="edge"><title>Node3&#45;&gt;Node8</title>
<path fill="none" stroke="midnightblue" d="M1021.88,-223.31C1017.99,-215.053 1013.81,-205.239 1011,-196 1003.38,-170.975 1003.23,-164.063 1001,-138 999.243,-117.471 999.847,-93.3801 1000.43,-79.7807"/>
<polygon fill="midnightblue" stroke="midnightblue" points="1018.83,-225.031 1026.38,-232.466 1025.11,-221.947 1018.83,-225.031"/>
</g>
<!-- Node9 -->
<g id="node18" class="node"><title>Node9</title>
<a xlink:href="axislayout_8h.html" target="_top" xlink:title="axislayout.h">
<polygon fill="white" stroke="black" points="1009.5,-116.5 1009.5,-137.5 1078.5,-137.5 1078.5,-116.5 1009.5,-116.5"/>
<text text-anchor="middle" x="1044" y="-124.5" font-family="Helvetica,sans-Serif" font-size="10.00">axislayout.h</text>
</a>
</g>
<!-- Node3&#45;&gt;Node9 -->
<g id="edge64" class="edge"><title>Node3&#45;&gt;Node9</title>
<path fill="none" stroke="midnightblue" d="M1021.95,-222.681C1016.43,-208.879 1011.53,-190.25 1016,-174 1019.73,-160.447 1028.51,-146.856 1035.25,-137.801"/>
<polygon fill="midnightblue" stroke="midnightblue" points="1018.9,-224.445 1026.15,-232.175 1025.31,-221.614 1018.9,-224.445"/>
</g>
<!-- Node10 -->
<g id="node20" class="node"><title>Node10</title>
<a xlink:href="trckeysampling_8h.html" target="_top" xlink:title="trckeysampling.h">
<polygon fill="white" stroke="red" points="1124.5,-174.5 1124.5,-195.5 1215.5,-195.5 1215.5,-174.5 1124.5,-174.5"/>
<text text-anchor="middle" x="1170" y="-182.5" font-family="Helvetica,sans-Serif" font-size="10.00">trckeysampling.h</text>
</a>
</g>
<!-- Node3&#45;&gt;Node10 -->
<g id="edge20" class="edge"><title>Node3&#45;&gt;Node10</title>
<path fill="none" stroke="midnightblue" d="M1066.23,-228.615C1090.56,-218.389 1122.7,-204.88 1144.73,-195.621"/>
<polygon fill="midnightblue" stroke="midnightblue" points="1064.85,-225.395 1056.99,-232.497 1067.57,-231.849 1064.85,-225.395"/>
</g>
<!-- Node11 -->
<g id="node22" class="node"><title>Node11</title>
<a xlink:href="filespec_8h.html" target="_top" xlink:title="filespec.h">
<polygon fill="white" stroke="red" points="1232.5,-174.5 1232.5,-195.5 1291.5,-195.5 1291.5,-174.5 1232.5,-174.5"/>
<text text-anchor="middle" x="1262" y="-182.5" font-family="Helvetica,sans-Serif" font-size="10.00">filespec.h</text>
</a>
</g>
<!-- Node3&#45;&gt;Node11 -->
<g id="edge22" class="edge"><title>Node3&#45;&gt;Node11</title>
<path fill="none" stroke="midnightblue" d="M1068.91,-234.448C1107.65,-225.357 1170.28,-210.344 1224,-196 1226.65,-195.291 1229.41,-194.536 1232.16,-193.765"/>
<polygon fill="midnightblue" stroke="midnightblue" points="1068.06,-231.052 1059.12,-236.738 1069.65,-237.868 1068.06,-231.052"/>
</g>
<!-- Node12 -->
<g id="node24" class="node"><title>Node12</title>
<a xlink:href="selector_8h.html" target="_top" xlink:title="selector.h">
<polygon fill="white" stroke="red" points="1308.5,-174.5 1308.5,-195.5 1367.5,-195.5 1367.5,-174.5 1308.5,-174.5"/>
<text text-anchor="middle" x="1338" y="-182.5" font-family="Helvetica,sans-Serif" font-size="10.00">selector.h</text>
</a>
</g>
<!-- Node3&#45;&gt;Node12 -->
<g id="edge24" class="edge"><title>Node3&#45;&gt;Node12</title>
<path fill="none" stroke="midnightblue" d="M1069.29,-237.764C1121.3,-230.166 1218.42,-214.904 1300,-196 1302.68,-195.38 1305.44,-194.685 1308.21,-193.954"/>
<polygon fill="midnightblue" stroke="midnightblue" points="1068.6,-234.327 1059.2,-239.224 1069.6,-241.255 1068.6,-234.327"/>
</g>
<!-- Node13 -->
<g id="node26" class="node"><title>Node13</title>
<a xlink:href="survinfo_8h.html" target="_top" xlink:title="survinfo.h">
<polygon fill="white" stroke="red" points="416.5,-174.5 416.5,-195.5 475.5,-195.5 475.5,-174.5 416.5,-174.5"/>
<text text-anchor="middle" x="446" y="-182.5" font-family="Helvetica,sans-Serif" font-size="10.00">survinfo.h</text>
</a>
</g>
<!-- Node3&#45;&gt;Node13 -->
<g id="edge26" class="edge"><title>Node3&#45;&gt;Node13</title>
<path fill="none" stroke="midnightblue" d="M994.828,-240.081C911.163,-233.391 701.709,-215.984 527,-196 509.939,-194.049 490.911,-191.484 475.586,-189.323"/>
<polygon fill="midnightblue" stroke="midnightblue" points="994.614,-243.575 1004.86,-240.879 995.17,-236.597 994.614,-243.575"/>
</g>
<!-- Node14 -->
<g id="node28" class="node"><title>Node14</title>
<a xlink:href="ailayer_8h.html" target="_top" xlink:title="ailayer.h">
<polygon fill="white" stroke="red" points="473.5,-116.5 473.5,-137.5 526.5,-137.5 526.5,-116.5 473.5,-116.5"/>
<text text-anchor="middle" x="500" y="-124.5" font-family="Helvetica,sans-Serif" font-size="10.00">ailayer.h</text>
</a>
</g>
<!-- Node3&#45;&gt;Node14 -->
<g id="edge54" class="edge"><title>Node3&#45;&gt;Node14</title>
<path fill="none" stroke="midnightblue" d="M994.811,-240.877C890.171,-234.682 598.323,-215.813 560,-196 534.335,-182.731 514.837,-153.454 505.708,-137.637"/>
<polygon fill="midnightblue" stroke="midnightblue" points="994.724,-244.377 1004.91,-241.469 995.134,-237.389 994.724,-244.377"/>
</g>
<!-- Node16 -->
<g id="node32" class="node"><title>Node16</title>
<a xlink:href="raytracerrunner_8h.html" target="_top" xlink:title="raytracerrunner.h">
<polygon fill="white" stroke="black" points="537,-0.5 537,-21.5 627,-21.5 627,-0.5 537,-0.5"/>
<text text-anchor="middle" x="582" y="-8.5" font-family="Helvetica,sans-Serif" font-size="10.00">raytracerrunner.h</text>
</a>
</g>
<!-- Node3&#45;&gt;Node16 -->
<g id="edge82" class="edge"><title>Node3&#45;&gt;Node16</title>
<path fill="none" stroke="midnightblue" d="M1005.36,-227.182C948.921,-193.948 812.737,-115.219 694,-58 665.695,-44.36 632.398,-30.6761 609.508,-21.6201"/>
<polygon fill="midnightblue" stroke="midnightblue" points="1003.64,-230.229 1014.03,-232.298 1007.19,-224.201 1003.64,-230.229"/>
</g>
<!-- Node20 -->
<g id="node42" class="node"><title>Node20</title>
<a xlink:href="welltietoseismic_8h.html" target="_top" xlink:title="welltietoseismic.h">
<polygon fill="white" stroke="black" points="590.5,-58.5 590.5,-79.5 685.5,-79.5 685.5,-58.5 590.5,-58.5"/>
<text text-anchor="middle" x="638" y="-66.5" font-family="Helvetica,sans-Serif" font-size="10.00">welltietoseismic.h</text>
</a>
</g>
<!-- Node3&#45;&gt;Node20 -->
<g id="edge84" class="edge"><title>Node3&#45;&gt;Node20</title>
<path fill="none" stroke="midnightblue" d="M995.307,-230.44C970.161,-221.533 936.203,-208.911 907,-196 887.366,-187.32 883.293,-183.413 864,-174 790.706,-138.24 702.816,-98.2133 661.564,-79.5917"/>
<polygon fill="midnightblue" stroke="midnightblue" points="994.228,-233.771 1004.82,-233.783 996.548,-227.166 994.228,-233.771"/>
</g>
<!-- Node3&#45;&gt;Node24 -->
<g id="edge56" class="edge"><title>Node3&#45;&gt;Node24</title>
<path fill="none" stroke="midnightblue" d="M1069.4,-240.015C1161.06,-232.683 1404.2,-213.141 1607,-196 1637.09,-193.457 1671.2,-190.473 1696.34,-188.254"/>
<polygon fill="midnightblue" stroke="midnightblue" points="1068.93,-236.541 1059.24,-240.827 1069.49,-243.519 1068.93,-236.541"/>
</g>
<!-- Node27 -->
<g id="node58" class="node"><title>Node27</title>
<a xlink:href="bendpointfinder_8h.html" target="_top" xlink:title="bendpointfinder.h">
<polygon fill="white" stroke="red" points="1384.5,-174.5 1384.5,-195.5 1475.5,-195.5 1475.5,-174.5 1384.5,-174.5"/>
<text text-anchor="middle" x="1430" y="-182.5" font-family="Helvetica,sans-Serif" font-size="10.00">bendpointfinder.h</text>
</a>
</g>
<!-- Node3&#45;&gt;Node27 -->
<g id="edge62" class="edge"><title>Node3&#45;&gt;Node27</title>
<path fill="none" stroke="midnightblue" d="M1069.59,-238.678C1132.97,-231.208 1265.05,-214.859 1376,-196 1378.74,-195.535 1381.54,-195.034 1384.37,-194.512"/>
<polygon fill="midnightblue" stroke="midnightblue" points="1068.82,-235.244 1059.29,-239.884 1069.63,-242.196 1068.82,-235.244"/>
</g>
<!-- Node28 -->
<g id="node61" class="node"><title>Node28</title>
<a xlink:href="dataclipper_8h.html" target="_top" xlink:title="dataclipper.h">
<polygon fill="white" stroke="red" points="1493,-174.5 1493,-195.5 1565,-195.5 1565,-174.5 1493,-174.5"/>
<text text-anchor="middle" x="1529" y="-182.5" font-family="Helvetica,sans-Serif" font-size="10.00">dataclipper.h</text>
</a>
</g>
<!-- Node3&#45;&gt;Node28 -->
<g id="edge66" class="edge"><title>Node3&#45;&gt;Node28</title>
<path fill="none" stroke="midnightblue" d="M1069.42,-240.838C1147.12,-235.971 1331.43,-222.453 1484,-196 1486.85,-195.505 1489.79,-194.932 1492.74,-194.313"/>
<polygon fill="midnightblue" stroke="midnightblue" points="1068.94,-237.361 1059.18,-241.468 1069.37,-244.348 1068.94,-237.361"/>
</g>
<!-- Node3&#45;&gt;Node29 -->
<g id="edge70" class="edge"><title>Node3&#45;&gt;Node29</title>
<path fill="none" stroke="midnightblue" d="M994.789,-242.486C889.381,-240.609 579.962,-232.181 326,-196 323.272,-195.611 320.472,-195.156 317.657,-194.655"/>
<polygon fill="midnightblue" stroke="midnightblue" points="994.859,-245.988 1004.92,-242.657 994.977,-238.989 994.859,-245.988"/>
</g>
<!-- Node30 -->
<g id="node66" class="node"><title>Node30</title>
<a xlink:href="probdenfunc_8h.html" target="_top" xlink:title="probdenfunc.h">
<polygon fill="white" stroke="red" points="569,-174.5 569,-195.5 647,-195.5 647,-174.5 569,-174.5"/>
<text text-anchor="middle" x="608" y="-182.5" font-family="Helvetica,sans-Serif" font-size="10.00">probdenfunc.h</text>
</a>
</g>
<!-- Node3&#45;&gt;Node30 -->
<g id="edge72" class="edge"><title>Node3&#45;&gt;Node30</title>
<path fill="none" stroke="midnightblue" d="M994.796,-239.606C927.078,-233.151 779.294,-217.776 656,-196 653.138,-195.494 650.189,-194.929 647.227,-194.329"/>
<polygon fill="midnightblue" stroke="midnightblue" points="994.676,-243.11 1004.96,-240.565 995.334,-236.141 994.676,-243.11"/>
</g>
<!-- Node31 -->
<g id="node68" class="node"><title>Node31</title>
<a xlink:href="histequalizer_8h.html" target="_top" xlink:title="histequalizer.h">
<polygon fill="white" stroke="black" points="665,-174.5 665,-195.5 745,-195.5 745,-174.5 665,-174.5"/>
<text text-anchor="middle" x="705" y="-182.5" font-family="Helvetica,sans-Serif" font-size="10.00">histequalizer.h</text>
</a>
</g>
<!-- Node3&#45;&gt;Node31 -->
<g id="edge74" class="edge"><title>Node3&#45;&gt;Node31</title>
<path fill="none" stroke="midnightblue" d="M994.647,-237.334C941.172,-229.074 839.777,-212.866 754,-196 751.091,-195.428 748.091,-194.814 745.075,-194.179"/>
<polygon fill="midnightblue" stroke="midnightblue" points="994.269,-240.816 1004.68,-238.877 995.333,-233.898 994.269,-240.816"/>
</g>
<!-- Node32 -->
<g id="node70" class="node"><title>Node32</title>
<a xlink:href="houghtransform_8h.html" target="_top" xlink:title="houghtransform.h">
<polygon fill="white" stroke="black" points="763,-174.5 763,-195.5 855,-195.5 855,-174.5 763,-174.5"/>
<text text-anchor="middle" x="809" y="-182.5" font-family="Helvetica,sans-Serif" font-size="10.00">houghtransform.h</text>
</a>
</g>
<!-- Node3&#45;&gt;Node32 -->
<g id="edge76" class="edge"><title>Node3&#45;&gt;Node32</title>
<path fill="none" stroke="midnightblue" d="M994.727,-233.306C954.541,-222.854 890.783,-206.271 849.416,-195.512"/>
<polygon fill="midnightblue" stroke="midnightblue" points="994.097,-236.758 1004.66,-235.888 995.859,-229.984 994.097,-236.758"/>
</g>
<!-- Node33 -->
<g id="node73" class="node"><title>Node33</title>
<a xlink:href="wavelettrans_8h.html" target="_top" xlink:title="wavelettrans.h">
<polygon fill="white" stroke="red" points="1825,-174.5 1825,-195.5 1905,-195.5 1905,-174.5 1825,-174.5"/>
<text text-anchor="middle" x="1865" y="-182.5" font-family="Helvetica,sans-Serif" font-size="10.00">wavelettrans.h</text>
</a>
</g>
<!-- Node3&#45;&gt;Node33 -->
<g id="edge80" class="edge"><title>Node3&#45;&gt;Node33</title>
<path fill="none" stroke="midnightblue" d="M1069.31,-241.48C1178.49,-236.854 1506.68,-221.673 1778,-196 1793.31,-194.551 1810.08,-192.534 1824.78,-190.621"/>
<polygon fill="midnightblue" stroke="midnightblue" points="1068.99,-237.99 1059.15,-241.907 1069.28,-244.984 1068.99,-237.99"/>
</g>
<!-- Node5&#45;&gt;Node3 -->
<g id="edge10" class="edge"><title>Node5&#45;&gt;Node3</title>
<path fill="none" stroke="midnightblue" d="M1060.81,-204.84C1056.04,-214.069 1049.47,-224.677 1043.6,-232.362"/>
<polygon fill="midnightblue" stroke="midnightblue" points="1064.08,-206.111 1065.16,-195.571 1057.74,-203.14 1064.08,-206.111"/>
</g>
<!-- Node5&#45;&gt;Node6 -->
<g id="edge12" class="edge"><title>Node5&#45;&gt;Node6</title>
<path fill="none" stroke="midnightblue" d="M1117.68,-173.654C1191.64,-157.869 1267.36,-142.269 1309.41,-133.654"/>
<polygon fill="midnightblue" stroke="midnightblue" points="1116.78,-170.268 1107.73,-175.781 1118.24,-177.113 1116.78,-170.268"/>
</g>
<!-- Node5&#45;&gt;Node9 -->
<g id="edge18" class="edge"><title>Node5&#45;&gt;Node9</title>
<path fill="none" stroke="midnightblue" d="M1058.33,-164.784C1054.85,-155.617 1050.89,-145.157 1048.01,-137.571"/>
<polygon fill="midnightblue" stroke="midnightblue" points="1055.15,-166.253 1061.96,-174.362 1061.69,-163.771 1055.15,-166.253"/>
</g>
<!-- Node6&#45;&gt;Node7 -->
<g id="edge14" class="edge"><title>Node6&#45;&gt;Node7</title>
<path fill="none" stroke="midnightblue" d="M1373.88,-112.206C1395.81,-102.031 1424.42,-88.7567 1444.11,-79.6212"/>
<polygon fill="midnightblue" stroke="midnightblue" points="1372.23,-109.113 1364.64,-116.497 1375.18,-115.462 1372.23,-109.113"/>
</g>
<!-- Node6&#45;&gt;Node8 -->
<g id="edge16" class="edge"><title>Node6&#45;&gt;Node8</title>
<path fill="none" stroke="midnightblue" d="M1299.39,-119.753C1236.95,-109.132 1120.68,-89.3569 1053.2,-77.8778"/>
<polygon fill="midnightblue" stroke="midnightblue" points="1298.86,-123.212 1309.3,-121.439 1300.03,-116.311 1298.86,-123.212"/>
</g>
<!-- Node13&#45;&gt;Node14 -->
<g id="edge28" class="edge"><title>Node13&#45;&gt;Node14</title>
<path fill="none" stroke="midnightblue" d="M462.917,-166.83C471.875,-157.208 482.563,-145.728 490.158,-137.571"/>
<polygon fill="midnightblue" stroke="midnightblue" points="460.157,-164.658 455.904,-174.362 465.28,-169.428 460.157,-164.658"/>
</g>
<!-- Node13&#45;&gt;Node15 -->
<g id="edge46" class="edge"><title>Node13&#45;&gt;Node15</title>
<path fill="none" stroke="midnightblue" d="M449.637,-164.139C452.591,-150.062 457.512,-131.328 465,-116 471.609,-102.471 482.274,-88.876 490.097,-79.8133"/>
<polygon fill="midnightblue" stroke="midnightblue" points="446.139,-163.794 447.679,-174.276 453.012,-165.122 446.139,-163.794"/>
</g>
<!-- Node13&#45;&gt;Node21 -->
<g id="edge48" class="edge"><title>Node13&#45;&gt;Node21</title>
<path fill="none" stroke="midnightblue" d="M406.331,-173.861C292.741,-150.508 169.015,-137.181 103.067,-131.035"/>
<polygon fill="midnightblue" stroke="midnightblue" points="405.731,-177.312 416.235,-175.929 407.161,-170.459 405.731,-177.312"/>
</g>
<!-- Node13&#45;&gt;Node23 -->
<g id="edge52" class="edge"><title>Node13&#45;&gt;Node23</title>
<path fill="none" stroke="midnightblue" d="M411.774,-170.615C387.443,-160.389 355.3,-146.88 333.271,-137.621"/>
<polygon fill="midnightblue" stroke="midnightblue" points="410.434,-173.849 421.009,-174.497 413.146,-167.395 410.434,-173.849"/>
</g>
<!-- Node14&#45;&gt;Node15 -->
<g id="edge30" class="edge"><title>Node14&#45;&gt;Node15</title>
<path fill="none" stroke="midnightblue" d="M500,-106.191C500,-97.1684 500,-86.9941 500,-79.5707"/>
<polygon fill="midnightblue" stroke="midnightblue" points="496.5,-106.362 500,-116.362 503.5,-106.362 496.5,-106.362"/>
</g>
<!-- Node14&#45;&gt;Node16 -->
<g id="edge36" class="edge"><title>Node14&#45;&gt;Node16</title>
<path fill="none" stroke="midnightblue" d="M518.502,-109.364C526.829,-100.914 536.459,-90.388 544,-80 557.979,-60.7434 570.51,-35.7874 577.104,-21.7758"/>
<polygon fill="midnightblue" stroke="midnightblue" points="515.961,-106.954 511.318,-116.478 520.887,-111.929 515.961,-106.954"/>
</g>
<!-- Node14&#45;&gt;Node18 -->
<g id="edge38" class="edge"><title>Node14&#45;&gt;Node18</title>
<path fill="none" stroke="midnightblue" d="M475.595,-110.541C460.851,-100.597 442.495,-88.2177 429.674,-79.5707"/>
<polygon fill="midnightblue" stroke="midnightblue" points="473.979,-113.672 484.226,-116.362 477.893,-107.869 473.979,-113.672"/>
</g>
<!-- Node19 -->
<g id="node39" class="node"><title>Node19</title>
<a xlink:href="stratsynth_8h.html" target="_top" xlink:title="stratsynth.h">
<polygon fill="white" stroke="black" points="327,-0.5 327,-21.5 395,-21.5 395,-0.5 327,-0.5"/>
<text text-anchor="middle" x="361" y="-8.5" font-family="Helvetica,sans-Serif" font-size="10.00">stratsynth.h</text>
</a>
</g>
<!-- Node14&#45;&gt;Node19 -->
<g id="edge42" class="edge"><title>Node14&#45;&gt;Node19</title>
<path fill="none" stroke="midnightblue" d="M463.198,-123.481C433.954,-118.65 394.371,-107.189 372,-80 358.281,-63.3264 358.322,-36.4808 359.62,-21.6697"/>
<polygon fill="midnightblue" stroke="midnightblue" points="463.052,-126.996 473.453,-124.977 464.063,-120.07 463.052,-126.996"/>
</g>
<!-- Node14&#45;&gt;Node20 -->
<g id="edge44" class="edge"><title>Node14&#45;&gt;Node20</title>
<path fill="none" stroke="midnightblue" d="M534.226,-112.615C558.557,-102.389 590.7,-88.8796 612.729,-79.6212"/>
<polygon fill="midnightblue" stroke="midnightblue" points="532.854,-109.395 524.991,-116.497 535.566,-115.849 532.854,-109.395"/>
</g>
<!-- Node15&#45;&gt;Node16 -->
<g id="edge32" class="edge"><title>Node15&#45;&gt;Node16</title>
<path fill="none" stroke="midnightblue" d="M523.27,-52.5407C537.328,-42.5973 554.83,-30.2177 567.055,-21.5707"/>
<polygon fill="midnightblue" stroke="midnightblue" points="521.183,-49.7298 515.04,-58.3619 525.225,-55.4447 521.183,-49.7298"/>
</g>
<!-- Node17 -->
<g id="node34" class="node"><title>Node17</title>
<a xlink:href="uiraytrace1d_8h.html" target="_top" xlink:title="uiraytrace1d.h">
<polygon fill="white" stroke="red" points="441,-0.5 441,-21.5 519,-21.5 519,-0.5 441,-0.5"/>
<text text-anchor="middle" x="480" y="-8.5" font-family="Helvetica,sans-Serif" font-size="10.00">uiraytrace1d.h</text>
</a>
</g>
<!-- Node15&#45;&gt;Node17 -->
<g id="edge34" class="edge"><title>Node15&#45;&gt;Node17</title>
<path fill="none" stroke="midnightblue" d="M493.029,-48.7838C489.868,-39.617 486.261,-29.1572 483.645,-21.5707"/>
<polygon fill="midnightblue" stroke="midnightblue" points="489.763,-50.0492 496.332,-58.3619 496.381,-47.7672 489.763,-50.0492"/>
</g>
<!-- Node18&#45;&gt;Node19 -->
<g id="edge40" class="edge"><title>Node18&#45;&gt;Node19</title>
<path fill="none" stroke="midnightblue" d="M397.396,-50.8299C388.604,-41.2078 378.114,-29.7282 370.659,-21.5707"/>
<polygon fill="midnightblue" stroke="midnightblue" points="394.949,-53.3408 404.279,-58.3619 400.117,-48.6188 394.949,-53.3408"/>
</g>
<!-- Node22 -->
<g id="node47" class="node"><title>Node22</title>
<a xlink:href="uiseisamplspectrum_8h.html" target="_top" xlink:title="uiseisamplspectrum.h">
<polygon fill="white" stroke="black" points="0,-58.5 0,-79.5 112,-79.5 112,-58.5 0,-58.5"/>
<text text-anchor="middle" x="56" y="-66.5" font-family="Helvetica,sans-Serif" font-size="10.00">uiseisamplspectrum.h</text>
</a>
</g>
<!-- Node21&#45;&gt;Node22 -->
<g id="edge50" class="edge"><title>Node21&#45;&gt;Node22</title>
<path fill="none" stroke="midnightblue" d="M56,-106.191C56,-97.1684 56,-86.9941 56,-79.5707"/>
<polygon fill="midnightblue" stroke="midnightblue" points="52.5001,-106.362 56,-116.362 59.5001,-106.362 52.5001,-106.362"/>
</g>
<!-- Node24&#45;&gt;Node25 -->
<g id="edge58" class="edge"><title>Node24&#45;&gt;Node25</title>
<path fill="none" stroke="midnightblue" d="M1733,-164.191C1733,-155.168 1733,-144.994 1733,-137.571"/>
<polygon fill="midnightblue" stroke="midnightblue" points="1729.5,-164.362 1733,-174.362 1736.5,-164.362 1729.5,-164.362"/>
</g>
<!-- Node25&#45;&gt;Node26 -->
<g id="edge60" class="edge"><title>Node25&#45;&gt;Node26</title>
<path fill="none" stroke="midnightblue" d="M1722.17,-107.373C1717.04,-98.0682 1711.11,-87.3204 1706.83,-79.5707"/>
<polygon fill="midnightblue" stroke="midnightblue" points="1719.24,-109.297 1727.13,-116.362 1725.36,-105.915 1719.24,-109.297"/>
</g>
<!-- Node40 -->
<g id="node94" class="node"><title>Node40</title>
<a xlink:href="smoother2d_8h.html" target="_top" xlink:title="smoother2d.h">
<polygon fill="white" stroke="black" points="2043,-232.5 2043,-253.5 2119,-253.5 2119,-232.5 2043,-232.5"/>
<text text-anchor="middle" x="2081" y="-240.5" font-family="Helvetica,sans-Serif" font-size="10.00">smoother2d.h</text>
</a>
</g>
<!-- Node39&#45;&gt;Node40 -->
<g id="edge108" class="edge"><title>Node39&#45;&gt;Node40</title>
<path fill="none" stroke="midnightblue" d="M1526.09,-290.057C1748.73,-256.624 1809.88,-284.853 2029,-254 2033.48,-253.37 2038.15,-252.577 2042.77,-251.709"/>
<polygon fill="midnightblue" stroke="midnightblue" points="1525.41,-286.62 1516.05,-291.59 1526.47,-293.54 1525.41,-286.62"/>
</g>
<!-- Node42 -->
<g id="node98" class="node"><title>Node42</title>
<a xlink:href="uifreqfilter_8h.html" target="_top" xlink:title="uifreqfilter.h">
<polygon fill="white" stroke="black" points="2137,-232.5 2137,-253.5 2205,-253.5 2205,-232.5 2137,-232.5"/>
<text text-anchor="middle" x="2171" y="-240.5" font-family="Helvetica,sans-Serif" font-size="10.00">uifreqfilter.h</text>
</a>
</g>
<!-- Node41&#45;&gt;Node42 -->
<g id="edge112" class="edge"><title>Node41&#45;&gt;Node42</title>
<path fill="none" stroke="midnightblue" d="M1596.75,-290.037C1830.22,-247.37 1896.88,-291.046 2128,-254 2130.89,-253.537 2133.87,-252.968 2136.85,-252.337"/>
<polygon fill="midnightblue" stroke="midnightblue" points="1595.78,-286.658 1586.59,-291.929 1597.06,-293.54 1595.78,-286.658"/>
</g>
<!-- Node43&#45;&gt;Node33 -->
<g id="edge122" class="edge"><title>Node43&#45;&gt;Node33</title>
<path fill="none" stroke="midnightblue" d="M1434.34,-290.422C1530.05,-281.453 1954.79,-297.93 1996,-254 2026.78,-221.192 1954.26,-200.995 1905.29,-191.499"/>
<polygon fill="midnightblue" stroke="midnightblue" points="1433.85,-286.956 1424.35,-291.648 1434.7,-293.904 1433.85,-286.956"/>
</g>
<!-- Node44 -->
<g id="node102" class="node"><title>Node44</title>
<a xlink:href="fourier_8h.html" target="_top" xlink:title="fourier.h">
<polygon fill="white" stroke="red" points="1825,-232.5 1825,-253.5 1877,-253.5 1877,-232.5 1825,-232.5"/>
<text text-anchor="middle" x="1851" y="-240.5" font-family="Helvetica,sans-Serif" font-size="10.00">fourier.h</text>
</a>
</g>
<!-- Node43&#45;&gt;Node44 -->
<g id="edge116" class="edge"><title>Node43&#45;&gt;Node44</title>
<path fill="none" stroke="midnightblue" d="M1434.46,-289.977C1601,-261.441 1648.26,-283.893 1811,-254 1815.53,-253.167 1820.3,-252.063 1824.9,-250.876"/>
<polygon fill="midnightblue" stroke="midnightblue" points="1433.61,-286.572 1424.36,-291.743 1434.82,-293.467 1433.61,-286.572"/>
</g>
<!-- Node45 -->
<g id="node105" class="node"><title>Node45</title>
<a xlink:href="hilberttransform_8h.html" target="_top" xlink:title="hilberttransform.h">
<polygon fill="white" stroke="black" points="1895,-232.5 1895,-253.5 1987,-253.5 1987,-232.5 1895,-232.5"/>
<text text-anchor="middle" x="1941" y="-240.5" font-family="Helvetica,sans-Serif" font-size="10.00">hilberttransform.h</text>
</a>
</g>
<!-- Node43&#45;&gt;Node45 -->
<g id="edge120" class="edge"><title>Node43&#45;&gt;Node45</title>
<path fill="none" stroke="midnightblue" d="M1434.28,-290.031C1633.91,-257.093 1689.18,-281.404 1886,-254 1888.89,-253.597 1891.86,-253.138 1894.85,-252.64"/>
<polygon fill="midnightblue" stroke="midnightblue" points="1433.64,-286.589 1424.35,-291.695 1434.8,-293.493 1433.64,-286.589"/>
</g>
<!-- Node44&#45;&gt;Node33 -->
<g id="edge118" class="edge"><title>Node44&#45;&gt;Node33</title>
<path fill="none" stroke="midnightblue" d="M1855.95,-222.488C1858.15,-213.392 1860.64,-203.076 1862.45,-195.571"/>
<polygon fill="midnightblue" stroke="midnightblue" points="1852.51,-221.82 1853.57,-232.362 1859.32,-223.462 1852.51,-221.82"/>
</g>
<!-- Node47&#45;&gt;Node8 -->
<g id="edge134" class="edge"><title>Node47&#45;&gt;Node8</title>
<path fill="none" stroke="midnightblue" d="M650.495,-118.705C730.4,-107.374 872.452,-87.2293 948.882,-76.3908"/>
<polygon fill="midnightblue" stroke="midnightblue" points="649.53,-115.307 640.12,-120.176 650.513,-122.237 649.53,-115.307"/>
</g>
<!-- Node47&#45;&gt;Node15 -->
<g id="edge132" class="edge"><title>Node47&#45;&gt;Node15</title>
<path fill="none" stroke="midnightblue" d="M566.338,-110.821C550.491,-100.831 530.613,-88.2993 516.767,-79.5707"/>
<polygon fill="midnightblue" stroke="midnightblue" points="564.8,-113.99 575.126,-116.362 568.533,-108.068 564.8,-113.99"/>
</g>
<!-- Node47&#45;&gt;Node18 -->
<g id="edge136" class="edge"><title>Node47&#45;&gt;Node18</title>
<path fill="none" stroke="midnightblue" d="M549.89,-113.279C518.172,-102.944 475.333,-88.9849 446.295,-79.5231"/>
<polygon fill="midnightblue" stroke="midnightblue" points="549.173,-116.726 559.766,-116.497 551.342,-110.071 549.173,-116.726"/>
</g>
<!-- Node47&#45;&gt;Node20 -->
<g id="edge138" class="edge"><title>Node47&#45;&gt;Node20</title>
<path fill="none" stroke="midnightblue" d="M606.87,-108.25C614.405,-98.75 623.276,-87.5651 629.616,-79.5707"/>
<polygon fill="midnightblue" stroke="midnightblue" points="603.909,-106.352 600.437,-116.362 609.393,-110.702 603.909,-106.352"/>
</g>
</g>
</svg>
