<?xml version="1.0" encoding="UTF-8" standalone="no"?>
<!DOCTYPE svg PUBLIC "-//W3C//DTD SVG 1.1//EN"
 "http://www.w3.org/Graphics/SVG/1.1/DTD/svg11.dtd">
<!-- Generated by graphviz version 2.26.0 (20091210.2329)
 -->
<!-- Title: oddlsite.h Pages: 1 -->
<svg width="799pt" height="726pt"
 viewBox="0.00 0.00 798.71 726.00" xmlns="http://www.w3.org/2000/svg" xmlns:xlink="http://www.w3.org/1999/xlink">
<g id="graph1" class="graph" transform="scale(1 1) rotate(0) translate(4 722)">
<title>oddlsite.h</title>
<polygon fill="white" stroke="white" points="-4,5 -4,-722 795.708,-722 795.708,5 -4,5"/>
<!-- Node1 -->
<g id="node1" class="node"><title>Node1</title>
<polygon fill="#bfbfbf" stroke="black" points="370.208,-696.5 370.208,-717.5 429.208,-717.5 429.208,-696.5 370.208,-696.5"/>
<text text-anchor="middle" x="399.708" y="-704.5" font-family="Helvetica,sans-Serif" font-size="10.00">oddlsite.h</text>
</g>
<!-- Node2 -->
<g id="node3" class="node"><title>Node2</title>
<polygon fill="white" stroke="#bfbfbf" points="235.708,-638.5 235.708,-659.5 313.708,-659.5 313.708,-638.5 235.708,-638.5"/>
<text text-anchor="middle" x="274.708" y="-646.5" font-family="Helvetica,sans-Serif" font-size="10.00">networkmod.h</text>
</g>
<!-- Node1&#45;&gt;Node2 -->
<g id="edge2" class="edge"><title>Node1&#45;&gt;Node2</title>
<path fill="none" stroke="midnightblue" d="M377.071,-696.497C357.46,-687.397 328.861,-674.127 306.874,-663.925"/>
<polygon fill="midnightblue" stroke="midnightblue" points="308.143,-660.655 297.598,-659.621 305.196,-667.005 308.143,-660.655"/>
</g>
<!-- Node3 -->
<g id="node5" class="node"><title>Node3</title>
<a xlink:href="callback_8h.html" target="_top" xlink:title="callback.h">
<polygon fill="white" stroke="black" points="331.208,-638.5 331.208,-659.5 392.208,-659.5 392.208,-638.5 331.208,-638.5"/>
<text text-anchor="middle" x="361.708" y="-646.5" font-family="Helvetica,sans-Serif" font-size="10.00">callback.h</text>
</a>
</g>
<!-- Node1&#45;&gt;Node3 -->
<g id="edge4" class="edge"><title>Node1&#45;&gt;Node3</title>
<path fill="none" stroke="midnightblue" d="M392.738,-696.362C387.542,-688.431 380.307,-677.389 374.13,-667.961"/>
<polygon fill="midnightblue" stroke="midnightblue" points="377.041,-666.017 368.633,-659.571 371.186,-669.853 377.041,-666.017"/>
</g>
<!-- Node23 -->
<g id="node55" class="node"><title>Node23</title>
<a xlink:href="bufstring_8h.html" target="_top" xlink:title="bufstring.h">
<polygon fill="white" stroke="black" points="596.708,-348.5 596.708,-369.5 658.708,-369.5 658.708,-348.5 596.708,-348.5"/>
<text text-anchor="middle" x="627.708" y="-356.5" font-family="Helvetica,sans-Serif" font-size="10.00">bufstring.h</text>
</a>
</g>
<!-- Node1&#45;&gt;Node23 -->
<g id="edge116" class="edge"><title>Node1&#45;&gt;Node23</title>
<path fill="none" stroke="midnightblue" d="M429.371,-703.853C485.95,-696.034 603.708,-670.243 603.708,-591 603.708,-591 603.708,-591 603.708,-475 603.708,-440.913 613.769,-402.338 620.862,-379.376"/>
<polygon fill="midnightblue" stroke="midnightblue" points="624.238,-380.313 623.958,-369.721 617.572,-378.175 624.238,-380.313"/>
</g>
<!-- Node34 -->
<g id="node93" class="node"><title>Node34</title>
<a xlink:href="uistring_8h.html" target="_top" xlink:title="uistring.h">
<polygon fill="white" stroke="black" points="446.708,-580.5 446.708,-601.5 502.708,-601.5 502.708,-580.5 446.708,-580.5"/>
<text text-anchor="middle" x="474.708" y="-588.5" font-family="Helvetica,sans-Serif" font-size="10.00">uistring.h</text>
</a>
</g>
<!-- Node1&#45;&gt;Node34 -->
<g id="edge118" class="edge"><title>Node1&#45;&gt;Node34</title>
<path fill="none" stroke="midnightblue" d="M406.629,-696.295C419.298,-676.7 446.376,-634.82 462.3,-610.191"/>
<polygon fill="midnightblue" stroke="midnightblue" points="465.313,-611.977 467.803,-601.679 459.434,-608.177 465.313,-611.977"/>
</g>
<!-- Node4 -->
<g id="node7" class="node"><title>Node4</title>
<polygon fill="white" stroke="#bfbfbf" points="446.208,-0.5 446.208,-21.5 513.208,-21.5 513.208,-0.5 446.208,-0.5"/>
<text text-anchor="middle" x="479.708" y="-8.5" font-family="Helvetica,sans-Serif" font-size="10.00">basicmod.h</text>
</g>
<!-- Node3&#45;&gt;Node4 -->
<g id="edge6" class="edge"><title>Node3&#45;&gt;Node4</title>
<path fill="none" stroke="midnightblue" d="M368.132,-638.465C395.217,-593.014 498.708,-408.52 498.708,-243 498.708,-243 498.708,-243 498.708,-127 498.708,-93.175 490.743,-54.5229 485.127,-31.474"/>
<polygon fill="midnightblue" stroke="midnightblue" points="488.52,-30.6159 482.677,-21.7784 481.734,-32.3312 488.52,-30.6159"/>
</g>
<!-- Node5 -->
<g id="node9" class="node"><title>Node5</title>
<a xlink:href="refcount_8h.html" target="_top" xlink:title="refcount.h">
<polygon fill="white" stroke="black" points="234.708,-580.5 234.708,-601.5 294.708,-601.5 294.708,-580.5 234.708,-580.5"/>
<text text-anchor="middle" x="264.708" y="-588.5" font-family="Helvetica,sans-Serif" font-size="10.00">refcount.h</text>
</a>
</g>
<!-- Node3&#45;&gt;Node5 -->
<g id="edge8" class="edge"><title>Node3&#45;&gt;Node5</title>
<path fill="none" stroke="midnightblue" d="M343.916,-638.362C329.149,-629.532 307.93,-616.844 291.169,-606.822"/>
<polygon fill="midnightblue" stroke="midnightblue" points="292.765,-603.699 282.386,-601.571 289.173,-609.707 292.765,-603.699"/>
</g>
<!-- Node31 -->
<g id="node80" class="node"><title>Node31</title>
<a xlink:href="sets_8h.html" target="_top" xlink:title="sets.h">
<polygon fill="white" stroke="black" points="320.708,-580.5 320.708,-601.5 364.708,-601.5 364.708,-580.5 320.708,-580.5"/>
<text text-anchor="middle" x="342.708" y="-588.5" font-family="Helvetica,sans-Serif" font-size="10.00">sets.h</text>
</a>
</g>
<!-- Node3&#45;&gt;Node31 -->
<g id="edge98" class="edge"><title>Node3&#45;&gt;Node31</title>
<path fill="none" stroke="midnightblue" d="M358.223,-638.362C355.732,-630.758 352.304,-620.294 349.304,-611.135"/>
<polygon fill="midnightblue" stroke="midnightblue" points="352.61,-609.984 346.171,-601.571 345.958,-612.163 352.61,-609.984"/>
</g>
<!-- Node33 -->
<g id="node87" class="node"><title>Node33</title>
<a xlink:href="threadlock_8h.html" target="_top" xlink:title="threadlock.h">
<polygon fill="white" stroke="black" points="106.708,-116.5 106.708,-137.5 176.708,-137.5 176.708,-116.5 106.708,-116.5"/>
<text text-anchor="middle" x="141.708" y="-124.5" font-family="Helvetica,sans-Serif" font-size="10.00">threadlock.h</text>
</a>
</g>
<!-- Node3&#45;&gt;Node33 -->
<g id="edge108" class="edge"><title>Node3&#45;&gt;Node33</title>
<path fill="none" stroke="midnightblue" d="M331.207,-640.167C248.251,-615.931 24.7078,-549.126 24.7078,-533 24.7078,-533 24.7078,-533 24.7078,-359 24.7078,-270.93 92.7563,-182.257 125.061,-145.123"/>
<polygon fill="midnightblue" stroke="midnightblue" points="127.713,-147.407 131.732,-137.604 122.477,-142.761 127.713,-147.407"/>
</g>
<!-- Node6 -->
<g id="node11" class="node"><title>Node6</title>
<a xlink:href="atomic_8h.html" target="_top" xlink:title="atomic.h">
<polygon fill="white" stroke="black" points="34.7078,-116.5 34.7078,-137.5 88.7078,-137.5 88.7078,-116.5 34.7078,-116.5"/>
<text text-anchor="middle" x="61.7078" y="-124.5" font-family="Helvetica,sans-Serif" font-size="10.00">atomic.h</text>
</a>
</g>
<!-- Node5&#45;&gt;Node6 -->
<g id="edge10" class="edge"><title>Node5&#45;&gt;Node6</title>
<path fill="none" stroke="midnightblue" d="M234.406,-586.503C189.456,-579.266 108.105,-563.818 86.7078,-544 62.8868,-521.937 62.7078,-507.469 62.7078,-475 62.7078,-475 62.7078,-475 62.7078,-359 62.7078,-281.115 62.1372,-188.524 61.8581,-147.88"/>
<polygon fill="midnightblue" stroke="midnightblue" points="65.3564,-147.612 61.7863,-137.637 58.3565,-147.661 65.3564,-147.612"/>
</g>
<!-- Node14 -->
<g id="node30" class="node"><title>Node14</title>
<a xlink:href="objectset_8h.html" target="_top" xlink:title="objectset.h">
<polygon fill="white" stroke="black" points="232.208,-522.5 232.208,-543.5 297.208,-543.5 297.208,-522.5 232.208,-522.5"/>
<text text-anchor="middle" x="264.708" y="-530.5" font-family="Helvetica,sans-Serif" font-size="10.00">objectset.h</text>
</a>
</g>
<!-- Node5&#45;&gt;Node14 -->
<g id="edge32" class="edge"><title>Node5&#45;&gt;Node14</title>
<path fill="none" stroke="midnightblue" d="M264.708,-580.362C264.708,-572.922 264.708,-562.743 264.708,-553.728"/>
<polygon fill="midnightblue" stroke="midnightblue" points="268.208,-553.571 264.708,-543.571 261.208,-553.571 268.208,-553.571"/>
</g>
<!-- Node6&#45;&gt;Node4 -->
<g id="edge12" class="edge"><title>Node6&#45;&gt;Node4</title>
<path fill="none" stroke="midnightblue" d="M67.7545,-116.462C77.3802,-100.775 97.7778,-71.6654 123.708,-58 150.863,-43.6887 346.948,-23.5792 435.959,-15.0638"/>
<polygon fill="midnightblue" stroke="midnightblue" points="436.388,-18.539 446.011,-14.108 435.725,-11.5704 436.388,-18.539"/>
</g>
<!-- Node7 -->
<g id="node14" class="node"><title>Node7</title>
<a xlink:href="commondefs_8h.html" target="_top" xlink:title="commondefs.h">
<polygon fill="white" stroke="black" points="246.208,-58.5 246.208,-79.5 327.208,-79.5 327.208,-58.5 246.208,-58.5"/>
<text text-anchor="middle" x="286.708" y="-66.5" font-family="Helvetica,sans-Serif" font-size="10.00">commondefs.h</text>
</a>
</g>
<!-- Node6&#45;&gt;Node7 -->
<g id="edge14" class="edge"><title>Node6&#45;&gt;Node7</title>
<path fill="none" stroke="midnightblue" d="M88.7898,-118.557C91.7922,-117.671 94.8106,-116.802 97.7078,-116 144.371,-103.078 197.97,-89.9062 236.143,-80.8071"/>
<polygon fill="midnightblue" stroke="midnightblue" points="237.07,-84.1843 245.991,-78.4685 235.453,-77.3737 237.07,-84.1843"/>
</g>
<!-- Node11 -->
<g id="node23" class="node"><title>Node11</title>
<a xlink:href="plftypes_8h.html" target="_top" xlink:title="plftypes.h">
<polygon fill="white" stroke="black" points="132.208,-58.5 132.208,-79.5 191.208,-79.5 191.208,-58.5 132.208,-58.5"/>
<text text-anchor="middle" x="161.708" y="-66.5" font-family="Helvetica,sans-Serif" font-size="10.00">plftypes.h</text>
</a>
</g>
<!-- Node6&#45;&gt;Node11 -->
<g id="edge24" class="edge"><title>Node6&#45;&gt;Node11</title>
<path fill="none" stroke="midnightblue" d="M80.0493,-116.362C95.2733,-107.532 117.149,-94.844 134.428,-84.8224"/>
<polygon fill="midnightblue" stroke="midnightblue" points="136.588,-87.6155 143.483,-79.5707 133.076,-81.5603 136.588,-87.6155"/>
</g>
<!-- Node13 -->
<g id="node28" class="node"><title>Node13</title>
<polygon fill="white" stroke="#bfbfbf" points="10.2078,-58.5 10.2078,-79.5 77.2078,-79.5 77.2078,-58.5 10.2078,-58.5"/>
<text text-anchor="middle" x="43.7078" y="-66.5" font-family="Helvetica,sans-Serif" font-size="10.00">odversion.h</text>
</g>
<!-- Node6&#45;&gt;Node13 -->
<g id="edge30" class="edge"><title>Node6&#45;&gt;Node13</title>
<path fill="none" stroke="midnightblue" d="M58.4063,-116.362C56.0466,-108.758 52.799,-98.294 49.9565,-89.1349"/>
<polygon fill="midnightblue" stroke="midnightblue" points="53.2951,-88.0839 46.9883,-79.5707 46.6097,-90.1587 53.2951,-88.0839"/>
</g>
<!-- Node7&#45;&gt;Node4 -->
<g id="edge16" class="edge"><title>Node7&#45;&gt;Node4</title>
<path fill="none" stroke="midnightblue" d="M321.659,-58.4966C353.791,-48.8404 401.549,-34.4883 436.152,-24.0893"/>
<polygon fill="midnightblue" stroke="midnightblue" points="437.418,-27.3637 445.987,-21.1337 435.403,-20.6598 437.418,-27.3637"/>
</g>
<!-- Node8 -->
<g id="node17" class="node"><title>Node8</title>
<a xlink:href="plfdefs_8h.html" target="_top" xlink:title="plfdefs.h">
<polygon fill="white" stroke="black" points="228.708,-0.5 228.708,-21.5 282.708,-21.5 282.708,-0.5 228.708,-0.5"/>
<text text-anchor="middle" x="255.708" y="-8.5" font-family="Helvetica,sans-Serif" font-size="10.00">plfdefs.h</text>
</a>
</g>
<!-- Node7&#45;&gt;Node8 -->
<g id="edge18" class="edge"><title>Node7&#45;&gt;Node8</title>
<path fill="none" stroke="midnightblue" d="M281.022,-58.3619C276.871,-50.5949 271.124,-39.8426 266.155,-30.5458"/>
<polygon fill="midnightblue" stroke="midnightblue" points="269.158,-28.7401 261.358,-21.5707 262.985,-32.0398 269.158,-28.7401"/>
</g>
<!-- Node9 -->
<g id="node19" class="node"><title>Node9</title>
<polygon fill="white" stroke="#bfbfbf" points="152.208,-0.5 152.208,-21.5 211.208,-21.5 211.208,-0.5 152.208,-0.5"/>
<text text-anchor="middle" x="181.708" y="-8.5" font-family="Helvetica,sans-Serif" font-size="10.00">stdexcept</text>
</g>
<!-- Node7&#45;&gt;Node9 -->
<g id="edge20" class="edge"><title>Node7&#45;&gt;Node9</title>
<path fill="none" stroke="midnightblue" d="M267.449,-58.3619C251.242,-49.4094 227.855,-36.4908 209.599,-26.4064"/>
<polygon fill="midnightblue" stroke="midnightblue" points="211.29,-23.3422 200.844,-21.5707 207.905,-29.4696 211.29,-23.3422"/>
</g>
<!-- Node10 -->
<g id="node21" class="node"><title>Node10</title>
<polygon fill="white" stroke="#bfbfbf" points="300.208,-0.5 300.208,-21.5 335.208,-21.5 335.208,-0.5 300.208,-0.5"/>
<text text-anchor="middle" x="317.708" y="-8.5" font-family="Helvetica,sans-Serif" font-size="10.00">new</text>
</g>
<!-- Node7&#45;&gt;Node10 -->
<g id="edge22" class="edge"><title>Node7&#45;&gt;Node10</title>
<path fill="none" stroke="midnightblue" d="M292.394,-58.3619C296.545,-50.5949 302.292,-39.8426 307.261,-30.5458"/>
<polygon fill="midnightblue" stroke="midnightblue" points="310.431,-32.0398 312.058,-21.5707 304.257,-28.7401 310.431,-32.0398"/>
</g>
<!-- Node11&#45;&gt;Node8 -->
<g id="edge26" class="edge"><title>Node11&#45;&gt;Node8</title>
<path fill="none" stroke="midnightblue" d="M178.949,-58.3619C193.259,-49.532 213.823,-36.844 230.065,-26.8224"/>
<polygon fill="midnightblue" stroke="midnightblue" points="231.904,-29.8004 238.576,-21.5707 228.228,-23.8431 231.904,-29.8004"/>
</g>
<!-- Node12 -->
<g id="node26" class="node"><title>Node12</title>
<polygon fill="white" stroke="#bfbfbf" points="86.2078,-0.5 86.2078,-21.5 135.208,-21.5 135.208,-0.5 86.2078,-0.5"/>
<text text-anchor="middle" x="110.708" y="-8.5" font-family="Helvetica,sans-Serif" font-size="10.00">stdint.h</text>
</g>
<!-- Node11&#45;&gt;Node12 -->
<g id="edge28" class="edge"><title>Node11&#45;&gt;Node12</title>
<path fill="none" stroke="midnightblue" d="M152.354,-58.3619C145.165,-50.1861 135.067,-38.7025 126.615,-29.0907"/>
<polygon fill="midnightblue" stroke="midnightblue" points="129.234,-26.7692 120.003,-21.5707 123.978,-31.3916 129.234,-26.7692"/>
</g>
<!-- Node15 -->
<g id="node32" class="node"><title>Node15</title>
<a xlink:href="odset_8h.html" target="_top" xlink:title="odset.h">
<polygon fill="white" stroke="black" points="215.208,-464.5 215.208,-485.5 264.208,-485.5 264.208,-464.5 215.208,-464.5"/>
<text text-anchor="middle" x="239.708" y="-472.5" font-family="Helvetica,sans-Serif" font-size="10.00">odset.h</text>
</a>
</g>
<!-- Node14&#45;&gt;Node15 -->
<g id="edge34" class="edge"><title>Node14&#45;&gt;Node15</title>
<path fill="none" stroke="midnightblue" d="M260.122,-522.362C256.81,-514.677 252.237,-504.069 248.259,-494.84"/>
<polygon fill="midnightblue" stroke="midnightblue" points="251.437,-493.368 244.264,-485.571 245.008,-496.139 251.437,-493.368"/>
</g>
<!-- Node21 -->
<g id="node49" class="node"><title>Node21</title>
<a xlink:href="vectoraccess_8h.html" target="_top" xlink:title="vectoraccess.h">
<polygon fill="white" stroke="black" points="281.208,-464.5 281.208,-485.5 364.208,-485.5 364.208,-464.5 281.208,-464.5"/>
<text text-anchor="middle" x="322.708" y="-472.5" font-family="Helvetica,sans-Serif" font-size="10.00">vectoraccess.h</text>
</a>
</g>
<!-- Node14&#45;&gt;Node21 -->
<g id="edge56" class="edge"><title>Node14&#45;&gt;Node21</title>
<path fill="none" stroke="midnightblue" d="M275.346,-522.362C283.603,-514.104 295.235,-502.472 304.905,-492.803"/>
<polygon fill="midnightblue" stroke="midnightblue" points="307.541,-495.117 312.137,-485.571 302.591,-490.167 307.541,-495.117"/>
</g>
<!-- Node16 -->
<g id="node34" class="node"><title>Node16</title>
<a xlink:href="gendefs_8h.html" target="_top" xlink:title="gendefs.h">
<polygon fill="white" stroke="black" points="317.208,-174.5 317.208,-195.5 376.208,-195.5 376.208,-174.5 317.208,-174.5"/>
<text text-anchor="middle" x="346.708" y="-182.5" font-family="Helvetica,sans-Serif" font-size="10.00">gendefs.h</text>
</a>
</g>
<!-- Node15&#45;&gt;Node16 -->
<g id="edge36" class="edge"><title>Node15&#45;&gt;Node16</title>
<path fill="none" stroke="midnightblue" d="M225.207,-464.479C214.804,-455.97 201.621,-442.97 195.708,-428 192.115,-418.906 192.821,-415.342 195.708,-406 222.126,-320.507 294.237,-238.587 328.353,-203.237"/>
<polygon fill="midnightblue" stroke="midnightblue" points="331.283,-205.247 335.782,-195.655 326.284,-200.348 331.283,-205.247"/>
</g>
<!-- Node17 -->
<g id="node36" class="node"><title>Node17</title>
<a xlink:href="undefval_8h.html" target="_top" xlink:title="undefval.h">
<polygon fill="white" stroke="black" points="298.708,-116.5 298.708,-137.5 360.708,-137.5 360.708,-116.5 298.708,-116.5"/>
<text text-anchor="middle" x="329.708" y="-124.5" font-family="Helvetica,sans-Serif" font-size="10.00">undefval.h</text>
</a>
</g>
<!-- Node16&#45;&gt;Node17 -->
<g id="edge38" class="edge"><title>Node16&#45;&gt;Node17</title>
<path fill="none" stroke="midnightblue" d="M343.59,-174.362C341.385,-166.84 338.36,-156.519 335.696,-147.431"/>
<polygon fill="midnightblue" stroke="midnightblue" points="338.978,-146.182 332.806,-137.571 332.26,-148.151 338.978,-146.182"/>
</g>
<!-- Node18 -->
<g id="node41" class="node"><title>Node18</title>
<a xlink:href="commontypes_8h.html" target="_top" xlink:title="commontypes.h">
<polygon fill="white" stroke="black" points="194.708,-116.5 194.708,-137.5 280.708,-137.5 280.708,-116.5 194.708,-116.5"/>
<text text-anchor="middle" x="237.708" y="-124.5" font-family="Helvetica,sans-Serif" font-size="10.00">commontypes.h</text>
</a>
</g>
<!-- Node16&#45;&gt;Node18 -->
<g id="edge46" class="edge"><title>Node16&#45;&gt;Node18</title>
<path fill="none" stroke="midnightblue" d="M326.969,-174.497C310.098,-165.519 285.599,-152.484 266.534,-142.339"/>
<polygon fill="midnightblue" stroke="midnightblue" points="268.141,-139.229 257.668,-137.621 264.852,-145.409 268.141,-139.229"/>
</g>
<!-- Node19 -->
<g id="node44" class="node"><title>Node19</title>
<a xlink:href="errmsg_8h.html" target="_top" xlink:title="errmsg.h">
<polygon fill="white" stroke="black" points="378.208,-116.5 378.208,-137.5 433.208,-137.5 433.208,-116.5 378.208,-116.5"/>
<text text-anchor="middle" x="405.708" y="-124.5" font-family="Helvetica,sans-Serif" font-size="10.00">errmsg.h</text>
</a>
</g>
<!-- Node16&#45;&gt;Node19 -->
<g id="edge50" class="edge"><title>Node16&#45;&gt;Node19</title>
<path fill="none" stroke="midnightblue" d="M357.529,-174.362C365.929,-166.104 377.762,-154.472 387.598,-144.803"/>
<polygon fill="midnightblue" stroke="midnightblue" points="390.277,-147.077 394.955,-137.571 385.37,-142.085 390.277,-147.077"/>
</g>
<!-- Node17&#45;&gt;Node4 -->
<g id="edge40" class="edge"><title>Node17&#45;&gt;Node4</title>
<path fill="none" stroke="midnightblue" d="M334.133,-116.279C340.751,-101.407 354.533,-74.489 373.708,-58 391.759,-42.4765 415.756,-31.265 436.351,-23.6945"/>
<polygon fill="midnightblue" stroke="midnightblue" points="437.563,-26.9786 445.843,-20.369 435.249,-20.3723 437.563,-26.9786"/>
</g>
<!-- Node17&#45;&gt;Node7 -->
<g id="edge42" class="edge"><title>Node17&#45;&gt;Node7</title>
<path fill="none" stroke="midnightblue" d="M321.821,-116.362C315.881,-108.35 307.585,-97.1605 300.549,-87.6696"/>
<polygon fill="midnightblue" stroke="midnightblue" points="303.312,-85.5193 294.545,-79.5707 297.689,-89.6883 303.312,-85.5193"/>
</g>
<!-- Node17&#45;&gt;Node11 -->
<g id="edge44" class="edge"><title>Node17&#45;&gt;Node11</title>
<path fill="none" stroke="midnightblue" d="M299.284,-116.497C271.759,-106.994 231.062,-92.9438 201.068,-82.5887"/>
<polygon fill="midnightblue" stroke="midnightblue" points="201.936,-79.1856 191.341,-79.2305 199.651,-85.8024 201.936,-79.1856"/>
</g>
<!-- Node18&#45;&gt;Node7 -->
<g id="edge48" class="edge"><title>Node18&#45;&gt;Node7</title>
<path fill="none" stroke="midnightblue" d="M246.695,-116.362C253.533,-108.268 263.11,-96.9318 271.18,-87.3796"/>
<polygon fill="midnightblue" stroke="midnightblue" points="273.997,-89.4683 277.777,-79.5707 268.65,-84.9508 273.997,-89.4683"/>
</g>
<!-- Node19&#45;&gt;Node7 -->
<g id="edge52" class="edge"><title>Node19&#45;&gt;Node7</title>
<path fill="none" stroke="midnightblue" d="M384.158,-116.497C365.571,-107.438 338.506,-94.2462 317.612,-84.0628"/>
<polygon fill="midnightblue" stroke="midnightblue" points="319.022,-80.8563 308.5,-79.6212 315.955,-87.1487 319.022,-80.8563"/>
</g>
<!-- Node20 -->
<g id="node47" class="node"><title>Node20</title>
<polygon fill="white" stroke="#bfbfbf" points="382.208,-58.5 382.208,-79.5 433.208,-79.5 433.208,-58.5 382.208,-58.5"/>
<text text-anchor="middle" x="407.708" y="-66.5" font-family="Helvetica,sans-Serif" font-size="10.00">typeinfo</text>
</g>
<!-- Node19&#45;&gt;Node20 -->
<g id="edge54" class="edge"><title>Node19&#45;&gt;Node20</title>
<path fill="none" stroke="midnightblue" d="M406.075,-116.362C406.331,-108.922 406.682,-98.7427 406.993,-89.7276"/>
<polygon fill="midnightblue" stroke="midnightblue" points="410.496,-89.6854 407.343,-79.5707 403.501,-89.4441 410.496,-89.6854"/>
</g>
<!-- Node21&#45;&gt;Node9 -->
<g id="edge96" class="edge"><title>Node21&#45;&gt;Node9</title>
<path fill="none" stroke="midnightblue" d="M286.145,-464.48C253.848,-454.655 209.763,-439.779 195.708,-428 59.9892,-314.261 36.2225,-253.68 1.70778,-80 -10.9831,-16.1386 70.0823,-37.6451 141.815,-22.1814"/>
<polygon fill="midnightblue" stroke="midnightblue" points="142.972,-25.5022 151.864,-19.7414 141.32,-18.6999 142.972,-25.5022"/>
</g>
<!-- Node21&#45;&gt;Node16 -->
<g id="edge90" class="edge"><title>Node21&#45;&gt;Node16</title>
<path fill="none" stroke="midnightblue" d="M325.175,-464.235C327.251,-454.749 330.128,-440.529 331.708,-428 342.024,-346.179 345.328,-247.925 346.317,-205.815"/>
<polygon fill="midnightblue" stroke="midnightblue" points="349.818,-205.777 346.534,-195.704 342.82,-205.627 349.818,-205.777"/>
</g>
<!-- Node22 -->
<g id="node51" class="node"><title>Node22</title>
<a xlink:href="debug_8h.html" target="_top" xlink:title="debug.h">
<polygon fill="white" stroke="black" points="378.208,-406.5 378.208,-427.5 429.208,-427.5 429.208,-406.5 378.208,-406.5"/>
<text text-anchor="middle" x="403.708" y="-414.5" font-family="Helvetica,sans-Serif" font-size="10.00">debug.h</text>
</a>
</g>
<!-- Node21&#45;&gt;Node22 -->
<g id="edge58" class="edge"><title>Node21&#45;&gt;Node22</title>
<path fill="none" stroke="midnightblue" d="M337.564,-464.362C349.553,-455.777 366.635,-443.546 380.436,-433.664"/>
<polygon fill="midnightblue" stroke="midnightblue" points="382.852,-436.238 388.945,-427.571 378.777,-430.547 382.852,-436.238"/>
</g>
<!-- Node29 -->
<g id="node75" class="node"><title>Node29</title>
<polygon fill="white" stroke="#bfbfbf" points="266.708,-406.5 266.708,-427.5 322.708,-427.5 322.708,-406.5 266.708,-406.5"/>
<text text-anchor="middle" x="294.708" y="-414.5" font-family="Helvetica,sans-Serif" font-size="10.00">algorithm</text>
</g>
<!-- Node21&#45;&gt;Node29 -->
<g id="edge92" class="edge"><title>Node21&#45;&gt;Node29</title>
<path fill="none" stroke="midnightblue" d="M317.572,-464.362C313.862,-456.677 308.741,-446.069 304.286,-436.84"/>
<polygon fill="midnightblue" stroke="midnightblue" points="307.31,-435.055 299.811,-427.571 301.006,-438.098 307.31,-435.055"/>
</g>
<!-- Node30 -->
<g id="node77" class="node"><title>Node30</title>
<polygon fill="white" stroke="#bfbfbf" points="204.708,-406.5 204.708,-427.5 248.708,-427.5 248.708,-406.5 204.708,-406.5"/>
<text text-anchor="middle" x="226.708" y="-414.5" font-family="Helvetica,sans-Serif" font-size="10.00">vector</text>
</g>
<!-- Node21&#45;&gt;Node30 -->
<g id="edge94" class="edge"><title>Node21&#45;&gt;Node30</title>
<path fill="none" stroke="midnightblue" d="M305.1,-464.362C290.485,-455.532 269.484,-442.844 252.897,-432.822"/>
<polygon fill="midnightblue" stroke="midnightblue" points="254.573,-429.746 244.204,-427.571 250.953,-435.738 254.573,-429.746"/>
</g>
<!-- Node22&#45;&gt;Node4 -->
<g id="edge60" class="edge"><title>Node22&#45;&gt;Node4</title>
<path fill="none" stroke="midnightblue" d="M409.808,-406.406C424.512,-379.836 460.708,-307.847 460.708,-243 460.708,-243 460.708,-243 460.708,-127 460.708,-93.175 468.673,-54.5229 474.289,-31.474"/>
<polygon fill="midnightblue" stroke="midnightblue" points="477.682,-32.3312 476.739,-21.7784 470.895,-30.6159 477.682,-32.3312"/>
</g>
<!-- Node22&#45;&gt;Node16 -->
<g id="edge62" class="edge"><title>Node22&#45;&gt;Node16</title>
<path fill="none" stroke="midnightblue" d="M399.914,-406.387C393.292,-387.567 379.49,-347.031 370.708,-312 361.391,-274.839 353.827,-230.757 349.821,-205.514"/>
<polygon fill="midnightblue" stroke="midnightblue" points="353.279,-204.971 348.282,-195.629 346.362,-206.048 353.279,-204.971"/>
</g>
<!-- Node22&#45;&gt;Node23 -->
<g id="edge64" class="edge"><title>Node22&#45;&gt;Node23</title>
<path fill="none" stroke="midnightblue" d="M429.345,-410.609C463.127,-402.153 524.64,-386.639 586.374,-370.325"/>
<polygon fill="midnightblue" stroke="midnightblue" points="587.509,-373.645 596.28,-367.701 585.717,-366.879 587.509,-373.645"/>
</g>
<!-- Node23&#45;&gt;Node4 -->
<g id="edge66" class="edge"><title>Node23&#45;&gt;Node4</title>
<path fill="none" stroke="midnightblue" d="M602.621,-348.335C586.963,-340.457 567.59,-328.277 555.708,-312 536.953,-286.309 536.708,-274.808 536.708,-243 536.708,-243 536.708,-243 536.708,-127 536.708,-89.5289 512.454,-51.5841 495.588,-29.7281"/>
<polygon fill="midnightblue" stroke="midnightblue" points="498.104,-27.2705 489.12,-21.6538 492.64,-31.6467 498.104,-27.2705"/>
</g>
<!-- Node24 -->
<g id="node58" class="node"><title>Node24</title>
<a xlink:href="fixedstring_8h.html" target="_top" xlink:title="fixedstring.h">
<polygon fill="white" stroke="black" points="564.708,-290.5 564.708,-311.5 634.708,-311.5 634.708,-290.5 564.708,-290.5"/>
<text text-anchor="middle" x="599.708" y="-298.5" font-family="Helvetica,sans-Serif" font-size="10.00">fixedstring.h</text>
</a>
</g>
<!-- Node23&#45;&gt;Node24 -->
<g id="edge68" class="edge"><title>Node23&#45;&gt;Node24</title>
<path fill="none" stroke="midnightblue" d="M622.572,-348.362C618.862,-340.677 613.741,-330.069 609.286,-320.84"/>
<polygon fill="midnightblue" stroke="midnightblue" points="612.31,-319.055 604.811,-311.571 606.006,-322.098 612.31,-319.055"/>
</g>
<!-- Node26 -->
<g id="node65" class="node"><title>Node26</title>
<a xlink:href="string2_8h.html" target="_top" xlink:title="string2.h">
<polygon fill="white" stroke="black" points="635.708,-116.5 635.708,-137.5 689.708,-137.5 689.708,-116.5 635.708,-116.5"/>
<text text-anchor="middle" x="662.708" y="-124.5" font-family="Helvetica,sans-Serif" font-size="10.00">string2.h</text>
</a>
</g>
<!-- Node23&#45;&gt;Node26 -->
<g id="edge78" class="edge"><title>Node23&#45;&gt;Node26</title>
<path fill="none" stroke="midnightblue" d="M632.099,-348.369C635.794,-338.969 640.91,-324.799 643.708,-312 656.532,-253.339 660.751,-182.274 662.099,-147.785"/>
<polygon fill="midnightblue" stroke="midnightblue" points="665.605,-147.678 662.455,-137.562 658.609,-147.435 665.605,-147.678"/>
</g>
<!-- Node24&#45;&gt;Node4 -->
<g id="edge70" class="edge"><title>Node24&#45;&gt;Node4</title>
<path fill="none" stroke="midnightblue" d="M634.74,-295.91C689.88,-285.699 790.708,-257.161 790.708,-185 790.708,-185 790.708,-185 790.708,-127 790.708,-86.3607 765.974,-78.1957 730.708,-58 696.067,-38.1625 585.958,-22.9769 523.698,-15.7148"/>
<polygon fill="midnightblue" stroke="midnightblue" points="523.731,-12.1957 513.397,-14.5347 522.934,-19.1502 523.731,-12.1957"/>
</g>
<!-- Node25 -->
<g id="node61" class="node"><title>Node25</title>
<a xlink:href="odstring_8h.html" target="_top" xlink:title="odstring.h">
<polygon fill="white" stroke="black" points="570.208,-232.5 570.208,-253.5 629.208,-253.5 629.208,-232.5 570.208,-232.5"/>
<text text-anchor="middle" x="599.708" y="-240.5" font-family="Helvetica,sans-Serif" font-size="10.00">odstring.h</text>
</a>
</g>
<!-- Node24&#45;&gt;Node25 -->
<g id="edge72" class="edge"><title>Node24&#45;&gt;Node25</title>
<path fill="none" stroke="midnightblue" d="M599.708,-290.362C599.708,-282.922 599.708,-272.743 599.708,-263.728"/>
<polygon fill="midnightblue" stroke="midnightblue" points="603.208,-263.571 599.708,-253.571 596.208,-263.571 603.208,-263.571"/>
</g>
<!-- Node25&#45;&gt;Node4 -->
<g id="edge74" class="edge"><title>Node25&#45;&gt;Node4</title>
<path fill="none" stroke="midnightblue" d="M615.258,-232.303C656.309,-202.8 761.144,-118.455 711.708,-58 688.407,-29.5051 584.116,-17.8752 523.59,-13.4603"/>
<polygon fill="midnightblue" stroke="midnightblue" points="523.768,-9.9643 513.55,-12.7647 523.284,-16.9476 523.768,-9.9643"/>
</g>
<!-- Node25&#45;&gt;Node16 -->
<g id="edge76" class="edge"><title>Node25&#45;&gt;Node16</title>
<path fill="none" stroke="midnightblue" d="M570.19,-236.233C524.704,-225.805 437.408,-205.793 386.423,-194.105"/>
<polygon fill="midnightblue" stroke="midnightblue" points="386.958,-190.637 376.428,-191.813 385.393,-197.46 386.958,-190.637"/>
</g>
<!-- Node26&#45;&gt;Node4 -->
<g id="edge80" class="edge"><title>Node26&#45;&gt;Node4</title>
<path fill="none" stroke="midnightblue" d="M674.658,-116.328C689.275,-101.987 710.372,-76.1976 695.708,-58 674.512,-31.6966 580.324,-19.3435 523.556,-14.1929"/>
<polygon fill="midnightblue" stroke="midnightblue" points="523.683,-10.6908 513.417,-13.3133 523.077,-17.6646 523.683,-10.6908"/>
</g>
<!-- Node26&#45;&gt;Node7 -->
<g id="edge84" class="edge"><title>Node26&#45;&gt;Node7</title>
<path fill="none" stroke="midnightblue" d="M635.667,-122.829C573.174,-113.189 417.929,-89.2415 337.23,-76.7934"/>
<polygon fill="midnightblue" stroke="midnightblue" points="337.715,-73.3268 327.298,-75.2613 336.648,-80.245 337.715,-73.3268"/>
</g>
<!-- Node26&#45;&gt;Node11 -->
<g id="edge82" class="edge"><title>Node26&#45;&gt;Node11</title>
<path fill="none" stroke="midnightblue" d="M635.572,-124.319C568.171,-117.589 387.744,-99.1485 237.708,-80 225.843,-78.4857 212.96,-76.6818 201.229,-74.9772"/>
<polygon fill="midnightblue" stroke="midnightblue" points="201.675,-71.5051 191.272,-73.5145 200.657,-78.4308 201.675,-71.5051"/>
</g>
<!-- Node27 -->
<g id="node70" class="node"><title>Node27</title>
<polygon fill="white" stroke="#bfbfbf" points="638.208,-58.5 638.208,-79.5 687.208,-79.5 687.208,-58.5 638.208,-58.5"/>
<text text-anchor="middle" x="662.708" y="-66.5" font-family="Helvetica,sans-Serif" font-size="10.00">ctype.h</text>
</g>
<!-- Node26&#45;&gt;Node27 -->
<g id="edge86" class="edge"><title>Node26&#45;&gt;Node27</title>
<path fill="none" stroke="midnightblue" d="M662.708,-116.362C662.708,-108.922 662.708,-98.7427 662.708,-89.7276"/>
<polygon fill="midnightblue" stroke="midnightblue" points="666.208,-89.5706 662.708,-79.5707 659.208,-89.5707 666.208,-89.5706"/>
</g>
<!-- Node28 -->
<g id="node72" class="node"><title>Node28</title>
<polygon fill="white" stroke="#bfbfbf" points="564.708,-58.5 564.708,-79.5 620.708,-79.5 620.708,-58.5 564.708,-58.5"/>
<text text-anchor="middle" x="592.708" y="-66.5" font-family="Helvetica,sans-Serif" font-size="10.00">wctype.h</text>
</g>
<!-- Node26&#45;&gt;Node28 -->
<g id="edge88" class="edge"><title>Node26&#45;&gt;Node28</title>
<path fill="none" stroke="midnightblue" d="M649.869,-116.362C639.705,-107.941 625.307,-96.0105 613.504,-86.2308"/>
<polygon fill="midnightblue" stroke="midnightblue" points="615.399,-83.2558 605.465,-79.5707 610.933,-88.6459 615.399,-83.2558"/>
</g>
<!-- Node31&#45;&gt;Node14 -->
<g id="edge106" class="edge"><title>Node31&#45;&gt;Node14</title>
<path fill="none" stroke="midnightblue" d="M328.401,-580.362C316.857,-571.777 300.407,-559.546 287.117,-549.664"/>
<polygon fill="midnightblue" stroke="midnightblue" points="289.037,-546.729 278.923,-543.571 284.86,-552.346 289.037,-546.729"/>
</g>
<!-- Node32 -->
<g id="node82" class="node"><title>Node32</title>
<a xlink:href="typeset_8h.html" target="_top" xlink:title="typeset.h">
<polygon fill="white" stroke="black" points="314.208,-522.5 314.208,-543.5 371.208,-543.5 371.208,-522.5 314.208,-522.5"/>
<text text-anchor="middle" x="342.708" y="-530.5" font-family="Helvetica,sans-Serif" font-size="10.00">typeset.h</text>
</a>
</g>
<!-- Node31&#45;&gt;Node32 -->
<g id="edge100" class="edge"><title>Node31&#45;&gt;Node32</title>
<path fill="none" stroke="midnightblue" d="M342.708,-580.362C342.708,-572.922 342.708,-562.743 342.708,-553.728"/>
<polygon fill="midnightblue" stroke="midnightblue" points="346.208,-553.571 342.708,-543.571 339.208,-553.571 346.208,-553.571"/>
</g>
<!-- Node32&#45;&gt;Node15 -->
<g id="edge102" class="edge"><title>Node32&#45;&gt;Node15</title>
<path fill="none" stroke="midnightblue" d="M323.816,-522.362C307.99,-513.45 285.185,-500.609 267.313,-490.545"/>
<polygon fill="midnightblue" stroke="midnightblue" points="268.911,-487.428 258.48,-485.571 265.476,-493.527 268.911,-487.428"/>
</g>
<!-- Node32&#45;&gt;Node21 -->
<g id="edge104" class="edge"><title>Node32&#45;&gt;Node21</title>
<path fill="none" stroke="midnightblue" d="M339.039,-522.362C336.418,-514.758 332.809,-504.294 329.651,-495.135"/>
<polygon fill="midnightblue" stroke="midnightblue" points="332.922,-493.883 326.353,-485.571 326.304,-496.165 332.922,-493.883"/>
</g>
<!-- Node33&#45;&gt;Node4 -->
<g id="edge110" class="edge"><title>Node33&#45;&gt;Node4</title>
<path fill="none" stroke="midnightblue" d="M155.031,-116.322C176.986,-98.9174 220.088,-65.6059 237.708,-58 303.19,-29.7328 385.967,-18.351 435.775,-13.8494"/>
<polygon fill="midnightblue" stroke="midnightblue" points="436.217,-17.3245 445.884,-12.9896 435.624,-10.3497 436.217,-17.3245"/>
</g>
<!-- Node33&#45;&gt;Node7 -->
<g id="edge112" class="edge"><title>Node33&#45;&gt;Node7</title>
<path fill="none" stroke="midnightblue" d="M167.966,-116.497C191.123,-107.234 225.083,-93.6499 250.759,-83.3793"/>
<polygon fill="midnightblue" stroke="midnightblue" points="252.17,-86.5849 260.155,-79.6212 249.57,-80.0855 252.17,-86.5849"/>
</g>
<!-- Node33&#45;&gt;Node11 -->
<g id="edge114" class="edge"><title>Node33&#45;&gt;Node11</title>
<path fill="none" stroke="midnightblue" d="M145.376,-116.362C147.998,-108.758 151.606,-98.294 154.765,-89.1349"/>
<polygon fill="midnightblue" stroke="midnightblue" points="158.112,-90.1654 158.063,-79.5707 151.494,-87.8834 158.112,-90.1654"/>
</g>
<!-- Node34&#45;&gt;Node16 -->
<g id="edge120" class="edge"><title>Node34&#45;&gt;Node16</title>
<path fill="none" stroke="midnightblue" d="M471.895,-580.212C466.833,-559.815 456.708,-514.129 456.708,-475 456.708,-475 456.708,-475 456.708,-417 456.708,-371.544 386.891,-251.267 358.501,-204.235"/>
<polygon fill="midnightblue" stroke="midnightblue" points="361.442,-202.336 353.259,-195.606 355.46,-205.97 361.442,-202.336"/>
</g>
<!-- Node34&#45;&gt;Node26 -->
<g id="edge130" class="edge"><title>Node34&#45;&gt;Node26</title>
<path fill="none" stroke="midnightblue" d="M502.874,-589.4C563.457,-584.284 700.708,-562.985 700.708,-475 700.708,-475 700.708,-475 700.708,-243 700.708,-207.741 684.657,-169.315 673.419,-146.732"/>
<polygon fill="midnightblue" stroke="midnightblue" points="676.51,-145.09 668.813,-137.809 670.289,-148.301 676.51,-145.09"/>
</g>
<!-- Node34&#45;&gt;Node32 -->
<g id="edge132" class="edge"><title>Node34&#45;&gt;Node32</title>
<path fill="none" stroke="midnightblue" d="M450.804,-580.497C429.908,-571.315 399.351,-557.889 376.053,-547.652"/>
<polygon fill="midnightblue" stroke="midnightblue" points="377.443,-544.44 366.88,-543.621 374.627,-550.848 377.443,-544.44"/>
</g>
<!-- Node34&#45;&gt;Node33 -->
<g id="edge128" class="edge"><title>Node34&#45;&gt;Node33</title>
<path fill="none" stroke="midnightblue" d="M446.597,-588.409C359.619,-579.626 100.708,-547.401 100.708,-475 100.708,-475 100.708,-475 100.708,-359 100.708,-279.57 124.301,-187.146 135.693,-147.149"/>
<polygon fill="midnightblue" stroke="midnightblue" points="139.061,-148.099 138.491,-137.52 132.339,-146.146 139.061,-148.099"/>
</g>
<!-- Node35 -->
<g id="node96" class="node"><title>Node35</title>
<a xlink:href="keystrs_8h.html" target="_top" xlink:title="keystrs.h">
<polygon fill="white" stroke="black" points="522.208,-348.5 522.208,-369.5 579.208,-369.5 579.208,-348.5 522.208,-348.5"/>
<text text-anchor="middle" x="550.708" y="-356.5" font-family="Helvetica,sans-Serif" font-size="10.00">keystrs.h</text>
</a>
</g>
<!-- Node34&#45;&gt;Node35 -->
<g id="edge122" class="edge"><title>Node34&#45;&gt;Node35</title>
<path fill="none" stroke="midnightblue" d="M478.171,-580.429C489.941,-544.497 528.539,-426.674 544.108,-379.145"/>
<polygon fill="midnightblue" stroke="midnightblue" points="547.437,-380.226 547.224,-369.634 540.785,-378.047 547.437,-380.226"/>
</g>
<!-- Node35&#45;&gt;Node16 -->
<g id="edge124" class="edge"><title>Node35&#45;&gt;Node16</title>
<path fill="none" stroke="midnightblue" d="M538.254,-348.377C504.111,-319.255 408.782,-237.946 366.89,-202.214"/>
<polygon fill="midnightblue" stroke="midnightblue" points="369.138,-199.531 359.258,-195.705 364.595,-204.857 369.138,-199.531"/>
</g>
<!-- Node35&#45;&gt;Node24 -->
<g id="edge126" class="edge"><title>Node35&#45;&gt;Node24</title>
<path fill="none" stroke="midnightblue" d="M559.695,-348.362C566.533,-340.268 576.11,-328.932 584.18,-319.38"/>
<polygon fill="midnightblue" stroke="midnightblue" points="586.997,-321.468 590.777,-311.571 581.65,-316.951 586.997,-321.468"/>
</g>
</g>
</svg>
