<?xml version="1.0" encoding="UTF-8" standalone="no"?>
<!DOCTYPE svg PUBLIC "-//W3C//DTD SVG 1.1//EN"
 "http://www.w3.org/Graphics/SVG/1.1/DTD/svg11.dtd">
<!-- Generated by graphviz version 2.26.0 (20091210.2329)
 -->
<!-- Title: odimage.h Pages: 1 -->
<svg width="865pt" height="668pt"
 viewBox="0.00 0.00 865.38 668.00" xmlns="http://www.w3.org/2000/svg" xmlns:xlink="http://www.w3.org/1999/xlink">
<g id="graph1" class="graph" transform="scale(1 1) rotate(0) translate(4 664)">
<title>odimage.h</title>
<polygon fill="white" stroke="white" points="-4,5 -4,-664 862.377,-664 862.377,5 -4,5"/>
<!-- Node1 -->
<g id="node1" class="node"><title>Node1</title>
<polygon fill="#bfbfbf" stroke="black" points="607.377,-638.5 607.377,-659.5 669.377,-659.5 669.377,-638.5 607.377,-638.5"/>
<text text-anchor="middle" x="638.377" y="-646.5" font-family="Helvetica,sans-Serif" font-size="10.00">odimage.h</text>
</g>
<!-- Node2 -->
<g id="node3" class="node"><title>Node2</title>
<polygon fill="white" stroke="#bfbfbf" points="409.877,-0.5 409.877,-21.5 476.877,-21.5 476.877,-0.5 409.877,-0.5"/>
<text text-anchor="middle" x="443.377" y="-8.5" font-family="Helvetica,sans-Serif" font-size="10.00">basicmod.h</text>
</g>
<!-- Node1&#45;&gt;Node2 -->
<g id="edge2" class="edge"><title>Node1&#45;&gt;Node2</title>
<path fill="none" stroke="midnightblue" d="M669.754,-646.671C730.309,-640.288 857.377,-616.899 857.377,-533 857.377,-533 857.377,-533 857.377,-127 857.377,-86.6509 833.835,-77.2557 798.377,-58 745.525,-29.2988 569.792,-17.1349 487.104,-12.9052"/>
<polygon fill="midnightblue" stroke="midnightblue" points="487.183,-9.40488 477.022,-12.4053 486.836,-16.3963 487.183,-9.40488"/>
</g>
<!-- Node3 -->
<g id="node5" class="node"><title>Node3</title>
<a xlink:href="color_8h.html" target="_top" xlink:title="color.h">
<polygon fill="white" stroke="black" points="657.377,-232.5 657.377,-253.5 703.377,-253.5 703.377,-232.5 657.377,-232.5"/>
<text text-anchor="middle" x="680.377" y="-240.5" font-family="Helvetica,sans-Serif" font-size="10.00">color.h</text>
</a>
</g>
<!-- Node1&#45;&gt;Node3 -->
<g id="edge4" class="edge"><title>Node1&#45;&gt;Node3</title>
<path fill="none" stroke="midnightblue" d="M643.689,-638.43C653.252,-618.397 672.377,-573.293 672.377,-533 672.377,-533 672.377,-533 672.377,-359 672.377,-325.518 675.735,-286.729 678.099,-263.564"/>
<polygon fill="midnightblue" stroke="midnightblue" points="681.588,-263.852 679.162,-253.539 674.627,-263.115 681.588,-263.852"/>
</g>
<!-- Node15 -->
<g id="node35" class="node"><title>Node15</title>
<a xlink:href="ptrman_8h.html" target="_top" xlink:title="ptrman.h">
<polygon fill="white" stroke="black" points="584.877,-232.5 584.877,-253.5 639.877,-253.5 639.877,-232.5 584.877,-232.5"/>
<text text-anchor="middle" x="612.377" y="-240.5" font-family="Helvetica,sans-Serif" font-size="10.00">ptrman.h</text>
</a>
</g>
<!-- Node1&#45;&gt;Node15 -->
<g id="edge40" class="edge"><title>Node1&#45;&gt;Node15</title>
<path fill="none" stroke="midnightblue" d="M635.408,-638.222C630.064,-617.841 619.377,-572.182 619.377,-533 619.377,-533 619.377,-533 619.377,-359 619.377,-325.537 616.438,-286.743 614.369,-263.571"/>
<polygon fill="midnightblue" stroke="midnightblue" points="617.848,-263.178 613.44,-253.543 610.877,-263.824 617.848,-263.178"/>
</g>
<!-- Node19 -->
<g id="node47" class="node"><title>Node19</title>
<a xlink:href="uistring_8h.html" target="_top" xlink:title="uistring.h">
<polygon fill="white" stroke="black" points="122.377,-580.5 122.377,-601.5 178.377,-601.5 178.377,-580.5 122.377,-580.5"/>
<text text-anchor="middle" x="150.377" y="-588.5" font-family="Helvetica,sans-Serif" font-size="10.00">uistring.h</text>
</a>
</g>
<!-- Node1&#45;&gt;Node19 -->
<g id="edge56" class="edge"><title>Node1&#45;&gt;Node19</title>
<path fill="none" stroke="midnightblue" d="M607.108,-645.284C521.324,-635.088 282.464,-606.699 188.78,-595.564"/>
<polygon fill="midnightblue" stroke="midnightblue" points="188.955,-592.061 178.612,-594.356 188.129,-599.012 188.955,-592.061"/>
</g>
<!-- Node3&#45;&gt;Node2 -->
<g id="edge6" class="edge"><title>Node3&#45;&gt;Node2</title>
<path fill="none" stroke="midnightblue" d="M694.215,-232.391C731.738,-202.398 829.344,-115.443 779.377,-58 760.432,-36.2205 573.481,-20.2369 486.933,-13.9436"/>
<polygon fill="midnightblue" stroke="midnightblue" points="487.119,-10.448 476.894,-13.2244 486.618,-17.4301 487.119,-10.448"/>
</g>
<!-- Node4 -->
<g id="node8" class="node"><title>Node4</title>
<a xlink:href="gendefs_8h.html" target="_top" xlink:title="gendefs.h">
<polygon fill="white" stroke="black" points="220.877,-174.5 220.877,-195.5 279.877,-195.5 279.877,-174.5 220.877,-174.5"/>
<text text-anchor="middle" x="250.377" y="-182.5" font-family="Helvetica,sans-Serif" font-size="10.00">gendefs.h</text>
</a>
</g>
<!-- Node3&#45;&gt;Node4 -->
<g id="edge8" class="edge"><title>Node3&#45;&gt;Node4</title>
<path fill="none" stroke="midnightblue" d="M657.125,-234.364C654.206,-233.471 651.24,-232.653 648.377,-232 519.229,-202.534 362.047,-190.9 289.958,-186.873"/>
<polygon fill="midnightblue" stroke="midnightblue" points="290.127,-183.377 279.953,-186.332 289.75,-190.367 290.127,-183.377"/>
</g>
<!-- Node5 -->
<g id="node10" class="node"><title>Node5</title>
<a xlink:href="undefval_8h.html" target="_top" xlink:title="undefval.h">
<polygon fill="white" stroke="black" points="277.377,-116.5 277.377,-137.5 339.377,-137.5 339.377,-116.5 277.377,-116.5"/>
<text text-anchor="middle" x="308.377" y="-124.5" font-family="Helvetica,sans-Serif" font-size="10.00">undefval.h</text>
</a>
</g>
<!-- Node4&#45;&gt;Node5 -->
<g id="edge10" class="edge"><title>Node4&#45;&gt;Node5</title>
<path fill="none" stroke="midnightblue" d="M261.015,-174.362C269.272,-166.104 280.904,-154.472 290.574,-144.803"/>
<polygon fill="midnightblue" stroke="midnightblue" points="293.21,-147.117 297.806,-137.571 288.26,-142.167 293.21,-147.117"/>
</g>
<!-- Node12 -->
<g id="node27" class="node"><title>Node12</title>
<a xlink:href="commontypes_8h.html" target="_top" xlink:title="commontypes.h">
<polygon fill="white" stroke="black" points="85.3766,-116.5 85.3766,-137.5 171.377,-137.5 171.377,-116.5 85.3766,-116.5"/>
<text text-anchor="middle" x="128.377" y="-124.5" font-family="Helvetica,sans-Serif" font-size="10.00">commontypes.h</text>
</a>
</g>
<!-- Node4&#45;&gt;Node12 -->
<g id="edge30" class="edge"><title>Node4&#45;&gt;Node12</title>
<path fill="none" stroke="midnightblue" d="M228.283,-174.497C209.143,-165.397 181.23,-152.127 159.771,-141.925"/>
<polygon fill="midnightblue" stroke="midnightblue" points="161.252,-138.754 150.718,-137.621 158.246,-145.076 161.252,-138.754"/>
</g>
<!-- Node13 -->
<g id="node30" class="node"><title>Node13</title>
<a xlink:href="errmsg_8h.html" target="_top" xlink:title="errmsg.h">
<polygon fill="white" stroke="black" points="12.8766,-116.5 12.8766,-137.5 67.8766,-137.5 67.8766,-116.5 12.8766,-116.5"/>
<text text-anchor="middle" x="40.3766" y="-124.5" font-family="Helvetica,sans-Serif" font-size="10.00">errmsg.h</text>
</a>
</g>
<!-- Node4&#45;&gt;Node13 -->
<g id="edge34" class="edge"><title>Node4&#45;&gt;Node13</title>
<path fill="none" stroke="midnightblue" d="M220.739,-177.31C187.941,-168.732 133.292,-154.234 77.8785,-138.382"/>
<polygon fill="midnightblue" stroke="midnightblue" points="78.8355,-135.015 68.2578,-135.618 76.9025,-141.743 78.8355,-135.015"/>
</g>
<!-- Node5&#45;&gt;Node2 -->
<g id="edge12" class="edge"><title>Node5&#45;&gt;Node2</title>
<path fill="none" stroke="midnightblue" d="M313.114,-116.452C320.135,-101.785 334.527,-75.1103 353.377,-58 368.464,-44.3047 388.276,-33.3946 405.47,-25.5468"/>
<polygon fill="midnightblue" stroke="midnightblue" points="406.949,-28.72 414.706,-21.5037 404.142,-22.3075 406.949,-28.72"/>
</g>
<!-- Node6 -->
<g id="node13" class="node"><title>Node6</title>
<a xlink:href="commondefs_8h.html" target="_top" xlink:title="commondefs.h">
<polygon fill="white" stroke="black" points="106.877,-58.5 106.877,-79.5 187.877,-79.5 187.877,-58.5 106.877,-58.5"/>
<text text-anchor="middle" x="147.377" y="-66.5" font-family="Helvetica,sans-Serif" font-size="10.00">commondefs.h</text>
</a>
</g>
<!-- Node5&#45;&gt;Node6 -->
<g id="edge14" class="edge"><title>Node5&#45;&gt;Node6</title>
<path fill="none" stroke="midnightblue" d="M279.221,-116.497C253.201,-107.123 214.897,-93.3242 186.272,-83.0122"/>
<polygon fill="midnightblue" stroke="midnightblue" points="187.182,-79.6195 176.587,-79.5231 184.809,-86.2052 187.182,-79.6195"/>
</g>
<!-- Node10 -->
<g id="node22" class="node"><title>Node10</title>
<a xlink:href="plftypes_8h.html" target="_top" xlink:title="plftypes.h">
<polygon fill="white" stroke="black" points="242.877,-58.5 242.877,-79.5 301.877,-79.5 301.877,-58.5 242.877,-58.5"/>
<text text-anchor="middle" x="272.377" y="-66.5" font-family="Helvetica,sans-Serif" font-size="10.00">plftypes.h</text>
</a>
</g>
<!-- Node5&#45;&gt;Node10 -->
<g id="edge24" class="edge"><title>Node5&#45;&gt;Node10</title>
<path fill="none" stroke="midnightblue" d="M301.774,-116.362C296.902,-108.513 290.138,-97.6159 284.327,-88.2527"/>
<polygon fill="midnightblue" stroke="midnightblue" points="287.185,-86.2213 278.938,-79.5707 281.238,-89.9129 287.185,-86.2213"/>
</g>
<!-- Node6&#45;&gt;Node2 -->
<g id="edge16" class="edge"><title>Node6&#45;&gt;Node2</title>
<path fill="none" stroke="midnightblue" d="M188.059,-60.6715C192.551,-59.7641 197.06,-58.8588 201.377,-58 270.741,-44.1997 351.389,-28.6323 399.852,-19.3292"/>
<polygon fill="midnightblue" stroke="midnightblue" points="400.528,-22.7634 409.689,-17.442 399.209,-15.8888 400.528,-22.7634"/>
</g>
<!-- Node7 -->
<g id="node16" class="node"><title>Node7</title>
<a xlink:href="plfdefs_8h.html" target="_top" xlink:title="plfdefs.h">
<polygon fill="white" stroke="black" points="179.377,-0.5 179.377,-21.5 233.377,-21.5 233.377,-0.5 179.377,-0.5"/>
<text text-anchor="middle" x="206.377" y="-8.5" font-family="Helvetica,sans-Serif" font-size="10.00">plfdefs.h</text>
</a>
</g>
<!-- Node6&#45;&gt;Node7 -->
<g id="edge18" class="edge"><title>Node6&#45;&gt;Node7</title>
<path fill="none" stroke="midnightblue" d="M158.198,-58.3619C166.598,-50.1043 178.43,-38.4725 188.267,-28.8029"/>
<polygon fill="midnightblue" stroke="midnightblue" points="190.946,-31.077 195.624,-21.5707 186.039,-26.0851 190.946,-31.077"/>
</g>
<!-- Node8 -->
<g id="node18" class="node"><title>Node8</title>
<polygon fill="white" stroke="#bfbfbf" points="4.87656,-0.5 4.87656,-21.5 63.8766,-21.5 63.8766,-0.5 4.87656,-0.5"/>
<text text-anchor="middle" x="34.3766" y="-8.5" font-family="Helvetica,sans-Serif" font-size="10.00">stdexcept</text>
</g>
<!-- Node6&#45;&gt;Node8 -->
<g id="edge20" class="edge"><title>Node6&#45;&gt;Node8</title>
<path fill="none" stroke="midnightblue" d="M126.913,-58.4966C109.343,-49.4786 83.7945,-36.3649 63.9914,-26.2006"/>
<polygon fill="midnightblue" stroke="midnightblue" points="65.5644,-23.0738 55.0696,-21.6212 62.3679,-29.3014 65.5644,-23.0738"/>
</g>
<!-- Node9 -->
<g id="node20" class="node"><title>Node9</title>
<polygon fill="white" stroke="#bfbfbf" points="126.877,-0.5 126.877,-21.5 161.877,-21.5 161.877,-0.5 126.877,-0.5"/>
<text text-anchor="middle" x="144.377" y="-8.5" font-family="Helvetica,sans-Serif" font-size="10.00">new</text>
</g>
<!-- Node6&#45;&gt;Node9 -->
<g id="edge22" class="edge"><title>Node6&#45;&gt;Node9</title>
<path fill="none" stroke="midnightblue" d="M146.826,-58.3619C146.441,-50.9219 145.915,-40.7427 145.449,-31.7276"/>
<polygon fill="midnightblue" stroke="midnightblue" points="148.935,-31.3765 144.923,-21.5707 141.945,-31.7381 148.935,-31.3765"/>
</g>
<!-- Node10&#45;&gt;Node7 -->
<g id="edge26" class="edge"><title>Node10&#45;&gt;Node7</title>
<path fill="none" stroke="midnightblue" d="M260.271,-58.3619C250.689,-49.9408 237.113,-38.0105 225.984,-28.2308"/>
<polygon fill="midnightblue" stroke="midnightblue" points="228.227,-25.5427 218.405,-21.5707 223.606,-30.8009 228.227,-25.5427"/>
</g>
<!-- Node11 -->
<g id="node25" class="node"><title>Node11</title>
<polygon fill="white" stroke="#bfbfbf" points="250.877,-0.5 250.877,-21.5 299.877,-21.5 299.877,-0.5 250.877,-0.5"/>
<text text-anchor="middle" x="275.377" y="-8.5" font-family="Helvetica,sans-Serif" font-size="10.00">stdint.h</text>
</g>
<!-- Node10&#45;&gt;Node11 -->
<g id="edge28" class="edge"><title>Node10&#45;&gt;Node11</title>
<path fill="none" stroke="midnightblue" d="M272.927,-58.3619C273.312,-50.9219 273.838,-40.7427 274.304,-31.7276"/>
<polygon fill="midnightblue" stroke="midnightblue" points="277.808,-31.7381 274.83,-21.5707 270.818,-31.3765 277.808,-31.7381"/>
</g>
<!-- Node12&#45;&gt;Node6 -->
<g id="edge32" class="edge"><title>Node12&#45;&gt;Node6</title>
<path fill="none" stroke="midnightblue" d="M131.861,-116.362C134.352,-108.758 137.78,-98.294 140.781,-89.1349"/>
<polygon fill="midnightblue" stroke="midnightblue" points="144.127,-90.1634 143.914,-79.5707 137.475,-87.9841 144.127,-90.1634"/>
</g>
<!-- Node13&#45;&gt;Node6 -->
<g id="edge36" class="edge"><title>Node13&#45;&gt;Node6</title>
<path fill="none" stroke="midnightblue" d="M60.002,-116.362C76.5179,-107.409 100.351,-94.4908 118.954,-84.4064"/>
<polygon fill="midnightblue" stroke="midnightblue" points="120.752,-87.4132 127.876,-79.5707 117.416,-81.2592 120.752,-87.4132"/>
</g>
<!-- Node14 -->
<g id="node33" class="node"><title>Node14</title>
<polygon fill="white" stroke="#bfbfbf" points="14.8766,-58.5 14.8766,-79.5 65.8766,-79.5 65.8766,-58.5 14.8766,-58.5"/>
<text text-anchor="middle" x="40.3766" y="-66.5" font-family="Helvetica,sans-Serif" font-size="10.00">typeinfo</text>
</g>
<!-- Node13&#45;&gt;Node14 -->
<g id="edge38" class="edge"><title>Node13&#45;&gt;Node14</title>
<path fill="none" stroke="midnightblue" d="M40.3766,-116.362C40.3766,-108.922 40.3766,-98.7427 40.3766,-89.7276"/>
<polygon fill="midnightblue" stroke="midnightblue" points="43.8767,-89.5706 40.3766,-79.5707 36.8767,-89.5707 43.8767,-89.5706"/>
</g>
<!-- Node15&#45;&gt;Node4 -->
<g id="edge42" class="edge"><title>Node15&#45;&gt;Node4</title>
<path fill="none" stroke="midnightblue" d="M584.871,-238.593C521.415,-228.426 364.561,-203.295 290.422,-191.416"/>
<polygon fill="midnightblue" stroke="midnightblue" points="290.533,-187.889 280.105,-189.763 289.425,-194.801 290.533,-187.889"/>
</g>
<!-- Node16 -->
<g id="node38" class="node"><title>Node16</title>
<a xlink:href="atomic_8h.html" target="_top" xlink:title="atomic.h">
<polygon fill="white" stroke="black" points="583.377,-116.5 583.377,-137.5 637.377,-137.5 637.377,-116.5 583.377,-116.5"/>
<text text-anchor="middle" x="610.377" y="-124.5" font-family="Helvetica,sans-Serif" font-size="10.00">atomic.h</text>
</a>
</g>
<!-- Node15&#45;&gt;Node16 -->
<g id="edge44" class="edge"><title>Node15&#45;&gt;Node16</title>
<path fill="none" stroke="midnightblue" d="M612.192,-232.295C611.862,-213.131 611.164,-172.654 610.736,-147.843"/>
<polygon fill="midnightblue" stroke="midnightblue" points="614.233,-147.617 610.561,-137.679 607.234,-147.738 614.233,-147.617"/>
</g>
<!-- Node18 -->
<g id="node45" class="node"><title>Node18</title>
<polygon fill="white" stroke="#bfbfbf" points="638.377,-174.5 638.377,-195.5 686.377,-195.5 686.377,-174.5 638.377,-174.5"/>
<text text-anchor="middle" x="662.377" y="-182.5" font-family="Helvetica,sans-Serif" font-size="10.00">stdlib.h</text>
</g>
<!-- Node15&#45;&gt;Node18 -->
<g id="edge54" class="edge"><title>Node15&#45;&gt;Node18</title>
<path fill="none" stroke="midnightblue" d="M621.547,-232.362C628.525,-224.268 638.297,-212.932 646.532,-203.38"/>
<polygon fill="midnightblue" stroke="midnightblue" points="649.385,-205.43 653.264,-195.571 644.084,-200.859 649.385,-205.43"/>
</g>
<!-- Node16&#45;&gt;Node2 -->
<g id="edge46" class="edge"><title>Node16&#45;&gt;Node2</title>
<path fill="none" stroke="midnightblue" d="M637.629,-124.491C690.678,-118.599 799.499,-100.993 762.377,-58 744.615,-37.4297 570.238,-21.0222 487.074,-14.2988"/>
<polygon fill="midnightblue" stroke="midnightblue" points="487.17,-10.7954 476.923,-13.4897 486.613,-17.7733 487.17,-10.7954"/>
</g>
<!-- Node16&#45;&gt;Node6 -->
<g id="edge48" class="edge"><title>Node16&#45;&gt;Node6</title>
<path fill="none" stroke="midnightblue" d="M583.119,-118.488C579.53,-117.551 575.881,-116.688 572.377,-116 424.137,-86.8844 384.434,-97.4759 234.377,-80 222.68,-78.6379 210.11,-77.0947 198.262,-75.6043"/>
<polygon fill="midnightblue" stroke="midnightblue" points="198.437,-72.0985 188.076,-74.314 197.557,-79.043 198.437,-72.0985"/>
</g>
<!-- Node16&#45;&gt;Node10 -->
<g id="edge50" class="edge"><title>Node16&#45;&gt;Node10</title>
<path fill="none" stroke="midnightblue" d="M583.085,-118.653C579.501,-117.688 575.863,-116.774 572.377,-116 480.082,-95.4979 369.873,-80.6554 312.143,-73.6044"/>
<polygon fill="midnightblue" stroke="midnightblue" points="312.338,-70.1026 301.99,-72.3789 311.499,-77.0522 312.338,-70.1026"/>
</g>
<!-- Node17 -->
<g id="node43" class="node"><title>Node17</title>
<polygon fill="white" stroke="#bfbfbf" points="686.877,-58.5 686.877,-79.5 753.877,-79.5 753.877,-58.5 686.877,-58.5"/>
<text text-anchor="middle" x="720.377" y="-66.5" font-family="Helvetica,sans-Serif" font-size="10.00">odversion.h</text>
</g>
<!-- Node16&#45;&gt;Node17 -->
<g id="edge52" class="edge"><title>Node16&#45;&gt;Node17</title>
<path fill="none" stroke="midnightblue" d="M630.297,-116.497C647.323,-107.519 672.046,-94.4835 691.286,-84.3387"/>
<polygon fill="midnightblue" stroke="midnightblue" points="693.02,-87.3814 700.233,-79.6212 689.755,-81.1894 693.02,-87.3814"/>
</g>
<!-- Node19&#45;&gt;Node4 -->
<g id="edge58" class="edge"><title>Node19&#45;&gt;Node4</title>
<path fill="none" stroke="midnightblue" d="M135.359,-580.395C111.198,-561.96 66.3766,-521.497 66.3766,-475 66.3766,-475 66.3766,-475 66.3766,-301 66.3766,-233.24 156.774,-203.479 210.846,-191.739"/>
<polygon fill="midnightblue" stroke="midnightblue" points="211.724,-195.131 220.814,-189.688 210.314,-188.275 211.724,-195.131"/>
</g>
<!-- Node20 -->
<g id="node50" class="node"><title>Node20</title>
<a xlink:href="keystrs_8h.html" target="_top" xlink:title="keystrs.h">
<polygon fill="white" stroke="black" points="93.8766,-348.5 93.8766,-369.5 150.877,-369.5 150.877,-348.5 93.8766,-348.5"/>
<text text-anchor="middle" x="122.377" y="-356.5" font-family="Helvetica,sans-Serif" font-size="10.00">keystrs.h</text>
</a>
</g>
<!-- Node19&#45;&gt;Node20 -->
<g id="edge60" class="edge"><title>Node19&#45;&gt;Node20</title>
<path fill="none" stroke="midnightblue" d="M148.036,-580.218C146.04,-570.721 143.211,-556.494 141.377,-544 132.697,-484.878 126.636,-414.547 123.945,-380.116"/>
<polygon fill="midnightblue" stroke="midnightblue" points="127.415,-379.588 123.162,-369.884 120.435,-380.122 127.415,-379.588"/>
</g>
<!-- Node23 -->
<g id="node60" class="node"><title>Node23</title>
<a xlink:href="threadlock_8h.html" target="_top" xlink:title="threadlock.h">
<polygon fill="white" stroke="black" points="189.377,-116.5 189.377,-137.5 259.377,-137.5 259.377,-116.5 189.377,-116.5"/>
<text text-anchor="middle" x="224.377" y="-124.5" font-family="Helvetica,sans-Serif" font-size="10.00">threadlock.h</text>
</a>
</g>
<!-- Node19&#45;&gt;Node23 -->
<g id="edge74" class="edge"><title>Node19&#45;&gt;Node23</title>
<path fill="none" stroke="midnightblue" d="M124.801,-580.448C89.027,-563.784 28.3766,-527.754 28.3766,-475 28.3766,-475 28.3766,-475 28.3766,-243 28.3766,-206.837 128.443,-163.129 185.576,-141.122"/>
<polygon fill="midnightblue" stroke="midnightblue" points="186.93,-144.351 195.033,-137.526 184.442,-137.809 186.93,-144.351"/>
</g>
<!-- Node24 -->
<g id="node65" class="node"><title>Node24</title>
<a xlink:href="string2_8h.html" target="_top" xlink:title="string2.h">
<polygon fill="white" stroke="black" points="509.377,-116.5 509.377,-137.5 563.377,-137.5 563.377,-116.5 509.377,-116.5"/>
<text text-anchor="middle" x="536.377" y="-124.5" font-family="Helvetica,sans-Serif" font-size="10.00">string2.h</text>
</a>
</g>
<!-- Node19&#45;&gt;Node24 -->
<g id="edge82" class="edge"><title>Node19&#45;&gt;Node24</title>
<path fill="none" stroke="midnightblue" d="M178.673,-589.08C270.971,-582.053 557.377,-553.892 557.377,-475 557.377,-475 557.377,-475 557.377,-243 557.377,-209.077 548.573,-170.454 542.366,-147.438"/>
<polygon fill="midnightblue" stroke="midnightblue" points="545.723,-146.444 539.658,-137.757 538.982,-148.33 545.723,-146.444"/>
</g>
<!-- Node27 -->
<g id="node74" class="node"><title>Node27</title>
<a xlink:href="typeset_8h.html" target="_top" xlink:title="typeset.h">
<polygon fill="white" stroke="black" points="149.877,-522.5 149.877,-543.5 206.877,-543.5 206.877,-522.5 149.877,-522.5"/>
<text text-anchor="middle" x="178.377" y="-530.5" font-family="Helvetica,sans-Serif" font-size="10.00">typeset.h</text>
</a>
</g>
<!-- Node19&#45;&gt;Node27 -->
<g id="edge94" class="edge"><title>Node19&#45;&gt;Node27</title>
<path fill="none" stroke="midnightblue" d="M155.512,-580.362C159.222,-572.677 164.343,-562.069 168.799,-552.84"/>
<polygon fill="midnightblue" stroke="midnightblue" points="172.078,-554.098 173.273,-543.571 165.774,-551.055 172.078,-554.098"/>
</g>
<!-- Node20&#45;&gt;Node4 -->
<g id="edge62" class="edge"><title>Node20&#45;&gt;Node4</title>
<path fill="none" stroke="midnightblue" d="M120.725,-348.058C119.11,-333.866 118.079,-308.716 127.377,-290 147.553,-249.386 191.233,-218.224 220.727,-200.753"/>
<polygon fill="midnightblue" stroke="midnightblue" points="222.828,-203.583 229.756,-195.568 219.341,-197.513 222.828,-203.583"/>
</g>
<!-- Node21 -->
<g id="node53" class="node"><title>Node21</title>
<a xlink:href="fixedstring_8h.html" target="_top" xlink:title="fixedstring.h">
<polygon fill="white" stroke="black" points="333.377,-290.5 333.377,-311.5 403.377,-311.5 403.377,-290.5 333.377,-290.5"/>
<text text-anchor="middle" x="368.377" y="-298.5" font-family="Helvetica,sans-Serif" font-size="10.00">fixedstring.h</text>
</a>
</g>
<!-- Node20&#45;&gt;Node21 -->
<g id="edge64" class="edge"><title>Node20&#45;&gt;Node21</title>
<path fill="none" stroke="midnightblue" d="M151.077,-352.233C193.408,-342.253 272.979,-323.492 323.192,-311.653"/>
<polygon fill="midnightblue" stroke="midnightblue" points="324.2,-315.012 333.13,-309.31 322.593,-308.199 324.2,-315.012"/>
</g>
<!-- Node21&#45;&gt;Node2 -->
<g id="edge66" class="edge"><title>Node21&#45;&gt;Node2</title>
<path fill="none" stroke="midnightblue" d="M374.158,-290.485C384.564,-270.543 405.377,-225.586 405.377,-185 405.377,-185 405.377,-185 405.377,-127 405.377,-91.7411 421.427,-53.3154 432.666,-30.7323"/>
<polygon fill="midnightblue" stroke="midnightblue" points="435.795,-32.3005 437.271,-21.809 429.575,-29.0901 435.795,-32.3005"/>
</g>
<!-- Node22 -->
<g id="node56" class="node"><title>Node22</title>
<a xlink:href="odstring_8h.html" target="_top" xlink:title="odstring.h">
<polygon fill="white" stroke="black" points="318.877,-232.5 318.877,-253.5 377.877,-253.5 377.877,-232.5 318.877,-232.5"/>
<text text-anchor="middle" x="348.377" y="-240.5" font-family="Helvetica,sans-Serif" font-size="10.00">odstring.h</text>
</a>
</g>
<!-- Node21&#45;&gt;Node22 -->
<g id="edge68" class="edge"><title>Node21&#45;&gt;Node22</title>
<path fill="none" stroke="midnightblue" d="M364.708,-290.362C362.086,-282.758 358.478,-272.294 355.32,-263.135"/>
<polygon fill="midnightblue" stroke="midnightblue" points="358.59,-261.883 352.022,-253.571 351.973,-264.165 358.59,-261.883"/>
</g>
<!-- Node22&#45;&gt;Node2 -->
<g id="edge70" class="edge"><title>Node22&#45;&gt;Node2</title>
<path fill="none" stroke="midnightblue" d="M348.675,-232.161C349.941,-202.293 356.579,-117.103 391.377,-58 398.226,-46.3667 408.904,-35.9898 418.806,-27.9649"/>
<polygon fill="midnightblue" stroke="midnightblue" points="421.037,-30.6651 426.841,-21.8013 416.776,-25.1111 421.037,-30.6651"/>
</g>
<!-- Node22&#45;&gt;Node4 -->
<g id="edge72" class="edge"><title>Node22&#45;&gt;Node4</title>
<path fill="none" stroke="midnightblue" d="M330.402,-232.362C315.482,-223.532 294.044,-210.844 277.111,-200.822"/>
<polygon fill="midnightblue" stroke="midnightblue" points="278.626,-197.652 268.237,-195.571 275.06,-203.676 278.626,-197.652"/>
</g>
<!-- Node23&#45;&gt;Node2 -->
<g id="edge76" class="edge"><title>Node23&#45;&gt;Node2</title>
<path fill="none" stroke="midnightblue" d="M222.552,-116.344C220.634,-101.3 219.659,-73.9011 234.377,-58 256.329,-34.2816 344.804,-21.1054 399.359,-15.0893"/>
<polygon fill="midnightblue" stroke="midnightblue" points="399.884,-18.5532 409.458,-14.0144 399.143,-11.5925 399.884,-18.5532"/>
</g>
<!-- Node23&#45;&gt;Node6 -->
<g id="edge78" class="edge"><title>Node23&#45;&gt;Node6</title>
<path fill="none" stroke="midnightblue" d="M210.254,-116.362C198.857,-107.777 182.618,-95.5459 169.499,-85.6636"/>
<polygon fill="midnightblue" stroke="midnightblue" points="171.503,-82.7916 161.41,-79.5707 167.292,-88.3829 171.503,-82.7916"/>
</g>
<!-- Node23&#45;&gt;Node10 -->
<g id="edge80" class="edge"><title>Node23&#45;&gt;Node10</title>
<path fill="none" stroke="midnightblue" d="M233.18,-116.362C239.879,-108.268 249.261,-96.9318 257.166,-87.3796"/>
<polygon fill="midnightblue" stroke="midnightblue" points="259.949,-89.5061 263.628,-79.5707 254.556,-85.0431 259.949,-89.5061"/>
</g>
<!-- Node24&#45;&gt;Node2 -->
<g id="edge84" class="edge"><title>Node24&#45;&gt;Node2</title>
<path fill="none" stroke="midnightblue" d="M563.604,-118.442C591.362,-109.1 631.566,-93.6507 640.377,-80 645.679,-71.7849 646.435,-65.6744 640.377,-58 621.636,-34.262 539.121,-21.2035 487.007,-15.1909"/>
<polygon fill="midnightblue" stroke="midnightblue" points="487.343,-11.7067 477.018,-14.0812 486.57,-18.6639 487.343,-11.7067"/>
</g>
<!-- Node24&#45;&gt;Node6 -->
<g id="edge88" class="edge"><title>Node24&#45;&gt;Node6</title>
<path fill="none" stroke="midnightblue" d="M509.332,-122.968C444.909,-113.362 281.544,-89.0044 198.107,-76.5639"/>
<polygon fill="midnightblue" stroke="midnightblue" points="198.503,-73.0844 188.096,-75.0713 197.471,-80.0079 198.503,-73.0844"/>
</g>
<!-- Node24&#45;&gt;Node10 -->
<g id="edge86" class="edge"><title>Node24&#45;&gt;Node10</title>
<path fill="none" stroke="midnightblue" d="M509.118,-121.011C462.211,-110.706 366.055,-89.5809 311.831,-77.6681"/>
<polygon fill="midnightblue" stroke="midnightblue" points="312.412,-74.2123 301.894,-75.4849 310.91,-81.0493 312.412,-74.2123"/>
</g>
<!-- Node25 -->
<g id="node70" class="node"><title>Node25</title>
<polygon fill="white" stroke="#bfbfbf" points="508.877,-58.5 508.877,-79.5 557.877,-79.5 557.877,-58.5 508.877,-58.5"/>
<text text-anchor="middle" x="533.377" y="-66.5" font-family="Helvetica,sans-Serif" font-size="10.00">ctype.h</text>
</g>
<!-- Node24&#45;&gt;Node25 -->
<g id="edge90" class="edge"><title>Node24&#45;&gt;Node25</title>
<path fill="none" stroke="midnightblue" d="M535.826,-116.362C535.441,-108.922 534.915,-98.7427 534.449,-89.7276"/>
<polygon fill="midnightblue" stroke="midnightblue" points="537.935,-89.3765 533.923,-79.5707 530.945,-89.7381 537.935,-89.3765"/>
</g>
<!-- Node26 -->
<g id="node72" class="node"><title>Node26</title>
<polygon fill="white" stroke="#bfbfbf" points="575.377,-58.5 575.377,-79.5 631.377,-79.5 631.377,-58.5 575.377,-58.5"/>
<text text-anchor="middle" x="603.377" y="-66.5" font-family="Helvetica,sans-Serif" font-size="10.00">wctype.h</text>
</g>
<!-- Node24&#45;&gt;Node26 -->
<g id="edge92" class="edge"><title>Node24&#45;&gt;Node26</title>
<path fill="none" stroke="midnightblue" d="M548.665,-116.362C558.393,-107.941 572.175,-96.0105 583.472,-86.2308"/>
<polygon fill="midnightblue" stroke="midnightblue" points="585.896,-88.7619 591.166,-79.5707 581.314,-83.4695 585.896,-88.7619"/>
</g>
<!-- Node28 -->
<g id="node76" class="node"><title>Node28</title>
<a xlink:href="odset_8h.html" target="_top" xlink:title="odset.h">
<polygon fill="white" stroke="black" points="135.877,-290.5 135.877,-311.5 184.877,-311.5 184.877,-290.5 135.877,-290.5"/>
<text text-anchor="middle" x="160.377" y="-298.5" font-family="Helvetica,sans-Serif" font-size="10.00">odset.h</text>
</a>
</g>
<!-- Node27&#45;&gt;Node28 -->
<g id="edge96" class="edge"><title>Node27&#45;&gt;Node28</title>
<path fill="none" stroke="midnightblue" d="M177.556,-522.429C174.78,-486.648 165.704,-369.663 161.986,-321.748"/>
<polygon fill="midnightblue" stroke="midnightblue" points="165.465,-321.333 161.202,-311.634 158.486,-321.874 165.465,-321.333"/>
</g>
<!-- Node29 -->
<g id="node79" class="node"><title>Node29</title>
<a xlink:href="vectoraccess_8h.html" target="_top" xlink:title="vectoraccess.h">
<polygon fill="white" stroke="black" points="240.877,-464.5 240.877,-485.5 323.877,-485.5 323.877,-464.5 240.877,-464.5"/>
<text text-anchor="middle" x="282.377" y="-472.5" font-family="Helvetica,sans-Serif" font-size="10.00">vectoraccess.h</text>
</a>
</g>
<!-- Node27&#45;&gt;Node29 -->
<g id="edge100" class="edge"><title>Node27&#45;&gt;Node29</title>
<path fill="none" stroke="midnightblue" d="M197.452,-522.362C213.431,-513.45 236.458,-500.609 254.503,-490.545"/>
<polygon fill="midnightblue" stroke="midnightblue" points="256.393,-493.498 263.422,-485.571 252.984,-487.385 256.393,-493.498"/>
</g>
<!-- Node28&#45;&gt;Node4 -->
<g id="edge98" class="edge"><title>Node28&#45;&gt;Node4</title>
<path fill="none" stroke="midnightblue" d="M168.682,-290.295C183.952,-270.613 216.665,-228.45 235.739,-203.867"/>
<polygon fill="midnightblue" stroke="midnightblue" points="238.726,-205.726 242.091,-195.679 233.196,-201.435 238.726,-205.726"/>
</g>
<!-- Node29&#45;&gt;Node4 -->
<g id="edge116" class="edge"><title>Node29&#45;&gt;Node4</title>
<path fill="none" stroke="midnightblue" d="M280.011,-464.222C277.999,-454.727 275.161,-440.501 273.377,-428 261.693,-346.149 254.459,-247.911 251.678,-205.81"/>
<polygon fill="midnightblue" stroke="midnightblue" points="255.163,-205.455 251.026,-195.701 248.177,-205.906 255.163,-205.455"/>
</g>
<!-- Node29&#45;&gt;Node8 -->
<g id="edge122" class="edge"><title>Node29&#45;&gt;Node8</title>
<path fill="none" stroke="midnightblue" d="M279.162,-464.482C269.702,-434.729 239.689,-348.344 193.377,-290 126.358,-205.571 50.947,-235.216 4.37656,-138 -0.355933,-128.121 -3.1038,-90.254 6.37656,-58 9.25669,-48.2012 14.6575,-38.3417 19.9532,-30.2014"/>
<polygon fill="midnightblue" stroke="midnightblue" points="22.9307,-32.0496 25.7477,-21.8361 17.1763,-28.0637 22.9307,-32.0496"/>
</g>
<!-- Node30 -->
<g id="node81" class="node"><title>Node30</title>
<a xlink:href="debug_8h.html" target="_top" xlink:title="debug.h">
<polygon fill="white" stroke="black" points="417.877,-406.5 417.877,-427.5 468.877,-427.5 468.877,-406.5 417.877,-406.5"/>
<text text-anchor="middle" x="443.377" y="-414.5" font-family="Helvetica,sans-Serif" font-size="10.00">debug.h</text>
</a>
</g>
<!-- Node29&#45;&gt;Node30 -->
<g id="edge102" class="edge"><title>Node29&#45;&gt;Node30</title>
<path fill="none" stroke="midnightblue" d="M311.532,-464.497C338.606,-454.743 378.978,-440.199 407.909,-429.777"/>
<polygon fill="midnightblue" stroke="midnightblue" points="409.403,-432.959 417.625,-426.277 407.031,-426.373 409.403,-432.959"/>
</g>
<!-- Node32 -->
<g id="node91" class="node"><title>Node32</title>
<polygon fill="white" stroke="#bfbfbf" points="282.377,-406.5 282.377,-427.5 338.377,-427.5 338.377,-406.5 282.377,-406.5"/>
<text text-anchor="middle" x="310.377" y="-414.5" font-family="Helvetica,sans-Serif" font-size="10.00">algorithm</text>
</g>
<!-- Node29&#45;&gt;Node32 -->
<g id="edge118" class="edge"><title>Node29&#45;&gt;Node32</title>
<path fill="none" stroke="midnightblue" d="M287.512,-464.362C291.222,-456.677 296.343,-446.069 300.799,-436.84"/>
<polygon fill="midnightblue" stroke="midnightblue" points="304.078,-438.098 305.273,-427.571 297.774,-435.055 304.078,-438.098"/>
</g>
<!-- Node33 -->
<g id="node93" class="node"><title>Node33</title>
<polygon fill="white" stroke="#bfbfbf" points="356.377,-406.5 356.377,-427.5 400.377,-427.5 400.377,-406.5 356.377,-406.5"/>
<text text-anchor="middle" x="378.377" y="-414.5" font-family="Helvetica,sans-Serif" font-size="10.00">vector</text>
</g>
<!-- Node29&#45;&gt;Node33 -->
<g id="edge120" class="edge"><title>Node29&#45;&gt;Node33</title>
<path fill="none" stroke="midnightblue" d="M299.984,-464.362C314.599,-455.532 335.6,-442.844 352.188,-432.822"/>
<polygon fill="midnightblue" stroke="midnightblue" points="354.131,-435.738 360.88,-427.571 350.511,-429.746 354.131,-435.738"/>
</g>
<!-- Node30&#45;&gt;Node2 -->
<g id="edge104" class="edge"><title>Node30&#45;&gt;Node2</title>
<path fill="none" stroke="midnightblue" d="M456.615,-406.375C478.389,-387.606 519.377,-346.263 519.377,-301 519.377,-301 519.377,-301 519.377,-243 519.377,-199.96 471.542,-79.1896 451.772,-31.1134"/>
<polygon fill="midnightblue" stroke="midnightblue" points="454.961,-29.6661 447.903,-21.7641 448.493,-32.3425 454.961,-29.6661"/>
</g>
<!-- Node30&#45;&gt;Node4 -->
<g id="edge106" class="edge"><title>Node30&#45;&gt;Node4</title>
<path fill="none" stroke="midnightblue" d="M428.46,-406.339C404.469,-388.681 356.731,-351.386 324.377,-312 296.063,-277.533 271.914,-230.925 259.443,-204.824"/>
<polygon fill="midnightblue" stroke="midnightblue" points="262.528,-203.158 255.112,-195.591 256.19,-206.131 262.528,-203.158"/>
</g>
<!-- Node31 -->
<g id="node85" class="node"><title>Node31</title>
<a xlink:href="bufstring_8h.html" target="_top" xlink:title="bufstring.h">
<polygon fill="white" stroke="black" points="412.377,-348.5 412.377,-369.5 474.377,-369.5 474.377,-348.5 412.377,-348.5"/>
<text text-anchor="middle" x="443.377" y="-356.5" font-family="Helvetica,sans-Serif" font-size="10.00">bufstring.h</text>
</a>
</g>
<!-- Node30&#45;&gt;Node31 -->
<g id="edge108" class="edge"><title>Node30&#45;&gt;Node31</title>
<path fill="none" stroke="midnightblue" d="M443.377,-406.362C443.377,-398.922 443.377,-388.743 443.377,-379.728"/>
<polygon fill="midnightblue" stroke="midnightblue" points="446.877,-379.571 443.377,-369.571 439.877,-379.571 446.877,-379.571"/>
</g>
<!-- Node31&#45;&gt;Node2 -->
<g id="edge110" class="edge"><title>Node31&#45;&gt;Node2</title>
<path fill="none" stroke="midnightblue" d="M443.377,-348.444C443.377,-328.062 443.377,-281.868 443.377,-243 443.377,-243 443.377,-243 443.377,-127 443.377,-93.5978 443.377,-54.7853 443.377,-31.5939"/>
<polygon fill="midnightblue" stroke="midnightblue" points="446.877,-31.5561 443.377,-21.5561 439.877,-31.5561 446.877,-31.5561"/>
</g>
<!-- Node31&#45;&gt;Node21 -->
<g id="edge112" class="edge"><title>Node31&#45;&gt;Node21</title>
<path fill="none" stroke="midnightblue" d="M429.62,-348.362C418.625,-339.859 403.004,-327.779 390.29,-317.947"/>
<polygon fill="midnightblue" stroke="midnightblue" points="392.097,-314.919 382.046,-311.571 387.815,-320.457 392.097,-314.919"/>
</g>
<!-- Node31&#45;&gt;Node24 -->
<g id="edge114" class="edge"><title>Node31&#45;&gt;Node24</title>
<path fill="none" stroke="midnightblue" d="M447.614,-348.429C462.018,-312.497 509.249,-194.674 528.301,-147.145"/>
<polygon fill="midnightblue" stroke="midnightblue" points="531.642,-148.218 532.114,-137.634 525.144,-145.613 531.642,-148.218"/>
</g>
</g>
</svg>
