<?xml version="1.0" encoding="UTF-8" standalone="no"?>
<!DOCTYPE svg PUBLIC "-//W3C//DTD SVG 1.1//EN"
 "http://www.w3.org/Graphics/SVG/1.1/DTD/svg11.dtd">
<!-- Generated by graphviz version 2.26.0 (20091210.2329)
 -->
<!-- Title: odmemory.h Pages: 1 -->
<svg width="978pt" height="900pt"
 viewBox="0.00 0.00 978.00 900.00" xmlns="http://www.w3.org/2000/svg" xmlns:xlink="http://www.w3.org/1999/xlink">
<g id="graph1" class="graph" transform="scale(1 1) rotate(0) translate(4 896)">
<title>odmemory.h</title>
<polygon fill="white" stroke="white" points="-4,5 -4,-896 975,-896 975,5 -4,5"/>
<!-- Node1 -->
<g id="node1" class="node"><title>Node1</title>
<polygon fill="#bfbfbf" stroke="black" points="871.5,-870.5 871.5,-891.5 942.5,-891.5 942.5,-870.5 871.5,-870.5"/>
<text text-anchor="middle" x="907" y="-878.5" font-family="Helvetica,sans-Serif" font-size="10.00">odmemory.h</text>
</g>
<!-- Node2 -->
<g id="node3" class="node"><title>Node2</title>
<a xlink:href="commondefs_8h.html" target="_top" xlink:title="commondefs.h">
<polygon fill="white" stroke="black" points="745.5,-58.5 745.5,-79.5 826.5,-79.5 826.5,-58.5 745.5,-58.5"/>
<text text-anchor="middle" x="786" y="-66.5" font-family="Helvetica,sans-Serif" font-size="10.00">commondefs.h</text>
</a>
</g>
<!-- Node1&#45;&gt;Node2 -->
<g id="edge2" class="edge"><title>Node1&#45;&gt;Node2</title>
<path fill="none" stroke="midnightblue" d="M917.687,-870.223C935.661,-850.899 970,-808.314 970,-765 970,-765 970,-765 970,-301 970,-200.614 862.939,-118.385 812.147,-85.0234"/>
<polygon fill="midnightblue" stroke="midnightblue" points="813.946,-82.0186 803.643,-79.5493 810.157,-87.9047 813.946,-82.0186"/>
</g>
<!-- Node7 -->
<g id="node13" class="node"><title>Node7</title>
<a xlink:href="paralleltask_8h.html" target="_top" xlink:title="paralleltask.h">
<polygon fill="white" stroke="black" points="152,-812.5 152,-833.5 226,-833.5 226,-812.5 152,-812.5"/>
<text text-anchor="middle" x="189" y="-820.5" font-family="Helvetica,sans-Serif" font-size="10.00">paralleltask.h</text>
</a>
</g>
<!-- Node1&#45;&gt;Node7 -->
<g id="edge12" class="edge"><title>Node1&#45;&gt;Node7</title>
<path fill="none" stroke="midnightblue" d="M871.394,-878.124C752.671,-868.533 370.278,-837.644 236.081,-826.803"/>
<polygon fill="midnightblue" stroke="midnightblue" points="236.357,-823.314 226.107,-825.998 235.793,-830.291 236.357,-823.314"/>
</g>
<!-- Node38 -->
<g id="node114" class="node"><title>Node38</title>
<a xlink:href="valseries_8h.html" target="_top" xlink:title="valseries.h">
<polygon fill="white" stroke="black" points="840,-232.5 840,-253.5 904,-253.5 904,-232.5 840,-232.5"/>
<text text-anchor="middle" x="872" y="-240.5" font-family="Helvetica,sans-Serif" font-size="10.00">valseries.h</text>
</a>
</g>
<!-- Node1&#45;&gt;Node38 -->
<g id="edge152" class="edge"><title>Node1&#45;&gt;Node38</title>
<path fill="none" stroke="midnightblue" d="M901.857,-870.444C898,-850.062 898,-803.868 898,-765 898,-765 898,-765 898,-359 898,-324.133 883.328,-285.789 875.426,-263.086"/>
<polygon fill="midnightblue" stroke="midnightblue" points="878.734,-261.943 872.266,-253.552 872.09,-264.146 878.734,-261.943"/>
</g>
<!-- Node3 -->
<g id="node5" class="node"><title>Node3</title>
<polygon fill="white" stroke="#bfbfbf" points="297.5,-0.5 297.5,-21.5 364.5,-21.5 364.5,-0.5 297.5,-0.5"/>
<text text-anchor="middle" x="331" y="-8.5" font-family="Helvetica,sans-Serif" font-size="10.00">basicmod.h</text>
</g>
<!-- Node2&#45;&gt;Node3 -->
<g id="edge4" class="edge"><title>Node2&#45;&gt;Node3</title>
<path fill="none" stroke="midnightblue" d="M745.377,-60.3429C740.873,-59.4971 736.346,-58.696 732,-58 602.867,-37.3177 448.966,-21.8177 374.988,-14.9318"/>
<polygon fill="midnightblue" stroke="midnightblue" points="374.946,-11.4131 364.666,-13.9788 374.302,-18.3834 374.946,-11.4131"/>
</g>
<!-- Node4 -->
<g id="node7" class="node"><title>Node4</title>
<a xlink:href="plfdefs_8h.html" target="_top" xlink:title="plfdefs.h">
<polygon fill="white" stroke="black" points="700,-0.5 700,-21.5 754,-21.5 754,-0.5 700,-0.5"/>
<text text-anchor="middle" x="727" y="-8.5" font-family="Helvetica,sans-Serif" font-size="10.00">plfdefs.h</text>
</a>
</g>
<!-- Node2&#45;&gt;Node4 -->
<g id="edge6" class="edge"><title>Node2&#45;&gt;Node4</title>
<path fill="none" stroke="midnightblue" d="M775.178,-58.3619C766.779,-50.1043 754.946,-38.4725 745.11,-28.8029"/>
<polygon fill="midnightblue" stroke="midnightblue" points="747.338,-26.0851 737.753,-21.5707 742.431,-31.077 747.338,-26.0851"/>
</g>
<!-- Node5 -->
<g id="node9" class="node"><title>Node5</title>
<polygon fill="white" stroke="#bfbfbf" points="891.5,-0.5 891.5,-21.5 950.5,-21.5 950.5,-0.5 891.5,-0.5"/>
<text text-anchor="middle" x="921" y="-8.5" font-family="Helvetica,sans-Serif" font-size="10.00">stdexcept</text>
</g>
<!-- Node2&#45;&gt;Node5 -->
<g id="edge8" class="edge"><title>Node2&#45;&gt;Node5</title>
<path fill="none" stroke="midnightblue" d="M810.447,-58.4966C831.818,-49.3154 863.069,-35.8889 886.897,-25.6516"/>
<polygon fill="midnightblue" stroke="midnightblue" points="888.472,-28.7845 896.278,-21.6212 885.709,-22.3529 888.472,-28.7845"/>
</g>
<!-- Node6 -->
<g id="node11" class="node"><title>Node6</title>
<polygon fill="white" stroke="#bfbfbf" points="771.5,-0.5 771.5,-21.5 806.5,-21.5 806.5,-0.5 771.5,-0.5"/>
<text text-anchor="middle" x="789" y="-8.5" font-family="Helvetica,sans-Serif" font-size="10.00">new</text>
</g>
<!-- Node2&#45;&gt;Node6 -->
<g id="edge10" class="edge"><title>Node2&#45;&gt;Node6</title>
<path fill="none" stroke="midnightblue" d="M786.55,-58.3619C786.935,-50.9219 787.462,-40.7427 787.928,-31.7276"/>
<polygon fill="midnightblue" stroke="midnightblue" points="791.432,-31.7381 788.453,-21.5707 784.441,-31.3765 791.432,-31.7381"/>
</g>
<!-- Node7&#45;&gt;Node3 -->
<g id="edge14" class="edge"><title>Node7&#45;&gt;Node3</title>
<path fill="none" stroke="midnightblue" d="M151.66,-817.269C96.5793,-806.457 0,-777.455 0,-707 0,-707 0,-707 0,-127 0,-87.783 21.2279,-77.9353 55,-58 93.5404,-35.25 219.446,-20.9101 287.087,-14.6526"/>
<polygon fill="midnightblue" stroke="midnightblue" points="287.776,-18.1046 297.42,-13.7177 287.145,-11.1331 287.776,-18.1046"/>
</g>
<!-- Node8 -->
<g id="node16" class="node"><title>Node8</title>
<a xlink:href="task_8h.html" target="_top" xlink:title="task.h">
<polygon fill="white" stroke="black" points="340,-754.5 340,-775.5 384,-775.5 384,-754.5 340,-754.5"/>
<text text-anchor="middle" x="362" y="-762.5" font-family="Helvetica,sans-Serif" font-size="10.00">task.h</text>
</a>
</g>
<!-- Node7&#45;&gt;Node8 -->
<g id="edge16" class="edge"><title>Node7&#45;&gt;Node8</title>
<path fill="none" stroke="midnightblue" d="M220.329,-812.497C251.52,-802.04 299.137,-786.075 330.417,-775.589"/>
<polygon fill="midnightblue" stroke="midnightblue" points="331.588,-778.887 339.957,-772.39 329.363,-772.25 331.588,-778.887"/>
</g>
<!-- Node12 -->
<g id="node27" class="node"><title>Node12</title>
<a xlink:href="atomic_8h.html" target="_top" xlink:title="atomic.h">
<polygon fill="white" stroke="black" points="246,-116.5 246,-137.5 300,-137.5 300,-116.5 246,-116.5"/>
<text text-anchor="middle" x="273" y="-124.5" font-family="Helvetica,sans-Serif" font-size="10.00">atomic.h</text>
</a>
</g>
<!-- Node7&#45;&gt;Node12 -->
<g id="edge150" class="edge"><title>Node7&#45;&gt;Node12</title>
<path fill="none" stroke="midnightblue" d="M166.404,-812.493C133.428,-795.416 76,-758.31 76,-707 76,-707 76,-707 76,-533 76,-368.277 208.882,-200.268 256.375,-145.481"/>
<polygon fill="midnightblue" stroke="midnightblue" points="259.26,-147.501 263.231,-137.678 254.001,-142.881 259.26,-147.501"/>
</g>
<!-- Node8&#45;&gt;Node3 -->
<g id="edge18" class="edge"><title>Node8&#45;&gt;Node3</title>
<path fill="none" stroke="midnightblue" d="M339.985,-763.624C267.061,-757.768 38,-728.433 38,-591 38,-591 38,-591 38,-127 38,-87.783 59.4929,-78.3777 93,-58 124.995,-38.5419 227.376,-23.4384 286.922,-16.0284"/>
<polygon fill="midnightblue" stroke="midnightblue" points="287.658,-19.4645 297.16,-14.7776 286.809,-12.5162 287.658,-19.4645"/>
</g>
<!-- Node9 -->
<g id="node19" class="node"><title>Node9</title>
<a xlink:href="namedobj_8h.html" target="_top" xlink:title="namedobj.h">
<polygon fill="white" stroke="black" points="194.5,-696.5 194.5,-717.5 261.5,-717.5 261.5,-696.5 194.5,-696.5"/>
<text text-anchor="middle" x="228" y="-704.5" font-family="Helvetica,sans-Serif" font-size="10.00">namedobj.h</text>
</a>
</g>
<!-- Node8&#45;&gt;Node9 -->
<g id="edge20" class="edge"><title>Node8&#45;&gt;Node9</title>
<path fill="none" stroke="midnightblue" d="M339.873,-755.422C318.61,-746.219 286.19,-732.187 261.714,-721.593"/>
<polygon fill="midnightblue" stroke="midnightblue" points="262.999,-718.335 252.432,-717.575 260.219,-724.759 262.999,-718.335"/>
</g>
<!-- Node16 -->
<g id="node38" class="node"><title>Node16</title>
<a xlink:href="objectset_8h.html" target="_top" xlink:title="objectset.h">
<polygon fill="white" stroke="black" points="448.5,-522.5 448.5,-543.5 513.5,-543.5 513.5,-522.5 448.5,-522.5"/>
<text text-anchor="middle" x="481" y="-530.5" font-family="Helvetica,sans-Serif" font-size="10.00">objectset.h</text>
</a>
</g>
<!-- Node8&#45;&gt;Node16 -->
<g id="edge130" class="edge"><title>Node8&#45;&gt;Node16</title>
<path fill="none" stroke="midnightblue" d="M384.083,-754.383C399.682,-746.082 420.339,-733.386 435,-718 476.071,-674.897 486.586,-659.507 502,-602 506.487,-585.26 499.984,-566.452 493.063,-552.706"/>
<polygon fill="midnightblue" stroke="midnightblue" points="495.989,-550.764 488.1,-543.692 489.857,-554.14 495.989,-550.764"/>
</g>
<!-- Node35 -->
<g id="node95" class="node"><title>Node35</title>
<a xlink:href="threadlock_8h.html" target="_top" xlink:title="threadlock.h">
<polygon fill="white" stroke="black" points="406,-290.5 406,-311.5 476,-311.5 476,-290.5 406,-290.5"/>
<text text-anchor="middle" x="441" y="-298.5" font-family="Helvetica,sans-Serif" font-size="10.00">threadlock.h</text>
</a>
</g>
<!-- Node8&#45;&gt;Node35 -->
<g id="edge132" class="edge"><title>Node8&#45;&gt;Node35</title>
<path fill="none" stroke="midnightblue" d="M371.743,-754.405C388.5,-735.033 421,-691.929 421,-649 421,-649 421,-649 421,-591 421,-489.829 433.265,-369.274 438.585,-321.734"/>
<polygon fill="midnightblue" stroke="midnightblue" points="442.095,-321.848 439.749,-311.516 435.14,-321.056 442.095,-321.848"/>
</g>
<!-- Node36 -->
<g id="node103" class="node"><title>Node36</title>
<a xlink:href="uistring_8h.html" target="_top" xlink:title="uistring.h">
<polygon fill="white" stroke="black" points="626,-580.5 626,-601.5 682,-601.5 682,-580.5 626,-580.5"/>
<text text-anchor="middle" x="654" y="-588.5" font-family="Helvetica,sans-Serif" font-size="10.00">uistring.h</text>
</a>
</g>
<!-- Node8&#45;&gt;Node36 -->
<g id="edge134" class="edge"><title>Node8&#45;&gt;Node36</title>
<path fill="none" stroke="midnightblue" d="M384.274,-762.877C418.763,-758.762 486.195,-747.361 535,-718 581.756,-689.872 621.763,-638.231 641.276,-610.247"/>
<polygon fill="midnightblue" stroke="midnightblue" points="644.341,-611.965 647.088,-601.732 638.56,-608.018 644.341,-611.965"/>
</g>
<!-- Node9&#45;&gt;Node3 -->
<g id="edge22" class="edge"><title>Node9&#45;&gt;Node3</title>
<path fill="none" stroke="midnightblue" d="M204.93,-696.408C171.619,-679.34 114,-642.39 114,-591 114,-591 114,-591 114,-533 114,-453.844 76,-438.156 76,-359 76,-359 76,-359 76,-127 76,-88.5999 95.801,-78.9236 128,-58 153.895,-41.1727 235.546,-25.8849 287.063,-17.5681"/>
<polygon fill="midnightblue" stroke="midnightblue" points="287.925,-20.975 297.253,-15.9502 286.828,-14.0616 287.925,-20.975"/>
</g>
<!-- Node10 -->
<g id="node22" class="node"><title>Node10</title>
<a xlink:href="callback_8h.html" target="_top" xlink:title="callback.h">
<polygon fill="white" stroke="black" points="254.5,-638.5 254.5,-659.5 315.5,-659.5 315.5,-638.5 254.5,-638.5"/>
<text text-anchor="middle" x="285" y="-646.5" font-family="Helvetica,sans-Serif" font-size="10.00">callback.h</text>
</a>
</g>
<!-- Node9&#45;&gt;Node10 -->
<g id="edge24" class="edge"><title>Node9&#45;&gt;Node10</title>
<path fill="none" stroke="midnightblue" d="M238.455,-696.362C246.57,-688.104 258.001,-676.472 267.504,-666.803"/>
<polygon fill="midnightblue" stroke="midnightblue" points="270.099,-669.156 274.612,-659.571 265.106,-664.25 270.099,-669.156"/>
</g>
<!-- Node25 -->
<g id="node63" class="node"><title>Node25</title>
<a xlink:href="bufstring_8h.html" target="_top" xlink:title="bufstring.h">
<polygon fill="white" stroke="black" points="256,-348.5 256,-369.5 318,-369.5 318,-348.5 256,-348.5"/>
<text text-anchor="middle" x="287" y="-356.5" font-family="Helvetica,sans-Serif" font-size="10.00">bufstring.h</text>
</a>
</g>
<!-- Node9&#45;&gt;Node25 -->
<g id="edge128" class="edge"><title>Node9&#45;&gt;Node25</title>
<path fill="none" stroke="midnightblue" d="M221.895,-696.191C211.153,-676.127 190,-631.477 190,-591 190,-591 190,-591 190,-475 190,-430.987 231.604,-394.87 260.318,-375.184"/>
<polygon fill="midnightblue" stroke="midnightblue" points="262.34,-378.043 268.755,-369.612 258.482,-372.202 262.34,-378.043"/>
</g>
<!-- Node10&#45;&gt;Node3 -->
<g id="edge26" class="edge"><title>Node10&#45;&gt;Node3</title>
<path fill="none" stroke="midnightblue" d="M277.87,-638.408C245.507,-589.269 114,-377.737 114,-185 114,-185 114,-185 114,-127 114,-49.3056 223.528,-23.4574 286.956,-15.0026"/>
<polygon fill="midnightblue" stroke="midnightblue" points="287.6,-18.4496 297.094,-13.7463 286.739,-11.5028 287.6,-18.4496"/>
</g>
<!-- Node11 -->
<g id="node25" class="node"><title>Node11</title>
<a xlink:href="refcount_8h.html" target="_top" xlink:title="refcount.h">
<polygon fill="white" stroke="black" points="313,-580.5 313,-601.5 373,-601.5 373,-580.5 313,-580.5"/>
<text text-anchor="middle" x="343" y="-588.5" font-family="Helvetica,sans-Serif" font-size="10.00">refcount.h</text>
</a>
</g>
<!-- Node10&#45;&gt;Node11 -->
<g id="edge28" class="edge"><title>Node10&#45;&gt;Node11</title>
<path fill="none" stroke="midnightblue" d="M295.638,-638.362C303.896,-630.104 315.528,-618.472 325.197,-608.803"/>
<polygon fill="midnightblue" stroke="midnightblue" points="327.833,-611.117 332.429,-601.571 322.883,-606.167 327.833,-611.117"/>
</g>
<!-- Node33 -->
<g id="node88" class="node"><title>Node33</title>
<a xlink:href="sets_8h.html" target="_top" xlink:title="sets.h">
<polygon fill="white" stroke="black" points="449,-580.5 449,-601.5 493,-601.5 493,-580.5 449,-580.5"/>
<text text-anchor="middle" x="471" y="-588.5" font-family="Helvetica,sans-Serif" font-size="10.00">sets.h</text>
</a>
</g>
<!-- Node10&#45;&gt;Node33 -->
<g id="edge110" class="edge"><title>Node10&#45;&gt;Node33</title>
<path fill="none" stroke="midnightblue" d="M315.714,-639.422C349.898,-628.763 404.861,-611.624 439.399,-600.854"/>
<polygon fill="midnightblue" stroke="midnightblue" points="440.486,-604.182 448.99,-597.863 438.402,-597.499 440.486,-604.182"/>
</g>
<!-- Node10&#45;&gt;Node35 -->
<g id="edge120" class="edge"><title>Node10&#45;&gt;Node35</title>
<path fill="none" stroke="midnightblue" d="M287.46,-638.084C290.679,-624.346 296.771,-600.111 304,-580 342.222,-473.663 352.169,-446.241 408,-348 413.426,-338.451 420.293,-328.418 426.356,-320.085"/>
<polygon fill="midnightblue" stroke="midnightblue" points="429.349,-321.925 432.513,-311.813 423.734,-317.745 429.349,-321.925"/>
</g>
<!-- Node11&#45;&gt;Node12 -->
<g id="edge30" class="edge"><title>Node11&#45;&gt;Node12</title>
<path fill="none" stroke="midnightblue" d="M335.505,-580.131C318.403,-554.764 276.411,-489.159 256,-428 222.342,-327.146 252.803,-196.824 266.819,-147.303"/>
<polygon fill="midnightblue" stroke="midnightblue" points="270.238,-148.081 269.682,-137.501 263.519,-146.118 270.238,-148.081"/>
</g>
<!-- Node11&#45;&gt;Node16 -->
<g id="edge44" class="edge"><title>Node11&#45;&gt;Node16</title>
<path fill="none" stroke="midnightblue" d="M367.991,-580.497C389.933,-571.275 422.066,-557.769 446.464,-547.515"/>
<polygon fill="midnightblue" stroke="midnightblue" points="447.866,-550.722 455.729,-543.621 445.154,-544.269 447.866,-550.722"/>
</g>
<!-- Node12&#45;&gt;Node2 -->
<g id="edge34" class="edge"><title>Node12&#45;&gt;Node2</title>
<path fill="none" stroke="midnightblue" d="M300.179,-124.153C367.692,-117.047 548.447,-97.8218 699,-80 710.693,-78.6158 723.262,-77.0639 735.111,-75.572"/>
<polygon fill="midnightblue" stroke="midnightblue" points="735.816,-79.0108 745.297,-74.2822 734.936,-72.0662 735.816,-79.0108"/>
</g>
<!-- Node12&#45;&gt;Node3 -->
<g id="edge32" class="edge"><title>Node12&#45;&gt;Node3</title>
<path fill="none" stroke="midnightblue" d="M278.353,-116.295C288.064,-96.8724 308.722,-55.5561 321.077,-30.8462"/>
<polygon fill="midnightblue" stroke="midnightblue" points="324.319,-32.1888 325.66,-21.6792 318.058,-29.0582 324.319,-32.1888"/>
</g>
<!-- Node13 -->
<g id="node31" class="node"><title>Node13</title>
<a xlink:href="plftypes_8h.html" target="_top" xlink:title="plftypes.h">
<polygon fill="white" stroke="black" points="631.5,-58.5 631.5,-79.5 690.5,-79.5 690.5,-58.5 631.5,-58.5"/>
<text text-anchor="middle" x="661" y="-66.5" font-family="Helvetica,sans-Serif" font-size="10.00">plftypes.h</text>
</a>
</g>
<!-- Node12&#45;&gt;Node13 -->
<g id="edge36" class="edge"><title>Node12&#45;&gt;Node13</title>
<path fill="none" stroke="midnightblue" d="M300.283,-122.922C367.72,-112.841 542.483,-86.7165 621.352,-74.9268"/>
<polygon fill="midnightblue" stroke="midnightblue" points="622.004,-78.3682 631.377,-73.4282 620.969,-71.4452 622.004,-78.3682"/>
</g>
<!-- Node15 -->
<g id="node36" class="node"><title>Node15</title>
<polygon fill="white" stroke="#bfbfbf" points="217.5,-58.5 217.5,-79.5 284.5,-79.5 284.5,-58.5 217.5,-58.5"/>
<text text-anchor="middle" x="251" y="-66.5" font-family="Helvetica,sans-Serif" font-size="10.00">odversion.h</text>
</g>
<!-- Node12&#45;&gt;Node15 -->
<g id="edge42" class="edge"><title>Node12&#45;&gt;Node15</title>
<path fill="none" stroke="midnightblue" d="M268.965,-116.362C266.081,-108.758 262.112,-98.294 258.637,-89.1349"/>
<polygon fill="midnightblue" stroke="midnightblue" points="261.829,-87.6793 255.01,-79.5707 255.284,-90.1619 261.829,-87.6793"/>
</g>
<!-- Node13&#45;&gt;Node4 -->
<g id="edge38" class="edge"><title>Node13&#45;&gt;Node4</title>
<path fill="none" stroke="midnightblue" d="M673.105,-58.3619C682.688,-49.9408 696.264,-38.0105 707.393,-28.2308"/>
<polygon fill="midnightblue" stroke="midnightblue" points="709.77,-30.8009 714.971,-21.5707 705.149,-25.5427 709.77,-30.8009"/>
</g>
<!-- Node14 -->
<g id="node34" class="node"><title>Node14</title>
<polygon fill="white" stroke="#bfbfbf" points="633.5,-0.5 633.5,-21.5 682.5,-21.5 682.5,-0.5 633.5,-0.5"/>
<text text-anchor="middle" x="658" y="-8.5" font-family="Helvetica,sans-Serif" font-size="10.00">stdint.h</text>
</g>
<!-- Node13&#45;&gt;Node14 -->
<g id="edge40" class="edge"><title>Node13&#45;&gt;Node14</title>
<path fill="none" stroke="midnightblue" d="M660.45,-58.3619C660.065,-50.9219 659.538,-40.7427 659.072,-31.7276"/>
<polygon fill="midnightblue" stroke="midnightblue" points="662.559,-31.3765 658.547,-21.5707 655.568,-31.7381 662.559,-31.3765"/>
</g>
<!-- Node17 -->
<g id="node40" class="node"><title>Node17</title>
<a xlink:href="odset_8h.html" target="_top" xlink:title="odset.h">
<polygon fill="white" stroke="black" points="617.5,-464.5 617.5,-485.5 666.5,-485.5 666.5,-464.5 617.5,-464.5"/>
<text text-anchor="middle" x="642" y="-472.5" font-family="Helvetica,sans-Serif" font-size="10.00">odset.h</text>
</a>
</g>
<!-- Node16&#45;&gt;Node17 -->
<g id="edge46" class="edge"><title>Node16&#45;&gt;Node17</title>
<path fill="none" stroke="midnightblue" d="M510.156,-522.497C537.554,-512.627 578.571,-497.85 607.567,-487.404"/>
<polygon fill="midnightblue" stroke="midnightblue" points="609.059,-490.587 617.28,-483.905 606.686,-484.002 609.059,-490.587"/>
</g>
<!-- Node23 -->
<g id="node57" class="node"><title>Node23</title>
<a xlink:href="vectoraccess_8h.html" target="_top" xlink:title="vectoraccess.h">
<polygon fill="white" stroke="black" points="517.5,-464.5 517.5,-485.5 600.5,-485.5 600.5,-464.5 517.5,-464.5"/>
<text text-anchor="middle" x="559" y="-472.5" font-family="Helvetica,sans-Serif" font-size="10.00">vectoraccess.h</text>
</a>
</g>
<!-- Node16&#45;&gt;Node23 -->
<g id="edge68" class="edge"><title>Node16&#45;&gt;Node23</title>
<path fill="none" stroke="midnightblue" d="M495.306,-522.362C506.851,-513.777 523.3,-501.546 536.59,-491.664"/>
<polygon fill="midnightblue" stroke="midnightblue" points="538.848,-494.346 544.784,-485.571 534.671,-488.729 538.848,-494.346"/>
</g>
<!-- Node18 -->
<g id="node42" class="node"><title>Node18</title>
<a xlink:href="gendefs_8h.html" target="_top" xlink:title="gendefs.h">
<polygon fill="white" stroke="black" points="686.5,-174.5 686.5,-195.5 745.5,-195.5 745.5,-174.5 686.5,-174.5"/>
<text text-anchor="middle" x="716" y="-182.5" font-family="Helvetica,sans-Serif" font-size="10.00">gendefs.h</text>
</a>
</g>
<!-- Node17&#45;&gt;Node18 -->
<g id="edge48" class="edge"><title>Node17&#45;&gt;Node18</title>
<path fill="none" stroke="midnightblue" d="M644.721,-464.335C655.6,-421.704 696.074,-263.087 710.692,-205.803"/>
<polygon fill="midnightblue" stroke="midnightblue" points="714.173,-206.317 713.254,-195.762 707.39,-204.586 714.173,-206.317"/>
</g>
<!-- Node19 -->
<g id="node44" class="node"><title>Node19</title>
<a xlink:href="undefval_8h.html" target="_top" xlink:title="undefval.h">
<polygon fill="white" stroke="black" points="568,-116.5 568,-137.5 630,-137.5 630,-116.5 568,-116.5"/>
<text text-anchor="middle" x="599" y="-124.5" font-family="Helvetica,sans-Serif" font-size="10.00">undefval.h</text>
</a>
</g>
<!-- Node18&#45;&gt;Node19 -->
<g id="edge50" class="edge"><title>Node18&#45;&gt;Node19</title>
<path fill="none" stroke="midnightblue" d="M694.812,-174.497C676.538,-165.438 649.928,-152.246 629.385,-142.063"/>
<polygon fill="midnightblue" stroke="midnightblue" points="630.94,-138.927 620.426,-137.621 627.831,-145.199 630.94,-138.927"/>
</g>
<!-- Node20 -->
<g id="node49" class="node"><title>Node20</title>
<a xlink:href="commontypes_8h.html" target="_top" xlink:title="commontypes.h">
<polygon fill="white" stroke="black" points="686,-116.5 686,-137.5 772,-137.5 772,-116.5 686,-116.5"/>
<text text-anchor="middle" x="729" y="-124.5" font-family="Helvetica,sans-Serif" font-size="10.00">commontypes.h</text>
</a>
</g>
<!-- Node18&#45;&gt;Node20 -->
<g id="edge58" class="edge"><title>Node18&#45;&gt;Node20</title>
<path fill="none" stroke="midnightblue" d="M718.384,-174.362C720.07,-166.84 722.384,-156.519 724.421,-147.431"/>
<polygon fill="midnightblue" stroke="midnightblue" points="727.859,-148.094 726.631,-137.571 721.028,-146.563 727.859,-148.094"/>
</g>
<!-- Node21 -->
<g id="node52" class="node"><title>Node21</title>
<a xlink:href="errmsg_8h.html" target="_top" xlink:title="errmsg.h">
<polygon fill="white" stroke="black" points="789.5,-116.5 789.5,-137.5 844.5,-137.5 844.5,-116.5 789.5,-116.5"/>
<text text-anchor="middle" x="817" y="-124.5" font-family="Helvetica,sans-Serif" font-size="10.00">errmsg.h</text>
</a>
</g>
<!-- Node18&#45;&gt;Node21 -->
<g id="edge62" class="edge"><title>Node18&#45;&gt;Node21</title>
<path fill="none" stroke="midnightblue" d="M734.525,-174.362C749.901,-165.532 771.996,-152.844 789.447,-142.822"/>
<polygon fill="midnightblue" stroke="midnightblue" points="791.664,-145.586 798.592,-137.571 788.178,-139.515 791.664,-145.586"/>
</g>
<!-- Node19&#45;&gt;Node2 -->
<g id="edge54" class="edge"><title>Node19&#45;&gt;Node2</title>
<path fill="none" stroke="midnightblue" d="M630.3,-117.292C660.96,-107.782 707.953,-93.2072 742.293,-82.5562"/>
<polygon fill="midnightblue" stroke="midnightblue" points="743.55,-85.8308 752.065,-79.5254 741.477,-79.145 743.55,-85.8308"/>
</g>
<!-- Node19&#45;&gt;Node3 -->
<g id="edge52" class="edge"><title>Node19&#45;&gt;Node3</title>
<path fill="none" stroke="midnightblue" d="M630.024,-118.969C667.705,-107.776 723.392,-85.7051 699,-58 677.869,-33.9986 468.056,-18.9509 375.024,-13.4093"/>
<polygon fill="midnightblue" stroke="midnightblue" points="374.994,-9.90163 364.806,-12.811 374.584,-16.8897 374.994,-9.90163"/>
</g>
<!-- Node19&#45;&gt;Node13 -->
<g id="edge56" class="edge"><title>Node19&#45;&gt;Node13</title>
<path fill="none" stroke="midnightblue" d="M610.372,-116.362C619.286,-108.023 631.879,-96.2418 642.276,-86.5162"/>
<polygon fill="midnightblue" stroke="midnightblue" points="644.789,-88.9582 649.7,-79.5707 640.007,-83.8463 644.789,-88.9582"/>
</g>
<!-- Node20&#45;&gt;Node2 -->
<g id="edge60" class="edge"><title>Node20&#45;&gt;Node2</title>
<path fill="none" stroke="midnightblue" d="M739.455,-116.362C747.57,-108.104 759.001,-96.4725 768.504,-86.8029"/>
<polygon fill="midnightblue" stroke="midnightblue" points="771.099,-89.1562 775.612,-79.5707 766.106,-84.2497 771.099,-89.1562"/>
</g>
<!-- Node21&#45;&gt;Node2 -->
<g id="edge64" class="edge"><title>Node21&#45;&gt;Node2</title>
<path fill="none" stroke="midnightblue" d="M811.314,-116.362C807.163,-108.595 801.416,-97.8426 796.447,-88.5458"/>
<polygon fill="midnightblue" stroke="midnightblue" points="799.45,-86.7401 791.65,-79.5707 793.277,-90.0398 799.45,-86.7401"/>
</g>
<!-- Node22 -->
<g id="node55" class="node"><title>Node22</title>
<polygon fill="white" stroke="#bfbfbf" points="844.5,-58.5 844.5,-79.5 895.5,-79.5 895.5,-58.5 844.5,-58.5"/>
<text text-anchor="middle" x="870" y="-66.5" font-family="Helvetica,sans-Serif" font-size="10.00">typeinfo</text>
</g>
<!-- Node21&#45;&gt;Node22 -->
<g id="edge66" class="edge"><title>Node21&#45;&gt;Node22</title>
<path fill="none" stroke="midnightblue" d="M826.721,-116.362C834.192,-108.186 844.686,-96.7025 853.469,-87.0907"/>
<polygon fill="midnightblue" stroke="midnightblue" points="856.179,-89.3138 860.341,-79.5707 851.011,-84.5918 856.179,-89.3138"/>
</g>
<!-- Node23&#45;&gt;Node5 -->
<g id="edge108" class="edge"><title>Node23&#45;&gt;Node5</title>
<path fill="none" stroke="midnightblue" d="M599.66,-464.495C678.242,-441.679 848.868,-379.276 913,-254 950.946,-179.875 935.158,-75.6855 925.92,-31.7892"/>
<polygon fill="midnightblue" stroke="midnightblue" points="929.327,-30.9901 923.748,-21.9832 922.493,-32.5034 929.327,-30.9901"/>
</g>
<!-- Node23&#45;&gt;Node18 -->
<g id="edge102" class="edge"><title>Node23&#45;&gt;Node18</title>
<path fill="none" stroke="midnightblue" d="M575.594,-464.363C587.859,-455.793 604.231,-442.768 615,-428 670.434,-351.977 658.026,-318.519 695,-232 698.795,-223.119 703.128,-213.361 706.869,-205.049"/>
<polygon fill="midnightblue" stroke="midnightblue" points="710.128,-206.337 711.062,-195.783 703.75,-203.451 710.128,-206.337"/>
</g>
<!-- Node24 -->
<g id="node59" class="node"><title>Node24</title>
<a xlink:href="debug_8h.html" target="_top" xlink:title="debug.h">
<polygon fill="white" stroke="black" points="264.5,-406.5 264.5,-427.5 315.5,-427.5 315.5,-406.5 264.5,-406.5"/>
<text text-anchor="middle" x="290" y="-414.5" font-family="Helvetica,sans-Serif" font-size="10.00">debug.h</text>
</a>
</g>
<!-- Node23&#45;&gt;Node24 -->
<g id="edge70" class="edge"><title>Node23&#45;&gt;Node24</title>
<path fill="none" stroke="midnightblue" d="M517.264,-466.001C464.635,-454.654 375.059,-435.34 325.542,-424.663"/>
<polygon fill="midnightblue" stroke="midnightblue" points="326.124,-421.208 315.611,-422.522 324.649,-428.051 326.124,-421.208"/>
</g>
<!-- Node31 -->
<g id="node83" class="node"><title>Node31</title>
<polygon fill="white" stroke="#bfbfbf" points="488,-406.5 488,-427.5 544,-427.5 544,-406.5 488,-406.5"/>
<text text-anchor="middle" x="516" y="-414.5" font-family="Helvetica,sans-Serif" font-size="10.00">algorithm</text>
</g>
<!-- Node23&#45;&gt;Node31 -->
<g id="edge104" class="edge"><title>Node23&#45;&gt;Node31</title>
<path fill="none" stroke="midnightblue" d="M551.113,-464.362C545.173,-456.35 536.878,-445.161 529.841,-435.67"/>
<polygon fill="midnightblue" stroke="midnightblue" points="532.604,-433.519 523.837,-427.571 526.981,-437.688 532.604,-433.519"/>
</g>
<!-- Node32 -->
<g id="node85" class="node"><title>Node32</title>
<polygon fill="white" stroke="#bfbfbf" points="562,-406.5 562,-427.5 606,-427.5 606,-406.5 562,-406.5"/>
<text text-anchor="middle" x="584" y="-414.5" font-family="Helvetica,sans-Serif" font-size="10.00">vector</text>
</g>
<!-- Node23&#45;&gt;Node32 -->
<g id="edge106" class="edge"><title>Node23&#45;&gt;Node32</title>
<path fill="none" stroke="midnightblue" d="M563.585,-464.362C566.898,-456.677 571.47,-446.069 575.448,-436.84"/>
<polygon fill="midnightblue" stroke="midnightblue" points="578.699,-438.139 579.444,-427.571 572.271,-435.368 578.699,-438.139"/>
</g>
<!-- Node24&#45;&gt;Node3 -->
<g id="edge72" class="edge"><title>Node24&#45;&gt;Node3</title>
<path fill="none" stroke="midnightblue" d="M277.092,-406.38C267.327,-397.63 254.378,-384.362 247,-370 182.827,-245.083 115.776,-172.564 197,-58 207.771,-42.8071 252.503,-29.1766 287.357,-20.5562"/>
<polygon fill="midnightblue" stroke="midnightblue" points="288.443,-23.8948 297.348,-18.1532 286.806,-17.0889 288.443,-23.8948"/>
</g>
<!-- Node24&#45;&gt;Node18 -->
<g id="edge74" class="edge"><title>Node24&#45;&gt;Node18</title>
<path fill="none" stroke="midnightblue" d="M315.692,-412.354C369.558,-401.702 496.709,-371.712 586,-312 625.763,-285.409 623.311,-264.937 658,-232 669.234,-221.333 682.622,-210.381 693.704,-201.735"/>
<polygon fill="midnightblue" stroke="midnightblue" points="695.864,-204.489 701.654,-195.616 691.595,-198.941 695.864,-204.489"/>
</g>
<!-- Node24&#45;&gt;Node25 -->
<g id="edge76" class="edge"><title>Node24&#45;&gt;Node25</title>
<path fill="none" stroke="midnightblue" d="M289.45,-406.362C289.065,-398.922 288.538,-388.743 288.072,-379.728"/>
<polygon fill="midnightblue" stroke="midnightblue" points="291.559,-379.376 287.547,-369.571 284.568,-379.738 291.559,-379.376"/>
</g>
<!-- Node25&#45;&gt;Node3 -->
<g id="edge78" class="edge"><title>Node25&#45;&gt;Node3</title>
<path fill="none" stroke="midnightblue" d="M282.045,-348.403C260.165,-300.915 174.785,-107.848 209,-58 218.33,-44.4066 256.36,-31.1053 287.512,-22.1423"/>
<polygon fill="midnightblue" stroke="midnightblue" points="288.654,-25.4573 297.339,-19.3898 286.766,-18.7167 288.654,-25.4573"/>
</g>
<!-- Node26 -->
<g id="node66" class="node"><title>Node26</title>
<a xlink:href="fixedstring_8h.html" target="_top" xlink:title="fixedstring.h">
<polygon fill="white" stroke="black" points="507,-290.5 507,-311.5 577,-311.5 577,-290.5 507,-290.5"/>
<text text-anchor="middle" x="542" y="-298.5" font-family="Helvetica,sans-Serif" font-size="10.00">fixedstring.h</text>
</a>
</g>
<!-- Node25&#45;&gt;Node26 -->
<g id="edge80" class="edge"><title>Node25&#45;&gt;Node26</title>
<path fill="none" stroke="midnightblue" d="M318.013,-351.946C362.685,-341.785 445.413,-322.969 496.862,-311.267"/>
<polygon fill="midnightblue" stroke="midnightblue" points="497.74,-314.657 506.714,-309.026 496.187,-307.831 497.74,-314.657"/>
</g>
<!-- Node28 -->
<g id="node73" class="node"><title>Node28</title>
<a xlink:href="string2_8h.html" target="_top" xlink:title="string2.h">
<polygon fill="white" stroke="black" points="420,-116.5 420,-137.5 474,-137.5 474,-116.5 420,-116.5"/>
<text text-anchor="middle" x="447" y="-124.5" font-family="Helvetica,sans-Serif" font-size="10.00">string2.h</text>
</a>
</g>
<!-- Node25&#45;&gt;Node28 -->
<g id="edge90" class="edge"><title>Node25&#45;&gt;Node28</title>
<path fill="none" stroke="midnightblue" d="M291.584,-348.308C301.446,-325.823 326.062,-272.388 354,-232 376.87,-198.938 408.918,-164.853 428.796,-144.813"/>
<polygon fill="midnightblue" stroke="midnightblue" points="431.41,-147.15 436.019,-137.61 426.467,-142.193 431.41,-147.15"/>
</g>
<!-- Node26&#45;&gt;Node3 -->
<g id="edge82" class="edge"><title>Node26&#45;&gt;Node3</title>
<path fill="none" stroke="midnightblue" d="M532.657,-290.272C510.528,-264.675 453.584,-197.706 411,-138 384.702,-101.129 357.239,-55.7869 342.314,-30.4696"/>
<polygon fill="midnightblue" stroke="midnightblue" points="345.313,-28.6638 337.236,-21.8064 339.273,-32.2035 345.313,-28.6638"/>
</g>
<!-- Node27 -->
<g id="node69" class="node"><title>Node27</title>
<a xlink:href="odstring_8h.html" target="_top" xlink:title="odstring.h">
<polygon fill="white" stroke="black" points="547.5,-232.5 547.5,-253.5 606.5,-253.5 606.5,-232.5 547.5,-232.5"/>
<text text-anchor="middle" x="577" y="-240.5" font-family="Helvetica,sans-Serif" font-size="10.00">odstring.h</text>
</a>
</g>
<!-- Node26&#45;&gt;Node27 -->
<g id="edge84" class="edge"><title>Node26&#45;&gt;Node27</title>
<path fill="none" stroke="midnightblue" d="M548.42,-290.362C553.156,-282.513 559.732,-271.616 565.382,-262.253"/>
<polygon fill="midnightblue" stroke="midnightblue" points="568.451,-263.941 570.621,-253.571 562.458,-260.324 568.451,-263.941"/>
</g>
<!-- Node27&#45;&gt;Node3 -->
<g id="edge86" class="edge"><title>Node27&#45;&gt;Node3</title>
<path fill="none" stroke="midnightblue" d="M572.284,-232.185C563.256,-209.912 545.571,-157.53 559,-116 567.691,-89.1209 603.067,-79.7167 585,-58 558.728,-26.4209 439.981,-15.9698 374.567,-12.5795"/>
<polygon fill="midnightblue" stroke="midnightblue" points="374.706,-9.08224 364.549,-12.0938 374.367,-16.074 374.706,-9.08224"/>
</g>
<!-- Node27&#45;&gt;Node18 -->
<g id="edge88" class="edge"><title>Node27&#45;&gt;Node18</title>
<path fill="none" stroke="midnightblue" d="M602.172,-232.497C624.273,-223.275 656.639,-209.769 681.213,-199.515"/>
<polygon fill="midnightblue" stroke="midnightblue" points="682.665,-202.702 690.546,-195.621 679.969,-196.242 682.665,-202.702"/>
</g>
<!-- Node28&#45;&gt;Node2 -->
<g id="edge96" class="edge"><title>Node28&#45;&gt;Node2</title>
<path fill="none" stroke="midnightblue" d="M474.169,-122.352C530.891,-112.647 662.661,-90.1023 735.442,-77.6501"/>
<polygon fill="midnightblue" stroke="midnightblue" points="736.04,-81.0987 745.306,-75.9624 734.859,-74.199 736.04,-81.0987"/>
</g>
<!-- Node28&#45;&gt;Node3 -->
<g id="edge92" class="edge"><title>Node28&#45;&gt;Node3</title>
<path fill="none" stroke="midnightblue" d="M441.76,-116.229C434.355,-101.775 419.737,-75.8592 402,-58 389.897,-45.8137 374.155,-35.0077 360.57,-26.8393"/>
<polygon fill="midnightblue" stroke="midnightblue" points="361.987,-23.6148 351.581,-21.6211 358.472,-29.6686 361.987,-23.6148"/>
</g>
<!-- Node28&#45;&gt;Node13 -->
<g id="edge94" class="edge"><title>Node28&#45;&gt;Node13</title>
<path fill="none" stroke="midnightblue" d="M474.103,-119.654C511.379,-109.551 578.711,-91.3027 621.567,-79.6874"/>
<polygon fill="midnightblue" stroke="midnightblue" points="622.638,-83.0235 631.374,-77.0294 620.807,-76.2673 622.638,-83.0235"/>
</g>
<!-- Node29 -->
<g id="node78" class="node"><title>Node29</title>
<polygon fill="white" stroke="#bfbfbf" points="453.5,-58.5 453.5,-79.5 502.5,-79.5 502.5,-58.5 453.5,-58.5"/>
<text text-anchor="middle" x="478" y="-66.5" font-family="Helvetica,sans-Serif" font-size="10.00">ctype.h</text>
</g>
<!-- Node28&#45;&gt;Node29 -->
<g id="edge98" class="edge"><title>Node28&#45;&gt;Node29</title>
<path fill="none" stroke="midnightblue" d="M452.686,-116.362C456.837,-108.595 462.584,-97.8426 467.553,-88.5458"/>
<polygon fill="midnightblue" stroke="midnightblue" points="470.723,-90.0398 472.35,-79.5707 464.55,-86.7401 470.723,-90.0398"/>
</g>
<!-- Node30 -->
<g id="node80" class="node"><title>Node30</title>
<polygon fill="white" stroke="#bfbfbf" points="520,-58.5 520,-79.5 576,-79.5 576,-58.5 520,-58.5"/>
<text text-anchor="middle" x="548" y="-66.5" font-family="Helvetica,sans-Serif" font-size="10.00">wctype.h</text>
</g>
<!-- Node28&#45;&gt;Node30 -->
<g id="edge100" class="edge"><title>Node28&#45;&gt;Node30</title>
<path fill="none" stroke="midnightblue" d="M465.525,-116.362C480.901,-107.532 502.996,-94.844 520.447,-84.8224"/>
<polygon fill="midnightblue" stroke="midnightblue" points="522.664,-87.5857 529.592,-79.5707 519.178,-81.5154 522.664,-87.5857"/>
</g>
<!-- Node33&#45;&gt;Node16 -->
<g id="edge118" class="edge"><title>Node33&#45;&gt;Node16</title>
<path fill="none" stroke="midnightblue" d="M472.834,-580.362C474.131,-572.84 475.911,-562.519 477.477,-553.431"/>
<polygon fill="midnightblue" stroke="midnightblue" points="480.927,-554.02 479.177,-543.571 474.029,-552.831 480.927,-554.02"/>
</g>
<!-- Node34 -->
<g id="node90" class="node"><title>Node34</title>
<a xlink:href="typeset_8h.html" target="_top" xlink:title="typeset.h">
<polygon fill="white" stroke="black" points="597.5,-522.5 597.5,-543.5 654.5,-543.5 654.5,-522.5 597.5,-522.5"/>
<text text-anchor="middle" x="626" y="-530.5" font-family="Helvetica,sans-Serif" font-size="10.00">typeset.h</text>
</a>
</g>
<!-- Node33&#45;&gt;Node34 -->
<g id="edge112" class="edge"><title>Node33&#45;&gt;Node34</title>
<path fill="none" stroke="midnightblue" d="M493.208,-582.69C517.951,-573.431 558.384,-558.302 588.144,-547.166"/>
<polygon fill="midnightblue" stroke="midnightblue" points="589.65,-550.339 597.789,-543.556 587.196,-543.783 589.65,-550.339"/>
</g>
<!-- Node34&#45;&gt;Node17 -->
<g id="edge114" class="edge"><title>Node34&#45;&gt;Node17</title>
<path fill="none" stroke="midnightblue" d="M628.935,-522.362C631.01,-514.84 633.857,-504.519 636.364,-495.431"/>
<polygon fill="midnightblue" stroke="midnightblue" points="639.799,-496.141 639.084,-485.571 633.051,-494.28 639.799,-496.141"/>
</g>
<!-- Node34&#45;&gt;Node23 -->
<g id="edge116" class="edge"><title>Node34&#45;&gt;Node23</title>
<path fill="none" stroke="midnightblue" d="M613.711,-522.362C603.983,-513.941 590.202,-502.011 578.905,-492.231"/>
<polygon fill="midnightblue" stroke="midnightblue" points="581.062,-489.469 571.211,-485.571 576.481,-494.762 581.062,-489.469"/>
</g>
<!-- Node35&#45;&gt;Node2 -->
<g id="edge124" class="edge"><title>Node35&#45;&gt;Node2</title>
<path fill="none" stroke="midnightblue" d="M452.484,-290.201C485.352,-259.709 583.451,-171.565 677,-116 698.972,-102.949 725.234,-91.5139 746.474,-83.191"/>
<polygon fill="midnightblue" stroke="midnightblue" points="747.766,-86.4442 755.846,-79.5914 745.256,-79.9096 747.766,-86.4442"/>
</g>
<!-- Node35&#45;&gt;Node3 -->
<g id="edge122" class="edge"><title>Node35&#45;&gt;Node3</title>
<path fill="none" stroke="midnightblue" d="M432.439,-290.352C418.202,-272.119 389.679,-233.274 374,-196 350.119,-139.227 338.195,-66.8141 333.493,-31.8076"/>
<polygon fill="midnightblue" stroke="midnightblue" points="336.957,-31.2977 332.214,-21.8234 330.013,-32.1871 336.957,-31.2977"/>
</g>
<!-- Node35&#45;&gt;Node13 -->
<g id="edge126" class="edge"><title>Node35&#45;&gt;Node13</title>
<path fill="none" stroke="midnightblue" d="M444.118,-290.279C448.413,-276.326 456.896,-251.434 468,-232 500.508,-175.105 507.586,-156.624 559,-116 577.669,-101.249 601.717,-89.8815 621.774,-82.0235"/>
<polygon fill="midnightblue" stroke="midnightblue" points="623.135,-85.2508 631.258,-78.4485 620.666,-78.7007 623.135,-85.2508"/>
</g>
<!-- Node36&#45;&gt;Node18 -->
<g id="edge136" class="edge"><title>Node36&#45;&gt;Node18</title>
<path fill="none" stroke="midnightblue" d="M682.211,-588.184C738.63,-580.835 860,-555.652 860,-475 860,-475 860,-475 860,-359 860,-286.486 784.855,-227.938 743.132,-201.019"/>
<polygon fill="midnightblue" stroke="midnightblue" points="744.859,-197.971 734.531,-195.611 741.134,-203.897 744.859,-197.971"/>
</g>
<!-- Node36&#45;&gt;Node28 -->
<g id="edge146" class="edge"><title>Node36&#45;&gt;Node28</title>
<path fill="none" stroke="midnightblue" d="M639.281,-580.365C626.105,-570.843 606.258,-556.495 589,-544 553.428,-518.245 539.182,-517.902 509,-486 445.794,-419.192 422.942,-400.234 397,-312 379.404,-252.154 414.402,-180.736 434.394,-146.797"/>
<polygon fill="midnightblue" stroke="midnightblue" points="437.605,-148.253 439.811,-137.89 431.624,-144.616 437.605,-148.253"/>
</g>
<!-- Node36&#45;&gt;Node34 -->
<g id="edge148" class="edge"><title>Node36&#45;&gt;Node34</title>
<path fill="none" stroke="midnightblue" d="M648.864,-580.362C645.154,-572.677 640.033,-562.069 635.578,-552.84"/>
<polygon fill="midnightblue" stroke="midnightblue" points="638.603,-551.055 631.103,-543.571 632.299,-554.098 638.603,-551.055"/>
</g>
<!-- Node36&#45;&gt;Node35 -->
<g id="edge144" class="edge"><title>Node36&#45;&gt;Node35</title>
<path fill="none" stroke="midnightblue" d="M659.572,-580.331C670.489,-557.888 692.192,-504.53 675,-464 640.824,-383.429 542.271,-336.408 484.544,-315.021"/>
<polygon fill="midnightblue" stroke="midnightblue" points="485.55,-311.664 474.955,-311.566 483.176,-318.249 485.55,-311.664"/>
</g>
<!-- Node37 -->
<g id="node106" class="node"><title>Node37</title>
<a xlink:href="keystrs_8h.html" target="_top" xlink:title="keystrs.h">
<polygon fill="white" stroke="black" points="737.5,-348.5 737.5,-369.5 794.5,-369.5 794.5,-348.5 737.5,-348.5"/>
<text text-anchor="middle" x="766" y="-356.5" font-family="Helvetica,sans-Serif" font-size="10.00">keystrs.h</text>
</a>
</g>
<!-- Node36&#45;&gt;Node37 -->
<g id="edge138" class="edge"><title>Node36&#45;&gt;Node37</title>
<path fill="none" stroke="midnightblue" d="M678.638,-580.346C693.965,-572.474 712.82,-560.294 724,-544 759.142,-492.784 765.3,-416.629 766.107,-380.073"/>
<polygon fill="midnightblue" stroke="midnightblue" points="769.611,-379.713 766.211,-369.678 762.611,-379.643 769.611,-379.713"/>
</g>
<!-- Node37&#45;&gt;Node18 -->
<g id="edge140" class="edge"><title>Node37&#45;&gt;Node18</title>
<path fill="none" stroke="midnightblue" d="M762.948,-348.377C754.843,-320.172 732.67,-243.012 721.954,-205.72"/>
<polygon fill="midnightblue" stroke="midnightblue" points="725.266,-204.572 719.14,-195.928 718.538,-206.505 725.266,-204.572"/>
</g>
<!-- Node37&#45;&gt;Node26 -->
<g id="edge142" class="edge"><title>Node37&#45;&gt;Node26</title>
<path fill="none" stroke="midnightblue" d="M737.174,-351.536C699.165,-341.695 631.877,-324.272 587.103,-312.678"/>
<polygon fill="midnightblue" stroke="midnightblue" points="587.911,-309.272 577.352,-310.154 586.156,-316.049 587.911,-309.272"/>
</g>
<!-- Node38&#45;&gt;Node1 -->
<g id="edge158" class="edge"><title>Node38&#45;&gt;Node1</title>
<path fill="none" stroke="midnightblue" d="M882.672,-253.552C896.312,-273.556 916,-318.612 916,-359 916,-765 916,-765 916,-765 916,-798.402 916,-837.215 913.552,-860.406"/>
<polygon fill="midnightblue" stroke="midnightblue" points="910.068,-860.054 912.143,-870.444 917,-861.027 910.068,-860.054"/>
</g>
<!-- Node38&#45;&gt;Node3 -->
<g id="edge154" class="edge"><title>Node38&#45;&gt;Node3</title>
<path fill="none" stroke="midnightblue" d="M879.221,-232.103C899.135,-200.58 950.381,-108.341 904,-58 886.097,-38.5687 505.725,-19.124 374.809,-12.9844"/>
<polygon fill="midnightblue" stroke="midnightblue" points="374.886,-9.4843 364.734,-12.5152 374.56,-16.4767 374.886,-9.4843"/>
</g>
<!-- Node38&#45;&gt;Node18 -->
<g id="edge156" class="edge"><title>Node38&#45;&gt;Node18</title>
<path fill="none" stroke="midnightblue" d="M843.75,-232.497C818.538,-223.123 781.424,-209.324 753.688,-199.012"/>
<polygon fill="midnightblue" stroke="midnightblue" points="754.896,-195.727 744.303,-195.523 752.457,-202.289 754.896,-195.727"/>
</g>
<!-- Node38&#45;&gt;Node22 -->
<g id="edge160" class="edge"><title>Node38&#45;&gt;Node22</title>
<path fill="none" stroke="midnightblue" d="M871.878,-232.377C871.555,-204.293 870.674,-127.673 870.244,-90.2027"/>
<polygon fill="midnightblue" stroke="midnightblue" points="873.74,-89.8868 870.126,-79.9277 866.741,-89.9673 873.74,-89.8868"/>
</g>
</g>
</svg>
