<?xml version="1.0" encoding="UTF-8" standalone="no"?>
<!DOCTYPE svg PUBLIC "-//W3C//DTD SVG 1.1//EN"
 "http://www.w3.org/Graphics/SVG/1.1/DTD/svg11.dtd">
<!-- Generated by graphviz version 2.26.0 (20091210.2329)
 -->
<!-- Title: odset.h Pages: 1 -->
<svg width="3058pt" height="262pt"
 viewBox="0.00 0.00 3058.03 262.00" xmlns="http://www.w3.org/2000/svg" xmlns:xlink="http://www.w3.org/1999/xlink">
<g id="graph1" class="graph" transform="scale(1 1) rotate(0) translate(4 258)">
<title>odset.h</title>
<polygon fill="white" stroke="white" points="-4,5 -4,-258 3055.03,-258 3055.03,5 -4,5"/>
<!-- Node1 -->
<g id="node1" class="node"><title>Node1</title>
<polygon fill="#bfbfbf" stroke="black" points="2216.04,-232.5 2216.04,-253.5 2265.04,-253.5 2265.04,-232.5 2216.04,-232.5"/>
<text text-anchor="middle" x="2240.54" y="-240.5" font-family="Helvetica,sans-Serif" font-size="10.00">odset.h</text>
</g>
<!-- Node2 -->
<g id="node3" class="node"><title>Node2</title>
<a xlink:href="objectset_8h.html" target="_top" xlink:title="objectset.h">
<polygon fill="white" stroke="black" points="1236.04,-116.5 1236.04,-137.5 1301.04,-137.5 1301.04,-116.5 1236.04,-116.5"/>
<text text-anchor="middle" x="1268.54" y="-124.5" font-family="Helvetica,sans-Serif" font-size="10.00">objectset.h</text>
</a>
</g>
<!-- Node1&#45;&gt;Node2 -->
<g id="edge2" class="edge"><title>Node1&#45;&gt;Node2</title>
<path fill="none" stroke="midnightblue" d="M2205.9,-238.866C2054.16,-220.757 1449.14,-148.554 1301.27,-130.906"/>
<polygon fill="midnightblue" stroke="midnightblue" points="2205.68,-242.365 2216.02,-240.075 2206.51,-235.414 2205.68,-242.365"/>
</g>
<!-- Node31 -->
<g id="node63" class="node"><title>Node31</title>
<a xlink:href="typeset_8h.html" target="_top" xlink:title="typeset.h">
<polygon fill="white" stroke="red" points="2212.04,-174.5 2212.04,-195.5 2269.04,-195.5 2269.04,-174.5 2212.04,-174.5"/>
<text text-anchor="middle" x="2240.54" y="-182.5" font-family="Helvetica,sans-Serif" font-size="10.00">typeset.h</text>
</a>
</g>
<!-- Node1&#45;&gt;Node31 -->
<g id="edge64" class="edge"><title>Node1&#45;&gt;Node31</title>
<path fill="none" stroke="midnightblue" d="M2240.54,-222.191C2240.54,-213.168 2240.54,-202.994 2240.54,-195.571"/>
<polygon fill="midnightblue" stroke="midnightblue" points="2237.04,-222.362 2240.54,-232.362 2244.04,-222.362 2237.04,-222.362"/>
</g>
<!-- Node50 -->
<g id="node117" class="node"><title>Node50</title>
<a xlink:href="statrand_8h.html" target="_top" xlink:title="statrand.h">
<polygon fill="white" stroke="red" points="2286.54,-174.5 2286.54,-195.5 2346.54,-195.5 2346.54,-174.5 2286.54,-174.5"/>
<text text-anchor="middle" x="2316.54" y="-182.5" font-family="Helvetica,sans-Serif" font-size="10.00">statrand.h</text>
</a>
</g>
<!-- Node1&#45;&gt;Node50 -->
<g id="edge134" class="edge"><title>Node1&#45;&gt;Node50</title>
<path fill="none" stroke="midnightblue" d="M2262.47,-226.259C2275.44,-216.364 2291.46,-204.136 2302.69,-195.571"/>
<polygon fill="midnightblue" stroke="midnightblue" points="2260.3,-223.513 2254.48,-232.362 2264.55,-229.077 2260.3,-223.513"/>
</g>
<!-- Node3 -->
<g id="node5" class="node"><title>Node3</title>
<a xlink:href="refcount_8h.html" target="_top" xlink:title="refcount.h">
<polygon fill="white" stroke="red" points="356.538,-58.5 356.538,-79.5 416.538,-79.5 416.538,-58.5 356.538,-58.5"/>
<text text-anchor="middle" x="386.538" y="-66.5" font-family="Helvetica,sans-Serif" font-size="10.00">refcount.h</text>
</a>
</g>
<!-- Node2&#45;&gt;Node3 -->
<g id="edge4" class="edge"><title>Node2&#45;&gt;Node3</title>
<path fill="none" stroke="midnightblue" d="M1225.81,-125.856C1077,-121.68 582.087,-106.116 425.538,-80 422.623,-79.5138 419.616,-78.8911 416.623,-78.1897"/>
<polygon fill="midnightblue" stroke="midnightblue" points="1225.82,-129.358 1235.92,-126.137 1226.02,-122.361 1225.82,-129.358"/>
</g>
<!-- Node5 -->
<g id="node9" class="node"><title>Node5</title>
<a xlink:href="transl_8h.html" target="_top" xlink:title="transl.h">
<polygon fill="white" stroke="red" points="1244.04,-0.5 1244.04,-21.5 1293.04,-21.5 1293.04,-0.5 1244.04,-0.5"/>
<text text-anchor="middle" x="1268.54" y="-8.5" font-family="Helvetica,sans-Serif" font-size="10.00">transl.h</text>
</a>
</g>
<!-- Node2&#45;&gt;Node5 -->
<g id="edge26" class="edge"><title>Node2&#45;&gt;Node5</title>
<path fill="none" stroke="midnightblue" d="M1268.54,-106.123C1268.54,-81.2984 1268.54,-40.8235 1268.54,-21.6792"/>
<polygon fill="midnightblue" stroke="midnightblue" points="1265.04,-106.295 1268.54,-116.295 1272.04,-106.295 1265.04,-106.295"/>
</g>
<!-- Node6 -->
<g id="node11" class="node"><title>Node6</title>
<a xlink:href="sets_8h.html" target="_top" xlink:title="sets.h">
<polygon fill="white" stroke="red" points="1682.54,-58.5 1682.54,-79.5 1726.54,-79.5 1726.54,-58.5 1682.54,-58.5"/>
<text text-anchor="middle" x="1704.54" y="-66.5" font-family="Helvetica,sans-Serif" font-size="10.00">sets.h</text>
</a>
</g>
<!-- Node2&#45;&gt;Node6 -->
<g id="edge10" class="edge"><title>Node2&#45;&gt;Node6</title>
<path fill="none" stroke="midnightblue" d="M1311.64,-125.187C1386.25,-121.345 1543.91,-110.113 1673.54,-80 1676.43,-79.328 1679.43,-78.4752 1682.37,-77.5427"/>
<polygon fill="midnightblue" stroke="midnightblue" points="1311.06,-121.711 1301.25,-125.702 1311.41,-128.703 1311.06,-121.711"/>
</g>
<!-- Node7 -->
<g id="node13" class="node"><title>Node7</title>
<a xlink:href="task_8h.html" target="_top" xlink:title="task.h">
<polygon fill="white" stroke="red" points="2060.54,-58.5 2060.54,-79.5 2104.54,-79.5 2104.54,-58.5 2060.54,-58.5"/>
<text text-anchor="middle" x="2082.54" y="-66.5" font-family="Helvetica,sans-Serif" font-size="10.00">task.h</text>
</a>
</g>
<!-- Node2&#45;&gt;Node7 -->
<g id="edge12" class="edge"><title>Node2&#45;&gt;Node7</title>
<path fill="none" stroke="midnightblue" d="M1311.72,-124.744C1470.55,-116.404 2015.09,-87.4058 2051.54,-80 2054.45,-79.4087 2057.45,-78.6037 2060.4,-77.6963"/>
<polygon fill="midnightblue" stroke="midnightblue" points="1311.19,-121.267 1301.39,-125.286 1311.56,-128.257 1311.19,-121.267"/>
</g>
<!-- Node8 -->
<g id="node15" class="node"><title>Node8</title>
<a xlink:href="threadwork_8h.html" target="_top" xlink:title="threadwork.h">
<polygon fill="white" stroke="red" points="1678.04,-0.5 1678.04,-21.5 1751.04,-21.5 1751.04,-0.5 1678.04,-0.5"/>
<text text-anchor="middle" x="1714.54" y="-8.5" font-family="Helvetica,sans-Serif" font-size="10.00">threadwork.h</text>
</a>
</g>
<!-- Node2&#45;&gt;Node8 -->
<g id="edge22" class="edge"><title>Node2&#45;&gt;Node8</title>
<path fill="none" stroke="midnightblue" d="M1278.83,-107.743C1288.58,-91.5711 1304.8,-69.3395 1325.54,-58 1385.82,-25.0427 1593.17,-14.833 1677.96,-11.9922"/>
<polygon fill="midnightblue" stroke="midnightblue" points="1275.78,-106.02 1273.85,-116.437 1281.86,-109.497 1275.78,-106.02"/>
</g>
<!-- Node9 -->
<g id="node17" class="node"><title>Node9</title>
<a xlink:href="manobjectset_8h.html" target="_top" xlink:title="manobjectset.h">
<polygon fill="white" stroke="red" points="1334.04,-58.5 1334.04,-79.5 1417.04,-79.5 1417.04,-58.5 1334.04,-58.5"/>
<text text-anchor="middle" x="1375.54" y="-66.5" font-family="Helvetica,sans-Serif" font-size="10.00">manobjectset.h</text>
</a>
</g>
<!-- Node2&#45;&gt;Node9 -->
<g id="edge16" class="edge"><title>Node2&#45;&gt;Node9</title>
<path fill="none" stroke="midnightblue" d="M1297.1,-111.517C1315.73,-101.419 1339.56,-88.5032 1356.04,-79.5707"/>
<polygon fill="midnightblue" stroke="midnightblue" points="1295.29,-108.519 1288.16,-116.362 1298.62,-114.673 1295.29,-108.519"/>
</g>
<!-- Node11 -->
<g id="node21" class="node"><title>Node11</title>
<a xlink:href="texttranslator_8h.html" target="_top" xlink:title="texttranslator.h">
<polygon fill="white" stroke="black" points="1844.54,-58.5 1844.54,-79.5 1926.54,-79.5 1926.54,-58.5 1844.54,-58.5"/>
<text text-anchor="middle" x="1885.54" y="-66.5" font-family="Helvetica,sans-Serif" font-size="10.00">texttranslator.h</text>
</a>
</g>
<!-- Node2&#45;&gt;Node11 -->
<g id="edge20" class="edge"><title>Node2&#45;&gt;Node11</title>
<path fill="none" stroke="midnightblue" d="M1311.39,-125.408C1406.28,-121.453 1641.13,-109.307 1835.54,-80 1838.44,-79.5628 1841.42,-79.0555 1844.42,-78.5034"/>
<polygon fill="midnightblue" stroke="midnightblue" points="1311.16,-121.914 1301.31,-125.818 1311.45,-128.908 1311.16,-121.914"/>
</g>
<!-- Node12 -->
<g id="node24" class="node"><title>Node12</title>
<a xlink:href="sincinterpolator_8h.html" target="_top" xlink:title="sincinterpolator.h">
<polygon fill="white" stroke="black" points="1574.04,-58.5 1574.04,-79.5 1665.04,-79.5 1665.04,-58.5 1574.04,-58.5"/>
<text text-anchor="middle" x="1619.54" y="-66.5" font-family="Helvetica,sans-Serif" font-size="10.00">sincinterpolator.h</text>
</a>
</g>
<!-- Node2&#45;&gt;Node12 -->
<g id="edge24" class="edge"><title>Node2&#45;&gt;Node12</title>
<path fill="none" stroke="midnightblue" d="M1311.36,-120.829C1369.17,-112.358 1475.35,-96.3145 1565.54,-80 1568.27,-79.5061 1571.07,-78.983 1573.9,-78.4436"/>
<polygon fill="midnightblue" stroke="midnightblue" points="1310.53,-117.412 1301.14,-122.321 1311.54,-124.339 1310.53,-117.412"/>
</g>
<!-- Node13 -->
<g id="node27" class="node"><title>Node13</title>
<a xlink:href="iodir_8h.html" target="_top" xlink:title="iodir.h">
<polygon fill="white" stroke="black" points="434.038,-58.5 434.038,-79.5 477.038,-79.5 477.038,-58.5 434.038,-58.5"/>
<text text-anchor="middle" x="455.538" y="-66.5" font-family="Helvetica,sans-Serif" font-size="10.00">iodir.h</text>
</a>
</g>
<!-- Node2&#45;&gt;Node13 -->
<g id="edge28" class="edge"><title>Node2&#45;&gt;Node13</title>
<path fill="none" stroke="midnightblue" d="M1225.98,-126.076C1084.21,-122.743 628.925,-109.918 485.538,-80 482.823,-79.4335 480.024,-78.6686 477.277,-77.8045"/>
<polygon fill="midnightblue" stroke="midnightblue" points="1225.94,-129.576 1236.02,-126.308 1226.11,-122.578 1225.94,-129.576"/>
</g>
<!-- Node14 -->
<g id="node29" class="node"><title>Node14</title>
<a xlink:href="iodirentry_8h.html" target="_top" xlink:title="iodirentry.h">
<polygon fill="white" stroke="black" points="494.038,-58.5 494.038,-79.5 559.038,-79.5 559.038,-58.5 494.038,-58.5"/>
<text text-anchor="middle" x="526.538" y="-66.5" font-family="Helvetica,sans-Serif" font-size="10.00">iodirentry.h</text>
</a>
</g>
<!-- Node2&#45;&gt;Node14 -->
<g id="edge30" class="edge"><title>Node2&#45;&gt;Node14</title>
<path fill="none" stroke="midnightblue" d="M1225.76,-125.228C1093.98,-119.597 695.383,-101.227 567.538,-80 564.775,-79.5413 561.929,-78.9764 559.086,-78.3469"/>
<polygon fill="midnightblue" stroke="midnightblue" points="1225.73,-128.73 1235.87,-125.658 1226.03,-121.736 1225.73,-128.73"/>
</g>
<!-- Node15 -->
<g id="node31" class="node"><title>Node15</title>
<a xlink:href="linesetposinfo_8h.html" target="_top" xlink:title="linesetposinfo.h">
<polygon fill="white" stroke="black" points="1472.04,-58.5 1472.04,-79.5 1557.04,-79.5 1557.04,-58.5 1472.04,-58.5"/>
<text text-anchor="middle" x="1514.54" y="-66.5" font-family="Helvetica,sans-Serif" font-size="10.00">linesetposinfo.h</text>
</a>
</g>
<!-- Node2&#45;&gt;Node15 -->
<g id="edge32" class="edge"><title>Node2&#45;&gt;Node15</title>
<path fill="none" stroke="midnightblue" d="M1310.95,-117C1355.96,-106.388 1426.68,-89.7136 1471.81,-79.0738"/>
<polygon fill="midnightblue" stroke="midnightblue" points="1310.13,-113.597 1301.2,-119.298 1311.74,-120.41 1310.13,-113.597"/>
</g>
<!-- Node16 -->
<g id="node33" class="node"><title>Node16</title>
<a xlink:href="stratlevel_8h.html" target="_top" xlink:title="stratlevel.h">
<polygon fill="white" stroke="red" points="576.038,-58.5 576.038,-79.5 641.038,-79.5 641.038,-58.5 576.038,-58.5"/>
<text text-anchor="middle" x="608.538" y="-66.5" font-family="Helvetica,sans-Serif" font-size="10.00">stratlevel.h</text>
</a>
</g>
<!-- Node2&#45;&gt;Node16 -->
<g id="edge34" class="edge"><title>Node2&#45;&gt;Node16</title>
<path fill="none" stroke="midnightblue" d="M1225.6,-126.485C1124.48,-124.676 863.734,-116.537 649.538,-80 646.777,-79.5291 643.933,-78.9556 641.09,-78.3204"/>
<polygon fill="midnightblue" stroke="midnightblue" points="1225.67,-129.986 1235.73,-126.654 1225.79,-122.987 1225.67,-129.986"/>
</g>
<!-- Node17 -->
<g id="node35" class="node"><title>Node17</title>
<a xlink:href="ziparchiveinfo_8h.html" target="_top" xlink:title="ziparchiveinfo.h">
<polygon fill="white" stroke="black" points="658.038,-58.5 658.038,-79.5 743.038,-79.5 743.038,-58.5 658.038,-58.5"/>
<text text-anchor="middle" x="700.538" y="-66.5" font-family="Helvetica,sans-Serif" font-size="10.00">ziparchiveinfo.h</text>
</a>
</g>
<!-- Node2&#45;&gt;Node17 -->
<g id="edge36" class="edge"><title>Node2&#45;&gt;Node17</title>
<path fill="none" stroke="midnightblue" d="M1225.8,-124.88C1137.03,-120.088 926.404,-106.705 751.538,-80 748.762,-79.5761 745.911,-79.0936 743.043,-78.5728"/>
<polygon fill="midnightblue" stroke="midnightblue" points="1225.84,-128.386 1236.01,-125.422 1226.21,-121.396 1225.84,-128.386"/>
</g>
<!-- Node18 -->
<g id="node37" class="node"><title>Node18</title>
<a xlink:href="stratcontent_8h.html" target="_top" xlink:title="stratcontent.h">
<polygon fill="white" stroke="red" points="760.038,-58.5 760.038,-79.5 837.038,-79.5 837.038,-58.5 760.038,-58.5"/>
<text text-anchor="middle" x="798.538" y="-66.5" font-family="Helvetica,sans-Serif" font-size="10.00">stratcontent.h</text>
</a>
</g>
<!-- Node2&#45;&gt;Node18 -->
<g id="edge38" class="edge"><title>Node2&#45;&gt;Node18</title>
<path fill="none" stroke="midnightblue" d="M1225.77,-123.944C1149.16,-118.093 983.594,-103.738 845.538,-80 842.812,-79.5314 840.009,-79.0008 837.192,-78.432"/>
<polygon fill="midnightblue" stroke="midnightblue" points="1225.75,-127.452 1235.98,-124.713 1226.27,-120.472 1225.75,-127.452"/>
</g>
<!-- Node19 -->
<g id="node39" class="node"><title>Node19</title>
<a xlink:href="stratlayseqgendesc_8h.html" target="_top" xlink:title="stratlayseqgendesc.h">
<polygon fill="white" stroke="black" points="2122.54,-58.5 2122.54,-79.5 2232.54,-79.5 2232.54,-58.5 2122.54,-58.5"/>
<text text-anchor="middle" x="2177.54" y="-66.5" font-family="Helvetica,sans-Serif" font-size="10.00">stratlayseqgendesc.h</text>
</a>
</g>
<!-- Node2&#45;&gt;Node19 -->
<g id="edge40" class="edge"><title>Node2&#45;&gt;Node19</title>
<path fill="none" stroke="midnightblue" d="M1311.49,-124.748C1477.96,-116.003 2073.38,-84.5525 2113.54,-80 2116.45,-79.6698 2119.43,-79.2932 2122.44,-78.8831"/>
<polygon fill="midnightblue" stroke="midnightblue" points="1310.96,-121.271 1301.15,-125.291 1311.32,-128.262 1310.96,-121.271"/>
</g>
<!-- Node20 -->
<g id="node41" class="node"><title>Node20</title>
<a xlink:href="netreqconnection_8h.html" target="_top" xlink:title="netreqconnection.h">
<polygon fill="white" stroke="black" points="1944.04,-58.5 1944.04,-79.5 2043.04,-79.5 2043.04,-58.5 1944.04,-58.5"/>
<text text-anchor="middle" x="1993.54" y="-66.5" font-family="Helvetica,sans-Serif" font-size="10.00">netreqconnection.h</text>
</a>
</g>
<!-- Node2&#45;&gt;Node20 -->
<g id="edge42" class="edge"><title>Node2&#45;&gt;Node20</title>
<path fill="none" stroke="midnightblue" d="M1311.3,-124.644C1438.62,-117.527 1813.91,-95.7645 1935.54,-80 1938.28,-79.6443 1941.09,-79.2413 1943.93,-78.8049"/>
<polygon fill="midnightblue" stroke="midnightblue" points="1310.95,-121.158 1301.16,-125.209 1311.34,-128.147 1310.95,-121.158"/>
</g>
<!-- Node21 -->
<g id="node43" class="node"><title>Node21</title>
<a xlink:href="emstoredobjaccess_8h.html" target="_top" xlink:title="emstoredobjaccess.h">
<polygon fill="white" stroke="black" points="2250.54,-58.5 2250.54,-79.5 2360.54,-79.5 2360.54,-58.5 2250.54,-58.5"/>
<text text-anchor="middle" x="2305.54" y="-66.5" font-family="Helvetica,sans-Serif" font-size="10.00">emstoredobjaccess.h</text>
</a>
</g>
<!-- Node2&#45;&gt;Node21 -->
<g id="edge44" class="edge"><title>Node2&#45;&gt;Node21</title>
<path fill="none" stroke="midnightblue" d="M1311.51,-124.755C1354.91,-122.499 1423.88,-118.943 1483.54,-116 1820.4,-99.3834 1906.26,-116.634 2241.54,-80 2244.45,-79.6816 2247.43,-79.3144 2250.44,-78.9116"/>
<polygon fill="midnightblue" stroke="midnightblue" points="1311.12,-121.27 1301.32,-125.285 1311.49,-128.261 1311.12,-121.27"/>
</g>
<!-- Node22 -->
<g id="node45" class="node"><title>Node22</title>
<a xlink:href="horizonrelation_8h.html" target="_top" xlink:title="horizonrelation.h">
<polygon fill="white" stroke="black" points="854.538,-58.5 854.538,-79.5 942.538,-79.5 942.538,-58.5 854.538,-58.5"/>
<text text-anchor="middle" x="898.538" y="-66.5" font-family="Helvetica,sans-Serif" font-size="10.00">horizonrelation.h</text>
</a>
</g>
<!-- Node2&#45;&gt;Node22 -->
<g id="edge46" class="edge"><title>Node2&#45;&gt;Node22</title>
<path fill="none" stroke="midnightblue" d="M1226.02,-121.487C1165.07,-113.403 1049.41,-97.3965 951.538,-80 948.67,-79.4902 945.719,-78.9425 942.748,-78.3736"/>
<polygon fill="midnightblue" stroke="midnightblue" points="1225.67,-124.97 1236.04,-122.809 1226.58,-118.03 1225.67,-124.97"/>
</g>
<!-- Node23 -->
<g id="node47" class="node"><title>Node23</title>
<a xlink:href="segyhdrdef_8h.html" target="_top" xlink:title="segyhdrdef.h">
<polygon fill="white" stroke="red" points="960.038,-58.5 960.038,-79.5 1033.04,-79.5 1033.04,-58.5 960.038,-58.5"/>
<text text-anchor="middle" x="996.538" y="-66.5" font-family="Helvetica,sans-Serif" font-size="10.00">segyhdrdef.h</text>
</a>
</g>
<!-- Node2&#45;&gt;Node23 -->
<g id="edge48" class="edge"><title>Node2&#45;&gt;Node23</title>
<path fill="none" stroke="midnightblue" d="M1225.9,-118.643C1180.21,-109.576 1105.59,-94.4551 1041.54,-80 1038.87,-79.398 1036.12,-78.762 1033.35,-78.1114"/>
<polygon fill="midnightblue" stroke="midnightblue" points="1225.27,-122.085 1235.75,-120.593 1226.62,-115.218 1225.27,-122.085"/>
</g>
<!-- Node24 -->
<g id="node49" class="node"><title>Node24</title>
<a xlink:href="seis2ddata_8h.html" target="_top" xlink:title="seis2ddata.h">
<polygon fill="white" stroke="black" points="1050.54,-58.5 1050.54,-79.5 1122.54,-79.5 1122.54,-58.5 1050.54,-58.5"/>
<text text-anchor="middle" x="1086.54" y="-66.5" font-family="Helvetica,sans-Serif" font-size="10.00">seis2ddata.h</text>
</a>
</g>
<!-- Node2&#45;&gt;Node24 -->
<g id="edge50" class="edge"><title>Node2&#45;&gt;Node24</title>
<path fill="none" stroke="midnightblue" d="M1226.33,-113.55C1193.88,-103.208 1149.67,-89.1175 1119.72,-79.5733"/>
<polygon fill="midnightblue" stroke="midnightblue" points="1225.41,-116.929 1236,-116.631 1227.53,-110.26 1225.41,-116.929"/>
</g>
<!-- Node25 -->
<g id="node51" class="node"><title>Node25</title>
<a xlink:href="seiscubeprov_8h.html" target="_top" xlink:title="seiscubeprov.h">
<polygon fill="white" stroke="black" points="1744.04,-58.5 1744.04,-79.5 1827.04,-79.5 1827.04,-58.5 1744.04,-58.5"/>
<text text-anchor="middle" x="1785.54" y="-66.5" font-family="Helvetica,sans-Serif" font-size="10.00">seiscubeprov.h</text>
</a>
</g>
<!-- Node2&#45;&gt;Node25 -->
<g id="edge52" class="edge"><title>Node2&#45;&gt;Node25</title>
<path fill="none" stroke="midnightblue" d="M1311.26,-124.369C1393.68,-118.925 1580.24,-104.811 1735.54,-80 1738.26,-79.5653 1741.05,-79.0746 1743.87,-78.5478"/>
<polygon fill="midnightblue" stroke="midnightblue" points="1311.01,-120.878 1301.26,-125.02 1311.47,-127.863 1311.01,-120.878"/>
</g>
<!-- Node26 -->
<g id="node53" class="node"><title>Node26</title>
<a xlink:href="seisselectionimpl_8h.html" target="_top" xlink:title="seisselectionimpl.h">
<polygon fill="white" stroke="black" points="1140.54,-58.5 1140.54,-79.5 1240.54,-79.5 1240.54,-58.5 1140.54,-58.5"/>
<text text-anchor="middle" x="1190.54" y="-66.5" font-family="Helvetica,sans-Serif" font-size="10.00">seisselectionimpl.h</text>
</a>
</g>
<!-- Node2&#45;&gt;Node26 -->
<g id="edge54" class="edge"><title>Node2&#45;&gt;Node26</title>
<path fill="none" stroke="midnightblue" d="M1246.02,-110.259C1232.72,-100.364 1216.27,-88.1361 1204.75,-79.5707"/>
<polygon fill="midnightblue" stroke="midnightblue" points="1244.12,-113.203 1254.23,-116.362 1248.3,-107.586 1244.12,-113.203"/>
</g>
<!-- Node27 -->
<g id="node55" class="node"><title>Node27</title>
<a xlink:href="semblancealgo_8h.html" target="_top" xlink:title="semblancealgo.h">
<polygon fill="white" stroke="black" points="2381.54,-0.5 2381.54,-21.5 2471.54,-21.5 2471.54,-0.5 2381.54,-0.5"/>
<text text-anchor="middle" x="2426.54" y="-8.5" font-family="Helvetica,sans-Serif" font-size="10.00">semblancealgo.h</text>
</a>
</g>
<!-- Node2&#45;&gt;Node27 -->
<g id="edge56" class="edge"><title>Node2&#45;&gt;Node27</title>
<path fill="none" stroke="midnightblue" d="M1311.15,-117.125C1343.28,-108.996 1388.06,-96.1905 1425.54,-80 1443.45,-72.2599 1444.82,-63.5202 1463.54,-58 1508.02,-44.8831 2197.23,-19.252 2381.52,-12.6052"/>
<polygon fill="midnightblue" stroke="midnightblue" points="1310.05,-113.792 1301.19,-119.598 1311.74,-120.585 1310.05,-113.792"/>
</g>
<!-- Node28 -->
<g id="node57" class="node"><title>Node28</title>
<a xlink:href="identifierman_8h.html" target="_top" xlink:title="identifierman.h">
<polygon fill="white" stroke="red" points="18.5378,-58.5 18.5378,-79.5 98.5378,-79.5 98.5378,-58.5 18.5378,-58.5"/>
<text text-anchor="middle" x="58.5378" y="-66.5" font-family="Helvetica,sans-Serif" font-size="10.00">identifierman.h</text>
</a>
</g>
<!-- Node2&#45;&gt;Node28 -->
<g id="edge58" class="edge"><title>Node2&#45;&gt;Node28</title>
<path fill="none" stroke="midnightblue" d="M1225.69,-126.301C1043.22,-123.164 330.114,-109.245 107.538,-80 104.599,-79.6138 101.576,-79.1362 98.5438,-78.5982"/>
<polygon fill="midnightblue" stroke="midnightblue" points="1225.9,-129.805 1235.96,-126.476 1226.02,-122.806 1225.9,-129.805"/>
</g>
<!-- Node29 -->
<g id="node59" class="node"><title>Node29</title>
<a xlink:href="visnodestate_8h.html" target="_top" xlink:title="visnodestate.h">
<polygon fill="white" stroke="red" points="116.538,-58.5 116.538,-79.5 196.538,-79.5 196.538,-58.5 116.538,-58.5"/>
<text text-anchor="middle" x="156.538" y="-66.5" font-family="Helvetica,sans-Serif" font-size="10.00">visnodestate.h</text>
</a>
</g>
<!-- Node2&#45;&gt;Node29 -->
<g id="edge60" class="edge"><title>Node2&#45;&gt;Node29</title>
<path fill="none" stroke="midnightblue" d="M1225.7,-126.117C1053.06,-122.401 407.872,-106.969 205.538,-80 202.599,-79.6084 199.577,-79.1267 196.545,-78.5859"/>
<polygon fill="midnightblue" stroke="midnightblue" points="1225.85,-129.621 1235.92,-126.335 1225.99,-122.622 1225.85,-129.621"/>
</g>
<!-- Node30 -->
<g id="node61" class="node"><title>Node30</title>
<a xlink:href="visrandomtrackdragger_8h.html" target="_top" xlink:title="visrandomtrackdragger.h">
<polygon fill="white" stroke="black" points="214.538,-58.5 214.538,-79.5 338.538,-79.5 338.538,-58.5 214.538,-58.5"/>
<text text-anchor="middle" x="276.538" y="-66.5" font-family="Helvetica,sans-Serif" font-size="10.00">visrandomtrackdragger.h</text>
</a>
</g>
<!-- Node2&#45;&gt;Node30 -->
<g id="edge62" class="edge"><title>Node2&#45;&gt;Node30</title>
<path fill="none" stroke="midnightblue" d="M1225.76,-126.378C1094.31,-124.132 684.808,-114.64 347.538,-80 344.684,-79.7069 341.77,-79.3777 338.829,-79.0212"/>
<polygon fill="midnightblue" stroke="midnightblue" points="1225.76,-129.878 1235.82,-126.545 1225.88,-122.879 1225.76,-129.878"/>
</g>
<!-- Node4 -->
<g id="node7" class="node"><title>Node4</title>
<a xlink:href="positionlist_8h.html" target="_top" xlink:title="positionlist.h">
<polygon fill="white" stroke="red" points="153.038,-0.5 153.038,-21.5 224.038,-21.5 224.038,-0.5 153.038,-0.5"/>
<text text-anchor="middle" x="188.538" y="-8.5" font-family="Helvetica,sans-Serif" font-size="10.00">positionlist.h</text>
</a>
</g>
<!-- Node3&#45;&gt;Node4 -->
<g id="edge6" class="edge"><title>Node3&#45;&gt;Node4</title>
<path fill="none" stroke="midnightblue" d="M346.826,-57.3673C311.008,-46.8751 258.797,-31.5811 224.265,-21.4656"/>
<polygon fill="midnightblue" stroke="midnightblue" points="345.885,-60.7387 356.466,-60.191 347.853,-54.021 345.885,-60.7387"/>
</g>
<!-- Node3&#45;&gt;Node5 -->
<g id="edge8" class="edge"><title>Node3&#45;&gt;Node5</title>
<path fill="none" stroke="midnightblue" d="M426.591,-58.2045C608.732,-30.1333 1124.26,-14.8861 1243.66,-11.6512"/>
<polygon fill="midnightblue" stroke="midnightblue" points="425.939,-54.7643 416.623,-59.8103 427.053,-61.6752 425.939,-54.7643"/>
</g>
<!-- Node7&#45;&gt;Node8 -->
<g id="edge14" class="edge"><title>Node7&#45;&gt;Node8</title>
<path fill="none" stroke="midnightblue" d="M2050.45,-58.1154C1936.9,-31.0366 1812.11,-18.6354 1751.4,-13.6851"/>
<polygon fill="midnightblue" stroke="midnightblue" points="2049.81,-61.5603 2060.35,-60.5207 2051.46,-54.7582 2049.81,-61.5603"/>
</g>
<!-- Node10 -->
<g id="node19" class="node"><title>Node10</title>
<a xlink:href="posinfo_8h.html" target="_top" xlink:title="posinfo.h">
<polygon fill="white" stroke="red" points="2032.54,-0.5 2032.54,-21.5 2088.54,-21.5 2088.54,-0.5 2032.54,-0.5"/>
<text text-anchor="middle" x="2060.54" y="-8.5" font-family="Helvetica,sans-Serif" font-size="10.00">posinfo.h</text>
</a>
</g>
<!-- Node9&#45;&gt;Node10 -->
<g id="edge18" class="edge"><title>Node9&#45;&gt;Node10</title>
<path fill="none" stroke="midnightblue" d="M1427.25,-58.4689C1428.36,-58.3051 1429.45,-58.1485 1430.54,-58 1661.73,-26.3793 1943.77,-14.855 2032.46,-11.8636"/>
<polygon fill="midnightblue" stroke="midnightblue" points="1426.49,-55.0461 1417.19,-60.1104 1427.62,-61.9548 1426.49,-55.0461"/>
</g>
<!-- Node31&#45;&gt;Node4 -->
<g id="edge126" class="edge"><title>Node31&#45;&gt;Node4</title>
<path fill="none" stroke="midnightblue" d="M2201.71,-183.216C2067,-177.021 1607.23,-155.849 1227.54,-138 956.863,-125.276 196.533,-276.111 9.53783,-80 -34.7054,-33.5998 88.8016,-17.9663 152.795,-13.0654"/>
<polygon fill="midnightblue" stroke="midnightblue" points="2201.78,-186.723 2211.93,-183.686 2202.11,-179.73 2201.78,-186.723"/>
</g>
<!-- Node31&#45;&gt;Node6 -->
<g id="edge66" class="edge"><title>Node31&#45;&gt;Node6</title>
<path fill="none" stroke="midnightblue" d="M2201.65,-184.584C2083.28,-182.918 1733.36,-174.889 1699.54,-138 1685.01,-122.154 1693.24,-94.7329 1699.51,-79.6712"/>
<polygon fill="midnightblue" stroke="midnightblue" points="2201.68,-188.085 2211.72,-184.718 2201.77,-181.085 2201.68,-188.085"/>
</g>
<!-- Node31&#45;&gt;Node10 -->
<g id="edge98" class="edge"><title>Node31&#45;&gt;Node10</title>
<path fill="none" stroke="midnightblue" d="M2229.23,-165.42C2222.19,-150.371 2216.39,-129.877 2227.54,-116 2275.69,-56.0507 2440.93,-116.079 2390.54,-58 2370.79,-35.2435 2164.8,-18.4088 2088.64,-12.9204"/>
<polygon fill="midnightblue" stroke="midnightblue" points="2226.17,-167.121 2233.87,-174.398 2232.39,-163.907 2226.17,-167.121"/>
</g>
<!-- Node32 -->
<g id="node66" class="node"><title>Node32</title>
<a xlink:href="uistring_8h.html" target="_top" xlink:title="uistring.h">
<polygon fill="white" stroke="red" points="2054.54,-116.5 2054.54,-137.5 2110.54,-137.5 2110.54,-116.5 2054.54,-116.5"/>
<text text-anchor="middle" x="2082.54" y="-124.5" font-family="Helvetica,sans-Serif" font-size="10.00">uistring.h</text>
</a>
</g>
<!-- Node31&#45;&gt;Node32 -->
<g id="edge68" class="edge"><title>Node31&#45;&gt;Node32</title>
<path fill="none" stroke="midnightblue" d="M2202.36,-170.987C2174.1,-160.61 2136.21,-146.704 2110.67,-137.328"/>
<polygon fill="midnightblue" stroke="midnightblue" points="2201.33,-174.336 2211.93,-174.497 2203.74,-167.765 2201.33,-174.336"/>
</g>
<!-- Node33 -->
<g id="node69" class="node"><title>Node33</title>
<a xlink:href="factory_8h.html" target="_top" xlink:title="factory.h">
<polygon fill="white" stroke="red" points="2526.04,-58.5 2526.04,-79.5 2581.04,-79.5 2581.04,-58.5 2526.04,-58.5"/>
<text text-anchor="middle" x="2553.54" y="-66.5" font-family="Helvetica,sans-Serif" font-size="10.00">factory.h</text>
</a>
</g>
<!-- Node31&#45;&gt;Node33 -->
<g id="edge94" class="edge"><title>Node31&#45;&gt;Node33</title>
<path fill="none" stroke="midnightblue" d="M2279.12,-174.24C2365.89,-161.911 2560.21,-190.773 2607.54,-138 2625.21,-118.296 2593.91,-93.5005 2572.05,-79.6379"/>
<polygon fill="midnightblue" stroke="midnightblue" points="2278.36,-170.82 2269.09,-175.957 2279.54,-177.72 2278.36,-170.82"/>
</g>
<!-- Node34 -->
<g id="node71" class="node"><title>Node34</title>
<a xlink:href="interpollayermodel_8h.html" target="_top" xlink:title="interpollayermodel.h">
<polygon fill="white" stroke="black" points="2627.54,-0.5 2627.54,-21.5 2731.54,-21.5 2731.54,-0.5 2627.54,-0.5"/>
<text text-anchor="middle" x="2679.54" y="-8.5" font-family="Helvetica,sans-Serif" font-size="10.00">interpollayermodel.h</text>
</a>
</g>
<!-- Node31&#45;&gt;Node34 -->
<g id="edge128" class="edge"><title>Node31&#45;&gt;Node34</title>
<path fill="none" stroke="midnightblue" d="M2279.1,-174.451C2398.02,-162.272 2975.47,-196.808 3031.54,-138 3122.21,-42.8995 2849.91,-18.7967 2731.56,-12.8678"/>
<polygon fill="midnightblue" stroke="midnightblue" points="2278.51,-170.998 2269.06,-175.78 2279.43,-177.938 2278.51,-170.998"/>
</g>
<!-- Node35 -->
<g id="node80" class="node"><title>Node35</title>
<a xlink:href="posidxpairvalue_8h.html" target="_top" xlink:title="posidxpairvalue.h">
<polygon fill="white" stroke="red" points="1708.54,-116.5 1708.54,-137.5 1800.54,-137.5 1800.54,-116.5 1708.54,-116.5"/>
<text text-anchor="middle" x="1754.54" y="-124.5" font-family="Helvetica,sans-Serif" font-size="10.00">posidxpairvalue.h</text>
</a>
</g>
<!-- Node31&#45;&gt;Node35 -->
<g id="edge90" class="edge"><title>Node31&#45;&gt;Node35</title>
<path fill="none" stroke="midnightblue" d="M2201.92,-181.947C2126.32,-175.714 1953.59,-160.215 1809.54,-138 1806.65,-137.555 1803.68,-137.063 1800.7,-136.541"/>
<polygon fill="midnightblue" stroke="midnightblue" points="2201.68,-185.439 2211.93,-182.764 2202.25,-178.462 2201.68,-185.439"/>
</g>
<!-- Node36 -->
<g id="node82" class="node"><title>Node36</title>
<a xlink:href="commandlineparser_8h.html" target="_top" xlink:title="commandlineparser.h">
<polygon fill="white" stroke="red" points="1818.54,-116.5 1818.54,-137.5 1928.54,-137.5 1928.54,-116.5 1818.54,-116.5"/>
<text text-anchor="middle" x="1873.54" y="-124.5" font-family="Helvetica,sans-Serif" font-size="10.00">commandlineparser.h</text>
</a>
</g>
<!-- Node31&#45;&gt;Node36 -->
<g id="edge92" class="edge"><title>Node31&#45;&gt;Node36</title>
<path fill="none" stroke="midnightblue" d="M2201.55,-179.161C2143.83,-170.468 2032.25,-153.484 1937.54,-138 1934.64,-137.527 1931.68,-137.037 1928.69,-136.537"/>
<polygon fill="midnightblue" stroke="midnightblue" points="2201.28,-182.659 2211.69,-180.685 2202.32,-175.736 2201.28,-182.659"/>
</g>
<!-- Node37 -->
<g id="node85" class="node"><title>Node37</title>
<a xlink:href="trckeysampling_8h.html" target="_top" xlink:title="trckeysampling.h">
<polygon fill="white" stroke="red" points="1946.04,-116.5 1946.04,-137.5 2037.04,-137.5 2037.04,-116.5 1946.04,-116.5"/>
<text text-anchor="middle" x="1991.54" y="-124.5" font-family="Helvetica,sans-Serif" font-size="10.00">trckeysampling.h</text>
</a>
</g>
<!-- Node31&#45;&gt;Node37 -->
<g id="edge96" class="edge"><title>Node31&#45;&gt;Node37</title>
<path fill="none" stroke="midnightblue" d="M2202.12,-176.052C2157.61,-165.683 2084.33,-148.614 2037.01,-137.593"/>
<polygon fill="midnightblue" stroke="midnightblue" points="2201.44,-179.487 2211.97,-178.347 2203.03,-172.669 2201.44,-179.487"/>
</g>
<!-- Node38 -->
<g id="node88" class="node"><title>Node38</title>
<a xlink:href="posinfo2d_8h.html" target="_top" xlink:title="posinfo2d.h">
<polygon fill="white" stroke="red" points="1492.04,-116.5 1492.04,-137.5 1559.04,-137.5 1559.04,-116.5 1492.04,-116.5"/>
<text text-anchor="middle" x="1525.54" y="-124.5" font-family="Helvetica,sans-Serif" font-size="10.00">posinfo2d.h</text>
</a>
</g>
<!-- Node31&#45;&gt;Node38 -->
<g id="edge100" class="edge"><title>Node31&#45;&gt;Node38</title>
<path fill="none" stroke="midnightblue" d="M2201.85,-184.06C2099.6,-181.186 1813.87,-170.626 1578.54,-138 1572.21,-137.122 1565.5,-135.935 1559.06,-134.664"/>
<polygon fill="midnightblue" stroke="midnightblue" points="2201.91,-187.563 2212.01,-184.337 2202.11,-180.566 2201.91,-187.563"/>
</g>
<!-- Node39 -->
<g id="node91" class="node"><title>Node39</title>
<a xlink:href="ailayer_8h.html" target="_top" xlink:title="ailayer.h">
<polygon fill="white" stroke="red" points="2128.04,-116.5 2128.04,-137.5 2181.04,-137.5 2181.04,-116.5 2128.04,-116.5"/>
<text text-anchor="middle" x="2154.54" y="-124.5" font-family="Helvetica,sans-Serif" font-size="10.00">ailayer.h</text>
</a>
</g>
<!-- Node31&#45;&gt;Node39 -->
<g id="edge104" class="edge"><title>Node31&#45;&gt;Node39</title>
<path fill="none" stroke="midnightblue" d="M2216.13,-168.541C2201.39,-158.597 2183.03,-146.218 2170.21,-137.571"/>
<polygon fill="midnightblue" stroke="midnightblue" points="2214.52,-171.672 2224.76,-174.362 2218.43,-165.869 2214.52,-171.672"/>
</g>
<!-- Node40 -->
<g id="node93" class="node"><title>Node40</title>
<a xlink:href="mathfunc_8h.html" target="_top" xlink:title="mathfunc.h">
<polygon fill="white" stroke="red" points="1587.04,-116.5 1587.04,-137.5 1652.04,-137.5 1652.04,-116.5 1587.04,-116.5"/>
<text text-anchor="middle" x="1619.54" y="-124.5" font-family="Helvetica,sans-Serif" font-size="10.00">mathfunc.h</text>
</a>
</g>
<!-- Node31&#45;&gt;Node40 -->
<g id="edge106" class="edge"><title>Node31&#45;&gt;Node40</title>
<path fill="none" stroke="midnightblue" d="M2201.94,-183.814C2109.17,-180.534 1866.51,-169.41 1666.54,-138 1661.9,-137.272 1657.04,-136.336 1652.29,-135.318"/>
<polygon fill="midnightblue" stroke="midnightblue" points="2201.88,-187.314 2211.99,-184.159 2202.12,-180.318 2201.88,-187.314"/>
</g>
<!-- Node41 -->
<g id="node96" class="node"><title>Node41</title>
<a xlink:href="simpnumer_8h.html" target="_top" xlink:title="simpnumer.h">
<polygon fill="white" stroke="red" points="2236.04,-116.5 2236.04,-137.5 2309.04,-137.5 2309.04,-116.5 2236.04,-116.5"/>
<text text-anchor="middle" x="2272.54" y="-124.5" font-family="Helvetica,sans-Serif" font-size="10.00">simpnumer.h</text>
</a>
</g>
<!-- Node31&#45;&gt;Node41 -->
<g id="edge110" class="edge"><title>Node31&#45;&gt;Node41</title>
<path fill="none" stroke="midnightblue" d="M2251.37,-165.373C2256.5,-156.068 2262.43,-145.32 2266.71,-137.571"/>
<polygon fill="midnightblue" stroke="midnightblue" points="2248.17,-163.915 2246.41,-174.362 2254.3,-167.297 2248.17,-163.915"/>
</g>
<!-- Node42 -->
<g id="node98" class="node"><title>Node42</title>
<a xlink:href="polygon_8h.html" target="_top" xlink:title="polygon.h">
<polygon fill="white" stroke="red" points="2326.04,-116.5 2326.04,-137.5 2385.04,-137.5 2385.04,-116.5 2326.04,-116.5"/>
<text text-anchor="middle" x="2355.54" y="-124.5" font-family="Helvetica,sans-Serif" font-size="10.00">polygon.h</text>
</a>
</g>
<!-- Node31&#45;&gt;Node42 -->
<g id="edge112" class="edge"><title>Node31&#45;&gt;Node42</title>
<path fill="none" stroke="midnightblue" d="M2270.41,-169.932C2290.52,-159.793 2316.53,-146.675 2334.48,-137.621"/>
<polygon fill="midnightblue" stroke="midnightblue" points="2268.72,-166.868 2261.36,-174.497 2271.87,-173.118 2268.72,-166.868"/>
</g>
<!-- Node43 -->
<g id="node100" class="node"><title>Node43</title>
<a xlink:href="bendpoints2coords_8h.html" target="_top" xlink:title="bendpoints2coords.h">
<polygon fill="white" stroke="black" points="2402.04,-116.5 2402.04,-137.5 2509.04,-137.5 2509.04,-116.5 2402.04,-116.5"/>
<text text-anchor="middle" x="2455.54" y="-124.5" font-family="Helvetica,sans-Serif" font-size="10.00">bendpoints2coords.h</text>
</a>
</g>
<!-- Node31&#45;&gt;Node43 -->
<g id="edge114" class="edge"><title>Node31&#45;&gt;Node43</title>
<path fill="none" stroke="midnightblue" d="M2278.84,-173.682C2330.4,-159.287 2380.06,-146.314 2414.08,-137.561"/>
<polygon fill="midnightblue" stroke="midnightblue" points="2277.88,-170.316 2269.2,-176.385 2279.77,-177.056 2277.88,-170.316"/>
</g>
<!-- Node44 -->
<g id="node102" class="node"><title>Node44</title>
<a xlink:href="dataclipper_8h.html" target="_top" xlink:title="dataclipper.h">
<polygon fill="white" stroke="red" points="2526.54,-116.5 2526.54,-137.5 2598.54,-137.5 2598.54,-116.5 2526.54,-116.5"/>
<text text-anchor="middle" x="2562.54" y="-124.5" font-family="Helvetica,sans-Serif" font-size="10.00">dataclipper.h</text>
</a>
</g>
<!-- Node31&#45;&gt;Node44 -->
<g id="edge116" class="edge"><title>Node31&#45;&gt;Node44</title>
<path fill="none" stroke="midnightblue" d="M2278.9,-173.917C2384.58,-151.033 2414.81,-158.217 2517.54,-138 2520.38,-137.441 2523.31,-136.822 2526.25,-136.17"/>
<polygon fill="midnightblue" stroke="midnightblue" points="2278.13,-170.502 2269.12,-176.073 2279.64,-177.338 2278.13,-170.502"/>
</g>
<!-- Node45 -->
<g id="node104" class="node"><title>Node45</title>
<a xlink:href="delaunay_8h.html" target="_top" xlink:title="delaunay.h">
<polygon fill="white" stroke="black" points="2820.54,-58.5 2820.54,-79.5 2884.54,-79.5 2884.54,-58.5 2820.54,-58.5"/>
<text text-anchor="middle" x="2852.54" y="-66.5" font-family="Helvetica,sans-Serif" font-size="10.00">delaunay.h</text>
</a>
</g>
<!-- Node31&#45;&gt;Node45 -->
<g id="edge118" class="edge"><title>Node31&#45;&gt;Node45</title>
<path fill="none" stroke="midnightblue" d="M2279.24,-174.439C2396.28,-162.523 2958.89,-195.381 3013.54,-138 3053.91,-95.6071 2942.53,-77.9543 2884.79,-71.8051"/>
<polygon fill="midnightblue" stroke="midnightblue" points="2278.52,-171.003 2269.06,-175.783 2279.43,-177.943 2278.52,-171.003"/>
</g>
<!-- Node46 -->
<g id="node106" class="node"><title>Node46</title>
<a xlink:href="trigonometry_8h.html" target="_top" xlink:title="trigonometry.h">
<polygon fill="white" stroke="red" points="2654.04,-116.5 2654.04,-137.5 2733.04,-137.5 2733.04,-116.5 2654.04,-116.5"/>
<text text-anchor="middle" x="2693.54" y="-124.5" font-family="Helvetica,sans-Serif" font-size="10.00">trigonometry.h</text>
</a>
</g>
<!-- Node31&#45;&gt;Node46 -->
<g id="edge120" class="edge"><title>Node31&#45;&gt;Node46</title>
<path fill="none" stroke="midnightblue" d="M2279.24,-173.953C2438.46,-143.55 2483.56,-162.005 2640.54,-138 2644.9,-137.332 2649.45,-136.539 2653.97,-135.689"/>
<polygon fill="midnightblue" stroke="midnightblue" points="2278.23,-170.583 2269.09,-175.928 2279.57,-177.454 2278.23,-170.583"/>
</g>
<!-- Node47 -->
<g id="node109" class="node"><title>Node47</title>
<a xlink:href="delaunay3d_8h.html" target="_top" xlink:title="delaunay3d.h">
<polygon fill="white" stroke="black" points="2750.54,-116.5 2750.54,-137.5 2824.54,-137.5 2824.54,-116.5 2750.54,-116.5"/>
<text text-anchor="middle" x="2787.54" y="-124.5" font-family="Helvetica,sans-Serif" font-size="10.00">delaunay3d.h</text>
</a>
</g>
<!-- Node31&#45;&gt;Node47 -->
<g id="edge124" class="edge"><title>Node31&#45;&gt;Node47</title>
<path fill="none" stroke="midnightblue" d="M2279.2,-174.011C2482.77,-137.391 2540.5,-169.634 2741.54,-138 2744.46,-137.54 2747.47,-136.993 2750.48,-136.391"/>
<polygon fill="midnightblue" stroke="midnightblue" points="2278.28,-170.62 2269.08,-175.866 2279.54,-177.506 2278.28,-170.62"/>
</g>
<!-- Node48 -->
<g id="node113" class="node"><title>Node48</title>
<a xlink:href="polylinend_8h.html" target="_top" xlink:title="polylinend.h">
<polygon fill="white" stroke="black" points="2842.54,-116.5 2842.54,-137.5 2910.54,-137.5 2910.54,-116.5 2842.54,-116.5"/>
<text text-anchor="middle" x="2876.54" y="-124.5" font-family="Helvetica,sans-Serif" font-size="10.00">polylinend.h</text>
</a>
</g>
<!-- Node31&#45;&gt;Node48 -->
<g id="edge130" class="edge"><title>Node31&#45;&gt;Node48</title>
<path fill="none" stroke="midnightblue" d="M2278.95,-174.081C2523.12,-131.652 2592.2,-176.341 2833.54,-138 2836.43,-137.541 2839.41,-136.975 2842.39,-136.345"/>
<polygon fill="midnightblue" stroke="midnightblue" points="2278.31,-170.641 2269.07,-175.829 2279.53,-177.534 2278.31,-170.641"/>
</g>
<!-- Node49 -->
<g id="node115" class="node"><title>Node49</title>
<a xlink:href="smoother1d_8h.html" target="_top" xlink:title="smoother1d.h">
<polygon fill="white" stroke="black" points="2928.54,-116.5 2928.54,-137.5 3004.54,-137.5 3004.54,-116.5 2928.54,-116.5"/>
<text text-anchor="middle" x="2966.54" y="-124.5" font-family="Helvetica,sans-Serif" font-size="10.00">smoother1d.h</text>
</a>
</g>
<!-- Node31&#45;&gt;Node49 -->
<g id="edge132" class="edge"><title>Node31&#45;&gt;Node49</title>
<path fill="none" stroke="midnightblue" d="M2279.17,-174.059C2560.93,-126.195 2639.99,-178.239 2919.54,-138 2922.44,-137.582 2925.43,-137.073 2928.42,-136.505"/>
<polygon fill="midnightblue" stroke="midnightblue" points="2278.32,-170.654 2269.06,-175.804 2279.51,-177.552 2278.32,-170.654"/>
</g>
<!-- Node32&#45;&gt;Node5 -->
<g id="edge80" class="edge"><title>Node32&#45;&gt;Node5</title>
<path fill="none" stroke="midnightblue" d="M2120.78,-116.145C2242.62,-94.1249 2446.3,-138.104 2369.54,-58 2359.89,-47.9364 1454.78,-17.2257 1293.11,-11.8177"/>
<polygon fill="midnightblue" stroke="midnightblue" points="2119.83,-112.767 2110.71,-118.163 2121.2,-119.631 2119.83,-112.767"/>
</g>
<!-- Node32&#45;&gt;Node7 -->
<g id="edge70" class="edge"><title>Node32&#45;&gt;Node7</title>
<path fill="none" stroke="midnightblue" d="M2082.54,-106.191C2082.54,-97.1684 2082.54,-86.9941 2082.54,-79.5707"/>
<polygon fill="midnightblue" stroke="midnightblue" points="2079.04,-106.362 2082.54,-116.362 2086.04,-106.362 2079.04,-106.362"/>
</g>
<!-- Node32&#45;&gt;Node11 -->
<g id="edge78" class="edge"><title>Node32&#45;&gt;Node11</title>
<path fill="none" stroke="midnightblue" d="M2044.66,-115.747C1996.85,-101.626 1951.86,-88.4225 1921.45,-79.5132"/>
<polygon fill="midnightblue" stroke="midnightblue" points="2043.68,-119.105 2054.26,-118.582 2045.66,-112.392 2043.68,-119.105"/>
</g>
<!-- Node32&#45;&gt;Node19 -->
<g id="edge82" class="edge"><title>Node32&#45;&gt;Node19</title>
<path fill="none" stroke="midnightblue" d="M2108.58,-111.101C2125.02,-101.066 2145.79,-88.3808 2160.22,-79.5707"/>
<polygon fill="midnightblue" stroke="midnightblue" points="2106.67,-108.164 2099.96,-116.362 2110.32,-114.138 2106.67,-108.164"/>
</g>
<!-- Node32&#45;&gt;Node20 -->
<g id="edge84" class="edge"><title>Node32&#45;&gt;Node20</title>
<path fill="none" stroke="midnightblue" d="M2057.71,-110.821C2042.38,-100.831 2023.15,-88.2993 2009.76,-79.5707"/>
<polygon fill="midnightblue" stroke="midnightblue" points="2055.92,-113.834 2066.21,-116.362 2059.75,-107.97 2055.92,-113.834"/>
</g>
<!-- Node32&#45;&gt;Node21 -->
<g id="edge86" class="edge"><title>Node32&#45;&gt;Node21</title>
<path fill="none" stroke="midnightblue" d="M2120.5,-115.804C2174.32,-101.105 2226.17,-88.1922 2261.81,-79.507"/>
<polygon fill="midnightblue" stroke="midnightblue" points="2119.5,-112.448 2110.78,-118.471 2121.35,-119.198 2119.5,-112.448"/>
</g>
<!-- Node32&#45;&gt;Node25 -->
<g id="edge88" class="edge"><title>Node32&#45;&gt;Node25</title>
<path fill="none" stroke="midnightblue" d="M2044.53,-115.964C1951.6,-94.6913 1925.39,-97.5746 1835.54,-80 1832.83,-79.4711 1830.05,-78.9089 1827.25,-78.3294"/>
<polygon fill="midnightblue" stroke="midnightblue" points="2043.82,-119.39 2054.35,-118.242 2045.4,-112.572 2043.82,-119.39"/>
</g>
<!-- Node32&#45;&gt;Node33 -->
<g id="edge72" class="edge"><title>Node32&#45;&gt;Node33</title>
<path fill="none" stroke="midnightblue" d="M2120.77,-116.109C2215.6,-98.6469 2446.08,-78.1709 2525.88,-71.3346"/>
<polygon fill="midnightblue" stroke="midnightblue" points="2119.84,-112.723 2110.69,-118.059 2121.17,-119.595 2119.84,-112.723"/>
</g>
<!-- Node33&#45;&gt;Node27 -->
<g id="edge76" class="edge"><title>Node33&#45;&gt;Node27</title>
<path fill="none" stroke="midnightblue" d="M2521.14,-54.2064C2498.86,-44.031 2469.8,-30.7567 2449.79,-21.6212"/>
<polygon fill="midnightblue" stroke="midnightblue" points="2519.99,-57.5261 2530.54,-58.4966 2522.9,-51.1587 2519.99,-57.5261"/>
</g>
<!-- Node33&#45;&gt;Node34 -->
<g id="edge74" class="edge"><title>Node33&#45;&gt;Node34</title>
<path fill="none" stroke="midnightblue" d="M2585.68,-54.2064C2607.78,-44.031 2636.62,-30.7567 2656.46,-21.6212"/>
<polygon fill="midnightblue" stroke="midnightblue" points="2583.98,-51.1358 2576.36,-58.4966 2586.9,-57.4945 2583.98,-51.1358"/>
</g>
<!-- Node38&#45;&gt;Node15 -->
<g id="edge102" class="edge"><title>Node38&#45;&gt;Node15</title>
<path fill="none" stroke="midnightblue" d="M1521.65,-106.488C1519.92,-97.3924 1517.97,-87.0756 1516.54,-79.5707"/>
<polygon fill="midnightblue" stroke="midnightblue" points="1518.22,-107.189 1523.52,-116.362 1525.1,-105.885 1518.22,-107.189"/>
</g>
<!-- Node40&#45;&gt;Node12 -->
<g id="edge108" class="edge"><title>Node40&#45;&gt;Node12</title>
<path fill="none" stroke="midnightblue" d="M1619.54,-106.191C1619.54,-97.1684 1619.54,-86.9941 1619.54,-79.5707"/>
<polygon fill="midnightblue" stroke="midnightblue" points="1616.04,-106.362 1619.54,-116.362 1623.04,-106.362 1616.04,-106.362"/>
</g>
<!-- Node46&#45;&gt;Node45 -->
<g id="edge122" class="edge"><title>Node46&#45;&gt;Node45</title>
<path fill="none" stroke="midnightblue" d="M2731.89,-113.009C2760.15,-102.702 2797.98,-88.903 2823.69,-79.5231"/>
<polygon fill="midnightblue" stroke="midnightblue" points="2730.53,-109.782 2722.33,-116.497 2732.93,-116.358 2730.53,-109.782"/>
</g>
</g>
</svg>
