<?xml version="1.0" encoding="UTF-8" standalone="no"?>
<!DOCTYPE svg PUBLIC "-//W3C//DTD SVG 1.1//EN"
 "http://www.w3.org/Graphics/SVG/1.1/DTD/svg11.dtd">
<!-- Generated by graphviz version 2.26.0 (20091210.2329)
 -->
<!-- Title: odstring.h Pages: 1 -->
<svg width="3668pt" height="320pt"
 viewBox="0.00 0.00 3667.68 320.00" xmlns="http://www.w3.org/2000/svg" xmlns:xlink="http://www.w3.org/1999/xlink">
<g id="graph1" class="graph" transform="scale(1 1) rotate(0) translate(4 316)">
<title>odstring.h</title>
<polygon fill="white" stroke="white" points="-4,5 -4,-316 3664.68,-316 3664.68,5 -4,5"/>
<!-- Node1 -->
<g id="node1" class="node"><title>Node1</title>
<polygon fill="#bfbfbf" stroke="black" points="3032.18,-290.5 3032.18,-311.5 3091.18,-311.5 3091.18,-290.5 3032.18,-290.5"/>
<text text-anchor="middle" x="3061.68" y="-298.5" font-family="Helvetica,sans-Serif" font-size="10.00">odstring.h</text>
</g>
<!-- Node2 -->
<g id="node3" class="node"><title>Node2</title>
<a xlink:href="fixedstring_8h.html" target="_top" xlink:title="fixedstring.h">
<polygon fill="white" stroke="black" points="3026.68,-232.5 3026.68,-253.5 3096.68,-253.5 3096.68,-232.5 3026.68,-232.5"/>
<text text-anchor="middle" x="3061.68" y="-240.5" font-family="Helvetica,sans-Serif" font-size="10.00">fixedstring.h</text>
</a>
</g>
<!-- Node1&#45;&gt;Node2 -->
<g id="edge2" class="edge"><title>Node1&#45;&gt;Node2</title>
<path fill="none" stroke="midnightblue" d="M3061.68,-280.191C3061.68,-271.168 3061.68,-260.994 3061.68,-253.571"/>
<polygon fill="midnightblue" stroke="midnightblue" points="3058.18,-280.362 3061.68,-290.362 3065.18,-280.362 3058.18,-280.362"/>
</g>
<!-- Node3 -->
<g id="node5" class="node"><title>Node3</title>
<a xlink:href="bufstring_8h.html" target="_top" xlink:title="bufstring.h">
<polygon fill="white" stroke="red" points="1505.68,-174.5 1505.68,-195.5 1567.68,-195.5 1567.68,-174.5 1505.68,-174.5"/>
<text text-anchor="middle" x="1536.68" y="-182.5" font-family="Helvetica,sans-Serif" font-size="10.00">bufstring.h</text>
</a>
</g>
<!-- Node2&#45;&gt;Node3 -->
<g id="edge4" class="edge"><title>Node2&#45;&gt;Node3</title>
<path fill="none" stroke="midnightblue" d="M3016.3,-241.274C2787.06,-232.555 1760.02,-193.494 1567.75,-186.182"/>
<polygon fill="midnightblue" stroke="midnightblue" points="3016.48,-244.783 3026.6,-241.666 3016.74,-237.788 3016.48,-244.783"/>
</g>
<!-- Node6 -->
<g id="node11" class="node"><title>Node6</title>
<a xlink:href="iopar_8h.html" target="_top" xlink:title="iopar.h">
<polygon fill="white" stroke="red" points="2696.68,-58.5 2696.68,-79.5 2742.68,-79.5 2742.68,-58.5 2696.68,-58.5"/>
<text text-anchor="middle" x="2719.68" y="-66.5" font-family="Helvetica,sans-Serif" font-size="10.00">iopar.h</text>
</a>
</g>
<!-- Node2&#45;&gt;Node6 -->
<g id="edge108" class="edge"><title>Node2&#45;&gt;Node6</title>
<path fill="none" stroke="midnightblue" d="M3023.39,-228.275C3005.64,-220.337 2984.93,-209.403 2968.68,-196 2933.98,-167.376 2944.34,-140.609 2906.68,-116 2854.85,-82.1206 2780.27,-72.6626 2742.9,-70.0224"/>
<polygon fill="midnightblue" stroke="midnightblue" points="3022.33,-231.63 3032.9,-232.374 3025.1,-225.201 3022.33,-231.63"/>
</g>
<!-- Node15 -->
<g id="node29" class="node"><title>Node15</title>
<a xlink:href="multiid_8h.html" target="_top" xlink:title="multiid.h">
<polygon fill="white" stroke="red" points="31.1848,-58.5 31.1848,-79.5 84.1848,-79.5 84.1848,-58.5 31.1848,-58.5"/>
<text text-anchor="middle" x="57.6848" y="-66.5" font-family="Helvetica,sans-Serif" font-size="10.00">multiid.h</text>
</a>
</g>
<!-- Node2&#45;&gt;Node15 -->
<g id="edge110" class="edge"><title>Node2&#45;&gt;Node15</title>
<path fill="none" stroke="midnightblue" d="M3016.23,-242.313C2640.45,-236.526 60.2757,-194.756 5.68481,-138 -12.5125,-119.081 18.469,-93.7841 39.8962,-79.67"/>
<polygon fill="midnightblue" stroke="midnightblue" points="3016.4,-245.816 3026.45,-242.469 3016.5,-238.816 3016.4,-245.816"/>
</g>
<!-- Node24 -->
<g id="node47" class="node"><title>Node24</title>
<a xlink:href="separstr_8h.html" target="_top" xlink:title="separstr.h">
<polygon fill="white" stroke="red" points="2996.68,-116.5 2996.68,-137.5 3056.68,-137.5 3056.68,-116.5 2996.68,-116.5"/>
<text text-anchor="middle" x="3026.68" y="-124.5" font-family="Helvetica,sans-Serif" font-size="10.00">separstr.h</text>
</a>
</g>
<!-- Node2&#45;&gt;Node24 -->
<g id="edge114" class="edge"><title>Node2&#45;&gt;Node24</title>
<path fill="none" stroke="midnightblue" d="M3056.33,-222.291C3052.68,-208.539 3047.64,-190.118 3042.68,-174 3038.83,-161.477 3033.91,-147.256 3030.55,-137.768"/>
<polygon fill="midnightblue" stroke="midnightblue" points="3053,-223.4 3058.92,-232.186 3059.77,-221.625 3053,-223.4"/>
</g>
<!-- Node37 -->
<g id="node80" class="node"><title>Node37</title>
<a xlink:href="seiswrite_8h.html" target="_top" xlink:title="seiswrite.h">
<polygon fill="white" stroke="black" points="2611.68,-58.5 2611.68,-79.5 2675.68,-79.5 2675.68,-58.5 2611.68,-58.5"/>
<text text-anchor="middle" x="2643.68" y="-66.5" font-family="Helvetica,sans-Serif" font-size="10.00">seiswrite.h</text>
</a>
</g>
<!-- Node2&#45;&gt;Node37 -->
<g id="edge120" class="edge"><title>Node2&#45;&gt;Node37</title>
<path fill="none" stroke="midnightblue" d="M3016.75,-230.394C2993.9,-222.679 2966.43,-211.314 2944.68,-196 2905.81,-168.632 2914.99,-139.541 2873.68,-116 2800.53,-74.3043 2769.89,-98.2174 2687.68,-80 2683.84,-79.1482 2679.82,-78.2095 2675.84,-77.2504"/>
<polygon fill="midnightblue" stroke="midnightblue" points="3015.97,-233.82 3026.56,-233.581 3018.13,-227.162 3015.97,-233.82"/>
</g>
<!-- Node43 -->
<g id="node93" class="node"><title>Node43</title>
<a xlink:href="attribparambase_8h.html" target="_top" xlink:title="attribparambase.h">
<polygon fill="white" stroke="red" points="2770.18,-116.5 2770.18,-137.5 2865.18,-137.5 2865.18,-116.5 2770.18,-116.5"/>
<text text-anchor="middle" x="2817.68" y="-124.5" font-family="Helvetica,sans-Serif" font-size="10.00">attribparambase.h</text>
</a>
</g>
<!-- Node2&#45;&gt;Node43 -->
<g id="edge122" class="edge"><title>Node2&#45;&gt;Node43</title>
<path fill="none" stroke="midnightblue" d="M3016.62,-238.909C2977.7,-233.702 2921.19,-222.011 2878.68,-196 2854.14,-180.978 2833.95,-152.968 2824.13,-137.661"/>
<polygon fill="midnightblue" stroke="midnightblue" points="3016.25,-242.39 3026.61,-240.155 3017.12,-235.444 3016.25,-242.39"/>
</g>
<!-- Node44 -->
<g id="node95" class="node"><title>Node44</title>
<a xlink:href="keystrs_8h.html" target="_top" xlink:title="keystrs.h">
<polygon fill="white" stroke="red" points="3089.18,-174.5 3089.18,-195.5 3146.18,-195.5 3146.18,-174.5 3089.18,-174.5"/>
<text text-anchor="middle" x="3117.68" y="-182.5" font-family="Helvetica,sans-Serif" font-size="10.00">keystrs.h</text>
</a>
</g>
<!-- Node2&#45;&gt;Node44 -->
<g id="edge102" class="edge"><title>Node2&#45;&gt;Node44</title>
<path fill="none" stroke="midnightblue" d="M3078.95,-225.118C3088.3,-215.438 3099.52,-203.81 3107.48,-195.571"/>
<polygon fill="midnightblue" stroke="midnightblue" points="3076.38,-222.737 3071.96,-232.362 3081.42,-227.599 3076.38,-222.737"/>
</g>
<!-- Node45 -->
<g id="node97" class="node"><title>Node45</title>
<a xlink:href="convert_8h.html" target="_top" xlink:title="convert.h">
<polygon fill="white" stroke="red" points="2977.18,-174.5 2977.18,-195.5 3034.18,-195.5 3034.18,-174.5 2977.18,-174.5"/>
<text text-anchor="middle" x="3005.68" y="-182.5" font-family="Helvetica,sans-Serif" font-size="10.00">convert.h</text>
</a>
</g>
<!-- Node2&#45;&gt;Node45 -->
<g id="edge104" class="edge"><title>Node2&#45;&gt;Node45</title>
<path fill="none" stroke="midnightblue" d="M3044.42,-225.118C3035.07,-215.438 3023.85,-203.81 3015.89,-195.571"/>
<polygon fill="midnightblue" stroke="midnightblue" points="3041.95,-227.599 3051.41,-232.362 3046.99,-222.737 3041.95,-227.599"/>
</g>
<!-- Node46 -->
<g id="node102" class="node"><title>Node46</title>
<a xlink:href="nrbytes2string_8h.html" target="_top" xlink:title="nrbytes2string.h">
<polygon fill="white" stroke="black" points="3163.68,-174.5 3163.68,-195.5 3249.68,-195.5 3249.68,-174.5 3163.68,-174.5"/>
<text text-anchor="middle" x="3206.68" y="-182.5" font-family="Helvetica,sans-Serif" font-size="10.00">nrbytes2string.h</text>
</a>
</g>
<!-- Node2&#45;&gt;Node46 -->
<g id="edge112" class="edge"><title>Node2&#45;&gt;Node46</title>
<path fill="none" stroke="midnightblue" d="M3097.31,-228.751C3122.91,-218.509 3156.88,-204.921 3180.13,-195.621"/>
<polygon fill="midnightblue" stroke="midnightblue" points="3095.93,-225.533 3087.94,-232.497 3098.53,-232.032 3095.93,-225.533"/>
</g>
<!-- Node47 -->
<g id="node105" class="node"><title>Node47</title>
<a xlink:href="uistrings_8h.html" target="_top" xlink:title="uistrings.h">
<polygon fill="white" stroke="red" points="3267.68,-174.5 3267.68,-195.5 3329.68,-195.5 3329.68,-174.5 3267.68,-174.5"/>
<text text-anchor="middle" x="3298.68" y="-182.5" font-family="Helvetica,sans-Serif" font-size="10.00">uistrings.h</text>
</a>
</g>
<!-- Node2&#45;&gt;Node47 -->
<g id="edge116" class="edge"><title>Node2&#45;&gt;Node47</title>
<path fill="none" stroke="midnightblue" d="M3106.98,-232.657C3146.98,-223.412 3206.83,-209.311 3258.68,-196 3261.48,-195.284 3264.37,-194.523 3267.27,-193.748"/>
<polygon fill="midnightblue" stroke="midnightblue" points="3105.96,-229.299 3097,-234.957 3107.54,-236.12 3105.96,-229.299"/>
</g>
<!-- Node48 -->
<g id="node107" class="node"><title>Node48</title>
<a xlink:href="seisparallelreader_8h.html" target="_top" xlink:title="seisparallelreader.h">
<polygon fill="white" stroke="black" points="3347.18,-174.5 3347.18,-195.5 3448.18,-195.5 3448.18,-174.5 3347.18,-174.5"/>
<text text-anchor="middle" x="3397.68" y="-182.5" font-family="Helvetica,sans-Serif" font-size="10.00">seisparallelreader.h</text>
</a>
</g>
<!-- Node2&#45;&gt;Node48 -->
<g id="edge118" class="edge"><title>Node2&#45;&gt;Node48</title>
<path fill="none" stroke="midnightblue" d="M3106.78,-235.579C3161.64,-226.5 3257.03,-210.539 3338.68,-196 3341.45,-195.507 3344.3,-194.995 3347.16,-194.475"/>
<polygon fill="midnightblue" stroke="midnightblue" points="3105.99,-232.162 3096.7,-237.246 3107.14,-239.068 3105.99,-232.162"/>
</g>
<!-- Node49 -->
<g id="node111" class="node"><title>Node49</title>
<a xlink:href="uizaxistransform_8h.html" target="_top" xlink:title="uizaxistransform.h">
<polygon fill="white" stroke="red" points="3465.18,-174.5 3465.18,-195.5 3562.18,-195.5 3562.18,-174.5 3465.18,-174.5"/>
<text text-anchor="middle" x="3513.68" y="-182.5" font-family="Helvetica,sans-Serif" font-size="10.00">uizaxistransform.h</text>
</a>
</g>
<!-- Node2&#45;&gt;Node49 -->
<g id="edge124" class="edge"><title>Node2&#45;&gt;Node49</title>
<path fill="none" stroke="midnightblue" d="M3107.25,-238.658C3180.92,-231.396 3330.67,-215.63 3456.68,-196 3459.37,-195.581 3462.13,-195.128 3464.91,-194.653"/>
<polygon fill="midnightblue" stroke="midnightblue" points="3106.55,-235.21 3096.94,-239.668 3107.24,-242.176 3106.55,-235.21"/>
</g>
<!-- Node50 -->
<g id="node113" class="node"><title>Node50</title>
<a xlink:href="uiexphorizon_8h.html" target="_top" xlink:title="uiexphorizon.h">
<polygon fill="white" stroke="black" points="3579.68,-174.5 3579.68,-195.5 3659.68,-195.5 3659.68,-174.5 3579.68,-174.5"/>
<text text-anchor="middle" x="3619.68" y="-182.5" font-family="Helvetica,sans-Serif" font-size="10.00">uiexphorizon.h</text>
</a>
</g>
<!-- Node2&#45;&gt;Node50 -->
<g id="edge126" class="edge"><title>Node2&#45;&gt;Node50</title>
<path fill="none" stroke="midnightblue" d="M3106.77,-240.79C3195.86,-235.994 3400.57,-222.835 3570.68,-196 3573.61,-195.538 3576.63,-195.005 3579.65,-194.427"/>
<polygon fill="midnightblue" stroke="midnightblue" points="3106.55,-237.297 3096.74,-241.321 3106.92,-244.288 3106.55,-237.297"/>
</g>
<!-- Node4 -->
<g id="node7" class="node"><title>Node4</title>
<a xlink:href="debug_8h.html" target="_top" xlink:title="debug.h">
<polygon fill="white" stroke="red" points="2544.18,-116.5 2544.18,-137.5 2595.18,-137.5 2595.18,-116.5 2544.18,-116.5"/>
<text text-anchor="middle" x="2569.68" y="-124.5" font-family="Helvetica,sans-Serif" font-size="10.00">debug.h</text>
</a>
</g>
<!-- Node3&#45;&gt;Node4 -->
<g id="edge6" class="edge"><title>Node3&#45;&gt;Node4</title>
<path fill="none" stroke="midnightblue" d="M1578.32,-184.513C1742.8,-182.363 2347.43,-172.249 2535.68,-138 2538.37,-137.511 2541.14,-136.866 2543.88,-136.132"/>
<polygon fill="midnightblue" stroke="midnightblue" points="1578.09,-181.016 1568.14,-184.644 1578.18,-188.015 1578.09,-181.016"/>
</g>
<!-- Node5 -->
<g id="node9" class="node"><title>Node5</title>
<a xlink:href="namedobj_8h.html" target="_top" xlink:title="namedobj.h">
<polygon fill="white" stroke="red" points="2686.18,-116.5 2686.18,-137.5 2753.18,-137.5 2753.18,-116.5 2686.18,-116.5"/>
<text text-anchor="middle" x="2719.68" y="-124.5" font-family="Helvetica,sans-Serif" font-size="10.00">namedobj.h</text>
</a>
</g>
<!-- Node3&#45;&gt;Node5 -->
<g id="edge8" class="edge"><title>Node3&#45;&gt;Node5</title>
<path fill="none" stroke="midnightblue" d="M1577.94,-184.488C1755.94,-182.098 2459.13,-170.732 2677.68,-138 2680.37,-137.598 2683.13,-137.092 2685.89,-136.518"/>
<polygon fill="midnightblue" stroke="midnightblue" points="1577.88,-180.989 1567.93,-184.621 1577.98,-187.988 1577.88,-180.989"/>
</g>
<!-- Node7 -->
<g id="node13" class="node"><title>Node7</title>
<a xlink:href="repos_8h.html" target="_top" xlink:title="repos.h">
<polygon fill="white" stroke="red" points="1621.18,-0.5 1621.18,-21.5 1670.18,-21.5 1670.18,-0.5 1621.18,-0.5"/>
<text text-anchor="middle" x="1645.68" y="-8.5" font-family="Helvetica,sans-Serif" font-size="10.00">repos.h</text>
</a>
</g>
<!-- Node3&#45;&gt;Node7 -->
<g id="edge48" class="edge"><title>Node3&#45;&gt;Node7</title>
<path fill="none" stroke="midnightblue" d="M1495.43,-184.463C1376.68,-182.494 1040.43,-173.779 1007.68,-138 1001.08,-130.787 1001.36,-123.454 1007.68,-116 1048.46,-67.9693 1508.37,-23.43 1620.93,-13.1964"/>
<polygon fill="midnightblue" stroke="midnightblue" points="1495.52,-187.965 1505.57,-184.624 1495.63,-180.966 1495.52,-187.965"/>
</g>
<!-- Node8 -->
<g id="node15" class="node"><title>Node8</title>
<a xlink:href="polygon_8h.html" target="_top" xlink:title="polygon.h">
<polygon fill="white" stroke="red" points="2344.18,-0.5 2344.18,-21.5 2403.18,-21.5 2403.18,-0.5 2344.18,-0.5"/>
<text text-anchor="middle" x="2373.68" y="-8.5" font-family="Helvetica,sans-Serif" font-size="10.00">polygon.h</text>
</a>
</g>
<!-- Node3&#45;&gt;Node8 -->
<g id="edge60" class="edge"><title>Node3&#45;&gt;Node8</title>
<path fill="none" stroke="midnightblue" d="M1578,-183.138C1677.82,-178.28 1929.74,-163.778 2009.68,-138 2028.26,-132.011 2029.85,-123.925 2047.68,-116 2153.1,-69.1537 2285.96,-33.0094 2344.13,-18.2498"/>
<polygon fill="midnightblue" stroke="midnightblue" points="1577.53,-179.656 1567.71,-183.63 1577.87,-186.648 1577.53,-179.656"/>
</g>
<!-- Node9 -->
<g id="node17" class="node"><title>Node9</title>
<a xlink:href="smoother1d_8h.html" target="_top" xlink:title="smoother1d.h">
<polygon fill="white" stroke="black" points="2786.68,-0.5 2786.68,-21.5 2862.68,-21.5 2862.68,-0.5 2786.68,-0.5"/>
<text text-anchor="middle" x="2824.68" y="-8.5" font-family="Helvetica,sans-Serif" font-size="10.00">smoother1d.h</text>
</a>
</g>
<!-- Node3&#45;&gt;Node9 -->
<g id="edge66" class="edge"><title>Node3&#45;&gt;Node9</title>
<path fill="none" stroke="midnightblue" d="M1578.11,-184.328C1801.23,-180.613 2850.62,-161.89 2873.68,-138 2906.51,-103.996 2858.14,-45.6087 2835.41,-21.6913"/>
<polygon fill="midnightblue" stroke="midnightblue" points="1577.76,-180.833 1567.82,-184.498 1577.88,-187.832 1577.76,-180.833"/>
</g>
<!-- Node10 -->
<g id="node19" class="node"><title>Node10</title>
<a xlink:href="ascstream_8h.html" target="_top" xlink:title="ascstream.h">
<polygon fill="white" stroke="black" points="118.185,-116.5 118.185,-137.5 189.185,-137.5 189.185,-116.5 118.185,-116.5"/>
<text text-anchor="middle" x="153.685" y="-124.5" font-family="Helvetica,sans-Serif" font-size="10.00">ascstream.h</text>
</a>
</g>
<!-- Node3&#45;&gt;Node10 -->
<g id="edge18" class="edge"><title>Node3&#45;&gt;Node10</title>
<path fill="none" stroke="midnightblue" d="M1495.51,-184.718C1299.25,-183.198 457.498,-174.622 197.685,-138 195.034,-137.626 192.311,-137.158 189.582,-136.626"/>
<polygon fill="midnightblue" stroke="midnightblue" points="1495.66,-188.219 1505.68,-184.795 1495.71,-181.22 1495.66,-188.219"/>
</g>
<!-- Node11 -->
<g id="node21" class="node"><title>Node11</title>
<a xlink:href="od__stream_8h.html" target="_top" xlink:title="od_stream.h">
<polygon fill="white" stroke="red" points="206.185,-116.5 206.185,-137.5 277.185,-137.5 277.185,-116.5 206.185,-116.5"/>
<text text-anchor="middle" x="241.685" y="-124.5" font-family="Helvetica,sans-Serif" font-size="10.00">od_stream.h</text>
</a>
</g>
<!-- Node3&#45;&gt;Node11 -->
<g id="edge20" class="edge"><title>Node3&#45;&gt;Node11</title>
<path fill="none" stroke="midnightblue" d="M1495.51,-184.601C1307.24,-182.599 527.226,-172.35 285.685,-138 283.034,-137.623 280.312,-137.152 277.583,-136.619"/>
<polygon fill="midnightblue" stroke="midnightblue" points="1495.51,-188.101 1505.54,-184.705 1495.58,-181.101 1495.51,-188.101"/>
</g>
<!-- Node12 -->
<g id="node23" class="node"><title>Node12</title>
<a xlink:href="bufstringset_8h.html" target="_top" xlink:title="bufstringset.h">
<polygon fill="white" stroke="red" points="294.685,-116.5 294.685,-137.5 370.685,-137.5 370.685,-116.5 294.685,-116.5"/>
<text text-anchor="middle" x="332.685" y="-124.5" font-family="Helvetica,sans-Serif" font-size="10.00">bufstringset.h</text>
</a>
</g>
<!-- Node3&#45;&gt;Node12 -->
<g id="edge22" class="edge"><title>Node3&#45;&gt;Node12</title>
<path fill="none" stroke="midnightblue" d="M1495.37,-184.244C1316.28,-180.824 606.196,-165.749 384.685,-138 380.198,-137.438 375.524,-136.688 370.899,-135.843"/>
<polygon fill="midnightblue" stroke="midnightblue" points="1495.37,-187.744 1505.43,-184.434 1495.5,-180.746 1495.37,-187.744"/>
</g>
<!-- Node13 -->
<g id="node25" class="node"><title>Node13</title>
<a xlink:href="texttranslator_8h.html" target="_top" xlink:title="texttranslator.h">
<polygon fill="white" stroke="black" points="309.685,-58.5 309.685,-79.5 391.685,-79.5 391.685,-58.5 309.685,-58.5"/>
<text text-anchor="middle" x="350.685" y="-66.5" font-family="Helvetica,sans-Serif" font-size="10.00">texttranslator.h</text>
</a>
</g>
<!-- Node3&#45;&gt;Node13 -->
<g id="edge58" class="edge"><title>Node3&#45;&gt;Node13</title>
<path fill="none" stroke="midnightblue" d="M1495.41,-184.075C1299.74,-179.586 472.897,-159.416 422.685,-138 393.541,-125.57 369.272,-95.652 357.8,-79.6"/>
<polygon fill="midnightblue" stroke="midnightblue" points="1495.48,-187.578 1505.56,-184.307 1495.64,-180.579 1495.48,-187.578"/>
</g>
<!-- Node14 -->
<g id="node27" class="node"><title>Node14</title>
<a xlink:href="compoundkey_8h.html" target="_top" xlink:title="compoundkey.h">
<polygon fill="white" stroke="red" points="14.6848,-116.5 14.6848,-137.5 100.685,-137.5 100.685,-116.5 14.6848,-116.5"/>
<text text-anchor="middle" x="57.6848" y="-124.5" font-family="Helvetica,sans-Serif" font-size="10.00">compoundkey.h</text>
</a>
</g>
<!-- Node3&#45;&gt;Node14 -->
<g id="edge26" class="edge"><title>Node3&#45;&gt;Node14</title>
<path fill="none" stroke="midnightblue" d="M1495.47,-184.62C1291.47,-182.588 388.439,-171.808 109.685,-138 106.753,-137.644 103.742,-137.206 100.718,-136.711"/>
<polygon fill="midnightblue" stroke="midnightblue" points="1495.44,-188.119 1505.47,-184.718 1495.51,-181.12 1495.44,-188.119"/>
</g>
<!-- Node16 -->
<g id="node31" class="node"><title>Node16</title>
<a xlink:href="surfaceinfo_8h.html" target="_top" xlink:title="surfaceinfo.h">
<polygon fill="white" stroke="black" points="211.185,-0.5 211.185,-21.5 284.185,-21.5 284.185,-0.5 211.185,-0.5"/>
<text text-anchor="middle" x="247.685" y="-8.5" font-family="Helvetica,sans-Serif" font-size="10.00">surfaceinfo.h</text>
</a>
</g>
<!-- Node3&#45;&gt;Node16 -->
<g id="edge92" class="edge"><title>Node3&#45;&gt;Node16</title>
<path fill="none" stroke="midnightblue" d="M1495.4,-184.844C1312.47,-183.928 579.805,-177.782 485.685,-138 437.9,-117.803 445.535,-84.0726 400.685,-58 363.929,-36.6332 316.457,-24.0183 284.208,-17.3262"/>
<polygon fill="midnightblue" stroke="midnightblue" points="1495.41,-188.344 1505.43,-184.892 1495.45,-181.344 1495.41,-188.344"/>
</g>
<!-- Node17 -->
<g id="node33" class="node"><title>Node17</title>
<a xlink:href="coordsystem_8h.html" target="_top" xlink:title="coordsystem.h">
<polygon fill="white" stroke="red" points="502.185,-116.5 502.185,-137.5 583.185,-137.5 583.185,-116.5 502.185,-116.5"/>
<text text-anchor="middle" x="542.685" y="-124.5" font-family="Helvetica,sans-Serif" font-size="10.00">coordsystem.h</text>
</a>
</g>
<!-- Node3&#45;&gt;Node17 -->
<g id="edge32" class="edge"><title>Node3&#45;&gt;Node17</title>
<path fill="none" stroke="midnightblue" d="M1495.33,-183.886C1337.14,-179.479 770.285,-162.306 591.685,-138 588.92,-137.624 586.081,-137.17 583.23,-136.663"/>
<polygon fill="midnightblue" stroke="midnightblue" points="1495.49,-187.392 1505.58,-184.17 1495.68,-180.394 1495.49,-187.392"/>
</g>
<!-- Node18 -->
<g id="node35" class="node"><title>Node18</title>
<a xlink:href="progressmeterimpl_8h.html" target="_top" xlink:title="progressmeterimpl.h">
<polygon fill="white" stroke="red" points="600.185,-116.5 600.185,-137.5 705.185,-137.5 705.185,-116.5 600.185,-116.5"/>
<text text-anchor="middle" x="652.685" y="-124.5" font-family="Helvetica,sans-Serif" font-size="10.00">progressmeterimpl.h</text>
</a>
</g>
<!-- Node3&#45;&gt;Node18 -->
<g id="edge34" class="edge"><title>Node3&#45;&gt;Node18</title>
<path fill="none" stroke="midnightblue" d="M1495.28,-184.41C1374.46,-182.306 1012.02,-173.286 713.685,-138 710.906,-137.671 708.063,-137.296 705.197,-136.887"/>
<polygon fill="midnightblue" stroke="midnightblue" points="1495.49,-187.914 1505.55,-184.582 1495.61,-180.915 1495.49,-187.914"/>
</g>
<!-- Node19 -->
<g id="node37" class="node"><title>Node19</title>
<a xlink:href="globexpr_8h.html" target="_top" xlink:title="globexpr.h">
<polygon fill="white" stroke="red" points="722.685,-116.5 722.685,-137.5 784.685,-137.5 784.685,-116.5 722.685,-116.5"/>
<text text-anchor="middle" x="753.685" y="-124.5" font-family="Helvetica,sans-Serif" font-size="10.00">globexpr.h</text>
</a>
</g>
<!-- Node3&#45;&gt;Node19 -->
<g id="edge36" class="edge"><title>Node3&#45;&gt;Node19</title>
<path fill="none" stroke="midnightblue" d="M1495.11,-183.494C1359.41,-178.404 930.37,-160.868 793.685,-138 790.843,-137.525 787.913,-136.929 784.992,-136.263"/>
<polygon fill="midnightblue" stroke="midnightblue" points="1495.35,-187.006 1505.48,-183.88 1495.61,-180.011 1495.35,-187.006"/>
</g>
<!-- Node20 -->
<g id="node39" class="node"><title>Node20</title>
<a xlink:href="oscommand_8h.html" target="_top" xlink:title="oscommand.h">
<polygon fill="white" stroke="red" points="802.685,-116.5 802.685,-137.5 880.685,-137.5 880.685,-116.5 802.685,-116.5"/>
<text text-anchor="middle" x="841.685" y="-124.5" font-family="Helvetica,sans-Serif" font-size="10.00">oscommand.h</text>
</a>
</g>
<!-- Node3&#45;&gt;Node20 -->
<g id="edge38" class="edge"><title>Node3&#45;&gt;Node20</title>
<path fill="none" stroke="midnightblue" d="M1495.25,-184.181C1392.27,-181.672 1116.66,-172.047 889.685,-138 886.81,-137.569 883.852,-137.058 880.884,-136.497"/>
<polygon fill="midnightblue" stroke="midnightblue" points="1495.44,-187.687 1505.52,-184.422 1495.61,-180.688 1495.44,-187.687"/>
</g>
<!-- Node21 -->
<g id="node41" class="node"><title>Node21</title>
<a xlink:href="strmprov_8h.html" target="_top" xlink:title="strmprov.h">
<polygon fill="white" stroke="red" points="810.185,-58.5 810.185,-79.5 873.185,-79.5 873.185,-58.5 810.185,-58.5"/>
<text text-anchor="middle" x="841.685" y="-66.5" font-family="Helvetica,sans-Serif" font-size="10.00">strmprov.h</text>
</a>
</g>
<!-- Node3&#45;&gt;Node21 -->
<g id="edge54" class="edge"><title>Node3&#45;&gt;Node21</title>
<path fill="none" stroke="midnightblue" d="M1495.43,-184.715C1306.19,-183.212 528.873,-174.81 493.685,-138 486.928,-130.932 487.25,-123.362 493.685,-116 514.397,-92.3025 728.127,-76.2543 810.007,-70.9341"/>
<polygon fill="midnightblue" stroke="midnightblue" points="1495.5,-188.216 1505.52,-184.793 1495.55,-181.216 1495.5,-188.216"/>
</g>
<!-- Node22 -->
<g id="node43" class="node"><title>Node22</title>
<a xlink:href="sharedlibs_8h.html" target="_top" xlink:title="sharedlibs.h">
<polygon fill="white" stroke="red" points="1016.18,-116.5 1016.18,-137.5 1085.18,-137.5 1085.18,-116.5 1016.18,-116.5"/>
<text text-anchor="middle" x="1050.68" y="-124.5" font-family="Helvetica,sans-Serif" font-size="10.00">sharedlibs.h</text>
</a>
</g>
<!-- Node3&#45;&gt;Node22 -->
<g id="edge42" class="edge"><title>Node3&#45;&gt;Node22</title>
<path fill="none" stroke="midnightblue" d="M1495.13,-182.604C1416.33,-177.618 1239.99,-164.332 1093.68,-138 1090.95,-137.509 1088.14,-136.938 1085.32,-136.32"/>
<polygon fill="midnightblue" stroke="midnightblue" points="1495.39,-186.127 1505.58,-183.253 1495.82,-179.141 1495.39,-186.127"/>
</g>
<!-- Node23 -->
<g id="node45" class="node"><title>Node23</title>
<a xlink:href="posinfo2d_8h.html" target="_top" xlink:title="posinfo2d.h">
<polygon fill="white" stroke="red" points="1102.18,-116.5 1102.18,-137.5 1169.18,-137.5 1169.18,-116.5 1102.18,-116.5"/>
<text text-anchor="middle" x="1135.68" y="-124.5" font-family="Helvetica,sans-Serif" font-size="10.00">posinfo2d.h</text>
</a>
</g>
<!-- Node3&#45;&gt;Node23 -->
<g id="edge44" class="edge"><title>Node3&#45;&gt;Node23</title>
<path fill="none" stroke="midnightblue" d="M1495.08,-181.272C1427.91,-174.868 1291.58,-160.278 1177.68,-138 1175.02,-137.479 1172.28,-136.887 1169.53,-136.254"/>
<polygon fill="midnightblue" stroke="midnightblue" points="1494.97,-184.777 1505.26,-182.229 1495.63,-177.808 1494.97,-184.777"/>
</g>
<!-- Node3&#45;&gt;Node24 -->
<g id="edge46" class="edge"><title>Node3&#45;&gt;Node24</title>
<path fill="none" stroke="midnightblue" d="M1577.94,-184.181C1780.24,-180.078 2668.87,-161.045 2944.68,-138 2961.86,-136.565 2980.95,-134.058 2996.39,-131.8"/>
<polygon fill="midnightblue" stroke="midnightblue" points="1577.67,-180.685 1567.74,-184.387 1577.81,-187.684 1577.67,-180.685"/>
</g>
<!-- Node25 -->
<g id="node50" class="node"><title>Node25</title>
<a xlink:href="strmdata_8h.html" target="_top" xlink:title="strmdata.h">
<polygon fill="white" stroke="red" points="898.185,-116.5 898.185,-137.5 961.185,-137.5 961.185,-116.5 898.185,-116.5"/>
<text text-anchor="middle" x="929.685" y="-124.5" font-family="Helvetica,sans-Serif" font-size="10.00">strmdata.h</text>
</a>
</g>
<!-- Node3&#45;&gt;Node25 -->
<g id="edge50" class="edge"><title>Node3&#45;&gt;Node25</title>
<path fill="none" stroke="midnightblue" d="M1495.24,-183.75C1401.79,-180.448 1167.76,-169.473 974.685,-138 970.398,-137.301 965.918,-136.408 961.516,-135.433"/>
<polygon fill="midnightblue" stroke="midnightblue" points="1495.29,-187.253 1505.4,-184.098 1495.53,-180.258 1495.29,-187.253"/>
</g>
<!-- Node26 -->
<g id="node54" class="node"><title>Node26</title>
<a xlink:href="zdomain_8h.html" target="_top" xlink:title="zdomain.h">
<polygon fill="white" stroke="red" points="1186.68,-116.5 1186.68,-137.5 1248.68,-137.5 1248.68,-116.5 1186.68,-116.5"/>
<text text-anchor="middle" x="1217.68" y="-124.5" font-family="Helvetica,sans-Serif" font-size="10.00">zdomain.h</text>
</a>
</g>
<!-- Node3&#45;&gt;Node26 -->
<g id="edge56" class="edge"><title>Node3&#45;&gt;Node26</title>
<path fill="none" stroke="midnightblue" d="M1495.53,-179.401C1440.88,-171.663 1341.49,-156.532 1257.68,-138 1254.87,-137.378 1251.96,-136.682 1249.05,-135.95"/>
<polygon fill="midnightblue" stroke="midnightblue" points="1495.13,-182.88 1505.52,-180.804 1496.11,-175.948 1495.13,-182.88"/>
</g>
<!-- Node27 -->
<g id="node58" class="node"><title>Node27</title>
<a xlink:href="binidsorting_8h.html" target="_top" xlink:title="binidsorting.h">
<polygon fill="white" stroke="black" points="1266.68,-116.5 1266.68,-137.5 1340.68,-137.5 1340.68,-116.5 1266.68,-116.5"/>
<text text-anchor="middle" x="1303.68" y="-124.5" font-family="Helvetica,sans-Serif" font-size="10.00">binidsorting.h</text>
</a>
</g>
<!-- Node3&#45;&gt;Node27 -->
<g id="edge62" class="edge"><title>Node3&#45;&gt;Node27</title>
<path fill="none" stroke="midnightblue" d="M1495.5,-174.747C1451.66,-163.836 1382.94,-146.728 1340.75,-136.226"/>
<polygon fill="midnightblue" stroke="midnightblue" points="1494.71,-178.159 1505.26,-177.178 1496.4,-171.366 1494.71,-178.159"/>
</g>
<!-- Node28 -->
<g id="node60" class="node"><title>Node28</title>
<a xlink:href="hilberttransform_8h.html" target="_top" xlink:title="hilberttransform.h">
<polygon fill="white" stroke="black" points="1358.68,-116.5 1358.68,-137.5 1450.68,-137.5 1450.68,-116.5 1358.68,-116.5"/>
<text text-anchor="middle" x="1404.68" y="-124.5" font-family="Helvetica,sans-Serif" font-size="10.00">hilberttransform.h</text>
</a>
</g>
<!-- Node3&#45;&gt;Node28 -->
<g id="edge64" class="edge"><title>Node3&#45;&gt;Node28</title>
<path fill="none" stroke="midnightblue" d="M1503.33,-170.343C1480.13,-160.15 1449.74,-146.798 1428.86,-137.621"/>
<polygon fill="midnightblue" stroke="midnightblue" points="1502.22,-173.678 1512.78,-174.497 1505.03,-167.27 1502.22,-173.678"/>
</g>
<!-- Node29 -->
<g id="node63" class="node"><title>Node29</title>
<a xlink:href="databuf_8h.html" target="_top" xlink:title="databuf.h">
<polygon fill="white" stroke="red" points="1468.18,-116.5 1468.18,-137.5 1525.18,-137.5 1525.18,-116.5 1468.18,-116.5"/>
<text text-anchor="middle" x="1496.68" y="-124.5" font-family="Helvetica,sans-Serif" font-size="10.00">databuf.h</text>
</a>
</g>
<!-- Node3&#45;&gt;Node29 -->
<g id="edge68" class="edge"><title>Node3&#45;&gt;Node29</title>
<path fill="none" stroke="midnightblue" d="M1523.55,-165.959C1517.04,-156.522 1509.43,-145.484 1503.97,-137.571"/>
<polygon fill="midnightblue" stroke="midnightblue" points="1520.79,-168.117 1529.35,-174.362 1526.55,-164.143 1520.79,-168.117"/>
</g>
<!-- Node30 -->
<g id="node65" class="node"><title>Node30</title>
<a xlink:href="datacoldef_8h.html" target="_top" xlink:title="datacoldef.h">
<polygon fill="white" stroke="red" points="1542.68,-116.5 1542.68,-137.5 1612.68,-137.5 1612.68,-116.5 1542.68,-116.5"/>
<text text-anchor="middle" x="1577.68" y="-124.5" font-family="Helvetica,sans-Serif" font-size="10.00">datacoldef.h</text>
</a>
</g>
<!-- Node3&#45;&gt;Node30 -->
<g id="edge70" class="edge"><title>Node3&#45;&gt;Node30</title>
<path fill="none" stroke="midnightblue" d="M1550.14,-165.959C1556.82,-156.522 1564.62,-145.484 1570.21,-137.571"/>
<polygon fill="midnightblue" stroke="midnightblue" points="1547.12,-164.176 1544.2,-174.362 1552.84,-168.216 1547.12,-164.176"/>
</g>
<!-- Node31 -->
<g id="node67" class="node"><title>Node31</title>
<a xlink:href="transl_8h.html" target="_top" xlink:title="transl.h">
<polygon fill="white" stroke="red" points="1677.18,-58.5 1677.18,-79.5 1726.18,-79.5 1726.18,-58.5 1677.18,-58.5"/>
<text text-anchor="middle" x="1701.68" y="-66.5" font-family="Helvetica,sans-Serif" font-size="10.00">transl.h</text>
</a>
</g>
<!-- Node3&#45;&gt;Node31 -->
<g id="edge72" class="edge"><title>Node3&#45;&gt;Node31</title>
<path fill="none" stroke="midnightblue" d="M1578.05,-179.976C1625.52,-173.259 1699,-159.628 1715.68,-138 1728.97,-120.772 1717.01,-94.143 1708.49,-79.5153"/>
<polygon fill="midnightblue" stroke="midnightblue" points="1577.48,-176.52 1568.05,-181.343 1578.43,-183.455 1577.48,-176.52"/>
</g>
<!-- Node32 -->
<g id="node69" class="node"><title>Node32</title>
<a xlink:href="streamconn_8h.html" target="_top" xlink:title="streamconn.h">
<polygon fill="white" stroke="red" points="1630.68,-116.5 1630.68,-137.5 1706.68,-137.5 1706.68,-116.5 1630.68,-116.5"/>
<text text-anchor="middle" x="1668.68" y="-124.5" font-family="Helvetica,sans-Serif" font-size="10.00">streamconn.h</text>
</a>
</g>
<!-- Node3&#45;&gt;Node32 -->
<g id="edge74" class="edge"><title>Node3&#45;&gt;Node32</title>
<path fill="none" stroke="midnightblue" d="M1570.04,-170.343C1593.24,-160.15 1623.63,-146.798 1644.51,-137.621"/>
<polygon fill="midnightblue" stroke="midnightblue" points="1568.34,-167.27 1560.59,-174.497 1571.15,-173.678 1568.34,-167.27"/>
</g>
<!-- Node33 -->
<g id="node72" class="node"><title>Node33</title>
<a xlink:href="mousecursor_8h.html" target="_top" xlink:title="mousecursor.h">
<polygon fill="white" stroke="red" points="1762.18,-116.5 1762.18,-137.5 1843.18,-137.5 1843.18,-116.5 1762.18,-116.5"/>
<text text-anchor="middle" x="1802.68" y="-124.5" font-family="Helvetica,sans-Serif" font-size="10.00">mousecursor.h</text>
</a>
</g>
<!-- Node3&#45;&gt;Node33 -->
<g id="edge78" class="edge"><title>Node3&#45;&gt;Node33</title>
<path fill="none" stroke="midnightblue" d="M1577.55,-176.089C1627.59,-165.178 1711.85,-146.807 1761.87,-135.901"/>
<polygon fill="midnightblue" stroke="midnightblue" points="1576.74,-172.683 1567.72,-178.233 1578.24,-179.522 1576.74,-172.683"/>
</g>
<!-- Node34 -->
<g id="node74" class="node"><title>Node34</title>
<a xlink:href="fontdata_8h.html" target="_top" xlink:title="fontdata.h">
<polygon fill="white" stroke="red" points="1860.68,-116.5 1860.68,-137.5 1920.68,-137.5 1920.68,-116.5 1860.68,-116.5"/>
<text text-anchor="middle" x="1890.68" y="-124.5" font-family="Helvetica,sans-Serif" font-size="10.00">fontdata.h</text>
</a>
</g>
<!-- Node3&#45;&gt;Node34 -->
<g id="edge80" class="edge"><title>Node3&#45;&gt;Node34</title>
<path fill="none" stroke="midnightblue" d="M1578.05,-180.524C1638.55,-173.595 1754.53,-158.861 1851.68,-138 1854.57,-137.38 1857.56,-136.667 1860.55,-135.909"/>
<polygon fill="midnightblue" stroke="midnightblue" points="1577.31,-177.085 1567.77,-181.687 1578.1,-184.04 1577.31,-177.085"/>
</g>
<!-- Node35 -->
<g id="node76" class="node"><title>Node35</title>
<a xlink:href="helpview_8h.html" target="_top" xlink:title="helpview.h">
<polygon fill="white" stroke="red" points="1938.18,-116.5 1938.18,-137.5 2001.18,-137.5 2001.18,-116.5 1938.18,-116.5"/>
<text text-anchor="middle" x="1969.68" y="-124.5" font-family="Helvetica,sans-Serif" font-size="10.00">helpview.h</text>
</a>
</g>
<!-- Node3&#45;&gt;Node35 -->
<g id="edge82" class="edge"><title>Node3&#45;&gt;Node35</title>
<path fill="none" stroke="midnightblue" d="M1577.76,-182.119C1649.61,-176.628 1802.59,-162.93 1929.68,-138 1932.37,-137.473 1935.14,-136.86 1937.91,-136.199"/>
<polygon fill="midnightblue" stroke="midnightblue" points="1577.47,-178.631 1567.76,-182.87 1577.99,-185.611 1577.47,-178.631"/>
</g>
<!-- Node36 -->
<g id="node78" class="node"><title>Node36</title>
<a xlink:href="linekey_8h.html" target="_top" xlink:title="linekey.h">
<polygon fill="white" stroke="red" points="2612.68,-116.5 2612.68,-137.5 2668.68,-137.5 2668.68,-116.5 2612.68,-116.5"/>
<text text-anchor="middle" x="2640.68" y="-124.5" font-family="Helvetica,sans-Serif" font-size="10.00">linekey.h</text>
</a>
</g>
<!-- Node3&#45;&gt;Node36 -->
<g id="edge84" class="edge"><title>Node3&#45;&gt;Node36</title>
<path fill="none" stroke="midnightblue" d="M1578.02,-184.53C1748.94,-182.38 2400.96,-172.069 2603.68,-138 2606.59,-137.511 2609.59,-136.866 2612.57,-136.131"/>
<polygon fill="midnightblue" stroke="midnightblue" points="1577.89,-181.032 1567.93,-184.655 1577.97,-188.031 1577.89,-181.032"/>
</g>
<!-- Node38 -->
<g id="node82" class="node"><title>Node38</title>
<a xlink:href="menuhandler_8h.html" target="_top" xlink:title="menuhandler.h">
<polygon fill="white" stroke="red" points="2056.68,-116.5 2056.68,-137.5 2136.68,-137.5 2136.68,-116.5 2056.68,-116.5"/>
<text text-anchor="middle" x="2096.68" y="-124.5" font-family="Helvetica,sans-Serif" font-size="10.00">menuhandler.h</text>
</a>
</g>
<!-- Node3&#45;&gt;Node38 -->
<g id="edge88" class="edge"><title>Node3&#45;&gt;Node38</title>
<path fill="none" stroke="midnightblue" d="M1578.12,-182.677C1664.73,-177.485 1871.14,-163.363 2042.68,-138 2047.23,-137.328 2051.97,-136.522 2056.67,-135.655"/>
<polygon fill="midnightblue" stroke="midnightblue" points="1577.69,-179.196 1567.92,-183.28 1578.11,-186.183 1577.69,-179.196"/>
</g>
<!-- Node39 -->
<g id="node84" class="node"><title>Node39</title>
<a xlink:href="posinfodetector_8h.html" target="_top" xlink:title="posinfodetector.h">
<polygon fill="white" stroke="black" points="2154.68,-116.5 2154.68,-137.5 2246.68,-137.5 2246.68,-116.5 2154.68,-116.5"/>
<text text-anchor="middle" x="2200.68" y="-124.5" font-family="Helvetica,sans-Serif" font-size="10.00">posinfodetector.h</text>
</a>
</g>
<!-- Node3&#45;&gt;Node39 -->
<g id="edge90" class="edge"><title>Node3&#45;&gt;Node39</title>
<path fill="none" stroke="midnightblue" d="M1578.02,-183.527C1676.65,-179.64 1933.35,-167.319 2145.68,-138 2148.58,-137.6 2151.55,-137.143 2154.54,-136.648"/>
<polygon fill="midnightblue" stroke="midnightblue" points="1577.74,-180.036 1567.88,-183.919 1578.01,-187.03 1577.74,-180.036"/>
</g>
<!-- Node40 -->
<g id="node87" class="node"><title>Node40</title>
<a xlink:href="useraction_8h.html" target="_top" xlink:title="useraction.h">
<polygon fill="white" stroke="black" points="2264.68,-116.5 2264.68,-137.5 2334.68,-137.5 2334.68,-116.5 2264.68,-116.5"/>
<text text-anchor="middle" x="2299.68" y="-124.5" font-family="Helvetica,sans-Serif" font-size="10.00">useraction.h</text>
</a>
</g>
<!-- Node3&#45;&gt;Node40 -->
<g id="edge94" class="edge"><title>Node3&#45;&gt;Node40</title>
<path fill="none" stroke="midnightblue" d="M1578.25,-183.267C1710.97,-177.578 2123.62,-158.653 2255.68,-138 2258.49,-137.562 2261.37,-137.03 2264.26,-136.438"/>
<polygon fill="midnightblue" stroke="midnightblue" points="1577.94,-179.777 1568.09,-183.7 1578.23,-186.771 1577.94,-179.777"/>
</g>
<!-- Node41 -->
<g id="node89" class="node"><title>Node41</title>
<a xlink:href="ziparchiveinfo_8h.html" target="_top" xlink:title="ziparchiveinfo.h">
<polygon fill="white" stroke="black" points="2352.18,-116.5 2352.18,-137.5 2437.18,-137.5 2437.18,-116.5 2352.18,-116.5"/>
<text text-anchor="middle" x="2394.68" y="-124.5" font-family="Helvetica,sans-Serif" font-size="10.00">ziparchiveinfo.h</text>
</a>
</g>
<!-- Node3&#45;&gt;Node41 -->
<g id="edge96" class="edge"><title>Node3&#45;&gt;Node41</title>
<path fill="none" stroke="midnightblue" d="M1577.97,-183.44C1720.77,-177.91 2193.27,-158.477 2343.68,-138 2346.38,-137.633 2349.14,-137.202 2351.92,-136.725"/>
<polygon fill="midnightblue" stroke="midnightblue" points="1577.73,-179.946 1567.88,-183.828 1578,-186.941 1577.73,-179.946"/>
</g>
<!-- Node42 -->
<g id="node91" class="node"><title>Node42</title>
<a xlink:href="cvsaccess_8h.html" target="_top" xlink:title="cvsaccess.h">
<polygon fill="white" stroke="black" points="2454.68,-116.5 2454.68,-137.5 2526.68,-137.5 2526.68,-116.5 2454.68,-116.5"/>
<text text-anchor="middle" x="2490.68" y="-124.5" font-family="Helvetica,sans-Serif" font-size="10.00">cvsaccess.h</text>
</a>
</g>
<!-- Node3&#45;&gt;Node42 -->
<g id="edge98" class="edge"><title>Node3&#45;&gt;Node42</title>
<path fill="none" stroke="midnightblue" d="M1578.01,-183.897C1732.33,-179.616 2274.7,-163.091 2445.68,-138 2448.55,-137.58 2451.5,-137.06 2454.45,-136.477"/>
<polygon fill="midnightblue" stroke="midnightblue" points="1577.9,-180.398 1568,-184.172 1578.09,-187.396 1577.9,-180.398"/>
</g>
<!-- Node3&#45;&gt;Node43 -->
<g id="edge100" class="edge"><title>Node3&#45;&gt;Node43</title>
<path fill="none" stroke="midnightblue" d="M1577.85,-184.282C1763.59,-180.911 2524.76,-165.644 2761.68,-138 2764.44,-137.678 2767.26,-137.296 2770.11,-136.869"/>
<polygon fill="midnightblue" stroke="midnightblue" points="1577.63,-180.785 1567.69,-184.465 1577.76,-187.784 1577.63,-180.785"/>
</g>
<!-- Node5&#45;&gt;Node6 -->
<g id="edge10" class="edge"><title>Node5&#45;&gt;Node6</title>
<path fill="none" stroke="midnightblue" d="M2719.68,-106.191C2719.68,-97.1684 2719.68,-86.9941 2719.68,-79.5707"/>
<polygon fill="midnightblue" stroke="midnightblue" points="2716.18,-106.362 2719.68,-116.362 2723.18,-106.362 2716.18,-106.362"/>
</g>
<!-- Node6&#45;&gt;Node7 -->
<g id="edge12" class="edge"><title>Node6&#45;&gt;Node7</title>
<path fill="none" stroke="midnightblue" d="M2686.52,-58.3442C2685.9,-58.2223 2685.29,-58.1073 2684.68,-58 2480.64,-21.9538 1807.41,-12.7641 1670.22,-11.2479"/>
<polygon fill="midnightblue" stroke="midnightblue" points="2686,-61.8214 2696.55,-60.8067 2687.67,-55.0232 2686,-61.8214"/>
</g>
<!-- Node6&#45;&gt;Node8 -->
<g id="edge14" class="edge"><title>Node6&#45;&gt;Node8</title>
<path fill="none" stroke="midnightblue" d="M2686.5,-58.4322C2685.89,-58.2833 2685.29,-58.139 2684.68,-58 2582.8,-34.4402 2459.32,-19.8281 2403.56,-13.9605"/>
<polygon fill="midnightblue" stroke="midnightblue" points="2685.91,-61.8986 2696.48,-61.1559 2687.75,-55.1457 2685.91,-61.8986"/>
</g>
<!-- Node6&#45;&gt;Node9 -->
<g id="edge16" class="edge"><title>Node6&#45;&gt;Node9</title>
<path fill="none" stroke="midnightblue" d="M2747.71,-53.5175C2766,-43.4189 2789.38,-30.5032 2805.55,-21.5707"/>
<polygon fill="midnightblue" stroke="midnightblue" points="2746,-50.463 2738.94,-58.3619 2749.39,-56.5903 2746,-50.463"/>
</g>
<!-- Node12&#45;&gt;Node13 -->
<g id="edge24" class="edge"><title>Node12&#45;&gt;Node13</title>
<path fill="none" stroke="midnightblue" d="M338.959,-106.784C341.804,-97.617 345.05,-87.1572 347.404,-79.5707"/>
<polygon fill="midnightblue" stroke="midnightblue" points="335.608,-105.774 335.986,-116.362 342.293,-107.849 335.608,-105.774"/>
</g>
<!-- Node14&#45;&gt;Node15 -->
<g id="edge28" class="edge"><title>Node14&#45;&gt;Node15</title>
<path fill="none" stroke="midnightblue" d="M57.6848,-106.191C57.6848,-97.1684 57.6848,-86.9941 57.6848,-79.5707"/>
<polygon fill="midnightblue" stroke="midnightblue" points="54.1849,-106.362 57.6848,-116.362 61.1849,-106.362 54.1849,-106.362"/>
</g>
<!-- Node15&#45;&gt;Node16 -->
<g id="edge30" class="edge"><title>Node15&#45;&gt;Node16</title>
<path fill="none" stroke="midnightblue" d="M94.1576,-57.8662C128.518,-47.3772 179.615,-31.7792 213.282,-21.5018"/>
<polygon fill="midnightblue" stroke="midnightblue" points="93.0466,-54.5458 84.5042,-60.813 95.0904,-61.2408 93.0466,-54.5458"/>
</g>
<!-- Node20&#45;&gt;Node21 -->
<g id="edge40" class="edge"><title>Node20&#45;&gt;Node21</title>
<path fill="none" stroke="midnightblue" d="M841.685,-106.191C841.685,-97.1684 841.685,-86.9941 841.685,-79.5707"/>
<polygon fill="midnightblue" stroke="midnightblue" points="838.185,-106.362 841.685,-116.362 845.185,-106.362 838.185,-106.362"/>
</g>
<!-- Node25&#45;&gt;Node21 -->
<g id="edge52" class="edge"><title>Node25&#45;&gt;Node21</title>
<path fill="none" stroke="midnightblue" d="M905.138,-110.821C889.98,-100.831 870.966,-88.2993 857.723,-79.5707"/>
<polygon fill="midnightblue" stroke="midnightblue" points="903.269,-113.781 913.544,-116.362 907.121,-107.936 903.269,-113.781"/>
</g>
<!-- Node32&#45;&gt;Node31 -->
<g id="edge76" class="edge"><title>Node32&#45;&gt;Node31</title>
<path fill="none" stroke="midnightblue" d="M1679.68,-107.667C1685.02,-98.2948 1691.21,-87.4019 1695.67,-79.5707"/>
<polygon fill="midnightblue" stroke="midnightblue" points="1676.64,-105.939 1674.74,-116.362 1682.72,-109.401 1676.64,-105.939"/>
</g>
<!-- Node36&#45;&gt;Node37 -->
<g id="edge86" class="edge"><title>Node36&#45;&gt;Node37</title>
<path fill="none" stroke="midnightblue" d="M2641.76,-106.191C2642.23,-97.1684 2642.75,-86.9941 2643.14,-79.5707"/>
<polygon fill="midnightblue" stroke="midnightblue" points="2638.26,-106.194 2641.24,-116.362 2645.25,-106.556 2638.26,-106.194"/>
</g>
<!-- Node45&#45;&gt;Node24 -->
<g id="edge106" class="edge"><title>Node45&#45;&gt;Node24</title>
<path fill="none" stroke="midnightblue" d="M3013,-164.784C3016.32,-155.617 3020.11,-145.157 3022.86,-137.571"/>
<polygon fill="midnightblue" stroke="midnightblue" points="3009.65,-163.768 3009.54,-174.362 3016.23,-166.151 3009.65,-163.768"/>
</g>
</g>
</svg>
