<?xml version="1.0" encoding="UTF-8" standalone="no"?>
<!DOCTYPE svg PUBLIC "-//W3C//DTD SVG 1.1//EN"
 "http://www.w3.org/Graphics/SVG/1.1/DTD/svg11.dtd">
<!-- Generated by graphviz version 2.26.0 (20091210.2329)
 -->
<!-- Title: pluginbase.h Pages: 1 -->
<svg width="186pt" height="204pt"
 viewBox="0.00 0.00 186.00 204.00" xmlns="http://www.w3.org/2000/svg" xmlns:xlink="http://www.w3.org/1999/xlink">
<g id="graph1" class="graph" transform="scale(1 1) rotate(0) translate(4 200)">
<title>pluginbase.h</title>
<polygon fill="white" stroke="white" points="-4,5 -4,-200 183,-200 183,5 -4,5"/>
<!-- Node1 -->
<g id="node1" class="node"><title>Node1</title>
<polygon fill="#bfbfbf" stroke="black" points="32.5,-174.5 32.5,-195.5 103.5,-195.5 103.5,-174.5 32.5,-174.5"/>
<text text-anchor="middle" x="68" y="-182.5" font-family="Helvetica,sans-Serif" font-size="10.00">pluginbase.h</text>
</g>
<!-- Node2 -->
<g id="node3" class="node"><title>Node2</title>
<a xlink:href="odplugin_8h.html" target="_top" xlink:title="odplugin.h">
<polygon fill="white" stroke="black" points="-0.5,-116.5 -0.5,-137.5 60.5,-137.5 60.5,-116.5 -0.5,-116.5"/>
<text text-anchor="middle" x="30" y="-124.5" font-family="Helvetica,sans-Serif" font-size="10.00">odplugin.h</text>
</a>
</g>
<!-- Node1&#45;&gt;Node2 -->
<g id="edge2" class="edge"><title>Node1&#45;&gt;Node2</title>
<path fill="none" stroke="midnightblue" d="M55.5249,-165.959C49.342,-156.522 42.1099,-145.484 36.9256,-137.571"/>
<polygon fill="midnightblue" stroke="midnightblue" points="52.6223,-167.915 61.0302,-174.362 58.4775,-164.079 52.6223,-167.915"/>
</g>
<!-- Node3 -->
<g id="node5" class="node"><title>Node3</title>
<a xlink:href="plugins_8h.html" target="_top" xlink:title="plugins.h">
<polygon fill="white" stroke="black" points="78,-116.5 78,-137.5 134,-137.5 134,-116.5 78,-116.5"/>
<text text-anchor="middle" x="106" y="-124.5" font-family="Helvetica,sans-Serif" font-size="10.00">plugins.h</text>
</a>
</g>
<!-- Node1&#45;&gt;Node3 -->
<g id="edge4" class="edge"><title>Node1&#45;&gt;Node3</title>
<path fill="none" stroke="midnightblue" d="M80.4751,-165.959C86.658,-156.522 93.8901,-145.484 99.0744,-137.571"/>
<polygon fill="midnightblue" stroke="midnightblue" points="77.5225,-164.079 74.9698,-174.362 83.3777,-167.915 77.5225,-164.079"/>
</g>
<!-- Node4 -->
<g id="node7" class="node"><title>Node4</title>
<a xlink:href="prog_8h.html" target="_top" xlink:title="prog.h">
<polygon fill="white" stroke="black" points="46,-58.5 46,-79.5 90,-79.5 90,-58.5 46,-58.5"/>
<text text-anchor="middle" x="68" y="-66.5" font-family="Helvetica,sans-Serif" font-size="10.00">prog.h</text>
</a>
</g>
<!-- Node3&#45;&gt;Node4 -->
<g id="edge6" class="edge"><title>Node3&#45;&gt;Node4</title>
<path fill="none" stroke="midnightblue" d="M93.5249,-107.959C87.342,-98.522 80.1099,-87.4835 74.9256,-79.5707"/>
<polygon fill="midnightblue" stroke="midnightblue" points="90.6223,-109.915 99.0302,-116.362 96.4775,-106.079 90.6223,-109.915"/>
</g>
<!-- Node6 -->
<g id="node11" class="node"><title>Node6</title>
<a xlink:href="uipluginsel_8h.html" target="_top" xlink:title="uipluginsel.h">
<polygon fill="white" stroke="black" points="107.5,-58.5 107.5,-79.5 178.5,-79.5 178.5,-58.5 107.5,-58.5"/>
<text text-anchor="middle" x="143" y="-66.5" font-family="Helvetica,sans-Serif" font-size="10.00">uipluginsel.h</text>
</a>
</g>
<!-- Node3&#45;&gt;Node6 -->
<g id="edge10" class="edge"><title>Node3&#45;&gt;Node6</title>
<path fill="none" stroke="midnightblue" d="M118.333,-107.667C124.312,-98.2948 131.261,-87.4019 136.257,-79.5707"/>
<polygon fill="midnightblue" stroke="midnightblue" points="115.214,-106.049 112.786,-116.362 121.115,-109.814 115.214,-106.049"/>
</g>
<!-- Node5 -->
<g id="node9" class="node"><title>Node5</title>
<a xlink:href="batchprog_8h.html" target="_top" xlink:title="batchprog.h">
<polygon fill="white" stroke="black" points="34,-0.5 34,-21.5 102,-21.5 102,-0.5 34,-0.5"/>
<text text-anchor="middle" x="68" y="-8.5" font-family="Helvetica,sans-Serif" font-size="10.00">batchprog.h</text>
</a>
</g>
<!-- Node4&#45;&gt;Node5 -->
<g id="edge8" class="edge"><title>Node4&#45;&gt;Node5</title>
<path fill="none" stroke="midnightblue" d="M68,-48.1906C68,-39.1684 68,-28.9941 68,-21.5707"/>
<polygon fill="midnightblue" stroke="midnightblue" points="64.5001,-48.3619 68,-58.3619 71.5001,-48.3619 64.5001,-48.3619"/>
</g>
</g>
</svg>
