<?xml version="1.0" encoding="UTF-8" standalone="no"?>
<!DOCTYPE svg PUBLIC "-//W3C//DTD SVG 1.1//EN"
 "http://www.w3.org/Graphics/SVG/1.1/DTD/svg11.dtd">
<!-- Generated by graphviz version 2.26.0 (20091210.2329)
 -->
<!-- Title: posauxinfo.h Pages: 1 -->
<svg width="960pt" height="784pt"
 viewBox="0.00 0.00 960.00 784.00" xmlns="http://www.w3.org/2000/svg" xmlns:xlink="http://www.w3.org/1999/xlink">
<g id="graph1" class="graph" transform="scale(1 1) rotate(0) translate(4 780)">
<title>posauxinfo.h</title>
<polygon fill="white" stroke="white" points="-4,5 -4,-780 957,-780 957,5 -4,5"/>
<!-- Node1 -->
<g id="node1" class="node"><title>Node1</title>
<polygon fill="#bfbfbf" stroke="black" points="797,-754.5 797,-775.5 869,-775.5 869,-754.5 797,-754.5"/>
<text text-anchor="middle" x="833" y="-762.5" font-family="Helvetica,sans-Serif" font-size="10.00">posauxinfo.h</text>
</g>
<!-- Node2 -->
<g id="node3" class="node"><title>Node2</title>
<polygon fill="white" stroke="#bfbfbf" points="753.5,-696.5 753.5,-717.5 828.5,-717.5 828.5,-696.5 753.5,-696.5"/>
<text text-anchor="middle" x="791" y="-704.5" font-family="Helvetica,sans-Serif" font-size="10.00">generalmod.h</text>
</g>
<!-- Node1&#45;&gt;Node2 -->
<g id="edge2" class="edge"><title>Node1&#45;&gt;Node2</title>
<path fill="none" stroke="midnightblue" d="M825.297,-754.362C819.554,-746.431 811.557,-735.389 804.73,-725.961"/>
<polygon fill="midnightblue" stroke="midnightblue" points="807.355,-723.617 798.655,-717.571 801.685,-727.723 807.355,-723.617"/>
</g>
<!-- Node3 -->
<g id="node5" class="node"><title>Node3</title>
<a xlink:href="position_8h.html" target="_top" xlink:title="position.h">
<polygon fill="white" stroke="black" points="845.5,-696.5 845.5,-717.5 904.5,-717.5 904.5,-696.5 845.5,-696.5"/>
<text text-anchor="middle" x="875" y="-704.5" font-family="Helvetica,sans-Serif" font-size="10.00">position.h</text>
</a>
</g>
<!-- Node1&#45;&gt;Node3 -->
<g id="edge4" class="edge"><title>Node1&#45;&gt;Node3</title>
<path fill="none" stroke="midnightblue" d="M840.703,-754.362C846.446,-746.431 854.443,-735.389 861.27,-725.961"/>
<polygon fill="midnightblue" stroke="midnightblue" points="864.315,-727.723 867.345,-717.571 858.645,-723.617 864.315,-727.723"/>
</g>
<!-- Node4 -->
<g id="node7" class="node"><title>Node4</title>
<polygon fill="white" stroke="#bfbfbf" points="632.5,-0.5 632.5,-21.5 699.5,-21.5 699.5,-0.5 632.5,-0.5"/>
<text text-anchor="middle" x="666" y="-8.5" font-family="Helvetica,sans-Serif" font-size="10.00">basicmod.h</text>
</g>
<!-- Node3&#45;&gt;Node4 -->
<g id="edge6" class="edge"><title>Node3&#45;&gt;Node4</title>
<path fill="none" stroke="midnightblue" d="M888.412,-696.413C910.473,-677.701 952,-636.443 952,-591 952,-591 952,-591 952,-127 952,-86.0677 926.391,-78.5652 891,-58 860.711,-40.3995 766.137,-24.8339 709.701,-16.7906"/>
<polygon fill="midnightblue" stroke="midnightblue" points="710.021,-13.3012 699.632,-15.3774 709.048,-20.2333 710.021,-13.3012"/>
</g>
<!-- Node5 -->
<g id="node9" class="node"><title>Node5</title>
<a xlink:href="coord_8h.html" target="_top" xlink:title="coord.h">
<polygon fill="white" stroke="black" points="660.5,-638.5 660.5,-659.5 709.5,-659.5 709.5,-638.5 660.5,-638.5"/>
<text text-anchor="middle" x="685" y="-646.5" font-family="Helvetica,sans-Serif" font-size="10.00">coord.h</text>
</a>
</g>
<!-- Node3&#45;&gt;Node5 -->
<g id="edge8" class="edge"><title>Node3&#45;&gt;Node5</title>
<path fill="none" stroke="midnightblue" d="M845.312,-697.938C811.159,-687.512 755.177,-670.422 719.22,-659.446"/>
<polygon fill="midnightblue" stroke="midnightblue" points="720.231,-656.095 709.644,-656.523 718.187,-662.79 720.231,-656.095"/>
</g>
<!-- Node34 -->
<g id="node92" class="node"><title>Node34</title>
<a xlink:href="trckey_8h.html" target="_top" xlink:title="trckey.h">
<polygon fill="white" stroke="black" points="849,-406.5 849,-427.5 901,-427.5 901,-406.5 849,-406.5"/>
<text text-anchor="middle" x="875" y="-414.5" font-family="Helvetica,sans-Serif" font-size="10.00">trckey.h</text>
</a>
</g>
<!-- Node3&#45;&gt;Node34 -->
<g id="edge116" class="edge"><title>Node3&#45;&gt;Node34</title>
<path fill="none" stroke="midnightblue" d="M875,-696.444C875,-676.062 875,-629.868 875,-591 875,-591 875,-591 875,-533 875,-499.598 875,-460.785 875,-437.594"/>
<polygon fill="midnightblue" stroke="midnightblue" points="878.5,-437.556 875,-427.556 871.5,-437.556 878.5,-437.556"/>
</g>
<!-- Node5&#45;&gt;Node4 -->
<g id="edge10" class="edge"><title>Node5&#45;&gt;Node4</title>
<path fill="none" stroke="midnightblue" d="M687.969,-638.222C693.312,-617.841 704,-572.182 704,-533 704,-533 704,-533 704,-127 704,-91.7411 687.949,-53.3154 676.711,-30.7323"/>
<polygon fill="midnightblue" stroke="midnightblue" points="679.802,-29.0901 672.105,-21.809 673.582,-32.3005 679.802,-29.0901"/>
</g>
<!-- Node6 -->
<g id="node12" class="node"><title>Node6</title>
<a xlink:href="geometry_8h.html" target="_top" xlink:title="geometry.h">
<polygon fill="white" stroke="black" points="391.5,-580.5 391.5,-601.5 456.5,-601.5 456.5,-580.5 391.5,-580.5"/>
<text text-anchor="middle" x="424" y="-588.5" font-family="Helvetica,sans-Serif" font-size="10.00">geometry.h</text>
</a>
</g>
<!-- Node5&#45;&gt;Node6 -->
<g id="edge12" class="edge"><title>Node5&#45;&gt;Node6</title>
<path fill="none" stroke="midnightblue" d="M660.446,-643.544C616.005,-633.668 521.739,-612.72 466.599,-600.466"/>
<polygon fill="midnightblue" stroke="midnightblue" points="467.3,-597.037 456.779,-598.284 465.782,-603.87 467.3,-597.037"/>
</g>
<!-- Node8 -->
<g id="node16" class="node"><title>Node8</title>
<a xlink:href="undefval_8h.html" target="_top" xlink:title="undefval.h">
<polygon fill="white" stroke="black" points="348,-116.5 348,-137.5 410,-137.5 410,-116.5 348,-116.5"/>
<text text-anchor="middle" x="379" y="-124.5" font-family="Helvetica,sans-Serif" font-size="10.00">undefval.h</text>
</a>
</g>
<!-- Node5&#45;&gt;Node8 -->
<g id="edge114" class="edge"><title>Node5&#45;&gt;Node8</title>
<path fill="none" stroke="midnightblue" d="M682.031,-638.222C676.688,-617.841 666,-572.182 666,-533 666,-533 666,-533 666,-301 666,-243.515 495.508,-171.278 417.336,-141.178"/>
<polygon fill="midnightblue" stroke="midnightblue" points="418.423,-137.847 407.833,-137.552 415.928,-144.387 418.423,-137.847"/>
</g>
<!-- Node7 -->
<g id="node14" class="node"><title>Node7</title>
<a xlink:href="gendefs_8h.html" target="_top" xlink:title="gendefs.h">
<polygon fill="white" stroke="black" points="295.5,-174.5 295.5,-195.5 354.5,-195.5 354.5,-174.5 295.5,-174.5"/>
<text text-anchor="middle" x="325" y="-182.5" font-family="Helvetica,sans-Serif" font-size="10.00">gendefs.h</text>
</a>
</g>
<!-- Node6&#45;&gt;Node7 -->
<g id="edge14" class="edge"><title>Node6&#45;&gt;Node7</title>
<path fill="none" stroke="midnightblue" d="M420.687,-580.472C407.442,-538.218 359,-382.11 359,-359 359,-359 359,-359 359,-301 359,-266.058 344.618,-227.499 334.561,-204.809"/>
<polygon fill="midnightblue" stroke="midnightblue" points="337.671,-203.193 330.312,-195.57 331.311,-206.118 337.671,-203.193"/>
</g>
<!-- Node18 -->
<g id="node41" class="node"><title>Node18</title>
<a xlink:href="ranges_8h.html" target="_top" xlink:title="ranges.h">
<polygon fill="white" stroke="black" points="246,-522.5 246,-543.5 300,-543.5 300,-522.5 246,-522.5"/>
<text text-anchor="middle" x="273" y="-530.5" font-family="Helvetica,sans-Serif" font-size="10.00">ranges.h</text>
</a>
</g>
<!-- Node6&#45;&gt;Node18 -->
<g id="edge46" class="edge"><title>Node6&#45;&gt;Node18</title>
<path fill="none" stroke="midnightblue" d="M396.655,-580.497C372.282,-571.135 336.418,-557.359 309.582,-547.051"/>
<polygon fill="midnightblue" stroke="midnightblue" points="310.732,-543.744 300.142,-543.425 308.222,-550.278 310.732,-543.744"/>
</g>
<!-- Node19 -->
<g id="node44" class="node"><title>Node19</title>
<a xlink:href="math2_8h.html" target="_top" xlink:title="math2.h">
<polygon fill="white" stroke="black" points="429,-464.5 429,-485.5 481,-485.5 481,-464.5 429,-464.5"/>
<text text-anchor="middle" x="455" y="-472.5" font-family="Helvetica,sans-Serif" font-size="10.00">math2.h</text>
</a>
</g>
<!-- Node6&#45;&gt;Node19 -->
<g id="edge112" class="edge"><title>Node6&#45;&gt;Node19</title>
<path fill="none" stroke="midnightblue" d="M426.861,-580.295C432.005,-561.045 442.897,-520.289 449.519,-495.509"/>
<polygon fill="midnightblue" stroke="midnightblue" points="452.946,-496.244 452.146,-485.679 446.183,-494.437 452.946,-496.244"/>
</g>
<!-- Node7&#45;&gt;Node8 -->
<g id="edge16" class="edge"><title>Node7&#45;&gt;Node8</title>
<path fill="none" stroke="midnightblue" d="M334.904,-174.362C342.516,-166.186 353.208,-154.702 362.157,-145.091"/>
<polygon fill="midnightblue" stroke="midnightblue" points="364.906,-147.275 369.158,-137.571 359.783,-142.505 364.906,-147.275"/>
</g>
<!-- Node15 -->
<g id="node33" class="node"><title>Node15</title>
<a xlink:href="commontypes_8h.html" target="_top" xlink:title="commontypes.h">
<polygon fill="white" stroke="black" points="244,-116.5 244,-137.5 330,-137.5 330,-116.5 244,-116.5"/>
<text text-anchor="middle" x="287" y="-124.5" font-family="Helvetica,sans-Serif" font-size="10.00">commontypes.h</text>
</a>
</g>
<!-- Node7&#45;&gt;Node15 -->
<g id="edge36" class="edge"><title>Node7&#45;&gt;Node15</title>
<path fill="none" stroke="midnightblue" d="M318.03,-174.362C312.834,-166.431 305.599,-155.389 299.422,-145.961"/>
<polygon fill="midnightblue" stroke="midnightblue" points="302.334,-144.017 293.926,-137.571 296.478,-147.853 302.334,-144.017"/>
</g>
<!-- Node16 -->
<g id="node36" class="node"><title>Node16</title>
<a xlink:href="errmsg_8h.html" target="_top" xlink:title="errmsg.h">
<polygon fill="white" stroke="black" points="171.5,-116.5 171.5,-137.5 226.5,-137.5 226.5,-116.5 171.5,-116.5"/>
<text text-anchor="middle" x="199" y="-124.5" font-family="Helvetica,sans-Serif" font-size="10.00">errmsg.h</text>
</a>
</g>
<!-- Node7&#45;&gt;Node16 -->
<g id="edge40" class="edge"><title>Node7&#45;&gt;Node16</title>
<path fill="none" stroke="midnightblue" d="M302.182,-174.497C282.414,-165.397 253.587,-152.127 231.424,-141.925"/>
<polygon fill="midnightblue" stroke="midnightblue" points="232.621,-138.623 222.074,-137.621 229.694,-144.982 232.621,-138.623"/>
</g>
<!-- Node8&#45;&gt;Node4 -->
<g id="edge18" class="edge"><title>Node8&#45;&gt;Node4</title>
<path fill="none" stroke="midnightblue" d="M377.795,-116.419C376.705,-101.212 377.213,-73.325 393,-58 424.961,-26.9737 553.609,-16.2396 622.285,-12.6761"/>
<polygon fill="midnightblue" stroke="midnightblue" points="622.549,-16.1675 632.366,-12.1822 622.206,-9.17586 622.549,-16.1675"/>
</g>
<!-- Node9 -->
<g id="node19" class="node"><title>Node9</title>
<a xlink:href="commondefs_8h.html" target="_top" xlink:title="commondefs.h">
<polygon fill="white" stroke="black" points="189.5,-58.5 189.5,-79.5 270.5,-79.5 270.5,-58.5 189.5,-58.5"/>
<text text-anchor="middle" x="230" y="-66.5" font-family="Helvetica,sans-Serif" font-size="10.00">commondefs.h</text>
</a>
</g>
<!-- Node8&#45;&gt;Node9 -->
<g id="edge20" class="edge"><title>Node8&#45;&gt;Node9</title>
<path fill="none" stroke="midnightblue" d="M352.017,-116.497C328.147,-107.205 293.106,-93.5649 266.693,-83.2832"/>
<polygon fill="midnightblue" stroke="midnightblue" points="267.622,-79.889 257.033,-79.5231 265.083,-86.4122 267.622,-79.889"/>
</g>
<!-- Node13 -->
<g id="node28" class="node"><title>Node13</title>
<a xlink:href="plftypes_8h.html" target="_top" xlink:title="plftypes.h">
<polygon fill="white" stroke="black" points="287.5,-58.5 287.5,-79.5 346.5,-79.5 346.5,-58.5 287.5,-58.5"/>
<text text-anchor="middle" x="317" y="-66.5" font-family="Helvetica,sans-Serif" font-size="10.00">plftypes.h</text>
</a>
</g>
<!-- Node8&#45;&gt;Node13 -->
<g id="edge30" class="edge"><title>Node8&#45;&gt;Node13</title>
<path fill="none" stroke="midnightblue" d="M367.628,-116.362C358.714,-108.023 346.121,-96.2418 335.724,-86.5162"/>
<polygon fill="midnightblue" stroke="midnightblue" points="337.993,-83.8463 328.3,-79.5707 333.211,-88.9582 337.993,-83.8463"/>
</g>
<!-- Node9&#45;&gt;Node4 -->
<g id="edge22" class="edge"><title>Node9&#45;&gt;Node4</title>
<path fill="none" stroke="midnightblue" d="M270.58,-59.5621C273.423,-59.002 276.251,-58.4743 279,-58 402.802,-36.6413 550.534,-21.5462 622.405,-14.8607"/>
<polygon fill="midnightblue" stroke="midnightblue" points="622.81,-18.3383 632.447,-13.9356 622.168,-11.3679 622.81,-18.3383"/>
</g>
<!-- Node10 -->
<g id="node22" class="node"><title>Node10</title>
<a xlink:href="plfdefs_8h.html" target="_top" xlink:title="plfdefs.h">
<polygon fill="white" stroke="black" points="277,-0.5 277,-21.5 331,-21.5 331,-0.5 277,-0.5"/>
<text text-anchor="middle" x="304" y="-8.5" font-family="Helvetica,sans-Serif" font-size="10.00">plfdefs.h</text>
</a>
</g>
<!-- Node9&#45;&gt;Node10 -->
<g id="edge24" class="edge"><title>Node9&#45;&gt;Node10</title>
<path fill="none" stroke="midnightblue" d="M243.573,-58.3619C254.421,-49.859 269.834,-37.7785 282.379,-27.9466"/>
<polygon fill="midnightblue" stroke="midnightblue" points="284.802,-30.4942 290.513,-21.5707 280.484,-24.9848 284.802,-30.4942"/>
</g>
<!-- Node11 -->
<g id="node24" class="node"><title>Node11</title>
<polygon fill="white" stroke="#bfbfbf" points="200.5,-0.5 200.5,-21.5 259.5,-21.5 259.5,-0.5 200.5,-0.5"/>
<text text-anchor="middle" x="230" y="-8.5" font-family="Helvetica,sans-Serif" font-size="10.00">stdexcept</text>
</g>
<!-- Node9&#45;&gt;Node11 -->
<g id="edge26" class="edge"><title>Node9&#45;&gt;Node11</title>
<path fill="none" stroke="midnightblue" d="M230,-58.3619C230,-50.9219 230,-40.7427 230,-31.7276"/>
<polygon fill="midnightblue" stroke="midnightblue" points="233.5,-31.5706 230,-21.5707 226.5,-31.5707 233.5,-31.5706"/>
</g>
<!-- Node12 -->
<g id="node26" class="node"><title>Node12</title>
<polygon fill="white" stroke="#bfbfbf" points="148.5,-0.5 148.5,-21.5 183.5,-21.5 183.5,-0.5 148.5,-0.5"/>
<text text-anchor="middle" x="166" y="-8.5" font-family="Helvetica,sans-Serif" font-size="10.00">new</text>
</g>
<!-- Node9&#45;&gt;Node12 -->
<g id="edge28" class="edge"><title>Node9&#45;&gt;Node12</title>
<path fill="none" stroke="midnightblue" d="M218.261,-58.3619C209.059,-50.0226 196.06,-38.2418 185.328,-28.5162"/>
<polygon fill="midnightblue" stroke="midnightblue" points="187.424,-25.6924 177.664,-21.5707 182.724,-30.8793 187.424,-25.6924"/>
</g>
<!-- Node13&#45;&gt;Node10 -->
<g id="edge32" class="edge"><title>Node13&#45;&gt;Node10</title>
<path fill="none" stroke="midnightblue" d="M314.616,-58.3619C312.93,-50.8401 310.616,-40.5187 308.579,-31.4308"/>
<polygon fill="midnightblue" stroke="midnightblue" points="311.972,-30.563 306.369,-21.5707 305.141,-32.0941 311.972,-30.563"/>
</g>
<!-- Node14 -->
<g id="node31" class="node"><title>Node14</title>
<polygon fill="white" stroke="#bfbfbf" points="348.5,-0.5 348.5,-21.5 397.5,-21.5 397.5,-0.5 348.5,-0.5"/>
<text text-anchor="middle" x="373" y="-8.5" font-family="Helvetica,sans-Serif" font-size="10.00">stdint.h</text>
</g>
<!-- Node13&#45;&gt;Node14 -->
<g id="edge34" class="edge"><title>Node13&#45;&gt;Node14</title>
<path fill="none" stroke="midnightblue" d="M327.271,-58.3619C335.244,-50.1043 346.475,-38.4725 355.811,-28.8029"/>
<polygon fill="midnightblue" stroke="midnightblue" points="358.366,-31.1958 362.794,-21.5707 353.33,-26.3336 358.366,-31.1958"/>
</g>
<!-- Node15&#45;&gt;Node9 -->
<g id="edge38" class="edge"><title>Node15&#45;&gt;Node9</title>
<path fill="none" stroke="midnightblue" d="M276.545,-116.362C268.43,-108.104 256.999,-96.4725 247.496,-86.8029"/>
<polygon fill="midnightblue" stroke="midnightblue" points="249.894,-84.2497 240.388,-79.5707 244.901,-89.1562 249.894,-84.2497"/>
</g>
<!-- Node16&#45;&gt;Node9 -->
<g id="edge42" class="edge"><title>Node16&#45;&gt;Node9</title>
<path fill="none" stroke="midnightblue" d="M204.686,-116.362C208.837,-108.595 214.584,-97.8426 219.553,-88.5458"/>
<polygon fill="midnightblue" stroke="midnightblue" points="222.723,-90.0398 224.35,-79.5707 216.55,-86.7401 222.723,-90.0398"/>
</g>
<!-- Node17 -->
<g id="node39" class="node"><title>Node17</title>
<polygon fill="white" stroke="#bfbfbf" points="121.5,-58.5 121.5,-79.5 172.5,-79.5 172.5,-58.5 121.5,-58.5"/>
<text text-anchor="middle" x="147" y="-66.5" font-family="Helvetica,sans-Serif" font-size="10.00">typeinfo</text>
</g>
<!-- Node16&#45;&gt;Node17 -->
<g id="edge44" class="edge"><title>Node16&#45;&gt;Node17</title>
<path fill="none" stroke="midnightblue" d="M189.462,-116.362C182.132,-108.186 171.837,-96.7025 163.219,-87.0907"/>
<polygon fill="midnightblue" stroke="midnightblue" points="165.759,-84.68 156.477,-79.5707 160.547,-89.3528 165.759,-84.68"/>
</g>
<!-- Node18&#45;&gt;Node7 -->
<g id="edge48" class="edge"><title>Node18&#45;&gt;Node7</title>
<path fill="none" stroke="midnightblue" d="M266.895,-522.191C256.153,-502.127 235,-457.477 235,-417 235,-417 235,-417 235,-359 235,-296.204 281.818,-233.476 307.92,-203.384"/>
<polygon fill="midnightblue" stroke="midnightblue" points="310.644,-205.587 314.676,-195.79 305.414,-200.935 310.644,-205.587"/>
</g>
<!-- Node18&#45;&gt;Node19 -->
<g id="edge50" class="edge"><title>Node18&#45;&gt;Node19</title>
<path fill="none" stroke="midnightblue" d="M300.247,-524.317C331.836,-514.25 384.023,-497.619 418.948,-486.489"/>
<polygon fill="midnightblue" stroke="midnightblue" points="420.285,-489.737 428.75,-483.365 418.159,-483.067 420.285,-489.737"/>
</g>
<!-- Node28 -->
<g id="node71" class="node"><title>Node28</title>
<a xlink:href="ptrman_8h.html" target="_top" xlink:title="ptrman.h">
<polygon fill="white" stroke="black" points="193.5,-232.5 193.5,-253.5 248.5,-253.5 248.5,-232.5 193.5,-232.5"/>
<text text-anchor="middle" x="221" y="-240.5" font-family="Helvetica,sans-Serif" font-size="10.00">ptrman.h</text>
</a>
</g>
<!-- Node18&#45;&gt;Node28 -->
<g id="edge86" class="edge"><title>Node18&#45;&gt;Node28</title>
<path fill="none" stroke="midnightblue" d="M273,-522.444C273,-502.062 273,-455.868 273,-417 273,-417 273,-417 273,-359 273,-322.145 250.873,-284.013 235.487,-261.952"/>
<polygon fill="midnightblue" stroke="midnightblue" points="238.283,-259.845 229.587,-253.794 232.611,-263.948 238.283,-259.845"/>
</g>
<!-- Node32 -->
<g id="node83" class="node"><title>Node32</title>
<a xlink:href="varlenarray_8h.html" target="_top" xlink:title="varlenarray.h">
<polygon fill="white" stroke="black" points="300.5,-464.5 300.5,-485.5 373.5,-485.5 373.5,-464.5 300.5,-464.5"/>
<text text-anchor="middle" x="337" y="-472.5" font-family="Helvetica,sans-Serif" font-size="10.00">varlenarray.h</text>
</a>
</g>
<!-- Node18&#45;&gt;Node32 -->
<g id="edge102" class="edge"><title>Node18&#45;&gt;Node32</title>
<path fill="none" stroke="midnightblue" d="M284.739,-522.362C293.941,-514.023 306.94,-502.242 317.672,-492.516"/>
<polygon fill="midnightblue" stroke="midnightblue" points="320.276,-494.879 325.336,-485.571 315.576,-489.692 320.276,-494.879"/>
</g>
<!-- Node33 -->
<g id="node86" class="node"><title>Node33</title>
<a xlink:href="samplingdata_8h.html" target="_top" xlink:title="samplingdata.h">
<polygon fill="white" stroke="black" points="124.5,-464.5 124.5,-485.5 207.5,-485.5 207.5,-464.5 124.5,-464.5"/>
<text text-anchor="middle" x="166" y="-472.5" font-family="Helvetica,sans-Serif" font-size="10.00">samplingdata.h</text>
</a>
</g>
<!-- Node18&#45;&gt;Node33 -->
<g id="edge106" class="edge"><title>Node18&#45;&gt;Node33</title>
<path fill="none" stroke="midnightblue" d="M248.283,-522.497C230.442,-513.683 206.713,-500.956 189.228,-490.895"/>
<polygon fill="midnightblue" stroke="midnightblue" points="190.63,-487.66 180.233,-485.621 187.089,-493.699 190.63,-487.66"/>
</g>
<!-- Node19&#45;&gt;Node4 -->
<g id="edge52" class="edge"><title>Node19&#45;&gt;Node4</title>
<path fill="none" stroke="midnightblue" d="M481.275,-470.062C529.671,-459.282 628,-428.792 628,-359 628,-359 628,-359 628,-301 628,-248.041 653.229,-88.846 662.573,-31.7026"/>
<polygon fill="midnightblue" stroke="midnightblue" points="666.05,-32.1316 664.218,-21.6963 659.142,-30.9961 666.05,-32.1316"/>
</g>
<!-- Node19&#45;&gt;Node7 -->
<g id="edge54" class="edge"><title>Node19&#45;&gt;Node7</title>
<path fill="none" stroke="midnightblue" d="M443.907,-464.392C435.157,-455.449 423.256,-441.914 416,-428 401.293,-399.796 397,-390.808 397,-359 397,-359 397,-359 397,-301 397,-268.531 390.393,-259.417 373,-232 365.945,-220.879 355.774,-210.424 346.61,-202.212"/>
<polygon fill="midnightblue" stroke="midnightblue" points="348.787,-199.468 338.918,-195.611 344.228,-204.78 348.787,-199.468"/>
</g>
<!-- Node20 -->
<g id="node48" class="node"><title>Node20</title>
<a xlink:href="odcomplex_8h.html" target="_top" xlink:title="odcomplex.h">
<polygon fill="white" stroke="black" points="425,-406.5 425,-427.5 497,-427.5 497,-406.5 425,-406.5"/>
<text text-anchor="middle" x="461" y="-414.5" font-family="Helvetica,sans-Serif" font-size="10.00">odcomplex.h</text>
</a>
</g>
<!-- Node19&#45;&gt;Node20 -->
<g id="edge56" class="edge"><title>Node19&#45;&gt;Node20</title>
<path fill="none" stroke="midnightblue" d="M456.1,-464.362C456.87,-456.922 457.923,-446.743 458.856,-437.728"/>
<polygon fill="midnightblue" stroke="midnightblue" points="462.359,-437.878 459.906,-427.571 455.396,-437.157 462.359,-437.878"/>
</g>
<!-- Node21 -->
<g id="node50" class="node"><title>Node21</title>
<polygon fill="white" stroke="#bfbfbf" points="424.5,-348.5 424.5,-369.5 477.5,-369.5 477.5,-348.5 424.5,-348.5"/>
<text text-anchor="middle" x="451" y="-356.5" font-family="Helvetica,sans-Serif" font-size="10.00">complex</text>
</g>
<!-- Node20&#45;&gt;Node21 -->
<g id="edge58" class="edge"><title>Node20&#45;&gt;Node21</title>
<path fill="none" stroke="midnightblue" d="M459.166,-406.362C457.869,-398.84 456.089,-388.519 454.523,-379.431"/>
<polygon fill="midnightblue" stroke="midnightblue" points="457.971,-378.831 452.823,-369.571 451.073,-380.02 457.971,-378.831"/>
</g>
<!-- Node22 -->
<g id="node52" class="node"><title>Node22</title>
<a xlink:href="convert_8h.html" target="_top" xlink:title="convert.h">
<polygon fill="white" stroke="black" points="494.5,-348.5 494.5,-369.5 551.5,-369.5 551.5,-348.5 494.5,-348.5"/>
<text text-anchor="middle" x="523" y="-356.5" font-family="Helvetica,sans-Serif" font-size="10.00">convert.h</text>
</a>
</g>
<!-- Node20&#45;&gt;Node22 -->
<g id="edge60" class="edge"><title>Node20&#45;&gt;Node22</title>
<path fill="none" stroke="midnightblue" d="M472.372,-406.362C481.286,-398.023 493.879,-386.242 504.276,-376.516"/>
<polygon fill="midnightblue" stroke="midnightblue" points="506.789,-378.958 511.7,-369.571 502.007,-373.846 506.789,-378.958"/>
</g>
<!-- Node22&#45;&gt;Node8 -->
<g id="edge74" class="edge"><title>Node22&#45;&gt;Node8</title>
<path fill="none" stroke="midnightblue" d="M512.243,-348.387C503.28,-339.226 490.492,-325.392 481,-312 440.851,-255.352 404.302,-181.317 387.985,-146.589"/>
<polygon fill="midnightblue" stroke="midnightblue" points="391.152,-145.099 383.761,-137.508 384.805,-148.052 391.152,-145.099"/>
</g>
<!-- Node23 -->
<g id="node54" class="node"><title>Node23</title>
<a xlink:href="string2_8h.html" target="_top" xlink:title="string2.h">
<polygon fill="white" stroke="black" points="436,-116.5 436,-137.5 490,-137.5 490,-116.5 436,-116.5"/>
<text text-anchor="middle" x="463" y="-124.5" font-family="Helvetica,sans-Serif" font-size="10.00">string2.h</text>
</a>
</g>
<!-- Node22&#45;&gt;Node23 -->
<g id="edge62" class="edge"><title>Node22&#45;&gt;Node23</title>
<path fill="none" stroke="midnightblue" d="M513.891,-348.167C506.767,-339.092 497.222,-325.491 492,-312 470.082,-255.369 464.709,-182.891 463.407,-147.839"/>
<polygon fill="midnightblue" stroke="midnightblue" points="466.905,-147.733 463.111,-137.841 459.908,-147.94 466.905,-147.733"/>
</g>
<!-- Node26 -->
<g id="node64" class="node"><title>Node26</title>
<a xlink:href="fixedstring_8h.html" target="_top" xlink:title="fixedstring.h">
<polygon fill="white" stroke="black" points="501,-290.5 501,-311.5 571,-311.5 571,-290.5 501,-290.5"/>
<text text-anchor="middle" x="536" y="-298.5" font-family="Helvetica,sans-Serif" font-size="10.00">fixedstring.h</text>
</a>
</g>
<!-- Node22&#45;&gt;Node26 -->
<g id="edge76" class="edge"><title>Node22&#45;&gt;Node26</title>
<path fill="none" stroke="midnightblue" d="M525.384,-348.362C527.07,-340.84 529.384,-330.519 531.421,-321.431"/>
<polygon fill="midnightblue" stroke="midnightblue" points="534.859,-322.094 533.631,-311.571 528.028,-320.563 534.859,-322.094"/>
</g>
<!-- Node23&#45;&gt;Node4 -->
<g id="edge64" class="edge"><title>Node23&#45;&gt;Node4</title>
<path fill="none" stroke="midnightblue" d="M479.638,-116.358C501.494,-102.49 541.186,-77.69 576,-58 595.548,-46.9438 617.931,-35.2513 635.484,-26.2943"/>
<polygon fill="midnightblue" stroke="midnightblue" points="637.358,-29.2683 644.691,-21.621 634.19,-23.0263 637.358,-29.2683"/>
</g>
<!-- Node23&#45;&gt;Node9 -->
<g id="edge68" class="edge"><title>Node23&#45;&gt;Node9</title>
<path fill="none" stroke="midnightblue" d="M435.54,-120.129C430.061,-118.76 424.348,-117.333 419,-116 372.019,-104.286 318.458,-90.9702 280.38,-81.5103"/>
<polygon fill="midnightblue" stroke="midnightblue" points="281.107,-78.0847 270.559,-79.0705 279.42,-84.8782 281.107,-78.0847"/>
</g>
<!-- Node23&#45;&gt;Node13 -->
<g id="edge66" class="edge"><title>Node23&#45;&gt;Node13</title>
<path fill="none" stroke="midnightblue" d="M436.561,-116.497C413.244,-107.234 379.05,-93.6499 353.196,-83.3793"/>
<polygon fill="midnightblue" stroke="midnightblue" points="354.322,-80.0605 343.736,-79.6212 351.737,-86.566 354.322,-80.0605"/>
</g>
<!-- Node24 -->
<g id="node59" class="node"><title>Node24</title>
<polygon fill="white" stroke="#bfbfbf" points="401.5,-58.5 401.5,-79.5 450.5,-79.5 450.5,-58.5 401.5,-58.5"/>
<text text-anchor="middle" x="426" y="-66.5" font-family="Helvetica,sans-Serif" font-size="10.00">ctype.h</text>
</g>
<!-- Node23&#45;&gt;Node24 -->
<g id="edge70" class="edge"><title>Node23&#45;&gt;Node24</title>
<path fill="none" stroke="midnightblue" d="M456.214,-116.362C451.207,-108.513 444.255,-97.6159 438.282,-88.2527"/>
<polygon fill="midnightblue" stroke="midnightblue" points="441.072,-86.1189 432.743,-79.5707 435.171,-89.8837 441.072,-86.1189"/>
</g>
<!-- Node25 -->
<g id="node61" class="node"><title>Node25</title>
<polygon fill="white" stroke="#bfbfbf" points="468,-58.5 468,-79.5 524,-79.5 524,-58.5 468,-58.5"/>
<text text-anchor="middle" x="496" y="-66.5" font-family="Helvetica,sans-Serif" font-size="10.00">wctype.h</text>
</g>
<!-- Node23&#45;&gt;Node25 -->
<g id="edge72" class="edge"><title>Node23&#45;&gt;Node25</title>
<path fill="none" stroke="midnightblue" d="M469.053,-116.362C473.472,-108.595 479.59,-97.8426 484.879,-88.5458"/>
<polygon fill="midnightblue" stroke="midnightblue" points="488.082,-89.9932 489.986,-79.5707 481.998,-86.5315 488.082,-89.9932"/>
</g>
<!-- Node26&#45;&gt;Node4 -->
<g id="edge78" class="edge"><title>Node26&#45;&gt;Node4</title>
<path fill="none" stroke="midnightblue" d="M545.226,-290.363C552.854,-281.188 563.598,-267.345 571,-254 614.25,-176.018 647.161,-74.2722 660.058,-31.4264"/>
<polygon fill="midnightblue" stroke="midnightblue" points="663.475,-32.2133 662.964,-21.6308 656.764,-30.222 663.475,-32.2133"/>
</g>
<!-- Node27 -->
<g id="node67" class="node"><title>Node27</title>
<a xlink:href="odstring_8h.html" target="_top" xlink:title="odstring.h">
<polygon fill="white" stroke="black" points="503.5,-232.5 503.5,-253.5 562.5,-253.5 562.5,-232.5 503.5,-232.5"/>
<text text-anchor="middle" x="533" y="-240.5" font-family="Helvetica,sans-Serif" font-size="10.00">odstring.h</text>
</a>
</g>
<!-- Node26&#45;&gt;Node27 -->
<g id="edge80" class="edge"><title>Node26&#45;&gt;Node27</title>
<path fill="none" stroke="midnightblue" d="M535.45,-290.362C535.065,-282.922 534.538,-272.743 534.072,-263.728"/>
<polygon fill="midnightblue" stroke="midnightblue" points="537.559,-263.376 533.547,-253.571 530.568,-263.738 537.559,-263.376"/>
</g>
<!-- Node27&#45;&gt;Node4 -->
<g id="edge82" class="edge"><title>Node27&#45;&gt;Node4</title>
<path fill="none" stroke="midnightblue" d="M535.979,-232.168C544.542,-202.319 571.373,-117.173 614,-58 622.113,-46.7379 633.32,-36.1811 643.252,-27.9369"/>
<polygon fill="midnightblue" stroke="midnightblue" points="645.569,-30.5656 651.2,-21.591 641.202,-25.0953 645.569,-30.5656"/>
</g>
<!-- Node27&#45;&gt;Node7 -->
<g id="edge84" class="edge"><title>Node27&#45;&gt;Node7</title>
<path fill="none" stroke="midnightblue" d="M503.199,-234.69C466.747,-224.526 404.92,-207.285 364.526,-196.022"/>
<polygon fill="midnightblue" stroke="midnightblue" points="365.319,-192.609 354.746,-193.295 363.438,-199.352 365.319,-192.609"/>
</g>
<!-- Node28&#45;&gt;Node7 -->
<g id="edge88" class="edge"><title>Node28&#45;&gt;Node7</title>
<path fill="none" stroke="midnightblue" d="M240.075,-232.362C256.055,-223.45 279.081,-210.609 297.127,-200.545"/>
<polygon fill="midnightblue" stroke="midnightblue" points="299.017,-203.498 306.046,-195.571 295.607,-197.385 299.017,-203.498"/>
</g>
<!-- Node29 -->
<g id="node74" class="node"><title>Node29</title>
<a xlink:href="atomic_8h.html" target="_top" xlink:title="atomic.h">
<polygon fill="white" stroke="black" points="100,-116.5 100,-137.5 154,-137.5 154,-116.5 100,-116.5"/>
<text text-anchor="middle" x="127" y="-124.5" font-family="Helvetica,sans-Serif" font-size="10.00">atomic.h</text>
</a>
</g>
<!-- Node28&#45;&gt;Node29 -->
<g id="edge90" class="edge"><title>Node28&#45;&gt;Node29</title>
<path fill="none" stroke="midnightblue" d="M212.325,-232.295C196.306,-212.527 161.91,-170.08 142.027,-145.544"/>
<polygon fill="midnightblue" stroke="midnightblue" points="144.669,-143.245 135.654,-137.679 139.23,-147.652 144.669,-143.245"/>
</g>
<!-- Node31 -->
<g id="node81" class="node"><title>Node31</title>
<polygon fill="white" stroke="#bfbfbf" points="197,-174.5 197,-195.5 245,-195.5 245,-174.5 197,-174.5"/>
<text text-anchor="middle" x="221" y="-182.5" font-family="Helvetica,sans-Serif" font-size="10.00">stdlib.h</text>
</g>
<!-- Node28&#45;&gt;Node31 -->
<g id="edge100" class="edge"><title>Node28&#45;&gt;Node31</title>
<path fill="none" stroke="midnightblue" d="M221,-232.362C221,-224.922 221,-214.743 221,-205.728"/>
<polygon fill="midnightblue" stroke="midnightblue" points="224.5,-205.571 221,-195.571 217.5,-205.571 224.5,-205.571"/>
</g>
<!-- Node29&#45;&gt;Node4 -->
<g id="edge92" class="edge"><title>Node29&#45;&gt;Node4</title>
<path fill="none" stroke="midnightblue" d="M119.945,-116.401C110.941,-101.428 98.1983,-74.113 113,-58 130.178,-39.3005 494.107,-19.5248 622.018,-13.1274"/>
<polygon fill="midnightblue" stroke="midnightblue" points="622.419,-16.6119 632.233,-12.6199 622.072,-9.62052 622.419,-16.6119"/>
</g>
<!-- Node29&#45;&gt;Node9 -->
<g id="edge94" class="edge"><title>Node29&#45;&gt;Node9</title>
<path fill="none" stroke="midnightblue" d="M145.892,-116.362C161.718,-107.45 184.523,-94.6087 202.395,-84.5447"/>
<polygon fill="midnightblue" stroke="midnightblue" points="204.232,-87.5271 211.228,-79.5707 200.797,-81.4276 204.232,-87.5271"/>
</g>
<!-- Node29&#45;&gt;Node13 -->
<g id="edge96" class="edge"><title>Node29&#45;&gt;Node13</title>
<path fill="none" stroke="midnightblue" d="M154.126,-118.71C157.121,-117.796 160.125,-116.878 163,-116 202.081,-104.066 246.743,-90.436 277.87,-80.9384"/>
<polygon fill="midnightblue" stroke="midnightblue" points="278.933,-84.2734 287.476,-78.0073 276.89,-77.5781 278.933,-84.2734"/>
</g>
<!-- Node30 -->
<g id="node79" class="node"><title>Node30</title>
<polygon fill="white" stroke="#bfbfbf" points="-0.5,-58.5 -0.5,-79.5 66.5,-79.5 66.5,-58.5 -0.5,-58.5"/>
<text text-anchor="middle" x="33" y="-66.5" font-family="Helvetica,sans-Serif" font-size="10.00">odversion.h</text>
</g>
<!-- Node29&#45;&gt;Node30 -->
<g id="edge98" class="edge"><title>Node29&#45;&gt;Node30</title>
<path fill="none" stroke="midnightblue" d="M109.759,-116.362C95.4484,-107.532 74.885,-94.844 58.6432,-84.8224"/>
<polygon fill="midnightblue" stroke="midnightblue" points="60.48,-81.8431 50.1317,-79.5707 56.8042,-87.8004 60.48,-81.8431"/>
</g>
<!-- Node32&#45;&gt;Node28 -->
<g id="edge104" class="edge"><title>Node32&#45;&gt;Node28</title>
<path fill="none" stroke="midnightblue" d="M336.579,-464.354C334.91,-434.263 326.719,-347.075 287,-290 278.077,-277.178 264.477,-266.637 251.936,-258.809"/>
<polygon fill="midnightblue" stroke="midnightblue" points="253.467,-255.649 243.073,-253.596 249.918,-261.683 253.467,-255.649"/>
</g>
<!-- Node33&#45;&gt;Node7 -->
<g id="edge108" class="edge"><title>Node33&#45;&gt;Node7</title>
<path fill="none" stroke="midnightblue" d="M166,-464.444C166,-444.062 166,-397.868 166,-359 166,-359 166,-359 166,-301 166,-269.192 163.137,-255.104 185,-232 198.933,-217.276 249.072,-202.809 285.371,-193.899"/>
<polygon fill="midnightblue" stroke="midnightblue" points="286.294,-197.277 295.2,-191.538 284.659,-190.471 286.294,-197.277"/>
</g>
<!-- Node33&#45;&gt;Node18 -->
<g id="edge110" class="edge"><title>Node33&#45;&gt;Node18</title>
<path fill="none" stroke="midnightblue" d="M190.853,-485.571C208.676,-494.381 232.325,-507.066 249.765,-517.101"/>
<polygon fill="midnightblue" stroke="midnightblue" points="248.342,-520.324 258.739,-522.362 251.882,-514.285 248.342,-520.324"/>
</g>
<!-- Node34&#45;&gt;Node4 -->
<g id="edge118" class="edge"><title>Node34&#45;&gt;Node4</title>
<path fill="none" stroke="midnightblue" d="M881.266,-406.211C892.29,-386.18 914,-341.581 914,-301 914,-301 914,-301 914,-127 914,-88.3308 893.427,-79.0672 861,-58 836.327,-41.9704 759.264,-26.6243 709.724,-18.0435"/>
<polygon fill="midnightblue" stroke="midnightblue" points="710.045,-14.5479 699.599,-16.3173 708.869,-21.4483 710.045,-14.5479"/>
</g>
<!-- Node35 -->
<g id="node95" class="node"><title>Node35</title>
<a xlink:href="binid_8h.html" target="_top" xlink:title="binid.h">
<polygon fill="white" stroke="black" points="805.5,-348.5 805.5,-369.5 850.5,-369.5 850.5,-348.5 805.5,-348.5"/>
<text text-anchor="middle" x="828" y="-356.5" font-family="Helvetica,sans-Serif" font-size="10.00">binid.h</text>
</a>
</g>
<!-- Node34&#45;&gt;Node35 -->
<g id="edge120" class="edge"><title>Node34&#45;&gt;Node35</title>
<path fill="none" stroke="midnightblue" d="M866.379,-406.362C859.82,-398.268 850.634,-386.932 842.894,-377.38"/>
<polygon fill="midnightblue" stroke="midnightblue" points="845.581,-375.136 836.566,-369.571 840.142,-379.544 845.581,-375.136"/>
</g>
<!-- Node35&#45;&gt;Node4 -->
<g id="edge122" class="edge"><title>Node35&#45;&gt;Node4</title>
<path fill="none" stroke="midnightblue" d="M812.625,-348.479C787.888,-330.167 742,-289.881 742,-243 742,-243 742,-243 742,-127 742,-94.5312 735.937,-85.0643 718,-58 710.437,-46.5887 699.479,-36.1303 689.57,-27.991"/>
<polygon fill="midnightblue" stroke="midnightblue" points="691.619,-25.1497 681.592,-21.7294 687.298,-30.6565 691.619,-25.1497"/>
</g>
<!-- Node36 -->
<g id="node98" class="node"><title>Node36</title>
<a xlink:href="posidxpair_8h.html" target="_top" xlink:title="posidxpair.h">
<polygon fill="white" stroke="black" points="793.5,-290.5 793.5,-311.5 862.5,-311.5 862.5,-290.5 793.5,-290.5"/>
<text text-anchor="middle" x="828" y="-298.5" font-family="Helvetica,sans-Serif" font-size="10.00">posidxpair.h</text>
</a>
</g>
<!-- Node35&#45;&gt;Node36 -->
<g id="edge124" class="edge"><title>Node35&#45;&gt;Node36</title>
<path fill="none" stroke="midnightblue" d="M828,-348.362C828,-340.922 828,-330.743 828,-321.728"/>
<polygon fill="midnightblue" stroke="midnightblue" points="831.5,-321.571 828,-311.571 824.5,-321.571 831.5,-321.571"/>
</g>
<!-- Node36&#45;&gt;Node4 -->
<g id="edge126" class="edge"><title>Node36&#45;&gt;Node4</title>
<path fill="none" stroke="midnightblue" d="M835.712,-290.414C849.281,-270.711 876,-226.628 876,-185 876,-185 876,-185 876,-127 876,-51.7976 771.538,-24.9718 709.967,-15.6918"/>
<polygon fill="midnightblue" stroke="midnightblue" points="710.131,-12.1804 699.74,-14.2515 709.154,-19.112 710.131,-12.1804"/>
</g>
<!-- Node37 -->
<g id="node101" class="node"><title>Node37</title>
<a xlink:href="idxpair_8h.html" target="_top" xlink:title="idxpair.h">
<polygon fill="white" stroke="black" points="782.5,-232.5 782.5,-253.5 835.5,-253.5 835.5,-232.5 782.5,-232.5"/>
<text text-anchor="middle" x="809" y="-240.5" font-family="Helvetica,sans-Serif" font-size="10.00">idxpair.h</text>
</a>
</g>
<!-- Node36&#45;&gt;Node37 -->
<g id="edge128" class="edge"><title>Node36&#45;&gt;Node37</title>
<path fill="none" stroke="midnightblue" d="M824.515,-290.362C822.024,-282.758 818.596,-272.294 815.596,-263.135"/>
<polygon fill="midnightblue" stroke="midnightblue" points="818.902,-261.984 812.463,-253.571 812.25,-264.163 818.902,-261.984"/>
</g>
<!-- Node37&#45;&gt;Node4 -->
<g id="edge130" class="edge"><title>Node37&#45;&gt;Node4</title>
<path fill="none" stroke="midnightblue" d="M806.482,-232.405C797.572,-195.206 767.457,-72.0447 756,-58 743.985,-43.2706 726.122,-32.6107 709.471,-25.2054"/>
<polygon fill="midnightblue" stroke="midnightblue" points="710.438,-21.8172 699.86,-21.2152 707.754,-28.2822 710.438,-21.8172"/>
</g>
<!-- Node37&#45;&gt;Node7 -->
<g id="edge132" class="edge"><title>Node37&#45;&gt;Node7</title>
<path fill="none" stroke="midnightblue" d="M782.289,-239.799C701.681,-230.139 460.54,-201.242 364.807,-189.77"/>
<polygon fill="midnightblue" stroke="midnightblue" points="365.015,-186.27 354.67,-188.555 364.182,-193.221 365.015,-186.27"/>
</g>
<!-- Node38 -->
<g id="node105" class="node"><title>Node38</title>
<polygon fill="white" stroke="#bfbfbf" points="808,-174.5 808,-195.5 848,-195.5 848,-174.5 808,-174.5"/>
<text text-anchor="middle" x="828" y="-182.5" font-family="Helvetica,sans-Serif" font-size="10.00">utility</text>
</g>
<!-- Node37&#45;&gt;Node38 -->
<g id="edge134" class="edge"><title>Node37&#45;&gt;Node38</title>
<path fill="none" stroke="midnightblue" d="M812.485,-232.362C814.976,-224.758 818.404,-214.294 821.404,-205.135"/>
<polygon fill="midnightblue" stroke="midnightblue" points="824.75,-206.163 824.537,-195.571 818.098,-203.984 824.75,-206.163"/>
</g>
</g>
</svg>
