<?xml version="1.0" encoding="UTF-8" standalone="no"?>
<!DOCTYPE svg PUBLIC "-//W3C//DTD SVG 1.1//EN"
 "http://www.w3.org/Graphics/SVG/1.1/DTD/svg11.dtd">
<!-- Generated by graphviz version 2.26.0 (20091210.2329)
 -->
<!-- Title: posidxpair.h Pages: 1 -->
<svg width="403pt" height="320pt"
 viewBox="0.00 0.00 403.00 320.00" xmlns="http://www.w3.org/2000/svg" xmlns:xlink="http://www.w3.org/1999/xlink">
<g id="graph1" class="graph" transform="scale(1 1) rotate(0) translate(4 316)">
<title>posidxpair.h</title>
<polygon fill="white" stroke="white" points="-4,5 -4,-316 400,-316 400,5 -4,5"/>
<!-- Node1 -->
<g id="node1" class="node"><title>Node1</title>
<polygon fill="#bfbfbf" stroke="black" points="2.5,-290.5 2.5,-311.5 71.5,-311.5 71.5,-290.5 2.5,-290.5"/>
<text text-anchor="middle" x="37" y="-298.5" font-family="Helvetica,sans-Serif" font-size="10.00">posidxpair.h</text>
</g>
<!-- Node2 -->
<g id="node3" class="node"><title>Node2</title>
<polygon fill="white" stroke="#bfbfbf" points="62.5,-0.5 62.5,-21.5 129.5,-21.5 129.5,-0.5 62.5,-0.5"/>
<text text-anchor="middle" x="96" y="-8.5" font-family="Helvetica,sans-Serif" font-size="10.00">basicmod.h</text>
</g>
<!-- Node1&#45;&gt;Node2 -->
<g id="edge2" class="edge"><title>Node1&#45;&gt;Node2</title>
<path fill="none" stroke="midnightblue" d="M31.2188,-290.485C20.8125,-270.543 0,-225.586 0,-185 0,-185 0,-185 0,-127 0,-83.173 41.1747,-46.9984 69.5929,-27.2506"/>
<polygon fill="midnightblue" stroke="midnightblue" points="71.5814,-30.1313 77.9431,-21.659 67.6866,-24.3149 71.5814,-30.1313"/>
</g>
<!-- Node3 -->
<g id="node5" class="node"><title>Node3</title>
<a xlink:href="idxpair_8h.html" target="_top" xlink:title="idxpair.h">
<polygon fill="white" stroke="black" points="48.5,-232.5 48.5,-253.5 101.5,-253.5 101.5,-232.5 48.5,-232.5"/>
<text text-anchor="middle" x="75" y="-240.5" font-family="Helvetica,sans-Serif" font-size="10.00">idxpair.h</text>
</a>
</g>
<!-- Node1&#45;&gt;Node3 -->
<g id="edge4" class="edge"><title>Node1&#45;&gt;Node3</title>
<path fill="none" stroke="midnightblue" d="M43.9698,-290.362C49.1657,-282.431 56.4006,-271.389 62.5775,-261.961"/>
<polygon fill="midnightblue" stroke="midnightblue" points="65.5217,-263.853 68.0744,-253.571 59.6665,-260.017 65.5217,-263.853"/>
</g>
<!-- Node3&#45;&gt;Node2 -->
<g id="edge6" class="edge"><title>Node3&#45;&gt;Node2</title>
<path fill="none" stroke="midnightblue" d="M75.9569,-232.429C79.1956,-196.648 89.7848,-79.6628 94.1219,-31.7481"/>
<polygon fill="midnightblue" stroke="midnightblue" points="97.6217,-31.9083 95.0375,-21.6335 90.6502,-31.2772 97.6217,-31.9083"/>
</g>
<!-- Node4 -->
<g id="node8" class="node"><title>Node4</title>
<a xlink:href="gendefs_8h.html" target="_top" xlink:title="gendefs.h">
<polygon fill="white" stroke="black" points="199.5,-174.5 199.5,-195.5 258.5,-195.5 258.5,-174.5 199.5,-174.5"/>
<text text-anchor="middle" x="229" y="-182.5" font-family="Helvetica,sans-Serif" font-size="10.00">gendefs.h</text>
</a>
</g>
<!-- Node3&#45;&gt;Node4 -->
<g id="edge8" class="edge"><title>Node3&#45;&gt;Node4</title>
<path fill="none" stroke="midnightblue" d="M101.825,-232.897C126.647,-223.549 163.79,-209.56 191.536,-199.11"/>
<polygon fill="midnightblue" stroke="midnightblue" points="192.797,-202.375 200.922,-195.575 190.33,-195.824 192.797,-202.375"/>
</g>
<!-- Node15 -->
<g id="node35" class="node"><title>Node15</title>
<polygon fill="white" stroke="#bfbfbf" points="28,-174.5 28,-195.5 68,-195.5 68,-174.5 28,-174.5"/>
<text text-anchor="middle" x="48" y="-182.5" font-family="Helvetica,sans-Serif" font-size="10.00">utility</text>
</g>
<!-- Node3&#45;&gt;Node15 -->
<g id="edge40" class="edge"><title>Node3&#45;&gt;Node15</title>
<path fill="none" stroke="midnightblue" d="M70.0478,-232.362C66.4702,-224.677 61.5319,-214.069 57.2358,-204.84"/>
<polygon fill="midnightblue" stroke="midnightblue" points="60.3142,-203.159 52.9208,-195.571 53.9681,-206.114 60.3142,-203.159"/>
</g>
<!-- Node5 -->
<g id="node10" class="node"><title>Node5</title>
<a xlink:href="undefval_8h.html" target="_top" xlink:title="undefval.h">
<polygon fill="white" stroke="black" points="152,-116.5 152,-137.5 214,-137.5 214,-116.5 152,-116.5"/>
<text text-anchor="middle" x="183" y="-124.5" font-family="Helvetica,sans-Serif" font-size="10.00">undefval.h</text>
</a>
</g>
<!-- Node4&#45;&gt;Node5 -->
<g id="edge10" class="edge"><title>Node4&#45;&gt;Node5</title>
<path fill="none" stroke="midnightblue" d="M220.563,-174.362C214.208,-166.35 205.334,-155.161 197.807,-145.67"/>
<polygon fill="midnightblue" stroke="midnightblue" points="200.34,-143.231 191.384,-137.571 194.855,-147.581 200.34,-143.231"/>
</g>
<!-- Node12 -->
<g id="node27" class="node"><title>Node12</title>
<a xlink:href="commontypes_8h.html" target="_top" xlink:title="commontypes.h">
<polygon fill="white" stroke="black" points="232,-116.5 232,-137.5 318,-137.5 318,-116.5 232,-116.5"/>
<text text-anchor="middle" x="275" y="-124.5" font-family="Helvetica,sans-Serif" font-size="10.00">commontypes.h</text>
</a>
</g>
<!-- Node4&#45;&gt;Node12 -->
<g id="edge30" class="edge"><title>Node4&#45;&gt;Node12</title>
<path fill="none" stroke="midnightblue" d="M237.437,-174.362C243.792,-166.35 252.666,-155.161 260.193,-145.67"/>
<polygon fill="midnightblue" stroke="midnightblue" points="263.145,-147.581 266.616,-137.571 257.66,-143.231 263.145,-147.581"/>
</g>
<!-- Node13 -->
<g id="node30" class="node"><title>Node13</title>
<a xlink:href="errmsg_8h.html" target="_top" xlink:title="errmsg.h">
<polygon fill="white" stroke="black" points="335.5,-116.5 335.5,-137.5 390.5,-137.5 390.5,-116.5 335.5,-116.5"/>
<text text-anchor="middle" x="363" y="-124.5" font-family="Helvetica,sans-Serif" font-size="10.00">errmsg.h</text>
</a>
</g>
<!-- Node4&#45;&gt;Node13 -->
<g id="edge34" class="edge"><title>Node4&#45;&gt;Node13</title>
<path fill="none" stroke="midnightblue" d="M253.266,-174.497C274.478,-165.315 305.498,-151.889 329.15,-141.652"/>
<polygon fill="midnightblue" stroke="midnightblue" points="330.674,-144.806 338.461,-137.621 327.894,-138.381 330.674,-144.806"/>
</g>
<!-- Node5&#45;&gt;Node2 -->
<g id="edge12" class="edge"><title>Node5&#45;&gt;Node2</title>
<path fill="none" stroke="midnightblue" d="M174.971,-116.295C160.21,-96.6135 128.588,-54.4504 110.15,-29.8668"/>
<polygon fill="midnightblue" stroke="midnightblue" points="112.809,-27.5792 104.009,-21.6792 107.209,-31.7792 112.809,-27.5792"/>
</g>
<!-- Node6 -->
<g id="node13" class="node"><title>Node6</title>
<a xlink:href="commondefs_8h.html" target="_top" xlink:title="commondefs.h">
<polygon fill="white" stroke="black" points="237.5,-58.5 237.5,-79.5 318.5,-79.5 318.5,-58.5 237.5,-58.5"/>
<text text-anchor="middle" x="278" y="-66.5" font-family="Helvetica,sans-Serif" font-size="10.00">commondefs.h</text>
</a>
</g>
<!-- Node5&#45;&gt;Node6 -->
<g id="edge14" class="edge"><title>Node5&#45;&gt;Node6</title>
<path fill="none" stroke="midnightblue" d="M200.424,-116.362C214.887,-107.532 235.669,-94.844 252.084,-84.8224"/>
<polygon fill="midnightblue" stroke="midnightblue" points="253.975,-87.7688 260.686,-79.5707 250.327,-81.7943 253.975,-87.7688"/>
</g>
<!-- Node10 -->
<g id="node22" class="node"><title>Node10</title>
<a xlink:href="plftypes_8h.html" target="_top" xlink:title="plftypes.h">
<polygon fill="white" stroke="black" points="161.5,-58.5 161.5,-79.5 220.5,-79.5 220.5,-58.5 161.5,-58.5"/>
<text text-anchor="middle" x="191" y="-66.5" font-family="Helvetica,sans-Serif" font-size="10.00">plftypes.h</text>
</a>
</g>
<!-- Node5&#45;&gt;Node10 -->
<g id="edge24" class="edge"><title>Node5&#45;&gt;Node10</title>
<path fill="none" stroke="midnightblue" d="M184.467,-116.362C185.494,-108.922 186.898,-98.7427 188.141,-89.7276"/>
<polygon fill="midnightblue" stroke="midnightblue" points="191.643,-89.9551 189.542,-79.5707 184.708,-88.9986 191.643,-89.9551"/>
</g>
<!-- Node6&#45;&gt;Node2 -->
<g id="edge16" class="edge"><title>Node6&#45;&gt;Node2</title>
<path fill="none" stroke="midnightblue" d="M245.041,-58.4966C215.242,-49.0001 171.191,-34.9619 138.703,-24.6087"/>
<polygon fill="midnightblue" stroke="midnightblue" points="139.611,-21.2247 129.021,-21.5231 137.486,-27.8942 139.611,-21.2247"/>
</g>
<!-- Node7 -->
<g id="node16" class="node"><title>Node7</title>
<a xlink:href="plfdefs_8h.html" target="_top" xlink:title="plfdefs.h">
<polygon fill="white" stroke="black" points="213,-0.5 213,-21.5 267,-21.5 267,-0.5 213,-0.5"/>
<text text-anchor="middle" x="240" y="-8.5" font-family="Helvetica,sans-Serif" font-size="10.00">plfdefs.h</text>
</a>
</g>
<!-- Node6&#45;&gt;Node7 -->
<g id="edge18" class="edge"><title>Node6&#45;&gt;Node7</title>
<path fill="none" stroke="midnightblue" d="M271.03,-58.3619C265.834,-50.4313 258.599,-39.3885 252.422,-29.9606"/>
<polygon fill="midnightblue" stroke="midnightblue" points="255.334,-28.0172 246.926,-21.5707 249.478,-31.8534 255.334,-28.0172"/>
</g>
<!-- Node8 -->
<g id="node18" class="node"><title>Node8</title>
<polygon fill="white" stroke="#bfbfbf" points="336.5,-0.5 336.5,-21.5 395.5,-21.5 395.5,-0.5 336.5,-0.5"/>
<text text-anchor="middle" x="366" y="-8.5" font-family="Helvetica,sans-Serif" font-size="10.00">stdexcept</text>
</g>
<!-- Node6&#45;&gt;Node8 -->
<g id="edge20" class="edge"><title>Node6&#45;&gt;Node8</title>
<path fill="none" stroke="midnightblue" d="M294.141,-58.3619C307.414,-49.6138 326.432,-37.0786 341.57,-27.1015"/>
<polygon fill="midnightblue" stroke="midnightblue" points="343.538,-29.9962 349.962,-21.5707 339.686,-24.1515 343.538,-29.9962"/>
</g>
<!-- Node9 -->
<g id="node20" class="node"><title>Node9</title>
<polygon fill="white" stroke="#bfbfbf" points="284.5,-0.5 284.5,-21.5 319.5,-21.5 319.5,-0.5 284.5,-0.5"/>
<text text-anchor="middle" x="302" y="-8.5" font-family="Helvetica,sans-Serif" font-size="10.00">new</text>
</g>
<!-- Node6&#45;&gt;Node9 -->
<g id="edge22" class="edge"><title>Node6&#45;&gt;Node9</title>
<path fill="none" stroke="midnightblue" d="M282.402,-58.3619C285.582,-50.6766 289.972,-40.0686 293.79,-30.8399"/>
<polygon fill="midnightblue" stroke="midnightblue" points="297.036,-32.1491 297.626,-21.5707 290.568,-29.4726 297.036,-32.1491"/>
</g>
<!-- Node10&#45;&gt;Node7 -->
<g id="edge26" class="edge"><title>Node10&#45;&gt;Node7</title>
<path fill="none" stroke="midnightblue" d="M199.987,-58.3619C206.825,-50.2678 216.402,-38.9318 224.472,-29.3796"/>
<polygon fill="midnightblue" stroke="midnightblue" points="227.29,-31.4683 231.07,-21.5707 221.942,-26.9508 227.29,-31.4683"/>
</g>
<!-- Node11 -->
<g id="node25" class="node"><title>Node11</title>
<polygon fill="white" stroke="#bfbfbf" points="146.5,-0.5 146.5,-21.5 195.5,-21.5 195.5,-0.5 146.5,-0.5"/>
<text text-anchor="middle" x="171" y="-8.5" font-family="Helvetica,sans-Serif" font-size="10.00">stdint.h</text>
</g>
<!-- Node10&#45;&gt;Node11 -->
<g id="edge28" class="edge"><title>Node10&#45;&gt;Node11</title>
<path fill="none" stroke="midnightblue" d="M187.332,-58.3619C184.71,-50.7584 181.101,-40.294 177.943,-31.1349"/>
<polygon fill="midnightblue" stroke="midnightblue" points="181.214,-29.8834 174.645,-21.5707 174.596,-32.1654 181.214,-29.8834"/>
</g>
<!-- Node12&#45;&gt;Node6 -->
<g id="edge32" class="edge"><title>Node12&#45;&gt;Node6</title>
<path fill="none" stroke="midnightblue" d="M275.55,-116.362C275.935,-108.922 276.462,-98.7427 276.928,-89.7276"/>
<polygon fill="midnightblue" stroke="midnightblue" points="280.432,-89.7381 277.453,-79.5707 273.441,-89.3765 280.432,-89.7381"/>
</g>
<!-- Node13&#45;&gt;Node6 -->
<g id="edge36" class="edge"><title>Node13&#45;&gt;Node6</title>
<path fill="none" stroke="midnightblue" d="M347.41,-116.362C334.709,-107.696 316.562,-95.3126 302.008,-85.3819"/>
<polygon fill="midnightblue" stroke="midnightblue" points="303.724,-82.316 293.491,-79.5707 299.779,-88.0982 303.724,-82.316"/>
</g>
<!-- Node14 -->
<g id="node33" class="node"><title>Node14</title>
<polygon fill="white" stroke="#bfbfbf" points="337.5,-58.5 337.5,-79.5 388.5,-79.5 388.5,-58.5 337.5,-58.5"/>
<text text-anchor="middle" x="363" y="-66.5" font-family="Helvetica,sans-Serif" font-size="10.00">typeinfo</text>
</g>
<!-- Node13&#45;&gt;Node14 -->
<g id="edge38" class="edge"><title>Node13&#45;&gt;Node14</title>
<path fill="none" stroke="midnightblue" d="M363,-116.362C363,-108.922 363,-98.7427 363,-89.7276"/>
<polygon fill="midnightblue" stroke="midnightblue" points="366.5,-89.5706 363,-79.5707 359.5,-89.5707 366.5,-89.5706"/>
</g>
</g>
</svg>
