<?xml version="1.0" encoding="UTF-8" standalone="no"?>
<!DOCTYPE svg PUBLIC "-//W3C//DTD SVG 1.1//EN"
 "http://www.w3.org/Graphics/SVG/1.1/DTD/svg11.dtd">
<!-- Generated by graphviz version 2.26.0 (20091210.2329)
 -->
<!-- Title: positionlist.h Pages: 1 -->
<svg width="1261pt" height="784pt"
 viewBox="0.00 0.00 1260.88 784.00" xmlns="http://www.w3.org/2000/svg" xmlns:xlink="http://www.w3.org/1999/xlink">
<g id="graph1" class="graph" transform="scale(1 1) rotate(0) translate(4 780)">
<title>positionlist.h</title>
<polygon fill="white" stroke="white" points="-4,5 -4,-780 1257.88,-780 1257.88,5 -4,5"/>
<!-- Node1 -->
<g id="node1" class="node"><title>Node1</title>
<polygon fill="#bfbfbf" stroke="black" points="760.5,-754.5 760.5,-775.5 831.5,-775.5 831.5,-754.5 760.5,-754.5"/>
<text text-anchor="middle" x="796" y="-762.5" font-family="Helvetica,sans-Serif" font-size="10.00">positionlist.h</text>
</g>
<!-- Node2 -->
<g id="node3" class="node"><title>Node2</title>
<polygon fill="white" stroke="#bfbfbf" points="614,-696.5 614,-717.5 676,-717.5 676,-696.5 614,-696.5"/>
<text text-anchor="middle" x="645" y="-704.5" font-family="Helvetica,sans-Serif" font-size="10.00">algomod.h</text>
</g>
<!-- Node1&#45;&gt;Node2 -->
<g id="edge2" class="edge"><title>Node1&#45;&gt;Node2</title>
<path fill="none" stroke="midnightblue" d="M768.655,-754.497C744.358,-745.164 708.64,-731.445 681.832,-721.147"/>
<polygon fill="midnightblue" stroke="midnightblue" points="682.986,-717.842 672.396,-717.523 680.476,-724.376 682.986,-717.842"/>
</g>
<!-- Node3 -->
<g id="node5" class="node"><title>Node3</title>
<a xlink:href="refcount_8h.html" target="_top" xlink:title="refcount.h">
<polygon fill="white" stroke="black" points="946,-580.5 946,-601.5 1006,-601.5 1006,-580.5 946,-580.5"/>
<text text-anchor="middle" x="976" y="-588.5" font-family="Helvetica,sans-Serif" font-size="10.00">refcount.h</text>
</a>
</g>
<!-- Node1&#45;&gt;Node3 -->
<g id="edge4" class="edge"><title>Node1&#45;&gt;Node3</title>
<path fill="none" stroke="midnightblue" d="M806.989,-754.377C836.918,-725.446 920.132,-645.006 957.462,-608.92"/>
<polygon fill="midnightblue" stroke="midnightblue" points="959.938,-611.394 964.695,-601.928 955.073,-606.361 959.938,-611.394"/>
</g>
<!-- Node30 -->
<g id="node77" class="node"><title>Node30</title>
<a xlink:href="position_8h.html" target="_top" xlink:title="position.h">
<polygon fill="white" stroke="black" points="693.5,-696.5 693.5,-717.5 752.5,-717.5 752.5,-696.5 693.5,-696.5"/>
<text text-anchor="middle" x="723" y="-704.5" font-family="Helvetica,sans-Serif" font-size="10.00">position.h</text>
</a>
</g>
<!-- Node1&#45;&gt;Node30 -->
<g id="edge94" class="edge"><title>Node1&#45;&gt;Node30</title>
<path fill="none" stroke="midnightblue" d="M782.611,-754.362C771.909,-745.859 756.704,-733.779 744.329,-723.947"/>
<polygon fill="midnightblue" stroke="midnightblue" points="746.311,-721.051 736.304,-717.571 741.957,-726.532 746.311,-721.051"/>
</g>
<!-- Node47 -->
<g id="node132" class="node"><title>Node47</title>
<a xlink:href="typeset_8h.html" target="_top" xlink:title="typeset.h">
<polygon fill="white" stroke="black" points="1092.5,-522.5 1092.5,-543.5 1149.5,-543.5 1149.5,-522.5 1092.5,-522.5"/>
<text text-anchor="middle" x="1121" y="-530.5" font-family="Helvetica,sans-Serif" font-size="10.00">typeset.h</text>
</a>
</g>
<!-- Node1&#45;&gt;Node47 -->
<g id="edge170" class="edge"><title>Node1&#45;&gt;Node47</title>
<path fill="none" stroke="midnightblue" d="M813.565,-754.32C828.7,-745.005 851.039,-730.986 870,-718 956.703,-658.619 1056.24,-582.916 1099.29,-549.791"/>
<polygon fill="midnightblue" stroke="midnightblue" points="1101.58,-552.447 1107.37,-543.57 1097.31,-546.902 1101.58,-552.447"/>
</g>
<!-- Node4 -->
<g id="node7" class="node"><title>Node4</title>
<a xlink:href="atomic_8h.html" target="_top" xlink:title="atomic.h">
<polygon fill="white" stroke="black" points="680,-116.5 680,-137.5 734,-137.5 734,-116.5 680,-116.5"/>
<text text-anchor="middle" x="707" y="-124.5" font-family="Helvetica,sans-Serif" font-size="10.00">atomic.h</text>
</a>
</g>
<!-- Node3&#45;&gt;Node4 -->
<g id="edge6" class="edge"><title>Node3&#45;&gt;Node4</title>
<path fill="none" stroke="midnightblue" d="M969.876,-580.437C935.303,-520.801 764.444,-226.085 718.43,-146.716"/>
<polygon fill="midnightblue" stroke="midnightblue" points="721.276,-144.646 713.232,-137.75 715.22,-148.156 721.276,-144.646"/>
</g>
<!-- Node13 -->
<g id="node27" class="node"><title>Node13</title>
<a xlink:href="objectset_8h.html" target="_top" xlink:title="objectset.h">
<polygon fill="white" stroke="black" points="1010.5,-522.5 1010.5,-543.5 1075.5,-543.5 1075.5,-522.5 1010.5,-522.5"/>
<text text-anchor="middle" x="1043" y="-530.5" font-family="Helvetica,sans-Serif" font-size="10.00">objectset.h</text>
</a>
</g>
<!-- Node3&#45;&gt;Node13 -->
<g id="edge28" class="edge"><title>Node3&#45;&gt;Node13</title>
<path fill="none" stroke="midnightblue" d="M988.289,-580.362C998.017,-571.941 1011.8,-560.011 1023.1,-550.231"/>
<polygon fill="midnightblue" stroke="midnightblue" points="1025.52,-552.762 1030.79,-543.571 1020.94,-547.469 1025.52,-552.762"/>
</g>
<!-- Node5 -->
<g id="node9" class="node"><title>Node5</title>
<polygon fill="white" stroke="#bfbfbf" points="290.5,-0.5 290.5,-21.5 357.5,-21.5 357.5,-0.5 290.5,-0.5"/>
<text text-anchor="middle" x="324" y="-8.5" font-family="Helvetica,sans-Serif" font-size="10.00">basicmod.h</text>
</g>
<!-- Node4&#45;&gt;Node5 -->
<g id="edge8" class="edge"><title>Node4&#45;&gt;Node5</title>
<path fill="none" stroke="midnightblue" d="M690.886,-116.322C664.358,-98.9186 612.397,-65.6081 592,-58 516.275,-29.7549 422.061,-18.2706 367.897,-13.7597"/>
<polygon fill="midnightblue" stroke="midnightblue" points="367.859,-10.246 357.615,-12.9476 367.308,-17.2243 367.859,-10.246"/>
</g>
<!-- Node6 -->
<g id="node11" class="node"><title>Node6</title>
<a xlink:href="commondefs_8h.html" target="_top" xlink:title="commondefs.h">
<polygon fill="white" stroke="black" points="841.5,-58.5 841.5,-79.5 922.5,-79.5 922.5,-58.5 841.5,-58.5"/>
<text text-anchor="middle" x="882" y="-66.5" font-family="Helvetica,sans-Serif" font-size="10.00">commondefs.h</text>
</a>
</g>
<!-- Node4&#45;&gt;Node6 -->
<g id="edge10" class="edge"><title>Node4&#45;&gt;Node6</title>
<path fill="none" stroke="midnightblue" d="M734.344,-117.938C762.744,-108.525 807.533,-93.6806 840.34,-82.8073"/>
<polygon fill="midnightblue" stroke="midnightblue" points="841.715,-86.039 850.106,-79.5707 839.512,-79.3944 841.715,-86.039"/>
</g>
<!-- Node10 -->
<g id="node20" class="node"><title>Node10</title>
<a xlink:href="plftypes_8h.html" target="_top" xlink:title="plftypes.h">
<polygon fill="white" stroke="black" points="727.5,-58.5 727.5,-79.5 786.5,-79.5 786.5,-58.5 727.5,-58.5"/>
<text text-anchor="middle" x="757" y="-66.5" font-family="Helvetica,sans-Serif" font-size="10.00">plftypes.h</text>
</a>
</g>
<!-- Node4&#45;&gt;Node10 -->
<g id="edge20" class="edge"><title>Node4&#45;&gt;Node10</title>
<path fill="none" stroke="midnightblue" d="M716.171,-116.362C723.148,-108.268 732.921,-96.9318 741.156,-87.3796"/>
<polygon fill="midnightblue" stroke="midnightblue" points="744.009,-89.4301 747.887,-79.5707 738.707,-84.8595 744.009,-89.4301"/>
</g>
<!-- Node12 -->
<g id="node25" class="node"><title>Node12</title>
<polygon fill="white" stroke="#bfbfbf" points="643.5,-58.5 643.5,-79.5 710.5,-79.5 710.5,-58.5 643.5,-58.5"/>
<text text-anchor="middle" x="677" y="-66.5" font-family="Helvetica,sans-Serif" font-size="10.00">odversion.h</text>
</g>
<!-- Node4&#45;&gt;Node12 -->
<g id="edge26" class="edge"><title>Node4&#45;&gt;Node12</title>
<path fill="none" stroke="midnightblue" d="M701.498,-116.362C697.48,-108.595 691.919,-97.8426 687.11,-88.5458"/>
<polygon fill="midnightblue" stroke="midnightblue" points="690.171,-86.8448 682.468,-79.5707 683.953,-90.0608 690.171,-86.8448"/>
</g>
<!-- Node6&#45;&gt;Node5 -->
<g id="edge12" class="edge"><title>Node6&#45;&gt;Node5</title>
<path fill="none" stroke="midnightblue" d="M841.393,-60.2389C836.886,-59.4125 832.354,-58.6445 828,-58 658.839,-32.9579 455.642,-18.8301 367.89,-13.4931"/>
<polygon fill="midnightblue" stroke="midnightblue" points="367.962,-9.99122 357.77,-12.8857 367.543,-16.9786 367.962,-9.99122"/>
</g>
<!-- Node7 -->
<g id="node14" class="node"><title>Node7</title>
<a xlink:href="plfdefs_8h.html" target="_top" xlink:title="plfdefs.h">
<polygon fill="white" stroke="black" points="796,-0.5 796,-21.5 850,-21.5 850,-0.5 796,-0.5"/>
<text text-anchor="middle" x="823" y="-8.5" font-family="Helvetica,sans-Serif" font-size="10.00">plfdefs.h</text>
</a>
</g>
<!-- Node6&#45;&gt;Node7 -->
<g id="edge14" class="edge"><title>Node6&#45;&gt;Node7</title>
<path fill="none" stroke="midnightblue" d="M871.178,-58.3619C862.779,-50.1043 850.946,-38.4725 841.11,-28.8029"/>
<polygon fill="midnightblue" stroke="midnightblue" points="843.338,-26.0851 833.753,-21.5707 838.431,-31.077 843.338,-26.0851"/>
</g>
<!-- Node8 -->
<g id="node16" class="node"><title>Node8</title>
<polygon fill="white" stroke="#bfbfbf" points="1064.5,-0.5 1064.5,-21.5 1123.5,-21.5 1123.5,-0.5 1064.5,-0.5"/>
<text text-anchor="middle" x="1094" y="-8.5" font-family="Helvetica,sans-Serif" font-size="10.00">stdexcept</text>
</g>
<!-- Node6&#45;&gt;Node8 -->
<g id="edge16" class="edge"><title>Node6&#45;&gt;Node8</title>
<path fill="none" stroke="midnightblue" d="M920.392,-58.4966C958.4,-48.0982 1016.31,-32.2544 1054.65,-21.7656"/>
<polygon fill="midnightblue" stroke="midnightblue" points="1055.71,-25.1046 1064.43,-19.0897 1053.86,-18.3527 1055.71,-25.1046"/>
</g>
<!-- Node9 -->
<g id="node18" class="node"><title>Node9</title>
<polygon fill="white" stroke="#bfbfbf" points="867.5,-0.5 867.5,-21.5 902.5,-21.5 902.5,-0.5 867.5,-0.5"/>
<text text-anchor="middle" x="885" y="-8.5" font-family="Helvetica,sans-Serif" font-size="10.00">new</text>
</g>
<!-- Node6&#45;&gt;Node9 -->
<g id="edge18" class="edge"><title>Node6&#45;&gt;Node9</title>
<path fill="none" stroke="midnightblue" d="M882.55,-58.3619C882.935,-50.9219 883.462,-40.7427 883.928,-31.7276"/>
<polygon fill="midnightblue" stroke="midnightblue" points="887.432,-31.7381 884.453,-21.5707 880.441,-31.3765 887.432,-31.7381"/>
</g>
<!-- Node10&#45;&gt;Node7 -->
<g id="edge22" class="edge"><title>Node10&#45;&gt;Node7</title>
<path fill="none" stroke="midnightblue" d="M769.105,-58.3619C778.688,-49.9408 792.264,-38.0105 803.393,-28.2308"/>
<polygon fill="midnightblue" stroke="midnightblue" points="805.77,-30.8009 810.971,-21.5707 801.149,-25.5427 805.77,-30.8009"/>
</g>
<!-- Node11 -->
<g id="node23" class="node"><title>Node11</title>
<polygon fill="white" stroke="#bfbfbf" points="729.5,-0.5 729.5,-21.5 778.5,-21.5 778.5,-0.5 729.5,-0.5"/>
<text text-anchor="middle" x="754" y="-8.5" font-family="Helvetica,sans-Serif" font-size="10.00">stdint.h</text>
</g>
<!-- Node10&#45;&gt;Node11 -->
<g id="edge24" class="edge"><title>Node10&#45;&gt;Node11</title>
<path fill="none" stroke="midnightblue" d="M756.45,-58.3619C756.065,-50.9219 755.538,-40.7427 755.072,-31.7276"/>
<polygon fill="midnightblue" stroke="midnightblue" points="758.559,-31.3765 754.547,-21.5707 751.568,-31.7381 758.559,-31.3765"/>
</g>
<!-- Node14 -->
<g id="node29" class="node"><title>Node14</title>
<a xlink:href="odset_8h.html" target="_top" xlink:title="odset.h">
<polygon fill="white" stroke="black" points="1159.5,-464.5 1159.5,-485.5 1208.5,-485.5 1208.5,-464.5 1159.5,-464.5"/>
<text text-anchor="middle" x="1184" y="-472.5" font-family="Helvetica,sans-Serif" font-size="10.00">odset.h</text>
</a>
</g>
<!-- Node13&#45;&gt;Node14 -->
<g id="edge30" class="edge"><title>Node13&#45;&gt;Node14</title>
<path fill="none" stroke="midnightblue" d="M1068.53,-522.497C1091.23,-513.159 1124.61,-499.431 1149.64,-489.132"/>
<polygon fill="midnightblue" stroke="midnightblue" points="1151.21,-492.272 1159.13,-485.231 1148.55,-485.798 1151.21,-492.272"/>
</g>
<!-- Node20 -->
<g id="node46" class="node"><title>Node20</title>
<a xlink:href="vectoraccess_8h.html" target="_top" xlink:title="vectoraccess.h">
<polygon fill="white" stroke="black" points="1059.5,-464.5 1059.5,-485.5 1142.5,-485.5 1142.5,-464.5 1059.5,-464.5"/>
<text text-anchor="middle" x="1101" y="-472.5" font-family="Helvetica,sans-Serif" font-size="10.00">vectoraccess.h</text>
</a>
</g>
<!-- Node13&#45;&gt;Node20 -->
<g id="edge52" class="edge"><title>Node13&#45;&gt;Node20</title>
<path fill="none" stroke="midnightblue" d="M1053.64,-522.362C1061.9,-514.104 1073.53,-502.472 1083.2,-492.803"/>
<polygon fill="midnightblue" stroke="midnightblue" points="1085.83,-495.117 1090.43,-485.571 1080.88,-490.167 1085.83,-495.117"/>
</g>
<!-- Node15 -->
<g id="node31" class="node"><title>Node15</title>
<a xlink:href="gendefs_8h.html" target="_top" xlink:title="gendefs.h">
<polygon fill="white" stroke="black" points="814.5,-174.5 814.5,-195.5 873.5,-195.5 873.5,-174.5 814.5,-174.5"/>
<text text-anchor="middle" x="844" y="-182.5" font-family="Helvetica,sans-Serif" font-size="10.00">gendefs.h</text>
</a>
</g>
<!-- Node14&#45;&gt;Node15 -->
<g id="edge32" class="edge"><title>Node14&#45;&gt;Node15</title>
<path fill="none" stroke="midnightblue" d="M1207.67,-464.343C1231.18,-452.107 1262.09,-430.535 1250,-406 1179.1,-262.118 971.417,-208.192 883.763,-191.462"/>
<polygon fill="midnightblue" stroke="midnightblue" points="884.155,-187.976 873.686,-189.603 882.884,-194.86 884.155,-187.976"/>
</g>
<!-- Node16 -->
<g id="node33" class="node"><title>Node16</title>
<a xlink:href="undefval_8h.html" target="_top" xlink:title="undefval.h">
<polygon fill="white" stroke="black" points="756,-116.5 756,-137.5 818,-137.5 818,-116.5 756,-116.5"/>
<text text-anchor="middle" x="787" y="-124.5" font-family="Helvetica,sans-Serif" font-size="10.00">undefval.h</text>
</a>
</g>
<!-- Node15&#45;&gt;Node16 -->
<g id="edge34" class="edge"><title>Node15&#45;&gt;Node16</title>
<path fill="none" stroke="midnightblue" d="M833.545,-174.362C825.43,-166.104 813.999,-154.472 804.496,-144.803"/>
<polygon fill="midnightblue" stroke="midnightblue" points="806.894,-142.25 797.388,-137.571 801.901,-147.156 806.894,-142.25"/>
</g>
<!-- Node17 -->
<g id="node38" class="node"><title>Node17</title>
<a xlink:href="commontypes_8h.html" target="_top" xlink:title="commontypes.h">
<polygon fill="white" stroke="black" points="836,-116.5 836,-137.5 922,-137.5 922,-116.5 836,-116.5"/>
<text text-anchor="middle" x="879" y="-124.5" font-family="Helvetica,sans-Serif" font-size="10.00">commontypes.h</text>
</a>
</g>
<!-- Node15&#45;&gt;Node17 -->
<g id="edge42" class="edge"><title>Node15&#45;&gt;Node17</title>
<path fill="none" stroke="midnightblue" d="M850.42,-174.362C855.156,-166.513 861.732,-155.616 867.382,-146.253"/>
<polygon fill="midnightblue" stroke="midnightblue" points="870.451,-147.941 872.621,-137.571 864.458,-144.324 870.451,-147.941"/>
</g>
<!-- Node18 -->
<g id="node41" class="node"><title>Node18</title>
<a xlink:href="errmsg_8h.html" target="_top" xlink:title="errmsg.h">
<polygon fill="white" stroke="black" points="939.5,-116.5 939.5,-137.5 994.5,-137.5 994.5,-116.5 939.5,-116.5"/>
<text text-anchor="middle" x="967" y="-124.5" font-family="Helvetica,sans-Serif" font-size="10.00">errmsg.h</text>
</a>
</g>
<!-- Node15&#45;&gt;Node18 -->
<g id="edge46" class="edge"><title>Node15&#45;&gt;Node18</title>
<path fill="none" stroke="midnightblue" d="M866.274,-174.497C885.572,-165.397 913.713,-152.127 935.348,-141.925"/>
<polygon fill="midnightblue" stroke="midnightblue" points="936.924,-145.052 944.476,-137.621 933.938,-138.721 936.924,-145.052"/>
</g>
<!-- Node16&#45;&gt;Node5 -->
<g id="edge36" class="edge"><title>Node16&#45;&gt;Node5</title>
<path fill="none" stroke="midnightblue" d="M792.668,-116.372C799.803,-101.362 809.486,-74.0037 795,-58 766.618,-26.6453 479.316,-15.3256 367.861,-12.0943"/>
<polygon fill="midnightblue" stroke="midnightblue" points="367.733,-8.58938 357.639,-11.8064 367.536,-15.5866 367.733,-8.58938"/>
</g>
<!-- Node16&#45;&gt;Node6 -->
<g id="edge38" class="edge"><title>Node16&#45;&gt;Node6</title>
<path fill="none" stroke="midnightblue" d="M804.424,-116.362C818.887,-107.532 839.669,-94.844 856.084,-84.8224"/>
<polygon fill="midnightblue" stroke="midnightblue" points="857.975,-87.7688 864.686,-79.5707 854.327,-81.7943 857.975,-87.7688"/>
</g>
<!-- Node16&#45;&gt;Node10 -->
<g id="edge40" class="edge"><title>Node16&#45;&gt;Node10</title>
<path fill="none" stroke="midnightblue" d="M781.498,-116.362C777.48,-108.595 771.919,-97.8426 767.11,-88.5458"/>
<polygon fill="midnightblue" stroke="midnightblue" points="770.171,-86.8448 762.468,-79.5707 763.953,-90.0608 770.171,-86.8448"/>
</g>
<!-- Node17&#45;&gt;Node6 -->
<g id="edge44" class="edge"><title>Node17&#45;&gt;Node6</title>
<path fill="none" stroke="midnightblue" d="M879.55,-116.362C879.935,-108.922 880.462,-98.7427 880.928,-89.7276"/>
<polygon fill="midnightblue" stroke="midnightblue" points="884.432,-89.7381 881.453,-79.5707 877.441,-89.3765 884.432,-89.7381"/>
</g>
<!-- Node18&#45;&gt;Node6 -->
<g id="edge48" class="edge"><title>Node18&#45;&gt;Node6</title>
<path fill="none" stroke="midnightblue" d="M951.41,-116.362C938.709,-107.696 920.562,-95.3126 906.008,-85.3819"/>
<polygon fill="midnightblue" stroke="midnightblue" points="907.724,-82.316 897.491,-79.5707 903.779,-88.0982 907.724,-82.316"/>
</g>
<!-- Node19 -->
<g id="node44" class="node"><title>Node19</title>
<polygon fill="white" stroke="#bfbfbf" points="941.5,-58.5 941.5,-79.5 992.5,-79.5 992.5,-58.5 941.5,-58.5"/>
<text text-anchor="middle" x="967" y="-66.5" font-family="Helvetica,sans-Serif" font-size="10.00">typeinfo</text>
</g>
<!-- Node18&#45;&gt;Node19 -->
<g id="edge50" class="edge"><title>Node18&#45;&gt;Node19</title>
<path fill="none" stroke="midnightblue" d="M967,-116.362C967,-108.922 967,-98.7427 967,-89.7276"/>
<polygon fill="midnightblue" stroke="midnightblue" points="970.5,-89.5706 967,-79.5707 963.5,-89.5707 970.5,-89.5706"/>
</g>
<!-- Node20&#45;&gt;Node8 -->
<g id="edge92" class="edge"><title>Node20&#45;&gt;Node8</title>
<path fill="none" stroke="midnightblue" d="M1131.3,-464.44C1171.1,-448.405 1236,-413.85 1236,-359 1236,-359 1236,-359 1236,-127 1236,-73.6939 1175.24,-40.4914 1133.21,-23.9007"/>
<polygon fill="midnightblue" stroke="midnightblue" points="1134.36,-20.593 1123.77,-20.3244 1131.88,-27.1393 1134.36,-20.593"/>
</g>
<!-- Node20&#45;&gt;Node15 -->
<g id="edge86" class="edge"><title>Node20&#45;&gt;Node15</title>
<path fill="none" stroke="midnightblue" d="M1130.16,-464.477C1157.7,-452.723 1192.86,-431.903 1179,-406 1115.57,-287.484 957.486,-222.085 883.436,-197.053"/>
<polygon fill="midnightblue" stroke="midnightblue" points="884.157,-193.605 873.564,-193.787 881.959,-200.251 884.157,-193.605"/>
</g>
<!-- Node21 -->
<g id="node48" class="node"><title>Node21</title>
<a xlink:href="debug_8h.html" target="_top" xlink:title="debug.h">
<polygon fill="white" stroke="black" points="983.5,-406.5 983.5,-427.5 1034.5,-427.5 1034.5,-406.5 983.5,-406.5"/>
<text text-anchor="middle" x="1009" y="-414.5" font-family="Helvetica,sans-Serif" font-size="10.00">debug.h</text>
</a>
</g>
<!-- Node20&#45;&gt;Node21 -->
<g id="edge54" class="edge"><title>Node20&#45;&gt;Node21</title>
<path fill="none" stroke="midnightblue" d="M1084.13,-464.362C1070.25,-455.614 1050.37,-443.079 1034.54,-433.101"/>
<polygon fill="midnightblue" stroke="midnightblue" points="1036.09,-429.943 1025.77,-427.571 1032.36,-435.864 1036.09,-429.943"/>
</g>
<!-- Node28 -->
<g id="node72" class="node"><title>Node28</title>
<polygon fill="white" stroke="#bfbfbf" points="1052,-406.5 1052,-427.5 1108,-427.5 1108,-406.5 1052,-406.5"/>
<text text-anchor="middle" x="1080" y="-414.5" font-family="Helvetica,sans-Serif" font-size="10.00">algorithm</text>
</g>
<!-- Node20&#45;&gt;Node28 -->
<g id="edge88" class="edge"><title>Node20&#45;&gt;Node28</title>
<path fill="none" stroke="midnightblue" d="M1097.15,-464.362C1094.4,-456.758 1090.61,-446.294 1087.29,-437.135"/>
<polygon fill="midnightblue" stroke="midnightblue" points="1090.52,-435.782 1083.83,-427.571 1083.94,-438.165 1090.52,-435.782"/>
</g>
<!-- Node29 -->
<g id="node74" class="node"><title>Node29</title>
<polygon fill="white" stroke="#bfbfbf" points="1126,-406.5 1126,-427.5 1170,-427.5 1170,-406.5 1126,-406.5"/>
<text text-anchor="middle" x="1148" y="-414.5" font-family="Helvetica,sans-Serif" font-size="10.00">vector</text>
</g>
<!-- Node20&#45;&gt;Node29 -->
<g id="edge90" class="edge"><title>Node20&#45;&gt;Node29</title>
<path fill="none" stroke="midnightblue" d="M1109.62,-464.362C1116.18,-456.268 1125.37,-444.932 1133.11,-435.38"/>
<polygon fill="midnightblue" stroke="midnightblue" points="1135.86,-437.544 1139.43,-427.571 1130.42,-433.136 1135.86,-437.544"/>
</g>
<!-- Node21&#45;&gt;Node5 -->
<g id="edge56" class="edge"><title>Node21&#45;&gt;Node5</title>
<path fill="none" stroke="midnightblue" d="M1034.88,-407.244C1086.65,-386.928 1198,-338.826 1198,-301 1198,-301 1198,-301 1198,-127 1198,-42.3002 544.637,-17.3491 367.723,-12.1454"/>
<polygon fill="midnightblue" stroke="midnightblue" points="367.823,-8.64697 357.726,-11.8577 367.621,-15.6441 367.823,-8.64697"/>
</g>
<!-- Node21&#45;&gt;Node15 -->
<g id="edge58" class="edge"><title>Node21&#45;&gt;Node15</title>
<path fill="none" stroke="midnightblue" d="M1003.84,-406.284C989.331,-376.73 945.956,-292.27 896,-232 887.021,-221.167 875.545,-210.532 865.659,-202.126"/>
<polygon fill="midnightblue" stroke="midnightblue" points="867.754,-199.316 857.819,-195.633 863.289,-204.707 867.754,-199.316"/>
</g>
<!-- Node22 -->
<g id="node52" class="node"><title>Node22</title>
<a xlink:href="bufstring_8h.html" target="_top" xlink:title="bufstring.h">
<polygon fill="white" stroke="black" points="512,-348.5 512,-369.5 574,-369.5 574,-348.5 512,-348.5"/>
<text text-anchor="middle" x="543" y="-356.5" font-family="Helvetica,sans-Serif" font-size="10.00">bufstring.h</text>
</a>
</g>
<!-- Node21&#45;&gt;Node22 -->
<g id="edge60" class="edge"><title>Node21&#45;&gt;Node22</title>
<path fill="none" stroke="midnightblue" d="M983.282,-413.799C906.408,-404.231 677.887,-375.788 583.985,-364.101"/>
<polygon fill="midnightblue" stroke="midnightblue" points="584.363,-360.621 574.007,-362.859 583.498,-367.568 584.363,-360.621"/>
</g>
<!-- Node22&#45;&gt;Node5 -->
<g id="edge62" class="edge"><title>Node22&#45;&gt;Node5</title>
<path fill="none" stroke="midnightblue" d="M548.058,-348.389C567.419,-306.057 632.155,-147.235 559,-58 535.311,-29.1043 429.186,-17.6197 367.959,-13.3386"/>
<polygon fill="midnightblue" stroke="midnightblue" points="368.018,-9.83489 357.809,-12.6659 367.555,-16.8196 368.018,-9.83489"/>
</g>
<!-- Node23 -->
<g id="node55" class="node"><title>Node23</title>
<a xlink:href="fixedstring_8h.html" target="_top" xlink:title="fixedstring.h">
<polygon fill="white" stroke="black" points="390,-290.5 390,-311.5 460,-311.5 460,-290.5 390,-290.5"/>
<text text-anchor="middle" x="425" y="-298.5" font-family="Helvetica,sans-Serif" font-size="10.00">fixedstring.h</text>
</a>
</g>
<!-- Node22&#45;&gt;Node23 -->
<g id="edge64" class="edge"><title>Node22&#45;&gt;Node23</title>
<path fill="none" stroke="midnightblue" d="M521.631,-348.497C503.201,-339.438 476.363,-326.246 455.645,-316.063"/>
<polygon fill="midnightblue" stroke="midnightblue" points="457.127,-312.891 446.609,-311.621 454.039,-319.174 457.127,-312.891"/>
</g>
<!-- Node25 -->
<g id="node62" class="node"><title>Node25</title>
<a xlink:href="string2_8h.html" target="_top" xlink:title="string2.h">
<polygon fill="white" stroke="black" points="461,-116.5 461,-137.5 515,-137.5 515,-116.5 461,-116.5"/>
<text text-anchor="middle" x="488" y="-124.5" font-family="Helvetica,sans-Serif" font-size="10.00">string2.h</text>
</a>
</g>
<!-- Node22&#45;&gt;Node25 -->
<g id="edge74" class="edge"><title>Node22&#45;&gt;Node25</title>
<path fill="none" stroke="midnightblue" d="M540.494,-348.429C531.993,-312.573 504.161,-195.169 492.847,-147.446"/>
<polygon fill="midnightblue" stroke="midnightblue" points="496.233,-146.556 490.521,-137.634 489.422,-148.171 496.233,-146.556"/>
</g>
<!-- Node23&#45;&gt;Node5 -->
<g id="edge66" class="edge"><title>Node23&#45;&gt;Node5</title>
<path fill="none" stroke="midnightblue" d="M405.526,-290.294C376.177,-272.563 324,-234.133 324,-185 324,-185 324,-185 324,-127 324,-93.5978 324,-54.7853 324,-31.5939"/>
<polygon fill="midnightblue" stroke="midnightblue" points="327.5,-31.5561 324,-21.5561 320.5,-31.5561 327.5,-31.5561"/>
</g>
<!-- Node24 -->
<g id="node58" class="node"><title>Node24</title>
<a xlink:href="odstring_8h.html" target="_top" xlink:title="odstring.h">
<polygon fill="white" stroke="black" points="395.5,-232.5 395.5,-253.5 454.5,-253.5 454.5,-232.5 395.5,-232.5"/>
<text text-anchor="middle" x="425" y="-240.5" font-family="Helvetica,sans-Serif" font-size="10.00">odstring.h</text>
</a>
</g>
<!-- Node23&#45;&gt;Node24 -->
<g id="edge68" class="edge"><title>Node23&#45;&gt;Node24</title>
<path fill="none" stroke="midnightblue" d="M425,-290.362C425,-282.922 425,-272.743 425,-263.728"/>
<polygon fill="midnightblue" stroke="midnightblue" points="428.5,-263.571 425,-253.571 421.5,-263.571 428.5,-263.571"/>
</g>
<!-- Node24&#45;&gt;Node5 -->
<g id="edge70" class="edge"><title>Node24&#45;&gt;Node5</title>
<path fill="none" stroke="midnightblue" d="M420.398,-232.429C404.722,-196.422 353.246,-78.1788 332.64,-30.8467"/>
<polygon fill="midnightblue" stroke="midnightblue" points="335.83,-29.4053 328.629,-21.6335 329.412,-32.1994 335.83,-29.4053"/>
</g>
<!-- Node24&#45;&gt;Node15 -->
<g id="edge72" class="edge"><title>Node24&#45;&gt;Node15</title>
<path fill="none" stroke="midnightblue" d="M454.798,-238.875C528.756,-228.638 720.762,-202.059 804.255,-190.502"/>
<polygon fill="midnightblue" stroke="midnightblue" points="804.929,-193.942 814.354,-189.104 803.969,-187.008 804.929,-193.942"/>
</g>
<!-- Node25&#45;&gt;Node5 -->
<g id="edge76" class="edge"><title>Node25&#45;&gt;Node5</title>
<path fill="none" stroke="midnightblue" d="M472.287,-116.494C458.241,-107.056 437.138,-92.7597 419,-80 393.988,-62.4041 365.666,-41.735 346.503,-27.6375"/>
<polygon fill="midnightblue" stroke="midnightblue" points="348.514,-24.7721 338.388,-21.6574 344.362,-30.4074 348.514,-24.7721"/>
</g>
<!-- Node25&#45;&gt;Node6 -->
<g id="edge80" class="edge"><title>Node25&#45;&gt;Node6</title>
<path fill="none" stroke="midnightblue" d="M515.081,-123.013C580.255,-113.419 746.682,-88.9199 831.159,-76.4841"/>
<polygon fill="midnightblue" stroke="midnightblue" points="831.905,-79.9122 841.289,-74.993 830.886,-72.9868 831.905,-79.9122"/>
</g>
<!-- Node25&#45;&gt;Node10 -->
<g id="edge78" class="edge"><title>Node25&#45;&gt;Node10</title>
<path fill="none" stroke="midnightblue" d="M515.187,-122.207C556.756,-114.72 638.786,-99.3227 717.158,-80.3325"/>
<polygon fill="midnightblue" stroke="midnightblue" points="718.31,-83.654 727.191,-77.8765 716.645,-76.8548 718.31,-83.654"/>
</g>
<!-- Node26 -->
<g id="node67" class="node"><title>Node26</title>
<polygon fill="white" stroke="#bfbfbf" points="427.5,-58.5 427.5,-79.5 476.5,-79.5 476.5,-58.5 427.5,-58.5"/>
<text text-anchor="middle" x="452" y="-66.5" font-family="Helvetica,sans-Serif" font-size="10.00">ctype.h</text>
</g>
<!-- Node25&#45;&gt;Node26 -->
<g id="edge82" class="edge"><title>Node25&#45;&gt;Node26</title>
<path fill="none" stroke="midnightblue" d="M481.397,-116.362C476.525,-108.513 469.762,-97.6159 463.95,-88.2527"/>
<polygon fill="midnightblue" stroke="midnightblue" points="466.809,-86.2213 458.561,-79.5707 460.861,-89.9129 466.809,-86.2213"/>
</g>
<!-- Node27 -->
<g id="node69" class="node"><title>Node27</title>
<polygon fill="white" stroke="#bfbfbf" points="494,-58.5 494,-79.5 550,-79.5 550,-58.5 494,-58.5"/>
<text text-anchor="middle" x="522" y="-66.5" font-family="Helvetica,sans-Serif" font-size="10.00">wctype.h</text>
</g>
<!-- Node25&#45;&gt;Node27 -->
<g id="edge84" class="edge"><title>Node25&#45;&gt;Node27</title>
<path fill="none" stroke="midnightblue" d="M494.236,-116.362C498.837,-108.513 505.225,-97.6159 510.714,-88.2527"/>
<polygon fill="midnightblue" stroke="midnightblue" points="513.766,-89.9677 515.803,-79.5707 507.727,-86.4276 513.766,-89.9677"/>
</g>
<!-- Node30&#45;&gt;Node5 -->
<g id="edge96" class="edge"><title>Node30&#45;&gt;Node5</title>
<path fill="none" stroke="midnightblue" d="M693.179,-698.171C690.42,-697.414 687.662,-696.679 685,-696 580.248,-669.29 210,-699.104 210,-591 210,-591 210,-591 210,-127 210,-80.0264 258.141,-45.1175 291.856,-26.4297"/>
<polygon fill="midnightblue" stroke="midnightblue" points="293.752,-29.385 300.93,-21.5923 290.459,-23.2078 293.752,-29.385"/>
</g>
<!-- Node31 -->
<g id="node80" class="node"><title>Node31</title>
<a xlink:href="coord_8h.html" target="_top" xlink:title="coord.h">
<polygon fill="white" stroke="black" points="698.5,-638.5 698.5,-659.5 747.5,-659.5 747.5,-638.5 698.5,-638.5"/>
<text text-anchor="middle" x="723" y="-646.5" font-family="Helvetica,sans-Serif" font-size="10.00">coord.h</text>
</a>
</g>
<!-- Node30&#45;&gt;Node31 -->
<g id="edge98" class="edge"><title>Node30&#45;&gt;Node31</title>
<path fill="none" stroke="midnightblue" d="M723,-696.362C723,-688.922 723,-678.743 723,-669.728"/>
<polygon fill="midnightblue" stroke="midnightblue" points="726.5,-669.571 723,-659.571 719.5,-669.571 726.5,-669.571"/>
</g>
<!-- Node42 -->
<g id="node117" class="node"><title>Node42</title>
<a xlink:href="trckey_8h.html" target="_top" xlink:title="trckey.h">
<polygon fill="white" stroke="black" points="130,-406.5 130,-427.5 182,-427.5 182,-406.5 130,-406.5"/>
<text text-anchor="middle" x="156" y="-414.5" font-family="Helvetica,sans-Serif" font-size="10.00">trckey.h</text>
</a>
</g>
<!-- Node30&#45;&gt;Node42 -->
<g id="edge150" class="edge"><title>Node30&#45;&gt;Node42</title>
<path fill="none" stroke="midnightblue" d="M693.268,-697.758C690.491,-697.088 687.704,-696.485 685,-696 577.754,-676.747 285.619,-721.974 196,-660 168.196,-640.773 164,-624.804 164,-591 164,-591 164,-591 164,-533 164,-499.518 160.642,-460.729 158.277,-437.564"/>
<polygon fill="midnightblue" stroke="midnightblue" points="161.749,-437.115 157.215,-427.539 154.788,-437.852 161.749,-437.115"/>
</g>
<!-- Node31&#45;&gt;Node5 -->
<g id="edge100" class="edge"><title>Node31&#45;&gt;Node5</title>
<path fill="none" stroke="midnightblue" d="M698.462,-648.337C601.195,-645.057 248,-626.696 248,-533 248,-533 248,-533 248,-127 248,-86.5104 280.797,-49.1585 303.302,-28.2949"/>
<polygon fill="midnightblue" stroke="midnightblue" points="305.64,-30.8993 310.762,-21.6247 300.974,-25.681 305.64,-30.8993"/>
</g>
<!-- Node31&#45;&gt;Node16 -->
<g id="edge148" class="edge"><title>Node31&#45;&gt;Node16</title>
<path fill="none" stroke="midnightblue" d="M747.697,-645.967C800.169,-638.002 918,-611.389 918,-533 918,-533 918,-533 918,-475 918,-367 947.612,-335.861 918,-232 909.681,-202.823 904.459,-194.399 882,-174 866.484,-159.908 845.968,-149.051 827.973,-141.341"/>
<polygon fill="midnightblue" stroke="midnightblue" points="828.864,-137.924 818.283,-137.38 826.216,-144.404 828.864,-137.924"/>
</g>
<!-- Node32 -->
<g id="node83" class="node"><title>Node32</title>
<a xlink:href="geometry_8h.html" target="_top" xlink:title="geometry.h">
<polygon fill="white" stroke="black" points="690.5,-580.5 690.5,-601.5 755.5,-601.5 755.5,-580.5 690.5,-580.5"/>
<text text-anchor="middle" x="723" y="-588.5" font-family="Helvetica,sans-Serif" font-size="10.00">geometry.h</text>
</a>
</g>
<!-- Node31&#45;&gt;Node32 -->
<g id="edge102" class="edge"><title>Node31&#45;&gt;Node32</title>
<path fill="none" stroke="midnightblue" d="M723,-638.362C723,-630.922 723,-620.743 723,-611.728"/>
<polygon fill="midnightblue" stroke="midnightblue" points="726.5,-611.571 723,-601.571 719.5,-611.571 726.5,-611.571"/>
</g>
<!-- Node32&#45;&gt;Node15 -->
<g id="edge104" class="edge"><title>Node32&#45;&gt;Node15</title>
<path fill="none" stroke="midnightblue" d="M755.531,-582.759C801.517,-568.929 880,-536.34 880,-475 880,-475 880,-475 880,-417 880,-338.015 859.373,-245.674 849.346,-205.454"/>
<polygon fill="midnightblue" stroke="midnightblue" points="852.683,-204.375 846.825,-195.547 845.899,-206.101 852.683,-204.375"/>
</g>
<!-- Node33 -->
<g id="node86" class="node"><title>Node33</title>
<a xlink:href="ranges_8h.html" target="_top" xlink:title="ranges.h">
<polygon fill="white" stroke="black" points="696,-522.5 696,-543.5 750,-543.5 750,-522.5 696,-522.5"/>
<text text-anchor="middle" x="723" y="-530.5" font-family="Helvetica,sans-Serif" font-size="10.00">ranges.h</text>
</a>
</g>
<!-- Node32&#45;&gt;Node33 -->
<g id="edge106" class="edge"><title>Node32&#45;&gt;Node33</title>
<path fill="none" stroke="midnightblue" d="M723,-580.362C723,-572.922 723,-562.743 723,-553.728"/>
<polygon fill="midnightblue" stroke="midnightblue" points="726.5,-553.571 723,-543.571 719.5,-553.571 726.5,-553.571"/>
</g>
<!-- Node34 -->
<g id="node89" class="node"><title>Node34</title>
<a xlink:href="math2_8h.html" target="_top" xlink:title="math2.h">
<polygon fill="white" stroke="black" points="576,-464.5 576,-485.5 628,-485.5 628,-464.5 576,-464.5"/>
<text text-anchor="middle" x="602" y="-472.5" font-family="Helvetica,sans-Serif" font-size="10.00">math2.h</text>
</a>
</g>
<!-- Node32&#45;&gt;Node34 -->
<g id="edge146" class="edge"><title>Node32&#45;&gt;Node34</title>
<path fill="none" stroke="midnightblue" d="M711.833,-580.295C691.034,-560.355 646.162,-517.337 620.677,-492.906"/>
<polygon fill="midnightblue" stroke="midnightblue" points="622.78,-490.073 613.14,-485.679 617.936,-495.126 622.78,-490.073"/>
</g>
<!-- Node33&#45;&gt;Node15 -->
<g id="edge108" class="edge"><title>Node33&#45;&gt;Node15</title>
<path fill="none" stroke="midnightblue" d="M726.754,-522.203C743.833,-473.083 814.341,-270.302 836.973,-205.211"/>
<polygon fill="midnightblue" stroke="midnightblue" points="840.311,-206.265 840.29,-195.671 833.7,-203.967 840.311,-206.265"/>
</g>
<!-- Node33&#45;&gt;Node34 -->
<g id="edge110" class="edge"><title>Node33&#45;&gt;Node34</title>
<path fill="none" stroke="midnightblue" d="M701.088,-522.497C682.189,-513.438 654.669,-500.246 633.424,-490.063"/>
<polygon fill="midnightblue" stroke="midnightblue" points="634.689,-486.788 624.158,-485.621 631.663,-493.1 634.689,-486.788"/>
</g>
<!-- Node38 -->
<g id="node102" class="node"><title>Node38</title>
<a xlink:href="ptrman_8h.html" target="_top" xlink:title="ptrman.h">
<polygon fill="white" stroke="black" points="647.5,-232.5 647.5,-253.5 702.5,-253.5 702.5,-232.5 647.5,-232.5"/>
<text text-anchor="middle" x="675" y="-240.5" font-family="Helvetica,sans-Serif" font-size="10.00">ptrman.h</text>
</a>
</g>
<!-- Node33&#45;&gt;Node38 -->
<g id="edge128" class="edge"><title>Node33&#45;&gt;Node38</title>
<path fill="none" stroke="midnightblue" d="M723.311,-522.243C724.373,-481.058 726.961,-333.523 711,-290 707.165,-279.543 700.127,-269.518 693.284,-261.433"/>
<polygon fill="midnightblue" stroke="midnightblue" points="695.666,-258.848 686.366,-253.772 690.471,-263.539 695.666,-258.848"/>
</g>
<!-- Node40 -->
<g id="node108" class="node"><title>Node40</title>
<a xlink:href="varlenarray_8h.html" target="_top" xlink:title="varlenarray.h">
<polygon fill="white" stroke="black" points="629.5,-290.5 629.5,-311.5 702.5,-311.5 702.5,-290.5 629.5,-290.5"/>
<text text-anchor="middle" x="666" y="-298.5" font-family="Helvetica,sans-Serif" font-size="10.00">varlenarray.h</text>
</a>
</g>
<!-- Node33&#45;&gt;Node40 -->
<g id="edge136" class="edge"><title>Node33&#45;&gt;Node40</title>
<path fill="none" stroke="midnightblue" d="M713.189,-522.307C705.538,-513.314 695.344,-499.754 690,-486 668.092,-429.612 665.377,-357.022 665.51,-321.892"/>
<polygon fill="midnightblue" stroke="midnightblue" points="669.01,-321.912 665.633,-311.87 662.01,-321.827 669.01,-321.912"/>
</g>
<!-- Node41 -->
<g id="node111" class="node"><title>Node41</title>
<a xlink:href="samplingdata_8h.html" target="_top" xlink:title="samplingdata.h">
<polygon fill="white" stroke="black" points="769.5,-464.5 769.5,-485.5 852.5,-485.5 852.5,-464.5 769.5,-464.5"/>
<text text-anchor="middle" x="811" y="-472.5" font-family="Helvetica,sans-Serif" font-size="10.00">samplingdata.h</text>
</a>
</g>
<!-- Node33&#45;&gt;Node41 -->
<g id="edge140" class="edge"><title>Node33&#45;&gt;Node41</title>
<path fill="none" stroke="midnightblue" d="M733.776,-522.362C745.611,-513.532 764.621,-500.844 780.906,-490.822"/>
<polygon fill="midnightblue" stroke="midnightblue" points="782.856,-493.734 789.61,-485.571 779.239,-487.74 782.856,-493.734"/>
</g>
<!-- Node34&#45;&gt;Node5 -->
<g id="edge112" class="edge"><title>Node34&#45;&gt;Node5</title>
<path fill="none" stroke="midnightblue" d="M575.872,-471.181C500.162,-459.387 286,-420.582 286,-359 286,-359 286,-359 286,-127 286,-91.7411 302.051,-53.3154 313.289,-30.7323"/>
<polygon fill="midnightblue" stroke="midnightblue" points="316.418,-32.3005 317.895,-21.809 310.198,-29.0901 316.418,-32.3005"/>
</g>
<!-- Node34&#45;&gt;Node15 -->
<g id="edge114" class="edge"><title>Node34&#45;&gt;Node15</title>
<path fill="none" stroke="midnightblue" d="M599.665,-464.47C593.54,-433.941 580.166,-344.127 621,-290 646.946,-255.608 671.832,-271.941 711,-254 748.022,-237.042 789.499,-215.022 816.138,-200.473"/>
<polygon fill="midnightblue" stroke="midnightblue" points="817.828,-203.538 824.911,-195.658 814.46,-197.401 817.828,-203.538"/>
</g>
<!-- Node35 -->
<g id="node93" class="node"><title>Node35</title>
<a xlink:href="odcomplex_8h.html" target="_top" xlink:title="odcomplex.h">
<polygon fill="white" stroke="black" points="432,-406.5 432,-427.5 504,-427.5 504,-406.5 432,-406.5"/>
<text text-anchor="middle" x="468" y="-414.5" font-family="Helvetica,sans-Serif" font-size="10.00">odcomplex.h</text>
</a>
</g>
<!-- Node34&#45;&gt;Node35 -->
<g id="edge116" class="edge"><title>Node34&#45;&gt;Node35</title>
<path fill="none" stroke="midnightblue" d="M577.734,-464.497C556.522,-455.315 525.502,-441.889 501.85,-431.652"/>
<polygon fill="midnightblue" stroke="midnightblue" points="503.106,-428.381 492.539,-427.621 500.326,-434.806 503.106,-428.381"/>
</g>
<!-- Node36 -->
<g id="node95" class="node"><title>Node36</title>
<polygon fill="white" stroke="#bfbfbf" points="441.5,-348.5 441.5,-369.5 494.5,-369.5 494.5,-348.5 441.5,-348.5"/>
<text text-anchor="middle" x="468" y="-356.5" font-family="Helvetica,sans-Serif" font-size="10.00">complex</text>
</g>
<!-- Node35&#45;&gt;Node36 -->
<g id="edge118" class="edge"><title>Node35&#45;&gt;Node36</title>
<path fill="none" stroke="midnightblue" d="M468,-406.362C468,-398.922 468,-388.743 468,-379.728"/>
<polygon fill="midnightblue" stroke="midnightblue" points="471.5,-379.571 468,-369.571 464.5,-379.571 471.5,-379.571"/>
</g>
<!-- Node37 -->
<g id="node97" class="node"><title>Node37</title>
<a xlink:href="convert_8h.html" target="_top" xlink:title="convert.h">
<polygon fill="white" stroke="black" points="367.5,-348.5 367.5,-369.5 424.5,-369.5 424.5,-348.5 367.5,-348.5"/>
<text text-anchor="middle" x="396" y="-356.5" font-family="Helvetica,sans-Serif" font-size="10.00">convert.h</text>
</a>
</g>
<!-- Node35&#45;&gt;Node37 -->
<g id="edge120" class="edge"><title>Node35&#45;&gt;Node37</title>
<path fill="none" stroke="midnightblue" d="M454.794,-406.362C444.239,-397.859 429.242,-385.779 417.037,-375.947"/>
<polygon fill="midnightblue" stroke="midnightblue" points="419.105,-373.118 409.122,-369.571 414.714,-378.57 419.105,-373.118"/>
</g>
<!-- Node37&#45;&gt;Node16 -->
<g id="edge124" class="edge"><title>Node37&#45;&gt;Node16</title>
<path fill="none" stroke="midnightblue" d="M414.261,-348.398C429.377,-339.352 451.183,-325.674 469,-312 541.384,-256.447 541.213,-218.267 621,-174 632.018,-167.887 700.275,-149.503 745.761,-137.621"/>
<polygon fill="midnightblue" stroke="midnightblue" points="746.861,-140.952 755.656,-135.045 745.097,-134.178 746.861,-140.952"/>
</g>
<!-- Node37&#45;&gt;Node23 -->
<g id="edge126" class="edge"><title>Node37&#45;&gt;Node23</title>
<path fill="none" stroke="midnightblue" d="M401.319,-348.362C405.203,-340.595 410.579,-329.843 415.227,-320.546"/>
<polygon fill="midnightblue" stroke="midnightblue" points="418.373,-322.08 419.715,-311.571 412.112,-318.95 418.373,-322.08"/>
</g>
<!-- Node37&#45;&gt;Node25 -->
<g id="edge122" class="edge"><title>Node37&#45;&gt;Node25</title>
<path fill="none" stroke="midnightblue" d="M391.576,-348.401C387.916,-339.021 383.003,-324.864 381,-312 377.535,-289.744 386.821,-232.385 387,-232 404.355,-194.606 440.55,-162.267 464.562,-143.703"/>
<polygon fill="midnightblue" stroke="midnightblue" points="466.914,-146.313 472.799,-137.503 462.705,-140.72 466.914,-146.313"/>
</g>
<!-- Node38&#45;&gt;Node4 -->
<g id="edge132" class="edge"><title>Node38&#45;&gt;Node4</title>
<path fill="none" stroke="midnightblue" d="M677.953,-232.295C683.263,-213.045 694.507,-172.289 701.342,-147.509"/>
<polygon fill="midnightblue" stroke="midnightblue" points="704.769,-148.25 704.054,-137.679 698.021,-146.388 704.769,-148.25"/>
</g>
<!-- Node38&#45;&gt;Node15 -->
<g id="edge130" class="edge"><title>Node38&#45;&gt;Node15</title>
<path fill="none" stroke="midnightblue" d="M702.529,-233.552C730.296,-224.023 773.425,-209.221 804.767,-198.465"/>
<polygon fill="midnightblue" stroke="midnightblue" points="806.171,-201.683 814.494,-195.126 803.899,-195.062 806.171,-201.683"/>
</g>
<!-- Node39 -->
<g id="node106" class="node"><title>Node39</title>
<polygon fill="white" stroke="#bfbfbf" points="630,-174.5 630,-195.5 678,-195.5 678,-174.5 630,-174.5"/>
<text text-anchor="middle" x="654" y="-182.5" font-family="Helvetica,sans-Serif" font-size="10.00">stdlib.h</text>
</g>
<!-- Node38&#45;&gt;Node39 -->
<g id="edge134" class="edge"><title>Node38&#45;&gt;Node39</title>
<path fill="none" stroke="midnightblue" d="M671.148,-232.362C668.395,-224.758 664.606,-214.294 661.29,-205.135"/>
<polygon fill="midnightblue" stroke="midnightblue" points="664.523,-203.782 657.827,-195.571 657.941,-206.165 664.523,-203.782"/>
</g>
<!-- Node40&#45;&gt;Node38 -->
<g id="edge138" class="edge"><title>Node40&#45;&gt;Node38</title>
<path fill="none" stroke="midnightblue" d="M667.651,-290.362C668.805,-282.922 670.385,-272.743 671.784,-263.728"/>
<polygon fill="midnightblue" stroke="midnightblue" points="675.285,-263.989 673.36,-253.571 668.368,-262.916 675.285,-263.989"/>
</g>
<!-- Node41&#45;&gt;Node15 -->
<g id="edge142" class="edge"><title>Node41&#45;&gt;Node15</title>
<path fill="none" stroke="midnightblue" d="M812.214,-464.335C817.065,-421.704 835.114,-263.087 841.633,-205.803"/>
<polygon fill="midnightblue" stroke="midnightblue" points="845.122,-206.094 842.775,-195.762 838.167,-205.302 845.122,-206.094"/>
</g>
<!-- Node41&#45;&gt;Node33 -->
<g id="edge144" class="edge"><title>Node41&#45;&gt;Node33</title>
<path fill="none" stroke="midnightblue" d="M800.314,-485.571C788.516,-494.381 769.518,-507.066 753.219,-517.101"/>
<polygon fill="midnightblue" stroke="midnightblue" points="751.257,-514.197 744.505,-522.362 754.874,-520.19 751.257,-514.197"/>
</g>
<!-- Node42&#45;&gt;Node5 -->
<g id="edge152" class="edge"><title>Node42&#45;&gt;Node5</title>
<path fill="none" stroke="midnightblue" d="M158.5,-406.194C163,-385.766 172,-340.033 172,-301 172,-301 172,-301 172,-127 172,-94.5312 173.239,-81.1551 196,-58 218.367,-35.2457 252.662,-23.4233 280.126,-17.3289"/>
<polygon fill="midnightblue" stroke="midnightblue" points="281.177,-20.6868 290.278,-15.2628 279.781,-13.8274 281.177,-20.6868"/>
</g>
<!-- Node43 -->
<g id="node120" class="node"><title>Node43</title>
<a xlink:href="binid_8h.html" target="_top" xlink:title="binid.h">
<polygon fill="white" stroke="black" points="63.5,-348.5 63.5,-369.5 108.5,-369.5 108.5,-348.5 63.5,-348.5"/>
<text text-anchor="middle" x="86" y="-356.5" font-family="Helvetica,sans-Serif" font-size="10.00">binid.h</text>
</a>
</g>
<!-- Node42&#45;&gt;Node43 -->
<g id="edge154" class="edge"><title>Node42&#45;&gt;Node43</title>
<path fill="none" stroke="midnightblue" d="M143.161,-406.362C132.998,-397.941 118.599,-386.011 106.796,-376.231"/>
<polygon fill="midnightblue" stroke="midnightblue" points="108.691,-373.256 98.7577,-369.571 104.225,-378.646 108.691,-373.256"/>
</g>
<!-- Node43&#45;&gt;Node5 -->
<g id="edge156" class="edge"><title>Node43&#45;&gt;Node5</title>
<path fill="none" stroke="midnightblue" d="M70.6249,-348.479C45.8883,-330.167 0,-289.881 0,-243 0,-243 0,-243 0,-127 0,-79.3697 39.0222,-78.5317 82,-58 116.499,-41.5191 220.715,-25.15 280.533,-16.764"/>
<polygon fill="midnightblue" stroke="midnightblue" points="281.022,-20.2298 290.447,-15.3903 280.061,-13.2961 281.022,-20.2298"/>
</g>
<!-- Node44 -->
<g id="node123" class="node"><title>Node44</title>
<a xlink:href="posidxpair_8h.html" target="_top" xlink:title="posidxpair.h">
<polygon fill="white" stroke="black" points="51.5,-290.5 51.5,-311.5 120.5,-311.5 120.5,-290.5 51.5,-290.5"/>
<text text-anchor="middle" x="86" y="-298.5" font-family="Helvetica,sans-Serif" font-size="10.00">posidxpair.h</text>
</a>
</g>
<!-- Node43&#45;&gt;Node44 -->
<g id="edge158" class="edge"><title>Node43&#45;&gt;Node44</title>
<path fill="none" stroke="midnightblue" d="M86,-348.362C86,-340.922 86,-330.743 86,-321.728"/>
<polygon fill="midnightblue" stroke="midnightblue" points="89.5001,-321.571 86,-311.571 82.5001,-321.571 89.5001,-321.571"/>
</g>
<!-- Node44&#45;&gt;Node5 -->
<g id="edge160" class="edge"><title>Node44&#45;&gt;Node5</title>
<path fill="none" stroke="midnightblue" d="M78.288,-290.414C64.7195,-270.711 38,-226.628 38,-185 38,-185 38,-185 38,-127 38,-75.4004 199.886,-35.7829 280.067,-19.3252"/>
<polygon fill="midnightblue" stroke="midnightblue" points="281.241,-22.6589 290.351,-17.2495 279.856,-15.7973 281.241,-22.6589"/>
</g>
<!-- Node45 -->
<g id="node126" class="node"><title>Node45</title>
<a xlink:href="idxpair_8h.html" target="_top" xlink:title="idxpair.h">
<polygon fill="white" stroke="black" points="78.5,-232.5 78.5,-253.5 131.5,-253.5 131.5,-232.5 78.5,-232.5"/>
<text text-anchor="middle" x="105" y="-240.5" font-family="Helvetica,sans-Serif" font-size="10.00">idxpair.h</text>
</a>
</g>
<!-- Node44&#45;&gt;Node45 -->
<g id="edge162" class="edge"><title>Node44&#45;&gt;Node45</title>
<path fill="none" stroke="midnightblue" d="M89.4849,-290.362C91.9757,-282.758 95.4037,-272.294 98.4041,-263.135"/>
<polygon fill="midnightblue" stroke="midnightblue" points="101.75,-264.163 101.537,-253.571 95.098,-261.984 101.75,-264.163"/>
</g>
<!-- Node45&#45;&gt;Node5 -->
<g id="edge164" class="edge"><title>Node45&#45;&gt;Node5</title>
<path fill="none" stroke="midnightblue" d="M107.422,-232.318C116.007,-194.825 145.164,-70.7964 158,-58 175.183,-40.87 237.102,-26.5978 280.252,-18.4269"/>
<polygon fill="midnightblue" stroke="midnightblue" points="281.038,-21.841 290.235,-16.5811 279.765,-14.9576 281.038,-21.841"/>
</g>
<!-- Node45&#45;&gt;Node15 -->
<g id="edge166" class="edge"><title>Node45&#45;&gt;Node15</title>
<path fill="none" stroke="midnightblue" d="M131.738,-240.901C243.096,-232.162 670.45,-198.621 803.928,-188.145"/>
<polygon fill="midnightblue" stroke="midnightblue" points="804.418,-191.617 814.113,-187.346 803.87,-184.639 804.418,-191.617"/>
</g>
<!-- Node46 -->
<g id="node130" class="node"><title>Node46</title>
<polygon fill="white" stroke="#bfbfbf" points="66,-174.5 66,-195.5 106,-195.5 106,-174.5 66,-174.5"/>
<text text-anchor="middle" x="86" y="-182.5" font-family="Helvetica,sans-Serif" font-size="10.00">utility</text>
</g>
<!-- Node45&#45;&gt;Node46 -->
<g id="edge168" class="edge"><title>Node45&#45;&gt;Node46</title>
<path fill="none" stroke="midnightblue" d="M101.515,-232.362C99.0243,-224.758 95.5963,-214.294 92.5959,-205.135"/>
<polygon fill="midnightblue" stroke="midnightblue" points="95.902,-203.984 89.4628,-195.571 89.2499,-206.163 95.902,-203.984"/>
</g>
<!-- Node47&#45;&gt;Node14 -->
<g id="edge172" class="edge"><title>Node47&#45;&gt;Node14</title>
<path fill="none" stroke="midnightblue" d="M1132.56,-522.362C1141.61,-514.023 1154.41,-502.242 1164.97,-492.516"/>
<polygon fill="midnightblue" stroke="midnightblue" points="1167.53,-494.919 1172.52,-485.571 1162.79,-489.769 1167.53,-494.919"/>
</g>
<!-- Node47&#45;&gt;Node20 -->
<g id="edge174" class="edge"><title>Node47&#45;&gt;Node20</title>
<path fill="none" stroke="midnightblue" d="M1117.33,-522.362C1114.71,-514.758 1111.1,-504.294 1107.94,-495.135"/>
<polygon fill="midnightblue" stroke="midnightblue" points="1111.21,-493.883 1104.65,-485.571 1104.6,-496.165 1111.21,-493.883"/>
</g>
</g>
</svg>
