<?xml version="1.0" encoding="UTF-8" standalone="no"?>
<!DOCTYPE svg PUBLIC "-//W3C//DTD SVG 1.1//EN"
 "http://www.w3.org/Graphics/SVG/1.1/DTD/svg11.dtd">
<!-- Generated by graphviz version 2.26.0 (20091210.2329)
 -->
<!-- Title: posprovider.h Pages: 1 -->
<svg width="680pt" height="146pt"
 viewBox="0.00 0.00 680.00 146.00" xmlns="http://www.w3.org/2000/svg" xmlns:xlink="http://www.w3.org/1999/xlink">
<g id="graph1" class="graph" transform="scale(1 1) rotate(0) translate(4 142)">
<title>posprovider.h</title>
<polygon fill="white" stroke="white" points="-4,5 -4,-142 677,-142 677,5 -4,5"/>
<!-- Node1 -->
<g id="node1" class="node"><title>Node1</title>
<polygon fill="#bfbfbf" stroke="black" points="295.5,-116.5 295.5,-137.5 370.5,-137.5 370.5,-116.5 295.5,-116.5"/>
<text text-anchor="middle" x="333" y="-124.5" font-family="Helvetica,sans-Serif" font-size="10.00">posprovider.h</text>
</g>
<!-- Node2 -->
<g id="node3" class="node"><title>Node2</title>
<a xlink:href="rangeposprovider_8h.html" target="_top" xlink:title="rangeposprovider.h">
<polygon fill="white" stroke="black" points="-0.5,-58.5 -0.5,-79.5 98.5,-79.5 98.5,-58.5 -0.5,-58.5"/>
<text text-anchor="middle" x="49" y="-66.5" font-family="Helvetica,sans-Serif" font-size="10.00">rangeposprovider.h</text>
</a>
</g>
<!-- Node1&#45;&gt;Node2 -->
<g id="edge2" class="edge"><title>Node1&#45;&gt;Node2</title>
<path fill="none" stroke="midnightblue" d="M285.351,-117.269C233.544,-106.688 151.13,-89.8576 98.5775,-79.125"/>
<polygon fill="midnightblue" stroke="midnightblue" points="284.789,-120.726 295.287,-119.298 286.19,-113.868 284.789,-120.726"/>
</g>
<!-- Node3 -->
<g id="node5" class="node"><title>Node3</title>
<a xlink:href="polyposprovider_8h.html" target="_top" xlink:title="polyposprovider.h">
<polygon fill="white" stroke="black" points="115.5,-58.5 115.5,-79.5 208.5,-79.5 208.5,-58.5 115.5,-58.5"/>
<text text-anchor="middle" x="162" y="-66.5" font-family="Helvetica,sans-Serif" font-size="10.00">polyposprovider.h</text>
</a>
</g>
<!-- Node1&#45;&gt;Node3 -->
<g id="edge4" class="edge"><title>Node1&#45;&gt;Node3</title>
<path fill="none" stroke="midnightblue" d="M292.546,-113.279C262.075,-102.944 220.921,-88.9849 193.025,-79.5231"/>
<polygon fill="midnightblue" stroke="midnightblue" points="291.439,-116.599 302.033,-116.497 293.687,-109.97 291.439,-116.599"/>
</g>
<!-- Node4 -->
<g id="node7" class="node"><title>Node4</title>
<a xlink:href="tableposprovider_8h.html" target="_top" xlink:title="tableposprovider.h">
<polygon fill="white" stroke="black" points="226,-58.5 226,-79.5 322,-79.5 322,-58.5 226,-58.5"/>
<text text-anchor="middle" x="274" y="-66.5" font-family="Helvetica,sans-Serif" font-size="10.00">tableposprovider.h</text>
</a>
</g>
<!-- Node1&#45;&gt;Node4 -->
<g id="edge6" class="edge"><title>Node1&#45;&gt;Node4</title>
<path fill="none" stroke="midnightblue" d="M314.81,-109.118C304.963,-99.4377 293.134,-87.8098 284.753,-79.5707"/>
<polygon fill="midnightblue" stroke="midnightblue" points="312.594,-111.847 322.178,-116.362 317.501,-106.856 312.594,-111.847"/>
</g>
<!-- Node5 -->
<g id="node9" class="node"><title>Node5</title>
<a xlink:href="emsurfaceposprov_8h.html" target="_top" xlink:title="emsurfaceposprov.h">
<polygon fill="white" stroke="black" points="339.5,-58.5 339.5,-79.5 444.5,-79.5 444.5,-58.5 339.5,-58.5"/>
<text text-anchor="middle" x="392" y="-66.5" font-family="Helvetica,sans-Serif" font-size="10.00">emsurfaceposprov.h</text>
</a>
</g>
<!-- Node1&#45;&gt;Node5 -->
<g id="edge8" class="edge"><title>Node1&#45;&gt;Node5</title>
<path fill="none" stroke="midnightblue" d="M351.19,-109.118C361.037,-99.4377 372.866,-87.8098 381.247,-79.5707"/>
<polygon fill="midnightblue" stroke="midnightblue" points="348.499,-106.856 343.822,-116.362 353.406,-111.847 348.499,-106.856"/>
</g>
<!-- Node6 -->
<g id="node11" class="node"><title>Node6</title>
<a xlink:href="wellposprovider_8h.html" target="_top" xlink:title="wellposprovider.h">
<polygon fill="white" stroke="black" points="462,-58.5 462,-79.5 554,-79.5 554,-58.5 462,-58.5"/>
<text text-anchor="middle" x="508" y="-66.5" font-family="Helvetica,sans-Serif" font-size="10.00">wellposprovider.h</text>
</a>
</g>
<!-- Node1&#45;&gt;Node6 -->
<g id="edge10" class="edge"><title>Node1&#45;&gt;Node6</title>
<path fill="none" stroke="midnightblue" d="M374.4,-113.279C405.584,-102.944 447.701,-88.9849 476.249,-79.5231"/>
<polygon fill="midnightblue" stroke="midnightblue" points="373.082,-110.028 364.691,-116.497 375.285,-116.673 373.082,-110.028"/>
</g>
<!-- Node7 -->
<g id="node13" class="node"><title>Node7</title>
<a xlink:href="seisposprovider_8h.html" target="_top" xlink:title="seisposprovider.h">
<polygon fill="white" stroke="black" points="571.5,-58.5 571.5,-79.5 664.5,-79.5 664.5,-58.5 571.5,-58.5"/>
<text text-anchor="middle" x="618" y="-66.5" font-family="Helvetica,sans-Serif" font-size="10.00">seisposprovider.h</text>
</a>
</g>
<!-- Node1&#45;&gt;Node7 -->
<g id="edge12" class="edge"><title>Node1&#45;&gt;Node7</title>
<path fill="none" stroke="midnightblue" d="M380.379,-117.358C433.377,-106.572 518.683,-89.2119 571.373,-78.489"/>
<polygon fill="midnightblue" stroke="midnightblue" points="379.653,-113.934 370.552,-119.358 381.049,-120.793 379.653,-113.934"/>
</g>
<!-- Node8 -->
<g id="node15" class="node"><title>Node8</title>
<a xlink:href="uiseisposprovgroup_8h.html" target="_top" xlink:title="uiseisposprovgroup.h">
<polygon fill="white" stroke="black" points="563.5,-0.5 563.5,-21.5 672.5,-21.5 672.5,-0.5 563.5,-0.5"/>
<text text-anchor="middle" x="618" y="-8.5" font-family="Helvetica,sans-Serif" font-size="10.00">uiseisposprovgroup.h</text>
</a>
</g>
<!-- Node7&#45;&gt;Node8 -->
<g id="edge14" class="edge"><title>Node7&#45;&gt;Node8</title>
<path fill="none" stroke="midnightblue" d="M618,-48.1906C618,-39.1684 618,-28.9941 618,-21.5707"/>
<polygon fill="midnightblue" stroke="midnightblue" points="614.5,-48.3619 618,-58.3619 621.5,-48.3619 614.5,-48.3619"/>
</g>
</g>
</svg>
