<?xml version="1.0" encoding="UTF-8" standalone="no"?>
<!DOCTYPE svg PUBLIC "-//W3C//DTD SVG 1.1//EN"
 "http://www.w3.org/Graphics/SVG/1.1/DTD/svg11.dtd">
<!-- Generated by graphviz version 2.26.0 (20091210.2329)
 -->
<!-- Title: probdenfunc.h Pages: 1 -->
<svg width="949pt" height="784pt"
 viewBox="0.00 0.00 948.61 784.00" xmlns="http://www.w3.org/2000/svg" xmlns:xlink="http://www.w3.org/1999/xlink">
<g id="graph1" class="graph" transform="scale(1 1) rotate(0) translate(4 780)">
<title>probdenfunc.h</title>
<polygon fill="white" stroke="white" points="-4,5 -4,-780 945.612,-780 945.612,5 -4,5"/>
<!-- Node1 -->
<g id="node1" class="node"><title>Node1</title>
<polygon fill="#bfbfbf" stroke="black" points="341,-754.5 341,-775.5 419,-775.5 419,-754.5 341,-754.5"/>
<text text-anchor="middle" x="380" y="-762.5" font-family="Helvetica,sans-Serif" font-size="10.00">probdenfunc.h</text>
</g>
<!-- Node2 -->
<g id="node3" class="node"><title>Node2</title>
<polygon fill="white" stroke="#bfbfbf" points="146,-696.5 146,-717.5 208,-717.5 208,-696.5 146,-696.5"/>
<text text-anchor="middle" x="177" y="-704.5" font-family="Helvetica,sans-Serif" font-size="10.00">algomod.h</text>
</g>
<!-- Node1&#45;&gt;Node2 -->
<g id="edge2" class="edge"><title>Node1&#45;&gt;Node2</title>
<path fill="none" stroke="midnightblue" d="M343.238,-754.497C307.939,-744.411 254.709,-729.203 218.042,-718.726"/>
<polygon fill="midnightblue" stroke="midnightblue" points="218.745,-715.287 208.168,-715.905 216.822,-722.018 218.745,-715.287"/>
</g>
<!-- Node3 -->
<g id="node5" class="node"><title>Node3</title>
<a xlink:href="namedobj_8h.html" target="_top" xlink:title="namedobj.h">
<polygon fill="white" stroke="black" points="225.5,-696.5 225.5,-717.5 292.5,-717.5 292.5,-696.5 225.5,-696.5"/>
<text text-anchor="middle" x="259" y="-704.5" font-family="Helvetica,sans-Serif" font-size="10.00">namedobj.h</text>
</a>
</g>
<!-- Node1&#45;&gt;Node3 -->
<g id="edge4" class="edge"><title>Node1&#45;&gt;Node3</title>
<path fill="none" stroke="midnightblue" d="M358.088,-754.497C339.189,-745.438 311.669,-732.246 290.424,-722.063"/>
<polygon fill="midnightblue" stroke="midnightblue" points="291.689,-718.788 281.158,-717.621 288.663,-725.1 291.689,-718.788"/>
</g>
<!-- Node35 -->
<g id="node96" class="node"><title>Node35</title>
<a xlink:href="ranges_8h.html" target="_top" xlink:title="ranges.h">
<polygon fill="white" stroke="black" points="715,-522.5 715,-543.5 769,-543.5 769,-522.5 715,-522.5"/>
<text text-anchor="middle" x="742" y="-530.5" font-family="Helvetica,sans-Serif" font-size="10.00">ranges.h</text>
</a>
</g>
<!-- Node1&#45;&gt;Node35 -->
<g id="edge122" class="edge"><title>Node1&#45;&gt;Node35</title>
<path fill="none" stroke="midnightblue" d="M389.363,-754.295C402.286,-739.918 426.751,-714.087 451,-696 537.919,-631.17 653.38,-573.969 709.122,-547.924"/>
<polygon fill="midnightblue" stroke="midnightblue" points="710.899,-550.958 718.497,-543.575 707.953,-544.608 710.899,-550.958"/>
</g>
<!-- Node44 -->
<g id="node125" class="node"><title>Node44</title>
<a xlink:href="od__iosfwd_8h.html" target="_top" xlink:title="od_iosfwd.h">
<polygon fill="white" stroke="black" points="459.5,-696.5 459.5,-717.5 528.5,-717.5 528.5,-696.5 459.5,-696.5"/>
<text text-anchor="middle" x="494" y="-704.5" font-family="Helvetica,sans-Serif" font-size="10.00">od_iosfwd.h</text>
</a>
</g>
<!-- Node1&#45;&gt;Node44 -->
<g id="edge162" class="edge"><title>Node1&#45;&gt;Node44</title>
<path fill="none" stroke="midnightblue" d="M400.645,-754.497C418.37,-745.479 444.145,-732.365 464.123,-722.201"/>
<polygon fill="midnightblue" stroke="midnightblue" points="465.798,-725.275 473.124,-717.621 462.624,-719.036 465.798,-725.275"/>
</g>
<!-- Node4 -->
<g id="node7" class="node"><title>Node4</title>
<polygon fill="white" stroke="#bfbfbf" points="182.5,-0.5 182.5,-21.5 249.5,-21.5 249.5,-0.5 182.5,-0.5"/>
<text text-anchor="middle" x="216" y="-8.5" font-family="Helvetica,sans-Serif" font-size="10.00">basicmod.h</text>
</g>
<!-- Node3&#45;&gt;Node4 -->
<g id="edge6" class="edge"><title>Node3&#45;&gt;Node4</title>
<path fill="none" stroke="midnightblue" d="M225.258,-698.138C174.351,-684.755 83.622,-660.843 82,-660 39.7419,-638.025 0,-638.63 0,-591 0,-591 0,-591 0,-127 0,-49.5839 109.023,-23.6186 172.159,-15.0726"/>
<polygon fill="midnightblue" stroke="midnightblue" points="172.766,-18.5239 182.25,-13.8014 171.891,-11.5788 172.766,-18.5239"/>
</g>
<!-- Node5 -->
<g id="node9" class="node"><title>Node5</title>
<a xlink:href="callback_8h.html" target="_top" xlink:title="callback.h">
<polygon fill="white" stroke="black" points="228.5,-638.5 228.5,-659.5 289.5,-659.5 289.5,-638.5 228.5,-638.5"/>
<text text-anchor="middle" x="259" y="-646.5" font-family="Helvetica,sans-Serif" font-size="10.00">callback.h</text>
</a>
</g>
<!-- Node3&#45;&gt;Node5 -->
<g id="edge8" class="edge"><title>Node3&#45;&gt;Node5</title>
<path fill="none" stroke="midnightblue" d="M259,-696.362C259,-688.922 259,-678.743 259,-669.728"/>
<polygon fill="midnightblue" stroke="midnightblue" points="262.5,-669.571 259,-659.571 255.5,-669.571 262.5,-669.571"/>
</g>
<!-- Node24 -->
<g id="node58" class="node"><title>Node24</title>
<a xlink:href="bufstring_8h.html" target="_top" xlink:title="bufstring.h">
<polygon fill="white" stroke="black" points="128,-348.5 128,-369.5 190,-369.5 190,-348.5 128,-348.5"/>
<text text-anchor="middle" x="159" y="-356.5" font-family="Helvetica,sans-Serif" font-size="10.00">bufstring.h</text>
</a>
</g>
<!-- Node3&#45;&gt;Node24 -->
<g id="edge120" class="edge"><title>Node3&#45;&gt;Node24</title>
<path fill="none" stroke="midnightblue" d="M225.435,-696.979C163.611,-677.513 38,-632.816 38,-591 38,-591 38,-591 38,-475 38,-426.782 88.6892,-392.386 124.452,-374.12"/>
<polygon fill="midnightblue" stroke="midnightblue" points="126.201,-377.16 133.634,-369.611 123.115,-370.877 126.201,-377.16"/>
</g>
<!-- Node5&#45;&gt;Node4 -->
<g id="edge10" class="edge"><title>Node5&#45;&gt;Node4</title>
<path fill="none" stroke="midnightblue" d="M228.37,-644.014C176.274,-633.595 76,-604.282 76,-533 76,-533 76,-533 76,-475 76,-396.449 45,-379.551 45,-301 45,-301 45,-301 45,-127 45,-65.4542 121.8,-34.302 172.462,-20.4475"/>
<polygon fill="midnightblue" stroke="midnightblue" points="173.423,-23.8141 182.216,-17.9033 171.656,-17.0407 173.423,-23.8141"/>
</g>
<!-- Node6 -->
<g id="node12" class="node"><title>Node6</title>
<a xlink:href="refcount_8h.html" target="_top" xlink:title="refcount.h">
<polygon fill="white" stroke="black" points="194,-580.5 194,-601.5 254,-601.5 254,-580.5 194,-580.5"/>
<text text-anchor="middle" x="224" y="-588.5" font-family="Helvetica,sans-Serif" font-size="10.00">refcount.h</text>
</a>
</g>
<!-- Node5&#45;&gt;Node6 -->
<g id="edge12" class="edge"><title>Node5&#45;&gt;Node6</title>
<path fill="none" stroke="midnightblue" d="M252.58,-638.362C247.844,-630.513 241.268,-619.616 235.618,-610.253"/>
<polygon fill="midnightblue" stroke="midnightblue" points="238.542,-608.324 230.379,-601.571 232.549,-611.941 238.542,-608.324"/>
</g>
<!-- Node32 -->
<g id="node83" class="node"><title>Node32</title>
<a xlink:href="sets_8h.html" target="_top" xlink:title="sets.h">
<polygon fill="white" stroke="black" points="272,-580.5 272,-601.5 316,-601.5 316,-580.5 272,-580.5"/>
<text text-anchor="middle" x="294" y="-588.5" font-family="Helvetica,sans-Serif" font-size="10.00">sets.h</text>
</a>
</g>
<!-- Node5&#45;&gt;Node32 -->
<g id="edge102" class="edge"><title>Node5&#45;&gt;Node32</title>
<path fill="none" stroke="midnightblue" d="M265.42,-638.362C270.156,-630.513 276.732,-619.616 282.382,-610.253"/>
<polygon fill="midnightblue" stroke="midnightblue" points="285.451,-611.941 287.621,-601.571 279.458,-608.324 285.451,-611.941"/>
</g>
<!-- Node34 -->
<g id="node90" class="node"><title>Node34</title>
<a xlink:href="threadlock_8h.html" target="_top" xlink:title="threadlock.h">
<polygon fill="white" stroke="black" points="582,-116.5 582,-137.5 652,-137.5 652,-116.5 582,-116.5"/>
<text text-anchor="middle" x="617" y="-124.5" font-family="Helvetica,sans-Serif" font-size="10.00">threadlock.h</text>
</a>
</g>
<!-- Node5&#45;&gt;Node34 -->
<g id="edge112" class="edge"><title>Node5&#45;&gt;Node34</title>
<path fill="none" stroke="midnightblue" d="M289.297,-638.44C329.099,-622.405 394,-587.85 394,-533 394,-533 394,-533 394,-417 394,-288.892 532.444,-182.623 591.165,-143.311"/>
<polygon fill="midnightblue" stroke="midnightblue" points="593.441,-146.004 599.872,-137.584 589.594,-140.156 593.441,-146.004"/>
</g>
<!-- Node7 -->
<g id="node14" class="node"><title>Node7</title>
<a xlink:href="atomic_8h.html" target="_top" xlink:title="atomic.h">
<polygon fill="white" stroke="black" points="510,-116.5 510,-137.5 564,-137.5 564,-116.5 510,-116.5"/>
<text text-anchor="middle" x="537" y="-124.5" font-family="Helvetica,sans-Serif" font-size="10.00">atomic.h</text>
</a>
</g>
<!-- Node6&#45;&gt;Node7 -->
<g id="edge14" class="edge"><title>Node6&#45;&gt;Node7</title>
<path fill="none" stroke="midnightblue" d="M211.118,-580.264C178.019,-551.347 95.1785,-469.712 133,-406 150.056,-377.268 170.75,-387.843 199,-370 318.372,-294.605 331.384,-252.106 449,-174 466.896,-162.116 488.108,-150.715 505.221,-142.118"/>
<polygon fill="midnightblue" stroke="midnightblue" points="506.85,-145.217 514.26,-137.646 503.745,-138.943 506.85,-145.217"/>
</g>
<!-- Node15 -->
<g id="node33" class="node"><title>Node15</title>
<a xlink:href="objectset_8h.html" target="_top" xlink:title="objectset.h">
<polygon fill="white" stroke="black" points="226.5,-522.5 226.5,-543.5 291.5,-543.5 291.5,-522.5 226.5,-522.5"/>
<text text-anchor="middle" x="259" y="-530.5" font-family="Helvetica,sans-Serif" font-size="10.00">objectset.h</text>
</a>
</g>
<!-- Node6&#45;&gt;Node15 -->
<g id="edge36" class="edge"><title>Node6&#45;&gt;Node15</title>
<path fill="none" stroke="midnightblue" d="M230.42,-580.362C235.156,-572.513 241.732,-561.616 247.382,-552.253"/>
<polygon fill="midnightblue" stroke="midnightblue" points="250.451,-553.941 252.621,-543.571 244.458,-550.324 250.451,-553.941"/>
</g>
<!-- Node7&#45;&gt;Node4 -->
<g id="edge16" class="edge"><title>Node7&#45;&gt;Node4</title>
<path fill="none" stroke="midnightblue" d="M523.596,-116.443C503.669,-101.266 464.536,-73.4161 427,-58 371.56,-35.2304 303.178,-22.579 259.576,-16.2827"/>
<polygon fill="midnightblue" stroke="midnightblue" points="259.975,-12.8044 249.587,-14.889 259.007,-19.7373 259.975,-12.8044"/>
</g>
<!-- Node8 -->
<g id="node17" class="node"><title>Node8</title>
<a xlink:href="commondefs_8h.html" target="_top" xlink:title="commondefs.h">
<polygon fill="white" stroke="black" points="752.5,-58.5 752.5,-79.5 833.5,-79.5 833.5,-58.5 752.5,-58.5"/>
<text text-anchor="middle" x="793" y="-66.5" font-family="Helvetica,sans-Serif" font-size="10.00">commondefs.h</text>
</a>
</g>
<!-- Node7&#45;&gt;Node8 -->
<g id="edge18" class="edge"><title>Node7&#45;&gt;Node8</title>
<path fill="none" stroke="midnightblue" d="M564.056,-118.46C567.063,-117.592 570.09,-116.754 573,-116 630.524,-101.096 697.382,-87.3064 742.16,-78.5707"/>
<polygon fill="midnightblue" stroke="midnightblue" points="743.055,-81.9623 752.207,-76.6231 741.723,-75.0902 743.055,-81.9623"/>
</g>
<!-- Node12 -->
<g id="node26" class="node"><title>Node12</title>
<a xlink:href="plftypes_8h.html" target="_top" xlink:title="plftypes.h">
<polygon fill="white" stroke="black" points="638.5,-58.5 638.5,-79.5 697.5,-79.5 697.5,-58.5 638.5,-58.5"/>
<text text-anchor="middle" x="668" y="-66.5" font-family="Helvetica,sans-Serif" font-size="10.00">plftypes.h</text>
</a>
</g>
<!-- Node7&#45;&gt;Node12 -->
<g id="edge28" class="edge"><title>Node7&#45;&gt;Node12</title>
<path fill="none" stroke="midnightblue" d="M560.723,-116.497C581.368,-107.356 611.516,-94.0082 634.599,-83.7883"/>
<polygon fill="midnightblue" stroke="midnightblue" points="636.284,-86.8701 644.011,-79.6212 633.45,-80.4694 636.284,-86.8701"/>
</g>
<!-- Node14 -->
<g id="node31" class="node"><title>Node14</title>
<polygon fill="white" stroke="#bfbfbf" points="516.5,-58.5 516.5,-79.5 583.5,-79.5 583.5,-58.5 516.5,-58.5"/>
<text text-anchor="middle" x="550" y="-66.5" font-family="Helvetica,sans-Serif" font-size="10.00">odversion.h</text>
</g>
<!-- Node7&#45;&gt;Node14 -->
<g id="edge34" class="edge"><title>Node7&#45;&gt;Node14</title>
<path fill="none" stroke="midnightblue" d="M539.384,-116.362C541.07,-108.84 543.384,-98.5187 545.421,-89.4308"/>
<polygon fill="midnightblue" stroke="midnightblue" points="548.859,-90.0941 547.631,-79.5707 542.028,-88.563 548.859,-90.0941"/>
</g>
<!-- Node8&#45;&gt;Node4 -->
<g id="edge20" class="edge"><title>Node8&#45;&gt;Node4</title>
<path fill="none" stroke="midnightblue" d="M752.395,-60.2242C747.888,-59.4005 743.355,-58.6372 739,-58 562.426,-32.1636 350.096,-18.3584 259.931,-13.2914"/>
<polygon fill="midnightblue" stroke="midnightblue" points="259.983,-9.78904 249.805,-12.7304 259.596,-16.7783 259.983,-9.78904"/>
</g>
<!-- Node9 -->
<g id="node20" class="node"><title>Node9</title>
<a xlink:href="plfdefs_8h.html" target="_top" xlink:title="plfdefs.h">
<polygon fill="white" stroke="black" points="707,-0.5 707,-21.5 761,-21.5 761,-0.5 707,-0.5"/>
<text text-anchor="middle" x="734" y="-8.5" font-family="Helvetica,sans-Serif" font-size="10.00">plfdefs.h</text>
</a>
</g>
<!-- Node8&#45;&gt;Node9 -->
<g id="edge22" class="edge"><title>Node8&#45;&gt;Node9</title>
<path fill="none" stroke="midnightblue" d="M782.178,-58.3619C773.779,-50.1043 761.946,-38.4725 752.11,-28.8029"/>
<polygon fill="midnightblue" stroke="midnightblue" points="754.338,-26.0851 744.753,-21.5707 749.431,-31.077 754.338,-26.0851"/>
</g>
<!-- Node10 -->
<g id="node22" class="node"><title>Node10</title>
<polygon fill="white" stroke="#bfbfbf" points="511.5,-0.5 511.5,-21.5 570.5,-21.5 570.5,-0.5 511.5,-0.5"/>
<text text-anchor="middle" x="541" y="-8.5" font-family="Helvetica,sans-Serif" font-size="10.00">stdexcept</text>
</g>
<!-- Node8&#45;&gt;Node10 -->
<g id="edge24" class="edge"><title>Node8&#45;&gt;Node10</title>
<path fill="none" stroke="midnightblue" d="M752.232,-59.6168C704.863,-48.7145 627.239,-30.8488 580.444,-20.0783"/>
<polygon fill="midnightblue" stroke="midnightblue" points="581.195,-16.6598 570.665,-17.8276 579.625,-23.4814 581.195,-16.6598"/>
</g>
<!-- Node11 -->
<g id="node24" class="node"><title>Node11</title>
<polygon fill="white" stroke="#bfbfbf" points="778.5,-0.5 778.5,-21.5 813.5,-21.5 813.5,-0.5 778.5,-0.5"/>
<text text-anchor="middle" x="796" y="-8.5" font-family="Helvetica,sans-Serif" font-size="10.00">new</text>
</g>
<!-- Node8&#45;&gt;Node11 -->
<g id="edge26" class="edge"><title>Node8&#45;&gt;Node11</title>
<path fill="none" stroke="midnightblue" d="M793.55,-58.3619C793.935,-50.9219 794.462,-40.7427 794.928,-31.7276"/>
<polygon fill="midnightblue" stroke="midnightblue" points="798.432,-31.7381 795.453,-21.5707 791.441,-31.3765 798.432,-31.7381"/>
</g>
<!-- Node12&#45;&gt;Node9 -->
<g id="edge30" class="edge"><title>Node12&#45;&gt;Node9</title>
<path fill="none" stroke="midnightblue" d="M680.105,-58.3619C689.688,-49.9408 703.264,-38.0105 714.393,-28.2308"/>
<polygon fill="midnightblue" stroke="midnightblue" points="716.77,-30.8009 721.971,-21.5707 712.149,-25.5427 716.77,-30.8009"/>
</g>
<!-- Node13 -->
<g id="node29" class="node"><title>Node13</title>
<polygon fill="white" stroke="#bfbfbf" points="640.5,-0.5 640.5,-21.5 689.5,-21.5 689.5,-0.5 640.5,-0.5"/>
<text text-anchor="middle" x="665" y="-8.5" font-family="Helvetica,sans-Serif" font-size="10.00">stdint.h</text>
</g>
<!-- Node12&#45;&gt;Node13 -->
<g id="edge32" class="edge"><title>Node12&#45;&gt;Node13</title>
<path fill="none" stroke="midnightblue" d="M667.45,-58.3619C667.065,-50.9219 666.538,-40.7427 666.072,-31.7276"/>
<polygon fill="midnightblue" stroke="midnightblue" points="669.559,-31.3765 665.547,-21.5707 662.568,-31.7381 669.559,-31.3765"/>
</g>
<!-- Node16 -->
<g id="node35" class="node"><title>Node16</title>
<a xlink:href="odset_8h.html" target="_top" xlink:title="odset.h">
<polygon fill="white" stroke="black" points="317.5,-464.5 317.5,-485.5 366.5,-485.5 366.5,-464.5 317.5,-464.5"/>
<text text-anchor="middle" x="342" y="-472.5" font-family="Helvetica,sans-Serif" font-size="10.00">odset.h</text>
</a>
</g>
<!-- Node15&#45;&gt;Node16 -->
<g id="edge38" class="edge"><title>Node15&#45;&gt;Node16</title>
<path fill="none" stroke="midnightblue" d="M274.223,-522.362C286.625,-513.696 304.346,-501.313 318.557,-491.382"/>
<polygon fill="midnightblue" stroke="midnightblue" points="320.681,-494.168 326.873,-485.571 316.671,-488.43 320.681,-494.168"/>
</g>
<!-- Node22 -->
<g id="node52" class="node"><title>Node22</title>
<a xlink:href="vectoraccess_8h.html" target="_top" xlink:title="vectoraccess.h">
<polygon fill="white" stroke="black" points="217.5,-464.5 217.5,-485.5 300.5,-485.5 300.5,-464.5 217.5,-464.5"/>
<text text-anchor="middle" x="259" y="-472.5" font-family="Helvetica,sans-Serif" font-size="10.00">vectoraccess.h</text>
</a>
</g>
<!-- Node15&#45;&gt;Node22 -->
<g id="edge60" class="edge"><title>Node15&#45;&gt;Node22</title>
<path fill="none" stroke="midnightblue" d="M259,-522.362C259,-514.922 259,-504.743 259,-495.728"/>
<polygon fill="midnightblue" stroke="midnightblue" points="262.5,-495.571 259,-485.571 255.5,-495.571 262.5,-495.571"/>
</g>
<!-- Node17 -->
<g id="node37" class="node"><title>Node17</title>
<a xlink:href="gendefs_8h.html" target="_top" xlink:title="gendefs.h">
<polygon fill="white" stroke="black" points="698.5,-174.5 698.5,-195.5 757.5,-195.5 757.5,-174.5 698.5,-174.5"/>
<text text-anchor="middle" x="728" y="-182.5" font-family="Helvetica,sans-Serif" font-size="10.00">gendefs.h</text>
</a>
</g>
<!-- Node16&#45;&gt;Node17 -->
<g id="edge40" class="edge"><title>Node16&#45;&gt;Node17</title>
<path fill="none" stroke="midnightblue" d="M366.627,-473.252C428.261,-468.528 587.485,-454.075 633,-428 667.515,-408.227 690,-398.777 690,-359 690,-359 690,-359 690,-301 690,-265.741 706.051,-227.315 717.289,-204.732"/>
<polygon fill="midnightblue" stroke="midnightblue" points="720.418,-206.301 721.895,-195.809 714.198,-203.09 720.418,-206.301"/>
</g>
<!-- Node18 -->
<g id="node39" class="node"><title>Node18</title>
<a xlink:href="undefval_8h.html" target="_top" xlink:title="undefval.h">
<polygon fill="white" stroke="black" points="670,-116.5 670,-137.5 732,-137.5 732,-116.5 670,-116.5"/>
<text text-anchor="middle" x="701" y="-124.5" font-family="Helvetica,sans-Serif" font-size="10.00">undefval.h</text>
</a>
</g>
<!-- Node17&#45;&gt;Node18 -->
<g id="edge42" class="edge"><title>Node17&#45;&gt;Node18</title>
<path fill="none" stroke="midnightblue" d="M723.048,-174.362C719.47,-166.677 714.532,-156.069 710.236,-146.84"/>
<polygon fill="midnightblue" stroke="midnightblue" points="713.314,-145.159 705.921,-137.571 706.968,-148.114 713.314,-145.159"/>
</g>
<!-- Node19 -->
<g id="node44" class="node"><title>Node19</title>
<a xlink:href="commontypes_8h.html" target="_top" xlink:title="commontypes.h">
<polygon fill="white" stroke="black" points="750,-116.5 750,-137.5 836,-137.5 836,-116.5 750,-116.5"/>
<text text-anchor="middle" x="793" y="-124.5" font-family="Helvetica,sans-Serif" font-size="10.00">commontypes.h</text>
</a>
</g>
<!-- Node17&#45;&gt;Node19 -->
<g id="edge50" class="edge"><title>Node17&#45;&gt;Node19</title>
<path fill="none" stroke="midnightblue" d="M739.922,-174.362C749.359,-165.941 762.73,-154.011 773.69,-144.231"/>
<polygon fill="midnightblue" stroke="midnightblue" points="776.022,-146.84 781.154,-137.571 771.362,-141.617 776.022,-146.84"/>
</g>
<!-- Node20 -->
<g id="node47" class="node"><title>Node20</title>
<a xlink:href="errmsg_8h.html" target="_top" xlink:title="errmsg.h">
<polygon fill="white" stroke="black" points="853.5,-116.5 853.5,-137.5 908.5,-137.5 908.5,-116.5 853.5,-116.5"/>
<text text-anchor="middle" x="881" y="-124.5" font-family="Helvetica,sans-Serif" font-size="10.00">errmsg.h</text>
</a>
</g>
<!-- Node17&#45;&gt;Node20 -->
<g id="edge54" class="edge"><title>Node17&#45;&gt;Node20</title>
<path fill="none" stroke="midnightblue" d="M755.707,-174.497C780.403,-165.135 816.742,-151.359 843.934,-141.051"/>
<polygon fill="midnightblue" stroke="midnightblue" points="845.389,-144.243 853.499,-137.425 842.908,-137.697 845.389,-144.243"/>
</g>
<!-- Node18&#45;&gt;Node4 -->
<g id="edge44" class="edge"><title>Node18&#45;&gt;Node4</title>
<path fill="none" stroke="midnightblue" d="M706.009,-116.346C712.253,-101.306 720.458,-73.9112 706,-58 676.288,-25.3015 374.841,-14.7614 260.057,-11.9176"/>
<polygon fill="midnightblue" stroke="midnightblue" points="259.947,-8.41405 249.866,-11.6733 259.779,-15.412 259.947,-8.41405"/>
</g>
<!-- Node18&#45;&gt;Node8 -->
<g id="edge46" class="edge"><title>Node18&#45;&gt;Node8</title>
<path fill="none" stroke="midnightblue" d="M717.874,-116.362C731.751,-107.614 751.634,-95.0786 767.46,-85.1015"/>
<polygon fill="midnightblue" stroke="midnightblue" points="769.64,-87.8645 776.233,-79.5707 765.907,-81.943 769.64,-87.8645"/>
</g>
<!-- Node18&#45;&gt;Node12 -->
<g id="edge48" class="edge"><title>Node18&#45;&gt;Node12</title>
<path fill="none" stroke="midnightblue" d="M694.947,-116.362C690.528,-108.595 684.41,-97.8426 679.121,-88.5458"/>
<polygon fill="midnightblue" stroke="midnightblue" points="682.002,-86.5315 674.014,-79.5707 675.918,-89.9932 682.002,-86.5315"/>
</g>
<!-- Node19&#45;&gt;Node8 -->
<g id="edge52" class="edge"><title>Node19&#45;&gt;Node8</title>
<path fill="none" stroke="midnightblue" d="M793,-116.362C793,-108.922 793,-98.7427 793,-89.7276"/>
<polygon fill="midnightblue" stroke="midnightblue" points="796.5,-89.5706 793,-79.5707 789.5,-89.5707 796.5,-89.5706"/>
</g>
<!-- Node20&#45;&gt;Node8 -->
<g id="edge56" class="edge"><title>Node20&#45;&gt;Node8</title>
<path fill="none" stroke="midnightblue" d="M864.859,-116.362C851.586,-107.614 832.568,-95.0786 817.43,-85.1015"/>
<polygon fill="midnightblue" stroke="midnightblue" points="819.314,-82.1515 809.038,-79.5707 815.462,-87.9962 819.314,-82.1515"/>
</g>
<!-- Node21 -->
<g id="node50" class="node"><title>Node21</title>
<polygon fill="white" stroke="#bfbfbf" points="855.5,-58.5 855.5,-79.5 906.5,-79.5 906.5,-58.5 855.5,-58.5"/>
<text text-anchor="middle" x="881" y="-66.5" font-family="Helvetica,sans-Serif" font-size="10.00">typeinfo</text>
</g>
<!-- Node20&#45;&gt;Node21 -->
<g id="edge58" class="edge"><title>Node20&#45;&gt;Node21</title>
<path fill="none" stroke="midnightblue" d="M881,-116.362C881,-108.922 881,-98.7427 881,-89.7276"/>
<polygon fill="midnightblue" stroke="midnightblue" points="884.5,-89.5706 881,-79.5707 877.5,-89.5707 884.5,-89.5706"/>
</g>
<!-- Node22&#45;&gt;Node10 -->
<g id="edge100" class="edge"><title>Node22&#45;&gt;Node10</title>
<path fill="none" stroke="midnightblue" d="M289.232,-464.333C306.026,-456.809 325.744,-445.008 337,-428 399.926,-332.92 321.297,-275.621 373,-174 406.609,-107.942 477.597,-53.2769 515.648,-27.2987"/>
<polygon fill="midnightblue" stroke="midnightblue" points="517.771,-30.0889 524.128,-21.6128 513.873,-24.2749 517.771,-30.0889"/>
</g>
<!-- Node22&#45;&gt;Node17 -->
<g id="edge94" class="edge"><title>Node22&#45;&gt;Node17</title>
<path fill="none" stroke="midnightblue" d="M293.635,-464.395C343.769,-448.215 438.488,-414.495 511,-370 593.38,-319.449 676.318,-238.404 711.05,-202.777"/>
<polygon fill="midnightblue" stroke="midnightblue" points="713.646,-205.128 718.082,-195.506 708.614,-200.261 713.646,-205.128"/>
</g>
<!-- Node23 -->
<g id="node54" class="node"><title>Node23</title>
<a xlink:href="debug_8h.html" target="_top" xlink:title="debug.h">
<polygon fill="white" stroke="black" points="141.5,-406.5 141.5,-427.5 192.5,-427.5 192.5,-406.5 141.5,-406.5"/>
<text text-anchor="middle" x="167" y="-414.5" font-family="Helvetica,sans-Serif" font-size="10.00">debug.h</text>
</a>
</g>
<!-- Node22&#45;&gt;Node23 -->
<g id="edge62" class="edge"><title>Node22&#45;&gt;Node23</title>
<path fill="none" stroke="midnightblue" d="M242.126,-464.362C228.249,-455.614 208.366,-443.079 192.54,-433.101"/>
<polygon fill="midnightblue" stroke="midnightblue" points="194.093,-429.943 183.767,-427.571 190.36,-435.864 194.093,-429.943"/>
</g>
<!-- Node30 -->
<g id="node78" class="node"><title>Node30</title>
<polygon fill="white" stroke="#bfbfbf" points="210,-406.5 210,-427.5 266,-427.5 266,-406.5 210,-406.5"/>
<text text-anchor="middle" x="238" y="-414.5" font-family="Helvetica,sans-Serif" font-size="10.00">algorithm</text>
</g>
<!-- Node22&#45;&gt;Node30 -->
<g id="edge96" class="edge"><title>Node22&#45;&gt;Node30</title>
<path fill="none" stroke="midnightblue" d="M255.148,-464.362C252.395,-456.758 248.606,-446.294 245.29,-437.135"/>
<polygon fill="midnightblue" stroke="midnightblue" points="248.523,-435.782 241.827,-427.571 241.941,-438.165 248.523,-435.782"/>
</g>
<!-- Node31 -->
<g id="node80" class="node"><title>Node31</title>
<polygon fill="white" stroke="#bfbfbf" points="284,-406.5 284,-427.5 328,-427.5 328,-406.5 284,-406.5"/>
<text text-anchor="middle" x="306" y="-414.5" font-family="Helvetica,sans-Serif" font-size="10.00">vector</text>
</g>
<!-- Node22&#45;&gt;Node31 -->
<g id="edge98" class="edge"><title>Node22&#45;&gt;Node31</title>
<path fill="none" stroke="midnightblue" d="M267.621,-464.362C274.18,-456.268 283.366,-444.932 291.106,-435.38"/>
<polygon fill="midnightblue" stroke="midnightblue" points="293.858,-437.544 297.434,-427.571 288.419,-433.136 293.858,-437.544"/>
</g>
<!-- Node23&#45;&gt;Node4 -->
<g id="edge64" class="edge"><title>Node23&#45;&gt;Node4</title>
<path fill="none" stroke="midnightblue" d="M151.982,-406.395C127.821,-387.96 83,-347.497 83,-301 83,-301 83,-301 83,-127 83,-76.7237 137.646,-43.2398 176.882,-25.6778"/>
<polygon fill="midnightblue" stroke="midnightblue" points="178.675,-28.717 186.483,-21.5554 175.913,-22.2849 178.675,-28.717"/>
</g>
<!-- Node23&#45;&gt;Node17 -->
<g id="edge66" class="edge"><title>Node23&#45;&gt;Node17</title>
<path fill="none" stroke="midnightblue" d="M192.85,-408.084C195.582,-407.307 198.335,-406.593 201,-406 326.053,-378.159 380.996,-441.948 487,-370 544.935,-330.678 508.224,-275.615 563,-232 582.32,-216.617 645.844,-201.442 688.198,-192.66"/>
<polygon fill="midnightblue" stroke="midnightblue" points="689.105,-196.047 698.206,-190.622 687.708,-189.188 689.105,-196.047"/>
</g>
<!-- Node23&#45;&gt;Node24 -->
<g id="edge68" class="edge"><title>Node23&#45;&gt;Node24</title>
<path fill="none" stroke="midnightblue" d="M165.533,-406.362C164.506,-398.922 163.102,-388.743 161.859,-379.728"/>
<polygon fill="midnightblue" stroke="midnightblue" points="165.292,-378.999 160.458,-369.571 158.357,-379.955 165.292,-378.999"/>
</g>
<!-- Node24&#45;&gt;Node4 -->
<g id="edge70" class="edge"><title>Node24&#45;&gt;Node4</title>
<path fill="none" stroke="midnightblue" d="M152.895,-348.191C142.153,-328.127 121,-283.477 121,-243 121,-243 121,-243 121,-127 121,-83.5461 161.395,-47.4386 189.504,-27.5737"/>
<polygon fill="midnightblue" stroke="midnightblue" points="191.831,-30.224 198.131,-21.7061 187.894,-24.4357 191.831,-30.224"/>
</g>
<!-- Node25 -->
<g id="node61" class="node"><title>Node25</title>
<a xlink:href="fixedstring_8h.html" target="_top" xlink:title="fixedstring.h">
<polygon fill="white" stroke="black" points="200,-290.5 200,-311.5 270,-311.5 270,-290.5 200,-290.5"/>
<text text-anchor="middle" x="235" y="-298.5" font-family="Helvetica,sans-Serif" font-size="10.00">fixedstring.h</text>
</a>
</g>
<!-- Node24&#45;&gt;Node25 -->
<g id="edge72" class="edge"><title>Node24&#45;&gt;Node25</title>
<path fill="none" stroke="midnightblue" d="M172.94,-348.362C184.188,-339.777 200.216,-327.546 213.165,-317.664"/>
<polygon fill="midnightblue" stroke="midnightblue" points="215.323,-320.42 221.149,-311.571 211.076,-314.855 215.323,-320.42"/>
</g>
<!-- Node27 -->
<g id="node68" class="node"><title>Node27</title>
<a xlink:href="string2_8h.html" target="_top" xlink:title="string2.h">
<polygon fill="white" stroke="black" points="284,-116.5 284,-137.5 338,-137.5 338,-116.5 284,-116.5"/>
<text text-anchor="middle" x="311" y="-124.5" font-family="Helvetica,sans-Serif" font-size="10.00">string2.h</text>
</a>
</g>
<!-- Node24&#45;&gt;Node27 -->
<g id="edge82" class="edge"><title>Node24&#45;&gt;Node27</title>
<path fill="none" stroke="midnightblue" d="M162.538,-348.224C170.244,-325.579 189.962,-271.859 216,-232 238.076,-198.206 270.917,-164.565 291.63,-144.785"/>
<polygon fill="midnightblue" stroke="midnightblue" points="294.303,-147.075 299.185,-137.672 289.505,-141.979 294.303,-147.075"/>
</g>
<!-- Node25&#45;&gt;Node4 -->
<g id="edge74" class="edge"><title>Node25&#45;&gt;Node4</title>
<path fill="none" stroke="midnightblue" d="M229.221,-290.164C224.61,-280.868 218.52,-266.959 216,-254 200.286,-173.201 208.525,-74.4112 213.333,-31.9884"/>
<polygon fill="midnightblue" stroke="midnightblue" points="216.839,-32.1427 214.548,-21.7986 209.889,-31.3139 216.839,-32.1427"/>
</g>
<!-- Node26 -->
<g id="node64" class="node"><title>Node26</title>
<a xlink:href="odstring_8h.html" target="_top" xlink:title="odstring.h">
<polygon fill="white" stroke="black" points="224.5,-232.5 224.5,-253.5 283.5,-253.5 283.5,-232.5 224.5,-232.5"/>
<text text-anchor="middle" x="254" y="-240.5" font-family="Helvetica,sans-Serif" font-size="10.00">odstring.h</text>
</a>
</g>
<!-- Node25&#45;&gt;Node26 -->
<g id="edge76" class="edge"><title>Node25&#45;&gt;Node26</title>
<path fill="none" stroke="midnightblue" d="M238.485,-290.362C240.976,-282.758 244.404,-272.294 247.404,-263.135"/>
<polygon fill="midnightblue" stroke="midnightblue" points="250.75,-264.163 250.537,-253.571 244.098,-261.984 250.75,-264.163"/>
</g>
<!-- Node26&#45;&gt;Node4 -->
<g id="edge78" class="edge"><title>Node26&#45;&gt;Node4</title>
<path fill="none" stroke="midnightblue" d="M252.268,-232.429C246.408,-196.648 227.246,-79.6628 219.398,-31.7481"/>
<polygon fill="midnightblue" stroke="midnightblue" points="222.812,-30.9362 217.742,-21.6335 215.904,-32.0678 222.812,-30.9362"/>
</g>
<!-- Node26&#45;&gt;Node17 -->
<g id="edge80" class="edge"><title>Node26&#45;&gt;Node17</title>
<path fill="none" stroke="midnightblue" d="M283.651,-239.372C365.616,-229.342 595.325,-201.234 688.243,-189.865"/>
<polygon fill="midnightblue" stroke="midnightblue" points="688.86,-193.316 698.36,-188.627 688.009,-186.367 688.86,-193.316"/>
</g>
<!-- Node27&#45;&gt;Node4 -->
<g id="edge84" class="edge"><title>Node27&#45;&gt;Node4</title>
<path fill="none" stroke="midnightblue" d="M295.093,-116.409C282.812,-107.675 265.953,-94.4146 254,-80 241.637,-65.0911 231.323,-45.5603 224.574,-31.0844"/>
<polygon fill="midnightblue" stroke="midnightblue" points="227.596,-29.2692 220.312,-21.5754 221.208,-32.1323 227.596,-29.2692"/>
</g>
<!-- Node27&#45;&gt;Node8 -->
<g id="edge88" class="edge"><title>Node27&#45;&gt;Node8</title>
<path fill="none" stroke="midnightblue" d="M338.305,-123.821C402.472,-116.335 567.88,-96.9488 706,-80 717.687,-78.5658 730.254,-76.9942 742.102,-75.499"/>
<polygon fill="midnightblue" stroke="midnightblue" points="742.807,-78.9379 752.288,-74.2102 741.928,-71.9932 742.807,-78.9379"/>
</g>
<!-- Node27&#45;&gt;Node12 -->
<g id="edge86" class="edge"><title>Node27&#45;&gt;Node12</title>
<path fill="none" stroke="midnightblue" d="M338.126,-122.593C400.627,-112.439 555.01,-87.357 628.235,-75.4604"/>
<polygon fill="midnightblue" stroke="midnightblue" points="629.12,-78.8625 638.43,-73.8041 627.998,-71.9531 629.12,-78.8625"/>
</g>
<!-- Node28 -->
<g id="node73" class="node"><title>Node28</title>
<polygon fill="white" stroke="#bfbfbf" points="262.5,-58.5 262.5,-79.5 311.5,-79.5 311.5,-58.5 262.5,-58.5"/>
<text text-anchor="middle" x="287" y="-66.5" font-family="Helvetica,sans-Serif" font-size="10.00">ctype.h</text>
</g>
<!-- Node27&#45;&gt;Node28 -->
<g id="edge90" class="edge"><title>Node27&#45;&gt;Node28</title>
<path fill="none" stroke="midnightblue" d="M306.598,-116.362C303.418,-108.677 299.028,-98.0686 295.21,-88.8399"/>
<polygon fill="midnightblue" stroke="midnightblue" points="298.432,-87.4726 291.374,-79.5707 291.964,-90.1491 298.432,-87.4726"/>
</g>
<!-- Node29 -->
<g id="node75" class="node"><title>Node29</title>
<polygon fill="white" stroke="#bfbfbf" points="329,-58.5 329,-79.5 385,-79.5 385,-58.5 329,-58.5"/>
<text text-anchor="middle" x="357" y="-66.5" font-family="Helvetica,sans-Serif" font-size="10.00">wctype.h</text>
</g>
<!-- Node27&#45;&gt;Node29 -->
<g id="edge92" class="edge"><title>Node27&#45;&gt;Node29</title>
<path fill="none" stroke="midnightblue" d="M319.437,-116.362C325.792,-108.35 334.666,-97.1605 342.193,-87.6696"/>
<polygon fill="midnightblue" stroke="midnightblue" points="345.145,-89.5805 348.616,-79.5707 339.66,-85.2308 345.145,-89.5805"/>
</g>
<!-- Node32&#45;&gt;Node15 -->
<g id="edge110" class="edge"><title>Node32&#45;&gt;Node15</title>
<path fill="none" stroke="midnightblue" d="M287.58,-580.362C282.844,-572.513 276.268,-561.616 270.618,-552.253"/>
<polygon fill="midnightblue" stroke="midnightblue" points="273.542,-550.324 265.379,-543.571 267.549,-553.941 273.542,-550.324"/>
</g>
<!-- Node33 -->
<g id="node85" class="node"><title>Node33</title>
<a xlink:href="typeset_8h.html" target="_top" xlink:title="typeset.h">
<polygon fill="white" stroke="black" points="308.5,-522.5 308.5,-543.5 365.5,-543.5 365.5,-522.5 308.5,-522.5"/>
<text text-anchor="middle" x="337" y="-530.5" font-family="Helvetica,sans-Serif" font-size="10.00">typeset.h</text>
</a>
</g>
<!-- Node32&#45;&gt;Node33 -->
<g id="edge104" class="edge"><title>Node32&#45;&gt;Node33</title>
<path fill="none" stroke="midnightblue" d="M301.887,-580.362C307.827,-572.35 316.122,-561.161 323.159,-551.67"/>
<polygon fill="midnightblue" stroke="midnightblue" points="326.019,-553.688 329.163,-543.571 320.396,-549.519 326.019,-553.688"/>
</g>
<!-- Node33&#45;&gt;Node16 -->
<g id="edge106" class="edge"><title>Node33&#45;&gt;Node16</title>
<path fill="none" stroke="midnightblue" d="M337.917,-522.362C338.558,-514.922 339.436,-504.743 340.213,-495.728"/>
<polygon fill="midnightblue" stroke="midnightblue" points="343.717,-495.834 341.089,-485.571 336.743,-495.233 343.717,-495.834"/>
</g>
<!-- Node33&#45;&gt;Node22 -->
<g id="edge108" class="edge"><title>Node33&#45;&gt;Node22</title>
<path fill="none" stroke="midnightblue" d="M322.694,-522.362C311.149,-513.777 294.7,-501.546 281.41,-491.664"/>
<polygon fill="midnightblue" stroke="midnightblue" points="283.329,-488.729 273.216,-485.571 279.152,-494.346 283.329,-488.729"/>
</g>
<!-- Node34&#45;&gt;Node4 -->
<g id="edge114" class="edge"><title>Node34&#45;&gt;Node4</title>
<path fill="none" stroke="midnightblue" d="M616.461,-116.408C615.057,-100.924 610.022,-72.389 592,-58 566.419,-37.5755 353.325,-20.4995 259.762,-13.9117"/>
<polygon fill="midnightblue" stroke="midnightblue" points="259.979,-10.4184 249.76,-13.2154 259.493,-17.4015 259.979,-10.4184"/>
</g>
<!-- Node34&#45;&gt;Node8 -->
<g id="edge116" class="edge"><title>Node34&#45;&gt;Node8</title>
<path fill="none" stroke="midnightblue" d="M648.872,-116.497C677.565,-107.041 719.921,-93.0829 751.298,-82.7428"/>
<polygon fill="midnightblue" stroke="midnightblue" points="752.666,-85.9772 761.068,-79.5231 750.475,-79.3289 752.666,-85.9772"/>
</g>
<!-- Node34&#45;&gt;Node12 -->
<g id="edge118" class="edge"><title>Node34&#45;&gt;Node12</title>
<path fill="none" stroke="midnightblue" d="M626.354,-116.362C633.543,-108.186 643.641,-96.7025 652.093,-87.0907"/>
<polygon fill="midnightblue" stroke="midnightblue" points="654.73,-89.3916 658.705,-79.5707 649.473,-84.7692 654.73,-89.3916"/>
</g>
<!-- Node35&#45;&gt;Node17 -->
<g id="edge124" class="edge"><title>Node35&#45;&gt;Node17</title>
<path fill="none" stroke="midnightblue" d="M769.116,-528.159C808.884,-520.525 880.238,-504.629 898,-486 941.248,-440.64 952.51,-405.246 927,-348 894.263,-274.537 809.102,-223.766 761.478,-200.117"/>
<polygon fill="midnightblue" stroke="midnightblue" points="762.724,-196.832 752.199,-195.617 759.669,-203.13 762.724,-196.832"/>
</g>
<!-- Node36 -->
<g id="node99" class="node"><title>Node36</title>
<a xlink:href="math2_8h.html" target="_top" xlink:title="math2.h">
<polygon fill="white" stroke="black" points="628,-464.5 628,-485.5 680,-485.5 680,-464.5 628,-464.5"/>
<text text-anchor="middle" x="654" y="-472.5" font-family="Helvetica,sans-Serif" font-size="10.00">math2.h</text>
</a>
</g>
<!-- Node35&#45;&gt;Node36 -->
<g id="edge126" class="edge"><title>Node35&#45;&gt;Node36</title>
<path fill="none" stroke="midnightblue" d="M725.859,-522.362C712.586,-513.614 693.568,-501.079 678.43,-491.101"/>
<polygon fill="midnightblue" stroke="midnightblue" points="680.314,-488.151 670.038,-485.571 676.462,-493.996 680.314,-488.151"/>
</g>
<!-- Node40 -->
<g id="node112" class="node"><title>Node40</title>
<a xlink:href="ptrman_8h.html" target="_top" xlink:title="ptrman.h">
<polygon fill="white" stroke="black" points="814.5,-406.5 814.5,-427.5 869.5,-427.5 869.5,-406.5 814.5,-406.5"/>
<text text-anchor="middle" x="842" y="-414.5" font-family="Helvetica,sans-Serif" font-size="10.00">ptrman.h</text>
</a>
</g>
<!-- Node35&#45;&gt;Node40 -->
<g id="edge144" class="edge"><title>Node35&#45;&gt;Node40</title>
<path fill="none" stroke="midnightblue" d="M769.05,-527.793C805.846,-520.099 868.64,-504.578 882,-486 893.978,-469.343 878.691,-448.853 863.687,-434.547"/>
<polygon fill="midnightblue" stroke="midnightblue" points="865.799,-431.741 856.013,-427.682 861.133,-436.958 865.799,-431.741"/>
</g>
<!-- Node42 -->
<g id="node118" class="node"><title>Node42</title>
<a xlink:href="varlenarray_8h.html" target="_top" xlink:title="varlenarray.h">
<polygon fill="white" stroke="black" points="800.5,-464.5 800.5,-485.5 873.5,-485.5 873.5,-464.5 800.5,-464.5"/>
<text text-anchor="middle" x="837" y="-472.5" font-family="Helvetica,sans-Serif" font-size="10.00">varlenarray.h</text>
</a>
</g>
<!-- Node35&#45;&gt;Node42 -->
<g id="edge152" class="edge"><title>Node35&#45;&gt;Node42</title>
<path fill="none" stroke="midnightblue" d="M759.424,-522.362C773.887,-513.532 794.669,-500.844 811.084,-490.822"/>
<polygon fill="midnightblue" stroke="midnightblue" points="812.975,-493.769 819.686,-485.571 809.327,-487.794 812.975,-493.769"/>
</g>
<!-- Node43 -->
<g id="node121" class="node"><title>Node43</title>
<a xlink:href="samplingdata_8h.html" target="_top" xlink:title="samplingdata.h">
<polygon fill="white" stroke="black" points="700.5,-464.5 700.5,-485.5 783.5,-485.5 783.5,-464.5 700.5,-464.5"/>
<text text-anchor="middle" x="742" y="-472.5" font-family="Helvetica,sans-Serif" font-size="10.00">samplingdata.h</text>
</a>
</g>
<!-- Node35&#45;&gt;Node43 -->
<g id="edge156" class="edge"><title>Node35&#45;&gt;Node43</title>
<path fill="none" stroke="midnightblue" d="M736.636,-522.362C735.319,-514.922 734.941,-504.743 735.5,-495.728"/>
<polygon fill="midnightblue" stroke="midnightblue" points="739.003,-495.9 736.648,-485.571 732.047,-495.114 739.003,-495.9"/>
</g>
<!-- Node36&#45;&gt;Node4 -->
<g id="edge128" class="edge"><title>Node36&#45;&gt;Node4</title>
<path fill="none" stroke="midnightblue" d="M654.071,-464.259C653.832,-441.681 651.216,-388.08 633,-348 598.447,-271.974 464.315,-103.053 394,-58 353.043,-31.7574 297.873,-20.1061 259.865,-14.9719"/>
<polygon fill="midnightblue" stroke="midnightblue" points="259.984,-11.4595 249.626,-13.6899 259.114,-18.4052 259.984,-11.4595"/>
</g>
<!-- Node36&#45;&gt;Node17 -->
<g id="edge130" class="edge"><title>Node36&#45;&gt;Node17</title>
<path fill="none" stroke="midnightblue" d="M668.975,-464.147C680.009,-455.464 694.663,-442.392 704,-428 721.672,-400.762 728,-391.469 728,-359 728,-359 728,-359 728,-301 728,-267.598 728,-228.785 728,-205.594"/>
<polygon fill="midnightblue" stroke="midnightblue" points="731.5,-205.556 728,-195.556 724.5,-205.556 731.5,-205.556"/>
</g>
<!-- Node37 -->
<g id="node103" class="node"><title>Node37</title>
<a xlink:href="odcomplex_8h.html" target="_top" xlink:title="odcomplex.h">
<polygon fill="white" stroke="black" points="552,-406.5 552,-427.5 624,-427.5 624,-406.5 552,-406.5"/>
<text text-anchor="middle" x="588" y="-414.5" font-family="Helvetica,sans-Serif" font-size="10.00">odcomplex.h</text>
</a>
</g>
<!-- Node36&#45;&gt;Node37 -->
<g id="edge132" class="edge"><title>Node36&#45;&gt;Node37</title>
<path fill="none" stroke="midnightblue" d="M641.895,-464.362C632.312,-455.941 618.736,-444.011 607.607,-434.231"/>
<polygon fill="midnightblue" stroke="midnightblue" points="609.851,-431.543 600.029,-427.571 605.23,-436.801 609.851,-431.543"/>
</g>
<!-- Node38 -->
<g id="node105" class="node"><title>Node38</title>
<polygon fill="white" stroke="#bfbfbf" points="571.5,-348.5 571.5,-369.5 624.5,-369.5 624.5,-348.5 571.5,-348.5"/>
<text text-anchor="middle" x="598" y="-356.5" font-family="Helvetica,sans-Serif" font-size="10.00">complex</text>
</g>
<!-- Node37&#45;&gt;Node38 -->
<g id="edge134" class="edge"><title>Node37&#45;&gt;Node38</title>
<path fill="none" stroke="midnightblue" d="M589.834,-406.362C591.131,-398.84 592.911,-388.519 594.477,-379.431"/>
<polygon fill="midnightblue" stroke="midnightblue" points="597.927,-380.02 596.177,-369.571 591.029,-378.831 597.927,-380.02"/>
</g>
<!-- Node39 -->
<g id="node107" class="node"><title>Node39</title>
<a xlink:href="convert_8h.html" target="_top" xlink:title="convert.h">
<polygon fill="white" stroke="black" points="421.5,-348.5 421.5,-369.5 478.5,-369.5 478.5,-348.5 421.5,-348.5"/>
<text text-anchor="middle" x="450" y="-356.5" font-family="Helvetica,sans-Serif" font-size="10.00">convert.h</text>
</a>
</g>
<!-- Node37&#45;&gt;Node39 -->
<g id="edge136" class="edge"><title>Node37&#45;&gt;Node39</title>
<path fill="none" stroke="midnightblue" d="M563.009,-406.497C541.067,-397.275 508.934,-383.769 484.536,-373.515"/>
<polygon fill="midnightblue" stroke="midnightblue" points="485.846,-370.269 475.271,-369.621 483.134,-376.722 485.846,-370.269"/>
</g>
<!-- Node39&#45;&gt;Node18 -->
<g id="edge140" class="edge"><title>Node39&#45;&gt;Node18</title>
<path fill="none" stroke="midnightblue" d="M454.152,-348.286C463.671,-324.823 489.049,-268.112 525,-232 566.423,-190.391 627.572,-158.796 665.805,-141.594"/>
<polygon fill="midnightblue" stroke="midnightblue" points="667.271,-144.773 675.006,-137.533 664.444,-138.369 667.271,-144.773"/>
</g>
<!-- Node39&#45;&gt;Node25 -->
<g id="edge142" class="edge"><title>Node39&#45;&gt;Node25</title>
<path fill="none" stroke="midnightblue" d="M421.45,-351.298C385.283,-341.542 322.547,-324.617 279.932,-313.121"/>
<polygon fill="midnightblue" stroke="midnightblue" points="280.662,-309.693 270.095,-310.468 278.838,-316.451 280.662,-309.693"/>
</g>
<!-- Node39&#45;&gt;Node27 -->
<g id="edge138" class="edge"><title>Node39&#45;&gt;Node27</title>
<path fill="none" stroke="midnightblue" d="M443.666,-348.429C422.003,-312.271 350.654,-193.186 322.536,-146.255"/>
<polygon fill="midnightblue" stroke="midnightblue" points="325.513,-144.413 317.371,-137.634 319.508,-148.011 325.513,-144.413"/>
</g>
<!-- Node40&#45;&gt;Node7 -->
<g id="edge148" class="edge"><title>Node40&#45;&gt;Node7</title>
<path fill="none" stroke="midnightblue" d="M842.637,-406.256C844.303,-366.964 844.117,-230.422 766,-174 697.82,-124.755 660.501,-156.303 573.979,-137.903"/>
<polygon fill="midnightblue" stroke="midnightblue" points="574.567,-134.447 564.037,-135.617 572.998,-141.269 574.567,-134.447"/>
</g>
<!-- Node40&#45;&gt;Node17 -->
<g id="edge146" class="edge"><title>Node40&#45;&gt;Node17</title>
<path fill="none" stroke="midnightblue" d="M838.822,-406.498C827.615,-369.611 790.065,-247.375 780,-232 772.502,-220.546 761.552,-210.082 751.632,-201.951"/>
<polygon fill="midnightblue" stroke="midnightblue" points="753.672,-199.103 743.639,-195.698 749.359,-204.616 753.672,-199.103"/>
</g>
<!-- Node41 -->
<g id="node116" class="node"><title>Node41</title>
<polygon fill="white" stroke="#bfbfbf" points="870,-348.5 870,-369.5 918,-369.5 918,-348.5 870,-348.5"/>
<text text-anchor="middle" x="894" y="-356.5" font-family="Helvetica,sans-Serif" font-size="10.00">stdlib.h</text>
</g>
<!-- Node40&#45;&gt;Node41 -->
<g id="edge150" class="edge"><title>Node40&#45;&gt;Node41</title>
<path fill="none" stroke="midnightblue" d="M851.538,-406.362C858.868,-398.186 869.163,-386.702 877.781,-377.091"/>
<polygon fill="midnightblue" stroke="midnightblue" points="880.453,-379.353 884.523,-369.571 875.241,-374.68 880.453,-379.353"/>
</g>
<!-- Node42&#45;&gt;Node40 -->
<g id="edge154" class="edge"><title>Node42&#45;&gt;Node40</title>
<path fill="none" stroke="midnightblue" d="M837.917,-464.362C838.558,-456.922 839.436,-446.743 840.213,-437.728"/>
<polygon fill="midnightblue" stroke="midnightblue" points="843.717,-437.834 841.089,-427.571 836.743,-437.233 843.717,-437.834"/>
</g>
<!-- Node43&#45;&gt;Node17 -->
<g id="edge158" class="edge"><title>Node43&#45;&gt;Node17</title>
<path fill="none" stroke="midnightblue" d="M745.75,-464.279C752.5,-443.993 766,-398.486 766,-359 766,-359 766,-359 766,-301 766,-265.741 749.949,-227.315 738.711,-204.732"/>
<polygon fill="midnightblue" stroke="midnightblue" points="741.802,-203.09 734.105,-195.809 735.582,-206.301 741.802,-203.09"/>
</g>
<!-- Node43&#45;&gt;Node35 -->
<g id="edge160" class="edge"><title>Node43&#45;&gt;Node35</title>
<path fill="none" stroke="midnightblue" d="M747.352,-485.571C748.674,-492.994 749.059,-503.168 748.505,-512.191"/>
<polygon fill="midnightblue" stroke="midnightblue" points="745,-512.034 747.364,-522.362 751.957,-512.814 745,-512.034"/>
</g>
</g>
</svg>
