<?xml version="1.0" encoding="UTF-8" standalone="no"?>
<!DOCTYPE svg PUBLIC "-//W3C//DTD SVG 1.1//EN"
 "http://www.w3.org/Graphics/SVG/1.1/DTD/svg11.dtd">
<!-- Generated by graphviz version 2.26.0 (20091210.2329)
 -->
<!-- Title: progressmeter.h Pages: 1 -->
<svg width="1025pt" height="784pt"
 viewBox="0.00 0.00 1025.00 784.00" xmlns="http://www.w3.org/2000/svg" xmlns:xlink="http://www.w3.org/1999/xlink">
<g id="graph1" class="graph" transform="scale(1 1) rotate(0) translate(4 780)">
<title>progressmeter.h</title>
<polygon fill="white" stroke="white" points="-4,5 -4,-780 1022,-780 1022,5 -4,5"/>
<!-- Node1 -->
<g id="node1" class="node"><title>Node1</title>
<polygon fill="#bfbfbf" stroke="black" points="414.5,-754.5 414.5,-775.5 501.5,-775.5 501.5,-754.5 414.5,-754.5"/>
<text text-anchor="middle" x="458" y="-762.5" font-family="Helvetica,sans-Serif" font-size="10.00">progressmeter.h</text>
</g>
<!-- Node2 -->
<g id="node3" class="node"><title>Node2</title>
<polygon fill="white" stroke="#bfbfbf" points="634.5,-0.5 634.5,-21.5 701.5,-21.5 701.5,-0.5 634.5,-0.5"/>
<text text-anchor="middle" x="668" y="-8.5" font-family="Helvetica,sans-Serif" font-size="10.00">basicmod.h</text>
</g>
<!-- Node1&#45;&gt;Node2 -->
<g id="edge2" class="edge"><title>Node1&#45;&gt;Node2</title>
<path fill="none" stroke="midnightblue" d="M501.864,-760.553C633.643,-746.609 1017,-701.532 1017,-649 1017,-649 1017,-649 1017,-127 1017,-85.1726 989.842,-77.8033 953,-58 912.089,-36.0096 781.16,-21.2347 711.908,-14.7471"/>
<polygon fill="midnightblue" stroke="midnightblue" points="712.029,-11.2436 701.751,-13.8137 711.388,-18.2142 712.029,-11.2436"/>
</g>
<!-- Node3 -->
<g id="node5" class="node"><title>Node3</title>
<a xlink:href="uistring_8h.html" target="_top" xlink:title="uistring.h">
<polygon fill="white" stroke="black" points="470,-580.5 470,-601.5 526,-601.5 526,-580.5 470,-580.5"/>
<text text-anchor="middle" x="498" y="-588.5" font-family="Helvetica,sans-Serif" font-size="10.00">uistring.h</text>
</a>
</g>
<!-- Node1&#45;&gt;Node3 -->
<g id="edge4" class="edge"><title>Node1&#45;&gt;Node3</title>
<path fill="none" stroke="midnightblue" d="M463.695,-754.488C468.5,-745.164 475.189,-731.039 479,-718 489.678,-681.465 494.564,-637.173 496.635,-611.722"/>
<polygon fill="midnightblue" stroke="midnightblue" points="500.125,-611.98 497.378,-601.747 493.144,-611.459 500.125,-611.98"/>
</g>
<!-- Node29 -->
<g id="node80" class="node"><title>Node29</title>
<a xlink:href="progressmeterimpl_8h.html" target="_top" xlink:title="progressmeterimpl.h">
<polygon fill="white" stroke="black" points="365.5,-696.5 365.5,-717.5 470.5,-717.5 470.5,-696.5 365.5,-696.5"/>
<text text-anchor="middle" x="418" y="-704.5" font-family="Helvetica,sans-Serif" font-size="10.00">progressmeterimpl.h</text>
</a>
</g>
<!-- Node1&#45;&gt;Node29 -->
<g id="edge102" class="edge"><title>Node1&#45;&gt;Node29</title>
<path fill="none" stroke="midnightblue" d="M445.299,-754.362C438.568,-746.595 430.801,-735.843 425.059,-726.546"/>
<polygon fill="midnightblue" stroke="midnightblue" points="427.934,-724.522 419.938,-717.571 421.854,-727.991 427.934,-724.522"/>
</g>
<!-- Node4 -->
<g id="node7" class="node"><title>Node4</title>
<a xlink:href="gendefs_8h.html" target="_top" xlink:title="gendefs.h">
<polygon fill="white" stroke="black" points="468.5,-174.5 468.5,-195.5 527.5,-195.5 527.5,-174.5 468.5,-174.5"/>
<text text-anchor="middle" x="498" y="-182.5" font-family="Helvetica,sans-Serif" font-size="10.00">gendefs.h</text>
</a>
</g>
<!-- Node3&#45;&gt;Node4 -->
<g id="edge6" class="edge"><title>Node3&#45;&gt;Node4</title>
<path fill="none" stroke="midnightblue" d="M498,-580.444C498,-560.062 498,-513.868 498,-475 498,-475 498,-475 498,-301 498,-267.598 498,-228.785 498,-205.594"/>
<polygon fill="midnightblue" stroke="midnightblue" points="501.5,-205.556 498,-195.556 494.5,-205.556 501.5,-205.556"/>
</g>
<!-- Node15 -->
<g id="node34" class="node"><title>Node15</title>
<a xlink:href="keystrs_8h.html" target="_top" xlink:title="keystrs.h">
<polygon fill="white" stroke="black" points="601.5,-348.5 601.5,-369.5 658.5,-369.5 658.5,-348.5 601.5,-348.5"/>
<text text-anchor="middle" x="630" y="-356.5" font-family="Helvetica,sans-Serif" font-size="10.00">keystrs.h</text>
</a>
</g>
<!-- Node3&#45;&gt;Node15 -->
<g id="edge38" class="edge"><title>Node3&#45;&gt;Node15</title>
<path fill="none" stroke="midnightblue" d="M505.108,-580.154C521.934,-554.303 565.173,-486.822 597,-428 605.746,-411.836 614.681,-392.981 621.044,-379.07"/>
<polygon fill="midnightblue" stroke="midnightblue" points="624.249,-380.477 625.183,-369.923 617.872,-377.591 624.249,-380.477"/>
</g>
<!-- Node18 -->
<g id="node44" class="node"><title>Node18</title>
<a xlink:href="threadlock_8h.html" target="_top" xlink:title="threadlock.h">
<polygon fill="white" stroke="black" points="226,-290.5 226,-311.5 296,-311.5 296,-290.5 226,-290.5"/>
<text text-anchor="middle" x="261" y="-298.5" font-family="Helvetica,sans-Serif" font-size="10.00">threadlock.h</text>
</a>
</g>
<!-- Node3&#45;&gt;Node18 -->
<g id="edge52" class="edge"><title>Node3&#45;&gt;Node18</title>
<path fill="none" stroke="midnightblue" d="M492.683,-580.254C481.274,-557.668 452.955,-504.051 422,-464 377.12,-405.931 313.298,-346.893 281.154,-318.449"/>
<polygon fill="midnightblue" stroke="midnightblue" points="283.154,-315.548 273.331,-311.579 278.535,-320.807 283.154,-315.548"/>
</g>
<!-- Node19 -->
<g id="node49" class="node"><title>Node19</title>
<a xlink:href="string2_8h.html" target="_top" xlink:title="string2.h">
<polygon fill="white" stroke="black" points="754,-116.5 754,-137.5 808,-137.5 808,-116.5 754,-116.5"/>
<text text-anchor="middle" x="781" y="-124.5" font-family="Helvetica,sans-Serif" font-size="10.00">string2.h</text>
</a>
</g>
<!-- Node3&#45;&gt;Node19 -->
<g id="edge60" class="edge"><title>Node3&#45;&gt;Node19</title>
<path fill="none" stroke="midnightblue" d="M519.406,-580.494C572.891,-553.201 713.607,-474.824 791,-370 843.037,-299.519 842.172,-256.25 812,-174 808.341,-164.026 802.201,-154.049 796.347,-145.87"/>
<polygon fill="midnightblue" stroke="midnightblue" points="799.058,-143.653 790.237,-137.785 793.474,-147.873 799.058,-143.653"/>
</g>
<!-- Node22 -->
<g id="node58" class="node"><title>Node22</title>
<a xlink:href="typeset_8h.html" target="_top" xlink:title="typeset.h">
<polygon fill="white" stroke="black" points="356.5,-522.5 356.5,-543.5 413.5,-543.5 413.5,-522.5 356.5,-522.5"/>
<text text-anchor="middle" x="385" y="-530.5" font-family="Helvetica,sans-Serif" font-size="10.00">typeset.h</text>
</a>
</g>
<!-- Node3&#45;&gt;Node22 -->
<g id="edge72" class="edge"><title>Node3&#45;&gt;Node22</title>
<path fill="none" stroke="midnightblue" d="M477.537,-580.497C459.967,-571.479 434.418,-558.365 414.615,-548.201"/>
<polygon fill="midnightblue" stroke="midnightblue" points="416.188,-545.074 405.693,-543.621 412.991,-551.301 416.188,-545.074"/>
</g>
<!-- Node5 -->
<g id="node9" class="node"><title>Node5</title>
<a xlink:href="undefval_8h.html" target="_top" xlink:title="undefval.h">
<polygon fill="white" stroke="black" points="308,-116.5 308,-137.5 370,-137.5 370,-116.5 308,-116.5"/>
<text text-anchor="middle" x="339" y="-124.5" font-family="Helvetica,sans-Serif" font-size="10.00">undefval.h</text>
</a>
</g>
<!-- Node4&#45;&gt;Node5 -->
<g id="edge8" class="edge"><title>Node4&#45;&gt;Node5</title>
<path fill="none" stroke="midnightblue" d="M469.206,-174.497C443.509,-165.123 405.682,-151.324 377.413,-141.012"/>
<polygon fill="midnightblue" stroke="midnightblue" points="378.442,-137.662 367.848,-137.523 376.043,-144.238 378.442,-137.662"/>
</g>
<!-- Node12 -->
<g id="node26" class="node"><title>Node12</title>
<a xlink:href="commontypes_8h.html" target="_top" xlink:title="commontypes.h">
<polygon fill="white" stroke="black" points="426,-116.5 426,-137.5 512,-137.5 512,-116.5 426,-116.5"/>
<text text-anchor="middle" x="469" y="-124.5" font-family="Helvetica,sans-Serif" font-size="10.00">commontypes.h</text>
</a>
</g>
<!-- Node4&#45;&gt;Node12 -->
<g id="edge28" class="edge"><title>Node4&#45;&gt;Node12</title>
<path fill="none" stroke="midnightblue" d="M492.681,-174.362C488.797,-166.595 483.421,-155.843 478.773,-146.546"/>
<polygon fill="midnightblue" stroke="midnightblue" points="481.888,-144.95 474.285,-137.571 475.627,-148.08 481.888,-144.95"/>
</g>
<!-- Node13 -->
<g id="node29" class="node"><title>Node13</title>
<a xlink:href="errmsg_8h.html" target="_top" xlink:title="errmsg.h">
<polygon fill="white" stroke="black" points="529.5,-116.5 529.5,-137.5 584.5,-137.5 584.5,-116.5 529.5,-116.5"/>
<text text-anchor="middle" x="557" y="-124.5" font-family="Helvetica,sans-Serif" font-size="10.00">errmsg.h</text>
</a>
</g>
<!-- Node4&#45;&gt;Node13 -->
<g id="edge32" class="edge"><title>Node4&#45;&gt;Node13</title>
<path fill="none" stroke="midnightblue" d="M508.822,-174.362C517.221,-166.104 529.054,-154.472 538.89,-144.803"/>
<polygon fill="midnightblue" stroke="midnightblue" points="541.569,-147.077 546.247,-137.571 536.662,-142.085 541.569,-147.077"/>
</g>
<!-- Node5&#45;&gt;Node2 -->
<g id="edge10" class="edge"><title>Node5&#45;&gt;Node2</title>
<path fill="none" stroke="midnightblue" d="M364.514,-116.427C386.527,-107.179 419.086,-93.199 447,-80 466.407,-70.8235 469.951,-65.6733 490,-58 534.611,-40.926 587.799,-27.7693 624.346,-19.775"/>
<polygon fill="midnightblue" stroke="midnightblue" points="625.151,-23.182 634.192,-17.6581 623.68,-16.3384 625.151,-23.182"/>
</g>
<!-- Node6 -->
<g id="node12" class="node"><title>Node6</title>
<a xlink:href="commondefs_8h.html" target="_top" xlink:title="commondefs.h">
<polygon fill="white" stroke="black" points="357.5,-58.5 357.5,-79.5 438.5,-79.5 438.5,-58.5 357.5,-58.5"/>
<text text-anchor="middle" x="398" y="-66.5" font-family="Helvetica,sans-Serif" font-size="10.00">commondefs.h</text>
</a>
</g>
<!-- Node5&#45;&gt;Node6 -->
<g id="edge12" class="edge"><title>Node5&#45;&gt;Node6</title>
<path fill="none" stroke="midnightblue" d="M349.822,-116.362C358.221,-108.104 370.054,-96.4725 379.89,-86.8029"/>
<polygon fill="midnightblue" stroke="midnightblue" points="382.569,-89.077 387.247,-79.5707 377.662,-84.0851 382.569,-89.077"/>
</g>
<!-- Node10 -->
<g id="node21" class="node"><title>Node10</title>
<a xlink:href="plftypes_8h.html" target="_top" xlink:title="plftypes.h">
<polygon fill="white" stroke="black" points="281.5,-58.5 281.5,-79.5 340.5,-79.5 340.5,-58.5 281.5,-58.5"/>
<text text-anchor="middle" x="311" y="-66.5" font-family="Helvetica,sans-Serif" font-size="10.00">plftypes.h</text>
</a>
</g>
<!-- Node5&#45;&gt;Node10 -->
<g id="edge22" class="edge"><title>Node5&#45;&gt;Node10</title>
<path fill="none" stroke="midnightblue" d="M333.864,-116.362C330.154,-108.677 325.033,-98.0686 320.578,-88.8399"/>
<polygon fill="midnightblue" stroke="midnightblue" points="323.603,-87.0545 316.103,-79.5707 317.299,-90.0978 323.603,-87.0545"/>
</g>
<!-- Node6&#45;&gt;Node2 -->
<g id="edge14" class="edge"><title>Node6&#45;&gt;Node2</title>
<path fill="none" stroke="midnightblue" d="M438.714,-60.254C488.71,-49.5141 573.166,-31.3717 624.433,-20.3589"/>
<polygon fill="midnightblue" stroke="midnightblue" points="625.182,-23.7779 634.224,-18.2557 623.712,-16.934 625.182,-23.7779"/>
</g>
<!-- Node7 -->
<g id="node15" class="node"><title>Node7</title>
<a xlink:href="plfdefs_8h.html" target="_top" xlink:title="plfdefs.h">
<polygon fill="white" stroke="black" points="331,-0.5 331,-21.5 385,-21.5 385,-0.5 331,-0.5"/>
<text text-anchor="middle" x="358" y="-8.5" font-family="Helvetica,sans-Serif" font-size="10.00">plfdefs.h</text>
</a>
</g>
<!-- Node6&#45;&gt;Node7 -->
<g id="edge16" class="edge"><title>Node6&#45;&gt;Node7</title>
<path fill="none" stroke="midnightblue" d="M390.663,-58.3619C385.194,-50.4313 377.578,-39.3885 371.076,-29.9606"/>
<polygon fill="midnightblue" stroke="midnightblue" points="373.849,-27.8157 365.29,-21.5707 368.086,-31.7899 373.849,-27.8157"/>
</g>
<!-- Node8 -->
<g id="node17" class="node"><title>Node8</title>
<polygon fill="white" stroke="#bfbfbf" points="156.5,-0.5 156.5,-21.5 215.5,-21.5 215.5,-0.5 156.5,-0.5"/>
<text text-anchor="middle" x="186" y="-8.5" font-family="Helvetica,sans-Serif" font-size="10.00">stdexcept</text>
</g>
<!-- Node6&#45;&gt;Node8 -->
<g id="edge18" class="edge"><title>Node6&#45;&gt;Node8</title>
<path fill="none" stroke="midnightblue" d="M359.608,-58.4966C321.6,-48.0982 263.689,-32.2544 225.35,-21.7656"/>
<polygon fill="midnightblue" stroke="midnightblue" points="226.138,-18.3527 215.569,-19.0897 224.291,-25.1046 226.138,-18.3527"/>
</g>
<!-- Node9 -->
<g id="node19" class="node"><title>Node9</title>
<polygon fill="white" stroke="#bfbfbf" points="402.5,-0.5 402.5,-21.5 437.5,-21.5 437.5,-0.5 402.5,-0.5"/>
<text text-anchor="middle" x="420" y="-8.5" font-family="Helvetica,sans-Serif" font-size="10.00">new</text>
</g>
<!-- Node6&#45;&gt;Node9 -->
<g id="edge20" class="edge"><title>Node6&#45;&gt;Node9</title>
<path fill="none" stroke="midnightblue" d="M402.035,-58.3619C404.919,-50.7584 408.888,-40.294 412.363,-31.1349"/>
<polygon fill="midnightblue" stroke="midnightblue" points="415.716,-32.1619 415.99,-21.5707 409.171,-29.6793 415.716,-32.1619"/>
</g>
<!-- Node10&#45;&gt;Node7 -->
<g id="edge24" class="edge"><title>Node10&#45;&gt;Node7</title>
<path fill="none" stroke="midnightblue" d="M319.621,-58.3619C326.18,-50.2678 335.366,-38.9318 343.106,-29.3796"/>
<polygon fill="midnightblue" stroke="midnightblue" points="345.858,-31.5436 349.434,-21.5707 340.419,-27.1364 345.858,-31.5436"/>
</g>
<!-- Node11 -->
<g id="node24" class="node"><title>Node11</title>
<polygon fill="white" stroke="#bfbfbf" points="264.5,-0.5 264.5,-21.5 313.5,-21.5 313.5,-0.5 264.5,-0.5"/>
<text text-anchor="middle" x="289" y="-8.5" font-family="Helvetica,sans-Serif" font-size="10.00">stdint.h</text>
</g>
<!-- Node10&#45;&gt;Node11 -->
<g id="edge26" class="edge"><title>Node10&#45;&gt;Node11</title>
<path fill="none" stroke="midnightblue" d="M306.965,-58.3619C304.081,-50.7584 300.112,-40.294 296.637,-31.1349"/>
<polygon fill="midnightblue" stroke="midnightblue" points="299.829,-29.6793 293.01,-21.5707 293.284,-32.1619 299.829,-29.6793"/>
</g>
<!-- Node12&#45;&gt;Node6 -->
<g id="edge30" class="edge"><title>Node12&#45;&gt;Node6</title>
<path fill="none" stroke="midnightblue" d="M455.978,-116.362C445.569,-107.859 430.781,-95.7785 418.745,-85.9466"/>
<polygon fill="midnightblue" stroke="midnightblue" points="420.899,-83.1866 410.94,-79.5707 416.47,-88.6077 420.899,-83.1866"/>
</g>
<!-- Node13&#45;&gt;Node6 -->
<g id="edge34" class="edge"><title>Node13&#45;&gt;Node6</title>
<path fill="none" stroke="midnightblue" d="M529.304,-116.897C503.676,-107.549 465.327,-93.5595 436.681,-83.11"/>
<polygon fill="midnightblue" stroke="midnightblue" points="437.584,-79.7138 426.99,-79.5749 435.185,-86.2899 437.584,-79.7138"/>
</g>
<!-- Node14 -->
<g id="node32" class="node"><title>Node14</title>
<polygon fill="white" stroke="#bfbfbf" points="531.5,-58.5 531.5,-79.5 582.5,-79.5 582.5,-58.5 531.5,-58.5"/>
<text text-anchor="middle" x="557" y="-66.5" font-family="Helvetica,sans-Serif" font-size="10.00">typeinfo</text>
</g>
<!-- Node13&#45;&gt;Node14 -->
<g id="edge36" class="edge"><title>Node13&#45;&gt;Node14</title>
<path fill="none" stroke="midnightblue" d="M557,-116.362C557,-108.922 557,-98.7427 557,-89.7276"/>
<polygon fill="midnightblue" stroke="midnightblue" points="560.5,-89.5706 557,-79.5707 553.5,-89.5707 560.5,-89.5706"/>
</g>
<!-- Node15&#45;&gt;Node4 -->
<g id="edge40" class="edge"><title>Node15&#45;&gt;Node4</title>
<path fill="none" stroke="midnightblue" d="M624.654,-348.479C612.9,-325.869 583.199,-271.496 550,-232 540.946,-221.229 529.463,-210.6 519.592,-202.182"/>
<polygon fill="midnightblue" stroke="midnightblue" points="521.695,-199.379 511.768,-195.676 517.219,-204.761 521.695,-199.379"/>
</g>
<!-- Node16 -->
<g id="node37" class="node"><title>Node16</title>
<a xlink:href="fixedstring_8h.html" target="_top" xlink:title="fixedstring.h">
<polygon fill="white" stroke="black" points="716,-290.5 716,-311.5 786,-311.5 786,-290.5 716,-290.5"/>
<text text-anchor="middle" x="751" y="-298.5" font-family="Helvetica,sans-Serif" font-size="10.00">fixedstring.h</text>
</a>
</g>
<!-- Node15&#45;&gt;Node16 -->
<g id="edge42" class="edge"><title>Node15&#45;&gt;Node16</title>
<path fill="none" stroke="midnightblue" d="M651.912,-348.497C670.811,-339.438 698.331,-326.246 719.576,-316.063"/>
<polygon fill="midnightblue" stroke="midnightblue" points="721.337,-319.1 728.842,-311.621 718.311,-312.788 721.337,-319.1"/>
</g>
<!-- Node16&#45;&gt;Node2 -->
<g id="edge44" class="edge"><title>Node16&#45;&gt;Node2</title>
<path fill="none" stroke="midnightblue" d="M767.023,-290.42C818.227,-255.363 970.67,-140.545 903,-58 879.311,-29.1043 773.186,-17.6197 711.959,-13.3386"/>
<polygon fill="midnightblue" stroke="midnightblue" points="712.018,-9.83489 701.809,-12.6659 711.555,-16.8196 712.018,-9.83489"/>
</g>
<!-- Node17 -->
<g id="node40" class="node"><title>Node17</title>
<a xlink:href="odstring_8h.html" target="_top" xlink:title="odstring.h">
<polygon fill="white" stroke="black" points="721.5,-232.5 721.5,-253.5 780.5,-253.5 780.5,-232.5 721.5,-232.5"/>
<text text-anchor="middle" x="751" y="-240.5" font-family="Helvetica,sans-Serif" font-size="10.00">odstring.h</text>
</a>
</g>
<!-- Node16&#45;&gt;Node17 -->
<g id="edge46" class="edge"><title>Node16&#45;&gt;Node17</title>
<path fill="none" stroke="midnightblue" d="M751,-290.362C751,-282.922 751,-272.743 751,-263.728"/>
<polygon fill="midnightblue" stroke="midnightblue" points="754.5,-263.571 751,-253.571 747.5,-263.571 754.5,-263.571"/>
</g>
<!-- Node17&#45;&gt;Node2 -->
<g id="edge48" class="edge"><title>Node17&#45;&gt;Node2</title>
<path fill="none" stroke="midnightblue" d="M769.058,-232.478C816.135,-203.759 935.501,-121.912 884,-58 862.805,-31.6966 768.616,-19.3435 711.848,-14.1929"/>
<polygon fill="midnightblue" stroke="midnightblue" points="711.975,-10.6908 701.71,-13.3133 711.37,-17.6646 711.975,-10.6908"/>
</g>
<!-- Node17&#45;&gt;Node4 -->
<g id="edge50" class="edge"><title>Node17&#45;&gt;Node4</title>
<path fill="none" stroke="midnightblue" d="M721.483,-236.233C675.996,-225.805 588.7,-205.793 537.715,-194.105"/>
<polygon fill="midnightblue" stroke="midnightblue" points="538.25,-190.637 527.721,-191.813 536.686,-197.46 538.25,-190.637"/>
</g>
<!-- Node18&#45;&gt;Node2 -->
<g id="edge54" class="edge"><title>Node18&#45;&gt;Node2</title>
<path fill="none" stroke="midnightblue" d="M267.97,-290.203C288.064,-259.716 349.026,-171.584 417,-116 419.598,-113.875 519.918,-59.3288 523,-58 556.15,-43.7077 595.144,-31.3015 624.341,-22.8297"/>
<polygon fill="midnightblue" stroke="midnightblue" points="625.581,-26.1152 634.234,-20.0005 623.657,-19.385 625.581,-26.1152"/>
</g>
<!-- Node18&#45;&gt;Node6 -->
<g id="edge56" class="edge"><title>Node18&#45;&gt;Node6</title>
<path fill="none" stroke="midnightblue" d="M262.613,-290.402C268.352,-253.191 288.023,-129.997 299,-116 311.185,-100.463 329.761,-89.7988 347.543,-82.6103"/>
<polygon fill="midnightblue" stroke="midnightblue" points="349.153,-85.745 357.295,-78.9654 346.703,-79.1881 349.153,-85.745"/>
</g>
<!-- Node18&#45;&gt;Node10 -->
<g id="edge58" class="edge"><title>Node18&#45;&gt;Node10</title>
<path fill="none" stroke="midnightblue" d="M258.747,-290.432C253.048,-261.257 240.262,-177.675 266,-116 270.73,-104.666 279.558,-94.4816 288.151,-86.5151"/>
<polygon fill="midnightblue" stroke="midnightblue" points="290.579,-89.0425 295.852,-79.8529 285.999,-83.7487 290.579,-89.0425"/>
</g>
<!-- Node19&#45;&gt;Node2 -->
<g id="edge62" class="edge"><title>Node19&#45;&gt;Node2</title>
<path fill="none" stroke="midnightblue" d="M770.572,-116.295C751.147,-96.3545 709.242,-53.337 685.443,-28.9056"/>
<polygon fill="midnightblue" stroke="midnightblue" points="687.888,-26.4001 678.403,-21.6792 682.874,-31.2846 687.888,-26.4001"/>
</g>
<!-- Node19&#45;&gt;Node6 -->
<g id="edge66" class="edge"><title>Node19&#45;&gt;Node6</title>
<path fill="none" stroke="midnightblue" d="M753.763,-122.875C690.092,-113.233 530.707,-89.0967 448.618,-76.6654"/>
<polygon fill="midnightblue" stroke="midnightblue" points="448.934,-73.1735 438.523,-75.1366 447.886,-80.0946 448.934,-73.1735"/>
</g>
<!-- Node19&#45;&gt;Node10 -->
<g id="edge64" class="edge"><title>Node19&#45;&gt;Node10</title>
<path fill="none" stroke="midnightblue" d="M753.961,-125.69C686.97,-122.099 507.901,-110.399 350.601,-80.0705"/>
<polygon fill="midnightblue" stroke="midnightblue" points="351.237,-76.6286 340.751,-78.141 349.891,-83.4981 351.237,-76.6286"/>
</g>
<!-- Node20 -->
<g id="node54" class="node"><title>Node20</title>
<polygon fill="white" stroke="#bfbfbf" points="826.5,-58.5 826.5,-79.5 875.5,-79.5 875.5,-58.5 826.5,-58.5"/>
<text text-anchor="middle" x="851" y="-66.5" font-family="Helvetica,sans-Serif" font-size="10.00">ctype.h</text>
</g>
<!-- Node19&#45;&gt;Node20 -->
<g id="edge68" class="edge"><title>Node19&#45;&gt;Node20</title>
<path fill="none" stroke="midnightblue" d="M793.839,-116.362C804.002,-107.941 818.401,-96.0105 830.204,-86.2308"/>
<polygon fill="midnightblue" stroke="midnightblue" points="832.775,-88.6459 838.242,-79.5707 828.309,-83.2558 832.775,-88.6459"/>
</g>
<!-- Node21 -->
<g id="node56" class="node"><title>Node21</title>
<polygon fill="white" stroke="#bfbfbf" points="753,-58.5 753,-79.5 809,-79.5 809,-58.5 753,-58.5"/>
<text text-anchor="middle" x="781" y="-66.5" font-family="Helvetica,sans-Serif" font-size="10.00">wctype.h</text>
</g>
<!-- Node19&#45;&gt;Node21 -->
<g id="edge70" class="edge"><title>Node19&#45;&gt;Node21</title>
<path fill="none" stroke="midnightblue" d="M781,-116.362C781,-108.922 781,-98.7427 781,-89.7276"/>
<polygon fill="midnightblue" stroke="midnightblue" points="784.5,-89.5706 781,-79.5707 777.5,-89.5707 784.5,-89.5706"/>
</g>
<!-- Node23 -->
<g id="node60" class="node"><title>Node23</title>
<a xlink:href="odset_8h.html" target="_top" xlink:title="odset.h">
<polygon fill="white" stroke="black" points="364.5,-464.5 364.5,-485.5 413.5,-485.5 413.5,-464.5 364.5,-464.5"/>
<text text-anchor="middle" x="389" y="-472.5" font-family="Helvetica,sans-Serif" font-size="10.00">odset.h</text>
</a>
</g>
<!-- Node22&#45;&gt;Node23 -->
<g id="edge74" class="edge"><title>Node22&#45;&gt;Node23</title>
<path fill="none" stroke="midnightblue" d="M385.734,-522.362C386.247,-514.922 386.949,-504.743 387.571,-495.728"/>
<polygon fill="midnightblue" stroke="midnightblue" points="391.075,-495.788 388.271,-485.571 384.091,-495.306 391.075,-495.788"/>
</g>
<!-- Node24 -->
<g id="node63" class="node"><title>Node24</title>
<a xlink:href="vectoraccess_8h.html" target="_top" xlink:title="vectoraccess.h">
<polygon fill="white" stroke="black" points="264.5,-464.5 264.5,-485.5 347.5,-485.5 347.5,-464.5 264.5,-464.5"/>
<text text-anchor="middle" x="306" y="-472.5" font-family="Helvetica,sans-Serif" font-size="10.00">vectoraccess.h</text>
</a>
</g>
<!-- Node22&#45;&gt;Node24 -->
<g id="edge78" class="edge"><title>Node22&#45;&gt;Node24</title>
<path fill="none" stroke="midnightblue" d="M370.51,-522.362C358.817,-513.777 342.157,-501.546 328.697,-491.664"/>
<polygon fill="midnightblue" stroke="midnightblue" points="330.53,-488.667 320.398,-485.571 326.387,-494.31 330.53,-488.667"/>
</g>
<!-- Node23&#45;&gt;Node4 -->
<g id="edge76" class="edge"><title>Node23&#45;&gt;Node4</title>
<path fill="none" stroke="midnightblue" d="M401.044,-464.492C421.301,-445.586 460,-403.626 460,-359 460,-359 460,-359 460,-301 460,-265.741 476.051,-227.315 487.289,-204.732"/>
<polygon fill="midnightblue" stroke="midnightblue" points="490.418,-206.301 491.895,-195.809 484.198,-203.09 490.418,-206.301"/>
</g>
<!-- Node24&#45;&gt;Node4 -->
<g id="edge94" class="edge"><title>Node24&#45;&gt;Node4</title>
<path fill="none" stroke="midnightblue" d="M322.899,-464.462C335.68,-455.852 353.017,-442.73 365,-428 426.587,-352.294 413.24,-315.353 464,-232 469.831,-222.424 477.021,-212.288 483.285,-203.891"/>
<polygon fill="midnightblue" stroke="midnightblue" points="486.119,-205.945 489.381,-195.865 480.545,-201.711 486.119,-205.945"/>
</g>
<!-- Node24&#45;&gt;Node8 -->
<g id="edge100" class="edge"><title>Node24&#45;&gt;Node8</title>
<path fill="none" stroke="midnightblue" d="M280.749,-464.41C264.24,-456.427 243.185,-444.098 229,-428 188.097,-381.581 172,-362.869 172,-301 172,-301 172,-301 172,-243 172,-160.25 124.966,-136.548 151,-58 154.468,-47.5357 161.271,-37.5092 167.964,-29.4248"/>
<polygon fill="midnightblue" stroke="midnightblue" points="170.74,-31.5704 174.755,-21.7661 165.502,-26.9263 170.74,-31.5704"/>
</g>
<!-- Node25 -->
<g id="node65" class="node"><title>Node25</title>
<a xlink:href="debug_8h.html" target="_top" xlink:title="debug.h">
<polygon fill="white" stroke="black" points="537.5,-406.5 537.5,-427.5 588.5,-427.5 588.5,-406.5 537.5,-406.5"/>
<text text-anchor="middle" x="563" y="-414.5" font-family="Helvetica,sans-Serif" font-size="10.00">debug.h</text>
</a>
</g>
<!-- Node24&#45;&gt;Node25 -->
<g id="edge80" class="edge"><title>Node24&#45;&gt;Node25</title>
<path fill="none" stroke="midnightblue" d="M347.577,-465.617C397.501,-454.35 480.379,-435.646 527.454,-425.022"/>
<polygon fill="midnightblue" stroke="midnightblue" points="528.507,-428.372 537.491,-422.757 526.966,-421.544 528.507,-428.372"/>
</g>
<!-- Node27 -->
<g id="node75" class="node"><title>Node27</title>
<polygon fill="white" stroke="#bfbfbf" points="300,-406.5 300,-427.5 356,-427.5 356,-406.5 300,-406.5"/>
<text text-anchor="middle" x="328" y="-414.5" font-family="Helvetica,sans-Serif" font-size="10.00">algorithm</text>
</g>
<!-- Node24&#45;&gt;Node27 -->
<g id="edge96" class="edge"><title>Node24&#45;&gt;Node27</title>
<path fill="none" stroke="midnightblue" d="M310.035,-464.362C312.919,-456.758 316.888,-446.294 320.363,-437.135"/>
<polygon fill="midnightblue" stroke="midnightblue" points="323.716,-438.162 323.99,-427.571 317.171,-435.679 323.716,-438.162"/>
</g>
<!-- Node28 -->
<g id="node77" class="node"><title>Node28</title>
<polygon fill="white" stroke="#bfbfbf" points="238,-406.5 238,-427.5 282,-427.5 282,-406.5 238,-406.5"/>
<text text-anchor="middle" x="260" y="-414.5" font-family="Helvetica,sans-Serif" font-size="10.00">vector</text>
</g>
<!-- Node24&#45;&gt;Node28 -->
<g id="edge98" class="edge"><title>Node24&#45;&gt;Node28</title>
<path fill="none" stroke="midnightblue" d="M297.563,-464.362C291.208,-456.35 282.334,-445.161 274.807,-435.67"/>
<polygon fill="midnightblue" stroke="midnightblue" points="277.34,-433.231 268.384,-427.571 271.855,-437.581 277.34,-433.231"/>
</g>
<!-- Node25&#45;&gt;Node2 -->
<g id="edge82" class="edge"><title>Node25&#45;&gt;Node2</title>
<path fill="none" stroke="midnightblue" d="M568.244,-406.304C580.885,-379.501 612,-307.022 612,-243 612,-243 612,-243 612,-185 612,-127.637 612.892,-110.931 635,-58 639.176,-48.0008 645.755,-38.0203 651.943,-29.845"/>
<polygon fill="midnightblue" stroke="midnightblue" points="654.883,-31.7709 658.372,-21.767 649.406,-27.4117 654.883,-31.7709"/>
</g>
<!-- Node25&#45;&gt;Node4 -->
<g id="edge84" class="edge"><title>Node25&#45;&gt;Node4</title>
<path fill="none" stroke="midnightblue" d="M560.088,-406.135C552.413,-377.562 530.917,-297.973 512,-232 509.52,-223.35 506.701,-213.832 504.247,-205.636"/>
<polygon fill="midnightblue" stroke="midnightblue" points="507.522,-204.375 501.288,-195.809 500.819,-206.393 507.522,-204.375"/>
</g>
<!-- Node26 -->
<g id="node69" class="node"><title>Node26</title>
<a xlink:href="bufstring_8h.html" target="_top" xlink:title="bufstring.h">
<polygon fill="white" stroke="black" points="720,-348.5 720,-369.5 782,-369.5 782,-348.5 720,-348.5"/>
<text text-anchor="middle" x="751" y="-356.5" font-family="Helvetica,sans-Serif" font-size="10.00">bufstring.h</text>
</a>
</g>
<!-- Node25&#45;&gt;Node26 -->
<g id="edge86" class="edge"><title>Node25&#45;&gt;Node26</title>
<path fill="none" stroke="midnightblue" d="M588.746,-409.057C620,-399.415 673.093,-383.035 709.998,-371.65"/>
<polygon fill="midnightblue" stroke="midnightblue" points="711.422,-374.873 719.946,-368.581 709.358,-368.184 711.422,-374.873"/>
</g>
<!-- Node26&#45;&gt;Node2 -->
<g id="edge88" class="edge"><title>Node26&#45;&gt;Node2</title>
<path fill="none" stroke="midnightblue" d="M738.027,-348.311C728.165,-339.523 714.975,-326.238 707,-312 691.456,-284.249 688,-274.808 688,-243 688,-243 688,-243 688,-185 688,-129.24 677.738,-64.0813 671.915,-31.6008"/>
<polygon fill="midnightblue" stroke="midnightblue" points="675.317,-30.7455 670.065,-21.5438 668.432,-32.0121 675.317,-30.7455"/>
</g>
<!-- Node26&#45;&gt;Node16 -->
<g id="edge90" class="edge"><title>Node26&#45;&gt;Node16</title>
<path fill="none" stroke="midnightblue" d="M751,-348.362C751,-340.922 751,-330.743 751,-321.728"/>
<polygon fill="midnightblue" stroke="midnightblue" points="754.5,-321.571 751,-311.571 747.5,-321.571 754.5,-321.571"/>
</g>
<!-- Node26&#45;&gt;Node19 -->
<g id="edge92" class="edge"><title>Node26&#45;&gt;Node19</title>
<path fill="none" stroke="midnightblue" d="M765.501,-348.479C775.904,-339.97 789.086,-326.97 795,-312 817.307,-255.531 799.173,-181.918 788.059,-147.025"/>
<polygon fill="midnightblue" stroke="midnightblue" points="791.368,-145.883 784.888,-137.501 784.727,-148.095 791.368,-145.883"/>
</g>
<!-- Node29&#45;&gt;Node1 -->
<g id="edge106" class="edge"><title>Node29&#45;&gt;Node1</title>
<path fill="none" stroke="midnightblue" d="M430.642,-717.571C437.438,-725.402 445.301,-736.295 451.072,-745.667"/>
<polygon fill="midnightblue" stroke="midnightblue" points="448.035,-747.407 456.027,-754.362 454.117,-743.941 448.035,-747.407"/>
</g>
<!-- Node29&#45;&gt;Node2 -->
<g id="edge104" class="edge"><title>Node29&#45;&gt;Node2</title>
<path fill="none" stroke="midnightblue" d="M470.789,-705.267C547.191,-701.739 692.52,-691.18 812,-660 889.706,-639.722 979,-671.308 979,-591 979,-591 979,-591 979,-127 979,-87.2228 956.287,-78.1656 922,-58 887.031,-37.4328 774.619,-22.4611 711.696,-15.4488"/>
<polygon fill="midnightblue" stroke="midnightblue" points="711.991,-11.9603 701.67,-14.3521 711.23,-18.9188 711.991,-11.9603"/>
</g>
<!-- Node29&#45;&gt;Node18 -->
<g id="edge110" class="edge"><title>Node29&#45;&gt;Node18</title>
<path fill="none" stroke="midnightblue" d="M365.189,-699.16C273.838,-684.1 96,-647.523 96,-591 96,-591 96,-591 96,-417 96,-358.196 167.001,-326.625 215.853,-311.862"/>
<polygon fill="midnightblue" stroke="midnightblue" points="216.967,-315.183 225.603,-309.046 215.025,-308.458 216.967,-315.183"/>
</g>
<!-- Node29&#45;&gt;Node26 -->
<g id="edge108" class="edge"><title>Node29&#45;&gt;Node26</title>
<path fill="none" stroke="midnightblue" d="M470.542,-700.876C603.167,-684.711 941,-638.84 941,-591 941,-591 941,-591 941,-475 941,-405.872 848.245,-376.714 792.352,-365.419"/>
<polygon fill="midnightblue" stroke="midnightblue" points="792.854,-361.952 782.375,-363.513 791.54,-368.828 792.854,-361.952"/>
</g>
<!-- Node30 -->
<g id="node86" class="node"><title>Node30</title>
<a xlink:href="callback_8h.html" target="_top" xlink:title="callback.h">
<polygon fill="white" stroke="black" points="350.5,-638.5 350.5,-659.5 411.5,-659.5 411.5,-638.5 350.5,-638.5"/>
<text text-anchor="middle" x="381" y="-646.5" font-family="Helvetica,sans-Serif" font-size="10.00">callback.h</text>
</a>
</g>
<!-- Node29&#45;&gt;Node30 -->
<g id="edge112" class="edge"><title>Node29&#45;&gt;Node30</title>
<path fill="none" stroke="midnightblue" d="M411.214,-696.362C406.207,-688.513 399.255,-677.616 393.282,-668.253"/>
<polygon fill="midnightblue" stroke="midnightblue" points="396.072,-666.119 387.743,-659.571 390.171,-669.884 396.072,-666.119"/>
</g>
<!-- Node36 -->
<g id="node107" class="node"><title>Node36</title>
<a xlink:href="od__iosfwd_8h.html" target="_top" xlink:title="od_iosfwd.h">
<polygon fill="white" stroke="black" points="-0.5,-638.5 -0.5,-659.5 68.5,-659.5 68.5,-638.5 -0.5,-638.5"/>
<text text-anchor="middle" x="34" y="-646.5" font-family="Helvetica,sans-Serif" font-size="10.00">od_iosfwd.h</text>
</a>
</g>
<!-- Node29&#45;&gt;Node36 -->
<g id="edge142" class="edge"><title>Node29&#45;&gt;Node36</title>
<path fill="none" stroke="midnightblue" d="M365.395,-701.067C299.061,-693.258 181.635,-678.35 82,-660 80.907,-659.799 79.8012,-659.589 78.6867,-659.374"/>
<polygon fill="midnightblue" stroke="midnightblue" points="79.0338,-655.872 68.5341,-657.289 77.6257,-662.729 79.0338,-655.872"/>
</g>
<!-- Node30&#45;&gt;Node2 -->
<g id="edge114" class="edge"><title>Node30&#45;&gt;Node2</title>
<path fill="none" stroke="midnightblue" d="M411.641,-644.083C488.985,-630.81 686,-591.281 686,-533 686,-533 686,-533 686,-417 686,-338.029 650,-321.971 650,-243 650,-243 650,-243 650,-185 650,-129.309 659.236,-64.1205 664.476,-31.6175"/>
<polygon fill="midnightblue" stroke="midnightblue" points="667.962,-31.9903 666.141,-21.553 661.056,-30.8476 667.962,-31.9903"/>
</g>
<!-- Node30&#45;&gt;Node18 -->
<g id="edge140" class="edge"><title>Node30&#45;&gt;Node18</title>
<path fill="none" stroke="midnightblue" d="M350.161,-646.05C292.024,-638.612 172,-613.508 172,-533 172,-533 172,-533 172,-475 172,-412.35 218.298,-349.557 244.109,-319.419"/>
<polygon fill="midnightblue" stroke="midnightblue" points="246.821,-321.634 250.791,-311.811 241.562,-317.015 246.821,-321.634"/>
</g>
<!-- Node31 -->
<g id="node89" class="node"><title>Node31</title>
<a xlink:href="refcount_8h.html" target="_top" xlink:title="refcount.h">
<polygon fill="white" stroke="black" points="277,-580.5 277,-601.5 337,-601.5 337,-580.5 277,-580.5"/>
<text text-anchor="middle" x="307" y="-588.5" font-family="Helvetica,sans-Serif" font-size="10.00">refcount.h</text>
</a>
</g>
<!-- Node30&#45;&gt;Node31 -->
<g id="edge116" class="edge"><title>Node30&#45;&gt;Node31</title>
<path fill="none" stroke="midnightblue" d="M367.427,-638.362C356.579,-629.859 341.166,-617.779 328.621,-607.947"/>
<polygon fill="midnightblue" stroke="midnightblue" points="330.516,-604.985 320.487,-601.571 326.198,-610.494 330.516,-604.985"/>
</g>
<!-- Node35 -->
<g id="node102" class="node"><title>Node35</title>
<a xlink:href="sets_8h.html" target="_top" xlink:title="sets.h">
<polygon fill="white" stroke="black" points="359,-580.5 359,-601.5 403,-601.5 403,-580.5 359,-580.5"/>
<text text-anchor="middle" x="381" y="-588.5" font-family="Helvetica,sans-Serif" font-size="10.00">sets.h</text>
</a>
</g>
<!-- Node30&#45;&gt;Node35 -->
<g id="edge134" class="edge"><title>Node30&#45;&gt;Node35</title>
<path fill="none" stroke="midnightblue" d="M381,-638.362C381,-630.922 381,-620.743 381,-611.728"/>
<polygon fill="midnightblue" stroke="midnightblue" points="384.5,-611.571 381,-601.571 377.5,-611.571 384.5,-611.571"/>
</g>
<!-- Node32 -->
<g id="node91" class="node"><title>Node32</title>
<a xlink:href="atomic_8h.html" target="_top" xlink:title="atomic.h">
<polygon fill="white" stroke="black" points="160,-116.5 160,-137.5 214,-137.5 214,-116.5 160,-116.5"/>
<text text-anchor="middle" x="187" y="-124.5" font-family="Helvetica,sans-Serif" font-size="10.00">atomic.h</text>
</a>
</g>
<!-- Node31&#45;&gt;Node32 -->
<g id="edge118" class="edge"><title>Node31&#45;&gt;Node32</title>
<path fill="none" stroke="midnightblue" d="M276.866,-585.184C227.3,-573.676 134,-542.984 134,-475 134,-475 134,-475 134,-243 134,-206.026 156.552,-167.93 172.234,-145.908"/>
<polygon fill="midnightblue" stroke="midnightblue" points="175.122,-147.89 178.248,-137.766 169.491,-143.731 175.122,-147.89"/>
</g>
<!-- Node34 -->
<g id="node98" class="node"><title>Node34</title>
<a xlink:href="objectset_8h.html" target="_top" xlink:title="objectset.h">
<polygon fill="white" stroke="black" points="274.5,-522.5 274.5,-543.5 339.5,-543.5 339.5,-522.5 274.5,-522.5"/>
<text text-anchor="middle" x="307" y="-530.5" font-family="Helvetica,sans-Serif" font-size="10.00">objectset.h</text>
</a>
</g>
<!-- Node31&#45;&gt;Node34 -->
<g id="edge128" class="edge"><title>Node31&#45;&gt;Node34</title>
<path fill="none" stroke="midnightblue" d="M307,-580.362C307,-572.922 307,-562.743 307,-553.728"/>
<polygon fill="midnightblue" stroke="midnightblue" points="310.5,-553.571 307,-543.571 303.5,-553.571 310.5,-553.571"/>
</g>
<!-- Node32&#45;&gt;Node2 -->
<g id="edge120" class="edge"><title>Node32&#45;&gt;Node2</title>
<path fill="none" stroke="midnightblue" d="M196.351,-116.416C210.96,-100.668 240.875,-71.48 273,-58 335.634,-31.7183 535.237,-18.0756 624.332,-13.1661"/>
<polygon fill="midnightblue" stroke="midnightblue" points="624.583,-16.6578 634.38,-12.6238 624.206,-9.66793 624.583,-16.6578"/>
</g>
<!-- Node32&#45;&gt;Node6 -->
<g id="edge122" class="edge"><title>Node32&#45;&gt;Node6</title>
<path fill="none" stroke="midnightblue" d="M214.153,-119.536C248.363,-110.132 307.753,-93.8071 349.764,-82.2593"/>
<polygon fill="midnightblue" stroke="midnightblue" points="350.796,-85.6055 359.51,-79.5801 348.94,-78.8559 350.796,-85.6055"/>
</g>
<!-- Node32&#45;&gt;Node10 -->
<g id="edge124" class="edge"><title>Node32&#45;&gt;Node10</title>
<path fill="none" stroke="midnightblue" d="M209.455,-116.497C228.91,-107.397 257.28,-94.1273 279.091,-83.9253"/>
<polygon fill="midnightblue" stroke="midnightblue" points="280.717,-87.0285 288.293,-79.6212 277.752,-80.6878 280.717,-87.0285"/>
</g>
<!-- Node33 -->
<g id="node96" class="node"><title>Node33</title>
<polygon fill="white" stroke="#bfbfbf" points="159.5,-58.5 159.5,-79.5 226.5,-79.5 226.5,-58.5 159.5,-58.5"/>
<text text-anchor="middle" x="193" y="-66.5" font-family="Helvetica,sans-Serif" font-size="10.00">odversion.h</text>
</g>
<!-- Node32&#45;&gt;Node33 -->
<g id="edge126" class="edge"><title>Node32&#45;&gt;Node33</title>
<path fill="none" stroke="midnightblue" d="M188.1,-116.362C188.87,-108.922 189.923,-98.7427 190.856,-89.7276"/>
<polygon fill="midnightblue" stroke="midnightblue" points="194.359,-89.8777 191.906,-79.5707 187.396,-89.1574 194.359,-89.8777"/>
</g>
<!-- Node34&#45;&gt;Node23 -->
<g id="edge130" class="edge"><title>Node34&#45;&gt;Node23</title>
<path fill="none" stroke="midnightblue" d="M322.04,-522.362C334.293,-513.696 351.799,-501.313 365.839,-491.382"/>
<polygon fill="midnightblue" stroke="midnightblue" points="367.912,-494.203 374.055,-485.571 363.87,-488.488 367.912,-494.203"/>
</g>
<!-- Node34&#45;&gt;Node24 -->
<g id="edge132" class="edge"><title>Node34&#45;&gt;Node24</title>
<path fill="none" stroke="midnightblue" d="M306.817,-522.362C306.688,-514.922 306.513,-504.743 306.357,-495.728"/>
<polygon fill="midnightblue" stroke="midnightblue" points="309.854,-495.509 306.182,-485.571 302.855,-495.63 309.854,-495.509"/>
</g>
<!-- Node35&#45;&gt;Node22 -->
<g id="edge136" class="edge"><title>Node35&#45;&gt;Node22</title>
<path fill="none" stroke="midnightblue" d="M381.734,-580.362C382.247,-572.922 382.949,-562.743 383.571,-553.728"/>
<polygon fill="midnightblue" stroke="midnightblue" points="387.075,-553.788 384.271,-543.571 380.091,-553.306 387.075,-553.788"/>
</g>
<!-- Node35&#45;&gt;Node34 -->
<g id="edge138" class="edge"><title>Node35&#45;&gt;Node34</title>
<path fill="none" stroke="midnightblue" d="M367.427,-580.362C356.579,-571.859 341.166,-559.779 328.621,-549.947"/>
<polygon fill="midnightblue" stroke="midnightblue" points="330.516,-546.985 320.487,-543.571 326.198,-552.494 330.516,-546.985"/>
</g>
</g>
</svg>
