<?xml version="1.0" encoding="UTF-8" standalone="no"?>
<!DOCTYPE svg PUBLIC "-//W3C//DTD SVG 1.1//EN"
 "http://www.w3.org/Graphics/SVG/1.1/DTD/svg11.dtd">
<!-- Generated by graphviz version 2.26.0 (20091210.2329)
 -->
<!-- Title: progressmeterimpl.h Pages: 1 -->
<svg width="4772pt" height="262pt"
 viewBox="0.00 0.00 4772.00 262.00" xmlns="http://www.w3.org/2000/svg" xmlns:xlink="http://www.w3.org/1999/xlink">
<g id="graph1" class="graph" transform="scale(1 1) rotate(0) translate(4 258)">
<title>progressmeterimpl.h</title>
<polygon fill="white" stroke="white" points="-4,5 -4,-258 4769,-258 4769,5 -4,5"/>
<!-- Node1 -->
<g id="node1" class="node"><title>Node1</title>
<polygon fill="#bfbfbf" stroke="black" points="2370.5,-232.5 2370.5,-253.5 2475.5,-253.5 2475.5,-232.5 2370.5,-232.5"/>
<text text-anchor="middle" x="2423" y="-240.5" font-family="Helvetica,sans-Serif" font-size="10.00">progressmeterimpl.h</text>
</g>
<!-- Node2 -->
<g id="node3" class="node"><title>Node2</title>
<a xlink:href="progressmeter_8h.html" target="_top" xlink:title="progressmeter.h">
<polygon fill="white" stroke="black" points="2379.5,-174.5 2379.5,-195.5 2466.5,-195.5 2466.5,-174.5 2379.5,-174.5"/>
<text text-anchor="middle" x="2423" y="-182.5" font-family="Helvetica,sans-Serif" font-size="10.00">progressmeter.h</text>
</a>
</g>
<!-- Node1&#45;&gt;Node2 -->
<g id="edge2" class="edge"><title>Node1&#45;&gt;Node2</title>
<path fill="none" stroke="midnightblue" d="M2416.5,-222.191C2415.94,-213.168 2416.33,-202.994 2417.65,-195.571"/>
<polygon fill="midnightblue" stroke="midnightblue" points="2413.04,-222.814 2417.64,-232.362 2420,-222.034 2413.04,-222.814"/>
</g>
<!-- Node2&#45;&gt;Node1 -->
<g id="edge104" class="edge"><title>Node2&#45;&gt;Node1</title>
<path fill="none" stroke="midnightblue" d="M2429.5,-205.728C2430.06,-214.743 2429.68,-224.922 2428.36,-232.362"/>
<polygon fill="midnightblue" stroke="midnightblue" points="2432.95,-205.114 2428.35,-195.571 2426,-205.9 2432.95,-205.114"/>
</g>
<!-- Node3 -->
<g id="node5" class="node"><title>Node3</title>
<a xlink:href="executor_8h.html" target="_top" xlink:title="executor.h">
<polygon fill="white" stroke="red" points="2392,-116.5 2392,-137.5 2454,-137.5 2454,-116.5 2392,-116.5"/>
<text text-anchor="middle" x="2423" y="-124.5" font-family="Helvetica,sans-Serif" font-size="10.00">executor.h</text>
</a>
</g>
<!-- Node2&#45;&gt;Node3 -->
<g id="edge4" class="edge"><title>Node2&#45;&gt;Node3</title>
<path fill="none" stroke="midnightblue" d="M2423,-164.191C2423,-155.168 2423,-144.994 2423,-137.571"/>
<polygon fill="midnightblue" stroke="midnightblue" points="2419.5,-164.362 2423,-174.362 2426.5,-164.362 2419.5,-164.362"/>
</g>
<!-- Node4 -->
<g id="node7" class="node"><title>Node4</title>
<a xlink:href="array1dinterpol_8h.html" target="_top" xlink:title="array1dinterpol.h">
<polygon fill="white" stroke="black" points="-0.5,-58.5 -0.5,-79.5 88.5,-79.5 88.5,-58.5 -0.5,-58.5"/>
<text text-anchor="middle" x="44" y="-66.5" font-family="Helvetica,sans-Serif" font-size="10.00">array1dinterpol.h</text>
</a>
</g>
<!-- Node3&#45;&gt;Node4 -->
<g id="edge6" class="edge"><title>Node3&#45;&gt;Node4</title>
<path fill="none" stroke="midnightblue" d="M2381.43,-126.622C2087.89,-123.896 332.27,-106.562 97,-80 94.2919,-79.6943 91.5173,-79.3166 88.7259,-78.8873"/>
<polygon fill="midnightblue" stroke="midnightblue" points="2381.61,-130.124 2391.64,-126.717 2381.67,-123.124 2381.61,-130.124"/>
</g>
<!-- Node5 -->
<g id="node9" class="node"><title>Node5</title>
<a xlink:href="arrayndsmoother_8h.html" target="_top" xlink:title="arrayndsmoother.h">
<polygon fill="white" stroke="black" points="106,-58.5 106,-79.5 204,-79.5 204,-58.5 106,-58.5"/>
<text text-anchor="middle" x="155" y="-66.5" font-family="Helvetica,sans-Serif" font-size="10.00">arrayndsmoother.h</text>
</a>
</g>
<!-- Node3&#45;&gt;Node5 -->
<g id="edge8" class="edge"><title>Node3&#45;&gt;Node5</title>
<path fill="none" stroke="midnightblue" d="M2381.31,-126.531C2095.98,-123.266 436.157,-103.37 213,-80 210.146,-79.7011 207.222,-79.336 204.279,-78.9227"/>
<polygon fill="midnightblue" stroke="midnightblue" points="2381.59,-130.034 2391.62,-126.649 2381.67,-123.035 2381.59,-130.034"/>
</g>
<!-- Node6 -->
<g id="node11" class="node"><title>Node6</title>
<a xlink:href="linsolv_8h.html" target="_top" xlink:title="linsolv.h">
<polygon fill="white" stroke="red" points="221.5,-58.5 221.5,-79.5 274.5,-79.5 274.5,-58.5 221.5,-58.5"/>
<text text-anchor="middle" x="248" y="-66.5" font-family="Helvetica,sans-Serif" font-size="10.00">linsolv.h</text>
</a>
</g>
<!-- Node3&#45;&gt;Node6 -->
<g id="edge10" class="edge"><title>Node3&#45;&gt;Node6</title>
<path fill="none" stroke="midnightblue" d="M2381.71,-126.794C2102.65,-125.309 497.159,-115.272 283,-80 280.235,-79.5446 277.386,-78.9207 274.564,-78.1998"/>
<polygon fill="midnightblue" stroke="midnightblue" points="2381.79,-130.294 2391.81,-126.847 2381.83,-123.294 2381.79,-130.294"/>
</g>
<!-- Node7 -->
<g id="node13" class="node"><title>Node7</title>
<a xlink:href="array2dfilter_8h.html" target="_top" xlink:title="array2dfilter.h">
<polygon fill="white" stroke="red" points="292,-58.5 292,-79.5 368,-79.5 368,-58.5 292,-58.5"/>
<text text-anchor="middle" x="330" y="-66.5" font-family="Helvetica,sans-Serif" font-size="10.00">array2dfilter.h</text>
</a>
</g>
<!-- Node3&#45;&gt;Node7 -->
<g id="edge12" class="edge"><title>Node3&#45;&gt;Node7</title>
<path fill="none" stroke="midnightblue" d="M2381.44,-126.562C2108.92,-123.625 582.322,-106.099 377,-80 374.09,-79.6301 371.098,-79.1558 368.099,-78.6125"/>
<polygon fill="midnightblue" stroke="midnightblue" points="2381.64,-130.065 2391.68,-126.672 2381.72,-123.065 2381.64,-130.065"/>
</g>
<!-- Node8 -->
<g id="node15" class="node"><title>Node8</title>
<a xlink:href="tableconv_8h.html" target="_top" xlink:title="tableconv.h">
<polygon fill="white" stroke="red" points="385.5,-58.5 385.5,-79.5 452.5,-79.5 452.5,-58.5 385.5,-58.5"/>
<text text-anchor="middle" x="419" y="-66.5" font-family="Helvetica,sans-Serif" font-size="10.00">tableconv.h</text>
</a>
</g>
<!-- Node3&#45;&gt;Node8 -->
<g id="edge14" class="edge"><title>Node3&#45;&gt;Node8</title>
<path fill="none" stroke="midnightblue" d="M2381.49,-126.584C2115.66,-123.846 657.129,-107.649 461,-80 458.313,-79.6212 455.551,-79.1314 452.789,-78.5693"/>
<polygon fill="midnightblue" stroke="midnightblue" points="2381.81,-130.088 2391.85,-126.69 2381.88,-123.088 2381.81,-130.088"/>
</g>
<!-- Node9 -->
<g id="node17" class="node"><title>Node9</title>
<a xlink:href="ziputils_8h.html" target="_top" xlink:title="ziputils.h">
<polygon fill="white" stroke="black" points="470,-58.5 470,-79.5 526,-79.5 526,-58.5 470,-58.5"/>
<text text-anchor="middle" x="498" y="-66.5" font-family="Helvetica,sans-Serif" font-size="10.00">ziputils.h</text>
</a>
</g>
<!-- Node3&#45;&gt;Node9 -->
<g id="edge16" class="edge"><title>Node3&#45;&gt;Node9</title>
<path fill="none" stroke="midnightblue" d="M2381.81,-126.627C2122.7,-124.193 722.96,-109.742 535,-80 532.088,-79.5392 529.083,-78.9118 526.105,-78.1887"/>
<polygon fill="midnightblue" stroke="midnightblue" points="2381.89,-130.128 2391.92,-126.721 2381.95,-123.128 2381.89,-130.128"/>
</g>
<!-- Node10 -->
<g id="node19" class="node"><title>Node10</title>
<a xlink:href="stratlaymodgen_8h.html" target="_top" xlink:title="stratlaymodgen.h">
<polygon fill="white" stroke="black" points="544,-58.5 544,-79.5 636,-79.5 636,-58.5 544,-58.5"/>
<text text-anchor="middle" x="590" y="-66.5" font-family="Helvetica,sans-Serif" font-size="10.00">stratlaymodgen.h</text>
</a>
</g>
<!-- Node3&#45;&gt;Node10 -->
<g id="edge18" class="edge"><title>Node3&#45;&gt;Node10</title>
<path fill="none" stroke="midnightblue" d="M2381.78,-126.868C2149.05,-125.978 997.455,-119.609 645,-80 642.097,-79.6738 639.119,-79.2729 636.124,-78.8194"/>
<polygon fill="midnightblue" stroke="midnightblue" points="2381.84,-130.368 2391.85,-126.905 2381.86,-123.368 2381.84,-130.368"/>
</g>
<!-- Node11 -->
<g id="node21" class="node"><title>Node11</title>
<a xlink:href="stratlayseqattribcalc_8h.html" target="_top" xlink:title="stratlayseqattribcalc.h">
<polygon fill="white" stroke="black" points="653.5,-58.5 653.5,-79.5 766.5,-79.5 766.5,-58.5 653.5,-58.5"/>
<text text-anchor="middle" x="710" y="-66.5" font-family="Helvetica,sans-Serif" font-size="10.00">stratlayseqattribcalc.h</text>
</a>
</g>
<!-- Node3&#45;&gt;Node11 -->
<g id="edge20" class="edge"><title>Node3&#45;&gt;Node11</title>
<path fill="none" stroke="midnightblue" d="M2381.68,-126.602C2159.08,-124.338 1100.63,-112.04 775,-80 772.266,-79.731 769.474,-79.4158 766.658,-79.0654"/>
<polygon fill="midnightblue" stroke="midnightblue" points="2381.91,-130.104 2391.94,-126.705 2381.98,-123.105 2381.91,-130.104"/>
</g>
<!-- Node12 -->
<g id="node23" class="node"><title>Node12</title>
<a xlink:href="odnetworkaccess_8h.html" target="_top" xlink:title="odnetworkaccess.h">
<polygon fill="white" stroke="red" points="783.5,-58.5 783.5,-79.5 884.5,-79.5 884.5,-58.5 783.5,-58.5"/>
<text text-anchor="middle" x="834" y="-66.5" font-family="Helvetica,sans-Serif" font-size="10.00">odnetworkaccess.h</text>
</a>
</g>
<!-- Node3&#45;&gt;Node12 -->
<g id="edge22" class="edge"><title>Node3&#45;&gt;Node12</title>
<path fill="none" stroke="midnightblue" d="M2381.6,-126.589C2168.51,-124.344 1193.59,-112.444 893,-80 890.307,-79.7093 887.552,-79.3642 884.776,-78.9787"/>
<polygon fill="midnightblue" stroke="midnightblue" points="2381.7,-130.09 2391.74,-126.695 2381.77,-123.091 2381.7,-130.09"/>
</g>
<!-- Node13 -->
<g id="node25" class="node"><title>Node13</title>
<a xlink:href="geom2dintersections_8h.html" target="_top" xlink:title="geom2dintersections.h">
<polygon fill="white" stroke="red" points="901.5,-58.5 901.5,-79.5 1016.5,-79.5 1016.5,-58.5 901.5,-58.5"/>
<text text-anchor="middle" x="959" y="-66.5" font-family="Helvetica,sans-Serif" font-size="10.00">geom2dintersections.h</text>
</a>
</g>
<!-- Node3&#45;&gt;Node13 -->
<g id="edge24" class="edge"><title>Node3&#45;&gt;Node13</title>
<path fill="none" stroke="midnightblue" d="M2381.7,-126.346C2180.12,-123.039 1298.31,-107.25 1025,-80 1022.23,-79.7234 1019.39,-79.402 1016.53,-79.0466"/>
<polygon fill="midnightblue" stroke="midnightblue" points="2381.8,-129.848 2391.86,-126.511 2381.91,-122.849 2381.8,-129.848"/>
</g>
<!-- Node14 -->
<g id="node27" class="node"><title>Node14</title>
<a xlink:href="emhor2dto3d_8h.html" target="_top" xlink:title="emhor2dto3d.h">
<polygon fill="white" stroke="black" points="1033.5,-58.5 1033.5,-79.5 1114.5,-79.5 1114.5,-58.5 1033.5,-58.5"/>
<text text-anchor="middle" x="1074" y="-66.5" font-family="Helvetica,sans-Serif" font-size="10.00">emhor2dto3d.h</text>
</a>
</g>
<!-- Node3&#45;&gt;Node14 -->
<g id="edge26" class="edge"><title>Node3&#45;&gt;Node14</title>
<path fill="none" stroke="midnightblue" d="M2381.79,-126.535C2189.03,-124.202 1375.1,-112.57 1123,-80 1120.23,-79.6425 1117.39,-79.2025 1114.54,-78.7063"/>
<polygon fill="midnightblue" stroke="midnightblue" points="2381.75,-130.034 2391.79,-126.654 2381.84,-123.035 2381.75,-130.034"/>
</g>
<!-- Node15 -->
<g id="node29" class="node"><title>Node15</title>
<a xlink:href="emhorizonztransformer_8h.html" target="_top" xlink:title="emhorizonztransformer.h">
<polygon fill="white" stroke="black" points="1131.5,-58.5 1131.5,-79.5 1256.5,-79.5 1256.5,-58.5 1131.5,-58.5"/>
<text text-anchor="middle" x="1194" y="-66.5" font-family="Helvetica,sans-Serif" font-size="10.00">emhorizonztransformer.h</text>
</a>
</g>
<!-- Node3&#45;&gt;Node15 -->
<g id="edge28" class="edge"><title>Node3&#45;&gt;Node15</title>
<path fill="none" stroke="midnightblue" d="M2381.8,-125.954C2202.41,-121.305 1488.47,-101.775 1265,-80 1262.27,-79.7339 1259.48,-79.4322 1256.67,-79.1032"/>
<polygon fill="midnightblue" stroke="midnightblue" points="2381.79,-129.455 2391.87,-126.214 2381.97,-122.457 2381.79,-129.455"/>
</g>
<!-- Node16 -->
<g id="node31" class="node"><title>Node16</title>
<a xlink:href="emsticksettransl_8h.html" target="_top" xlink:title="emsticksettransl.h">
<polygon fill="white" stroke="black" points="1273.5,-58.5 1273.5,-79.5 1370.5,-79.5 1370.5,-58.5 1273.5,-58.5"/>
<text text-anchor="middle" x="1322" y="-66.5" font-family="Helvetica,sans-Serif" font-size="10.00">emsticksettransl.h</text>
</a>
</g>
<!-- Node3&#45;&gt;Node16 -->
<g id="edge30" class="edge"><title>Node3&#45;&gt;Node16</title>
<path fill="none" stroke="midnightblue" d="M2381.54,-125.941C2212.95,-121.512 1578.32,-103.592 1379,-80 1376.3,-79.6801 1373.53,-79.3054 1370.74,-78.8909"/>
<polygon fill="midnightblue" stroke="midnightblue" points="2381.65,-129.445 2391.74,-126.208 2381.83,-122.448 2381.65,-129.445"/>
</g>
<!-- Node17 -->
<g id="node33" class="node"><title>Node17</title>
<a xlink:href="emsurfaceio_8h.html" target="_top" xlink:title="emsurfaceio.h">
<polygon fill="white" stroke="black" points="1388,-58.5 1388,-79.5 1466,-79.5 1466,-58.5 1388,-58.5"/>
<text text-anchor="middle" x="1427" y="-66.5" font-family="Helvetica,sans-Serif" font-size="10.00">emsurfaceio.h</text>
</a>
</g>
<!-- Node3&#45;&gt;Node17 -->
<g id="edge32" class="edge"><title>Node3&#45;&gt;Node17</title>
<path fill="none" stroke="midnightblue" d="M2381.51,-125.914C2222.81,-121.611 1654.11,-104.767 1475,-80 1472.12,-79.6018 1469.16,-79.1154 1466.19,-78.5712"/>
<polygon fill="midnightblue" stroke="midnightblue" points="2381.7,-129.421 2391.8,-126.191 2381.89,-122.423 2381.7,-129.421"/>
</g>
<!-- Node18 -->
<g id="node35" class="node"><title>Node18</title>
<a xlink:href="emsurfauxdataio_8h.html" target="_top" xlink:title="emsurfauxdataio.h">
<polygon fill="white" stroke="black" points="1483.5,-58.5 1483.5,-79.5 1580.5,-79.5 1580.5,-58.5 1483.5,-58.5"/>
<text text-anchor="middle" x="1532" y="-66.5" font-family="Helvetica,sans-Serif" font-size="10.00">emsurfauxdataio.h</text>
</a>
</g>
<!-- Node3&#45;&gt;Node18 -->
<g id="edge34" class="edge"><title>Node3&#45;&gt;Node18</title>
<path fill="none" stroke="midnightblue" d="M2381.81,-126.634C2260.11,-125.132 1891.76,-117.572 1589,-80 1586.3,-79.6649 1583.53,-79.2781 1580.75,-78.8542"/>
<polygon fill="midnightblue" stroke="midnightblue" points="2381.77,-130.133 2391.81,-126.75 2381.86,-123.134 2381.77,-130.133"/>
</g>
<!-- Node19 -->
<g id="node37" class="node"><title>Node19</title>
<a xlink:href="faulttrace_8h.html" target="_top" xlink:title="faulttrace.h">
<polygon fill="white" stroke="red" points="1597.5,-58.5 1597.5,-79.5 1662.5,-79.5 1662.5,-58.5 1597.5,-58.5"/>
<text text-anchor="middle" x="1630" y="-66.5" font-family="Helvetica,sans-Serif" font-size="10.00">faulttrace.h</text>
</a>
</g>
<!-- Node3&#45;&gt;Node19 -->
<g id="edge36" class="edge"><title>Node3&#45;&gt;Node19</title>
<path fill="none" stroke="midnightblue" d="M2381.8,-125.511C2245.46,-120.412 1809.71,-102.708 1671,-80 1668.24,-79.5476 1665.39,-78.9871 1662.55,-78.3606"/>
<polygon fill="midnightblue" stroke="midnightblue" points="2381.72,-129.01 2391.84,-125.883 2381.98,-122.015 2381.72,-129.01"/>
</g>
<!-- Node20 -->
<g id="node39" class="node"><title>Node20</title>
<a xlink:href="horizonscanner_8h.html" target="_top" xlink:title="horizonscanner.h">
<polygon fill="white" stroke="black" points="1679.5,-58.5 1679.5,-79.5 1770.5,-79.5 1770.5,-58.5 1679.5,-58.5"/>
<text text-anchor="middle" x="1725" y="-66.5" font-family="Helvetica,sans-Serif" font-size="10.00">horizonscanner.h</text>
</a>
</g>
<!-- Node3&#45;&gt;Node20 -->
<g id="edge38" class="edge"><title>Node3&#45;&gt;Node20</title>
<path fill="none" stroke="midnightblue" d="M2381.44,-125.811C2278.76,-122.474 2005.05,-111.141 1779,-80 1776.25,-79.6213 1773.43,-79.1873 1770.59,-78.7153"/>
<polygon fill="midnightblue" stroke="midnightblue" points="2381.58,-129.317 2391.69,-126.136 2381.8,-122.321 2381.58,-129.317"/>
</g>
<!-- Node21 -->
<g id="node41" class="node"><title>Node21</title>
<a xlink:href="horizonsorter_8h.html" target="_top" xlink:title="horizonsorter.h">
<polygon fill="white" stroke="black" points="1787.5,-58.5 1787.5,-79.5 1868.5,-79.5 1868.5,-58.5 1787.5,-58.5"/>
<text text-anchor="middle" x="1828" y="-66.5" font-family="Helvetica,sans-Serif" font-size="10.00">horizonsorter.h</text>
</a>
</g>
<!-- Node3&#45;&gt;Node21 -->
<g id="edge40" class="edge"><title>Node3&#45;&gt;Node21</title>
<path fill="none" stroke="midnightblue" d="M2381.51,-125.341C2289.97,-121.264 2063.99,-108.902 1877,-80 1874.24,-79.5738 1871.41,-79.0823 1868.56,-78.5485"/>
<polygon fill="midnightblue" stroke="midnightblue" points="2381.59,-128.848 2391.74,-125.787 2381.9,-121.855 2381.59,-128.848"/>
</g>
<!-- Node22 -->
<g id="node43" class="node"><title>Node22</title>
<a xlink:href="lmkemfaulttransl_8h.html" target="_top" xlink:title="lmkemfaulttransl.h">
<polygon fill="white" stroke="black" points="1885.5,-58.5 1885.5,-79.5 1982.5,-79.5 1982.5,-58.5 1885.5,-58.5"/>
<text text-anchor="middle" x="1934" y="-66.5" font-family="Helvetica,sans-Serif" font-size="10.00">lmkemfaulttransl.h</text>
</a>
</g>
<!-- Node3&#45;&gt;Node22 -->
<g id="edge42" class="edge"><title>Node3&#45;&gt;Node22</title>
<path fill="none" stroke="midnightblue" d="M2381.75,-123.65C2304.71,-117.142 2133.86,-101.518 1991,-80 1988.31,-79.5947 1985.55,-79.1525 1982.77,-78.6858"/>
<polygon fill="midnightblue" stroke="midnightblue" points="2381.72,-127.16 2391.98,-124.508 2382.31,-120.185 2381.72,-127.16"/>
</g>
<!-- Node23 -->
<g id="node45" class="node"><title>Node23</title>
<a xlink:href="wellextractdata_8h.html" target="_top" xlink:title="wellextractdata.h">
<polygon fill="white" stroke="red" points="1999.5,-58.5 1999.5,-79.5 2090.5,-79.5 2090.5,-58.5 1999.5,-58.5"/>
<text text-anchor="middle" x="2045" y="-66.5" font-family="Helvetica,sans-Serif" font-size="10.00">wellextractdata.h</text>
</a>
</g>
<!-- Node3&#45;&gt;Node23 -->
<g id="edge44" class="edge"><title>Node3&#45;&gt;Node23</title>
<path fill="none" stroke="midnightblue" d="M2381.51,-121.75C2319.76,-113.763 2200.1,-97.6157 2099,-80 2096.27,-79.5237 2093.46,-79.0142 2090.63,-78.4851"/>
<polygon fill="midnightblue" stroke="midnightblue" points="2381.26,-125.247 2391.63,-123.053 2382.16,-118.304 2381.26,-125.247"/>
</g>
<!-- Node24 -->
<g id="node47" class="node"><title>Node24</title>
<a xlink:href="jobrunner_8h.html" target="_top" xlink:title="jobrunner.h">
<polygon fill="white" stroke="black" points="2107.5,-58.5 2107.5,-79.5 2172.5,-79.5 2172.5,-58.5 2107.5,-58.5"/>
<text text-anchor="middle" x="2140" y="-66.5" font-family="Helvetica,sans-Serif" font-size="10.00">jobrunner.h</text>
</a>
</g>
<!-- Node3&#45;&gt;Node24 -->
<g id="edge46" class="edge"><title>Node3&#45;&gt;Node24</title>
<path fill="none" stroke="midnightblue" d="M2381.85,-119.917C2333.54,-111.394 2251.13,-96.1956 2181,-80 2178.27,-79.3698 2175.45,-78.6843 2172.62,-77.9739"/>
<polygon fill="midnightblue" stroke="midnightblue" points="2381.46,-123.402 2391.91,-121.683 2382.67,-116.507 2381.46,-123.402"/>
</g>
<!-- Node25 -->
<g id="node49" class="node"><title>Node25</title>
<a xlink:href="seis2dlineio_8h.html" target="_top" xlink:title="seis2dlineio.h">
<polygon fill="white" stroke="red" points="2190,-58.5 2190,-79.5 2266,-79.5 2266,-58.5 2190,-58.5"/>
<text text-anchor="middle" x="2228" y="-66.5" font-family="Helvetica,sans-Serif" font-size="10.00">seis2dlineio.h</text>
</a>
</g>
<!-- Node3&#45;&gt;Node25 -->
<g id="edge48" class="edge"><title>Node3&#45;&gt;Node25</title>
<path fill="none" stroke="midnightblue" d="M2381.75,-114.73C2346.69,-104.301 2296.87,-89.4857 2263.55,-79.5733"/>
<polygon fill="midnightblue" stroke="midnightblue" points="2381.09,-118.185 2391.67,-117.681 2383.08,-111.476 2381.09,-118.185"/>
</g>
<!-- Node26 -->
<g id="node51" class="node"><title>Node26</title>
<a xlink:href="segydirectdef_8h.html" target="_top" xlink:title="segydirectdef.h">
<polygon fill="white" stroke="black" points="2283.5,-58.5 2283.5,-79.5 2366.5,-79.5 2366.5,-58.5 2283.5,-58.5"/>
<text text-anchor="middle" x="2325" y="-66.5" font-family="Helvetica,sans-Serif" font-size="10.00">segydirectdef.h</text>
</a>
</g>
<!-- Node3&#45;&gt;Node26 -->
<g id="edge50" class="edge"><title>Node3&#45;&gt;Node26</title>
<path fill="none" stroke="midnightblue" d="M2396.14,-111.101C2379.18,-101.066 2357.75,-88.3808 2342.86,-79.5707"/>
<polygon fill="midnightblue" stroke="midnightblue" points="2394.64,-114.281 2405.03,-116.362 2398.2,-108.257 2394.64,-114.281"/>
</g>
<!-- Node27 -->
<g id="node53" class="node"><title>Node27</title>
<a xlink:href="segyresorter_8h.html" target="_top" xlink:title="segyresorter.h">
<polygon fill="white" stroke="black" points="2383.5,-58.5 2383.5,-79.5 2462.5,-79.5 2462.5,-58.5 2383.5,-58.5"/>
<text text-anchor="middle" x="2423" y="-66.5" font-family="Helvetica,sans-Serif" font-size="10.00">segyresorter.h</text>
</a>
</g>
<!-- Node3&#45;&gt;Node27 -->
<g id="edge52" class="edge"><title>Node3&#45;&gt;Node27</title>
<path fill="none" stroke="midnightblue" d="M2423,-106.191C2423,-97.1684 2423,-86.9941 2423,-79.5707"/>
<polygon fill="midnightblue" stroke="midnightblue" points="2419.5,-106.362 2423,-116.362 2426.5,-106.362 2419.5,-106.362"/>
</g>
<!-- Node28 -->
<g id="node55" class="node"><title>Node28</title>
<a xlink:href="segyscanner_8h.html" target="_top" xlink:title="segyscanner.h">
<polygon fill="white" stroke="black" points="2480,-58.5 2480,-79.5 2560,-79.5 2560,-58.5 2480,-58.5"/>
<text text-anchor="middle" x="2520" y="-66.5" font-family="Helvetica,sans-Serif" font-size="10.00">segyscanner.h</text>
</a>
</g>
<!-- Node3&#45;&gt;Node28 -->
<g id="edge54" class="edge"><title>Node3&#45;&gt;Node28</title>
<path fill="none" stroke="midnightblue" d="M2449.59,-111.101C2466.37,-101.066 2487.59,-88.3808 2502.32,-79.5707"/>
<polygon fill="midnightblue" stroke="midnightblue" points="2447.58,-108.226 2440.79,-116.362 2451.17,-114.234 2447.58,-108.226"/>
</g>
<!-- Node29 -->
<g id="node57" class="node"><title>Node29</title>
<a xlink:href="seis2dlinemerge_8h.html" target="_top" xlink:title="seis2dlinemerge.h">
<polygon fill="white" stroke="black" points="2577.5,-58.5 2577.5,-79.5 2672.5,-79.5 2672.5,-58.5 2577.5,-58.5"/>
<text text-anchor="middle" x="2625" y="-66.5" font-family="Helvetica,sans-Serif" font-size="10.00">seis2dlinemerge.h</text>
</a>
</g>
<!-- Node3&#45;&gt;Node29 -->
<g id="edge56" class="edge"><title>Node3&#45;&gt;Node29</title>
<path fill="none" stroke="midnightblue" d="M2463.94,-115.245C2500.41,-104.774 2553.27,-89.5947 2588.37,-79.5183"/>
<polygon fill="midnightblue" stroke="midnightblue" points="2462.77,-111.941 2454.12,-118.065 2464.7,-118.669 2462.77,-111.941"/>
</g>
<!-- Node30 -->
<g id="node59" class="node"><title>Node30</title>
<a xlink:href="seis2dto3d_8h.html" target="_top" xlink:title="seis2dto3d.h">
<polygon fill="white" stroke="black" points="2665,-0.5 2665,-21.5 2737,-21.5 2737,-0.5 2665,-0.5"/>
<text text-anchor="middle" x="2701" y="-8.5" font-family="Helvetica,sans-Serif" font-size="10.00">seis2dto3d.h</text>
</a>
</g>
<!-- Node3&#45;&gt;Node30 -->
<g id="edge58" class="edge"><title>Node3&#45;&gt;Node30</title>
<path fill="none" stroke="midnightblue" d="M2464.61,-124.652C2529.3,-120.163 2649.79,-108.18 2681,-80 2697.66,-64.9547 2700.78,-36.9543 2701.16,-21.6551"/>
<polygon fill="midnightblue" stroke="midnightblue" points="2464.1,-121.178 2454.35,-125.333 2464.56,-128.163 2464.1,-121.178"/>
</g>
<!-- Node31 -->
<g id="node61" class="node"><title>Node31</title>
<a xlink:href="seisbuf_8h.html" target="_top" xlink:title="seisbuf.h">
<polygon fill="white" stroke="red" points="2728,-58.5 2728,-79.5 2784,-79.5 2784,-58.5 2728,-58.5"/>
<text text-anchor="middle" x="2756" y="-66.5" font-family="Helvetica,sans-Serif" font-size="10.00">seisbuf.h</text>
</a>
</g>
<!-- Node3&#45;&gt;Node31 -->
<g id="edge60" class="edge"><title>Node3&#45;&gt;Node31</title>
<path fill="none" stroke="midnightblue" d="M2464.18,-121.619C2520.77,-113.936 2625.62,-98.6662 2714,-80 2718.42,-79.0655 2723.08,-77.9647 2727.62,-76.8271"/>
<polygon fill="midnightblue" stroke="midnightblue" points="2463.63,-118.161 2454.19,-122.964 2464.57,-125.098 2463.63,-118.161"/>
</g>
<!-- Node32 -->
<g id="node64" class="node"><title>Node32</title>
<a xlink:href="seis2dto3dinterpol_8h.html" target="_top" xlink:title="seis2dto3dinterpol.h">
<polygon fill="white" stroke="black" points="2758,-0.5 2758,-21.5 2862,-21.5 2862,-0.5 2758,-0.5"/>
<text text-anchor="middle" x="2810" y="-8.5" font-family="Helvetica,sans-Serif" font-size="10.00">seis2dto3dinterpol.h</text>
</a>
</g>
<!-- Node3&#45;&gt;Node32 -->
<g id="edge66" class="edge"><title>Node3&#45;&gt;Node32</title>
<path fill="none" stroke="midnightblue" d="M2464.18,-124.377C2555.48,-118.196 2768.76,-101.594 2793,-80 2809.58,-65.2272 2811.25,-37.1161 2810.78,-21.7271"/>
<polygon fill="midnightblue" stroke="midnightblue" points="2463.93,-120.886 2454.19,-125.045 2464.4,-127.87 2463.93,-120.886"/>
</g>
<!-- Node33 -->
<g id="node67" class="node"><title>Node33</title>
<a xlink:href="seisbayesclass_8h.html" target="_top" xlink:title="seisbayesclass.h">
<polygon fill="white" stroke="black" points="2840,-58.5 2840,-79.5 2932,-79.5 2932,-58.5 2840,-58.5"/>
<text text-anchor="middle" x="2886" y="-66.5" font-family="Helvetica,sans-Serif" font-size="10.00">seisbayesclass.h</text>
</a>
</g>
<!-- Node3&#45;&gt;Node33 -->
<g id="edge68" class="edge"><title>Node3&#45;&gt;Node33</title>
<path fill="none" stroke="midnightblue" d="M2464.36,-123.076C2537.5,-115.935 2694.37,-99.7205 2826,-80 2830.5,-79.3253 2835.19,-78.5669 2839.86,-77.772"/>
<polygon fill="midnightblue" stroke="midnightblue" points="2463.8,-119.613 2454.19,-124.062 2464.48,-126.58 2463.8,-119.613"/>
</g>
<!-- Node34 -->
<g id="node69" class="node"><title>Node34</title>
<a xlink:href="seiscbvsimpfromothersurv_8h.html" target="_top" xlink:title="seiscbvsimpfromothersurv.h">
<polygon fill="white" stroke="red" points="2950,-58.5 2950,-79.5 3090,-79.5 3090,-58.5 2950,-58.5"/>
<text text-anchor="middle" x="3020" y="-66.5" font-family="Helvetica,sans-Serif" font-size="10.00">seiscbvsimpfromothersurv.h</text>
</a>
</g>
<!-- Node3&#45;&gt;Node34 -->
<g id="edge70" class="edge"><title>Node3&#45;&gt;Node34</title>
<path fill="none" stroke="midnightblue" d="M2464.39,-123.921C2552.29,-117.234 2764.06,-100.334 2941,-80 2943.89,-79.668 2946.84,-79.3164 2949.81,-78.9508"/>
<polygon fill="midnightblue" stroke="midnightblue" points="2464,-120.441 2454.29,-124.686 2464.53,-127.421 2464,-120.441"/>
</g>
<!-- Node35 -->
<g id="node71" class="node"><title>Node35</title>
<a xlink:href="seiscopy_8h.html" target="_top" xlink:title="seiscopy.h">
<polygon fill="white" stroke="black" points="3108,-58.5 3108,-79.5 3172,-79.5 3172,-58.5 3108,-58.5"/>
<text text-anchor="middle" x="3140" y="-66.5" font-family="Helvetica,sans-Serif" font-size="10.00">seiscopy.h</text>
</a>
</g>
<!-- Node3&#45;&gt;Node35 -->
<g id="edge72" class="edge"><title>Node3&#45;&gt;Node35</title>
<path fill="none" stroke="midnightblue" d="M2464.2,-125.179C2591.23,-119.398 2975.7,-100.628 3099,-80 3101.91,-79.5136 3104.91,-78.9106 3107.9,-78.2394"/>
<polygon fill="midnightblue" stroke="midnightblue" points="2463.94,-121.687 2454.11,-125.635 2464.25,-128.68 2463.94,-121.687"/>
</g>
<!-- Node36 -->
<g id="node73" class="node"><title>Node36</title>
<a xlink:href="seiscube2linedata_8h.html" target="_top" xlink:title="seiscube2linedata.h">
<polygon fill="white" stroke="black" points="3189.5,-58.5 3189.5,-79.5 3292.5,-79.5 3292.5,-58.5 3189.5,-58.5"/>
<text text-anchor="middle" x="3241" y="-66.5" font-family="Helvetica,sans-Serif" font-size="10.00">seiscube2linedata.h</text>
</a>
</g>
<!-- Node3&#45;&gt;Node36 -->
<g id="edge74" class="edge"><title>Node3&#45;&gt;Node36</title>
<path fill="none" stroke="midnightblue" d="M2464.23,-126.172C2578.5,-123.505 2908.77,-113.274 3181,-80 3183.73,-79.6659 3186.53,-79.2863 3189.35,-78.8737"/>
<polygon fill="midnightblue" stroke="midnightblue" points="2464.09,-122.674 2454.17,-126.4 2464.25,-129.673 2464.09,-122.674"/>
</g>
<!-- Node37 -->
<g id="node75" class="node"><title>Node37</title>
<a xlink:href="seisdatapackwriter_8h.html" target="_top" xlink:title="seisdatapackwriter.h">
<polygon fill="white" stroke="black" points="3309.5,-58.5 3309.5,-79.5 3416.5,-79.5 3416.5,-58.5 3309.5,-58.5"/>
<text text-anchor="middle" x="3363" y="-66.5" font-family="Helvetica,sans-Serif" font-size="10.00">seisdatapackwriter.h</text>
</a>
</g>
<!-- Node3&#45;&gt;Node37 -->
<g id="edge76" class="edge"><title>Node3&#45;&gt;Node37</title>
<path fill="none" stroke="midnightblue" d="M2464.58,-126.574C2590.8,-124.896 2980.51,-116.87 3301,-80 3303.72,-79.6877 3306.49,-79.3314 3309.29,-78.9428"/>
<polygon fill="midnightblue" stroke="midnightblue" points="2464.18,-123.079 2454.22,-126.705 2464.26,-130.078 2464.18,-123.079"/>
</g>
<!-- Node38 -->
<g id="node77" class="node"><title>Node38</title>
<a xlink:href="seiseventsnapper_8h.html" target="_top" xlink:title="seiseventsnapper.h">
<polygon fill="white" stroke="red" points="3433.5,-58.5 3433.5,-79.5 3534.5,-79.5 3534.5,-58.5 3433.5,-58.5"/>
<text text-anchor="middle" x="3484" y="-66.5" font-family="Helvetica,sans-Serif" font-size="10.00">seiseventsnapper.h</text>
</a>
</g>
<!-- Node3&#45;&gt;Node38 -->
<g id="edge78" class="edge"><title>Node3&#45;&gt;Node38</title>
<path fill="none" stroke="midnightblue" d="M2464.66,-125.811C2629.23,-120.995 3234.36,-102.136 3425,-80 3427.69,-79.6875 3430.44,-79.3251 3433.22,-78.926"/>
<polygon fill="midnightblue" stroke="midnightblue" points="2464.36,-122.318 2454.46,-126.108 2464.56,-129.315 2464.36,-122.318"/>
</g>
<!-- Node39 -->
<g id="node79" class="node"><title>Node39</title>
<a xlink:href="seisimpbpsif_8h.html" target="_top" xlink:title="seisimpbpsif.h">
<polygon fill="white" stroke="black" points="3552,-58.5 3552,-79.5 3632,-79.5 3632,-58.5 3552,-58.5"/>
<text text-anchor="middle" x="3592" y="-66.5" font-family="Helvetica,sans-Serif" font-size="10.00">seisimpbpsif.h</text>
</a>
</g>
<!-- Node3&#45;&gt;Node39 -->
<g id="edge80" class="edge"><title>Node3&#45;&gt;Node39</title>
<path fill="none" stroke="midnightblue" d="M2464.31,-126.257C2640.29,-122.938 3328.28,-108.374 3543,-80 3545.94,-79.6117 3548.96,-79.1324 3551.99,-78.5933"/>
<polygon fill="midnightblue" stroke="midnightblue" points="2464.1,-122.76 2454.17,-126.446 2464.23,-129.759 2464.1,-122.76"/>
</g>
<!-- Node40 -->
<g id="node81" class="node"><title>Node40</title>
<a xlink:href="seisimporter_8h.html" target="_top" xlink:title="seisimporter.h">
<polygon fill="white" stroke="black" points="3650,-58.5 3650,-79.5 3728,-79.5 3728,-58.5 3650,-58.5"/>
<text text-anchor="middle" x="3689" y="-66.5" font-family="Helvetica,sans-Serif" font-size="10.00">seisimporter.h</text>
</a>
</g>
<!-- Node3&#45;&gt;Node40 -->
<g id="edge82" class="edge"><title>Node3&#45;&gt;Node40</title>
<path fill="none" stroke="midnightblue" d="M2464.26,-126.443C2649.56,-123.781 3406.02,-111.18 3641,-80 3643.88,-79.6176 3646.84,-79.1428 3649.82,-78.6068"/>
<polygon fill="midnightblue" stroke="midnightblue" points="2464.07,-122.945 2454.12,-126.587 2464.17,-129.944 2464.07,-122.945"/>
</g>
<!-- Node41 -->
<g id="node83" class="node"><title>Node41</title>
<a xlink:href="seisimpps_8h.html" target="_top" xlink:title="seisimpps.h">
<polygon fill="white" stroke="black" points="3745.5,-58.5 3745.5,-79.5 3814.5,-79.5 3814.5,-58.5 3745.5,-58.5"/>
<text text-anchor="middle" x="3780" y="-66.5" font-family="Helvetica,sans-Serif" font-size="10.00">seisimpps.h</text>
</a>
</g>
<!-- Node3&#45;&gt;Node41 -->
<g id="edge84" class="edge"><title>Node3&#45;&gt;Node41</title>
<path fill="none" stroke="midnightblue" d="M2464.36,-126.715C2658.72,-125.194 3482.56,-116.661 3737,-80 3739.75,-79.6044 3742.57,-79.1025 3745.4,-78.5321"/>
<polygon fill="midnightblue" stroke="midnightblue" points="2464.25,-123.216 2454.27,-126.792 2464.3,-130.216 2464.25,-123.216"/>
</g>
<!-- Node42 -->
<g id="node85" class="node"><title>Node42</title>
<a xlink:href="seisiosimple_8h.html" target="_top" xlink:title="seisiosimple.h">
<polygon fill="white" stroke="red" points="3831.5,-58.5 3831.5,-79.5 3910.5,-79.5 3910.5,-58.5 3831.5,-58.5"/>
<text text-anchor="middle" x="3871" y="-66.5" font-family="Helvetica,sans-Serif" font-size="10.00">seisiosimple.h</text>
</a>
</g>
<!-- Node3&#45;&gt;Node42 -->
<g id="edge86" class="edge"><title>Node3&#45;&gt;Node42</title>
<path fill="none" stroke="midnightblue" d="M2464.4,-126.681C2666.45,-124.959 3550.25,-115.498 3823,-80 3825.71,-79.6469 3828.5,-79.2102 3831.29,-78.7164"/>
<polygon fill="midnightblue" stroke="midnightblue" points="2464.19,-123.182 2454.22,-126.766 2464.25,-130.182 2464.19,-123.182"/>
</g>
<!-- Node43 -->
<g id="node87" class="node"><title>Node43</title>
<a xlink:href="seismerge_8h.html" target="_top" xlink:title="seismerge.h">
<polygon fill="white" stroke="black" points="3928,-58.5 3928,-79.5 3998,-79.5 3998,-58.5 3928,-58.5"/>
<text text-anchor="middle" x="3963" y="-66.5" font-family="Helvetica,sans-Serif" font-size="10.00">seismerge.h</text>
</a>
</g>
<!-- Node3&#45;&gt;Node43 -->
<g id="edge88" class="edge"><title>Node3&#45;&gt;Node43</title>
<path fill="none" stroke="midnightblue" d="M2464.51,-126.893C2675.09,-126.168 3626.66,-120.659 3919,-80 3921.81,-79.6095 3924.7,-79.1113 3927.59,-78.5435"/>
<polygon fill="midnightblue" stroke="midnightblue" points="2464.19,-123.394 2454.2,-126.927 2464.22,-130.394 2464.19,-123.394"/>
</g>
<!-- Node44 -->
<g id="node89" class="node"><title>Node44</title>
<a xlink:href="seisparallelreader_8h.html" target="_top" xlink:title="seisparallelreader.h">
<polygon fill="white" stroke="black" points="4015.5,-58.5 4015.5,-79.5 4116.5,-79.5 4116.5,-58.5 4015.5,-58.5"/>
<text text-anchor="middle" x="4066" y="-66.5" font-family="Helvetica,sans-Serif" font-size="10.00">seisparallelreader.h</text>
</a>
</g>
<!-- Node3&#45;&gt;Node44 -->
<g id="edge90" class="edge"><title>Node3&#45;&gt;Node44</title>
<path fill="none" stroke="midnightblue" d="M2464.11,-126.642C2681.1,-124.621 3694.97,-113.514 4007,-80 4009.69,-79.7107 4012.45,-79.3667 4015.22,-78.9821"/>
<polygon fill="midnightblue" stroke="midnightblue" points="2464.07,-123.142 2454.1,-126.734 2464.13,-130.142 2464.07,-123.142"/>
</g>
<!-- Node45 -->
<g id="node91" class="node"><title>Node45</title>
<a xlink:href="seispsmerge_8h.html" target="_top" xlink:title="seispsmerge.h">
<polygon fill="white" stroke="black" points="4134,-58.5 4134,-79.5 4214,-79.5 4214,-58.5 4134,-58.5"/>
<text text-anchor="middle" x="4174" y="-66.5" font-family="Helvetica,sans-Serif" font-size="10.00">seispsmerge.h</text>
</a>
</g>
<!-- Node3&#45;&gt;Node45 -->
<g id="edge92" class="edge"><title>Node3&#45;&gt;Node45</title>
<path fill="none" stroke="midnightblue" d="M2464.26,-126.942C2691.15,-126.459 3788.98,-121.956 4125,-80 4127.94,-79.6327 4130.97,-79.169 4134,-78.6408"/>
<polygon fill="midnightblue" stroke="midnightblue" points="2464.11,-123.442 2454.12,-126.962 2464.13,-130.442 2464.11,-123.442"/>
</g>
<!-- Node46 -->
<g id="node93" class="node"><title>Node46</title>
<a xlink:href="seisrandlineto2d_8h.html" target="_top" xlink:title="seisrandlineto2d.h">
<polygon fill="white" stroke="black" points="4231.5,-58.5 4231.5,-79.5 4326.5,-79.5 4326.5,-58.5 4231.5,-58.5"/>
<text text-anchor="middle" x="4279" y="-66.5" font-family="Helvetica,sans-Serif" font-size="10.00">seisrandlineto2d.h</text>
</a>
</g>
<!-- Node3&#45;&gt;Node46 -->
<g id="edge94" class="edge"><title>Node3&#45;&gt;Node46</title>
<path fill="none" stroke="midnightblue" d="M2464.35,-126.864C2699.08,-125.948 3865.92,-119.449 4223,-80 4225.76,-79.6954 4228.58,-79.3258 4231.42,-78.9091"/>
<polygon fill="midnightblue" stroke="midnightblue" points="2464.18,-123.364 2454.2,-126.902 2464.21,-130.364 2464.18,-123.364"/>
</g>
<!-- Node47 -->
<g id="node95" class="node"><title>Node47</title>
<a xlink:href="seisscanner_8h.html" target="_top" xlink:title="seisscanner.h">
<polygon fill="white" stroke="black" points="4343.5,-58.5 4343.5,-79.5 4420.5,-79.5 4420.5,-58.5 4343.5,-58.5"/>
<text text-anchor="middle" x="4382" y="-66.5" font-family="Helvetica,sans-Serif" font-size="10.00">seisscanner.h</text>
</a>
</g>
<!-- Node3&#45;&gt;Node47 -->
<g id="edge96" class="edge"><title>Node3&#45;&gt;Node47</title>
<path fill="none" stroke="midnightblue" d="M2464.28,-126.494C2725.46,-123.228 4143.74,-104.468 4335,-80 4337.74,-79.6491 4340.56,-79.2058 4343.39,-78.6999"/>
<polygon fill="midnightblue" stroke="midnightblue" points="2464.04,-122.997 2454.09,-126.621 2464.13,-129.996 2464.04,-122.997"/>
</g>
<!-- Node48 -->
<g id="node97" class="node"><title>Node48</title>
<a xlink:href="seissingtrcproc_8h.html" target="_top" xlink:title="seissingtrcproc.h">
<polygon fill="white" stroke="black" points="4437.5,-58.5 4437.5,-79.5 4528.5,-79.5 4528.5,-58.5 4437.5,-58.5"/>
<text text-anchor="middle" x="4483" y="-66.5" font-family="Helvetica,sans-Serif" font-size="10.00">seissingtrcproc.h</text>
</a>
</g>
<!-- Node3&#45;&gt;Node48 -->
<g id="edge98" class="edge"><title>Node3&#45;&gt;Node48</title>
<path fill="none" stroke="midnightblue" d="M2464.17,-126.475C2732.46,-122.997 4227.45,-102.707 4429,-80 4431.76,-79.6894 4434.58,-79.308 4437.43,-78.8758"/>
<polygon fill="midnightblue" stroke="midnightblue" points="2464.03,-122.977 2454.08,-126.606 2464.12,-129.976 2464.03,-122.977"/>
</g>
<!-- Node49 -->
<g id="node99" class="node"><title>Node49</title>
<a xlink:href="waveletextractor_8h.html" target="_top" xlink:title="waveletextractor.h">
<polygon fill="white" stroke="black" points="4545.5,-58.5 4545.5,-79.5 4642.5,-79.5 4642.5,-58.5 4545.5,-58.5"/>
<text text-anchor="middle" x="4594" y="-66.5" font-family="Helvetica,sans-Serif" font-size="10.00">waveletextractor.h</text>
</a>
</g>
<!-- Node3&#45;&gt;Node49 -->
<g id="edge100" class="edge"><title>Node3&#45;&gt;Node49</title>
<path fill="none" stroke="midnightblue" d="M2464.19,-126.502C2740.85,-123.103 4323.92,-102.765 4537,-80 4539.71,-79.7109 4542.47,-79.3605 4545.26,-78.9648"/>
<polygon fill="midnightblue" stroke="midnightblue" points="2464.13,-123.002 2454.17,-126.625 2464.21,-130.002 2464.13,-123.002"/>
</g>
<!-- Node50 -->
<g id="node101" class="node"><title>Node50</title>
<a xlink:href="attribposvecoutput_8h.html" target="_top" xlink:title="attribposvecoutput.h">
<polygon fill="white" stroke="black" points="4659.5,-58.5 4659.5,-79.5 4764.5,-79.5 4764.5,-58.5 4659.5,-58.5"/>
<text text-anchor="middle" x="4712" y="-66.5" font-family="Helvetica,sans-Serif" font-size="10.00">attribposvecoutput.h</text>
</a>
</g>
<!-- Node3&#45;&gt;Node50 -->
<g id="edge102" class="edge"><title>Node3&#45;&gt;Node50</title>
<path fill="none" stroke="midnightblue" d="M2464.58,-126.517C2750.9,-123.141 4425.8,-102.539 4651,-80 4653.68,-79.7321 4656.41,-79.4116 4659.17,-79.0514"/>
<polygon fill="midnightblue" stroke="midnightblue" points="2464.19,-123.022 2454.23,-126.639 2464.27,-130.021 2464.19,-123.022"/>
</g>
<!-- Node31&#45;&gt;Node30 -->
<g id="edge62" class="edge"><title>Node31&#45;&gt;Node30</title>
<path fill="none" stroke="midnightblue" d="M2738.77,-50.8299C2729.65,-41.2078 2718.76,-29.7282 2711.02,-21.5707"/>
<polygon fill="midnightblue" stroke="midnightblue" points="2736.49,-53.514 2745.91,-58.3619 2741.57,-48.6973 2736.49,-53.514"/>
</g>
<!-- Node31&#45;&gt;Node32 -->
<g id="edge64" class="edge"><title>Node31&#45;&gt;Node32</title>
<path fill="none" stroke="midnightblue" d="M2772.92,-50.8299C2781.88,-41.2078 2792.56,-29.7282 2800.16,-21.5707"/>
<polygon fill="midnightblue" stroke="midnightblue" points="2770.16,-48.658 2765.9,-58.3619 2775.28,-53.4279 2770.16,-48.658"/>
</g>
</g>
</svg>
