<?xml version="1.0" encoding="UTF-8" standalone="no"?>
<!DOCTYPE svg PUBLIC "-//W3C//DTD SVG 1.1//EN"
 "http://www.w3.org/Graphics/SVG/1.1/DTD/svg11.dtd">
<!-- Generated by graphviz version 2.26.0 (20091210.2329)
 -->
<!-- Title: randcolor.h Pages: 1 -->
<svg width="340pt" height="378pt"
 viewBox="0.00 0.00 340.00 378.00" xmlns="http://www.w3.org/2000/svg" xmlns:xlink="http://www.w3.org/1999/xlink">
<g id="graph1" class="graph" transform="scale(1 1) rotate(0) translate(4 374)">
<title>randcolor.h</title>
<polygon fill="white" stroke="white" points="-4,5 -4,-374 337,-374 337,5 -4,5"/>
<!-- Node1 -->
<g id="node1" class="node"><title>Node1</title>
<polygon fill="#bfbfbf" stroke="black" points="63.5,-348.5 63.5,-369.5 128.5,-369.5 128.5,-348.5 63.5,-348.5"/>
<text text-anchor="middle" x="96" y="-356.5" font-family="Helvetica,sans-Serif" font-size="10.00">randcolor.h</text>
</g>
<!-- Node2 -->
<g id="node3" class="node"><title>Node2</title>
<a xlink:href="color_8h.html" target="_top" xlink:title="color.h">
<polygon fill="white" stroke="black" points="17,-232.5 17,-253.5 63,-253.5 63,-232.5 17,-232.5"/>
<text text-anchor="middle" x="40" y="-240.5" font-family="Helvetica,sans-Serif" font-size="10.00">color.h</text>
</a>
</g>
<!-- Node1&#45;&gt;Node2 -->
<g id="edge2" class="edge"><title>Node1&#45;&gt;Node2</title>
<path fill="none" stroke="midnightblue" d="M90.832,-348.295C81.4557,-328.872 61.5098,-287.556 49.5809,-262.846"/>
<polygon fill="midnightblue" stroke="midnightblue" points="52.655,-261.163 45.1555,-253.679 46.3511,-264.206 52.655,-261.163"/>
</g>
<!-- Node15 -->
<g id="node34" class="node"><title>Node15</title>
<a xlink:href="statrand_8h.html" target="_top" xlink:title="statrand.h">
<polygon fill="white" stroke="black" points="101,-290.5 101,-311.5 161,-311.5 161,-290.5 101,-290.5"/>
<text text-anchor="middle" x="131" y="-298.5" font-family="Helvetica,sans-Serif" font-size="10.00">statrand.h</text>
</a>
</g>
<!-- Node1&#45;&gt;Node15 -->
<g id="edge38" class="edge"><title>Node1&#45;&gt;Node15</title>
<path fill="none" stroke="midnightblue" d="M102.42,-348.362C107.156,-340.513 113.732,-329.616 119.382,-320.253"/>
<polygon fill="midnightblue" stroke="midnightblue" points="122.451,-321.941 124.621,-311.571 116.458,-318.324 122.451,-321.941"/>
</g>
<!-- Node3 -->
<g id="node5" class="node"><title>Node3</title>
<polygon fill="white" stroke="#bfbfbf" points="-0.5,-0.5 -0.5,-21.5 66.5,-21.5 66.5,-0.5 -0.5,-0.5"/>
<text text-anchor="middle" x="33" y="-8.5" font-family="Helvetica,sans-Serif" font-size="10.00">basicmod.h</text>
</g>
<!-- Node2&#45;&gt;Node3 -->
<g id="edge4" class="edge"><title>Node2&#45;&gt;Node3</title>
<path fill="none" stroke="midnightblue" d="M39.681,-232.429C38.6015,-196.648 35.0717,-79.6628 33.626,-31.7481"/>
<polygon fill="midnightblue" stroke="midnightblue" points="37.1209,-31.5234 33.3208,-21.6335 30.1241,-31.7345 37.1209,-31.5234"/>
</g>
<!-- Node4 -->
<g id="node7" class="node"><title>Node4</title>
<a xlink:href="gendefs_8h.html" target="_top" xlink:title="gendefs.h">
<polygon fill="white" stroke="black" points="96.5,-174.5 96.5,-195.5 155.5,-195.5 155.5,-174.5 96.5,-174.5"/>
<text text-anchor="middle" x="126" y="-182.5" font-family="Helvetica,sans-Serif" font-size="10.00">gendefs.h</text>
</a>
</g>
<!-- Node2&#45;&gt;Node4 -->
<g id="edge6" class="edge"><title>Node2&#45;&gt;Node4</title>
<path fill="none" stroke="midnightblue" d="M55.7737,-232.362C68.6239,-223.696 86.9848,-211.313 101.71,-201.382"/>
<polygon fill="midnightblue" stroke="midnightblue" points="103.993,-204.064 110.326,-195.571 100.079,-198.26 103.993,-204.064"/>
</g>
<!-- Node5 -->
<g id="node9" class="node"><title>Node5</title>
<a xlink:href="undefval_8h.html" target="_top" xlink:title="undefval.h">
<polygon fill="white" stroke="black" points="79,-116.5 79,-137.5 141,-137.5 141,-116.5 79,-116.5"/>
<text text-anchor="middle" x="110" y="-124.5" font-family="Helvetica,sans-Serif" font-size="10.00">undefval.h</text>
</a>
</g>
<!-- Node4&#45;&gt;Node5 -->
<g id="edge8" class="edge"><title>Node4&#45;&gt;Node5</title>
<path fill="none" stroke="midnightblue" d="M123.065,-174.362C120.99,-166.84 118.143,-156.519 115.636,-147.431"/>
<polygon fill="midnightblue" stroke="midnightblue" points="118.949,-146.28 112.916,-137.571 112.201,-148.141 118.949,-146.28"/>
</g>
<!-- Node12 -->
<g id="node26" class="node"><title>Node12</title>
<a xlink:href="commontypes_8h.html" target="_top" xlink:title="commontypes.h">
<polygon fill="white" stroke="black" points="159,-116.5 159,-137.5 245,-137.5 245,-116.5 159,-116.5"/>
<text text-anchor="middle" x="202" y="-124.5" font-family="Helvetica,sans-Serif" font-size="10.00">commontypes.h</text>
</a>
</g>
<!-- Node4&#45;&gt;Node12 -->
<g id="edge28" class="edge"><title>Node4&#45;&gt;Node12</title>
<path fill="none" stroke="midnightblue" d="M139.94,-174.362C151.188,-165.777 167.216,-153.546 180.165,-143.664"/>
<polygon fill="midnightblue" stroke="midnightblue" points="182.323,-146.42 188.149,-137.571 178.076,-140.855 182.323,-146.42"/>
</g>
<!-- Node13 -->
<g id="node29" class="node"><title>Node13</title>
<a xlink:href="errmsg_8h.html" target="_top" xlink:title="errmsg.h">
<polygon fill="white" stroke="black" points="262.5,-116.5 262.5,-137.5 317.5,-137.5 317.5,-116.5 262.5,-116.5"/>
<text text-anchor="middle" x="290" y="-124.5" font-family="Helvetica,sans-Serif" font-size="10.00">errmsg.h</text>
</a>
</g>
<!-- Node4&#45;&gt;Node13 -->
<g id="edge32" class="edge"><title>Node4&#45;&gt;Node13</title>
<path fill="none" stroke="midnightblue" d="M155.699,-174.497C182.983,-164.847 223.526,-150.509 252.925,-140.112"/>
<polygon fill="midnightblue" stroke="midnightblue" points="254.172,-143.384 262.432,-136.75 251.838,-136.784 254.172,-143.384"/>
</g>
<!-- Node5&#45;&gt;Node3 -->
<g id="edge10" class="edge"><title>Node5&#45;&gt;Node3</title>
<path fill="none" stroke="midnightblue" d="M102.894,-116.295C89.8869,-96.6998 62.0873,-54.8198 45.739,-30.1913"/>
<polygon fill="midnightblue" stroke="midnightblue" points="48.5353,-28.0751 40.0888,-21.6792 42.7032,-31.9464 48.5353,-28.0751"/>
</g>
<!-- Node6 -->
<g id="node12" class="node"><title>Node6</title>
<a xlink:href="commondefs_8h.html" target="_top" xlink:title="commondefs.h">
<polygon fill="white" stroke="black" points="164.5,-58.5 164.5,-79.5 245.5,-79.5 245.5,-58.5 164.5,-58.5"/>
<text text-anchor="middle" x="205" y="-66.5" font-family="Helvetica,sans-Serif" font-size="10.00">commondefs.h</text>
</a>
</g>
<!-- Node5&#45;&gt;Node6 -->
<g id="edge12" class="edge"><title>Node5&#45;&gt;Node6</title>
<path fill="none" stroke="midnightblue" d="M127.424,-116.362C141.887,-107.532 162.669,-94.844 179.084,-84.8224"/>
<polygon fill="midnightblue" stroke="midnightblue" points="180.975,-87.7688 187.686,-79.5707 177.327,-81.7943 180.975,-87.7688"/>
</g>
<!-- Node10 -->
<g id="node21" class="node"><title>Node10</title>
<a xlink:href="plftypes_8h.html" target="_top" xlink:title="plftypes.h">
<polygon fill="white" stroke="black" points="88.5,-58.5 88.5,-79.5 147.5,-79.5 147.5,-58.5 88.5,-58.5"/>
<text text-anchor="middle" x="118" y="-66.5" font-family="Helvetica,sans-Serif" font-size="10.00">plftypes.h</text>
</a>
</g>
<!-- Node5&#45;&gt;Node10 -->
<g id="edge22" class="edge"><title>Node5&#45;&gt;Node10</title>
<path fill="none" stroke="midnightblue" d="M111.467,-116.362C112.494,-108.922 113.898,-98.7427 115.141,-89.7276"/>
<polygon fill="midnightblue" stroke="midnightblue" points="118.643,-89.9551 116.542,-79.5707 111.708,-88.9986 118.643,-89.9551"/>
</g>
<!-- Node6&#45;&gt;Node3 -->
<g id="edge14" class="edge"><title>Node6&#45;&gt;Node3</title>
<path fill="none" stroke="midnightblue" d="M173.852,-58.4966C145.811,-49.0411 104.418,-35.0829 73.7545,-24.7428"/>
<polygon fill="midnightblue" stroke="midnightblue" points="74.8005,-21.4019 64.2063,-21.5231 72.5637,-28.035 74.8005,-21.4019"/>
</g>
<!-- Node7 -->
<g id="node15" class="node"><title>Node7</title>
<a xlink:href="plfdefs_8h.html" target="_top" xlink:title="plfdefs.h">
<polygon fill="white" stroke="black" points="150,-0.5 150,-21.5 204,-21.5 204,-0.5 150,-0.5"/>
<text text-anchor="middle" x="177" y="-8.5" font-family="Helvetica,sans-Serif" font-size="10.00">plfdefs.h</text>
</a>
</g>
<!-- Node6&#45;&gt;Node7 -->
<g id="edge16" class="edge"><title>Node6&#45;&gt;Node7</title>
<path fill="none" stroke="midnightblue" d="M199.864,-58.3619C196.154,-50.6766 191.033,-40.0686 186.578,-30.8399"/>
<polygon fill="midnightblue" stroke="midnightblue" points="189.603,-29.0545 182.103,-21.5707 183.299,-32.0978 189.603,-29.0545"/>
</g>
<!-- Node8 -->
<g id="node17" class="node"><title>Node8</title>
<polygon fill="white" stroke="#bfbfbf" points="221.5,-0.5 221.5,-21.5 280.5,-21.5 280.5,-0.5 221.5,-0.5"/>
<text text-anchor="middle" x="251" y="-8.5" font-family="Helvetica,sans-Serif" font-size="10.00">stdexcept</text>
</g>
<!-- Node6&#45;&gt;Node8 -->
<g id="edge18" class="edge"><title>Node6&#45;&gt;Node8</title>
<path fill="none" stroke="midnightblue" d="M213.437,-58.3619C219.792,-50.3496 228.666,-39.1605 236.193,-29.6696"/>
<polygon fill="midnightblue" stroke="midnightblue" points="239.145,-31.5805 242.616,-21.5707 233.66,-27.2308 239.145,-31.5805"/>
</g>
<!-- Node9 -->
<g id="node19" class="node"><title>Node9</title>
<polygon fill="white" stroke="#bfbfbf" points="297.5,-0.5 297.5,-21.5 332.5,-21.5 332.5,-0.5 297.5,-0.5"/>
<text text-anchor="middle" x="315" y="-8.5" font-family="Helvetica,sans-Serif" font-size="10.00">new</text>
</g>
<!-- Node6&#45;&gt;Node9 -->
<g id="edge20" class="edge"><title>Node6&#45;&gt;Node9</title>
<path fill="none" stroke="midnightblue" d="M224.92,-58.4966C242.691,-49.1266 268.847,-35.3351 288.402,-25.0244"/>
<polygon fill="midnightblue" stroke="midnightblue" points="290.192,-28.0371 297.406,-20.277 286.928,-21.8451 290.192,-28.0371"/>
</g>
<!-- Node10&#45;&gt;Node7 -->
<g id="edge24" class="edge"><title>Node10&#45;&gt;Node7</title>
<path fill="none" stroke="midnightblue" d="M128.822,-58.3619C137.221,-50.1043 149.054,-38.4725 158.89,-28.8029"/>
<polygon fill="midnightblue" stroke="midnightblue" points="161.569,-31.077 166.247,-21.5707 156.662,-26.0851 161.569,-31.077"/>
</g>
<!-- Node11 -->
<g id="node24" class="node"><title>Node11</title>
<polygon fill="white" stroke="#bfbfbf" points="83.5,-0.5 83.5,-21.5 132.5,-21.5 132.5,-0.5 83.5,-0.5"/>
<text text-anchor="middle" x="108" y="-8.5" font-family="Helvetica,sans-Serif" font-size="10.00">stdint.h</text>
</g>
<!-- Node10&#45;&gt;Node11 -->
<g id="edge26" class="edge"><title>Node10&#45;&gt;Node11</title>
<path fill="none" stroke="midnightblue" d="M116.166,-58.3619C114.869,-50.8401 113.089,-40.5187 111.523,-31.4308"/>
<polygon fill="midnightblue" stroke="midnightblue" points="114.971,-30.8306 109.823,-21.5707 108.073,-32.02 114.971,-30.8306"/>
</g>
<!-- Node12&#45;&gt;Node6 -->
<g id="edge30" class="edge"><title>Node12&#45;&gt;Node6</title>
<path fill="none" stroke="midnightblue" d="M202.55,-116.362C202.935,-108.922 203.462,-98.7427 203.928,-89.7276"/>
<polygon fill="midnightblue" stroke="midnightblue" points="207.432,-89.7381 204.453,-79.5707 200.441,-89.3765 207.432,-89.7381"/>
</g>
<!-- Node13&#45;&gt;Node6 -->
<g id="edge34" class="edge"><title>Node13&#45;&gt;Node6</title>
<path fill="none" stroke="midnightblue" d="M274.41,-116.362C261.709,-107.696 243.562,-95.3126 229.008,-85.3819"/>
<polygon fill="midnightblue" stroke="midnightblue" points="230.724,-82.316 220.491,-79.5707 226.779,-88.0982 230.724,-82.316"/>
</g>
<!-- Node14 -->
<g id="node32" class="node"><title>Node14</title>
<polygon fill="white" stroke="#bfbfbf" points="264.5,-58.5 264.5,-79.5 315.5,-79.5 315.5,-58.5 264.5,-58.5"/>
<text text-anchor="middle" x="290" y="-66.5" font-family="Helvetica,sans-Serif" font-size="10.00">typeinfo</text>
</g>
<!-- Node13&#45;&gt;Node14 -->
<g id="edge36" class="edge"><title>Node13&#45;&gt;Node14</title>
<path fill="none" stroke="midnightblue" d="M290,-116.362C290,-108.922 290,-98.7427 290,-89.7276"/>
<polygon fill="midnightblue" stroke="midnightblue" points="293.5,-89.5706 290,-79.5707 286.5,-89.5707 293.5,-89.5706"/>
</g>
<!-- Node15&#45;&gt;Node4 -->
<g id="edge42" class="edge"><title>Node15&#45;&gt;Node4</title>
<path fill="none" stroke="midnightblue" d="M124.618,-290.242C119.525,-280.994 112.796,-267.111 110,-254 106.485,-237.516 111.32,-218.904 116.572,-205.168"/>
<polygon fill="midnightblue" stroke="midnightblue" points="119.89,-206.305 120.538,-195.73 113.437,-203.593 119.89,-206.305"/>
</g>
<!-- Node16 -->
<g id="node36" class="node"><title>Node16</title>
<polygon fill="white" stroke="#bfbfbf" points="185,-232.5 185,-253.5 247,-253.5 247,-232.5 185,-232.5"/>
<text text-anchor="middle" x="216" y="-240.5" font-family="Helvetica,sans-Serif" font-size="10.00">algomod.h</text>
</g>
<!-- Node15&#45;&gt;Node16 -->
<g id="edge40" class="edge"><title>Node15&#45;&gt;Node16</title>
<path fill="none" stroke="midnightblue" d="M146.59,-290.362C159.291,-281.696 177.438,-269.313 191.992,-259.382"/>
<polygon fill="midnightblue" stroke="midnightblue" points="194.221,-262.098 200.509,-253.571 190.276,-256.316 194.221,-262.098"/>
</g>
<!-- Node17 -->
<g id="node39" class="node"><title>Node17</title>
<a xlink:href="odset_8h.html" target="_top" xlink:title="odset.h">
<polygon fill="white" stroke="black" points="118.5,-232.5 118.5,-253.5 167.5,-253.5 167.5,-232.5 118.5,-232.5"/>
<text text-anchor="middle" x="143" y="-240.5" font-family="Helvetica,sans-Serif" font-size="10.00">odset.h</text>
</a>
</g>
<!-- Node15&#45;&gt;Node17 -->
<g id="edge44" class="edge"><title>Node15&#45;&gt;Node17</title>
<path fill="none" stroke="midnightblue" d="M133.201,-290.362C134.757,-282.84 136.893,-272.519 138.773,-263.431"/>
<polygon fill="midnightblue" stroke="midnightblue" points="142.214,-264.072 140.813,-253.571 135.359,-262.654 142.214,-264.072"/>
</g>
<!-- Node17&#45;&gt;Node4 -->
<g id="edge46" class="edge"><title>Node17&#45;&gt;Node4</title>
<path fill="none" stroke="midnightblue" d="M139.882,-232.362C137.677,-224.84 134.652,-214.519 131.988,-205.431"/>
<polygon fill="midnightblue" stroke="midnightblue" points="135.27,-204.182 129.098,-195.571 128.552,-206.151 135.27,-204.182"/>
</g>
</g>
</svg>
