<?xml version="1.0" encoding="UTF-8" standalone="no"?>
<!DOCTYPE svg PUBLIC "-//W3C//DTD SVG 1.1//EN"
 "http://www.w3.org/Graphics/SVG/1.1/DTD/svg11.dtd">
<!-- Generated by graphviz version 2.26.0 (20091210.2329)
 -->
<!-- Title: rowcolsurface.h Pages: 1 -->
<svg width="621pt" height="378pt"
 viewBox="0.00 0.00 621.00 378.00" xmlns="http://www.w3.org/2000/svg" xmlns:xlink="http://www.w3.org/1999/xlink">
<g id="graph1" class="graph" transform="scale(1 1) rotate(0) translate(4 374)">
<title>rowcolsurface.h</title>
<polygon fill="white" stroke="white" points="-4,5 -4,-374 618,-374 618,5 -4,5"/>
<!-- Node1 -->
<g id="node1" class="node"><title>Node1</title>
<polygon fill="#bfbfbf" stroke="black" points="317,-348.5 317,-369.5 403,-369.5 403,-348.5 317,-348.5"/>
<text text-anchor="middle" x="360" y="-356.5" font-family="Helvetica,sans-Serif" font-size="10.00">rowcolsurface.h</text>
</g>
<!-- Node2 -->
<g id="node3" class="node"><title>Node2</title>
<a xlink:href="parametricsurface_8h.html" target="_top" xlink:title="parametricsurface.h">
<polygon fill="white" stroke="black" points="76.5,-290.5 76.5,-311.5 179.5,-311.5 179.5,-290.5 76.5,-290.5"/>
<text text-anchor="middle" x="128" y="-298.5" font-family="Helvetica,sans-Serif" font-size="10.00">parametricsurface.h</text>
</a>
</g>
<!-- Node1&#45;&gt;Node2 -->
<g id="edge2" class="edge"><title>Node1&#45;&gt;Node2</title>
<path fill="none" stroke="midnightblue" d="M308.043,-346.011C266.444,-335.611 208.841,-321.21 170.092,-311.523"/>
<polygon fill="midnightblue" stroke="midnightblue" points="307.436,-349.467 317.987,-348.497 309.134,-342.676 307.436,-349.467"/>
</g>
<!-- Node6 -->
<g id="node11" class="node"><title>Node6</title>
<a xlink:href="faultstickset_8h.html" target="_top" xlink:title="faultstickset.h">
<polygon fill="white" stroke="black" points="533,-290.5 533,-311.5 611,-311.5 611,-290.5 533,-290.5"/>
<text text-anchor="middle" x="572" y="-298.5" font-family="Helvetica,sans-Serif" font-size="10.00">faultstickset.h</text>
</a>
</g>
<!-- Node1&#45;&gt;Node6 -->
<g id="edge10" class="edge"><title>Node1&#45;&gt;Node6</title>
<path fill="none" stroke="midnightblue" d="M408.203,-345.812C446.158,-335.428 498.353,-321.149 533.536,-311.523"/>
<polygon fill="midnightblue" stroke="midnightblue" points="407.114,-342.482 398.392,-348.497 408.961,-349.234 407.114,-342.482"/>
</g>
<!-- Node12 -->
<g id="node24" class="node"><title>Node12</title>
<a xlink:href="horizon2dline_8h.html" target="_top" xlink:title="horizon2dline.h">
<polygon fill="white" stroke="black" points="433,-290.5 433,-311.5 515,-311.5 515,-290.5 433,-290.5"/>
<text text-anchor="middle" x="474" y="-298.5" font-family="Helvetica,sans-Serif" font-size="10.00">horizon2dline.h</text>
</a>
</g>
<!-- Node1&#45;&gt;Node12 -->
<g id="edge24" class="edge"><title>Node1&#45;&gt;Node12</title>
<path fill="none" stroke="midnightblue" d="M389.617,-343.932C409.544,-333.793 435.329,-320.675 453.124,-311.621"/>
<polygon fill="midnightblue" stroke="midnightblue" points="387.97,-340.843 380.645,-348.497 391.144,-347.081 387.97,-340.843"/>
</g>
<!-- Node14 -->
<g id="node28" class="node"><title>Node14</title>
<a xlink:href="polygonsurface_8h.html" target="_top" xlink:title="polygonsurface.h">
<polygon fill="white" stroke="black" points="196.5,-290.5 196.5,-311.5 287.5,-311.5 287.5,-290.5 196.5,-290.5"/>
<text text-anchor="middle" x="242" y="-298.5" font-family="Helvetica,sans-Serif" font-size="10.00">polygonsurface.h</text>
</a>
</g>
<!-- Node1&#45;&gt;Node14 -->
<g id="edge28" class="edge"><title>Node1&#45;&gt;Node14</title>
<path fill="none" stroke="midnightblue" d="M329.624,-344.069C308.959,-333.912 282.111,-320.716 263.609,-311.621"/>
<polygon fill="midnightblue" stroke="midnightblue" points="328.113,-347.226 338.631,-348.497 331.201,-340.944 328.113,-347.226"/>
</g>
<!-- Node16 -->
<g id="node32" class="node"><title>Node16</title>
<a xlink:href="emsurfacegeometry_8h.html" target="_top" xlink:title="emsurfacegeometry.h">
<polygon fill="white" stroke="black" points="304.5,-290.5 304.5,-311.5 415.5,-311.5 415.5,-290.5 304.5,-290.5"/>
<text text-anchor="middle" x="360" y="-298.5" font-family="Helvetica,sans-Serif" font-size="10.00">emsurfacegeometry.h</text>
</a>
</g>
<!-- Node1&#45;&gt;Node16 -->
<g id="edge32" class="edge"><title>Node1&#45;&gt;Node16</title>
<path fill="none" stroke="midnightblue" d="M360,-338.191C360,-329.168 360,-318.994 360,-311.571"/>
<polygon fill="midnightblue" stroke="midnightblue" points="356.5,-338.362 360,-348.362 363.5,-338.362 356.5,-338.362"/>
</g>
<!-- Node3 -->
<g id="node5" class="node"><title>Node3</title>
<a xlink:href="binidsurface_8h.html" target="_top" xlink:title="binidsurface.h">
<polygon fill="white" stroke="black" points="-0.5,-232.5 -0.5,-253.5 76.5,-253.5 76.5,-232.5 -0.5,-232.5"/>
<text text-anchor="middle" x="38" y="-240.5" font-family="Helvetica,sans-Serif" font-size="10.00">binidsurface.h</text>
</a>
</g>
<!-- Node2&#45;&gt;Node3 -->
<g id="edge4" class="edge"><title>Node2&#45;&gt;Node3</title>
<path fill="none" stroke="midnightblue" d="M102.895,-284.821C87.3933,-274.831 67.9471,-262.299 54.4027,-253.571"/>
<polygon fill="midnightblue" stroke="midnightblue" points="101.191,-287.887 111.493,-290.362 104.983,-282.003 101.191,-287.887"/>
</g>
<!-- Node5 -->
<g id="node9" class="node"><title>Node5</title>
<a xlink:href="cubicbeziersurface_8h.html" target="_top" xlink:title="cubicbeziersurface.h">
<polygon fill="white" stroke="black" points="93.5,-232.5 93.5,-253.5 200.5,-253.5 200.5,-232.5 93.5,-232.5"/>
<text text-anchor="middle" x="147" y="-240.5" font-family="Helvetica,sans-Serif" font-size="10.00">cubicbeziersurface.h</text>
</a>
</g>
<!-- Node2&#45;&gt;Node5 -->
<g id="edge8" class="edge"><title>Node2&#45;&gt;Node5</title>
<path fill="none" stroke="midnightblue" d="M134.623,-280.784C137.625,-271.617 141.052,-261.157 143.537,-253.571"/>
<polygon fill="midnightblue" stroke="midnightblue" points="131.272,-279.769 131.485,-290.362 137.924,-281.948 131.272,-279.769"/>
</g>
<!-- Node4 -->
<g id="node7" class="node"><title>Node4</title>
<a xlink:href="emhorizon3d_8h.html" target="_top" xlink:title="emhorizon3d.h">
<polygon fill="white" stroke="black" points="139,-174.5 139,-195.5 219,-195.5 219,-174.5 139,-174.5"/>
<text text-anchor="middle" x="179" y="-182.5" font-family="Helvetica,sans-Serif" font-size="10.00">emhorizon3d.h</text>
</a>
</g>
<!-- Node3&#45;&gt;Node4 -->
<g id="edge6" class="edge"><title>Node3&#45;&gt;Node4</title>
<path fill="none" stroke="midnightblue" d="M72.9696,-228.615C97.8304,-218.389 130.672,-204.88 153.179,-195.621"/>
<polygon fill="midnightblue" stroke="midnightblue" points="71.4507,-225.456 63.534,-232.497 74.1137,-231.929 71.4507,-225.456"/>
</g>
<!-- Node7 -->
<g id="node13" class="node"><title>Node7</title>
<a xlink:href="faultsticksurface_8h.html" target="_top" xlink:title="faultsticksurface.h">
<polygon fill="white" stroke="black" points="509.5,-232.5 509.5,-253.5 606.5,-253.5 606.5,-232.5 509.5,-232.5"/>
<text text-anchor="middle" x="558" y="-240.5" font-family="Helvetica,sans-Serif" font-size="10.00">faultsticksurface.h</text>
</a>
</g>
<!-- Node6&#45;&gt;Node7 -->
<g id="edge12" class="edge"><title>Node6&#45;&gt;Node7</title>
<path fill="none" stroke="midnightblue" d="M567.049,-280.488C564.853,-271.392 562.363,-261.076 560.552,-253.571"/>
<polygon fill="midnightblue" stroke="midnightblue" points="563.683,-281.462 569.432,-290.362 570.488,-279.82 563.683,-281.462"/>
</g>
<!-- Node8 -->
<g id="node15" class="node"><title>Node8</title>
<a xlink:href="emfault_8h.html" target="_top" xlink:title="emfault.h">
<polygon fill="white" stroke="black" points="501.5,-174.5 501.5,-195.5 558.5,-195.5 558.5,-174.5 501.5,-174.5"/>
<text text-anchor="middle" x="530" y="-182.5" font-family="Helvetica,sans-Serif" font-size="10.00">emfault.h</text>
</a>
</g>
<!-- Node7&#45;&gt;Node8 -->
<g id="edge14" class="edge"><title>Node7&#45;&gt;Node8</title>
<path fill="none" stroke="midnightblue" d="M548.383,-223.079C543.924,-213.842 538.805,-203.239 535.103,-195.571"/>
<polygon fill="midnightblue" stroke="midnightblue" points="545.365,-224.878 552.864,-232.362 551.669,-221.835 545.365,-224.878"/>
</g>
<!-- Node9 -->
<g id="node17" class="node"><title>Node9</title>
<a xlink:href="emfault3d_8h.html" target="_top" xlink:title="emfault3d.h">
<polygon fill="white" stroke="black" points="496,-58.5 496,-79.5 564,-79.5 564,-58.5 496,-58.5"/>
<text text-anchor="middle" x="530" y="-66.5" font-family="Helvetica,sans-Serif" font-size="10.00">emfault3d.h</text>
</a>
</g>
<!-- Node8&#45;&gt;Node9 -->
<g id="edge16" class="edge"><title>Node8&#45;&gt;Node9</title>
<path fill="none" stroke="midnightblue" d="M520.634,-165.356C517.192,-157.106 513.717,-147.285 512,-138 510.222,-128.385 510.222,-125.615 512,-116 514.415,-102.94 520.308,-88.8196 524.697,-79.502"/>
<polygon fill="midnightblue" stroke="midnightblue" points="517.438,-166.781 524.697,-174.498 523.835,-163.938 517.438,-166.781"/>
</g>
<!-- Node11 -->
<g id="node21" class="node"><title>Node11</title>
<a xlink:href="emfaultstickset_8h.html" target="_top" xlink:title="emfaultstickset.h">
<polygon fill="white" stroke="black" points="521,-116.5 521,-137.5 613,-137.5 613,-116.5 521,-116.5"/>
<text text-anchor="middle" x="567" y="-124.5" font-family="Helvetica,sans-Serif" font-size="10.00">emfaultstickset.h</text>
</a>
</g>
<!-- Node8&#45;&gt;Node11 -->
<g id="edge20" class="edge"><title>Node8&#45;&gt;Node11</title>
<path fill="none" stroke="midnightblue" d="M542.333,-165.667C548.312,-156.295 555.261,-145.402 560.257,-137.571"/>
<polygon fill="midnightblue" stroke="midnightblue" points="539.214,-164.049 536.786,-174.362 545.115,-167.814 539.214,-164.049"/>
</g>
<!-- Node10 -->
<g id="node19" class="node"><title>Node10</title>
<a xlink:href="emfaultset3d_8h.html" target="_top" xlink:title="emfaultset3d.h">
<polygon fill="white" stroke="black" points="489.5,-0.5 489.5,-21.5 570.5,-21.5 570.5,-0.5 489.5,-0.5"/>
<text text-anchor="middle" x="530" y="-8.5" font-family="Helvetica,sans-Serif" font-size="10.00">emfaultset3d.h</text>
</a>
</g>
<!-- Node9&#45;&gt;Node10 -->
<g id="edge18" class="edge"><title>Node9&#45;&gt;Node10</title>
<path fill="none" stroke="midnightblue" d="M530,-48.1906C530,-39.1684 530,-28.9941 530,-21.5707"/>
<polygon fill="midnightblue" stroke="midnightblue" points="526.5,-48.3619 530,-58.3619 533.5,-48.3619 526.5,-48.3619"/>
</g>
<!-- Node11&#45;&gt;Node9 -->
<g id="edge22" class="edge"><title>Node11&#45;&gt;Node9</title>
<path fill="none" stroke="midnightblue" d="M554.667,-107.667C548.688,-98.2948 541.739,-87.4019 536.743,-79.5707"/>
<polygon fill="midnightblue" stroke="midnightblue" points="551.885,-109.814 560.214,-116.362 557.786,-106.049 551.885,-109.814"/>
</g>
<!-- Node13 -->
<g id="node26" class="node"><title>Node13</title>
<a xlink:href="emhorizon2d_8h.html" target="_top" xlink:title="emhorizon2d.h">
<polygon fill="white" stroke="black" points="350,-174.5 350,-195.5 430,-195.5 430,-174.5 350,-174.5"/>
<text text-anchor="middle" x="390" y="-182.5" font-family="Helvetica,sans-Serif" font-size="10.00">emhorizon2d.h</text>
</a>
</g>
<!-- Node12&#45;&gt;Node13 -->
<g id="edge26" class="edge"><title>Node12&#45;&gt;Node13</title>
<path fill="none" stroke="midnightblue" d="M460.314,-282.101C442.501,-257.502 411.971,-215.341 397.733,-195.679"/>
<polygon fill="midnightblue" stroke="midnightblue" points="457.548,-284.248 466.248,-290.295 463.218,-280.143 457.548,-284.248"/>
</g>
<!-- Node15 -->
<g id="node30" class="node"><title>Node15</title>
<a xlink:href="empolygonbody_8h.html" target="_top" xlink:title="empolygonbody.h">
<polygon fill="white" stroke="black" points="217.5,-232.5 217.5,-253.5 310.5,-253.5 310.5,-232.5 217.5,-232.5"/>
<text text-anchor="middle" x="264" y="-240.5" font-family="Helvetica,sans-Serif" font-size="10.00">empolygonbody.h</text>
</a>
</g>
<!-- Node14&#45;&gt;Node15 -->
<g id="edge30" class="edge"><title>Node14&#45;&gt;Node15</title>
<path fill="none" stroke="midnightblue" d="M249.668,-280.784C253.145,-271.617 257.113,-261.157 259.99,-253.571"/>
<polygon fill="midnightblue" stroke="midnightblue" points="246.309,-279.771 246.035,-290.362 252.854,-282.253 246.309,-279.771"/>
</g>
<!-- Node16&#45;&gt;Node8 -->
<g id="edge34" class="edge"><title>Node16&#45;&gt;Node8</title>
<path fill="none" stroke="midnightblue" d="M384,-284.624C419.371,-260.488 484.524,-216.031 514.349,-195.679"/>
<polygon fill="midnightblue" stroke="midnightblue" points="381.976,-281.767 375.688,-290.295 385.921,-287.55 381.976,-281.767"/>
</g>
<!-- Node16&#45;&gt;Node15 -->
<g id="edge42" class="edge"><title>Node16&#45;&gt;Node15</title>
<path fill="none" stroke="midnightblue" d="M333.684,-285.101C317.074,-275.066 296.079,-262.381 281.496,-253.571"/>
<polygon fill="midnightblue" stroke="midnightblue" points="332.023,-288.186 342.392,-290.362 335.643,-282.195 332.023,-288.186"/>
</g>
<!-- Node17 -->
<g id="node35" class="node"><title>Node17</title>
<a xlink:href="emhorizon_8h.html" target="_top" xlink:title="emhorizon.h">
<polygon fill="white" stroke="black" points="328,-232.5 328,-253.5 398,-253.5 398,-232.5 328,-232.5"/>
<text text-anchor="middle" x="363" y="-240.5" font-family="Helvetica,sans-Serif" font-size="10.00">emhorizon.h</text>
</a>
</g>
<!-- Node16&#45;&gt;Node17 -->
<g id="edge36" class="edge"><title>Node16&#45;&gt;Node17</title>
<path fill="none" stroke="midnightblue" d="M361.076,-280.191C361.543,-271.168 362.069,-260.994 362.453,-253.571"/>
<polygon fill="midnightblue" stroke="midnightblue" points="357.572,-280.194 360.55,-290.362 364.562,-280.556 357.572,-280.194"/>
</g>
<!-- Node17&#45;&gt;Node4 -->
<g id="edge40" class="edge"><title>Node17&#45;&gt;Node4</title>
<path fill="none" stroke="midnightblue" d="M319.896,-229.413C287.067,-219.065 242.53,-205.026 212.384,-195.523"/>
<polygon fill="midnightblue" stroke="midnightblue" points="319.089,-232.828 329.679,-232.497 321.194,-226.152 319.089,-232.828"/>
</g>
<!-- Node17&#45;&gt;Node13 -->
<g id="edge38" class="edge"><title>Node17&#45;&gt;Node13</title>
<path fill="none" stroke="midnightblue" d="M372.274,-223.079C376.573,-213.842 381.51,-203.239 385.079,-195.571"/>
<polygon fill="midnightblue" stroke="midnightblue" points="369,-221.819 367.952,-232.362 375.346,-224.773 369,-221.819"/>
</g>
</g>
</svg>
