<?xml version="1.0" encoding="UTF-8" standalone="no"?>
<!DOCTYPE svg PUBLIC "-//W3C//DTD SVG 1.1//EN"
 "http://www.w3.org/Graphics/SVG/1.1/DTD/svg11.dtd">
<!-- Generated by graphviz version 2.26.0 (20091210.2329)
 -->
<!-- Title: safefileio.h Pages: 1 -->
<svg width="910pt" height="842pt"
 viewBox="0.00 0.00 910.00 842.00" xmlns="http://www.w3.org/2000/svg" xmlns:xlink="http://www.w3.org/1999/xlink">
<g id="graph1" class="graph" transform="scale(1 1) rotate(0) translate(4 838)">
<title>safefileio.h</title>
<polygon fill="white" stroke="white" points="-4,5 -4,-838 907,-838 907,5 -4,5"/>
<!-- Node1 -->
<g id="node1" class="node"><title>Node1</title>
<polygon fill="#bfbfbf" stroke="black" points="10,-812.5 10,-833.5 74,-833.5 74,-812.5 10,-812.5"/>
<text text-anchor="middle" x="42" y="-820.5" font-family="Helvetica,sans-Serif" font-size="10.00">safefileio.h</text>
</g>
<!-- Node2 -->
<g id="node3" class="node"><title>Node2</title>
<polygon fill="white" stroke="#bfbfbf" points="334.5,-0.5 334.5,-21.5 401.5,-21.5 401.5,-0.5 334.5,-0.5"/>
<text text-anchor="middle" x="368" y="-8.5" font-family="Helvetica,sans-Serif" font-size="10.00">basicmod.h</text>
</g>
<!-- Node1&#45;&gt;Node2 -->
<g id="edge2" class="edge"><title>Node1&#45;&gt;Node2</title>
<path fill="none" stroke="midnightblue" d="M35.252,-812.275C23.3795,-792.346 0,-747.909 0,-707 0,-707 0,-707 0,-127 0,-87.783 21.0339,-77.603 55,-58 99.9997,-32.0292 249.311,-18.7809 324.271,-13.6305"/>
<polygon fill="midnightblue" stroke="midnightblue" points="324.592,-17.117 334.336,-12.957 324.125,-10.1326 324.592,-17.117"/>
</g>
<!-- Node3 -->
<g id="node5" class="node"><title>Node3</title>
<a xlink:href="od__iostream_8h.html" target="_top" xlink:title="od_iostream.h">
<polygon fill="white" stroke="black" points="46,-754.5 46,-775.5 124,-775.5 124,-754.5 46,-754.5"/>
<text text-anchor="middle" x="85" y="-762.5" font-family="Helvetica,sans-Serif" font-size="10.00">od_iostream.h</text>
</a>
</g>
<!-- Node1&#45;&gt;Node3 -->
<g id="edge4" class="edge"><title>Node1&#45;&gt;Node3</title>
<path fill="none" stroke="midnightblue" d="M49.8869,-812.362C55.827,-804.35 64.1224,-793.161 71.1588,-783.67"/>
<polygon fill="midnightblue" stroke="midnightblue" points="74.0191,-785.688 77.1631,-775.571 68.3959,-781.519 74.0191,-785.688"/>
</g>
<!-- Node3&#45;&gt;Node2 -->
<g id="edge6" class="edge"><title>Node3&#45;&gt;Node2</title>
<path fill="none" stroke="midnightblue" d="M77.4486,-754.389C64.1628,-734.648 38,-690.503 38,-649 38,-649 38,-649 38,-127 38,-88.0584 58.5538,-77.9447 92,-58 130.438,-35.0783 256.389,-20.8136 324.062,-14.612"/>
<polygon fill="midnightblue" stroke="midnightblue" points="324.753,-18.0642 334.401,-13.6858 324.128,-11.0922 324.753,-18.0642"/>
</g>
<!-- Node4 -->
<g id="node8" class="node"><title>Node4</title>
<a xlink:href="od__istream_8h.html" target="_top" xlink:title="od_istream.h">
<polygon fill="white" stroke="black" points="186.5,-696.5 186.5,-717.5 259.5,-717.5 259.5,-696.5 186.5,-696.5"/>
<text text-anchor="middle" x="223" y="-704.5" font-family="Helvetica,sans-Serif" font-size="10.00">od_istream.h</text>
</a>
</g>
<!-- Node3&#45;&gt;Node4 -->
<g id="edge8" class="edge"><title>Node3&#45;&gt;Node4</title>
<path fill="none" stroke="midnightblue" d="M109.991,-754.497C131.933,-745.275 164.066,-731.769 188.464,-721.515"/>
<polygon fill="midnightblue" stroke="midnightblue" points="189.866,-724.722 197.729,-717.621 187.154,-718.269 189.866,-724.722"/>
</g>
<!-- Node34 -->
<g id="node94" class="node"><title>Node34</title>
<a xlink:href="od__ostream_8h.html" target="_top" xlink:title="od_ostream.h">
<polygon fill="white" stroke="black" points="66,-696.5 66,-717.5 142,-717.5 142,-696.5 66,-696.5"/>
<text text-anchor="middle" x="104" y="-704.5" font-family="Helvetica,sans-Serif" font-size="10.00">od_ostream.h</text>
</a>
</g>
<!-- Node3&#45;&gt;Node34 -->
<g id="edge120" class="edge"><title>Node3&#45;&gt;Node34</title>
<path fill="none" stroke="midnightblue" d="M88.4849,-754.362C90.9757,-746.758 94.4037,-736.294 97.4041,-727.135"/>
<polygon fill="midnightblue" stroke="midnightblue" points="100.75,-728.163 100.537,-717.571 94.098,-725.984 100.75,-728.163"/>
</g>
<!-- Node4&#45;&gt;Node2 -->
<g id="edge10" class="edge"><title>Node4&#45;&gt;Node2</title>
<path fill="none" stroke="midnightblue" d="M246.959,-696.436C281.189,-679.525 340,-642.916 340,-591 340,-591 340,-591 340,-533 340,-466.372 411.851,-484.603 447,-428 489.716,-359.212 490.135,-334.24 501,-254 513.259,-163.461 495.501,-129.8 439,-58 428.75,-44.9746 413.859,-34.3429 400.358,-26.5069"/>
<polygon fill="midnightblue" stroke="midnightblue" points="401.757,-23.2822 391.307,-21.5335 398.386,-29.4169 401.757,-23.2822"/>
</g>
<!-- Node5 -->
<g id="node11" class="node"><title>Node5</title>
<a xlink:href="od__stream_8h.html" target="_top" xlink:title="od_stream.h">
<polygon fill="white" stroke="black" points="187.5,-638.5 187.5,-659.5 258.5,-659.5 258.5,-638.5 187.5,-638.5"/>
<text text-anchor="middle" x="223" y="-646.5" font-family="Helvetica,sans-Serif" font-size="10.00">od_stream.h</text>
</a>
</g>
<!-- Node4&#45;&gt;Node5 -->
<g id="edge12" class="edge"><title>Node4&#45;&gt;Node5</title>
<path fill="none" stroke="midnightblue" d="M223,-696.362C223,-688.922 223,-678.743 223,-669.728"/>
<polygon fill="midnightblue" stroke="midnightblue" points="226.5,-669.571 223,-659.571 219.5,-669.571 226.5,-669.571"/>
</g>
<!-- Node5&#45;&gt;Node2 -->
<g id="edge14" class="edge"><title>Node5&#45;&gt;Node2</title>
<path fill="none" stroke="midnightblue" d="M188.654,-638.332C170.028,-630.908 148.015,-619.206 134,-602 113.836,-577.244 114,-564.929 114,-533 114,-533 114,-533 114,-127 114,-89.8949 130.335,-78.8913 161,-58 187.197,-40.1527 271.662,-25.0678 324.254,-17.0921"/>
<polygon fill="midnightblue" stroke="midnightblue" points="324.945,-20.5279 334.32,-15.5931 323.914,-13.6042 324.945,-20.5279"/>
</g>
<!-- Node6 -->
<g id="node14" class="node"><title>Node6</title>
<a xlink:href="bufstring_8h.html" target="_top" xlink:title="bufstring.h">
<polygon fill="white" stroke="black" points="282,-348.5 282,-369.5 344,-369.5 344,-348.5 282,-348.5"/>
<text text-anchor="middle" x="313" y="-356.5" font-family="Helvetica,sans-Serif" font-size="10.00">bufstring.h</text>
</a>
</g>
<!-- Node5&#45;&gt;Node6 -->
<g id="edge16" class="edge"><title>Node5&#45;&gt;Node6</title>
<path fill="none" stroke="midnightblue" d="M241.801,-638.356C254.87,-630.042 271.725,-617.342 282,-602 299.767,-575.471 302,-564.929 302,-533 302,-533 302,-533 302,-475 302,-441.448 306.617,-402.68 309.869,-379.538"/>
<polygon fill="midnightblue" stroke="midnightblue" points="313.35,-379.925 311.329,-369.524 306.423,-378.915 313.35,-379.925"/>
</g>
<!-- Node23 -->
<g id="node59" class="node"><title>Node23</title>
<a xlink:href="uistring_8h.html" target="_top" xlink:title="uistring.h">
<polygon fill="white" stroke="black" points="571,-580.5 571,-601.5 627,-601.5 627,-580.5 571,-580.5"/>
<text text-anchor="middle" x="599" y="-588.5" font-family="Helvetica,sans-Serif" font-size="10.00">uistring.h</text>
</a>
</g>
<!-- Node5&#45;&gt;Node23 -->
<g id="edge72" class="edge"><title>Node5&#45;&gt;Node23</title>
<path fill="none" stroke="midnightblue" d="M258.712,-643.491C329.648,-632.549 487.741,-608.162 560.723,-596.904"/>
<polygon fill="midnightblue" stroke="midnightblue" points="561.504,-600.326 570.853,-595.342 560.436,-593.407 561.504,-600.326"/>
</g>
<!-- Node32 -->
<g id="node90" class="node"><title>Node32</title>
<a xlink:href="od__iosfwd_8h.html" target="_top" xlink:title="od_iosfwd.h">
<polygon fill="white" stroke="black" points="142.5,-580.5 142.5,-601.5 211.5,-601.5 211.5,-580.5 142.5,-580.5"/>
<text text-anchor="middle" x="177" y="-588.5" font-family="Helvetica,sans-Serif" font-size="10.00">od_iosfwd.h</text>
</a>
</g>
<!-- Node5&#45;&gt;Node32 -->
<g id="edge116" class="edge"><title>Node5&#45;&gt;Node32</title>
<path fill="none" stroke="midnightblue" d="M214.563,-638.362C208.208,-630.35 199.334,-619.161 191.807,-609.67"/>
<polygon fill="midnightblue" stroke="midnightblue" points="194.34,-607.231 185.384,-601.571 188.855,-611.581 194.34,-607.231"/>
</g>
<!-- Node33 -->
<g id="node92" class="node"><title>Node33</title>
<polygon fill="white" stroke="#bfbfbf" points="228.5,-580.5 228.5,-601.5 273.5,-601.5 273.5,-580.5 228.5,-580.5"/>
<text text-anchor="middle" x="251" y="-588.5" font-family="Helvetica,sans-Serif" font-size="10.00">iosfwd</text>
</g>
<!-- Node5&#45;&gt;Node33 -->
<g id="edge118" class="edge"><title>Node5&#45;&gt;Node33</title>
<path fill="none" stroke="midnightblue" d="M228.136,-638.362C231.846,-630.677 236.967,-620.069 241.422,-610.84"/>
<polygon fill="midnightblue" stroke="midnightblue" points="244.701,-612.098 245.897,-601.571 238.397,-609.055 244.701,-612.098"/>
</g>
<!-- Node6&#45;&gt;Node2 -->
<g id="edge18" class="edge"><title>Node6&#45;&gt;Node2</title>
<path fill="none" stroke="midnightblue" d="M315.656,-348.202C320.438,-327.79 330,-282.08 330,-243 330,-243 330,-243 330,-127 330,-91.7411 346.051,-53.3154 357.289,-30.7323"/>
<polygon fill="midnightblue" stroke="midnightblue" points="360.418,-32.3005 361.895,-21.809 354.198,-29.0901 360.418,-32.3005"/>
</g>
<!-- Node7 -->
<g id="node17" class="node"><title>Node7</title>
<a xlink:href="fixedstring_8h.html" target="_top" xlink:title="fixedstring.h">
<polygon fill="white" stroke="black" points="406,-290.5 406,-311.5 476,-311.5 476,-290.5 406,-290.5"/>
<text text-anchor="middle" x="441" y="-298.5" font-family="Helvetica,sans-Serif" font-size="10.00">fixedstring.h</text>
</a>
</g>
<!-- Node6&#45;&gt;Node7 -->
<g id="edge20" class="edge"><title>Node6&#45;&gt;Node7</title>
<path fill="none" stroke="midnightblue" d="M336.18,-348.497C356.352,-339.356 385.81,-326.008 408.364,-315.788"/>
<polygon fill="midnightblue" stroke="midnightblue" points="409.896,-318.937 417.56,-311.621 407.007,-312.561 409.896,-318.937"/>
</g>
<!-- Node20 -->
<g id="node50" class="node"><title>Node20</title>
<a xlink:href="string2_8h.html" target="_top" xlink:title="string2.h">
<polygon fill="white" stroke="black" points="248,-116.5 248,-137.5 302,-137.5 302,-116.5 248,-116.5"/>
<text text-anchor="middle" x="275" y="-124.5" font-family="Helvetica,sans-Serif" font-size="10.00">string2.h</text>
</a>
</g>
<!-- Node6&#45;&gt;Node20 -->
<g id="edge60" class="edge"><title>Node6&#45;&gt;Node20</title>
<path fill="none" stroke="midnightblue" d="M311.268,-348.429C305.408,-312.648 286.246,-195.663 278.398,-147.748"/>
<polygon fill="midnightblue" stroke="midnightblue" points="281.812,-146.936 276.742,-137.634 274.904,-148.068 281.812,-146.936"/>
</g>
<!-- Node7&#45;&gt;Node2 -->
<g id="edge22" class="edge"><title>Node7&#45;&gt;Node2</title>
<path fill="none" stroke="midnightblue" d="M435.531,-290.448C425.688,-270.444 406,-225.388 406,-185 406,-185 406,-185 406,-127 406,-91.7411 389.949,-53.3154 378.711,-30.7323"/>
<polygon fill="midnightblue" stroke="midnightblue" points="381.802,-29.0901 374.105,-21.809 375.582,-32.3005 381.802,-29.0901"/>
</g>
<!-- Node8 -->
<g id="node20" class="node"><title>Node8</title>
<a xlink:href="odstring_8h.html" target="_top" xlink:title="odstring.h">
<polygon fill="white" stroke="black" points="433.5,-232.5 433.5,-253.5 492.5,-253.5 492.5,-232.5 433.5,-232.5"/>
<text text-anchor="middle" x="463" y="-240.5" font-family="Helvetica,sans-Serif" font-size="10.00">odstring.h</text>
</a>
</g>
<!-- Node7&#45;&gt;Node8 -->
<g id="edge24" class="edge"><title>Node7&#45;&gt;Node8</title>
<path fill="none" stroke="midnightblue" d="M445.035,-290.362C447.919,-282.758 451.888,-272.294 455.363,-263.135"/>
<polygon fill="midnightblue" stroke="midnightblue" points="458.716,-264.162 458.99,-253.571 452.171,-261.679 458.716,-264.162"/>
</g>
<!-- Node8&#45;&gt;Node2 -->
<g id="edge26" class="edge"><title>Node8&#45;&gt;Node2</title>
<path fill="none" stroke="midnightblue" d="M462.702,-232.161C461.436,-202.293 454.798,-117.103 420,-58 413.151,-46.3667 402.473,-35.9898 392.57,-27.9649"/>
<polygon fill="midnightblue" stroke="midnightblue" points="394.6,-25.1111 384.536,-21.8013 390.34,-30.6651 394.6,-25.1111"/>
</g>
<!-- Node9 -->
<g id="node23" class="node"><title>Node9</title>
<a xlink:href="gendefs_8h.html" target="_top" xlink:title="gendefs.h">
<polygon fill="white" stroke="black" points="691.5,-174.5 691.5,-195.5 750.5,-195.5 750.5,-174.5 691.5,-174.5"/>
<text text-anchor="middle" x="721" y="-182.5" font-family="Helvetica,sans-Serif" font-size="10.00">gendefs.h</text>
</a>
</g>
<!-- Node8&#45;&gt;Node9 -->
<g id="edge28" class="edge"><title>Node8&#45;&gt;Node9</title>
<path fill="none" stroke="midnightblue" d="M492.596,-236.347C539.129,-225.886 629.447,-205.582 681.481,-193.884"/>
<polygon fill="midnightblue" stroke="midnightblue" points="682.364,-197.273 691.353,-191.665 680.829,-190.443 682.364,-197.273"/>
</g>
<!-- Node10 -->
<g id="node25" class="node"><title>Node10</title>
<a xlink:href="undefval_8h.html" target="_top" xlink:title="undefval.h">
<polygon fill="white" stroke="black" points="598,-116.5 598,-137.5 660,-137.5 660,-116.5 598,-116.5"/>
<text text-anchor="middle" x="629" y="-124.5" font-family="Helvetica,sans-Serif" font-size="10.00">undefval.h</text>
</a>
</g>
<!-- Node9&#45;&gt;Node10 -->
<g id="edge30" class="edge"><title>Node9&#45;&gt;Node10</title>
<path fill="none" stroke="midnightblue" d="M704.126,-174.362C690.249,-165.614 670.366,-153.079 654.54,-143.101"/>
<polygon fill="midnightblue" stroke="midnightblue" points="656.093,-139.943 645.767,-137.571 652.36,-145.864 656.093,-139.943"/>
</g>
<!-- Node17 -->
<g id="node42" class="node"><title>Node17</title>
<a xlink:href="commontypes_8h.html" target="_top" xlink:title="commontypes.h">
<polygon fill="white" stroke="black" points="678,-116.5 678,-137.5 764,-137.5 764,-116.5 678,-116.5"/>
<text text-anchor="middle" x="721" y="-124.5" font-family="Helvetica,sans-Serif" font-size="10.00">commontypes.h</text>
</a>
</g>
<!-- Node9&#45;&gt;Node17 -->
<g id="edge50" class="edge"><title>Node9&#45;&gt;Node17</title>
<path fill="none" stroke="midnightblue" d="M721,-174.362C721,-166.922 721,-156.743 721,-147.728"/>
<polygon fill="midnightblue" stroke="midnightblue" points="724.5,-147.571 721,-137.571 717.5,-147.571 724.5,-147.571"/>
</g>
<!-- Node18 -->
<g id="node45" class="node"><title>Node18</title>
<a xlink:href="errmsg_8h.html" target="_top" xlink:title="errmsg.h">
<polygon fill="white" stroke="black" points="781.5,-116.5 781.5,-137.5 836.5,-137.5 836.5,-116.5 781.5,-116.5"/>
<text text-anchor="middle" x="809" y="-124.5" font-family="Helvetica,sans-Serif" font-size="10.00">errmsg.h</text>
</a>
</g>
<!-- Node9&#45;&gt;Node18 -->
<g id="edge54" class="edge"><title>Node9&#45;&gt;Node18</title>
<path fill="none" stroke="midnightblue" d="M737.141,-174.362C750.414,-165.614 769.432,-153.079 784.57,-143.101"/>
<polygon fill="midnightblue" stroke="midnightblue" points="786.538,-145.996 792.962,-137.571 782.686,-140.151 786.538,-145.996"/>
</g>
<!-- Node10&#45;&gt;Node2 -->
<g id="edge32" class="edge"><title>Node10&#45;&gt;Node2</title>
<path fill="none" stroke="midnightblue" d="M630.169,-116.455C631.215,-101.294 630.652,-73.4629 615,-58 586.908,-30.2473 475.149,-18.2468 412.018,-13.5951"/>
<polygon fill="midnightblue" stroke="midnightblue" points="412.171,-10.0972 401.949,-12.885 411.678,-17.0799 412.171,-10.0972"/>
</g>
<!-- Node11 -->
<g id="node28" class="node"><title>Node11</title>
<a xlink:href="commondefs_8h.html" target="_top" xlink:title="commondefs.h">
<polygon fill="white" stroke="black" points="661.5,-58.5 661.5,-79.5 742.5,-79.5 742.5,-58.5 661.5,-58.5"/>
<text text-anchor="middle" x="702" y="-66.5" font-family="Helvetica,sans-Serif" font-size="10.00">commondefs.h</text>
</a>
</g>
<!-- Node10&#45;&gt;Node11 -->
<g id="edge34" class="edge"><title>Node10&#45;&gt;Node11</title>
<path fill="none" stroke="midnightblue" d="M642.389,-116.362C653.091,-107.859 668.296,-95.7785 680.671,-85.9466"/>
<polygon fill="midnightblue" stroke="midnightblue" points="683.043,-88.5318 688.696,-79.5707 678.689,-83.0511 683.043,-88.5318"/>
</g>
<!-- Node15 -->
<g id="node37" class="node"><title>Node15</title>
<a xlink:href="plftypes_8h.html" target="_top" xlink:title="plftypes.h">
<polygon fill="white" stroke="black" points="547.5,-58.5 547.5,-79.5 606.5,-79.5 606.5,-58.5 547.5,-58.5"/>
<text text-anchor="middle" x="577" y="-66.5" font-family="Helvetica,sans-Serif" font-size="10.00">plftypes.h</text>
</a>
</g>
<!-- Node10&#45;&gt;Node15 -->
<g id="edge44" class="edge"><title>Node10&#45;&gt;Node15</title>
<path fill="none" stroke="midnightblue" d="M619.462,-116.362C612.132,-108.186 601.837,-96.7025 593.219,-87.0907"/>
<polygon fill="midnightblue" stroke="midnightblue" points="595.759,-84.68 586.477,-79.5707 590.547,-89.3528 595.759,-84.68"/>
</g>
<!-- Node11&#45;&gt;Node2 -->
<g id="edge36" class="edge"><title>Node11&#45;&gt;Node2</title>
<path fill="none" stroke="midnightblue" d="M661.339,-60.5602C656.843,-59.6736 652.327,-58.8036 648,-58 564.683,-42.5262 466.993,-26.6388 411.809,-17.872"/>
<polygon fill="midnightblue" stroke="midnightblue" points="412.109,-14.3759 401.685,-16.2677 411.014,-21.2897 412.109,-14.3759"/>
</g>
<!-- Node12 -->
<g id="node31" class="node"><title>Node12</title>
<a xlink:href="plfdefs_8h.html" target="_top" xlink:title="plfdefs.h">
<polygon fill="white" stroke="black" points="616,-0.5 616,-21.5 670,-21.5 670,-0.5 616,-0.5"/>
<text text-anchor="middle" x="643" y="-8.5" font-family="Helvetica,sans-Serif" font-size="10.00">plfdefs.h</text>
</a>
</g>
<!-- Node11&#45;&gt;Node12 -->
<g id="edge38" class="edge"><title>Node11&#45;&gt;Node12</title>
<path fill="none" stroke="midnightblue" d="M691.178,-58.3619C682.779,-50.1043 670.946,-38.4725 661.11,-28.8029"/>
<polygon fill="midnightblue" stroke="midnightblue" points="663.338,-26.0851 653.753,-21.5707 658.431,-31.077 663.338,-26.0851"/>
</g>
<!-- Node13 -->
<g id="node33" class="node"><title>Node13</title>
<polygon fill="white" stroke="#bfbfbf" points="788.5,-0.5 788.5,-21.5 847.5,-21.5 847.5,-0.5 788.5,-0.5"/>
<text text-anchor="middle" x="818" y="-8.5" font-family="Helvetica,sans-Serif" font-size="10.00">stdexcept</text>
</g>
<!-- Node11&#45;&gt;Node13 -->
<g id="edge40" class="edge"><title>Node11&#45;&gt;Node13</title>
<path fill="none" stroke="midnightblue" d="M723.007,-58.4966C741.043,-49.4786 767.27,-36.3649 787.599,-26.2006"/>
<polygon fill="midnightblue" stroke="midnightblue" points="789.379,-29.2239 796.758,-21.6212 786.248,-22.9629 789.379,-29.2239"/>
</g>
<!-- Node14 -->
<g id="node35" class="node"><title>Node14</title>
<polygon fill="white" stroke="#bfbfbf" points="687.5,-0.5 687.5,-21.5 722.5,-21.5 722.5,-0.5 687.5,-0.5"/>
<text text-anchor="middle" x="705" y="-8.5" font-family="Helvetica,sans-Serif" font-size="10.00">new</text>
</g>
<!-- Node11&#45;&gt;Node14 -->
<g id="edge42" class="edge"><title>Node11&#45;&gt;Node14</title>
<path fill="none" stroke="midnightblue" d="M702.55,-58.3619C702.935,-50.9219 703.462,-40.7427 703.928,-31.7276"/>
<polygon fill="midnightblue" stroke="midnightblue" points="707.432,-31.7381 704.453,-21.5707 700.441,-31.3765 707.432,-31.7381"/>
</g>
<!-- Node15&#45;&gt;Node12 -->
<g id="edge46" class="edge"><title>Node15&#45;&gt;Node12</title>
<path fill="none" stroke="midnightblue" d="M589.105,-58.3619C598.688,-49.9408 612.264,-38.0105 623.393,-28.2308"/>
<polygon fill="midnightblue" stroke="midnightblue" points="625.77,-30.8009 630.971,-21.5707 621.149,-25.5427 625.77,-30.8009"/>
</g>
<!-- Node16 -->
<g id="node40" class="node"><title>Node16</title>
<polygon fill="white" stroke="#bfbfbf" points="549.5,-0.5 549.5,-21.5 598.5,-21.5 598.5,-0.5 549.5,-0.5"/>
<text text-anchor="middle" x="574" y="-8.5" font-family="Helvetica,sans-Serif" font-size="10.00">stdint.h</text>
</g>
<!-- Node15&#45;&gt;Node16 -->
<g id="edge48" class="edge"><title>Node15&#45;&gt;Node16</title>
<path fill="none" stroke="midnightblue" d="M576.45,-58.3619C576.065,-50.9219 575.538,-40.7427 575.072,-31.7276"/>
<polygon fill="midnightblue" stroke="midnightblue" points="578.559,-31.3765 574.547,-21.5707 571.568,-31.7381 578.559,-31.3765"/>
</g>
<!-- Node17&#45;&gt;Node11 -->
<g id="edge52" class="edge"><title>Node17&#45;&gt;Node11</title>
<path fill="none" stroke="midnightblue" d="M717.515,-116.362C715.024,-108.758 711.596,-98.294 708.596,-89.1349"/>
<polygon fill="midnightblue" stroke="midnightblue" points="711.902,-87.9841 705.463,-79.5707 705.25,-90.1634 711.902,-87.9841"/>
</g>
<!-- Node18&#45;&gt;Node11 -->
<g id="edge56" class="edge"><title>Node18&#45;&gt;Node11</title>
<path fill="none" stroke="midnightblue" d="M789.375,-116.362C772.859,-107.409 749.026,-94.4908 730.422,-84.4064"/>
<polygon fill="midnightblue" stroke="midnightblue" points="731.96,-81.2592 721.501,-79.5707 728.625,-87.4132 731.96,-81.2592"/>
</g>
<!-- Node19 -->
<g id="node48" class="node"><title>Node19</title>
<polygon fill="white" stroke="#bfbfbf" points="783.5,-58.5 783.5,-79.5 834.5,-79.5 834.5,-58.5 783.5,-58.5"/>
<text text-anchor="middle" x="809" y="-66.5" font-family="Helvetica,sans-Serif" font-size="10.00">typeinfo</text>
</g>
<!-- Node18&#45;&gt;Node19 -->
<g id="edge58" class="edge"><title>Node18&#45;&gt;Node19</title>
<path fill="none" stroke="midnightblue" d="M809,-116.362C809,-108.922 809,-98.7427 809,-89.7276"/>
<polygon fill="midnightblue" stroke="midnightblue" points="812.5,-89.5706 809,-79.5707 805.5,-89.5707 812.5,-89.5706"/>
</g>
<!-- Node20&#45;&gt;Node2 -->
<g id="edge62" class="edge"><title>Node20&#45;&gt;Node2</title>
<path fill="none" stroke="midnightblue" d="M247.829,-120.796C209.438,-110.769 146.564,-88.9523 171,-58 189.741,-34.262 272.255,-21.2035 324.369,-15.1909"/>
<polygon fill="midnightblue" stroke="midnightblue" points="324.806,-18.6639 334.359,-14.0812 324.033,-11.7067 324.806,-18.6639"/>
</g>
<!-- Node20&#45;&gt;Node11 -->
<g id="edge66" class="edge"><title>Node20&#45;&gt;Node11</title>
<path fill="none" stroke="midnightblue" d="M302.035,-123.328C372.026,-113.821 560.03,-88.284 651.13,-75.9097"/>
<polygon fill="midnightblue" stroke="midnightblue" points="651.781,-79.3536 661.219,-74.5394 650.839,-72.4173 651.781,-79.3536"/>
</g>
<!-- Node20&#45;&gt;Node15 -->
<g id="edge64" class="edge"><title>Node20&#45;&gt;Node15</title>
<path fill="none" stroke="midnightblue" d="M302.066,-121.802C355.552,-111.53 474.992,-88.5909 537.362,-76.6126"/>
<polygon fill="midnightblue" stroke="midnightblue" points="538.066,-80.0415 547.226,-74.7181 536.746,-73.1671 538.066,-80.0415"/>
</g>
<!-- Node21 -->
<g id="node55" class="node"><title>Node21</title>
<polygon fill="white" stroke="#bfbfbf" points="253.5,-58.5 253.5,-79.5 302.5,-79.5 302.5,-58.5 253.5,-58.5"/>
<text text-anchor="middle" x="278" y="-66.5" font-family="Helvetica,sans-Serif" font-size="10.00">ctype.h</text>
</g>
<!-- Node20&#45;&gt;Node21 -->
<g id="edge68" class="edge"><title>Node20&#45;&gt;Node21</title>
<path fill="none" stroke="midnightblue" d="M275.55,-116.362C275.935,-108.922 276.462,-98.7427 276.928,-89.7276"/>
<polygon fill="midnightblue" stroke="midnightblue" points="280.432,-89.7381 277.453,-79.5707 273.441,-89.3765 280.432,-89.7381"/>
</g>
<!-- Node22 -->
<g id="node57" class="node"><title>Node22</title>
<polygon fill="white" stroke="#bfbfbf" points="180,-58.5 180,-79.5 236,-79.5 236,-58.5 180,-58.5"/>
<text text-anchor="middle" x="208" y="-66.5" font-family="Helvetica,sans-Serif" font-size="10.00">wctype.h</text>
</g>
<!-- Node20&#45;&gt;Node22 -->
<g id="edge70" class="edge"><title>Node20&#45;&gt;Node22</title>
<path fill="none" stroke="midnightblue" d="M262.711,-116.362C252.983,-107.941 239.202,-96.0105 227.905,-86.2308"/>
<polygon fill="midnightblue" stroke="midnightblue" points="230.062,-83.4695 220.211,-79.5707 225.481,-88.7619 230.062,-83.4695"/>
</g>
<!-- Node23&#45;&gt;Node9 -->
<g id="edge74" class="edge"><title>Node23&#45;&gt;Node9</title>
<path fill="none" stroke="midnightblue" d="M627.233,-586.427C702.453,-573.45 902,-533.51 902,-475 902,-475 902,-475 902,-301 902,-234.38 814.005,-204.267 760.725,-192.14"/>
<polygon fill="midnightblue" stroke="midnightblue" points="761.402,-188.706 750.888,-190.015 759.924,-195.548 761.402,-188.706"/>
</g>
<!-- Node23&#45;&gt;Node20 -->
<g id="edge90" class="edge"><title>Node23&#45;&gt;Node20</title>
<path fill="none" stroke="midnightblue" d="M570.767,-582.572C488.371,-556.05 254,-466.098 254,-301 254,-301 254,-301 254,-243 254,-209.077 262.803,-170.454 269.01,-147.438"/>
<polygon fill="midnightblue" stroke="midnightblue" points="272.395,-148.33 271.719,-137.757 265.654,-146.444 272.395,-148.33"/>
</g>
<!-- Node24 -->
<g id="node62" class="node"><title>Node24</title>
<a xlink:href="keystrs_8h.html" target="_top" xlink:title="keystrs.h">
<polygon fill="white" stroke="black" points="779.5,-348.5 779.5,-369.5 836.5,-369.5 836.5,-348.5 779.5,-348.5"/>
<text text-anchor="middle" x="808" y="-356.5" font-family="Helvetica,sans-Serif" font-size="10.00">keystrs.h</text>
</a>
</g>
<!-- Node23&#45;&gt;Node24 -->
<g id="edge76" class="edge"><title>Node23&#45;&gt;Node24</title>
<path fill="none" stroke="midnightblue" d="M627.135,-582.058C647.728,-574.442 675.384,-561.871 695,-544 748.176,-495.556 784.938,-416.325 800.154,-379.283"/>
<polygon fill="midnightblue" stroke="midnightblue" points="803.556,-380.202 804.025,-369.617 797.058,-377.599 803.556,-380.202"/>
</g>
<!-- Node25 -->
<g id="node66" class="node"><title>Node25</title>
<a xlink:href="threadlock_8h.html" target="_top" xlink:title="threadlock.h">
<polygon fill="white" stroke="black" points="510,-116.5 510,-137.5 580,-137.5 580,-116.5 510,-116.5"/>
<text text-anchor="middle" x="545" y="-124.5" font-family="Helvetica,sans-Serif" font-size="10.00">threadlock.h</text>
</a>
</g>
<!-- Node23&#45;&gt;Node25 -->
<g id="edge82" class="edge"><title>Node23&#45;&gt;Node25</title>
<path fill="none" stroke="midnightblue" d="M595.509,-580.481C587.188,-554.798 566.331,-486.695 559,-428 552.004,-371.989 558,-357.446 558,-301 558,-301 558,-301 558,-243 558,-209.389 552.543,-170.638 548.7,-147.516"/>
<polygon fill="midnightblue" stroke="midnightblue" points="552.124,-146.771 546.974,-137.512 545.225,-147.961 552.124,-146.771"/>
</g>
<!-- Node26 -->
<g id="node72" class="node"><title>Node26</title>
<a xlink:href="typeset_8h.html" target="_top" xlink:title="typeset.h">
<polygon fill="white" stroke="black" points="629.5,-522.5 629.5,-543.5 686.5,-543.5 686.5,-522.5 629.5,-522.5"/>
<text text-anchor="middle" x="658" y="-530.5" font-family="Helvetica,sans-Serif" font-size="10.00">typeset.h</text>
</a>
</g>
<!-- Node23&#45;&gt;Node26 -->
<g id="edge92" class="edge"><title>Node23&#45;&gt;Node26</title>
<path fill="none" stroke="midnightblue" d="M609.822,-580.362C618.221,-572.104 630.054,-560.472 639.89,-550.803"/>
<polygon fill="midnightblue" stroke="midnightblue" points="642.569,-553.077 647.247,-543.571 637.662,-548.085 642.569,-553.077"/>
</g>
<!-- Node24&#45;&gt;Node7 -->
<g id="edge80" class="edge"><title>Node24&#45;&gt;Node7</title>
<path fill="none" stroke="midnightblue" d="M779.202,-354.449C715.616,-344.4 562.81,-320.251 486.278,-308.156"/>
<polygon fill="midnightblue" stroke="midnightblue" points="486.426,-304.636 476.002,-306.532 485.334,-311.55 486.426,-304.636"/>
</g>
<!-- Node24&#45;&gt;Node9 -->
<g id="edge78" class="edge"><title>Node24&#45;&gt;Node9</title>
<path fill="none" stroke="midnightblue" d="M808.211,-348.31C808.13,-334.391 806.762,-309.535 799,-290 785.365,-255.686 757.585,-222.603 739.128,-203.029"/>
<polygon fill="midnightblue" stroke="midnightblue" points="741.555,-200.504 732.091,-195.741 736.519,-205.366 741.555,-200.504"/>
</g>
<!-- Node25&#45;&gt;Node2 -->
<g id="edge84" class="edge"><title>Node25&#45;&gt;Node2</title>
<path fill="none" stroke="midnightblue" d="M540.039,-116.363C532.526,-101.342 516.895,-73.9705 496,-58 471.15,-39.007 437.857,-27.0997 411.454,-20.0232"/>
<polygon fill="midnightblue" stroke="midnightblue" points="412.258,-16.6164 401.704,-17.5429 410.532,-23.4004 412.258,-16.6164"/>
</g>
<!-- Node25&#45;&gt;Node11 -->
<g id="edge86" class="edge"><title>Node25&#45;&gt;Node11</title>
<path fill="none" stroke="midnightblue" d="M573.432,-116.497C598.805,-107.123 636.157,-93.3242 664.07,-83.0122"/>
<polygon fill="midnightblue" stroke="midnightblue" points="665.348,-86.2716 673.515,-79.5231 662.922,-79.7054 665.348,-86.2716"/>
</g>
<!-- Node25&#45;&gt;Node15 -->
<g id="edge88" class="edge"><title>Node25&#45;&gt;Node15</title>
<path fill="none" stroke="midnightblue" d="M550.869,-116.362C555.155,-108.595 561.087,-97.8426 566.216,-88.5458"/>
<polygon fill="midnightblue" stroke="midnightblue" points="569.402,-90.0172 571.168,-79.5707 563.273,-86.6357 569.402,-90.0172"/>
</g>
<!-- Node27 -->
<g id="node74" class="node"><title>Node27</title>
<a xlink:href="odset_8h.html" target="_top" xlink:title="odset.h">
<polygon fill="white" stroke="black" points="741.5,-290.5 741.5,-311.5 790.5,-311.5 790.5,-290.5 741.5,-290.5"/>
<text text-anchor="middle" x="766" y="-298.5" font-family="Helvetica,sans-Serif" font-size="10.00">odset.h</text>
</a>
</g>
<!-- Node26&#45;&gt;Node27 -->
<g id="edge94" class="edge"><title>Node26&#45;&gt;Node27</title>
<path fill="none" stroke="midnightblue" d="M672.986,-522.155C684.026,-513.475 698.682,-500.404 708,-486 742.314,-432.956 757.489,-358.251 763.144,-322.158"/>
<polygon fill="midnightblue" stroke="midnightblue" points="766.665,-322.276 764.658,-311.873 759.739,-321.257 766.665,-322.276"/>
</g>
<!-- Node28 -->
<g id="node77" class="node"><title>Node28</title>
<a xlink:href="vectoraccess_8h.html" target="_top" xlink:title="vectoraccess.h">
<polygon fill="white" stroke="black" points="616.5,-464.5 616.5,-485.5 699.5,-485.5 699.5,-464.5 616.5,-464.5"/>
<text text-anchor="middle" x="658" y="-472.5" font-family="Helvetica,sans-Serif" font-size="10.00">vectoraccess.h</text>
</a>
</g>
<!-- Node26&#45;&gt;Node28 -->
<g id="edge98" class="edge"><title>Node26&#45;&gt;Node28</title>
<path fill="none" stroke="midnightblue" d="M658,-522.362C658,-514.922 658,-504.743 658,-495.728"/>
<polygon fill="midnightblue" stroke="midnightblue" points="661.5,-495.571 658,-485.571 654.5,-495.571 661.5,-495.571"/>
</g>
<!-- Node27&#45;&gt;Node9 -->
<g id="edge96" class="edge"><title>Node27&#45;&gt;Node9</title>
<path fill="none" stroke="midnightblue" d="M761.847,-290.295C754.346,-270.959 738.427,-229.923 728.827,-205.177"/>
<polygon fill="midnightblue" stroke="midnightblue" points="732.023,-203.736 725.143,-195.679 725.496,-206.268 732.023,-203.736"/>
</g>
<!-- Node28&#45;&gt;Node9 -->
<g id="edge108" class="edge"><title>Node28&#45;&gt;Node9</title>
<path fill="none" stroke="midnightblue" d="M668.499,-464.288C676.786,-455.283 688.069,-441.718 695,-428 709.343,-399.609 714,-390.808 714,-359 714,-359 714,-359 714,-301 714,-267.537 716.938,-228.743 719.008,-205.571"/>
<polygon fill="midnightblue" stroke="midnightblue" points="722.499,-205.824 719.937,-195.543 715.529,-205.178 722.499,-205.824"/>
</g>
<!-- Node28&#45;&gt;Node13 -->
<g id="edge114" class="edge"><title>Node28&#45;&gt;Node13</title>
<path fill="none" stroke="midnightblue" d="M693.553,-464.417C735.921,-449.972 805.881,-419.997 845,-370 864.601,-344.949 864,-332.808 864,-301 864,-301 864,-301 864,-127 864,-90.7931 844.395,-52.4223 830.783,-30.1439"/>
<polygon fill="midnightblue" stroke="midnightblue" points="833.7,-28.2078 825.391,-21.6344 827.787,-31.9547 833.7,-28.2078"/>
</g>
<!-- Node29 -->
<g id="node79" class="node"><title>Node29</title>
<a xlink:href="debug_8h.html" target="_top" xlink:title="debug.h">
<polygon fill="white" stroke="black" points="387.5,-406.5 387.5,-427.5 438.5,-427.5 438.5,-406.5 387.5,-406.5"/>
<text text-anchor="middle" x="413" y="-414.5" font-family="Helvetica,sans-Serif" font-size="10.00">debug.h</text>
</a>
</g>
<!-- Node28&#45;&gt;Node29 -->
<g id="edge100" class="edge"><title>Node28&#45;&gt;Node29</title>
<path fill="none" stroke="midnightblue" d="M616.439,-465.161C569.196,-453.977 492.883,-435.911 448.375,-425.374"/>
<polygon fill="midnightblue" stroke="midnightblue" points="449.119,-421.954 438.582,-423.056 447.506,-428.766 449.119,-421.954"/>
</g>
<!-- Node30 -->
<g id="node85" class="node"><title>Node30</title>
<polygon fill="white" stroke="#bfbfbf" points="630,-406.5 630,-427.5 686,-427.5 686,-406.5 630,-406.5"/>
<text text-anchor="middle" x="658" y="-414.5" font-family="Helvetica,sans-Serif" font-size="10.00">algorithm</text>
</g>
<!-- Node28&#45;&gt;Node30 -->
<g id="edge110" class="edge"><title>Node28&#45;&gt;Node30</title>
<path fill="none" stroke="midnightblue" d="M658,-464.362C658,-456.922 658,-446.743 658,-437.728"/>
<polygon fill="midnightblue" stroke="midnightblue" points="661.5,-437.571 658,-427.571 654.5,-437.571 661.5,-437.571"/>
</g>
<!-- Node31 -->
<g id="node87" class="node"><title>Node31</title>
<polygon fill="white" stroke="#bfbfbf" points="568,-406.5 568,-427.5 612,-427.5 612,-406.5 568,-406.5"/>
<text text-anchor="middle" x="590" y="-414.5" font-family="Helvetica,sans-Serif" font-size="10.00">vector</text>
</g>
<!-- Node28&#45;&gt;Node31 -->
<g id="edge112" class="edge"><title>Node28&#45;&gt;Node31</title>
<path fill="none" stroke="midnightblue" d="M645.528,-464.362C635.655,-455.941 621.667,-444.011 610.202,-434.231"/>
<polygon fill="midnightblue" stroke="midnightblue" points="612.273,-431.397 602.393,-427.571 607.73,-436.723 612.273,-431.397"/>
</g>
<!-- Node29&#45;&gt;Node2 -->
<g id="edge102" class="edge"><title>Node29&#45;&gt;Node2</title>
<path fill="none" stroke="midnightblue" d="M409.317,-406.039C398.57,-373.041 368,-271.57 368,-185 368,-185 368,-185 368,-127 368,-93.5978 368,-54.7853 368,-31.5939"/>
<polygon fill="midnightblue" stroke="midnightblue" points="371.5,-31.5561 368,-21.5561 364.5,-31.5561 371.5,-31.5561"/>
</g>
<!-- Node29&#45;&gt;Node6 -->
<g id="edge106" class="edge"><title>Node29&#45;&gt;Node6</title>
<path fill="none" stroke="midnightblue" d="M394.658,-406.362C379.434,-397.532 357.559,-384.844 340.28,-374.822"/>
<polygon fill="midnightblue" stroke="midnightblue" points="341.632,-371.56 331.225,-369.571 338.12,-377.615 341.632,-371.56"/>
</g>
<!-- Node29&#45;&gt;Node9 -->
<g id="edge104" class="edge"><title>Node29&#45;&gt;Node9</title>
<path fill="none" stroke="midnightblue" d="M427.034,-406.429C475.939,-369.591 639.113,-246.681 698.846,-201.687"/>
<polygon fill="midnightblue" stroke="midnightblue" points="701.001,-204.446 706.883,-195.634 696.79,-198.854 701.001,-204.446"/>
</g>
<!-- Node34&#45;&gt;Node2 -->
<g id="edge122" class="edge"><title>Node34&#45;&gt;Node2</title>
<path fill="none" stroke="midnightblue" d="M99.625,-696.333C91.75,-676.139 76,-630.777 76,-591 76,-591 76,-591 76,-127 76,-88.5999 95.4487,-78.371 128,-58 160.152,-37.8791 264.323,-22.9507 324.328,-15.7675"/>
<polygon fill="midnightblue" stroke="midnightblue" points="324.753,-19.2417 334.276,-14.5991 323.936,-12.2895 324.753,-19.2417"/>
</g>
<!-- Node34&#45;&gt;Node5 -->
<g id="edge124" class="edge"><title>Node34&#45;&gt;Node5</title>
<path fill="none" stroke="midnightblue" d="M125.55,-696.497C144.136,-687.438 171.202,-674.246 192.095,-664.063"/>
<polygon fill="midnightblue" stroke="midnightblue" points="193.753,-667.149 201.208,-659.621 190.686,-660.856 193.753,-667.149"/>
</g>
</g>
</svg>
