<?xml version="1.0" encoding="UTF-8" standalone="no"?>
<!DOCTYPE svg PUBLIC "-//W3C//DTD SVG 1.1//EN"
 "http://www.w3.org/Graphics/SVG/1.1/DTD/svg11.dtd">
<!-- Generated by graphviz version 2.26.0 (20091210.2329)
 -->
<!-- Title: seisbuf.h Pages: 1 -->
<svg width="418pt" height="88pt"
 viewBox="0.00 0.00 418.00 88.00" xmlns="http://www.w3.org/2000/svg" xmlns:xlink="http://www.w3.org/1999/xlink">
<g id="graph1" class="graph" transform="scale(1 1) rotate(0) translate(4 84)">
<title>seisbuf.h</title>
<polygon fill="white" stroke="white" points="-4,5 -4,-84 415,-84 415,5 -4,5"/>
<!-- Node1 -->
<g id="node1" class="node"><title>Node1</title>
<polygon fill="#bfbfbf" stroke="black" points="172,-58.5 172,-79.5 228,-79.5 228,-58.5 172,-58.5"/>
<text text-anchor="middle" x="200" y="-66.5" font-family="Helvetica,sans-Serif" font-size="10.00">seisbuf.h</text>
</g>
<!-- Node2 -->
<g id="node3" class="node"><title>Node2</title>
<a xlink:href="seis2dto3d_8h.html" target="_top" xlink:title="seis2dto3d.h">
<polygon fill="white" stroke="black" points="0,-0.5 0,-21.5 72,-21.5 72,-0.5 0,-0.5"/>
<text text-anchor="middle" x="36" y="-8.5" font-family="Helvetica,sans-Serif" font-size="10.00">seis2dto3d.h</text>
</a>
</g>
<!-- Node1&#45;&gt;Node2 -->
<g id="edge2" class="edge"><title>Node1&#45;&gt;Node2</title>
<path fill="none" stroke="midnightblue" d="M162.311,-55.6711C132.987,-45.3002 92.8564,-31.1077 65.7623,-21.5257"/>
<polygon fill="midnightblue" stroke="midnightblue" points="161.213,-58.9949 171.807,-59.0294 163.547,-52.3954 161.213,-58.9949"/>
</g>
<!-- Node3 -->
<g id="node5" class="node"><title>Node3</title>
<a xlink:href="seis2dto3dinterpol_8h.html" target="_top" xlink:title="seis2dto3dinterpol.h">
<polygon fill="white" stroke="black" points="90,-0.5 90,-21.5 194,-21.5 194,-0.5 90,-0.5"/>
<text text-anchor="middle" x="142" y="-8.5" font-family="Helvetica,sans-Serif" font-size="10.00">seis2dto3dinterpol.h</text>
</a>
</g>
<!-- Node1&#45;&gt;Node3 -->
<g id="edge4" class="edge"><title>Node1&#45;&gt;Node3</title>
<path fill="none" stroke="midnightblue" d="M182.118,-51.118C172.438,-41.4377 160.81,-29.8098 152.571,-21.5707"/>
<polygon fill="midnightblue" stroke="midnightblue" points="179.816,-53.7657 189.362,-58.3619 184.766,-48.8159 179.816,-53.7657"/>
</g>
<!-- Node4 -->
<g id="node7" class="node"><title>Node4</title>
<a xlink:href="seisbufadapters_8h.html" target="_top" xlink:title="seisbufadapters.h">
<polygon fill="white" stroke="black" points="212,-0.5 212,-21.5 306,-21.5 306,-0.5 212,-0.5"/>
<text text-anchor="middle" x="259" y="-8.5" font-family="Helvetica,sans-Serif" font-size="10.00">seisbufadapters.h</text>
</a>
</g>
<!-- Node1&#45;&gt;Node4 -->
<g id="edge6" class="edge"><title>Node1&#45;&gt;Node4</title>
<path fill="none" stroke="midnightblue" d="M218.19,-51.118C228.037,-41.4377 239.866,-29.8098 248.247,-21.5707"/>
<polygon fill="midnightblue" stroke="midnightblue" points="215.499,-48.8556 210.822,-58.3619 220.406,-53.8474 215.499,-48.8556"/>
</g>
<!-- Node5 -->
<g id="node9" class="node"><title>Node5</title>
<a xlink:href="createlogcube_8h.html" target="_top" xlink:title="createlogcube.h">
<polygon fill="white" stroke="black" points="324,-0.5 324,-21.5 410,-21.5 410,-0.5 324,-0.5"/>
<text text-anchor="middle" x="367" y="-8.5" font-family="Helvetica,sans-Serif" font-size="10.00">createlogcube.h</text>
</a>
</g>
<!-- Node1&#45;&gt;Node5 -->
<g id="edge8" class="edge"><title>Node1&#45;&gt;Node5</title>
<path fill="none" stroke="midnightblue" d="M237.986,-55.8071C267.829,-45.4425 308.841,-31.1988 336.55,-21.5754"/>
<polygon fill="midnightblue" stroke="midnightblue" points="236.627,-52.5739 228.329,-59.1611 238.924,-59.1865 236.627,-52.5739"/>
</g>
</g>
</svg>
