<?xml version="1.0" encoding="UTF-8" standalone="no"?>
<!DOCTYPE svg PUBLIC "-//W3C//DTD SVG 1.1//EN"
 "http://www.w3.org/Graphics/SVG/1.1/DTD/svg11.dtd">
<!-- Generated by graphviz version 2.26.0 (20091210.2329)
 -->
<!-- Title: seistrc.h Pages: 1 -->
<svg width="352pt" height="88pt"
 viewBox="0.00 0.00 352.00 88.00" xmlns="http://www.w3.org/2000/svg" xmlns:xlink="http://www.w3.org/1999/xlink">
<g id="graph1" class="graph" transform="scale(1 1) rotate(0) translate(4 84)">
<title>seistrc.h</title>
<polygon fill="white" stroke="white" points="-4,5 -4,-84 349,-84 349,5 -4,5"/>
<!-- Node1 -->
<g id="node1" class="node"><title>Node1</title>
<polygon fill="#bfbfbf" stroke="black" points="157,-58.5 157,-79.5 211,-79.5 211,-58.5 157,-58.5"/>
<text text-anchor="middle" x="184" y="-66.5" font-family="Helvetica,sans-Serif" font-size="10.00">seistrc.h</text>
</g>
<!-- Node2 -->
<g id="node3" class="node"><title>Node2</title>
<a xlink:href="seisrandomprovider_8h.html" target="_top" xlink:title="seisrandomprovider.h">
<polygon fill="white" stroke="black" points="0,-0.5 0,-21.5 110,-21.5 110,-0.5 0,-0.5"/>
<text text-anchor="middle" x="55" y="-8.5" font-family="Helvetica,sans-Serif" font-size="10.00">seisrandomprovider.h</text>
</a>
</g>
<!-- Node1&#45;&gt;Node2 -->
<g id="edge2" class="edge"><title>Node1&#45;&gt;Node2</title>
<path fill="none" stroke="midnightblue" d="M151.401,-54.3431C128.731,-44.1502 99.0327,-30.7977 78.6231,-21.6212"/>
<polygon fill="midnightblue" stroke="midnightblue" points="150.083,-57.5881 160.639,-58.4966 152.954,-51.2037 150.083,-57.5881"/>
</g>
<!-- Node3 -->
<g id="node5" class="node"><title>Node3</title>
<a xlink:href="seis2deventsnapper_8h.html" target="_top" xlink:title="seis2deventsnapper.h">
<polygon fill="white" stroke="black" points="128,-0.5 128,-21.5 240,-21.5 240,-0.5 128,-0.5"/>
<text text-anchor="middle" x="184" y="-8.5" font-family="Helvetica,sans-Serif" font-size="10.00">seis2deventsnapper.h</text>
</a>
</g>
<!-- Node1&#45;&gt;Node3 -->
<g id="edge4" class="edge"><title>Node1&#45;&gt;Node3</title>
<path fill="none" stroke="midnightblue" d="M184,-48.1906C184,-39.1684 184,-28.9941 184,-21.5707"/>
<polygon fill="midnightblue" stroke="midnightblue" points="180.5,-48.3619 184,-58.3619 187.5,-48.3619 180.5,-48.3619"/>
</g>
<!-- Node4 -->
<g id="node7" class="node"><title>Node4</title>
<a xlink:href="createlogcube_8h.html" target="_top" xlink:title="createlogcube.h">
<polygon fill="white" stroke="black" points="258,-0.5 258,-21.5 344,-21.5 344,-0.5 258,-0.5"/>
<text text-anchor="middle" x="301" y="-8.5" font-family="Helvetica,sans-Serif" font-size="10.00">createlogcube.h</text>
</a>
</g>
<!-- Node1&#45;&gt;Node4 -->
<g id="edge6" class="edge"><title>Node1&#45;&gt;Node4</title>
<path fill="none" stroke="midnightblue" d="M214.396,-53.9319C234.848,-43.7932 261.311,-30.6748 279.574,-21.6212"/>
<polygon fill="midnightblue" stroke="midnightblue" points="212.593,-50.9193 205.188,-58.4966 215.702,-57.1909 212.593,-50.9193"/>
</g>
</g>
</svg>
