<?xml version="1.0" encoding="UTF-8" standalone="no"?>
<!DOCTYPE svg PUBLIC "-//W3C//DTD SVG 1.1//EN"
 "http://www.w3.org/Graphics/SVG/1.1/DTD/svg11.dtd">
<!-- Generated by graphviz version 2.26.0 (20091210.2329)
 -->
<!-- Title: seisstor.h Pages: 1 -->
<svg width="220pt" height="146pt"
 viewBox="0.00 0.00 220.00 146.00" xmlns="http://www.w3.org/2000/svg" xmlns:xlink="http://www.w3.org/1999/xlink">
<g id="graph1" class="graph" transform="scale(1 1) rotate(0) translate(4 142)">
<title>seisstor.h</title>
<polygon fill="white" stroke="white" points="-4,5 -4,-142 217,-142 217,5 -4,5"/>
<!-- Node1 -->
<g id="node1" class="node"><title>Node1</title>
<polygon fill="#bfbfbf" stroke="black" points="108.5,-116.5 108.5,-137.5 167.5,-137.5 167.5,-116.5 108.5,-116.5"/>
<text text-anchor="middle" x="138" y="-124.5" font-family="Helvetica,sans-Serif" font-size="10.00">seisstor.h</text>
</g>
<!-- Node2 -->
<g id="node3" class="node"><title>Node2</title>
<a xlink:href="seisread_8h.html" target="_top" xlink:title="seisread.h">
<polygon fill="white" stroke="black" points="67,-58.5 67,-79.5 129,-79.5 129,-58.5 67,-58.5"/>
<text text-anchor="middle" x="98" y="-66.5" font-family="Helvetica,sans-Serif" font-size="10.00">seisread.h</text>
</a>
</g>
<!-- Node1&#45;&gt;Node2 -->
<g id="edge2" class="edge"><title>Node1&#45;&gt;Node2</title>
<path fill="none" stroke="midnightblue" d="M124.868,-107.959C118.36,-98.522 110.747,-87.4835 105.29,-79.5707"/>
<polygon fill="midnightblue" stroke="midnightblue" points="122.105,-110.117 130.663,-116.362 127.867,-106.143 122.105,-110.117"/>
</g>
<!-- Node5 -->
<g id="node9" class="node"><title>Node5</title>
<a xlink:href="seiswrite_8h.html" target="_top" xlink:title="seiswrite.h">
<polygon fill="white" stroke="black" points="147,-58.5 147,-79.5 211,-79.5 211,-58.5 147,-58.5"/>
<text text-anchor="middle" x="179" y="-66.5" font-family="Helvetica,sans-Serif" font-size="10.00">seiswrite.h</text>
</a>
</g>
<!-- Node1&#45;&gt;Node5 -->
<g id="edge8" class="edge"><title>Node1&#45;&gt;Node5</title>
<path fill="none" stroke="midnightblue" d="M151.46,-107.959C158.131,-98.522 165.934,-87.4835 171.528,-79.5707"/>
<polygon fill="midnightblue" stroke="midnightblue" points="148.434,-106.176 145.52,-116.362 154.15,-110.216 148.434,-106.176"/>
</g>
<!-- Node3 -->
<g id="node5" class="node"><title>Node3</title>
<a xlink:href="seisreaderset_8h.html" target="_top" xlink:title="seisreaderset.h">
<polygon fill="white" stroke="black" points="-0.5,-0.5 -0.5,-21.5 82.5,-21.5 82.5,-0.5 -0.5,-0.5"/>
<text text-anchor="middle" x="41" y="-8.5" font-family="Helvetica,sans-Serif" font-size="10.00">seisreaderset.h</text>
</a>
</g>
<!-- Node2&#45;&gt;Node3 -->
<g id="edge4" class="edge"><title>Node2&#45;&gt;Node3</title>
<path fill="none" stroke="midnightblue" d="M80.4263,-51.118C70.913,-41.4377 59.4855,-29.8098 51.3884,-21.5707"/>
<polygon fill="midnightblue" stroke="midnightblue" points="78.0397,-53.6829 87.5453,-58.3619 83.0323,-48.7763 78.0397,-53.6829"/>
</g>
<!-- Node4 -->
<g id="node7" class="node"><title>Node4</title>
<a xlink:href="seis2deventsnapper_8h.html" target="_top" xlink:title="seis2deventsnapper.h">
<polygon fill="white" stroke="black" points="100,-0.5 100,-21.5 212,-21.5 212,-0.5 100,-0.5"/>
<text text-anchor="middle" x="156" y="-8.5" font-family="Helvetica,sans-Serif" font-size="10.00">seis2deventsnapper.h</text>
</a>
</g>
<!-- Node2&#45;&gt;Node4 -->
<g id="edge6" class="edge"><title>Node2&#45;&gt;Node4</title>
<path fill="none" stroke="midnightblue" d="M115.882,-51.118C125.562,-41.4377 137.19,-29.8098 145.429,-21.5707"/>
<polygon fill="midnightblue" stroke="midnightblue" points="113.234,-48.8159 108.638,-58.3619 118.184,-53.7657 113.234,-48.8159"/>
</g>
</g>
</svg>
