<?xml version="1.0" encoding="UTF-8" standalone="no"?>
<!DOCTYPE svg PUBLIC "-//W3C//DTD SVG 1.1//EN"
 "http://www.w3.org/Graphics/SVG/1.1/DTD/svg11.dtd">
<!-- Generated by graphviz version 2.26.0 (20091210.2329)
 -->
<!-- Title: seistype.h Pages: 1 -->
<svg width="2265pt" height="320pt"
 viewBox="0.00 0.00 2265.00 320.00" xmlns="http://www.w3.org/2000/svg" xmlns:xlink="http://www.w3.org/1999/xlink">
<g id="graph1" class="graph" transform="scale(1 1) rotate(0) translate(4 316)">
<title>seistype.h</title>
<polygon fill="white" stroke="white" points="-4,5 -4,-316 2262,-316 2262,5 -4,5"/>
<!-- Node1 -->
<g id="node1" class="node"><title>Node1</title>
<polygon fill="#bfbfbf" stroke="black" points="1209,-290.5 1209,-311.5 1271,-311.5 1271,-290.5 1209,-290.5"/>
<text text-anchor="middle" x="1240" y="-298.5" font-family="Helvetica,sans-Serif" font-size="10.00">seistype.h</text>
</g>
<!-- Node2 -->
<g id="node3" class="node"><title>Node2</title>
<a xlink:href="seisposkey_8h.html" target="_top" xlink:title="seisposkey.h">
<polygon fill="white" stroke="black" points="201,-232.5 201,-253.5 275,-253.5 275,-232.5 201,-232.5"/>
<text text-anchor="middle" x="238" y="-240.5" font-family="Helvetica,sans-Serif" font-size="10.00">seisposkey.h</text>
</a>
</g>
<!-- Node1&#45;&gt;Node2 -->
<g id="edge2" class="edge"><title>Node1&#45;&gt;Node2</title>
<path fill="none" stroke="midnightblue" d="M1198.77,-298.613C1034.95,-289.131 431.469,-254.199 275.165,-245.151"/>
<polygon fill="midnightblue" stroke="midnightblue" points="1198.73,-302.117 1208.91,-299.201 1199.13,-295.128 1198.73,-302.117"/>
</g>
<!-- Node4 -->
<g id="node7" class="node"><title>Node4</title>
<a xlink:href="seistrctr_8h.html" target="_top" xlink:title="seistrctr.h">
<polygon fill="white" stroke="black" points="534,-116.5 534,-137.5 594,-137.5 594,-116.5 534,-116.5"/>
<text text-anchor="middle" x="564" y="-124.5" font-family="Helvetica,sans-Serif" font-size="10.00">seistrctr.h</text>
</a>
</g>
<!-- Node1&#45;&gt;Node4 -->
<g id="edge50" class="edge"><title>Node1&#45;&gt;Node4</title>
<path fill="none" stroke="midnightblue" d="M1198.24,-299.452C1056.99,-294.03 604.599,-275.081 582,-254 549.269,-223.468 556.839,-162.589 561.603,-137.839"/>
<polygon fill="midnightblue" stroke="midnightblue" points="1198.51,-302.964 1208.63,-299.848 1198.77,-295.969 1198.51,-302.964"/>
</g>
<!-- Node18 -->
<g id="node36" class="node"><title>Node18</title>
<a xlink:href="seisread_8h.html" target="_top" xlink:title="seisread.h">
<polygon fill="white" stroke="black" points="261,-58.5 261,-79.5 323,-79.5 323,-58.5 261,-58.5"/>
<text text-anchor="middle" x="292" y="-66.5" font-family="Helvetica,sans-Serif" font-size="10.00">seisread.h</text>
</a>
</g>
<!-- Node1&#45;&gt;Node18 -->
<g id="edge76" class="edge"><title>Node1&#45;&gt;Node18</title>
<path fill="none" stroke="midnightblue" d="M1198.52,-300.082C1060,-296.749 618.968,-283.873 563,-254 494.533,-217.455 520.265,-159.513 456,-116 453.187,-114.096 370.144,-90.7728 323.333,-77.7154"/>
<polygon fill="midnightblue" stroke="midnightblue" points="1198.64,-303.586 1208.72,-300.323 1198.8,-296.588 1198.64,-303.586"/>
</g>
<!-- Node24 -->
<g id="node50" class="node"><title>Node24</title>
<a xlink:href="segyfiledef_8h.html" target="_top" xlink:title="segyfiledef.h">
<polygon fill="white" stroke="black" points="591,-232.5 591,-253.5 663,-253.5 663,-232.5 591,-232.5"/>
<text text-anchor="middle" x="627" y="-240.5" font-family="Helvetica,sans-Serif" font-size="10.00">segyfiledef.h</text>
</a>
</g>
<!-- Node1&#45;&gt;Node24 -->
<g id="edge52" class="edge"><title>Node1&#45;&gt;Node24</title>
<path fill="none" stroke="midnightblue" d="M1198.53,-299.431C1105.02,-295.48 870.772,-283.27 677,-254 672.518,-253.323 667.837,-252.479 663.215,-251.562"/>
<polygon fill="midnightblue" stroke="midnightblue" points="1198.57,-302.936 1208.7,-299.852 1198.86,-295.941 1198.57,-302.936"/>
</g>
<!-- Node25 -->
<g id="node52" class="node"><title>Node25</title>
<a xlink:href="segyscanner_8h.html" target="_top" xlink:title="segyscanner.h">
<polygon fill="white" stroke="black" points="651,-174.5 651,-195.5 731,-195.5 731,-174.5 651,-174.5"/>
<text text-anchor="middle" x="691" y="-182.5" font-family="Helvetica,sans-Serif" font-size="10.00">segyscanner.h</text>
</a>
</g>
<!-- Node1&#45;&gt;Node25 -->
<g id="edge58" class="edge"><title>Node1&#45;&gt;Node25</title>
<path fill="none" stroke="midnightblue" d="M1198.69,-300.009C1080.53,-296.809 747.268,-285.09 710,-254 692.731,-239.594 690.383,-211.066 690.49,-195.587"/>
<polygon fill="midnightblue" stroke="midnightblue" points="1198.69,-303.511 1208.78,-300.276 1198.88,-296.513 1198.69,-303.511"/>
</g>
<!-- Node26 -->
<g id="node56" class="node"><title>Node26</title>
<a xlink:href="seiscommon_8h.html" target="_top" xlink:title="seiscommon.h">
<polygon fill="white" stroke="black" points="719,-232.5 719,-253.5 799,-253.5 799,-232.5 719,-232.5"/>
<text text-anchor="middle" x="759" y="-240.5" font-family="Helvetica,sans-Serif" font-size="10.00">seiscommon.h</text>
</a>
</g>
<!-- Node1&#45;&gt;Node26 -->
<g id="edge60" class="edge"><title>Node1&#45;&gt;Node26</title>
<path fill="none" stroke="midnightblue" d="M1198.68,-298.06C1121.54,-292.228 950.515,-277.672 808,-254 805.076,-253.514 802.064,-252.964 799.039,-252.374"/>
<polygon fill="midnightblue" stroke="midnightblue" points="1198.7,-301.571 1208.93,-298.826 1199.22,-294.591 1198.7,-301.571"/>
</g>
<!-- Node28 -->
<g id="node60" class="node"><title>Node28</title>
<a xlink:href="seisimporter_8h.html" target="_top" xlink:title="seisimporter.h">
<polygon fill="white" stroke="black" points="817,-232.5 817,-253.5 895,-253.5 895,-232.5 817,-232.5"/>
<text text-anchor="middle" x="856" y="-240.5" font-family="Helvetica,sans-Serif" font-size="10.00">seisimporter.h</text>
</a>
</g>
<!-- Node1&#45;&gt;Node28 -->
<g id="edge64" class="edge"><title>Node1&#45;&gt;Node28</title>
<path fill="none" stroke="midnightblue" d="M1198.8,-296.398C1135.26,-289.04 1009.63,-273.454 904,-254 901.141,-253.474 898.195,-252.893 895.236,-252.282"/>
<polygon fill="midnightblue" stroke="midnightblue" points="1198.48,-299.885 1208.82,-297.55 1199.28,-292.931 1198.48,-299.885"/>
</g>
<!-- Node29 -->
<g id="node62" class="node"><title>Node29</title>
<a xlink:href="seisioobjinfo_8h.html" target="_top" xlink:title="seisioobjinfo.h">
<polygon fill="white" stroke="black" points="1008.5,-232.5 1008.5,-253.5 1087.5,-253.5 1087.5,-232.5 1008.5,-232.5"/>
<text text-anchor="middle" x="1048" y="-240.5" font-family="Helvetica,sans-Serif" font-size="10.00">seisioobjinfo.h</text>
</a>
</g>
<!-- Node1&#45;&gt;Node29 -->
<g id="edge66" class="edge"><title>Node1&#45;&gt;Node29</title>
<path fill="none" stroke="midnightblue" d="M1198.94,-288.596C1164.38,-278.158 1115.51,-263.394 1082.84,-253.524"/>
<polygon fill="midnightblue" stroke="midnightblue" points="1198.14,-292.011 1208.72,-291.552 1200.16,-285.31 1198.14,-292.011"/>
</g>
<!-- Node32 -->
<g id="node68" class="node"><title>Node32</title>
<a xlink:href="seisiosimple_8h.html" target="_top" xlink:title="seisiosimple.h">
<polygon fill="white" stroke="black" points="912.5,-232.5 912.5,-253.5 991.5,-253.5 991.5,-232.5 912.5,-232.5"/>
<text text-anchor="middle" x="952" y="-240.5" font-family="Helvetica,sans-Serif" font-size="10.00">seisiosimple.h</text>
</a>
</g>
<!-- Node1&#45;&gt;Node32 -->
<g id="edge72" class="edge"><title>Node1&#45;&gt;Node32</title>
<path fill="none" stroke="midnightblue" d="M1198.89,-293.363C1151.03,-284.375 1069.65,-268.796 1000,-254 997.24,-253.414 994.394,-252.796 991.531,-252.164"/>
<polygon fill="midnightblue" stroke="midnightblue" points="1198.39,-296.83 1208.87,-295.232 1199.68,-289.95 1198.39,-296.83"/>
</g>
<!-- Node34 -->
<g id="node73" class="node"><title>Node34</title>
<a xlink:href="seisscanner_8h.html" target="_top" xlink:title="seisscanner.h">
<polygon fill="white" stroke="black" points="1104.5,-232.5 1104.5,-253.5 1181.5,-253.5 1181.5,-232.5 1104.5,-232.5"/>
<text text-anchor="middle" x="1143" y="-240.5" font-family="Helvetica,sans-Serif" font-size="10.00">seisscanner.h</text>
</a>
</g>
<!-- Node1&#45;&gt;Node34 -->
<g id="edge78" class="edge"><title>Node1&#45;&gt;Node34</title>
<path fill="none" stroke="midnightblue" d="M1213.41,-285.101C1196.63,-275.066 1175.41,-262.381 1160.68,-253.571"/>
<polygon fill="midnightblue" stroke="midnightblue" points="1211.83,-288.234 1222.21,-290.362 1215.42,-282.226 1211.83,-288.234"/>
</g>
<!-- Node35 -->
<g id="node75" class="node"><title>Node35</title>
<a xlink:href="seisselection_8h.html" target="_top" xlink:title="seisselection.h">
<polygon fill="white" stroke="black" points="1199,-232.5 1199,-253.5 1281,-253.5 1281,-232.5 1199,-232.5"/>
<text text-anchor="middle" x="1240" y="-240.5" font-family="Helvetica,sans-Serif" font-size="10.00">seisselection.h</text>
</a>
</g>
<!-- Node1&#45;&gt;Node35 -->
<g id="edge80" class="edge"><title>Node1&#45;&gt;Node35</title>
<path fill="none" stroke="midnightblue" d="M1240,-280.191C1240,-271.168 1240,-260.994 1240,-253.571"/>
<polygon fill="midnightblue" stroke="midnightblue" points="1236.5,-280.362 1240,-290.362 1243.5,-280.362 1236.5,-280.362"/>
</g>
<!-- Node38 -->
<g id="node82" class="node"><title>Node38</title>
<a xlink:href="seisseqio_8h.html" target="_top" xlink:title="seisseqio.h">
<polygon fill="white" stroke="black" points="1299,-232.5 1299,-253.5 1365,-253.5 1365,-232.5 1299,-232.5"/>
<text text-anchor="middle" x="1332" y="-240.5" font-family="Helvetica,sans-Serif" font-size="10.00">seisseqio.h</text>
</a>
</g>
<!-- Node1&#45;&gt;Node38 -->
<g id="edge88" class="edge"><title>Node1&#45;&gt;Node38</title>
<path fill="none" stroke="midnightblue" d="M1265.66,-284.821C1281.51,-274.831 1301.39,-262.299 1315.23,-253.571"/>
<polygon fill="midnightblue" stroke="midnightblue" points="1263.47,-282.068 1256.87,-290.362 1267.2,-287.99 1263.47,-282.068"/>
</g>
<!-- Node39 -->
<g id="node84" class="node"><title>Node39</title>
<a xlink:href="seistrcprop_8h.html" target="_top" xlink:title="seistrcprop.h">
<polygon fill="white" stroke="black" points="1382.5,-232.5 1382.5,-253.5 1455.5,-253.5 1455.5,-232.5 1382.5,-232.5"/>
<text text-anchor="middle" x="1419" y="-240.5" font-family="Helvetica,sans-Serif" font-size="10.00">seistrcprop.h</text>
</a>
</g>
<!-- Node1&#45;&gt;Node39 -->
<g id="edge90" class="edge"><title>Node1&#45;&gt;Node39</title>
<path fill="none" stroke="midnightblue" d="M1280.69,-287.814C1312.68,-277.449 1356.66,-263.201 1386.36,-253.575"/>
<polygon fill="midnightblue" stroke="midnightblue" points="1279.61,-284.485 1271.18,-290.897 1281.77,-291.144 1279.61,-284.485"/>
</g>
<!-- Node40 -->
<g id="node86" class="node"><title>Node40</title>
<a xlink:href="attribdesc_8h.html" target="_top" xlink:title="attribdesc.h">
<polygon fill="white" stroke="black" points="1473,-232.5 1473,-253.5 1541,-253.5 1541,-232.5 1473,-232.5"/>
<text text-anchor="middle" x="1507" y="-240.5" font-family="Helvetica,sans-Serif" font-size="10.00">attribdesc.h</text>
</a>
</g>
<!-- Node1&#45;&gt;Node40 -->
<g id="edge92" class="edge"><title>Node1&#45;&gt;Node40</title>
<path fill="none" stroke="midnightblue" d="M1281.23,-292.909C1326.26,-283.943 1400.45,-268.789 1464,-254 1466.85,-253.336 1469.8,-252.627 1472.77,-251.901"/>
<polygon fill="midnightblue" stroke="midnightblue" points="1280.39,-289.509 1271.26,-294.889 1281.75,-296.375 1280.39,-289.509"/>
</g>
<!-- Node41 -->
<g id="node88" class="node"><title>Node41</title>
<a xlink:href="attriboutput_8h.html" target="_top" xlink:title="attriboutput.h">
<polygon fill="white" stroke="black" points="1559,-232.5 1559,-253.5 1633,-253.5 1633,-232.5 1559,-232.5"/>
<text text-anchor="middle" x="1596" y="-240.5" font-family="Helvetica,sans-Serif" font-size="10.00">attriboutput.h</text>
</a>
</g>
<!-- Node1&#45;&gt;Node41 -->
<g id="edge94" class="edge"><title>Node1&#45;&gt;Node41</title>
<path fill="none" stroke="midnightblue" d="M1281.54,-295.833C1341.2,-288.157 1454.49,-272.626 1550,-254 1552.9,-253.434 1555.9,-252.81 1558.9,-252.155"/>
<polygon fill="midnightblue" stroke="midnightblue" points="1280.87,-292.391 1271.39,-297.13 1281.75,-299.335 1280.87,-292.391"/>
</g>
<!-- Node42 -->
<g id="node90" class="node"><title>Node42</title>
<a xlink:href="attribsteering_8h.html" target="_top" xlink:title="attribsteering.h">
<polygon fill="white" stroke="black" points="1650.5,-232.5 1650.5,-253.5 1731.5,-253.5 1731.5,-232.5 1650.5,-232.5"/>
<text text-anchor="middle" x="1691" y="-240.5" font-family="Helvetica,sans-Serif" font-size="10.00">attribsteering.h</text>
</a>
</g>
<!-- Node1&#45;&gt;Node42 -->
<g id="edge96" class="edge"><title>Node1&#45;&gt;Node42</title>
<path fill="none" stroke="midnightblue" d="M1281.34,-297.602C1354.43,-291.276 1511.11,-276.281 1642,-254 1644.75,-253.532 1647.58,-253.009 1650.42,-252.452"/>
<polygon fill="midnightblue" stroke="midnightblue" points="1280.84,-294.132 1271.18,-298.473 1281.44,-301.107 1280.84,-294.132"/>
</g>
<!-- Node43 -->
<g id="node92" class="node"><title>Node43</title>
<a xlink:href="uiseisbrowser_8h.html" target="_top" xlink:title="uiseisbrowser.h">
<polygon fill="white" stroke="black" points="1748.5,-232.5 1748.5,-253.5 1833.5,-253.5 1833.5,-232.5 1748.5,-232.5"/>
<text text-anchor="middle" x="1791" y="-240.5" font-family="Helvetica,sans-Serif" font-size="10.00">uiseisbrowser.h</text>
</a>
</g>
<!-- Node1&#45;&gt;Node43 -->
<g id="edge98" class="edge"><title>Node1&#45;&gt;Node43</title>
<path fill="none" stroke="midnightblue" d="M1281.28,-298.783C1367.09,-293.809 1570.84,-280.099 1740,-254 1742.78,-253.572 1745.63,-253.086 1748.49,-252.563"/>
<polygon fill="midnightblue" stroke="midnightblue" points="1280.95,-295.296 1271.17,-299.36 1281.35,-302.284 1280.95,-295.296"/>
</g>
<!-- Node44 -->
<g id="node94" class="node"><title>Node44</title>
<a xlink:href="uiseisfmtscale_8h.html" target="_top" xlink:title="uiseisfmtscale.h">
<polygon fill="white" stroke="black" points="1851,-232.5 1851,-253.5 1939,-253.5 1939,-232.5 1851,-232.5"/>
<text text-anchor="middle" x="1895" y="-240.5" font-family="Helvetica,sans-Serif" font-size="10.00">uiseisfmtscale.h</text>
</a>
</g>
<!-- Node1&#45;&gt;Node44 -->
<g id="edge100" class="edge"><title>Node1&#45;&gt;Node44</title>
<path fill="none" stroke="midnightblue" d="M1281.23,-299.583C1379,-295.83 1632.46,-283.802 1842,-254 1844.88,-253.59 1847.85,-253.118 1850.83,-252.605"/>
<polygon fill="midnightblue" stroke="midnightblue" points="1281.03,-296.088 1271.17,-299.961 1281.29,-303.083 1281.03,-296.088"/>
</g>
<!-- Node45 -->
<g id="node96" class="node"><title>Node45</title>
<a xlink:href="uiseispreloadmgr_8h.html" target="_top" xlink:title="uiseispreloadmgr.h">
<polygon fill="white" stroke="black" points="1957,-232.5 1957,-253.5 2055,-253.5 2055,-232.5 1957,-232.5"/>
<text text-anchor="middle" x="2006" y="-240.5" font-family="Helvetica,sans-Serif" font-size="10.00">uiseispreloadmgr.h</text>
</a>
</g>
<!-- Node1&#45;&gt;Node45 -->
<g id="edge102" class="edge"><title>Node1&#45;&gt;Node45</title>
<path fill="none" stroke="midnightblue" d="M1281.45,-300.002C1390.82,-296.989 1696.11,-286.127 1948,-254 1950.85,-253.637 1953.76,-253.222 1956.7,-252.77"/>
<polygon fill="midnightblue" stroke="midnightblue" points="1281.09,-296.51 1271.18,-300.277 1281.28,-303.508 1281.09,-296.51"/>
</g>
<!-- Node46 -->
<g id="node98" class="node"><title>Node46</title>
<a xlink:href="uiseissel_8h.html" target="_top" xlink:title="uiseissel.h">
<polygon fill="white" stroke="black" points="2072.5,-232.5 2072.5,-253.5 2135.5,-253.5 2135.5,-232.5 2072.5,-232.5"/>
<text text-anchor="middle" x="2104" y="-240.5" font-family="Helvetica,sans-Serif" font-size="10.00">uiseissel.h</text>
</a>
</g>
<!-- Node1&#45;&gt;Node46 -->
<g id="edge104" class="edge"><title>Node1&#45;&gt;Node46</title>
<path fill="none" stroke="midnightblue" d="M1281.7,-299.788C1427.07,-295.379 1910.88,-279.13 2064,-254 2066.7,-253.557 2069.48,-253.003 2072.26,-252.381"/>
<polygon fill="midnightblue" stroke="midnightblue" points="1281.33,-296.297 1271.44,-300.096 1281.54,-303.294 1281.33,-296.297"/>
</g>
<!-- Node50 -->
<g id="node106" class="node"><title>Node50</title>
<a xlink:href="uiseistrcbufviewer_8h.html" target="_top" xlink:title="uiseistrcbufviewer.h">
<polygon fill="white" stroke="black" points="2153,-232.5 2153,-253.5 2257,-253.5 2257,-232.5 2153,-232.5"/>
<text text-anchor="middle" x="2205" y="-240.5" font-family="Helvetica,sans-Serif" font-size="10.00">uiseistrcbufviewer.h</text>
</a>
</g>
<!-- Node1&#45;&gt;Node50 -->
<g id="edge112" class="edge"><title>Node1&#45;&gt;Node50</title>
<path fill="none" stroke="midnightblue" d="M1281.53,-300.706C1410.13,-299.397 1812.97,-292.296 2144,-254 2146.89,-253.666 2149.84,-253.28 2152.82,-252.857"/>
<polygon fill="midnightblue" stroke="midnightblue" points="1281.31,-297.208 1271.35,-300.803 1281.38,-304.208 1281.31,-297.208"/>
</g>
<!-- Node3 -->
<g id="node5" class="node"><title>Node3</title>
<a xlink:href="seisinfo_8h.html" target="_top" xlink:title="seisinfo.h">
<polygon fill="white" stroke="black" points="300.5,-174.5 300.5,-195.5 359.5,-195.5 359.5,-174.5 300.5,-174.5"/>
<text text-anchor="middle" x="330" y="-182.5" font-family="Helvetica,sans-Serif" font-size="10.00">seisinfo.h</text>
</a>
</g>
<!-- Node2&#45;&gt;Node3 -->
<g id="edge4" class="edge"><title>Node2&#45;&gt;Node3</title>
<path fill="none" stroke="midnightblue" d="M263.662,-226.821C279.509,-216.831 299.387,-204.299 313.233,-195.571"/>
<polygon fill="midnightblue" stroke="midnightblue" points="261.467,-224.068 254.874,-232.362 265.2,-229.99 261.467,-224.068"/>
</g>
<!-- Node20 -->
<g id="node41" class="node"><title>Node20</title>
<a xlink:href="segyfiledata_8h.html" target="_top" xlink:title="segyfiledata.h">
<polygon fill="white" stroke="black" points="2.5,-174.5 2.5,-195.5 79.5,-195.5 79.5,-174.5 2.5,-174.5"/>
<text text-anchor="middle" x="41" y="-182.5" font-family="Helvetica,sans-Serif" font-size="10.00">segyfiledata.h</text>
</a>
</g>
<!-- Node2&#45;&gt;Node20 -->
<g id="edge42" class="edge"><title>Node2&#45;&gt;Node20</title>
<path fill="none" stroke="midnightblue" d="M192.304,-229.546C157.114,-219.186 109.158,-205.067 76.7421,-195.523"/>
<polygon fill="midnightblue" stroke="midnightblue" points="191.743,-233.03 202.325,-232.497 193.72,-226.315 191.743,-233.03"/>
</g>
<!-- Node22 -->
<g id="node45" class="node"><title>Node22</title>
<a xlink:href="segyresorter_8h.html" target="_top" xlink:title="segyresorter.h">
<polygon fill="white" stroke="black" points="96.5,-174.5 96.5,-195.5 175.5,-195.5 175.5,-174.5 96.5,-174.5"/>
<text text-anchor="middle" x="136" y="-182.5" font-family="Helvetica,sans-Serif" font-size="10.00">segyresorter.h</text>
</a>
</g>
<!-- Node2&#45;&gt;Node22 -->
<g id="edge46" class="edge"><title>Node2&#45;&gt;Node22</title>
<path fill="none" stroke="midnightblue" d="M210.529,-227.379C192.805,-217.301 170.227,-204.462 154.59,-195.571"/>
<polygon fill="midnightblue" stroke="midnightblue" points="208.869,-230.461 219.292,-232.362 212.329,-224.376 208.869,-230.461"/>
</g>
<!-- Node23 -->
<g id="node47" class="node"><title>Node23</title>
<a xlink:href="seisposindexer_8h.html" target="_top" xlink:title="seisposindexer.h">
<polygon fill="white" stroke="black" points="193,-174.5 193,-195.5 283,-195.5 283,-174.5 193,-174.5"/>
<text text-anchor="middle" x="238" y="-182.5" font-family="Helvetica,sans-Serif" font-size="10.00">seisposindexer.h</text>
</a>
</g>
<!-- Node2&#45;&gt;Node23 -->
<g id="edge48" class="edge"><title>Node2&#45;&gt;Node23</title>
<path fill="none" stroke="midnightblue" d="M238,-222.191C238,-213.168 238,-202.994 238,-195.571"/>
<polygon fill="midnightblue" stroke="midnightblue" points="234.5,-222.362 238,-232.362 241.5,-222.362 234.5,-222.362"/>
</g>
<!-- Node3&#45;&gt;Node4 -->
<g id="edge6" class="edge"><title>Node3&#45;&gt;Node4</title>
<path fill="none" stroke="midnightblue" d="M369.347,-175.247C415.757,-163.744 491.888,-144.874 533.865,-134.469"/>
<polygon fill="midnightblue" stroke="midnightblue" points="368.5,-171.851 359.636,-177.654 370.185,-178.646 368.5,-171.851"/>
</g>
<!-- Node12 -->
<g id="node23" class="node"><title>Node12</title>
<a xlink:href="seisbuf_8h.html" target="_top" xlink:title="seisbuf.h">
<polygon fill="white" stroke="red" points="215,-116.5 215,-137.5 271,-137.5 271,-116.5 215,-116.5"/>
<text text-anchor="middle" x="243" y="-124.5" font-family="Helvetica,sans-Serif" font-size="10.00">seisbuf.h</text>
</a>
</g>
<!-- Node3&#45;&gt;Node12 -->
<g id="edge22" class="edge"><title>Node3&#45;&gt;Node12</title>
<path fill="none" stroke="midnightblue" d="M305.311,-168.541C290.396,-158.597 271.827,-146.218 258.856,-137.571"/>
<polygon fill="midnightblue" stroke="midnightblue" points="303.781,-171.727 314.043,-174.362 307.664,-165.903 303.781,-171.727"/>
</g>
<!-- Node13 -->
<g id="node25" class="node"><title>Node13</title>
<a xlink:href="seisbufadapters_8h.html" target="_top" xlink:title="seisbufadapters.h">
<polygon fill="white" stroke="black" points="149,-58.5 149,-79.5 243,-79.5 243,-58.5 149,-58.5"/>
<text text-anchor="middle" x="196" y="-66.5" font-family="Helvetica,sans-Serif" font-size="10.00">seisbufadapters.h</text>
</a>
</g>
<!-- Node3&#45;&gt;Node13 -->
<g id="edge26" class="edge"><title>Node3&#45;&gt;Node13</title>
<path fill="none" stroke="midnightblue" d="M290.652,-172.314C256.489,-160.943 211.623,-145.007 206,-138 192.516,-121.195 192.948,-94.401 194.464,-79.6332"/>
<polygon fill="midnightblue" stroke="midnightblue" points="289.815,-175.723 300.408,-175.535 292.009,-169.076 289.815,-175.723"/>
</g>
<!-- Node14 -->
<g id="node28" class="node"><title>Node14</title>
<a xlink:href="seisdatapack_8h.html" target="_top" xlink:title="seisdatapack.h">
<polygon fill="white" stroke="red" points="288.5,-116.5 288.5,-137.5 371.5,-137.5 371.5,-116.5 288.5,-116.5"/>
<text text-anchor="middle" x="330" y="-124.5" font-family="Helvetica,sans-Serif" font-size="10.00">seisdatapack.h</text>
</a>
</g>
<!-- Node3&#45;&gt;Node14 -->
<g id="edge28" class="edge"><title>Node3&#45;&gt;Node14</title>
<path fill="none" stroke="midnightblue" d="M330,-164.191C330,-155.168 330,-144.994 330,-137.571"/>
<polygon fill="midnightblue" stroke="midnightblue" points="326.5,-164.362 330,-174.362 333.5,-164.362 326.5,-164.362"/>
</g>
<!-- Node15 -->
<g id="node30" class="node"><title>Node15</title>
<a xlink:href="seistrc_8h.html" target="_top" xlink:title="seistrc.h">
<polygon fill="white" stroke="red" points="103,-116.5 103,-137.5 157,-137.5 157,-116.5 103,-116.5"/>
<text text-anchor="middle" x="130" y="-124.5" font-family="Helvetica,sans-Serif" font-size="10.00">seistrc.h</text>
</a>
</g>
<!-- Node3&#45;&gt;Node15 -->
<g id="edge30" class="edge"><title>Node3&#45;&gt;Node15</title>
<path fill="none" stroke="midnightblue" d="M290.676,-173.596C251.218,-162.153 191.495,-144.834 157.064,-134.849"/>
<polygon fill="midnightblue" stroke="midnightblue" points="289.91,-177.018 300.489,-176.442 291.86,-170.295 289.91,-177.018"/>
</g>
<!-- Node17 -->
<g id="node34" class="node"><title>Node17</title>
<a xlink:href="seisstor_8h.html" target="_top" xlink:title="seisstor.h">
<polygon fill="white" stroke="red" points="388.5,-116.5 388.5,-137.5 447.5,-137.5 447.5,-116.5 388.5,-116.5"/>
<text text-anchor="middle" x="418" y="-124.5" font-family="Helvetica,sans-Serif" font-size="10.00">seisstor.h</text>
</a>
</g>
<!-- Node3&#45;&gt;Node17 -->
<g id="edge34" class="edge"><title>Node3&#45;&gt;Node17</title>
<path fill="none" stroke="midnightblue" d="M354.547,-168.821C369.704,-158.831 388.718,-146.299 401.962,-137.571"/>
<polygon fill="midnightblue" stroke="midnightblue" points="352.564,-165.936 346.141,-174.362 356.416,-171.781 352.564,-165.936"/>
</g>
<!-- Node5 -->
<g id="node9" class="node"><title>Node5</title>
<a xlink:href="seis2dlineio_8h.html" target="_top" xlink:title="seis2dlineio.h">
<polygon fill="white" stroke="red" points="439,-58.5 439,-79.5 515,-79.5 515,-58.5 439,-58.5"/>
<text text-anchor="middle" x="477" y="-66.5" font-family="Helvetica,sans-Serif" font-size="10.00">seis2dlineio.h</text>
</a>
</g>
<!-- Node4&#45;&gt;Node5 -->
<g id="edge8" class="edge"><title>Node4&#45;&gt;Node5</title>
<path fill="none" stroke="midnightblue" d="M539.311,-110.541C524.396,-100.597 505.827,-88.2177 492.856,-79.5707"/>
<polygon fill="midnightblue" stroke="midnightblue" points="537.781,-113.727 548.043,-116.362 541.664,-107.903 537.781,-113.727"/>
</g>
<!-- Node7 -->
<g id="node13" class="node"><title>Node7</title>
<a xlink:href="segydirecttr_8h.html" target="_top" xlink:title="segydirecttr.h">
<polygon fill="white" stroke="red" points="533,-58.5 533,-79.5 609,-79.5 609,-58.5 533,-58.5"/>
<text text-anchor="middle" x="571" y="-66.5" font-family="Helvetica,sans-Serif" font-size="10.00">segydirecttr.h</text>
</a>
</g>
<!-- Node4&#45;&gt;Node7 -->
<g id="edge12" class="edge"><title>Node4&#45;&gt;Node7</title>
<path fill="none" stroke="midnightblue" d="M566.511,-106.191C567.6,-97.1684 568.828,-86.9941 569.724,-79.5707"/>
<polygon fill="midnightblue" stroke="midnightblue" points="563.007,-106.015 565.284,-116.362 569.957,-106.853 563.007,-106.015"/>
</g>
<!-- Node8 -->
<g id="node15" class="node"><title>Node8</title>
<a xlink:href="segytr_8h.html" target="_top" xlink:title="segytr.h">
<polygon fill="white" stroke="black" points="803,-58.5 803,-79.5 855,-79.5 855,-58.5 803,-58.5"/>
<text text-anchor="middle" x="829" y="-66.5" font-family="Helvetica,sans-Serif" font-size="10.00">segytr.h</text>
</a>
</g>
<!-- Node4&#45;&gt;Node8 -->
<g id="edge14" class="edge"><title>Node4&#45;&gt;Node8</title>
<path fill="none" stroke="midnightblue" d="M604.516,-117.001C606.028,-116.658 607.527,-116.323 609,-116 690.819,-98.0499 712.805,-100.59 794,-80 796.84,-79.2798 799.79,-78.4633 802.717,-77.6083"/>
<polygon fill="midnightblue" stroke="midnightblue" points="603.398,-113.668 594.454,-119.348 604.988,-120.485 603.398,-113.668"/>
</g>
<!-- Node9 -->
<g id="node17" class="node"><title>Node9</title>
<a xlink:href="seisblockstr_8h.html" target="_top" xlink:title="seisblockstr.h">
<polygon fill="white" stroke="black" points="626.5,-58.5 626.5,-79.5 703.5,-79.5 703.5,-58.5 626.5,-58.5"/>
<text text-anchor="middle" x="665" y="-66.5" font-family="Helvetica,sans-Serif" font-size="10.00">seisblockstr.h</text>
</a>
</g>
<!-- Node4&#45;&gt;Node9 -->
<g id="edge16" class="edge"><title>Node4&#45;&gt;Node9</title>
<path fill="none" stroke="midnightblue" d="M591.202,-111.379C608.752,-101.301 631.109,-88.4624 646.592,-79.5707"/>
<polygon fill="midnightblue" stroke="midnightblue" points="589.454,-108.347 582.525,-116.362 592.94,-114.417 589.454,-108.347"/>
</g>
<!-- Node10 -->
<g id="node19" class="node"><title>Node10</title>
<a xlink:href="seiscbvs_8h.html" target="_top" xlink:title="seiscbvs.h">
<polygon fill="white" stroke="black" points="721,-58.5 721,-79.5 785,-79.5 785,-58.5 721,-58.5"/>
<text text-anchor="middle" x="753" y="-66.5" font-family="Helvetica,sans-Serif" font-size="10.00">seiscbvs.h</text>
</a>
</g>
<!-- Node4&#45;&gt;Node10 -->
<g id="edge18" class="edge"><title>Node4&#45;&gt;Node10</title>
<path fill="none" stroke="midnightblue" d="M604.2,-114.664C638.977,-103.991 688.605,-88.7615 720.812,-78.8779"/>
<polygon fill="midnightblue" stroke="midnightblue" points="602.899,-111.401 594.366,-117.681 604.953,-118.093 602.899,-111.401"/>
</g>
<!-- Node11 -->
<g id="node21" class="node"><title>Node11</title>
<a xlink:href="seispscubetr_8h.html" target="_top" xlink:title="seispscubetr.h">
<polygon fill="white" stroke="black" points="341,-58.5 341,-79.5 421,-79.5 421,-58.5 341,-58.5"/>
<text text-anchor="middle" x="381" y="-66.5" font-family="Helvetica,sans-Serif" font-size="10.00">seispscubetr.h</text>
</a>
</g>
<!-- Node4&#45;&gt;Node11 -->
<g id="edge20" class="edge"><title>Node4&#45;&gt;Node11</title>
<path fill="none" stroke="midnightblue" d="M524.046,-114.337C491.218,-103.932 445.25,-89.3634 414.366,-79.5749"/>
<polygon fill="midnightblue" stroke="midnightblue" points="523.191,-117.738 533.781,-117.422 525.306,-111.065 523.191,-117.738"/>
</g>
<!-- Node6 -->
<g id="node11" class="node"><title>Node6</title>
<a xlink:href="segydirect2d_8h.html" target="_top" xlink:title="segydirect2d.h">
<polygon fill="white" stroke="black" points="437,-0.5 437,-21.5 517,-21.5 517,-0.5 437,-0.5"/>
<text text-anchor="middle" x="477" y="-8.5" font-family="Helvetica,sans-Serif" font-size="10.00">segydirect2d.h</text>
</a>
</g>
<!-- Node5&#45;&gt;Node6 -->
<g id="edge10" class="edge"><title>Node5&#45;&gt;Node6</title>
<path fill="none" stroke="midnightblue" d="M477,-48.1906C477,-39.1684 477,-28.9941 477,-21.5707"/>
<polygon fill="midnightblue" stroke="midnightblue" points="473.5,-48.3619 477,-58.3619 480.5,-48.3619 473.5,-48.3619"/>
</g>
<!-- Node12&#45;&gt;Node13 -->
<g id="edge24" class="edge"><title>Node12&#45;&gt;Node13</title>
<path fill="none" stroke="midnightblue" d="M228.042,-108.541C220.293,-98.9786 211.11,-87.6467 204.566,-79.5707"/>
<polygon fill="midnightblue" stroke="midnightblue" points="225.364,-110.796 234.379,-116.362 230.803,-106.389 225.364,-110.796"/>
</g>
<!-- Node16 -->
<g id="node32" class="node"><title>Node16</title>
<a xlink:href="seis2deventsnapper_8h.html" target="_top" xlink:title="seis2deventsnapper.h">
<polygon fill="white" stroke="black" points="93,-0.5 93,-21.5 205,-21.5 205,-0.5 93,-0.5"/>
<text text-anchor="middle" x="149" y="-8.5" font-family="Helvetica,sans-Serif" font-size="10.00">seis2deventsnapper.h</text>
</a>
</g>
<!-- Node15&#45;&gt;Node16 -->
<g id="edge32" class="edge"><title>Node15&#45;&gt;Node16</title>
<path fill="none" stroke="midnightblue" d="M132.801,-105.937C134.682,-92.2523 137.303,-74.0401 140,-58 142.094,-45.5466 144.874,-31.3123 146.787,-21.8022"/>
<polygon fill="midnightblue" stroke="midnightblue" points="129.282,-105.841 131.409,-116.22 136.219,-106.78 129.282,-105.841"/>
</g>
<!-- Node17&#45;&gt;Node18 -->
<g id="edge36" class="edge"><title>Node17&#45;&gt;Node18</title>
<path fill="none" stroke="midnightblue" d="M385.862,-112.206C363.757,-102.031 334.92,-88.7567 315.074,-79.6212"/>
<polygon fill="midnightblue" stroke="midnightblue" points="384.635,-115.494 395.182,-116.497 387.562,-109.136 384.635,-115.494"/>
</g>
<!-- Node18&#45;&gt;Node16 -->
<g id="edge40" class="edge"><title>Node18&#45;&gt;Node16</title>
<path fill="none" stroke="midnightblue" d="M256.534,-54.6153C231.321,-44.3889 198.013,-30.8796 175.187,-21.6212"/>
<polygon fill="midnightblue" stroke="midnightblue" points="255.521,-57.9814 266.104,-58.4966 258.153,-51.4946 255.521,-57.9814"/>
</g>
<!-- Node19 -->
<g id="node38" class="node"><title>Node19</title>
<a xlink:href="seisreaderset_8h.html" target="_top" xlink:title="seisreaderset.h">
<polygon fill="white" stroke="black" points="250.5,-0.5 250.5,-21.5 333.5,-21.5 333.5,-0.5 250.5,-0.5"/>
<text text-anchor="middle" x="292" y="-8.5" font-family="Helvetica,sans-Serif" font-size="10.00">seisreaderset.h</text>
</a>
</g>
<!-- Node18&#45;&gt;Node19 -->
<g id="edge38" class="edge"><title>Node18&#45;&gt;Node19</title>
<path fill="none" stroke="midnightblue" d="M292,-48.1906C292,-39.1684 292,-28.9941 292,-21.5707"/>
<polygon fill="midnightblue" stroke="midnightblue" points="288.5,-48.3619 292,-58.3619 295.5,-48.3619 288.5,-48.3619"/>
</g>
<!-- Node21 -->
<g id="node43" class="node"><title>Node21</title>
<a xlink:href="segydirectdef_8h.html" target="_top" xlink:title="segydirectdef.h">
<polygon fill="white" stroke="black" points="-0.5,-116.5 -0.5,-137.5 82.5,-137.5 82.5,-116.5 -0.5,-116.5"/>
<text text-anchor="middle" x="41" y="-124.5" font-family="Helvetica,sans-Serif" font-size="10.00">segydirectdef.h</text>
</a>
</g>
<!-- Node20&#45;&gt;Node21 -->
<g id="edge44" class="edge"><title>Node20&#45;&gt;Node21</title>
<path fill="none" stroke="midnightblue" d="M41,-164.191C41,-155.168 41,-144.994 41,-137.571"/>
<polygon fill="midnightblue" stroke="midnightblue" points="37.5001,-164.362 41,-174.362 44.5001,-164.362 37.5001,-164.362"/>
</g>
<!-- Node24&#45;&gt;Node8 -->
<g id="edge56" class="edge"><title>Node24&#45;&gt;Node8</title>
<path fill="none" stroke="midnightblue" d="M627.158,-221.917C628.255,-207.212 631.779,-187.825 642,-174 663.415,-145.033 759.294,-99.8672 804.833,-79.5399"/>
<polygon fill="midnightblue" stroke="midnightblue" points="623.654,-221.938 626.721,-232.079 630.647,-222.239 623.654,-221.938"/>
</g>
<!-- Node24&#45;&gt;Node25 -->
<g id="edge54" class="edge"><title>Node24&#45;&gt;Node25</title>
<path fill="none" stroke="midnightblue" d="M646.415,-225.405C657.159,-215.668 670.154,-203.891 679.336,-195.571"/>
<polygon fill="midnightblue" stroke="midnightblue" points="643.798,-223.053 638.739,-232.362 648.499,-228.24 643.798,-223.053"/>
</g>
<!-- Node27 -->
<g id="node58" class="node"><title>Node27</title>
<a xlink:href="seisblocks_8h.html" target="_top" xlink:title="seisblocks.h">
<polygon fill="white" stroke="red" points="748.5,-174.5 748.5,-195.5 819.5,-195.5 819.5,-174.5 748.5,-174.5"/>
<text text-anchor="middle" x="784" y="-182.5" font-family="Helvetica,sans-Serif" font-size="10.00">seisblocks.h</text>
</a>
</g>
<!-- Node26&#45;&gt;Node27 -->
<g id="edge62" class="edge"><title>Node26&#45;&gt;Node27</title>
<path fill="none" stroke="midnightblue" d="M767.587,-223.079C771.568,-213.842 776.138,-203.239 779.444,-195.571"/>
<polygon fill="midnightblue" stroke="midnightblue" points="764.33,-221.793 763.585,-232.362 770.758,-224.564 764.33,-221.793"/>
</g>
<!-- Node30 -->
<g id="node64" class="node"><title>Node30</title>
<a xlink:href="uiseisioobjinfo_8h.html" target="_top" xlink:title="uiseisioobjinfo.h">
<polygon fill="white" stroke="black" points="1005,-174.5 1005,-195.5 1091,-195.5 1091,-174.5 1005,-174.5"/>
<text text-anchor="middle" x="1048" y="-182.5" font-family="Helvetica,sans-Serif" font-size="10.00">uiseisioobjinfo.h</text>
</a>
</g>
<!-- Node29&#45;&gt;Node30 -->
<g id="edge68" class="edge"><title>Node29&#45;&gt;Node30</title>
<path fill="none" stroke="midnightblue" d="M1048,-222.191C1048,-213.168 1048,-202.994 1048,-195.571"/>
<polygon fill="midnightblue" stroke="midnightblue" points="1044.5,-222.362 1048,-232.362 1051.5,-222.362 1044.5,-222.362"/>
</g>
<!-- Node31 -->
<g id="node66" class="node"><title>Node31</title>
<a xlink:href="uiseistransf_8h.html" target="_top" xlink:title="uiseistransf.h">
<polygon fill="white" stroke="black" points="1108.5,-174.5 1108.5,-195.5 1183.5,-195.5 1183.5,-174.5 1108.5,-174.5"/>
<text text-anchor="middle" x="1146" y="-182.5" font-family="Helvetica,sans-Serif" font-size="10.00">uiseistransf.h</text>
</a>
</g>
<!-- Node29&#45;&gt;Node31 -->
<g id="edge70" class="edge"><title>Node29&#45;&gt;Node31</title>
<path fill="none" stroke="midnightblue" d="M1074.86,-227.101C1091.82,-217.066 1113.25,-204.381 1128.14,-195.571"/>
<polygon fill="midnightblue" stroke="midnightblue" points="1072.8,-224.257 1065.97,-232.362 1076.36,-230.281 1072.8,-224.257"/>
</g>
<!-- Node33 -->
<g id="node70" class="node"><title>Node33</title>
<a xlink:href="uiseisiosimple_8h.html" target="_top" xlink:title="uiseisiosimple.h">
<polygon fill="white" stroke="black" points="901,-174.5 901,-195.5 987,-195.5 987,-174.5 901,-174.5"/>
<text text-anchor="middle" x="944" y="-182.5" font-family="Helvetica,sans-Serif" font-size="10.00">uiseisiosimple.h</text>
</a>
</g>
<!-- Node32&#45;&gt;Node33 -->
<g id="edge74" class="edge"><title>Node32&#45;&gt;Node33</title>
<path fill="none" stroke="midnightblue" d="M949.13,-222.191C947.885,-213.168 946.482,-202.994 945.458,-195.571"/>
<polygon fill="midnightblue" stroke="midnightblue" points="945.699,-222.934 950.533,-232.362 952.633,-221.977 945.699,-222.934"/>
</g>
<!-- Node35&#45;&gt;Node31 -->
<g id="edge86" class="edge"><title>Node35&#45;&gt;Node31</title>
<path fill="none" stroke="midnightblue" d="M1214.23,-227.101C1197.97,-217.066 1177.41,-204.381 1163.13,-195.571"/>
<polygon fill="midnightblue" stroke="midnightblue" points="1212.41,-230.089 1222.76,-232.362 1216.09,-224.132 1212.41,-230.089"/>
</g>
<!-- Node36 -->
<g id="node77" class="node"><title>Node36</title>
<a xlink:href="seisselectionimpl_8h.html" target="_top" xlink:title="seisselectionimpl.h">
<polygon fill="white" stroke="black" points="1297,-174.5 1297,-195.5 1397,-195.5 1397,-174.5 1297,-174.5"/>
<text text-anchor="middle" x="1347" y="-182.5" font-family="Helvetica,sans-Serif" font-size="10.00">seisselectionimpl.h</text>
</a>
</g>
<!-- Node35&#45;&gt;Node36 -->
<g id="edge82" class="edge"><title>Node35&#45;&gt;Node36</title>
<path fill="none" stroke="midnightblue" d="M1268.56,-227.517C1287.19,-217.419 1311.02,-204.503 1327.5,-195.571"/>
<polygon fill="midnightblue" stroke="midnightblue" points="1266.75,-224.519 1259.63,-232.362 1270.08,-230.673 1266.75,-224.519"/>
</g>
<!-- Node37 -->
<g id="node79" class="node"><title>Node37</title>
<a xlink:href="uiseissubsel_8h.html" target="_top" xlink:title="uiseissubsel.h">
<polygon fill="white" stroke="black" points="1200.5,-174.5 1200.5,-195.5 1279.5,-195.5 1279.5,-174.5 1200.5,-174.5"/>
<text text-anchor="middle" x="1240" y="-182.5" font-family="Helvetica,sans-Serif" font-size="10.00">uiseissubsel.h</text>
</a>
</g>
<!-- Node35&#45;&gt;Node37 -->
<g id="edge84" class="edge"><title>Node35&#45;&gt;Node37</title>
<path fill="none" stroke="midnightblue" d="M1240,-222.191C1240,-213.168 1240,-202.994 1240,-195.571"/>
<polygon fill="midnightblue" stroke="midnightblue" points="1236.5,-222.362 1240,-232.362 1243.5,-222.362 1236.5,-222.362"/>
</g>
<!-- Node47 -->
<g id="node100" class="node"><title>Node47</title>
<a xlink:href="uistaticsdesc_8h.html" target="_top" xlink:title="uistaticsdesc.h">
<polygon fill="white" stroke="black" points="2062.5,-174.5 2062.5,-195.5 2145.5,-195.5 2145.5,-174.5 2062.5,-174.5"/>
<text text-anchor="middle" x="2104" y="-182.5" font-family="Helvetica,sans-Serif" font-size="10.00">uistaticsdesc.h</text>
</a>
</g>
<!-- Node46&#45;&gt;Node47 -->
<g id="edge106" class="edge"><title>Node46&#45;&gt;Node47</title>
<path fill="none" stroke="midnightblue" d="M2104,-222.191C2104,-213.168 2104,-202.994 2104,-195.571"/>
<polygon fill="midnightblue" stroke="midnightblue" points="2100.5,-222.362 2104,-232.362 2107.5,-222.362 2100.5,-222.362"/>
</g>
<!-- Node48 -->
<g id="node102" class="node"><title>Node48</title>
<a xlink:href="uiveldesc_8h.html" target="_top" xlink:title="uiveldesc.h">
<polygon fill="white" stroke="black" points="2163,-174.5 2163,-195.5 2229,-195.5 2229,-174.5 2163,-174.5"/>
<text text-anchor="middle" x="2196" y="-182.5" font-family="Helvetica,sans-Serif" font-size="10.00">uiveldesc.h</text>
</a>
</g>
<!-- Node46&#45;&gt;Node48 -->
<g id="edge108" class="edge"><title>Node46&#45;&gt;Node48</title>
<path fill="none" stroke="midnightblue" d="M2129.66,-226.821C2145.51,-216.831 2165.39,-204.299 2179.23,-195.571"/>
<polygon fill="midnightblue" stroke="midnightblue" points="2127.47,-224.068 2120.87,-232.362 2131.2,-229.99 2127.47,-224.068"/>
</g>
<!-- Node49 -->
<g id="node104" class="node"><title>Node49</title>
<a xlink:href="uisteeringsel_8h.html" target="_top" xlink:title="uisteeringsel.h">
<polygon fill="white" stroke="red" points="1965,-174.5 1965,-195.5 2045,-195.5 2045,-174.5 1965,-174.5"/>
<text text-anchor="middle" x="2005" y="-182.5" font-family="Helvetica,sans-Serif" font-size="10.00">uisteeringsel.h</text>
</a>
</g>
<!-- Node46&#45;&gt;Node49 -->
<g id="edge110" class="edge"><title>Node46&#45;&gt;Node49</title>
<path fill="none" stroke="midnightblue" d="M2076.86,-227.101C2059.73,-217.066 2038.08,-204.381 2023.04,-195.571"/>
<polygon fill="midnightblue" stroke="midnightblue" points="2075.44,-230.327 2085.84,-232.362 2078.98,-224.287 2075.44,-230.327"/>
</g>
</g>
</svg>
