<?xml version="1.0" encoding="UTF-8" standalone="no"?>
<!DOCTYPE svg PUBLIC "-//W3C//DTD SVG 1.1//EN"
 "http://www.w3.org/Graphics/SVG/1.1/DTD/svg11.dtd">
<!-- Generated by graphviz version 2.26.0 (20091210.2329)
 -->
<!-- Title: seispsread.h Pages: 1 -->
<svg width="846pt" height="668pt"
 viewBox="0.00 0.00 846.00 668.00" xmlns="http://www.w3.org/2000/svg" xmlns:xlink="http://www.w3.org/1999/xlink">
<g id="graph1" class="graph" transform="scale(1 1) rotate(0) translate(4 664)">
<title>seispsread.h</title>
<polygon fill="white" stroke="white" points="-4,5 -4,-664 843,-664 843,5 -4,5"/>
<!-- Node1 -->
<g id="node1" class="node"><title>Node1</title>
<polygon fill="#bfbfbf" stroke="black" points="202,-638.5 202,-659.5 274,-659.5 274,-638.5 202,-638.5"/>
<text text-anchor="middle" x="238" y="-646.5" font-family="Helvetica,sans-Serif" font-size="10.00">seispsread.h</text>
</g>
<!-- Node2 -->
<g id="node3" class="node"><title>Node2</title>
<polygon fill="white" stroke="#bfbfbf" points="129,-580.5 129,-601.5 191,-601.5 191,-580.5 129,-580.5"/>
<text text-anchor="middle" x="160" y="-588.5" font-family="Helvetica,sans-Serif" font-size="10.00">seismod.h</text>
</g>
<!-- Node1&#45;&gt;Node2 -->
<g id="edge2" class="edge"><title>Node1&#45;&gt;Node2</title>
<path fill="none" stroke="midnightblue" d="M223.694,-638.362C212.149,-629.777 195.7,-617.546 182.41,-607.664"/>
<polygon fill="midnightblue" stroke="midnightblue" points="184.329,-604.729 174.216,-601.571 180.152,-610.346 184.329,-604.729"/>
</g>
<!-- Node3 -->
<g id="node5" class="node"><title>Node3</title>
<a xlink:href="bufstring_8h.html" target="_top" xlink:title="bufstring.h">
<polygon fill="white" stroke="black" points="226,-348.5 226,-369.5 288,-369.5 288,-348.5 226,-348.5"/>
<text text-anchor="middle" x="257" y="-356.5" font-family="Helvetica,sans-Serif" font-size="10.00">bufstring.h</text>
</a>
</g>
<!-- Node1&#45;&gt;Node3 -->
<g id="edge4" class="edge"><title>Node1&#45;&gt;Node3</title>
<path fill="none" stroke="midnightblue" d="M240.969,-638.222C246.312,-617.841 257,-572.182 257,-533 257,-533 257,-533 257,-475 257,-441.598 257,-402.785 257,-379.594"/>
<polygon fill="midnightblue" stroke="midnightblue" points="260.5,-379.556 257,-369.556 253.5,-379.556 260.5,-379.556"/>
</g>
<!-- Node21 -->
<g id="node51" class="node"><title>Node21</title>
<a xlink:href="binid_8h.html" target="_top" xlink:title="binid.h">
<polygon fill="white" stroke="black" points="72.5,-348.5 72.5,-369.5 117.5,-369.5 117.5,-348.5 72.5,-348.5"/>
<text text-anchor="middle" x="95" y="-356.5" font-family="Helvetica,sans-Serif" font-size="10.00">binid.h</text>
</a>
</g>
<!-- Node1&#45;&gt;Node21 -->
<g id="edge60" class="edge"><title>Node1&#45;&gt;Node21</title>
<path fill="none" stroke="midnightblue" d="M235.031,-638.222C229.688,-617.841 219,-572.182 219,-533 219,-533 219,-533 219,-475 219,-424.667 163.84,-389.873 127.099,-372.28"/>
<polygon fill="midnightblue" stroke="midnightblue" points="128.291,-368.976 117.744,-367.977 125.366,-375.336 128.291,-368.976"/>
</g>
<!-- Node25 -->
<g id="node63" class="node"><title>Node25</title>
<a xlink:href="uistring_8h.html" target="_top" xlink:title="uistring.h">
<polygon fill="white" stroke="black" points="474,-580.5 474,-601.5 530,-601.5 530,-580.5 474,-580.5"/>
<text text-anchor="middle" x="502" y="-588.5" font-family="Helvetica,sans-Serif" font-size="10.00">uistring.h</text>
</a>
</g>
<!-- Node1&#45;&gt;Node25 -->
<g id="edge76" class="edge"><title>Node1&#45;&gt;Node25</title>
<path fill="none" stroke="midnightblue" d="M274.155,-641.057C323.962,-630.114 413.27,-610.494 464.021,-599.344"/>
<polygon fill="midnightblue" stroke="midnightblue" points="464.92,-602.73 473.936,-597.166 463.418,-595.893 464.92,-602.73"/>
</g>
<!-- Node4 -->
<g id="node7" class="node"><title>Node4</title>
<polygon fill="white" stroke="#bfbfbf" points="214.5,-0.5 214.5,-21.5 281.5,-21.5 281.5,-0.5 214.5,-0.5"/>
<text text-anchor="middle" x="248" y="-8.5" font-family="Helvetica,sans-Serif" font-size="10.00">basicmod.h</text>
</g>
<!-- Node3&#45;&gt;Node4 -->
<g id="edge6" class="edge"><title>Node3&#45;&gt;Node4</title>
<path fill="none" stroke="midnightblue" d="M241.804,-348.437C217.355,-330.064 172,-289.688 172,-243 172,-243 172,-243 172,-127 172,-86.5104 204.797,-49.1585 227.302,-28.2949"/>
<polygon fill="midnightblue" stroke="midnightblue" points="229.64,-30.8993 234.762,-21.6247 224.974,-25.681 229.64,-30.8993"/>
</g>
<!-- Node5 -->
<g id="node9" class="node"><title>Node5</title>
<a xlink:href="fixedstring_8h.html" target="_top" xlink:title="fixedstring.h">
<polygon fill="white" stroke="black" points="270,-290.5 270,-311.5 340,-311.5 340,-290.5 270,-290.5"/>
<text text-anchor="middle" x="305" y="-298.5" font-family="Helvetica,sans-Serif" font-size="10.00">fixedstring.h</text>
</a>
</g>
<!-- Node3&#45;&gt;Node5 -->
<g id="edge8" class="edge"><title>Node3&#45;&gt;Node5</title>
<path fill="none" stroke="midnightblue" d="M265.804,-348.362C272.502,-340.268 281.884,-328.932 289.789,-319.38"/>
<polygon fill="midnightblue" stroke="midnightblue" points="292.573,-321.506 296.252,-311.571 287.18,-317.043 292.573,-321.506"/>
</g>
<!-- Node18 -->
<g id="node42" class="node"><title>Node18</title>
<a xlink:href="string2_8h.html" target="_top" xlink:title="string2.h">
<polygon fill="white" stroke="black" points="362,-116.5 362,-137.5 416,-137.5 416,-116.5 362,-116.5"/>
<text text-anchor="middle" x="389" y="-124.5" font-family="Helvetica,sans-Serif" font-size="10.00">string2.h</text>
</a>
</g>
<!-- Node3&#45;&gt;Node18 -->
<g id="edge48" class="edge"><title>Node3&#45;&gt;Node18</title>
<path fill="none" stroke="midnightblue" d="M255.953,-348.399C254.958,-334.577 254.453,-309.826 261,-290 281.523,-227.852 337.504,-171.728 368.193,-144.444"/>
<polygon fill="midnightblue" stroke="midnightblue" points="370.887,-146.739 376.128,-137.532 366.289,-141.461 370.887,-146.739"/>
</g>
<!-- Node5&#45;&gt;Node4 -->
<g id="edge10" class="edge"><title>Node5&#45;&gt;Node4</title>
<path fill="none" stroke="midnightblue" d="M302.904,-290.335C294.524,-247.704 263.348,-89.0869 252.089,-31.8034"/>
<polygon fill="midnightblue" stroke="midnightblue" points="255.478,-30.8994 250.115,-21.7622 248.61,-32.2495 255.478,-30.8994"/>
</g>
<!-- Node6 -->
<g id="node12" class="node"><title>Node6</title>
<a xlink:href="odstring_8h.html" target="_top" xlink:title="odstring.h">
<polygon fill="white" stroke="black" points="307.5,-232.5 307.5,-253.5 366.5,-253.5 366.5,-232.5 307.5,-232.5"/>
<text text-anchor="middle" x="337" y="-240.5" font-family="Helvetica,sans-Serif" font-size="10.00">odstring.h</text>
</a>
</g>
<!-- Node5&#45;&gt;Node6 -->
<g id="edge12" class="edge"><title>Node5&#45;&gt;Node6</title>
<path fill="none" stroke="midnightblue" d="M310.869,-290.362C315.155,-282.595 321.087,-271.843 326.216,-262.546"/>
<polygon fill="midnightblue" stroke="midnightblue" points="329.402,-264.017 331.168,-253.571 323.273,-260.636 329.402,-264.017"/>
</g>
<!-- Node6&#45;&gt;Node4 -->
<g id="edge14" class="edge"><title>Node6&#45;&gt;Node4</title>
<path fill="none" stroke="midnightblue" d="M332.945,-232.429C319.161,-196.497 273.961,-78.6742 255.728,-31.1453"/>
<polygon fill="midnightblue" stroke="midnightblue" points="258.929,-29.7165 252.079,-21.6335 252.393,-32.2237 258.929,-29.7165"/>
</g>
<!-- Node7 -->
<g id="node15" class="node"><title>Node7</title>
<a xlink:href="gendefs_8h.html" target="_top" xlink:title="gendefs.h">
<polygon fill="white" stroke="black" points="518.5,-174.5 518.5,-195.5 577.5,-195.5 577.5,-174.5 518.5,-174.5"/>
<text text-anchor="middle" x="548" y="-182.5" font-family="Helvetica,sans-Serif" font-size="10.00">gendefs.h</text>
</a>
</g>
<!-- Node6&#45;&gt;Node7 -->
<g id="edge16" class="edge"><title>Node6&#45;&gt;Node7</title>
<path fill="none" stroke="midnightblue" d="M366.784,-234.813C403.934,-224.601 467.56,-207.111 508.682,-195.808"/>
<polygon fill="midnightblue" stroke="midnightblue" points="509.653,-199.171 518.368,-193.145 507.798,-192.421 509.653,-199.171"/>
</g>
<!-- Node8 -->
<g id="node17" class="node"><title>Node8</title>
<a xlink:href="undefval_8h.html" target="_top" xlink:title="undefval.h">
<polygon fill="white" stroke="black" points="544,-116.5 544,-137.5 606,-137.5 606,-116.5 544,-116.5"/>
<text text-anchor="middle" x="575" y="-124.5" font-family="Helvetica,sans-Serif" font-size="10.00">undefval.h</text>
</a>
</g>
<!-- Node7&#45;&gt;Node8 -->
<g id="edge18" class="edge"><title>Node7&#45;&gt;Node8</title>
<path fill="none" stroke="midnightblue" d="M552.952,-174.362C556.53,-166.677 561.468,-156.069 565.764,-146.84"/>
<polygon fill="midnightblue" stroke="midnightblue" points="569.032,-148.114 570.079,-137.571 562.686,-145.159 569.032,-148.114"/>
</g>
<!-- Node15 -->
<g id="node34" class="node"><title>Node15</title>
<a xlink:href="commontypes_8h.html" target="_top" xlink:title="commontypes.h">
<polygon fill="white" stroke="black" points="624,-116.5 624,-137.5 710,-137.5 710,-116.5 624,-116.5"/>
<text text-anchor="middle" x="667" y="-124.5" font-family="Helvetica,sans-Serif" font-size="10.00">commontypes.h</text>
</a>
</g>
<!-- Node7&#45;&gt;Node15 -->
<g id="edge38" class="edge"><title>Node7&#45;&gt;Node15</title>
<path fill="none" stroke="midnightblue" d="M569.55,-174.497C588.136,-165.438 615.202,-152.246 636.095,-142.063"/>
<polygon fill="midnightblue" stroke="midnightblue" points="637.753,-145.149 645.208,-137.621 634.686,-138.856 637.753,-145.149"/>
</g>
<!-- Node16 -->
<g id="node37" class="node"><title>Node16</title>
<a xlink:href="errmsg_8h.html" target="_top" xlink:title="errmsg.h">
<polygon fill="white" stroke="black" points="471.5,-116.5 471.5,-137.5 526.5,-137.5 526.5,-116.5 471.5,-116.5"/>
<text text-anchor="middle" x="499" y="-124.5" font-family="Helvetica,sans-Serif" font-size="10.00">errmsg.h</text>
</a>
</g>
<!-- Node7&#45;&gt;Node16 -->
<g id="edge42" class="edge"><title>Node7&#45;&gt;Node16</title>
<path fill="none" stroke="midnightblue" d="M539.013,-174.362C532.175,-166.268 522.598,-154.932 514.528,-145.38"/>
<polygon fill="midnightblue" stroke="midnightblue" points="517.058,-142.951 507.93,-137.571 511.71,-147.468 517.058,-142.951"/>
</g>
<!-- Node8&#45;&gt;Node4 -->
<g id="edge20" class="edge"><title>Node8&#45;&gt;Node4</title>
<path fill="none" stroke="midnightblue" d="M574.567,-116.488C573.329,-101.106 568.632,-72.7005 551,-58 512.468,-25.8747 366.428,-15.5769 292.073,-12.3796"/>
<polygon fill="midnightblue" stroke="midnightblue" points="291.778,-8.86482 281.644,-11.9576 291.495,-15.8591 291.778,-8.86482"/>
</g>
<!-- Node9 -->
<g id="node20" class="node"><title>Node9</title>
<a xlink:href="commondefs_8h.html" target="_top" xlink:title="commondefs.h">
<polygon fill="white" stroke="black" points="597.5,-58.5 597.5,-79.5 678.5,-79.5 678.5,-58.5 597.5,-58.5"/>
<text text-anchor="middle" x="638" y="-66.5" font-family="Helvetica,sans-Serif" font-size="10.00">commondefs.h</text>
</a>
</g>
<!-- Node8&#45;&gt;Node9 -->
<g id="edge22" class="edge"><title>Node8&#45;&gt;Node9</title>
<path fill="none" stroke="midnightblue" d="M586.555,-116.362C595.613,-108.023 608.41,-96.2418 618.974,-86.5162"/>
<polygon fill="midnightblue" stroke="midnightblue" points="621.532,-88.9187 626.518,-79.5707 616.79,-83.7688 621.532,-88.9187"/>
</g>
<!-- Node13 -->
<g id="node29" class="node"><title>Node13</title>
<a xlink:href="plftypes_8h.html" target="_top" xlink:title="plftypes.h">
<polygon fill="white" stroke="black" points="695.5,-58.5 695.5,-79.5 754.5,-79.5 754.5,-58.5 695.5,-58.5"/>
<text text-anchor="middle" x="725" y="-66.5" font-family="Helvetica,sans-Serif" font-size="10.00">plftypes.h</text>
</a>
</g>
<!-- Node8&#45;&gt;Node13 -->
<g id="edge32" class="edge"><title>Node8&#45;&gt;Node13</title>
<path fill="none" stroke="midnightblue" d="M602.164,-116.497C626.3,-107.164 661.781,-93.4447 688.412,-83.1475"/>
<polygon fill="midnightblue" stroke="midnightblue" points="689.72,-86.394 697.785,-79.5231 687.196,-79.8651 689.72,-86.394"/>
</g>
<!-- Node9&#45;&gt;Node4 -->
<g id="edge24" class="edge"><title>Node9&#45;&gt;Node4</title>
<path fill="none" stroke="midnightblue" d="M597.361,-60.4407C592.86,-59.5765 588.338,-58.7444 584,-58 479.792,-40.1155 356.521,-24.2032 292.157,-16.2908"/>
<polygon fill="midnightblue" stroke="midnightblue" points="292.32,-12.7847 281.969,-15.0448 291.47,-19.7329 292.32,-12.7847"/>
</g>
<!-- Node10 -->
<g id="node23" class="node"><title>Node10</title>
<a xlink:href="plfdefs_8h.html" target="_top" xlink:title="plfdefs.h">
<polygon fill="white" stroke="black" points="642,-0.5 642,-21.5 696,-21.5 696,-0.5 642,-0.5"/>
<text text-anchor="middle" x="669" y="-8.5" font-family="Helvetica,sans-Serif" font-size="10.00">plfdefs.h</text>
</a>
</g>
<!-- Node9&#45;&gt;Node10 -->
<g id="edge26" class="edge"><title>Node9&#45;&gt;Node10</title>
<path fill="none" stroke="midnightblue" d="M643.686,-58.3619C647.837,-50.5949 653.584,-39.8426 658.553,-30.5458"/>
<polygon fill="midnightblue" stroke="midnightblue" points="661.723,-32.0398 663.35,-21.5707 655.55,-28.7401 661.723,-32.0398"/>
</g>
<!-- Node11 -->
<g id="node25" class="node"><title>Node11</title>
<polygon fill="white" stroke="#bfbfbf" points="713.5,-0.5 713.5,-21.5 772.5,-21.5 772.5,-0.5 713.5,-0.5"/>
<text text-anchor="middle" x="743" y="-8.5" font-family="Helvetica,sans-Serif" font-size="10.00">stdexcept</text>
</g>
<!-- Node9&#45;&gt;Node11 -->
<g id="edge28" class="edge"><title>Node9&#45;&gt;Node11</title>
<path fill="none" stroke="midnightblue" d="M657.259,-58.3619C673.466,-49.4094 696.853,-36.4908 715.109,-26.4064"/>
<polygon fill="midnightblue" stroke="midnightblue" points="716.802,-29.4696 723.863,-21.5707 713.418,-23.3422 716.802,-29.4696"/>
</g>
<!-- Node12 -->
<g id="node27" class="node"><title>Node12</title>
<polygon fill="white" stroke="#bfbfbf" points="589.5,-0.5 589.5,-21.5 624.5,-21.5 624.5,-0.5 589.5,-0.5"/>
<text text-anchor="middle" x="607" y="-8.5" font-family="Helvetica,sans-Serif" font-size="10.00">new</text>
</g>
<!-- Node9&#45;&gt;Node12 -->
<g id="edge30" class="edge"><title>Node9&#45;&gt;Node12</title>
<path fill="none" stroke="midnightblue" d="M632.314,-58.3619C628.163,-50.5949 622.416,-39.8426 617.447,-30.5458"/>
<polygon fill="midnightblue" stroke="midnightblue" points="620.45,-28.7401 612.65,-21.5707 614.277,-32.0398 620.45,-28.7401"/>
</g>
<!-- Node13&#45;&gt;Node10 -->
<g id="edge34" class="edge"><title>Node13&#45;&gt;Node10</title>
<path fill="none" stroke="midnightblue" d="M714.729,-58.3619C706.756,-50.1043 695.525,-38.4725 686.189,-28.8029"/>
<polygon fill="midnightblue" stroke="midnightblue" points="688.67,-26.3336 679.206,-21.5707 683.634,-31.1958 688.67,-26.3336"/>
</g>
<!-- Node14 -->
<g id="node32" class="node"><title>Node14</title>
<polygon fill="white" stroke="#bfbfbf" points="789.5,-0.5 789.5,-21.5 838.5,-21.5 838.5,-0.5 789.5,-0.5"/>
<text text-anchor="middle" x="814" y="-8.5" font-family="Helvetica,sans-Serif" font-size="10.00">stdint.h</text>
</g>
<!-- Node13&#45;&gt;Node14 -->
<g id="edge36" class="edge"><title>Node13&#45;&gt;Node14</title>
<path fill="none" stroke="midnightblue" d="M741.324,-58.3619C754.748,-49.6138 773.983,-37.0786 789.293,-27.1015"/>
<polygon fill="midnightblue" stroke="midnightblue" points="791.312,-29.9628 797.78,-21.5707 787.491,-24.0982 791.312,-29.9628"/>
</g>
<!-- Node15&#45;&gt;Node9 -->
<g id="edge40" class="edge"><title>Node15&#45;&gt;Node9</title>
<path fill="none" stroke="midnightblue" d="M661.681,-116.362C657.797,-108.595 652.421,-97.8426 647.773,-88.5458"/>
<polygon fill="midnightblue" stroke="midnightblue" points="650.888,-86.9497 643.285,-79.5707 644.627,-90.0802 650.888,-86.9497"/>
</g>
<!-- Node16&#45;&gt;Node9 -->
<g id="edge44" class="edge"><title>Node16&#45;&gt;Node9</title>
<path fill="none" stroke="midnightblue" d="M524.172,-116.497C546.273,-107.275 578.639,-93.7695 603.213,-83.5153"/>
<polygon fill="midnightblue" stroke="midnightblue" points="604.665,-86.7022 612.546,-79.6212 601.969,-80.2421 604.665,-86.7022"/>
</g>
<!-- Node17 -->
<g id="node40" class="node"><title>Node17</title>
<polygon fill="white" stroke="#bfbfbf" points="491.5,-58.5 491.5,-79.5 542.5,-79.5 542.5,-58.5 491.5,-58.5"/>
<text text-anchor="middle" x="517" y="-66.5" font-family="Helvetica,sans-Serif" font-size="10.00">typeinfo</text>
</g>
<!-- Node16&#45;&gt;Node17 -->
<g id="edge46" class="edge"><title>Node16&#45;&gt;Node17</title>
<path fill="none" stroke="midnightblue" d="M502.301,-116.362C504.661,-108.758 507.909,-98.294 510.751,-89.1349"/>
<polygon fill="midnightblue" stroke="midnightblue" points="514.098,-90.1587 513.719,-79.5707 507.413,-88.0839 514.098,-90.1587"/>
</g>
<!-- Node18&#45;&gt;Node4 -->
<g id="edge50" class="edge"><title>Node18&#45;&gt;Node4</title>
<path fill="none" stroke="midnightblue" d="M364.704,-116.383C347.074,-107.999 323.222,-95.2004 305,-80 287.61,-65.4933 271.545,-45.1391 260.934,-30.298"/>
<polygon fill="midnightblue" stroke="midnightblue" points="263.654,-28.0792 255.068,-21.8713 257.908,-32.0783 263.654,-28.0792"/>
</g>
<!-- Node18&#45;&gt;Node9 -->
<g id="edge54" class="edge"><title>Node18&#45;&gt;Node9</title>
<path fill="none" stroke="midnightblue" d="M416.121,-120.683C457.126,-111.131 535.597,-92.853 587.37,-80.7934"/>
<polygon fill="midnightblue" stroke="midnightblue" points="588.404,-84.1462 597.35,-78.4688 586.816,-77.3287 588.404,-84.1462"/>
</g>
<!-- Node18&#45;&gt;Node13 -->
<g id="edge52" class="edge"><title>Node18&#45;&gt;Node13</title>
<path fill="none" stroke="midnightblue" d="M416.148,-122.918C479.53,-113.36 635.185,-89.728 685.303,-80.0477"/>
<polygon fill="midnightblue" stroke="midnightblue" points="686.133,-83.4503 695.22,-78.003 684.72,-76.5945 686.133,-83.4503"/>
</g>
<!-- Node19 -->
<g id="node47" class="node"><title>Node19</title>
<polygon fill="white" stroke="#bfbfbf" points="313.5,-58.5 313.5,-79.5 362.5,-79.5 362.5,-58.5 313.5,-58.5"/>
<text text-anchor="middle" x="338" y="-66.5" font-family="Helvetica,sans-Serif" font-size="10.00">ctype.h</text>
</g>
<!-- Node18&#45;&gt;Node19 -->
<g id="edge56" class="edge"><title>Node18&#45;&gt;Node19</title>
<path fill="none" stroke="midnightblue" d="M379.646,-116.362C372.457,-108.186 362.359,-96.7025 353.907,-87.0907"/>
<polygon fill="midnightblue" stroke="midnightblue" points="356.527,-84.7692 347.295,-79.5707 351.27,-89.3916 356.527,-84.7692"/>
</g>
<!-- Node20 -->
<g id="node49" class="node"><title>Node20</title>
<polygon fill="white" stroke="#bfbfbf" points="380,-58.5 380,-79.5 436,-79.5 436,-58.5 380,-58.5"/>
<text text-anchor="middle" x="408" y="-66.5" font-family="Helvetica,sans-Serif" font-size="10.00">wctype.h</text>
</g>
<!-- Node18&#45;&gt;Node20 -->
<g id="edge58" class="edge"><title>Node18&#45;&gt;Node20</title>
<path fill="none" stroke="midnightblue" d="M392.485,-116.362C394.976,-108.758 398.404,-98.294 401.404,-89.1349"/>
<polygon fill="midnightblue" stroke="midnightblue" points="404.75,-90.1634 404.537,-79.5707 398.098,-87.9841 404.75,-90.1634"/>
</g>
<!-- Node21&#45;&gt;Node4 -->
<g id="edge62" class="edge"><title>Node21&#45;&gt;Node4</title>
<path fill="none" stroke="midnightblue" d="M77.1312,-348.294C49.612,-330.291 0,-291.157 0,-243 0,-243 0,-243 0,-127 0,-82.4316 133.076,-40.9131 204.265,-21.8915"/>
<polygon fill="midnightblue" stroke="midnightblue" points="205.516,-25.1813 214.296,-19.2506 203.734,-18.412 205.516,-25.1813"/>
</g>
<!-- Node22 -->
<g id="node54" class="node"><title>Node22</title>
<a xlink:href="posidxpair_8h.html" target="_top" xlink:title="posidxpair.h">
<polygon fill="white" stroke="black" points="60.5,-290.5 60.5,-311.5 129.5,-311.5 129.5,-290.5 60.5,-290.5"/>
<text text-anchor="middle" x="95" y="-298.5" font-family="Helvetica,sans-Serif" font-size="10.00">posidxpair.h</text>
</a>
</g>
<!-- Node21&#45;&gt;Node22 -->
<g id="edge64" class="edge"><title>Node21&#45;&gt;Node22</title>
<path fill="none" stroke="midnightblue" d="M95,-348.362C95,-340.922 95,-330.743 95,-321.728"/>
<polygon fill="midnightblue" stroke="midnightblue" points="98.5001,-321.571 95,-311.571 91.5001,-321.571 98.5001,-321.571"/>
</g>
<!-- Node22&#45;&gt;Node4 -->
<g id="edge66" class="edge"><title>Node22&#45;&gt;Node4</title>
<path fill="none" stroke="midnightblue" d="M101.266,-290.211C112.29,-270.18 134,-225.581 134,-185 134,-185 134,-185 134,-127 134,-94.5312 136.783,-82.5779 158,-58 170.421,-43.6111 188.347,-33.0048 204.937,-25.5475"/>
<polygon fill="midnightblue" stroke="midnightblue" points="206.644,-28.6263 214.498,-21.5159 203.924,-22.1762 206.644,-28.6263"/>
</g>
<!-- Node23 -->
<g id="node57" class="node"><title>Node23</title>
<a xlink:href="idxpair_8h.html" target="_top" xlink:title="idxpair.h">
<polygon fill="white" stroke="black" points="53.5,-232.5 53.5,-253.5 106.5,-253.5 106.5,-232.5 53.5,-232.5"/>
<text text-anchor="middle" x="80" y="-240.5" font-family="Helvetica,sans-Serif" font-size="10.00">idxpair.h</text>
</a>
</g>
<!-- Node22&#45;&gt;Node23 -->
<g id="edge68" class="edge"><title>Node22&#45;&gt;Node23</title>
<path fill="none" stroke="midnightblue" d="M92.2488,-290.362C90.3035,-282.84 87.6341,-272.519 85.2838,-263.431"/>
<polygon fill="midnightblue" stroke="midnightblue" points="88.6262,-262.376 82.7338,-253.571 81.8492,-264.128 88.6262,-262.376"/>
</g>
<!-- Node23&#45;&gt;Node4 -->
<g id="edge70" class="edge"><title>Node23&#45;&gt;Node4</title>
<path fill="none" stroke="midnightblue" d="M79.0235,-232.27C76.8076,-201.2 74.7105,-110.065 120,-58 141.24,-33.582 176.299,-21.84 204.359,-16.1991"/>
<polygon fill="midnightblue" stroke="midnightblue" points="205.129,-19.6166 214.342,-14.3847 203.877,-12.7294 205.129,-19.6166"/>
</g>
<!-- Node23&#45;&gt;Node7 -->
<g id="edge72" class="edge"><title>Node23&#45;&gt;Node7</title>
<path fill="none" stroke="midnightblue" d="M106.503,-239.715C184.702,-230.024 414.815,-201.506 508.069,-189.949"/>
<polygon fill="midnightblue" stroke="midnightblue" points="508.731,-193.394 518.225,-188.69 507.87,-186.447 508.731,-193.394"/>
</g>
<!-- Node24 -->
<g id="node61" class="node"><title>Node24</title>
<polygon fill="white" stroke="#bfbfbf" points="28,-174.5 28,-195.5 68,-195.5 68,-174.5 28,-174.5"/>
<text text-anchor="middle" x="48" y="-182.5" font-family="Helvetica,sans-Serif" font-size="10.00">utility</text>
</g>
<!-- Node23&#45;&gt;Node24 -->
<g id="edge74" class="edge"><title>Node23&#45;&gt;Node24</title>
<path fill="none" stroke="midnightblue" d="M74.1307,-232.362C69.8454,-224.595 63.9131,-213.843 58.7839,-204.546"/>
<polygon fill="midnightblue" stroke="midnightblue" points="61.7274,-202.636 53.8321,-195.571 55.5984,-206.017 61.7274,-202.636"/>
</g>
<!-- Node25&#45;&gt;Node7 -->
<g id="edge78" class="edge"><title>Node25&#45;&gt;Node7</title>
<path fill="none" stroke="midnightblue" d="M530.32,-584.711C597.706,-568.928 762,-525.293 762,-475 762,-475 762,-475 762,-301 762,-222.7 649.902,-196.977 587.969,-188.74"/>
<polygon fill="midnightblue" stroke="midnightblue" points="588.109,-185.231 577.756,-187.479 587.252,-192.178 588.109,-185.231"/>
</g>
<!-- Node25&#45;&gt;Node18 -->
<g id="edge94" class="edge"><title>Node25&#45;&gt;Node18</title>
<path fill="none" stroke="midnightblue" d="M483.943,-580.341C456.134,-562.404 406,-523.361 406,-475 406,-475 406,-475 406,-243 406,-209.416 398.938,-170.935 393.917,-147.821"/>
<polygon fill="midnightblue" stroke="midnightblue" points="397.271,-146.782 391.656,-137.798 390.442,-148.323 397.271,-146.782"/>
</g>
<!-- Node26 -->
<g id="node66" class="node"><title>Node26</title>
<a xlink:href="keystrs_8h.html" target="_top" xlink:title="keystrs.h">
<polygon fill="white" stroke="black" points="321.5,-348.5 321.5,-369.5 378.5,-369.5 378.5,-348.5 321.5,-348.5"/>
<text text-anchor="middle" x="350" y="-356.5" font-family="Helvetica,sans-Serif" font-size="10.00">keystrs.h</text>
</a>
</g>
<!-- Node25&#45;&gt;Node26 -->
<g id="edge80" class="edge"><title>Node25&#45;&gt;Node26</title>
<path fill="none" stroke="midnightblue" d="M473.772,-586.369C448.593,-580.736 412.617,-568.721 392,-544 351.855,-495.863 348.187,-417.056 348.947,-379.782"/>
<polygon fill="midnightblue" stroke="midnightblue" points="352.451,-379.74 349.29,-369.628 345.455,-379.504 352.451,-379.74"/>
</g>
<!-- Node27 -->
<g id="node70" class="node"><title>Node27</title>
<a xlink:href="threadlock_8h.html" target="_top" xlink:title="threadlock.h">
<polygon fill="white" stroke="black" points="728,-116.5 728,-137.5 798,-137.5 798,-116.5 728,-116.5"/>
<text text-anchor="middle" x="763" y="-124.5" font-family="Helvetica,sans-Serif" font-size="10.00">threadlock.h</text>
</a>
</g>
<!-- Node25&#45;&gt;Node27 -->
<g id="edge86" class="edge"><title>Node25&#45;&gt;Node27</title>
<path fill="none" stroke="midnightblue" d="M530.057,-588.094C570.31,-583.141 646.083,-570.867 705,-544 752.48,-522.348 800,-527.184 800,-475 800,-475 800,-475 800,-243 800,-207.804 784.349,-169.322 773.405,-146.716"/>
<polygon fill="midnightblue" stroke="midnightblue" points="776.399,-144.879 768.781,-137.515 770.144,-148.022 776.399,-144.879"/>
</g>
<!-- Node28 -->
<g id="node76" class="node"><title>Node28</title>
<a xlink:href="typeset_8h.html" target="_top" xlink:title="typeset.h">
<polygon fill="white" stroke="black" points="569.5,-522.5 569.5,-543.5 626.5,-543.5 626.5,-522.5 569.5,-522.5"/>
<text text-anchor="middle" x="598" y="-530.5" font-family="Helvetica,sans-Serif" font-size="10.00">typeset.h</text>
</a>
</g>
<!-- Node25&#45;&gt;Node28 -->
<g id="edge96" class="edge"><title>Node25&#45;&gt;Node28</title>
<path fill="none" stroke="midnightblue" d="M519.608,-580.362C534.223,-571.532 555.224,-558.844 571.811,-548.822"/>
<polygon fill="midnightblue" stroke="midnightblue" points="573.754,-551.738 580.504,-543.571 570.135,-545.746 573.754,-551.738"/>
</g>
<!-- Node26&#45;&gt;Node5 -->
<g id="edge84" class="edge"><title>Node26&#45;&gt;Node5</title>
<path fill="none" stroke="midnightblue" d="M341.746,-348.362C335.53,-340.35 326.849,-329.161 319.485,-319.67"/>
<polygon fill="midnightblue" stroke="midnightblue" points="322.097,-317.326 313.201,-311.571 316.566,-321.617 322.097,-317.326"/>
</g>
<!-- Node26&#45;&gt;Node7 -->
<g id="edge82" class="edge"><title>Node26&#45;&gt;Node7</title>
<path fill="none" stroke="midnightblue" d="M362.088,-348.377C395.158,-319.316 487.366,-238.284 528.157,-202.438"/>
<polygon fill="midnightblue" stroke="midnightblue" points="530.618,-204.935 535.819,-195.705 525.997,-199.677 530.618,-204.935"/>
</g>
<!-- Node27&#45;&gt;Node4 -->
<g id="edge88" class="edge"><title>Node27&#45;&gt;Node4</title>
<path fill="none" stroke="midnightblue" d="M766.924,-116.326C771.697,-101.261 777.457,-73.8363 763,-58 731.491,-23.4845 410.551,-14.0231 291.837,-11.6936"/>
<polygon fill="midnightblue" stroke="midnightblue" points="291.719,-8.19085 281.655,-11.5017 291.587,-15.1896 291.719,-8.19085"/>
</g>
<!-- Node27&#45;&gt;Node9 -->
<g id="edge90" class="edge"><title>Node27&#45;&gt;Node9</title>
<path fill="none" stroke="midnightblue" d="M740.363,-116.497C720.752,-107.397 692.154,-94.1273 670.167,-83.9253"/>
<polygon fill="midnightblue" stroke="midnightblue" points="671.435,-80.6554 660.891,-79.6212 668.488,-87.0051 671.435,-80.6554"/>
</g>
<!-- Node27&#45;&gt;Node13 -->
<g id="edge92" class="edge"><title>Node27&#45;&gt;Node13</title>
<path fill="none" stroke="midnightblue" d="M756.03,-116.362C750.834,-108.431 743.599,-97.3885 737.422,-87.9606"/>
<polygon fill="midnightblue" stroke="midnightblue" points="740.334,-86.0172 731.926,-79.5707 734.478,-89.8534 740.334,-86.0172"/>
</g>
<!-- Node29 -->
<g id="node78" class="node"><title>Node29</title>
<a xlink:href="odset_8h.html" target="_top" xlink:title="odset.h">
<polygon fill="white" stroke="black" points="671.5,-464.5 671.5,-485.5 720.5,-485.5 720.5,-464.5 671.5,-464.5"/>
<text text-anchor="middle" x="696" y="-472.5" font-family="Helvetica,sans-Serif" font-size="10.00">odset.h</text>
</a>
</g>
<!-- Node28&#45;&gt;Node29 -->
<g id="edge98" class="edge"><title>Node28&#45;&gt;Node29</title>
<path fill="none" stroke="midnightblue" d="M615.975,-522.362C630.894,-513.532 652.333,-500.844 669.266,-490.822"/>
<polygon fill="midnightblue" stroke="midnightblue" points="671.316,-493.676 678.139,-485.571 667.751,-487.652 671.316,-493.676"/>
</g>
<!-- Node30 -->
<g id="node81" class="node"><title>Node30</title>
<a xlink:href="vectoraccess_8h.html" target="_top" xlink:title="vectoraccess.h">
<polygon fill="white" stroke="black" points="556.5,-464.5 556.5,-485.5 639.5,-485.5 639.5,-464.5 556.5,-464.5"/>
<text text-anchor="middle" x="598" y="-472.5" font-family="Helvetica,sans-Serif" font-size="10.00">vectoraccess.h</text>
</a>
</g>
<!-- Node28&#45;&gt;Node30 -->
<g id="edge102" class="edge"><title>Node28&#45;&gt;Node30</title>
<path fill="none" stroke="midnightblue" d="M598,-522.362C598,-514.922 598,-504.743 598,-495.728"/>
<polygon fill="midnightblue" stroke="midnightblue" points="601.5,-495.571 598,-485.571 594.5,-495.571 601.5,-495.571"/>
</g>
<!-- Node29&#45;&gt;Node7 -->
<g id="edge100" class="edge"><title>Node29&#45;&gt;Node7</title>
<path fill="none" stroke="midnightblue" d="M700.375,-464.333C708.25,-444.139 724,-398.777 724,-359 724,-359 724,-359 724,-301 724,-236.158 639.686,-205.505 587.772,-192.777"/>
<polygon fill="midnightblue" stroke="midnightblue" points="588.389,-189.327 577.856,-190.465 586.8,-196.144 588.389,-189.327"/>
</g>
<!-- Node30&#45;&gt;Node7 -->
<g id="edge112" class="edge"><title>Node30&#45;&gt;Node7</title>
<path fill="none" stroke="midnightblue" d="M606.428,-464.367C613.341,-455.194 622.943,-441.352 629,-428 642.141,-399.033 648,-390.808 648,-359 648,-359 648,-359 648,-301 648,-256.663 605.572,-220.869 575.989,-201.3"/>
<polygon fill="midnightblue" stroke="midnightblue" points="577.596,-198.174 567.281,-195.756 573.837,-204.079 577.596,-198.174"/>
</g>
<!-- Node30&#45;&gt;Node11 -->
<g id="edge118" class="edge"><title>Node30&#45;&gt;Node11</title>
<path fill="none" stroke="midnightblue" d="M614.141,-464.27C639.545,-445.948 686,-406.017 686,-359 686,-359 686,-359 686,-301 686,-210.777 778.68,-223.663 807,-138 820.567,-96.9634 785.653,-52.6648 762.218,-28.7538"/>
<polygon fill="midnightblue" stroke="midnightblue" points="764.671,-26.257 755.089,-21.7368 759.761,-31.2459 764.671,-26.257"/>
</g>
<!-- Node31 -->
<g id="node83" class="node"><title>Node31</title>
<a xlink:href="debug_8h.html" target="_top" xlink:title="debug.h">
<polygon fill="white" stroke="black" points="433.5,-406.5 433.5,-427.5 484.5,-427.5 484.5,-406.5 433.5,-406.5"/>
<text text-anchor="middle" x="459" y="-414.5" font-family="Helvetica,sans-Serif" font-size="10.00">debug.h</text>
</a>
</g>
<!-- Node30&#45;&gt;Node31 -->
<g id="edge104" class="edge"><title>Node30&#45;&gt;Node31</title>
<path fill="none" stroke="midnightblue" d="M572.828,-464.497C550.727,-455.275 518.361,-441.769 493.787,-431.515"/>
<polygon fill="midnightblue" stroke="midnightblue" points="495.031,-428.242 484.454,-427.621 492.335,-434.702 495.031,-428.242"/>
</g>
<!-- Node32 -->
<g id="node89" class="node"><title>Node32</title>
<polygon fill="white" stroke="#bfbfbf" points="502,-406.5 502,-427.5 558,-427.5 558,-406.5 502,-406.5"/>
<text text-anchor="middle" x="530" y="-414.5" font-family="Helvetica,sans-Serif" font-size="10.00">algorithm</text>
</g>
<!-- Node30&#45;&gt;Node32 -->
<g id="edge114" class="edge"><title>Node30&#45;&gt;Node32</title>
<path fill="none" stroke="midnightblue" d="M585.528,-464.362C575.655,-455.941 561.667,-444.011 550.202,-434.231"/>
<polygon fill="midnightblue" stroke="midnightblue" points="552.273,-431.397 542.393,-427.571 547.73,-436.723 552.273,-431.397"/>
</g>
<!-- Node33 -->
<g id="node91" class="node"><title>Node33</title>
<polygon fill="white" stroke="#bfbfbf" points="576,-406.5 576,-427.5 620,-427.5 620,-406.5 576,-406.5"/>
<text text-anchor="middle" x="598" y="-414.5" font-family="Helvetica,sans-Serif" font-size="10.00">vector</text>
</g>
<!-- Node30&#45;&gt;Node33 -->
<g id="edge116" class="edge"><title>Node30&#45;&gt;Node33</title>
<path fill="none" stroke="midnightblue" d="M598,-464.362C598,-456.922 598,-446.743 598,-437.728"/>
<polygon fill="midnightblue" stroke="midnightblue" points="601.5,-437.571 598,-427.571 594.5,-437.571 601.5,-437.571"/>
</g>
<!-- Node31&#45;&gt;Node3 -->
<g id="edge110" class="edge"><title>Node31&#45;&gt;Node3</title>
<path fill="none" stroke="midnightblue" d="M433.417,-409.654C399.358,-399.875 338.718,-382.464 298.179,-370.824"/>
<polygon fill="midnightblue" stroke="midnightblue" points="298.912,-367.393 288.334,-367.997 296.98,-374.121 298.912,-367.393"/>
</g>
<!-- Node31&#45;&gt;Node4 -->
<g id="edge106" class="edge"><title>Node31&#45;&gt;Node4</title>
<path fill="none" stroke="midnightblue" d="M456.656,-406.185C452.438,-385.744 444,-339.989 444,-301 444,-301 444,-301 444,-185 444,-128.554 479.977,-102.303 445,-58 426.259,-34.262 343.745,-21.2035 291.631,-15.1909"/>
<polygon fill="midnightblue" stroke="midnightblue" points="291.967,-11.7067 281.641,-14.0812 291.194,-18.6639 291.967,-11.7067"/>
</g>
<!-- Node31&#45;&gt;Node7 -->
<g id="edge108" class="edge"><title>Node31&#45;&gt;Node7</title>
<path fill="none" stroke="midnightblue" d="M463.055,-406.429C476.839,-370.497 522.039,-252.674 540.272,-205.145"/>
<polygon fill="midnightblue" stroke="midnightblue" points="543.607,-206.224 543.921,-195.634 537.071,-203.716 543.607,-206.224"/>
</g>
</g>
</svg>
