<?xml version="1.0" encoding="UTF-8" standalone="no"?>
<!DOCTYPE svg PUBLIC "-//W3C//DTD SVG 1.1//EN"
 "http://www.w3.org/Graphics/SVG/1.1/DTD/svg11.dtd">
<!-- Generated by graphviz version 2.26.0 (20091210.2329)
 -->
<!-- Title: semblancealgo.h Pages: 1 -->
<svg width="1058pt" height="784pt"
 viewBox="0.00 0.00 1058.00 784.00" xmlns="http://www.w3.org/2000/svg" xmlns:xlink="http://www.w3.org/1999/xlink">
<g id="graph1" class="graph" transform="scale(1 1) rotate(0) translate(4 780)">
<title>semblancealgo.h</title>
<polygon fill="white" stroke="white" points="-4,5 -4,-780 1055,-780 1055,5 -4,5"/>
<!-- Node1 -->
<g id="node1" class="node"><title>Node1</title>
<polygon fill="#bfbfbf" stroke="black" points="111,-754.5 111,-775.5 201,-775.5 201,-754.5 111,-754.5"/>
<text text-anchor="middle" x="156" y="-762.5" font-family="Helvetica,sans-Serif" font-size="10.00">semblancealgo.h</text>
</g>
<!-- Node2 -->
<g id="node3" class="node"><title>Node2</title>
<polygon fill="white" stroke="#bfbfbf" points="0,-696.5 0,-717.5 128,-717.5 128,-696.5 0,-696.5"/>
<text text-anchor="middle" x="64" y="-704.5" font-family="Helvetica,sans-Serif" font-size="10.00">prestackprocessingmod.h</text>
</g>
<!-- Node1&#45;&gt;Node2 -->
<g id="edge2" class="edge"><title>Node1&#45;&gt;Node2</title>
<path fill="none" stroke="midnightblue" d="M139.126,-754.362C125.249,-745.614 105.366,-733.079 89.5403,-723.101"/>
<polygon fill="midnightblue" stroke="midnightblue" points="91.0931,-719.943 80.7672,-717.571 87.3599,-725.864 91.0931,-719.943"/>
</g>
<!-- Node3 -->
<g id="node5" class="node"><title>Node3</title>
<a xlink:href="factory_8h.html" target="_top" xlink:title="factory.h">
<polygon fill="white" stroke="black" points="342.5,-696.5 342.5,-717.5 397.5,-717.5 397.5,-696.5 342.5,-696.5"/>
<text text-anchor="middle" x="370" y="-704.5" font-family="Helvetica,sans-Serif" font-size="10.00">factory.h</text>
</a>
</g>
<!-- Node1&#45;&gt;Node3 -->
<g id="edge4" class="edge"><title>Node1&#45;&gt;Node3</title>
<path fill="none" stroke="midnightblue" d="M194.754,-754.497C233.894,-743.888 293.945,-727.613 332.596,-717.137"/>
<polygon fill="midnightblue" stroke="midnightblue" points="333.679,-720.47 342.415,-714.476 331.848,-713.714 333.679,-720.47"/>
</g>
<!-- Node24 -->
<g id="node59" class="node"><title>Node24</title>
<a xlink:href="objectset_8h.html" target="_top" xlink:title="objectset.h">
<polygon fill="white" stroke="black" points="342.5,-522.5 342.5,-543.5 407.5,-543.5 407.5,-522.5 342.5,-522.5"/>
<text text-anchor="middle" x="375" y="-530.5" font-family="Helvetica,sans-Serif" font-size="10.00">objectset.h</text>
</a>
</g>
<!-- Node1&#45;&gt;Node24 -->
<g id="edge154" class="edge"><title>Node1&#45;&gt;Node24</title>
<path fill="none" stroke="midnightblue" d="M158.439,-754.488C166.23,-723.226 193.449,-629.916 251,-580 274.031,-560.025 306.414,-548.139 332.312,-541.319"/>
<polygon fill="midnightblue" stroke="midnightblue" points="333.377,-544.661 342.245,-538.863 331.697,-537.865 333.377,-544.661"/>
</g>
<!-- Node4 -->
<g id="node7" class="node"><title>Node4</title>
<polygon fill="white" stroke="#bfbfbf" points="312.5,-0.5 312.5,-21.5 379.5,-21.5 379.5,-0.5 312.5,-0.5"/>
<text text-anchor="middle" x="346" y="-8.5" font-family="Helvetica,sans-Serif" font-size="10.00">basicmod.h</text>
</g>
<!-- Node3&#45;&gt;Node4 -->
<g id="edge6" class="edge"><title>Node3&#45;&gt;Node4</title>
<path fill="none" stroke="midnightblue" d="M342.069,-700.429C276.457,-684.182 118,-639.885 118,-591 118,-591 118,-591 118,-127 118,-45.2162 235.975,-21.069 302.2,-13.9567"/>
<polygon fill="midnightblue" stroke="midnightblue" points="302.749,-17.4195 312.358,-12.9553 302.063,-10.4533 302.749,-17.4195"/>
</g>
<!-- Node5 -->
<g id="node9" class="node"><title>Node5</title>
<a xlink:href="bufstringset_8h.html" target="_top" xlink:title="bufstringset.h">
<polygon fill="white" stroke="black" points="228,-638.5 228,-659.5 304,-659.5 304,-638.5 228,-638.5"/>
<text text-anchor="middle" x="266" y="-646.5" font-family="Helvetica,sans-Serif" font-size="10.00">bufstringset.h</text>
</a>
</g>
<!-- Node3&#45;&gt;Node5 -->
<g id="edge8" class="edge"><title>Node3&#45;&gt;Node5</title>
<path fill="none" stroke="midnightblue" d="M350.925,-696.362C334.945,-687.45 311.919,-674.609 293.873,-664.545"/>
<polygon fill="midnightblue" stroke="midnightblue" points="295.393,-661.385 284.954,-659.571 291.983,-667.498 295.393,-661.385"/>
</g>
<!-- Node30 -->
<g id="node77" class="node"><title>Node30</title>
<a xlink:href="perthreadrepos_8h.html" target="_top" xlink:title="perthreadrepos.h">
<polygon fill="white" stroke="black" points="397.5,-638.5 397.5,-659.5 486.5,-659.5 486.5,-638.5 397.5,-638.5"/>
<text text-anchor="middle" x="442" y="-646.5" font-family="Helvetica,sans-Serif" font-size="10.00">perthreadrepos.h</text>
</a>
</g>
<!-- Node3&#45;&gt;Node30 -->
<g id="edge94" class="edge"><title>Node3&#45;&gt;Node30</title>
<path fill="none" stroke="midnightblue" d="M383.206,-696.362C393.761,-687.859 408.758,-675.779 420.963,-665.947"/>
<polygon fill="midnightblue" stroke="midnightblue" points="423.286,-668.57 428.878,-659.571 418.895,-663.118 423.286,-668.57"/>
</g>
<!-- Node33 -->
<g id="node91" class="node"><title>Node33</title>
<a xlink:href="ptrman_8h.html" target="_top" xlink:title="ptrman.h">
<polygon fill="white" stroke="black" points="879.5,-232.5 879.5,-253.5 934.5,-253.5 934.5,-232.5 879.5,-232.5"/>
<text text-anchor="middle" x="907" y="-240.5" font-family="Helvetica,sans-Serif" font-size="10.00">ptrman.h</text>
</a>
</g>
<!-- Node3&#45;&gt;Node33 -->
<g id="edge116" class="edge"><title>Node3&#45;&gt;Node33</title>
<path fill="none" stroke="midnightblue" d="M397.644,-703.911C506.284,-691.408 898,-642.736 898,-591 898,-591 898,-591 898,-359 898,-325.497 901.778,-286.715 904.438,-263.557"/>
<polygon fill="midnightblue" stroke="midnightblue" points="907.925,-263.879 905.633,-253.535 900.974,-263.05 907.925,-263.879"/>
</g>
<!-- Node37 -->
<g id="node103" class="node"><title>Node37</title>
<a xlink:href="typeset_8h.html" target="_top" xlink:title="typeset.h">
<polygon fill="white" stroke="black" points="426.5,-522.5 426.5,-543.5 483.5,-543.5 483.5,-522.5 426.5,-522.5"/>
<text text-anchor="middle" x="455" y="-530.5" font-family="Helvetica,sans-Serif" font-size="10.00">typeset.h</text>
</a>
</g>
<!-- Node3&#45;&gt;Node37 -->
<g id="edge132" class="edge"><title>Node3&#45;&gt;Node37</title>
<path fill="none" stroke="midnightblue" d="M371.917,-696.387C374.639,-682.551 380.285,-657.785 389,-638 403.139,-605.903 426.007,-572.14 440.771,-551.827"/>
<polygon fill="midnightblue" stroke="midnightblue" points="443.616,-553.866 446.738,-543.741 437.984,-549.709 443.616,-553.866"/>
</g>
<!-- Node38 -->
<g id="node107" class="node"><title>Node38</title>
<a xlink:href="uistring_8h.html" target="_top" xlink:title="uistring.h">
<polygon fill="white" stroke="black" points="584,-580.5 584,-601.5 640,-601.5 640,-580.5 584,-580.5"/>
<text text-anchor="middle" x="612" y="-588.5" font-family="Helvetica,sans-Serif" font-size="10.00">uistring.h</text>
</a>
</g>
<!-- Node3&#45;&gt;Node38 -->
<g id="edge138" class="edge"><title>Node3&#45;&gt;Node38</title>
<path fill="none" stroke="midnightblue" d="M397.88,-698.068C423.597,-689.468 462.583,-675.509 495,-660 528.24,-644.097 564.492,-621.901 587.695,-607.019"/>
<polygon fill="midnightblue" stroke="midnightblue" points="589.713,-609.882 596.208,-601.511 585.911,-604.005 589.713,-609.882"/>
</g>
<!-- Node5&#45;&gt;Node4 -->
<g id="edge10" class="edge"><title>Node5&#45;&gt;Node4</title>
<path fill="none" stroke="midnightblue" d="M256.621,-638.287C230.02,-606.757 156,-510.609 156,-417 156,-417 156,-417 156,-127 156,-94.5312 156.376,-80.2738 180,-58 197.654,-41.3553 259.447,-26.9542 302.442,-18.6232"/>
<polygon fill="midnightblue" stroke="midnightblue" points="303.214,-22.0393 312.387,-16.7385 301.911,-15.1616 303.214,-22.0393"/>
</g>
<!-- Node6 -->
<g id="node12" class="node"><title>Node6</title>
<a xlink:href="bufstring_8h.html" target="_top" xlink:title="bufstring.h">
<polygon fill="white" stroke="black" points="260,-348.5 260,-369.5 322,-369.5 322,-348.5 260,-348.5"/>
<text text-anchor="middle" x="291" y="-356.5" font-family="Helvetica,sans-Serif" font-size="10.00">bufstring.h</text>
</a>
</g>
<!-- Node5&#45;&gt;Node6 -->
<g id="edge12" class="edge"><title>Node5&#45;&gt;Node6</title>
<path fill="none" stroke="midnightblue" d="M260.688,-638.43C251.125,-618.397 232,-573.293 232,-533 232,-533 232,-533 232,-475 232,-443.192 236.117,-434.111 251,-406 256.623,-395.379 264.996,-385.043 272.631,-376.781"/>
<polygon fill="midnightblue" stroke="midnightblue" points="275.182,-379.179 279.611,-369.554 270.147,-374.316 275.182,-379.179"/>
</g>
<!-- Node23 -->
<g id="node57" class="node"><title>Node23</title>
<a xlink:href="manobjectset_8h.html" target="_top" xlink:title="manobjectset.h">
<polygon fill="white" stroke="black" points="259.5,-580.5 259.5,-601.5 342.5,-601.5 342.5,-580.5 259.5,-580.5"/>
<text text-anchor="middle" x="301" y="-588.5" font-family="Helvetica,sans-Serif" font-size="10.00">manobjectset.h</text>
</a>
</g>
<!-- Node5&#45;&gt;Node23 -->
<g id="edge68" class="edge"><title>Node5&#45;&gt;Node23</title>
<path fill="none" stroke="midnightblue" d="M272.42,-638.362C277.156,-630.513 283.732,-619.616 289.382,-610.253"/>
<polygon fill="midnightblue" stroke="midnightblue" points="292.451,-611.941 294.621,-601.571 286.458,-608.324 292.451,-611.941"/>
</g>
<!-- Node6&#45;&gt;Node4 -->
<g id="edge14" class="edge"><title>Node6&#45;&gt;Node4</title>
<path fill="none" stroke="midnightblue" d="M287.719,-348.243C281.812,-327.898 270,-282.295 270,-243 270,-243 270,-243 270,-127 270,-86.5104 302.797,-49.1585 325.302,-28.2949"/>
<polygon fill="midnightblue" stroke="midnightblue" points="327.64,-30.8993 332.762,-21.6247 322.974,-25.681 327.64,-30.8993"/>
</g>
<!-- Node7 -->
<g id="node15" class="node"><title>Node7</title>
<a xlink:href="fixedstring_8h.html" target="_top" xlink:title="fixedstring.h">
<polygon fill="white" stroke="black" points="337,-290.5 337,-311.5 407,-311.5 407,-290.5 337,-290.5"/>
<text text-anchor="middle" x="372" y="-298.5" font-family="Helvetica,sans-Serif" font-size="10.00">fixedstring.h</text>
</a>
</g>
<!-- Node6&#45;&gt;Node7 -->
<g id="edge16" class="edge"><title>Node6&#45;&gt;Node7</title>
<path fill="none" stroke="midnightblue" d="M305.857,-348.362C317.846,-339.777 334.927,-327.546 348.728,-317.664"/>
<polygon fill="midnightblue" stroke="midnightblue" points="351.145,-320.238 357.238,-311.571 347.069,-314.547 351.145,-320.238"/>
</g>
<!-- Node20 -->
<g id="node48" class="node"><title>Node20</title>
<a xlink:href="string2_8h.html" target="_top" xlink:title="string2.h">
<polygon fill="white" stroke="black" points="413,-116.5 413,-137.5 467,-137.5 467,-116.5 413,-116.5"/>
<text text-anchor="middle" x="440" y="-124.5" font-family="Helvetica,sans-Serif" font-size="10.00">string2.h</text>
</a>
</g>
<!-- Node6&#45;&gt;Node20 -->
<g id="edge56" class="edge"><title>Node6&#45;&gt;Node20</title>
<path fill="none" stroke="midnightblue" d="M296.519,-348.104C303.541,-334.385 316.18,-310.172 328,-290 359.777,-235.769 403.378,-175.748 425.644,-145.948"/>
<polygon fill="midnightblue" stroke="midnightblue" points="428.625,-147.808 431.833,-137.71 423.028,-143.604 428.625,-147.808"/>
</g>
<!-- Node7&#45;&gt;Node4 -->
<g id="edge18" class="edge"><title>Node7&#45;&gt;Node4</title>
<path fill="none" stroke="midnightblue" d="M370.173,-290.201C368.616,-280.693 366.413,-266.46 365,-254 355.695,-171.962 349.537,-73.8218 347.134,-31.7781"/>
<polygon fill="midnightblue" stroke="midnightblue" points="350.623,-31.4726 346.568,-21.6841 343.634,-31.8644 350.623,-31.4726"/>
</g>
<!-- Node8 -->
<g id="node18" class="node"><title>Node8</title>
<a xlink:href="odstring_8h.html" target="_top" xlink:title="odstring.h">
<polygon fill="white" stroke="black" points="373.5,-232.5 373.5,-253.5 432.5,-253.5 432.5,-232.5 373.5,-232.5"/>
<text text-anchor="middle" x="403" y="-240.5" font-family="Helvetica,sans-Serif" font-size="10.00">odstring.h</text>
</a>
</g>
<!-- Node7&#45;&gt;Node8 -->
<g id="edge20" class="edge"><title>Node7&#45;&gt;Node8</title>
<path fill="none" stroke="midnightblue" d="M377.686,-290.362C381.837,-282.595 387.584,-271.843 392.553,-262.546"/>
<polygon fill="midnightblue" stroke="midnightblue" points="395.723,-264.04 397.35,-253.571 389.55,-260.74 395.723,-264.04"/>
</g>
<!-- Node8&#45;&gt;Node4 -->
<g id="edge22" class="edge"><title>Node8&#45;&gt;Node4</title>
<path fill="none" stroke="midnightblue" d="M400.403,-232.429C391.593,-196.573 362.748,-79.1689 351.023,-31.4458"/>
<polygon fill="midnightblue" stroke="midnightblue" points="354.397,-30.5096 348.613,-21.6335 347.6,-32.1798 354.397,-30.5096"/>
</g>
<!-- Node9 -->
<g id="node21" class="node"><title>Node9</title>
<a xlink:href="gendefs_8h.html" target="_top" xlink:title="gendefs.h">
<polygon fill="white" stroke="black" points="601.5,-174.5 601.5,-195.5 660.5,-195.5 660.5,-174.5 601.5,-174.5"/>
<text text-anchor="middle" x="631" y="-182.5" font-family="Helvetica,sans-Serif" font-size="10.00">gendefs.h</text>
</a>
</g>
<!-- Node8&#45;&gt;Node9 -->
<g id="edge24" class="edge"><title>Node8&#45;&gt;Node9</title>
<path fill="none" stroke="midnightblue" d="M432.807,-235.418C473.431,-225.083 546.282,-206.551 591.441,-195.063"/>
<polygon fill="midnightblue" stroke="midnightblue" points="592.357,-198.442 601.186,-192.584 590.631,-191.658 592.357,-198.442"/>
</g>
<!-- Node10 -->
<g id="node23" class="node"><title>Node10</title>
<a xlink:href="undefval_8h.html" target="_top" xlink:title="undefval.h">
<polygon fill="white" stroke="black" points="595,-116.5 595,-137.5 657,-137.5 657,-116.5 595,-116.5"/>
<text text-anchor="middle" x="626" y="-124.5" font-family="Helvetica,sans-Serif" font-size="10.00">undefval.h</text>
</a>
</g>
<!-- Node9&#45;&gt;Node10 -->
<g id="edge26" class="edge"><title>Node9&#45;&gt;Node10</title>
<path fill="none" stroke="midnightblue" d="M630.083,-174.362C629.442,-166.922 628.564,-156.743 627.787,-147.728"/>
<polygon fill="midnightblue" stroke="midnightblue" points="631.257,-147.233 626.911,-137.571 624.283,-147.834 631.257,-147.233"/>
</g>
<!-- Node17 -->
<g id="node40" class="node"><title>Node17</title>
<a xlink:href="commontypes_8h.html" target="_top" xlink:title="commontypes.h">
<polygon fill="white" stroke="black" points="675,-116.5 675,-137.5 761,-137.5 761,-116.5 675,-116.5"/>
<text text-anchor="middle" x="718" y="-124.5" font-family="Helvetica,sans-Serif" font-size="10.00">commontypes.h</text>
</a>
</g>
<!-- Node9&#45;&gt;Node17 -->
<g id="edge46" class="edge"><title>Node9&#45;&gt;Node17</title>
<path fill="none" stroke="midnightblue" d="M646.957,-174.362C659.957,-165.696 678.531,-153.313 693.427,-143.382"/>
<polygon fill="midnightblue" stroke="midnightblue" points="695.765,-146.03 702.144,-137.571 691.882,-140.206 695.765,-146.03"/>
</g>
<!-- Node18 -->
<g id="node43" class="node"><title>Node18</title>
<a xlink:href="errmsg_8h.html" target="_top" xlink:title="errmsg.h">
<polygon fill="white" stroke="black" points="522.5,-116.5 522.5,-137.5 577.5,-137.5 577.5,-116.5 522.5,-116.5"/>
<text text-anchor="middle" x="550" y="-124.5" font-family="Helvetica,sans-Serif" font-size="10.00">errmsg.h</text>
</a>
</g>
<!-- Node9&#45;&gt;Node18 -->
<g id="edge50" class="edge"><title>Node9&#45;&gt;Node18</title>
<path fill="none" stroke="midnightblue" d="M616.143,-174.362C604.154,-165.777 587.073,-153.546 573.272,-143.664"/>
<polygon fill="midnightblue" stroke="midnightblue" points="574.931,-140.547 564.762,-137.571 570.855,-146.238 574.931,-140.547"/>
</g>
<!-- Node10&#45;&gt;Node4 -->
<g id="edge28" class="edge"><title>Node10&#45;&gt;Node4</title>
<path fill="none" stroke="midnightblue" d="M627.023,-116.412C627.857,-101.197 626.901,-73.2997 611,-58 580.079,-28.2476 457.113,-16.9942 390.1,-13.0103"/>
<polygon fill="midnightblue" stroke="midnightblue" points="390.03,-9.50084 379.848,-12.4316 389.635,-16.4897 390.03,-9.50084"/>
</g>
<!-- Node11 -->
<g id="node26" class="node"><title>Node11</title>
<a xlink:href="commondefs_8h.html" target="_top" xlink:title="commondefs.h">
<polygon fill="white" stroke="black" points="733.5,-58.5 733.5,-79.5 814.5,-79.5 814.5,-58.5 733.5,-58.5"/>
<text text-anchor="middle" x="774" y="-66.5" font-family="Helvetica,sans-Serif" font-size="10.00">commondefs.h</text>
</a>
</g>
<!-- Node10&#45;&gt;Node11 -->
<g id="edge30" class="edge"><title>Node10&#45;&gt;Node11</title>
<path fill="none" stroke="midnightblue" d="M652.802,-116.497C676.438,-107.234 711.1,-93.6499 737.308,-83.3793"/>
<polygon fill="midnightblue" stroke="midnightblue" points="738.864,-86.5287 746.898,-79.6212 736.31,-80.0113 738.864,-86.5287"/>
</g>
<!-- Node15 -->
<g id="node35" class="node"><title>Node15</title>
<a xlink:href="plftypes_8h.html" target="_top" xlink:title="plftypes.h">
<polygon fill="white" stroke="black" points="869.5,-58.5 869.5,-79.5 928.5,-79.5 928.5,-58.5 869.5,-58.5"/>
<text text-anchor="middle" x="899" y="-66.5" font-family="Helvetica,sans-Serif" font-size="10.00">plftypes.h</text>
</a>
</g>
<!-- Node10&#45;&gt;Node15 -->
<g id="edge40" class="edge"><title>Node10&#45;&gt;Node15</title>
<path fill="none" stroke="midnightblue" d="M657.39,-118.147C660.294,-117.394 663.197,-116.667 666,-116 733.552,-99.9188 812.969,-84.6714 859.466,-76.1098"/>
<polygon fill="midnightblue" stroke="midnightblue" points="860.226,-79.5289 869.432,-74.2845 858.965,-72.6435 860.226,-79.5289"/>
</g>
<!-- Node11&#45;&gt;Node4 -->
<g id="edge32" class="edge"><title>Node11&#45;&gt;Node4</title>
<path fill="none" stroke="midnightblue" d="M733.371,-60.3795C728.868,-59.5268 724.343,-58.7141 720,-58 601.15,-38.4561 459.877,-22.7205 389.856,-15.4194"/>
<polygon fill="midnightblue" stroke="midnightblue" points="389.956,-11.9111 379.649,-14.3623 389.235,-18.8738 389.956,-11.9111"/>
</g>
<!-- Node12 -->
<g id="node29" class="node"><title>Node12</title>
<a xlink:href="plfdefs_8h.html" target="_top" xlink:title="plfdefs.h">
<polygon fill="white" stroke="black" points="806,-0.5 806,-21.5 860,-21.5 860,-0.5 806,-0.5"/>
<text text-anchor="middle" x="833" y="-8.5" font-family="Helvetica,sans-Serif" font-size="10.00">plfdefs.h</text>
</a>
</g>
<!-- Node11&#45;&gt;Node12 -->
<g id="edge34" class="edge"><title>Node11&#45;&gt;Node12</title>
<path fill="none" stroke="midnightblue" d="M784.822,-58.3619C793.221,-50.1043 805.054,-38.4725 814.89,-28.8029"/>
<polygon fill="midnightblue" stroke="midnightblue" points="817.569,-31.077 822.247,-21.5707 812.662,-26.0851 817.569,-31.077"/>
</g>
<!-- Node13 -->
<g id="node31" class="node"><title>Node13</title>
<polygon fill="white" stroke="#bfbfbf" points="657.5,-0.5 657.5,-21.5 716.5,-21.5 716.5,-0.5 657.5,-0.5"/>
<text text-anchor="middle" x="687" y="-8.5" font-family="Helvetica,sans-Serif" font-size="10.00">stdexcept</text>
</g>
<!-- Node11&#45;&gt;Node13 -->
<g id="edge36" class="edge"><title>Node11&#45;&gt;Node13</title>
<path fill="none" stroke="midnightblue" d="M758.043,-58.3619C745.043,-49.6955 726.469,-37.3126 711.573,-27.3819"/>
<polygon fill="midnightblue" stroke="midnightblue" points="713.118,-24.2055 702.856,-21.5707 709.235,-30.0299 713.118,-24.2055"/>
</g>
<!-- Node14 -->
<g id="node33" class="node"><title>Node14</title>
<polygon fill="white" stroke="#bfbfbf" points="753.5,-0.5 753.5,-21.5 788.5,-21.5 788.5,-0.5 753.5,-0.5"/>
<text text-anchor="middle" x="771" y="-8.5" font-family="Helvetica,sans-Serif" font-size="10.00">new</text>
</g>
<!-- Node11&#45;&gt;Node14 -->
<g id="edge38" class="edge"><title>Node11&#45;&gt;Node14</title>
<path fill="none" stroke="midnightblue" d="M773.45,-58.3619C773.065,-50.9219 772.538,-40.7427 772.072,-31.7276"/>
<polygon fill="midnightblue" stroke="midnightblue" points="775.559,-31.3765 771.547,-21.5707 768.568,-31.7381 775.559,-31.3765"/>
</g>
<!-- Node15&#45;&gt;Node12 -->
<g id="edge42" class="edge"><title>Node15&#45;&gt;Node12</title>
<path fill="none" stroke="midnightblue" d="M886.895,-58.3619C877.312,-49.9408 863.736,-38.0105 852.607,-28.2308"/>
<polygon fill="midnightblue" stroke="midnightblue" points="854.851,-25.5427 845.029,-21.5707 850.23,-30.8009 854.851,-25.5427"/>
</g>
<!-- Node16 -->
<g id="node38" class="node"><title>Node16</title>
<polygon fill="white" stroke="#bfbfbf" points="877.5,-0.5 877.5,-21.5 926.5,-21.5 926.5,-0.5 877.5,-0.5"/>
<text text-anchor="middle" x="902" y="-8.5" font-family="Helvetica,sans-Serif" font-size="10.00">stdint.h</text>
</g>
<!-- Node15&#45;&gt;Node16 -->
<g id="edge44" class="edge"><title>Node15&#45;&gt;Node16</title>
<path fill="none" stroke="midnightblue" d="M899.55,-58.3619C899.935,-50.9219 900.462,-40.7427 900.928,-31.7276"/>
<polygon fill="midnightblue" stroke="midnightblue" points="904.432,-31.7381 901.453,-21.5707 897.441,-31.3765 904.432,-31.7381"/>
</g>
<!-- Node17&#45;&gt;Node11 -->
<g id="edge48" class="edge"><title>Node17&#45;&gt;Node11</title>
<path fill="none" stroke="midnightblue" d="M728.271,-116.362C736.244,-108.104 747.475,-96.4725 756.811,-86.8029"/>
<polygon fill="midnightblue" stroke="midnightblue" points="759.366,-89.1958 763.794,-79.5707 754.33,-84.3336 759.366,-89.1958"/>
</g>
<!-- Node18&#45;&gt;Node11 -->
<g id="edge52" class="edge"><title>Node18&#45;&gt;Node11</title>
<path fill="none" stroke="midnightblue" d="M577.866,-118.33C580.609,-117.523 583.355,-116.734 586,-116 632.274,-103.155 685.395,-90.022 723.341,-80.9155"/>
<polygon fill="midnightblue" stroke="midnightblue" points="724.222,-84.3035 733.134,-78.5738 722.594,-77.4954 724.222,-84.3035"/>
</g>
<!-- Node19 -->
<g id="node46" class="node"><title>Node19</title>
<polygon fill="white" stroke="#bfbfbf" points="551.5,-58.5 551.5,-79.5 602.5,-79.5 602.5,-58.5 551.5,-58.5"/>
<text text-anchor="middle" x="577" y="-66.5" font-family="Helvetica,sans-Serif" font-size="10.00">typeinfo</text>
</g>
<!-- Node18&#45;&gt;Node19 -->
<g id="edge54" class="edge"><title>Node18&#45;&gt;Node19</title>
<path fill="none" stroke="midnightblue" d="M554.952,-116.362C558.53,-108.677 563.468,-98.0686 567.764,-88.8399"/>
<polygon fill="midnightblue" stroke="midnightblue" points="571.032,-90.1136 572.079,-79.5707 564.686,-87.1594 571.032,-90.1136"/>
</g>
<!-- Node20&#45;&gt;Node4 -->
<g id="edge58" class="edge"><title>Node20&#45;&gt;Node4</title>
<path fill="none" stroke="midnightblue" d="M431.325,-116.295C415.306,-96.5271 380.91,-54.0801 361.027,-29.5443"/>
<polygon fill="midnightblue" stroke="midnightblue" points="363.669,-27.245 354.654,-21.6792 358.23,-31.6521 363.669,-27.245"/>
</g>
<!-- Node20&#45;&gt;Node11 -->
<g id="edge62" class="edge"><title>Node20&#45;&gt;Node11</title>
<path fill="none" stroke="midnightblue" d="M467.05,-122.303C522.854,-112.612 651.515,-90.2698 723.284,-77.8069"/>
<polygon fill="midnightblue" stroke="midnightblue" points="724.191,-81.2019 733.445,-76.0425 722.993,-74.3051 724.191,-81.2019"/>
</g>
<!-- Node20&#45;&gt;Node15 -->
<g id="edge60" class="edge"><title>Node20&#45;&gt;Node15</title>
<path fill="none" stroke="midnightblue" d="M467.034,-122.772C481.036,-120.635 498.42,-118.065 514,-116 651.064,-97.8332 685.902,-97.9044 823,-80 834.861,-78.4511 847.742,-76.6368 859.473,-74.9333"/>
<polygon fill="midnightblue" stroke="midnightblue" points="860.044,-78.3872 869.431,-73.4744 859.029,-71.4611 860.044,-78.3872"/>
</g>
<!-- Node21 -->
<g id="node53" class="node"><title>Node21</title>
<polygon fill="white" stroke="#bfbfbf" points="411.5,-58.5 411.5,-79.5 460.5,-79.5 460.5,-58.5 411.5,-58.5"/>
<text text-anchor="middle" x="436" y="-66.5" font-family="Helvetica,sans-Serif" font-size="10.00">ctype.h</text>
</g>
<!-- Node20&#45;&gt;Node21 -->
<g id="edge64" class="edge"><title>Node20&#45;&gt;Node21</title>
<path fill="none" stroke="midnightblue" d="M439.266,-116.362C438.753,-108.922 438.051,-98.7427 437.429,-89.7276"/>
<polygon fill="midnightblue" stroke="midnightblue" points="440.909,-89.3061 436.729,-79.5707 433.925,-89.7878 440.909,-89.3061"/>
</g>
<!-- Node22 -->
<g id="node55" class="node"><title>Node22</title>
<polygon fill="white" stroke="#bfbfbf" points="478,-58.5 478,-79.5 534,-79.5 534,-58.5 478,-58.5"/>
<text text-anchor="middle" x="506" y="-66.5" font-family="Helvetica,sans-Serif" font-size="10.00">wctype.h</text>
</g>
<!-- Node20&#45;&gt;Node22 -->
<g id="edge66" class="edge"><title>Node20&#45;&gt;Node22</title>
<path fill="none" stroke="midnightblue" d="M452.105,-116.362C461.688,-107.941 475.264,-96.0105 486.393,-86.2308"/>
<polygon fill="midnightblue" stroke="midnightblue" points="488.77,-88.8009 493.971,-79.5707 484.149,-83.5427 488.77,-88.8009"/>
</g>
<!-- Node23&#45;&gt;Node24 -->
<g id="edge70" class="edge"><title>Node23&#45;&gt;Node24</title>
<path fill="none" stroke="midnightblue" d="M314.573,-580.362C325.421,-571.859 340.834,-559.779 353.379,-549.947"/>
<polygon fill="midnightblue" stroke="midnightblue" points="355.802,-552.494 361.513,-543.571 351.484,-546.985 355.802,-552.494"/>
</g>
<!-- Node25 -->
<g id="node61" class="node"><title>Node25</title>
<a xlink:href="odset_8h.html" target="_top" xlink:title="odset.h">
<polygon fill="white" stroke="black" points="448.5,-464.5 448.5,-485.5 497.5,-485.5 497.5,-464.5 448.5,-464.5"/>
<text text-anchor="middle" x="473" y="-472.5" font-family="Helvetica,sans-Serif" font-size="10.00">odset.h</text>
</a>
</g>
<!-- Node24&#45;&gt;Node25 -->
<g id="edge72" class="edge"><title>Node24&#45;&gt;Node25</title>
<path fill="none" stroke="midnightblue" d="M392.975,-522.362C407.894,-513.532 429.333,-500.844 446.266,-490.822"/>
<polygon fill="midnightblue" stroke="midnightblue" points="448.316,-493.676 455.139,-485.571 444.751,-487.652 448.316,-493.676"/>
</g>
<!-- Node26 -->
<g id="node64" class="node"><title>Node26</title>
<a xlink:href="vectoraccess_8h.html" target="_top" xlink:title="vectoraccess.h">
<polygon fill="white" stroke="black" points="348.5,-464.5 348.5,-485.5 431.5,-485.5 431.5,-464.5 348.5,-464.5"/>
<text text-anchor="middle" x="390" y="-472.5" font-family="Helvetica,sans-Serif" font-size="10.00">vectoraccess.h</text>
</a>
</g>
<!-- Node24&#45;&gt;Node26 -->
<g id="edge76" class="edge"><title>Node24&#45;&gt;Node26</title>
<path fill="none" stroke="midnightblue" d="M377.751,-522.362C379.697,-514.84 382.366,-504.519 384.716,-495.431"/>
<polygon fill="midnightblue" stroke="midnightblue" points="388.151,-496.128 387.266,-485.571 381.374,-494.376 388.151,-496.128"/>
</g>
<!-- Node25&#45;&gt;Node9 -->
<g id="edge74" class="edge"><title>Node25&#45;&gt;Node9</title>
<path fill="none" stroke="midnightblue" d="M488.115,-464.48C499.713,-455.786 515.471,-442.544 526,-428 579.414,-354.215 613.059,-249.021 625.528,-205.283"/>
<polygon fill="midnightblue" stroke="midnightblue" points="628.929,-206.116 628.241,-195.543 622.186,-204.237 628.929,-206.116"/>
</g>
<!-- Node26&#45;&gt;Node9 -->
<g id="edge86" class="edge"><title>Node26&#45;&gt;Node9</title>
<path fill="none" stroke="midnightblue" d="M423.793,-464.462C444.176,-456.82 469.658,-444.851 488,-428 506.834,-410.697 590.222,-259.694 620.211,-204.821"/>
<polygon fill="midnightblue" stroke="midnightblue" points="623.444,-206.203 625.162,-195.748 617.299,-202.85 623.444,-206.203"/>
</g>
<!-- Node26&#45;&gt;Node13 -->
<g id="edge92" class="edge"><title>Node26&#45;&gt;Node13</title>
<path fill="none" stroke="midnightblue" d="M412.448,-464.414C426.876,-456.433 444.772,-444.105 455,-428 530.658,-308.87 422.96,-223.832 514,-116 543.665,-80.8635 571.708,-103.889 611,-80 633.87,-66.0954 656.064,-44.7571 670.503,-29.4931"/>
<polygon fill="midnightblue" stroke="midnightblue" points="673.466,-31.4436 677.682,-21.7237 668.325,-26.693 673.466,-31.4436"/>
</g>
<!-- Node27 -->
<g id="node66" class="node"><title>Node27</title>
<a xlink:href="debug_8h.html" target="_top" xlink:title="debug.h">
<polygon fill="white" stroke="black" points="259.5,-406.5 259.5,-427.5 310.5,-427.5 310.5,-406.5 259.5,-406.5"/>
<text text-anchor="middle" x="285" y="-414.5" font-family="Helvetica,sans-Serif" font-size="10.00">debug.h</text>
</a>
</g>
<!-- Node26&#45;&gt;Node27 -->
<g id="edge78" class="edge"><title>Node26&#45;&gt;Node27</title>
<path fill="none" stroke="midnightblue" d="M370.741,-464.362C354.534,-455.409 331.147,-442.491 312.891,-432.406"/>
<polygon fill="midnightblue" stroke="midnightblue" points="314.582,-429.342 304.137,-427.571 311.198,-435.47 314.582,-429.342"/>
</g>
<!-- Node28 -->
<g id="node72" class="node"><title>Node28</title>
<polygon fill="white" stroke="#bfbfbf" points="328,-406.5 328,-427.5 384,-427.5 384,-406.5 328,-406.5"/>
<text text-anchor="middle" x="356" y="-414.5" font-family="Helvetica,sans-Serif" font-size="10.00">algorithm</text>
</g>
<!-- Node26&#45;&gt;Node28 -->
<g id="edge88" class="edge"><title>Node26&#45;&gt;Node28</title>
<path fill="none" stroke="midnightblue" d="M383.764,-464.362C379.163,-456.513 372.775,-445.616 367.286,-436.253"/>
<polygon fill="midnightblue" stroke="midnightblue" points="370.273,-434.428 362.197,-427.571 364.234,-437.968 370.273,-434.428"/>
</g>
<!-- Node29 -->
<g id="node74" class="node"><title>Node29</title>
<polygon fill="white" stroke="#bfbfbf" points="402,-406.5 402,-427.5 446,-427.5 446,-406.5 402,-406.5"/>
<text text-anchor="middle" x="424" y="-414.5" font-family="Helvetica,sans-Serif" font-size="10.00">vector</text>
</g>
<!-- Node26&#45;&gt;Node29 -->
<g id="edge90" class="edge"><title>Node26&#45;&gt;Node29</title>
<path fill="none" stroke="midnightblue" d="M396.236,-464.362C400.837,-456.513 407.225,-445.616 412.714,-436.253"/>
<polygon fill="midnightblue" stroke="midnightblue" points="415.766,-437.968 417.803,-427.571 409.727,-434.428 415.766,-437.968"/>
</g>
<!-- Node27&#45;&gt;Node4 -->
<g id="edge80" class="edge"><title>Node27&#45;&gt;Node4</title>
<path fill="none" stroke="midnightblue" d="M275.395,-406.138C267.805,-397.047 257.449,-383.437 251,-370 237.237,-341.324 232,-332.808 232,-301 232,-301 232,-301 232,-127 232,-80.0264 280.141,-45.1175 313.856,-26.4297"/>
<polygon fill="midnightblue" stroke="midnightblue" points="315.752,-29.385 322.93,-21.5923 312.459,-23.2078 315.752,-29.385"/>
</g>
<!-- Node27&#45;&gt;Node6 -->
<g id="edge84" class="edge"><title>Node27&#45;&gt;Node6</title>
<path fill="none" stroke="midnightblue" d="M286.1,-406.362C286.87,-398.922 287.923,-388.743 288.856,-379.728"/>
<polygon fill="midnightblue" stroke="midnightblue" points="292.359,-379.878 289.906,-369.571 285.396,-379.157 292.359,-379.878"/>
</g>
<!-- Node27&#45;&gt;Node9 -->
<g id="edge82" class="edge"><title>Node27&#45;&gt;Node9</title>
<path fill="none" stroke="midnightblue" d="M298.129,-406.433C344.288,-369.325 497.639,-246.436 522,-232 544.139,-218.881 570.615,-207.377 591.929,-199.035"/>
<polygon fill="midnightblue" stroke="midnightblue" points="593.243,-202.28 601.325,-195.43 590.735,-195.744 593.243,-202.28"/>
</g>
<!-- Node30&#45;&gt;Node4 -->
<g id="edge96" class="edge"><title>Node30&#45;&gt;Node4</title>
<path fill="none" stroke="midnightblue" d="M428.666,-638.45C377.154,-597.458 194,-449.427 194,-417 194,-417 194,-417 194,-127 194,-71.9511 257.782,-39.5455 302.713,-23.547"/>
<polygon fill="midnightblue" stroke="midnightblue" points="303.932,-26.8293 312.266,-20.2879 301.672,-20.2042 303.932,-26.8293"/>
</g>
<!-- Node30&#45;&gt;Node23 -->
<g id="edge98" class="edge"><title>Node30&#45;&gt;Node23</title>
<path fill="none" stroke="midnightblue" d="M416.466,-638.497C394.047,-629.275 361.215,-615.769 336.287,-605.515"/>
<polygon fill="midnightblue" stroke="midnightblue" points="337.4,-602.189 326.821,-601.621 334.737,-608.662 337.4,-602.189"/>
</g>
<!-- Node31 -->
<g id="node81" class="node"><title>Node31</title>
<a xlink:href="threadlock_8h.html" target="_top" xlink:title="threadlock.h">
<polygon fill="white" stroke="black" points="849,-116.5 849,-137.5 919,-137.5 919,-116.5 849,-116.5"/>
<text text-anchor="middle" x="884" y="-124.5" font-family="Helvetica,sans-Serif" font-size="10.00">threadlock.h</text>
</a>
</g>
<!-- Node30&#45;&gt;Node31 -->
<g id="edge100" class="edge"><title>Node30&#45;&gt;Node31</title>
<path fill="none" stroke="midnightblue" d="M486.658,-645.862C592.921,-637.173 852,-608.269 852,-533 852,-533 852,-533 852,-243 852,-208.216 865.536,-169.61 875.001,-146.867"/>
<polygon fill="midnightblue" stroke="midnightblue" points="878.25,-148.172 879,-137.604 871.823,-145.398 878.25,-148.172"/>
</g>
<!-- Node32 -->
<g id="node86" class="node"><title>Node32</title>
<a xlink:href="thread_8h.html" target="_top" xlink:title="thread.h">
<polygon fill="white" stroke="black" points="779,-116.5 779,-137.5 831,-137.5 831,-116.5 779,-116.5"/>
<text text-anchor="middle" x="805" y="-124.5" font-family="Helvetica,sans-Serif" font-size="10.00">thread.h</text>
</a>
</g>
<!-- Node30&#45;&gt;Node32 -->
<g id="edge108" class="edge"><title>Node30&#45;&gt;Node32</title>
<path fill="none" stroke="midnightblue" d="M486.698,-643.041C577.71,-629.654 776,-593.54 776,-533 776,-533 776,-533 776,-243 776,-208.592 788.157,-170.112 796.729,-147.257"/>
<polygon fill="midnightblue" stroke="midnightblue" points="800.102,-148.24 800.469,-137.652 793.579,-145.7 800.102,-148.24"/>
</g>
<!-- Node31&#45;&gt;Node4 -->
<g id="edge102" class="edge"><title>Node31&#45;&gt;Node4</title>
<path fill="none" stroke="midnightblue" d="M878.151,-116.357C868.811,-100.532 848.911,-71.2449 823,-58 784.912,-38.5309 500.287,-20.0161 389.729,-13.4825"/>
<polygon fill="midnightblue" stroke="midnightblue" points="389.775,-9.97932 379.588,-12.888 389.366,-16.9673 389.775,-9.97932"/>
</g>
<!-- Node31&#45;&gt;Node11 -->
<g id="edge104" class="edge"><title>Node31&#45;&gt;Node11</title>
<path fill="none" stroke="midnightblue" d="M864.08,-116.497C847.054,-107.519 822.331,-94.4835 803.091,-84.3387"/>
<polygon fill="midnightblue" stroke="midnightblue" points="804.622,-81.1894 794.144,-79.6212 801.357,-87.3814 804.622,-81.1894"/>
</g>
<!-- Node31&#45;&gt;Node15 -->
<g id="edge106" class="edge"><title>Node31&#45;&gt;Node15</title>
<path fill="none" stroke="midnightblue" d="M886.751,-116.362C888.697,-108.84 891.366,-98.5187 893.716,-89.4308"/>
<polygon fill="midnightblue" stroke="midnightblue" points="897.151,-90.1285 896.266,-79.5707 890.374,-88.3758 897.151,-90.1285"/>
</g>
<!-- Node32&#45;&gt;Node4 -->
<g id="edge110" class="edge"><title>Node32&#45;&gt;Node4</title>
<path fill="none" stroke="midnightblue" d="M783.003,-116.499C750.491,-101.393 687.368,-73.6296 631,-58 547.293,-34.7898 446.381,-21.471 389.871,-15.2843"/>
<polygon fill="midnightblue" stroke="midnightblue" points="390.166,-11.796 379.851,-14.2114 389.421,-18.7562 390.166,-11.796"/>
</g>
<!-- Node32&#45;&gt;Node11 -->
<g id="edge112" class="edge"><title>Node32&#45;&gt;Node11</title>
<path fill="none" stroke="midnightblue" d="M799.314,-116.362C795.163,-108.595 789.416,-97.8426 784.447,-88.5458"/>
<polygon fill="midnightblue" stroke="midnightblue" points="787.45,-86.7401 779.65,-79.5707 781.277,-90.0398 787.45,-86.7401"/>
</g>
<!-- Node32&#45;&gt;Node15 -->
<g id="edge114" class="edge"><title>Node32&#45;&gt;Node15</title>
<path fill="none" stroke="midnightblue" d="M822.241,-116.362C836.552,-107.532 857.115,-94.844 873.357,-84.8224"/>
<polygon fill="midnightblue" stroke="midnightblue" points="875.196,-87.8004 881.868,-79.5707 871.52,-81.8431 875.196,-87.8004"/>
</g>
<!-- Node33&#45;&gt;Node9 -->
<g id="edge118" class="edge"><title>Node33&#45;&gt;Node9</title>
<path fill="none" stroke="midnightblue" d="M879.272,-237.173C830.113,-226.843 727.529,-205.285 670.821,-193.368"/>
<polygon fill="midnightblue" stroke="midnightblue" points="671.296,-189.892 660.79,-191.26 669.856,-196.742 671.296,-189.892"/>
</g>
<!-- Node34 -->
<g id="node94" class="node"><title>Node34</title>
<a xlink:href="atomic_8h.html" target="_top" xlink:title="atomic.h">
<polygon fill="white" stroke="black" points="937,-116.5 937,-137.5 991,-137.5 991,-116.5 937,-116.5"/>
<text text-anchor="middle" x="964" y="-124.5" font-family="Helvetica,sans-Serif" font-size="10.00">atomic.h</text>
</a>
</g>
<!-- Node33&#45;&gt;Node34 -->
<g id="edge120" class="edge"><title>Node33&#45;&gt;Node34</title>
<path fill="none" stroke="midnightblue" d="M908.56,-232.217C910.897,-218.197 916.126,-193.233 926,-174 931.32,-163.638 939.17,-153.426 946.357,-145.182"/>
<polygon fill="midnightblue" stroke="midnightblue" points="949.06,-147.411 953.204,-137.66 943.884,-142.699 949.06,-147.411"/>
</g>
<!-- Node36 -->
<g id="node101" class="node"><title>Node36</title>
<polygon fill="white" stroke="#bfbfbf" points="935,-174.5 935,-195.5 983,-195.5 983,-174.5 935,-174.5"/>
<text text-anchor="middle" x="959" y="-182.5" font-family="Helvetica,sans-Serif" font-size="10.00">stdlib.h</text>
</g>
<!-- Node33&#45;&gt;Node36 -->
<g id="edge130" class="edge"><title>Node33&#45;&gt;Node36</title>
<path fill="none" stroke="midnightblue" d="M916.538,-232.362C923.868,-224.186 934.163,-212.702 942.781,-203.091"/>
<polygon fill="midnightblue" stroke="midnightblue" points="945.453,-205.353 949.523,-195.571 940.241,-200.68 945.453,-205.353"/>
</g>
<!-- Node34&#45;&gt;Node4 -->
<g id="edge122" class="edge"><title>Node34&#45;&gt;Node4</title>
<path fill="none" stroke="midnightblue" d="M963.219,-116.277C961.451,-100.624 955.695,-71.8781 937,-58 915.073,-41.7226 523.239,-20.1278 389.958,-13.2225"/>
<polygon fill="midnightblue" stroke="midnightblue" points="389.878,-9.71384 379.711,-12.6942 389.518,-16.7046 389.878,-9.71384"/>
</g>
<!-- Node34&#45;&gt;Node11 -->
<g id="edge124" class="edge"><title>Node34&#45;&gt;Node11</title>
<path fill="none" stroke="midnightblue" d="M936.874,-118.71C933.879,-117.796 930.875,-116.878 928,-116 890.97,-104.692 848.928,-91.8616 818.139,-82.4667"/>
<polygon fill="midnightblue" stroke="midnightblue" points="819.144,-79.1142 808.558,-79.5434 817.101,-85.8095 819.144,-79.1142"/>
</g>
<!-- Node34&#45;&gt;Node15 -->
<g id="edge126" class="edge"><title>Node34&#45;&gt;Node15</title>
<path fill="none" stroke="midnightblue" d="M952.078,-116.362C942.641,-107.941 929.27,-96.0105 918.31,-86.2308"/>
<polygon fill="midnightblue" stroke="midnightblue" points="920.638,-83.6171 910.846,-79.5707 915.978,-88.8401 920.638,-83.6171"/>
</g>
<!-- Node35 -->
<g id="node99" class="node"><title>Node35</title>
<polygon fill="white" stroke="#bfbfbf" points="983.5,-58.5 983.5,-79.5 1050.5,-79.5 1050.5,-58.5 983.5,-58.5"/>
<text text-anchor="middle" x="1017" y="-66.5" font-family="Helvetica,sans-Serif" font-size="10.00">odversion.h</text>
</g>
<!-- Node34&#45;&gt;Node35 -->
<g id="edge128" class="edge"><title>Node34&#45;&gt;Node35</title>
<path fill="none" stroke="midnightblue" d="M973.721,-116.362C981.192,-108.186 991.686,-96.7025 1000.47,-87.0907"/>
<polygon fill="midnightblue" stroke="midnightblue" points="1003.18,-89.3138 1007.34,-79.5707 998.011,-84.5918 1003.18,-89.3138"/>
</g>
<!-- Node37&#45;&gt;Node25 -->
<g id="edge134" class="edge"><title>Node37&#45;&gt;Node25</title>
<path fill="none" stroke="midnightblue" d="M458.301,-522.362C460.661,-514.758 463.909,-504.294 466.751,-495.135"/>
<polygon fill="midnightblue" stroke="midnightblue" points="470.098,-496.159 469.719,-485.571 463.413,-494.084 470.098,-496.159"/>
</g>
<!-- Node37&#45;&gt;Node26 -->
<g id="edge136" class="edge"><title>Node37&#45;&gt;Node26</title>
<path fill="none" stroke="midnightblue" d="M443.078,-522.362C433.641,-513.941 420.27,-502.011 409.31,-492.231"/>
<polygon fill="midnightblue" stroke="midnightblue" points="411.638,-489.617 401.846,-485.571 406.978,-494.84 411.638,-489.617"/>
</g>
<!-- Node38&#45;&gt;Node9 -->
<g id="edge140" class="edge"><title>Node38&#45;&gt;Node9</title>
<path fill="none" stroke="midnightblue" d="M628.141,-580.27C653.545,-561.948 700,-522.017 700,-475 700,-475 700,-475 700,-301 700,-261.73 670.429,-224.162 650.004,-202.898"/>
<polygon fill="midnightblue" stroke="midnightblue" points="652.244,-200.188 642.705,-195.577 647.287,-205.13 652.244,-200.188"/>
</g>
<!-- Node38&#45;&gt;Node20 -->
<g id="edge150" class="edge"><title>Node38&#45;&gt;Node20</title>
<path fill="none" stroke="midnightblue" d="M608.25,-580.279C601.5,-559.993 588,-514.486 588,-475 588,-475 588,-475 588,-359 588,-265.808 502.074,-179.938 461.166,-144.338"/>
<polygon fill="midnightblue" stroke="midnightblue" points="463.275,-141.536 453.395,-137.709 458.732,-146.862 463.275,-141.536"/>
</g>
<!-- Node38&#45;&gt;Node31 -->
<g id="edge148" class="edge"><title>Node38&#45;&gt;Node31</title>
<path fill="none" stroke="midnightblue" d="M639.03,-580.413C676.053,-563.929 738,-528.372 738,-475 738,-475 738,-475 738,-301 738,-228.075 814.189,-169.71 856.491,-142.924"/>
<polygon fill="midnightblue" stroke="midnightblue" points="858.538,-145.773 865.212,-137.544 854.863,-139.815 858.538,-145.773"/>
</g>
<!-- Node38&#45;&gt;Node37 -->
<g id="edge152" class="edge"><title>Node38&#45;&gt;Node37</title>
<path fill="none" stroke="midnightblue" d="M583.932,-580.631C558.605,-571.275 521.134,-557.432 493.105,-547.077"/>
<polygon fill="midnightblue" stroke="midnightblue" points="494.214,-543.756 483.621,-543.573 491.788,-550.322 494.214,-543.756"/>
</g>
<!-- Node39 -->
<g id="node110" class="node"><title>Node39</title>
<a xlink:href="keystrs_8h.html" target="_top" xlink:title="keystrs.h">
<polygon fill="white" stroke="black" points="615.5,-348.5 615.5,-369.5 672.5,-369.5 672.5,-348.5 615.5,-348.5"/>
<text text-anchor="middle" x="644" y="-356.5" font-family="Helvetica,sans-Serif" font-size="10.00">keystrs.h</text>
</a>
</g>
<!-- Node38&#45;&gt;Node39 -->
<g id="edge142" class="edge"><title>Node38&#45;&gt;Node39</title>
<path fill="none" stroke="midnightblue" d="M613.458,-580.429C618.393,-544.648 634.529,-427.663 641.138,-379.748"/>
<polygon fill="midnightblue" stroke="midnightblue" points="644.634,-380.018 642.533,-369.634 637.7,-379.061 644.634,-380.018"/>
</g>
<!-- Node39&#45;&gt;Node7 -->
<g id="edge146" class="edge"><title>Node39&#45;&gt;Node7</title>
<path fill="none" stroke="midnightblue" d="M615.405,-352.903C568.153,-342.827 473.406,-322.623 417.071,-310.611"/>
<polygon fill="midnightblue" stroke="midnightblue" points="417.53,-307.13 407.02,-308.467 416.07,-313.976 417.53,-307.13"/>
</g>
<!-- Node39&#45;&gt;Node9 -->
<g id="edge144" class="edge"><title>Node39&#45;&gt;Node9</title>
<path fill="none" stroke="midnightblue" d="M643.206,-348.377C641.108,-320.293 635.384,-243.673 632.584,-206.203"/>
<polygon fill="midnightblue" stroke="midnightblue" points="636.052,-205.639 631.816,-195.928 629.071,-206.161 636.052,-205.639"/>
</g>
</g>
</svg>
