<?xml version="1.0" encoding="UTF-8" standalone="no"?>
<!DOCTYPE svg PUBLIC "-//W3C//DTD SVG 1.1//EN"
 "http://www.w3.org/Graphics/SVG/1.1/DTD/svg11.dtd">
<!-- Generated by graphviz version 2.26.0 (20091210.2329)
 -->
<!-- Title: separstr.h Pages: 1 -->
<svg width="590pt" height="436pt"
 viewBox="0.00 0.00 590.00 436.00" xmlns="http://www.w3.org/2000/svg" xmlns:xlink="http://www.w3.org/1999/xlink">
<g id="graph1" class="graph" transform="scale(1 1) rotate(0) translate(4 432)">
<title>separstr.h</title>
<polygon fill="white" stroke="white" points="-4,5 -4,-432 587,-432 587,5 -4,5"/>
<!-- Node1 -->
<g id="node1" class="node"><title>Node1</title>
<polygon fill="#bfbfbf" stroke="black" points="91,-406.5 91,-427.5 151,-427.5 151,-406.5 91,-406.5"/>
<text text-anchor="middle" x="121" y="-414.5" font-family="Helvetica,sans-Serif" font-size="10.00">separstr.h</text>
</g>
<!-- Node2 -->
<g id="node3" class="node"><title>Node2</title>
<polygon fill="white" stroke="#bfbfbf" points="80.5,-0.5 80.5,-21.5 147.5,-21.5 147.5,-0.5 80.5,-0.5"/>
<text text-anchor="middle" x="114" y="-8.5" font-family="Helvetica,sans-Serif" font-size="10.00">basicmod.h</text>
</g>
<!-- Node1&#45;&gt;Node2 -->
<g id="edge2" class="edge"><title>Node1&#45;&gt;Node2</title>
<path fill="none" stroke="midnightblue" d="M95.6344,-406.389C60.1534,-389.651 0,-353.527 0,-301 0,-301 0,-301 0,-127 0,-80.0264 48.1415,-45.1175 81.8558,-26.4297"/>
<polygon fill="midnightblue" stroke="midnightblue" points="83.7523,-29.385 90.9304,-21.5923 80.4594,-23.2078 83.7523,-29.385"/>
</g>
<!-- Node3 -->
<g id="node5" class="node"><title>Node3</title>
<a xlink:href="bufstring_8h.html" target="_top" xlink:title="bufstring.h">
<polygon fill="white" stroke="black" points="120,-348.5 120,-369.5 182,-369.5 182,-348.5 120,-348.5"/>
<text text-anchor="middle" x="151" y="-356.5" font-family="Helvetica,sans-Serif" font-size="10.00">bufstring.h</text>
</a>
</g>
<!-- Node1&#45;&gt;Node3 -->
<g id="edge4" class="edge"><title>Node1&#45;&gt;Node3</title>
<path fill="none" stroke="midnightblue" d="M126.502,-406.362C130.52,-398.595 136.081,-387.843 140.89,-378.546"/>
<polygon fill="midnightblue" stroke="midnightblue" points="144.047,-380.061 145.532,-369.571 137.829,-376.845 144.047,-380.061"/>
</g>
<!-- Node4 -->
<g id="node8" class="node"><title>Node4</title>
<a xlink:href="fixedstring_8h.html" target="_top" xlink:title="fixedstring.h">
<polygon fill="white" stroke="black" points="54,-290.5 54,-311.5 124,-311.5 124,-290.5 54,-290.5"/>
<text text-anchor="middle" x="89" y="-298.5" font-family="Helvetica,sans-Serif" font-size="10.00">fixedstring.h</text>
</a>
</g>
<!-- Node1&#45;&gt;Node4 -->
<g id="edge60" class="edge"><title>Node1&#45;&gt;Node4</title>
<path fill="none" stroke="midnightblue" d="M118.047,-406.295C112.737,-387.045 101.493,-346.289 94.6577,-321.509"/>
<polygon fill="midnightblue" stroke="midnightblue" points="97.9793,-320.388 91.946,-311.679 91.2314,-322.25 97.9793,-320.388"/>
</g>
<!-- Node20 -->
<g id="node51" class="node"><title>Node20</title>
<a xlink:href="convert_8h.html" target="_top" xlink:title="convert.h">
<polygon fill="white" stroke="black" points="218.5,-348.5 218.5,-369.5 275.5,-369.5 275.5,-348.5 218.5,-348.5"/>
<text text-anchor="middle" x="247" y="-356.5" font-family="Helvetica,sans-Serif" font-size="10.00">convert.h</text>
</a>
</g>
<!-- Node1&#45;&gt;Node20 -->
<g id="edge62" class="edge"><title>Node1&#45;&gt;Node20</title>
<path fill="none" stroke="midnightblue" d="M143.818,-406.497C163.586,-397.397 192.413,-384.127 214.576,-373.925"/>
<polygon fill="midnightblue" stroke="midnightblue" points="216.306,-376.982 223.926,-369.621 213.379,-370.623 216.306,-376.982"/>
</g>
<!-- Node3&#45;&gt;Node2 -->
<g id="edge6" class="edge"><title>Node3&#45;&gt;Node2</title>
<path fill="none" stroke="midnightblue" d="M149.852,-348.203C144.64,-299.184 123.158,-97.1372 116.192,-31.6154"/>
<polygon fill="midnightblue" stroke="midnightblue" points="119.672,-31.2445 115.135,-21.6706 112.711,-31.9847 119.672,-31.2445"/>
</g>
<!-- Node3&#45;&gt;Node4 -->
<g id="edge8" class="edge"><title>Node3&#45;&gt;Node4</title>
<path fill="none" stroke="midnightblue" d="M139.628,-348.362C130.714,-340.023 118.121,-328.242 107.724,-318.516"/>
<polygon fill="midnightblue" stroke="midnightblue" points="109.993,-315.846 100.3,-311.571 105.211,-320.958 109.993,-315.846"/>
</g>
<!-- Node17 -->
<g id="node41" class="node"><title>Node17</title>
<a xlink:href="string2_8h.html" target="_top" xlink:title="string2.h">
<polygon fill="white" stroke="black" points="398,-116.5 398,-137.5 452,-137.5 452,-116.5 398,-116.5"/>
<text text-anchor="middle" x="425" y="-124.5" font-family="Helvetica,sans-Serif" font-size="10.00">string2.h</text>
</a>
</g>
<!-- Node3&#45;&gt;Node17 -->
<g id="edge48" class="edge"><title>Node3&#45;&gt;Node17</title>
<path fill="none" stroke="midnightblue" d="M163.485,-348.429C206.813,-311.742 350.964,-189.687 404.634,-144.244"/>
<polygon fill="midnightblue" stroke="midnightblue" points="407.071,-146.767 412.441,-137.634 402.548,-141.424 407.071,-146.767"/>
</g>
<!-- Node4&#45;&gt;Node2 -->
<g id="edge10" class="edge"><title>Node4&#45;&gt;Node2</title>
<path fill="none" stroke="midnightblue" d="M80.2816,-290.411C73.1341,-281.265 63.2161,-267.439 57,-254 43.6468,-225.131 38,-216.808 38,-185 38,-185 38,-185 38,-127 38,-86.5104 70.7975,-49.1585 93.3017,-28.2949"/>
<polygon fill="midnightblue" stroke="midnightblue" points="95.6399,-30.8993 100.762,-21.6247 90.9742,-25.681 95.6399,-30.8993"/>
</g>
<!-- Node5 -->
<g id="node11" class="node"><title>Node5</title>
<a xlink:href="odstring_8h.html" target="_top" xlink:title="odstring.h">
<polygon fill="white" stroke="black" points="65.5,-232.5 65.5,-253.5 124.5,-253.5 124.5,-232.5 65.5,-232.5"/>
<text text-anchor="middle" x="95" y="-240.5" font-family="Helvetica,sans-Serif" font-size="10.00">odstring.h</text>
</a>
</g>
<!-- Node4&#45;&gt;Node5 -->
<g id="edge12" class="edge"><title>Node4&#45;&gt;Node5</title>
<path fill="none" stroke="midnightblue" d="M90.1005,-290.362C90.8701,-282.922 91.9232,-272.743 92.8558,-263.728"/>
<polygon fill="midnightblue" stroke="midnightblue" points="96.3588,-263.878 93.9065,-253.571 89.396,-263.157 96.3588,-263.878"/>
</g>
<!-- Node5&#45;&gt;Node2 -->
<g id="edge14" class="edge"><title>Node5&#45;&gt;Node2</title>
<path fill="none" stroke="midnightblue" d="M94.3274,-232.48C92.7183,-204.1 89.5181,-123.677 100,-58 101.434,-49.0144 104.111,-39.3397 106.743,-31.1175"/>
<polygon fill="midnightblue" stroke="midnightblue" points="110.059,-32.235 109.956,-21.6407 103.43,-29.9875 110.059,-32.235"/>
</g>
<!-- Node6 -->
<g id="node14" class="node"><title>Node6</title>
<a xlink:href="gendefs_8h.html" target="_top" xlink:title="gendefs.h">
<polygon fill="white" stroke="black" points="175.5,-174.5 175.5,-195.5 234.5,-195.5 234.5,-174.5 175.5,-174.5"/>
<text text-anchor="middle" x="205" y="-182.5" font-family="Helvetica,sans-Serif" font-size="10.00">gendefs.h</text>
</a>
</g>
<!-- Node5&#45;&gt;Node6 -->
<g id="edge16" class="edge"><title>Node5&#45;&gt;Node6</title>
<path fill="none" stroke="midnightblue" d="M114.92,-232.497C131.946,-223.519 156.669,-210.484 175.909,-200.339"/>
<polygon fill="midnightblue" stroke="midnightblue" points="177.643,-203.381 184.856,-195.621 174.378,-197.189 177.643,-203.381"/>
</g>
<!-- Node7 -->
<g id="node16" class="node"><title>Node7</title>
<a xlink:href="undefval_8h.html" target="_top" xlink:title="undefval.h">
<polygon fill="white" stroke="black" points="318,-116.5 318,-137.5 380,-137.5 380,-116.5 318,-116.5"/>
<text text-anchor="middle" x="349" y="-124.5" font-family="Helvetica,sans-Serif" font-size="10.00">undefval.h</text>
</a>
</g>
<!-- Node6&#45;&gt;Node7 -->
<g id="edge18" class="edge"><title>Node6&#45;&gt;Node7</title>
<path fill="none" stroke="midnightblue" d="M231.077,-174.497C254.075,-165.234 287.8,-151.65 313.3,-141.379"/>
<polygon fill="midnightblue" stroke="midnightblue" points="314.662,-144.604 322.63,-137.621 312.047,-138.111 314.662,-144.604"/>
</g>
<!-- Node14 -->
<g id="node33" class="node"><title>Node14</title>
<a xlink:href="commontypes_8h.html" target="_top" xlink:title="commontypes.h">
<polygon fill="white" stroke="black" points="214,-116.5 214,-137.5 300,-137.5 300,-116.5 214,-116.5"/>
<text text-anchor="middle" x="257" y="-124.5" font-family="Helvetica,sans-Serif" font-size="10.00">commontypes.h</text>
</a>
</g>
<!-- Node6&#45;&gt;Node14 -->
<g id="edge38" class="edge"><title>Node6&#45;&gt;Node14</title>
<path fill="none" stroke="midnightblue" d="M214.538,-174.362C221.868,-166.186 232.163,-154.702 240.781,-145.091"/>
<polygon fill="midnightblue" stroke="midnightblue" points="243.453,-147.353 247.523,-137.571 238.241,-142.68 243.453,-147.353"/>
</g>
<!-- Node15 -->
<g id="node36" class="node"><title>Node15</title>
<a xlink:href="errmsg_8h.html" target="_top" xlink:title="errmsg.h">
<polygon fill="white" stroke="black" points="141.5,-116.5 141.5,-137.5 196.5,-137.5 196.5,-116.5 141.5,-116.5"/>
<text text-anchor="middle" x="169" y="-124.5" font-family="Helvetica,sans-Serif" font-size="10.00">errmsg.h</text>
</a>
</g>
<!-- Node6&#45;&gt;Node15 -->
<g id="edge42" class="edge"><title>Node6&#45;&gt;Node15</title>
<path fill="none" stroke="midnightblue" d="M198.397,-174.362C193.525,-166.513 186.762,-155.616 180.95,-146.253"/>
<polygon fill="midnightblue" stroke="midnightblue" points="183.809,-144.221 175.561,-137.571 177.861,-147.913 183.809,-144.221"/>
</g>
<!-- Node7&#45;&gt;Node2 -->
<g id="edge20" class="edge"><title>Node7&#45;&gt;Node2</title>
<path fill="none" stroke="midnightblue" d="M321.914,-116.493C299.392,-107.505 266.668,-93.8562 239,-80 221.551,-71.2613 218.031,-67.5277 201,-58 181.785,-47.2507 159.988,-35.4758 143.018,-26.4007"/>
<polygon fill="midnightblue" stroke="midnightblue" points="144.604,-23.28 134.134,-21.6603 141.309,-29.4559 144.604,-23.28"/>
</g>
<!-- Node8 -->
<g id="node19" class="node"><title>Node8</title>
<a xlink:href="commondefs_8h.html" target="_top" xlink:title="commondefs.h">
<polygon fill="white" stroke="black" points="247.5,-58.5 247.5,-79.5 328.5,-79.5 328.5,-58.5 247.5,-58.5"/>
<text text-anchor="middle" x="288" y="-66.5" font-family="Helvetica,sans-Serif" font-size="10.00">commondefs.h</text>
</a>
</g>
<!-- Node7&#45;&gt;Node8 -->
<g id="edge22" class="edge"><title>Node7&#45;&gt;Node8</title>
<path fill="none" stroke="midnightblue" d="M337.812,-116.362C329.041,-108.023 316.651,-96.2418 306.422,-86.5162"/>
<polygon fill="midnightblue" stroke="midnightblue" points="308.776,-83.9248 299.117,-79.5707 303.953,-88.9978 308.776,-83.9248"/>
</g>
<!-- Node12 -->
<g id="node28" class="node"><title>Node12</title>
<a xlink:href="plftypes_8h.html" target="_top" xlink:title="plftypes.h">
<polygon fill="white" stroke="black" points="383.5,-58.5 383.5,-79.5 442.5,-79.5 442.5,-58.5 383.5,-58.5"/>
<text text-anchor="middle" x="413" y="-66.5" font-family="Helvetica,sans-Serif" font-size="10.00">plftypes.h</text>
</a>
</g>
<!-- Node7&#45;&gt;Node12 -->
<g id="edge32" class="edge"><title>Node7&#45;&gt;Node12</title>
<path fill="none" stroke="midnightblue" d="M360.739,-116.362C369.941,-108.023 382.94,-96.2418 393.672,-86.5162"/>
<polygon fill="midnightblue" stroke="midnightblue" points="396.276,-88.8793 401.336,-79.5707 391.576,-83.6924 396.276,-88.8793"/>
</g>
<!-- Node8&#45;&gt;Node2 -->
<g id="edge24" class="edge"><title>Node8&#45;&gt;Node2</title>
<path fill="none" stroke="midnightblue" d="M256.49,-58.4966C228.123,-49.0411 186.249,-35.0829 155.228,-24.7428"/>
<polygon fill="midnightblue" stroke="midnightblue" points="156.163,-21.365 145.569,-21.5231 153.949,-28.0058 156.163,-21.365"/>
</g>
<!-- Node9 -->
<g id="node22" class="node"><title>Node9</title>
<a xlink:href="plfdefs_8h.html" target="_top" xlink:title="plfdefs.h">
<polygon fill="white" stroke="black" points="323,-0.5 323,-21.5 377,-21.5 377,-0.5 323,-0.5"/>
<text text-anchor="middle" x="350" y="-8.5" font-family="Helvetica,sans-Serif" font-size="10.00">plfdefs.h</text>
</a>
</g>
<!-- Node8&#45;&gt;Node9 -->
<g id="edge26" class="edge"><title>Node8&#45;&gt;Node9</title>
<path fill="none" stroke="midnightblue" d="M299.372,-58.3619C308.286,-50.0226 320.879,-38.2418 331.276,-28.5162"/>
<polygon fill="midnightblue" stroke="midnightblue" points="333.789,-30.9582 338.7,-21.5707 329.007,-25.8463 333.789,-30.9582"/>
</g>
<!-- Node10 -->
<g id="node24" class="node"><title>Node10</title>
<polygon fill="white" stroke="#bfbfbf" points="194.5,-0.5 194.5,-21.5 253.5,-21.5 253.5,-0.5 194.5,-0.5"/>
<text text-anchor="middle" x="224" y="-8.5" font-family="Helvetica,sans-Serif" font-size="10.00">stdexcept</text>
</g>
<!-- Node8&#45;&gt;Node10 -->
<g id="edge28" class="edge"><title>Node8&#45;&gt;Node10</title>
<path fill="none" stroke="midnightblue" d="M276.261,-58.3619C267.059,-50.0226 254.06,-38.2418 243.328,-28.5162"/>
<polygon fill="midnightblue" stroke="midnightblue" points="245.424,-25.6924 235.664,-21.5707 240.724,-30.8793 245.424,-25.6924"/>
</g>
<!-- Node11 -->
<g id="node26" class="node"><title>Node11</title>
<polygon fill="white" stroke="#bfbfbf" points="270.5,-0.5 270.5,-21.5 305.5,-21.5 305.5,-0.5 270.5,-0.5"/>
<text text-anchor="middle" x="288" y="-8.5" font-family="Helvetica,sans-Serif" font-size="10.00">new</text>
</g>
<!-- Node8&#45;&gt;Node11 -->
<g id="edge30" class="edge"><title>Node8&#45;&gt;Node11</title>
<path fill="none" stroke="midnightblue" d="M288,-58.3619C288,-50.9219 288,-40.7427 288,-31.7276"/>
<polygon fill="midnightblue" stroke="midnightblue" points="291.5,-31.5706 288,-21.5707 284.5,-31.5707 291.5,-31.5706"/>
</g>
<!-- Node12&#45;&gt;Node9 -->
<g id="edge34" class="edge"><title>Node12&#45;&gt;Node9</title>
<path fill="none" stroke="midnightblue" d="M401.445,-58.3619C392.387,-50.0226 379.59,-38.2418 369.026,-28.5162"/>
<polygon fill="midnightblue" stroke="midnightblue" points="371.21,-25.7688 361.482,-21.5707 366.468,-30.9187 371.21,-25.7688"/>
</g>
<!-- Node13 -->
<g id="node31" class="node"><title>Node13</title>
<polygon fill="white" stroke="#bfbfbf" points="394.5,-0.5 394.5,-21.5 443.5,-21.5 443.5,-0.5 394.5,-0.5"/>
<text text-anchor="middle" x="419" y="-8.5" font-family="Helvetica,sans-Serif" font-size="10.00">stdint.h</text>
</g>
<!-- Node12&#45;&gt;Node13 -->
<g id="edge36" class="edge"><title>Node12&#45;&gt;Node13</title>
<path fill="none" stroke="midnightblue" d="M414.1,-58.3619C414.87,-50.9219 415.923,-40.7427 416.856,-31.7276"/>
<polygon fill="midnightblue" stroke="midnightblue" points="420.359,-31.8777 417.906,-21.5707 413.396,-31.1574 420.359,-31.8777"/>
</g>
<!-- Node14&#45;&gt;Node8 -->
<g id="edge40" class="edge"><title>Node14&#45;&gt;Node8</title>
<path fill="none" stroke="midnightblue" d="M262.686,-116.362C266.837,-108.595 272.584,-97.8426 277.553,-88.5458"/>
<polygon fill="midnightblue" stroke="midnightblue" points="280.723,-90.0398 282.35,-79.5707 274.55,-86.7401 280.723,-90.0398"/>
</g>
<!-- Node15&#45;&gt;Node8 -->
<g id="edge44" class="edge"><title>Node15&#45;&gt;Node8</title>
<path fill="none" stroke="midnightblue" d="M190.55,-116.497C209.136,-107.438 236.202,-94.2462 257.095,-84.0628"/>
<polygon fill="midnightblue" stroke="midnightblue" points="258.753,-87.1487 266.208,-79.6212 255.686,-80.8563 258.753,-87.1487"/>
</g>
<!-- Node16 -->
<g id="node39" class="node"><title>Node16</title>
<polygon fill="white" stroke="#bfbfbf" points="141.5,-58.5 141.5,-79.5 192.5,-79.5 192.5,-58.5 141.5,-58.5"/>
<text text-anchor="middle" x="167" y="-66.5" font-family="Helvetica,sans-Serif" font-size="10.00">typeinfo</text>
</g>
<!-- Node15&#45;&gt;Node16 -->
<g id="edge46" class="edge"><title>Node15&#45;&gt;Node16</title>
<path fill="none" stroke="midnightblue" d="M168.633,-116.362C168.377,-108.922 168.026,-98.7427 167.715,-89.7276"/>
<polygon fill="midnightblue" stroke="midnightblue" points="171.207,-89.4441 167.365,-79.5707 164.211,-89.6854 171.207,-89.4441"/>
</g>
<!-- Node17&#45;&gt;Node2 -->
<g id="edge50" class="edge"><title>Node17&#45;&gt;Node2</title>
<path fill="none" stroke="midnightblue" d="M414.711,-116.272C399.311,-100.882 368.671,-72.769 337,-58 305.69,-43.3994 213.327,-26.8479 157.776,-17.8012"/>
<polygon fill="midnightblue" stroke="midnightblue" points="158.285,-14.3381 147.855,-16.2015 157.17,-21.2488 158.285,-14.3381"/>
</g>
<!-- Node17&#45;&gt;Node8 -->
<g id="edge54" class="edge"><title>Node17&#45;&gt;Node8</title>
<path fill="none" stroke="midnightblue" d="M400.19,-116.497C378.504,-107.315 346.789,-93.8889 322.608,-83.6516"/>
<polygon fill="midnightblue" stroke="midnightblue" points="323.661,-80.2968 313.088,-79.6212 320.932,-86.7429 323.661,-80.2968"/>
</g>
<!-- Node17&#45;&gt;Node12 -->
<g id="edge52" class="edge"><title>Node17&#45;&gt;Node12</title>
<path fill="none" stroke="midnightblue" d="M422.799,-116.362C421.243,-108.84 419.107,-98.5187 417.227,-89.4308"/>
<polygon fill="midnightblue" stroke="midnightblue" points="420.641,-88.6541 415.187,-79.5707 413.786,-90.0724 420.641,-88.6541"/>
</g>
<!-- Node18 -->
<g id="node46" class="node"><title>Node18</title>
<polygon fill="white" stroke="#bfbfbf" points="533.5,-58.5 533.5,-79.5 582.5,-79.5 582.5,-58.5 533.5,-58.5"/>
<text text-anchor="middle" x="558" y="-66.5" font-family="Helvetica,sans-Serif" font-size="10.00">ctype.h</text>
</g>
<!-- Node17&#45;&gt;Node18 -->
<g id="edge56" class="edge"><title>Node17&#45;&gt;Node18</title>
<path fill="none" stroke="midnightblue" d="M449.085,-116.497C470.139,-107.315 500.927,-93.8889 524.402,-83.6516"/>
<polygon fill="midnightblue" stroke="midnightblue" points="525.877,-86.8268 533.644,-79.6212 523.079,-80.4104 525.877,-86.8268"/>
</g>
<!-- Node19 -->
<g id="node48" class="node"><title>Node19</title>
<polygon fill="white" stroke="#bfbfbf" points="460,-58.5 460,-79.5 516,-79.5 516,-58.5 460,-58.5"/>
<text text-anchor="middle" x="488" y="-66.5" font-family="Helvetica,sans-Serif" font-size="10.00">wctype.h</text>
</g>
<!-- Node17&#45;&gt;Node19 -->
<g id="edge58" class="edge"><title>Node17&#45;&gt;Node19</title>
<path fill="none" stroke="midnightblue" d="M436.555,-116.362C445.613,-108.023 458.41,-96.2418 468.974,-86.5162"/>
<polygon fill="midnightblue" stroke="midnightblue" points="471.532,-88.9187 476.518,-79.5707 466.79,-83.7688 471.532,-88.9187"/>
</g>
<!-- Node20&#45;&gt;Node4 -->
<g id="edge68" class="edge"><title>Node20&#45;&gt;Node4</title>
<path fill="none" stroke="midnightblue" d="M218.387,-348.497C192.852,-339.123 155.263,-325.324 127.171,-315.012"/>
<polygon fill="midnightblue" stroke="midnightblue" points="128.26,-311.684 117.666,-311.523 125.848,-318.255 128.26,-311.684"/>
</g>
<!-- Node20&#45;&gt;Node7 -->
<g id="edge66" class="edge"><title>Node20&#45;&gt;Node7</title>
<path fill="none" stroke="midnightblue" d="M259.835,-348.232C269.622,-339.4 282.777,-326.096 291,-312 322.835,-257.433 339.166,-183.438 345.615,-147.833"/>
<polygon fill="midnightblue" stroke="midnightblue" points="349.113,-148.145 347.368,-137.695 342.215,-146.952 349.113,-148.145"/>
</g>
<!-- Node20&#45;&gt;Node17 -->
<g id="edge64" class="edge"><title>Node20&#45;&gt;Node17</title>
<path fill="none" stroke="midnightblue" d="M264.712,-348.373C278.181,-339.715 296.614,-326.572 310,-312 358.666,-259.022 398.504,-182.631 415.764,-146.872"/>
<polygon fill="midnightblue" stroke="midnightblue" points="419.071,-148.066 420.201,-137.532 412.748,-145.062 419.071,-148.066"/>
</g>
</g>
</svg>
