<?xml version="1.0" encoding="UTF-8" standalone="no"?>
<!DOCTYPE svg PUBLIC "-//W3C//DTD SVG 1.1//EN"
 "http://www.w3.org/Graphics/SVG/1.1/DTD/svg11.dtd">
<!-- Generated by graphviz version 2.26.0 (20091210.2329)
 -->
<!-- Title: sharedlibs.h Pages: 1 -->
<svg width="152pt" height="204pt"
 viewBox="0.00 0.00 152.00 204.00" xmlns="http://www.w3.org/2000/svg" xmlns:xlink="http://www.w3.org/1999/xlink">
<g id="graph1" class="graph" transform="scale(1 1) rotate(0) translate(4 200)">
<title>sharedlibs.h</title>
<polygon fill="white" stroke="white" points="-4,5 -4,-200 149,-200 149,5 -4,5"/>
<!-- Node1 -->
<g id="node1" class="node"><title>Node1</title>
<polygon fill="#bfbfbf" stroke="black" points="36.5,-174.5 36.5,-195.5 105.5,-195.5 105.5,-174.5 36.5,-174.5"/>
<text text-anchor="middle" x="71" y="-182.5" font-family="Helvetica,sans-Serif" font-size="10.00">sharedlibs.h</text>
</g>
<!-- Node2 -->
<g id="node3" class="node"><title>Node2</title>
<a xlink:href="plugins_8h.html" target="_top" xlink:title="plugins.h">
<polygon fill="white" stroke="black" points="43,-116.5 43,-137.5 99,-137.5 99,-116.5 43,-116.5"/>
<text text-anchor="middle" x="71" y="-124.5" font-family="Helvetica,sans-Serif" font-size="10.00">plugins.h</text>
</a>
</g>
<!-- Node1&#45;&gt;Node2 -->
<g id="edge2" class="edge"><title>Node1&#45;&gt;Node2</title>
<path fill="none" stroke="midnightblue" d="M71,-164.191C71,-155.168 71,-144.994 71,-137.571"/>
<polygon fill="midnightblue" stroke="midnightblue" points="67.5001,-164.362 71,-174.362 74.5001,-164.362 67.5001,-164.362"/>
</g>
<!-- Node3 -->
<g id="node5" class="node"><title>Node3</title>
<a xlink:href="prog_8h.html" target="_top" xlink:title="prog.h">
<polygon fill="white" stroke="black" points="12,-58.5 12,-79.5 56,-79.5 56,-58.5 12,-58.5"/>
<text text-anchor="middle" x="34" y="-66.5" font-family="Helvetica,sans-Serif" font-size="10.00">prog.h</text>
</a>
</g>
<!-- Node2&#45;&gt;Node3 -->
<g id="edge4" class="edge"><title>Node2&#45;&gt;Node3</title>
<path fill="none" stroke="midnightblue" d="M58.6667,-107.667C52.688,-98.2948 45.7392,-87.4019 40.7433,-79.5707"/>
<polygon fill="midnightblue" stroke="midnightblue" points="55.8847,-109.814 64.2136,-116.362 61.7862,-106.049 55.8847,-109.814"/>
</g>
<!-- Node5 -->
<g id="node9" class="node"><title>Node5</title>
<a xlink:href="uipluginsel_8h.html" target="_top" xlink:title="uipluginsel.h">
<polygon fill="white" stroke="black" points="73.5,-58.5 73.5,-79.5 144.5,-79.5 144.5,-58.5 73.5,-58.5"/>
<text text-anchor="middle" x="109" y="-66.5" font-family="Helvetica,sans-Serif" font-size="10.00">uipluginsel.h</text>
</a>
</g>
<!-- Node2&#45;&gt;Node5 -->
<g id="edge8" class="edge"><title>Node2&#45;&gt;Node5</title>
<path fill="none" stroke="midnightblue" d="M83.4751,-107.959C89.658,-98.522 96.8901,-87.4835 102.074,-79.5707"/>
<polygon fill="midnightblue" stroke="midnightblue" points="80.5225,-106.079 77.9698,-116.362 86.3777,-109.915 80.5225,-106.079"/>
</g>
<!-- Node4 -->
<g id="node7" class="node"><title>Node4</title>
<a xlink:href="batchprog_8h.html" target="_top" xlink:title="batchprog.h">
<polygon fill="white" stroke="black" points="0,-0.5 0,-21.5 68,-21.5 68,-0.5 0,-0.5"/>
<text text-anchor="middle" x="34" y="-8.5" font-family="Helvetica,sans-Serif" font-size="10.00">batchprog.h</text>
</a>
</g>
<!-- Node3&#45;&gt;Node4 -->
<g id="edge6" class="edge"><title>Node3&#45;&gt;Node4</title>
<path fill="none" stroke="midnightblue" d="M34,-48.1906C34,-39.1684 34,-28.9941 34,-21.5707"/>
<polygon fill="midnightblue" stroke="midnightblue" points="30.5001,-48.3619 34,-58.3619 37.5001,-48.3619 30.5001,-48.3619"/>
</g>
</g>
</svg>
