<?xml version="1.0" encoding="UTF-8" standalone="no"?>
<!DOCTYPE svg PUBLIC "-//W3C//DTD SVG 1.1//EN"
 "http://www.w3.org/Graphics/SVG/1.1/DTD/svg11.dtd">
<!-- Generated by graphviz version 2.26.0 (20091210.2329)
 -->
<!-- Title: statruncalc.h Pages: 1 -->
<svg width="496pt" height="204pt"
 viewBox="0.00 0.00 496.00 204.00" xmlns="http://www.w3.org/2000/svg" xmlns:xlink="http://www.w3.org/1999/xlink">
<g id="graph1" class="graph" transform="scale(1 1) rotate(0) translate(4 200)">
<title>statruncalc.h</title>
<polygon fill="white" stroke="white" points="-4,5 -4,-200 493,-200 493,5 -4,5"/>
<!-- Node1 -->
<g id="node1" class="node"><title>Node1</title>
<polygon fill="#bfbfbf" stroke="black" points="210.5,-174.5 210.5,-195.5 283.5,-195.5 283.5,-174.5 210.5,-174.5"/>
<text text-anchor="middle" x="247" y="-182.5" font-family="Helvetica,sans-Serif" font-size="10.00">statruncalc.h</text>
</g>
<!-- Node2 -->
<g id="node3" class="node"><title>Node2</title>
<a xlink:href="statparallelcalc_8h.html" target="_top" xlink:title="statparallelcalc.h">
<polygon fill="white" stroke="black" points="56,-116.5 56,-137.5 146,-137.5 146,-116.5 56,-116.5"/>
<text text-anchor="middle" x="101" y="-124.5" font-family="Helvetica,sans-Serif" font-size="10.00">statparallelcalc.h</text>
</a>
</g>
<!-- Node1&#45;&gt;Node2 -->
<g id="edge2" class="edge"><title>Node1&#45;&gt;Node2</title>
<path fill="none" stroke="midnightblue" d="M211.132,-170.751C185.349,-160.509 151.145,-146.921 127.736,-137.621"/>
<polygon fill="midnightblue" stroke="midnightblue" points="209.975,-174.057 220.561,-174.497 212.559,-167.552 209.975,-174.057"/>
</g>
<!-- Node3 -->
<g id="node5" class="node"><title>Node3</title>
<a xlink:href="array2dfilter_8h.html" target="_top" xlink:title="array2dfilter.h">
<polygon fill="white" stroke="black" points="164,-116.5 164,-137.5 240,-137.5 240,-116.5 164,-116.5"/>
<text text-anchor="middle" x="202" y="-124.5" font-family="Helvetica,sans-Serif" font-size="10.00">array2dfilter.h</text>
</a>
</g>
<!-- Node1&#45;&gt;Node3 -->
<g id="edge4" class="edge"><title>Node1&#45;&gt;Node3</title>
<path fill="none" stroke="midnightblue" d="M232.453,-166.25C225.082,-156.75 216.404,-145.565 210.201,-137.571"/>
<polygon fill="midnightblue" stroke="midnightblue" points="229.851,-168.607 238.746,-174.362 235.382,-164.316 229.851,-168.607"/>
</g>
<!-- Node7 -->
<g id="node13" class="node"><title>Node7</title>
<a xlink:href="uiaxisdata_8h.html" target="_top" xlink:title="uiaxisdata.h">
<polygon fill="white" stroke="black" points="257.5,-116.5 257.5,-137.5 326.5,-137.5 326.5,-116.5 257.5,-116.5"/>
<text text-anchor="middle" x="292" y="-124.5" font-family="Helvetica,sans-Serif" font-size="10.00">uiaxisdata.h</text>
</a>
</g>
<!-- Node1&#45;&gt;Node7 -->
<g id="edge12" class="edge"><title>Node1&#45;&gt;Node7</title>
<path fill="none" stroke="midnightblue" d="M261.547,-166.25C268.918,-156.75 277.596,-145.565 283.799,-137.571"/>
<polygon fill="midnightblue" stroke="midnightblue" points="258.618,-164.316 255.254,-174.362 264.149,-168.607 258.618,-164.316"/>
</g>
<!-- Node12 -->
<g id="node23" class="node"><title>Node12</title>
<a xlink:href="uifingerprintcalcobj_8h.html" target="_top" xlink:title="uifingerprintcalcobj.h">
<polygon fill="white" stroke="black" points="344,-116.5 344,-137.5 450,-137.5 450,-116.5 344,-116.5"/>
<text text-anchor="middle" x="397" y="-124.5" font-family="Helvetica,sans-Serif" font-size="10.00">uifingerprintcalcobj.h</text>
</a>
</g>
<!-- Node1&#45;&gt;Node12 -->
<g id="edge22" class="edge"><title>Node1&#45;&gt;Node12</title>
<path fill="none" stroke="midnightblue" d="M283.532,-170.874C310.15,-160.582 345.633,-146.862 369.785,-137.523"/>
<polygon fill="midnightblue" stroke="midnightblue" points="282.229,-167.626 274.164,-174.497 284.753,-174.155 282.229,-167.626"/>
</g>
<!-- Node4 -->
<g id="node7" class="node"><title>Node4</title>
<a xlink:href="volproclateralsmoother_8h.html" target="_top" xlink:title="volproclateralsmoother.h">
<polygon fill="white" stroke="black" points="9.5,-58.5 9.5,-79.5 132.5,-79.5 132.5,-58.5 9.5,-58.5"/>
<text text-anchor="middle" x="71" y="-66.5" font-family="Helvetica,sans-Serif" font-size="10.00">volproclateralsmoother.h</text>
</a>
</g>
<!-- Node3&#45;&gt;Node4 -->
<g id="edge6" class="edge"><title>Node3&#45;&gt;Node4</title>
<path fill="none" stroke="midnightblue" d="M168.896,-112.343C145.874,-102.15 115.715,-88.7977 94.9893,-79.6212"/>
<polygon fill="midnightblue" stroke="midnightblue" points="167.716,-115.649 178.277,-116.497 170.55,-109.248 167.716,-115.649"/>
</g>
<!-- Node6 -->
<g id="node11" class="node"><title>Node6</title>
<a xlink:href="uiarray2dchg_8h.html" target="_top" xlink:title="uiarray2dchg.h">
<polygon fill="white" stroke="black" points="162,-58.5 162,-79.5 242,-79.5 242,-58.5 162,-58.5"/>
<text text-anchor="middle" x="202" y="-66.5" font-family="Helvetica,sans-Serif" font-size="10.00">uiarray2dchg.h</text>
</a>
</g>
<!-- Node3&#45;&gt;Node6 -->
<g id="edge10" class="edge"><title>Node3&#45;&gt;Node6</title>
<path fill="none" stroke="midnightblue" d="M202,-106.191C202,-97.1684 202,-86.9941 202,-79.5707"/>
<polygon fill="midnightblue" stroke="midnightblue" points="198.5,-106.362 202,-116.362 205.5,-106.362 198.5,-106.362"/>
</g>
<!-- Node5 -->
<g id="node9" class="node"><title>Node5</title>
<a xlink:href="uivolproclateralsmoother_8h.html" target="_top" xlink:title="uivolproclateralsmoother.h">
<polygon fill="white" stroke="black" points="-0.5,-0.5 -0.5,-21.5 130.5,-21.5 130.5,-0.5 -0.5,-0.5"/>
<text text-anchor="middle" x="65" y="-8.5" font-family="Helvetica,sans-Serif" font-size="10.00">uivolproclateralsmoother.h</text>
</a>
</g>
<!-- Node4&#45;&gt;Node5 -->
<g id="edge8" class="edge"><title>Node4&#45;&gt;Node5</title>
<path fill="none" stroke="midnightblue" d="M68.8473,-48.1906C67.914,-39.1684 66.8615,-28.9941 66.0935,-21.5707"/>
<polygon fill="midnightblue" stroke="midnightblue" points="65.389,-48.7752 69.8995,-58.3619 72.3518,-48.0548 65.389,-48.7752"/>
</g>
<!-- Node8 -->
<g id="node15" class="node"><title>Node8</title>
<a xlink:href="uidatapointsetcrossplot_8h.html" target="_top" xlink:title="uidatapointsetcrossplot.h">
<polygon fill="white" stroke="black" points="282.5,-58.5 282.5,-79.5 407.5,-79.5 407.5,-58.5 282.5,-58.5"/>
<text text-anchor="middle" x="345" y="-66.5" font-family="Helvetica,sans-Serif" font-size="10.00">uidatapointsetcrossplot.h</text>
</a>
</g>
<!-- Node7&#45;&gt;Node8 -->
<g id="edge14" class="edge"><title>Node7&#45;&gt;Node8</title>
<path fill="none" stroke="midnightblue" d="M308.604,-108.83C317.396,-99.2078 327.886,-87.7282 335.341,-79.5707"/>
<polygon fill="midnightblue" stroke="midnightblue" points="305.883,-106.619 301.721,-116.362 311.051,-111.341 305.883,-106.619"/>
</g>
<!-- Node9 -->
<g id="node17" class="node"><title>Node9</title>
<a xlink:href="uidatapointsetcrossplotwin_8h.html" target="_top" xlink:title="uidatapointsetcrossplotwin.h">
<polygon fill="white" stroke="black" points="148,-0.5 148,-21.5 288,-21.5 288,-0.5 148,-0.5"/>
<text text-anchor="middle" x="218" y="-8.5" font-family="Helvetica,sans-Serif" font-size="10.00">uidatapointsetcrossplotwin.h</text>
</a>
</g>
<!-- Node8&#45;&gt;Node9 -->
<g id="edge16" class="edge"><title>Node8&#45;&gt;Node9</title>
<path fill="none" stroke="midnightblue" d="M312.607,-54.2064C290.327,-44.031 261.26,-30.7567 241.257,-21.6212"/>
<polygon fill="midnightblue" stroke="midnightblue" points="311.451,-57.5261 322.001,-58.4966 314.359,-51.1587 311.451,-57.5261"/>
</g>
<!-- Node10 -->
<g id="node19" class="node"><title>Node10</title>
<a xlink:href="uiimpexpselgrp_8h.html" target="_top" xlink:title="uiimpexpselgrp.h">
<polygon fill="white" stroke="black" points="306,-0.5 306,-21.5 396,-21.5 396,-0.5 306,-0.5"/>
<text text-anchor="middle" x="351" y="-8.5" font-family="Helvetica,sans-Serif" font-size="10.00">uiimpexpselgrp.h</text>
</a>
</g>
<!-- Node8&#45;&gt;Node10 -->
<g id="edge18" class="edge"><title>Node8&#45;&gt;Node10</title>
<path fill="none" stroke="midnightblue" d="M347.153,-48.1906C348.086,-39.1684 349.139,-28.9941 349.906,-21.5707"/>
<polygon fill="midnightblue" stroke="midnightblue" points="343.648,-48.0548 346.1,-58.3619 350.611,-48.7752 343.648,-48.0548"/>
</g>
<!-- Node11 -->
<g id="node21" class="node"><title>Node11</title>
<a xlink:href="densitycalc_8h.html" target="_top" xlink:title="densitycalc.h">
<polygon fill="white" stroke="black" points="414,-0.5 414,-21.5 488,-21.5 488,-0.5 414,-0.5"/>
<text text-anchor="middle" x="451" y="-8.5" font-family="Helvetica,sans-Serif" font-size="10.00">densitycalc.h</text>
</a>
</g>
<!-- Node8&#45;&gt;Node11 -->
<g id="edge20" class="edge"><title>Node8&#45;&gt;Node11</title>
<path fill="none" stroke="midnightblue" d="M373.296,-53.5175C391.752,-43.4189 415.356,-30.5032 431.681,-21.5707"/>
<polygon fill="midnightblue" stroke="midnightblue" points="371.535,-50.4913 364.442,-58.3619 374.895,-56.6322 371.535,-50.4913"/>
</g>
</g>
</svg>
