<?xml version="1.0" encoding="UTF-8" standalone="no"?>
<!DOCTYPE svg PUBLIC "-//W3C//DTD SVG 1.1//EN"
 "http://www.w3.org/Graphics/SVG/1.1/DTD/svg11.dtd">
<!-- Generated by graphviz version 2.26.0 (20091210.2329)
 -->
<!-- Title: statrand.h Pages: 1 -->
<svg width="352pt" height="204pt"
 viewBox="0.00 0.00 352.00 204.00" xmlns="http://www.w3.org/2000/svg" xmlns:xlink="http://www.w3.org/1999/xlink">
<g id="graph1" class="graph" transform="scale(1 1) rotate(0) translate(4 200)">
<title>statrand.h</title>
<polygon fill="white" stroke="white" points="-4,5 -4,-200 349,-200 349,5 -4,5"/>
<!-- Node1 -->
<g id="node1" class="node"><title>Node1</title>
<polygon fill="#bfbfbf" stroke="black" points="153,-174.5 153,-195.5 213,-195.5 213,-174.5 153,-174.5"/>
<text text-anchor="middle" x="183" y="-182.5" font-family="Helvetica,sans-Serif" font-size="10.00">statrand.h</text>
</g>
<!-- Node2 -->
<g id="node3" class="node"><title>Node2</title>
<a xlink:href="randcolor_8h.html" target="_top" xlink:title="randcolor.h">
<polygon fill="white" stroke="black" points="150.5,-116.5 150.5,-137.5 215.5,-137.5 215.5,-116.5 150.5,-116.5"/>
<text text-anchor="middle" x="183" y="-124.5" font-family="Helvetica,sans-Serif" font-size="10.00">randcolor.h</text>
</a>
</g>
<!-- Node1&#45;&gt;Node2 -->
<g id="edge2" class="edge"><title>Node1&#45;&gt;Node2</title>
<path fill="none" stroke="midnightblue" d="M183,-164.191C183,-155.168 183,-144.994 183,-137.571"/>
<polygon fill="midnightblue" stroke="midnightblue" points="179.5,-164.362 183,-174.362 186.5,-164.362 179.5,-164.362"/>
</g>
<!-- Node3 -->
<g id="node5" class="node"><title>Node3</title>
<a xlink:href="uimpe_8h.html" target="_top" xlink:title="uimpe.h">
<polygon fill="white" stroke="black" points="157.5,-58.5 157.5,-79.5 208.5,-79.5 208.5,-58.5 157.5,-58.5"/>
<text text-anchor="middle" x="183" y="-66.5" font-family="Helvetica,sans-Serif" font-size="10.00">uimpe.h</text>
</a>
</g>
<!-- Node2&#45;&gt;Node3 -->
<g id="edge4" class="edge"><title>Node2&#45;&gt;Node3</title>
<path fill="none" stroke="midnightblue" d="M183,-106.191C183,-97.1684 183,-86.9941 183,-79.5707"/>
<polygon fill="midnightblue" stroke="midnightblue" points="179.5,-106.362 183,-116.362 186.5,-106.362 179.5,-106.362"/>
</g>
<!-- Node4 -->
<g id="node7" class="node"><title>Node4</title>
<a xlink:href="uihorizontracksetup_8h.html" target="_top" xlink:title="uihorizontracksetup.h">
<polygon fill="white" stroke="black" points="0,-0.5 0,-21.5 110,-21.5 110,-0.5 0,-0.5"/>
<text text-anchor="middle" x="55" y="-8.5" font-family="Helvetica,sans-Serif" font-size="10.00">uihorizontracksetup.h</text>
</a>
</g>
<!-- Node3&#45;&gt;Node4 -->
<g id="edge6" class="edge"><title>Node3&#45;&gt;Node4</title>
<path fill="none" stroke="midnightblue" d="M150.654,-54.3431C128.159,-44.1502 98.6914,-30.7977 78.4399,-21.6212"/>
<polygon fill="midnightblue" stroke="midnightblue" points="149.267,-57.5573 159.82,-58.4966 152.156,-51.1813 149.267,-57.5573"/>
</g>
<!-- Node5 -->
<g id="node9" class="node"><title>Node5</title>
<a xlink:href="uimpecorrelationgrp_8h.html" target="_top" xlink:title="uimpecorrelationgrp.h">
<polygon fill="white" stroke="black" points="128,-0.5 128,-21.5 238,-21.5 238,-0.5 128,-0.5"/>
<text text-anchor="middle" x="183" y="-8.5" font-family="Helvetica,sans-Serif" font-size="10.00">uimpecorrelationgrp.h</text>
</a>
</g>
<!-- Node3&#45;&gt;Node5 -->
<g id="edge8" class="edge"><title>Node3&#45;&gt;Node5</title>
<path fill="none" stroke="midnightblue" d="M183,-48.1906C183,-39.1684 183,-28.9941 183,-21.5707"/>
<polygon fill="midnightblue" stroke="midnightblue" points="179.5,-48.3619 183,-58.3619 186.5,-48.3619 179.5,-48.3619"/>
</g>
<!-- Node6 -->
<g id="node11" class="node"><title>Node6</title>
<a xlink:href="uimpeeventgrp_8h.html" target="_top" xlink:title="uimpeeventgrp.h">
<polygon fill="white" stroke="black" points="255.5,-0.5 255.5,-21.5 344.5,-21.5 344.5,-0.5 255.5,-0.5"/>
<text text-anchor="middle" x="300" y="-8.5" font-family="Helvetica,sans-Serif" font-size="10.00">uimpeeventgrp.h</text>
</a>
</g>
<!-- Node3&#45;&gt;Node6 -->
<g id="edge10" class="edge"><title>Node3&#45;&gt;Node6</title>
<path fill="none" stroke="midnightblue" d="M213.396,-53.9319C233.848,-43.7932 260.311,-30.6748 278.574,-21.6212"/>
<polygon fill="midnightblue" stroke="midnightblue" points="211.593,-50.9193 204.188,-58.4966 214.702,-57.1909 211.593,-50.9193"/>
</g>
</g>
</svg>
