<?xml version="1.0" encoding="UTF-8" standalone="no"?>
<!DOCTYPE svg PUBLIC "-//W3C//DTD SVG 1.1//EN"
 "http://www.w3.org/Graphics/SVG/1.1/DTD/svg11.dtd">
<!-- Generated by graphviz version 2.26.0 (20091210.2329)
 -->
<!-- Title: stratunitref.h Pages: 1 -->
<svg width="380pt" height="146pt"
 viewBox="0.00 0.00 380.00 146.00" xmlns="http://www.w3.org/2000/svg" xmlns:xlink="http://www.w3.org/1999/xlink">
<g id="graph1" class="graph" transform="scale(1 1) rotate(0) translate(4 142)">
<title>stratunitref.h</title>
<polygon fill="white" stroke="white" points="-4,5 -4,-142 377,-142 377,5 -4,5"/>
<!-- Node1 -->
<g id="node1" class="node"><title>Node1</title>
<polygon fill="#bfbfbf" stroke="black" points="146.5,-116.5 146.5,-137.5 217.5,-137.5 217.5,-116.5 146.5,-116.5"/>
<text text-anchor="middle" x="182" y="-124.5" font-family="Helvetica,sans-Serif" font-size="10.00">stratunitref.h</text>
</g>
<!-- Node2 -->
<g id="node3" class="node"><title>Node2</title>
<a xlink:href="stratreftree_8h.html" target="_top" xlink:title="stratreftree.h">
<polygon fill="white" stroke="black" points="0,-58.5 0,-79.5 72,-79.5 72,-58.5 0,-58.5"/>
<text text-anchor="middle" x="36" y="-66.5" font-family="Helvetica,sans-Serif" font-size="10.00">stratreftree.h</text>
</a>
</g>
<!-- Node1&#45;&gt;Node2 -->
<g id="edge2" class="edge"><title>Node1&#45;&gt;Node2</title>
<path fill="none" stroke="midnightblue" d="M146.132,-112.751C120.349,-102.509 86.1448,-88.9206 62.7362,-79.6212"/>
<polygon fill="midnightblue" stroke="midnightblue" points="144.975,-116.057 155.561,-116.497 147.559,-109.552 144.975,-116.057"/>
</g>
<!-- Node3 -->
<g id="node5" class="node"><title>Node3</title>
<a xlink:href="stratunitrefiter_8h.html" target="_top" xlink:title="stratunitrefiter.h">
<polygon fill="white" stroke="black" points="89.5,-58.5 89.5,-79.5 174.5,-79.5 174.5,-58.5 89.5,-58.5"/>
<text text-anchor="middle" x="132" y="-66.5" font-family="Helvetica,sans-Serif" font-size="10.00">stratunitrefiter.h</text>
</a>
</g>
<!-- Node1&#45;&gt;Node3 -->
<g id="edge4" class="edge"><title>Node1&#45;&gt;Node3</title>
<path fill="none" stroke="midnightblue" d="M166.087,-108.541C157.844,-98.9786 148.075,-87.6467 141.113,-79.5707"/>
<polygon fill="midnightblue" stroke="midnightblue" points="163.649,-111.073 172.829,-116.362 168.951,-106.502 163.649,-111.073"/>
</g>
<!-- Node5 -->
<g id="node9" class="node"><title>Node5</title>
<a xlink:href="uistratreftree_8h.html" target="_top" xlink:title="uistratreftree.h">
<polygon fill="white" stroke="black" points="192,-58.5 192,-79.5 272,-79.5 272,-58.5 192,-58.5"/>
<text text-anchor="middle" x="232" y="-66.5" font-family="Helvetica,sans-Serif" font-size="10.00">uistratreftree.h</text>
</a>
</g>
<!-- Node1&#45;&gt;Node5 -->
<g id="edge8" class="edge"><title>Node1&#45;&gt;Node5</title>
<path fill="none" stroke="midnightblue" d="M197.913,-108.541C206.156,-98.9786 215.925,-87.6467 222.887,-79.5707"/>
<polygon fill="midnightblue" stroke="midnightblue" points="195.049,-106.502 191.171,-116.362 200.351,-111.073 195.049,-106.502"/>
</g>
<!-- Node6 -->
<g id="node11" class="node"><title>Node6</title>
<a xlink:href="uistratutildlgs_8h.html" target="_top" xlink:title="uistratutildlgs.h">
<polygon fill="white" stroke="black" points="289.5,-58.5 289.5,-79.5 372.5,-79.5 372.5,-58.5 289.5,-58.5"/>
<text text-anchor="middle" x="331" y="-66.5" font-family="Helvetica,sans-Serif" font-size="10.00">uistratutildlgs.h</text>
</a>
</g>
<!-- Node1&#45;&gt;Node6 -->
<g id="edge10" class="edge"><title>Node1&#45;&gt;Node6</title>
<path fill="none" stroke="midnightblue" d="M218.637,-112.739C245.038,-102.462 280.08,-88.821 303.967,-79.5231"/>
<polygon fill="midnightblue" stroke="midnightblue" points="217.032,-109.607 208.983,-116.497 219.571,-116.131 217.032,-109.607"/>
</g>
<!-- Node4 -->
<g id="node7" class="node"><title>Node4</title>
<a xlink:href="uistratselunits_8h.html" target="_top" xlink:title="uistratselunits.h">
<polygon fill="white" stroke="black" points="89,-0.5 89,-21.5 175,-21.5 175,-0.5 89,-0.5"/>
<text text-anchor="middle" x="132" y="-8.5" font-family="Helvetica,sans-Serif" font-size="10.00">uistratselunits.h</text>
</a>
</g>
<!-- Node3&#45;&gt;Node4 -->
<g id="edge6" class="edge"><title>Node3&#45;&gt;Node4</title>
<path fill="none" stroke="midnightblue" d="M132,-48.1906C132,-39.1684 132,-28.9941 132,-21.5707"/>
<polygon fill="midnightblue" stroke="midnightblue" points="128.5,-48.3619 132,-58.3619 135.5,-48.3619 128.5,-48.3619"/>
</g>
</g>
</svg>
