<?xml version="1.0" encoding="UTF-8" standalone="no"?>
<!DOCTYPE svg PUBLIC "-//W3C//DTD SVG 1.1//EN"
 "http://www.w3.org/Graphics/SVG/1.1/DTD/svg11.dtd">
<!-- Generated by graphviz version 2.26.0 (20091210.2329)
 -->
<!-- Title: stratsynthexp.h Pages: 1 -->
<svg width="1137pt" height="900pt"
 viewBox="0.00 0.00 1137.00 900.00" xmlns="http://www.w3.org/2000/svg" xmlns:xlink="http://www.w3.org/1999/xlink">
<g id="graph1" class="graph" transform="scale(1 1) rotate(0) translate(4 896)">
<title>stratsynthexp.h</title>
<polygon fill="white" stroke="white" points="-4,5 -4,-896 1134,-896 1134,5 -4,5"/>
<!-- Node1 -->
<g id="node1" class="node"><title>Node1</title>
<polygon fill="#bfbfbf" stroke="black" points="68,-870.5 68,-891.5 152,-891.5 152,-870.5 68,-870.5"/>
<text text-anchor="middle" x="110" y="-878.5" font-family="Helvetica,sans-Serif" font-size="10.00">stratsynthexp.h</text>
</g>
<!-- Node2 -->
<g id="node3" class="node"><title>Node2</title>
<polygon fill="white" stroke="#bfbfbf" points="-0.5,-812.5 -0.5,-833.5 82.5,-833.5 82.5,-812.5 -0.5,-812.5"/>
<text text-anchor="middle" x="41" y="-820.5" font-family="Helvetica,sans-Serif" font-size="10.00">wellattribmod.h</text>
</g>
<!-- Node1&#45;&gt;Node2 -->
<g id="edge2" class="edge"><title>Node1&#45;&gt;Node2</title>
<path fill="none" stroke="midnightblue" d="M97.3443,-870.362C87.3261,-861.941 73.1332,-850.011 61.4987,-840.231"/>
<polygon fill="midnightblue" stroke="midnightblue" points="63.4824,-837.326 53.5754,-833.571 58.9782,-842.684 63.4824,-837.326"/>
</g>
<!-- Node3 -->
<g id="node5" class="node"><title>Node3</title>
<a xlink:href="executor_8h.html" target="_top" xlink:title="executor.h">
<polygon fill="white" stroke="black" points="739,-812.5 739,-833.5 801,-833.5 801,-812.5 739,-812.5"/>
<text text-anchor="middle" x="770" y="-820.5" font-family="Helvetica,sans-Serif" font-size="10.00">executor.h</text>
</a>
</g>
<!-- Node1&#45;&gt;Node3 -->
<g id="edge4" class="edge"><title>Node1&#45;&gt;Node3</title>
<path fill="none" stroke="midnightblue" d="M152.038,-877.306C271.243,-866.83 610.453,-837.021 728.72,-826.628"/>
<polygon fill="midnightblue" stroke="midnightblue" points="729.157,-830.103 738.812,-825.741 728.544,-823.13 729.157,-830.103"/>
</g>
<!-- Node37 -->
<g id="node104" class="node"><title>Node37</title>
<a xlink:href="uistring_8h.html" target="_top" xlink:title="uistring.h">
<polygon fill="white" stroke="black" points="371,-580.5 371,-601.5 427,-601.5 427,-580.5 371,-580.5"/>
<text text-anchor="middle" x="399" y="-588.5" font-family="Helvetica,sans-Serif" font-size="10.00">uistring.h</text>
</a>
</g>
<!-- Node1&#45;&gt;Node37 -->
<g id="edge174" class="edge"><title>Node1&#45;&gt;Node37</title>
<path fill="none" stroke="midnightblue" d="M120.628,-870.335C163.821,-826.993 326.483,-663.767 381.038,-609.025"/>
<polygon fill="midnightblue" stroke="midnightblue" points="383.695,-611.316 388.275,-601.762 378.737,-606.375 383.695,-611.316"/>
</g>
<!-- Node4 -->
<g id="node7" class="node"><title>Node4</title>
<polygon fill="white" stroke="#bfbfbf" points="659.5,-0.5 659.5,-21.5 726.5,-21.5 726.5,-0.5 659.5,-0.5"/>
<text text-anchor="middle" x="693" y="-8.5" font-family="Helvetica,sans-Serif" font-size="10.00">basicmod.h</text>
</g>
<!-- Node3&#45;&gt;Node4 -->
<g id="edge6" class="edge"><title>Node3&#45;&gt;Node4</title>
<path fill="none" stroke="midnightblue" d="M801.231,-819.7C888.573,-809.612 1129,-775.61 1129,-707 1129,-707 1129,-707 1129,-127 1129,-46.4724 847.729,-20.4694 737.016,-13.3534"/>
<polygon fill="midnightblue" stroke="midnightblue" points="737.047,-9.84864 726.849,-12.7225 736.613,-16.8352 737.047,-9.84864"/>
</g>
<!-- Node5 -->
<g id="node9" class="node"><title>Node5</title>
<a xlink:href="task_8h.html" target="_top" xlink:title="task.h">
<polygon fill="white" stroke="black" points="461,-754.5 461,-775.5 505,-775.5 505,-754.5 461,-754.5"/>
<text text-anchor="middle" x="483" y="-762.5" font-family="Helvetica,sans-Serif" font-size="10.00">task.h</text>
</a>
</g>
<!-- Node3&#45;&gt;Node5 -->
<g id="edge8" class="edge"><title>Node3&#45;&gt;Node5</title>
<path fill="none" stroke="midnightblue" d="M738.74,-816.683C683.873,-805.594 570.805,-782.744 515.248,-771.517"/>
<polygon fill="midnightblue" stroke="midnightblue" points="515.749,-768.048 505.254,-769.497 514.362,-774.909 515.749,-768.048"/>
</g>
<!-- Node6 -->
<g id="node12" class="node"><title>Node6</title>
<a xlink:href="namedobj_8h.html" target="_top" xlink:title="namedobj.h">
<polygon fill="white" stroke="black" points="661.5,-696.5 661.5,-717.5 728.5,-717.5 728.5,-696.5 661.5,-696.5"/>
<text text-anchor="middle" x="695" y="-704.5" font-family="Helvetica,sans-Serif" font-size="10.00">namedobj.h</text>
</a>
</g>
<!-- Node3&#45;&gt;Node6 -->
<g id="edge150" class="edge"><title>Node3&#45;&gt;Node6</title>
<path fill="none" stroke="midnightblue" d="M763.079,-812.295C750.409,-792.7 723.332,-750.82 707.408,-726.191"/>
<polygon fill="midnightblue" stroke="midnightblue" points="710.273,-724.177 701.905,-717.679 704.395,-727.977 710.273,-724.177"/>
</g>
<!-- Node39 -->
<g id="node115" class="node"><title>Node39</title>
<a xlink:href="progressmeter_8h.html" target="_top" xlink:title="progressmeter.h">
<polygon fill="white" stroke="black" points="770.5,-754.5 770.5,-775.5 857.5,-775.5 857.5,-754.5 770.5,-754.5"/>
<text text-anchor="middle" x="814" y="-762.5" font-family="Helvetica,sans-Serif" font-size="10.00">progressmeter.h</text>
</a>
</g>
<!-- Node3&#45;&gt;Node39 -->
<g id="edge152" class="edge"><title>Node3&#45;&gt;Node39</title>
<path fill="none" stroke="midnightblue" d="M778.07,-812.362C784.149,-804.35 792.637,-793.161 799.837,-783.67"/>
<polygon fill="midnightblue" stroke="midnightblue" points="802.725,-785.653 805.981,-775.571 797.149,-781.422 802.725,-785.653"/>
</g>
<!-- Node41 -->
<g id="node126" class="node"><title>Node41</title>
<a xlink:href="od__iosfwd_8h.html" target="_top" xlink:title="od_iosfwd.h">
<polygon fill="white" stroke="black" points="1032.5,-638.5 1032.5,-659.5 1101.5,-659.5 1101.5,-638.5 1032.5,-638.5"/>
<text text-anchor="middle" x="1067" y="-646.5" font-family="Helvetica,sans-Serif" font-size="10.00">od_iosfwd.h</text>
</a>
</g>
<!-- Node3&#45;&gt;Node41 -->
<g id="edge172" class="edge"><title>Node3&#45;&gt;Node41</title>
<path fill="none" stroke="midnightblue" d="M801.274,-815.86C851.56,-803.145 951.568,-772.645 1019,-718 1035.55,-704.585 1048.84,-684.026 1057.2,-668.836"/>
<polygon fill="midnightblue" stroke="midnightblue" points="1060.42,-670.239 1061.97,-659.759 1054.22,-666.985 1060.42,-670.239"/>
</g>
<!-- Node5&#45;&gt;Node4 -->
<g id="edge10" class="edge"><title>Node5&#45;&gt;Node4</title>
<path fill="none" stroke="midnightblue" d="M460.752,-759.063C382.264,-736.635 123,-649.357 123,-475 123,-475 123,-475 123,-417 123,-255.304 -45.994,-176.52 64,-58 83.897,-36.5608 508.817,-18.1662 648.752,-12.6707"/>
<polygon fill="midnightblue" stroke="midnightblue" points="649.24,-16.1544 659.097,-12.2676 648.968,-9.15975 649.24,-16.1544"/>
</g>
<!-- Node5&#45;&gt;Node6 -->
<g id="edge12" class="edge"><title>Node5&#45;&gt;Node6</title>
<path fill="none" stroke="midnightblue" d="M505.287,-758.903C539.879,-749.439 607.127,-731.041 651.552,-718.887"/>
<polygon fill="midnightblue" stroke="midnightblue" points="652.494,-722.258 661.216,-716.243 650.647,-715.506 652.494,-722.258"/>
</g>
<!-- Node17 -->
<g id="node39" class="node"><title>Node17</title>
<a xlink:href="objectset_8h.html" target="_top" xlink:title="objectset.h">
<polygon fill="white" stroke="black" points="526.5,-522.5 526.5,-543.5 591.5,-543.5 591.5,-522.5 526.5,-522.5"/>
<text text-anchor="middle" x="559" y="-530.5" font-family="Helvetica,sans-Serif" font-size="10.00">objectset.h</text>
</a>
</g>
<!-- Node5&#45;&gt;Node17 -->
<g id="edge130" class="edge"><title>Node5&#45;&gt;Node17</title>
<path fill="none" stroke="midnightblue" d="M486.986,-754.403C496.65,-728.548 521.867,-660.093 540,-602 545.024,-585.903 550.062,-567.48 553.686,-553.722"/>
<polygon fill="midnightblue" stroke="midnightblue" points="557.131,-554.382 556.262,-543.822 550.356,-552.618 557.131,-554.382"/>
</g>
<!-- Node36 -->
<g id="node96" class="node"><title>Node36</title>
<a xlink:href="threadlock_8h.html" target="_top" xlink:title="threadlock.h">
<polygon fill="white" stroke="black" points="151,-522.5 151,-543.5 221,-543.5 221,-522.5 151,-522.5"/>
<text text-anchor="middle" x="186" y="-530.5" font-family="Helvetica,sans-Serif" font-size="10.00">threadlock.h</text>
</a>
</g>
<!-- Node5&#45;&gt;Node36 -->
<g id="edge132" class="edge"><title>Node5&#45;&gt;Node36</title>
<path fill="none" stroke="midnightblue" d="M464.877,-754.441C424.021,-730.22 322.487,-667.674 248,-602 230.227,-586.33 212.405,-565.882 200.46,-551.323"/>
<polygon fill="midnightblue" stroke="midnightblue" points="203.157,-549.092 194.151,-543.512 197.712,-553.49 203.157,-549.092"/>
</g>
<!-- Node5&#45;&gt;Node37 -->
<g id="edge134" class="edge"><title>Node5&#45;&gt;Node37</title>
<path fill="none" stroke="midnightblue" d="M477.872,-754.377C464.197,-726.051 426.686,-648.349 408.772,-611.242"/>
<polygon fill="midnightblue" stroke="midnightblue" points="411.775,-609.412 404.275,-601.928 405.471,-612.455 411.775,-609.412"/>
</g>
<!-- Node6&#45;&gt;Node4 -->
<g id="edge14" class="edge"><title>Node6&#45;&gt;Node4</title>
<path fill="none" stroke="midnightblue" d="M683.907,-696.392C675.157,-687.449 663.256,-673.914 656,-660 641.293,-631.796 637,-622.808 637,-591 637,-591 637,-591 637,-475 637,-389.221 570.49,-375.003 582,-290 595.981,-186.743 655.799,-74.6419 681.353,-30.4568"/>
<polygon fill="midnightblue" stroke="midnightblue" points="684.489,-32.0271 686.528,-21.6302 678.45,-28.4865 684.489,-32.0271"/>
</g>
<!-- Node7 -->
<g id="node15" class="node"><title>Node7</title>
<a xlink:href="callback_8h.html" target="_top" xlink:title="callback.h">
<polygon fill="white" stroke="black" points="664.5,-638.5 664.5,-659.5 725.5,-659.5 725.5,-638.5 664.5,-638.5"/>
<text text-anchor="middle" x="695" y="-646.5" font-family="Helvetica,sans-Serif" font-size="10.00">callback.h</text>
</a>
</g>
<!-- Node6&#45;&gt;Node7 -->
<g id="edge16" class="edge"><title>Node6&#45;&gt;Node7</title>
<path fill="none" stroke="midnightblue" d="M695,-696.362C695,-688.922 695,-678.743 695,-669.728"/>
<polygon fill="midnightblue" stroke="midnightblue" points="698.5,-669.571 695,-659.571 691.5,-669.571 698.5,-669.571"/>
</g>
<!-- Node26 -->
<g id="node64" class="node"><title>Node26</title>
<a xlink:href="bufstring_8h.html" target="_top" xlink:title="bufstring.h">
<polygon fill="white" stroke="black" points="759,-348.5 759,-369.5 821,-369.5 821,-348.5 759,-348.5"/>
<text text-anchor="middle" x="790" y="-356.5" font-family="Helvetica,sans-Serif" font-size="10.00">bufstring.h</text>
</a>
</g>
<!-- Node6&#45;&gt;Node26 -->
<g id="edge128" class="edge"><title>Node6&#45;&gt;Node26</title>
<path fill="none" stroke="midnightblue" d="M713.057,-696.341C740.866,-678.404 791,-639.361 791,-591 791,-591 791,-591 791,-475 791,-441.597 790.58,-402.784 790.285,-379.593"/>
<polygon fill="midnightblue" stroke="midnightblue" points="793.784,-379.509 790.152,-369.556 786.785,-379.601 793.784,-379.509"/>
</g>
<!-- Node7&#45;&gt;Node4 -->
<g id="edge18" class="edge"><title>Node7&#45;&gt;Node4</title>
<path fill="none" stroke="midnightblue" d="M709.286,-638.499C760.09,-599.828 929,-459.351 929,-301 929,-301 929,-301 929,-127 929,-91.328 916.706,-79.1766 888,-58 864.273,-40.4969 786.617,-25.5851 736.756,-17.4946"/>
<polygon fill="midnightblue" stroke="midnightblue" points="737.3,-14.0371 726.874,-15.921 736.199,-20.9501 737.3,-14.0371"/>
</g>
<!-- Node8 -->
<g id="node18" class="node"><title>Node8</title>
<a xlink:href="refcount_8h.html" target="_top" xlink:title="refcount.h">
<polygon fill="white" stroke="black" points="665,-580.5 665,-601.5 725,-601.5 725,-580.5 665,-580.5"/>
<text text-anchor="middle" x="695" y="-588.5" font-family="Helvetica,sans-Serif" font-size="10.00">refcount.h</text>
</a>
</g>
<!-- Node7&#45;&gt;Node8 -->
<g id="edge20" class="edge"><title>Node7&#45;&gt;Node8</title>
<path fill="none" stroke="midnightblue" d="M695,-638.362C695,-630.922 695,-620.743 695,-611.728"/>
<polygon fill="midnightblue" stroke="midnightblue" points="698.5,-611.571 695,-601.571 691.5,-611.571 698.5,-611.571"/>
</g>
<!-- Node34 -->
<g id="node89" class="node"><title>Node34</title>
<a xlink:href="sets_8h.html" target="_top" xlink:title="sets.h">
<polygon fill="white" stroke="black" points="487,-580.5 487,-601.5 531,-601.5 531,-580.5 487,-580.5"/>
<text text-anchor="middle" x="509" y="-588.5" font-family="Helvetica,sans-Serif" font-size="10.00">sets.h</text>
</a>
</g>
<!-- Node7&#45;&gt;Node34 -->
<g id="edge110" class="edge"><title>Node7&#45;&gt;Node34</title>
<path fill="none" stroke="midnightblue" d="M664.286,-639.422C630.102,-628.763 575.139,-611.624 540.601,-600.854"/>
<polygon fill="midnightblue" stroke="midnightblue" points="541.598,-597.499 531.01,-597.863 539.514,-604.182 541.598,-597.499"/>
</g>
<!-- Node7&#45;&gt;Node36 -->
<g id="edge120" class="edge"><title>Node7&#45;&gt;Node36</title>
<path fill="none" stroke="midnightblue" d="M664.226,-647.064C604.91,-642.807 470.985,-630.634 362,-602 309.628,-588.24 251.659,-563.557 217.06,-547.745"/>
<polygon fill="midnightblue" stroke="midnightblue" points="218.491,-544.551 207.945,-543.537 215.557,-550.906 218.491,-544.551"/>
</g>
<!-- Node9 -->
<g id="node20" class="node"><title>Node9</title>
<a xlink:href="atomic_8h.html" target="_top" xlink:title="atomic.h">
<polygon fill="white" stroke="black" points="803,-116.5 803,-137.5 857,-137.5 857,-116.5 803,-116.5"/>
<text text-anchor="middle" x="830" y="-124.5" font-family="Helvetica,sans-Serif" font-size="10.00">atomic.h</text>
</a>
</g>
<!-- Node8&#45;&gt;Node9 -->
<g id="edge22" class="edge"><title>Node8&#45;&gt;Node9</title>
<path fill="none" stroke="midnightblue" d="M701.538,-580.028C709.863,-566.23 724.867,-541.936 739,-522 792.271,-446.855 867,-451.112 867,-359 867,-359 867,-359 867,-243 867,-207.804 851.349,-169.322 840.405,-146.716"/>
<polygon fill="midnightblue" stroke="midnightblue" points="843.399,-144.879 835.781,-137.515 837.144,-148.022 843.399,-144.879"/>
</g>
<!-- Node8&#45;&gt;Node17 -->
<g id="edge44" class="edge"><title>Node8&#45;&gt;Node17</title>
<path fill="none" stroke="midnightblue" d="M670.371,-580.497C648.843,-571.315 617.36,-557.889 593.355,-547.652"/>
<polygon fill="midnightblue" stroke="midnightblue" points="594.476,-544.325 583.905,-543.621 591.73,-550.764 594.476,-544.325"/>
</g>
<!-- Node9&#45;&gt;Node4 -->
<g id="edge24" class="edge"><title>Node9&#45;&gt;Node4</title>
<path fill="none" stroke="midnightblue" d="M844.455,-116.484C861.859,-102.541 886.989,-77.4327 872,-58 855.592,-36.7275 784.237,-23.1912 736.724,-16.3613"/>
<polygon fill="midnightblue" stroke="midnightblue" points="737.068,-12.8755 726.682,-14.9657 736.105,-19.8089 737.068,-12.8755"/>
</g>
<!-- Node10 -->
<g id="node23" class="node"><title>Node10</title>
<a xlink:href="commondefs_8h.html" target="_top" xlink:title="commondefs.h">
<polygon fill="white" stroke="black" points="186.5,-58.5 186.5,-79.5 267.5,-79.5 267.5,-58.5 186.5,-58.5"/>
<text text-anchor="middle" x="227" y="-66.5" font-family="Helvetica,sans-Serif" font-size="10.00">commondefs.h</text>
</a>
</g>
<!-- Node9&#45;&gt;Node10 -->
<g id="edge26" class="edge"><title>Node9&#45;&gt;Node10</title>
<path fill="none" stroke="midnightblue" d="M802.833,-124.862C726.012,-118.744 500.679,-100.297 314,-80 302.294,-78.7272 289.72,-77.2194 277.871,-75.7349"/>
<polygon fill="midnightblue" stroke="midnightblue" points="278.046,-72.2291 267.685,-74.4427 277.165,-79.1734 278.046,-72.2291"/>
</g>
<!-- Node14 -->
<g id="node32" class="node"><title>Node14</title>
<a xlink:href="plftypes_8h.html" target="_top" xlink:title="plftypes.h">
<polygon fill="white" stroke="black" points="72.5,-58.5 72.5,-79.5 131.5,-79.5 131.5,-58.5 72.5,-58.5"/>
<text text-anchor="middle" x="102" y="-66.5" font-family="Helvetica,sans-Serif" font-size="10.00">plftypes.h</text>
</a>
</g>
<!-- Node9&#45;&gt;Node14 -->
<g id="edge36" class="edge"><title>Node9&#45;&gt;Node14</title>
<path fill="none" stroke="midnightblue" d="M802.921,-125.746C713.525,-121.457 419.736,-106.173 178,-80 166.108,-78.7125 153.217,-76.9763 141.488,-75.2642"/>
<polygon fill="midnightblue" stroke="midnightblue" points="141.941,-71.7931 131.533,-73.7776 140.907,-78.7163 141.941,-71.7931"/>
</g>
<!-- Node16 -->
<g id="node37" class="node"><title>Node16</title>
<polygon fill="white" stroke="#bfbfbf" points="796.5,-58.5 796.5,-79.5 863.5,-79.5 863.5,-58.5 796.5,-58.5"/>
<text text-anchor="middle" x="830" y="-66.5" font-family="Helvetica,sans-Serif" font-size="10.00">odversion.h</text>
</g>
<!-- Node9&#45;&gt;Node16 -->
<g id="edge42" class="edge"><title>Node9&#45;&gt;Node16</title>
<path fill="none" stroke="midnightblue" d="M830,-116.362C830,-108.922 830,-98.7427 830,-89.7276"/>
<polygon fill="midnightblue" stroke="midnightblue" points="833.5,-89.5706 830,-79.5707 826.5,-89.5707 833.5,-89.5706"/>
</g>
<!-- Node10&#45;&gt;Node4 -->
<g id="edge28" class="edge"><title>Node10&#45;&gt;Node4</title>
<path fill="none" stroke="midnightblue" d="M267.717,-63.8315C282.314,-61.984 298.894,-59.8917 314,-58 435.242,-42.8177 578.333,-25.1375 648.985,-16.4238"/>
<polygon fill="midnightblue" stroke="midnightblue" points="649.783,-19.8519 659.28,-15.1542 648.927,-12.9045 649.783,-19.8519"/>
</g>
<!-- Node11 -->
<g id="node26" class="node"><title>Node11</title>
<a xlink:href="plfdefs_8h.html" target="_top" xlink:title="plfdefs.h">
<polygon fill="white" stroke="black" points="139,-0.5 139,-21.5 193,-21.5 193,-0.5 139,-0.5"/>
<text text-anchor="middle" x="166" y="-8.5" font-family="Helvetica,sans-Serif" font-size="10.00">plfdefs.h</text>
</a>
</g>
<!-- Node10&#45;&gt;Node11 -->
<g id="edge30" class="edge"><title>Node10&#45;&gt;Node11</title>
<path fill="none" stroke="midnightblue" d="M215.812,-58.3619C207.041,-50.0226 194.651,-38.2418 184.422,-28.5162"/>
<polygon fill="midnightblue" stroke="midnightblue" points="186.776,-25.9248 177.117,-21.5707 181.953,-30.9978 186.776,-25.9248"/>
</g>
<!-- Node12 -->
<g id="node28" class="node"><title>Node12</title>
<polygon fill="white" stroke="#bfbfbf" points="263.5,-0.5 263.5,-21.5 322.5,-21.5 322.5,-0.5 263.5,-0.5"/>
<text text-anchor="middle" x="293" y="-8.5" font-family="Helvetica,sans-Serif" font-size="10.00">stdexcept</text>
</g>
<!-- Node10&#45;&gt;Node12 -->
<g id="edge32" class="edge"><title>Node10&#45;&gt;Node12</title>
<path fill="none" stroke="midnightblue" d="M239.105,-58.3619C248.688,-49.9408 262.264,-38.0105 273.393,-28.2308"/>
<polygon fill="midnightblue" stroke="midnightblue" points="275.77,-30.8009 280.971,-21.5707 271.149,-25.5427 275.77,-30.8009"/>
</g>
<!-- Node13 -->
<g id="node30" class="node"><title>Node13</title>
<polygon fill="white" stroke="#bfbfbf" points="210.5,-0.5 210.5,-21.5 245.5,-21.5 245.5,-0.5 210.5,-0.5"/>
<text text-anchor="middle" x="228" y="-8.5" font-family="Helvetica,sans-Serif" font-size="10.00">new</text>
</g>
<!-- Node10&#45;&gt;Node13 -->
<g id="edge34" class="edge"><title>Node10&#45;&gt;Node13</title>
<path fill="none" stroke="midnightblue" d="M227.183,-58.3619C227.312,-50.9219 227.487,-40.7427 227.643,-31.7276"/>
<polygon fill="midnightblue" stroke="midnightblue" points="231.145,-31.6295 227.818,-21.5707 224.146,-31.5088 231.145,-31.6295"/>
</g>
<!-- Node14&#45;&gt;Node11 -->
<g id="edge38" class="edge"><title>Node14&#45;&gt;Node11</title>
<path fill="none" stroke="midnightblue" d="M113.739,-58.3619C122.941,-50.0226 135.94,-38.2418 146.672,-28.5162"/>
<polygon fill="midnightblue" stroke="midnightblue" points="149.276,-30.8793 154.336,-21.5707 144.576,-25.6924 149.276,-30.8793"/>
</g>
<!-- Node15 -->
<g id="node35" class="node"><title>Node15</title>
<polygon fill="white" stroke="#bfbfbf" points="72.5,-0.5 72.5,-21.5 121.5,-21.5 121.5,-0.5 72.5,-0.5"/>
<text text-anchor="middle" x="97" y="-8.5" font-family="Helvetica,sans-Serif" font-size="10.00">stdint.h</text>
</g>
<!-- Node14&#45;&gt;Node15 -->
<g id="edge40" class="edge"><title>Node14&#45;&gt;Node15</title>
<path fill="none" stroke="midnightblue" d="M101.083,-58.3619C100.442,-50.9219 99.564,-40.7427 98.7869,-31.7276"/>
<polygon fill="midnightblue" stroke="midnightblue" points="102.257,-31.2331 97.9113,-21.5707 95.2832,-31.8343 102.257,-31.2331"/>
</g>
<!-- Node18 -->
<g id="node41" class="node"><title>Node18</title>
<a xlink:href="odset_8h.html" target="_top" xlink:title="odset.h">
<polygon fill="white" stroke="black" points="452.5,-464.5 452.5,-485.5 501.5,-485.5 501.5,-464.5 452.5,-464.5"/>
<text text-anchor="middle" x="477" y="-472.5" font-family="Helvetica,sans-Serif" font-size="10.00">odset.h</text>
</a>
</g>
<!-- Node17&#45;&gt;Node18 -->
<g id="edge46" class="edge"><title>Node17&#45;&gt;Node18</title>
<path fill="none" stroke="midnightblue" d="M543.96,-522.362C531.707,-513.696 514.201,-501.313 500.161,-491.382"/>
<polygon fill="midnightblue" stroke="midnightblue" points="502.13,-488.488 491.945,-485.571 498.088,-494.203 502.13,-488.488"/>
</g>
<!-- Node24 -->
<g id="node58" class="node"><title>Node24</title>
<a xlink:href="vectoraccess_8h.html" target="_top" xlink:title="vectoraccess.h">
<polygon fill="white" stroke="black" points="518.5,-464.5 518.5,-485.5 601.5,-485.5 601.5,-464.5 518.5,-464.5"/>
<text text-anchor="middle" x="560" y="-472.5" font-family="Helvetica,sans-Serif" font-size="10.00">vectoraccess.h</text>
</a>
</g>
<!-- Node17&#45;&gt;Node24 -->
<g id="edge68" class="edge"><title>Node17&#45;&gt;Node24</title>
<path fill="none" stroke="midnightblue" d="M559.183,-522.362C559.312,-514.922 559.487,-504.743 559.643,-495.728"/>
<polygon fill="midnightblue" stroke="midnightblue" points="563.145,-495.63 559.818,-485.571 556.146,-495.509 563.145,-495.63"/>
</g>
<!-- Node19 -->
<g id="node43" class="node"><title>Node19</title>
<a xlink:href="gendefs_8h.html" target="_top" xlink:title="gendefs.h">
<polygon fill="white" stroke="black" points="283.5,-174.5 283.5,-195.5 342.5,-195.5 342.5,-174.5 283.5,-174.5"/>
<text text-anchor="middle" x="313" y="-182.5" font-family="Helvetica,sans-Serif" font-size="10.00">gendefs.h</text>
</a>
</g>
<!-- Node18&#45;&gt;Node19 -->
<g id="edge48" class="edge"><title>Node18&#45;&gt;Node19</title>
<path fill="none" stroke="midnightblue" d="M452.307,-472.061C408.383,-466.273 319.534,-451.848 301,-428 249.059,-361.167 285.787,-250.069 304.195,-204.957"/>
<polygon fill="midnightblue" stroke="midnightblue" points="307.451,-206.242 308.112,-195.668 301.001,-203.522 307.451,-206.242"/>
</g>
<!-- Node20 -->
<g id="node45" class="node"><title>Node20</title>
<a xlink:href="undefval_8h.html" target="_top" xlink:title="undefval.h">
<polygon fill="white" stroke="black" points="113,-116.5 113,-137.5 175,-137.5 175,-116.5 113,-116.5"/>
<text text-anchor="middle" x="144" y="-124.5" font-family="Helvetica,sans-Serif" font-size="10.00">undefval.h</text>
</a>
</g>
<!-- Node19&#45;&gt;Node20 -->
<g id="edge50" class="edge"><title>Node19&#45;&gt;Node20</title>
<path fill="none" stroke="midnightblue" d="M283.175,-174.764C255.643,-165.315 214.538,-151.208 184.133,-140.773"/>
<polygon fill="midnightblue" stroke="midnightblue" points="185.262,-137.461 174.667,-137.525 182.99,-144.082 185.262,-137.461"/>
</g>
<!-- Node21 -->
<g id="node50" class="node"><title>Node21</title>
<a xlink:href="commontypes_8h.html" target="_top" xlink:title="commontypes.h">
<polygon fill="white" stroke="black" points="239,-116.5 239,-137.5 325,-137.5 325,-116.5 239,-116.5"/>
<text text-anchor="middle" x="282" y="-124.5" font-family="Helvetica,sans-Serif" font-size="10.00">commontypes.h</text>
</a>
</g>
<!-- Node19&#45;&gt;Node21 -->
<g id="edge58" class="edge"><title>Node19&#45;&gt;Node21</title>
<path fill="none" stroke="midnightblue" d="M307.314,-174.362C303.163,-166.595 297.416,-155.843 292.447,-146.546"/>
<polygon fill="midnightblue" stroke="midnightblue" points="295.45,-144.74 287.65,-137.571 289.277,-148.04 295.45,-144.74"/>
</g>
<!-- Node22 -->
<g id="node53" class="node"><title>Node22</title>
<a xlink:href="errmsg_8h.html" target="_top" xlink:title="errmsg.h">
<polygon fill="white" stroke="black" points="458.5,-116.5 458.5,-137.5 513.5,-137.5 513.5,-116.5 458.5,-116.5"/>
<text text-anchor="middle" x="486" y="-124.5" font-family="Helvetica,sans-Serif" font-size="10.00">errmsg.h</text>
</a>
</g>
<!-- Node19&#45;&gt;Node22 -->
<g id="edge62" class="edge"><title>Node19&#45;&gt;Node22</title>
<path fill="none" stroke="midnightblue" d="M342.74,-175.029C372.03,-165.21 416.866,-150.178 448.566,-139.55"/>
<polygon fill="midnightblue" stroke="midnightblue" points="449.992,-142.764 458.36,-136.266 447.767,-136.127 449.992,-142.764"/>
</g>
<!-- Node20&#45;&gt;Node4 -->
<g id="edge52" class="edge"><title>Node20&#45;&gt;Node4</title>
<path fill="none" stroke="midnightblue" d="M145.859,-116.487C149.234,-100.832 157.967,-71.7636 178,-58 216.43,-31.5967 531.592,-17.0962 649.075,-12.5666"/>
<polygon fill="midnightblue" stroke="midnightblue" points="649.299,-16.0608 659.159,-12.1837 649.034,-9.0658 649.299,-16.0608"/>
</g>
<!-- Node20&#45;&gt;Node10 -->
<g id="edge54" class="edge"><title>Node20&#45;&gt;Node10</title>
<path fill="none" stroke="midnightblue" d="M159.223,-116.362C171.625,-107.696 189.346,-95.3126 203.557,-85.3819"/>
<polygon fill="midnightblue" stroke="midnightblue" points="205.681,-88.1676 211.873,-79.5707 201.671,-82.4297 205.681,-88.1676"/>
</g>
<!-- Node20&#45;&gt;Node14 -->
<g id="edge56" class="edge"><title>Node20&#45;&gt;Node14</title>
<path fill="none" stroke="midnightblue" d="M136.297,-116.362C130.554,-108.431 122.557,-97.3885 115.73,-87.9606"/>
<polygon fill="midnightblue" stroke="midnightblue" points="118.355,-85.6173 109.655,-79.5707 112.685,-89.7229 118.355,-85.6173"/>
</g>
<!-- Node21&#45;&gt;Node10 -->
<g id="edge60" class="edge"><title>Node21&#45;&gt;Node10</title>
<path fill="none" stroke="midnightblue" d="M271.912,-116.362C264.159,-108.186 253.27,-96.7025 244.155,-87.0907"/>
<polygon fill="midnightblue" stroke="midnightblue" points="246.445,-84.4186 237.024,-79.5707 241.365,-89.2352 246.445,-84.4186"/>
</g>
<!-- Node22&#45;&gt;Node10 -->
<g id="edge64" class="edge"><title>Node22&#45;&gt;Node10</title>
<path fill="none" stroke="midnightblue" d="M458.161,-118.227C455.413,-117.441 452.658,-116.685 450,-116 391.226,-100.859 322.819,-86.9875 277.426,-78.3009"/>
<polygon fill="midnightblue" stroke="midnightblue" points="278.014,-74.85 267.536,-76.4206 276.706,-81.7268 278.014,-74.85"/>
</g>
<!-- Node23 -->
<g id="node56" class="node"><title>Node23</title>
<polygon fill="white" stroke="#bfbfbf" points="500.5,-58.5 500.5,-79.5 551.5,-79.5 551.5,-58.5 500.5,-58.5"/>
<text text-anchor="middle" x="526" y="-66.5" font-family="Helvetica,sans-Serif" font-size="10.00">typeinfo</text>
</g>
<!-- Node22&#45;&gt;Node23 -->
<g id="edge66" class="edge"><title>Node22&#45;&gt;Node23</title>
<path fill="none" stroke="midnightblue" d="M493.337,-116.362C498.806,-108.431 506.422,-97.3885 512.924,-87.9606"/>
<polygon fill="midnightblue" stroke="midnightblue" points="515.914,-89.7899 518.71,-79.5707 510.151,-85.8157 515.914,-89.7899"/>
</g>
<!-- Node24&#45;&gt;Node12 -->
<g id="edge108" class="edge"><title>Node24&#45;&gt;Node12</title>
<path fill="none" stroke="midnightblue" d="M532.082,-464.481C515.26,-456.788 494.703,-444.756 482,-428 427.413,-355.996 467.803,-313.117 428,-232 390.801,-156.19 352.204,-155.308 314,-80 306.222,-64.6681 300.747,-45.9349 297.341,-31.8587"/>
<polygon fill="midnightblue" stroke="midnightblue" points="300.669,-30.7042 295.05,-21.7223 293.841,-32.248 300.669,-30.7042"/>
</g>
<!-- Node24&#45;&gt;Node19 -->
<g id="edge102" class="edge"><title>Node24&#45;&gt;Node19</title>
<path fill="none" stroke="midnightblue" d="M527.365,-464.387C470.602,-445.229 357.49,-403.727 334,-370 299.009,-319.76 304.3,-242.592 309.42,-205.844"/>
<polygon fill="midnightblue" stroke="midnightblue" points="312.903,-206.227 310.959,-195.812 305.984,-205.165 312.903,-206.227"/>
</g>
<!-- Node25 -->
<g id="node60" class="node"><title>Node25</title>
<a xlink:href="debug_8h.html" target="_top" xlink:title="debug.h">
<polygon fill="white" stroke="black" points="685.5,-406.5 685.5,-427.5 736.5,-427.5 736.5,-406.5 685.5,-406.5"/>
<text text-anchor="middle" x="711" y="-414.5" font-family="Helvetica,sans-Serif" font-size="10.00">debug.h</text>
</a>
</g>
<!-- Node24&#45;&gt;Node25 -->
<g id="edge70" class="edge"><title>Node24&#45;&gt;Node25</title>
<path fill="none" stroke="midnightblue" d="M587.345,-464.497C612.172,-454.96 648.923,-440.844 675.909,-430.479"/>
<polygon fill="midnightblue" stroke="midnightblue" points="677.289,-433.698 685.369,-426.845 674.779,-427.164 677.289,-433.698"/>
</g>
<!-- Node32 -->
<g id="node84" class="node"><title>Node32</title>
<polygon fill="white" stroke="#bfbfbf" points="553,-406.5 553,-427.5 609,-427.5 609,-406.5 553,-406.5"/>
<text text-anchor="middle" x="581" y="-414.5" font-family="Helvetica,sans-Serif" font-size="10.00">algorithm</text>
</g>
<!-- Node24&#45;&gt;Node32 -->
<g id="edge104" class="edge"><title>Node24&#45;&gt;Node32</title>
<path fill="none" stroke="midnightblue" d="M563.852,-464.362C566.605,-456.758 570.394,-446.294 573.71,-437.135"/>
<polygon fill="midnightblue" stroke="midnightblue" points="577.059,-438.165 577.173,-427.571 570.477,-435.782 577.059,-438.165"/>
</g>
<!-- Node33 -->
<g id="node86" class="node"><title>Node33</title>
<polygon fill="white" stroke="#bfbfbf" points="491,-406.5 491,-427.5 535,-427.5 535,-406.5 491,-406.5"/>
<text text-anchor="middle" x="513" y="-414.5" font-family="Helvetica,sans-Serif" font-size="10.00">vector</text>
</g>
<!-- Node24&#45;&gt;Node33 -->
<g id="edge106" class="edge"><title>Node24&#45;&gt;Node33</title>
<path fill="none" stroke="midnightblue" d="M551.379,-464.362C544.82,-456.268 535.634,-444.932 527.894,-435.38"/>
<polygon fill="midnightblue" stroke="midnightblue" points="530.581,-433.136 521.566,-427.571 525.142,-437.544 530.581,-433.136"/>
</g>
<!-- Node25&#45;&gt;Node4 -->
<g id="edge72" class="edge"><title>Node25&#45;&gt;Node4</title>
<path fill="none" stroke="midnightblue" d="M714.125,-406.232C719.75,-385.869 731,-340.237 731,-301 731,-301 731,-301 731,-127 731,-91.7411 714.949,-53.3154 703.711,-30.7323"/>
<polygon fill="midnightblue" stroke="midnightblue" points="706.802,-29.0901 699.105,-21.809 700.582,-32.3005 706.802,-29.0901"/>
</g>
<!-- Node25&#45;&gt;Node19 -->
<g id="edge74" class="edge"><title>Node25&#45;&gt;Node19</title>
<path fill="none" stroke="midnightblue" d="M692.865,-406.429C629.281,-369.365 416.218,-245.167 340.219,-200.866"/>
<polygon fill="midnightblue" stroke="midnightblue" points="341.644,-197.646 331.242,-195.634 338.119,-203.693 341.644,-197.646"/>
</g>
<!-- Node25&#45;&gt;Node26 -->
<g id="edge76" class="edge"><title>Node25&#45;&gt;Node26</title>
<path fill="none" stroke="midnightblue" d="M725.49,-406.362C737.183,-397.777 753.843,-385.546 767.303,-375.664"/>
<polygon fill="midnightblue" stroke="midnightblue" points="769.613,-378.31 775.602,-369.571 765.47,-372.667 769.613,-378.31"/>
</g>
<!-- Node26&#45;&gt;Node4 -->
<g id="edge78" class="edge"><title>Node26&#45;&gt;Node4</title>
<path fill="none" stroke="midnightblue" d="M786.719,-348.243C780.812,-327.898 769,-282.295 769,-243 769,-243 769,-243 769,-127 769,-94.5312 762.937,-85.0643 745,-58 737.437,-46.5887 726.479,-36.1303 716.57,-27.991"/>
<polygon fill="midnightblue" stroke="midnightblue" points="718.619,-25.1497 708.592,-21.7294 714.298,-30.6565 718.619,-25.1497"/>
</g>
<!-- Node27 -->
<g id="node67" class="node"><title>Node27</title>
<a xlink:href="fixedstring_8h.html" target="_top" xlink:title="fixedstring.h">
<polygon fill="white" stroke="black" points="620,-290.5 620,-311.5 690,-311.5 690,-290.5 620,-290.5"/>
<text text-anchor="middle" x="655" y="-298.5" font-family="Helvetica,sans-Serif" font-size="10.00">fixedstring.h</text>
</a>
</g>
<!-- Node26&#45;&gt;Node27 -->
<g id="edge80" class="edge"><title>Node26&#45;&gt;Node27</title>
<path fill="none" stroke="midnightblue" d="M765.553,-348.497C744.182,-339.315 712.931,-325.889 689.103,-315.652"/>
<polygon fill="midnightblue" stroke="midnightblue" points="690.291,-312.353 679.722,-311.621 687.528,-318.784 690.291,-312.353"/>
</g>
<!-- Node29 -->
<g id="node74" class="node"><title>Node29</title>
<a xlink:href="string2_8h.html" target="_top" xlink:title="string2.h">
<polygon fill="white" stroke="black" points="387,-116.5 387,-137.5 441,-137.5 441,-116.5 387,-116.5"/>
<text text-anchor="middle" x="414" y="-124.5" font-family="Helvetica,sans-Serif" font-size="10.00">string2.h</text>
</a>
</g>
<!-- Node26&#45;&gt;Node29 -->
<g id="edge90" class="edge"><title>Node26&#45;&gt;Node29</title>
<path fill="none" stroke="midnightblue" d="M758.657,-353.512C713.959,-345.231 634.687,-328.725 611,-312 550.379,-269.196 573.737,-221.834 517,-174 506.273,-164.956 475.478,-151.383 450.334,-141.144"/>
<polygon fill="midnightblue" stroke="midnightblue" points="451.611,-137.886 441.027,-137.4 448.998,-144.38 451.611,-137.886"/>
</g>
<!-- Node27&#45;&gt;Node4 -->
<g id="edge82" class="edge"><title>Node27&#45;&gt;Node4</title>
<path fill="none" stroke="midnightblue" d="M661.105,-290.191C671.847,-270.127 693,-225.477 693,-185 693,-185 693,-185 693,-127 693,-93.5978 693,-54.7853 693,-31.5939"/>
<polygon fill="midnightblue" stroke="midnightblue" points="696.5,-31.5561 693,-21.5561 689.5,-31.5561 696.5,-31.5561"/>
</g>
<!-- Node28 -->
<g id="node70" class="node"><title>Node28</title>
<a xlink:href="odstring_8h.html" target="_top" xlink:title="odstring.h">
<polygon fill="white" stroke="black" points="606.5,-232.5 606.5,-253.5 665.5,-253.5 665.5,-232.5 606.5,-232.5"/>
<text text-anchor="middle" x="636" y="-240.5" font-family="Helvetica,sans-Serif" font-size="10.00">odstring.h</text>
</a>
</g>
<!-- Node27&#45;&gt;Node28 -->
<g id="edge84" class="edge"><title>Node27&#45;&gt;Node28</title>
<path fill="none" stroke="midnightblue" d="M651.515,-290.362C649.024,-282.758 645.596,-272.294 642.596,-263.135"/>
<polygon fill="midnightblue" stroke="midnightblue" points="645.902,-261.984 639.463,-253.571 639.25,-264.163 645.902,-261.984"/>
</g>
<!-- Node28&#45;&gt;Node4 -->
<g id="edge86" class="edge"><title>Node28&#45;&gt;Node4</title>
<path fill="none" stroke="midnightblue" d="M638.29,-232.1C644.362,-203.441 661.607,-123.662 679,-58 681.304,-49.3017 684.092,-39.7749 686.571,-31.5861"/>
<polygon fill="midnightblue" stroke="midnightblue" points="689.995,-32.3612 689.586,-21.7742 683.303,-30.305 689.995,-32.3612"/>
</g>
<!-- Node28&#45;&gt;Node19 -->
<g id="edge88" class="edge"><title>Node28&#45;&gt;Node19</title>
<path fill="none" stroke="midnightblue" d="M606.48,-237.699C548.236,-227.241 418.491,-203.943 352.778,-192.143"/>
<polygon fill="midnightblue" stroke="midnightblue" points="353.264,-188.674 342.802,-190.352 352.026,-195.564 353.264,-188.674"/>
</g>
<!-- Node29&#45;&gt;Node4 -->
<g id="edge92" class="edge"><title>Node29&#45;&gt;Node4</title>
<path fill="none" stroke="midnightblue" d="M422.898,-116.317C436.272,-100.984 463.089,-72.9406 492,-58 542.295,-32.009 607.057,-20.1979 649.28,-14.9636"/>
<polygon fill="midnightblue" stroke="midnightblue" points="649.717,-18.4364 659.243,-13.7988 648.904,-11.4838 649.717,-18.4364"/>
</g>
<!-- Node29&#45;&gt;Node10 -->
<g id="edge96" class="edge"><title>Node29&#45;&gt;Node10</title>
<path fill="none" stroke="midnightblue" d="M386.809,-118.566C356.346,-109.118 306.536,-93.669 270.616,-82.5279"/>
<polygon fill="midnightblue" stroke="midnightblue" points="271.468,-79.1279 260.88,-79.5084 269.395,-85.8137 271.468,-79.1279"/>
</g>
<!-- Node29&#45;&gt;Node14 -->
<g id="edge94" class="edge"><title>Node29&#45;&gt;Node14</title>
<path fill="none" stroke="midnightblue" d="M386.858,-121.954C331.665,-111.694 206.137,-88.3587 141.734,-76.3864"/>
<polygon fill="midnightblue" stroke="midnightblue" points="142.04,-72.8834 131.569,-74.4967 140.76,-79.7655 142.04,-72.8834"/>
</g>
<!-- Node30 -->
<g id="node79" class="node"><title>Node30</title>
<polygon fill="white" stroke="#bfbfbf" points="322.5,-58.5 322.5,-79.5 371.5,-79.5 371.5,-58.5 322.5,-58.5"/>
<text text-anchor="middle" x="347" y="-66.5" font-family="Helvetica,sans-Serif" font-size="10.00">ctype.h</text>
</g>
<!-- Node29&#45;&gt;Node30 -->
<g id="edge98" class="edge"><title>Node29&#45;&gt;Node30</title>
<path fill="none" stroke="midnightblue" d="M401.711,-116.362C391.983,-107.941 378.202,-96.0105 366.905,-86.2308"/>
<polygon fill="midnightblue" stroke="midnightblue" points="369.062,-83.4695 359.211,-79.5707 364.481,-88.7619 369.062,-83.4695"/>
</g>
<!-- Node31 -->
<g id="node81" class="node"><title>Node31</title>
<polygon fill="white" stroke="#bfbfbf" points="389,-58.5 389,-79.5 445,-79.5 445,-58.5 389,-58.5"/>
<text text-anchor="middle" x="417" y="-66.5" font-family="Helvetica,sans-Serif" font-size="10.00">wctype.h</text>
</g>
<!-- Node29&#45;&gt;Node31 -->
<g id="edge100" class="edge"><title>Node29&#45;&gt;Node31</title>
<path fill="none" stroke="midnightblue" d="M414.55,-116.362C414.935,-108.922 415.462,-98.7427 415.928,-89.7276"/>
<polygon fill="midnightblue" stroke="midnightblue" points="419.432,-89.7381 416.453,-79.5707 412.441,-89.3765 419.432,-89.7381"/>
</g>
<!-- Node34&#45;&gt;Node17 -->
<g id="edge118" class="edge"><title>Node34&#45;&gt;Node17</title>
<path fill="none" stroke="midnightblue" d="M518.171,-580.362C525.148,-572.268 534.921,-560.932 543.156,-551.38"/>
<polygon fill="midnightblue" stroke="midnightblue" points="546.009,-553.43 549.887,-543.571 540.707,-548.859 546.009,-553.43"/>
</g>
<!-- Node35 -->
<g id="node91" class="node"><title>Node35</title>
<a xlink:href="typeset_8h.html" target="_top" xlink:title="typeset.h">
<polygon fill="white" stroke="black" points="452.5,-522.5 452.5,-543.5 509.5,-543.5 509.5,-522.5 452.5,-522.5"/>
<text text-anchor="middle" x="481" y="-530.5" font-family="Helvetica,sans-Serif" font-size="10.00">typeset.h</text>
</a>
</g>
<!-- Node34&#45;&gt;Node35 -->
<g id="edge112" class="edge"><title>Node34&#45;&gt;Node35</title>
<path fill="none" stroke="midnightblue" d="M503.864,-580.362C500.154,-572.677 495.033,-562.069 490.578,-552.84"/>
<polygon fill="midnightblue" stroke="midnightblue" points="493.603,-551.055 486.103,-543.571 487.299,-554.098 493.603,-551.055"/>
</g>
<!-- Node35&#45;&gt;Node18 -->
<g id="edge114" class="edge"><title>Node35&#45;&gt;Node18</title>
<path fill="none" stroke="midnightblue" d="M480.266,-522.362C479.753,-514.922 479.051,-504.743 478.429,-495.728"/>
<polygon fill="midnightblue" stroke="midnightblue" points="481.909,-495.306 477.729,-485.571 474.925,-495.788 481.909,-495.306"/>
</g>
<!-- Node35&#45;&gt;Node24 -->
<g id="edge116" class="edge"><title>Node35&#45;&gt;Node24</title>
<path fill="none" stroke="midnightblue" d="M495.49,-522.362C507.183,-513.777 523.843,-501.546 537.303,-491.664"/>
<polygon fill="midnightblue" stroke="midnightblue" points="539.613,-494.31 545.602,-485.571 535.47,-488.667 539.613,-494.31"/>
</g>
<!-- Node36&#45;&gt;Node4 -->
<g id="edge122" class="edge"><title>Node36&#45;&gt;Node4</title>
<path fill="none" stroke="midnightblue" d="M194.082,-522.35C215.957,-493.647 278.418,-412.496 334,-348 362.691,-314.707 568.068,-84.6717 603,-58 619.786,-45.1832 640.573,-34.0685 657.94,-25.8701"/>
<polygon fill="midnightblue" stroke="midnightblue" points="659.562,-28.9768 667.189,-21.6231 656.641,-22.6154 659.562,-28.9768"/>
</g>
<!-- Node36&#45;&gt;Node10 -->
<g id="edge124" class="edge"><title>Node36&#45;&gt;Node10</title>
<path fill="none" stroke="midnightblue" d="M182.406,-522.266C175.938,-501.96 163,-456.419 163,-417 163,-417 163,-417 163,-301 163,-219.899 199.793,-128.407 217.585,-88.9059"/>
<polygon fill="midnightblue" stroke="midnightblue" points="220.768,-90.3614 221.763,-79.8133 214.407,-87.4389 220.768,-90.3614"/>
</g>
<!-- Node36&#45;&gt;Node14 -->
<g id="edge126" class="edge"><title>Node36&#45;&gt;Node14</title>
<path fill="none" stroke="midnightblue" d="M166.526,-522.294C137.177,-504.563 85,-466.133 85,-417 85,-417 85,-417 85,-185 85,-151.416 92.0621,-112.935 97.0829,-89.8211"/>
<polygon fill="midnightblue" stroke="midnightblue" points="100.558,-90.3226 99.3438,-79.7976 93.7292,-88.7824 100.558,-90.3226"/>
</g>
<!-- Node37&#45;&gt;Node19 -->
<g id="edge136" class="edge"><title>Node37&#45;&gt;Node19</title>
<path fill="none" stroke="midnightblue" d="M389.426,-580.424C367.537,-555.674 313.53,-491.277 285,-428 274.1,-403.825 274.133,-396.332 271,-370 263.722,-308.827 261.239,-289.246 284,-232 287.861,-222.29 293.69,-212.329 299.112,-204.091"/>
<polygon fill="midnightblue" stroke="midnightblue" points="302.151,-205.85 304.934,-195.627 296.383,-201.883 302.151,-205.85"/>
</g>
<!-- Node37&#45;&gt;Node29 -->
<g id="edge146" class="edge"><title>Node37&#45;&gt;Node29</title>
<path fill="none" stroke="midnightblue" d="M401.009,-580.219C402.682,-570.722 404.954,-556.496 406,-544 418.683,-392.494 415.943,-208.996 414.547,-147.904"/>
<polygon fill="midnightblue" stroke="midnightblue" points="418.04,-147.571 414.299,-137.658 411.042,-147.74 418.04,-147.571"/>
</g>
<!-- Node37&#45;&gt;Node35 -->
<g id="edge148" class="edge"><title>Node37&#45;&gt;Node35</title>
<path fill="none" stroke="midnightblue" d="M414.04,-580.362C426.293,-571.696 443.799,-559.313 457.839,-549.382"/>
<polygon fill="midnightblue" stroke="midnightblue" points="459.912,-552.203 466.055,-543.571 455.87,-546.488 459.912,-552.203"/>
</g>
<!-- Node37&#45;&gt;Node36 -->
<g id="edge144" class="edge"><title>Node37&#45;&gt;Node36</title>
<path fill="none" stroke="midnightblue" d="M370.715,-583.298C334.99,-573.57 273.096,-556.716 230.885,-545.222"/>
<polygon fill="midnightblue" stroke="midnightblue" points="231.705,-541.818 221.136,-542.568 229.865,-548.572 231.705,-541.818"/>
</g>
<!-- Node38 -->
<g id="node107" class="node"><title>Node38</title>
<a xlink:href="keystrs_8h.html" target="_top" xlink:title="keystrs.h">
<polygon fill="white" stroke="black" points="342.5,-348.5 342.5,-369.5 399.5,-369.5 399.5,-348.5 342.5,-348.5"/>
<text text-anchor="middle" x="371" y="-356.5" font-family="Helvetica,sans-Serif" font-size="10.00">keystrs.h</text>
</a>
</g>
<!-- Node37&#45;&gt;Node38 -->
<g id="edge138" class="edge"><title>Node37&#45;&gt;Node38</title>
<path fill="none" stroke="midnightblue" d="M397.724,-580.429C393.406,-544.648 379.287,-427.663 373.504,-379.748"/>
<polygon fill="midnightblue" stroke="midnightblue" points="376.956,-379.142 372.283,-369.634 370.007,-379.981 376.956,-379.142"/>
</g>
<!-- Node38&#45;&gt;Node19 -->
<g id="edge140" class="edge"><title>Node38&#45;&gt;Node19</title>
<path fill="none" stroke="midnightblue" d="M367.459,-348.377C358.057,-320.172 332.337,-243.012 319.907,-205.72"/>
<polygon fill="midnightblue" stroke="midnightblue" points="323.125,-204.308 316.643,-195.928 316.485,-206.521 323.125,-204.308"/>
</g>
<!-- Node38&#45;&gt;Node27 -->
<g id="edge142" class="edge"><title>Node38&#45;&gt;Node27</title>
<path fill="none" stroke="midnightblue" d="M399.531,-353.173C448.996,-343.071 551.026,-322.234 610.081,-310.174"/>
<polygon fill="midnightblue" stroke="midnightblue" points="610.783,-313.603 619.88,-308.172 609.382,-306.744 610.783,-313.603"/>
</g>
<!-- Node39&#45;&gt;Node4 -->
<g id="edge154" class="edge"><title>Node39&#45;&gt;Node4</title>
<path fill="none" stroke="midnightblue" d="M857.819,-758.198C914.209,-746.67 1005,-717.475 1005,-649 1005,-649 1005,-649 1005,-127 1005,-85.7719 978.935,-78.2095 943,-58 908.34,-38.5077 798.734,-23.1816 736.774,-15.8059"/>
<polygon fill="midnightblue" stroke="midnightblue" points="736.862,-12.2924 726.523,-14.6064 736.048,-19.2449 736.862,-12.2924"/>
</g>
<!-- Node39&#45;&gt;Node37 -->
<g id="edge156" class="edge"><title>Node39&#45;&gt;Node37</title>
<path fill="none" stroke="midnightblue" d="M770.243,-754.5C737.457,-746.089 691.763,-733.206 653,-718 567.516,-684.466 471.971,-632.503 426.253,-606.677"/>
<polygon fill="midnightblue" stroke="midnightblue" points="427.7,-603.473 417.275,-601.579 424.243,-609.561 427.7,-603.473"/>
</g>
<!-- Node40 -->
<g id="node119" class="node"><title>Node40</title>
<a xlink:href="progressmeterimpl_8h.html" target="_top" xlink:title="progressmeterimpl.h">
<polygon fill="white" stroke="black" points="761.5,-696.5 761.5,-717.5 866.5,-717.5 866.5,-696.5 761.5,-696.5"/>
<text text-anchor="middle" x="814" y="-704.5" font-family="Helvetica,sans-Serif" font-size="10.00">progressmeterimpl.h</text>
</a>
</g>
<!-- Node39&#45;&gt;Node40 -->
<g id="edge158" class="edge"><title>Node39&#45;&gt;Node40</title>
<path fill="none" stroke="midnightblue" d="M808.636,-754.362C807.319,-746.922 806.941,-736.743 807.5,-727.728"/>
<polygon fill="midnightblue" stroke="midnightblue" points="811.003,-727.9 808.648,-717.571 804.047,-727.114 811.003,-727.9"/>
</g>
<!-- Node40&#45;&gt;Node4 -->
<g id="edge160" class="edge"><title>Node40&#45;&gt;Node4</title>
<path fill="none" stroke="midnightblue" d="M852.214,-696.38C897.531,-681.179 967,-648.501 967,-591 967,-591 967,-591 967,-127 967,-88.3308 946.708,-78.6281 914,-58 884.952,-39.6798 792.248,-24.4327 736.558,-16.6257"/>
<polygon fill="midnightblue" stroke="midnightblue" points="736.998,-13.1533 726.614,-15.2555 736.042,-20.0878 736.998,-13.1533"/>
</g>
<!-- Node40&#45;&gt;Node7 -->
<g id="edge168" class="edge"><title>Node40&#45;&gt;Node7</title>
<path fill="none" stroke="midnightblue" d="M792.45,-696.497C773.864,-687.438 746.798,-674.246 725.905,-664.063"/>
<polygon fill="midnightblue" stroke="midnightblue" points="727.314,-660.856 716.792,-659.621 724.247,-667.149 727.314,-660.856"/>
</g>
<!-- Node40&#45;&gt;Node26 -->
<g id="edge164" class="edge"><title>Node40&#45;&gt;Node26</title>
<path fill="none" stroke="midnightblue" d="M816.344,-696.185C820.562,-675.744 829,-629.989 829,-591 829,-591 829,-591 829,-475 829,-439.65 812.527,-401.252 800.993,-378.699"/>
<polygon fill="midnightblue" stroke="midnightblue" points="804.044,-376.983 796.266,-369.789 797.86,-380.263 804.044,-376.983"/>
</g>
<!-- Node40&#45;&gt;Node36 -->
<g id="edge166" class="edge"><title>Node40&#45;&gt;Node36</title>
<path fill="none" stroke="midnightblue" d="M761.211,-698.874C646.726,-680.843 379.076,-636.364 294,-602 261.507,-588.875 228.116,-565.783 207.231,-549.955"/>
<polygon fill="midnightblue" stroke="midnightblue" points="209.14,-547.007 199.085,-543.667 204.863,-552.548 209.14,-547.007"/>
</g>
<!-- Node40&#45;&gt;Node39 -->
<g id="edge162" class="edge"><title>Node40&#45;&gt;Node39</title>
<path fill="none" stroke="midnightblue" d="M819.352,-717.571C820.674,-724.994 821.059,-735.168 820.505,-744.191"/>
<polygon fill="midnightblue" stroke="midnightblue" points="817,-744.034 819.364,-754.362 823.957,-744.814 817,-744.034"/>
</g>
<!-- Node40&#45;&gt;Node41 -->
<g id="edge170" class="edge"><title>Node40&#45;&gt;Node41</title>
<path fill="none" stroke="midnightblue" d="M859.816,-696.497C906.019,-685.905 976.866,-669.663 1022.57,-659.186"/>
<polygon fill="midnightblue" stroke="midnightblue" points="1023.52,-662.559 1032.49,-656.913 1021.96,-655.736 1023.52,-662.559"/>
</g>
</g>
</svg>
