<?xml version="1.0" encoding="UTF-8" standalone="no"?>
<!DOCTYPE svg PUBLIC "-//W3C//DTD SVG 1.1//EN"
 "http://www.w3.org/Graphics/SVG/1.1/DTD/svg11.dtd">
<!-- Generated by graphviz version 2.26.0 (20091210.2329)
 -->
<!-- Title: thread.h Pages: 1 -->
<svg width="3694pt" height="204pt"
 viewBox="0.00 0.00 3694.00 204.00" xmlns="http://www.w3.org/2000/svg" xmlns:xlink="http://www.w3.org/1999/xlink">
<g id="graph1" class="graph" transform="scale(1 1) rotate(0) translate(4 200)">
<title>thread.h</title>
<polygon fill="white" stroke="white" points="-4,5 -4,-200 3691,-200 3691,5 -4,5"/>
<!-- Node1 -->
<g id="node1" class="node"><title>Node1</title>
<polygon fill="#bfbfbf" stroke="black" points="1581,-174.5 1581,-195.5 1633,-195.5 1633,-174.5 1581,-174.5"/>
<text text-anchor="middle" x="1607" y="-182.5" font-family="Helvetica,sans-Serif" font-size="10.00">thread.h</text>
</g>
<!-- Node2 -->
<g id="node3" class="node"><title>Node2</title>
<a xlink:href="applicationdata_8h.html" target="_top" xlink:title="applicationdata.h">
<polygon fill="white" stroke="black" points="0,-116.5 0,-137.5 90,-137.5 90,-116.5 0,-116.5"/>
<text text-anchor="middle" x="45" y="-124.5" font-family="Helvetica,sans-Serif" font-size="10.00">applicationdata.h</text>
</a>
</g>
<!-- Node1&#45;&gt;Node2 -->
<g id="edge2" class="edge"><title>Node1&#45;&gt;Node2</title>
<path fill="none" stroke="midnightblue" d="M1570.57,-184.704C1369.87,-182.948 397.102,-172.753 99,-138 96.149,-137.668 93.2247,-137.262 90.2833,-136.805"/>
<polygon fill="midnightblue" stroke="midnightblue" points="1570.83,-188.207 1580.86,-184.793 1570.89,-181.207 1570.83,-188.207"/>
</g>
<!-- Node3 -->
<g id="node5" class="node"><title>Node3</title>
<a xlink:href="perthreadrepos_8h.html" target="_top" xlink:title="perthreadrepos.h">
<polygon fill="white" stroke="black" points="107.5,-116.5 107.5,-137.5 196.5,-137.5 196.5,-116.5 107.5,-116.5"/>
<text text-anchor="middle" x="152" y="-124.5" font-family="Helvetica,sans-Serif" font-size="10.00">perthreadrepos.h</text>
</a>
</g>
<!-- Node1&#45;&gt;Node3 -->
<g id="edge4" class="edge"><title>Node1&#45;&gt;Node3</title>
<path fill="none" stroke="midnightblue" d="M1570.86,-184.538C1379.72,-181.978 485.182,-168.54 210,-138 205.62,-137.514 201.075,-136.881 196.544,-136.164"/>
<polygon fill="midnightblue" stroke="midnightblue" points="1570.89,-188.038 1580.93,-184.671 1570.98,-181.039 1570.89,-188.038"/>
</g>
<!-- Node6 -->
<g id="node11" class="node"><title>Node6</title>
<a xlink:href="sorting_8h.html" target="_top" xlink:title="sorting.h">
<polygon fill="white" stroke="black" points="290,-116.5 290,-137.5 344,-137.5 344,-116.5 290,-116.5"/>
<text text-anchor="middle" x="317" y="-124.5" font-family="Helvetica,sans-Serif" font-size="10.00">sorting.h</text>
</a>
</g>
<!-- Node1&#45;&gt;Node6 -->
<g id="edge10" class="edge"><title>Node1&#45;&gt;Node6</title>
<path fill="none" stroke="midnightblue" d="M1570.57,-184.905C1390.7,-184.244 596.293,-179.013 353,-138 350.164,-137.522 347.24,-136.883 344.341,-136.153"/>
<polygon fill="midnightblue" stroke="midnightblue" points="1570.8,-188.406 1580.81,-184.94 1570.83,-181.406 1570.8,-188.406"/>
</g>
<!-- Node7 -->
<g id="node13" class="node"><title>Node7</title>
<a xlink:href="agc_8h.html" target="_top" xlink:title="agc.h">
<polygon fill="white" stroke="black" points="241.5,-58.5 241.5,-79.5 282.5,-79.5 282.5,-58.5 241.5,-58.5"/>
<text text-anchor="middle" x="262" y="-66.5" font-family="Helvetica,sans-Serif" font-size="10.00">agc.h</text>
</a>
</g>
<!-- Node1&#45;&gt;Node7 -->
<g id="edge18" class="edge"><title>Node1&#45;&gt;Node7</title>
<path fill="none" stroke="midnightblue" d="M1570.69,-184.916C1363,-184.284 332.989,-179.084 281,-138 263.355,-124.056 261.163,-95.3372 261.393,-79.7065"/>
<polygon fill="midnightblue" stroke="midnightblue" points="1570.76,-188.416 1580.77,-184.945 1570.78,-181.416 1570.76,-188.416"/>
</g>
<!-- Node10 -->
<g id="node20" class="node"><title>Node10</title>
<a xlink:href="bendpointfinder_8h.html" target="_top" xlink:title="bendpointfinder.h">
<polygon fill="white" stroke="black" points="361.5,-116.5 361.5,-137.5 452.5,-137.5 452.5,-116.5 361.5,-116.5"/>
<text text-anchor="middle" x="407" y="-124.5" font-family="Helvetica,sans-Serif" font-size="10.00">bendpointfinder.h</text>
</a>
</g>
<!-- Node1&#45;&gt;Node10 -->
<g id="edge20" class="edge"><title>Node1&#45;&gt;Node10</title>
<path fill="none" stroke="midnightblue" d="M1570.83,-184.296C1401.2,-180.878 683.548,-165.054 461,-138 458.246,-137.665 455.422,-137.265 452.581,-136.819"/>
<polygon fill="midnightblue" stroke="midnightblue" points="1570.9,-187.799 1580.97,-184.499 1571.04,-180.8 1570.9,-187.799"/>
</g>
<!-- Node12 -->
<g id="node24" class="node"><title>Node12</title>
<a xlink:href="array3dfloodfill_8h.html" target="_top" xlink:title="array3dfloodfill.h">
<polygon fill="white" stroke="black" points="470,-116.5 470,-137.5 558,-137.5 558,-116.5 470,-116.5"/>
<text text-anchor="middle" x="514" y="-124.5" font-family="Helvetica,sans-Serif" font-size="10.00">array3dfloodfill.h</text>
</a>
</g>
<!-- Node1&#45;&gt;Node12 -->
<g id="edge24" class="edge"><title>Node1&#45;&gt;Node12</title>
<path fill="none" stroke="midnightblue" d="M1570.38,-184.129C1409.82,-180.192 767.285,-163.147 567,-138 564.109,-137.637 561.142,-137.201 558.158,-136.714"/>
<polygon fill="midnightblue" stroke="midnightblue" points="1570.59,-187.636 1580.67,-184.38 1570.76,-180.638 1570.59,-187.636"/>
</g>
<!-- Node13 -->
<g id="node26" class="node"><title>Node13</title>
<a xlink:href="delaunay_8h.html" target="_top" xlink:title="delaunay.h">
<polygon fill="white" stroke="black" points="576,-116.5 576,-137.5 640,-137.5 640,-116.5 576,-116.5"/>
<text text-anchor="middle" x="608" y="-124.5" font-family="Helvetica,sans-Serif" font-size="10.00">delaunay.h</text>
</a>
</g>
<!-- Node1&#45;&gt;Node13 -->
<g id="edge26" class="edge"><title>Node1&#45;&gt;Node13</title>
<path fill="none" stroke="midnightblue" d="M1570.8,-184.256C1418.82,-180.974 831.743,-166.661 649,-138 646.088,-137.543 643.084,-136.961 640.09,-136.303"/>
<polygon fill="midnightblue" stroke="midnightblue" points="1570.91,-187.759 1580.98,-184.473 1571.06,-180.761 1570.91,-187.759"/>
</g>
<!-- Node14 -->
<g id="node28" class="node"><title>Node14</title>
<a xlink:href="sampledextremefindernd_8h.html" target="_top" xlink:title="sampledextremefindernd.h">
<polygon fill="white" stroke="black" points="657.5,-116.5 657.5,-137.5 788.5,-137.5 788.5,-116.5 657.5,-116.5"/>
<text text-anchor="middle" x="723" y="-124.5" font-family="Helvetica,sans-Serif" font-size="10.00">sampledextremefindernd.h</text>
</a>
</g>
<!-- Node1&#45;&gt;Node14 -->
<g id="edge28" class="edge"><title>Node1&#45;&gt;Node14</title>
<path fill="none" stroke="midnightblue" d="M1570.41,-184.045C1455.96,-180.808 1094.61,-168.692 797,-138 794.287,-137.72 791.521,-137.412 788.729,-137.083"/>
<polygon fill="midnightblue" stroke="midnightblue" points="1570.61,-187.552 1580.71,-184.331 1570.81,-180.555 1570.61,-187.552"/>
</g>
<!-- Node15 -->
<g id="node30" class="node"><title>Node15</title>
<a xlink:href="sincinterpolator_8h.html" target="_top" xlink:title="sincinterpolator.h">
<polygon fill="white" stroke="black" points="805.5,-116.5 805.5,-137.5 896.5,-137.5 896.5,-116.5 805.5,-116.5"/>
<text text-anchor="middle" x="851" y="-124.5" font-family="Helvetica,sans-Serif" font-size="10.00">sincinterpolator.h</text>
</a>
</g>
<!-- Node1&#45;&gt;Node15 -->
<g id="edge30" class="edge"><title>Node1&#45;&gt;Node15</title>
<path fill="none" stroke="midnightblue" d="M1570.44,-184.279C1466.09,-181.85 1158.12,-172.098 905,-138 902.25,-137.63 899.431,-137.202 896.592,-136.735"/>
<polygon fill="midnightblue" stroke="midnightblue" points="1570.66,-187.785 1580.74,-184.51 1570.82,-180.787 1570.66,-187.785"/>
</g>
<!-- Node16 -->
<g id="node32" class="node"><title>Node16</title>
<a xlink:href="netreqconnection_8h.html" target="_top" xlink:title="netreqconnection.h">
<polygon fill="white" stroke="black" points="913.5,-116.5 913.5,-137.5 1012.5,-137.5 1012.5,-116.5 913.5,-116.5"/>
<text text-anchor="middle" x="963" y="-124.5" font-family="Helvetica,sans-Serif" font-size="10.00">netreqconnection.h</text>
</a>
</g>
<!-- Node1&#45;&gt;Node16 -->
<g id="edge32" class="edge"><title>Node1&#45;&gt;Node16</title>
<path fill="none" stroke="midnightblue" d="M1570.72,-183.23C1479.12,-178.508 1231.19,-164.157 1026,-138 1021.7,-137.452 1017.26,-136.816 1012.8,-136.132"/>
<polygon fill="midnightblue" stroke="midnightblue" points="1570.69,-186.733 1580.85,-183.745 1571.04,-179.742 1570.69,-186.733"/>
</g>
<!-- Node17 -->
<g id="node34" class="node"><title>Node17</title>
<a xlink:href="indexedshape_8h.html" target="_top" xlink:title="indexedshape.h">
<polygon fill="white" stroke="black" points="1067.5,-116.5 1067.5,-137.5 1152.5,-137.5 1152.5,-116.5 1067.5,-116.5"/>
<text text-anchor="middle" x="1110" y="-124.5" font-family="Helvetica,sans-Serif" font-size="10.00">indexedshape.h</text>
</a>
</g>
<!-- Node1&#45;&gt;Node17 -->
<g id="edge34" class="edge"><title>Node1&#45;&gt;Node17</title>
<path fill="none" stroke="midnightblue" d="M1570.69,-182.503C1494.45,-176.968 1312.26,-162.211 1161,-138 1158.23,-137.556 1155.38,-137.059 1152.51,-136.527"/>
<polygon fill="midnightblue" stroke="midnightblue" points="1570.51,-185.999 1580.73,-183.223 1571.01,-179.016 1570.51,-185.999"/>
</g>
<!-- Node19 -->
<g id="node38" class="node"><title>Node19</title>
<a xlink:href="explicitmarchingcubes_8h.html" target="_top" xlink:title="explicitmarchingcubes.h">
<polygon fill="white" stroke="black" points="638,-58.5 638,-79.5 760,-79.5 760,-58.5 638,-58.5"/>
<text text-anchor="middle" x="699" y="-66.5" font-family="Helvetica,sans-Serif" font-size="10.00">explicitmarchingcubes.h</text>
</a>
</g>
<!-- Node1&#45;&gt;Node19 -->
<g id="edge46" class="edge"><title>Node1&#45;&gt;Node19</title>
<path fill="none" stroke="midnightblue" d="M1570.7,-183.948C1464.36,-180.542 1154.98,-168.234 1059,-138 1040.39,-132.136 1039.44,-122.385 1021,-116 914.091,-78.9807 880.885,-96.782 769,-80 766.08,-79.5621 763.093,-79.1095 760.076,-78.649"/>
<polygon fill="midnightblue" stroke="midnightblue" points="1570.82,-187.453 1580.92,-184.268 1571.04,-180.457 1570.82,-187.453"/>
</g>
<!-- Node23 -->
<g id="node47" class="node"><title>Node23</title>
<a xlink:href="emobjectposselector_8h.html" target="_top" xlink:title="emobjectposselector.h">
<polygon fill="white" stroke="black" points="1289.5,-116.5 1289.5,-137.5 1404.5,-137.5 1404.5,-116.5 1289.5,-116.5"/>
<text text-anchor="middle" x="1347" y="-124.5" font-family="Helvetica,sans-Serif" font-size="10.00">emobjectposselector.h</text>
</a>
</g>
<!-- Node1&#45;&gt;Node23 -->
<g id="edge48" class="edge"><title>Node1&#45;&gt;Node23</title>
<path fill="none" stroke="midnightblue" d="M1570.81,-176.926C1524.81,-166.666 1445.32,-148.932 1394.49,-137.594"/>
<polygon fill="midnightblue" stroke="midnightblue" points="1570.12,-180.358 1580.64,-179.119 1571.64,-173.526 1570.12,-180.358"/>
</g>
<!-- Node24 -->
<g id="node49" class="node"><title>Node24</title>
<a xlink:href="emobjectselremoval_8h.html" target="_top" xlink:title="emobjectselremoval.h">
<polygon fill="white" stroke="black" points="1422,-116.5 1422,-137.5 1534,-137.5 1534,-116.5 1422,-116.5"/>
<text text-anchor="middle" x="1478" y="-124.5" font-family="Helvetica,sans-Serif" font-size="10.00">emobjectselremoval.h</text>
</a>
</g>
<!-- Node1&#45;&gt;Node24 -->
<g id="edge50" class="edge"><title>Node1&#45;&gt;Node24</title>
<path fill="none" stroke="midnightblue" d="M1574.4,-170.343C1551.73,-160.15 1522.03,-146.798 1501.62,-137.621"/>
<polygon fill="midnightblue" stroke="midnightblue" points="1573.08,-173.588 1583.64,-174.497 1575.95,-167.204 1573.08,-173.588"/>
</g>
<!-- Node25 -->
<g id="node51" class="node"><title>Node25</title>
<a xlink:href="seisrandomprovider_8h.html" target="_top" xlink:title="seisrandomprovider.h">
<polygon fill="white" stroke="black" points="1552,-116.5 1552,-137.5 1662,-137.5 1662,-116.5 1552,-116.5"/>
<text text-anchor="middle" x="1607" y="-124.5" font-family="Helvetica,sans-Serif" font-size="10.00">seisrandomprovider.h</text>
</a>
</g>
<!-- Node1&#45;&gt;Node25 -->
<g id="edge52" class="edge"><title>Node1&#45;&gt;Node25</title>
<path fill="none" stroke="midnightblue" d="M1607,-164.191C1607,-155.168 1607,-144.994 1607,-137.571"/>
<polygon fill="midnightblue" stroke="midnightblue" points="1603.5,-164.362 1607,-174.362 1610.5,-164.362 1603.5,-164.362"/>
</g>
<!-- Node26 -->
<g id="node53" class="node"><title>Node26</title>
<a xlink:href="seiszaxisstretcher_8h.html" target="_top" xlink:title="seiszaxisstretcher.h">
<polygon fill="white" stroke="black" points="1680,-116.5 1680,-137.5 1784,-137.5 1784,-116.5 1680,-116.5"/>
<text text-anchor="middle" x="1732" y="-124.5" font-family="Helvetica,sans-Serif" font-size="10.00">seiszaxisstretcher.h</text>
</a>
</g>
<!-- Node1&#45;&gt;Node26 -->
<g id="edge54" class="edge"><title>Node1&#45;&gt;Node26</title>
<path fill="none" stroke="midnightblue" d="M1638.88,-170.206C1660.81,-160.031 1689.42,-146.757 1709.11,-137.621"/>
<polygon fill="midnightblue" stroke="midnightblue" points="1637.23,-167.113 1629.64,-174.497 1640.18,-173.462 1637.23,-167.113"/>
</g>
<!-- Node27 -->
<g id="node55" class="node"><title>Node27</title>
<a xlink:href="velocityfunctiongrid_8h.html" target="_top" xlink:title="velocityfunctiongrid.h">
<polygon fill="white" stroke="black" points="1801.5,-116.5 1801.5,-137.5 1910.5,-137.5 1910.5,-116.5 1801.5,-116.5"/>
<text text-anchor="middle" x="1856" y="-124.5" font-family="Helvetica,sans-Serif" font-size="10.00">velocityfunctiongrid.h</text>
</a>
</g>
<!-- Node1&#45;&gt;Node27 -->
<g id="edge56" class="edge"><title>Node1&#45;&gt;Node27</title>
<path fill="none" stroke="midnightblue" d="M1642.95,-176.627C1687.3,-166.296 1762.72,-148.727 1810.91,-137.503"/>
<polygon fill="midnightblue" stroke="midnightblue" points="1642.12,-173.225 1633.18,-178.903 1643.71,-180.043 1642.12,-173.225"/>
</g>
<!-- Node28 -->
<g id="node57" class="node"><title>Node28</title>
<a xlink:href="velocityfunctioninterval_8h.html" target="_top" xlink:title="velocityfunctioninterval.h">
<polygon fill="white" stroke="black" points="1927.5,-116.5 1927.5,-137.5 2052.5,-137.5 2052.5,-116.5 1927.5,-116.5"/>
<text text-anchor="middle" x="1990" y="-124.5" font-family="Helvetica,sans-Serif" font-size="10.00">velocityfunctioninterval.h</text>
</a>
</g>
<!-- Node1&#45;&gt;Node28 -->
<g id="edge58" class="edge"><title>Node1&#45;&gt;Node28</title>
<path fill="none" stroke="midnightblue" d="M1643.47,-179.557C1701.72,-170.852 1819.34,-153.226 1919,-138 1921.71,-137.586 1924.48,-137.161 1927.28,-136.731"/>
<polygon fill="midnightblue" stroke="midnightblue" points="1642.68,-176.136 1633.3,-181.076 1643.71,-183.06 1642.68,-176.136"/>
</g>
<!-- Node29 -->
<g id="node59" class="node"><title>Node29</title>
<a xlink:href="velocityfunctionvolume_8h.html" target="_top" xlink:title="velocityfunctionvolume.h">
<polygon fill="white" stroke="black" points="2069.5,-116.5 2069.5,-137.5 2194.5,-137.5 2194.5,-116.5 2069.5,-116.5"/>
<text text-anchor="middle" x="2132" y="-124.5" font-family="Helvetica,sans-Serif" font-size="10.00">velocityfunctionvolume.h</text>
</a>
</g>
<!-- Node1&#45;&gt;Node29 -->
<g id="edge60" class="edge"><title>Node1&#45;&gt;Node29</title>
<path fill="none" stroke="midnightblue" d="M1643.3,-181.87C1720.37,-175.087 1906.01,-158.016 2061,-138 2063.72,-137.649 2066.5,-137.276 2069.3,-136.889"/>
<polygon fill="midnightblue" stroke="midnightblue" points="1642.81,-178.399 1633.16,-182.759 1643.42,-185.373 1642.81,-178.399"/>
</g>
<!-- Node31 -->
<g id="node63" class="node"><title>Node31</title>
<a xlink:href="velocityvolumeconversion_8h.html" target="_top" xlink:title="velocityvolumeconversion.h">
<polygon fill="white" stroke="black" points="2211.5,-116.5 2211.5,-137.5 2348.5,-137.5 2348.5,-116.5 2211.5,-116.5"/>
<text text-anchor="middle" x="2280" y="-124.5" font-family="Helvetica,sans-Serif" font-size="10.00">velocityvolumeconversion.h</text>
</a>
</g>
<!-- Node1&#45;&gt;Node31 -->
<g id="edge64" class="edge"><title>Node1&#45;&gt;Node31</title>
<path fill="none" stroke="midnightblue" d="M1643.23,-182.943C1736.31,-177.486 1991.42,-161.432 2203,-138 2205.68,-137.703 2208.42,-137.385 2211.18,-137.051"/>
<polygon fill="midnightblue" stroke="midnightblue" points="1642.98,-179.452 1633.2,-183.527 1643.38,-186.44 1642.98,-179.452"/>
</g>
<!-- Node32 -->
<g id="node65" class="node"><title>Node32</title>
<a xlink:href="autotracker_8h.html" target="_top" xlink:title="autotracker.h">
<polygon fill="white" stroke="black" points="2366,-116.5 2366,-137.5 2440,-137.5 2440,-116.5 2366,-116.5"/>
<text text-anchor="middle" x="2403" y="-124.5" font-family="Helvetica,sans-Serif" font-size="10.00">autotracker.h</text>
</a>
</g>
<!-- Node1&#45;&gt;Node32 -->
<g id="edge66" class="edge"><title>Node1&#45;&gt;Node32</title>
<path fill="none" stroke="midnightblue" d="M1643.47,-183.548C1773.87,-178.227 2216.76,-159.003 2357,-138 2359.92,-137.562 2362.93,-137.03 2365.95,-136.439"/>
<polygon fill="midnightblue" stroke="midnightblue" points="1643.07,-180.061 1633.22,-183.964 1643.36,-187.056 1643.07,-180.061"/>
</g>
<!-- Node33 -->
<g id="node67" class="node"><title>Node33</title>
<a xlink:href="horizontracker_8h.html" target="_top" xlink:title="horizontracker.h">
<polygon fill="white" stroke="black" points="2458,-116.5 2458,-137.5 2544,-137.5 2544,-116.5 2458,-116.5"/>
<text text-anchor="middle" x="2501" y="-124.5" font-family="Helvetica,sans-Serif" font-size="10.00">horizontracker.h</text>
</a>
</g>
<!-- Node1&#45;&gt;Node33 -->
<g id="edge68" class="edge"><title>Node1&#45;&gt;Node33</title>
<path fill="none" stroke="midnightblue" d="M1643.23,-183.716C1783.3,-178.637 2289.52,-159.193 2449,-138 2451.93,-137.611 2454.93,-137.147 2457.96,-136.634"/>
<polygon fill="midnightblue" stroke="midnightblue" points="1642.91,-180.225 1633.04,-184.084 1643.16,-187.221 1642.91,-180.225"/>
</g>
<!-- Node34 -->
<g id="node69" class="node"><title>Node34</title>
<a xlink:href="uicursor_8h.html" target="_top" xlink:title="uicursor.h">
<polygon fill="white" stroke="black" points="2561.5,-116.5 2561.5,-137.5 2620.5,-137.5 2620.5,-116.5 2561.5,-116.5"/>
<text text-anchor="middle" x="2591" y="-124.5" font-family="Helvetica,sans-Serif" font-size="10.00">uicursor.h</text>
</a>
</g>
<!-- Node1&#45;&gt;Node34 -->
<g id="edge70" class="edge"><title>Node1&#45;&gt;Node34</title>
<path fill="none" stroke="midnightblue" d="M1643.26,-184.323C1794.17,-181.333 2373.04,-168.097 2553,-138 2555.71,-137.547 2558.5,-136.967 2561.28,-136.31"/>
<polygon fill="midnightblue" stroke="midnightblue" points="1643.07,-180.826 1633.14,-184.521 1643.21,-187.825 1643.07,-180.826"/>
</g>
<!-- Node35 -->
<g id="node71" class="node"><title>Node35</title>
<a xlink:href="uitreeitemmanager_8h.html" target="_top" xlink:title="uitreeitemmanager.h">
<polygon fill="white" stroke="black" points="2637.5,-116.5 2637.5,-137.5 2742.5,-137.5 2742.5,-116.5 2637.5,-116.5"/>
<text text-anchor="middle" x="2690" y="-124.5" font-family="Helvetica,sans-Serif" font-size="10.00">uitreeitemmanager.h</text>
</a>
</g>
<!-- Node1&#45;&gt;Node35 -->
<g id="edge72" class="edge"><title>Node1&#45;&gt;Node35</title>
<path fill="none" stroke="midnightblue" d="M1643.5,-183.971C1802.07,-179.401 2432.09,-160.183 2629,-138 2631.78,-137.687 2634.63,-137.324 2637.49,-136.924"/>
<polygon fill="midnightblue" stroke="midnightblue" points="1643.22,-180.478 1633.32,-184.263 1643.42,-187.475 1643.22,-180.478"/>
</g>
<!-- Node38 -->
<g id="node77" class="node"><title>Node38</title>
<a xlink:href="cmddriver_8h.html" target="_top" xlink:title="cmddriver.h">
<polygon fill="white" stroke="black" points="156,-58.5 156,-79.5 224,-79.5 224,-58.5 156,-58.5"/>
<text text-anchor="middle" x="190" y="-66.5" font-family="Helvetica,sans-Serif" font-size="10.00">cmddriver.h</text>
</a>
</g>
<!-- Node1&#45;&gt;Node38 -->
<g id="edge78" class="edge"><title>Node1&#45;&gt;Node38</title>
<path fill="none" stroke="midnightblue" d="M1570.81,-184.456C1362.66,-181.236 324.994,-163.926 263,-138 233.557,-125.687 208.905,-95.7187 197.24,-79.6286"/>
<polygon fill="midnightblue" stroke="midnightblue" points="1570.86,-187.957 1580.91,-184.611 1570.96,-180.958 1570.86,-187.957"/>
</g>
<!-- Node39 -->
<g id="node80" class="node"><title>Node39</title>
<a xlink:href="visobject_8h.html" target="_top" xlink:title="visobject.h">
<polygon fill="white" stroke="red" points="1170,-116.5 1170,-137.5 1234,-137.5 1234,-116.5 1170,-116.5"/>
<text text-anchor="middle" x="1202" y="-124.5" font-family="Helvetica,sans-Serif" font-size="10.00">visobject.h</text>
</a>
</g>
<!-- Node1&#45;&gt;Node39 -->
<g id="edge82" class="edge"><title>Node1&#45;&gt;Node39</title>
<path fill="none" stroke="midnightblue" d="M1570.58,-181.504C1505.5,-174.974 1365.11,-159.607 1248,-138 1243.48,-137.166 1238.73,-136.17 1234.08,-135.124"/>
<polygon fill="midnightblue" stroke="midnightblue" points="1570.43,-185.006 1580.73,-182.511 1571.12,-178.04 1570.43,-185.006"/>
</g>
<!-- Node42 -->
<g id="node87" class="node"><title>Node42</title>
<a xlink:href="vispolygonselection_8h.html" target="_top" xlink:title="vispolygonselection.h">
<polygon fill="white" stroke="black" points="1436,-58.5 1436,-79.5 1546,-79.5 1546,-58.5 1436,-58.5"/>
<text text-anchor="middle" x="1491" y="-66.5" font-family="Helvetica,sans-Serif" font-size="10.00">vispolygonselection.h</text>
</a>
</g>
<!-- Node1&#45;&gt;Node42 -->
<g id="edge106" class="edge"><title>Node1&#45;&gt;Node42</title>
<path fill="none" stroke="midnightblue" d="M1570.61,-182.407C1489.56,-176.263 1299.79,-159.691 1281,-138 1274.6,-130.609 1274.89,-123.632 1281,-116 1285.93,-109.849 1375.61,-91.3849 1436.16,-79.5135"/>
<polygon fill="midnightblue" stroke="midnightblue" points="1570.61,-185.917 1580.85,-183.171 1571.13,-178.937 1570.61,-185.917"/>
</g>
<!-- Node43 -->
<g id="node89" class="node"><title>Node43</title>
<a xlink:href="viscoord_8h.html" target="_top" xlink:title="viscoord.h">
<polygon fill="white" stroke="red" points="2760,-116.5 2760,-137.5 2822,-137.5 2822,-116.5 2760,-116.5"/>
<text text-anchor="middle" x="2791" y="-124.5" font-family="Helvetica,sans-Serif" font-size="10.00">viscoord.h</text>
</a>
</g>
<!-- Node1&#45;&gt;Node43 -->
<g id="edge92" class="edge"><title>Node1&#45;&gt;Node43</title>
<path fill="none" stroke="midnightblue" d="M1643.16,-184.62C1812.69,-182.668 2529.88,-172.486 2751,-138 2753.85,-137.556 2756.78,-136.982 2759.7,-136.33"/>
<polygon fill="midnightblue" stroke="midnightblue" points="1642.97,-181.121 1633.01,-184.734 1643.05,-188.121 1642.97,-181.121"/>
</g>
<!-- Node44 -->
<g id="node91" class="node"><title>Node44</title>
<a xlink:href="vishorizonsectiontile_8h.html" target="_top" xlink:title="vishorizonsectiontile.h">
<polygon fill="white" stroke="black" points="2877.5,-116.5 2877.5,-137.5 2990.5,-137.5 2990.5,-116.5 2877.5,-116.5"/>
<text text-anchor="middle" x="2934" y="-124.5" font-family="Helvetica,sans-Serif" font-size="10.00">vishorizonsectiontile.h</text>
</a>
</g>
<!-- Node1&#45;&gt;Node44 -->
<g id="edge94" class="edge"><title>Node1&#45;&gt;Node44</title>
<path fill="none" stroke="midnightblue" d="M1643.43,-184.222C1823.29,-180.29 2617.84,-161.859 2864,-138 2868.29,-137.585 2872.71,-137.077 2877.15,-136.511"/>
<polygon fill="midnightblue" stroke="midnightblue" points="1643.1,-180.728 1633.18,-184.445 1643.26,-187.726 1643.1,-180.728"/>
</g>
<!-- Node45 -->
<g id="node93" class="node"><title>Node45</title>
<a xlink:href="vishortileresolutiondata_8h.html" target="_top" xlink:title="vishortileresolutiondata.h">
<polygon fill="white" stroke="black" points="2829.5,-58.5 2829.5,-79.5 2954.5,-79.5 2954.5,-58.5 2829.5,-58.5"/>
<text text-anchor="middle" x="2892" y="-66.5" font-family="Helvetica,sans-Serif" font-size="10.00">vishortileresolutiondata.h</text>
</a>
</g>
<!-- Node1&#45;&gt;Node45 -->
<g id="edge102" class="edge"><title>Node1&#45;&gt;Node45</title>
<path fill="none" stroke="midnightblue" d="M1643.36,-184.408C1840.68,-181.095 2776.01,-164.062 2831,-138 2857.44,-125.468 2877.25,-95.5935 2886.4,-79.575"/>
<polygon fill="midnightblue" stroke="midnightblue" points="1643.17,-180.911 1633.23,-184.577 1643.29,-187.91 1643.17,-180.911"/>
</g>
<!-- Node46 -->
<g id="node95" class="node"><title>Node46</title>
<a xlink:href="vishorizonsectiontileglue_8h.html" target="_top" xlink:title="vishorizonsectiontileglue.h">
<polygon fill="white" stroke="black" points="3007.5,-116.5 3007.5,-137.5 3138.5,-137.5 3138.5,-116.5 3007.5,-116.5"/>
<text text-anchor="middle" x="3073" y="-124.5" font-family="Helvetica,sans-Serif" font-size="10.00">vishorizonsectiontileglue.h</text>
</a>
</g>
<!-- Node1&#45;&gt;Node46 -->
<g id="edge98" class="edge"><title>Node1&#45;&gt;Node46</title>
<path fill="none" stroke="midnightblue" d="M1643.3,-184.335C1834.3,-180.75 2724.4,-162.964 2999,-138 3001.72,-137.753 3004.49,-137.473 3007.28,-137.166"/>
<polygon fill="midnightblue" stroke="midnightblue" points="1643.16,-180.837 1633.23,-184.523 1643.29,-187.836 1643.16,-180.837"/>
</g>
<!-- Node47 -->
<g id="node97" class="node"><title>Node47</title>
<a xlink:href="vishorthreadworks_8h.html" target="_top" xlink:title="vishorthreadworks.h">
<polygon fill="white" stroke="black" points="3156,-116.5 3156,-137.5 3260,-137.5 3260,-116.5 3156,-116.5"/>
<text text-anchor="middle" x="3208" y="-124.5" font-family="Helvetica,sans-Serif" font-size="10.00">vishorthreadworks.h</text>
</a>
</g>
<!-- Node1&#45;&gt;Node47 -->
<g id="edge100" class="edge"><title>Node1&#45;&gt;Node47</title>
<path fill="none" stroke="midnightblue" d="M1643.23,-184.623C1845.97,-182.401 2841.71,-170.007 3147,-138 3149.89,-137.697 3152.85,-137.336 3155.83,-136.931"/>
<polygon fill="midnightblue" stroke="midnightblue" points="1643.08,-181.124 1633.11,-184.732 1643.15,-188.124 1643.08,-181.124"/>
</g>
<!-- Node48 -->
<g id="node100" class="node"><title>Node48</title>
<a xlink:href="vishortilescreatorandupdator_8h.html" target="_top" xlink:title="vishortilescreatorandupdator.h">
<polygon fill="white" stroke="black" points="3277.5,-116.5 3277.5,-137.5 3424.5,-137.5 3424.5,-116.5 3277.5,-116.5"/>
<text text-anchor="middle" x="3351" y="-124.5" font-family="Helvetica,sans-Serif" font-size="10.00">vishortilescreatorandupdator.h</text>
</a>
</g>
<!-- Node1&#45;&gt;Node48 -->
<g id="edge104" class="edge"><title>Node1&#45;&gt;Node48</title>
<path fill="none" stroke="midnightblue" d="M1643.34,-184.493C1855.62,-181.452 2937.42,-164.854 3269,-138 3271.72,-137.78 3274.49,-137.532 3277.28,-137.261"/>
<polygon fill="midnightblue" stroke="midnightblue" points="1643.01,-180.997 1633.06,-184.639 1643.11,-187.996 1643.01,-180.997"/>
</g>
<!-- Node49 -->
<g id="node103" class="node"><title>Node49</title>
<a xlink:href="uivisdatapointsetdisplaymgr_8h.html" target="_top" xlink:title="uivisdatapointsetdisplaymgr.h">
<polygon fill="white" stroke="black" points="3442,-116.5 3442,-137.5 3588,-137.5 3588,-116.5 3442,-116.5"/>
<text text-anchor="middle" x="3515" y="-124.5" font-family="Helvetica,sans-Serif" font-size="10.00">uivisdatapointsetdisplaymgr.h</text>
</a>
</g>
<!-- Node1&#45;&gt;Node49 -->
<g id="edge108" class="edge"><title>Node1&#45;&gt;Node49</title>
<path fill="none" stroke="midnightblue" d="M1643.32,-184.599C1867.62,-182.043 3066.77,-167.192 3433,-138 3435.86,-137.772 3438.78,-137.512 3441.72,-137.227"/>
<polygon fill="midnightblue" stroke="midnightblue" points="1643.05,-181.102 1633.09,-184.715 1643.13,-188.101 1643.05,-181.102"/>
</g>
<!-- Node50 -->
<g id="node105" class="node"><title>Node50</title>
<a xlink:href="uivispartserv_8h.html" target="_top" xlink:title="uivispartserv.h">
<polygon fill="white" stroke="red" points="3606,-116.5 3606,-137.5 3686,-137.5 3686,-116.5 3606,-116.5"/>
<text text-anchor="middle" x="3646" y="-124.5" font-family="Helvetica,sans-Serif" font-size="10.00">uivispartserv.h</text>
</a>
</g>
<!-- Node1&#45;&gt;Node50 -->
<g id="edge110" class="edge"><title>Node1&#45;&gt;Node50</title>
<path fill="none" stroke="midnightblue" d="M1643.27,-184.575C1896.52,-181.547 3396.12,-162.675 3597,-138 3599.86,-137.649 3602.79,-137.206 3605.73,-136.7"/>
<polygon fill="midnightblue" stroke="midnightblue" points="1643.09,-181.076 1633.14,-184.695 1643.18,-188.076 1643.09,-181.076"/>
</g>
<!-- Node4 -->
<g id="node7" class="node"><title>Node4</title>
<a xlink:href="factory_8h.html" target="_top" xlink:title="factory.h">
<polygon fill="white" stroke="red" points="83.5,-58.5 83.5,-79.5 138.5,-79.5 138.5,-58.5 83.5,-58.5"/>
<text text-anchor="middle" x="111" y="-66.5" font-family="Helvetica,sans-Serif" font-size="10.00">factory.h</text>
</a>
</g>
<!-- Node3&#45;&gt;Node4 -->
<g id="edge6" class="edge"><title>Node3&#45;&gt;Node4</title>
<path fill="none" stroke="midnightblue" d="M138.54,-107.959C131.869,-98.522 124.066,-87.4835 118.472,-79.5707"/>
<polygon fill="midnightblue" stroke="midnightblue" points="135.85,-110.216 144.48,-116.362 141.566,-106.176 135.85,-110.216"/>
</g>
<!-- Node5 -->
<g id="node9" class="node"><title>Node5</title>
<a xlink:href="command_8h.html" target="_top" xlink:title="command.h">
<polygon fill="white" stroke="red" points="116,-0.5 116,-21.5 184,-21.5 184,-0.5 116,-0.5"/>
<text text-anchor="middle" x="150" y="-8.5" font-family="Helvetica,sans-Serif" font-size="10.00">command.h</text>
</a>
</g>
<!-- Node4&#45;&gt;Node5 -->
<g id="edge8" class="edge"><title>Node4&#45;&gt;Node5</title>
<path fill="none" stroke="midnightblue" d="M123.803,-49.9591C130.149,-40.522 137.571,-29.4835 142.892,-21.5707"/>
<polygon fill="midnightblue" stroke="midnightblue" points="120.829,-48.1105 118.153,-58.3619 126.638,-52.0165 120.829,-48.1105"/>
</g>
<!-- Node6&#45;&gt;Node7 -->
<g id="edge12" class="edge"><title>Node6&#45;&gt;Node7</title>
<path fill="none" stroke="midnightblue" d="M299.77,-108.83C290.645,-99.2078 279.76,-87.7282 272.024,-79.5707"/>
<polygon fill="midnightblue" stroke="midnightblue" points="297.492,-111.514 306.912,-116.362 302.571,-106.697 297.492,-111.514"/>
</g>
<!-- Node8 -->
<g id="node15" class="node"><title>Node8</title>
<a xlink:href="idxable_8h.html" target="_top" xlink:title="idxable.h">
<polygon fill="white" stroke="red" points="300,-58.5 300,-79.5 356,-79.5 356,-58.5 300,-58.5"/>
<text text-anchor="middle" x="328" y="-66.5" font-family="Helvetica,sans-Serif" font-size="10.00">idxable.h</text>
</a>
</g>
<!-- Node6&#45;&gt;Node8 -->
<g id="edge14" class="edge"><title>Node6&#45;&gt;Node8</title>
<path fill="none" stroke="midnightblue" d="M320.89,-106.488C322.615,-97.3924 324.572,-87.0756 325.995,-79.5707"/>
<polygon fill="midnightblue" stroke="midnightblue" points="317.442,-105.885 319.018,-116.362 324.32,-107.189 317.442,-105.885"/>
</g>
<!-- Node9 -->
<g id="node17" class="node"><title>Node9</title>
<a xlink:href="statruncalc_8h.html" target="_top" xlink:title="statruncalc.h">
<polygon fill="white" stroke="red" points="373.5,-58.5 373.5,-79.5 446.5,-79.5 446.5,-58.5 373.5,-58.5"/>
<text text-anchor="middle" x="410" y="-66.5" font-family="Helvetica,sans-Serif" font-size="10.00">statruncalc.h</text>
</a>
</g>
<!-- Node6&#45;&gt;Node9 -->
<g id="edge16" class="edge"><title>Node6&#45;&gt;Node9</title>
<path fill="none" stroke="midnightblue" d="M342.941,-110.821C358.96,-100.831 379.055,-88.2993 393.051,-79.5707"/>
<polygon fill="midnightblue" stroke="midnightblue" points="340.691,-108.1 334.058,-116.362 344.395,-114.04 340.691,-108.1"/>
</g>
<!-- Node11 -->
<g id="node22" class="node"><title>Node11</title>
<a xlink:href="polygon_8h.html" target="_top" xlink:title="polygon.h">
<polygon fill="white" stroke="red" points="463.5,-58.5 463.5,-79.5 522.5,-79.5 522.5,-58.5 463.5,-58.5"/>
<text text-anchor="middle" x="493" y="-66.5" font-family="Helvetica,sans-Serif" font-size="10.00">polygon.h</text>
</a>
</g>
<!-- Node10&#45;&gt;Node11 -->
<g id="edge22" class="edge"><title>Node10&#45;&gt;Node11</title>
<path fill="none" stroke="midnightblue" d="M431.405,-110.541C446.149,-100.597 464.505,-88.2177 477.326,-79.5707"/>
<polygon fill="midnightblue" stroke="midnightblue" points="429.107,-107.869 422.774,-116.362 433.021,-113.672 429.107,-107.869"/>
</g>
<!-- Node18 -->
<g id="node36" class="node"><title>Node18</title>
<a xlink:href="explfaultsticksurface_8h.html" target="_top" xlink:title="explfaultsticksurface.h">
<polygon fill="white" stroke="red" points="777.5,-58.5 777.5,-79.5 892.5,-79.5 892.5,-58.5 777.5,-58.5"/>
<text text-anchor="middle" x="835" y="-66.5" font-family="Helvetica,sans-Serif" font-size="10.00">explfaultsticksurface.h</text>
</a>
</g>
<!-- Node17&#45;&gt;Node18 -->
<g id="edge36" class="edge"><title>Node17&#45;&gt;Node18</title>
<path fill="none" stroke="midnightblue" d="M1057.45,-115.916C1007.86,-105.458 934.046,-89.8898 885.236,-79.5951"/>
<polygon fill="midnightblue" stroke="midnightblue" points="1056.83,-119.362 1067.33,-118.001 1058.27,-112.513 1056.83,-119.362"/>
</g>
<!-- Node17&#45;&gt;Node19 -->
<g id="edge38" class="edge"><title>Node17&#45;&gt;Node19</title>
<path fill="none" stroke="midnightblue" d="M1057.26,-116.536C1056.16,-116.352 1055.08,-116.173 1054,-116 927.954,-95.6839 895.41,-97.9119 769,-80 766.077,-79.5858 763.086,-79.1526 760.067,-78.7075"/>
<polygon fill="midnightblue" stroke="midnightblue" points="1056.79,-120.008 1067.25,-118.29 1058.01,-113.113 1056.79,-120.008"/>
</g>
<!-- Node20 -->
<g id="node40" class="node"><title>Node20</title>
<a xlink:href="explplaneintersection_8h.html" target="_top" xlink:title="explplaneintersection.h">
<polygon fill="white" stroke="black" points="910,-58.5 910,-79.5 1026,-79.5 1026,-58.5 910,-58.5"/>
<text text-anchor="middle" x="968" y="-66.5" font-family="Helvetica,sans-Serif" font-size="10.00">explplaneintersection.h</text>
</a>
</g>
<!-- Node17&#45;&gt;Node20 -->
<g id="edge40" class="edge"><title>Node17&#45;&gt;Node20</title>
<path fill="none" stroke="midnightblue" d="M1074.78,-112.615C1049.75,-102.389 1016.67,-88.8796 994.004,-79.6212"/>
<polygon fill="midnightblue" stroke="midnightblue" points="1073.7,-115.955 1084.28,-116.497 1076.35,-109.475 1073.7,-115.955"/>
</g>
<!-- Node21 -->
<g id="node42" class="node"><title>Node21</title>
<a xlink:href="explpolygonsurface_8h.html" target="_top" xlink:title="explpolygonsurface.h">
<polygon fill="white" stroke="black" points="1043.5,-58.5 1043.5,-79.5 1152.5,-79.5 1152.5,-58.5 1043.5,-58.5"/>
<text text-anchor="middle" x="1098" y="-66.5" font-family="Helvetica,sans-Serif" font-size="10.00">explpolygonsurface.h</text>
</a>
</g>
<!-- Node17&#45;&gt;Node21 -->
<g id="edge42" class="edge"><title>Node17&#45;&gt;Node21</title>
<path fill="none" stroke="midnightblue" d="M1105.76,-106.488C1103.87,-97.3924 1101.74,-87.0756 1100.19,-79.5707"/>
<polygon fill="midnightblue" stroke="midnightblue" points="1102.35,-107.278 1107.8,-116.362 1109.2,-105.86 1102.35,-107.278"/>
</g>
<!-- Node22 -->
<g id="node44" class="node"><title>Node22</title>
<a xlink:href="visshape_8h.html" target="_top" xlink:title="visshape.h">
<polygon fill="white" stroke="red" points="1170,-58.5 1170,-79.5 1234,-79.5 1234,-58.5 1170,-58.5"/>
<text text-anchor="middle" x="1202" y="-66.5" font-family="Helvetica,sans-Serif" font-size="10.00">visshape.h</text>
</a>
</g>
<!-- Node17&#45;&gt;Node22 -->
<g id="edge44" class="edge"><title>Node17&#45;&gt;Node22</title>
<path fill="none" stroke="midnightblue" d="M1135.66,-110.821C1151.51,-100.831 1171.39,-88.2993 1185.23,-79.5707"/>
<polygon fill="midnightblue" stroke="midnightblue" points="1133.47,-108.068 1126.87,-116.362 1137.2,-113.99 1133.47,-108.068"/>
</g>
<!-- Node30 -->
<g id="node61" class="node"><title>Node30</title>
<a xlink:href="uivelocityfunctionvolume_8h.html" target="_top" xlink:title="uivelocityfunctionvolume.h">
<polygon fill="white" stroke="black" points="2066,-58.5 2066,-79.5 2198,-79.5 2198,-58.5 2066,-58.5"/>
<text text-anchor="middle" x="2132" y="-66.5" font-family="Helvetica,sans-Serif" font-size="10.00">uivelocityfunctionvolume.h</text>
</a>
</g>
<!-- Node29&#45;&gt;Node30 -->
<g id="edge62" class="edge"><title>Node29&#45;&gt;Node30</title>
<path fill="none" stroke="midnightblue" d="M2132,-106.191C2132,-97.1684 2132,-86.9941 2132,-79.5707"/>
<polygon fill="midnightblue" stroke="midnightblue" points="2128.5,-106.362 2132,-116.362 2135.5,-106.362 2128.5,-106.362"/>
</g>
<!-- Node36 -->
<g id="node73" class="node"><title>Node36</title>
<a xlink:href="uiodtreeitem_8h.html" target="_top" xlink:title="uiodtreeitem.h">
<polygon fill="white" stroke="red" points="2580,-58.5 2580,-79.5 2658,-79.5 2658,-58.5 2580,-58.5"/>
<text text-anchor="middle" x="2619" y="-66.5" font-family="Helvetica,sans-Serif" font-size="10.00">uiodtreeitem.h</text>
</a>
</g>
<!-- Node35&#45;&gt;Node36 -->
<g id="edge74" class="edge"><title>Node35&#45;&gt;Node36</title>
<path fill="none" stroke="midnightblue" d="M2669.16,-109.975C2657.11,-100.132 2642.33,-88.0545 2631.94,-79.5707"/>
<polygon fill="midnightblue" stroke="midnightblue" points="2667.02,-112.746 2676.98,-116.362 2671.45,-107.325 2667.02,-112.746"/>
</g>
<!-- Node37 -->
<g id="node75" class="node"><title>Node37</title>
<a xlink:href="uiodvw2dtreeitem_8h.html" target="_top" xlink:title="uiodvw2dtreeitem.h">
<polygon fill="white" stroke="red" points="2675.5,-58.5 2675.5,-79.5 2776.5,-79.5 2776.5,-58.5 2675.5,-58.5"/>
<text text-anchor="middle" x="2726" y="-66.5" font-family="Helvetica,sans-Serif" font-size="10.00">uiodvw2dtreeitem.h</text>
</a>
</g>
<!-- Node35&#45;&gt;Node37 -->
<g id="edge76" class="edge"><title>Node35&#45;&gt;Node37</title>
<path fill="none" stroke="midnightblue" d="M2702,-107.667C2707.82,-98.2948 2714.58,-87.4019 2719.44,-79.5707"/>
<polygon fill="midnightblue" stroke="midnightblue" points="2698.9,-106.02 2696.6,-116.362 2704.85,-109.711 2698.9,-106.02"/>
</g>
<!-- Node38&#45;&gt;Node5 -->
<g id="edge80" class="edge"><title>Node38&#45;&gt;Node5</title>
<path fill="none" stroke="midnightblue" d="M176.868,-49.9591C170.36,-40.522 162.747,-29.4835 157.29,-21.5707"/>
<polygon fill="midnightblue" stroke="midnightblue" points="174.105,-52.1168 182.663,-58.3619 179.867,-48.1427 174.105,-52.1168"/>
</g>
<!-- Node39&#45;&gt;Node22 -->
<g id="edge88" class="edge"><title>Node39&#45;&gt;Node22</title>
<path fill="none" stroke="midnightblue" d="M1202,-106.191C1202,-97.1684 1202,-86.9941 1202,-79.5707"/>
<polygon fill="midnightblue" stroke="midnightblue" points="1198.5,-106.362 1202,-116.362 1205.5,-106.362 1198.5,-106.362"/>
</g>
<!-- Node40 -->
<g id="node82" class="node"><title>Node40</title>
<a xlink:href="visannot_8h.html" target="_top" xlink:title="visannot.h">
<polygon fill="white" stroke="black" points="1252,-58.5 1252,-79.5 1314,-79.5 1314,-58.5 1252,-58.5"/>
<text text-anchor="middle" x="1283" y="-66.5" font-family="Helvetica,sans-Serif" font-size="10.00">visannot.h</text>
</a>
</g>
<!-- Node39&#45;&gt;Node40 -->
<g id="edge84" class="edge"><title>Node39&#45;&gt;Node40</title>
<path fill="none" stroke="midnightblue" d="M1225.38,-110.259C1239.2,-100.364 1256.28,-88.1361 1268.24,-79.5707"/>
<polygon fill="midnightblue" stroke="midnightblue" points="1222.95,-107.694 1216.86,-116.362 1227.02,-113.386 1222.95,-107.694"/>
</g>
<!-- Node41 -->
<g id="node84" class="node"><title>Node41</title>
<a xlink:href="visboxdragger_8h.html" target="_top" xlink:title="visboxdragger.h">
<polygon fill="white" stroke="black" points="1332,-58.5 1332,-79.5 1418,-79.5 1418,-58.5 1332,-58.5"/>
<text text-anchor="middle" x="1375" y="-66.5" font-family="Helvetica,sans-Serif" font-size="10.00">visboxdragger.h</text>
</a>
</g>
<!-- Node39&#45;&gt;Node41 -->
<g id="edge86" class="edge"><title>Node39&#45;&gt;Node41</title>
<path fill="none" stroke="midnightblue" d="M1242.93,-113.279C1273.75,-102.944 1315.39,-88.9849 1343.61,-79.5231"/>
<polygon fill="midnightblue" stroke="midnightblue" points="1241.7,-109.999 1233.33,-116.497 1243.92,-116.636 1241.7,-109.999"/>
</g>
<!-- Node39&#45;&gt;Node42 -->
<g id="edge90" class="edge"><title>Node39&#45;&gt;Node42</title>
<path fill="none" stroke="midnightblue" d="M1244.16,-116.842C1245.45,-116.555 1246.74,-116.273 1248,-116 1312.26,-102.109 1386.51,-88.0344 1435.85,-78.957"/>
<polygon fill="midnightblue" stroke="midnightblue" points="1243.1,-113.493 1234.13,-119.128 1244.66,-120.318 1243.1,-113.493"/>
</g>
<!-- Node44&#45;&gt;Node45 -->
<g id="edge96" class="edge"><title>Node44&#45;&gt;Node45</title>
<path fill="none" stroke="midnightblue" d="M2920.42,-108.25C2913.54,-98.75 2905.44,-87.5651 2899.65,-79.5707"/>
<polygon fill="midnightblue" stroke="midnightblue" points="2917.6,-110.315 2926.3,-116.362 2923.27,-106.21 2917.6,-110.315"/>
</g>
</g>
</svg>
