<?xml version="1.0" encoding="UTF-8" standalone="no"?>
<!DOCTYPE svg PUBLIC "-//W3C//DTD SVG 1.1//EN"
 "http://www.w3.org/Graphics/SVG/1.1/DTD/svg11.dtd">
<!-- Generated by graphviz version 2.26.0 (20091210.2329)
 -->
<!-- Title: threadlock.h Pages: 1 -->
<svg width="3876pt" height="262pt"
 viewBox="0.00 0.00 3876.00 262.00" xmlns="http://www.w3.org/2000/svg" xmlns:xlink="http://www.w3.org/1999/xlink">
<g id="graph1" class="graph" transform="scale(1 1) rotate(0) translate(4 258)">
<title>threadlock.h</title>
<polygon fill="white" stroke="white" points="-4,5 -4,-258 3873,-258 3873,5 -4,5"/>
<!-- Node1 -->
<g id="node1" class="node"><title>Node1</title>
<polygon fill="#bfbfbf" stroke="black" points="2081,-232.5 2081,-253.5 2151,-253.5 2151,-232.5 2081,-232.5"/>
<text text-anchor="middle" x="2116" y="-240.5" font-family="Helvetica,sans-Serif" font-size="10.00">threadlock.h</text>
</g>
<!-- Node2 -->
<g id="node3" class="node"><title>Node2</title>
<a xlink:href="callback_8h.html" target="_top" xlink:title="callback.h">
<polygon fill="white" stroke="red" points="1321.5,-174.5 1321.5,-195.5 1382.5,-195.5 1382.5,-174.5 1321.5,-174.5"/>
<text text-anchor="middle" x="1352" y="-182.5" font-family="Helvetica,sans-Serif" font-size="10.00">callback.h</text>
</a>
</g>
<!-- Node1&#45;&gt;Node2 -->
<g id="edge2" class="edge"><title>Node1&#45;&gt;Node2</title>
<path fill="none" stroke="midnightblue" d="M2070.92,-239.578C1930.2,-228.895 1501.38,-196.34 1382.72,-187.332"/>
<polygon fill="midnightblue" stroke="midnightblue" points="2070.7,-243.071 2080.94,-240.338 2071.23,-236.091 2070.7,-243.071"/>
</g>
<!-- Node5 -->
<g id="node9" class="node"><title>Node5</title>
<a xlink:href="task_8h.html" target="_top" xlink:title="task.h">
<polygon fill="white" stroke="red" points="126,-58.5 126,-79.5 170,-79.5 170,-58.5 126,-58.5"/>
<text text-anchor="middle" x="148" y="-66.5" font-family="Helvetica,sans-Serif" font-size="10.00">task.h</text>
</a>
</g>
<!-- Node1&#45;&gt;Node5 -->
<g id="edge66" class="edge"><title>Node1&#45;&gt;Node5</title>
<path fill="none" stroke="midnightblue" d="M2070.97,-242.879C1806.66,-242.031 462.212,-235.78 283,-196 220.045,-182.026 186.107,-191.431 150,-138 138.19,-120.524 141.674,-94.4642 145.004,-79.8835"/>
<polygon fill="midnightblue" stroke="midnightblue" points="2070.97,-246.379 2080.98,-242.91 2070.99,-239.379 2070.97,-246.379"/>
</g>
<!-- Node7 -->
<g id="node13" class="node"><title>Node7</title>
<a xlink:href="marchingcubes_8h.html" target="_top" xlink:title="marchingcubes.h">
<polygon fill="white" stroke="black" points="1332.5,-0.5 1332.5,-21.5 1423.5,-21.5 1423.5,-0.5 1332.5,-0.5"/>
<text text-anchor="middle" x="1378" y="-8.5" font-family="Helvetica,sans-Serif" font-size="10.00">marchingcubes.h</text>
</a>
</g>
<!-- Node1&#45;&gt;Node7 -->
<g id="edge116" class="edge"><title>Node1&#45;&gt;Node7</title>
<path fill="none" stroke="midnightblue" d="M2112.73,-222.003C2107.34,-194.172 2094.03,-145.19 2064,-116 2011.55,-65.0242 1981.31,-74.2573 1910,-58 1817.79,-36.9776 1534.71,-19.6142 1423.52,-13.4277"/>
<polygon fill="midnightblue" stroke="midnightblue" points="2109.34,-222.956 2114.53,-232.195 2116.24,-221.739 2109.34,-222.956"/>
</g>
<!-- Node8 -->
<g id="node15" class="node"><title>Node8</title>
<a xlink:href="uitaskrunner_8h.html" target="_top" xlink:title="uitaskrunner.h">
<polygon fill="white" stroke="black" points="0,-0.5 0,-21.5 78,-21.5 78,-0.5 0,-0.5"/>
<text text-anchor="middle" x="39" y="-8.5" font-family="Helvetica,sans-Serif" font-size="10.00">uitaskrunner.h</text>
</a>
</g>
<!-- Node1&#45;&gt;Node8 -->
<g id="edge146" class="edge"><title>Node1&#45;&gt;Node8</title>
<path fill="none" stroke="midnightblue" d="M2070.41,-242.518C1779.34,-239.368 191.85,-221.056 149,-196 80.293,-155.824 49.7684,-54.4323 41.4525,-21.5046"/>
<polygon fill="midnightblue" stroke="midnightblue" points="2070.56,-246.02 2080.6,-242.628 2070.64,-239.02 2070.56,-246.02"/>
</g>
<!-- Node9 -->
<g id="node17" class="node"><title>Node9</title>
<a xlink:href="densitycalc_8h.html" target="_top" xlink:title="densitycalc.h">
<polygon fill="white" stroke="black" points="101,-0.5 101,-21.5 175,-21.5 175,-0.5 101,-0.5"/>
<text text-anchor="middle" x="138" y="-8.5" font-family="Helvetica,sans-Serif" font-size="10.00">densitycalc.h</text>
</a>
</g>
<!-- Node1&#45;&gt;Node9 -->
<g id="edge148" class="edge"><title>Node1&#45;&gt;Node9</title>
<path fill="none" stroke="midnightblue" d="M2070.8,-242.434C1783.94,-238.78 227.497,-217.966 184,-196 130.855,-169.162 127.733,-138.562 117,-80 115.237,-70.3824 114.961,-67.5628 117,-58 119.796,-44.889 126.525,-31.0063 131.618,-21.7575"/>
<polygon fill="midnightblue" stroke="midnightblue" points="2070.8,-245.935 2080.85,-242.562 2070.89,-238.935 2070.8,-245.935"/>
</g>
<!-- Node10 -->
<g id="node19" class="node"><title>Node10</title>
<a xlink:href="datapack_8h.html" target="_top" xlink:title="datapack.h">
<polygon fill="white" stroke="red" points="631.5,-58.5 631.5,-79.5 696.5,-79.5 696.5,-58.5 631.5,-58.5"/>
<text text-anchor="middle" x="664" y="-66.5" font-family="Helvetica,sans-Serif" font-size="10.00">datapack.h</text>
</a>
</g>
<!-- Node1&#45;&gt;Node10 -->
<g id="edge84" class="edge"><title>Node1&#45;&gt;Node10</title>
<path fill="none" stroke="midnightblue" d="M2070.63,-242.563C1839.75,-240.195 803.797,-227.83 744,-196 697.305,-171.144 674.361,-105.851 666.863,-79.8804"/>
<polygon fill="midnightblue" stroke="midnightblue" points="2070.67,-246.063 2080.7,-242.665 2070.74,-239.063 2070.67,-246.063"/>
</g>
<!-- Node11 -->
<g id="node21" class="node"><title>Node11</title>
<a xlink:href="basemap_8h.html" target="_top" xlink:title="basemap.h">
<polygon fill="white" stroke="red" points="726.5,-58.5 726.5,-79.5 791.5,-79.5 791.5,-58.5 726.5,-58.5"/>
<text text-anchor="middle" x="759" y="-66.5" font-family="Helvetica,sans-Serif" font-size="10.00">basemap.h</text>
</a>
</g>
<!-- Node1&#45;&gt;Node11 -->
<g id="edge104" class="edge"><title>Node1&#45;&gt;Node11</title>
<path fill="none" stroke="midnightblue" d="M2070.6,-242.207C1859.31,-238.396 977.489,-221.103 857,-196 787.837,-181.59 748.812,-196.363 709,-138 694.661,-116.98 722.161,-93.0578 741.751,-79.6222"/>
<polygon fill="midnightblue" stroke="midnightblue" points="2070.66,-245.709 2080.72,-242.389 2070.78,-238.71 2070.66,-245.709"/>
</g>
<!-- Node12 -->
<g id="node23" class="node"><title>Node12</title>
<a xlink:href="displaypropertylinks_8h.html" target="_top" xlink:title="displaypropertylinks.h">
<polygon fill="white" stroke="black" points="825.5,-58.5 825.5,-79.5 936.5,-79.5 936.5,-58.5 825.5,-58.5"/>
<text text-anchor="middle" x="881" y="-66.5" font-family="Helvetica,sans-Serif" font-size="10.00">displaypropertylinks.h</text>
</a>
</g>
<!-- Node1&#45;&gt;Node12 -->
<g id="edge110" class="edge"><title>Node1&#45;&gt;Node12</title>
<path fill="none" stroke="midnightblue" d="M2070.52,-242.067C1947.87,-239.177 1600.19,-228.518 1313,-196 1158.94,-178.556 1110.82,-200.655 969,-138 936.857,-123.8 906.176,-95.187 890.957,-79.6404"/>
<polygon fill="midnightblue" stroke="midnightblue" points="2070.58,-245.569 2080.66,-242.3 2070.74,-238.571 2070.58,-245.569"/>
</g>
<!-- Node14 -->
<g id="node27" class="node"><title>Node14</title>
<a xlink:href="progressmeterimpl_8h.html" target="_top" xlink:title="progressmeterimpl.h">
<polygon fill="white" stroke="red" points="717.5,-116.5 717.5,-137.5 822.5,-137.5 822.5,-116.5 717.5,-116.5"/>
<text text-anchor="middle" x="770" y="-124.5" font-family="Helvetica,sans-Serif" font-size="10.00">progressmeterimpl.h</text>
</a>
</g>
<!-- Node1&#45;&gt;Node14 -->
<g id="edge86" class="edge"><title>Node1&#45;&gt;Node14</title>
<path fill="none" stroke="midnightblue" d="M2070.87,-242.268C1866.57,-238.813 1033.34,-223.161 920,-196 868.988,-183.775 814.257,-153.769 787.191,-137.65"/>
<polygon fill="midnightblue" stroke="midnightblue" points="2070.89,-245.769 2080.95,-242.437 2071.01,-238.77 2070.89,-245.769"/>
</g>
<!-- Node17 -->
<g id="node33" class="node"><title>Node17</title>
<a xlink:href="posinfo2dsurv_8h.html" target="_top" xlink:title="posinfo2dsurv.h">
<polygon fill="white" stroke="red" points="2168,-116.5 2168,-137.5 2254,-137.5 2254,-116.5 2168,-116.5"/>
<text text-anchor="middle" x="2211" y="-124.5" font-family="Helvetica,sans-Serif" font-size="10.00">posinfo2dsurv.h</text>
</a>
</g>
<!-- Node1&#45;&gt;Node17 -->
<g id="edge94" class="edge"><title>Node1&#45;&gt;Node17</title>
<path fill="none" stroke="midnightblue" d="M2131.21,-224.424C2151.32,-199.872 2186.08,-157.427 2202.25,-137.679"/>
<polygon fill="midnightblue" stroke="midnightblue" points="2128.4,-222.341 2124.77,-232.295 2133.81,-226.776 2128.4,-222.341"/>
</g>
<!-- Node18 -->
<g id="node35" class="node"><title>Node18</title>
<a xlink:href="faulttrace_8h.html" target="_top" xlink:title="faulttrace.h">
<polygon fill="white" stroke="red" points="2153.5,-58.5 2153.5,-79.5 2218.5,-79.5 2218.5,-58.5 2153.5,-58.5"/>
<text text-anchor="middle" x="2186" y="-66.5" font-family="Helvetica,sans-Serif" font-size="10.00">faulttrace.h</text>
</a>
</g>
<!-- Node1&#45;&gt;Node18 -->
<g id="edge118" class="edge"><title>Node1&#45;&gt;Node18</title>
<path fill="none" stroke="midnightblue" d="M2121.59,-222.517C2128.86,-197.019 2142.58,-152.388 2159,-116 2164.88,-102.963 2173.3,-88.8378 2179.17,-79.5131"/>
<polygon fill="midnightblue" stroke="midnightblue" points="2118.21,-221.621 2118.89,-232.194 2124.95,-223.508 2118.21,-221.621"/>
</g>
<!-- Node20 -->
<g id="node39" class="node"><title>Node20</title>
<a xlink:href="texttranslator_8h.html" target="_top" xlink:title="texttranslator.h">
<polygon fill="white" stroke="black" points="262,-116.5 262,-137.5 344,-137.5 344,-116.5 262,-116.5"/>
<text text-anchor="middle" x="303" y="-124.5" font-family="Helvetica,sans-Serif" font-size="10.00">texttranslator.h</text>
</a>
</g>
<!-- Node1&#45;&gt;Node20 -->
<g id="edge98" class="edge"><title>Node1&#45;&gt;Node20</title>
<path fill="none" stroke="midnightblue" d="M2070.57,-242.706C1804.22,-240.866 454.38,-229.893 374,-196 345.017,-183.779 321.189,-153.771 309.957,-137.651"/>
<polygon fill="midnightblue" stroke="midnightblue" points="2070.63,-246.207 2080.66,-242.775 2070.68,-239.207 2070.63,-246.207"/>
</g>
<!-- Node22 -->
<g id="node44" class="node"><title>Node22</title>
<a xlink:href="prestackevents_8h.html" target="_top" xlink:title="prestackevents.h">
<polygon fill="white" stroke="red" points="1809,-58.5 1809,-79.5 1901,-79.5 1901,-58.5 1809,-58.5"/>
<text text-anchor="middle" x="1855" y="-66.5" font-family="Helvetica,sans-Serif" font-size="10.00">prestackevents.h</text>
</a>
</g>
<!-- Node1&#45;&gt;Node22 -->
<g id="edge140" class="edge"><title>Node1&#45;&gt;Node22</title>
<path fill="none" stroke="midnightblue" d="M2091.46,-226.019C2081.56,-217.992 2070.88,-207.617 2064,-196 2045.38,-164.553 2070.72,-141.961 2045,-116 2025.09,-95.9039 1950.71,-82.0671 1901.13,-74.8484"/>
<polygon fill="midnightblue" stroke="midnightblue" points="2089.42,-228.87 2099.49,-232.186 2093.69,-223.319 2089.42,-228.87"/>
</g>
<!-- Node29 -->
<g id="node58" class="node"><title>Node29</title>
<a xlink:href="netsocket_8h.html" target="_top" xlink:title="netsocket.h">
<polygon fill="white" stroke="red" points="176,-116.5 176,-137.5 244,-137.5 244,-116.5 176,-116.5"/>
<text text-anchor="middle" x="210" y="-124.5" font-family="Helvetica,sans-Serif" font-size="10.00">netsocket.h</text>
</a>
</g>
<!-- Node1&#45;&gt;Node29 -->
<g id="edge112" class="edge"><title>Node1&#45;&gt;Node29</title>
<path fill="none" stroke="midnightblue" d="M2070.64,-242.391C1801.69,-238.708 425.113,-218.798 339,-196 294.069,-184.105 247.456,-153.957 224.526,-137.73"/>
<polygon fill="midnightblue" stroke="midnightblue" points="2070.77,-245.893 2080.82,-242.53 2070.87,-238.894 2070.77,-245.893"/>
</g>
<!-- Node30 -->
<g id="node62" class="node"><title>Node30</title>
<a xlink:href="i__qptr_8h.html" target="_top" xlink:title="i_qptr.h">
<polygon fill="white" stroke="black" points="1987.5,-116.5 1987.5,-137.5 2036.5,-137.5 2036.5,-116.5 1987.5,-116.5"/>
<text text-anchor="middle" x="2012" y="-124.5" font-family="Helvetica,sans-Serif" font-size="10.00">i_qptr.h</text>
</a>
</g>
<!-- Node1&#45;&gt;Node30 -->
<g id="edge142" class="edge"><title>Node1&#45;&gt;Node30</title>
<path fill="none" stroke="midnightblue" d="M2071.16,-228.915C2054.65,-221.59 2037.25,-210.956 2026,-196 2013.07,-178.807 2011.3,-152.641 2011.46,-137.966"/>
<polygon fill="midnightblue" stroke="midnightblue" points="2070.14,-232.283 2080.72,-232.853 2072.81,-225.81 2070.14,-232.283"/>
</g>
<!-- Node31 -->
<g id="node65" class="node"><title>Node31</title>
<a xlink:href="uistring_8h.html" target="_top" xlink:title="uistring.h">
<polygon fill="white" stroke="red" points="383,-174.5 383,-195.5 439,-195.5 439,-174.5 383,-174.5"/>
<text text-anchor="middle" x="411" y="-182.5" font-family="Helvetica,sans-Serif" font-size="10.00">uistring.h</text>
</a>
</g>
<!-- Node1&#45;&gt;Node31 -->
<g id="edge68" class="edge"><title>Node1&#45;&gt;Node31</title>
<path fill="none" stroke="midnightblue" d="M2070.79,-242.815C1839.53,-241.703 787.112,-234.57 463,-196 455.212,-195.073 446.862,-193.549 439.183,-191.927"/>
<polygon fill="midnightblue" stroke="midnightblue" points="2070.85,-246.315 2080.87,-242.862 2070.88,-239.316 2070.85,-246.315"/>
</g>
<!-- Node32 -->
<g id="node72" class="node"><title>Node32</title>
<a xlink:href="seisblocksreader_8h.html" target="_top" xlink:title="seisblocksreader.h">
<polygon fill="white" stroke="black" points="362,-116.5 362,-137.5 460,-137.5 460,-116.5 362,-116.5"/>
<text text-anchor="middle" x="411" y="-124.5" font-family="Helvetica,sans-Serif" font-size="10.00">seisblocksreader.h</text>
</a>
</g>
<!-- Node1&#45;&gt;Node32 -->
<g id="edge126" class="edge"><title>Node1&#45;&gt;Node32</title>
<path fill="none" stroke="midnightblue" d="M2070.87,-242.272C1838.48,-238.428 782.148,-219.771 638,-196 599.696,-189.683 494.726,-155.259 442.034,-137.544"/>
<polygon fill="midnightblue" stroke="midnightblue" points="2070.94,-245.773 2080.99,-242.439 2071.05,-238.774 2070.94,-245.773"/>
</g>
<!-- Node33 -->
<g id="node74" class="node"><title>Node33</title>
<a xlink:href="perthreadrepos_8h.html" target="_top" xlink:title="perthreadrepos.h">
<polygon fill="white" stroke="red" points="2267.5,-174.5 2267.5,-195.5 2356.5,-195.5 2356.5,-174.5 2267.5,-174.5"/>
<text text-anchor="middle" x="2312" y="-182.5" font-family="Helvetica,sans-Serif" font-size="10.00">perthreadrepos.h</text>
</a>
</g>
<!-- Node1&#45;&gt;Node33 -->
<g id="edge82" class="edge"><title>Node1&#45;&gt;Node33</title>
<path fill="none" stroke="midnightblue" d="M2161,-229.684C2195.99,-219.329 2243.88,-205.159 2276.27,-195.573"/>
<polygon fill="midnightblue" stroke="midnightblue" points="2159.64,-226.437 2151.04,-232.631 2161.62,-233.149 2159.64,-226.437"/>
</g>
<!-- Node34 -->
<g id="node78" class="node"><title>Node34</title>
<a xlink:href="hiddenparam_8h.html" target="_top" xlink:title="hiddenparam.h">
<polygon fill="white" stroke="black" points="2374,-174.5 2374,-195.5 2454,-195.5 2454,-174.5 2374,-174.5"/>
<text text-anchor="middle" x="2414" y="-182.5" font-family="Helvetica,sans-Serif" font-size="10.00">hiddenparam.h</text>
</a>
</g>
<!-- Node1&#45;&gt;Node34 -->
<g id="edge88" class="edge"><title>Node1&#45;&gt;Node34</title>
<path fill="none" stroke="midnightblue" d="M2161.27,-234.936C2211.24,-225.923 2294.01,-210.664 2365,-196 2367.9,-195.4 2370.9,-194.766 2373.91,-194.117"/>
<polygon fill="midnightblue" stroke="midnightblue" points="2160.35,-231.546 2151.13,-236.762 2161.59,-238.436 2160.35,-231.546"/>
</g>
<!-- Node35 -->
<g id="node80" class="node"><title>Node35</title>
<a xlink:href="survgeom_8h.html" target="_top" xlink:title="survgeom.h">
<polygon fill="white" stroke="red" points="2182,-174.5 2182,-195.5 2250,-195.5 2250,-174.5 2182,-174.5"/>
<text text-anchor="middle" x="2216" y="-182.5" font-family="Helvetica,sans-Serif" font-size="10.00">survgeom.h</text>
</a>
</g>
<!-- Node1&#45;&gt;Node35 -->
<g id="edge90" class="edge"><title>Node1&#45;&gt;Node35</title>
<path fill="none" stroke="midnightblue" d="M2143.41,-227.101C2160.71,-217.066 2182.58,-204.381 2197.77,-195.571"/>
<polygon fill="midnightblue" stroke="midnightblue" points="2141.24,-224.317 2134.34,-232.362 2144.75,-230.372 2141.24,-224.317"/>
</g>
<!-- Node36 -->
<g id="node84" class="node"><title>Node36</title>
<a xlink:href="queue_8h.html" target="_top" xlink:title="queue.h">
<polygon fill="white" stroke="black" points="2471.5,-174.5 2471.5,-195.5 2522.5,-195.5 2522.5,-174.5 2471.5,-174.5"/>
<text text-anchor="middle" x="2497" y="-182.5" font-family="Helvetica,sans-Serif" font-size="10.00">queue.h</text>
</a>
</g>
<!-- Node1&#45;&gt;Node36 -->
<g id="edge96" class="edge"><title>Node1&#45;&gt;Node36</title>
<path fill="none" stroke="midnightblue" d="M2161.25,-239.464C2227.93,-233.671 2356.23,-220.298 2463,-196 2465.66,-195.394 2468.41,-194.672 2471.14,-193.891"/>
<polygon fill="midnightblue" stroke="midnightblue" points="2160.76,-235.993 2151.09,-240.329 2161.35,-242.968 2160.76,-235.993"/>
</g>
<!-- Node37 -->
<g id="node87" class="node"><title>Node37</title>
<a xlink:href="array2dinterpolimpl_8h.html" target="_top" xlink:title="array2dinterpolimpl.h">
<polygon fill="white" stroke="red" points="2539.5,-174.5 2539.5,-195.5 2646.5,-195.5 2646.5,-174.5 2539.5,-174.5"/>
<text text-anchor="middle" x="2593" y="-182.5" font-family="Helvetica,sans-Serif" font-size="10.00">array2dinterpolimpl.h</text>
</a>
</g>
<!-- Node1&#45;&gt;Node37 -->
<g id="edge100" class="edge"><title>Node1&#45;&gt;Node37</title>
<path fill="none" stroke="midnightblue" d="M2161.3,-238.81C2237.71,-231.532 2397.02,-215.453 2531,-196 2533.7,-195.607 2536.47,-195.186 2539.26,-194.747"/>
<polygon fill="midnightblue" stroke="midnightblue" points="2160.7,-235.351 2151.07,-239.778 2161.36,-242.32 2160.7,-235.351"/>
</g>
<!-- Node38 -->
<g id="node89" class="node"><title>Node38</title>
<a xlink:href="houghtransform_8h.html" target="_top" xlink:title="houghtransform.h">
<polygon fill="white" stroke="black" points="2664,-174.5 2664,-195.5 2756,-195.5 2756,-174.5 2664,-174.5"/>
<text text-anchor="middle" x="2710" y="-182.5" font-family="Helvetica,sans-Serif" font-size="10.00">houghtransform.h</text>
</a>
</g>
<!-- Node1&#45;&gt;Node38 -->
<g id="edge102" class="edge"><title>Node1&#45;&gt;Node38</title>
<path fill="none" stroke="midnightblue" d="M2161.33,-240.742C2254.27,-235.739 2473.02,-222.05 2655,-196 2657.89,-195.586 2660.86,-195.118 2663.85,-194.614"/>
<polygon fill="midnightblue" stroke="midnightblue" points="2160.95,-237.257 2151.15,-241.282 2161.32,-244.247 2160.95,-237.257"/>
</g>
<!-- Node39 -->
<g id="node92" class="node"><title>Node39</title>
<a xlink:href="coltabmapper_8h.html" target="_top" xlink:title="coltabmapper.h">
<polygon fill="white" stroke="red" points="1891.5,-174.5 1891.5,-195.5 1974.5,-195.5 1974.5,-174.5 1891.5,-174.5"/>
<text text-anchor="middle" x="1933" y="-182.5" font-family="Helvetica,sans-Serif" font-size="10.00">coltabmapper.h</text>
</a>
</g>
<!-- Node1&#45;&gt;Node39 -->
<g id="edge106" class="edge"><title>Node1&#45;&gt;Node39</title>
<path fill="none" stroke="midnightblue" d="M2073.13,-229.413C2040.48,-219.065 1996.18,-205.026 1966.2,-195.523"/>
<polygon fill="midnightblue" stroke="midnightblue" points="2072.27,-232.812 2082.86,-232.497 2074.38,-226.139 2072.27,-232.812"/>
</g>
<!-- Node40 -->
<g id="node97" class="node"><title>Node40</title>
<a xlink:href="geom2dintersections_8h.html" target="_top" xlink:title="geom2dintersections.h">
<polygon fill="white" stroke="red" points="2773.5,-174.5 2773.5,-195.5 2888.5,-195.5 2888.5,-174.5 2773.5,-174.5"/>
<text text-anchor="middle" x="2831" y="-182.5" font-family="Helvetica,sans-Serif" font-size="10.00">geom2dintersections.h</text>
</a>
</g>
<!-- Node1&#45;&gt;Node40 -->
<g id="edge114" class="edge"><title>Node1&#45;&gt;Node40</title>
<path fill="none" stroke="midnightblue" d="M2161.31,-241.168C2267.23,-236.571 2539.2,-222.934 2765,-196 2767.77,-195.67 2770.6,-195.305 2773.45,-194.914"/>
<polygon fill="midnightblue" stroke="midnightblue" points="2161.13,-237.673 2151.29,-241.598 2161.43,-244.666 2161.13,-237.673"/>
</g>
<!-- Node41 -->
<g id="node101" class="node"><title>Node41</title>
<a xlink:href="segyfiledata_8h.html" target="_top" xlink:title="segyfiledata.h">
<polygon fill="white" stroke="red" points="2905.5,-174.5 2905.5,-195.5 2982.5,-195.5 2982.5,-174.5 2905.5,-174.5"/>
<text text-anchor="middle" x="2944" y="-182.5" font-family="Helvetica,sans-Serif" font-size="10.00">segyfiledata.h</text>
</a>
</g>
<!-- Node1&#45;&gt;Node41 -->
<g id="edge120" class="edge"><title>Node1&#45;&gt;Node41</title>
<path fill="none" stroke="midnightblue" d="M2161.25,-241.289C2305.51,-235.674 2753.41,-216.968 2897,-196 2899.74,-195.6 2902.55,-195.121 2905.37,-194.589"/>
<polygon fill="midnightblue" stroke="midnightblue" points="2160.86,-237.801 2151,-241.685 2161.13,-244.796 2160.86,-237.801"/>
</g>
<!-- Node42 -->
<g id="node103" class="node"><title>Node42</title>
<a xlink:href="seisblocks_8h.html" target="_top" xlink:title="seisblocks.h">
<polygon fill="white" stroke="red" points="471.5,-174.5 471.5,-195.5 542.5,-195.5 542.5,-174.5 471.5,-174.5"/>
<text text-anchor="middle" x="507" y="-182.5" font-family="Helvetica,sans-Serif" font-size="10.00">seisblocks.h</text>
</a>
</g>
<!-- Node1&#45;&gt;Node42 -->
<g id="edge122" class="edge"><title>Node1&#45;&gt;Node42</title>
<path fill="none" stroke="midnightblue" d="M2070.69,-242.279C1849.83,-238.662 884.625,-221.649 585,-196 571.102,-194.81 555.896,-192.822 542.631,-190.861"/>
<polygon fill="midnightblue" stroke="midnightblue" points="2070.88,-245.783 2080.94,-242.446 2070.99,-238.783 2070.88,-245.783"/>
</g>
<!-- Node43 -->
<g id="node107" class="node"><title>Node43</title>
<a xlink:href="seisposindexer_8h.html" target="_top" xlink:title="seisposindexer.h">
<polygon fill="white" stroke="black" points="3000,-174.5 3000,-195.5 3090,-195.5 3090,-174.5 3000,-174.5"/>
<text text-anchor="middle" x="3045" y="-182.5" font-family="Helvetica,sans-Serif" font-size="10.00">seisposindexer.h</text>
</a>
</g>
<!-- Node1&#45;&gt;Node43 -->
<g id="edge128" class="edge"><title>Node1&#45;&gt;Node43</title>
<path fill="none" stroke="midnightblue" d="M2161.4,-241.447C2316.98,-235.985 2828,-216.864 2991,-196 2993.85,-195.636 2996.77,-195.206 2999.71,-194.73"/>
<polygon fill="midnightblue" stroke="midnightblue" points="2161.12,-237.954 2151.24,-241.801 2161.36,-244.95 2161.12,-237.954"/>
</g>
<!-- Node44 -->
<g id="node109" class="node"><title>Node44</title>
<a xlink:href="synthseis_8h.html" target="_top" xlink:title="synthseis.h">
<polygon fill="white" stroke="red" points="3107.5,-174.5 3107.5,-195.5 3174.5,-195.5 3174.5,-174.5 3107.5,-174.5"/>
<text text-anchor="middle" x="3141" y="-182.5" font-family="Helvetica,sans-Serif" font-size="10.00">synthseis.h</text>
</a>
</g>
<!-- Node1&#45;&gt;Node44 -->
<g id="edge130" class="edge"><title>Node1&#45;&gt;Node44</title>
<path fill="none" stroke="midnightblue" d="M2161.36,-242.086C2329.16,-238.509 2914.54,-224.249 3099,-196 3101.68,-195.589 3104.44,-195.076 3107.2,-194.498"/>
<polygon fill="midnightblue" stroke="midnightblue" points="2161.07,-238.591 2151.15,-242.301 2161.22,-245.59 2161.07,-238.591"/>
</g>
<!-- Node45 -->
<g id="node111" class="node"><title>Node45</title>
<a xlink:href="velocityfunction_8h.html" target="_top" xlink:title="velocityfunction.h">
<polygon fill="white" stroke="red" points="3191.5,-174.5 3191.5,-195.5 3284.5,-195.5 3284.5,-174.5 3191.5,-174.5"/>
<text text-anchor="middle" x="3238" y="-182.5" font-family="Helvetica,sans-Serif" font-size="10.00">velocityfunction.h</text>
</a>
</g>
<!-- Node1&#45;&gt;Node45 -->
<g id="edge132" class="edge"><title>Node1&#45;&gt;Node45</title>
<path fill="none" stroke="midnightblue" d="M2161.34,-241.93C2338.01,-237.619 2980.51,-220.561 3183,-196 3185.71,-195.672 3188.48,-195.284 3191.27,-194.853"/>
<polygon fill="midnightblue" stroke="midnightblue" points="2161.02,-238.437 2151.1,-242.179 2161.19,-245.435 2161.02,-238.437"/>
</g>
<!-- Node46 -->
<g id="node113" class="node"><title>Node46</title>
<a xlink:href="volprocchain_8h.html" target="_top" xlink:title="volprocchain.h">
<polygon fill="white" stroke="red" points="3302,-174.5 3302,-195.5 3382,-195.5 3382,-174.5 3302,-174.5"/>
<text text-anchor="middle" x="3342" y="-182.5" font-family="Helvetica,sans-Serif" font-size="10.00">volprocchain.h</text>
</a>
</g>
<!-- Node1&#45;&gt;Node46 -->
<g id="edge134" class="edge"><title>Node1&#45;&gt;Node46</title>
<path fill="none" stroke="midnightblue" d="M2161.35,-242.287C2349.35,-239.159 3068.12,-225.484 3293,-196 3295.94,-195.615 3298.96,-195.138 3301.99,-194.6"/>
<polygon fill="midnightblue" stroke="midnightblue" points="2161.2,-238.788 2151.26,-242.453 2161.32,-245.787 2161.2,-238.788"/>
</g>
<!-- Node47 -->
<g id="node115" class="node"><title>Node47</title>
<a xlink:href="volprocchainoutput_8h.html" target="_top" xlink:title="volprocchainoutput.h">
<polygon fill="white" stroke="black" points="3399.5,-174.5 3399.5,-195.5 3506.5,-195.5 3506.5,-174.5 3399.5,-174.5"/>
<text text-anchor="middle" x="3453" y="-182.5" font-family="Helvetica,sans-Serif" font-size="10.00">volprocchainoutput.h</text>
</a>
</g>
<!-- Node1&#45;&gt;Node47 -->
<g id="edge136" class="edge"><title>Node1&#45;&gt;Node47</title>
<path fill="none" stroke="midnightblue" d="M2161.18,-242.177C2358.41,-238.452 3145.13,-222.214 3391,-196 3393.72,-195.71 3396.5,-195.372 3399.3,-194.998"/>
<polygon fill="midnightblue" stroke="midnightblue" points="2161.09,-238.677 2151.16,-242.364 2161.22,-245.676 2161.09,-238.677"/>
</g>
<!-- Node48 -->
<g id="node117" class="node"><title>Node48</title>
<a xlink:href="prestackanglemutecomputer_8h.html" target="_top" xlink:title="prestackanglemutecomputer.h">
<polygon fill="white" stroke="black" points="3524,-174.5 3524,-195.5 3672,-195.5 3672,-174.5 3524,-174.5"/>
<text text-anchor="middle" x="3598" y="-182.5" font-family="Helvetica,sans-Serif" font-size="10.00">prestackanglemutecomputer.h</text>
</a>
</g>
<!-- Node1&#45;&gt;Node48 -->
<g id="edge138" class="edge"><title>Node1&#45;&gt;Node48</title>
<path fill="none" stroke="midnightblue" d="M2161.37,-242.076C2370.51,-237.726 3242.88,-218.548 3515,-196 3517.9,-195.76 3520.85,-195.49 3523.83,-195.197"/>
<polygon fill="midnightblue" stroke="midnightblue" points="2161,-238.583 2151.07,-242.29 2161.14,-245.582 2161,-238.583"/>
</g>
<!-- Node49 -->
<g id="node121" class="node"><title>Node49</title>
<a xlink:href="uislicesel_8h.html" target="_top" xlink:title="uislicesel.h">
<polygon fill="white" stroke="red" points="3689.5,-174.5 3689.5,-195.5 3754.5,-195.5 3754.5,-174.5 3689.5,-174.5"/>
<text text-anchor="middle" x="3722" y="-182.5" font-family="Helvetica,sans-Serif" font-size="10.00">uislicesel.h</text>
</a>
</g>
<!-- Node1&#45;&gt;Node49 -->
<g id="edge144" class="edge"><title>Node1&#45;&gt;Node49</title>
<path fill="none" stroke="midnightblue" d="M2161.44,-242.264C2402.59,-238.275 3527.47,-218.587 3681,-196 3683.77,-195.592 3686.62,-195.063 3689.47,-194.458"/>
<polygon fill="midnightblue" stroke="midnightblue" points="2161.21,-238.767 2151.27,-242.432 2161.33,-245.766 2161.21,-238.767"/>
</g>
<!-- Node50 -->
<g id="node125" class="node"><title>Node50</title>
<a xlink:href="vistexturecoords_8h.html" target="_top" xlink:title="vistexturecoords.h">
<polygon fill="white" stroke="black" points="3771.5,-174.5 3771.5,-195.5 3868.5,-195.5 3868.5,-174.5 3771.5,-174.5"/>
<text text-anchor="middle" x="3820" y="-182.5" font-family="Helvetica,sans-Serif" font-size="10.00">vistexturecoords.h</text>
</a>
</g>
<!-- Node1&#45;&gt;Node50 -->
<g id="edge150" class="edge"><title>Node1&#45;&gt;Node50</title>
<path fill="none" stroke="midnightblue" d="M2161.41,-242.7C2392.53,-241.021 3439.91,-231.548 3763,-196 3765.7,-195.702 3768.47,-195.345 3771.26,-194.944"/>
<polygon fill="midnightblue" stroke="midnightblue" points="2161.31,-239.2 2151.33,-242.772 2161.36,-246.2 2161.31,-239.2"/>
</g>
<!-- Node3 -->
<g id="node5" class="node"><title>Node3</title>
<a xlink:href="applicationdata_8h.html" target="_top" xlink:title="applicationdata.h">
<polygon fill="white" stroke="black" points="1572,-116.5 1572,-137.5 1662,-137.5 1662,-116.5 1572,-116.5"/>
<text text-anchor="middle" x="1617" y="-124.5" font-family="Helvetica,sans-Serif" font-size="10.00">applicationdata.h</text>
</a>
</g>
<!-- Node2&#45;&gt;Node3 -->
<g id="edge4" class="edge"><title>Node2&#45;&gt;Node3</title>
<path fill="none" stroke="midnightblue" d="M1392.45,-176.147C1440.72,-165.582 1521.22,-147.963 1571.59,-136.939"/>
<polygon fill="midnightblue" stroke="midnightblue" points="1391.68,-172.733 1382.66,-178.29 1393.17,-179.571 1391.68,-172.733"/>
</g>
<!-- Node4 -->
<g id="node7" class="node"><title>Node4</title>
<a xlink:href="namedobj_8h.html" target="_top" xlink:title="namedobj.h">
<polygon fill="white" stroke="red" points="839.5,-116.5 839.5,-137.5 906.5,-137.5 906.5,-116.5 839.5,-116.5"/>
<text text-anchor="middle" x="873" y="-124.5" font-family="Helvetica,sans-Serif" font-size="10.00">namedobj.h</text>
</a>
</g>
<!-- Node2&#45;&gt;Node4 -->
<g id="edge6" class="edge"><title>Node2&#45;&gt;Node4</title>
<path fill="none" stroke="midnightblue" d="M1311.39,-180.291C1239.93,-171.974 1087.01,-154.042 958,-138 941.166,-135.907 922.469,-133.497 906.907,-131.467"/>
<polygon fill="midnightblue" stroke="midnightblue" points="1311,-183.769 1321.33,-181.447 1311.81,-176.816 1311,-183.769"/>
</g>
<!-- Node6 -->
<g id="node11" class="node"><title>Node6</title>
<a xlink:href="threadwork_8h.html" target="_top" xlink:title="threadwork.h">
<polygon fill="white" stroke="red" points="564.5,-0.5 564.5,-21.5 637.5,-21.5 637.5,-0.5 564.5,-0.5"/>
<text text-anchor="middle" x="601" y="-8.5" font-family="Helvetica,sans-Serif" font-size="10.00">threadwork.h</text>
</a>
</g>
<!-- Node2&#45;&gt;Node6 -->
<g id="edge40" class="edge"><title>Node2&#45;&gt;Node6</title>
<path fill="none" stroke="midnightblue" d="M1311.35,-184.168C1228.32,-181.763 1042.71,-172.566 991,-138 956.902,-115.208 979.026,-80.8996 945,-58 895.368,-24.5978 715.881,-14.7372 637.756,-11.9928"/>
<polygon fill="midnightblue" stroke="midnightblue" points="1311.33,-187.669 1321.42,-184.441 1311.52,-180.671 1311.33,-187.669"/>
</g>
<!-- Node2&#45;&gt;Node7 -->
<g id="edge60" class="edge"><title>Node2&#45;&gt;Node7</title>
<path fill="none" stroke="midnightblue" d="M1355.11,-164.2C1360.66,-127.013 1372.12,-50.3605 1376.37,-21.9277"/>
<polygon fill="midnightblue" stroke="midnightblue" points="1351.6,-163.97 1353.59,-174.377 1358.53,-165.005 1351.6,-163.97"/>
</g>
<!-- Node13 -->
<g id="node25" class="node"><title>Node13</title>
<a xlink:href="coordsystem_8h.html" target="_top" xlink:title="coordsystem.h">
<polygon fill="white" stroke="red" points="1203.5,-116.5 1203.5,-137.5 1284.5,-137.5 1284.5,-116.5 1203.5,-116.5"/>
<text text-anchor="middle" x="1244" y="-124.5" font-family="Helvetica,sans-Serif" font-size="10.00">coordsystem.h</text>
</a>
</g>
<!-- Node2&#45;&gt;Node13 -->
<g id="edge24" class="edge"><title>Node2&#45;&gt;Node13</title>
<path fill="none" stroke="midnightblue" d="M1323.43,-169.656C1304.62,-159.556 1280.48,-146.593 1263.78,-137.621"/>
<polygon fill="midnightblue" stroke="midnightblue" points="1321.98,-172.849 1332.44,-174.497 1325.29,-166.682 1321.98,-172.849"/>
</g>
<!-- Node2&#45;&gt;Node14 -->
<g id="edge26" class="edge"><title>Node2&#45;&gt;Node14</title>
<path fill="none" stroke="midnightblue" d="M1311.27,-182.556C1223.31,-177.01 1009.16,-162.052 831,-138 828.227,-137.626 825.389,-137.214 822.526,-136.776"/>
<polygon fill="midnightblue" stroke="midnightblue" points="1311.16,-186.056 1321.36,-183.186 1311.6,-179.07 1311.16,-186.056"/>
</g>
<!-- Node15 -->
<g id="node29" class="node"><title>Node15</title>
<a xlink:href="msgh_8h.html" target="_top" xlink:title="msgh.h">
<polygon fill="white" stroke="black" points="1301.5,-116.5 1301.5,-137.5 1350.5,-137.5 1350.5,-116.5 1301.5,-116.5"/>
<text text-anchor="middle" x="1326" y="-124.5" font-family="Helvetica,sans-Serif" font-size="10.00">msgh.h</text>
</a>
</g>
<!-- Node2&#45;&gt;Node15 -->
<g id="edge28" class="edge"><title>Node2&#45;&gt;Node15</title>
<path fill="none" stroke="midnightblue" d="M1343.07,-165.079C1338.93,-155.842 1334.18,-145.239 1330.74,-137.571"/>
<polygon fill="midnightblue" stroke="midnightblue" points="1339.95,-166.669 1347.23,-174.362 1346.33,-163.805 1339.95,-166.669"/>
</g>
<!-- Node16 -->
<g id="node31" class="node"><title>Node16</title>
<a xlink:href="objdisposer_8h.html" target="_top" xlink:title="objdisposer.h">
<polygon fill="white" stroke="black" points="1406,-116.5 1406,-137.5 1480,-137.5 1480,-116.5 1406,-116.5"/>
<text text-anchor="middle" x="1443" y="-124.5" font-family="Helvetica,sans-Serif" font-size="10.00">objdisposer.h</text>
</a>
</g>
<!-- Node2&#45;&gt;Node16 -->
<g id="edge30" class="edge"><title>Node2&#45;&gt;Node16</title>
<path fill="none" stroke="midnightblue" d="M1377.38,-168.821C1393.06,-158.831 1412.72,-146.299 1426.42,-137.571"/>
<polygon fill="midnightblue" stroke="midnightblue" points="1375.24,-166.036 1368.69,-174.362 1379,-171.939 1375.24,-166.036"/>
</g>
<!-- Node2&#45;&gt;Node17 -->
<g id="edge32" class="edge"><title>Node2&#45;&gt;Node17</title>
<path fill="none" stroke="midnightblue" d="M1392.73,-182.25C1536.63,-172.534 2020.45,-139.866 2167.95,-129.907"/>
<polygon fill="midnightblue" stroke="midnightblue" points="1392.31,-178.77 1382.57,-182.936 1392.79,-185.754 1392.31,-178.77"/>
</g>
<!-- Node19 -->
<g id="node37" class="node"><title>Node19</title>
<a xlink:href="sighndl_8h.html" target="_top" xlink:title="sighndl.h">
<polygon fill="white" stroke="black" points="1498,-116.5 1498,-137.5 1554,-137.5 1554,-116.5 1498,-116.5"/>
<text text-anchor="middle" x="1526" y="-124.5" font-family="Helvetica,sans-Serif" font-size="10.00">sighndl.h</text>
</a>
</g>
<!-- Node2&#45;&gt;Node19 -->
<g id="edge36" class="edge"><title>Node2&#45;&gt;Node19</title>
<path fill="none" stroke="midnightblue" d="M1392.33,-171.557C1424.69,-160.769 1469.3,-145.899 1497.9,-136.367"/>
<polygon fill="midnightblue" stroke="midnightblue" points="1391.09,-168.282 1382.71,-174.764 1393.3,-174.922 1391.09,-168.282"/>
</g>
<!-- Node2&#45;&gt;Node20 -->
<g id="edge38" class="edge"><title>Node2&#45;&gt;Node20</title>
<path fill="none" stroke="midnightblue" d="M1310.99,-183.999C1147.63,-179.868 542.9,-163.171 353,-138 350.092,-137.615 347.103,-137.146 344.103,-136.621"/>
<polygon fill="midnightblue" stroke="midnightblue" points="1311.02,-187.501 1321.1,-184.253 1311.19,-180.503 1311.02,-187.501"/>
</g>
<!-- Node21 -->
<g id="node42" class="node"><title>Node21</title>
<a xlink:href="undo_8h.html" target="_top" xlink:title="undo.h">
<polygon fill="white" stroke="red" points="1832,-116.5 1832,-137.5 1878,-137.5 1878,-116.5 1832,-116.5"/>
<text text-anchor="middle" x="1855" y="-124.5" font-family="Helvetica,sans-Serif" font-size="10.00">undo.h</text>
</a>
</g>
<!-- Node2&#45;&gt;Node21 -->
<g id="edge42" class="edge"><title>Node2&#45;&gt;Node21</title>
<path fill="none" stroke="midnightblue" d="M1392.88,-184.095C1475.2,-181.579 1666.49,-172.223 1823,-138 1825.87,-137.373 1828.84,-136.571 1831.76,-135.686"/>
<polygon fill="midnightblue" stroke="midnightblue" points="1392.58,-180.602 1382.69,-184.388 1392.79,-187.599 1392.58,-180.602"/>
</g>
<!-- Node2&#45;&gt;Node22 -->
<g id="edge62" class="edge"><title>Node2&#45;&gt;Node22</title>
<path fill="none" stroke="midnightblue" d="M1393.09,-180.895C1467.25,-173.164 1620.43,-155.635 1671,-138 1689.43,-131.574 1691.17,-123.924 1709,-116 1743.55,-100.647 1784.7,-87.8651 1814.49,-79.5261"/>
<polygon fill="midnightblue" stroke="midnightblue" points="1392.34,-177.454 1382.75,-181.963 1393.05,-184.417 1392.34,-177.454"/>
</g>
<!-- Node23 -->
<g id="node46" class="node"><title>Node23</title>
<a xlink:href="dpsdispmgr_8h.html" target="_top" xlink:title="dpsdispmgr.h">
<polygon fill="white" stroke="red" points="1895.5,-116.5 1895.5,-137.5 1970.5,-137.5 1970.5,-116.5 1895.5,-116.5"/>
<text text-anchor="middle" x="1933" y="-124.5" font-family="Helvetica,sans-Serif" font-size="10.00">dpsdispmgr.h</text>
</a>
</g>
<!-- Node2&#45;&gt;Node23 -->
<g id="edge46" class="edge"><title>Node2&#45;&gt;Node23</title>
<path fill="none" stroke="midnightblue" d="M1392.69,-183.469C1482.44,-179.645 1703.97,-167.757 1887,-138 1889.76,-137.552 1892.59,-137.029 1895.44,-136.459"/>
<polygon fill="midnightblue" stroke="midnightblue" points="1392.5,-179.973 1382.66,-183.886 1392.79,-186.967 1392.5,-179.973"/>
</g>
<!-- Node24 -->
<g id="node48" class="node"><title>Node24</title>
<a xlink:href="transl_8h.html" target="_top" xlink:title="transl.h">
<polygon fill="white" stroke="red" points="477.5,-116.5 477.5,-137.5 526.5,-137.5 526.5,-116.5 477.5,-116.5"/>
<text text-anchor="middle" x="502" y="-124.5" font-family="Helvetica,sans-Serif" font-size="10.00">transl.h</text>
</a>
</g>
<!-- Node2&#45;&gt;Node24 -->
<g id="edge48" class="edge"><title>Node2&#45;&gt;Node24</title>
<path fill="none" stroke="midnightblue" d="M1311.08,-184.074C1167.38,-180.601 686.266,-167.03 535,-138 532.272,-137.476 529.459,-136.786 526.679,-136.005"/>
<polygon fill="midnightblue" stroke="midnightblue" points="1311.15,-187.577 1321.23,-184.316 1311.32,-180.579 1311.15,-187.577"/>
</g>
<!-- Node25 -->
<g id="node50" class="node"><title>Node25</title>
<a xlink:href="flatauxdataeditor_8h.html" target="_top" xlink:title="flatauxdataeditor.h">
<polygon fill="white" stroke="red" points="1717.5,-116.5 1717.5,-137.5 1814.5,-137.5 1814.5,-116.5 1717.5,-116.5"/>
<text text-anchor="middle" x="1766" y="-124.5" font-family="Helvetica,sans-Serif" font-size="10.00">flatauxdataeditor.h</text>
</a>
</g>
<!-- Node2&#45;&gt;Node25 -->
<g id="edge50" class="edge"><title>Node2&#45;&gt;Node25</title>
<path fill="none" stroke="midnightblue" d="M1392.6,-180.153C1458.2,-172.192 1591.52,-155.479 1704,-138 1708.32,-137.329 1712.81,-136.598 1717.3,-135.844"/>
<polygon fill="midnightblue" stroke="midnightblue" points="1392.18,-176.679 1382.67,-181.354 1393.02,-183.628 1392.18,-176.679"/>
</g>
<!-- Node26 -->
<g id="node52" class="node"><title>Node26</title>
<a xlink:href="menuhandler_8h.html" target="_top" xlink:title="menuhandler.h">
<polygon fill="white" stroke="red" points="544,-116.5 544,-137.5 624,-137.5 624,-116.5 544,-116.5"/>
<text text-anchor="middle" x="584" y="-124.5" font-family="Helvetica,sans-Serif" font-size="10.00">menuhandler.h</text>
</a>
</g>
<!-- Node2&#45;&gt;Node26 -->
<g id="edge52" class="edge"><title>Node2&#45;&gt;Node26</title>
<path fill="none" stroke="midnightblue" d="M1311.04,-182.218C1209.21,-175.253 936.363,-156.313 709,-138 680.662,-135.718 648.733,-132.904 624.238,-130.693"/>
<polygon fill="midnightblue" stroke="midnightblue" points="1310.99,-185.722 1321.2,-182.911 1311.46,-178.738 1310.99,-185.722"/>
</g>
<!-- Node27 -->
<g id="node54" class="node"><title>Node27</title>
<a xlink:href="pickretriever_8h.html" target="_top" xlink:title="pickretriever.h">
<polygon fill="white" stroke="red" points="1000,-116.5 1000,-137.5 1078,-137.5 1078,-116.5 1000,-116.5"/>
<text text-anchor="middle" x="1039" y="-124.5" font-family="Helvetica,sans-Serif" font-size="10.00">pickretriever.h</text>
</a>
</g>
<!-- Node2&#45;&gt;Node27 -->
<g id="edge54" class="edge"><title>Node2&#45;&gt;Node27</title>
<path fill="none" stroke="midnightblue" d="M1311.12,-178.398C1258.97,-169.827 1166.04,-154.055 1087,-138 1084.15,-137.421 1081.21,-136.802 1078.26,-136.164"/>
<polygon fill="midnightblue" stroke="midnightblue" points="1310.87,-181.903 1321.3,-180.065 1312,-174.995 1310.87,-181.903"/>
</g>
<!-- Node28 -->
<g id="node56" class="node"><title>Node28</title>
<a xlink:href="posimpexppars_8h.html" target="_top" xlink:title="posimpexppars.h">
<polygon fill="white" stroke="black" points="1095.5,-116.5 1095.5,-137.5 1186.5,-137.5 1186.5,-116.5 1095.5,-116.5"/>
<text text-anchor="middle" x="1141" y="-124.5" font-family="Helvetica,sans-Serif" font-size="10.00">posimpexppars.h</text>
</a>
</g>
<!-- Node2&#45;&gt;Node28 -->
<g id="edge56" class="edge"><title>Node2&#45;&gt;Node28</title>
<path fill="none" stroke="midnightblue" d="M1311.56,-173.885C1273.41,-163.398 1216.64,-147.792 1179.23,-137.508"/>
<polygon fill="midnightblue" stroke="midnightblue" points="1310.75,-177.291 1321.32,-176.566 1312.6,-170.541 1310.75,-177.291"/>
</g>
<!-- Node2&#45;&gt;Node29 -->
<g id="edge58" class="edge"><title>Node2&#45;&gt;Node29</title>
<path fill="none" stroke="midnightblue" d="M1311.19,-184.389C1138,-181.622 463.148,-169.028 253,-138 250.103,-137.572 247.119,-137.029 244.137,-136.414"/>
<polygon fill="midnightblue" stroke="midnightblue" points="1311.34,-187.892 1321.4,-184.55 1311.45,-180.893 1311.34,-187.892"/>
</g>
<!-- Node2&#45;&gt;Node30 -->
<g id="edge64" class="edge"><title>Node2&#45;&gt;Node30</title>
<path fill="none" stroke="midnightblue" d="M1393.04,-183.248C1513.75,-177.886 1866.15,-160.674 1979,-138 1981.72,-137.453 1984.53,-136.747 1987.31,-135.957"/>
<polygon fill="midnightblue" stroke="midnightblue" points="1392.59,-179.764 1382.76,-183.701 1392.9,-186.757 1392.59,-179.764"/>
</g>
<!-- Node4&#45;&gt;Node5 -->
<g id="edge8" class="edge"><title>Node4&#45;&gt;Node5</title>
<path fill="none" stroke="midnightblue" d="M828.883,-115.941C679.365,-93.4761 269.995,-74.3946 170.155,-69.9645"/>
<polygon fill="midnightblue" stroke="midnightblue" points="828.768,-119.466 839.191,-117.564 829.857,-112.551 828.768,-119.466"/>
</g>
<!-- Node4&#45;&gt;Node10 -->
<g id="edge18" class="edge"><title>Node4&#45;&gt;Node10</title>
<path fill="none" stroke="midnightblue" d="M829.536,-114.938C790.025,-103.973 732.59,-88.0344 696.807,-78.1044"/>
<polygon fill="midnightblue" stroke="midnightblue" points="828.849,-118.38 839.421,-117.681 830.721,-111.635 828.849,-118.38"/>
</g>
<!-- Node4&#45;&gt;Node11 -->
<g id="edge20" class="edge"><title>Node4&#45;&gt;Node11</title>
<path fill="none" stroke="midnightblue" d="M843.383,-111.932C823.456,-101.793 797.671,-88.6748 779.876,-79.6212"/>
<polygon fill="midnightblue" stroke="midnightblue" points="841.856,-115.081 852.355,-116.497 845.03,-108.843 841.856,-115.081"/>
</g>
<!-- Node4&#45;&gt;Node12 -->
<g id="edge22" class="edge"><title>Node4&#45;&gt;Node12</title>
<path fill="none" stroke="midnightblue" d="M875.87,-106.191C877.115,-97.1684 878.518,-86.9941 879.542,-79.5707"/>
<polygon fill="midnightblue" stroke="midnightblue" points="872.367,-105.977 874.467,-116.362 879.301,-106.934 872.367,-105.977"/>
</g>
<!-- Node5&#45;&gt;Node6 -->
<g id="edge10" class="edge"><title>Node5&#45;&gt;Node6</title>
<path fill="none" stroke="midnightblue" d="M180.113,-64.8884C261.875,-54.42 477.552,-26.8057 564.196,-15.7122"/>
<polygon fill="midnightblue" stroke="midnightblue" points="179.63,-61.4215 170.156,-66.1633 180.519,-68.3649 179.63,-61.4215"/>
</g>
<!-- Node5&#45;&gt;Node7 -->
<g id="edge12" class="edge"><title>Node5&#45;&gt;Node7</title>
<path fill="none" stroke="midnightblue" d="M180.139,-67.4845C349.028,-59.5206 1133.63,-22.5232 1332.22,-13.1585"/>
<polygon fill="midnightblue" stroke="midnightblue" points="179.958,-63.989 170.134,-67.9563 180.288,-70.9813 179.958,-63.989"/>
</g>
<!-- Node5&#45;&gt;Node8 -->
<g id="edge14" class="edge"><title>Node5&#45;&gt;Node8</title>
<path fill="none" stroke="midnightblue" d="M119.423,-53.794C100.406,-43.6746 75.898,-30.6338 58.9606,-21.6212"/>
<polygon fill="midnightblue" stroke="midnightblue" points="117.789,-56.8889 128.261,-58.4966 121.077,-50.7093 117.789,-56.8889"/>
</g>
<!-- Node5&#45;&gt;Node9 -->
<g id="edge16" class="edge"><title>Node5&#45;&gt;Node9</title>
<path fill="none" stroke="midnightblue" d="M144.463,-48.4876C142.895,-39.3924 141.116,-29.0756 139.823,-21.5707"/>
<polygon fill="midnightblue" stroke="midnightblue" points="141.018,-49.102 146.166,-58.3619 147.916,-47.9126 141.018,-49.102"/>
</g>
<!-- Node17&#45;&gt;Node18 -->
<g id="edge34" class="edge"><title>Node17&#45;&gt;Node18</title>
<path fill="none" stroke="midnightblue" d="M2202.41,-107.079C2198.43,-97.8422 2193.86,-87.2388 2190.56,-79.5707"/>
<polygon fill="midnightblue" stroke="midnightblue" points="2199.24,-108.564 2206.41,-116.362 2205.67,-105.793 2199.24,-108.564"/>
</g>
<!-- Node21&#45;&gt;Node22 -->
<g id="edge44" class="edge"><title>Node21&#45;&gt;Node22</title>
<path fill="none" stroke="midnightblue" d="M1855,-106.191C1855,-97.1684 1855,-86.9941 1855,-79.5707"/>
<polygon fill="midnightblue" stroke="midnightblue" points="1851.5,-106.362 1855,-116.362 1858.5,-106.362 1851.5,-106.362"/>
</g>
<!-- Node31&#45;&gt;Node5 -->
<g id="edge70" class="edge"><title>Node31&#45;&gt;Node5</title>
<path fill="none" stroke="midnightblue" d="M372.612,-182.469C311.611,-177.672 196.42,-165.199 167,-138 150.578,-122.818 147.856,-94.8729 147.687,-79.6188"/>
<polygon fill="midnightblue" stroke="midnightblue" points="372.393,-185.963 382.628,-183.226 372.92,-178.983 372.393,-185.963"/>
</g>
<!-- Node31&#45;&gt;Node20 -->
<g id="edge72" class="edge"><title>Node31&#45;&gt;Node20</title>
<path fill="none" stroke="midnightblue" d="M382.428,-169.656C363.622,-159.556 339.483,-146.593 322.777,-137.621"/>
<polygon fill="midnightblue" stroke="midnightblue" points="380.976,-172.849 391.442,-174.497 384.288,-166.682 380.976,-172.849"/>
</g>
<!-- Node31&#45;&gt;Node24 -->
<g id="edge74" class="edge"><title>Node31&#45;&gt;Node24</title>
<path fill="none" stroke="midnightblue" d="M436.384,-168.821C452.058,-158.831 471.72,-146.299 485.415,-137.571"/>
<polygon fill="midnightblue" stroke="midnightblue" points="434.242,-166.036 427.691,-174.362 438.005,-171.939 434.242,-166.036"/>
</g>
<!-- Node31&#45;&gt;Node26 -->
<g id="edge76" class="edge"><title>Node31&#45;&gt;Node26</title>
<path fill="none" stroke="midnightblue" d="M448.802,-172.326C479.888,-161.904 523.421,-147.31 552.609,-137.524"/>
<polygon fill="midnightblue" stroke="midnightblue" points="447.549,-169.055 439.18,-175.552 449.774,-175.692 447.549,-169.055"/>
</g>
<!-- Node31&#45;&gt;Node29 -->
<g id="edge78" class="edge"><title>Node31&#45;&gt;Node29</title>
<path fill="none" stroke="midnightblue" d="M372.696,-173.947C335.62,-163.249 279.934,-147.18 244.282,-136.892"/>
<polygon fill="midnightblue" stroke="midnightblue" points="372.05,-177.403 382.628,-176.813 373.99,-170.678 372.05,-177.403"/>
</g>
<!-- Node31&#45;&gt;Node32 -->
<g id="edge80" class="edge"><title>Node31&#45;&gt;Node32</title>
<path fill="none" stroke="midnightblue" d="M411,-164.191C411,-155.168 411,-144.994 411,-137.571"/>
<polygon fill="midnightblue" stroke="midnightblue" points="407.5,-164.362 411,-174.362 414.5,-164.362 407.5,-164.362"/>
</g>
<!-- Node35&#45;&gt;Node17 -->
<g id="edge92" class="edge"><title>Node35&#45;&gt;Node17</title>
<path fill="none" stroke="midnightblue" d="M2214.21,-164.191C2213.43,-155.168 2212.55,-144.994 2211.91,-137.571"/>
<polygon fill="midnightblue" stroke="midnightblue" points="2210.74,-164.699 2215.08,-174.362 2217.71,-164.098 2210.74,-164.699"/>
</g>
<!-- Node39&#45;&gt;Node23 -->
<g id="edge108" class="edge"><title>Node39&#45;&gt;Node23</title>
<path fill="none" stroke="midnightblue" d="M1933,-164.191C1933,-155.168 1933,-144.994 1933,-137.571"/>
<polygon fill="midnightblue" stroke="midnightblue" points="1929.5,-164.362 1933,-174.362 1936.5,-164.362 1929.5,-164.362"/>
</g>
<!-- Node42&#45;&gt;Node32 -->
<g id="edge124" class="edge"><title>Node42&#45;&gt;Node32</title>
<path fill="none" stroke="midnightblue" d="M480.684,-169.101C464.074,-159.066 443.079,-146.381 428.496,-137.571"/>
<polygon fill="midnightblue" stroke="midnightblue" points="479.023,-172.186 489.392,-174.362 482.643,-166.195 479.023,-172.186"/>
</g>
</g>
</svg>
