<?xml version="1.0" encoding="UTF-8" standalone="no"?>
<!DOCTYPE svg PUBLIC "-//W3C//DTD SVG 1.1//EN"
 "http://www.w3.org/Graphics/SVG/1.1/DTD/svg11.dtd">
<!-- Generated by graphviz version 2.26.0 (20091210.2329)
 -->
<!-- Title: uiaction.h Pages: 1 -->
<svg width="294pt" height="146pt"
 viewBox="0.00 0.00 294.00 146.00" xmlns="http://www.w3.org/2000/svg" xmlns:xlink="http://www.w3.org/1999/xlink">
<g id="graph1" class="graph" transform="scale(1 1) rotate(0) translate(4 142)">
<title>uiaction.h</title>
<polygon fill="white" stroke="white" points="-4,5 -4,-142 291,-142 291,5 -4,5"/>
<!-- Node1 -->
<g id="node1" class="node"><title>Node1</title>
<polygon fill="#bfbfbf" stroke="black" points="131.5,-116.5 131.5,-137.5 190.5,-137.5 190.5,-116.5 131.5,-116.5"/>
<text text-anchor="middle" x="161" y="-124.5" font-family="Helvetica,sans-Serif" font-size="10.00">uiaction.h</text>
</g>
<!-- Node2 -->
<g id="node3" class="node"><title>Node2</title>
<a xlink:href="uimenu_8h.html" target="_top" xlink:title="uimenu.h">
<polygon fill="white" stroke="black" points="41,-58.5 41,-79.5 97,-79.5 97,-58.5 41,-58.5"/>
<text text-anchor="middle" x="69" y="-66.5" font-family="Helvetica,sans-Serif" font-size="10.00">uimenu.h</text>
</a>
</g>
<!-- Node1&#45;&gt;Node2 -->
<g id="edge2" class="edge"><title>Node1&#45;&gt;Node2</title>
<path fill="none" stroke="midnightblue" d="M135.338,-110.821C119.491,-100.831 99.6126,-88.2993 85.7672,-79.5707"/>
<polygon fill="midnightblue" stroke="midnightblue" points="133.8,-113.99 144.126,-116.362 137.533,-108.068 133.8,-113.99"/>
</g>
<!-- Node4 -->
<g id="node7" class="node"><title>Node4</title>
<a xlink:href="uitoolbar_8h.html" target="_top" xlink:title="uitoolbar.h">
<polygon fill="white" stroke="black" points="130,-58.5 130,-79.5 192,-79.5 192,-58.5 130,-58.5"/>
<text text-anchor="middle" x="161" y="-66.5" font-family="Helvetica,sans-Serif" font-size="10.00">uitoolbar.h</text>
</a>
</g>
<!-- Node1&#45;&gt;Node4 -->
<g id="edge6" class="edge"><title>Node1&#45;&gt;Node4</title>
<path fill="none" stroke="midnightblue" d="M161,-106.191C161,-97.1684 161,-86.9941 161,-79.5707"/>
<polygon fill="midnightblue" stroke="midnightblue" points="157.5,-106.362 161,-116.362 164.5,-106.362 157.5,-106.362"/>
</g>
<!-- Node7 -->
<g id="node13" class="node"><title>Node7</title>
<a xlink:href="i__qaction_8h.html" target="_top" xlink:title="i_qaction.h">
<polygon fill="white" stroke="black" points="210,-58.5 210,-79.5 274,-79.5 274,-58.5 210,-58.5"/>
<text text-anchor="middle" x="242" y="-66.5" font-family="Helvetica,sans-Serif" font-size="10.00">i_qaction.h</text>
</a>
</g>
<!-- Node1&#45;&gt;Node7 -->
<g id="edge12" class="edge"><title>Node1&#45;&gt;Node7</title>
<path fill="none" stroke="midnightblue" d="M184.38,-110.259C198.198,-100.364 215.275,-88.1361 227.238,-79.5707"/>
<polygon fill="midnightblue" stroke="midnightblue" points="181.95,-107.694 175.857,-116.362 186.025,-113.386 181.95,-107.694"/>
</g>
<!-- Node3 -->
<g id="node5" class="node"><title>Node3</title>
<a xlink:href="menubutcommands_8h.html" target="_top" xlink:title="menubutcommands.h">
<polygon fill="white" stroke="black" points="0,-0.5 0,-21.5 110,-21.5 110,-0.5 0,-0.5"/>
<text text-anchor="middle" x="55" y="-8.5" font-family="Helvetica,sans-Serif" font-size="10.00">menubutcommands.h</text>
</a>
</g>
<!-- Node2&#45;&gt;Node3 -->
<g id="edge4" class="edge"><title>Node2&#45;&gt;Node3</title>
<path fill="none" stroke="midnightblue" d="M64.0487,-48.4876C61.8533,-39.3924 59.3631,-29.0756 57.5515,-21.5707"/>
<polygon fill="midnightblue" stroke="midnightblue" points="60.6834,-49.4623 66.4322,-58.3619 67.488,-47.8198 60.6834,-49.4623"/>
</g>
<!-- Node5 -->
<g id="node9" class="node"><title>Node5</title>
<a xlink:href="i__qtoolbar_8h.html" target="_top" xlink:title="i_qtoolbar.h">
<polygon fill="white" stroke="black" points="127.5,-0.5 127.5,-21.5 194.5,-21.5 194.5,-0.5 127.5,-0.5"/>
<text text-anchor="middle" x="161" y="-8.5" font-family="Helvetica,sans-Serif" font-size="10.00">i_qtoolbar.h</text>
</a>
</g>
<!-- Node4&#45;&gt;Node5 -->
<g id="edge8" class="edge"><title>Node4&#45;&gt;Node5</title>
<path fill="none" stroke="midnightblue" d="M161,-48.1906C161,-39.1684 161,-28.9941 161,-21.5707"/>
<polygon fill="midnightblue" stroke="midnightblue" points="157.5,-48.3619 161,-58.3619 164.5,-48.3619 157.5,-48.3619"/>
</g>
<!-- Node6 -->
<g id="node11" class="node"><title>Node6</title>
<a xlink:href="uicolortable_8h.html" target="_top" xlink:title="uicolortable.h">
<polygon fill="white" stroke="black" points="212,-0.5 212,-21.5 286,-21.5 286,-0.5 212,-0.5"/>
<text text-anchor="middle" x="249" y="-8.5" font-family="Helvetica,sans-Serif" font-size="10.00">uicolortable.h</text>
</a>
</g>
<!-- Node4&#45;&gt;Node6 -->
<g id="edge10" class="edge"><title>Node4&#45;&gt;Node6</title>
<path fill="none" stroke="midnightblue" d="M185.547,-52.8215C200.704,-42.8312 219.718,-30.2993 232.962,-21.5707"/>
<polygon fill="midnightblue" stroke="midnightblue" points="183.564,-49.9364 177.141,-58.3619 187.416,-55.7811 183.564,-49.9364"/>
</g>
</g>
</svg>
