<?xml version="1.0" encoding="UTF-8" standalone="no"?>
<!DOCTYPE svg PUBLIC "-//W3C//DTD SVG 1.1//EN"
 "http://www.w3.org/Graphics/SVG/1.1/DTD/svg11.dtd">
<!-- Generated by graphviz version 2.26.0 (20091210.2329)
 -->
<!-- Title: uiaxishandler.h Pages: 1 -->
<svg width="643pt" height="204pt"
 viewBox="0.00 0.00 643.00 204.00" xmlns="http://www.w3.org/2000/svg" xmlns:xlink="http://www.w3.org/1999/xlink">
<g id="graph1" class="graph" transform="scale(1 1) rotate(0) translate(4 200)">
<title>uiaxishandler.h</title>
<polygon fill="white" stroke="white" points="-4,5 -4,-200 640,-200 640,5 -4,5"/>
<!-- Node1 -->
<g id="node1" class="node"><title>Node1</title>
<polygon fill="#bfbfbf" stroke="black" points="259,-174.5 259,-195.5 341,-195.5 341,-174.5 259,-174.5"/>
<text text-anchor="middle" x="300" y="-182.5" font-family="Helvetica,sans-Serif" font-size="10.00">uiaxishandler.h</text>
</g>
<!-- Node2 -->
<g id="node3" class="node"><title>Node2</title>
<a xlink:href="uiaxisdata_8h.html" target="_top" xlink:title="uiaxisdata.h">
<polygon fill="white" stroke="black" points="157.5,-116.5 157.5,-137.5 226.5,-137.5 226.5,-116.5 157.5,-116.5"/>
<text text-anchor="middle" x="192" y="-124.5" font-family="Helvetica,sans-Serif" font-size="10.00">uiaxisdata.h</text>
</a>
</g>
<!-- Node1&#45;&gt;Node2 -->
<g id="edge2" class="edge"><title>Node1&#45;&gt;Node2</title>
<path fill="none" stroke="midnightblue" d="M271.428,-169.656C252.622,-159.556 228.483,-146.593 211.777,-137.621"/>
<polygon fill="midnightblue" stroke="midnightblue" points="269.976,-172.849 280.442,-174.497 273.288,-166.682 269.976,-172.849"/>
</g>
<!-- Node3 -->
<g id="node5" class="node"><title>Node3</title>
<a xlink:href="uidatapointsetcrossplot_8h.html" target="_top" xlink:title="uidatapointsetcrossplot.h">
<polygon fill="white" stroke="black" points="140.5,-58.5 140.5,-79.5 265.5,-79.5 265.5,-58.5 140.5,-58.5"/>
<text text-anchor="middle" x="203" y="-66.5" font-family="Helvetica,sans-Serif" font-size="10.00">uidatapointsetcrossplot.h</text>
</a>
</g>
<!-- Node1&#45;&gt;Node3 -->
<g id="edge16" class="edge"><title>Node1&#45;&gt;Node3</title>
<path fill="none" stroke="midnightblue" d="M284.466,-166.424C263.936,-141.872 228.443,-99.4272 211.93,-79.6792"/>
<polygon fill="midnightblue" stroke="midnightblue" points="281.948,-168.869 291.048,-174.295 287.318,-164.378 281.948,-168.869"/>
</g>
<!-- Node7 -->
<g id="node13" class="node"><title>Node7</title>
<a xlink:href="uigraphicssceneaxismgr_8h.html" target="_top" xlink:title="uigraphicssceneaxismgr.h">
<polygon fill="white" stroke="black" points="282,-116.5 282,-137.5 412,-137.5 412,-116.5 282,-116.5"/>
<text text-anchor="middle" x="347" y="-124.5" font-family="Helvetica,sans-Serif" font-size="10.00">uigraphicssceneaxismgr.h</text>
</a>
</g>
<!-- Node1&#45;&gt;Node7 -->
<g id="edge12" class="edge"><title>Node1&#45;&gt;Node7</title>
<path fill="none" stroke="midnightblue" d="M314.958,-166.541C322.707,-156.979 331.89,-145.647 338.434,-137.571"/>
<polygon fill="midnightblue" stroke="midnightblue" points="312.197,-164.389 308.621,-174.362 317.636,-168.796 312.197,-164.389"/>
</g>
<!-- Node9 -->
<g id="node18" class="node"><title>Node9</title>
<a xlink:href="uiwelldahdisplay_8h.html" target="_top" xlink:title="uiwelldahdisplay.h">
<polygon fill="white" stroke="black" points="430,-116.5 430,-137.5 526,-137.5 526,-116.5 430,-116.5"/>
<text text-anchor="middle" x="478" y="-124.5" font-family="Helvetica,sans-Serif" font-size="10.00">uiwelldahdisplay.h</text>
</a>
</g>
<!-- Node1&#45;&gt;Node9 -->
<g id="edge18" class="edge"><title>Node1&#45;&gt;Node9</title>
<path fill="none" stroke="midnightblue" d="M342.11,-171.279C373.828,-160.944 416.667,-146.985 445.705,-137.523"/>
<polygon fill="midnightblue" stroke="midnightblue" points="340.658,-168.071 332.234,-174.497 342.827,-174.726 340.658,-168.071"/>
</g>
<!-- Node2&#45;&gt;Node3 -->
<g id="edge4" class="edge"><title>Node2&#45;&gt;Node3</title>
<path fill="none" stroke="midnightblue" d="M195.89,-106.488C197.615,-97.3924 199.572,-87.0756 200.995,-79.5707"/>
<polygon fill="midnightblue" stroke="midnightblue" points="192.442,-105.885 194.018,-116.362 199.32,-107.189 192.442,-105.885"/>
</g>
<!-- Node4 -->
<g id="node7" class="node"><title>Node4</title>
<a xlink:href="uidatapointsetcrossplotwin_8h.html" target="_top" xlink:title="uidatapointsetcrossplotwin.h">
<polygon fill="white" stroke="black" points="0,-0.5 0,-21.5 140,-21.5 140,-0.5 0,-0.5"/>
<text text-anchor="middle" x="70" y="-8.5" font-family="Helvetica,sans-Serif" font-size="10.00">uidatapointsetcrossplotwin.h</text>
</a>
</g>
<!-- Node3&#45;&gt;Node4 -->
<g id="edge6" class="edge"><title>Node3&#45;&gt;Node4</title>
<path fill="none" stroke="midnightblue" d="M169.703,-54.4794C146.29,-44.2695 115.492,-30.8386 94.3556,-21.6212"/>
<polygon fill="midnightblue" stroke="midnightblue" points="168.349,-57.7075 178.915,-58.4966 171.147,-51.291 168.349,-57.7075"/>
</g>
<!-- Node5 -->
<g id="node9" class="node"><title>Node5</title>
<a xlink:href="uiimpexpselgrp_8h.html" target="_top" xlink:title="uiimpexpselgrp.h">
<polygon fill="white" stroke="black" points="158,-0.5 158,-21.5 248,-21.5 248,-0.5 158,-0.5"/>
<text text-anchor="middle" x="203" y="-8.5" font-family="Helvetica,sans-Serif" font-size="10.00">uiimpexpselgrp.h</text>
</a>
</g>
<!-- Node3&#45;&gt;Node5 -->
<g id="edge8" class="edge"><title>Node3&#45;&gt;Node5</title>
<path fill="none" stroke="midnightblue" d="M203,-48.1906C203,-39.1684 203,-28.9941 203,-21.5707"/>
<polygon fill="midnightblue" stroke="midnightblue" points="199.5,-48.3619 203,-58.3619 206.5,-48.3619 199.5,-48.3619"/>
</g>
<!-- Node6 -->
<g id="node11" class="node"><title>Node6</title>
<a xlink:href="densitycalc_8h.html" target="_top" xlink:title="densitycalc.h">
<polygon fill="white" stroke="black" points="266,-0.5 266,-21.5 340,-21.5 340,-0.5 266,-0.5"/>
<text text-anchor="middle" x="303" y="-8.5" font-family="Helvetica,sans-Serif" font-size="10.00">densitycalc.h</text>
</a>
</g>
<!-- Node3&#45;&gt;Node6 -->
<g id="edge10" class="edge"><title>Node3&#45;&gt;Node6</title>
<path fill="none" stroke="midnightblue" d="M230.412,-53.1009C247.714,-43.0658 269.585,-30.3808 284.775,-21.5707"/>
<polygon fill="midnightblue" stroke="midnightblue" points="228.236,-50.3171 221.342,-58.3619 231.748,-56.3723 228.236,-50.3171"/>
</g>
<!-- Node8 -->
<g id="node15" class="node"><title>Node8</title>
<a xlink:href="flatviewaxesdrawer_8h.html" target="_top" xlink:title="flatviewaxesdrawer.h">
<polygon fill="white" stroke="black" points="292.5,-58.5 292.5,-79.5 401.5,-79.5 401.5,-58.5 292.5,-58.5"/>
<text text-anchor="middle" x="347" y="-66.5" font-family="Helvetica,sans-Serif" font-size="10.00">flatviewaxesdrawer.h</text>
</a>
</g>
<!-- Node7&#45;&gt;Node8 -->
<g id="edge14" class="edge"><title>Node7&#45;&gt;Node8</title>
<path fill="none" stroke="midnightblue" d="M347,-106.191C347,-97.1684 347,-86.9941 347,-79.5707"/>
<polygon fill="midnightblue" stroke="midnightblue" points="343.5,-106.362 347,-116.362 350.5,-106.362 343.5,-106.362"/>
</g>
<!-- Node10 -->
<g id="node20" class="node"><title>Node10</title>
<a xlink:href="uiwelllogdisplay_8h.html" target="_top" xlink:title="uiwelllogdisplay.h">
<polygon fill="white" stroke="black" points="424.5,-58.5 424.5,-79.5 517.5,-79.5 517.5,-58.5 424.5,-58.5"/>
<text text-anchor="middle" x="471" y="-66.5" font-family="Helvetica,sans-Serif" font-size="10.00">uiwelllogdisplay.h</text>
</a>
</g>
<!-- Node9&#45;&gt;Node10 -->
<g id="edge20" class="edge"><title>Node9&#45;&gt;Node10</title>
<path fill="none" stroke="midnightblue" d="M475.489,-106.191C474.4,-97.1684 473.172,-86.9941 472.276,-79.5707"/>
<polygon fill="midnightblue" stroke="midnightblue" points="472.043,-106.853 476.716,-116.362 478.993,-106.015 472.043,-106.853"/>
</g>
<!-- Node11 -->
<g id="node22" class="node"><title>Node11</title>
<a xlink:href="uiwellstratdisplay_8h.html" target="_top" xlink:title="uiwellstratdisplay.h">
<polygon fill="white" stroke="black" points="535,-58.5 535,-79.5 635,-79.5 635,-58.5 535,-58.5"/>
<text text-anchor="middle" x="585" y="-66.5" font-family="Helvetica,sans-Serif" font-size="10.00">uiwellstratdisplay.h</text>
</a>
</g>
<!-- Node9&#45;&gt;Node11 -->
<g id="edge22" class="edge"><title>Node9&#45;&gt;Node11</title>
<path fill="none" stroke="midnightblue" d="M506.563,-111.517C525.193,-101.419 549.02,-88.5032 565.499,-79.5707"/>
<polygon fill="midnightblue" stroke="midnightblue" points="504.749,-108.519 497.625,-116.362 508.085,-114.673 504.749,-108.519"/>
</g>
</g>
</svg>
