<?xml version="1.0" encoding="UTF-8" standalone="no"?>
<!DOCTYPE svg PUBLIC "-//W3C//DTD SVG 1.1//EN"
 "http://www.w3.org/Graphics/SVG/1.1/DTD/svg11.dtd">
<!-- Generated by graphviz version 2.26.0 (20091210.2329)
 -->
<!-- Title: uibaseobject.h Pages: 1 -->
<svg width="1865pt" height="378pt"
 viewBox="0.00 0.00 1865.00 378.00" xmlns="http://www.w3.org/2000/svg" xmlns:xlink="http://www.w3.org/1999/xlink">
<g id="graph1" class="graph" transform="scale(1 1) rotate(0) translate(4 374)">
<title>uibaseobject.h</title>
<polygon fill="white" stroke="white" points="-4,5 -4,-374 1862,-374 1862,5 -4,5"/>
<!-- Node1 -->
<g id="node1" class="node"><title>Node1</title>
<polygon fill="#bfbfbf" stroke="black" points="519,-348.5 519,-369.5 599,-369.5 599,-348.5 519,-348.5"/>
<text text-anchor="middle" x="559" y="-356.5" font-family="Helvetica,sans-Serif" font-size="10.00">uibaseobject.h</text>
</g>
<!-- Node2 -->
<g id="node3" class="node"><title>Node2</title>
<a xlink:href="uiobj_8h.html" target="_top" xlink:title="uiobj.h">
<polygon fill="white" stroke="black" points="865.5,-290.5 865.5,-311.5 910.5,-311.5 910.5,-290.5 865.5,-290.5"/>
<text text-anchor="middle" x="888" y="-298.5" font-family="Helvetica,sans-Serif" font-size="10.00">uiobj.h</text>
</a>
</g>
<!-- Node1&#45;&gt;Node2 -->
<g id="edge2" class="edge"><title>Node1&#45;&gt;Node2</title>
<path fill="none" stroke="midnightblue" d="M609.271,-350.138C681.787,-337.354 812.794,-314.258 865.317,-304.999"/>
<polygon fill="midnightblue" stroke="midnightblue" points="608.253,-346.763 599.013,-351.946 609.469,-353.657 608.253,-346.763"/>
</g>
<!-- Node47 -->
<g id="node110" class="node"><title>Node47</title>
<a xlink:href="uiaction_8h.html" target="_top" xlink:title="uiaction.h">
<polygon fill="white" stroke="black" points="201.5,-290.5 201.5,-311.5 260.5,-311.5 260.5,-290.5 201.5,-290.5"/>
<text text-anchor="middle" x="231" y="-298.5" font-family="Helvetica,sans-Serif" font-size="10.00">uiaction.h</text>
</a>
</g>
<!-- Node1&#45;&gt;Node47 -->
<g id="edge126" class="edge"><title>Node1&#45;&gt;Node47</title>
<path fill="none" stroke="midnightblue" d="M508.557,-350.08C439.343,-337.841 317.124,-316.229 260.868,-306.282"/>
<polygon fill="midnightblue" stroke="midnightblue" points="508.324,-353.593 518.781,-351.888 509.543,-346.7 508.324,-353.593"/>
</g>
<!-- Node48 -->
<g id="node112" class="node"><title>Node48</title>
<a xlink:href="uimenu_8h.html" target="_top" xlink:title="uimenu.h">
<polygon fill="white" stroke="black" points="0,-232.5 0,-253.5 56,-253.5 56,-232.5 0,-232.5"/>
<text text-anchor="middle" x="28" y="-240.5" font-family="Helvetica,sans-Serif" font-size="10.00">uimenu.h</text>
</a>
</g>
<!-- Node1&#45;&gt;Node48 -->
<g id="edge136" class="edge"><title>Node1&#45;&gt;Node48</title>
<path fill="none" stroke="midnightblue" d="M508.73,-356.808C437.418,-352.744 303.289,-341.564 193,-312 138.716,-297.449 78.7109,-268.981 48.2105,-253.55"/>
<polygon fill="midnightblue" stroke="midnightblue" points="508.609,-360.307 518.785,-357.357 508.991,-353.317 508.609,-360.307"/>
</g>
<!-- Node50 -->
<g id="node119" class="node"><title>Node50</title>
<a xlink:href="uistatusbar_8h.html" target="_top" xlink:title="uistatusbar.h">
<polygon fill="white" stroke="black" points="927.5,-290.5 927.5,-311.5 1000.5,-311.5 1000.5,-290.5 927.5,-290.5"/>
<text text-anchor="middle" x="964" y="-298.5" font-family="Helvetica,sans-Serif" font-size="10.00">uistatusbar.h</text>
</a>
</g>
<!-- Node1&#45;&gt;Node50 -->
<g id="edge138" class="edge"><title>Node1&#45;&gt;Node50</title>
<path fill="none" stroke="midnightblue" d="M609.457,-354.181C679.342,-347.105 809.386,-332.488 919,-312 921.688,-311.498 924.456,-310.935 927.234,-310.336"/>
<polygon fill="midnightblue" stroke="midnightblue" points="608.782,-350.731 599.181,-355.211 609.48,-357.696 608.782,-350.731"/>
</g>
<!-- Node3 -->
<g id="node5" class="node"><title>Node3</title>
<a xlink:href="i__layout_8h.html" target="_top" xlink:title="i_layout.h">
<polygon fill="white" stroke="black" points="1791.5,-58.5 1791.5,-79.5 1850.5,-79.5 1850.5,-58.5 1791.5,-58.5"/>
<text text-anchor="middle" x="1821" y="-66.5" font-family="Helvetica,sans-Serif" font-size="10.00">i_layout.h</text>
</a>
</g>
<!-- Node2&#45;&gt;Node3 -->
<g id="edge4" class="edge"><title>Node2&#45;&gt;Node3</title>
<path fill="none" stroke="midnightblue" d="M920.675,-290.227C1094.53,-260.016 1497.99,-299.955 1651,-254 1699.47,-239.442 1713.55,-232.12 1749,-196 1784.33,-160.004 1808.24,-103.229 1817.14,-79.7311"/>
<polygon fill="midnightblue" stroke="midnightblue" points="920.002,-286.793 910.813,-292.067 921.286,-293.674 920.002,-286.793"/>
</g>
<!-- Node5 -->
<g id="node9" class="node"><title>Node5</title>
<a xlink:href="uiparent_8h.html" target="_top" xlink:title="uiparent.h">
<polygon fill="white" stroke="black" points="1383.5,-232.5 1383.5,-253.5 1442.5,-253.5 1442.5,-232.5 1383.5,-232.5"/>
<text text-anchor="middle" x="1413" y="-240.5" font-family="Helvetica,sans-Serif" font-size="10.00">uiparent.h</text>
</a>
</g>
<!-- Node2&#45;&gt;Node5 -->
<g id="edge8" class="edge"><title>Node2&#45;&gt;Node5</title>
<path fill="none" stroke="midnightblue" d="M920.616,-290.079C1117.49,-249.259 1174.85,-286.505 1370,-254 1374.26,-253.291 1378.71,-252.366 1383.07,-251.353"/>
<polygon fill="midnightblue" stroke="midnightblue" points="919.89,-286.656 910.83,-292.148 921.338,-293.504 919.89,-286.656"/>
</g>
<!-- Node7 -->
<g id="node13" class="node"><title>Node7</title>
<a xlink:href="uiobjbody_8h.html" target="_top" xlink:title="uiobjbody.h">
<polygon fill="white" stroke="black" points="1683,-58.5 1683,-79.5 1749,-79.5 1749,-58.5 1683,-58.5"/>
<text text-anchor="middle" x="1716" y="-66.5" font-family="Helvetica,sans-Serif" font-size="10.00">uiobjbody.h</text>
</a>
</g>
<!-- Node2&#45;&gt;Node7 -->
<g id="edge78" class="edge"><title>Node2&#45;&gt;Node7</title>
<path fill="none" stroke="midnightblue" d="M920.862,-290.2C1085.41,-261.826 1466.12,-303.219 1608,-254 1689.97,-225.566 1726.77,-215.883 1765,-138 1776,-115.578 1750.79,-92.5076 1732.6,-79.5377"/>
<polygon fill="midnightblue" stroke="midnightblue" points="920.003,-286.8 910.815,-292.076 921.287,-293.681 920.003,-286.8"/>
</g>
<!-- Node9 -->
<g id="node18" class="node"><title>Node9</title>
<a xlink:href="uiparentbody_8h.html" target="_top" xlink:title="uiparentbody.h">
<polygon fill="white" stroke="black" points="1676,-116.5 1676,-137.5 1756,-137.5 1756,-116.5 1676,-116.5"/>
<text text-anchor="middle" x="1716" y="-124.5" font-family="Helvetica,sans-Serif" font-size="10.00">uiparentbody.h</text>
</a>
</g>
<!-- Node2&#45;&gt;Node9 -->
<g id="edge80" class="edge"><title>Node2&#45;&gt;Node9</title>
<path fill="none" stroke="midnightblue" d="M920.964,-290.08C1203.9,-235.592 1293.88,-335.662 1567,-254 1616.23,-239.281 1629.04,-230.623 1667,-196 1686.11,-178.574 1702.1,-152.496 1710.23,-137.898"/>
<polygon fill="midnightblue" stroke="midnightblue" points="919.949,-286.713 910.817,-292.084 921.305,-293.58 919.949,-286.713"/>
</g>
<!-- Node10 -->
<g id="node22" class="node"><title>Node10</title>
<a xlink:href="uigroup_8h.html" target="_top" xlink:title="uigroup.h">
<polygon fill="white" stroke="red" points="976,-174.5 976,-195.5 1032,-195.5 1032,-174.5 976,-174.5"/>
<text text-anchor="middle" x="1004" y="-182.5" font-family="Helvetica,sans-Serif" font-size="10.00">uigroup.h</text>
</a>
</g>
<!-- Node2&#45;&gt;Node10 -->
<g id="edge82" class="edge"><title>Node2&#45;&gt;Node10</title>
<path fill="none" stroke="midnightblue" d="M920.677,-290.308C1018.02,-274.633 1243.87,-314.599 1299,-254 1305.58,-246.767 1305.38,-239.407 1299,-232 1263.65,-190.979 1111.33,-205.408 1058,-196 1049.61,-194.521 1040.53,-192.74 1032.25,-191.047"/>
<polygon fill="midnightblue" stroke="midnightblue" points="920.004,-286.873 910.839,-292.188 921.318,-293.748 920.004,-286.873"/>
</g>
<!-- Node11 -->
<g id="node25" class="node"><title>Node11</title>
<a xlink:href="uibuttongroup_8h.html" target="_top" xlink:title="uibuttongroup.h">
<polygon fill="white" stroke="red" points="1405.5,-116.5 1405.5,-137.5 1488.5,-137.5 1488.5,-116.5 1405.5,-116.5"/>
<text text-anchor="middle" x="1447" y="-124.5" font-family="Helvetica,sans-Serif" font-size="10.00">uibuttongroup.h</text>
</a>
</g>
<!-- Node2&#45;&gt;Node11 -->
<g id="edge88" class="edge"><title>Node2&#45;&gt;Node11</title>
<path fill="none" stroke="midnightblue" d="M920.749,-290.298C1021.71,-274.151 1257.39,-317.083 1315,-254 1386.29,-175.938 1021.09,-253.297 1091,-174 1133.22,-126.116 1312.79,-146.888 1376,-138 1385.51,-136.663 1395.72,-135.135 1405.36,-133.652"/>
<polygon fill="midnightblue" stroke="midnightblue" points="920.009,-286.876 910.836,-292.178 921.313,-293.754 920.009,-286.876"/>
</g>
<!-- Node14 -->
<g id="node31" class="node"><title>Node14</title>
<a xlink:href="uidate_8h.html" target="_top" xlink:title="uidate.h">
<polygon fill="white" stroke="black" points="1505.5,-116.5 1505.5,-137.5 1556.5,-137.5 1556.5,-116.5 1505.5,-116.5"/>
<text text-anchor="middle" x="1531" y="-124.5" font-family="Helvetica,sans-Serif" font-size="10.00">uidate.h</text>
</a>
</g>
<!-- Node2&#45;&gt;Node14 -->
<g id="edge90" class="edge"><title>Node2&#45;&gt;Node14</title>
<path fill="none" stroke="midnightblue" d="M920.93,-290.065C1153.2,-244.316 1228.87,-326.389 1451,-254 1496.96,-239.023 1519.65,-238.323 1543,-196 1553.34,-177.263 1543.79,-151.676 1536.81,-137.514"/>
<polygon fill="midnightblue" stroke="midnightblue" points="919.927,-286.697 910.823,-292.116 921.32,-293.557 919.927,-286.697"/>
</g>
<!-- Node15 -->
<g id="node33" class="node"><title>Node15</title>
<a xlink:href="uidial_8h.html" target="_top" xlink:title="uidial.h">
<polygon fill="white" stroke="red" points="1573.5,-116.5 1573.5,-137.5 1620.5,-137.5 1620.5,-116.5 1573.5,-116.5"/>
<text text-anchor="middle" x="1597" y="-124.5" font-family="Helvetica,sans-Serif" font-size="10.00">uidial.h</text>
</a>
</g>
<!-- Node2&#45;&gt;Node15 -->
<g id="edge92" class="edge"><title>Node2&#45;&gt;Node15</title>
<path fill="none" stroke="midnightblue" d="M920.97,-290.053C1171.83,-240.468 1246.78,-306.229 1494,-254 1566.78,-238.624 1608.48,-257.037 1651,-196 1665.87,-174.657 1636.78,-151.04 1615.82,-137.71"/>
<polygon fill="midnightblue" stroke="midnightblue" points="919.93,-286.693 910.821,-292.103 921.315,-293.554 919.93,-286.693"/>
</g>
<!-- Node17 -->
<g id="node37" class="node"><title>Node17</title>
<a xlink:href="uimdiarea_8h.html" target="_top" xlink:title="uimdiarea.h">
<polygon fill="white" stroke="red" points="167.5,-116.5 167.5,-137.5 234.5,-137.5 234.5,-116.5 167.5,-116.5"/>
<text text-anchor="middle" x="201" y="-124.5" font-family="Helvetica,sans-Serif" font-size="10.00">uimdiarea.h</text>
</a>
</g>
<!-- Node2&#45;&gt;Node17 -->
<g id="edge100" class="edge"><title>Node2&#45;&gt;Node17</title>
<path fill="none" stroke="midnightblue" d="M855.37,-299.532C743.35,-294.318 378.717,-275.824 331,-254 272.753,-227.36 225.138,-163.112 207.919,-137.651"/>
<polygon fill="midnightblue" stroke="midnightblue" points="855.252,-303.031 865.403,-299.995 855.575,-296.038 855.252,-303.031"/>
</g>
<!-- Node19 -->
<g id="node41" class="node"><title>Node19</title>
<a xlink:href="uislider_8h.html" target="_top" xlink:title="uislider.h">
<polygon fill="white" stroke="red" points="252,-116.5 252,-137.5 308,-137.5 308,-116.5 252,-116.5"/>
<text text-anchor="middle" x="280" y="-124.5" font-family="Helvetica,sans-Serif" font-size="10.00">uislider.h</text>
</a>
</g>
<!-- Node2&#45;&gt;Node19 -->
<g id="edge108" class="edge"><title>Node2&#45;&gt;Node19</title>
<path fill="none" stroke="midnightblue" d="M855.389,-299.787C746.701,-295.515 401.277,-280.005 359,-254 314.103,-226.382 290.734,-162.707 282.983,-137.525"/>
<polygon fill="midnightblue" stroke="midnightblue" points="855.311,-303.287 865.439,-300.177 855.582,-296.292 855.311,-303.287"/>
</g>
<!-- Node20 -->
<g id="node43" class="node"><title>Node20</title>
<a xlink:href="uispinbox_8h.html" target="_top" xlink:title="uispinbox.h">
<polygon fill="white" stroke="red" points="326,-116.5 326,-137.5 392,-137.5 392,-116.5 326,-116.5"/>
<text text-anchor="middle" x="359" y="-124.5" font-family="Helvetica,sans-Serif" font-size="10.00">uispinbox.h</text>
</a>
</g>
<!-- Node2&#45;&gt;Node20 -->
<g id="edge110" class="edge"><title>Node2&#45;&gt;Node20</title>
<path fill="none" stroke="midnightblue" d="M855.239,-300.355C760.297,-298.089 486.576,-288.644 405,-254 368.438,-238.473 353.642,-232.068 337,-196 327.834,-176.135 341.292,-151.398 350.853,-137.589"/>
<polygon fill="midnightblue" stroke="midnightblue" points="855.321,-303.858 865.398,-300.586 855.48,-296.859 855.321,-303.858"/>
</g>
<!-- Node28 -->
<g id="node60" class="node"><title>Node28</title>
<a xlink:href="ui3dviewer_8h.html" target="_top" xlink:title="ui3dviewer.h">
<polygon fill="white" stroke="red" points="409.5,-116.5 409.5,-137.5 480.5,-137.5 480.5,-116.5 409.5,-116.5"/>
<text text-anchor="middle" x="445" y="-124.5" font-family="Helvetica,sans-Serif" font-size="10.00">ui3dviewer.h</text>
</a>
</g>
<!-- Node2&#45;&gt;Node28 -->
<g id="edge124" class="edge"><title>Node2&#45;&gt;Node28</title>
<path fill="none" stroke="midnightblue" d="M855.102,-300.243C752.379,-297.544 442.655,-286.734 413,-254 397.276,-236.643 427.579,-164.985 440.015,-137.655"/>
<polygon fill="midnightblue" stroke="midnightblue" points="855.123,-303.745 865.209,-300.5 855.301,-296.747 855.123,-303.745"/>
</g>
<!-- Node35 -->
<g id="node77" class="node"><title>Node35</title>
<a xlink:href="uibutton_8h.html" target="_top" xlink:title="uibutton.h">
<polygon fill="white" stroke="red" points="74.5,-174.5 74.5,-195.5 133.5,-195.5 133.5,-174.5 74.5,-174.5"/>
<text text-anchor="middle" x="104" y="-182.5" font-family="Helvetica,sans-Serif" font-size="10.00">uibutton.h</text>
</a>
</g>
<!-- Node2&#45;&gt;Node35 -->
<g id="edge84" class="edge"><title>Node2&#45;&gt;Node35</title>
<path fill="none" stroke="midnightblue" d="M854.939,-299.781C726.391,-294.9 263.902,-275.962 202,-254 166.113,-241.268 131.455,-211.48 114.607,-195.526"/>
<polygon fill="midnightblue" stroke="midnightblue" points="855.184,-303.293 865.309,-300.172 855.448,-296.298 855.184,-303.293"/>
</g>
<!-- Node36 -->
<g id="node83" class="node"><title>Node36</title>
<a xlink:href="uigraphicsviewbase_8h.html" target="_top" xlink:title="uigraphicsviewbase.h">
<polygon fill="white" stroke="red" points="422,-232.5 422,-253.5 532,-253.5 532,-232.5 422,-232.5"/>
<text text-anchor="middle" x="477" y="-240.5" font-family="Helvetica,sans-Serif" font-size="10.00">uigraphicsviewbase.h</text>
</a>
</g>
<!-- Node2&#45;&gt;Node36 -->
<g id="edge94" class="edge"><title>Node2&#45;&gt;Node36</title>
<path fill="none" stroke="midnightblue" d="M854.933,-296.919C793.159,-289.207 656.07,-271.676 541,-254 538.103,-253.555 535.134,-253.087 532.138,-252.605"/>
<polygon fill="midnightblue" stroke="midnightblue" points="854.868,-300.438 865.224,-298.2 855.733,-293.492 854.868,-300.438"/>
</g>
<!-- Node37 -->
<g id="node85" class="node"><title>Node37</title>
<a xlink:href="uilabel_8h.html" target="_top" xlink:title="uilabel.h">
<polygon fill="white" stroke="black" points="549.5,-232.5 549.5,-253.5 602.5,-253.5 602.5,-232.5 549.5,-232.5"/>
<text text-anchor="middle" x="576" y="-240.5" font-family="Helvetica,sans-Serif" font-size="10.00">uilabel.h</text>
</a>
</g>
<!-- Node2&#45;&gt;Node37 -->
<g id="edge96" class="edge"><title>Node2&#45;&gt;Node37</title>
<path fill="none" stroke="midnightblue" d="M855.158,-296.905C802.992,-290.072 698.179,-274.992 611,-254 608.275,-253.344 605.453,-252.588 602.648,-251.787"/>
<polygon fill="midnightblue" stroke="midnightblue" points="854.8,-300.388 865.167,-298.2 855.698,-293.446 854.8,-300.388"/>
</g>
<!-- Node38 -->
<g id="node87" class="node"><title>Node38</title>
<a xlink:href="uilineedit_8h.html" target="_top" xlink:title="uilineedit.h">
<polygon fill="white" stroke="red" points="619.5,-232.5 619.5,-253.5 682.5,-253.5 682.5,-232.5 619.5,-232.5"/>
<text text-anchor="middle" x="651" y="-240.5" font-family="Helvetica,sans-Serif" font-size="10.00">uilineedit.h</text>
</a>
</g>
<!-- Node2&#45;&gt;Node38 -->
<g id="edge98" class="edge"><title>Node2&#45;&gt;Node38</title>
<path fill="none" stroke="midnightblue" d="M855.721,-293.655C816.632,-284.679 748.837,-268.847 691,-254 688.349,-253.319 685.604,-252.599 682.851,-251.864"/>
<polygon fill="midnightblue" stroke="midnightblue" points="854.956,-297.071 865.485,-295.892 856.519,-290.247 854.956,-297.071"/>
</g>
<!-- Node39 -->
<g id="node90" class="node"><title>Node39</title>
<a xlink:href="uiobjectstack_8h.html" target="_top" xlink:title="uiobjectstack.h">
<polygon fill="white" stroke="black" points="699.5,-232.5 699.5,-253.5 782.5,-253.5 782.5,-232.5 699.5,-232.5"/>
<text text-anchor="middle" x="741" y="-240.5" font-family="Helvetica,sans-Serif" font-size="10.00">uiobjectstack.h</text>
</a>
</g>
<!-- Node2&#45;&gt;Node39 -->
<g id="edge102" class="edge"><title>Node2&#45;&gt;Node39</title>
<path fill="none" stroke="midnightblue" d="M855.793,-288.293C829.379,-277.871 792.433,-263.293 767.659,-253.518"/>
<polygon fill="midnightblue" stroke="midnightblue" points="854.767,-291.65 865.353,-292.065 857.336,-285.139 854.767,-291.65"/>
</g>
<!-- Node40 -->
<g id="node92" class="node"><title>Node40</title>
<a xlink:href="uiprogressbar_8h.html" target="_top" xlink:title="uiprogressbar.h">
<polygon fill="white" stroke="black" points="799.5,-232.5 799.5,-253.5 882.5,-253.5 882.5,-232.5 799.5,-232.5"/>
<text text-anchor="middle" x="841" y="-240.5" font-family="Helvetica,sans-Serif" font-size="10.00">uiprogressbar.h</text>
</a>
</g>
<!-- Node2&#45;&gt;Node40 -->
<g id="edge104" class="edge"><title>Node2&#45;&gt;Node40</title>
<path fill="none" stroke="midnightblue" d="M873.042,-282.541C865.293,-272.979 856.11,-261.647 849.566,-253.571"/>
<polygon fill="midnightblue" stroke="midnightblue" points="870.364,-284.796 879.379,-290.362 875.803,-280.389 870.364,-284.796"/>
</g>
<!-- Node41 -->
<g id="node94" class="node"><title>Node41</title>
<a xlink:href="uiseparator_8h.html" target="_top" xlink:title="uiseparator.h">
<polygon fill="white" stroke="black" points="899.5,-232.5 899.5,-253.5 972.5,-253.5 972.5,-232.5 899.5,-232.5"/>
<text text-anchor="middle" x="936" y="-240.5" font-family="Helvetica,sans-Serif" font-size="10.00">uiseparator.h</text>
</a>
</g>
<!-- Node2&#45;&gt;Node41 -->
<g id="edge106" class="edge"><title>Node2&#45;&gt;Node41</title>
<path fill="none" stroke="midnightblue" d="M903.277,-282.541C911.19,-272.979 920.568,-261.647 927.252,-253.571"/>
<polygon fill="midnightblue" stroke="midnightblue" points="900.483,-280.426 896.804,-290.362 905.876,-284.889 900.483,-280.426"/>
</g>
<!-- Node42 -->
<g id="node98" class="node"><title>Node42</title>
<a xlink:href="uisplitter_8h.html" target="_top" xlink:title="uisplitter.h">
<polygon fill="white" stroke="black" points="990,-232.5 990,-253.5 1052,-253.5 1052,-232.5 990,-232.5"/>
<text text-anchor="middle" x="1021" y="-240.5" font-family="Helvetica,sans-Serif" font-size="10.00">uisplitter.h</text>
</a>
</g>
<!-- Node2&#45;&gt;Node42 -->
<g id="edge112" class="edge"><title>Node2&#45;&gt;Node42</title>
<path fill="none" stroke="midnightblue" d="M919.785,-287.139C943.325,-276.873 974.929,-263.091 996.521,-253.675"/>
<polygon fill="midnightblue" stroke="midnightblue" points="918.329,-283.955 910.562,-291.161 921.127,-290.372 918.329,-283.955"/>
</g>
<!-- Node43 -->
<g id="node100" class="node"><title>Node43</title>
<a xlink:href="uitabbar_8h.html" target="_top" xlink:title="uitabbar.h">
<polygon fill="white" stroke="red" points="153.5,-174.5 153.5,-195.5 212.5,-195.5 212.5,-174.5 153.5,-174.5"/>
<text text-anchor="middle" x="183" y="-182.5" font-family="Helvetica,sans-Serif" font-size="10.00">uitabbar.h</text>
</a>
</g>
<!-- Node2&#45;&gt;Node43 -->
<g id="edge114" class="edge"><title>Node2&#45;&gt;Node43</title>
<path fill="none" stroke="midnightblue" d="M855.06,-300.36C729.11,-297.682 282.35,-285.99 228,-254 205.568,-240.797 192.287,-211.492 186.483,-195.654"/>
<polygon fill="midnightblue" stroke="midnightblue" points="855.167,-303.863 865.238,-300.571 855.312,-296.864 855.167,-303.863"/>
</g>
<!-- Node44 -->
<g id="node103" class="node"><title>Node44</title>
<a xlink:href="uitable_8h.html" target="_top" xlink:title="uitable.h">
<polygon fill="white" stroke="red" points="1069.5,-232.5 1069.5,-253.5 1122.5,-253.5 1122.5,-232.5 1069.5,-232.5"/>
<text text-anchor="middle" x="1096" y="-240.5" font-family="Helvetica,sans-Serif" font-size="10.00">uitable.h</text>
</a>
</g>
<!-- Node2&#45;&gt;Node44 -->
<g id="edge118" class="edge"><title>Node2&#45;&gt;Node44</title>
<path fill="none" stroke="midnightblue" d="M920.205,-289.809C983.002,-271.116 1001.3,-270.935 1061,-254 1063.7,-253.235 1066.5,-252.408 1069.29,-251.563"/>
<polygon fill="midnightblue" stroke="midnightblue" points="919.169,-286.466 910.607,-292.706 921.191,-293.167 919.169,-286.466"/>
</g>
<!-- Node45 -->
<g id="node105" class="node"><title>Node45</title>
<a xlink:href="uitextedit_8h.html" target="_top" xlink:title="uitextedit.h">
<polygon fill="white" stroke="red" points="1139.5,-232.5 1139.5,-253.5 1204.5,-253.5 1204.5,-232.5 1139.5,-232.5"/>
<text text-anchor="middle" x="1172" y="-240.5" font-family="Helvetica,sans-Serif" font-size="10.00">uitextedit.h</text>
</a>
</g>
<!-- Node2&#45;&gt;Node45 -->
<g id="edge120" class="edge"><title>Node2&#45;&gt;Node45</title>
<path fill="none" stroke="midnightblue" d="M920.359,-289.96C1013.3,-266.461 1040.73,-273.728 1131,-254 1133.74,-253.402 1136.56,-252.739 1139.39,-252.044"/>
<polygon fill="midnightblue" stroke="midnightblue" points="919.355,-286.604 910.546,-292.492 921.104,-293.382 919.355,-286.604"/>
</g>
<!-- Node46 -->
<g id="node107" class="node"><title>Node46</title>
<a xlink:href="uitreeview_8h.html" target="_top" xlink:title="uitreeview.h">
<polygon fill="white" stroke="red" points="1221.5,-232.5 1221.5,-253.5 1290.5,-253.5 1290.5,-232.5 1221.5,-232.5"/>
<text text-anchor="middle" x="1256" y="-240.5" font-family="Helvetica,sans-Serif" font-size="10.00">uitreeview.h</text>
</a>
</g>
<!-- Node2&#45;&gt;Node46 -->
<g id="edge122" class="edge"><title>Node2&#45;&gt;Node46</title>
<path fill="none" stroke="midnightblue" d="M920.345,-290.072C1048.97,-260.688 1086.79,-277.768 1213,-254 1215.73,-253.487 1218.54,-252.9 1221.35,-252.271"/>
<polygon fill="midnightblue" stroke="midnightblue" points="919.458,-286.685 910.515,-292.367 921.049,-293.502 919.458,-286.685"/>
</g>
<!-- Node4 -->
<g id="node7" class="node"><title>Node4</title>
<a xlink:href="i__layoutitem_8h.html" target="_top" xlink:title="i_layoutitem.h">
<polygon fill="white" stroke="black" points="1780.5,-0.5 1780.5,-21.5 1857.5,-21.5 1857.5,-0.5 1780.5,-0.5"/>
<text text-anchor="middle" x="1819" y="-8.5" font-family="Helvetica,sans-Serif" font-size="10.00">i_layoutitem.h</text>
</a>
</g>
<!-- Node3&#45;&gt;Node4 -->
<g id="edge6" class="edge"><title>Node3&#45;&gt;Node4</title>
<path fill="none" stroke="midnightblue" d="M1820.28,-48.1906C1819.97,-39.1684 1819.62,-28.9941 1819.36,-21.5707"/>
<polygon fill="midnightblue" stroke="midnightblue" points="1816.79,-48.4885 1820.63,-58.3619 1823.79,-48.2472 1816.79,-48.4885"/>
</g>
<!-- Node6 -->
<g id="node11" class="node"><title>Node6</title>
<a xlink:href="uibody_8h.html" target="_top" xlink:title="uibody.h">
<polygon fill="white" stroke="black" points="1589.5,-174.5 1589.5,-195.5 1642.5,-195.5 1642.5,-174.5 1589.5,-174.5"/>
<text text-anchor="middle" x="1616" y="-182.5" font-family="Helvetica,sans-Serif" font-size="10.00">uibody.h</text>
</a>
</g>
<!-- Node5&#45;&gt;Node6 -->
<g id="edge10" class="edge"><title>Node5&#45;&gt;Node6</title>
<path fill="none" stroke="midnightblue" d="M1452.29,-231.775C1492.65,-220.243 1554.37,-202.609 1589.36,-192.612"/>
<polygon fill="midnightblue" stroke="midnightblue" points="1451.17,-228.454 1442.52,-234.566 1453.09,-235.184 1451.17,-228.454"/>
</g>
<!-- Node5&#45;&gt;Node9 -->
<g id="edge22" class="edge"><title>Node5&#45;&gt;Node9</title>
<path fill="none" stroke="midnightblue" d="M1452.69,-238.147C1511.24,-230.489 1617.45,-214.553 1651,-196 1677.07,-181.586 1698.77,-153.061 1709.24,-137.585"/>
<polygon fill="midnightblue" stroke="midnightblue" points="1452.16,-234.686 1442.68,-239.435 1453.05,-241.629 1452.16,-234.686"/>
</g>
<!-- Node5&#45;&gt;Node10 -->
<g id="edge24" class="edge"><title>Node5&#45;&gt;Node10</title>
<path fill="none" stroke="midnightblue" d="M1373.28,-237.367C1290.88,-225.682 1103.11,-199.055 1032,-188.971"/>
<polygon fill="midnightblue" stroke="midnightblue" points="1372.86,-240.843 1383.26,-238.782 1373.85,-233.913 1372.86,-240.843"/>
</g>
<!-- Node29 -->
<g id="node62" class="node"><title>Node29</title>
<a xlink:href="uimainwin_8h.html" target="_top" xlink:title="uimainwin.h">
<polygon fill="white" stroke="red" points="1380,-174.5 1380,-195.5 1448,-195.5 1448,-174.5 1380,-174.5"/>
<text text-anchor="middle" x="1414" y="-182.5" font-family="Helvetica,sans-Serif" font-size="10.00">uimainwin.h</text>
</a>
</g>
<!-- Node5&#45;&gt;Node29 -->
<g id="edge66" class="edge"><title>Node5&#45;&gt;Node29</title>
<path fill="none" stroke="midnightblue" d="M1413.36,-222.191C1413.51,-213.168 1413.69,-202.994 1413.82,-195.571"/>
<polygon fill="midnightblue" stroke="midnightblue" points="1409.86,-222.303 1413.18,-232.362 1416.86,-222.424 1409.86,-222.303"/>
</g>
<!-- Node30 -->
<g id="node64" class="node"><title>Node30</title>
<a xlink:href="uidockwin_8h.html" target="_top" xlink:title="uidockwin.h">
<polygon fill="white" stroke="red" points="1466,-174.5 1466,-195.5 1534,-195.5 1534,-174.5 1466,-174.5"/>
<text text-anchor="middle" x="1500" y="-182.5" font-family="Helvetica,sans-Serif" font-size="10.00">uidockwin.h</text>
</a>
</g>
<!-- Node5&#45;&gt;Node30 -->
<g id="edge68" class="edge"><title>Node5&#45;&gt;Node30</title>
<path fill="none" stroke="midnightblue" d="M1437.69,-226.541C1452.6,-216.597 1471.17,-204.218 1484.14,-195.571"/>
<polygon fill="midnightblue" stroke="midnightblue" points="1435.34,-223.903 1428.96,-232.362 1439.22,-229.727 1435.34,-223.903"/>
</g>
<!-- Node31 -->
<g id="node66" class="node"><title>Node31</title>
<a xlink:href="uitoolbar_8h.html" target="_top" xlink:title="uitoolbar.h">
<polygon fill="white" stroke="red" points="346,-174.5 346,-195.5 408,-195.5 408,-174.5 346,-174.5"/>
<text text-anchor="middle" x="377" y="-182.5" font-family="Helvetica,sans-Serif" font-size="10.00">uitoolbar.h</text>
</a>
</g>
<!-- Node5&#45;&gt;Node31 -->
<g id="edge70" class="edge"><title>Node5&#45;&gt;Node31</title>
<path fill="none" stroke="midnightblue" d="M1372.81,-238.674C1350.99,-236.439 1323.54,-233.808 1299,-232 949.741,-206.261 525.011,-190.22 408.073,-186.073"/>
<polygon fill="midnightblue" stroke="midnightblue" points="1372.72,-242.184 1383.03,-239.734 1373.44,-235.221 1372.72,-242.184"/>
</g>
<!-- Node32 -->
<g id="node68" class="node"><title>Node32</title>
<a xlink:href="uimenuhandler_8h.html" target="_top" xlink:title="uimenuhandler.h">
<polygon fill="white" stroke="red" points="1100,-174.5 1100,-195.5 1188,-195.5 1188,-174.5 1100,-174.5"/>
<text text-anchor="middle" x="1144" y="-182.5" font-family="Helvetica,sans-Serif" font-size="10.00">uimenuhandler.h</text>
</a>
</g>
<!-- Node5&#45;&gt;Node32 -->
<g id="edge72" class="edge"><title>Node5&#45;&gt;Node32</title>
<path fill="none" stroke="midnightblue" d="M1373.3,-232.775C1372.19,-232.511 1371.09,-232.252 1370,-232 1367.77,-231.483 1253.24,-207.688 1188.11,-194.159"/>
<polygon fill="midnightblue" stroke="midnightblue" points="1372.89,-236.277 1383.44,-235.249 1374.55,-229.477 1372.89,-236.277"/>
</g>
<!-- Node33 -->
<g id="node70" class="node"><title>Node33</title>
<a xlink:href="uislicepos_8h.html" target="_top" xlink:title="uislicepos.h">
<polygon fill="white" stroke="red" points="1206,-174.5 1206,-195.5 1274,-195.5 1274,-174.5 1206,-174.5"/>
<text text-anchor="middle" x="1240" y="-182.5" font-family="Helvetica,sans-Serif" font-size="10.00">uislicepos.h</text>
</a>
</g>
<!-- Node5&#45;&gt;Node33 -->
<g id="edge74" class="edge"><title>Node5&#45;&gt;Node33</title>
<path fill="none" stroke="midnightblue" d="M1373.65,-229.806C1342.68,-219.424 1300.1,-205.149 1271.4,-195.526"/>
<polygon fill="midnightblue" stroke="midnightblue" points="1372.67,-233.169 1383.26,-233.029 1374.89,-226.532 1372.67,-233.169"/>
</g>
<!-- Node34 -->
<g id="node72" class="node"><title>Node34</title>
<a xlink:href="uimpeman_8h.html" target="_top" xlink:title="uimpeman.h">
<polygon fill="white" stroke="black" points="1292,-174.5 1292,-195.5 1362,-195.5 1362,-174.5 1292,-174.5"/>
<text text-anchor="middle" x="1327" y="-182.5" font-family="Helvetica,sans-Serif" font-size="10.00">uimpeman.h</text>
</a>
</g>
<!-- Node5&#45;&gt;Node34 -->
<g id="edge76" class="edge"><title>Node5&#45;&gt;Node34</title>
<path fill="none" stroke="midnightblue" d="M1388.59,-226.541C1373.85,-216.597 1355.5,-204.218 1342.67,-195.571"/>
<polygon fill="midnightblue" stroke="midnightblue" points="1386.98,-229.672 1397.23,-232.362 1390.89,-223.869 1386.98,-229.672"/>
</g>
<!-- Node6&#45;&gt;Node7 -->
<g id="edge12" class="edge"><title>Node6&#45;&gt;Node7</title>
<path fill="none" stroke="midnightblue" d="M1628.87,-165.807C1638.72,-151.578 1652.96,-131.966 1667,-116 1678.68,-102.723 1693.49,-88.8687 1703.76,-79.6721"/>
<polygon fill="midnightblue" stroke="midnightblue" points="1625.83,-164.056 1623.08,-174.288 1631.61,-168.005 1625.83,-164.056"/>
</g>
<!-- Node6&#45;&gt;Node9 -->
<g id="edge18" class="edge"><title>Node6&#45;&gt;Node9</title>
<path fill="none" stroke="midnightblue" d="M1643.41,-169.101C1660.71,-159.066 1682.58,-146.381 1697.77,-137.571"/>
<polygon fill="midnightblue" stroke="midnightblue" points="1641.24,-166.317 1634.34,-174.362 1644.75,-172.372 1641.24,-166.317"/>
</g>
<!-- Node7&#45;&gt;Node4 -->
<g id="edge14" class="edge"><title>Node7&#45;&gt;Node4</title>
<path fill="none" stroke="midnightblue" d="M1743.74,-53.379C1761.64,-43.3011 1784.44,-30.4624 1800.23,-21.5707"/>
<polygon fill="midnightblue" stroke="midnightblue" points="1741.89,-50.4055 1734.89,-58.3619 1745.32,-56.505 1741.89,-50.4055"/>
</g>
<!-- Node8 -->
<g id="node16" class="node"><title>Node8</title>
<a xlink:href="ui3dviewerbody_8h.html" target="_top" xlink:title="ui3dviewerbody.h">
<polygon fill="white" stroke="red" points="1670,-0.5 1670,-21.5 1762,-21.5 1762,-0.5 1670,-0.5"/>
<text text-anchor="middle" x="1716" y="-8.5" font-family="Helvetica,sans-Serif" font-size="10.00">ui3dviewerbody.h</text>
</a>
</g>
<!-- Node7&#45;&gt;Node8 -->
<g id="edge16" class="edge"><title>Node7&#45;&gt;Node8</title>
<path fill="none" stroke="midnightblue" d="M1716,-48.1906C1716,-39.1684 1716,-28.9941 1716,-21.5707"/>
<polygon fill="midnightblue" stroke="midnightblue" points="1712.5,-48.3619 1716,-58.3619 1719.5,-48.3619 1712.5,-48.3619"/>
</g>
<!-- Node9&#45;&gt;Node7 -->
<g id="edge20" class="edge"><title>Node9&#45;&gt;Node7</title>
<path fill="none" stroke="midnightblue" d="M1716,-106.191C1716,-97.1684 1716,-86.9941 1716,-79.5707"/>
<polygon fill="midnightblue" stroke="midnightblue" points="1712.5,-106.362 1716,-116.362 1719.5,-106.362 1712.5,-106.362"/>
</g>
<!-- Node10&#45;&gt;Node9 -->
<g id="edge26" class="edge"><title>Node10&#45;&gt;Node9</title>
<path fill="none" stroke="midnightblue" d="M1042.22,-179.673C1057.39,-177.689 1074.99,-175.546 1091,-174 1329.54,-150.96 1390.46,-161.04 1629,-138 1644.31,-136.522 1661.08,-134.498 1675.77,-132.589"/>
<polygon fill="midnightblue" stroke="midnightblue" points="1041.61,-176.223 1032.16,-181.012 1042.54,-183.162 1041.61,-176.223"/>
</g>
<!-- Node10&#45;&gt;Node11 -->
<g id="edge28" class="edge"><title>Node10&#45;&gt;Node11</title>
<path fill="none" stroke="midnightblue" d="M1042.2,-176.757C1047.49,-175.75 1052.87,-174.797 1058,-174 1205.53,-151.074 1244.43,-160.663 1392,-138 1396.33,-137.335 1400.84,-136.564 1405.33,-135.744"/>
<polygon fill="midnightblue" stroke="midnightblue" points="1041.35,-173.358 1032.22,-178.733 1042.71,-180.225 1041.35,-173.358"/>
</g>
<!-- Node12 -->
<g id="node27" class="node"><title>Node12</title>
<a xlink:href="uicolor_8h.html" target="_top" xlink:title="uicolor.h">
<polygon fill="white" stroke="black" points="497.5,-116.5 497.5,-137.5 550.5,-137.5 550.5,-116.5 497.5,-116.5"/>
<text text-anchor="middle" x="524" y="-124.5" font-family="Helvetica,sans-Serif" font-size="10.00">uicolor.h</text>
</a>
</g>
<!-- Node10&#45;&gt;Node12 -->
<g id="edge30" class="edge"><title>Node10&#45;&gt;Node12</title>
<path fill="none" stroke="midnightblue" d="M965.596,-183.52C888.018,-179.966 707.378,-168.831 559,-138 556.256,-137.43 553.421,-136.731 550.608,-135.964"/>
<polygon fill="midnightblue" stroke="midnightblue" points="965.699,-187.028 975.844,-183.972 966.008,-180.034 965.699,-187.028"/>
</g>
<!-- Node13 -->
<g id="node29" class="node"><title>Node13</title>
<a xlink:href="uicombobox_8h.html" target="_top" xlink:title="uicombobox.h">
<polygon fill="white" stroke="red" points="567.5,-116.5 567.5,-137.5 644.5,-137.5 644.5,-116.5 567.5,-116.5"/>
<text text-anchor="middle" x="606" y="-124.5" font-family="Helvetica,sans-Serif" font-size="10.00">uicombobox.h</text>
</a>
</g>
<!-- Node10&#45;&gt;Node13 -->
<g id="edge32" class="edge"><title>Node10&#45;&gt;Node13</title>
<path fill="none" stroke="midnightblue" d="M965.489,-181.078C900.684,-174.201 765.846,-158.71 653,-138 650.28,-137.501 647.48,-136.948 644.666,-136.362"/>
<polygon fill="midnightblue" stroke="midnightblue" points="965.334,-184.58 975.645,-182.145 966.066,-177.619 965.334,-184.58"/>
</g>
<!-- Node10&#45;&gt;Node14 -->
<g id="edge34" class="edge"><title>Node10&#45;&gt;Node14</title>
<path fill="none" stroke="midnightblue" d="M1042.24,-179.852C1057.41,-177.892 1075.01,-175.719 1091,-174 1271.11,-154.635 1319.48,-174.108 1497,-138 1499.67,-137.456 1502.43,-136.774 1505.17,-136.017"/>
<polygon fill="midnightblue" stroke="midnightblue" points="1041.64,-176.4 1032.18,-181.166 1042.55,-183.341 1041.64,-176.4"/>
</g>
<!-- Node10&#45;&gt;Node15 -->
<g id="edge36" class="edge"><title>Node10&#45;&gt;Node15</title>
<path fill="none" stroke="midnightblue" d="M1042.23,-179.747C1057.39,-177.773 1075,-175.618 1091,-174 1301.2,-152.742 1358.08,-180.688 1565,-138 1567.76,-137.43 1570.61,-136.687 1573.42,-135.857"/>
<polygon fill="midnightblue" stroke="midnightblue" points="1041.63,-176.297 1032.17,-181.076 1042.54,-183.236 1041.63,-176.297"/>
</g>
<!-- Node16 -->
<g id="node35" class="node"><title>Node16</title>
<a xlink:href="uilistbox_8h.html" target="_top" xlink:title="uilistbox.h">
<polygon fill="white" stroke="red" points="661.5,-116.5 661.5,-137.5 722.5,-137.5 722.5,-116.5 661.5,-116.5"/>
<text text-anchor="middle" x="692" y="-124.5" font-family="Helvetica,sans-Serif" font-size="10.00">uilistbox.h</text>
</a>
</g>
<!-- Node10&#45;&gt;Node16 -->
<g id="edge38" class="edge"><title>Node10&#45;&gt;Node16</title>
<path fill="none" stroke="midnightblue" d="M965.939,-179.73C912.955,-172.104 814.111,-156.821 731,-138 728.255,-137.378 725.416,-136.683 722.58,-135.951"/>
<polygon fill="midnightblue" stroke="midnightblue" points="965.512,-183.205 975.906,-181.152 966.501,-176.275 965.512,-183.205"/>
</g>
<!-- Node10&#45;&gt;Node17 -->
<g id="edge40" class="edge"><title>Node10&#45;&gt;Node17</title>
<path fill="none" stroke="midnightblue" d="M965.591,-183.617C831.489,-178.635 384.572,-160.689 243,-138 240.321,-137.571 237.564,-137.044 234.806,-136.457"/>
<polygon fill="midnightblue" stroke="midnightblue" points="965.664,-187.122 975.786,-183.993 965.922,-180.127 965.664,-187.122"/>
</g>
<!-- Node10&#45;&gt;Node19 -->
<g id="edge44" class="edge"><title>Node10&#45;&gt;Node19</title>
<path fill="none" stroke="midnightblue" d="M965.636,-183.491C840.218,-178.383 443.176,-160.783 317,-138 314.098,-137.476 311.101,-136.807 308.127,-136.059"/>
<polygon fill="midnightblue" stroke="midnightblue" points="965.763,-186.999 975.897,-183.906 966.046,-180.005 965.763,-186.999"/>
</g>
<!-- Node10&#45;&gt;Node20 -->
<g id="edge46" class="edge"><title>Node10&#45;&gt;Node20</title>
<path fill="none" stroke="midnightblue" d="M965.754,-184.38C869.973,-182.317 612.334,-173.618 401,-138 398.176,-137.524 395.264,-136.947 392.354,-136.309"/>
<polygon fill="midnightblue" stroke="midnightblue" points="965.763,-187.881 975.832,-184.585 965.905,-180.882 965.763,-187.881"/>
</g>
<!-- Node21 -->
<g id="node45" class="node"><title>Node21</title>
<a xlink:href="uitabstack_8h.html" target="_top" xlink:title="uitabstack.h">
<polygon fill="white" stroke="black" points="1280,-116.5 1280,-137.5 1350,-137.5 1350,-116.5 1280,-116.5"/>
<text text-anchor="middle" x="1315" y="-124.5" font-family="Helvetica,sans-Serif" font-size="10.00">uitabstack.h</text>
</a>
</g>
<!-- Node10&#45;&gt;Node21 -->
<g id="edge48" class="edge"><title>Node10&#45;&gt;Node21</title>
<path fill="none" stroke="midnightblue" d="M1042.25,-177.043C1047.54,-175.992 1052.9,-174.95 1058,-174 1152.39,-156.416 1177.02,-157.658 1271,-138 1273.93,-137.387 1276.96,-136.714 1279.99,-136.012"/>
<polygon fill="midnightblue" stroke="midnightblue" points="1041.38,-173.647 1032.27,-179.055 1042.77,-180.509 1041.38,-173.647"/>
</g>
<!-- Node22 -->
<g id="node47" class="node"><title>Node22</title>
<a xlink:href="uidlggroup_8h.html" target="_top" xlink:title="uidlggroup.h">
<polygon fill="white" stroke="red" points="1311.5,-58.5 1311.5,-79.5 1380.5,-79.5 1380.5,-58.5 1311.5,-58.5"/>
<text text-anchor="middle" x="1346" y="-66.5" font-family="Helvetica,sans-Serif" font-size="10.00">uidlggroup.h</text>
</a>
</g>
<!-- Node10&#45;&gt;Node22 -->
<g id="edge52" class="edge"><title>Node10&#45;&gt;Node22</title>
<path fill="none" stroke="midnightblue" d="M1042.21,-176.812C1047.5,-175.797 1052.88,-174.827 1058,-174 1124.51,-163.268 1314.28,-188.384 1359,-138 1373.4,-121.772 1361.49,-94.7522 1352.9,-79.7937"/>
<polygon fill="midnightblue" stroke="midnightblue" points="1041.35,-173.414 1032.23,-178.796 1042.72,-180.28 1041.35,-173.414"/>
</g>
<!-- Node23 -->
<g id="node50" class="node"><title>Node23</title>
<a xlink:href="uiarray2dchg_8h.html" target="_top" xlink:title="uiarray2dchg.h">
<polygon fill="white" stroke="black" points="740,-116.5 740,-137.5 820,-137.5 820,-116.5 740,-116.5"/>
<text text-anchor="middle" x="780" y="-124.5" font-family="Helvetica,sans-Serif" font-size="10.00">uiarray2dchg.h</text>
</a>
</g>
<!-- Node10&#45;&gt;Node23 -->
<g id="edge54" class="edge"><title>Node10&#45;&gt;Node23</title>
<path fill="none" stroke="midnightblue" d="M965.857,-175.124C925.336,-164.632 861.539,-148.113 820.237,-137.418"/>
<polygon fill="midnightblue" stroke="midnightblue" points="965.072,-178.536 975.63,-177.654 966.827,-171.759 965.072,-178.536"/>
</g>
<!-- Node24 -->
<g id="node52" class="node"><title>Node24</title>
<a xlink:href="uibasemap_8h.html" target="_top" xlink:title="uibasemap.h">
<polygon fill="white" stroke="red" points="838,-116.5 838,-137.5 910,-137.5 910,-116.5 838,-116.5"/>
<text text-anchor="middle" x="874" y="-124.5" font-family="Helvetica,sans-Serif" font-size="10.00">uibasemap.h</text>
</a>
</g>
<!-- Node10&#45;&gt;Node24 -->
<g id="edge56" class="edge"><title>Node10&#45;&gt;Node24</title>
<path fill="none" stroke="midnightblue" d="M971.148,-170.343C948.302,-160.15 918.374,-146.798 897.806,-137.621"/>
<polygon fill="midnightblue" stroke="midnightblue" points="969.9,-173.618 980.458,-174.497 972.752,-167.226 969.9,-173.618"/>
</g>
<!-- Node25 -->
<g id="node54" class="node"><title>Node25</title>
<a xlink:href="uibatchjobdispatchersel_8h.html" target="_top" xlink:title="uibatchjobdispatchersel.h">
<polygon fill="white" stroke="black" points="927.5,-116.5 927.5,-137.5 1054.5,-137.5 1054.5,-116.5 927.5,-116.5"/>
<text text-anchor="middle" x="991" y="-124.5" font-family="Helvetica,sans-Serif" font-size="10.00">uibatchjobdispatchersel.h</text>
</a>
</g>
<!-- Node10&#45;&gt;Node25 -->
<g id="edge58" class="edge"><title>Node10&#45;&gt;Node25</title>
<path fill="none" stroke="midnightblue" d="M999.402,-164.488C997.364,-155.392 995.051,-145.076 993.369,-137.571"/>
<polygon fill="midnightblue" stroke="midnightblue" points="996.013,-165.37 1001.62,-174.362 1002.84,-163.838 996.013,-165.37"/>
</g>
<!-- Node26 -->
<g id="node56" class="node"><title>Node26</title>
<a xlink:href="uibinidtable_8h.html" target="_top" xlink:title="uibinidtable.h">
<polygon fill="white" stroke="black" points="1072,-116.5 1072,-137.5 1146,-137.5 1146,-116.5 1072,-116.5"/>
<text text-anchor="middle" x="1109" y="-124.5" font-family="Helvetica,sans-Serif" font-size="10.00">uibinidtable.h</text>
</a>
</g>
<!-- Node10&#45;&gt;Node26 -->
<g id="edge60" class="edge"><title>Node10&#45;&gt;Node26</title>
<path fill="none" stroke="midnightblue" d="M1032.03,-169.517C1050.31,-159.419 1073.69,-146.503 1089.86,-137.571"/>
<polygon fill="midnightblue" stroke="midnightblue" points="1030.32,-166.463 1023.26,-174.362 1033.7,-172.59 1030.32,-166.463"/>
</g>
<!-- Node27 -->
<g id="node58" class="node"><title>Node27</title>
<a xlink:href="uibuildlistfromlist_8h.html" target="_top" xlink:title="uibuildlistfromlist.h">
<polygon fill="white" stroke="red" points="1164,-116.5 1164,-137.5 1262,-137.5 1262,-116.5 1164,-116.5"/>
<text text-anchor="middle" x="1213" y="-124.5" font-family="Helvetica,sans-Serif" font-size="10.00">uibuildlistfromlist.h</text>
</a>
</g>
<!-- Node10&#45;&gt;Node27 -->
<g id="edge62" class="edge"><title>Node10&#45;&gt;Node27</title>
<path fill="none" stroke="midnightblue" d="M1042.28,-174.377C1080.02,-163.902 1137.37,-147.988 1175.01,-137.542"/>
<polygon fill="midnightblue" stroke="midnightblue" points="1040.89,-171.131 1032.19,-177.178 1042.76,-177.876 1040.89,-171.131"/>
</g>
<!-- Node10&#45;&gt;Node28 -->
<g id="edge64" class="edge"><title>Node10&#45;&gt;Node28</title>
<path fill="none" stroke="midnightblue" d="M965.843,-183.529C880.079,-179.783 665.744,-167.975 489,-138 486.361,-137.552 483.646,-137.03 480.923,-136.46"/>
<polygon fill="midnightblue" stroke="midnightblue" points="965.752,-187.028 975.892,-183.956 966.049,-180.034 965.752,-187.028"/>
</g>
<!-- Node18 -->
<g id="node39" class="node"><title>Node18</title>
<a xlink:href="menubutcommands_8h.html" target="_top" xlink:title="menubutcommands.h">
<polygon fill="white" stroke="black" points="66,-58.5 66,-79.5 176,-79.5 176,-58.5 66,-58.5"/>
<text text-anchor="middle" x="121" y="-66.5" font-family="Helvetica,sans-Serif" font-size="10.00">menubutcommands.h</text>
</a>
</g>
<!-- Node17&#45;&gt;Node18 -->
<g id="edge42" class="edge"><title>Node17&#45;&gt;Node18</title>
<path fill="none" stroke="midnightblue" d="M177.908,-110.259C164.261,-100.364 147.395,-88.1361 135.58,-79.5707"/>
<polygon fill="midnightblue" stroke="midnightblue" points="176.176,-113.326 186.327,-116.362 180.285,-107.659 176.176,-113.326"/>
</g>
<!-- Node21&#45;&gt;Node22 -->
<g id="edge50" class="edge"><title>Node21&#45;&gt;Node22</title>
<path fill="none" stroke="midnightblue" d="M1325.49,-107.373C1330.46,-98.0682 1336.21,-87.3204 1340.35,-79.5707"/>
<polygon fill="midnightblue" stroke="midnightblue" points="1322.31,-105.893 1320.69,-116.362 1328.49,-109.192 1322.31,-105.893"/>
</g>
<!-- Node35&#45;&gt;Node18 -->
<g id="edge86" class="edge"><title>Node35&#45;&gt;Node18</title>
<path fill="none" stroke="midnightblue" d="M107.06,-164.123C110.698,-139.298 116.629,-98.8235 119.435,-79.6792"/>
<polygon fill="midnightblue" stroke="midnightblue" points="103.556,-163.893 105.569,-174.295 110.482,-164.908 103.556,-163.893"/>
</g>
<!-- Node43&#45;&gt;Node18 -->
<g id="edge116" class="edge"><title>Node43&#45;&gt;Node18</title>
<path fill="none" stroke="midnightblue" d="M172.551,-165.45C159.357,-140.764 137.125,-99.1685 126.708,-79.6792"/>
<polygon fill="midnightblue" stroke="midnightblue" points="169.478,-167.125 177.278,-174.295 175.651,-163.826 169.478,-167.125"/>
</g>
<!-- Node47&#45;&gt;Node31 -->
<g id="edge132" class="edge"><title>Node47&#45;&gt;Node31</title>
<path fill="none" stroke="midnightblue" d="M252.389,-284.006C282.935,-259.736 338.161,-215.858 363.559,-195.679"/>
<polygon fill="midnightblue" stroke="midnightblue" points="250.126,-281.334 244.474,-290.295 254.481,-286.814 250.126,-281.334"/>
</g>
<!-- Node47&#45;&gt;Node48 -->
<g id="edge128" class="edge"><title>Node47&#45;&gt;Node48</title>
<path fill="none" stroke="midnightblue" d="M191.37,-289.936C157.713,-280.503 108.144,-266.52 65,-254 62.1682,-253.178 59.2168,-252.314 56.2706,-251.446"/>
<polygon fill="midnightblue" stroke="midnightblue" points="190.706,-293.385 201.28,-292.711 192.594,-286.644 190.706,-293.385"/>
</g>
<!-- Node49 -->
<g id="node116" class="node"><title>Node49</title>
<a xlink:href="i__qaction_8h.html" target="_top" xlink:title="i_qaction.h">
<polygon fill="white" stroke="black" points="74,-232.5 74,-253.5 138,-253.5 138,-232.5 74,-232.5"/>
<text text-anchor="middle" x="106" y="-240.5" font-family="Helvetica,sans-Serif" font-size="10.00">i_qaction.h</text>
</a>
</g>
<!-- Node47&#45;&gt;Node49 -->
<g id="edge134" class="edge"><title>Node47&#45;&gt;Node49</title>
<path fill="none" stroke="midnightblue" d="M199.117,-286.206C177.188,-276.031 148.579,-262.757 128.891,-253.621"/>
<polygon fill="midnightblue" stroke="midnightblue" points="197.819,-289.462 208.363,-290.497 200.766,-283.113 197.819,-289.462"/>
</g>
<!-- Node48&#45;&gt;Node18 -->
<g id="edge130" class="edge"><title>Node48&#45;&gt;Node18</title>
<path fill="none" stroke="midnightblue" d="M38.6077,-223.153C58.285,-186.338 99.8315,-108.606 115.159,-79.9277"/>
<polygon fill="midnightblue" stroke="midnightblue" points="35.3046,-221.908 33.6776,-232.377 41.4782,-225.208 35.3046,-221.908"/>
</g>
</g>
</svg>
