<?xml version="1.0" encoding="UTF-8" standalone="no"?>
<!DOCTYPE svg PUBLIC "-//W3C//DTD SVG 1.1//EN"
 "http://www.w3.org/Graphics/SVG/1.1/DTD/svg11.dtd">
<!-- Generated by graphviz version 2.26.0 (20091210.2329)
 -->
<!-- Title: uibatchjobdispatcherlauncher.h Pages: 1 -->
<svg width="940pt" height="784pt"
 viewBox="0.00 0.00 940.00 784.00" xmlns="http://www.w3.org/2000/svg" xmlns:xlink="http://www.w3.org/1999/xlink">
<g id="graph1" class="graph" transform="scale(1 1) rotate(0) translate(4 780)">
<title>uibatchjobdispatcherlauncher.h</title>
<polygon fill="white" stroke="white" points="-4,5 -4,-780 937,-780 937,5 -4,5"/>
<!-- Node1 -->
<g id="node1" class="node"><title>Node1</title>
<polygon fill="#bfbfbf" stroke="black" points="363.5,-754.5 363.5,-775.5 514.5,-775.5 514.5,-754.5 363.5,-754.5"/>
<text text-anchor="middle" x="439" y="-762.5" font-family="Helvetica,sans-Serif" font-size="10.00">uibatchjobdispatcherlauncher.h</text>
</g>
<!-- Node2 -->
<g id="node3" class="node"><title>Node2</title>
<polygon fill="white" stroke="#bfbfbf" points="322,-696.5 322,-717.5 394,-717.5 394,-696.5 322,-696.5"/>
<text text-anchor="middle" x="358" y="-704.5" font-family="Helvetica,sans-Serif" font-size="10.00">uitoolsmod.h</text>
</g>
<!-- Node1&#45;&gt;Node2 -->
<g id="edge2" class="edge"><title>Node1&#45;&gt;Node2</title>
<path fill="none" stroke="midnightblue" d="M424.143,-754.362C412.154,-745.777 395.073,-733.546 381.272,-723.664"/>
<polygon fill="midnightblue" stroke="midnightblue" points="382.931,-720.547 372.762,-717.571 378.855,-726.238 382.931,-720.547"/>
</g>
<!-- Node3 -->
<g id="node5" class="node"><title>Node3</title>
<a xlink:href="factory_8h.html" target="_top" xlink:title="factory.h">
<polygon fill="white" stroke="black" points="411.5,-696.5 411.5,-717.5 466.5,-717.5 466.5,-696.5 411.5,-696.5"/>
<text text-anchor="middle" x="439" y="-704.5" font-family="Helvetica,sans-Serif" font-size="10.00">factory.h</text>
</a>
</g>
<!-- Node1&#45;&gt;Node3 -->
<g id="edge4" class="edge"><title>Node1&#45;&gt;Node3</title>
<path fill="none" stroke="midnightblue" d="M439,-754.362C439,-746.922 439,-736.743 439,-727.728"/>
<polygon fill="midnightblue" stroke="midnightblue" points="442.5,-727.571 439,-717.571 435.5,-727.571 442.5,-727.571"/>
</g>
<!-- Node38 -->
<g id="node107" class="node"><title>Node38</title>
<a xlink:href="uistring_8h.html" target="_top" xlink:title="uistring.h">
<polygon fill="white" stroke="black" points="545,-580.5 545,-601.5 601,-601.5 601,-580.5 545,-580.5"/>
<text text-anchor="middle" x="573" y="-588.5" font-family="Helvetica,sans-Serif" font-size="10.00">uistring.h</text>
</a>
</g>
<!-- Node1&#45;&gt;Node38 -->
<g id="edge154" class="edge"><title>Node1&#45;&gt;Node38</title>
<path fill="none" stroke="midnightblue" d="M447.286,-754.274C461.957,-735.28 493.458,-694.481 520,-660 533,-643.112 547.77,-623.88 558.409,-610.017"/>
<polygon fill="midnightblue" stroke="midnightblue" points="561.433,-611.826 564.745,-601.762 555.88,-607.564 561.433,-611.826"/>
</g>
<!-- Node4 -->
<g id="node7" class="node"><title>Node4</title>
<polygon fill="white" stroke="#bfbfbf" points="334.5,-0.5 334.5,-21.5 401.5,-21.5 401.5,-0.5 334.5,-0.5"/>
<text text-anchor="middle" x="368" y="-8.5" font-family="Helvetica,sans-Serif" font-size="10.00">basicmod.h</text>
</g>
<!-- Node3&#45;&gt;Node4 -->
<g id="edge6" class="edge"><title>Node3&#45;&gt;Node4</title>
<path fill="none" stroke="midnightblue" d="M411.213,-698.008C408.454,-697.267 405.683,-696.581 403,-696 282.093,-669.834 244.669,-698.173 127,-660 65.8976,-640.178 7.10543e-15,-655.237 0,-591 0,-591 0,-591 0,-127 0,-87.783 21.0339,-77.603 55,-58 99.9997,-32.0292 249.311,-18.7809 324.271,-13.6305"/>
<polygon fill="midnightblue" stroke="midnightblue" points="324.592,-17.117 334.336,-12.957 324.125,-10.1326 324.592,-17.117"/>
</g>
<!-- Node5 -->
<g id="node9" class="node"><title>Node5</title>
<a xlink:href="bufstringset_8h.html" target="_top" xlink:title="bufstringset.h">
<polygon fill="white" stroke="black" points="136,-638.5 136,-659.5 212,-659.5 212,-638.5 136,-638.5"/>
<text text-anchor="middle" x="174" y="-646.5" font-family="Helvetica,sans-Serif" font-size="10.00">bufstringset.h</text>
</a>
</g>
<!-- Node3&#45;&gt;Node5 -->
<g id="edge8" class="edge"><title>Node3&#45;&gt;Node5</title>
<path fill="none" stroke="midnightblue" d="M411.165,-698.212C408.416,-697.429 405.66,-696.678 403,-696 341.207,-680.255 269.005,-666.133 222.447,-657.573"/>
<polygon fill="midnightblue" stroke="midnightblue" points="222.805,-654.08 212.339,-655.727 221.547,-660.966 222.805,-654.08"/>
</g>
<!-- Node30 -->
<g id="node77" class="node"><title>Node30</title>
<a xlink:href="perthreadrepos_8h.html" target="_top" xlink:title="perthreadrepos.h">
<polygon fill="white" stroke="black" points="394.5,-638.5 394.5,-659.5 483.5,-659.5 483.5,-638.5 394.5,-638.5"/>
<text text-anchor="middle" x="439" y="-646.5" font-family="Helvetica,sans-Serif" font-size="10.00">perthreadrepos.h</text>
</a>
</g>
<!-- Node3&#45;&gt;Node30 -->
<g id="edge94" class="edge"><title>Node3&#45;&gt;Node30</title>
<path fill="none" stroke="midnightblue" d="M439,-696.362C439,-688.922 439,-678.743 439,-669.728"/>
<polygon fill="midnightblue" stroke="midnightblue" points="442.5,-669.571 439,-659.571 435.5,-669.571 442.5,-669.571"/>
</g>
<!-- Node33 -->
<g id="node91" class="node"><title>Node33</title>
<a xlink:href="ptrman_8h.html" target="_top" xlink:title="ptrman.h">
<polygon fill="white" stroke="black" points="770.5,-232.5 770.5,-253.5 825.5,-253.5 825.5,-232.5 770.5,-232.5"/>
<text text-anchor="middle" x="798" y="-240.5" font-family="Helvetica,sans-Serif" font-size="10.00">ptrman.h</text>
</a>
</g>
<!-- Node3&#45;&gt;Node33 -->
<g id="edge116" class="edge"><title>Node3&#45;&gt;Node33</title>
<path fill="none" stroke="midnightblue" d="M466.698,-703.676C548.116,-693.142 781,-657.224 781,-591 781,-591 781,-591 781,-359 781,-325.416 788.062,-286.935 793.083,-263.821"/>
<polygon fill="midnightblue" stroke="midnightblue" points="796.558,-264.323 795.344,-253.798 789.729,-262.782 796.558,-264.323"/>
</g>
<!-- Node37 -->
<g id="node103" class="node"><title>Node37</title>
<a xlink:href="typeset_8h.html" target="_top" xlink:title="typeset.h">
<polygon fill="white" stroke="black" points="443.5,-522.5 443.5,-543.5 500.5,-543.5 500.5,-522.5 443.5,-522.5"/>
<text text-anchor="middle" x="472" y="-530.5" font-family="Helvetica,sans-Serif" font-size="10.00">typeset.h</text>
</a>
</g>
<!-- Node3&#45;&gt;Node37 -->
<g id="edge132" class="edge"><title>Node3&#45;&gt;Node37</title>
<path fill="none" stroke="midnightblue" d="M420.566,-696.467C408.251,-688.287 393.062,-675.702 386,-660 381.989,-651.083 382.71,-647.208 386,-638 398.877,-601.956 430.038,-569.378 451.095,-550.38"/>
<polygon fill="midnightblue" stroke="midnightblue" points="453.667,-552.78 458.88,-543.556 449.053,-547.516 453.667,-552.78"/>
</g>
<!-- Node3&#45;&gt;Node38 -->
<g id="edge138" class="edge"><title>Node3&#45;&gt;Node38</title>
<path fill="none" stroke="midnightblue" d="M451.366,-696.295C474.6,-676.182 524.956,-632.59 553.044,-608.275"/>
<polygon fill="midnightblue" stroke="midnightblue" points="555.394,-610.87 560.664,-601.679 550.812,-605.578 555.394,-610.87"/>
</g>
<!-- Node5&#45;&gt;Node4 -->
<g id="edge10" class="edge"><title>Node5&#45;&gt;Node4</title>
<path fill="none" stroke="midnightblue" d="M143.139,-638.37C103.014,-622.354 38,-587.929 38,-533 38,-533 38,-533 38,-127 38,-87.783 59.2339,-77.9455 93,-58 131.299,-35.377 256.203,-21.0227 323.723,-14.7175"/>
<polygon fill="midnightblue" stroke="midnightblue" points="324.404,-18.1699 334.044,-13.7747 323.768,-11.1989 324.404,-18.1699"/>
</g>
<!-- Node6 -->
<g id="node12" class="node"><title>Node6</title>
<a xlink:href="bufstring_8h.html" target="_top" xlink:title="bufstring.h">
<polygon fill="white" stroke="black" points="160,-348.5 160,-369.5 222,-369.5 222,-348.5 160,-348.5"/>
<text text-anchor="middle" x="191" y="-356.5" font-family="Helvetica,sans-Serif" font-size="10.00">bufstring.h</text>
</a>
</g>
<!-- Node5&#45;&gt;Node6 -->
<g id="edge12" class="edge"><title>Node5&#45;&gt;Node6</title>
<path fill="none" stroke="midnightblue" d="M172.026,-638.488C168.389,-618.182 161,-572.111 161,-533 161,-533 161,-533 161,-475 161,-440.366 173.69,-401.714 182.563,-378.921"/>
<polygon fill="midnightblue" stroke="midnightblue" points="185.814,-380.22 186.312,-369.636 179.323,-377.599 185.814,-380.22"/>
</g>
<!-- Node23 -->
<g id="node57" class="node"><title>Node23</title>
<a xlink:href="manobjectset_8h.html" target="_top" xlink:title="manobjectset.h">
<polygon fill="white" stroke="black" points="231.5,-580.5 231.5,-601.5 314.5,-601.5 314.5,-580.5 231.5,-580.5"/>
<text text-anchor="middle" x="273" y="-588.5" font-family="Helvetica,sans-Serif" font-size="10.00">manobjectset.h</text>
</a>
</g>
<!-- Node5&#45;&gt;Node23 -->
<g id="edge68" class="edge"><title>Node5&#45;&gt;Node23</title>
<path fill="none" stroke="midnightblue" d="M192.158,-638.362C207.23,-629.532 228.887,-616.844 245.993,-606.822"/>
<polygon fill="midnightblue" stroke="midnightblue" points="248.098,-609.646 254.957,-601.571 244.559,-603.606 248.098,-609.646"/>
</g>
<!-- Node6&#45;&gt;Node4 -->
<g id="edge14" class="edge"><title>Node6&#45;&gt;Node4</title>
<path fill="none" stroke="midnightblue" d="M184.734,-348.211C173.71,-328.18 152,-283.581 152,-243 152,-243 152,-243 152,-127 152,-49.5839 261.023,-23.6186 324.159,-15.0726"/>
<polygon fill="midnightblue" stroke="midnightblue" points="324.766,-18.5239 334.25,-13.8014 323.891,-11.5788 324.766,-18.5239"/>
</g>
<!-- Node7 -->
<g id="node15" class="node"><title>Node7</title>
<a xlink:href="fixedstring_8h.html" target="_top" xlink:title="fixedstring.h">
<polygon fill="white" stroke="black" points="300,-290.5 300,-311.5 370,-311.5 370,-290.5 300,-290.5"/>
<text text-anchor="middle" x="335" y="-298.5" font-family="Helvetica,sans-Serif" font-size="10.00">fixedstring.h</text>
</a>
</g>
<!-- Node6&#45;&gt;Node7 -->
<g id="edge16" class="edge"><title>Node6&#45;&gt;Node7</title>
<path fill="none" stroke="midnightblue" d="M217.077,-348.497C240.075,-339.234 273.8,-325.65 299.3,-315.379"/>
<polygon fill="midnightblue" stroke="midnightblue" points="300.662,-318.604 308.63,-311.621 298.047,-312.111 300.662,-318.604"/>
</g>
<!-- Node20 -->
<g id="node48" class="node"><title>Node20</title>
<a xlink:href="string2_8h.html" target="_top" xlink:title="string2.h">
<polygon fill="white" stroke="black" points="283,-116.5 283,-137.5 337,-137.5 337,-116.5 283,-116.5"/>
<text text-anchor="middle" x="310" y="-124.5" font-family="Helvetica,sans-Serif" font-size="10.00">string2.h</text>
</a>
</g>
<!-- Node6&#45;&gt;Node20 -->
<g id="edge56" class="edge"><title>Node6&#45;&gt;Node20</title>
<path fill="none" stroke="midnightblue" d="M192.446,-348.482C196.948,-318.727 212.89,-232.338 253,-174 261.199,-162.074 273.244,-151.531 284.152,-143.467"/>
<polygon fill="midnightblue" stroke="midnightblue" points="286.394,-146.169 292.561,-137.554 282.368,-140.444 286.394,-146.169"/>
</g>
<!-- Node7&#45;&gt;Node4 -->
<g id="edge18" class="edge"><title>Node7&#45;&gt;Node4</title>
<path fill="none" stroke="midnightblue" d="M321.33,-290.35C277.678,-255.076 147.987,-139.658 209,-58 222.887,-39.4134 282.335,-25.5978 324.456,-17.9149"/>
<polygon fill="midnightblue" stroke="midnightblue" points="325.249,-21.329 334.486,-16.1403 324.029,-14.4361 325.249,-21.329"/>
</g>
<!-- Node8 -->
<g id="node18" class="node"><title>Node8</title>
<a xlink:href="odstring_8h.html" target="_top" xlink:title="odstring.h">
<polygon fill="white" stroke="black" points="316.5,-232.5 316.5,-253.5 375.5,-253.5 375.5,-232.5 316.5,-232.5"/>
<text text-anchor="middle" x="346" y="-240.5" font-family="Helvetica,sans-Serif" font-size="10.00">odstring.h</text>
</a>
</g>
<!-- Node7&#45;&gt;Node8 -->
<g id="edge20" class="edge"><title>Node7&#45;&gt;Node8</title>
<path fill="none" stroke="midnightblue" d="M337.018,-290.362C338.444,-282.84 340.402,-272.519 342.125,-263.431"/>
<polygon fill="midnightblue" stroke="midnightblue" points="345.571,-264.048 343.995,-253.571 338.693,-262.743 345.571,-264.048"/>
</g>
<!-- Node8&#45;&gt;Node4 -->
<g id="edge22" class="edge"><title>Node8&#45;&gt;Node4</title>
<path fill="none" stroke="midnightblue" d="M347.797,-232.362C352.086,-206.416 362.873,-137.774 367,-80 368.147,-63.9422 368.365,-45.7309 368.314,-32.0512"/>
<polygon fill="midnightblue" stroke="midnightblue" points="371.811,-31.7409 368.222,-21.7727 364.812,-31.8037 371.811,-31.7409"/>
</g>
<!-- Node9 -->
<g id="node21" class="node"><title>Node9</title>
<a xlink:href="gendefs_8h.html" target="_top" xlink:title="gendefs.h">
<polygon fill="white" stroke="black" points="502.5,-174.5 502.5,-195.5 561.5,-195.5 561.5,-174.5 502.5,-174.5"/>
<text text-anchor="middle" x="532" y="-182.5" font-family="Helvetica,sans-Serif" font-size="10.00">gendefs.h</text>
</a>
</g>
<!-- Node8&#45;&gt;Node9 -->
<g id="edge24" class="edge"><title>Node8&#45;&gt;Node9</title>
<path fill="none" stroke="midnightblue" d="M375.884,-233.681C407.569,-223.801 457.76,-208.15 492.646,-197.272"/>
<polygon fill="midnightblue" stroke="midnightblue" points="493.993,-200.518 502.497,-194.2 491.909,-193.835 493.993,-200.518"/>
</g>
<!-- Node10 -->
<g id="node23" class="node"><title>Node10</title>
<a xlink:href="undefval_8h.html" target="_top" xlink:title="undefval.h">
<polygon fill="white" stroke="black" points="607,-116.5 607,-137.5 669,-137.5 669,-116.5 607,-116.5"/>
<text text-anchor="middle" x="638" y="-124.5" font-family="Helvetica,sans-Serif" font-size="10.00">undefval.h</text>
</a>
</g>
<!-- Node9&#45;&gt;Node10 -->
<g id="edge26" class="edge"><title>Node9&#45;&gt;Node10</title>
<path fill="none" stroke="midnightblue" d="M551.442,-174.362C567.804,-165.409 591.413,-152.491 609.843,-142.406"/>
<polygon fill="midnightblue" stroke="midnightblue" points="611.589,-145.441 618.681,-137.571 608.229,-139.3 611.589,-145.441"/>
</g>
<!-- Node17 -->
<g id="node40" class="node"><title>Node17</title>
<a xlink:href="commontypes_8h.html" target="_top" xlink:title="commontypes.h">
<polygon fill="white" stroke="black" points="503,-116.5 503,-137.5 589,-137.5 589,-116.5 503,-116.5"/>
<text text-anchor="middle" x="546" y="-124.5" font-family="Helvetica,sans-Serif" font-size="10.00">commontypes.h</text>
</a>
</g>
<!-- Node9&#45;&gt;Node17 -->
<g id="edge46" class="edge"><title>Node9&#45;&gt;Node17</title>
<path fill="none" stroke="midnightblue" d="M534.568,-174.362C536.383,-166.84 538.875,-156.519 541.068,-147.431"/>
<polygon fill="midnightblue" stroke="midnightblue" points="544.504,-148.113 543.448,-137.571 537.7,-146.47 544.504,-148.113"/>
</g>
<!-- Node18 -->
<g id="node43" class="node"><title>Node18</title>
<a xlink:href="errmsg_8h.html" target="_top" xlink:title="errmsg.h">
<polygon fill="white" stroke="black" points="430.5,-116.5 430.5,-137.5 485.5,-137.5 485.5,-116.5 430.5,-116.5"/>
<text text-anchor="middle" x="458" y="-124.5" font-family="Helvetica,sans-Serif" font-size="10.00">errmsg.h</text>
</a>
</g>
<!-- Node9&#45;&gt;Node18 -->
<g id="edge50" class="edge"><title>Node9&#45;&gt;Node18</title>
<path fill="none" stroke="midnightblue" d="M518.427,-174.362C507.579,-165.859 492.166,-153.779 479.621,-143.947"/>
<polygon fill="midnightblue" stroke="midnightblue" points="481.516,-140.985 471.487,-137.571 477.198,-146.494 481.516,-140.985"/>
</g>
<!-- Node10&#45;&gt;Node4 -->
<g id="edge28" class="edge"><title>Node10&#45;&gt;Node4</title>
<path fill="none" stroke="midnightblue" d="M617.122,-116.38C589.172,-102.32 537.9,-77.084 493,-58 464.745,-45.9905 432.274,-33.8296 407.51,-24.8872"/>
<polygon fill="midnightblue" stroke="midnightblue" points="408.678,-21.5878 398.083,-21.5041 406.313,-28.1764 408.678,-21.5878"/>
</g>
<!-- Node11 -->
<g id="node26" class="node"><title>Node11</title>
<a xlink:href="commondefs_8h.html" target="_top" xlink:title="commondefs.h">
<polygon fill="white" stroke="black" points="615.5,-58.5 615.5,-79.5 696.5,-79.5 696.5,-58.5 615.5,-58.5"/>
<text text-anchor="middle" x="656" y="-66.5" font-family="Helvetica,sans-Serif" font-size="10.00">commondefs.h</text>
</a>
</g>
<!-- Node10&#45;&gt;Node11 -->
<g id="edge30" class="edge"><title>Node10&#45;&gt;Node11</title>
<path fill="none" stroke="midnightblue" d="M641.301,-116.362C643.661,-108.758 646.909,-98.294 649.751,-89.1349"/>
<polygon fill="midnightblue" stroke="midnightblue" points="653.098,-90.1587 652.719,-79.5707 646.413,-88.0839 653.098,-90.1587"/>
</g>
<!-- Node15 -->
<g id="node35" class="node"><title>Node15</title>
<a xlink:href="plftypes_8h.html" target="_top" xlink:title="plftypes.h">
<polygon fill="white" stroke="black" points="751.5,-58.5 751.5,-79.5 810.5,-79.5 810.5,-58.5 751.5,-58.5"/>
<text text-anchor="middle" x="781" y="-66.5" font-family="Helvetica,sans-Serif" font-size="10.00">plftypes.h</text>
</a>
</g>
<!-- Node10&#45;&gt;Node15 -->
<g id="edge40" class="edge"><title>Node10&#45;&gt;Node15</title>
<path fill="none" stroke="midnightblue" d="M663.896,-116.497C686.633,-107.275 719.93,-93.7695 745.212,-83.5153"/>
<polygon fill="midnightblue" stroke="midnightblue" points="746.862,-86.6232 754.813,-79.6212 744.231,-80.1365 746.862,-86.6232"/>
</g>
<!-- Node11&#45;&gt;Node4 -->
<g id="edge32" class="edge"><title>Node11&#45;&gt;Node4</title>
<path fill="none" stroke="midnightblue" d="M615.312,-60.6993C610.821,-59.7867 606.314,-58.8726 602,-58 535.595,-44.5677 458.561,-29.1213 411.563,-19.7128"/>
<polygon fill="midnightblue" stroke="midnightblue" points="412.211,-16.2732 401.719,-17.7425 410.837,-23.1371 412.211,-16.2732"/>
</g>
<!-- Node12 -->
<g id="node29" class="node"><title>Node12</title>
<a xlink:href="plfdefs_8h.html" target="_top" xlink:title="plfdefs.h">
<polygon fill="white" stroke="black" points="688,-0.5 688,-21.5 742,-21.5 742,-0.5 688,-0.5"/>
<text text-anchor="middle" x="715" y="-8.5" font-family="Helvetica,sans-Serif" font-size="10.00">plfdefs.h</text>
</a>
</g>
<!-- Node11&#45;&gt;Node12 -->
<g id="edge34" class="edge"><title>Node11&#45;&gt;Node12</title>
<path fill="none" stroke="midnightblue" d="M666.822,-58.3619C675.221,-50.1043 687.054,-38.4725 696.89,-28.8029"/>
<polygon fill="midnightblue" stroke="midnightblue" points="699.569,-31.077 704.247,-21.5707 694.662,-26.0851 699.569,-31.077"/>
</g>
<!-- Node13 -->
<g id="node31" class="node"><title>Node13</title>
<polygon fill="white" stroke="#bfbfbf" points="539.5,-0.5 539.5,-21.5 598.5,-21.5 598.5,-0.5 539.5,-0.5"/>
<text text-anchor="middle" x="569" y="-8.5" font-family="Helvetica,sans-Serif" font-size="10.00">stdexcept</text>
</g>
<!-- Node11&#45;&gt;Node13 -->
<g id="edge36" class="edge"><title>Node11&#45;&gt;Node13</title>
<path fill="none" stroke="midnightblue" d="M640.043,-58.3619C627.043,-49.6955 608.469,-37.3126 593.573,-27.3819"/>
<polygon fill="midnightblue" stroke="midnightblue" points="595.118,-24.2055 584.856,-21.5707 591.235,-30.0299 595.118,-24.2055"/>
</g>
<!-- Node14 -->
<g id="node33" class="node"><title>Node14</title>
<polygon fill="white" stroke="#bfbfbf" points="635.5,-0.5 635.5,-21.5 670.5,-21.5 670.5,-0.5 635.5,-0.5"/>
<text text-anchor="middle" x="653" y="-8.5" font-family="Helvetica,sans-Serif" font-size="10.00">new</text>
</g>
<!-- Node11&#45;&gt;Node14 -->
<g id="edge38" class="edge"><title>Node11&#45;&gt;Node14</title>
<path fill="none" stroke="midnightblue" d="M655.45,-58.3619C655.065,-50.9219 654.538,-40.7427 654.072,-31.7276"/>
<polygon fill="midnightblue" stroke="midnightblue" points="657.559,-31.3765 653.547,-21.5707 650.568,-31.7381 657.559,-31.3765"/>
</g>
<!-- Node15&#45;&gt;Node12 -->
<g id="edge42" class="edge"><title>Node15&#45;&gt;Node12</title>
<path fill="none" stroke="midnightblue" d="M768.895,-58.3619C759.312,-49.9408 745.736,-38.0105 734.607,-28.2308"/>
<polygon fill="midnightblue" stroke="midnightblue" points="736.851,-25.5427 727.029,-21.5707 732.23,-30.8009 736.851,-25.5427"/>
</g>
<!-- Node16 -->
<g id="node38" class="node"><title>Node16</title>
<polygon fill="white" stroke="#bfbfbf" points="759.5,-0.5 759.5,-21.5 808.5,-21.5 808.5,-0.5 759.5,-0.5"/>
<text text-anchor="middle" x="784" y="-8.5" font-family="Helvetica,sans-Serif" font-size="10.00">stdint.h</text>
</g>
<!-- Node15&#45;&gt;Node16 -->
<g id="edge44" class="edge"><title>Node15&#45;&gt;Node16</title>
<path fill="none" stroke="midnightblue" d="M781.55,-58.3619C781.935,-50.9219 782.462,-40.7427 782.928,-31.7276"/>
<polygon fill="midnightblue" stroke="midnightblue" points="786.432,-31.7381 783.453,-21.5707 779.441,-31.3765 786.432,-31.7381"/>
</g>
<!-- Node17&#45;&gt;Node11 -->
<g id="edge48" class="edge"><title>Node17&#45;&gt;Node11</title>
<path fill="none" stroke="midnightblue" d="M565.92,-116.497C582.946,-107.519 607.669,-94.4835 626.909,-84.3387"/>
<polygon fill="midnightblue" stroke="midnightblue" points="628.643,-87.3814 635.856,-79.6212 625.378,-81.1894 628.643,-87.3814"/>
</g>
<!-- Node18&#45;&gt;Node11 -->
<g id="edge52" class="edge"><title>Node18&#45;&gt;Node11</title>
<path fill="none" stroke="midnightblue" d="M485.505,-118.552C488.372,-117.684 491.244,-116.821 494,-116 532.789,-104.448 576.911,-91.6708 609.303,-82.3582"/>
<polygon fill="midnightblue" stroke="midnightblue" points="610.315,-85.7091 618.96,-79.5845 608.383,-78.9811 610.315,-85.7091"/>
</g>
<!-- Node19 -->
<g id="node46" class="node"><title>Node19</title>
<polygon fill="white" stroke="#bfbfbf" points="433.5,-58.5 433.5,-79.5 484.5,-79.5 484.5,-58.5 433.5,-58.5"/>
<text text-anchor="middle" x="459" y="-66.5" font-family="Helvetica,sans-Serif" font-size="10.00">typeinfo</text>
</g>
<!-- Node18&#45;&gt;Node19 -->
<g id="edge54" class="edge"><title>Node18&#45;&gt;Node19</title>
<path fill="none" stroke="midnightblue" d="M458.183,-116.362C458.312,-108.922 458.487,-98.7427 458.643,-89.7276"/>
<polygon fill="midnightblue" stroke="midnightblue" points="462.145,-89.6295 458.818,-79.5707 455.146,-89.5088 462.145,-89.6295"/>
</g>
<!-- Node20&#45;&gt;Node4 -->
<g id="edge58" class="edge"><title>Node20&#45;&gt;Node4</title>
<path fill="none" stroke="midnightblue" d="M321.093,-116.392C329.843,-107.449 341.744,-93.9143 349,-80 356.888,-64.8739 361.78,-46.1257 364.621,-31.9914"/>
<polygon fill="midnightblue" stroke="midnightblue" points="368.128,-32.268 366.478,-21.8025 361.241,-31.0131 368.128,-32.268"/>
</g>
<!-- Node20&#45;&gt;Node11 -->
<g id="edge62" class="edge"><title>Node20&#45;&gt;Node11</title>
<path fill="none" stroke="midnightblue" d="M337.15,-122.449C394.968,-112.757 531.028,-89.949 605.356,-77.4895"/>
<polygon fill="midnightblue" stroke="midnightblue" points="606.136,-80.9076 615.42,-75.8025 604.979,-74.004 606.136,-80.9076"/>
</g>
<!-- Node20&#45;&gt;Node15 -->
<g id="edge60" class="edge"><title>Node20&#45;&gt;Node15</title>
<path fill="none" stroke="midnightblue" d="M337.326,-123.99C401.539,-116.863 567.038,-98.189 705,-80 716.859,-78.4366 729.74,-76.6179 741.47,-74.9149"/>
<polygon fill="midnightblue" stroke="midnightblue" points="742.041,-78.3689 751.428,-73.4575 741.027,-71.4427 742.041,-78.3689"/>
</g>
<!-- Node21 -->
<g id="node53" class="node"><title>Node21</title>
<polygon fill="white" stroke="#bfbfbf" points="291.5,-58.5 291.5,-79.5 340.5,-79.5 340.5,-58.5 291.5,-58.5"/>
<text text-anchor="middle" x="316" y="-66.5" font-family="Helvetica,sans-Serif" font-size="10.00">ctype.h</text>
</g>
<!-- Node20&#45;&gt;Node21 -->
<g id="edge64" class="edge"><title>Node20&#45;&gt;Node21</title>
<path fill="none" stroke="midnightblue" d="M311.1,-116.362C311.87,-108.922 312.923,-98.7427 313.856,-89.7276"/>
<polygon fill="midnightblue" stroke="midnightblue" points="317.359,-89.8777 314.906,-79.5707 310.396,-89.1574 317.359,-89.8777"/>
</g>
<!-- Node22 -->
<g id="node55" class="node"><title>Node22</title>
<polygon fill="white" stroke="#bfbfbf" points="218,-58.5 218,-79.5 274,-79.5 274,-58.5 218,-58.5"/>
<text text-anchor="middle" x="246" y="-66.5" font-family="Helvetica,sans-Serif" font-size="10.00">wctype.h</text>
</g>
<!-- Node20&#45;&gt;Node22 -->
<g id="edge66" class="edge"><title>Node20&#45;&gt;Node22</title>
<path fill="none" stroke="midnightblue" d="M298.261,-116.362C289.059,-108.023 276.06,-96.2418 265.328,-86.5162"/>
<polygon fill="midnightblue" stroke="midnightblue" points="267.424,-83.6924 257.664,-79.5707 262.724,-88.8793 267.424,-83.6924"/>
</g>
<!-- Node24 -->
<g id="node59" class="node"><title>Node24</title>
<a xlink:href="objectset_8h.html" target="_top" xlink:title="objectset.h">
<polygon fill="white" stroke="black" points="358.5,-522.5 358.5,-543.5 423.5,-543.5 423.5,-522.5 358.5,-522.5"/>
<text text-anchor="middle" x="391" y="-530.5" font-family="Helvetica,sans-Serif" font-size="10.00">objectset.h</text>
</a>
</g>
<!-- Node23&#45;&gt;Node24 -->
<g id="edge70" class="edge"><title>Node23&#45;&gt;Node24</title>
<path fill="none" stroke="midnightblue" d="M294.369,-580.497C312.799,-571.438 339.637,-558.246 360.355,-548.063"/>
<polygon fill="midnightblue" stroke="midnightblue" points="361.961,-551.174 369.391,-543.621 358.873,-544.891 361.961,-551.174"/>
</g>
<!-- Node25 -->
<g id="node61" class="node"><title>Node25</title>
<a xlink:href="odset_8h.html" target="_top" xlink:title="odset.h">
<polygon fill="white" stroke="black" points="449.5,-464.5 449.5,-485.5 498.5,-485.5 498.5,-464.5 449.5,-464.5"/>
<text text-anchor="middle" x="474" y="-472.5" font-family="Helvetica,sans-Serif" font-size="10.00">odset.h</text>
</a>
</g>
<!-- Node24&#45;&gt;Node25 -->
<g id="edge72" class="edge"><title>Node24&#45;&gt;Node25</title>
<path fill="none" stroke="midnightblue" d="M406.223,-522.362C418.625,-513.696 436.346,-501.313 450.557,-491.382"/>
<polygon fill="midnightblue" stroke="midnightblue" points="452.681,-494.168 458.873,-485.571 448.671,-488.43 452.681,-494.168"/>
</g>
<!-- Node26 -->
<g id="node64" class="node"><title>Node26</title>
<a xlink:href="vectoraccess_8h.html" target="_top" xlink:title="vectoraccess.h">
<polygon fill="white" stroke="black" points="349.5,-464.5 349.5,-485.5 432.5,-485.5 432.5,-464.5 349.5,-464.5"/>
<text text-anchor="middle" x="391" y="-472.5" font-family="Helvetica,sans-Serif" font-size="10.00">vectoraccess.h</text>
</a>
</g>
<!-- Node24&#45;&gt;Node26 -->
<g id="edge76" class="edge"><title>Node24&#45;&gt;Node26</title>
<path fill="none" stroke="midnightblue" d="M391,-522.362C391,-514.922 391,-504.743 391,-495.728"/>
<polygon fill="midnightblue" stroke="midnightblue" points="394.5,-495.571 391,-485.571 387.5,-495.571 394.5,-495.571"/>
</g>
<!-- Node25&#45;&gt;Node9 -->
<g id="edge74" class="edge"><title>Node25&#45;&gt;Node9</title>
<path fill="none" stroke="midnightblue" d="M480.909,-464.297C493.064,-444.404 517,-400.023 517,-359 517,-359 517,-359 517,-301 517,-267.494 523.231,-228.991 527.661,-205.851"/>
<polygon fill="midnightblue" stroke="midnightblue" points="531.139,-206.305 529.656,-195.815 524.274,-204.94 531.139,-206.305"/>
</g>
<!-- Node26&#45;&gt;Node9 -->
<g id="edge86" class="edge"><title>Node26&#45;&gt;Node9</title>
<path fill="none" stroke="midnightblue" d="M411.451,-464.358C425.47,-456.126 443.536,-443.525 455,-428 474.287,-401.881 479,-391.469 479,-359 479,-359 479,-359 479,-301 479,-264.026 501.552,-225.93 517.234,-203.908"/>
<polygon fill="midnightblue" stroke="midnightblue" points="520.122,-205.89 523.248,-195.766 514.491,-201.731 520.122,-205.89"/>
</g>
<!-- Node26&#45;&gt;Node13 -->
<g id="edge92" class="edge"><title>Node26&#45;&gt;Node13</title>
<path fill="none" stroke="midnightblue" d="M400.677,-464.361C408.131,-455.4 417.842,-441.856 422,-428 424.81,-418.635 422.567,-415.761 422,-406 417.771,-333.188 403,-315.935 403,-243 403,-243 403,-243 403,-185 403,-153.192 401.873,-140.63 422,-116 444.387,-88.6036 463.864,-100.071 493,-80 514.794,-64.987 536.877,-44.1735 551.58,-29.3408"/>
<polygon fill="midnightblue" stroke="midnightblue" points="554.466,-31.3943 558.94,-21.7906 549.454,-26.5079 554.466,-31.3943"/>
</g>
<!-- Node27 -->
<g id="node66" class="node"><title>Node27</title>
<a xlink:href="debug_8h.html" target="_top" xlink:title="debug.h">
<polygon fill="white" stroke="black" points="188.5,-406.5 188.5,-427.5 239.5,-427.5 239.5,-406.5 188.5,-406.5"/>
<text text-anchor="middle" x="214" y="-414.5" font-family="Helvetica,sans-Serif" font-size="10.00">debug.h</text>
</a>
</g>
<!-- Node26&#45;&gt;Node27 -->
<g id="edge78" class="edge"><title>Node26&#45;&gt;Node27</title>
<path fill="none" stroke="midnightblue" d="M358.947,-464.497C328.023,-454.364 281.32,-439.06 249.336,-428.579"/>
<polygon fill="midnightblue" stroke="midnightblue" points="250.1,-425.146 239.507,-425.358 247.92,-431.798 250.1,-425.146"/>
</g>
<!-- Node28 -->
<g id="node72" class="node"><title>Node28</title>
<polygon fill="white" stroke="#bfbfbf" points="295,-406.5 295,-427.5 351,-427.5 351,-406.5 295,-406.5"/>
<text text-anchor="middle" x="323" y="-414.5" font-family="Helvetica,sans-Serif" font-size="10.00">algorithm</text>
</g>
<!-- Node26&#45;&gt;Node28 -->
<g id="edge88" class="edge"><title>Node26&#45;&gt;Node28</title>
<path fill="none" stroke="midnightblue" d="M378.528,-464.362C368.655,-455.941 354.667,-444.011 343.202,-434.231"/>
<polygon fill="midnightblue" stroke="midnightblue" points="345.273,-431.397 335.393,-427.571 340.73,-436.723 345.273,-431.397"/>
</g>
<!-- Node29 -->
<g id="node74" class="node"><title>Node29</title>
<polygon fill="white" stroke="#bfbfbf" points="369,-406.5 369,-427.5 413,-427.5 413,-406.5 369,-406.5"/>
<text text-anchor="middle" x="391" y="-414.5" font-family="Helvetica,sans-Serif" font-size="10.00">vector</text>
</g>
<!-- Node26&#45;&gt;Node29 -->
<g id="edge90" class="edge"><title>Node26&#45;&gt;Node29</title>
<path fill="none" stroke="midnightblue" d="M391,-464.362C391,-456.922 391,-446.743 391,-437.728"/>
<polygon fill="midnightblue" stroke="midnightblue" points="394.5,-437.571 391,-427.571 387.5,-437.571 394.5,-437.571"/>
</g>
<!-- Node27&#45;&gt;Node4 -->
<g id="edge80" class="edge"><title>Node27&#45;&gt;Node4</title>
<path fill="none" stroke="midnightblue" d="M194.719,-406.244C165.66,-388.446 114,-349.924 114,-301 114,-301 114,-301 114,-127 114,-88.5999 133.812,-78.9411 166,-58 191.765,-41.2374 273.015,-25.928 324.278,-17.5896"/>
<polygon fill="midnightblue" stroke="midnightblue" points="325.097,-21.0032 334.418,-15.9673 323.991,-14.0911 325.097,-21.0032"/>
</g>
<!-- Node27&#45;&gt;Node6 -->
<g id="edge84" class="edge"><title>Node27&#45;&gt;Node6</title>
<path fill="none" stroke="midnightblue" d="M209.781,-406.362C206.766,-398.758 202.617,-388.294 198.985,-379.135"/>
<polygon fill="midnightblue" stroke="midnightblue" points="202.132,-377.576 195.192,-369.571 195.625,-380.157 202.132,-377.576"/>
</g>
<!-- Node27&#45;&gt;Node9 -->
<g id="edge82" class="edge"><title>Node27&#45;&gt;Node9</title>
<path fill="none" stroke="midnightblue" d="M233.055,-406.404C264.571,-388.55 329.031,-350.621 379,-312 420.304,-280.076 424.425,-264.845 465,-232 478.46,-221.105 494.289,-209.931 507.181,-201.213"/>
<polygon fill="midnightblue" stroke="midnightblue" points="509.204,-204.071 515.572,-195.604 505.313,-198.252 509.204,-204.071"/>
</g>
<!-- Node30&#45;&gt;Node4 -->
<g id="edge96" class="edge"><title>Node30&#45;&gt;Node4</title>
<path fill="none" stroke="midnightblue" d="M422.934,-638.315C352.683,-591.021 76,-398.561 76,-301 76,-301 76,-301 76,-127 76,-87.783 97.5011,-78.3911 131,-58 162.858,-38.6078 264.81,-23.4786 324.107,-16.0468"/>
<polygon fill="midnightblue" stroke="midnightblue" points="324.804,-19.4875 334.302,-14.7921 323.949,-12.5399 324.804,-19.4875"/>
</g>
<!-- Node30&#45;&gt;Node23 -->
<g id="edge98" class="edge"><title>Node30&#45;&gt;Node23</title>
<path fill="none" stroke="midnightblue" d="M408.939,-638.497C381.993,-629.082 342.272,-615.204 312.718,-604.877"/>
<polygon fill="midnightblue" stroke="midnightblue" points="313.713,-601.517 303.118,-601.523 311.404,-608.126 313.713,-601.517"/>
</g>
<!-- Node31 -->
<g id="node81" class="node"><title>Node31</title>
<a xlink:href="threadlock_8h.html" target="_top" xlink:title="threadlock.h">
<polygon fill="white" stroke="black" points="757,-116.5 757,-137.5 827,-137.5 827,-116.5 757,-116.5"/>
<text text-anchor="middle" x="792" y="-124.5" font-family="Helvetica,sans-Serif" font-size="10.00">threadlock.h</text>
</a>
</g>
<!-- Node30&#45;&gt;Node31 -->
<g id="edge100" class="edge"><title>Node30&#45;&gt;Node31</title>
<path fill="none" stroke="midnightblue" d="M483.823,-644.01C526.879,-638.035 593.021,-625.709 646,-602 694.291,-580.389 743,-585.906 743,-533 743,-533 743,-533 743,-243 743,-206.463 763.883,-168.193 778.383,-146.025"/>
<polygon fill="midnightblue" stroke="midnightblue" points="781.407,-147.801 784.127,-137.562 775.615,-143.87 781.407,-147.801"/>
</g>
<!-- Node32 -->
<g id="node86" class="node"><title>Node32</title>
<a xlink:href="thread_8h.html" target="_top" xlink:title="thread.h">
<polygon fill="white" stroke="black" points="687,-116.5 687,-137.5 739,-137.5 739,-116.5 687,-116.5"/>
<text text-anchor="middle" x="713" y="-124.5" font-family="Helvetica,sans-Serif" font-size="10.00">thread.h</text>
</a>
</g>
<!-- Node30&#45;&gt;Node32 -->
<g id="edge108" class="edge"><title>Node30&#45;&gt;Node32</title>
<path fill="none" stroke="midnightblue" d="M483.522,-639.248C559.246,-621.362 705,-580.736 705,-533 705,-533 705,-533 705,-359 705,-281.07 709.564,-188.502 711.798,-147.872"/>
<polygon fill="midnightblue" stroke="midnightblue" points="715.306,-147.813 712.372,-137.633 708.317,-147.421 715.306,-147.813"/>
</g>
<!-- Node31&#45;&gt;Node4 -->
<g id="edge102" class="edge"><title>Node31&#45;&gt;Node4</title>
<path fill="none" stroke="midnightblue" d="M782.479,-116.499C767.619,-100.859 737.254,-71.8098 705,-58 653.029,-35.7477 490.381,-20.4964 411.612,-14.2167"/>
<polygon fill="midnightblue" stroke="midnightblue" points="411.77,-10.7184 401.527,-13.4253 411.223,-17.697 411.77,-10.7184"/>
</g>
<!-- Node31&#45;&gt;Node11 -->
<g id="edge104" class="edge"><title>Node31&#45;&gt;Node11</title>
<path fill="none" stroke="midnightblue" d="M767.371,-116.497C745.843,-107.315 714.36,-93.8889 690.355,-83.6516"/>
<polygon fill="midnightblue" stroke="midnightblue" points="691.476,-80.3247 680.905,-79.6212 688.73,-86.7636 691.476,-80.3247"/>
</g>
<!-- Node31&#45;&gt;Node15 -->
<g id="edge106" class="edge"><title>Node31&#45;&gt;Node15</title>
<path fill="none" stroke="midnightblue" d="M789.982,-116.362C788.556,-108.84 786.598,-98.5187 784.875,-89.4308"/>
<polygon fill="midnightblue" stroke="midnightblue" points="788.307,-88.7433 783.005,-79.5707 781.429,-90.0477 788.307,-88.7433"/>
</g>
<!-- Node32&#45;&gt;Node4 -->
<g id="edge110" class="edge"><title>Node32&#45;&gt;Node4</title>
<path fill="none" stroke="midnightblue" d="M687.02,-116.382C651.921,-102.216 587.265,-76.7427 531,-58 490.864,-44.6301 444.451,-31.4668 411.441,-22.4876"/>
<polygon fill="midnightblue" stroke="midnightblue" points="412.216,-19.0714 401.649,-19.8396 410.389,-25.8287 412.216,-19.0714"/>
</g>
<!-- Node32&#45;&gt;Node11 -->
<g id="edge112" class="edge"><title>Node32&#45;&gt;Node11</title>
<path fill="none" stroke="midnightblue" d="M702.545,-116.362C694.43,-108.104 682.999,-96.4725 673.496,-86.8029"/>
<polygon fill="midnightblue" stroke="midnightblue" points="675.894,-84.2497 666.388,-79.5707 670.901,-89.1562 675.894,-84.2497"/>
</g>
<!-- Node32&#45;&gt;Node15 -->
<g id="edge114" class="edge"><title>Node32&#45;&gt;Node15</title>
<path fill="none" stroke="midnightblue" d="M725.472,-116.362C735.345,-107.941 749.333,-96.0105 760.798,-86.2308"/>
<polygon fill="midnightblue" stroke="midnightblue" points="763.27,-88.7231 768.607,-79.5707 758.727,-83.3972 763.27,-88.7231"/>
</g>
<!-- Node33&#45;&gt;Node9 -->
<g id="edge118" class="edge"><title>Node33&#45;&gt;Node9</title>
<path fill="none" stroke="midnightblue" d="M770.036,-236.903C722.543,-226.547 625.99,-205.494 571.579,-193.63"/>
<polygon fill="midnightblue" stroke="midnightblue" points="572.124,-190.167 561.608,-191.456 570.633,-197.006 572.124,-190.167"/>
</g>
<!-- Node34 -->
<g id="node94" class="node"><title>Node34</title>
<a xlink:href="atomic_8h.html" target="_top" xlink:title="atomic.h">
<polygon fill="white" stroke="black" points="845,-116.5 845,-137.5 899,-137.5 899,-116.5 845,-116.5"/>
<text text-anchor="middle" x="872" y="-124.5" font-family="Helvetica,sans-Serif" font-size="10.00">atomic.h</text>
</a>
</g>
<!-- Node33&#45;&gt;Node34 -->
<g id="edge120" class="edge"><title>Node33&#45;&gt;Node34</title>
<path fill="none" stroke="midnightblue" d="M805.839,-232.332C812.679,-222.908 822.769,-208.725 831,-196 841.576,-179.649 852.824,-160.588 860.858,-146.648"/>
<polygon fill="midnightblue" stroke="midnightblue" points="863.928,-148.329 865.858,-137.912 857.853,-144.852 863.928,-148.329"/>
</g>
<!-- Node36 -->
<g id="node101" class="node"><title>Node36</title>
<polygon fill="white" stroke="#bfbfbf" points="774,-174.5 774,-195.5 822,-195.5 822,-174.5 774,-174.5"/>
<text text-anchor="middle" x="798" y="-182.5" font-family="Helvetica,sans-Serif" font-size="10.00">stdlib.h</text>
</g>
<!-- Node33&#45;&gt;Node36 -->
<g id="edge130" class="edge"><title>Node33&#45;&gt;Node36</title>
<path fill="none" stroke="midnightblue" d="M798,-232.362C798,-224.922 798,-214.743 798,-205.728"/>
<polygon fill="midnightblue" stroke="midnightblue" points="801.5,-205.571 798,-195.571 794.5,-205.571 801.5,-205.571"/>
</g>
<!-- Node34&#45;&gt;Node4 -->
<g id="edge122" class="edge"><title>Node34&#45;&gt;Node4</title>
<path fill="none" stroke="midnightblue" d="M867.29,-116.4C859.66,-100.631 842.995,-71.4164 819,-58 801.36,-48.1373 521.76,-23.8501 411.866,-14.63"/>
<polygon fill="midnightblue" stroke="midnightblue" points="412.033,-11.1318 401.776,-13.7858 411.449,-18.1074 412.033,-11.1318"/>
</g>
<!-- Node34&#45;&gt;Node11 -->
<g id="edge124" class="edge"><title>Node34&#45;&gt;Node11</title>
<path fill="none" stroke="midnightblue" d="M844.908,-118.592C841.908,-117.699 838.892,-116.819 836,-116 792.398,-103.652 742.52,-90.7208 706.344,-81.5551"/>
<polygon fill="midnightblue" stroke="midnightblue" points="707.073,-78.1294 696.52,-79.0734 705.358,-84.9162 707.073,-78.1294"/>
</g>
<!-- Node34&#45;&gt;Node15 -->
<g id="edge126" class="edge"><title>Node34&#45;&gt;Node15</title>
<path fill="none" stroke="midnightblue" d="M855.309,-116.362C841.584,-107.614 821.916,-95.0786 806.263,-85.1015"/>
<polygon fill="midnightblue" stroke="midnightblue" points="807.899,-81.994 797.585,-79.5707 804.137,-87.8969 807.899,-81.994"/>
</g>
<!-- Node35 -->
<g id="node99" class="node"><title>Node35</title>
<polygon fill="white" stroke="#bfbfbf" points="865.5,-58.5 865.5,-79.5 932.5,-79.5 932.5,-58.5 865.5,-58.5"/>
<text text-anchor="middle" x="899" y="-66.5" font-family="Helvetica,sans-Serif" font-size="10.00">odversion.h</text>
</g>
<!-- Node34&#45;&gt;Node35 -->
<g id="edge128" class="edge"><title>Node34&#45;&gt;Node35</title>
<path fill="none" stroke="midnightblue" d="M876.952,-116.362C880.53,-108.677 885.468,-98.0686 889.764,-88.8399"/>
<polygon fill="midnightblue" stroke="midnightblue" points="893.032,-90.1136 894.079,-79.5707 886.686,-87.1594 893.032,-90.1136"/>
</g>
<!-- Node37&#45;&gt;Node25 -->
<g id="edge134" class="edge"><title>Node37&#45;&gt;Node25</title>
<path fill="none" stroke="midnightblue" d="M472.367,-522.362C472.623,-514.922 472.974,-504.743 473.285,-495.728"/>
<polygon fill="midnightblue" stroke="midnightblue" points="476.789,-495.685 473.635,-485.571 469.793,-495.444 476.789,-495.685"/>
</g>
<!-- Node37&#45;&gt;Node26 -->
<g id="edge136" class="edge"><title>Node37&#45;&gt;Node26</title>
<path fill="none" stroke="midnightblue" d="M457.143,-522.362C445.154,-513.777 428.073,-501.546 414.272,-491.664"/>
<polygon fill="midnightblue" stroke="midnightblue" points="415.931,-488.547 405.762,-485.571 411.855,-494.238 415.931,-488.547"/>
</g>
<!-- Node38&#45;&gt;Node9 -->
<g id="edge140" class="edge"><title>Node38&#45;&gt;Node9</title>
<path fill="none" stroke="midnightblue" d="M582.247,-580.317C598.153,-560.806 629,-517.489 629,-475 629,-475 629,-475 629,-301 629,-256.987 587.396,-220.87 558.682,-201.184"/>
<polygon fill="midnightblue" stroke="midnightblue" points="560.518,-198.202 550.245,-195.612 556.66,-204.043 560.518,-198.202"/>
</g>
<!-- Node38&#45;&gt;Node20 -->
<g id="edge150" class="edge"><title>Node38&#45;&gt;Node20</title>
<path fill="none" stroke="midnightblue" d="M544.842,-589.407C501.125,-586.002 415.177,-575.535 350,-544 306.818,-523.107 267,-522.971 267,-475 267,-475 267,-475 267,-243 267,-207.265 285.163,-168.982 297.88,-146.557"/>
<polygon fill="midnightblue" stroke="midnightblue" points="301.035,-148.097 303.091,-137.703 295.002,-144.546 301.035,-148.097"/>
</g>
<!-- Node38&#45;&gt;Node31 -->
<g id="edge148" class="edge"><title>Node38&#45;&gt;Node31</title>
<path fill="none" stroke="midnightblue" d="M590.681,-580.247C617.91,-562.178 667,-522.954 667,-475 667,-475 667,-475 667,-359 667,-272.283 678.149,-244.243 729,-174 738.015,-161.548 751.296,-150.953 763.342,-142.993"/>
<polygon fill="midnightblue" stroke="midnightblue" points="765.208,-145.954 771.817,-137.673 761.487,-140.025 765.208,-145.954"/>
</g>
<!-- Node38&#45;&gt;Node37 -->
<g id="edge152" class="edge"><title>Node38&#45;&gt;Node37</title>
<path fill="none" stroke="midnightblue" d="M554.475,-580.362C539.099,-571.532 517.004,-558.844 499.553,-548.822"/>
<polygon fill="midnightblue" stroke="midnightblue" points="500.822,-545.515 490.408,-543.571 497.336,-551.586 500.822,-545.515"/>
</g>
<!-- Node39 -->
<g id="node110" class="node"><title>Node39</title>
<a xlink:href="keystrs_8h.html" target="_top" xlink:title="keystrs.h">
<polygon fill="white" stroke="black" points="544.5,-348.5 544.5,-369.5 601.5,-369.5 601.5,-348.5 544.5,-348.5"/>
<text text-anchor="middle" x="573" y="-356.5" font-family="Helvetica,sans-Serif" font-size="10.00">keystrs.h</text>
</a>
</g>
<!-- Node38&#45;&gt;Node39 -->
<g id="edge142" class="edge"><title>Node38&#45;&gt;Node39</title>
<path fill="none" stroke="midnightblue" d="M573,-580.429C573,-544.648 573,-427.663 573,-379.748"/>
<polygon fill="midnightblue" stroke="midnightblue" points="576.5,-379.633 573,-369.634 569.5,-379.634 576.5,-379.633"/>
</g>
<!-- Node39&#45;&gt;Node7 -->
<g id="edge146" class="edge"><title>Node39&#45;&gt;Node7</title>
<path fill="none" stroke="midnightblue" d="M544.292,-352.004C503.547,-342.074 428.543,-323.796 380.264,-312.031"/>
<polygon fill="midnightblue" stroke="midnightblue" points="380.933,-308.591 370.389,-309.624 379.276,-315.392 380.933,-308.591"/>
</g>
<!-- Node39&#45;&gt;Node9 -->
<g id="edge144" class="edge"><title>Node39&#45;&gt;Node9</title>
<path fill="none" stroke="midnightblue" d="M570.497,-348.377C563.851,-320.172 545.67,-243.012 536.882,-205.72"/>
<polygon fill="midnightblue" stroke="midnightblue" points="540.275,-204.858 534.575,-195.928 533.462,-206.464 540.275,-204.858"/>
</g>
</g>
</svg>
