<?xml version="1.0" encoding="UTF-8" standalone="no"?>
<!DOCTYPE svg PUBLIC "-//W3C//DTD SVG 1.1//EN"
 "http://www.w3.org/Graphics/SVG/1.1/DTD/svg11.dtd">
<!-- Generated by graphviz version 2.26.0 (20091210.2329)
 -->
<!-- Title: uicompoundparsel.h Pages: 1 -->
<svg width="1159pt" height="204pt"
 viewBox="0.00 0.00 1159.00 204.00" xmlns="http://www.w3.org/2000/svg" xmlns:xlink="http://www.w3.org/1999/xlink">
<g id="graph1" class="graph" transform="scale(1 1) rotate(0) translate(4 200)">
<title>uicompoundparsel.h</title>
<polygon fill="white" stroke="white" points="-4,5 -4,-200 1156,-200 1156,5 -4,5"/>
<!-- Node1 -->
<g id="node1" class="node"><title>Node1</title>
<polygon fill="#bfbfbf" stroke="black" points="654,-174.5 654,-195.5 758,-195.5 758,-174.5 654,-174.5"/>
<text text-anchor="middle" x="706" y="-182.5" font-family="Helvetica,sans-Serif" font-size="10.00">uicompoundparsel.h</text>
</g>
<!-- Node2 -->
<g id="node3" class="node"><title>Node2</title>
<a xlink:href="uicoordsystem_8h.html" target="_top" xlink:title="uicoordsystem.h">
<polygon fill="white" stroke="black" points="252.5,-116.5 252.5,-137.5 341.5,-137.5 341.5,-116.5 252.5,-116.5"/>
<text text-anchor="middle" x="297" y="-124.5" font-family="Helvetica,sans-Serif" font-size="10.00">uicoordsystem.h</text>
</a>
</g>
<!-- Node1&#45;&gt;Node2 -->
<g id="edge2" class="edge"><title>Node1&#45;&gt;Node2</title>
<path fill="none" stroke="midnightblue" d="M643.793,-178.189C572.575,-170.066 452.521,-155.382 350,-138 347.313,-137.544 344.555,-137.051 341.776,-136.534"/>
<polygon fill="midnightblue" stroke="midnightblue" points="643.608,-181.69 653.938,-179.339 644.396,-174.735 643.608,-181.69"/>
</g>
<!-- Node9 -->
<g id="node17" class="node"><title>Node9</title>
<a xlink:href="uiposfilterset_8h.html" target="_top" xlink:title="uiposfilterset.h">
<polygon fill="white" stroke="black" points="359,-116.5 359,-137.5 439,-137.5 439,-116.5 359,-116.5"/>
<text text-anchor="middle" x="399" y="-124.5" font-family="Helvetica,sans-Serif" font-size="10.00">uiposfilterset.h</text>
</a>
</g>
<!-- Node1&#45;&gt;Node9 -->
<g id="edge16" class="edge"><title>Node1&#45;&gt;Node9</title>
<path fill="none" stroke="midnightblue" d="M643.861,-174.41C591.518,-165.314 514.716,-151.56 448,-138 445.095,-137.41 442.097,-136.782 439.083,-136.137"/>
<polygon fill="midnightblue" stroke="midnightblue" points="643.543,-177.907 653.994,-176.165 644.738,-171.009 643.543,-177.907"/>
</g>
<!-- Node10 -->
<g id="node19" class="node"><title>Node10</title>
<a xlink:href="uiposprovider_8h.html" target="_top" xlink:title="uiposprovider.h">
<polygon fill="white" stroke="black" points="456.5,-116.5 456.5,-137.5 539.5,-137.5 539.5,-116.5 456.5,-116.5"/>
<text text-anchor="middle" x="498" y="-124.5" font-family="Helvetica,sans-Serif" font-size="10.00">uiposprovider.h</text>
</a>
</g>
<!-- Node1&#45;&gt;Node10 -->
<g id="edge18" class="edge"><title>Node1&#45;&gt;Node10</title>
<path fill="none" stroke="midnightblue" d="M658.23,-171.68C621.032,-161.307 570.111,-147.108 535.738,-137.523"/>
<polygon fill="midnightblue" stroke="midnightblue" points="657.76,-175.182 668.333,-174.497 659.64,-168.439 657.76,-175.182"/>
</g>
<!-- Node11 -->
<g id="node21" class="node"><title>Node11</title>
<a xlink:href="uimultcomputils_8h.html" target="_top" xlink:title="uimultcomputils.h">
<polygon fill="white" stroke="black" points="556.5,-116.5 556.5,-137.5 649.5,-137.5 649.5,-116.5 556.5,-116.5"/>
<text text-anchor="middle" x="603" y="-124.5" font-family="Helvetica,sans-Serif" font-size="10.00">uimultcomputils.h</text>
</a>
</g>
<!-- Node1&#45;&gt;Node11 -->
<g id="edge20" class="edge"><title>Node1&#45;&gt;Node11</title>
<path fill="none" stroke="midnightblue" d="M678.259,-169.379C660.362,-159.301 637.563,-146.462 621.772,-137.571"/>
<polygon fill="midnightblue" stroke="midnightblue" points="676.677,-172.505 687.108,-174.362 680.112,-166.405 676.677,-172.505"/>
</g>
<!-- Node12 -->
<g id="node23" class="node"><title>Node12</title>
<a xlink:href="uiseislinesel_8h.html" target="_top" xlink:title="uiseislinesel.h">
<polygon fill="white" stroke="black" points="667,-116.5 667,-137.5 745,-137.5 745,-116.5 667,-116.5"/>
<text text-anchor="middle" x="706" y="-124.5" font-family="Helvetica,sans-Serif" font-size="10.00">uiseislinesel.h</text>
</a>
</g>
<!-- Node1&#45;&gt;Node12 -->
<g id="edge22" class="edge"><title>Node1&#45;&gt;Node12</title>
<path fill="none" stroke="midnightblue" d="M706,-164.191C706,-155.168 706,-144.994 706,-137.571"/>
<polygon fill="midnightblue" stroke="midnightblue" points="702.5,-164.362 706,-174.362 709.5,-164.362 702.5,-164.362"/>
</g>
<!-- Node13 -->
<g id="node25" class="node"><title>Node13</title>
<a xlink:href="uiseissel_8h.html" target="_top" xlink:title="uiseissel.h">
<polygon fill="white" stroke="black" points="762.5,-116.5 762.5,-137.5 825.5,-137.5 825.5,-116.5 762.5,-116.5"/>
<text text-anchor="middle" x="794" y="-124.5" font-family="Helvetica,sans-Serif" font-size="10.00">uiseissel.h</text>
</a>
</g>
<!-- Node1&#45;&gt;Node13 -->
<g id="edge24" class="edge"><title>Node1&#45;&gt;Node13</title>
<path fill="none" stroke="midnightblue" d="M730.547,-168.821C745.704,-158.831 764.718,-146.299 777.962,-137.571"/>
<polygon fill="midnightblue" stroke="midnightblue" points="728.564,-165.936 722.141,-174.362 732.416,-171.781 728.564,-165.936"/>
</g>
<!-- Node18 -->
<g id="node35" class="node"><title>Node18</title>
<a xlink:href="uiemauxdatasel_8h.html" target="_top" xlink:title="uiemauxdatasel.h">
<polygon fill="white" stroke="black" points="842.5,-116.5 842.5,-137.5 935.5,-137.5 935.5,-116.5 842.5,-116.5"/>
<text text-anchor="middle" x="889" y="-124.5" font-family="Helvetica,sans-Serif" font-size="10.00">uiemauxdatasel.h</text>
</a>
</g>
<!-- Node1&#45;&gt;Node18 -->
<g id="edge34" class="edge"><title>Node1&#45;&gt;Node18</title>
<path fill="none" stroke="midnightblue" d="M748.87,-171.413C781.52,-161.065 825.815,-147.026 855.798,-137.523"/>
<polygon fill="midnightblue" stroke="midnightblue" points="747.615,-168.139 739.14,-174.497 749.73,-174.812 747.615,-168.139"/>
</g>
<!-- Node19 -->
<g id="node37" class="node"><title>Node19</title>
<a xlink:href="uiiosurface_8h.html" target="_top" xlink:title="uiiosurface.h">
<polygon fill="white" stroke="black" points="953,-116.5 953,-137.5 1025,-137.5 1025,-116.5 953,-116.5"/>
<text text-anchor="middle" x="989" y="-124.5" font-family="Helvetica,sans-Serif" font-size="10.00">uiiosurface.h</text>
</a>
</g>
<!-- Node1&#45;&gt;Node19 -->
<g id="edge36" class="edge"><title>Node1&#45;&gt;Node19</title>
<path fill="none" stroke="midnightblue" d="M768.091,-173.527C816.209,-164.445 884.487,-151.143 944,-138 946.827,-137.376 949.749,-136.709 952.683,-136.025"/>
<polygon fill="midnightblue" stroke="midnightblue" points="767.319,-170.11 758.139,-175.399 768.614,-176.99 767.319,-170.11"/>
</g>
<!-- Node22 -->
<g id="node43" class="node"><title>Node22</title>
<a xlink:href="uiwellsel_8h.html" target="_top" xlink:title="uiwellsel.h">
<polygon fill="white" stroke="black" points="1043,-116.5 1043,-137.5 1105,-137.5 1105,-116.5 1043,-116.5"/>
<text text-anchor="middle" x="1074" y="-124.5" font-family="Helvetica,sans-Serif" font-size="10.00">uiwellsel.h</text>
</a>
</g>
<!-- Node1&#45;&gt;Node22 -->
<g id="edge42" class="edge"><title>Node1&#45;&gt;Node22</title>
<path fill="none" stroke="midnightblue" d="M768.321,-178.439C834.605,-170.91 942.32,-157.095 1034,-138 1036.82,-137.413 1039.74,-136.74 1042.65,-136.024"/>
<polygon fill="midnightblue" stroke="midnightblue" points="767.595,-174.999 758.048,-179.594 768.376,-181.955 767.595,-174.999"/>
</g>
<!-- Node3 -->
<g id="node5" class="node"><title>Node3</title>
<a xlink:href="uiimppickset_8h.html" target="_top" xlink:title="uiimppickset.h">
<polygon fill="white" stroke="black" points="0,-58.5 0,-79.5 80,-79.5 80,-58.5 0,-58.5"/>
<text text-anchor="middle" x="40" y="-66.5" font-family="Helvetica,sans-Serif" font-size="10.00">uiimppickset.h</text>
</a>
</g>
<!-- Node2&#45;&gt;Node3 -->
<g id="edge4" class="edge"><title>Node2&#45;&gt;Node3</title>
<path fill="none" stroke="midnightblue" d="M242.193,-114.631C193.542,-103.652 123.603,-87.8676 80.0328,-78.0346"/>
<polygon fill="midnightblue" stroke="midnightblue" points="241.709,-118.11 252.234,-116.897 243.25,-111.282 241.709,-118.11"/>
</g>
<!-- Node4 -->
<g id="node7" class="node"><title>Node4</title>
<a xlink:href="uilatlong2coord_8h.html" target="_top" xlink:title="uilatlong2coord.h">
<polygon fill="white" stroke="black" points="98,-58.5 98,-79.5 188,-79.5 188,-58.5 98,-58.5"/>
<text text-anchor="middle" x="143" y="-66.5" font-family="Helvetica,sans-Serif" font-size="10.00">uilatlong2coord.h</text>
</a>
</g>
<!-- Node2&#45;&gt;Node4 -->
<g id="edge6" class="edge"><title>Node2&#45;&gt;Node4</title>
<path fill="none" stroke="midnightblue" d="M259.494,-112.874C232.166,-102.582 195.737,-88.862 170.941,-79.5231"/>
<polygon fill="midnightblue" stroke="midnightblue" points="258.52,-116.247 269.112,-116.497 260.987,-109.697 258.52,-116.247"/>
</g>
<!-- Node5 -->
<g id="node9" class="node"><title>Node5</title>
<a xlink:href="uiseisiosimple_8h.html" target="_top" xlink:title="uiseisiosimple.h">
<polygon fill="white" stroke="black" points="206,-58.5 206,-79.5 292,-79.5 292,-58.5 206,-58.5"/>
<text text-anchor="middle" x="249" y="-66.5" font-family="Helvetica,sans-Serif" font-size="10.00">uiseisiosimple.h</text>
</a>
</g>
<!-- Node2&#45;&gt;Node5 -->
<g id="edge8" class="edge"><title>Node2&#45;&gt;Node5</title>
<path fill="none" stroke="midnightblue" d="M281.723,-108.541C273.81,-98.9786 264.432,-87.6467 257.748,-79.5707"/>
<polygon fill="midnightblue" stroke="midnightblue" points="279.124,-110.889 288.196,-116.362 284.517,-106.426 279.124,-110.889"/>
</g>
<!-- Node6 -->
<g id="node11" class="node"><title>Node6</title>
<a xlink:href="uiexpfault_8h.html" target="_top" xlink:title="uiexpfault.h">
<polygon fill="white" stroke="black" points="309.5,-58.5 309.5,-79.5 376.5,-79.5 376.5,-58.5 309.5,-58.5"/>
<text text-anchor="middle" x="343" y="-66.5" font-family="Helvetica,sans-Serif" font-size="10.00">uiexpfault.h</text>
</a>
</g>
<!-- Node2&#45;&gt;Node6 -->
<g id="edge10" class="edge"><title>Node2&#45;&gt;Node6</title>
<path fill="none" stroke="midnightblue" d="M311.87,-108.25C319.405,-98.75 328.276,-87.5651 334.616,-79.5707"/>
<polygon fill="midnightblue" stroke="midnightblue" points="308.909,-106.352 305.437,-116.362 314.393,-110.702 308.909,-106.352"/>
</g>
<!-- Node7 -->
<g id="node13" class="node"><title>Node7</title>
<a xlink:href="uiexphorizon_8h.html" target="_top" xlink:title="uiexphorizon.h">
<polygon fill="white" stroke="black" points="394,-58.5 394,-79.5 474,-79.5 474,-58.5 394,-58.5"/>
<text text-anchor="middle" x="434" y="-66.5" font-family="Helvetica,sans-Serif" font-size="10.00">uiexphorizon.h</text>
</a>
</g>
<!-- Node2&#45;&gt;Node7 -->
<g id="edge12" class="edge"><title>Node2&#45;&gt;Node7</title>
<path fill="none" stroke="midnightblue" d="M331.299,-112.479C355.415,-102.269 387.14,-88.8386 408.912,-79.6212"/>
<polygon fill="midnightblue" stroke="midnightblue" points="329.654,-109.375 321.81,-116.497 332.383,-115.821 329.654,-109.375"/>
</g>
<!-- Node8 -->
<g id="node15" class="node"><title>Node8</title>
<a xlink:href="uiprestackexpmute_8h.html" target="_top" xlink:title="uiprestackexpmute.h">
<polygon fill="white" stroke="black" points="491.5,-58.5 491.5,-79.5 598.5,-79.5 598.5,-58.5 491.5,-58.5"/>
<text text-anchor="middle" x="545" y="-66.5" font-family="Helvetica,sans-Serif" font-size="10.00">uiprestackexpmute.h</text>
</a>
</g>
<!-- Node2&#45;&gt;Node8 -->
<g id="edge14" class="edge"><title>Node2&#45;&gt;Node8</title>
<path fill="none" stroke="midnightblue" d="M351.403,-114.277C395.915,-103.867 458.123,-89.318 499.898,-79.5482"/>
<polygon fill="midnightblue" stroke="midnightblue" points="350.564,-110.878 341.624,-116.564 352.158,-117.694 350.564,-110.878"/>
</g>
<!-- Node14 -->
<g id="node27" class="node"><title>Node14</title>
<a xlink:href="uistaticsdesc_8h.html" target="_top" xlink:title="uistaticsdesc.h">
<polygon fill="white" stroke="black" points="660.5,-58.5 660.5,-79.5 743.5,-79.5 743.5,-58.5 660.5,-58.5"/>
<text text-anchor="middle" x="702" y="-66.5" font-family="Helvetica,sans-Serif" font-size="10.00">uistaticsdesc.h</text>
</a>
</g>
<!-- Node13&#45;&gt;Node14 -->
<g id="edge26" class="edge"><title>Node13&#45;&gt;Node14</title>
<path fill="none" stroke="midnightblue" d="M768.338,-110.821C752.491,-100.831 732.613,-88.2993 718.767,-79.5707"/>
<polygon fill="midnightblue" stroke="midnightblue" points="766.8,-113.99 777.126,-116.362 770.533,-108.068 766.8,-113.99"/>
</g>
<!-- Node15 -->
<g id="node29" class="node"><title>Node15</title>
<a xlink:href="uiveldesc_8h.html" target="_top" xlink:title="uiveldesc.h">
<polygon fill="white" stroke="black" points="761,-58.5 761,-79.5 827,-79.5 827,-58.5 761,-58.5"/>
<text text-anchor="middle" x="794" y="-66.5" font-family="Helvetica,sans-Serif" font-size="10.00">uiveldesc.h</text>
</a>
</g>
<!-- Node13&#45;&gt;Node15 -->
<g id="edge28" class="edge"><title>Node13&#45;&gt;Node15</title>
<path fill="none" stroke="midnightblue" d="M794,-106.191C794,-97.1684 794,-86.9941 794,-79.5707"/>
<polygon fill="midnightblue" stroke="midnightblue" points="790.5,-106.362 794,-116.362 797.5,-106.362 790.5,-106.362"/>
</g>
<!-- Node16 -->
<g id="node31" class="node"><title>Node16</title>
<a xlink:href="uisteeringsel_8h.html" target="_top" xlink:title="uisteeringsel.h">
<polygon fill="white" stroke="black" points="845,-58.5 845,-79.5 925,-79.5 925,-58.5 845,-58.5"/>
<text text-anchor="middle" x="885" y="-66.5" font-family="Helvetica,sans-Serif" font-size="10.00">uisteeringsel.h</text>
</a>
</g>
<!-- Node13&#45;&gt;Node16 -->
<g id="edge30" class="edge"><title>Node13&#45;&gt;Node16</title>
<path fill="none" stroke="midnightblue" d="M819.384,-110.821C835.058,-100.831 854.72,-88.2993 868.415,-79.5707"/>
<polygon fill="midnightblue" stroke="midnightblue" points="817.242,-108.036 810.691,-116.362 821.005,-113.939 817.242,-108.036"/>
</g>
<!-- Node17 -->
<g id="node33" class="node"><title>Node17</title>
<a xlink:href="uisimilarityattrib_8h.html" target="_top" xlink:title="uisimilarityattrib.h">
<polygon fill="white" stroke="black" points="838.5,-0.5 838.5,-21.5 931.5,-21.5 931.5,-0.5 838.5,-0.5"/>
<text text-anchor="middle" x="885" y="-8.5" font-family="Helvetica,sans-Serif" font-size="10.00">uisimilarityattrib.h</text>
</a>
</g>
<!-- Node16&#45;&gt;Node17 -->
<g id="edge32" class="edge"><title>Node16&#45;&gt;Node17</title>
<path fill="none" stroke="midnightblue" d="M885,-48.1906C885,-39.1684 885,-28.9941 885,-21.5707"/>
<polygon fill="midnightblue" stroke="midnightblue" points="881.5,-48.3619 885,-58.3619 888.5,-48.3619 881.5,-48.3619"/>
</g>
<!-- Node20 -->
<g id="node39" class="node"><title>Node20</title>
<a xlink:href="uiiosurfacedlg_8h.html" target="_top" xlink:title="uiiosurfacedlg.h">
<polygon fill="white" stroke="black" points="944.5,-58.5 944.5,-79.5 1029.5,-79.5 1029.5,-58.5 944.5,-58.5"/>
<text text-anchor="middle" x="987" y="-66.5" font-family="Helvetica,sans-Serif" font-size="10.00">uiiosurfacedlg.h</text>
</a>
</g>
<!-- Node19&#45;&gt;Node20 -->
<g id="edge38" class="edge"><title>Node19&#45;&gt;Node20</title>
<path fill="none" stroke="midnightblue" d="M988.282,-106.191C987.971,-97.1684 987.62,-86.9941 987.365,-79.5707"/>
<polygon fill="midnightblue" stroke="midnightblue" points="984.791,-106.488 988.633,-116.362 991.786,-106.247 984.791,-106.488"/>
</g>
<!-- Node21 -->
<g id="node41" class="node"><title>Node21</title>
<a xlink:href="uimultisurfaceread_8h.html" target="_top" xlink:title="uimultisurfaceread.h">
<polygon fill="white" stroke="black" points="1047,-58.5 1047,-79.5 1151,-79.5 1151,-58.5 1047,-58.5"/>
<text text-anchor="middle" x="1099" y="-66.5" font-family="Helvetica,sans-Serif" font-size="10.00">uimultisurfaceread.h</text>
</a>
</g>
<!-- Node19&#45;&gt;Node21 -->
<g id="edge40" class="edge"><title>Node19&#45;&gt;Node21</title>
<path fill="none" stroke="midnightblue" d="M1017.84,-111.794C1037.03,-101.675 1061.76,-88.6338 1078.86,-79.6212"/>
<polygon fill="midnightblue" stroke="midnightblue" points="1016.13,-108.736 1008.92,-116.497 1019.4,-114.928 1016.13,-108.736"/>
</g>
</g>
</svg>
