<?xml version="1.0" encoding="UTF-8" standalone="no"?>
<!DOCTYPE svg PUBLIC "-//W3C//DTD SVG 1.1//EN"
 "http://www.w3.org/Graphics/SVG/1.1/DTD/svg11.dtd">
<!-- Generated by graphviz version 2.26.0 (20091210.2329)
 -->
<!-- Title: uifiledlg.h Pages: 1 -->
<svg width="705pt" height="726pt"
 viewBox="0.00 0.00 704.82 726.00" xmlns="http://www.w3.org/2000/svg" xmlns:xlink="http://www.w3.org/1999/xlink">
<g id="graph1" class="graph" transform="scale(1 1) rotate(0) translate(4 722)">
<title>uifiledlg.h</title>
<polygon fill="white" stroke="white" points="-4,5 -4,-722 701.815,-722 701.815,5 -4,5"/>
<!-- Node1 -->
<g id="node1" class="node"><title>Node1</title>
<polygon fill="#bfbfbf" stroke="black" points="176,-696.5 176,-717.5 234,-717.5 234,-696.5 176,-696.5"/>
<text text-anchor="middle" x="205" y="-704.5" font-family="Helvetica,sans-Serif" font-size="10.00">uifiledlg.h</text>
</g>
<!-- Node2 -->
<g id="node3" class="node"><title>Node2</title>
<polygon fill="white" stroke="#bfbfbf" points="77,-638.5 77,-659.5 149,-659.5 149,-638.5 77,-638.5"/>
<text text-anchor="middle" x="113" y="-646.5" font-family="Helvetica,sans-Serif" font-size="10.00">uibasemod.h</text>
</g>
<!-- Node1&#45;&gt;Node2 -->
<g id="edge2" class="edge"><title>Node1&#45;&gt;Node2</title>
<path fill="none" stroke="midnightblue" d="M188.126,-696.362C174.249,-687.614 154.366,-675.079 138.54,-665.101"/>
<polygon fill="midnightblue" stroke="midnightblue" points="140.093,-661.943 129.767,-659.571 136.36,-667.864 140.093,-661.943"/>
</g>
<!-- Node3 -->
<g id="node5" class="node"><title>Node3</title>
<a xlink:href="bufstringset_8h.html" target="_top" xlink:title="bufstringset.h">
<polygon fill="white" stroke="black" points="167,-638.5 167,-659.5 243,-659.5 243,-638.5 167,-638.5"/>
<text text-anchor="middle" x="205" y="-646.5" font-family="Helvetica,sans-Serif" font-size="10.00">bufstringset.h</text>
</a>
</g>
<!-- Node1&#45;&gt;Node3 -->
<g id="edge4" class="edge"><title>Node1&#45;&gt;Node3</title>
<path fill="none" stroke="midnightblue" d="M205,-696.362C205,-688.922 205,-678.743 205,-669.728"/>
<polygon fill="midnightblue" stroke="midnightblue" points="208.5,-669.571 205,-659.571 201.5,-669.571 208.5,-669.571"/>
</g>
<!-- Node29 -->
<g id="node74" class="node"><title>Node29</title>
<a xlink:href="uistring_8h.html" target="_top" xlink:title="uistring.h">
<polygon fill="white" stroke="black" points="365,-580.5 365,-601.5 421,-601.5 421,-580.5 365,-580.5"/>
<text text-anchor="middle" x="393" y="-588.5" font-family="Helvetica,sans-Serif" font-size="10.00">uistring.h</text>
</a>
</g>
<!-- Node1&#45;&gt;Node29 -->
<g id="edge90" class="edge"><title>Node1&#45;&gt;Node29</title>
<path fill="none" stroke="midnightblue" d="M222.35,-696.295C255.59,-675.785 328.4,-630.859 367.3,-606.857"/>
<polygon fill="midnightblue" stroke="midnightblue" points="369.291,-609.741 375.964,-601.512 365.616,-603.784 369.291,-609.741"/>
</g>
<!-- Node4 -->
<g id="node7" class="node"><title>Node4</title>
<polygon fill="white" stroke="#bfbfbf" points="258.5,-0.5 258.5,-21.5 325.5,-21.5 325.5,-0.5 258.5,-0.5"/>
<text text-anchor="middle" x="292" y="-8.5" font-family="Helvetica,sans-Serif" font-size="10.00">basicmod.h</text>
</g>
<!-- Node3&#45;&gt;Node4 -->
<g id="edge6" class="edge"><title>Node3&#45;&gt;Node4</title>
<path fill="none" stroke="midnightblue" d="M173.418,-638.394C115.914,-618.116 0,-572.36 0,-533 0,-533 0,-533 0,-127 0,-91.5529 11.0459,-78.4489 40,-58 72.8857,-34.7744 185.16,-20.9019 248.181,-14.763"/>
<polygon fill="midnightblue" stroke="midnightblue" points="248.602,-18.2389 258.226,-13.8093 247.94,-11.2702 248.602,-18.2389"/>
</g>
<!-- Node5 -->
<g id="node9" class="node"><title>Node5</title>
<a xlink:href="bufstring_8h.html" target="_top" xlink:title="bufstring.h">
<polygon fill="white" stroke="black" points="140,-348.5 140,-369.5 202,-369.5 202,-348.5 140,-348.5"/>
<text text-anchor="middle" x="171" y="-356.5" font-family="Helvetica,sans-Serif" font-size="10.00">bufstring.h</text>
</a>
</g>
<!-- Node3&#45;&gt;Node5 -->
<g id="edge8" class="edge"><title>Node3&#45;&gt;Node5</title>
<path fill="none" stroke="midnightblue" d="M193.465,-638.388C174.064,-619.321 137,-577.12 137,-533 137,-533 137,-533 137,-475 137,-440.058 151.382,-401.499 161.439,-378.809"/>
<polygon fill="midnightblue" stroke="midnightblue" points="164.689,-380.118 165.688,-369.57 158.329,-377.193 164.689,-380.118"/>
</g>
<!-- Node22 -->
<g id="node54" class="node"><title>Node22</title>
<a xlink:href="manobjectset_8h.html" target="_top" xlink:title="manobjectset.h">
<polygon fill="white" stroke="black" points="231.5,-580.5 231.5,-601.5 314.5,-601.5 314.5,-580.5 231.5,-580.5"/>
<text text-anchor="middle" x="273" y="-588.5" font-family="Helvetica,sans-Serif" font-size="10.00">manobjectset.h</text>
</a>
</g>
<!-- Node3&#45;&gt;Node22 -->
<g id="edge64" class="edge"><title>Node3&#45;&gt;Node22</title>
<path fill="none" stroke="midnightblue" d="M217.472,-638.362C227.345,-629.941 241.333,-618.011 252.798,-608.231"/>
<polygon fill="midnightblue" stroke="midnightblue" points="255.27,-610.723 260.607,-601.571 250.727,-605.397 255.27,-610.723"/>
</g>
<!-- Node5&#45;&gt;Node4 -->
<g id="edge10" class="edge"><title>Node5&#45;&gt;Node4</title>
<path fill="none" stroke="midnightblue" d="M160.247,-348.457C119.272,-307.035 -20.9391,-153.07 57,-58 80.6888,-29.1043 186.814,-17.6197 248.041,-13.3386"/>
<polygon fill="midnightblue" stroke="midnightblue" points="248.445,-16.8196 258.191,-12.6659 247.982,-9.83489 248.445,-16.8196"/>
</g>
<!-- Node6 -->
<g id="node12" class="node"><title>Node6</title>
<a xlink:href="fixedstring_8h.html" target="_top" xlink:title="fixedstring.h">
<polygon fill="white" stroke="black" points="207,-290.5 207,-311.5 277,-311.5 277,-290.5 207,-290.5"/>
<text text-anchor="middle" x="242" y="-298.5" font-family="Helvetica,sans-Serif" font-size="10.00">fixedstring.h</text>
</a>
</g>
<!-- Node5&#45;&gt;Node6 -->
<g id="edge12" class="edge"><title>Node5&#45;&gt;Node6</title>
<path fill="none" stroke="midnightblue" d="M184.022,-348.362C194.431,-339.859 209.219,-327.779 221.255,-317.947"/>
<polygon fill="midnightblue" stroke="midnightblue" points="223.53,-320.608 229.06,-311.571 219.101,-315.187 223.53,-320.608"/>
</g>
<!-- Node19 -->
<g id="node45" class="node"><title>Node19</title>
<a xlink:href="string2_8h.html" target="_top" xlink:title="string2.h">
<polygon fill="white" stroke="black" points="148,-116.5 148,-137.5 202,-137.5 202,-116.5 148,-116.5"/>
<text text-anchor="middle" x="175" y="-124.5" font-family="Helvetica,sans-Serif" font-size="10.00">string2.h</text>
</a>
</g>
<!-- Node5&#45;&gt;Node19 -->
<g id="edge52" class="edge"><title>Node5&#45;&gt;Node19</title>
<path fill="none" stroke="midnightblue" d="M171.182,-348.429C171.799,-312.648 173.816,-195.663 174.642,-147.748"/>
<polygon fill="midnightblue" stroke="midnightblue" points="178.144,-147.692 174.817,-137.634 171.145,-147.572 178.144,-147.692"/>
</g>
<!-- Node6&#45;&gt;Node4 -->
<g id="edge14" class="edge"><title>Node6&#45;&gt;Node4</title>
<path fill="none" stroke="midnightblue" d="M243.839,-290.335C251.189,-247.704 278.537,-89.0869 288.413,-31.8034"/>
<polygon fill="midnightblue" stroke="midnightblue" points="291.894,-32.2115 290.144,-21.7622 284.996,-31.0221 291.894,-32.2115"/>
</g>
<!-- Node7 -->
<g id="node15" class="node"><title>Node7</title>
<a xlink:href="odstring_8h.html" target="_top" xlink:title="odstring.h">
<polygon fill="white" stroke="black" points="262.5,-232.5 262.5,-253.5 321.5,-253.5 321.5,-232.5 262.5,-232.5"/>
<text text-anchor="middle" x="292" y="-240.5" font-family="Helvetica,sans-Serif" font-size="10.00">odstring.h</text>
</a>
</g>
<!-- Node6&#45;&gt;Node7 -->
<g id="edge16" class="edge"><title>Node6&#45;&gt;Node7</title>
<path fill="none" stroke="midnightblue" d="M251.171,-290.362C258.148,-282.268 267.921,-270.932 276.156,-261.38"/>
<polygon fill="midnightblue" stroke="midnightblue" points="279.009,-263.43 282.887,-253.571 273.707,-258.859 279.009,-263.43"/>
</g>
<!-- Node7&#45;&gt;Node4 -->
<g id="edge18" class="edge"><title>Node7&#45;&gt;Node4</title>
<path fill="none" stroke="midnightblue" d="M292,-232.429C292,-196.648 292,-79.6628 292,-31.7481"/>
<polygon fill="midnightblue" stroke="midnightblue" points="295.5,-31.6335 292,-21.6335 288.5,-31.6335 295.5,-31.6335"/>
</g>
<!-- Node8 -->
<g id="node18" class="node"><title>Node8</title>
<a xlink:href="gendefs_8h.html" target="_top" xlink:title="gendefs.h">
<polygon fill="white" stroke="black" points="453.5,-174.5 453.5,-195.5 512.5,-195.5 512.5,-174.5 453.5,-174.5"/>
<text text-anchor="middle" x="483" y="-182.5" font-family="Helvetica,sans-Serif" font-size="10.00">gendefs.h</text>
</a>
</g>
<!-- Node7&#45;&gt;Node8 -->
<g id="edge20" class="edge"><title>Node7&#45;&gt;Node8</title>
<path fill="none" stroke="midnightblue" d="M321.844,-233.938C354.643,-223.978 407.467,-207.937 443.636,-196.953"/>
<polygon fill="midnightblue" stroke="midnightblue" points="444.814,-200.254 453.366,-193.999 442.78,-193.556 444.814,-200.254"/>
</g>
<!-- Node9 -->
<g id="node20" class="node"><title>Node9</title>
<a xlink:href="undefval_8h.html" target="_top" xlink:title="undefval.h">
<polygon fill="white" stroke="black" points="358,-116.5 358,-137.5 420,-137.5 420,-116.5 358,-116.5"/>
<text text-anchor="middle" x="389" y="-124.5" font-family="Helvetica,sans-Serif" font-size="10.00">undefval.h</text>
</a>
</g>
<!-- Node8&#45;&gt;Node9 -->
<g id="edge22" class="edge"><title>Node8&#45;&gt;Node9</title>
<path fill="none" stroke="midnightblue" d="M465.759,-174.362C451.448,-165.532 430.885,-152.844 414.643,-142.822"/>
<polygon fill="midnightblue" stroke="midnightblue" points="416.48,-139.843 406.132,-137.571 412.804,-145.8 416.48,-139.843"/>
</g>
<!-- Node16 -->
<g id="node37" class="node"><title>Node16</title>
<a xlink:href="commontypes_8h.html" target="_top" xlink:title="commontypes.h">
<polygon fill="white" stroke="black" points="526,-116.5 526,-137.5 612,-137.5 612,-116.5 526,-116.5"/>
<text text-anchor="middle" x="569" y="-124.5" font-family="Helvetica,sans-Serif" font-size="10.00">commontypes.h</text>
</a>
</g>
<!-- Node8&#45;&gt;Node16 -->
<g id="edge42" class="edge"><title>Node8&#45;&gt;Node16</title>
<path fill="none" stroke="midnightblue" d="M498.774,-174.362C511.624,-165.696 529.985,-153.313 544.71,-143.382"/>
<polygon fill="midnightblue" stroke="midnightblue" points="546.993,-146.064 553.326,-137.571 543.079,-140.26 546.993,-146.064"/>
</g>
<!-- Node17 -->
<g id="node40" class="node"><title>Node17</title>
<a xlink:href="errmsg_8h.html" target="_top" xlink:title="errmsg.h">
<polygon fill="white" stroke="black" points="629.5,-116.5 629.5,-137.5 684.5,-137.5 684.5,-116.5 629.5,-116.5"/>
<text text-anchor="middle" x="657" y="-124.5" font-family="Helvetica,sans-Serif" font-size="10.00">errmsg.h</text>
</a>
</g>
<!-- Node8&#45;&gt;Node17 -->
<g id="edge46" class="edge"><title>Node8&#45;&gt;Node17</title>
<path fill="none" stroke="midnightblue" d="M512.517,-175.161C542.001,-165.333 587.428,-150.191 619.46,-139.513"/>
<polygon fill="midnightblue" stroke="midnightblue" points="620.973,-142.699 629.353,-136.216 618.759,-136.058 620.973,-142.699"/>
</g>
<!-- Node9&#45;&gt;Node4 -->
<g id="edge24" class="edge"><title>Node9&#45;&gt;Node4</title>
<path fill="none" stroke="midnightblue" d="M383.081,-116.121C375.143,-101.998 360.162,-76.9222 344,-58 334.862,-47.3011 323.371,-36.6789 313.516,-28.2466"/>
<polygon fill="midnightblue" stroke="midnightblue" points="315.629,-25.4509 305.71,-21.725 311.14,-30.8227 315.629,-25.4509"/>
</g>
<!-- Node10 -->
<g id="node23" class="node"><title>Node10</title>
<a xlink:href="commondefs_8h.html" target="_top" xlink:title="commondefs.h">
<polygon fill="white" stroke="black" points="509.5,-58.5 509.5,-79.5 590.5,-79.5 590.5,-58.5 509.5,-58.5"/>
<text text-anchor="middle" x="550" y="-66.5" font-family="Helvetica,sans-Serif" font-size="10.00">commondefs.h</text>
</a>
</g>
<!-- Node9&#45;&gt;Node10 -->
<g id="edge26" class="edge"><title>Node9&#45;&gt;Node10</title>
<path fill="none" stroke="midnightblue" d="M418.156,-116.497C444.176,-107.123 482.479,-93.3242 511.104,-83.0122"/>
<polygon fill="midnightblue" stroke="midnightblue" points="512.568,-86.2052 520.789,-79.5231 510.195,-79.6195 512.568,-86.2052"/>
</g>
<!-- Node14 -->
<g id="node32" class="node"><title>Node14</title>
<a xlink:href="plftypes_8h.html" target="_top" xlink:title="plftypes.h">
<polygon fill="white" stroke="black" points="395.5,-58.5 395.5,-79.5 454.5,-79.5 454.5,-58.5 395.5,-58.5"/>
<text text-anchor="middle" x="425" y="-66.5" font-family="Helvetica,sans-Serif" font-size="10.00">plftypes.h</text>
</a>
</g>
<!-- Node9&#45;&gt;Node14 -->
<g id="edge36" class="edge"><title>Node9&#45;&gt;Node14</title>
<path fill="none" stroke="midnightblue" d="M395.603,-116.362C400.475,-108.513 407.238,-97.6159 413.05,-88.2527"/>
<polygon fill="midnightblue" stroke="midnightblue" points="416.139,-89.9129 418.439,-79.5707 410.191,-86.2213 416.139,-89.9129"/>
</g>
<!-- Node10&#45;&gt;Node4 -->
<g id="edge28" class="edge"><title>Node10&#45;&gt;Node4</title>
<path fill="none" stroke="midnightblue" d="M509.404,-59.8737C462.107,-49.2411 384.262,-31.741 335.682,-20.82"/>
<polygon fill="midnightblue" stroke="midnightblue" points="336.305,-17.3729 325.781,-18.5942 334.77,-24.2024 336.305,-17.3729"/>
</g>
<!-- Node11 -->
<g id="node26" class="node"><title>Node11</title>
<a xlink:href="plfdefs_8h.html" target="_top" xlink:title="plfdefs.h">
<polygon fill="white" stroke="black" points="464,-0.5 464,-21.5 518,-21.5 518,-0.5 464,-0.5"/>
<text text-anchor="middle" x="491" y="-8.5" font-family="Helvetica,sans-Serif" font-size="10.00">plfdefs.h</text>
</a>
</g>
<!-- Node10&#45;&gt;Node11 -->
<g id="edge30" class="edge"><title>Node10&#45;&gt;Node11</title>
<path fill="none" stroke="midnightblue" d="M539.178,-58.3619C530.779,-50.1043 518.946,-38.4725 509.11,-28.8029"/>
<polygon fill="midnightblue" stroke="midnightblue" points="511.338,-26.0851 501.753,-21.5707 506.431,-31.077 511.338,-26.0851"/>
</g>
<!-- Node12 -->
<g id="node28" class="node"><title>Node12</title>
<polygon fill="white" stroke="#bfbfbf" points="636.5,-0.5 636.5,-21.5 695.5,-21.5 695.5,-0.5 636.5,-0.5"/>
<text text-anchor="middle" x="666" y="-8.5" font-family="Helvetica,sans-Serif" font-size="10.00">stdexcept</text>
</g>
<!-- Node10&#45;&gt;Node12 -->
<g id="edge32" class="edge"><title>Node10&#45;&gt;Node12</title>
<path fill="none" stroke="midnightblue" d="M571.007,-58.4966C589.043,-49.4786 615.27,-36.3649 635.599,-26.2006"/>
<polygon fill="midnightblue" stroke="midnightblue" points="637.379,-29.2239 644.758,-21.6212 634.248,-22.9629 637.379,-29.2239"/>
</g>
<!-- Node13 -->
<g id="node30" class="node"><title>Node13</title>
<polygon fill="white" stroke="#bfbfbf" points="535.5,-0.5 535.5,-21.5 570.5,-21.5 570.5,-0.5 535.5,-0.5"/>
<text text-anchor="middle" x="553" y="-8.5" font-family="Helvetica,sans-Serif" font-size="10.00">new</text>
</g>
<!-- Node10&#45;&gt;Node13 -->
<g id="edge34" class="edge"><title>Node10&#45;&gt;Node13</title>
<path fill="none" stroke="midnightblue" d="M550.55,-58.3619C550.935,-50.9219 551.462,-40.7427 551.928,-31.7276"/>
<polygon fill="midnightblue" stroke="midnightblue" points="555.432,-31.7381 552.453,-21.5707 548.441,-31.3765 555.432,-31.7381"/>
</g>
<!-- Node14&#45;&gt;Node11 -->
<g id="edge38" class="edge"><title>Node14&#45;&gt;Node11</title>
<path fill="none" stroke="midnightblue" d="M437.105,-58.3619C446.688,-49.9408 460.264,-38.0105 471.393,-28.2308"/>
<polygon fill="midnightblue" stroke="midnightblue" points="473.77,-30.8009 478.971,-21.5707 469.149,-25.5427 473.77,-30.8009"/>
</g>
<!-- Node15 -->
<g id="node35" class="node"><title>Node15</title>
<polygon fill="white" stroke="#bfbfbf" points="397.5,-0.5 397.5,-21.5 446.5,-21.5 446.5,-0.5 397.5,-0.5"/>
<text text-anchor="middle" x="422" y="-8.5" font-family="Helvetica,sans-Serif" font-size="10.00">stdint.h</text>
</g>
<!-- Node14&#45;&gt;Node15 -->
<g id="edge40" class="edge"><title>Node14&#45;&gt;Node15</title>
<path fill="none" stroke="midnightblue" d="M424.45,-58.3619C424.065,-50.9219 423.538,-40.7427 423.072,-31.7276"/>
<polygon fill="midnightblue" stroke="midnightblue" points="426.559,-31.3765 422.547,-21.5707 419.568,-31.7381 426.559,-31.3765"/>
</g>
<!-- Node16&#45;&gt;Node10 -->
<g id="edge44" class="edge"><title>Node16&#45;&gt;Node10</title>
<path fill="none" stroke="midnightblue" d="M565.515,-116.362C563.024,-108.758 559.596,-98.294 556.596,-89.1349"/>
<polygon fill="midnightblue" stroke="midnightblue" points="559.902,-87.9841 553.463,-79.5707 553.25,-90.1634 559.902,-87.9841"/>
</g>
<!-- Node17&#45;&gt;Node10 -->
<g id="edge48" class="edge"><title>Node17&#45;&gt;Node10</title>
<path fill="none" stroke="midnightblue" d="M637.375,-116.362C620.859,-107.409 597.026,-94.4908 578.422,-84.4064"/>
<polygon fill="midnightblue" stroke="midnightblue" points="579.96,-81.2592 569.501,-79.5707 576.625,-87.4132 579.96,-81.2592"/>
</g>
<!-- Node18 -->
<g id="node43" class="node"><title>Node18</title>
<polygon fill="white" stroke="#bfbfbf" points="631.5,-58.5 631.5,-79.5 682.5,-79.5 682.5,-58.5 631.5,-58.5"/>
<text text-anchor="middle" x="657" y="-66.5" font-family="Helvetica,sans-Serif" font-size="10.00">typeinfo</text>
</g>
<!-- Node17&#45;&gt;Node18 -->
<g id="edge50" class="edge"><title>Node17&#45;&gt;Node18</title>
<path fill="none" stroke="midnightblue" d="M657,-116.362C657,-108.922 657,-98.7427 657,-89.7276"/>
<polygon fill="midnightblue" stroke="midnightblue" points="660.5,-89.5706 657,-79.5707 653.5,-89.5707 660.5,-89.5706"/>
</g>
<!-- Node19&#45;&gt;Node4 -->
<g id="edge54" class="edge"><title>Node19&#45;&gt;Node4</title>
<path fill="none" stroke="midnightblue" d="M184.438,-116.465C196.867,-102.714 219.544,-78.0388 240,-58 250.323,-47.8878 262.258,-37.0439 272.088,-28.323"/>
<polygon fill="midnightblue" stroke="midnightblue" points="274.577,-30.795 279.769,-21.5595 269.951,-25.5415 274.577,-30.795"/>
</g>
<!-- Node19&#45;&gt;Node10 -->
<g id="edge58" class="edge"><title>Node19&#45;&gt;Node10</title>
<path fill="none" stroke="midnightblue" d="M202.271,-122.782C264.741,-113.12 418.996,-89.262 499.407,-76.825"/>
<polygon fill="midnightblue" stroke="midnightblue" points="499.959,-80.2814 509.307,-75.2939 498.889,-73.3636 499.959,-80.2814"/>
</g>
<!-- Node19&#45;&gt;Node14 -->
<g id="edge56" class="edge"><title>Node19&#45;&gt;Node14</title>
<path fill="none" stroke="midnightblue" d="M202.23,-120.683C246.51,-110.41 334.307,-90.0408 385.463,-78.1725"/>
<polygon fill="midnightblue" stroke="midnightblue" points="386.538,-81.5162 395.488,-75.8467 384.956,-74.6973 386.538,-81.5162"/>
</g>
<!-- Node20 -->
<g id="node50" class="node"><title>Node20</title>
<polygon fill="white" stroke="#bfbfbf" points="65.5,-58.5 65.5,-79.5 114.5,-79.5 114.5,-58.5 65.5,-58.5"/>
<text text-anchor="middle" x="90" y="-66.5" font-family="Helvetica,sans-Serif" font-size="10.00">ctype.h</text>
</g>
<!-- Node19&#45;&gt;Node20 -->
<g id="edge60" class="edge"><title>Node19&#45;&gt;Node20</title>
<path fill="none" stroke="midnightblue" d="M159.41,-116.362C146.709,-107.696 128.562,-95.3126 114.008,-85.3819"/>
<polygon fill="midnightblue" stroke="midnightblue" points="115.724,-82.316 105.491,-79.5707 111.779,-88.0982 115.724,-82.316"/>
</g>
<!-- Node21 -->
<g id="node52" class="node"><title>Node21</title>
<polygon fill="white" stroke="#bfbfbf" points="132,-58.5 132,-79.5 188,-79.5 188,-58.5 132,-58.5"/>
<text text-anchor="middle" x="160" y="-66.5" font-family="Helvetica,sans-Serif" font-size="10.00">wctype.h</text>
</g>
<!-- Node19&#45;&gt;Node21 -->
<g id="edge62" class="edge"><title>Node19&#45;&gt;Node21</title>
<path fill="none" stroke="midnightblue" d="M172.249,-116.362C170.303,-108.84 167.634,-98.5187 165.284,-89.4308"/>
<polygon fill="midnightblue" stroke="midnightblue" points="168.626,-88.3758 162.734,-79.5707 161.849,-90.1285 168.626,-88.3758"/>
</g>
<!-- Node23 -->
<g id="node56" class="node"><title>Node23</title>
<a xlink:href="objectset_8h.html" target="_top" xlink:title="objectset.h">
<polygon fill="white" stroke="black" points="349.5,-522.5 349.5,-543.5 414.5,-543.5 414.5,-522.5 349.5,-522.5"/>
<text text-anchor="middle" x="382" y="-530.5" font-family="Helvetica,sans-Serif" font-size="10.00">objectset.h</text>
</a>
</g>
<!-- Node22&#45;&gt;Node23 -->
<g id="edge66" class="edge"><title>Node22&#45;&gt;Node23</title>
<path fill="none" stroke="midnightblue" d="M292.739,-580.497C309.61,-571.519 334.109,-558.484 353.174,-548.339"/>
<polygon fill="midnightblue" stroke="midnightblue" points="354.856,-551.409 362.039,-543.621 351.567,-545.229 354.856,-551.409"/>
</g>
<!-- Node24 -->
<g id="node58" class="node"><title>Node24</title>
<a xlink:href="odset_8h.html" target="_top" xlink:title="odset.h">
<polygon fill="white" stroke="black" points="457.5,-464.5 457.5,-485.5 506.5,-485.5 506.5,-464.5 457.5,-464.5"/>
<text text-anchor="middle" x="482" y="-472.5" font-family="Helvetica,sans-Serif" font-size="10.00">odset.h</text>
</a>
</g>
<!-- Node23&#45;&gt;Node24 -->
<g id="edge68" class="edge"><title>Node23&#45;&gt;Node24</title>
<path fill="none" stroke="midnightblue" d="M400.342,-522.362C415.566,-513.532 437.441,-500.844 454.72,-490.822"/>
<polygon fill="midnightblue" stroke="midnightblue" points="456.88,-493.615 463.775,-485.571 453.368,-487.56 456.88,-493.615"/>
</g>
<!-- Node25 -->
<g id="node61" class="node"><title>Node25</title>
<a xlink:href="vectoraccess_8h.html" target="_top" xlink:title="vectoraccess.h">
<polygon fill="white" stroke="black" points="357.5,-464.5 357.5,-485.5 440.5,-485.5 440.5,-464.5 357.5,-464.5"/>
<text text-anchor="middle" x="399" y="-472.5" font-family="Helvetica,sans-Serif" font-size="10.00">vectoraccess.h</text>
</a>
</g>
<!-- Node23&#45;&gt;Node25 -->
<g id="edge72" class="edge"><title>Node23&#45;&gt;Node25</title>
<path fill="none" stroke="midnightblue" d="M385.118,-522.362C387.323,-514.84 390.348,-504.519 393.012,-495.431"/>
<polygon fill="midnightblue" stroke="midnightblue" points="396.448,-496.151 395.902,-485.571 389.73,-494.182 396.448,-496.151"/>
</g>
<!-- Node24&#45;&gt;Node8 -->
<g id="edge70" class="edge"><title>Node24&#45;&gt;Node8</title>
<path fill="none" stroke="midnightblue" d="M497.899,-464.333C509.609,-455.747 525.147,-442.715 535,-428 553.065,-401.021 559,-391.469 559,-359 559,-359 559,-359 559,-301 559,-260.51 526.203,-223.158 503.698,-202.295"/>
<polygon fill="midnightblue" stroke="midnightblue" points="506.026,-199.681 496.238,-195.625 501.36,-204.899 506.026,-199.681"/>
</g>
<!-- Node25&#45;&gt;Node8 -->
<g id="edge82" class="edge"><title>Node25&#45;&gt;Node8</title>
<path fill="none" stroke="midnightblue" d="M420.405,-464.487C434.749,-456.392 452.963,-443.902 464,-428 482.136,-401.869 483,-390.808 483,-359 483,-359 483,-359 483,-301 483,-267.598 483,-228.785 483,-205.594"/>
<polygon fill="midnightblue" stroke="midnightblue" points="486.5,-205.556 483,-195.556 479.5,-205.556 486.5,-205.556"/>
</g>
<!-- Node25&#45;&gt;Node12 -->
<g id="edge88" class="edge"><title>Node25&#45;&gt;Node12</title>
<path fill="none" stroke="midnightblue" d="M426.901,-464.458C444.906,-456.565 467.889,-444.32 484,-428 508.446,-403.236 521,-393.797 521,-359 521,-359 521,-359 521,-301 521,-195.682 651.393,-234.751 693,-138 697.35,-127.885 699.471,-89.6316 691,-58 688.422,-48.3749 683.582,-38.5209 678.842,-30.3379"/>
<polygon fill="midnightblue" stroke="midnightblue" points="681.691,-28.29 673.465,-21.6132 675.732,-31.9627 681.691,-28.29"/>
</g>
<!-- Node26 -->
<g id="node63" class="node"><title>Node26</title>
<a xlink:href="debug_8h.html" target="_top" xlink:title="debug.h">
<polygon fill="white" stroke="black" points="268.5,-406.5 268.5,-427.5 319.5,-427.5 319.5,-406.5 268.5,-406.5"/>
<text text-anchor="middle" x="294" y="-414.5" font-family="Helvetica,sans-Serif" font-size="10.00">debug.h</text>
</a>
</g>
<!-- Node25&#45;&gt;Node26 -->
<g id="edge74" class="edge"><title>Node25&#45;&gt;Node26</title>
<path fill="none" stroke="midnightblue" d="M379.741,-464.362C363.534,-455.409 340.147,-442.491 321.891,-432.406"/>
<polygon fill="midnightblue" stroke="midnightblue" points="323.582,-429.342 313.137,-427.571 320.198,-435.47 323.582,-429.342"/>
</g>
<!-- Node27 -->
<g id="node69" class="node"><title>Node27</title>
<polygon fill="white" stroke="#bfbfbf" points="337,-406.5 337,-427.5 393,-427.5 393,-406.5 337,-406.5"/>
<text text-anchor="middle" x="365" y="-414.5" font-family="Helvetica,sans-Serif" font-size="10.00">algorithm</text>
</g>
<!-- Node25&#45;&gt;Node27 -->
<g id="edge84" class="edge"><title>Node25&#45;&gt;Node27</title>
<path fill="none" stroke="midnightblue" d="M392.764,-464.362C388.163,-456.513 381.775,-445.616 376.286,-436.253"/>
<polygon fill="midnightblue" stroke="midnightblue" points="379.273,-434.428 371.197,-427.571 373.234,-437.968 379.273,-434.428"/>
</g>
<!-- Node28 -->
<g id="node71" class="node"><title>Node28</title>
<polygon fill="white" stroke="#bfbfbf" points="411,-406.5 411,-427.5 455,-427.5 455,-406.5 411,-406.5"/>
<text text-anchor="middle" x="433" y="-414.5" font-family="Helvetica,sans-Serif" font-size="10.00">vector</text>
</g>
<!-- Node25&#45;&gt;Node28 -->
<g id="edge86" class="edge"><title>Node25&#45;&gt;Node28</title>
<path fill="none" stroke="midnightblue" d="M405.236,-464.362C409.837,-456.513 416.225,-445.616 421.714,-436.253"/>
<polygon fill="midnightblue" stroke="midnightblue" points="424.766,-437.968 426.803,-427.571 418.727,-434.428 424.766,-437.968"/>
</g>
<!-- Node26&#45;&gt;Node4 -->
<g id="edge76" class="edge"><title>Node26&#45;&gt;Node4</title>
<path fill="none" stroke="midnightblue" d="M297.17,-406.454C304.721,-380.71 323.619,-312.483 330,-254 339.056,-171.002 312.111,-73.0323 298.876,-31.3785"/>
<polygon fill="midnightblue" stroke="midnightblue" points="302.119,-30.0342 295.691,-21.6117 295.463,-32.2041 302.119,-30.0342"/>
</g>
<!-- Node26&#45;&gt;Node5 -->
<g id="edge80" class="edge"><title>Node26&#45;&gt;Node5</title>
<path fill="none" stroke="midnightblue" d="M271.726,-406.497C252.428,-397.397 224.287,-384.127 202.652,-373.925"/>
<polygon fill="midnightblue" stroke="midnightblue" points="204.062,-370.721 193.524,-369.621 201.076,-377.052 204.062,-370.721"/>
</g>
<!-- Node26&#45;&gt;Node8 -->
<g id="edge78" class="edge"><title>Node26&#45;&gt;Node8</title>
<path fill="none" stroke="midnightblue" d="M313.686,-406.453C328.401,-397.929 348.409,-384.924 363,-370 413.91,-317.929 455.418,-241.097 473.387,-205.051"/>
<polygon fill="midnightblue" stroke="midnightblue" points="476.746,-206.152 478.007,-195.632 470.461,-203.069 476.746,-206.152"/>
</g>
<!-- Node29&#45;&gt;Node8 -->
<g id="edge92" class="edge"><title>Node29&#45;&gt;Node8</title>
<path fill="none" stroke="midnightblue" d="M421.025,-588.359C473.32,-582.897 583.015,-568.754 611,-544 635.32,-522.488 635,-507.469 635,-475 635,-475 635,-475 635,-417 635,-326.882 609.868,-301.084 552,-232 541.413,-219.361 526.611,-208.675 513.431,-200.701"/>
<polygon fill="midnightblue" stroke="midnightblue" points="515.047,-197.592 504.637,-195.623 511.547,-203.655 515.047,-197.592"/>
</g>
<!-- Node29&#45;&gt;Node19 -->
<g id="edge108" class="edge"><title>Node29&#45;&gt;Node19</title>
<path fill="none" stroke="midnightblue" d="M364.81,-581.063C291.224,-554.265 99,-478.387 99,-417 99,-417 99,-417 99,-243 99,-202.51 131.797,-165.158 154.302,-144.295"/>
<polygon fill="midnightblue" stroke="midnightblue" points="156.64,-146.899 161.762,-137.625 151.974,-141.681 156.64,-146.899"/>
</g>
<!-- Node30 -->
<g id="node77" class="node"><title>Node30</title>
<a xlink:href="keystrs_8h.html" target="_top" xlink:title="keystrs.h">
<polygon fill="white" stroke="black" points="219.5,-348.5 219.5,-369.5 276.5,-369.5 276.5,-348.5 219.5,-348.5"/>
<text text-anchor="middle" x="248" y="-356.5" font-family="Helvetica,sans-Serif" font-size="10.00">keystrs.h</text>
</a>
</g>
<!-- Node29&#45;&gt;Node30 -->
<g id="edge94" class="edge"><title>Node29&#45;&gt;Node30</title>
<path fill="none" stroke="midnightblue" d="M379.405,-580.175C368.431,-571.106 352.912,-557.508 341,-544 299.409,-496.839 283.958,-486.138 260,-428 253.64,-412.565 250.65,-393.84 249.245,-379.792"/>
<polygon fill="midnightblue" stroke="midnightblue" points="252.722,-379.366 248.424,-369.682 245.745,-379.933 252.722,-379.366"/>
</g>
<!-- Node31 -->
<g id="node81" class="node"><title>Node31</title>
<a xlink:href="threadlock_8h.html" target="_top" xlink:title="threadlock.h">
<polygon fill="white" stroke="black" points="438,-116.5 438,-137.5 508,-137.5 508,-116.5 438,-116.5"/>
<text text-anchor="middle" x="473" y="-124.5" font-family="Helvetica,sans-Serif" font-size="10.00">threadlock.h</text>
</a>
</g>
<!-- Node29&#45;&gt;Node31 -->
<g id="edge100" class="edge"><title>Node29&#45;&gt;Node31</title>
<path fill="none" stroke="midnightblue" d="M421.365,-588.03C477.419,-580.429 597,-554.854 597,-475 597,-475 597,-475 597,-417 597,-303.841 588.885,-264.535 521,-174 512.991,-163.319 502.547,-152.792 493.448,-144.418"/>
<polygon fill="midnightblue" stroke="midnightblue" points="495.68,-141.719 485.892,-137.663 491.014,-146.938 495.68,-141.719"/>
</g>
<!-- Node32 -->
<g id="node87" class="node"><title>Node32</title>
<a xlink:href="typeset_8h.html" target="_top" xlink:title="typeset.h">
<polygon fill="white" stroke="black" points="431.5,-522.5 431.5,-543.5 488.5,-543.5 488.5,-522.5 431.5,-522.5"/>
<text text-anchor="middle" x="460" y="-530.5" font-family="Helvetica,sans-Serif" font-size="10.00">typeset.h</text>
</a>
</g>
<!-- Node29&#45;&gt;Node32 -->
<g id="edge110" class="edge"><title>Node29&#45;&gt;Node32</title>
<path fill="none" stroke="midnightblue" d="M405.289,-580.362C415.017,-571.941 428.798,-560.011 440.095,-550.231"/>
<polygon fill="midnightblue" stroke="midnightblue" points="442.519,-552.762 447.789,-543.571 437.938,-547.469 442.519,-552.762"/>
</g>
<!-- Node30&#45;&gt;Node6 -->
<g id="edge98" class="edge"><title>Node30&#45;&gt;Node6</title>
<path fill="none" stroke="midnightblue" d="M246.9,-348.362C246.13,-340.922 245.077,-330.743 244.144,-321.728"/>
<polygon fill="midnightblue" stroke="midnightblue" points="247.604,-321.157 243.094,-311.571 240.641,-321.878 247.604,-321.157"/>
</g>
<!-- Node30&#45;&gt;Node8 -->
<g id="edge96" class="edge"><title>Node30&#45;&gt;Node8</title>
<path fill="none" stroke="midnightblue" d="M262.347,-348.377C301.842,-319.134 412.409,-237.267 460.351,-201.77"/>
<polygon fill="midnightblue" stroke="midnightblue" points="462.589,-204.468 468.543,-195.705 458.423,-198.842 462.589,-204.468"/>
</g>
<!-- Node31&#45;&gt;Node4 -->
<g id="edge102" class="edge"><title>Node31&#45;&gt;Node4</title>
<path fill="none" stroke="midnightblue" d="M474.722,-116.436C476.515,-101.506 477.34,-74.2427 463,-58 446.27,-39.0495 380.645,-25.0723 335.735,-17.4853"/>
<polygon fill="midnightblue" stroke="midnightblue" points="336.086,-13.996 325.651,-15.8293 334.951,-20.9035 336.086,-13.996"/>
</g>
<!-- Node31&#45;&gt;Node10 -->
<g id="edge104" class="edge"><title>Node31&#45;&gt;Node10</title>
<path fill="none" stroke="midnightblue" d="M487.123,-116.362C498.52,-107.777 514.758,-95.5459 527.878,-85.6636"/>
<polygon fill="midnightblue" stroke="midnightblue" points="530.085,-88.3829 535.967,-79.5707 525.873,-82.7916 530.085,-88.3829"/>
</g>
<!-- Node31&#45;&gt;Node14 -->
<g id="edge106" class="edge"><title>Node31&#45;&gt;Node14</title>
<path fill="none" stroke="midnightblue" d="M464.196,-116.362C457.498,-108.268 448.116,-96.9318 440.211,-87.3796"/>
<polygon fill="midnightblue" stroke="midnightblue" points="442.82,-85.0431 433.748,-79.5707 437.427,-89.5061 442.82,-85.0431"/>
</g>
<!-- Node32&#45;&gt;Node24 -->
<g id="edge112" class="edge"><title>Node32&#45;&gt;Node24</title>
<path fill="none" stroke="midnightblue" d="M464.035,-522.362C466.919,-514.758 470.888,-504.294 474.363,-495.135"/>
<polygon fill="midnightblue" stroke="midnightblue" points="477.716,-496.162 477.99,-485.571 471.171,-493.679 477.716,-496.162"/>
</g>
<!-- Node32&#45;&gt;Node25 -->
<g id="edge114" class="edge"><title>Node32&#45;&gt;Node25</title>
<path fill="none" stroke="midnightblue" d="M448.812,-522.362C440.041,-514.023 427.651,-502.242 417.422,-492.516"/>
<polygon fill="midnightblue" stroke="midnightblue" points="419.776,-489.925 410.117,-485.571 414.953,-494.998 419.776,-489.925"/>
</g>
</g>
</svg>
