<?xml version="1.0" encoding="UTF-8" standalone="no"?>
<!DOCTYPE svg PUBLIC "-//W3C//DTD SVG 1.1//EN"
 "http://www.w3.org/Graphics/SVG/1.1/DTD/svg11.dtd">
<!-- Generated by graphviz version 2.26.0 (20091210.2329)
 -->
<!-- Title: uiflatviewstdcontrol.h Pages: 1 -->
<svg width="388pt" height="88pt"
 viewBox="0.00 0.00 388.00 88.00" xmlns="http://www.w3.org/2000/svg" xmlns:xlink="http://www.w3.org/1999/xlink">
<g id="graph1" class="graph" transform="scale(1 1) rotate(0) translate(4 84)">
<title>uiflatviewstdcontrol.h</title>
<polygon fill="white" stroke="white" points="-4,5 -4,-84 385,-84 385,5 -4,5"/>
<!-- Node1 -->
<g id="node1" class="node"><title>Node1</title>
<polygon fill="#bfbfbf" stroke="black" points="138.5,-58.5 138.5,-79.5 247.5,-79.5 247.5,-58.5 138.5,-58.5"/>
<text text-anchor="middle" x="193" y="-66.5" font-family="Helvetica,sans-Serif" font-size="10.00">uiflatviewstdcontrol.h</text>
</g>
<!-- Node2 -->
<g id="node3" class="node"><title>Node2</title>
<a xlink:href="uimultiflatviewcontrol_8h.html" target="_top" xlink:title="uimultiflatviewcontrol.h">
<polygon fill="white" stroke="black" points="0,-0.5 0,-21.5 116,-21.5 116,-0.5 0,-0.5"/>
<text text-anchor="middle" x="58" y="-8.5" font-family="Helvetica,sans-Serif" font-size="10.00">uimultiflatviewcontrol.h</text>
</a>
</g>
<!-- Node1&#45;&gt;Node2 -->
<g id="edge2" class="edge"><title>Node1&#45;&gt;Node2</title>
<path fill="none" stroke="midnightblue" d="M159.202,-54.4794C135.438,-44.2695 104.176,-30.8386 82.7218,-21.6212"/>
<polygon fill="midnightblue" stroke="midnightblue" points="157.983,-57.7649 168.553,-58.4966 160.746,-51.3334 157.983,-57.7649"/>
</g>
<!-- Node3 -->
<g id="node5" class="node"><title>Node3</title>
<a xlink:href="uipsviewer2dmainwin_8h.html" target="_top" xlink:title="uipsviewer2dmainwin.h">
<polygon fill="white" stroke="black" points="134,-0.5 134,-21.5 252,-21.5 252,-0.5 134,-0.5"/>
<text text-anchor="middle" x="193" y="-8.5" font-family="Helvetica,sans-Serif" font-size="10.00">uipsviewer2dmainwin.h</text>
</a>
</g>
<!-- Node1&#45;&gt;Node3 -->
<g id="edge4" class="edge"><title>Node1&#45;&gt;Node3</title>
<path fill="none" stroke="midnightblue" d="M193,-48.1906C193,-39.1684 193,-28.9941 193,-21.5707"/>
<polygon fill="midnightblue" stroke="midnightblue" points="189.5,-48.3619 193,-58.3619 196.5,-48.3619 189.5,-48.3619"/>
</g>
<!-- Node4 -->
<g id="node7" class="node"><title>Node4</title>
<a xlink:href="uiwelltiecontrolview_8h.html" target="_top" xlink:title="uiwelltiecontrolview.h">
<polygon fill="white" stroke="black" points="270,-0.5 270,-21.5 380,-21.5 380,-0.5 270,-0.5"/>
<text text-anchor="middle" x="325" y="-8.5" font-family="Helvetica,sans-Serif" font-size="10.00">uiwelltiecontrolview.h</text>
</a>
</g>
<!-- Node1&#45;&gt;Node4 -->
<g id="edge6" class="edge"><title>Node1&#45;&gt;Node4</title>
<path fill="none" stroke="midnightblue" d="M226.357,-54.3431C249.555,-44.1502 279.943,-30.7977 300.828,-21.6212"/>
<polygon fill="midnightblue" stroke="midnightblue" points="224.651,-51.2695 216.904,-58.4966 227.467,-57.6782 224.651,-51.2695"/>
</g>
</g>
</svg>
