<?xml version="1.0" encoding="UTF-8" standalone="no"?>
<!DOCTYPE svg PUBLIC "-//W3C//DTD SVG 1.1//EN"
 "http://www.w3.org/Graphics/SVG/1.1/DTD/svg11.dtd">
<!-- Generated by graphviz version 2.26.0 (20091210.2329)
 -->
<!-- Title: uigeninput.h Pages: 1 -->
<svg width="668pt" height="146pt"
 viewBox="0.00 0.00 668.00 146.00" xmlns="http://www.w3.org/2000/svg" xmlns:xlink="http://www.w3.org/1999/xlink">
<g id="graph1" class="graph" transform="scale(1 1) rotate(0) translate(4 142)">
<title>uigeninput.h</title>
<polygon fill="white" stroke="white" points="-4,5 -4,-142 665,-142 665,5 -4,5"/>
<!-- Node1 -->
<g id="node1" class="node"><title>Node1</title>
<polygon fill="#bfbfbf" stroke="black" points="274.5,-116.5 274.5,-137.5 343.5,-137.5 343.5,-116.5 274.5,-116.5"/>
<text text-anchor="middle" x="309" y="-124.5" font-family="Helvetica,sans-Serif" font-size="10.00">uigeninput.h</text>
</g>
<!-- Node2 -->
<g id="node3" class="node"><title>Node2</title>
<a xlink:href="uiconstvel_8h.html" target="_top" xlink:title="uiconstvel.h">
<polygon fill="white" stroke="black" points="-0.5,-58.5 -0.5,-79.5 68.5,-79.5 68.5,-58.5 -0.5,-58.5"/>
<text text-anchor="middle" x="34" y="-66.5" font-family="Helvetica,sans-Serif" font-size="10.00">uiconstvel.h</text>
</a>
</g>
<!-- Node1&#45;&gt;Node2 -->
<g id="edge2" class="edge"><title>Node1&#45;&gt;Node2</title>
<path fill="none" stroke="midnightblue" d="M264.177,-118.616C217.343,-109.694 141.801,-94.8424 77,-80 74.296,-79.3807 71.5021,-78.718 68.6972,-78.0364"/>
<polygon fill="midnightblue" stroke="midnightblue" points="263.816,-122.11 274.294,-120.537 265.122,-115.233 263.816,-122.11"/>
</g>
<!-- Node3 -->
<g id="node5" class="node"><title>Node3</title>
<a xlink:href="uifileinput_8h.html" target="_top" xlink:title="uifileinput.h">
<polygon fill="white" stroke="black" points="86,-58.5 86,-79.5 152,-79.5 152,-58.5 86,-58.5"/>
<text text-anchor="middle" x="119" y="-66.5" font-family="Helvetica,sans-Serif" font-size="10.00">uifileinput.h</text>
</a>
</g>
<!-- Node1&#45;&gt;Node3 -->
<g id="edge4" class="edge"><title>Node1&#45;&gt;Node3</title>
<path fill="none" stroke="midnightblue" d="M264.802,-113.508C230.409,-103.009 183.429,-88.6679 152.196,-79.1337"/>
<polygon fill="midnightblue" stroke="midnightblue" points="264.006,-116.924 274.592,-116.497 266.05,-110.229 264.006,-116.924"/>
</g>
<!-- Node4 -->
<g id="node7" class="node"><title>Node4</title>
<a xlink:href="uilistboxfilter_8h.html" target="_top" xlink:title="uilistboxfilter.h">
<polygon fill="white" stroke="black" points="170,-58.5 170,-79.5 250,-79.5 250,-58.5 170,-58.5"/>
<text text-anchor="middle" x="210" y="-66.5" font-family="Helvetica,sans-Serif" font-size="10.00">uilistboxfilter.h</text>
</a>
</g>
<!-- Node1&#45;&gt;Node4 -->
<g id="edge6" class="edge"><title>Node1&#45;&gt;Node4</title>
<path fill="none" stroke="midnightblue" d="M281.862,-111.101C264.733,-101.066 243.081,-88.3808 228.043,-79.5707"/>
<polygon fill="midnightblue" stroke="midnightblue" points="280.444,-114.327 290.842,-116.362 283.983,-108.287 280.444,-114.327"/>
</g>
<!-- Node5 -->
<g id="node9" class="node"><title>Node5</title>
<a xlink:href="uizrangeinput_8h.html" target="_top" xlink:title="uizrangeinput.h">
<polygon fill="white" stroke="black" points="267.5,-58.5 267.5,-79.5 350.5,-79.5 350.5,-58.5 267.5,-58.5"/>
<text text-anchor="middle" x="309" y="-66.5" font-family="Helvetica,sans-Serif" font-size="10.00">uizrangeinput.h</text>
</a>
</g>
<!-- Node1&#45;&gt;Node5 -->
<g id="edge8" class="edge"><title>Node1&#45;&gt;Node5</title>
<path fill="none" stroke="midnightblue" d="M309,-106.191C309,-97.1684 309,-86.9941 309,-79.5707"/>
<polygon fill="midnightblue" stroke="midnightblue" points="305.5,-106.362 309,-116.362 312.5,-106.362 305.5,-106.362"/>
</g>
<!-- Node6 -->
<g id="node11" class="node"><title>Node6</title>
<a xlink:href="uicreatepicks_8h.html" target="_top" xlink:title="uicreatepicks.h">
<polygon fill="white" stroke="black" points="367.5,-58.5 367.5,-79.5 450.5,-79.5 450.5,-58.5 367.5,-58.5"/>
<text text-anchor="middle" x="409" y="-66.5" font-family="Helvetica,sans-Serif" font-size="10.00">uicreatepicks.h</text>
</a>
</g>
<!-- Node1&#45;&gt;Node6 -->
<g id="edge10" class="edge"><title>Node1&#45;&gt;Node6</title>
<path fill="none" stroke="midnightblue" d="M336.412,-111.101C353.714,-101.066 375.585,-88.3808 390.775,-79.5707"/>
<polygon fill="midnightblue" stroke="midnightblue" points="334.236,-108.317 327.342,-116.362 337.748,-114.372 334.236,-108.317"/>
</g>
<!-- Node7 -->
<g id="node13" class="node"><title>Node7</title>
<a xlink:href="uiveldesc_8h.html" target="_top" xlink:title="uiveldesc.h">
<polygon fill="white" stroke="black" points="468,-58.5 468,-79.5 534,-79.5 534,-58.5 468,-58.5"/>
<text text-anchor="middle" x="501" y="-66.5" font-family="Helvetica,sans-Serif" font-size="10.00">uiveldesc.h</text>
</a>
</g>
<!-- Node1&#45;&gt;Node7 -->
<g id="edge12" class="edge"><title>Node1&#45;&gt;Node7</title>
<path fill="none" stroke="midnightblue" d="M353.695,-113.499C388.565,-102.965 436.223,-88.568 467.774,-79.0371"/>
<polygon fill="midnightblue" stroke="midnightblue" points="352.33,-110.254 343.77,-116.497 354.355,-116.955 352.33,-110.254"/>
</g>
<!-- Node8 -->
<g id="node15" class="node"><title>Node8</title>
<a xlink:href="uibulk2dhorizonimp_8h.html" target="_top" xlink:title="uibulk2dhorizonimp.h">
<polygon fill="white" stroke="black" points="552,-58.5 552,-79.5 660,-79.5 660,-58.5 552,-58.5"/>
<text text-anchor="middle" x="606" y="-66.5" font-family="Helvetica,sans-Serif" font-size="10.00">uibulk2dhorizonimp.h</text>
</a>
</g>
<!-- Node1&#45;&gt;Node8 -->
<g id="edge14" class="edge"><title>Node1&#45;&gt;Node8</title>
<path fill="none" stroke="midnightblue" d="M353.773,-118.257C406.834,-107.894 495.193,-90.6391 551.996,-79.5462"/>
<polygon fill="midnightblue" stroke="midnightblue" points="352.795,-114.881 343.651,-120.233 354.136,-121.752 352.795,-114.881"/>
</g>
<!-- Node9 -->
<g id="node17" class="node"><title>Node9</title>
<a xlink:href="uiempartserv_8h.html" target="_top" xlink:title="uiempartserv.h">
<polygon fill="white" stroke="black" points="565.5,-0.5 565.5,-21.5 646.5,-21.5 646.5,-0.5 565.5,-0.5"/>
<text text-anchor="middle" x="606" y="-8.5" font-family="Helvetica,sans-Serif" font-size="10.00">uiempartserv.h</text>
</a>
</g>
<!-- Node8&#45;&gt;Node9 -->
<g id="edge16" class="edge"><title>Node8&#45;&gt;Node9</title>
<path fill="none" stroke="midnightblue" d="M606,-48.1906C606,-39.1684 606,-28.9941 606,-21.5707"/>
<polygon fill="midnightblue" stroke="midnightblue" points="602.5,-48.3619 606,-58.3619 609.5,-48.3619 602.5,-48.3619"/>
</g>
</g>
</svg>
