<?xml version="1.0" encoding="UTF-8" standalone="no"?>
<!DOCTYPE svg PUBLIC "-//W3C//DTD SVG 1.1//EN"
 "http://www.w3.org/Graphics/SVG/1.1/DTD/svg11.dtd">
<!-- Generated by graphviz version 2.26.0 (20091210.2329)
 -->
<!-- Title: uigraphicsview.h Pages: 1 -->
<svg width="1333pt" height="204pt"
 viewBox="0.00 0.00 1333.00 204.00" xmlns="http://www.w3.org/2000/svg" xmlns:xlink="http://www.w3.org/1999/xlink">
<g id="graph1" class="graph" transform="scale(1 1) rotate(0) translate(4 200)">
<title>uigraphicsview.h</title>
<polygon fill="white" stroke="white" points="-4,5 -4,-200 1330,-200 1330,5 -4,5"/>
<!-- Node1 -->
<g id="node1" class="node"><title>Node1</title>
<polygon fill="#bfbfbf" stroke="black" points="706.5,-174.5 706.5,-195.5 795.5,-195.5 795.5,-174.5 706.5,-174.5"/>
<text text-anchor="middle" x="751" y="-182.5" font-family="Helvetica,sans-Serif" font-size="10.00">uigraphicsview.h</text>
</g>
<!-- Node2 -->
<g id="node3" class="node"><title>Node2</title>
<a xlink:href="uicoltabmarker_8h.html" target="_top" xlink:title="uicoltabmarker.h">
<polygon fill="white" stroke="black" points="117.5,-116.5 117.5,-137.5 206.5,-137.5 206.5,-116.5 117.5,-116.5"/>
<text text-anchor="middle" x="162" y="-124.5" font-family="Helvetica,sans-Serif" font-size="10.00">uicoltabmarker.h</text>
</a>
</g>
<!-- Node1&#45;&gt;Node2 -->
<g id="edge2" class="edge"><title>Node1&#45;&gt;Node2</title>
<path fill="none" stroke="midnightblue" d="M696.137,-182.316C598.822,-177.082 389.771,-163.709 215,-138 212.304,-137.603 209.538,-137.155 206.754,-136.673"/>
<polygon fill="midnightblue" stroke="midnightblue" points="696.151,-185.822 706.322,-182.856 696.522,-178.831 696.151,-185.822"/>
</g>
<!-- Node3 -->
<g id="node5" class="node"><title>Node3</title>
<a xlink:href="uirgbarraycanvas_8h.html" target="_top" xlink:title="uirgbarraycanvas.h">
<polygon fill="white" stroke="black" points="223.5,-116.5 223.5,-137.5 322.5,-137.5 322.5,-116.5 223.5,-116.5"/>
<text text-anchor="middle" x="273" y="-124.5" font-family="Helvetica,sans-Serif" font-size="10.00">uirgbarraycanvas.h</text>
</a>
</g>
<!-- Node1&#45;&gt;Node3 -->
<g id="edge4" class="edge"><title>Node1&#45;&gt;Node3</title>
<path fill="none" stroke="midnightblue" d="M696.336,-178.367C602.618,-166.996 412.683,-143.949 322.579,-133.016"/>
<polygon fill="midnightblue" stroke="midnightblue" points="696.111,-181.865 706.46,-179.596 696.955,-174.916 696.111,-181.865"/>
</g>
<!-- Node9 -->
<g id="node17" class="node"><title>Node9</title>
<a xlink:href="uidirectionalplot_8h.html" target="_top" xlink:title="uidirectionalplot.h">
<polygon fill="white" stroke="black" points="411,-116.5 411,-137.5 503,-137.5 503,-116.5 411,-116.5"/>
<text text-anchor="middle" x="457" y="-124.5" font-family="Helvetica,sans-Serif" font-size="10.00">uidirectionalplot.h</text>
</a>
</g>
<!-- Node1&#45;&gt;Node9 -->
<g id="edge16" class="edge"><title>Node1&#45;&gt;Node9</title>
<path fill="none" stroke="midnightblue" d="M696.1,-174.256C647.652,-164.762 575.122,-150.519 512,-138 509.134,-137.432 506.185,-136.846 503.211,-136.253"/>
<polygon fill="midnightblue" stroke="midnightblue" points="695.575,-177.719 706.061,-176.207 696.921,-170.85 695.575,-177.719"/>
</g>
<!-- Node10 -->
<g id="node19" class="node"><title>Node10</title>
<a xlink:href="uifunctiondisplay_8h.html" target="_top" xlink:title="uifunctiondisplay.h">
<polygon fill="white" stroke="black" points="521,-116.5 521,-137.5 619,-137.5 619,-116.5 521,-116.5"/>
<text text-anchor="middle" x="570" y="-124.5" font-family="Helvetica,sans-Serif" font-size="10.00">uifunctiondisplay.h</text>
</a>
</g>
<!-- Node1&#45;&gt;Node10 -->
<g id="edge18" class="edge"><title>Node1&#45;&gt;Node10</title>
<path fill="none" stroke="midnightblue" d="M708.598,-171.413C676.305,-161.065 632.494,-147.026 602.839,-137.523"/>
<polygon fill="midnightblue" stroke="midnightblue" points="707.631,-174.778 718.222,-174.497 709.767,-168.112 707.631,-174.778"/>
</g>
<!-- Node14 -->
<g id="node27" class="node"><title>Node14</title>
<a xlink:href="uiobjectitemview_8h.html" target="_top" xlink:title="uiobjectitemview.h">
<polygon fill="white" stroke="black" points="647,-116.5 647,-137.5 745,-137.5 745,-116.5 647,-116.5"/>
<text text-anchor="middle" x="696" y="-124.5" font-family="Helvetica,sans-Serif" font-size="10.00">uiobjectitemview.h</text>
</a>
</g>
<!-- Node1&#45;&gt;Node14 -->
<g id="edge26" class="edge"><title>Node1&#45;&gt;Node14</title>
<path fill="none" stroke="midnightblue" d="M733.77,-166.83C724.645,-157.208 713.76,-145.728 706.024,-137.571"/>
<polygon fill="midnightblue" stroke="midnightblue" points="731.492,-169.514 740.912,-174.362 736.571,-164.697 731.492,-169.514"/>
</g>
<!-- Node18 -->
<g id="node35" class="node"><title>Node18</title>
<a xlink:href="uipolardiagram_8h.html" target="_top" xlink:title="uipolardiagram.h">
<polygon fill="white" stroke="black" points="763,-116.5 763,-137.5 851,-137.5 851,-116.5 763,-116.5"/>
<text text-anchor="middle" x="807" y="-124.5" font-family="Helvetica,sans-Serif" font-size="10.00">uipolardiagram.h</text>
</a>
</g>
<!-- Node1&#45;&gt;Node18 -->
<g id="edge34" class="edge"><title>Node1&#45;&gt;Node18</title>
<path fill="none" stroke="midnightblue" d="M768.265,-167.118C777.612,-157.438 788.839,-145.81 796.794,-137.571"/>
<polygon fill="midnightblue" stroke="midnightblue" points="765.699,-164.737 761.271,-174.362 770.735,-169.599 765.699,-164.737"/>
</g>
<!-- Node20 -->
<g id="node39" class="node"><title>Node20</title>
<a xlink:href="uistratextlayseqgendesc_8h.html" target="_top" xlink:title="uistratextlayseqgendesc.h">
<polygon fill="white" stroke="black" points="868.5,-116.5 868.5,-137.5 999.5,-137.5 999.5,-116.5 868.5,-116.5"/>
<text text-anchor="middle" x="934" y="-124.5" font-family="Helvetica,sans-Serif" font-size="10.00">uistratextlayseqgendesc.h</text>
</a>
</g>
<!-- Node1&#45;&gt;Node20 -->
<g id="edge38" class="edge"><title>Node1&#45;&gt;Node20</title>
<path fill="none" stroke="midnightblue" d="M793.87,-171.413C826.52,-161.065 870.815,-147.026 900.798,-137.523"/>
<polygon fill="midnightblue" stroke="midnightblue" points="792.615,-168.139 784.14,-174.497 794.73,-174.812 792.615,-168.139"/>
</g>
<!-- Node22 -->
<g id="node43" class="node"><title>Node22</title>
<a xlink:href="uistratdisplay_8h.html" target="_top" xlink:title="uistratdisplay.h">
<polygon fill="white" stroke="black" points="1016.5,-116.5 1016.5,-137.5 1099.5,-137.5 1099.5,-116.5 1016.5,-116.5"/>
<text text-anchor="middle" x="1058" y="-124.5" font-family="Helvetica,sans-Serif" font-size="10.00">uistratdisplay.h</text>
</a>
</g>
<!-- Node1&#45;&gt;Node22 -->
<g id="edge42" class="edge"><title>Node1&#45;&gt;Node22</title>
<path fill="none" stroke="midnightblue" d="M805.693,-175.581C857.795,-166.47 938.384,-152.019 1008,-138 1010.7,-137.456 1013.48,-136.883 1016.28,-136.295"/>
<polygon fill="midnightblue" stroke="midnightblue" points="804.913,-172.164 795.664,-177.33 806.116,-179.059 804.913,-172.164"/>
</g>
<!-- Node24 -->
<g id="node47" class="node"><title>Node24</title>
<a xlink:href="uiwelldahdisplay_8h.html" target="_top" xlink:title="uiwelldahdisplay.h">
<polygon fill="white" stroke="black" points="1117,-116.5 1117,-137.5 1213,-137.5 1213,-116.5 1117,-116.5"/>
<text text-anchor="middle" x="1165" y="-124.5" font-family="Helvetica,sans-Serif" font-size="10.00">uiwelldahdisplay.h</text>
</a>
</g>
<!-- Node1&#45;&gt;Node24 -->
<g id="edge46" class="edge"><title>Node1&#45;&gt;Node24</title>
<path fill="none" stroke="midnightblue" d="M805.591,-178.84C875.753,-170.689 1001.25,-155.311 1108,-138 1110.89,-137.532 1113.85,-137.029 1116.83,-136.505"/>
<polygon fill="midnightblue" stroke="midnightblue" points="805.182,-175.364 795.65,-179.99 805.986,-182.318 805.182,-175.364"/>
</g>
<!-- Node26 -->
<g id="node52" class="node"><title>Node26</title>
<a xlink:href="uiwelldisplay_8h.html" target="_top" xlink:title="uiwelldisplay.h">
<polygon fill="white" stroke="black" points="1231,-116.5 1231,-137.5 1311,-137.5 1311,-116.5 1231,-116.5"/>
<text text-anchor="middle" x="1271" y="-124.5" font-family="Helvetica,sans-Serif" font-size="10.00">uiwelldisplay.h</text>
</a>
</g>
<!-- Node1&#45;&gt;Node26 -->
<g id="edge52" class="edge"><title>Node1&#45;&gt;Node26</title>
<path fill="none" stroke="midnightblue" d="M805.749,-181.702C893.851,-175.91 1072.37,-162.17 1222,-138 1224.93,-137.527 1227.94,-136.986 1230.97,-136.403"/>
<polygon fill="midnightblue" stroke="midnightblue" points="805.469,-178.213 795.716,-182.353 805.922,-185.198 805.469,-178.213"/>
</g>
<!-- Node4 -->
<g id="node7" class="node"><title>Node4</title>
<a xlink:href="uicoltabtools_8h.html" target="_top" xlink:title="uicoltabtools.h">
<polygon fill="white" stroke="black" points="43,-58.5 43,-79.5 123,-79.5 123,-58.5 43,-58.5"/>
<text text-anchor="middle" x="83" y="-66.5" font-family="Helvetica,sans-Serif" font-size="10.00">uicoltabtools.h</text>
</a>
</g>
<!-- Node3&#45;&gt;Node4 -->
<g id="edge6" class="edge"><title>Node3&#45;&gt;Node4</title>
<path fill="none" stroke="midnightblue" d="M228.928,-113.546C194.988,-103.186 148.736,-89.0668 117.472,-79.5231"/>
<polygon fill="midnightblue" stroke="midnightblue" points="228.006,-116.924 238.592,-116.497 230.05,-110.229 228.006,-116.924"/>
</g>
<!-- Node5 -->
<g id="node9" class="node"><title>Node5</title>
<a xlink:href="uidatapointsetcrossplot_8h.html" target="_top" xlink:title="uidatapointsetcrossplot.h">
<polygon fill="white" stroke="black" points="140.5,-58.5 140.5,-79.5 265.5,-79.5 265.5,-58.5 140.5,-58.5"/>
<text text-anchor="middle" x="203" y="-66.5" font-family="Helvetica,sans-Serif" font-size="10.00">uidatapointsetcrossplot.h</text>
</a>
</g>
<!-- Node3&#45;&gt;Node5 -->
<g id="edge8" class="edge"><title>Node3&#45;&gt;Node5</title>
<path fill="none" stroke="midnightblue" d="M252.453,-109.975C240.573,-100.132 225.997,-88.0545 215.758,-79.5707"/>
<polygon fill="midnightblue" stroke="midnightblue" points="250.228,-112.677 260.161,-116.362 254.694,-107.287 250.228,-112.677"/>
</g>
<!-- Node6 -->
<g id="node11" class="node"><title>Node6</title>
<a xlink:href="uidatapointsetcrossplotwin_8h.html" target="_top" xlink:title="uidatapointsetcrossplotwin.h">
<polygon fill="white" stroke="black" points="0,-0.5 0,-21.5 140,-21.5 140,-0.5 0,-0.5"/>
<text text-anchor="middle" x="70" y="-8.5" font-family="Helvetica,sans-Serif" font-size="10.00">uidatapointsetcrossplotwin.h</text>
</a>
</g>
<!-- Node5&#45;&gt;Node6 -->
<g id="edge10" class="edge"><title>Node5&#45;&gt;Node6</title>
<path fill="none" stroke="midnightblue" d="M169.703,-54.4794C146.29,-44.2695 115.492,-30.8386 94.3556,-21.6212"/>
<polygon fill="midnightblue" stroke="midnightblue" points="168.349,-57.7075 178.915,-58.4966 171.147,-51.291 168.349,-57.7075"/>
</g>
<!-- Node7 -->
<g id="node13" class="node"><title>Node7</title>
<a xlink:href="uiimpexpselgrp_8h.html" target="_top" xlink:title="uiimpexpselgrp.h">
<polygon fill="white" stroke="black" points="158,-0.5 158,-21.5 248,-21.5 248,-0.5 158,-0.5"/>
<text text-anchor="middle" x="203" y="-8.5" font-family="Helvetica,sans-Serif" font-size="10.00">uiimpexpselgrp.h</text>
</a>
</g>
<!-- Node5&#45;&gt;Node7 -->
<g id="edge12" class="edge"><title>Node5&#45;&gt;Node7</title>
<path fill="none" stroke="midnightblue" d="M203,-48.1906C203,-39.1684 203,-28.9941 203,-21.5707"/>
<polygon fill="midnightblue" stroke="midnightblue" points="199.5,-48.3619 203,-58.3619 206.5,-48.3619 199.5,-48.3619"/>
</g>
<!-- Node8 -->
<g id="node15" class="node"><title>Node8</title>
<a xlink:href="densitycalc_8h.html" target="_top" xlink:title="densitycalc.h">
<polygon fill="white" stroke="black" points="266,-0.5 266,-21.5 340,-21.5 340,-0.5 266,-0.5"/>
<text text-anchor="middle" x="303" y="-8.5" font-family="Helvetica,sans-Serif" font-size="10.00">densitycalc.h</text>
</a>
</g>
<!-- Node5&#45;&gt;Node8 -->
<g id="edge14" class="edge"><title>Node5&#45;&gt;Node8</title>
<path fill="none" stroke="midnightblue" d="M230.412,-53.1009C247.714,-43.0658 269.585,-30.3808 284.775,-21.5707"/>
<polygon fill="midnightblue" stroke="midnightblue" points="228.236,-50.3171 221.342,-58.3619 231.748,-56.3723 228.236,-50.3171"/>
</g>
<!-- Node11 -->
<g id="node21" class="node"><title>Node11</title>
<a xlink:href="uihistogramdisplay_8h.html" target="_top" xlink:title="uihistogramdisplay.h">
<polygon fill="white" stroke="black" points="283,-58.5 283,-79.5 389,-79.5 389,-58.5 283,-58.5"/>
<text text-anchor="middle" x="336" y="-66.5" font-family="Helvetica,sans-Serif" font-size="10.00">uihistogramdisplay.h</text>
</a>
</g>
<!-- Node10&#45;&gt;Node11 -->
<g id="edge20" class="edge"><title>Node10&#45;&gt;Node11</title>
<path fill="none" stroke="midnightblue" d="M517.861,-114.077C475.883,-103.672 417.62,-89.2306 378.455,-79.5231"/>
<polygon fill="midnightblue" stroke="midnightblue" points="517.076,-117.488 527.624,-116.497 518.76,-110.694 517.076,-117.488"/>
</g>
<!-- Node12 -->
<g id="node23" class="node"><title>Node12</title>
<a xlink:href="uiwindowfuncseldlg_8h.html" target="_top" xlink:title="uiwindowfuncseldlg.h">
<polygon fill="white" stroke="black" points="407,-58.5 407,-79.5 517,-79.5 517,-58.5 407,-58.5"/>
<text text-anchor="middle" x="462" y="-66.5" font-family="Helvetica,sans-Serif" font-size="10.00">uiwindowfuncseldlg.h</text>
</a>
</g>
<!-- Node10&#45;&gt;Node12 -->
<g id="edge22" class="edge"><title>Node10&#45;&gt;Node12</title>
<path fill="none" stroke="midnightblue" d="M541.428,-111.656C522.622,-101.556 498.483,-88.5928 481.777,-79.6212"/>
<polygon fill="midnightblue" stroke="midnightblue" points="539.976,-114.849 550.442,-116.497 543.288,-108.682 539.976,-114.849"/>
</g>
<!-- Node13 -->
<g id="node25" class="node"><title>Node13</title>
<a xlink:href="uifreqtaper_8h.html" target="_top" xlink:title="uifreqtaper.h">
<polygon fill="white" stroke="black" points="534.5,-58.5 534.5,-79.5 605.5,-79.5 605.5,-58.5 534.5,-58.5"/>
<text text-anchor="middle" x="570" y="-66.5" font-family="Helvetica,sans-Serif" font-size="10.00">uifreqtaper.h</text>
</a>
</g>
<!-- Node10&#45;&gt;Node13 -->
<g id="edge24" class="edge"><title>Node10&#45;&gt;Node13</title>
<path fill="none" stroke="midnightblue" d="M570,-106.191C570,-97.1684 570,-86.9941 570,-79.5707"/>
<polygon fill="midnightblue" stroke="midnightblue" points="566.5,-106.362 570,-116.362 573.5,-106.362 566.5,-106.362"/>
</g>
<!-- Node15 -->
<g id="node29" class="node"><title>Node15</title>
<a xlink:href="uiobjectitemviewwin_8h.html" target="_top" xlink:title="uiobjectitemviewwin.h">
<polygon fill="white" stroke="black" points="622.5,-58.5 622.5,-79.5 735.5,-79.5 735.5,-58.5 622.5,-58.5"/>
<text text-anchor="middle" x="679" y="-66.5" font-family="Helvetica,sans-Serif" font-size="10.00">uiobjectitemviewwin.h</text>
</a>
</g>
<!-- Node14&#45;&gt;Node15 -->
<g id="edge28" class="edge"><title>Node14&#45;&gt;Node15</title>
<path fill="none" stroke="midnightblue" d="M689.988,-106.488C687.322,-97.3924 684.298,-87.0756 682.098,-79.5707"/>
<polygon fill="midnightblue" stroke="midnightblue" points="686.71,-107.75 692.882,-116.362 693.428,-105.781 686.71,-107.75"/>
</g>
<!-- Node17 -->
<g id="node33" class="node"><title>Node17</title>
<a xlink:href="uipsviewer2d_8h.html" target="_top" xlink:title="uipsviewer2d.h">
<polygon fill="white" stroke="black" points="753,-58.5 753,-79.5 835,-79.5 835,-58.5 753,-58.5"/>
<text text-anchor="middle" x="794" y="-66.5" font-family="Helvetica,sans-Serif" font-size="10.00">uipsviewer2d.h</text>
</a>
</g>
<!-- Node14&#45;&gt;Node17 -->
<g id="edge32" class="edge"><title>Node14&#45;&gt;Node17</title>
<path fill="none" stroke="midnightblue" d="M722.864,-111.101C739.82,-101.066 761.253,-88.3808 776.139,-79.5707"/>
<polygon fill="midnightblue" stroke="midnightblue" points="720.798,-108.257 713.975,-116.362 724.363,-114.281 720.798,-108.257"/>
</g>
<!-- Node16 -->
<g id="node31" class="node"><title>Node16</title>
<a xlink:href="uipsviewer2dmainwin_8h.html" target="_top" xlink:title="uipsviewer2dmainwin.h">
<polygon fill="white" stroke="black" points="620,-0.5 620,-21.5 738,-21.5 738,-0.5 620,-0.5"/>
<text text-anchor="middle" x="679" y="-8.5" font-family="Helvetica,sans-Serif" font-size="10.00">uipsviewer2dmainwin.h</text>
</a>
</g>
<!-- Node15&#45;&gt;Node16 -->
<g id="edge30" class="edge"><title>Node15&#45;&gt;Node16</title>
<path fill="none" stroke="midnightblue" d="M679,-48.1906C679,-39.1684 679,-28.9941 679,-21.5707"/>
<polygon fill="midnightblue" stroke="midnightblue" points="675.5,-48.3619 679,-58.3619 682.5,-48.3619 675.5,-48.3619"/>
</g>
<!-- Node19 -->
<g id="node37" class="node"><title>Node19</title>
<a xlink:href="uivisdirlightdlg_8h.html" target="_top" xlink:title="uivisdirlightdlg.h">
<polygon fill="white" stroke="black" points="853,-58.5 853,-79.5 939,-79.5 939,-58.5 853,-58.5"/>
<text text-anchor="middle" x="896" y="-66.5" font-family="Helvetica,sans-Serif" font-size="10.00">uivisdirlightdlg.h</text>
</a>
</g>
<!-- Node18&#45;&gt;Node19 -->
<g id="edge36" class="edge"><title>Node18&#45;&gt;Node19</title>
<path fill="none" stroke="midnightblue" d="M831.826,-110.821C847.156,-100.831 866.386,-88.2993 879.78,-79.5707"/>
<polygon fill="midnightblue" stroke="midnightblue" points="829.791,-107.97 823.324,-116.362 833.613,-113.834 829.791,-107.97"/>
</g>
<!-- Node21 -->
<g id="node41" class="node"><title>Node21</title>
<a xlink:href="uistratbasiclayseqgendesc_8h.html" target="_top" xlink:title="uistratbasiclayseqgendesc.h">
<polygon fill="white" stroke="black" points="957,-58.5 957,-79.5 1097,-79.5 1097,-58.5 957,-58.5"/>
<text text-anchor="middle" x="1027" y="-66.5" font-family="Helvetica,sans-Serif" font-size="10.00">uistratbasiclayseqgendesc.h</text>
</a>
</g>
<!-- Node20&#45;&gt;Node21 -->
<g id="edge40" class="edge"><title>Node20&#45;&gt;Node21</title>
<path fill="none" stroke="midnightblue" d="M959.941,-110.821C975.96,-100.831 996.055,-88.2993 1010.05,-79.5707"/>
<polygon fill="midnightblue" stroke="midnightblue" points="957.691,-108.1 951.058,-116.362 961.395,-114.04 957.691,-108.1"/>
</g>
<!-- Node23 -->
<g id="node45" class="node"><title>Node23</title>
<a xlink:href="uiwellstratdisplay_8h.html" target="_top" xlink:title="uiwellstratdisplay.h">
<polygon fill="white" stroke="black" points="1115,-58.5 1115,-79.5 1215,-79.5 1215,-58.5 1115,-58.5"/>
<text text-anchor="middle" x="1165" y="-66.5" font-family="Helvetica,sans-Serif" font-size="10.00">uiwellstratdisplay.h</text>
</a>
</g>
<!-- Node22&#45;&gt;Node23 -->
<g id="edge44" class="edge"><title>Node22&#45;&gt;Node23</title>
<path fill="none" stroke="midnightblue" d="M1086.56,-111.517C1105.19,-101.419 1129.02,-88.5032 1145.5,-79.5707"/>
<polygon fill="midnightblue" stroke="midnightblue" points="1084.75,-108.519 1077.63,-116.362 1088.08,-114.673 1084.75,-108.519"/>
</g>
<!-- Node24&#45;&gt;Node23 -->
<g id="edge50" class="edge"><title>Node24&#45;&gt;Node23</title>
<path fill="none" stroke="midnightblue" d="M1165,-106.191C1165,-97.1684 1165,-86.9941 1165,-79.5707"/>
<polygon fill="midnightblue" stroke="midnightblue" points="1161.5,-106.362 1165,-116.362 1168.5,-106.362 1161.5,-106.362"/>
</g>
<!-- Node25 -->
<g id="node49" class="node"><title>Node25</title>
<a xlink:href="uiwelllogdisplay_8h.html" target="_top" xlink:title="uiwelllogdisplay.h">
<polygon fill="white" stroke="black" points="1232.5,-58.5 1232.5,-79.5 1325.5,-79.5 1325.5,-58.5 1232.5,-58.5"/>
<text text-anchor="middle" x="1279" y="-66.5" font-family="Helvetica,sans-Serif" font-size="10.00">uiwelllogdisplay.h</text>
</a>
</g>
<!-- Node24&#45;&gt;Node25 -->
<g id="edge48" class="edge"><title>Node24&#45;&gt;Node25</title>
<path fill="none" stroke="midnightblue" d="M1194.62,-111.932C1214.54,-101.793 1240.33,-88.6748 1258.12,-79.6212"/>
<polygon fill="midnightblue" stroke="midnightblue" points="1192.97,-108.843 1185.64,-116.497 1196.14,-115.081 1192.97,-108.843"/>
</g>
</g>
</svg>
