<?xml version="1.0" encoding="UTF-8" standalone="no"?>
<!DOCTYPE svg PUBLIC "-//W3C//DTD SVG 1.1//EN"
 "http://www.w3.org/Graphics/SVG/1.1/DTD/svg11.dtd">
<!-- Generated by graphviz version 2.26.0 (20091210.2329)
 -->
<!-- Title: uiiosel.h Pages: 1 -->
<svg width="510pt" height="262pt"
 viewBox="0.00 0.00 510.00 262.00" xmlns="http://www.w3.org/2000/svg" xmlns:xlink="http://www.w3.org/1999/xlink">
<g id="graph1" class="graph" transform="scale(1 1) rotate(0) translate(4 258)">
<title>uiiosel.h</title>
<polygon fill="white" stroke="white" points="-4,5 -4,-258 507,-258 507,5 -4,5"/>
<!-- Node1 -->
<g id="node1" class="node"><title>Node1</title>
<polygon fill="#bfbfbf" stroke="black" points="315.5,-232.5 315.5,-253.5 368.5,-253.5 368.5,-232.5 315.5,-232.5"/>
<text text-anchor="middle" x="342" y="-240.5" font-family="Helvetica,sans-Serif" font-size="10.00">uiiosel.h</text>
</g>
<!-- Node2 -->
<g id="node3" class="node"><title>Node2</title>
<a xlink:href="uiioobjsel_8h.html" target="_top" xlink:title="uiioobjsel.h">
<polygon fill="white" stroke="black" points="195.5,-174.5 195.5,-195.5 260.5,-195.5 260.5,-174.5 195.5,-174.5"/>
<text text-anchor="middle" x="228" y="-182.5" font-family="Helvetica,sans-Serif" font-size="10.00">uiioobjsel.h</text>
</a>
</g>
<!-- Node1&#45;&gt;Node2 -->
<g id="edge2" class="edge"><title>Node1&#45;&gt;Node2</title>
<path fill="none" stroke="midnightblue" d="M312.383,-227.932C292.456,-217.793 266.671,-204.675 248.876,-195.621"/>
<polygon fill="midnightblue" stroke="midnightblue" points="310.856,-231.081 321.355,-232.497 314.03,-224.843 310.856,-231.081"/>
</g>
<!-- Node12 -->
<g id="node23" class="node"><title>Node12</title>
<a xlink:href="uisurveyselect_8h.html" target="_top" xlink:title="uisurveyselect.h">
<polygon fill="white" stroke="black" points="298,-174.5 298,-195.5 386,-195.5 386,-174.5 298,-174.5"/>
<text text-anchor="middle" x="342" y="-182.5" font-family="Helvetica,sans-Serif" font-size="10.00">uisurveyselect.h</text>
</a>
</g>
<!-- Node1&#45;&gt;Node12 -->
<g id="edge22" class="edge"><title>Node1&#45;&gt;Node12</title>
<path fill="none" stroke="midnightblue" d="M342,-222.191C342,-213.168 342,-202.994 342,-195.571"/>
<polygon fill="midnightblue" stroke="midnightblue" points="338.5,-222.362 342,-232.362 345.5,-222.362 338.5,-222.362"/>
</g>
<!-- Node13 -->
<g id="node25" class="node"><title>Node13</title>
<a xlink:href="uiattrsel_8h.html" target="_top" xlink:title="uiattrsel.h">
<polygon fill="white" stroke="black" points="443.5,-174.5 443.5,-195.5 502.5,-195.5 502.5,-174.5 443.5,-174.5"/>
<text text-anchor="middle" x="473" y="-182.5" font-family="Helvetica,sans-Serif" font-size="10.00">uiattrsel.h</text>
</a>
</g>
<!-- Node1&#45;&gt;Node13 -->
<g id="edge24" class="edge"><title>Node1&#45;&gt;Node13</title>
<path fill="none" stroke="midnightblue" d="M375.104,-228.343C398.126,-218.15 428.285,-204.798 449.011,-195.621"/>
<polygon fill="midnightblue" stroke="midnightblue" points="373.45,-225.248 365.723,-232.497 376.284,-231.649 373.45,-225.248"/>
</g>
<!-- Node3 -->
<g id="node5" class="node"><title>Node3</title>
<a xlink:href="uigeom2dsel_8h.html" target="_top" xlink:title="uigeom2dsel.h">
<polygon fill="white" stroke="black" points="0,-116.5 0,-137.5 80,-137.5 80,-116.5 0,-116.5"/>
<text text-anchor="middle" x="40" y="-124.5" font-family="Helvetica,sans-Serif" font-size="10.00">uigeom2dsel.h</text>
</a>
</g>
<!-- Node2&#45;&gt;Node3 -->
<g id="edge4" class="edge"><title>Node2&#45;&gt;Node3</title>
<path fill="none" stroke="midnightblue" d="M185.694,-171.948C152.061,-161.572 105.612,-147.242 74.2771,-137.575"/>
<polygon fill="midnightblue" stroke="midnightblue" points="184.665,-175.294 195.253,-174.897 186.729,-168.605 184.665,-175.294"/>
</g>
<!-- Node4 -->
<g id="node7" class="node"><title>Node4</title>
<a xlink:href="uiseissel_8h.html" target="_top" xlink:title="uiseissel.h">
<polygon fill="white" stroke="black" points="97.5,-116.5 97.5,-137.5 160.5,-137.5 160.5,-116.5 97.5,-116.5"/>
<text text-anchor="middle" x="129" y="-124.5" font-family="Helvetica,sans-Serif" font-size="10.00">uiseissel.h</text>
</a>
</g>
<!-- Node2&#45;&gt;Node4 -->
<g id="edge6" class="edge"><title>Node2&#45;&gt;Node4</title>
<path fill="none" stroke="midnightblue" d="M200.862,-169.101C183.733,-159.066 162.081,-146.381 147.043,-137.571"/>
<polygon fill="midnightblue" stroke="midnightblue" points="199.444,-172.327 209.842,-174.362 202.983,-166.287 199.444,-172.327"/>
</g>
<!-- Node9 -->
<g id="node17" class="node"><title>Node9</title>
<a xlink:href="uiseiswvltsel_8h.html" target="_top" xlink:title="uiseiswvltsel.h">
<polygon fill="white" stroke="black" points="177.5,-116.5 177.5,-137.5 258.5,-137.5 258.5,-116.5 177.5,-116.5"/>
<text text-anchor="middle" x="218" y="-124.5" font-family="Helvetica,sans-Serif" font-size="10.00">uiseiswvltsel.h</text>
</a>
</g>
<!-- Node2&#45;&gt;Node9 -->
<g id="edge16" class="edge"><title>Node2&#45;&gt;Node9</title>
<path fill="none" stroke="midnightblue" d="M224.463,-164.488C222.895,-155.392 221.116,-145.076 219.823,-137.571"/>
<polygon fill="midnightblue" stroke="midnightblue" points="221.018,-165.102 226.166,-174.362 227.916,-163.913 221.018,-165.102"/>
</g>
<!-- Node10 -->
<g id="node19" class="node"><title>Node10</title>
<a xlink:href="uibodyoperatordlg_8h.html" target="_top" xlink:title="uibodyoperatordlg.h">
<polygon fill="white" stroke="black" points="275.5,-116.5 275.5,-137.5 376.5,-137.5 376.5,-116.5 275.5,-116.5"/>
<text text-anchor="middle" x="326" y="-124.5" font-family="Helvetica,sans-Serif" font-size="10.00">uibodyoperatordlg.h</text>
</a>
</g>
<!-- Node2&#45;&gt;Node10 -->
<g id="edge18" class="edge"><title>Node2&#45;&gt;Node10</title>
<path fill="none" stroke="midnightblue" d="M254.864,-169.101C271.82,-159.066 293.253,-146.381 308.139,-137.571"/>
<polygon fill="midnightblue" stroke="midnightblue" points="252.798,-166.257 245.975,-174.362 256.363,-172.281 252.798,-166.257"/>
</g>
<!-- Node11 -->
<g id="node21" class="node"><title>Node11</title>
<a xlink:href="uiwellsel_8h.html" target="_top" xlink:title="uiwellsel.h">
<polygon fill="white" stroke="black" points="394,-116.5 394,-137.5 456,-137.5 456,-116.5 394,-116.5"/>
<text text-anchor="middle" x="425" y="-124.5" font-family="Helvetica,sans-Serif" font-size="10.00">uiwellsel.h</text>
</a>
</g>
<!-- Node2&#45;&gt;Node11 -->
<g id="edge20" class="edge"><title>Node2&#45;&gt;Node11</title>
<path fill="none" stroke="midnightblue" d="M270.532,-172.478C307.581,-161.57 360.443,-146.007 393.724,-136.208"/>
<polygon fill="midnightblue" stroke="midnightblue" points="269.135,-169.241 260.531,-175.422 271.112,-175.956 269.135,-169.241"/>
</g>
<!-- Node5 -->
<g id="node9" class="node"><title>Node5</title>
<a xlink:href="uistaticsdesc_8h.html" target="_top" xlink:title="uistaticsdesc.h">
<polygon fill="white" stroke="black" points="41.5,-58.5 41.5,-79.5 124.5,-79.5 124.5,-58.5 41.5,-58.5"/>
<text text-anchor="middle" x="83" y="-66.5" font-family="Helvetica,sans-Serif" font-size="10.00">uistaticsdesc.h</text>
</a>
</g>
<!-- Node4&#45;&gt;Node5 -->
<g id="edge8" class="edge"><title>Node4&#45;&gt;Node5</title>
<path fill="none" stroke="midnightblue" d="M114.13,-108.25C106.595,-98.75 97.724,-87.5651 91.3836,-79.5707"/>
<polygon fill="midnightblue" stroke="midnightblue" points="111.607,-110.702 120.563,-116.362 117.091,-106.352 111.607,-110.702"/>
</g>
<!-- Node6 -->
<g id="node11" class="node"><title>Node6</title>
<a xlink:href="uiveldesc_8h.html" target="_top" xlink:title="uiveldesc.h">
<polygon fill="white" stroke="black" points="142,-58.5 142,-79.5 208,-79.5 208,-58.5 142,-58.5"/>
<text text-anchor="middle" x="175" y="-66.5" font-family="Helvetica,sans-Serif" font-size="10.00">uiveldesc.h</text>
</a>
</g>
<!-- Node4&#45;&gt;Node6 -->
<g id="edge10" class="edge"><title>Node4&#45;&gt;Node6</title>
<path fill="none" stroke="midnightblue" d="M143.87,-108.25C151.405,-98.75 160.276,-87.5651 166.616,-79.5707"/>
<polygon fill="midnightblue" stroke="midnightblue" points="140.909,-106.352 137.437,-116.362 146.393,-110.702 140.909,-106.352"/>
</g>
<!-- Node7 -->
<g id="node13" class="node"><title>Node7</title>
<a xlink:href="uisteeringsel_8h.html" target="_top" xlink:title="uisteeringsel.h">
<polygon fill="white" stroke="black" points="335,-58.5 335,-79.5 415,-79.5 415,-58.5 335,-58.5"/>
<text text-anchor="middle" x="375" y="-66.5" font-family="Helvetica,sans-Serif" font-size="10.00">uisteeringsel.h</text>
</a>
</g>
<!-- Node4&#45;&gt;Node7 -->
<g id="edge12" class="edge"><title>Node4&#45;&gt;Node7</title>
<path fill="none" stroke="midnightblue" d="M170.846,-115.598C233.188,-100.053 295.515,-86.1694 334.999,-77.5793"/>
<polygon fill="midnightblue" stroke="midnightblue" points="169.691,-112.279 160.843,-118.107 171.394,-119.069 169.691,-112.279"/>
</g>
<!-- Node8 -->
<g id="node15" class="node"><title>Node8</title>
<a xlink:href="uisimilarityattrib_8h.html" target="_top" xlink:title="uisimilarityattrib.h">
<polygon fill="white" stroke="black" points="328.5,-0.5 328.5,-21.5 421.5,-21.5 421.5,-0.5 328.5,-0.5"/>
<text text-anchor="middle" x="375" y="-8.5" font-family="Helvetica,sans-Serif" font-size="10.00">uisimilarityattrib.h</text>
</a>
</g>
<!-- Node7&#45;&gt;Node8 -->
<g id="edge14" class="edge"><title>Node7&#45;&gt;Node8</title>
<path fill="none" stroke="midnightblue" d="M375,-48.1906C375,-39.1684 375,-28.9941 375,-21.5707"/>
<polygon fill="midnightblue" stroke="midnightblue" points="371.5,-48.3619 375,-58.3619 378.5,-48.3619 371.5,-48.3619"/>
</g>
<!-- Node13&#45;&gt;Node7 -->
<g id="edge26" class="edge"><title>Node13&#45;&gt;Node7</title>
<path fill="none" stroke="midnightblue" d="M475.451,-163.984C476.068,-149.312 474.585,-129.935 465,-116 452.813,-98.2811 431.802,-86.7762 413.145,-79.5869"/>
<polygon fill="midnightblue" stroke="midnightblue" points="471.949,-163.88 474.668,-174.12 478.928,-164.419 471.949,-163.88"/>
</g>
</g>
</svg>
