<?xml version="1.0" encoding="UTF-8" standalone="no"?>
<!DOCTYPE svg PUBLIC "-//W3C//DTD SVG 1.1//EN"
 "http://www.w3.org/Graphics/SVG/1.1/DTD/svg11.dtd">
<!-- Generated by graphviz version 2.26.0 (20091210.2329)
 -->
<!-- Title: uilineedit.h Pages: 1 -->
<svg width="188pt" height="88pt"
 viewBox="0.00 0.00 188.00 88.00" xmlns="http://www.w3.org/2000/svg" xmlns:xlink="http://www.w3.org/1999/xlink">
<g id="graph1" class="graph" transform="scale(1 1) rotate(0) translate(4 84)">
<title>uilineedit.h</title>
<polygon fill="white" stroke="white" points="-4,5 -4,-84 185,-84 185,5 -4,5"/>
<!-- Node1 -->
<g id="node1" class="node"><title>Node1</title>
<polygon fill="#bfbfbf" stroke="black" points="51.5,-58.5 51.5,-79.5 114.5,-79.5 114.5,-58.5 51.5,-58.5"/>
<text text-anchor="middle" x="83" y="-66.5" font-family="Helvetica,sans-Serif" font-size="10.00">uilineedit.h</text>
</g>
<!-- Node2 -->
<g id="node3" class="node"><title>Node2</title>
<a xlink:href="i__qlineedit_8h.html" target="_top" xlink:title="i_qlineedit.h">
<polygon fill="white" stroke="black" points="0,-0.5 0,-21.5 68,-21.5 68,-0.5 0,-0.5"/>
<text text-anchor="middle" x="34" y="-8.5" font-family="Helvetica,sans-Serif" font-size="10.00">i_qlineedit.h</text>
</a>
</g>
<!-- Node1&#45;&gt;Node2 -->
<g id="edge2" class="edge"><title>Node1&#45;&gt;Node2</title>
<path fill="none" stroke="midnightblue" d="M67.4051,-50.5407C59.3267,-40.9786 49.7532,-29.6467 42.9304,-21.5707"/>
<polygon fill="midnightblue" stroke="midnightblue" points="64.8855,-52.9818 74.0126,-58.3619 70.2327,-48.4643 64.8855,-52.9818"/>
</g>
<!-- Node3 -->
<g id="node5" class="node"><title>Node3</title>
<a xlink:href="inputcommands_8h.html" target="_top" xlink:title="inputcommands.h">
<polygon fill="white" stroke="black" points="86,-0.5 86,-21.5 180,-21.5 180,-0.5 86,-0.5"/>
<text text-anchor="middle" x="133" y="-8.5" font-family="Helvetica,sans-Serif" font-size="10.00">inputcommands.h</text>
</a>
</g>
<!-- Node1&#45;&gt;Node3 -->
<g id="edge4" class="edge"><title>Node1&#45;&gt;Node3</title>
<path fill="none" stroke="midnightblue" d="M98.9132,-50.5407C107.156,-40.9786 116.925,-29.6467 123.887,-21.5707"/>
<polygon fill="midnightblue" stroke="midnightblue" points="96.0493,-48.5025 92.1708,-58.3619 101.351,-53.0731 96.0493,-48.5025"/>
</g>
</g>
</svg>
