<?xml version="1.0" encoding="UTF-8" standalone="no"?>
<!DOCTYPE svg PUBLIC "-//W3C//DTD SVG 1.1//EN"
 "http://www.w3.org/Graphics/SVG/1.1/DTD/svg11.dtd">
<!-- Generated by graphviz version 2.26.0 (20091210.2329)
 -->
<!-- Title: uimarkerstyledlg.h Pages: 1 -->
<svg width="192pt" height="88pt"
 viewBox="0.00 0.00 192.00 88.00" xmlns="http://www.w3.org/2000/svg" xmlns:xlink="http://www.w3.org/1999/xlink">
<g id="graph1" class="graph" transform="scale(1 1) rotate(0) translate(4 84)">
<title>uimarkerstyledlg.h</title>
<polygon fill="white" stroke="white" points="-4,5 -4,-84 189,-84 189,5 -4,5"/>
<!-- Node1 -->
<g id="node1" class="node"><title>Node1</title>
<polygon fill="#bfbfbf" stroke="black" points="43,-58.5 43,-79.5 139,-79.5 139,-58.5 43,-58.5"/>
<text text-anchor="middle" x="91" y="-66.5" font-family="Helvetica,sans-Serif" font-size="10.00">uimarkerstyledlg.h</text>
</g>
<!-- Node2 -->
<g id="node3" class="node"><title>Node2</title>
<a xlink:href="uipickpropdlg_8h.html" target="_top" xlink:title="uipickpropdlg.h">
<polygon fill="white" stroke="black" points="0,-0.5 0,-21.5 82,-21.5 82,-0.5 0,-0.5"/>
<text text-anchor="middle" x="41" y="-8.5" font-family="Helvetica,sans-Serif" font-size="10.00">uipickpropdlg.h</text>
</a>
</g>
<!-- Node1&#45;&gt;Node2 -->
<g id="edge2" class="edge"><title>Node1&#45;&gt;Node2</title>
<path fill="none" stroke="midnightblue" d="M75.0868,-50.5407C66.8436,-40.9786 57.0747,-29.6467 50.1126,-21.5707"/>
<polygon fill="midnightblue" stroke="midnightblue" points="72.6489,-53.0731 81.8292,-58.3619 77.9507,-48.5025 72.6489,-53.0731"/>
</g>
<!-- Node3 -->
<g id="node5" class="node"><title>Node3</title>
<a xlink:href="uiseedpropdlg_8h.html" target="_top" xlink:title="uiseedpropdlg.h">
<polygon fill="white" stroke="black" points="99.5,-0.5 99.5,-21.5 184.5,-21.5 184.5,-0.5 99.5,-0.5"/>
<text text-anchor="middle" x="142" y="-8.5" font-family="Helvetica,sans-Serif" font-size="10.00">uiseedpropdlg.h</text>
</a>
</g>
<!-- Node1&#45;&gt;Node3 -->
<g id="edge4" class="edge"><title>Node1&#45;&gt;Node3</title>
<path fill="none" stroke="midnightblue" d="M106.977,-50.8299C115.438,-41.2078 125.532,-29.7282 132.705,-21.5707"/>
<polygon fill="midnightblue" stroke="midnightblue" points="104.329,-48.541 100.354,-58.3619 109.586,-53.1634 104.329,-48.541"/>
</g>
</g>
</svg>
