<?xml version="1.0" encoding="UTF-8" standalone="no"?>
<!DOCTYPE svg PUBLIC "-//W3C//DTD SVG 1.1//EN"
 "http://www.w3.org/Graphics/SVG/1.1/DTD/svg11.dtd">
<!-- Generated by graphviz version 2.26.0 (20091210.2329)
 -->
<!-- Title: uimdiarea.h Pages: 1 -->
<svg width="208pt" height="88pt"
 viewBox="0.00 0.00 208.00 88.00" xmlns="http://www.w3.org/2000/svg" xmlns:xlink="http://www.w3.org/1999/xlink">
<g id="graph1" class="graph" transform="scale(1 1) rotate(0) translate(4 84)">
<title>uimdiarea.h</title>
<polygon fill="white" stroke="white" points="-4,5 -4,-84 205,-84 205,5 -4,5"/>
<!-- Node1 -->
<g id="node1" class="node"><title>Node1</title>
<polygon fill="#bfbfbf" stroke="black" points="56.5,-58.5 56.5,-79.5 123.5,-79.5 123.5,-58.5 56.5,-58.5"/>
<text text-anchor="middle" x="90" y="-66.5" font-family="Helvetica,sans-Serif" font-size="10.00">uimdiarea.h</text>
</g>
<!-- Node2 -->
<g id="node3" class="node"><title>Node2</title>
<a xlink:href="i__qmdiarea_8h.html" target="_top" xlink:title="i_qmdiarea.h">
<polygon fill="white" stroke="black" points="0,-0.5 0,-21.5 72,-21.5 72,-0.5 0,-0.5"/>
<text text-anchor="middle" x="36" y="-8.5" font-family="Helvetica,sans-Serif" font-size="10.00">i_qmdiarea.h</text>
</a>
</g>
<!-- Node1&#45;&gt;Node2 -->
<g id="edge2" class="edge"><title>Node1&#45;&gt;Node2</title>
<path fill="none" stroke="midnightblue" d="M73.083,-50.8299C64.1245,-41.2078 53.4366,-29.7282 45.8416,-21.5707"/>
<polygon fill="midnightblue" stroke="midnightblue" points="70.7197,-53.4279 80.0956,-58.3619 75.843,-48.658 70.7197,-53.4279"/>
</g>
<!-- Node3 -->
<g id="node5" class="node"><title>Node3</title>
<a xlink:href="menubutcommands_8h.html" target="_top" xlink:title="menubutcommands.h">
<polygon fill="white" stroke="black" points="90,-0.5 90,-21.5 200,-21.5 200,-0.5 90,-0.5"/>
<text text-anchor="middle" x="145" y="-8.5" font-family="Helvetica,sans-Serif" font-size="10.00">menubutcommands.h</text>
</a>
</g>
<!-- Node1&#45;&gt;Node3 -->
<g id="edge4" class="edge"><title>Node1&#45;&gt;Node3</title>
<path fill="none" stroke="midnightblue" d="M107.23,-50.8299C116.355,-41.2078 127.24,-29.7282 134.976,-21.5707"/>
<polygon fill="midnightblue" stroke="midnightblue" points="104.429,-48.6973 100.088,-58.3619 109.508,-53.514 104.429,-48.6973"/>
</g>
</g>
</svg>
