<?xml version="1.0" encoding="UTF-8" standalone="no"?>
<!DOCTYPE svg PUBLIC "-//W3C//DTD SVG 1.1//EN"
 "http://www.w3.org/Graphics/SVG/1.1/DTD/svg11.dtd">
<!-- Generated by graphviz version 2.26.0 (20091210.2329)
 -->
<!-- Title: uinlapartserv.h Pages: 1 -->
<svg width="1269pt" height="842pt"
 viewBox="0.00 0.00 1269.00 842.00" xmlns="http://www.w3.org/2000/svg" xmlns:xlink="http://www.w3.org/1999/xlink">
<g id="graph1" class="graph" transform="scale(1 1) rotate(0) translate(4 838)">
<title>uinlapartserv.h</title>
<polygon fill="white" stroke="white" points="-4,5 -4,-838 1266,-838 1266,5 -4,5"/>
<!-- Node1 -->
<g id="node1" class="node"><title>Node1</title>
<polygon fill="#bfbfbf" stroke="black" points="975,-812.5 975,-833.5 1055,-833.5 1055,-812.5 975,-812.5"/>
<text text-anchor="middle" x="1015" y="-820.5" font-family="Helvetica,sans-Serif" font-size="10.00">uinlapartserv.h</text>
</g>
<!-- Node2 -->
<g id="node3" class="node"><title>Node2</title>
<polygon fill="white" stroke="#bfbfbf" points="396,-754.5 396,-775.5 460,-775.5 460,-754.5 396,-754.5"/>
<text text-anchor="middle" x="428" y="-762.5" font-family="Helvetica,sans-Serif" font-size="10.00">uinlamod.h</text>
</g>
<!-- Node1&#45;&gt;Node2 -->
<g id="edge2" class="edge"><title>Node1&#45;&gt;Node2</title>
<path fill="none" stroke="midnightblue" d="M974.706,-821.54C884.503,-817.827 659.66,-806.093 474,-776 472.723,-775.793 471.43,-775.57 470.126,-775.333"/>
<polygon fill="midnightblue" stroke="midnightblue" points="470.542,-771.847 460.048,-773.304 469.16,-778.709 470.542,-771.847"/>
</g>
<!-- Node3 -->
<g id="node5" class="node"><title>Node3</title>
<a xlink:href="uiapplserv_8h.html" target="_top" xlink:title="uiapplserv.h">
<polygon fill="white" stroke="black" points="822.5,-754.5 822.5,-775.5 891.5,-775.5 891.5,-754.5 822.5,-754.5"/>
<text text-anchor="middle" x="857" y="-762.5" font-family="Helvetica,sans-Serif" font-size="10.00">uiapplserv.h</text>
</a>
</g>
<!-- Node1&#45;&gt;Node3 -->
<g id="edge4" class="edge"><title>Node1&#45;&gt;Node3</title>
<path fill="none" stroke="midnightblue" d="M986.387,-812.497C960.852,-803.123 923.263,-789.324 895.171,-779.012"/>
<polygon fill="midnightblue" stroke="midnightblue" points="896.26,-775.684 885.666,-775.523 893.848,-782.255 896.26,-775.684"/>
</g>
<!-- Node37 -->
<g id="node100" class="node"><title>Node37</title>
<a xlink:href="uistring_8h.html" target="_top" xlink:title="uistring.h">
<polygon fill="white" stroke="black" points="373,-580.5 373,-601.5 429,-601.5 429,-580.5 373,-580.5"/>
<text text-anchor="middle" x="401" y="-588.5" font-family="Helvetica,sans-Serif" font-size="10.00">uistring.h</text>
</a>
</g>
<!-- Node1&#45;&gt;Node37 -->
<g id="edge126" class="edge"><title>Node1&#45;&gt;Node37</title>
<path fill="none" stroke="midnightblue" d="M974.624,-814.904C933.799,-806.404 869.045,-792.059 814,-776 673.978,-735.15 636.215,-727.666 507,-660 476.873,-644.223 444.402,-622.282 423.45,-607.409"/>
<polygon fill="midnightblue" stroke="midnightblue" points="425.383,-604.488 415.217,-601.506 421.305,-610.177 425.383,-604.488"/>
</g>
<!-- Node39 -->
<g id="node110" class="node"><title>Node39</title>
<a xlink:href="multiid_8h.html" target="_top" xlink:title="multiid.h">
<polygon fill="white" stroke="black" points="962.5,-464.5 962.5,-485.5 1015.5,-485.5 1015.5,-464.5 962.5,-464.5"/>
<text text-anchor="middle" x="989" y="-472.5" font-family="Helvetica,sans-Serif" font-size="10.00">multiid.h</text>
</a>
</g>
<!-- Node1&#45;&gt;Node39 -->
<g id="edge142" class="edge"><title>Node1&#45;&gt;Node39</title>
<path fill="none" stroke="midnightblue" d="M1042.03,-812.413C1079.05,-795.929 1141,-760.372 1141,-707 1141,-707 1141,-707 1141,-591 1141,-533.135 1070.52,-500.289 1025.55,-485.219"/>
<polygon fill="midnightblue" stroke="midnightblue" points="1026.42,-481.822 1015.82,-482.102 1024.28,-488.488 1026.42,-481.822"/>
</g>
<!-- Node41 -->
<g id="node119" class="node"><title>Node41</title>
<a xlink:href="nlamodel_8h.html" target="_top" xlink:title="nlamodel.h">
<polygon fill="white" stroke="black" points="1170,-754.5 1170,-775.5 1234,-775.5 1234,-754.5 1170,-754.5"/>
<text text-anchor="middle" x="1202" y="-762.5" font-family="Helvetica,sans-Serif" font-size="10.00">nlamodel.h</text>
</a>
</g>
<!-- Node1&#45;&gt;Node41 -->
<g id="edge156" class="edge"><title>Node1&#45;&gt;Node41</title>
<path fill="none" stroke="midnightblue" d="M1048.86,-812.497C1080.05,-802.823 1126.44,-788.436 1159.98,-778.032"/>
<polygon fill="midnightblue" stroke="midnightblue" points="1161.43,-781.246 1169.95,-774.941 1159.36,-774.56 1161.43,-781.246"/>
</g>
<!-- Node44 -->
<g id="node126" class="node"><title>Node44</title>
<a xlink:href="bufstringset_8h.html" target="_top" xlink:title="bufstringset.h">
<polygon fill="white" stroke="black" points="1037,-638.5 1037,-659.5 1113,-659.5 1113,-638.5 1037,-638.5"/>
<text text-anchor="middle" x="1075" y="-646.5" font-family="Helvetica,sans-Serif" font-size="10.00">bufstringset.h</text>
</a>
</g>
<!-- Node1&#45;&gt;Node44 -->
<g id="edge174" class="edge"><title>Node1&#45;&gt;Node44</title>
<path fill="none" stroke="midnightblue" d="M1018.66,-812.377C1028.39,-784.172 1055,-707.012 1067.86,-669.72"/>
<polygon fill="midnightblue" stroke="midnightblue" points="1071.28,-670.522 1071.23,-659.928 1064.66,-668.24 1071.28,-670.522"/>
</g>
<!-- Node4 -->
<g id="node7" class="node"><title>Node4</title>
<polygon fill="white" stroke="#bfbfbf" points="821,-696.5 821,-717.5 893,-717.5 893,-696.5 821,-696.5"/>
<text text-anchor="middle" x="857" y="-704.5" font-family="Helvetica,sans-Serif" font-size="10.00">uitoolsmod.h</text>
</g>
<!-- Node3&#45;&gt;Node4 -->
<g id="edge6" class="edge"><title>Node3&#45;&gt;Node4</title>
<path fill="none" stroke="midnightblue" d="M857,-754.362C857,-746.922 857,-736.743 857,-727.728"/>
<polygon fill="midnightblue" stroke="midnightblue" points="860.5,-727.571 857,-717.571 853.5,-727.571 860.5,-727.571"/>
</g>
<!-- Node5 -->
<g id="node9" class="node"><title>Node5</title>
<a xlink:href="namedobj_8h.html" target="_top" xlink:title="namedobj.h">
<polygon fill="white" stroke="black" points="657.5,-696.5 657.5,-717.5 724.5,-717.5 724.5,-696.5 657.5,-696.5"/>
<text text-anchor="middle" x="691" y="-704.5" font-family="Helvetica,sans-Serif" font-size="10.00">namedobj.h</text>
</a>
</g>
<!-- Node3&#45;&gt;Node5 -->
<g id="edge8" class="edge"><title>Node3&#45;&gt;Node5</title>
<path fill="none" stroke="midnightblue" d="M826.939,-754.497C799.993,-745.082 760.272,-731.204 730.718,-720.877"/>
<polygon fill="midnightblue" stroke="midnightblue" points="731.713,-717.517 721.118,-717.523 729.404,-724.126 731.713,-717.517"/>
</g>
<!-- Node6 -->
<g id="node11" class="node"><title>Node6</title>
<polygon fill="white" stroke="#bfbfbf" points="780.5,-0.5 780.5,-21.5 847.5,-21.5 847.5,-0.5 780.5,-0.5"/>
<text text-anchor="middle" x="814" y="-8.5" font-family="Helvetica,sans-Serif" font-size="10.00">basicmod.h</text>
</g>
<!-- Node5&#45;&gt;Node6 -->
<g id="edge10" class="edge"><title>Node5&#45;&gt;Node6</title>
<path fill="none" stroke="midnightblue" d="M718.368,-696.366C781.734,-670.36 939.546,-597.423 1024,-486 1059.83,-438.731 1065,-418.313 1065,-359 1065,-359 1065,-359 1065,-127 1065,-88.8657 1045.84,-78.9798 1014,-58 988.643,-41.294 908.541,-26.0191 857.735,-17.6619"/>
<polygon fill="midnightblue" stroke="midnightblue" points="858.109,-14.1771 847.679,-16.0349 856.991,-21.0872 858.109,-14.1771"/>
</g>
<!-- Node7 -->
<g id="node13" class="node"><title>Node7</title>
<a xlink:href="callback_8h.html" target="_top" xlink:title="callback.h">
<polygon fill="white" stroke="black" points="515.5,-638.5 515.5,-659.5 576.5,-659.5 576.5,-638.5 515.5,-638.5"/>
<text text-anchor="middle" x="546" y="-646.5" font-family="Helvetica,sans-Serif" font-size="10.00">callback.h</text>
</a>
</g>
<!-- Node5&#45;&gt;Node7 -->
<g id="edge12" class="edge"><title>Node5&#45;&gt;Node7</title>
<path fill="none" stroke="midnightblue" d="M664.742,-696.497C641.584,-687.234 607.625,-673.65 581.948,-663.379"/>
<polygon fill="midnightblue" stroke="midnightblue" points="583.138,-660.086 572.553,-659.621 580.538,-666.585 583.138,-660.086"/>
</g>
<!-- Node26 -->
<g id="node62" class="node"><title>Node26</title>
<a xlink:href="bufstring_8h.html" target="_top" xlink:title="bufstring.h">
<polygon fill="white" stroke="black" points="777,-348.5 777,-369.5 839,-369.5 839,-348.5 777,-348.5"/>
<text text-anchor="middle" x="808" y="-356.5" font-family="Helvetica,sans-Serif" font-size="10.00">bufstring.h</text>
</a>
</g>
<!-- Node5&#45;&gt;Node26 -->
<g id="edge124" class="edge"><title>Node5&#45;&gt;Node26</title>
<path fill="none" stroke="midnightblue" d="M689.132,-696.25C685.668,-674.097 679.509,-621.924 690,-580 710.344,-498.705 766.906,-414.595 793.645,-377.957"/>
<polygon fill="midnightblue" stroke="midnightblue" points="796.623,-379.815 799.76,-369.695 790.997,-375.65 796.623,-379.815"/>
</g>
<!-- Node7&#45;&gt;Node6 -->
<g id="edge14" class="edge"><title>Node7&#45;&gt;Node6</title>
<path fill="none" stroke="midnightblue" d="M576.553,-645.72C633.693,-639.166 754.194,-623.236 790,-602 824.213,-581.709 847,-572.777 847,-533 847,-533 847,-533 847,-475 847,-367.675 914,-350.325 914,-243 914,-243 914,-243 914,-127 914,-82.6626 871.572,-46.8687 841.989,-27.2998"/>
<polygon fill="midnightblue" stroke="midnightblue" points="843.596,-24.1742 833.281,-21.7561 839.837,-30.079 843.596,-24.1742"/>
</g>
<!-- Node8 -->
<g id="node16" class="node"><title>Node8</title>
<a xlink:href="refcount_8h.html" target="_top" xlink:title="refcount.h">
<polygon fill="white" stroke="black" points="295,-580.5 295,-601.5 355,-601.5 355,-580.5 295,-580.5"/>
<text text-anchor="middle" x="325" y="-588.5" font-family="Helvetica,sans-Serif" font-size="10.00">refcount.h</text>
</a>
</g>
<!-- Node7&#45;&gt;Node8 -->
<g id="edge16" class="edge"><title>Node7&#45;&gt;Node8</title>
<path fill="none" stroke="midnightblue" d="M515.353,-641.307C481.047,-632.646 423.558,-617.989 365.001,-602.234"/>
<polygon fill="midnightblue" stroke="midnightblue" points="365.782,-598.82 355.215,-599.594 363.958,-605.578 365.782,-598.82"/>
</g>
<!-- Node34 -->
<g id="node87" class="node"><title>Node34</title>
<a xlink:href="sets_8h.html" target="_top" xlink:title="sets.h">
<polygon fill="white" stroke="black" points="457,-580.5 457,-601.5 501,-601.5 501,-580.5 457,-580.5"/>
<text text-anchor="middle" x="479" y="-588.5" font-family="Helvetica,sans-Serif" font-size="10.00">sets.h</text>
</a>
</g>
<!-- Node7&#45;&gt;Node34 -->
<g id="edge106" class="edge"><title>Node7&#45;&gt;Node34</title>
<path fill="none" stroke="midnightblue" d="M533.711,-638.362C523.983,-629.941 510.202,-618.011 498.905,-608.231"/>
<polygon fill="midnightblue" stroke="midnightblue" points="501.062,-605.469 491.211,-601.571 496.481,-610.762 501.062,-605.469"/>
</g>
<!-- Node36 -->
<g id="node94" class="node"><title>Node36</title>
<a xlink:href="threadlock_8h.html" target="_top" xlink:title="threadlock.h">
<polygon fill="white" stroke="black" points="78,-116.5 78,-137.5 148,-137.5 148,-116.5 78,-116.5"/>
<text text-anchor="middle" x="113" y="-124.5" font-family="Helvetica,sans-Serif" font-size="10.00">threadlock.h</text>
</a>
</g>
<!-- Node7&#45;&gt;Node36 -->
<g id="edge116" class="edge"><title>Node7&#45;&gt;Node36</title>
<path fill="none" stroke="midnightblue" d="M515.131,-647.788C465.133,-644.881 364.157,-635.056 286,-602 162.457,-549.748 107,-493.138 107,-359 107,-359 107,-359 107,-243 107,-209.553 109.519,-170.754 111.292,-147.577"/>
<polygon fill="midnightblue" stroke="midnightblue" points="114.786,-147.792 112.089,-137.547 107.808,-147.238 114.786,-147.792"/>
</g>
<!-- Node9 -->
<g id="node18" class="node"><title>Node9</title>
<a xlink:href="atomic_8h.html" target="_top" xlink:title="atomic.h">
<polygon fill="white" stroke="black" points="6,-116.5 6,-137.5 60,-137.5 60,-116.5 6,-116.5"/>
<text text-anchor="middle" x="33" y="-124.5" font-family="Helvetica,sans-Serif" font-size="10.00">atomic.h</text>
</a>
</g>
<!-- Node8&#45;&gt;Node9 -->
<g id="edge18" class="edge"><title>Node8&#45;&gt;Node9</title>
<path fill="none" stroke="midnightblue" d="M294.775,-584.222C268.972,-577.32 231.88,-564.651 205,-544 124.076,-481.829 69,-461.049 69,-359 69,-359 69,-359 69,-243 69,-207.891 53.7717,-169.382 43.1238,-146.747"/>
<polygon fill="midnightblue" stroke="midnightblue" points="46.1579,-144.984 38.625,-137.534 39.8677,-148.056 46.1579,-144.984"/>
</g>
<!-- Node17 -->
<g id="node37" class="node"><title>Node17</title>
<a xlink:href="objectset_8h.html" target="_top" xlink:title="objectset.h">
<polygon fill="white" stroke="black" points="446.5,-522.5 446.5,-543.5 511.5,-543.5 511.5,-522.5 446.5,-522.5"/>
<text text-anchor="middle" x="479" y="-530.5" font-family="Helvetica,sans-Serif" font-size="10.00">objectset.h</text>
</a>
</g>
<!-- Node8&#45;&gt;Node17 -->
<g id="edge40" class="edge"><title>Node8&#45;&gt;Node17</title>
<path fill="none" stroke="midnightblue" d="M352.888,-580.497C377.668,-571.164 414.095,-557.445 441.436,-547.147"/>
<polygon fill="midnightblue" stroke="midnightblue" points="442.935,-550.323 451.059,-543.523 440.468,-543.772 442.935,-550.323"/>
</g>
<!-- Node9&#45;&gt;Node6 -->
<g id="edge20" class="edge"><title>Node9&#45;&gt;Node6</title>
<path fill="none" stroke="midnightblue" d="M47.3217,-116.246C69.4839,-100.277 114.029,-70.8043 157,-58 215.411,-40.5948 632.195,-19.5827 769.938,-13.0427"/>
<polygon fill="midnightblue" stroke="midnightblue" points="770.3,-16.5296 780.124,-12.5614 769.97,-9.53743 770.3,-16.5296"/>
</g>
<!-- Node10 -->
<g id="node21" class="node"><title>Node10</title>
<a xlink:href="commondefs_8h.html" target="_top" xlink:title="commondefs.h">
<polygon fill="white" stroke="black" points="255.5,-58.5 255.5,-79.5 336.5,-79.5 336.5,-58.5 255.5,-58.5"/>
<text text-anchor="middle" x="296" y="-66.5" font-family="Helvetica,sans-Serif" font-size="10.00">commondefs.h</text>
</a>
</g>
<!-- Node9&#45;&gt;Node10 -->
<g id="edge22" class="edge"><title>Node9&#45;&gt;Node10</title>
<path fill="none" stroke="midnightblue" d="M60.0511,-118.441C63.0593,-117.577 66.0875,-116.745 69,-116 128.993,-100.659 198.871,-86.7804 245.081,-78.1484"/>
<polygon fill="midnightblue" stroke="midnightblue" points="245.951,-81.5468 255.144,-76.2815 244.674,-74.6642 245.951,-81.5468"/>
</g>
<!-- Node14 -->
<g id="node30" class="node"><title>Node14</title>
<a xlink:href="plftypes_8h.html" target="_top" xlink:title="plftypes.h">
<polygon fill="white" stroke="black" points="165.5,-58.5 165.5,-79.5 224.5,-79.5 224.5,-58.5 165.5,-58.5"/>
<text text-anchor="middle" x="195" y="-66.5" font-family="Helvetica,sans-Serif" font-size="10.00">plftypes.h</text>
</a>
</g>
<!-- Node9&#45;&gt;Node14 -->
<g id="edge32" class="edge"><title>Node9&#45;&gt;Node14</title>
<path fill="none" stroke="midnightblue" d="M60.1152,-117.292C86.3349,-107.905 126.341,-93.5817 155.982,-82.9696"/>
<polygon fill="midnightblue" stroke="midnightblue" points="157.366,-86.1914 165.601,-79.5254 155.007,-79.601 157.366,-86.1914"/>
</g>
<!-- Node16 -->
<g id="node35" class="node"><title>Node16</title>
<polygon fill="white" stroke="#bfbfbf" points="-0.5,-58.5 -0.5,-79.5 66.5,-79.5 66.5,-58.5 -0.5,-58.5"/>
<text text-anchor="middle" x="33" y="-66.5" font-family="Helvetica,sans-Serif" font-size="10.00">odversion.h</text>
</g>
<!-- Node9&#45;&gt;Node16 -->
<g id="edge38" class="edge"><title>Node9&#45;&gt;Node16</title>
<path fill="none" stroke="midnightblue" d="M33,-116.362C33,-108.922 33,-98.7427 33,-89.7276"/>
<polygon fill="midnightblue" stroke="midnightblue" points="36.5001,-89.5706 33,-79.5707 29.5001,-89.5707 36.5001,-89.5706"/>
</g>
<!-- Node10&#45;&gt;Node6 -->
<g id="edge24" class="edge"><title>Node10&#45;&gt;Node6</title>
<path fill="none" stroke="midnightblue" d="M336.612,-60.2739C341.118,-59.441 345.649,-58.6618 350,-58 503.72,-34.6179 687.915,-19.8681 770.364,-13.9571"/>
<polygon fill="midnightblue" stroke="midnightblue" points="770.647,-17.4459 780.374,-13.2471 770.152,-10.4634 770.647,-17.4459"/>
</g>
<!-- Node11 -->
<g id="node24" class="node"><title>Node11</title>
<a xlink:href="plfdefs_8h.html" target="_top" xlink:title="plfdefs.h">
<polygon fill="white" stroke="black" points="222,-0.5 222,-21.5 276,-21.5 276,-0.5 222,-0.5"/>
<text text-anchor="middle" x="249" y="-8.5" font-family="Helvetica,sans-Serif" font-size="10.00">plfdefs.h</text>
</a>
</g>
<!-- Node10&#45;&gt;Node11 -->
<g id="edge26" class="edge"><title>Node10&#45;&gt;Node11</title>
<path fill="none" stroke="midnightblue" d="M287.379,-58.3619C280.82,-50.2678 271.634,-38.9318 263.894,-29.3796"/>
<polygon fill="midnightblue" stroke="midnightblue" points="266.581,-27.1364 257.566,-21.5707 261.142,-31.5436 266.581,-27.1364"/>
</g>
<!-- Node12 -->
<g id="node26" class="node"><title>Node12</title>
<polygon fill="white" stroke="#bfbfbf" points="419.5,-0.5 419.5,-21.5 478.5,-21.5 478.5,-0.5 419.5,-0.5"/>
<text text-anchor="middle" x="449" y="-8.5" font-family="Helvetica,sans-Serif" font-size="10.00">stdexcept</text>
</g>
<!-- Node10&#45;&gt;Node12 -->
<g id="edge28" class="edge"><title>Node10&#45;&gt;Node12</title>
<path fill="none" stroke="midnightblue" d="M323.707,-58.4966C348.326,-49.1639 384.517,-35.4447 411.68,-25.1475"/>
<polygon fill="midnightblue" stroke="midnightblue" points="413.131,-28.3406 421.241,-21.5231 410.65,-21.7951 413.131,-28.3406"/>
</g>
<!-- Node13 -->
<g id="node28" class="node"><title>Node13</title>
<polygon fill="white" stroke="#bfbfbf" points="293.5,-0.5 293.5,-21.5 328.5,-21.5 328.5,-0.5 293.5,-0.5"/>
<text text-anchor="middle" x="311" y="-8.5" font-family="Helvetica,sans-Serif" font-size="10.00">new</text>
</g>
<!-- Node10&#45;&gt;Node13 -->
<g id="edge30" class="edge"><title>Node10&#45;&gt;Node13</title>
<path fill="none" stroke="midnightblue" d="M298.751,-58.3619C300.697,-50.8401 303.366,-40.5187 305.716,-31.4308"/>
<polygon fill="midnightblue" stroke="midnightblue" points="309.151,-32.1285 308.266,-21.5707 302.374,-30.3758 309.151,-32.1285"/>
</g>
<!-- Node14&#45;&gt;Node11 -->
<g id="edge34" class="edge"><title>Node14&#45;&gt;Node11</title>
<path fill="none" stroke="midnightblue" d="M204.904,-58.3619C212.516,-50.1861 223.208,-38.7025 232.157,-29.0907"/>
<polygon fill="midnightblue" stroke="midnightblue" points="234.906,-31.2746 239.158,-21.5707 229.783,-26.5046 234.906,-31.2746"/>
</g>
<!-- Node15 -->
<g id="node33" class="node"><title>Node15</title>
<polygon fill="white" stroke="#bfbfbf" points="155.5,-0.5 155.5,-21.5 204.5,-21.5 204.5,-0.5 155.5,-0.5"/>
<text text-anchor="middle" x="180" y="-8.5" font-family="Helvetica,sans-Serif" font-size="10.00">stdint.h</text>
</g>
<!-- Node14&#45;&gt;Node15 -->
<g id="edge36" class="edge"><title>Node14&#45;&gt;Node15</title>
<path fill="none" stroke="midnightblue" d="M192.249,-58.3619C190.303,-50.8401 187.634,-40.5187 185.284,-31.4308"/>
<polygon fill="midnightblue" stroke="midnightblue" points="188.626,-30.3758 182.734,-21.5707 181.849,-32.1285 188.626,-30.3758"/>
</g>
<!-- Node18 -->
<g id="node39" class="node"><title>Node18</title>
<a xlink:href="odset_8h.html" target="_top" xlink:title="odset.h">
<polygon fill="white" stroke="black" points="371.5,-464.5 371.5,-485.5 420.5,-485.5 420.5,-464.5 371.5,-464.5"/>
<text text-anchor="middle" x="396" y="-472.5" font-family="Helvetica,sans-Serif" font-size="10.00">odset.h</text>
</a>
</g>
<!-- Node17&#45;&gt;Node18 -->
<g id="edge42" class="edge"><title>Node17&#45;&gt;Node18</title>
<path fill="none" stroke="midnightblue" d="M463.777,-522.362C451.375,-513.696 433.654,-501.313 419.443,-491.382"/>
<polygon fill="midnightblue" stroke="midnightblue" points="421.329,-488.43 411.127,-485.571 417.319,-494.168 421.329,-488.43"/>
</g>
<!-- Node24 -->
<g id="node56" class="node"><title>Node24</title>
<a xlink:href="vectoraccess_8h.html" target="_top" xlink:title="vectoraccess.h">
<polygon fill="white" stroke="black" points="437.5,-464.5 437.5,-485.5 520.5,-485.5 520.5,-464.5 437.5,-464.5"/>
<text text-anchor="middle" x="479" y="-472.5" font-family="Helvetica,sans-Serif" font-size="10.00">vectoraccess.h</text>
</a>
</g>
<!-- Node17&#45;&gt;Node24 -->
<g id="edge64" class="edge"><title>Node17&#45;&gt;Node24</title>
<path fill="none" stroke="midnightblue" d="M479,-522.362C479,-514.922 479,-504.743 479,-495.728"/>
<polygon fill="midnightblue" stroke="midnightblue" points="482.5,-495.571 479,-485.571 475.5,-495.571 482.5,-495.571"/>
</g>
<!-- Node19 -->
<g id="node41" class="node"><title>Node19</title>
<a xlink:href="gendefs_8h.html" target="_top" xlink:title="gendefs.h">
<polygon fill="white" stroke="black" points="309.5,-174.5 309.5,-195.5 368.5,-195.5 368.5,-174.5 309.5,-174.5"/>
<text text-anchor="middle" x="339" y="-182.5" font-family="Helvetica,sans-Serif" font-size="10.00">gendefs.h</text>
</a>
</g>
<!-- Node18&#45;&gt;Node19 -->
<g id="edge44" class="edge"><title>Node18&#45;&gt;Node19</title>
<path fill="none" stroke="midnightblue" d="M371.206,-467.005C352.802,-459.762 328.625,-447.238 315,-428 286.464,-387.708 298.294,-249.216 304,-232 307.468,-221.536 314.271,-211.509 320.964,-203.425"/>
<polygon fill="midnightblue" stroke="midnightblue" points="323.74,-205.57 327.755,-195.766 318.502,-200.926 323.74,-205.57"/>
</g>
<!-- Node20 -->
<g id="node43" class="node"><title>Node20</title>
<a xlink:href="undefval_8h.html" target="_top" xlink:title="undefval.h">
<polygon fill="white" stroke="black" points="308,-116.5 308,-137.5 370,-137.5 370,-116.5 308,-116.5"/>
<text text-anchor="middle" x="339" y="-124.5" font-family="Helvetica,sans-Serif" font-size="10.00">undefval.h</text>
</a>
</g>
<!-- Node19&#45;&gt;Node20 -->
<g id="edge46" class="edge"><title>Node19&#45;&gt;Node20</title>
<path fill="none" stroke="midnightblue" d="M339,-174.362C339,-166.922 339,-156.743 339,-147.728"/>
<polygon fill="midnightblue" stroke="midnightblue" points="342.5,-147.571 339,-137.571 335.5,-147.571 342.5,-147.571"/>
</g>
<!-- Node21 -->
<g id="node48" class="node"><title>Node21</title>
<a xlink:href="commontypes_8h.html" target="_top" xlink:title="commontypes.h">
<polygon fill="white" stroke="black" points="166,-116.5 166,-137.5 252,-137.5 252,-116.5 166,-116.5"/>
<text text-anchor="middle" x="209" y="-124.5" font-family="Helvetica,sans-Serif" font-size="10.00">commontypes.h</text>
</a>
</g>
<!-- Node19&#45;&gt;Node21 -->
<g id="edge54" class="edge"><title>Node19&#45;&gt;Node21</title>
<path fill="none" stroke="midnightblue" d="M315.458,-174.497C294.971,-165.356 265.053,-152.008 242.146,-141.788"/>
<polygon fill="midnightblue" stroke="midnightblue" points="243.365,-138.499 232.806,-137.621 240.512,-144.892 243.365,-138.499"/>
</g>
<!-- Node22 -->
<g id="node51" class="node"><title>Node22</title>
<a xlink:href="errmsg_8h.html" target="_top" xlink:title="errmsg.h">
<polygon fill="white" stroke="black" points="387.5,-116.5 387.5,-137.5 442.5,-137.5 442.5,-116.5 387.5,-116.5"/>
<text text-anchor="middle" x="415" y="-124.5" font-family="Helvetica,sans-Serif" font-size="10.00">errmsg.h</text>
</a>
</g>
<!-- Node19&#45;&gt;Node22 -->
<g id="edge58" class="edge"><title>Node19&#45;&gt;Node22</title>
<path fill="none" stroke="midnightblue" d="M352.94,-174.362C364.188,-165.777 380.216,-153.546 393.165,-143.664"/>
<polygon fill="midnightblue" stroke="midnightblue" points="395.323,-146.42 401.149,-137.571 391.076,-140.855 395.323,-146.42"/>
</g>
<!-- Node20&#45;&gt;Node6 -->
<g id="edge48" class="edge"><title>Node20&#45;&gt;Node6</title>
<path fill="none" stroke="midnightblue" d="M347.807,-116.415C361.595,-100.665 389.935,-71.4752 421,-58 482.928,-31.1378 681.279,-17.8241 770.177,-13.0848"/>
<polygon fill="midnightblue" stroke="midnightblue" points="770.402,-16.5779 780.207,-12.5618 770.038,-9.58737 770.402,-16.5779"/>
</g>
<!-- Node20&#45;&gt;Node10 -->
<g id="edge50" class="edge"><title>Node20&#45;&gt;Node10</title>
<path fill="none" stroke="midnightblue" d="M331.113,-116.362C325.173,-108.35 316.878,-97.1605 309.841,-87.6696"/>
<polygon fill="midnightblue" stroke="midnightblue" points="312.604,-85.5193 303.837,-79.5707 306.981,-89.6883 312.604,-85.5193"/>
</g>
<!-- Node20&#45;&gt;Node14 -->
<g id="edge52" class="edge"><title>Node20&#45;&gt;Node14</title>
<path fill="none" stroke="midnightblue" d="M312.923,-116.497C289.925,-107.234 256.2,-93.6499 230.7,-83.3793"/>
<polygon fill="midnightblue" stroke="midnightblue" points="231.953,-80.1108 221.37,-79.6212 229.338,-86.6039 231.953,-80.1108"/>
</g>
<!-- Node21&#45;&gt;Node10 -->
<g id="edge56" class="edge"><title>Node21&#45;&gt;Node10</title>
<path fill="none" stroke="midnightblue" d="M224.957,-116.362C237.957,-107.696 256.531,-95.3126 271.427,-85.3819"/>
<polygon fill="midnightblue" stroke="midnightblue" points="273.765,-88.0299 280.144,-79.5707 269.882,-82.2055 273.765,-88.0299"/>
</g>
<!-- Node22&#45;&gt;Node10 -->
<g id="edge60" class="edge"><title>Node22&#45;&gt;Node10</title>
<path fill="none" stroke="midnightblue" d="M393.45,-116.497C374.864,-107.438 347.798,-94.2462 326.905,-84.0628"/>
<polygon fill="midnightblue" stroke="midnightblue" points="328.314,-80.8563 317.792,-79.6212 325.247,-87.1487 328.314,-80.8563"/>
</g>
<!-- Node23 -->
<g id="node54" class="node"><title>Node23</title>
<polygon fill="white" stroke="#bfbfbf" points="429.5,-58.5 429.5,-79.5 480.5,-79.5 480.5,-58.5 429.5,-58.5"/>
<text text-anchor="middle" x="455" y="-66.5" font-family="Helvetica,sans-Serif" font-size="10.00">typeinfo</text>
</g>
<!-- Node22&#45;&gt;Node23 -->
<g id="edge62" class="edge"><title>Node22&#45;&gt;Node23</title>
<path fill="none" stroke="midnightblue" d="M422.337,-116.362C427.806,-108.431 435.422,-97.3885 441.924,-87.9606"/>
<polygon fill="midnightblue" stroke="midnightblue" points="444.914,-89.7899 447.71,-79.5707 439.151,-85.8157 444.914,-89.7899"/>
</g>
<!-- Node24&#45;&gt;Node12 -->
<g id="edge104" class="edge"><title>Node24&#45;&gt;Node12</title>
<path fill="none" stroke="midnightblue" d="M468.071,-464.173C459.951,-455.308 449.529,-441.989 445,-428 441.988,-418.698 443.647,-415.684 445,-406 459.136,-304.848 508,-287.135 508,-185 508,-185 508,-185 508,-127 508,-95.1919 503.883,-86.1115 489,-58 483.377,-47.3793 475.004,-37.0435 467.369,-28.7814"/>
<polygon fill="midnightblue" stroke="midnightblue" points="469.853,-26.3159 460.389,-21.5539 464.818,-31.1786 469.853,-26.3159"/>
</g>
<!-- Node24&#45;&gt;Node19 -->
<g id="edge98" class="edge"><title>Node24&#45;&gt;Node19</title>
<path fill="none" stroke="midnightblue" d="M452.155,-464.454C417.987,-449.368 360.573,-418.029 337,-370 310.324,-315.648 324.017,-241.034 333.092,-205.466"/>
<polygon fill="midnightblue" stroke="midnightblue" points="336.489,-206.313 335.711,-195.747 329.73,-204.492 336.489,-206.313"/>
</g>
<!-- Node25 -->
<g id="node58" class="node"><title>Node25</title>
<a xlink:href="debug_8h.html" target="_top" xlink:title="debug.h">
<polygon fill="white" stroke="black" points="453.5,-406.5 453.5,-427.5 504.5,-427.5 504.5,-406.5 453.5,-406.5"/>
<text text-anchor="middle" x="479" y="-414.5" font-family="Helvetica,sans-Serif" font-size="10.00">debug.h</text>
</a>
</g>
<!-- Node24&#45;&gt;Node25 -->
<g id="edge66" class="edge"><title>Node24&#45;&gt;Node25</title>
<path fill="none" stroke="midnightblue" d="M479,-464.362C479,-456.922 479,-446.743 479,-437.728"/>
<polygon fill="midnightblue" stroke="midnightblue" points="482.5,-437.571 479,-427.571 475.5,-437.571 482.5,-437.571"/>
</g>
<!-- Node32 -->
<g id="node82" class="node"><title>Node32</title>
<polygon fill="white" stroke="#bfbfbf" points="584,-406.5 584,-427.5 640,-427.5 640,-406.5 584,-406.5"/>
<text text-anchor="middle" x="612" y="-414.5" font-family="Helvetica,sans-Serif" font-size="10.00">algorithm</text>
</g>
<!-- Node24&#45;&gt;Node32 -->
<g id="edge100" class="edge"><title>Node24&#45;&gt;Node32</title>
<path fill="none" stroke="midnightblue" d="M503.085,-464.497C524.139,-455.315 554.927,-441.889 578.402,-431.652"/>
<polygon fill="midnightblue" stroke="midnightblue" points="579.877,-434.827 587.644,-427.621 577.079,-428.41 579.877,-434.827"/>
</g>
<!-- Node33 -->
<g id="node84" class="node"><title>Node33</title>
<polygon fill="white" stroke="#bfbfbf" points="522,-406.5 522,-427.5 566,-427.5 566,-406.5 522,-406.5"/>
<text text-anchor="middle" x="544" y="-414.5" font-family="Helvetica,sans-Serif" font-size="10.00">vector</text>
</g>
<!-- Node24&#45;&gt;Node33 -->
<g id="edge102" class="edge"><title>Node24&#45;&gt;Node33</title>
<path fill="none" stroke="midnightblue" d="M490.922,-464.362C500.359,-455.941 513.73,-444.011 524.69,-434.231"/>
<polygon fill="midnightblue" stroke="midnightblue" points="527.022,-436.84 532.154,-427.571 522.362,-431.617 527.022,-436.84"/>
</g>
<!-- Node25&#45;&gt;Node6 -->
<g id="edge68" class="edge"><title>Node25&#45;&gt;Node6</title>
<path fill="none" stroke="midnightblue" d="M490.366,-406.355C509.481,-387.235 546,-344.955 546,-301 546,-301 546,-301 546,-127 546,-78.6612 694.698,-37.9737 770.57,-20.3593"/>
<polygon fill="midnightblue" stroke="midnightblue" points="771.361,-23.7689 780.329,-18.1277 769.8,-16.945 771.361,-23.7689"/>
</g>
<!-- Node25&#45;&gt;Node19 -->
<g id="edge70" class="edge"><title>Node25&#45;&gt;Node19</title>
<path fill="none" stroke="midnightblue" d="M472.621,-406.429C450.801,-370.271 378.94,-251.186 350.619,-204.255"/>
<polygon fill="midnightblue" stroke="midnightblue" points="353.58,-202.387 345.417,-195.634 347.587,-206.004 353.58,-202.387"/>
</g>
<!-- Node25&#45;&gt;Node26 -->
<g id="edge72" class="edge"><title>Node25&#45;&gt;Node26</title>
<path fill="none" stroke="midnightblue" d="M504.871,-408.173C507.599,-407.38 510.346,-406.637 513,-406 602.254,-384.588 709.095,-370.318 766.546,-363.549"/>
<polygon fill="midnightblue" stroke="midnightblue" points="767.153,-367.002 776.683,-362.372 766.346,-360.049 767.153,-367.002"/>
</g>
<!-- Node26&#45;&gt;Node6 -->
<g id="edge74" class="edge"><title>Node26&#45;&gt;Node6</title>
<path fill="none" stroke="midnightblue" d="M820.715,-348.16C830.435,-339.29 843.56,-325.967 852,-312 868.793,-284.211 876,-275.469 876,-243 876,-243 876,-243 876,-127 876,-88.6979 849.383,-50.7886 831.029,-29.2006"/>
<polygon fill="midnightblue" stroke="midnightblue" points="833.479,-26.6868 824.238,-21.5037 828.229,-31.318 833.479,-26.6868"/>
</g>
<!-- Node27 -->
<g id="node65" class="node"><title>Node27</title>
<a xlink:href="fixedstring_8h.html" target="_top" xlink:title="fixedstring.h">
<polygon fill="white" stroke="black" points="773,-290.5 773,-311.5 843,-311.5 843,-290.5 773,-290.5"/>
<text text-anchor="middle" x="808" y="-298.5" font-family="Helvetica,sans-Serif" font-size="10.00">fixedstring.h</text>
</a>
</g>
<!-- Node26&#45;&gt;Node27 -->
<g id="edge76" class="edge"><title>Node26&#45;&gt;Node27</title>
<path fill="none" stroke="midnightblue" d="M808,-348.362C808,-340.922 808,-330.743 808,-321.728"/>
<polygon fill="midnightblue" stroke="midnightblue" points="811.5,-321.571 808,-311.571 804.5,-321.571 811.5,-321.571"/>
</g>
<!-- Node29 -->
<g id="node72" class="node"><title>Node29</title>
<a xlink:href="string2_8h.html" target="_top" xlink:title="string2.h">
<polygon fill="white" stroke="black" points="641,-290.5 641,-311.5 695,-311.5 695,-290.5 641,-290.5"/>
<text text-anchor="middle" x="668" y="-298.5" font-family="Helvetica,sans-Serif" font-size="10.00">string2.h</text>
</a>
</g>
<!-- Node26&#45;&gt;Node29 -->
<g id="edge86" class="edge"><title>Node26&#45;&gt;Node29</title>
<path fill="none" stroke="midnightblue" d="M782.647,-348.497C760.387,-339.275 727.788,-325.769 703.037,-315.515"/>
<polygon fill="midnightblue" stroke="midnightblue" points="704.216,-312.215 693.637,-311.621 701.536,-318.682 704.216,-312.215"/>
</g>
<!-- Node27&#45;&gt;Node6 -->
<g id="edge78" class="edge"><title>Node27&#45;&gt;Node6</title>
<path fill="none" stroke="midnightblue" d="M812.688,-290.364C821.125,-270.219 838,-224.939 838,-185 838,-185 838,-185 838,-127 838,-92.9128 827.939,-54.338 820.845,-31.3763"/>
<polygon fill="midnightblue" stroke="midnightblue" points="824.136,-30.1755 817.75,-21.7215 817.47,-32.3126 824.136,-30.1755"/>
</g>
<!-- Node28 -->
<g id="node68" class="node"><title>Node28</title>
<a xlink:href="odstring_8h.html" target="_top" xlink:title="odstring.h">
<polygon fill="white" stroke="black" points="751.5,-232.5 751.5,-253.5 810.5,-253.5 810.5,-232.5 751.5,-232.5"/>
<text text-anchor="middle" x="781" y="-240.5" font-family="Helvetica,sans-Serif" font-size="10.00">odstring.h</text>
</a>
</g>
<!-- Node27&#45;&gt;Node28 -->
<g id="edge80" class="edge"><title>Node27&#45;&gt;Node28</title>
<path fill="none" stroke="midnightblue" d="M803.048,-290.362C799.47,-282.677 794.532,-272.069 790.236,-262.84"/>
<polygon fill="midnightblue" stroke="midnightblue" points="793.314,-261.159 785.921,-253.571 786.968,-264.114 793.314,-261.159"/>
</g>
<!-- Node28&#45;&gt;Node6 -->
<g id="edge82" class="edge"><title>Node28&#45;&gt;Node6</title>
<path fill="none" stroke="midnightblue" d="M782.504,-232.429C787.593,-196.648 804.233,-79.6628 811.049,-31.7481"/>
<polygon fill="midnightblue" stroke="midnightblue" points="814.544,-32.0268 812.487,-21.6335 807.614,-31.0409 814.544,-32.0268"/>
</g>
<!-- Node28&#45;&gt;Node19 -->
<g id="edge84" class="edge"><title>Node28&#45;&gt;Node19</title>
<path fill="none" stroke="midnightblue" d="M751.42,-238.606C737.364,-236.547 720.323,-234.093 705,-232 586.607,-215.831 446.442,-198.273 379.082,-189.934"/>
<polygon fill="midnightblue" stroke="midnightblue" points="379.264,-186.43 368.91,-188.676 378.405,-193.377 379.264,-186.43"/>
</g>
<!-- Node29&#45;&gt;Node6 -->
<g id="edge88" class="edge"><title>Node29&#45;&gt;Node6</title>
<path fill="none" stroke="midnightblue" d="M678.499,-290.288C686.786,-281.283 698.069,-267.718 705,-254 719.343,-225.609 724,-216.808 724,-185 724,-185 724,-185 724,-127 724,-84.2194 762.684,-47.674 789.329,-27.5762"/>
<polygon fill="midnightblue" stroke="midnightblue" points="791.462,-30.3528 797.493,-21.6418 787.346,-24.6907 791.462,-30.3528"/>
</g>
<!-- Node29&#45;&gt;Node10 -->
<g id="edge92" class="edge"><title>Node29&#45;&gt;Node10</title>
<path fill="none" stroke="midnightblue" d="M640.797,-292.415C618.903,-284.645 588.084,-271.703 565,-254 501.872,-205.588 517.221,-160.088 451,-116 419.636,-95.1185 378.639,-83.22 346.686,-76.6216"/>
<polygon fill="midnightblue" stroke="midnightblue" points="347.139,-73.144 336.653,-74.6609 345.796,-80.0141 347.139,-73.144"/>
</g>
<!-- Node29&#45;&gt;Node14 -->
<g id="edge90" class="edge"><title>Node29&#45;&gt;Node14</title>
<path fill="none" stroke="midnightblue" d="M640.984,-292.12C614.651,-283.239 573.628,-268.806 539,-254 465.165,-222.431 449.461,-208.606 377,-174 342.547,-157.546 332.339,-156.609 299,-138 269.863,-121.737 238.146,-100.07 217.497,-85.3872"/>
<polygon fill="midnightblue" stroke="midnightblue" points="219.532,-82.5394 209.365,-79.5581 215.454,-88.2288 219.532,-82.5394"/>
</g>
<!-- Node30 -->
<g id="node77" class="node"><title>Node30</title>
<polygon fill="white" stroke="#bfbfbf" points="573.5,-232.5 573.5,-253.5 622.5,-253.5 622.5,-232.5 573.5,-232.5"/>
<text text-anchor="middle" x="598" y="-240.5" font-family="Helvetica,sans-Serif" font-size="10.00">ctype.h</text>
</g>
<!-- Node29&#45;&gt;Node30 -->
<g id="edge94" class="edge"><title>Node29&#45;&gt;Node30</title>
<path fill="none" stroke="midnightblue" d="M655.161,-290.362C644.998,-281.941 630.599,-270.011 618.796,-260.231"/>
<polygon fill="midnightblue" stroke="midnightblue" points="620.691,-257.256 610.758,-253.571 616.225,-262.646 620.691,-257.256"/>
</g>
<!-- Node31 -->
<g id="node79" class="node"><title>Node31</title>
<polygon fill="white" stroke="#bfbfbf" points="640,-232.5 640,-253.5 696,-253.5 696,-232.5 640,-232.5"/>
<text text-anchor="middle" x="668" y="-240.5" font-family="Helvetica,sans-Serif" font-size="10.00">wctype.h</text>
</g>
<!-- Node29&#45;&gt;Node31 -->
<g id="edge96" class="edge"><title>Node29&#45;&gt;Node31</title>
<path fill="none" stroke="midnightblue" d="M668,-290.362C668,-282.922 668,-272.743 668,-263.728"/>
<polygon fill="midnightblue" stroke="midnightblue" points="671.5,-263.571 668,-253.571 664.5,-263.571 671.5,-263.571"/>
</g>
<!-- Node34&#45;&gt;Node17 -->
<g id="edge114" class="edge"><title>Node34&#45;&gt;Node17</title>
<path fill="none" stroke="midnightblue" d="M479,-580.362C479,-572.922 479,-562.743 479,-553.728"/>
<polygon fill="midnightblue" stroke="midnightblue" points="482.5,-553.571 479,-543.571 475.5,-553.571 482.5,-553.571"/>
</g>
<!-- Node35 -->
<g id="node89" class="node"><title>Node35</title>
<a xlink:href="typeset_8h.html" target="_top" xlink:title="typeset.h">
<polygon fill="white" stroke="black" points="372.5,-522.5 372.5,-543.5 429.5,-543.5 429.5,-522.5 372.5,-522.5"/>
<text text-anchor="middle" x="401" y="-530.5" font-family="Helvetica,sans-Serif" font-size="10.00">typeset.h</text>
</a>
</g>
<!-- Node34&#45;&gt;Node35 -->
<g id="edge108" class="edge"><title>Node34&#45;&gt;Node35</title>
<path fill="none" stroke="midnightblue" d="M464.694,-580.362C453.149,-571.777 436.7,-559.546 423.41,-549.664"/>
<polygon fill="midnightblue" stroke="midnightblue" points="425.329,-546.729 415.216,-543.571 421.152,-552.346 425.329,-546.729"/>
</g>
<!-- Node35&#45;&gt;Node18 -->
<g id="edge110" class="edge"><title>Node35&#45;&gt;Node18</title>
<path fill="none" stroke="midnightblue" d="M400.083,-522.362C399.442,-514.922 398.564,-504.743 397.787,-495.728"/>
<polygon fill="midnightblue" stroke="midnightblue" points="401.257,-495.233 396.911,-485.571 394.283,-495.834 401.257,-495.233"/>
</g>
<!-- Node35&#45;&gt;Node24 -->
<g id="edge112" class="edge"><title>Node35&#45;&gt;Node24</title>
<path fill="none" stroke="midnightblue" d="M415.306,-522.362C426.851,-513.777 443.3,-501.546 456.59,-491.664"/>
<polygon fill="midnightblue" stroke="midnightblue" points="458.848,-494.346 464.784,-485.571 454.671,-488.729 458.848,-494.346"/>
</g>
<!-- Node36&#45;&gt;Node6 -->
<g id="edge118" class="edge"><title>Node36&#45;&gt;Node6</title>
<path fill="none" stroke="midnightblue" d="M148.023,-118.057C151.054,-117.34 154.078,-116.644 157,-116 240.077,-97.6762 265.29,-109.73 345,-80 363.285,-73.1802 364.455,-64.0778 383,-58 454.269,-34.6424 675.751,-19.1694 770.397,-13.4595"/>
<polygon fill="midnightblue" stroke="midnightblue" points="770.718,-16.9467 780.492,-12.8586 770.302,-9.95903 770.718,-16.9467"/>
</g>
<!-- Node36&#45;&gt;Node10 -->
<g id="edge120" class="edge"><title>Node36&#45;&gt;Node10</title>
<path fill="none" stroke="midnightblue" d="M146.14,-116.497C176.103,-107 220.396,-92.9619 253.062,-82.6087"/>
<polygon fill="midnightblue" stroke="midnightblue" points="254.323,-85.8809 262.798,-79.5231 252.208,-79.208 254.323,-85.8809"/>
</g>
<!-- Node36&#45;&gt;Node14 -->
<g id="edge122" class="edge"><title>Node36&#45;&gt;Node14</title>
<path fill="none" stroke="midnightblue" d="M128.04,-116.362C140.293,-107.696 157.799,-95.3126 171.839,-85.3819"/>
<polygon fill="midnightblue" stroke="midnightblue" points="173.912,-88.2028 180.055,-79.5707 169.87,-82.4879 173.912,-88.2028"/>
</g>
<!-- Node37&#45;&gt;Node19 -->
<g id="edge128" class="edge"><title>Node37&#45;&gt;Node19</title>
<path fill="none" stroke="midnightblue" d="M373.555,-580.38C321.816,-559.497 215,-511.915 215,-475 215,-475 215,-475 215,-301 215,-252.29 266.659,-218.134 303.29,-200.037"/>
<polygon fill="midnightblue" stroke="midnightblue" points="305.168,-203.019 312.703,-195.571 302.168,-196.695 305.168,-203.019"/>
</g>
<!-- Node37&#45;&gt;Node29 -->
<g id="edge138" class="edge"><title>Node37&#45;&gt;Node29</title>
<path fill="none" stroke="midnightblue" d="M429.069,-581.942C497.62,-559.419 668,-500.839 668,-475 668,-475 668,-475 668,-417 668,-383.598 668,-344.785 668,-321.594"/>
<polygon fill="midnightblue" stroke="midnightblue" points="671.5,-321.556 668,-311.556 664.5,-321.556 671.5,-321.556"/>
</g>
<!-- Node37&#45;&gt;Node35 -->
<g id="edge140" class="edge"><title>Node37&#45;&gt;Node35</title>
<path fill="none" stroke="midnightblue" d="M401,-580.362C401,-572.922 401,-562.743 401,-553.728"/>
<polygon fill="midnightblue" stroke="midnightblue" points="404.5,-553.571 401,-543.571 397.5,-553.571 404.5,-553.571"/>
</g>
<!-- Node37&#45;&gt;Node36 -->
<g id="edge136" class="edge"><title>Node37&#45;&gt;Node36</title>
<path fill="none" stroke="midnightblue" d="M372.988,-582.585C333.837,-570.723 266.36,-549.872 256,-544 215.445,-521.011 177,-521.618 177,-475 177,-475 177,-475 177,-243 177,-204.453 149.572,-166.662 130.627,-145.157"/>
<polygon fill="midnightblue" stroke="midnightblue" points="133.185,-142.768 123.857,-137.745 128.017,-147.489 133.185,-142.768"/>
</g>
<!-- Node38 -->
<g id="node103" class="node"><title>Node38</title>
<a xlink:href="keystrs_8h.html" target="_top" xlink:title="keystrs.h">
<polygon fill="white" stroke="black" points="345.5,-348.5 345.5,-369.5 402.5,-369.5 402.5,-348.5 345.5,-348.5"/>
<text text-anchor="middle" x="374" y="-356.5" font-family="Helvetica,sans-Serif" font-size="10.00">keystrs.h</text>
</a>
</g>
<!-- Node37&#45;&gt;Node38 -->
<g id="edge130" class="edge"><title>Node37&#45;&gt;Node38</title>
<path fill="none" stroke="midnightblue" d="M389.194,-580.336C380.405,-571.562 369.086,-558.283 364,-544 343.847,-487.402 358.426,-414.908 367.783,-379.846"/>
<polygon fill="midnightblue" stroke="midnightblue" points="371.257,-380.418 370.586,-369.845 364.517,-378.529 371.257,-380.418"/>
</g>
<!-- Node38&#45;&gt;Node19 -->
<g id="edge132" class="edge"><title>Node38&#45;&gt;Node19</title>
<path fill="none" stroke="midnightblue" d="M371.863,-348.377C366.214,-320.293 350.802,-243.673 343.265,-206.203"/>
<polygon fill="midnightblue" stroke="midnightblue" points="346.601,-205.041 341.198,-195.928 339.739,-206.422 346.601,-205.041"/>
</g>
<!-- Node38&#45;&gt;Node27 -->
<g id="edge134" class="edge"><title>Node38&#45;&gt;Node27</title>
<path fill="none" stroke="midnightblue" d="M402.812,-355.15C476.749,-345.269 673.637,-318.956 762.892,-307.028"/>
<polygon fill="midnightblue" stroke="midnightblue" points="763.525,-310.475 772.973,-305.681 762.598,-303.537 763.525,-310.475"/>
</g>
<!-- Node39&#45;&gt;Node6 -->
<g id="edge144" class="edge"><title>Node39&#45;&gt;Node6</title>
<path fill="none" stroke="midnightblue" d="M995.105,-464.191C1005.85,-444.127 1027,-399.477 1027,-359 1027,-359 1027,-359 1027,-127 1027,-50.6166 920.05,-24.2385 857.719,-15.3514"/>
<polygon fill="midnightblue" stroke="midnightblue" points="858.125,-11.8746 847.75,-14.0242 857.201,-18.8134 858.125,-11.8746"/>
</g>
<!-- Node39&#45;&gt;Node27 -->
<g id="edge154" class="edge"><title>Node39&#45;&gt;Node27</title>
<path fill="none" stroke="midnightblue" d="M988.379,-464.165C987.057,-449.639 982.923,-423.641 970,-406 938.092,-362.441 882.187,-332.123 845.125,-315.631"/>
<polygon fill="midnightblue" stroke="midnightblue" points="846.239,-312.3 835.671,-311.542 843.459,-318.724 846.239,-312.3"/>
</g>
<!-- Node39&#45;&gt;Node29 -->
<g id="edge152" class="edge"><title>Node39&#45;&gt;Node29</title>
<path fill="none" stroke="midnightblue" d="M962.059,-466.184C936.765,-457.564 898.116,-443.502 866,-428 820.42,-405.999 810.632,-397.277 768,-370 741.07,-352.77 710.974,-331.755 690.901,-317.477"/>
<polygon fill="midnightblue" stroke="midnightblue" points="692.864,-314.577 682.692,-311.615 688.796,-320.274 692.864,-314.577"/>
</g>
<!-- Node40 -->
<g id="node113" class="node"><title>Node40</title>
<a xlink:href="compoundkey_8h.html" target="_top" xlink:title="compoundkey.h">
<polygon fill="white" stroke="black" points="875,-406.5 875,-427.5 961,-427.5 961,-406.5 875,-406.5"/>
<text text-anchor="middle" x="918" y="-414.5" font-family="Helvetica,sans-Serif" font-size="10.00">compoundkey.h</text>
</a>
</g>
<!-- Node39&#45;&gt;Node40 -->
<g id="edge146" class="edge"><title>Node39&#45;&gt;Node40</title>
<path fill="none" stroke="midnightblue" d="M975.978,-464.362C965.569,-455.859 950.781,-443.779 938.745,-433.947"/>
<polygon fill="midnightblue" stroke="midnightblue" points="940.899,-431.187 930.94,-427.571 936.47,-436.608 940.899,-431.187"/>
</g>
<!-- Node40&#45;&gt;Node6 -->
<g id="edge148" class="edge"><title>Node40&#45;&gt;Node6</title>
<path fill="none" stroke="midnightblue" d="M921.639,-406.151C930.41,-379 952,-305.79 952,-243 952,-243 952,-243 952,-127 952,-94.5312 950.303,-81.5961 928,-58 909.343,-38.2612 881.177,-26.5433 857.511,-19.7443"/>
<polygon fill="midnightblue" stroke="midnightblue" points="858.249,-16.3188 847.685,-17.1226 856.445,-23.0822 858.249,-16.3188"/>
</g>
<!-- Node40&#45;&gt;Node26 -->
<g id="edge150" class="edge"><title>Node40&#45;&gt;Node26</title>
<path fill="none" stroke="midnightblue" d="M898.08,-406.497C881.054,-397.519 856.331,-384.484 837.091,-374.339"/>
<polygon fill="midnightblue" stroke="midnightblue" points="838.622,-371.189 828.144,-369.621 835.357,-377.381 838.622,-371.189"/>
</g>
<!-- Node42 -->
<g id="node121" class="node"><title>Node42</title>
<polygon fill="white" stroke="#bfbfbf" points="1205,-638.5 1205,-659.5 1261,-659.5 1261,-638.5 1205,-638.5"/>
<text text-anchor="middle" x="1233" y="-646.5" font-family="Helvetica,sans-Serif" font-size="10.00">nlamod.h</text>
</g>
<!-- Node41&#45;&gt;Node42 -->
<g id="edge158" class="edge"><title>Node41&#45;&gt;Node42</title>
<path fill="none" stroke="midnightblue" d="M1215.86,-754.337C1225.79,-745.753 1238.38,-732.722 1244,-718 1250,-702.286 1246.27,-683.353 1241.6,-669.297"/>
<polygon fill="midnightblue" stroke="midnightblue" points="1244.76,-667.773 1237.98,-659.633 1238.21,-670.226 1244.76,-667.773"/>
</g>
<!-- Node43 -->
<g id="node123" class="node"><title>Node43</title>
<a xlink:href="nladesign_8h.html" target="_top" xlink:title="nladesign.h">
<polygon fill="white" stroke="black" points="1169,-696.5 1169,-717.5 1235,-717.5 1235,-696.5 1169,-696.5"/>
<text text-anchor="middle" x="1202" y="-704.5" font-family="Helvetica,sans-Serif" font-size="10.00">nladesign.h</text>
</a>
</g>
<!-- Node41&#45;&gt;Node43 -->
<g id="edge160" class="edge"><title>Node41&#45;&gt;Node43</title>
<path fill="none" stroke="midnightblue" d="M1202,-754.362C1202,-746.922 1202,-736.743 1202,-727.728"/>
<polygon fill="midnightblue" stroke="midnightblue" points="1205.5,-727.571 1202,-717.571 1198.5,-727.571 1205.5,-727.571"/>
</g>
<!-- Node43&#45;&gt;Node42 -->
<g id="edge162" class="edge"><title>Node43&#45;&gt;Node42</title>
<path fill="none" stroke="midnightblue" d="M1207.69,-696.362C1211.84,-688.595 1217.58,-677.843 1222.55,-668.546"/>
<polygon fill="midnightblue" stroke="midnightblue" points="1225.72,-670.04 1227.35,-659.571 1219.55,-666.74 1225.72,-670.04"/>
</g>
<!-- Node43&#45;&gt;Node44 -->
<g id="edge164" class="edge"><title>Node43&#45;&gt;Node44</title>
<path fill="none" stroke="midnightblue" d="M1179,-696.497C1158.99,-687.356 1129.76,-674.008 1107.38,-663.788"/>
<polygon fill="midnightblue" stroke="midnightblue" points="1108.81,-660.592 1098.26,-659.621 1105.9,-666.959 1108.81,-660.592"/>
</g>
<!-- Node44&#45;&gt;Node6 -->
<g id="edge166" class="edge"><title>Node44&#45;&gt;Node6</title>
<path fill="none" stroke="midnightblue" d="M1079.38,-638.333C1087.25,-618.139 1103,-572.777 1103,-533 1103,-533 1103,-533 1103,-127 1103,-94.5312 1103.71,-79.0606 1079,-58 1046.34,-30.1664 924.132,-18.0784 857.684,-13.4698"/>
<polygon fill="midnightblue" stroke="midnightblue" points="857.731,-9.96525 847.521,-12.7931 857.266,-16.9498 857.731,-9.96525"/>
</g>
<!-- Node44&#45;&gt;Node26 -->
<g id="edge168" class="edge"><title>Node44&#45;&gt;Node26</title>
<path fill="none" stroke="midnightblue" d="M1036.89,-640.747C963.337,-623.714 809,-582.121 809,-533 809,-533 809,-533 809,-475 809,-441.597 808.58,-402.784 808.285,-379.593"/>
<polygon fill="midnightblue" stroke="midnightblue" points="811.784,-379.509 808.152,-369.556 804.785,-379.601 811.784,-379.509"/>
</g>
<!-- Node45 -->
<g id="node130" class="node"><title>Node45</title>
<a xlink:href="manobjectset_8h.html" target="_top" xlink:title="manobjectset.h">
<polygon fill="white" stroke="black" points="698.5,-580.5 698.5,-601.5 781.5,-601.5 781.5,-580.5 698.5,-580.5"/>
<text text-anchor="middle" x="740" y="-588.5" font-family="Helvetica,sans-Serif" font-size="10.00">manobjectset.h</text>
</a>
</g>
<!-- Node44&#45;&gt;Node45 -->
<g id="edge170" class="edge"><title>Node44&#45;&gt;Node45</title>
<path fill="none" stroke="midnightblue" d="M1036.89,-642.988C982.953,-634.392 881.292,-617.868 795,-602 793.923,-601.802 792.834,-601.6 791.736,-601.395"/>
<polygon fill="midnightblue" stroke="midnightblue" points="792.194,-597.919 781.716,-599.485 790.884,-604.795 792.194,-597.919"/>
</g>
<!-- Node45&#45;&gt;Node17 -->
<g id="edge172" class="edge"><title>Node45&#45;&gt;Node17</title>
<path fill="none" stroke="midnightblue" d="M698.355,-581.746C649.984,-570.997 570.597,-553.355 521.757,-542.501"/>
<polygon fill="midnightblue" stroke="midnightblue" points="522.342,-539.046 511.82,-540.293 520.823,-545.879 522.342,-539.046"/>
</g>
</g>
</svg>
