<?xml version="1.0" encoding="UTF-8" standalone="no"?>
<!DOCTYPE svg PUBLIC "-//W3C//DTD SVG 1.1//EN"
 "http://www.w3.org/Graphics/SVG/1.1/DTD/svg11.dtd">
<!-- Generated by graphviz version 2.26.0 (20091210.2329)
 -->
<!-- Title: uiobjfileman.h Pages: 1 -->
<svg width="1233pt" height="146pt"
 viewBox="0.00 0.00 1233.00 146.00" xmlns="http://www.w3.org/2000/svg" xmlns:xlink="http://www.w3.org/1999/xlink">
<g id="graph1" class="graph" transform="scale(1 1) rotate(0) translate(4 142)">
<title>uiobjfileman.h</title>
<polygon fill="white" stroke="white" points="-4,5 -4,-142 1230,-142 1230,5 -4,5"/>
<!-- Node1 -->
<g id="node1" class="node"><title>Node1</title>
<polygon fill="#bfbfbf" stroke="black" points="615.5,-116.5 615.5,-137.5 692.5,-137.5 692.5,-116.5 615.5,-116.5"/>
<text text-anchor="middle" x="654" y="-124.5" font-family="Helvetica,sans-Serif" font-size="10.00">uiobjfileman.h</text>
</g>
<!-- Node2 -->
<g id="node3" class="node"><title>Node2</title>
<a xlink:href="ui2dgeomman_8h.html" target="_top" xlink:title="ui2dgeomman.h">
<polygon fill="white" stroke="black" points="0,-58.5 0,-79.5 86,-79.5 86,-58.5 0,-58.5"/>
<text text-anchor="middle" x="43" y="-66.5" font-family="Helvetica,sans-Serif" font-size="10.00">ui2dgeomman.h</text>
</a>
</g>
<!-- Node1&#45;&gt;Node2 -->
<g id="edge2" class="edge"><title>Node1&#45;&gt;Node2</title>
<path fill="none" stroke="midnightblue" d="M605.037,-124.937C507.527,-120.376 282.325,-107.579 95,-80 92.0787,-79.5699 89.0752,-79.0755 86.0557,-78.5395"/>
<polygon fill="midnightblue" stroke="midnightblue" points="605.029,-128.44 615.18,-125.403 605.351,-121.447 605.029,-128.44"/>
</g>
<!-- Node3 -->
<g id="node5" class="node"><title>Node3</title>
<a xlink:href="uidatapointsetman_8h.html" target="_top" xlink:title="uidatapointsetman.h">
<polygon fill="white" stroke="black" points="104,-58.5 104,-79.5 208,-79.5 208,-58.5 104,-58.5"/>
<text text-anchor="middle" x="156" y="-66.5" font-family="Helvetica,sans-Serif" font-size="10.00">uidatapointsetman.h</text>
</a>
</g>
<!-- Node1&#45;&gt;Node3 -->
<g id="edge4" class="edge"><title>Node1&#45;&gt;Node3</title>
<path fill="none" stroke="midnightblue" d="M604.92,-122.871C523.913,-115.799 357.231,-100.159 217,-80 214.124,-79.5866 211.176,-79.138 208.204,-78.6663"/>
<polygon fill="midnightblue" stroke="midnightblue" points="605.038,-126.394 615.303,-123.771 605.642,-119.42 605.038,-126.394"/>
</g>
<!-- Node4 -->
<g id="node7" class="node"><title>Node4</title>
<a xlink:href="uipicksetman_8h.html" target="_top" xlink:title="uipicksetman.h">
<polygon fill="white" stroke="black" points="225.5,-58.5 225.5,-79.5 308.5,-79.5 308.5,-58.5 225.5,-58.5"/>
<text text-anchor="middle" x="267" y="-66.5" font-family="Helvetica,sans-Serif" font-size="10.00">uipicksetman.h</text>
</a>
</g>
<!-- Node1&#45;&gt;Node4 -->
<g id="edge6" class="edge"><title>Node1&#45;&gt;Node4</title>
<path fill="none" stroke="midnightblue" d="M605.377,-121.427C539.702,-113.624 419.105,-98.3228 317,-80 314.288,-79.5133 311.5,-78.9832 308.693,-78.4273"/>
<polygon fill="midnightblue" stroke="midnightblue" points="605.094,-124.917 615.435,-122.614 605.914,-117.966 605.094,-124.917"/>
</g>
<!-- Node5 -->
<g id="node9" class="node"><title>Node5</title>
<a xlink:href="uiprobdenfuncman_8h.html" target="_top" xlink:title="uiprobdenfuncman.h">
<polygon fill="white" stroke="black" points="326,-58.5 326,-79.5 430,-79.5 430,-58.5 326,-58.5"/>
<text text-anchor="middle" x="378" y="-66.5" font-family="Helvetica,sans-Serif" font-size="10.00">uiprobdenfuncman.h</text>
</a>
</g>
<!-- Node1&#45;&gt;Node5 -->
<g id="edge8" class="edge"><title>Node1&#45;&gt;Node5</title>
<path fill="none" stroke="midnightblue" d="M605.442,-116.796C555.617,-106.325 478.463,-90.1118 428.088,-79.5257"/>
<polygon fill="midnightblue" stroke="midnightblue" points="604.827,-120.243 615.333,-118.874 606.266,-113.392 604.827,-120.243"/>
</g>
<!-- Node6 -->
<g id="node11" class="node"><title>Node6</title>
<a xlink:href="uirandomlineman_8h.html" target="_top" xlink:title="uirandomlineman.h">
<polygon fill="white" stroke="black" points="448,-58.5 448,-79.5 546,-79.5 546,-58.5 448,-58.5"/>
<text text-anchor="middle" x="497" y="-66.5" font-family="Helvetica,sans-Serif" font-size="10.00">uirandomlineman.h</text>
</a>
</g>
<!-- Node1&#45;&gt;Node6 -->
<g id="edge10" class="edge"><title>Node1&#45;&gt;Node6</title>
<path fill="none" stroke="midnightblue" d="M616.129,-113.009C588.229,-102.702 550.875,-88.903 525.485,-79.5231"/>
<polygon fill="midnightblue" stroke="midnightblue" points="614.975,-116.314 625.568,-116.497 617.401,-109.748 614.975,-116.314"/>
</g>
<!-- Node7 -->
<g id="node13" class="node"><title>Node7</title>
<a xlink:href="uiseisfileman_8h.html" target="_top" xlink:title="uiseisfileman.h">
<polygon fill="white" stroke="black" points="564,-58.5 564,-79.5 646,-79.5 646,-58.5 564,-58.5"/>
<text text-anchor="middle" x="605" y="-66.5" font-family="Helvetica,sans-Serif" font-size="10.00">uiseisfileman.h</text>
</a>
</g>
<!-- Node1&#45;&gt;Node7 -->
<g id="edge12" class="edge"><title>Node1&#45;&gt;Node7</title>
<path fill="none" stroke="midnightblue" d="M638.405,-108.541C630.327,-98.9786 620.753,-87.6467 613.93,-79.5707"/>
<polygon fill="midnightblue" stroke="midnightblue" points="635.885,-110.982 645.013,-116.362 641.233,-106.464 635.885,-110.982"/>
</g>
<!-- Node8 -->
<g id="node15" class="node"><title>Node8</title>
<a xlink:href="uiseispsman_8h.html" target="_top" xlink:title="uiseispsman.h">
<polygon fill="white" stroke="black" points="664,-58.5 664,-79.5 744,-79.5 744,-58.5 664,-58.5"/>
<text text-anchor="middle" x="704" y="-66.5" font-family="Helvetica,sans-Serif" font-size="10.00">uiseispsman.h</text>
</a>
</g>
<!-- Node1&#45;&gt;Node8 -->
<g id="edge14" class="edge"><title>Node1&#45;&gt;Node8</title>
<path fill="none" stroke="midnightblue" d="M669.913,-108.541C678.156,-98.9786 687.925,-87.6467 694.887,-79.5707"/>
<polygon fill="midnightblue" stroke="midnightblue" points="667.049,-106.502 663.171,-116.362 672.351,-111.073 667.049,-106.502"/>
</g>
<!-- Node9 -->
<g id="node17" class="node"><title>Node9</title>
<a xlink:href="uiseiswvltman_8h.html" target="_top" xlink:title="uiseiswvltman.h">
<polygon fill="white" stroke="black" points="761.5,-58.5 761.5,-79.5 848.5,-79.5 848.5,-58.5 761.5,-58.5"/>
<text text-anchor="middle" x="805" y="-66.5" font-family="Helvetica,sans-Serif" font-size="10.00">uiseiswvltman.h</text>
</a>
</g>
<!-- Node1&#45;&gt;Node9 -->
<g id="edge16" class="edge"><title>Node1&#45;&gt;Node9</title>
<path fill="none" stroke="midnightblue" d="M690.776,-112.874C717.571,-102.582 753.29,-88.862 777.604,-79.5231"/>
<polygon fill="midnightblue" stroke="midnightblue" points="689.425,-109.644 681.345,-116.497 691.935,-116.178 689.425,-109.644"/>
</g>
<!-- Node10 -->
<g id="node19" class="node"><title>Node10</title>
<a xlink:href="uisurfaceman_8h.html" target="_top" xlink:title="uisurfaceman.h">
<polygon fill="white" stroke="black" points="865.5,-58.5 865.5,-79.5 948.5,-79.5 948.5,-58.5 865.5,-58.5"/>
<text text-anchor="middle" x="907" y="-66.5" font-family="Helvetica,sans-Serif" font-size="10.00">uisurfaceman.h</text>
</a>
</g>
<!-- Node1&#45;&gt;Node10 -->
<g id="edge18" class="edge"><title>Node1&#45;&gt;Node10</title>
<path fill="none" stroke="midnightblue" d="M702.688,-115.838C749.884,-105.019 820.707,-88.7826 865.357,-78.5467"/>
<polygon fill="midnightblue" stroke="midnightblue" points="701.666,-112.482 692.701,-118.128 703.23,-119.305 701.666,-112.482"/>
</g>
<!-- Node11 -->
<g id="node21" class="node"><title>Node11</title>
<a xlink:href="uiwellman_8h.html" target="_top" xlink:title="uiwellman.h">
<polygon fill="white" stroke="black" points="966,-58.5 966,-79.5 1034,-79.5 1034,-58.5 966,-58.5"/>
<text text-anchor="middle" x="1000" y="-66.5" font-family="Helvetica,sans-Serif" font-size="10.00">uiwellman.h</text>
</a>
</g>
<!-- Node1&#45;&gt;Node11 -->
<g id="edge20" class="edge"><title>Node1&#45;&gt;Node11</title>
<path fill="none" stroke="midnightblue" d="M702.928,-120.89C763.046,-113.044 868.019,-98.2382 957,-80 959.869,-79.4121 962.833,-78.7563 965.801,-78.0658"/>
<polygon fill="midnightblue" stroke="midnightblue" points="702.425,-117.426 692.957,-122.182 703.324,-124.368 702.425,-117.426"/>
</g>
<!-- Node12 -->
<g id="node23" class="node"><title>Node12</title>
<a xlink:href="uiattrsetman_8h.html" target="_top" xlink:title="uiattrsetman.h">
<polygon fill="white" stroke="black" points="1051.5,-58.5 1051.5,-79.5 1130.5,-79.5 1130.5,-58.5 1051.5,-58.5"/>
<text text-anchor="middle" x="1091" y="-66.5" font-family="Helvetica,sans-Serif" font-size="10.00">uiattrsetman.h</text>
</a>
</g>
<!-- Node1&#45;&gt;Node12 -->
<g id="edge22" class="edge"><title>Node1&#45;&gt;Node12</title>
<path fill="none" stroke="midnightblue" d="M702.962,-122.749C776.942,-115.951 921.483,-101.204 1043,-80 1045.7,-79.5297 1048.47,-79.0051 1051.25,-78.4472"/>
<polygon fill="midnightblue" stroke="midnightblue" points="702.212,-119.303 692.57,-123.694 702.846,-126.274 702.212,-119.303"/>
</g>
<!-- Node13 -->
<g id="node25" class="node"><title>Node13</title>
<a xlink:href="odsession_8h.html" target="_top" xlink:title="odsession.h">
<polygon fill="white" stroke="black" points="1147.5,-58.5 1147.5,-79.5 1216.5,-79.5 1216.5,-58.5 1147.5,-58.5"/>
<text text-anchor="middle" x="1182" y="-66.5" font-family="Helvetica,sans-Serif" font-size="10.00">odsession.h</text>
</a>
</g>
<!-- Node1&#45;&gt;Node13 -->
<g id="edge24" class="edge"><title>Node1&#45;&gt;Node13</title>
<path fill="none" stroke="midnightblue" d="M702.817,-124.757C790.639,-120.171 980.861,-107.72 1139,-80 1141.73,-79.521 1144.55,-78.9593 1147.37,-78.3474"/>
<polygon fill="midnightblue" stroke="midnightblue" points="702.432,-121.272 692.623,-125.278 702.789,-128.263 702.432,-121.272"/>
</g>
<!-- Node14 -->
<g id="node27" class="node"><title>Node14</title>
<a xlink:href="odsessionfact_8h.html" target="_top" xlink:title="odsessionfact.h">
<polygon fill="white" stroke="black" points="1139,-0.5 1139,-21.5 1225,-21.5 1225,-0.5 1139,-0.5"/>
<text text-anchor="middle" x="1182" y="-8.5" font-family="Helvetica,sans-Serif" font-size="10.00">odsessionfact.h</text>
</a>
</g>
<!-- Node13&#45;&gt;Node14 -->
<g id="edge26" class="edge"><title>Node13&#45;&gt;Node14</title>
<path fill="none" stroke="midnightblue" d="M1182,-48.1906C1182,-39.1684 1182,-28.9941 1182,-21.5707"/>
<polygon fill="midnightblue" stroke="midnightblue" points="1178.5,-48.3619 1182,-58.3619 1185.5,-48.3619 1178.5,-48.3619"/>
</g>
</g>
</svg>
