<?xml version="1.0" encoding="UTF-8" standalone="no"?>
<!DOCTYPE svg PUBLIC "-//W3C//DTD SVG 1.1//EN"
 "http://www.w3.org/Graphics/SVG/1.1/DTD/svg11.dtd">
<!-- Generated by graphviz version 2.26.0 (20091210.2329)
 -->
<!-- Title: uiselsimple.h Pages: 1 -->
<svg width="182pt" height="88pt"
 viewBox="0.00 0.00 182.00 88.00" xmlns="http://www.w3.org/2000/svg" xmlns:xlink="http://www.w3.org/1999/xlink">
<g id="graph1" class="graph" transform="scale(1 1) rotate(0) translate(4 84)">
<title>uiselsimple.h</title>
<polygon fill="white" stroke="white" points="-4,5 -4,-84 179,-84 179,5 -4,5"/>
<!-- Node1 -->
<g id="node1" class="node"><title>Node1</title>
<polygon fill="#bfbfbf" stroke="black" points="55,-58.5 55,-79.5 129,-79.5 129,-58.5 55,-58.5"/>
<text text-anchor="middle" x="92" y="-66.5" font-family="Helvetica,sans-Serif" font-size="10.00">uiselsimple.h</text>
</g>
<!-- Node2 -->
<g id="node3" class="node"><title>Node2</title>
<a xlink:href="uihorgeom2attr_8h.html" target="_top" xlink:title="uihorgeom2attr.h">
<polygon fill="white" stroke="black" points="-0.5,-0.5 -0.5,-21.5 88.5,-21.5 88.5,-0.5 -0.5,-0.5"/>
<text text-anchor="middle" x="44" y="-8.5" font-family="Helvetica,sans-Serif" font-size="10.00">uihorgeom2attr.h</text>
</a>
</g>
<!-- Node1&#45;&gt;Node2 -->
<g id="edge2" class="edge"><title>Node1&#45;&gt;Node2</title>
<path fill="none" stroke="midnightblue" d="M76.7233,-50.5407C68.8098,-40.9786 59.4317,-29.6467 52.7481,-21.5707"/>
<polygon fill="midnightblue" stroke="midnightblue" points="74.124,-52.8894 83.1961,-58.3619 79.5167,-48.4264 74.124,-52.8894"/>
</g>
<!-- Node3 -->
<g id="node5" class="node"><title>Node3</title>
<a xlink:href="uiwelldlgs_8h.html" target="_top" xlink:title="uiwelldlgs.h">
<polygon fill="white" stroke="black" points="106,-0.5 106,-21.5 174,-21.5 174,-0.5 106,-0.5"/>
<text text-anchor="middle" x="140" y="-8.5" font-family="Helvetica,sans-Serif" font-size="10.00">uiwelldlgs.h</text>
</a>
</g>
<!-- Node1&#45;&gt;Node3 -->
<g id="edge4" class="edge"><title>Node1&#45;&gt;Node3</title>
<path fill="none" stroke="midnightblue" d="M107.277,-50.5407C115.19,-40.9786 124.568,-29.6467 131.252,-21.5707"/>
<polygon fill="midnightblue" stroke="midnightblue" points="104.483,-48.4264 100.804,-58.3619 109.876,-52.8894 104.483,-48.4264"/>
</g>
</g>
</svg>
