<?xml version="1.0" encoding="UTF-8" standalone="no"?>
<!DOCTYPE svg PUBLIC "-//W3C//DTD SVG 1.1//EN"
 "http://www.w3.org/Graphics/SVG/1.1/DTD/svg11.dtd">
<!-- Generated by graphviz version 2.26.0 (20091210.2329)
 -->
<!-- Title: uistrings.h Pages: 1 -->
<svg width="3563pt" height="204pt"
 viewBox="0.00 0.00 3563.00 204.00" xmlns="http://www.w3.org/2000/svg" xmlns:xlink="http://www.w3.org/1999/xlink">
<g id="graph1" class="graph" transform="scale(1 1) rotate(0) translate(4 200)">
<title>uistrings.h</title>
<polygon fill="white" stroke="white" points="-4,5 -4,-200 3560,-200 3560,5 -4,5"/>
<!-- Node1 -->
<g id="node1" class="node"><title>Node1</title>
<polygon fill="#bfbfbf" stroke="black" points="2162,-174.5 2162,-195.5 2224,-195.5 2224,-174.5 2162,-174.5"/>
<text text-anchor="middle" x="2193" y="-182.5" font-family="Helvetica,sans-Serif" font-size="10.00">uistrings.h</text>
</g>
<!-- Node2 -->
<g id="node3" class="node"><title>Node2</title>
<a xlink:href="arrayndalgo_8h.html" target="_top" xlink:title="arrayndalgo.h">
<polygon fill="white" stroke="black" points="422.5,-116.5 422.5,-137.5 497.5,-137.5 497.5,-116.5 422.5,-116.5"/>
<text text-anchor="middle" x="460" y="-124.5" font-family="Helvetica,sans-Serif" font-size="10.00">arrayndalgo.h</text>
</a>
</g>
<!-- Node1&#45;&gt;Node2 -->
<g id="edge2" class="edge"><title>Node1&#45;&gt;Node2</title>
<path fill="none" stroke="midnightblue" d="M2151.76,-184.259C1930.69,-180.218 884.091,-160.211 561,-138 540.06,-136.56 516.763,-134.082 497.826,-131.842"/>
<polygon fill="midnightblue" stroke="midnightblue" points="2151.88,-187.762 2161.95,-184.444 2152.01,-180.763 2151.88,-187.762"/>
</g>
<!-- Node12 -->
<g id="node23" class="node"><title>Node12</title>
<a xlink:href="linsolv_8h.html" target="_top" xlink:title="linsolv.h">
<polygon fill="white" stroke="black" points="156.5,-116.5 156.5,-137.5 209.5,-137.5 209.5,-116.5 156.5,-116.5"/>
<text text-anchor="middle" x="183" y="-124.5" font-family="Helvetica,sans-Serif" font-size="10.00">linsolv.h</text>
</a>
</g>
<!-- Node1&#45;&gt;Node12 -->
<g id="edge22" class="edge"><title>Node1&#45;&gt;Node12</title>
<path fill="none" stroke="midnightblue" d="M2151.9,-184.236C1957.3,-180.55 1109.02,-163.726 414,-138 339.975,-135.26 252.666,-130.756 209.67,-128.454"/>
<polygon fill="midnightblue" stroke="midnightblue" points="2151.91,-187.737 2161.97,-184.426 2152.04,-180.738 2151.91,-187.737"/>
</g>
<!-- Node13 -->
<g id="node26" class="node"><title>Node13</title>
<a xlink:href="datainpspec_8h.html" target="_top" xlink:title="datainpspec.h">
<polygon fill="white" stroke="black" points="1344.5,-116.5 1344.5,-137.5 1421.5,-137.5 1421.5,-116.5 1344.5,-116.5"/>
<text text-anchor="middle" x="1383" y="-124.5" font-family="Helvetica,sans-Serif" font-size="10.00">datainpspec.h</text>
</a>
</g>
<!-- Node1&#45;&gt;Node13 -->
<g id="edge26" class="edge"><title>Node1&#45;&gt;Node13</title>
<path fill="none" stroke="midnightblue" d="M2151.7,-183.375C2013.98,-177.812 1571.25,-158.729 1430,-138 1427.26,-137.598 1424.45,-137.118 1421.63,-136.585"/>
<polygon fill="midnightblue" stroke="midnightblue" points="2151.7,-186.878 2161.83,-183.782 2151.98,-179.883 2151.7,-186.878"/>
</g>
<!-- Node21 -->
<g id="node43" class="node"><title>Node21</title>
<a xlink:href="elasticpropsel_8h.html" target="_top" xlink:title="elasticpropsel.h">
<polygon fill="white" stroke="black" points="1438.5,-116.5 1438.5,-137.5 1523.5,-137.5 1523.5,-116.5 1438.5,-116.5"/>
<text text-anchor="middle" x="1481" y="-124.5" font-family="Helvetica,sans-Serif" font-size="10.00">elasticpropsel.h</text>
</a>
</g>
<!-- Node1&#45;&gt;Node21 -->
<g id="edge44" class="edge"><title>Node1&#45;&gt;Node21</title>
<path fill="none" stroke="midnightblue" d="M2151.75,-184.092C2047.45,-181.359 1764.89,-171.225 1532,-138 1529.31,-137.616 1526.55,-137.171 1523.77,-136.685"/>
<polygon fill="midnightblue" stroke="midnightblue" points="2151.78,-187.594 2161.86,-184.348 2151.95,-180.596 2151.78,-187.594"/>
</g>
<!-- Node25 -->
<g id="node51" class="node"><title>Node25</title>
<a xlink:href="picksetfact_8h.html" target="_top" xlink:title="picksetfact.h">
<polygon fill="white" stroke="black" points="1624.5,-116.5 1624.5,-137.5 1697.5,-137.5 1697.5,-116.5 1624.5,-116.5"/>
<text text-anchor="middle" x="1661" y="-124.5" font-family="Helvetica,sans-Serif" font-size="10.00">picksetfact.h</text>
</a>
</g>
<!-- Node1&#45;&gt;Node25 -->
<g id="edge52" class="edge"><title>Node1&#45;&gt;Node25</title>
<path fill="none" stroke="midnightblue" d="M2151.55,-183.01C2067.18,-178.519 1869.63,-165.748 1706,-138 1703.3,-137.543 1700.53,-137.013 1697.75,-136.438"/>
<polygon fill="midnightblue" stroke="midnightblue" points="2151.58,-186.516 2161.74,-183.542 2151.94,-179.526 2151.58,-186.516"/>
</g>
<!-- Node26 -->
<g id="node53" class="node"><title>Node26</title>
<a xlink:href="randomlinefact_8h.html" target="_top" xlink:title="randomlinefact.h">
<polygon fill="white" stroke="black" points="1714.5,-116.5 1714.5,-137.5 1803.5,-137.5 1803.5,-116.5 1714.5,-116.5"/>
<text text-anchor="middle" x="1759" y="-124.5" font-family="Helvetica,sans-Serif" font-size="10.00">randomlinefact.h</text>
</a>
</g>
<!-- Node1&#45;&gt;Node26 -->
<g id="edge54" class="edge"><title>Node1&#45;&gt;Node26</title>
<path fill="none" stroke="midnightblue" d="M2151.58,-181.013C2081.43,-174.011 1934.9,-158.3 1812,-138 1809.31,-137.556 1806.55,-137.071 1803.77,-136.561"/>
<polygon fill="midnightblue" stroke="midnightblue" points="2151.47,-184.519 2161.76,-182.022 2152.16,-177.553 2151.47,-184.519"/>
</g>
<!-- Node27 -->
<g id="node55" class="node"><title>Node27</title>
<a xlink:href="wellextractdata_8h.html" target="_top" xlink:title="wellextractdata.h">
<polygon fill="white" stroke="black" points="724.5,-116.5 724.5,-137.5 815.5,-137.5 815.5,-116.5 724.5,-116.5"/>
<text text-anchor="middle" x="770" y="-124.5" font-family="Helvetica,sans-Serif" font-size="10.00">wellextractdata.h</text>
</a>
</g>
<!-- Node1&#45;&gt;Node27 -->
<g id="edge56" class="edge"><title>Node1&#45;&gt;Node27</title>
<path fill="none" stroke="midnightblue" d="M2151.88,-183.324C1946.32,-174.945 1031.36,-137.653 815.661,-128.861"/>
<polygon fill="midnightblue" stroke="midnightblue" points="2151.82,-186.824 2161.96,-183.735 2152.11,-179.83 2151.82,-186.824"/>
</g>
<!-- Node30 -->
<g id="node62" class="node"><title>Node30</title>
<a xlink:href="wellreadaccess_8h.html" target="_top" xlink:title="wellreadaccess.h">
<polygon fill="white" stroke="red" points="1821,-116.5 1821,-137.5 1913,-137.5 1913,-116.5 1821,-116.5"/>
<text text-anchor="middle" x="1867" y="-124.5" font-family="Helvetica,sans-Serif" font-size="10.00">wellreadaccess.h</text>
</a>
</g>
<!-- Node1&#45;&gt;Node30 -->
<g id="edge64" class="edge"><title>Node1&#45;&gt;Node30</title>
<path fill="none" stroke="midnightblue" d="M2151.59,-178.158C2098.38,-169.288 2003.19,-153.157 1922,-138 1919.13,-137.464 1916.17,-136.902 1913.2,-136.329"/>
<polygon fill="midnightblue" stroke="midnightblue" points="2151.22,-181.644 2161.66,-179.833 2152.37,-174.739 2151.22,-181.644"/>
</g>
<!-- Node31 -->
<g id="node64" class="node"><title>Node31</title>
<a xlink:href="seispsfact_8h.html" target="_top" xlink:title="seispsfact.h">
<polygon fill="white" stroke="black" points="1931,-116.5 1931,-137.5 2001,-137.5 2001,-116.5 1931,-116.5"/>
<text text-anchor="middle" x="1966" y="-124.5" font-family="Helvetica,sans-Serif" font-size="10.00">seispsfact.h</text>
</a>
</g>
<!-- Node1&#45;&gt;Node31 -->
<g id="edge66" class="edge"><title>Node1&#45;&gt;Node31</title>
<path fill="none" stroke="midnightblue" d="M2152.04,-174.535C2108.98,-163.532 2041.93,-146.401 2001.18,-135.988"/>
<polygon fill="midnightblue" stroke="midnightblue" points="2151.36,-177.972 2161.91,-177.057 2153.09,-171.19 2151.36,-177.972"/>
</g>
<!-- Node32 -->
<g id="node66" class="node"><title>Node32</title>
<a xlink:href="seissingtrcproc_8h.html" target="_top" xlink:title="seissingtrcproc.h">
<polygon fill="white" stroke="black" points="2018.5,-116.5 2018.5,-137.5 2109.5,-137.5 2109.5,-116.5 2018.5,-116.5"/>
<text text-anchor="middle" x="2064" y="-124.5" font-family="Helvetica,sans-Serif" font-size="10.00">seissingtrcproc.h</text>
</a>
</g>
<!-- Node1&#45;&gt;Node32 -->
<g id="edge68" class="edge"><title>Node1&#45;&gt;Node32</title>
<path fill="none" stroke="midnightblue" d="M2160.4,-170.343C2137.73,-160.15 2108.03,-146.798 2087.62,-137.621"/>
<polygon fill="midnightblue" stroke="midnightblue" points="2159.08,-173.588 2169.64,-174.497 2161.95,-167.204 2159.08,-173.588"/>
</g>
<!-- Node33 -->
<g id="node68" class="node"><title>Node33</title>
<a xlink:href="synthseis_8h.html" target="_top" xlink:title="synthseis.h">
<polygon fill="white" stroke="black" points="1540.5,-116.5 1540.5,-137.5 1607.5,-137.5 1607.5,-116.5 1540.5,-116.5"/>
<text text-anchor="middle" x="1574" y="-124.5" font-family="Helvetica,sans-Serif" font-size="10.00">synthseis.h</text>
</a>
</g>
<!-- Node1&#45;&gt;Node33 -->
<g id="edge70" class="edge"><title>Node1&#45;&gt;Node33</title>
<path fill="none" stroke="midnightblue" d="M2151.73,-184.111C2056.61,-181.523 1814.88,-171.875 1616,-138 1613.32,-137.544 1610.57,-136.999 1607.82,-136.399"/>
<polygon fill="midnightblue" stroke="midnightblue" points="2151.71,-187.611 2161.8,-184.373 2151.9,-180.614 2151.71,-187.611"/>
</g>
<!-- Node34 -->
<g id="node71" class="node"><title>Node34</title>
<a xlink:href="attrfact_8h.html" target="_top" xlink:title="attrfact.h">
<polygon fill="white" stroke="black" points="2127,-116.5 2127,-137.5 2183,-137.5 2183,-116.5 2127,-116.5"/>
<text text-anchor="middle" x="2155" y="-124.5" font-family="Helvetica,sans-Serif" font-size="10.00">attrfact.h</text>
</a>
</g>
<!-- Node1&#45;&gt;Node34 -->
<g id="edge74" class="edge"><title>Node1&#45;&gt;Node34</title>
<path fill="none" stroke="midnightblue" d="M2180.52,-165.959C2174.34,-156.522 2167.11,-145.484 2161.93,-137.571"/>
<polygon fill="midnightblue" stroke="midnightblue" points="2177.62,-167.915 2186.03,-174.362 2183.48,-164.079 2177.62,-167.915"/>
</g>
<!-- Node35 -->
<g id="node73" class="node"><title>Node35</title>
<a xlink:href="volprocstep_8h.html" target="_top" xlink:title="volprocstep.h">
<polygon fill="white" stroke="red" points="569.5,-116.5 569.5,-137.5 644.5,-137.5 644.5,-116.5 569.5,-116.5"/>
<text text-anchor="middle" x="607" y="-124.5" font-family="Helvetica,sans-Serif" font-size="10.00">volprocstep.h</text>
</a>
</g>
<!-- Node1&#45;&gt;Node35 -->
<g id="edge76" class="edge"><title>Node1&#45;&gt;Node35</title>
<path fill="none" stroke="midnightblue" d="M2151.75,-184.726C1977.46,-183.349 1284.21,-175.667 716,-138 692.183,-136.421 665.521,-133.747 644.529,-131.43"/>
<polygon fill="midnightblue" stroke="midnightblue" points="2151.75,-188.226 2161.78,-184.803 2151.81,-181.226 2151.75,-188.226"/>
</g>
<!-- Node36 -->
<g id="node76" class="node"><title>Node36</title>
<a xlink:href="uidialog_8h.html" target="_top" xlink:title="uidialog.h">
<polygon fill="white" stroke="red" points="1114,-116.5 1114,-137.5 1172,-137.5 1172,-116.5 1114,-116.5"/>
<text text-anchor="middle" x="1143" y="-124.5" font-family="Helvetica,sans-Serif" font-size="10.00">uidialog.h</text>
</a>
</g>
<!-- Node1&#45;&gt;Node36 -->
<g id="edge80" class="edge"><title>Node1&#45;&gt;Node36</title>
<path fill="none" stroke="midnightblue" d="M2151.71,-182.767C2028.03,-176.072 1649.7,-155.542 1336,-138 1277.86,-134.749 1209.88,-130.852 1172.1,-128.678"/>
<polygon fill="midnightblue" stroke="midnightblue" points="2151.69,-186.271 2161.87,-183.317 2152.07,-179.281 2151.69,-186.271"/>
</g>
<!-- Node37 -->
<g id="node82" class="node"><title>Node37</title>
<a xlink:href="uilistbox_8h.html" target="_top" xlink:title="uilistbox.h">
<polygon fill="white" stroke="red" points="2200.5,-116.5 2200.5,-137.5 2261.5,-137.5 2261.5,-116.5 2200.5,-116.5"/>
<text text-anchor="middle" x="2231" y="-124.5" font-family="Helvetica,sans-Serif" font-size="10.00">uilistbox.h</text>
</a>
</g>
<!-- Node1&#45;&gt;Node37 -->
<g id="edge90" class="edge"><title>Node1&#45;&gt;Node37</title>
<path fill="none" stroke="midnightblue" d="M2205.48,-165.959C2211.66,-156.522 2218.89,-145.484 2224.07,-137.571"/>
<polygon fill="midnightblue" stroke="midnightblue" points="2202.52,-164.079 2199.97,-174.362 2208.38,-167.915 2202.52,-164.079"/>
</g>
<!-- Node38 -->
<g id="node84" class="node"><title>Node38</title>
<a xlink:href="uitoolbutton_8h.html" target="_top" xlink:title="uitoolbutton.h">
<polygon fill="white" stroke="red" points="2278.5,-116.5 2278.5,-137.5 2353.5,-137.5 2353.5,-116.5 2278.5,-116.5"/>
<text text-anchor="middle" x="2316" y="-124.5" font-family="Helvetica,sans-Serif" font-size="10.00">uitoolbutton.h</text>
</a>
</g>
<!-- Node1&#45;&gt;Node38 -->
<g id="edge92" class="edge"><title>Node1&#45;&gt;Node38</title>
<path fill="none" stroke="midnightblue" d="M2224.37,-170.206C2245.95,-160.031 2274.1,-146.757 2293.48,-137.621"/>
<polygon fill="midnightblue" stroke="midnightblue" points="2222.83,-167.066 2215.27,-174.497 2225.81,-173.397 2222.83,-167.066"/>
</g>
<!-- Node39 -->
<g id="node86" class="node"><title>Node39</title>
<a xlink:href="uicompoundparsel_8h.html" target="_top" xlink:title="uicompoundparsel.h">
<polygon fill="white" stroke="red" points="2371,-116.5 2371,-137.5 2475,-137.5 2475,-116.5 2371,-116.5"/>
<text text-anchor="middle" x="2423" y="-124.5" font-family="Helvetica,sans-Serif" font-size="10.00">uicompoundparsel.h</text>
</a>
</g>
<!-- Node1&#45;&gt;Node39 -->
<g id="edge94" class="edge"><title>Node1&#45;&gt;Node39</title>
<path fill="none" stroke="midnightblue" d="M2233.8,-174.711C2275.31,-164.243 2339.33,-148.1 2381.2,-137.542"/>
<polygon fill="midnightblue" stroke="midnightblue" points="2232.86,-171.339 2224.02,-177.178 2234.57,-178.126 2232.86,-171.339"/>
</g>
<!-- Node40 -->
<g id="node88" class="node"><title>Node40</title>
<a xlink:href="uiinterpollayermodel_8h.html" target="_top" xlink:title="uiinterpollayermodel.h">
<polygon fill="white" stroke="black" points="2492.5,-116.5 2492.5,-137.5 2603.5,-137.5 2603.5,-116.5 2492.5,-116.5"/>
<text text-anchor="middle" x="2548" y="-124.5" font-family="Helvetica,sans-Serif" font-size="10.00">uiinterpollayermodel.h</text>
</a>
</g>
<!-- Node1&#45;&gt;Node40 -->
<g id="edge96" class="edge"><title>Node1&#45;&gt;Node40</title>
<path fill="none" stroke="midnightblue" d="M2233.97,-178.516C2290.32,-169.568 2394.9,-152.852 2484,-138 2486.67,-137.555 2489.4,-137.097 2492.16,-136.632"/>
<polygon fill="midnightblue" stroke="midnightblue" points="2233.35,-175.07 2224.03,-180.094 2234.45,-181.984 2233.35,-175.07"/>
</g>
<!-- Node41 -->
<g id="node90" class="node"><title>Node41</title>
<a xlink:href="uiiosel_8h.html" target="_top" xlink:title="uiiosel.h">
<polygon fill="white" stroke="red" points="2620.5,-116.5 2620.5,-137.5 2673.5,-137.5 2673.5,-116.5 2620.5,-116.5"/>
<text text-anchor="middle" x="2647" y="-124.5" font-family="Helvetica,sans-Serif" font-size="10.00">uiiosel.h</text>
</a>
</g>
<!-- Node1&#45;&gt;Node41 -->
<g id="edge98" class="edge"><title>Node1&#45;&gt;Node41</title>
<path fill="none" stroke="midnightblue" d="M2234.13,-183.021C2309.68,-178.804 2475.37,-166.852 2612,-138 2614.74,-137.421 2617.58,-136.716 2620.39,-135.946"/>
<polygon fill="midnightblue" stroke="midnightblue" points="2233.87,-179.529 2224.08,-183.565 2234.25,-186.519 2233.87,-179.529"/>
</g>
<!-- Node42 -->
<g id="node92" class="node"><title>Node42</title>
<a xlink:href="uimathexpression_8h.html" target="_top" xlink:title="uimathexpression.h">
<polygon fill="white" stroke="black" points="2690.5,-116.5 2690.5,-137.5 2791.5,-137.5 2791.5,-116.5 2690.5,-116.5"/>
<text text-anchor="middle" x="2741" y="-124.5" font-family="Helvetica,sans-Serif" font-size="10.00">uimathexpression.h</text>
</a>
</g>
<!-- Node1&#45;&gt;Node42 -->
<g id="edge100" class="edge"><title>Node1&#45;&gt;Node42</title>
<path fill="none" stroke="midnightblue" d="M2234.19,-182.278C2318.51,-176.434 2516.78,-161.295 2682,-138 2684.68,-137.622 2687.43,-137.207 2690.2,-136.767"/>
<polygon fill="midnightblue" stroke="midnightblue" points="2233.74,-178.8 2224.01,-182.977 2234.22,-185.784 2233.74,-178.8"/>
</g>
<!-- Node43 -->
<g id="node94" class="node"><title>Node43</title>
<a xlink:href="uiscaler_8h.html" target="_top" xlink:title="uiscaler.h">
<polygon fill="white" stroke="black" points="2808.5,-116.5 2808.5,-137.5 2867.5,-137.5 2867.5,-116.5 2808.5,-116.5"/>
<text text-anchor="middle" x="2838" y="-124.5" font-family="Helvetica,sans-Serif" font-size="10.00">uiscaler.h</text>
</a>
</g>
<!-- Node1&#45;&gt;Node43 -->
<g id="edge102" class="edge"><title>Node1&#45;&gt;Node43</title>
<path fill="none" stroke="midnightblue" d="M2234.32,-182.905C2352.57,-176.733 2690.85,-157.809 2800,-138 2802.7,-137.509 2805.49,-136.904 2808.27,-136.231"/>
<polygon fill="midnightblue" stroke="midnightblue" points="2234.03,-179.415 2224.23,-183.428 2234.39,-186.406 2234.03,-179.415"/>
</g>
<!-- Node44 -->
<g id="node96" class="node"><title>Node44</title>
<a xlink:href="uisellinest_8h.html" target="_top" xlink:title="uisellinest.h">
<polygon fill="white" stroke="black" points="2885,-116.5 2885,-137.5 2953,-137.5 2953,-116.5 2885,-116.5"/>
<text text-anchor="middle" x="2919" y="-124.5" font-family="Helvetica,sans-Serif" font-size="10.00">uisellinest.h</text>
</a>
</g>
<!-- Node1&#45;&gt;Node44 -->
<g id="edge104" class="edge"><title>Node1&#45;&gt;Node44</title>
<path fill="none" stroke="midnightblue" d="M2234.17,-183.151C2362.04,-177.252 2751.16,-158.092 2876,-138 2878.89,-137.535 2881.87,-136.965 2884.85,-136.333"/>
<polygon fill="midnightblue" stroke="midnightblue" points="2233.85,-179.662 2224.02,-183.616 2234.17,-186.654 2233.85,-179.662"/>
</g>
<!-- Node45 -->
<g id="node98" class="node"><title>Node45</title>
<a xlink:href="uistepoutsel_8h.html" target="_top" xlink:title="uistepoutsel.h">
<polygon fill="white" stroke="black" points="2970.5,-116.5 2970.5,-137.5 3047.5,-137.5 3047.5,-116.5 2970.5,-116.5"/>
<text text-anchor="middle" x="3009" y="-124.5" font-family="Helvetica,sans-Serif" font-size="10.00">uistepoutsel.h</text>
</a>
</g>
<!-- Node1&#45;&gt;Node45 -->
<g id="edge106" class="edge"><title>Node1&#45;&gt;Node45</title>
<path fill="none" stroke="midnightblue" d="M2234.63,-183.385C2373.42,-177.853 2819.64,-158.858 2962,-138 2964.74,-137.599 2967.55,-137.119 2970.37,-136.586"/>
<polygon fill="midnightblue" stroke="midnightblue" points="2234.27,-179.896 2224.42,-183.789 2234.55,-186.89 2234.27,-179.896"/>
</g>
<!-- Node46 -->
<g id="node100" class="node"><title>Node46</title>
<a xlink:href="uiunitsel_8h.html" target="_top" xlink:title="uiunitsel.h">
<polygon fill="white" stroke="black" points="3064.5,-116.5 3064.5,-137.5 3125.5,-137.5 3125.5,-116.5 3064.5,-116.5"/>
<text text-anchor="middle" x="3095" y="-124.5" font-family="Helvetica,sans-Serif" font-size="10.00">uiunitsel.h</text>
</a>
</g>
<!-- Node1&#45;&gt;Node46 -->
<g id="edge108" class="edge"><title>Node1&#45;&gt;Node46</title>
<path fill="none" stroke="midnightblue" d="M2234.2,-183.96C2383.35,-180.01 2894.83,-164.781 3056,-138 3058.78,-137.539 3061.64,-136.953 3064.49,-136.293"/>
<polygon fill="midnightblue" stroke="midnightblue" points="2234,-180.464 2224.1,-184.225 2234.18,-187.462 2234,-180.464"/>
</g>
<!-- Node47 -->
<g id="node102" class="node"><title>Node47</title>
<a xlink:href="uimathformula_8h.html" target="_top" xlink:title="uimathformula.h">
<polygon fill="white" stroke="black" points="3143,-116.5 3143,-137.5 3229,-137.5 3229,-116.5 3143,-116.5"/>
<text text-anchor="middle" x="3186" y="-124.5" font-family="Helvetica,sans-Serif" font-size="10.00">uimathformula.h</text>
</a>
</g>
<!-- Node1&#45;&gt;Node47 -->
<g id="edge110" class="edge"><title>Node1&#45;&gt;Node47</title>
<path fill="none" stroke="midnightblue" d="M2234.69,-183.798C2392.91,-179.101 2956.21,-161.097 3134,-138 3136.93,-137.62 3139.94,-137.162 3142.96,-136.654"/>
<polygon fill="midnightblue" stroke="midnightblue" points="2234.33,-180.307 2224.44,-184.101 2234.54,-187.304 2234.33,-180.307"/>
</g>
<!-- Node48 -->
<g id="node104" class="node"><title>Node48</title>
<a xlink:href="uiwelldispprop_8h.html" target="_top" xlink:title="uiwelldispprop.h">
<polygon fill="white" stroke="black" points="3247,-116.5 3247,-137.5 3333,-137.5 3333,-116.5 3247,-116.5"/>
<text text-anchor="middle" x="3290" y="-124.5" font-family="Helvetica,sans-Serif" font-size="10.00">uiwelldispprop.h</text>
</a>
</g>
<!-- Node1&#45;&gt;Node48 -->
<g id="edge112" class="edge"><title>Node1&#45;&gt;Node48</title>
<path fill="none" stroke="midnightblue" d="M2234.51,-184.041C2403.31,-179.999 3038.7,-163.388 3238,-138 3240.93,-137.627 3243.94,-137.175 3246.96,-136.67"/>
<polygon fill="midnightblue" stroke="midnightblue" points="2234.22,-180.547 2224.3,-184.283 2234.38,-187.545 2234.22,-180.547"/>
</g>
<!-- Node49 -->
<g id="node106" class="node"><title>Node49</title>
<a xlink:href="odsessionfact_8h.html" target="_top" xlink:title="odsessionfact.h">
<polygon fill="white" stroke="black" points="3351,-116.5 3351,-137.5 3437,-137.5 3437,-116.5 3351,-116.5"/>
<text text-anchor="middle" x="3394" y="-124.5" font-family="Helvetica,sans-Serif" font-size="10.00">odsessionfact.h</text>
</a>
</g>
<!-- Node1&#45;&gt;Node49 -->
<g id="edge114" class="edge"><title>Node1&#45;&gt;Node49</title>
<path fill="none" stroke="midnightblue" d="M2234.21,-184.241C2412.83,-180.808 3121.07,-165.688 3342,-138 3344.93,-137.633 3347.94,-137.186 3350.96,-136.684"/>
<polygon fill="midnightblue" stroke="midnightblue" points="2234.1,-180.742 2224.17,-184.432 2234.24,-187.741 2234.1,-180.742"/>
</g>
<!-- Node50 -->
<g id="node108" class="node"><title>Node50</title>
<a xlink:href="uiodvw2dtreeitem_8h.html" target="_top" xlink:title="uiodvw2dtreeitem.h">
<polygon fill="white" stroke="red" points="3454.5,-116.5 3454.5,-137.5 3555.5,-137.5 3555.5,-116.5 3454.5,-116.5"/>
<text text-anchor="middle" x="3505" y="-124.5" font-family="Helvetica,sans-Serif" font-size="10.00">uiodvw2dtreeitem.h</text>
</a>
</g>
<!-- Node1&#45;&gt;Node50 -->
<g id="edge116" class="edge"><title>Node1&#45;&gt;Node50</title>
<path fill="none" stroke="midnightblue" d="M2234.2,-184.269C2422.58,-180.802 3203.14,-165.046 3446,-138 3448.69,-137.7 3451.45,-137.348 3454.22,-136.957"/>
<polygon fill="midnightblue" stroke="midnightblue" points="2234.09,-180.77 2224.16,-184.452 2234.22,-187.769 2234.09,-180.77"/>
</g>
<!-- Node3 -->
<g id="node5" class="node"><title>Node3</title>
<a xlink:href="array2dinterpol_8h.html" target="_top" xlink:title="array2dinterpol.h">
<polygon fill="white" stroke="red" points="289.5,-58.5 289.5,-79.5 378.5,-79.5 378.5,-58.5 289.5,-58.5"/>
<text text-anchor="middle" x="334" y="-66.5" font-family="Helvetica,sans-Serif" font-size="10.00">array2dinterpol.h</text>
</a>
</g>
<!-- Node2&#45;&gt;Node3 -->
<g id="edge4" class="edge"><title>Node2&#45;&gt;Node3</title>
<path fill="none" stroke="midnightblue" d="M427.862,-112.206C405.757,-102.031 376.92,-88.7567 357.074,-79.6212"/>
<polygon fill="midnightblue" stroke="midnightblue" points="426.635,-115.494 437.182,-116.497 429.562,-109.136 426.635,-115.494"/>
</g>
<!-- Node4 -->
<g id="node7" class="node"><title>Node4</title>
<a xlink:href="fftfilter_8h.html" target="_top" xlink:title="fftfilter.h">
<polygon fill="white" stroke="red" points="395.5,-58.5 395.5,-79.5 448.5,-79.5 448.5,-58.5 395.5,-58.5"/>
<text text-anchor="middle" x="422" y="-66.5" font-family="Helvetica,sans-Serif" font-size="10.00">fftfilter.h</text>
</a>
</g>
<!-- Node2&#45;&gt;Node4 -->
<g id="edge6" class="edge"><title>Node2&#45;&gt;Node4</title>
<path fill="none" stroke="midnightblue" d="M447.525,-107.959C441.342,-98.522 434.11,-87.4835 428.926,-79.5707"/>
<polygon fill="midnightblue" stroke="midnightblue" points="444.622,-109.915 453.03,-116.362 450.478,-106.079 444.622,-109.915"/>
</g>
<!-- Node5 -->
<g id="node9" class="node"><title>Node5</title>
<a xlink:href="gridder2d_8h.html" target="_top" xlink:title="gridder2d.h">
<polygon fill="white" stroke="black" points="465.5,-58.5 465.5,-79.5 530.5,-79.5 530.5,-58.5 465.5,-58.5"/>
<text text-anchor="middle" x="498" y="-66.5" font-family="Helvetica,sans-Serif" font-size="10.00">gridder2d.h</text>
</a>
</g>
<!-- Node2&#45;&gt;Node5 -->
<g id="edge8" class="edge"><title>Node2&#45;&gt;Node5</title>
<path fill="none" stroke="midnightblue" d="M472.475,-107.959C478.658,-98.522 485.89,-87.4835 491.074,-79.5707"/>
<polygon fill="midnightblue" stroke="midnightblue" points="469.522,-106.079 466.97,-116.362 475.378,-109.915 469.522,-106.079"/>
</g>
<!-- Node6 -->
<g id="node11" class="node"><title>Node6</title>
<a xlink:href="polynd_8h.html" target="_top" xlink:title="polynd.h">
<polygon fill="white" stroke="black" points="-0.5,-58.5 -0.5,-79.5 52.5,-79.5 52.5,-58.5 -0.5,-58.5"/>
<text text-anchor="middle" x="26" y="-66.5" font-family="Helvetica,sans-Serif" font-size="10.00">polynd.h</text>
</a>
</g>
<!-- Node2&#45;&gt;Node6 -->
<g id="edge10" class="edge"><title>Node2&#45;&gt;Node6</title>
<path fill="none" stroke="midnightblue" d="M412.376,-124.282C337.081,-119.339 186.233,-106.808 61,-80 58.2595,-79.4134 55.4272,-78.7034 52.6155,-77.9299"/>
<polygon fill="midnightblue" stroke="midnightblue" points="412.285,-127.783 422.488,-124.93 412.732,-120.797 412.285,-127.783"/>
</g>
<!-- Node7 -->
<g id="node13" class="node"><title>Node7</title>
<a xlink:href="wellloginterpolator_8h.html" target="_top" xlink:title="wellloginterpolator.h">
<polygon fill="white" stroke="red" points="547.5,-58.5 547.5,-79.5 650.5,-79.5 650.5,-58.5 547.5,-58.5"/>
<text text-anchor="middle" x="599" y="-66.5" font-family="Helvetica,sans-Serif" font-size="10.00">wellloginterpolator.h</text>
</a>
</g>
<!-- Node2&#45;&gt;Node7 -->
<g id="edge12" class="edge"><title>Node2&#45;&gt;Node7</title>
<path fill="none" stroke="midnightblue" d="M494.474,-112.615C518.982,-102.389 551.358,-88.8796 573.546,-79.6212"/>
<polygon fill="midnightblue" stroke="midnightblue" points="493.053,-109.416 485.172,-116.497 495.748,-115.876 493.053,-109.416"/>
</g>
<!-- Node8 -->
<g id="node15" class="node"><title>Node8</title>
<a xlink:href="freqfilterattrib_8h.html" target="_top" xlink:title="freqfilterattrib.h">
<polygon fill="white" stroke="black" points="70,-58.5 70,-79.5 152,-79.5 152,-58.5 70,-58.5"/>
<text text-anchor="middle" x="111" y="-66.5" font-family="Helvetica,sans-Serif" font-size="10.00">freqfilterattrib.h</text>
</a>
</g>
<!-- Node2&#45;&gt;Node8 -->
<g id="edge14" class="edge"><title>Node2&#45;&gt;Node8</title>
<path fill="none" stroke="midnightblue" d="M411.943,-120.362C352.741,-111.974 249.172,-96.613 161,-80 158.118,-79.4569 155.148,-78.8711 152.16,-78.2625"/>
<polygon fill="midnightblue" stroke="midnightblue" points="411.723,-123.865 422.114,-121.796 412.7,-116.934 411.723,-123.865"/>
</g>
<!-- Node9 -->
<g id="node17" class="node"><title>Node9</title>
<a xlink:href="specdecompattrib_8h.html" target="_top" xlink:title="specdecompattrib.h">
<polygon fill="white" stroke="black" points="170,-58.5 170,-79.5 272,-79.5 272,-58.5 170,-58.5"/>
<text text-anchor="middle" x="221" y="-66.5" font-family="Helvetica,sans-Serif" font-size="10.00">specdecompattrib.h</text>
</a>
</g>
<!-- Node2&#45;&gt;Node9 -->
<g id="edge16" class="edge"><title>Node2&#45;&gt;Node9</title>
<path fill="none" stroke="midnightblue" d="M412.425,-115.455C369.295,-104.988 306.258,-89.6903 264.458,-79.5462"/>
<polygon fill="midnightblue" stroke="midnightblue" points="411.85,-118.917 422.393,-117.874 413.501,-112.114 411.85,-118.917"/>
</g>
<!-- Node10 -->
<g id="node19" class="node"><title>Node10</title>
<a xlink:href="uiwindowfuncseldlg_8h.html" target="_top" xlink:title="uiwindowfuncseldlg.h">
<polygon fill="white" stroke="black" points="974,-58.5 974,-79.5 1084,-79.5 1084,-58.5 974,-58.5"/>
<text text-anchor="middle" x="1029" y="-66.5" font-family="Helvetica,sans-Serif" font-size="10.00">uiwindowfuncseldlg.h</text>
</a>
</g>
<!-- Node2&#45;&gt;Node10 -->
<g id="edge18" class="edge"><title>Node2&#45;&gt;Node10</title>
<path fill="none" stroke="midnightblue" d="M507.992,-121.579C524.756,-119.737 543.702,-117.712 561,-116 740.39,-98.2403 786.243,-103.287 965,-80 967.907,-79.6213 970.883,-79.2061 973.885,-78.7657"/>
<polygon fill="midnightblue" stroke="midnightblue" points="507.426,-118.12 497.871,-122.698 508.195,-125.077 507.426,-118.12"/>
</g>
<!-- Node11 -->
<g id="node21" class="node"><title>Node11</title>
<a xlink:href="uifreqtaper_8h.html" target="_top" xlink:title="uifreqtaper.h">
<polygon fill="white" stroke="black" points="885.5,-58.5 885.5,-79.5 956.5,-79.5 956.5,-58.5 885.5,-58.5"/>
<text text-anchor="middle" x="921" y="-66.5" font-family="Helvetica,sans-Serif" font-size="10.00">uifreqtaper.h</text>
</a>
</g>
<!-- Node2&#45;&gt;Node11 -->
<g id="edge20" class="edge"><title>Node2&#45;&gt;Node11</title>
<path fill="none" stroke="midnightblue" d="M507.654,-121.8C613.244,-110.256 859.025,-83.245 877,-80 879.635,-79.5244 882.345,-78.9811 885.066,-78.3964"/>
<polygon fill="midnightblue" stroke="midnightblue" points="507.146,-118.335 497.586,-122.901 507.907,-125.294 507.146,-118.335"/>
</g>
<!-- Node12&#45;&gt;Node6 -->
<g id="edge24" class="edge"><title>Node12&#45;&gt;Node6</title>
<path fill="none" stroke="midnightblue" d="M146.676,-113.581C117.896,-102.949 78.3584,-88.3426 52.5011,-78.7902"/>
<polygon fill="midnightblue" stroke="midnightblue" points="145.774,-116.979 156.367,-117.161 148.2,-110.413 145.774,-116.979"/>
</g>
<!-- Node14 -->
<g id="node28" class="node"><title>Node14</title>
<a xlink:href="tabledef_8h.html" target="_top" xlink:title="tabledef.h">
<polygon fill="white" stroke="black" points="1311.5,-58.5 1311.5,-79.5 1370.5,-79.5 1370.5,-58.5 1311.5,-58.5"/>
<text text-anchor="middle" x="1341" y="-66.5" font-family="Helvetica,sans-Serif" font-size="10.00">tabledef.h</text>
</a>
</g>
<!-- Node13&#45;&gt;Node14 -->
<g id="edge28" class="edge"><title>Node13&#45;&gt;Node14</title>
<path fill="none" stroke="midnightblue" d="M1369.42,-108.25C1362.54,-98.75 1354.44,-87.5651 1348.65,-79.5707"/>
<polygon fill="midnightblue" stroke="midnightblue" points="1366.6,-110.315 1375.3,-116.362 1372.27,-106.21 1366.6,-110.315"/>
</g>
<!-- Node15 -->
<g id="node30" class="node"><title>Node15</title>
<a xlink:href="userinputobj_8h.html" target="_top" xlink:title="userinputobj.h">
<polygon fill="white" stroke="red" points="1387.5,-58.5 1387.5,-79.5 1464.5,-79.5 1464.5,-58.5 1387.5,-58.5"/>
<text text-anchor="middle" x="1426" y="-66.5" font-family="Helvetica,sans-Serif" font-size="10.00">userinputobj.h</text>
</a>
</g>
<!-- Node13&#45;&gt;Node15 -->
<g id="edge30" class="edge"><title>Node13&#45;&gt;Node15</title>
<path fill="none" stroke="midnightblue" d="M1396.9,-108.25C1403.94,-98.75 1412.24,-87.5651 1418.16,-79.5707"/>
<polygon fill="midnightblue" stroke="midnightblue" points="1394.03,-106.244 1390.89,-116.362 1399.65,-110.413 1394.03,-106.244"/>
</g>
<!-- Node16 -->
<g id="node32" class="node"><title>Node16</title>
<a xlink:href="mmprogspec_8h.html" target="_top" xlink:title="mmprogspec.h">
<polygon fill="white" stroke="black" points="1481.5,-58.5 1481.5,-79.5 1562.5,-79.5 1562.5,-58.5 1481.5,-58.5"/>
<text text-anchor="middle" x="1522" y="-66.5" font-family="Helvetica,sans-Serif" font-size="10.00">mmprogspec.h</text>
</a>
</g>
<!-- Node13&#45;&gt;Node16 -->
<g id="edge32" class="edge"><title>Node13&#45;&gt;Node16</title>
<path fill="none" stroke="midnightblue" d="M1417.47,-112.615C1441.98,-102.389 1474.36,-88.8796 1496.55,-79.6212"/>
<polygon fill="midnightblue" stroke="midnightblue" points="1416.05,-109.416 1408.17,-116.497 1418.75,-115.876 1416.05,-109.416"/>
</g>
<!-- Node17 -->
<g id="node34" class="node"><title>Node17</title>
<a xlink:href="attribparam_8h.html" target="_top" xlink:title="attribparam.h">
<polygon fill="white" stroke="red" points="1580,-58.5 1580,-79.5 1654,-79.5 1654,-58.5 1580,-58.5"/>
<text text-anchor="middle" x="1617" y="-66.5" font-family="Helvetica,sans-Serif" font-size="10.00">attribparam.h</text>
</a>
</g>
<!-- Node13&#45;&gt;Node17 -->
<g id="edge34" class="edge"><title>Node13&#45;&gt;Node17</title>
<path fill="none" stroke="midnightblue" d="M1431.56,-114.964C1475.64,-104.037 1539.73,-88.1533 1579.85,-78.2083"/>
<polygon fill="midnightblue" stroke="midnightblue" points="1430.5,-111.619 1421.64,-117.422 1432.19,-118.414 1430.5,-111.619"/>
</g>
<!-- Node18 -->
<g id="node36" class="node"><title>Node18</title>
<a xlink:href="attribparamgroup_8h.html" target="_top" xlink:title="attribparamgroup.h">
<polygon fill="white" stroke="black" points="1600,-0.5 1600,-21.5 1698,-21.5 1698,-0.5 1600,-0.5"/>
<text text-anchor="middle" x="1649" y="-8.5" font-family="Helvetica,sans-Serif" font-size="10.00">attribparamgroup.h</text>
</a>
</g>
<!-- Node13&#45;&gt;Node18 -->
<g id="edge38" class="edge"><title>Node13&#45;&gt;Node18</title>
<path fill="none" stroke="midnightblue" d="M1431.83,-116.053C1496.67,-107.325 1630.7,-117.677 1663,-80 1677.16,-63.4823 1664.86,-36.5758 1656.05,-21.7131"/>
<polygon fill="midnightblue" stroke="midnightblue" points="1430.99,-112.644 1421.68,-117.7 1432.11,-119.554 1430.99,-112.644"/>
</g>
<!-- Node19 -->
<g id="node39" class="node"><title>Node19</title>
<a xlink:href="uigeninput_8h.html" target="_top" xlink:title="uigeninput.h">
<polygon fill="white" stroke="red" points="1709.5,-58.5 1709.5,-79.5 1778.5,-79.5 1778.5,-58.5 1709.5,-58.5"/>
<text text-anchor="middle" x="1744" y="-66.5" font-family="Helvetica,sans-Serif" font-size="10.00">uigeninput.h</text>
</a>
</g>
<!-- Node13&#45;&gt;Node19 -->
<g id="edge40" class="edge"><title>Node13&#45;&gt;Node19</title>
<path fill="none" stroke="midnightblue" d="M1431.77,-115.801C1549.1,-94.7418 1581.83,-100.763 1696,-80 1700.37,-79.2045 1704.95,-78.2784 1709.47,-77.3074"/>
<polygon fill="midnightblue" stroke="midnightblue" points="1430.88,-112.405 1421.67,-117.642 1432.13,-119.291 1430.88,-112.405"/>
</g>
<!-- Node20 -->
<g id="node41" class="node"><title>Node20</title>
<a xlink:href="uigeninputdlg_8h.html" target="_top" xlink:title="uigeninputdlg.h">
<polygon fill="white" stroke="black" points="1102,-58.5 1102,-79.5 1184,-79.5 1184,-58.5 1102,-58.5"/>
<text text-anchor="middle" x="1143" y="-66.5" font-family="Helvetica,sans-Serif" font-size="10.00">uigeninputdlg.h</text>
</a>
</g>
<!-- Node13&#45;&gt;Node20 -->
<g id="edge42" class="edge"><title>Node13&#45;&gt;Node20</title>
<path fill="none" stroke="midnightblue" d="M1334.52,-115.284C1290.41,-104.623 1225.99,-89.0561 1184.28,-78.9762"/>
<polygon fill="midnightblue" stroke="midnightblue" points="1333.9,-118.734 1344.44,-117.681 1335.54,-111.93 1333.9,-118.734"/>
</g>
<!-- Node17&#45;&gt;Node18 -->
<g id="edge36" class="edge"><title>Node17&#45;&gt;Node18</title>
<path fill="none" stroke="midnightblue" d="M1627.83,-49.3733C1632.96,-40.0682 1638.89,-29.3204 1643.17,-21.5707"/>
<polygon fill="midnightblue" stroke="midnightblue" points="1624.64,-47.9153 1622.87,-58.3619 1630.76,-51.2969 1624.64,-47.9153"/>
</g>
<!-- Node22 -->
<g id="node45" class="node"><title>Node22</title>
<a xlink:href="stratlayermodel_8h.html" target="_top" xlink:title="stratlayermodel.h">
<polygon fill="white" stroke="black" points="1796,-58.5 1796,-79.5 1888,-79.5 1888,-58.5 1796,-58.5"/>
<text text-anchor="middle" x="1842" y="-66.5" font-family="Helvetica,sans-Serif" font-size="10.00">stratlayermodel.h</text>
</a>
</g>
<!-- Node21&#45;&gt;Node22 -->
<g id="edge46" class="edge"><title>Node21&#45;&gt;Node22</title>
<path fill="none" stroke="midnightblue" d="M1533.61,-115.805C1646.42,-96.0904 1677.37,-98.6867 1787,-80 1789.88,-79.5092 1792.84,-78.9823 1795.82,-78.4346"/>
<polygon fill="midnightblue" stroke="midnightblue" points="1532.77,-112.399 1523.53,-117.586 1533.99,-119.292 1532.77,-112.399"/>
</g>
<!-- Node23 -->
<g id="node47" class="node"><title>Node23</title>
<a xlink:href="stratsynth_8h.html" target="_top" xlink:title="stratsynth.h">
<polygon fill="white" stroke="black" points="1906,-58.5 1906,-79.5 1974,-79.5 1974,-58.5 1906,-58.5"/>
<text text-anchor="middle" x="1940" y="-66.5" font-family="Helvetica,sans-Serif" font-size="10.00">stratsynth.h</text>
</a>
</g>
<!-- Node21&#45;&gt;Node23 -->
<g id="edge48" class="edge"><title>Node21&#45;&gt;Node23</title>
<path fill="none" stroke="midnightblue" d="M1533.78,-115.866C1694.88,-91.4735 1739.75,-107.701 1897,-80 1899.88,-79.492 1902.86,-78.8924 1905.83,-78.2397"/>
<polygon fill="midnightblue" stroke="midnightblue" points="1532.86,-112.467 1523.51,-117.452 1533.93,-119.385 1532.86,-112.467"/>
</g>
<!-- Node24 -->
<g id="node49" class="node"><title>Node24</title>
<a xlink:href="uielasticpropsel_8h.html" target="_top" xlink:title="uielasticpropsel.h">
<polygon fill="white" stroke="black" points="1202,-58.5 1202,-79.5 1294,-79.5 1294,-58.5 1202,-58.5"/>
<text text-anchor="middle" x="1248" y="-66.5" font-family="Helvetica,sans-Serif" font-size="10.00">uielasticpropsel.h</text>
</a>
</g>
<!-- Node21&#45;&gt;Node24 -->
<g id="edge50" class="edge"><title>Node21&#45;&gt;Node24</title>
<path fill="none" stroke="midnightblue" d="M1429.08,-114.077C1387.29,-103.672 1329.27,-89.2306 1290.27,-79.5231"/>
<polygon fill="midnightblue" stroke="midnightblue" points="1428.26,-117.477 1438.81,-116.497 1429.95,-110.685 1428.26,-117.477"/>
</g>
<!-- Node27&#45;&gt;Node7 -->
<g id="edge58" class="edge"><title>Node27&#45;&gt;Node7</title>
<path fill="none" stroke="midnightblue" d="M729.546,-113.279C699.075,-102.944 657.921,-88.9849 630.025,-79.5231"/>
<polygon fill="midnightblue" stroke="midnightblue" points="728.439,-116.599 739.033,-116.497 730.687,-109.97 728.439,-116.599"/>
</g>
<!-- Node28 -->
<g id="node58" class="node"><title>Node28</title>
<a xlink:href="createlogcube_8h.html" target="_top" xlink:title="createlogcube.h">
<polygon fill="white" stroke="black" points="782,-58.5 782,-79.5 868,-79.5 868,-58.5 782,-58.5"/>
<text text-anchor="middle" x="825" y="-66.5" font-family="Helvetica,sans-Serif" font-size="10.00">createlogcube.h</text>
</a>
</g>
<!-- Node27&#45;&gt;Node28 -->
<g id="edge60" class="edge"><title>Node27&#45;&gt;Node28</title>
<path fill="none" stroke="midnightblue" d="M787.23,-108.83C796.355,-99.2078 807.24,-87.7282 814.976,-79.5707"/>
<polygon fill="midnightblue" stroke="midnightblue" points="784.429,-106.697 780.088,-116.362 789.508,-111.514 784.429,-106.697"/>
</g>
<!-- Node29 -->
<g id="node60" class="node"><title>Node29</title>
<a xlink:href="uimultiwelllogsel_8h.html" target="_top" xlink:title="uimultiwelllogsel.h">
<polygon fill="white" stroke="black" points="668,-58.5 668,-79.5 764,-79.5 764,-58.5 668,-58.5"/>
<text text-anchor="middle" x="716" y="-66.5" font-family="Helvetica,sans-Serif" font-size="10.00">uimultiwelllogsel.h</text>
</a>
</g>
<!-- Node27&#45;&gt;Node29 -->
<g id="edge62" class="edge"><title>Node27&#45;&gt;Node29</title>
<path fill="none" stroke="midnightblue" d="M753.083,-108.83C744.125,-99.2078 733.437,-87.7282 725.842,-79.5707"/>
<polygon fill="midnightblue" stroke="midnightblue" points="750.72,-111.428 760.096,-116.362 755.843,-106.658 750.72,-111.428"/>
</g>
<!-- Node33&#45;&gt;Node23 -->
<g id="edge72" class="edge"><title>Node33&#45;&gt;Node23</title>
<path fill="none" stroke="midnightblue" d="M1617.69,-115.848C1741.37,-92.5688 1776.47,-103.047 1897,-80 1899.88,-79.4501 1902.85,-78.821 1905.82,-78.1485"/>
<polygon fill="midnightblue" stroke="midnightblue" points="1617,-112.416 1607.84,-117.737 1618.32,-119.291 1617,-112.416"/>
</g>
<!-- Node35&#45;&gt;Node7 -->
<g id="edge78" class="edge"><title>Node35&#45;&gt;Node7</title>
<path fill="none" stroke="midnightblue" d="M604.13,-106.191C602.885,-97.1684 601.482,-86.9941 600.458,-79.5707"/>
<polygon fill="midnightblue" stroke="midnightblue" points="600.699,-106.934 605.533,-116.362 607.633,-105.977 600.699,-106.934"/>
</g>
<!-- Node36&#45;&gt;Node10 -->
<g id="edge84" class="edge"><title>Node36&#45;&gt;Node10</title>
<path fill="none" stroke="midnightblue" d="M1113.38,-111.932C1093.46,-101.793 1067.67,-88.6748 1049.88,-79.6212"/>
<polygon fill="midnightblue" stroke="midnightblue" points="1111.86,-115.081 1122.36,-116.497 1115.03,-108.843 1111.86,-115.081"/>
</g>
<!-- Node36&#45;&gt;Node11 -->
<g id="edge88" class="edge"><title>Node36&#45;&gt;Node11</title>
<path fill="none" stroke="midnightblue" d="M1104.2,-116.862C1062.56,-105.985 997.003,-88.8568 956.637,-78.3107"/>
<polygon fill="midnightblue" stroke="midnightblue" points="1103.42,-120.276 1113.98,-119.418 1105.19,-113.503 1103.42,-120.276"/>
</g>
<!-- Node36&#45;&gt;Node20 -->
<g id="edge82" class="edge"><title>Node36&#45;&gt;Node20</title>
<path fill="none" stroke="midnightblue" d="M1143,-106.191C1143,-97.1684 1143,-86.9941 1143,-79.5707"/>
<polygon fill="midnightblue" stroke="midnightblue" points="1139.5,-106.362 1143,-116.362 1146.5,-106.362 1139.5,-106.362"/>
</g>
<!-- Node36&#45;&gt;Node24 -->
<g id="edge86" class="edge"><title>Node36&#45;&gt;Node24</title>
<path fill="none" stroke="midnightblue" d="M1171.03,-111.517C1189.31,-101.419 1212.69,-88.5032 1228.86,-79.5707"/>
<polygon fill="midnightblue" stroke="midnightblue" points="1169.32,-108.463 1162.26,-116.362 1172.7,-114.59 1169.32,-108.463"/>
</g>
</g>
</svg>
