<?xml version="1.0" encoding="UTF-8" standalone="no"?>
<!DOCTYPE svg PUBLIC "-//W3C//DTD SVG 1.1//EN"
 "http://www.w3.org/Graphics/SVG/1.1/DTD/svg11.dtd">
<!-- Generated by graphviz version 2.26.0 (20091210.2329)
 -->
<!-- Title: uisystemtrayicon.h Pages: 1 -->
<svg width="816pt" height="726pt"
 viewBox="0.00 0.00 816.00 726.00" xmlns="http://www.w3.org/2000/svg" xmlns:xlink="http://www.w3.org/1999/xlink">
<g id="graph1" class="graph" transform="scale(1 1) rotate(0) translate(4 722)">
<title>uisystemtrayicon.h</title>
<polygon fill="white" stroke="white" points="-4,5 -4,-722 813,-722 813,5 -4,5"/>
<!-- Node1 -->
<g id="node1" class="node"><title>Node1</title>
<polygon fill="#bfbfbf" stroke="black" points="325.5,-696.5 325.5,-717.5 424.5,-717.5 424.5,-696.5 325.5,-696.5"/>
<text text-anchor="middle" x="375" y="-704.5" font-family="Helvetica,sans-Serif" font-size="10.00">uisystemtrayicon.h</text>
</g>
<!-- Node2 -->
<g id="node3" class="node"><title>Node2</title>
<polygon fill="white" stroke="#bfbfbf" points="297,-638.5 297,-659.5 369,-659.5 369,-638.5 297,-638.5"/>
<text text-anchor="middle" x="333" y="-646.5" font-family="Helvetica,sans-Serif" font-size="10.00">uibasemod.h</text>
</g>
<!-- Node1&#45;&gt;Node2 -->
<g id="edge2" class="edge"><title>Node1&#45;&gt;Node2</title>
<path fill="none" stroke="midnightblue" d="M367.297,-696.362C361.554,-688.431 353.557,-677.389 346.73,-667.961"/>
<polygon fill="midnightblue" stroke="midnightblue" points="349.355,-665.617 340.655,-659.571 343.685,-669.723 349.355,-665.617"/>
</g>
<!-- Node3 -->
<g id="node5" class="node"><title>Node3</title>
<a xlink:href="callback_8h.html" target="_top" xlink:title="callback.h">
<polygon fill="white" stroke="black" points="386.5,-638.5 386.5,-659.5 447.5,-659.5 447.5,-638.5 386.5,-638.5"/>
<text text-anchor="middle" x="417" y="-646.5" font-family="Helvetica,sans-Serif" font-size="10.00">callback.h</text>
</a>
</g>
<!-- Node1&#45;&gt;Node3 -->
<g id="edge4" class="edge"><title>Node1&#45;&gt;Node3</title>
<path fill="none" stroke="midnightblue" d="M382.703,-696.362C388.446,-688.431 396.443,-677.389 403.27,-667.961"/>
<polygon fill="midnightblue" stroke="midnightblue" points="406.315,-669.723 409.345,-659.571 400.645,-665.617 406.315,-669.723"/>
</g>
<!-- Node4 -->
<g id="node7" class="node"><title>Node4</title>
<polygon fill="white" stroke="#bfbfbf" points="221.5,-0.5 221.5,-21.5 288.5,-21.5 288.5,-0.5 221.5,-0.5"/>
<text text-anchor="middle" x="255" y="-8.5" font-family="Helvetica,sans-Serif" font-size="10.00">basicmod.h</text>
</g>
<!-- Node3&#45;&gt;Node4 -->
<g id="edge6" class="edge"><title>Node3&#45;&gt;Node4</title>
<path fill="none" stroke="midnightblue" d="M386.346,-640.342C383.525,-639.549 380.71,-638.759 378,-638 210.093,-591.001 0,-707.361 0,-533 0,-533 0,-533 0,-127 0,-88.3308 20.4904,-78.9388 53,-58 78.8417,-41.3558 160.066,-26.0069 211.304,-17.629"/>
<polygon fill="midnightblue" stroke="midnightblue" points="212.121,-21.0425 221.439,-15.9986 211.01,-14.1314 212.121,-21.0425"/>
</g>
<!-- Node5 -->
<g id="node9" class="node"><title>Node5</title>
<a xlink:href="refcount_8h.html" target="_top" xlink:title="refcount.h">
<polygon fill="white" stroke="black" points="416,-580.5 416,-601.5 476,-601.5 476,-580.5 416,-580.5"/>
<text text-anchor="middle" x="446" y="-588.5" font-family="Helvetica,sans-Serif" font-size="10.00">refcount.h</text>
</a>
</g>
<!-- Node3&#45;&gt;Node5 -->
<g id="edge8" class="edge"><title>Node3&#45;&gt;Node5</title>
<path fill="none" stroke="midnightblue" d="M422.319,-638.362C426.203,-630.595 431.579,-619.843 436.227,-610.546"/>
<polygon fill="midnightblue" stroke="midnightblue" points="439.373,-612.08 440.715,-601.571 433.112,-608.95 439.373,-612.08"/>
</g>
<!-- Node31 -->
<g id="node80" class="node"><title>Node31</title>
<a xlink:href="sets_8h.html" target="_top" xlink:title="sets.h">
<polygon fill="white" stroke="black" points="497,-580.5 497,-601.5 541,-601.5 541,-580.5 497,-580.5"/>
<text text-anchor="middle" x="519" y="-588.5" font-family="Helvetica,sans-Serif" font-size="10.00">sets.h</text>
</a>
</g>
<!-- Node3&#45;&gt;Node31 -->
<g id="edge98" class="edge"><title>Node3&#45;&gt;Node31</title>
<path fill="none" stroke="midnightblue" d="M435.708,-638.362C451.381,-629.45 473.964,-616.609 491.663,-606.545"/>
<polygon fill="midnightblue" stroke="midnightblue" points="493.447,-609.556 500.41,-601.571 489.987,-603.471 493.447,-609.556"/>
</g>
<!-- Node33 -->
<g id="node87" class="node"><title>Node33</title>
<a xlink:href="threadlock_8h.html" target="_top" xlink:title="threadlock.h">
<polygon fill="white" stroke="black" points="454,-116.5 454,-137.5 524,-137.5 524,-116.5 454,-116.5"/>
<text text-anchor="middle" x="489" y="-124.5" font-family="Helvetica,sans-Serif" font-size="10.00">threadlock.h</text>
</a>
</g>
<!-- Node3&#45;&gt;Node33 -->
<g id="edge108" class="edge"><title>Node3&#45;&gt;Node33</title>
<path fill="none" stroke="midnightblue" d="M412.469,-638.348C404.312,-618.178 388,-572.857 388,-533 388,-533 388,-533 388,-243 388,-198.473 430.852,-162.736 460.732,-143.231"/>
<polygon fill="midnightblue" stroke="midnightblue" points="462.92,-145.989 469.526,-137.706 459.196,-140.062 462.92,-145.989"/>
</g>
<!-- Node6 -->
<g id="node11" class="node"><title>Node6</title>
<a xlink:href="atomic_8h.html" target="_top" xlink:title="atomic.h">
<polygon fill="white" stroke="black" points="154,-116.5 154,-137.5 208,-137.5 208,-116.5 154,-116.5"/>
<text text-anchor="middle" x="181" y="-124.5" font-family="Helvetica,sans-Serif" font-size="10.00">atomic.h</text>
</a>
</g>
<!-- Node5&#45;&gt;Node6 -->
<g id="edge10" class="edge"><title>Node5&#45;&gt;Node6</title>
<path fill="none" stroke="midnightblue" d="M415.721,-583.231C327.355,-558.55 76,-473.209 76,-301 76,-301 76,-301 76,-243 76,-197.509 120.934,-161.895 152.013,-142.702"/>
<polygon fill="midnightblue" stroke="midnightblue" points="153.948,-145.624 160.755,-137.505 150.371,-139.607 153.948,-145.624"/>
</g>
<!-- Node14 -->
<g id="node30" class="node"><title>Node14</title>
<a xlink:href="objectset_8h.html" target="_top" xlink:title="objectset.h">
<polygon fill="white" stroke="black" points="486.5,-522.5 486.5,-543.5 551.5,-543.5 551.5,-522.5 486.5,-522.5"/>
<text text-anchor="middle" x="519" y="-530.5" font-family="Helvetica,sans-Serif" font-size="10.00">objectset.h</text>
</a>
</g>
<!-- Node5&#45;&gt;Node14 -->
<g id="edge32" class="edge"><title>Node5&#45;&gt;Node14</title>
<path fill="none" stroke="midnightblue" d="M459.389,-580.362C470.091,-571.859 485.296,-559.779 497.671,-549.947"/>
<polygon fill="midnightblue" stroke="midnightblue" points="500.043,-552.532 505.696,-543.571 495.689,-547.051 500.043,-552.532"/>
</g>
<!-- Node6&#45;&gt;Node4 -->
<g id="edge12" class="edge"><title>Node6&#45;&gt;Node4</title>
<path fill="none" stroke="midnightblue" d="M187.142,-116.088C194.95,-102.354 208.983,-78.1241 222,-58 228.109,-48.5559 235.242,-38.3082 241.31,-29.7992"/>
<polygon fill="midnightblue" stroke="midnightblue" points="244.162,-31.8292 247.161,-21.6679 238.48,-27.7407 244.162,-31.8292"/>
</g>
<!-- Node7 -->
<g id="node14" class="node"><title>Node7</title>
<a xlink:href="commondefs_8h.html" target="_top" xlink:title="commondefs.h">
<polygon fill="white" stroke="black" points="631.5,-58.5 631.5,-79.5 712.5,-79.5 712.5,-58.5 631.5,-58.5"/>
<text text-anchor="middle" x="672" y="-66.5" font-family="Helvetica,sans-Serif" font-size="10.00">commondefs.h</text>
</a>
</g>
<!-- Node6&#45;&gt;Node7 -->
<g id="edge14" class="edge"><title>Node6&#45;&gt;Node7</title>
<path fill="none" stroke="midnightblue" d="M208.443,-123.903C273.726,-116.514 443.403,-97.1875 585,-80 596.689,-78.5811 609.257,-77.0155 621.105,-75.5214"/>
<polygon fill="midnightblue" stroke="midnightblue" points="621.809,-78.9602 631.291,-74.2322 620.931,-72.0155 621.809,-78.9602"/>
</g>
<!-- Node11 -->
<g id="node23" class="node"><title>Node11</title>
<a xlink:href="plftypes_8h.html" target="_top" xlink:title="plftypes.h">
<polygon fill="white" stroke="black" points="517.5,-58.5 517.5,-79.5 576.5,-79.5 576.5,-58.5 517.5,-58.5"/>
<text text-anchor="middle" x="547" y="-66.5" font-family="Helvetica,sans-Serif" font-size="10.00">plftypes.h</text>
</a>
</g>
<!-- Node6&#45;&gt;Node11 -->
<g id="edge24" class="edge"><title>Node6&#45;&gt;Node11</title>
<path fill="none" stroke="midnightblue" d="M208.21,-122.688C272.212,-112.546 432.517,-87.1421 507.355,-75.2825"/>
<polygon fill="midnightblue" stroke="midnightblue" points="508,-78.7241 517.329,-73.702 506.904,-71.8104 508,-78.7241"/>
</g>
<!-- Node13 -->
<g id="node28" class="node"><title>Node13</title>
<polygon fill="white" stroke="#bfbfbf" points="103.5,-58.5 103.5,-79.5 170.5,-79.5 170.5,-58.5 103.5,-58.5"/>
<text text-anchor="middle" x="137" y="-66.5" font-family="Helvetica,sans-Serif" font-size="10.00">odversion.h</text>
</g>
<!-- Node6&#45;&gt;Node13 -->
<g id="edge30" class="edge"><title>Node6&#45;&gt;Node13</title>
<path fill="none" stroke="midnightblue" d="M172.93,-116.362C166.851,-108.35 158.363,-97.1605 151.163,-87.6696"/>
<polygon fill="midnightblue" stroke="midnightblue" points="153.851,-85.4222 145.019,-79.5707 148.275,-89.653 153.851,-85.4222"/>
</g>
<!-- Node7&#45;&gt;Node4 -->
<g id="edge16" class="edge"><title>Node7&#45;&gt;Node4</title>
<path fill="none" stroke="midnightblue" d="M631.368,-60.3959C626.866,-59.5401 622.341,-58.7223 618,-58 503.223,-38.9048 366.934,-23.0813 298.621,-15.6178"/>
<polygon fill="midnightblue" stroke="midnightblue" points="298.969,-12.1352 288.65,-14.5352 298.214,-19.0943 298.969,-12.1352"/>
</g>
<!-- Node8 -->
<g id="node17" class="node"><title>Node8</title>
<a xlink:href="plfdefs_8h.html" target="_top" xlink:title="plfdefs.h">
<polygon fill="white" stroke="black" points="586,-0.5 586,-21.5 640,-21.5 640,-0.5 586,-0.5"/>
<text text-anchor="middle" x="613" y="-8.5" font-family="Helvetica,sans-Serif" font-size="10.00">plfdefs.h</text>
</a>
</g>
<!-- Node7&#45;&gt;Node8 -->
<g id="edge18" class="edge"><title>Node7&#45;&gt;Node8</title>
<path fill="none" stroke="midnightblue" d="M661.178,-58.3619C652.779,-50.1043 640.946,-38.4725 631.11,-28.8029"/>
<polygon fill="midnightblue" stroke="midnightblue" points="633.338,-26.0851 623.753,-21.5707 628.431,-31.077 633.338,-26.0851"/>
</g>
<!-- Node9 -->
<g id="node19" class="node"><title>Node9</title>
<polygon fill="white" stroke="#bfbfbf" points="745.5,-0.5 745.5,-21.5 804.5,-21.5 804.5,-0.5 745.5,-0.5"/>
<text text-anchor="middle" x="775" y="-8.5" font-family="Helvetica,sans-Serif" font-size="10.00">stdexcept</text>
</g>
<!-- Node7&#45;&gt;Node9 -->
<g id="edge20" class="edge"><title>Node7&#45;&gt;Node9</title>
<path fill="none" stroke="midnightblue" d="M690.892,-58.3619C706.718,-49.4502 729.523,-36.6087 747.395,-26.5447"/>
<polygon fill="midnightblue" stroke="midnightblue" points="749.232,-29.5271 756.228,-21.5707 745.797,-23.4276 749.232,-29.5271"/>
</g>
<!-- Node10 -->
<g id="node21" class="node"><title>Node10</title>
<polygon fill="white" stroke="#bfbfbf" points="657.5,-0.5 657.5,-21.5 692.5,-21.5 692.5,-0.5 657.5,-0.5"/>
<text text-anchor="middle" x="675" y="-8.5" font-family="Helvetica,sans-Serif" font-size="10.00">new</text>
</g>
<!-- Node7&#45;&gt;Node10 -->
<g id="edge22" class="edge"><title>Node7&#45;&gt;Node10</title>
<path fill="none" stroke="midnightblue" d="M672.55,-58.3619C672.935,-50.9219 673.462,-40.7427 673.928,-31.7276"/>
<polygon fill="midnightblue" stroke="midnightblue" points="677.432,-31.7381 674.453,-21.5707 670.441,-31.3765 677.432,-31.7381"/>
</g>
<!-- Node11&#45;&gt;Node8 -->
<g id="edge26" class="edge"><title>Node11&#45;&gt;Node8</title>
<path fill="none" stroke="midnightblue" d="M559.105,-58.3619C568.688,-49.9408 582.264,-38.0105 593.393,-28.2308"/>
<polygon fill="midnightblue" stroke="midnightblue" points="595.77,-30.8009 600.971,-21.5707 591.149,-25.5427 595.77,-30.8009"/>
</g>
<!-- Node12 -->
<g id="node26" class="node"><title>Node12</title>
<polygon fill="white" stroke="#bfbfbf" points="519.5,-0.5 519.5,-21.5 568.5,-21.5 568.5,-0.5 519.5,-0.5"/>
<text text-anchor="middle" x="544" y="-8.5" font-family="Helvetica,sans-Serif" font-size="10.00">stdint.h</text>
</g>
<!-- Node11&#45;&gt;Node12 -->
<g id="edge28" class="edge"><title>Node11&#45;&gt;Node12</title>
<path fill="none" stroke="midnightblue" d="M546.45,-58.3619C546.065,-50.9219 545.538,-40.7427 545.072,-31.7276"/>
<polygon fill="midnightblue" stroke="midnightblue" points="548.559,-31.3765 544.547,-21.5707 541.568,-31.7381 548.559,-31.3765"/>
</g>
<!-- Node15 -->
<g id="node32" class="node"><title>Node15</title>
<a xlink:href="odset_8h.html" target="_top" xlink:title="odset.h">
<polygon fill="white" stroke="black" points="604.5,-464.5 604.5,-485.5 653.5,-485.5 653.5,-464.5 604.5,-464.5"/>
<text text-anchor="middle" x="629" y="-472.5" font-family="Helvetica,sans-Serif" font-size="10.00">odset.h</text>
</a>
</g>
<!-- Node14&#45;&gt;Node15 -->
<g id="edge34" class="edge"><title>Node14&#45;&gt;Node15</title>
<path fill="none" stroke="midnightblue" d="M538.92,-522.497C555.946,-513.519 580.669,-500.484 599.909,-490.339"/>
<polygon fill="midnightblue" stroke="midnightblue" points="601.643,-493.381 608.856,-485.621 598.378,-487.189 601.643,-493.381"/>
</g>
<!-- Node21 -->
<g id="node49" class="node"><title>Node21</title>
<a xlink:href="vectoraccess_8h.html" target="_top" xlink:title="vectoraccess.h">
<polygon fill="white" stroke="black" points="504.5,-464.5 504.5,-485.5 587.5,-485.5 587.5,-464.5 504.5,-464.5"/>
<text text-anchor="middle" x="546" y="-472.5" font-family="Helvetica,sans-Serif" font-size="10.00">vectoraccess.h</text>
</a>
</g>
<!-- Node14&#45;&gt;Node21 -->
<g id="edge56" class="edge"><title>Node14&#45;&gt;Node21</title>
<path fill="none" stroke="midnightblue" d="M523.952,-522.362C527.53,-514.677 532.468,-504.069 536.764,-494.84"/>
<polygon fill="midnightblue" stroke="midnightblue" points="540.032,-496.114 541.079,-485.571 533.686,-493.159 540.032,-496.114"/>
</g>
<!-- Node16 -->
<g id="node34" class="node"><title>Node16</title>
<a xlink:href="gendefs_8h.html" target="_top" xlink:title="gendefs.h">
<polygon fill="white" stroke="black" points="543.5,-174.5 543.5,-195.5 602.5,-195.5 602.5,-174.5 543.5,-174.5"/>
<text text-anchor="middle" x="573" y="-182.5" font-family="Helvetica,sans-Serif" font-size="10.00">gendefs.h</text>
</a>
</g>
<!-- Node15&#45;&gt;Node16 -->
<g id="edge36" class="edge"><title>Node15&#45;&gt;Node16</title>
<path fill="none" stroke="midnightblue" d="M653.56,-467.408C693.958,-453.219 770,-418.593 770,-359 770,-359 770,-359 770,-301 770,-228.737 670.355,-200.587 612.801,-190.355"/>
<polygon fill="midnightblue" stroke="midnightblue" points="613.361,-186.9 602.92,-188.7 612.205,-193.804 613.361,-186.9"/>
</g>
<!-- Node17 -->
<g id="node36" class="node"><title>Node17</title>
<a xlink:href="undefval_8h.html" target="_top" xlink:title="undefval.h">
<polygon fill="white" stroke="black" points="542,-116.5 542,-137.5 604,-137.5 604,-116.5 542,-116.5"/>
<text text-anchor="middle" x="573" y="-124.5" font-family="Helvetica,sans-Serif" font-size="10.00">undefval.h</text>
</a>
</g>
<!-- Node16&#45;&gt;Node17 -->
<g id="edge38" class="edge"><title>Node16&#45;&gt;Node17</title>
<path fill="none" stroke="midnightblue" d="M573,-174.362C573,-166.922 573,-156.743 573,-147.728"/>
<polygon fill="midnightblue" stroke="midnightblue" points="576.5,-147.571 573,-137.571 569.5,-147.571 576.5,-147.571"/>
</g>
<!-- Node18 -->
<g id="node41" class="node"><title>Node18</title>
<a xlink:href="commontypes_8h.html" target="_top" xlink:title="commontypes.h">
<polygon fill="white" stroke="black" points="622,-116.5 622,-137.5 708,-137.5 708,-116.5 622,-116.5"/>
<text text-anchor="middle" x="665" y="-124.5" font-family="Helvetica,sans-Serif" font-size="10.00">commontypes.h</text>
</a>
</g>
<!-- Node16&#45;&gt;Node18 -->
<g id="edge46" class="edge"><title>Node16&#45;&gt;Node18</title>
<path fill="none" stroke="midnightblue" d="M589.874,-174.362C603.751,-165.614 623.634,-153.079 639.46,-143.101"/>
<polygon fill="midnightblue" stroke="midnightblue" points="641.64,-145.864 648.233,-137.571 637.907,-139.943 641.64,-145.864"/>
</g>
<!-- Node19 -->
<g id="node44" class="node"><title>Node19</title>
<a xlink:href="errmsg_8h.html" target="_top" xlink:title="errmsg.h">
<polygon fill="white" stroke="black" points="725.5,-116.5 725.5,-137.5 780.5,-137.5 780.5,-116.5 725.5,-116.5"/>
<text text-anchor="middle" x="753" y="-124.5" font-family="Helvetica,sans-Serif" font-size="10.00">errmsg.h</text>
</a>
</g>
<!-- Node16&#45;&gt;Node19 -->
<g id="edge50" class="edge"><title>Node16&#45;&gt;Node19</title>
<path fill="none" stroke="midnightblue" d="M602.723,-175.422C633.581,-165.479 681.935,-149.899 715.424,-139.108"/>
<polygon fill="midnightblue" stroke="midnightblue" points="716.859,-142.323 725.303,-135.924 714.712,-135.66 716.859,-142.323"/>
</g>
<!-- Node17&#45;&gt;Node4 -->
<g id="edge40" class="edge"><title>Node17&#45;&gt;Node4</title>
<path fill="none" stroke="midnightblue" d="M579.613,-116.239C587.842,-101.32 599.184,-74.3473 585,-58 566.478,-36.6529 384.061,-20.5168 298.669,-14.0694"/>
<polygon fill="midnightblue" stroke="midnightblue" points="298.742,-10.5652 288.51,-13.3136 298.222,-17.546 298.742,-10.5652"/>
</g>
<!-- Node17&#45;&gt;Node7 -->
<g id="edge42" class="edge"><title>Node17&#45;&gt;Node7</title>
<path fill="none" stroke="midnightblue" d="M591.158,-116.362C606.23,-107.532 627.887,-94.844 644.993,-84.8224"/>
<polygon fill="midnightblue" stroke="midnightblue" points="647.098,-87.6456 653.957,-79.5707 643.559,-81.6058 647.098,-87.6456"/>
</g>
<!-- Node17&#45;&gt;Node11 -->
<g id="edge44" class="edge"><title>Node17&#45;&gt;Node11</title>
<path fill="none" stroke="midnightblue" d="M568.231,-116.362C564.786,-108.677 560.031,-98.0686 555.894,-88.8399"/>
<polygon fill="midnightblue" stroke="midnightblue" points="559.023,-87.264 551.739,-79.5707 552.635,-90.1275 559.023,-87.264"/>
</g>
<!-- Node18&#45;&gt;Node7 -->
<g id="edge48" class="edge"><title>Node18&#45;&gt;Node7</title>
<path fill="none" stroke="midnightblue" d="M666.284,-116.362C667.182,-108.922 668.41,-98.7427 669.498,-89.7276"/>
<polygon fill="midnightblue" stroke="midnightblue" points="673.001,-89.918 670.724,-79.5707 666.051,-89.0792 673.001,-89.918"/>
</g>
<!-- Node19&#45;&gt;Node7 -->
<g id="edge52" class="edge"><title>Node19&#45;&gt;Node7</title>
<path fill="none" stroke="midnightblue" d="M738.143,-116.362C726.154,-107.777 709.073,-95.5459 695.272,-85.6636"/>
<polygon fill="midnightblue" stroke="midnightblue" points="696.931,-82.5469 686.762,-79.5707 692.855,-88.2383 696.931,-82.5469"/>
</g>
<!-- Node20 -->
<g id="node47" class="node"><title>Node20</title>
<polygon fill="white" stroke="#bfbfbf" points="729.5,-58.5 729.5,-79.5 780.5,-79.5 780.5,-58.5 729.5,-58.5"/>
<text text-anchor="middle" x="755" y="-66.5" font-family="Helvetica,sans-Serif" font-size="10.00">typeinfo</text>
</g>
<!-- Node19&#45;&gt;Node20 -->
<g id="edge54" class="edge"><title>Node19&#45;&gt;Node20</title>
<path fill="none" stroke="midnightblue" d="M753.367,-116.362C753.623,-108.922 753.974,-98.7427 754.285,-89.7276"/>
<polygon fill="midnightblue" stroke="midnightblue" points="757.789,-89.6854 754.635,-79.5707 750.793,-89.4441 757.789,-89.6854"/>
</g>
<!-- Node21&#45;&gt;Node9 -->
<g id="edge96" class="edge"><title>Node21&#45;&gt;Node9</title>
<path fill="none" stroke="midnightblue" d="M581.31,-464.489C605.574,-456.432 637.977,-443.987 664,-428 736.71,-383.332 808,-386.334 808,-301 808,-301 808,-301 808,-127 808,-92.1383 794.041,-53.5551 784.28,-30.8381"/>
<polygon fill="midnightblue" stroke="midnightblue" points="787.425,-29.2958 780.156,-21.5873 781.031,-32.146 787.425,-29.2958"/>
</g>
<!-- Node21&#45;&gt;Node16 -->
<g id="edge90" class="edge"><title>Node21&#45;&gt;Node16</title>
<path fill="none" stroke="midnightblue" d="M549.906,-464.291C556.938,-444.027 571,-398.554 571,-359 571,-359 571,-359 571,-301 571,-267.593 571.84,-228.782 572.431,-205.592"/>
<polygon fill="midnightblue" stroke="midnightblue" points="575.93,-205.644 572.696,-195.555 568.933,-205.459 575.93,-205.644"/>
</g>
<!-- Node22 -->
<g id="node51" class="node"><title>Node22</title>
<a xlink:href="debug_8h.html" target="_top" xlink:title="debug.h">
<polygon fill="white" stroke="black" points="286.5,-406.5 286.5,-427.5 337.5,-427.5 337.5,-406.5 286.5,-406.5"/>
<text text-anchor="middle" x="312" y="-414.5" font-family="Helvetica,sans-Serif" font-size="10.00">debug.h</text>
</a>
</g>
<!-- Node21&#45;&gt;Node22 -->
<g id="edge58" class="edge"><title>Node21&#45;&gt;Node22</title>
<path fill="none" stroke="midnightblue" d="M504.435,-464.698C459.786,-453.631 389.587,-436.231 347.454,-425.788"/>
<polygon fill="midnightblue" stroke="midnightblue" points="348.183,-422.363 337.634,-423.354 346.499,-429.157 348.183,-422.363"/>
</g>
<!-- Node29 -->
<g id="node75" class="node"><title>Node29</title>
<polygon fill="white" stroke="#bfbfbf" points="599,-406.5 599,-427.5 655,-427.5 655,-406.5 599,-406.5"/>
<text text-anchor="middle" x="627" y="-414.5" font-family="Helvetica,sans-Serif" font-size="10.00">algorithm</text>
</g>
<!-- Node21&#45;&gt;Node29 -->
<g id="edge92" class="edge"><title>Node21&#45;&gt;Node29</title>
<path fill="none" stroke="midnightblue" d="M560.857,-464.362C572.846,-455.777 589.927,-443.546 603.728,-433.664"/>
<polygon fill="midnightblue" stroke="midnightblue" points="606.145,-436.238 612.238,-427.571 602.069,-430.547 606.145,-436.238"/>
</g>
<!-- Node30 -->
<g id="node77" class="node"><title>Node30</title>
<polygon fill="white" stroke="#bfbfbf" points="499,-406.5 499,-427.5 543,-427.5 543,-406.5 499,-406.5"/>
<text text-anchor="middle" x="521" y="-414.5" font-family="Helvetica,sans-Serif" font-size="10.00">vector</text>
</g>
<!-- Node21&#45;&gt;Node30 -->
<g id="edge94" class="edge"><title>Node21&#45;&gt;Node30</title>
<path fill="none" stroke="midnightblue" d="M541.415,-464.362C538.102,-456.677 533.53,-446.069 529.552,-436.84"/>
<polygon fill="midnightblue" stroke="midnightblue" points="532.729,-435.368 525.556,-427.571 526.301,-438.139 532.729,-435.368"/>
</g>
<!-- Node22&#45;&gt;Node4 -->
<g id="edge60" class="edge"><title>Node22&#45;&gt;Node4</title>
<path fill="none" stroke="midnightblue" d="M286.223,-409.101C218.014,-386.427 38,-314.337 38,-185 38,-185 38,-185 38,-127 38,-49.3056 147.528,-23.4574 210.956,-15.0026"/>
<polygon fill="midnightblue" stroke="midnightblue" points="211.6,-18.4496 221.094,-13.7463 210.739,-11.5028 211.6,-18.4496"/>
</g>
<!-- Node22&#45;&gt;Node16 -->
<g id="edge62" class="edge"><title>Node22&#45;&gt;Node16</title>
<path fill="none" stroke="midnightblue" d="M323.893,-406.429C365.08,-369.818 501.912,-248.189 553.284,-202.526"/>
<polygon fill="midnightblue" stroke="midnightblue" points="555.888,-204.893 561.037,-195.634 551.238,-199.661 555.888,-204.893"/>
</g>
<!-- Node23 -->
<g id="node55" class="node"><title>Node23</title>
<a xlink:href="bufstring_8h.html" target="_top" xlink:title="bufstring.h">
<polygon fill="white" stroke="black" points="251,-348.5 251,-369.5 313,-369.5 313,-348.5 251,-348.5"/>
<text text-anchor="middle" x="282" y="-356.5" font-family="Helvetica,sans-Serif" font-size="10.00">bufstring.h</text>
</a>
</g>
<!-- Node22&#45;&gt;Node23 -->
<g id="edge64" class="edge"><title>Node22&#45;&gt;Node23</title>
<path fill="none" stroke="midnightblue" d="M306.498,-406.362C302.48,-398.595 296.919,-387.843 292.11,-378.546"/>
<polygon fill="midnightblue" stroke="midnightblue" points="295.171,-376.845 287.468,-369.571 288.953,-380.061 295.171,-376.845"/>
</g>
<!-- Node23&#45;&gt;Node4 -->
<g id="edge66" class="edge"><title>Node23&#45;&gt;Node4</title>
<path fill="none" stroke="midnightblue" d="M280.785,-348.461C278.547,-328.107 274,-281.96 274,-243 274,-243 274,-243 274,-127 274,-93.175 266.035,-54.5229 260.419,-31.474"/>
<polygon fill="midnightblue" stroke="midnightblue" points="263.812,-30.6159 257.969,-21.7784 257.026,-32.3312 263.812,-30.6159"/>
</g>
<!-- Node24 -->
<g id="node58" class="node"><title>Node24</title>
<a xlink:href="fixedstring_8h.html" target="_top" xlink:title="fixedstring.h">
<polygon fill="white" stroke="black" points="176,-290.5 176,-311.5 246,-311.5 246,-290.5 176,-290.5"/>
<text text-anchor="middle" x="211" y="-298.5" font-family="Helvetica,sans-Serif" font-size="10.00">fixedstring.h</text>
</a>
</g>
<!-- Node23&#45;&gt;Node24 -->
<g id="edge68" class="edge"><title>Node23&#45;&gt;Node24</title>
<path fill="none" stroke="midnightblue" d="M268.978,-348.362C258.569,-339.859 243.781,-327.779 231.745,-317.947"/>
<polygon fill="midnightblue" stroke="midnightblue" points="233.899,-315.187 223.94,-311.571 229.47,-320.608 233.899,-315.187"/>
</g>
<!-- Node26 -->
<g id="node65" class="node"><title>Node26</title>
<a xlink:href="string2_8h.html" target="_top" xlink:title="string2.h">
<polygon fill="white" stroke="black" points="359,-116.5 359,-137.5 413,-137.5 413,-116.5 359,-116.5"/>
<text text-anchor="middle" x="386" y="-124.5" font-family="Helvetica,sans-Serif" font-size="10.00">string2.h</text>
</a>
</g>
<!-- Node23&#45;&gt;Node26 -->
<g id="edge78" class="edge"><title>Node23&#45;&gt;Node26</title>
<path fill="none" stroke="midnightblue" d="M286.739,-348.429C302.88,-312.422 355.885,-194.179 377.103,-146.847"/>
<polygon fill="midnightblue" stroke="midnightblue" points="380.336,-148.19 381.233,-137.634 373.949,-145.327 380.336,-148.19"/>
</g>
<!-- Node24&#45;&gt;Node4 -->
<g id="edge70" class="edge"><title>Node24&#45;&gt;Node4</title>
<path fill="none" stroke="midnightblue" d="M198.392,-290.489C157.528,-255.171 34.7725,-138.464 95,-58 108.984,-39.3178 168.803,-25.527 211.186,-17.8755"/>
<polygon fill="midnightblue" stroke="midnightblue" points="212.032,-21.2808 221.278,-16.1088 210.825,-14.3856 212.032,-21.2808"/>
</g>
<!-- Node25 -->
<g id="node61" class="node"><title>Node25</title>
<a xlink:href="odstring_8h.html" target="_top" xlink:title="odstring.h">
<polygon fill="white" stroke="black" points="187.5,-232.5 187.5,-253.5 246.5,-253.5 246.5,-232.5 187.5,-232.5"/>
<text text-anchor="middle" x="217" y="-240.5" font-family="Helvetica,sans-Serif" font-size="10.00">odstring.h</text>
</a>
</g>
<!-- Node24&#45;&gt;Node25 -->
<g id="edge72" class="edge"><title>Node24&#45;&gt;Node25</title>
<path fill="none" stroke="midnightblue" d="M212.1,-290.362C212.87,-282.922 213.923,-272.743 214.856,-263.728"/>
<polygon fill="midnightblue" stroke="midnightblue" points="218.359,-263.878 215.906,-253.571 211.396,-263.157 218.359,-263.878"/>
</g>
<!-- Node25&#45;&gt;Node4 -->
<g id="edge74" class="edge"><title>Node25&#45;&gt;Node4</title>
<path fill="none" stroke="midnightblue" d="M218.732,-232.429C224.592,-196.648 243.754,-79.6628 251.602,-31.7481"/>
<polygon fill="midnightblue" stroke="midnightblue" points="255.096,-32.0678 253.258,-21.6335 248.188,-30.9362 255.096,-32.0678"/>
</g>
<!-- Node25&#45;&gt;Node16 -->
<g id="edge76" class="edge"><title>Node25&#45;&gt;Node16</title>
<path fill="none" stroke="midnightblue" d="M246.74,-238.155C310.69,-227.736 461.306,-203.197 533.311,-191.466"/>
<polygon fill="midnightblue" stroke="midnightblue" points="534.038,-194.894 543.345,-189.831 532.912,-187.985 534.038,-194.894"/>
</g>
<!-- Node26&#45;&gt;Node4 -->
<g id="edge80" class="edge"><title>Node26&#45;&gt;Node4</title>
<path fill="none" stroke="midnightblue" d="M373.237,-116.28C362.03,-106.823 345.326,-92.6193 331,-80 311.48,-62.8053 289.511,-42.7861 274.233,-28.7536"/>
<polygon fill="midnightblue" stroke="midnightblue" points="276.219,-25.8255 266.491,-21.6296 271.479,-30.9765 276.219,-25.8255"/>
</g>
<!-- Node26&#45;&gt;Node7 -->
<g id="edge84" class="edge"><title>Node26&#45;&gt;Node7</title>
<path fill="none" stroke="midnightblue" d="M413.164,-121.491C460.879,-111.815 560.437,-91.6246 621.223,-79.2974"/>
<polygon fill="midnightblue" stroke="midnightblue" points="622.261,-82.6582 631.366,-77.2405 620.87,-75.7979 622.261,-82.6582"/>
</g>
<!-- Node26&#45;&gt;Node11 -->
<g id="edge82" class="edge"><title>Node26&#45;&gt;Node11</title>
<path fill="none" stroke="midnightblue" d="M413.311,-117.161C439.346,-107.782 478.816,-93.5632 508.127,-83.0038"/>
<polygon fill="midnightblue" stroke="midnightblue" points="509.422,-86.2576 517.644,-79.5754 507.05,-79.6719 509.422,-86.2576"/>
</g>
<!-- Node27 -->
<g id="node70" class="node"><title>Node27</title>
<polygon fill="white" stroke="#bfbfbf" points="339.5,-58.5 339.5,-79.5 388.5,-79.5 388.5,-58.5 339.5,-58.5"/>
<text text-anchor="middle" x="364" y="-66.5" font-family="Helvetica,sans-Serif" font-size="10.00">ctype.h</text>
</g>
<!-- Node26&#45;&gt;Node27 -->
<g id="edge86" class="edge"><title>Node26&#45;&gt;Node27</title>
<path fill="none" stroke="midnightblue" d="M381.965,-116.362C379.081,-108.758 375.112,-98.294 371.637,-89.1349"/>
<polygon fill="midnightblue" stroke="midnightblue" points="374.829,-87.6793 368.01,-79.5707 368.284,-90.1619 374.829,-87.6793"/>
</g>
<!-- Node28 -->
<g id="node72" class="node"><title>Node28</title>
<polygon fill="white" stroke="#bfbfbf" points="406,-58.5 406,-79.5 462,-79.5 462,-58.5 406,-58.5"/>
<text text-anchor="middle" x="434" y="-66.5" font-family="Helvetica,sans-Serif" font-size="10.00">wctype.h</text>
</g>
<!-- Node26&#45;&gt;Node28 -->
<g id="edge88" class="edge"><title>Node26&#45;&gt;Node28</title>
<path fill="none" stroke="midnightblue" d="M394.804,-116.362C401.502,-108.268 410.884,-96.9318 418.789,-87.3796"/>
<polygon fill="midnightblue" stroke="midnightblue" points="421.573,-89.5061 425.252,-79.5707 416.18,-85.0431 421.573,-89.5061"/>
</g>
<!-- Node31&#45;&gt;Node14 -->
<g id="edge106" class="edge"><title>Node31&#45;&gt;Node14</title>
<path fill="none" stroke="midnightblue" d="M519,-580.362C519,-572.922 519,-562.743 519,-553.728"/>
<polygon fill="midnightblue" stroke="midnightblue" points="522.5,-553.571 519,-543.571 515.5,-553.571 522.5,-553.571"/>
</g>
<!-- Node32 -->
<g id="node82" class="node"><title>Node32</title>
<a xlink:href="typeset_8h.html" target="_top" xlink:title="typeset.h">
<polygon fill="white" stroke="black" points="568.5,-522.5 568.5,-543.5 625.5,-543.5 625.5,-522.5 568.5,-522.5"/>
<text text-anchor="middle" x="597" y="-530.5" font-family="Helvetica,sans-Serif" font-size="10.00">typeset.h</text>
</a>
</g>
<!-- Node31&#45;&gt;Node32 -->
<g id="edge100" class="edge"><title>Node31&#45;&gt;Node32</title>
<path fill="none" stroke="midnightblue" d="M533.306,-580.362C544.851,-571.777 561.3,-559.546 574.59,-549.664"/>
<polygon fill="midnightblue" stroke="midnightblue" points="576.848,-552.346 582.784,-543.571 572.671,-546.729 576.848,-552.346"/>
</g>
<!-- Node32&#45;&gt;Node15 -->
<g id="edge102" class="edge"><title>Node32&#45;&gt;Node15</title>
<path fill="none" stroke="midnightblue" d="M602.869,-522.362C607.155,-514.595 613.087,-503.843 618.216,-494.546"/>
<polygon fill="midnightblue" stroke="midnightblue" points="621.402,-496.017 623.168,-485.571 615.273,-492.636 621.402,-496.017"/>
</g>
<!-- Node32&#45;&gt;Node21 -->
<g id="edge104" class="edge"><title>Node32&#45;&gt;Node21</title>
<path fill="none" stroke="midnightblue" d="M587.646,-522.362C580.457,-514.186 570.359,-502.702 561.907,-493.091"/>
<polygon fill="midnightblue" stroke="midnightblue" points="564.527,-490.769 555.295,-485.571 559.27,-495.392 564.527,-490.769"/>
</g>
<!-- Node33&#45;&gt;Node4 -->
<g id="edge110" class="edge"><title>Node33&#45;&gt;Node4</title>
<path fill="none" stroke="midnightblue" d="M489.433,-116.447C489.444,-101.275 487.076,-73.4315 471,-58 446.76,-34.7325 354.626,-21.3059 298.816,-15.1435"/>
<polygon fill="midnightblue" stroke="midnightblue" points="299.158,-11.6602 288.842,-14.0767 298.413,-18.6205 299.158,-11.6602"/>
</g>
<!-- Node33&#45;&gt;Node7 -->
<g id="edge112" class="edge"><title>Node33&#45;&gt;Node7</title>
<path fill="none" stroke="midnightblue" d="M522.14,-116.497C552.103,-107 596.396,-92.9619 629.062,-82.6087"/>
<polygon fill="midnightblue" stroke="midnightblue" points="630.323,-85.8809 638.798,-79.5231 628.208,-79.208 630.323,-85.8809"/>
</g>
<!-- Node33&#45;&gt;Node11 -->
<g id="edge114" class="edge"><title>Node33&#45;&gt;Node11</title>
<path fill="none" stroke="midnightblue" d="M499.638,-116.362C507.896,-108.104 519.528,-96.4725 529.197,-86.8029"/>
<polygon fill="midnightblue" stroke="midnightblue" points="531.833,-89.1166 536.429,-79.5707 526.883,-84.1669 531.833,-89.1166"/>
</g>
</g>
</svg>
