<?xml version="1.0" encoding="UTF-8" standalone="no"?>
<!DOCTYPE svg PUBLIC "-//W3C//DTD SVG 1.1//EN"
 "http://www.w3.org/Graphics/SVG/1.1/DTD/svg11.dtd">
<!-- Generated by graphviz version 2.26.0 (20091210.2329)
 -->
<!-- Title: uivolprocchain.h Pages: 1 -->
<svg width="382pt" height="88pt"
 viewBox="0.00 0.00 382.00 88.00" xmlns="http://www.w3.org/2000/svg" xmlns:xlink="http://www.w3.org/1999/xlink">
<g id="graph1" class="graph" transform="scale(1 1) rotate(0) translate(4 84)">
<title>uivolprocchain.h</title>
<polygon fill="white" stroke="white" points="-4,5 -4,-84 379,-84 379,5 -4,5"/>
<!-- Node1 -->
<g id="node1" class="node"><title>Node1</title>
<polygon fill="#bfbfbf" stroke="black" points="156.5,-58.5 156.5,-79.5 243.5,-79.5 243.5,-58.5 156.5,-58.5"/>
<text text-anchor="middle" x="200" y="-66.5" font-family="Helvetica,sans-Serif" font-size="10.00">uivolprocchain.h</text>
</g>
<!-- Node2 -->
<g id="node3" class="node"><title>Node2</title>
<a xlink:href="uivolproclateralsmoother_8h.html" target="_top" xlink:title="uivolproclateralsmoother.h">
<polygon fill="white" stroke="black" points="-0.5,-0.5 -0.5,-21.5 130.5,-21.5 130.5,-0.5 -0.5,-0.5"/>
<text text-anchor="middle" x="65" y="-8.5" font-family="Helvetica,sans-Serif" font-size="10.00">uivolproclateralsmoother.h</text>
</a>
</g>
<!-- Node1&#45;&gt;Node2 -->
<g id="edge2" class="edge"><title>Node1&#45;&gt;Node2</title>
<path fill="none" stroke="midnightblue" d="M166.202,-54.4794C142.438,-44.2695 111.176,-30.8386 89.7218,-21.6212"/>
<polygon fill="midnightblue" stroke="midnightblue" points="164.983,-57.7649 175.553,-58.4966 167.746,-51.3334 164.983,-57.7649"/>
</g>
<!-- Node3 -->
<g id="node5" class="node"><title>Node3</title>
<a xlink:href="uivolprocsmoother_8h.html" target="_top" xlink:title="uivolprocsmoother.h">
<polygon fill="white" stroke="black" points="148,-0.5 148,-21.5 252,-21.5 252,-0.5 148,-0.5"/>
<text text-anchor="middle" x="200" y="-8.5" font-family="Helvetica,sans-Serif" font-size="10.00">uivolprocsmoother.h</text>
</a>
</g>
<!-- Node1&#45;&gt;Node3 -->
<g id="edge4" class="edge"><title>Node1&#45;&gt;Node3</title>
<path fill="none" stroke="midnightblue" d="M200,-48.1906C200,-39.1684 200,-28.9941 200,-21.5707"/>
<polygon fill="midnightblue" stroke="midnightblue" points="196.5,-48.3619 200,-58.3619 203.5,-48.3619 196.5,-48.3619"/>
</g>
<!-- Node4 -->
<g id="node7" class="node"><title>Node4</title>
<a xlink:href="uivolprocvolreader_8h.html" target="_top" xlink:title="uivolprocvolreader.h">
<polygon fill="white" stroke="black" points="270,-0.5 270,-21.5 374,-21.5 374,-0.5 270,-0.5"/>
<text text-anchor="middle" x="322" y="-8.5" font-family="Helvetica,sans-Serif" font-size="10.00">uivolprocvolreader.h</text>
</a>
</g>
<!-- Node1&#45;&gt;Node4 -->
<g id="edge6" class="edge"><title>Node1&#45;&gt;Node4</title>
<path fill="none" stroke="midnightblue" d="M231.406,-54.0693C252.771,-43.9121 280.529,-30.7157 299.659,-21.6212"/>
<polygon fill="midnightblue" stroke="midnightblue" points="229.622,-51.042 222.093,-58.4966 232.627,-57.364 229.622,-51.042"/>
</g>
</g>
</svg>
