<?xml version="1.0" encoding="UTF-8" standalone="no"?>
<!DOCTYPE svg PUBLIC "-//W3C//DTD SVG 1.1//EN"
 "http://www.w3.org/Graphics/SVG/1.1/DTD/svg11.dtd">
<!-- Generated by graphviz version 2.26.0 (20091210.2329)
 -->
<!-- Title: uiworld2ui.h Pages: 1 -->
<svg width="298pt" height="146pt"
 viewBox="0.00 0.00 298.00 146.00" xmlns="http://www.w3.org/2000/svg" xmlns:xlink="http://www.w3.org/1999/xlink">
<g id="graph1" class="graph" transform="scale(1 1) rotate(0) translate(4 142)">
<title>uiworld2ui.h</title>
<polygon fill="white" stroke="white" points="-4,5 -4,-142 295,-142 295,5 -4,5"/>
<!-- Node1 -->
<g id="node1" class="node"><title>Node1</title>
<polygon fill="#bfbfbf" stroke="black" points="127,-116.5 127,-137.5 195,-137.5 195,-116.5 127,-116.5"/>
<text text-anchor="middle" x="161" y="-124.5" font-family="Helvetica,sans-Serif" font-size="10.00">uiworld2ui.h</text>
</g>
<!-- Node2 -->
<g id="node3" class="node"><title>Node2</title>
<a xlink:href="uigraphicsscalebar_8h.html" target="_top" xlink:title="uigraphicsscalebar.h">
<polygon fill="white" stroke="black" points="0,-58.5 0,-79.5 106,-79.5 106,-58.5 0,-58.5"/>
<text text-anchor="middle" x="53" y="-66.5" font-family="Helvetica,sans-Serif" font-size="10.00">uigraphicsscalebar.h</text>
</a>
</g>
<!-- Node1&#45;&gt;Node2 -->
<g id="edge2" class="edge"><title>Node1&#45;&gt;Node2</title>
<path fill="none" stroke="midnightblue" d="M132.428,-111.656C113.622,-101.556 89.4832,-88.5928 72.7774,-79.6212"/>
<polygon fill="midnightblue" stroke="midnightblue" points="130.976,-114.849 141.442,-116.497 134.288,-108.682 130.976,-114.849"/>
</g>
<!-- Node3 -->
<g id="node5" class="node"><title>Node3</title>
<a xlink:href="uiflatviewer_8h.html" target="_top" xlink:title="uiflatviewer.h">
<polygon fill="white" stroke="black" points="124,-58.5 124,-79.5 198,-79.5 198,-58.5 124,-58.5"/>
<text text-anchor="middle" x="161" y="-66.5" font-family="Helvetica,sans-Serif" font-size="10.00">uiflatviewer.h</text>
</a>
</g>
<!-- Node1&#45;&gt;Node3 -->
<g id="edge4" class="edge"><title>Node1&#45;&gt;Node3</title>
<path fill="none" stroke="midnightblue" d="M161,-106.191C161,-97.1684 161,-86.9941 161,-79.5707"/>
<polygon fill="midnightblue" stroke="midnightblue" points="157.5,-106.362 161,-116.362 164.5,-106.362 157.5,-106.362"/>
</g>
<!-- Node6 -->
<g id="node11" class="node"><title>Node6</title>
<a xlink:href="densitycalc_8h.html" target="_top" xlink:title="densitycalc.h">
<polygon fill="white" stroke="black" points="216,-58.5 216,-79.5 290,-79.5 290,-58.5 216,-58.5"/>
<text text-anchor="middle" x="253" y="-66.5" font-family="Helvetica,sans-Serif" font-size="10.00">densitycalc.h</text>
</a>
</g>
<!-- Node1&#45;&gt;Node6 -->
<g id="edge10" class="edge"><title>Node1&#45;&gt;Node6</title>
<path fill="none" stroke="midnightblue" d="M186.662,-110.821C202.509,-100.831 222.387,-88.2993 236.233,-79.5707"/>
<polygon fill="midnightblue" stroke="midnightblue" points="184.467,-108.068 177.874,-116.362 188.2,-113.99 184.467,-108.068"/>
</g>
<!-- Node4 -->
<g id="node7" class="node"><title>Node4</title>
<a xlink:href="uiseissingtrcdisp_8h.html" target="_top" xlink:title="uiseissingtrcdisp.h">
<polygon fill="white" stroke="black" points="58,-0.5 58,-21.5 156,-21.5 156,-0.5 58,-0.5"/>
<text text-anchor="middle" x="107" y="-8.5" font-family="Helvetica,sans-Serif" font-size="10.00">uiseissingtrcdisp.h</text>
</a>
</g>
<!-- Node3&#45;&gt;Node4 -->
<g id="edge6" class="edge"><title>Node3&#45;&gt;Node4</title>
<path fill="none" stroke="midnightblue" d="M144.083,-50.8299C135.125,-41.2078 124.437,-29.7282 116.842,-21.5707"/>
<polygon fill="midnightblue" stroke="midnightblue" points="141.72,-53.4279 151.096,-58.3619 146.843,-48.658 141.72,-53.4279"/>
</g>
<!-- Node5 -->
<g id="node9" class="node"><title>Node5</title>
<a xlink:href="uiwelltieview_8h.html" target="_top" xlink:title="uiwelltieview.h">
<polygon fill="white" stroke="black" points="174,-0.5 174,-21.5 254,-21.5 254,-0.5 174,-0.5"/>
<text text-anchor="middle" x="214" y="-8.5" font-family="Helvetica,sans-Serif" font-size="10.00">uiwelltieview.h</text>
</a>
</g>
<!-- Node3&#45;&gt;Node5 -->
<g id="edge8" class="edge"><title>Node3&#45;&gt;Node5</title>
<path fill="none" stroke="midnightblue" d="M177.604,-50.8299C186.396,-41.2078 196.886,-29.7282 204.341,-21.5707"/>
<polygon fill="midnightblue" stroke="midnightblue" points="174.883,-48.6188 170.721,-58.3619 180.051,-53.3408 174.883,-48.6188"/>
</g>
</g>
</svg>
