<?xml version="1.0" encoding="UTF-8" standalone="no"?>
<!DOCTYPE svg PUBLIC "-//W3C//DTD SVG 1.1//EN"
 "http://www.w3.org/Graphics/SVG/1.1/DTD/svg11.dtd">
<!-- Generated by graphviz version 2.26.0 (20091210.2329)
 -->
<!-- Title: undo.h Pages: 1 -->
<svg width="1000pt" height="262pt"
 viewBox="0.00 0.00 1000.00 262.00" xmlns="http://www.w3.org/2000/svg" xmlns:xlink="http://www.w3.org/1999/xlink">
<g id="graph1" class="graph" transform="scale(1 1) rotate(0) translate(4 258)">
<title>undo.h</title>
<polygon fill="white" stroke="white" points="-4,5 -4,-258 997,-258 997,5 -4,5"/>
<!-- Node1 -->
<g id="node1" class="node"><title>Node1</title>
<polygon fill="#bfbfbf" stroke="black" points="415,-232.5 415,-253.5 461,-253.5 461,-232.5 415,-232.5"/>
<text text-anchor="middle" x="438" y="-240.5" font-family="Helvetica,sans-Serif" font-size="10.00">undo.h</text>
</g>
<!-- Node2 -->
<g id="node3" class="node"><title>Node2</title>
<a xlink:href="picksetmgr_8h.html" target="_top" xlink:title="picksetmgr.h">
<polygon fill="white" stroke="black" points="14.5,-174.5 14.5,-195.5 87.5,-195.5 87.5,-174.5 14.5,-174.5"/>
<text text-anchor="middle" x="51" y="-182.5" font-family="Helvetica,sans-Serif" font-size="10.00">picksetmgr.h</text>
</a>
</g>
<!-- Node1&#45;&gt;Node2 -->
<g id="edge2" class="edge"><title>Node1&#45;&gt;Node2</title>
<path fill="none" stroke="midnightblue" d="M404.651,-238.002C332.586,-227.202 162.799,-201.755 87.7596,-190.509"/>
<polygon fill="midnightblue" stroke="midnightblue" points="404.542,-241.525 414.95,-239.546 405.58,-234.602 404.542,-241.525"/>
</g>
<!-- Node5 -->
<g id="node10" class="node"><title>Node5</title>
<a xlink:href="emfault_8h.html" target="_top" xlink:title="emfault.h">
<polygon fill="white" stroke="black" points="152.5,-174.5 152.5,-195.5 209.5,-195.5 209.5,-174.5 152.5,-174.5"/>
<text text-anchor="middle" x="181" y="-182.5" font-family="Helvetica,sans-Serif" font-size="10.00">emfault.h</text>
</a>
</g>
<!-- Node1&#45;&gt;Node5 -->
<g id="edge10" class="edge"><title>Node1&#45;&gt;Node5</title>
<path fill="none" stroke="midnightblue" d="M404.928,-235.536C354.17,-224.081 257.905,-202.356 209.829,-191.506"/>
<polygon fill="midnightblue" stroke="midnightblue" points="404.214,-238.963 414.74,-237.751 405.756,-232.135 404.214,-238.963"/>
</g>
<!-- Node9 -->
<g id="node19" class="node"><title>Node9</title>
<a xlink:href="emundo_8h.html" target="_top" xlink:title="emundo.h">
<polygon fill="white" stroke="black" points="253.5,-174.5 253.5,-195.5 312.5,-195.5 312.5,-174.5 253.5,-174.5"/>
<text text-anchor="middle" x="283" y="-182.5" font-family="Helvetica,sans-Serif" font-size="10.00">emundo.h</text>
</a>
</g>
<!-- Node1&#45;&gt;Node9 -->
<g id="edge20" class="edge"><title>Node1&#45;&gt;Node9</title>
<path fill="none" stroke="midnightblue" d="M405.084,-230.683C377.165,-220.236 337.548,-205.412 311.097,-195.514"/>
<polygon fill="midnightblue" stroke="midnightblue" points="404.203,-234.09 414.795,-234.317 406.656,-227.534 404.203,-234.09"/>
</g>
<!-- Node11 -->
<g id="node23" class="node"><title>Node11</title>
<a xlink:href="velocitypicksundo_8h.html" target="_top" xlink:title="velocitypicksundo.h">
<polygon fill="white" stroke="black" points="329.5,-174.5 329.5,-195.5 432.5,-195.5 432.5,-174.5 329.5,-174.5"/>
<text text-anchor="middle" x="381" y="-182.5" font-family="Helvetica,sans-Serif" font-size="10.00">velocitypicksundo.h</text>
</a>
</g>
<!-- Node1&#45;&gt;Node11 -->
<g id="edge24" class="edge"><title>Node1&#45;&gt;Node11</title>
<path fill="none" stroke="midnightblue" d="M420.426,-225.118C410.913,-215.438 399.486,-203.81 391.388,-195.571"/>
<polygon fill="midnightblue" stroke="midnightblue" points="418.04,-227.683 427.545,-232.362 423.032,-222.776 418.04,-227.683"/>
</g>
<!-- Node12 -->
<g id="node25" class="node"><title>Node12</title>
<a xlink:href="prestackevents_8h.html" target="_top" xlink:title="prestackevents.h">
<polygon fill="white" stroke="black" points="450,-174.5 450,-195.5 542,-195.5 542,-174.5 450,-174.5"/>
<text text-anchor="middle" x="496" y="-182.5" font-family="Helvetica,sans-Serif" font-size="10.00">prestackevents.h</text>
</a>
</g>
<!-- Node1&#45;&gt;Node12 -->
<g id="edge26" class="edge"><title>Node1&#45;&gt;Node12</title>
<path fill="none" stroke="midnightblue" d="M455.882,-225.118C465.562,-215.438 477.19,-203.81 485.429,-195.571"/>
<polygon fill="midnightblue" stroke="midnightblue" points="453.234,-222.816 448.638,-232.362 458.184,-227.766 453.234,-222.816"/>
</g>
<!-- Node14 -->
<g id="node29" class="node"><title>Node14</title>
<a xlink:href="emseedpicker_8h.html" target="_top" xlink:title="emseedpicker.h">
<polygon fill="white" stroke="black" points="586,-174.5 586,-195.5 672,-195.5 672,-174.5 586,-174.5"/>
<text text-anchor="middle" x="629" y="-182.5" font-family="Helvetica,sans-Serif" font-size="10.00">emseedpicker.h</text>
</a>
</g>
<!-- Node1&#45;&gt;Node14 -->
<g id="edge30" class="edge"><title>Node1&#45;&gt;Node14</title>
<path fill="none" stroke="midnightblue" d="M470.618,-233.095C505.024,-222.647 559.032,-206.247 594.23,-195.559"/>
<polygon fill="midnightblue" stroke="midnightblue" points="469.591,-229.749 461.039,-236.004 471.625,-236.447 469.591,-229.749"/>
</g>
<!-- Node22 -->
<g id="node46" class="node"><title>Node22</title>
<a xlink:href="uiwelltiecheckshotedit_8h.html" target="_top" xlink:title="uiwelltiecheckshotedit.h">
<polygon fill="white" stroke="black" points="689.5,-174.5 689.5,-195.5 810.5,-195.5 810.5,-174.5 689.5,-174.5"/>
<text text-anchor="middle" x="750" y="-182.5" font-family="Helvetica,sans-Serif" font-size="10.00">uiwelltiecheckshotedit.h</text>
</a>
</g>
<!-- Node1&#45;&gt;Node22 -->
<g id="edge48" class="edge"><title>Node1&#45;&gt;Node22</title>
<path fill="none" stroke="midnightblue" d="M471.072,-236.852C524.017,-227.01 628.441,-207.597 693.418,-195.518"/>
<polygon fill="midnightblue" stroke="midnightblue" points="470.388,-233.419 461.196,-238.688 471.667,-240.301 470.388,-233.419"/>
</g>
<!-- Node23 -->
<g id="node48" class="node"><title>Node23</title>
<a xlink:href="visplanedatadisplay_8h.html" target="_top" xlink:title="visplanedatadisplay.h">
<polygon fill="white" stroke="black" points="828,-174.5 828,-195.5 938,-195.5 938,-174.5 828,-174.5"/>
<text text-anchor="middle" x="883" y="-182.5" font-family="Helvetica,sans-Serif" font-size="10.00">visplanedatadisplay.h</text>
</a>
</g>
<!-- Node1&#45;&gt;Node23 -->
<g id="edge50" class="edge"><title>Node1&#45;&gt;Node23</title>
<path fill="none" stroke="midnightblue" d="M471.515,-239.407C537.944,-232.166 690.964,-214.889 819,-196 821.9,-195.572 824.871,-195.118 827.869,-194.647"/>
<polygon fill="midnightblue" stroke="midnightblue" points="470.809,-235.963 461.245,-240.521 471.565,-242.922 470.809,-235.963"/>
</g>
<!-- Node3 -->
<g id="node5" class="node"><title>Node3</title>
<a xlink:href="pickset_8h.html" target="_top" xlink:title="pickset.h">
<polygon fill="white" stroke="black" points="23,-116.5 23,-137.5 79,-137.5 79,-116.5 23,-116.5"/>
<text text-anchor="middle" x="51" y="-124.5" font-family="Helvetica,sans-Serif" font-size="10.00">pickset.h</text>
</a>
</g>
<!-- Node2&#45;&gt;Node3 -->
<g id="edge4" class="edge"><title>Node2&#45;&gt;Node3</title>
<path fill="none" stroke="midnightblue" d="M44.4952,-164.191C43.9414,-155.168 44.3257,-144.994 45.6479,-137.571"/>
<polygon fill="midnightblue" stroke="midnightblue" points="41.0431,-164.814 45.6359,-174.362 47.9995,-164.034 41.0431,-164.814"/>
</g>
<!-- Node3&#45;&gt;Node2 -->
<g id="edge6" class="edge"><title>Node3&#45;&gt;Node2</title>
<path fill="none" stroke="midnightblue" d="M57.4997,-147.728C58.0592,-156.743 57.6806,-166.922 56.3641,-174.362"/>
<polygon fill="midnightblue" stroke="midnightblue" points="60.9528,-147.114 56.3521,-137.571 53.9971,-147.9 60.9528,-147.114"/>
</g>
<!-- Node4 -->
<g id="node8" class="node"><title>Node4</title>
<a xlink:href="uiodannottreeitem_8h.html" target="_top" xlink:title="uiodannottreeitem.h">
<polygon fill="white" stroke="black" points="0,-58.5 0,-79.5 102,-79.5 102,-58.5 0,-58.5"/>
<text text-anchor="middle" x="51" y="-66.5" font-family="Helvetica,sans-Serif" font-size="10.00">uiodannottreeitem.h</text>
</a>
</g>
<!-- Node3&#45;&gt;Node4 -->
<g id="edge8" class="edge"><title>Node3&#45;&gt;Node4</title>
<path fill="none" stroke="midnightblue" d="M51,-106.191C51,-97.1684 51,-86.9941 51,-79.5707"/>
<polygon fill="midnightblue" stroke="midnightblue" points="47.5001,-106.362 51,-116.362 54.5001,-106.362 47.5001,-106.362"/>
</g>
<!-- Node6 -->
<g id="node12" class="node"><title>Node6</title>
<a xlink:href="emfault3d_8h.html" target="_top" xlink:title="emfault3d.h">
<polygon fill="white" stroke="black" points="133,-58.5 133,-79.5 201,-79.5 201,-58.5 133,-58.5"/>
<text text-anchor="middle" x="167" y="-66.5" font-family="Helvetica,sans-Serif" font-size="10.00">emfault3d.h</text>
</a>
</g>
<!-- Node5&#45;&gt;Node6 -->
<g id="edge12" class="edge"><title>Node5&#45;&gt;Node6</title>
<path fill="none" stroke="midnightblue" d="M153.287,-168.751C142.687,-160.929 131.766,-150.511 126,-138 116.027,-116.36 137.671,-92.8428 153.143,-79.612"/>
<polygon fill="midnightblue" stroke="midnightblue" points="151.387,-171.692 161.615,-174.458 155.344,-165.918 151.387,-171.692"/>
</g>
<!-- Node8 -->
<g id="node16" class="node"><title>Node8</title>
<a xlink:href="emfaultstickset_8h.html" target="_top" xlink:title="emfaultstickset.h">
<polygon fill="white" stroke="black" points="135,-116.5 135,-137.5 227,-137.5 227,-116.5 135,-116.5"/>
<text text-anchor="middle" x="181" y="-124.5" font-family="Helvetica,sans-Serif" font-size="10.00">emfaultstickset.h</text>
</a>
</g>
<!-- Node5&#45;&gt;Node8 -->
<g id="edge16" class="edge"><title>Node5&#45;&gt;Node8</title>
<path fill="none" stroke="midnightblue" d="M181,-164.191C181,-155.168 181,-144.994 181,-137.571"/>
<polygon fill="midnightblue" stroke="midnightblue" points="177.5,-164.362 181,-174.362 184.5,-164.362 177.5,-164.362"/>
</g>
<!-- Node7 -->
<g id="node14" class="node"><title>Node7</title>
<a xlink:href="emfaultset3d_8h.html" target="_top" xlink:title="emfaultset3d.h">
<polygon fill="white" stroke="black" points="126.5,-0.5 126.5,-21.5 207.5,-21.5 207.5,-0.5 126.5,-0.5"/>
<text text-anchor="middle" x="167" y="-8.5" font-family="Helvetica,sans-Serif" font-size="10.00">emfaultset3d.h</text>
</a>
</g>
<!-- Node6&#45;&gt;Node7 -->
<g id="edge14" class="edge"><title>Node6&#45;&gt;Node7</title>
<path fill="none" stroke="midnightblue" d="M167,-48.1906C167,-39.1684 167,-28.9941 167,-21.5707"/>
<polygon fill="midnightblue" stroke="midnightblue" points="163.5,-48.3619 167,-58.3619 170.5,-48.3619 163.5,-48.3619"/>
</g>
<!-- Node8&#45;&gt;Node6 -->
<g id="edge18" class="edge"><title>Node8&#45;&gt;Node6</title>
<path fill="none" stroke="midnightblue" d="M176.049,-106.488C173.853,-97.3924 171.363,-87.0756 169.552,-79.5707"/>
<polygon fill="midnightblue" stroke="midnightblue" points="172.683,-107.462 178.432,-116.362 179.488,-105.82 172.683,-107.462"/>
</g>
<!-- Node10 -->
<g id="node21" class="node"><title>Node10</title>
<a xlink:href="emmanager_8h.html" target="_top" xlink:title="emmanager.h">
<polygon fill="white" stroke="black" points="245,-116.5 245,-137.5 321,-137.5 321,-116.5 245,-116.5"/>
<text text-anchor="middle" x="283" y="-124.5" font-family="Helvetica,sans-Serif" font-size="10.00">emmanager.h</text>
</a>
</g>
<!-- Node9&#45;&gt;Node10 -->
<g id="edge22" class="edge"><title>Node9&#45;&gt;Node10</title>
<path fill="none" stroke="midnightblue" d="M283,-164.191C283,-155.168 283,-144.994 283,-137.571"/>
<polygon fill="midnightblue" stroke="midnightblue" points="279.5,-164.362 283,-174.362 286.5,-164.362 279.5,-164.362"/>
</g>
<!-- Node13 -->
<g id="node27" class="node"><title>Node13</title>
<a xlink:href="prestackeventascio_8h.html" target="_top" xlink:title="prestackeventascio.h">
<polygon fill="white" stroke="black" points="339,-116.5 339,-137.5 449,-137.5 449,-116.5 339,-116.5"/>
<text text-anchor="middle" x="394" y="-124.5" font-family="Helvetica,sans-Serif" font-size="10.00">prestackeventascio.h</text>
</a>
</g>
<!-- Node12&#45;&gt;Node13 -->
<g id="edge28" class="edge"><title>Node12&#45;&gt;Node13</title>
<path fill="none" stroke="midnightblue" d="M468.529,-169.379C450.805,-159.301 428.227,-146.462 412.59,-137.571"/>
<polygon fill="midnightblue" stroke="midnightblue" points="466.869,-172.461 477.292,-174.362 470.329,-166.376 466.869,-172.461"/>
</g>
<!-- Node15 -->
<g id="node31" class="node"><title>Node15</title>
<a xlink:href="horizon2dseedpicker_8h.html" target="_top" xlink:title="horizon2dseedpicker.h">
<polygon fill="white" stroke="black" points="467,-116.5 467,-137.5 581,-137.5 581,-116.5 467,-116.5"/>
<text text-anchor="middle" x="524" y="-124.5" font-family="Helvetica,sans-Serif" font-size="10.00">horizon2dseedpicker.h</text>
</a>
</g>
<!-- Node14&#45;&gt;Node15 -->
<g id="edge32" class="edge"><title>Node14&#45;&gt;Node15</title>
<path fill="none" stroke="midnightblue" d="M600.971,-169.517C582.689,-159.419 559.308,-146.503 543.137,-137.571"/>
<polygon fill="midnightblue" stroke="midnightblue" points="599.296,-172.59 609.741,-174.362 602.68,-166.463 599.296,-172.59"/>
</g>
<!-- Node16 -->
<g id="node33" class="node"><title>Node16</title>
<a xlink:href="horizon3dseedpicker_8h.html" target="_top" xlink:title="horizon3dseedpicker.h">
<polygon fill="white" stroke="black" points="599,-116.5 599,-137.5 713,-137.5 713,-116.5 599,-116.5"/>
<text text-anchor="middle" x="656" y="-124.5" font-family="Helvetica,sans-Serif" font-size="10.00">horizon3dseedpicker.h</text>
</a>
</g>
<!-- Node14&#45;&gt;Node16 -->
<g id="edge34" class="edge"><title>Node14&#45;&gt;Node16</title>
<path fill="none" stroke="midnightblue" d="M638.274,-165.079C642.573,-155.842 647.51,-145.239 651.079,-137.571"/>
<polygon fill="midnightblue" stroke="midnightblue" points="635,-163.819 633.952,-174.362 641.346,-166.773 635,-163.819"/>
</g>
<!-- Node17 -->
<g id="node35" class="node"><title>Node17</title>
<a xlink:href="uihorizontracksetup_8h.html" target="_top" xlink:title="uihorizontracksetup.h">
<polygon fill="white" stroke="black" points="648,-58.5 648,-79.5 758,-79.5 758,-58.5 648,-58.5"/>
<text text-anchor="middle" x="703" y="-66.5" font-family="Helvetica,sans-Serif" font-size="10.00">uihorizontracksetup.h</text>
</a>
</g>
<!-- Node14&#45;&gt;Node17 -->
<g id="edge36" class="edge"><title>Node14&#45;&gt;Node17</title>
<path fill="none" stroke="midnightblue" d="M681.03,-170.604C696.969,-163.486 712.73,-153.071 722,-138 733.457,-119.373 720.18,-93.745 710.763,-79.5464"/>
<polygon fill="midnightblue" stroke="midnightblue" points="679.607,-167.404 671.672,-174.424 682.253,-173.885 679.607,-167.404"/>
</g>
<!-- Node18 -->
<g id="node37" class="node"><title>Node18</title>
<a xlink:href="uimpe_8h.html" target="_top" xlink:title="uimpe.h">
<polygon fill="white" stroke="black" points="768.5,-116.5 768.5,-137.5 819.5,-137.5 819.5,-116.5 768.5,-116.5"/>
<text text-anchor="middle" x="794" y="-124.5" font-family="Helvetica,sans-Serif" font-size="10.00">uimpe.h</text>
</a>
</g>
<!-- Node14&#45;&gt;Node18 -->
<g id="edge38" class="edge"><title>Node14&#45;&gt;Node18</title>
<path fill="none" stroke="midnightblue" d="M668.511,-171.111C699.494,-160.22 741.702,-145.383 768.403,-135.998"/>
<polygon fill="midnightblue" stroke="midnightblue" points="667.154,-167.878 658.88,-174.497 669.475,-174.482 667.154,-167.878"/>
</g>
<!-- Node21 -->
<g id="node44" class="node"><title>Node21</title>
<a xlink:href="vismpeeditor_8h.html" target="_top" xlink:title="vismpeeditor.h">
<polygon fill="white" stroke="black" points="837,-116.5 837,-137.5 917,-137.5 917,-116.5 837,-116.5"/>
<text text-anchor="middle" x="877" y="-124.5" font-family="Helvetica,sans-Serif" font-size="10.00">vismpeeditor.h</text>
</a>
</g>
<!-- Node14&#45;&gt;Node21 -->
<g id="edge46" class="edge"><title>Node14&#45;&gt;Node21</title>
<path fill="none" stroke="midnightblue" d="M682.061,-172.591C728.404,-161.752 794.669,-146.255 836.758,-136.411"/>
<polygon fill="midnightblue" stroke="midnightblue" points="681.138,-169.212 672.198,-174.897 682.733,-176.028 681.138,-169.212"/>
</g>
<!-- Node18&#45;&gt;Node17 -->
<g id="edge40" class="edge"><title>Node18&#45;&gt;Node17</title>
<path fill="none" stroke="midnightblue" d="M768.616,-110.821C752.942,-100.831 733.28,-88.2993 719.585,-79.5707"/>
<polygon fill="midnightblue" stroke="midnightblue" points="766.995,-113.939 777.309,-116.362 770.758,-108.036 766.995,-113.939"/>
</g>
<!-- Node19 -->
<g id="node40" class="node"><title>Node19</title>
<a xlink:href="uimpecorrelationgrp_8h.html" target="_top" xlink:title="uimpecorrelationgrp.h">
<polygon fill="white" stroke="black" points="776,-58.5 776,-79.5 886,-79.5 886,-58.5 776,-58.5"/>
<text text-anchor="middle" x="831" y="-66.5" font-family="Helvetica,sans-Serif" font-size="10.00">uimpecorrelationgrp.h</text>
</a>
</g>
<!-- Node18&#45;&gt;Node19 -->
<g id="edge42" class="edge"><title>Node18&#45;&gt;Node19</title>
<path fill="none" stroke="midnightblue" d="M806.333,-107.667C812.312,-98.2948 819.261,-87.4019 824.257,-79.5707"/>
<polygon fill="midnightblue" stroke="midnightblue" points="803.214,-106.049 800.786,-116.362 809.115,-109.814 803.214,-106.049"/>
</g>
<!-- Node20 -->
<g id="node42" class="node"><title>Node20</title>
<a xlink:href="uimpeeventgrp_8h.html" target="_top" xlink:title="uimpeeventgrp.h">
<polygon fill="white" stroke="black" points="903.5,-58.5 903.5,-79.5 992.5,-79.5 992.5,-58.5 903.5,-58.5"/>
<text text-anchor="middle" x="948" y="-66.5" font-family="Helvetica,sans-Serif" font-size="10.00">uimpeeventgrp.h</text>
</a>
</g>
<!-- Node18&#45;&gt;Node20 -->
<g id="edge44" class="edge"><title>Node18&#45;&gt;Node20</title>
<path fill="none" stroke="midnightblue" d="M829.42,-113.66C856.954,-103.29 894.62,-89.104 920.053,-79.5254"/>
<polygon fill="midnightblue" stroke="midnightblue" points="827.901,-110.492 819.776,-117.292 830.368,-117.043 827.901,-110.492"/>
</g>
</g>
</svg>
