<?xml version="1.0" encoding="UTF-8" standalone="no"?>
<!DOCTYPE svg PUBLIC "-//W3C//DTD SVG 1.1//EN"
 "http://www.w3.org/Graphics/SVG/1.1/DTD/svg11.dtd">
<!-- Generated by graphviz version 2.26.0 (20091210.2329)
 -->
<!-- Title: userinputobj.h Pages: 1 -->
<svg width="484pt" height="146pt"
 viewBox="0.00 0.00 484.00 146.00" xmlns="http://www.w3.org/2000/svg" xmlns:xlink="http://www.w3.org/1999/xlink">
<g id="graph1" class="graph" transform="scale(1 1) rotate(0) translate(4 142)">
<title>userinputobj.h</title>
<polygon fill="white" stroke="white" points="-4,5 -4,-142 481,-142 481,5 -4,5"/>
<!-- Node1 -->
<g id="node1" class="node"><title>Node1</title>
<polygon fill="#bfbfbf" stroke="black" points="291.5,-116.5 291.5,-137.5 368.5,-137.5 368.5,-116.5 291.5,-116.5"/>
<text text-anchor="middle" x="330" y="-124.5" font-family="Helvetica,sans-Serif" font-size="10.00">userinputobj.h</text>
</g>
<!-- Node2 -->
<g id="node3" class="node"><title>Node2</title>
<a xlink:href="uicombobox_8h.html" target="_top" xlink:title="uicombobox.h">
<polygon fill="white" stroke="black" points="147.5,-58.5 147.5,-79.5 224.5,-79.5 224.5,-58.5 147.5,-58.5"/>
<text text-anchor="middle" x="186" y="-66.5" font-family="Helvetica,sans-Serif" font-size="10.00">uicombobox.h</text>
</a>
</g>
<!-- Node1&#45;&gt;Node2 -->
<g id="edge2" class="edge"><title>Node1&#45;&gt;Node2</title>
<path fill="none" stroke="midnightblue" d="M294.623,-112.751C269.194,-102.509 235.458,-88.9206 212.37,-79.6212"/>
<polygon fill="midnightblue" stroke="midnightblue" points="293.339,-116.007 303.923,-116.497 295.954,-109.514 293.339,-116.007"/>
</g>
<!-- Node6 -->
<g id="node11" class="node"><title>Node6</title>
<a xlink:href="uilineedit_8h.html" target="_top" xlink:title="uilineedit.h">
<polygon fill="white" stroke="black" points="298.5,-58.5 298.5,-79.5 361.5,-79.5 361.5,-58.5 298.5,-58.5"/>
<text text-anchor="middle" x="330" y="-66.5" font-family="Helvetica,sans-Serif" font-size="10.00">uilineedit.h</text>
</a>
</g>
<!-- Node1&#45;&gt;Node6 -->
<g id="edge10" class="edge"><title>Node1&#45;&gt;Node6</title>
<path fill="none" stroke="midnightblue" d="M330,-106.191C330,-97.1684 330,-86.9941 330,-79.5707"/>
<polygon fill="midnightblue" stroke="midnightblue" points="326.5,-106.362 330,-116.362 333.5,-106.362 326.5,-106.362"/>
</g>
<!-- Node9 -->
<g id="node17" class="node"><title>Node9</title>
<a xlink:href="uigeninput__impl_8h.html" target="_top" xlink:title="uigeninput_impl.h">
<polygon fill="white" stroke="black" points="379,-58.5 379,-79.5 471,-79.5 471,-58.5 379,-58.5"/>
<text text-anchor="middle" x="425" y="-66.5" font-family="Helvetica,sans-Serif" font-size="10.00">uigeninput_impl.h</text>
</a>
</g>
<!-- Node1&#45;&gt;Node9 -->
<g id="edge16" class="edge"><title>Node1&#45;&gt;Node9</title>
<path fill="none" stroke="midnightblue" d="M356.042,-111.101C372.478,-101.066 393.256,-88.3808 407.686,-79.5707"/>
<polygon fill="midnightblue" stroke="midnightblue" points="354.136,-108.164 347.424,-116.362 357.783,-114.138 354.136,-108.164"/>
</g>
<!-- Node3 -->
<g id="node5" class="node"><title>Node3</title>
<a xlink:href="i__qcombobox_8h.html" target="_top" xlink:title="i_qcombobox.h">
<polygon fill="white" stroke="black" points="-0.5,-0.5 -0.5,-21.5 82.5,-21.5 82.5,-0.5 -0.5,-0.5"/>
<text text-anchor="middle" x="41" y="-8.5" font-family="Helvetica,sans-Serif" font-size="10.00">i_qcombobox.h</text>
</a>
</g>
<!-- Node2&#45;&gt;Node3 -->
<g id="edge4" class="edge"><title>Node2&#45;&gt;Node3</title>
<path fill="none" stroke="midnightblue" d="M150.377,-54.7509C124.771,-44.5086 90.8014,-30.9206 67.553,-21.6212"/>
<polygon fill="midnightblue" stroke="midnightblue" points="149.157,-58.0323 159.742,-58.4966 151.757,-51.533 149.157,-58.0323"/>
</g>
<!-- Node4 -->
<g id="node7" class="node"><title>Node4</title>
<a xlink:href="uicolortable_8h.html" target="_top" xlink:title="uicolortable.h">
<polygon fill="white" stroke="black" points="100,-0.5 100,-21.5 174,-21.5 174,-0.5 100,-0.5"/>
<text text-anchor="middle" x="137" y="-8.5" font-family="Helvetica,sans-Serif" font-size="10.00">uicolortable.h</text>
</a>
</g>
<!-- Node2&#45;&gt;Node4 -->
<g id="edge6" class="edge"><title>Node2&#45;&gt;Node4</title>
<path fill="none" stroke="midnightblue" d="M170.405,-50.5407C162.327,-40.9786 152.753,-29.6467 145.93,-21.5707"/>
<polygon fill="midnightblue" stroke="midnightblue" points="167.885,-52.9818 177.013,-58.3619 173.233,-48.4643 167.885,-52.9818"/>
</g>
<!-- Node5 -->
<g id="node9" class="node"><title>Node5</title>
<a xlink:href="listcommands_8h.html" target="_top" xlink:title="listcommands.h">
<polygon fill="white" stroke="black" points="192,-0.5 192,-21.5 278,-21.5 278,-0.5 192,-0.5"/>
<text text-anchor="middle" x="235" y="-8.5" font-family="Helvetica,sans-Serif" font-size="10.00">listcommands.h</text>
</a>
</g>
<!-- Node2&#45;&gt;Node5 -->
<g id="edge8" class="edge"><title>Node2&#45;&gt;Node5</title>
<path fill="none" stroke="midnightblue" d="M201.595,-50.5407C209.673,-40.9786 219.247,-29.6467 226.07,-21.5707"/>
<polygon fill="midnightblue" stroke="midnightblue" points="198.767,-48.4643 194.987,-58.3619 204.115,-52.9818 198.767,-48.4643"/>
</g>
<!-- Node7 -->
<g id="node13" class="node"><title>Node7</title>
<a xlink:href="i__qlineedit_8h.html" target="_top" xlink:title="i_qlineedit.h">
<polygon fill="white" stroke="black" points="296,-0.5 296,-21.5 364,-21.5 364,-0.5 296,-0.5"/>
<text text-anchor="middle" x="330" y="-8.5" font-family="Helvetica,sans-Serif" font-size="10.00">i_qlineedit.h</text>
</a>
</g>
<!-- Node6&#45;&gt;Node7 -->
<g id="edge12" class="edge"><title>Node6&#45;&gt;Node7</title>
<path fill="none" stroke="midnightblue" d="M330,-48.1906C330,-39.1684 330,-28.9941 330,-21.5707"/>
<polygon fill="midnightblue" stroke="midnightblue" points="326.5,-48.3619 330,-58.3619 333.5,-48.3619 326.5,-48.3619"/>
</g>
<!-- Node8 -->
<g id="node15" class="node"><title>Node8</title>
<a xlink:href="inputcommands_8h.html" target="_top" xlink:title="inputcommands.h">
<polygon fill="white" stroke="black" points="382,-0.5 382,-21.5 476,-21.5 476,-0.5 382,-0.5"/>
<text text-anchor="middle" x="429" y="-8.5" font-family="Helvetica,sans-Serif" font-size="10.00">inputcommands.h</text>
</a>
</g>
<!-- Node6&#45;&gt;Node8 -->
<g id="edge14" class="edge"><title>Node6&#45;&gt;Node8</title>
<path fill="none" stroke="midnightblue" d="M357.138,-53.1009C374.267,-43.0658 395.919,-30.3808 410.957,-21.5707"/>
<polygon fill="midnightblue" stroke="midnightblue" points="355.017,-50.287 348.158,-58.3619 358.556,-56.3268 355.017,-50.287"/>
</g>
</g>
</svg>
