<?xml version="1.0" encoding="UTF-8" standalone="no"?>
<!DOCTYPE svg PUBLIC "-//W3C//DTD SVG 1.1//EN"
 "http://www.w3.org/Graphics/SVG/1.1/DTD/svg11.dtd">
<!-- Generated by graphviz version 2.26.0 (20091210.2329)
 -->
<!-- Title: valseries.h Pages: 1 -->
<svg width="1049pt" height="958pt"
 viewBox="0.00 0.00 1049.00 958.00" xmlns="http://www.w3.org/2000/svg" xmlns:xlink="http://www.w3.org/1999/xlink">
<g id="graph1" class="graph" transform="scale(1 1) rotate(0) translate(4 954)">
<title>valseries.h</title>
<polygon fill="white" stroke="white" points="-4,5 -4,-954 1046,-954 1046,5 -4,5"/>
<!-- Node1 -->
<g id="node1" class="node"><title>Node1</title>
<polygon fill="#bfbfbf" stroke="black" points="145,-928.5 145,-949.5 209,-949.5 209,-928.5 145,-928.5"/>
<text text-anchor="middle" x="177" y="-936.5" font-family="Helvetica,sans-Serif" font-size="10.00">valseries.h</text>
</g>
<!-- Node2 -->
<g id="node3" class="node"><title>Node2</title>
<polygon fill="white" stroke="#bfbfbf" points="365.5,-0.5 365.5,-21.5 432.5,-21.5 432.5,-0.5 365.5,-0.5"/>
<text text-anchor="middle" x="399" y="-8.5" font-family="Helvetica,sans-Serif" font-size="10.00">basicmod.h</text>
</g>
<!-- Node1&#45;&gt;Node2 -->
<g id="edge2" class="edge"><title>Node1&#45;&gt;Node2</title>
<path fill="none" stroke="midnightblue" d="M144.947,-933.144C93.9401,-921.77 0,-891.521 0,-823 0,-823 0,-823 0,-127 2.41841e-15,-87.5044 21.5807,-77.3705 56,-58 106.317,-29.6825 274.297,-17.397 354.991,-13.0292"/>
<polygon fill="midnightblue" stroke="midnightblue" points="355.511,-16.5068 365.314,-12.488 355.144,-9.51644 355.511,-16.5068"/>
</g>
<!-- Node3 -->
<g id="node5" class="node"><title>Node3</title>
<a xlink:href="gendefs_8h.html" target="_top" xlink:title="gendefs.h">
<polygon fill="white" stroke="black" points="704.5,-174.5 704.5,-195.5 763.5,-195.5 763.5,-174.5 704.5,-174.5"/>
<text text-anchor="middle" x="734" y="-182.5" font-family="Helvetica,sans-Serif" font-size="10.00">gendefs.h</text>
</a>
</g>
<!-- Node1&#45;&gt;Node3 -->
<g id="edge4" class="edge"><title>Node1&#45;&gt;Node3</title>
<path fill="none" stroke="midnightblue" d="M209.143,-938.117C365.269,-933.412 1037,-908.216 1037,-823 1037,-823 1037,-823 1037,-417 1037,-285.665 855.319,-218.618 773.324,-195.046"/>
<polygon fill="midnightblue" stroke="midnightblue" points="774.178,-191.651 763.605,-192.322 772.289,-198.391 774.178,-191.651"/>
</g>
<!-- Node13 -->
<g id="node30" class="node"><title>Node13</title>
<polygon fill="white" stroke="#bfbfbf" points="301.5,-58.5 301.5,-79.5 352.5,-79.5 352.5,-58.5 301.5,-58.5"/>
<text text-anchor="middle" x="327" y="-66.5" font-family="Helvetica,sans-Serif" font-size="10.00">typeinfo</text>
</g>
<!-- Node1&#45;&gt;Node13 -->
<g id="edge160" class="edge"><title>Node1&#45;&gt;Node13</title>
<path fill="none" stroke="midnightblue" d="M153.93,-928.408C120.619,-911.34 63,-874.39 63,-823 63,-823 63,-823 63,-707 63,-629.451 76,-610.549 76,-533 76,-533 76,-533 76,-475 76,-366.497 152,-351.503 152,-243 152,-243 152,-243 152,-185 152,-151.613 241.614,-106.608 292.587,-83.7093"/>
<polygon fill="midnightblue" stroke="midnightblue" points="294.205,-86.8206 301.927,-79.5664 291.367,-80.4219 294.205,-86.8206"/>
</g>
<!-- Node14 -->
<g id="node32" class="node"><title>Node14</title>
<a xlink:href="odmemory_8h.html" target="_top" xlink:title="odmemory.h">
<polygon fill="white" stroke="black" points="141.5,-870.5 141.5,-891.5 212.5,-891.5 212.5,-870.5 141.5,-870.5"/>
<text text-anchor="middle" x="177" y="-878.5" font-family="Helvetica,sans-Serif" font-size="10.00">odmemory.h</text>
</a>
</g>
<!-- Node1&#45;&gt;Node14 -->
<g id="edge36" class="edge"><title>Node1&#45;&gt;Node14</title>
<path fill="none" stroke="midnightblue" d="M171.636,-928.362C170.319,-920.922 169.941,-910.743 170.5,-901.728"/>
<polygon fill="midnightblue" stroke="midnightblue" points="174.003,-901.9 171.648,-891.571 167.047,-901.114 174.003,-901.9"/>
</g>
<!-- Node4 -->
<g id="node7" class="node"><title>Node4</title>
<a xlink:href="undefval_8h.html" target="_top" xlink:title="undefval.h">
<polygon fill="white" stroke="black" points="716,-116.5 716,-137.5 778,-137.5 778,-116.5 716,-116.5"/>
<text text-anchor="middle" x="747" y="-124.5" font-family="Helvetica,sans-Serif" font-size="10.00">undefval.h</text>
</a>
</g>
<!-- Node3&#45;&gt;Node4 -->
<g id="edge6" class="edge"><title>Node3&#45;&gt;Node4</title>
<path fill="none" stroke="midnightblue" d="M736.384,-174.362C738.07,-166.84 740.384,-156.519 742.421,-147.431"/>
<polygon fill="midnightblue" stroke="midnightblue" points="745.859,-148.094 744.631,-137.571 739.028,-146.563 745.859,-148.094"/>
</g>
<!-- Node11 -->
<g id="node24" class="node"><title>Node11</title>
<a xlink:href="commontypes_8h.html" target="_top" xlink:title="commontypes.h">
<polygon fill="white" stroke="black" points="834,-116.5 834,-137.5 920,-137.5 920,-116.5 834,-116.5"/>
<text text-anchor="middle" x="877" y="-124.5" font-family="Helvetica,sans-Serif" font-size="10.00">commontypes.h</text>
</a>
</g>
<!-- Node3&#45;&gt;Node11 -->
<g id="edge26" class="edge"><title>Node3&#45;&gt;Node11</title>
<path fill="none" stroke="midnightblue" d="M759.896,-174.497C782.633,-165.275 815.93,-151.769 841.212,-141.515"/>
<polygon fill="midnightblue" stroke="midnightblue" points="842.862,-144.623 850.813,-137.621 840.231,-138.136 842.862,-144.623"/>
</g>
<!-- Node12 -->
<g id="node27" class="node"><title>Node12</title>
<a xlink:href="errmsg_8h.html" target="_top" xlink:title="errmsg.h">
<polygon fill="white" stroke="black" points="643.5,-116.5 643.5,-137.5 698.5,-137.5 698.5,-116.5 643.5,-116.5"/>
<text text-anchor="middle" x="671" y="-124.5" font-family="Helvetica,sans-Serif" font-size="10.00">errmsg.h</text>
</a>
</g>
<!-- Node3&#45;&gt;Node12 -->
<g id="edge30" class="edge"><title>Node3&#45;&gt;Node12</title>
<path fill="none" stroke="midnightblue" d="M722.445,-174.362C713.387,-166.023 700.59,-154.242 690.026,-144.516"/>
<polygon fill="midnightblue" stroke="midnightblue" points="692.21,-141.769 682.482,-137.571 687.468,-146.919 692.21,-141.769"/>
</g>
<!-- Node4&#45;&gt;Node2 -->
<g id="edge8" class="edge"><title>Node4&#45;&gt;Node2</title>
<path fill="none" stroke="midnightblue" d="M740.884,-116.306C731.337,-100.691 711.334,-71.9912 686,-58 644.959,-35.3339 512.421,-20.8189 442.739,-14.5573"/>
<polygon fill="midnightblue" stroke="midnightblue" points="442.794,-11.0487 432.526,-13.6582 442.18,-18.0217 442.794,-11.0487"/>
</g>
<!-- Node5 -->
<g id="node10" class="node"><title>Node5</title>
<a xlink:href="commondefs_8h.html" target="_top" xlink:title="commondefs.h">
<polygon fill="white" stroke="black" points="813.5,-58.5 813.5,-79.5 894.5,-79.5 894.5,-58.5 813.5,-58.5"/>
<text text-anchor="middle" x="854" y="-66.5" font-family="Helvetica,sans-Serif" font-size="10.00">commondefs.h</text>
</a>
</g>
<!-- Node4&#45;&gt;Node5 -->
<g id="edge10" class="edge"><title>Node4&#45;&gt;Node5</title>
<path fill="none" stroke="midnightblue" d="M766.625,-116.362C783.141,-107.409 806.974,-94.4908 825.578,-84.4064"/>
<polygon fill="midnightblue" stroke="midnightblue" points="827.375,-87.4132 834.499,-79.5707 824.04,-81.2592 827.375,-87.4132"/>
</g>
<!-- Node9 -->
<g id="node19" class="node"><title>Node9</title>
<a xlink:href="plftypes_8h.html" target="_top" xlink:title="plftypes.h">
<polygon fill="white" stroke="black" points="737.5,-58.5 737.5,-79.5 796.5,-79.5 796.5,-58.5 737.5,-58.5"/>
<text text-anchor="middle" x="767" y="-66.5" font-family="Helvetica,sans-Serif" font-size="10.00">plftypes.h</text>
</a>
</g>
<!-- Node4&#45;&gt;Node9 -->
<g id="edge20" class="edge"><title>Node4&#45;&gt;Node9</title>
<path fill="none" stroke="midnightblue" d="M750.668,-116.362C753.29,-108.758 756.899,-98.294 760.057,-89.1349"/>
<polygon fill="midnightblue" stroke="midnightblue" points="763.404,-90.1654 763.355,-79.5707 756.786,-87.8834 763.404,-90.1654"/>
</g>
<!-- Node5&#45;&gt;Node2 -->
<g id="edge12" class="edge"><title>Node5&#45;&gt;Node2</title>
<path fill="none" stroke="midnightblue" d="M813.423,-59.5444C810.579,-58.9885 807.751,-58.4666 805,-58 673.876,-35.7562 517.118,-20.8896 442.554,-14.5217"/>
<polygon fill="midnightblue" stroke="midnightblue" points="442.849,-11.0342 432.59,-13.6796 442.259,-18.0093 442.849,-11.0342"/>
</g>
<!-- Node6 -->
<g id="node13" class="node"><title>Node6</title>
<a xlink:href="plfdefs_8h.html" target="_top" xlink:title="plfdefs.h">
<polygon fill="white" stroke="black" points="787,-0.5 787,-21.5 841,-21.5 841,-0.5 787,-0.5"/>
<text text-anchor="middle" x="814" y="-8.5" font-family="Helvetica,sans-Serif" font-size="10.00">plfdefs.h</text>
</a>
</g>
<!-- Node5&#45;&gt;Node6 -->
<g id="edge14" class="edge"><title>Node5&#45;&gt;Node6</title>
<path fill="none" stroke="midnightblue" d="M846.663,-58.3619C841.194,-50.4313 833.578,-39.3885 827.076,-29.9606"/>
<polygon fill="midnightblue" stroke="midnightblue" points="829.849,-27.8157 821.29,-21.5707 824.086,-31.7899 829.849,-27.8157"/>
</g>
<!-- Node7 -->
<g id="node15" class="node"><title>Node7</title>
<polygon fill="white" stroke="#bfbfbf" points="982.5,-0.5 982.5,-21.5 1041.5,-21.5 1041.5,-0.5 982.5,-0.5"/>
<text text-anchor="middle" x="1012" y="-8.5" font-family="Helvetica,sans-Serif" font-size="10.00">stdexcept</text>
</g>
<!-- Node5&#45;&gt;Node7 -->
<g id="edge16" class="edge"><title>Node5&#45;&gt;Node7</title>
<path fill="none" stroke="midnightblue" d="M882.613,-58.4966C908.148,-49.1229 945.737,-35.3242 973.829,-25.0122"/>
<polygon fill="midnightblue" stroke="midnightblue" points="975.152,-28.2548 983.334,-21.5231 972.74,-21.6835 975.152,-28.2548"/>
</g>
<!-- Node8 -->
<g id="node17" class="node"><title>Node8</title>
<polygon fill="white" stroke="#bfbfbf" points="858.5,-0.5 858.5,-21.5 893.5,-21.5 893.5,-0.5 858.5,-0.5"/>
<text text-anchor="middle" x="876" y="-8.5" font-family="Helvetica,sans-Serif" font-size="10.00">new</text>
</g>
<!-- Node5&#45;&gt;Node8 -->
<g id="edge18" class="edge"><title>Node5&#45;&gt;Node8</title>
<path fill="none" stroke="midnightblue" d="M858.035,-58.3619C860.919,-50.7584 864.888,-40.294 868.363,-31.1349"/>
<polygon fill="midnightblue" stroke="midnightblue" points="871.716,-32.1619 871.99,-21.5707 865.171,-29.6793 871.716,-32.1619"/>
</g>
<!-- Node9&#45;&gt;Node6 -->
<g id="edge22" class="edge"><title>Node9&#45;&gt;Node6</title>
<path fill="none" stroke="midnightblue" d="M775.621,-58.3619C782.18,-50.2678 791.366,-38.9318 799.106,-29.3796"/>
<polygon fill="midnightblue" stroke="midnightblue" points="801.858,-31.5436 805.434,-21.5707 796.419,-27.1364 801.858,-31.5436"/>
</g>
<!-- Node10 -->
<g id="node22" class="node"><title>Node10</title>
<polygon fill="white" stroke="#bfbfbf" points="720.5,-0.5 720.5,-21.5 769.5,-21.5 769.5,-0.5 720.5,-0.5"/>
<text text-anchor="middle" x="745" y="-8.5" font-family="Helvetica,sans-Serif" font-size="10.00">stdint.h</text>
</g>
<!-- Node9&#45;&gt;Node10 -->
<g id="edge24" class="edge"><title>Node9&#45;&gt;Node10</title>
<path fill="none" stroke="midnightblue" d="M762.965,-58.3619C760.081,-50.7584 756.112,-40.294 752.637,-31.1349"/>
<polygon fill="midnightblue" stroke="midnightblue" points="755.829,-29.6793 749.01,-21.5707 749.284,-32.1619 755.829,-29.6793"/>
</g>
<!-- Node11&#45;&gt;Node5 -->
<g id="edge28" class="edge"><title>Node11&#45;&gt;Node5</title>
<path fill="none" stroke="midnightblue" d="M872.781,-116.362C869.766,-108.758 865.617,-98.294 861.985,-89.1349"/>
<polygon fill="midnightblue" stroke="midnightblue" points="865.132,-87.5762 858.192,-79.5707 858.625,-90.1567 865.132,-87.5762"/>
</g>
<!-- Node12&#45;&gt;Node5 -->
<g id="edge32" class="edge"><title>Node12&#45;&gt;Node5</title>
<path fill="none" stroke="midnightblue" d="M698.794,-118.191C728.552,-108.759 776.158,-93.6712 810.807,-82.6896"/>
<polygon fill="midnightblue" stroke="midnightblue" points="812.184,-85.9248 820.659,-79.567 810.069,-79.2519 812.184,-85.9248"/>
</g>
<!-- Node12&#45;&gt;Node13 -->
<g id="edge34" class="edge"><title>Node12&#45;&gt;Node13</title>
<path fill="none" stroke="midnightblue" d="M643.431,-122.352C581.558,-111.92 431.687,-86.6507 362.764,-75.0299"/>
<polygon fill="midnightblue" stroke="midnightblue" points="363.255,-71.5634 352.812,-73.352 362.091,-78.466 363.255,-71.5634"/>
</g>
<!-- Node14&#45;&gt;Node1 -->
<g id="edge158" class="edge"><title>Node14&#45;&gt;Node1</title>
<path fill="none" stroke="midnightblue" d="M182.352,-891.571C183.674,-898.994 184.059,-909.168 183.505,-918.191"/>
<polygon fill="midnightblue" stroke="midnightblue" points="180,-918.034 182.364,-928.362 186.957,-918.814 180,-918.034"/>
</g>
<!-- Node14&#45;&gt;Node5 -->
<g id="edge38" class="edge"><title>Node14&#45;&gt;Node5</title>
<path fill="none" stroke="midnightblue" d="M212.584,-879.789C370.358,-873.958 999,-845.663 999,-765 999,-765 999,-765 999,-417 999,-281.316 1029.82,-224.238 948,-116 936.779,-101.156 919.58,-90.6802 902.947,-83.4476"/>
<polygon fill="midnightblue" stroke="midnightblue" points="903.853,-80.0394 893.269,-79.5555 901.241,-86.5339 903.853,-80.0394"/>
</g>
<!-- Node15 -->
<g id="node35" class="node"><title>Node15</title>
<a xlink:href="paralleltask_8h.html" target="_top" xlink:title="paralleltask.h">
<polygon fill="white" stroke="black" points="140,-812.5 140,-833.5 214,-833.5 214,-812.5 140,-812.5"/>
<text text-anchor="middle" x="177" y="-820.5" font-family="Helvetica,sans-Serif" font-size="10.00">paralleltask.h</text>
</a>
</g>
<!-- Node14&#45;&gt;Node15 -->
<g id="edge40" class="edge"><title>Node14&#45;&gt;Node15</title>
<path fill="none" stroke="midnightblue" d="M177,-870.362C177,-862.922 177,-852.743 177,-843.728"/>
<polygon fill="midnightblue" stroke="midnightblue" points="180.5,-843.571 177,-833.571 173.5,-843.571 180.5,-843.571"/>
</g>
<!-- Node15&#45;&gt;Node2 -->
<g id="edge42" class="edge"><title>Node15&#45;&gt;Node2</title>
<path fill="none" stroke="midnightblue" d="M167.446,-812.304C136.042,-775.998 38,-653.038 38,-533 38,-533 38,-533 38,-127 38,-86.9383 61.0921,-77.6565 96,-58 139.548,-33.4785 282.217,-19.6438 355.178,-14.0109"/>
<polygon fill="midnightblue" stroke="midnightblue" points="355.708,-17.4809 365.417,-13.239 355.182,-10.5008 355.708,-17.4809"/>
</g>
<!-- Node16 -->
<g id="node38" class="node"><title>Node16</title>
<a xlink:href="task_8h.html" target="_top" xlink:title="task.h">
<polygon fill="white" stroke="black" points="390,-754.5 390,-775.5 434,-775.5 434,-754.5 390,-754.5"/>
<text text-anchor="middle" x="412" y="-762.5" font-family="Helvetica,sans-Serif" font-size="10.00">task.h</text>
</a>
</g>
<!-- Node15&#45;&gt;Node16 -->
<g id="edge44" class="edge"><title>Node15&#45;&gt;Node16</title>
<path fill="none" stroke="midnightblue" d="M214.236,-813.81C259.909,-802.537 336.575,-783.615 379.811,-772.945"/>
<polygon fill="midnightblue" stroke="midnightblue" points="380.918,-776.277 389.788,-770.482 379.24,-769.48 380.918,-776.277"/>
</g>
<!-- Node20 -->
<g id="node49" class="node"><title>Node20</title>
<a xlink:href="atomic_8h.html" target="_top" xlink:title="atomic.h">
<polygon fill="white" stroke="black" points="323,-116.5 323,-137.5 377,-137.5 377,-116.5 323,-116.5"/>
<text text-anchor="middle" x="350" y="-124.5" font-family="Helvetica,sans-Serif" font-size="10.00">atomic.h</text>
</a>
</g>
<!-- Node15&#45;&gt;Node20 -->
<g id="edge156" class="edge"><title>Node15&#45;&gt;Node20</title>
<path fill="none" stroke="midnightblue" d="M177,-812.444C177,-792.062 177,-745.868 177,-707 177,-707 177,-707 177,-533 177,-455.451 190,-436.549 190,-359 190,-359 190,-359 190,-243 190,-182.587 265.694,-150.402 312.955,-136.194"/>
<polygon fill="midnightblue" stroke="midnightblue" points="314.211,-139.475 322.858,-133.353 312.281,-132.746 314.211,-139.475"/>
</g>
<!-- Node16&#45;&gt;Node2 -->
<g id="edge46" class="edge"><title>Node16&#45;&gt;Node2</title>
<path fill="none" stroke="midnightblue" d="M389.913,-760.67C362.388,-754.515 314.744,-741.312 280,-718 108.671,-603.043 76,-507.322 76,-301 76,-301 76,-301 76,-127 76,-86.0677 101.32,-78.0601 137,-58 173.632,-37.4048 290.455,-22.3506 355.036,-15.3594"/>
<polygon fill="midnightblue" stroke="midnightblue" points="355.739,-18.8045 365.313,-14.2672 354.999,-11.8437 355.739,-18.8045"/>
</g>
<!-- Node17 -->
<g id="node41" class="node"><title>Node17</title>
<a xlink:href="namedobj_8h.html" target="_top" xlink:title="namedobj.h">
<polygon fill="white" stroke="black" points="288.5,-696.5 288.5,-717.5 355.5,-717.5 355.5,-696.5 288.5,-696.5"/>
<text text-anchor="middle" x="322" y="-704.5" font-family="Helvetica,sans-Serif" font-size="10.00">namedobj.h</text>
</a>
</g>
<!-- Node16&#45;&gt;Node17 -->
<g id="edge48" class="edge"><title>Node16&#45;&gt;Node17</title>
<path fill="none" stroke="midnightblue" d="M395.493,-754.362C381.918,-745.614 362.467,-733.079 346.985,-723.101"/>
<polygon fill="midnightblue" stroke="midnightblue" points="348.704,-720.046 338.403,-717.571 344.912,-725.93 348.704,-720.046"/>
</g>
<!-- Node22 -->
<g id="node56" class="node"><title>Node22</title>
<a xlink:href="objectset_8h.html" target="_top" xlink:title="objectset.h">
<polygon fill="white" stroke="black" points="470.5,-522.5 470.5,-543.5 535.5,-543.5 535.5,-522.5 470.5,-522.5"/>
<text text-anchor="middle" x="503" y="-530.5" font-family="Helvetica,sans-Serif" font-size="10.00">objectset.h</text>
</a>
</g>
<!-- Node16&#45;&gt;Node22 -->
<g id="edge136" class="edge"><title>Node16&#45;&gt;Node22</title>
<path fill="none" stroke="midnightblue" d="M417.459,-754.159C430.322,-728.321 463.023,-660.866 484,-602 489.661,-586.115 494.659,-567.68 498.107,-553.863"/>
<polygon fill="midnightblue" stroke="midnightblue" points="501.566,-554.453 500.523,-543.909 494.763,-552.802 501.566,-554.453"/>
</g>
<!-- Node36 -->
<g id="node99" class="node"><title>Node36</title>
<a xlink:href="threadlock_8h.html" target="_top" xlink:title="threadlock.h">
<polygon fill="white" stroke="black" points="850,-290.5 850,-311.5 920,-311.5 920,-290.5 850,-290.5"/>
<text text-anchor="middle" x="885" y="-298.5" font-family="Helvetica,sans-Serif" font-size="10.00">threadlock.h</text>
</a>
</g>
<!-- Node16&#45;&gt;Node36 -->
<g id="edge138" class="edge"><title>Node16&#45;&gt;Node36</title>
<path fill="none" stroke="midnightblue" d="M434.201,-762.72C536.911,-751.878 961,-703.797 961,-649 961,-649 961,-649 961,-417 961,-376.51 928.203,-339.158 905.698,-318.295"/>
<polygon fill="midnightblue" stroke="midnightblue" points="908.026,-315.681 898.238,-311.625 903.36,-320.899 908.026,-315.681"/>
</g>
<!-- Node37 -->
<g id="node107" class="node"><title>Node37</title>
<a xlink:href="uistring_8h.html" target="_top" xlink:title="uistring.h">
<polygon fill="white" stroke="black" points="674,-580.5 674,-601.5 730,-601.5 730,-580.5 674,-580.5"/>
<text text-anchor="middle" x="702" y="-588.5" font-family="Helvetica,sans-Serif" font-size="10.00">uistring.h</text>
</a>
</g>
<!-- Node16&#45;&gt;Node37 -->
<g id="edge140" class="edge"><title>Node16&#45;&gt;Node37</title>
<path fill="none" stroke="midnightblue" d="M434.282,-756.398C455.932,-747.724 489.479,-733.439 517,-718 578.755,-683.356 646.075,-633.887 679.928,-608.108"/>
<polygon fill="midnightblue" stroke="midnightblue" points="682.364,-610.651 688.174,-601.791 678.107,-605.094 682.364,-610.651"/>
</g>
<!-- Node17&#45;&gt;Node2 -->
<g id="edge50" class="edge"><title>Node17&#45;&gt;Node2</title>
<path fill="none" stroke="midnightblue" d="M301.115,-696.456C269.976,-679.077 215,-641.276 215,-591 215,-591 215,-591 215,-533 215,-396.518 114,-379.482 114,-243 114,-243 114,-243 114,-127 114,-83.3154 145.594,-78.8173 184,-58 238.38,-28.524 309.962,-17.5326 355.243,-13.4347"/>
<polygon fill="midnightblue" stroke="midnightblue" points="355.649,-16.9131 365.325,-12.5971 355.069,-9.93716 355.649,-16.9131"/>
</g>
<!-- Node18 -->
<g id="node44" class="node"><title>Node18</title>
<a xlink:href="callback_8h.html" target="_top" xlink:title="callback.h">
<polygon fill="white" stroke="black" points="336.5,-638.5 336.5,-659.5 397.5,-659.5 397.5,-638.5 336.5,-638.5"/>
<text text-anchor="middle" x="367" y="-646.5" font-family="Helvetica,sans-Serif" font-size="10.00">callback.h</text>
</a>
</g>
<!-- Node17&#45;&gt;Node18 -->
<g id="edge52" class="edge"><title>Node17&#45;&gt;Node18</title>
<path fill="none" stroke="midnightblue" d="M330.254,-696.362C336.47,-688.35 345.151,-677.161 352.515,-667.67"/>
<polygon fill="midnightblue" stroke="midnightblue" points="355.434,-669.617 358.799,-659.571 349.903,-665.326 355.434,-669.617"/>
</g>
<!-- Node26 -->
<g id="node67" class="node"><title>Node26</title>
<a xlink:href="bufstring_8h.html" target="_top" xlink:title="bufstring.h">
<polygon fill="white" stroke="black" points="366,-348.5 366,-369.5 428,-369.5 428,-348.5 366,-348.5"/>
<text text-anchor="middle" x="397" y="-356.5" font-family="Helvetica,sans-Serif" font-size="10.00">bufstring.h</text>
</a>
</g>
<!-- Node17&#45;&gt;Node26 -->
<g id="edge134" class="edge"><title>Node17&#45;&gt;Node26</title>
<path fill="none" stroke="midnightblue" d="M312.092,-696.435C295.051,-677.111 262,-634.079 262,-591 262,-591 262,-591 262,-533 262,-462.086 332.862,-402.593 371.907,-375.196"/>
<polygon fill="midnightblue" stroke="midnightblue" points="373.898,-378.074 380.175,-369.539 369.945,-372.297 373.898,-378.074"/>
</g>
<!-- Node18&#45;&gt;Node2 -->
<g id="edge54" class="edge"><title>Node18&#45;&gt;Node2</title>
<path fill="none" stroke="midnightblue" d="M356.352,-638.143C347.86,-629.055 336.089,-615.447 328,-602 267.803,-501.922 228,-475.787 228,-359 228,-359 228,-359 228,-243 228,-159.907 149.474,-123.189 201,-58 219.844,-34.1587 302.775,-21.1357 355.15,-15.1575"/>
<polygon fill="midnightblue" stroke="midnightblue" points="355.632,-18.6258 365.19,-14.0547 354.868,-11.6676 355.632,-18.6258"/>
</g>
<!-- Node19 -->
<g id="node47" class="node"><title>Node19</title>
<a xlink:href="refcount_8h.html" target="_top" xlink:title="refcount.h">
<polygon fill="white" stroke="black" points="337,-580.5 337,-601.5 397,-601.5 397,-580.5 337,-580.5"/>
<text text-anchor="middle" x="367" y="-588.5" font-family="Helvetica,sans-Serif" font-size="10.00">refcount.h</text>
</a>
</g>
<!-- Node18&#45;&gt;Node19 -->
<g id="edge56" class="edge"><title>Node18&#45;&gt;Node19</title>
<path fill="none" stroke="midnightblue" d="M367,-638.362C367,-630.922 367,-620.743 367,-611.728"/>
<polygon fill="midnightblue" stroke="midnightblue" points="370.5,-611.571 367,-601.571 363.5,-611.571 370.5,-611.571"/>
</g>
<!-- Node34 -->
<g id="node92" class="node"><title>Node34</title>
<a xlink:href="sets_8h.html" target="_top" xlink:title="sets.h">
<polygon fill="white" stroke="black" points="431,-580.5 431,-601.5 475,-601.5 475,-580.5 431,-580.5"/>
<text text-anchor="middle" x="453" y="-588.5" font-family="Helvetica,sans-Serif" font-size="10.00">sets.h</text>
</a>
</g>
<!-- Node18&#45;&gt;Node34 -->
<g id="edge116" class="edge"><title>Node18&#45;&gt;Node34</title>
<path fill="none" stroke="midnightblue" d="M382.774,-638.362C395.624,-629.696 413.985,-617.313 428.71,-607.382"/>
<polygon fill="midnightblue" stroke="midnightblue" points="430.993,-610.064 437.326,-601.571 427.079,-604.26 430.993,-610.064"/>
</g>
<!-- Node18&#45;&gt;Node36 -->
<g id="edge126" class="edge"><title>Node18&#45;&gt;Node36</title>
<path fill="none" stroke="midnightblue" d="M397.551,-648.379C461.96,-646.372 615.881,-637.882 739,-602 807.904,-581.919 885,-604.771 885,-533 885,-533 885,-533 885,-417 885,-383.598 885,-344.785 885,-321.594"/>
<polygon fill="midnightblue" stroke="midnightblue" points="888.5,-321.556 885,-311.556 881.5,-321.556 888.5,-321.556"/>
</g>
<!-- Node19&#45;&gt;Node20 -->
<g id="edge58" class="edge"><title>Node19&#45;&gt;Node20</title>
<path fill="none" stroke="midnightblue" d="M362.469,-580.348C354.312,-560.178 338,-514.857 338,-475 338,-475 338,-475 338,-243 338,-209.42 343.037,-170.66 346.584,-147.528"/>
<polygon fill="midnightblue" stroke="midnightblue" points="350.062,-147.944 348.177,-137.518 343.149,-146.844 350.062,-147.944"/>
</g>
<!-- Node19&#45;&gt;Node22 -->
<g id="edge68" class="edge"><title>Node19&#45;&gt;Node22</title>
<path fill="none" stroke="midnightblue" d="M391.629,-580.497C413.157,-571.315 444.64,-557.889 468.645,-547.652"/>
<polygon fill="midnightblue" stroke="midnightblue" points="470.27,-550.764 478.095,-543.621 467.524,-544.325 470.27,-550.764"/>
</g>
<!-- Node20&#45;&gt;Node2 -->
<g id="edge60" class="edge"><title>Node20&#45;&gt;Node2</title>
<path fill="none" stroke="midnightblue" d="M354.522,-116.295C362.69,-96.9588 380.024,-55.9229 390.477,-31.1767"/>
<polygon fill="midnightblue" stroke="midnightblue" points="393.822,-32.253 394.489,-21.6792 387.374,-29.5291 393.822,-32.253"/>
</g>
<!-- Node20&#45;&gt;Node5 -->
<g id="edge62" class="edge"><title>Node20&#45;&gt;Node5</title>
<path fill="none" stroke="midnightblue" d="M377.071,-124.392C463.712,-116.02 732.262,-89.8702 803.443,-79.9878"/>
<polygon fill="midnightblue" stroke="midnightblue" points="804.057,-83.4349 813.43,-78.4945 803.022,-76.5119 804.057,-83.4349"/>
</g>
<!-- Node20&#45;&gt;Node9 -->
<g id="edge64" class="edge"><title>Node20&#45;&gt;Node9</title>
<path fill="none" stroke="midnightblue" d="M377.039,-123.239C448.592,-113.287 643.156,-86.2254 727.321,-74.5189"/>
<polygon fill="midnightblue" stroke="midnightblue" points="727.837,-77.9809 737.259,-73.1366 726.872,-71.0477 727.837,-77.9809"/>
</g>
<!-- Node21 -->
<g id="node54" class="node"><title>Node21</title>
<polygon fill="white" stroke="#bfbfbf" points="217.5,-58.5 217.5,-79.5 284.5,-79.5 284.5,-58.5 217.5,-58.5"/>
<text text-anchor="middle" x="251" y="-66.5" font-family="Helvetica,sans-Serif" font-size="10.00">odversion.h</text>
</g>
<!-- Node20&#45;&gt;Node21 -->
<g id="edge66" class="edge"><title>Node20&#45;&gt;Node21</title>
<path fill="none" stroke="midnightblue" d="M331.842,-116.362C316.77,-107.532 295.113,-94.844 278.007,-84.8224"/>
<polygon fill="midnightblue" stroke="midnightblue" points="279.441,-81.6058 269.043,-79.5707 275.902,-87.6456 279.441,-81.6058"/>
</g>
<!-- Node23 -->
<g id="node58" class="node"><title>Node23</title>
<a xlink:href="odset_8h.html" target="_top" xlink:title="odset.h">
<polygon fill="white" stroke="black" points="569.5,-464.5 569.5,-485.5 618.5,-485.5 618.5,-464.5 569.5,-464.5"/>
<text text-anchor="middle" x="594" y="-472.5" font-family="Helvetica,sans-Serif" font-size="10.00">odset.h</text>
</a>
</g>
<!-- Node22&#45;&gt;Node23 -->
<g id="edge70" class="edge"><title>Node22&#45;&gt;Node23</title>
<path fill="none" stroke="midnightblue" d="M519.691,-522.362C533.416,-513.614 553.084,-501.079 568.737,-491.101"/>
<polygon fill="midnightblue" stroke="midnightblue" points="570.863,-493.897 577.415,-485.571 567.101,-487.994 570.863,-493.897"/>
</g>
<!-- Node24 -->
<g id="node61" class="node"><title>Node24</title>
<a xlink:href="vectoraccess_8h.html" target="_top" xlink:title="vectoraccess.h">
<polygon fill="white" stroke="black" points="469.5,-464.5 469.5,-485.5 552.5,-485.5 552.5,-464.5 469.5,-464.5"/>
<text text-anchor="middle" x="511" y="-472.5" font-family="Helvetica,sans-Serif" font-size="10.00">vectoraccess.h</text>
</a>
</g>
<!-- Node22&#45;&gt;Node24 -->
<g id="edge74" class="edge"><title>Node22&#45;&gt;Node24</title>
<path fill="none" stroke="midnightblue" d="M504.467,-522.362C505.494,-514.922 506.898,-504.743 508.141,-495.728"/>
<polygon fill="midnightblue" stroke="midnightblue" points="511.643,-495.955 509.542,-485.571 504.708,-494.999 511.643,-495.955"/>
</g>
<!-- Node23&#45;&gt;Node3 -->
<g id="edge72" class="edge"><title>Node23&#45;&gt;Node3</title>
<path fill="none" stroke="midnightblue" d="M604.22,-464.156C612.798,-454.855 625.188,-440.943 635,-428 653.618,-403.442 658.803,-397.353 673,-370 702.101,-313.934 721.21,-241.196 729.416,-205.962"/>
<polygon fill="midnightblue" stroke="midnightblue" points="732.897,-206.436 731.696,-195.909 726.071,-204.888 732.897,-206.436"/>
</g>
<!-- Node24&#45;&gt;Node3 -->
<g id="edge108" class="edge"><title>Node24&#45;&gt;Node3</title>
<path fill="none" stroke="midnightblue" d="M542.134,-464.336C561.202,-456.587 585.104,-444.547 602,-428 637.379,-393.352 701.452,-256.755 725.003,-205.011"/>
<polygon fill="midnightblue" stroke="midnightblue" points="728.334,-206.139 729.271,-195.586 721.957,-203.252 728.334,-206.139"/>
</g>
<!-- Node24&#45;&gt;Node7 -->
<g id="edge114" class="edge"><title>Node24&#45;&gt;Node7</title>
<path fill="none" stroke="midnightblue" d="M550.957,-464.467C645.092,-438.889 876.798,-371.246 929,-312 1002.62,-228.449 1011.53,-85.1679 1012.18,-31.8177"/>
<polygon fill="midnightblue" stroke="midnightblue" points="1015.68,-31.5964 1012.21,-21.5856 1008.68,-31.5747 1015.68,-31.5964"/>
</g>
<!-- Node25 -->
<g id="node63" class="node"><title>Node25</title>
<a xlink:href="debug_8h.html" target="_top" xlink:title="debug.h">
<polygon fill="white" stroke="black" points="406.5,-406.5 406.5,-427.5 457.5,-427.5 457.5,-406.5 406.5,-406.5"/>
<text text-anchor="middle" x="432" y="-414.5" font-family="Helvetica,sans-Serif" font-size="10.00">debug.h</text>
</a>
</g>
<!-- Node24&#45;&gt;Node25 -->
<g id="edge76" class="edge"><title>Node24&#45;&gt;Node25</title>
<path fill="none" stroke="midnightblue" d="M496.51,-464.362C484.817,-455.777 468.157,-443.546 454.697,-433.664"/>
<polygon fill="midnightblue" stroke="midnightblue" points="456.53,-430.667 446.398,-427.571 452.387,-436.31 456.53,-430.667"/>
</g>
<!-- Node32 -->
<g id="node87" class="node"><title>Node32</title>
<polygon fill="white" stroke="#bfbfbf" points="475,-406.5 475,-427.5 531,-427.5 531,-406.5 475,-406.5"/>
<text text-anchor="middle" x="503" y="-414.5" font-family="Helvetica,sans-Serif" font-size="10.00">algorithm</text>
</g>
<!-- Node24&#45;&gt;Node32 -->
<g id="edge110" class="edge"><title>Node24&#45;&gt;Node32</title>
<path fill="none" stroke="midnightblue" d="M509.533,-464.362C508.506,-456.922 507.102,-446.743 505.859,-437.728"/>
<polygon fill="midnightblue" stroke="midnightblue" points="509.292,-436.999 504.458,-427.571 502.357,-437.955 509.292,-436.999"/>
</g>
<!-- Node33 -->
<g id="node89" class="node"><title>Node33</title>
<polygon fill="white" stroke="#bfbfbf" points="549,-406.5 549,-427.5 593,-427.5 593,-406.5 549,-406.5"/>
<text text-anchor="middle" x="571" y="-414.5" font-family="Helvetica,sans-Serif" font-size="10.00">vector</text>
</g>
<!-- Node24&#45;&gt;Node33 -->
<g id="edge112" class="edge"><title>Node24&#45;&gt;Node33</title>
<path fill="none" stroke="midnightblue" d="M522.005,-464.362C530.547,-456.104 542.58,-444.472 552.583,-434.803"/>
<polygon fill="midnightblue" stroke="midnightblue" points="555.308,-437.037 560.065,-427.571 550.442,-432.004 555.308,-437.037"/>
</g>
<!-- Node25&#45;&gt;Node2 -->
<g id="edge78" class="edge"><title>Node25&#45;&gt;Node2</title>
<path fill="none" stroke="midnightblue" d="M433.636,-406.25C435.504,-392.683 438.159,-368.626 437,-348 430.244,-227.788 410.034,-84.5904 402.175,-31.8364"/>
<polygon fill="midnightblue" stroke="midnightblue" points="405.603,-31.0976 400.655,-21.7295 398.681,-32.1388 405.603,-31.0976"/>
</g>
<!-- Node25&#45;&gt;Node3 -->
<g id="edge80" class="edge"><title>Node25&#45;&gt;Node3</title>
<path fill="none" stroke="midnightblue" d="M457.659,-407.009C495.652,-391.262 567.586,-357.693 616,-312 646.84,-282.893 638.657,-262.616 668,-232 679.357,-220.151 694.072,-209.339 706.725,-201.081"/>
<polygon fill="midnightblue" stroke="midnightblue" points="708.91,-203.84 715.496,-195.541 705.172,-197.922 708.91,-203.84"/>
</g>
<!-- Node25&#45;&gt;Node26 -->
<g id="edge82" class="edge"><title>Node25&#45;&gt;Node26</title>
<path fill="none" stroke="midnightblue" d="M425.58,-406.362C420.844,-398.513 414.268,-387.616 408.618,-378.253"/>
<polygon fill="midnightblue" stroke="midnightblue" points="411.542,-376.324 403.379,-369.571 405.549,-379.941 411.542,-376.324"/>
</g>
<!-- Node26&#45;&gt;Node2 -->
<g id="edge84" class="edge"><title>Node26&#45;&gt;Node2</title>
<path fill="none" stroke="midnightblue" d="M388.476,-348.242C354.264,-304.804 227.856,-141.725 209,-80 206.143,-70.6488 202.973,-65.6994 209,-58 226.832,-35.22 304.995,-21.9509 355.347,-15.6183"/>
<polygon fill="midnightblue" stroke="midnightblue" points="355.823,-19.0863 365.328,-14.4075 354.98,-12.1373 355.823,-19.0863"/>
</g>
<!-- Node27 -->
<g id="node70" class="node"><title>Node27</title>
<a xlink:href="fixedstring_8h.html" target="_top" xlink:title="fixedstring.h">
<polygon fill="white" stroke="black" points="537,-290.5 537,-311.5 607,-311.5 607,-290.5 537,-290.5"/>
<text text-anchor="middle" x="572" y="-298.5" font-family="Helvetica,sans-Serif" font-size="10.00">fixedstring.h</text>
</a>
</g>
<!-- Node26&#45;&gt;Node27 -->
<g id="edge86" class="edge"><title>Node26&#45;&gt;Node27</title>
<path fill="none" stroke="midnightblue" d="M428.286,-348.631C456.763,-339.193 499.015,-325.189 530.342,-314.807"/>
<polygon fill="midnightblue" stroke="midnightblue" points="531.707,-318.042 540.098,-311.573 529.504,-311.397 531.707,-318.042"/>
</g>
<!-- Node29 -->
<g id="node77" class="node"><title>Node29</title>
<a xlink:href="string2_8h.html" target="_top" xlink:title="string2.h">
<polygon fill="white" stroke="black" points="481,-116.5 481,-137.5 535,-137.5 535,-116.5 481,-116.5"/>
<text text-anchor="middle" x="508" y="-124.5" font-family="Helvetica,sans-Serif" font-size="10.00">string2.h</text>
</a>
</g>
<!-- Node26&#45;&gt;Node29 -->
<g id="edge96" class="edge"><title>Node26&#45;&gt;Node29</title>
<path fill="none" stroke="midnightblue" d="M401.01,-348.298C411.955,-319.467 443.817,-238.024 478,-174 483.089,-164.468 489.444,-154.312 494.993,-145.89"/>
<polygon fill="midnightblue" stroke="midnightblue" points="497.93,-147.794 500.6,-137.542 492.119,-143.891 497.93,-147.794"/>
</g>
<!-- Node27&#45;&gt;Node2 -->
<g id="edge88" class="edge"><title>Node27&#45;&gt;Node2</title>
<path fill="none" stroke="midnightblue" d="M565.017,-290.327C559.442,-281.13 552.074,-267.275 549,-254 546.794,-244.474 547.011,-241.573 549,-232 557.411,-191.51 640.948,-90.2013 615,-58 593.805,-31.6966 499.616,-19.3435 442.848,-14.1929"/>
<polygon fill="midnightblue" stroke="midnightblue" points="442.975,-10.6908 432.71,-13.3133 442.37,-17.6646 442.975,-10.6908"/>
</g>
<!-- Node28 -->
<g id="node73" class="node"><title>Node28</title>
<a xlink:href="odstring_8h.html" target="_top" xlink:title="odstring.h">
<polygon fill="white" stroke="black" points="557.5,-232.5 557.5,-253.5 616.5,-253.5 616.5,-232.5 557.5,-232.5"/>
<text text-anchor="middle" x="587" y="-240.5" font-family="Helvetica,sans-Serif" font-size="10.00">odstring.h</text>
</a>
</g>
<!-- Node27&#45;&gt;Node28 -->
<g id="edge90" class="edge"><title>Node27&#45;&gt;Node28</title>
<path fill="none" stroke="midnightblue" d="M574.751,-290.362C576.697,-282.84 579.366,-272.519 581.716,-263.431"/>
<polygon fill="midnightblue" stroke="midnightblue" points="585.151,-264.128 584.266,-253.571 578.374,-262.376 585.151,-264.128"/>
</g>
<!-- Node28&#45;&gt;Node2 -->
<g id="edge92" class="edge"><title>Node28&#45;&gt;Node2</title>
<path fill="none" stroke="midnightblue" d="M591.043,-232.353C604.545,-196.772 647.275,-84.0046 648,-80 649.741,-70.3785 654.24,-65.5279 648,-58 622.47,-27.1998 507.536,-16.4408 443.117,-12.7926"/>
<polygon fill="midnightblue" stroke="midnightblue" points="443.024,-9.28283 432.853,-12.2472 442.653,-16.273 443.024,-9.28283"/>
</g>
<!-- Node28&#45;&gt;Node3 -->
<g id="edge94" class="edge"><title>Node28&#45;&gt;Node3</title>
<path fill="none" stroke="midnightblue" d="M613.621,-232.497C637.097,-223.234 671.525,-209.65 697.556,-199.379"/>
<polygon fill="midnightblue" stroke="midnightblue" points="699.063,-202.547 707.081,-195.621 696.494,-196.036 699.063,-202.547"/>
</g>
<!-- Node29&#45;&gt;Node2 -->
<g id="edge98" class="edge"><title>Node29&#45;&gt;Node2</title>
<path fill="none" stroke="midnightblue" d="M497.941,-116.295C479.285,-96.4408 439.132,-53.709 416.124,-29.2239"/>
<polygon fill="midnightblue" stroke="midnightblue" points="418.433,-26.57 409.035,-21.6792 413.332,-31.3635 418.433,-26.57"/>
</g>
<!-- Node29&#45;&gt;Node5 -->
<g id="edge102" class="edge"><title>Node29&#45;&gt;Node5</title>
<path fill="none" stroke="midnightblue" d="M535.128,-123.299C585.849,-116.252 698.693,-99.9778 803.304,-80.2444"/>
<polygon fill="midnightblue" stroke="midnightblue" points="804.23,-83.6311 813.4,-78.3241 802.922,-76.7544 804.23,-83.6311"/>
</g>
<!-- Node29&#45;&gt;Node9 -->
<g id="edge100" class="edge"><title>Node29&#45;&gt;Node9</title>
<path fill="none" stroke="midnightblue" d="M535.228,-120.903C581.132,-110.623 674.105,-89.8027 727.289,-77.8929"/>
<polygon fill="midnightblue" stroke="midnightblue" points="728.376,-81.2362 737.369,-75.6354 726.846,-74.4054 728.376,-81.2362"/>
</g>
<!-- Node30 -->
<g id="node82" class="node"><title>Node30</title>
<polygon fill="white" stroke="#bfbfbf" points="483.5,-58.5 483.5,-79.5 532.5,-79.5 532.5,-58.5 483.5,-58.5"/>
<text text-anchor="middle" x="508" y="-66.5" font-family="Helvetica,sans-Serif" font-size="10.00">ctype.h</text>
</g>
<!-- Node29&#45;&gt;Node30 -->
<g id="edge104" class="edge"><title>Node29&#45;&gt;Node30</title>
<path fill="none" stroke="midnightblue" d="M508,-116.362C508,-108.922 508,-98.7427 508,-89.7276"/>
<polygon fill="midnightblue" stroke="midnightblue" points="511.5,-89.5706 508,-79.5707 504.5,-89.5707 511.5,-89.5706"/>
</g>
<!-- Node31 -->
<g id="node84" class="node"><title>Node31</title>
<polygon fill="white" stroke="#bfbfbf" points="550,-58.5 550,-79.5 606,-79.5 606,-58.5 550,-58.5"/>
<text text-anchor="middle" x="578" y="-66.5" font-family="Helvetica,sans-Serif" font-size="10.00">wctype.h</text>
</g>
<!-- Node29&#45;&gt;Node31 -->
<g id="edge106" class="edge"><title>Node29&#45;&gt;Node31</title>
<path fill="none" stroke="midnightblue" d="M520.839,-116.362C531.002,-107.941 545.401,-96.0105 557.204,-86.2308"/>
<polygon fill="midnightblue" stroke="midnightblue" points="559.775,-88.6459 565.242,-79.5707 555.309,-83.2558 559.775,-88.6459"/>
</g>
<!-- Node34&#45;&gt;Node22 -->
<g id="edge124" class="edge"><title>Node34&#45;&gt;Node22</title>
<path fill="none" stroke="midnightblue" d="M462.171,-580.362C469.148,-572.268 478.921,-560.932 487.156,-551.38"/>
<polygon fill="midnightblue" stroke="midnightblue" points="490.009,-553.43 493.887,-543.571 484.707,-548.859 490.009,-553.43"/>
</g>
<!-- Node35 -->
<g id="node94" class="node"><title>Node35</title>
<a xlink:href="typeset_8h.html" target="_top" xlink:title="typeset.h">
<polygon fill="white" stroke="black" points="563.5,-522.5 563.5,-543.5 620.5,-543.5 620.5,-522.5 563.5,-522.5"/>
<text text-anchor="middle" x="592" y="-530.5" font-family="Helvetica,sans-Serif" font-size="10.00">typeset.h</text>
</a>
</g>
<!-- Node34&#45;&gt;Node35 -->
<g id="edge118" class="edge"><title>Node34&#45;&gt;Node35</title>
<path fill="none" stroke="midnightblue" d="M475.025,-581.81C497.154,-572.576 531.582,-558.21 557.368,-547.451"/>
<polygon fill="midnightblue" stroke="midnightblue" points="558.903,-550.603 566.784,-543.522 556.207,-544.143 558.903,-550.603"/>
</g>
<!-- Node35&#45;&gt;Node23 -->
<g id="edge120" class="edge"><title>Node35&#45;&gt;Node23</title>
<path fill="none" stroke="midnightblue" d="M592.367,-522.362C592.623,-514.922 592.974,-504.743 593.285,-495.728"/>
<polygon fill="midnightblue" stroke="midnightblue" points="596.789,-495.685 593.635,-485.571 589.793,-495.444 596.789,-495.685"/>
</g>
<!-- Node35&#45;&gt;Node24 -->
<g id="edge122" class="edge"><title>Node35&#45;&gt;Node24</title>
<path fill="none" stroke="midnightblue" d="M577.143,-522.362C565.154,-513.777 548.073,-501.546 534.272,-491.664"/>
<polygon fill="midnightblue" stroke="midnightblue" points="535.931,-488.547 525.762,-485.571 531.855,-494.238 535.931,-488.547"/>
</g>
<!-- Node36&#45;&gt;Node2 -->
<g id="edge128" class="edge"><title>Node36&#45;&gt;Node2</title>
<path fill="none" stroke="midnightblue" d="M890.884,-290.348C911.908,-250.783 978.165,-111.795 903,-58 865.968,-31.4965 558.488,-17.0993 442.793,-12.5792"/>
<polygon fill="midnightblue" stroke="midnightblue" points="442.659,-9.07156 432.532,-12.1847 442.39,-16.0664 442.659,-9.07156"/>
</g>
<!-- Node36&#45;&gt;Node5 -->
<g id="edge130" class="edge"><title>Node36&#45;&gt;Node5</title>
<path fill="none" stroke="midnightblue" d="M897.33,-290.425C906.531,-281.701 918.433,-268.445 924,-254 946.071,-196.732 958.72,-169.698 929,-116 921.187,-101.883 907.166,-91.44 893.344,-84.0316"/>
<polygon fill="midnightblue" stroke="midnightblue" points="894.873,-80.8831 884.357,-79.5933 891.773,-87.1595 894.873,-80.8831"/>
</g>
<!-- Node36&#45;&gt;Node9 -->
<g id="edge132" class="edge"><title>Node36&#45;&gt;Node9</title>
<path fill="none" stroke="midnightblue" d="M879.623,-290.429C861.271,-254.346 800.916,-135.683 776.943,-88.5499"/>
<polygon fill="midnightblue" stroke="midnightblue" points="780.062,-86.9601 772.408,-79.6335 773.822,-90.1336 780.062,-86.9601"/>
</g>
<!-- Node37&#45;&gt;Node3 -->
<g id="edge142" class="edge"><title>Node37&#45;&gt;Node3</title>
<path fill="none" stroke="midnightblue" d="M722.885,-580.456C754.024,-563.077 809,-525.276 809,-475 809,-475 809,-475 809,-417 809,-334.836 765.883,-243.893 745.033,-204.719"/>
<polygon fill="midnightblue" stroke="midnightblue" points="747.986,-202.823 740.138,-195.706 741.835,-206.164 747.986,-202.823"/>
</g>
<!-- Node37&#45;&gt;Node29 -->
<g id="edge152" class="edge"><title>Node37&#45;&gt;Node29</title>
<path fill="none" stroke="midnightblue" d="M696.972,-580.204C683.267,-551.138 643.495,-469.165 602,-406 572.807,-361.561 548.082,-361.232 528,-312 505.1,-255.858 505.028,-182.597 506.62,-147.496"/>
<polygon fill="midnightblue" stroke="midnightblue" points="510.115,-147.688 507.169,-137.511 503.126,-147.304 510.115,-147.688"/>
</g>
<!-- Node37&#45;&gt;Node35 -->
<g id="edge154" class="edge"><title>Node37&#45;&gt;Node35</title>
<path fill="none" stroke="midnightblue" d="M682.08,-580.497C665.054,-571.519 640.331,-558.484 621.091,-548.339"/>
<polygon fill="midnightblue" stroke="midnightblue" points="622.622,-545.189 612.144,-543.621 619.357,-551.381 622.622,-545.189"/>
</g>
<!-- Node37&#45;&gt;Node36 -->
<g id="edge150" class="edge"><title>Node37&#45;&gt;Node36</title>
<path fill="none" stroke="midnightblue" d="M730.235,-586.977C757.469,-581.672 798.12,-569.786 823,-544 845.545,-520.634 847,-507.469 847,-475 847,-475 847,-475 847,-417 847,-381.741 863.051,-343.315 874.289,-320.732"/>
<polygon fill="midnightblue" stroke="midnightblue" points="877.418,-322.301 878.895,-311.809 871.198,-319.09 877.418,-322.301"/>
</g>
<!-- Node38 -->
<g id="node110" class="node"><title>Node38</title>
<a xlink:href="keystrs_8h.html" target="_top" xlink:title="keystrs.h">
<polygon fill="white" stroke="black" points="724.5,-348.5 724.5,-369.5 781.5,-369.5 781.5,-348.5 724.5,-348.5"/>
<text text-anchor="middle" x="753" y="-356.5" font-family="Helvetica,sans-Serif" font-size="10.00">keystrs.h</text>
</a>
</g>
<!-- Node37&#45;&gt;Node38 -->
<g id="edge144" class="edge"><title>Node37&#45;&gt;Node38</title>
<path fill="none" stroke="midnightblue" d="M704.324,-580.429C712.206,-544.573 738.015,-427.169 748.505,-379.446"/>
<polygon fill="midnightblue" stroke="midnightblue" points="751.934,-380.152 750.662,-369.634 745.097,-378.649 751.934,-380.152"/>
</g>
<!-- Node38&#45;&gt;Node3 -->
<g id="edge146" class="edge"><title>Node38&#45;&gt;Node3</title>
<path fill="none" stroke="midnightblue" d="M751.84,-348.377C748.773,-320.293 740.407,-243.673 736.315,-206.203"/>
<polygon fill="midnightblue" stroke="midnightblue" points="739.758,-205.489 735.193,-195.928 732.8,-206.249 739.758,-205.489"/>
</g>
<!-- Node38&#45;&gt;Node27 -->
<g id="edge148" class="edge"><title>Node38&#45;&gt;Node27</title>
<path fill="none" stroke="midnightblue" d="M724.32,-349.81C694.743,-340.332 648.292,-325.447 614.458,-314.605"/>
<polygon fill="midnightblue" stroke="midnightblue" points="615.426,-311.24 604.835,-311.522 613.29,-317.906 615.426,-311.24"/>
</g>
</g>
</svg>
