<?xml version="1.0" encoding="UTF-8" standalone="no"?>
<!DOCTYPE svg PUBLIC "-//W3C//DTD SVG 1.1//EN"
 "http://www.w3.org/Graphics/SVG/1.1/DTD/svg11.dtd">
<!-- Generated by graphviz version 2.26.0 (20091210.2329)
 -->
<!-- Title: view2ddataman.h Pages: 1 -->
<svg width="748pt" height="146pt"
 viewBox="0.00 0.00 748.00 146.00" xmlns="http://www.w3.org/2000/svg" xmlns:xlink="http://www.w3.org/1999/xlink">
<g id="graph1" class="graph" transform="scale(1 1) rotate(0) translate(4 142)">
<title>view2ddataman.h</title>
<polygon fill="white" stroke="white" points="-4,5 -4,-142 745,-142 745,5 -4,5"/>
<!-- Node1 -->
<g id="node1" class="node"><title>Node1</title>
<polygon fill="#bfbfbf" stroke="black" points="318.5,-116.5 318.5,-137.5 411.5,-137.5 411.5,-116.5 318.5,-116.5"/>
<text text-anchor="middle" x="365" y="-124.5" font-family="Helvetica,sans-Serif" font-size="10.00">view2ddataman.h</text>
</g>
<!-- Node2 -->
<g id="node3" class="node"><title>Node2</title>
<a xlink:href="view2ddata_8h.html" target="_top" xlink:title="view2ddata.h">
<polygon fill="white" stroke="black" points="328,-58.5 328,-79.5 402,-79.5 402,-58.5 328,-58.5"/>
<text text-anchor="middle" x="365" y="-66.5" font-family="Helvetica,sans-Serif" font-size="10.00">view2ddata.h</text>
</a>
</g>
<!-- Node1&#45;&gt;Node2 -->
<g id="edge2" class="edge"><title>Node1&#45;&gt;Node2</title>
<path fill="none" stroke="midnightblue" d="M365,-106.191C365,-97.1684 365,-86.9941 365,-79.5707"/>
<polygon fill="midnightblue" stroke="midnightblue" points="361.5,-106.362 365,-116.362 368.5,-106.362 361.5,-106.362"/>
</g>
<!-- Node3 -->
<g id="node5" class="node"><title>Node3</title>
<a xlink:href="view2dfault_8h.html" target="_top" xlink:title="view2dfault.h">
<polygon fill="white" stroke="black" points="0,-0.5 0,-21.5 74,-21.5 74,-0.5 0,-0.5"/>
<text text-anchor="middle" x="37" y="-8.5" font-family="Helvetica,sans-Serif" font-size="10.00">view2dfault.h</text>
</a>
</g>
<!-- Node2&#45;&gt;Node3 -->
<g id="edge4" class="edge"><title>Node2&#45;&gt;Node3</title>
<path fill="none" stroke="midnightblue" d="M317.896,-62.1744C261.754,-53.8028 165.201,-38.6575 83,-22 80.1028,-21.4129 77.1108,-20.7734 74.1079,-20.1078"/>
<polygon fill="midnightblue" stroke="midnightblue" points="317.491,-65.6525 327.896,-63.6575 318.518,-58.7282 317.491,-65.6525"/>
</g>
<!-- Node4 -->
<g id="node7" class="node"><title>Node4</title>
<a xlink:href="view2dfaultss2d_8h.html" target="_top" xlink:title="view2dfaultss2d.h">
<polygon fill="white" stroke="black" points="91.5,-0.5 91.5,-21.5 186.5,-21.5 186.5,-0.5 91.5,-0.5"/>
<text text-anchor="middle" x="139" y="-8.5" font-family="Helvetica,sans-Serif" font-size="10.00">view2dfaultss2d.h</text>
</a>
</g>
<!-- Node2&#45;&gt;Node4 -->
<g id="edge6" class="edge"><title>Node2&#45;&gt;Node4</title>
<path fill="none" stroke="midnightblue" d="M318.002,-56.9385C277.361,-46.5087 219.184,-31.5782 180.302,-21.5996"/>
<polygon fill="midnightblue" stroke="midnightblue" points="317.378,-60.3917 327.934,-59.4874 319.118,-53.6114 317.378,-60.3917"/>
</g>
<!-- Node5 -->
<g id="node9" class="node"><title>Node5</title>
<a xlink:href="view2dfaultss3d_8h.html" target="_top" xlink:title="view2dfaultss3d.h">
<polygon fill="white" stroke="black" points="203.5,-0.5 203.5,-21.5 298.5,-21.5 298.5,-0.5 203.5,-0.5"/>
<text text-anchor="middle" x="251" y="-8.5" font-family="Helvetica,sans-Serif" font-size="10.00">view2dfaultss3d.h</text>
</a>
</g>
<!-- Node2&#45;&gt;Node5 -->
<g id="edge8" class="edge"><title>Node2&#45;&gt;Node5</title>
<path fill="none" stroke="midnightblue" d="M335.383,-53.9319C315.456,-43.7932 289.671,-30.6748 271.876,-21.6212"/>
<polygon fill="midnightblue" stroke="midnightblue" points="333.856,-57.0815 344.355,-58.4966 337.03,-50.8425 333.856,-57.0815"/>
</g>
<!-- Node6 -->
<g id="node11" class="node"><title>Node6</title>
<a xlink:href="view2dhorizon2d_8h.html" target="_top" xlink:title="view2dhorizon2d.h">
<polygon fill="white" stroke="black" points="316,-0.5 316,-21.5 414,-21.5 414,-0.5 316,-0.5"/>
<text text-anchor="middle" x="365" y="-8.5" font-family="Helvetica,sans-Serif" font-size="10.00">view2dhorizon2d.h</text>
</a>
</g>
<!-- Node2&#45;&gt;Node6 -->
<g id="edge10" class="edge"><title>Node2&#45;&gt;Node6</title>
<path fill="none" stroke="midnightblue" d="M365,-48.1906C365,-39.1684 365,-28.9941 365,-21.5707"/>
<polygon fill="midnightblue" stroke="midnightblue" points="361.5,-48.3619 365,-58.3619 368.5,-48.3619 361.5,-48.3619"/>
</g>
<!-- Node7 -->
<g id="node13" class="node"><title>Node7</title>
<a xlink:href="view2dhorizon3d_8h.html" target="_top" xlink:title="view2dhorizon3d.h">
<polygon fill="white" stroke="black" points="432,-0.5 432,-21.5 530,-21.5 530,-0.5 432,-0.5"/>
<text text-anchor="middle" x="481" y="-8.5" font-family="Helvetica,sans-Serif" font-size="10.00">view2dhorizon3d.h</text>
</a>
</g>
<!-- Node2&#45;&gt;Node7 -->
<g id="edge12" class="edge"><title>Node2&#45;&gt;Node7</title>
<path fill="none" stroke="midnightblue" d="M395.136,-53.9319C415.414,-43.7932 441.65,-30.6748 459.758,-21.6212"/>
<polygon fill="midnightblue" stroke="midnightblue" points="393.386,-50.8939 386.007,-58.4966 396.516,-57.1549 393.386,-50.8939"/>
</g>
<!-- Node8 -->
<g id="node15" class="node"><title>Node8</title>
<a xlink:href="view2dpickset_8h.html" target="_top" xlink:title="view2dpickset.h">
<polygon fill="white" stroke="black" points="547.5,-0.5 547.5,-21.5 634.5,-21.5 634.5,-0.5 547.5,-0.5"/>
<text text-anchor="middle" x="591" y="-8.5" font-family="Helvetica,sans-Serif" font-size="10.00">view2dpickset.h</text>
</a>
</g>
<!-- Node2&#45;&gt;Node8 -->
<g id="edge14" class="edge"><title>Node2&#45;&gt;Node8</title>
<path fill="none" stroke="midnightblue" d="M411.998,-56.9385C452.639,-46.5087 510.816,-31.5782 549.698,-21.5996"/>
<polygon fill="midnightblue" stroke="midnightblue" points="410.882,-53.6114 402.066,-59.4874 412.622,-60.3917 410.882,-53.6114"/>
</g>
<!-- Node9 -->
<g id="node17" class="node"><title>Node9</title>
<a xlink:href="view2dseismic_8h.html" target="_top" xlink:title="view2dseismic.h">
<polygon fill="white" stroke="black" points="651.5,-0.5 651.5,-21.5 740.5,-21.5 740.5,-0.5 651.5,-0.5"/>
<text text-anchor="middle" x="696" y="-8.5" font-family="Helvetica,sans-Serif" font-size="10.00">view2dseismic.h</text>
</a>
</g>
<!-- Node2&#45;&gt;Node9 -->
<g id="edge16" class="edge"><title>Node2&#45;&gt;Node9</title>
<path fill="none" stroke="midnightblue" d="M412.276,-61.5562C467.669,-52.7073 562.166,-37.2162 643,-22 645.771,-21.4785 648.62,-20.9281 651.491,-20.3628"/>
<polygon fill="midnightblue" stroke="midnightblue" points="411.725,-58.0998 402.4,-63.1296 412.826,-65.0126 411.725,-58.0998"/>
</g>
</g>
</svg>
