<?xml version="1.0" encoding="UTF-8" standalone="no"?>
<!DOCTYPE svg PUBLIC "-//W3C//DTD SVG 1.1//EN"
 "http://www.w3.org/Graphics/SVG/1.1/DTD/svg11.dtd">
<!-- Generated by graphviz version 2.26.0 (20091210.2329)
 -->
<!-- Title: visdatagroup.h Pages: 1 -->
<svg width="2074pt" height="320pt"
 viewBox="0.00 0.00 2074.00 320.00" xmlns="http://www.w3.org/2000/svg" xmlns:xlink="http://www.w3.org/1999/xlink">
<g id="graph1" class="graph" transform="scale(1 1) rotate(0) translate(4 316)">
<title>visdatagroup.h</title>
<polygon fill="white" stroke="white" points="-4,5 -4,-316 2071,-316 2071,5 -4,5"/>
<!-- Node1 -->
<g id="node1" class="node"><title>Node1</title>
<polygon fill="#bfbfbf" stroke="black" points="526,-290.5 526,-311.5 606,-311.5 606,-290.5 526,-290.5"/>
<text text-anchor="middle" x="566" y="-298.5" font-family="Helvetica,sans-Serif" font-size="10.00">visdatagroup.h</text>
</g>
<!-- Node2 -->
<g id="node3" class="node"><title>Node2</title>
<a xlink:href="vistransform_8h.html" target="_top" xlink:title="vistransform.h">
<polygon fill="white" stroke="black" points="346.5,-116.5 346.5,-137.5 425.5,-137.5 425.5,-116.5 346.5,-116.5"/>
<text text-anchor="middle" x="386" y="-124.5" font-family="Helvetica,sans-Serif" font-size="10.00">vistransform.h</text>
</a>
</g>
<!-- Node1&#45;&gt;Node2 -->
<g id="edge2" class="edge"><title>Node1&#45;&gt;Node2</title>
<path fill="none" stroke="midnightblue" d="M547.384,-283.005C510.148,-247.01 427.478,-167.096 397.305,-137.928"/>
<polygon fill="midnightblue" stroke="midnightblue" points="545.389,-285.944 555.011,-290.377 550.254,-280.911 545.389,-285.944"/>
</g>
<!-- Node10 -->
<g id="node19" class="node"><title>Node10</title>
<a xlink:href="visscene_8h.html" target="_top" xlink:title="visscene.h">
<polygon fill="white" stroke="black" points="854,-232.5 854,-253.5 918,-253.5 918,-232.5 854,-232.5"/>
<text text-anchor="middle" x="886" y="-240.5" font-family="Helvetica,sans-Serif" font-size="10.00">visscene.h</text>
</a>
</g>
<!-- Node1&#45;&gt;Node10 -->
<g id="edge18" class="edge"><title>Node1&#45;&gt;Node10</title>
<path fill="none" stroke="midnightblue" d="M616.449,-291.856C682.987,-279.796 798.15,-258.923 853.909,-248.816"/>
<polygon fill="midnightblue" stroke="midnightblue" points="615.42,-288.486 606.204,-293.713 616.668,-295.373 615.42,-288.486"/>
</g>
<!-- Node3 -->
<g id="node5" class="node"><title>Node3</title>
<a xlink:href="vishortileresolutiondata_8h.html" target="_top" xlink:title="vishortileresolutiondata.h">
<polygon fill="white" stroke="black" points="323.5,-58.5 323.5,-79.5 448.5,-79.5 448.5,-58.5 323.5,-58.5"/>
<text text-anchor="middle" x="386" y="-66.5" font-family="Helvetica,sans-Serif" font-size="10.00">vishortileresolutiondata.h</text>
</a>
</g>
<!-- Node2&#45;&gt;Node3 -->
<g id="edge4" class="edge"><title>Node2&#45;&gt;Node3</title>
<path fill="none" stroke="midnightblue" d="M386,-106.191C386,-97.1684 386,-86.9941 386,-79.5707"/>
<polygon fill="midnightblue" stroke="midnightblue" points="382.5,-106.362 386,-116.362 389.5,-106.362 382.5,-106.362"/>
</g>
<!-- Node4 -->
<g id="node7" class="node"><title>Node4</title>
<a xlink:href="vistexturepanelstrip_8h.html" target="_top" xlink:title="vistexturepanelstrip.h">
<polygon fill="white" stroke="black" points="0,-58.5 0,-79.5 110,-79.5 110,-58.5 0,-58.5"/>
<text text-anchor="middle" x="55" y="-66.5" font-family="Helvetica,sans-Serif" font-size="10.00">vistexturepanelstrip.h</text>
</a>
</g>
<!-- Node2&#45;&gt;Node4 -->
<g id="edge6" class="edge"><title>Node2&#45;&gt;Node4</title>
<path fill="none" stroke="midnightblue" d="M336.296,-118.291C275.56,-107.648 173.118,-89.6975 110.049,-78.6461"/>
<polygon fill="midnightblue" stroke="midnightblue" points="335.948,-121.783 346.402,-120.061 337.157,-114.888 335.948,-121.783"/>
</g>
<!-- Node5 -->
<g id="node9" class="node"><title>Node5</title>
<a xlink:href="vistexturerect_8h.html" target="_top" xlink:title="vistexturerect.h">
<polygon fill="white" stroke="black" points="128,-58.5 128,-79.5 212,-79.5 212,-58.5 128,-58.5"/>
<text text-anchor="middle" x="170" y="-66.5" font-family="Helvetica,sans-Serif" font-size="10.00">vistexturerect.h</text>
</a>
</g>
<!-- Node2&#45;&gt;Node5 -->
<g id="edge8" class="edge"><title>Node2&#45;&gt;Node5</title>
<path fill="none" stroke="midnightblue" d="M336.887,-113.812C298.216,-103.428 245.037,-89.1487 209.189,-79.5231"/>
<polygon fill="midnightblue" stroke="midnightblue" points="336.318,-117.284 346.884,-116.497 338.134,-110.523 336.318,-117.284"/>
</g>
<!-- Node7 -->
<g id="node13" class="node"><title>Node7</title>
<a xlink:href="vispointsetdisplay_8h.html" target="_top" xlink:title="vispointsetdisplay.h">
<polygon fill="white" stroke="black" points="583.5,-58.5 583.5,-79.5 686.5,-79.5 686.5,-58.5 583.5,-58.5"/>
<text text-anchor="middle" x="635" y="-66.5" font-family="Helvetica,sans-Serif" font-size="10.00">vispointsetdisplay.h</text>
</a>
</g>
<!-- Node2&#45;&gt;Node7 -->
<g id="edge12" class="edge"><title>Node2&#45;&gt;Node7</title>
<path fill="none" stroke="midnightblue" d="M435.535,-115.462C480.394,-105.013 545.941,-89.7446 589.502,-79.5979"/>
<polygon fill="midnightblue" stroke="midnightblue" points="434.675,-112.068 425.73,-117.746 436.263,-118.886 434.675,-112.068"/>
</g>
<!-- Node8 -->
<g id="node15" class="node"><title>Node8</title>
<a xlink:href="vispolylinedisplay_8h.html" target="_top" xlink:title="vispolylinedisplay.h">
<polygon fill="white" stroke="black" points="465.5,-58.5 465.5,-79.5 566.5,-79.5 566.5,-58.5 465.5,-58.5"/>
<text text-anchor="middle" x="516" y="-66.5" font-family="Helvetica,sans-Serif" font-size="10.00">vispolylinedisplay.h</text>
</a>
</g>
<!-- Node2&#45;&gt;Node8 -->
<g id="edge14" class="edge"><title>Node2&#45;&gt;Node8</title>
<path fill="none" stroke="midnightblue" d="M418.852,-112.343C441.698,-102.15 471.626,-88.7977 492.194,-79.6212"/>
<polygon fill="midnightblue" stroke="midnightblue" points="417.248,-109.226 409.542,-116.497 420.1,-115.618 417.248,-109.226"/>
</g>
<!-- Node9 -->
<g id="node17" class="node"><title>Node9</title>
<a xlink:href="vistransmgr_8h.html" target="_top" xlink:title="vistransmgr.h">
<polygon fill="white" stroke="black" points="230,-58.5 230,-79.5 306,-79.5 306,-58.5 230,-58.5"/>
<text text-anchor="middle" x="268" y="-66.5" font-family="Helvetica,sans-Serif" font-size="10.00">vistransmgr.h</text>
</a>
</g>
<!-- Node2&#45;&gt;Node9 -->
<g id="edge16" class="edge"><title>Node2&#45;&gt;Node9</title>
<path fill="none" stroke="midnightblue" d="M355.624,-112.069C334.959,-101.912 308.111,-88.7157 289.609,-79.6212"/>
<polygon fill="midnightblue" stroke="midnightblue" points="354.113,-115.226 364.631,-116.497 357.201,-108.944 354.113,-115.226"/>
</g>
<!-- Node6 -->
<g id="node11" class="node"><title>Node6</title>
<a xlink:href="visplanedatadisplay_8h.html" target="_top" xlink:title="visplanedatadisplay.h">
<polygon fill="white" stroke="black" points="412,-0.5 412,-21.5 522,-21.5 522,-0.5 412,-0.5"/>
<text text-anchor="middle" x="467" y="-8.5" font-family="Helvetica,sans-Serif" font-size="10.00">visplanedatadisplay.h</text>
</a>
</g>
<!-- Node5&#45;&gt;Node6 -->
<g id="edge10" class="edge"><title>Node5&#45;&gt;Node6</title>
<path fill="none" stroke="midnightblue" d="M222.038,-57.8204C293.129,-43.4304 364.061,-30.0353 411.725,-21.1742"/>
<polygon fill="midnightblue" stroke="midnightblue" points="221.112,-54.437 212.008,-59.8571 222.505,-61.297 221.112,-54.437"/>
</g>
<!-- Node11 -->
<g id="node21" class="node"><title>Node11</title>
<a xlink:href="vissurvscene_8h.html" target="_top" xlink:title="vissurvscene.h">
<polygon fill="white" stroke="black" points="1056.5,-174.5 1056.5,-195.5 1139.5,-195.5 1139.5,-174.5 1056.5,-174.5"/>
<text text-anchor="middle" x="1098" y="-182.5" font-family="Helvetica,sans-Serif" font-size="10.00">vissurvscene.h</text>
</a>
</g>
<!-- Node10&#45;&gt;Node11 -->
<g id="edge20" class="edge"><title>Node10&#45;&gt;Node11</title>
<path fill="none" stroke="midnightblue" d="M927.997,-231.51C966.234,-221.049 1022.23,-205.729 1059.38,-195.567"/>
<polygon fill="midnightblue" stroke="midnightblue" points="926.92,-228.176 918.198,-234.191 928.767,-234.928 926.92,-228.176"/>
</g>
<!-- Node34 -->
<g id="node70" class="node"><title>Node34</title>
<a xlink:href="swapbuffercallback_8h.html" target="_top" xlink:title="swapbuffercallback.h">
<polygon fill="white" stroke="black" points="831.5,-174.5 831.5,-195.5 940.5,-195.5 940.5,-174.5 831.5,-174.5"/>
<text text-anchor="middle" x="886" y="-182.5" font-family="Helvetica,sans-Serif" font-size="10.00">swapbuffercallback.h</text>
</a>
</g>
<!-- Node10&#45;&gt;Node34 -->
<g id="edge72" class="edge"><title>Node10&#45;&gt;Node34</title>
<path fill="none" stroke="midnightblue" d="M886,-222.191C886,-213.168 886,-202.994 886,-195.571"/>
<polygon fill="midnightblue" stroke="midnightblue" points="882.5,-222.362 886,-232.362 889.5,-222.362 882.5,-222.362"/>
</g>
<!-- Node12 -->
<g id="node23" class="node"><title>Node12</title>
<a xlink:href="vissurvobj_8h.html" target="_top" xlink:title="vissurvobj.h">
<polygon fill="white" stroke="black" points="1162.5,-116.5 1162.5,-137.5 1231.5,-137.5 1231.5,-116.5 1162.5,-116.5"/>
<text text-anchor="middle" x="1197" y="-124.5" font-family="Helvetica,sans-Serif" font-size="10.00">vissurvobj.h</text>
</a>
</g>
<!-- Node11&#45;&gt;Node12 -->
<g id="edge22" class="edge"><title>Node11&#45;&gt;Node12</title>
<path fill="none" stroke="midnightblue" d="M1125.14,-169.101C1142.27,-159.066 1163.92,-146.381 1178.96,-137.571"/>
<polygon fill="midnightblue" stroke="midnightblue" points="1123.02,-166.287 1116.16,-174.362 1126.56,-172.327 1123.02,-166.287"/>
</g>
<!-- Node12&#45;&gt;Node7 -->
<g id="edge58" class="edge"><title>Node12&#45;&gt;Node7</title>
<path fill="none" stroke="midnightblue" d="M1152.35,-124.144C1064.5,-118.232 863.103,-103.233 695,-80 692.272,-79.623 689.48,-79.2092 686.664,-78.7698"/>
<polygon fill="midnightblue" stroke="midnightblue" points="1152.28,-127.647 1162.49,-124.82 1152.75,-120.663 1152.28,-127.647"/>
</g>
<!-- Node12&#45;&gt;Node8 -->
<g id="edge60" class="edge"><title>Node12&#45;&gt;Node8</title>
<path fill="none" stroke="midnightblue" d="M1152.19,-125.29C1049.65,-121.011 790.202,-108.107 575,-80 572.314,-79.6492 569.565,-79.2561 566.793,-78.8331"/>
<polygon fill="midnightblue" stroke="midnightblue" points="1152.34,-128.799 1162.48,-125.712 1152.63,-121.805 1152.34,-128.799"/>
</g>
<!-- Node13 -->
<g id="node25" class="node"><title>Node13</title>
<a xlink:href="vislocationdisplay_8h.html" target="_top" xlink:title="vislocationdisplay.h">
<polygon fill="white" stroke="black" points="1330,-58.5 1330,-79.5 1432,-79.5 1432,-58.5 1330,-58.5"/>
<text text-anchor="middle" x="1381" y="-66.5" font-family="Helvetica,sans-Serif" font-size="10.00">vislocationdisplay.h</text>
</a>
</g>
<!-- Node12&#45;&gt;Node13 -->
<g id="edge24" class="edge"><title>Node12&#45;&gt;Node13</title>
<path fill="none" stroke="midnightblue" d="M1240.1,-113.413C1272.93,-103.065 1317.47,-89.0258 1347.62,-79.5231"/>
<polygon fill="midnightblue" stroke="midnightblue" points="1238.81,-110.152 1230.32,-116.497 1240.91,-116.828 1238.81,-110.152"/>
</g>
<!-- Node18 -->
<g id="node35" class="node"><title>Node18</title>
<a xlink:href="visemobjdisplay_8h.html" target="_top" xlink:title="visemobjdisplay.h">
<polygon fill="white" stroke="black" points="1449.5,-58.5 1449.5,-79.5 1544.5,-79.5 1544.5,-58.5 1449.5,-58.5"/>
<text text-anchor="middle" x="1497" y="-66.5" font-family="Helvetica,sans-Serif" font-size="10.00">visemobjdisplay.h</text>
</a>
</g>
<!-- Node12&#45;&gt;Node18 -->
<g id="edge34" class="edge"><title>Node12&#45;&gt;Node18</title>
<path fill="none" stroke="midnightblue" d="M1241.7,-118.44C1290.64,-109.058 1371.42,-93.535 1441,-80 1443.72,-79.4703 1446.52,-78.9248 1449.34,-78.3734"/>
<polygon fill="midnightblue" stroke="midnightblue" points="1240.92,-115.027 1231.76,-120.347 1242.24,-121.901 1240.92,-115.027"/>
</g>
<!-- Node21 -->
<g id="node41" class="node"><title>Node21</title>
<a xlink:href="vismultiattribsurvobj_8h.html" target="_top" xlink:title="vismultiattribsurvobj.h">
<polygon fill="white" stroke="black" points="1200,-58.5 1200,-79.5 1312,-79.5 1312,-58.5 1200,-58.5"/>
<text text-anchor="middle" x="1256" y="-66.5" font-family="Helvetica,sans-Serif" font-size="10.00">vismultiattribsurvobj.h</text>
</a>
</g>
<!-- Node12&#45;&gt;Node21 -->
<g id="edge40" class="edge"><title>Node12&#45;&gt;Node21</title>
<path fill="none" stroke="midnightblue" d="M1215.19,-109.118C1225.04,-99.4377 1236.87,-87.8098 1245.25,-79.5707"/>
<polygon fill="midnightblue" stroke="midnightblue" points="1212.5,-106.856 1207.82,-116.362 1217.41,-111.847 1212.5,-106.856"/>
</g>
<!-- Node26 -->
<g id="node52" class="node"><title>Node26</title>
<a xlink:href="visfaultsticksetdisplay_8h.html" target="_top" xlink:title="visfaultsticksetdisplay.h">
<polygon fill="white" stroke="black" points="1562,-58.5 1562,-79.5 1684,-79.5 1684,-58.5 1562,-58.5"/>
<text text-anchor="middle" x="1623" y="-66.5" font-family="Helvetica,sans-Serif" font-size="10.00">visfaultsticksetdisplay.h</text>
</a>
</g>
<!-- Node12&#45;&gt;Node26 -->
<g id="edge52" class="edge"><title>Node12&#45;&gt;Node26</title>
<path fill="none" stroke="midnightblue" d="M1241.94,-121.427C1309.51,-112.966 1441.28,-96.1499 1553,-80 1555.92,-79.5776 1558.91,-79.1377 1561.93,-78.6873"/>
<polygon fill="midnightblue" stroke="midnightblue" points="1241.14,-117.999 1231.66,-122.712 1242.01,-124.945 1241.14,-117.999"/>
</g>
<!-- Node27 -->
<g id="node54" class="node"><title>Node27</title>
<a xlink:href="vismarchingcubessurfacedisplay_8h.html" target="_top" xlink:title="vismarchingcubessurfacedisplay.h">
<polygon fill="white" stroke="black" points="1701.5,-58.5 1701.5,-79.5 1868.5,-79.5 1868.5,-58.5 1701.5,-58.5"/>
<text text-anchor="middle" x="1785" y="-66.5" font-family="Helvetica,sans-Serif" font-size="10.00">vismarchingcubessurfacedisplay.h</text>
</a>
</g>
<!-- Node12&#45;&gt;Node27 -->
<g id="edge54" class="edge"><title>Node12&#45;&gt;Node27</title>
<path fill="none" stroke="midnightblue" d="M1241.65,-123.139C1328.59,-115.538 1526.68,-97.8207 1693,-80 1695.72,-79.7087 1698.48,-79.4075 1701.27,-79.0991"/>
<polygon fill="midnightblue" stroke="midnightblue" points="1241.26,-119.659 1231.61,-124.015 1241.87,-126.633 1241.26,-119.659"/>
</g>
<!-- Node28 -->
<g id="node56" class="node"><title>Node28</title>
<a xlink:href="vismpe_8h.html" target="_top" xlink:title="vismpe.h">
<polygon fill="white" stroke="black" points="1886,-58.5 1886,-79.5 1942,-79.5 1942,-58.5 1886,-58.5"/>
<text text-anchor="middle" x="1914" y="-66.5" font-family="Helvetica,sans-Serif" font-size="10.00">vismpe.h</text>
</a>
</g>
<!-- Node12&#45;&gt;Node28 -->
<g id="edge56" class="edge"><title>Node12&#45;&gt;Node28</title>
<path fill="none" stroke="midnightblue" d="M1241.65,-125.198C1372.62,-119.708 1754.27,-102.205 1877,-80 1879.9,-79.475 1882.9,-78.8056 1885.87,-78.0568"/>
<polygon fill="midnightblue" stroke="midnightblue" points="1241.41,-121.705 1231.57,-125.617 1241.71,-128.698 1241.41,-121.705"/>
</g>
<!-- Node29 -->
<g id="node60" class="node"><title>Node29</title>
<a xlink:href="visprestackdisplay_8h.html" target="_top" xlink:title="visprestackdisplay.h">
<polygon fill="white" stroke="black" points="1960,-58.5 1960,-79.5 2066,-79.5 2066,-58.5 1960,-58.5"/>
<text text-anchor="middle" x="2013" y="-66.5" font-family="Helvetica,sans-Serif" font-size="10.00">visprestackdisplay.h</text>
</a>
</g>
<!-- Node12&#45;&gt;Node29 -->
<g id="edge62" class="edge"><title>Node12&#45;&gt;Node29</title>
<path fill="none" stroke="midnightblue" d="M1241.71,-125.981C1358.64,-122.933 1683,-112.022 1951,-80 1953.93,-79.6498 1956.93,-79.2511 1959.96,-78.8181"/>
<polygon fill="midnightblue" stroke="midnightblue" points="1241.6,-122.482 1231.7,-126.236 1241.78,-129.48 1241.6,-122.482"/>
</g>
<!-- Node30 -->
<g id="node62" class="node"><title>Node30</title>
<a xlink:href="vispseventdisplay_8h.html" target="_top" xlink:title="vispseventdisplay.h">
<polygon fill="white" stroke="black" points="703.5,-58.5 703.5,-79.5 806.5,-79.5 806.5,-58.5 703.5,-58.5"/>
<text text-anchor="middle" x="755" y="-66.5" font-family="Helvetica,sans-Serif" font-size="10.00">vispseventdisplay.h</text>
</a>
</g>
<!-- Node12&#45;&gt;Node30 -->
<g id="edge64" class="edge"><title>Node12&#45;&gt;Node30</title>
<path fill="none" stroke="midnightblue" d="M1152.41,-122.376C1081,-114.777 936.659,-98.6198 815,-80 812.278,-79.5834 809.49,-79.138 806.678,-78.6739"/>
<polygon fill="midnightblue" stroke="midnightblue" points="1152.09,-125.861 1162.4,-123.434 1152.83,-118.9 1152.09,-125.861"/>
</g>
<!-- Node31 -->
<g id="node64" class="node"><title>Node31</title>
<a xlink:href="visrandomposbodydisplay_8h.html" target="_top" xlink:title="visrandomposbodydisplay.h">
<polygon fill="white" stroke="black" points="823.5,-58.5 823.5,-79.5 960.5,-79.5 960.5,-58.5 823.5,-58.5"/>
<text text-anchor="middle" x="892" y="-66.5" font-family="Helvetica,sans-Serif" font-size="10.00">visrandomposbodydisplay.h</text>
</a>
</g>
<!-- Node12&#45;&gt;Node31 -->
<g id="edge66" class="edge"><title>Node12&#45;&gt;Node31</title>
<path fill="none" stroke="midnightblue" d="M1152.28,-118.495C1097.87,-108.15 1006.04,-90.6867 947.266,-79.5097"/>
<polygon fill="midnightblue" stroke="midnightblue" points="1151.83,-121.973 1162.31,-120.403 1153.14,-115.097 1151.83,-121.973"/>
</g>
<!-- Node32 -->
<g id="node66" class="node"><title>Node32</title>
<a xlink:href="visvolumedisplay_8h.html" target="_top" xlink:title="visvolumedisplay.h">
<polygon fill="white" stroke="black" points="978,-58.5 978,-79.5 1078,-79.5 1078,-58.5 978,-58.5"/>
<text text-anchor="middle" x="1028" y="-66.5" font-family="Helvetica,sans-Serif" font-size="10.00">visvolumedisplay.h</text>
</a>
</g>
<!-- Node12&#45;&gt;Node32 -->
<g id="edge68" class="edge"><title>Node12&#45;&gt;Node32</title>
<path fill="none" stroke="midnightblue" d="M1156.63,-113.144C1126.55,-102.823 1086.11,-88.9439 1058.66,-79.5231"/>
<polygon fill="midnightblue" stroke="midnightblue" points="1155.8,-116.561 1166.4,-116.497 1158.07,-109.94 1155.8,-116.561"/>
</g>
<!-- Node33 -->
<g id="node68" class="node"><title>Node33</title>
<a xlink:href="viswelldisplay_8h.html" target="_top" xlink:title="viswelldisplay.h">
<polygon fill="white" stroke="black" points="1096,-58.5 1096,-79.5 1182,-79.5 1182,-58.5 1096,-58.5"/>
<text text-anchor="middle" x="1139" y="-66.5" font-family="Helvetica,sans-Serif" font-size="10.00">viswelldisplay.h</text>
</a>
</g>
<!-- Node12&#45;&gt;Node33 -->
<g id="edge70" class="edge"><title>Node12&#45;&gt;Node33</title>
<path fill="none" stroke="midnightblue" d="M1179.12,-109.118C1169.44,-99.4377 1157.81,-87.8098 1149.57,-79.5707"/>
<polygon fill="midnightblue" stroke="midnightblue" points="1176.82,-111.766 1186.36,-116.362 1181.77,-106.816 1176.82,-111.766"/>
</g>
<!-- Node14 -->
<g id="node27" class="node"><title>Node14</title>
<a xlink:href="visarrowdisplay_8h.html" target="_top" xlink:title="visarrowdisplay.h">
<polygon fill="white" stroke="black" points="1279,-0.5 1279,-21.5 1371,-21.5 1371,-0.5 1279,-0.5"/>
<text text-anchor="middle" x="1325" y="-8.5" font-family="Helvetica,sans-Serif" font-size="10.00">visarrowdisplay.h</text>
</a>
</g>
<!-- Node13&#45;&gt;Node14 -->
<g id="edge26" class="edge"><title>Node13&#45;&gt;Node14</title>
<path fill="none" stroke="midnightblue" d="M1363.73,-51.118C1354.39,-41.4377 1343.16,-29.8098 1335.21,-21.5707"/>
<polygon fill="midnightblue" stroke="midnightblue" points="1361.26,-53.599 1370.73,-58.3619 1366.3,-48.7368 1361.26,-53.599"/>
</g>
<!-- Node15 -->
<g id="node29" class="node"><title>Node15</title>
<a xlink:href="visimagedisplay_8h.html" target="_top" xlink:title="visimagedisplay.h">
<polygon fill="white" stroke="black" points="1388.5,-0.5 1388.5,-21.5 1483.5,-21.5 1483.5,-0.5 1388.5,-0.5"/>
<text text-anchor="middle" x="1436" y="-8.5" font-family="Helvetica,sans-Serif" font-size="10.00">visimagedisplay.h</text>
</a>
</g>
<!-- Node13&#45;&gt;Node15 -->
<g id="edge28" class="edge"><title>Node13&#45;&gt;Node15</title>
<path fill="none" stroke="midnightblue" d="M1398.23,-50.8299C1407.35,-41.2078 1418.24,-29.7282 1425.98,-21.5707"/>
<polygon fill="midnightblue" stroke="midnightblue" points="1395.43,-48.6973 1391.09,-58.3619 1400.51,-53.514 1395.43,-48.6973"/>
</g>
<!-- Node16 -->
<g id="node31" class="node"><title>Node16</title>
<a xlink:href="vispicksetdisplay_8h.html" target="_top" xlink:title="vispicksetdisplay.h">
<polygon fill="white" stroke="black" points="1501,-0.5 1501,-21.5 1601,-21.5 1601,-0.5 1501,-0.5"/>
<text text-anchor="middle" x="1551" y="-8.5" font-family="Helvetica,sans-Serif" font-size="10.00">vispicksetdisplay.h</text>
</a>
</g>
<!-- Node13&#45;&gt;Node16 -->
<g id="edge30" class="edge"><title>Node13&#45;&gt;Node16</title>
<path fill="none" stroke="midnightblue" d="M1421.61,-55.1443C1451.86,-44.8229 1492.54,-30.9439 1520.16,-21.5231"/>
<polygon fill="midnightblue" stroke="midnightblue" points="1420.12,-51.955 1411.79,-58.4966 1422.38,-58.5801 1420.12,-51.955"/>
</g>
<!-- Node17 -->
<g id="node33" class="node"><title>Node17</title>
<a xlink:href="visscalebardisplay_8h.html" target="_top" xlink:title="visscalebardisplay.h">
<polygon fill="white" stroke="black" points="1618.5,-0.5 1618.5,-21.5 1723.5,-21.5 1723.5,-0.5 1618.5,-0.5"/>
<text text-anchor="middle" x="1671" y="-8.5" font-family="Helvetica,sans-Serif" font-size="10.00">visscalebardisplay.h</text>
</a>
</g>
<!-- Node13&#45;&gt;Node17 -->
<g id="edge32" class="edge"><title>Node13&#45;&gt;Node17</title>
<path fill="none" stroke="midnightblue" d="M1441.99,-56.8018C1494.24,-46.3524 1568.7,-31.4601 1618.38,-21.5249"/>
<polygon fill="midnightblue" stroke="midnightblue" points="1441.3,-53.371 1432.18,-58.7643 1442.67,-60.2351 1441.3,-53.371"/>
</g>
<!-- Node19 -->
<g id="node37" class="node"><title>Node19</title>
<a xlink:href="vishorizon2ddisplay_8h.html" target="_top" xlink:title="vishorizon2ddisplay.h">
<polygon fill="white" stroke="black" points="1741,-0.5 1741,-21.5 1851,-21.5 1851,-0.5 1741,-0.5"/>
<text text-anchor="middle" x="1796" y="-8.5" font-family="Helvetica,sans-Serif" font-size="10.00">vishorizon2ddisplay.h</text>
</a>
</g>
<!-- Node18&#45;&gt;Node19 -->
<g id="edge36" class="edge"><title>Node18&#45;&gt;Node19</title>
<path fill="none" stroke="midnightblue" d="M1554.51,-57.7085C1624.38,-44.0984 1694.42,-30.5703 1741.46,-21.5014"/>
<polygon fill="midnightblue" stroke="midnightblue" points="1553.8,-54.2808 1544.66,-59.629 1555.14,-61.1515 1553.8,-54.2808"/>
</g>
<!-- Node20 -->
<g id="node39" class="node"><title>Node20</title>
<a xlink:href="vishorizondisplay_8h.html" target="_top" xlink:title="vishorizondisplay.h">
<polygon fill="white" stroke="black" points="1869,-0.5 1869,-21.5 1969,-21.5 1969,-0.5 1869,-0.5"/>
<text text-anchor="middle" x="1919" y="-8.5" font-family="Helvetica,sans-Serif" font-size="10.00">vishorizondisplay.h</text>
</a>
</g>
<!-- Node18&#45;&gt;Node20 -->
<g id="edge38" class="edge"><title>Node18&#45;&gt;Node20</title>
<path fill="none" stroke="midnightblue" d="M1554.57,-57.8416C1690.44,-37.0045 1727.36,-42.1185 1860,-22 1862.88,-21.5625 1865.84,-21.0891 1868.83,-20.5929"/>
<polygon fill="midnightblue" stroke="midnightblue" points="1553.96,-54.3946 1544.61,-59.3874 1555.03,-61.3117 1553.96,-54.3946"/>
</g>
<!-- Node21&#45;&gt;Node6 -->
<g id="edge44" class="edge"><title>Node21&#45;&gt;Node6</title>
<path fill="none" stroke="midnightblue" d="M1189.48,-57.9221C934.494,-28.6446 641.799,-16.6322 522.124,-12.6444"/>
<polygon fill="midnightblue" stroke="midnightblue" points="1189.34,-61.4295 1199.68,-59.1048 1190.15,-54.4761 1189.34,-61.4295"/>
</g>
<!-- Node22 -->
<g id="node43" class="node"><title>Node22</title>
<a xlink:href="visfaultdisplay_8h.html" target="_top" xlink:title="visfaultdisplay.h">
<polygon fill="white" stroke="black" points="894.5,-0.5 894.5,-21.5 981.5,-21.5 981.5,-0.5 894.5,-0.5"/>
<text text-anchor="middle" x="938" y="-8.5" font-family="Helvetica,sans-Serif" font-size="10.00">visfaultdisplay.h</text>
</a>
</g>
<!-- Node21&#45;&gt;Node22 -->
<g id="edge42" class="edge"><title>Node21&#45;&gt;Node22</title>
<path fill="none" stroke="midnightblue" d="M1190.04,-57.6071C1124.11,-46.172 1027.33,-29.2442 990,-22 987.282,-21.4726 984.488,-20.9178 981.671,-20.3492"/>
<polygon fill="midnightblue" stroke="midnightblue" points="1189.49,-61.0632 1199.94,-59.3226 1190.68,-54.166 1189.49,-61.0632"/>
</g>
<!-- Node23 -->
<g id="node46" class="node"><title>Node23</title>
<a xlink:href="vispolygonbodydisplay_8h.html" target="_top" xlink:title="vispolygonbodydisplay.h">
<polygon fill="white" stroke="black" points="998.5,-0.5 998.5,-21.5 1121.5,-21.5 1121.5,-0.5 998.5,-0.5"/>
<text text-anchor="middle" x="1060" y="-8.5" font-family="Helvetica,sans-Serif" font-size="10.00">vispolygonbodydisplay.h</text>
</a>
</g>
<!-- Node21&#45;&gt;Node23 -->
<g id="edge46" class="edge"><title>Node21&#45;&gt;Node23</title>
<path fill="none" stroke="midnightblue" d="M1210.54,-55.5464C1175.52,-45.1857 1127.81,-31.0668 1095.56,-21.5231"/>
<polygon fill="midnightblue" stroke="midnightblue" points="1209.92,-59.0152 1220.51,-58.4966 1211.91,-52.3029 1209.92,-59.0152"/>
</g>
<!-- Node24 -->
<g id="node48" class="node"><title>Node24</title>
<a xlink:href="visrandomtrackdisplay_8h.html" target="_top" xlink:title="visrandomtrackdisplay.h">
<polygon fill="white" stroke="black" points="1139,-0.5 1139,-21.5 1261,-21.5 1261,-0.5 1139,-0.5"/>
<text text-anchor="middle" x="1200" y="-8.5" font-family="Helvetica,sans-Serif" font-size="10.00">visrandomtrackdisplay.h</text>
</a>
</g>
<!-- Node21&#45;&gt;Node24 -->
<g id="edge48" class="edge"><title>Node21&#45;&gt;Node24</title>
<path fill="none" stroke="midnightblue" d="M1238.73,-51.118C1229.39,-41.4377 1218.16,-29.8098 1210.21,-21.5707"/>
<polygon fill="midnightblue" stroke="midnightblue" points="1236.26,-53.599 1245.73,-58.3619 1241.3,-48.7368 1236.26,-53.599"/>
</g>
<!-- Node25 -->
<g id="node50" class="node"><title>Node25</title>
<a xlink:href="visseis2ddisplay_8h.html" target="_top" xlink:title="visseis2ddisplay.h">
<polygon fill="white" stroke="black" points="780.5,-0.5 780.5,-21.5 877.5,-21.5 877.5,-0.5 780.5,-0.5"/>
<text text-anchor="middle" x="829" y="-8.5" font-family="Helvetica,sans-Serif" font-size="10.00">visseis2ddisplay.h</text>
</a>
</g>
<!-- Node21&#45;&gt;Node25 -->
<g id="edge50" class="edge"><title>Node21&#45;&gt;Node25</title>
<path fill="none" stroke="midnightblue" d="M1189.72,-57.8737C1054.19,-38.7957 1017.72,-42.4552 886,-22 883.311,-21.5824 880.555,-21.1306 877.777,-20.6563"/>
<polygon fill="midnightblue" stroke="midnightblue" points="1189.26,-61.3433 1199.66,-59.2873 1190.25,-54.4131 1189.26,-61.3433"/>
</g>
</g>
</svg>
