<?xml version="1.0" encoding="UTF-8" standalone="no"?>
<!DOCTYPE svg PUBLIC "-//W3C//DTD SVG 1.1//EN"
 "http://www.w3.org/Graphics/SVG/1.1/DTD/svg11.dtd">
<!-- Generated by graphviz version 2.26.0 (20091210.2329)
 -->
<!-- Title: visnodestate.h Pages: 1 -->
<svg width="366pt" height="88pt"
 viewBox="0.00 0.00 366.00 88.00" xmlns="http://www.w3.org/2000/svg" xmlns:xlink="http://www.w3.org/1999/xlink">
<g id="graph1" class="graph" transform="scale(1 1) rotate(0) translate(4 84)">
<title>visnodestate.h</title>
<polygon fill="white" stroke="white" points="-4,5 -4,-84 363,-84 363,5 -4,5"/>
<!-- Node1 -->
<g id="node1" class="node"><title>Node1</title>
<polygon fill="#bfbfbf" stroke="black" points="127,-58.5 127,-79.5 207,-79.5 207,-58.5 127,-58.5"/>
<text text-anchor="middle" x="167" y="-66.5" font-family="Helvetica,sans-Serif" font-size="10.00">visnodestate.h</text>
</g>
<!-- Node2 -->
<g id="node3" class="node"><title>Node2</title>
<a xlink:href="visdrawstyle_8h.html" target="_top" xlink:title="visdrawstyle.h">
<polygon fill="white" stroke="black" points="0,-0.5 0,-21.5 80,-21.5 80,-0.5 0,-0.5"/>
<text text-anchor="middle" x="40" y="-8.5" font-family="Helvetica,sans-Serif" font-size="10.00">visdrawstyle.h</text>
</a>
</g>
<!-- Node1&#45;&gt;Node2 -->
<g id="edge2" class="edge"><title>Node1&#45;&gt;Node2</title>
<path fill="none" stroke="midnightblue" d="M134.607,-54.2064C112.327,-44.031 83.2603,-30.7567 63.2568,-21.6212"/>
<polygon fill="midnightblue" stroke="midnightblue" points="133.451,-57.5261 144.001,-58.4966 136.359,-51.1587 133.451,-57.5261"/>
</g>
<!-- Node3 -->
<g id="node5" class="node"><title>Node3</title>
<a xlink:href="vislight_8h.html" target="_top" xlink:title="vislight.h">
<polygon fill="white" stroke="black" points="98,-0.5 98,-21.5 154,-21.5 154,-0.5 98,-0.5"/>
<text text-anchor="middle" x="126" y="-8.5" font-family="Helvetica,sans-Serif" font-size="10.00">vislight.h</text>
</a>
</g>
<!-- Node1&#45;&gt;Node3 -->
<g id="edge4" class="edge"><title>Node1&#45;&gt;Node3</title>
<path fill="none" stroke="midnightblue" d="M153.54,-49.9591C146.869,-40.522 139.066,-29.4835 133.472,-21.5707"/>
<polygon fill="midnightblue" stroke="midnightblue" points="150.85,-52.2165 159.48,-58.3619 156.566,-48.1758 150.85,-52.2165"/>
</g>
<!-- Node4 -->
<g id="node7" class="node"><title>Node4</title>
<a xlink:href="vismaterial_8h.html" target="_top" xlink:title="vismaterial.h">
<polygon fill="white" stroke="black" points="172,-0.5 172,-21.5 244,-21.5 244,-0.5 172,-0.5"/>
<text text-anchor="middle" x="208" y="-8.5" font-family="Helvetica,sans-Serif" font-size="10.00">vismaterial.h</text>
</a>
</g>
<!-- Node1&#45;&gt;Node4 -->
<g id="edge6" class="edge"><title>Node1&#45;&gt;Node4</title>
<path fill="none" stroke="midnightblue" d="M180.46,-49.9591C187.131,-40.522 194.934,-29.4835 200.528,-21.5707"/>
<polygon fill="midnightblue" stroke="midnightblue" points="177.434,-48.1758 174.52,-58.3619 183.15,-52.2165 177.434,-48.1758"/>
</g>
<!-- Node5 -->
<g id="node9" class="node"><title>Node5</title>
<a xlink:href="vispolygonoffset_8h.html" target="_top" xlink:title="vispolygonoffset.h">
<polygon fill="white" stroke="black" points="262,-0.5 262,-21.5 358,-21.5 358,-0.5 262,-0.5"/>
<text text-anchor="middle" x="310" y="-8.5" font-family="Helvetica,sans-Serif" font-size="10.00">vispolygonoffset.h</text>
</a>
</g>
<!-- Node1&#45;&gt;Node5 -->
<g id="edge8" class="edge"><title>Node1&#45;&gt;Node5</title>
<path fill="none" stroke="midnightblue" d="M202.466,-54.6153C227.679,-44.3889 260.987,-30.8796 283.813,-21.6212"/>
<polygon fill="midnightblue" stroke="midnightblue" points="200.847,-51.4946 192.896,-58.4966 203.479,-57.9814 200.847,-51.4946"/>
</g>
</g>
</svg>
