<?xml version="1.0" encoding="UTF-8" standalone="no"?>
<!DOCTYPE svg PUBLIC "-//W3C//DTD SVG 1.1//EN"
 "http://www.w3.org/Graphics/SVG/1.1/DTD/svg11.dtd">
<!-- Generated by graphviz version 2.26.0 (20091210.2329)
 -->
<!-- Title: visosg.h Pages: 1 -->
<svg width="750pt" height="668pt"
 viewBox="0.00 0.00 750.00 668.00" xmlns="http://www.w3.org/2000/svg" xmlns:xlink="http://www.w3.org/1999/xlink">
<g id="graph1" class="graph" transform="scale(1 1) rotate(0) translate(4 664)">
<title>visosg.h</title>
<polygon fill="white" stroke="white" points="-4,5 -4,-664 747,-664 747,5 -4,5"/>
<!-- Node1 -->
<g id="node1" class="node"><title>Node1</title>
<polygon fill="#bfbfbf" stroke="black" points="230.5,-638.5 230.5,-659.5 283.5,-659.5 283.5,-638.5 230.5,-638.5"/>
<text text-anchor="middle" x="257" y="-646.5" font-family="Helvetica,sans-Serif" font-size="10.00">visosg.h</text>
</g>
<!-- Node2 -->
<g id="node3" class="node"><title>Node2</title>
<a xlink:href="refcount_8h.html" target="_top" xlink:title="refcount.h">
<polygon fill="white" stroke="black" points="184,-580.5 184,-601.5 244,-601.5 244,-580.5 184,-580.5"/>
<text text-anchor="middle" x="214" y="-588.5" font-family="Helvetica,sans-Serif" font-size="10.00">refcount.h</text>
</a>
</g>
<!-- Node1&#45;&gt;Node2 -->
<g id="edge2" class="edge"><title>Node1&#45;&gt;Node2</title>
<path fill="none" stroke="midnightblue" d="M249.113,-638.362C243.173,-630.35 234.878,-619.161 227.841,-609.67"/>
<polygon fill="midnightblue" stroke="midnightblue" points="230.604,-607.519 221.837,-601.571 224.981,-611.688 230.604,-607.519"/>
</g>
<!-- Node29 -->
<g id="node75" class="node"><title>Node29</title>
<polygon fill="white" stroke="#bfbfbf" points="261.5,-580.5 261.5,-601.5 338.5,-601.5 338.5,-580.5 261.5,-580.5"/>
<text text-anchor="middle" x="300" y="-588.5" font-family="Helvetica,sans-Serif" font-size="10.00">visbasemod.h</text>
</g>
<!-- Node1&#45;&gt;Node29 -->
<g id="edge92" class="edge"><title>Node1&#45;&gt;Node29</title>
<path fill="none" stroke="midnightblue" d="M264.887,-638.362C270.827,-630.35 279.122,-619.161 286.159,-609.67"/>
<polygon fill="midnightblue" stroke="midnightblue" points="289.019,-611.688 292.163,-601.571 283.396,-607.519 289.019,-611.688"/>
</g>
<!-- Node3 -->
<g id="node5" class="node"><title>Node3</title>
<a xlink:href="atomic_8h.html" target="_top" xlink:title="atomic.h">
<polygon fill="white" stroke="black" points="105,-116.5 105,-137.5 159,-137.5 159,-116.5 105,-116.5"/>
<text text-anchor="middle" x="132" y="-124.5" font-family="Helvetica,sans-Serif" font-size="10.00">atomic.h</text>
</a>
</g>
<!-- Node2&#45;&gt;Node3 -->
<g id="edge4" class="edge"><title>Node2&#45;&gt;Node3</title>
<path fill="none" stroke="midnightblue" d="M206.609,-580.366C193.606,-560.585 168,-516.379 168,-475 168,-475 168,-475 168,-243 168,-207.891 152.772,-169.382 142.124,-146.747"/>
<polygon fill="midnightblue" stroke="midnightblue" points="145.158,-144.984 137.625,-137.534 138.868,-148.056 145.158,-144.984"/>
</g>
<!-- Node12 -->
<g id="node25" class="node"><title>Node12</title>
<a xlink:href="objectset_8h.html" target="_top" xlink:title="objectset.h">
<polygon fill="white" stroke="black" points="228.5,-522.5 228.5,-543.5 293.5,-543.5 293.5,-522.5 228.5,-522.5"/>
<text text-anchor="middle" x="261" y="-530.5" font-family="Helvetica,sans-Serif" font-size="10.00">objectset.h</text>
</a>
</g>
<!-- Node2&#45;&gt;Node12 -->
<g id="edge26" class="edge"><title>Node2&#45;&gt;Node12</title>
<path fill="none" stroke="midnightblue" d="M222.621,-580.362C229.18,-572.268 238.366,-560.932 246.106,-551.38"/>
<polygon fill="midnightblue" stroke="midnightblue" points="248.858,-553.544 252.434,-543.571 243.419,-549.136 248.858,-553.544"/>
</g>
<!-- Node4 -->
<g id="node7" class="node"><title>Node4</title>
<polygon fill="white" stroke="#bfbfbf" points="467.5,-0.5 467.5,-21.5 534.5,-21.5 534.5,-0.5 467.5,-0.5"/>
<text text-anchor="middle" x="501" y="-8.5" font-family="Helvetica,sans-Serif" font-size="10.00">basicmod.h</text>
</g>
<!-- Node3&#45;&gt;Node4 -->
<g id="edge6" class="edge"><title>Node3&#45;&gt;Node4</title>
<path fill="none" stroke="midnightblue" d="M140.404,-116.305C153.326,-100.689 179.676,-71.9891 209,-58 252.089,-37.4442 386.648,-21.9525 457.058,-15.0138"/>
<polygon fill="midnightblue" stroke="midnightblue" points="457.758,-18.4624 467.373,-14.0133 457.082,-11.4951 457.758,-18.4624"/>
</g>
<!-- Node5 -->
<g id="node9" class="node"><title>Node5</title>
<a xlink:href="commondefs_8h.html" target="_top" xlink:title="commondefs.h">
<polygon fill="white" stroke="black" points="235.5,-58.5 235.5,-79.5 316.5,-79.5 316.5,-58.5 235.5,-58.5"/>
<text text-anchor="middle" x="276" y="-66.5" font-family="Helvetica,sans-Serif" font-size="10.00">commondefs.h</text>
</a>
</g>
<!-- Node3&#45;&gt;Node5 -->
<g id="edge8" class="edge"><title>Node3&#45;&gt;Node5</title>
<path fill="none" stroke="midnightblue" d="M158.077,-116.497C181.075,-107.234 214.8,-93.6499 240.3,-83.3793"/>
<polygon fill="midnightblue" stroke="midnightblue" points="241.662,-86.6039 249.63,-79.6212 239.047,-80.1108 241.662,-86.6039"/>
</g>
<!-- Node9 -->
<g id="node18" class="node"><title>Node9</title>
<a xlink:href="plftypes_8h.html" target="_top" xlink:title="plftypes.h">
<polygon fill="white" stroke="black" points="83.5,-58.5 83.5,-79.5 142.5,-79.5 142.5,-58.5 83.5,-58.5"/>
<text text-anchor="middle" x="113" y="-66.5" font-family="Helvetica,sans-Serif" font-size="10.00">plftypes.h</text>
</a>
</g>
<!-- Node3&#45;&gt;Node9 -->
<g id="edge18" class="edge"><title>Node3&#45;&gt;Node9</title>
<path fill="none" stroke="midnightblue" d="M128.515,-116.362C126.024,-108.758 122.596,-98.294 119.596,-89.1349"/>
<polygon fill="midnightblue" stroke="midnightblue" points="122.902,-87.9841 116.463,-79.5707 116.25,-90.1634 122.902,-87.9841"/>
</g>
<!-- Node11 -->
<g id="node23" class="node"><title>Node11</title>
<polygon fill="white" stroke="#bfbfbf" points="-0.5,-58.5 -0.5,-79.5 66.5,-79.5 66.5,-58.5 -0.5,-58.5"/>
<text text-anchor="middle" x="33" y="-66.5" font-family="Helvetica,sans-Serif" font-size="10.00">odversion.h</text>
</g>
<!-- Node3&#45;&gt;Node11 -->
<g id="edge24" class="edge"><title>Node3&#45;&gt;Node11</title>
<path fill="none" stroke="midnightblue" d="M113.842,-116.362C98.7701,-107.532 77.1129,-94.844 60.0072,-84.8224"/>
<polygon fill="midnightblue" stroke="midnightblue" points="61.4406,-81.6058 51.043,-79.5707 57.9021,-87.6456 61.4406,-81.6058"/>
</g>
<!-- Node5&#45;&gt;Node4 -->
<g id="edge10" class="edge"><title>Node5&#45;&gt;Node4</title>
<path fill="none" stroke="midnightblue" d="M316.746,-58.4966C356.439,-48.2646 416.586,-32.7601 457.268,-22.2732"/>
<polygon fill="midnightblue" stroke="midnightblue" points="458.357,-25.6069 467.167,-19.7214 456.61,-18.8285 458.357,-25.6069"/>
</g>
<!-- Node6 -->
<g id="node12" class="node"><title>Node6</title>
<a xlink:href="plfdefs_8h.html" target="_top" xlink:title="plfdefs.h">
<polygon fill="white" stroke="black" points="171,-0.5 171,-21.5 225,-21.5 225,-0.5 171,-0.5"/>
<text text-anchor="middle" x="198" y="-8.5" font-family="Helvetica,sans-Serif" font-size="10.00">plfdefs.h</text>
</a>
</g>
<!-- Node5&#45;&gt;Node6 -->
<g id="edge12" class="edge"><title>Node5&#45;&gt;Node6</title>
<path fill="none" stroke="midnightblue" d="M261.694,-58.3619C250.149,-49.7773 233.7,-37.5459 220.41,-27.6636"/>
<polygon fill="midnightblue" stroke="midnightblue" points="222.329,-24.7291 212.216,-21.5707 218.152,-30.3463 222.329,-24.7291"/>
</g>
<!-- Node7 -->
<g id="node14" class="node"><title>Node7</title>
<polygon fill="white" stroke="#bfbfbf" points="631.5,-0.5 631.5,-21.5 690.5,-21.5 690.5,-0.5 631.5,-0.5"/>
<text text-anchor="middle" x="661" y="-8.5" font-family="Helvetica,sans-Serif" font-size="10.00">stdexcept</text>
</g>
<!-- Node5&#45;&gt;Node7 -->
<g id="edge14" class="edge"><title>Node5&#45;&gt;Node7</title>
<path fill="none" stroke="midnightblue" d="M316.59,-59.6193C319.431,-59.0455 322.255,-58.4992 325,-58 431.276,-38.6715 557.717,-22.916 620.892,-15.5334"/>
<polygon fill="midnightblue" stroke="midnightblue" points="621.675,-18.9662 631.205,-14.3371 620.868,-12.0128 621.675,-18.9662"/>
</g>
<!-- Node8 -->
<g id="node16" class="node"><title>Node8</title>
<polygon fill="white" stroke="#bfbfbf" points="258.5,-0.5 258.5,-21.5 293.5,-21.5 293.5,-0.5 258.5,-0.5"/>
<text text-anchor="middle" x="276" y="-8.5" font-family="Helvetica,sans-Serif" font-size="10.00">new</text>
</g>
<!-- Node5&#45;&gt;Node8 -->
<g id="edge16" class="edge"><title>Node5&#45;&gt;Node8</title>
<path fill="none" stroke="midnightblue" d="M276,-58.3619C276,-50.9219 276,-40.7427 276,-31.7276"/>
<polygon fill="midnightblue" stroke="midnightblue" points="279.5,-31.5706 276,-21.5707 272.5,-31.5707 279.5,-31.5706"/>
</g>
<!-- Node9&#45;&gt;Node6 -->
<g id="edge20" class="edge"><title>Node9&#45;&gt;Node6</title>
<path fill="none" stroke="midnightblue" d="M128.59,-58.3619C141.291,-49.6955 159.438,-37.3126 173.992,-27.3819"/>
<polygon fill="midnightblue" stroke="midnightblue" points="176.221,-30.0982 182.509,-21.5707 172.276,-24.316 176.221,-30.0982"/>
</g>
<!-- Node10 -->
<g id="node21" class="node"><title>Node10</title>
<polygon fill="white" stroke="#bfbfbf" points="88.5,-0.5 88.5,-21.5 137.5,-21.5 137.5,-0.5 88.5,-0.5"/>
<text text-anchor="middle" x="113" y="-8.5" font-family="Helvetica,sans-Serif" font-size="10.00">stdint.h</text>
</g>
<!-- Node9&#45;&gt;Node10 -->
<g id="edge22" class="edge"><title>Node9&#45;&gt;Node10</title>
<path fill="none" stroke="midnightblue" d="M113,-58.3619C113,-50.9219 113,-40.7427 113,-31.7276"/>
<polygon fill="midnightblue" stroke="midnightblue" points="116.5,-31.5706 113,-21.5707 109.5,-31.5707 116.5,-31.5706"/>
</g>
<!-- Node13 -->
<g id="node27" class="node"><title>Node13</title>
<a xlink:href="odset_8h.html" target="_top" xlink:title="odset.h">
<polygon fill="white" stroke="black" points="297.5,-348.5 297.5,-369.5 346.5,-369.5 346.5,-348.5 297.5,-348.5"/>
<text text-anchor="middle" x="322" y="-356.5" font-family="Helvetica,sans-Serif" font-size="10.00">odset.h</text>
</a>
</g>
<!-- Node12&#45;&gt;Node13 -->
<g id="edge28" class="edge"><title>Node12&#45;&gt;Node13</title>
<path fill="none" stroke="midnightblue" d="M260.589,-522.207C260.146,-499.532 261.337,-445.757 280,-406 285.092,-395.153 293.512,-384.986 301.482,-376.903"/>
<polygon fill="midnightblue" stroke="midnightblue" points="304.349,-379.004 309.161,-369.565 299.513,-373.943 304.349,-379.004"/>
</g>
<!-- Node19 -->
<g id="node44" class="node"><title>Node19</title>
<a xlink:href="vectoraccess_8h.html" target="_top" xlink:title="vectoraccess.h">
<polygon fill="white" stroke="black" points="368.5,-464.5 368.5,-485.5 451.5,-485.5 451.5,-464.5 368.5,-464.5"/>
<text text-anchor="middle" x="410" y="-472.5" font-family="Helvetica,sans-Serif" font-size="10.00">vectoraccess.h</text>
</a>
</g>
<!-- Node12&#45;&gt;Node19 -->
<g id="edge50" class="edge"><title>Node12&#45;&gt;Node19</title>
<path fill="none" stroke="midnightblue" d="M287.983,-522.497C311.853,-513.205 346.894,-499.565 373.307,-489.283"/>
<polygon fill="midnightblue" stroke="midnightblue" points="374.917,-492.412 382.967,-485.523 372.378,-485.889 374.917,-492.412"/>
</g>
<!-- Node14 -->
<g id="node29" class="node"><title>Node14</title>
<a xlink:href="gendefs_8h.html" target="_top" xlink:title="gendefs.h">
<polygon fill="white" stroke="black" points="358.5,-174.5 358.5,-195.5 417.5,-195.5 417.5,-174.5 358.5,-174.5"/>
<text text-anchor="middle" x="388" y="-182.5" font-family="Helvetica,sans-Serif" font-size="10.00">gendefs.h</text>
</a>
</g>
<!-- Node13&#45;&gt;Node14 -->
<g id="edge30" class="edge"><title>Node13&#45;&gt;Node14</title>
<path fill="none" stroke="midnightblue" d="M326.029,-348.377C336.728,-320.172 365.995,-243.012 380.141,-205.72"/>
<polygon fill="midnightblue" stroke="midnightblue" points="383.581,-206.519 383.855,-195.928 377.036,-204.036 383.581,-206.519"/>
</g>
<!-- Node15 -->
<g id="node31" class="node"><title>Node15</title>
<a xlink:href="undefval_8h.html" target="_top" xlink:title="undefval.h">
<polygon fill="white" stroke="black" points="177,-116.5 177,-137.5 239,-137.5 239,-116.5 177,-116.5"/>
<text text-anchor="middle" x="208" y="-124.5" font-family="Helvetica,sans-Serif" font-size="10.00">undefval.h</text>
</a>
</g>
<!-- Node14&#45;&gt;Node15 -->
<g id="edge32" class="edge"><title>Node14&#45;&gt;Node15</title>
<path fill="none" stroke="midnightblue" d="M358.277,-175.422C328.505,-165.829 282.446,-150.988 249.166,-140.265"/>
<polygon fill="midnightblue" stroke="midnightblue" points="249.871,-136.815 239.28,-137.079 247.724,-143.477 249.871,-136.815"/>
</g>
<!-- Node16 -->
<g id="node36" class="node"><title>Node16</title>
<a xlink:href="commontypes_8h.html" target="_top" xlink:title="commontypes.h">
<polygon fill="white" stroke="black" points="257,-116.5 257,-137.5 343,-137.5 343,-116.5 257,-116.5"/>
<text text-anchor="middle" x="300" y="-124.5" font-family="Helvetica,sans-Serif" font-size="10.00">commontypes.h</text>
</a>
</g>
<!-- Node14&#45;&gt;Node16 -->
<g id="edge40" class="edge"><title>Node14&#45;&gt;Node16</title>
<path fill="none" stroke="midnightblue" d="M371.859,-174.362C358.586,-165.614 339.568,-153.079 324.43,-143.101"/>
<polygon fill="midnightblue" stroke="midnightblue" points="326.314,-140.151 316.038,-137.571 322.462,-145.996 326.314,-140.151"/>
</g>
<!-- Node17 -->
<g id="node39" class="node"><title>Node17</title>
<a xlink:href="errmsg_8h.html" target="_top" xlink:title="errmsg.h">
<polygon fill="white" stroke="black" points="360.5,-116.5 360.5,-137.5 415.5,-137.5 415.5,-116.5 360.5,-116.5"/>
<text text-anchor="middle" x="388" y="-124.5" font-family="Helvetica,sans-Serif" font-size="10.00">errmsg.h</text>
</a>
</g>
<!-- Node14&#45;&gt;Node17 -->
<g id="edge44" class="edge"><title>Node14&#45;&gt;Node17</title>
<path fill="none" stroke="midnightblue" d="M388,-174.362C388,-166.922 388,-156.743 388,-147.728"/>
<polygon fill="midnightblue" stroke="midnightblue" points="391.5,-147.571 388,-137.571 384.5,-147.571 391.5,-147.571"/>
</g>
<!-- Node15&#45;&gt;Node4 -->
<g id="edge34" class="edge"><title>Node15&#45;&gt;Node4</title>
<path fill="none" stroke="midnightblue" d="M207.647,-116.337C207.765,-101.027 210.424,-73.0141 227,-58 260.132,-27.9904 388.78,-16.8017 457.366,-12.9092"/>
<polygon fill="midnightblue" stroke="midnightblue" points="457.636,-16.3998 467.433,-12.3658 457.258,-9.40995 457.636,-16.3998"/>
</g>
<!-- Node15&#45;&gt;Node5 -->
<g id="edge36" class="edge"><title>Node15&#45;&gt;Node5</title>
<path fill="none" stroke="midnightblue" d="M220.472,-116.362C230.345,-107.941 244.333,-96.0105 255.798,-86.2308"/>
<polygon fill="midnightblue" stroke="midnightblue" points="258.27,-88.7231 263.607,-79.5707 253.727,-83.3972 258.27,-88.7231"/>
</g>
<!-- Node15&#45;&gt;Node9 -->
<g id="edge38" class="edge"><title>Node15&#45;&gt;Node9</title>
<path fill="none" stroke="midnightblue" d="M190.576,-116.362C176.113,-107.532 155.331,-94.844 138.916,-84.8224"/>
<polygon fill="midnightblue" stroke="midnightblue" points="140.673,-81.7943 130.314,-79.5707 137.025,-87.7688 140.673,-81.7943"/>
</g>
<!-- Node16&#45;&gt;Node5 -->
<g id="edge42" class="edge"><title>Node16&#45;&gt;Node5</title>
<path fill="none" stroke="midnightblue" d="M295.598,-116.362C292.418,-108.677 288.028,-98.0686 284.21,-88.8399"/>
<polygon fill="midnightblue" stroke="midnightblue" points="287.432,-87.4726 280.374,-79.5707 280.964,-90.1491 287.432,-87.4726"/>
</g>
<!-- Node17&#45;&gt;Node5 -->
<g id="edge46" class="edge"><title>Node17&#45;&gt;Node5</title>
<path fill="none" stroke="midnightblue" d="M367.718,-116.497C350.382,-107.519 325.21,-94.4835 305.62,-84.3387"/>
<polygon fill="midnightblue" stroke="midnightblue" points="306.999,-81.1118 296.51,-79.6212 303.78,-87.3278 306.999,-81.1118"/>
</g>
<!-- Node18 -->
<g id="node42" class="node"><title>Node18</title>
<polygon fill="white" stroke="#bfbfbf" points="333.5,-58.5 333.5,-79.5 384.5,-79.5 384.5,-58.5 333.5,-58.5"/>
<text text-anchor="middle" x="359" y="-66.5" font-family="Helvetica,sans-Serif" font-size="10.00">typeinfo</text>
</g>
<!-- Node17&#45;&gt;Node18 -->
<g id="edge48" class="edge"><title>Node17&#45;&gt;Node18</title>
<path fill="none" stroke="midnightblue" d="M382.681,-116.362C378.797,-108.595 373.421,-97.8426 368.773,-88.5458"/>
<polygon fill="midnightblue" stroke="midnightblue" points="371.888,-86.9497 364.285,-79.5707 365.627,-90.0802 371.888,-86.9497"/>
</g>
<!-- Node19&#45;&gt;Node7 -->
<g id="edge90" class="edge"><title>Node19&#45;&gt;Node7</title>
<path fill="none" stroke="midnightblue" d="M451.712,-469.393C540.88,-456.239 742,-419.827 742,-359 742,-359 742,-359 742,-127 742,-85.9121 707.416,-48.9919 683.444,-28.336"/>
<polygon fill="midnightblue" stroke="midnightblue" points="685.412,-25.4209 675.481,-21.7279 680.941,-30.8075 685.412,-25.4209"/>
</g>
<!-- Node19&#45;&gt;Node14 -->
<g id="edge84" class="edge"><title>Node19&#45;&gt;Node14</title>
<path fill="none" stroke="midnightblue" d="M413.906,-464.291C420.938,-444.027 435,-398.554 435,-359 435,-359 435,-359 435,-301 435,-264.685 414.969,-226.347 401.061,-204.105"/>
<polygon fill="midnightblue" stroke="midnightblue" points="403.93,-202.096 395.551,-195.611 398.057,-205.905 403.93,-202.096"/>
</g>
<!-- Node20 -->
<g id="node46" class="node"><title>Node20</title>
<a xlink:href="debug_8h.html" target="_top" xlink:title="debug.h">
<polygon fill="white" stroke="black" points="494.5,-406.5 494.5,-427.5 545.5,-427.5 545.5,-406.5 494.5,-406.5"/>
<text text-anchor="middle" x="520" y="-414.5" font-family="Helvetica,sans-Serif" font-size="10.00">debug.h</text>
</a>
</g>
<!-- Node19&#45;&gt;Node20 -->
<g id="edge52" class="edge"><title>Node19&#45;&gt;Node20</title>
<path fill="none" stroke="midnightblue" d="M429.92,-464.497C446.946,-455.519 471.669,-442.484 490.909,-432.339"/>
<polygon fill="midnightblue" stroke="midnightblue" points="492.643,-435.381 499.856,-427.621 489.378,-429.189 492.643,-435.381"/>
</g>
<!-- Node27 -->
<g id="node70" class="node"><title>Node27</title>
<polygon fill="white" stroke="#bfbfbf" points="289,-406.5 289,-427.5 345,-427.5 345,-406.5 289,-406.5"/>
<text text-anchor="middle" x="317" y="-414.5" font-family="Helvetica,sans-Serif" font-size="10.00">algorithm</text>
</g>
<!-- Node19&#45;&gt;Node27 -->
<g id="edge86" class="edge"><title>Node19&#45;&gt;Node27</title>
<path fill="none" stroke="midnightblue" d="M392.942,-464.362C378.915,-455.614 358.816,-443.079 342.818,-433.101"/>
<polygon fill="midnightblue" stroke="midnightblue" points="344.287,-429.893 333.949,-427.571 340.582,-435.832 344.287,-429.893"/>
</g>
<!-- Node28 -->
<g id="node72" class="node"><title>Node28</title>
<polygon fill="white" stroke="#bfbfbf" points="363,-406.5 363,-427.5 407,-427.5 407,-406.5 363,-406.5"/>
<text text-anchor="middle" x="385" y="-414.5" font-family="Helvetica,sans-Serif" font-size="10.00">vector</text>
</g>
<!-- Node19&#45;&gt;Node28 -->
<g id="edge88" class="edge"><title>Node19&#45;&gt;Node28</title>
<path fill="none" stroke="midnightblue" d="M405.415,-464.362C402.102,-456.677 397.53,-446.069 393.552,-436.84"/>
<polygon fill="midnightblue" stroke="midnightblue" points="396.729,-435.368 389.556,-427.571 390.301,-438.139 396.729,-435.368"/>
</g>
<!-- Node20&#45;&gt;Node4 -->
<g id="edge54" class="edge"><title>Node20&#45;&gt;Node4</title>
<path fill="none" stroke="midnightblue" d="M545.584,-413.068C596.143,-403.692 704,-375.015 704,-301 704,-301 704,-301 704,-127 704,-54.0943 604.075,-26.3898 544.44,-16.3474"/>
<polygon fill="midnightblue" stroke="midnightblue" points="544.946,-12.884 534.521,-14.7765 543.851,-19.7978 544.946,-12.884"/>
</g>
<!-- Node20&#45;&gt;Node14 -->
<g id="edge56" class="edge"><title>Node20&#45;&gt;Node14</title>
<path fill="none" stroke="midnightblue" d="M518.043,-406.413C512.097,-376.476 491.961,-289.655 449,-232 439.961,-219.869 426.995,-209.28 415.339,-201.239"/>
<polygon fill="midnightblue" stroke="midnightblue" points="417.047,-198.173 406.768,-195.604 413.201,-204.022 417.047,-198.173"/>
</g>
<!-- Node21 -->
<g id="node50" class="node"><title>Node21</title>
<a xlink:href="bufstring_8h.html" target="_top" xlink:title="bufstring.h">
<polygon fill="white" stroke="black" points="522,-348.5 522,-369.5 584,-369.5 584,-348.5 522,-348.5"/>
<text text-anchor="middle" x="553" y="-356.5" font-family="Helvetica,sans-Serif" font-size="10.00">bufstring.h</text>
</a>
</g>
<!-- Node20&#45;&gt;Node21 -->
<g id="edge58" class="edge"><title>Node20&#45;&gt;Node21</title>
<path fill="none" stroke="midnightblue" d="M526.053,-406.362C530.472,-398.595 536.59,-387.843 541.879,-378.546"/>
<polygon fill="midnightblue" stroke="midnightblue" points="545.082,-379.993 546.986,-369.571 538.998,-376.531 545.082,-379.993"/>
</g>
<!-- Node21&#45;&gt;Node4 -->
<g id="edge60" class="edge"><title>Node21&#45;&gt;Node4</title>
<path fill="none" stroke="midnightblue" d="M575.596,-348.493C608.572,-331.416 666,-294.31 666,-243 666,-243 666,-243 666,-127 666,-67.5413 593.408,-35.9248 544.523,-21.3746"/>
<polygon fill="midnightblue" stroke="midnightblue" points="545.364,-17.9751 534.788,-18.6068 543.45,-24.7083 545.364,-17.9751"/>
</g>
<!-- Node22 -->
<g id="node53" class="node"><title>Node22</title>
<a xlink:href="fixedstring_8h.html" target="_top" xlink:title="fixedstring.h">
<polygon fill="white" stroke="black" points="539,-290.5 539,-311.5 609,-311.5 609,-290.5 539,-290.5"/>
<text text-anchor="middle" x="574" y="-298.5" font-family="Helvetica,sans-Serif" font-size="10.00">fixedstring.h</text>
</a>
</g>
<!-- Node21&#45;&gt;Node22 -->
<g id="edge62" class="edge"><title>Node21&#45;&gt;Node22</title>
<path fill="none" stroke="midnightblue" d="M556.852,-348.362C559.605,-340.758 563.394,-330.294 566.71,-321.135"/>
<polygon fill="midnightblue" stroke="midnightblue" points="570.059,-322.165 570.173,-311.571 563.477,-319.782 570.059,-322.165"/>
</g>
<!-- Node24 -->
<g id="node60" class="node"><title>Node24</title>
<a xlink:href="string2_8h.html" target="_top" xlink:title="string2.h">
<polygon fill="white" stroke="black" points="437,-116.5 437,-137.5 491,-137.5 491,-116.5 437,-116.5"/>
<text text-anchor="middle" x="464" y="-124.5" font-family="Helvetica,sans-Serif" font-size="10.00">string2.h</text>
</a>
</g>
<!-- Node21&#45;&gt;Node24 -->
<g id="edge72" class="edge"><title>Node21&#45;&gt;Node24</title>
<path fill="none" stroke="midnightblue" d="M547.352,-348.332C542.466,-338.908 535.363,-324.724 530,-312 505.261,-253.305 481.487,-181.775 470.44,-147.386"/>
<polygon fill="midnightblue" stroke="midnightblue" points="473.688,-146.053 467.315,-137.589 467.019,-148.18 473.688,-146.053"/>
</g>
<!-- Node22&#45;&gt;Node4 -->
<g id="edge64" class="edge"><title>Node22&#45;&gt;Node4</title>
<path fill="none" stroke="midnightblue" d="M583.903,-290.187C591.726,-281.124 602.391,-267.529 609,-254 622.961,-225.42 628,-216.808 628,-185 628,-185 628,-185 628,-127 628,-77.586 574.936,-43.5862 537.409,-25.7196"/>
<polygon fill="midnightblue" stroke="midnightblue" points="538.794,-22.5045 528.245,-21.5253 535.881,-28.8695 538.794,-22.5045"/>
</g>
<!-- Node23 -->
<g id="node56" class="node"><title>Node23</title>
<a xlink:href="odstring_8h.html" target="_top" xlink:title="odstring.h">
<polygon fill="white" stroke="black" points="541.5,-232.5 541.5,-253.5 600.5,-253.5 600.5,-232.5 541.5,-232.5"/>
<text text-anchor="middle" x="571" y="-240.5" font-family="Helvetica,sans-Serif" font-size="10.00">odstring.h</text>
</a>
</g>
<!-- Node22&#45;&gt;Node23 -->
<g id="edge66" class="edge"><title>Node22&#45;&gt;Node23</title>
<path fill="none" stroke="midnightblue" d="M573.45,-290.362C573.065,-282.922 572.538,-272.743 572.072,-263.728"/>
<polygon fill="midnightblue" stroke="midnightblue" points="575.559,-263.376 571.547,-253.571 568.568,-263.738 575.559,-263.376"/>
</g>
<!-- Node23&#45;&gt;Node4 -->
<g id="edge68" class="edge"><title>Node23&#45;&gt;Node4</title>
<path fill="none" stroke="midnightblue" d="M574.314,-232.145C582.785,-202.236 602.426,-116.953 571,-58 563.671,-44.2512 550.336,-33.8104 537.256,-26.3035"/>
<polygon fill="midnightblue" stroke="midnightblue" points="538.793,-23.1574 528.318,-21.5707 535.517,-29.3436 538.793,-23.1574"/>
</g>
<!-- Node23&#45;&gt;Node14 -->
<g id="edge70" class="edge"><title>Node23&#45;&gt;Node14</title>
<path fill="none" stroke="midnightblue" d="M541.191,-233.552C510.218,-223.736 461.593,-208.325 427.453,-197.504"/>
<polygon fill="midnightblue" stroke="midnightblue" points="428.387,-194.129 417.797,-194.444 426.272,-200.802 428.387,-194.129"/>
</g>
<!-- Node24&#45;&gt;Node4 -->
<g id="edge74" class="edge"><title>Node24&#45;&gt;Node4</title>
<path fill="none" stroke="midnightblue" d="M452.202,-116.098C438.846,-102.374 420.256,-78.1546 431,-58 438.329,-44.2512 451.664,-33.8104 464.744,-26.3035"/>
<polygon fill="midnightblue" stroke="midnightblue" points="466.483,-29.3436 473.682,-21.5707 463.207,-23.1574 466.483,-29.3436"/>
</g>
<!-- Node24&#45;&gt;Node5 -->
<g id="edge78" class="edge"><title>Node24&#45;&gt;Node5</title>
<path fill="none" stroke="midnightblue" d="M436.663,-118.566C406.038,-109.118 355.961,-93.669 319.849,-82.5279"/>
<polygon fill="midnightblue" stroke="midnightblue" points="320.649,-79.112 310.062,-79.5084 318.585,-85.8009 320.649,-79.112"/>
</g>
<!-- Node24&#45;&gt;Node9 -->
<g id="edge76" class="edge"><title>Node24&#45;&gt;Node9</title>
<path fill="none" stroke="midnightblue" d="M436.995,-119.108C432.67,-117.978 428.227,-116.897 424,-116 327.503,-95.5152 212.325,-80.5366 152.886,-73.4941"/>
<polygon fill="midnightblue" stroke="midnightblue" points="153.138,-69.9997 142.798,-72.3119 152.323,-76.9522 153.138,-69.9997"/>
</g>
<!-- Node25 -->
<g id="node65" class="node"><title>Node25</title>
<polygon fill="white" stroke="#bfbfbf" points="513.5,-58.5 513.5,-79.5 562.5,-79.5 562.5,-58.5 513.5,-58.5"/>
<text text-anchor="middle" x="538" y="-66.5" font-family="Helvetica,sans-Serif" font-size="10.00">ctype.h</text>
</g>
<!-- Node24&#45;&gt;Node25 -->
<g id="edge80" class="edge"><title>Node24&#45;&gt;Node25</title>
<path fill="none" stroke="midnightblue" d="M477.573,-116.362C488.421,-107.859 503.834,-95.7785 516.379,-85.9466"/>
<polygon fill="midnightblue" stroke="midnightblue" points="518.802,-88.4942 524.513,-79.5707 514.484,-82.9848 518.802,-88.4942"/>
</g>
<!-- Node26 -->
<g id="node67" class="node"><title>Node26</title>
<polygon fill="white" stroke="#bfbfbf" points="440,-58.5 440,-79.5 496,-79.5 496,-58.5 440,-58.5"/>
<text text-anchor="middle" x="468" y="-66.5" font-family="Helvetica,sans-Serif" font-size="10.00">wctype.h</text>
</g>
<!-- Node24&#45;&gt;Node26 -->
<g id="edge82" class="edge"><title>Node24&#45;&gt;Node26</title>
<path fill="none" stroke="midnightblue" d="M464.734,-116.362C465.247,-108.922 465.949,-98.7427 466.571,-89.7276"/>
<polygon fill="midnightblue" stroke="midnightblue" points="470.075,-89.7878 467.271,-79.5707 463.091,-89.3061 470.075,-89.7878"/>
</g>
</g>
</svg>
