<?xml version="1.0" encoding="UTF-8" standalone="no"?>
<!DOCTYPE svg PUBLIC "-//W3C//DTD SVG 1.1//EN"
 "http://www.w3.org/Graphics/SVG/1.1/DTD/svg11.dtd">
<!-- Generated by graphviz version 2.26.0 (20091210.2329)
 -->
<!-- Title: visselman.h Pages: 1 -->
<svg width="888pt" height="726pt"
 viewBox="0.00 0.00 888.00 726.00" xmlns="http://www.w3.org/2000/svg" xmlns:xlink="http://www.w3.org/1999/xlink">
<g id="graph1" class="graph" transform="scale(1 1) rotate(0) translate(4 722)">
<title>visselman.h</title>
<polygon fill="white" stroke="white" points="-4,5 -4,-722 885,-722 885,5 -4,5"/>
<!-- Node1 -->
<g id="node1" class="node"><title>Node1</title>
<polygon fill="#bfbfbf" stroke="black" points="412.5,-696.5 412.5,-717.5 481.5,-717.5 481.5,-696.5 412.5,-696.5"/>
<text text-anchor="middle" x="447" y="-704.5" font-family="Helvetica,sans-Serif" font-size="10.00">visselman.h</text>
</g>
<!-- Node2 -->
<g id="node3" class="node"><title>Node2</title>
<polygon fill="white" stroke="#bfbfbf" points="322.5,-638.5 322.5,-659.5 399.5,-659.5 399.5,-638.5 322.5,-638.5"/>
<text text-anchor="middle" x="361" y="-646.5" font-family="Helvetica,sans-Serif" font-size="10.00">visbasemod.h</text>
</g>
<!-- Node1&#45;&gt;Node2 -->
<g id="edge2" class="edge"><title>Node1&#45;&gt;Node2</title>
<path fill="none" stroke="midnightblue" d="M431.226,-696.362C418.376,-687.696 400.015,-675.313 385.29,-665.382"/>
<polygon fill="midnightblue" stroke="midnightblue" points="386.921,-662.26 376.674,-659.571 383.007,-668.064 386.921,-662.26"/>
</g>
<!-- Node3 -->
<g id="node5" class="node"><title>Node3</title>
<a xlink:href="callback_8h.html" target="_top" xlink:title="callback.h">
<polygon fill="white" stroke="black" points="416.5,-638.5 416.5,-659.5 477.5,-659.5 477.5,-638.5 416.5,-638.5"/>
<text text-anchor="middle" x="447" y="-646.5" font-family="Helvetica,sans-Serif" font-size="10.00">callback.h</text>
</a>
</g>
<!-- Node1&#45;&gt;Node3 -->
<g id="edge4" class="edge"><title>Node1&#45;&gt;Node3</title>
<path fill="none" stroke="midnightblue" d="M447,-696.362C447,-688.922 447,-678.743 447,-669.728"/>
<polygon fill="midnightblue" stroke="midnightblue" points="450.5,-669.571 447,-659.571 443.5,-669.571 450.5,-669.571"/>
</g>
<!-- Node31 -->
<g id="node80" class="node"><title>Node31</title>
<a xlink:href="sets_8h.html" target="_top" xlink:title="sets.h">
<polygon fill="white" stroke="black" points="495,-580.5 495,-601.5 539,-601.5 539,-580.5 495,-580.5"/>
<text text-anchor="middle" x="517" y="-588.5" font-family="Helvetica,sans-Serif" font-size="10.00">sets.h</text>
</a>
</g>
<!-- Node1&#45;&gt;Node31 -->
<g id="edge116" class="edge"><title>Node1&#45;&gt;Node31</title>
<path fill="none" stroke="midnightblue" d="M457.195,-696.441C465.643,-687.313 477.586,-673.497 486,-660 495.633,-644.548 503.925,-625.592 509.503,-611.462"/>
<polygon fill="midnightblue" stroke="midnightblue" points="512.92,-612.325 513.217,-601.734 506.38,-609.828 512.92,-612.325"/>
</g>
<!-- Node4 -->
<g id="node7" class="node"><title>Node4</title>
<polygon fill="white" stroke="#bfbfbf" points="179.5,-0.5 179.5,-21.5 246.5,-21.5 246.5,-0.5 179.5,-0.5"/>
<text text-anchor="middle" x="213" y="-8.5" font-family="Helvetica,sans-Serif" font-size="10.00">basicmod.h</text>
</g>
<!-- Node3&#45;&gt;Node4 -->
<g id="edge6" class="edge"><title>Node3&#45;&gt;Node4</title>
<path fill="none" stroke="midnightblue" d="M416.362,-640.287C413.537,-639.505 410.717,-638.733 408,-638 227.216,-589.249 0,-720.242 0,-533 0,-533 0,-533 0,-127 0,-50.6166 106.95,-24.2385 169.281,-15.3514"/>
<polygon fill="midnightblue" stroke="midnightblue" points="169.799,-18.8134 179.25,-14.0242 168.875,-11.8746 169.799,-18.8134"/>
</g>
<!-- Node5 -->
<g id="node9" class="node"><title>Node5</title>
<a xlink:href="refcount_8h.html" target="_top" xlink:title="refcount.h">
<polygon fill="white" stroke="black" points="417,-580.5 417,-601.5 477,-601.5 477,-580.5 417,-580.5"/>
<text text-anchor="middle" x="447" y="-588.5" font-family="Helvetica,sans-Serif" font-size="10.00">refcount.h</text>
</a>
</g>
<!-- Node3&#45;&gt;Node5 -->
<g id="edge8" class="edge"><title>Node3&#45;&gt;Node5</title>
<path fill="none" stroke="midnightblue" d="M447,-638.362C447,-630.922 447,-620.743 447,-611.728"/>
<polygon fill="midnightblue" stroke="midnightblue" points="450.5,-611.571 447,-601.571 443.5,-611.571 450.5,-611.571"/>
</g>
<!-- Node3&#45;&gt;Node31 -->
<g id="edge98" class="edge"><title>Node3&#45;&gt;Node31</title>
<path fill="none" stroke="midnightblue" d="M459.839,-638.362C470.002,-629.941 484.401,-618.011 496.204,-608.231"/>
<polygon fill="midnightblue" stroke="midnightblue" points="498.775,-610.646 504.242,-601.571 494.309,-605.256 498.775,-610.646"/>
</g>
<!-- Node33 -->
<g id="node87" class="node"><title>Node33</title>
<a xlink:href="threadlock_8h.html" target="_top" xlink:title="threadlock.h">
<polygon fill="white" stroke="black" points="454,-116.5 454,-137.5 524,-137.5 524,-116.5 454,-116.5"/>
<text text-anchor="middle" x="489" y="-124.5" font-family="Helvetica,sans-Serif" font-size="10.00">threadlock.h</text>
</a>
</g>
<!-- Node3&#45;&gt;Node33 -->
<g id="edge108" class="edge"><title>Node3&#45;&gt;Node33</title>
<path fill="none" stroke="midnightblue" d="M435.907,-638.392C427.157,-629.449 415.256,-615.914 408,-602 393.293,-573.796 389,-564.808 389,-533 389,-533 389,-533 389,-243 389,-198.663 431.428,-162.869 461.011,-143.3"/>
<polygon fill="midnightblue" stroke="midnightblue" points="463.163,-146.079 469.719,-137.756 459.404,-140.174 463.163,-146.079"/>
</g>
<!-- Node6 -->
<g id="node11" class="node"><title>Node6</title>
<a xlink:href="atomic_8h.html" target="_top" xlink:title="atomic.h">
<polygon fill="white" stroke="black" points="186,-116.5 186,-137.5 240,-137.5 240,-116.5 186,-116.5"/>
<text text-anchor="middle" x="213" y="-124.5" font-family="Helvetica,sans-Serif" font-size="10.00">atomic.h</text>
</a>
</g>
<!-- Node5&#45;&gt;Node6 -->
<g id="edge10" class="edge"><title>Node5&#45;&gt;Node6</title>
<path fill="none" stroke="midnightblue" d="M416.861,-581.262C334.89,-552.683 114,-460.841 114,-301 114,-301 114,-301 114,-243 114,-198.611 156.461,-162.611 185.768,-143.05"/>
<polygon fill="midnightblue" stroke="midnightblue" points="187.858,-145.867 194.379,-137.516 184.074,-139.978 187.858,-145.867"/>
</g>
<!-- Node14 -->
<g id="node30" class="node"><title>Node14</title>
<a xlink:href="objectset_8h.html" target="_top" xlink:title="objectset.h">
<polygon fill="white" stroke="black" points="484.5,-522.5 484.5,-543.5 549.5,-543.5 549.5,-522.5 484.5,-522.5"/>
<text text-anchor="middle" x="517" y="-530.5" font-family="Helvetica,sans-Serif" font-size="10.00">objectset.h</text>
</a>
</g>
<!-- Node5&#45;&gt;Node14 -->
<g id="edge32" class="edge"><title>Node5&#45;&gt;Node14</title>
<path fill="none" stroke="midnightblue" d="M459.839,-580.362C470.002,-571.941 484.401,-560.011 496.204,-550.231"/>
<polygon fill="midnightblue" stroke="midnightblue" points="498.775,-552.646 504.242,-543.571 494.309,-547.256 498.775,-552.646"/>
</g>
<!-- Node6&#45;&gt;Node4 -->
<g id="edge12" class="edge"><title>Node6&#45;&gt;Node4</title>
<path fill="none" stroke="midnightblue" d="M199.144,-116.337C189.206,-107.753 176.619,-94.7219 171,-80 167.513,-70.8651 167.513,-67.1349 171,-58 175.215,-46.9586 183.348,-36.8684 191.344,-28.8919"/>
<polygon fill="midnightblue" stroke="midnightblue" points="194.189,-31.0277 199.144,-21.6631 189.43,-25.8937 194.189,-31.0277"/>
</g>
<!-- Node7 -->
<g id="node14" class="node"><title>Node7</title>
<a xlink:href="commondefs_8h.html" target="_top" xlink:title="commondefs.h">
<polygon fill="white" stroke="black" points="631.5,-58.5 631.5,-79.5 712.5,-79.5 712.5,-58.5 631.5,-58.5"/>
<text text-anchor="middle" x="672" y="-66.5" font-family="Helvetica,sans-Serif" font-size="10.00">commondefs.h</text>
</a>
</g>
<!-- Node6&#45;&gt;Node7 -->
<g id="edge14" class="edge"><title>Node6&#45;&gt;Node7</title>
<path fill="none" stroke="midnightblue" d="M240.072,-123.58C301.439,-115.829 455.834,-96.3253 585,-80 596.682,-78.5235 609.247,-76.9351 621.094,-75.4372"/>
<polygon fill="midnightblue" stroke="midnightblue" points="621.799,-78.876 631.281,-74.1492 620.92,-71.9313 621.799,-78.876"/>
</g>
<!-- Node11 -->
<g id="node23" class="node"><title>Node11</title>
<a xlink:href="plftypes_8h.html" target="_top" xlink:title="plftypes.h">
<polygon fill="white" stroke="black" points="517.5,-58.5 517.5,-79.5 576.5,-79.5 576.5,-58.5 517.5,-58.5"/>
<text text-anchor="middle" x="547" y="-66.5" font-family="Helvetica,sans-Serif" font-size="10.00">plftypes.h</text>
</a>
</g>
<!-- Node6&#45;&gt;Node11 -->
<g id="edge24" class="edge"><title>Node6&#45;&gt;Node11</title>
<path fill="none" stroke="midnightblue" d="M240.05,-122.303C298.841,-112.093 438.501,-87.8411 507.302,-75.8936"/>
<polygon fill="midnightblue" stroke="midnightblue" points="508.064,-79.3139 517.317,-74.1545 506.866,-72.4171 508.064,-79.3139"/>
</g>
<!-- Node13 -->
<g id="node28" class="node"><title>Node13</title>
<polygon fill="white" stroke="#bfbfbf" points="179.5,-58.5 179.5,-79.5 246.5,-79.5 246.5,-58.5 179.5,-58.5"/>
<text text-anchor="middle" x="213" y="-66.5" font-family="Helvetica,sans-Serif" font-size="10.00">odversion.h</text>
</g>
<!-- Node6&#45;&gt;Node13 -->
<g id="edge30" class="edge"><title>Node6&#45;&gt;Node13</title>
<path fill="none" stroke="midnightblue" d="M213,-116.362C213,-108.922 213,-98.7427 213,-89.7276"/>
<polygon fill="midnightblue" stroke="midnightblue" points="216.5,-89.5706 213,-79.5707 209.5,-89.5707 216.5,-89.5706"/>
</g>
<!-- Node7&#45;&gt;Node4 -->
<g id="edge16" class="edge"><title>Node7&#45;&gt;Node4</title>
<path fill="none" stroke="midnightblue" d="M631.378,-60.3379C626.874,-59.493 622.346,-58.6935 618,-58 487.418,-37.162 331.748,-21.7083 257.143,-14.8772"/>
<polygon fill="midnightblue" stroke="midnightblue" points="257.012,-11.351 246.736,-13.9323 256.378,-18.3223 257.012,-11.351"/>
</g>
<!-- Node8 -->
<g id="node17" class="node"><title>Node8</title>
<a xlink:href="plfdefs_8h.html" target="_top" xlink:title="plfdefs.h">
<polygon fill="white" stroke="black" points="586,-0.5 586,-21.5 640,-21.5 640,-0.5 586,-0.5"/>
<text text-anchor="middle" x="613" y="-8.5" font-family="Helvetica,sans-Serif" font-size="10.00">plfdefs.h</text>
</a>
</g>
<!-- Node7&#45;&gt;Node8 -->
<g id="edge18" class="edge"><title>Node7&#45;&gt;Node8</title>
<path fill="none" stroke="midnightblue" d="M661.178,-58.3619C652.779,-50.1043 640.946,-38.4725 631.11,-28.8029"/>
<polygon fill="midnightblue" stroke="midnightblue" points="633.338,-26.0851 623.753,-21.5707 628.431,-31.077 633.338,-26.0851"/>
</g>
<!-- Node9 -->
<g id="node19" class="node"><title>Node9</title>
<polygon fill="white" stroke="#bfbfbf" points="745.5,-0.5 745.5,-21.5 804.5,-21.5 804.5,-0.5 745.5,-0.5"/>
<text text-anchor="middle" x="775" y="-8.5" font-family="Helvetica,sans-Serif" font-size="10.00">stdexcept</text>
</g>
<!-- Node7&#45;&gt;Node9 -->
<g id="edge20" class="edge"><title>Node7&#45;&gt;Node9</title>
<path fill="none" stroke="midnightblue" d="M690.892,-58.3619C706.718,-49.4502 729.523,-36.6087 747.395,-26.5447"/>
<polygon fill="midnightblue" stroke="midnightblue" points="749.232,-29.5271 756.228,-21.5707 745.797,-23.4276 749.232,-29.5271"/>
</g>
<!-- Node10 -->
<g id="node21" class="node"><title>Node10</title>
<polygon fill="white" stroke="#bfbfbf" points="657.5,-0.5 657.5,-21.5 692.5,-21.5 692.5,-0.5 657.5,-0.5"/>
<text text-anchor="middle" x="675" y="-8.5" font-family="Helvetica,sans-Serif" font-size="10.00">new</text>
</g>
<!-- Node7&#45;&gt;Node10 -->
<g id="edge22" class="edge"><title>Node7&#45;&gt;Node10</title>
<path fill="none" stroke="midnightblue" d="M672.55,-58.3619C672.935,-50.9219 673.462,-40.7427 673.928,-31.7276"/>
<polygon fill="midnightblue" stroke="midnightblue" points="677.432,-31.7381 674.453,-21.5707 670.441,-31.3765 677.432,-31.7381"/>
</g>
<!-- Node11&#45;&gt;Node8 -->
<g id="edge26" class="edge"><title>Node11&#45;&gt;Node8</title>
<path fill="none" stroke="midnightblue" d="M559.105,-58.3619C568.688,-49.9408 582.264,-38.0105 593.393,-28.2308"/>
<polygon fill="midnightblue" stroke="midnightblue" points="595.77,-30.8009 600.971,-21.5707 591.149,-25.5427 595.77,-30.8009"/>
</g>
<!-- Node12 -->
<g id="node26" class="node"><title>Node12</title>
<polygon fill="white" stroke="#bfbfbf" points="519.5,-0.5 519.5,-21.5 568.5,-21.5 568.5,-0.5 519.5,-0.5"/>
<text text-anchor="middle" x="544" y="-8.5" font-family="Helvetica,sans-Serif" font-size="10.00">stdint.h</text>
</g>
<!-- Node11&#45;&gt;Node12 -->
<g id="edge28" class="edge"><title>Node11&#45;&gt;Node12</title>
<path fill="none" stroke="midnightblue" d="M546.45,-58.3619C546.065,-50.9219 545.538,-40.7427 545.072,-31.7276"/>
<polygon fill="midnightblue" stroke="midnightblue" points="548.559,-31.3765 544.547,-21.5707 541.568,-31.7381 548.559,-31.3765"/>
</g>
<!-- Node15 -->
<g id="node32" class="node"><title>Node15</title>
<a xlink:href="odset_8h.html" target="_top" xlink:title="odset.h">
<polygon fill="white" stroke="black" points="501.5,-464.5 501.5,-485.5 550.5,-485.5 550.5,-464.5 501.5,-464.5"/>
<text text-anchor="middle" x="526" y="-472.5" font-family="Helvetica,sans-Serif" font-size="10.00">odset.h</text>
</a>
</g>
<!-- Node14&#45;&gt;Node15 -->
<g id="edge34" class="edge"><title>Node14&#45;&gt;Node15</title>
<path fill="none" stroke="midnightblue" d="M518.651,-522.362C519.805,-514.922 521.385,-504.743 522.784,-495.728"/>
<polygon fill="midnightblue" stroke="midnightblue" points="526.285,-495.989 524.36,-485.571 519.368,-494.916 526.285,-495.989"/>
</g>
<!-- Node21 -->
<g id="node49" class="node"><title>Node21</title>
<a xlink:href="vectoraccess_8h.html" target="_top" xlink:title="vectoraccess.h">
<polygon fill="white" stroke="black" points="567.5,-464.5 567.5,-485.5 650.5,-485.5 650.5,-464.5 567.5,-464.5"/>
<text text-anchor="middle" x="609" y="-472.5" font-family="Helvetica,sans-Serif" font-size="10.00">vectoraccess.h</text>
</a>
</g>
<!-- Node14&#45;&gt;Node21 -->
<g id="edge56" class="edge"><title>Node14&#45;&gt;Node21</title>
<path fill="none" stroke="midnightblue" d="M533.874,-522.362C547.751,-513.614 567.634,-501.079 583.46,-491.101"/>
<polygon fill="midnightblue" stroke="midnightblue" points="585.64,-493.864 592.233,-485.571 581.907,-487.943 585.64,-493.864"/>
</g>
<!-- Node16 -->
<g id="node34" class="node"><title>Node16</title>
<a xlink:href="gendefs_8h.html" target="_top" xlink:title="gendefs.h">
<polygon fill="white" stroke="black" points="541.5,-174.5 541.5,-195.5 600.5,-195.5 600.5,-174.5 541.5,-174.5"/>
<text text-anchor="middle" x="571" y="-182.5" font-family="Helvetica,sans-Serif" font-size="10.00">gendefs.h</text>
</a>
</g>
<!-- Node15&#45;&gt;Node16 -->
<g id="edge36" class="edge"><title>Node15&#45;&gt;Node16</title>
<path fill="none" stroke="midnightblue" d="M526.304,-464.445C526.863,-444.065 528,-397.874 528,-359 528,-359 528,-359 528,-301 528,-265.265 546.163,-226.982 558.88,-204.557"/>
<polygon fill="midnightblue" stroke="midnightblue" points="562.035,-206.097 564.091,-195.703 556.002,-202.546 562.035,-206.097"/>
</g>
<!-- Node17 -->
<g id="node36" class="node"><title>Node17</title>
<a xlink:href="undefval_8h.html" target="_top" xlink:title="undefval.h">
<polygon fill="white" stroke="black" points="542,-116.5 542,-137.5 604,-137.5 604,-116.5 542,-116.5"/>
<text text-anchor="middle" x="573" y="-124.5" font-family="Helvetica,sans-Serif" font-size="10.00">undefval.h</text>
</a>
</g>
<!-- Node16&#45;&gt;Node17 -->
<g id="edge38" class="edge"><title>Node16&#45;&gt;Node17</title>
<path fill="none" stroke="midnightblue" d="M571.367,-174.362C571.623,-166.922 571.974,-156.743 572.285,-147.728"/>
<polygon fill="midnightblue" stroke="midnightblue" points="575.789,-147.685 572.635,-137.571 568.793,-147.444 575.789,-147.685"/>
</g>
<!-- Node18 -->
<g id="node41" class="node"><title>Node18</title>
<a xlink:href="commontypes_8h.html" target="_top" xlink:title="commontypes.h">
<polygon fill="white" stroke="black" points="622,-116.5 622,-137.5 708,-137.5 708,-116.5 622,-116.5"/>
<text text-anchor="middle" x="665" y="-124.5" font-family="Helvetica,sans-Serif" font-size="10.00">commontypes.h</text>
</a>
</g>
<!-- Node16&#45;&gt;Node18 -->
<g id="edge46" class="edge"><title>Node16&#45;&gt;Node18</title>
<path fill="none" stroke="midnightblue" d="M588.241,-174.362C602.552,-165.532 623.115,-152.844 639.357,-142.822"/>
<polygon fill="midnightblue" stroke="midnightblue" points="641.196,-145.8 647.868,-137.571 637.52,-139.843 641.196,-145.8"/>
</g>
<!-- Node19 -->
<g id="node44" class="node"><title>Node19</title>
<a xlink:href="errmsg_8h.html" target="_top" xlink:title="errmsg.h">
<polygon fill="white" stroke="black" points="725.5,-116.5 725.5,-137.5 780.5,-137.5 780.5,-116.5 725.5,-116.5"/>
<text text-anchor="middle" x="753" y="-124.5" font-family="Helvetica,sans-Serif" font-size="10.00">errmsg.h</text>
</a>
</g>
<!-- Node16&#45;&gt;Node19 -->
<g id="edge50" class="edge"><title>Node16&#45;&gt;Node19</title>
<path fill="none" stroke="midnightblue" d="M600.647,-175.552C632.092,-165.531 681.832,-149.68 715.866,-138.834"/>
<polygon fill="midnightblue" stroke="midnightblue" points="716.988,-142.15 725.453,-135.779 714.862,-135.48 716.988,-142.15"/>
</g>
<!-- Node17&#45;&gt;Node4 -->
<g id="edge40" class="edge"><title>Node17&#45;&gt;Node4</title>
<path fill="none" stroke="midnightblue" d="M579.649,-116.208C587.92,-101.252 599.313,-74.2347 585,-58 563.553,-33.6729 350.078,-18.7397 256.534,-13.3167"/>
<polygon fill="midnightblue" stroke="midnightblue" points="256.719,-9.82162 246.536,-12.7469 256.321,-16.8103 256.719,-9.82162"/>
</g>
<!-- Node17&#45;&gt;Node7 -->
<g id="edge42" class="edge"><title>Node17&#45;&gt;Node7</title>
<path fill="none" stroke="midnightblue" d="M591.158,-116.362C606.23,-107.532 627.887,-94.844 644.993,-84.8224"/>
<polygon fill="midnightblue" stroke="midnightblue" points="647.098,-87.6456 653.957,-79.5707 643.559,-81.6058 647.098,-87.6456"/>
</g>
<!-- Node17&#45;&gt;Node11 -->
<g id="edge44" class="edge"><title>Node17&#45;&gt;Node11</title>
<path fill="none" stroke="midnightblue" d="M568.231,-116.362C564.786,-108.677 560.031,-98.0686 555.894,-88.8399"/>
<polygon fill="midnightblue" stroke="midnightblue" points="559.023,-87.264 551.739,-79.5707 552.635,-90.1275 559.023,-87.264"/>
</g>
<!-- Node18&#45;&gt;Node7 -->
<g id="edge48" class="edge"><title>Node18&#45;&gt;Node7</title>
<path fill="none" stroke="midnightblue" d="M666.284,-116.362C667.182,-108.922 668.41,-98.7427 669.498,-89.7276"/>
<polygon fill="midnightblue" stroke="midnightblue" points="673.001,-89.918 670.724,-79.5707 666.051,-89.0792 673.001,-89.918"/>
</g>
<!-- Node19&#45;&gt;Node7 -->
<g id="edge52" class="edge"><title>Node19&#45;&gt;Node7</title>
<path fill="none" stroke="midnightblue" d="M738.143,-116.362C726.154,-107.777 709.073,-95.5459 695.272,-85.6636"/>
<polygon fill="midnightblue" stroke="midnightblue" points="696.931,-82.5469 686.762,-79.5707 692.855,-88.2383 696.931,-82.5469"/>
</g>
<!-- Node20 -->
<g id="node47" class="node"><title>Node20</title>
<polygon fill="white" stroke="#bfbfbf" points="729.5,-58.5 729.5,-79.5 780.5,-79.5 780.5,-58.5 729.5,-58.5"/>
<text text-anchor="middle" x="755" y="-66.5" font-family="Helvetica,sans-Serif" font-size="10.00">typeinfo</text>
</g>
<!-- Node19&#45;&gt;Node20 -->
<g id="edge54" class="edge"><title>Node19&#45;&gt;Node20</title>
<path fill="none" stroke="midnightblue" d="M753.367,-116.362C753.623,-108.922 753.974,-98.7427 754.285,-89.7276"/>
<polygon fill="midnightblue" stroke="midnightblue" points="757.789,-89.6854 754.635,-79.5707 750.793,-89.4441 757.789,-89.6854"/>
</g>
<!-- Node21&#45;&gt;Node9 -->
<g id="edge96" class="edge"><title>Node21&#45;&gt;Node9</title>
<path fill="none" stroke="midnightblue" d="M650.717,-469.517C709.07,-459.244 808,-431.182 808,-359 808,-359 808,-359 808,-127 808,-92.1383 794.041,-53.5551 784.28,-30.8381"/>
<polygon fill="midnightblue" stroke="midnightblue" points="787.425,-29.2958 780.156,-21.5873 781.031,-32.146 787.425,-29.2958"/>
</g>
<!-- Node21&#45;&gt;Node16 -->
<g id="edge90" class="edge"><title>Node21&#45;&gt;Node16</title>
<path fill="none" stroke="midnightblue" d="M602.895,-464.191C592.153,-444.127 571,-399.477 571,-359 571,-359 571,-359 571,-301 571,-267.598 571,-228.785 571,-205.594"/>
<polygon fill="midnightblue" stroke="midnightblue" points="574.5,-205.556 571,-195.556 567.5,-205.556 574.5,-205.556"/>
</g>
<!-- Node22 -->
<g id="node51" class="node"><title>Node22</title>
<a xlink:href="debug_8h.html" target="_top" xlink:title="debug.h">
<polygon fill="white" stroke="black" points="288.5,-406.5 288.5,-427.5 339.5,-427.5 339.5,-406.5 288.5,-406.5"/>
<text text-anchor="middle" x="314" y="-414.5" font-family="Helvetica,sans-Serif" font-size="10.00">debug.h</text>
</a>
</g>
<!-- Node21&#45;&gt;Node22 -->
<g id="edge58" class="edge"><title>Node21&#45;&gt;Node22</title>
<path fill="none" stroke="midnightblue" d="M567.276,-465.732C564.477,-465.138 561.699,-464.556 559,-464 484.701,-448.703 397.386,-432.337 349.644,-423.526"/>
<polygon fill="midnightblue" stroke="midnightblue" points="350.264,-420.081 339.795,-421.711 348.995,-426.965 350.264,-420.081"/>
</g>
<!-- Node29 -->
<g id="node75" class="node"><title>Node29</title>
<polygon fill="white" stroke="#bfbfbf" points="599,-406.5 599,-427.5 655,-427.5 655,-406.5 599,-406.5"/>
<text text-anchor="middle" x="627" y="-414.5" font-family="Helvetica,sans-Serif" font-size="10.00">algorithm</text>
</g>
<!-- Node21&#45;&gt;Node29 -->
<g id="edge92" class="edge"><title>Node21&#45;&gt;Node29</title>
<path fill="none" stroke="midnightblue" d="M612.301,-464.362C614.661,-456.758 617.909,-446.294 620.751,-437.135"/>
<polygon fill="midnightblue" stroke="midnightblue" points="624.098,-438.159 623.719,-427.571 617.413,-436.084 624.098,-438.159"/>
</g>
<!-- Node30 -->
<g id="node77" class="node"><title>Node30</title>
<polygon fill="white" stroke="#bfbfbf" points="836,-406.5 836,-427.5 880,-427.5 880,-406.5 836,-406.5"/>
<text text-anchor="middle" x="858" y="-414.5" font-family="Helvetica,sans-Serif" font-size="10.00">vector</text>
</g>
<!-- Node21&#45;&gt;Node30 -->
<g id="edge94" class="edge"><title>Node21&#45;&gt;Node30</title>
<path fill="none" stroke="midnightblue" d="M650.865,-466.785C693.988,-458.085 763.032,-443.489 822,-428 823.422,-427.626 824.872,-427.234 826.335,-426.828"/>
<polygon fill="midnightblue" stroke="midnightblue" points="827.365,-430.173 835.994,-424.026 825.415,-423.45 827.365,-430.173"/>
</g>
<!-- Node22&#45;&gt;Node4 -->
<g id="edge60" class="edge"><title>Node22&#45;&gt;Node4</title>
<path fill="none" stroke="midnightblue" d="M288.035,-409.16C219.328,-386.636 38,-314.887 38,-185 38,-185 38,-185 38,-127 38,-64.1229 117.458,-33.3134 169.292,-19.9044"/>
<polygon fill="midnightblue" stroke="midnightblue" points="170.385,-23.2397 179.258,-17.4502 168.711,-16.4427 170.385,-23.2397"/>
</g>
<!-- Node22&#45;&gt;Node16 -->
<g id="edge62" class="edge"><title>Node22&#45;&gt;Node16</title>
<path fill="none" stroke="midnightblue" d="M322.626,-406.265C334.039,-392.298 355.049,-367.39 375,-348 432.701,-291.92 452.07,-283.373 514,-232 525.84,-222.178 539.097,-211.243 549.845,-202.394"/>
<polygon fill="midnightblue" stroke="midnightblue" points="552.353,-204.862 557.851,-195.805 547.905,-199.457 552.353,-204.862"/>
</g>
<!-- Node23 -->
<g id="node55" class="node"><title>Node23</title>
<a xlink:href="bufstring_8h.html" target="_top" xlink:title="bufstring.h">
<polygon fill="white" stroke="black" points="240,-348.5 240,-369.5 302,-369.5 302,-348.5 240,-348.5"/>
<text text-anchor="middle" x="271" y="-356.5" font-family="Helvetica,sans-Serif" font-size="10.00">bufstring.h</text>
</a>
</g>
<!-- Node22&#45;&gt;Node23 -->
<g id="edge64" class="edge"><title>Node22&#45;&gt;Node23</title>
<path fill="none" stroke="midnightblue" d="M306.113,-406.362C300.173,-398.35 291.878,-387.161 284.841,-377.67"/>
<polygon fill="midnightblue" stroke="midnightblue" points="287.604,-375.519 278.837,-369.571 281.981,-379.688 287.604,-375.519"/>
</g>
<!-- Node23&#45;&gt;Node4 -->
<g id="edge66" class="edge"><title>Node23&#45;&gt;Node4</title>
<path fill="none" stroke="midnightblue" d="M241.384,-348.483C186.833,-326.997 76,-272.569 76,-185 76,-185 76,-185 76,-127 76,-75.9312 132.131,-42.7127 172.535,-25.4165"/>
<polygon fill="midnightblue" stroke="midnightblue" points="173.994,-28.6013 181.913,-21.5627 171.333,-22.1267 173.994,-28.6013"/>
</g>
<!-- Node24 -->
<g id="node58" class="node"><title>Node24</title>
<a xlink:href="fixedstring_8h.html" target="_top" xlink:title="fixedstring.h">
<polygon fill="white" stroke="black" points="215,-290.5 215,-311.5 285,-311.5 285,-290.5 215,-290.5"/>
<text text-anchor="middle" x="250" y="-298.5" font-family="Helvetica,sans-Serif" font-size="10.00">fixedstring.h</text>
</a>
</g>
<!-- Node23&#45;&gt;Node24 -->
<g id="edge68" class="edge"><title>Node23&#45;&gt;Node24</title>
<path fill="none" stroke="midnightblue" d="M267.148,-348.362C264.395,-340.758 260.606,-330.294 257.29,-321.135"/>
<polygon fill="midnightblue" stroke="midnightblue" points="260.523,-319.782 253.827,-311.571 253.941,-322.165 260.523,-319.782"/>
</g>
<!-- Node26 -->
<g id="node65" class="node"><title>Node26</title>
<a xlink:href="string2_8h.html" target="_top" xlink:title="string2.h">
<polygon fill="white" stroke="black" points="361,-116.5 361,-137.5 415,-137.5 415,-116.5 361,-116.5"/>
<text text-anchor="middle" x="388" y="-124.5" font-family="Helvetica,sans-Serif" font-size="10.00">string2.h</text>
</a>
</g>
<!-- Node23&#45;&gt;Node26 -->
<g id="edge78" class="edge"><title>Node23&#45;&gt;Node26</title>
<path fill="none" stroke="midnightblue" d="M276.331,-348.429C294.49,-312.422 354.121,-194.179 377.991,-146.847"/>
<polygon fill="midnightblue" stroke="midnightblue" points="381.26,-148.138 382.637,-137.634 375.009,-144.986 381.26,-148.138"/>
</g>
<!-- Node24&#45;&gt;Node4 -->
<g id="edge70" class="edge"><title>Node24&#45;&gt;Node4</title>
<path fill="none" stroke="midnightblue" d="M241.525,-290.293C234.526,-281.076 224.689,-267.21 218,-254 181.478,-181.879 173.232,-160.421 165,-80 164.004,-70.2731 161.211,-67.0137 165,-58 169.964,-46.1918 179.503,-35.8648 188.779,-27.9215"/>
<polygon fill="midnightblue" stroke="midnightblue" points="191.101,-30.5466 196.74,-21.5773 186.738,-25.0721 191.101,-30.5466"/>
</g>
<!-- Node25 -->
<g id="node61" class="node"><title>Node25</title>
<a xlink:href="odstring_8h.html" target="_top" xlink:title="odstring.h">
<polygon fill="white" stroke="black" points="226.5,-232.5 226.5,-253.5 285.5,-253.5 285.5,-232.5 226.5,-232.5"/>
<text text-anchor="middle" x="256" y="-240.5" font-family="Helvetica,sans-Serif" font-size="10.00">odstring.h</text>
</a>
</g>
<!-- Node24&#45;&gt;Node25 -->
<g id="edge72" class="edge"><title>Node24&#45;&gt;Node25</title>
<path fill="none" stroke="midnightblue" d="M251.1,-290.362C251.87,-282.922 252.923,-272.743 253.856,-263.728"/>
<polygon fill="midnightblue" stroke="midnightblue" points="257.359,-263.878 254.906,-253.571 250.396,-263.157 257.359,-263.878"/>
</g>
<!-- Node25&#45;&gt;Node4 -->
<g id="edge74" class="edge"><title>Node25&#45;&gt;Node4</title>
<path fill="none" stroke="midnightblue" d="M258.528,-232.081C264.794,-202.711 278.877,-120.05 255,-58 250.756,-46.97 242.617,-36.8816 234.626,-28.9034"/>
<polygon fill="midnightblue" stroke="midnightblue" points="236.544,-25.9086 226.833,-21.6719 231.783,-31.0397 236.544,-25.9086"/>
</g>
<!-- Node25&#45;&gt;Node16 -->
<g id="edge76" class="edge"><title>Node25&#45;&gt;Node16</title>
<path fill="none" stroke="midnightblue" d="M285.634,-237.544C342.505,-227.072 466.984,-204.152 531.092,-192.348"/>
<polygon fill="midnightblue" stroke="midnightblue" points="532.014,-195.737 541.215,-190.484 530.746,-188.853 532.014,-195.737"/>
</g>
<!-- Node26&#45;&gt;Node4 -->
<g id="edge80" class="edge"><title>Node26&#45;&gt;Node4</title>
<path fill="none" stroke="midnightblue" d="M372.895,-116.268C353.436,-102.516 318.485,-78.0554 288,-58 271.993,-47.4697 253.787,-36.0474 239.321,-27.1002"/>
<polygon fill="midnightblue" stroke="midnightblue" points="240.765,-23.879 230.416,-21.6123 237.093,-29.8383 240.765,-23.879"/>
</g>
<!-- Node26&#45;&gt;Node7 -->
<g id="edge84" class="edge"><title>Node26&#45;&gt;Node7</title>
<path fill="none" stroke="midnightblue" d="M415.231,-121.439C462.609,-111.763 560.9,-91.6895 621.186,-79.3774"/>
<polygon fill="midnightblue" stroke="midnightblue" points="622.153,-82.7523 631.251,-77.322 620.753,-75.8938 622.153,-82.7523"/>
</g>
<!-- Node26&#45;&gt;Node11 -->
<g id="edge82" class="edge"><title>Node26&#45;&gt;Node11</title>
<path fill="none" stroke="midnightblue" d="M415.333,-117.029C440.987,-107.671 479.618,-93.5796 508.409,-83.0772"/>
<polygon fill="midnightblue" stroke="midnightblue" points="509.95,-86.2407 518.145,-79.5257 507.551,-79.6646 509.95,-86.2407"/>
</g>
<!-- Node27 -->
<g id="node70" class="node"><title>Node27</title>
<polygon fill="white" stroke="#bfbfbf" points="413.5,-58.5 413.5,-79.5 462.5,-79.5 462.5,-58.5 413.5,-58.5"/>
<text text-anchor="middle" x="438" y="-66.5" font-family="Helvetica,sans-Serif" font-size="10.00">ctype.h</text>
</g>
<!-- Node26&#45;&gt;Node27 -->
<g id="edge86" class="edge"><title>Node26&#45;&gt;Node27</title>
<path fill="none" stroke="midnightblue" d="M397.171,-116.362C404.148,-108.268 413.921,-96.9318 422.156,-87.3796"/>
<polygon fill="midnightblue" stroke="midnightblue" points="425.009,-89.4301 428.887,-79.5707 419.707,-84.8595 425.009,-89.4301"/>
</g>
<!-- Node28 -->
<g id="node72" class="node"><title>Node28</title>
<polygon fill="white" stroke="#bfbfbf" points="340,-58.5 340,-79.5 396,-79.5 396,-58.5 340,-58.5"/>
<text text-anchor="middle" x="368" y="-66.5" font-family="Helvetica,sans-Serif" font-size="10.00">wctype.h</text>
</g>
<!-- Node26&#45;&gt;Node28 -->
<g id="edge88" class="edge"><title>Node26&#45;&gt;Node28</title>
<path fill="none" stroke="midnightblue" d="M384.332,-116.362C381.71,-108.758 378.101,-98.294 374.943,-89.1349"/>
<polygon fill="midnightblue" stroke="midnightblue" points="378.214,-87.8834 371.645,-79.5707 371.596,-90.1654 378.214,-87.8834"/>
</g>
<!-- Node31&#45;&gt;Node14 -->
<g id="edge106" class="edge"><title>Node31&#45;&gt;Node14</title>
<path fill="none" stroke="midnightblue" d="M517,-580.362C517,-572.922 517,-562.743 517,-553.728"/>
<polygon fill="midnightblue" stroke="midnightblue" points="520.5,-553.571 517,-543.571 513.5,-553.571 520.5,-553.571"/>
</g>
<!-- Node32 -->
<g id="node82" class="node"><title>Node32</title>
<a xlink:href="typeset_8h.html" target="_top" xlink:title="typeset.h">
<polygon fill="white" stroke="black" points="566.5,-522.5 566.5,-543.5 623.5,-543.5 623.5,-522.5 566.5,-522.5"/>
<text text-anchor="middle" x="595" y="-530.5" font-family="Helvetica,sans-Serif" font-size="10.00">typeset.h</text>
</a>
</g>
<!-- Node31&#45;&gt;Node32 -->
<g id="edge100" class="edge"><title>Node31&#45;&gt;Node32</title>
<path fill="none" stroke="midnightblue" d="M531.306,-580.362C542.851,-571.777 559.3,-559.546 572.59,-549.664"/>
<polygon fill="midnightblue" stroke="midnightblue" points="574.848,-552.346 580.784,-543.571 570.671,-546.729 574.848,-552.346"/>
</g>
<!-- Node32&#45;&gt;Node15 -->
<g id="edge102" class="edge"><title>Node32&#45;&gt;Node15</title>
<path fill="none" stroke="midnightblue" d="M582.344,-522.362C572.326,-513.941 558.133,-502.011 546.499,-492.231"/>
<polygon fill="midnightblue" stroke="midnightblue" points="548.482,-489.326 538.575,-485.571 543.978,-494.684 548.482,-489.326"/>
</g>
<!-- Node32&#45;&gt;Node21 -->
<g id="edge104" class="edge"><title>Node32&#45;&gt;Node21</title>
<path fill="none" stroke="midnightblue" d="M597.568,-522.362C599.383,-514.84 601.875,-504.519 604.068,-495.431"/>
<polygon fill="midnightblue" stroke="midnightblue" points="607.504,-496.113 606.448,-485.571 600.7,-494.47 607.504,-496.113"/>
</g>
<!-- Node33&#45;&gt;Node4 -->
<g id="edge110" class="edge"><title>Node33&#45;&gt;Node4</title>
<path fill="none" stroke="midnightblue" d="M489.502,-116.374C489.599,-101.111 487.337,-73.1555 471,-58 440.505,-29.7103 322.101,-17.8603 256.817,-13.3944"/>
<polygon fill="midnightblue" stroke="midnightblue" points="257.025,-9.90054 246.817,-12.7396 256.567,-16.8856 257.025,-9.90054"/>
</g>
<!-- Node33&#45;&gt;Node7 -->
<g id="edge112" class="edge"><title>Node33&#45;&gt;Node7</title>
<path fill="none" stroke="midnightblue" d="M522.14,-116.497C552.103,-107 596.396,-92.9619 629.062,-82.6087"/>
<polygon fill="midnightblue" stroke="midnightblue" points="630.323,-85.8809 638.798,-79.5231 628.208,-79.208 630.323,-85.8809"/>
</g>
<!-- Node33&#45;&gt;Node11 -->
<g id="edge114" class="edge"><title>Node33&#45;&gt;Node11</title>
<path fill="none" stroke="midnightblue" d="M499.638,-116.362C507.896,-108.104 519.528,-96.4725 529.197,-86.8029"/>
<polygon fill="midnightblue" stroke="midnightblue" points="531.833,-89.1166 536.429,-79.5707 526.883,-84.1669 531.833,-89.1166"/>
</g>
</g>
</svg>
