<?xml version="1.0" encoding="UTF-8" standalone="no"?>
<!DOCTYPE svg PUBLIC "-//W3C//DTD SVG 1.1//EN"
 "http://www.w3.org/Graphics/SVG/1.1/DTD/svg11.dtd">
<!-- Generated by graphviz version 2.26.0 (20091210.2329)
 -->
<!-- Title: vistexturechannel2rgba.h Pages: 1 -->
<svg width="308pt" height="88pt"
 viewBox="0.00 0.00 308.00 88.00" xmlns="http://www.w3.org/2000/svg" xmlns:xlink="http://www.w3.org/1999/xlink">
<g id="graph1" class="graph" transform="scale(1 1) rotate(0) translate(4 84)">
<title>vistexturechannel2rgba.h</title>
<polygon fill="white" stroke="white" points="-4,5 -4,-84 305,-84 305,5 -4,5"/>
<!-- Node1 -->
<g id="node1" class="node"><title>Node1</title>
<polygon fill="#bfbfbf" stroke="black" points="88.5,-58.5 88.5,-79.5 213.5,-79.5 213.5,-58.5 88.5,-58.5"/>
<text text-anchor="middle" x="151" y="-66.5" font-family="Helvetica,sans-Serif" font-size="10.00">vistexturechannel2rgba.h</text>
</g>
<!-- Node2 -->
<g id="node3" class="node"><title>Node2</title>
<a xlink:href="visrgbatexturechannel2rgba_8h.html" target="_top" xlink:title="visrgbatexturechannel2rgba.h">
<polygon fill="white" stroke="black" points="0,-0.5 0,-21.5 144,-21.5 144,-0.5 0,-0.5"/>
<text text-anchor="middle" x="72" y="-8.5" font-family="Helvetica,sans-Serif" font-size="10.00">visrgbatexturechannel2rgba.h</text>
</a>
</g>
<!-- Node1&#45;&gt;Node2 -->
<g id="edge2" class="edge"><title>Node1&#45;&gt;Node2</title>
<path fill="none" stroke="midnightblue" d="M128.197,-52.2587C114.72,-42.3641 98.0647,-30.1361 86.398,-21.5707"/>
<polygon fill="midnightblue" stroke="midnightblue" points="126.378,-55.2651 136.51,-58.3619 130.521,-49.6225 126.378,-55.2651"/>
</g>
<!-- Node3 -->
<g id="node5" class="node"><title>Node3</title>
<a xlink:href="vistexturechannel2voldata_8h.html" target="_top" xlink:title="vistexturechannel2voldata.h">
<polygon fill="white" stroke="black" points="162,-0.5 162,-21.5 300,-21.5 300,-0.5 162,-0.5"/>
<text text-anchor="middle" x="231" y="-8.5" font-family="Helvetica,sans-Serif" font-size="10.00">vistexturechannel2voldata.h</text>
</a>
</g>
<!-- Node1&#45;&gt;Node3 -->
<g id="edge4" class="edge"><title>Node1&#45;&gt;Node3</title>
<path fill="none" stroke="midnightblue" d="M174.092,-52.2587C187.739,-42.3641 204.605,-30.1361 216.42,-21.5707"/>
<polygon fill="midnightblue" stroke="midnightblue" points="171.715,-49.6585 165.673,-58.3619 175.824,-55.3258 171.715,-49.6585"/>
</g>
</g>
</svg>
