<?xml version="1.0" encoding="UTF-8" standalone="no"?>
<!DOCTYPE svg PUBLIC "-//W3C//DTD SVG 1.1//EN"
 "http://www.w3.org/Graphics/SVG/1.1/DTD/svg11.dtd">
<!-- Generated by graphviz version 2.26.0 (20091210.2329)
 -->
<!-- Title: zaxistransform.h Pages: 1 -->
<svg width="592pt" height="146pt"
 viewBox="0.00 0.00 592.00 146.00" xmlns="http://www.w3.org/2000/svg" xmlns:xlink="http://www.w3.org/1999/xlink">
<g id="graph1" class="graph" transform="scale(1 1) rotate(0) translate(4 142)">
<title>zaxistransform.h</title>
<polygon fill="white" stroke="white" points="-4,5 -4,-142 589,-142 589,5 -4,5"/>
<!-- Node1 -->
<g id="node1" class="node"><title>Node1</title>
<polygon fill="#bfbfbf" stroke="black" points="243.5,-116.5 243.5,-137.5 332.5,-137.5 332.5,-116.5 243.5,-116.5"/>
<text text-anchor="middle" x="288" y="-124.5" font-family="Helvetica,sans-Serif" font-size="10.00">zaxistransform.h</text>
</g>
<!-- Node2 -->
<g id="node3" class="node"><title>Node2</title>
<a xlink:href="pickretriever_8h.html" target="_top" xlink:title="pickretriever.h">
<polygon fill="white" stroke="black" points="10,-58.5 10,-79.5 88,-79.5 88,-58.5 10,-58.5"/>
<text text-anchor="middle" x="49" y="-66.5" font-family="Helvetica,sans-Serif" font-size="10.00">pickretriever.h</text>
</a>
</g>
<!-- Node1&#45;&gt;Node2 -->
<g id="edge2" class="edge"><title>Node1&#45;&gt;Node2</title>
<path fill="none" stroke="midnightblue" d="M234.954,-114.127C190.479,-103.334 127.998,-88.1711 88.0022,-78.465"/>
<polygon fill="midnightblue" stroke="midnightblue" points="234.176,-117.54 244.719,-116.497 235.826,-110.737 234.176,-117.54"/>
</g>
<!-- Node4 -->
<g id="node7" class="node"><title>Node4</title>
<a xlink:href="emhorizonztransform_8h.html" target="_top" xlink:title="emhorizonztransform.h">
<polygon fill="white" stroke="black" points="106,-58.5 106,-79.5 222,-79.5 222,-58.5 106,-58.5"/>
<text text-anchor="middle" x="164" y="-66.5" font-family="Helvetica,sans-Serif" font-size="10.00">emhorizonztransform.h</text>
</a>
</g>
<!-- Node1&#45;&gt;Node4 -->
<g id="edge6" class="edge"><title>Node1&#45;&gt;Node4</title>
<path fill="none" stroke="midnightblue" d="M256.372,-112.206C234.618,-102.031 206.238,-88.7567 186.707,-79.6212"/>
<polygon fill="midnightblue" stroke="midnightblue" points="255.004,-115.43 265.545,-116.497 257.969,-109.089 255.004,-115.43"/>
</g>
<!-- Node5 -->
<g id="node9" class="node"><title>Node5</title>
<a xlink:href="wellt2dtransform_8h.html" target="_top" xlink:title="wellt2dtransform.h">
<polygon fill="white" stroke="black" points="239.5,-58.5 239.5,-79.5 336.5,-79.5 336.5,-58.5 239.5,-58.5"/>
<text text-anchor="middle" x="288" y="-66.5" font-family="Helvetica,sans-Serif" font-size="10.00">wellt2dtransform.h</text>
</a>
</g>
<!-- Node1&#45;&gt;Node5 -->
<g id="edge8" class="edge"><title>Node1&#45;&gt;Node5</title>
<path fill="none" stroke="midnightblue" d="M288,-106.191C288,-97.1684 288,-86.9941 288,-79.5707"/>
<polygon fill="midnightblue" stroke="midnightblue" points="284.5,-106.362 288,-116.362 291.5,-106.362 284.5,-106.362"/>
</g>
<!-- Node6 -->
<g id="node11" class="node"><title>Node6</title>
<a xlink:href="timedepthconv_8h.html" target="_top" xlink:title="timedepthconv.h">
<polygon fill="white" stroke="black" points="353.5,-58.5 353.5,-79.5 442.5,-79.5 442.5,-58.5 353.5,-58.5"/>
<text text-anchor="middle" x="398" y="-66.5" font-family="Helvetica,sans-Serif" font-size="10.00">timedepthconv.h</text>
</a>
</g>
<!-- Node1&#45;&gt;Node6 -->
<g id="edge10" class="edge"><title>Node1&#45;&gt;Node6</title>
<path fill="none" stroke="midnightblue" d="M316.839,-111.794C336.031,-101.675 360.764,-88.6338 377.856,-79.6212"/>
<polygon fill="midnightblue" stroke="midnightblue" points="315.133,-108.736 307.92,-116.497 318.398,-114.928 315.133,-108.736"/>
</g>
<!-- Node8 -->
<g id="node15" class="node"><title>Node8</title>
<a xlink:href="vishortileresolutiondata_8h.html" target="_top" xlink:title="vishortileresolutiondata.h">
<polygon fill="white" stroke="black" points="459.5,-58.5 459.5,-79.5 584.5,-79.5 584.5,-58.5 459.5,-58.5"/>
<text text-anchor="middle" x="522" y="-66.5" font-family="Helvetica,sans-Serif" font-size="10.00">vishortileresolutiondata.h</text>
</a>
</g>
<!-- Node1&#45;&gt;Node8 -->
<g id="edge14" class="edge"><title>Node1&#45;&gt;Node8</title>
<path fill="none" stroke="midnightblue" d="M340.139,-114.077C382.117,-103.672 440.38,-89.2306 479.545,-79.5231"/>
<polygon fill="midnightblue" stroke="midnightblue" points="339.24,-110.694 330.376,-116.497 340.924,-117.488 339.24,-110.694"/>
</g>
<!-- Node3 -->
<g id="node5" class="node"><title>Node3</title>
<a xlink:href="uivispickretriever_8h.html" target="_top" xlink:title="uivispickretriever.h">
<polygon fill="white" stroke="black" points="0,-0.5 0,-21.5 98,-21.5 98,-0.5 0,-0.5"/>
<text text-anchor="middle" x="49" y="-8.5" font-family="Helvetica,sans-Serif" font-size="10.00">uivispickretriever.h</text>
</a>
</g>
<!-- Node2&#45;&gt;Node3 -->
<g id="edge4" class="edge"><title>Node2&#45;&gt;Node3</title>
<path fill="none" stroke="midnightblue" d="M49,-48.1906C49,-39.1684 49,-28.9941 49,-21.5707"/>
<polygon fill="midnightblue" stroke="midnightblue" points="45.5001,-48.3619 49,-58.3619 52.5001,-48.3619 45.5001,-48.3619"/>
</g>
<!-- Node7 -->
<g id="node13" class="node"><title>Node7</title>
<a xlink:href="uiveldesc_8h.html" target="_top" xlink:title="uiveldesc.h">
<polygon fill="white" stroke="black" points="365,-0.5 365,-21.5 431,-21.5 431,-0.5 365,-0.5"/>
<text text-anchor="middle" x="398" y="-8.5" font-family="Helvetica,sans-Serif" font-size="10.00">uiveldesc.h</text>
</a>
</g>
<!-- Node6&#45;&gt;Node7 -->
<g id="edge12" class="edge"><title>Node6&#45;&gt;Node7</title>
<path fill="none" stroke="midnightblue" d="M398,-48.1906C398,-39.1684 398,-28.9941 398,-21.5707"/>
<polygon fill="midnightblue" stroke="midnightblue" points="394.5,-48.3619 398,-58.3619 401.5,-48.3619 394.5,-48.3619"/>
</g>
</g>
</svg>
