<?xml version="1.0" encoding="UTF-8" standalone="no"?>
<!DOCTYPE svg PUBLIC "-//W3C//DTD SVG 1.1//EN"
 "http://www.w3.org/Graphics/SVG/1.1/DTD/svg11.dtd">
<!-- Generated by graphviz version 2.26.0 (20091210.2329)
 -->
<!-- Title: zdomain.h Pages: 1 -->
<svg width="2504pt" height="320pt"
 viewBox="0.00 0.00 2504.00 320.00" xmlns="http://www.w3.org/2000/svg" xmlns:xlink="http://www.w3.org/1999/xlink">
<g id="graph1" class="graph" transform="scale(1 1) rotate(0) translate(4 316)">
<title>zdomain.h</title>
<polygon fill="white" stroke="white" points="-4,5 -4,-316 2501,-316 2501,5 -4,5"/>
<!-- Node1 -->
<g id="node1" class="node"><title>Node1</title>
<polygon fill="#bfbfbf" stroke="black" points="2120,-290.5 2120,-311.5 2182,-311.5 2182,-290.5 2120,-290.5"/>
<text text-anchor="middle" x="2151" y="-298.5" font-family="Helvetica,sans-Serif" font-size="10.00">zdomain.h</text>
</g>
<!-- Node2 -->
<g id="node3" class="node"><title>Node2</title>
<a xlink:href="survgeom3d_8h.html" target="_top" xlink:title="survgeom3d.h">
<polygon fill="white" stroke="black" points="1993,-232.5 1993,-253.5 2071,-253.5 2071,-232.5 1993,-232.5"/>
<text text-anchor="middle" x="2032" y="-240.5" font-family="Helvetica,sans-Serif" font-size="10.00">survgeom3d.h</text>
</a>
</g>
<!-- Node1&#45;&gt;Node2 -->
<g id="edge2" class="edge"><title>Node1&#45;&gt;Node2</title>
<path fill="none" stroke="midnightblue" d="M2120.37,-286.069C2099.53,-275.912 2072.45,-262.716 2053.79,-253.621"/>
<polygon fill="midnightblue" stroke="midnightblue" points="2118.93,-289.262 2129.45,-290.497 2121.99,-282.969 2118.93,-289.262"/>
</g>
<!-- Node3 -->
<g id="node5" class="node"><title>Node3</title>
<a xlink:href="survinfo_8h.html" target="_top" xlink:title="survinfo.h">
<polygon fill="white" stroke="black" points="1036.5,-174.5 1036.5,-195.5 1095.5,-195.5 1095.5,-174.5 1036.5,-174.5"/>
<text text-anchor="middle" x="1066" y="-182.5" font-family="Helvetica,sans-Serif" font-size="10.00">survinfo.h</text>
</a>
</g>
<!-- Node1&#45;&gt;Node3 -->
<g id="edge100" class="edge"><title>Node1&#45;&gt;Node3</title>
<path fill="none" stroke="midnightblue" d="M2109.86,-296.601C1933.94,-277.794 1247.11,-204.363 1095.66,-188.171"/>
<polygon fill="midnightblue" stroke="midnightblue" points="2109.67,-300.101 2119.99,-297.684 2110.42,-293.141 2109.67,-300.101"/>
</g>
<!-- Node43 -->
<g id="node90" class="node"><title>Node43</title>
<a xlink:href="seisblocks_8h.html" target="_top" xlink:title="seisblocks.h">
<polygon fill="white" stroke="black" points="2209.5,-174.5 2209.5,-195.5 2280.5,-195.5 2280.5,-174.5 2209.5,-174.5"/>
<text text-anchor="middle" x="2245" y="-182.5" font-family="Helvetica,sans-Serif" font-size="10.00">seisblocks.h</text>
</a>
</g>
<!-- Node1&#45;&gt;Node43 -->
<g id="edge102" class="edge"><title>Node1&#45;&gt;Node43</title>
<path fill="none" stroke="midnightblue" d="M2163.44,-281.925C2172.95,-267.755 2186.64,-248.166 2200,-232 2210.79,-218.937 2224.39,-205.046 2233.8,-195.782"/>
<polygon fill="midnightblue" stroke="midnightblue" points="2160.46,-280.094 2157.85,-290.363 2166.29,-283.962 2160.46,-280.094"/>
</g>
<!-- Node46 -->
<g id="node98" class="node"><title>Node46</title>
<a xlink:href="uislicesel_8h.html" target="_top" xlink:title="uislicesel.h">
<polygon fill="white" stroke="black" points="2088.5,-232.5 2088.5,-253.5 2153.5,-253.5 2153.5,-232.5 2088.5,-232.5"/>
<text text-anchor="middle" x="2121" y="-240.5" font-family="Helvetica,sans-Serif" font-size="10.00">uislicesel.h</text>
</a>
</g>
<!-- Node1&#45;&gt;Node46 -->
<g id="edge104" class="edge"><title>Node1&#45;&gt;Node46</title>
<path fill="none" stroke="midnightblue" d="M2140.85,-281.373C2136.04,-272.068 2130.48,-261.32 2126.47,-253.571"/>
<polygon fill="midnightblue" stroke="midnightblue" points="2137.79,-283.088 2145.5,-290.362 2144.01,-279.872 2137.79,-283.088"/>
</g>
<!-- Node48 -->
<g id="node103" class="node"><title>Node48</title>
<a xlink:href="uizrangeinput_8h.html" target="_top" xlink:title="uizrangeinput.h">
<polygon fill="white" stroke="black" points="2208.5,-232.5 2208.5,-253.5 2291.5,-253.5 2291.5,-232.5 2208.5,-232.5"/>
<text text-anchor="middle" x="2250" y="-240.5" font-family="Helvetica,sans-Serif" font-size="10.00">uizrangeinput.h</text>
</a>
</g>
<!-- Node1&#45;&gt;Node48 -->
<g id="edge110" class="edge"><title>Node1&#45;&gt;Node48</title>
<path fill="none" stroke="midnightblue" d="M2178.14,-285.101C2195.27,-275.066 2216.92,-262.381 2231.96,-253.571"/>
<polygon fill="midnightblue" stroke="midnightblue" points="2176.02,-282.287 2169.16,-290.362 2179.56,-288.327 2176.02,-282.287"/>
</g>
<!-- Node49 -->
<g id="node105" class="node"><title>Node49</title>
<a xlink:href="uiflatviewslicepos_8h.html" target="_top" xlink:title="uiflatviewslicepos.h">
<polygon fill="white" stroke="black" points="2309,-232.5 2309,-253.5 2411,-253.5 2411,-232.5 2309,-232.5"/>
<text text-anchor="middle" x="2360" y="-240.5" font-family="Helvetica,sans-Serif" font-size="10.00">uiflatviewslicepos.h</text>
</a>
</g>
<!-- Node1&#45;&gt;Node49 -->
<g id="edge112" class="edge"><title>Node1&#45;&gt;Node49</title>
<path fill="none" stroke="midnightblue" d="M2191.96,-289.633C2229.73,-279.151 2285.35,-263.715 2322.11,-253.514"/>
<polygon fill="midnightblue" stroke="midnightblue" points="2190.99,-286.27 2182.29,-292.317 2192.86,-293.015 2190.99,-286.27"/>
</g>
<!-- Node2&#45;&gt;Node3 -->
<g id="edge4" class="edge"><title>Node2&#45;&gt;Node3</title>
<path fill="none" stroke="midnightblue" d="M1982.85,-240.049C1809.99,-229.67 1232.97,-195.025 1095.56,-186.775"/>
<polygon fill="midnightblue" stroke="midnightblue" points="1982.74,-243.549 1992.94,-240.654 1983.16,-236.561 1982.74,-243.549"/>
</g>
<!-- Node2&#45;&gt;Node43 -->
<g id="edge94" class="edge"><title>Node2&#45;&gt;Node43</title>
<path fill="none" stroke="midnightblue" d="M2080.44,-229.811C2119.6,-219.145 2173.87,-204.37 2209.2,-194.75"/>
<polygon fill="midnightblue" stroke="midnightblue" points="2079.3,-226.492 2070.57,-232.497 2081.14,-233.246 2079.3,-226.492"/>
</g>
<!-- Node4 -->
<g id="node7" class="node"><title>Node4</title>
<a xlink:href="ailayer_8h.html" target="_top" xlink:title="ailayer.h">
<polygon fill="white" stroke="black" points="467.5,-116.5 467.5,-137.5 520.5,-137.5 520.5,-116.5 467.5,-116.5"/>
<text text-anchor="middle" x="494" y="-124.5" font-family="Helvetica,sans-Serif" font-size="10.00">ailayer.h</text>
</a>
</g>
<!-- Node3&#45;&gt;Node4 -->
<g id="edge6" class="edge"><title>Node3&#45;&gt;Node4</title>
<path fill="none" stroke="midnightblue" d="M1026.5,-180.994C917.188,-169.911 612.729,-139.039 520.691,-129.706"/>
<polygon fill="midnightblue" stroke="midnightblue" points="1026.15,-184.477 1036.45,-182.004 1026.86,-177.513 1026.15,-184.477"/>
</g>
<!-- Node5 -->
<g id="node9" class="node"><title>Node5</title>
<a xlink:href="raytrace1d_8h.html" target="_top" xlink:title="raytrace1d.h">
<polygon fill="white" stroke="black" points="3.5,-58.5 3.5,-79.5 74.5,-79.5 74.5,-58.5 3.5,-58.5"/>
<text text-anchor="middle" x="39" y="-66.5" font-family="Helvetica,sans-Serif" font-size="10.00">raytrace1d.h</text>
</a>
</g>
<!-- Node3&#45;&gt;Node5 -->
<g id="edge30" class="edge"><title>Node3&#45;&gt;Node5</title>
<path fill="none" stroke="midnightblue" d="M1026.06,-184.216C908.522,-181.544 565.453,-171.051 459,-138 440.362,-132.214 439.552,-122.054 421,-116 277.383,-69.1305 231.75,-106.384 83,-80 80.364,-79.5325 77.652,-78.9951 74.9308,-78.4146"/>
<polygon fill="midnightblue" stroke="midnightblue" points="1026.32,-187.722 1036.39,-184.443 1026.47,-180.724 1026.32,-187.722"/>
</g>
<!-- Node14 -->
<g id="node30" class="node"><title>Node14</title>
<a xlink:href="unitofmeasure_8h.html" target="_top" xlink:title="unitofmeasure.h">
<polygon fill="white" stroke="black" points="770,-116.5 770,-137.5 856,-137.5 856,-116.5 770,-116.5"/>
<text text-anchor="middle" x="813" y="-124.5" font-family="Helvetica,sans-Serif" font-size="10.00">unitofmeasure.h</text>
</a>
</g>
<!-- Node3&#45;&gt;Node14 -->
<g id="edge32" class="edge"><title>Node3&#45;&gt;Node14</title>
<path fill="none" stroke="midnightblue" d="M1026.54,-175.954C980.332,-165.361 904.046,-147.872 856.26,-136.917"/>
<polygon fill="midnightblue" stroke="midnightblue" points="1025.95,-179.41 1036.48,-178.233 1027.52,-172.587 1025.95,-179.41"/>
</g>
<!-- Node16 -->
<g id="node35" class="node"><title>Node16</title>
<a xlink:href="welldisp_8h.html" target="_top" xlink:title="welldisp.h">
<polygon fill="white" stroke="black" points="1036,-116.5 1036,-137.5 1096,-137.5 1096,-116.5 1036,-116.5"/>
<text text-anchor="middle" x="1066" y="-124.5" font-family="Helvetica,sans-Serif" font-size="10.00">welldisp.h</text>
</a>
</g>
<!-- Node3&#45;&gt;Node16 -->
<g id="edge38" class="edge"><title>Node3&#45;&gt;Node16</title>
<path fill="none" stroke="midnightblue" d="M1066,-164.191C1066,-155.168 1066,-144.994 1066,-137.571"/>
<polygon fill="midnightblue" stroke="midnightblue" points="1062.5,-164.362 1066,-174.362 1069.5,-164.362 1062.5,-164.362"/>
</g>
<!-- Node18 -->
<g id="node39" class="node"><title>Node18</title>
<a xlink:href="uiwelldahdisplay_8h.html" target="_top" xlink:title="uiwelldahdisplay.h">
<polygon fill="white" stroke="black" points="858,-58.5 858,-79.5 954,-79.5 954,-58.5 858,-58.5"/>
<text text-anchor="middle" x="906" y="-66.5" font-family="Helvetica,sans-Serif" font-size="10.00">uiwelldahdisplay.h</text>
</a>
</g>
<!-- Node3&#45;&gt;Node18 -->
<g id="edge88" class="edge"><title>Node3&#45;&gt;Node18</title>
<path fill="none" stroke="midnightblue" d="M1042.99,-168.316C1009.6,-144.112 948.682,-99.9446 920.73,-79.6792"/>
<polygon fill="midnightblue" stroke="midnightblue" points="1041.08,-171.259 1051.23,-174.295 1045.19,-165.592 1041.08,-171.259"/>
</g>
<!-- Node23 -->
<g id="node49" class="node"><title>Node23</title>
<a xlink:href="wellextractdata_8h.html" target="_top" xlink:title="wellextractdata.h">
<polygon fill="white" stroke="black" points="1323.5,-116.5 1323.5,-137.5 1414.5,-137.5 1414.5,-116.5 1323.5,-116.5"/>
<text text-anchor="middle" x="1369" y="-124.5" font-family="Helvetica,sans-Serif" font-size="10.00">wellextractdata.h</text>
</a>
</g>
<!-- Node3&#45;&gt;Node23 -->
<g id="edge52" class="edge"><title>Node3&#45;&gt;Node23</title>
<path fill="none" stroke="midnightblue" d="M1105.52,-177.435C1161.61,-166.698 1264.09,-147.082 1323.35,-135.738"/>
<polygon fill="midnightblue" stroke="midnightblue" points="1104.77,-174.015 1095.6,-179.333 1106.08,-180.891 1104.77,-174.015"/>
</g>
<!-- Node27 -->
<g id="node57" class="node"><title>Node27</title>
<a xlink:href="segyfiledef_8h.html" target="_top" xlink:title="segyfiledef.h">
<polygon fill="white" stroke="black" points="1590,-116.5 1590,-137.5 1662,-137.5 1662,-116.5 1590,-116.5"/>
<text text-anchor="middle" x="1626" y="-124.5" font-family="Helvetica,sans-Serif" font-size="10.00">segyfiledef.h</text>
</a>
</g>
<!-- Node3&#45;&gt;Node27 -->
<g id="edge60" class="edge"><title>Node3&#45;&gt;Node27</title>
<path fill="none" stroke="midnightblue" d="M1105.82,-180.875C1210.13,-170.073 1490.11,-141.074 1589.99,-130.73"/>
<polygon fill="midnightblue" stroke="midnightblue" points="1105.3,-177.411 1095.71,-181.923 1106.02,-184.374 1105.3,-177.411"/>
</g>
<!-- Node30 -->
<g id="node63" class="node"><title>Node30</title>
<a xlink:href="uiamplspectrum_8h.html" target="_top" xlink:title="uiamplspectrum.h">
<polygon fill="white" stroke="black" points="1729,-116.5 1729,-137.5 1823,-137.5 1823,-116.5 1729,-116.5"/>
<text text-anchor="middle" x="1776" y="-124.5" font-family="Helvetica,sans-Serif" font-size="10.00">uiamplspectrum.h</text>
</a>
</g>
<!-- Node3&#45;&gt;Node30 -->
<g id="edge66" class="edge"><title>Node3&#45;&gt;Node30</title>
<path fill="none" stroke="midnightblue" d="M1105.82,-182.278C1202.66,-175.578 1458.13,-157.415 1671,-138 1689.98,-136.269 1710.87,-134.129 1728.98,-132.198"/>
<polygon fill="midnightblue" stroke="midnightblue" points="1105.35,-178.802 1095.61,-182.983 1105.83,-185.786 1105.35,-178.802"/>
</g>
<!-- Node32 -->
<g id="node67" class="node"><title>Node32</title>
<a xlink:href="uicoordsystem_8h.html" target="_top" xlink:title="uicoordsystem.h">
<polygon fill="white" stroke="black" points="1961.5,-116.5 1961.5,-137.5 2050.5,-137.5 2050.5,-116.5 1961.5,-116.5"/>
<text text-anchor="middle" x="2006" y="-124.5" font-family="Helvetica,sans-Serif" font-size="10.00">uicoordsystem.h</text>
</a>
</g>
<!-- Node3&#45;&gt;Node32 -->
<g id="edge70" class="edge"><title>Node3&#45;&gt;Node32</title>
<path fill="none" stroke="midnightblue" d="M1105.86,-182.58C1219.37,-175.684 1554.06,-155.312 1832,-138 1875.96,-135.262 1926.15,-132.083 1961.3,-129.849"/>
<polygon fill="midnightblue" stroke="midnightblue" points="1105.35,-179.105 1095.58,-183.205 1105.77,-186.092 1105.35,-179.105"/>
</g>
<!-- Node39 -->
<g id="node81" class="node"><title>Node39</title>
<a xlink:href="uifkspectrum_8h.html" target="_top" xlink:title="uifkspectrum.h">
<polygon fill="white" stroke="black" points="157.5,-116.5 157.5,-137.5 238.5,-137.5 238.5,-116.5 157.5,-116.5"/>
<text text-anchor="middle" x="198" y="-124.5" font-family="Helvetica,sans-Serif" font-size="10.00">uifkspectrum.h</text>
</a>
</g>
<!-- Node3&#45;&gt;Node39 -->
<g id="edge84" class="edge"><title>Node3&#45;&gt;Node39</title>
<path fill="none" stroke="midnightblue" d="M1026.04,-183.574C883.483,-178.352 400.255,-159.453 247,-138 244.237,-137.613 241.399,-137.151 238.548,-136.639"/>
<polygon fill="midnightblue" stroke="midnightblue" points="1025.97,-187.074 1036.09,-183.94 1026.22,-180.078 1025.97,-187.074"/>
</g>
<!-- Node40 -->
<g id="node83" class="node"><title>Node40</title>
<a xlink:href="uifreqtaper_8h.html" target="_top" xlink:title="uifreqtaper.h">
<polygon fill="white" stroke="black" points="255.5,-116.5 255.5,-137.5 326.5,-137.5 326.5,-116.5 255.5,-116.5"/>
<text text-anchor="middle" x="291" y="-124.5" font-family="Helvetica,sans-Serif" font-size="10.00">uifreqtaper.h</text>
</a>
</g>
<!-- Node3&#45;&gt;Node40 -->
<g id="edge86" class="edge"><title>Node3&#45;&gt;Node40</title>
<path fill="none" stroke="midnightblue" d="M1026.02,-183.384C893.591,-177.881 470.035,-159.043 335,-138 332.355,-137.588 329.636,-137.091 326.91,-136.539"/>
<polygon fill="midnightblue" stroke="midnightblue" points="1025.99,-186.886 1036.13,-183.801 1026.28,-179.892 1025.99,-186.886"/>
</g>
<!-- Node41 -->
<g id="node86" class="node"><title>Node41</title>
<a xlink:href="vissurvobj_8h.html" target="_top" xlink:title="vissurvobj.h">
<polygon fill="white" stroke="red" points="343.5,-116.5 343.5,-137.5 412.5,-137.5 412.5,-116.5 343.5,-116.5"/>
<text text-anchor="middle" x="378" y="-124.5" font-family="Helvetica,sans-Serif" font-size="10.00">vissurvobj.h</text>
</a>
</g>
<!-- Node3&#45;&gt;Node41 -->
<g id="edge90" class="edge"><title>Node3&#45;&gt;Node41</title>
<path fill="none" stroke="midnightblue" d="M1026.45,-184.183C925.729,-181.65 651.58,-171.93 426,-138 421.688,-137.351 417.19,-136.525 412.749,-135.617"/>
<polygon fill="midnightblue" stroke="midnightblue" points="1026.4,-187.682 1036.48,-184.425 1026.57,-180.685 1026.4,-187.682"/>
</g>
<!-- Node42 -->
<g id="node88" class="node"><title>Node42</title>
<a xlink:href="uiodviewer2dposgrp_8h.html" target="_top" xlink:title="uiodviewer2dposgrp.h">
<polygon fill="white" stroke="red" points="2067.5,-116.5 2067.5,-137.5 2178.5,-137.5 2178.5,-116.5 2067.5,-116.5"/>
<text text-anchor="middle" x="2123" y="-124.5" font-family="Helvetica,sans-Serif" font-size="10.00">uiodviewer2dposgrp.h</text>
</a>
</g>
<!-- Node3&#45;&gt;Node42 -->
<g id="edge92" class="edge"><title>Node3&#45;&gt;Node42</title>
<path fill="none" stroke="midnightblue" d="M1106.14,-183.76C1267.54,-178.673 1869.48,-158.693 2059,-138 2061.69,-137.706 2064.44,-137.371 2067.21,-137.004"/>
<polygon fill="midnightblue" stroke="midnightblue" points="1105.61,-180.275 1095.73,-184.087 1105.83,-187.272 1105.61,-180.275"/>
</g>
<!-- Node4&#45;&gt;Node5 -->
<g id="edge8" class="edge"><title>Node4&#45;&gt;Node5</title>
<path fill="none" stroke="midnightblue" d="M457.329,-116.653C456.209,-116.421 455.098,-116.203 454,-116 291.089,-85.926 246.251,-108.167 83,-80 80.3618,-79.5448 77.6483,-79.0165 74.926,-78.4425"/>
<polygon fill="midnightblue" stroke="midnightblue" points="456.934,-120.154 467.467,-119.02 458.525,-113.338 456.934,-120.154"/>
</g>
<!-- Node6 -->
<g id="node11" class="node"><title>Node6</title>
<a xlink:href="raytracerrunner_8h.html" target="_top" xlink:title="raytracerrunner.h">
<polygon fill="white" stroke="black" points="136,-0.5 136,-21.5 226,-21.5 226,-0.5 136,-0.5"/>
<text text-anchor="middle" x="181" y="-8.5" font-family="Helvetica,sans-Serif" font-size="10.00">raytracerrunner.h</text>
</a>
</g>
<!-- Node4&#45;&gt;Node6 -->
<g id="edge14" class="edge"><title>Node4&#45;&gt;Node6</title>
<path fill="none" stroke="midnightblue" d="M457.303,-116.78C456.191,-116.511 455.088,-116.251 454,-116 368.969,-96.4143 339.644,-117.801 261,-80 231.079,-65.6182 203.477,-37.0806 189.872,-21.5937"/>
<polygon fill="midnightblue" stroke="midnightblue" points="456.845,-120.275 467.399,-119.35 458.572,-113.491 456.845,-120.275"/>
</g>
<!-- Node8 -->
<g id="node16" class="node"><title>Node8</title>
<a xlink:href="stratlayersequence_8h.html" target="_top" xlink:title="stratlayersequence.h">
<polygon fill="white" stroke="red" points="279.5,-58.5 279.5,-79.5 386.5,-79.5 386.5,-58.5 279.5,-58.5"/>
<text text-anchor="middle" x="333" y="-66.5" font-family="Helvetica,sans-Serif" font-size="10.00">stratlayersequence.h</text>
</a>
</g>
<!-- Node4&#45;&gt;Node8 -->
<g id="edge16" class="edge"><title>Node4&#45;&gt;Node8</title>
<path fill="none" stroke="midnightblue" d="M457.723,-113.931C428.924,-103.556 389.175,-89.2368 362.354,-79.5749"/>
<polygon fill="midnightblue" stroke="midnightblue" points="456.82,-117.326 467.414,-117.422 459.192,-110.74 456.82,-117.326"/>
</g>
<!-- Node9 -->
<g id="node18" class="node"><title>Node9</title>
<a xlink:href="wellelasticmodelcomputer_8h.html" target="_top" xlink:title="wellelasticmodelcomputer.h">
<polygon fill="white" stroke="black" points="631.5,-58.5 631.5,-79.5 768.5,-79.5 768.5,-58.5 631.5,-58.5"/>
<text text-anchor="middle" x="700" y="-66.5" font-family="Helvetica,sans-Serif" font-size="10.00">wellelasticmodelcomputer.h</text>
</a>
</g>
<!-- Node4&#45;&gt;Node9 -->
<g id="edge18" class="edge"><title>Node4&#45;&gt;Node9</title>
<path fill="none" stroke="midnightblue" d="M530.413,-116.748C567.542,-106.294 624.877,-90.1512 662.422,-79.5801"/>
<polygon fill="midnightblue" stroke="midnightblue" points="529.186,-113.457 520.509,-119.536 531.084,-120.195 529.186,-113.457"/>
</g>
<!-- Node10 -->
<g id="node20" class="node"><title>Node10</title>
<a xlink:href="synthseis_8h.html" target="_top" xlink:title="synthseis.h">
<polygon fill="white" stroke="black" points="403.5,-58.5 403.5,-79.5 470.5,-79.5 470.5,-58.5 403.5,-58.5"/>
<text text-anchor="middle" x="437" y="-66.5" font-family="Helvetica,sans-Serif" font-size="10.00">synthseis.h</text>
</a>
</g>
<!-- Node4&#45;&gt;Node10 -->
<g id="edge20" class="edge"><title>Node4&#45;&gt;Node10</title>
<path fill="none" stroke="midnightblue" d="M476.426,-109.118C466.913,-99.4377 455.486,-87.8098 447.388,-79.5707"/>
<polygon fill="midnightblue" stroke="midnightblue" points="474.04,-111.683 483.545,-116.362 479.032,-106.776 474.04,-111.683"/>
</g>
<!-- Node11 -->
<g id="node22" class="node"><title>Node11</title>
<a xlink:href="stratsynth_8h.html" target="_top" xlink:title="stratsynth.h">
<polygon fill="white" stroke="black" points="251,-0.5 251,-21.5 319,-21.5 319,-0.5 251,-0.5"/>
<text text-anchor="middle" x="285" y="-8.5" font-family="Helvetica,sans-Serif" font-size="10.00">stratsynth.h</text>
</a>
</g>
<!-- Node4&#45;&gt;Node11 -->
<g id="edge26" class="edge"><title>Node4&#45;&gt;Node11</title>
<path fill="none" stroke="midnightblue" d="M457.299,-116.794C456.188,-116.521 455.087,-116.256 454,-116 373.315,-96.9973 323.654,-144.021 271,-80 257.18,-63.1959 269.347,-36.4013 278.044,-21.6333"/>
<polygon fill="midnightblue" stroke="midnightblue" points="456.834,-120.288 467.39,-119.387 458.576,-113.508 456.834,-120.288"/>
</g>
<!-- Node12 -->
<g id="node24" class="node"><title>Node12</title>
<a xlink:href="prestackanglecomputer_8h.html" target="_top" xlink:title="prestackanglecomputer.h">
<polygon fill="white" stroke="black" points="488,-58.5 488,-79.5 614,-79.5 614,-58.5 488,-58.5"/>
<text text-anchor="middle" x="551" y="-66.5" font-family="Helvetica,sans-Serif" font-size="10.00">prestackanglecomputer.h</text>
</a>
</g>
<!-- Node4&#45;&gt;Node12 -->
<g id="edge24" class="edge"><title>Node4&#45;&gt;Node12</title>
<path fill="none" stroke="midnightblue" d="M511.574,-109.118C521.087,-99.4377 532.514,-87.8098 540.612,-79.5707"/>
<polygon fill="midnightblue" stroke="midnightblue" points="508.968,-106.776 504.455,-116.362 513.96,-111.683 508.968,-106.776"/>
</g>
<!-- Node13 -->
<g id="node27" class="node"><title>Node13</title>
<a xlink:href="welltietoseismic_8h.html" target="_top" xlink:title="welltietoseismic.h">
<polygon fill="white" stroke="black" points="91.5,-58.5 91.5,-79.5 186.5,-79.5 186.5,-58.5 91.5,-58.5"/>
<text text-anchor="middle" x="139" y="-66.5" font-family="Helvetica,sans-Serif" font-size="10.00">welltietoseismic.h</text>
</a>
</g>
<!-- Node4&#45;&gt;Node13 -->
<g id="edge28" class="edge"><title>Node4&#45;&gt;Node13</title>
<path fill="none" stroke="midnightblue" d="M457.316,-116.717C456.2,-116.466 455.093,-116.227 454,-116 342.361,-92.8367 312.568,-98.1203 200,-80 195.644,-79.2988 191.119,-78.5401 186.59,-77.7602"/>
<polygon fill="midnightblue" stroke="midnightblue" points="456.89,-120.215 467.435,-119.186 458.55,-113.415 456.89,-120.215"/>
</g>
<!-- Node5&#45;&gt;Node6 -->
<g id="edge10" class="edge"><title>Node5&#45;&gt;Node6</title>
<path fill="none" stroke="midnightblue" d="M74.2176,-54.6153C99.2547,-44.3889 132.329,-30.8796 154.996,-21.6212"/>
<polygon fill="midnightblue" stroke="midnightblue" points="72.6492,-51.4752 64.7151,-58.4966 75.2961,-57.9555 72.6492,-51.4752"/>
</g>
<!-- Node7 -->
<g id="node13" class="node"><title>Node7</title>
<a xlink:href="uiraytrace1d_8h.html" target="_top" xlink:title="uiraytrace1d.h">
<polygon fill="white" stroke="red" points="0,-0.5 0,-21.5 78,-21.5 78,-0.5 0,-0.5"/>
<text text-anchor="middle" x="39" y="-8.5" font-family="Helvetica,sans-Serif" font-size="10.00">uiraytrace1d.h</text>
</a>
</g>
<!-- Node5&#45;&gt;Node7 -->
<g id="edge12" class="edge"><title>Node5&#45;&gt;Node7</title>
<path fill="none" stroke="midnightblue" d="M39,-48.1906C39,-39.1684 39,-28.9941 39,-21.5707"/>
<polygon fill="midnightblue" stroke="midnightblue" points="35.5001,-48.3619 39,-58.3619 42.5001,-48.3619 35.5001,-48.3619"/>
</g>
<!-- Node10&#45;&gt;Node11 -->
<g id="edge22" class="edge"><title>Node10&#45;&gt;Node11</title>
<path fill="none" stroke="midnightblue" d="M399.981,-54.8742C373.008,-44.5819 337.052,-30.862 312.578,-21.5231"/>
<polygon fill="midnightblue" stroke="midnightblue" points="398.883,-58.2015 409.474,-58.4966 401.379,-51.6615 398.883,-58.2015"/>
</g>
<!-- Node14&#45;&gt;Node9 -->
<g id="edge34" class="edge"><title>Node14&#45;&gt;Node9</title>
<path fill="none" stroke="midnightblue" d="M783.375,-111.794C763.659,-101.675 738.252,-88.6338 720.693,-79.6212"/>
<polygon fill="midnightblue" stroke="midnightblue" points="782.042,-115.044 792.537,-116.497 785.238,-108.816 782.042,-115.044"/>
</g>
<!-- Node15 -->
<g id="node33" class="node"><title>Node15</title>
<a xlink:href="welllog_8h.html" target="_top" xlink:title="welllog.h">
<polygon fill="white" stroke="black" points="785.5,-58.5 785.5,-79.5 840.5,-79.5 840.5,-58.5 785.5,-58.5"/>
<text text-anchor="middle" x="813" y="-66.5" font-family="Helvetica,sans-Serif" font-size="10.00">welllog.h</text>
</a>
</g>
<!-- Node14&#45;&gt;Node15 -->
<g id="edge36" class="edge"><title>Node14&#45;&gt;Node15</title>
<path fill="none" stroke="midnightblue" d="M813,-106.191C813,-97.1684 813,-86.9941 813,-79.5707"/>
<polygon fill="midnightblue" stroke="midnightblue" points="809.5,-106.362 813,-116.362 816.5,-106.362 809.5,-106.362"/>
</g>
<!-- Node17 -->
<g id="node37" class="node"><title>Node17</title>
<a xlink:href="welltiedata_8h.html" target="_top" xlink:title="welltiedata.h">
<polygon fill="white" stroke="red" points="971.5,-58.5 971.5,-79.5 1042.5,-79.5 1042.5,-58.5 971.5,-58.5"/>
<text text-anchor="middle" x="1007" y="-66.5" font-family="Helvetica,sans-Serif" font-size="10.00">welltiedata.h</text>
</a>
</g>
<!-- Node16&#45;&gt;Node17 -->
<g id="edge40" class="edge"><title>Node16&#45;&gt;Node17</title>
<path fill="none" stroke="midnightblue" d="M1047.81,-109.118C1037.96,-99.4377 1026.13,-87.8098 1017.75,-79.5707"/>
<polygon fill="midnightblue" stroke="midnightblue" points="1045.59,-111.847 1055.18,-116.362 1050.5,-106.856 1045.59,-111.847"/>
</g>
<!-- Node16&#45;&gt;Node18 -->
<g id="edge42" class="edge"><title>Node16&#45;&gt;Node18</title>
<path fill="none" stroke="midnightblue" d="M1027.41,-113.009C998.972,-102.702 960.905,-88.903 935.029,-79.5231"/>
<polygon fill="midnightblue" stroke="midnightblue" points="1026.43,-116.379 1037.03,-116.497 1028.82,-109.798 1026.43,-116.379"/>
</g>
<!-- Node21 -->
<g id="node45" class="node"><title>Node21</title>
<a xlink:href="uiwelldisplay_8h.html" target="_top" xlink:title="uiwelldisplay.h">
<polygon fill="white" stroke="black" points="1060,-58.5 1060,-79.5 1140,-79.5 1140,-58.5 1060,-58.5"/>
<text text-anchor="middle" x="1100" y="-66.5" font-family="Helvetica,sans-Serif" font-size="10.00">uiwelldisplay.h</text>
</a>
</g>
<!-- Node16&#45;&gt;Node21 -->
<g id="edge48" class="edge"><title>Node16&#45;&gt;Node21</title>
<path fill="none" stroke="midnightblue" d="M1077.33,-107.667C1082.83,-98.2948 1089.21,-87.4019 1093.8,-79.5707"/>
<polygon fill="midnightblue" stroke="midnightblue" points="1074.27,-105.965 1072.24,-116.362 1080.31,-109.505 1074.27,-105.965"/>
</g>
<!-- Node22 -->
<g id="node47" class="node"><title>Node22</title>
<a xlink:href="uiwelldispprop_8h.html" target="_top" xlink:title="uiwelldispprop.h">
<polygon fill="white" stroke="black" points="1158,-58.5 1158,-79.5 1244,-79.5 1244,-58.5 1158,-58.5"/>
<text text-anchor="middle" x="1201" y="-66.5" font-family="Helvetica,sans-Serif" font-size="10.00">uiwelldispprop.h</text>
</a>
</g>
<!-- Node16&#45;&gt;Node22 -->
<g id="edge50" class="edge"><title>Node16&#45;&gt;Node22</title>
<path fill="none" stroke="midnightblue" d="M1099.8,-112.479C1123.56,-102.269 1154.82,-88.8386 1176.28,-79.6212"/>
<polygon fill="midnightblue" stroke="midnightblue" points="1098.25,-109.333 1090.45,-116.497 1101.02,-115.765 1098.25,-109.333"/>
</g>
<!-- Node19 -->
<g id="node41" class="node"><title>Node19</title>
<a xlink:href="uiwelllogdisplay_8h.html" target="_top" xlink:title="uiwelllogdisplay.h">
<polygon fill="white" stroke="black" points="802.5,-0.5 802.5,-21.5 895.5,-21.5 895.5,-0.5 802.5,-0.5"/>
<text text-anchor="middle" x="849" y="-8.5" font-family="Helvetica,sans-Serif" font-size="10.00">uiwelllogdisplay.h</text>
</a>
</g>
<!-- Node18&#45;&gt;Node19 -->
<g id="edge44" class="edge"><title>Node18&#45;&gt;Node19</title>
<path fill="none" stroke="midnightblue" d="M888.426,-51.118C878.913,-41.4377 867.486,-29.8098 859.388,-21.5707"/>
<polygon fill="midnightblue" stroke="midnightblue" points="886.04,-53.6829 895.545,-58.3619 891.032,-48.7763 886.04,-53.6829"/>
</g>
<!-- Node20 -->
<g id="node43" class="node"><title>Node20</title>
<a xlink:href="uiwellstratdisplay_8h.html" target="_top" xlink:title="uiwellstratdisplay.h">
<polygon fill="white" stroke="black" points="913,-0.5 913,-21.5 1013,-21.5 1013,-0.5 913,-0.5"/>
<text text-anchor="middle" x="963" y="-8.5" font-family="Helvetica,sans-Serif" font-size="10.00">uiwellstratdisplay.h</text>
</a>
</g>
<!-- Node18&#45;&gt;Node20 -->
<g id="edge46" class="edge"><title>Node18&#45;&gt;Node20</title>
<path fill="none" stroke="midnightblue" d="M923.574,-51.118C933.087,-41.4377 944.514,-29.8098 952.612,-21.5707"/>
<polygon fill="midnightblue" stroke="midnightblue" points="920.968,-48.7763 916.455,-58.3619 925.96,-53.6829 920.968,-48.7763"/>
</g>
<!-- Node24 -->
<g id="node51" class="node"><title>Node24</title>
<a xlink:href="wellloginterpolator_8h.html" target="_top" xlink:title="wellloginterpolator.h">
<polygon fill="white" stroke="red" points="1261.5,-58.5 1261.5,-79.5 1364.5,-79.5 1364.5,-58.5 1261.5,-58.5"/>
<text text-anchor="middle" x="1313" y="-66.5" font-family="Helvetica,sans-Serif" font-size="10.00">wellloginterpolator.h</text>
</a>
</g>
<!-- Node23&#45;&gt;Node24 -->
<g id="edge54" class="edge"><title>Node23&#45;&gt;Node24</title>
<path fill="none" stroke="midnightblue" d="M1351.73,-109.118C1342.39,-99.4377 1331.16,-87.8098 1323.21,-79.5707"/>
<polygon fill="midnightblue" stroke="midnightblue" points="1349.26,-111.599 1358.73,-116.362 1354.3,-106.737 1349.26,-111.599"/>
</g>
<!-- Node25 -->
<g id="node53" class="node"><title>Node25</title>
<a xlink:href="createlogcube_8h.html" target="_top" xlink:title="createlogcube.h">
<polygon fill="white" stroke="black" points="1382,-58.5 1382,-79.5 1468,-79.5 1468,-58.5 1382,-58.5"/>
<text text-anchor="middle" x="1425" y="-66.5" font-family="Helvetica,sans-Serif" font-size="10.00">createlogcube.h</text>
</a>
</g>
<!-- Node23&#45;&gt;Node25 -->
<g id="edge56" class="edge"><title>Node23&#45;&gt;Node25</title>
<path fill="none" stroke="midnightblue" d="M1386.27,-109.118C1395.61,-99.4377 1406.84,-87.8098 1414.79,-79.5707"/>
<polygon fill="midnightblue" stroke="midnightblue" points="1383.7,-106.737 1379.27,-116.362 1388.74,-111.599 1383.7,-106.737"/>
</g>
<!-- Node26 -->
<g id="node55" class="node"><title>Node26</title>
<a xlink:href="uimultiwelllogsel_8h.html" target="_top" xlink:title="uimultiwelllogsel.h">
<polygon fill="white" stroke="black" points="1486,-58.5 1486,-79.5 1582,-79.5 1582,-58.5 1486,-58.5"/>
<text text-anchor="middle" x="1534" y="-66.5" font-family="Helvetica,sans-Serif" font-size="10.00">uimultiwelllogsel.h</text>
</a>
</g>
<!-- Node23&#45;&gt;Node26 -->
<g id="edge58" class="edge"><title>Node23&#45;&gt;Node26</title>
<path fill="none" stroke="midnightblue" d="M1408.42,-113.144C1437.78,-102.823 1477.26,-88.9439 1504.06,-79.5231"/>
<polygon fill="midnightblue" stroke="midnightblue" points="1407.15,-109.878 1398.88,-116.497 1409.48,-116.482 1407.15,-109.878"/>
</g>
<!-- Node28 -->
<g id="node59" class="node"><title>Node28</title>
<a xlink:href="segyscanner_8h.html" target="_top" xlink:title="segyscanner.h">
<polygon fill="white" stroke="black" points="1670,-58.5 1670,-79.5 1750,-79.5 1750,-58.5 1670,-58.5"/>
<text text-anchor="middle" x="1710" y="-66.5" font-family="Helvetica,sans-Serif" font-size="10.00">segyscanner.h</text>
</a>
</g>
<!-- Node27&#45;&gt;Node28 -->
<g id="edge62" class="edge"><title>Node27&#45;&gt;Node28</title>
<path fill="none" stroke="midnightblue" d="M1649.84,-110.541C1664.24,-100.597 1682.17,-88.2177 1694.69,-79.5707"/>
<polygon fill="midnightblue" stroke="midnightblue" points="1647.65,-107.8 1641.41,-116.362 1651.62,-113.56 1647.65,-107.8"/>
</g>
<!-- Node29 -->
<g id="node61" class="node"><title>Node29</title>
<a xlink:href="segytr_8h.html" target="_top" xlink:title="segytr.h">
<polygon fill="white" stroke="black" points="1600,-58.5 1600,-79.5 1652,-79.5 1652,-58.5 1600,-58.5"/>
<text text-anchor="middle" x="1626" y="-66.5" font-family="Helvetica,sans-Serif" font-size="10.00">segytr.h</text>
</a>
</g>
<!-- Node27&#45;&gt;Node29 -->
<g id="edge64" class="edge"><title>Node27&#45;&gt;Node29</title>
<path fill="none" stroke="midnightblue" d="M1626,-106.191C1626,-97.1684 1626,-86.9941 1626,-79.5707"/>
<polygon fill="midnightblue" stroke="midnightblue" points="1622.5,-106.362 1626,-116.362 1629.5,-106.362 1622.5,-106.362"/>
</g>
<!-- Node31 -->
<g id="node65" class="node"><title>Node31</title>
<a xlink:href="uiseisamplspectrum_8h.html" target="_top" xlink:title="uiseisamplspectrum.h">
<polygon fill="white" stroke="black" points="1768,-58.5 1768,-79.5 1880,-79.5 1880,-58.5 1768,-58.5"/>
<text text-anchor="middle" x="1824" y="-66.5" font-family="Helvetica,sans-Serif" font-size="10.00">uiseisamplspectrum.h</text>
</a>
</g>
<!-- Node30&#45;&gt;Node31 -->
<g id="edge68" class="edge"><title>Node30&#45;&gt;Node31</title>
<path fill="none" stroke="midnightblue" d="M1791.28,-108.541C1799.19,-98.9786 1808.57,-87.6467 1815.25,-79.5707"/>
<polygon fill="midnightblue" stroke="midnightblue" points="1788.48,-106.426 1784.8,-116.362 1793.88,-110.889 1788.48,-106.426"/>
</g>
<!-- Node33 -->
<g id="node69" class="node"><title>Node33</title>
<a xlink:href="uiimppickset_8h.html" target="_top" xlink:title="uiimppickset.h">
<polygon fill="white" stroke="black" points="2022,-58.5 2022,-79.5 2102,-79.5 2102,-58.5 2022,-58.5"/>
<text text-anchor="middle" x="2062" y="-66.5" font-family="Helvetica,sans-Serif" font-size="10.00">uiimppickset.h</text>
</a>
</g>
<!-- Node32&#45;&gt;Node33 -->
<g id="edge72" class="edge"><title>Node32&#45;&gt;Node33</title>
<path fill="none" stroke="midnightblue" d="M2023.27,-109.118C2032.61,-99.4377 2043.84,-87.8098 2051.79,-79.5707"/>
<polygon fill="midnightblue" stroke="midnightblue" points="2020.7,-106.737 2016.27,-116.362 2025.74,-111.599 2020.7,-106.737"/>
</g>
<!-- Node34 -->
<g id="node71" class="node"><title>Node34</title>
<a xlink:href="uilatlong2coord_8h.html" target="_top" xlink:title="uilatlong2coord.h">
<polygon fill="white" stroke="black" points="2120,-58.5 2120,-79.5 2210,-79.5 2210,-58.5 2120,-58.5"/>
<text text-anchor="middle" x="2165" y="-66.5" font-family="Helvetica,sans-Serif" font-size="10.00">uilatlong2coord.h</text>
</a>
</g>
<!-- Node32&#45;&gt;Node34 -->
<g id="edge74" class="edge"><title>Node32&#45;&gt;Node34</title>
<path fill="none" stroke="midnightblue" d="M2044.35,-113.009C2072.61,-102.702 2110.44,-88.903 2136.15,-79.5231"/>
<polygon fill="midnightblue" stroke="midnightblue" points="2042.99,-109.782 2034.79,-116.497 2045.39,-116.358 2042.99,-109.782"/>
</g>
<!-- Node35 -->
<g id="node73" class="node"><title>Node35</title>
<a xlink:href="uiseisiosimple_8h.html" target="_top" xlink:title="uiseisiosimple.h">
<polygon fill="white" stroke="black" points="2228,-58.5 2228,-79.5 2314,-79.5 2314,-58.5 2228,-58.5"/>
<text text-anchor="middle" x="2271" y="-66.5" font-family="Helvetica,sans-Serif" font-size="10.00">uiseisiosimple.h</text>
</a>
</g>
<!-- Node32&#45;&gt;Node35 -->
<g id="edge76" class="edge"><title>Node32&#45;&gt;Node35</title>
<path fill="none" stroke="midnightblue" d="M2060.56,-115.058C2110.14,-104.208 2182.29,-88.4149 2227.92,-78.4282"/>
<polygon fill="midnightblue" stroke="midnightblue" points="2059.67,-111.669 2050.65,-117.227 2061.17,-118.508 2059.67,-111.669"/>
</g>
<!-- Node36 -->
<g id="node75" class="node"><title>Node36</title>
<a xlink:href="uiexpfault_8h.html" target="_top" xlink:title="uiexpfault.h">
<polygon fill="white" stroke="black" points="2331.5,-58.5 2331.5,-79.5 2398.5,-79.5 2398.5,-58.5 2331.5,-58.5"/>
<text text-anchor="middle" x="2365" y="-66.5" font-family="Helvetica,sans-Serif" font-size="10.00">uiexpfault.h</text>
</a>
</g>
<!-- Node32&#45;&gt;Node36 -->
<g id="edge78" class="edge"><title>Node32&#45;&gt;Node36</title>
<path fill="none" stroke="midnightblue" d="M2060.82,-115.777C2177.48,-96.3207 2210.02,-102.413 2323,-80 2325.66,-79.472 2328.41,-78.8749 2331.16,-78.2387"/>
<polygon fill="midnightblue" stroke="midnightblue" points="2060.05,-112.357 2050.78,-117.48 2061.22,-119.259 2060.05,-112.357"/>
</g>
<!-- Node37 -->
<g id="node77" class="node"><title>Node37</title>
<a xlink:href="uiexphorizon_8h.html" target="_top" xlink:title="uiexphorizon.h">
<polygon fill="white" stroke="black" points="2416,-58.5 2416,-79.5 2496,-79.5 2496,-58.5 2416,-58.5"/>
<text text-anchor="middle" x="2456" y="-66.5" font-family="Helvetica,sans-Serif" font-size="10.00">uiexphorizon.h</text>
</a>
</g>
<!-- Node32&#45;&gt;Node37 -->
<g id="edge80" class="edge"><title>Node32&#45;&gt;Node37</title>
<path fill="none" stroke="midnightblue" d="M2061.03,-115.804C2214.46,-92.7069 2256.84,-104.534 2407,-80 2409.93,-79.522 2412.94,-78.9769 2415.96,-78.3911"/>
<polygon fill="midnightblue" stroke="midnightblue" points="2060.12,-112.403 2050.76,-117.377 2061.18,-119.323 2060.12,-112.403"/>
</g>
<!-- Node38 -->
<g id="node79" class="node"><title>Node38</title>
<a xlink:href="uiprestackexpmute_8h.html" target="_top" xlink:title="uiprestackexpmute.h">
<polygon fill="white" stroke="black" points="1897.5,-58.5 1897.5,-79.5 2004.5,-79.5 2004.5,-58.5 1897.5,-58.5"/>
<text text-anchor="middle" x="1951" y="-66.5" font-family="Helvetica,sans-Serif" font-size="10.00">uiprestackexpmute.h</text>
</a>
</g>
<!-- Node32&#45;&gt;Node38 -->
<g id="edge82" class="edge"><title>Node32&#45;&gt;Node38</title>
<path fill="none" stroke="midnightblue" d="M1988.77,-108.83C1979.65,-99.2078 1968.76,-87.7282 1961.02,-79.5707"/>
<polygon fill="midnightblue" stroke="midnightblue" points="1986.49,-111.514 1995.91,-116.362 1991.57,-106.697 1986.49,-111.514"/>
</g>
<!-- Node44 -->
<g id="node92" class="node"><title>Node44</title>
<a xlink:href="seisblocksreader_8h.html" target="_top" xlink:title="seisblocksreader.h">
<polygon fill="white" stroke="black" points="2196,-116.5 2196,-137.5 2294,-137.5 2294,-116.5 2196,-116.5"/>
<text text-anchor="middle" x="2245" y="-124.5" font-family="Helvetica,sans-Serif" font-size="10.00">seisblocksreader.h</text>
</a>
</g>
<!-- Node43&#45;&gt;Node44 -->
<g id="edge96" class="edge"><title>Node43&#45;&gt;Node44</title>
<path fill="none" stroke="midnightblue" d="M2245,-164.191C2245,-155.168 2245,-144.994 2245,-137.571"/>
<polygon fill="midnightblue" stroke="midnightblue" points="2241.5,-164.362 2245,-174.362 2248.5,-164.362 2241.5,-164.362"/>
</g>
<!-- Node45 -->
<g id="node94" class="node"><title>Node45</title>
<a xlink:href="seismemblocks_8h.html" target="_top" xlink:title="seismemblocks.h">
<polygon fill="white" stroke="black" points="2311.5,-116.5 2311.5,-137.5 2404.5,-137.5 2404.5,-116.5 2311.5,-116.5"/>
<text text-anchor="middle" x="2358" y="-124.5" font-family="Helvetica,sans-Serif" font-size="10.00">seismemblocks.h</text>
</a>
</g>
<!-- Node43&#45;&gt;Node45 -->
<g id="edge98" class="edge"><title>Node43&#45;&gt;Node45</title>
<path fill="none" stroke="midnightblue" d="M2274.63,-169.794C2294.34,-159.675 2319.75,-146.634 2337.31,-137.621"/>
<polygon fill="midnightblue" stroke="midnightblue" points="2272.76,-166.816 2265.46,-174.497 2275.96,-173.044 2272.76,-166.816"/>
</g>
<!-- Node46&#45;&gt;Node42 -->
<g id="edge108" class="edge"><title>Node46&#45;&gt;Node42</title>
<path fill="none" stroke="midnightblue" d="M2096.66,-225.986C2080.87,-212.685 2064.66,-193.276 2073,-174 2079.62,-158.691 2093.95,-146.07 2105.58,-137.775"/>
<polygon fill="midnightblue" stroke="midnightblue" points="2094.72,-228.917 2104.75,-232.352 2099.05,-223.416 2094.72,-228.917"/>
</g>
<!-- Node47 -->
<g id="node100" class="node"><title>Node47</title>
<a xlink:href="uipsviewer2dposdlg_8h.html" target="_top" xlink:title="uipsviewer2dposdlg.h">
<polygon fill="white" stroke="red" points="2082,-174.5 2082,-195.5 2192,-195.5 2192,-174.5 2082,-174.5"/>
<text text-anchor="middle" x="2137" y="-182.5" font-family="Helvetica,sans-Serif" font-size="10.00">uipsviewer2dposdlg.h</text>
</a>
</g>
<!-- Node46&#45;&gt;Node47 -->
<g id="edge106" class="edge"><title>Node46&#45;&gt;Node47</title>
<path fill="none" stroke="midnightblue" d="M2126.66,-222.488C2129.17,-213.392 2132.01,-203.076 2134.08,-195.571"/>
<polygon fill="midnightblue" stroke="midnightblue" points="2123.22,-221.791 2123.93,-232.362 2129.97,-223.653 2123.22,-221.791"/>
</g>
<!-- Node50 -->
<g id="node107" class="node"><title>Node50</title>
<a xlink:href="uistratsynthdisp_8h.html" target="_top" xlink:title="uistratsynthdisp.h">
<polygon fill="white" stroke="black" points="2313,-174.5 2313,-195.5 2407,-195.5 2407,-174.5 2313,-174.5"/>
<text text-anchor="middle" x="2360" y="-182.5" font-family="Helvetica,sans-Serif" font-size="10.00">uistratsynthdisp.h</text>
</a>
</g>
<!-- Node49&#45;&gt;Node50 -->
<g id="edge114" class="edge"><title>Node49&#45;&gt;Node50</title>
<path fill="none" stroke="midnightblue" d="M2360,-222.191C2360,-213.168 2360,-202.994 2360,-195.571"/>
<polygon fill="midnightblue" stroke="midnightblue" points="2356.5,-222.362 2360,-232.362 2363.5,-222.362 2356.5,-222.362"/>
</g>
</g>
</svg>
