<?xml version="1.0" encoding="UTF-8" standalone="no"?>
<!DOCTYPE svg PUBLIC "-//W3C//DTD SVG 1.1//EN"
 "http://www.w3.org/Graphics/SVG/1.1/DTD/svg11.dtd">
<!-- Generated by graphviz version 2.26.0 (20091210.2329)
 -->
<!-- Title: ziparchiveinfo.h Pages: 1 -->
<svg width="618pt" height="610pt"
 viewBox="0.00 0.00 618.00 610.00" xmlns="http://www.w3.org/2000/svg" xmlns:xlink="http://www.w3.org/1999/xlink">
<g id="graph1" class="graph" transform="scale(1 1) rotate(0) translate(4 606)">
<title>ziparchiveinfo.h</title>
<polygon fill="white" stroke="white" points="-4,5 -4,-606 615,-606 615,5 -4,5"/>
<!-- Node1 -->
<g id="node1" class="node"><title>Node1</title>
<polygon fill="#bfbfbf" stroke="black" points="152.5,-580.5 152.5,-601.5 237.5,-601.5 237.5,-580.5 152.5,-580.5"/>
<text text-anchor="middle" x="195" y="-588.5" font-family="Helvetica,sans-Serif" font-size="10.00">ziparchiveinfo.h</text>
</g>
<!-- Node2 -->
<g id="node3" class="node"><title>Node2</title>
<polygon fill="white" stroke="#bfbfbf" points="70.5,-522.5 70.5,-543.5 145.5,-543.5 145.5,-522.5 70.5,-522.5"/>
<text text-anchor="middle" x="108" y="-530.5" font-family="Helvetica,sans-Serif" font-size="10.00">generalmod.h</text>
</g>
<!-- Node1&#45;&gt;Node2 -->
<g id="edge2" class="edge"><title>Node1&#45;&gt;Node2</title>
<path fill="none" stroke="midnightblue" d="M179.043,-580.362C166.043,-571.696 147.469,-559.313 132.573,-549.382"/>
<polygon fill="midnightblue" stroke="midnightblue" points="134.118,-546.206 123.856,-543.571 130.235,-552.03 134.118,-546.206"/>
</g>
<!-- Node3 -->
<g id="node5" class="node"><title>Node3</title>
<a xlink:href="objectset_8h.html" target="_top" xlink:title="objectset.h">
<polygon fill="white" stroke="black" points="162.5,-522.5 162.5,-543.5 227.5,-543.5 227.5,-522.5 162.5,-522.5"/>
<text text-anchor="middle" x="195" y="-530.5" font-family="Helvetica,sans-Serif" font-size="10.00">objectset.h</text>
</a>
</g>
<!-- Node1&#45;&gt;Node3 -->
<g id="edge4" class="edge"><title>Node1&#45;&gt;Node3</title>
<path fill="none" stroke="midnightblue" d="M195,-580.362C195,-572.922 195,-562.743 195,-553.728"/>
<polygon fill="midnightblue" stroke="midnightblue" points="198.5,-553.571 195,-543.571 191.5,-553.571 198.5,-553.571"/>
</g>
<!-- Node19 -->
<g id="node43" class="node"><title>Node19</title>
<a xlink:href="bufstring_8h.html" target="_top" xlink:title="bufstring.h">
<polygon fill="white" stroke="black" points="346,-348.5 346,-369.5 408,-369.5 408,-348.5 346,-348.5"/>
<text text-anchor="middle" x="377" y="-356.5" font-family="Helvetica,sans-Serif" font-size="10.00">bufstring.h</text>
</a>
</g>
<!-- Node1&#45;&gt;Node19 -->
<g id="edge82" class="edge"><title>Node1&#45;&gt;Node19</title>
<path fill="none" stroke="midnightblue" d="M207.693,-580.359C236.124,-555.972 305.732,-493.107 348,-428 357.811,-412.888 365.501,-393.904 370.49,-379.676"/>
<polygon fill="midnightblue" stroke="midnightblue" points="373.919,-380.46 373.769,-369.866 367.28,-378.241 373.919,-380.46"/>
</g>
<!-- Node4 -->
<g id="node7" class="node"><title>Node4</title>
<a xlink:href="odset_8h.html" target="_top" xlink:title="odset.h">
<polygon fill="white" stroke="black" points="-0.5,-348.5 -0.5,-369.5 48.5,-369.5 48.5,-348.5 -0.5,-348.5"/>
<text text-anchor="middle" x="24" y="-356.5" font-family="Helvetica,sans-Serif" font-size="10.00">odset.h</text>
</a>
</g>
<!-- Node3&#45;&gt;Node4 -->
<g id="edge6" class="edge"><title>Node3&#45;&gt;Node4</title>
<path fill="none" stroke="midnightblue" d="M177.214,-522.275C149.812,-505.08 96.8038,-469.074 62,-428 49.479,-413.223 39.1817,-393.678 32.4798,-379.164"/>
<polygon fill="midnightblue" stroke="midnightblue" points="35.5045,-377.35 28.2549,-369.624 29.104,-380.184 35.5045,-377.35"/>
</g>
<!-- Node17 -->
<g id="node37" class="node"><title>Node17</title>
<a xlink:href="vectoraccess_8h.html" target="_top" xlink:title="vectoraccess.h">
<polygon fill="white" stroke="black" points="153.5,-464.5 153.5,-485.5 236.5,-485.5 236.5,-464.5 153.5,-464.5"/>
<text text-anchor="middle" x="195" y="-472.5" font-family="Helvetica,sans-Serif" font-size="10.00">vectoraccess.h</text>
</a>
</g>
<!-- Node3&#45;&gt;Node17 -->
<g id="edge40" class="edge"><title>Node3&#45;&gt;Node17</title>
<path fill="none" stroke="midnightblue" d="M195,-522.362C195,-514.922 195,-504.743 195,-495.728"/>
<polygon fill="midnightblue" stroke="midnightblue" points="198.5,-495.571 195,-485.571 191.5,-495.571 198.5,-495.571"/>
</g>
<!-- Node5 -->
<g id="node9" class="node"><title>Node5</title>
<a xlink:href="gendefs_8h.html" target="_top" xlink:title="gendefs.h">
<polygon fill="white" stroke="black" points="165.5,-174.5 165.5,-195.5 224.5,-195.5 224.5,-174.5 165.5,-174.5"/>
<text text-anchor="middle" x="195" y="-182.5" font-family="Helvetica,sans-Serif" font-size="10.00">gendefs.h</text>
</a>
</g>
<!-- Node4&#45;&gt;Node5 -->
<g id="edge8" class="edge"><title>Node4&#45;&gt;Node5</title>
<path fill="none" stroke="midnightblue" d="M34.4394,-348.377C62.7534,-319.567 141.265,-239.678 176.941,-203.376"/>
<polygon fill="midnightblue" stroke="midnightblue" points="179.748,-205.513 184.261,-195.928 174.755,-200.607 179.748,-205.513"/>
</g>
<!-- Node6 -->
<g id="node11" class="node"><title>Node6</title>
<a xlink:href="undefval_8h.html" target="_top" xlink:title="undefval.h">
<polygon fill="white" stroke="black" points="204,-116.5 204,-137.5 266,-137.5 266,-116.5 204,-116.5"/>
<text text-anchor="middle" x="235" y="-124.5" font-family="Helvetica,sans-Serif" font-size="10.00">undefval.h</text>
</a>
</g>
<!-- Node5&#45;&gt;Node6 -->
<g id="edge10" class="edge"><title>Node5&#45;&gt;Node6</title>
<path fill="none" stroke="midnightblue" d="M202.337,-174.362C207.806,-166.431 215.422,-155.389 221.924,-145.961"/>
<polygon fill="midnightblue" stroke="midnightblue" points="224.914,-147.79 227.71,-137.571 219.151,-143.816 224.914,-147.79"/>
</g>
<!-- Node14 -->
<g id="node29" class="node"><title>Node14</title>
<a xlink:href="commontypes_8h.html" target="_top" xlink:title="commontypes.h">
<polygon fill="white" stroke="black" points="100,-116.5 100,-137.5 186,-137.5 186,-116.5 100,-116.5"/>
<text text-anchor="middle" x="143" y="-124.5" font-family="Helvetica,sans-Serif" font-size="10.00">commontypes.h</text>
</a>
</g>
<!-- Node5&#45;&gt;Node14 -->
<g id="edge30" class="edge"><title>Node5&#45;&gt;Node14</title>
<path fill="none" stroke="midnightblue" d="M185.462,-174.362C178.132,-166.186 167.837,-154.702 159.219,-145.091"/>
<polygon fill="midnightblue" stroke="midnightblue" points="161.759,-142.68 152.477,-137.571 156.547,-147.353 161.759,-142.68"/>
</g>
<!-- Node15 -->
<g id="node32" class="node"><title>Node15</title>
<a xlink:href="errmsg_8h.html" target="_top" xlink:title="errmsg.h">
<polygon fill="white" stroke="black" points="27.5,-116.5 27.5,-137.5 82.5,-137.5 82.5,-116.5 27.5,-116.5"/>
<text text-anchor="middle" x="55" y="-124.5" font-family="Helvetica,sans-Serif" font-size="10.00">errmsg.h</text>
</a>
</g>
<!-- Node5&#45;&gt;Node15 -->
<g id="edge34" class="edge"><title>Node5&#45;&gt;Node15</title>
<path fill="none" stroke="midnightblue" d="M169.647,-174.497C147.387,-165.275 114.788,-151.769 90.0369,-141.515"/>
<polygon fill="midnightblue" stroke="midnightblue" points="91.2156,-138.215 80.6374,-137.621 88.5364,-144.682 91.2156,-138.215"/>
</g>
<!-- Node7 -->
<g id="node13" class="node"><title>Node7</title>
<polygon fill="white" stroke="#bfbfbf" points="462.5,-0.5 462.5,-21.5 529.5,-21.5 529.5,-0.5 462.5,-0.5"/>
<text text-anchor="middle" x="496" y="-8.5" font-family="Helvetica,sans-Serif" font-size="10.00">basicmod.h</text>
</g>
<!-- Node6&#45;&gt;Node7 -->
<g id="edge12" class="edge"><title>Node6&#45;&gt;Node7</title>
<path fill="none" stroke="midnightblue" d="M242.607,-116.322C254.11,-100.995 277.427,-72.9592 304,-58 350.629,-31.7499 411.686,-20.0406 452.295,-14.8973"/>
<polygon fill="midnightblue" stroke="midnightblue" points="452.894,-18.3509 462.413,-13.6982 452.07,-11.3996 452.894,-18.3509"/>
</g>
<!-- Node8 -->
<g id="node15" class="node"><title>Node8</title>
<a xlink:href="commondefs_8h.html" target="_top" xlink:title="commondefs.h">
<polygon fill="white" stroke="black" points="95.5,-58.5 95.5,-79.5 176.5,-79.5 176.5,-58.5 95.5,-58.5"/>
<text text-anchor="middle" x="136" y="-66.5" font-family="Helvetica,sans-Serif" font-size="10.00">commondefs.h</text>
</a>
</g>
<!-- Node6&#45;&gt;Node8 -->
<g id="edge14" class="edge"><title>Node6&#45;&gt;Node8</title>
<path fill="none" stroke="midnightblue" d="M216.842,-116.362C201.77,-107.532 180.113,-94.844 163.007,-84.8224"/>
<polygon fill="midnightblue" stroke="midnightblue" points="164.441,-81.6058 154.043,-79.5707 160.902,-87.6456 164.441,-81.6058"/>
</g>
<!-- Node12 -->
<g id="node24" class="node"><title>Node12</title>
<a xlink:href="plftypes_8h.html" target="_top" xlink:title="plftypes.h">
<polygon fill="white" stroke="black" points="193.5,-58.5 193.5,-79.5 252.5,-79.5 252.5,-58.5 193.5,-58.5"/>
<text text-anchor="middle" x="223" y="-66.5" font-family="Helvetica,sans-Serif" font-size="10.00">plftypes.h</text>
</a>
</g>
<!-- Node6&#45;&gt;Node12 -->
<g id="edge24" class="edge"><title>Node6&#45;&gt;Node12</title>
<path fill="none" stroke="midnightblue" d="M232.799,-116.362C231.243,-108.84 229.107,-98.5187 227.227,-89.4308"/>
<polygon fill="midnightblue" stroke="midnightblue" points="230.641,-88.6541 225.187,-79.5707 223.786,-90.0724 230.641,-88.6541"/>
</g>
<!-- Node8&#45;&gt;Node7 -->
<g id="edge16" class="edge"><title>Node8&#45;&gt;Node7</title>
<path fill="none" stroke="midnightblue" d="M176.596,-59.654C179.436,-59.072 182.258,-58.5143 185,-58 279.875,-40.2049 392.014,-24.5751 452.337,-16.6052"/>
<polygon fill="midnightblue" stroke="midnightblue" points="452.814,-20.0728 462.273,-15.3 451.902,-13.1324 452.814,-20.0728"/>
</g>
<!-- Node9 -->
<g id="node18" class="node"><title>Node9</title>
<a xlink:href="plfdefs_8h.html" target="_top" xlink:title="plfdefs.h">
<polygon fill="white" stroke="black" points="149,-0.5 149,-21.5 203,-21.5 203,-0.5 149,-0.5"/>
<text text-anchor="middle" x="176" y="-8.5" font-family="Helvetica,sans-Serif" font-size="10.00">plfdefs.h</text>
</a>
</g>
<!-- Node8&#45;&gt;Node9 -->
<g id="edge18" class="edge"><title>Node8&#45;&gt;Node9</title>
<path fill="none" stroke="midnightblue" d="M143.337,-58.3619C148.806,-50.4313 156.422,-39.3885 162.924,-29.9606"/>
<polygon fill="midnightblue" stroke="midnightblue" points="165.914,-31.7899 168.71,-21.5707 160.151,-27.8157 165.914,-31.7899"/>
</g>
<!-- Node10 -->
<g id="node20" class="node"><title>Node10</title>
<polygon fill="white" stroke="#bfbfbf" points="6.5,-0.5 6.5,-21.5 65.5,-21.5 65.5,-0.5 6.5,-0.5"/>
<text text-anchor="middle" x="36" y="-8.5" font-family="Helvetica,sans-Serif" font-size="10.00">stdexcept</text>
</g>
<!-- Node8&#45;&gt;Node10 -->
<g id="edge20" class="edge"><title>Node8&#45;&gt;Node10</title>
<path fill="none" stroke="midnightblue" d="M117.658,-58.3619C102.434,-49.532 80.5585,-36.844 63.28,-26.8224"/>
<polygon fill="midnightblue" stroke="midnightblue" points="64.6316,-23.5603 54.2253,-21.5707 61.1196,-29.6155 64.6316,-23.5603"/>
</g>
<!-- Node11 -->
<g id="node22" class="node"><title>Node11</title>
<polygon fill="white" stroke="#bfbfbf" points="96.5,-0.5 96.5,-21.5 131.5,-21.5 131.5,-0.5 96.5,-0.5"/>
<text text-anchor="middle" x="114" y="-8.5" font-family="Helvetica,sans-Serif" font-size="10.00">new</text>
</g>
<!-- Node8&#45;&gt;Node11 -->
<g id="edge22" class="edge"><title>Node8&#45;&gt;Node11</title>
<path fill="none" stroke="midnightblue" d="M131.965,-58.3619C129.081,-50.7584 125.112,-40.294 121.637,-31.1349"/>
<polygon fill="midnightblue" stroke="midnightblue" points="124.829,-29.6793 118.01,-21.5707 118.284,-32.1619 124.829,-29.6793"/>
</g>
<!-- Node12&#45;&gt;Node9 -->
<g id="edge26" class="edge"><title>Node12&#45;&gt;Node9</title>
<path fill="none" stroke="midnightblue" d="M214.379,-58.3619C207.82,-50.2678 198.634,-38.9318 190.894,-29.3796"/>
<polygon fill="midnightblue" stroke="midnightblue" points="193.581,-27.1364 184.566,-21.5707 188.142,-31.5436 193.581,-27.1364"/>
</g>
<!-- Node13 -->
<g id="node27" class="node"><title>Node13</title>
<polygon fill="white" stroke="#bfbfbf" points="220.5,-0.5 220.5,-21.5 269.5,-21.5 269.5,-0.5 220.5,-0.5"/>
<text text-anchor="middle" x="245" y="-8.5" font-family="Helvetica,sans-Serif" font-size="10.00">stdint.h</text>
</g>
<!-- Node12&#45;&gt;Node13 -->
<g id="edge28" class="edge"><title>Node12&#45;&gt;Node13</title>
<path fill="none" stroke="midnightblue" d="M227.035,-58.3619C229.919,-50.7584 233.888,-40.294 237.363,-31.1349"/>
<polygon fill="midnightblue" stroke="midnightblue" points="240.716,-32.1619 240.99,-21.5707 234.171,-29.6793 240.716,-32.1619"/>
</g>
<!-- Node14&#45;&gt;Node8 -->
<g id="edge32" class="edge"><title>Node14&#45;&gt;Node8</title>
<path fill="none" stroke="midnightblue" d="M141.716,-116.362C140.818,-108.922 139.59,-98.7427 138.502,-89.7276"/>
<polygon fill="midnightblue" stroke="midnightblue" points="141.949,-89.0792 137.276,-79.5707 134.999,-89.918 141.949,-89.0792"/>
</g>
<!-- Node15&#45;&gt;Node8 -->
<g id="edge36" class="edge"><title>Node15&#45;&gt;Node8</title>
<path fill="none" stroke="midnightblue" d="M69.8566,-116.362C81.8455,-107.777 98.9273,-95.5459 112.728,-85.6636"/>
<polygon fill="midnightblue" stroke="midnightblue" points="115.145,-88.2383 121.238,-79.5707 111.069,-82.5469 115.145,-88.2383"/>
</g>
<!-- Node16 -->
<g id="node35" class="node"><title>Node16</title>
<polygon fill="white" stroke="#bfbfbf" points="27.5,-58.5 27.5,-79.5 78.5,-79.5 78.5,-58.5 27.5,-58.5"/>
<text text-anchor="middle" x="53" y="-66.5" font-family="Helvetica,sans-Serif" font-size="10.00">typeinfo</text>
</g>
<!-- Node15&#45;&gt;Node16 -->
<g id="edge38" class="edge"><title>Node15&#45;&gt;Node16</title>
<path fill="none" stroke="midnightblue" d="M54.6332,-116.362C54.3766,-108.922 54.0256,-98.7427 53.7147,-89.7276"/>
<polygon fill="midnightblue" stroke="midnightblue" points="57.2071,-89.4441 53.3645,-79.5707 50.2113,-89.6854 57.2071,-89.4441"/>
</g>
<!-- Node17&#45;&gt;Node5 -->
<g id="edge74" class="edge"><title>Node17&#45;&gt;Node5</title>
<path fill="none" stroke="midnightblue" d="M195,-464.444C195,-444.062 195,-397.868 195,-359 195,-359 195,-359 195,-301 195,-267.598 195,-228.785 195,-205.594"/>
<polygon fill="midnightblue" stroke="midnightblue" points="198.5,-205.556 195,-195.556 191.5,-205.556 198.5,-205.556"/>
</g>
<!-- Node17&#45;&gt;Node10 -->
<g id="edge80" class="edge"><title>Node17&#45;&gt;Node10</title>
<path fill="none" stroke="midnightblue" d="M160.791,-464.381C141.4,-456.874 117.91,-445.073 102,-428 82.0372,-406.577 1.77636e-15,-214.282 0,-185 0,-185 0,-185 0,-127 0,-91.8911 15.2283,-53.3823 25.8762,-30.7474"/>
<polygon fill="midnightblue" stroke="midnightblue" points="29.1323,-32.0556 30.375,-21.5339 22.8421,-28.9842 29.1323,-32.0556"/>
</g>
<!-- Node18 -->
<g id="node39" class="node"><title>Node18</title>
<a xlink:href="debug_8h.html" target="_top" xlink:title="debug.h">
<polygon fill="white" stroke="black" points="288.5,-406.5 288.5,-427.5 339.5,-427.5 339.5,-406.5 288.5,-406.5"/>
<text text-anchor="middle" x="314" y="-414.5" font-family="Helvetica,sans-Serif" font-size="10.00">debug.h</text>
</a>
</g>
<!-- Node17&#45;&gt;Node18 -->
<g id="edge42" class="edge"><title>Node17&#45;&gt;Node18</title>
<path fill="none" stroke="midnightblue" d="M216.55,-464.497C235.136,-455.438 262.202,-442.246 283.095,-432.063"/>
<polygon fill="midnightblue" stroke="midnightblue" points="284.753,-435.149 292.208,-427.621 281.686,-428.856 284.753,-435.149"/>
</g>
<!-- Node25 -->
<g id="node63" class="node"><title>Node25</title>
<polygon fill="white" stroke="#bfbfbf" points="111,-406.5 111,-427.5 167,-427.5 167,-406.5 111,-406.5"/>
<text text-anchor="middle" x="139" y="-414.5" font-family="Helvetica,sans-Serif" font-size="10.00">algorithm</text>
</g>
<!-- Node17&#45;&gt;Node25 -->
<g id="edge76" class="edge"><title>Node17&#45;&gt;Node25</title>
<path fill="none" stroke="midnightblue" d="M184.729,-464.362C176.756,-456.104 165.525,-444.472 156.189,-434.803"/>
<polygon fill="midnightblue" stroke="midnightblue" points="158.67,-432.334 149.206,-427.571 153.634,-437.196 158.67,-432.334"/>
</g>
<!-- Node26 -->
<g id="node65" class="node"><title>Node26</title>
<polygon fill="white" stroke="#bfbfbf" points="223,-406.5 223,-427.5 267,-427.5 267,-406.5 223,-406.5"/>
<text text-anchor="middle" x="245" y="-414.5" font-family="Helvetica,sans-Serif" font-size="10.00">vector</text>
</g>
<!-- Node17&#45;&gt;Node26 -->
<g id="edge78" class="edge"><title>Node17&#45;&gt;Node26</title>
<path fill="none" stroke="midnightblue" d="M204.171,-464.362C211.148,-456.268 220.921,-444.932 229.156,-435.38"/>
<polygon fill="midnightblue" stroke="midnightblue" points="232.009,-437.43 235.887,-427.571 226.707,-432.859 232.009,-437.43"/>
</g>
<!-- Node18&#45;&gt;Node5 -->
<g id="edge46" class="edge"><title>Node18&#45;&gt;Node5</title>
<path fill="none" stroke="midnightblue" d="M308.578,-406.429C290.07,-370.346 229.204,-251.683 205.028,-204.55"/>
<polygon fill="midnightblue" stroke="midnightblue" points="208.132,-202.934 200.454,-195.634 201.904,-206.129 208.132,-202.934"/>
</g>
<!-- Node18&#45;&gt;Node7 -->
<g id="edge44" class="edge"><title>Node18&#45;&gt;Node7</title>
<path fill="none" stroke="midnightblue" d="M314.608,-406.448C315.727,-386.073 318,-339.891 318,-301 318,-301 318,-301 318,-127 318,-95.1919 314.72,-80.7011 337,-58 353.112,-41.5834 411.078,-27.3462 452.359,-18.9656"/>
<polygon fill="midnightblue" stroke="midnightblue" points="453.069,-22.393 462.197,-17.0141 451.707,-15.5268 453.069,-22.393"/>
</g>
<!-- Node18&#45;&gt;Node19 -->
<g id="edge48" class="edge"><title>Node18&#45;&gt;Node19</title>
<path fill="none" stroke="midnightblue" d="M325.555,-406.362C334.613,-398.023 347.41,-386.242 357.974,-376.516"/>
<polygon fill="midnightblue" stroke="midnightblue" points="360.532,-378.919 365.518,-369.571 355.79,-373.769 360.532,-378.919"/>
</g>
<!-- Node19&#45;&gt;Node7 -->
<g id="edge50" class="edge"><title>Node19&#45;&gt;Node7</title>
<path fill="none" stroke="midnightblue" d="M408.423,-357.541C472.022,-352.725 610,-332.019 610,-243 610,-243 610,-243 610,-127 610,-80.0264 561.859,-45.1175 528.144,-26.4297"/>
<polygon fill="midnightblue" stroke="midnightblue" points="529.541,-23.2078 519.07,-21.5923 526.248,-29.385 529.541,-23.2078"/>
</g>
<!-- Node20 -->
<g id="node46" class="node"><title>Node20</title>
<a xlink:href="fixedstring_8h.html" target="_top" xlink:title="fixedstring.h">
<polygon fill="white" stroke="black" points="442,-290.5 442,-311.5 512,-311.5 512,-290.5 442,-290.5"/>
<text text-anchor="middle" x="477" y="-298.5" font-family="Helvetica,sans-Serif" font-size="10.00">fixedstring.h</text>
</a>
</g>
<!-- Node19&#45;&gt;Node20 -->
<g id="edge52" class="edge"><title>Node19&#45;&gt;Node20</title>
<path fill="none" stroke="midnightblue" d="M395.342,-348.362C410.566,-339.532 432.441,-326.844 449.72,-316.822"/>
<polygon fill="midnightblue" stroke="midnightblue" points="451.88,-319.615 458.775,-311.571 448.368,-313.56 451.88,-319.615"/>
</g>
<!-- Node22 -->
<g id="node53" class="node"><title>Node22</title>
<a xlink:href="string2_8h.html" target="_top" xlink:title="string2.h">
<polygon fill="white" stroke="black" points="348,-116.5 348,-137.5 402,-137.5 402,-116.5 348,-116.5"/>
<text text-anchor="middle" x="375" y="-124.5" font-family="Helvetica,sans-Serif" font-size="10.00">string2.h</text>
</a>
</g>
<!-- Node19&#45;&gt;Node22 -->
<g id="edge62" class="edge"><title>Node19&#45;&gt;Node22</title>
<path fill="none" stroke="midnightblue" d="M376.909,-348.429C376.6,-312.648 375.592,-195.663 375.179,-147.748"/>
<polygon fill="midnightblue" stroke="midnightblue" points="378.678,-147.603 375.092,-137.634 371.678,-147.663 378.678,-147.603"/>
</g>
<!-- Node20&#45;&gt;Node7 -->
<g id="edge54" class="edge"><title>Node20&#45;&gt;Node7</title>
<path fill="none" stroke="midnightblue" d="M494.869,-290.294C522.388,-272.291 572,-233.157 572,-185 572,-185 572,-185 572,-127 572,-86.5104 539.203,-49.1585 516.698,-28.2949"/>
<polygon fill="midnightblue" stroke="midnightblue" points="519.026,-25.681 509.238,-21.6247 514.36,-30.8993 519.026,-25.681"/>
</g>
<!-- Node21 -->
<g id="node49" class="node"><title>Node21</title>
<a xlink:href="odstring_8h.html" target="_top" xlink:title="odstring.h">
<polygon fill="white" stroke="black" points="447.5,-232.5 447.5,-253.5 506.5,-253.5 506.5,-232.5 447.5,-232.5"/>
<text text-anchor="middle" x="477" y="-240.5" font-family="Helvetica,sans-Serif" font-size="10.00">odstring.h</text>
</a>
</g>
<!-- Node20&#45;&gt;Node21 -->
<g id="edge56" class="edge"><title>Node20&#45;&gt;Node21</title>
<path fill="none" stroke="midnightblue" d="M477,-290.362C477,-282.922 477,-272.743 477,-263.728"/>
<polygon fill="midnightblue" stroke="midnightblue" points="480.5,-263.571 477,-253.571 473.5,-263.571 480.5,-263.571"/>
</g>
<!-- Node21&#45;&gt;Node5 -->
<g id="edge60" class="edge"><title>Node21&#45;&gt;Node5</title>
<path fill="none" stroke="midnightblue" d="M447.354,-236.903C396.367,-226.416 292.044,-204.959 234.791,-193.184"/>
<polygon fill="midnightblue" stroke="midnightblue" points="235.172,-189.689 224.672,-191.103 233.762,-196.546 235.172,-189.689"/>
</g>
<!-- Node21&#45;&gt;Node7 -->
<g id="edge58" class="edge"><title>Node21&#45;&gt;Node7</title>
<path fill="none" stroke="midnightblue" d="M478.675,-232.358C482.664,-206.401 492.646,-137.738 496,-80 496.933,-63.9301 496.887,-45.7194 496.632,-32.0429"/>
<polygon fill="midnightblue" stroke="midnightblue" points="500.125,-31.681 496.386,-21.7677 493.127,-31.8487 500.125,-31.681"/>
</g>
<!-- Node22&#45;&gt;Node7 -->
<g id="edge64" class="edge"><title>Node22&#45;&gt;Node7</title>
<path fill="none" stroke="midnightblue" d="M402.328,-121.218C425.457,-114.927 457.82,-102.594 477,-80 488.406,-66.5642 493.005,-46.8343 494.839,-31.9098"/>
<polygon fill="midnightblue" stroke="midnightblue" points="498.355,-31.8921 495.77,-21.6176 491.383,-31.2619 498.355,-31.8921"/>
</g>
<!-- Node22&#45;&gt;Node8 -->
<g id="edge68" class="edge"><title>Node22&#45;&gt;Node8</title>
<path fill="none" stroke="midnightblue" d="M347.584,-120.347C308.353,-110.826 235.526,-93.1528 186.413,-81.2342"/>
<polygon fill="midnightblue" stroke="midnightblue" points="187.163,-77.8145 176.619,-78.8574 185.512,-84.6171 187.163,-77.8145"/>
</g>
<!-- Node22&#45;&gt;Node12 -->
<g id="edge66" class="edge"><title>Node22&#45;&gt;Node12</title>
<path fill="none" stroke="midnightblue" d="M347.825,-116.631C323.413,-107.315 287.344,-93.5523 260.248,-83.213"/>
<polygon fill="midnightblue" stroke="midnightblue" points="261.3,-79.8684 250.709,-79.5733 258.804,-86.4084 261.3,-79.8684"/>
</g>
<!-- Node23 -->
<g id="node58" class="node"><title>Node23</title>
<polygon fill="white" stroke="#bfbfbf" points="419.5,-58.5 419.5,-79.5 468.5,-79.5 468.5,-58.5 419.5,-58.5"/>
<text text-anchor="middle" x="444" y="-66.5" font-family="Helvetica,sans-Serif" font-size="10.00">ctype.h</text>
</g>
<!-- Node22&#45;&gt;Node23 -->
<g id="edge70" class="edge"><title>Node22&#45;&gt;Node23</title>
<path fill="none" stroke="midnightblue" d="M387.656,-116.362C397.674,-107.941 411.867,-96.0105 423.501,-86.2308"/>
<polygon fill="midnightblue" stroke="midnightblue" points="426.022,-88.6844 431.425,-79.5707 421.518,-83.326 426.022,-88.6844"/>
</g>
<!-- Node24 -->
<g id="node60" class="node"><title>Node24</title>
<polygon fill="white" stroke="#bfbfbf" points="346,-58.5 346,-79.5 402,-79.5 402,-58.5 346,-58.5"/>
<text text-anchor="middle" x="374" y="-66.5" font-family="Helvetica,sans-Serif" font-size="10.00">wctype.h</text>
</g>
<!-- Node22&#45;&gt;Node24 -->
<g id="edge72" class="edge"><title>Node22&#45;&gt;Node24</title>
<path fill="none" stroke="midnightblue" d="M374.817,-116.362C374.688,-108.922 374.513,-98.7427 374.357,-89.7276"/>
<polygon fill="midnightblue" stroke="midnightblue" points="377.854,-89.5088 374.182,-79.5707 370.855,-89.6295 377.854,-89.5088"/>
</g>
</g>
</svg>
